<?xml version="1.0" encoding="UTF-8" standalone="no"?>
<svg width="32px" height="232px" viewBox="0 0 32 232" version="1.1" xmlns="http://www.w3.org/2000/svg" xmlns:xlink="http://www.w3.org/1999/xlink" xmlns:sketch="http://www.bohemiancoding.com/sketch/ns">
    <!-- Generator: Sketch 3.0 (7574) - http://www.bohemiancoding.com/sketch -->
    <title>Adventure-travel</title>
    <description>Created with Sketch.</description>
    <defs></defs>
    <g id="Gold-destinations" stroke="none" stroke-width="1" fill="none" fill-rule="evenodd" sketch:type="MSPage">
        <g id="Slices" sketch:type="MSLayerGroup"></g>
        <g id="Interests-Icons" sketch:type="MSLayerGroup" transform="translate(6.000000, -1.000000)">
            <g id="Adventure-Travel" transform="translate(0.000000, 123.000000)" fill="#206FAC" sketch:type="MSShapeGroup">
                <path d="M11.377931,7.12176923 C11.5234483,6.87530769 11.6075862,6.588 11.6075862,6.28061538 C11.6075862,6.24807692 11.6048276,6.21553846 11.6027586,6.183 C12.5137931,5.625 13.122069,4.617 13.122069,3.47053846 C13.122069,1.719 11.702069,0.292846154 9.95724138,0.292846154 C8.21172414,0.292846154 6.79241379,1.719 6.79241379,3.47053846 C6.79241379,4.617 7.40137931,5.625 8.31034483,6.183 C8.30827586,6.21553846 8.3062069,6.24807692 8.3062069,6.28061538 C8.3062069,6.588 8.39103448,6.87530769 8.53655172,7.12176923 C3.89310345,7.81338462 0.319310345,11.8405385 0.319310345,16.6908462 C0.319310345,22.0250769 4.64275862,26.3658462 9.95724138,26.3658462 C15.2703448,26.3658462 19.5951724,22.0250769 19.5951724,16.6908462 C19.5951724,11.8405385 16.0206897,7.81338462 11.377931,7.12176923 L11.377931,7.12176923 Z M9.95724138,1.22192308 C11.1924138,1.22192308 12.1965517,2.23061538 12.1965517,3.47053846 C12.1965517,4.21546154 11.8331034,4.87730769 11.2751724,5.28646154 C10.9737931,4.88492308 10.4958621,4.62392308 9.95724138,4.62392308 C9.41793103,4.62392308 8.94,4.88492308 8.63862069,5.28646154 C8.08068966,4.87730769 7.71655172,4.21546154 7.71655172,3.47053846 C7.71655172,2.23061538 8.72206897,1.22192308 9.95724138,1.22192308 L9.95724138,1.22192308 Z M9.95724138,24.5076923 C5.66206897,24.5076923 2.17034483,21.0011538 2.17034483,16.6908462 C2.17034483,12.3798462 5.66206897,8.874 9.95724138,8.874 C14.2503448,8.874 17.7448276,12.3798462 17.7448276,16.6908462 C17.7448276,21.0011538 14.2503448,24.5076923 9.95724138,24.5076923 L9.95724138,24.5076923 Z" id="Fill-1"></path>
                <path d="M15.8289655,16.4097692 L14.3117241,15.5291538 C14.1503448,14.922 13.8668966,14.3660769 13.4882759,13.8863077 L14.9655172,11.9395385 C15.0648276,11.8100769 15.0524138,11.6273077 14.937931,11.5130769 C14.8234483,11.3974615 14.6413793,11.3863846 14.5131034,11.4833077 L12.542069,12.9897692 C12.1151724,12.6872308 11.6331034,12.4580769 11.1137931,12.3189231 L10.2372414,10.7951538 C10.1793103,10.6954615 10.0724138,10.6331538 9.95724138,10.6331538 C9.84068966,10.6331538 9.73448276,10.6954615 9.67655172,10.7951538 L8.80068966,12.3189231 C7.24413793,12.7343077 6.01586207,13.9666154 5.60206897,15.5291538 L4.08413793,16.4097692 C3.98482759,16.4679231 3.92275862,16.5745385 3.92275862,16.6908462 C3.92275862,16.8071538 3.98482759,16.9137692 4.08413793,16.9719231 L5.60206897,17.8525385 C5.73655172,18.3606923 5.95862069,18.8349231 6.25034483,19.2579231 L4.5937931,21.4421538 C4.49448276,21.5709231 4.50758621,21.753 4.62206897,21.8679231 C4.68413793,21.9316154 4.76689655,21.9641538 4.85034483,21.9641538 C4.91931034,21.9641538 4.98827586,21.942 5.04689655,21.897 L7.19034483,20.2576154 C7.66206897,20.6266154 8.20758621,20.9035385 8.80068966,21.0620769 L9.67655172,22.5851538 C9.73448276,22.6862308 9.84068966,22.7485385 9.95724138,22.7485385 C10.0724138,22.7485385 10.1793103,22.6862308 10.2372414,22.5851538 L11.1137931,21.0620769 C12.6710345,20.6466923 13.8986207,19.4136923 14.3117241,17.8525385 L15.8289655,16.9719231 C15.9296552,16.9137692 15.9910345,16.8071538 15.9910345,16.6908462 C15.9910345,16.5745385 15.9296552,16.4679231 15.8289655,16.4097692 L15.8289655,16.4097692 Z M6.37655172,16.6908462 C6.37655172,14.7087692 7.98275862,13.0963846 9.95724138,13.0963846 C10.6144828,13.0963846 11.2310345,13.275 11.7606897,13.5879231 L8.91655172,15.7631538 C8.8937931,15.7804615 8.87310345,15.8012308 8.85448276,15.8240769 L6.84689655,18.4693846 C6.54827586,17.9453077 6.37655172,17.3367692 6.37655172,16.6908462 L6.37655172,16.6908462 Z M9.95724138,20.2846154 C9.21724138,20.2846154 8.52965517,20.0589231 7.95793103,19.6726154 L10.6427586,17.6192308 C10.6662069,17.6005385 10.6868966,17.5804615 10.7034483,17.5576154 L12.9055172,14.6554615 C13.3034483,15.2342308 13.537931,15.9348462 13.537931,16.6908462 C13.537931,18.6729231 11.9317241,20.2846154 9.95724138,20.2846154 L9.95724138,20.2846154 Z" id="Fill-2"></path>
            </g>
            <g id="Adventure-Travel-2" transform="translate(0.000000, 44.000000)" fill="#67737B" sketch:type="MSShapeGroup">
                <path d="M11.377931,7.12176923 C11.5234483,6.87530769 11.6075862,6.588 11.6075862,6.28061538 C11.6075862,6.24807692 11.6048276,6.21553846 11.6027586,6.183 C12.5137931,5.625 13.122069,4.617 13.122069,3.47053846 C13.122069,1.719 11.702069,0.292846154 9.95724138,0.292846154 C8.21172414,0.292846154 6.79241379,1.719 6.79241379,3.47053846 C6.79241379,4.617 7.40137931,5.625 8.31034483,6.183 C8.30827586,6.21553846 8.3062069,6.24807692 8.3062069,6.28061538 C8.3062069,6.588 8.39103448,6.87530769 8.53655172,7.12176923 C3.89310345,7.81338462 0.319310345,11.8405385 0.319310345,16.6908462 C0.319310345,22.0250769 4.64275862,26.3658462 9.95724138,26.3658462 C15.2703448,26.3658462 19.5951724,22.0250769 19.5951724,16.6908462 C19.5951724,11.8405385 16.0206897,7.81338462 11.377931,7.12176923 L11.377931,7.12176923 Z M9.95724138,1.22192308 C11.1924138,1.22192308 12.1965517,2.23061538 12.1965517,3.47053846 C12.1965517,4.21546154 11.8331034,4.87730769 11.2751724,5.28646154 C10.9737931,4.88492308 10.4958621,4.62392308 9.95724138,4.62392308 C9.41793103,4.62392308 8.94,4.88492308 8.63862069,5.28646154 C8.08068966,4.87730769 7.71655172,4.21546154 7.71655172,3.47053846 C7.71655172,2.23061538 8.72206897,1.22192308 9.95724138,1.22192308 L9.95724138,1.22192308 Z M9.95724138,24.5076923 C5.66206897,24.5076923 2.17034483,21.0011538 2.17034483,16.6908462 C2.17034483,12.3798462 5.66206897,8.874 9.95724138,8.874 C14.2503448,8.874 17.7448276,12.3798462 17.7448276,16.6908462 C17.7448276,21.0011538 14.2503448,24.5076923 9.95724138,24.5076923 L9.95724138,24.5076923 Z" id="Fill-1"></path>
                <path d="M15.8289655,16.4097692 L14.3117241,15.5291538 C14.1503448,14.922 13.8668966,14.3660769 13.4882759,13.8863077 L14.9655172,11.9395385 C15.0648276,11.8100769 15.0524138,11.6273077 14.937931,11.5130769 C14.8234483,11.3974615 14.6413793,11.3863846 14.5131034,11.4833077 L12.542069,12.9897692 C12.1151724,12.6872308 11.6331034,12.4580769 11.1137931,12.3189231 L10.2372414,10.7951538 C10.1793103,10.6954615 10.0724138,10.6331538 9.95724138,10.6331538 C9.84068966,10.6331538 9.73448276,10.6954615 9.67655172,10.7951538 L8.80068966,12.3189231 C7.24413793,12.7343077 6.01586207,13.9666154 5.60206897,15.5291538 L4.08413793,16.4097692 C3.98482759,16.4679231 3.92275862,16.5745385 3.92275862,16.6908462 C3.92275862,16.8071538 3.98482759,16.9137692 4.08413793,16.9719231 L5.60206897,17.8525385 C5.73655172,18.3606923 5.95862069,18.8349231 6.25034483,19.2579231 L4.5937931,21.4421538 C4.49448276,21.5709231 4.50758621,21.753 4.62206897,21.8679231 C4.68413793,21.9316154 4.76689655,21.9641538 4.85034483,21.9641538 C4.91931034,21.9641538 4.98827586,21.942 5.04689655,21.897 L7.19034483,20.2576154 C7.66206897,20.6266154 8.20758621,20.9035385 8.80068966,21.0620769 L9.67655172,22.5851538 C9.73448276,22.6862308 9.84068966,22.7485385 9.95724138,22.7485385 C10.0724138,22.7485385 10.1793103,22.6862308 10.2372414,22.5851538 L11.1137931,21.0620769 C12.6710345,20.6466923 13.8986207,19.4136923 14.3117241,17.8525385 L15.8289655,16.9719231 C15.9296552,16.9137692 15.9910345,16.8071538 15.9910345,16.6908462 C15.9910345,16.5745385 15.9296552,16.4679231 15.8289655,16.4097692 L15.8289655,16.4097692 Z M6.37655172,16.6908462 C6.37655172,14.7087692 7.98275862,13.0963846 9.95724138,13.0963846 C10.6144828,13.0963846 11.2310345,13.275 11.7606897,13.5879231 L8.91655172,15.7631538 C8.8937931,15.7804615 8.87310345,15.8012308 8.85448276,15.8240769 L6.84689655,18.4693846 C6.54827586,17.9453077 6.37655172,17.3367692 6.37655172,16.6908462 L6.37655172,16.6908462 Z M9.95724138,20.2846154 C9.21724138,20.2846154 8.52965517,20.0589231 7.95793103,19.6726154 L10.6427586,17.6192308 C10.6662069,17.6005385 10.6868966,17.5804615 10.7034483,17.5576154 L12.9055172,14.6554615 C13.3034483,15.2342308 13.537931,15.9348462 13.537931,16.6908462 C13.537931,18.6729231 11.9317241,20.2846154 9.95724138,20.2846154 L9.95724138,20.2846154 Z" id="Fill-2"></path>
            </g>
            <g id="Adventure-Travel-3" transform="translate(0.000000, 4.000000)" fill="#373D43" sketch:type="MSShapeGroup">
                <path d="M11.377931,7.12176923 C11.5234483,6.87530769 11.6075862,6.588 11.6075862,6.28061538 C11.6075862,6.24807692 11.6048276,6.21553846 11.6027586,6.183 C12.5137931,5.625 13.122069,4.617 13.122069,3.47053846 C13.122069,1.719 11.702069,0.292846154 9.95724138,0.292846154 C8.21172414,0.292846154 6.79241379,1.719 6.79241379,3.47053846 C6.79241379,4.617 7.40137931,5.625 8.31034483,6.183 C8.30827586,6.21553846 8.3062069,6.24807692 8.3062069,6.28061538 C8.3062069,6.588 8.39103448,6.87530769 8.53655172,7.12176923 C3.89310345,7.81338462 0.319310345,11.8405385 0.319310345,16.6908462 C0.319310345,22.0250769 4.64275862,26.3658462 9.95724138,26.3658462 C15.2703448,26.3658462 19.5951724,22.0250769 19.5951724,16.6908462 C19.5951724,11.8405385 16.0206897,7.81338462 11.377931,7.12176923 L11.377931,7.12176923 Z M9.95724138,1.22192308 C11.1924138,1.22192308 12.1965517,2.23061538 12.1965517,3.47053846 C12.1965517,4.21546154 11.8331034,4.87730769 11.2751724,5.28646154 C10.9737931,4.88492308 10.4958621,4.62392308 9.95724138,4.62392308 C9.41793103,4.62392308 8.94,4.88492308 8.63862069,5.28646154 C8.08068966,4.87730769 7.71655172,4.21546154 7.71655172,3.47053846 C7.71655172,2.23061538 8.72206897,1.22192308 9.95724138,1.22192308 L9.95724138,1.22192308 Z M9.95724138,24.5076923 C5.66206897,24.5076923 2.17034483,21.0011538 2.17034483,16.6908462 C2.17034483,12.3798462 5.66206897,8.874 9.95724138,8.874 C14.2503448,8.874 17.7448276,12.3798462 17.7448276,16.6908462 C17.7448276,21.0011538 14.2503448,24.5076923 9.95724138,24.5076923 L9.95724138,24.5076923 Z" id="Fill-1"></path>
                <path d="M15.8289655,16.4097692 L14.3117241,15.5291538 C14.1503448,14.922 13.8668966,14.3660769 13.4882759,13.8863077 L14.9655172,11.9395385 C15.0648276,11.8100769 15.0524138,11.6273077 14.937931,11.5130769 C14.8234483,11.3974615 14.6413793,11.3863846 14.5131034,11.4833077 L12.542069,12.9897692 C12.1151724,12.6872308 11.6331034,12.4580769 11.1137931,12.3189231 L10.2372414,10.7951538 C10.1793103,10.6954615 10.0724138,10.6331538 9.95724138,10.6331538 C9.84068966,10.6331538 9.73448276,10.6954615 9.67655172,10.7951538 L8.80068966,12.3189231 C7.24413793,12.7343077 6.01586207,13.9666154 5.60206897,15.5291538 L4.08413793,16.4097692 C3.98482759,16.4679231 3.92275862,16.5745385 3.92275862,16.6908462 C3.92275862,16.8071538 3.98482759,16.9137692 4.08413793,16.9719231 L5.60206897,17.8525385 C5.73655172,18.3606923 5.95862069,18.8349231 6.25034483,19.2579231 L4.5937931,21.4421538 C4.49448276,21.5709231 4.50758621,21.753 4.62206897,21.8679231 C4.68413793,21.9316154 4.76689655,21.9641538 4.85034483,21.9641538 C4.91931034,21.9641538 4.98827586,21.942 5.04689655,21.897 L7.19034483,20.2576154 C7.66206897,20.6266154 8.20758621,20.9035385 8.80068966,21.0620769 L9.67655172,22.5851538 C9.73448276,22.6862308 9.84068966,22.7485385 9.95724138,22.7485385 C10.0724138,22.7485385 10.1793103,22.6862308 10.2372414,22.5851538 L11.1137931,21.0620769 C12.6710345,20.6466923 13.8986207,19.4136923 14.3117241,17.8525385 L15.8289655,16.9719231 C15.9296552,16.9137692 15.9910345,16.8071538 15.9910345,16.6908462 C15.9910345,16.5745385 15.9296552,16.4679231 15.8289655,16.4097692 L15.8289655,16.4097692 Z M6.37655172,16.6908462 C6.37655172,14.7087692 7.98275862,13.0963846 9.95724138,13.0963846 C10.6144828,13.0963846 11.2310345,13.275 11.7606897,13.5879231 L8.91655172,15.7631538 C8.8937931,15.7804615 8.87310345,15.8012308 8.85448276,15.8240769 L6.84689655,18.4693846 C6.54827586,17.9453077 6.37655172,17.3367692 6.37655172,16.6908462 L6.37655172,16.6908462 Z M9.95724138,20.2846154 C9.21724138,20.2846154 8.52965517,20.0589231 7.95793103,19.6726154 L10.6427586,17.6192308 C10.6662069,17.6005385 10.6868966,17.5804615 10.7034483,17.5576154 L12.9055172,14.6554615 C13.3034483,15.2342308 13.537931,15.9348462 13.537931,16.6908462 C13.537931,18.6729231 11.9317241,20.2846154 9.95724138,20.2846154 L9.95724138,20.2846154 Z" id="Fill-2"></path>
            </g>
            <g id="Adventure-Travel-4" transform="translate(0.000000, 83.000000)" fill="#FFFFFF" sketch:type="MSShapeGroup">
                <path d="M11.377931,7.12176923 C11.5234483,6.87530769 11.6075862,6.588 11.6075862,6.28061538 C11.6075862,6.24807692 11.6048276,6.21553846 11.6027586,6.183 C12.5137931,5.625 13.122069,4.617 13.122069,3.47053846 C13.122069,1.719 11.702069,0.292846154 9.95724138,0.292846154 C8.21172414,0.292846154 6.79241379,1.719 6.79241379,3.47053846 C6.79241379,4.617 7.40137931,5.625 8.31034483,6.183 C8.30827586,6.21553846 8.3062069,6.24807692 8.3062069,6.28061538 C8.3062069,6.588 8.39103448,6.87530769 8.53655172,7.12176923 C3.89310345,7.81338462 0.319310345,11.8405385 0.319310345,16.6908462 C0.319310345,22.0250769 4.64275862,26.3658462 9.95724138,26.3658462 C15.2703448,26.3658462 19.5951724,22.0250769 19.5951724,16.6908462 C19.5951724,11.8405385 16.0206897,7.81338462 11.377931,7.12176923 L11.377931,7.12176923 Z M9.95724138,1.22192308 C11.1924138,1.22192308 12.1965517,2.23061538 12.1965517,3.47053846 C12.1965517,4.21546154 11.8331034,4.87730769 11.2751724,5.28646154 C10.9737931,4.88492308 10.4958621,4.62392308 9.95724138,4.62392308 C9.41793103,4.62392308 8.94,4.88492308 8.63862069,5.28646154 C8.08068966,4.87730769 7.71655172,4.21546154 7.71655172,3.47053846 C7.71655172,2.23061538 8.72206897,1.22192308 9.95724138,1.22192308 L9.95724138,1.22192308 Z M9.95724138,24.5076923 C5.66206897,24.5076923 2.17034483,21.0011538 2.17034483,16.6908462 C2.17034483,12.3798462 5.66206897,8.874 9.95724138,8.874 C14.2503448,8.874 17.7448276,12.3798462 17.7448276,16.6908462 C17.7448276,21.0011538 14.2503448,24.5076923 9.95724138,24.5076923 L9.95724138,24.5076923 Z" id="Fill-1"></path>
                <path d="M15.8289655,16.4097692 L14.3117241,15.5291538 C14.1503448,14.922 13.8668966,14.3660769 13.4882759,13.8863077 L14.9655172,11.9395385 C15.0648276,11.8100769 15.0524138,11.6273077 14.937931,11.5130769 C14.8234483,11.3974615 14.6413793,11.3863846 14.5131034,11.4833077 L12.542069,12.9897692 C12.1151724,12.6872308 11.6331034,12.4580769 11.1137931,12.3189231 L10.2372414,10.7951538 C10.1793103,10.6954615 10.0724138,10.6331538 9.95724138,10.6331538 C9.84068966,10.6331538 9.73448276,10.6954615 9.67655172,10.7951538 L8.80068966,12.3189231 C7.24413793,12.7343077 6.01586207,13.9666154 5.60206897,15.5291538 L4.08413793,16.4097692 C3.98482759,16.4679231 3.92275862,16.5745385 3.92275862,16.6908462 C3.92275862,16.8071538 3.98482759,16.9137692 4.08413793,16.9719231 L5.60206897,17.8525385 C5.73655172,18.3606923 5.95862069,18.8349231 6.25034483,19.2579231 L4.5937931,21.4421538 C4.49448276,21.5709231 4.50758621,21.753 4.62206897,21.8679231 C4.68413793,21.9316154 4.76689655,21.9641538 4.85034483,21.9641538 C4.91931034,21.9641538 4.98827586,21.942 5.04689655,21.897 L7.19034483,20.2576154 C7.66206897,20.6266154 8.20758621,20.9035385 8.80068966,21.0620769 L9.67655172,22.5851538 C9.73448276,22.6862308 9.84068966,22.7485385 9.95724138,22.7485385 C10.0724138,22.7485385 10.1793103,22.6862308 10.2372414,22.5851538 L11.1137931,21.0620769 C12.6710345,20.6466923 13.8986207,19.4136923 14.3117241,17.8525385 L15.8289655,16.9719231 C15.9296552,16.9137692 15.9910345,16.8071538 15.9910345,16.6908462 C15.9910345,16.5745385 15.9296552,16.4679231 15.8289655,16.4097692 L15.8289655,16.4097692 Z M6.37655172,16.6908462 C6.37655172,14.7087692 7.98275862,13.0963846 9.95724138,13.0963846 C10.6144828,13.0963846 11.2310345,13.275 11.7606897,13.5879231 L8.91655172,15.7631538 C8.8937931,15.7804615 8.87310345,15.8012308 8.85448276,15.8240769 L6.84689655,18.4693846 C6.54827586,17.9453077 6.37655172,17.3367692 6.37655172,16.6908462 L6.37655172,16.6908462 Z M9.95724138,20.2846154 C9.21724138,20.2846154 8.52965517,20.0589231 7.95793103,19.6726154 L10.6427586,17.6192308 C10.6662069,17.6005385 10.6868966,17.5804615 10.7034483,17.5576154 L12.9055172,14.6554615 C13.3034483,15.2342308 13.537931,15.9348462 13.537931,16.6908462 C13.537931,18.6729231 11.9317241,20.2846154 9.95724138,20.2846154 L9.95724138,20.2846154 Z" id="Fill-2"></path>
            </g>
        </g>
    </g>
</svg>