<?xml version="1.0" encoding="UTF-8" standalone="no"?>
<svg width="32px" height="232px" viewBox="0 0 32 232" version="1.1" xmlns="http://www.w3.org/2000/svg" xmlns:xlink="http://www.w3.org/1999/xlink" xmlns:sketch="http://www.bohemiancoding.com/sketch/ns">
    <!-- Generator: Sketch 3.0.1 (7597) - http://www.bohemiancoding.com/sketch -->
    <title>adventure-travel</title>
    <description>Created with Sketch.</description>
    <defs></defs>
    <g id="Points-of-interest" stroke="none" stroke-width="1" fill="none" fill-rule="evenodd" sketch:type="MSPage">
        <g id="Adventure-Travel-3" sketch:type="MSLayerGroup" transform="translate(4.000000, 0.000000)" fill="#3B444F">
            <path d="M14.1680109,8.3812963 C14.3491916,8.07880832 14.4539501,7.7261889 14.4539501,7.3489286 C14.4539501,7.30899339 14.4505154,7.26905818 14.4479394,7.22912297 C15.5822506,6.54427657 16.339603,5.3071347 16.339603,3.90005576 C16.339603,1.75035182 14.5715887,0 12.3991379,0 C10.2258284,0 8.45867281,1.75035182 8.45867281,3.90005576 C8.45867281,5.3071347 9.21688391,6.54427657 10.3486191,7.22912297 C10.3460431,7.26905818 10.3434671,7.30899339 10.3434671,7.3489286 C10.3434671,7.7261889 10.4490843,8.07880832 10.6302649,8.3812963 C4.84879804,9.23013197 0.399137931,14.1727517 0.399137931,20.1256472 C0.399137931,26.6724728 5.78217908,32 12.3991379,32 C19.0143794,32 24.3991379,26.6724728 24.3991379,20.1256472 C24.3991379,14.1727517 19.9486191,9.23013197 14.1680109,8.3812963 L14.1680109,8.3812963 Z M12.3991379,1.14027774 C13.937027,1.14027774 15.1872596,2.3782693 15.1872596,3.90005576 C15.1872596,4.8143172 14.7347372,5.62661639 14.0400682,6.12878044 C13.6648267,5.63596293 13.069764,5.31563156 12.3991379,5.31563156 C11.7276531,5.31563156 11.1325905,5.63596293 10.757349,6.12878044 C10.06268,5.62661639 9.60929893,4.8143172 9.60929893,3.90005576 C9.60929893,2.3782693 10.8612488,1.14027774 12.3991379,1.14027774 L12.3991379,1.14027774 Z M12.3991379,29.7194445 C7.05130251,29.7194445 2.70382487,25.4157882 2.70382487,20.1256472 C2.70382487,14.8346565 7.05130251,10.5318499 12.3991379,10.5318499 C17.7443973,10.5318499 22.0953097,14.8346565 22.0953097,20.1256472 C22.0953097,25.4157882 17.7443973,29.7194445 12.3991379,29.7194445 L12.3991379,29.7194445 Z" id="Fill-1" sketch:type="MSShapeGroup"></path>
            <path d="M19.7862069,19.5672093 L17.8896552,18.4898495 C17.687931,17.7470471 17.3336207,17.0669214 16.8603448,16.4799636 L18.7068966,14.0982531 C18.8310345,13.9398677 18.8155172,13.7162647 18.6724138,13.5765128 C18.5293103,13.435067 18.3017241,13.4215153 18.1413793,13.5400926 L15.6775862,15.3831232 C15.1439655,15.0129926 14.5413793,14.7326419 13.8922414,14.5623987 L12.7965517,12.6981935 C12.7241379,12.5762283 12.5905172,12.5 12.4465517,12.5 C12.3008621,12.5 12.1681034,12.5762283 12.0956897,12.6981935 L11.0008621,14.5623987 C9.05517241,15.0705873 7.51982759,16.5782134 7.00258621,18.4898495 L5.10517241,19.5672093 C4.98103448,19.6383557 4.90344828,19.7687907 4.90344828,19.9110835 C4.90344828,20.0533763 4.98103448,20.1838114 5.10517241,20.2549578 L7.00258621,21.3323176 C7.17068966,21.9540017 7.44827586,22.5341836 7.81293103,23.051689 L5.74224138,25.723914 C5.61810345,25.8814524 5.63448276,26.1042084 5.77758621,26.2448073 C5.85517241,26.3227295 5.95862069,26.3625376 6.06293103,26.3625376 C6.14913793,26.3625376 6.23534483,26.3354342 6.30862069,26.2803805 L8.98793103,24.2747295 C9.57758621,24.7261704 10.2594828,25.0649628 11.0008621,25.2589214 L12.0956897,27.1222796 C12.1681034,27.2459388 12.3008621,27.3221671 12.4465517,27.3221671 C12.5905172,27.3221671 12.7241379,27.2459388 12.7965517,27.1222796 L13.8922414,25.2589214 C15.8387931,24.7507328 17.3732759,23.2422597 17.8896552,21.3323176 L19.7862069,20.2549578 C19.912069,20.1838114 19.9887931,20.0533763 19.9887931,19.9110835 C19.9887931,19.7687907 19.912069,19.6383557 19.7862069,19.5672093 L19.7862069,19.5672093 Z M7.97068966,19.9110835 C7.97068966,17.486177 9.97844828,15.5135583 12.4465517,15.5135583 C13.2681034,15.5135583 14.0387931,15.7320794 14.7008621,16.1149148 L11.1456897,18.776129 C11.1172414,18.7973036 11.0913793,18.822713 11.0681034,18.8506634 L8.55862069,22.0869777 C8.18534483,21.4458131 7.97068966,20.7013168 7.97068966,19.9110835 L7.97068966,19.9110835 Z M12.4465517,24.3077618 C11.5215517,24.3077618 10.662069,24.031646 9.94741379,23.5590306 L13.3034483,21.046885 C13.3327586,21.0240165 13.3586207,20.9994541 13.3793103,20.9715037 L16.1318966,17.4209595 C16.6293103,18.1290356 16.9224138,18.9861803 16.9224138,19.9110835 C16.9224138,22.3359901 14.9146552,24.3077618 12.4465517,24.3077618 L12.4465517,24.3077618 Z" id="Fill-2" sketch:type="MSShapeGroup"></path>
        </g>
        <g id="Adventure-Travel-4" sketch:type="MSLayerGroup" transform="translate(4.000000, 40.000000)" fill="#67747C">
            <path d="M14.1680109,8.3812963 C14.3491916,8.07880832 14.4539501,7.7261889 14.4539501,7.3489286 C14.4539501,7.30899339 14.4505154,7.26905818 14.4479394,7.22912297 C15.5822506,6.54427657 16.339603,5.3071347 16.339603,3.90005576 C16.339603,1.75035182 14.5715887,0 12.3991379,0 C10.2258284,0 8.45867281,1.75035182 8.45867281,3.90005576 C8.45867281,5.3071347 9.21688391,6.54427657 10.3486191,7.22912297 C10.3460431,7.26905818 10.3434671,7.30899339 10.3434671,7.3489286 C10.3434671,7.7261889 10.4490843,8.07880832 10.6302649,8.3812963 C4.84879804,9.23013197 0.399137931,14.1727517 0.399137931,20.1256472 C0.399137931,26.6724728 5.78217908,32 12.3991379,32 C19.0143794,32 24.3991379,26.6724728 24.3991379,20.1256472 C24.3991379,14.1727517 19.9486191,9.23013197 14.1680109,8.3812963 L14.1680109,8.3812963 Z M12.3991379,1.14027774 C13.937027,1.14027774 15.1872596,2.3782693 15.1872596,3.90005576 C15.1872596,4.8143172 14.7347372,5.62661639 14.0400682,6.12878044 C13.6648267,5.63596293 13.069764,5.31563156 12.3991379,5.31563156 C11.7276531,5.31563156 11.1325905,5.63596293 10.757349,6.12878044 C10.06268,5.62661639 9.60929893,4.8143172 9.60929893,3.90005576 C9.60929893,2.3782693 10.8612488,1.14027774 12.3991379,1.14027774 L12.3991379,1.14027774 Z M12.3991379,29.7194445 C7.05130251,29.7194445 2.70382487,25.4157882 2.70382487,20.1256472 C2.70382487,14.8346565 7.05130251,10.5318499 12.3991379,10.5318499 C17.7443973,10.5318499 22.0953097,14.8346565 22.0953097,20.1256472 C22.0953097,25.4157882 17.7443973,29.7194445 12.3991379,29.7194445 L12.3991379,29.7194445 Z" id="Fill-1" sketch:type="MSShapeGroup"></path>
            <path d="M19.7862069,19.5672093 L17.8896552,18.4898495 C17.687931,17.7470471 17.3336207,17.0669214 16.8603448,16.4799636 L18.7068966,14.0982531 C18.8310345,13.9398677 18.8155172,13.7162647 18.6724138,13.5765128 C18.5293103,13.435067 18.3017241,13.4215153 18.1413793,13.5400926 L15.6775862,15.3831232 C15.1439655,15.0129926 14.5413793,14.7326419 13.8922414,14.5623987 L12.7965517,12.6981935 C12.7241379,12.5762283 12.5905172,12.5 12.4465517,12.5 C12.3008621,12.5 12.1681034,12.5762283 12.0956897,12.6981935 L11.0008621,14.5623987 C9.05517241,15.0705873 7.51982759,16.5782134 7.00258621,18.4898495 L5.10517241,19.5672093 C4.98103448,19.6383557 4.90344828,19.7687907 4.90344828,19.9110835 C4.90344828,20.0533763 4.98103448,20.1838114 5.10517241,20.2549578 L7.00258621,21.3323176 C7.17068966,21.9540017 7.44827586,22.5341836 7.81293103,23.051689 L5.74224138,25.723914 C5.61810345,25.8814524 5.63448276,26.1042084 5.77758621,26.2448073 C5.85517241,26.3227295 5.95862069,26.3625376 6.06293103,26.3625376 C6.14913793,26.3625376 6.23534483,26.3354342 6.30862069,26.2803805 L8.98793103,24.2747295 C9.57758621,24.7261704 10.2594828,25.0649628 11.0008621,25.2589214 L12.0956897,27.1222796 C12.1681034,27.2459388 12.3008621,27.3221671 12.4465517,27.3221671 C12.5905172,27.3221671 12.7241379,27.2459388 12.7965517,27.1222796 L13.8922414,25.2589214 C15.8387931,24.7507328 17.3732759,23.2422597 17.8896552,21.3323176 L19.7862069,20.2549578 C19.912069,20.1838114 19.9887931,20.0533763 19.9887931,19.9110835 C19.9887931,19.7687907 19.912069,19.6383557 19.7862069,19.5672093 L19.7862069,19.5672093 Z M7.97068966,19.9110835 C7.97068966,17.486177 9.97844828,15.5135583 12.4465517,15.5135583 C13.2681034,15.5135583 14.0387931,15.7320794 14.7008621,16.1149148 L11.1456897,18.776129 C11.1172414,18.7973036 11.0913793,18.822713 11.0681034,18.8506634 L8.55862069,22.0869777 C8.18534483,21.4458131 7.97068966,20.7013168 7.97068966,19.9110835 L7.97068966,19.9110835 Z M12.4465517,24.3077618 C11.5215517,24.3077618 10.662069,24.031646 9.94741379,23.5590306 L13.3034483,21.046885 C13.3327586,21.0240165 13.3586207,20.9994541 13.3793103,20.9715037 L16.1318966,17.4209595 C16.6293103,18.1290356 16.9224138,18.9861803 16.9224138,19.9110835 C16.9224138,22.3359901 14.9146552,24.3077618 12.4465517,24.3077618 L12.4465517,24.3077618 Z" id="Fill-2" sketch:type="MSShapeGroup"></path>
        </g>
        <g id="Adventure-Travel-5" sketch:type="MSLayerGroup" transform="translate(4.000000, 80.000000)" fill="#FFFFFF">
            <path d="M14.1680109,8.3812963 C14.3491916,8.07880832 14.4539501,7.7261889 14.4539501,7.3489286 C14.4539501,7.30899339 14.4505154,7.26905818 14.4479394,7.22912297 C15.5822506,6.54427657 16.339603,5.3071347 16.339603,3.90005576 C16.339603,1.75035182 14.5715887,0 12.3991379,0 C10.2258284,0 8.45867281,1.75035182 8.45867281,3.90005576 C8.45867281,5.3071347 9.21688391,6.54427657 10.3486191,7.22912297 C10.3460431,7.26905818 10.3434671,7.30899339 10.3434671,7.3489286 C10.3434671,7.7261889 10.4490843,8.07880832 10.6302649,8.3812963 C4.84879804,9.23013197 0.399137931,14.1727517 0.399137931,20.1256472 C0.399137931,26.6724728 5.78217908,32 12.3991379,32 C19.0143794,32 24.3991379,26.6724728 24.3991379,20.1256472 C24.3991379,14.1727517 19.9486191,9.23013197 14.1680109,8.3812963 L14.1680109,8.3812963 Z M12.3991379,1.14027774 C13.937027,1.14027774 15.1872596,2.3782693 15.1872596,3.90005576 C15.1872596,4.8143172 14.7347372,5.62661639 14.0400682,6.12878044 C13.6648267,5.63596293 13.069764,5.31563156 12.3991379,5.31563156 C11.7276531,5.31563156 11.1325905,5.63596293 10.757349,6.12878044 C10.06268,5.62661639 9.60929893,4.8143172 9.60929893,3.90005576 C9.60929893,2.3782693 10.8612488,1.14027774 12.3991379,1.14027774 L12.3991379,1.14027774 Z M12.3991379,29.7194445 C7.05130251,29.7194445 2.70382487,25.4157882 2.70382487,20.1256472 C2.70382487,14.8346565 7.05130251,10.5318499 12.3991379,10.5318499 C17.7443973,10.5318499 22.0953097,14.8346565 22.0953097,20.1256472 C22.0953097,25.4157882 17.7443973,29.7194445 12.3991379,29.7194445 L12.3991379,29.7194445 Z" id="Fill-1" sketch:type="MSShapeGroup"></path>
            <path d="M19.7862069,19.5672093 L17.8896552,18.4898495 C17.687931,17.7470471 17.3336207,17.0669214 16.8603448,16.4799636 L18.7068966,14.0982531 C18.8310345,13.9398677 18.8155172,13.7162647 18.6724138,13.5765128 C18.5293103,13.435067 18.3017241,13.4215153 18.1413793,13.5400926 L15.6775862,15.3831232 C15.1439655,15.0129926 14.5413793,14.7326419 13.8922414,14.5623987 L12.7965517,12.6981935 C12.7241379,12.5762283 12.5905172,12.5 12.4465517,12.5 C12.3008621,12.5 12.1681034,12.5762283 12.0956897,12.6981935 L11.0008621,14.5623987 C9.05517241,15.0705873 7.51982759,16.5782134 7.00258621,18.4898495 L5.10517241,19.5672093 C4.98103448,19.6383557 4.90344828,19.7687907 4.90344828,19.9110835 C4.90344828,20.0533763 4.98103448,20.1838114 5.10517241,20.2549578 L7.00258621,21.3323176 C7.17068966,21.9540017 7.44827586,22.5341836 7.81293103,23.051689 L5.74224138,25.723914 C5.61810345,25.8814524 5.63448276,26.1042084 5.77758621,26.2448073 C5.85517241,26.3227295 5.95862069,26.3625376 6.06293103,26.3625376 C6.14913793,26.3625376 6.23534483,26.3354342 6.30862069,26.2803805 L8.98793103,24.2747295 C9.57758621,24.7261704 10.2594828,25.0649628 11.0008621,25.2589214 L12.0956897,27.1222796 C12.1681034,27.2459388 12.3008621,27.3221671 12.4465517,27.3221671 C12.5905172,27.3221671 12.7241379,27.2459388 12.7965517,27.1222796 L13.8922414,25.2589214 C15.8387931,24.7507328 17.3732759,23.2422597 17.8896552,21.3323176 L19.7862069,20.2549578 C19.912069,20.1838114 19.9887931,20.0533763 19.9887931,19.9110835 C19.9887931,19.7687907 19.912069,19.6383557 19.7862069,19.5672093 L19.7862069,19.5672093 Z M7.97068966,19.9110835 C7.97068966,17.486177 9.97844828,15.5135583 12.4465517,15.5135583 C13.2681034,15.5135583 14.0387931,15.7320794 14.7008621,16.1149148 L11.1456897,18.776129 C11.1172414,18.7973036 11.0913793,18.822713 11.0681034,18.8506634 L8.55862069,22.0869777 C8.18534483,21.4458131 7.97068966,20.7013168 7.97068966,19.9110835 L7.97068966,19.9110835 Z M12.4465517,24.3077618 C11.5215517,24.3077618 10.662069,24.031646 9.94741379,23.5590306 L13.3034483,21.046885 C13.3327586,21.0240165 13.3586207,20.9994541 13.3793103,20.9715037 L16.1318966,17.4209595 C16.6293103,18.1290356 16.9224138,18.9861803 16.9224138,19.9110835 C16.9224138,22.3359901 14.9146552,24.3077618 12.4465517,24.3077618 L12.4465517,24.3077618 Z" id="Fill-2" sketch:type="MSShapeGroup"></path>
        </g>
        <g id="Adventure-Travel-6" sketch:type="MSLayerGroup" transform="translate(4.000000, 120.000000)" fill="#206FAC">
            <path d="M14.1680109,8.3812963 C14.3491916,8.07880832 14.4539501,7.7261889 14.4539501,7.3489286 C14.4539501,7.30899339 14.4505154,7.26905818 14.4479394,7.22912297 C15.5822506,6.54427657 16.339603,5.3071347 16.339603,3.90005576 C16.339603,1.75035182 14.5715887,0 12.3991379,0 C10.2258284,0 8.45867281,1.75035182 8.45867281,3.90005576 C8.45867281,5.3071347 9.21688391,6.54427657 10.3486191,7.22912297 C10.3460431,7.26905818 10.3434671,7.30899339 10.3434671,7.3489286 C10.3434671,7.7261889 10.4490843,8.07880832 10.6302649,8.3812963 C4.84879804,9.23013197 0.399137931,14.1727517 0.399137931,20.1256472 C0.399137931,26.6724728 5.78217908,32 12.3991379,32 C19.0143794,32 24.3991379,26.6724728 24.3991379,20.1256472 C24.3991379,14.1727517 19.9486191,9.23013197 14.1680109,8.3812963 L14.1680109,8.3812963 Z M12.3991379,1.14027774 C13.937027,1.14027774 15.1872596,2.3782693 15.1872596,3.90005576 C15.1872596,4.8143172 14.7347372,5.62661639 14.0400682,6.12878044 C13.6648267,5.63596293 13.069764,5.31563156 12.3991379,5.31563156 C11.7276531,5.31563156 11.1325905,5.63596293 10.757349,6.12878044 C10.06268,5.62661639 9.60929893,4.8143172 9.60929893,3.90005576 C9.60929893,2.3782693 10.8612488,1.14027774 12.3991379,1.14027774 L12.3991379,1.14027774 Z M12.3991379,29.7194445 C7.05130251,29.7194445 2.70382487,25.4157882 2.70382487,20.1256472 C2.70382487,14.8346565 7.05130251,10.5318499 12.3991379,10.5318499 C17.7443973,10.5318499 22.0953097,14.8346565 22.0953097,20.1256472 C22.0953097,25.4157882 17.7443973,29.7194445 12.3991379,29.7194445 L12.3991379,29.7194445 Z" id="Fill-1" sketch:type="MSShapeGroup"></path>
            <path d="M19.7862069,19.5672093 L17.8896552,18.4898495 C17.687931,17.7470471 17.3336207,17.0669214 16.8603448,16.4799636 L18.7068966,14.0982531 C18.8310345,13.9398677 18.8155172,13.7162647 18.6724138,13.5765128 C18.5293103,13.435067 18.3017241,13.4215153 18.1413793,13.5400926 L15.6775862,15.3831232 C15.1439655,15.0129926 14.5413793,14.7326419 13.8922414,14.5623987 L12.7965517,12.6981935 C12.7241379,12.5762283 12.5905172,12.5 12.4465517,12.5 C12.3008621,12.5 12.1681034,12.5762283 12.0956897,12.6981935 L11.0008621,14.5623987 C9.05517241,15.0705873 7.51982759,16.5782134 7.00258621,18.4898495 L5.10517241,19.5672093 C4.98103448,19.6383557 4.90344828,19.7687907 4.90344828,19.9110835 C4.90344828,20.0533763 4.98103448,20.1838114 5.10517241,20.2549578 L7.00258621,21.3323176 C7.17068966,21.9540017 7.44827586,22.5341836 7.81293103,23.051689 L5.74224138,25.723914 C5.61810345,25.8814524 5.63448276,26.1042084 5.77758621,26.2448073 C5.85517241,26.3227295 5.95862069,26.3625376 6.06293103,26.3625376 C6.14913793,26.3625376 6.23534483,26.3354342 6.30862069,26.2803805 L8.98793103,24.2747295 C9.57758621,24.7261704 10.2594828,25.0649628 11.0008621,25.2589214 L12.0956897,27.1222796 C12.1681034,27.2459388 12.3008621,27.3221671 12.4465517,27.3221671 C12.5905172,27.3221671 12.7241379,27.2459388 12.7965517,27.1222796 L13.8922414,25.2589214 C15.8387931,24.7507328 17.3732759,23.2422597 17.8896552,21.3323176 L19.7862069,20.2549578 C19.912069,20.1838114 19.9887931,20.0533763 19.9887931,19.9110835 C19.9887931,19.7687907 19.912069,19.6383557 19.7862069,19.5672093 L19.7862069,19.5672093 Z M7.97068966,19.9110835 C7.97068966,17.486177 9.97844828,15.5135583 12.4465517,15.5135583 C13.2681034,15.5135583 14.0387931,15.7320794 14.7008621,16.1149148 L11.1456897,18.776129 C11.1172414,18.7973036 11.0913793,18.822713 11.0681034,18.8506634 L8.55862069,22.0869777 C8.18534483,21.4458131 7.97068966,20.7013168 7.97068966,19.9110835 L7.97068966,19.9110835 Z M12.4465517,24.3077618 C11.5215517,24.3077618 10.662069,24.031646 9.94741379,23.5590306 L13.3034483,21.046885 C13.3327586,21.0240165 13.3586207,20.9994541 13.3793103,20.9715037 L16.1318966,17.4209595 C16.6293103,18.1290356 16.9224138,18.9861803 16.9224138,19.9110835 C16.9224138,22.3359901 14.9146552,24.3077618 12.4465517,24.3077618 L12.4465517,24.3077618 Z" id="Fill-2" sketch:type="MSShapeGroup"></path>
        </g>
    </g>
</svg>