<svg width="32" height="232" viewBox="0 0 32 232" xmlns="http://www.w3.org/2000/svg" xmlns:sketch="http://www.bohemiancoding.com/sketch/ns"><title>adventure-travel</title><g sketch:type="MSPage" fill="none"><g sketch:type="MSLayerGroup" fill="#3B444F"><path d="M18.168 8.381c.181-.302.286-.655.286-1.032l-.006-.12c1.134-.685 1.892-1.922 1.892-3.329 0-2.15-1.768-3.9-3.94-3.9-2.173 0-3.94 1.75-3.94 3.9 0 1.407.758 2.644 1.89 3.329l-.005.12c0 .377.106.73.287 1.032-5.781.849-10.231 5.791-10.231 11.744 0 6.547 5.383 11.874 12 11.874 6.615 0 12-5.328 12-11.874 0-5.953-4.451-10.896-10.231-11.744zm-1.769-7.241c1.538 0 2.788 1.238 2.788 2.76 0 .914-.453 1.727-1.147 2.229-.375-.493-.97-.813-1.641-.813s-1.267.32-1.642.813c-.695-.502-1.148-1.314-1.148-2.229 0-1.522 1.252-2.76 2.79-2.76zm0 28.579c-5.348 0-9.695-4.304-9.695-9.594 0-5.291 4.347-9.594 9.695-9.594 5.345 0 9.696 4.303 9.696 9.594 0 5.29-4.351 9.594-9.696 9.594z" id="Fill-1" sketch:type="MSShapeGroup"/><path d="M23.786 19.567l-1.897-1.077c-.202-.743-.556-1.423-1.029-2.01l1.847-2.382c.124-.158.109-.382-.034-.522-.143-.141-.371-.155-.531-.036l-2.464 1.843c-.534-.37-1.136-.65-1.785-.821l-1.096-1.864c-.072-.122-.206-.198-.35-.198-.146 0-.278.076-.351.198l-1.095 1.864c-1.946.508-3.481 2.016-3.998 3.927l-1.897 1.077c-.124.071-.202.202-.202.344 0 .142.078.273.202.344l1.897 1.077c.168.622.446 1.202.81 1.719l-2.071 2.672c-.124.158-.108.38.035.521.078.078.181.118.285.118.086 0 .172-.027.246-.082l2.679-2.006c.59.451 1.272.79 2.013.984l1.095 1.863c.072.124.205.2.351.2.144 0 .278-.076.35-.2l1.096-1.863c1.947-.508 3.481-2.017 3.997-3.927l1.897-1.077c.126-.071.203-.202.203-.344 0-.142-.077-.273-.203-.344zm-11.816.344c0-2.425 2.008-4.398 4.476-4.398.822 0 1.592.219 2.254.601l-3.555 2.661-.078.075-2.509 3.236c-.373-.641-.588-1.386-.588-2.176zm4.476 4.397c-.925 0-1.784-.276-2.499-.749l3.356-2.512.076-.075 2.753-3.551c.497.708.791 1.565.791 2.49 0 2.425-2.008 4.397-4.476 4.397z" id="Fill-2" sketch:type="MSShapeGroup"/></g><g sketch:type="MSLayerGroup" fill="#67747C"><path d="M18.168 48.381c.181-.302.286-.655.286-1.032l-.006-.12c1.134-.685 1.892-1.922 1.892-3.329 0-2.15-1.768-3.9-3.94-3.9-2.173 0-3.94 1.75-3.94 3.9 0 1.407.758 2.644 1.89 3.329l-.005.12c0 .377.106.73.287 1.032-5.781.849-10.231 5.791-10.231 11.744 0 6.547 5.383 11.874 12 11.874 6.615 0 12-5.328 12-11.874 0-5.953-4.451-10.896-10.231-11.744zm-1.769-7.241c1.538 0 2.788 1.238 2.788 2.76 0 .914-.453 1.727-1.147 2.229-.375-.493-.97-.813-1.641-.813s-1.267.32-1.642.813c-.695-.502-1.148-1.314-1.148-2.229 0-1.522 1.252-2.76 2.79-2.76zm0 28.579c-5.348 0-9.695-4.304-9.695-9.594 0-5.291 4.347-9.594 9.695-9.594 5.345 0 9.696 4.303 9.696 9.594 0 5.29-4.351 9.594-9.696 9.594z" id="Fill-1" sketch:type="MSShapeGroup"/><path d="M23.786 59.567l-1.897-1.077c-.202-.743-.556-1.423-1.029-2.01l1.847-2.382c.124-.158.109-.382-.034-.522-.143-.141-.371-.155-.531-.036l-2.464 1.843c-.534-.37-1.136-.65-1.785-.821l-1.096-1.864c-.072-.122-.206-.198-.35-.198-.146 0-.278.076-.351.198l-1.095 1.864c-1.946.508-3.481 2.016-3.998 3.927l-1.897 1.077c-.124.071-.202.202-.202.344 0 .142.078.273.202.344l1.897 1.077c.168.622.446 1.202.81 1.719l-2.071 2.672c-.124.158-.108.38.035.521.078.078.181.118.285.118.086 0 .172-.027.246-.082l2.679-2.006c.59.451 1.272.79 2.013.984l1.095 1.863c.072.124.205.2.351.2.144 0 .278-.076.35-.2l1.096-1.863c1.947-.508 3.481-2.017 3.997-3.927l1.897-1.077c.126-.071.203-.202.203-.344 0-.142-.077-.273-.203-.344zm-11.816.344c0-2.425 2.008-4.398 4.476-4.398.822 0 1.592.219 2.254.601l-3.555 2.661-.078.075-2.509 3.236c-.373-.641-.588-1.386-.588-2.176zm4.476 4.397c-.925 0-1.784-.276-2.499-.749l3.356-2.512.076-.075 2.753-3.551c.497.708.791 1.565.791 2.49 0 2.425-2.008 4.397-4.476 4.397z" id="Fill-2" sketch:type="MSShapeGroup"/></g><g sketch:type="MSLayerGroup" fill="#fff"><path d="M18.168 88.381c.181-.302.286-.655.286-1.032l-.006-.12c1.134-.685 1.892-1.922 1.892-3.329 0-2.15-1.768-3.9-3.94-3.9-2.173 0-3.94 1.75-3.94 3.9 0 1.407.758 2.644 1.89 3.329l-.005.12c0 .377.106.73.287 1.032-5.781.849-10.231 5.791-10.231 11.744 0 6.547 5.383 11.874 12 11.874 6.615 0 12-5.328 12-11.874 0-5.953-4.451-10.896-10.231-11.744zm-1.769-7.241c1.538 0 2.788 1.238 2.788 2.76 0 .914-.453 1.727-1.147 2.229-.375-.493-.97-.813-1.641-.813s-1.267.32-1.642.813c-.695-.502-1.148-1.314-1.148-2.229 0-1.522 1.252-2.76 2.79-2.76zm0 28.579c-5.348 0-9.695-4.304-9.695-9.594 0-5.291 4.347-9.594 9.695-9.594 5.345 0 9.696 4.303 9.696 9.594 0 5.29-4.351 9.594-9.696 9.594z" id="Fill-1" sketch:type="MSShapeGroup"/><path d="M23.786 99.567l-1.897-1.077c-.202-.743-.556-1.423-1.029-2.01l1.847-2.382c.124-.158.109-.382-.034-.522-.143-.141-.371-.155-.531-.036l-2.464 1.843c-.534-.37-1.136-.65-1.785-.821l-1.096-1.864c-.072-.122-.206-.198-.35-.198-.146 0-.278.076-.351.198l-1.095 1.864c-1.946.508-3.481 2.016-3.998 3.927l-1.897 1.077c-.124.071-.202.202-.202.344 0 .142.078.273.202.344l1.897 1.077c.168.622.446 1.202.81 1.719l-2.071 2.672c-.124.158-.108.38.035.521.078.078.181.118.285.118.086 0 .172-.027.246-.082l2.679-2.006c.59.451 1.272.79 2.013.984l1.095 1.863c.072.124.205.2.351.2.144 0 .278-.076.35-.2l1.096-1.863c1.947-.508 3.481-2.017 3.997-3.927l1.897-1.077c.126-.071.203-.202.203-.344 0-.142-.077-.273-.203-.344zm-11.816.344c0-2.425 2.008-4.398 4.476-4.398.822 0 1.592.219 2.254.601l-3.555 2.661-.078.075-2.509 3.236c-.373-.641-.588-1.386-.588-2.176zm4.476 4.397c-.925 0-1.784-.276-2.499-.749l3.356-2.512.076-.075 2.753-3.551c.497.708.791 1.565.791 2.49 0 2.425-2.008 4.397-4.476 4.397z" id="Fill-2" sketch:type="MSShapeGroup"/></g><g sketch:type="MSLayerGroup" fill="#206FAC"><path d="M18.168 128.381c.181-.302.286-.655.286-1.032l-.006-.12c1.134-.685 1.892-1.922 1.892-3.329 0-2.15-1.768-3.9-3.94-3.9-2.173 0-3.94 1.75-3.94 3.9 0 1.407.758 2.644 1.89 3.329l-.005.12c0 .377.106.73.287 1.032-5.781.849-10.231 5.791-10.231 11.744 0 6.547 5.383 11.874 12 11.874 6.615 0 12-5.328 12-11.874 0-5.953-4.451-10.896-10.231-11.744zm-1.769-7.241c1.538 0 2.788 1.238 2.788 2.76 0 .914-.453 1.727-1.147 2.229-.375-.493-.97-.813-1.641-.813s-1.267.32-1.642.813c-.695-.502-1.148-1.314-1.148-2.229 0-1.522 1.252-2.76 2.79-2.76zm0 28.579c-5.348 0-9.695-4.304-9.695-9.594 0-5.291 4.347-9.594 9.695-9.594 5.345 0 9.696 4.303 9.696 9.594 0 5.29-4.351 9.594-9.696 9.594z" sketch:type="MSShapeGroup"/><path d="M23.786 139.567l-1.897-1.077c-.202-.743-.556-1.423-1.029-2.01l1.847-2.382c.124-.158.109-.382-.034-.522-.143-.141-.371-.155-.531-.036l-2.464 1.843c-.534-.37-1.136-.65-1.785-.821l-1.096-1.864c-.072-.122-.206-.198-.35-.198-.146 0-.278.076-.351.198l-1.095 1.864c-1.946.508-3.481 2.016-3.998 3.927l-1.897 1.077c-.124.071-.202.202-.202.344 0 .142.078.273.202.344l1.897 1.077c.168.622.446 1.202.81 1.719l-2.071 2.672c-.124.158-.108.38.035.521.078.078.181.118.285.118.086 0 .172-.027.246-.082l2.679-2.006c.59.451 1.272.79 2.013.984l1.095 1.863c.072.124.205.2.351.2.144 0 .278-.076.35-.2l1.096-1.863c1.947-.508 3.481-2.017 3.997-3.927l1.897-1.077c.126-.071.203-.202.203-.344 0-.142-.077-.273-.203-.344zm-11.816.344c0-2.425 2.008-4.398 4.476-4.398.822 0 1.592.219 2.254.601l-3.555 2.661-.078.075-2.509 3.236c-.373-.641-.588-1.386-.588-2.176zm4.476 4.397c-.925 0-1.784-.276-2.499-.749l3.356-2.512.076-.075 2.753-3.551c.497.708.791 1.565.791 2.49 0 2.425-2.008 4.397-4.476 4.397z" sketch:type="MSShapeGroup"/></g></g></svg>