<svg width="32" height="232" viewBox="0 0 32 232" xmlns="http://www.w3.org/2000/svg" xmlns:sketch="http://www.bohemiancoding.com/sketch/ns"><title>Adventure-travel</title><g sketch:type="MSPage" fill="none"><g sketch:type="MSLayerGroup"><g fill="#206FAC" sketch:type="MSShapeGroup"><path d="M17.378 133.122c.146-.246.23-.534.23-.841l-.005-.098c.911-.558 1.519-1.566 1.519-2.712 0-1.752-1.42-3.178-3.165-3.178-1.746 0-3.165 1.426-3.165 3.178 0 1.146.609 2.154 1.518 2.712l-.004.098c0 .307.085.595.23.841-4.643.692-8.217 4.719-8.217 9.569 0 5.334 4.323 9.675 9.638 9.675 5.313 0 9.638-4.341 9.638-9.675 0-4.85-3.574-8.877-8.217-9.569zm-1.421-5.9c1.235 0 2.239 1.009 2.239 2.249 0 .745-.363 1.407-.921 1.816-.301-.402-.779-.663-1.318-.663s-1.017.261-1.319.663c-.558-.409-.922-1.071-.922-1.816 0-1.24 1.006-2.249 2.241-2.249zm0 23.286c-4.295 0-7.787-3.507-7.787-7.817 0-4.311 3.492-7.817 7.787-7.817 4.293 0 7.788 3.506 7.788 7.817 0 4.31-3.494 7.817-7.788 7.817z" id="Fill-1"/><path d="M21.829 142.41l-1.517-.881c-.161-.607-.445-1.163-.823-1.643l1.477-1.947c.099-.129.087-.312-.028-.426-.114-.116-.297-.127-.425-.03l-1.971 1.506c-.427-.303-.909-.532-1.428-.671l-.877-1.524c-.058-.1-.165-.162-.28-.162-.117 0-.223.062-.281.162l-.876 1.524c-1.557.415-2.785 1.648-3.199 3.21l-1.518.881c-.099.058-.161.165-.161.281 0 .116.062.223.161.281l1.518.881c.134.508.357.982.648 1.405l-1.657 2.184c-.099.129-.086.311.028.426.062.064.145.096.228.096.069 0 .138-.022.197-.067l2.143-1.639c.472.369 1.017.646 1.61.804l.876 1.523c.058.101.164.163.281.163.115 0 .222-.062.28-.163l.877-1.523c1.557-.415 2.785-1.648 3.198-3.21l1.517-.881c.101-.058.162-.165.162-.281 0-.116-.061-.223-.162-.281zm-9.452.281c0-1.982 1.606-3.594 3.581-3.594.657 0 1.274.179 1.803.492l-2.844 2.175-.062.061-2.008 2.645c-.299-.524-.47-1.133-.47-1.779zm3.581 3.594c-.74 0-1.428-.226-1.999-.612l2.685-2.053.061-.062 2.202-2.902c.398.579.632 1.279.632 2.035 0 1.982-1.606 3.594-3.581 3.594z" id="Fill-2"/></g><g fill="#67737B" sketch:type="MSShapeGroup"><path d="M17.378 94.122c.146-.246.23-.534.23-.841l-.005-.098c.911-.558 1.519-1.566 1.519-2.712 0-1.752-1.42-3.178-3.165-3.178-1.746 0-3.165 1.426-3.165 3.178 0 1.146.609 2.154 1.518 2.712l-.004.098c0 .307.085.595.23.841-4.643.692-8.217 4.719-8.217 9.569 0 5.334 4.323 9.675 9.638 9.675 5.313 0 9.638-4.341 9.638-9.675 0-4.85-3.574-8.877-8.217-9.569zm-1.421-5.9c1.235 0 2.239 1.009 2.239 2.249 0 .745-.363 1.407-.921 1.816-.301-.402-.779-.663-1.318-.663s-1.017.261-1.319.663c-.558-.409-.922-1.071-.922-1.816 0-1.24 1.006-2.249 2.241-2.249zm0 23.286c-4.295 0-7.787-3.507-7.787-7.817 0-4.311 3.492-7.817 7.787-7.817 4.293 0 7.788 3.506 7.788 7.817 0 4.31-3.494 7.817-7.788 7.817z" id="Fill-1"/><path d="M21.829 103.41l-1.517-.881c-.161-.607-.445-1.163-.823-1.643l1.477-1.947c.099-.129.087-.312-.028-.426-.114-.116-.297-.127-.425-.03l-1.971 1.506c-.427-.303-.909-.532-1.428-.671l-.877-1.524c-.058-.1-.165-.162-.28-.162-.117 0-.223.062-.281.162l-.876 1.524c-1.557.415-2.785 1.648-3.199 3.21l-1.518.881c-.099.058-.161.165-.161.281 0 .116.062.223.161.281l1.518.881c.134.508.357.982.648 1.405l-1.657 2.184c-.099.129-.086.311.028.426.062.064.145.096.228.096.069 0 .138-.022.197-.067l2.143-1.639c.472.369 1.017.646 1.61.804l.876 1.523c.058.101.164.163.281.163.115 0 .222-.062.28-.163l.877-1.523c1.557-.415 2.785-1.648 3.198-3.21l1.517-.881c.101-.058.162-.165.162-.281 0-.116-.061-.223-.162-.281zm-9.452.281c0-1.982 1.606-3.594 3.581-3.594.657 0 1.274.179 1.803.492l-2.844 2.175-.062.061-2.008 2.645c-.299-.524-.47-1.133-.47-1.779zm3.581 3.594c-.74 0-1.428-.226-1.999-.612l2.685-2.053.061-.062 2.202-2.902c.398.579.632 1.279.632 2.035 0 1.982-1.606 3.594-3.581 3.594z" id="Fill-2"/></g><g fill="#373D43" sketch:type="MSShapeGroup"><path d="M17.378 54.122c.146-.246.23-.534.23-.841l-.005-.098c.911-.558 1.519-1.566 1.519-2.712 0-1.752-1.42-3.178-3.165-3.178-1.746 0-3.165 1.426-3.165 3.178 0 1.146.609 2.154 1.518 2.712l-.004.098c0 .307.085.595.23.841-4.643.692-8.217 4.719-8.217 9.569 0 5.334 4.323 9.675 9.638 9.675 5.313 0 9.638-4.341 9.638-9.675 0-4.85-3.574-8.877-8.217-9.569zm-1.421-5.9c1.235 0 2.239 1.009 2.239 2.249 0 .745-.363 1.407-.921 1.816-.301-.402-.779-.663-1.318-.663s-1.017.261-1.319.663c-.558-.409-.922-1.071-.922-1.816 0-1.24 1.006-2.249 2.241-2.249zm0 23.286c-4.295 0-7.787-3.507-7.787-7.817 0-4.311 3.492-7.817 7.787-7.817 4.293 0 7.788 3.506 7.788 7.817 0 4.31-3.494 7.817-7.788 7.817z" id="Fill-1"/><path d="M21.829 63.41l-1.517-.881c-.161-.607-.445-1.163-.823-1.643l1.477-1.947c.099-.129.087-.312-.028-.426-.114-.116-.297-.127-.425-.03l-1.971 1.506c-.427-.303-.909-.532-1.428-.671l-.877-1.524c-.058-.1-.165-.162-.28-.162-.117 0-.223.062-.281.162l-.876 1.524c-1.557.415-2.785 1.648-3.199 3.21l-1.518.881c-.099.058-.161.165-.161.281 0 .116.062.223.161.281l1.518.881c.134.508.357.982.648 1.405l-1.657 2.184c-.099.129-.086.311.028.426.062.064.145.096.228.096.069 0 .138-.022.197-.067l2.143-1.639c.472.369 1.017.646 1.61.804l.876 1.523c.058.101.164.163.281.163.115 0 .222-.062.28-.163l.877-1.523c1.557-.415 2.785-1.648 3.198-3.21l1.517-.881c.101-.058.162-.165.162-.281 0-.116-.061-.223-.162-.281zm-9.452.281c0-1.982 1.606-3.594 3.581-3.594.657 0 1.274.179 1.803.492l-2.844 2.175-.062.061-2.008 2.645c-.299-.524-.47-1.133-.47-1.779zm3.581 3.594c-.74 0-1.428-.226-1.999-.612l2.685-2.053.061-.062 2.202-2.902c.398.579.632 1.279.632 2.035 0 1.982-1.606 3.594-3.581 3.594z" id="Fill-2"/></g><g fill="#fff" sketch:type="MSShapeGroup"><path d="M17.378 10.122c.146-.246.23-.534.23-.841l-.005-.098c.911-.558 1.519-1.566 1.519-2.712 0-1.752-1.42-3.178-3.165-3.178-1.746 0-3.165 1.426-3.165 3.178 0 1.146.609 2.154 1.518 2.712l-.004.098c0 .307.085.595.23.841-4.643.692-8.217 4.719-8.217 9.569 0 5.334 4.323 9.675 9.638 9.675 5.313 0 9.638-4.341 9.638-9.675 0-4.85-3.574-8.877-8.217-9.569zm-1.421-5.9c1.235 0 2.239 1.009 2.239 2.249 0 .745-.363 1.407-.921 1.816-.301-.402-.779-.663-1.318-.663s-1.017.261-1.319.663c-.558-.409-.922-1.071-.922-1.816 0-1.24 1.006-2.249 2.241-2.249zm0 23.286c-4.295 0-7.787-3.507-7.787-7.817 0-4.311 3.492-7.817 7.787-7.817 4.293 0 7.788 3.506 7.788 7.817 0 4.31-3.494 7.817-7.788 7.817z"/><path d="M21.829 19.41l-1.517-.881c-.161-.607-.445-1.163-.823-1.643l1.477-1.947c.099-.129.087-.312-.028-.426-.114-.116-.297-.127-.425-.03l-1.971 1.506c-.427-.303-.909-.532-1.428-.671l-.877-1.524c-.058-.1-.165-.162-.28-.162-.117 0-.223.062-.281.162l-.876 1.524c-1.557.415-2.785 1.648-3.199 3.21l-1.518.881c-.099.058-.161.165-.161.281 0 .116.062.223.161.281l1.518.881c.134.508.357.982.648 1.405l-1.657 2.184c-.099.129-.086.311.028.426.062.064.145.096.228.096.069 0 .138-.022.197-.067l2.143-1.639c.472.369 1.017.646 1.61.804l.876 1.523c.058.101.164.163.281.163.115 0 .222-.062.28-.163l.877-1.523c1.557-.415 2.785-1.648 3.198-3.21l1.517-.881c.101-.058.162-.165.162-.281 0-.116-.061-.223-.162-.281zm-9.452.281c0-1.982 1.606-3.594 3.581-3.594.657 0 1.274.179 1.803.492l-2.844 2.175-.062.061-2.008 2.645c-.299-.524-.47-1.133-.47-1.779zm3.581 3.594c-.74 0-1.428-.226-1.999-.612l2.685-2.053.061-.062 2.202-2.902c.398.579.632 1.279.632 2.035 0 1.982-1.606 3.594-3.581 3.594z"/></g></g></g></svg>