<?xml version="1.0" encoding="UTF-8" standalone="no"?>
<svg width="32px" height="232px" viewBox="0 0 32 232" version="1.1" xmlns="http://www.w3.org/2000/svg" xmlns:xlink="http://www.w3.org/1999/xlink" xmlns:sketch="http://www.bohemiancoding.com/sketch/ns">
    <!-- Generator: Sketch 3.0.1 (7597) - http://www.bohemiancoding.com/sketch -->
    <title>beaches</title>
    <description>Created with Sketch.</description>
    <defs></defs>
    <g id="Points-of-interest" stroke="none" stroke-width="1" fill="none" fill-rule="evenodd" sketch:type="MSPage">
        <path d="M28.4722742,25.956432 L25.5038474,26.9233472 L20.3773379,25.5293077 C20.3077473,25.5099694 20.235837,25.4990391 20.1639267,25.4965167 L16.150094,25.3350839 L15.900341,23.4735619 L28.9083755,23.4735619 C29.4805651,23.4735619 29.9452758,22.9690844 29.9452758,22.3460547 C29.9452758,21.723025 29.4805651,21.2185475 28.9083755,21.2185475 L28.508616,21.2185475 C28.5751137,20.86205 28.6091358,20.4979854 28.6091358,20.1313985 C28.6091358,17.1314389 26.3652247,14.6906086 23.6055698,14.6906086 C20.846688,14.6906086 18.602777,17.1314389 18.602777,20.1313985 C18.602777,20.4979854 18.6383455,20.86205 18.70407,21.2185475 L15.5987816,21.2185475 L14.5116214,13.0981413 C14.5046623,13.0518975 14.4946103,13.0073353 14.4837851,12.9627732 C15.2345907,13.0350816 15.9567867,13.3100218 16.5947008,13.7682556 C17.0346682,14.0852356 17.6238688,13.9910665 17.9633164,13.5513302 C18.6831928,12.6155245 19.6914836,12.0017435 20.8033872,11.8251764 C21.0222111,11.7907038 21.2449011,11.7738878 21.4644982,11.7738878 C22.0622043,11.7738878 22.6452191,11.8991664 23.1988512,12.1488828 C23.3310734,12.2085793 23.4725743,12.2380071 23.6094359,12.234644 C24.1769861,12.2279176 24.6347378,11.7251217 24.6347378,11.1079775 C24.6347378,10.9154353 24.5906637,10.7363458 24.5133408,10.5782762 C22.6088773,6.0278891 18.4202949,3.09267083 13.8211277,3.09267083 C13.4252344,3.09267083 13.0254749,3.11537232 12.6264886,3.1590937 L12.573909,2.76223806 C12.5329279,2.45366599 12.2684835,2.24010385 11.9870281,2.28634762 C11.703253,2.330069 11.5060795,2.61593959 11.5470607,2.92451166 L11.6011867,3.3205265 C6.66411842,4.34881981 2.81266387,8.74450044 2.14691354,14.1945391 C2.09124104,14.651932 2.29769323,15.1017578 2.66807001,15.3262503 C2.82658199,15.422101 3.00055856,15.4691855 3.17608158,15.4691855 C3.40727711,15.4691855 3.63924586,15.3842652 3.82791378,15.2169468 C4.46350817,14.6578176 5.22823183,14.293753 6.04166893,14.1634296 C6.26126601,14.1297978 6.48395602,14.1121411 6.7035531,14.1121411 C7.59663281,14.1121411 8.46496918,14.3971709 9.21345502,14.9369618 C9.65419566,15.2539418 10.2433963,15.1606135 10.5820707,14.7208773 C11.0854429,14.0667381 11.7279963,13.5706685 12.4478727,13.272186 C12.4486459,13.321793 12.4509656,13.3722407 12.4579247,13.4226885 L13.5033305,21.2185475 L3.03690033,21.2185475 C2.46471074,21.2185475 2,21.723025 2,22.3460547 C2,22.9690844 2.46471074,23.4735619 3.03690033,23.4735619 L13.8048899,23.4735619 L14.0430445,25.2501635 L13.6572031,25.2350292 C13.5497243,25.2308252 13.4414722,25.2442779 13.3378595,25.2762282 L10.0864308,26.2700489 L6.23806914,26.5508747 L3.46758898,25.6646759 C2.91859627,25.4881087 2.3417673,25.8311534 2.17938917,26.4272777 C2.01778427,27.0250835 2.33326178,27.6523172 2.88225449,27.8280436 L5.8290309,28.7714165 C5.9481082,28.8084115 6.06950518,28.8235458 6.19244862,28.8142971 L10.3315444,28.5132922 C10.4026815,28.5074066 10.4745918,28.4931131 10.5441824,28.472934 L13.7422583,27.4950884 L14.3469236,27.5194715 L14.4907442,28.5906454 C14.5657474,29.1514562 15.0088077,29.555879 15.5160461,29.555879 C15.5655327,29.555879 15.6157926,29.551675 15.667599,29.5432671 C16.2320563,29.4541427 16.6256299,28.8815607 16.5428944,28.2652574 L16.4547463,27.6043919 L19.9798981,27.7464864 L25.2772912,29.1867696 C25.3592535,29.2094711 25.4443087,29.2204015 25.529364,29.2204015 C25.6298838,29.2204015 25.7296303,29.2044263 25.8270572,29.1733169 L29.0692071,28.1172773 C29.6166534,27.9381878 29.9282648,27.3101133 29.7643402,26.7131483 C29.6004156,26.1161832 29.0220402,25.7781833 28.4722742,25.956432 L28.4722742,25.956432 Z M20.6773509,20.1313985 C20.6773509,18.3741352 21.9910672,16.945623 23.6055698,16.945623 C25.2200723,16.945623 26.5353351,18.3741352 26.5353351,20.1313985 C26.5353351,20.5047118 26.4750232,20.8712988 26.3598121,21.2185475 L20.8536471,21.2185475 C20.7368895,20.8712988 20.6773509,20.5047118 20.6773509,20.1313985 L20.6773509,20.1313985 Z M21.5325423,9.51803261 C21.190775,9.51551023 20.8435951,9.5407341 20.5026011,9.59370424 C19.324973,9.78120171 18.2269876,10.3050175 17.3130307,11.1029328 C16.7207371,8.86305266 15.8910622,6.78376455 14.9059682,5.41410813 C17.5473191,5.73949612 19.9427831,7.2386351 21.5325423,9.51803261 L21.5325423,9.51803261 Z M6.7035531,11.8562858 C6.38420945,11.8562858 6.06022643,11.8831913 5.74088277,11.9336391 C5.40143516,11.9866092 5.06508047,12.069848 4.7372313,12.1799922 C5.66974569,9.49701272 7.58658083,7.32775946 10.0052417,6.19941145 C9.42377336,7.81626184 9.17402034,10.0637091 9.19567075,12.3885096 C8.40620376,12.0395793 7.56338395,11.8562858 6.7035531,11.8562858 L6.7035531,11.8562858 Z M10.2279317,12.028649 C10.2325711,8.9958984 10.7289842,6.77871978 11.4125188,5.67727723 C11.7388215,5.58563048 12.0720833,5.51248125 12.4115309,5.45867031 C12.7478856,5.40485938 13.0873332,5.37122755 13.4267808,5.35693402 C14.368574,6.20109304 15.4278979,8.17275927 16.2274169,11.0785497 C15.5423359,10.8212662 14.8193666,10.6875796 14.0847989,10.6875796 C13.764682,10.6875796 13.4414722,10.7136443 13.1221285,10.7632512 C12.0697636,10.9305696 11.0800303,11.3669427 10.2279317,12.028649 L10.2279317,12.028649 Z" id="Beaches-3" fill="#3B444F" sketch:type="MSShapeGroup"></path>
        <path d="M28.4722742,65.956432 L25.5038474,66.9233472 L20.3773379,65.5293077 C20.3077473,65.5099694 20.235837,65.4990391 20.1639267,65.4965167 L16.150094,65.3350839 L15.900341,63.4735619 L28.9083755,63.4735619 C29.4805651,63.4735619 29.9452758,62.9690844 29.9452758,62.3460547 C29.9452758,61.723025 29.4805651,61.2185475 28.9083755,61.2185475 L28.508616,61.2185475 C28.5751137,60.86205 28.6091358,60.4979854 28.6091358,60.1313985 C28.6091358,57.1314389 26.3652247,54.6906086 23.6055698,54.6906086 C20.846688,54.6906086 18.602777,57.1314389 18.602777,60.1313985 C18.602777,60.4979854 18.6383455,60.86205 18.70407,61.2185475 L15.5987816,61.2185475 L14.5116214,53.0981413 C14.5046623,53.0518975 14.4946103,53.0073353 14.4837851,52.9627732 C15.2345907,53.0350816 15.9567867,53.3100218 16.5947008,53.7682556 C17.0346682,54.0852356 17.6238688,53.9910665 17.9633164,53.5513302 C18.6831928,52.6155245 19.6914836,52.0017435 20.8033872,51.8251764 C21.0222111,51.7907038 21.2449011,51.7738878 21.4644982,51.7738878 C22.0622043,51.7738878 22.6452191,51.8991664 23.1988512,52.1488828 C23.3310734,52.2085793 23.4725743,52.2380071 23.6094359,52.234644 C24.1769861,52.2279176 24.6347378,51.7251217 24.6347378,51.1079775 C24.6347378,50.9154353 24.5906637,50.7363458 24.5133408,50.5782762 C22.6088773,46.0278891 18.4202949,43.0926708 13.8211277,43.0926708 C13.4252344,43.0926708 13.0254749,43.1153723 12.6264886,43.1590937 L12.573909,42.7622381 C12.5329279,42.453666 12.2684835,42.2401039 11.9870281,42.2863476 C11.703253,42.330069 11.5060795,42.6159396 11.5470607,42.9245117 L11.6011867,43.3205265 C6.66411842,44.3488198 2.81266387,48.7445004 2.14691354,54.1945391 C2.09124104,54.651932 2.29769323,55.1017578 2.66807001,55.3262503 C2.82658199,55.422101 3.00055856,55.4691855 3.17608158,55.4691855 C3.40727711,55.4691855 3.63924586,55.3842652 3.82791378,55.2169468 C4.46350817,54.6578176 5.22823183,54.293753 6.04166893,54.1634296 C6.26126601,54.1297978 6.48395602,54.1121411 6.7035531,54.1121411 C7.59663281,54.1121411 8.46496918,54.3971709 9.21345502,54.9369618 C9.65419566,55.2539418 10.2433963,55.1606135 10.5820707,54.7208773 C11.0854429,54.0667381 11.7279963,53.5706685 12.4478727,53.272186 C12.4486459,53.321793 12.4509656,53.3722407 12.4579247,53.4226885 L13.5033305,61.2185475 L3.03690033,61.2185475 C2.46471074,61.2185475 2,61.723025 2,62.3460547 C2,62.9690844 2.46471074,63.4735619 3.03690033,63.4735619 L13.8048899,63.4735619 L14.0430445,65.2501635 L13.6572031,65.2350292 C13.5497243,65.2308252 13.4414722,65.2442779 13.3378595,65.2762282 L10.0864308,66.2700489 L6.23806914,66.5508747 L3.46758898,65.6646759 C2.91859627,65.4881087 2.3417673,65.8311534 2.17938917,66.4272777 C2.01778427,67.0250835 2.33326178,67.6523172 2.88225449,67.8280436 L5.8290309,68.7714165 C5.9481082,68.8084115 6.06950518,68.8235458 6.19244862,68.8142971 L10.3315444,68.5132922 C10.4026815,68.5074066 10.4745918,68.4931131 10.5441824,68.472934 L13.7422583,67.4950884 L14.3469236,67.5194715 L14.4907442,68.5906454 C14.5657474,69.1514562 15.0088077,69.555879 15.5160461,69.555879 C15.5655327,69.555879 15.6157926,69.551675 15.667599,69.5432671 C16.2320563,69.4541427 16.6256299,68.8815607 16.5428944,68.2652574 L16.4547463,67.6043919 L19.9798981,67.7464864 L25.2772912,69.1867696 C25.3592535,69.2094711 25.4443087,69.2204015 25.529364,69.2204015 C25.6298838,69.2204015 25.7296303,69.2044263 25.8270572,69.1733169 L29.0692071,68.1172773 C29.6166534,67.9381878 29.9282648,67.3101133 29.7643402,66.7131483 C29.6004156,66.1161832 29.0220402,65.7781833 28.4722742,65.956432 L28.4722742,65.956432 Z M20.6773509,60.1313985 C20.6773509,58.3741352 21.9910672,56.945623 23.6055698,56.945623 C25.2200723,56.945623 26.5353351,58.3741352 26.5353351,60.1313985 C26.5353351,60.5047118 26.4750232,60.8712988 26.3598121,61.2185475 L20.8536471,61.2185475 C20.7368895,60.8712988 20.6773509,60.5047118 20.6773509,60.1313985 L20.6773509,60.1313985 Z M21.5325423,49.5180326 C21.190775,49.5155102 20.8435951,49.5407341 20.5026011,49.5937042 C19.324973,49.7812017 18.2269876,50.3050175 17.3130307,51.1029328 C16.7207371,48.8630527 15.8910622,46.7837646 14.9059682,45.4141081 C17.5473191,45.7394961 19.9427831,47.2386351 21.5325423,49.5180326 L21.5325423,49.5180326 Z M6.7035531,51.8562858 C6.38420945,51.8562858 6.06022643,51.8831913 5.74088277,51.9336391 C5.40143516,51.9866092 5.06508047,52.069848 4.7372313,52.1799922 C5.66974569,49.4970127 7.58658083,47.3277595 10.0052417,46.1994114 C9.42377336,47.8162618 9.17402034,50.0637091 9.19567075,52.3885096 C8.40620376,52.0395793 7.56338395,51.8562858 6.7035531,51.8562858 L6.7035531,51.8562858 Z M10.2279317,52.028649 C10.2325711,48.9958984 10.7289842,46.7787198 11.4125188,45.6772772 C11.7388215,45.5856305 12.0720833,45.5124812 12.4115309,45.4586703 C12.7478856,45.4048594 13.0873332,45.3712275 13.4267808,45.356934 C14.368574,46.201093 15.4278979,48.1727593 16.2274169,51.0785497 C15.5423359,50.8212662 14.8193666,50.6875796 14.0847989,50.6875796 C13.764682,50.6875796 13.4414722,50.7136443 13.1221285,50.7632512 C12.0697636,50.9305696 11.0800303,51.3669427 10.2279317,52.028649 L10.2279317,52.028649 Z" id="Beaches-4" fill="#67747C" sketch:type="MSShapeGroup"></path>
        <path d="M28.4722742,105.956432 L25.5038474,106.923347 L20.3773379,105.529308 C20.3077473,105.509969 20.235837,105.499039 20.1639267,105.496517 L16.150094,105.335084 L15.900341,103.473562 L28.9083755,103.473562 C29.4805651,103.473562 29.9452758,102.969084 29.9452758,102.346055 C29.9452758,101.723025 29.4805651,101.218547 28.9083755,101.218547 L28.508616,101.218547 C28.5751137,100.86205 28.6091358,100.497985 28.6091358,100.131398 C28.6091358,97.1314389 26.3652247,94.6906086 23.6055698,94.6906086 C20.846688,94.6906086 18.602777,97.1314389 18.602777,100.131398 C18.602777,100.497985 18.6383455,100.86205 18.70407,101.218547 L15.5987816,101.218547 L14.5116214,93.0981413 C14.5046623,93.0518975 14.4946103,93.0073353 14.4837851,92.9627732 C15.2345907,93.0350816 15.9567867,93.3100218 16.5947008,93.7682556 C17.0346682,94.0852356 17.6238688,93.9910665 17.9633164,93.5513302 C18.6831928,92.6155245 19.6914836,92.0017435 20.8033872,91.8251764 C21.0222111,91.7907038 21.2449011,91.7738878 21.4644982,91.7738878 C22.0622043,91.7738878 22.6452191,91.8991664 23.1988512,92.1488828 C23.3310734,92.2085793 23.4725743,92.2380071 23.6094359,92.234644 C24.1769861,92.2279176 24.6347378,91.7251217 24.6347378,91.1079775 C24.6347378,90.9154353 24.5906637,90.7363458 24.5133408,90.5782762 C22.6088773,86.0278891 18.4202949,83.0926708 13.8211277,83.0926708 C13.4252344,83.0926708 13.0254749,83.1153723 12.6264886,83.1590937 L12.573909,82.7622381 C12.5329279,82.453666 12.2684835,82.2401039 11.9870281,82.2863476 C11.703253,82.330069 11.5060795,82.6159396 11.5470607,82.9245117 L11.6011867,83.3205265 C6.66411842,84.3488198 2.81266387,88.7445004 2.14691354,94.1945391 C2.09124104,94.651932 2.29769323,95.1017578 2.66807001,95.3262503 C2.82658199,95.422101 3.00055856,95.4691855 3.17608158,95.4691855 C3.40727711,95.4691855 3.63924586,95.3842652 3.82791378,95.2169468 C4.46350817,94.6578176 5.22823183,94.293753 6.04166893,94.1634296 C6.26126601,94.1297978 6.48395602,94.1121411 6.7035531,94.1121411 C7.59663281,94.1121411 8.46496918,94.3971709 9.21345502,94.9369618 C9.65419566,95.2539418 10.2433963,95.1606135 10.5820707,94.7208773 C11.0854429,94.0667381 11.7279963,93.5706685 12.4478727,93.272186 C12.4486459,93.321793 12.4509656,93.3722407 12.4579247,93.4226885 L13.5033305,101.218547 L3.03690033,101.218547 C2.46471074,101.218547 2,101.723025 2,102.346055 C2,102.969084 2.46471074,103.473562 3.03690033,103.473562 L13.8048899,103.473562 L14.0430445,105.250164 L13.6572031,105.235029 C13.5497243,105.230825 13.4414722,105.244278 13.3378595,105.276228 L10.0864308,106.270049 L6.23806914,106.550875 L3.46758898,105.664676 C2.91859627,105.488109 2.3417673,105.831153 2.17938917,106.427278 C2.01778427,107.025084 2.33326178,107.652317 2.88225449,107.828044 L5.8290309,108.771416 C5.9481082,108.808411 6.06950518,108.823546 6.19244862,108.814297 L10.3315444,108.513292 C10.4026815,108.507407 10.4745918,108.493113 10.5441824,108.472934 L13.7422583,107.495088 L14.3469236,107.519471 L14.4907442,108.590645 C14.5657474,109.151456 15.0088077,109.555879 15.5160461,109.555879 C15.5655327,109.555879 15.6157926,109.551675 15.667599,109.543267 C16.2320563,109.454143 16.6256299,108.881561 16.5428944,108.265257 L16.4547463,107.604392 L19.9798981,107.746486 L25.2772912,109.18677 C25.3592535,109.209471 25.4443087,109.220401 25.529364,109.220401 C25.6298838,109.220401 25.7296303,109.204426 25.8270572,109.173317 L29.0692071,108.117277 C29.6166534,107.938188 29.9282648,107.310113 29.7643402,106.713148 C29.6004156,106.116183 29.0220402,105.778183 28.4722742,105.956432 L28.4722742,105.956432 Z M20.6773509,100.131398 C20.6773509,98.3741352 21.9910672,96.945623 23.6055698,96.945623 C25.2200723,96.945623 26.5353351,98.3741352 26.5353351,100.131398 C26.5353351,100.504712 26.4750232,100.871299 26.3598121,101.218547 L20.8536471,101.218547 C20.7368895,100.871299 20.6773509,100.504712 20.6773509,100.131398 L20.6773509,100.131398 Z M21.5325423,89.5180326 C21.190775,89.5155102 20.8435951,89.5407341 20.5026011,89.5937042 C19.324973,89.7812017 18.2269876,90.3050175 17.3130307,91.1029328 C16.7207371,88.8630527 15.8910622,86.7837646 14.9059682,85.4141081 C17.5473191,85.7394961 19.9427831,87.2386351 21.5325423,89.5180326 L21.5325423,89.5180326 Z M6.7035531,91.8562858 C6.38420945,91.8562858 6.06022643,91.8831913 5.74088277,91.9336391 C5.40143516,91.9866092 5.06508047,92.069848 4.7372313,92.1799922 C5.66974569,89.4970127 7.58658083,87.3277595 10.0052417,86.1994114 C9.42377336,87.8162618 9.17402034,90.0637091 9.19567075,92.3885096 C8.40620376,92.0395793 7.56338395,91.8562858 6.7035531,91.8562858 L6.7035531,91.8562858 Z M10.2279317,92.028649 C10.2325711,88.9958984 10.7289842,86.7787198 11.4125188,85.6772772 C11.7388215,85.5856305 12.0720833,85.5124812 12.4115309,85.4586703 C12.7478856,85.4048594 13.0873332,85.3712275 13.4267808,85.356934 C14.368574,86.201093 15.4278979,88.1727593 16.2274169,91.0785497 C15.5423359,90.8212662 14.8193666,90.6875796 14.0847989,90.6875796 C13.764682,90.6875796 13.4414722,90.7136443 13.1221285,90.7632512 C12.0697636,90.9305696 11.0800303,91.3669427 10.2279317,92.028649 L10.2279317,92.028649 Z" id="Beaches-5" fill="#FFFFFF" sketch:type="MSShapeGroup"></path>
        <path d="M28.4722742,145.956432 L25.5038474,146.923347 L20.3773379,145.529308 C20.3077473,145.509969 20.235837,145.499039 20.1639267,145.496517 L16.150094,145.335084 L15.900341,143.473562 L28.9083755,143.473562 C29.4805651,143.473562 29.9452758,142.969084 29.9452758,142.346055 C29.9452758,141.723025 29.4805651,141.218547 28.9083755,141.218547 L28.508616,141.218547 C28.5751137,140.86205 28.6091358,140.497985 28.6091358,140.131398 C28.6091358,137.131439 26.3652247,134.690609 23.6055698,134.690609 C20.846688,134.690609 18.602777,137.131439 18.602777,140.131398 C18.602777,140.497985 18.6383455,140.86205 18.70407,141.218547 L15.5987816,141.218547 L14.5116214,133.098141 C14.5046623,133.051898 14.4946103,133.007335 14.4837851,132.962773 C15.2345907,133.035082 15.9567867,133.310022 16.5947008,133.768256 C17.0346682,134.085236 17.6238688,133.991066 17.9633164,133.55133 C18.6831928,132.615524 19.6914836,132.001744 20.8033872,131.825176 C21.0222111,131.790704 21.2449011,131.773888 21.4644982,131.773888 C22.0622043,131.773888 22.6452191,131.899166 23.1988512,132.148883 C23.3310734,132.208579 23.4725743,132.238007 23.6094359,132.234644 C24.1769861,132.227918 24.6347378,131.725122 24.6347378,131.107978 C24.6347378,130.915435 24.5906637,130.736346 24.5133408,130.578276 C22.6088773,126.027889 18.4202949,123.092671 13.8211277,123.092671 C13.4252344,123.092671 13.0254749,123.115372 12.6264886,123.159094 L12.573909,122.762238 C12.5329279,122.453666 12.2684835,122.240104 11.9870281,122.286348 C11.703253,122.330069 11.5060795,122.61594 11.5470607,122.924512 L11.6011867,123.320527 C6.66411842,124.34882 2.81266387,128.7445 2.14691354,134.194539 C2.09124104,134.651932 2.29769323,135.101758 2.66807001,135.32625 C2.82658199,135.422101 3.00055856,135.469186 3.17608158,135.469186 C3.40727711,135.469186 3.63924586,135.384265 3.82791378,135.216947 C4.46350817,134.657818 5.22823183,134.293753 6.04166893,134.16343 C6.26126601,134.129798 6.48395602,134.112141 6.7035531,134.112141 C7.59663281,134.112141 8.46496918,134.397171 9.21345502,134.936962 C9.65419566,135.253942 10.2433963,135.160613 10.5820707,134.720877 C11.0854429,134.066738 11.7279963,133.570669 12.4478727,133.272186 C12.4486459,133.321793 12.4509656,133.372241 12.4579247,133.422688 L13.5033305,141.218547 L3.03690033,141.218547 C2.46471074,141.218547 2,141.723025 2,142.346055 C2,142.969084 2.46471074,143.473562 3.03690033,143.473562 L13.8048899,143.473562 L14.0430445,145.250164 L13.6572031,145.235029 C13.5497243,145.230825 13.4414722,145.244278 13.3378595,145.276228 L10.0864308,146.270049 L6.23806914,146.550875 L3.46758898,145.664676 C2.91859627,145.488109 2.3417673,145.831153 2.17938917,146.427278 C2.01778427,147.025084 2.33326178,147.652317 2.88225449,147.828044 L5.8290309,148.771416 C5.9481082,148.808411 6.06950518,148.823546 6.19244862,148.814297 L10.3315444,148.513292 C10.4026815,148.507407 10.4745918,148.493113 10.5441824,148.472934 L13.7422583,147.495088 L14.3469236,147.519471 L14.4907442,148.590645 C14.5657474,149.151456 15.0088077,149.555879 15.5160461,149.555879 C15.5655327,149.555879 15.6157926,149.551675 15.667599,149.543267 C16.2320563,149.454143 16.6256299,148.881561 16.5428944,148.265257 L16.4547463,147.604392 L19.9798981,147.746486 L25.2772912,149.18677 C25.3592535,149.209471 25.4443087,149.220401 25.529364,149.220401 C25.6298838,149.220401 25.7296303,149.204426 25.8270572,149.173317 L29.0692071,148.117277 C29.6166534,147.938188 29.9282648,147.310113 29.7643402,146.713148 C29.6004156,146.116183 29.0220402,145.778183 28.4722742,145.956432 L28.4722742,145.956432 Z M20.6773509,140.131398 C20.6773509,138.374135 21.9910672,136.945623 23.6055698,136.945623 C25.2200723,136.945623 26.5353351,138.374135 26.5353351,140.131398 C26.5353351,140.504712 26.4750232,140.871299 26.3598121,141.218547 L20.8536471,141.218547 C20.7368895,140.871299 20.6773509,140.504712 20.6773509,140.131398 L20.6773509,140.131398 Z M21.5325423,129.518033 C21.190775,129.51551 20.8435951,129.540734 20.5026011,129.593704 C19.324973,129.781202 18.2269876,130.305018 17.3130307,131.102933 C16.7207371,128.863053 15.8910622,126.783765 14.9059682,125.414108 C17.5473191,125.739496 19.9427831,127.238635 21.5325423,129.518033 L21.5325423,129.518033 Z M6.7035531,131.856286 C6.38420945,131.856286 6.06022643,131.883191 5.74088277,131.933639 C5.40143516,131.986609 5.06508047,132.069848 4.7372313,132.179992 C5.66974569,129.497013 7.58658083,127.327759 10.0052417,126.199411 C9.42377336,127.816262 9.17402034,130.063709 9.19567075,132.38851 C8.40620376,132.039579 7.56338395,131.856286 6.7035531,131.856286 L6.7035531,131.856286 Z M10.2279317,132.028649 C10.2325711,128.995898 10.7289842,126.77872 11.4125188,125.677277 C11.7388215,125.58563 12.0720833,125.512481 12.4115309,125.45867 C12.7478856,125.404859 13.0873332,125.371228 13.4267808,125.356934 C14.368574,126.201093 15.4278979,128.172759 16.2274169,131.07855 C15.5423359,130.821266 14.8193666,130.68758 14.0847989,130.68758 C13.764682,130.68758 13.4414722,130.713644 13.1221285,130.763251 C12.0697636,130.93057 11.0800303,131.366943 10.2279317,132.028649 L10.2279317,132.028649 Z" id="Beaches-6" fill="#206FAC" sketch:type="MSShapeGroup"></path>
    </g>
</svg>