<?xml version="1.0" encoding="UTF-8" standalone="no"?>
<svg width="32px" height="232px" viewBox="0 0 32 232" version="1.1" xmlns="http://www.w3.org/2000/svg" xmlns:xlink="http://www.w3.org/1999/xlink" xmlns:sketch="http://www.bohemiancoding.com/sketch/ns">
    <!-- Generator: Sketch 3.0 (7574) - http://www.bohemiancoding.com/sketch -->
    <title>Beaches</title>
    <description>Created with Sketch.</description>
    <defs></defs>
    <g id="Gold-destinations" stroke="none" stroke-width="1" fill="none" fill-rule="evenodd" sketch:type="MSPage">
        <g id="Slices" sketch:type="MSLayerGroup" transform="translate(-40.000000, 0.000000)"></g>
        <g id="Interests-Icons" sketch:type="MSLayerGroup" transform="translate(-34.000000, -1.000000)">
            <path d="M61.1324324,144.626309 L58.5385135,145.427824 L54.0587838,144.272248 C53.997973,144.256218 53.9351351,144.247157 53.8722973,144.245066 L50.3648649,144.111248 L50.1466216,142.568157 L61.5135135,142.568157 C62.0135135,142.568157 62.4195946,142.149976 62.4195946,141.633521 C62.4195946,141.117066 62.0135135,140.698885 61.5135135,140.698885 L61.1641892,140.698885 C61.2222973,140.403369 61.252027,140.101582 61.252027,139.797703 C61.252027,137.310915 59.2912162,135.287612 56.8797297,135.287612 C54.4689189,135.287612 52.5081081,137.310915 52.5081081,139.797703 C52.5081081,140.101582 52.5391892,140.403369 52.5966216,140.698885 L49.8831081,140.698885 L48.9331081,133.967551 C48.927027,133.929218 48.9182432,133.892279 48.9087838,133.855339 C49.5648649,133.915279 50.1959459,134.143188 50.7533784,134.523036 C51.1378378,134.785794 51.6527027,134.707733 51.9493243,134.343218 C52.5783784,133.567491 53.4594595,133.058703 54.4310811,132.912339 C54.6222973,132.883763 54.8168919,132.869824 55.0087838,132.869824 C55.5310811,132.869824 56.0405405,132.973672 56.5243243,133.180672 C56.6398649,133.230157 56.7635135,133.254551 56.8831081,133.251763 C57.3790541,133.246188 57.7790541,132.8294 57.7790541,132.317824 C57.7790541,132.158218 57.7405405,132.009763 57.672973,131.878733 C56.0087838,128.106733 52.3486486,125.673612 48.3297297,125.673612 C47.9837838,125.673612 47.6344595,125.69243 47.2858108,125.728672 L47.2398649,125.399703 C47.2040541,125.143915 46.972973,124.966885 46.727027,125.005218 C46.4790541,125.04146 46.3067568,125.27843 46.3425676,125.534218 L46.3898649,125.862491 C42.0756757,126.714885 38.7101351,130.358642 38.1283784,134.8764 C38.0797297,135.255551 38.2601351,135.62843 38.5837838,135.814521 C38.7222973,135.893976 38.8743243,135.933006 39.0277027,135.933006 C39.2297297,135.933006 39.4324324,135.862612 39.5972973,135.723915 C40.1527027,135.26043 40.8209459,134.958642 41.5317568,134.850612 C41.7236486,134.822733 41.9182432,134.808097 42.1101351,134.808097 C42.8905405,134.808097 43.6493243,135.044369 44.3033784,135.491824 C44.6885135,135.754582 45.2033784,135.677218 45.4993243,135.312703 C45.9391892,134.77046 46.5006757,134.359248 47.1297297,134.111824 C47.1304054,134.152945 47.1324324,134.194763 47.1385135,134.236582 L48.052027,140.698885 L38.9060811,140.698885 C38.4060811,140.698885 38,141.117066 38,141.633521 C38,142.149976 38.4060811,142.568157 38.9060811,142.568157 L48.3155405,142.568157 L48.5236486,144.040854 L48.1864865,144.028309 C48.0925676,144.024824 47.997973,144.035976 47.9074324,144.06246 L45.0662162,144.886279 L41.7033784,145.119066 L39.2824324,144.38446 C38.8027027,144.238097 38.2986486,144.52246 38.1567568,145.016612 C38.0155405,145.512157 38.2912162,146.032097 38.7709459,146.177763 L41.3459459,146.959763 C41.45,146.99043 41.5560811,147.002976 41.6635135,146.995309 L45.2804054,146.745794 C45.3425676,146.740915 45.4054054,146.729066 45.4662162,146.712339 L48.2608108,145.901763 L48.7891892,145.921976 L48.9148649,146.809915 C48.9804054,147.274794 49.3675676,147.610036 49.8108108,147.610036 C49.8540541,147.610036 49.897973,147.606551 49.9432432,147.599582 C50.4364865,147.525703 50.7804054,147.051066 50.7081081,146.540188 L50.6310811,145.992369 L53.7114865,146.110157 L58.3405405,147.304066 C58.4121622,147.322885 58.4864865,147.331945 58.5608108,147.331945 C58.6486486,147.331945 58.7358108,147.318703 58.8209459,147.292915 L61.6540541,146.417521 C62.1324324,146.269066 62.4047297,145.74843 62.2614865,145.253582 C62.1182432,144.758733 61.6128378,144.478551 61.1324324,144.626309 L61.1324324,144.626309 Z M54.3209459,139.797703 C54.3209459,138.341036 55.4689189,137.156885 56.8797297,137.156885 C58.2905405,137.156885 59.4398649,138.341036 59.4398649,139.797703 C59.4398649,140.107157 59.3871622,140.411036 59.2864865,140.698885 L54.475,140.698885 C54.372973,140.411036 54.3209459,140.107157 54.3209459,139.797703 L54.3209459,139.797703 Z M55.0682432,130.999854 C54.7695946,130.997763 54.4662162,131.018672 54.1682432,131.062582 C53.1391892,131.218006 52.1797297,131.652218 51.3810811,132.313642 C50.8635135,130.456915 50.1385135,128.733309 49.2777027,127.597945 C51.5858108,127.867672 53.6790541,129.110369 55.0682432,130.999854 L55.0682432,130.999854 Z M42.1101351,132.938127 C41.8310811,132.938127 41.547973,132.96043 41.2689189,133.002248 C40.9722973,133.046157 40.6783784,133.115157 40.3918919,133.20646 C41.2067568,130.98243 42.8817568,129.184248 44.9952703,128.248915 C44.4871622,129.589188 44.2689189,131.452188 44.2878378,133.379309 C43.597973,133.090066 42.8614865,132.938127 42.1101351,132.938127 L42.1101351,132.938127 Z M45.1898649,133.081006 C45.1939189,130.567036 45.6277027,128.729127 46.225,127.816097 C46.5101351,127.740127 46.8013514,127.679491 47.097973,127.634885 C47.3918919,127.590279 47.6885135,127.5624 47.9851351,127.550551 C48.8081081,128.250309 49.7337838,129.884703 50.4324324,132.29343 C49.8337838,132.080157 49.202027,131.969339 48.5601351,131.969339 C48.2804054,131.969339 47.997973,131.990945 47.7189189,132.032066 C46.7993243,132.170763 45.9344595,132.532491 45.1898649,133.081006 L45.1898649,133.081006 Z" id="Beaches" fill="#206FAC" sketch:type="MSShapeGroup"></path>
            <path d="M61.1324324,65.6263088 L58.5385135,66.427824 L54.0587838,65.2722482 C53.997973,65.2562179 53.9351351,65.2471573 53.8722973,65.2450664 L50.3648649,65.1112482 L50.1466216,63.5681573 L61.5135135,63.5681573 C62.0135135,63.5681573 62.4195946,63.1499755 62.4195946,62.633521 C62.4195946,62.1170664 62.0135135,61.6988846 61.5135135,61.6988846 L61.1641892,61.6988846 C61.2222973,61.4033694 61.252027,61.1015816 61.252027,60.7977028 C61.252027,58.3109149 59.2912162,56.2876119 56.8797297,56.2876119 C54.4689189,56.2876119 52.5081081,58.3109149 52.5081081,60.7977028 C52.5081081,61.1015816 52.5391892,61.4033694 52.5966216,61.6988846 L49.8831081,61.6988846 L48.9331081,54.9675513 C48.927027,54.9292179 48.9182432,54.8922785 48.9087838,54.8553391 C49.5648649,54.9152785 50.1959459,55.1431876 50.7533784,55.5230361 C51.1378378,55.7857937 51.6527027,55.7077331 51.9493243,55.3432179 C52.5783784,54.5674907 53.4594595,54.0587028 54.4310811,53.9123391 C54.6222973,53.8837634 54.8168919,53.869824 55.0087838,53.869824 C55.5310811,53.869824 56.0405405,53.9736725 56.5243243,54.1806725 C56.6398649,54.2301573 56.7635135,54.2545513 56.8831081,54.2517634 C57.3790541,54.2461876 57.7790541,53.8293997 57.7790541,53.317824 C57.7790541,53.1582179 57.7405405,53.0097634 57.672973,52.8787331 C56.0087838,49.1067331 52.3486486,46.6736119 48.3297297,46.6736119 C47.9837838,46.6736119 47.6344595,46.6924301 47.2858108,46.7286725 L47.2398649,46.3997028 C47.2040541,46.1439149 46.972973,45.9668846 46.727027,46.0052179 C46.4790541,46.0414604 46.3067568,46.2784301 46.3425676,46.5342179 L46.3898649,46.8624907 C42.0756757,47.7148846 38.7101351,51.3586422 38.1283784,55.8763997 C38.0797297,56.2555513 38.2601351,56.6284301 38.5837838,56.814521 C38.7222973,56.8939755 38.8743243,56.9330058 39.0277027,56.9330058 C39.2297297,56.9330058 39.4324324,56.8626119 39.5972973,56.7239149 C40.1527027,56.2604301 40.8209459,55.9586422 41.5317568,55.8506119 C41.7236486,55.8227331 41.9182432,55.8080967 42.1101351,55.8080967 C42.8905405,55.8080967 43.6493243,56.0443694 44.3033784,56.491824 C44.6885135,56.7545816 45.2033784,56.6772179 45.4993243,56.3127028 C45.9391892,55.7704604 46.5006757,55.3592482 47.1297297,55.111824 C47.1304054,55.1529452 47.1324324,55.1947634 47.1385135,55.2365816 L48.052027,61.6988846 L38.9060811,61.6988846 C38.4060811,61.6988846 38,62.1170664 38,62.633521 C38,63.1499755 38.4060811,63.5681573 38.9060811,63.5681573 L48.3155405,63.5681573 L48.5236486,65.0408543 L48.1864865,65.0283088 C48.0925676,65.024824 47.997973,65.0359755 47.9074324,65.0624604 L45.0662162,65.8862785 L41.7033784,66.1190664 L39.2824324,65.3844604 C38.8027027,65.2380967 38.2986486,65.5224604 38.1567568,66.0166119 C38.0155405,66.5121573 38.2912162,67.0320967 38.7709459,67.1777634 L41.3459459,67.9597634 C41.45,67.9904301 41.5560811,68.0029755 41.6635135,67.9953088 L45.2804054,67.7457937 C45.3425676,67.7409149 45.4054054,67.7290664 45.4662162,67.7123391 L48.2608108,66.9017634 L48.7891892,66.9219755 L48.9148649,67.8099149 C48.9804054,68.2747937 49.3675676,68.6100361 49.8108108,68.6100361 C49.8540541,68.6100361 49.897973,68.6065513 49.9432432,68.5995816 C50.4364865,68.5257028 50.7804054,68.0510664 50.7081081,67.5401876 L50.6310811,66.9923694 L53.7114865,67.1101573 L58.3405405,68.3040664 C58.4121622,68.3228846 58.4864865,68.3319452 58.5608108,68.3319452 C58.6486486,68.3319452 58.7358108,68.3187028 58.8209459,68.2929149 L61.6540541,67.417521 C62.1324324,67.2690664 62.4047297,66.7484301 62.2614865,66.2535816 C62.1182432,65.7587331 61.6128378,65.4785513 61.1324324,65.6263088 L61.1324324,65.6263088 Z M54.3209459,60.7977028 C54.3209459,59.3410361 55.4689189,58.1568846 56.8797297,58.1568846 C58.2905405,58.1568846 59.4398649,59.3410361 59.4398649,60.7977028 C59.4398649,61.1071573 59.3871622,61.4110361 59.2864865,61.6988846 L54.475,61.6988846 C54.372973,61.4110361 54.3209459,61.1071573 54.3209459,60.7977028 L54.3209459,60.7977028 Z M55.0682432,51.9998543 C54.7695946,51.9977634 54.4662162,52.0186725 54.1682432,52.0625816 C53.1391892,52.2180058 52.1797297,52.6522179 51.3810811,53.3136422 C50.8635135,51.4569149 50.1385135,49.7333088 49.2777027,48.5979452 C51.5858108,48.8676725 53.6790541,50.1103694 55.0682432,51.9998543 L55.0682432,51.9998543 Z M42.1101351,53.938127 C41.8310811,53.938127 41.547973,53.9604301 41.2689189,54.0022482 C40.9722973,54.0461573 40.6783784,54.1151573 40.3918919,54.2064604 C41.2067568,51.9824301 42.8817568,50.1842482 44.9952703,49.2489149 C44.4871622,50.5891876 44.2689189,52.4521876 44.2878378,54.3793088 C43.597973,54.0900664 42.8614865,53.938127 42.1101351,53.938127 L42.1101351,53.938127 Z M45.1898649,54.0810058 C45.1939189,51.5670361 45.6277027,49.729127 46.225,48.8160967 C46.5101351,48.740127 46.8013514,48.6794907 47.097973,48.6348846 C47.3918919,48.5902785 47.6885135,48.5623997 47.9851351,48.5505513 C48.8081081,49.2503088 49.7337838,50.8847028 50.4324324,53.2934301 C49.8337838,53.0801573 49.202027,52.9693391 48.5601351,52.9693391 C48.2804054,52.9693391 47.997973,52.9909452 47.7189189,53.0320664 C46.7993243,53.1707634 45.9344595,53.5324907 45.1898649,54.0810058 L45.1898649,54.0810058 Z" id="Beaches-2" fill="#67737B" sketch:type="MSShapeGroup"></path>
            <path d="M61.1324324,25.6263088 L58.5385135,26.427824 L54.0587838,25.2722482 C53.997973,25.2562179 53.9351351,25.2471573 53.8722973,25.2450664 L50.3648649,25.1112482 L50.1466216,23.5681573 L61.5135135,23.5681573 C62.0135135,23.5681573 62.4195946,23.1499755 62.4195946,22.633521 C62.4195946,22.1170664 62.0135135,21.6988846 61.5135135,21.6988846 L61.1641892,21.6988846 C61.2222973,21.4033694 61.252027,21.1015816 61.252027,20.7977028 C61.252027,18.3109149 59.2912162,16.2876119 56.8797297,16.2876119 C54.4689189,16.2876119 52.5081081,18.3109149 52.5081081,20.7977028 C52.5081081,21.1015816 52.5391892,21.4033694 52.5966216,21.6988846 L49.8831081,21.6988846 L48.9331081,14.9675513 C48.927027,14.9292179 48.9182432,14.8922785 48.9087838,14.8553391 C49.5648649,14.9152785 50.1959459,15.1431876 50.7533784,15.5230361 C51.1378378,15.7857937 51.6527027,15.7077331 51.9493243,15.3432179 C52.5783784,14.5674907 53.4594595,14.0587028 54.4310811,13.9123391 C54.6222973,13.8837634 54.8168919,13.869824 55.0087838,13.869824 C55.5310811,13.869824 56.0405405,13.9736725 56.5243243,14.1806725 C56.6398649,14.2301573 56.7635135,14.2545513 56.8831081,14.2517634 C57.3790541,14.2461876 57.7790541,13.8293997 57.7790541,13.317824 C57.7790541,13.1582179 57.7405405,13.0097634 57.672973,12.8787331 C56.0087838,9.10673308 52.3486486,6.67361187 48.3297297,6.67361187 C47.9837838,6.67361187 47.6344595,6.69243005 47.2858108,6.72867248 L47.2398649,6.39970278 C47.2040541,6.1439149 46.972973,5.9668846 46.727027,6.00521793 C46.4790541,6.04146035 46.3067568,6.27843005 46.3425676,6.53421793 L46.3898649,6.86249066 C42.0756757,7.7148846 38.7101351,11.3586422 38.1283784,15.8763997 C38.0797297,16.2555513 38.2601351,16.6284301 38.5837838,16.814521 C38.7222973,16.8939755 38.8743243,16.9330058 39.0277027,16.9330058 C39.2297297,16.9330058 39.4324324,16.8626119 39.5972973,16.7239149 C40.1527027,16.2604301 40.8209459,15.9586422 41.5317568,15.8506119 C41.7236486,15.8227331 41.9182432,15.8080967 42.1101351,15.8080967 C42.8905405,15.8080967 43.6493243,16.0443694 44.3033784,16.491824 C44.6885135,16.7545816 45.2033784,16.6772179 45.4993243,16.3127028 C45.9391892,15.7704604 46.5006757,15.3592482 47.1297297,15.111824 C47.1304054,15.1529452 47.1324324,15.1947634 47.1385135,15.2365816 L48.052027,21.6988846 L38.9060811,21.6988846 C38.4060811,21.6988846 38,22.1170664 38,22.633521 C38,23.1499755 38.4060811,23.5681573 38.9060811,23.5681573 L48.3155405,23.5681573 L48.5236486,25.0408543 L48.1864865,25.0283088 C48.0925676,25.024824 47.997973,25.0359755 47.9074324,25.0624604 L45.0662162,25.8862785 L41.7033784,26.1190664 L39.2824324,25.3844604 C38.8027027,25.2380967 38.2986486,25.5224604 38.1567568,26.0166119 C38.0155405,26.5121573 38.2912162,27.0320967 38.7709459,27.1777634 L41.3459459,27.9597634 C41.45,27.9904301 41.5560811,28.0029755 41.6635135,27.9953088 L45.2804054,27.7457937 C45.3425676,27.7409149 45.4054054,27.7290664 45.4662162,27.7123391 L48.2608108,26.9017634 L48.7891892,26.9219755 L48.9148649,27.8099149 C48.9804054,28.2747937 49.3675676,28.6100361 49.8108108,28.6100361 C49.8540541,28.6100361 49.897973,28.6065513 49.9432432,28.5995816 C50.4364865,28.5257028 50.7804054,28.0510664 50.7081081,27.5401876 L50.6310811,26.9923694 L53.7114865,27.1101573 L58.3405405,28.3040664 C58.4121622,28.3228846 58.4864865,28.3319452 58.5608108,28.3319452 C58.6486486,28.3319452 58.7358108,28.3187028 58.8209459,28.2929149 L61.6540541,27.417521 C62.1324324,27.2690664 62.4047297,26.7484301 62.2614865,26.2535816 C62.1182432,25.7587331 61.6128378,25.4785513 61.1324324,25.6263088 L61.1324324,25.6263088 Z M54.3209459,20.7977028 C54.3209459,19.3410361 55.4689189,18.1568846 56.8797297,18.1568846 C58.2905405,18.1568846 59.4398649,19.3410361 59.4398649,20.7977028 C59.4398649,21.1071573 59.3871622,21.4110361 59.2864865,21.6988846 L54.475,21.6988846 C54.372973,21.4110361 54.3209459,21.1071573 54.3209459,20.7977028 L54.3209459,20.7977028 Z M55.0682432,11.9998543 C54.7695946,11.9977634 54.4662162,12.0186725 54.1682432,12.0625816 C53.1391892,12.2180058 52.1797297,12.6522179 51.3810811,13.3136422 C50.8635135,11.4569149 50.1385135,9.73330884 49.2777027,8.5979452 C51.5858108,8.86767248 53.6790541,10.1103694 55.0682432,11.9998543 L55.0682432,11.9998543 Z M42.1101351,13.938127 C41.8310811,13.938127 41.547973,13.9604301 41.2689189,14.0022482 C40.9722973,14.0461573 40.6783784,14.1151573 40.3918919,14.2064604 C41.2067568,11.9824301 42.8817568,10.1842482 44.9952703,9.2489149 C44.4871622,10.5891876 44.2689189,12.4521876 44.2878378,14.3793088 C43.597973,14.0900664 42.8614865,13.938127 42.1101351,13.938127 L42.1101351,13.938127 Z M45.1898649,14.0810058 C45.1939189,11.5670361 45.6277027,9.72912702 46.225,8.81609672 C46.5101351,8.74012702 46.8013514,8.67949066 47.097973,8.6348846 C47.3918919,8.59027854 47.6885135,8.56239975 47.9851351,8.55055126 C48.8081081,9.25030884 49.7337838,10.8847028 50.4324324,13.2934301 C49.8337838,13.0801573 49.202027,12.9693391 48.5601351,12.9693391 C48.2804054,12.9693391 47.997973,12.9909452 47.7189189,13.0320664 C46.7993243,13.1707634 45.9344595,13.5324907 45.1898649,14.0810058 L45.1898649,14.0810058 Z" id="Beaches-3" fill="#373D43" sketch:type="MSShapeGroup"></path>
            <path d="M61.1324324,104.626309 L58.5385135,105.427824 L54.0587838,104.272248 C53.997973,104.256218 53.9351351,104.247157 53.8722973,104.245066 L50.3648649,104.111248 L50.1466216,102.568157 L61.5135135,102.568157 C62.0135135,102.568157 62.4195946,102.149976 62.4195946,101.633521 C62.4195946,101.117066 62.0135135,100.698885 61.5135135,100.698885 L61.1641892,100.698885 C61.2222973,100.403369 61.252027,100.101582 61.252027,99.7977028 C61.252027,97.3109149 59.2912162,95.2876119 56.8797297,95.2876119 C54.4689189,95.2876119 52.5081081,97.3109149 52.5081081,99.7977028 C52.5081081,100.101582 52.5391892,100.403369 52.5966216,100.698885 L49.8831081,100.698885 L48.9331081,93.9675513 C48.927027,93.9292179 48.9182432,93.8922785 48.9087838,93.8553391 C49.5648649,93.9152785 50.1959459,94.1431876 50.7533784,94.5230361 C51.1378378,94.7857937 51.6527027,94.7077331 51.9493243,94.3432179 C52.5783784,93.5674907 53.4594595,93.0587028 54.4310811,92.9123391 C54.6222973,92.8837634 54.8168919,92.869824 55.0087838,92.869824 C55.5310811,92.869824 56.0405405,92.9736725 56.5243243,93.1806725 C56.6398649,93.2301573 56.7635135,93.2545513 56.8831081,93.2517634 C57.3790541,93.2461876 57.7790541,92.8293997 57.7790541,92.317824 C57.7790541,92.1582179 57.7405405,92.0097634 57.672973,91.8787331 C56.0087838,88.1067331 52.3486486,85.6736119 48.3297297,85.6736119 C47.9837838,85.6736119 47.6344595,85.6924301 47.2858108,85.7286725 L47.2398649,85.3997028 C47.2040541,85.1439149 46.972973,84.9668846 46.727027,85.0052179 C46.4790541,85.0414604 46.3067568,85.2784301 46.3425676,85.5342179 L46.3898649,85.8624907 C42.0756757,86.7148846 38.7101351,90.3586422 38.1283784,94.8763997 C38.0797297,95.2555513 38.2601351,95.6284301 38.5837838,95.814521 C38.7222973,95.8939755 38.8743243,95.9330058 39.0277027,95.9330058 C39.2297297,95.9330058 39.4324324,95.8626119 39.5972973,95.7239149 C40.1527027,95.2604301 40.8209459,94.9586422 41.5317568,94.8506119 C41.7236486,94.8227331 41.9182432,94.8080967 42.1101351,94.8080967 C42.8905405,94.8080967 43.6493243,95.0443694 44.3033784,95.491824 C44.6885135,95.7545816 45.2033784,95.6772179 45.4993243,95.3127028 C45.9391892,94.7704604 46.5006757,94.3592482 47.1297297,94.111824 C47.1304054,94.1529452 47.1324324,94.1947634 47.1385135,94.2365816 L48.052027,100.698885 L38.9060811,100.698885 C38.4060811,100.698885 38,101.117066 38,101.633521 C38,102.149976 38.4060811,102.568157 38.9060811,102.568157 L48.3155405,102.568157 L48.5236486,104.040854 L48.1864865,104.028309 C48.0925676,104.024824 47.997973,104.035976 47.9074324,104.06246 L45.0662162,104.886279 L41.7033784,105.119066 L39.2824324,104.38446 C38.8027027,104.238097 38.2986486,104.52246 38.1567568,105.016612 C38.0155405,105.512157 38.2912162,106.032097 38.7709459,106.177763 L41.3459459,106.959763 C41.45,106.99043 41.5560811,107.002976 41.6635135,106.995309 L45.2804054,106.745794 C45.3425676,106.740915 45.4054054,106.729066 45.4662162,106.712339 L48.2608108,105.901763 L48.7891892,105.921976 L48.9148649,106.809915 C48.9804054,107.274794 49.3675676,107.610036 49.8108108,107.610036 C49.8540541,107.610036 49.897973,107.606551 49.9432432,107.599582 C50.4364865,107.525703 50.7804054,107.051066 50.7081081,106.540188 L50.6310811,105.992369 L53.7114865,106.110157 L58.3405405,107.304066 C58.4121622,107.322885 58.4864865,107.331945 58.5608108,107.331945 C58.6486486,107.331945 58.7358108,107.318703 58.8209459,107.292915 L61.6540541,106.417521 C62.1324324,106.269066 62.4047297,105.74843 62.2614865,105.253582 C62.1182432,104.758733 61.6128378,104.478551 61.1324324,104.626309 L61.1324324,104.626309 Z M54.3209459,99.7977028 C54.3209459,98.3410361 55.4689189,97.1568846 56.8797297,97.1568846 C58.2905405,97.1568846 59.4398649,98.3410361 59.4398649,99.7977028 C59.4398649,100.107157 59.3871622,100.411036 59.2864865,100.698885 L54.475,100.698885 C54.372973,100.411036 54.3209459,100.107157 54.3209459,99.7977028 L54.3209459,99.7977028 Z M55.0682432,90.9998543 C54.7695946,90.9977634 54.4662162,91.0186725 54.1682432,91.0625816 C53.1391892,91.2180058 52.1797297,91.6522179 51.3810811,92.3136422 C50.8635135,90.4569149 50.1385135,88.7333088 49.2777027,87.5979452 C51.5858108,87.8676725 53.6790541,89.1103694 55.0682432,90.9998543 L55.0682432,90.9998543 Z M42.1101351,92.938127 C41.8310811,92.938127 41.547973,92.9604301 41.2689189,93.0022482 C40.9722973,93.0461573 40.6783784,93.1151573 40.3918919,93.2064604 C41.2067568,90.9824301 42.8817568,89.1842482 44.9952703,88.2489149 C44.4871622,89.5891876 44.2689189,91.4521876 44.2878378,93.3793088 C43.597973,93.0900664 42.8614865,92.938127 42.1101351,92.938127 L42.1101351,92.938127 Z M45.1898649,93.0810058 C45.1939189,90.5670361 45.6277027,88.729127 46.225,87.8160967 C46.5101351,87.740127 46.8013514,87.6794907 47.097973,87.6348846 C47.3918919,87.5902785 47.6885135,87.5623997 47.9851351,87.5505513 C48.8081081,88.2503088 49.7337838,89.8847028 50.4324324,92.2934301 C49.8337838,92.0801573 49.202027,91.9693391 48.5601351,91.9693391 C48.2804054,91.9693391 47.997973,91.9909452 47.7189189,92.0320664 C46.7993243,92.1707634 45.9344595,92.5324907 45.1898649,93.0810058 L45.1898649,93.0810058 Z" id="Beaches-4" fill="#FFFFFF" sketch:type="MSShapeGroup"></path>
        </g>
    </g>
</svg>