<svg width="32" height="232" viewBox="0 0 32 232" xmlns="http://www.w3.org/2000/svg" xmlns:sketch="http://www.bohemiancoding.com/sketch/ns"><title>value-travel</title><g sketch:type="MSPage" fill="none"><g sketch:type="MSLayerGroup" fill="#3B444F"><path d="M20.334 24.826c.276 0 .544-.102.755-.293.25-.227.394-.554.394-.9v-13.851c0-.596-.424-1.099-.993-1.18l-1.877-.268.001-1.356c0-.307-.225-.564-.518-.594l-12.728-1.313c-.162-.018-.321.037-.442.149-.121.113-.189.272-.189.441l-.003.686-1.087-.156c-.328-.046-.662.056-.913.282-.25.228-.394.556-.394.899v13.929c0 .443.236.848.612 1.054l8.493 4.663c.168.093.352.139.537.139.206 0 .411-.057.593-.17.345-.216.557-.604.557-1.023v-2.157l7.044 1.009.158.01zm-9.501-1.348v.508l-1.251-.688-1.481-.812-1.481-.814-1.483-.814-.498-.272v-11.153l.086.047.573.314.574.316 2.807 1.541.166.091 1.317.724.669.368v10.644zm-4.95-16.965l.001-.191 11.581 1.196-.001.653-.001 1.203v1.204l-.002 2.335-4.329-.621v-.176c0-.441-.236-.846-.612-1.052l-2.937-1.613-2.963-1.628-.741-.406.003-.902zm7.25 9.707l6.051.866v5.181l-6.051-.865v-5.182zm6.051-.337l-6.051-.867v-1.457l6.051.867v1.457zm0-2.661l-.573-.082.001-2.397.572.081v2.398z" id="Fill-1" sketch:type="MSShapeGroup"/><path d="M26.993 23.437c-.697 0-4.177.076-4.177 1.585 0 .341.18.609.464.82-.429-.045-.817-.054-1.048-.054-.783 0-3.334.099-3.334 1.355 0 1.255 2.552 1.352 3.334 1.352.783 0 3.334-.097 3.334-1.352 0-.268-.117-.481-.304-.655.753.106 1.456.118 1.731.118.699 0 4.177-.076 4.177-1.583 0-1.508-3.478-1.585-4.177-1.585zm-4.761 3.864c-.695 0-1.251-.073-1.641-.159.391-.089.946-.162 1.641-.162.695 0 1.253.073 1.642.162-.389.086-.947.159-1.642.159zm4.761-1.887c-1.347 0-2.307-.208-2.775-.392.467-.185 1.427-.393 2.775-.393 1.347 0 2.307.208 2.775.393-.469.184-1.429.392-2.775.392z" id="Fill-2" sketch:type="MSShapeGroup"/></g><g sketch:type="MSLayerGroup" fill="#67747C"><path d="M20.334 64.826c.276 0 .544-.102.755-.293.25-.227.394-.554.394-.9v-13.851c0-.596-.424-1.099-.993-1.18l-1.877-.268.001-1.356c0-.307-.225-.564-.518-.594l-12.728-1.313c-.162-.018-.321.037-.442.149-.121.113-.189.272-.189.441l-.003.686-1.087-.156c-.328-.046-.662.056-.913.282-.25.228-.394.556-.394.899v13.929c0 .443.236.848.612 1.054l8.493 4.663c.168.093.352.139.537.139.206 0 .411-.057.593-.17.345-.216.557-.604.557-1.023v-2.157l7.044 1.009.158.01zm-9.501-1.348v.508l-1.251-.688-1.481-.812-1.481-.814-1.483-.814-.498-.272v-11.153l.086.047.573.314.574.316 2.807 1.541.166.091 1.317.724.669.368v10.644zm-4.95-16.965l.001-.191 11.581 1.196-.001.653-.001 1.203v1.204l-.002 2.335-4.329-.621v-.176c0-.441-.236-.846-.612-1.052l-2.937-1.613-2.963-1.628-.741-.406.003-.902zm7.25 9.707l6.051.866v5.181l-6.051-.865v-5.182zm6.051-.337l-6.051-.867v-1.457l6.051.867v1.457zm0-2.661l-.573-.082.001-2.397.572.081v2.398z" id="Fill-1" sketch:type="MSShapeGroup"/><path d="M26.993 63.437c-.697 0-4.177.076-4.177 1.585 0 .341.18.609.464.82-.429-.045-.817-.054-1.048-.054-.783 0-3.334.099-3.334 1.355 0 1.255 2.552 1.352 3.334 1.352.783 0 3.334-.097 3.334-1.352 0-.268-.117-.481-.304-.655.753.106 1.456.118 1.731.118.699 0 4.177-.076 4.177-1.583 0-1.508-3.478-1.585-4.177-1.585zm-4.761 3.864c-.695 0-1.251-.073-1.641-.159.391-.089.946-.162 1.641-.162.695 0 1.253.073 1.642.162-.389.086-.947.159-1.642.159zm4.761-1.887c-1.347 0-2.307-.208-2.775-.392.467-.185 1.427-.393 2.775-.393 1.347 0 2.307.208 2.775.393-.469.184-1.429.392-2.775.392z" id="Fill-2" sketch:type="MSShapeGroup"/></g><g sketch:type="MSLayerGroup" fill="#fff"><path d="M20.334 104.826c.276 0 .544-.102.755-.293.25-.227.394-.554.394-.9v-13.851c0-.596-.424-1.099-.993-1.18l-1.877-.268.001-1.356c0-.307-.225-.564-.518-.594l-12.728-1.313c-.162-.018-.321.037-.442.149-.121.113-.189.272-.189.441l-.003.686-1.087-.156c-.328-.046-.662.056-.913.282-.25.228-.394.556-.394.899v13.929c0 .443.236.848.612 1.054l8.493 4.663c.168.093.352.139.537.139.206 0 .411-.057.593-.17.345-.216.557-.604.557-1.023v-2.157l7.044 1.009.158.01zm-9.501-1.348v.508l-1.251-.688-1.481-.812-1.481-.814-1.483-.814-.498-.272v-11.153l.086.047.573.314.574.316 2.807 1.541.166.091 1.317.724.669.368v10.644zm-4.95-16.965l.001-.191 11.581 1.196-.001.653-.001 1.203v1.204l-.002 2.335-4.329-.621v-.176c0-.441-.236-.846-.612-1.052l-2.937-1.613-2.963-1.628-.741-.406.003-.902zm7.25 9.707l6.051.866v5.181l-6.051-.865v-5.182zm6.051-.337l-6.051-.867v-1.457l6.051.867v1.457zm0-2.661l-.573-.082.001-2.397.572.081v2.398z" id="Fill-1" sketch:type="MSShapeGroup"/><path d="M26.993 103.437c-.697 0-4.177.076-4.177 1.585 0 .341.18.609.464.82-.429-.045-.817-.054-1.048-.054-.783 0-3.334.099-3.334 1.355 0 1.255 2.552 1.352 3.334 1.352.783 0 3.334-.097 3.334-1.352 0-.268-.117-.481-.304-.655.753.106 1.456.118 1.731.118.699 0 4.177-.076 4.177-1.583 0-1.508-3.478-1.585-4.177-1.585zm-4.761 3.864c-.695 0-1.251-.073-1.641-.159.391-.089.946-.162 1.641-.162.695 0 1.253.073 1.642.162-.389.086-.947.159-1.642.159zm4.761-1.887c-1.347 0-2.307-.208-2.775-.392.467-.185 1.427-.393 2.775-.393 1.347 0 2.307.208 2.775.393-.469.184-1.429.392-2.775.392z" id="Fill-2" sketch:type="MSShapeGroup"/></g><g sketch:type="MSLayerGroup" fill="#206FAC"><path d="M20.334 144.826c.276 0 .544-.102.755-.293.25-.227.394-.554.394-.9v-13.851c0-.596-.424-1.099-.993-1.18l-1.877-.268.001-1.356c0-.307-.225-.564-.518-.594l-12.728-1.313c-.162-.018-.321.037-.442.149-.121.113-.189.272-.189.441l-.003.686-1.087-.156c-.328-.046-.662.056-.913.282-.25.228-.394.556-.394.899v13.929c0 .443.236.848.612 1.054l8.493 4.663c.168.093.352.139.537.139.206 0 .411-.057.593-.17.345-.216.557-.604.557-1.023v-2.157l7.044 1.009.158.01zm-9.501-1.348v.508l-1.251-.688-1.481-.812-1.481-.814-1.483-.814-.498-.272v-11.153l.086.047.573.314.574.316 2.807 1.541.166.091 1.317.724.669.368v10.644zm-4.95-16.965l.001-.191 11.581 1.196-.001.653-.001 1.203v1.204l-.002 2.335-4.329-.621v-.176c0-.441-.236-.846-.612-1.052l-2.937-1.613-2.963-1.628-.741-.406.003-.902zm7.25 9.707l6.051.866v5.181l-6.051-.865v-5.182zm6.051-.337l-6.051-.867v-1.457l6.051.867v1.457zm0-2.661l-.573-.082.001-2.397.572.081v2.398z" sketch:type="MSShapeGroup"/><path d="M26.993 143.437c-.697 0-4.177.076-4.177 1.585 0 .341.18.609.464.82-.429-.045-.817-.054-1.048-.054-.783 0-3.334.099-3.334 1.355 0 1.255 2.552 1.352 3.334 1.352.783 0 3.334-.097 3.334-1.352 0-.268-.117-.481-.304-.655.753.106 1.456.118 1.731.118.699 0 4.177-.076 4.177-1.583 0-1.508-3.478-1.585-4.177-1.585zm-4.761 3.864c-.695 0-1.251-.073-1.641-.159.391-.089.946-.162 1.641-.162.695 0 1.253.073 1.642.162-.389.086-.947.159-1.642.159zm4.761-1.887c-1.347 0-2.307-.208-2.775-.392.467-.185 1.427-.393 2.775-.393 1.347 0 2.307.208 2.775.393-.469.184-1.429.392-2.775.392z" sketch:type="MSShapeGroup"/></g></g></svg>