<svg width="32" height="232" viewBox="0 0 32 232" xmlns="http://www.w3.org/2000/svg" xmlns:sketch="http://www.bohemiancoding.com/sketch/ns"><title>islands</title><g sketch:type="MSPage" fill="none"><g sketch:type="MSLayerGroup"><g fill="#206FAC" sketch:type="MSShapeGroup"><path d="M29.537 138.57c-.494 0-.761.137-.975.248-.169.089-.283.147-.554.147-.27 0-.383-.057-.553-.147-.214-.11-.482-.248-.976-.248-.255 0-.45.037-.608.087-.023-.146-.082-.289-.18-.415l-1.007-1.304c-.096-.124-.221-.221-.365-.282l-1.948-.832c.009-.359.057-.808.192-1.318.244-.923.639-1.54.859-1.833.792.102 2.596.385 3.667.933.066.035.137.05.208.05.134 0 .264-.059.354-.166.138-.166.14-.406.005-.575-.043-.055-1.02-1.259-2.739-1.437.66-.401 1.423-.805 2.076-.988.206-.059.346-.254.331-.469-.013-.214-.174-.391-.388-.423-.017-.003-.177-.027-.429-.027-.586 0-1.818.131-2.87 1.099-.23-.954-.833-2.035-2.15-2.772-.187-.105-.423-.065-.565.093-.143.158-.157.395-.033.57.013.018 1.017 1.434 1.599 2.776-.152-.021-.32-.036-.496-.036-.878 0-1.7.348-2.378 1.006-.154.149-.184.386-.071.567.085.138.235.218.391.218l.148-.025c.015-.004 1.247-.425 2.344-.559-.253.407-.546.996-.748 1.765-.092.354-.15.686-.184.987l-.615-.472c-.158-.122-.351-.189-.551-.19l-1.043-.007c.01-.389-.023-.905-.18-1.505-.173-.657-.429-1.155-.643-1.492 1.14-.406 2.711-.563 2.73-.566.212-.02.382-.186.409-.398.026-.213-.098-.414-.3-.487-.435-.155-.871-.235-1.295-.235-.479 0-.899.1-1.254.241.445-.841.964-1.576.972-1.587.125-.175.111-.412-.032-.57-.143-.16-.378-.198-.564-.093-1.022.571-1.522 1.394-1.737 2.147-.844-.713-1.8-.811-2.263-.811l-.359.021c-.213.033-.375.209-.389.425-.013.215.125.409.333.468.606.17 1.336.583 1.912.95-1.577.456-2.153 1.843-2.18 1.912-.081.2-.01.429.169.549.078.053.167.078.256.078.115 0 .228-.044.316-.127.642-.614 1.829-1.2 2.459-1.486.176.263.413.696.57 1.295.137.517.16.958.15 1.272l-.703.01c-.113.008-.425.031-1.093.469l-1.285-.425c-.094-.031-.19-.047-.288-.047h-2.581l-.231.029-2.198.571-.187.072-2.29 1.171c-.117.06-.22.145-.301.248l-1.355 1.715c-.063.081-.11.168-.143.26-.162-.055-.363-.095-.632-.095-.252 0-.458.205-.458.456 0 .253.206.458.458.458.27 0 .383.057.554.147.182.093.403.207.766.239l.173.017.124-.01c.438-.014.686-.143.886-.246.171-.089.283-.147.553-.147.271 0 .383.057.554.147.215.11.481.247.975.247.493 0 .76-.137.974-.247.171-.089.283-.147.555-.147.27 0 .382.057.553.147.214.11.481.247.975.247s.76-.137.975-.247c.169-.089.283-.147.553-.147.27 0 .383.057.554.147.214.11.481.247.975.247s.76-.137.976-.247c.169-.089.282-.147.552-.147.27 0 .384.057.555.147.214.11.481.247.973.247.494 0 .761-.137.976-.247.169-.089.283-.147.553-.147.27 0 .383.057.553.147.215.11.482.247.976.247s.76-.137.975-.247c.17-.089.283-.147.553-.147.27 0 .383.057.554.147.214.11.481.247.975.247s.761-.137.975-.247c.171-.089.284-.147.555-.147.27 0 .383.057.554.147.215.11.481.247.975.247s.759-.137.976-.247c.17-.089.283-.147.553-.147.252 0 .458-.205.458-.458 0-.252-.206-.456-.458-.456zm-6.116 0c-.494 0-.761.137-.975.248-.171.089-.284.147-.554.147-.272 0-.384-.057-.554-.147-.214-.11-.481-.248-.975-.248s-.76.137-.975.248c-.169.089-.283.147-.554.147-.27 0-.382-.057-.552-.147-.214-.11-.481-.248-.975-.248s-.761.137-.975.248c-.17.089-.283.147-.553.147-.271 0-.383-.057-.554-.147-.214-.11-.481-.248-.975-.248s-.76.137-.975.248c-.17.089-.282.147-.553.147-.27 0-.382-.057-.553-.147-.215-.11-.481-.248-.975-.248s-.761.137-.975.248c-.171.089-.283.147-.553.147-.271 0-.383-.057-.554-.147-.214-.11-.481-.248-.975-.248l-.08.001.467-.591 2.023-1.036 1.987-.515h2.315l1.585.523c.285.095.598.043.838-.137.185-.138.463-.322.604-.391.303-.007 1.226-.004 2.129.003l1.013.778.197.116 2.164.925.259.334-.216-.009z" id="Fill-1"/><path d="M24.016 140.833h-.044c-.494 0-.761.137-.975.248-.166.087-.278.144-.535.147-.257-.003-.37-.06-.536-.147-.215-.11-.481-.248-.976-.248h-.035c-.492 0-.759.137-.975.248-.166.087-.279.144-.537.147-.256-.003-.369-.06-.535-.147-.214-.11-.481-.248-.975-.248h-.034c-.495 0-.761.137-.976.248-.167.087-.278.144-.536.147-.257-.003-.37-.06-.537-.147-.214-.11-.48-.248-.974-.248h-.035c-.494 0-.76.137-.976.248-.165.087-.277.144-.535.147-.257-.003-.37-.06-.537-.147-.214-.11-.481-.248-.975-.248h-.033c-.494 0-.761.137-.975.248-.167.087-.279.144-.536.147-.257-.003-.37-.06-.536-.147-.216-.11-.481-.248-.975-.248h-.035c-.494 0-.759.137-.975.248-.165.087-.278.144-.535.147-.258-.003-.369-.06-.537-.147-.214-.11-.481-.248-.975-.248h-.033c-.494 0-.761.137-.975.248-.167.087-.28.144-.537.147-.257-.003-.37-.06-.536-.147-.214-.11-.481-.248-.974-.248h-.042c-.249.004-.45.207-.45.457 0 .252.204.457.458.457l.016.001c.257.001.37.059.537.145.214.11.481.249.975.249h.035c.493 0 .759-.138.975-.249.167-.087.279-.144.537-.145.257.001.369.059.537.145.213.11.48.249.974.249h.033c.494 0 .761-.138.975-.249.167-.087.279-.144.537-.145.257.001.369.059.537.145.214.11.48.249.974.249h.035c.493 0 .76-.138.974-.249.167-.087.28-.144.537-.145.258.001.369.059.537.145.214.11.481.249.975.249h.034c.493 0 .76-.138.975-.249.167-.087.279-.144.536-.145.259.001.37.059.537.145.215.11.481.249.975.249h.035c.494 0 .761-.138.975-.249.167-.087.279-.144.536-.145.258.001.37.059.537.145.214.11.481.249.975.249h.036c.494 0 .76-.138.975-.249.167-.087.279-.144.537-.145.258.001.369.059.536.145.214.11.481.249.976.249h.034c.494 0 .761-.138.975-.249.166-.087.279-.144.536-.145l.018-.001c.253 0 .458-.205.458-.457 0-.25-.2-.453-.45-.457" id="Fill-2"/></g><g fill="#67737B" sketch:type="MSShapeGroup"><path d="M29.537 59.57c-.494 0-.761.137-.975.248-.169.089-.283.147-.554.147-.27 0-.383-.057-.553-.147-.214-.11-.482-.248-.976-.248-.255 0-.45.037-.608.087-.023-.146-.082-.289-.18-.415l-1.007-1.304c-.096-.124-.221-.221-.365-.282l-1.948-.832c.009-.359.057-.808.192-1.318.244-.923.639-1.54.859-1.833.792.102 2.596.385 3.667.933.066.035.137.05.208.05.134 0 .264-.059.354-.166.138-.166.14-.406.005-.575-.043-.055-1.02-1.259-2.739-1.437.66-.401 1.423-.805 2.076-.988.206-.059.346-.254.331-.469-.013-.214-.174-.391-.388-.423-.017-.003-.177-.027-.429-.027-.586 0-1.818.131-2.87 1.099-.23-.954-.833-2.035-2.15-2.772-.187-.105-.423-.065-.565.093-.143.158-.157.395-.033.57.013.018 1.017 1.434 1.599 2.776-.152-.021-.32-.036-.496-.036-.878 0-1.7.348-2.378 1.006-.154.149-.184.386-.071.567.085.138.235.218.391.218l.148-.025c.015-.004 1.247-.425 2.344-.559-.253.407-.546.996-.748 1.765-.092.354-.15.686-.184.987l-.615-.472c-.158-.122-.351-.189-.551-.19l-1.043-.007c.01-.389-.023-.905-.18-1.505-.173-.657-.429-1.155-.643-1.492 1.14-.406 2.711-.563 2.73-.566.212-.02.382-.186.409-.398.026-.213-.098-.414-.3-.487-.435-.155-.871-.235-1.295-.235-.479 0-.899.1-1.254.241.445-.841.964-1.576.972-1.587.125-.175.111-.412-.032-.57-.143-.16-.378-.198-.564-.093-1.022.571-1.522 1.394-1.737 2.147-.844-.713-1.8-.811-2.263-.811l-.359.021c-.213.033-.375.209-.389.425-.013.215.125.409.333.468.606.17 1.336.583 1.912.95-1.577.456-2.153 1.843-2.18 1.912-.081.2-.01.429.169.549.078.053.167.078.256.078.115 0 .228-.044.316-.127.642-.614 1.829-1.2 2.459-1.486.176.263.413.696.57 1.295.137.517.16.958.15 1.272l-.703.01c-.113.008-.425.031-1.093.469l-1.285-.425c-.094-.031-.19-.047-.288-.047h-2.581l-.231.029-2.198.571-.187.072-2.29 1.171c-.117.06-.22.145-.301.248l-1.355 1.715c-.063.081-.11.168-.143.26-.162-.055-.363-.095-.632-.095-.252 0-.458.205-.458.456 0 .253.206.458.458.458.27 0 .383.057.554.147.182.093.403.207.766.239l.173.017.124-.01c.438-.014.686-.143.886-.246.171-.089.283-.147.553-.147.271 0 .383.057.554.147.215.11.481.247.975.247.493 0 .76-.137.974-.247.171-.089.283-.147.555-.147.27 0 .382.057.553.147.214.11.481.247.975.247s.76-.137.975-.247c.169-.089.283-.147.553-.147.27 0 .383.057.554.147.214.11.481.247.975.247s.76-.137.976-.247c.169-.089.282-.147.552-.147.27 0 .384.057.555.147.214.11.481.247.973.247.494 0 .761-.137.976-.247.169-.089.283-.147.553-.147.27 0 .383.057.553.147.215.11.482.247.976.247s.76-.137.975-.247c.17-.089.283-.147.553-.147.27 0 .383.057.554.147.214.11.481.247.975.247s.761-.137.975-.247c.171-.089.284-.147.555-.147.27 0 .383.057.554.147.215.11.481.247.975.247s.759-.137.976-.247c.17-.089.283-.147.553-.147.252 0 .458-.205.458-.458 0-.252-.206-.456-.458-.456zm-6.116 0c-.494 0-.761.137-.975.248-.171.089-.284.147-.554.147-.272 0-.384-.057-.554-.147-.214-.11-.481-.248-.975-.248s-.76.137-.975.248c-.169.089-.283.147-.554.147-.27 0-.382-.057-.552-.147-.214-.11-.481-.248-.975-.248s-.761.137-.975.248c-.17.089-.283.147-.553.147-.271 0-.383-.057-.554-.147-.214-.11-.481-.248-.975-.248s-.76.137-.975.248c-.17.089-.282.147-.553.147-.27 0-.382-.057-.553-.147-.215-.11-.481-.248-.975-.248s-.761.137-.975.248c-.171.089-.283.147-.553.147-.271 0-.383-.057-.554-.147-.214-.11-.481-.248-.975-.248l-.08.001.467-.591 2.023-1.036 1.987-.515h2.315l1.585.523c.285.095.598.043.838-.137.185-.138.463-.322.604-.391.303-.007 1.226-.004 2.129.003l1.013.778.197.116 2.164.925.259.334-.216-.009z" id="Fill-1"/><path d="M24.016 61.833h-.044c-.494 0-.761.137-.975.248-.166.087-.278.144-.535.147-.257-.003-.37-.06-.536-.147-.215-.11-.481-.248-.976-.248h-.035c-.492 0-.759.137-.975.248-.166.087-.279.144-.537.147-.256-.003-.369-.06-.535-.147-.214-.11-.481-.248-.975-.248h-.034c-.495 0-.761.137-.976.248-.167.087-.278.144-.536.147-.257-.003-.37-.06-.537-.147-.214-.11-.48-.248-.974-.248h-.035c-.494 0-.76.137-.976.248-.165.087-.277.144-.535.147-.257-.003-.37-.06-.537-.147-.214-.11-.481-.248-.975-.248h-.033c-.494 0-.761.137-.975.248-.167.087-.279.144-.536.147-.257-.003-.37-.06-.536-.147-.216-.11-.481-.248-.975-.248h-.035c-.494 0-.759.137-.975.248-.165.087-.278.144-.535.147-.258-.003-.369-.06-.537-.147-.214-.11-.481-.248-.975-.248h-.033c-.494 0-.761.137-.975.248-.167.087-.28.144-.537.147-.257-.003-.37-.06-.536-.147-.214-.11-.481-.248-.974-.248h-.042c-.249.004-.45.207-.45.457 0 .252.204.457.458.457l.016.001c.257.001.37.059.537.145.214.11.481.249.975.249h.035c.493 0 .759-.138.975-.249.167-.087.279-.144.537-.145.257.001.369.059.537.145.213.11.48.249.974.249h.033c.494 0 .761-.138.975-.249.167-.087.279-.144.537-.145.257.001.369.059.537.145.214.11.48.249.974.249h.035c.493 0 .76-.138.974-.249.167-.087.28-.144.537-.145.258.001.369.059.537.145.214.11.481.249.975.249h.034c.493 0 .76-.138.975-.249.167-.087.279-.144.536-.145.259.001.37.059.537.145.215.11.481.249.975.249h.035c.494 0 .761-.138.975-.249.167-.087.279-.144.536-.145.258.001.37.059.537.145.214.11.481.249.975.249h.036c.494 0 .76-.138.975-.249.167-.087.279-.144.537-.145.258.001.369.059.536.145.214.11.481.249.976.249h.034c.494 0 .761-.138.975-.249.166-.087.279-.144.536-.145l.018-.001c.253 0 .458-.205.458-.457 0-.25-.2-.453-.45-.457" id="Fill-2"/></g><g fill="#373D43" sketch:type="MSShapeGroup"><path d="M29.537 19.57c-.494 0-.761.137-.975.248-.169.089-.283.147-.554.147-.27 0-.383-.057-.553-.147-.214-.11-.482-.248-.976-.248-.255 0-.45.037-.608.087-.023-.146-.082-.289-.18-.415l-1.007-1.304c-.096-.124-.221-.221-.365-.282l-1.948-.832c.009-.359.057-.808.192-1.318.244-.923.639-1.54.859-1.833.792.102 2.596.385 3.667.933.066.035.137.05.208.05.134 0 .264-.059.354-.166.138-.166.14-.406.005-.575-.043-.055-1.02-1.259-2.739-1.437.66-.401 1.423-.805 2.076-.988.206-.059.346-.254.331-.469-.013-.214-.174-.391-.388-.423-.017-.003-.177-.027-.429-.027-.586 0-1.818.131-2.87 1.099-.23-.954-.833-2.035-2.15-2.772-.187-.105-.423-.065-.565.093-.143.158-.157.395-.033.57.013.018 1.017 1.434 1.599 2.776-.152-.021-.32-.036-.496-.036-.878 0-1.7.348-2.378 1.006-.154.149-.184.386-.071.567.085.138.235.218.391.218l.148-.025c.015-.004 1.247-.425 2.344-.559-.253.407-.546.996-.748 1.765-.092.354-.15.686-.184.987l-.615-.472c-.158-.122-.351-.189-.551-.19l-1.043-.007c.01-.389-.023-.905-.18-1.505-.173-.657-.429-1.155-.643-1.492 1.14-.406 2.711-.563 2.73-.566.212-.02.382-.186.409-.398.026-.213-.098-.414-.3-.487-.435-.155-.871-.235-1.295-.235-.479 0-.899.1-1.254.241.445-.841.964-1.576.972-1.587.125-.175.111-.412-.032-.57-.143-.16-.378-.198-.564-.093-1.022.571-1.522 1.394-1.737 2.147-.844-.713-1.8-.811-2.263-.811l-.359.021c-.213.033-.375.209-.389.425-.013.215.125.409.333.468.606.17 1.336.583 1.912.95-1.577.456-2.153 1.843-2.18 1.912-.081.2-.01.429.169.549.078.053.167.078.256.078.115 0 .228-.044.316-.127.642-.614 1.829-1.2 2.459-1.486.176.263.413.696.57 1.295.137.517.16.958.15 1.272l-.703.01c-.113.008-.425.031-1.093.469l-1.285-.425c-.094-.031-.19-.047-.288-.047h-2.581l-.231.029-2.198.571-.187.072-2.29 1.171c-.117.06-.22.145-.301.248l-1.355 1.715c-.063.081-.11.168-.143.26-.162-.055-.363-.095-.632-.095-.252 0-.458.205-.458.456 0 .253.206.458.458.458.27 0 .383.057.554.147.182.093.403.207.766.239l.173.017.124-.01c.438-.014.686-.143.886-.246.171-.089.283-.147.553-.147.271 0 .383.057.554.147.215.11.481.247.975.247.493 0 .76-.137.974-.247.171-.089.283-.147.555-.147.27 0 .382.057.553.147.214.11.481.247.975.247s.76-.137.975-.247c.169-.089.283-.147.553-.147.27 0 .383.057.554.147.214.11.481.247.975.247s.76-.137.976-.247c.169-.089.282-.147.552-.147.27 0 .384.057.555.147.214.11.481.247.973.247.494 0 .761-.137.976-.247.169-.089.283-.147.553-.147.27 0 .383.057.553.147.215.11.482.247.976.247s.76-.137.975-.247c.17-.089.283-.147.553-.147.27 0 .383.057.554.147.214.11.481.247.975.247s.761-.137.975-.247c.171-.089.284-.147.555-.147.27 0 .383.057.554.147.215.11.481.247.975.247s.759-.137.976-.247c.17-.089.283-.147.553-.147.252 0 .458-.205.458-.458 0-.252-.206-.456-.458-.456zm-6.116 0c-.494 0-.761.137-.975.248-.171.089-.284.147-.554.147-.272 0-.384-.057-.554-.147-.214-.11-.481-.248-.975-.248s-.76.137-.975.248c-.169.089-.283.147-.554.147-.27 0-.382-.057-.552-.147-.214-.11-.481-.248-.975-.248s-.761.137-.975.248c-.17.089-.283.147-.553.147-.271 0-.383-.057-.554-.147-.214-.11-.481-.248-.975-.248s-.76.137-.975.248c-.17.089-.282.147-.553.147-.27 0-.382-.057-.553-.147-.215-.11-.481-.248-.975-.248s-.761.137-.975.248c-.171.089-.283.147-.553.147-.271 0-.383-.057-.554-.147-.214-.11-.481-.248-.975-.248l-.08.001.467-.591 2.023-1.036 1.987-.515h2.315l1.585.523c.285.095.598.043.838-.137.185-.138.463-.322.604-.391.303-.007 1.226-.004 2.129.003l1.013.778.197.116 2.164.925.259.334-.216-.009z" id="Fill-1"/><path d="M24.016 21.833h-.044c-.494 0-.761.137-.975.248-.166.087-.278.144-.535.147-.257-.003-.37-.06-.536-.147-.215-.11-.481-.248-.976-.248h-.035c-.492 0-.759.137-.975.248-.166.087-.279.144-.537.147-.256-.003-.369-.06-.535-.147-.214-.11-.481-.248-.975-.248h-.034c-.495 0-.761.137-.976.248-.167.087-.278.144-.536.147-.257-.003-.37-.06-.537-.147-.214-.11-.48-.248-.974-.248h-.035c-.494 0-.76.137-.976.248-.165.087-.277.144-.535.147-.257-.003-.37-.06-.537-.147-.214-.11-.481-.248-.975-.248h-.033c-.494 0-.761.137-.975.248-.167.087-.279.144-.536.147-.257-.003-.37-.06-.536-.147-.216-.11-.481-.248-.975-.248h-.035c-.494 0-.759.137-.975.248-.165.087-.278.144-.535.147-.258-.003-.369-.06-.537-.147-.214-.11-.481-.248-.975-.248h-.033c-.494 0-.761.137-.975.248-.167.087-.28.144-.537.147-.257-.003-.37-.06-.536-.147-.214-.11-.481-.248-.974-.248h-.042c-.249.004-.45.207-.45.457 0 .252.204.457.458.457l.016.001c.257.001.37.059.537.145.214.11.481.249.975.249h.035c.493 0 .759-.138.975-.249.167-.087.279-.144.537-.145.257.001.369.059.537.145.213.11.48.249.974.249h.033c.494 0 .761-.138.975-.249.167-.087.279-.144.537-.145.257.001.369.059.537.145.214.11.48.249.974.249h.035c.493 0 .76-.138.974-.249.167-.087.28-.144.537-.145.258.001.369.059.537.145.214.11.481.249.975.249h.034c.493 0 .76-.138.975-.249.167-.087.279-.144.536-.145.259.001.37.059.537.145.215.11.481.249.975.249h.035c.494 0 .761-.138.975-.249.167-.087.279-.144.536-.145.258.001.37.059.537.145.214.11.481.249.975.249h.036c.494 0 .76-.138.975-.249.167-.087.279-.144.537-.145.258.001.369.059.536.145.214.11.481.249.976.249h.034c.494 0 .761-.138.975-.249.166-.087.279-.144.536-.145l.018-.001c.253 0 .458-.205.458-.457 0-.25-.2-.453-.45-.457" id="Fill-2"/></g><g fill="#fff" sketch:type="MSShapeGroup"><path d="M29.537 98.57c-.494 0-.761.137-.975.248-.169.089-.283.147-.554.147-.27 0-.383-.057-.553-.147-.214-.11-.482-.248-.976-.248-.255 0-.45.037-.608.087-.023-.146-.082-.289-.18-.415l-1.007-1.304c-.096-.124-.221-.221-.365-.282l-1.948-.832c.009-.359.057-.808.192-1.318.244-.923.639-1.54.859-1.833.792.102 2.596.385 3.667.933.066.035.137.05.208.05.134 0 .264-.059.354-.166.138-.166.14-.406.005-.575-.043-.055-1.02-1.259-2.739-1.437.66-.401 1.423-.805 2.076-.988.206-.059.346-.254.331-.469-.013-.214-.174-.391-.388-.423-.017-.003-.177-.027-.429-.027-.586 0-1.818.131-2.87 1.099-.23-.954-.833-2.035-2.15-2.772-.187-.105-.423-.065-.565.093-.143.158-.157.395-.033.57.013.018 1.017 1.434 1.599 2.776-.152-.021-.32-.036-.496-.036-.878 0-1.7.348-2.378 1.006-.154.149-.184.386-.071.567.085.138.235.218.391.218l.148-.025c.015-.004 1.247-.425 2.344-.559-.253.407-.546.996-.748 1.765-.092.354-.15.686-.184.987l-.615-.472c-.158-.122-.351-.189-.551-.19l-1.043-.007c.01-.389-.023-.905-.18-1.505-.173-.657-.429-1.155-.643-1.492 1.14-.406 2.711-.563 2.73-.566.212-.02.382-.186.409-.398.026-.213-.098-.414-.3-.487-.435-.155-.871-.235-1.295-.235-.479 0-.899.1-1.254.241.445-.841.964-1.576.972-1.587.125-.175.111-.412-.032-.57-.143-.16-.378-.198-.564-.093-1.022.571-1.522 1.394-1.737 2.147-.844-.713-1.8-.811-2.263-.811l-.359.021c-.213.033-.375.209-.389.425-.013.215.125.409.333.468.606.17 1.336.583 1.912.95-1.577.456-2.153 1.843-2.18 1.912-.081.2-.01.429.169.549.078.053.167.078.256.078.115 0 .228-.044.316-.127.642-.614 1.829-1.2 2.459-1.486.176.263.413.696.57 1.295.137.517.16.958.15 1.272l-.703.01c-.113.008-.425.031-1.093.469l-1.285-.425c-.094-.031-.19-.047-.288-.047h-2.581l-.231.029-2.198.571-.187.072-2.29 1.171c-.117.06-.22.145-.301.248l-1.355 1.715c-.063.081-.11.168-.143.26-.162-.055-.363-.095-.632-.095-.252 0-.458.205-.458.456 0 .253.206.458.458.458.27 0 .383.057.554.147.182.093.403.207.766.239l.173.017.124-.01c.438-.014.686-.143.886-.246.171-.089.283-.147.553-.147.271 0 .383.057.554.147.215.11.481.247.975.247.493 0 .76-.137.974-.247.171-.089.283-.147.555-.147.27 0 .382.057.553.147.214.11.481.247.975.247s.76-.137.975-.247c.169-.089.283-.147.553-.147.27 0 .383.057.554.147.214.11.481.247.975.247s.76-.137.976-.247c.169-.089.282-.147.552-.147.27 0 .384.057.555.147.214.11.481.247.973.247.494 0 .761-.137.976-.247.169-.089.283-.147.553-.147.27 0 .383.057.553.147.215.11.482.247.976.247s.76-.137.975-.247c.17-.089.283-.147.553-.147.27 0 .383.057.554.147.214.11.481.247.975.247s.761-.137.975-.247c.171-.089.284-.147.555-.147.27 0 .383.057.554.147.215.11.481.247.975.247s.759-.137.976-.247c.17-.089.283-.147.553-.147.252 0 .458-.205.458-.458 0-.252-.206-.456-.458-.456zm-6.116 0c-.494 0-.761.137-.975.248-.171.089-.284.147-.554.147-.272 0-.384-.057-.554-.147-.214-.11-.481-.248-.975-.248s-.76.137-.975.248c-.169.089-.283.147-.554.147-.27 0-.382-.057-.552-.147-.214-.11-.481-.248-.975-.248s-.761.137-.975.248c-.17.089-.283.147-.553.147-.271 0-.383-.057-.554-.147-.214-.11-.481-.248-.975-.248s-.76.137-.975.248c-.17.089-.282.147-.553.147-.27 0-.382-.057-.553-.147-.215-.11-.481-.248-.975-.248s-.761.137-.975.248c-.171.089-.283.147-.553.147-.271 0-.383-.057-.554-.147-.214-.11-.481-.248-.975-.248l-.08.001.467-.591 2.023-1.036 1.987-.515h2.315l1.585.523c.285.095.598.043.838-.137.185-.138.463-.322.604-.391.303-.007 1.226-.004 2.129.003l1.013.778.197.116 2.164.925.259.334-.216-.009z"/><path d="M24.016 100.833h-.044c-.494 0-.761.137-.975.248-.166.087-.278.144-.535.147-.257-.003-.37-.06-.536-.147-.215-.11-.481-.248-.976-.248h-.035c-.492 0-.759.137-.975.248-.166.087-.279.144-.537.147-.256-.003-.369-.06-.535-.147-.214-.11-.481-.248-.975-.248h-.034c-.495 0-.761.137-.976.248-.167.087-.278.144-.536.147-.257-.003-.37-.06-.537-.147-.214-.11-.48-.248-.974-.248h-.035c-.494 0-.76.137-.976.248-.165.087-.277.144-.535.147-.257-.003-.37-.06-.537-.147-.214-.11-.481-.248-.975-.248h-.033c-.494 0-.761.137-.975.248-.167.087-.279.144-.536.147-.257-.003-.37-.06-.536-.147-.216-.11-.481-.248-.975-.248h-.035c-.494 0-.759.137-.975.248-.165.087-.278.144-.535.147-.258-.003-.369-.06-.537-.147-.214-.11-.481-.248-.975-.248h-.033c-.494 0-.761.137-.975.248-.167.087-.28.144-.537.147-.257-.003-.37-.06-.536-.147-.214-.11-.481-.248-.974-.248h-.042c-.249.004-.45.207-.45.457 0 .252.204.457.458.457l.016.001c.257.001.37.059.537.145.214.11.481.249.975.249h.035c.493 0 .759-.138.975-.249.167-.087.279-.144.537-.145.257.001.369.059.537.145.213.11.48.249.974.249h.033c.494 0 .761-.138.975-.249.167-.087.279-.144.537-.145.257.001.369.059.537.145.214.11.48.249.974.249h.035c.493 0 .76-.138.974-.249.167-.087.28-.144.537-.145.258.001.369.059.537.145.214.11.481.249.975.249h.034c.493 0 .76-.138.975-.249.167-.087.279-.144.536-.145.259.001.37.059.537.145.215.11.481.249.975.249h.035c.494 0 .761-.138.975-.249.167-.087.279-.144.536-.145.258.001.37.059.537.145.214.11.481.249.975.249h.036c.494 0 .76-.138.975-.249.167-.087.279-.144.537-.145.258.001.369.059.536.145.214.11.481.249.976.249h.034c.494 0 .761-.138.975-.249.166-.087.279-.144.536-.145l.018-.001c.253 0 .458-.205.458-.457 0-.25-.2-.453-.45-.457"/></g></g></g></svg>