<?xml version="1.0" encoding="UTF-8" standalone="no"?>
<svg width="32px" height="232px" viewBox="0 0 32 232" version="1.1" xmlns="http://www.w3.org/2000/svg" xmlns:xlink="http://www.w3.org/1999/xlink" xmlns:sketch="http://www.bohemiancoding.com/sketch/ns">
    <!-- Generator: Sketch 3.0.1 (7597) - http://www.bohemiancoding.com/sketch -->
    <title>family-travel</title>
    <description>Created with Sketch.</description>
    <defs></defs>
    <g id="Points-of-interest" stroke="none" stroke-width="1" fill="none" fill-rule="evenodd" sketch:type="MSPage">
        <g id="Family-travel-3" sketch:type="MSLayerGroup" transform="translate(3.500000, 3.000000)" fill="#3B444F">
            <path d="M3.10613333,4.50910617 L3.10613333,8.12573827 C3.10613333,8.15719506 3.1097284,8.18865185 3.11512099,8.22010864 C3.11601975,8.22729877 3.11781728,8.23628642 3.11871605,8.24437531 C3.12500741,8.2731358 3.13219753,8.30099753 3.14208395,8.32706173 C3.14298272,8.32885926 3.14388148,8.33065679 3.14478025,8.33245432 C3.1537679,8.36211358 3.16814815,8.38907654 3.18162963,8.41514074 C3.18612346,8.42233086 3.19061728,8.42862222 3.19511111,8.43581235 C3.20859259,8.45918025 3.22207407,8.47985185 3.23915062,8.50142222 C3.24274568,8.50411852 3.24454321,8.50771358 3.24723951,8.51130864 C3.26611358,8.53467654 3.28858272,8.55534815 3.31015309,8.57601975 C3.31644444,8.58141235 3.3227358,8.58680494 3.32902716,8.59219753 C3.33711605,8.59938765 3.3461037,8.60657778 3.35419259,8.61197037 C3.36497778,8.62005926 3.37666173,8.62545185 3.38744691,8.63264198 C3.39373827,8.63803457 3.4009284,8.64162963 3.40811852,8.64702222 C3.43148642,8.6605037 3.45934815,8.67308642 3.48720988,8.68566914 C3.4944,8.68746667 3.50069136,8.69016296 3.50788148,8.69196049 C3.53124938,8.70094815 3.55731358,8.70813827 3.58427654,8.71353086 C3.58877037,8.7153284 3.59236543,8.71712593 3.59596049,8.71712593 L6.3102321,9.23840988 C6.48639012,9.2716642 6.66794074,9.22582716 6.80814815,9.10988642 C6.94655802,8.99574321 7.02654815,8.82587654 7.02654815,8.64702222 L7.02654815,8.19224691 C7.16136296,8.18865185 7.29887407,8.18505679 7.43818272,8.18505679 C9.08651852,8.18505679 10.7878815,8.45738272 12.4326222,8.72072099 C14.1258963,8.99035062 15.8748938,9.2716642 17.6211951,9.2716642 C19.0502321,9.2716642 20.3300741,9.08382222 21.5317235,8.69915062 C21.782479,8.61826173 21.9514469,8.38907654 21.9514469,8.12573827 L21.9514469,7.80038519 C21.9730173,7.7374716 21.9873975,7.67276049 21.9873975,7.60355556 L21.9873975,4.48663704 C21.9873975,4.19813333 21.782479,3.94917531 21.4966716,3.89435062 L18.7832988,3.37306667 C18.7455506,3.36677531 18.7078025,3.36318025 18.6700543,3.36318025 C18.5316444,3.36318025 18.3941333,3.40991605 18.2853827,3.50159012 C18.1469728,3.61573333 18.066084,3.7856 18.066084,3.96715062 L18.066084,4.44259753 C17.920484,4.44619259 17.7712889,4.44978765 17.6211951,4.44978765 C15.9710617,4.44978765 14.2688,4.17746173 12.6231605,3.91412346 C10.9325827,3.64359506 9.18178765,3.36318025 7.43818272,3.36318025 L7.43638519,3.36318025 C6.00734815,3.36318025 4.72840494,3.55102222 3.52585679,3.93479506 C3.276,4.01568395 3.10613333,4.24756543 3.10613333,4.50910617 L3.10613333,4.50910617 Z M17.6211951,8.06552099 C15.9710617,8.06552099 14.2696988,7.79319506 12.6231605,7.52985679 C10.9325827,7.26022716 9.18178765,6.97891358 7.43818272,6.97891358 C7.29977284,6.97891358 7.16136296,6.98250864 7.02654815,6.9861037 C6.82162963,6.9914963 6.6221037,7.00048395 6.42437531,7.01396543 C6.22035556,7.02834568 6.01993086,7.04362469 5.82040494,7.06699259 C5.30001975,7.12451358 4.79940741,7.21259259 4.31227654,7.33033086 L4.31227654,4.95848889 C5.10498765,4.74278519 5.9435358,4.61965432 6.85039012,4.58280494 C7.04182716,4.57381728 7.23775802,4.56842469 7.43638519,4.56842469 L7.43818272,4.56842469 C9.08651852,4.56842469 10.7878815,4.84075062 12.4326222,5.10408889 C14.1249975,5.37461728 15.8748938,5.65593086 17.6211951,5.65593086 C17.7712889,5.65593086 17.920484,5.6523358 18.066084,5.64874074 C18.2710025,5.64155062 18.4714272,5.63076543 18.6700543,5.61908148 C18.8731753,5.60470123 19.0753975,5.58672593 19.2731259,5.56425679 C19.7800296,5.50493827 20.268958,5.41865679 20.7453037,5.30451358 L20.7453037,7.67635556 C19.9696691,7.88666667 19.1508938,8.00979753 18.2674074,8.04934321 C18.0544,8.05833086 17.8404938,8.06552099 17.6211951,8.06552099 L17.6211951,8.06552099 Z" id="Fill-1" sketch:type="MSShapeGroup"></path>
            <path d="M24.3790123,-0.404444444 L0.913145679,-0.404444444 C0.248059259,-0.404444444 -0.292997531,0.134814815 -0.292997531,0.801698765 L-0.292997531,24.8194074 C-0.292997531,25.4844938 0.248059259,26.0246519 0.913145679,26.0246519 L24.3790123,26.0246519 C25.0458963,26.0246519 25.5851556,25.4844938 25.5851556,24.8194074 L25.5851556,0.801698765 C25.5851556,0.134814815 25.0458963,-0.404444444 24.3790123,-0.404444444 L24.3790123,-0.404444444 Z M9.23301728,18.215279 L9.23301728,17.8063407 C9.23301728,16.7691654 10.0760593,15.9261235 11.1132346,15.9261235 C12.1486123,15.9261235 12.9925531,16.7691654 12.9925531,17.8063407 L12.9925531,23.6132642 L9.23301728,23.6132642 L9.23301728,18.215279 L9.23301728,18.215279 Z M8.02777284,23.6132642 L4.82007901,23.6132642 L4.82007901,18.215279 C4.82007901,17.3308938 5.53999012,16.6109827 6.42437531,16.6109827 C7.30696296,16.6109827 8.02777284,17.3308938 8.02777284,18.215279 L8.02777284,23.6132642 L8.02777284,23.6132642 Z M16.9848691,18.9495704 L16.9848691,23.6132642 L14.2103802,23.6132642 L14.2103802,18.5388346 C14.2103802,17.7730864 14.8323259,17.1493432 15.5971753,17.1493432 C16.3629235,17.1493432 16.9848691,17.7730864 16.9848691,18.5388346 L16.9848691,18.9495704 L16.9848691,18.9495704 Z M18.1901136,18.9495704 C18.1901136,18.3366123 18.6862321,17.8377975 19.3000889,17.8377975 C19.9121481,17.8377975 20.4100642,18.3366123 20.4100642,18.9495704 L20.4100642,23.6132642 L18.1901136,23.6132642 L18.1901136,18.9495704 L18.1901136,18.9495704 Z M23.1746667,23.6132642 L21.6144099,23.6132642 L21.6144099,18.9495704 C21.6144099,18.0310321 21.0769481,17.2374222 20.299516,16.8635358 C20.629363,16.5813235 20.8387753,16.1633975 20.8387753,15.697837 C20.8387753,14.8485037 20.1476247,14.1582519 19.3000889,14.1582519 C18.4516543,14.1582519 17.7605037,14.8485037 17.7605037,15.697837 C17.7605037,16.1633975 17.9708148,16.5813235 18.2988642,16.8635358 C18.1200099,16.9498173 17.9537383,17.0567704 17.8045432,17.1834963 C17.5349136,16.7475951 17.1439506,16.3988741 16.6747951,16.1822716 C17.1044049,15.8560198 17.3848198,15.3401284 17.3848198,14.7604247 C17.3848198,13.774479 16.583121,12.973679 15.5971753,12.973679 C14.6112296,12.973679 13.8104296,13.774479 13.8104296,14.7604247 C13.8104296,15.3401284 14.0890469,15.8560198 14.5195556,16.1822716 C14.3065481,16.2811358 14.1088198,16.4042667 13.9308642,16.5543605 C13.6136,15.8425383 13.0347951,15.2736198 12.318479,14.966242 C12.9323358,14.5689877 13.3403753,13.8796346 13.3403753,13.0950123 C13.3403753,11.8646025 12.3418469,10.8633778 11.1132346,10.8633778 C9.88372346,10.8633778 8.88249877,11.8646025 8.88249877,13.0950123 C8.88249877,13.8796346 9.29053827,14.5689877 9.90619259,14.966242 C9.28874074,15.2295802 8.77554568,15.6879506 8.44300247,16.2631605 C8.19224691,16.0052148 7.89475556,15.7949037 7.56131358,15.6457086 C8.07091358,15.2871012 8.40615309,14.6957136 8.40615309,14.0252346 C8.40615309,12.931437 7.51637531,12.0434568 6.42437531,12.0434568 C5.33057778,12.0434568 4.44259753,12.931437 4.44259753,14.0252346 C4.44259753,14.6957136 4.77603951,15.2871012 5.28653827,15.6457086 C4.30328889,16.0843062 3.6139358,17.0711506 3.6139358,18.215279 L3.6139358,23.6132642 L2.11928889,23.6132642 L2.11928889,2.00604444 L23.1746667,2.00604444 L23.1746667,23.6132642 L23.1746667,23.6132642 Z" id="Fill-2" sketch:type="MSShapeGroup"></path>
        </g>
        <g id="Family-travel-4" sketch:type="MSLayerGroup" transform="translate(3.500000, 43.000000)" fill="#67747C">
            <path d="M3.10613333,4.50910617 L3.10613333,8.12573827 C3.10613333,8.15719506 3.1097284,8.18865185 3.11512099,8.22010864 C3.11601975,8.22729877 3.11781728,8.23628642 3.11871605,8.24437531 C3.12500741,8.2731358 3.13219753,8.30099753 3.14208395,8.32706173 C3.14298272,8.32885926 3.14388148,8.33065679 3.14478025,8.33245432 C3.1537679,8.36211358 3.16814815,8.38907654 3.18162963,8.41514074 C3.18612346,8.42233086 3.19061728,8.42862222 3.19511111,8.43581235 C3.20859259,8.45918025 3.22207407,8.47985185 3.23915062,8.50142222 C3.24274568,8.50411852 3.24454321,8.50771358 3.24723951,8.51130864 C3.26611358,8.53467654 3.28858272,8.55534815 3.31015309,8.57601975 C3.31644444,8.58141235 3.3227358,8.58680494 3.32902716,8.59219753 C3.33711605,8.59938765 3.3461037,8.60657778 3.35419259,8.61197037 C3.36497778,8.62005926 3.37666173,8.62545185 3.38744691,8.63264198 C3.39373827,8.63803457 3.4009284,8.64162963 3.40811852,8.64702222 C3.43148642,8.6605037 3.45934815,8.67308642 3.48720988,8.68566914 C3.4944,8.68746667 3.50069136,8.69016296 3.50788148,8.69196049 C3.53124938,8.70094815 3.55731358,8.70813827 3.58427654,8.71353086 C3.58877037,8.7153284 3.59236543,8.71712593 3.59596049,8.71712593 L6.3102321,9.23840988 C6.48639012,9.2716642 6.66794074,9.22582716 6.80814815,9.10988642 C6.94655802,8.99574321 7.02654815,8.82587654 7.02654815,8.64702222 L7.02654815,8.19224691 C7.16136296,8.18865185 7.29887407,8.18505679 7.43818272,8.18505679 C9.08651852,8.18505679 10.7878815,8.45738272 12.4326222,8.72072099 C14.1258963,8.99035062 15.8748938,9.2716642 17.6211951,9.2716642 C19.0502321,9.2716642 20.3300741,9.08382222 21.5317235,8.69915062 C21.782479,8.61826173 21.9514469,8.38907654 21.9514469,8.12573827 L21.9514469,7.80038519 C21.9730173,7.7374716 21.9873975,7.67276049 21.9873975,7.60355556 L21.9873975,4.48663704 C21.9873975,4.19813333 21.782479,3.94917531 21.4966716,3.89435062 L18.7832988,3.37306667 C18.7455506,3.36677531 18.7078025,3.36318025 18.6700543,3.36318025 C18.5316444,3.36318025 18.3941333,3.40991605 18.2853827,3.50159012 C18.1469728,3.61573333 18.066084,3.7856 18.066084,3.96715062 L18.066084,4.44259753 C17.920484,4.44619259 17.7712889,4.44978765 17.6211951,4.44978765 C15.9710617,4.44978765 14.2688,4.17746173 12.6231605,3.91412346 C10.9325827,3.64359506 9.18178765,3.36318025 7.43818272,3.36318025 L7.43638519,3.36318025 C6.00734815,3.36318025 4.72840494,3.55102222 3.52585679,3.93479506 C3.276,4.01568395 3.10613333,4.24756543 3.10613333,4.50910617 L3.10613333,4.50910617 Z M17.6211951,8.06552099 C15.9710617,8.06552099 14.2696988,7.79319506 12.6231605,7.52985679 C10.9325827,7.26022716 9.18178765,6.97891358 7.43818272,6.97891358 C7.29977284,6.97891358 7.16136296,6.98250864 7.02654815,6.9861037 C6.82162963,6.9914963 6.6221037,7.00048395 6.42437531,7.01396543 C6.22035556,7.02834568 6.01993086,7.04362469 5.82040494,7.06699259 C5.30001975,7.12451358 4.79940741,7.21259259 4.31227654,7.33033086 L4.31227654,4.95848889 C5.10498765,4.74278519 5.9435358,4.61965432 6.85039012,4.58280494 C7.04182716,4.57381728 7.23775802,4.56842469 7.43638519,4.56842469 L7.43818272,4.56842469 C9.08651852,4.56842469 10.7878815,4.84075062 12.4326222,5.10408889 C14.1249975,5.37461728 15.8748938,5.65593086 17.6211951,5.65593086 C17.7712889,5.65593086 17.920484,5.6523358 18.066084,5.64874074 C18.2710025,5.64155062 18.4714272,5.63076543 18.6700543,5.61908148 C18.8731753,5.60470123 19.0753975,5.58672593 19.2731259,5.56425679 C19.7800296,5.50493827 20.268958,5.41865679 20.7453037,5.30451358 L20.7453037,7.67635556 C19.9696691,7.88666667 19.1508938,8.00979753 18.2674074,8.04934321 C18.0544,8.05833086 17.8404938,8.06552099 17.6211951,8.06552099 L17.6211951,8.06552099 Z" id="Fill-1" sketch:type="MSShapeGroup"></path>
            <path d="M24.3790123,-0.404444444 L0.913145679,-0.404444444 C0.248059259,-0.404444444 -0.292997531,0.134814815 -0.292997531,0.801698765 L-0.292997531,24.8194074 C-0.292997531,25.4844938 0.248059259,26.0246519 0.913145679,26.0246519 L24.3790123,26.0246519 C25.0458963,26.0246519 25.5851556,25.4844938 25.5851556,24.8194074 L25.5851556,0.801698765 C25.5851556,0.134814815 25.0458963,-0.404444444 24.3790123,-0.404444444 L24.3790123,-0.404444444 Z M9.23301728,18.215279 L9.23301728,17.8063407 C9.23301728,16.7691654 10.0760593,15.9261235 11.1132346,15.9261235 C12.1486123,15.9261235 12.9925531,16.7691654 12.9925531,17.8063407 L12.9925531,23.6132642 L9.23301728,23.6132642 L9.23301728,18.215279 L9.23301728,18.215279 Z M8.02777284,23.6132642 L4.82007901,23.6132642 L4.82007901,18.215279 C4.82007901,17.3308938 5.53999012,16.6109827 6.42437531,16.6109827 C7.30696296,16.6109827 8.02777284,17.3308938 8.02777284,18.215279 L8.02777284,23.6132642 L8.02777284,23.6132642 Z M16.9848691,18.9495704 L16.9848691,23.6132642 L14.2103802,23.6132642 L14.2103802,18.5388346 C14.2103802,17.7730864 14.8323259,17.1493432 15.5971753,17.1493432 C16.3629235,17.1493432 16.9848691,17.7730864 16.9848691,18.5388346 L16.9848691,18.9495704 L16.9848691,18.9495704 Z M18.1901136,18.9495704 C18.1901136,18.3366123 18.6862321,17.8377975 19.3000889,17.8377975 C19.9121481,17.8377975 20.4100642,18.3366123 20.4100642,18.9495704 L20.4100642,23.6132642 L18.1901136,23.6132642 L18.1901136,18.9495704 L18.1901136,18.9495704 Z M23.1746667,23.6132642 L21.6144099,23.6132642 L21.6144099,18.9495704 C21.6144099,18.0310321 21.0769481,17.2374222 20.299516,16.8635358 C20.629363,16.5813235 20.8387753,16.1633975 20.8387753,15.697837 C20.8387753,14.8485037 20.1476247,14.1582519 19.3000889,14.1582519 C18.4516543,14.1582519 17.7605037,14.8485037 17.7605037,15.697837 C17.7605037,16.1633975 17.9708148,16.5813235 18.2988642,16.8635358 C18.1200099,16.9498173 17.9537383,17.0567704 17.8045432,17.1834963 C17.5349136,16.7475951 17.1439506,16.3988741 16.6747951,16.1822716 C17.1044049,15.8560198 17.3848198,15.3401284 17.3848198,14.7604247 C17.3848198,13.774479 16.583121,12.973679 15.5971753,12.973679 C14.6112296,12.973679 13.8104296,13.774479 13.8104296,14.7604247 C13.8104296,15.3401284 14.0890469,15.8560198 14.5195556,16.1822716 C14.3065481,16.2811358 14.1088198,16.4042667 13.9308642,16.5543605 C13.6136,15.8425383 13.0347951,15.2736198 12.318479,14.966242 C12.9323358,14.5689877 13.3403753,13.8796346 13.3403753,13.0950123 C13.3403753,11.8646025 12.3418469,10.8633778 11.1132346,10.8633778 C9.88372346,10.8633778 8.88249877,11.8646025 8.88249877,13.0950123 C8.88249877,13.8796346 9.29053827,14.5689877 9.90619259,14.966242 C9.28874074,15.2295802 8.77554568,15.6879506 8.44300247,16.2631605 C8.19224691,16.0052148 7.89475556,15.7949037 7.56131358,15.6457086 C8.07091358,15.2871012 8.40615309,14.6957136 8.40615309,14.0252346 C8.40615309,12.931437 7.51637531,12.0434568 6.42437531,12.0434568 C5.33057778,12.0434568 4.44259753,12.931437 4.44259753,14.0252346 C4.44259753,14.6957136 4.77603951,15.2871012 5.28653827,15.6457086 C4.30328889,16.0843062 3.6139358,17.0711506 3.6139358,18.215279 L3.6139358,23.6132642 L2.11928889,23.6132642 L2.11928889,2.00604444 L23.1746667,2.00604444 L23.1746667,23.6132642 L23.1746667,23.6132642 Z" id="Fill-2" sketch:type="MSShapeGroup"></path>
        </g>
        <g id="Family-travel-6" sketch:type="MSLayerGroup" transform="translate(3.500000, 123.000000)" fill="#206FAC">
            <path d="M3.10613333,4.50910617 L3.10613333,8.12573827 C3.10613333,8.15719506 3.1097284,8.18865185 3.11512099,8.22010864 C3.11601975,8.22729877 3.11781728,8.23628642 3.11871605,8.24437531 C3.12500741,8.2731358 3.13219753,8.30099753 3.14208395,8.32706173 C3.14298272,8.32885926 3.14388148,8.33065679 3.14478025,8.33245432 C3.1537679,8.36211358 3.16814815,8.38907654 3.18162963,8.41514074 C3.18612346,8.42233086 3.19061728,8.42862222 3.19511111,8.43581235 C3.20859259,8.45918025 3.22207407,8.47985185 3.23915062,8.50142222 C3.24274568,8.50411852 3.24454321,8.50771358 3.24723951,8.51130864 C3.26611358,8.53467654 3.28858272,8.55534815 3.31015309,8.57601975 C3.31644444,8.58141235 3.3227358,8.58680494 3.32902716,8.59219753 C3.33711605,8.59938765 3.3461037,8.60657778 3.35419259,8.61197037 C3.36497778,8.62005926 3.37666173,8.62545185 3.38744691,8.63264198 C3.39373827,8.63803457 3.4009284,8.64162963 3.40811852,8.64702222 C3.43148642,8.6605037 3.45934815,8.67308642 3.48720988,8.68566914 C3.4944,8.68746667 3.50069136,8.69016296 3.50788148,8.69196049 C3.53124938,8.70094815 3.55731358,8.70813827 3.58427654,8.71353086 C3.58877037,8.7153284 3.59236543,8.71712593 3.59596049,8.71712593 L6.3102321,9.23840988 C6.48639012,9.2716642 6.66794074,9.22582716 6.80814815,9.10988642 C6.94655802,8.99574321 7.02654815,8.82587654 7.02654815,8.64702222 L7.02654815,8.19224691 C7.16136296,8.18865185 7.29887407,8.18505679 7.43818272,8.18505679 C9.08651852,8.18505679 10.7878815,8.45738272 12.4326222,8.72072099 C14.1258963,8.99035062 15.8748938,9.2716642 17.6211951,9.2716642 C19.0502321,9.2716642 20.3300741,9.08382222 21.5317235,8.69915062 C21.782479,8.61826173 21.9514469,8.38907654 21.9514469,8.12573827 L21.9514469,7.80038519 C21.9730173,7.7374716 21.9873975,7.67276049 21.9873975,7.60355556 L21.9873975,4.48663704 C21.9873975,4.19813333 21.782479,3.94917531 21.4966716,3.89435062 L18.7832988,3.37306667 C18.7455506,3.36677531 18.7078025,3.36318025 18.6700543,3.36318025 C18.5316444,3.36318025 18.3941333,3.40991605 18.2853827,3.50159012 C18.1469728,3.61573333 18.066084,3.7856 18.066084,3.96715062 L18.066084,4.44259753 C17.920484,4.44619259 17.7712889,4.44978765 17.6211951,4.44978765 C15.9710617,4.44978765 14.2688,4.17746173 12.6231605,3.91412346 C10.9325827,3.64359506 9.18178765,3.36318025 7.43818272,3.36318025 L7.43638519,3.36318025 C6.00734815,3.36318025 4.72840494,3.55102222 3.52585679,3.93479506 C3.276,4.01568395 3.10613333,4.24756543 3.10613333,4.50910617 L3.10613333,4.50910617 Z M17.6211951,8.06552099 C15.9710617,8.06552099 14.2696988,7.79319506 12.6231605,7.52985679 C10.9325827,7.26022716 9.18178765,6.97891358 7.43818272,6.97891358 C7.29977284,6.97891358 7.16136296,6.98250864 7.02654815,6.9861037 C6.82162963,6.9914963 6.6221037,7.00048395 6.42437531,7.01396543 C6.22035556,7.02834568 6.01993086,7.04362469 5.82040494,7.06699259 C5.30001975,7.12451358 4.79940741,7.21259259 4.31227654,7.33033086 L4.31227654,4.95848889 C5.10498765,4.74278519 5.9435358,4.61965432 6.85039012,4.58280494 C7.04182716,4.57381728 7.23775802,4.56842469 7.43638519,4.56842469 L7.43818272,4.56842469 C9.08651852,4.56842469 10.7878815,4.84075062 12.4326222,5.10408889 C14.1249975,5.37461728 15.8748938,5.65593086 17.6211951,5.65593086 C17.7712889,5.65593086 17.920484,5.6523358 18.066084,5.64874074 C18.2710025,5.64155062 18.4714272,5.63076543 18.6700543,5.61908148 C18.8731753,5.60470123 19.0753975,5.58672593 19.2731259,5.56425679 C19.7800296,5.50493827 20.268958,5.41865679 20.7453037,5.30451358 L20.7453037,7.67635556 C19.9696691,7.88666667 19.1508938,8.00979753 18.2674074,8.04934321 C18.0544,8.05833086 17.8404938,8.06552099 17.6211951,8.06552099 L17.6211951,8.06552099 Z" id="Fill-1" sketch:type="MSShapeGroup"></path>
            <path d="M24.3790123,-0.404444444 L0.913145679,-0.404444444 C0.248059259,-0.404444444 -0.292997531,0.134814815 -0.292997531,0.801698765 L-0.292997531,24.8194074 C-0.292997531,25.4844938 0.248059259,26.0246519 0.913145679,26.0246519 L24.3790123,26.0246519 C25.0458963,26.0246519 25.5851556,25.4844938 25.5851556,24.8194074 L25.5851556,0.801698765 C25.5851556,0.134814815 25.0458963,-0.404444444 24.3790123,-0.404444444 L24.3790123,-0.404444444 Z M9.23301728,18.215279 L9.23301728,17.8063407 C9.23301728,16.7691654 10.0760593,15.9261235 11.1132346,15.9261235 C12.1486123,15.9261235 12.9925531,16.7691654 12.9925531,17.8063407 L12.9925531,23.6132642 L9.23301728,23.6132642 L9.23301728,18.215279 L9.23301728,18.215279 Z M8.02777284,23.6132642 L4.82007901,23.6132642 L4.82007901,18.215279 C4.82007901,17.3308938 5.53999012,16.6109827 6.42437531,16.6109827 C7.30696296,16.6109827 8.02777284,17.3308938 8.02777284,18.215279 L8.02777284,23.6132642 L8.02777284,23.6132642 Z M16.9848691,18.9495704 L16.9848691,23.6132642 L14.2103802,23.6132642 L14.2103802,18.5388346 C14.2103802,17.7730864 14.8323259,17.1493432 15.5971753,17.1493432 C16.3629235,17.1493432 16.9848691,17.7730864 16.9848691,18.5388346 L16.9848691,18.9495704 L16.9848691,18.9495704 Z M18.1901136,18.9495704 C18.1901136,18.3366123 18.6862321,17.8377975 19.3000889,17.8377975 C19.9121481,17.8377975 20.4100642,18.3366123 20.4100642,18.9495704 L20.4100642,23.6132642 L18.1901136,23.6132642 L18.1901136,18.9495704 L18.1901136,18.9495704 Z M23.1746667,23.6132642 L21.6144099,23.6132642 L21.6144099,18.9495704 C21.6144099,18.0310321 21.0769481,17.2374222 20.299516,16.8635358 C20.629363,16.5813235 20.8387753,16.1633975 20.8387753,15.697837 C20.8387753,14.8485037 20.1476247,14.1582519 19.3000889,14.1582519 C18.4516543,14.1582519 17.7605037,14.8485037 17.7605037,15.697837 C17.7605037,16.1633975 17.9708148,16.5813235 18.2988642,16.8635358 C18.1200099,16.9498173 17.9537383,17.0567704 17.8045432,17.1834963 C17.5349136,16.7475951 17.1439506,16.3988741 16.6747951,16.1822716 C17.1044049,15.8560198 17.3848198,15.3401284 17.3848198,14.7604247 C17.3848198,13.774479 16.583121,12.973679 15.5971753,12.973679 C14.6112296,12.973679 13.8104296,13.774479 13.8104296,14.7604247 C13.8104296,15.3401284 14.0890469,15.8560198 14.5195556,16.1822716 C14.3065481,16.2811358 14.1088198,16.4042667 13.9308642,16.5543605 C13.6136,15.8425383 13.0347951,15.2736198 12.318479,14.966242 C12.9323358,14.5689877 13.3403753,13.8796346 13.3403753,13.0950123 C13.3403753,11.8646025 12.3418469,10.8633778 11.1132346,10.8633778 C9.88372346,10.8633778 8.88249877,11.8646025 8.88249877,13.0950123 C8.88249877,13.8796346 9.29053827,14.5689877 9.90619259,14.966242 C9.28874074,15.2295802 8.77554568,15.6879506 8.44300247,16.2631605 C8.19224691,16.0052148 7.89475556,15.7949037 7.56131358,15.6457086 C8.07091358,15.2871012 8.40615309,14.6957136 8.40615309,14.0252346 C8.40615309,12.931437 7.51637531,12.0434568 6.42437531,12.0434568 C5.33057778,12.0434568 4.44259753,12.931437 4.44259753,14.0252346 C4.44259753,14.6957136 4.77603951,15.2871012 5.28653827,15.6457086 C4.30328889,16.0843062 3.6139358,17.0711506 3.6139358,18.215279 L3.6139358,23.6132642 L2.11928889,23.6132642 L2.11928889,2.00604444 L23.1746667,2.00604444 L23.1746667,23.6132642 L23.1746667,23.6132642 Z" id="Fill-2" sketch:type="MSShapeGroup"></path>
        </g>
    </g>
</svg>