<svg width="32" height="232" viewBox="0 0 32 232" xmlns="http://www.w3.org/2000/svg" xmlns:sketch="http://www.bohemiancoding.com/sketch/ns"><title>family-travel</title><g sketch:type="MSPage" fill="none"><g sketch:type="MSLayerGroup" fill="#3B444F"><path d="M6.606 7.509v3.617l.009.094.004.024.023.083.003.005.037.083.013.021.044.066.008.01.063.065.019.016.025.02.033.021.021.014.079.039.021.006.076.022.012.004 2.714.521c.176.033.358-.013.498-.129.138-.114.218-.284.218-.463v-.455l.412-.007c1.648 0 3.35.272 4.994.536 1.693.27 3.442.551 5.189.551 1.429 0 2.709-.188 3.911-.573.251-.081.42-.31.42-.573v-.325l.036-.197v-3.117c0-.289-.205-.537-.491-.592l-2.713-.521-.113-.01c-.138 0-.276.047-.385.138-.138.114-.219.284-.219.466v.475l-.445.007c-1.65 0-3.352-.272-4.998-.536-1.691-.271-3.441-.551-5.185-.551h-.002c-1.429 0-2.708.188-3.911.572-.25.081-.42.313-.42.574zm14.515 3.556c-1.65 0-3.351-.272-4.998-.536-1.691-.27-3.441-.551-5.185-.551l-.412.007-.602.028-.604.053c-.52.058-1.021.146-1.508.263v-2.372c.793-.216 1.631-.339 2.538-.376l.586-.014h.002c1.648 0 3.35.272 4.994.536 1.692.271 3.442.552 5.189.552l.445-.007.604-.03.603-.055c.507-.059.996-.146 1.472-.26v2.372c-.776.21-1.594.333-2.478.373l-.646.016z" id="Fill-1" sketch:type="MSShapeGroup"/><path d="M27.879 2.596h-23.466c-.665 0-1.206.539-1.206 1.206v24.018c0 .665.541 1.205 1.206 1.205h23.466c.667 0 1.206-.54 1.206-1.205v-24.018c0-.667-.539-1.206-1.206-1.206zm-15.146 18.62v-.409c0-1.037.843-1.88 1.88-1.88 1.035 0 1.879.843 1.879 1.88v5.807h-3.76v-5.398zm-1.205 5.398h-3.208v-5.398c0-.884.72-1.604 1.604-1.604.883 0 1.603.72 1.603 1.604v5.398zm8.957-4.664v4.664h-2.774v-5.074c0-.766.622-1.389 1.387-1.389.766 0 1.388.624 1.388 1.389v.411zm1.205 0c0-.613.496-1.112 1.11-1.112.612 0 1.11.499 1.11 1.112v4.664h-2.22v-4.664zm4.985 4.664h-1.56v-4.664c0-.919-.537-1.712-1.315-2.086.33-.282.539-.7.539-1.166 0-.849-.691-1.54-1.539-1.54s-1.54.69-1.54 1.54c0 .466.21.883.538 1.166-.179.086-.345.193-.494.32-.27-.436-.661-.785-1.13-1.001.43-.326.71-.842.71-1.422 0-.986-.802-1.787-1.788-1.787s-1.787.801-1.787 1.787c0 .58.279 1.096.709 1.422-.213.099-.411.222-.589.372-.317-.712-.896-1.281-1.612-1.588.614-.397 1.022-1.087 1.022-1.871 0-1.23-.999-2.232-2.227-2.232-1.23 0-2.231 1.001-2.231 2.232 0 .785.408 1.474 1.024 1.871-.617.263-1.131.722-1.463 1.297-.251-.258-.548-.468-.882-.617.51-.359.845-.95.845-1.62 0-1.094-.89-1.982-1.982-1.982-1.094 0-1.982.888-1.982 1.982 0 .67.333 1.262.844 1.62-.983.439-1.673 1.425-1.673 2.57v5.398h-1.495v-21.607h21.055v21.607z" id="Fill-2" sketch:type="MSShapeGroup"/></g><g sketch:type="MSLayerGroup" fill="#67747C"><path d="M6.606 47.509v3.617l.009.094.004.024.023.083.003.005.037.083.013.021.044.066.008.01.063.065.019.016.025.02.033.021.021.014.079.039.021.006.076.022.012.004 2.714.521c.176.033.358-.013.498-.129.138-.114.218-.284.218-.463v-.455l.412-.007c1.648 0 3.35.272 4.994.536 1.693.27 3.442.551 5.189.551 1.429 0 2.709-.188 3.911-.573.251-.081.42-.31.42-.573v-.325l.036-.197v-3.117c0-.289-.205-.537-.491-.592l-2.713-.521-.113-.01c-.138 0-.276.047-.385.138-.138.114-.219.284-.219.466v.475l-.445.007c-1.65 0-3.352-.272-4.998-.536-1.691-.271-3.441-.551-5.185-.551h-.002c-1.429 0-2.708.188-3.911.572-.25.081-.42.313-.42.574zm14.515 3.556c-1.65 0-3.351-.272-4.998-.536-1.691-.27-3.441-.551-5.185-.551l-.412.007-.602.028-.604.053c-.52.058-1.021.146-1.508.263v-2.372c.793-.216 1.631-.339 2.538-.376l.586-.014h.002c1.648 0 3.35.272 4.994.536 1.692.271 3.442.552 5.189.552l.445-.007.604-.03.603-.055c.507-.059.996-.146 1.472-.26v2.372c-.776.21-1.594.333-2.478.373l-.646.016z" id="Fill-1" sketch:type="MSShapeGroup"/><path d="M27.879 42.596h-23.466c-.665 0-1.206.539-1.206 1.206v24.018c0 .665.541 1.205 1.206 1.205h23.466c.667 0 1.206-.54 1.206-1.205v-24.018c0-.667-.539-1.206-1.206-1.206zm-15.146 18.62v-.409c0-1.037.843-1.88 1.88-1.88 1.035 0 1.879.843 1.879 1.88v5.807h-3.76v-5.398zm-1.205 5.398h-3.208v-5.398c0-.884.72-1.604 1.604-1.604.883 0 1.603.72 1.603 1.604v5.398zm8.957-4.664v4.664h-2.774v-5.074c0-.766.622-1.389 1.387-1.389.766 0 1.388.624 1.388 1.389v.411zm1.205 0c0-.613.496-1.112 1.11-1.112.612 0 1.11.499 1.11 1.112v4.664h-2.22v-4.664zm4.985 4.664h-1.56v-4.664c0-.919-.537-1.712-1.315-2.086.33-.282.539-.7.539-1.166 0-.849-.691-1.54-1.539-1.54s-1.54.69-1.54 1.54c0 .466.21.883.538 1.166-.179.086-.345.193-.494.32-.27-.436-.661-.785-1.13-1.001.43-.326.71-.842.71-1.422 0-.986-.802-1.787-1.788-1.787s-1.787.801-1.787 1.787c0 .58.279 1.096.709 1.422-.213.099-.411.222-.589.372-.317-.712-.896-1.281-1.612-1.588.614-.397 1.022-1.087 1.022-1.871 0-1.23-.999-2.232-2.227-2.232-1.23 0-2.231 1.001-2.231 2.232 0 .785.408 1.474 1.024 1.871-.617.263-1.131.722-1.463 1.297-.251-.258-.548-.468-.882-.617.51-.359.845-.95.845-1.62 0-1.094-.89-1.982-1.982-1.982-1.094 0-1.982.888-1.982 1.982 0 .67.333 1.262.844 1.62-.983.439-1.673 1.425-1.673 2.57v5.398h-1.495v-21.607h21.055v21.607z" id="Fill-2" sketch:type="MSShapeGroup"/></g><g sketch:type="MSLayerGroup" fill="#206FAC"><path d="M6.606 127.509v3.617l.009.094.004.024.023.083.003.005.037.083.013.021.044.066.008.01.063.065.019.016.025.02.033.021.021.014.079.039.021.006.076.022.012.004 2.714.521c.176.033.358-.013.498-.129.138-.114.218-.284.218-.463v-.455l.412-.007c1.648 0 3.35.272 4.994.536 1.693.27 3.442.551 5.189.551 1.429 0 2.709-.188 3.911-.573.251-.081.42-.31.42-.573v-.325l.036-.197v-3.117c0-.289-.205-.537-.491-.592l-2.713-.521-.113-.01c-.138 0-.276.047-.385.138-.138.114-.219.284-.219.466v.475l-.445.007c-1.65 0-3.352-.272-4.998-.536-1.691-.271-3.441-.551-5.185-.551h-.002c-1.429 0-2.708.188-3.911.572-.25.081-.42.313-.42.574zm14.515 3.556c-1.65 0-3.351-.272-4.998-.536-1.691-.27-3.441-.551-5.185-.551l-.412.007-.602.028-.604.053c-.52.058-1.021.146-1.508.263v-2.372c.793-.216 1.631-.339 2.538-.376l.586-.014h.002c1.648 0 3.35.272 4.994.536 1.692.271 3.442.552 5.189.552l.445-.007.604-.03.603-.055c.507-.059.996-.146 1.472-.26v2.372c-.776.21-1.594.333-2.478.373l-.646.016z" sketch:type="MSShapeGroup"/><path d="M27.879 122.596h-23.466c-.665 0-1.206.539-1.206 1.206v24.018c0 .665.541 1.205 1.206 1.205h23.466c.667 0 1.206-.54 1.206-1.205v-24.018c0-.667-.539-1.206-1.206-1.206zm-15.146 18.62v-.409c0-1.037.843-1.88 1.88-1.88 1.035 0 1.879.843 1.879 1.88v5.807h-3.76v-5.398zm-1.205 5.398h-3.208v-5.398c0-.884.72-1.604 1.604-1.604.883 0 1.603.72 1.603 1.604v5.398zm8.957-4.664v4.664h-2.774v-5.074c0-.766.622-1.389 1.387-1.389.766 0 1.388.624 1.388 1.389v.411zm1.205 0c0-.613.496-1.112 1.11-1.112.612 0 1.11.499 1.11 1.112v4.664h-2.22v-4.664zm4.985 4.664h-1.56v-4.664c0-.919-.537-1.712-1.315-2.086.33-.282.539-.7.539-1.166 0-.849-.691-1.54-1.539-1.54s-1.54.69-1.54 1.54c0 .466.21.883.538 1.166-.179.086-.345.193-.494.32-.27-.436-.661-.785-1.13-1.001.43-.326.71-.842.71-1.422 0-.986-.802-1.787-1.788-1.787s-1.787.801-1.787 1.787c0 .58.279 1.096.709 1.422-.213.099-.411.222-.589.372-.317-.712-.896-1.281-1.612-1.588.614-.397 1.022-1.087 1.022-1.871 0-1.23-.999-2.232-2.227-2.232-1.23 0-2.231 1.001-2.231 2.232 0 .785.408 1.474 1.024 1.871-.617.263-1.131.722-1.463 1.297-.251-.258-.548-.468-.882-.617.51-.359.845-.95.845-1.62 0-1.094-.89-1.982-1.982-1.982-1.094 0-1.982.888-1.982 1.982 0 .67.333 1.262.844 1.62-.983.439-1.673 1.425-1.673 2.57v5.398h-1.495v-21.607h21.055v21.607z" sketch:type="MSShapeGroup"/></g></g></svg>