<svg width="32" height="232" viewBox="0 0 32 232" xmlns="http://www.w3.org/2000/svg" xmlns:sketch="http://www.bohemiancoding.com/sketch/ns"><title>Family-travel</title><g sketch:type="MSPage" fill="none"><g sketch:type="MSLayerGroup"><g fill="#206FAC" sketch:type="MSShapeGroup"><path d="M8.419 132.512v2.817l.007.073.003.019.018.064.002.004.029.064.01.016.034.051.006.008.049.05.015.013.02.015.026.016.016.011.062.03.016.005.059.017.009.003 2.114.406c.137.026.279-.01.388-.1.108-.089.17-.221.17-.361v-.354l.321-.006c1.284 0 2.609.212 3.89.417 1.319.21 2.681.429 4.041.429 1.113 0 2.11-.146 3.046-.446.195-.063.327-.241.327-.447v-.253l.028-.153v-2.428c0-.225-.16-.419-.382-.461l-2.113-.406-.088-.008c-.108 0-.215.036-.3.108-.108.089-.171.221-.171.363v.37l-.347.006c-1.285 0-2.611-.212-3.893-.417-1.317-.211-2.68-.429-4.038-.429h-.001c-1.113 0-2.109.146-3.046.445-.195.063-.327.244-.327.447zm11.305 2.77c-1.285 0-2.61-.212-3.893-.417-1.317-.21-2.68-.429-4.038-.429l-.321.006-.469.022-.47.041c-.405.045-.795.113-1.175.205v-1.847c.617-.168 1.271-.264 1.977-.293l.456-.011h.001c1.284 0 2.609.212 3.89.417 1.318.211 2.681.43 4.041.43l.347-.006.47-.023.47-.043c.395-.046.776-.113 1.147-.202v1.847c-.604.164-1.242.26-1.93.29l-.503.013z" id="Fill-1"/><path d="M24.988 128.685h-18.276c-.518 0-.939.42-.939.939v18.706c0 .518.421.939.939.939h18.276c.519 0 .939-.421.939-.939v-18.706c0-.519-.42-.939-.939-.939zm-11.796 14.502v-.319c0-.808.657-1.464 1.464-1.464.806 0 1.464.657 1.464 1.464v4.523h-2.928v-4.204zm-.939 4.204h-2.498v-4.204c0-.689.561-1.249 1.249-1.249.687 0 1.249.561 1.249 1.249v4.204zm6.976-3.632v3.632h-2.161v-3.952c0-.596.484-1.082 1.08-1.082.596 0 1.081.486 1.081 1.082v.32zm.939 0c0-.477.386-.866.865-.866.477 0 .864.389.864.866v3.632h-1.729v-3.632zm3.882 3.632h-1.215v-3.632c0-.715-.419-1.334-1.024-1.625.257-.22.42-.545.42-.908 0-.662-.538-1.199-1.198-1.199-.661 0-1.199.538-1.199 1.199 0 .363.164.688.419.908-.139.067-.269.15-.385.249-.21-.34-.515-.611-.88-.78.335-.254.553-.656.553-1.107 0-.768-.624-1.392-1.392-1.392-.768 0-1.392.624-1.392 1.392 0 .451.217.853.552 1.107-.166.077-.32.173-.459.29-.247-.554-.698-.998-1.256-1.237.478-.309.796-.846.796-1.457 0-.958-.778-1.738-1.735-1.738-.958 0-1.737.78-1.737 1.738 0 .611.318 1.148.797 1.457-.481.205-.881.562-1.14 1.01-.195-.201-.427-.365-.687-.481.397-.279.658-.74.658-1.262 0-.852-.693-1.543-1.544-1.543-.852 0-1.543.692-1.543 1.543 0 .522.26.983.657 1.262-.766.342-1.303 1.11-1.303 2.001v4.204h-1.164v-16.829h16.399v16.829z" id="Fill-2"/></g><g fill="#67737B" sketch:type="MSShapeGroup"><path d="M8.419 93.512v2.817l.007.073.003.019.018.064.002.004.029.064.01.016.034.051.006.008.049.05.015.013.02.015.026.016.016.011.062.03.016.005.059.017.009.003 2.114.406c.137.026.279-.01.388-.1.108-.089.17-.221.17-.361v-.354l.321-.006c1.284 0 2.609.212 3.89.417 1.319.21 2.681.429 4.041.429 1.113 0 2.11-.146 3.046-.446.195-.063.327-.241.327-.447v-.253l.028-.153v-2.428c0-.225-.16-.419-.382-.461l-2.113-.406-.088-.008c-.108 0-.215.036-.3.108-.108.089-.171.221-.171.363v.37l-.347.006c-1.285 0-2.611-.212-3.893-.417-1.317-.211-2.68-.429-4.038-.429h-.001c-1.113 0-2.109.146-3.046.445-.195.063-.327.244-.327.447zm11.305 2.77c-1.285 0-2.61-.212-3.893-.417-1.317-.21-2.68-.429-4.038-.429l-.321.006-.469.022-.47.041c-.405.045-.795.113-1.175.205v-1.847c.617-.168 1.271-.264 1.977-.293l.456-.011h.001c1.284 0 2.609.212 3.89.417 1.318.211 2.681.43 4.041.43l.347-.006.47-.023.47-.043c.395-.046.776-.113 1.147-.202v1.847c-.604.164-1.242.26-1.93.29l-.503.013z" id="Fill-1"/><path d="M24.988 89.685h-18.276c-.518 0-.939.42-.939.939v18.706c0 .518.421.939.939.939h18.276c.519 0 .939-.421.939-.939v-18.706c0-.519-.42-.939-.939-.939zm-11.796 14.502v-.319c0-.808.657-1.464 1.464-1.464.806 0 1.464.657 1.464 1.464v4.523h-2.928v-4.204zm-.939 4.204h-2.498v-4.204c0-.689.561-1.249 1.249-1.249.687 0 1.249.561 1.249 1.249v4.204zm6.976-3.632v3.632h-2.161v-3.952c0-.596.484-1.082 1.08-1.082.596 0 1.081.486 1.081 1.082v.32zm.939 0c0-.477.386-.866.865-.866.477 0 .864.389.864.866v3.632h-1.729v-3.632zm3.882 3.632h-1.215v-3.632c0-.715-.419-1.334-1.024-1.625.257-.22.42-.545.42-.908 0-.662-.538-1.199-1.198-1.199-.661 0-1.199.538-1.199 1.199 0 .363.164.688.419.908-.139.067-.269.15-.385.249-.21-.34-.515-.611-.88-.78.335-.254.553-.656.553-1.107 0-.768-.624-1.392-1.392-1.392-.768 0-1.392.624-1.392 1.392 0 .451.217.853.552 1.107-.166.077-.32.173-.459.29-.247-.554-.698-.998-1.256-1.237.478-.309.796-.846.796-1.457 0-.958-.778-1.738-1.735-1.738-.958 0-1.737.78-1.737 1.738 0 .611.318 1.148.797 1.457-.481.205-.881.562-1.14 1.01-.195-.201-.427-.365-.687-.481.397-.279.658-.74.658-1.262 0-.852-.693-1.543-1.544-1.543-.852 0-1.543.692-1.543 1.543 0 .522.26.983.657 1.262-.766.342-1.303 1.11-1.303 2.001v4.204h-1.164v-16.829h16.399v16.829z" id="Fill-2"/></g><g fill="#373D43" sketch:type="MSShapeGroup"><path d="M8.419 53.512v2.817l.007.073.003.019.018.064.002.004.029.064.01.016.034.051.006.008.049.05.015.013.02.015.026.016.016.011.062.03.016.005.059.017.009.003 2.114.406c.137.026.279-.01.388-.1.108-.089.17-.221.17-.361v-.354l.321-.006c1.284 0 2.609.212 3.89.417 1.319.21 2.681.429 4.041.429 1.113 0 2.11-.146 3.046-.446.195-.063.327-.241.327-.447v-.253l.028-.153v-2.428c0-.225-.16-.419-.382-.461l-2.113-.406-.088-.008c-.108 0-.215.036-.3.108-.108.089-.171.221-.171.363v.37l-.347.006c-1.285 0-2.611-.212-3.893-.417-1.317-.211-2.68-.429-4.038-.429h-.001c-1.113 0-2.109.146-3.046.445-.195.063-.327.244-.327.447zm11.305 2.77c-1.285 0-2.61-.212-3.893-.417-1.317-.21-2.68-.429-4.038-.429l-.321.006-.469.022-.47.041c-.405.045-.795.113-1.175.205v-1.847c.617-.168 1.271-.264 1.977-.293l.456-.011h.001c1.284 0 2.609.212 3.89.417 1.318.211 2.681.43 4.041.43l.347-.006.47-.023.47-.043c.395-.046.776-.113 1.147-.202v1.847c-.604.164-1.242.26-1.93.29l-.503.013z" id="Fill-1"/><path d="M24.988 49.685h-18.276c-.518 0-.939.42-.939.939v18.706c0 .518.421.939.939.939h18.276c.519 0 .939-.421.939-.939v-18.706c0-.519-.42-.939-.939-.939zm-11.796 14.502v-.319c0-.808.657-1.464 1.464-1.464.806 0 1.464.657 1.464 1.464v4.523h-2.928v-4.204zm-.939 4.204h-2.498v-4.204c0-.689.561-1.249 1.249-1.249.687 0 1.249.561 1.249 1.249v4.204zm6.976-3.632v3.632h-2.161v-3.952c0-.596.484-1.082 1.08-1.082.596 0 1.081.486 1.081 1.082v.32zm.939 0c0-.477.386-.866.865-.866.477 0 .864.389.864.866v3.632h-1.729v-3.632zm3.882 3.632h-1.215v-3.632c0-.715-.419-1.334-1.024-1.625.257-.22.42-.545.42-.908 0-.662-.538-1.199-1.198-1.199-.661 0-1.199.538-1.199 1.199 0 .363.164.688.419.908-.139.067-.269.15-.385.249-.21-.34-.515-.611-.88-.78.335-.254.553-.656.553-1.107 0-.768-.624-1.392-1.392-1.392-.768 0-1.392.624-1.392 1.392 0 .451.217.853.552 1.107-.166.077-.32.173-.459.29-.247-.554-.698-.998-1.256-1.237.478-.309.796-.846.796-1.457 0-.958-.778-1.738-1.735-1.738-.958 0-1.737.78-1.737 1.738 0 .611.318 1.148.797 1.457-.481.205-.881.562-1.14 1.01-.195-.201-.427-.365-.687-.481.397-.279.658-.74.658-1.262 0-.852-.693-1.543-1.544-1.543-.852 0-1.543.692-1.543 1.543 0 .522.26.983.657 1.262-.766.342-1.303 1.11-1.303 2.001v4.204h-1.164v-16.829h16.399v16.829z" id="Fill-2"/></g><g fill="#fff" sketch:type="MSShapeGroup"><path d="M8.419 9.512v2.817l.007.073.003.019.018.064.002.004.029.064.01.016.034.051.006.008.049.05.015.013.02.015.026.016.016.011.062.03.016.005.059.017.009.003 2.114.406c.137.026.279-.01.388-.1.108-.089.17-.221.17-.361v-.354l.321-.006c1.284 0 2.609.212 3.89.417 1.319.21 2.681.429 4.041.429 1.113 0 2.11-.146 3.046-.446.195-.063.327-.241.327-.447v-.253l.028-.153v-2.428c0-.225-.16-.419-.382-.461l-2.113-.406-.088-.008c-.108 0-.215.036-.3.108-.108.089-.171.221-.171.363v.37l-.347.006c-1.285 0-2.611-.212-3.893-.417-1.317-.211-2.68-.429-4.038-.429h-.001c-1.113 0-2.109.146-3.046.445-.195.063-.327.244-.327.447zm11.305 2.77c-1.285 0-2.61-.212-3.893-.417-1.317-.21-2.68-.429-4.038-.429l-.321.006-.469.022-.47.041c-.405.045-.795.113-1.175.205v-1.847c.617-.168 1.271-.264 1.977-.293l.456-.011h.001c1.284 0 2.609.212 3.89.417 1.318.211 2.681.43 4.041.43l.347-.006.47-.023.47-.043c.395-.046.776-.113 1.147-.202v1.847c-.604.164-1.242.26-1.93.29l-.503.013z"/><path d="M24.988 5.685h-18.276c-.518 0-.939.42-.939.939v18.706c0 .518.421.939.939.939h18.276c.519 0 .939-.421.939-.939v-18.706c0-.519-.42-.939-.939-.939zm-11.796 14.502v-.319c0-.808.657-1.464 1.464-1.464.806 0 1.464.657 1.464 1.464v4.523h-2.928v-4.204zm-.939 4.204h-2.498v-4.204c0-.689.561-1.249 1.249-1.249.687 0 1.249.561 1.249 1.249v4.204zm6.976-3.632v3.632h-2.161v-3.952c0-.596.484-1.082 1.08-1.082.596 0 1.081.486 1.081 1.082v.32zm.939 0c0-.477.386-.866.865-.866.477 0 .864.389.864.866v3.632h-1.729v-3.632zm3.882 3.632h-1.215v-3.632c0-.715-.419-1.334-1.024-1.625.257-.22.42-.545.42-.908 0-.662-.538-1.199-1.198-1.199-.661 0-1.199.538-1.199 1.199 0 .363.164.688.419.908-.139.067-.269.15-.385.249-.21-.34-.515-.611-.88-.78.335-.254.553-.656.553-1.107 0-.768-.624-1.392-1.392-1.392-.768 0-1.392.624-1.392 1.392 0 .451.217.853.552 1.107-.166.077-.32.173-.459.29-.247-.554-.698-.998-1.256-1.237.478-.309.796-.846.796-1.457 0-.958-.778-1.738-1.735-1.738-.958 0-1.737.78-1.737 1.738 0 .611.318 1.148.797 1.457-.481.205-.881.562-1.14 1.01-.195-.201-.427-.365-.687-.481.397-.279.658-.74.658-1.262 0-.852-.693-1.543-1.544-1.543-.852 0-1.543.692-1.543 1.543 0 .522.26.983.657 1.262-.766.342-1.303 1.11-1.303 2.001v4.204h-1.164v-16.829h16.399v16.829z"/></g></g></g></svg>