<?xml version="1.0" encoding="UTF-8" standalone="no"?>
<svg width="32px" height="232px" viewBox="0 0 32 232" version="1.1" xmlns="http://www.w3.org/2000/svg" xmlns:xlink="http://www.w3.org/1999/xlink" xmlns:sketch="http://www.bohemiancoding.com/sketch/ns">
    <!-- Generator: Sketch 3.0 (7574) - http://www.bohemiancoding.com/sketch -->
    <title>Festive-travel</title>
    <description>Created with Sketch.</description>
    <defs></defs>
    <g id="Gold-destinations" stroke="none" stroke-width="1" fill="none" fill-rule="evenodd" sketch:type="MSPage">
        <g id="Slices" sketch:type="MSLayerGroup" transform="translate(-160.000000, 0.000000)"></g>
        <g id="Interests-Icons" sketch:type="MSLayerGroup" transform="translate(-154.000000, -1.000000)">
            <g id="Festive-travel" transform="translate(158.000000, 126.000000)" fill="#206FAC" sketch:type="MSShapeGroup">
                <path d="M18.4738286,3.00977419 C17.6715429,2.7333871 16.8980571,2.59925806 16.1081143,2.59925806 C14.2676571,2.59925806 12.7707429,3.33358065 11.3218286,4.04283871 C10.0066286,4.68841935 8.76342857,5.29741935 7.35565714,5.29741935 C6.90377143,5.29741935 6.45737143,5.23645161 5.99794286,5.11180645 L5.89234286,4.82525806 C5.71748571,4.35377419 5.1888,4.11193548 4.71291429,4.284 C4.23497143,4.45606452 3.99017143,4.977 4.16365714,5.44780645 L9.44502857,19.74 C9.58217143,20.1078387 9.93394286,20.3368065 10.3090286,20.3368065 C10.4132571,20.3368065 10.5209143,20.319871 10.6244571,20.2812581 C11.1017143,20.1091935 11.3478857,19.5882581 11.1730286,19.1167742 L8.30605714,11.3569355 C10.3357714,10.9362581 11.8258286,9.36058065 13.272,7.8296129 C14.7586286,6.25664516 16.1629714,4.7703871 17.9636571,4.7703871 C18.0178286,4.7703871 18.0726857,4.77174194 18.1268571,4.77445161 C18.5849143,4.79612903 18.9881143,4.48383871 19.0745143,4.04012903 C19.1602286,3.59709677 18.9058286,3.15812903 18.4738286,3.00977419 L18.4738286,3.00977419 Z M11.928,6.58993548 C10.56,8.03622581 9.26468571,9.40935484 7.66422857,9.6213871 L6.72685714,7.08580645 C6.93531429,7.10612903 7.14377143,7.11425806 7.35565714,7.11425806 C9.19474286,7.11425806 10.6923429,6.3806129 12.1392,5.67203226 C12.5773714,5.45593548 13.0073143,5.24593548 13.4379429,5.06032258 C12.9161143,5.54332258 12.4196571,6.06967742 11.928,6.58993548 L11.928,6.58993548 Z" id="Fill-1"></path>
                <path d="M3.03565714,16.8792581 L3.03565714,16.8792581 C2.78194286,16.8792581 2.57485714,17.0818065 2.57485714,17.333129 L2.57417143,18.1920968 C2.57417143,18.4434194 2.78194286,18.6473226 3.03497143,18.6473226 C3.28937143,18.6473226 3.49508571,18.4434194 3.49508571,18.1920968 L3.49508571,17.333129 C3.49508571,17.0818065 3.28937143,16.8792581 3.03565714,16.8792581" id="Fill-2"></path>
                <path d="M3.03497143,14.7812903 C3.28937143,14.7812903 3.49508571,14.5773871 3.49508571,14.3274194 L3.49508571,13.4670968 C3.49508571,13.2157742 3.28937143,13.0132258 3.03497143,13.0132258 C2.78194286,13.0132258 2.57417143,13.2157742 2.57417143,13.4670968 L2.57417143,14.3274194 C2.57417143,14.5773871 2.78194286,14.7812903 3.03497143,14.7812903" id="Fill-3"></path>
                <path d="M1.51337143,16.2844839 C1.76777143,16.2844839 1.9728,16.0805806 1.9728,15.8306129 C1.9728,15.5792903 1.76777143,15.3753871 1.51337143,15.3767419 L0.643885714,15.3767419 C0.389485714,15.3767419 0.183771429,15.5792903 0.183771429,15.8306129 C0.183771429,16.0819355 0.390171429,16.2844839 0.643885714,16.2844839 L1.51337143,16.2844839" id="Fill-4"></path>
                <path d="M4.55794286,16.2844839 L5.42674286,16.2844839 C5.68114286,16.2844839 5.88617143,16.0805806 5.88617143,15.8306129 C5.88617143,15.5792903 5.68114286,15.3767419 5.42674286,15.3767419 L4.55794286,15.3767419 C4.30217143,15.3767419 4.09714286,15.5792903 4.09714286,15.8306129 C4.09714286,16.0805806 4.30217143,16.2844839 4.55794286,16.2844839" id="Fill-5"></path>
                <path d="M1.57508571,16.6292903 L0.0747428571,18.1114839 C-0.104914286,18.2889677 -0.104914286,18.576871 0.0747428571,18.7543548 C0.165257143,18.8430968 0.282514286,18.8864516 0.399771429,18.8864516 C0.517714286,18.8864516 0.635657143,18.8430968 0.726171429,18.7543548 L2.22651429,17.2714839 C2.40548571,17.094 2.40548571,16.8067742 2.22651429,16.6292903 C2.04617143,16.4524839 1.75405714,16.4524839 1.57508571,16.6292903" id="Fill-6"></path>
                <path d="M5.34445714,12.9061935 L3.84411429,14.3883871 C3.66445714,14.565871 3.66445714,14.8537742 3.84411429,15.0312581 C3.93394286,15.12 4.0512,15.1633548 4.16914286,15.1633548 C4.28708571,15.1633548 4.40502857,15.12 4.49417143,15.0312581 L5.9952,13.5497419 C6.17485714,13.3709032 6.17485714,13.0836774 5.9952,12.9061935 C5.81485714,12.7293871 5.52411429,12.7293871 5.34445714,12.9061935" id="Fill-7"></path>
                <path d="M0.726171429,12.9061935 C0.545828571,12.7293871 0.255085714,12.7293871 0.0747428571,12.9061935 C-0.104914286,13.0836774 -0.104914286,13.3709032 0.0747428571,13.5497419 L1.57508571,15.0312581 C1.66491429,15.12 1.78217143,15.1633548 1.9008,15.1633548 C2.01805714,15.1633548 2.136,15.12 2.22651429,15.0312581 C2.40548571,14.8537742 2.40548571,14.565871 2.22651429,14.3883871 L0.726171429,12.9061935" id="Fill-8"></path>
                <path d="M4.49417143,16.6292903 C4.3152,16.4524839 4.02308571,16.4524839 3.84411429,16.6292903 C3.66445714,16.8067742 3.66445714,17.094 3.84411429,17.2714839 L5.34445714,18.7543548 C5.43497143,18.8430968 5.55222857,18.8864516 5.67017143,18.8864516 C5.78742857,18.8864516 5.90468571,18.8430968 5.9952,18.7543548 C6.17485714,18.576871 6.17485714,18.2889677 5.9952,18.1114839 L4.49417143,16.6292903" id="Fill-9"></path>
                <path d="M20.0818286,12.3852581 C19.9014857,12.2077742 19.6121143,12.2077742 19.4317714,12.3852581 C19.2521143,12.5620645 19.2521143,12.8506452 19.4317714,13.028129 L20.5954286,14.1790645 C20.6859429,14.2664516 20.8038857,14.3118387 20.9211429,14.3118387 C21.0397714,14.3118387 21.1563429,14.2664516 21.2461714,14.1790645 C21.4258286,14.0002258 21.4258286,13.7136774 21.2461714,13.5361935 L20.0818286,12.3852581" id="Fill-10"></path>
                <path d="M16.4098286,8.75835484 C16.2301714,8.58019355 15.9394286,8.58019355 15.7590857,8.75835484 C15.5794286,8.93448387 15.5794286,9.22306452 15.7590857,9.40054839 L16.9248,10.550129 C17.0146286,10.6395484 17.1312,10.6835806 17.2484571,10.6835806 C17.3670857,10.6835806 17.4843429,10.6395484 17.5741714,10.550129 C17.7538286,10.3726452 17.7538286,10.0854194 17.5741714,9.9086129 L16.4098286,8.75835484" id="Fill-11"></path>
                <path d="M16.9248,12.3852581 L15.7590857,13.5361935 C15.5794286,13.7136774 15.5794286,14.0002258 15.7590857,14.1790645 C15.8489143,14.2664516 15.9668571,14.3118387 16.0848,14.3118387 C16.2027429,14.3118387 16.3206857,14.2664516 16.4098286,14.1790645 L17.5741714,13.028129 C17.7538286,12.8506452 17.7538286,12.5620645 17.5741714,12.3852581 C17.3952,12.2077742 17.1030857,12.2077742 16.9248,12.3852581" id="Fill-12"></path>
                <path d="M19.7568,10.6835806 C19.8740571,10.6835806 19.992,10.6395484 20.0818286,10.550129 L21.2461714,9.40054839 C21.4258286,9.22306452 21.4258286,8.93448387 21.2461714,8.75835484 C21.0678857,8.58019355 20.7757714,8.58019355 20.5954286,8.75835484 L19.4317714,9.9086129 C19.2514286,10.0854194 19.2514286,10.3726452 19.4317714,10.550129 C19.5216,10.6395484 19.6395429,10.6835806 19.7568,10.6835806" id="Fill-13"></path>
                <path d="M18.5026286,12.860129 C18.2489143,12.860129 18.0418286,13.0640323 18.0418286,13.3153548 L18.0418286,15.7574516 C18.0418286,16.0074194 18.2489143,16.2113226 18.5026286,16.2113226 C18.7563429,16.2113226 18.9627429,16.0074194 18.9627429,15.7560968 L18.9627429,13.314 C18.9627429,13.0640323 18.7563429,12.860129 18.5026286,12.860129" id="Fill-14"></path>
                <path d="M18.5026286,6.72474194 C18.2489143,6.72474194 18.0418286,6.92864516 18.0418286,7.17996774 L18.0418286,9.62274194 C18.0418286,9.87270968 18.2489143,10.0766129 18.5026286,10.0766129 C18.7563429,10.0766129 18.9627429,9.87270968 18.9627429,9.62274194 L18.9627429,7.17996774 C18.9627429,6.92864516 18.7563429,6.72474194 18.5026286,6.72474194" id="Fill-15"></path>
                <path d="M16.6333714,11.9219032 L16.6333714,11.9219032 C16.8884571,11.9219032 17.0934857,11.7193548 17.0934857,11.4680323 C17.0934857,11.2167097 16.8884571,11.0141613 16.6333714,11.0141613 L14.1613714,11.0141613 C13.9076571,11.0141613 13.7012571,11.2167097 13.7012571,11.4680323 C13.7012571,11.7193548 13.9076571,11.9219032 14.1613714,11.9219032 L16.6333714,11.9219032" id="Fill-16"></path>
                <path d="M22.8445714,11.0141613 L20.3718857,11.0141613 C20.1174857,11.0141613 19.9117714,11.2167097 19.9117714,11.4680323 C19.9117714,11.7193548 20.1174857,11.9219032 20.3718857,11.9219032 L22.8445714,11.9219032 C23.0982857,11.9219032 23.3033143,11.7193548 23.3033143,11.4680323 C23.3033143,11.2167097 23.0982857,11.0141613 22.8445714,11.0141613" id="Fill-17"></path>
                <path d="M14.1078857,13.9751613 L13.6752,13.7414516 L13.4386286,13.3153548 C13.3584,13.1697097 13.2041143,13.0782581 13.0354286,13.0782581 C12.8674286,13.0782581 12.7124571,13.1697097 12.6322286,13.3153548 L12.3956571,13.7414516 L11.9643429,13.9751613 C11.8162286,14.0550968 11.7257143,14.2081935 11.7257143,14.3734839 C11.7257143,14.540129 11.8162286,14.6925484 11.9643429,14.7718065 L12.3956571,15.0061935 L12.6322286,15.4322903 C12.7124571,15.5779355 12.8674286,15.6687097 13.0354286,15.6687097 C13.2041143,15.6687097 13.3584,15.5779355 13.4386286,15.4322903 L13.6752,15.0061935 L14.1078857,14.7718065 C14.2553143,14.6925484 14.3472,14.540129 14.3472,14.3734839 C14.3472,14.2081935 14.2553143,14.0550968 14.1078857,13.9751613" id="Fill-18"></path>
                <path d="M3.9216,11.0114516 L4.18285714,10.8712258 C4.33028571,10.7919677 4.42148571,10.638871 4.42148571,10.4729032 C4.42148571,10.3062581 4.33028571,10.1531613 4.18285714,10.0739032 L3.9216,9.93232258 L3.77828571,9.67422581 C3.69737143,9.52858065 3.5424,9.43712903 3.3744,9.43712903 C3.2064,9.43712903 3.05211429,9.52858065 2.97051429,9.67422581 L2.82788571,9.93232258 L2.56662857,10.0739032 C2.41851429,10.1531613 2.32731429,10.3062581 2.32731429,10.4729032 C2.32731429,10.638871 2.41851429,10.7919677 2.56662857,10.8712258 L2.82788571,11.0114516 L2.97051429,11.2709032 C3.05211429,11.4165484 3.2064,11.5066452 3.3744,11.5066452 C3.5424,11.5066452 3.69737143,11.4165484 3.77828571,11.2709032 L3.9216,11.0114516" id="Fill-19"></path>
                <path d="M6.99702857,2.20635484 L7.54971429,2.50577419 L7.85211429,3.05177419 C7.93302857,3.19741935 8.08868571,3.28887097 8.256,3.28887097 C8.42468571,3.28887097 8.57897143,3.19741935 8.6592,3.05177419 L8.9616,2.50577419 L9.51497143,2.20635484 C9.66308571,2.12709677 9.75497143,1.97535484 9.75497143,1.80803226 C9.75497143,1.64274194 9.66308571,1.48964516 9.51497143,1.40970968 L8.9616,1.11096774 L8.6592,0.564290323 C8.57897143,0.419322581 8.42468571,0.327870968 8.256,0.327870968 C8.08868571,0.327870968 7.93302857,0.419322581 7.85211429,0.564290323 L7.54971429,1.11096774 L6.99702857,1.40970968 C6.8496,1.48964516 6.7584,1.64274194 6.7584,1.80803226 C6.7584,1.97535484 6.8496,2.12709677 6.99702857,2.20635484 L6.99702857,2.20635484 Z M8.256,1.7186129 C8.28205714,1.75248387 8.31154286,1.78296774 8.34651429,1.80803226 C8.31154286,1.83309677 8.28205714,1.86425806 8.256,1.89677419 C8.23062857,1.86425806 8.19977143,1.83309677 8.16617143,1.80803226 C8.19977143,1.78296774 8.23062857,1.75248387 8.256,1.7186129 L8.256,1.7186129 Z" id="Fill-20"></path>
            </g>
            <g id="Festive-travel-2" transform="translate(158.000000, 47.000000)" fill="#67737B" sketch:type="MSShapeGroup">
                <path d="M18.4738286,3.00977419 C17.6715429,2.7333871 16.8980571,2.59925806 16.1081143,2.59925806 C14.2676571,2.59925806 12.7707429,3.33358065 11.3218286,4.04283871 C10.0066286,4.68841935 8.76342857,5.29741935 7.35565714,5.29741935 C6.90377143,5.29741935 6.45737143,5.23645161 5.99794286,5.11180645 L5.89234286,4.82525806 C5.71748571,4.35377419 5.1888,4.11193548 4.71291429,4.284 C4.23497143,4.45606452 3.99017143,4.977 4.16365714,5.44780645 L9.44502857,19.74 C9.58217143,20.1078387 9.93394286,20.3368065 10.3090286,20.3368065 C10.4132571,20.3368065 10.5209143,20.319871 10.6244571,20.2812581 C11.1017143,20.1091935 11.3478857,19.5882581 11.1730286,19.1167742 L8.30605714,11.3569355 C10.3357714,10.9362581 11.8258286,9.36058065 13.272,7.8296129 C14.7586286,6.25664516 16.1629714,4.7703871 17.9636571,4.7703871 C18.0178286,4.7703871 18.0726857,4.77174194 18.1268571,4.77445161 C18.5849143,4.79612903 18.9881143,4.48383871 19.0745143,4.04012903 C19.1602286,3.59709677 18.9058286,3.15812903 18.4738286,3.00977419 L18.4738286,3.00977419 Z M11.928,6.58993548 C10.56,8.03622581 9.26468571,9.40935484 7.66422857,9.6213871 L6.72685714,7.08580645 C6.93531429,7.10612903 7.14377143,7.11425806 7.35565714,7.11425806 C9.19474286,7.11425806 10.6923429,6.3806129 12.1392,5.67203226 C12.5773714,5.45593548 13.0073143,5.24593548 13.4379429,5.06032258 C12.9161143,5.54332258 12.4196571,6.06967742 11.928,6.58993548 L11.928,6.58993548 Z" id="Fill-1"></path>
                <path d="M3.03565714,16.8792581 L3.03565714,16.8792581 C2.78194286,16.8792581 2.57485714,17.0818065 2.57485714,17.333129 L2.57417143,18.1920968 C2.57417143,18.4434194 2.78194286,18.6473226 3.03497143,18.6473226 C3.28937143,18.6473226 3.49508571,18.4434194 3.49508571,18.1920968 L3.49508571,17.333129 C3.49508571,17.0818065 3.28937143,16.8792581 3.03565714,16.8792581" id="Fill-2"></path>
                <path d="M3.03497143,14.7812903 C3.28937143,14.7812903 3.49508571,14.5773871 3.49508571,14.3274194 L3.49508571,13.4670968 C3.49508571,13.2157742 3.28937143,13.0132258 3.03497143,13.0132258 C2.78194286,13.0132258 2.57417143,13.2157742 2.57417143,13.4670968 L2.57417143,14.3274194 C2.57417143,14.5773871 2.78194286,14.7812903 3.03497143,14.7812903" id="Fill-3"></path>
                <path d="M1.51337143,16.2844839 C1.76777143,16.2844839 1.9728,16.0805806 1.9728,15.8306129 C1.9728,15.5792903 1.76777143,15.3753871 1.51337143,15.3767419 L0.643885714,15.3767419 C0.389485714,15.3767419 0.183771429,15.5792903 0.183771429,15.8306129 C0.183771429,16.0819355 0.390171429,16.2844839 0.643885714,16.2844839 L1.51337143,16.2844839" id="Fill-4"></path>
                <path d="M4.55794286,16.2844839 L5.42674286,16.2844839 C5.68114286,16.2844839 5.88617143,16.0805806 5.88617143,15.8306129 C5.88617143,15.5792903 5.68114286,15.3767419 5.42674286,15.3767419 L4.55794286,15.3767419 C4.30217143,15.3767419 4.09714286,15.5792903 4.09714286,15.8306129 C4.09714286,16.0805806 4.30217143,16.2844839 4.55794286,16.2844839" id="Fill-5"></path>
                <path d="M1.57508571,16.6292903 L0.0747428571,18.1114839 C-0.104914286,18.2889677 -0.104914286,18.576871 0.0747428571,18.7543548 C0.165257143,18.8430968 0.282514286,18.8864516 0.399771429,18.8864516 C0.517714286,18.8864516 0.635657143,18.8430968 0.726171429,18.7543548 L2.22651429,17.2714839 C2.40548571,17.094 2.40548571,16.8067742 2.22651429,16.6292903 C2.04617143,16.4524839 1.75405714,16.4524839 1.57508571,16.6292903" id="Fill-6"></path>
                <path d="M5.34445714,12.9061935 L3.84411429,14.3883871 C3.66445714,14.565871 3.66445714,14.8537742 3.84411429,15.0312581 C3.93394286,15.12 4.0512,15.1633548 4.16914286,15.1633548 C4.28708571,15.1633548 4.40502857,15.12 4.49417143,15.0312581 L5.9952,13.5497419 C6.17485714,13.3709032 6.17485714,13.0836774 5.9952,12.9061935 C5.81485714,12.7293871 5.52411429,12.7293871 5.34445714,12.9061935" id="Fill-7"></path>
                <path d="M0.726171429,12.9061935 C0.545828571,12.7293871 0.255085714,12.7293871 0.0747428571,12.9061935 C-0.104914286,13.0836774 -0.104914286,13.3709032 0.0747428571,13.5497419 L1.57508571,15.0312581 C1.66491429,15.12 1.78217143,15.1633548 1.9008,15.1633548 C2.01805714,15.1633548 2.136,15.12 2.22651429,15.0312581 C2.40548571,14.8537742 2.40548571,14.565871 2.22651429,14.3883871 L0.726171429,12.9061935" id="Fill-8"></path>
                <path d="M4.49417143,16.6292903 C4.3152,16.4524839 4.02308571,16.4524839 3.84411429,16.6292903 C3.66445714,16.8067742 3.66445714,17.094 3.84411429,17.2714839 L5.34445714,18.7543548 C5.43497143,18.8430968 5.55222857,18.8864516 5.67017143,18.8864516 C5.78742857,18.8864516 5.90468571,18.8430968 5.9952,18.7543548 C6.17485714,18.576871 6.17485714,18.2889677 5.9952,18.1114839 L4.49417143,16.6292903" id="Fill-9"></path>
                <path d="M20.0818286,12.3852581 C19.9014857,12.2077742 19.6121143,12.2077742 19.4317714,12.3852581 C19.2521143,12.5620645 19.2521143,12.8506452 19.4317714,13.028129 L20.5954286,14.1790645 C20.6859429,14.2664516 20.8038857,14.3118387 20.9211429,14.3118387 C21.0397714,14.3118387 21.1563429,14.2664516 21.2461714,14.1790645 C21.4258286,14.0002258 21.4258286,13.7136774 21.2461714,13.5361935 L20.0818286,12.3852581" id="Fill-10"></path>
                <path d="M16.4098286,8.75835484 C16.2301714,8.58019355 15.9394286,8.58019355 15.7590857,8.75835484 C15.5794286,8.93448387 15.5794286,9.22306452 15.7590857,9.40054839 L16.9248,10.550129 C17.0146286,10.6395484 17.1312,10.6835806 17.2484571,10.6835806 C17.3670857,10.6835806 17.4843429,10.6395484 17.5741714,10.550129 C17.7538286,10.3726452 17.7538286,10.0854194 17.5741714,9.9086129 L16.4098286,8.75835484" id="Fill-11"></path>
                <path d="M16.9248,12.3852581 L15.7590857,13.5361935 C15.5794286,13.7136774 15.5794286,14.0002258 15.7590857,14.1790645 C15.8489143,14.2664516 15.9668571,14.3118387 16.0848,14.3118387 C16.2027429,14.3118387 16.3206857,14.2664516 16.4098286,14.1790645 L17.5741714,13.028129 C17.7538286,12.8506452 17.7538286,12.5620645 17.5741714,12.3852581 C17.3952,12.2077742 17.1030857,12.2077742 16.9248,12.3852581" id="Fill-12"></path>
                <path d="M19.7568,10.6835806 C19.8740571,10.6835806 19.992,10.6395484 20.0818286,10.550129 L21.2461714,9.40054839 C21.4258286,9.22306452 21.4258286,8.93448387 21.2461714,8.75835484 C21.0678857,8.58019355 20.7757714,8.58019355 20.5954286,8.75835484 L19.4317714,9.9086129 C19.2514286,10.0854194 19.2514286,10.3726452 19.4317714,10.550129 C19.5216,10.6395484 19.6395429,10.6835806 19.7568,10.6835806" id="Fill-13"></path>
                <path d="M18.5026286,12.860129 C18.2489143,12.860129 18.0418286,13.0640323 18.0418286,13.3153548 L18.0418286,15.7574516 C18.0418286,16.0074194 18.2489143,16.2113226 18.5026286,16.2113226 C18.7563429,16.2113226 18.9627429,16.0074194 18.9627429,15.7560968 L18.9627429,13.314 C18.9627429,13.0640323 18.7563429,12.860129 18.5026286,12.860129" id="Fill-14"></path>
                <path d="M18.5026286,6.72474194 C18.2489143,6.72474194 18.0418286,6.92864516 18.0418286,7.17996774 L18.0418286,9.62274194 C18.0418286,9.87270968 18.2489143,10.0766129 18.5026286,10.0766129 C18.7563429,10.0766129 18.9627429,9.87270968 18.9627429,9.62274194 L18.9627429,7.17996774 C18.9627429,6.92864516 18.7563429,6.72474194 18.5026286,6.72474194" id="Fill-15"></path>
                <path d="M16.6333714,11.9219032 L16.6333714,11.9219032 C16.8884571,11.9219032 17.0934857,11.7193548 17.0934857,11.4680323 C17.0934857,11.2167097 16.8884571,11.0141613 16.6333714,11.0141613 L14.1613714,11.0141613 C13.9076571,11.0141613 13.7012571,11.2167097 13.7012571,11.4680323 C13.7012571,11.7193548 13.9076571,11.9219032 14.1613714,11.9219032 L16.6333714,11.9219032" id="Fill-16"></path>
                <path d="M22.8445714,11.0141613 L20.3718857,11.0141613 C20.1174857,11.0141613 19.9117714,11.2167097 19.9117714,11.4680323 C19.9117714,11.7193548 20.1174857,11.9219032 20.3718857,11.9219032 L22.8445714,11.9219032 C23.0982857,11.9219032 23.3033143,11.7193548 23.3033143,11.4680323 C23.3033143,11.2167097 23.0982857,11.0141613 22.8445714,11.0141613" id="Fill-17"></path>
                <path d="M14.1078857,13.9751613 L13.6752,13.7414516 L13.4386286,13.3153548 C13.3584,13.1697097 13.2041143,13.0782581 13.0354286,13.0782581 C12.8674286,13.0782581 12.7124571,13.1697097 12.6322286,13.3153548 L12.3956571,13.7414516 L11.9643429,13.9751613 C11.8162286,14.0550968 11.7257143,14.2081935 11.7257143,14.3734839 C11.7257143,14.540129 11.8162286,14.6925484 11.9643429,14.7718065 L12.3956571,15.0061935 L12.6322286,15.4322903 C12.7124571,15.5779355 12.8674286,15.6687097 13.0354286,15.6687097 C13.2041143,15.6687097 13.3584,15.5779355 13.4386286,15.4322903 L13.6752,15.0061935 L14.1078857,14.7718065 C14.2553143,14.6925484 14.3472,14.540129 14.3472,14.3734839 C14.3472,14.2081935 14.2553143,14.0550968 14.1078857,13.9751613" id="Fill-18"></path>
                <path d="M3.9216,11.0114516 L4.18285714,10.8712258 C4.33028571,10.7919677 4.42148571,10.638871 4.42148571,10.4729032 C4.42148571,10.3062581 4.33028571,10.1531613 4.18285714,10.0739032 L3.9216,9.93232258 L3.77828571,9.67422581 C3.69737143,9.52858065 3.5424,9.43712903 3.3744,9.43712903 C3.2064,9.43712903 3.05211429,9.52858065 2.97051429,9.67422581 L2.82788571,9.93232258 L2.56662857,10.0739032 C2.41851429,10.1531613 2.32731429,10.3062581 2.32731429,10.4729032 C2.32731429,10.638871 2.41851429,10.7919677 2.56662857,10.8712258 L2.82788571,11.0114516 L2.97051429,11.2709032 C3.05211429,11.4165484 3.2064,11.5066452 3.3744,11.5066452 C3.5424,11.5066452 3.69737143,11.4165484 3.77828571,11.2709032 L3.9216,11.0114516" id="Fill-19"></path>
                <path d="M6.99702857,2.20635484 L7.54971429,2.50577419 L7.85211429,3.05177419 C7.93302857,3.19741935 8.08868571,3.28887097 8.256,3.28887097 C8.42468571,3.28887097 8.57897143,3.19741935 8.6592,3.05177419 L8.9616,2.50577419 L9.51497143,2.20635484 C9.66308571,2.12709677 9.75497143,1.97535484 9.75497143,1.80803226 C9.75497143,1.64274194 9.66308571,1.48964516 9.51497143,1.40970968 L8.9616,1.11096774 L8.6592,0.564290323 C8.57897143,0.419322581 8.42468571,0.327870968 8.256,0.327870968 C8.08868571,0.327870968 7.93302857,0.419322581 7.85211429,0.564290323 L7.54971429,1.11096774 L6.99702857,1.40970968 C6.8496,1.48964516 6.7584,1.64274194 6.7584,1.80803226 C6.7584,1.97535484 6.8496,2.12709677 6.99702857,2.20635484 L6.99702857,2.20635484 Z M8.256,1.7186129 C8.28205714,1.75248387 8.31154286,1.78296774 8.34651429,1.80803226 C8.31154286,1.83309677 8.28205714,1.86425806 8.256,1.89677419 C8.23062857,1.86425806 8.19977143,1.83309677 8.16617143,1.80803226 C8.19977143,1.78296774 8.23062857,1.75248387 8.256,1.7186129 L8.256,1.7186129 Z" id="Fill-20"></path>
            </g>
            <g id="Festive-travel-3" transform="translate(158.000000, 7.000000)" fill="#373D43" sketch:type="MSShapeGroup">
                <path d="M18.4738286,3.00977419 C17.6715429,2.7333871 16.8980571,2.59925806 16.1081143,2.59925806 C14.2676571,2.59925806 12.7707429,3.33358065 11.3218286,4.04283871 C10.0066286,4.68841935 8.76342857,5.29741935 7.35565714,5.29741935 C6.90377143,5.29741935 6.45737143,5.23645161 5.99794286,5.11180645 L5.89234286,4.82525806 C5.71748571,4.35377419 5.1888,4.11193548 4.71291429,4.284 C4.23497143,4.45606452 3.99017143,4.977 4.16365714,5.44780645 L9.44502857,19.74 C9.58217143,20.1078387 9.93394286,20.3368065 10.3090286,20.3368065 C10.4132571,20.3368065 10.5209143,20.319871 10.6244571,20.2812581 C11.1017143,20.1091935 11.3478857,19.5882581 11.1730286,19.1167742 L8.30605714,11.3569355 C10.3357714,10.9362581 11.8258286,9.36058065 13.272,7.8296129 C14.7586286,6.25664516 16.1629714,4.7703871 17.9636571,4.7703871 C18.0178286,4.7703871 18.0726857,4.77174194 18.1268571,4.77445161 C18.5849143,4.79612903 18.9881143,4.48383871 19.0745143,4.04012903 C19.1602286,3.59709677 18.9058286,3.15812903 18.4738286,3.00977419 L18.4738286,3.00977419 Z M11.928,6.58993548 C10.56,8.03622581 9.26468571,9.40935484 7.66422857,9.6213871 L6.72685714,7.08580645 C6.93531429,7.10612903 7.14377143,7.11425806 7.35565714,7.11425806 C9.19474286,7.11425806 10.6923429,6.3806129 12.1392,5.67203226 C12.5773714,5.45593548 13.0073143,5.24593548 13.4379429,5.06032258 C12.9161143,5.54332258 12.4196571,6.06967742 11.928,6.58993548 L11.928,6.58993548 Z" id="Fill-1"></path>
                <path d="M3.03565714,16.8792581 L3.03565714,16.8792581 C2.78194286,16.8792581 2.57485714,17.0818065 2.57485714,17.333129 L2.57417143,18.1920968 C2.57417143,18.4434194 2.78194286,18.6473226 3.03497143,18.6473226 C3.28937143,18.6473226 3.49508571,18.4434194 3.49508571,18.1920968 L3.49508571,17.333129 C3.49508571,17.0818065 3.28937143,16.8792581 3.03565714,16.8792581" id="Fill-2"></path>
                <path d="M3.03497143,14.7812903 C3.28937143,14.7812903 3.49508571,14.5773871 3.49508571,14.3274194 L3.49508571,13.4670968 C3.49508571,13.2157742 3.28937143,13.0132258 3.03497143,13.0132258 C2.78194286,13.0132258 2.57417143,13.2157742 2.57417143,13.4670968 L2.57417143,14.3274194 C2.57417143,14.5773871 2.78194286,14.7812903 3.03497143,14.7812903" id="Fill-3"></path>
                <path d="M1.51337143,16.2844839 C1.76777143,16.2844839 1.9728,16.0805806 1.9728,15.8306129 C1.9728,15.5792903 1.76777143,15.3753871 1.51337143,15.3767419 L0.643885714,15.3767419 C0.389485714,15.3767419 0.183771429,15.5792903 0.183771429,15.8306129 C0.183771429,16.0819355 0.390171429,16.2844839 0.643885714,16.2844839 L1.51337143,16.2844839" id="Fill-4"></path>
                <path d="M4.55794286,16.2844839 L5.42674286,16.2844839 C5.68114286,16.2844839 5.88617143,16.0805806 5.88617143,15.8306129 C5.88617143,15.5792903 5.68114286,15.3767419 5.42674286,15.3767419 L4.55794286,15.3767419 C4.30217143,15.3767419 4.09714286,15.5792903 4.09714286,15.8306129 C4.09714286,16.0805806 4.30217143,16.2844839 4.55794286,16.2844839" id="Fill-5"></path>
                <path d="M1.57508571,16.6292903 L0.0747428571,18.1114839 C-0.104914286,18.2889677 -0.104914286,18.576871 0.0747428571,18.7543548 C0.165257143,18.8430968 0.282514286,18.8864516 0.399771429,18.8864516 C0.517714286,18.8864516 0.635657143,18.8430968 0.726171429,18.7543548 L2.22651429,17.2714839 C2.40548571,17.094 2.40548571,16.8067742 2.22651429,16.6292903 C2.04617143,16.4524839 1.75405714,16.4524839 1.57508571,16.6292903" id="Fill-6"></path>
                <path d="M5.34445714,12.9061935 L3.84411429,14.3883871 C3.66445714,14.565871 3.66445714,14.8537742 3.84411429,15.0312581 C3.93394286,15.12 4.0512,15.1633548 4.16914286,15.1633548 C4.28708571,15.1633548 4.40502857,15.12 4.49417143,15.0312581 L5.9952,13.5497419 C6.17485714,13.3709032 6.17485714,13.0836774 5.9952,12.9061935 C5.81485714,12.7293871 5.52411429,12.7293871 5.34445714,12.9061935" id="Fill-7"></path>
                <path d="M0.726171429,12.9061935 C0.545828571,12.7293871 0.255085714,12.7293871 0.0747428571,12.9061935 C-0.104914286,13.0836774 -0.104914286,13.3709032 0.0747428571,13.5497419 L1.57508571,15.0312581 C1.66491429,15.12 1.78217143,15.1633548 1.9008,15.1633548 C2.01805714,15.1633548 2.136,15.12 2.22651429,15.0312581 C2.40548571,14.8537742 2.40548571,14.565871 2.22651429,14.3883871 L0.726171429,12.9061935" id="Fill-8"></path>
                <path d="M4.49417143,16.6292903 C4.3152,16.4524839 4.02308571,16.4524839 3.84411429,16.6292903 C3.66445714,16.8067742 3.66445714,17.094 3.84411429,17.2714839 L5.34445714,18.7543548 C5.43497143,18.8430968 5.55222857,18.8864516 5.67017143,18.8864516 C5.78742857,18.8864516 5.90468571,18.8430968 5.9952,18.7543548 C6.17485714,18.576871 6.17485714,18.2889677 5.9952,18.1114839 L4.49417143,16.6292903" id="Fill-9"></path>
                <path d="M20.0818286,12.3852581 C19.9014857,12.2077742 19.6121143,12.2077742 19.4317714,12.3852581 C19.2521143,12.5620645 19.2521143,12.8506452 19.4317714,13.028129 L20.5954286,14.1790645 C20.6859429,14.2664516 20.8038857,14.3118387 20.9211429,14.3118387 C21.0397714,14.3118387 21.1563429,14.2664516 21.2461714,14.1790645 C21.4258286,14.0002258 21.4258286,13.7136774 21.2461714,13.5361935 L20.0818286,12.3852581" id="Fill-10"></path>
                <path d="M16.4098286,8.75835484 C16.2301714,8.58019355 15.9394286,8.58019355 15.7590857,8.75835484 C15.5794286,8.93448387 15.5794286,9.22306452 15.7590857,9.40054839 L16.9248,10.550129 C17.0146286,10.6395484 17.1312,10.6835806 17.2484571,10.6835806 C17.3670857,10.6835806 17.4843429,10.6395484 17.5741714,10.550129 C17.7538286,10.3726452 17.7538286,10.0854194 17.5741714,9.9086129 L16.4098286,8.75835484" id="Fill-11"></path>
                <path d="M16.9248,12.3852581 L15.7590857,13.5361935 C15.5794286,13.7136774 15.5794286,14.0002258 15.7590857,14.1790645 C15.8489143,14.2664516 15.9668571,14.3118387 16.0848,14.3118387 C16.2027429,14.3118387 16.3206857,14.2664516 16.4098286,14.1790645 L17.5741714,13.028129 C17.7538286,12.8506452 17.7538286,12.5620645 17.5741714,12.3852581 C17.3952,12.2077742 17.1030857,12.2077742 16.9248,12.3852581" id="Fill-12"></path>
                <path d="M19.7568,10.6835806 C19.8740571,10.6835806 19.992,10.6395484 20.0818286,10.550129 L21.2461714,9.40054839 C21.4258286,9.22306452 21.4258286,8.93448387 21.2461714,8.75835484 C21.0678857,8.58019355 20.7757714,8.58019355 20.5954286,8.75835484 L19.4317714,9.9086129 C19.2514286,10.0854194 19.2514286,10.3726452 19.4317714,10.550129 C19.5216,10.6395484 19.6395429,10.6835806 19.7568,10.6835806" id="Fill-13"></path>
                <path d="M18.5026286,12.860129 C18.2489143,12.860129 18.0418286,13.0640323 18.0418286,13.3153548 L18.0418286,15.7574516 C18.0418286,16.0074194 18.2489143,16.2113226 18.5026286,16.2113226 C18.7563429,16.2113226 18.9627429,16.0074194 18.9627429,15.7560968 L18.9627429,13.314 C18.9627429,13.0640323 18.7563429,12.860129 18.5026286,12.860129" id="Fill-14"></path>
                <path d="M18.5026286,6.72474194 C18.2489143,6.72474194 18.0418286,6.92864516 18.0418286,7.17996774 L18.0418286,9.62274194 C18.0418286,9.87270968 18.2489143,10.0766129 18.5026286,10.0766129 C18.7563429,10.0766129 18.9627429,9.87270968 18.9627429,9.62274194 L18.9627429,7.17996774 C18.9627429,6.92864516 18.7563429,6.72474194 18.5026286,6.72474194" id="Fill-15"></path>
                <path d="M16.6333714,11.9219032 L16.6333714,11.9219032 C16.8884571,11.9219032 17.0934857,11.7193548 17.0934857,11.4680323 C17.0934857,11.2167097 16.8884571,11.0141613 16.6333714,11.0141613 L14.1613714,11.0141613 C13.9076571,11.0141613 13.7012571,11.2167097 13.7012571,11.4680323 C13.7012571,11.7193548 13.9076571,11.9219032 14.1613714,11.9219032 L16.6333714,11.9219032" id="Fill-16"></path>
                <path d="M22.8445714,11.0141613 L20.3718857,11.0141613 C20.1174857,11.0141613 19.9117714,11.2167097 19.9117714,11.4680323 C19.9117714,11.7193548 20.1174857,11.9219032 20.3718857,11.9219032 L22.8445714,11.9219032 C23.0982857,11.9219032 23.3033143,11.7193548 23.3033143,11.4680323 C23.3033143,11.2167097 23.0982857,11.0141613 22.8445714,11.0141613" id="Fill-17"></path>
                <path d="M14.1078857,13.9751613 L13.6752,13.7414516 L13.4386286,13.3153548 C13.3584,13.1697097 13.2041143,13.0782581 13.0354286,13.0782581 C12.8674286,13.0782581 12.7124571,13.1697097 12.6322286,13.3153548 L12.3956571,13.7414516 L11.9643429,13.9751613 C11.8162286,14.0550968 11.7257143,14.2081935 11.7257143,14.3734839 C11.7257143,14.540129 11.8162286,14.6925484 11.9643429,14.7718065 L12.3956571,15.0061935 L12.6322286,15.4322903 C12.7124571,15.5779355 12.8674286,15.6687097 13.0354286,15.6687097 C13.2041143,15.6687097 13.3584,15.5779355 13.4386286,15.4322903 L13.6752,15.0061935 L14.1078857,14.7718065 C14.2553143,14.6925484 14.3472,14.540129 14.3472,14.3734839 C14.3472,14.2081935 14.2553143,14.0550968 14.1078857,13.9751613" id="Fill-18"></path>
                <path d="M3.9216,11.0114516 L4.18285714,10.8712258 C4.33028571,10.7919677 4.42148571,10.638871 4.42148571,10.4729032 C4.42148571,10.3062581 4.33028571,10.1531613 4.18285714,10.0739032 L3.9216,9.93232258 L3.77828571,9.67422581 C3.69737143,9.52858065 3.5424,9.43712903 3.3744,9.43712903 C3.2064,9.43712903 3.05211429,9.52858065 2.97051429,9.67422581 L2.82788571,9.93232258 L2.56662857,10.0739032 C2.41851429,10.1531613 2.32731429,10.3062581 2.32731429,10.4729032 C2.32731429,10.638871 2.41851429,10.7919677 2.56662857,10.8712258 L2.82788571,11.0114516 L2.97051429,11.2709032 C3.05211429,11.4165484 3.2064,11.5066452 3.3744,11.5066452 C3.5424,11.5066452 3.69737143,11.4165484 3.77828571,11.2709032 L3.9216,11.0114516" id="Fill-19"></path>
                <path d="M6.99702857,2.20635484 L7.54971429,2.50577419 L7.85211429,3.05177419 C7.93302857,3.19741935 8.08868571,3.28887097 8.256,3.28887097 C8.42468571,3.28887097 8.57897143,3.19741935 8.6592,3.05177419 L8.9616,2.50577419 L9.51497143,2.20635484 C9.66308571,2.12709677 9.75497143,1.97535484 9.75497143,1.80803226 C9.75497143,1.64274194 9.66308571,1.48964516 9.51497143,1.40970968 L8.9616,1.11096774 L8.6592,0.564290323 C8.57897143,0.419322581 8.42468571,0.327870968 8.256,0.327870968 C8.08868571,0.327870968 7.93302857,0.419322581 7.85211429,0.564290323 L7.54971429,1.11096774 L6.99702857,1.40970968 C6.8496,1.48964516 6.7584,1.64274194 6.7584,1.80803226 C6.7584,1.97535484 6.8496,2.12709677 6.99702857,2.20635484 L6.99702857,2.20635484 Z M8.256,1.7186129 C8.28205714,1.75248387 8.31154286,1.78296774 8.34651429,1.80803226 C8.31154286,1.83309677 8.28205714,1.86425806 8.256,1.89677419 C8.23062857,1.86425806 8.19977143,1.83309677 8.16617143,1.80803226 C8.19977143,1.78296774 8.23062857,1.75248387 8.256,1.7186129 L8.256,1.7186129 Z" id="Fill-20"></path>
            </g>
            <g id="Festive-travel-4" transform="translate(158.000000, 86.000000)" fill="#FFFFFF" sketch:type="MSShapeGroup">
                <path d="M18.4738286,3.00977419 C17.6715429,2.7333871 16.8980571,2.59925806 16.1081143,2.59925806 C14.2676571,2.59925806 12.7707429,3.33358065 11.3218286,4.04283871 C10.0066286,4.68841935 8.76342857,5.29741935 7.35565714,5.29741935 C6.90377143,5.29741935 6.45737143,5.23645161 5.99794286,5.11180645 L5.89234286,4.82525806 C5.71748571,4.35377419 5.1888,4.11193548 4.71291429,4.284 C4.23497143,4.45606452 3.99017143,4.977 4.16365714,5.44780645 L9.44502857,19.74 C9.58217143,20.1078387 9.93394286,20.3368065 10.3090286,20.3368065 C10.4132571,20.3368065 10.5209143,20.319871 10.6244571,20.2812581 C11.1017143,20.1091935 11.3478857,19.5882581 11.1730286,19.1167742 L8.30605714,11.3569355 C10.3357714,10.9362581 11.8258286,9.36058065 13.272,7.8296129 C14.7586286,6.25664516 16.1629714,4.7703871 17.9636571,4.7703871 C18.0178286,4.7703871 18.0726857,4.77174194 18.1268571,4.77445161 C18.5849143,4.79612903 18.9881143,4.48383871 19.0745143,4.04012903 C19.1602286,3.59709677 18.9058286,3.15812903 18.4738286,3.00977419 L18.4738286,3.00977419 Z M11.928,6.58993548 C10.56,8.03622581 9.26468571,9.40935484 7.66422857,9.6213871 L6.72685714,7.08580645 C6.93531429,7.10612903 7.14377143,7.11425806 7.35565714,7.11425806 C9.19474286,7.11425806 10.6923429,6.3806129 12.1392,5.67203226 C12.5773714,5.45593548 13.0073143,5.24593548 13.4379429,5.06032258 C12.9161143,5.54332258 12.4196571,6.06967742 11.928,6.58993548 L11.928,6.58993548 Z" id="Fill-1"></path>
                <path d="M3.03565714,16.8792581 L3.03565714,16.8792581 C2.78194286,16.8792581 2.57485714,17.0818065 2.57485714,17.333129 L2.57417143,18.1920968 C2.57417143,18.4434194 2.78194286,18.6473226 3.03497143,18.6473226 C3.28937143,18.6473226 3.49508571,18.4434194 3.49508571,18.1920968 L3.49508571,17.333129 C3.49508571,17.0818065 3.28937143,16.8792581 3.03565714,16.8792581" id="Fill-2"></path>
                <path d="M3.03497143,14.7812903 C3.28937143,14.7812903 3.49508571,14.5773871 3.49508571,14.3274194 L3.49508571,13.4670968 C3.49508571,13.2157742 3.28937143,13.0132258 3.03497143,13.0132258 C2.78194286,13.0132258 2.57417143,13.2157742 2.57417143,13.4670968 L2.57417143,14.3274194 C2.57417143,14.5773871 2.78194286,14.7812903 3.03497143,14.7812903" id="Fill-3"></path>
                <path d="M1.51337143,16.2844839 C1.76777143,16.2844839 1.9728,16.0805806 1.9728,15.8306129 C1.9728,15.5792903 1.76777143,15.3753871 1.51337143,15.3767419 L0.643885714,15.3767419 C0.389485714,15.3767419 0.183771429,15.5792903 0.183771429,15.8306129 C0.183771429,16.0819355 0.390171429,16.2844839 0.643885714,16.2844839 L1.51337143,16.2844839" id="Fill-4"></path>
                <path d="M4.55794286,16.2844839 L5.42674286,16.2844839 C5.68114286,16.2844839 5.88617143,16.0805806 5.88617143,15.8306129 C5.88617143,15.5792903 5.68114286,15.3767419 5.42674286,15.3767419 L4.55794286,15.3767419 C4.30217143,15.3767419 4.09714286,15.5792903 4.09714286,15.8306129 C4.09714286,16.0805806 4.30217143,16.2844839 4.55794286,16.2844839" id="Fill-5"></path>
                <path d="M1.57508571,16.6292903 L0.0747428571,18.1114839 C-0.104914286,18.2889677 -0.104914286,18.576871 0.0747428571,18.7543548 C0.165257143,18.8430968 0.282514286,18.8864516 0.399771429,18.8864516 C0.517714286,18.8864516 0.635657143,18.8430968 0.726171429,18.7543548 L2.22651429,17.2714839 C2.40548571,17.094 2.40548571,16.8067742 2.22651429,16.6292903 C2.04617143,16.4524839 1.75405714,16.4524839 1.57508571,16.6292903" id="Fill-6"></path>
                <path d="M5.34445714,12.9061935 L3.84411429,14.3883871 C3.66445714,14.565871 3.66445714,14.8537742 3.84411429,15.0312581 C3.93394286,15.12 4.0512,15.1633548 4.16914286,15.1633548 C4.28708571,15.1633548 4.40502857,15.12 4.49417143,15.0312581 L5.9952,13.5497419 C6.17485714,13.3709032 6.17485714,13.0836774 5.9952,12.9061935 C5.81485714,12.7293871 5.52411429,12.7293871 5.34445714,12.9061935" id="Fill-7"></path>
                <path d="M0.726171429,12.9061935 C0.545828571,12.7293871 0.255085714,12.7293871 0.0747428571,12.9061935 C-0.104914286,13.0836774 -0.104914286,13.3709032 0.0747428571,13.5497419 L1.57508571,15.0312581 C1.66491429,15.12 1.78217143,15.1633548 1.9008,15.1633548 C2.01805714,15.1633548 2.136,15.12 2.22651429,15.0312581 C2.40548571,14.8537742 2.40548571,14.565871 2.22651429,14.3883871 L0.726171429,12.9061935" id="Fill-8"></path>
                <path d="M4.49417143,16.6292903 C4.3152,16.4524839 4.02308571,16.4524839 3.84411429,16.6292903 C3.66445714,16.8067742 3.66445714,17.094 3.84411429,17.2714839 L5.34445714,18.7543548 C5.43497143,18.8430968 5.55222857,18.8864516 5.67017143,18.8864516 C5.78742857,18.8864516 5.90468571,18.8430968 5.9952,18.7543548 C6.17485714,18.576871 6.17485714,18.2889677 5.9952,18.1114839 L4.49417143,16.6292903" id="Fill-9"></path>
                <path d="M20.0818286,12.3852581 C19.9014857,12.2077742 19.6121143,12.2077742 19.4317714,12.3852581 C19.2521143,12.5620645 19.2521143,12.8506452 19.4317714,13.028129 L20.5954286,14.1790645 C20.6859429,14.2664516 20.8038857,14.3118387 20.9211429,14.3118387 C21.0397714,14.3118387 21.1563429,14.2664516 21.2461714,14.1790645 C21.4258286,14.0002258 21.4258286,13.7136774 21.2461714,13.5361935 L20.0818286,12.3852581" id="Fill-10"></path>
                <path d="M16.4098286,8.75835484 C16.2301714,8.58019355 15.9394286,8.58019355 15.7590857,8.75835484 C15.5794286,8.93448387 15.5794286,9.22306452 15.7590857,9.40054839 L16.9248,10.550129 C17.0146286,10.6395484 17.1312,10.6835806 17.2484571,10.6835806 C17.3670857,10.6835806 17.4843429,10.6395484 17.5741714,10.550129 C17.7538286,10.3726452 17.7538286,10.0854194 17.5741714,9.9086129 L16.4098286,8.75835484" id="Fill-11"></path>
                <path d="M16.9248,12.3852581 L15.7590857,13.5361935 C15.5794286,13.7136774 15.5794286,14.0002258 15.7590857,14.1790645 C15.8489143,14.2664516 15.9668571,14.3118387 16.0848,14.3118387 C16.2027429,14.3118387 16.3206857,14.2664516 16.4098286,14.1790645 L17.5741714,13.028129 C17.7538286,12.8506452 17.7538286,12.5620645 17.5741714,12.3852581 C17.3952,12.2077742 17.1030857,12.2077742 16.9248,12.3852581" id="Fill-12"></path>
                <path d="M19.7568,10.6835806 C19.8740571,10.6835806 19.992,10.6395484 20.0818286,10.550129 L21.2461714,9.40054839 C21.4258286,9.22306452 21.4258286,8.93448387 21.2461714,8.75835484 C21.0678857,8.58019355 20.7757714,8.58019355 20.5954286,8.75835484 L19.4317714,9.9086129 C19.2514286,10.0854194 19.2514286,10.3726452 19.4317714,10.550129 C19.5216,10.6395484 19.6395429,10.6835806 19.7568,10.6835806" id="Fill-13"></path>
                <path d="M18.5026286,12.860129 C18.2489143,12.860129 18.0418286,13.0640323 18.0418286,13.3153548 L18.0418286,15.7574516 C18.0418286,16.0074194 18.2489143,16.2113226 18.5026286,16.2113226 C18.7563429,16.2113226 18.9627429,16.0074194 18.9627429,15.7560968 L18.9627429,13.314 C18.9627429,13.0640323 18.7563429,12.860129 18.5026286,12.860129" id="Fill-14"></path>
                <path d="M18.5026286,6.72474194 C18.2489143,6.72474194 18.0418286,6.92864516 18.0418286,7.17996774 L18.0418286,9.62274194 C18.0418286,9.87270968 18.2489143,10.0766129 18.5026286,10.0766129 C18.7563429,10.0766129 18.9627429,9.87270968 18.9627429,9.62274194 L18.9627429,7.17996774 C18.9627429,6.92864516 18.7563429,6.72474194 18.5026286,6.72474194" id="Fill-15"></path>
                <path d="M16.6333714,11.9219032 L16.6333714,11.9219032 C16.8884571,11.9219032 17.0934857,11.7193548 17.0934857,11.4680323 C17.0934857,11.2167097 16.8884571,11.0141613 16.6333714,11.0141613 L14.1613714,11.0141613 C13.9076571,11.0141613 13.7012571,11.2167097 13.7012571,11.4680323 C13.7012571,11.7193548 13.9076571,11.9219032 14.1613714,11.9219032 L16.6333714,11.9219032" id="Fill-16"></path>
                <path d="M22.8445714,11.0141613 L20.3718857,11.0141613 C20.1174857,11.0141613 19.9117714,11.2167097 19.9117714,11.4680323 C19.9117714,11.7193548 20.1174857,11.9219032 20.3718857,11.9219032 L22.8445714,11.9219032 C23.0982857,11.9219032 23.3033143,11.7193548 23.3033143,11.4680323 C23.3033143,11.2167097 23.0982857,11.0141613 22.8445714,11.0141613" id="Fill-17"></path>
                <path d="M14.1078857,13.9751613 L13.6752,13.7414516 L13.4386286,13.3153548 C13.3584,13.1697097 13.2041143,13.0782581 13.0354286,13.0782581 C12.8674286,13.0782581 12.7124571,13.1697097 12.6322286,13.3153548 L12.3956571,13.7414516 L11.9643429,13.9751613 C11.8162286,14.0550968 11.7257143,14.2081935 11.7257143,14.3734839 C11.7257143,14.540129 11.8162286,14.6925484 11.9643429,14.7718065 L12.3956571,15.0061935 L12.6322286,15.4322903 C12.7124571,15.5779355 12.8674286,15.6687097 13.0354286,15.6687097 C13.2041143,15.6687097 13.3584,15.5779355 13.4386286,15.4322903 L13.6752,15.0061935 L14.1078857,14.7718065 C14.2553143,14.6925484 14.3472,14.540129 14.3472,14.3734839 C14.3472,14.2081935 14.2553143,14.0550968 14.1078857,13.9751613" id="Fill-18"></path>
                <path d="M3.9216,11.0114516 L4.18285714,10.8712258 C4.33028571,10.7919677 4.42148571,10.638871 4.42148571,10.4729032 C4.42148571,10.3062581 4.33028571,10.1531613 4.18285714,10.0739032 L3.9216,9.93232258 L3.77828571,9.67422581 C3.69737143,9.52858065 3.5424,9.43712903 3.3744,9.43712903 C3.2064,9.43712903 3.05211429,9.52858065 2.97051429,9.67422581 L2.82788571,9.93232258 L2.56662857,10.0739032 C2.41851429,10.1531613 2.32731429,10.3062581 2.32731429,10.4729032 C2.32731429,10.638871 2.41851429,10.7919677 2.56662857,10.8712258 L2.82788571,11.0114516 L2.97051429,11.2709032 C3.05211429,11.4165484 3.2064,11.5066452 3.3744,11.5066452 C3.5424,11.5066452 3.69737143,11.4165484 3.77828571,11.2709032 L3.9216,11.0114516" id="Fill-19"></path>
                <path d="M6.99702857,2.20635484 L7.54971429,2.50577419 L7.85211429,3.05177419 C7.93302857,3.19741935 8.08868571,3.28887097 8.256,3.28887097 C8.42468571,3.28887097 8.57897143,3.19741935 8.6592,3.05177419 L8.9616,2.50577419 L9.51497143,2.20635484 C9.66308571,2.12709677 9.75497143,1.97535484 9.75497143,1.80803226 C9.75497143,1.64274194 9.66308571,1.48964516 9.51497143,1.40970968 L8.9616,1.11096774 L8.6592,0.564290323 C8.57897143,0.419322581 8.42468571,0.327870968 8.256,0.327870968 C8.08868571,0.327870968 7.93302857,0.419322581 7.85211429,0.564290323 L7.54971429,1.11096774 L6.99702857,1.40970968 C6.8496,1.48964516 6.7584,1.64274194 6.7584,1.80803226 C6.7584,1.97535484 6.8496,2.12709677 6.99702857,2.20635484 L6.99702857,2.20635484 Z M8.256,1.7186129 C8.28205714,1.75248387 8.31154286,1.78296774 8.34651429,1.80803226 C8.31154286,1.83309677 8.28205714,1.86425806 8.256,1.89677419 C8.23062857,1.86425806 8.19977143,1.83309677 8.16617143,1.80803226 C8.19977143,1.78296774 8.23062857,1.75248387 8.256,1.7186129 L8.256,1.7186129 Z" id="Fill-20"></path>
            </g>
        </g>
    </g>
</svg>