<?xml version="1.0" encoding="UTF-8" standalone="no"?>
<svg width="32px" height="232px" viewBox="0 0 32 232" version="1.1" xmlns="http://www.w3.org/2000/svg" xmlns:xlink="http://www.w3.org/1999/xlink" xmlns:sketch="http://www.bohemiancoding.com/sketch/ns">
    <!-- Generator: Sketch 3.0.1 (7597) - http://www.bohemiancoding.com/sketch -->
    <title>festival-travel</title>
    <description>Created with Sketch.</description>
    <defs></defs>
    <g id="Points-of-interest" stroke="none" stroke-width="1" fill="none" fill-rule="evenodd" sketch:type="MSPage">
        <g id="Festive-travel-3" sketch:type="MSLayerGroup" transform="translate(2.000000, 3.000000)" fill="#3B444F">
            <path d="M22.414912,3.74593109 C21.441472,3.40194282 20.502976,3.23500733 19.544512,3.23500733 C17.311424,3.23500733 15.495168,4.14893695 13.737152,5.03167155 C12.141376,5.83515396 10.63296,6.5931085 8.924864,6.5931085 C8.376576,6.5931085 7.834944,6.51722874 7.277504,6.36209677 L7.149376,6.00546188 C6.937216,5.41865836 6.295744,5.11766862 5.718336,5.33181818 C5.138432,5.54596774 4.841408,6.19431818 5.051904,6.78027859 L11.459968,24.5681818 C11.626368,25.0259897 12.053184,25.3109604 12.508288,25.3109604 C12.634752,25.3109604 12.765376,25.2898827 12.891008,25.2418255 C13.47008,25.027676 13.768768,24.3793255 13.556608,23.792522 L10.078016,14.1347141 C12.540736,13.6111437 14.348672,11.6500733 16.10336,9.74464809 C17.907136,7.78695015 19.611072,5.93717009 21.795904,5.93717009 C21.861632,5.93717009 21.928192,5.9388563 21.99392,5.94222874 C22.549696,5.96920821 23.038912,5.58053519 23.143744,5.02829912 C23.247744,4.47690616 22.939072,3.93057185 22.414912,3.74593109 L22.414912,3.74593109 Z M14.47264,8.20175953 C12.8128,10.0017962 11.241152,11.7107771 9.299264,11.9746701 L8.16192,8.81891496 C8.414848,8.84420821 8.667776,8.85432551 8.924864,8.85432551 C11.156288,8.85432551 12.973376,7.941239 14.728896,7.05934751 C15.260544,6.79039589 15.782208,6.52903226 16.304704,6.29802053 C15.671552,6.89915689 15.069184,7.5542522 14.47264,8.20175953 L14.47264,8.20175953 Z" id="Fill-1" sketch:type="MSShapeGroup"></path>
            <path d="M3.683264,21.0077346 L3.683264,21.0077346 C3.375424,21.0077346 3.12416,21.259824 3.12416,21.5726173 L3.123328,22.6416789 C3.123328,22.9544721 3.375424,23.2082478 3.682432,23.2082478 C3.991104,23.2082478 4.240704,22.9544721 4.240704,22.6416789 L4.240704,21.5726173 C4.240704,21.259824 3.991104,21.0077346 3.683264,21.0077346" id="Fill-2" sketch:type="MSShapeGroup"></path>
            <path d="M3.682432,18.3966276 C3.991104,18.3966276 4.240704,18.1428519 4.240704,17.8317449 L4.240704,16.7609971 C4.240704,16.4482038 3.991104,16.1961144 3.682432,16.1961144 C3.375424,16.1961144 3.123328,16.4482038 3.123328,16.7609971 L3.123328,17.8317449 C3.123328,18.1428519 3.375424,18.3966276 3.682432,18.3966276" id="Fill-3" sketch:type="MSShapeGroup"></path>
            <path d="M1.836224,20.2674853 C2.144896,20.2674853 2.393664,20.0137097 2.393664,19.7026026 C2.393664,19.3898094 2.144896,19.1360337 1.836224,19.1377199 L0.781248,19.1377199 C0.472576,19.1377199 0.222976,19.3898094 0.222976,19.7026026 C0.222976,20.0153959 0.473408,20.2674853 0.781248,20.2674853 L1.836224,20.2674853" id="Fill-4" sketch:type="MSShapeGroup"></path>
            <path d="M5.530304,20.2674853 L6.584448,20.2674853 C6.89312,20.2674853 7.141888,20.0137097 7.141888,19.7026026 C7.141888,19.3898094 6.89312,19.1377199 6.584448,19.1377199 L5.530304,19.1377199 C5.219968,19.1377199 4.9712,19.3898094 4.9712,19.7026026 C4.9712,20.0137097 5.219968,20.2674853 5.530304,20.2674853" id="Fill-5" sketch:type="MSShapeGroup"></path>
            <path d="M1.911104,20.6966276 L0.090688,22.541349 C-0.127296,22.7622434 -0.127296,23.1205645 0.090688,23.3414589 C0.200512,23.4519062 0.342784,23.5058651 0.485056,23.5058651 C0.62816,23.5058651 0.771264,23.4519062 0.881088,23.3414589 L2.701504,21.4958944 C2.918656,21.275 2.918656,20.917522 2.701504,20.6966276 C2.482688,20.4765762 2.128256,20.4765762 1.911104,20.6966276" id="Fill-6" sketch:type="MSShapeGroup"></path>
            <path d="M6.484608,16.0629032 L4.664192,17.9076246 C4.446208,18.1285191 4.446208,18.4868402 4.664192,18.7077346 C4.773184,18.8181818 4.915456,18.8721408 5.05856,18.8721408 C5.201664,18.8721408 5.344768,18.8181818 5.452928,18.7077346 L7.274176,16.8638563 C7.49216,16.6412757 7.49216,16.2837977 7.274176,16.0629032 C7.05536,15.8428519 6.702592,15.8428519 6.484608,16.0629032" id="Fill-7" sketch:type="MSShapeGroup"></path>
            <path d="M0.881088,16.0629032 C0.662272,15.8428519 0.309504,15.8428519 0.090688,16.0629032 C-0.127296,16.2837977 -0.127296,16.6412757 0.090688,16.8638563 L1.911104,18.7077346 C2.020096,18.8181818 2.162368,18.8721408 2.306304,18.8721408 C2.448576,18.8721408 2.59168,18.8181818 2.701504,18.7077346 C2.918656,18.4868402 2.918656,18.1285191 2.701504,17.9076246 L0.881088,16.0629032" id="Fill-8" sketch:type="MSShapeGroup"></path>
            <path d="M5.452928,20.6966276 C5.235776,20.4765762 4.881344,20.4765762 4.664192,20.6966276 C4.446208,20.917522 4.446208,21.275 4.664192,21.4958944 L6.484608,23.3414589 C6.594432,23.4519062 6.736704,23.5058651 6.879808,23.5058651 C7.02208,23.5058651 7.164352,23.4519062 7.274176,23.3414589 C7.49216,23.1205645 7.49216,22.7622434 7.274176,22.541349 L5.452928,20.6966276" id="Fill-9" sketch:type="MSShapeGroup"></path>
            <path d="M24.365952,15.4145528 C24.147136,15.1936584 23.796032,15.1936584 23.577216,15.4145528 C23.359232,15.6346041 23.359232,15.9937683 23.577216,16.2146628 L24.98912,17.6471041 C25.098944,17.7558651 25.242048,17.8123534 25.38432,17.8123534 C25.528256,17.8123534 25.669696,17.7558651 25.778688,17.6471041 C25.996672,17.4245235 25.996672,17.0678886 25.778688,16.8469941 L24.365952,15.4145528" id="Fill-10" sketch:type="MSShapeGroup"></path>
            <path d="M19.910592,10.9005499 C19.692608,10.6788123 19.33984,10.6788123 19.121024,10.9005499 C18.90304,11.1197581 18.90304,11.4789223 19.121024,11.6998167 L20.535424,13.1305718 C20.644416,13.2418622 20.785856,13.2966642 20.928128,13.2966642 C21.072064,13.2966642 21.214336,13.2418622 21.323328,13.1305718 C21.541312,12.9096774 21.541312,12.5521994 21.323328,12.3321481 L19.910592,10.9005499" id="Fill-11" sketch:type="MSShapeGroup"></path>
            <path d="M20.535424,15.4145528 L19.121024,16.8469941 C18.90304,17.0678886 18.90304,17.4245235 19.121024,17.6471041 C19.230016,17.7558651 19.37312,17.8123534 19.516224,17.8123534 C19.659328,17.8123534 19.802432,17.7558651 19.910592,17.6471041 L21.323328,16.2146628 C21.541312,15.9937683 21.541312,15.6346041 21.323328,15.4145528 C21.106176,15.1936584 20.751744,15.1936584 20.535424,15.4145528" id="Fill-12" sketch:type="MSShapeGroup"></path>
            <path d="M23.971584,13.2966642 C24.113856,13.2966642 24.25696,13.2418622 24.365952,13.1305718 L25.778688,11.6998167 C25.996672,11.4789223 25.996672,11.1197581 25.778688,10.9005499 C25.562368,10.6788123 25.207936,10.6788123 24.98912,10.9005499 L23.577216,12.3321481 C23.3584,12.5521994 23.3584,12.9096774 23.577216,13.1305718 C23.686208,13.2418622 23.829312,13.2966642 23.971584,13.2966642" id="Fill-13" sketch:type="MSShapeGroup"></path>
            <path d="M22.449856,16.0055718 C22.142016,16.0055718 21.890752,16.2593475 21.890752,16.5721408 L21.890752,19.6115469 C21.890752,19.922654 22.142016,20.1764296 22.449856,20.1764296 C22.757696,20.1764296 23.008128,19.922654 23.008128,19.6098607 L23.008128,16.5704545 C23.008128,16.2593475 22.757696,16.0055718 22.449856,16.0055718" id="Fill-14" sketch:type="MSShapeGroup"></path>
            <path d="M22.449856,8.36953812 C22.142016,8.36953812 21.890752,8.62331378 21.890752,8.93610704 L21.890752,11.9763563 C21.890752,12.2874633 22.142016,12.541239 22.449856,12.541239 C22.757696,12.541239 23.008128,12.2874633 23.008128,11.9763563 L23.008128,8.93610704 C23.008128,8.62331378 22.757696,8.36953812 22.449856,8.36953812" id="Fill-15" sketch:type="MSShapeGroup"></path>
            <path d="M20.181824,14.8378666 L20.181824,14.8378666 C20.491328,14.8378666 20.740096,14.5857771 20.740096,14.2729839 C20.740096,13.9601906 20.491328,13.7081012 20.181824,13.7081012 L17.182464,13.7081012 C16.874624,13.7081012 16.624192,13.9601906 16.624192,14.2729839 C16.624192,14.5857771 16.874624,14.8378666 17.182464,14.8378666 L20.181824,14.8378666" id="Fill-16" sketch:type="MSShapeGroup"></path>
            <path d="M27.71808,13.7081012 L24.717888,13.7081012 C24.409216,13.7081012 24.159616,13.9601906 24.159616,14.2729839 C24.159616,14.5857771 24.409216,14.8378666 24.717888,14.8378666 L27.71808,14.8378666 C28.02592,14.8378666 28.274688,14.5857771 28.274688,14.2729839 C28.274688,13.9601906 28.02592,13.7081012 27.71808,13.7081012" id="Fill-17" sketch:type="MSShapeGroup"></path>
            <path d="M17.117568,17.3933284 L16.592576,17.102456 L16.305536,16.5721408 C16.208192,16.3908724 16.020992,16.2770528 15.81632,16.2770528 C15.61248,16.2770528 15.424448,16.3908724 15.327104,16.5721408 L15.040064,17.102456 L14.516736,17.3933284 C14.337024,17.4928152 14.2272,17.6833578 14.2272,17.8890762 C14.2272,18.0964809 14.337024,18.2861804 14.516736,18.384824 L15.040064,18.6765396 L15.327104,19.2068548 C15.424448,19.3881232 15.61248,19.5010997 15.81632,19.5010997 C16.020992,19.5010997 16.208192,19.3881232 16.305536,19.2068548 L16.592576,18.6765396 L17.117568,18.384824 C17.296448,18.2861804 17.407936,18.0964809 17.407936,17.8890762 C17.407936,17.6833578 17.296448,17.4928152 17.117568,17.3933284" id="Fill-18" sketch:type="MSShapeGroup"></path>
            <path d="M4.758208,13.7047287 L5.0752,13.5302053 C5.25408,13.4315616 5.364736,13.2410191 5.364736,13.0344575 C5.364736,12.8270528 5.25408,12.6365103 5.0752,12.5378666 L4.758208,12.3616569 L4.58432,12.0404326 C4.486144,11.8591642 4.298112,11.7453446 4.094272,11.7453446 C3.890432,11.7453446 3.703232,11.8591642 3.604224,12.0404326 L3.431168,12.3616569 L3.114176,12.5378666 C2.934464,12.6365103 2.823808,12.8270528 2.823808,13.0344575 C2.823808,13.2410191 2.934464,13.4315616 3.114176,13.5302053 L3.431168,13.7047287 L3.604224,14.0276393 C3.703232,14.2089076 3.890432,14.3210411 4.094272,14.3210411 C4.298112,14.3210411 4.486144,14.2089076 4.58432,14.0276393 L4.758208,13.7047287" id="Fill-19" sketch:type="MSShapeGroup"></path>
            <path d="M8.489728,2.7460044 L9.16032,3.11865836 L9.527232,3.79820381 C9.625408,3.97947214 9.814272,4.09329179 10.01728,4.09329179 C10.221952,4.09329179 10.409152,3.97947214 10.506496,3.79820381 L10.873408,3.11865836 L11.544832,2.7460044 C11.724544,2.6473607 11.836032,2.4585044 11.836032,2.2502566 C11.836032,2.04453812 11.724544,1.8539956 11.544832,1.7545088 L10.873408,1.38269795 L10.506496,0.702309384 C10.409152,0.521884164 10.221952,0.408064516 10.01728,0.408064516 C9.814272,0.408064516 9.625408,0.521884164 9.527232,0.702309384 L9.16032,1.38269795 L8.489728,1.7545088 C8.310848,1.8539956 8.200192,2.04453812 8.200192,2.2502566 C8.200192,2.4585044 8.310848,2.6473607 8.489728,2.7460044 L8.489728,2.7460044 Z M10.01728,2.13896628 C10.048896,2.1811217 10.084672,2.21906158 10.127104,2.2502566 C10.084672,2.28145161 10.048896,2.3202346 10.01728,2.36070381 C9.986496,2.3202346 9.949056,2.28145161 9.908288,2.2502566 C9.949056,2.21906158 9.986496,2.1811217 10.01728,2.13896628 L10.01728,2.13896628 Z" id="Fill-20" sketch:type="MSShapeGroup"></path>
        </g>
        <g id="Festive-travel-4" sketch:type="MSLayerGroup" transform="translate(2.000000, 43.000000)">
            <path d="M22.414912,3.74593109 C21.441472,3.40194282 20.502976,3.23500733 19.544512,3.23500733 C17.311424,3.23500733 15.495168,4.14893695 13.737152,5.03167155 C12.141376,5.83515396 10.63296,6.5931085 8.924864,6.5931085 C8.376576,6.5931085 7.834944,6.51722874 7.277504,6.36209677 L7.149376,6.00546188 C6.937216,5.41865836 6.295744,5.11766862 5.718336,5.33181818 C5.138432,5.54596774 4.841408,6.19431818 5.051904,6.78027859 L11.459968,24.5681818 C11.626368,25.0259897 12.053184,25.3109604 12.508288,25.3109604 C12.634752,25.3109604 12.765376,25.2898827 12.891008,25.2418255 C13.47008,25.027676 13.768768,24.3793255 13.556608,23.792522 L10.078016,14.1347141 C12.540736,13.6111437 14.348672,11.6500733 16.10336,9.74464809 C17.907136,7.78695015 19.611072,5.93717009 21.795904,5.93717009 C21.861632,5.93717009 21.928192,5.9388563 21.99392,5.94222874 C22.549696,5.96920821 23.038912,5.58053519 23.143744,5.02829912 C23.247744,4.47690616 22.939072,3.93057185 22.414912,3.74593109 L22.414912,3.74593109 Z M14.47264,8.20175953 C12.8128,10.0017962 11.241152,11.7107771 9.299264,11.9746701 L8.16192,8.81891496 C8.414848,8.84420821 8.667776,8.85432551 8.924864,8.85432551 C11.156288,8.85432551 12.973376,7.941239 14.728896,7.05934751 C15.260544,6.79039589 15.782208,6.52903226 16.304704,6.29802053 C15.671552,6.89915689 15.069184,7.5542522 14.47264,8.20175953 L14.47264,8.20175953 Z" id="Fill-1" fill="#67747C" sketch:type="MSShapeGroup"></path>
            <path d="M3.683264,21.0077346 L3.683264,21.0077346 C3.375424,21.0077346 3.12416,21.259824 3.12416,21.5726173 L3.123328,22.6416789 C3.123328,22.9544721 3.375424,23.2082478 3.682432,23.2082478 C3.991104,23.2082478 4.240704,22.9544721 4.240704,22.6416789 L4.240704,21.5726173 C4.240704,21.259824 3.991104,21.0077346 3.683264,21.0077346" id="Fill-2" fill="#373D43" sketch:type="MSShapeGroup"></path>
            <path d="M3.682432,18.3966276 C3.991104,18.3966276 4.240704,18.1428519 4.240704,17.8317449 L4.240704,16.7609971 C4.240704,16.4482038 3.991104,16.1961144 3.682432,16.1961144 C3.375424,16.1961144 3.123328,16.4482038 3.123328,16.7609971 L3.123328,17.8317449 C3.123328,18.1428519 3.375424,18.3966276 3.682432,18.3966276" id="Fill-3" fill="#373D43" sketch:type="MSShapeGroup"></path>
            <path d="M1.836224,20.2674853 C2.144896,20.2674853 2.393664,20.0137097 2.393664,19.7026026 C2.393664,19.3898094 2.144896,19.1360337 1.836224,19.1377199 L0.781248,19.1377199 C0.472576,19.1377199 0.222976,19.3898094 0.222976,19.7026026 C0.222976,20.0153959 0.473408,20.2674853 0.781248,20.2674853 L1.836224,20.2674853" id="Fill-4" fill="#373D43" sketch:type="MSShapeGroup"></path>
            <path d="M5.530304,20.2674853 L6.584448,20.2674853 C6.89312,20.2674853 7.141888,20.0137097 7.141888,19.7026026 C7.141888,19.3898094 6.89312,19.1377199 6.584448,19.1377199 L5.530304,19.1377199 C5.219968,19.1377199 4.9712,19.3898094 4.9712,19.7026026 C4.9712,20.0137097 5.219968,20.2674853 5.530304,20.2674853" id="Fill-5" fill="#373D43" sketch:type="MSShapeGroup"></path>
            <path d="M1.911104,20.6966276 L0.090688,22.541349 C-0.127296,22.7622434 -0.127296,23.1205645 0.090688,23.3414589 C0.200512,23.4519062 0.342784,23.5058651 0.485056,23.5058651 C0.62816,23.5058651 0.771264,23.4519062 0.881088,23.3414589 L2.701504,21.4958944 C2.918656,21.275 2.918656,20.917522 2.701504,20.6966276 C2.482688,20.4765762 2.128256,20.4765762 1.911104,20.6966276" id="Fill-6" fill="#373D43" sketch:type="MSShapeGroup"></path>
            <path d="M6.484608,16.0629032 L4.664192,17.9076246 C4.446208,18.1285191 4.446208,18.4868402 4.664192,18.7077346 C4.773184,18.8181818 4.915456,18.8721408 5.05856,18.8721408 C5.201664,18.8721408 5.344768,18.8181818 5.452928,18.7077346 L7.274176,16.8638563 C7.49216,16.6412757 7.49216,16.2837977 7.274176,16.0629032 C7.05536,15.8428519 6.702592,15.8428519 6.484608,16.0629032" id="Fill-7" fill="#373D43" sketch:type="MSShapeGroup"></path>
            <path d="M0.881088,16.0629032 C0.662272,15.8428519 0.309504,15.8428519 0.090688,16.0629032 C-0.127296,16.2837977 -0.127296,16.6412757 0.090688,16.8638563 L1.911104,18.7077346 C2.020096,18.8181818 2.162368,18.8721408 2.306304,18.8721408 C2.448576,18.8721408 2.59168,18.8181818 2.701504,18.7077346 C2.918656,18.4868402 2.918656,18.1285191 2.701504,17.9076246 L0.881088,16.0629032" id="Fill-8" fill="#373D43" sketch:type="MSShapeGroup"></path>
            <path d="M5.452928,20.6966276 C5.235776,20.4765762 4.881344,20.4765762 4.664192,20.6966276 C4.446208,20.917522 4.446208,21.275 4.664192,21.4958944 L6.484608,23.3414589 C6.594432,23.4519062 6.736704,23.5058651 6.879808,23.5058651 C7.02208,23.5058651 7.164352,23.4519062 7.274176,23.3414589 C7.49216,23.1205645 7.49216,22.7622434 7.274176,22.541349 L5.452928,20.6966276" id="Fill-9" fill="#373D43" sketch:type="MSShapeGroup"></path>
            <path d="M24.365952,15.4145528 C24.147136,15.1936584 23.796032,15.1936584 23.577216,15.4145528 C23.359232,15.6346041 23.359232,15.9937683 23.577216,16.2146628 L24.98912,17.6471041 C25.098944,17.7558651 25.242048,17.8123534 25.38432,17.8123534 C25.528256,17.8123534 25.669696,17.7558651 25.778688,17.6471041 C25.996672,17.4245235 25.996672,17.0678886 25.778688,16.8469941 L24.365952,15.4145528" id="Fill-10" fill="#373D43" sketch:type="MSShapeGroup"></path>
            <path d="M19.910592,10.9005499 C19.692608,10.6788123 19.33984,10.6788123 19.121024,10.9005499 C18.90304,11.1197581 18.90304,11.4789223 19.121024,11.6998167 L20.535424,13.1305718 C20.644416,13.2418622 20.785856,13.2966642 20.928128,13.2966642 C21.072064,13.2966642 21.214336,13.2418622 21.323328,13.1305718 C21.541312,12.9096774 21.541312,12.5521994 21.323328,12.3321481 L19.910592,10.9005499" id="Fill-11" fill="#373D43" sketch:type="MSShapeGroup"></path>
            <path d="M20.535424,15.4145528 L19.121024,16.8469941 C18.90304,17.0678886 18.90304,17.4245235 19.121024,17.6471041 C19.230016,17.7558651 19.37312,17.8123534 19.516224,17.8123534 C19.659328,17.8123534 19.802432,17.7558651 19.910592,17.6471041 L21.323328,16.2146628 C21.541312,15.9937683 21.541312,15.6346041 21.323328,15.4145528 C21.106176,15.1936584 20.751744,15.1936584 20.535424,15.4145528" id="Fill-12" fill="#373D43" sketch:type="MSShapeGroup"></path>
            <path d="M23.971584,13.2966642 C24.113856,13.2966642 24.25696,13.2418622 24.365952,13.1305718 L25.778688,11.6998167 C25.996672,11.4789223 25.996672,11.1197581 25.778688,10.9005499 C25.562368,10.6788123 25.207936,10.6788123 24.98912,10.9005499 L23.577216,12.3321481 C23.3584,12.5521994 23.3584,12.9096774 23.577216,13.1305718 C23.686208,13.2418622 23.829312,13.2966642 23.971584,13.2966642" id="Fill-13" fill="#373D43" sketch:type="MSShapeGroup"></path>
            <path d="M22.449856,16.0055718 C22.142016,16.0055718 21.890752,16.2593475 21.890752,16.5721408 L21.890752,19.6115469 C21.890752,19.922654 22.142016,20.1764296 22.449856,20.1764296 C22.757696,20.1764296 23.008128,19.922654 23.008128,19.6098607 L23.008128,16.5704545 C23.008128,16.2593475 22.757696,16.0055718 22.449856,16.0055718" id="Fill-14" fill="#373D43" sketch:type="MSShapeGroup"></path>
            <path d="M22.449856,8.36953812 C22.142016,8.36953812 21.890752,8.62331378 21.890752,8.93610704 L21.890752,11.9763563 C21.890752,12.2874633 22.142016,12.541239 22.449856,12.541239 C22.757696,12.541239 23.008128,12.2874633 23.008128,11.9763563 L23.008128,8.93610704 C23.008128,8.62331378 22.757696,8.36953812 22.449856,8.36953812" id="Fill-15" fill="#373D43" sketch:type="MSShapeGroup"></path>
            <path d="M20.181824,14.8378666 L20.181824,14.8378666 C20.491328,14.8378666 20.740096,14.5857771 20.740096,14.2729839 C20.740096,13.9601906 20.491328,13.7081012 20.181824,13.7081012 L17.182464,13.7081012 C16.874624,13.7081012 16.624192,13.9601906 16.624192,14.2729839 C16.624192,14.5857771 16.874624,14.8378666 17.182464,14.8378666 L20.181824,14.8378666" id="Fill-16" fill="#373D43" sketch:type="MSShapeGroup"></path>
            <path d="M27.71808,13.7081012 L24.717888,13.7081012 C24.409216,13.7081012 24.159616,13.9601906 24.159616,14.2729839 C24.159616,14.5857771 24.409216,14.8378666 24.717888,14.8378666 L27.71808,14.8378666 C28.02592,14.8378666 28.274688,14.5857771 28.274688,14.2729839 C28.274688,13.9601906 28.02592,13.7081012 27.71808,13.7081012" id="Fill-17" fill="#373D43" sketch:type="MSShapeGroup"></path>
            <path d="M17.117568,17.3933284 L16.592576,17.102456 L16.305536,16.5721408 C16.208192,16.3908724 16.020992,16.2770528 15.81632,16.2770528 C15.61248,16.2770528 15.424448,16.3908724 15.327104,16.5721408 L15.040064,17.102456 L14.516736,17.3933284 C14.337024,17.4928152 14.2272,17.6833578 14.2272,17.8890762 C14.2272,18.0964809 14.337024,18.2861804 14.516736,18.384824 L15.040064,18.6765396 L15.327104,19.2068548 C15.424448,19.3881232 15.61248,19.5010997 15.81632,19.5010997 C16.020992,19.5010997 16.208192,19.3881232 16.305536,19.2068548 L16.592576,18.6765396 L17.117568,18.384824 C17.296448,18.2861804 17.407936,18.0964809 17.407936,17.8890762 C17.407936,17.6833578 17.296448,17.4928152 17.117568,17.3933284" id="Fill-18" fill="#373D43" sketch:type="MSShapeGroup"></path>
            <path d="M4.758208,13.7047287 L5.0752,13.5302053 C5.25408,13.4315616 5.364736,13.2410191 5.364736,13.0344575 C5.364736,12.8270528 5.25408,12.6365103 5.0752,12.5378666 L4.758208,12.3616569 L4.58432,12.0404326 C4.486144,11.8591642 4.298112,11.7453446 4.094272,11.7453446 C3.890432,11.7453446 3.703232,11.8591642 3.604224,12.0404326 L3.431168,12.3616569 L3.114176,12.5378666 C2.934464,12.6365103 2.823808,12.8270528 2.823808,13.0344575 C2.823808,13.2410191 2.934464,13.4315616 3.114176,13.5302053 L3.431168,13.7047287 L3.604224,14.0276393 C3.703232,14.2089076 3.890432,14.3210411 4.094272,14.3210411 C4.298112,14.3210411 4.486144,14.2089076 4.58432,14.0276393 L4.758208,13.7047287" id="Fill-19" fill="#373D43" sketch:type="MSShapeGroup"></path>
            <path d="M8.489728,2.7460044 L9.16032,3.11865836 L9.527232,3.79820381 C9.625408,3.97947214 9.814272,4.09329179 10.01728,4.09329179 C10.221952,4.09329179 10.409152,3.97947214 10.506496,3.79820381 L10.873408,3.11865836 L11.544832,2.7460044 C11.724544,2.6473607 11.836032,2.4585044 11.836032,2.2502566 C11.836032,2.04453812 11.724544,1.8539956 11.544832,1.7545088 L10.873408,1.38269795 L10.506496,0.702309384 C10.409152,0.521884164 10.221952,0.408064516 10.01728,0.408064516 C9.814272,0.408064516 9.625408,0.521884164 9.527232,0.702309384 L9.16032,1.38269795 L8.489728,1.7545088 C8.310848,1.8539956 8.200192,2.04453812 8.200192,2.2502566 C8.200192,2.4585044 8.310848,2.6473607 8.489728,2.7460044 L8.489728,2.7460044 Z M10.01728,2.13896628 C10.048896,2.1811217 10.084672,2.21906158 10.127104,2.2502566 C10.084672,2.28145161 10.048896,2.3202346 10.01728,2.36070381 C9.986496,2.3202346 9.949056,2.28145161 9.908288,2.2502566 C9.949056,2.21906158 9.986496,2.1811217 10.01728,2.13896628 L10.01728,2.13896628 Z" id="Fill-20" fill="#67747C" sketch:type="MSShapeGroup"></path>
        </g>
        <g id="Festive-travel-5" sketch:type="MSLayerGroup" transform="translate(2.000000, 83.000000)" fill="#FFFFFF">
            <path d="M22.414912,3.74593109 C21.441472,3.40194282 20.502976,3.23500733 19.544512,3.23500733 C17.311424,3.23500733 15.495168,4.14893695 13.737152,5.03167155 C12.141376,5.83515396 10.63296,6.5931085 8.924864,6.5931085 C8.376576,6.5931085 7.834944,6.51722874 7.277504,6.36209677 L7.149376,6.00546188 C6.937216,5.41865836 6.295744,5.11766862 5.718336,5.33181818 C5.138432,5.54596774 4.841408,6.19431818 5.051904,6.78027859 L11.459968,24.5681818 C11.626368,25.0259897 12.053184,25.3109604 12.508288,25.3109604 C12.634752,25.3109604 12.765376,25.2898827 12.891008,25.2418255 C13.47008,25.027676 13.768768,24.3793255 13.556608,23.792522 L10.078016,14.1347141 C12.540736,13.6111437 14.348672,11.6500733 16.10336,9.74464809 C17.907136,7.78695015 19.611072,5.93717009 21.795904,5.93717009 C21.861632,5.93717009 21.928192,5.9388563 21.99392,5.94222874 C22.549696,5.96920821 23.038912,5.58053519 23.143744,5.02829912 C23.247744,4.47690616 22.939072,3.93057185 22.414912,3.74593109 L22.414912,3.74593109 Z M14.47264,8.20175953 C12.8128,10.0017962 11.241152,11.7107771 9.299264,11.9746701 L8.16192,8.81891496 C8.414848,8.84420821 8.667776,8.85432551 8.924864,8.85432551 C11.156288,8.85432551 12.973376,7.941239 14.728896,7.05934751 C15.260544,6.79039589 15.782208,6.52903226 16.304704,6.29802053 C15.671552,6.89915689 15.069184,7.5542522 14.47264,8.20175953 L14.47264,8.20175953 Z" id="Fill-1" sketch:type="MSShapeGroup"></path>
            <path d="M3.683264,21.0077346 L3.683264,21.0077346 C3.375424,21.0077346 3.12416,21.259824 3.12416,21.5726173 L3.123328,22.6416789 C3.123328,22.9544721 3.375424,23.2082478 3.682432,23.2082478 C3.991104,23.2082478 4.240704,22.9544721 4.240704,22.6416789 L4.240704,21.5726173 C4.240704,21.259824 3.991104,21.0077346 3.683264,21.0077346" id="Fill-2" sketch:type="MSShapeGroup"></path>
            <path d="M3.682432,18.3966276 C3.991104,18.3966276 4.240704,18.1428519 4.240704,17.8317449 L4.240704,16.7609971 C4.240704,16.4482038 3.991104,16.1961144 3.682432,16.1961144 C3.375424,16.1961144 3.123328,16.4482038 3.123328,16.7609971 L3.123328,17.8317449 C3.123328,18.1428519 3.375424,18.3966276 3.682432,18.3966276" id="Fill-3" sketch:type="MSShapeGroup"></path>
            <path d="M1.836224,20.2674853 C2.144896,20.2674853 2.393664,20.0137097 2.393664,19.7026026 C2.393664,19.3898094 2.144896,19.1360337 1.836224,19.1377199 L0.781248,19.1377199 C0.472576,19.1377199 0.222976,19.3898094 0.222976,19.7026026 C0.222976,20.0153959 0.473408,20.2674853 0.781248,20.2674853 L1.836224,20.2674853" id="Fill-4" sketch:type="MSShapeGroup"></path>
            <path d="M5.530304,20.2674853 L6.584448,20.2674853 C6.89312,20.2674853 7.141888,20.0137097 7.141888,19.7026026 C7.141888,19.3898094 6.89312,19.1377199 6.584448,19.1377199 L5.530304,19.1377199 C5.219968,19.1377199 4.9712,19.3898094 4.9712,19.7026026 C4.9712,20.0137097 5.219968,20.2674853 5.530304,20.2674853" id="Fill-5" sketch:type="MSShapeGroup"></path>
            <path d="M1.911104,20.6966276 L0.090688,22.541349 C-0.127296,22.7622434 -0.127296,23.1205645 0.090688,23.3414589 C0.200512,23.4519062 0.342784,23.5058651 0.485056,23.5058651 C0.62816,23.5058651 0.771264,23.4519062 0.881088,23.3414589 L2.701504,21.4958944 C2.918656,21.275 2.918656,20.917522 2.701504,20.6966276 C2.482688,20.4765762 2.128256,20.4765762 1.911104,20.6966276" id="Fill-6" sketch:type="MSShapeGroup"></path>
            <path d="M6.484608,16.0629032 L4.664192,17.9076246 C4.446208,18.1285191 4.446208,18.4868402 4.664192,18.7077346 C4.773184,18.8181818 4.915456,18.8721408 5.05856,18.8721408 C5.201664,18.8721408 5.344768,18.8181818 5.452928,18.7077346 L7.274176,16.8638563 C7.49216,16.6412757 7.49216,16.2837977 7.274176,16.0629032 C7.05536,15.8428519 6.702592,15.8428519 6.484608,16.0629032" id="Fill-7" sketch:type="MSShapeGroup"></path>
            <path d="M0.881088,16.0629032 C0.662272,15.8428519 0.309504,15.8428519 0.090688,16.0629032 C-0.127296,16.2837977 -0.127296,16.6412757 0.090688,16.8638563 L1.911104,18.7077346 C2.020096,18.8181818 2.162368,18.8721408 2.306304,18.8721408 C2.448576,18.8721408 2.59168,18.8181818 2.701504,18.7077346 C2.918656,18.4868402 2.918656,18.1285191 2.701504,17.9076246 L0.881088,16.0629032" id="Fill-8" sketch:type="MSShapeGroup"></path>
            <path d="M5.452928,20.6966276 C5.235776,20.4765762 4.881344,20.4765762 4.664192,20.6966276 C4.446208,20.917522 4.446208,21.275 4.664192,21.4958944 L6.484608,23.3414589 C6.594432,23.4519062 6.736704,23.5058651 6.879808,23.5058651 C7.02208,23.5058651 7.164352,23.4519062 7.274176,23.3414589 C7.49216,23.1205645 7.49216,22.7622434 7.274176,22.541349 L5.452928,20.6966276" id="Fill-9" sketch:type="MSShapeGroup"></path>
            <path d="M24.365952,15.4145528 C24.147136,15.1936584 23.796032,15.1936584 23.577216,15.4145528 C23.359232,15.6346041 23.359232,15.9937683 23.577216,16.2146628 L24.98912,17.6471041 C25.098944,17.7558651 25.242048,17.8123534 25.38432,17.8123534 C25.528256,17.8123534 25.669696,17.7558651 25.778688,17.6471041 C25.996672,17.4245235 25.996672,17.0678886 25.778688,16.8469941 L24.365952,15.4145528" id="Fill-10" sketch:type="MSShapeGroup"></path>
            <path d="M19.910592,10.9005499 C19.692608,10.6788123 19.33984,10.6788123 19.121024,10.9005499 C18.90304,11.1197581 18.90304,11.4789223 19.121024,11.6998167 L20.535424,13.1305718 C20.644416,13.2418622 20.785856,13.2966642 20.928128,13.2966642 C21.072064,13.2966642 21.214336,13.2418622 21.323328,13.1305718 C21.541312,12.9096774 21.541312,12.5521994 21.323328,12.3321481 L19.910592,10.9005499" id="Fill-11" sketch:type="MSShapeGroup"></path>
            <path d="M20.535424,15.4145528 L19.121024,16.8469941 C18.90304,17.0678886 18.90304,17.4245235 19.121024,17.6471041 C19.230016,17.7558651 19.37312,17.8123534 19.516224,17.8123534 C19.659328,17.8123534 19.802432,17.7558651 19.910592,17.6471041 L21.323328,16.2146628 C21.541312,15.9937683 21.541312,15.6346041 21.323328,15.4145528 C21.106176,15.1936584 20.751744,15.1936584 20.535424,15.4145528" id="Fill-12" sketch:type="MSShapeGroup"></path>
            <path d="M23.971584,13.2966642 C24.113856,13.2966642 24.25696,13.2418622 24.365952,13.1305718 L25.778688,11.6998167 C25.996672,11.4789223 25.996672,11.1197581 25.778688,10.9005499 C25.562368,10.6788123 25.207936,10.6788123 24.98912,10.9005499 L23.577216,12.3321481 C23.3584,12.5521994 23.3584,12.9096774 23.577216,13.1305718 C23.686208,13.2418622 23.829312,13.2966642 23.971584,13.2966642" id="Fill-13" sketch:type="MSShapeGroup"></path>
            <path d="M22.449856,16.0055718 C22.142016,16.0055718 21.890752,16.2593475 21.890752,16.5721408 L21.890752,19.6115469 C21.890752,19.922654 22.142016,20.1764296 22.449856,20.1764296 C22.757696,20.1764296 23.008128,19.922654 23.008128,19.6098607 L23.008128,16.5704545 C23.008128,16.2593475 22.757696,16.0055718 22.449856,16.0055718" id="Fill-14" sketch:type="MSShapeGroup"></path>
            <path d="M22.449856,8.36953812 C22.142016,8.36953812 21.890752,8.62331378 21.890752,8.93610704 L21.890752,11.9763563 C21.890752,12.2874633 22.142016,12.541239 22.449856,12.541239 C22.757696,12.541239 23.008128,12.2874633 23.008128,11.9763563 L23.008128,8.93610704 C23.008128,8.62331378 22.757696,8.36953812 22.449856,8.36953812" id="Fill-15" sketch:type="MSShapeGroup"></path>
            <path d="M20.181824,14.8378666 L20.181824,14.8378666 C20.491328,14.8378666 20.740096,14.5857771 20.740096,14.2729839 C20.740096,13.9601906 20.491328,13.7081012 20.181824,13.7081012 L17.182464,13.7081012 C16.874624,13.7081012 16.624192,13.9601906 16.624192,14.2729839 C16.624192,14.5857771 16.874624,14.8378666 17.182464,14.8378666 L20.181824,14.8378666" id="Fill-16" sketch:type="MSShapeGroup"></path>
            <path d="M27.71808,13.7081012 L24.717888,13.7081012 C24.409216,13.7081012 24.159616,13.9601906 24.159616,14.2729839 C24.159616,14.5857771 24.409216,14.8378666 24.717888,14.8378666 L27.71808,14.8378666 C28.02592,14.8378666 28.274688,14.5857771 28.274688,14.2729839 C28.274688,13.9601906 28.02592,13.7081012 27.71808,13.7081012" id="Fill-17" sketch:type="MSShapeGroup"></path>
            <path d="M17.117568,17.3933284 L16.592576,17.102456 L16.305536,16.5721408 C16.208192,16.3908724 16.020992,16.2770528 15.81632,16.2770528 C15.61248,16.2770528 15.424448,16.3908724 15.327104,16.5721408 L15.040064,17.102456 L14.516736,17.3933284 C14.337024,17.4928152 14.2272,17.6833578 14.2272,17.8890762 C14.2272,18.0964809 14.337024,18.2861804 14.516736,18.384824 L15.040064,18.6765396 L15.327104,19.2068548 C15.424448,19.3881232 15.61248,19.5010997 15.81632,19.5010997 C16.020992,19.5010997 16.208192,19.3881232 16.305536,19.2068548 L16.592576,18.6765396 L17.117568,18.384824 C17.296448,18.2861804 17.407936,18.0964809 17.407936,17.8890762 C17.407936,17.6833578 17.296448,17.4928152 17.117568,17.3933284" id="Fill-18" sketch:type="MSShapeGroup"></path>
            <path d="M4.758208,13.7047287 L5.0752,13.5302053 C5.25408,13.4315616 5.364736,13.2410191 5.364736,13.0344575 C5.364736,12.8270528 5.25408,12.6365103 5.0752,12.5378666 L4.758208,12.3616569 L4.58432,12.0404326 C4.486144,11.8591642 4.298112,11.7453446 4.094272,11.7453446 C3.890432,11.7453446 3.703232,11.8591642 3.604224,12.0404326 L3.431168,12.3616569 L3.114176,12.5378666 C2.934464,12.6365103 2.823808,12.8270528 2.823808,13.0344575 C2.823808,13.2410191 2.934464,13.4315616 3.114176,13.5302053 L3.431168,13.7047287 L3.604224,14.0276393 C3.703232,14.2089076 3.890432,14.3210411 4.094272,14.3210411 C4.298112,14.3210411 4.486144,14.2089076 4.58432,14.0276393 L4.758208,13.7047287" id="Fill-19" sketch:type="MSShapeGroup"></path>
            <path d="M8.489728,2.7460044 L9.16032,3.11865836 L9.527232,3.79820381 C9.625408,3.97947214 9.814272,4.09329179 10.01728,4.09329179 C10.221952,4.09329179 10.409152,3.97947214 10.506496,3.79820381 L10.873408,3.11865836 L11.544832,2.7460044 C11.724544,2.6473607 11.836032,2.4585044 11.836032,2.2502566 C11.836032,2.04453812 11.724544,1.8539956 11.544832,1.7545088 L10.873408,1.38269795 L10.506496,0.702309384 C10.409152,0.521884164 10.221952,0.408064516 10.01728,0.408064516 C9.814272,0.408064516 9.625408,0.521884164 9.527232,0.702309384 L9.16032,1.38269795 L8.489728,1.7545088 C8.310848,1.8539956 8.200192,2.04453812 8.200192,2.2502566 C8.200192,2.4585044 8.310848,2.6473607 8.489728,2.7460044 L8.489728,2.7460044 Z M10.01728,2.13896628 C10.048896,2.1811217 10.084672,2.21906158 10.127104,2.2502566 C10.084672,2.28145161 10.048896,2.3202346 10.01728,2.36070381 C9.986496,2.3202346 9.949056,2.28145161 9.908288,2.2502566 C9.949056,2.21906158 9.986496,2.1811217 10.01728,2.13896628 L10.01728,2.13896628 Z" id="Fill-20" sketch:type="MSShapeGroup"></path>
        </g>
        <g id="Festive-travel-6" sketch:type="MSLayerGroup" transform="translate(2.000000, 123.000000)" fill="#206FAC">
            <path d="M22.414912,3.74593109 C21.441472,3.40194282 20.502976,3.23500733 19.544512,3.23500733 C17.311424,3.23500733 15.495168,4.14893695 13.737152,5.03167155 C12.141376,5.83515396 10.63296,6.5931085 8.924864,6.5931085 C8.376576,6.5931085 7.834944,6.51722874 7.277504,6.36209677 L7.149376,6.00546188 C6.937216,5.41865836 6.295744,5.11766862 5.718336,5.33181818 C5.138432,5.54596774 4.841408,6.19431818 5.051904,6.78027859 L11.459968,24.5681818 C11.626368,25.0259897 12.053184,25.3109604 12.508288,25.3109604 C12.634752,25.3109604 12.765376,25.2898827 12.891008,25.2418255 C13.47008,25.027676 13.768768,24.3793255 13.556608,23.792522 L10.078016,14.1347141 C12.540736,13.6111437 14.348672,11.6500733 16.10336,9.74464809 C17.907136,7.78695015 19.611072,5.93717009 21.795904,5.93717009 C21.861632,5.93717009 21.928192,5.9388563 21.99392,5.94222874 C22.549696,5.96920821 23.038912,5.58053519 23.143744,5.02829912 C23.247744,4.47690616 22.939072,3.93057185 22.414912,3.74593109 L22.414912,3.74593109 Z M14.47264,8.20175953 C12.8128,10.0017962 11.241152,11.7107771 9.299264,11.9746701 L8.16192,8.81891496 C8.414848,8.84420821 8.667776,8.85432551 8.924864,8.85432551 C11.156288,8.85432551 12.973376,7.941239 14.728896,7.05934751 C15.260544,6.79039589 15.782208,6.52903226 16.304704,6.29802053 C15.671552,6.89915689 15.069184,7.5542522 14.47264,8.20175953 L14.47264,8.20175953 Z" id="Fill-1" sketch:type="MSShapeGroup"></path>
            <path d="M3.683264,21.0077346 L3.683264,21.0077346 C3.375424,21.0077346 3.12416,21.259824 3.12416,21.5726173 L3.123328,22.6416789 C3.123328,22.9544721 3.375424,23.2082478 3.682432,23.2082478 C3.991104,23.2082478 4.240704,22.9544721 4.240704,22.6416789 L4.240704,21.5726173 C4.240704,21.259824 3.991104,21.0077346 3.683264,21.0077346" id="Fill-2" sketch:type="MSShapeGroup"></path>
            <path d="M3.682432,18.3966276 C3.991104,18.3966276 4.240704,18.1428519 4.240704,17.8317449 L4.240704,16.7609971 C4.240704,16.4482038 3.991104,16.1961144 3.682432,16.1961144 C3.375424,16.1961144 3.123328,16.4482038 3.123328,16.7609971 L3.123328,17.8317449 C3.123328,18.1428519 3.375424,18.3966276 3.682432,18.3966276" id="Fill-3" sketch:type="MSShapeGroup"></path>
            <path d="M1.836224,20.2674853 C2.144896,20.2674853 2.393664,20.0137097 2.393664,19.7026026 C2.393664,19.3898094 2.144896,19.1360337 1.836224,19.1377199 L0.781248,19.1377199 C0.472576,19.1377199 0.222976,19.3898094 0.222976,19.7026026 C0.222976,20.0153959 0.473408,20.2674853 0.781248,20.2674853 L1.836224,20.2674853" id="Fill-4" sketch:type="MSShapeGroup"></path>
            <path d="M5.530304,20.2674853 L6.584448,20.2674853 C6.89312,20.2674853 7.141888,20.0137097 7.141888,19.7026026 C7.141888,19.3898094 6.89312,19.1377199 6.584448,19.1377199 L5.530304,19.1377199 C5.219968,19.1377199 4.9712,19.3898094 4.9712,19.7026026 C4.9712,20.0137097 5.219968,20.2674853 5.530304,20.2674853" id="Fill-5" sketch:type="MSShapeGroup"></path>
            <path d="M1.911104,20.6966276 L0.090688,22.541349 C-0.127296,22.7622434 -0.127296,23.1205645 0.090688,23.3414589 C0.200512,23.4519062 0.342784,23.5058651 0.485056,23.5058651 C0.62816,23.5058651 0.771264,23.4519062 0.881088,23.3414589 L2.701504,21.4958944 C2.918656,21.275 2.918656,20.917522 2.701504,20.6966276 C2.482688,20.4765762 2.128256,20.4765762 1.911104,20.6966276" id="Fill-6" sketch:type="MSShapeGroup"></path>
            <path d="M6.484608,16.0629032 L4.664192,17.9076246 C4.446208,18.1285191 4.446208,18.4868402 4.664192,18.7077346 C4.773184,18.8181818 4.915456,18.8721408 5.05856,18.8721408 C5.201664,18.8721408 5.344768,18.8181818 5.452928,18.7077346 L7.274176,16.8638563 C7.49216,16.6412757 7.49216,16.2837977 7.274176,16.0629032 C7.05536,15.8428519 6.702592,15.8428519 6.484608,16.0629032" id="Fill-7" sketch:type="MSShapeGroup"></path>
            <path d="M0.881088,16.0629032 C0.662272,15.8428519 0.309504,15.8428519 0.090688,16.0629032 C-0.127296,16.2837977 -0.127296,16.6412757 0.090688,16.8638563 L1.911104,18.7077346 C2.020096,18.8181818 2.162368,18.8721408 2.306304,18.8721408 C2.448576,18.8721408 2.59168,18.8181818 2.701504,18.7077346 C2.918656,18.4868402 2.918656,18.1285191 2.701504,17.9076246 L0.881088,16.0629032" id="Fill-8" sketch:type="MSShapeGroup"></path>
            <path d="M5.452928,20.6966276 C5.235776,20.4765762 4.881344,20.4765762 4.664192,20.6966276 C4.446208,20.917522 4.446208,21.275 4.664192,21.4958944 L6.484608,23.3414589 C6.594432,23.4519062 6.736704,23.5058651 6.879808,23.5058651 C7.02208,23.5058651 7.164352,23.4519062 7.274176,23.3414589 C7.49216,23.1205645 7.49216,22.7622434 7.274176,22.541349 L5.452928,20.6966276" id="Fill-9" sketch:type="MSShapeGroup"></path>
            <path d="M24.365952,15.4145528 C24.147136,15.1936584 23.796032,15.1936584 23.577216,15.4145528 C23.359232,15.6346041 23.359232,15.9937683 23.577216,16.2146628 L24.98912,17.6471041 C25.098944,17.7558651 25.242048,17.8123534 25.38432,17.8123534 C25.528256,17.8123534 25.669696,17.7558651 25.778688,17.6471041 C25.996672,17.4245235 25.996672,17.0678886 25.778688,16.8469941 L24.365952,15.4145528" id="Fill-10" sketch:type="MSShapeGroup"></path>
            <path d="M19.910592,10.9005499 C19.692608,10.6788123 19.33984,10.6788123 19.121024,10.9005499 C18.90304,11.1197581 18.90304,11.4789223 19.121024,11.6998167 L20.535424,13.1305718 C20.644416,13.2418622 20.785856,13.2966642 20.928128,13.2966642 C21.072064,13.2966642 21.214336,13.2418622 21.323328,13.1305718 C21.541312,12.9096774 21.541312,12.5521994 21.323328,12.3321481 L19.910592,10.9005499" id="Fill-11" sketch:type="MSShapeGroup"></path>
            <path d="M20.535424,15.4145528 L19.121024,16.8469941 C18.90304,17.0678886 18.90304,17.4245235 19.121024,17.6471041 C19.230016,17.7558651 19.37312,17.8123534 19.516224,17.8123534 C19.659328,17.8123534 19.802432,17.7558651 19.910592,17.6471041 L21.323328,16.2146628 C21.541312,15.9937683 21.541312,15.6346041 21.323328,15.4145528 C21.106176,15.1936584 20.751744,15.1936584 20.535424,15.4145528" id="Fill-12" sketch:type="MSShapeGroup"></path>
            <path d="M23.971584,13.2966642 C24.113856,13.2966642 24.25696,13.2418622 24.365952,13.1305718 L25.778688,11.6998167 C25.996672,11.4789223 25.996672,11.1197581 25.778688,10.9005499 C25.562368,10.6788123 25.207936,10.6788123 24.98912,10.9005499 L23.577216,12.3321481 C23.3584,12.5521994 23.3584,12.9096774 23.577216,13.1305718 C23.686208,13.2418622 23.829312,13.2966642 23.971584,13.2966642" id="Fill-13" sketch:type="MSShapeGroup"></path>
            <path d="M22.449856,16.0055718 C22.142016,16.0055718 21.890752,16.2593475 21.890752,16.5721408 L21.890752,19.6115469 C21.890752,19.922654 22.142016,20.1764296 22.449856,20.1764296 C22.757696,20.1764296 23.008128,19.922654 23.008128,19.6098607 L23.008128,16.5704545 C23.008128,16.2593475 22.757696,16.0055718 22.449856,16.0055718" id="Fill-14" sketch:type="MSShapeGroup"></path>
            <path d="M22.449856,8.36953812 C22.142016,8.36953812 21.890752,8.62331378 21.890752,8.93610704 L21.890752,11.9763563 C21.890752,12.2874633 22.142016,12.541239 22.449856,12.541239 C22.757696,12.541239 23.008128,12.2874633 23.008128,11.9763563 L23.008128,8.93610704 C23.008128,8.62331378 22.757696,8.36953812 22.449856,8.36953812" id="Fill-15" sketch:type="MSShapeGroup"></path>
            <path d="M20.181824,14.8378666 L20.181824,14.8378666 C20.491328,14.8378666 20.740096,14.5857771 20.740096,14.2729839 C20.740096,13.9601906 20.491328,13.7081012 20.181824,13.7081012 L17.182464,13.7081012 C16.874624,13.7081012 16.624192,13.9601906 16.624192,14.2729839 C16.624192,14.5857771 16.874624,14.8378666 17.182464,14.8378666 L20.181824,14.8378666" id="Fill-16" sketch:type="MSShapeGroup"></path>
            <path d="M27.71808,13.7081012 L24.717888,13.7081012 C24.409216,13.7081012 24.159616,13.9601906 24.159616,14.2729839 C24.159616,14.5857771 24.409216,14.8378666 24.717888,14.8378666 L27.71808,14.8378666 C28.02592,14.8378666 28.274688,14.5857771 28.274688,14.2729839 C28.274688,13.9601906 28.02592,13.7081012 27.71808,13.7081012" id="Fill-17" sketch:type="MSShapeGroup"></path>
            <path d="M17.117568,17.3933284 L16.592576,17.102456 L16.305536,16.5721408 C16.208192,16.3908724 16.020992,16.2770528 15.81632,16.2770528 C15.61248,16.2770528 15.424448,16.3908724 15.327104,16.5721408 L15.040064,17.102456 L14.516736,17.3933284 C14.337024,17.4928152 14.2272,17.6833578 14.2272,17.8890762 C14.2272,18.0964809 14.337024,18.2861804 14.516736,18.384824 L15.040064,18.6765396 L15.327104,19.2068548 C15.424448,19.3881232 15.61248,19.5010997 15.81632,19.5010997 C16.020992,19.5010997 16.208192,19.3881232 16.305536,19.2068548 L16.592576,18.6765396 L17.117568,18.384824 C17.296448,18.2861804 17.407936,18.0964809 17.407936,17.8890762 C17.407936,17.6833578 17.296448,17.4928152 17.117568,17.3933284" id="Fill-18" sketch:type="MSShapeGroup"></path>
            <path d="M4.758208,13.7047287 L5.0752,13.5302053 C5.25408,13.4315616 5.364736,13.2410191 5.364736,13.0344575 C5.364736,12.8270528 5.25408,12.6365103 5.0752,12.5378666 L4.758208,12.3616569 L4.58432,12.0404326 C4.486144,11.8591642 4.298112,11.7453446 4.094272,11.7453446 C3.890432,11.7453446 3.703232,11.8591642 3.604224,12.0404326 L3.431168,12.3616569 L3.114176,12.5378666 C2.934464,12.6365103 2.823808,12.8270528 2.823808,13.0344575 C2.823808,13.2410191 2.934464,13.4315616 3.114176,13.5302053 L3.431168,13.7047287 L3.604224,14.0276393 C3.703232,14.2089076 3.890432,14.3210411 4.094272,14.3210411 C4.298112,14.3210411 4.486144,14.2089076 4.58432,14.0276393 L4.758208,13.7047287" id="Fill-19" sketch:type="MSShapeGroup"></path>
            <path d="M8.489728,2.7460044 L9.16032,3.11865836 L9.527232,3.79820381 C9.625408,3.97947214 9.814272,4.09329179 10.01728,4.09329179 C10.221952,4.09329179 10.409152,3.97947214 10.506496,3.79820381 L10.873408,3.11865836 L11.544832,2.7460044 C11.724544,2.6473607 11.836032,2.4585044 11.836032,2.2502566 C11.836032,2.04453812 11.724544,1.8539956 11.544832,1.7545088 L10.873408,1.38269795 L10.506496,0.702309384 C10.409152,0.521884164 10.221952,0.408064516 10.01728,0.408064516 C9.814272,0.408064516 9.625408,0.521884164 9.527232,0.702309384 L9.16032,1.38269795 L8.489728,1.7545088 C8.310848,1.8539956 8.200192,2.04453812 8.200192,2.2502566 C8.200192,2.4585044 8.310848,2.6473607 8.489728,2.7460044 L8.489728,2.7460044 Z M10.01728,2.13896628 C10.048896,2.1811217 10.084672,2.21906158 10.127104,2.2502566 C10.084672,2.28145161 10.048896,2.3202346 10.01728,2.36070381 C9.986496,2.3202346 9.949056,2.28145161 9.908288,2.2502566 C9.949056,2.21906158 9.986496,2.1811217 10.01728,2.13896628 L10.01728,2.13896628 Z" id="Fill-20" sketch:type="MSShapeGroup"></path>
        </g>
    </g>
</svg>