<svg width="32" height="232" viewBox="0 0 32 232" xmlns="http://www.w3.org/2000/svg" xmlns:sketch="http://www.bohemiancoding.com/sketch/ns"><title>world-food</title><g sketch:type="MSPage" fill="none"><g sketch:type="MSLayerGroup" fill="#3B444F"><path d="M30.366 6.879c-.21 0-.38.167-.38.373v3.073c0 .255-.119.484-.302.637l-.09-3.631c-.007-.247-.211-.444-.463-.444-.251 0-.458.197-.463.444l-.085 3.62c-.179-.154-.291-.376-.291-.626v-3.073c0-.207-.171-.373-.38-.373s-.38.167-.38.373v3.718c0 .665.421 1.232 1.014 1.465l-.309 13.004c-.002.122.045.24.133.328.087.087.206.136.331.136h.879c.256 0 .463-.203.463-.454l-.003-.051-.319-12.958c.6-.229 1.027-.8 1.027-1.469v-3.718c0-.207-.171-.373-.38-.373" id="Fill-1" sketch:type="MSShapeGroup"/><path d="M2.516 6.528c-.184.064-.304.236-.304.427v11.072c0 .25.206.453.461.454l-.291 7.212c-.006.123.04.243.128.332.087.089.208.139.334.139h.943c.254 0 .463-.203.463-.454l-.005-.06-.302-7.17h.01c.249 0 .455-.194.463-.439.001-.048.163-4.811.163-7.091 0-2.435-1.487-4.214-1.551-4.288-.125-.147-.33-.201-.514-.136zm1.092 7.408c-.034 1.469-.079 2.931-.101 3.638h-.371v-8.949c.278.625.517 1.429.517 2.328 0 .793-.019 1.891-.045 2.983z" id="Fill-2" sketch:type="MSShapeGroup"/><path d="M16.31 9.522c-3.827 0-6.942 3.056-6.942 6.811s3.115 6.81 6.942 6.81c3.822 0 6.932-3.044 6.941-6.792v-.018c0-3.755-3.113-6.811-6.941-6.811zm5.997 6.37h-2.168c-.07-2.061-.635-3.846-1.494-4.999 2.029.843 3.491 2.747 3.662 4.999zm-6.46-5.382v5.382h-2.44c.104-2.69 1.142-4.942 2.44-5.382zm0 6.29v5.356c-1.294-.439-2.33-2.678-2.439-5.356h2.439zm.925 5.356v-5.356h2.44c-.11 2.678-1.145 4.917-2.44 5.356zm0-6.263v-5.382c1.298.44 2.337 2.692 2.441 5.382h-2.441zm-2.799-4.999c-.858 1.152-1.423 2.937-1.493 4.999h-2.169c.171-2.252 1.633-4.156 3.662-4.999zm-3.659 5.906h2.167c.075 2.049.638 3.825 1.492 4.972-2.02-.839-3.479-2.733-3.659-4.972zm8.331 4.972c.854-1.148 1.418-2.923 1.492-4.972h2.167c-.181 2.24-1.639 4.133-3.66 4.972z" id="Fill-3" sketch:type="MSShapeGroup"/><path d="M16.31 6.089c-5.757 0-10.441 4.596-10.441 10.243 0 5.648 4.684 10.243 10.441 10.243 5.756 0 10.44-4.594 10.44-10.243 0-5.648-4.684-10.243-10.44-10.243zm0 18.669c-4.736 0-8.589-3.78-8.589-8.426 0-4.646 3.853-8.425 8.589-8.425 4.735 0 8.587 3.779 8.587 8.425 0 4.646-3.853 8.426-8.587 8.426z" id="Fill-4" sketch:type="MSShapeGroup"/></g><g sketch:type="MSLayerGroup" fill="#67747C"><path d="M30.366 46.879c-.21 0-.38.167-.38.373v3.073c0 .255-.119.484-.302.637l-.09-3.631c-.007-.247-.211-.444-.463-.444-.251 0-.458.197-.463.444l-.085 3.62c-.179-.154-.291-.376-.291-.626v-3.073c0-.207-.171-.373-.38-.373s-.38.167-.38.373v3.718c0 .665.421 1.232 1.014 1.465l-.309 13.004c-.002.122.045.24.133.328.087.087.206.136.331.136h.879c.256 0 .463-.203.463-.454l-.003-.051-.319-12.958c.6-.229 1.027-.8 1.027-1.469v-3.718c0-.207-.171-.373-.38-.373" id="Fill-1" sketch:type="MSShapeGroup"/><path d="M2.516 46.528c-.184.064-.304.236-.304.427v11.072c0 .25.206.453.461.454l-.291 7.212c-.006.123.04.243.128.332.087.089.208.139.334.139h.943c.254 0 .463-.203.463-.454l-.005-.06-.302-7.17h.01c.249 0 .455-.194.463-.439.001-.048.163-4.811.163-7.091 0-2.435-1.487-4.214-1.551-4.288-.125-.147-.33-.201-.514-.136zm1.092 7.408c-.034 1.469-.079 2.931-.101 3.638h-.371v-8.949c.278.625.517 1.429.517 2.328 0 .793-.019 1.891-.045 2.983z" id="Fill-2" sketch:type="MSShapeGroup"/><path d="M16.31 49.522c-3.827 0-6.942 3.056-6.942 6.811s3.115 6.81 6.942 6.81c3.822 0 6.932-3.044 6.941-6.792v-.018c0-3.755-3.113-6.811-6.941-6.811zm5.997 6.37h-2.168c-.07-2.061-.635-3.846-1.494-4.999 2.029.843 3.491 2.747 3.662 4.999zm-6.46-5.382v5.382h-2.44c.104-2.69 1.142-4.942 2.44-5.382zm0 6.29v5.356c-1.294-.439-2.33-2.678-2.439-5.356h2.439zm.925 5.356v-5.356h2.44c-.11 2.678-1.145 4.917-2.44 5.356zm0-6.263v-5.382c1.298.44 2.337 2.692 2.441 5.382h-2.441zm-2.799-4.999c-.858 1.152-1.423 2.937-1.493 4.999h-2.169c.171-2.252 1.633-4.156 3.662-4.999zm-3.659 5.906h2.167c.075 2.049.638 3.825 1.492 4.972-2.02-.839-3.479-2.733-3.659-4.972zm8.331 4.972c.854-1.148 1.418-2.923 1.492-4.972h2.167c-.181 2.24-1.639 4.133-3.66 4.972z" id="Fill-3" sketch:type="MSShapeGroup"/><path d="M16.31 46.089c-5.757 0-10.441 4.596-10.441 10.243 0 5.648 4.684 10.243 10.441 10.243 5.756 0 10.44-4.594 10.44-10.243 0-5.648-4.684-10.243-10.44-10.243zm0 18.669c-4.736 0-8.589-3.78-8.589-8.426 0-4.646 3.853-8.425 8.589-8.425 4.735 0 8.587 3.779 8.587 8.425 0 4.646-3.853 8.426-8.587 8.426z" id="Fill-4" sketch:type="MSShapeGroup"/></g><g sketch:type="MSLayerGroup" fill="#fff"><path d="M30.366 86.879c-.21 0-.38.167-.38.373v3.073c0 .255-.119.484-.302.637l-.09-3.631c-.007-.247-.211-.444-.463-.444-.251 0-.458.197-.463.444l-.085 3.62c-.179-.154-.291-.376-.291-.626v-3.073c0-.207-.171-.373-.38-.373s-.38.167-.38.373v3.718c0 .665.421 1.232 1.014 1.465l-.309 13.004c-.002.122.045.24.133.328.087.087.206.136.331.136h.879c.256 0 .463-.203.463-.454l-.003-.051-.319-12.958c.6-.229 1.027-.8 1.027-1.469v-3.718c0-.207-.171-.373-.38-.373" id="Fill-1" sketch:type="MSShapeGroup"/><path d="M2.516 86.528c-.184.064-.304.236-.304.427v11.072c0 .25.206.453.461.454l-.291 7.212c-.006.123.04.243.128.332.087.089.208.139.334.139h.943c.254 0 .463-.203.463-.454l-.005-.06-.302-7.17h.01c.249 0 .455-.194.463-.439.001-.048.163-4.811.163-7.091 0-2.435-1.487-4.214-1.551-4.288-.125-.147-.33-.201-.514-.136zm1.092 7.408c-.034 1.469-.079 2.931-.101 3.638h-.371v-8.949c.278.625.517 1.429.517 2.328 0 .793-.019 1.891-.045 2.983z" id="Fill-2" sketch:type="MSShapeGroup"/><path d="M16.31 89.522c-3.827 0-6.942 3.056-6.942 6.811s3.115 6.81 6.942 6.81c3.822 0 6.932-3.044 6.941-6.792v-.018c0-3.755-3.113-6.811-6.941-6.811zm5.997 6.37h-2.168c-.07-2.061-.635-3.846-1.494-4.999 2.029.843 3.491 2.747 3.662 4.999zm-6.46-5.382v5.382h-2.44c.104-2.69 1.142-4.942 2.44-5.382zm0 6.29v5.356c-1.294-.439-2.33-2.678-2.439-5.356h2.439zm.925 5.356v-5.356h2.44c-.11 2.678-1.145 4.917-2.44 5.356zm0-6.263v-5.382c1.298.44 2.337 2.692 2.441 5.382h-2.441zm-2.799-4.999c-.858 1.152-1.423 2.937-1.493 4.999h-2.169c.171-2.252 1.633-4.156 3.662-4.999zm-3.659 5.906h2.167c.075 2.049.638 3.825 1.492 4.972-2.02-.839-3.479-2.733-3.659-4.972zm8.331 4.972c.854-1.148 1.418-2.923 1.492-4.972h2.167c-.181 2.24-1.639 4.133-3.66 4.972z" id="Fill-3" sketch:type="MSShapeGroup"/><path d="M16.31 86.089c-5.757 0-10.441 4.596-10.441 10.243 0 5.648 4.684 10.243 10.441 10.243 5.756 0 10.44-4.594 10.44-10.243 0-5.648-4.684-10.243-10.44-10.243zm0 18.669c-4.736 0-8.589-3.78-8.589-8.426 0-4.646 3.853-8.425 8.589-8.425 4.735 0 8.587 3.779 8.587 8.425 0 4.646-3.853 8.426-8.587 8.426z" id="Fill-4" sketch:type="MSShapeGroup"/></g><g sketch:type="MSLayerGroup" fill="#206FAC"><path d="M30.366 126.879c-.21 0-.38.167-.38.373v3.073c0 .255-.119.484-.302.637l-.09-3.631c-.007-.247-.211-.444-.463-.444-.251 0-.458.197-.463.444l-.085 3.62c-.179-.154-.291-.376-.291-.626v-3.073c0-.207-.171-.373-.38-.373s-.38.167-.38.373v3.718c0 .665.421 1.232 1.014 1.465l-.309 13.004c-.002.122.045.24.133.328.087.087.206.136.331.136h.879c.256 0 .463-.203.463-.454l-.003-.051-.319-12.958c.6-.229 1.027-.8 1.027-1.469v-3.718c0-.207-.171-.373-.38-.373" sketch:type="MSShapeGroup"/><path d="M2.516 126.528c-.184.064-.304.236-.304.427v11.072c0 .25.206.453.461.454l-.291 7.212c-.006.123.04.243.128.332.087.089.208.139.334.139h.943c.254 0 .463-.203.463-.454l-.005-.06-.302-7.17h.01c.249 0 .455-.194.463-.439.001-.048.163-4.811.163-7.091 0-2.435-1.487-4.214-1.551-4.288-.125-.147-.33-.201-.514-.136zm1.092 7.408c-.034 1.469-.079 2.931-.101 3.638h-.371v-8.949c.278.625.517 1.429.517 2.328 0 .793-.019 1.891-.045 2.983z" sketch:type="MSShapeGroup"/><path d="M16.31 129.522c-3.827 0-6.942 3.056-6.942 6.811s3.115 6.81 6.942 6.81c3.822 0 6.932-3.044 6.941-6.792v-.018c0-3.755-3.113-6.811-6.941-6.811zm5.997 6.37h-2.168c-.07-2.061-.635-3.846-1.494-4.999 2.029.843 3.491 2.747 3.662 4.999zm-6.46-5.382v5.382h-2.44c.104-2.69 1.142-4.942 2.44-5.382zm0 6.29v5.356c-1.294-.439-2.33-2.678-2.439-5.356h2.439zm.925 5.356v-5.356h2.44c-.11 2.678-1.145 4.917-2.44 5.356zm0-6.263v-5.382c1.298.44 2.337 2.692 2.441 5.382h-2.441zm-2.799-4.999c-.858 1.152-1.423 2.937-1.493 4.999h-2.169c.171-2.252 1.633-4.156 3.662-4.999zm-3.659 5.906h2.167c.075 2.049.638 3.825 1.492 4.972-2.02-.839-3.479-2.733-3.659-4.972zm8.331 4.972c.854-1.148 1.418-2.923 1.492-4.972h2.167c-.181 2.24-1.639 4.133-3.66 4.972z" sketch:type="MSShapeGroup"/><path d="M16.31 126.089c-5.757 0-10.441 4.596-10.441 10.243 0 5.648 4.684 10.243 10.441 10.243 5.756 0 10.44-4.594 10.44-10.243 0-5.648-4.684-10.243-10.44-10.243zm0 18.669c-4.736 0-8.589-3.78-8.589-8.426 0-4.646 3.853-8.425 8.589-8.425 4.735 0 8.587 3.779 8.587 8.425 0 4.646-3.853 8.426-8.587 8.426z" sketch:type="MSShapeGroup"/></g></g></svg>