<?xml version="1.0" encoding="UTF-8" standalone="no"?>
<svg width="32px" height="232px" viewBox="0 0 32 232" version="1.1" xmlns="http://www.w3.org/2000/svg" xmlns:xlink="http://www.w3.org/1999/xlink" xmlns:sketch="http://www.bohemiancoding.com/sketch/ns">
    <!-- Generator: Sketch 3.0.1 (7597) - http://www.bohemiancoding.com/sketch -->
    <title>world-food</title>
    <description>Created with Sketch.</description>
    <defs></defs>
    <g id="Points-of-interest" stroke="none" stroke-width="1" fill="none" fill-rule="evenodd" sketch:type="MSPage">
        <g id="World-food-3" sketch:type="MSLayerGroup" transform="translate(2.000000, 6.000000)" fill="#3B444F">
            <path d="M28.3661429,0.879290323 C28.1562381,0.879290323 27.986381,1.04593548 27.986381,1.25254839 L27.986381,4.326 C27.986381,4.5813871 27.867619,4.81035484 27.6839524,4.96277419 L27.5941905,1.33180645 C27.5872857,1.08454839 27.3829048,0.887419355 27.130881,0.887419355 C26.8795476,0.887419355 26.6730952,1.08454839 26.6675714,1.33180645 L26.5826429,4.95193548 C26.4038095,4.79816129 26.2912619,4.57596774 26.2912619,4.326 L26.2912619,1.25254839 C26.2912619,1.04593548 26.1207143,0.879290323 25.9115,0.879290323 C25.7022857,0.879290323 25.5317381,1.04593548 25.5317381,1.25254839 L25.5317381,4.97022581 C25.5317381,5.63477419 25.9529286,6.20245161 26.5460476,6.43480645 L26.2367143,19.4385484 C26.2346429,19.5604839 26.2815952,19.6790323 26.3692857,19.7664194 C26.4562857,19.8538065 26.5757381,19.9025806 26.7000238,19.9025806 L27.579,19.9025806 C27.8351667,19.9025806 28.0423095,19.7000323 28.0423095,19.4487097 C28.0423095,19.4317742 28.0409286,19.4148387 28.0388571,19.3972258 L27.7198571,6.43887097 C28.319881,6.20990323 28.7465952,5.63883871 28.7465952,4.97022581 L28.7465952,1.25254839 C28.7465952,1.04593548 28.5760476,0.879290323 28.3661429,0.879290323" id="Fill-1" sketch:type="MSShapeGroup"></path>
            <path d="M0.515785714,0.527709677 C0.332119048,0.592064516 0.211285714,0.763451613 0.211285714,0.95516129 L0.211285714,12.0275806 C0.211285714,12.2775484 0.417047619,12.4800968 0.67252381,12.4814516 L0.381833333,19.6939355 C0.376309524,19.8165484 0.421880952,19.937129 0.509571429,20.025871 C0.596571429,20.1146129 0.717404762,20.1647419 0.843761905,20.1647419 L1.78419048,20.1647419 L1.78695238,20.1647419 C2.04104762,20.1647419 2.2502619,19.9621935 2.2502619,19.710871 C2.2502619,19.6912258 2.24819048,19.6702258 2.24542857,19.6512581 L1.94369048,12.4814516 L1.95404762,12.4814516 C2.20330952,12.4814516 2.40907143,12.2870323 2.41735714,12.0424839 C2.4187381,11.9943871 2.58030952,7.23145161 2.58030952,4.95193548 C2.58030952,2.51729032 1.09302381,0.737709677 1.0295,0.663870968 C0.90452381,0.516870968 0.699452381,0.462677419 0.515785714,0.527709677 L0.515785714,0.527709677 Z M1.60811905,7.93529032 C1.57428571,9.40393548 1.52940476,10.8664839 1.50661905,11.5730323 L1.13583333,11.5730323 L1.13583333,2.62364516 C1.41340476,3.24890323 1.653,4.05232258 1.653,4.95193548 C1.653,5.74451613 1.63435714,6.8426129 1.60811905,7.93529032 L1.60811905,7.93529032 Z" id="Fill-2" sketch:type="MSShapeGroup"></path>
            <path d="M14.310119,3.52190323 C10.4828095,3.52190323 7.36807143,6.57774194 7.36807143,10.3326774 C7.36807143,14.0876129 10.4828095,17.1427742 14.310119,17.1427742 C18.1319048,17.1427742 21.2418095,14.0984516 21.2514762,10.3502903 L21.2514762,10.3462258 L21.2514762,10.3435161 L21.2514762,10.3326774 C21.2514762,6.57774194 18.138119,3.52190323 14.310119,3.52190323 L14.310119,3.52190323 Z M20.3075952,9.89235484 L18.1395,9.89235484 C18.0690714,7.83096774 17.5049524,6.04596774 16.646,4.89367742 C18.6753095,5.7363871 20.1370476,7.6406129 20.3075952,9.89235484 L20.3075952,9.89235484 Z M13.8475,4.51025806 L13.8475,9.89235484 L11.4073571,9.89235484 C11.5109286,7.20232258 12.5494048,4.95058065 13.8475,4.51025806 L13.8475,4.51025806 Z M13.8475,10.8000968 L13.8475,16.1557742 C12.5535476,15.7168065 11.5178333,13.4779355 11.4080476,10.8000968 L13.8475,10.8000968 L13.8475,10.8000968 Z M14.7720476,16.1557742 L14.7720476,10.8000968 L17.2121905,10.8000968 C17.1024048,13.4779355 16.0666905,15.7168065 14.7720476,16.1557742 L14.7720476,16.1557742 Z M14.7720476,9.89235484 L14.7720476,4.51025806 C16.0701429,4.95058065 17.1093095,7.20232258 17.212881,9.89235484 L14.7720476,9.89235484 L14.7720476,9.89235484 Z M11.9735476,4.89367742 C11.1159762,6.04596774 10.5504762,7.83096774 10.4807381,9.89235484 L8.31195238,9.89235484 C8.48319048,7.6406129 9.94492857,5.7363871 11.9735476,4.89367742 L11.9735476,4.89367742 Z M8.31471429,10.8000968 L10.4814286,10.8000968 C10.556,12.8492903 11.1194286,14.6248065 11.9735476,15.7723548 C9.95321429,14.9330323 8.49492857,13.0396452 8.31471429,10.8000968 L8.31471429,10.8000968 Z M16.646,15.7723548 C17.500119,14.6248065 18.0642381,12.8492903 18.138119,10.8000968 L20.3055238,10.8000968 C20.124619,13.0396452 18.6670238,14.9330323 16.646,15.7723548 L16.646,15.7723548 Z" id="Fill-3" sketch:type="MSShapeGroup"></path>
            <path d="M14.310119,0.0894193548 C8.55292857,0.0894193548 3.86942857,4.68503226 3.86942857,10.3326774 C3.86942857,15.981 8.55292857,20.5752581 14.310119,20.5752581 C20.066619,20.5752581 24.750119,15.981 24.750119,10.3326774 C24.750119,4.68503226 20.066619,0.0894193548 14.310119,0.0894193548 L14.310119,0.0894193548 Z M14.310119,18.7584194 C9.57414286,18.7584194 5.72128571,14.9784194 5.72128571,10.3326774 C5.72128571,5.68625806 9.57414286,1.9076129 14.310119,1.9076129 C19.0447143,1.9076129 22.8975714,5.68625806 22.8975714,10.3326774 C22.8975714,14.9784194 19.0447143,18.7584194 14.310119,18.7584194 L14.310119,18.7584194 Z" id="Fill-4" sketch:type="MSShapeGroup"></path>
        </g>
        <g id="World-food-4" sketch:type="MSLayerGroup" transform="translate(2.000000, 46.000000)" fill="#67747C">
            <path d="M28.3661429,0.879290323 C28.1562381,0.879290323 27.986381,1.04593548 27.986381,1.25254839 L27.986381,4.326 C27.986381,4.5813871 27.867619,4.81035484 27.6839524,4.96277419 L27.5941905,1.33180645 C27.5872857,1.08454839 27.3829048,0.887419355 27.130881,0.887419355 C26.8795476,0.887419355 26.6730952,1.08454839 26.6675714,1.33180645 L26.5826429,4.95193548 C26.4038095,4.79816129 26.2912619,4.57596774 26.2912619,4.326 L26.2912619,1.25254839 C26.2912619,1.04593548 26.1207143,0.879290323 25.9115,0.879290323 C25.7022857,0.879290323 25.5317381,1.04593548 25.5317381,1.25254839 L25.5317381,4.97022581 C25.5317381,5.63477419 25.9529286,6.20245161 26.5460476,6.43480645 L26.2367143,19.4385484 C26.2346429,19.5604839 26.2815952,19.6790323 26.3692857,19.7664194 C26.4562857,19.8538065 26.5757381,19.9025806 26.7000238,19.9025806 L27.579,19.9025806 C27.8351667,19.9025806 28.0423095,19.7000323 28.0423095,19.4487097 C28.0423095,19.4317742 28.0409286,19.4148387 28.0388571,19.3972258 L27.7198571,6.43887097 C28.319881,6.20990323 28.7465952,5.63883871 28.7465952,4.97022581 L28.7465952,1.25254839 C28.7465952,1.04593548 28.5760476,0.879290323 28.3661429,0.879290323" id="Fill-1" sketch:type="MSShapeGroup"></path>
            <path d="M0.515785714,0.527709677 C0.332119048,0.592064516 0.211285714,0.763451613 0.211285714,0.95516129 L0.211285714,12.0275806 C0.211285714,12.2775484 0.417047619,12.4800968 0.67252381,12.4814516 L0.381833333,19.6939355 C0.376309524,19.8165484 0.421880952,19.937129 0.509571429,20.025871 C0.596571429,20.1146129 0.717404762,20.1647419 0.843761905,20.1647419 L1.78419048,20.1647419 L1.78695238,20.1647419 C2.04104762,20.1647419 2.2502619,19.9621935 2.2502619,19.710871 C2.2502619,19.6912258 2.24819048,19.6702258 2.24542857,19.6512581 L1.94369048,12.4814516 L1.95404762,12.4814516 C2.20330952,12.4814516 2.40907143,12.2870323 2.41735714,12.0424839 C2.4187381,11.9943871 2.58030952,7.23145161 2.58030952,4.95193548 C2.58030952,2.51729032 1.09302381,0.737709677 1.0295,0.663870968 C0.90452381,0.516870968 0.699452381,0.462677419 0.515785714,0.527709677 L0.515785714,0.527709677 Z M1.60811905,7.93529032 C1.57428571,9.40393548 1.52940476,10.8664839 1.50661905,11.5730323 L1.13583333,11.5730323 L1.13583333,2.62364516 C1.41340476,3.24890323 1.653,4.05232258 1.653,4.95193548 C1.653,5.74451613 1.63435714,6.8426129 1.60811905,7.93529032 L1.60811905,7.93529032 Z" id="Fill-2" sketch:type="MSShapeGroup"></path>
            <path d="M14.310119,3.52190323 C10.4828095,3.52190323 7.36807143,6.57774194 7.36807143,10.3326774 C7.36807143,14.0876129 10.4828095,17.1427742 14.310119,17.1427742 C18.1319048,17.1427742 21.2418095,14.0984516 21.2514762,10.3502903 L21.2514762,10.3462258 L21.2514762,10.3435161 L21.2514762,10.3326774 C21.2514762,6.57774194 18.138119,3.52190323 14.310119,3.52190323 L14.310119,3.52190323 Z M20.3075952,9.89235484 L18.1395,9.89235484 C18.0690714,7.83096774 17.5049524,6.04596774 16.646,4.89367742 C18.6753095,5.7363871 20.1370476,7.6406129 20.3075952,9.89235484 L20.3075952,9.89235484 Z M13.8475,4.51025806 L13.8475,9.89235484 L11.4073571,9.89235484 C11.5109286,7.20232258 12.5494048,4.95058065 13.8475,4.51025806 L13.8475,4.51025806 Z M13.8475,10.8000968 L13.8475,16.1557742 C12.5535476,15.7168065 11.5178333,13.4779355 11.4080476,10.8000968 L13.8475,10.8000968 L13.8475,10.8000968 Z M14.7720476,16.1557742 L14.7720476,10.8000968 L17.2121905,10.8000968 C17.1024048,13.4779355 16.0666905,15.7168065 14.7720476,16.1557742 L14.7720476,16.1557742 Z M14.7720476,9.89235484 L14.7720476,4.51025806 C16.0701429,4.95058065 17.1093095,7.20232258 17.212881,9.89235484 L14.7720476,9.89235484 L14.7720476,9.89235484 Z M11.9735476,4.89367742 C11.1159762,6.04596774 10.5504762,7.83096774 10.4807381,9.89235484 L8.31195238,9.89235484 C8.48319048,7.6406129 9.94492857,5.7363871 11.9735476,4.89367742 L11.9735476,4.89367742 Z M8.31471429,10.8000968 L10.4814286,10.8000968 C10.556,12.8492903 11.1194286,14.6248065 11.9735476,15.7723548 C9.95321429,14.9330323 8.49492857,13.0396452 8.31471429,10.8000968 L8.31471429,10.8000968 Z M16.646,15.7723548 C17.500119,14.6248065 18.0642381,12.8492903 18.138119,10.8000968 L20.3055238,10.8000968 C20.124619,13.0396452 18.6670238,14.9330323 16.646,15.7723548 L16.646,15.7723548 Z" id="Fill-3" sketch:type="MSShapeGroup"></path>
            <path d="M14.310119,0.0894193548 C8.55292857,0.0894193548 3.86942857,4.68503226 3.86942857,10.3326774 C3.86942857,15.981 8.55292857,20.5752581 14.310119,20.5752581 C20.066619,20.5752581 24.750119,15.981 24.750119,10.3326774 C24.750119,4.68503226 20.066619,0.0894193548 14.310119,0.0894193548 L14.310119,0.0894193548 Z M14.310119,18.7584194 C9.57414286,18.7584194 5.72128571,14.9784194 5.72128571,10.3326774 C5.72128571,5.68625806 9.57414286,1.9076129 14.310119,1.9076129 C19.0447143,1.9076129 22.8975714,5.68625806 22.8975714,10.3326774 C22.8975714,14.9784194 19.0447143,18.7584194 14.310119,18.7584194 L14.310119,18.7584194 Z" id="Fill-4" sketch:type="MSShapeGroup"></path>
        </g>
        <g id="World-food-5" sketch:type="MSLayerGroup" transform="translate(2.000000, 86.000000)" fill="#FFFFFF">
            <path d="M28.3661429,0.879290323 C28.1562381,0.879290323 27.986381,1.04593548 27.986381,1.25254839 L27.986381,4.326 C27.986381,4.5813871 27.867619,4.81035484 27.6839524,4.96277419 L27.5941905,1.33180645 C27.5872857,1.08454839 27.3829048,0.887419355 27.130881,0.887419355 C26.8795476,0.887419355 26.6730952,1.08454839 26.6675714,1.33180645 L26.5826429,4.95193548 C26.4038095,4.79816129 26.2912619,4.57596774 26.2912619,4.326 L26.2912619,1.25254839 C26.2912619,1.04593548 26.1207143,0.879290323 25.9115,0.879290323 C25.7022857,0.879290323 25.5317381,1.04593548 25.5317381,1.25254839 L25.5317381,4.97022581 C25.5317381,5.63477419 25.9529286,6.20245161 26.5460476,6.43480645 L26.2367143,19.4385484 C26.2346429,19.5604839 26.2815952,19.6790323 26.3692857,19.7664194 C26.4562857,19.8538065 26.5757381,19.9025806 26.7000238,19.9025806 L27.579,19.9025806 C27.8351667,19.9025806 28.0423095,19.7000323 28.0423095,19.4487097 C28.0423095,19.4317742 28.0409286,19.4148387 28.0388571,19.3972258 L27.7198571,6.43887097 C28.319881,6.20990323 28.7465952,5.63883871 28.7465952,4.97022581 L28.7465952,1.25254839 C28.7465952,1.04593548 28.5760476,0.879290323 28.3661429,0.879290323" id="Fill-1" sketch:type="MSShapeGroup"></path>
            <path d="M0.515785714,0.527709677 C0.332119048,0.592064516 0.211285714,0.763451613 0.211285714,0.95516129 L0.211285714,12.0275806 C0.211285714,12.2775484 0.417047619,12.4800968 0.67252381,12.4814516 L0.381833333,19.6939355 C0.376309524,19.8165484 0.421880952,19.937129 0.509571429,20.025871 C0.596571429,20.1146129 0.717404762,20.1647419 0.843761905,20.1647419 L1.78419048,20.1647419 L1.78695238,20.1647419 C2.04104762,20.1647419 2.2502619,19.9621935 2.2502619,19.710871 C2.2502619,19.6912258 2.24819048,19.6702258 2.24542857,19.6512581 L1.94369048,12.4814516 L1.95404762,12.4814516 C2.20330952,12.4814516 2.40907143,12.2870323 2.41735714,12.0424839 C2.4187381,11.9943871 2.58030952,7.23145161 2.58030952,4.95193548 C2.58030952,2.51729032 1.09302381,0.737709677 1.0295,0.663870968 C0.90452381,0.516870968 0.699452381,0.462677419 0.515785714,0.527709677 L0.515785714,0.527709677 Z M1.60811905,7.93529032 C1.57428571,9.40393548 1.52940476,10.8664839 1.50661905,11.5730323 L1.13583333,11.5730323 L1.13583333,2.62364516 C1.41340476,3.24890323 1.653,4.05232258 1.653,4.95193548 C1.653,5.74451613 1.63435714,6.8426129 1.60811905,7.93529032 L1.60811905,7.93529032 Z" id="Fill-2" sketch:type="MSShapeGroup"></path>
            <path d="M14.310119,3.52190323 C10.4828095,3.52190323 7.36807143,6.57774194 7.36807143,10.3326774 C7.36807143,14.0876129 10.4828095,17.1427742 14.310119,17.1427742 C18.1319048,17.1427742 21.2418095,14.0984516 21.2514762,10.3502903 L21.2514762,10.3462258 L21.2514762,10.3435161 L21.2514762,10.3326774 C21.2514762,6.57774194 18.138119,3.52190323 14.310119,3.52190323 L14.310119,3.52190323 Z M20.3075952,9.89235484 L18.1395,9.89235484 C18.0690714,7.83096774 17.5049524,6.04596774 16.646,4.89367742 C18.6753095,5.7363871 20.1370476,7.6406129 20.3075952,9.89235484 L20.3075952,9.89235484 Z M13.8475,4.51025806 L13.8475,9.89235484 L11.4073571,9.89235484 C11.5109286,7.20232258 12.5494048,4.95058065 13.8475,4.51025806 L13.8475,4.51025806 Z M13.8475,10.8000968 L13.8475,16.1557742 C12.5535476,15.7168065 11.5178333,13.4779355 11.4080476,10.8000968 L13.8475,10.8000968 L13.8475,10.8000968 Z M14.7720476,16.1557742 L14.7720476,10.8000968 L17.2121905,10.8000968 C17.1024048,13.4779355 16.0666905,15.7168065 14.7720476,16.1557742 L14.7720476,16.1557742 Z M14.7720476,9.89235484 L14.7720476,4.51025806 C16.0701429,4.95058065 17.1093095,7.20232258 17.212881,9.89235484 L14.7720476,9.89235484 L14.7720476,9.89235484 Z M11.9735476,4.89367742 C11.1159762,6.04596774 10.5504762,7.83096774 10.4807381,9.89235484 L8.31195238,9.89235484 C8.48319048,7.6406129 9.94492857,5.7363871 11.9735476,4.89367742 L11.9735476,4.89367742 Z M8.31471429,10.8000968 L10.4814286,10.8000968 C10.556,12.8492903 11.1194286,14.6248065 11.9735476,15.7723548 C9.95321429,14.9330323 8.49492857,13.0396452 8.31471429,10.8000968 L8.31471429,10.8000968 Z M16.646,15.7723548 C17.500119,14.6248065 18.0642381,12.8492903 18.138119,10.8000968 L20.3055238,10.8000968 C20.124619,13.0396452 18.6670238,14.9330323 16.646,15.7723548 L16.646,15.7723548 Z" id="Fill-3" sketch:type="MSShapeGroup"></path>
            <path d="M14.310119,0.0894193548 C8.55292857,0.0894193548 3.86942857,4.68503226 3.86942857,10.3326774 C3.86942857,15.981 8.55292857,20.5752581 14.310119,20.5752581 C20.066619,20.5752581 24.750119,15.981 24.750119,10.3326774 C24.750119,4.68503226 20.066619,0.0894193548 14.310119,0.0894193548 L14.310119,0.0894193548 Z M14.310119,18.7584194 C9.57414286,18.7584194 5.72128571,14.9784194 5.72128571,10.3326774 C5.72128571,5.68625806 9.57414286,1.9076129 14.310119,1.9076129 C19.0447143,1.9076129 22.8975714,5.68625806 22.8975714,10.3326774 C22.8975714,14.9784194 19.0447143,18.7584194 14.310119,18.7584194 L14.310119,18.7584194 Z" id="Fill-4" sketch:type="MSShapeGroup"></path>
        </g>
        <g id="World-food-6" sketch:type="MSLayerGroup" transform="translate(2.000000, 126.000000)" fill="#206FAC">
            <path d="M28.3661429,0.879290323 C28.1562381,0.879290323 27.986381,1.04593548 27.986381,1.25254839 L27.986381,4.326 C27.986381,4.5813871 27.867619,4.81035484 27.6839524,4.96277419 L27.5941905,1.33180645 C27.5872857,1.08454839 27.3829048,0.887419355 27.130881,0.887419355 C26.8795476,0.887419355 26.6730952,1.08454839 26.6675714,1.33180645 L26.5826429,4.95193548 C26.4038095,4.79816129 26.2912619,4.57596774 26.2912619,4.326 L26.2912619,1.25254839 C26.2912619,1.04593548 26.1207143,0.879290323 25.9115,0.879290323 C25.7022857,0.879290323 25.5317381,1.04593548 25.5317381,1.25254839 L25.5317381,4.97022581 C25.5317381,5.63477419 25.9529286,6.20245161 26.5460476,6.43480645 L26.2367143,19.4385484 C26.2346429,19.5604839 26.2815952,19.6790323 26.3692857,19.7664194 C26.4562857,19.8538065 26.5757381,19.9025806 26.7000238,19.9025806 L27.579,19.9025806 C27.8351667,19.9025806 28.0423095,19.7000323 28.0423095,19.4487097 C28.0423095,19.4317742 28.0409286,19.4148387 28.0388571,19.3972258 L27.7198571,6.43887097 C28.319881,6.20990323 28.7465952,5.63883871 28.7465952,4.97022581 L28.7465952,1.25254839 C28.7465952,1.04593548 28.5760476,0.879290323 28.3661429,0.879290323" id="Fill-1" sketch:type="MSShapeGroup"></path>
            <path d="M0.515785714,0.527709677 C0.332119048,0.592064516 0.211285714,0.763451613 0.211285714,0.95516129 L0.211285714,12.0275806 C0.211285714,12.2775484 0.417047619,12.4800968 0.67252381,12.4814516 L0.381833333,19.6939355 C0.376309524,19.8165484 0.421880952,19.937129 0.509571429,20.025871 C0.596571429,20.1146129 0.717404762,20.1647419 0.843761905,20.1647419 L1.78419048,20.1647419 L1.78695238,20.1647419 C2.04104762,20.1647419 2.2502619,19.9621935 2.2502619,19.710871 C2.2502619,19.6912258 2.24819048,19.6702258 2.24542857,19.6512581 L1.94369048,12.4814516 L1.95404762,12.4814516 C2.20330952,12.4814516 2.40907143,12.2870323 2.41735714,12.0424839 C2.4187381,11.9943871 2.58030952,7.23145161 2.58030952,4.95193548 C2.58030952,2.51729032 1.09302381,0.737709677 1.0295,0.663870968 C0.90452381,0.516870968 0.699452381,0.462677419 0.515785714,0.527709677 L0.515785714,0.527709677 Z M1.60811905,7.93529032 C1.57428571,9.40393548 1.52940476,10.8664839 1.50661905,11.5730323 L1.13583333,11.5730323 L1.13583333,2.62364516 C1.41340476,3.24890323 1.653,4.05232258 1.653,4.95193548 C1.653,5.74451613 1.63435714,6.8426129 1.60811905,7.93529032 L1.60811905,7.93529032 Z" id="Fill-2" sketch:type="MSShapeGroup"></path>
            <path d="M14.310119,3.52190323 C10.4828095,3.52190323 7.36807143,6.57774194 7.36807143,10.3326774 C7.36807143,14.0876129 10.4828095,17.1427742 14.310119,17.1427742 C18.1319048,17.1427742 21.2418095,14.0984516 21.2514762,10.3502903 L21.2514762,10.3462258 L21.2514762,10.3435161 L21.2514762,10.3326774 C21.2514762,6.57774194 18.138119,3.52190323 14.310119,3.52190323 L14.310119,3.52190323 Z M20.3075952,9.89235484 L18.1395,9.89235484 C18.0690714,7.83096774 17.5049524,6.04596774 16.646,4.89367742 C18.6753095,5.7363871 20.1370476,7.6406129 20.3075952,9.89235484 L20.3075952,9.89235484 Z M13.8475,4.51025806 L13.8475,9.89235484 L11.4073571,9.89235484 C11.5109286,7.20232258 12.5494048,4.95058065 13.8475,4.51025806 L13.8475,4.51025806 Z M13.8475,10.8000968 L13.8475,16.1557742 C12.5535476,15.7168065 11.5178333,13.4779355 11.4080476,10.8000968 L13.8475,10.8000968 L13.8475,10.8000968 Z M14.7720476,16.1557742 L14.7720476,10.8000968 L17.2121905,10.8000968 C17.1024048,13.4779355 16.0666905,15.7168065 14.7720476,16.1557742 L14.7720476,16.1557742 Z M14.7720476,9.89235484 L14.7720476,4.51025806 C16.0701429,4.95058065 17.1093095,7.20232258 17.212881,9.89235484 L14.7720476,9.89235484 L14.7720476,9.89235484 Z M11.9735476,4.89367742 C11.1159762,6.04596774 10.5504762,7.83096774 10.4807381,9.89235484 L8.31195238,9.89235484 C8.48319048,7.6406129 9.94492857,5.7363871 11.9735476,4.89367742 L11.9735476,4.89367742 Z M8.31471429,10.8000968 L10.4814286,10.8000968 C10.556,12.8492903 11.1194286,14.6248065 11.9735476,15.7723548 C9.95321429,14.9330323 8.49492857,13.0396452 8.31471429,10.8000968 L8.31471429,10.8000968 Z M16.646,15.7723548 C17.500119,14.6248065 18.0642381,12.8492903 18.138119,10.8000968 L20.3055238,10.8000968 C20.124619,13.0396452 18.6670238,14.9330323 16.646,15.7723548 L16.646,15.7723548 Z" id="Fill-3" sketch:type="MSShapeGroup"></path>
            <path d="M14.310119,0.0894193548 C8.55292857,0.0894193548 3.86942857,4.68503226 3.86942857,10.3326774 C3.86942857,15.981 8.55292857,20.5752581 14.310119,20.5752581 C20.066619,20.5752581 24.750119,15.981 24.750119,10.3326774 C24.750119,4.68503226 20.066619,0.0894193548 14.310119,0.0894193548 L14.310119,0.0894193548 Z M14.310119,18.7584194 C9.57414286,18.7584194 5.72128571,14.9784194 5.72128571,10.3326774 C5.72128571,5.68625806 9.57414286,1.9076129 14.310119,1.9076129 C19.0447143,1.9076129 22.8975714,5.68625806 22.8975714,10.3326774 C22.8975714,14.9784194 19.0447143,18.7584194 14.310119,18.7584194 L14.310119,18.7584194 Z" id="Fill-4" sketch:type="MSShapeGroup"></path>
        </g>
    </g>
</svg>