<?xml version="1.0" encoding="UTF-8" standalone="no"?>
<svg width="32px" height="232px" viewBox="0 0 32 232" version="1.1" xmlns="http://www.w3.org/2000/svg" xmlns:xlink="http://www.w3.org/1999/xlink" xmlns:sketch="http://www.bohemiancoding.com/sketch/ns">
    <!-- Generator: Sketch 3.0 (7574) - http://www.bohemiancoding.com/sketch -->
    <title>Gear-and-tech</title>
    <description>Created with Sketch.</description>
    <defs></defs>
    <g id="Gold-destinations" stroke="none" stroke-width="1" fill="none" fill-rule="evenodd" sketch:type="MSPage">
        <g id="Slices" sketch:type="MSLayerGroup" transform="translate(-200.000000, 0.000000)"></g>
        <g id="Interests-Icons" sketch:type="MSLayerGroup" transform="translate(-194.000000, -1.000000)">
            <g id="Gear-and-tech" transform="translate(199.000000, 124.000000)" fill="#206FAC" sketch:type="MSShapeGroup">
                <path d="M22.7876571,13.3326389 L22.4180571,13.3326389 C22.2781714,12.7736111 22.0608,12.2430556 21.7700571,11.7479167 L22.032,11.4833333 C22.2116571,11.3006944 22.2116571,11.00625 22.032,10.8243056 L20.5673143,9.34236111 C20.4802286,9.25486111 20.3643429,9.20486111 20.2416,9.20486111 C20.1202286,9.20486111 20.0029714,9.25486111 19.9172571,9.34236111 L19.6566857,9.60694444 C19.1670857,9.3125 18.6418286,9.09236111 18.0918857,8.94930556 L18.0918857,8.57569444 C18.0918857,8.31875 17.8861714,8.11041667 17.6324571,8.11041667 L17.256,8.11041667 L17.256,9.5875 C17.3225143,9.68541667 17.4246857,9.75694444 17.5467429,9.78055556 C18.2358857,9.91180556 18.8797714,10.1833333 19.4612571,10.5847222 C19.6443429,10.7104167 19.8898286,10.6868056 20.0461714,10.5291667 L20.2416,10.3298611 L21.0555429,11.1541667 L20.8594286,11.3534722 C20.7017143,11.5118056 20.6804571,11.7590278 20.8045714,11.9451389 C21.2009143,12.5326389 21.4676571,13.1854167 21.5972571,13.8840278 C21.6390857,14.1041667 21.8290286,14.2631944 22.0498286,14.2631944 L22.3268571,14.2631944 L22.3268571,15.4284722 L22.0498286,15.4284722 C21.8290286,15.4284722 21.6390857,15.5881944 21.5972571,15.8076389 C21.4676571,16.50625 21.2009143,17.1583333 20.8045714,17.7465278 C20.6797714,17.9319444 20.7017143,18.1798611 20.8594286,18.3388889 L21.0555429,18.5381944 L20.2416,19.3611111 L20.0461714,19.1618056 C19.8898286,19.0048611 19.6443429,18.98125 19.4612571,19.1076389 C18.8797714,19.5083333 18.2358857,19.7791667 17.5467429,19.9104167 C17.4246857,19.9340278 17.3225143,20.00625 17.256,20.1034722 L17.256,21.58125 L17.6324571,21.58125 C17.8861714,21.58125 18.0918857,21.3729167 18.0918857,21.1159722 L18.0918857,20.7423611 C18.6418286,20.6 19.1670857,20.3798611 19.6566857,20.0854167 L19.9172571,20.35 C20.0029714,20.4375 20.1202286,20.4861111 20.2416,20.4861111 C20.3643429,20.4861111 20.4802286,20.4375 20.5673143,20.35 L22.032,18.8673611 C22.2116571,18.6861111 22.2116571,18.3902778 22.032,18.2083333 L21.7700571,17.94375 C22.0608,17.4493056 22.2781714,16.91875 22.4180571,16.3597222 L22.7876571,16.3597222 C23.0420571,16.3597222 23.2477714,16.1506944 23.2477714,15.8944444 L23.2477714,13.7979167 C23.2477714,13.5402778 23.0420571,13.3326389 22.7876571,13.3326389" id="Fill-1"></path>
                <path d="M20.6461714,14.9319444 C20.6461714,12.8979167 19.1766857,11.2055556 17.256,10.8854167 L17.256,12.7951389 C18.1536,13.0798611 18.8064,13.9305556 18.8064,14.9319444 C18.8064,15.9340278 18.1536,16.7840278 17.256,17.0694444 L17.256,18.9791667 C19.1766857,18.6590278 20.6461714,16.9666667 20.6461714,14.9319444" id="Fill-2"></path>
                <path d="M8.41028571,2.09930556 C10.1430857,0.34375 12.9641143,0.34375 14.6982857,2.09930556 C14.7881143,2.19027778 14.9053714,2.23611111 15.024,2.23611111 C15.1412571,2.23611111 15.2585143,2.19027778 15.3483429,2.09930556 C15.5273143,1.91736111 15.5273143,1.62291667 15.3483429,1.44166667 C13.2562286,-0.678472222 9.85234286,-0.678472222 7.75885714,1.44166667 C7.57988571,1.62291667 7.57988571,1.91736111 7.75885714,2.09930556 C7.93851429,2.28125 8.22925714,2.28125 8.41028571,2.09930556" id="Fill-3"></path>
                <path d="M14.0208,3.44375 C14.2004571,3.26180556 14.2004571,2.96736111 14.0208,2.78541667 C12.6610286,1.40763889 10.4468571,1.40763889 9.08571429,2.78541667 C8.90674286,2.96736111 8.90674286,3.26180556 9.08571429,3.44375 C9.17622857,3.53402778 9.29485714,3.58055556 9.41211429,3.58055556 C9.52937143,3.58055556 9.64662857,3.53402778 9.73714286,3.44375 C10.7382857,2.43055556 12.3689143,2.43055556 13.3700571,3.44375 C13.5504,3.62638889 13.8411429,3.62638889 14.0208,3.44375" id="Fill-4"></path>
                <path d="M10.4139429,4.12986111 C10.2349714,4.31180556 10.2349714,4.60694444 10.4139429,4.78819444 C10.5936,4.97083333 10.8857143,4.97083333 11.0646857,4.78819444 C11.1956571,4.65625 11.3691429,4.58333333 11.5542857,4.58333333 C11.7387429,4.58333333 11.9122286,4.65625 12.0432,4.78819444 C12.1330286,4.87986111 12.2496,4.92430556 12.3682286,4.92430556 C12.4861714,4.92430556 12.6034286,4.87986111 12.6939429,4.78819444 C12.8729143,4.60694444 12.8729143,4.31111111 12.6939429,4.12986111 C12.3881143,3.82152778 11.9842286,3.65138889 11.5542857,3.65138889 C11.1243429,3.65138889 10.7190857,3.82152778 10.4139429,4.12986111" id="Fill-5"></path>
                <path d="M4.2,14.9625 C3.85234286,14.9625 3.56777143,15.2486111 3.56777143,15.6027778 C3.56777143,15.95625 3.85234286,16.2430556 4.2,16.2430556 C4.54902857,16.2430556 4.83222857,15.95625 4.83222857,15.6027778 C4.83222857,15.2486111 4.54902857,14.9625 4.2,14.9625 L4.2,14.9625 Z M4.2,15.8930556 C4.04091429,15.8930556 3.91268571,15.7631944 3.91268571,15.6027778 C3.91268571,15.4423611 4.04091429,15.3118056 4.2,15.3118056 C4.35771429,15.3118056 4.48731429,15.4423611 4.48731429,15.6027778 C4.48731429,15.7631944 4.35771429,15.8930556 4.2,15.8930556 L4.2,15.8930556 Z" id="Fill-6"></path>
                <path d="M15.5766857,6.77222222 L9.34834286,6.77222222 L9.34834286,8.63472222 L14.6571429,8.63472222 L14.6571429,22.2493056 L4.96045714,22.2493056 L4.96045714,19.3777778 L3.12137143,19.3777778 L3.12137143,23.1798611 C3.12137143,23.6951389 3.5328,24.1111111 4.04091429,24.1111111 L15.5766857,24.1111111 C16.0841143,24.1111111 16.4962286,23.6951389 16.4962286,23.1798611 L16.4962286,7.70347222 C16.4962286,7.18888889 16.0841143,6.77222222 15.5766857,6.77222222" id="Fill-7"></path>
                <path d="M4.96045714,18.6020833 L5.69828571,18.6020833 L5.69828571,18.6097222 L7.65188571,18.6097222 C8.16,18.6097222 8.57211429,18.1930556 8.57211429,17.6777778 L8.57211429,8.63472222 L8.5824,8.63472222 L8.5824,6.77222222 L8.57211429,6.77222222 L8.57211429,5.25555556 C8.57211429,4.74166667 8.16,4.32430556 7.65188571,4.32430556 L0.7488,4.32430556 C0.24,4.32430556 -0.172114286,4.74166667 -0.172114286,5.25555556 L-0.172114286,17.6777778 C-0.172114286,18.1930556 0.24,18.6097222 0.7488,18.6097222 L2.2656,18.6097222 L2.2656,18.6020833 L4.96045714,18.6020833 L4.96045714,18.6020833 Z M1.66765714,6.1875 L6.73302857,6.1875 L6.73302857,16.7472222 L1.66765714,16.7472222 L1.66765714,6.1875 Z" id="Fill-8"></path>
                <path d="M9.80845714,21.6763889 C10.2205714,21.6763889 10.5565714,21.3361111 10.5565714,20.91875 C10.5565714,20.5006944 10.2205714,20.1618056 9.80845714,20.1618056 C9.39634286,20.1618056 9.06034286,20.5006944 9.06034286,20.91875 C9.06034286,21.3361111 9.39634286,21.6763889 9.80845714,21.6763889 L9.80845714,21.6763889 Z M9.80845714,20.7451389 C9.90308571,20.7451389 9.98125714,20.8229167 9.98125714,20.91875 C9.98125714,21.0138889 9.90308571,21.0923611 9.80845714,21.0923611 C9.71382857,21.0923611 9.63702857,21.0138889 9.63702857,20.91875 C9.63702857,20.8229167 9.71382857,20.7451389 9.80845714,20.7451389 L9.80845714,20.7451389 Z" id="Fill-9"></path>
            </g>
            <g id="Gear-and-tech-2" transform="translate(199.000000, 45.000000)" fill="#67737B" sketch:type="MSShapeGroup">
                <path d="M22.7876571,13.3326389 L22.4180571,13.3326389 C22.2781714,12.7736111 22.0608,12.2430556 21.7700571,11.7479167 L22.032,11.4833333 C22.2116571,11.3006944 22.2116571,11.00625 22.032,10.8243056 L20.5673143,9.34236111 C20.4802286,9.25486111 20.3643429,9.20486111 20.2416,9.20486111 C20.1202286,9.20486111 20.0029714,9.25486111 19.9172571,9.34236111 L19.6566857,9.60694444 C19.1670857,9.3125 18.6418286,9.09236111 18.0918857,8.94930556 L18.0918857,8.57569444 C18.0918857,8.31875 17.8861714,8.11041667 17.6324571,8.11041667 L17.256,8.11041667 L17.256,9.5875 C17.3225143,9.68541667 17.4246857,9.75694444 17.5467429,9.78055556 C18.2358857,9.91180556 18.8797714,10.1833333 19.4612571,10.5847222 C19.6443429,10.7104167 19.8898286,10.6868056 20.0461714,10.5291667 L20.2416,10.3298611 L21.0555429,11.1541667 L20.8594286,11.3534722 C20.7017143,11.5118056 20.6804571,11.7590278 20.8045714,11.9451389 C21.2009143,12.5326389 21.4676571,13.1854167 21.5972571,13.8840278 C21.6390857,14.1041667 21.8290286,14.2631944 22.0498286,14.2631944 L22.3268571,14.2631944 L22.3268571,15.4284722 L22.0498286,15.4284722 C21.8290286,15.4284722 21.6390857,15.5881944 21.5972571,15.8076389 C21.4676571,16.50625 21.2009143,17.1583333 20.8045714,17.7465278 C20.6797714,17.9319444 20.7017143,18.1798611 20.8594286,18.3388889 L21.0555429,18.5381944 L20.2416,19.3611111 L20.0461714,19.1618056 C19.8898286,19.0048611 19.6443429,18.98125 19.4612571,19.1076389 C18.8797714,19.5083333 18.2358857,19.7791667 17.5467429,19.9104167 C17.4246857,19.9340278 17.3225143,20.00625 17.256,20.1034722 L17.256,21.58125 L17.6324571,21.58125 C17.8861714,21.58125 18.0918857,21.3729167 18.0918857,21.1159722 L18.0918857,20.7423611 C18.6418286,20.6 19.1670857,20.3798611 19.6566857,20.0854167 L19.9172571,20.35 C20.0029714,20.4375 20.1202286,20.4861111 20.2416,20.4861111 C20.3643429,20.4861111 20.4802286,20.4375 20.5673143,20.35 L22.032,18.8673611 C22.2116571,18.6861111 22.2116571,18.3902778 22.032,18.2083333 L21.7700571,17.94375 C22.0608,17.4493056 22.2781714,16.91875 22.4180571,16.3597222 L22.7876571,16.3597222 C23.0420571,16.3597222 23.2477714,16.1506944 23.2477714,15.8944444 L23.2477714,13.7979167 C23.2477714,13.5402778 23.0420571,13.3326389 22.7876571,13.3326389" id="Fill-1"></path>
                <path d="M20.6461714,14.9319444 C20.6461714,12.8979167 19.1766857,11.2055556 17.256,10.8854167 L17.256,12.7951389 C18.1536,13.0798611 18.8064,13.9305556 18.8064,14.9319444 C18.8064,15.9340278 18.1536,16.7840278 17.256,17.0694444 L17.256,18.9791667 C19.1766857,18.6590278 20.6461714,16.9666667 20.6461714,14.9319444" id="Fill-2"></path>
                <path d="M8.41028571,2.09930556 C10.1430857,0.34375 12.9641143,0.34375 14.6982857,2.09930556 C14.7881143,2.19027778 14.9053714,2.23611111 15.024,2.23611111 C15.1412571,2.23611111 15.2585143,2.19027778 15.3483429,2.09930556 C15.5273143,1.91736111 15.5273143,1.62291667 15.3483429,1.44166667 C13.2562286,-0.678472222 9.85234286,-0.678472222 7.75885714,1.44166667 C7.57988571,1.62291667 7.57988571,1.91736111 7.75885714,2.09930556 C7.93851429,2.28125 8.22925714,2.28125 8.41028571,2.09930556" id="Fill-3"></path>
                <path d="M14.0208,3.44375 C14.2004571,3.26180556 14.2004571,2.96736111 14.0208,2.78541667 C12.6610286,1.40763889 10.4468571,1.40763889 9.08571429,2.78541667 C8.90674286,2.96736111 8.90674286,3.26180556 9.08571429,3.44375 C9.17622857,3.53402778 9.29485714,3.58055556 9.41211429,3.58055556 C9.52937143,3.58055556 9.64662857,3.53402778 9.73714286,3.44375 C10.7382857,2.43055556 12.3689143,2.43055556 13.3700571,3.44375 C13.5504,3.62638889 13.8411429,3.62638889 14.0208,3.44375" id="Fill-4"></path>
                <path d="M10.4139429,4.12986111 C10.2349714,4.31180556 10.2349714,4.60694444 10.4139429,4.78819444 C10.5936,4.97083333 10.8857143,4.97083333 11.0646857,4.78819444 C11.1956571,4.65625 11.3691429,4.58333333 11.5542857,4.58333333 C11.7387429,4.58333333 11.9122286,4.65625 12.0432,4.78819444 C12.1330286,4.87986111 12.2496,4.92430556 12.3682286,4.92430556 C12.4861714,4.92430556 12.6034286,4.87986111 12.6939429,4.78819444 C12.8729143,4.60694444 12.8729143,4.31111111 12.6939429,4.12986111 C12.3881143,3.82152778 11.9842286,3.65138889 11.5542857,3.65138889 C11.1243429,3.65138889 10.7190857,3.82152778 10.4139429,4.12986111" id="Fill-5"></path>
                <path d="M4.2,14.9625 C3.85234286,14.9625 3.56777143,15.2486111 3.56777143,15.6027778 C3.56777143,15.95625 3.85234286,16.2430556 4.2,16.2430556 C4.54902857,16.2430556 4.83222857,15.95625 4.83222857,15.6027778 C4.83222857,15.2486111 4.54902857,14.9625 4.2,14.9625 L4.2,14.9625 Z M4.2,15.8930556 C4.04091429,15.8930556 3.91268571,15.7631944 3.91268571,15.6027778 C3.91268571,15.4423611 4.04091429,15.3118056 4.2,15.3118056 C4.35771429,15.3118056 4.48731429,15.4423611 4.48731429,15.6027778 C4.48731429,15.7631944 4.35771429,15.8930556 4.2,15.8930556 L4.2,15.8930556 Z" id="Fill-6"></path>
                <path d="M15.5766857,6.77222222 L9.34834286,6.77222222 L9.34834286,8.63472222 L14.6571429,8.63472222 L14.6571429,22.2493056 L4.96045714,22.2493056 L4.96045714,19.3777778 L3.12137143,19.3777778 L3.12137143,23.1798611 C3.12137143,23.6951389 3.5328,24.1111111 4.04091429,24.1111111 L15.5766857,24.1111111 C16.0841143,24.1111111 16.4962286,23.6951389 16.4962286,23.1798611 L16.4962286,7.70347222 C16.4962286,7.18888889 16.0841143,6.77222222 15.5766857,6.77222222" id="Fill-7"></path>
                <path d="M4.96045714,18.6020833 L5.69828571,18.6020833 L5.69828571,18.6097222 L7.65188571,18.6097222 C8.16,18.6097222 8.57211429,18.1930556 8.57211429,17.6777778 L8.57211429,8.63472222 L8.5824,8.63472222 L8.5824,6.77222222 L8.57211429,6.77222222 L8.57211429,5.25555556 C8.57211429,4.74166667 8.16,4.32430556 7.65188571,4.32430556 L0.7488,4.32430556 C0.24,4.32430556 -0.172114286,4.74166667 -0.172114286,5.25555556 L-0.172114286,17.6777778 C-0.172114286,18.1930556 0.24,18.6097222 0.7488,18.6097222 L2.2656,18.6097222 L2.2656,18.6020833 L4.96045714,18.6020833 L4.96045714,18.6020833 Z M1.66765714,6.1875 L6.73302857,6.1875 L6.73302857,16.7472222 L1.66765714,16.7472222 L1.66765714,6.1875 Z" id="Fill-8"></path>
                <path d="M9.80845714,21.6763889 C10.2205714,21.6763889 10.5565714,21.3361111 10.5565714,20.91875 C10.5565714,20.5006944 10.2205714,20.1618056 9.80845714,20.1618056 C9.39634286,20.1618056 9.06034286,20.5006944 9.06034286,20.91875 C9.06034286,21.3361111 9.39634286,21.6763889 9.80845714,21.6763889 L9.80845714,21.6763889 Z M9.80845714,20.7451389 C9.90308571,20.7451389 9.98125714,20.8229167 9.98125714,20.91875 C9.98125714,21.0138889 9.90308571,21.0923611 9.80845714,21.0923611 C9.71382857,21.0923611 9.63702857,21.0138889 9.63702857,20.91875 C9.63702857,20.8229167 9.71382857,20.7451389 9.80845714,20.7451389 L9.80845714,20.7451389 Z" id="Fill-9"></path>
            </g>
            <g id="Gear-and-tech-3" transform="translate(199.000000, 5.000000)" fill="#373D43" sketch:type="MSShapeGroup">
                <path d="M22.7876571,13.3326389 L22.4180571,13.3326389 C22.2781714,12.7736111 22.0608,12.2430556 21.7700571,11.7479167 L22.032,11.4833333 C22.2116571,11.3006944 22.2116571,11.00625 22.032,10.8243056 L20.5673143,9.34236111 C20.4802286,9.25486111 20.3643429,9.20486111 20.2416,9.20486111 C20.1202286,9.20486111 20.0029714,9.25486111 19.9172571,9.34236111 L19.6566857,9.60694444 C19.1670857,9.3125 18.6418286,9.09236111 18.0918857,8.94930556 L18.0918857,8.57569444 C18.0918857,8.31875 17.8861714,8.11041667 17.6324571,8.11041667 L17.256,8.11041667 L17.256,9.5875 C17.3225143,9.68541667 17.4246857,9.75694444 17.5467429,9.78055556 C18.2358857,9.91180556 18.8797714,10.1833333 19.4612571,10.5847222 C19.6443429,10.7104167 19.8898286,10.6868056 20.0461714,10.5291667 L20.2416,10.3298611 L21.0555429,11.1541667 L20.8594286,11.3534722 C20.7017143,11.5118056 20.6804571,11.7590278 20.8045714,11.9451389 C21.2009143,12.5326389 21.4676571,13.1854167 21.5972571,13.8840278 C21.6390857,14.1041667 21.8290286,14.2631944 22.0498286,14.2631944 L22.3268571,14.2631944 L22.3268571,15.4284722 L22.0498286,15.4284722 C21.8290286,15.4284722 21.6390857,15.5881944 21.5972571,15.8076389 C21.4676571,16.50625 21.2009143,17.1583333 20.8045714,17.7465278 C20.6797714,17.9319444 20.7017143,18.1798611 20.8594286,18.3388889 L21.0555429,18.5381944 L20.2416,19.3611111 L20.0461714,19.1618056 C19.8898286,19.0048611 19.6443429,18.98125 19.4612571,19.1076389 C18.8797714,19.5083333 18.2358857,19.7791667 17.5467429,19.9104167 C17.4246857,19.9340278 17.3225143,20.00625 17.256,20.1034722 L17.256,21.58125 L17.6324571,21.58125 C17.8861714,21.58125 18.0918857,21.3729167 18.0918857,21.1159722 L18.0918857,20.7423611 C18.6418286,20.6 19.1670857,20.3798611 19.6566857,20.0854167 L19.9172571,20.35 C20.0029714,20.4375 20.1202286,20.4861111 20.2416,20.4861111 C20.3643429,20.4861111 20.4802286,20.4375 20.5673143,20.35 L22.032,18.8673611 C22.2116571,18.6861111 22.2116571,18.3902778 22.032,18.2083333 L21.7700571,17.94375 C22.0608,17.4493056 22.2781714,16.91875 22.4180571,16.3597222 L22.7876571,16.3597222 C23.0420571,16.3597222 23.2477714,16.1506944 23.2477714,15.8944444 L23.2477714,13.7979167 C23.2477714,13.5402778 23.0420571,13.3326389 22.7876571,13.3326389" id="Fill-1"></path>
                <path d="M20.6461714,14.9319444 C20.6461714,12.8979167 19.1766857,11.2055556 17.256,10.8854167 L17.256,12.7951389 C18.1536,13.0798611 18.8064,13.9305556 18.8064,14.9319444 C18.8064,15.9340278 18.1536,16.7840278 17.256,17.0694444 L17.256,18.9791667 C19.1766857,18.6590278 20.6461714,16.9666667 20.6461714,14.9319444" id="Fill-2"></path>
                <path d="M8.41028571,2.09930556 C10.1430857,0.34375 12.9641143,0.34375 14.6982857,2.09930556 C14.7881143,2.19027778 14.9053714,2.23611111 15.024,2.23611111 C15.1412571,2.23611111 15.2585143,2.19027778 15.3483429,2.09930556 C15.5273143,1.91736111 15.5273143,1.62291667 15.3483429,1.44166667 C13.2562286,-0.678472222 9.85234286,-0.678472222 7.75885714,1.44166667 C7.57988571,1.62291667 7.57988571,1.91736111 7.75885714,2.09930556 C7.93851429,2.28125 8.22925714,2.28125 8.41028571,2.09930556" id="Fill-3"></path>
                <path d="M14.0208,3.44375 C14.2004571,3.26180556 14.2004571,2.96736111 14.0208,2.78541667 C12.6610286,1.40763889 10.4468571,1.40763889 9.08571429,2.78541667 C8.90674286,2.96736111 8.90674286,3.26180556 9.08571429,3.44375 C9.17622857,3.53402778 9.29485714,3.58055556 9.41211429,3.58055556 C9.52937143,3.58055556 9.64662857,3.53402778 9.73714286,3.44375 C10.7382857,2.43055556 12.3689143,2.43055556 13.3700571,3.44375 C13.5504,3.62638889 13.8411429,3.62638889 14.0208,3.44375" id="Fill-4"></path>
                <path d="M10.4139429,4.12986111 C10.2349714,4.31180556 10.2349714,4.60694444 10.4139429,4.78819444 C10.5936,4.97083333 10.8857143,4.97083333 11.0646857,4.78819444 C11.1956571,4.65625 11.3691429,4.58333333 11.5542857,4.58333333 C11.7387429,4.58333333 11.9122286,4.65625 12.0432,4.78819444 C12.1330286,4.87986111 12.2496,4.92430556 12.3682286,4.92430556 C12.4861714,4.92430556 12.6034286,4.87986111 12.6939429,4.78819444 C12.8729143,4.60694444 12.8729143,4.31111111 12.6939429,4.12986111 C12.3881143,3.82152778 11.9842286,3.65138889 11.5542857,3.65138889 C11.1243429,3.65138889 10.7190857,3.82152778 10.4139429,4.12986111" id="Fill-5"></path>
                <path d="M4.2,14.9625 C3.85234286,14.9625 3.56777143,15.2486111 3.56777143,15.6027778 C3.56777143,15.95625 3.85234286,16.2430556 4.2,16.2430556 C4.54902857,16.2430556 4.83222857,15.95625 4.83222857,15.6027778 C4.83222857,15.2486111 4.54902857,14.9625 4.2,14.9625 L4.2,14.9625 Z M4.2,15.8930556 C4.04091429,15.8930556 3.91268571,15.7631944 3.91268571,15.6027778 C3.91268571,15.4423611 4.04091429,15.3118056 4.2,15.3118056 C4.35771429,15.3118056 4.48731429,15.4423611 4.48731429,15.6027778 C4.48731429,15.7631944 4.35771429,15.8930556 4.2,15.8930556 L4.2,15.8930556 Z" id="Fill-6"></path>
                <path d="M15.5766857,6.77222222 L9.34834286,6.77222222 L9.34834286,8.63472222 L14.6571429,8.63472222 L14.6571429,22.2493056 L4.96045714,22.2493056 L4.96045714,19.3777778 L3.12137143,19.3777778 L3.12137143,23.1798611 C3.12137143,23.6951389 3.5328,24.1111111 4.04091429,24.1111111 L15.5766857,24.1111111 C16.0841143,24.1111111 16.4962286,23.6951389 16.4962286,23.1798611 L16.4962286,7.70347222 C16.4962286,7.18888889 16.0841143,6.77222222 15.5766857,6.77222222" id="Fill-7"></path>
                <path d="M4.96045714,18.6020833 L5.69828571,18.6020833 L5.69828571,18.6097222 L7.65188571,18.6097222 C8.16,18.6097222 8.57211429,18.1930556 8.57211429,17.6777778 L8.57211429,8.63472222 L8.5824,8.63472222 L8.5824,6.77222222 L8.57211429,6.77222222 L8.57211429,5.25555556 C8.57211429,4.74166667 8.16,4.32430556 7.65188571,4.32430556 L0.7488,4.32430556 C0.24,4.32430556 -0.172114286,4.74166667 -0.172114286,5.25555556 L-0.172114286,17.6777778 C-0.172114286,18.1930556 0.24,18.6097222 0.7488,18.6097222 L2.2656,18.6097222 L2.2656,18.6020833 L4.96045714,18.6020833 L4.96045714,18.6020833 Z M1.66765714,6.1875 L6.73302857,6.1875 L6.73302857,16.7472222 L1.66765714,16.7472222 L1.66765714,6.1875 Z" id="Fill-8"></path>
                <path d="M9.80845714,21.6763889 C10.2205714,21.6763889 10.5565714,21.3361111 10.5565714,20.91875 C10.5565714,20.5006944 10.2205714,20.1618056 9.80845714,20.1618056 C9.39634286,20.1618056 9.06034286,20.5006944 9.06034286,20.91875 C9.06034286,21.3361111 9.39634286,21.6763889 9.80845714,21.6763889 L9.80845714,21.6763889 Z M9.80845714,20.7451389 C9.90308571,20.7451389 9.98125714,20.8229167 9.98125714,20.91875 C9.98125714,21.0138889 9.90308571,21.0923611 9.80845714,21.0923611 C9.71382857,21.0923611 9.63702857,21.0138889 9.63702857,20.91875 C9.63702857,20.8229167 9.71382857,20.7451389 9.80845714,20.7451389 L9.80845714,20.7451389 Z" id="Fill-9"></path>
            </g>
            <g id="Gear-and-tech-4" transform="translate(199.000000, 84.000000)" fill="#FFFFFF" sketch:type="MSShapeGroup">
                <path d="M22.7876571,13.3326389 L22.4180571,13.3326389 C22.2781714,12.7736111 22.0608,12.2430556 21.7700571,11.7479167 L22.032,11.4833333 C22.2116571,11.3006944 22.2116571,11.00625 22.032,10.8243056 L20.5673143,9.34236111 C20.4802286,9.25486111 20.3643429,9.20486111 20.2416,9.20486111 C20.1202286,9.20486111 20.0029714,9.25486111 19.9172571,9.34236111 L19.6566857,9.60694444 C19.1670857,9.3125 18.6418286,9.09236111 18.0918857,8.94930556 L18.0918857,8.57569444 C18.0918857,8.31875 17.8861714,8.11041667 17.6324571,8.11041667 L17.256,8.11041667 L17.256,9.5875 C17.3225143,9.68541667 17.4246857,9.75694444 17.5467429,9.78055556 C18.2358857,9.91180556 18.8797714,10.1833333 19.4612571,10.5847222 C19.6443429,10.7104167 19.8898286,10.6868056 20.0461714,10.5291667 L20.2416,10.3298611 L21.0555429,11.1541667 L20.8594286,11.3534722 C20.7017143,11.5118056 20.6804571,11.7590278 20.8045714,11.9451389 C21.2009143,12.5326389 21.4676571,13.1854167 21.5972571,13.8840278 C21.6390857,14.1041667 21.8290286,14.2631944 22.0498286,14.2631944 L22.3268571,14.2631944 L22.3268571,15.4284722 L22.0498286,15.4284722 C21.8290286,15.4284722 21.6390857,15.5881944 21.5972571,15.8076389 C21.4676571,16.50625 21.2009143,17.1583333 20.8045714,17.7465278 C20.6797714,17.9319444 20.7017143,18.1798611 20.8594286,18.3388889 L21.0555429,18.5381944 L20.2416,19.3611111 L20.0461714,19.1618056 C19.8898286,19.0048611 19.6443429,18.98125 19.4612571,19.1076389 C18.8797714,19.5083333 18.2358857,19.7791667 17.5467429,19.9104167 C17.4246857,19.9340278 17.3225143,20.00625 17.256,20.1034722 L17.256,21.58125 L17.6324571,21.58125 C17.8861714,21.58125 18.0918857,21.3729167 18.0918857,21.1159722 L18.0918857,20.7423611 C18.6418286,20.6 19.1670857,20.3798611 19.6566857,20.0854167 L19.9172571,20.35 C20.0029714,20.4375 20.1202286,20.4861111 20.2416,20.4861111 C20.3643429,20.4861111 20.4802286,20.4375 20.5673143,20.35 L22.032,18.8673611 C22.2116571,18.6861111 22.2116571,18.3902778 22.032,18.2083333 L21.7700571,17.94375 C22.0608,17.4493056 22.2781714,16.91875 22.4180571,16.3597222 L22.7876571,16.3597222 C23.0420571,16.3597222 23.2477714,16.1506944 23.2477714,15.8944444 L23.2477714,13.7979167 C23.2477714,13.5402778 23.0420571,13.3326389 22.7876571,13.3326389" id="Fill-1"></path>
                <path d="M20.6461714,14.9319444 C20.6461714,12.8979167 19.1766857,11.2055556 17.256,10.8854167 L17.256,12.7951389 C18.1536,13.0798611 18.8064,13.9305556 18.8064,14.9319444 C18.8064,15.9340278 18.1536,16.7840278 17.256,17.0694444 L17.256,18.9791667 C19.1766857,18.6590278 20.6461714,16.9666667 20.6461714,14.9319444" id="Fill-2"></path>
                <path d="M8.41028571,2.09930556 C10.1430857,0.34375 12.9641143,0.34375 14.6982857,2.09930556 C14.7881143,2.19027778 14.9053714,2.23611111 15.024,2.23611111 C15.1412571,2.23611111 15.2585143,2.19027778 15.3483429,2.09930556 C15.5273143,1.91736111 15.5273143,1.62291667 15.3483429,1.44166667 C13.2562286,-0.678472222 9.85234286,-0.678472222 7.75885714,1.44166667 C7.57988571,1.62291667 7.57988571,1.91736111 7.75885714,2.09930556 C7.93851429,2.28125 8.22925714,2.28125 8.41028571,2.09930556" id="Fill-3"></path>
                <path d="M14.0208,3.44375 C14.2004571,3.26180556 14.2004571,2.96736111 14.0208,2.78541667 C12.6610286,1.40763889 10.4468571,1.40763889 9.08571429,2.78541667 C8.90674286,2.96736111 8.90674286,3.26180556 9.08571429,3.44375 C9.17622857,3.53402778 9.29485714,3.58055556 9.41211429,3.58055556 C9.52937143,3.58055556 9.64662857,3.53402778 9.73714286,3.44375 C10.7382857,2.43055556 12.3689143,2.43055556 13.3700571,3.44375 C13.5504,3.62638889 13.8411429,3.62638889 14.0208,3.44375" id="Fill-4"></path>
                <path d="M10.4139429,4.12986111 C10.2349714,4.31180556 10.2349714,4.60694444 10.4139429,4.78819444 C10.5936,4.97083333 10.8857143,4.97083333 11.0646857,4.78819444 C11.1956571,4.65625 11.3691429,4.58333333 11.5542857,4.58333333 C11.7387429,4.58333333 11.9122286,4.65625 12.0432,4.78819444 C12.1330286,4.87986111 12.2496,4.92430556 12.3682286,4.92430556 C12.4861714,4.92430556 12.6034286,4.87986111 12.6939429,4.78819444 C12.8729143,4.60694444 12.8729143,4.31111111 12.6939429,4.12986111 C12.3881143,3.82152778 11.9842286,3.65138889 11.5542857,3.65138889 C11.1243429,3.65138889 10.7190857,3.82152778 10.4139429,4.12986111" id="Fill-5"></path>
                <path d="M4.2,14.9625 C3.85234286,14.9625 3.56777143,15.2486111 3.56777143,15.6027778 C3.56777143,15.95625 3.85234286,16.2430556 4.2,16.2430556 C4.54902857,16.2430556 4.83222857,15.95625 4.83222857,15.6027778 C4.83222857,15.2486111 4.54902857,14.9625 4.2,14.9625 L4.2,14.9625 Z M4.2,15.8930556 C4.04091429,15.8930556 3.91268571,15.7631944 3.91268571,15.6027778 C3.91268571,15.4423611 4.04091429,15.3118056 4.2,15.3118056 C4.35771429,15.3118056 4.48731429,15.4423611 4.48731429,15.6027778 C4.48731429,15.7631944 4.35771429,15.8930556 4.2,15.8930556 L4.2,15.8930556 Z" id="Fill-6"></path>
                <path d="M15.5766857,6.77222222 L9.34834286,6.77222222 L9.34834286,8.63472222 L14.6571429,8.63472222 L14.6571429,22.2493056 L4.96045714,22.2493056 L4.96045714,19.3777778 L3.12137143,19.3777778 L3.12137143,23.1798611 C3.12137143,23.6951389 3.5328,24.1111111 4.04091429,24.1111111 L15.5766857,24.1111111 C16.0841143,24.1111111 16.4962286,23.6951389 16.4962286,23.1798611 L16.4962286,7.70347222 C16.4962286,7.18888889 16.0841143,6.77222222 15.5766857,6.77222222" id="Fill-7"></path>
                <path d="M4.96045714,18.6020833 L5.69828571,18.6020833 L5.69828571,18.6097222 L7.65188571,18.6097222 C8.16,18.6097222 8.57211429,18.1930556 8.57211429,17.6777778 L8.57211429,8.63472222 L8.5824,8.63472222 L8.5824,6.77222222 L8.57211429,6.77222222 L8.57211429,5.25555556 C8.57211429,4.74166667 8.16,4.32430556 7.65188571,4.32430556 L0.7488,4.32430556 C0.24,4.32430556 -0.172114286,4.74166667 -0.172114286,5.25555556 L-0.172114286,17.6777778 C-0.172114286,18.1930556 0.24,18.6097222 0.7488,18.6097222 L2.2656,18.6097222 L2.2656,18.6020833 L4.96045714,18.6020833 L4.96045714,18.6020833 Z M1.66765714,6.1875 L6.73302857,6.1875 L6.73302857,16.7472222 L1.66765714,16.7472222 L1.66765714,6.1875 Z" id="Fill-8"></path>
                <path d="M9.80845714,21.6763889 C10.2205714,21.6763889 10.5565714,21.3361111 10.5565714,20.91875 C10.5565714,20.5006944 10.2205714,20.1618056 9.80845714,20.1618056 C9.39634286,20.1618056 9.06034286,20.5006944 9.06034286,20.91875 C9.06034286,21.3361111 9.39634286,21.6763889 9.80845714,21.6763889 L9.80845714,21.6763889 Z M9.80845714,20.7451389 C9.90308571,20.7451389 9.98125714,20.8229167 9.98125714,20.91875 C9.98125714,21.0138889 9.90308571,21.0923611 9.80845714,21.0923611 C9.71382857,21.0923611 9.63702857,21.0138889 9.63702857,20.91875 C9.63702857,20.8229167 9.71382857,20.7451389 9.80845714,20.7451389 L9.80845714,20.7451389 Z" id="Fill-9"></path>
            </g>
        </g>
    </g>
</svg>