<svg width="32" height="232" viewBox="0 0 32 232" xmlns="http://www.w3.org/2000/svg" xmlns:sketch="http://www.bohemiancoding.com/sketch/ns"><title>Gear-and-tech</title><g sketch:type="MSPage" fill="none"><g sketch:type="MSLayerGroup"><g fill="#206FAC" sketch:type="MSShapeGroup"><path d="M27.788 136.333h-.37c-.14-.559-.357-1.09-.648-1.585l.262-.265c.18-.183.18-.477 0-.659l-1.465-1.482c-.087-.088-.203-.138-.326-.138-.121 0-.239.05-.324.138l-.261.265c-.49-.294-1.015-.515-1.565-.658v-.374c0-.257-.206-.465-.459-.465h-.376v1.477c.067.098.169.169.291.193.689.131 1.333.403 1.915.804.183.126.429.102.585-.056l.195-.199.814.824-.196.199c-.158.158-.179.406-.055.592.396.588.663 1.24.793 1.939.042.22.232.379.453.379h.277v1.165h-.277c-.221 0-.411.16-.453.379-.13.699-.396 1.351-.793 1.939-.125.185-.103.433.055.592l.196.199-.814.823-.195-.199c-.156-.157-.402-.181-.585-.054-.581.401-1.225.672-1.915.803-.122.024-.224.096-.291.193v1.478h.376c.254 0 .459-.208.459-.465v-.374c.55-.142 1.075-.363 1.565-.657l.261.265c.086.087.203.136.324.136.123 0 .239-.049.326-.136l1.465-1.483c.18-.181.18-.477 0-.659l-.262-.265c.291-.494.508-1.025.648-1.584h.37c.254 0 .46-.209.46-.465v-2.097c0-.258-.206-.465-.46-.465" id="Fill-1"/><path d="M25.646 137.932c0-2.034-1.469-3.726-3.39-4.047v1.91c.898.285 1.55 1.135 1.55 2.137s-.653 1.852-1.55 2.137v1.91c1.921-.32 3.39-2.012 3.39-4.047" id="Fill-2"/><path d="M13.41 125.099c1.733-1.756 4.554-1.756 6.288 0 .09.091.207.137.326.137.117 0 .235-.046.324-.137.179-.182.179-.476 0-.658-2.092-2.12-5.496-2.12-7.589 0-.179.181-.179.476 0 .658.18.182.47.182.651 0" id="Fill-3"/><path d="M19.021 126.444c.18-.182.18-.476 0-.658-1.36-1.378-3.574-1.378-4.935 0-.179.182-.179.476 0 .658.091.09.209.137.326.137.117 0 .235-.047.325-.137 1.001-1.013 2.632-1.013 3.633 0 .18.183.471.183.651 0" id="Fill-4"/><path d="M15.414 127.13c-.179.182-.179.477 0 .658.18.183.472.183.651 0 .131-.132.304-.205.49-.205.184 0 .358.073.489.205.09.092.206.136.325.136.118 0 .235-.044.326-.136.179-.181.179-.477 0-.658-.306-.308-.71-.478-1.14-.478-.43 0-.835.17-1.14.478" id="Fill-5"/><path d="M9.2 137.963c-.348 0-.632.286-.632.64 0 .353.285.64.632.64.349 0 .632-.287.632-.64 0-.354-.283-.64-.632-.64zm0 .931c-.159 0-.287-.13-.287-.29 0-.16.128-.291.287-.291.158 0 .287.131.287.291 0 .16-.13.29-.287.29z" id="Fill-6"/><path d="M20.577 129.772h-6.228v1.863h5.309v13.615h-9.697v-2.872h-1.839v3.802c0 .515.411.931.92.931h11.536c.507 0 .92-.416.92-.931v-15.476c0-.515-.412-.931-.92-.931" id="Fill-7"/><path d="M9.96 141.602h.738v.008h1.954c.508 0 .92-.417.92-.932v-9.043h.01v-1.863h-.01v-1.517c0-.514-.412-.931-.92-.931h-6.903c-.509 0-.921.417-.921.931v12.422c0 .515.412.932.921.932h1.517v-.008h2.695zm-3.293-12.415h5.065v10.56h-5.065v-10.56z" id="Fill-8"/><path d="M14.808 144.676c.412 0 .748-.34.748-.758s-.336-.757-.748-.757-.748.339-.748.757c0 .417.336.758.748.758zm0-.931c.095 0 .173.078.173.174 0 .095-.078.174-.173.174-.095 0-.171-.078-.171-.174 0-.096.077-.174.171-.174z" id="Fill-9"/></g><g fill="#67737B" sketch:type="MSShapeGroup"><path d="M27.788 57.333h-.37c-.14-.559-.357-1.09-.648-1.585l.262-.265c.18-.183.18-.477 0-.659l-1.465-1.482c-.087-.088-.203-.138-.326-.138-.121 0-.239.05-.324.138l-.261.265c-.49-.294-1.015-.515-1.565-.658v-.374c0-.257-.206-.465-.459-.465h-.376v1.477c.067.098.169.169.291.193.689.131 1.333.403 1.915.804.183.126.429.102.585-.056l.195-.199.814.824-.196.199c-.158.158-.179.406-.055.592.396.588.663 1.24.793 1.939.042.22.232.379.453.379h.277v1.165h-.277c-.221 0-.411.16-.453.379-.13.699-.396 1.351-.793 1.939-.125.185-.103.433.055.592l.196.199-.814.823-.195-.199c-.156-.157-.402-.181-.585-.054-.581.401-1.225.672-1.915.803-.122.024-.224.096-.291.193v1.478h.376c.254 0 .459-.208.459-.465v-.374c.55-.142 1.075-.363 1.565-.657l.261.265c.086.087.203.136.324.136.123 0 .239-.049.326-.136l1.465-1.483c.18-.181.18-.477 0-.659l-.262-.265c.291-.494.508-1.025.648-1.584h.37c.254 0 .46-.209.46-.465v-2.097c0-.258-.206-.465-.46-.465" id="Fill-1"/><path d="M25.646 58.932c0-2.034-1.469-3.726-3.39-4.047v1.91c.898.285 1.55 1.135 1.55 2.137s-.653 1.852-1.55 2.137v1.91c1.921-.32 3.39-2.012 3.39-4.047" id="Fill-2"/><path d="M13.41 46.099c1.733-1.756 4.554-1.756 6.288 0 .09.091.207.137.326.137.117 0 .235-.046.324-.137.179-.182.179-.476 0-.658-2.092-2.12-5.496-2.12-7.589 0-.179.181-.179.476 0 .658.18.182.47.182.651 0" id="Fill-3"/><path d="M19.021 47.444c.18-.182.18-.476 0-.658-1.36-1.378-3.574-1.378-4.935 0-.179.182-.179.476 0 .658.091.09.209.137.326.137.117 0 .235-.047.325-.137 1.001-1.013 2.632-1.013 3.633 0 .18.183.471.183.651 0" id="Fill-4"/><path d="M15.414 48.13c-.179.182-.179.477 0 .658.18.183.472.183.651 0 .131-.132.304-.205.49-.205.184 0 .358.073.489.205.09.092.206.136.325.136.118 0 .235-.044.326-.136.179-.181.179-.477 0-.658-.306-.308-.71-.478-1.14-.478-.43 0-.835.17-1.14.478" id="Fill-5"/><path d="M9.2 58.962c-.348 0-.632.286-.632.64 0 .353.285.64.632.64.349 0 .632-.287.632-.64 0-.354-.283-.64-.632-.64zm0 .931c-.159 0-.287-.13-.287-.29 0-.16.128-.291.287-.291.158 0 .287.131.287.291 0 .16-.13.29-.287.29z" id="Fill-6"/><path d="M20.577 50.772h-6.228v1.863h5.309v13.615h-9.697v-2.872h-1.839v3.802c0 .515.411.931.92.931h11.536c.507 0 .92-.416.92-.931v-15.476c0-.515-.412-.931-.92-.931" id="Fill-7"/><path d="M9.96 62.602h.738v.008h1.954c.508 0 .92-.417.92-.932v-9.043h.01v-1.863h-.01v-1.517c0-.514-.412-.931-.92-.931h-6.903c-.509 0-.921.417-.921.931v12.422c0 .515.412.932.921.932h1.517v-.008h2.695zm-3.293-12.415h5.065v10.56h-5.065v-10.56z" id="Fill-8"/><path d="M14.808 65.676c.412 0 .748-.34.748-.758s-.336-.757-.748-.757-.748.339-.748.757c0 .417.336.758.748.758zm0-.931c.095 0 .173.078.173.174 0 .095-.078.174-.173.174-.095 0-.171-.078-.171-.174 0-.096.077-.174.171-.174z" id="Fill-9"/></g><g fill="#373D43" sketch:type="MSShapeGroup"><path d="M27.788 17.333h-.37c-.14-.559-.357-1.09-.648-1.585l.262-.265c.18-.183.18-.477 0-.659l-1.465-1.482c-.087-.088-.203-.138-.326-.138-.121 0-.239.05-.324.138l-.261.265c-.49-.294-1.015-.515-1.565-.658v-.374c0-.257-.206-.465-.459-.465h-.376v1.477c.067.098.169.169.291.193.689.131 1.333.403 1.915.804.183.126.429.102.585-.056l.195-.199.814.824-.196.199c-.158.158-.179.406-.055.592.396.588.663 1.24.793 1.939.042.22.232.379.453.379h.277v1.165h-.277c-.221 0-.411.16-.453.379-.13.699-.396 1.351-.793 1.939-.125.185-.103.433.055.592l.196.199-.814.823-.195-.199c-.156-.157-.402-.181-.585-.054-.581.401-1.225.672-1.915.803-.122.024-.224.096-.291.193v1.478h.376c.254 0 .459-.208.459-.465v-.374c.55-.142 1.075-.363 1.565-.657l.261.265c.086.087.203.136.324.136.123 0 .239-.049.326-.136l1.465-1.483c.18-.181.18-.477 0-.659l-.262-.265c.291-.494.508-1.025.648-1.584h.37c.254 0 .46-.209.46-.465v-2.097c0-.258-.206-.465-.46-.465" id="Fill-1"/><path d="M25.646 18.932c0-2.034-1.469-3.726-3.39-4.047v1.91c.898.285 1.55 1.135 1.55 2.137s-.653 1.852-1.55 2.137v1.91c1.921-.32 3.39-2.012 3.39-4.047" id="Fill-2"/><path d="M13.41 6.099c1.733-1.756 4.554-1.756 6.288 0 .09.091.207.137.326.137.117 0 .235-.046.324-.137.179-.182.179-.476 0-.658-2.092-2.12-5.496-2.12-7.589 0-.179.181-.179.476 0 .658.18.182.47.182.651 0" id="Fill-3"/><path d="M19.021 7.444c.18-.182.18-.476 0-.658-1.36-1.378-3.574-1.378-4.935 0-.179.182-.179.476 0 .658.091.09.209.137.326.137.117 0 .235-.047.325-.137 1.001-1.013 2.632-1.013 3.633 0 .18.183.471.183.651 0" id="Fill-4"/><path d="M15.414 8.13c-.179.182-.179.477 0 .658.18.183.472.183.651 0 .131-.132.304-.205.49-.205.184 0 .358.073.489.205.09.092.206.136.325.136.118 0 .235-.044.326-.136.179-.181.179-.477 0-.658-.306-.308-.71-.478-1.14-.478-.43 0-.835.17-1.14.478" id="Fill-5"/><path d="M9.2 18.962c-.348 0-.632.286-.632.64 0 .353.285.64.632.64.349 0 .632-.287.632-.64 0-.354-.283-.64-.632-.64zm0 .931c-.159 0-.287-.13-.287-.29 0-.16.128-.291.287-.291.158 0 .287.131.287.291 0 .16-.13.29-.287.29z" id="Fill-6"/><path d="M20.577 10.772h-6.228v1.863h5.309v13.615h-9.697v-2.872h-1.839v3.802c0 .515.411.931.92.931h11.536c.507 0 .92-.416.92-.931v-15.476c0-.515-.412-.931-.92-.931" id="Fill-7"/><path d="M9.96 22.602h.738v.008h1.954c.508 0 .92-.417.92-.932v-9.043h.01v-1.863h-.01v-1.517c0-.514-.412-.931-.92-.931h-6.903c-.509 0-.921.417-.921.931v12.422c0 .515.412.932.921.932h1.517v-.008h2.695zm-3.293-12.415h5.065v10.56h-5.065v-10.56z" id="Fill-8"/><path d="M14.808 25.676c.412 0 .748-.34.748-.758s-.336-.757-.748-.757-.748.339-.748.757c0 .417.336.758.748.758zm0-.931c.095 0 .173.078.173.174 0 .095-.078.174-.173.174-.095 0-.171-.078-.171-.174 0-.096.077-.174.171-.174z" id="Fill-9"/></g><g fill="#fff" sketch:type="MSShapeGroup"><path d="M27.788 96.333h-.37c-.14-.559-.357-1.09-.648-1.585l.262-.265c.18-.183.18-.477 0-.659l-1.465-1.482c-.087-.088-.203-.138-.326-.138-.121 0-.239.05-.324.138l-.261.265c-.49-.294-1.015-.515-1.565-.658v-.374c0-.257-.206-.465-.459-.465h-.376v1.477c.067.098.169.169.291.193.689.131 1.333.403 1.915.804.183.126.429.102.585-.056l.195-.199.814.824-.196.199c-.158.158-.179.406-.055.592.396.588.663 1.24.793 1.939.042.22.232.379.453.379h.277v1.165h-.277c-.221 0-.411.16-.453.379-.13.699-.396 1.351-.793 1.939-.125.185-.103.433.055.592l.196.199-.814.823-.195-.199c-.156-.157-.402-.181-.585-.054-.581.401-1.225.672-1.915.803-.122.024-.224.096-.291.193v1.478h.376c.254 0 .459-.208.459-.465v-.374c.55-.142 1.075-.363 1.565-.657l.261.265c.086.087.203.136.324.136.123 0 .239-.049.326-.136l1.465-1.483c.18-.181.18-.477 0-.659l-.262-.265c.291-.494.508-1.025.648-1.584h.37c.254 0 .46-.209.46-.465v-2.097c0-.258-.206-.465-.46-.465"/><path d="M25.646 97.932c0-2.034-1.469-3.726-3.39-4.047v1.91c.898.285 1.55 1.135 1.55 2.137s-.653 1.852-1.55 2.137v1.91c1.921-.32 3.39-2.012 3.39-4.047"/><path d="M13.41 85.099c1.733-1.756 4.554-1.756 6.288 0 .09.091.207.137.326.137.117 0 .235-.046.324-.137.179-.182.179-.476 0-.658-2.092-2.12-5.496-2.12-7.589 0-.179.181-.179.476 0 .658.18.182.47.182.651 0"/><path d="M19.021 86.444c.18-.182.18-.476 0-.658-1.36-1.378-3.574-1.378-4.935 0-.179.182-.179.476 0 .658.091.09.209.137.326.137.117 0 .235-.047.325-.137 1.001-1.013 2.632-1.013 3.633 0 .18.183.471.183.651 0"/><path d="M15.414 87.13c-.179.182-.179.477 0 .658.18.183.472.183.651 0 .131-.132.304-.205.49-.205.184 0 .358.073.489.205.09.092.206.136.325.136.118 0 .235-.044.326-.136.179-.181.179-.477 0-.658-.306-.308-.71-.478-1.14-.478-.43 0-.835.17-1.14.478"/><path d="M9.2 97.963c-.348 0-.632.286-.632.64 0 .353.285.64.632.64.349 0 .632-.287.632-.64 0-.354-.283-.64-.632-.64zm0 .931c-.159 0-.287-.13-.287-.29 0-.16.128-.291.287-.291.158 0 .287.131.287.291 0 .16-.13.29-.287.29z"/><path d="M20.577 89.772h-6.228v1.863h5.309v13.615h-9.697v-2.872h-1.839v3.802c0 .515.411.931.92.931h11.536c.507 0 .92-.416.92-.931v-15.476c0-.515-.412-.931-.92-.931"/><path d="M9.96 101.602h.738v.008h1.954c.508 0 .92-.417.92-.932v-9.043h.01v-1.863h-.01v-1.517c0-.514-.412-.931-.92-.931h-6.903c-.509 0-.921.417-.921.931v12.422c0 .515.412.932.921.932h1.517v-.008h2.695zm-3.293-12.415h5.065v10.56h-5.065v-10.56z"/><path d="M14.808 104.676c.412 0 .748-.34.748-.758s-.336-.757-.748-.757-.748.339-.748.757c0 .417.336.758.748.758zm0-.931c.095 0 .173.078.173.174 0 .095-.078.174-.173.174-.095 0-.171-.078-.171-.174 0-.096.077-.174.171-.174z"/></g></g></g></svg>