<?xml version="1.0" encoding="UTF-8" standalone="no"?>
<svg width="32px" height="232px" viewBox="0 0 32 232" version="1.1" xmlns="http://www.w3.org/2000/svg" xmlns:xlink="http://www.w3.org/1999/xlink" xmlns:sketch="http://www.bohemiancoding.com/sketch/ns">
    <!-- Generator: Sketch 3.0 (7574) - http://www.bohemiancoding.com/sketch -->
    <title>honeymoons</title>
    <description>Created with Sketch.</description>
    <defs></defs>
    <g id="Gold-destinations" stroke="none" stroke-width="1" fill="none" fill-rule="evenodd" sketch:type="MSPage">
        <g id="Slices" sketch:type="MSLayerGroup" transform="translate(-240.000000, 0.000000)"></g>
        <g id="Interests-Icons" sketch:type="MSLayerGroup" transform="translate(-234.000000, -1.000000)">
            <g id="Honeymoons" transform="translate(237.000000, 126.000000)" fill="#206FAC" sketch:type="MSShapeGroup">
                <path d="M17.7066842,4.86996774 C15.8504211,4.86996774 14.144,5.51148387 12.7967895,6.58045161 C12.3157895,6.96319355 11.8813158,7.40080645 11.5015789,7.88245161 C10.465,9.2013871 9.84510526,10.857 9.84510526,12.6535161 C9.84510526,14.2305484 10.3233684,15.6991935 11.141,16.9266774 C11.6473158,16.535129 12.0817895,16.0561935 12.4197895,15.5122258 C11.9948947,14.7467419 11.7355789,13.8816774 11.6876842,12.9597097 C11.6835789,12.8587742 11.6808421,12.7558065 11.6808421,12.6535161 C11.6808421,12.5505484 11.6835789,12.4489355 11.6876842,12.3466452 C11.7492632,11.1787742 12.1515789,10.0989677 12.7967895,9.20003226 C13.1587368,8.69806452 13.5945789,8.253 14.092,7.88245161 C14.7132632,7.41977419 15.4282632,7.07293548 16.2034737,6.87512903 C16.3957368,6.82635484 16.5907368,6.78570968 16.7912105,6.75590323 C17.0895263,6.71051613 17.3953684,6.68748387 17.7066842,6.68748387 C18.018,6.68748387 18.3252105,6.71051613 18.6235263,6.75590323 C18.8226316,6.78570968 19.019,6.82635484 19.2112632,6.87512903 C19.2899474,6.89477419 19.3679474,6.91645161 19.4438947,6.93948387 C19.5985263,6.98554839 19.7497368,7.03703226 19.8968421,7.0946129 C20.0453158,7.15219355 20.1910526,7.21587097 20.3326842,7.2836129 C22.2566842,8.20964516 23.6107368,10.1192903 23.7256842,12.3466452 C23.7311579,12.4489355 23.7332105,12.5505484 23.7332105,12.6535161 C23.7332105,12.7558065 23.7311579,12.8587742 23.7256842,12.9597097 C23.6107368,15.1870645 22.2566842,17.0967097 20.3326842,18.0227419 C20.1910526,18.0911613 20.0453158,18.1541613 19.8968421,18.2117419 C19.7497368,18.2693226 19.5985263,18.3214839 19.4438947,18.366871 C19.3679474,18.3905806 19.2899474,18.4115806 19.2112632,18.4312258 C19.019,18.4806774 18.8226316,18.5199677 18.6235263,18.5504516 C18.3252105,18.5965161 18.018,18.6202258 17.7066842,18.6202258 C17.3953684,18.6202258 17.0895263,18.5965161 16.7912105,18.5504516 C16.5907368,18.5199677 16.3957368,18.4806774 16.2034737,18.4312258 C15.6540526,18.2916774 15.1381579,18.0755806 14.6612632,17.7978387 C14.2842632,18.2930323 13.8552632,18.7455484 13.3811053,19.1486129 C14.6222632,19.9608387 16.1097368,20.4363871 17.7066842,20.4363871 C22.0418421,20.4363871 25.5682632,16.9449677 25.5682632,12.6535161 C25.5682632,8.3613871 22.0418421,4.86996774 17.7066842,4.86996774" id="Fill-1"></path>
                <path d="M14.0981579,17.4286452 C14.2336316,17.2565806 14.3615789,17.0790968 14.482,16.8961935 C14.9376842,16.2018387 15.2838947,15.4309355 15.4973684,14.6065161 C15.5001053,14.5970323 15.5028421,14.5875484 15.5042105,14.5773871 C15.5322632,14.4730645 15.5562105,14.3667097 15.5794737,14.2596774 C15.5842632,14.2366452 15.5897368,14.2136129 15.5938421,14.1899032 C15.5965789,14.1783871 15.5993158,14.1682258 15.6006842,14.1567097 C15.6191579,14.0639032 15.6355789,13.9704194 15.6499474,13.8762581 C15.6540526,13.8593226 15.6567895,13.8430645 15.6595263,13.826129 C15.6608947,13.8166452 15.6636316,13.8071613 15.665,13.7976774 C15.6663684,13.7848065 15.6663684,13.7726129 15.6670526,13.7604194 C15.7197368,13.3986774 15.7491579,13.0294839 15.7491579,12.6535161 C15.7491579,11.0913871 15.2797895,9.6356129 14.4751579,8.41558065 C13.9647368,8.79832258 13.5268421,9.26912903 13.1806316,9.80496774 C13.6465789,10.6517419 13.9141053,11.6231613 13.9141053,12.6535161 C13.9141053,12.9603871 13.8901579,13.263871 13.8443158,13.5585484 C13.8429474,13.5619355 13.8429474,13.5653226 13.8415789,13.5687097 C13.8285789,13.6601613 13.8107895,13.7516129 13.7936842,13.8423871 C13.7909474,13.851871 13.7895789,13.8606774 13.7868421,13.8701613 C13.767,13.9670323 13.7444211,14.061871 13.7191053,14.1567097 L13.7204737,14.1567097 C13.5959474,14.6322581 13.4139474,15.0840968 13.1840526,15.5054516 C13.0684211,15.716129 12.9411579,15.918 12.8008947,16.1124194 C12.4416842,16.6143871 12.0031053,17.0580968 11.505,17.4286452 C11.3284737,17.5593871 11.1437368,17.6813226 10.9528421,17.7930968 C10.4246316,18.102 9.84236842,18.3336774 9.22315789,18.4725484 L9.22315789,18.4698387 C9.18894737,18.4779677 9.15405263,18.4867742 9.11778947,18.4935484 C9.10684211,18.4962581 9.09521053,18.4989677 9.08289474,18.5016774 C8.697,18.5789032 8.29742105,18.6202258 7.88689474,18.6202258 C4.56505263,18.6202258 1.86173684,15.9430645 1.86173684,12.6535161 C1.86173684,9.36329032 4.56505263,6.68748387 7.88689474,6.68748387 C9.00421053,6.68748387 10.0517368,6.99096774 10.9501053,7.51732258 C11.3318947,7.02687097 11.7663684,6.57706452 12.2473684,6.18009677 C11.3496842,5.58667742 10.3247368,5.17141935 9.22178947,4.98377419 L12.3999474,2.69816129 C12.4170526,2.68529032 12.4348421,2.67106452 12.4492105,2.65548387 C12.4519474,2.65277419 12.4560526,2.65006452 12.4587895,2.646 C12.4758947,2.62770968 12.4936842,2.60874194 12.5080526,2.58774194 C12.5094211,2.58503226 12.5121579,2.58096774 12.5148947,2.57825806 C12.5278947,2.55590323 12.5415789,2.53354839 12.5525263,2.50916129 C12.5538947,2.50712903 12.5538947,2.50509677 12.5538947,2.50306452 C12.5641579,2.47935484 12.5723684,2.45429032 12.5778421,2.42787097 C12.5792105,2.42583871 12.5792105,2.42245161 12.5805789,2.41974194 C12.5833158,2.40212903 12.5860526,2.38519355 12.5874211,2.36825806 C12.5881053,2.35741935 12.5881053,2.34725806 12.5881053,2.33777419 C12.5881053,2.33506452 12.5894737,2.33303226 12.5894737,2.33032258 C12.5894737,2.32964516 12.5881053,2.32829032 12.5881053,2.32693548 C12.5881053,2.29916129 12.5860526,2.27341935 12.5819474,2.24632258 C12.5805789,2.24225806 12.5792105,2.23751613 12.5778421,2.23277419 C12.5723684,2.20770968 12.5641579,2.184 12.5552632,2.16029032 C12.5538947,2.15622581 12.5511579,2.15148387 12.5484211,2.14674194 C12.5388421,2.12303226 12.5272105,2.10135484 12.5135263,2.08035484 C12.5107895,2.07764516 12.5080526,2.07425806 12.5053158,2.07019355 C12.4936842,2.05325806 12.48,2.03767742 12.4656316,2.02277419 C12.4615263,2.01870968 12.4601579,2.01464516 12.4560526,2.01058065 L10.8228421,0.375290323 C10.7373158,0.289258065 10.6203158,0.240483871 10.4971579,0.240483871 L7.96352632,0.240483871 C7.92042105,0.230322581 7.87936842,0.226935484 7.83626316,0.228967742 C7.79521053,0.226935484 7.75210526,0.230322581 7.71105263,0.240483871 L5.21163158,0.240483871 C5.09052632,0.240483871 4.97284211,0.289258065 4.88594737,0.375290323 L3.25273684,2.01058065 C3.25,2.01464516 3.24726316,2.01870968 3.24452632,2.02277419 C3.23015789,2.03767742 3.21647368,2.05325806 3.20484211,2.07019355 C3.20210526,2.07425806 3.19936842,2.07764516 3.19663158,2.08035484 C3.18294737,2.10135484 3.17131579,2.12303226 3.16036842,2.14674194 C3.159,2.15148387 3.15626316,2.15622581 3.15352632,2.16029032 C3.14463158,2.184 3.13778947,2.20770968 3.13094737,2.23277419 C3.13094737,2.23751613 3.13094737,2.24225806 3.12957895,2.24632258 C3.12410526,2.27341935 3.12136842,2.29916129 3.12136842,2.32693548 C3.12136842,2.32829032 3.12,2.32964516 3.12,2.33032258 C3.12,2.33303226 3.12136842,2.33506452 3.12136842,2.33777419 L3.12136842,2.36825806 C3.12342105,2.38519355 3.12547368,2.40212903 3.12957895,2.41974194 C3.13094737,2.42245161 3.13094737,2.42583871 3.13094737,2.42787097 C3.13778947,2.45429032 3.14463158,2.47935484 3.15489474,2.50306452 C3.15626316,2.50509677 3.15626316,2.50712903 3.15763158,2.50916129 C3.16857895,2.53354839 3.18157895,2.55590323 3.19526316,2.57825806 C3.198,2.58096774 3.19936842,2.58503226 3.20210526,2.58774194 C3.21647368,2.60874194 3.23289474,2.62770968 3.25,2.646 C3.25410526,2.65006452 3.25684211,2.65277419 3.25957895,2.65548387 C3.27531579,2.67106452 3.29105263,2.68529032 3.31021053,2.69816129 L6.5,4.99393548 C2.82510526,5.64358065 0.0253157895,8.83016129 0.0253157895,12.6535161 C0.0253157895,16.9449677 3.55173684,20.4363871 7.88689474,20.4363871 C8.34257895,20.4363871 8.78936842,20.3964194 9.22315789,20.3225806 L9.22315789,20.3185161 C9.23821053,20.3171613 9.25189474,20.3171613 9.26352632,20.3144516 C9.28610526,20.3124194 9.30731579,20.3103871 9.33057895,20.3063226 C9.36342105,20.2995484 9.39694737,20.2920968 9.42910526,20.2853226 C9.45715789,20.2799032 9.48384211,20.2744839 9.51189474,20.2690645 C9.61794737,20.2467097 9.72331579,20.223 9.82594737,20.1965806 C9.83689474,20.193871 9.84852632,20.1911613 9.86084211,20.1884516 C10.7256842,19.9676129 11.531,19.6065484 12.2514737,19.131 C12.4416842,19.0043226 12.6257368,18.8715484 12.8022632,18.7306452 C13.2846316,18.3479032 13.7204737,17.9116452 14.0981579,17.4286452 L14.0981579,17.4286452 Z M7.83626316,1.33045161 L8.40689474,1.87645161 L7.267,1.87645161 L7.83626316,1.33045161 L7.83626316,1.33045161 Z M8.68263158,2.78487097 L7.83626316,4.38967742 L6.99057895,2.78487097 L8.68263158,2.78487097 L8.68263158,2.78487097 Z M9.10684211,3.94393548 L9.71784211,2.78487097 L10.7174737,2.78487097 L9.10684211,3.94393548 L9.10684211,3.94393548 Z M10.3042105,1.14958065 L11.0315263,1.87645161 L9.71921053,1.87645161 C9.70757895,1.86154839 9.69526316,1.84529032 9.68021053,1.83241935 L8.96657895,1.14958065 L10.3042105,1.14958065 L10.3042105,1.14958065 Z M5.40389474,1.14958065 L6.70594737,1.14958065 L5.99231579,1.83241935 C5.97726316,1.84529032 5.967,1.86154839 5.95468421,1.87645161 L4.67863158,1.87645161 L5.40389474,1.14958065 L5.40389474,1.14958065 Z M4.99131579,2.78487097 L5.95605263,2.78487097 L6.54447368,3.90125806 L4.99131579,2.78487097 L4.99131579,2.78487097 Z" id="Fill-2"></path>
            </g>
            <g id="Honeymoons-2" transform="translate(237.000000, 47.000000)" fill="#67737B" sketch:type="MSShapeGroup">
                <path d="M17.7066842,4.86996774 C15.8504211,4.86996774 14.144,5.51148387 12.7967895,6.58045161 C12.3157895,6.96319355 11.8813158,7.40080645 11.5015789,7.88245161 C10.465,9.2013871 9.84510526,10.857 9.84510526,12.6535161 C9.84510526,14.2305484 10.3233684,15.6991935 11.141,16.9266774 C11.6473158,16.535129 12.0817895,16.0561935 12.4197895,15.5122258 C11.9948947,14.7467419 11.7355789,13.8816774 11.6876842,12.9597097 C11.6835789,12.8587742 11.6808421,12.7558065 11.6808421,12.6535161 C11.6808421,12.5505484 11.6835789,12.4489355 11.6876842,12.3466452 C11.7492632,11.1787742 12.1515789,10.0989677 12.7967895,9.20003226 C13.1587368,8.69806452 13.5945789,8.253 14.092,7.88245161 C14.7132632,7.41977419 15.4282632,7.07293548 16.2034737,6.87512903 C16.3957368,6.82635484 16.5907368,6.78570968 16.7912105,6.75590323 C17.0895263,6.71051613 17.3953684,6.68748387 17.7066842,6.68748387 C18.018,6.68748387 18.3252105,6.71051613 18.6235263,6.75590323 C18.8226316,6.78570968 19.019,6.82635484 19.2112632,6.87512903 C19.2899474,6.89477419 19.3679474,6.91645161 19.4438947,6.93948387 C19.5985263,6.98554839 19.7497368,7.03703226 19.8968421,7.0946129 C20.0453158,7.15219355 20.1910526,7.21587097 20.3326842,7.2836129 C22.2566842,8.20964516 23.6107368,10.1192903 23.7256842,12.3466452 C23.7311579,12.4489355 23.7332105,12.5505484 23.7332105,12.6535161 C23.7332105,12.7558065 23.7311579,12.8587742 23.7256842,12.9597097 C23.6107368,15.1870645 22.2566842,17.0967097 20.3326842,18.0227419 C20.1910526,18.0911613 20.0453158,18.1541613 19.8968421,18.2117419 C19.7497368,18.2693226 19.5985263,18.3214839 19.4438947,18.366871 C19.3679474,18.3905806 19.2899474,18.4115806 19.2112632,18.4312258 C19.019,18.4806774 18.8226316,18.5199677 18.6235263,18.5504516 C18.3252105,18.5965161 18.018,18.6202258 17.7066842,18.6202258 C17.3953684,18.6202258 17.0895263,18.5965161 16.7912105,18.5504516 C16.5907368,18.5199677 16.3957368,18.4806774 16.2034737,18.4312258 C15.6540526,18.2916774 15.1381579,18.0755806 14.6612632,17.7978387 C14.2842632,18.2930323 13.8552632,18.7455484 13.3811053,19.1486129 C14.6222632,19.9608387 16.1097368,20.4363871 17.7066842,20.4363871 C22.0418421,20.4363871 25.5682632,16.9449677 25.5682632,12.6535161 C25.5682632,8.3613871 22.0418421,4.86996774 17.7066842,4.86996774" id="Fill-1"></path>
                <path d="M14.0981579,17.4286452 C14.2336316,17.2565806 14.3615789,17.0790968 14.482,16.8961935 C14.9376842,16.2018387 15.2838947,15.4309355 15.4973684,14.6065161 C15.5001053,14.5970323 15.5028421,14.5875484 15.5042105,14.5773871 C15.5322632,14.4730645 15.5562105,14.3667097 15.5794737,14.2596774 C15.5842632,14.2366452 15.5897368,14.2136129 15.5938421,14.1899032 C15.5965789,14.1783871 15.5993158,14.1682258 15.6006842,14.1567097 C15.6191579,14.0639032 15.6355789,13.9704194 15.6499474,13.8762581 C15.6540526,13.8593226 15.6567895,13.8430645 15.6595263,13.826129 C15.6608947,13.8166452 15.6636316,13.8071613 15.665,13.7976774 C15.6663684,13.7848065 15.6663684,13.7726129 15.6670526,13.7604194 C15.7197368,13.3986774 15.7491579,13.0294839 15.7491579,12.6535161 C15.7491579,11.0913871 15.2797895,9.6356129 14.4751579,8.41558065 C13.9647368,8.79832258 13.5268421,9.26912903 13.1806316,9.80496774 C13.6465789,10.6517419 13.9141053,11.6231613 13.9141053,12.6535161 C13.9141053,12.9603871 13.8901579,13.263871 13.8443158,13.5585484 C13.8429474,13.5619355 13.8429474,13.5653226 13.8415789,13.5687097 C13.8285789,13.6601613 13.8107895,13.7516129 13.7936842,13.8423871 C13.7909474,13.851871 13.7895789,13.8606774 13.7868421,13.8701613 C13.767,13.9670323 13.7444211,14.061871 13.7191053,14.1567097 L13.7204737,14.1567097 C13.5959474,14.6322581 13.4139474,15.0840968 13.1840526,15.5054516 C13.0684211,15.716129 12.9411579,15.918 12.8008947,16.1124194 C12.4416842,16.6143871 12.0031053,17.0580968 11.505,17.4286452 C11.3284737,17.5593871 11.1437368,17.6813226 10.9528421,17.7930968 C10.4246316,18.102 9.84236842,18.3336774 9.22315789,18.4725484 L9.22315789,18.4698387 C9.18894737,18.4779677 9.15405263,18.4867742 9.11778947,18.4935484 C9.10684211,18.4962581 9.09521053,18.4989677 9.08289474,18.5016774 C8.697,18.5789032 8.29742105,18.6202258 7.88689474,18.6202258 C4.56505263,18.6202258 1.86173684,15.9430645 1.86173684,12.6535161 C1.86173684,9.36329032 4.56505263,6.68748387 7.88689474,6.68748387 C9.00421053,6.68748387 10.0517368,6.99096774 10.9501053,7.51732258 C11.3318947,7.02687097 11.7663684,6.57706452 12.2473684,6.18009677 C11.3496842,5.58667742 10.3247368,5.17141935 9.22178947,4.98377419 L12.3999474,2.69816129 C12.4170526,2.68529032 12.4348421,2.67106452 12.4492105,2.65548387 C12.4519474,2.65277419 12.4560526,2.65006452 12.4587895,2.646 C12.4758947,2.62770968 12.4936842,2.60874194 12.5080526,2.58774194 C12.5094211,2.58503226 12.5121579,2.58096774 12.5148947,2.57825806 C12.5278947,2.55590323 12.5415789,2.53354839 12.5525263,2.50916129 C12.5538947,2.50712903 12.5538947,2.50509677 12.5538947,2.50306452 C12.5641579,2.47935484 12.5723684,2.45429032 12.5778421,2.42787097 C12.5792105,2.42583871 12.5792105,2.42245161 12.5805789,2.41974194 C12.5833158,2.40212903 12.5860526,2.38519355 12.5874211,2.36825806 C12.5881053,2.35741935 12.5881053,2.34725806 12.5881053,2.33777419 C12.5881053,2.33506452 12.5894737,2.33303226 12.5894737,2.33032258 C12.5894737,2.32964516 12.5881053,2.32829032 12.5881053,2.32693548 C12.5881053,2.29916129 12.5860526,2.27341935 12.5819474,2.24632258 C12.5805789,2.24225806 12.5792105,2.23751613 12.5778421,2.23277419 C12.5723684,2.20770968 12.5641579,2.184 12.5552632,2.16029032 C12.5538947,2.15622581 12.5511579,2.15148387 12.5484211,2.14674194 C12.5388421,2.12303226 12.5272105,2.10135484 12.5135263,2.08035484 C12.5107895,2.07764516 12.5080526,2.07425806 12.5053158,2.07019355 C12.4936842,2.05325806 12.48,2.03767742 12.4656316,2.02277419 C12.4615263,2.01870968 12.4601579,2.01464516 12.4560526,2.01058065 L10.8228421,0.375290323 C10.7373158,0.289258065 10.6203158,0.240483871 10.4971579,0.240483871 L7.96352632,0.240483871 C7.92042105,0.230322581 7.87936842,0.226935484 7.83626316,0.228967742 C7.79521053,0.226935484 7.75210526,0.230322581 7.71105263,0.240483871 L5.21163158,0.240483871 C5.09052632,0.240483871 4.97284211,0.289258065 4.88594737,0.375290323 L3.25273684,2.01058065 C3.25,2.01464516 3.24726316,2.01870968 3.24452632,2.02277419 C3.23015789,2.03767742 3.21647368,2.05325806 3.20484211,2.07019355 C3.20210526,2.07425806 3.19936842,2.07764516 3.19663158,2.08035484 C3.18294737,2.10135484 3.17131579,2.12303226 3.16036842,2.14674194 C3.159,2.15148387 3.15626316,2.15622581 3.15352632,2.16029032 C3.14463158,2.184 3.13778947,2.20770968 3.13094737,2.23277419 C3.13094737,2.23751613 3.13094737,2.24225806 3.12957895,2.24632258 C3.12410526,2.27341935 3.12136842,2.29916129 3.12136842,2.32693548 C3.12136842,2.32829032 3.12,2.32964516 3.12,2.33032258 C3.12,2.33303226 3.12136842,2.33506452 3.12136842,2.33777419 L3.12136842,2.36825806 C3.12342105,2.38519355 3.12547368,2.40212903 3.12957895,2.41974194 C3.13094737,2.42245161 3.13094737,2.42583871 3.13094737,2.42787097 C3.13778947,2.45429032 3.14463158,2.47935484 3.15489474,2.50306452 C3.15626316,2.50509677 3.15626316,2.50712903 3.15763158,2.50916129 C3.16857895,2.53354839 3.18157895,2.55590323 3.19526316,2.57825806 C3.198,2.58096774 3.19936842,2.58503226 3.20210526,2.58774194 C3.21647368,2.60874194 3.23289474,2.62770968 3.25,2.646 C3.25410526,2.65006452 3.25684211,2.65277419 3.25957895,2.65548387 C3.27531579,2.67106452 3.29105263,2.68529032 3.31021053,2.69816129 L6.5,4.99393548 C2.82510526,5.64358065 0.0253157895,8.83016129 0.0253157895,12.6535161 C0.0253157895,16.9449677 3.55173684,20.4363871 7.88689474,20.4363871 C8.34257895,20.4363871 8.78936842,20.3964194 9.22315789,20.3225806 L9.22315789,20.3185161 C9.23821053,20.3171613 9.25189474,20.3171613 9.26352632,20.3144516 C9.28610526,20.3124194 9.30731579,20.3103871 9.33057895,20.3063226 C9.36342105,20.2995484 9.39694737,20.2920968 9.42910526,20.2853226 C9.45715789,20.2799032 9.48384211,20.2744839 9.51189474,20.2690645 C9.61794737,20.2467097 9.72331579,20.223 9.82594737,20.1965806 C9.83689474,20.193871 9.84852632,20.1911613 9.86084211,20.1884516 C10.7256842,19.9676129 11.531,19.6065484 12.2514737,19.131 C12.4416842,19.0043226 12.6257368,18.8715484 12.8022632,18.7306452 C13.2846316,18.3479032 13.7204737,17.9116452 14.0981579,17.4286452 L14.0981579,17.4286452 Z M7.83626316,1.33045161 L8.40689474,1.87645161 L7.267,1.87645161 L7.83626316,1.33045161 L7.83626316,1.33045161 Z M8.68263158,2.78487097 L7.83626316,4.38967742 L6.99057895,2.78487097 L8.68263158,2.78487097 L8.68263158,2.78487097 Z M9.10684211,3.94393548 L9.71784211,2.78487097 L10.7174737,2.78487097 L9.10684211,3.94393548 L9.10684211,3.94393548 Z M10.3042105,1.14958065 L11.0315263,1.87645161 L9.71921053,1.87645161 C9.70757895,1.86154839 9.69526316,1.84529032 9.68021053,1.83241935 L8.96657895,1.14958065 L10.3042105,1.14958065 L10.3042105,1.14958065 Z M5.40389474,1.14958065 L6.70594737,1.14958065 L5.99231579,1.83241935 C5.97726316,1.84529032 5.967,1.86154839 5.95468421,1.87645161 L4.67863158,1.87645161 L5.40389474,1.14958065 L5.40389474,1.14958065 Z M4.99131579,2.78487097 L5.95605263,2.78487097 L6.54447368,3.90125806 L4.99131579,2.78487097 L4.99131579,2.78487097 Z" id="Fill-2"></path>
            </g>
            <g id="Honeymoons-3" transform="translate(237.000000, 7.000000)" fill="#373D43" sketch:type="MSShapeGroup">
                <path d="M17.7066842,4.86996774 C15.8504211,4.86996774 14.144,5.51148387 12.7967895,6.58045161 C12.3157895,6.96319355 11.8813158,7.40080645 11.5015789,7.88245161 C10.465,9.2013871 9.84510526,10.857 9.84510526,12.6535161 C9.84510526,14.2305484 10.3233684,15.6991935 11.141,16.9266774 C11.6473158,16.535129 12.0817895,16.0561935 12.4197895,15.5122258 C11.9948947,14.7467419 11.7355789,13.8816774 11.6876842,12.9597097 C11.6835789,12.8587742 11.6808421,12.7558065 11.6808421,12.6535161 C11.6808421,12.5505484 11.6835789,12.4489355 11.6876842,12.3466452 C11.7492632,11.1787742 12.1515789,10.0989677 12.7967895,9.20003226 C13.1587368,8.69806452 13.5945789,8.253 14.092,7.88245161 C14.7132632,7.41977419 15.4282632,7.07293548 16.2034737,6.87512903 C16.3957368,6.82635484 16.5907368,6.78570968 16.7912105,6.75590323 C17.0895263,6.71051613 17.3953684,6.68748387 17.7066842,6.68748387 C18.018,6.68748387 18.3252105,6.71051613 18.6235263,6.75590323 C18.8226316,6.78570968 19.019,6.82635484 19.2112632,6.87512903 C19.2899474,6.89477419 19.3679474,6.91645161 19.4438947,6.93948387 C19.5985263,6.98554839 19.7497368,7.03703226 19.8968421,7.0946129 C20.0453158,7.15219355 20.1910526,7.21587097 20.3326842,7.2836129 C22.2566842,8.20964516 23.6107368,10.1192903 23.7256842,12.3466452 C23.7311579,12.4489355 23.7332105,12.5505484 23.7332105,12.6535161 C23.7332105,12.7558065 23.7311579,12.8587742 23.7256842,12.9597097 C23.6107368,15.1870645 22.2566842,17.0967097 20.3326842,18.0227419 C20.1910526,18.0911613 20.0453158,18.1541613 19.8968421,18.2117419 C19.7497368,18.2693226 19.5985263,18.3214839 19.4438947,18.366871 C19.3679474,18.3905806 19.2899474,18.4115806 19.2112632,18.4312258 C19.019,18.4806774 18.8226316,18.5199677 18.6235263,18.5504516 C18.3252105,18.5965161 18.018,18.6202258 17.7066842,18.6202258 C17.3953684,18.6202258 17.0895263,18.5965161 16.7912105,18.5504516 C16.5907368,18.5199677 16.3957368,18.4806774 16.2034737,18.4312258 C15.6540526,18.2916774 15.1381579,18.0755806 14.6612632,17.7978387 C14.2842632,18.2930323 13.8552632,18.7455484 13.3811053,19.1486129 C14.6222632,19.9608387 16.1097368,20.4363871 17.7066842,20.4363871 C22.0418421,20.4363871 25.5682632,16.9449677 25.5682632,12.6535161 C25.5682632,8.3613871 22.0418421,4.86996774 17.7066842,4.86996774" id="Fill-1"></path>
                <path d="M14.0981579,17.4286452 C14.2336316,17.2565806 14.3615789,17.0790968 14.482,16.8961935 C14.9376842,16.2018387 15.2838947,15.4309355 15.4973684,14.6065161 C15.5001053,14.5970323 15.5028421,14.5875484 15.5042105,14.5773871 C15.5322632,14.4730645 15.5562105,14.3667097 15.5794737,14.2596774 C15.5842632,14.2366452 15.5897368,14.2136129 15.5938421,14.1899032 C15.5965789,14.1783871 15.5993158,14.1682258 15.6006842,14.1567097 C15.6191579,14.0639032 15.6355789,13.9704194 15.6499474,13.8762581 C15.6540526,13.8593226 15.6567895,13.8430645 15.6595263,13.826129 C15.6608947,13.8166452 15.6636316,13.8071613 15.665,13.7976774 C15.6663684,13.7848065 15.6663684,13.7726129 15.6670526,13.7604194 C15.7197368,13.3986774 15.7491579,13.0294839 15.7491579,12.6535161 C15.7491579,11.0913871 15.2797895,9.6356129 14.4751579,8.41558065 C13.9647368,8.79832258 13.5268421,9.26912903 13.1806316,9.80496774 C13.6465789,10.6517419 13.9141053,11.6231613 13.9141053,12.6535161 C13.9141053,12.9603871 13.8901579,13.263871 13.8443158,13.5585484 C13.8429474,13.5619355 13.8429474,13.5653226 13.8415789,13.5687097 C13.8285789,13.6601613 13.8107895,13.7516129 13.7936842,13.8423871 C13.7909474,13.851871 13.7895789,13.8606774 13.7868421,13.8701613 C13.767,13.9670323 13.7444211,14.061871 13.7191053,14.1567097 L13.7204737,14.1567097 C13.5959474,14.6322581 13.4139474,15.0840968 13.1840526,15.5054516 C13.0684211,15.716129 12.9411579,15.918 12.8008947,16.1124194 C12.4416842,16.6143871 12.0031053,17.0580968 11.505,17.4286452 C11.3284737,17.5593871 11.1437368,17.6813226 10.9528421,17.7930968 C10.4246316,18.102 9.84236842,18.3336774 9.22315789,18.4725484 L9.22315789,18.4698387 C9.18894737,18.4779677 9.15405263,18.4867742 9.11778947,18.4935484 C9.10684211,18.4962581 9.09521053,18.4989677 9.08289474,18.5016774 C8.697,18.5789032 8.29742105,18.6202258 7.88689474,18.6202258 C4.56505263,18.6202258 1.86173684,15.9430645 1.86173684,12.6535161 C1.86173684,9.36329032 4.56505263,6.68748387 7.88689474,6.68748387 C9.00421053,6.68748387 10.0517368,6.99096774 10.9501053,7.51732258 C11.3318947,7.02687097 11.7663684,6.57706452 12.2473684,6.18009677 C11.3496842,5.58667742 10.3247368,5.17141935 9.22178947,4.98377419 L12.3999474,2.69816129 C12.4170526,2.68529032 12.4348421,2.67106452 12.4492105,2.65548387 C12.4519474,2.65277419 12.4560526,2.65006452 12.4587895,2.646 C12.4758947,2.62770968 12.4936842,2.60874194 12.5080526,2.58774194 C12.5094211,2.58503226 12.5121579,2.58096774 12.5148947,2.57825806 C12.5278947,2.55590323 12.5415789,2.53354839 12.5525263,2.50916129 C12.5538947,2.50712903 12.5538947,2.50509677 12.5538947,2.50306452 C12.5641579,2.47935484 12.5723684,2.45429032 12.5778421,2.42787097 C12.5792105,2.42583871 12.5792105,2.42245161 12.5805789,2.41974194 C12.5833158,2.40212903 12.5860526,2.38519355 12.5874211,2.36825806 C12.5881053,2.35741935 12.5881053,2.34725806 12.5881053,2.33777419 C12.5881053,2.33506452 12.5894737,2.33303226 12.5894737,2.33032258 C12.5894737,2.32964516 12.5881053,2.32829032 12.5881053,2.32693548 C12.5881053,2.29916129 12.5860526,2.27341935 12.5819474,2.24632258 C12.5805789,2.24225806 12.5792105,2.23751613 12.5778421,2.23277419 C12.5723684,2.20770968 12.5641579,2.184 12.5552632,2.16029032 C12.5538947,2.15622581 12.5511579,2.15148387 12.5484211,2.14674194 C12.5388421,2.12303226 12.5272105,2.10135484 12.5135263,2.08035484 C12.5107895,2.07764516 12.5080526,2.07425806 12.5053158,2.07019355 C12.4936842,2.05325806 12.48,2.03767742 12.4656316,2.02277419 C12.4615263,2.01870968 12.4601579,2.01464516 12.4560526,2.01058065 L10.8228421,0.375290323 C10.7373158,0.289258065 10.6203158,0.240483871 10.4971579,0.240483871 L7.96352632,0.240483871 C7.92042105,0.230322581 7.87936842,0.226935484 7.83626316,0.228967742 C7.79521053,0.226935484 7.75210526,0.230322581 7.71105263,0.240483871 L5.21163158,0.240483871 C5.09052632,0.240483871 4.97284211,0.289258065 4.88594737,0.375290323 L3.25273684,2.01058065 C3.25,2.01464516 3.24726316,2.01870968 3.24452632,2.02277419 C3.23015789,2.03767742 3.21647368,2.05325806 3.20484211,2.07019355 C3.20210526,2.07425806 3.19936842,2.07764516 3.19663158,2.08035484 C3.18294737,2.10135484 3.17131579,2.12303226 3.16036842,2.14674194 C3.159,2.15148387 3.15626316,2.15622581 3.15352632,2.16029032 C3.14463158,2.184 3.13778947,2.20770968 3.13094737,2.23277419 C3.13094737,2.23751613 3.13094737,2.24225806 3.12957895,2.24632258 C3.12410526,2.27341935 3.12136842,2.29916129 3.12136842,2.32693548 C3.12136842,2.32829032 3.12,2.32964516 3.12,2.33032258 C3.12,2.33303226 3.12136842,2.33506452 3.12136842,2.33777419 L3.12136842,2.36825806 C3.12342105,2.38519355 3.12547368,2.40212903 3.12957895,2.41974194 C3.13094737,2.42245161 3.13094737,2.42583871 3.13094737,2.42787097 C3.13778947,2.45429032 3.14463158,2.47935484 3.15489474,2.50306452 C3.15626316,2.50509677 3.15626316,2.50712903 3.15763158,2.50916129 C3.16857895,2.53354839 3.18157895,2.55590323 3.19526316,2.57825806 C3.198,2.58096774 3.19936842,2.58503226 3.20210526,2.58774194 C3.21647368,2.60874194 3.23289474,2.62770968 3.25,2.646 C3.25410526,2.65006452 3.25684211,2.65277419 3.25957895,2.65548387 C3.27531579,2.67106452 3.29105263,2.68529032 3.31021053,2.69816129 L6.5,4.99393548 C2.82510526,5.64358065 0.0253157895,8.83016129 0.0253157895,12.6535161 C0.0253157895,16.9449677 3.55173684,20.4363871 7.88689474,20.4363871 C8.34257895,20.4363871 8.78936842,20.3964194 9.22315789,20.3225806 L9.22315789,20.3185161 C9.23821053,20.3171613 9.25189474,20.3171613 9.26352632,20.3144516 C9.28610526,20.3124194 9.30731579,20.3103871 9.33057895,20.3063226 C9.36342105,20.2995484 9.39694737,20.2920968 9.42910526,20.2853226 C9.45715789,20.2799032 9.48384211,20.2744839 9.51189474,20.2690645 C9.61794737,20.2467097 9.72331579,20.223 9.82594737,20.1965806 C9.83689474,20.193871 9.84852632,20.1911613 9.86084211,20.1884516 C10.7256842,19.9676129 11.531,19.6065484 12.2514737,19.131 C12.4416842,19.0043226 12.6257368,18.8715484 12.8022632,18.7306452 C13.2846316,18.3479032 13.7204737,17.9116452 14.0981579,17.4286452 L14.0981579,17.4286452 Z M7.83626316,1.33045161 L8.40689474,1.87645161 L7.267,1.87645161 L7.83626316,1.33045161 L7.83626316,1.33045161 Z M8.68263158,2.78487097 L7.83626316,4.38967742 L6.99057895,2.78487097 L8.68263158,2.78487097 L8.68263158,2.78487097 Z M9.10684211,3.94393548 L9.71784211,2.78487097 L10.7174737,2.78487097 L9.10684211,3.94393548 L9.10684211,3.94393548 Z M10.3042105,1.14958065 L11.0315263,1.87645161 L9.71921053,1.87645161 C9.70757895,1.86154839 9.69526316,1.84529032 9.68021053,1.83241935 L8.96657895,1.14958065 L10.3042105,1.14958065 L10.3042105,1.14958065 Z M5.40389474,1.14958065 L6.70594737,1.14958065 L5.99231579,1.83241935 C5.97726316,1.84529032 5.967,1.86154839 5.95468421,1.87645161 L4.67863158,1.87645161 L5.40389474,1.14958065 L5.40389474,1.14958065 Z M4.99131579,2.78487097 L5.95605263,2.78487097 L6.54447368,3.90125806 L4.99131579,2.78487097 L4.99131579,2.78487097 Z" id="Fill-2"></path>
            </g>
            <g id="Honeymoons-4" transform="translate(237.000000, 86.000000)" fill="#FFFFFF" sketch:type="MSShapeGroup">
                <path d="M17.7066842,4.86996774 C15.8504211,4.86996774 14.144,5.51148387 12.7967895,6.58045161 C12.3157895,6.96319355 11.8813158,7.40080645 11.5015789,7.88245161 C10.465,9.2013871 9.84510526,10.857 9.84510526,12.6535161 C9.84510526,14.2305484 10.3233684,15.6991935 11.141,16.9266774 C11.6473158,16.535129 12.0817895,16.0561935 12.4197895,15.5122258 C11.9948947,14.7467419 11.7355789,13.8816774 11.6876842,12.9597097 C11.6835789,12.8587742 11.6808421,12.7558065 11.6808421,12.6535161 C11.6808421,12.5505484 11.6835789,12.4489355 11.6876842,12.3466452 C11.7492632,11.1787742 12.1515789,10.0989677 12.7967895,9.20003226 C13.1587368,8.69806452 13.5945789,8.253 14.092,7.88245161 C14.7132632,7.41977419 15.4282632,7.07293548 16.2034737,6.87512903 C16.3957368,6.82635484 16.5907368,6.78570968 16.7912105,6.75590323 C17.0895263,6.71051613 17.3953684,6.68748387 17.7066842,6.68748387 C18.018,6.68748387 18.3252105,6.71051613 18.6235263,6.75590323 C18.8226316,6.78570968 19.019,6.82635484 19.2112632,6.87512903 C19.2899474,6.89477419 19.3679474,6.91645161 19.4438947,6.93948387 C19.5985263,6.98554839 19.7497368,7.03703226 19.8968421,7.0946129 C20.0453158,7.15219355 20.1910526,7.21587097 20.3326842,7.2836129 C22.2566842,8.20964516 23.6107368,10.1192903 23.7256842,12.3466452 C23.7311579,12.4489355 23.7332105,12.5505484 23.7332105,12.6535161 C23.7332105,12.7558065 23.7311579,12.8587742 23.7256842,12.9597097 C23.6107368,15.1870645 22.2566842,17.0967097 20.3326842,18.0227419 C20.1910526,18.0911613 20.0453158,18.1541613 19.8968421,18.2117419 C19.7497368,18.2693226 19.5985263,18.3214839 19.4438947,18.366871 C19.3679474,18.3905806 19.2899474,18.4115806 19.2112632,18.4312258 C19.019,18.4806774 18.8226316,18.5199677 18.6235263,18.5504516 C18.3252105,18.5965161 18.018,18.6202258 17.7066842,18.6202258 C17.3953684,18.6202258 17.0895263,18.5965161 16.7912105,18.5504516 C16.5907368,18.5199677 16.3957368,18.4806774 16.2034737,18.4312258 C15.6540526,18.2916774 15.1381579,18.0755806 14.6612632,17.7978387 C14.2842632,18.2930323 13.8552632,18.7455484 13.3811053,19.1486129 C14.6222632,19.9608387 16.1097368,20.4363871 17.7066842,20.4363871 C22.0418421,20.4363871 25.5682632,16.9449677 25.5682632,12.6535161 C25.5682632,8.3613871 22.0418421,4.86996774 17.7066842,4.86996774" id="Fill-1"></path>
                <path d="M14.0981579,17.4286452 C14.2336316,17.2565806 14.3615789,17.0790968 14.482,16.8961935 C14.9376842,16.2018387 15.2838947,15.4309355 15.4973684,14.6065161 C15.5001053,14.5970323 15.5028421,14.5875484 15.5042105,14.5773871 C15.5322632,14.4730645 15.5562105,14.3667097 15.5794737,14.2596774 C15.5842632,14.2366452 15.5897368,14.2136129 15.5938421,14.1899032 C15.5965789,14.1783871 15.5993158,14.1682258 15.6006842,14.1567097 C15.6191579,14.0639032 15.6355789,13.9704194 15.6499474,13.8762581 C15.6540526,13.8593226 15.6567895,13.8430645 15.6595263,13.826129 C15.6608947,13.8166452 15.6636316,13.8071613 15.665,13.7976774 C15.6663684,13.7848065 15.6663684,13.7726129 15.6670526,13.7604194 C15.7197368,13.3986774 15.7491579,13.0294839 15.7491579,12.6535161 C15.7491579,11.0913871 15.2797895,9.6356129 14.4751579,8.41558065 C13.9647368,8.79832258 13.5268421,9.26912903 13.1806316,9.80496774 C13.6465789,10.6517419 13.9141053,11.6231613 13.9141053,12.6535161 C13.9141053,12.9603871 13.8901579,13.263871 13.8443158,13.5585484 C13.8429474,13.5619355 13.8429474,13.5653226 13.8415789,13.5687097 C13.8285789,13.6601613 13.8107895,13.7516129 13.7936842,13.8423871 C13.7909474,13.851871 13.7895789,13.8606774 13.7868421,13.8701613 C13.767,13.9670323 13.7444211,14.061871 13.7191053,14.1567097 L13.7204737,14.1567097 C13.5959474,14.6322581 13.4139474,15.0840968 13.1840526,15.5054516 C13.0684211,15.716129 12.9411579,15.918 12.8008947,16.1124194 C12.4416842,16.6143871 12.0031053,17.0580968 11.505,17.4286452 C11.3284737,17.5593871 11.1437368,17.6813226 10.9528421,17.7930968 C10.4246316,18.102 9.84236842,18.3336774 9.22315789,18.4725484 L9.22315789,18.4698387 C9.18894737,18.4779677 9.15405263,18.4867742 9.11778947,18.4935484 C9.10684211,18.4962581 9.09521053,18.4989677 9.08289474,18.5016774 C8.697,18.5789032 8.29742105,18.6202258 7.88689474,18.6202258 C4.56505263,18.6202258 1.86173684,15.9430645 1.86173684,12.6535161 C1.86173684,9.36329032 4.56505263,6.68748387 7.88689474,6.68748387 C9.00421053,6.68748387 10.0517368,6.99096774 10.9501053,7.51732258 C11.3318947,7.02687097 11.7663684,6.57706452 12.2473684,6.18009677 C11.3496842,5.58667742 10.3247368,5.17141935 9.22178947,4.98377419 L12.3999474,2.69816129 C12.4170526,2.68529032 12.4348421,2.67106452 12.4492105,2.65548387 C12.4519474,2.65277419 12.4560526,2.65006452 12.4587895,2.646 C12.4758947,2.62770968 12.4936842,2.60874194 12.5080526,2.58774194 C12.5094211,2.58503226 12.5121579,2.58096774 12.5148947,2.57825806 C12.5278947,2.55590323 12.5415789,2.53354839 12.5525263,2.50916129 C12.5538947,2.50712903 12.5538947,2.50509677 12.5538947,2.50306452 C12.5641579,2.47935484 12.5723684,2.45429032 12.5778421,2.42787097 C12.5792105,2.42583871 12.5792105,2.42245161 12.5805789,2.41974194 C12.5833158,2.40212903 12.5860526,2.38519355 12.5874211,2.36825806 C12.5881053,2.35741935 12.5881053,2.34725806 12.5881053,2.33777419 C12.5881053,2.33506452 12.5894737,2.33303226 12.5894737,2.33032258 C12.5894737,2.32964516 12.5881053,2.32829032 12.5881053,2.32693548 C12.5881053,2.29916129 12.5860526,2.27341935 12.5819474,2.24632258 C12.5805789,2.24225806 12.5792105,2.23751613 12.5778421,2.23277419 C12.5723684,2.20770968 12.5641579,2.184 12.5552632,2.16029032 C12.5538947,2.15622581 12.5511579,2.15148387 12.5484211,2.14674194 C12.5388421,2.12303226 12.5272105,2.10135484 12.5135263,2.08035484 C12.5107895,2.07764516 12.5080526,2.07425806 12.5053158,2.07019355 C12.4936842,2.05325806 12.48,2.03767742 12.4656316,2.02277419 C12.4615263,2.01870968 12.4601579,2.01464516 12.4560526,2.01058065 L10.8228421,0.375290323 C10.7373158,0.289258065 10.6203158,0.240483871 10.4971579,0.240483871 L7.96352632,0.240483871 C7.92042105,0.230322581 7.87936842,0.226935484 7.83626316,0.228967742 C7.79521053,0.226935484 7.75210526,0.230322581 7.71105263,0.240483871 L5.21163158,0.240483871 C5.09052632,0.240483871 4.97284211,0.289258065 4.88594737,0.375290323 L3.25273684,2.01058065 C3.25,2.01464516 3.24726316,2.01870968 3.24452632,2.02277419 C3.23015789,2.03767742 3.21647368,2.05325806 3.20484211,2.07019355 C3.20210526,2.07425806 3.19936842,2.07764516 3.19663158,2.08035484 C3.18294737,2.10135484 3.17131579,2.12303226 3.16036842,2.14674194 C3.159,2.15148387 3.15626316,2.15622581 3.15352632,2.16029032 C3.14463158,2.184 3.13778947,2.20770968 3.13094737,2.23277419 C3.13094737,2.23751613 3.13094737,2.24225806 3.12957895,2.24632258 C3.12410526,2.27341935 3.12136842,2.29916129 3.12136842,2.32693548 C3.12136842,2.32829032 3.12,2.32964516 3.12,2.33032258 C3.12,2.33303226 3.12136842,2.33506452 3.12136842,2.33777419 L3.12136842,2.36825806 C3.12342105,2.38519355 3.12547368,2.40212903 3.12957895,2.41974194 C3.13094737,2.42245161 3.13094737,2.42583871 3.13094737,2.42787097 C3.13778947,2.45429032 3.14463158,2.47935484 3.15489474,2.50306452 C3.15626316,2.50509677 3.15626316,2.50712903 3.15763158,2.50916129 C3.16857895,2.53354839 3.18157895,2.55590323 3.19526316,2.57825806 C3.198,2.58096774 3.19936842,2.58503226 3.20210526,2.58774194 C3.21647368,2.60874194 3.23289474,2.62770968 3.25,2.646 C3.25410526,2.65006452 3.25684211,2.65277419 3.25957895,2.65548387 C3.27531579,2.67106452 3.29105263,2.68529032 3.31021053,2.69816129 L6.5,4.99393548 C2.82510526,5.64358065 0.0253157895,8.83016129 0.0253157895,12.6535161 C0.0253157895,16.9449677 3.55173684,20.4363871 7.88689474,20.4363871 C8.34257895,20.4363871 8.78936842,20.3964194 9.22315789,20.3225806 L9.22315789,20.3185161 C9.23821053,20.3171613 9.25189474,20.3171613 9.26352632,20.3144516 C9.28610526,20.3124194 9.30731579,20.3103871 9.33057895,20.3063226 C9.36342105,20.2995484 9.39694737,20.2920968 9.42910526,20.2853226 C9.45715789,20.2799032 9.48384211,20.2744839 9.51189474,20.2690645 C9.61794737,20.2467097 9.72331579,20.223 9.82594737,20.1965806 C9.83689474,20.193871 9.84852632,20.1911613 9.86084211,20.1884516 C10.7256842,19.9676129 11.531,19.6065484 12.2514737,19.131 C12.4416842,19.0043226 12.6257368,18.8715484 12.8022632,18.7306452 C13.2846316,18.3479032 13.7204737,17.9116452 14.0981579,17.4286452 L14.0981579,17.4286452 Z M7.83626316,1.33045161 L8.40689474,1.87645161 L7.267,1.87645161 L7.83626316,1.33045161 L7.83626316,1.33045161 Z M8.68263158,2.78487097 L7.83626316,4.38967742 L6.99057895,2.78487097 L8.68263158,2.78487097 L8.68263158,2.78487097 Z M9.10684211,3.94393548 L9.71784211,2.78487097 L10.7174737,2.78487097 L9.10684211,3.94393548 L9.10684211,3.94393548 Z M10.3042105,1.14958065 L11.0315263,1.87645161 L9.71921053,1.87645161 C9.70757895,1.86154839 9.69526316,1.84529032 9.68021053,1.83241935 L8.96657895,1.14958065 L10.3042105,1.14958065 L10.3042105,1.14958065 Z M5.40389474,1.14958065 L6.70594737,1.14958065 L5.99231579,1.83241935 C5.97726316,1.84529032 5.967,1.86154839 5.95468421,1.87645161 L4.67863158,1.87645161 L5.40389474,1.14958065 L5.40389474,1.14958065 Z M4.99131579,2.78487097 L5.95605263,2.78487097 L6.54447368,3.90125806 L4.99131579,2.78487097 L4.99131579,2.78487097 Z" id="Fill-2"></path>
            </g>
        </g>
    </g>
</svg>