<svg width="32" height="232" viewBox="0 0 32 232" xmlns="http://www.w3.org/2000/svg" xmlns:sketch="http://www.bohemiancoding.com/sketch/ns"><title>honeymoon</title><g sketch:type="MSPage" fill="none"><g sketch:type="MSLayerGroup" fill="#3B444F"><path d="M20.707 11.87c-1.856 0-3.563.642-4.91 1.71-.481.383-.915.82-1.295 1.302-1.037 1.319-1.656 2.975-1.656 4.771 0 1.577.478 3.046 1.296 4.273.506-.392.941-.87 1.279-1.414-.425-.765-.684-1.631-.732-2.553l-.007-.306.007-.307c.062-1.168.464-2.248 1.109-3.147.362-.502.798-.947 1.295-1.318.621-.463 1.336-.81 2.111-1.007.192-.049.387-.089.588-.119.298-.045.604-.068.915-.068.311 0 .619.023.917.068.199.03.395.07.588.119l.233.064.453.155.436.189c1.924.926 3.278 2.836 3.393 5.063l.008.307-.008.306c-.115 2.227-1.469 4.137-3.393 5.063l-.436.189-.453.155-.233.064c-.192.049-.389.089-.588.119-.298.046-.606.07-.917.07-.311 0-.617-.024-.915-.07-.2-.03-.395-.07-.588-.119-.549-.14-1.065-.356-1.542-.633-.377.495-.806.948-1.28 1.351 1.241.812 2.729 1.288 4.326 1.288 4.335 0 7.862-3.491 7.862-7.783s-3.526-7.784-7.862-7.784" id="Fill-1" sketch:type="MSShapeGroup"/><path d="M17.098 24.429c.135-.172.263-.35.384-.532.456-.694.802-1.465 1.015-2.29l.007-.029.075-.318.014-.07.007-.033.049-.28.01-.05.005-.028.002-.037c.053-.362.082-.731.082-1.107 0-1.562-.469-3.018-1.274-4.238-.51.383-.948.854-1.295 1.389.466.847.733 1.818.733 2.849 0 .307-.024.61-.07.905l-.003.01-.048.274-.007.028-.068.287h.001c-.125.476-.307.927-.536 1.349-.116.211-.243.413-.383.607-.359.502-.798.946-1.296 1.316-.177.131-.361.253-.552.364-.528.309-1.11.541-1.73.679v-.003l-.105.024-.035.008c-.386.077-.785.119-1.196.119-3.322 0-6.025-2.677-6.025-5.967 0-3.29 2.703-5.966 6.025-5.966 1.117 0 2.165.303 3.063.83.382-.49.816-.94 1.297-1.337-.898-.593-1.923-1.009-3.026-1.196l3.178-2.286.049-.043.01-.009.049-.058.007-.009.038-.069.001-.006.024-.075.003-.008.007-.051.001-.03.001-.007-.001-.003-.006-.081-.004-.014-.023-.072-.007-.014-.035-.066-.008-.01-.04-.047-.01-.012-1.633-1.635c-.086-.086-.203-.135-.326-.135h-2.534l-.127-.012-.125.012h-2.499c-.121 0-.239.049-.326.135l-1.633 1.635-.008.012-.04.047-.008.01-.036.066-.007.014-.023.072-.001.014-.008.081-.001.003.001.007v.03l.008.051.001.008.024.075.003.006.038.069.007.009.048.058.01.009.051.043 3.19 2.296c-3.675.65-6.475 3.836-6.475 7.66 0 4.291 3.526 7.783 7.862 7.783.456 0 .902-.04 1.336-.114v-.004l.04-.004.067-.008.099-.021.083-.016.314-.072.035-.008c.865-.221 1.67-.582 2.391-1.057.19-.127.374-.259.551-.4.482-.383.918-.819 1.296-1.302zm-6.262-16.098l.571.546h-1.14l.569-.546zm.846 1.454l-.846 1.605-.846-1.605h1.692zm.424 1.159l.611-1.159h1l-1.611 1.159zm1.197-2.794l.727.727h-1.312l-.039-.044-.714-.683h1.338zm-4.9 0h1.302l-.714.683-.038.044h-1.276l.725-.727zm-.413 1.635h.965l.588 1.116-1.553-1.116z" id="Fill-2" sketch:type="MSShapeGroup"/></g><g sketch:type="MSLayerGroup" fill="#67747C"><path d="M20.707 50.87c-1.856 0-3.563.642-4.91 1.71-.481.383-.915.82-1.295 1.302-1.037 1.319-1.656 2.975-1.656 4.771 0 1.577.478 3.046 1.296 4.273.506-.392.941-.87 1.279-1.414-.425-.765-.684-1.631-.732-2.553l-.007-.306.007-.307c.062-1.168.464-2.248 1.109-3.147.362-.502.798-.947 1.295-1.318.621-.463 1.336-.81 2.111-1.007.192-.049.387-.089.588-.119.298-.045.604-.068.915-.068.311 0 .619.023.917.068.199.03.395.07.588.119l.233.064.453.155.436.189c1.924.926 3.278 2.836 3.393 5.063l.008.307-.008.306c-.115 2.227-1.469 4.137-3.393 5.063l-.436.189-.453.155-.233.064c-.192.049-.389.089-.588.119-.298.046-.606.07-.917.07-.311 0-.617-.024-.915-.07-.2-.03-.395-.07-.588-.119-.549-.14-1.065-.356-1.542-.633-.377.495-.806.948-1.28 1.351 1.241.812 2.729 1.288 4.326 1.288 4.335 0 7.862-3.491 7.862-7.783s-3.526-7.784-7.862-7.784" id="Fill-1" sketch:type="MSShapeGroup"/><path d="M17.098 63.429c.135-.172.263-.35.384-.532.456-.694.802-1.465 1.015-2.29l.007-.029.075-.318.014-.07.007-.033.049-.28.01-.05.005-.028.002-.037c.053-.362.082-.731.082-1.107 0-1.562-.469-3.018-1.274-4.238-.51.383-.948.854-1.295 1.389.466.847.733 1.818.733 2.849 0 .307-.024.61-.07.905l-.003.01-.048.274-.007.028-.068.287h.001c-.125.476-.307.927-.536 1.349-.116.211-.243.413-.383.607-.359.502-.798.946-1.296 1.316-.177.131-.361.253-.552.364-.528.309-1.11.541-1.73.679v-.003l-.105.024-.035.008c-.386.077-.785.119-1.196.119-3.322 0-6.025-2.677-6.025-5.967 0-3.29 2.703-5.966 6.025-5.966 1.117 0 2.165.303 3.063.83.382-.49.816-.94 1.297-1.337-.898-.593-1.923-1.009-3.026-1.196l3.178-2.286.049-.043.01-.009.049-.058.007-.009.038-.069.001-.006.024-.075.003-.008.007-.051.001-.03.001-.007-.001-.003-.006-.081-.004-.014-.023-.072-.007-.014-.035-.066-.008-.01-.04-.047-.01-.012-1.633-1.635c-.086-.086-.203-.135-.326-.135h-2.534l-.127-.012-.125.012h-2.499c-.121 0-.239.049-.326.135l-1.633 1.635-.008.012-.04.047-.008.01-.036.066-.007.014-.023.072-.001.014-.008.081-.001.003.001.007v.03l.008.051.001.008.024.075.003.006.038.069.007.009.048.058.01.009.051.043 3.19 2.296c-3.675.65-6.475 3.836-6.475 7.66 0 4.291 3.526 7.783 7.862 7.783.456 0 .902-.04 1.336-.114v-.004l.04-.004.067-.008.099-.021.083-.016.314-.072.035-.008c.865-.221 1.67-.582 2.391-1.057.19-.127.374-.259.551-.4.482-.383.918-.819 1.296-1.302zm-6.262-16.098l.571.546h-1.14l.569-.546zm.846 1.454l-.846 1.605-.846-1.605h1.692zm.424 1.159l.611-1.159h1l-1.611 1.159zm1.197-2.794l.727.727h-1.312l-.039-.044-.714-.683h1.338zm-4.9 0h1.302l-.714.683-.038.044h-1.276l.725-.727zm-.413 1.635h.965l.588 1.116-1.553-1.116z" id="Fill-2" sketch:type="MSShapeGroup"/></g><g sketch:type="MSLayerGroup" fill="#fff"><path d="M20.707 90.87c-1.856 0-3.563.642-4.91 1.71-.481.383-.915.82-1.295 1.302-1.037 1.319-1.656 2.975-1.656 4.771 0 1.577.478 3.046 1.296 4.273.506-.392.941-.87 1.279-1.414-.425-.765-.684-1.631-.732-2.553l-.007-.306.007-.307c.062-1.168.464-2.248 1.109-3.147.362-.502.798-.947 1.295-1.318.621-.463 1.336-.81 2.111-1.007.192-.049.387-.089.588-.119.298-.045.604-.068.915-.068.311 0 .619.023.917.068.199.03.395.07.588.119l.233.064.453.155.436.189c1.924.926 3.278 2.836 3.393 5.063l.008.307-.008.306c-.115 2.227-1.469 4.137-3.393 5.063l-.436.189-.453.155-.233.064c-.192.049-.389.089-.588.119-.298.046-.606.07-.917.07-.311 0-.617-.024-.915-.07-.2-.03-.395-.07-.588-.119-.549-.14-1.065-.356-1.542-.633-.377.495-.806.948-1.28 1.351 1.241.812 2.729 1.288 4.326 1.288 4.335 0 7.862-3.491 7.862-7.783s-3.526-7.784-7.862-7.784" id="Fill-1" sketch:type="MSShapeGroup"/><path d="M17.098 103.429c.135-.172.263-.35.384-.532.456-.694.802-1.465 1.015-2.29l.007-.029.075-.318.014-.07.007-.033.049-.28.01-.05.005-.028.002-.037c.053-.362.082-.731.082-1.107 0-1.562-.469-3.018-1.274-4.238-.51.383-.948.854-1.295 1.389.466.847.733 1.818.733 2.849 0 .307-.024.61-.07.905l-.003.01-.048.274-.007.028-.068.287h.001c-.125.476-.307.927-.536 1.349-.116.211-.243.413-.383.607-.359.502-.798.946-1.296 1.316-.177.131-.361.253-.552.364-.528.309-1.11.541-1.73.679v-.003l-.105.024-.035.008c-.386.077-.785.119-1.196.119-3.322 0-6.025-2.677-6.025-5.967 0-3.29 2.703-5.966 6.025-5.966 1.117 0 2.165.303 3.063.83.382-.49.816-.94 1.297-1.337-.898-.593-1.923-1.009-3.026-1.196l3.178-2.286.049-.043.01-.009.049-.058.007-.009.038-.069.001-.006.024-.075.003-.008.007-.051.001-.03.001-.007-.001-.003-.006-.081-.004-.014-.023-.072-.007-.014-.035-.066-.008-.01-.04-.047-.01-.012-1.633-1.635c-.086-.086-.203-.135-.326-.135h-2.534l-.127-.012-.125.012h-2.499c-.121 0-.239.049-.326.135l-1.633 1.635-.008.012-.04.047-.008.01-.036.066-.007.014-.023.072-.001.014-.008.081-.001.003.001.007v.03l.008.051.001.008.024.075.003.006.038.069.007.009.048.058.01.009.051.043 3.19 2.296c-3.675.65-6.475 3.836-6.475 7.66 0 4.291 3.526 7.783 7.862 7.783.456 0 .902-.04 1.336-.114v-.004l.04-.004.067-.008.099-.021.083-.016.314-.072.035-.008c.865-.221 1.67-.582 2.391-1.057.19-.127.374-.259.551-.4.482-.383.918-.819 1.296-1.302zm-6.262-16.098l.571.546h-1.14l.569-.546zm.846 1.454l-.846 1.605-.846-1.605h1.692zm.424 1.159l.611-1.159h1l-1.611 1.159zm1.197-2.794l.727.727h-1.312l-.039-.044-.714-.683h1.338zm-4.9 0h1.302l-.714.683-.038.044h-1.276l.725-.727zm-.413 1.635h.965l.588 1.116-1.553-1.116z" id="Fill-2" sketch:type="MSShapeGroup"/></g><g sketch:type="MSLayerGroup" fill="#206FAC"><path d="M20.707 130.87c-1.856 0-3.563.642-4.91 1.71-.481.383-.915.82-1.295 1.302-1.037 1.319-1.656 2.975-1.656 4.771 0 1.577.478 3.046 1.296 4.273.506-.392.941-.87 1.279-1.414-.425-.765-.684-1.631-.732-2.553l-.007-.306.007-.307c.062-1.168.464-2.248 1.109-3.147.362-.502.798-.947 1.295-1.318.621-.463 1.336-.81 2.111-1.007.192-.049.387-.089.588-.119.298-.045.604-.068.915-.068.311 0 .619.023.917.068.199.03.395.07.588.119l.233.064.453.155.436.189c1.924.926 3.278 2.836 3.393 5.063l.008.307-.008.306c-.115 2.227-1.469 4.137-3.393 5.063l-.436.189-.453.155-.233.064c-.192.049-.389.089-.588.119-.298.046-.606.07-.917.07-.311 0-.617-.024-.915-.07-.2-.03-.395-.07-.588-.119-.549-.14-1.065-.356-1.542-.633-.377.495-.806.948-1.28 1.351 1.241.812 2.729 1.288 4.326 1.288 4.335 0 7.862-3.491 7.862-7.783s-3.526-7.784-7.862-7.784" sketch:type="MSShapeGroup"/><path d="M17.098 143.429c.135-.172.263-.35.384-.532.456-.694.802-1.465 1.015-2.29l.007-.029.075-.318.014-.07.007-.033.049-.28.01-.05.005-.028.002-.037c.053-.362.082-.731.082-1.107 0-1.562-.469-3.018-1.274-4.238-.51.383-.948.854-1.295 1.389.466.847.733 1.818.733 2.849 0 .307-.024.61-.07.905l-.003.01-.048.274-.007.028-.068.287h.001c-.125.476-.307.927-.536 1.349-.116.211-.243.413-.383.607-.359.502-.798.946-1.296 1.316-.177.131-.361.253-.552.364-.528.309-1.11.541-1.73.679v-.003l-.105.024-.035.008c-.386.077-.785.119-1.196.119-3.322 0-6.025-2.677-6.025-5.967 0-3.29 2.703-5.966 6.025-5.966 1.117 0 2.165.303 3.063.83.382-.49.816-.94 1.297-1.337-.898-.593-1.923-1.009-3.026-1.196l3.178-2.286.049-.043.01-.009.049-.058.007-.009.038-.069.001-.006.024-.075.003-.008.007-.051.001-.03.001-.007-.001-.003-.006-.081-.004-.014-.023-.072-.007-.014-.035-.066-.008-.01-.04-.047-.01-.012-1.633-1.635c-.086-.086-.203-.135-.326-.135h-2.534l-.127-.012-.125.012h-2.499c-.121 0-.239.049-.326.135l-1.633 1.635-.008.012-.04.047-.008.01-.036.066-.007.014-.023.072-.001.014-.008.081-.001.003.001.007v.03l.008.051.001.008.024.075.003.006.038.069.007.009.048.058.01.009.051.043 3.19 2.296c-3.675.65-6.475 3.836-6.475 7.66 0 4.291 3.526 7.783 7.862 7.783.456 0 .902-.04 1.336-.114v-.004l.04-.004.067-.008.099-.021.083-.016.314-.072.035-.008c.865-.221 1.67-.582 2.391-1.057.19-.127.374-.259.551-.4.482-.383.918-.819 1.296-1.302zm-6.262-16.098l.571.546h-1.14l.569-.546zm.846 1.454l-.846 1.605-.846-1.605h1.692zm.424 1.159l.611-1.159h1l-1.611 1.159zm1.197-2.794l.727.727h-1.312l-.039-.044-.714-.683h1.338zm-4.9 0h1.302l-.714.683-.038.044h-1.276l.725-.727zm-.413 1.635h.965l.588 1.116-1.553-1.116z" sketch:type="MSShapeGroup"/></g></g></svg>