<?xml version="1.0" encoding="UTF-8" standalone="no"?>
<svg width="32px" height="232px" viewBox="0 0 32 232" version="1.1" xmlns="http://www.w3.org/2000/svg" xmlns:xlink="http://www.w3.org/1999/xlink" xmlns:sketch="http://www.bohemiancoding.com/sketch/ns">
    <!-- Generator: Sketch 3.0.1 (7597) - http://www.bohemiancoding.com/sketch -->
    <title>island</title>
    <description>Created with Sketch.</description>
    <defs></defs>
    <g id="Points-of-interest" stroke="none" stroke-width="1" fill="none" fill-rule="evenodd" sketch:type="MSPage">
        <g id="Islands-3" sketch:type="MSLayerGroup" transform="translate(0.000000, 7.000000)" fill="#3B444F">
            <path d="M31.4708293,12.6834545 C30.9065366,12.6834545 30.6013659,12.8479091 30.3562927,12.9804545 C30.1627317,13.0876364 30.0331707,13.1563636 29.7233171,13.1563636 C29.4142439,13.1563636 29.2854634,13.0876364 29.091122,12.9804545 C28.8460488,12.8479091 28.5400976,12.6834545 27.9758049,12.6834545 C27.6839024,12.6834545 27.4614634,12.7276364 27.2803902,12.7881818 C27.2538537,12.6130909 27.1867317,12.4412727 27.0743415,12.2899091 L25.9239024,10.7255455 C25.8138537,10.5766364 25.6718049,10.4604545 25.507122,10.3868182 L23.2811707,9.38781818 C23.2913171,8.95663636 23.3467317,8.41827273 23.5004878,7.80627273 C23.779122,6.69845455 24.2310244,5.95881818 24.4823415,5.607 C25.3869268,5.72972727 27.4497561,6.06845455 28.6727805,6.72709091 C28.7484878,6.76881818 28.8296585,6.78763636 28.9108293,6.78763636 C29.0638049,6.78763636 29.212878,6.71727273 29.315122,6.588 C29.4727805,6.38836364 29.475122,6.10118182 29.3205854,5.89827273 C29.2714146,5.832 28.1553171,4.38790909 26.1900488,4.17354545 C26.944,3.69245455 27.8165854,3.20809091 28.5627317,2.988 C28.798439,2.91763636 28.9576585,2.68281818 28.9412683,2.42509091 C28.926439,2.16818182 28.7422439,1.95545455 28.4979512,1.917 C28.478439,1.91372727 28.2958049,1.88509091 28.0078049,1.88509091 C27.3381463,1.88509091 25.9301463,2.04218182 24.7274146,3.204 C24.4643902,2.05936364 23.7752195,0.761727273 22.270439,-0.121909091 C22.0565854,-0.247909091 21.7873171,-0.200454545 21.6249756,-0.00981818182 C21.4610732,0.18 21.4454634,0.464727273 21.5875122,0.674181818 C21.6023415,0.696272727 22.7496585,2.39481818 23.4154146,4.00581818 C23.2413659,3.98045455 23.0501463,3.96245455 22.848,3.96245455 C21.8442927,3.96245455 20.9045854,4.37972727 20.1303415,5.16927273 C19.9547317,5.34845455 19.9203902,5.63236364 20.0491707,5.85 C20.1459512,6.01609091 20.3176585,6.11181818 20.4963902,6.11181818 C20.5525854,6.11181818 20.609561,6.10281818 20.6649756,6.08154545 C20.6821463,6.07663636 22.0901463,5.57181818 23.3436098,5.41063636 C23.0548293,5.89909091 22.7192195,6.606 22.4881951,7.52809091 C22.3828293,7.95272727 22.3164878,8.35118182 22.2782439,8.712 L21.5750244,8.14581818 C21.3947317,7.99936364 21.1738537,7.91918182 20.9451707,7.91754545 C20.702439,7.91590909 20.2435122,7.91263636 19.7533659,7.90936364 C19.7650732,7.443 19.7276098,6.82281818 19.5473171,6.10281818 C19.3490732,5.31490909 19.0571707,4.71681818 18.812878,4.31263636 C20.1162927,3.825 21.9114146,3.63681818 21.9332683,3.63354545 C22.176,3.60981818 22.3703415,3.41018182 22.4007805,3.15572727 C22.430439,2.89963636 22.2883902,2.65909091 22.0581463,2.57072727 C21.5609756,2.38418182 21.0630244,2.28927273 20.5783415,2.28927273 C20.030439,2.28927273 19.550439,2.40954545 19.1453659,2.57890909 C19.6542439,1.56927273 20.2474146,0.688090909 20.2567805,0.674181818 C20.3996098,0.464727273 20.3832195,0.18 20.2200976,-0.00981818182 C20.0561951,-0.202090909 19.7884878,-0.247909091 19.5754146,-0.121909091 C18.4070244,0.563727273 17.8357073,1.55127273 17.5906341,2.45454545 C16.6259512,1.59954545 15.5332683,1.48090909 15.004878,1.48090909 C14.7652683,1.48090909 14.6107317,1.50463636 14.5943415,1.50627273 C14.3508293,1.54636364 14.1658537,1.75745455 14.1502439,2.016 C14.1354146,2.27372727 14.2930732,2.50690909 14.5303415,2.57727273 C15.2226341,2.78181818 16.0569756,3.27681818 16.7157073,3.717 C14.913561,4.26436364 14.2556098,5.92854545 14.2243902,6.01118182 C14.1322927,6.25090909 14.2134634,6.52581818 14.4179512,6.66981818 C14.5069268,6.73363636 14.6083902,6.76390909 14.7106341,6.76390909 C14.8417561,6.76390909 14.9713171,6.71154545 15.072,6.61090909 C15.8056585,5.87372727 17.1621463,5.17090909 17.8825366,4.82727273 C18.083122,5.14227273 18.3547317,5.66263636 18.5342439,6.38181818 C18.691122,7.002 18.716878,7.53136364 18.7051707,7.90854545 C18.3227317,7.90936364 18.012878,7.91263636 17.9020488,7.92081818 C17.7724878,7.93063636 17.4165854,7.95763636 16.6524878,8.48372727 L15.1843902,7.974 C15.0774634,7.93718182 14.9674146,7.91754545 14.8550244,7.91754545 L11.9047805,7.91754545 C11.8165854,7.91754545 11.7276098,7.93063636 11.6409756,7.95272727 L9.12858537,8.63836364 C9.05521951,8.658 8.98263415,8.68663636 8.91473171,8.72509091 L6.2977561,10.1307273 C6.16429268,10.2027273 6.04643902,10.305 5.95356098,10.4285455 L4.40507317,12.4862727 C4.33326829,12.5836364 4.27941463,12.6875455 4.24195122,12.798 C4.05697561,12.7325455 3.82673171,12.6834545 3.52,12.6834545 C3.232,12.6834545 2.99629268,12.9289091 2.99629268,13.2308182 C2.99629268,13.5343636 3.232,13.7806364 3.52,13.7806364 C3.82907317,13.7806364 3.95785366,13.8493636 4.15297561,13.9565455 C4.36136585,14.0686364 4.61346341,14.2044545 5.02868293,14.2429091 C5.0942439,14.2568182 5.15980488,14.2633636 5.22692683,14.2633636 C5.27453659,14.2633636 5.32136585,14.2584545 5.36819512,14.2519091 C5.8684878,14.2347273 6.15180488,14.0800909 6.38126829,13.9565455 C6.57639024,13.8493636 6.70517073,13.7806364 7.01346341,13.7806364 C7.32331707,13.7806364 7.45131707,13.8493636 7.64643902,13.9565455 C7.89229268,14.0890909 8.19668293,14.2535455 8.76097561,14.2535455 C9.3244878,14.2535455 9.62965854,14.0890909 9.87395122,13.9565455 C10.0690732,13.8493636 10.1970732,13.7806364 10.5077073,13.7806364 C10.816,13.7806364 10.9447805,13.8493636 11.1399024,13.9565455 C11.3841951,14.0890909 11.6901463,14.2535455 12.2536585,14.2535455 C12.8179512,14.2535455 13.1223415,14.0890909 13.3681951,13.9565455 C13.5617561,13.8493636 13.6913171,13.7806364 14.0003902,13.7806364 C14.3094634,13.7806364 14.4382439,13.8493636 14.6333659,13.9565455 C14.878439,14.0890909 15.1828293,14.2535455 15.747122,14.2535455 C16.3114146,14.2535455 16.6158049,14.0890909 16.862439,13.9565455 C17.0552195,13.8493636 17.1847805,13.7806364 17.4938537,13.7806364 C17.8029268,13.7806364 17.9324878,13.8493636 18.1276098,13.9565455 C18.3719024,14.0890909 18.6770732,14.2535455 19.2398049,14.2535455 C19.804878,14.2535455 20.1092683,14.0890909 20.355122,13.9565455 C20.5486829,13.8493636 20.6790244,13.7806364 20.9873171,13.7806364 C21.2963902,13.7806364 21.4251707,13.8493636 21.6195122,13.9565455 C21.8653659,14.0890909 22.1705366,14.2535455 22.7348293,14.2535455 C23.299122,14.2535455 23.6035122,14.0890909 23.8493659,13.9565455 C24.0437073,13.8493636 24.1724878,13.7806364 24.481561,13.7806364 C24.7906341,13.7806364 24.9194146,13.8493636 25.1145366,13.9565455 C25.3588293,14.0890909 25.664,14.2535455 26.2282927,14.2535455 C26.7925854,14.2535455 27.0977561,14.0890909 27.3420488,13.9565455 C27.5371707,13.8493636 27.6667317,13.7806364 27.9758049,13.7806364 C28.284878,13.7806364 28.4136585,13.8493636 28.6087805,13.9565455 C28.8546341,14.0890909 29.1590244,14.2535455 29.7233171,14.2535455 C30.2883902,14.2535455 30.5912195,14.0890909 30.8386341,13.9565455 C31.0329756,13.8493636 31.1617561,13.7806364 31.4708293,13.7806364 C31.7588293,13.7806364 31.9937561,13.5343636 31.9937561,13.2308182 C31.9937561,12.9289091 31.7588293,12.6834545 31.4708293,12.6834545 L31.4708293,12.6834545 Z M24.481561,12.6834545 C23.9172683,12.6834545 23.6120976,12.8479091 23.3678049,12.9804545 C23.1726829,13.0876364 23.043122,13.1563636 22.7348293,13.1563636 C22.4241951,13.1563636 22.2961951,13.0876364 22.1018537,12.9804545 C21.8567805,12.8479091 21.5516098,12.6834545 20.9873171,12.6834545 C20.4230244,12.6834545 20.1186341,12.8479091 19.8727805,12.9804545 C19.6792195,13.0876364 19.5496585,13.1563636 19.2398049,13.1563636 C18.9315122,13.1563636 18.8027317,13.0876364 18.6083902,12.9804545 C18.3633171,12.8479091 18.0581463,12.6834545 17.4938537,12.6834545 C16.929561,12.6834545 16.6243902,12.8479091 16.3793171,12.9804545 C16.1849756,13.0876364 16.0554146,13.1563636 15.747122,13.1563636 C15.4372683,13.1563636 15.3092683,13.0876364 15.1141463,12.9804545 C14.8690732,12.8479091 14.5646829,12.6834545 14.0003902,12.6834545 C13.4360976,12.6834545 13.1317073,12.8479091 12.8858537,12.9804545 C12.6915122,13.0876364 12.5635122,13.1563636 12.2536585,13.1563636 C11.9453659,13.1563636 11.8165854,13.0876364 11.6214634,12.9804545 C11.3756098,12.8479091 11.0712195,12.6834545 10.5077073,12.6834545 C9.94341463,12.6834545 9.6382439,12.8479091 9.39317073,12.9804545 C9.19804878,13.0876364 9.06926829,13.1563636 8.76097561,13.1563636 C8.45112195,13.1563636 8.32312195,13.0876364 8.128,12.9804545 C7.88370732,12.8479091 7.57853659,12.6834545 7.01346341,12.6834545 C6.9822439,12.6834545 6.95180488,12.6834545 6.92214634,12.6842727 L7.456,11.9749091 L9.76780488,10.7320909 L12.0390244,10.1135455 L14.684878,10.1135455 L16.4963902,10.7410909 C16.8226341,10.8548182 17.1800976,10.7926364 17.4540488,10.5766364 C17.665561,10.4105455 17.9832195,10.1904545 18.144,10.107 C18.4897561,10.0988182 19.5449756,10.1020909 20.577561,10.1102727 L21.7350244,11.0438182 C21.8044878,11.0994545 21.8801951,11.1477273 21.9605854,11.1829091 L24.4331707,12.2931818 L24.7289756,12.6940909 C24.6517073,12.6875455 24.5705366,12.6834545 24.481561,12.6834545 L24.481561,12.6834545 Z" id="Fill-1" sketch:type="MSShapeGroup"></path>
            <path d="M25.1605854,15.3998182 L25.152,15.3998182 L25.1317073,15.3998182 L25.1114146,15.3998182 C24.547122,15.3998182 24.2419512,15.5642727 23.996878,15.6968182 C23.8072195,15.8007273 23.6792195,15.8694545 23.3849756,15.8727273 C23.0907317,15.8694545 22.9619512,15.8007273 22.7722927,15.6968182 C22.526439,15.5642727 22.2220488,15.3998182 21.6569756,15.3998182 L21.6374634,15.3998182 L21.6163902,15.3998182 C21.0536585,15.3998182 20.7484878,15.5642727 20.5026341,15.6968182 C20.3129756,15.8007273 20.1841951,15.8694545 19.8891707,15.8727273 C19.5964878,15.8694545 19.4669268,15.8007273 19.2772683,15.6968182 C19.0329756,15.5642727 18.7270244,15.3998182 18.1627317,15.3998182 L18.142439,15.3998182 L18.1244878,15.3998182 C17.5586341,15.3998182 17.2542439,15.5642727 17.0091707,15.6968182 C16.8179512,15.8007273 16.6915122,15.8694545 16.3964878,15.8727273 C16.1022439,15.8694545 15.9734634,15.8007273 15.7830244,15.6968182 C15.5379512,15.5642727 15.2343415,15.3998182 14.6700488,15.3998182 L14.6489756,15.3998182 L14.6294634,15.3998182 C14.0651707,15.3998182 13.7607805,15.5642727 13.5141463,15.6968182 C13.3252683,15.8007273 13.1972683,15.8694545 12.9030244,15.8727273 C12.6087805,15.8694545 12.48,15.8007273 12.289561,15.6968182 C12.0452683,15.5642727 11.7393171,15.3998182 11.1750244,15.3998182 L11.1562927,15.3998182 L11.1367805,15.3998182 C10.5724878,15.3998182 10.2673171,15.5642727 10.0222439,15.6968182 C9.83102439,15.8007273 9.70380488,15.8694545 9.40956098,15.8727273 C9.11531707,15.8694545 8.98653659,15.8007273 8.79687805,15.6968182 C8.5502439,15.5642727 8.24663415,15.3998182 7.68234146,15.3998182 L7.66282927,15.3998182 L7.64253659,15.3998182 C7.0782439,15.3998182 6.77463415,15.5642727 6.528,15.6968182 C6.33912195,15.8007273 6.21034146,15.8694545 5.91609756,15.8727273 C5.62107317,15.8694545 5.49385366,15.8007273 5.30263415,15.6968182 C5.05834146,15.5642727 4.75317073,15.3998182 4.18809756,15.3998182 L4.17014634,15.3998182 L4.15063415,15.3998182 C3.58634146,15.3998182 3.28039024,15.5642727 3.03687805,15.6968182 C2.84565854,15.8007273 2.71687805,15.8694545 2.42263415,15.8727273 C2.12839024,15.8694545 1.99960976,15.8007273 1.80995122,15.6968182 C1.56487805,15.5642727 1.25970732,15.3998182 0.69697561,15.3998182 L0.675902439,15.3998182 L0.657170732,15.3998182 L0.647804878,15.3998182 C0.362926829,15.4047273 0.133463415,15.6477273 0.133463415,15.948 C0.133463415,16.2499091 0.366829268,16.4961818 0.657170732,16.4961818 C0.664195122,16.4961818 0.668878049,16.4978182 0.675902439,16.4978182 C0.970146341,16.4994545 1.09892683,16.5681818 1.28936585,16.6720909 C1.53443902,16.8046364 1.83882927,16.9707273 2.40312195,16.9707273 L2.42263415,16.9707273 L2.44292683,16.9707273 C3.00643902,16.9707273 3.31082927,16.8046364 3.55668293,16.6720909 C3.74712195,16.5681818 3.87512195,16.4994545 4.17014634,16.4978182 C4.46439024,16.4994545 4.59239024,16.5681818 4.78360976,16.6720909 C5.02712195,16.8046364 5.33229268,16.9707273 5.89658537,16.9707273 L5.91609756,16.9707273 L5.93482927,16.9707273 C6.49912195,16.9707273 6.80429268,16.8046364 7.04936585,16.6720909 C7.23980488,16.5681818 7.36780488,16.4994545 7.66282927,16.4978182 C7.95629268,16.4994545 8.08507317,16.5681818 8.27629268,16.6720909 C8.52058537,16.8046364 8.82497561,16.9707273 9.38926829,16.9707273 L9.40956098,16.9707273 L9.42907317,16.9707273 C9.99258537,16.9707273 10.2977561,16.8046364 10.5420488,16.6720909 C10.7324878,16.5681818 10.8620488,16.4994545 11.1562927,16.4978182 C11.4513171,16.4994545 11.5785366,16.5681818 11.7697561,16.6720909 C12.0140488,16.8046364 12.3192195,16.9707273 12.8835122,16.9707273 L12.9030244,16.9707273 L12.9225366,16.9707273 C13.4860488,16.9707273 13.7912195,16.8046364 14.0362927,16.6720909 C14.2275122,16.5681818 14.3555122,16.4994545 14.6489756,16.4978182 C14.9447805,16.4994545 15.072,16.5681818 15.262439,16.6720909 C15.5082927,16.8046364 15.8126829,16.9707273 16.3761951,16.9707273 L16.3964878,16.9707273 L16.416,16.9707273 C16.9802927,16.9707273 17.2854634,16.8046364 17.5297561,16.6720909 C17.7201951,16.5681818 17.8489756,16.4994545 18.142439,16.4978182 C18.4374634,16.4994545 18.5654634,16.5681818 18.7559024,16.6720909 C19.0009756,16.8046364 19.3061463,16.9707273 19.8696585,16.9707273 L19.8899512,16.9707273 L19.9102439,16.9707273 C20.4745366,16.9707273 20.7789268,16.8046364 21.024,16.6720909 C21.2152195,16.5681818 21.342439,16.4994545 21.6374634,16.4978182 C21.9324878,16.4994545 22.0597073,16.5681818 22.2501463,16.6720909 C22.4952195,16.8046364 22.7996098,16.9707273 23.3654634,16.9707273 L23.3849756,16.9707273 L23.4044878,16.9707273 C23.969561,16.9707273 24.2739512,16.8046364 24.5190244,16.6720909 C24.7086829,16.5681818 24.8382439,16.4994545 25.1317073,16.4978182 C25.1387317,16.4978182 25.1449756,16.4961818 25.152,16.4961818 C25.4407805,16.4961818 25.6749268,16.2499091 25.6749268,15.948 C25.6749268,15.6477273 25.4462439,15.4047273 25.1605854,15.3998182" id="Fill-2" sketch:type="MSShapeGroup"></path>
        </g>
        <g id="Islands-4" sketch:type="MSLayerGroup" transform="translate(0.000000, 47.000000)" fill="#67747C">
            <path d="M31.4708293,12.6834545 C30.9065366,12.6834545 30.6013659,12.8479091 30.3562927,12.9804545 C30.1627317,13.0876364 30.0331707,13.1563636 29.7233171,13.1563636 C29.4142439,13.1563636 29.2854634,13.0876364 29.091122,12.9804545 C28.8460488,12.8479091 28.5400976,12.6834545 27.9758049,12.6834545 C27.6839024,12.6834545 27.4614634,12.7276364 27.2803902,12.7881818 C27.2538537,12.6130909 27.1867317,12.4412727 27.0743415,12.2899091 L25.9239024,10.7255455 C25.8138537,10.5766364 25.6718049,10.4604545 25.507122,10.3868182 L23.2811707,9.38781818 C23.2913171,8.95663636 23.3467317,8.41827273 23.5004878,7.80627273 C23.779122,6.69845455 24.2310244,5.95881818 24.4823415,5.607 C25.3869268,5.72972727 27.4497561,6.06845455 28.6727805,6.72709091 C28.7484878,6.76881818 28.8296585,6.78763636 28.9108293,6.78763636 C29.0638049,6.78763636 29.212878,6.71727273 29.315122,6.588 C29.4727805,6.38836364 29.475122,6.10118182 29.3205854,5.89827273 C29.2714146,5.832 28.1553171,4.38790909 26.1900488,4.17354545 C26.944,3.69245455 27.8165854,3.20809091 28.5627317,2.988 C28.798439,2.91763636 28.9576585,2.68281818 28.9412683,2.42509091 C28.926439,2.16818182 28.7422439,1.95545455 28.4979512,1.917 C28.478439,1.91372727 28.2958049,1.88509091 28.0078049,1.88509091 C27.3381463,1.88509091 25.9301463,2.04218182 24.7274146,3.204 C24.4643902,2.05936364 23.7752195,0.761727273 22.270439,-0.121909091 C22.0565854,-0.247909091 21.7873171,-0.200454545 21.6249756,-0.00981818182 C21.4610732,0.18 21.4454634,0.464727273 21.5875122,0.674181818 C21.6023415,0.696272727 22.7496585,2.39481818 23.4154146,4.00581818 C23.2413659,3.98045455 23.0501463,3.96245455 22.848,3.96245455 C21.8442927,3.96245455 20.9045854,4.37972727 20.1303415,5.16927273 C19.9547317,5.34845455 19.9203902,5.63236364 20.0491707,5.85 C20.1459512,6.01609091 20.3176585,6.11181818 20.4963902,6.11181818 C20.5525854,6.11181818 20.609561,6.10281818 20.6649756,6.08154545 C20.6821463,6.07663636 22.0901463,5.57181818 23.3436098,5.41063636 C23.0548293,5.89909091 22.7192195,6.606 22.4881951,7.52809091 C22.3828293,7.95272727 22.3164878,8.35118182 22.2782439,8.712 L21.5750244,8.14581818 C21.3947317,7.99936364 21.1738537,7.91918182 20.9451707,7.91754545 C20.702439,7.91590909 20.2435122,7.91263636 19.7533659,7.90936364 C19.7650732,7.443 19.7276098,6.82281818 19.5473171,6.10281818 C19.3490732,5.31490909 19.0571707,4.71681818 18.812878,4.31263636 C20.1162927,3.825 21.9114146,3.63681818 21.9332683,3.63354545 C22.176,3.60981818 22.3703415,3.41018182 22.4007805,3.15572727 C22.430439,2.89963636 22.2883902,2.65909091 22.0581463,2.57072727 C21.5609756,2.38418182 21.0630244,2.28927273 20.5783415,2.28927273 C20.030439,2.28927273 19.550439,2.40954545 19.1453659,2.57890909 C19.6542439,1.56927273 20.2474146,0.688090909 20.2567805,0.674181818 C20.3996098,0.464727273 20.3832195,0.18 20.2200976,-0.00981818182 C20.0561951,-0.202090909 19.7884878,-0.247909091 19.5754146,-0.121909091 C18.4070244,0.563727273 17.8357073,1.55127273 17.5906341,2.45454545 C16.6259512,1.59954545 15.5332683,1.48090909 15.004878,1.48090909 C14.7652683,1.48090909 14.6107317,1.50463636 14.5943415,1.50627273 C14.3508293,1.54636364 14.1658537,1.75745455 14.1502439,2.016 C14.1354146,2.27372727 14.2930732,2.50690909 14.5303415,2.57727273 C15.2226341,2.78181818 16.0569756,3.27681818 16.7157073,3.717 C14.913561,4.26436364 14.2556098,5.92854545 14.2243902,6.01118182 C14.1322927,6.25090909 14.2134634,6.52581818 14.4179512,6.66981818 C14.5069268,6.73363636 14.6083902,6.76390909 14.7106341,6.76390909 C14.8417561,6.76390909 14.9713171,6.71154545 15.072,6.61090909 C15.8056585,5.87372727 17.1621463,5.17090909 17.8825366,4.82727273 C18.083122,5.14227273 18.3547317,5.66263636 18.5342439,6.38181818 C18.691122,7.002 18.716878,7.53136364 18.7051707,7.90854545 C18.3227317,7.90936364 18.012878,7.91263636 17.9020488,7.92081818 C17.7724878,7.93063636 17.4165854,7.95763636 16.6524878,8.48372727 L15.1843902,7.974 C15.0774634,7.93718182 14.9674146,7.91754545 14.8550244,7.91754545 L11.9047805,7.91754545 C11.8165854,7.91754545 11.7276098,7.93063636 11.6409756,7.95272727 L9.12858537,8.63836364 C9.05521951,8.658 8.98263415,8.68663636 8.91473171,8.72509091 L6.2977561,10.1307273 C6.16429268,10.2027273 6.04643902,10.305 5.95356098,10.4285455 L4.40507317,12.4862727 C4.33326829,12.5836364 4.27941463,12.6875455 4.24195122,12.798 C4.05697561,12.7325455 3.82673171,12.6834545 3.52,12.6834545 C3.232,12.6834545 2.99629268,12.9289091 2.99629268,13.2308182 C2.99629268,13.5343636 3.232,13.7806364 3.52,13.7806364 C3.82907317,13.7806364 3.95785366,13.8493636 4.15297561,13.9565455 C4.36136585,14.0686364 4.61346341,14.2044545 5.02868293,14.2429091 C5.0942439,14.2568182 5.15980488,14.2633636 5.22692683,14.2633636 C5.27453659,14.2633636 5.32136585,14.2584545 5.36819512,14.2519091 C5.8684878,14.2347273 6.15180488,14.0800909 6.38126829,13.9565455 C6.57639024,13.8493636 6.70517073,13.7806364 7.01346341,13.7806364 C7.32331707,13.7806364 7.45131707,13.8493636 7.64643902,13.9565455 C7.89229268,14.0890909 8.19668293,14.2535455 8.76097561,14.2535455 C9.3244878,14.2535455 9.62965854,14.0890909 9.87395122,13.9565455 C10.0690732,13.8493636 10.1970732,13.7806364 10.5077073,13.7806364 C10.816,13.7806364 10.9447805,13.8493636 11.1399024,13.9565455 C11.3841951,14.0890909 11.6901463,14.2535455 12.2536585,14.2535455 C12.8179512,14.2535455 13.1223415,14.0890909 13.3681951,13.9565455 C13.5617561,13.8493636 13.6913171,13.7806364 14.0003902,13.7806364 C14.3094634,13.7806364 14.4382439,13.8493636 14.6333659,13.9565455 C14.878439,14.0890909 15.1828293,14.2535455 15.747122,14.2535455 C16.3114146,14.2535455 16.6158049,14.0890909 16.862439,13.9565455 C17.0552195,13.8493636 17.1847805,13.7806364 17.4938537,13.7806364 C17.8029268,13.7806364 17.9324878,13.8493636 18.1276098,13.9565455 C18.3719024,14.0890909 18.6770732,14.2535455 19.2398049,14.2535455 C19.804878,14.2535455 20.1092683,14.0890909 20.355122,13.9565455 C20.5486829,13.8493636 20.6790244,13.7806364 20.9873171,13.7806364 C21.2963902,13.7806364 21.4251707,13.8493636 21.6195122,13.9565455 C21.8653659,14.0890909 22.1705366,14.2535455 22.7348293,14.2535455 C23.299122,14.2535455 23.6035122,14.0890909 23.8493659,13.9565455 C24.0437073,13.8493636 24.1724878,13.7806364 24.481561,13.7806364 C24.7906341,13.7806364 24.9194146,13.8493636 25.1145366,13.9565455 C25.3588293,14.0890909 25.664,14.2535455 26.2282927,14.2535455 C26.7925854,14.2535455 27.0977561,14.0890909 27.3420488,13.9565455 C27.5371707,13.8493636 27.6667317,13.7806364 27.9758049,13.7806364 C28.284878,13.7806364 28.4136585,13.8493636 28.6087805,13.9565455 C28.8546341,14.0890909 29.1590244,14.2535455 29.7233171,14.2535455 C30.2883902,14.2535455 30.5912195,14.0890909 30.8386341,13.9565455 C31.0329756,13.8493636 31.1617561,13.7806364 31.4708293,13.7806364 C31.7588293,13.7806364 31.9937561,13.5343636 31.9937561,13.2308182 C31.9937561,12.9289091 31.7588293,12.6834545 31.4708293,12.6834545 L31.4708293,12.6834545 Z M24.481561,12.6834545 C23.9172683,12.6834545 23.6120976,12.8479091 23.3678049,12.9804545 C23.1726829,13.0876364 23.043122,13.1563636 22.7348293,13.1563636 C22.4241951,13.1563636 22.2961951,13.0876364 22.1018537,12.9804545 C21.8567805,12.8479091 21.5516098,12.6834545 20.9873171,12.6834545 C20.4230244,12.6834545 20.1186341,12.8479091 19.8727805,12.9804545 C19.6792195,13.0876364 19.5496585,13.1563636 19.2398049,13.1563636 C18.9315122,13.1563636 18.8027317,13.0876364 18.6083902,12.9804545 C18.3633171,12.8479091 18.0581463,12.6834545 17.4938537,12.6834545 C16.929561,12.6834545 16.6243902,12.8479091 16.3793171,12.9804545 C16.1849756,13.0876364 16.0554146,13.1563636 15.747122,13.1563636 C15.4372683,13.1563636 15.3092683,13.0876364 15.1141463,12.9804545 C14.8690732,12.8479091 14.5646829,12.6834545 14.0003902,12.6834545 C13.4360976,12.6834545 13.1317073,12.8479091 12.8858537,12.9804545 C12.6915122,13.0876364 12.5635122,13.1563636 12.2536585,13.1563636 C11.9453659,13.1563636 11.8165854,13.0876364 11.6214634,12.9804545 C11.3756098,12.8479091 11.0712195,12.6834545 10.5077073,12.6834545 C9.94341463,12.6834545 9.6382439,12.8479091 9.39317073,12.9804545 C9.19804878,13.0876364 9.06926829,13.1563636 8.76097561,13.1563636 C8.45112195,13.1563636 8.32312195,13.0876364 8.128,12.9804545 C7.88370732,12.8479091 7.57853659,12.6834545 7.01346341,12.6834545 C6.9822439,12.6834545 6.95180488,12.6834545 6.92214634,12.6842727 L7.456,11.9749091 L9.76780488,10.7320909 L12.0390244,10.1135455 L14.684878,10.1135455 L16.4963902,10.7410909 C16.8226341,10.8548182 17.1800976,10.7926364 17.4540488,10.5766364 C17.665561,10.4105455 17.9832195,10.1904545 18.144,10.107 C18.4897561,10.0988182 19.5449756,10.1020909 20.577561,10.1102727 L21.7350244,11.0438182 C21.8044878,11.0994545 21.8801951,11.1477273 21.9605854,11.1829091 L24.4331707,12.2931818 L24.7289756,12.6940909 C24.6517073,12.6875455 24.5705366,12.6834545 24.481561,12.6834545 L24.481561,12.6834545 Z" id="Fill-1" sketch:type="MSShapeGroup"></path>
            <path d="M25.1605854,15.3998182 L25.152,15.3998182 L25.1317073,15.3998182 L25.1114146,15.3998182 C24.547122,15.3998182 24.2419512,15.5642727 23.996878,15.6968182 C23.8072195,15.8007273 23.6792195,15.8694545 23.3849756,15.8727273 C23.0907317,15.8694545 22.9619512,15.8007273 22.7722927,15.6968182 C22.526439,15.5642727 22.2220488,15.3998182 21.6569756,15.3998182 L21.6374634,15.3998182 L21.6163902,15.3998182 C21.0536585,15.3998182 20.7484878,15.5642727 20.5026341,15.6968182 C20.3129756,15.8007273 20.1841951,15.8694545 19.8891707,15.8727273 C19.5964878,15.8694545 19.4669268,15.8007273 19.2772683,15.6968182 C19.0329756,15.5642727 18.7270244,15.3998182 18.1627317,15.3998182 L18.142439,15.3998182 L18.1244878,15.3998182 C17.5586341,15.3998182 17.2542439,15.5642727 17.0091707,15.6968182 C16.8179512,15.8007273 16.6915122,15.8694545 16.3964878,15.8727273 C16.1022439,15.8694545 15.9734634,15.8007273 15.7830244,15.6968182 C15.5379512,15.5642727 15.2343415,15.3998182 14.6700488,15.3998182 L14.6489756,15.3998182 L14.6294634,15.3998182 C14.0651707,15.3998182 13.7607805,15.5642727 13.5141463,15.6968182 C13.3252683,15.8007273 13.1972683,15.8694545 12.9030244,15.8727273 C12.6087805,15.8694545 12.48,15.8007273 12.289561,15.6968182 C12.0452683,15.5642727 11.7393171,15.3998182 11.1750244,15.3998182 L11.1562927,15.3998182 L11.1367805,15.3998182 C10.5724878,15.3998182 10.2673171,15.5642727 10.0222439,15.6968182 C9.83102439,15.8007273 9.70380488,15.8694545 9.40956098,15.8727273 C9.11531707,15.8694545 8.98653659,15.8007273 8.79687805,15.6968182 C8.5502439,15.5642727 8.24663415,15.3998182 7.68234146,15.3998182 L7.66282927,15.3998182 L7.64253659,15.3998182 C7.0782439,15.3998182 6.77463415,15.5642727 6.528,15.6968182 C6.33912195,15.8007273 6.21034146,15.8694545 5.91609756,15.8727273 C5.62107317,15.8694545 5.49385366,15.8007273 5.30263415,15.6968182 C5.05834146,15.5642727 4.75317073,15.3998182 4.18809756,15.3998182 L4.17014634,15.3998182 L4.15063415,15.3998182 C3.58634146,15.3998182 3.28039024,15.5642727 3.03687805,15.6968182 C2.84565854,15.8007273 2.71687805,15.8694545 2.42263415,15.8727273 C2.12839024,15.8694545 1.99960976,15.8007273 1.80995122,15.6968182 C1.56487805,15.5642727 1.25970732,15.3998182 0.69697561,15.3998182 L0.675902439,15.3998182 L0.657170732,15.3998182 L0.647804878,15.3998182 C0.362926829,15.4047273 0.133463415,15.6477273 0.133463415,15.948 C0.133463415,16.2499091 0.366829268,16.4961818 0.657170732,16.4961818 C0.664195122,16.4961818 0.668878049,16.4978182 0.675902439,16.4978182 C0.970146341,16.4994545 1.09892683,16.5681818 1.28936585,16.6720909 C1.53443902,16.8046364 1.83882927,16.9707273 2.40312195,16.9707273 L2.42263415,16.9707273 L2.44292683,16.9707273 C3.00643902,16.9707273 3.31082927,16.8046364 3.55668293,16.6720909 C3.74712195,16.5681818 3.87512195,16.4994545 4.17014634,16.4978182 C4.46439024,16.4994545 4.59239024,16.5681818 4.78360976,16.6720909 C5.02712195,16.8046364 5.33229268,16.9707273 5.89658537,16.9707273 L5.91609756,16.9707273 L5.93482927,16.9707273 C6.49912195,16.9707273 6.80429268,16.8046364 7.04936585,16.6720909 C7.23980488,16.5681818 7.36780488,16.4994545 7.66282927,16.4978182 C7.95629268,16.4994545 8.08507317,16.5681818 8.27629268,16.6720909 C8.52058537,16.8046364 8.82497561,16.9707273 9.38926829,16.9707273 L9.40956098,16.9707273 L9.42907317,16.9707273 C9.99258537,16.9707273 10.2977561,16.8046364 10.5420488,16.6720909 C10.7324878,16.5681818 10.8620488,16.4994545 11.1562927,16.4978182 C11.4513171,16.4994545 11.5785366,16.5681818 11.7697561,16.6720909 C12.0140488,16.8046364 12.3192195,16.9707273 12.8835122,16.9707273 L12.9030244,16.9707273 L12.9225366,16.9707273 C13.4860488,16.9707273 13.7912195,16.8046364 14.0362927,16.6720909 C14.2275122,16.5681818 14.3555122,16.4994545 14.6489756,16.4978182 C14.9447805,16.4994545 15.072,16.5681818 15.262439,16.6720909 C15.5082927,16.8046364 15.8126829,16.9707273 16.3761951,16.9707273 L16.3964878,16.9707273 L16.416,16.9707273 C16.9802927,16.9707273 17.2854634,16.8046364 17.5297561,16.6720909 C17.7201951,16.5681818 17.8489756,16.4994545 18.142439,16.4978182 C18.4374634,16.4994545 18.5654634,16.5681818 18.7559024,16.6720909 C19.0009756,16.8046364 19.3061463,16.9707273 19.8696585,16.9707273 L19.8899512,16.9707273 L19.9102439,16.9707273 C20.4745366,16.9707273 20.7789268,16.8046364 21.024,16.6720909 C21.2152195,16.5681818 21.342439,16.4994545 21.6374634,16.4978182 C21.9324878,16.4994545 22.0597073,16.5681818 22.2501463,16.6720909 C22.4952195,16.8046364 22.7996098,16.9707273 23.3654634,16.9707273 L23.3849756,16.9707273 L23.4044878,16.9707273 C23.969561,16.9707273 24.2739512,16.8046364 24.5190244,16.6720909 C24.7086829,16.5681818 24.8382439,16.4994545 25.1317073,16.4978182 C25.1387317,16.4978182 25.1449756,16.4961818 25.152,16.4961818 C25.4407805,16.4961818 25.6749268,16.2499091 25.6749268,15.948 C25.6749268,15.6477273 25.4462439,15.4047273 25.1605854,15.3998182" id="Fill-2" sketch:type="MSShapeGroup"></path>
        </g>
        <g id="Islands-6" sketch:type="MSLayerGroup" transform="translate(0.000000, 127.000000)" fill="#206FAC">
            <path d="M31.4708293,12.6834545 C30.9065366,12.6834545 30.6013659,12.8479091 30.3562927,12.9804545 C30.1627317,13.0876364 30.0331707,13.1563636 29.7233171,13.1563636 C29.4142439,13.1563636 29.2854634,13.0876364 29.091122,12.9804545 C28.8460488,12.8479091 28.5400976,12.6834545 27.9758049,12.6834545 C27.6839024,12.6834545 27.4614634,12.7276364 27.2803902,12.7881818 C27.2538537,12.6130909 27.1867317,12.4412727 27.0743415,12.2899091 L25.9239024,10.7255455 C25.8138537,10.5766364 25.6718049,10.4604545 25.507122,10.3868182 L23.2811707,9.38781818 C23.2913171,8.95663636 23.3467317,8.41827273 23.5004878,7.80627273 C23.779122,6.69845455 24.2310244,5.95881818 24.4823415,5.607 C25.3869268,5.72972727 27.4497561,6.06845455 28.6727805,6.72709091 C28.7484878,6.76881818 28.8296585,6.78763636 28.9108293,6.78763636 C29.0638049,6.78763636 29.212878,6.71727273 29.315122,6.588 C29.4727805,6.38836364 29.475122,6.10118182 29.3205854,5.89827273 C29.2714146,5.832 28.1553171,4.38790909 26.1900488,4.17354545 C26.944,3.69245455 27.8165854,3.20809091 28.5627317,2.988 C28.798439,2.91763636 28.9576585,2.68281818 28.9412683,2.42509091 C28.926439,2.16818182 28.7422439,1.95545455 28.4979512,1.917 C28.478439,1.91372727 28.2958049,1.88509091 28.0078049,1.88509091 C27.3381463,1.88509091 25.9301463,2.04218182 24.7274146,3.204 C24.4643902,2.05936364 23.7752195,0.761727273 22.270439,-0.121909091 C22.0565854,-0.247909091 21.7873171,-0.200454545 21.6249756,-0.00981818182 C21.4610732,0.18 21.4454634,0.464727273 21.5875122,0.674181818 C21.6023415,0.696272727 22.7496585,2.39481818 23.4154146,4.00581818 C23.2413659,3.98045455 23.0501463,3.96245455 22.848,3.96245455 C21.8442927,3.96245455 20.9045854,4.37972727 20.1303415,5.16927273 C19.9547317,5.34845455 19.9203902,5.63236364 20.0491707,5.85 C20.1459512,6.01609091 20.3176585,6.11181818 20.4963902,6.11181818 C20.5525854,6.11181818 20.609561,6.10281818 20.6649756,6.08154545 C20.6821463,6.07663636 22.0901463,5.57181818 23.3436098,5.41063636 C23.0548293,5.89909091 22.7192195,6.606 22.4881951,7.52809091 C22.3828293,7.95272727 22.3164878,8.35118182 22.2782439,8.712 L21.5750244,8.14581818 C21.3947317,7.99936364 21.1738537,7.91918182 20.9451707,7.91754545 C20.702439,7.91590909 20.2435122,7.91263636 19.7533659,7.90936364 C19.7650732,7.443 19.7276098,6.82281818 19.5473171,6.10281818 C19.3490732,5.31490909 19.0571707,4.71681818 18.812878,4.31263636 C20.1162927,3.825 21.9114146,3.63681818 21.9332683,3.63354545 C22.176,3.60981818 22.3703415,3.41018182 22.4007805,3.15572727 C22.430439,2.89963636 22.2883902,2.65909091 22.0581463,2.57072727 C21.5609756,2.38418182 21.0630244,2.28927273 20.5783415,2.28927273 C20.030439,2.28927273 19.550439,2.40954545 19.1453659,2.57890909 C19.6542439,1.56927273 20.2474146,0.688090909 20.2567805,0.674181818 C20.3996098,0.464727273 20.3832195,0.18 20.2200976,-0.00981818182 C20.0561951,-0.202090909 19.7884878,-0.247909091 19.5754146,-0.121909091 C18.4070244,0.563727273 17.8357073,1.55127273 17.5906341,2.45454545 C16.6259512,1.59954545 15.5332683,1.48090909 15.004878,1.48090909 C14.7652683,1.48090909 14.6107317,1.50463636 14.5943415,1.50627273 C14.3508293,1.54636364 14.1658537,1.75745455 14.1502439,2.016 C14.1354146,2.27372727 14.2930732,2.50690909 14.5303415,2.57727273 C15.2226341,2.78181818 16.0569756,3.27681818 16.7157073,3.717 C14.913561,4.26436364 14.2556098,5.92854545 14.2243902,6.01118182 C14.1322927,6.25090909 14.2134634,6.52581818 14.4179512,6.66981818 C14.5069268,6.73363636 14.6083902,6.76390909 14.7106341,6.76390909 C14.8417561,6.76390909 14.9713171,6.71154545 15.072,6.61090909 C15.8056585,5.87372727 17.1621463,5.17090909 17.8825366,4.82727273 C18.083122,5.14227273 18.3547317,5.66263636 18.5342439,6.38181818 C18.691122,7.002 18.716878,7.53136364 18.7051707,7.90854545 C18.3227317,7.90936364 18.012878,7.91263636 17.9020488,7.92081818 C17.7724878,7.93063636 17.4165854,7.95763636 16.6524878,8.48372727 L15.1843902,7.974 C15.0774634,7.93718182 14.9674146,7.91754545 14.8550244,7.91754545 L11.9047805,7.91754545 C11.8165854,7.91754545 11.7276098,7.93063636 11.6409756,7.95272727 L9.12858537,8.63836364 C9.05521951,8.658 8.98263415,8.68663636 8.91473171,8.72509091 L6.2977561,10.1307273 C6.16429268,10.2027273 6.04643902,10.305 5.95356098,10.4285455 L4.40507317,12.4862727 C4.33326829,12.5836364 4.27941463,12.6875455 4.24195122,12.798 C4.05697561,12.7325455 3.82673171,12.6834545 3.52,12.6834545 C3.232,12.6834545 2.99629268,12.9289091 2.99629268,13.2308182 C2.99629268,13.5343636 3.232,13.7806364 3.52,13.7806364 C3.82907317,13.7806364 3.95785366,13.8493636 4.15297561,13.9565455 C4.36136585,14.0686364 4.61346341,14.2044545 5.02868293,14.2429091 C5.0942439,14.2568182 5.15980488,14.2633636 5.22692683,14.2633636 C5.27453659,14.2633636 5.32136585,14.2584545 5.36819512,14.2519091 C5.8684878,14.2347273 6.15180488,14.0800909 6.38126829,13.9565455 C6.57639024,13.8493636 6.70517073,13.7806364 7.01346341,13.7806364 C7.32331707,13.7806364 7.45131707,13.8493636 7.64643902,13.9565455 C7.89229268,14.0890909 8.19668293,14.2535455 8.76097561,14.2535455 C9.3244878,14.2535455 9.62965854,14.0890909 9.87395122,13.9565455 C10.0690732,13.8493636 10.1970732,13.7806364 10.5077073,13.7806364 C10.816,13.7806364 10.9447805,13.8493636 11.1399024,13.9565455 C11.3841951,14.0890909 11.6901463,14.2535455 12.2536585,14.2535455 C12.8179512,14.2535455 13.1223415,14.0890909 13.3681951,13.9565455 C13.5617561,13.8493636 13.6913171,13.7806364 14.0003902,13.7806364 C14.3094634,13.7806364 14.4382439,13.8493636 14.6333659,13.9565455 C14.878439,14.0890909 15.1828293,14.2535455 15.747122,14.2535455 C16.3114146,14.2535455 16.6158049,14.0890909 16.862439,13.9565455 C17.0552195,13.8493636 17.1847805,13.7806364 17.4938537,13.7806364 C17.8029268,13.7806364 17.9324878,13.8493636 18.1276098,13.9565455 C18.3719024,14.0890909 18.6770732,14.2535455 19.2398049,14.2535455 C19.804878,14.2535455 20.1092683,14.0890909 20.355122,13.9565455 C20.5486829,13.8493636 20.6790244,13.7806364 20.9873171,13.7806364 C21.2963902,13.7806364 21.4251707,13.8493636 21.6195122,13.9565455 C21.8653659,14.0890909 22.1705366,14.2535455 22.7348293,14.2535455 C23.299122,14.2535455 23.6035122,14.0890909 23.8493659,13.9565455 C24.0437073,13.8493636 24.1724878,13.7806364 24.481561,13.7806364 C24.7906341,13.7806364 24.9194146,13.8493636 25.1145366,13.9565455 C25.3588293,14.0890909 25.664,14.2535455 26.2282927,14.2535455 C26.7925854,14.2535455 27.0977561,14.0890909 27.3420488,13.9565455 C27.5371707,13.8493636 27.6667317,13.7806364 27.9758049,13.7806364 C28.284878,13.7806364 28.4136585,13.8493636 28.6087805,13.9565455 C28.8546341,14.0890909 29.1590244,14.2535455 29.7233171,14.2535455 C30.2883902,14.2535455 30.5912195,14.0890909 30.8386341,13.9565455 C31.0329756,13.8493636 31.1617561,13.7806364 31.4708293,13.7806364 C31.7588293,13.7806364 31.9937561,13.5343636 31.9937561,13.2308182 C31.9937561,12.9289091 31.7588293,12.6834545 31.4708293,12.6834545 L31.4708293,12.6834545 Z M24.481561,12.6834545 C23.9172683,12.6834545 23.6120976,12.8479091 23.3678049,12.9804545 C23.1726829,13.0876364 23.043122,13.1563636 22.7348293,13.1563636 C22.4241951,13.1563636 22.2961951,13.0876364 22.1018537,12.9804545 C21.8567805,12.8479091 21.5516098,12.6834545 20.9873171,12.6834545 C20.4230244,12.6834545 20.1186341,12.8479091 19.8727805,12.9804545 C19.6792195,13.0876364 19.5496585,13.1563636 19.2398049,13.1563636 C18.9315122,13.1563636 18.8027317,13.0876364 18.6083902,12.9804545 C18.3633171,12.8479091 18.0581463,12.6834545 17.4938537,12.6834545 C16.929561,12.6834545 16.6243902,12.8479091 16.3793171,12.9804545 C16.1849756,13.0876364 16.0554146,13.1563636 15.747122,13.1563636 C15.4372683,13.1563636 15.3092683,13.0876364 15.1141463,12.9804545 C14.8690732,12.8479091 14.5646829,12.6834545 14.0003902,12.6834545 C13.4360976,12.6834545 13.1317073,12.8479091 12.8858537,12.9804545 C12.6915122,13.0876364 12.5635122,13.1563636 12.2536585,13.1563636 C11.9453659,13.1563636 11.8165854,13.0876364 11.6214634,12.9804545 C11.3756098,12.8479091 11.0712195,12.6834545 10.5077073,12.6834545 C9.94341463,12.6834545 9.6382439,12.8479091 9.39317073,12.9804545 C9.19804878,13.0876364 9.06926829,13.1563636 8.76097561,13.1563636 C8.45112195,13.1563636 8.32312195,13.0876364 8.128,12.9804545 C7.88370732,12.8479091 7.57853659,12.6834545 7.01346341,12.6834545 C6.9822439,12.6834545 6.95180488,12.6834545 6.92214634,12.6842727 L7.456,11.9749091 L9.76780488,10.7320909 L12.0390244,10.1135455 L14.684878,10.1135455 L16.4963902,10.7410909 C16.8226341,10.8548182 17.1800976,10.7926364 17.4540488,10.5766364 C17.665561,10.4105455 17.9832195,10.1904545 18.144,10.107 C18.4897561,10.0988182 19.5449756,10.1020909 20.577561,10.1102727 L21.7350244,11.0438182 C21.8044878,11.0994545 21.8801951,11.1477273 21.9605854,11.1829091 L24.4331707,12.2931818 L24.7289756,12.6940909 C24.6517073,12.6875455 24.5705366,12.6834545 24.481561,12.6834545 L24.481561,12.6834545 Z" id="Fill-1" sketch:type="MSShapeGroup"></path>
            <path d="M25.1605854,15.3998182 L25.152,15.3998182 L25.1317073,15.3998182 L25.1114146,15.3998182 C24.547122,15.3998182 24.2419512,15.5642727 23.996878,15.6968182 C23.8072195,15.8007273 23.6792195,15.8694545 23.3849756,15.8727273 C23.0907317,15.8694545 22.9619512,15.8007273 22.7722927,15.6968182 C22.526439,15.5642727 22.2220488,15.3998182 21.6569756,15.3998182 L21.6374634,15.3998182 L21.6163902,15.3998182 C21.0536585,15.3998182 20.7484878,15.5642727 20.5026341,15.6968182 C20.3129756,15.8007273 20.1841951,15.8694545 19.8891707,15.8727273 C19.5964878,15.8694545 19.4669268,15.8007273 19.2772683,15.6968182 C19.0329756,15.5642727 18.7270244,15.3998182 18.1627317,15.3998182 L18.142439,15.3998182 L18.1244878,15.3998182 C17.5586341,15.3998182 17.2542439,15.5642727 17.0091707,15.6968182 C16.8179512,15.8007273 16.6915122,15.8694545 16.3964878,15.8727273 C16.1022439,15.8694545 15.9734634,15.8007273 15.7830244,15.6968182 C15.5379512,15.5642727 15.2343415,15.3998182 14.6700488,15.3998182 L14.6489756,15.3998182 L14.6294634,15.3998182 C14.0651707,15.3998182 13.7607805,15.5642727 13.5141463,15.6968182 C13.3252683,15.8007273 13.1972683,15.8694545 12.9030244,15.8727273 C12.6087805,15.8694545 12.48,15.8007273 12.289561,15.6968182 C12.0452683,15.5642727 11.7393171,15.3998182 11.1750244,15.3998182 L11.1562927,15.3998182 L11.1367805,15.3998182 C10.5724878,15.3998182 10.2673171,15.5642727 10.0222439,15.6968182 C9.83102439,15.8007273 9.70380488,15.8694545 9.40956098,15.8727273 C9.11531707,15.8694545 8.98653659,15.8007273 8.79687805,15.6968182 C8.5502439,15.5642727 8.24663415,15.3998182 7.68234146,15.3998182 L7.66282927,15.3998182 L7.64253659,15.3998182 C7.0782439,15.3998182 6.77463415,15.5642727 6.528,15.6968182 C6.33912195,15.8007273 6.21034146,15.8694545 5.91609756,15.8727273 C5.62107317,15.8694545 5.49385366,15.8007273 5.30263415,15.6968182 C5.05834146,15.5642727 4.75317073,15.3998182 4.18809756,15.3998182 L4.17014634,15.3998182 L4.15063415,15.3998182 C3.58634146,15.3998182 3.28039024,15.5642727 3.03687805,15.6968182 C2.84565854,15.8007273 2.71687805,15.8694545 2.42263415,15.8727273 C2.12839024,15.8694545 1.99960976,15.8007273 1.80995122,15.6968182 C1.56487805,15.5642727 1.25970732,15.3998182 0.69697561,15.3998182 L0.675902439,15.3998182 L0.657170732,15.3998182 L0.647804878,15.3998182 C0.362926829,15.4047273 0.133463415,15.6477273 0.133463415,15.948 C0.133463415,16.2499091 0.366829268,16.4961818 0.657170732,16.4961818 C0.664195122,16.4961818 0.668878049,16.4978182 0.675902439,16.4978182 C0.970146341,16.4994545 1.09892683,16.5681818 1.28936585,16.6720909 C1.53443902,16.8046364 1.83882927,16.9707273 2.40312195,16.9707273 L2.42263415,16.9707273 L2.44292683,16.9707273 C3.00643902,16.9707273 3.31082927,16.8046364 3.55668293,16.6720909 C3.74712195,16.5681818 3.87512195,16.4994545 4.17014634,16.4978182 C4.46439024,16.4994545 4.59239024,16.5681818 4.78360976,16.6720909 C5.02712195,16.8046364 5.33229268,16.9707273 5.89658537,16.9707273 L5.91609756,16.9707273 L5.93482927,16.9707273 C6.49912195,16.9707273 6.80429268,16.8046364 7.04936585,16.6720909 C7.23980488,16.5681818 7.36780488,16.4994545 7.66282927,16.4978182 C7.95629268,16.4994545 8.08507317,16.5681818 8.27629268,16.6720909 C8.52058537,16.8046364 8.82497561,16.9707273 9.38926829,16.9707273 L9.40956098,16.9707273 L9.42907317,16.9707273 C9.99258537,16.9707273 10.2977561,16.8046364 10.5420488,16.6720909 C10.7324878,16.5681818 10.8620488,16.4994545 11.1562927,16.4978182 C11.4513171,16.4994545 11.5785366,16.5681818 11.7697561,16.6720909 C12.0140488,16.8046364 12.3192195,16.9707273 12.8835122,16.9707273 L12.9030244,16.9707273 L12.9225366,16.9707273 C13.4860488,16.9707273 13.7912195,16.8046364 14.0362927,16.6720909 C14.2275122,16.5681818 14.3555122,16.4994545 14.6489756,16.4978182 C14.9447805,16.4994545 15.072,16.5681818 15.262439,16.6720909 C15.5082927,16.8046364 15.8126829,16.9707273 16.3761951,16.9707273 L16.3964878,16.9707273 L16.416,16.9707273 C16.9802927,16.9707273 17.2854634,16.8046364 17.5297561,16.6720909 C17.7201951,16.5681818 17.8489756,16.4994545 18.142439,16.4978182 C18.4374634,16.4994545 18.5654634,16.5681818 18.7559024,16.6720909 C19.0009756,16.8046364 19.3061463,16.9707273 19.8696585,16.9707273 L19.8899512,16.9707273 L19.9102439,16.9707273 C20.4745366,16.9707273 20.7789268,16.8046364 21.024,16.6720909 C21.2152195,16.5681818 21.342439,16.4994545 21.6374634,16.4978182 C21.9324878,16.4994545 22.0597073,16.5681818 22.2501463,16.6720909 C22.4952195,16.8046364 22.7996098,16.9707273 23.3654634,16.9707273 L23.3849756,16.9707273 L23.4044878,16.9707273 C23.969561,16.9707273 24.2739512,16.8046364 24.5190244,16.6720909 C24.7086829,16.5681818 24.8382439,16.4994545 25.1317073,16.4978182 C25.1387317,16.4978182 25.1449756,16.4961818 25.152,16.4961818 C25.4407805,16.4961818 25.6749268,16.2499091 25.6749268,15.948 C25.6749268,15.6477273 25.4462439,15.4047273 25.1605854,15.3998182" id="Fill-2" sketch:type="MSShapeGroup"></path>
        </g>
        <g id="Islands-5" sketch:type="MSLayerGroup" transform="translate(0.000000, 87.000000)" fill="#FFFFFF">
            <path d="M31.4708293,12.6834545 C30.9065366,12.6834545 30.6013659,12.8479091 30.3562927,12.9804545 C30.1627317,13.0876364 30.0331707,13.1563636 29.7233171,13.1563636 C29.4142439,13.1563636 29.2854634,13.0876364 29.091122,12.9804545 C28.8460488,12.8479091 28.5400976,12.6834545 27.9758049,12.6834545 C27.6839024,12.6834545 27.4614634,12.7276364 27.2803902,12.7881818 C27.2538537,12.6130909 27.1867317,12.4412727 27.0743415,12.2899091 L25.9239024,10.7255455 C25.8138537,10.5766364 25.6718049,10.4604545 25.507122,10.3868182 L23.2811707,9.38781818 C23.2913171,8.95663636 23.3467317,8.41827273 23.5004878,7.80627273 C23.779122,6.69845455 24.2310244,5.95881818 24.4823415,5.607 C25.3869268,5.72972727 27.4497561,6.06845455 28.6727805,6.72709091 C28.7484878,6.76881818 28.8296585,6.78763636 28.9108293,6.78763636 C29.0638049,6.78763636 29.212878,6.71727273 29.315122,6.588 C29.4727805,6.38836364 29.475122,6.10118182 29.3205854,5.89827273 C29.2714146,5.832 28.1553171,4.38790909 26.1900488,4.17354545 C26.944,3.69245455 27.8165854,3.20809091 28.5627317,2.988 C28.798439,2.91763636 28.9576585,2.68281818 28.9412683,2.42509091 C28.926439,2.16818182 28.7422439,1.95545455 28.4979512,1.917 C28.478439,1.91372727 28.2958049,1.88509091 28.0078049,1.88509091 C27.3381463,1.88509091 25.9301463,2.04218182 24.7274146,3.204 C24.4643902,2.05936364 23.7752195,0.761727273 22.270439,-0.121909091 C22.0565854,-0.247909091 21.7873171,-0.200454545 21.6249756,-0.00981818182 C21.4610732,0.18 21.4454634,0.464727273 21.5875122,0.674181818 C21.6023415,0.696272727 22.7496585,2.39481818 23.4154146,4.00581818 C23.2413659,3.98045455 23.0501463,3.96245455 22.848,3.96245455 C21.8442927,3.96245455 20.9045854,4.37972727 20.1303415,5.16927273 C19.9547317,5.34845455 19.9203902,5.63236364 20.0491707,5.85 C20.1459512,6.01609091 20.3176585,6.11181818 20.4963902,6.11181818 C20.5525854,6.11181818 20.609561,6.10281818 20.6649756,6.08154545 C20.6821463,6.07663636 22.0901463,5.57181818 23.3436098,5.41063636 C23.0548293,5.89909091 22.7192195,6.606 22.4881951,7.52809091 C22.3828293,7.95272727 22.3164878,8.35118182 22.2782439,8.712 L21.5750244,8.14581818 C21.3947317,7.99936364 21.1738537,7.91918182 20.9451707,7.91754545 C20.702439,7.91590909 20.2435122,7.91263636 19.7533659,7.90936364 C19.7650732,7.443 19.7276098,6.82281818 19.5473171,6.10281818 C19.3490732,5.31490909 19.0571707,4.71681818 18.812878,4.31263636 C20.1162927,3.825 21.9114146,3.63681818 21.9332683,3.63354545 C22.176,3.60981818 22.3703415,3.41018182 22.4007805,3.15572727 C22.430439,2.89963636 22.2883902,2.65909091 22.0581463,2.57072727 C21.5609756,2.38418182 21.0630244,2.28927273 20.5783415,2.28927273 C20.030439,2.28927273 19.550439,2.40954545 19.1453659,2.57890909 C19.6542439,1.56927273 20.2474146,0.688090909 20.2567805,0.674181818 C20.3996098,0.464727273 20.3832195,0.18 20.2200976,-0.00981818182 C20.0561951,-0.202090909 19.7884878,-0.247909091 19.5754146,-0.121909091 C18.4070244,0.563727273 17.8357073,1.55127273 17.5906341,2.45454545 C16.6259512,1.59954545 15.5332683,1.48090909 15.004878,1.48090909 C14.7652683,1.48090909 14.6107317,1.50463636 14.5943415,1.50627273 C14.3508293,1.54636364 14.1658537,1.75745455 14.1502439,2.016 C14.1354146,2.27372727 14.2930732,2.50690909 14.5303415,2.57727273 C15.2226341,2.78181818 16.0569756,3.27681818 16.7157073,3.717 C14.913561,4.26436364 14.2556098,5.92854545 14.2243902,6.01118182 C14.1322927,6.25090909 14.2134634,6.52581818 14.4179512,6.66981818 C14.5069268,6.73363636 14.6083902,6.76390909 14.7106341,6.76390909 C14.8417561,6.76390909 14.9713171,6.71154545 15.072,6.61090909 C15.8056585,5.87372727 17.1621463,5.17090909 17.8825366,4.82727273 C18.083122,5.14227273 18.3547317,5.66263636 18.5342439,6.38181818 C18.691122,7.002 18.716878,7.53136364 18.7051707,7.90854545 C18.3227317,7.90936364 18.012878,7.91263636 17.9020488,7.92081818 C17.7724878,7.93063636 17.4165854,7.95763636 16.6524878,8.48372727 L15.1843902,7.974 C15.0774634,7.93718182 14.9674146,7.91754545 14.8550244,7.91754545 L11.9047805,7.91754545 C11.8165854,7.91754545 11.7276098,7.93063636 11.6409756,7.95272727 L9.12858537,8.63836364 C9.05521951,8.658 8.98263415,8.68663636 8.91473171,8.72509091 L6.2977561,10.1307273 C6.16429268,10.2027273 6.04643902,10.305 5.95356098,10.4285455 L4.40507317,12.4862727 C4.33326829,12.5836364 4.27941463,12.6875455 4.24195122,12.798 C4.05697561,12.7325455 3.82673171,12.6834545 3.52,12.6834545 C3.232,12.6834545 2.99629268,12.9289091 2.99629268,13.2308182 C2.99629268,13.5343636 3.232,13.7806364 3.52,13.7806364 C3.82907317,13.7806364 3.95785366,13.8493636 4.15297561,13.9565455 C4.36136585,14.0686364 4.61346341,14.2044545 5.02868293,14.2429091 C5.0942439,14.2568182 5.15980488,14.2633636 5.22692683,14.2633636 C5.27453659,14.2633636 5.32136585,14.2584545 5.36819512,14.2519091 C5.8684878,14.2347273 6.15180488,14.0800909 6.38126829,13.9565455 C6.57639024,13.8493636 6.70517073,13.7806364 7.01346341,13.7806364 C7.32331707,13.7806364 7.45131707,13.8493636 7.64643902,13.9565455 C7.89229268,14.0890909 8.19668293,14.2535455 8.76097561,14.2535455 C9.3244878,14.2535455 9.62965854,14.0890909 9.87395122,13.9565455 C10.0690732,13.8493636 10.1970732,13.7806364 10.5077073,13.7806364 C10.816,13.7806364 10.9447805,13.8493636 11.1399024,13.9565455 C11.3841951,14.0890909 11.6901463,14.2535455 12.2536585,14.2535455 C12.8179512,14.2535455 13.1223415,14.0890909 13.3681951,13.9565455 C13.5617561,13.8493636 13.6913171,13.7806364 14.0003902,13.7806364 C14.3094634,13.7806364 14.4382439,13.8493636 14.6333659,13.9565455 C14.878439,14.0890909 15.1828293,14.2535455 15.747122,14.2535455 C16.3114146,14.2535455 16.6158049,14.0890909 16.862439,13.9565455 C17.0552195,13.8493636 17.1847805,13.7806364 17.4938537,13.7806364 C17.8029268,13.7806364 17.9324878,13.8493636 18.1276098,13.9565455 C18.3719024,14.0890909 18.6770732,14.2535455 19.2398049,14.2535455 C19.804878,14.2535455 20.1092683,14.0890909 20.355122,13.9565455 C20.5486829,13.8493636 20.6790244,13.7806364 20.9873171,13.7806364 C21.2963902,13.7806364 21.4251707,13.8493636 21.6195122,13.9565455 C21.8653659,14.0890909 22.1705366,14.2535455 22.7348293,14.2535455 C23.299122,14.2535455 23.6035122,14.0890909 23.8493659,13.9565455 C24.0437073,13.8493636 24.1724878,13.7806364 24.481561,13.7806364 C24.7906341,13.7806364 24.9194146,13.8493636 25.1145366,13.9565455 C25.3588293,14.0890909 25.664,14.2535455 26.2282927,14.2535455 C26.7925854,14.2535455 27.0977561,14.0890909 27.3420488,13.9565455 C27.5371707,13.8493636 27.6667317,13.7806364 27.9758049,13.7806364 C28.284878,13.7806364 28.4136585,13.8493636 28.6087805,13.9565455 C28.8546341,14.0890909 29.1590244,14.2535455 29.7233171,14.2535455 C30.2883902,14.2535455 30.5912195,14.0890909 30.8386341,13.9565455 C31.0329756,13.8493636 31.1617561,13.7806364 31.4708293,13.7806364 C31.7588293,13.7806364 31.9937561,13.5343636 31.9937561,13.2308182 C31.9937561,12.9289091 31.7588293,12.6834545 31.4708293,12.6834545 L31.4708293,12.6834545 Z M24.481561,12.6834545 C23.9172683,12.6834545 23.6120976,12.8479091 23.3678049,12.9804545 C23.1726829,13.0876364 23.043122,13.1563636 22.7348293,13.1563636 C22.4241951,13.1563636 22.2961951,13.0876364 22.1018537,12.9804545 C21.8567805,12.8479091 21.5516098,12.6834545 20.9873171,12.6834545 C20.4230244,12.6834545 20.1186341,12.8479091 19.8727805,12.9804545 C19.6792195,13.0876364 19.5496585,13.1563636 19.2398049,13.1563636 C18.9315122,13.1563636 18.8027317,13.0876364 18.6083902,12.9804545 C18.3633171,12.8479091 18.0581463,12.6834545 17.4938537,12.6834545 C16.929561,12.6834545 16.6243902,12.8479091 16.3793171,12.9804545 C16.1849756,13.0876364 16.0554146,13.1563636 15.747122,13.1563636 C15.4372683,13.1563636 15.3092683,13.0876364 15.1141463,12.9804545 C14.8690732,12.8479091 14.5646829,12.6834545 14.0003902,12.6834545 C13.4360976,12.6834545 13.1317073,12.8479091 12.8858537,12.9804545 C12.6915122,13.0876364 12.5635122,13.1563636 12.2536585,13.1563636 C11.9453659,13.1563636 11.8165854,13.0876364 11.6214634,12.9804545 C11.3756098,12.8479091 11.0712195,12.6834545 10.5077073,12.6834545 C9.94341463,12.6834545 9.6382439,12.8479091 9.39317073,12.9804545 C9.19804878,13.0876364 9.06926829,13.1563636 8.76097561,13.1563636 C8.45112195,13.1563636 8.32312195,13.0876364 8.128,12.9804545 C7.88370732,12.8479091 7.57853659,12.6834545 7.01346341,12.6834545 C6.9822439,12.6834545 6.95180488,12.6834545 6.92214634,12.6842727 L7.456,11.9749091 L9.76780488,10.7320909 L12.0390244,10.1135455 L14.684878,10.1135455 L16.4963902,10.7410909 C16.8226341,10.8548182 17.1800976,10.7926364 17.4540488,10.5766364 C17.665561,10.4105455 17.9832195,10.1904545 18.144,10.107 C18.4897561,10.0988182 19.5449756,10.1020909 20.577561,10.1102727 L21.7350244,11.0438182 C21.8044878,11.0994545 21.8801951,11.1477273 21.9605854,11.1829091 L24.4331707,12.2931818 L24.7289756,12.6940909 C24.6517073,12.6875455 24.5705366,12.6834545 24.481561,12.6834545 L24.481561,12.6834545 Z" id="Fill-1" sketch:type="MSShapeGroup"></path>
            <path d="M25.1605854,15.3998182 L25.152,15.3998182 L25.1317073,15.3998182 L25.1114146,15.3998182 C24.547122,15.3998182 24.2419512,15.5642727 23.996878,15.6968182 C23.8072195,15.8007273 23.6792195,15.8694545 23.3849756,15.8727273 C23.0907317,15.8694545 22.9619512,15.8007273 22.7722927,15.6968182 C22.526439,15.5642727 22.2220488,15.3998182 21.6569756,15.3998182 L21.6374634,15.3998182 L21.6163902,15.3998182 C21.0536585,15.3998182 20.7484878,15.5642727 20.5026341,15.6968182 C20.3129756,15.8007273 20.1841951,15.8694545 19.8891707,15.8727273 C19.5964878,15.8694545 19.4669268,15.8007273 19.2772683,15.6968182 C19.0329756,15.5642727 18.7270244,15.3998182 18.1627317,15.3998182 L18.142439,15.3998182 L18.1244878,15.3998182 C17.5586341,15.3998182 17.2542439,15.5642727 17.0091707,15.6968182 C16.8179512,15.8007273 16.6915122,15.8694545 16.3964878,15.8727273 C16.1022439,15.8694545 15.9734634,15.8007273 15.7830244,15.6968182 C15.5379512,15.5642727 15.2343415,15.3998182 14.6700488,15.3998182 L14.6489756,15.3998182 L14.6294634,15.3998182 C14.0651707,15.3998182 13.7607805,15.5642727 13.5141463,15.6968182 C13.3252683,15.8007273 13.1972683,15.8694545 12.9030244,15.8727273 C12.6087805,15.8694545 12.48,15.8007273 12.289561,15.6968182 C12.0452683,15.5642727 11.7393171,15.3998182 11.1750244,15.3998182 L11.1562927,15.3998182 L11.1367805,15.3998182 C10.5724878,15.3998182 10.2673171,15.5642727 10.0222439,15.6968182 C9.83102439,15.8007273 9.70380488,15.8694545 9.40956098,15.8727273 C9.11531707,15.8694545 8.98653659,15.8007273 8.79687805,15.6968182 C8.5502439,15.5642727 8.24663415,15.3998182 7.68234146,15.3998182 L7.66282927,15.3998182 L7.64253659,15.3998182 C7.0782439,15.3998182 6.77463415,15.5642727 6.528,15.6968182 C6.33912195,15.8007273 6.21034146,15.8694545 5.91609756,15.8727273 C5.62107317,15.8694545 5.49385366,15.8007273 5.30263415,15.6968182 C5.05834146,15.5642727 4.75317073,15.3998182 4.18809756,15.3998182 L4.17014634,15.3998182 L4.15063415,15.3998182 C3.58634146,15.3998182 3.28039024,15.5642727 3.03687805,15.6968182 C2.84565854,15.8007273 2.71687805,15.8694545 2.42263415,15.8727273 C2.12839024,15.8694545 1.99960976,15.8007273 1.80995122,15.6968182 C1.56487805,15.5642727 1.25970732,15.3998182 0.69697561,15.3998182 L0.675902439,15.3998182 L0.657170732,15.3998182 L0.647804878,15.3998182 C0.362926829,15.4047273 0.133463415,15.6477273 0.133463415,15.948 C0.133463415,16.2499091 0.366829268,16.4961818 0.657170732,16.4961818 C0.664195122,16.4961818 0.668878049,16.4978182 0.675902439,16.4978182 C0.970146341,16.4994545 1.09892683,16.5681818 1.28936585,16.6720909 C1.53443902,16.8046364 1.83882927,16.9707273 2.40312195,16.9707273 L2.42263415,16.9707273 L2.44292683,16.9707273 C3.00643902,16.9707273 3.31082927,16.8046364 3.55668293,16.6720909 C3.74712195,16.5681818 3.87512195,16.4994545 4.17014634,16.4978182 C4.46439024,16.4994545 4.59239024,16.5681818 4.78360976,16.6720909 C5.02712195,16.8046364 5.33229268,16.9707273 5.89658537,16.9707273 L5.91609756,16.9707273 L5.93482927,16.9707273 C6.49912195,16.9707273 6.80429268,16.8046364 7.04936585,16.6720909 C7.23980488,16.5681818 7.36780488,16.4994545 7.66282927,16.4978182 C7.95629268,16.4994545 8.08507317,16.5681818 8.27629268,16.6720909 C8.52058537,16.8046364 8.82497561,16.9707273 9.38926829,16.9707273 L9.40956098,16.9707273 L9.42907317,16.9707273 C9.99258537,16.9707273 10.2977561,16.8046364 10.5420488,16.6720909 C10.7324878,16.5681818 10.8620488,16.4994545 11.1562927,16.4978182 C11.4513171,16.4994545 11.5785366,16.5681818 11.7697561,16.6720909 C12.0140488,16.8046364 12.3192195,16.9707273 12.8835122,16.9707273 L12.9030244,16.9707273 L12.9225366,16.9707273 C13.4860488,16.9707273 13.7912195,16.8046364 14.0362927,16.6720909 C14.2275122,16.5681818 14.3555122,16.4994545 14.6489756,16.4978182 C14.9447805,16.4994545 15.072,16.5681818 15.262439,16.6720909 C15.5082927,16.8046364 15.8126829,16.9707273 16.3761951,16.9707273 L16.3964878,16.9707273 L16.416,16.9707273 C16.9802927,16.9707273 17.2854634,16.8046364 17.5297561,16.6720909 C17.7201951,16.5681818 17.8489756,16.4994545 18.142439,16.4978182 C18.4374634,16.4994545 18.5654634,16.5681818 18.7559024,16.6720909 C19.0009756,16.8046364 19.3061463,16.9707273 19.8696585,16.9707273 L19.8899512,16.9707273 L19.9102439,16.9707273 C20.4745366,16.9707273 20.7789268,16.8046364 21.024,16.6720909 C21.2152195,16.5681818 21.342439,16.4994545 21.6374634,16.4978182 C21.9324878,16.4994545 22.0597073,16.5681818 22.2501463,16.6720909 C22.4952195,16.8046364 22.7996098,16.9707273 23.3654634,16.9707273 L23.3849756,16.9707273 L23.4044878,16.9707273 C23.969561,16.9707273 24.2739512,16.8046364 24.5190244,16.6720909 C24.7086829,16.5681818 24.8382439,16.4994545 25.1317073,16.4978182 C25.1387317,16.4978182 25.1449756,16.4961818 25.152,16.4961818 C25.4407805,16.4961818 25.6749268,16.2499091 25.6749268,15.948 C25.6749268,15.6477273 25.4462439,15.4047273 25.1605854,15.3998182" id="Fill-2" sketch:type="MSShapeGroup"></path>
        </g>
    </g>
</svg>