<svg width="32" height="232" viewBox="0 0 32 232" xmlns="http://www.w3.org/2000/svg" xmlns:sketch="http://www.bohemiancoding.com/sketch/ns"><title>luxury-travel</title><g sketch:type="MSPage" fill="none"><g sketch:type="MSLayerGroup"><g fill="#fff" sketch:type="MSShapeGroup"><path d="M30.708 101.85c-.555 0-.854.156-1.095.28-.187.097-.301.154-.586.154-.286 0-.399-.057-.586-.154-.241-.124-.54-.28-1.095-.28-.555 0-.855.156-1.095.28-.187.097-.3.154-.586.154-.285 0-.398-.057-.585-.154-.174-.092-.379-.195-.688-.247.51-2.186 1.184-4.328 1.678-5.787l.781-2.184c.1-.277.083-.58-.043-.849-.125-.265-.353-.47-.63-.567l-.149-.054v-1.96c0-.238-.153-.451-.378-.525l-1.079-.359.017-.131v-1.737c0-.241-.156-.455-.385-.528l-5.649-1.814-.458-2.058 1.825-.506c.24-.065.407-.285.407-.534v-1.524c0-.181-.089-.35-.238-.453-.148-.104-.338-.128-.508-.067l-2.348.692-2.281-.689c-.171-.064-.362-.04-.511.062-.15.103-.239.274-.239.455v1.524c0 .248.164.466.402.534l1.827.52-.455 2.044-5.651 1.814c-.229.073-.384.287-.384.528v1.737l.017.131-1.078.359c-.227.074-.38.287-.38.525v1.96l-.148.054c-.278.097-.504.302-.631.567-.126.269-.141.572-.043.849l.781 2.184c.494 1.459 1.169 3.601 1.679 5.787-.31.052-.517.155-.691.247-.187.097-.299.154-.585.154-.285 0-.397-.057-.585-.154-.241-.124-.54-.28-1.095-.28-.554 0-.854.156-1.095.28-.187.097-.3.154-.585.154s-.398-.057-.585-.154c-.241-.124-.539-.28-1.096-.28-.305 0-.553.248-.553.553 0 .307.248.555.553.555.286 0 .399.058.586.155.241.125.54.282 1.095.282.556 0 .854-.157 1.095-.282.188-.097.3-.155.585-.155s.398.058.586.155c.24.125.539.282 1.094.282.556 0 .854-.157 1.096-.282.186-.097.299-.155.584-.155h.024c.204.196.48.314.772.314l.12-.007c.192.071.431.13.764.13.555 0 .854-.157 1.094-.282.188-.097.301-.155.586-.155s.398.058.585.155c.241.125.54.282 1.095.282.555 0 .855-.157 1.096-.282.186-.097.299-.155.585-.155.285 0 .397.058.584.155.241.125.54.282 1.096.282.554 0 .854-.157 1.095-.282.187-.097.3-.155.585-.155s.398.058.585.155c.241.125.54.282 1.095.282.337 0 .578-.059.77-.131.334.037.656-.082.887-.306h.023c.285 0 .398.058.586.155.24.125.54.282 1.094.282.555 0 .855-.157 1.095-.282.188-.097.301-.155.586-.155s.398.058.585.155c.241.125.541.282 1.096.282s.855-.157 1.094-.282c.188-.097.302-.155.587-.155.305 0 .554-.248.554-.555 0-.305-.249-.553-.554-.553zm-19.658-13.716l4.648-1.493 1.223-.391.344-.111.345.111 1.223.392 4.648 1.492v1.099l-4.397-1.465-1.226-.41-.386-.128-.207-.028-.205.028-.386.128-1.226.41-4.398 1.465v-1.099zm6.215-3.123l-.069.005.069-.317.071.317-.071-.005zm-7.655 5.872l5.786-1.931 1.869-.622 1.871.622 1.542.515 4.243 1.416v1.167l-7.101-2.518v-.128c0-.087-.022-.169-.059-.243-.091-.182-.277-.31-.496-.31-.217 0-.404.128-.494.31-.037.074-.059.156-.059.243v.127l-7.102 2.519v-1.167zm5.701-9.011v-.304l1.725.479c.124.047.263.047.388.002l1.796-.487v.307l-1.926.532-.054.018h-.001l-1.928-.547zm6.472 20.29l-.064-.032c-.24-.124-.539-.28-1.094-.28s-.855.156-1.095.28l-.064.032c-.153.079-.271.122-.521.122-.251 0-.369-.043-.521-.121l-.065-.033c-.24-.124-.539-.28-1.094-.28-.556 0-.855.156-1.095.28l-.066.033c-.152.078-.269.121-.52.121-.25 0-.368-.043-.52-.121l-.065-.033c-.24-.124-.54-.28-1.095-.28-.555 0-.855.156-1.095.28l-.067.034c-.097.049-.183.086-.299.106l.005-.106-.026-.238c-.542-2.465-1.314-4.922-1.864-6.551l-.007-.016-.41-1.146 4.578-1.623 1.993-.708v5.387c0 .305.247.554.553.554.306 0 .555-.249.555-.554v-5.387l1.993.708 4.577 1.623-.41 1.146-.005.016c-.552 1.628-1.323 4.083-1.865 6.548l-.026.239.005.108c-.119-.02-.206-.057-.306-.108z" id="Fill-1"/><path d="M23.987 107.507c-.555 0-.854.154-1.095.278-.187.098-.3.156-.586.156-.285 0-.398-.058-.585-.156-.241-.124-.541-.278-1.095-.278-.555 0-.855.154-1.095.278-.187.098-.301.156-.585.156-.286 0-.399-.058-.586-.156-.241-.124-.54-.278-1.095-.278-.555 0-.855.154-1.095.278-.187.098-.3.156-.585.156-.284 0-.399-.058-.586-.156-.24-.124-.539-.278-1.095-.278-.306 0-.554.248-.554.554 0 .305.248.553.554.553.285 0 .398.059.586.157.24.126.54.279 1.095.279.555 0 .854-.153 1.095-.279.187-.098.3-.157.585-.157s.398.059.585.157c.241.126.54.279 1.096.279.554 0 .854-.153 1.095-.279.186-.098.3-.157.585-.157s.398.059.586.157c.24.126.54.279 1.094.279.556 0 .855-.153 1.096-.279.187-.098.3-.157.585-.157.307 0 .554-.248.554-.553 0-.306-.247-.554-.554-.554" id="Fill-2"/><path d="M14.489 105.897c.241.124.54.279 1.095.279.555 0 .855-.155 1.096-.279.186-.097.299-.155.585-.155.285 0 .397.058.584.155.241.124.54.279 1.096.279.554 0 .854-.155 1.095-.279.187-.097.3-.155.585-.155.306 0 .554-.25.554-.554 0-.306-.248-.555-.554-.555-.555 0-.855.155-1.095.28-.187.097-.3.155-.585.155-.286 0-.399-.058-.586-.155-.24-.125-.539-.28-1.094-.28-.556 0-.855.155-1.095.28-.187.097-.301.155-.586.155s-.398-.058-.585-.155c-.24-.125-.54-.28-1.095-.28-.555 0-.855.155-1.095.28-.187.097-.3.155-.585.155s-.398-.058-.585-.155c-.241-.125-.54-.28-1.095-.28-.555 0-.854.155-1.095.28-.187.097-.299.155-.585.155-.285 0-.397-.058-.585-.155-.241-.125-.54-.28-1.095-.28-.306 0-.554.249-.554.555 0 .304.248.554.554.554.285 0 .398.058.586.155.24.124.539.279 1.094.279.556 0 .854-.155 1.096-.279.186-.097.299-.155.584-.155s.398.058.586.155c.24.124.54.279 1.094.279.555 0 .854-.155 1.094-.279.188-.097.301-.155.586-.155s.398.058.585.155" id="Fill-3"/><path d="M22.688 84.074c.326-.273.791-.276 1.12-.034l.009.025c.093.194.288.319.503.319h.068c.214 0 .411-.125.502-.319l.01-.025c.33-.242.794-.239 1.12.034.234.197.584.167.781-.067.197-.234.166-.584-.069-.779-.69-.58-1.656-.615-2.378-.155-.721-.46-1.689-.425-2.379.155-.234.195-.265.545-.068.779.196.234.547.266.781.067" id="Fill-4"/><path d="M24.979 81.783c.326-.273.791-.276 1.121-.035l.01.024c.091.196.286.32.502.32h.067c.216 0 .411-.124.502-.32l.01-.024c.329-.241.794-.238 1.121.035.234.197.584.167.781-.068.196-.236.165-.584-.068-.779-.69-.58-1.657-.616-2.379-.155-.722-.461-1.689-.425-2.379.155-.234.195-.266.543-.068.779.197.235.546.265.78.068" id="Fill-5"/></g><g fill="#373D43" sketch:type="MSShapeGroup"><path d="M30.708 20.85c-.555 0-.854.156-1.095.28-.187.097-.301.154-.586.154-.286 0-.399-.057-.586-.154-.241-.124-.54-.28-1.095-.28-.555 0-.855.156-1.095.28-.187.097-.3.154-.586.154-.285 0-.398-.057-.585-.154-.174-.092-.379-.195-.688-.247.51-2.186 1.184-4.328 1.678-5.787l.781-2.184c.1-.277.083-.58-.043-.849-.125-.265-.353-.47-.63-.567l-.149-.054v-1.96c0-.238-.153-.451-.378-.525l-1.079-.359.017-.131v-1.737c0-.241-.156-.455-.385-.528l-5.649-1.814-.458-2.058 1.825-.506c.24-.065.407-.285.407-.534v-1.524c0-.181-.089-.35-.238-.453-.148-.104-.338-.128-.508-.067l-2.348.692-2.281-.689c-.171-.064-.362-.04-.511.062-.15.103-.239.274-.239.455v1.524c0 .248.164.466.402.534l1.827.52-.455 2.044-5.651 1.814c-.229.073-.384.287-.384.528v1.737l.017.131-1.078.359c-.227.074-.38.287-.38.525v1.96l-.148.054c-.278.097-.504.302-.631.567-.126.269-.141.572-.043.849l.781 2.184c.494 1.459 1.169 3.601 1.679 5.787-.31.052-.517.155-.691.247-.187.097-.299.154-.585.154-.285 0-.397-.057-.585-.154-.241-.124-.54-.28-1.095-.28-.554 0-.854.156-1.095.28-.187.097-.3.154-.585.154s-.398-.057-.585-.154c-.241-.124-.539-.28-1.096-.28-.305 0-.553.248-.553.553 0 .307.248.555.553.555.286 0 .399.058.586.155.241.125.54.282 1.095.282.556 0 .854-.157 1.095-.282.188-.097.3-.155.585-.155s.398.058.586.155c.24.125.539.282 1.094.282.556 0 .854-.157 1.096-.282.186-.097.299-.155.584-.155h.024c.204.196.48.314.772.314l.12-.007c.192.071.431.13.764.13.555 0 .854-.157 1.094-.282.188-.097.301-.155.586-.155s.398.058.585.155c.241.125.54.282 1.095.282.555 0 .855-.157 1.096-.282.186-.097.299-.155.585-.155.285 0 .397.058.584.155.241.125.54.282 1.096.282.554 0 .854-.157 1.095-.282.187-.097.3-.155.585-.155s.398.058.585.155c.241.125.54.282 1.095.282.337 0 .578-.059.77-.131.334.037.656-.082.887-.306h.023c.285 0 .398.058.586.155.24.125.54.282 1.094.282.555 0 .855-.157 1.095-.282.188-.097.301-.155.586-.155s.398.058.585.155c.241.125.541.282 1.096.282s.855-.157 1.094-.282c.188-.097.302-.155.587-.155.305 0 .554-.248.554-.555 0-.305-.249-.553-.554-.553zm-19.658-13.716l4.648-1.493 1.223-.391.344-.111.345.111 1.223.392 4.648 1.492v1.099l-4.397-1.465-1.226-.41-.386-.128-.207-.028-.205.028-.386.128-1.226.41-4.398 1.465v-1.099zm6.215-3.123l-.069.005.069-.317.071.317-.071-.005zm-7.655 5.872l5.786-1.931 1.869-.622 1.871.622 1.542.515 4.243 1.416v1.167l-7.101-2.518v-.128c0-.087-.022-.169-.059-.243-.091-.182-.277-.31-.496-.31-.217 0-.404.128-.494.31-.037.074-.059.156-.059.243v.127l-7.102 2.519v-1.167zm5.701-9.011v-.304l1.725.479c.124.047.263.047.388.002l1.796-.487v.307l-1.926.532-.054.018h-.001l-1.928-.547zm6.472 20.29l-.064-.032c-.24-.124-.539-.28-1.094-.28s-.855.156-1.095.28l-.064.032c-.153.079-.271.122-.521.122-.251 0-.369-.043-.521-.121l-.065-.033c-.24-.124-.539-.28-1.094-.28-.556 0-.855.156-1.095.28l-.066.033c-.152.078-.269.121-.52.121-.25 0-.368-.043-.52-.121l-.065-.033c-.24-.124-.54-.28-1.095-.28-.555 0-.855.156-1.095.28l-.067.034c-.097.049-.183.086-.299.106l.005-.106-.026-.238c-.542-2.465-1.314-4.922-1.864-6.551l-.007-.016-.41-1.146 4.578-1.623 1.993-.708v5.387c0 .305.247.554.553.554.306 0 .555-.249.555-.554v-5.387l1.993.708 4.577 1.623-.41 1.146-.005.016c-.552 1.628-1.323 4.083-1.865 6.548l-.026.239.005.108c-.119-.02-.206-.057-.306-.108z" id="Fill-1"/><path d="M23.987 26.507c-.555 0-.854.154-1.095.278-.187.098-.3.156-.586.156-.285 0-.398-.058-.585-.156-.241-.124-.541-.278-1.095-.278-.555 0-.855.154-1.095.278-.187.098-.301.156-.585.156-.286 0-.399-.058-.586-.156-.241-.124-.54-.278-1.095-.278-.555 0-.855.154-1.095.278-.187.098-.3.156-.585.156-.284 0-.399-.058-.586-.156-.24-.124-.539-.278-1.095-.278-.306 0-.554.248-.554.554 0 .305.248.553.554.553.285 0 .398.059.586.157.24.126.54.279 1.095.279.555 0 .854-.153 1.095-.279.187-.098.3-.157.585-.157s.398.059.585.157c.241.126.54.279 1.096.279.554 0 .854-.153 1.095-.279.186-.098.3-.157.585-.157s.398.059.586.157c.24.126.54.279 1.094.279.556 0 .855-.153 1.096-.279.187-.098.3-.157.585-.157.307 0 .554-.248.554-.553 0-.306-.247-.554-.554-.554" id="Fill-2"/><path d="M14.489 24.897c.241.124.54.279 1.095.279.555 0 .855-.155 1.096-.279.186-.097.299-.155.585-.155.285 0 .397.058.584.155.241.124.54.279 1.096.279.554 0 .854-.155 1.095-.279.187-.097.3-.155.585-.155.306 0 .554-.25.554-.554 0-.306-.248-.555-.554-.555-.555 0-.855.155-1.095.28-.187.097-.3.155-.585.155-.286 0-.399-.058-.586-.155-.24-.125-.539-.28-1.094-.28-.556 0-.855.155-1.095.28-.187.097-.301.155-.586.155s-.398-.058-.585-.155c-.24-.125-.54-.28-1.095-.28-.555 0-.855.155-1.095.28-.187.097-.3.155-.585.155s-.398-.058-.585-.155c-.241-.125-.54-.28-1.095-.28-.555 0-.854.155-1.095.28-.187.097-.299.155-.585.155-.285 0-.397-.058-.585-.155-.241-.125-.54-.28-1.095-.28-.306 0-.554.249-.554.555 0 .304.248.554.554.554.285 0 .398.058.586.155.24.124.539.279 1.094.279.556 0 .854-.155 1.096-.279.186-.097.299-.155.584-.155s.398.058.586.155c.24.124.54.279 1.094.279.555 0 .854-.155 1.094-.279.188-.097.301-.155.586-.155s.398.058.585.155" id="Fill-3"/><path d="M22.688 3.074c.326-.273.791-.276 1.12-.034l.009.025c.093.194.288.319.503.319h.068c.214 0 .411-.125.502-.319l.01-.025c.33-.242.794-.239 1.12.034.234.197.584.167.781-.067.197-.234.166-.584-.069-.779-.69-.58-1.656-.615-2.378-.155-.721-.46-1.689-.425-2.379.155-.234.195-.265.545-.068.779.196.234.547.266.781.067" id="Fill-4"/><path d="M24.979.783c.326-.273.791-.276 1.121-.035l.01.024c.091.196.286.32.502.32h.067c.216 0 .411-.124.502-.32l.01-.024c.329-.241.794-.238 1.121.035.234.197.584.167.781-.068.196-.236.165-.584-.068-.779-.69-.58-1.657-.616-2.379-.155-.722-.461-1.689-.425-2.379.155-.234.195-.266.543-.068.779.197.235.546.265.78.068" id="Fill-5"/></g><g fill="#67737B" sketch:type="MSShapeGroup"><path d="M30.708 62.85c-.555 0-.854.156-1.095.28-.187.097-.301.154-.586.154-.286 0-.399-.057-.586-.154-.241-.124-.54-.28-1.095-.28-.555 0-.855.156-1.095.28-.187.097-.3.154-.586.154-.285 0-.398-.057-.585-.154-.174-.092-.379-.195-.688-.247.51-2.186 1.184-4.328 1.678-5.787l.781-2.184c.1-.277.083-.58-.043-.849-.125-.265-.353-.47-.63-.567l-.149-.054v-1.96c0-.238-.153-.451-.378-.525l-1.079-.359.017-.131v-1.737c0-.241-.156-.455-.385-.528l-5.649-1.814-.458-2.058 1.825-.506c.24-.065.407-.285.407-.534v-1.524c0-.181-.089-.35-.238-.453-.148-.104-.338-.128-.508-.067l-2.348.692-2.281-.689c-.171-.064-.362-.04-.511.062-.15.103-.239.274-.239.455v1.524c0 .248.164.466.402.534l1.827.52-.455 2.044-5.651 1.814c-.229.073-.384.287-.384.528v1.737l.017.131-1.078.359c-.227.074-.38.287-.38.525v1.96l-.148.054c-.278.097-.504.302-.631.567-.126.269-.141.572-.043.849l.781 2.184c.494 1.459 1.169 3.601 1.679 5.787-.31.052-.517.155-.691.247-.187.097-.299.154-.585.154-.285 0-.397-.057-.585-.154-.241-.124-.54-.28-1.095-.28-.554 0-.854.156-1.095.28-.187.097-.3.154-.585.154s-.398-.057-.585-.154c-.241-.124-.539-.28-1.096-.28-.305 0-.553.248-.553.553 0 .307.248.555.553.555.286 0 .399.058.586.155.241.125.54.282 1.095.282.556 0 .854-.157 1.095-.282.188-.097.3-.155.585-.155s.398.058.586.155c.24.125.539.282 1.094.282.556 0 .854-.157 1.096-.282.186-.097.299-.155.584-.155h.024c.204.196.48.314.772.314l.12-.007c.192.071.431.13.764.13.555 0 .854-.157 1.094-.282.188-.097.301-.155.586-.155s.398.058.585.155c.241.125.54.282 1.095.282.555 0 .855-.157 1.096-.282.186-.097.299-.155.585-.155.285 0 .397.058.584.155.241.125.54.282 1.096.282.554 0 .854-.157 1.095-.282.187-.097.3-.155.585-.155s.398.058.585.155c.241.125.54.282 1.095.282.337 0 .578-.059.77-.131.334.037.656-.082.887-.306h.023c.285 0 .398.058.586.155.24.125.54.282 1.094.282.555 0 .855-.157 1.095-.282.188-.097.301-.155.586-.155s.398.058.585.155c.241.125.541.282 1.096.282s.855-.157 1.094-.282c.188-.097.302-.155.587-.155.305 0 .554-.248.554-.555 0-.305-.249-.553-.554-.553zm-19.658-13.716l4.648-1.493 1.223-.391.344-.111.345.111 1.223.392 4.648 1.492v1.099l-4.397-1.465-1.226-.41-.386-.128-.207-.028-.205.028-.386.128-1.226.41-4.398 1.465v-1.099zm6.215-3.123l-.069.005.069-.317.071.317-.071-.005zm-7.655 5.872l5.786-1.931 1.869-.622 1.871.622 1.542.515 4.243 1.416v1.167l-7.101-2.518v-.128c0-.087-.022-.169-.059-.243-.091-.182-.277-.31-.496-.31-.217 0-.404.128-.494.31-.037.074-.059.156-.059.243v.127l-7.102 2.519v-1.167zm5.701-9.011v-.304l1.725.479c.124.047.263.047.388.002l1.796-.487v.307l-1.926.532-.054.018h-.001l-1.928-.547zm6.472 20.29l-.064-.032c-.24-.124-.539-.28-1.094-.28s-.855.156-1.095.28l-.064.032c-.153.079-.271.122-.521.122-.251 0-.369-.043-.521-.121l-.065-.033c-.24-.124-.539-.28-1.094-.28-.556 0-.855.156-1.095.28l-.066.033c-.152.078-.269.121-.52.121-.25 0-.368-.043-.52-.121l-.065-.033c-.24-.124-.54-.28-1.095-.28-.555 0-.855.156-1.095.28l-.067.034c-.097.049-.183.086-.299.106l.005-.106-.026-.238c-.542-2.465-1.314-4.922-1.864-6.551l-.007-.016-.41-1.146 4.578-1.623 1.993-.708v5.387c0 .305.247.554.553.554.306 0 .555-.249.555-.554v-5.387l1.993.708 4.577 1.623-.41 1.146-.005.016c-.552 1.628-1.323 4.083-1.865 6.548l-.026.239.005.108c-.119-.02-.206-.057-.306-.108z" id="Fill-1"/><path d="M23.987 68.507c-.555 0-.854.154-1.095.278-.187.098-.3.156-.586.156-.285 0-.398-.058-.585-.156-.241-.124-.541-.278-1.095-.278-.555 0-.855.154-1.095.278-.187.098-.301.156-.585.156-.286 0-.399-.058-.586-.156-.241-.124-.54-.278-1.095-.278-.555 0-.855.154-1.095.278-.187.098-.3.156-.585.156-.284 0-.399-.058-.586-.156-.24-.124-.539-.278-1.095-.278-.306 0-.554.248-.554.554 0 .305.248.553.554.553.285 0 .398.059.586.157.24.126.54.279 1.095.279.555 0 .854-.153 1.095-.279.187-.098.3-.157.585-.157s.398.059.585.157c.241.126.54.279 1.096.279.554 0 .854-.153 1.095-.279.186-.098.3-.157.585-.157s.398.059.586.157c.24.126.54.279 1.094.279.556 0 .855-.153 1.096-.279.187-.098.3-.157.585-.157.307 0 .554-.248.554-.553 0-.306-.247-.554-.554-.554" id="Fill-2"/><path d="M14.489 66.897c.241.124.54.279 1.095.279.555 0 .855-.155 1.096-.279.186-.097.299-.155.585-.155.285 0 .397.058.584.155.241.124.54.279 1.096.279.554 0 .854-.155 1.095-.279.187-.097.3-.155.585-.155.306 0 .554-.25.554-.554 0-.306-.248-.555-.554-.555-.555 0-.855.155-1.095.28-.187.097-.3.155-.585.155-.286 0-.399-.058-.586-.155-.24-.125-.539-.28-1.094-.28-.556 0-.855.155-1.095.28-.187.097-.301.155-.586.155s-.398-.058-.585-.155c-.24-.125-.54-.28-1.095-.28-.555 0-.855.155-1.095.28-.187.097-.3.155-.585.155s-.398-.058-.585-.155c-.241-.125-.54-.28-1.095-.28-.555 0-.854.155-1.095.28-.187.097-.299.155-.585.155-.285 0-.397-.058-.585-.155-.241-.125-.54-.28-1.095-.28-.306 0-.554.249-.554.555 0 .304.248.554.554.554.285 0 .398.058.586.155.24.124.539.279 1.094.279.556 0 .854-.155 1.096-.279.186-.097.299-.155.584-.155s.398.058.586.155c.24.124.54.279 1.094.279.555 0 .854-.155 1.094-.279.188-.097.301-.155.586-.155s.398.058.585.155" id="Fill-3"/><path d="M22.688 45.074c.326-.273.791-.276 1.12-.034l.009.025c.093.194.288.319.503.319h.068c.214 0 .411-.125.502-.319l.01-.025c.33-.242.794-.239 1.12.034.234.197.584.167.781-.067.197-.234.166-.584-.069-.779-.69-.58-1.656-.615-2.378-.155-.721-.46-1.689-.425-2.379.155-.234.195-.265.545-.068.779.196.234.547.266.781.067" id="Fill-4"/><path d="M24.979 42.783c.326-.273.791-.276 1.121-.035l.01.024c.091.196.286.32.502.32h.067c.216 0 .411-.124.502-.32l.01-.024c.329-.241.794-.238 1.121.035.234.197.584.167.781-.068.196-.236.165-.584-.068-.779-.69-.58-1.657-.616-2.379-.155-.722-.461-1.689-.425-2.379.155-.234.195-.266.543-.068.779.197.235.546.265.78.068" id="Fill-5"/></g><g fill="#206FAC" sketch:type="MSShapeGroup"><path d="M30.708 144.85c-.555 0-.854.156-1.095.28-.187.097-.301.154-.586.154-.286 0-.399-.057-.586-.154-.241-.124-.54-.28-1.095-.28-.555 0-.855.156-1.095.28-.187.097-.3.154-.586.154-.285 0-.398-.057-.585-.154-.174-.092-.379-.195-.688-.247.51-2.186 1.184-4.328 1.678-5.787l.781-2.184c.1-.277.083-.58-.043-.849-.125-.265-.353-.47-.63-.567l-.149-.054v-1.96c0-.238-.153-.451-.378-.525l-1.079-.359.017-.131v-1.737c0-.241-.156-.455-.385-.528l-5.649-1.814-.458-2.058 1.825-.506c.24-.065.407-.285.407-.534v-1.524c0-.181-.089-.35-.238-.453-.148-.104-.338-.128-.508-.067l-2.348.692-2.281-.689c-.171-.064-.362-.04-.511.062-.15.103-.239.274-.239.455v1.524c0 .248.164.466.402.534l1.827.52-.455 2.044-5.651 1.814c-.229.073-.384.287-.384.528v1.737l.017.131-1.078.359c-.227.074-.38.287-.38.525v1.96l-.148.054c-.278.097-.504.302-.631.567-.126.269-.141.572-.043.849l.781 2.184c.494 1.459 1.169 3.601 1.679 5.787-.31.052-.517.155-.691.247-.187.097-.299.154-.585.154-.285 0-.397-.057-.585-.154-.241-.124-.54-.28-1.095-.28-.554 0-.854.156-1.095.28-.187.097-.3.154-.585.154s-.398-.057-.585-.154c-.241-.124-.539-.28-1.096-.28-.305 0-.553.248-.553.553 0 .307.248.555.553.555.286 0 .399.058.586.155.241.125.54.282 1.095.282.556 0 .854-.157 1.095-.282.188-.097.3-.155.585-.155s.398.058.586.155c.24.125.539.282 1.094.282.556 0 .854-.157 1.096-.282.186-.097.299-.155.584-.155h.024c.204.196.48.314.772.314l.12-.007c.192.071.431.13.764.13.555 0 .854-.157 1.094-.282.188-.097.301-.155.586-.155s.398.058.585.155c.241.125.54.282 1.095.282.555 0 .855-.157 1.096-.282.186-.097.299-.155.585-.155.285 0 .397.058.584.155.241.125.54.282 1.096.282.554 0 .854-.157 1.095-.282.187-.097.3-.155.585-.155s.398.058.585.155c.241.125.54.282 1.095.282.337 0 .578-.059.77-.131.334.037.656-.082.887-.306h.023c.285 0 .398.058.586.155.24.125.54.282 1.094.282.555 0 .855-.157 1.095-.282.188-.097.301-.155.586-.155s.398.058.585.155c.241.125.541.282 1.096.282s.855-.157 1.094-.282c.188-.097.302-.155.587-.155.305 0 .554-.248.554-.555 0-.305-.249-.553-.554-.553zm-19.658-13.716l4.648-1.493 1.223-.391.344-.111.345.111 1.223.392 4.648 1.492v1.099l-4.397-1.465-1.226-.41-.386-.128-.207-.028-.205.028-.386.128-1.226.41-4.398 1.465v-1.099zm6.215-3.123l-.069.005.069-.317.071.317-.071-.005zm-7.655 5.872l5.786-1.931 1.869-.622 1.871.622 1.542.515 4.243 1.416v1.167l-7.101-2.518v-.128c0-.087-.022-.169-.059-.243-.091-.182-.277-.31-.496-.31-.217 0-.404.128-.494.31-.037.074-.059.156-.059.243v.127l-7.102 2.519v-1.167zm5.701-9.011v-.304l1.725.479c.124.047.263.047.388.002l1.796-.487v.307l-1.926.532-.054.018h-.001l-1.928-.547zm6.472 20.29l-.064-.032c-.24-.124-.539-.28-1.094-.28s-.855.156-1.095.28l-.064.032c-.153.079-.271.122-.521.122-.251 0-.369-.043-.521-.121l-.065-.033c-.24-.124-.539-.28-1.094-.28-.556 0-.855.156-1.095.28l-.066.033c-.152.078-.269.121-.52.121-.25 0-.368-.043-.52-.121l-.065-.033c-.24-.124-.54-.28-1.095-.28-.555 0-.855.156-1.095.28l-.067.034c-.097.049-.183.086-.299.106l.005-.106-.026-.238c-.542-2.465-1.314-4.922-1.864-6.551l-.007-.016-.41-1.146 4.578-1.623 1.993-.708v5.387c0 .305.247.554.553.554.306 0 .555-.249.555-.554v-5.387l1.993.708 4.577 1.623-.41 1.146-.005.016c-.552 1.628-1.323 4.083-1.865 6.548l-.026.239.005.108c-.119-.02-.206-.057-.306-.108z"/><path d="M23.987 150.507c-.555 0-.854.154-1.095.278-.187.098-.3.156-.586.156-.285 0-.398-.058-.585-.156-.241-.124-.541-.278-1.095-.278-.555 0-.855.154-1.095.278-.187.098-.301.156-.585.156-.286 0-.399-.058-.586-.156-.241-.124-.54-.278-1.095-.278-.555 0-.855.154-1.095.278-.187.098-.3.156-.585.156-.284 0-.399-.058-.586-.156-.24-.124-.539-.278-1.095-.278-.306 0-.554.248-.554.554 0 .305.248.553.554.553.285 0 .398.059.586.157.24.126.54.279 1.095.279.555 0 .854-.153 1.095-.279.187-.098.3-.157.585-.157s.398.059.585.157c.241.126.54.279 1.096.279.554 0 .854-.153 1.095-.279.186-.098.3-.157.585-.157s.398.059.586.157c.24.126.54.279 1.094.279.556 0 .855-.153 1.096-.279.187-.098.3-.157.585-.157.307 0 .554-.248.554-.553 0-.306-.247-.554-.554-.554"/><path d="M14.489 148.897c.241.124.54.279 1.095.279.555 0 .855-.155 1.096-.279.186-.097.299-.155.585-.155.285 0 .397.058.584.155.241.124.54.279 1.096.279.554 0 .854-.155 1.095-.279.187-.097.3-.155.585-.155.306 0 .554-.25.554-.554 0-.306-.248-.555-.554-.555-.555 0-.855.155-1.095.28-.187.097-.3.155-.585.155-.286 0-.399-.058-.586-.155-.24-.125-.539-.28-1.094-.28-.556 0-.855.155-1.095.28-.187.097-.301.155-.586.155s-.398-.058-.585-.155c-.24-.125-.54-.28-1.095-.28-.555 0-.855.155-1.095.28-.187.097-.3.155-.585.155s-.398-.058-.585-.155c-.241-.125-.54-.28-1.095-.28-.555 0-.854.155-1.095.28-.187.097-.299.155-.585.155-.285 0-.397-.058-.585-.155-.241-.125-.54-.28-1.095-.28-.306 0-.554.249-.554.555 0 .304.248.554.554.554.285 0 .398.058.586.155.24.124.539.279 1.094.279.556 0 .854-.155 1.096-.279.186-.097.299-.155.584-.155s.398.058.586.155c.24.124.54.279 1.094.279.555 0 .854-.155 1.094-.279.188-.097.301-.155.586-.155s.398.058.585.155"/><path d="M22.688 127.074c.326-.273.791-.276 1.12-.034l.009.025c.093.194.288.319.503.319h.068c.214 0 .411-.125.502-.319l.01-.025c.33-.242.794-.239 1.12.034.234.197.584.167.781-.067.197-.234.166-.584-.069-.779-.69-.58-1.656-.615-2.378-.155-.721-.46-1.689-.425-2.379.155-.234.195-.265.545-.068.779.196.234.547.266.781.067"/><path d="M24.979 124.783c.326-.273.791-.276 1.121-.035l.01.024c.091.196.286.32.502.32h.067c.216 0 .411-.124.502-.32l.01-.024c.329-.241.794-.238 1.121.035.234.197.584.167.781-.068.196-.236.165-.584-.068-.779-.69-.58-1.657-.616-2.379-.155-.722-.461-1.689-.425-2.379.155-.234.195-.266.543-.068.779.197.235.546.265.78.068"/></g></g></g></svg>