<?xml version="1.0" encoding="UTF-8" standalone="no"?>
<svg width="32px" height="232px" viewBox="0 0 32 232" version="1.1" xmlns="http://www.w3.org/2000/svg" xmlns:xlink="http://www.w3.org/1999/xlink" xmlns:sketch="http://www.bohemiancoding.com/sketch/ns">
    <!-- Generator: Sketch 3.0.1 (7597) - http://www.bohemiancoding.com/sketch -->
    <title>luxury-travel</title>
    <description>Created with Sketch.</description>
    <defs></defs>
    <g id="Points-of-interest" stroke="none" stroke-width="1" fill="none" fill-rule="evenodd" sketch:type="MSPage">
        <g id="Luxury-travel-2" sketch:type="MSLayerGroup" transform="translate(2.000000, 2.000000)" fill="#3B444F">
            <path d="M27.708,21.85 C27.153,21.85 26.854,22.006 26.613,22.13 C26.426,22.227 26.312,22.284 26.027,22.284 C25.741,22.284 25.628,22.227 25.441,22.13 C25.2,22.006 24.901,21.85 24.346,21.85 C23.791,21.85 23.491,22.006 23.251,22.13 C23.064,22.227 22.951,22.284 22.665,22.284 C22.38,22.284 22.267,22.227 22.08,22.13 C21.906,22.038 21.701,21.935 21.392,21.883 C21.902,19.697 22.576,17.555 23.07,16.096 L23.851,13.912 C23.951,13.635 23.934,13.332 23.808,13.063 C23.683,12.798 23.455,12.593 23.178,12.496 L23.029,12.442 L23.029,10.482 C23.029,10.244 22.876,10.031 22.651,9.957 L21.572,9.598 C21.583,9.555 21.589,9.513 21.589,9.467 L21.589,7.73 C21.589,7.489 21.433,7.275 21.204,7.202 L15.555,5.388 L15.097,3.33 L16.922,2.824 C17.162,2.759 17.329,2.539 17.329,2.29 L17.329,0.766 C17.329,0.585 17.24,0.416 17.091,0.313 C16.943,0.209 16.753,0.185 16.583,0.246 L14.235,0.938 L11.954,0.249 C11.783,0.185 11.592,0.209 11.443,0.311 C11.293,0.414 11.204,0.585 11.204,0.766 L11.204,2.29 C11.204,2.538 11.368,2.756 11.606,2.824 L13.433,3.344 L12.978,5.388 L7.327,7.202 C7.098,7.275 6.943,7.489 6.943,7.73 L6.943,9.467 C6.943,9.513 6.95,9.555 6.96,9.598 L5.882,9.957 C5.655,10.031 5.502,10.244 5.502,10.482 L5.502,12.442 L5.354,12.496 C5.076,12.593 4.85,12.798 4.723,13.063 C4.597,13.332 4.582,13.635 4.68,13.912 L5.461,16.096 C5.955,17.555 6.63,19.697 7.14,21.883 C6.83,21.935 6.623,22.038 6.449,22.13 C6.262,22.227 6.15,22.284 5.864,22.284 C5.579,22.284 5.467,22.227 5.279,22.13 C5.038,22.006 4.739,21.85 4.184,21.85 C3.63,21.85 3.33,22.006 3.089,22.13 C2.902,22.227 2.789,22.284 2.504,22.284 C2.219,22.284 2.106,22.227 1.919,22.13 C1.678,22.006 1.38,21.85 0.823,21.85 C0.518,21.85 0.27,22.098 0.27,22.403 C0.27,22.71 0.518,22.958 0.823,22.958 C1.109,22.958 1.222,23.016 1.409,23.113 C1.65,23.238 1.949,23.395 2.504,23.395 C3.06,23.395 3.358,23.238 3.599,23.113 C3.787,23.016 3.899,22.958 4.184,22.958 C4.469,22.958 4.582,23.016 4.77,23.113 C5.01,23.238 5.309,23.395 5.864,23.395 C6.42,23.395 6.718,23.238 6.96,23.113 C7.146,23.016 7.259,22.958 7.544,22.958 L7.568,22.958 C7.772,23.154 8.048,23.272 8.34,23.272 C8.379,23.272 8.42,23.27 8.46,23.265 C8.652,23.336 8.891,23.395 9.224,23.395 C9.779,23.395 10.078,23.238 10.318,23.113 C10.506,23.016 10.619,22.958 10.904,22.958 C11.189,22.958 11.302,23.016 11.489,23.113 C11.73,23.238 12.029,23.395 12.584,23.395 C13.139,23.395 13.439,23.238 13.68,23.113 C13.866,23.016 13.979,22.958 14.265,22.958 C14.55,22.958 14.662,23.016 14.849,23.113 C15.09,23.238 15.389,23.395 15.945,23.395 C16.499,23.395 16.799,23.238 17.04,23.113 C17.227,23.016 17.34,22.958 17.625,22.958 C17.91,22.958 18.023,23.016 18.21,23.113 C18.451,23.238 18.75,23.395 19.305,23.395 C19.642,23.395 19.883,23.336 20.075,23.264 C20.409,23.301 20.731,23.182 20.962,22.958 L20.985,22.958 C21.27,22.958 21.383,23.016 21.571,23.113 C21.811,23.238 22.111,23.395 22.665,23.395 C23.22,23.395 23.52,23.238 23.76,23.113 C23.948,23.016 24.061,22.958 24.346,22.958 C24.631,22.958 24.744,23.016 24.931,23.113 C25.172,23.238 25.472,23.395 26.027,23.395 C26.582,23.395 26.882,23.238 27.121,23.113 C27.309,23.016 27.423,22.958 27.708,22.958 C28.013,22.958 28.262,22.71 28.262,22.403 C28.262,22.098 28.013,21.85 27.708,21.85 L27.708,21.85 Z M8.05,8.134 L12.698,6.641 L13.921,6.25 L14.265,6.139 L14.61,6.25 L15.833,6.642 L20.481,8.134 L20.481,9.233 L16.084,7.768 L14.858,7.358 L14.472,7.23 C14.405,7.207 14.334,7.198 14.265,7.202 C14.196,7.198 14.127,7.207 14.06,7.23 L13.674,7.358 L12.448,7.768 L8.05,9.233 L8.05,8.134 L8.05,8.134 Z M14.265,5.011 C14.243,5.01 14.219,5.012 14.196,5.016 L14.265,4.699 L14.336,5.016 C14.312,5.012 14.289,5.01 14.265,5.011 L14.265,5.011 Z M6.61,10.883 L12.396,8.952 L14.265,8.33 L16.136,8.952 L17.678,9.467 L21.921,10.883 L21.921,12.05 L14.82,9.532 L14.82,9.404 C14.82,9.317 14.798,9.235 14.761,9.161 C14.67,8.979 14.484,8.851 14.265,8.851 C14.048,8.851 13.861,8.979 13.771,9.161 C13.734,9.235 13.712,9.317 13.712,9.404 L13.712,9.531 L6.61,12.05 L6.61,10.883 L6.61,10.883 Z M12.311,1.872 L12.311,1.568 L14.036,2.047 C14.16,2.094 14.299,2.094 14.424,2.049 L16.22,1.562 L16.22,1.869 L14.294,2.401 C14.275,2.407 14.257,2.412 14.24,2.419 C14.24,2.419 14.24,2.419 14.239,2.419 L12.311,1.872 L12.311,1.872 Z M18.783,22.162 C18.763,22.151 18.741,22.141 18.719,22.13 C18.479,22.006 18.18,21.85 17.625,21.85 C17.07,21.85 16.77,22.006 16.53,22.13 C16.507,22.141 16.486,22.153 16.466,22.162 C16.313,22.241 16.195,22.284 15.945,22.284 C15.694,22.284 15.576,22.241 15.424,22.163 C15.403,22.153 15.381,22.141 15.359,22.13 C15.119,22.006 14.82,21.85 14.265,21.85 C13.709,21.85 13.41,22.006 13.17,22.13 C13.147,22.141 13.125,22.153 13.104,22.163 C12.952,22.241 12.835,22.284 12.584,22.284 C12.334,22.284 12.216,22.241 12.064,22.163 C12.044,22.153 12.022,22.141 11.999,22.13 C11.759,22.006 11.459,21.85 10.904,21.85 C10.349,21.85 10.049,22.006 9.809,22.13 C9.786,22.141 9.764,22.153 9.742,22.164 C9.645,22.213 9.559,22.25 9.443,22.27 C9.447,22.234 9.448,22.198 9.448,22.164 C9.448,22.085 9.44,22.007 9.422,21.926 C8.88,19.461 8.108,17.004 7.558,15.375 C7.556,15.372 7.553,15.365 7.551,15.359 L7.141,14.213 L11.719,12.59 L13.712,11.882 L13.712,17.269 C13.712,17.574 13.959,17.823 14.265,17.823 C14.571,17.823 14.82,17.574 14.82,17.269 L14.82,11.882 L16.813,12.59 L21.39,14.213 L20.98,15.359 C20.979,15.365 20.977,15.372 20.975,15.375 C20.423,17.003 19.652,19.458 19.11,21.923 C19.093,22.004 19.084,22.083 19.084,22.162 C19.084,22.197 19.085,22.233 19.089,22.27 C18.97,22.25 18.883,22.213 18.783,22.162 L18.783,22.162 Z" id="Fill-1" sketch:type="MSShapeGroup"></path>
            <path d="M20.987,27.507 C20.432,27.507 20.133,27.661 19.892,27.785 C19.705,27.883 19.592,27.941 19.306,27.941 C19.021,27.941 18.908,27.883 18.721,27.785 C18.48,27.661 18.18,27.507 17.626,27.507 C17.071,27.507 16.771,27.661 16.531,27.785 C16.344,27.883 16.23,27.941 15.946,27.941 C15.66,27.941 15.547,27.883 15.36,27.785 C15.119,27.661 14.82,27.507 14.265,27.507 C13.71,27.507 13.41,27.661 13.17,27.785 C12.983,27.883 12.87,27.941 12.585,27.941 C12.301,27.941 12.186,27.883 11.999,27.785 C11.759,27.661 11.46,27.507 10.904,27.507 C10.598,27.507 10.35,27.755 10.35,28.061 C10.35,28.366 10.598,28.614 10.904,28.614 C11.189,28.614 11.302,28.673 11.49,28.771 C11.73,28.897 12.03,29.05 12.585,29.05 C13.14,29.05 13.439,28.897 13.68,28.771 C13.867,28.673 13.98,28.614 14.265,28.614 C14.55,28.614 14.663,28.673 14.85,28.771 C15.091,28.897 15.39,29.05 15.946,29.05 C16.5,29.05 16.8,28.897 17.041,28.771 C17.227,28.673 17.341,28.614 17.626,28.614 C17.911,28.614 18.024,28.673 18.212,28.771 C18.452,28.897 18.752,29.05 19.306,29.05 C19.862,29.05 20.161,28.897 20.402,28.771 C20.589,28.673 20.702,28.614 20.987,28.614 C21.294,28.614 21.541,28.366 21.541,28.061 C21.541,27.755 21.294,27.507 20.987,27.507" id="Fill-2" sketch:type="MSShapeGroup"></path>
            <path d="M11.489,25.897 C11.73,26.021 12.029,26.176 12.584,26.176 C13.139,26.176 13.439,26.021 13.68,25.897 C13.866,25.8 13.979,25.742 14.265,25.742 C14.55,25.742 14.662,25.8 14.849,25.897 C15.09,26.021 15.389,26.176 15.945,26.176 C16.499,26.176 16.799,26.021 17.04,25.897 C17.227,25.8 17.34,25.742 17.625,25.742 C17.931,25.742 18.179,25.492 18.179,25.188 C18.179,24.882 17.931,24.633 17.625,24.633 C17.07,24.633 16.77,24.788 16.53,24.913 C16.343,25.01 16.23,25.068 15.945,25.068 C15.659,25.068 15.546,25.01 15.359,24.913 C15.119,24.788 14.82,24.633 14.265,24.633 C13.709,24.633 13.41,24.788 13.17,24.913 C12.983,25.01 12.869,25.068 12.584,25.068 C12.299,25.068 12.186,25.01 11.999,24.913 C11.759,24.788 11.459,24.633 10.904,24.633 C10.349,24.633 10.049,24.788 9.809,24.913 C9.622,25.01 9.509,25.068 9.224,25.068 C8.939,25.068 8.826,25.01 8.639,24.913 C8.398,24.788 8.099,24.633 7.544,24.633 C6.989,24.633 6.69,24.788 6.449,24.913 C6.262,25.01 6.15,25.068 5.864,25.068 C5.579,25.068 5.467,25.01 5.279,24.913 C5.038,24.788 4.739,24.633 4.184,24.633 C3.878,24.633 3.63,24.882 3.63,25.188 C3.63,25.492 3.878,25.742 4.184,25.742 C4.469,25.742 4.582,25.8 4.77,25.897 C5.01,26.021 5.309,26.176 5.864,26.176 C6.42,26.176 6.718,26.021 6.96,25.897 C7.146,25.8 7.259,25.742 7.544,25.742 C7.829,25.742 7.942,25.8 8.13,25.897 C8.37,26.021 8.67,26.176 9.224,26.176 C9.779,26.176 10.078,26.021 10.318,25.897 C10.506,25.8 10.619,25.742 10.904,25.742 C11.189,25.742 11.302,25.8 11.489,25.897" id="Fill-3" sketch:type="MSShapeGroup"></path>
            <path d="M19.688,4.074 C20.014,3.801 20.479,3.798 20.808,4.04 C20.812,4.05 20.815,4.057 20.817,4.065 C20.91,4.259 21.105,4.384 21.32,4.384 L21.388,4.384 C21.602,4.384 21.799,4.259 21.89,4.065 C21.894,4.057 21.896,4.05 21.9,4.04 C22.23,3.798 22.694,3.801 23.02,4.074 C23.254,4.271 23.604,4.241 23.801,4.007 C23.998,3.773 23.967,3.423 23.732,3.228 C23.042,2.648 22.076,2.613 21.354,3.073 C20.633,2.613 19.665,2.648 18.975,3.228 C18.741,3.423 18.71,3.773 18.907,4.007 C19.103,4.241 19.454,4.273 19.688,4.074" id="Fill-4" sketch:type="MSShapeGroup"></path>
            <path d="M21.979,1.783 C22.305,1.51 22.77,1.507 23.1,1.748 C23.103,1.756 23.106,1.765 23.11,1.772 C23.201,1.968 23.396,2.092 23.612,2.092 L23.679,2.092 C23.895,2.092 24.09,1.968 24.181,1.772 C24.185,1.765 24.188,1.756 24.191,1.748 C24.52,1.507 24.985,1.51 25.312,1.783 C25.546,1.98 25.896,1.95 26.093,1.715 C26.289,1.479 26.258,1.131 26.025,0.936 C25.335,0.356 24.368,0.32 23.646,0.781 C22.924,0.32 21.957,0.356 21.267,0.936 C21.033,1.131 21.001,1.479 21.199,1.715 C21.396,1.95 21.745,1.98 21.979,1.783" id="Fill-5" sketch:type="MSShapeGroup"></path>
        </g>
        <g id="Luxury-travel-3" sketch:type="MSLayerGroup" transform="translate(2.000000, 42.000000)" fill="#67747C">
            <path d="M27.708,21.85 C27.153,21.85 26.854,22.006 26.613,22.13 C26.426,22.227 26.312,22.284 26.027,22.284 C25.741,22.284 25.628,22.227 25.441,22.13 C25.2,22.006 24.901,21.85 24.346,21.85 C23.791,21.85 23.491,22.006 23.251,22.13 C23.064,22.227 22.951,22.284 22.665,22.284 C22.38,22.284 22.267,22.227 22.08,22.13 C21.906,22.038 21.701,21.935 21.392,21.883 C21.902,19.697 22.576,17.555 23.07,16.096 L23.851,13.912 C23.951,13.635 23.934,13.332 23.808,13.063 C23.683,12.798 23.455,12.593 23.178,12.496 L23.029,12.442 L23.029,10.482 C23.029,10.244 22.876,10.031 22.651,9.957 L21.572,9.598 C21.583,9.555 21.589,9.513 21.589,9.467 L21.589,7.73 C21.589,7.489 21.433,7.275 21.204,7.202 L15.555,5.388 L15.097,3.33 L16.922,2.824 C17.162,2.759 17.329,2.539 17.329,2.29 L17.329,0.766 C17.329,0.585 17.24,0.416 17.091,0.313 C16.943,0.209 16.753,0.185 16.583,0.246 L14.235,0.938 L11.954,0.249 C11.783,0.185 11.592,0.209 11.443,0.311 C11.293,0.414 11.204,0.585 11.204,0.766 L11.204,2.29 C11.204,2.538 11.368,2.756 11.606,2.824 L13.433,3.344 L12.978,5.388 L7.327,7.202 C7.098,7.275 6.943,7.489 6.943,7.73 L6.943,9.467 C6.943,9.513 6.95,9.555 6.96,9.598 L5.882,9.957 C5.655,10.031 5.502,10.244 5.502,10.482 L5.502,12.442 L5.354,12.496 C5.076,12.593 4.85,12.798 4.723,13.063 C4.597,13.332 4.582,13.635 4.68,13.912 L5.461,16.096 C5.955,17.555 6.63,19.697 7.14,21.883 C6.83,21.935 6.623,22.038 6.449,22.13 C6.262,22.227 6.15,22.284 5.864,22.284 C5.579,22.284 5.467,22.227 5.279,22.13 C5.038,22.006 4.739,21.85 4.184,21.85 C3.63,21.85 3.33,22.006 3.089,22.13 C2.902,22.227 2.789,22.284 2.504,22.284 C2.219,22.284 2.106,22.227 1.919,22.13 C1.678,22.006 1.38,21.85 0.823,21.85 C0.518,21.85 0.27,22.098 0.27,22.403 C0.27,22.71 0.518,22.958 0.823,22.958 C1.109,22.958 1.222,23.016 1.409,23.113 C1.65,23.238 1.949,23.395 2.504,23.395 C3.06,23.395 3.358,23.238 3.599,23.113 C3.787,23.016 3.899,22.958 4.184,22.958 C4.469,22.958 4.582,23.016 4.77,23.113 C5.01,23.238 5.309,23.395 5.864,23.395 C6.42,23.395 6.718,23.238 6.96,23.113 C7.146,23.016 7.259,22.958 7.544,22.958 L7.568,22.958 C7.772,23.154 8.048,23.272 8.34,23.272 C8.379,23.272 8.42,23.27 8.46,23.265 C8.652,23.336 8.891,23.395 9.224,23.395 C9.779,23.395 10.078,23.238 10.318,23.113 C10.506,23.016 10.619,22.958 10.904,22.958 C11.189,22.958 11.302,23.016 11.489,23.113 C11.73,23.238 12.029,23.395 12.584,23.395 C13.139,23.395 13.439,23.238 13.68,23.113 C13.866,23.016 13.979,22.958 14.265,22.958 C14.55,22.958 14.662,23.016 14.849,23.113 C15.09,23.238 15.389,23.395 15.945,23.395 C16.499,23.395 16.799,23.238 17.04,23.113 C17.227,23.016 17.34,22.958 17.625,22.958 C17.91,22.958 18.023,23.016 18.21,23.113 C18.451,23.238 18.75,23.395 19.305,23.395 C19.642,23.395 19.883,23.336 20.075,23.264 C20.409,23.301 20.731,23.182 20.962,22.958 L20.985,22.958 C21.27,22.958 21.383,23.016 21.571,23.113 C21.811,23.238 22.111,23.395 22.665,23.395 C23.22,23.395 23.52,23.238 23.76,23.113 C23.948,23.016 24.061,22.958 24.346,22.958 C24.631,22.958 24.744,23.016 24.931,23.113 C25.172,23.238 25.472,23.395 26.027,23.395 C26.582,23.395 26.882,23.238 27.121,23.113 C27.309,23.016 27.423,22.958 27.708,22.958 C28.013,22.958 28.262,22.71 28.262,22.403 C28.262,22.098 28.013,21.85 27.708,21.85 L27.708,21.85 Z M8.05,8.134 L12.698,6.641 L13.921,6.25 L14.265,6.139 L14.61,6.25 L15.833,6.642 L20.481,8.134 L20.481,9.233 L16.084,7.768 L14.858,7.358 L14.472,7.23 C14.405,7.207 14.334,7.198 14.265,7.202 C14.196,7.198 14.127,7.207 14.06,7.23 L13.674,7.358 L12.448,7.768 L8.05,9.233 L8.05,8.134 L8.05,8.134 Z M14.265,5.011 C14.243,5.01 14.219,5.012 14.196,5.016 L14.265,4.699 L14.336,5.016 C14.312,5.012 14.289,5.01 14.265,5.011 L14.265,5.011 Z M6.61,10.883 L12.396,8.952 L14.265,8.33 L16.136,8.952 L17.678,9.467 L21.921,10.883 L21.921,12.05 L14.82,9.532 L14.82,9.404 C14.82,9.317 14.798,9.235 14.761,9.161 C14.67,8.979 14.484,8.851 14.265,8.851 C14.048,8.851 13.861,8.979 13.771,9.161 C13.734,9.235 13.712,9.317 13.712,9.404 L13.712,9.531 L6.61,12.05 L6.61,10.883 L6.61,10.883 Z M12.311,1.872 L12.311,1.568 L14.036,2.047 C14.16,2.094 14.299,2.094 14.424,2.049 L16.22,1.562 L16.22,1.869 L14.294,2.401 C14.275,2.407 14.257,2.412 14.24,2.419 C14.24,2.419 14.24,2.419 14.239,2.419 L12.311,1.872 L12.311,1.872 Z M18.783,22.162 C18.763,22.151 18.741,22.141 18.719,22.13 C18.479,22.006 18.18,21.85 17.625,21.85 C17.07,21.85 16.77,22.006 16.53,22.13 C16.507,22.141 16.486,22.153 16.466,22.162 C16.313,22.241 16.195,22.284 15.945,22.284 C15.694,22.284 15.576,22.241 15.424,22.163 C15.403,22.153 15.381,22.141 15.359,22.13 C15.119,22.006 14.82,21.85 14.265,21.85 C13.709,21.85 13.41,22.006 13.17,22.13 C13.147,22.141 13.125,22.153 13.104,22.163 C12.952,22.241 12.835,22.284 12.584,22.284 C12.334,22.284 12.216,22.241 12.064,22.163 C12.044,22.153 12.022,22.141 11.999,22.13 C11.759,22.006 11.459,21.85 10.904,21.85 C10.349,21.85 10.049,22.006 9.809,22.13 C9.786,22.141 9.764,22.153 9.742,22.164 C9.645,22.213 9.559,22.25 9.443,22.27 C9.447,22.234 9.448,22.198 9.448,22.164 C9.448,22.085 9.44,22.007 9.422,21.926 C8.88,19.461 8.108,17.004 7.558,15.375 C7.556,15.372 7.553,15.365 7.551,15.359 L7.141,14.213 L11.719,12.59 L13.712,11.882 L13.712,17.269 C13.712,17.574 13.959,17.823 14.265,17.823 C14.571,17.823 14.82,17.574 14.82,17.269 L14.82,11.882 L16.813,12.59 L21.39,14.213 L20.98,15.359 C20.979,15.365 20.977,15.372 20.975,15.375 C20.423,17.003 19.652,19.458 19.11,21.923 C19.093,22.004 19.084,22.083 19.084,22.162 C19.084,22.197 19.085,22.233 19.089,22.27 C18.97,22.25 18.883,22.213 18.783,22.162 L18.783,22.162 Z" id="Fill-1" sketch:type="MSShapeGroup"></path>
            <path d="M20.987,27.507 C20.432,27.507 20.133,27.661 19.892,27.785 C19.705,27.883 19.592,27.941 19.306,27.941 C19.021,27.941 18.908,27.883 18.721,27.785 C18.48,27.661 18.18,27.507 17.626,27.507 C17.071,27.507 16.771,27.661 16.531,27.785 C16.344,27.883 16.23,27.941 15.946,27.941 C15.66,27.941 15.547,27.883 15.36,27.785 C15.119,27.661 14.82,27.507 14.265,27.507 C13.71,27.507 13.41,27.661 13.17,27.785 C12.983,27.883 12.87,27.941 12.585,27.941 C12.301,27.941 12.186,27.883 11.999,27.785 C11.759,27.661 11.46,27.507 10.904,27.507 C10.598,27.507 10.35,27.755 10.35,28.061 C10.35,28.366 10.598,28.614 10.904,28.614 C11.189,28.614 11.302,28.673 11.49,28.771 C11.73,28.897 12.03,29.05 12.585,29.05 C13.14,29.05 13.439,28.897 13.68,28.771 C13.867,28.673 13.98,28.614 14.265,28.614 C14.55,28.614 14.663,28.673 14.85,28.771 C15.091,28.897 15.39,29.05 15.946,29.05 C16.5,29.05 16.8,28.897 17.041,28.771 C17.227,28.673 17.341,28.614 17.626,28.614 C17.911,28.614 18.024,28.673 18.212,28.771 C18.452,28.897 18.752,29.05 19.306,29.05 C19.862,29.05 20.161,28.897 20.402,28.771 C20.589,28.673 20.702,28.614 20.987,28.614 C21.294,28.614 21.541,28.366 21.541,28.061 C21.541,27.755 21.294,27.507 20.987,27.507" id="Fill-2" sketch:type="MSShapeGroup"></path>
            <path d="M11.489,25.897 C11.73,26.021 12.029,26.176 12.584,26.176 C13.139,26.176 13.439,26.021 13.68,25.897 C13.866,25.8 13.979,25.742 14.265,25.742 C14.55,25.742 14.662,25.8 14.849,25.897 C15.09,26.021 15.389,26.176 15.945,26.176 C16.499,26.176 16.799,26.021 17.04,25.897 C17.227,25.8 17.34,25.742 17.625,25.742 C17.931,25.742 18.179,25.492 18.179,25.188 C18.179,24.882 17.931,24.633 17.625,24.633 C17.07,24.633 16.77,24.788 16.53,24.913 C16.343,25.01 16.23,25.068 15.945,25.068 C15.659,25.068 15.546,25.01 15.359,24.913 C15.119,24.788 14.82,24.633 14.265,24.633 C13.709,24.633 13.41,24.788 13.17,24.913 C12.983,25.01 12.869,25.068 12.584,25.068 C12.299,25.068 12.186,25.01 11.999,24.913 C11.759,24.788 11.459,24.633 10.904,24.633 C10.349,24.633 10.049,24.788 9.809,24.913 C9.622,25.01 9.509,25.068 9.224,25.068 C8.939,25.068 8.826,25.01 8.639,24.913 C8.398,24.788 8.099,24.633 7.544,24.633 C6.989,24.633 6.69,24.788 6.449,24.913 C6.262,25.01 6.15,25.068 5.864,25.068 C5.579,25.068 5.467,25.01 5.279,24.913 C5.038,24.788 4.739,24.633 4.184,24.633 C3.878,24.633 3.63,24.882 3.63,25.188 C3.63,25.492 3.878,25.742 4.184,25.742 C4.469,25.742 4.582,25.8 4.77,25.897 C5.01,26.021 5.309,26.176 5.864,26.176 C6.42,26.176 6.718,26.021 6.96,25.897 C7.146,25.8 7.259,25.742 7.544,25.742 C7.829,25.742 7.942,25.8 8.13,25.897 C8.37,26.021 8.67,26.176 9.224,26.176 C9.779,26.176 10.078,26.021 10.318,25.897 C10.506,25.8 10.619,25.742 10.904,25.742 C11.189,25.742 11.302,25.8 11.489,25.897" id="Fill-3" sketch:type="MSShapeGroup"></path>
            <path d="M19.688,4.074 C20.014,3.801 20.479,3.798 20.808,4.04 C20.812,4.05 20.815,4.057 20.817,4.065 C20.91,4.259 21.105,4.384 21.32,4.384 L21.388,4.384 C21.602,4.384 21.799,4.259 21.89,4.065 C21.894,4.057 21.896,4.05 21.9,4.04 C22.23,3.798 22.694,3.801 23.02,4.074 C23.254,4.271 23.604,4.241 23.801,4.007 C23.998,3.773 23.967,3.423 23.732,3.228 C23.042,2.648 22.076,2.613 21.354,3.073 C20.633,2.613 19.665,2.648 18.975,3.228 C18.741,3.423 18.71,3.773 18.907,4.007 C19.103,4.241 19.454,4.273 19.688,4.074" id="Fill-4" sketch:type="MSShapeGroup"></path>
            <path d="M21.979,1.783 C22.305,1.51 22.77,1.507 23.1,1.748 C23.103,1.756 23.106,1.765 23.11,1.772 C23.201,1.968 23.396,2.092 23.612,2.092 L23.679,2.092 C23.895,2.092 24.09,1.968 24.181,1.772 C24.185,1.765 24.188,1.756 24.191,1.748 C24.52,1.507 24.985,1.51 25.312,1.783 C25.546,1.98 25.896,1.95 26.093,1.715 C26.289,1.479 26.258,1.131 26.025,0.936 C25.335,0.356 24.368,0.32 23.646,0.781 C22.924,0.32 21.957,0.356 21.267,0.936 C21.033,1.131 21.001,1.479 21.199,1.715 C21.396,1.95 21.745,1.98 21.979,1.783" id="Fill-5" sketch:type="MSShapeGroup"></path>
        </g>
        <g id="Luxury-travel-4" sketch:type="MSLayerGroup" transform="translate(2.000000, 82.000000)" fill="#FFFFFF">
            <path d="M27.708,21.85 C27.153,21.85 26.854,22.006 26.613,22.13 C26.426,22.227 26.312,22.284 26.027,22.284 C25.741,22.284 25.628,22.227 25.441,22.13 C25.2,22.006 24.901,21.85 24.346,21.85 C23.791,21.85 23.491,22.006 23.251,22.13 C23.064,22.227 22.951,22.284 22.665,22.284 C22.38,22.284 22.267,22.227 22.08,22.13 C21.906,22.038 21.701,21.935 21.392,21.883 C21.902,19.697 22.576,17.555 23.07,16.096 L23.851,13.912 C23.951,13.635 23.934,13.332 23.808,13.063 C23.683,12.798 23.455,12.593 23.178,12.496 L23.029,12.442 L23.029,10.482 C23.029,10.244 22.876,10.031 22.651,9.957 L21.572,9.598 C21.583,9.555 21.589,9.513 21.589,9.467 L21.589,7.73 C21.589,7.489 21.433,7.275 21.204,7.202 L15.555,5.388 L15.097,3.33 L16.922,2.824 C17.162,2.759 17.329,2.539 17.329,2.29 L17.329,0.766 C17.329,0.585 17.24,0.416 17.091,0.313 C16.943,0.209 16.753,0.185 16.583,0.246 L14.235,0.938 L11.954,0.249 C11.783,0.185 11.592,0.209 11.443,0.311 C11.293,0.414 11.204,0.585 11.204,0.766 L11.204,2.29 C11.204,2.538 11.368,2.756 11.606,2.824 L13.433,3.344 L12.978,5.388 L7.327,7.202 C7.098,7.275 6.943,7.489 6.943,7.73 L6.943,9.467 C6.943,9.513 6.95,9.555 6.96,9.598 L5.882,9.957 C5.655,10.031 5.502,10.244 5.502,10.482 L5.502,12.442 L5.354,12.496 C5.076,12.593 4.85,12.798 4.723,13.063 C4.597,13.332 4.582,13.635 4.68,13.912 L5.461,16.096 C5.955,17.555 6.63,19.697 7.14,21.883 C6.83,21.935 6.623,22.038 6.449,22.13 C6.262,22.227 6.15,22.284 5.864,22.284 C5.579,22.284 5.467,22.227 5.279,22.13 C5.038,22.006 4.739,21.85 4.184,21.85 C3.63,21.85 3.33,22.006 3.089,22.13 C2.902,22.227 2.789,22.284 2.504,22.284 C2.219,22.284 2.106,22.227 1.919,22.13 C1.678,22.006 1.38,21.85 0.823,21.85 C0.518,21.85 0.27,22.098 0.27,22.403 C0.27,22.71 0.518,22.958 0.823,22.958 C1.109,22.958 1.222,23.016 1.409,23.113 C1.65,23.238 1.949,23.395 2.504,23.395 C3.06,23.395 3.358,23.238 3.599,23.113 C3.787,23.016 3.899,22.958 4.184,22.958 C4.469,22.958 4.582,23.016 4.77,23.113 C5.01,23.238 5.309,23.395 5.864,23.395 C6.42,23.395 6.718,23.238 6.96,23.113 C7.146,23.016 7.259,22.958 7.544,22.958 L7.568,22.958 C7.772,23.154 8.048,23.272 8.34,23.272 C8.379,23.272 8.42,23.27 8.46,23.265 C8.652,23.336 8.891,23.395 9.224,23.395 C9.779,23.395 10.078,23.238 10.318,23.113 C10.506,23.016 10.619,22.958 10.904,22.958 C11.189,22.958 11.302,23.016 11.489,23.113 C11.73,23.238 12.029,23.395 12.584,23.395 C13.139,23.395 13.439,23.238 13.68,23.113 C13.866,23.016 13.979,22.958 14.265,22.958 C14.55,22.958 14.662,23.016 14.849,23.113 C15.09,23.238 15.389,23.395 15.945,23.395 C16.499,23.395 16.799,23.238 17.04,23.113 C17.227,23.016 17.34,22.958 17.625,22.958 C17.91,22.958 18.023,23.016 18.21,23.113 C18.451,23.238 18.75,23.395 19.305,23.395 C19.642,23.395 19.883,23.336 20.075,23.264 C20.409,23.301 20.731,23.182 20.962,22.958 L20.985,22.958 C21.27,22.958 21.383,23.016 21.571,23.113 C21.811,23.238 22.111,23.395 22.665,23.395 C23.22,23.395 23.52,23.238 23.76,23.113 C23.948,23.016 24.061,22.958 24.346,22.958 C24.631,22.958 24.744,23.016 24.931,23.113 C25.172,23.238 25.472,23.395 26.027,23.395 C26.582,23.395 26.882,23.238 27.121,23.113 C27.309,23.016 27.423,22.958 27.708,22.958 C28.013,22.958 28.262,22.71 28.262,22.403 C28.262,22.098 28.013,21.85 27.708,21.85 L27.708,21.85 Z M8.05,8.134 L12.698,6.641 L13.921,6.25 L14.265,6.139 L14.61,6.25 L15.833,6.642 L20.481,8.134 L20.481,9.233 L16.084,7.768 L14.858,7.358 L14.472,7.23 C14.405,7.207 14.334,7.198 14.265,7.202 C14.196,7.198 14.127,7.207 14.06,7.23 L13.674,7.358 L12.448,7.768 L8.05,9.233 L8.05,8.134 L8.05,8.134 Z M14.265,5.011 C14.243,5.01 14.219,5.012 14.196,5.016 L14.265,4.699 L14.336,5.016 C14.312,5.012 14.289,5.01 14.265,5.011 L14.265,5.011 Z M6.61,10.883 L12.396,8.952 L14.265,8.33 L16.136,8.952 L17.678,9.467 L21.921,10.883 L21.921,12.05 L14.82,9.532 L14.82,9.404 C14.82,9.317 14.798,9.235 14.761,9.161 C14.67,8.979 14.484,8.851 14.265,8.851 C14.048,8.851 13.861,8.979 13.771,9.161 C13.734,9.235 13.712,9.317 13.712,9.404 L13.712,9.531 L6.61,12.05 L6.61,10.883 L6.61,10.883 Z M12.311,1.872 L12.311,1.568 L14.036,2.047 C14.16,2.094 14.299,2.094 14.424,2.049 L16.22,1.562 L16.22,1.869 L14.294,2.401 C14.275,2.407 14.257,2.412 14.24,2.419 C14.24,2.419 14.24,2.419 14.239,2.419 L12.311,1.872 L12.311,1.872 Z M18.783,22.162 C18.763,22.151 18.741,22.141 18.719,22.13 C18.479,22.006 18.18,21.85 17.625,21.85 C17.07,21.85 16.77,22.006 16.53,22.13 C16.507,22.141 16.486,22.153 16.466,22.162 C16.313,22.241 16.195,22.284 15.945,22.284 C15.694,22.284 15.576,22.241 15.424,22.163 C15.403,22.153 15.381,22.141 15.359,22.13 C15.119,22.006 14.82,21.85 14.265,21.85 C13.709,21.85 13.41,22.006 13.17,22.13 C13.147,22.141 13.125,22.153 13.104,22.163 C12.952,22.241 12.835,22.284 12.584,22.284 C12.334,22.284 12.216,22.241 12.064,22.163 C12.044,22.153 12.022,22.141 11.999,22.13 C11.759,22.006 11.459,21.85 10.904,21.85 C10.349,21.85 10.049,22.006 9.809,22.13 C9.786,22.141 9.764,22.153 9.742,22.164 C9.645,22.213 9.559,22.25 9.443,22.27 C9.447,22.234 9.448,22.198 9.448,22.164 C9.448,22.085 9.44,22.007 9.422,21.926 C8.88,19.461 8.108,17.004 7.558,15.375 C7.556,15.372 7.553,15.365 7.551,15.359 L7.141,14.213 L11.719,12.59 L13.712,11.882 L13.712,17.269 C13.712,17.574 13.959,17.823 14.265,17.823 C14.571,17.823 14.82,17.574 14.82,17.269 L14.82,11.882 L16.813,12.59 L21.39,14.213 L20.98,15.359 C20.979,15.365 20.977,15.372 20.975,15.375 C20.423,17.003 19.652,19.458 19.11,21.923 C19.093,22.004 19.084,22.083 19.084,22.162 C19.084,22.197 19.085,22.233 19.089,22.27 C18.97,22.25 18.883,22.213 18.783,22.162 L18.783,22.162 Z" id="Fill-1" sketch:type="MSShapeGroup"></path>
            <path d="M20.987,27.507 C20.432,27.507 20.133,27.661 19.892,27.785 C19.705,27.883 19.592,27.941 19.306,27.941 C19.021,27.941 18.908,27.883 18.721,27.785 C18.48,27.661 18.18,27.507 17.626,27.507 C17.071,27.507 16.771,27.661 16.531,27.785 C16.344,27.883 16.23,27.941 15.946,27.941 C15.66,27.941 15.547,27.883 15.36,27.785 C15.119,27.661 14.82,27.507 14.265,27.507 C13.71,27.507 13.41,27.661 13.17,27.785 C12.983,27.883 12.87,27.941 12.585,27.941 C12.301,27.941 12.186,27.883 11.999,27.785 C11.759,27.661 11.46,27.507 10.904,27.507 C10.598,27.507 10.35,27.755 10.35,28.061 C10.35,28.366 10.598,28.614 10.904,28.614 C11.189,28.614 11.302,28.673 11.49,28.771 C11.73,28.897 12.03,29.05 12.585,29.05 C13.14,29.05 13.439,28.897 13.68,28.771 C13.867,28.673 13.98,28.614 14.265,28.614 C14.55,28.614 14.663,28.673 14.85,28.771 C15.091,28.897 15.39,29.05 15.946,29.05 C16.5,29.05 16.8,28.897 17.041,28.771 C17.227,28.673 17.341,28.614 17.626,28.614 C17.911,28.614 18.024,28.673 18.212,28.771 C18.452,28.897 18.752,29.05 19.306,29.05 C19.862,29.05 20.161,28.897 20.402,28.771 C20.589,28.673 20.702,28.614 20.987,28.614 C21.294,28.614 21.541,28.366 21.541,28.061 C21.541,27.755 21.294,27.507 20.987,27.507" id="Fill-2" sketch:type="MSShapeGroup"></path>
            <path d="M11.489,25.897 C11.73,26.021 12.029,26.176 12.584,26.176 C13.139,26.176 13.439,26.021 13.68,25.897 C13.866,25.8 13.979,25.742 14.265,25.742 C14.55,25.742 14.662,25.8 14.849,25.897 C15.09,26.021 15.389,26.176 15.945,26.176 C16.499,26.176 16.799,26.021 17.04,25.897 C17.227,25.8 17.34,25.742 17.625,25.742 C17.931,25.742 18.179,25.492 18.179,25.188 C18.179,24.882 17.931,24.633 17.625,24.633 C17.07,24.633 16.77,24.788 16.53,24.913 C16.343,25.01 16.23,25.068 15.945,25.068 C15.659,25.068 15.546,25.01 15.359,24.913 C15.119,24.788 14.82,24.633 14.265,24.633 C13.709,24.633 13.41,24.788 13.17,24.913 C12.983,25.01 12.869,25.068 12.584,25.068 C12.299,25.068 12.186,25.01 11.999,24.913 C11.759,24.788 11.459,24.633 10.904,24.633 C10.349,24.633 10.049,24.788 9.809,24.913 C9.622,25.01 9.509,25.068 9.224,25.068 C8.939,25.068 8.826,25.01 8.639,24.913 C8.398,24.788 8.099,24.633 7.544,24.633 C6.989,24.633 6.69,24.788 6.449,24.913 C6.262,25.01 6.15,25.068 5.864,25.068 C5.579,25.068 5.467,25.01 5.279,24.913 C5.038,24.788 4.739,24.633 4.184,24.633 C3.878,24.633 3.63,24.882 3.63,25.188 C3.63,25.492 3.878,25.742 4.184,25.742 C4.469,25.742 4.582,25.8 4.77,25.897 C5.01,26.021 5.309,26.176 5.864,26.176 C6.42,26.176 6.718,26.021 6.96,25.897 C7.146,25.8 7.259,25.742 7.544,25.742 C7.829,25.742 7.942,25.8 8.13,25.897 C8.37,26.021 8.67,26.176 9.224,26.176 C9.779,26.176 10.078,26.021 10.318,25.897 C10.506,25.8 10.619,25.742 10.904,25.742 C11.189,25.742 11.302,25.8 11.489,25.897" id="Fill-3" sketch:type="MSShapeGroup"></path>
            <path d="M19.688,4.074 C20.014,3.801 20.479,3.798 20.808,4.04 C20.812,4.05 20.815,4.057 20.817,4.065 C20.91,4.259 21.105,4.384 21.32,4.384 L21.388,4.384 C21.602,4.384 21.799,4.259 21.89,4.065 C21.894,4.057 21.896,4.05 21.9,4.04 C22.23,3.798 22.694,3.801 23.02,4.074 C23.254,4.271 23.604,4.241 23.801,4.007 C23.998,3.773 23.967,3.423 23.732,3.228 C23.042,2.648 22.076,2.613 21.354,3.073 C20.633,2.613 19.665,2.648 18.975,3.228 C18.741,3.423 18.71,3.773 18.907,4.007 C19.103,4.241 19.454,4.273 19.688,4.074" id="Fill-4" sketch:type="MSShapeGroup"></path>
            <path d="M21.979,1.783 C22.305,1.51 22.77,1.507 23.1,1.748 C23.103,1.756 23.106,1.765 23.11,1.772 C23.201,1.968 23.396,2.092 23.612,2.092 L23.679,2.092 C23.895,2.092 24.09,1.968 24.181,1.772 C24.185,1.765 24.188,1.756 24.191,1.748 C24.52,1.507 24.985,1.51 25.312,1.783 C25.546,1.98 25.896,1.95 26.093,1.715 C26.289,1.479 26.258,1.131 26.025,0.936 C25.335,0.356 24.368,0.32 23.646,0.781 C22.924,0.32 21.957,0.356 21.267,0.936 C21.033,1.131 21.001,1.479 21.199,1.715 C21.396,1.95 21.745,1.98 21.979,1.783" id="Fill-5" sketch:type="MSShapeGroup"></path>
        </g>
        <g id="Luxury-travel-5" sketch:type="MSLayerGroup" transform="translate(2.000000, 122.000000)" fill="#206FAC">
            <path d="M27.708,21.85 C27.153,21.85 26.854,22.006 26.613,22.13 C26.426,22.227 26.312,22.284 26.027,22.284 C25.741,22.284 25.628,22.227 25.441,22.13 C25.2,22.006 24.901,21.85 24.346,21.85 C23.791,21.85 23.491,22.006 23.251,22.13 C23.064,22.227 22.951,22.284 22.665,22.284 C22.38,22.284 22.267,22.227 22.08,22.13 C21.906,22.038 21.701,21.935 21.392,21.883 C21.902,19.697 22.576,17.555 23.07,16.096 L23.851,13.912 C23.951,13.635 23.934,13.332 23.808,13.063 C23.683,12.798 23.455,12.593 23.178,12.496 L23.029,12.442 L23.029,10.482 C23.029,10.244 22.876,10.031 22.651,9.957 L21.572,9.598 C21.583,9.555 21.589,9.513 21.589,9.467 L21.589,7.73 C21.589,7.489 21.433,7.275 21.204,7.202 L15.555,5.388 L15.097,3.33 L16.922,2.824 C17.162,2.759 17.329,2.539 17.329,2.29 L17.329,0.766 C17.329,0.585 17.24,0.416 17.091,0.313 C16.943,0.209 16.753,0.185 16.583,0.246 L14.235,0.938 L11.954,0.249 C11.783,0.185 11.592,0.209 11.443,0.311 C11.293,0.414 11.204,0.585 11.204,0.766 L11.204,2.29 C11.204,2.538 11.368,2.756 11.606,2.824 L13.433,3.344 L12.978,5.388 L7.327,7.202 C7.098,7.275 6.943,7.489 6.943,7.73 L6.943,9.467 C6.943,9.513 6.95,9.555 6.96,9.598 L5.882,9.957 C5.655,10.031 5.502,10.244 5.502,10.482 L5.502,12.442 L5.354,12.496 C5.076,12.593 4.85,12.798 4.723,13.063 C4.597,13.332 4.582,13.635 4.68,13.912 L5.461,16.096 C5.955,17.555 6.63,19.697 7.14,21.883 C6.83,21.935 6.623,22.038 6.449,22.13 C6.262,22.227 6.15,22.284 5.864,22.284 C5.579,22.284 5.467,22.227 5.279,22.13 C5.038,22.006 4.739,21.85 4.184,21.85 C3.63,21.85 3.33,22.006 3.089,22.13 C2.902,22.227 2.789,22.284 2.504,22.284 C2.219,22.284 2.106,22.227 1.919,22.13 C1.678,22.006 1.38,21.85 0.823,21.85 C0.518,21.85 0.27,22.098 0.27,22.403 C0.27,22.71 0.518,22.958 0.823,22.958 C1.109,22.958 1.222,23.016 1.409,23.113 C1.65,23.238 1.949,23.395 2.504,23.395 C3.06,23.395 3.358,23.238 3.599,23.113 C3.787,23.016 3.899,22.958 4.184,22.958 C4.469,22.958 4.582,23.016 4.77,23.113 C5.01,23.238 5.309,23.395 5.864,23.395 C6.42,23.395 6.718,23.238 6.96,23.113 C7.146,23.016 7.259,22.958 7.544,22.958 L7.568,22.958 C7.772,23.154 8.048,23.272 8.34,23.272 C8.379,23.272 8.42,23.27 8.46,23.265 C8.652,23.336 8.891,23.395 9.224,23.395 C9.779,23.395 10.078,23.238 10.318,23.113 C10.506,23.016 10.619,22.958 10.904,22.958 C11.189,22.958 11.302,23.016 11.489,23.113 C11.73,23.238 12.029,23.395 12.584,23.395 C13.139,23.395 13.439,23.238 13.68,23.113 C13.866,23.016 13.979,22.958 14.265,22.958 C14.55,22.958 14.662,23.016 14.849,23.113 C15.09,23.238 15.389,23.395 15.945,23.395 C16.499,23.395 16.799,23.238 17.04,23.113 C17.227,23.016 17.34,22.958 17.625,22.958 C17.91,22.958 18.023,23.016 18.21,23.113 C18.451,23.238 18.75,23.395 19.305,23.395 C19.642,23.395 19.883,23.336 20.075,23.264 C20.409,23.301 20.731,23.182 20.962,22.958 L20.985,22.958 C21.27,22.958 21.383,23.016 21.571,23.113 C21.811,23.238 22.111,23.395 22.665,23.395 C23.22,23.395 23.52,23.238 23.76,23.113 C23.948,23.016 24.061,22.958 24.346,22.958 C24.631,22.958 24.744,23.016 24.931,23.113 C25.172,23.238 25.472,23.395 26.027,23.395 C26.582,23.395 26.882,23.238 27.121,23.113 C27.309,23.016 27.423,22.958 27.708,22.958 C28.013,22.958 28.262,22.71 28.262,22.403 C28.262,22.098 28.013,21.85 27.708,21.85 L27.708,21.85 Z M8.05,8.134 L12.698,6.641 L13.921,6.25 L14.265,6.139 L14.61,6.25 L15.833,6.642 L20.481,8.134 L20.481,9.233 L16.084,7.768 L14.858,7.358 L14.472,7.23 C14.405,7.207 14.334,7.198 14.265,7.202 C14.196,7.198 14.127,7.207 14.06,7.23 L13.674,7.358 L12.448,7.768 L8.05,9.233 L8.05,8.134 L8.05,8.134 Z M14.265,5.011 C14.243,5.01 14.219,5.012 14.196,5.016 L14.265,4.699 L14.336,5.016 C14.312,5.012 14.289,5.01 14.265,5.011 L14.265,5.011 Z M6.61,10.883 L12.396,8.952 L14.265,8.33 L16.136,8.952 L17.678,9.467 L21.921,10.883 L21.921,12.05 L14.82,9.532 L14.82,9.404 C14.82,9.317 14.798,9.235 14.761,9.161 C14.67,8.979 14.484,8.851 14.265,8.851 C14.048,8.851 13.861,8.979 13.771,9.161 C13.734,9.235 13.712,9.317 13.712,9.404 L13.712,9.531 L6.61,12.05 L6.61,10.883 L6.61,10.883 Z M12.311,1.872 L12.311,1.568 L14.036,2.047 C14.16,2.094 14.299,2.094 14.424,2.049 L16.22,1.562 L16.22,1.869 L14.294,2.401 C14.275,2.407 14.257,2.412 14.24,2.419 C14.24,2.419 14.24,2.419 14.239,2.419 L12.311,1.872 L12.311,1.872 Z M18.783,22.162 C18.763,22.151 18.741,22.141 18.719,22.13 C18.479,22.006 18.18,21.85 17.625,21.85 C17.07,21.85 16.77,22.006 16.53,22.13 C16.507,22.141 16.486,22.153 16.466,22.162 C16.313,22.241 16.195,22.284 15.945,22.284 C15.694,22.284 15.576,22.241 15.424,22.163 C15.403,22.153 15.381,22.141 15.359,22.13 C15.119,22.006 14.82,21.85 14.265,21.85 C13.709,21.85 13.41,22.006 13.17,22.13 C13.147,22.141 13.125,22.153 13.104,22.163 C12.952,22.241 12.835,22.284 12.584,22.284 C12.334,22.284 12.216,22.241 12.064,22.163 C12.044,22.153 12.022,22.141 11.999,22.13 C11.759,22.006 11.459,21.85 10.904,21.85 C10.349,21.85 10.049,22.006 9.809,22.13 C9.786,22.141 9.764,22.153 9.742,22.164 C9.645,22.213 9.559,22.25 9.443,22.27 C9.447,22.234 9.448,22.198 9.448,22.164 C9.448,22.085 9.44,22.007 9.422,21.926 C8.88,19.461 8.108,17.004 7.558,15.375 C7.556,15.372 7.553,15.365 7.551,15.359 L7.141,14.213 L11.719,12.59 L13.712,11.882 L13.712,17.269 C13.712,17.574 13.959,17.823 14.265,17.823 C14.571,17.823 14.82,17.574 14.82,17.269 L14.82,11.882 L16.813,12.59 L21.39,14.213 L20.98,15.359 C20.979,15.365 20.977,15.372 20.975,15.375 C20.423,17.003 19.652,19.458 19.11,21.923 C19.093,22.004 19.084,22.083 19.084,22.162 C19.084,22.197 19.085,22.233 19.089,22.27 C18.97,22.25 18.883,22.213 18.783,22.162 L18.783,22.162 Z" id="Fill-1" sketch:type="MSShapeGroup"></path>
            <path d="M20.987,27.507 C20.432,27.507 20.133,27.661 19.892,27.785 C19.705,27.883 19.592,27.941 19.306,27.941 C19.021,27.941 18.908,27.883 18.721,27.785 C18.48,27.661 18.18,27.507 17.626,27.507 C17.071,27.507 16.771,27.661 16.531,27.785 C16.344,27.883 16.23,27.941 15.946,27.941 C15.66,27.941 15.547,27.883 15.36,27.785 C15.119,27.661 14.82,27.507 14.265,27.507 C13.71,27.507 13.41,27.661 13.17,27.785 C12.983,27.883 12.87,27.941 12.585,27.941 C12.301,27.941 12.186,27.883 11.999,27.785 C11.759,27.661 11.46,27.507 10.904,27.507 C10.598,27.507 10.35,27.755 10.35,28.061 C10.35,28.366 10.598,28.614 10.904,28.614 C11.189,28.614 11.302,28.673 11.49,28.771 C11.73,28.897 12.03,29.05 12.585,29.05 C13.14,29.05 13.439,28.897 13.68,28.771 C13.867,28.673 13.98,28.614 14.265,28.614 C14.55,28.614 14.663,28.673 14.85,28.771 C15.091,28.897 15.39,29.05 15.946,29.05 C16.5,29.05 16.8,28.897 17.041,28.771 C17.227,28.673 17.341,28.614 17.626,28.614 C17.911,28.614 18.024,28.673 18.212,28.771 C18.452,28.897 18.752,29.05 19.306,29.05 C19.862,29.05 20.161,28.897 20.402,28.771 C20.589,28.673 20.702,28.614 20.987,28.614 C21.294,28.614 21.541,28.366 21.541,28.061 C21.541,27.755 21.294,27.507 20.987,27.507" id="Fill-2" sketch:type="MSShapeGroup"></path>
            <path d="M11.489,25.897 C11.73,26.021 12.029,26.176 12.584,26.176 C13.139,26.176 13.439,26.021 13.68,25.897 C13.866,25.8 13.979,25.742 14.265,25.742 C14.55,25.742 14.662,25.8 14.849,25.897 C15.09,26.021 15.389,26.176 15.945,26.176 C16.499,26.176 16.799,26.021 17.04,25.897 C17.227,25.8 17.34,25.742 17.625,25.742 C17.931,25.742 18.179,25.492 18.179,25.188 C18.179,24.882 17.931,24.633 17.625,24.633 C17.07,24.633 16.77,24.788 16.53,24.913 C16.343,25.01 16.23,25.068 15.945,25.068 C15.659,25.068 15.546,25.01 15.359,24.913 C15.119,24.788 14.82,24.633 14.265,24.633 C13.709,24.633 13.41,24.788 13.17,24.913 C12.983,25.01 12.869,25.068 12.584,25.068 C12.299,25.068 12.186,25.01 11.999,24.913 C11.759,24.788 11.459,24.633 10.904,24.633 C10.349,24.633 10.049,24.788 9.809,24.913 C9.622,25.01 9.509,25.068 9.224,25.068 C8.939,25.068 8.826,25.01 8.639,24.913 C8.398,24.788 8.099,24.633 7.544,24.633 C6.989,24.633 6.69,24.788 6.449,24.913 C6.262,25.01 6.15,25.068 5.864,25.068 C5.579,25.068 5.467,25.01 5.279,24.913 C5.038,24.788 4.739,24.633 4.184,24.633 C3.878,24.633 3.63,24.882 3.63,25.188 C3.63,25.492 3.878,25.742 4.184,25.742 C4.469,25.742 4.582,25.8 4.77,25.897 C5.01,26.021 5.309,26.176 5.864,26.176 C6.42,26.176 6.718,26.021 6.96,25.897 C7.146,25.8 7.259,25.742 7.544,25.742 C7.829,25.742 7.942,25.8 8.13,25.897 C8.37,26.021 8.67,26.176 9.224,26.176 C9.779,26.176 10.078,26.021 10.318,25.897 C10.506,25.8 10.619,25.742 10.904,25.742 C11.189,25.742 11.302,25.8 11.489,25.897" id="Fill-3" sketch:type="MSShapeGroup"></path>
            <path d="M19.688,4.074 C20.014,3.801 20.479,3.798 20.808,4.04 C20.812,4.05 20.815,4.057 20.817,4.065 C20.91,4.259 21.105,4.384 21.32,4.384 L21.388,4.384 C21.602,4.384 21.799,4.259 21.89,4.065 C21.894,4.057 21.896,4.05 21.9,4.04 C22.23,3.798 22.694,3.801 23.02,4.074 C23.254,4.271 23.604,4.241 23.801,4.007 C23.998,3.773 23.967,3.423 23.732,3.228 C23.042,2.648 22.076,2.613 21.354,3.073 C20.633,2.613 19.665,2.648 18.975,3.228 C18.741,3.423 18.71,3.773 18.907,4.007 C19.103,4.241 19.454,4.273 19.688,4.074" id="Fill-4" sketch:type="MSShapeGroup"></path>
            <path d="M21.979,1.783 C22.305,1.51 22.77,1.507 23.1,1.748 C23.103,1.756 23.106,1.765 23.11,1.772 C23.201,1.968 23.396,2.092 23.612,2.092 L23.679,2.092 C23.895,2.092 24.09,1.968 24.181,1.772 C24.185,1.765 24.188,1.756 24.191,1.748 C24.52,1.507 24.985,1.51 25.312,1.783 C25.546,1.98 25.896,1.95 26.093,1.715 C26.289,1.479 26.258,1.131 26.025,0.936 C25.335,0.356 24.368,0.32 23.646,0.781 C22.924,0.32 21.957,0.356 21.267,0.936 C21.033,1.131 21.001,1.479 21.199,1.715 C21.396,1.95 21.745,1.98 21.979,1.783" id="Fill-5" sketch:type="MSShapeGroup"></path>
        </g>
    </g>
</svg>