<?xml version="1.0" encoding="UTF-8" standalone="no"?>
<svg width="32px" height="232px" viewBox="0 0 32 232" version="1.1" xmlns="http://www.w3.org/2000/svg" xmlns:xlink="http://www.w3.org/1999/xlink" xmlns:sketch="http://www.bohemiancoding.com/sketch/ns">
    <!-- Generator: Sketch 3.0 (7574) - http://www.bohemiancoding.com/sketch -->
    <title>road-trips</title>
    <description>Created with Sketch.</description>
    <defs></defs>
    <g id="Gold-destinations" stroke="none" stroke-width="1" fill="none" fill-rule="evenodd" sketch:type="MSPage">
        <g id="Slices" sketch:type="MSLayerGroup" transform="translate(-360.000000, 0.000000)"></g>
        <g id="Interests-Icons" sketch:type="MSLayerGroup" transform="translate(-354.000000, -1.000000)">
            <g id="Road-trips" transform="translate(356.000000, 127.000000)" fill="#206FAC" sketch:type="MSShapeGroup">
                <path d="M13.32,9.79133333 C13.0631538,9.79133333 12.8561538,10.0024444 12.8561538,10.2628148 L12.8561538,12.1107407 C12.8561538,12.3711111 13.0631538,12.5822222 13.32,12.5822222 C13.5768462,12.5822222 13.7838462,12.3711111 13.7838462,12.1107407 L13.7838462,10.2628148 C13.7838462,10.0024444 13.5768462,9.79133333 13.32,9.79133333" id="Fill-1"></path>
                <path d="M26.0383846,6.45366667 L24.8462308,6.45366667 C24.8476154,6.21862963 24.7631538,5.98359259 24.5921538,5.79992593 L23.7440769,4.89144444 L22.5436154,3.31444444 L21.7578462,0.786037037 C21.636,0.392666667 21.2773846,0.125962963 20.8730769,0.125962963 L18.5829231,0.125962963 C18.3876923,0.125962963 18.1973077,0.187888889 18.0408462,0.303296296 C16.2623077,1.60796296 14.2179231,3.05055556 13.7284615,3.31162963 C13.392,3.34892593 12.2912308,3.32007407 11.2783846,3.26518519 L9.58430769,1.36166667 C9.29907692,1.04007407 8.83384615,0.957740741 8.45792308,1.16111111 L6.19407692,2.39118519 L4.12684615,2.39118519 C3.76407692,2.39118519 3.43453846,2.60581481 3.28292308,2.94077778 L1.87684615,6.05537037 C1.82007692,6.18485185 1.79307692,6.32066667 1.79446154,6.45366667 L0.733846154,6.45366667 C0.477692308,6.45366667 0.270692308,6.66407407 0.270692308,6.92514815 C0.270692308,7.18622222 0.477692308,7.39662963 0.733846154,7.39662963 L9.17307692,7.39662963 L3.48992308,17.1 C3.31823077,17.3913333 3.31546154,17.7544444 3.48023077,18.05 C3.64569231,18.3441481 3.95376923,18.5271111 4.28607692,18.5271111 L22.3525385,18.5271111 C22.6862308,18.5271111 22.9936154,18.3441481 23.1597692,18.05 C23.3245385,17.7544444 23.3203846,17.3913333 23.1507692,17.1 L17.4676154,7.39662963 L26.0383846,7.39662963 C26.2945385,7.39662963 26.5022308,7.18622222 26.5022308,6.92514815 C26.5022308,6.66407407 26.2945385,6.45366667 26.0383846,6.45366667 L26.0383846,6.45366667 Z M20.7193846,16.6397778 L13.7838462,16.6397778 L13.7838462,14.8214074 C13.7838462,14.5617407 13.5768462,14.3499259 13.32,14.3499259 C13.0631538,14.3499259 12.8561538,14.5617407 12.8561538,14.8214074 L12.8561538,16.6397778 L5.92130769,16.6397778 L11.2486154,7.5422963 L12.8561538,7.5422963 L12.8561538,7.82588889 C12.8561538,8.08555556 13.0631538,8.29737037 13.32,8.29737037 C13.5768462,8.29737037 13.7838462,8.08555556 13.7838462,7.82588889 L13.7838462,7.5422963 L15.3906923,7.5422963 L20.7193846,16.6397778 L20.7193846,16.6397778 Z M16.9130769,6.45366667 L16.9116923,6.45014815 L9.72761538,6.45014815 L9.72623077,6.45366667 L3.74123077,6.45366667 L3.744,6.45014815 L4.72292308,4.27851852 L6.42807692,4.27851852 C6.58107692,4.27851852 6.72992308,4.23981481 6.86492308,4.16662963 L8.69330769,3.173 L10.1575385,4.81825926 C10.3195385,5.00122222 10.5452308,5.11240741 10.7889231,5.12788889 C12.0842308,5.20881481 13.7381538,5.27637037 14.2476923,5.1307037 C14.4166154,5.08355556 14.8576154,4.9582963 18.8826923,2.0132963 L20.1918462,2.0132963 L20.8232308,4.04488889 C20.8557692,4.14903704 20.907,4.24966667 20.9748462,4.33762963 L22.3040769,6.08281481 C22.3227692,6.10744444 22.3428462,6.13207407 22.365,6.15459259 L22.6391538,6.45014815 L22.6433077,6.45366667 L16.9130769,6.45366667 L16.9130769,6.45366667 Z" id="Fill-2"></path>
            </g>
            <g id="Road-trips-2" transform="translate(356.000000, 48.000000)" fill="#67737B" sketch:type="MSShapeGroup">
                <path d="M13.32,9.79133333 C13.0631538,9.79133333 12.8561538,10.0024444 12.8561538,10.2628148 L12.8561538,12.1107407 C12.8561538,12.3711111 13.0631538,12.5822222 13.32,12.5822222 C13.5768462,12.5822222 13.7838462,12.3711111 13.7838462,12.1107407 L13.7838462,10.2628148 C13.7838462,10.0024444 13.5768462,9.79133333 13.32,9.79133333" id="Fill-1"></path>
                <path d="M26.0383846,6.45366667 L24.8462308,6.45366667 C24.8476154,6.21862963 24.7631538,5.98359259 24.5921538,5.79992593 L23.7440769,4.89144444 L22.5436154,3.31444444 L21.7578462,0.786037037 C21.636,0.392666667 21.2773846,0.125962963 20.8730769,0.125962963 L18.5829231,0.125962963 C18.3876923,0.125962963 18.1973077,0.187888889 18.0408462,0.303296296 C16.2623077,1.60796296 14.2179231,3.05055556 13.7284615,3.31162963 C13.392,3.34892593 12.2912308,3.32007407 11.2783846,3.26518519 L9.58430769,1.36166667 C9.29907692,1.04007407 8.83384615,0.957740741 8.45792308,1.16111111 L6.19407692,2.39118519 L4.12684615,2.39118519 C3.76407692,2.39118519 3.43453846,2.60581481 3.28292308,2.94077778 L1.87684615,6.05537037 C1.82007692,6.18485185 1.79307692,6.32066667 1.79446154,6.45366667 L0.733846154,6.45366667 C0.477692308,6.45366667 0.270692308,6.66407407 0.270692308,6.92514815 C0.270692308,7.18622222 0.477692308,7.39662963 0.733846154,7.39662963 L9.17307692,7.39662963 L3.48992308,17.1 C3.31823077,17.3913333 3.31546154,17.7544444 3.48023077,18.05 C3.64569231,18.3441481 3.95376923,18.5271111 4.28607692,18.5271111 L22.3525385,18.5271111 C22.6862308,18.5271111 22.9936154,18.3441481 23.1597692,18.05 C23.3245385,17.7544444 23.3203846,17.3913333 23.1507692,17.1 L17.4676154,7.39662963 L26.0383846,7.39662963 C26.2945385,7.39662963 26.5022308,7.18622222 26.5022308,6.92514815 C26.5022308,6.66407407 26.2945385,6.45366667 26.0383846,6.45366667 L26.0383846,6.45366667 Z M20.7193846,16.6397778 L13.7838462,16.6397778 L13.7838462,14.8214074 C13.7838462,14.5617407 13.5768462,14.3499259 13.32,14.3499259 C13.0631538,14.3499259 12.8561538,14.5617407 12.8561538,14.8214074 L12.8561538,16.6397778 L5.92130769,16.6397778 L11.2486154,7.5422963 L12.8561538,7.5422963 L12.8561538,7.82588889 C12.8561538,8.08555556 13.0631538,8.29737037 13.32,8.29737037 C13.5768462,8.29737037 13.7838462,8.08555556 13.7838462,7.82588889 L13.7838462,7.5422963 L15.3906923,7.5422963 L20.7193846,16.6397778 L20.7193846,16.6397778 Z M16.9130769,6.45366667 L16.9116923,6.45014815 L9.72761538,6.45014815 L9.72623077,6.45366667 L3.74123077,6.45366667 L3.744,6.45014815 L4.72292308,4.27851852 L6.42807692,4.27851852 C6.58107692,4.27851852 6.72992308,4.23981481 6.86492308,4.16662963 L8.69330769,3.173 L10.1575385,4.81825926 C10.3195385,5.00122222 10.5452308,5.11240741 10.7889231,5.12788889 C12.0842308,5.20881481 13.7381538,5.27637037 14.2476923,5.1307037 C14.4166154,5.08355556 14.8576154,4.9582963 18.8826923,2.0132963 L20.1918462,2.0132963 L20.8232308,4.04488889 C20.8557692,4.14903704 20.907,4.24966667 20.9748462,4.33762963 L22.3040769,6.08281481 C22.3227692,6.10744444 22.3428462,6.13207407 22.365,6.15459259 L22.6391538,6.45014815 L22.6433077,6.45366667 L16.9130769,6.45366667 L16.9130769,6.45366667 Z" id="Fill-2"></path>
            </g>
            <g id="Road-trips-3" transform="translate(356.000000, 8.000000)" fill="#373D43" sketch:type="MSShapeGroup">
                <path d="M13.32,9.79133333 C13.0631538,9.79133333 12.8561538,10.0024444 12.8561538,10.2628148 L12.8561538,12.1107407 C12.8561538,12.3711111 13.0631538,12.5822222 13.32,12.5822222 C13.5768462,12.5822222 13.7838462,12.3711111 13.7838462,12.1107407 L13.7838462,10.2628148 C13.7838462,10.0024444 13.5768462,9.79133333 13.32,9.79133333" id="Fill-1"></path>
                <path d="M26.0383846,6.45366667 L24.8462308,6.45366667 C24.8476154,6.21862963 24.7631538,5.98359259 24.5921538,5.79992593 L23.7440769,4.89144444 L22.5436154,3.31444444 L21.7578462,0.786037037 C21.636,0.392666667 21.2773846,0.125962963 20.8730769,0.125962963 L18.5829231,0.125962963 C18.3876923,0.125962963 18.1973077,0.187888889 18.0408462,0.303296296 C16.2623077,1.60796296 14.2179231,3.05055556 13.7284615,3.31162963 C13.392,3.34892593 12.2912308,3.32007407 11.2783846,3.26518519 L9.58430769,1.36166667 C9.29907692,1.04007407 8.83384615,0.957740741 8.45792308,1.16111111 L6.19407692,2.39118519 L4.12684615,2.39118519 C3.76407692,2.39118519 3.43453846,2.60581481 3.28292308,2.94077778 L1.87684615,6.05537037 C1.82007692,6.18485185 1.79307692,6.32066667 1.79446154,6.45366667 L0.733846154,6.45366667 C0.477692308,6.45366667 0.270692308,6.66407407 0.270692308,6.92514815 C0.270692308,7.18622222 0.477692308,7.39662963 0.733846154,7.39662963 L9.17307692,7.39662963 L3.48992308,17.1 C3.31823077,17.3913333 3.31546154,17.7544444 3.48023077,18.05 C3.64569231,18.3441481 3.95376923,18.5271111 4.28607692,18.5271111 L22.3525385,18.5271111 C22.6862308,18.5271111 22.9936154,18.3441481 23.1597692,18.05 C23.3245385,17.7544444 23.3203846,17.3913333 23.1507692,17.1 L17.4676154,7.39662963 L26.0383846,7.39662963 C26.2945385,7.39662963 26.5022308,7.18622222 26.5022308,6.92514815 C26.5022308,6.66407407 26.2945385,6.45366667 26.0383846,6.45366667 L26.0383846,6.45366667 Z M20.7193846,16.6397778 L13.7838462,16.6397778 L13.7838462,14.8214074 C13.7838462,14.5617407 13.5768462,14.3499259 13.32,14.3499259 C13.0631538,14.3499259 12.8561538,14.5617407 12.8561538,14.8214074 L12.8561538,16.6397778 L5.92130769,16.6397778 L11.2486154,7.5422963 L12.8561538,7.5422963 L12.8561538,7.82588889 C12.8561538,8.08555556 13.0631538,8.29737037 13.32,8.29737037 C13.5768462,8.29737037 13.7838462,8.08555556 13.7838462,7.82588889 L13.7838462,7.5422963 L15.3906923,7.5422963 L20.7193846,16.6397778 L20.7193846,16.6397778 Z M16.9130769,6.45366667 L16.9116923,6.45014815 L9.72761538,6.45014815 L9.72623077,6.45366667 L3.74123077,6.45366667 L3.744,6.45014815 L4.72292308,4.27851852 L6.42807692,4.27851852 C6.58107692,4.27851852 6.72992308,4.23981481 6.86492308,4.16662963 L8.69330769,3.173 L10.1575385,4.81825926 C10.3195385,5.00122222 10.5452308,5.11240741 10.7889231,5.12788889 C12.0842308,5.20881481 13.7381538,5.27637037 14.2476923,5.1307037 C14.4166154,5.08355556 14.8576154,4.9582963 18.8826923,2.0132963 L20.1918462,2.0132963 L20.8232308,4.04488889 C20.8557692,4.14903704 20.907,4.24966667 20.9748462,4.33762963 L22.3040769,6.08281481 C22.3227692,6.10744444 22.3428462,6.13207407 22.365,6.15459259 L22.6391538,6.45014815 L22.6433077,6.45366667 L16.9130769,6.45366667 L16.9130769,6.45366667 Z" id="Fill-2"></path>
            </g>
            <g id="Road-trips-4" transform="translate(356.000000, 87.000000)" fill="#FFFFFF" sketch:type="MSShapeGroup">
                <path d="M13.32,9.79133333 C13.0631538,9.79133333 12.8561538,10.0024444 12.8561538,10.2628148 L12.8561538,12.1107407 C12.8561538,12.3711111 13.0631538,12.5822222 13.32,12.5822222 C13.5768462,12.5822222 13.7838462,12.3711111 13.7838462,12.1107407 L13.7838462,10.2628148 C13.7838462,10.0024444 13.5768462,9.79133333 13.32,9.79133333" id="Fill-1"></path>
                <path d="M26.0383846,6.45366667 L24.8462308,6.45366667 C24.8476154,6.21862963 24.7631538,5.98359259 24.5921538,5.79992593 L23.7440769,4.89144444 L22.5436154,3.31444444 L21.7578462,0.786037037 C21.636,0.392666667 21.2773846,0.125962963 20.8730769,0.125962963 L18.5829231,0.125962963 C18.3876923,0.125962963 18.1973077,0.187888889 18.0408462,0.303296296 C16.2623077,1.60796296 14.2179231,3.05055556 13.7284615,3.31162963 C13.392,3.34892593 12.2912308,3.32007407 11.2783846,3.26518519 L9.58430769,1.36166667 C9.29907692,1.04007407 8.83384615,0.957740741 8.45792308,1.16111111 L6.19407692,2.39118519 L4.12684615,2.39118519 C3.76407692,2.39118519 3.43453846,2.60581481 3.28292308,2.94077778 L1.87684615,6.05537037 C1.82007692,6.18485185 1.79307692,6.32066667 1.79446154,6.45366667 L0.733846154,6.45366667 C0.477692308,6.45366667 0.270692308,6.66407407 0.270692308,6.92514815 C0.270692308,7.18622222 0.477692308,7.39662963 0.733846154,7.39662963 L9.17307692,7.39662963 L3.48992308,17.1 C3.31823077,17.3913333 3.31546154,17.7544444 3.48023077,18.05 C3.64569231,18.3441481 3.95376923,18.5271111 4.28607692,18.5271111 L22.3525385,18.5271111 C22.6862308,18.5271111 22.9936154,18.3441481 23.1597692,18.05 C23.3245385,17.7544444 23.3203846,17.3913333 23.1507692,17.1 L17.4676154,7.39662963 L26.0383846,7.39662963 C26.2945385,7.39662963 26.5022308,7.18622222 26.5022308,6.92514815 C26.5022308,6.66407407 26.2945385,6.45366667 26.0383846,6.45366667 L26.0383846,6.45366667 Z M20.7193846,16.6397778 L13.7838462,16.6397778 L13.7838462,14.8214074 C13.7838462,14.5617407 13.5768462,14.3499259 13.32,14.3499259 C13.0631538,14.3499259 12.8561538,14.5617407 12.8561538,14.8214074 L12.8561538,16.6397778 L5.92130769,16.6397778 L11.2486154,7.5422963 L12.8561538,7.5422963 L12.8561538,7.82588889 C12.8561538,8.08555556 13.0631538,8.29737037 13.32,8.29737037 C13.5768462,8.29737037 13.7838462,8.08555556 13.7838462,7.82588889 L13.7838462,7.5422963 L15.3906923,7.5422963 L20.7193846,16.6397778 L20.7193846,16.6397778 Z M16.9130769,6.45366667 L16.9116923,6.45014815 L9.72761538,6.45014815 L9.72623077,6.45366667 L3.74123077,6.45366667 L3.744,6.45014815 L4.72292308,4.27851852 L6.42807692,4.27851852 C6.58107692,4.27851852 6.72992308,4.23981481 6.86492308,4.16662963 L8.69330769,3.173 L10.1575385,4.81825926 C10.3195385,5.00122222 10.5452308,5.11240741 10.7889231,5.12788889 C12.0842308,5.20881481 13.7381538,5.27637037 14.2476923,5.1307037 C14.4166154,5.08355556 14.8576154,4.9582963 18.8826923,2.0132963 L20.1918462,2.0132963 L20.8232308,4.04488889 C20.8557692,4.14903704 20.907,4.24966667 20.9748462,4.33762963 L22.3040769,6.08281481 C22.3227692,6.10744444 22.3428462,6.13207407 22.365,6.15459259 L22.6391538,6.45014815 L22.6433077,6.45366667 L16.9130769,6.45366667 L16.9130769,6.45366667 Z" id="Fill-2"></path>
            </g>
        </g>
    </g>
</svg>