<svg width="32" height="232" viewBox="0 0 32 232" xmlns="http://www.w3.org/2000/svg" xmlns:sketch="http://www.bohemiancoding.com/sketch/ns"><title>road-trips</title><g sketch:type="MSPage" fill="none"><g sketch:type="MSLayerGroup" fill="#3B444F"><path d="M15.8 16.337c-.285 0-.515.244-.515.546v2.14c0 .301.23.546.515.546.285 0 .515-.244.515-.546v-2.14c0-.301-.23-.546-.515-.546" id="Fill-1" sketch:type="MSShapeGroup"/><path d="M29.932 12.473h-1.325c.002-.272-.092-.544-.282-.757l-.942-1.052-1.334-1.826-.873-2.928c-.135-.455-.534-.764-.983-.764h-2.545c-.217 0-.428.072-.602.205-1.976 1.511-4.248 3.181-4.792 3.483-.374.043-1.597.01-2.722-.054l-1.882-2.204c-.317-.372-.834-.468-1.252-.232l-2.515 1.424h-2.297c-.403 0-.769.249-.938.636l-1.562 3.606c-.063.15-.093.307-.092.461h-1.178c-.285 0-.515.244-.515.546 0 .302.23.546.515.546h9.377l-6.315 11.235c-.191.337-.194.758-.011 1.1.184.341.526.552.895.552h20.074c.371 0 .712-.212.897-.552.183-.342.178-.763-.01-1.1l-6.315-11.235h9.523c.285 0 .515-.244.515-.546 0-.302-.231-.546-.515-.546zm-5.91 11.794h-7.706v-2.105c0-.301-.23-.546-.515-.546-.285 0-.515.245-.515.546v2.105h-7.705l5.919-10.534h1.786v.328c0 .301.23.546.515.546.285 0 .515-.245.515-.546v-.328h1.785l5.921 10.534zm-4.229-11.794l-.002-.004h-7.982l-.002.004h-6.65l.003-.004 1.088-2.515h1.895c.17 0 .335-.045.485-.13l2.032-1.151 1.627 1.905c.18.212.431.341.702.359 1.439.094 3.277.172 3.843.003.188-.055.678-.2 5.15-3.61h1.455l.702 2.352c.036.121.093.237.168.339l1.477 2.021.068.083.305.342.005.004h-6.367z" id="Fill-2" sketch:type="MSShapeGroup"/></g><g sketch:type="MSLayerGroup" fill="#67747C"><path d="M15.8 56.337c-.285 0-.515.244-.515.546v2.14c0 .301.23.546.515.546.285 0 .515-.244.515-.546v-2.14c0-.301-.23-.546-.515-.546" id="Fill-1" sketch:type="MSShapeGroup"/><path d="M29.932 52.473h-1.325c.002-.272-.092-.544-.282-.757l-.942-1.052-1.334-1.826-.873-2.928c-.135-.455-.534-.764-.983-.764h-2.545c-.217 0-.428.072-.602.205-1.976 1.511-4.248 3.181-4.792 3.483-.374.043-1.597.01-2.722-.054l-1.882-2.204c-.317-.372-.834-.468-1.252-.232l-2.515 1.424h-2.297c-.403 0-.769.249-.938.636l-1.562 3.606c-.063.15-.093.307-.092.461h-1.178c-.285 0-.515.244-.515.546 0 .302.23.546.515.546h9.377l-6.315 11.235c-.191.337-.194.758-.011 1.1.184.341.526.552.895.552h20.074c.371 0 .712-.212.897-.552.183-.342.178-.763-.01-1.1l-6.315-11.235h9.523c.285 0 .515-.244.515-.546 0-.302-.231-.546-.515-.546zm-5.91 11.794h-7.706v-2.105c0-.301-.23-.546-.515-.546-.285 0-.515.245-.515.546v2.105h-7.705l5.919-10.534h1.786v.328c0 .301.23.546.515.546.285 0 .515-.245.515-.546v-.328h1.785l5.921 10.534zm-4.229-11.794l-.002-.004h-7.982l-.002.004h-6.65l.003-.004 1.088-2.515h1.895c.17 0 .335-.045.485-.13l2.032-1.151 1.627 1.905c.18.212.431.341.702.359 1.439.094 3.277.172 3.843.003.188-.055.678-.2 5.15-3.61h1.455l.702 2.352c.036.121.093.237.168.339l1.477 2.021.068.083.305.342.005.004h-6.367z" id="Fill-2" sketch:type="MSShapeGroup"/></g><g sketch:type="MSLayerGroup" fill="#fff"><path d="M15.8 96.337c-.285 0-.515.244-.515.546v2.14c0 .301.23.546.515.546.285 0 .515-.244.515-.546v-2.14c0-.301-.23-.546-.515-.546" id="Fill-1" sketch:type="MSShapeGroup"/><path d="M29.932 92.473h-1.325c.002-.272-.092-.544-.282-.757l-.942-1.052-1.334-1.826-.873-2.928c-.135-.455-.534-.764-.983-.764h-2.545c-.217 0-.428.072-.602.205-1.976 1.511-4.248 3.181-4.792 3.483-.374.043-1.597.01-2.722-.054l-1.882-2.204c-.317-.372-.834-.468-1.252-.232l-2.515 1.424h-2.297c-.403 0-.769.249-.938.636l-1.562 3.606c-.063.15-.093.307-.092.461h-1.178c-.285 0-.515.244-.515.546 0 .302.23.546.515.546h9.377l-6.315 11.235c-.191.337-.194.758-.011 1.1.184.341.526.552.895.552h20.074c.371 0 .712-.212.897-.552.183-.342.178-.763-.01-1.1l-6.315-11.235h9.523c.285 0 .515-.244.515-.546 0-.302-.231-.546-.515-.546zm-5.91 11.794h-7.706v-2.105c0-.301-.23-.546-.515-.546-.285 0-.515.245-.515.546v2.105h-7.705l5.919-10.534h1.786v.328c0 .301.23.546.515.546.285 0 .515-.245.515-.546v-.328h1.785l5.921 10.534zm-4.229-11.794l-.002-.004h-7.982l-.002.004h-6.65l.003-.004 1.088-2.515h1.895c.17 0 .335-.045.485-.13l2.032-1.151 1.627 1.905c.18.212.431.341.702.359 1.439.094 3.277.172 3.843.003.188-.055.678-.2 5.15-3.61h1.455l.702 2.352c.036.121.093.237.168.339l1.477 2.021.068.083.305.342.005.004h-6.367z" id="Fill-2" sketch:type="MSShapeGroup"/></g><g sketch:type="MSLayerGroup" fill="#206FAC"><path d="M15.8 136.337c-.285 0-.515.244-.515.546v2.14c0 .301.23.546.515.546.285 0 .515-.244.515-.546v-2.14c0-.301-.23-.546-.515-.546" sketch:type="MSShapeGroup"/><path d="M29.932 132.473h-1.325c.002-.272-.092-.544-.282-.757l-.942-1.052-1.334-1.826-.873-2.928c-.135-.455-.534-.764-.983-.764h-2.545c-.217 0-.428.072-.602.205-1.976 1.511-4.248 3.181-4.792 3.483-.374.043-1.597.01-2.722-.054l-1.882-2.204c-.317-.372-.834-.468-1.252-.232l-2.515 1.424h-2.297c-.403 0-.769.249-.938.636l-1.562 3.606c-.063.15-.093.307-.092.461h-1.178c-.285 0-.515.244-.515.546 0 .302.23.546.515.546h9.377l-6.315 11.235c-.191.337-.194.758-.011 1.1.184.341.526.552.895.552h20.074c.371 0 .712-.212.897-.552.183-.342.178-.763-.01-1.1l-6.315-11.235h9.523c.285 0 .515-.244.515-.546 0-.302-.231-.546-.515-.546zm-5.91 11.794h-7.706v-2.105c0-.301-.23-.546-.515-.546-.285 0-.515.245-.515.546v2.105h-7.705l5.919-10.534h1.786v.328c0 .301.23.546.515.546.285 0 .515-.245.515-.546v-.328h1.785l5.921 10.534zm-4.229-11.794l-.002-.004h-7.982l-.002.004h-6.65l.003-.004 1.088-2.515h1.895c.17 0 .335-.045.485-.13l2.032-1.151 1.627 1.905c.18.212.431.341.702.359 1.439.094 3.277.172 3.843.003.188-.055.678-.2 5.15-3.61h1.455l.702 2.352c.036.121.093.237.168.339l1.477 2.021.068.083.305.342.005.004h-6.367z" sketch:type="MSShapeGroup"/></g></g></svg>