<svg width="32" height="232" viewBox="0 0 32 232" xmlns="http://www.w3.org/2000/svg" xmlns:sketch="http://www.bohemiancoding.com/sketch/ns"><title>road-trips</title><g sketch:type="MSPage" fill="none"><g sketch:type="MSLayerGroup"><g fill="#206FAC" sketch:type="MSShapeGroup"><path d="M15.32 139.791c-.257 0-.464.211-.464.471v1.848c0 .26.207.471.464.471s.464-.211.464-.471v-1.848c0-.26-.207-.471-.464-.471" id="Fill-1"/><path d="M28.038 136.454h-1.192c.001-.235-.083-.47-.254-.654l-.848-.908-1.2-1.577-.786-2.528c-.122-.393-.48-.66-.885-.66h-2.29c-.195 0-.386.062-.542.177-1.779 1.305-3.823 2.747-4.312 3.008-.336.037-1.437.008-2.45-.046l-1.694-1.904c-.285-.322-.75-.404-1.126-.201l-2.264 1.23h-2.067c-.363 0-.692.215-.844.55l-1.406 3.115c-.057.129-.084.265-.082.398h-1.061c-.256 0-.463.21-.463.471s.207.471.463.471h8.439l-5.683 9.703c-.172.291-.174.654-.01.95.165.294.474.477.806.477h18.066c.334 0 .641-.183.807-.477.165-.296.161-.659-.009-.95l-5.683-9.703h8.571c.256 0 .464-.21.464-.471s-.208-.471-.464-.471zm-5.319 10.186h-6.936v-1.818c0-.26-.207-.471-.464-.471s-.464.212-.464.471v1.818h-6.935l5.327-9.097h1.608v.284c0 .26.207.471.464.471s.464-.212.464-.471v-.284h1.607l5.329 9.097zm-3.806-10.186l-.001-.004h-7.184l-.001.004h-5.985l.003-.004.979-2.172h1.705c.153 0 .302-.039.437-.112l1.828-.994 1.464 1.645c.162.183.388.294.631.31 1.295.081 2.949.148 3.459.003.169-.047.61-.172 4.635-3.117h1.309l.631 2.032c.033.104.084.205.152.293l1.329 1.745.061.072.274.296.004.004h-5.73z" id="Fill-2"/></g><g fill="#67737B" sketch:type="MSShapeGroup"><path d="M15.32 100.791c-.257 0-.464.211-.464.471v1.848c0 .26.207.471.464.471s.464-.211.464-.471v-1.848c0-.26-.207-.471-.464-.471" id="Fill-1"/><path d="M28.038 97.454h-1.192c.001-.235-.083-.47-.254-.654l-.848-.908-1.2-1.577-.786-2.528c-.122-.393-.48-.66-.885-.66h-2.29c-.195 0-.386.062-.542.177-1.779 1.305-3.823 2.747-4.312 3.008-.336.037-1.437.008-2.45-.046l-1.694-1.904c-.285-.322-.75-.404-1.126-.201l-2.264 1.23h-2.067c-.363 0-.692.215-.844.55l-1.406 3.115c-.057.129-.084.265-.082.398h-1.061c-.256 0-.463.21-.463.471s.207.471.463.471h8.439l-5.683 9.703c-.172.291-.174.654-.01.95.165.294.474.477.806.477h18.066c.334 0 .641-.183.807-.477.165-.296.161-.659-.009-.95l-5.683-9.703h8.571c.256 0 .464-.21.464-.471s-.208-.471-.464-.471zm-5.319 10.186h-6.936v-1.818c0-.26-.207-.471-.464-.471s-.464.212-.464.471v1.818h-6.935l5.327-9.097h1.608v.284c0 .26.207.471.464.471s.464-.212.464-.471v-.284h1.607l5.329 9.097zm-3.806-10.186l-.001-.004h-7.184l-.001.004h-5.985l.003-.004.979-2.172h1.705c.153 0 .302-.039.437-.112l1.828-.994 1.464 1.645c.162.183.388.294.631.31 1.295.081 2.949.148 3.459.003.169-.047.61-.172 4.635-3.117h1.309l.631 2.032c.033.104.084.205.152.293l1.329 1.745.061.072.274.296.004.004h-5.73z" id="Fill-2"/></g><g fill="#373D43" sketch:type="MSShapeGroup"><path d="M15.32 60.791c-.257 0-.464.211-.464.471v1.848c0 .26.207.471.464.471s.464-.211.464-.471v-1.848c0-.26-.207-.471-.464-.471" id="Fill-1"/><path d="M28.038 57.454h-1.192c.001-.235-.083-.47-.254-.654l-.848-.908-1.2-1.577-.786-2.528c-.122-.393-.48-.66-.885-.66h-2.29c-.195 0-.386.062-.542.177-1.779 1.305-3.823 2.747-4.312 3.008-.336.037-1.437.008-2.45-.046l-1.694-1.904c-.285-.322-.75-.404-1.126-.201l-2.264 1.23h-2.067c-.363 0-.692.215-.844.55l-1.406 3.115c-.057.129-.084.265-.082.398h-1.061c-.256 0-.463.21-.463.471s.207.471.463.471h8.439l-5.683 9.703c-.172.291-.174.654-.01.95.165.294.474.477.806.477h18.066c.334 0 .641-.183.807-.477.165-.296.161-.659-.009-.95l-5.683-9.703h8.571c.256 0 .464-.21.464-.471s-.208-.471-.464-.471zm-5.319 10.186h-6.936v-1.818c0-.26-.207-.471-.464-.471s-.464.212-.464.471v1.818h-6.935l5.327-9.097h1.608v.284c0 .26.207.471.464.471s.464-.212.464-.471v-.284h1.607l5.329 9.097zm-3.806-10.186l-.001-.004h-7.184l-.001.004h-5.985l.003-.004.979-2.172h1.705c.153 0 .302-.039.437-.112l1.828-.994 1.464 1.645c.162.183.388.294.631.31 1.295.081 2.949.148 3.459.003.169-.047.61-.172 4.635-3.117h1.309l.631 2.032c.033.104.084.205.152.293l1.329 1.745.061.072.274.296.004.004h-5.73z" id="Fill-2"/></g><g fill="#fff" sketch:type="MSShapeGroup"><path d="M15.32 16.791c-.257 0-.464.211-.464.471v1.848c0 .26.207.471.464.471s.464-.211.464-.471v-1.848c0-.26-.207-.471-.464-.471"/><path d="M28.038 13.454h-1.192c.001-.235-.083-.47-.254-.654l-.848-.908-1.2-1.577-.786-2.528c-.122-.393-.48-.66-.885-.66h-2.29c-.195 0-.386.062-.542.177-1.779 1.305-3.823 2.747-4.312 3.008-.336.037-1.437.008-2.45-.046l-1.694-1.904c-.285-.322-.75-.404-1.126-.201l-2.264 1.23h-2.067c-.363 0-.692.215-.844.55l-1.406 3.115c-.057.129-.084.265-.082.398h-1.061c-.256 0-.463.21-.463.471s.207.471.463.471h8.439l-5.683 9.703c-.172.291-.174.654-.01.95.165.294.474.477.806.477h18.066c.334 0 .641-.183.807-.477.165-.296.161-.659-.009-.95l-5.683-9.703h8.571c.256 0 .464-.21.464-.471s-.208-.471-.464-.471zm-5.319 10.186h-6.936v-1.818c0-.26-.207-.471-.464-.471s-.464.212-.464.471v1.818h-6.935l5.327-9.097h1.608v.284c0 .26.207.471.464.471s.464-.212.464-.471v-.284h1.607l5.329 9.097zm-3.806-10.186l-.001-.004h-7.184l-.001.004h-5.985l.003-.004.979-2.172h1.705c.153 0 .302-.039.437-.112l1.828-.994 1.464 1.645c.162.183.388.294.631.31 1.295.081 2.949.148 3.459.003.169-.047.61-.172 4.635-3.117h1.309l.631 2.032c.033.104.084.205.152.293l1.329 1.745.061.072.274.296.004.004h-5.73z"/></g></g></g></svg>