<?xml version="1.0" encoding="UTF-8" standalone="no"?>
<svg width="32px" height="232px" viewBox="0 0 32 232" version="1.1" xmlns="http://www.w3.org/2000/svg" xmlns:xlink="http://www.w3.org/1999/xlink" xmlns:sketch="http://www.bohemiancoding.com/sketch/ns">
    <!-- Generator: Sketch 3.0.1 (7597) - http://www.bohemiancoding.com/sketch -->
    <title>road-trips</title>
    <description>Created with Sketch.</description>
    <defs></defs>
    <g id="Points-of-interest" stroke="none" stroke-width="1" fill="none" fill-rule="evenodd" sketch:type="MSPage">
        <g id="Road-trips-3" sketch:type="MSLayerGroup" transform="translate(1.000000, 5.000000)" fill="#3B444F">
            <path d="M14.8,11.3373333 C14.5146154,11.3373333 14.2846154,11.5817778 14.2846154,11.8832593 L14.2846154,14.022963 C14.2846154,14.3244444 14.5146154,14.5688889 14.8,14.5688889 C15.0853846,14.5688889 15.3153846,14.3244444 15.3153846,14.022963 L15.3153846,11.8832593 C15.3153846,11.5817778 15.0853846,11.3373333 14.8,11.3373333" id="Fill-1" sketch:type="MSShapeGroup"></path>
            <path d="M28.9315385,7.47266667 L27.6069231,7.47266667 C27.6084615,7.20051852 27.5146154,6.92837037 27.3246154,6.7157037 L26.3823077,5.66377778 L25.0484615,3.83777778 L24.1753846,0.910148148 C24.04,0.454666667 23.6415385,0.145851852 23.1923077,0.145851852 L20.6476923,0.145851852 C20.4307692,0.145851852 20.2192308,0.217555556 20.0453846,0.351185185 C18.0692308,1.86185185 15.7976923,3.53222222 15.2538462,3.83451852 C14.88,3.8777037 13.6569231,3.8442963 12.5315385,3.78074074 L10.6492308,1.57666667 C10.3323077,1.2042963 9.81538462,1.10896296 9.39769231,1.34444444 L6.88230769,2.76874074 L4.58538462,2.76874074 C4.18230769,2.76874074 3.81615385,3.01725926 3.64769231,3.40511111 L2.08538462,7.01148148 C2.02230769,7.16140741 1.99230769,7.31866667 1.99384615,7.47266667 L0.815384615,7.47266667 C0.530769231,7.47266667 0.300769231,7.7162963 0.300769231,8.01859259 C0.300769231,8.32088889 0.530769231,8.56451852 0.815384615,8.56451852 L10.1923077,8.56451852 L3.87769231,19.8 C3.68692308,20.1373333 3.68384615,20.5577778 3.86692308,20.9 C4.05076923,21.2405926 4.39307692,21.4524444 4.76230769,21.4524444 L24.8361538,21.4524444 C25.2069231,21.4524444 25.5484615,21.2405926 25.7330769,20.9 C25.9161538,20.5577778 25.9115385,20.1373333 25.7230769,19.8 L19.4084615,8.56451852 L28.9315385,8.56451852 C29.2161538,8.56451852 29.4469231,8.32088889 29.4469231,8.01859259 C29.4469231,7.7162963 29.2161538,7.47266667 28.9315385,7.47266667 L28.9315385,7.47266667 Z M23.0215385,19.2671111 L15.3153846,19.2671111 L15.3153846,17.1616296 C15.3153846,16.860963 15.0853846,16.6157037 14.8,16.6157037 C14.5146154,16.6157037 14.2846154,16.860963 14.2846154,17.1616296 L14.2846154,19.2671111 L6.57923077,19.2671111 L12.4984615,8.73318519 L14.2846154,8.73318519 L14.2846154,9.06155556 C14.2846154,9.36222222 14.5146154,9.60748148 14.8,9.60748148 C15.0853846,9.60748148 15.3153846,9.36222222 15.3153846,9.06155556 L15.3153846,8.73318519 L17.1007692,8.73318519 L23.0215385,19.2671111 L23.0215385,19.2671111 Z M18.7923077,7.47266667 L18.7907692,7.46859259 L10.8084615,7.46859259 L10.8069231,7.47266667 L4.15692308,7.47266667 L4.16,7.46859259 L5.24769231,4.95407407 L7.14230769,4.95407407 C7.31230769,4.95407407 7.47769231,4.90925926 7.62769231,4.82451852 L9.65923077,3.674 L11.2861538,5.57903704 C11.4661538,5.79088889 11.7169231,5.91962963 11.9876923,5.93755556 C13.4269231,6.03125926 15.2646154,6.10948148 15.8307692,5.94081481 C16.0184615,5.88622222 16.5084615,5.74118519 20.9807692,2.33118519 L22.4353846,2.33118519 L23.1369231,4.68355556 C23.1730769,4.80414815 23.23,4.92066667 23.3053846,5.02251852 L24.7823077,7.04325926 C24.8030769,7.07177778 24.8253846,7.1002963 24.85,7.12637037 L25.1546154,7.46859259 L25.1592308,7.47266667 L18.7923077,7.47266667 L18.7923077,7.47266667 Z" id="Fill-2" sketch:type="MSShapeGroup"></path>
        </g>
        <g id="Road-trips-4" sketch:type="MSLayerGroup" transform="translate(1.000000, 45.000000)" fill="#67747C">
            <path d="M14.8,11.3373333 C14.5146154,11.3373333 14.2846154,11.5817778 14.2846154,11.8832593 L14.2846154,14.022963 C14.2846154,14.3244444 14.5146154,14.5688889 14.8,14.5688889 C15.0853846,14.5688889 15.3153846,14.3244444 15.3153846,14.022963 L15.3153846,11.8832593 C15.3153846,11.5817778 15.0853846,11.3373333 14.8,11.3373333" id="Fill-1" sketch:type="MSShapeGroup"></path>
            <path d="M28.9315385,7.47266667 L27.6069231,7.47266667 C27.6084615,7.20051852 27.5146154,6.92837037 27.3246154,6.7157037 L26.3823077,5.66377778 L25.0484615,3.83777778 L24.1753846,0.910148148 C24.04,0.454666667 23.6415385,0.145851852 23.1923077,0.145851852 L20.6476923,0.145851852 C20.4307692,0.145851852 20.2192308,0.217555556 20.0453846,0.351185185 C18.0692308,1.86185185 15.7976923,3.53222222 15.2538462,3.83451852 C14.88,3.8777037 13.6569231,3.8442963 12.5315385,3.78074074 L10.6492308,1.57666667 C10.3323077,1.2042963 9.81538462,1.10896296 9.39769231,1.34444444 L6.88230769,2.76874074 L4.58538462,2.76874074 C4.18230769,2.76874074 3.81615385,3.01725926 3.64769231,3.40511111 L2.08538462,7.01148148 C2.02230769,7.16140741 1.99230769,7.31866667 1.99384615,7.47266667 L0.815384615,7.47266667 C0.530769231,7.47266667 0.300769231,7.7162963 0.300769231,8.01859259 C0.300769231,8.32088889 0.530769231,8.56451852 0.815384615,8.56451852 L10.1923077,8.56451852 L3.87769231,19.8 C3.68692308,20.1373333 3.68384615,20.5577778 3.86692308,20.9 C4.05076923,21.2405926 4.39307692,21.4524444 4.76230769,21.4524444 L24.8361538,21.4524444 C25.2069231,21.4524444 25.5484615,21.2405926 25.7330769,20.9 C25.9161538,20.5577778 25.9115385,20.1373333 25.7230769,19.8 L19.4084615,8.56451852 L28.9315385,8.56451852 C29.2161538,8.56451852 29.4469231,8.32088889 29.4469231,8.01859259 C29.4469231,7.7162963 29.2161538,7.47266667 28.9315385,7.47266667 L28.9315385,7.47266667 Z M23.0215385,19.2671111 L15.3153846,19.2671111 L15.3153846,17.1616296 C15.3153846,16.860963 15.0853846,16.6157037 14.8,16.6157037 C14.5146154,16.6157037 14.2846154,16.860963 14.2846154,17.1616296 L14.2846154,19.2671111 L6.57923077,19.2671111 L12.4984615,8.73318519 L14.2846154,8.73318519 L14.2846154,9.06155556 C14.2846154,9.36222222 14.5146154,9.60748148 14.8,9.60748148 C15.0853846,9.60748148 15.3153846,9.36222222 15.3153846,9.06155556 L15.3153846,8.73318519 L17.1007692,8.73318519 L23.0215385,19.2671111 L23.0215385,19.2671111 Z M18.7923077,7.47266667 L18.7907692,7.46859259 L10.8084615,7.46859259 L10.8069231,7.47266667 L4.15692308,7.47266667 L4.16,7.46859259 L5.24769231,4.95407407 L7.14230769,4.95407407 C7.31230769,4.95407407 7.47769231,4.90925926 7.62769231,4.82451852 L9.65923077,3.674 L11.2861538,5.57903704 C11.4661538,5.79088889 11.7169231,5.91962963 11.9876923,5.93755556 C13.4269231,6.03125926 15.2646154,6.10948148 15.8307692,5.94081481 C16.0184615,5.88622222 16.5084615,5.74118519 20.9807692,2.33118519 L22.4353846,2.33118519 L23.1369231,4.68355556 C23.1730769,4.80414815 23.23,4.92066667 23.3053846,5.02251852 L24.7823077,7.04325926 C24.8030769,7.07177778 24.8253846,7.1002963 24.85,7.12637037 L25.1546154,7.46859259 L25.1592308,7.47266667 L18.7923077,7.47266667 L18.7923077,7.47266667 Z" id="Fill-2" sketch:type="MSShapeGroup"></path>
        </g>
        <g id="Road-trips-5" sketch:type="MSLayerGroup" transform="translate(1.000000, 85.000000)" fill="#FFFFFF">
            <path d="M14.8,11.3373333 C14.5146154,11.3373333 14.2846154,11.5817778 14.2846154,11.8832593 L14.2846154,14.022963 C14.2846154,14.3244444 14.5146154,14.5688889 14.8,14.5688889 C15.0853846,14.5688889 15.3153846,14.3244444 15.3153846,14.022963 L15.3153846,11.8832593 C15.3153846,11.5817778 15.0853846,11.3373333 14.8,11.3373333" id="Fill-1" sketch:type="MSShapeGroup"></path>
            <path d="M28.9315385,7.47266667 L27.6069231,7.47266667 C27.6084615,7.20051852 27.5146154,6.92837037 27.3246154,6.7157037 L26.3823077,5.66377778 L25.0484615,3.83777778 L24.1753846,0.910148148 C24.04,0.454666667 23.6415385,0.145851852 23.1923077,0.145851852 L20.6476923,0.145851852 C20.4307692,0.145851852 20.2192308,0.217555556 20.0453846,0.351185185 C18.0692308,1.86185185 15.7976923,3.53222222 15.2538462,3.83451852 C14.88,3.8777037 13.6569231,3.8442963 12.5315385,3.78074074 L10.6492308,1.57666667 C10.3323077,1.2042963 9.81538462,1.10896296 9.39769231,1.34444444 L6.88230769,2.76874074 L4.58538462,2.76874074 C4.18230769,2.76874074 3.81615385,3.01725926 3.64769231,3.40511111 L2.08538462,7.01148148 C2.02230769,7.16140741 1.99230769,7.31866667 1.99384615,7.47266667 L0.815384615,7.47266667 C0.530769231,7.47266667 0.300769231,7.7162963 0.300769231,8.01859259 C0.300769231,8.32088889 0.530769231,8.56451852 0.815384615,8.56451852 L10.1923077,8.56451852 L3.87769231,19.8 C3.68692308,20.1373333 3.68384615,20.5577778 3.86692308,20.9 C4.05076923,21.2405926 4.39307692,21.4524444 4.76230769,21.4524444 L24.8361538,21.4524444 C25.2069231,21.4524444 25.5484615,21.2405926 25.7330769,20.9 C25.9161538,20.5577778 25.9115385,20.1373333 25.7230769,19.8 L19.4084615,8.56451852 L28.9315385,8.56451852 C29.2161538,8.56451852 29.4469231,8.32088889 29.4469231,8.01859259 C29.4469231,7.7162963 29.2161538,7.47266667 28.9315385,7.47266667 L28.9315385,7.47266667 Z M23.0215385,19.2671111 L15.3153846,19.2671111 L15.3153846,17.1616296 C15.3153846,16.860963 15.0853846,16.6157037 14.8,16.6157037 C14.5146154,16.6157037 14.2846154,16.860963 14.2846154,17.1616296 L14.2846154,19.2671111 L6.57923077,19.2671111 L12.4984615,8.73318519 L14.2846154,8.73318519 L14.2846154,9.06155556 C14.2846154,9.36222222 14.5146154,9.60748148 14.8,9.60748148 C15.0853846,9.60748148 15.3153846,9.36222222 15.3153846,9.06155556 L15.3153846,8.73318519 L17.1007692,8.73318519 L23.0215385,19.2671111 L23.0215385,19.2671111 Z M18.7923077,7.47266667 L18.7907692,7.46859259 L10.8084615,7.46859259 L10.8069231,7.47266667 L4.15692308,7.47266667 L4.16,7.46859259 L5.24769231,4.95407407 L7.14230769,4.95407407 C7.31230769,4.95407407 7.47769231,4.90925926 7.62769231,4.82451852 L9.65923077,3.674 L11.2861538,5.57903704 C11.4661538,5.79088889 11.7169231,5.91962963 11.9876923,5.93755556 C13.4269231,6.03125926 15.2646154,6.10948148 15.8307692,5.94081481 C16.0184615,5.88622222 16.5084615,5.74118519 20.9807692,2.33118519 L22.4353846,2.33118519 L23.1369231,4.68355556 C23.1730769,4.80414815 23.23,4.92066667 23.3053846,5.02251852 L24.7823077,7.04325926 C24.8030769,7.07177778 24.8253846,7.1002963 24.85,7.12637037 L25.1546154,7.46859259 L25.1592308,7.47266667 L18.7923077,7.47266667 L18.7923077,7.47266667 Z" id="Fill-2" sketch:type="MSShapeGroup"></path>
        </g>
        <g id="Road-trips-6" sketch:type="MSLayerGroup" transform="translate(1.000000, 125.000000)" fill="#206FAC">
            <path d="M14.8,11.3373333 C14.5146154,11.3373333 14.2846154,11.5817778 14.2846154,11.8832593 L14.2846154,14.022963 C14.2846154,14.3244444 14.5146154,14.5688889 14.8,14.5688889 C15.0853846,14.5688889 15.3153846,14.3244444 15.3153846,14.022963 L15.3153846,11.8832593 C15.3153846,11.5817778 15.0853846,11.3373333 14.8,11.3373333" id="Fill-1" sketch:type="MSShapeGroup"></path>
            <path d="M28.9315385,7.47266667 L27.6069231,7.47266667 C27.6084615,7.20051852 27.5146154,6.92837037 27.3246154,6.7157037 L26.3823077,5.66377778 L25.0484615,3.83777778 L24.1753846,0.910148148 C24.04,0.454666667 23.6415385,0.145851852 23.1923077,0.145851852 L20.6476923,0.145851852 C20.4307692,0.145851852 20.2192308,0.217555556 20.0453846,0.351185185 C18.0692308,1.86185185 15.7976923,3.53222222 15.2538462,3.83451852 C14.88,3.8777037 13.6569231,3.8442963 12.5315385,3.78074074 L10.6492308,1.57666667 C10.3323077,1.2042963 9.81538462,1.10896296 9.39769231,1.34444444 L6.88230769,2.76874074 L4.58538462,2.76874074 C4.18230769,2.76874074 3.81615385,3.01725926 3.64769231,3.40511111 L2.08538462,7.01148148 C2.02230769,7.16140741 1.99230769,7.31866667 1.99384615,7.47266667 L0.815384615,7.47266667 C0.530769231,7.47266667 0.300769231,7.7162963 0.300769231,8.01859259 C0.300769231,8.32088889 0.530769231,8.56451852 0.815384615,8.56451852 L10.1923077,8.56451852 L3.87769231,19.8 C3.68692308,20.1373333 3.68384615,20.5577778 3.86692308,20.9 C4.05076923,21.2405926 4.39307692,21.4524444 4.76230769,21.4524444 L24.8361538,21.4524444 C25.2069231,21.4524444 25.5484615,21.2405926 25.7330769,20.9 C25.9161538,20.5577778 25.9115385,20.1373333 25.7230769,19.8 L19.4084615,8.56451852 L28.9315385,8.56451852 C29.2161538,8.56451852 29.4469231,8.32088889 29.4469231,8.01859259 C29.4469231,7.7162963 29.2161538,7.47266667 28.9315385,7.47266667 L28.9315385,7.47266667 Z M23.0215385,19.2671111 L15.3153846,19.2671111 L15.3153846,17.1616296 C15.3153846,16.860963 15.0853846,16.6157037 14.8,16.6157037 C14.5146154,16.6157037 14.2846154,16.860963 14.2846154,17.1616296 L14.2846154,19.2671111 L6.57923077,19.2671111 L12.4984615,8.73318519 L14.2846154,8.73318519 L14.2846154,9.06155556 C14.2846154,9.36222222 14.5146154,9.60748148 14.8,9.60748148 C15.0853846,9.60748148 15.3153846,9.36222222 15.3153846,9.06155556 L15.3153846,8.73318519 L17.1007692,8.73318519 L23.0215385,19.2671111 L23.0215385,19.2671111 Z M18.7923077,7.47266667 L18.7907692,7.46859259 L10.8084615,7.46859259 L10.8069231,7.47266667 L4.15692308,7.47266667 L4.16,7.46859259 L5.24769231,4.95407407 L7.14230769,4.95407407 C7.31230769,4.95407407 7.47769231,4.90925926 7.62769231,4.82451852 L9.65923077,3.674 L11.2861538,5.57903704 C11.4661538,5.79088889 11.7169231,5.91962963 11.9876923,5.93755556 C13.4269231,6.03125926 15.2646154,6.10948148 15.8307692,5.94081481 C16.0184615,5.88622222 16.5084615,5.74118519 20.9807692,2.33118519 L22.4353846,2.33118519 L23.1369231,4.68355556 C23.1730769,4.80414815 23.23,4.92066667 23.3053846,5.02251852 L24.7823077,7.04325926 C24.8030769,7.07177778 24.8253846,7.1002963 24.85,7.12637037 L25.1546154,7.46859259 L25.1592308,7.47266667 L18.7923077,7.47266667 L18.7923077,7.47266667 Z" id="Fill-2" sketch:type="MSShapeGroup"></path>
        </g>
    </g>
</svg>