<?xml version="1.0" encoding="UTF-8" standalone="no"?>
<svg width="32px" height="232px" viewBox="0 0 32 232" version="1.1" xmlns="http://www.w3.org/2000/svg" xmlns:xlink="http://www.w3.org/1999/xlink" xmlns:sketch="http://www.bohemiancoding.com/sketch/ns">
    <!-- Generator: Sketch 3.0.1 (7597) - http://www.bohemiancoding.com/sketch -->
    <title>round-the-world</title>
    <description>Created with Sketch.</description>
    <defs></defs>
    <g id="Points-of-interest" stroke="none" stroke-width="1" fill="none" fill-rule="evenodd" sketch:type="MSPage">
        <g id="Big-trips-3" sketch:type="MSLayerGroup" transform="translate(3.000000, 2.000000)" fill="#3B444F">
            <path d="M12.0334118,5.276 C11.6441765,5.2312 11.2511176,5.2072 10.8618824,5.2072 C5.48982353,5.2072 0.993352941,9.4264 0.401470588,15.02 C-0.238588235,21.0608 3.93976471,26.5184 9.71405882,27.1888 C10.1025294,27.2328 10.4963529,27.256 10.8855882,27.256 C16.2561176,27.256 20.7541176,23.0384 21.3467647,17.4448 C21.9852941,11.404 17.8077059,5.9448 12.0334118,5.276 L12.0334118,5.276 Z M14.5018824,8.5528 L14.287,8.7328 C14.2258235,8.7824 14.1776471,8.8464 14.1455294,8.92 L13.6102353,8.2216 L14.5018824,8.5528 L14.5018824,8.5528 Z M10.9268824,11.848 L11.0484706,12.0072 L11.0446471,12.0464 L10.0711765,11.9344 C9.93735294,11.9184 9.80123529,11.9592 9.69494118,12.048 L9.09464706,12.5512 C8.98835294,12.64 8.92105882,12.768 8.90576471,12.9104 L8.85147059,13.4344 L8.19152941,13.984 C8.14488235,14.0248 8.10282353,14.0744 8.07223529,14.1296 C7.99652941,14.064 7.90323529,14.0216 7.80305882,14.0104 L6.87623529,13.9024 C6.74088235,13.8872 6.60476471,13.9296 6.5,14.0168 L5.59,14.7792 C5.54029412,14.8216 5.49823529,14.8712 5.46764706,14.9264 L4.05064706,13.0728 L4.12176471,12.4024 L4.56452941,12.0312 C4.78552941,11.8464 4.82147059,11.5072 4.64482353,11.276 L4.33511765,10.8728 L5.19082353,9.8672 L6.63688235,8.7464 L8.48517647,7.9072 C8.45,7.9984 8.437,8.0984 8.45229412,8.1968 L7.31976471,9.1448 C7.21347059,9.2344 7.14464706,9.364 7.13011765,9.5056 C7.11482353,9.6464 7.15458824,9.7872 7.23870588,9.9 L7.74111765,10.556 C7.82676471,10.6664 7.95064706,10.7384 8.086,10.7544 L8.723,10.828 L9.07017647,11.2808 C9.20017647,11.4496 9.41429412,11.5216 9.61388235,11.4608 C9.81347059,11.4 9.95723529,11.22 9.98017647,11.004 L10.0054118,10.776 L10.1162941,10.6824 C10.2225882,10.5936 10.2906471,10.464 10.3051765,10.3216 L10.348,9.9168 L10.3571765,9.9184 L10.5651765,10.1904 C10.6492941,10.3016 10.7739412,10.3712 10.9085294,10.3888 L11.1471176,10.4152 L11.5967647,11.004 L11.3826471,10.9792 C11.1777059,10.956 10.9781176,11.064 10.8779412,11.2544 C10.777,11.4432 10.7984118,11.6776 10.9268824,11.848 L10.9268824,11.848 Z M9.05564706,9.064 L9.32405882,9.0952 C9.36,9.1 9.39670588,9.1 9.43035294,9.0968 C9.40741176,9.148 9.39211765,9.204 9.38523529,9.2648 L9.31717647,9.9056 C9.24147059,9.8384 9.14741176,9.7968 9.04647059,9.7856 L8.41023529,9.712 L8.35976471,9.648 L9.05564706,9.064 L9.05564706,9.064 Z M2.44017647,15.2544 C2.53270588,14.3888 2.74070588,13.564 3.04811765,12.7952 L3.00758824,13.176 C2.99305882,13.3168 3.03205882,13.4592 3.11694118,13.5712 L4.57294118,15.4728 L4.52705882,15.9056 C4.51176471,16.0464 4.55229412,16.1888 4.63717647,16.3 C4.72052941,16.412 4.84517647,16.4824 4.98052941,16.4984 L5.382,16.5448 L5.81252941,17.1072 C5.86988235,17.184 5.94711765,17.2416 6.03505882,17.2744 L6.75847059,17.556 C6.73094118,17.7056 6.76152941,17.868 6.86094118,17.9968 L7.60805882,18.9712 L7.57670588,19.2648 L7.08347059,19.6776 C6.97870588,19.7664 6.91064706,19.8968 6.89458824,20.0368 L6.79441176,20.9808 C6.77988235,21.1216 6.81964706,21.264 6.90452941,21.3744 L7.99652941,22.8024 L7.89941176,23.728 C7.89635294,23.7592 7.89482353,23.7904 7.89711765,23.8216 L7.94223529,24.5624 C4.36723529,23.184 2.00276471,19.3904 2.44017647,15.2544 L2.44017647,15.2544 Z M10.8664706,24.1528 L9.59170588,24.004 C9.45635294,23.9888 9.321,24.0296 9.21470588,24.1184 L8.95623529,24.3352 L8.92335294,23.8 L9.04035294,22.7 C9.05411765,22.5592 9.01588235,22.4168 8.93023529,22.3056 L7.83823529,20.8776 L7.89023529,20.376 L8.38194118,19.964 C8.489,19.8744 8.55705882,19.7464 8.57235294,19.604 L8.59376471,19.4016 L9.66894118,19.5264 L10.3311765,20.392 C10.4160588,20.5024 10.5391765,20.5728 10.6752941,20.5904 L11.0767647,20.6352 L11.388,21.0432 C11.4728824,21.1544 11.5967647,21.2264 11.7321176,21.2416 L12.7881765,21.364 L13.1055294,21.7776 L12.8807059,21.964 L12.4731176,21.9168 C12.3377647,21.9016 12.2024118,21.9432 12.0961176,22.0328 C11.9890588,22.1216 11.9217647,22.2496 11.9072353,22.392 L11.804,23.3664 L10.8664706,24.1528 L10.8664706,24.1528 Z M11.3834118,25.0936 L12.61,24.0648 C12.7162941,23.976 12.7843529,23.8464 12.7996471,23.7056 L12.8707647,23.0432 L12.9793529,23.056 C13.1147059,23.0712 13.2500588,23.0296 13.3563529,22.9416 L14.1462941,22.2792 C14.2525882,22.1904 14.3206471,22.0608 14.3359412,21.92 C14.3504706,21.7776 14.3107059,21.6368 14.2258235,21.5264 L13.4565294,20.52 C13.3724118,20.4088 13.2485294,20.3368 13.1124118,20.3216 L12.0563529,20.2 L11.7443529,19.792 C11.6594706,19.6808 11.5355882,19.6104 11.401,19.5936 L10.998,19.548 L10.3365294,18.6824 C10.2516471,18.5712 10.1277647,18.5 9.99317647,18.484 L8.40870588,18.3016 L7.982,17.7448 L8.16017647,17.5952 C8.32458824,17.4608 8.39111765,17.2352 8.33376471,17.0264 C8.27564706,16.8184 8.10358824,16.6664 7.89711765,16.6432 L7.57517647,16.6056 L7.64247059,15.9696 C7.657,15.828 7.618,15.6872 7.53311765,15.576 C7.44823529,15.464 7.32435294,15.3936 7.189,15.3776 L6.65829412,15.3168 L6.63152941,15.2808 L6.97411765,14.9936 L7.47958824,15.0528 L8.00647059,15.74 C8.13647059,15.9104 8.34982353,15.9808 8.54941176,15.9216 C8.74976471,15.8608 8.89276471,15.6808 8.91647059,15.464 L8.99905882,14.6824 L9.65747059,14.1328 C9.763,14.0432 9.83258824,13.9136 9.84711765,13.7712 L9.90217647,13.2496 L10.1698235,13.0248 L11.4415294,13.1712 C11.7221765,13.204 11.9768235,12.9936 12.0081765,12.6984 L12.0364706,12.4264 C12.1626471,12.5232 12.3278235,12.556 12.4822941,12.5088 C12.6826471,12.448 12.8264118,12.268 12.8493529,12.0528 L12.9311765,11.2808 C12.9457059,11.14 12.9067059,10.9984 12.8210588,10.8872 L11.8154706,9.5712 C11.7290588,9.4608 11.6059412,9.3888 11.4705882,9.3728 L11.2335294,9.3448 L11.0255294,9.0744 C10.9398824,8.964 10.8175294,8.892 10.6806471,8.876 L9.95111765,8.792 C9.94270588,8.7904 9.93735294,8.7904 9.93047059,8.7888 L10.1193529,8.6312 C10.2814706,8.4952 10.3495294,8.2712 10.2906471,8.0624 C10.2638824,7.9624 10.2088235,7.8744 10.1369412,7.8088 C10.2424706,7.6936 10.2921765,7.5352 10.2761176,7.3776 C10.4695882,7.364 10.6645882,7.3544 10.8618824,7.3544 C11.1287647,7.3544 11.4002353,7.368 11.6671176,7.3952 C11.6732353,7.404 11.6785882,7.4136 11.6854706,7.4216 L13.5222941,9.8232 C13.6071765,9.9336 13.7318235,10.0056 13.8671765,10.0216 L14.5072353,10.0952 C14.5271176,10.0984 14.5454706,10.1 14.5645882,10.1 C14.8215294,10.1 15.0448235,9.8968 15.0731176,9.6216 L15.0937647,9.4312 L15.6940588,8.928 C16.6698235,9.6352 17.4911176,10.5512 18.1074706,11.6024 L17.9491765,11.584 C17.7434706,11.5608 17.5431176,11.6696 17.4421765,11.8592 C17.3427647,12.0496 17.3626471,12.2824 17.4926471,12.4528 L17.5308824,12.504 C17.5148235,12.5152 17.498,12.5264 17.4834706,12.54 L17.1745294,12.7984 C16.9527647,12.984 16.9175882,13.3216 17.0942353,13.5528 L17.5652941,14.1672 C17.5025882,14.1872 17.4452353,14.2184 17.3947647,14.2624 L16.2943529,15.1824 C16.1872941,15.2712 16.12,15.4016 16.1054706,15.5432 L15.9586471,16.9328 C15.9425882,17.0744 15.9823529,17.2168 16.0672353,17.328 L17.1125882,18.6952 C17.199,18.8056 17.3221176,18.876 17.4582353,18.892 L18.668,19.0328 L18.8484706,19.2696 C17.7136471,22.5512 14.8054706,24.8856 11.3834118,25.0936 L11.3834118,25.0936 Z M18.9333529,17.984 L17.7809412,17.8512 L17.0009412,16.8312 L17.1003529,15.8824 L17.8696471,15.2368 L19.2147647,15.3936 L18.9333529,17.984 L18.9333529,17.984 Z" id="Fill-1" sketch:type="MSShapeGroup"></path>
            <path d="M25.9074706,0.6528 C25.8218235,0.4664 25.6428824,0.3496 25.4463529,0.3496 L23.9131176,0.3496 C23.7708824,0.3496 23.6362941,0.412 23.5384118,0.52 L22.7798235,1.3696 L13.2255882,1.3696 C12.1167647,1.3696 11.31,2.0152 11.31,2.9056 C11.31,3.792 12.1129412,4.4384 13.221,4.4416 L16.3165294,4.4416 L19.7852353,8.2368 C19.8838824,8.3448 20.0177059,8.4024 20.1553529,8.4024 C20.2195882,8.4024 20.2845882,8.3904 20.3457647,8.364 C20.5407647,8.2824 20.6684706,8.0856 20.6684706,7.8672 L20.6684706,6.4024 C20.6684706,6.3016 20.6409412,6.2024 20.5912353,6.1184 L19.5871765,4.4416 L23.1652353,4.4416 C23.322,4.4416 23.4695882,4.3664 23.5674706,4.2384 L25.8485882,1.2184 C25.9694118,1.0576 25.9938824,0.8368 25.9074706,0.6528 L25.9074706,0.6528 Z M17.7358235,4.4416 L18.3781765,4.4416 L19.5940588,6.4744 L17.7358235,4.4416 L17.7358235,4.4416 Z M18.681,3.368 L13.2240588,3.368 C12.7254706,3.3672 12.3362353,3.164 12.3362353,2.9056 C12.3362353,2.6464 12.7277647,2.4416 13.2255882,2.4416 L23.0023529,2.4416 C23.1430588,2.4416 23.2791765,2.3808 23.3755294,2.2728 L24.1364118,1.4232 L24.3864706,1.4232 L22.9167059,3.368 L18.681,3.368 L18.681,3.368 Z" id="Fill-2" sketch:type="MSShapeGroup"></path>
        </g>
        <g id="Big-trips-4" sketch:type="MSLayerGroup" transform="translate(3.000000, 42.000000)" fill="#67747C">
            <path d="M12.0334118,5.276 C11.6441765,5.2312 11.2511176,5.2072 10.8618824,5.2072 C5.48982353,5.2072 0.993352941,9.4264 0.401470588,15.02 C-0.238588235,21.0608 3.93976471,26.5184 9.71405882,27.1888 C10.1025294,27.2328 10.4963529,27.256 10.8855882,27.256 C16.2561176,27.256 20.7541176,23.0384 21.3467647,17.4448 C21.9852941,11.404 17.8077059,5.9448 12.0334118,5.276 L12.0334118,5.276 Z M14.5018824,8.5528 L14.287,8.7328 C14.2258235,8.7824 14.1776471,8.8464 14.1455294,8.92 L13.6102353,8.2216 L14.5018824,8.5528 L14.5018824,8.5528 Z M10.9268824,11.848 L11.0484706,12.0072 L11.0446471,12.0464 L10.0711765,11.9344 C9.93735294,11.9184 9.80123529,11.9592 9.69494118,12.048 L9.09464706,12.5512 C8.98835294,12.64 8.92105882,12.768 8.90576471,12.9104 L8.85147059,13.4344 L8.19152941,13.984 C8.14488235,14.0248 8.10282353,14.0744 8.07223529,14.1296 C7.99652941,14.064 7.90323529,14.0216 7.80305882,14.0104 L6.87623529,13.9024 C6.74088235,13.8872 6.60476471,13.9296 6.5,14.0168 L5.59,14.7792 C5.54029412,14.8216 5.49823529,14.8712 5.46764706,14.9264 L4.05064706,13.0728 L4.12176471,12.4024 L4.56452941,12.0312 C4.78552941,11.8464 4.82147059,11.5072 4.64482353,11.276 L4.33511765,10.8728 L5.19082353,9.8672 L6.63688235,8.7464 L8.48517647,7.9072 C8.45,7.9984 8.437,8.0984 8.45229412,8.1968 L7.31976471,9.1448 C7.21347059,9.2344 7.14464706,9.364 7.13011765,9.5056 C7.11482353,9.6464 7.15458824,9.7872 7.23870588,9.9 L7.74111765,10.556 C7.82676471,10.6664 7.95064706,10.7384 8.086,10.7544 L8.723,10.828 L9.07017647,11.2808 C9.20017647,11.4496 9.41429412,11.5216 9.61388235,11.4608 C9.81347059,11.4 9.95723529,11.22 9.98017647,11.004 L10.0054118,10.776 L10.1162941,10.6824 C10.2225882,10.5936 10.2906471,10.464 10.3051765,10.3216 L10.348,9.9168 L10.3571765,9.9184 L10.5651765,10.1904 C10.6492941,10.3016 10.7739412,10.3712 10.9085294,10.3888 L11.1471176,10.4152 L11.5967647,11.004 L11.3826471,10.9792 C11.1777059,10.956 10.9781176,11.064 10.8779412,11.2544 C10.777,11.4432 10.7984118,11.6776 10.9268824,11.848 L10.9268824,11.848 Z M9.05564706,9.064 L9.32405882,9.0952 C9.36,9.1 9.39670588,9.1 9.43035294,9.0968 C9.40741176,9.148 9.39211765,9.204 9.38523529,9.2648 L9.31717647,9.9056 C9.24147059,9.8384 9.14741176,9.7968 9.04647059,9.7856 L8.41023529,9.712 L8.35976471,9.648 L9.05564706,9.064 L9.05564706,9.064 Z M2.44017647,15.2544 C2.53270588,14.3888 2.74070588,13.564 3.04811765,12.7952 L3.00758824,13.176 C2.99305882,13.3168 3.03205882,13.4592 3.11694118,13.5712 L4.57294118,15.4728 L4.52705882,15.9056 C4.51176471,16.0464 4.55229412,16.1888 4.63717647,16.3 C4.72052941,16.412 4.84517647,16.4824 4.98052941,16.4984 L5.382,16.5448 L5.81252941,17.1072 C5.86988235,17.184 5.94711765,17.2416 6.03505882,17.2744 L6.75847059,17.556 C6.73094118,17.7056 6.76152941,17.868 6.86094118,17.9968 L7.60805882,18.9712 L7.57670588,19.2648 L7.08347059,19.6776 C6.97870588,19.7664 6.91064706,19.8968 6.89458824,20.0368 L6.79441176,20.9808 C6.77988235,21.1216 6.81964706,21.264 6.90452941,21.3744 L7.99652941,22.8024 L7.89941176,23.728 C7.89635294,23.7592 7.89482353,23.7904 7.89711765,23.8216 L7.94223529,24.5624 C4.36723529,23.184 2.00276471,19.3904 2.44017647,15.2544 L2.44017647,15.2544 Z M10.8664706,24.1528 L9.59170588,24.004 C9.45635294,23.9888 9.321,24.0296 9.21470588,24.1184 L8.95623529,24.3352 L8.92335294,23.8 L9.04035294,22.7 C9.05411765,22.5592 9.01588235,22.4168 8.93023529,22.3056 L7.83823529,20.8776 L7.89023529,20.376 L8.38194118,19.964 C8.489,19.8744 8.55705882,19.7464 8.57235294,19.604 L8.59376471,19.4016 L9.66894118,19.5264 L10.3311765,20.392 C10.4160588,20.5024 10.5391765,20.5728 10.6752941,20.5904 L11.0767647,20.6352 L11.388,21.0432 C11.4728824,21.1544 11.5967647,21.2264 11.7321176,21.2416 L12.7881765,21.364 L13.1055294,21.7776 L12.8807059,21.964 L12.4731176,21.9168 C12.3377647,21.9016 12.2024118,21.9432 12.0961176,22.0328 C11.9890588,22.1216 11.9217647,22.2496 11.9072353,22.392 L11.804,23.3664 L10.8664706,24.1528 L10.8664706,24.1528 Z M11.3834118,25.0936 L12.61,24.0648 C12.7162941,23.976 12.7843529,23.8464 12.7996471,23.7056 L12.8707647,23.0432 L12.9793529,23.056 C13.1147059,23.0712 13.2500588,23.0296 13.3563529,22.9416 L14.1462941,22.2792 C14.2525882,22.1904 14.3206471,22.0608 14.3359412,21.92 C14.3504706,21.7776 14.3107059,21.6368 14.2258235,21.5264 L13.4565294,20.52 C13.3724118,20.4088 13.2485294,20.3368 13.1124118,20.3216 L12.0563529,20.2 L11.7443529,19.792 C11.6594706,19.6808 11.5355882,19.6104 11.401,19.5936 L10.998,19.548 L10.3365294,18.6824 C10.2516471,18.5712 10.1277647,18.5 9.99317647,18.484 L8.40870588,18.3016 L7.982,17.7448 L8.16017647,17.5952 C8.32458824,17.4608 8.39111765,17.2352 8.33376471,17.0264 C8.27564706,16.8184 8.10358824,16.6664 7.89711765,16.6432 L7.57517647,16.6056 L7.64247059,15.9696 C7.657,15.828 7.618,15.6872 7.53311765,15.576 C7.44823529,15.464 7.32435294,15.3936 7.189,15.3776 L6.65829412,15.3168 L6.63152941,15.2808 L6.97411765,14.9936 L7.47958824,15.0528 L8.00647059,15.74 C8.13647059,15.9104 8.34982353,15.9808 8.54941176,15.9216 C8.74976471,15.8608 8.89276471,15.6808 8.91647059,15.464 L8.99905882,14.6824 L9.65747059,14.1328 C9.763,14.0432 9.83258824,13.9136 9.84711765,13.7712 L9.90217647,13.2496 L10.1698235,13.0248 L11.4415294,13.1712 C11.7221765,13.204 11.9768235,12.9936 12.0081765,12.6984 L12.0364706,12.4264 C12.1626471,12.5232 12.3278235,12.556 12.4822941,12.5088 C12.6826471,12.448 12.8264118,12.268 12.8493529,12.0528 L12.9311765,11.2808 C12.9457059,11.14 12.9067059,10.9984 12.8210588,10.8872 L11.8154706,9.5712 C11.7290588,9.4608 11.6059412,9.3888 11.4705882,9.3728 L11.2335294,9.3448 L11.0255294,9.0744 C10.9398824,8.964 10.8175294,8.892 10.6806471,8.876 L9.95111765,8.792 C9.94270588,8.7904 9.93735294,8.7904 9.93047059,8.7888 L10.1193529,8.6312 C10.2814706,8.4952 10.3495294,8.2712 10.2906471,8.0624 C10.2638824,7.9624 10.2088235,7.8744 10.1369412,7.8088 C10.2424706,7.6936 10.2921765,7.5352 10.2761176,7.3776 C10.4695882,7.364 10.6645882,7.3544 10.8618824,7.3544 C11.1287647,7.3544 11.4002353,7.368 11.6671176,7.3952 C11.6732353,7.404 11.6785882,7.4136 11.6854706,7.4216 L13.5222941,9.8232 C13.6071765,9.9336 13.7318235,10.0056 13.8671765,10.0216 L14.5072353,10.0952 C14.5271176,10.0984 14.5454706,10.1 14.5645882,10.1 C14.8215294,10.1 15.0448235,9.8968 15.0731176,9.6216 L15.0937647,9.4312 L15.6940588,8.928 C16.6698235,9.6352 17.4911176,10.5512 18.1074706,11.6024 L17.9491765,11.584 C17.7434706,11.5608 17.5431176,11.6696 17.4421765,11.8592 C17.3427647,12.0496 17.3626471,12.2824 17.4926471,12.4528 L17.5308824,12.504 C17.5148235,12.5152 17.498,12.5264 17.4834706,12.54 L17.1745294,12.7984 C16.9527647,12.984 16.9175882,13.3216 17.0942353,13.5528 L17.5652941,14.1672 C17.5025882,14.1872 17.4452353,14.2184 17.3947647,14.2624 L16.2943529,15.1824 C16.1872941,15.2712 16.12,15.4016 16.1054706,15.5432 L15.9586471,16.9328 C15.9425882,17.0744 15.9823529,17.2168 16.0672353,17.328 L17.1125882,18.6952 C17.199,18.8056 17.3221176,18.876 17.4582353,18.892 L18.668,19.0328 L18.8484706,19.2696 C17.7136471,22.5512 14.8054706,24.8856 11.3834118,25.0936 L11.3834118,25.0936 Z M18.9333529,17.984 L17.7809412,17.8512 L17.0009412,16.8312 L17.1003529,15.8824 L17.8696471,15.2368 L19.2147647,15.3936 L18.9333529,17.984 L18.9333529,17.984 Z" id="Fill-1" sketch:type="MSShapeGroup"></path>
            <path d="M25.9074706,0.6528 C25.8218235,0.4664 25.6428824,0.3496 25.4463529,0.3496 L23.9131176,0.3496 C23.7708824,0.3496 23.6362941,0.412 23.5384118,0.52 L22.7798235,1.3696 L13.2255882,1.3696 C12.1167647,1.3696 11.31,2.0152 11.31,2.9056 C11.31,3.792 12.1129412,4.4384 13.221,4.4416 L16.3165294,4.4416 L19.7852353,8.2368 C19.8838824,8.3448 20.0177059,8.4024 20.1553529,8.4024 C20.2195882,8.4024 20.2845882,8.3904 20.3457647,8.364 C20.5407647,8.2824 20.6684706,8.0856 20.6684706,7.8672 L20.6684706,6.4024 C20.6684706,6.3016 20.6409412,6.2024 20.5912353,6.1184 L19.5871765,4.4416 L23.1652353,4.4416 C23.322,4.4416 23.4695882,4.3664 23.5674706,4.2384 L25.8485882,1.2184 C25.9694118,1.0576 25.9938824,0.8368 25.9074706,0.6528 L25.9074706,0.6528 Z M17.7358235,4.4416 L18.3781765,4.4416 L19.5940588,6.4744 L17.7358235,4.4416 L17.7358235,4.4416 Z M18.681,3.368 L13.2240588,3.368 C12.7254706,3.3672 12.3362353,3.164 12.3362353,2.9056 C12.3362353,2.6464 12.7277647,2.4416 13.2255882,2.4416 L23.0023529,2.4416 C23.1430588,2.4416 23.2791765,2.3808 23.3755294,2.2728 L24.1364118,1.4232 L24.3864706,1.4232 L22.9167059,3.368 L18.681,3.368 L18.681,3.368 Z" id="Fill-2" sketch:type="MSShapeGroup"></path>
        </g>
        <g id="Big-trips-5" sketch:type="MSLayerGroup" transform="translate(3.000000, 82.000000)" fill="#FFFFFF">
            <path d="M12.0334118,5.276 C11.6441765,5.2312 11.2511176,5.2072 10.8618824,5.2072 C5.48982353,5.2072 0.993352941,9.4264 0.401470588,15.02 C-0.238588235,21.0608 3.93976471,26.5184 9.71405882,27.1888 C10.1025294,27.2328 10.4963529,27.256 10.8855882,27.256 C16.2561176,27.256 20.7541176,23.0384 21.3467647,17.4448 C21.9852941,11.404 17.8077059,5.9448 12.0334118,5.276 L12.0334118,5.276 Z M14.5018824,8.5528 L14.287,8.7328 C14.2258235,8.7824 14.1776471,8.8464 14.1455294,8.92 L13.6102353,8.2216 L14.5018824,8.5528 L14.5018824,8.5528 Z M10.9268824,11.848 L11.0484706,12.0072 L11.0446471,12.0464 L10.0711765,11.9344 C9.93735294,11.9184 9.80123529,11.9592 9.69494118,12.048 L9.09464706,12.5512 C8.98835294,12.64 8.92105882,12.768 8.90576471,12.9104 L8.85147059,13.4344 L8.19152941,13.984 C8.14488235,14.0248 8.10282353,14.0744 8.07223529,14.1296 C7.99652941,14.064 7.90323529,14.0216 7.80305882,14.0104 L6.87623529,13.9024 C6.74088235,13.8872 6.60476471,13.9296 6.5,14.0168 L5.59,14.7792 C5.54029412,14.8216 5.49823529,14.8712 5.46764706,14.9264 L4.05064706,13.0728 L4.12176471,12.4024 L4.56452941,12.0312 C4.78552941,11.8464 4.82147059,11.5072 4.64482353,11.276 L4.33511765,10.8728 L5.19082353,9.8672 L6.63688235,8.7464 L8.48517647,7.9072 C8.45,7.9984 8.437,8.0984 8.45229412,8.1968 L7.31976471,9.1448 C7.21347059,9.2344 7.14464706,9.364 7.13011765,9.5056 C7.11482353,9.6464 7.15458824,9.7872 7.23870588,9.9 L7.74111765,10.556 C7.82676471,10.6664 7.95064706,10.7384 8.086,10.7544 L8.723,10.828 L9.07017647,11.2808 C9.20017647,11.4496 9.41429412,11.5216 9.61388235,11.4608 C9.81347059,11.4 9.95723529,11.22 9.98017647,11.004 L10.0054118,10.776 L10.1162941,10.6824 C10.2225882,10.5936 10.2906471,10.464 10.3051765,10.3216 L10.348,9.9168 L10.3571765,9.9184 L10.5651765,10.1904 C10.6492941,10.3016 10.7739412,10.3712 10.9085294,10.3888 L11.1471176,10.4152 L11.5967647,11.004 L11.3826471,10.9792 C11.1777059,10.956 10.9781176,11.064 10.8779412,11.2544 C10.777,11.4432 10.7984118,11.6776 10.9268824,11.848 L10.9268824,11.848 Z M9.05564706,9.064 L9.32405882,9.0952 C9.36,9.1 9.39670588,9.1 9.43035294,9.0968 C9.40741176,9.148 9.39211765,9.204 9.38523529,9.2648 L9.31717647,9.9056 C9.24147059,9.8384 9.14741176,9.7968 9.04647059,9.7856 L8.41023529,9.712 L8.35976471,9.648 L9.05564706,9.064 L9.05564706,9.064 Z M2.44017647,15.2544 C2.53270588,14.3888 2.74070588,13.564 3.04811765,12.7952 L3.00758824,13.176 C2.99305882,13.3168 3.03205882,13.4592 3.11694118,13.5712 L4.57294118,15.4728 L4.52705882,15.9056 C4.51176471,16.0464 4.55229412,16.1888 4.63717647,16.3 C4.72052941,16.412 4.84517647,16.4824 4.98052941,16.4984 L5.382,16.5448 L5.81252941,17.1072 C5.86988235,17.184 5.94711765,17.2416 6.03505882,17.2744 L6.75847059,17.556 C6.73094118,17.7056 6.76152941,17.868 6.86094118,17.9968 L7.60805882,18.9712 L7.57670588,19.2648 L7.08347059,19.6776 C6.97870588,19.7664 6.91064706,19.8968 6.89458824,20.0368 L6.79441176,20.9808 C6.77988235,21.1216 6.81964706,21.264 6.90452941,21.3744 L7.99652941,22.8024 L7.89941176,23.728 C7.89635294,23.7592 7.89482353,23.7904 7.89711765,23.8216 L7.94223529,24.5624 C4.36723529,23.184 2.00276471,19.3904 2.44017647,15.2544 L2.44017647,15.2544 Z M10.8664706,24.1528 L9.59170588,24.004 C9.45635294,23.9888 9.321,24.0296 9.21470588,24.1184 L8.95623529,24.3352 L8.92335294,23.8 L9.04035294,22.7 C9.05411765,22.5592 9.01588235,22.4168 8.93023529,22.3056 L7.83823529,20.8776 L7.89023529,20.376 L8.38194118,19.964 C8.489,19.8744 8.55705882,19.7464 8.57235294,19.604 L8.59376471,19.4016 L9.66894118,19.5264 L10.3311765,20.392 C10.4160588,20.5024 10.5391765,20.5728 10.6752941,20.5904 L11.0767647,20.6352 L11.388,21.0432 C11.4728824,21.1544 11.5967647,21.2264 11.7321176,21.2416 L12.7881765,21.364 L13.1055294,21.7776 L12.8807059,21.964 L12.4731176,21.9168 C12.3377647,21.9016 12.2024118,21.9432 12.0961176,22.0328 C11.9890588,22.1216 11.9217647,22.2496 11.9072353,22.392 L11.804,23.3664 L10.8664706,24.1528 L10.8664706,24.1528 Z M11.3834118,25.0936 L12.61,24.0648 C12.7162941,23.976 12.7843529,23.8464 12.7996471,23.7056 L12.8707647,23.0432 L12.9793529,23.056 C13.1147059,23.0712 13.2500588,23.0296 13.3563529,22.9416 L14.1462941,22.2792 C14.2525882,22.1904 14.3206471,22.0608 14.3359412,21.92 C14.3504706,21.7776 14.3107059,21.6368 14.2258235,21.5264 L13.4565294,20.52 C13.3724118,20.4088 13.2485294,20.3368 13.1124118,20.3216 L12.0563529,20.2 L11.7443529,19.792 C11.6594706,19.6808 11.5355882,19.6104 11.401,19.5936 L10.998,19.548 L10.3365294,18.6824 C10.2516471,18.5712 10.1277647,18.5 9.99317647,18.484 L8.40870588,18.3016 L7.982,17.7448 L8.16017647,17.5952 C8.32458824,17.4608 8.39111765,17.2352 8.33376471,17.0264 C8.27564706,16.8184 8.10358824,16.6664 7.89711765,16.6432 L7.57517647,16.6056 L7.64247059,15.9696 C7.657,15.828 7.618,15.6872 7.53311765,15.576 C7.44823529,15.464 7.32435294,15.3936 7.189,15.3776 L6.65829412,15.3168 L6.63152941,15.2808 L6.97411765,14.9936 L7.47958824,15.0528 L8.00647059,15.74 C8.13647059,15.9104 8.34982353,15.9808 8.54941176,15.9216 C8.74976471,15.8608 8.89276471,15.6808 8.91647059,15.464 L8.99905882,14.6824 L9.65747059,14.1328 C9.763,14.0432 9.83258824,13.9136 9.84711765,13.7712 L9.90217647,13.2496 L10.1698235,13.0248 L11.4415294,13.1712 C11.7221765,13.204 11.9768235,12.9936 12.0081765,12.6984 L12.0364706,12.4264 C12.1626471,12.5232 12.3278235,12.556 12.4822941,12.5088 C12.6826471,12.448 12.8264118,12.268 12.8493529,12.0528 L12.9311765,11.2808 C12.9457059,11.14 12.9067059,10.9984 12.8210588,10.8872 L11.8154706,9.5712 C11.7290588,9.4608 11.6059412,9.3888 11.4705882,9.3728 L11.2335294,9.3448 L11.0255294,9.0744 C10.9398824,8.964 10.8175294,8.892 10.6806471,8.876 L9.95111765,8.792 C9.94270588,8.7904 9.93735294,8.7904 9.93047059,8.7888 L10.1193529,8.6312 C10.2814706,8.4952 10.3495294,8.2712 10.2906471,8.0624 C10.2638824,7.9624 10.2088235,7.8744 10.1369412,7.8088 C10.2424706,7.6936 10.2921765,7.5352 10.2761176,7.3776 C10.4695882,7.364 10.6645882,7.3544 10.8618824,7.3544 C11.1287647,7.3544 11.4002353,7.368 11.6671176,7.3952 C11.6732353,7.404 11.6785882,7.4136 11.6854706,7.4216 L13.5222941,9.8232 C13.6071765,9.9336 13.7318235,10.0056 13.8671765,10.0216 L14.5072353,10.0952 C14.5271176,10.0984 14.5454706,10.1 14.5645882,10.1 C14.8215294,10.1 15.0448235,9.8968 15.0731176,9.6216 L15.0937647,9.4312 L15.6940588,8.928 C16.6698235,9.6352 17.4911176,10.5512 18.1074706,11.6024 L17.9491765,11.584 C17.7434706,11.5608 17.5431176,11.6696 17.4421765,11.8592 C17.3427647,12.0496 17.3626471,12.2824 17.4926471,12.4528 L17.5308824,12.504 C17.5148235,12.5152 17.498,12.5264 17.4834706,12.54 L17.1745294,12.7984 C16.9527647,12.984 16.9175882,13.3216 17.0942353,13.5528 L17.5652941,14.1672 C17.5025882,14.1872 17.4452353,14.2184 17.3947647,14.2624 L16.2943529,15.1824 C16.1872941,15.2712 16.12,15.4016 16.1054706,15.5432 L15.9586471,16.9328 C15.9425882,17.0744 15.9823529,17.2168 16.0672353,17.328 L17.1125882,18.6952 C17.199,18.8056 17.3221176,18.876 17.4582353,18.892 L18.668,19.0328 L18.8484706,19.2696 C17.7136471,22.5512 14.8054706,24.8856 11.3834118,25.0936 L11.3834118,25.0936 Z M18.9333529,17.984 L17.7809412,17.8512 L17.0009412,16.8312 L17.1003529,15.8824 L17.8696471,15.2368 L19.2147647,15.3936 L18.9333529,17.984 L18.9333529,17.984 Z" id="Fill-1" sketch:type="MSShapeGroup"></path>
            <path d="M25.9074706,0.6528 C25.8218235,0.4664 25.6428824,0.3496 25.4463529,0.3496 L23.9131176,0.3496 C23.7708824,0.3496 23.6362941,0.412 23.5384118,0.52 L22.7798235,1.3696 L13.2255882,1.3696 C12.1167647,1.3696 11.31,2.0152 11.31,2.9056 C11.31,3.792 12.1129412,4.4384 13.221,4.4416 L16.3165294,4.4416 L19.7852353,8.2368 C19.8838824,8.3448 20.0177059,8.4024 20.1553529,8.4024 C20.2195882,8.4024 20.2845882,8.3904 20.3457647,8.364 C20.5407647,8.2824 20.6684706,8.0856 20.6684706,7.8672 L20.6684706,6.4024 C20.6684706,6.3016 20.6409412,6.2024 20.5912353,6.1184 L19.5871765,4.4416 L23.1652353,4.4416 C23.322,4.4416 23.4695882,4.3664 23.5674706,4.2384 L25.8485882,1.2184 C25.9694118,1.0576 25.9938824,0.8368 25.9074706,0.6528 L25.9074706,0.6528 Z M17.7358235,4.4416 L18.3781765,4.4416 L19.5940588,6.4744 L17.7358235,4.4416 L17.7358235,4.4416 Z M18.681,3.368 L13.2240588,3.368 C12.7254706,3.3672 12.3362353,3.164 12.3362353,2.9056 C12.3362353,2.6464 12.7277647,2.4416 13.2255882,2.4416 L23.0023529,2.4416 C23.1430588,2.4416 23.2791765,2.3808 23.3755294,2.2728 L24.1364118,1.4232 L24.3864706,1.4232 L22.9167059,3.368 L18.681,3.368 L18.681,3.368 Z" id="Fill-2" sketch:type="MSShapeGroup"></path>
        </g>
        <g id="Big-trips-6" sketch:type="MSLayerGroup" transform="translate(3.000000, 122.000000)" fill="#206FAC">
            <path d="M12.0334118,5.276 C11.6441765,5.2312 11.2511176,5.2072 10.8618824,5.2072 C5.48982353,5.2072 0.993352941,9.4264 0.401470588,15.02 C-0.238588235,21.0608 3.93976471,26.5184 9.71405882,27.1888 C10.1025294,27.2328 10.4963529,27.256 10.8855882,27.256 C16.2561176,27.256 20.7541176,23.0384 21.3467647,17.4448 C21.9852941,11.404 17.8077059,5.9448 12.0334118,5.276 L12.0334118,5.276 Z M14.5018824,8.5528 L14.287,8.7328 C14.2258235,8.7824 14.1776471,8.8464 14.1455294,8.92 L13.6102353,8.2216 L14.5018824,8.5528 L14.5018824,8.5528 Z M10.9268824,11.848 L11.0484706,12.0072 L11.0446471,12.0464 L10.0711765,11.9344 C9.93735294,11.9184 9.80123529,11.9592 9.69494118,12.048 L9.09464706,12.5512 C8.98835294,12.64 8.92105882,12.768 8.90576471,12.9104 L8.85147059,13.4344 L8.19152941,13.984 C8.14488235,14.0248 8.10282353,14.0744 8.07223529,14.1296 C7.99652941,14.064 7.90323529,14.0216 7.80305882,14.0104 L6.87623529,13.9024 C6.74088235,13.8872 6.60476471,13.9296 6.5,14.0168 L5.59,14.7792 C5.54029412,14.8216 5.49823529,14.8712 5.46764706,14.9264 L4.05064706,13.0728 L4.12176471,12.4024 L4.56452941,12.0312 C4.78552941,11.8464 4.82147059,11.5072 4.64482353,11.276 L4.33511765,10.8728 L5.19082353,9.8672 L6.63688235,8.7464 L8.48517647,7.9072 C8.45,7.9984 8.437,8.0984 8.45229412,8.1968 L7.31976471,9.1448 C7.21347059,9.2344 7.14464706,9.364 7.13011765,9.5056 C7.11482353,9.6464 7.15458824,9.7872 7.23870588,9.9 L7.74111765,10.556 C7.82676471,10.6664 7.95064706,10.7384 8.086,10.7544 L8.723,10.828 L9.07017647,11.2808 C9.20017647,11.4496 9.41429412,11.5216 9.61388235,11.4608 C9.81347059,11.4 9.95723529,11.22 9.98017647,11.004 L10.0054118,10.776 L10.1162941,10.6824 C10.2225882,10.5936 10.2906471,10.464 10.3051765,10.3216 L10.348,9.9168 L10.3571765,9.9184 L10.5651765,10.1904 C10.6492941,10.3016 10.7739412,10.3712 10.9085294,10.3888 L11.1471176,10.4152 L11.5967647,11.004 L11.3826471,10.9792 C11.1777059,10.956 10.9781176,11.064 10.8779412,11.2544 C10.777,11.4432 10.7984118,11.6776 10.9268824,11.848 L10.9268824,11.848 Z M9.05564706,9.064 L9.32405882,9.0952 C9.36,9.1 9.39670588,9.1 9.43035294,9.0968 C9.40741176,9.148 9.39211765,9.204 9.38523529,9.2648 L9.31717647,9.9056 C9.24147059,9.8384 9.14741176,9.7968 9.04647059,9.7856 L8.41023529,9.712 L8.35976471,9.648 L9.05564706,9.064 L9.05564706,9.064 Z M2.44017647,15.2544 C2.53270588,14.3888 2.74070588,13.564 3.04811765,12.7952 L3.00758824,13.176 C2.99305882,13.3168 3.03205882,13.4592 3.11694118,13.5712 L4.57294118,15.4728 L4.52705882,15.9056 C4.51176471,16.0464 4.55229412,16.1888 4.63717647,16.3 C4.72052941,16.412 4.84517647,16.4824 4.98052941,16.4984 L5.382,16.5448 L5.81252941,17.1072 C5.86988235,17.184 5.94711765,17.2416 6.03505882,17.2744 L6.75847059,17.556 C6.73094118,17.7056 6.76152941,17.868 6.86094118,17.9968 L7.60805882,18.9712 L7.57670588,19.2648 L7.08347059,19.6776 C6.97870588,19.7664 6.91064706,19.8968 6.89458824,20.0368 L6.79441176,20.9808 C6.77988235,21.1216 6.81964706,21.264 6.90452941,21.3744 L7.99652941,22.8024 L7.89941176,23.728 C7.89635294,23.7592 7.89482353,23.7904 7.89711765,23.8216 L7.94223529,24.5624 C4.36723529,23.184 2.00276471,19.3904 2.44017647,15.2544 L2.44017647,15.2544 Z M10.8664706,24.1528 L9.59170588,24.004 C9.45635294,23.9888 9.321,24.0296 9.21470588,24.1184 L8.95623529,24.3352 L8.92335294,23.8 L9.04035294,22.7 C9.05411765,22.5592 9.01588235,22.4168 8.93023529,22.3056 L7.83823529,20.8776 L7.89023529,20.376 L8.38194118,19.964 C8.489,19.8744 8.55705882,19.7464 8.57235294,19.604 L8.59376471,19.4016 L9.66894118,19.5264 L10.3311765,20.392 C10.4160588,20.5024 10.5391765,20.5728 10.6752941,20.5904 L11.0767647,20.6352 L11.388,21.0432 C11.4728824,21.1544 11.5967647,21.2264 11.7321176,21.2416 L12.7881765,21.364 L13.1055294,21.7776 L12.8807059,21.964 L12.4731176,21.9168 C12.3377647,21.9016 12.2024118,21.9432 12.0961176,22.0328 C11.9890588,22.1216 11.9217647,22.2496 11.9072353,22.392 L11.804,23.3664 L10.8664706,24.1528 L10.8664706,24.1528 Z M11.3834118,25.0936 L12.61,24.0648 C12.7162941,23.976 12.7843529,23.8464 12.7996471,23.7056 L12.8707647,23.0432 L12.9793529,23.056 C13.1147059,23.0712 13.2500588,23.0296 13.3563529,22.9416 L14.1462941,22.2792 C14.2525882,22.1904 14.3206471,22.0608 14.3359412,21.92 C14.3504706,21.7776 14.3107059,21.6368 14.2258235,21.5264 L13.4565294,20.52 C13.3724118,20.4088 13.2485294,20.3368 13.1124118,20.3216 L12.0563529,20.2 L11.7443529,19.792 C11.6594706,19.6808 11.5355882,19.6104 11.401,19.5936 L10.998,19.548 L10.3365294,18.6824 C10.2516471,18.5712 10.1277647,18.5 9.99317647,18.484 L8.40870588,18.3016 L7.982,17.7448 L8.16017647,17.5952 C8.32458824,17.4608 8.39111765,17.2352 8.33376471,17.0264 C8.27564706,16.8184 8.10358824,16.6664 7.89711765,16.6432 L7.57517647,16.6056 L7.64247059,15.9696 C7.657,15.828 7.618,15.6872 7.53311765,15.576 C7.44823529,15.464 7.32435294,15.3936 7.189,15.3776 L6.65829412,15.3168 L6.63152941,15.2808 L6.97411765,14.9936 L7.47958824,15.0528 L8.00647059,15.74 C8.13647059,15.9104 8.34982353,15.9808 8.54941176,15.9216 C8.74976471,15.8608 8.89276471,15.6808 8.91647059,15.464 L8.99905882,14.6824 L9.65747059,14.1328 C9.763,14.0432 9.83258824,13.9136 9.84711765,13.7712 L9.90217647,13.2496 L10.1698235,13.0248 L11.4415294,13.1712 C11.7221765,13.204 11.9768235,12.9936 12.0081765,12.6984 L12.0364706,12.4264 C12.1626471,12.5232 12.3278235,12.556 12.4822941,12.5088 C12.6826471,12.448 12.8264118,12.268 12.8493529,12.0528 L12.9311765,11.2808 C12.9457059,11.14 12.9067059,10.9984 12.8210588,10.8872 L11.8154706,9.5712 C11.7290588,9.4608 11.6059412,9.3888 11.4705882,9.3728 L11.2335294,9.3448 L11.0255294,9.0744 C10.9398824,8.964 10.8175294,8.892 10.6806471,8.876 L9.95111765,8.792 C9.94270588,8.7904 9.93735294,8.7904 9.93047059,8.7888 L10.1193529,8.6312 C10.2814706,8.4952 10.3495294,8.2712 10.2906471,8.0624 C10.2638824,7.9624 10.2088235,7.8744 10.1369412,7.8088 C10.2424706,7.6936 10.2921765,7.5352 10.2761176,7.3776 C10.4695882,7.364 10.6645882,7.3544 10.8618824,7.3544 C11.1287647,7.3544 11.4002353,7.368 11.6671176,7.3952 C11.6732353,7.404 11.6785882,7.4136 11.6854706,7.4216 L13.5222941,9.8232 C13.6071765,9.9336 13.7318235,10.0056 13.8671765,10.0216 L14.5072353,10.0952 C14.5271176,10.0984 14.5454706,10.1 14.5645882,10.1 C14.8215294,10.1 15.0448235,9.8968 15.0731176,9.6216 L15.0937647,9.4312 L15.6940588,8.928 C16.6698235,9.6352 17.4911176,10.5512 18.1074706,11.6024 L17.9491765,11.584 C17.7434706,11.5608 17.5431176,11.6696 17.4421765,11.8592 C17.3427647,12.0496 17.3626471,12.2824 17.4926471,12.4528 L17.5308824,12.504 C17.5148235,12.5152 17.498,12.5264 17.4834706,12.54 L17.1745294,12.7984 C16.9527647,12.984 16.9175882,13.3216 17.0942353,13.5528 L17.5652941,14.1672 C17.5025882,14.1872 17.4452353,14.2184 17.3947647,14.2624 L16.2943529,15.1824 C16.1872941,15.2712 16.12,15.4016 16.1054706,15.5432 L15.9586471,16.9328 C15.9425882,17.0744 15.9823529,17.2168 16.0672353,17.328 L17.1125882,18.6952 C17.199,18.8056 17.3221176,18.876 17.4582353,18.892 L18.668,19.0328 L18.8484706,19.2696 C17.7136471,22.5512 14.8054706,24.8856 11.3834118,25.0936 L11.3834118,25.0936 Z M18.9333529,17.984 L17.7809412,17.8512 L17.0009412,16.8312 L17.1003529,15.8824 L17.8696471,15.2368 L19.2147647,15.3936 L18.9333529,17.984 L18.9333529,17.984 Z" id="Fill-1" sketch:type="MSShapeGroup"></path>
            <path d="M25.9074706,0.6528 C25.8218235,0.4664 25.6428824,0.3496 25.4463529,0.3496 L23.9131176,0.3496 C23.7708824,0.3496 23.6362941,0.412 23.5384118,0.52 L22.7798235,1.3696 L13.2255882,1.3696 C12.1167647,1.3696 11.31,2.0152 11.31,2.9056 C11.31,3.792 12.1129412,4.4384 13.221,4.4416 L16.3165294,4.4416 L19.7852353,8.2368 C19.8838824,8.3448 20.0177059,8.4024 20.1553529,8.4024 C20.2195882,8.4024 20.2845882,8.3904 20.3457647,8.364 C20.5407647,8.2824 20.6684706,8.0856 20.6684706,7.8672 L20.6684706,6.4024 C20.6684706,6.3016 20.6409412,6.2024 20.5912353,6.1184 L19.5871765,4.4416 L23.1652353,4.4416 C23.322,4.4416 23.4695882,4.3664 23.5674706,4.2384 L25.8485882,1.2184 C25.9694118,1.0576 25.9938824,0.8368 25.9074706,0.6528 L25.9074706,0.6528 Z M17.7358235,4.4416 L18.3781765,4.4416 L19.5940588,6.4744 L17.7358235,4.4416 L17.7358235,4.4416 Z M18.681,3.368 L13.2240588,3.368 C12.7254706,3.3672 12.3362353,3.164 12.3362353,2.9056 C12.3362353,2.6464 12.7277647,2.4416 13.2255882,2.4416 L23.0023529,2.4416 C23.1430588,2.4416 23.2791765,2.3808 23.3755294,2.2728 L24.1364118,1.4232 L24.3864706,1.4232 L22.9167059,3.368 L18.681,3.368 L18.681,3.368 Z" id="Fill-2" sketch:type="MSShapeGroup"></path>
        </g>
    </g>
</svg>