<?xml version="1.0" encoding="UTF-8" standalone="no"?>
<svg width="32px" height="232px" viewBox="0 0 32 232" version="1.1" xmlns="http://www.w3.org/2000/svg" xmlns:xlink="http://www.w3.org/1999/xlink" xmlns:sketch="http://www.bohemiancoding.com/sketch/ns">
    <!-- Generator: Sketch 3.0 (7574) - http://www.bohemiancoding.com/sketch -->
    <title>photography</title>
    <description>Created with Sketch.</description>
    <defs></defs>
    <g id="Gold-destinations" stroke="none" stroke-width="1" fill="none" fill-rule="evenodd" sketch:type="MSPage">
        <g id="Slices" sketch:type="MSLayerGroup" transform="translate(-320.000000, 0.000000)"></g>
        <g id="Interests-Icons" sketch:type="MSLayerGroup" transform="translate(-314.000000, -1.000000)">
            <g id="Photography" transform="translate(317.000000, 126.000000)" fill="#206FAC" sketch:type="MSShapeGroup">
                <path d="M8.95067568,14.5729375 C9.86824324,14.5729375 10.6148649,13.8125625 10.6148649,12.8789375 C10.6148649,11.944625 9.86824324,11.1849375 8.95067568,11.1849375 C8.03243243,11.1849375 7.28581081,11.944625 7.28581081,12.8789375 C7.28581081,13.8125625 8.03243243,14.5729375 8.95067568,14.5729375 L8.95067568,14.5729375 Z M8.95067568,13.1498125 C8.80337838,13.1498125 8.68445946,13.028125 8.68445946,12.8789375 C8.68445946,12.72975 8.80337838,12.6080625 8.95067568,12.6080625 C9.0972973,12.6080625 9.21621622,12.72975 9.21621622,12.8789375 C9.21621622,13.028125 9.0972973,13.1498125 8.95067568,13.1498125 L8.95067568,13.1498125 Z" id="Fill-1"></path>
                <path d="M8.95067568,18.8265 C12.172973,18.8265 14.7952703,16.1583125 14.7952703,12.8789375 C14.7952703,9.598875 12.172973,6.9306875 8.95067568,6.9306875 C5.7277027,6.9306875 3.10472973,9.598875 3.10472973,12.8789375 C3.10472973,16.1583125 5.7277027,18.8265 8.95067568,18.8265 L8.95067568,18.8265 Z M8.95067568,8.77525 C11.1736486,8.77525 12.9831081,10.616375 12.9831081,12.8789375 C12.9831081,15.1415 11.1736486,16.9819375 8.95067568,16.9819375 C6.72635135,16.9819375 4.91689189,15.1415 4.91689189,12.8789375 C4.91689189,10.616375 6.72635135,8.77525 8.95067568,8.77525 L8.95067568,8.77525 Z" id="Fill-2"></path>
                <path d="M8.95067568,16.32125 C10.8155405,16.32125 12.3331081,14.777125 12.3331081,12.8789375 C12.3331081,10.98075 10.8155405,9.436625 8.95067568,9.436625 C7.08378378,9.436625 5.56756757,10.98075 5.56756757,12.8789375 C5.56756757,14.777125 7.08378378,16.32125 8.95067568,16.32125 L8.95067568,16.32125 Z M8.95067568,10.3585625 C10.3162162,10.3585625 11.427027,11.4888125 11.427027,12.8789375 C11.427027,14.268375 10.3162162,15.398625 8.95067568,15.398625 C7.58513514,15.398625 6.47297297,14.268375 6.47297297,12.8789375 C6.47297297,11.4888125 7.58513514,10.3585625 8.95067568,10.3585625 L8.95067568,10.3585625 Z" id="Fill-3"></path>
                <path d="M24.0351351,4.571875 L8.28040541,4.571875 L8.28040541,3.6293125 C8.28040541,3.37425 8.07837838,3.1673125 7.82702703,3.1673125 L3.32702703,3.1673125 C3.07635135,3.1673125 2.87364865,3.37425 2.87364865,3.6293125 L2.87364865,4.571875 L0.908783784,4.571875 C0.406756757,4.571875 0.00202702703,4.9836875 0.00202702703,5.493125 L0.00202702703,20.1348125 C0.00202702703,20.6435625 0.406756757,21.05675 0.908783784,21.05675 L24.0351351,21.05675 C24.5358108,21.05675 24.9418919,20.6435625 24.9418919,20.1348125 L24.9418919,5.493125 C24.9418919,4.9836875 24.5358108,4.571875 24.0351351,4.571875 L24.0351351,4.571875 Z M1.81418919,6.4150625 L18.7831081,6.4150625 L18.7831081,19.2115 L1.81418919,19.2115 L1.81418919,6.4150625 Z M3.77972973,4.0899375 L7.37432432,4.0899375 L7.37432432,4.571875 L3.77972973,4.571875 L3.77972973,4.0899375 Z M19.6905405,6.4150625 L23.1297297,6.4150625 L23.1297297,19.2115 L19.6905405,19.2115 L19.6905405,6.4150625 Z" id="Fill-4"></path>
                <path d="M14.7364865,9.5459375 L17.2574324,9.5459375 C17.5067568,9.5459375 17.7101351,9.339 17.7101351,9.084625 L17.7101351,7.517125 C17.7101351,7.26275 17.5067568,7.0558125 17.2574324,7.0558125 L14.7364865,7.0558125 C14.4851351,7.0558125 14.2831081,7.26275 14.2831081,7.517125 L14.2831081,9.084625 C14.2831081,9.339 14.4851351,9.5459375 14.7364865,9.5459375 L14.7364865,9.5459375 Z M15.1885135,7.9784375 L16.8040541,7.9784375 L16.8040541,8.6233125 L15.1885135,8.6233125 L15.1885135,7.9784375 Z" id="Fill-5"></path>
                <path d="M15.9972973,2.842125 C16.2472973,2.842125 16.45,2.6351875 16.45,2.3815 L16.45,0.37675 C16.45,0.1230625 16.2472973,-0.083875 15.9972973,-0.083875 C15.7459459,-0.083875 15.5432432,0.1230625 15.5432432,0.37675 L15.5432432,2.3815 C15.5432432,2.6351875 15.7459459,2.842125 15.9972973,2.842125" id="Fill-6"></path>
                <path d="M17.4560811,3.8094375 C17.572973,3.8094375 17.6885135,3.76475 17.777027,3.6746875 L18.8851351,2.5465 C19.0628378,2.3656875 19.0628378,2.0741875 18.8851351,1.8940625 C18.7081081,1.714625 18.4216216,1.714625 18.2445946,1.8940625 L17.1358108,3.02225 C16.9594595,3.202375 16.9594595,3.4945625 17.1358108,3.6746875 C17.2243243,3.76475 17.3405405,3.8094375 17.4560811,3.8094375" id="Fill-7"></path>
                <path d="M14.2412162,3.700125 C14.3297297,3.7901875 14.4466216,3.834875 14.5614865,3.834875 C14.6783784,3.834875 14.7932432,3.7901875 14.8817568,3.700125 C15.0594595,3.5206875 15.0594595,3.2285 14.8817568,3.0476875 L13.747973,1.8940625 C13.5709459,1.714625 13.2844595,1.714625 13.1074324,1.8940625 C12.9304054,2.0741875 12.9304054,2.3656875 13.1074324,2.5465 L14.2412162,3.700125" id="Fill-8"></path>
            </g>
            <g id="Photography-2" transform="translate(317.000000, 47.000000)" fill="#67737B" sketch:type="MSShapeGroup">
                <path d="M8.95067568,14.5729375 C9.86824324,14.5729375 10.6148649,13.8125625 10.6148649,12.8789375 C10.6148649,11.944625 9.86824324,11.1849375 8.95067568,11.1849375 C8.03243243,11.1849375 7.28581081,11.944625 7.28581081,12.8789375 C7.28581081,13.8125625 8.03243243,14.5729375 8.95067568,14.5729375 L8.95067568,14.5729375 Z M8.95067568,13.1498125 C8.80337838,13.1498125 8.68445946,13.028125 8.68445946,12.8789375 C8.68445946,12.72975 8.80337838,12.6080625 8.95067568,12.6080625 C9.0972973,12.6080625 9.21621622,12.72975 9.21621622,12.8789375 C9.21621622,13.028125 9.0972973,13.1498125 8.95067568,13.1498125 L8.95067568,13.1498125 Z" id="Fill-1"></path>
                <path d="M8.95067568,18.8265 C12.172973,18.8265 14.7952703,16.1583125 14.7952703,12.8789375 C14.7952703,9.598875 12.172973,6.9306875 8.95067568,6.9306875 C5.7277027,6.9306875 3.10472973,9.598875 3.10472973,12.8789375 C3.10472973,16.1583125 5.7277027,18.8265 8.95067568,18.8265 L8.95067568,18.8265 Z M8.95067568,8.77525 C11.1736486,8.77525 12.9831081,10.616375 12.9831081,12.8789375 C12.9831081,15.1415 11.1736486,16.9819375 8.95067568,16.9819375 C6.72635135,16.9819375 4.91689189,15.1415 4.91689189,12.8789375 C4.91689189,10.616375 6.72635135,8.77525 8.95067568,8.77525 L8.95067568,8.77525 Z" id="Fill-2"></path>
                <path d="M8.95067568,16.32125 C10.8155405,16.32125 12.3331081,14.777125 12.3331081,12.8789375 C12.3331081,10.98075 10.8155405,9.436625 8.95067568,9.436625 C7.08378378,9.436625 5.56756757,10.98075 5.56756757,12.8789375 C5.56756757,14.777125 7.08378378,16.32125 8.95067568,16.32125 L8.95067568,16.32125 Z M8.95067568,10.3585625 C10.3162162,10.3585625 11.427027,11.4888125 11.427027,12.8789375 C11.427027,14.268375 10.3162162,15.398625 8.95067568,15.398625 C7.58513514,15.398625 6.47297297,14.268375 6.47297297,12.8789375 C6.47297297,11.4888125 7.58513514,10.3585625 8.95067568,10.3585625 L8.95067568,10.3585625 Z" id="Fill-3"></path>
                <path d="M24.0351351,4.571875 L8.28040541,4.571875 L8.28040541,3.6293125 C8.28040541,3.37425 8.07837838,3.1673125 7.82702703,3.1673125 L3.32702703,3.1673125 C3.07635135,3.1673125 2.87364865,3.37425 2.87364865,3.6293125 L2.87364865,4.571875 L0.908783784,4.571875 C0.406756757,4.571875 0.00202702703,4.9836875 0.00202702703,5.493125 L0.00202702703,20.1348125 C0.00202702703,20.6435625 0.406756757,21.05675 0.908783784,21.05675 L24.0351351,21.05675 C24.5358108,21.05675 24.9418919,20.6435625 24.9418919,20.1348125 L24.9418919,5.493125 C24.9418919,4.9836875 24.5358108,4.571875 24.0351351,4.571875 L24.0351351,4.571875 Z M1.81418919,6.4150625 L18.7831081,6.4150625 L18.7831081,19.2115 L1.81418919,19.2115 L1.81418919,6.4150625 Z M3.77972973,4.0899375 L7.37432432,4.0899375 L7.37432432,4.571875 L3.77972973,4.571875 L3.77972973,4.0899375 Z M19.6905405,6.4150625 L23.1297297,6.4150625 L23.1297297,19.2115 L19.6905405,19.2115 L19.6905405,6.4150625 Z" id="Fill-4"></path>
                <path d="M14.7364865,9.5459375 L17.2574324,9.5459375 C17.5067568,9.5459375 17.7101351,9.339 17.7101351,9.084625 L17.7101351,7.517125 C17.7101351,7.26275 17.5067568,7.0558125 17.2574324,7.0558125 L14.7364865,7.0558125 C14.4851351,7.0558125 14.2831081,7.26275 14.2831081,7.517125 L14.2831081,9.084625 C14.2831081,9.339 14.4851351,9.5459375 14.7364865,9.5459375 L14.7364865,9.5459375 Z M15.1885135,7.9784375 L16.8040541,7.9784375 L16.8040541,8.6233125 L15.1885135,8.6233125 L15.1885135,7.9784375 Z" id="Fill-5"></path>
                <path d="M15.9972973,2.842125 C16.2472973,2.842125 16.45,2.6351875 16.45,2.3815 L16.45,0.37675 C16.45,0.1230625 16.2472973,-0.083875 15.9972973,-0.083875 C15.7459459,-0.083875 15.5432432,0.1230625 15.5432432,0.37675 L15.5432432,2.3815 C15.5432432,2.6351875 15.7459459,2.842125 15.9972973,2.842125" id="Fill-6"></path>
                <path d="M17.4560811,3.8094375 C17.572973,3.8094375 17.6885135,3.76475 17.777027,3.6746875 L18.8851351,2.5465 C19.0628378,2.3656875 19.0628378,2.0741875 18.8851351,1.8940625 C18.7081081,1.714625 18.4216216,1.714625 18.2445946,1.8940625 L17.1358108,3.02225 C16.9594595,3.202375 16.9594595,3.4945625 17.1358108,3.6746875 C17.2243243,3.76475 17.3405405,3.8094375 17.4560811,3.8094375" id="Fill-7"></path>
                <path d="M14.2412162,3.700125 C14.3297297,3.7901875 14.4466216,3.834875 14.5614865,3.834875 C14.6783784,3.834875 14.7932432,3.7901875 14.8817568,3.700125 C15.0594595,3.5206875 15.0594595,3.2285 14.8817568,3.0476875 L13.747973,1.8940625 C13.5709459,1.714625 13.2844595,1.714625 13.1074324,1.8940625 C12.9304054,2.0741875 12.9304054,2.3656875 13.1074324,2.5465 L14.2412162,3.700125" id="Fill-8"></path>
            </g>
            <g id="Photography-3" transform="translate(317.000000, 7.000000)" fill="#373D43" sketch:type="MSShapeGroup">
                <path d="M8.95067568,14.5729375 C9.86824324,14.5729375 10.6148649,13.8125625 10.6148649,12.8789375 C10.6148649,11.944625 9.86824324,11.1849375 8.95067568,11.1849375 C8.03243243,11.1849375 7.28581081,11.944625 7.28581081,12.8789375 C7.28581081,13.8125625 8.03243243,14.5729375 8.95067568,14.5729375 L8.95067568,14.5729375 Z M8.95067568,13.1498125 C8.80337838,13.1498125 8.68445946,13.028125 8.68445946,12.8789375 C8.68445946,12.72975 8.80337838,12.6080625 8.95067568,12.6080625 C9.0972973,12.6080625 9.21621622,12.72975 9.21621622,12.8789375 C9.21621622,13.028125 9.0972973,13.1498125 8.95067568,13.1498125 L8.95067568,13.1498125 Z" id="Fill-1"></path>
                <path d="M8.95067568,18.8265 C12.172973,18.8265 14.7952703,16.1583125 14.7952703,12.8789375 C14.7952703,9.598875 12.172973,6.9306875 8.95067568,6.9306875 C5.7277027,6.9306875 3.10472973,9.598875 3.10472973,12.8789375 C3.10472973,16.1583125 5.7277027,18.8265 8.95067568,18.8265 L8.95067568,18.8265 Z M8.95067568,8.77525 C11.1736486,8.77525 12.9831081,10.616375 12.9831081,12.8789375 C12.9831081,15.1415 11.1736486,16.9819375 8.95067568,16.9819375 C6.72635135,16.9819375 4.91689189,15.1415 4.91689189,12.8789375 C4.91689189,10.616375 6.72635135,8.77525 8.95067568,8.77525 L8.95067568,8.77525 Z" id="Fill-2"></path>
                <path d="M8.95067568,16.32125 C10.8155405,16.32125 12.3331081,14.777125 12.3331081,12.8789375 C12.3331081,10.98075 10.8155405,9.436625 8.95067568,9.436625 C7.08378378,9.436625 5.56756757,10.98075 5.56756757,12.8789375 C5.56756757,14.777125 7.08378378,16.32125 8.95067568,16.32125 L8.95067568,16.32125 Z M8.95067568,10.3585625 C10.3162162,10.3585625 11.427027,11.4888125 11.427027,12.8789375 C11.427027,14.268375 10.3162162,15.398625 8.95067568,15.398625 C7.58513514,15.398625 6.47297297,14.268375 6.47297297,12.8789375 C6.47297297,11.4888125 7.58513514,10.3585625 8.95067568,10.3585625 L8.95067568,10.3585625 Z" id="Fill-3"></path>
                <path d="M24.0351351,4.571875 L8.28040541,4.571875 L8.28040541,3.6293125 C8.28040541,3.37425 8.07837838,3.1673125 7.82702703,3.1673125 L3.32702703,3.1673125 C3.07635135,3.1673125 2.87364865,3.37425 2.87364865,3.6293125 L2.87364865,4.571875 L0.908783784,4.571875 C0.406756757,4.571875 0.00202702703,4.9836875 0.00202702703,5.493125 L0.00202702703,20.1348125 C0.00202702703,20.6435625 0.406756757,21.05675 0.908783784,21.05675 L24.0351351,21.05675 C24.5358108,21.05675 24.9418919,20.6435625 24.9418919,20.1348125 L24.9418919,5.493125 C24.9418919,4.9836875 24.5358108,4.571875 24.0351351,4.571875 L24.0351351,4.571875 Z M1.81418919,6.4150625 L18.7831081,6.4150625 L18.7831081,19.2115 L1.81418919,19.2115 L1.81418919,6.4150625 Z M3.77972973,4.0899375 L7.37432432,4.0899375 L7.37432432,4.571875 L3.77972973,4.571875 L3.77972973,4.0899375 Z M19.6905405,6.4150625 L23.1297297,6.4150625 L23.1297297,19.2115 L19.6905405,19.2115 L19.6905405,6.4150625 Z" id="Fill-4"></path>
                <path d="M14.7364865,9.5459375 L17.2574324,9.5459375 C17.5067568,9.5459375 17.7101351,9.339 17.7101351,9.084625 L17.7101351,7.517125 C17.7101351,7.26275 17.5067568,7.0558125 17.2574324,7.0558125 L14.7364865,7.0558125 C14.4851351,7.0558125 14.2831081,7.26275 14.2831081,7.517125 L14.2831081,9.084625 C14.2831081,9.339 14.4851351,9.5459375 14.7364865,9.5459375 L14.7364865,9.5459375 Z M15.1885135,7.9784375 L16.8040541,7.9784375 L16.8040541,8.6233125 L15.1885135,8.6233125 L15.1885135,7.9784375 Z" id="Fill-5"></path>
                <path d="M15.9972973,2.842125 C16.2472973,2.842125 16.45,2.6351875 16.45,2.3815 L16.45,0.37675 C16.45,0.1230625 16.2472973,-0.083875 15.9972973,-0.083875 C15.7459459,-0.083875 15.5432432,0.1230625 15.5432432,0.37675 L15.5432432,2.3815 C15.5432432,2.6351875 15.7459459,2.842125 15.9972973,2.842125" id="Fill-6"></path>
                <path d="M17.4560811,3.8094375 C17.572973,3.8094375 17.6885135,3.76475 17.777027,3.6746875 L18.8851351,2.5465 C19.0628378,2.3656875 19.0628378,2.0741875 18.8851351,1.8940625 C18.7081081,1.714625 18.4216216,1.714625 18.2445946,1.8940625 L17.1358108,3.02225 C16.9594595,3.202375 16.9594595,3.4945625 17.1358108,3.6746875 C17.2243243,3.76475 17.3405405,3.8094375 17.4560811,3.8094375" id="Fill-7"></path>
                <path d="M14.2412162,3.700125 C14.3297297,3.7901875 14.4466216,3.834875 14.5614865,3.834875 C14.6783784,3.834875 14.7932432,3.7901875 14.8817568,3.700125 C15.0594595,3.5206875 15.0594595,3.2285 14.8817568,3.0476875 L13.747973,1.8940625 C13.5709459,1.714625 13.2844595,1.714625 13.1074324,1.8940625 C12.9304054,2.0741875 12.9304054,2.3656875 13.1074324,2.5465 L14.2412162,3.700125" id="Fill-8"></path>
            </g>
            <g id="Photography-4" transform="translate(317.000000, 86.000000)" fill="#FFFFFF" sketch:type="MSShapeGroup">
                <path d="M8.95067568,14.5729375 C9.86824324,14.5729375 10.6148649,13.8125625 10.6148649,12.8789375 C10.6148649,11.944625 9.86824324,11.1849375 8.95067568,11.1849375 C8.03243243,11.1849375 7.28581081,11.944625 7.28581081,12.8789375 C7.28581081,13.8125625 8.03243243,14.5729375 8.95067568,14.5729375 L8.95067568,14.5729375 Z M8.95067568,13.1498125 C8.80337838,13.1498125 8.68445946,13.028125 8.68445946,12.8789375 C8.68445946,12.72975 8.80337838,12.6080625 8.95067568,12.6080625 C9.0972973,12.6080625 9.21621622,12.72975 9.21621622,12.8789375 C9.21621622,13.028125 9.0972973,13.1498125 8.95067568,13.1498125 L8.95067568,13.1498125 Z" id="Fill-1"></path>
                <path d="M8.95067568,18.8265 C12.172973,18.8265 14.7952703,16.1583125 14.7952703,12.8789375 C14.7952703,9.598875 12.172973,6.9306875 8.95067568,6.9306875 C5.7277027,6.9306875 3.10472973,9.598875 3.10472973,12.8789375 C3.10472973,16.1583125 5.7277027,18.8265 8.95067568,18.8265 L8.95067568,18.8265 Z M8.95067568,8.77525 C11.1736486,8.77525 12.9831081,10.616375 12.9831081,12.8789375 C12.9831081,15.1415 11.1736486,16.9819375 8.95067568,16.9819375 C6.72635135,16.9819375 4.91689189,15.1415 4.91689189,12.8789375 C4.91689189,10.616375 6.72635135,8.77525 8.95067568,8.77525 L8.95067568,8.77525 Z" id="Fill-2"></path>
                <path d="M8.95067568,16.32125 C10.8155405,16.32125 12.3331081,14.777125 12.3331081,12.8789375 C12.3331081,10.98075 10.8155405,9.436625 8.95067568,9.436625 C7.08378378,9.436625 5.56756757,10.98075 5.56756757,12.8789375 C5.56756757,14.777125 7.08378378,16.32125 8.95067568,16.32125 L8.95067568,16.32125 Z M8.95067568,10.3585625 C10.3162162,10.3585625 11.427027,11.4888125 11.427027,12.8789375 C11.427027,14.268375 10.3162162,15.398625 8.95067568,15.398625 C7.58513514,15.398625 6.47297297,14.268375 6.47297297,12.8789375 C6.47297297,11.4888125 7.58513514,10.3585625 8.95067568,10.3585625 L8.95067568,10.3585625 Z" id="Fill-3"></path>
                <path d="M24.0351351,4.571875 L8.28040541,4.571875 L8.28040541,3.6293125 C8.28040541,3.37425 8.07837838,3.1673125 7.82702703,3.1673125 L3.32702703,3.1673125 C3.07635135,3.1673125 2.87364865,3.37425 2.87364865,3.6293125 L2.87364865,4.571875 L0.908783784,4.571875 C0.406756757,4.571875 0.00202702703,4.9836875 0.00202702703,5.493125 L0.00202702703,20.1348125 C0.00202702703,20.6435625 0.406756757,21.05675 0.908783784,21.05675 L24.0351351,21.05675 C24.5358108,21.05675 24.9418919,20.6435625 24.9418919,20.1348125 L24.9418919,5.493125 C24.9418919,4.9836875 24.5358108,4.571875 24.0351351,4.571875 L24.0351351,4.571875 Z M1.81418919,6.4150625 L18.7831081,6.4150625 L18.7831081,19.2115 L1.81418919,19.2115 L1.81418919,6.4150625 Z M3.77972973,4.0899375 L7.37432432,4.0899375 L7.37432432,4.571875 L3.77972973,4.571875 L3.77972973,4.0899375 Z M19.6905405,6.4150625 L23.1297297,6.4150625 L23.1297297,19.2115 L19.6905405,19.2115 L19.6905405,6.4150625 Z" id="Fill-4"></path>
                <path d="M14.7364865,9.5459375 L17.2574324,9.5459375 C17.5067568,9.5459375 17.7101351,9.339 17.7101351,9.084625 L17.7101351,7.517125 C17.7101351,7.26275 17.5067568,7.0558125 17.2574324,7.0558125 L14.7364865,7.0558125 C14.4851351,7.0558125 14.2831081,7.26275 14.2831081,7.517125 L14.2831081,9.084625 C14.2831081,9.339 14.4851351,9.5459375 14.7364865,9.5459375 L14.7364865,9.5459375 Z M15.1885135,7.9784375 L16.8040541,7.9784375 L16.8040541,8.6233125 L15.1885135,8.6233125 L15.1885135,7.9784375 Z" id="Fill-5"></path>
                <path d="M15.9972973,2.842125 C16.2472973,2.842125 16.45,2.6351875 16.45,2.3815 L16.45,0.37675 C16.45,0.1230625 16.2472973,-0.083875 15.9972973,-0.083875 C15.7459459,-0.083875 15.5432432,0.1230625 15.5432432,0.37675 L15.5432432,2.3815 C15.5432432,2.6351875 15.7459459,2.842125 15.9972973,2.842125" id="Fill-6"></path>
                <path d="M17.4560811,3.8094375 C17.572973,3.8094375 17.6885135,3.76475 17.777027,3.6746875 L18.8851351,2.5465 C19.0628378,2.3656875 19.0628378,2.0741875 18.8851351,1.8940625 C18.7081081,1.714625 18.4216216,1.714625 18.2445946,1.8940625 L17.1358108,3.02225 C16.9594595,3.202375 16.9594595,3.4945625 17.1358108,3.6746875 C17.2243243,3.76475 17.3405405,3.8094375 17.4560811,3.8094375" id="Fill-7"></path>
                <path d="M14.2412162,3.700125 C14.3297297,3.7901875 14.4466216,3.834875 14.5614865,3.834875 C14.6783784,3.834875 14.7932432,3.7901875 14.8817568,3.700125 C15.0594595,3.5206875 15.0594595,3.2285 14.8817568,3.0476875 L13.747973,1.8940625 C13.5709459,1.714625 13.2844595,1.714625 13.1074324,1.8940625 C12.9304054,2.0741875 12.9304054,2.3656875 13.1074324,2.5465 L14.2412162,3.700125" id="Fill-8"></path>
            </g>
        </g>
    </g>
</svg>