<svg width="32" height="232" viewBox="0 0 32 232" xmlns="http://www.w3.org/2000/svg" xmlns:sketch="http://www.bohemiancoding.com/sketch/ns"><title>photography</title><g sketch:type="MSPage" fill="none"><g sketch:type="MSLayerGroup"><g fill="#206FAC" sketch:type="MSShapeGroup"><path d="M11.951 143.573c.918 0 1.664-.76 1.664-1.694 0-.934-.747-1.694-1.664-1.694-.918 0-1.665.76-1.665 1.694 0 .934.747 1.694 1.665 1.694zm0-1.423c-.147 0-.266-.122-.266-.271 0-.149.119-.271.266-.271.147 0 .266.122.266.271 0 .149-.119.271-.266.271z" id="Fill-1"/><path d="M11.951 147.827c3.222 0 5.845-2.668 5.845-5.948 0-3.28-2.622-5.948-5.845-5.948s-5.846 2.668-5.846 5.948c0 3.279 2.623 5.948 5.846 5.948zm0-10.051c2.223 0 4.032 1.841 4.032 4.104s-1.809 4.103-4.032 4.103c-2.224 0-4.034-1.84-4.034-4.103s1.809-4.104 4.034-4.104z" id="Fill-2"/><path d="M11.951 145.321c1.865 0 3.382-1.544 3.382-3.442 0-1.898-1.518-3.442-3.382-3.442-1.867 0-3.383 1.544-3.383 3.442 0 1.898 1.516 3.442 3.383 3.442zm0-5.963c1.366 0 2.476 1.13 2.476 2.52 0 1.389-1.111 2.52-2.476 2.52-1.366 0-2.478-1.13-2.478-2.52 0-1.39 1.112-2.52 2.478-2.52z" id="Fill-3"/><path d="M27.035 133.572h-15.755v-.943c0-.255-.202-.462-.453-.462h-4.5c-.251 0-.453.207-.453.462v.943h-1.965c-.502 0-.907.412-.907.921v14.642c0 .509.405.922.907.922h23.126c.501 0 .907-.413.907-.922v-14.642c0-.509-.406-.921-.907-.921zm-22.221 1.843h16.969v12.796h-16.969v-12.796zm1.966-2.325h3.595v.482h-3.595v-.482zm15.911 2.325h3.439v12.796h-3.439v-12.796z" id="Fill-4"/><path d="M17.736 138.546h2.521c.249 0 .453-.207.453-.461v-1.568c0-.254-.203-.461-.453-.461h-2.521c-.251 0-.453.207-.453.461v1.568c0 .254.202.461.453.461zm.452-1.568h1.616v.645h-1.616v-.645z" id="Fill-5"/><path d="M18.997 131.842c.25 0 .453-.207.453-.461v-2.005c0-.254-.203-.461-.453-.461-.251 0-.454.207-.454.461v2.005c0 .254.203.461.454.461" id="Fill-6"/><path d="M20.456 132.809c.117 0 .232-.045.321-.135l1.108-1.128c.178-.181.178-.472 0-.652-.177-.179-.464-.179-.641 0l-1.109 1.128c-.176.18-.176.472 0 .652.089.09.205.135.32.135" id="Fill-7"/><path d="M17.241 132.7c.089.09.205.135.32.135.117 0 .232-.045.32-.135.178-.179.178-.472 0-.652l-1.134-1.154c-.177-.179-.464-.179-.641 0-.177.18-.177.472 0 .652l1.134 1.154" id="Fill-8"/></g><g fill="#67737B" sketch:type="MSShapeGroup"><path d="M11.951 104.573c.918 0 1.664-.76 1.664-1.694 0-.934-.747-1.694-1.664-1.694-.918 0-1.665.76-1.665 1.694 0 .934.747 1.694 1.665 1.694zm0-1.423c-.147 0-.266-.122-.266-.271 0-.149.119-.271.266-.271.147 0 .266.122.266.271 0 .149-.119.271-.266.271z" id="Fill-1"/><path d="M11.951 108.826c3.222 0 5.845-2.668 5.845-5.948 0-3.28-2.622-5.948-5.845-5.948s-5.846 2.668-5.846 5.948c0 3.279 2.623 5.948 5.846 5.948zm0-10.051c2.223 0 4.032 1.841 4.032 4.104s-1.809 4.103-4.032 4.103c-2.224 0-4.034-1.84-4.034-4.103s1.809-4.104 4.034-4.104z" id="Fill-2"/><path d="M11.951 106.321c1.865 0 3.382-1.544 3.382-3.442 0-1.898-1.518-3.442-3.382-3.442-1.867 0-3.383 1.544-3.383 3.442 0 1.898 1.516 3.442 3.383 3.442zm0-5.963c1.366 0 2.476 1.13 2.476 2.52 0 1.389-1.111 2.52-2.476 2.52-1.366 0-2.478-1.13-2.478-2.52 0-1.39 1.112-2.52 2.478-2.52z" id="Fill-3"/><path d="M27.035 94.572h-15.755v-.943c0-.255-.202-.462-.453-.462h-4.5c-.251 0-.453.207-.453.462v.943h-1.965c-.502 0-.907.412-.907.921v14.642c0 .509.405.922.907.922h23.126c.501 0 .907-.413.907-.922v-14.642c0-.509-.406-.921-.907-.921zm-22.221 1.843h16.969v12.796h-16.969v-12.796zm1.966-2.325h3.595v.482h-3.595v-.482zm15.911 2.325h3.439v12.796h-3.439v-12.796z" id="Fill-4"/><path d="M17.736 99.546h2.521c.249 0 .453-.207.453-.461v-1.568c0-.254-.203-.461-.453-.461h-2.521c-.251 0-.453.207-.453.461v1.568c0 .254.202.461.453.461zm.452-1.568h1.616v.645h-1.616v-.645z" id="Fill-5"/><path d="M18.997 92.842c.25 0 .453-.207.453-.461v-2.005c0-.254-.203-.461-.453-.461-.251 0-.454.207-.454.461v2.005c0 .254.203.461.454.461" id="Fill-6"/><path d="M20.456 93.809c.117 0 .232-.045.321-.135l1.108-1.128c.178-.181.178-.472 0-.652-.177-.179-.464-.179-.641 0l-1.109 1.128c-.176.18-.176.472 0 .652.089.09.205.135.32.135" id="Fill-7"/><path d="M17.241 93.7c.089.09.205.135.32.135.117 0 .232-.045.32-.135.178-.179.178-.472 0-.652l-1.134-1.154c-.177-.179-.464-.179-.641 0-.177.18-.177.472 0 .652l1.134 1.154" id="Fill-8"/></g><g fill="#373D43" sketch:type="MSShapeGroup"><path d="M11.951 64.573c.918 0 1.664-.76 1.664-1.694 0-.934-.747-1.694-1.664-1.694-.918 0-1.665.76-1.665 1.694 0 .934.747 1.694 1.665 1.694zm0-1.423c-.147 0-.266-.122-.266-.271 0-.149.119-.271.266-.271.147 0 .266.122.266.271 0 .149-.119.271-.266.271z" id="Fill-1"/><path d="M11.951 68.826c3.222 0 5.845-2.668 5.845-5.948 0-3.28-2.622-5.948-5.845-5.948s-5.846 2.668-5.846 5.948c0 3.279 2.623 5.948 5.846 5.948zm0-10.051c2.223 0 4.032 1.841 4.032 4.104s-1.809 4.103-4.032 4.103c-2.224 0-4.034-1.84-4.034-4.103s1.809-4.104 4.034-4.104z" id="Fill-2"/><path d="M11.951 66.321c1.865 0 3.382-1.544 3.382-3.442 0-1.898-1.518-3.442-3.382-3.442-1.867 0-3.383 1.544-3.383 3.442 0 1.898 1.516 3.442 3.383 3.442zm0-5.963c1.366 0 2.476 1.13 2.476 2.52 0 1.389-1.111 2.52-2.476 2.52-1.366 0-2.478-1.13-2.478-2.52 0-1.39 1.112-2.52 2.478-2.52z" id="Fill-3"/><path d="M27.035 54.572h-15.755v-.943c0-.255-.202-.462-.453-.462h-4.5c-.251 0-.453.207-.453.462v.943h-1.965c-.502 0-.907.412-.907.921v14.642c0 .509.405.922.907.922h23.126c.501 0 .907-.413.907-.922v-14.642c0-.509-.406-.921-.907-.921zm-22.221 1.843h16.969v12.796h-16.969v-12.796zm1.966-2.325h3.595v.482h-3.595v-.482zm15.911 2.325h3.439v12.796h-3.439v-12.796z" id="Fill-4"/><path d="M17.736 59.546h2.521c.249 0 .453-.207.453-.461v-1.568c0-.254-.203-.461-.453-.461h-2.521c-.251 0-.453.207-.453.461v1.568c0 .254.202.461.453.461zm.452-1.568h1.616v.645h-1.616v-.645z" id="Fill-5"/><path d="M18.997 52.842c.25 0 .453-.207.453-.461v-2.005c0-.254-.203-.461-.453-.461-.251 0-.454.207-.454.461v2.005c0 .254.203.461.454.461" id="Fill-6"/><path d="M20.456 53.809c.117 0 .232-.045.321-.135l1.108-1.128c.178-.181.178-.472 0-.652-.177-.179-.464-.179-.641 0l-1.109 1.128c-.176.18-.176.472 0 .652.089.09.205.135.32.135" id="Fill-7"/><path d="M17.241 53.7c.089.09.205.135.32.135.117 0 .232-.045.32-.135.178-.179.178-.472 0-.652l-1.134-1.154c-.177-.179-.464-.179-.641 0-.177.18-.177.472 0 .652l1.134 1.154" id="Fill-8"/></g><g fill="#fff" sketch:type="MSShapeGroup"><path d="M11.951 20.573c.918 0 1.664-.76 1.664-1.694 0-.934-.747-1.694-1.664-1.694-.918 0-1.665.76-1.665 1.694 0 .934.747 1.694 1.665 1.694zm0-1.423c-.147 0-.266-.122-.266-.271 0-.149.119-.271.266-.271.147 0 .266.122.266.271 0 .149-.119.271-.266.271z"/><path d="M11.951 24.826c3.222 0 5.845-2.668 5.845-5.948 0-3.28-2.622-5.948-5.845-5.948s-5.846 2.668-5.846 5.948c0 3.279 2.623 5.948 5.846 5.948zm0-10.051c2.223 0 4.032 1.841 4.032 4.104s-1.809 4.103-4.032 4.103c-2.224 0-4.034-1.84-4.034-4.103s1.809-4.104 4.034-4.104z"/><path d="M11.951 22.321c1.865 0 3.382-1.544 3.382-3.442 0-1.898-1.518-3.442-3.382-3.442-1.867 0-3.383 1.544-3.383 3.442 0 1.898 1.516 3.442 3.383 3.442zm0-5.963c1.366 0 2.476 1.13 2.476 2.52 0 1.389-1.111 2.52-2.476 2.52-1.366 0-2.478-1.13-2.478-2.52 0-1.39 1.112-2.52 2.478-2.52z"/><path d="M27.035 10.572h-15.755v-.943c0-.255-.202-.462-.453-.462h-4.5c-.251 0-.453.207-.453.462v.943h-1.965c-.502 0-.907.412-.907.921v14.642c0 .509.405.922.907.922h23.126c.501 0 .907-.413.907-.922v-14.642c0-.509-.406-.921-.907-.921zm-22.221 1.843h16.969v12.796h-16.969v-12.796zm1.966-2.325h3.595v.482h-3.595v-.482zm15.911 2.325h3.439v12.796h-3.439v-12.796z"/><path d="M17.736 15.546h2.521c.249 0 .453-.207.453-.461v-1.568c0-.254-.203-.461-.453-.461h-2.521c-.251 0-.453.207-.453.461v1.568c0 .254.202.461.453.461zm.452-1.568h1.616v.645h-1.616v-.645z"/><path d="M18.997 8.842c.25 0 .453-.207.453-.461v-2.005c0-.254-.203-.461-.453-.461-.251 0-.454.207-.454.461v2.005c0 .254.203.461.454.461"/><path d="M20.456 9.809c.117 0 .232-.045.321-.135l1.108-1.128c.178-.181.178-.472 0-.652-.177-.179-.464-.179-.641 0l-1.109 1.128c-.176.18-.176.472 0 .652.089.09.205.135.32.135"/><path d="M17.241 9.7c.089.09.205.135.32.135.117 0 .232-.045.32-.135.178-.179.178-.472 0-.652l-1.134-1.154c-.177-.179-.464-.179-.641 0-.177.18-.177.472 0 .652l1.134 1.154"/></g></g></g></svg>