<svg width="32" height="232" viewBox="0 0 32 232" xmlns="http://www.w3.org/2000/svg" xmlns:sketch="http://www.bohemiancoding.com/sketch/ns"><title>photography</title><g sketch:type="MSPage" fill="none"><g sketch:type="MSLayerGroup" fill="#3B444F"><path d="M12.309 20.235c.954 0 1.731-.795 1.731-1.771 0-.977-.776-1.771-1.731-1.771-.955 0-1.731.794-1.731 1.771 0 .976.776 1.771 1.731 1.771zm0-1.488c-.153 0-.277-.127-.277-.283 0-.156.124-.283.277-.283.152 0 .276.127.276.283 0 .156-.124.283-.276.283z" id="Fill-1" sketch:type="MSShapeGroup"/><path d="M12.309 24.682c3.351 0 6.078-2.789 6.078-6.218s-2.727-6.219-6.078-6.219c-3.352 0-6.08 2.789-6.08 6.219 0 3.428 2.728 6.218 6.08 6.218zm0-10.508c2.312 0 4.194 1.925 4.194 4.29s-1.882 4.289-4.194 4.289c-2.313 0-4.195-1.924-4.195-4.289 0-2.365 1.882-4.29 4.195-4.29z" id="Fill-2" sketch:type="MSShapeGroup"/><path d="M12.309 22.063c1.939 0 3.518-1.614 3.518-3.599 0-1.984-1.578-3.599-3.518-3.599-1.942 0-3.518 1.614-3.518 3.599 0 1.984 1.577 3.599 3.518 3.599zm0-6.234c1.42 0 2.575 1.182 2.575 2.635 0 1.453-1.155 2.634-2.575 2.634-1.42 0-2.577-1.182-2.577-2.634 0-1.453 1.157-2.635 2.577-2.635z" id="Fill-3" sketch:type="MSShapeGroup"/><path d="M27.997 9.78h-16.385v-.985c0-.267-.21-.483-.472-.483h-4.68c-.261 0-.472.216-.472.483v.985h-2.043c-.522 0-.943.431-.943.963v15.307c0 .532.421.964.943.964h24.051c.521 0 .943-.432.943-.964v-15.307c0-.533-.422-.963-.943-.963zm-23.11 1.927h17.648v13.378h-17.648v-13.378zm2.044-2.431h3.738v.504h-3.738v-.504zm16.547 2.431h3.577v13.378h-3.577v-13.378z" id="Fill-4" sketch:type="MSShapeGroup"/><path d="M18.326 14.98h2.622c.259 0 .471-.216.471-.482v-1.639c0-.266-.212-.482-.471-.482h-2.622c-.261 0-.472.216-.472.482v1.639c0 .266.21.482.472.482zm.47-1.639h1.68v.674h-1.68v-.674z" id="Fill-5" sketch:type="MSShapeGroup"/><path d="M19.637 7.971c.26 0 .471-.216.471-.482v-2.096c0-.265-.211-.482-.471-.482-.261 0-.472.216-.472.482v2.096c0 .265.211.482.472.482" id="Fill-6" sketch:type="MSShapeGroup"/><path d="M21.154 8.983c.122 0 .242-.047.334-.141l1.152-1.179c.185-.189.185-.494 0-.682-.184-.188-.482-.188-.666 0l-1.153 1.179c-.183.188-.183.494 0 .682.092.094.213.141.333.141" id="Fill-7" sketch:type="MSShapeGroup"/><path d="M17.811 8.868c.092.094.214.141.333.141.122 0 .241-.047.333-.141.185-.188.185-.493 0-.682l-1.179-1.206c-.184-.188-.482-.188-.666 0-.184.188-.184.493 0 .682l1.179 1.206" id="Fill-8" sketch:type="MSShapeGroup"/></g><g sketch:type="MSLayerGroup" fill="#67747C"><path d="M12.309 60.235c.954 0 1.731-.795 1.731-1.771 0-.977-.776-1.771-1.731-1.771-.955 0-1.731.794-1.731 1.771 0 .976.776 1.771 1.731 1.771zm0-1.488c-.153 0-.277-.127-.277-.283 0-.156.124-.283.277-.283.152 0 .276.127.276.283 0 .156-.124.283-.276.283z" id="Fill-1" sketch:type="MSShapeGroup"/><path d="M12.309 64.682c3.351 0 6.078-2.789 6.078-6.218s-2.727-6.219-6.078-6.219c-3.352 0-6.08 2.789-6.08 6.219 0 3.428 2.728 6.218 6.08 6.218zm0-10.508c2.312 0 4.194 1.925 4.194 4.29s-1.882 4.289-4.194 4.289c-2.313 0-4.195-1.924-4.195-4.289 0-2.365 1.882-4.29 4.195-4.29z" id="Fill-2" sketch:type="MSShapeGroup"/><path d="M12.309 62.063c1.939 0 3.518-1.614 3.518-3.599 0-1.984-1.578-3.599-3.518-3.599-1.942 0-3.518 1.614-3.518 3.599 0 1.984 1.577 3.599 3.518 3.599zm0-6.234c1.42 0 2.575 1.182 2.575 2.635 0 1.453-1.155 2.634-2.575 2.634-1.42 0-2.577-1.182-2.577-2.634 0-1.453 1.157-2.635 2.577-2.635z" id="Fill-3" sketch:type="MSShapeGroup"/><path d="M27.997 49.78h-16.385v-.985c0-.267-.21-.483-.472-.483h-4.68c-.261 0-.472.216-.472.483v.985h-2.043c-.522 0-.943.431-.943.963v15.307c0 .532.421.964.943.964h24.051c.521 0 .943-.432.943-.964v-15.307c0-.533-.422-.963-.943-.963zm-23.11 1.927h17.648v13.378h-17.648v-13.378zm2.044-2.431h3.738v.504h-3.738v-.504zm16.547 2.431h3.577v13.378h-3.577v-13.378z" id="Fill-4" sketch:type="MSShapeGroup"/><path d="M18.326 54.98h2.622c.259 0 .471-.216.471-.482v-1.639c0-.266-.212-.482-.471-.482h-2.622c-.261 0-.472.216-.472.482v1.639c0 .266.21.482.472.482zm.47-1.639h1.68v.674h-1.68v-.674z" id="Fill-5" sketch:type="MSShapeGroup"/><path d="M19.637 47.971c.26 0 .471-.216.471-.482v-2.096c0-.265-.211-.482-.471-.482-.261 0-.472.216-.472.482v2.096c0 .265.211.482.472.482" id="Fill-6" sketch:type="MSShapeGroup"/><path d="M21.154 48.983c.122 0 .242-.047.334-.141l1.152-1.179c.185-.189.185-.494 0-.682-.184-.188-.482-.188-.666 0l-1.153 1.179c-.183.188-.183.494 0 .682.092.094.213.141.333.141" id="Fill-7" sketch:type="MSShapeGroup"/><path d="M17.811 48.868c.092.094.214.141.333.141.122 0 .241-.047.333-.141.185-.188.185-.493 0-.682l-1.179-1.206c-.184-.188-.482-.188-.666 0-.184.188-.184.493 0 .682l1.179 1.206" id="Fill-8" sketch:type="MSShapeGroup"/></g><g sketch:type="MSLayerGroup" fill="#fff"><path d="M12.309 100.235c.954 0 1.731-.795 1.731-1.771 0-.977-.776-1.771-1.731-1.771-.955 0-1.731.794-1.731 1.771 0 .976.776 1.771 1.731 1.771zm0-1.488c-.153 0-.277-.127-.277-.283 0-.156.124-.283.277-.283.152 0 .276.127.276.283 0 .156-.124.283-.276.283z" id="Fill-1" sketch:type="MSShapeGroup"/><path d="M12.309 104.682c3.351 0 6.078-2.789 6.078-6.218s-2.727-6.219-6.078-6.219c-3.352 0-6.08 2.789-6.08 6.219 0 3.428 2.728 6.218 6.08 6.218zm0-10.508c2.312 0 4.194 1.925 4.194 4.29s-1.882 4.289-4.194 4.289c-2.313 0-4.195-1.924-4.195-4.289 0-2.365 1.882-4.29 4.195-4.29z" id="Fill-2" sketch:type="MSShapeGroup"/><path d="M12.309 102.063c1.939 0 3.518-1.614 3.518-3.599 0-1.984-1.578-3.599-3.518-3.599-1.942 0-3.518 1.614-3.518 3.599 0 1.984 1.577 3.599 3.518 3.599zm0-6.234c1.42 0 2.575 1.182 2.575 2.635 0 1.453-1.155 2.634-2.575 2.634-1.42 0-2.577-1.182-2.577-2.634 0-1.453 1.157-2.635 2.577-2.635z" id="Fill-3" sketch:type="MSShapeGroup"/><path d="M27.997 89.78h-16.385v-.985c0-.267-.21-.483-.472-.483h-4.68c-.261 0-.472.216-.472.483v.985h-2.043c-.522 0-.943.431-.943.963v15.307c0 .532.421.964.943.964h24.051c.521 0 .943-.432.943-.964v-15.307c0-.533-.422-.963-.943-.963zm-23.11 1.927h17.648v13.378h-17.648v-13.378zm2.044-2.431h3.738v.504h-3.738v-.504zm16.547 2.431h3.577v13.378h-3.577v-13.378z" id="Fill-4" sketch:type="MSShapeGroup"/><path d="M18.326 94.98h2.622c.259 0 .471-.216.471-.482v-1.639c0-.266-.212-.482-.471-.482h-2.622c-.261 0-.472.216-.472.482v1.639c0 .266.21.482.472.482zm.47-1.639h1.68v.674h-1.68v-.674z" id="Fill-5" sketch:type="MSShapeGroup"/><path d="M19.637 87.971c.26 0 .471-.216.471-.482v-2.096c0-.265-.211-.482-.471-.482-.261 0-.472.216-.472.482v2.096c0 .265.211.482.472.482" id="Fill-6" sketch:type="MSShapeGroup"/><path d="M21.154 88.983c.122 0 .242-.047.334-.141l1.152-1.179c.185-.189.185-.494 0-.682-.184-.188-.482-.188-.666 0l-1.153 1.179c-.183.188-.183.494 0 .682.092.094.213.141.333.141" id="Fill-7" sketch:type="MSShapeGroup"/><path d="M17.811 88.868c.092.094.214.141.333.141.122 0 .241-.047.333-.141.185-.188.185-.493 0-.682l-1.179-1.206c-.184-.188-.482-.188-.666 0-.184.188-.184.493 0 .682l1.179 1.206" id="Fill-8" sketch:type="MSShapeGroup"/></g><g sketch:type="MSLayerGroup" fill="#206FAC"><path d="M12.309 140.235c.954 0 1.731-.795 1.731-1.771 0-.977-.776-1.771-1.731-1.771-.955 0-1.731.794-1.731 1.771 0 .976.776 1.771 1.731 1.771zm0-1.488c-.153 0-.277-.127-.277-.283 0-.156.124-.283.277-.283.152 0 .276.127.276.283 0 .156-.124.283-.276.283z" sketch:type="MSShapeGroup"/><path d="M12.309 144.682c3.351 0 6.078-2.789 6.078-6.218s-2.727-6.219-6.078-6.219c-3.352 0-6.08 2.789-6.08 6.219 0 3.428 2.728 6.218 6.08 6.218zm0-10.508c2.312 0 4.194 1.925 4.194 4.29s-1.882 4.289-4.194 4.289c-2.313 0-4.195-1.924-4.195-4.289 0-2.365 1.882-4.29 4.195-4.29z" sketch:type="MSShapeGroup"/><path d="M12.309 142.063c1.939 0 3.518-1.614 3.518-3.599 0-1.984-1.578-3.599-3.518-3.599-1.942 0-3.518 1.614-3.518 3.599 0 1.984 1.577 3.599 3.518 3.599zm0-6.234c1.42 0 2.575 1.182 2.575 2.635 0 1.453-1.155 2.634-2.575 2.634-1.42 0-2.577-1.182-2.577-2.634 0-1.453 1.157-2.635 2.577-2.635z" sketch:type="MSShapeGroup"/><path d="M27.997 129.78h-16.385v-.985c0-.267-.21-.483-.472-.483h-4.68c-.261 0-.472.216-.472.483v.985h-2.043c-.522 0-.943.431-.943.963v15.307c0 .532.421.964.943.964h24.051c.521 0 .943-.432.943-.964v-15.307c0-.533-.422-.963-.943-.963zm-23.11 1.927h17.648v13.378h-17.648v-13.378zm2.044-2.431h3.738v.504h-3.738v-.504zm16.547 2.431h3.577v13.378h-3.577v-13.378z" sketch:type="MSShapeGroup"/><path d="M18.326 134.98h2.622c.259 0 .471-.216.471-.482v-1.639c0-.266-.212-.482-.471-.482h-2.622c-.261 0-.472.216-.472.482v1.639c0 .266.21.482.472.482zm.47-1.639h1.68v.674h-1.68v-.674z" sketch:type="MSShapeGroup"/><path d="M19.637 127.971c.26 0 .471-.216.471-.482v-2.096c0-.265-.211-.482-.471-.482-.261 0-.472.216-.472.482v2.096c0 .265.211.482.472.482" sketch:type="MSShapeGroup"/><path d="M21.154 128.983c.122 0 .242-.047.334-.141l1.152-1.179c.185-.189.185-.494 0-.682-.184-.188-.482-.188-.666 0l-1.153 1.179c-.183.188-.183.494 0 .682.092.094.213.141.333.141" sketch:type="MSShapeGroup"/><path d="M17.811 128.868c.092.094.214.141.333.141.122 0 .241-.047.333-.141.185-.188.185-.493 0-.682l-1.179-1.206c-.184-.188-.482-.188-.666 0-.184.188-.184.493 0 .682l1.179 1.206" sketch:type="MSShapeGroup"/></g></g></svg>