<?xml version="1.0" encoding="UTF-8" standalone="no"?>
<svg width="32px" height="232px" viewBox="0 0 32 232" version="1.1" xmlns="http://www.w3.org/2000/svg" xmlns:xlink="http://www.w3.org/1999/xlink" xmlns:sketch="http://www.bohemiancoding.com/sketch/ns">
    <!-- Generator: Sketch 3.0 (7574) - http://www.bohemiancoding.com/sketch -->
    <title>wildlife</title>
    <description>Created with Sketch.</description>
    <defs></defs>
    <g id="Gold-destinations" stroke="none" stroke-width="1" fill="none" fill-rule="evenodd" sketch:type="MSPage">
        <g id="Slices" sketch:type="MSLayerGroup" transform="translate(-440.000000, 0.000000)"></g>
        <g id="Interests-Icons" sketch:type="MSLayerGroup" transform="translate(-434.000000, -1.000000)">
            <path d="M463.490016,148.353405 L461.419335,148.353405 C461.463653,148.155929 461.48138,147.943952 461.471153,147.716786 C461.43638,146.913762 460.780471,145.989905 459.467289,144.891357 C458.93888,144.449452 458.419335,144.077976 458.067516,143.839071 C458.795698,142.767452 458.752062,141.651643 458.621835,140.97981 C460.031153,140.845857 463.562289,140.074595 463.562289,135.682476 C463.562289,132.473143 460.374107,131.26481 457.559562,130.198714 C455.357971,129.364619 453.279107,128.576786 453.211607,127.040476 C453.102516,124.549238 455.11388,124.264762 455.732289,124.237143 C455.790925,124.235071 455.847516,124.23369 455.902744,124.23369 C456.759107,124.23369 457.297062,124.557524 457.309335,125.078833 C457.315471,125.384024 457.119107,125.719595 456.815698,125.732714 C456.79388,125.734095 456.772744,125.734095 456.753653,125.734095 C456.494562,125.734095 456.489789,125.714071 456.420925,125.461357 C456.35888,125.228667 456.212289,124.68319 455.559107,124.68319 C455.544107,124.68319 455.525698,124.683881 455.507289,124.684571 C455.052516,124.705976 454.740925,125.071929 454.753198,125.577357 C454.770244,126.387286 455.57138,127.528643 456.835471,127.469952 C457.598425,127.435429 458.280244,127.081214 458.756153,126.472905 C459.161153,125.953667 459.387516,125.271476 459.360925,124.649357 C459.305698,123.375429 457.987744,122 455.958653,122 C455.890471,122 455.820925,122.001381 455.75138,122.004833 C453.405244,122.109786 450.725698,123.5225 450.885925,127.159238 C451.029789,130.471452 453.848425,131.519595 456.337062,132.442762 C458.445244,133.227143 460.267744,133.9045 460.348198,135.714929 C460.369335,136.215524 460.22888,136.622905 459.917971,136.961238 C459.206835,137.734571 457.831607,137.911333 457.357062,137.95069 C456.348653,137.164929 453.855925,136.2825 451.968653,136.2825 C451.879335,136.2825 451.790698,136.284571 451.704789,136.288714 C450.165244,136.357071 448.044107,136.788619 447.135244,136.986786 C446.883653,136.153381 446.195698,134.505214 444.719562,134.570119 C444.091607,134.598429 443.636153,134.814548 443.362062,135.213643 C443.127516,135.55681 443.094789,135.945548 443.116607,136.236238 C442.465471,136.578714 441.647289,137.332024 441.701153,138.560381 C441.735925,139.373762 442.125244,140.34319 443.772516,140.34319 C443.949107,140.34319 444.117516,140.334214 444.266153,140.326619 C444.307744,140.323857 444.350016,140.321095 444.388198,140.319714 C444.429789,140.365286 444.564107,140.55931 444.662289,141.257381 C444.745471,141.83669 444.775471,142.561 444.80138,143.200381 L444.814335,143.498667 C444.872971,144.80781 442.726607,146.790857 441.969107,146.825381 C441.53138,146.844714 441.260016,147.031143 441.129107,147.266595 L439.987062,147.266595 L438.432516,146.568524 L441.226607,133.180881 L441.255925,133.0345 L441.792516,130.464548 C442.367971,130.251881 443.777971,129.635286 444.849789,128.374476 C446.200471,126.785 446.472516,124.809548 446.483425,124.72669 C446.503198,124.569952 446.444562,124.412524 446.325244,124.309643 C446.207971,124.206762 446.045698,124.170857 445.895016,124.215048 C445.816607,124.237143 444.004335,124.781929 442.660471,126.297524 L442.967289,124.829571 C443.021153,124.577548 442.860244,124.328286 442.610698,124.275119 C442.359789,124.221262 442.115698,124.383524 442.061835,124.636929 L441.045244,129.505476 C440.640925,128.2785 440.026607,127.454071 439.990471,127.406429 C439.895698,127.280762 439.743653,127.213786 439.58888,127.224143 C439.433425,127.23519 439.293653,127.327024 439.217289,127.46581 C439.177744,127.53831 438.237516,129.292119 438.392289,131.382881 C438.547062,133.473643 439.733425,135.0645 439.784562,135.131476 C439.805698,135.159095 439.830925,135.183952 439.856835,135.206738 L439.569789,136.580095 C439.501607,136.299762 439.410925,136.012524 439.292289,135.726667 C438.567516,133.99219 437.107744,132.981333 437.04638,132.939214 C436.916835,132.850833 436.751153,132.834952 436.607289,132.895714 C436.463425,132.957167 436.360471,133.089048 436.333198,133.243714 C436.319562,133.318286 436.013425,135.083833 436.738198,136.816929 C437.405016,138.422976 438.706607,139.407595 438.945244,139.578833 L437.568653,146.180476 L436.300471,145.612214 C435.834107,145.401619 435.286607,145.615667 435.079335,146.087952 C434.872744,146.561619 435.083425,147.115381 435.551153,147.325286 L439.41638,149.061143 C439.533653,149.113619 439.661835,149.141238 439.79138,149.141238 L443.322516,149.141238 L446.15138,150.172119 C446.250244,150.208714 446.357289,150.228048 446.462971,150.228048 L463.490016,150.228048 C464.00138,150.228048 464.416607,149.808238 464.416607,149.290381 C464.416607,148.773214 464.00138,148.353405 463.490016,148.353405 L463.490016,148.353405 Z M439.698653,128.704524 C440.009562,129.297643 440.38388,130.201476 440.45888,131.226143 C440.535925,132.250119 440.298653,133.200905 440.077062,133.834071 C439.764107,133.240952 439.391153,132.336429 439.315471,131.313143 C439.240471,130.288476 439.47638,129.337 439.698653,128.704524 L439.698653,128.704524 Z M445.372062,125.433738 C445.180471,126.0745 444.813653,126.980405 444.148198,127.763405 C443.485471,128.542262 442.654335,129.044929 442.055016,129.333548 C442.247971,128.694167 442.613425,127.787571 443.27888,127.005262 C443.941607,126.225714 444.774107,125.723738 445.372062,125.433738 L445.372062,125.433738 Z M437.184789,134.2815 C437.597289,134.690952 438.114107,135.309619 438.437971,136.091238 C438.764562,136.872857 438.842289,137.680024 438.843653,138.265548 C438.431153,137.857476 437.917744,137.2395 437.589789,136.453738 C437.265244,135.672119 437.186153,134.867024 437.184789,134.2815 L437.184789,134.2815 Z M444.369789,146.283357 C444.798653,145.826952 445.79138,144.637262 445.739562,143.457238 L445.725925,143.161714 C445.649562,141.302952 445.569789,139.381357 444.413425,139.381357 C444.399789,139.381357 444.386153,139.382048 444.37388,139.382738 C444.324107,139.38481 444.272289,139.386881 444.217744,139.390333 C444.074562,139.397929 443.925244,139.405524 443.772516,139.405524 C442.955016,139.405524 442.654335,139.173524 442.62638,138.518952 C442.575244,137.38381 443.729562,136.982643 443.777289,136.966762 C444.017971,136.888048 444.150925,136.624286 444.077289,136.379857 C444.04388,136.269381 443.988653,135.942095 444.122971,135.746 C444.249107,135.566476 444.539562,135.516762 444.761153,135.507095 C444.774789,135.506405 444.787744,135.505714 444.802062,135.505714 C445.892971,135.505714 446.342971,137.611667 446.347062,137.632381 C446.370925,137.757357 446.44388,137.866452 446.54888,137.93481 C446.65388,138.003857 446.782062,138.028024 446.904789,137.999024 C446.933425,137.991429 449.864562,137.308548 451.745016,137.225 C453.614562,137.141452 456.204107,138.1385 456.890016,138.775119 C456.977289,138.856595 457.09388,138.901476 457.21388,138.897333 C457.30388,138.895262 459.459789,138.830357 460.592971,137.60269 C461.077062,137.078619 461.304789,136.429571 461.273425,135.6735 C461.165698,133.238881 458.872062,132.386833 456.654107,131.563786 C454.224107,130.659952 451.92638,129.807214 451.809789,127.1185 C451.680244,124.17569 453.782971,123.030881 455.791607,122.940429 C457.459335,122.864476 458.402289,123.929881 458.43638,124.690786 C458.452062,125.085738 458.30888,125.52419 458.047744,125.868738 C458.172516,125.629143 458.239335,125.351571 458.23388,125.05881 C458.224335,124.572024 458.00888,124.130119 457.625698,123.815262 C457.209789,123.471405 456.630925,123.296714 455.902744,123.296714 C455.834562,123.296714 455.764335,123.298095 455.69138,123.300857 C454.047516,123.374738 452.169789,124.409762 452.287744,127.082595 C452.380471,129.237571 454.73888,130.131048 457.235016,131.07631 C459.892062,132.082333 462.63638,133.122881 462.63638,135.682476 C462.63638,139.857786 458.860471,140.069071 458.102971,140.069071 C458.064107,140.069071 458.040244,140.069071 458.037516,140.068381 C457.880698,140.061476 457.73138,140.138119 457.640016,140.26931 C457.549335,140.4005 457.532971,140.570357 457.592289,140.718119 C457.619562,140.783024 458.229107,142.326238 457.047516,143.634 C456.952744,143.737571 456.910471,143.877048 456.929562,144.015143 C456.949335,144.153929 457.027744,144.276143 457.147062,144.350024 C458.533198,145.21381 460.50638,146.842643 460.547289,147.758905 C460.556153,147.992976 460.525471,148.188381 460.451835,148.353405 L459.579789,148.353405 C459.620016,147.884571 459.518425,147.415048 459.132516,147.058762 C458.882971,146.827452 458.501835,146.583024 458.060698,146.299929 C457.099335,145.683333 455.78138,144.83819 455.744562,143.987524 L455.69138,142.805429 L455.69138,142.804738 L455.69138,142.773667 L455.690016,142.773667 C455.660698,142.420143 455.377744,142.325548 455.229789,142.325548 C455.120698,142.325548 455.017744,142.364214 454.933198,142.433262 L452.315698,143.332952 C452.117289,143.399929 451.989789,143.594643 452.003425,143.805238 C452.055244,144.639333 452.017062,146.994548 451.237062,147.874214 C451.057744,148.075833 450.86138,148.175262 450.620698,148.18631 C450.474107,148.192524 450.344562,148.198048 450.229335,148.204262 C450.885925,146.792238 450.840244,144.361071 450.695016,141.035048 C450.684107,140.776119 450.467971,140.577262 450.212289,140.586929 C449.956607,140.597976 449.757516,140.817548 449.770471,141.075786 L449.770471,141.080619 C449.992062,146.176333 449.264562,147.914952 449.055244,148.30231 C449.03888,148.319571 449.019107,148.336833 448.999335,148.353405 L447.922744,148.353405 C448.808425,146.498786 448.312744,142.699095 448.246607,142.2275 C448.212516,141.979619 447.990925,141.804238 447.744789,141.827024 C447.498653,141.84981 447.314562,142.064548 447.325471,142.3145 C447.360244,143.090595 446.711835,144.452905 445.674107,145.784833 C445.109562,146.511214 444.557289,147.062214 444.090925,147.429548 L443.798425,147.322524 C443.697516,147.285238 443.592516,147.266595 443.483425,147.266595 L443.222289,147.266595 C443.648425,146.98281 444.054789,146.617548 444.369789,146.283357 L444.369789,146.283357 Z M445.097289,147.79619 C445.689107,147.250714 446.180698,146.648619 446.402971,146.364143 C446.625244,146.077595 447.098425,145.439595 447.510925,144.683524 C447.541607,146.178405 447.399789,147.696762 446.88638,148.265024 C446.861153,148.291952 446.84138,148.322333 446.825016,148.353405 L446.625244,148.353405 L445.097289,147.79619 L445.097289,147.79619 Z M452.891153,145.565262 C452.942289,144.973524 452.945698,144.441857 452.93888,144.108357 L454.794789,143.470357 L454.820016,144.029643 C454.878653,145.368476 456.368425,146.323405 457.565016,147.091905 C457.953653,147.340476 458.319107,147.575238 458.508653,147.750619 C458.660698,147.891476 458.686607,148.11519 458.649107,148.353405 L452.044335,148.353405 C452.493653,147.756833 452.777289,146.821929 452.891153,145.565262 L452.891153,145.565262 Z" id="Wildlife" fill="#206FAC" sketch:type="MSShapeGroup"></path>
            <path d="M463.490016,69.3534048 L461.419335,69.3534048 C461.463653,69.1559286 461.48138,68.9439524 461.471153,68.7167857 C461.43638,67.9137619 460.780471,66.9899048 459.467289,65.8913571 C458.93888,65.4494524 458.419335,65.0779762 458.067516,64.8390714 C458.795698,63.7674524 458.752062,62.6516429 458.621835,61.9798095 C460.031153,61.8458571 463.562289,61.0745952 463.562289,56.6824762 C463.562289,53.4731429 460.374107,52.2648095 457.559562,51.1987143 C455.357971,50.364619 453.279107,49.5767857 453.211607,48.0404762 C453.102516,45.5492381 455.11388,45.2647619 455.732289,45.2371429 C455.790925,45.2350714 455.847516,45.2336905 455.902744,45.2336905 C456.759107,45.2336905 457.297062,45.5575238 457.309335,46.0788333 C457.315471,46.3840238 457.119107,46.7195952 456.815698,46.7327143 C456.79388,46.7340952 456.772744,46.7340952 456.753653,46.7340952 C456.494562,46.7340952 456.489789,46.7140714 456.420925,46.4613571 C456.35888,46.2286667 456.212289,45.6831905 455.559107,45.6831905 C455.544107,45.6831905 455.525698,45.683881 455.507289,45.6845714 C455.052516,45.7059762 454.740925,46.0719286 454.753198,46.5773571 C454.770244,47.3872857 455.57138,48.5286429 456.835471,48.4699524 C457.598425,48.4354286 458.280244,48.0812143 458.756153,47.4729048 C459.161153,46.9536667 459.387516,46.2714762 459.360925,45.6493571 C459.305698,44.3754286 457.987744,43 455.958653,43 C455.890471,43 455.820925,43.001381 455.75138,43.0048333 C453.405244,43.1097857 450.725698,44.5225 450.885925,48.1592381 C451.029789,51.4714524 453.848425,52.5195952 456.337062,53.4427619 C458.445244,54.2271429 460.267744,54.9045 460.348198,56.7149286 C460.369335,57.2155238 460.22888,57.6229048 459.917971,57.9612381 C459.206835,58.7345714 457.831607,58.9113333 457.357062,58.9506905 C456.348653,58.1649286 453.855925,57.2825 451.968653,57.2825 C451.879335,57.2825 451.790698,57.2845714 451.704789,57.2887143 C450.165244,57.3570714 448.044107,57.788619 447.135244,57.9867857 C446.883653,57.153381 446.195698,55.5052143 444.719562,55.570119 C444.091607,55.5984286 443.636153,55.8145476 443.362062,56.2136429 C443.127516,56.5568095 443.094789,56.9455476 443.116607,57.2362381 C442.465471,57.5787143 441.647289,58.3320238 441.701153,59.560381 C441.735925,60.3737619 442.125244,61.3431905 443.772516,61.3431905 C443.949107,61.3431905 444.117516,61.3342143 444.266153,61.326619 C444.307744,61.3238571 444.350016,61.3210952 444.388198,61.3197143 C444.429789,61.3652857 444.564107,61.5593095 444.662289,62.257381 C444.745471,62.8366905 444.775471,63.561 444.80138,64.200381 L444.814335,64.4986667 C444.872971,65.8078095 442.726607,67.7908571 441.969107,67.825381 C441.53138,67.8447143 441.260016,68.0311429 441.129107,68.2665952 L439.987062,68.2665952 L438.432516,67.5685238 L441.226607,54.180881 L441.255925,54.0345 L441.792516,51.4645476 C442.367971,51.251881 443.777971,50.6352857 444.849789,49.3744762 C446.200471,47.785 446.472516,45.8095476 446.483425,45.7266905 C446.503198,45.5699524 446.444562,45.4125238 446.325244,45.3096429 C446.207971,45.2067619 446.045698,45.1708571 445.895016,45.2150476 C445.816607,45.2371429 444.004335,45.7819286 442.660471,47.2975238 L442.967289,45.8295714 C443.021153,45.5775476 442.860244,45.3282857 442.610698,45.275119 C442.359789,45.2212619 442.115698,45.3835238 442.061835,45.6369286 L441.045244,50.5054762 C440.640925,49.2785 440.026607,48.4540714 439.990471,48.4064286 C439.895698,48.2807619 439.743653,48.2137857 439.58888,48.2241429 C439.433425,48.2351905 439.293653,48.3270238 439.217289,48.4658095 C439.177744,48.5383095 438.237516,50.292119 438.392289,52.382881 C438.547062,54.4736429 439.733425,56.0645 439.784562,56.1314762 C439.805698,56.1590952 439.830925,56.1839524 439.856835,56.2067381 L439.569789,57.5800952 C439.501607,57.2997619 439.410925,57.0125238 439.292289,56.7266667 C438.567516,54.9921905 437.107744,53.9813333 437.04638,53.9392143 C436.916835,53.8508333 436.751153,53.8349524 436.607289,53.8957143 C436.463425,53.9571667 436.360471,54.0890476 436.333198,54.2437143 C436.319562,54.3182857 436.013425,56.0838333 436.738198,57.8169286 C437.405016,59.4229762 438.706607,60.4075952 438.945244,60.5788333 L437.568653,67.1804762 L436.300471,66.6122143 C435.834107,66.401619 435.286607,66.6156667 435.079335,67.0879524 C434.872744,67.561619 435.083425,68.115381 435.551153,68.3252857 L439.41638,70.0611429 C439.533653,70.113619 439.661835,70.1412381 439.79138,70.1412381 L443.322516,70.1412381 L446.15138,71.172119 C446.250244,71.2087143 446.357289,71.2280476 446.462971,71.2280476 L463.490016,71.2280476 C464.00138,71.2280476 464.416607,70.8082381 464.416607,70.290381 C464.416607,69.7732143 464.00138,69.3534048 463.490016,69.3534048 L463.490016,69.3534048 Z M439.698653,49.7045238 C440.009562,50.2976429 440.38388,51.2014762 440.45888,52.2261429 C440.535925,53.250119 440.298653,54.2009048 440.077062,54.8340714 C439.764107,54.2409524 439.391153,53.3364286 439.315471,52.3131429 C439.240471,51.2884762 439.47638,50.337 439.698653,49.7045238 L439.698653,49.7045238 Z M445.372062,46.4337381 C445.180471,47.0745 444.813653,47.9804048 444.148198,48.7634048 C443.485471,49.5422619 442.654335,50.0449286 442.055016,50.3335476 C442.247971,49.6941667 442.613425,48.7875714 443.27888,48.0052619 C443.941607,47.2257143 444.774107,46.7237381 445.372062,46.4337381 L445.372062,46.4337381 Z M437.184789,55.2815 C437.597289,55.6909524 438.114107,56.309619 438.437971,57.0912381 C438.764562,57.8728571 438.842289,58.6800238 438.843653,59.2655476 C438.431153,58.8574762 437.917744,58.2395 437.589789,57.4537381 C437.265244,56.672119 437.186153,55.8670238 437.184789,55.2815 L437.184789,55.2815 Z M444.369789,67.2833571 C444.798653,66.8269524 445.79138,65.6372619 445.739562,64.4572381 L445.725925,64.1617143 C445.649562,62.3029524 445.569789,60.3813571 444.413425,60.3813571 C444.399789,60.3813571 444.386153,60.3820476 444.37388,60.3827381 C444.324107,60.3848095 444.272289,60.386881 444.217744,60.3903333 C444.074562,60.3979286 443.925244,60.4055238 443.772516,60.4055238 C442.955016,60.4055238 442.654335,60.1735238 442.62638,59.5189524 C442.575244,58.3838095 443.729562,57.9826429 443.777289,57.9667619 C444.017971,57.8880476 444.150925,57.6242857 444.077289,57.3798571 C444.04388,57.269381 443.988653,56.9420952 444.122971,56.746 C444.249107,56.5664762 444.539562,56.5167619 444.761153,56.5070952 C444.774789,56.5064048 444.787744,56.5057143 444.802062,56.5057143 C445.892971,56.5057143 446.342971,58.6116667 446.347062,58.632381 C446.370925,58.7573571 446.44388,58.8664524 446.54888,58.9348095 C446.65388,59.0038571 446.782062,59.0280238 446.904789,58.9990238 C446.933425,58.9914286 449.864562,58.3085476 451.745016,58.225 C453.614562,58.1414524 456.204107,59.1385 456.890016,59.775119 C456.977289,59.8565952 457.09388,59.9014762 457.21388,59.8973333 C457.30388,59.8952619 459.459789,59.8303571 460.592971,58.6026905 C461.077062,58.078619 461.304789,57.4295714 461.273425,56.6735 C461.165698,54.238881 458.872062,53.3868333 456.654107,52.5637857 C454.224107,51.6599524 451.92638,50.8072143 451.809789,48.1185 C451.680244,45.1756905 453.782971,44.030881 455.791607,43.9404286 C457.459335,43.8644762 458.402289,44.929881 458.43638,45.6907857 C458.452062,46.0857381 458.30888,46.5241905 458.047744,46.8687381 C458.172516,46.6291429 458.239335,46.3515714 458.23388,46.0588095 C458.224335,45.5720238 458.00888,45.130119 457.625698,44.8152619 C457.209789,44.4714048 456.630925,44.2967143 455.902744,44.2967143 C455.834562,44.2967143 455.764335,44.2980952 455.69138,44.3008571 C454.047516,44.3747381 452.169789,45.4097619 452.287744,48.0825952 C452.380471,50.2375714 454.73888,51.1310476 457.235016,52.0763095 C459.892062,53.0823333 462.63638,54.122881 462.63638,56.6824762 C462.63638,60.8577857 458.860471,61.0690714 458.102971,61.0690714 C458.064107,61.0690714 458.040244,61.0690714 458.037516,61.068381 C457.880698,61.0614762 457.73138,61.138119 457.640016,61.2693095 C457.549335,61.4005 457.532971,61.5703571 457.592289,61.718119 C457.619562,61.7830238 458.229107,63.3262381 457.047516,64.634 C456.952744,64.7375714 456.910471,64.8770476 456.929562,65.0151429 C456.949335,65.1539286 457.027744,65.2761429 457.147062,65.3500238 C458.533198,66.2138095 460.50638,67.8426429 460.547289,68.7589048 C460.556153,68.9929762 460.525471,69.188381 460.451835,69.3534048 L459.579789,69.3534048 C459.620016,68.8845714 459.518425,68.4150476 459.132516,68.0587619 C458.882971,67.8274524 458.501835,67.5830238 458.060698,67.2999286 C457.099335,66.6833333 455.78138,65.8381905 455.744562,64.9875238 L455.69138,63.8054286 L455.69138,63.8047381 L455.69138,63.7736667 L455.690016,63.7736667 C455.660698,63.4201429 455.377744,63.3255476 455.229789,63.3255476 C455.120698,63.3255476 455.017744,63.3642143 454.933198,63.4332619 L452.315698,64.3329524 C452.117289,64.3999286 451.989789,64.5946429 452.003425,64.8052381 C452.055244,65.6393333 452.017062,67.9945476 451.237062,68.8742143 C451.057744,69.0758333 450.86138,69.1752619 450.620698,69.1863095 C450.474107,69.1925238 450.344562,69.1980476 450.229335,69.2042619 C450.885925,67.7922381 450.840244,65.3610714 450.695016,62.0350476 C450.684107,61.776119 450.467971,61.5772619 450.212289,61.5869286 C449.956607,61.5979762 449.757516,61.8175476 449.770471,62.0757857 L449.770471,62.080619 C449.992062,67.1763333 449.264562,68.9149524 449.055244,69.3023095 C449.03888,69.3195714 449.019107,69.3368333 448.999335,69.3534048 L447.922744,69.3534048 C448.808425,67.4987857 448.312744,63.6990952 448.246607,63.2275 C448.212516,62.979619 447.990925,62.8042381 447.744789,62.8270238 C447.498653,62.8498095 447.314562,63.0645476 447.325471,63.3145 C447.360244,64.0905952 446.711835,65.4529048 445.674107,66.7848333 C445.109562,67.5112143 444.557289,68.0622143 444.090925,68.4295476 L443.798425,68.3225238 C443.697516,68.2852381 443.592516,68.2665952 443.483425,68.2665952 L443.222289,68.2665952 C443.648425,67.9828095 444.054789,67.6175476 444.369789,67.2833571 L444.369789,67.2833571 Z M445.097289,68.7961905 C445.689107,68.2507143 446.180698,67.648619 446.402971,67.3641429 C446.625244,67.0775952 447.098425,66.4395952 447.510925,65.6835238 C447.541607,67.1784048 447.399789,68.6967619 446.88638,69.2650238 C446.861153,69.2919524 446.84138,69.3223333 446.825016,69.3534048 L446.625244,69.3534048 L445.097289,68.7961905 L445.097289,68.7961905 Z M452.891153,66.5652619 C452.942289,65.9735238 452.945698,65.4418571 452.93888,65.1083571 L454.794789,64.4703571 L454.820016,65.0296429 C454.878653,66.3684762 456.368425,67.3234048 457.565016,68.0919048 C457.953653,68.3404762 458.319107,68.5752381 458.508653,68.750619 C458.660698,68.8914762 458.686607,69.1151905 458.649107,69.3534048 L452.044335,69.3534048 C452.493653,68.7568333 452.777289,67.8219286 452.891153,66.5652619 L452.891153,66.5652619 Z" id="Wildlife-2" fill="#67737B" sketch:type="MSShapeGroup"></path>
            <path d="M463.490016,29.3534048 L461.419335,29.3534048 C461.463653,29.1559286 461.48138,28.9439524 461.471153,28.7167857 C461.43638,27.9137619 460.780471,26.9899048 459.467289,25.8913571 C458.93888,25.4494524 458.419335,25.0779762 458.067516,24.8390714 C458.795698,23.7674524 458.752062,22.6516429 458.621835,21.9798095 C460.031153,21.8458571 463.562289,21.0745952 463.562289,16.6824762 C463.562289,13.4731429 460.374107,12.2648095 457.559562,11.1987143 C455.357971,10.364619 453.279107,9.57678571 453.211607,8.04047619 C453.102516,5.5492381 455.11388,5.2647619 455.732289,5.23714286 C455.790925,5.23507143 455.847516,5.23369048 455.902744,5.23369048 C456.759107,5.23369048 457.297062,5.55752381 457.309335,6.07883333 C457.315471,6.38402381 457.119107,6.71959524 456.815698,6.73271429 C456.79388,6.73409524 456.772744,6.73409524 456.753653,6.73409524 C456.494562,6.73409524 456.489789,6.71407143 456.420925,6.46135714 C456.35888,6.22866667 456.212289,5.68319048 455.559107,5.68319048 C455.544107,5.68319048 455.525698,5.68388095 455.507289,5.68457143 C455.052516,5.70597619 454.740925,6.07192857 454.753198,6.57735714 C454.770244,7.38728571 455.57138,8.52864286 456.835471,8.46995238 C457.598425,8.43542857 458.280244,8.08121429 458.756153,7.47290476 C459.161153,6.95366667 459.387516,6.27147619 459.360925,5.64935714 C459.305698,4.37542857 457.987744,3 455.958653,3 C455.890471,3 455.820925,3.00138095 455.75138,3.00483333 C453.405244,3.10978571 450.725698,4.5225 450.885925,8.1592381 C451.029789,11.4714524 453.848425,12.5195952 456.337062,13.4427619 C458.445244,14.2271429 460.267744,14.9045 460.348198,16.7149286 C460.369335,17.2155238 460.22888,17.6229048 459.917971,17.9612381 C459.206835,18.7345714 457.831607,18.9113333 457.357062,18.9506905 C456.348653,18.1649286 453.855925,17.2825 451.968653,17.2825 C451.879335,17.2825 451.790698,17.2845714 451.704789,17.2887143 C450.165244,17.3570714 448.044107,17.788619 447.135244,17.9867857 C446.883653,17.153381 446.195698,15.5052143 444.719562,15.570119 C444.091607,15.5984286 443.636153,15.8145476 443.362062,16.2136429 C443.127516,16.5568095 443.094789,16.9455476 443.116607,17.2362381 C442.465471,17.5787143 441.647289,18.3320238 441.701153,19.560381 C441.735925,20.3737619 442.125244,21.3431905 443.772516,21.3431905 C443.949107,21.3431905 444.117516,21.3342143 444.266153,21.326619 C444.307744,21.3238571 444.350016,21.3210952 444.388198,21.3197143 C444.429789,21.3652857 444.564107,21.5593095 444.662289,22.257381 C444.745471,22.8366905 444.775471,23.561 444.80138,24.200381 L444.814335,24.4986667 C444.872971,25.8078095 442.726607,27.7908571 441.969107,27.825381 C441.53138,27.8447143 441.260016,28.0311429 441.129107,28.2665952 L439.987062,28.2665952 L438.432516,27.5685238 L441.226607,14.180881 L441.255925,14.0345 L441.792516,11.4645476 C442.367971,11.251881 443.777971,10.6352857 444.849789,9.37447619 C446.200471,7.785 446.472516,5.80954762 446.483425,5.72669048 C446.503198,5.56995238 446.444562,5.41252381 446.325244,5.30964286 C446.207971,5.2067619 446.045698,5.17085714 445.895016,5.21504762 C445.816607,5.23714286 444.004335,5.78192857 442.660471,7.29752381 L442.967289,5.82957143 C443.021153,5.57754762 442.860244,5.32828571 442.610698,5.27511905 C442.359789,5.2212619 442.115698,5.38352381 442.061835,5.63692857 L441.045244,10.5054762 C440.640925,9.2785 440.026607,8.45407143 439.990471,8.40642857 C439.895698,8.2807619 439.743653,8.21378571 439.58888,8.22414286 C439.433425,8.23519048 439.293653,8.32702381 439.217289,8.46580952 C439.177744,8.53830952 438.237516,10.292119 438.392289,12.382881 C438.547062,14.4736429 439.733425,16.0645 439.784562,16.1314762 C439.805698,16.1590952 439.830925,16.1839524 439.856835,16.2067381 L439.569789,17.5800952 C439.501607,17.2997619 439.410925,17.0125238 439.292289,16.7266667 C438.567516,14.9921905 437.107744,13.9813333 437.04638,13.9392143 C436.916835,13.8508333 436.751153,13.8349524 436.607289,13.8957143 C436.463425,13.9571667 436.360471,14.0890476 436.333198,14.2437143 C436.319562,14.3182857 436.013425,16.0838333 436.738198,17.8169286 C437.405016,19.4229762 438.706607,20.4075952 438.945244,20.5788333 L437.568653,27.1804762 L436.300471,26.6122143 C435.834107,26.401619 435.286607,26.6156667 435.079335,27.0879524 C434.872744,27.561619 435.083425,28.115381 435.551153,28.3252857 L439.41638,30.0611429 C439.533653,30.113619 439.661835,30.1412381 439.79138,30.1412381 L443.322516,30.1412381 L446.15138,31.172119 C446.250244,31.2087143 446.357289,31.2280476 446.462971,31.2280476 L463.490016,31.2280476 C464.00138,31.2280476 464.416607,30.8082381 464.416607,30.290381 C464.416607,29.7732143 464.00138,29.3534048 463.490016,29.3534048 L463.490016,29.3534048 Z M439.698653,9.70452381 C440.009562,10.2976429 440.38388,11.2014762 440.45888,12.2261429 C440.535925,13.250119 440.298653,14.2009048 440.077062,14.8340714 C439.764107,14.2409524 439.391153,13.3364286 439.315471,12.3131429 C439.240471,11.2884762 439.47638,10.337 439.698653,9.70452381 L439.698653,9.70452381 Z M445.372062,6.4337381 C445.180471,7.0745 444.813653,7.98040476 444.148198,8.76340476 C443.485471,9.5422619 442.654335,10.0449286 442.055016,10.3335476 C442.247971,9.69416667 442.613425,8.78757143 443.27888,8.0052619 C443.941607,7.22571429 444.774107,6.7237381 445.372062,6.4337381 L445.372062,6.4337381 Z M437.184789,15.2815 C437.597289,15.6909524 438.114107,16.309619 438.437971,17.0912381 C438.764562,17.8728571 438.842289,18.6800238 438.843653,19.2655476 C438.431153,18.8574762 437.917744,18.2395 437.589789,17.4537381 C437.265244,16.672119 437.186153,15.8670238 437.184789,15.2815 L437.184789,15.2815 Z M444.369789,27.2833571 C444.798653,26.8269524 445.79138,25.6372619 445.739562,24.4572381 L445.725925,24.1617143 C445.649562,22.3029524 445.569789,20.3813571 444.413425,20.3813571 C444.399789,20.3813571 444.386153,20.3820476 444.37388,20.3827381 C444.324107,20.3848095 444.272289,20.386881 444.217744,20.3903333 C444.074562,20.3979286 443.925244,20.4055238 443.772516,20.4055238 C442.955016,20.4055238 442.654335,20.1735238 442.62638,19.5189524 C442.575244,18.3838095 443.729562,17.9826429 443.777289,17.9667619 C444.017971,17.8880476 444.150925,17.6242857 444.077289,17.3798571 C444.04388,17.269381 443.988653,16.9420952 444.122971,16.746 C444.249107,16.5664762 444.539562,16.5167619 444.761153,16.5070952 C444.774789,16.5064048 444.787744,16.5057143 444.802062,16.5057143 C445.892971,16.5057143 446.342971,18.6116667 446.347062,18.632381 C446.370925,18.7573571 446.44388,18.8664524 446.54888,18.9348095 C446.65388,19.0038571 446.782062,19.0280238 446.904789,18.9990238 C446.933425,18.9914286 449.864562,18.3085476 451.745016,18.225 C453.614562,18.1414524 456.204107,19.1385 456.890016,19.775119 C456.977289,19.8565952 457.09388,19.9014762 457.21388,19.8973333 C457.30388,19.8952619 459.459789,19.8303571 460.592971,18.6026905 C461.077062,18.078619 461.304789,17.4295714 461.273425,16.6735 C461.165698,14.238881 458.872062,13.3868333 456.654107,12.5637857 C454.224107,11.6599524 451.92638,10.8072143 451.809789,8.1185 C451.680244,5.17569048 453.782971,4.03088095 455.791607,3.94042857 C457.459335,3.86447619 458.402289,4.92988095 458.43638,5.69078571 C458.452062,6.0857381 458.30888,6.52419048 458.047744,6.8687381 C458.172516,6.62914286 458.239335,6.35157143 458.23388,6.05880952 C458.224335,5.57202381 458.00888,5.13011905 457.625698,4.8152619 C457.209789,4.47140476 456.630925,4.29671429 455.902744,4.29671429 C455.834562,4.29671429 455.764335,4.29809524 455.69138,4.30085714 C454.047516,4.3747381 452.169789,5.4097619 452.287744,8.08259524 C452.380471,10.2375714 454.73888,11.1310476 457.235016,12.0763095 C459.892062,13.0823333 462.63638,14.122881 462.63638,16.6824762 C462.63638,20.8577857 458.860471,21.0690714 458.102971,21.0690714 C458.064107,21.0690714 458.040244,21.0690714 458.037516,21.068381 C457.880698,21.0614762 457.73138,21.138119 457.640016,21.2693095 C457.549335,21.4005 457.532971,21.5703571 457.592289,21.718119 C457.619562,21.7830238 458.229107,23.3262381 457.047516,24.634 C456.952744,24.7375714 456.910471,24.8770476 456.929562,25.0151429 C456.949335,25.1539286 457.027744,25.2761429 457.147062,25.3500238 C458.533198,26.2138095 460.50638,27.8426429 460.547289,28.7589048 C460.556153,28.9929762 460.525471,29.188381 460.451835,29.3534048 L459.579789,29.3534048 C459.620016,28.8845714 459.518425,28.4150476 459.132516,28.0587619 C458.882971,27.8274524 458.501835,27.5830238 458.060698,27.2999286 C457.099335,26.6833333 455.78138,25.8381905 455.744562,24.9875238 L455.69138,23.8054286 L455.69138,23.8047381 L455.69138,23.7736667 L455.690016,23.7736667 C455.660698,23.4201429 455.377744,23.3255476 455.229789,23.3255476 C455.120698,23.3255476 455.017744,23.3642143 454.933198,23.4332619 L452.315698,24.3329524 C452.117289,24.3999286 451.989789,24.5946429 452.003425,24.8052381 C452.055244,25.6393333 452.017062,27.9945476 451.237062,28.8742143 C451.057744,29.0758333 450.86138,29.1752619 450.620698,29.1863095 C450.474107,29.1925238 450.344562,29.1980476 450.229335,29.2042619 C450.885925,27.7922381 450.840244,25.3610714 450.695016,22.0350476 C450.684107,21.776119 450.467971,21.5772619 450.212289,21.5869286 C449.956607,21.5979762 449.757516,21.8175476 449.770471,22.0757857 L449.770471,22.080619 C449.992062,27.1763333 449.264562,28.9149524 449.055244,29.3023095 C449.03888,29.3195714 449.019107,29.3368333 448.999335,29.3534048 L447.922744,29.3534048 C448.808425,27.4987857 448.312744,23.6990952 448.246607,23.2275 C448.212516,22.979619 447.990925,22.8042381 447.744789,22.8270238 C447.498653,22.8498095 447.314562,23.0645476 447.325471,23.3145 C447.360244,24.0905952 446.711835,25.4529048 445.674107,26.7848333 C445.109562,27.5112143 444.557289,28.0622143 444.090925,28.4295476 L443.798425,28.3225238 C443.697516,28.2852381 443.592516,28.2665952 443.483425,28.2665952 L443.222289,28.2665952 C443.648425,27.9828095 444.054789,27.6175476 444.369789,27.2833571 L444.369789,27.2833571 Z M445.097289,28.7961905 C445.689107,28.2507143 446.180698,27.648619 446.402971,27.3641429 C446.625244,27.0775952 447.098425,26.4395952 447.510925,25.6835238 C447.541607,27.1784048 447.399789,28.6967619 446.88638,29.2650238 C446.861153,29.2919524 446.84138,29.3223333 446.825016,29.3534048 L446.625244,29.3534048 L445.097289,28.7961905 L445.097289,28.7961905 Z M452.891153,26.5652619 C452.942289,25.9735238 452.945698,25.4418571 452.93888,25.1083571 L454.794789,24.4703571 L454.820016,25.0296429 C454.878653,26.3684762 456.368425,27.3234048 457.565016,28.0919048 C457.953653,28.3404762 458.319107,28.5752381 458.508653,28.750619 C458.660698,28.8914762 458.686607,29.1151905 458.649107,29.3534048 L452.044335,29.3534048 C452.493653,28.7568333 452.777289,27.8219286 452.891153,26.5652619 L452.891153,26.5652619 Z" id="Wildlife-3" fill="#373D43" sketch:type="MSShapeGroup"></path>
            <path d="M463.490016,108.353405 L461.419335,108.353405 C461.463653,108.155929 461.48138,107.943952 461.471153,107.716786 C461.43638,106.913762 460.780471,105.989905 459.467289,104.891357 C458.93888,104.449452 458.419335,104.077976 458.067516,103.839071 C458.795698,102.767452 458.752062,101.651643 458.621835,100.97981 C460.031153,100.845857 463.562289,100.074595 463.562289,95.6824762 C463.562289,92.4731429 460.374107,91.2648095 457.559562,90.1987143 C455.357971,89.364619 453.279107,88.5767857 453.211607,87.0404762 C453.102516,84.5492381 455.11388,84.2647619 455.732289,84.2371429 C455.790925,84.2350714 455.847516,84.2336905 455.902744,84.2336905 C456.759107,84.2336905 457.297062,84.5575238 457.309335,85.0788333 C457.315471,85.3840238 457.119107,85.7195952 456.815698,85.7327143 C456.79388,85.7340952 456.772744,85.7340952 456.753653,85.7340952 C456.494562,85.7340952 456.489789,85.7140714 456.420925,85.4613571 C456.35888,85.2286667 456.212289,84.6831905 455.559107,84.6831905 C455.544107,84.6831905 455.525698,84.683881 455.507289,84.6845714 C455.052516,84.7059762 454.740925,85.0719286 454.753198,85.5773571 C454.770244,86.3872857 455.57138,87.5286429 456.835471,87.4699524 C457.598425,87.4354286 458.280244,87.0812143 458.756153,86.4729048 C459.161153,85.9536667 459.387516,85.2714762 459.360925,84.6493571 C459.305698,83.3754286 457.987744,82 455.958653,82 C455.890471,82 455.820925,82.001381 455.75138,82.0048333 C453.405244,82.1097857 450.725698,83.5225 450.885925,87.1592381 C451.029789,90.4714524 453.848425,91.5195952 456.337062,92.4427619 C458.445244,93.2271429 460.267744,93.9045 460.348198,95.7149286 C460.369335,96.2155238 460.22888,96.6229048 459.917971,96.9612381 C459.206835,97.7345714 457.831607,97.9113333 457.357062,97.9506905 C456.348653,97.1649286 453.855925,96.2825 451.968653,96.2825 C451.879335,96.2825 451.790698,96.2845714 451.704789,96.2887143 C450.165244,96.3570714 448.044107,96.788619 447.135244,96.9867857 C446.883653,96.153381 446.195698,94.5052143 444.719562,94.570119 C444.091607,94.5984286 443.636153,94.8145476 443.362062,95.2136429 C443.127516,95.5568095 443.094789,95.9455476 443.116607,96.2362381 C442.465471,96.5787143 441.647289,97.3320238 441.701153,98.560381 C441.735925,99.3737619 442.125244,100.34319 443.772516,100.34319 C443.949107,100.34319 444.117516,100.334214 444.266153,100.326619 C444.307744,100.323857 444.350016,100.321095 444.388198,100.319714 C444.429789,100.365286 444.564107,100.55931 444.662289,101.257381 C444.745471,101.83669 444.775471,102.561 444.80138,103.200381 L444.814335,103.498667 C444.872971,104.80781 442.726607,106.790857 441.969107,106.825381 C441.53138,106.844714 441.260016,107.031143 441.129107,107.266595 L439.987062,107.266595 L438.432516,106.568524 L441.226607,93.180881 L441.255925,93.0345 L441.792516,90.4645476 C442.367971,90.251881 443.777971,89.6352857 444.849789,88.3744762 C446.200471,86.785 446.472516,84.8095476 446.483425,84.7266905 C446.503198,84.5699524 446.444562,84.4125238 446.325244,84.3096429 C446.207971,84.2067619 446.045698,84.1708571 445.895016,84.2150476 C445.816607,84.2371429 444.004335,84.7819286 442.660471,86.2975238 L442.967289,84.8295714 C443.021153,84.5775476 442.860244,84.3282857 442.610698,84.275119 C442.359789,84.2212619 442.115698,84.3835238 442.061835,84.6369286 L441.045244,89.5054762 C440.640925,88.2785 440.026607,87.4540714 439.990471,87.4064286 C439.895698,87.2807619 439.743653,87.2137857 439.58888,87.2241429 C439.433425,87.2351905 439.293653,87.3270238 439.217289,87.4658095 C439.177744,87.5383095 438.237516,89.292119 438.392289,91.382881 C438.547062,93.4736429 439.733425,95.0645 439.784562,95.1314762 C439.805698,95.1590952 439.830925,95.1839524 439.856835,95.2067381 L439.569789,96.5800952 C439.501607,96.2997619 439.410925,96.0125238 439.292289,95.7266667 C438.567516,93.9921905 437.107744,92.9813333 437.04638,92.9392143 C436.916835,92.8508333 436.751153,92.8349524 436.607289,92.8957143 C436.463425,92.9571667 436.360471,93.0890476 436.333198,93.2437143 C436.319562,93.3182857 436.013425,95.0838333 436.738198,96.8169286 C437.405016,98.4229762 438.706607,99.4075952 438.945244,99.5788333 L437.568653,106.180476 L436.300471,105.612214 C435.834107,105.401619 435.286607,105.615667 435.079335,106.087952 C434.872744,106.561619 435.083425,107.115381 435.551153,107.325286 L439.41638,109.061143 C439.533653,109.113619 439.661835,109.141238 439.79138,109.141238 L443.322516,109.141238 L446.15138,110.172119 C446.250244,110.208714 446.357289,110.228048 446.462971,110.228048 L463.490016,110.228048 C464.00138,110.228048 464.416607,109.808238 464.416607,109.290381 C464.416607,108.773214 464.00138,108.353405 463.490016,108.353405 L463.490016,108.353405 Z M439.698653,88.7045238 C440.009562,89.2976429 440.38388,90.2014762 440.45888,91.2261429 C440.535925,92.250119 440.298653,93.2009048 440.077062,93.8340714 C439.764107,93.2409524 439.391153,92.3364286 439.315471,91.3131429 C439.240471,90.2884762 439.47638,89.337 439.698653,88.7045238 L439.698653,88.7045238 Z M445.372062,85.4337381 C445.180471,86.0745 444.813653,86.9804048 444.148198,87.7634048 C443.485471,88.5422619 442.654335,89.0449286 442.055016,89.3335476 C442.247971,88.6941667 442.613425,87.7875714 443.27888,87.0052619 C443.941607,86.2257143 444.774107,85.7237381 445.372062,85.4337381 L445.372062,85.4337381 Z M437.184789,94.2815 C437.597289,94.6909524 438.114107,95.309619 438.437971,96.0912381 C438.764562,96.8728571 438.842289,97.6800238 438.843653,98.2655476 C438.431153,97.8574762 437.917744,97.2395 437.589789,96.4537381 C437.265244,95.672119 437.186153,94.8670238 437.184789,94.2815 L437.184789,94.2815 Z M444.369789,106.283357 C444.798653,105.826952 445.79138,104.637262 445.739562,103.457238 L445.725925,103.161714 C445.649562,101.302952 445.569789,99.3813571 444.413425,99.3813571 C444.399789,99.3813571 444.386153,99.3820476 444.37388,99.3827381 C444.324107,99.3848095 444.272289,99.386881 444.217744,99.3903333 C444.074562,99.3979286 443.925244,99.4055238 443.772516,99.4055238 C442.955016,99.4055238 442.654335,99.1735238 442.62638,98.5189524 C442.575244,97.3838095 443.729562,96.9826429 443.777289,96.9667619 C444.017971,96.8880476 444.150925,96.6242857 444.077289,96.3798571 C444.04388,96.269381 443.988653,95.9420952 444.122971,95.746 C444.249107,95.5664762 444.539562,95.5167619 444.761153,95.5070952 C444.774789,95.5064048 444.787744,95.5057143 444.802062,95.5057143 C445.892971,95.5057143 446.342971,97.6116667 446.347062,97.632381 C446.370925,97.7573571 446.44388,97.8664524 446.54888,97.9348095 C446.65388,98.0038571 446.782062,98.0280238 446.904789,97.9990238 C446.933425,97.9914286 449.864562,97.3085476 451.745016,97.225 C453.614562,97.1414524 456.204107,98.1385 456.890016,98.775119 C456.977289,98.8565952 457.09388,98.9014762 457.21388,98.8973333 C457.30388,98.8952619 459.459789,98.8303571 460.592971,97.6026905 C461.077062,97.078619 461.304789,96.4295714 461.273425,95.6735 C461.165698,93.238881 458.872062,92.3868333 456.654107,91.5637857 C454.224107,90.6599524 451.92638,89.8072143 451.809789,87.1185 C451.680244,84.1756905 453.782971,83.030881 455.791607,82.9404286 C457.459335,82.8644762 458.402289,83.929881 458.43638,84.6907857 C458.452062,85.0857381 458.30888,85.5241905 458.047744,85.8687381 C458.172516,85.6291429 458.239335,85.3515714 458.23388,85.0588095 C458.224335,84.5720238 458.00888,84.130119 457.625698,83.8152619 C457.209789,83.4714048 456.630925,83.2967143 455.902744,83.2967143 C455.834562,83.2967143 455.764335,83.2980952 455.69138,83.3008571 C454.047516,83.3747381 452.169789,84.4097619 452.287744,87.0825952 C452.380471,89.2375714 454.73888,90.1310476 457.235016,91.0763095 C459.892062,92.0823333 462.63638,93.122881 462.63638,95.6824762 C462.63638,99.8577857 458.860471,100.069071 458.102971,100.069071 C458.064107,100.069071 458.040244,100.069071 458.037516,100.068381 C457.880698,100.061476 457.73138,100.138119 457.640016,100.26931 C457.549335,100.4005 457.532971,100.570357 457.592289,100.718119 C457.619562,100.783024 458.229107,102.326238 457.047516,103.634 C456.952744,103.737571 456.910471,103.877048 456.929562,104.015143 C456.949335,104.153929 457.027744,104.276143 457.147062,104.350024 C458.533198,105.21381 460.50638,106.842643 460.547289,107.758905 C460.556153,107.992976 460.525471,108.188381 460.451835,108.353405 L459.579789,108.353405 C459.620016,107.884571 459.518425,107.415048 459.132516,107.058762 C458.882971,106.827452 458.501835,106.583024 458.060698,106.299929 C457.099335,105.683333 455.78138,104.83819 455.744562,103.987524 L455.69138,102.805429 L455.69138,102.804738 L455.69138,102.773667 L455.690016,102.773667 C455.660698,102.420143 455.377744,102.325548 455.229789,102.325548 C455.120698,102.325548 455.017744,102.364214 454.933198,102.433262 L452.315698,103.332952 C452.117289,103.399929 451.989789,103.594643 452.003425,103.805238 C452.055244,104.639333 452.017062,106.994548 451.237062,107.874214 C451.057744,108.075833 450.86138,108.175262 450.620698,108.18631 C450.474107,108.192524 450.344562,108.198048 450.229335,108.204262 C450.885925,106.792238 450.840244,104.361071 450.695016,101.035048 C450.684107,100.776119 450.467971,100.577262 450.212289,100.586929 C449.956607,100.597976 449.757516,100.817548 449.770471,101.075786 L449.770471,101.080619 C449.992062,106.176333 449.264562,107.914952 449.055244,108.30231 C449.03888,108.319571 449.019107,108.336833 448.999335,108.353405 L447.922744,108.353405 C448.808425,106.498786 448.312744,102.699095 448.246607,102.2275 C448.212516,101.979619 447.990925,101.804238 447.744789,101.827024 C447.498653,101.84981 447.314562,102.064548 447.325471,102.3145 C447.360244,103.090595 446.711835,104.452905 445.674107,105.784833 C445.109562,106.511214 444.557289,107.062214 444.090925,107.429548 L443.798425,107.322524 C443.697516,107.285238 443.592516,107.266595 443.483425,107.266595 L443.222289,107.266595 C443.648425,106.98281 444.054789,106.617548 444.369789,106.283357 L444.369789,106.283357 Z M445.097289,107.79619 C445.689107,107.250714 446.180698,106.648619 446.402971,106.364143 C446.625244,106.077595 447.098425,105.439595 447.510925,104.683524 C447.541607,106.178405 447.399789,107.696762 446.88638,108.265024 C446.861153,108.291952 446.84138,108.322333 446.825016,108.353405 L446.625244,108.353405 L445.097289,107.79619 L445.097289,107.79619 Z M452.891153,105.565262 C452.942289,104.973524 452.945698,104.441857 452.93888,104.108357 L454.794789,103.470357 L454.820016,104.029643 C454.878653,105.368476 456.368425,106.323405 457.565016,107.091905 C457.953653,107.340476 458.319107,107.575238 458.508653,107.750619 C458.660698,107.891476 458.686607,108.11519 458.649107,108.353405 L452.044335,108.353405 C452.493653,107.756833 452.777289,106.821929 452.891153,105.565262 L452.891153,105.565262 Z" id="Wildlife-4" fill="#FFFFFF" sketch:type="MSShapeGroup"></path>
        </g>
    </g>
</svg>