<?xml version="1.0" encoding="UTF-8" standalone="no"?>
<svg width="32px" height="232px" viewBox="0 0 32 232" version="1.1" xmlns="http://www.w3.org/2000/svg" xmlns:xlink="http://www.w3.org/1999/xlink" xmlns:sketch="http://www.bohemiancoding.com/sketch/ns">
    <!-- Generator: Sketch 3.0.1 (7597) - http://www.bohemiancoding.com/sketch -->
    <title>wildlife</title>
    <description>Created with Sketch.</description>
    <defs></defs>
    <g id="Points-of-interest" stroke="none" stroke-width="1" fill="none" fill-rule="evenodd" sketch:type="MSPage">
        <path d="M29.4900164,27.3534048 L27.4193345,27.3534048 C27.4636527,27.1559286 27.48138,26.9439524 27.4711527,26.7167857 C27.43638,25.9137619 26.7804709,24.9899048 25.4672891,23.8913571 C24.93888,23.4494524 24.4193345,23.0779762 24.0675164,22.8390714 C24.7956982,21.7674524 24.7520618,20.6516429 24.6218345,19.9798095 C26.0311527,19.8458571 29.5622891,19.0745952 29.5622891,14.6824762 C29.5622891,11.4731429 26.3741073,10.2648095 23.5595618,9.19871429 C21.3579709,8.36461905 19.2791073,7.57678571 19.2116073,6.04047619 C19.1025164,3.5492381 21.11388,3.2647619 21.7322891,3.23714286 C21.7909255,3.23507143 21.8475164,3.23369048 21.9027436,3.23369048 C22.7591073,3.23369048 23.2970618,3.55752381 23.3093345,4.07883333 C23.3154709,4.38402381 23.1191073,4.71959524 22.8156982,4.73271429 C22.79388,4.73409524 22.7727436,4.73409524 22.7536527,4.73409524 C22.4945618,4.73409524 22.4897891,4.71407143 22.4209255,4.46135714 C22.35888,4.22866667 22.2122891,3.68319048 21.5591073,3.68319048 C21.5441073,3.68319048 21.5256982,3.68388095 21.5072891,3.68457143 C21.0525164,3.70597619 20.7409255,4.07192857 20.7531982,4.57735714 C20.7702436,5.38728571 21.57138,6.52864286 22.8354709,6.46995238 C23.5984255,6.43542857 24.2802436,6.08121429 24.7561527,5.47290476 C25.1611527,4.95366667 25.3875164,4.27147619 25.3609255,3.64935714 C25.3056982,2.37542857 23.9877436,1 21.9586527,1 C21.8904709,1 21.8209255,1.00138095 21.75138,1.00483333 C19.4052436,1.10978571 16.7256982,2.5225 16.8859255,6.1592381 C17.0297891,9.47145238 19.8484255,10.5195952 22.3370618,11.4427619 C24.4452436,12.2271429 26.2677436,12.9045 26.3481982,14.7149286 C26.3693345,15.2155238 26.22888,15.6229048 25.9179709,15.9612381 C25.2068345,16.7345714 23.8316073,16.9113333 23.3570618,16.9506905 C22.3486527,16.1649286 19.8559255,15.2825 17.9686527,15.2825 C17.8793345,15.2825 17.7906982,15.2845714 17.7047891,15.2887143 C16.1652436,15.3570714 14.0441073,15.788619 13.1352436,15.9867857 C12.8836527,15.153381 12.1956982,13.5052143 10.7195618,13.570119 C10.0916073,13.5984286 9.63615272,13.8145476 9.36206181,14.2136429 C9.12751636,14.5568095 9.09478909,14.9455476 9.11660727,15.2362381 C8.46547091,15.5787143 7.64728909,16.3320238 7.70115272,17.560381 C7.73592545,18.3737619 8.12524363,19.3431905 9.77251636,19.3431905 C9.94910727,19.3431905 10.1175164,19.3342143 10.2661527,19.326619 C10.3077436,19.3238571 10.3500164,19.3210952 10.3881982,19.3197143 C10.4297891,19.3652857 10.5641073,19.5593095 10.6622891,20.257381 C10.7454709,20.8366905 10.7754709,21.561 10.80138,22.200381 L10.8143345,22.4986667 C10.8729709,23.8078095 8.72660727,25.7908571 7.96910727,25.825381 C7.53138,25.8447143 7.26001636,26.0311429 7.12910727,26.2665952 L5.98706181,26.2665952 L4.43251636,25.5685238 L7.22660727,12.180881 L7.25592545,12.0345 L7.79251636,9.46454762 C8.36797091,9.25188095 9.77797091,8.63528571 10.8497891,7.37447619 C12.2004709,5.785 12.4725164,3.80954762 12.4834255,3.72669048 C12.5031982,3.56995238 12.4445618,3.41252381 12.3252436,3.30964286 C12.2079709,3.2067619 12.0456982,3.17085714 11.8950164,3.21504762 C11.8166073,3.23714286 10.0043345,3.78192857 8.66047091,5.29752381 L8.96728909,3.82957143 C9.02115272,3.57754762 8.86024363,3.32828571 8.61069818,3.27511905 C8.35978909,3.2212619 8.11569818,3.38352381 8.06183454,3.63692857 L7.04524363,8.50547619 C6.64092545,7.2785 6.02660727,6.45407143 5.99047091,6.40642857 C5.89569818,6.2807619 5.74365272,6.21378571 5.58888,6.22414286 C5.43342545,6.23519048 5.29365272,6.32702381 5.21728909,6.46580952 C5.17774363,6.53830952 4.23751636,8.29211905 4.39228909,10.382881 C4.54706181,12.4736429 5.73342545,14.0645 5.78456181,14.1314762 C5.80569818,14.1590952 5.83092545,14.1839524 5.85683454,14.2067381 L5.56978909,15.5800952 C5.50160727,15.2997619 5.41092545,15.0125238 5.29228909,14.7266667 C4.56751636,12.9921905 3.10774363,11.9813333 3.04638,11.9392143 C2.91683454,11.8508333 2.75115272,11.8349524 2.60728909,11.8957143 C2.46342545,11.9571667 2.36047091,12.0890476 2.33319818,12.2437143 C2.31956181,12.3182857 2.01342545,14.0838333 2.73819818,15.8169286 C3.40501636,17.4229762 4.70660727,18.4075952 4.94524363,18.5788333 L3.56865272,25.1804762 L2.30047091,24.6122143 C1.83410727,24.401619 1.28660727,24.6156667 1.07933454,25.0879524 C0.872743633,25.561619 1.08342545,26.115381 1.55115272,26.3252857 L5.41638,28.0611429 C5.53365272,28.113619 5.66183454,28.1412381 5.79138,28.1412381 L9.32251636,28.1412381 L12.15138,29.172119 C12.2502436,29.2087143 12.3572891,29.2280476 12.4629709,29.2280476 L29.4900164,29.2280476 C30.00138,29.2280476 30.4166073,28.8082381 30.4166073,28.290381 C30.4166073,27.7732143 30.00138,27.3534048 29.4900164,27.3534048 L29.4900164,27.3534048 Z M5.69865272,7.70452381 C6.00956181,8.29764286 6.38388,9.20147619 6.45888,10.2261429 C6.53592545,11.250119 6.29865272,12.2009048 6.07706181,12.8340714 C5.76410727,12.2409524 5.39115272,11.3364286 5.31547091,10.3131429 C5.24047091,9.28847619 5.47638,8.337 5.69865272,7.70452381 L5.69865272,7.70452381 Z M11.3720618,4.4337381 C11.1804709,5.0745 10.8136527,5.98040476 10.1481982,6.76340476 C9.48547091,7.5422619 8.65433454,8.04492857 8.05501636,8.33354762 C8.24797091,7.69416667 8.61342545,6.78757143 9.27888,6.0052619 C9.94160727,5.22571429 10.7741073,4.7237381 11.3720618,4.4337381 L11.3720618,4.4337381 Z M3.18478909,13.2815 C3.59728909,13.6909524 4.11410727,14.309619 4.43797091,15.0912381 C4.76456181,15.8728571 4.84228909,16.6800238 4.84365272,17.2655476 C4.43115272,16.8574762 3.91774363,16.2395 3.58978909,15.4537381 C3.26524363,14.672119 3.18615272,13.8670238 3.18478909,13.2815 L3.18478909,13.2815 Z M10.3697891,25.2833571 C10.7986527,24.8269524 11.79138,23.6372619 11.7395618,22.4572381 L11.7259255,22.1617143 C11.6495618,20.3029524 11.5697891,18.3813571 10.4134255,18.3813571 C10.3997891,18.3813571 10.3861527,18.3820476 10.37388,18.3827381 C10.3241073,18.3848095 10.2722891,18.386881 10.2177436,18.3903333 C10.0745618,18.3979286 9.92524363,18.4055238 9.77251636,18.4055238 C8.95501636,18.4055238 8.65433454,18.1735238 8.62638,17.5189524 C8.57524363,16.3838095 9.72956181,15.9826429 9.77728909,15.9667619 C10.0179709,15.8880476 10.1509255,15.6242857 10.0772891,15.3798571 C10.04388,15.269381 9.98865272,14.9420952 10.1229709,14.746 C10.2491073,14.5664762 10.5395618,14.5167619 10.7611527,14.5070952 C10.7747891,14.5064048 10.7877436,14.5057143 10.8020618,14.5057143 C11.8929709,14.5057143 12.3429709,16.6116667 12.3470618,16.632381 C12.3709255,16.7573571 12.44388,16.8664524 12.54888,16.9348095 C12.65388,17.0038571 12.7820618,17.0280238 12.9047891,16.9990238 C12.9334255,16.9914286 15.8645618,16.3085476 17.7450164,16.225 C19.6145618,16.1414524 22.2041073,17.1385 22.8900164,17.775119 C22.9772891,17.8565952 23.09388,17.9014762 23.21388,17.8973333 C23.30388,17.8952619 25.4597891,17.8303571 26.5929709,16.6026905 C27.0770618,16.078619 27.3047891,15.4295714 27.2734255,14.6735 C27.1656982,12.238881 24.8720618,11.3868333 22.6541073,10.5637857 C20.2241073,9.65995238 17.92638,8.80721429 17.8097891,6.1185 C17.6802436,3.17569048 19.7829709,2.03088095 21.7916073,1.94042857 C23.4593345,1.86447619 24.4022891,2.92988095 24.43638,3.69078571 C24.4520618,4.0857381 24.30888,4.52419048 24.0477436,4.8687381 C24.1725164,4.62914286 24.2393345,4.35157143 24.23388,4.05880952 C24.2243345,3.57202381 24.00888,3.13011905 23.6256982,2.8152619 C23.2097891,2.47140476 22.6309255,2.29671429 21.9027436,2.29671429 C21.8345618,2.29671429 21.7643345,2.29809524 21.69138,2.30085714 C20.0475164,2.3747381 18.1697891,3.4097619 18.2877436,6.08259524 C18.3804709,8.23757143 20.73888,9.13104762 23.2350164,10.0763095 C25.8920618,11.0823333 28.63638,12.122881 28.63638,14.6824762 C28.63638,18.8577857 24.8604709,19.0690714 24.1029709,19.0690714 C24.0641073,19.0690714 24.0402436,19.0690714 24.0375164,19.068381 C23.8806982,19.0614762 23.73138,19.138119 23.6400164,19.2693095 C23.5493345,19.4005 23.5329709,19.5703571 23.5922891,19.718119 C23.6195618,19.7830238 24.2291073,21.3262381 23.0475164,22.634 C22.9527436,22.7375714 22.9104709,22.8770476 22.9295618,23.0151429 C22.9493345,23.1539286 23.0277436,23.2761429 23.1470618,23.3500238 C24.5331982,24.2138095 26.50638,25.8426429 26.5472891,26.7589048 C26.5561527,26.9929762 26.5254709,27.188381 26.4518345,27.3534048 L25.5797891,27.3534048 C25.6200164,26.8845714 25.5184255,26.4150476 25.1325164,26.0587619 C24.8829709,25.8274524 24.5018345,25.5830238 24.0606982,25.2999286 C23.0993345,24.6833333 21.78138,23.8381905 21.7445618,22.9875238 L21.69138,21.8054286 L21.69138,21.8047381 L21.69138,21.7736667 L21.6900164,21.7736667 C21.6606982,21.4201429 21.3777436,21.3255476 21.2297891,21.3255476 C21.1206982,21.3255476 21.0177436,21.3642143 20.9331982,21.4332619 L18.3156982,22.3329524 C18.1172891,22.3999286 17.9897891,22.5946429 18.0034255,22.8052381 C18.0552436,23.6393333 18.0170618,25.9945476 17.2370618,26.8742143 C17.0577436,27.0758333 16.86138,27.1752619 16.6206982,27.1863095 C16.4741073,27.1925238 16.3445618,27.1980476 16.2293345,27.2042619 C16.8859255,25.7922381 16.8402436,23.3610714 16.6950164,20.0350476 C16.6841073,19.776119 16.4679709,19.5772619 16.2122891,19.5869286 C15.9566073,19.5979762 15.7575164,19.8175476 15.7704709,20.0757857 L15.7704709,20.080619 C15.9920618,25.1763333 15.2645618,26.9149524 15.0552436,27.3023095 C15.03888,27.3195714 15.0191073,27.3368333 14.9993345,27.3534048 L13.9227436,27.3534048 C14.8084255,25.4987857 14.3127436,21.6990952 14.2466073,21.2275 C14.2125164,20.979619 13.9909255,20.8042381 13.7447891,20.8270238 C13.4986527,20.8498095 13.3145618,21.0645476 13.3254709,21.3145 C13.3602436,22.0905952 12.7118345,23.4529048 11.6741073,24.7848333 C11.1095618,25.5112143 10.5572891,26.0622143 10.0909255,26.4295476 L9.79842545,26.3225238 C9.69751636,26.2852381 9.59251636,26.2665952 9.48342545,26.2665952 L9.22228909,26.2665952 C9.64842545,25.9828095 10.0547891,25.6175476 10.3697891,25.2833571 L10.3697891,25.2833571 Z M11.0972891,26.7961905 C11.6891073,26.2507143 12.1806982,25.648619 12.4029709,25.3641429 C12.6252436,25.0775952 13.0984255,24.4395952 13.5109255,23.6835238 C13.5416073,25.1784048 13.3997891,26.6967619 12.88638,27.2650238 C12.8611527,27.2919524 12.84138,27.3223333 12.8250164,27.3534048 L12.6252436,27.3534048 L11.0972891,26.7961905 L11.0972891,26.7961905 Z M18.8911527,24.5652619 C18.9422891,23.9735238 18.9456982,23.4418571 18.93888,23.1083571 L20.7947891,22.4703571 L20.8200164,23.0296429 C20.8786527,24.3684762 22.3684255,25.3234048 23.5650164,26.0919048 C23.9536527,26.3404762 24.3191073,26.5752381 24.5086527,26.750619 C24.6606982,26.8914762 24.6866073,27.1151905 24.6491073,27.3534048 L18.0443345,27.3534048 C18.4936527,26.7568333 18.7772891,25.8219286 18.8911527,24.5652619 L18.8911527,24.5652619 Z" id="Wildlife-3" fill="#3B444F" sketch:type="MSShapeGroup"></path>
        <path d="M29.4900164,67.3534048 L27.4193345,67.3534048 C27.4636527,67.1559286 27.48138,66.9439524 27.4711527,66.7167857 C27.43638,65.9137619 26.7804709,64.9899048 25.4672891,63.8913571 C24.93888,63.4494524 24.4193345,63.0779762 24.0675164,62.8390714 C24.7956982,61.7674524 24.7520618,60.6516429 24.6218345,59.9798095 C26.0311527,59.8458571 29.5622891,59.0745952 29.5622891,54.6824762 C29.5622891,51.4731429 26.3741073,50.2648095 23.5595618,49.1987143 C21.3579709,48.364619 19.2791073,47.5767857 19.2116073,46.0404762 C19.1025164,43.5492381 21.11388,43.2647619 21.7322891,43.2371429 C21.7909255,43.2350714 21.8475164,43.2336905 21.9027436,43.2336905 C22.7591073,43.2336905 23.2970618,43.5575238 23.3093345,44.0788333 C23.3154709,44.3840238 23.1191073,44.7195952 22.8156982,44.7327143 C22.79388,44.7340952 22.7727436,44.7340952 22.7536527,44.7340952 C22.4945618,44.7340952 22.4897891,44.7140714 22.4209255,44.4613571 C22.35888,44.2286667 22.2122891,43.6831905 21.5591073,43.6831905 C21.5441073,43.6831905 21.5256982,43.683881 21.5072891,43.6845714 C21.0525164,43.7059762 20.7409255,44.0719286 20.7531982,44.5773571 C20.7702436,45.3872857 21.57138,46.5286429 22.8354709,46.4699524 C23.5984255,46.4354286 24.2802436,46.0812143 24.7561527,45.4729048 C25.1611527,44.9536667 25.3875164,44.2714762 25.3609255,43.6493571 C25.3056982,42.3754286 23.9877436,41 21.9586527,41 C21.8904709,41 21.8209255,41.001381 21.75138,41.0048333 C19.4052436,41.1097857 16.7256982,42.5225 16.8859255,46.1592381 C17.0297891,49.4714524 19.8484255,50.5195952 22.3370618,51.4427619 C24.4452436,52.2271429 26.2677436,52.9045 26.3481982,54.7149286 C26.3693345,55.2155238 26.22888,55.6229048 25.9179709,55.9612381 C25.2068345,56.7345714 23.8316073,56.9113333 23.3570618,56.9506905 C22.3486527,56.1649286 19.8559255,55.2825 17.9686527,55.2825 C17.8793345,55.2825 17.7906982,55.2845714 17.7047891,55.2887143 C16.1652436,55.3570714 14.0441073,55.788619 13.1352436,55.9867857 C12.8836527,55.153381 12.1956982,53.5052143 10.7195618,53.570119 C10.0916073,53.5984286 9.63615272,53.8145476 9.36206181,54.2136429 C9.12751636,54.5568095 9.09478909,54.9455476 9.11660727,55.2362381 C8.46547091,55.5787143 7.64728909,56.3320238 7.70115272,57.560381 C7.73592545,58.3737619 8.12524363,59.3431905 9.77251636,59.3431905 C9.94910727,59.3431905 10.1175164,59.3342143 10.2661527,59.326619 C10.3077436,59.3238571 10.3500164,59.3210952 10.3881982,59.3197143 C10.4297891,59.3652857 10.5641073,59.5593095 10.6622891,60.257381 C10.7454709,60.8366905 10.7754709,61.561 10.80138,62.200381 L10.8143345,62.4986667 C10.8729709,63.8078095 8.72660727,65.7908571 7.96910727,65.825381 C7.53138,65.8447143 7.26001636,66.0311429 7.12910727,66.2665952 L5.98706181,66.2665952 L4.43251636,65.5685238 L7.22660727,52.180881 L7.25592545,52.0345 L7.79251636,49.4645476 C8.36797091,49.251881 9.77797091,48.6352857 10.8497891,47.3744762 C12.2004709,45.785 12.4725164,43.8095476 12.4834255,43.7266905 C12.5031982,43.5699524 12.4445618,43.4125238 12.3252436,43.3096429 C12.2079709,43.2067619 12.0456982,43.1708571 11.8950164,43.2150476 C11.8166073,43.2371429 10.0043345,43.7819286 8.66047091,45.2975238 L8.96728909,43.8295714 C9.02115272,43.5775476 8.86024363,43.3282857 8.61069818,43.275119 C8.35978909,43.2212619 8.11569818,43.3835238 8.06183454,43.6369286 L7.04524363,48.5054762 C6.64092545,47.2785 6.02660727,46.4540714 5.99047091,46.4064286 C5.89569818,46.2807619 5.74365272,46.2137857 5.58888,46.2241429 C5.43342545,46.2351905 5.29365272,46.3270238 5.21728909,46.4658095 C5.17774363,46.5383095 4.23751636,48.292119 4.39228909,50.382881 C4.54706181,52.4736429 5.73342545,54.0645 5.78456181,54.1314762 C5.80569818,54.1590952 5.83092545,54.1839524 5.85683454,54.2067381 L5.56978909,55.5800952 C5.50160727,55.2997619 5.41092545,55.0125238 5.29228909,54.7266667 C4.56751636,52.9921905 3.10774363,51.9813333 3.04638,51.9392143 C2.91683454,51.8508333 2.75115272,51.8349524 2.60728909,51.8957143 C2.46342545,51.9571667 2.36047091,52.0890476 2.33319818,52.2437143 C2.31956181,52.3182857 2.01342545,54.0838333 2.73819818,55.8169286 C3.40501636,57.4229762 4.70660727,58.4075952 4.94524363,58.5788333 L3.56865272,65.1804762 L2.30047091,64.6122143 C1.83410727,64.401619 1.28660727,64.6156667 1.07933454,65.0879524 C0.872743633,65.561619 1.08342545,66.115381 1.55115272,66.3252857 L5.41638,68.0611429 C5.53365272,68.113619 5.66183454,68.1412381 5.79138,68.1412381 L9.32251636,68.1412381 L12.15138,69.172119 C12.2502436,69.2087143 12.3572891,69.2280476 12.4629709,69.2280476 L29.4900164,69.2280476 C30.00138,69.2280476 30.4166073,68.8082381 30.4166073,68.290381 C30.4166073,67.7732143 30.00138,67.3534048 29.4900164,67.3534048 L29.4900164,67.3534048 Z M5.69865272,47.7045238 C6.00956181,48.2976429 6.38388,49.2014762 6.45888,50.2261429 C6.53592545,51.250119 6.29865272,52.2009048 6.07706181,52.8340714 C5.76410727,52.2409524 5.39115272,51.3364286 5.31547091,50.3131429 C5.24047091,49.2884762 5.47638,48.337 5.69865272,47.7045238 L5.69865272,47.7045238 Z M11.3720618,44.4337381 C11.1804709,45.0745 10.8136527,45.9804048 10.1481982,46.7634048 C9.48547091,47.5422619 8.65433454,48.0449286 8.05501636,48.3335476 C8.24797091,47.6941667 8.61342545,46.7875714 9.27888,46.0052619 C9.94160727,45.2257143 10.7741073,44.7237381 11.3720618,44.4337381 L11.3720618,44.4337381 Z M3.18478909,53.2815 C3.59728909,53.6909524 4.11410727,54.309619 4.43797091,55.0912381 C4.76456181,55.8728571 4.84228909,56.6800238 4.84365272,57.2655476 C4.43115272,56.8574762 3.91774363,56.2395 3.58978909,55.4537381 C3.26524363,54.672119 3.18615272,53.8670238 3.18478909,53.2815 L3.18478909,53.2815 Z M10.3697891,65.2833571 C10.7986527,64.8269524 11.79138,63.6372619 11.7395618,62.4572381 L11.7259255,62.1617143 C11.6495618,60.3029524 11.5697891,58.3813571 10.4134255,58.3813571 C10.3997891,58.3813571 10.3861527,58.3820476 10.37388,58.3827381 C10.3241073,58.3848095 10.2722891,58.386881 10.2177436,58.3903333 C10.0745618,58.3979286 9.92524363,58.4055238 9.77251636,58.4055238 C8.95501636,58.4055238 8.65433454,58.1735238 8.62638,57.5189524 C8.57524363,56.3838095 9.72956181,55.9826429 9.77728909,55.9667619 C10.0179709,55.8880476 10.1509255,55.6242857 10.0772891,55.3798571 C10.04388,55.269381 9.98865272,54.9420952 10.1229709,54.746 C10.2491073,54.5664762 10.5395618,54.5167619 10.7611527,54.5070952 C10.7747891,54.5064048 10.7877436,54.5057143 10.8020618,54.5057143 C11.8929709,54.5057143 12.3429709,56.6116667 12.3470618,56.632381 C12.3709255,56.7573571 12.44388,56.8664524 12.54888,56.9348095 C12.65388,57.0038571 12.7820618,57.0280238 12.9047891,56.9990238 C12.9334255,56.9914286 15.8645618,56.3085476 17.7450164,56.225 C19.6145618,56.1414524 22.2041073,57.1385 22.8900164,57.775119 C22.9772891,57.8565952 23.09388,57.9014762 23.21388,57.8973333 C23.30388,57.8952619 25.4597891,57.8303571 26.5929709,56.6026905 C27.0770618,56.078619 27.3047891,55.4295714 27.2734255,54.6735 C27.1656982,52.238881 24.8720618,51.3868333 22.6541073,50.5637857 C20.2241073,49.6599524 17.92638,48.8072143 17.8097891,46.1185 C17.6802436,43.1756905 19.7829709,42.030881 21.7916073,41.9404286 C23.4593345,41.8644762 24.4022891,42.929881 24.43638,43.6907857 C24.4520618,44.0857381 24.30888,44.5241905 24.0477436,44.8687381 C24.1725164,44.6291429 24.2393345,44.3515714 24.23388,44.0588095 C24.2243345,43.5720238 24.00888,43.130119 23.6256982,42.8152619 C23.2097891,42.4714048 22.6309255,42.2967143 21.9027436,42.2967143 C21.8345618,42.2967143 21.7643345,42.2980952 21.69138,42.3008571 C20.0475164,42.3747381 18.1697891,43.4097619 18.2877436,46.0825952 C18.3804709,48.2375714 20.73888,49.1310476 23.2350164,50.0763095 C25.8920618,51.0823333 28.63638,52.122881 28.63638,54.6824762 C28.63638,58.8577857 24.8604709,59.0690714 24.1029709,59.0690714 C24.0641073,59.0690714 24.0402436,59.0690714 24.0375164,59.068381 C23.8806982,59.0614762 23.73138,59.138119 23.6400164,59.2693095 C23.5493345,59.4005 23.5329709,59.5703571 23.5922891,59.718119 C23.6195618,59.7830238 24.2291073,61.3262381 23.0475164,62.634 C22.9527436,62.7375714 22.9104709,62.8770476 22.9295618,63.0151429 C22.9493345,63.1539286 23.0277436,63.2761429 23.1470618,63.3500238 C24.5331982,64.2138095 26.50638,65.8426429 26.5472891,66.7589048 C26.5561527,66.9929762 26.5254709,67.188381 26.4518345,67.3534048 L25.5797891,67.3534048 C25.6200164,66.8845714 25.5184255,66.4150476 25.1325164,66.0587619 C24.8829709,65.8274524 24.5018345,65.5830238 24.0606982,65.2999286 C23.0993345,64.6833333 21.78138,63.8381905 21.7445618,62.9875238 L21.69138,61.8054286 L21.69138,61.8047381 L21.69138,61.7736667 L21.6900164,61.7736667 C21.6606982,61.4201429 21.3777436,61.3255476 21.2297891,61.3255476 C21.1206982,61.3255476 21.0177436,61.3642143 20.9331982,61.4332619 L18.3156982,62.3329524 C18.1172891,62.3999286 17.9897891,62.5946429 18.0034255,62.8052381 C18.0552436,63.6393333 18.0170618,65.9945476 17.2370618,66.8742143 C17.0577436,67.0758333 16.86138,67.1752619 16.6206982,67.1863095 C16.4741073,67.1925238 16.3445618,67.1980476 16.2293345,67.2042619 C16.8859255,65.7922381 16.8402436,63.3610714 16.6950164,60.0350476 C16.6841073,59.776119 16.4679709,59.5772619 16.2122891,59.5869286 C15.9566073,59.5979762 15.7575164,59.8175476 15.7704709,60.0757857 L15.7704709,60.080619 C15.9920618,65.1763333 15.2645618,66.9149524 15.0552436,67.3023095 C15.03888,67.3195714 15.0191073,67.3368333 14.9993345,67.3534048 L13.9227436,67.3534048 C14.8084255,65.4987857 14.3127436,61.6990952 14.2466073,61.2275 C14.2125164,60.979619 13.9909255,60.8042381 13.7447891,60.8270238 C13.4986527,60.8498095 13.3145618,61.0645476 13.3254709,61.3145 C13.3602436,62.0905952 12.7118345,63.4529048 11.6741073,64.7848333 C11.1095618,65.5112143 10.5572891,66.0622143 10.0909255,66.4295476 L9.79842545,66.3225238 C9.69751636,66.2852381 9.59251636,66.2665952 9.48342545,66.2665952 L9.22228909,66.2665952 C9.64842545,65.9828095 10.0547891,65.6175476 10.3697891,65.2833571 L10.3697891,65.2833571 Z M11.0972891,66.7961905 C11.6891073,66.2507143 12.1806982,65.648619 12.4029709,65.3641429 C12.6252436,65.0775952 13.0984255,64.4395952 13.5109255,63.6835238 C13.5416073,65.1784048 13.3997891,66.6967619 12.88638,67.2650238 C12.8611527,67.2919524 12.84138,67.3223333 12.8250164,67.3534048 L12.6252436,67.3534048 L11.0972891,66.7961905 L11.0972891,66.7961905 Z M18.8911527,64.5652619 C18.9422891,63.9735238 18.9456982,63.4418571 18.93888,63.1083571 L20.7947891,62.4703571 L20.8200164,63.0296429 C20.8786527,64.3684762 22.3684255,65.3234048 23.5650164,66.0919048 C23.9536527,66.3404762 24.3191073,66.5752381 24.5086527,66.750619 C24.6606982,66.8914762 24.6866073,67.1151905 24.6491073,67.3534048 L18.0443345,67.3534048 C18.4936527,66.7568333 18.7772891,65.8219286 18.8911527,64.5652619 L18.8911527,64.5652619 Z" id="Wildlife-4" fill="#67747C" sketch:type="MSShapeGroup"></path>
        <path d="M29.4900164,107.353405 L27.4193345,107.353405 C27.4636527,107.155929 27.48138,106.943952 27.4711527,106.716786 C27.43638,105.913762 26.7804709,104.989905 25.4672891,103.891357 C24.93888,103.449452 24.4193345,103.077976 24.0675164,102.839071 C24.7956982,101.767452 24.7520618,100.651643 24.6218345,99.9798095 C26.0311527,99.8458571 29.5622891,99.0745952 29.5622891,94.6824762 C29.5622891,91.4731429 26.3741073,90.2648095 23.5595618,89.1987143 C21.3579709,88.364619 19.2791073,87.5767857 19.2116073,86.0404762 C19.1025164,83.5492381 21.11388,83.2647619 21.7322891,83.2371429 C21.7909255,83.2350714 21.8475164,83.2336905 21.9027436,83.2336905 C22.7591073,83.2336905 23.2970618,83.5575238 23.3093345,84.0788333 C23.3154709,84.3840238 23.1191073,84.7195952 22.8156982,84.7327143 C22.79388,84.7340952 22.7727436,84.7340952 22.7536527,84.7340952 C22.4945618,84.7340952 22.4897891,84.7140714 22.4209255,84.4613571 C22.35888,84.2286667 22.2122891,83.6831905 21.5591073,83.6831905 C21.5441073,83.6831905 21.5256982,83.683881 21.5072891,83.6845714 C21.0525164,83.7059762 20.7409255,84.0719286 20.7531982,84.5773571 C20.7702436,85.3872857 21.57138,86.5286429 22.8354709,86.4699524 C23.5984255,86.4354286 24.2802436,86.0812143 24.7561527,85.4729048 C25.1611527,84.9536667 25.3875164,84.2714762 25.3609255,83.6493571 C25.3056982,82.3754286 23.9877436,81 21.9586527,81 C21.8904709,81 21.8209255,81.001381 21.75138,81.0048333 C19.4052436,81.1097857 16.7256982,82.5225 16.8859255,86.1592381 C17.0297891,89.4714524 19.8484255,90.5195952 22.3370618,91.4427619 C24.4452436,92.2271429 26.2677436,92.9045 26.3481982,94.7149286 C26.3693345,95.2155238 26.22888,95.6229048 25.9179709,95.9612381 C25.2068345,96.7345714 23.8316073,96.9113333 23.3570618,96.9506905 C22.3486527,96.1649286 19.8559255,95.2825 17.9686527,95.2825 C17.8793345,95.2825 17.7906982,95.2845714 17.7047891,95.2887143 C16.1652436,95.3570714 14.0441073,95.788619 13.1352436,95.9867857 C12.8836527,95.153381 12.1956982,93.5052143 10.7195618,93.570119 C10.0916073,93.5984286 9.63615272,93.8145476 9.36206181,94.2136429 C9.12751636,94.5568095 9.09478909,94.9455476 9.11660727,95.2362381 C8.46547091,95.5787143 7.64728909,96.3320238 7.70115272,97.560381 C7.73592545,98.3737619 8.12524363,99.3431905 9.77251636,99.3431905 C9.94910727,99.3431905 10.1175164,99.3342143 10.2661527,99.326619 C10.3077436,99.3238571 10.3500164,99.3210952 10.3881982,99.3197143 C10.4297891,99.3652857 10.5641073,99.5593095 10.6622891,100.257381 C10.7454709,100.83669 10.7754709,101.561 10.80138,102.200381 L10.8143345,102.498667 C10.8729709,103.80781 8.72660727,105.790857 7.96910727,105.825381 C7.53138,105.844714 7.26001636,106.031143 7.12910727,106.266595 L5.98706181,106.266595 L4.43251636,105.568524 L7.22660727,92.180881 L7.25592545,92.0345 L7.79251636,89.4645476 C8.36797091,89.251881 9.77797091,88.6352857 10.8497891,87.3744762 C12.2004709,85.785 12.4725164,83.8095476 12.4834255,83.7266905 C12.5031982,83.5699524 12.4445618,83.4125238 12.3252436,83.3096429 C12.2079709,83.2067619 12.0456982,83.1708571 11.8950164,83.2150476 C11.8166073,83.2371429 10.0043345,83.7819286 8.66047091,85.2975238 L8.96728909,83.8295714 C9.02115272,83.5775476 8.86024363,83.3282857 8.61069818,83.275119 C8.35978909,83.2212619 8.11569818,83.3835238 8.06183454,83.6369286 L7.04524363,88.5054762 C6.64092545,87.2785 6.02660727,86.4540714 5.99047091,86.4064286 C5.89569818,86.2807619 5.74365272,86.2137857 5.58888,86.2241429 C5.43342545,86.2351905 5.29365272,86.3270238 5.21728909,86.4658095 C5.17774363,86.5383095 4.23751636,88.292119 4.39228909,90.382881 C4.54706181,92.4736429 5.73342545,94.0645 5.78456181,94.1314762 C5.80569818,94.1590952 5.83092545,94.1839524 5.85683454,94.2067381 L5.56978909,95.5800952 C5.50160727,95.2997619 5.41092545,95.0125238 5.29228909,94.7266667 C4.56751636,92.9921905 3.10774363,91.9813333 3.04638,91.9392143 C2.91683454,91.8508333 2.75115272,91.8349524 2.60728909,91.8957143 C2.46342545,91.9571667 2.36047091,92.0890476 2.33319818,92.2437143 C2.31956181,92.3182857 2.01342545,94.0838333 2.73819818,95.8169286 C3.40501636,97.4229762 4.70660727,98.4075952 4.94524363,98.5788333 L3.56865272,105.180476 L2.30047091,104.612214 C1.83410727,104.401619 1.28660727,104.615667 1.07933454,105.087952 C0.872743633,105.561619 1.08342545,106.115381 1.55115272,106.325286 L5.41638,108.061143 C5.53365272,108.113619 5.66183454,108.141238 5.79138,108.141238 L9.32251636,108.141238 L12.15138,109.172119 C12.2502436,109.208714 12.3572891,109.228048 12.4629709,109.228048 L29.4900164,109.228048 C30.00138,109.228048 30.4166073,108.808238 30.4166073,108.290381 C30.4166073,107.773214 30.00138,107.353405 29.4900164,107.353405 L29.4900164,107.353405 Z M5.69865272,87.7045238 C6.00956181,88.2976429 6.38388,89.2014762 6.45888,90.2261429 C6.53592545,91.250119 6.29865272,92.2009048 6.07706181,92.8340714 C5.76410727,92.2409524 5.39115272,91.3364286 5.31547091,90.3131429 C5.24047091,89.2884762 5.47638,88.337 5.69865272,87.7045238 L5.69865272,87.7045238 Z M11.3720618,84.4337381 C11.1804709,85.0745 10.8136527,85.9804048 10.1481982,86.7634048 C9.48547091,87.5422619 8.65433454,88.0449286 8.05501636,88.3335476 C8.24797091,87.6941667 8.61342545,86.7875714 9.27888,86.0052619 C9.94160727,85.2257143 10.7741073,84.7237381 11.3720618,84.4337381 L11.3720618,84.4337381 Z M3.18478909,93.2815 C3.59728909,93.6909524 4.11410727,94.309619 4.43797091,95.0912381 C4.76456181,95.8728571 4.84228909,96.6800238 4.84365272,97.2655476 C4.43115272,96.8574762 3.91774363,96.2395 3.58978909,95.4537381 C3.26524363,94.672119 3.18615272,93.8670238 3.18478909,93.2815 L3.18478909,93.2815 Z M10.3697891,105.283357 C10.7986527,104.826952 11.79138,103.637262 11.7395618,102.457238 L11.7259255,102.161714 C11.6495618,100.302952 11.5697891,98.3813571 10.4134255,98.3813571 C10.3997891,98.3813571 10.3861527,98.3820476 10.37388,98.3827381 C10.3241073,98.3848095 10.2722891,98.386881 10.2177436,98.3903333 C10.0745618,98.3979286 9.92524363,98.4055238 9.77251636,98.4055238 C8.95501636,98.4055238 8.65433454,98.1735238 8.62638,97.5189524 C8.57524363,96.3838095 9.72956181,95.9826429 9.77728909,95.9667619 C10.0179709,95.8880476 10.1509255,95.6242857 10.0772891,95.3798571 C10.04388,95.269381 9.98865272,94.9420952 10.1229709,94.746 C10.2491073,94.5664762 10.5395618,94.5167619 10.7611527,94.5070952 C10.7747891,94.5064048 10.7877436,94.5057143 10.8020618,94.5057143 C11.8929709,94.5057143 12.3429709,96.6116667 12.3470618,96.632381 C12.3709255,96.7573571 12.44388,96.8664524 12.54888,96.9348095 C12.65388,97.0038571 12.7820618,97.0280238 12.9047891,96.9990238 C12.9334255,96.9914286 15.8645618,96.3085476 17.7450164,96.225 C19.6145618,96.1414524 22.2041073,97.1385 22.8900164,97.775119 C22.9772891,97.8565952 23.09388,97.9014762 23.21388,97.8973333 C23.30388,97.8952619 25.4597891,97.8303571 26.5929709,96.6026905 C27.0770618,96.078619 27.3047891,95.4295714 27.2734255,94.6735 C27.1656982,92.238881 24.8720618,91.3868333 22.6541073,90.5637857 C20.2241073,89.6599524 17.92638,88.8072143 17.8097891,86.1185 C17.6802436,83.1756905 19.7829709,82.030881 21.7916073,81.9404286 C23.4593345,81.8644762 24.4022891,82.929881 24.43638,83.6907857 C24.4520618,84.0857381 24.30888,84.5241905 24.0477436,84.8687381 C24.1725164,84.6291429 24.2393345,84.3515714 24.23388,84.0588095 C24.2243345,83.5720238 24.00888,83.130119 23.6256982,82.8152619 C23.2097891,82.4714048 22.6309255,82.2967143 21.9027436,82.2967143 C21.8345618,82.2967143 21.7643345,82.2980952 21.69138,82.3008571 C20.0475164,82.3747381 18.1697891,83.4097619 18.2877436,86.0825952 C18.3804709,88.2375714 20.73888,89.1310476 23.2350164,90.0763095 C25.8920618,91.0823333 28.63638,92.122881 28.63638,94.6824762 C28.63638,98.8577857 24.8604709,99.0690714 24.1029709,99.0690714 C24.0641073,99.0690714 24.0402436,99.0690714 24.0375164,99.068381 C23.8806982,99.0614762 23.73138,99.138119 23.6400164,99.2693095 C23.5493345,99.4005 23.5329709,99.5703571 23.5922891,99.718119 C23.6195618,99.7830238 24.2291073,101.326238 23.0475164,102.634 C22.9527436,102.737571 22.9104709,102.877048 22.9295618,103.015143 C22.9493345,103.153929 23.0277436,103.276143 23.1470618,103.350024 C24.5331982,104.21381 26.50638,105.842643 26.5472891,106.758905 C26.5561527,106.992976 26.5254709,107.188381 26.4518345,107.353405 L25.5797891,107.353405 C25.6200164,106.884571 25.5184255,106.415048 25.1325164,106.058762 C24.8829709,105.827452 24.5018345,105.583024 24.0606982,105.299929 C23.0993345,104.683333 21.78138,103.83819 21.7445618,102.987524 L21.69138,101.805429 L21.69138,101.804738 L21.69138,101.773667 L21.6900164,101.773667 C21.6606982,101.420143 21.3777436,101.325548 21.2297891,101.325548 C21.1206982,101.325548 21.0177436,101.364214 20.9331982,101.433262 L18.3156982,102.332952 C18.1172891,102.399929 17.9897891,102.594643 18.0034255,102.805238 C18.0552436,103.639333 18.0170618,105.994548 17.2370618,106.874214 C17.0577436,107.075833 16.86138,107.175262 16.6206982,107.18631 C16.4741073,107.192524 16.3445618,107.198048 16.2293345,107.204262 C16.8859255,105.792238 16.8402436,103.361071 16.6950164,100.035048 C16.6841073,99.776119 16.4679709,99.5772619 16.2122891,99.5869286 C15.9566073,99.5979762 15.7575164,99.8175476 15.7704709,100.075786 L15.7704709,100.080619 C15.9920618,105.176333 15.2645618,106.914952 15.0552436,107.30231 C15.03888,107.319571 15.0191073,107.336833 14.9993345,107.353405 L13.9227436,107.353405 C14.8084255,105.498786 14.3127436,101.699095 14.2466073,101.2275 C14.2125164,100.979619 13.9909255,100.804238 13.7447891,100.827024 C13.4986527,100.84981 13.3145618,101.064548 13.3254709,101.3145 C13.3602436,102.090595 12.7118345,103.452905 11.6741073,104.784833 C11.1095618,105.511214 10.5572891,106.062214 10.0909255,106.429548 L9.79842545,106.322524 C9.69751636,106.285238 9.59251636,106.266595 9.48342545,106.266595 L9.22228909,106.266595 C9.64842545,105.98281 10.0547891,105.617548 10.3697891,105.283357 L10.3697891,105.283357 Z M11.0972891,106.79619 C11.6891073,106.250714 12.1806982,105.648619 12.4029709,105.364143 C12.6252436,105.077595 13.0984255,104.439595 13.5109255,103.683524 C13.5416073,105.178405 13.3997891,106.696762 12.88638,107.265024 C12.8611527,107.291952 12.84138,107.322333 12.8250164,107.353405 L12.6252436,107.353405 L11.0972891,106.79619 L11.0972891,106.79619 Z M18.8911527,104.565262 C18.9422891,103.973524 18.9456982,103.441857 18.93888,103.108357 L20.7947891,102.470357 L20.8200164,103.029643 C20.8786527,104.368476 22.3684255,105.323405 23.5650164,106.091905 C23.9536527,106.340476 24.3191073,106.575238 24.5086527,106.750619 C24.6606982,106.891476 24.6866073,107.11519 24.6491073,107.353405 L18.0443345,107.353405 C18.4936527,106.756833 18.7772891,105.821929 18.8911527,104.565262 L18.8911527,104.565262 Z" id="Wildlife-5" fill="#FFFFFF" sketch:type="MSShapeGroup"></path>
        <path d="M29.4900164,147.353405 L27.4193345,147.353405 C27.4636527,147.155929 27.48138,146.943952 27.4711527,146.716786 C27.43638,145.913762 26.7804709,144.989905 25.4672891,143.891357 C24.93888,143.449452 24.4193345,143.077976 24.0675164,142.839071 C24.7956982,141.767452 24.7520618,140.651643 24.6218345,139.97981 C26.0311527,139.845857 29.5622891,139.074595 29.5622891,134.682476 C29.5622891,131.473143 26.3741073,130.26481 23.5595618,129.198714 C21.3579709,128.364619 19.2791073,127.576786 19.2116073,126.040476 C19.1025164,123.549238 21.11388,123.264762 21.7322891,123.237143 C21.7909255,123.235071 21.8475164,123.23369 21.9027436,123.23369 C22.7591073,123.23369 23.2970618,123.557524 23.3093345,124.078833 C23.3154709,124.384024 23.1191073,124.719595 22.8156982,124.732714 C22.79388,124.734095 22.7727436,124.734095 22.7536527,124.734095 C22.4945618,124.734095 22.4897891,124.714071 22.4209255,124.461357 C22.35888,124.228667 22.2122891,123.68319 21.5591073,123.68319 C21.5441073,123.68319 21.5256982,123.683881 21.5072891,123.684571 C21.0525164,123.705976 20.7409255,124.071929 20.7531982,124.577357 C20.7702436,125.387286 21.57138,126.528643 22.8354709,126.469952 C23.5984255,126.435429 24.2802436,126.081214 24.7561527,125.472905 C25.1611527,124.953667 25.3875164,124.271476 25.3609255,123.649357 C25.3056982,122.375429 23.9877436,121 21.9586527,121 C21.8904709,121 21.8209255,121.001381 21.75138,121.004833 C19.4052436,121.109786 16.7256982,122.5225 16.8859255,126.159238 C17.0297891,129.471452 19.8484255,130.519595 22.3370618,131.442762 C24.4452436,132.227143 26.2677436,132.9045 26.3481982,134.714929 C26.3693345,135.215524 26.22888,135.622905 25.9179709,135.961238 C25.2068345,136.734571 23.8316073,136.911333 23.3570618,136.95069 C22.3486527,136.164929 19.8559255,135.2825 17.9686527,135.2825 C17.8793345,135.2825 17.7906982,135.284571 17.7047891,135.288714 C16.1652436,135.357071 14.0441073,135.788619 13.1352436,135.986786 C12.8836527,135.153381 12.1956982,133.505214 10.7195618,133.570119 C10.0916073,133.598429 9.63615272,133.814548 9.36206181,134.213643 C9.12751636,134.55681 9.09478909,134.945548 9.11660727,135.236238 C8.46547091,135.578714 7.64728909,136.332024 7.70115272,137.560381 C7.73592545,138.373762 8.12524363,139.34319 9.77251636,139.34319 C9.94910727,139.34319 10.1175164,139.334214 10.2661527,139.326619 C10.3077436,139.323857 10.3500164,139.321095 10.3881982,139.319714 C10.4297891,139.365286 10.5641073,139.55931 10.6622891,140.257381 C10.7454709,140.83669 10.7754709,141.561 10.80138,142.200381 L10.8143345,142.498667 C10.8729709,143.80781 8.72660727,145.790857 7.96910727,145.825381 C7.53138,145.844714 7.26001636,146.031143 7.12910727,146.266595 L5.98706181,146.266595 L4.43251636,145.568524 L7.22660727,132.180881 L7.25592545,132.0345 L7.79251636,129.464548 C8.36797091,129.251881 9.77797091,128.635286 10.8497891,127.374476 C12.2004709,125.785 12.4725164,123.809548 12.4834255,123.72669 C12.5031982,123.569952 12.4445618,123.412524 12.3252436,123.309643 C12.2079709,123.206762 12.0456982,123.170857 11.8950164,123.215048 C11.8166073,123.237143 10.0043345,123.781929 8.66047091,125.297524 L8.96728909,123.829571 C9.02115272,123.577548 8.86024363,123.328286 8.61069818,123.275119 C8.35978909,123.221262 8.11569818,123.383524 8.06183454,123.636929 L7.04524363,128.505476 C6.64092545,127.2785 6.02660727,126.454071 5.99047091,126.406429 C5.89569818,126.280762 5.74365272,126.213786 5.58888,126.224143 C5.43342545,126.23519 5.29365272,126.327024 5.21728909,126.46581 C5.17774363,126.53831 4.23751636,128.292119 4.39228909,130.382881 C4.54706181,132.473643 5.73342545,134.0645 5.78456181,134.131476 C5.80569818,134.159095 5.83092545,134.183952 5.85683454,134.206738 L5.56978909,135.580095 C5.50160727,135.299762 5.41092545,135.012524 5.29228909,134.726667 C4.56751636,132.99219 3.10774363,131.981333 3.04638,131.939214 C2.91683454,131.850833 2.75115272,131.834952 2.60728909,131.895714 C2.46342545,131.957167 2.36047091,132.089048 2.33319818,132.243714 C2.31956181,132.318286 2.01342545,134.083833 2.73819818,135.816929 C3.40501636,137.422976 4.70660727,138.407595 4.94524363,138.578833 L3.56865272,145.180476 L2.30047091,144.612214 C1.83410727,144.401619 1.28660727,144.615667 1.07933454,145.087952 C0.872743633,145.561619 1.08342545,146.115381 1.55115272,146.325286 L5.41638,148.061143 C5.53365272,148.113619 5.66183454,148.141238 5.79138,148.141238 L9.32251636,148.141238 L12.15138,149.172119 C12.2502436,149.208714 12.3572891,149.228048 12.4629709,149.228048 L29.4900164,149.228048 C30.00138,149.228048 30.4166073,148.808238 30.4166073,148.290381 C30.4166073,147.773214 30.00138,147.353405 29.4900164,147.353405 L29.4900164,147.353405 Z M5.69865272,127.704524 C6.00956181,128.297643 6.38388,129.201476 6.45888,130.226143 C6.53592545,131.250119 6.29865272,132.200905 6.07706181,132.834071 C5.76410727,132.240952 5.39115272,131.336429 5.31547091,130.313143 C5.24047091,129.288476 5.47638,128.337 5.69865272,127.704524 L5.69865272,127.704524 Z M11.3720618,124.433738 C11.1804709,125.0745 10.8136527,125.980405 10.1481982,126.763405 C9.48547091,127.542262 8.65433454,128.044929 8.05501636,128.333548 C8.24797091,127.694167 8.61342545,126.787571 9.27888,126.005262 C9.94160727,125.225714 10.7741073,124.723738 11.3720618,124.433738 L11.3720618,124.433738 Z M3.18478909,133.2815 C3.59728909,133.690952 4.11410727,134.309619 4.43797091,135.091238 C4.76456181,135.872857 4.84228909,136.680024 4.84365272,137.265548 C4.43115272,136.857476 3.91774363,136.2395 3.58978909,135.453738 C3.26524363,134.672119 3.18615272,133.867024 3.18478909,133.2815 L3.18478909,133.2815 Z M10.3697891,145.283357 C10.7986527,144.826952 11.79138,143.637262 11.7395618,142.457238 L11.7259255,142.161714 C11.6495618,140.302952 11.5697891,138.381357 10.4134255,138.381357 C10.3997891,138.381357 10.3861527,138.382048 10.37388,138.382738 C10.3241073,138.38481 10.2722891,138.386881 10.2177436,138.390333 C10.0745618,138.397929 9.92524363,138.405524 9.77251636,138.405524 C8.95501636,138.405524 8.65433454,138.173524 8.62638,137.518952 C8.57524363,136.38381 9.72956181,135.982643 9.77728909,135.966762 C10.0179709,135.888048 10.1509255,135.624286 10.0772891,135.379857 C10.04388,135.269381 9.98865272,134.942095 10.1229709,134.746 C10.2491073,134.566476 10.5395618,134.516762 10.7611527,134.507095 C10.7747891,134.506405 10.7877436,134.505714 10.8020618,134.505714 C11.8929709,134.505714 12.3429709,136.611667 12.3470618,136.632381 C12.3709255,136.757357 12.44388,136.866452 12.54888,136.93481 C12.65388,137.003857 12.7820618,137.028024 12.9047891,136.999024 C12.9334255,136.991429 15.8645618,136.308548 17.7450164,136.225 C19.6145618,136.141452 22.2041073,137.1385 22.8900164,137.775119 C22.9772891,137.856595 23.09388,137.901476 23.21388,137.897333 C23.30388,137.895262 25.4597891,137.830357 26.5929709,136.60269 C27.0770618,136.078619 27.3047891,135.429571 27.2734255,134.6735 C27.1656982,132.238881 24.8720618,131.386833 22.6541073,130.563786 C20.2241073,129.659952 17.92638,128.807214 17.8097891,126.1185 C17.6802436,123.17569 19.7829709,122.030881 21.7916073,121.940429 C23.4593345,121.864476 24.4022891,122.929881 24.43638,123.690786 C24.4520618,124.085738 24.30888,124.52419 24.0477436,124.868738 C24.1725164,124.629143 24.2393345,124.351571 24.23388,124.05881 C24.2243345,123.572024 24.00888,123.130119 23.6256982,122.815262 C23.2097891,122.471405 22.6309255,122.296714 21.9027436,122.296714 C21.8345618,122.296714 21.7643345,122.298095 21.69138,122.300857 C20.0475164,122.374738 18.1697891,123.409762 18.2877436,126.082595 C18.3804709,128.237571 20.73888,129.131048 23.2350164,130.07631 C25.8920618,131.082333 28.63638,132.122881 28.63638,134.682476 C28.63638,138.857786 24.8604709,139.069071 24.1029709,139.069071 C24.0641073,139.069071 24.0402436,139.069071 24.0375164,139.068381 C23.8806982,139.061476 23.73138,139.138119 23.6400164,139.26931 C23.5493345,139.4005 23.5329709,139.570357 23.5922891,139.718119 C23.6195618,139.783024 24.2291073,141.326238 23.0475164,142.634 C22.9527436,142.737571 22.9104709,142.877048 22.9295618,143.015143 C22.9493345,143.153929 23.0277436,143.276143 23.1470618,143.350024 C24.5331982,144.21381 26.50638,145.842643 26.5472891,146.758905 C26.5561527,146.992976 26.5254709,147.188381 26.4518345,147.353405 L25.5797891,147.353405 C25.6200164,146.884571 25.5184255,146.415048 25.1325164,146.058762 C24.8829709,145.827452 24.5018345,145.583024 24.0606982,145.299929 C23.0993345,144.683333 21.78138,143.83819 21.7445618,142.987524 L21.69138,141.805429 L21.69138,141.804738 L21.69138,141.773667 L21.6900164,141.773667 C21.6606982,141.420143 21.3777436,141.325548 21.2297891,141.325548 C21.1206982,141.325548 21.0177436,141.364214 20.9331982,141.433262 L18.3156982,142.332952 C18.1172891,142.399929 17.9897891,142.594643 18.0034255,142.805238 C18.0552436,143.639333 18.0170618,145.994548 17.2370618,146.874214 C17.0577436,147.075833 16.86138,147.175262 16.6206982,147.18631 C16.4741073,147.192524 16.3445618,147.198048 16.2293345,147.204262 C16.8859255,145.792238 16.8402436,143.361071 16.6950164,140.035048 C16.6841073,139.776119 16.4679709,139.577262 16.2122891,139.586929 C15.9566073,139.597976 15.7575164,139.817548 15.7704709,140.075786 L15.7704709,140.080619 C15.9920618,145.176333 15.2645618,146.914952 15.0552436,147.30231 C15.03888,147.319571 15.0191073,147.336833 14.9993345,147.353405 L13.9227436,147.353405 C14.8084255,145.498786 14.3127436,141.699095 14.2466073,141.2275 C14.2125164,140.979619 13.9909255,140.804238 13.7447891,140.827024 C13.4986527,140.84981 13.3145618,141.064548 13.3254709,141.3145 C13.3602436,142.090595 12.7118345,143.452905 11.6741073,144.784833 C11.1095618,145.511214 10.5572891,146.062214 10.0909255,146.429548 L9.79842545,146.322524 C9.69751636,146.285238 9.59251636,146.266595 9.48342545,146.266595 L9.22228909,146.266595 C9.64842545,145.98281 10.0547891,145.617548 10.3697891,145.283357 L10.3697891,145.283357 Z M11.0972891,146.79619 C11.6891073,146.250714 12.1806982,145.648619 12.4029709,145.364143 C12.6252436,145.077595 13.0984255,144.439595 13.5109255,143.683524 C13.5416073,145.178405 13.3997891,146.696762 12.88638,147.265024 C12.8611527,147.291952 12.84138,147.322333 12.8250164,147.353405 L12.6252436,147.353405 L11.0972891,146.79619 L11.0972891,146.79619 Z M18.8911527,144.565262 C18.9422891,143.973524 18.9456982,143.441857 18.93888,143.108357 L20.7947891,142.470357 L20.8200164,143.029643 C20.8786527,144.368476 22.3684255,145.323405 23.5650164,146.091905 C23.9536527,146.340476 24.3191073,146.575238 24.5086527,146.750619 C24.6606982,146.891476 24.6866073,147.11519 24.6491073,147.353405 L18.0443345,147.353405 C18.4936527,146.756833 18.7772891,145.821929 18.8911527,144.565262 L18.8911527,144.565262 Z" id="Wildlife-6" fill="#206FAC" sketch:type="MSShapeGroup"></path>
    </g>
</svg>