<svg width="32" height="232" viewBox="0 0 32 232" xmlns="http://www.w3.org/2000/svg" xmlns:sketch="http://www.bohemiancoding.com/sketch/ns"><title>wildlife</title><g sketch:type="MSPage" fill="none"><g sketch:type="MSLayerGroup"><path d="M29.49 151.353h-2.071c.044-.197.062-.409.052-.637-.035-.803-.691-1.727-2.004-2.825-.528-.442-1.048-.813-1.4-1.052.728-1.072.685-2.187.554-2.859 1.409-.134 4.94-.905 4.94-5.297 0-3.209-3.188-4.418-6.003-5.484-2.202-.834-4.28-1.622-4.348-3.158-.109-2.491 1.902-2.776 2.521-2.803l.17-.003c.856 0 1.394.324 1.407.845.006.305-.19.641-.494.654l-.062.001c-.259 0-.264-.02-.333-.273-.062-.233-.209-.778-.862-.778l-.052.001c-.455.021-.766.387-.754.893.017.81.818 1.951 2.082 1.893.763-.035 1.445-.389 1.921-.997.405-.519.631-1.201.605-1.824-.055-1.274-1.373-2.649-3.402-2.649l-.207.005c-2.346.105-5.026 1.518-4.865 5.154.144 3.312 2.963 4.36 5.451 5.284 2.108.784 3.931 1.462 4.011 3.272.021.501-.119.908-.43 1.246-.711.773-2.086.95-2.561.989-1.008-.786-3.501-1.668-5.388-1.668l-.264.006c-1.54.068-3.661.5-4.57.698-.252-.833-.94-2.482-2.416-2.417-.628.028-1.083.244-1.358.644-.235.343-.267.732-.245 1.023-.651.342-1.469 1.096-1.415 2.324.035.813.424 1.783 2.071 1.783l.494-.017.122-.007c.042.046.176.24.274.938.083.579.113 1.304.139 1.943l.013.298c.059 1.309-2.088 3.292-2.845 3.327-.438.019-.709.206-.84.441h-1.142l-1.555-.698 2.794-13.388.029-.146.537-2.57c.575-.213 1.985-.829 3.057-2.09 1.351-1.589 1.623-3.565 1.634-3.648.02-.157-.039-.314-.158-.417-.117-.103-.28-.139-.43-.095-.078.022-1.891.567-3.235 2.082l.307-1.468c.054-.252-.107-.501-.357-.554-.251-.054-.495.108-.549.362l-1.017 4.869c-.404-1.227-1.019-2.051-1.055-2.099-.095-.126-.247-.193-.402-.182-.155.011-.295.103-.372.242-.04.072-.98 1.826-.825 3.917.155 2.091 1.341 3.682 1.392 3.749l.072.075-.287 1.373c-.068-.28-.159-.568-.278-.853-.725-1.734-2.185-2.745-2.246-2.787-.13-.088-.295-.104-.439-.043-.144.061-.247.193-.274.348-.014.075-.32 1.84.405 3.573.667 1.606 1.968 2.591 2.207 2.762l-1.377 6.602-1.268-.568c-.466-.211-1.014.003-1.221.476-.207.474.004 1.027.472 1.237l3.865 1.736c.117.052.245.08.375.08h3.531l2.829 1.031c.099.037.206.056.312.056h17.027c.511 0 .927-.42.927-.938 0-.517-.415-.937-.927-.937zm-23.791-19.649c.311.593.685 1.497.76 2.522.077 1.024-.16 1.975-.382 2.608-.313-.593-.686-1.498-.762-2.521-.075-1.025.161-1.976.383-2.609zm5.673-3.271c-.192.641-.558 1.547-1.224 2.33-.663.779-1.494 1.282-2.093 1.57.193-.639.558-1.546 1.224-2.328.663-.78 1.495-1.282 2.093-1.572zm-8.187 8.848c.412.409.929 1.028 1.253 1.81.327.782.404 1.589.406 2.174-.413-.408-.926-1.026-1.254-1.812-.325-.782-.404-1.587-.405-2.172zm7.185 12.002c.429-.456 1.422-1.646 1.37-2.826l-.014-.296c-.076-1.859-.156-3.78-1.313-3.78l-.04.001-.156.008-.445.015c-.817 0-1.118-.232-1.146-.887-.051-1.135 1.103-1.536 1.151-1.552.241-.079.374-.342.3-.587-.033-.11-.089-.438.046-.634.126-.18.417-.229.638-.239l.041-.001c1.091 0 1.541 2.106 1.545 2.127.024.125.097.234.202.302.105.069.233.093.356.064.029-.008 2.96-.69 4.84-.774 1.87-.084 4.459.913 5.145 1.55.087.081.204.126.324.122.09-.002 2.246-.067 3.379-1.295.484-.524.712-1.173.68-1.929-.108-2.435-2.401-3.287-4.619-4.11-2.43-.904-4.728-1.757-4.844-4.445-.13-2.943 1.973-4.088 3.982-4.178 1.668-.076 2.611.989 2.645 1.75.016.395-.127.833-.389 1.178.125-.24.192-.517.186-.81-.01-.487-.225-.929-.608-1.244-.416-.344-.995-.519-1.723-.519l-.211.004c-1.644.074-3.522 1.109-3.404 3.782.093 2.155 2.451 3.048 4.947 3.994 2.657 1.006 5.401 2.047 5.401 4.606 0 4.175-3.776 4.387-4.533 4.387l-.065-.001c-.157-.007-.306.07-.397.201-.091.131-.107.301-.048.449.027.065.637 1.608-.545 2.916-.095.104-.137.243-.118.381.02.139.098.261.218.335 1.386.864 3.359 2.493 3.4 3.409.009.234-.022.429-.095.595h-.872c.04-.469-.061-.938-.447-1.295-.25-.231-.631-.476-1.072-.759-.961-.617-2.279-1.462-2.316-2.312l-.053-1.182v-.032h-.001c-.029-.354-.312-.448-.46-.448-.109 0-.212.039-.297.108l-2.618.9c-.198.067-.326.262-.312.472.052.834.014 3.189-.766 4.069-.179.202-.376.301-.616.312l-.391.018c.657-1.412.611-3.843.466-7.169-.011-.259-.227-.458-.483-.448-.256.011-.455.231-.442.489v.005c.222 5.096-.506 6.834-.715 7.222l-.056.051h-1.077c.886-1.855.39-5.654.324-6.126-.034-.248-.256-.423-.502-.4-.246.023-.43.238-.419.487.035.776-.614 2.138-1.651 3.47-.565.726-1.117 1.277-1.583 1.645l-.293-.107c-.101-.037-.206-.056-.315-.056h-.261c.426-.284.833-.649 1.148-.983zm.727 1.513c.592-.545 1.083-1.148 1.306-1.432.222-.287.695-.925 1.108-1.681.031 1.495-.111 3.013-.625 3.582l-.061.088h-.2l-1.528-.557zm7.794-2.231c.051-.592.055-1.123.048-1.457l1.856-.638.025.559c.059 1.339 1.548 2.294 2.745 3.062.389.249.754.483.944.659.152.141.178.365.14.603h-6.605c.449-.597.733-1.531.847-2.788z" fill="#206FAC" sketch:type="MSShapeGroup"/><path d="M29.49 112.353h-2.071c.044-.197.062-.409.052-.637-.035-.803-.691-1.727-2.004-2.825-.528-.442-1.048-.813-1.4-1.052.728-1.072.685-2.187.554-2.859 1.409-.134 4.94-.905 4.94-5.297 0-3.209-3.188-4.418-6.003-5.484-2.202-.834-4.28-1.622-4.348-3.158-.109-2.491 1.902-2.776 2.521-2.803l.17-.003c.856 0 1.394.324 1.407.845.006.305-.19.641-.494.654l-.062.001c-.259 0-.264-.02-.333-.273-.062-.233-.209-.778-.862-.778l-.052.001c-.455.021-.766.387-.754.893.017.81.818 1.951 2.082 1.893.763-.035 1.445-.389 1.921-.997.405-.519.631-1.201.605-1.824-.055-1.274-1.373-2.649-3.402-2.649l-.207.005c-2.346.105-5.026 1.518-4.865 5.154.144 3.312 2.963 4.36 5.451 5.284 2.108.784 3.931 1.462 4.011 3.272.021.501-.119.908-.43 1.246-.711.773-2.086.95-2.561.989-1.008-.786-3.501-1.668-5.388-1.668l-.264.006c-1.54.068-3.661.5-4.57.698-.252-.833-.94-2.482-2.416-2.417-.628.028-1.083.244-1.358.644-.235.343-.267.732-.245 1.023-.651.342-1.469 1.096-1.415 2.324.035.813.424 1.783 2.071 1.783l.494-.017.122-.007c.042.046.176.24.274.938.083.579.113 1.304.139 1.943l.013.298c.059 1.309-2.088 3.292-2.845 3.327-.438.019-.709.206-.84.441h-1.142l-1.555-.698 2.794-13.388.029-.146.537-2.57c.575-.213 1.985-.829 3.057-2.09 1.351-1.589 1.623-3.565 1.634-3.648.02-.157-.039-.314-.158-.417-.117-.103-.28-.139-.43-.095-.078.022-1.891.567-3.235 2.082l.307-1.468c.054-.252-.107-.501-.357-.554-.251-.054-.495.108-.549.362l-1.017 4.869c-.404-1.227-1.019-2.051-1.055-2.099-.095-.126-.247-.193-.402-.182-.155.011-.295.103-.372.242-.04.072-.98 1.826-.825 3.917.155 2.091 1.341 3.682 1.392 3.749l.072.075-.287 1.373c-.068-.28-.159-.568-.278-.853-.725-1.734-2.185-2.745-2.246-2.787-.13-.088-.295-.104-.439-.044-.144.061-.247.193-.274.348-.014.075-.32 1.84.405 3.573.667 1.606 1.968 2.591 2.207 2.762l-1.377 6.602-1.268-.568c-.466-.211-1.014.003-1.221.476-.207.474.004 1.027.472 1.237l3.865 1.736c.117.052.245.08.375.08h3.531l2.829 1.031c.099.037.206.056.312.056h17.027c.511 0 .927-.42.927-.938 0-.517-.415-.937-.927-.937zm-23.791-19.649c.311.593.685 1.497.76 2.522.077 1.024-.16 1.975-.382 2.608-.313-.593-.686-1.498-.762-2.521-.075-1.025.161-1.976.383-2.609zm5.673-3.271c-.192.641-.558 1.547-1.224 2.33-.663.779-1.494 1.282-2.093 1.57.193-.639.558-1.546 1.224-2.328.663-.78 1.495-1.282 2.093-1.572zm-8.187 8.848c.412.409.929 1.028 1.253 1.81.327.782.404 1.589.406 2.174-.413-.408-.926-1.026-1.254-1.812-.325-.782-.404-1.587-.405-2.172zm7.185 12.002c.429-.456 1.422-1.646 1.37-2.826l-.014-.296c-.076-1.859-.156-3.78-1.313-3.78l-.04.001-.156.008-.445.015c-.817 0-1.118-.232-1.146-.887-.051-1.135 1.103-1.536 1.151-1.552.241-.079.374-.342.3-.587-.033-.11-.089-.438.046-.634.126-.18.417-.229.638-.239l.041-.001c1.091 0 1.541 2.106 1.545 2.127.024.125.097.234.202.302.105.069.233.093.356.064.029-.008 2.96-.69 4.84-.774 1.87-.084 4.459.913 5.145 1.55.087.081.204.126.324.122.09-.002 2.246-.067 3.379-1.295.484-.524.712-1.173.68-1.929-.108-2.435-2.401-3.287-4.619-4.11-2.43-.904-4.728-1.757-4.844-4.445-.13-2.943 1.973-4.088 3.982-4.178 1.668-.076 2.611.989 2.645 1.75.016.395-.127.833-.389 1.178.125-.24.192-.517.186-.81-.01-.487-.225-.929-.608-1.244-.416-.344-.995-.519-1.723-.519l-.211.004c-1.644.074-3.522 1.109-3.404 3.782.093 2.155 2.451 3.048 4.947 3.994 2.657 1.006 5.401 2.047 5.401 4.606 0 4.175-3.776 4.387-4.533 4.387l-.065-.001c-.157-.007-.306.07-.397.201-.091.131-.107.301-.048.449.027.065.637 1.608-.545 2.916-.095.104-.137.243-.118.381.02.139.098.261.218.335 1.386.864 3.359 2.493 3.4 3.409.009.234-.022.429-.095.594h-.872c.04-.469-.061-.938-.447-1.295-.25-.231-.631-.476-1.072-.759-.961-.617-2.279-1.462-2.316-2.312l-.053-1.182v-.032h-.001c-.029-.354-.312-.448-.46-.448-.109 0-.212.039-.297.108l-2.618.9c-.198.067-.326.262-.312.472.052.834.014 3.189-.766 4.069-.179.202-.376.301-.616.312l-.391.018c.657-1.412.611-3.843.466-7.169-.011-.259-.227-.458-.483-.448-.256.011-.455.231-.442.489v.005c.222 5.096-.506 6.834-.715 7.222l-.056.051h-1.077c.886-1.855.39-5.654.324-6.126-.034-.248-.256-.423-.502-.4-.246.023-.43.238-.419.487.035.776-.614 2.138-1.651 3.47-.565.726-1.117 1.277-1.583 1.645l-.293-.107c-.101-.037-.206-.056-.315-.056h-.261c.426-.284.833-.649 1.148-.983zm.727 1.513c.592-.545 1.083-1.148 1.306-1.432.222-.287.695-.925 1.108-1.681.031 1.495-.111 3.013-.625 3.581l-.061.088h-.2l-1.528-.557zm7.794-2.231c.051-.592.055-1.123.048-1.457l1.856-.638.025.559c.059 1.339 1.548 2.294 2.745 3.062.389.249.754.483.944.659.152.141.178.365.14.603h-6.605c.449-.597.733-1.531.847-2.788z" fill="#67737B" sketch:type="MSShapeGroup"/><path d="M29.49 72.353h-2.071c.044-.197.062-.409.052-.637-.035-.803-.691-1.727-2.004-2.825-.528-.442-1.048-.813-1.4-1.052.728-1.072.685-2.187.554-2.859 1.409-.134 4.94-.905 4.94-5.297 0-3.209-3.188-4.418-6.003-5.484-2.202-.834-4.28-1.622-4.348-3.158-.109-2.491 1.902-2.776 2.521-2.803l.17-.003c.856 0 1.394.324 1.407.845.006.305-.19.641-.494.654l-.062.001c-.259 0-.264-.02-.333-.273-.062-.233-.209-.778-.862-.778l-.052.001c-.455.021-.766.387-.754.893.017.81.818 1.951 2.082 1.893.763-.035 1.445-.389 1.921-.997.405-.519.631-1.201.605-1.824-.055-1.274-1.373-2.649-3.402-2.649l-.207.005c-2.346.105-5.026 1.518-4.865 5.154.144 3.312 2.963 4.36 5.451 5.284 2.108.784 3.931 1.462 4.011 3.272.021.501-.119.908-.43 1.246-.711.773-2.086.95-2.561.989-1.008-.786-3.501-1.668-5.388-1.668l-.264.006c-1.54.068-3.661.5-4.57.698-.252-.833-.94-2.482-2.416-2.417-.628.028-1.083.244-1.358.644-.235.343-.267.732-.245 1.023-.651.342-1.469 1.096-1.415 2.324.035.813.424 1.783 2.071 1.783l.494-.017.122-.007c.042.046.176.24.274.938.083.579.113 1.304.139 1.943l.013.298c.059 1.309-2.088 3.292-2.845 3.327-.438.019-.709.206-.84.441h-1.142l-1.555-.698 2.794-13.388.029-.146.537-2.57c.575-.213 1.985-.829 3.057-2.09 1.351-1.589 1.623-3.565 1.634-3.648.02-.157-.039-.314-.158-.417-.117-.103-.28-.139-.43-.095-.078.022-1.891.567-3.235 2.082l.307-1.468c.054-.252-.107-.501-.357-.554-.251-.054-.495.108-.549.362l-1.017 4.869c-.404-1.227-1.019-2.051-1.055-2.099-.095-.126-.247-.193-.402-.182-.155.011-.295.103-.372.242-.04.072-.98 1.826-.825 3.917.155 2.091 1.341 3.682 1.392 3.749l.072.075-.287 1.373c-.068-.28-.159-.568-.278-.853-.725-1.734-2.185-2.745-2.246-2.787-.13-.088-.295-.104-.439-.044-.144.061-.247.193-.274.348-.014.075-.32 1.84.405 3.573.667 1.606 1.968 2.591 2.207 2.762l-1.377 6.602-1.268-.568c-.466-.211-1.014.003-1.221.476-.207.474.004 1.027.472 1.237l3.865 1.736c.117.052.245.08.375.08h3.531l2.829 1.031c.099.037.206.056.312.056h17.027c.511 0 .927-.42.927-.938 0-.517-.415-.937-.927-.937zm-23.791-19.649c.311.593.685 1.497.76 2.522.077 1.024-.16 1.975-.382 2.608-.313-.593-.686-1.498-.762-2.521-.075-1.025.161-1.976.383-2.609zm5.673-3.271c-.192.641-.558 1.547-1.224 2.33-.663.779-1.494 1.282-2.093 1.57.193-.639.558-1.546 1.224-2.328.663-.78 1.495-1.282 2.093-1.572zm-8.187 8.848c.412.409.929 1.028 1.253 1.81.327.782.404 1.589.406 2.174-.413-.408-.926-1.026-1.254-1.812-.325-.782-.404-1.587-.405-2.172zm7.185 12.002c.429-.456 1.422-1.646 1.37-2.826l-.014-.296c-.076-1.859-.156-3.78-1.313-3.78l-.04.001-.156.008-.445.015c-.817 0-1.118-.232-1.146-.887-.051-1.135 1.103-1.536 1.151-1.552.241-.079.374-.342.3-.587-.033-.11-.089-.438.046-.634.126-.18.417-.229.638-.239l.041-.001c1.091 0 1.541 2.106 1.545 2.127.024.125.097.234.202.302.105.069.233.093.356.064.029-.008 2.96-.69 4.84-.774 1.87-.084 4.459.913 5.145 1.55.087.081.204.126.324.122.09-.002 2.246-.067 3.379-1.295.484-.524.712-1.173.68-1.929-.108-2.435-2.401-3.287-4.619-4.11-2.43-.904-4.728-1.757-4.844-4.445-.13-2.943 1.973-4.088 3.982-4.178 1.668-.076 2.611.989 2.645 1.75.016.395-.127.833-.389 1.178.125-.24.192-.517.186-.81-.01-.487-.225-.929-.608-1.244-.416-.344-.995-.519-1.723-.519l-.211.004c-1.644.074-3.522 1.109-3.404 3.782.093 2.155 2.451 3.048 4.947 3.994 2.657 1.006 5.401 2.047 5.401 4.606 0 4.175-3.776 4.387-4.533 4.387l-.065-.001c-.157-.007-.306.07-.397.201-.091.131-.107.301-.048.449.027.065.637 1.608-.545 2.916-.095.104-.137.243-.118.381.02.139.098.261.218.335 1.386.864 3.359 2.493 3.4 3.409.009.234-.022.429-.095.595h-.872c.04-.469-.061-.938-.447-1.295-.25-.231-.631-.476-1.072-.759-.961-.617-2.279-1.462-2.316-2.312l-.053-1.182v-.032h-.001c-.029-.354-.312-.448-.46-.448-.109 0-.212.039-.297.108l-2.618.9c-.198.067-.326.262-.312.472.052.834.014 3.189-.766 4.069-.179.202-.376.301-.616.312l-.391.018c.657-1.412.611-3.843.466-7.169-.011-.259-.227-.458-.483-.448-.256.011-.455.231-.442.489v.005c.222 5.096-.506 6.834-.715 7.222l-.056.051h-1.077c.886-1.855.39-5.654.324-6.126-.034-.248-.256-.423-.502-.4-.246.023-.43.238-.419.487.035.776-.614 2.138-1.651 3.47-.565.726-1.117 1.277-1.583 1.645l-.293-.107c-.101-.037-.206-.056-.315-.056h-.261c.426-.284.833-.649 1.148-.983zm.727 1.513c.592-.545 1.083-1.148 1.306-1.432.222-.287.695-.925 1.108-1.681.031 1.495-.111 3.013-.625 3.581l-.061.088h-.2l-1.528-.557zm7.794-2.231c.051-.592.055-1.123.048-1.457l1.856-.638.025.559c.059 1.339 1.548 2.294 2.745 3.062.389.249.754.483.944.659.152.141.178.365.14.603h-6.605c.449-.597.733-1.531.847-2.788z" fill="#373D43" sketch:type="MSShapeGroup"/><path d="M29.49 28.353h-2.071c.044-.197.062-.409.052-.637-.035-.803-.691-1.727-2.004-2.825-.528-.442-1.048-.813-1.4-1.052.728-1.072.685-2.187.554-2.859 1.409-.134 4.94-.905 4.94-5.297 0-3.209-3.188-4.418-6.003-5.484-2.202-.834-4.28-1.622-4.348-3.158-.109-2.491 1.902-2.776 2.521-2.803l.17-.003c.856 0 1.394.324 1.407.845.006.305-.19.641-.494.654l-.062.001c-.259 0-.264-.02-.333-.273-.062-.233-.209-.778-.862-.778l-.052.001c-.455.021-.766.387-.754.893.017.81.818 1.951 2.082 1.893.763-.035 1.445-.389 1.921-.997.405-.519.631-1.201.605-1.824-.055-1.274-1.373-2.649-3.402-2.649l-.207.005c-2.346.105-5.026 1.518-4.865 5.154.144 3.312 2.963 4.36 5.451 5.284 2.108.784 3.931 1.462 4.011 3.272.021.501-.119.908-.43 1.246-.711.773-2.086.95-2.561.989-1.008-.786-3.501-1.668-5.388-1.668l-.264.006c-1.54.068-3.661.5-4.57.698-.252-.833-.94-2.482-2.416-2.417-.628.028-1.083.244-1.358.644-.235.343-.267.732-.245 1.023-.651.342-1.469 1.096-1.415 2.324.035.813.424 1.783 2.071 1.783l.494-.017.122-.007c.042.046.176.24.274.938.083.579.113 1.304.139 1.943l.013.298c.059 1.309-2.088 3.292-2.845 3.327-.438.019-.709.206-.84.441h-1.142l-1.555-.698 2.794-13.388.029-.146.537-2.57c.575-.213 1.985-.829 3.057-2.09 1.351-1.589 1.623-3.565 1.634-3.648.02-.157-.039-.314-.158-.417-.117-.103-.28-.139-.43-.095-.078.022-1.891.567-3.235 2.082l.307-1.468c.054-.252-.107-.501-.357-.554-.251-.054-.495.108-.549.362l-1.017 4.869c-.404-1.227-1.019-2.051-1.055-2.099-.095-.126-.247-.193-.402-.182-.155.011-.295.103-.372.242-.04.073-.98 1.826-.825 3.917.155 2.091 1.341 3.682 1.392 3.749l.072.075-.287 1.373c-.068-.28-.159-.568-.278-.853-.725-1.734-2.185-2.745-2.246-2.787-.13-.088-.295-.104-.439-.043-.144.061-.247.193-.274.348-.014.075-.32 1.84.405 3.573.667 1.606 1.968 2.591 2.207 2.762l-1.377 6.602-1.268-.568c-.466-.211-1.014.003-1.221.476-.207.474.004 1.027.472 1.237l3.865 1.736c.117.052.245.08.375.08h3.531l2.829 1.031c.099.037.206.056.312.056h17.027c.511 0 .927-.42.927-.938 0-.517-.415-.937-.927-.937zm-23.791-19.649c.311.593.685 1.497.76 2.522.077 1.024-.16 1.975-.382 2.608-.313-.593-.686-1.498-.762-2.521-.075-1.025.161-1.976.383-2.609zm5.673-3.271c-.192.641-.558 1.547-1.224 2.33-.663.779-1.494 1.282-2.093 1.57.193-.639.558-1.546 1.224-2.328.663-.78 1.495-1.282 2.093-1.572zm-8.187 8.848c.412.409.929 1.028 1.253 1.81.327.782.404 1.589.406 2.174-.413-.408-.926-1.026-1.254-1.812-.325-.782-.404-1.587-.405-2.172zm7.185 12.002c.429-.456 1.422-1.646 1.37-2.826l-.014-.296c-.076-1.859-.156-3.78-1.313-3.78l-.04.001-.156.008-.445.015c-.817 0-1.118-.232-1.146-.887-.051-1.135 1.103-1.536 1.151-1.552.241-.079.374-.342.3-.587-.033-.11-.089-.438.046-.634.126-.18.417-.229.638-.239l.041-.001c1.091 0 1.541 2.106 1.545 2.127.024.125.097.234.202.302.105.069.233.093.356.064.029-.008 2.96-.69 4.84-.774 1.87-.084 4.459.914 5.145 1.55.087.081.204.126.324.122.09-.002 2.246-.067 3.379-1.295.484-.524.712-1.173.68-1.929-.108-2.435-2.401-3.287-4.619-4.11-2.43-.904-4.728-1.757-4.844-4.445-.13-2.943 1.973-4.088 3.982-4.178 1.668-.076 2.611.989 2.645 1.75.016.395-.127.833-.389 1.178.125-.24.192-.517.186-.81-.01-.487-.225-.929-.608-1.244-.416-.344-.995-.519-1.723-.519l-.211.004c-1.644.074-3.522 1.109-3.404 3.782.093 2.155 2.451 3.048 4.947 3.994 2.657 1.006 5.401 2.047 5.401 4.606 0 4.175-3.776 4.387-4.533 4.387l-.065-.001c-.157-.007-.306.07-.397.201-.091.131-.107.301-.048.449.027.065.637 1.608-.545 2.916-.095.104-.137.243-.118.381.02.139.098.261.218.335 1.386.864 3.359 2.493 3.4 3.409.009.234-.022.429-.095.595h-.872c.04-.469-.061-.938-.447-1.295-.25-.231-.631-.476-1.072-.759-.961-.617-2.279-1.462-2.316-2.312l-.053-1.182v-.032h-.001c-.029-.354-.312-.448-.46-.448-.109 0-.212.039-.297.108l-2.618.9c-.198.067-.326.262-.312.472.052.834.014 3.189-.766 4.069-.179.202-.376.301-.616.312l-.391.018c.657-1.412.611-3.843.466-7.169-.011-.259-.227-.458-.483-.448-.256.011-.455.231-.442.489v.005c.222 5.096-.506 6.834-.715 7.222l-.056.051h-1.077c.886-1.855.39-5.654.324-6.126-.034-.248-.256-.423-.502-.4-.246.023-.43.238-.419.487.035.776-.614 2.138-1.651 3.47-.565.726-1.117 1.277-1.583 1.645l-.293-.107c-.101-.037-.206-.056-.315-.056h-.261c.426-.284.833-.649 1.148-.983zm.727 1.513c.592-.545 1.083-1.148 1.306-1.432.222-.287.695-.925 1.108-1.681.031 1.495-.111 3.013-.625 3.582l-.061.088h-.2l-1.528-.557zm7.794-2.231c.051-.592.055-1.123.048-1.457l1.856-.638.025.559c.059 1.339 1.548 2.294 2.745 3.062.389.249.754.483.944.659.152.141.178.365.14.603h-6.605c.449-.597.733-1.531.847-2.788z" fill="#fff" sketch:type="MSShapeGroup"/></g></g></svg>