<svg width="32" height="232" viewBox="0 0 32 232" xmlns="http://www.w3.org/2000/svg" xmlns:sketch="http://www.bohemiancoding.com/sketch/ns"><title>Buenos-Aires</title><g sketch:type="MSPage" fill="none"><g sketch:type="MSLayerGroup"><path d="M29.232 25.975c-.234 0-.334-.042-.472-.1l-.137-.054.018-.177c0-.463-.352-.838-.785-.838h-1.922v-4.97l2.105-1.834c.313-.273.381-.754.157-1.113s-.666-.479-1.023-.276l-1.24.704v-2.15c0-.232-.176-.419-.393-.419h-.844v-1.379c0-1.47-1.304-2.655-1.787-3.043v-.984c.117-.076.19-.211.19-.358 0-.153-.079-.294-.204-.368l-.022-.012-.012-.023c-.069-.135-.201-.218-.344-.218-.143 0-.275.084-.344.218l-.012.023-.022.012c-.126.074-.204.215-.204.368 0 .147.073.282.189.358v.984c-.106.085-.251.208-.413.364h-.267c.044-.131.069-.272.069-.419 0-.693-.528-1.258-1.178-1.258h-4.672c-.286 0-.563.112-.778.315-.254.239-.4.583-.4.943s.146.704.4.943c.216.203.492.315.778.315h1.294l-.025.238c0 .308.125.602.342.807.184.174.421.269.666.269h2.454c-.035.171-.056.347-.056.527v3.439h-.532v-1.641c0-.232-.176-.419-.393-.419h-.461v-1.019c0-.231-.176-.419-.393-.419-.217 0-.393.188-.393.419v1.019h-.461c-.217 0-.393.187-.393.419v1.641h-1.062v-.769c0-.231-.176-.419-.393-.419h-1.515c-.217 0-.393.188-.393.419v.769h-.661c-.217 0-.393.188-.393.419v6.973l-.672.169-.326-16.046c-.003-.168-.054-.331-.146-.469l-1.006-1.502c-.147-.219-.383-.35-.636-.351h-.003c-.252 0-.488.128-.636.347l-1.019 1.502c-.094.138-.146.303-.149.474l-.022 1.099h-2.684c-.137 0-.249-.119-.249-.266 0-.147.112-.266.249-.266.217 0 .393-.188.393-.419 0-.231-.176-.419-.393-.419-.57 0-1.034.495-1.034 1.104 0 .609.464 1.104 1.034 1.104h2.667l-.008.418h-1.426c-.217 0-.393.188-.393.42 0 .231.176.419.393.419h1.409l-.27 13.291h-2.542c-.434 0-.785.375-.785.838 0 .117.023.228.063.329l-.086.002c-.233 0-.334-.042-.472-.1-.167-.07-.376-.157-.758-.157-.217 0-.393.188-.393.419 0 .231.176.419.393.419.234 0 .334.042.472.1.168.07.376.157.758.157.381 0 .591-.087.758-.157.138-.058.238-.1.472-.1.234 0 .334.042.472.1.168.07.376.157.758.157.381 0 .59-.087.758-.157.138-.058.239-.1.472-.1.233 0 .334.042.472.1.168.07.376.157.758.157.381 0 .59-.087.758-.157.139-.058.239-.1.472-.1.234 0 .334.042.472.1.168.07.376.157.758.157s.591-.087.758-.157c.138-.058.238-.1.472-.1.234 0 .334.042.472.1.168.07.377.157.758.157s.59-.087.758-.157c.139-.058.239-.1.472-.1.234 0 .334.042.473.1.167.07.376.157.758.157.381 0 .591-.087.758-.157.138-.058.239-.1.472-.1.234 0 .334.042.472.1.168.07.377.157.758.157s.591-.087.758-.157c.138-.058.238-.1.472-.1.234 0 .334.042.472.1.168.07.376.157.758.157s.591-.087.758-.157c.139-.058.239-.1.472-.1.233 0 .334.042.472.1.167.07.376.157.758.157s.591-.087.758-.157c.139-.058.239-.1.472-.1.234 0 .334.042.472.1.168.07.376.157.758.157s.591-.087.759-.157c.138-.058.239-.1.473-.1.234 0 .334.042.473.1.168.07.376.157.758.157.217 0 .393-.188.393-.419 0-.231-.176-.419-.393-.419zm-19.419-14.46l.059-2.895.235-.346.23.343.326 16.04c-.361.05-.735.09-1.118.115l.269-13.258zm7.905.25c0-.093.048-.151.076-.178l.147-.06h.002c.217 0 .393-.188.393-.419 0-.231-.176-.419-.393-.419h-2.279c-.121 0-.208-.057-.259-.105-.086-.082-.134-.193-.134-.314s.047-.233.134-.314c.072-.068.164-.105.259-.105h4.672c.216 0 .393.188.393.419 0 .231-.176.419-.393.419-.217 0-.393.188-.393.419h-.002c0 .231.175.419.393.419h.656c-.104.149-.202.307-.29.475h-2.759l-.147-.06c-.028-.027-.076-.086-.076-.178zm3.488 1.076c.044-.144.102-.284.171-.419.076-.147.163-.287.257-.419l.278-.35.284-.3.299-.272.023-.019c.379.319 1.138 1.044 1.342 1.888h-2.685l.031-.109zm-2.185 2.744v5.654l-.922.523v-6.176h.922zm.005 7.549l.388-.22.005-.002.388-.22.005-.003.233-.132.035-.02.358-.203.035-.02.358-.203.031-.018-.031.027-.358.312-.035.03-.358.312-.035.03-.233.203-.005.004-.388.338-.005.004-.388.338-.005.005-.983.857-.29.253h-1.668l.172-.098.079-.045.922-.523.061-.034.332-.189.061-.035.332-.188.061-.035.922-.523.005-.002zm.785 2.038l.233-.203v.296h-.233v-.093zm1.053-.366v-.552l.729-.635v1.647h-.729v-.46zm1.594 0v-1.941l.922-.804v3.204h-.922v-.46zm-.864-7.161v2.133l-.729.414v-2.754l.729-.572v.779zm1.786 1.119l-.922.523v-1.642h.922v1.119zm-7.913 4.491l-.243.138-.486.203v-7.138h.729v6.797zm9.681 1.551v.46h-.922v-3.941l.922-.803v4.285zm0-7.044l-.922.523v-2.7h.922v2.177zm-5.337-.116h.233v3.012l-.233.132v-3.144zm-3.48 0h.922v4.596l-.922.523v-5.119zm-2.647 0h.233v6.247l-.233.076v-6.323zm10.149-2.899c-.217 0-.393.187-.393.419v1.641h-1.062v-.769c0-.158-.083-.302-.215-.373-.132-.072-.29-.058-.41.036l-.63.495v-2.408h2.789v.959h-.079z" fill="#373D43" sketch:type="MSShapeGroup"/><path d="M29.232 104.975c-.234 0-.334-.042-.472-.1l-.137-.054.018-.177c0-.463-.352-.838-.785-.838h-1.922v-4.97l2.105-1.834c.313-.273.381-.754.157-1.113s-.666-.479-1.023-.276l-1.24.704v-2.15c0-.232-.176-.419-.393-.419h-.844v-1.379c0-1.47-1.304-2.655-1.787-3.043v-.984c.117-.076.19-.211.19-.358 0-.153-.079-.294-.204-.368l-.022-.012-.012-.023c-.069-.135-.201-.218-.344-.218-.143 0-.275.084-.344.218l-.012.023-.022.012c-.126.074-.204.215-.204.368 0 .147.073.282.189.358v.984c-.106.085-.251.208-.413.364h-.267c.044-.131.069-.272.069-.419 0-.693-.528-1.258-1.178-1.258h-4.672c-.286 0-.563.112-.778.315-.254.239-.4.583-.4.943s.146.704.4.943c.216.203.492.315.778.315h1.294l-.025.238c0 .308.125.602.342.807.184.174.421.269.666.269h2.454c-.035.171-.056.347-.056.527v3.439h-.532v-1.641c0-.232-.176-.419-.393-.419h-.461v-1.019c0-.231-.176-.419-.393-.419-.217 0-.393.188-.393.419v1.019h-.461c-.217 0-.393.187-.393.419v1.641h-1.062v-.769c0-.231-.176-.419-.393-.419h-1.515c-.217 0-.393.188-.393.419v.769h-.661c-.217 0-.393.188-.393.419v6.973l-.672.169-.326-16.046c-.003-.168-.054-.331-.146-.469l-1.006-1.502c-.147-.219-.383-.35-.636-.351h-.003c-.252 0-.488.128-.636.347l-1.019 1.502c-.094.138-.146.303-.149.474l-.022 1.099h-2.684c-.137 0-.249-.119-.249-.266 0-.147.112-.266.249-.266.217 0 .393-.188.393-.419 0-.231-.176-.419-.393-.419-.57 0-1.034.495-1.034 1.104 0 .609.464 1.104 1.034 1.104h2.667l-.008.418h-1.426c-.217 0-.393.188-.393.42 0 .231.176.419.393.419h1.409l-.27 13.291h-2.542c-.434 0-.785.375-.785.838 0 .117.023.228.063.329l-.086.002c-.233 0-.334-.042-.472-.1-.167-.07-.376-.157-.758-.157-.217 0-.393.188-.393.419 0 .231.176.419.393.419.234 0 .334.042.472.1.168.07.376.157.758.157.381 0 .591-.087.758-.157.138-.058.238-.1.472-.1.234 0 .334.042.472.1.168.07.376.157.758.157.381 0 .59-.087.758-.157.138-.058.239-.1.472-.1.233 0 .334.042.472.1.168.07.376.157.758.157.381 0 .59-.087.758-.157.139-.058.239-.1.472-.1.234 0 .334.042.472.1.168.07.376.157.758.157s.591-.087.758-.157c.138-.058.238-.1.472-.1.234 0 .334.042.472.1.168.07.377.157.758.157s.59-.087.758-.157c.139-.058.239-.1.472-.1.234 0 .334.042.473.1.167.07.376.157.758.157.381 0 .591-.087.758-.157.138-.058.239-.1.472-.1.234 0 .334.042.472.1.168.07.377.157.758.157s.591-.087.758-.157c.138-.058.238-.1.472-.1.234 0 .334.042.472.1.168.07.376.157.758.157s.591-.087.758-.157c.139-.058.239-.1.472-.1.233 0 .334.042.472.1.167.07.376.157.758.157s.591-.087.758-.157c.139-.058.239-.1.472-.1.234 0 .334.042.472.1.168.07.376.157.758.157s.591-.087.759-.157c.138-.058.239-.1.473-.1.234 0 .334.042.473.1.168.07.376.157.758.157.217 0 .393-.188.393-.419 0-.231-.176-.419-.393-.419zm-19.419-14.46l.059-2.895.235-.346.23.343.326 16.04c-.361.05-.735.09-1.118.115l.269-13.258zm7.905.25c0-.093.048-.151.076-.178l.147-.06h.002c.217 0 .393-.188.393-.419 0-.231-.176-.419-.393-.419h-2.279c-.121 0-.208-.057-.259-.105-.086-.082-.134-.193-.134-.314s.047-.233.134-.314c.072-.068.164-.105.259-.105h4.672c.216 0 .393.188.393.419 0 .231-.176.419-.393.419-.217 0-.393.188-.393.419h-.002c0 .231.175.419.393.419h.656c-.104.149-.202.307-.29.475h-2.759l-.147-.06c-.028-.027-.076-.086-.076-.178zm3.488 1.076c.044-.144.102-.284.171-.419.076-.147.163-.287.257-.419l.278-.35.284-.3.299-.272.023-.019c.379.319 1.138 1.044 1.342 1.888h-2.685l.031-.109zm-2.185 2.744v5.654l-.922.523v-6.176h.922zm.005 7.549l.388-.22.005-.002.388-.22.005-.003.233-.132.035-.02.358-.203.035-.02.358-.203.031-.018-.031.027-.358.312-.035.03-.358.312-.035.03-.233.203-.005.004-.388.338-.005.004-.388.338-.005.005-.983.857-.29.253h-1.668l.172-.098.079-.045.922-.523.061-.034.332-.189.061-.035.332-.188.061-.035.922-.523.005-.002zm.785 2.038l.233-.203v.296h-.233v-.093zm1.053-.366v-.552l.729-.635v1.647h-.729v-.46zm1.594 0v-1.941l.922-.804v3.204h-.922v-.46zm-.864-7.161v2.133l-.729.414v-2.754l.729-.572v.779zm1.786 1.119l-.922.523v-1.642h.922v1.119zm-7.913 4.491l-.243.138-.486.203v-7.138h.729v6.797zm9.681 1.551v.46h-.922v-3.941l.922-.803v4.285zm0-7.044l-.922.523v-2.7h.922v2.177zm-5.337-.116h.233v3.012l-.233.132v-3.144zm-3.48 0h.922v4.596l-.922.523v-5.119zm-2.647 0h.233v6.247l-.233.076v-6.323zm10.149-2.899c-.217 0-.393.187-.393.419v1.641h-1.062v-.769c0-.158-.083-.302-.215-.373-.132-.072-.29-.058-.41.036l-.63.495v-2.408h2.789v.959h-.079z" id="Buenos-Aires-copy" fill="#fff" sketch:type="MSShapeGroup"/><path d="M29.232 65.975c-.234 0-.334-.042-.472-.1l-.137-.054.018-.177c0-.463-.352-.838-.785-.838h-1.922v-4.97l2.105-1.834c.313-.273.381-.754.157-1.113s-.666-.479-1.023-.276l-1.24.704v-2.15c0-.232-.176-.419-.393-.419h-.844v-1.379c0-1.47-1.304-2.655-1.787-3.043v-.984c.117-.076.19-.211.19-.358 0-.153-.079-.294-.204-.368l-.022-.012-.012-.023c-.069-.135-.201-.218-.344-.218-.143 0-.275.084-.344.218l-.012.023-.022.012c-.126.074-.204.215-.204.368 0 .147.073.282.189.358v.984c-.106.085-.251.208-.413.364h-.267c.044-.131.069-.272.069-.419 0-.693-.528-1.258-1.178-1.258h-4.672c-.286 0-.563.112-.778.315-.254.239-.4.583-.4.943s.146.704.4.943c.216.203.492.315.778.315h1.294l-.025.238c0 .308.125.602.342.807.184.174.421.269.666.269h2.454c-.035.171-.056.347-.056.527v3.439h-.532v-1.641c0-.232-.176-.419-.393-.419h-.461v-1.019c0-.231-.176-.419-.393-.419-.217 0-.393.188-.393.419v1.019h-.461c-.217 0-.393.187-.393.419v1.641h-1.062v-.769c0-.231-.176-.419-.393-.419h-1.515c-.217 0-.393.188-.393.419v.769h-.661c-.217 0-.393.188-.393.419v6.973l-.672.169-.326-16.046c-.003-.168-.054-.331-.146-.469l-1.006-1.502c-.147-.219-.383-.35-.636-.351h-.003c-.252 0-.488.128-.636.347l-1.019 1.502c-.094.138-.146.303-.149.474l-.022 1.099h-2.684c-.137 0-.249-.119-.249-.266 0-.147.112-.266.249-.266.217 0 .393-.188.393-.419 0-.231-.176-.419-.393-.419-.57 0-1.034.495-1.034 1.104 0 .609.464 1.104 1.034 1.104h2.667l-.008.418h-1.426c-.217 0-.393.188-.393.42 0 .231.176.419.393.419h1.409l-.27 13.291h-2.542c-.434 0-.785.375-.785.838 0 .117.023.228.063.329l-.086.002c-.233 0-.334-.042-.472-.1-.167-.07-.376-.157-.758-.157-.217 0-.393.188-.393.419 0 .231.176.419.393.419.234 0 .334.042.472.1.168.07.376.157.758.157.381 0 .591-.087.758-.157.138-.058.238-.1.472-.1.234 0 .334.042.472.1.168.07.376.157.758.157.381 0 .59-.087.758-.157.138-.058.239-.1.472-.1.233 0 .334.042.472.1.168.07.376.157.758.157.381 0 .59-.087.758-.157.139-.058.239-.1.472-.1.234 0 .334.042.472.1.168.07.376.157.758.157s.591-.087.758-.157c.138-.058.238-.1.472-.1.234 0 .334.042.472.1.168.07.377.157.758.157s.59-.087.758-.157c.139-.058.239-.1.472-.1.234 0 .334.042.473.1.167.07.376.157.758.157.381 0 .591-.087.758-.157.138-.058.239-.1.472-.1.234 0 .334.042.472.1.168.07.377.157.758.157s.591-.087.758-.157c.138-.058.238-.1.472-.1.234 0 .334.042.472.1.168.07.376.157.758.157s.591-.087.758-.157c.139-.058.239-.1.472-.1.233 0 .334.042.472.1.167.07.376.157.758.157s.591-.087.758-.157c.139-.058.239-.1.472-.1.234 0 .334.042.472.1.168.07.376.157.758.157s.591-.087.759-.157c.138-.058.239-.1.473-.1.234 0 .334.042.473.1.168.07.376.157.758.157.217 0 .393-.188.393-.419 0-.231-.176-.419-.393-.419zm-19.419-14.46l.059-2.895.235-.346.23.343.326 16.04c-.361.05-.735.09-1.118.115l.269-13.258zm7.905.25c0-.093.048-.151.076-.178l.147-.06h.002c.217 0 .393-.188.393-.419 0-.231-.176-.419-.393-.419h-2.279c-.121 0-.208-.057-.259-.105-.086-.082-.134-.193-.134-.314s.047-.233.134-.314c.072-.068.164-.105.259-.105h4.672c.216 0 .393.188.393.419 0 .231-.176.419-.393.419-.217 0-.393.188-.393.419h-.002c0 .231.175.419.393.419h.656c-.104.149-.202.307-.29.475h-2.759l-.147-.06c-.028-.027-.076-.086-.076-.178zm3.488 1.076c.044-.144.102-.284.171-.419.076-.147.163-.287.257-.419l.278-.35.284-.3.299-.272.023-.019c.379.319 1.138 1.044 1.342 1.888h-2.685l.031-.109zm-2.185 2.744v5.654l-.922.523v-6.176h.922zm.005 7.549l.388-.22.005-.002.388-.22.005-.003.233-.132.035-.02.358-.203.035-.02.358-.203.031-.018-.031.027-.358.312-.035.03-.358.312-.035.03-.233.203-.005.004-.388.338-.005.004-.388.338-.005.005-.983.857-.29.253h-1.668l.172-.098.079-.045.922-.523.061-.034.332-.189.061-.035.332-.188.061-.035.922-.523.005-.002zm.785 2.038l.233-.203v.296h-.233v-.093zm1.053-.366v-.552l.729-.635v1.647h-.729v-.46zm1.594 0v-1.941l.922-.804v3.204h-.922v-.46zm-.864-7.161v2.133l-.729.414v-2.754l.729-.572v.779zm1.786 1.119l-.922.523v-1.642h.922v1.119zm-7.913 4.491l-.243.138-.486.203v-7.138h.729v6.797zm9.681 1.551v.46h-.922v-3.941l.922-.803v4.285zm0-7.044l-.922.523v-2.7h.922v2.177zm-5.337-.116h.233v3.012l-.233.132v-3.144zm-3.48 0h.922v4.596l-.922.523v-5.119zm-2.647 0h.233v6.247l-.233.076v-6.323zm10.149-2.899c-.217 0-.393.187-.393.419v1.641h-1.062v-.769c0-.158-.083-.302-.215-.373-.132-.072-.29-.058-.41.036l-.63.495v-2.408h2.789v.959h-.079z" fill="#67737B" sketch:type="MSShapeGroup"/><path d="M29.232 138.975c-.234 0-.334-.042-.472-.1l-.137-.054.018-.177c0-.463-.352-.838-.785-.838h-1.922v-4.97l2.105-1.834c.313-.273.381-.754.157-1.113s-.666-.479-1.023-.276l-1.24.704v-2.15c0-.232-.176-.419-.393-.419h-.844v-1.379c0-1.47-1.304-2.655-1.787-3.043v-.984c.117-.076.19-.211.19-.358 0-.153-.079-.294-.204-.368l-.022-.012-.012-.023c-.069-.135-.201-.218-.344-.218-.143 0-.275.084-.344.218l-.012.023-.022.012c-.126.074-.204.215-.204.368 0 .147.073.282.189.358v.984c-.106.085-.251.208-.413.364h-.267c.044-.131.069-.272.069-.419 0-.693-.528-1.258-1.178-1.258h-4.672c-.286 0-.563.112-.778.315-.254.239-.4.583-.4.943s.146.704.4.943c.216.203.492.315.778.315h1.294l-.025.238c0 .308.125.602.342.807.184.174.421.269.666.269h2.454c-.035.171-.056.347-.056.527v3.439h-.532v-1.641c0-.232-.176-.419-.393-.419h-.461v-1.019c0-.231-.176-.419-.393-.419-.217 0-.393.188-.393.419v1.019h-.461c-.217 0-.393.187-.393.419v1.641h-1.062v-.769c0-.231-.176-.419-.393-.419h-1.515c-.217 0-.393.188-.393.419v.769h-.661c-.217 0-.393.188-.393.419v6.973l-.672.169-.326-16.046c-.003-.168-.054-.331-.146-.469l-1.006-1.502c-.147-.219-.383-.35-.636-.351h-.003c-.252 0-.488.128-.636.347l-1.019 1.502c-.094.138-.146.303-.149.474l-.022 1.099h-2.684c-.137 0-.249-.119-.249-.266 0-.147.112-.266.249-.266.217 0 .393-.188.393-.419 0-.231-.176-.419-.393-.419-.57 0-1.034.495-1.034 1.104 0 .609.464 1.104 1.034 1.104h2.667l-.008.418h-1.426c-.217 0-.393.188-.393.42 0 .231.176.419.393.419h1.409l-.27 13.291h-2.542c-.434 0-.785.375-.785.838 0 .117.023.228.063.329l-.086.002c-.233 0-.334-.042-.472-.1-.167-.07-.376-.157-.758-.157-.217 0-.393.188-.393.419 0 .231.176.419.393.419.234 0 .334.042.472.1.168.07.376.157.758.157.381 0 .591-.087.758-.157.138-.058.238-.1.472-.1.234 0 .334.042.472.1.168.07.376.157.758.157.381 0 .59-.087.758-.157.138-.058.239-.1.472-.1.233 0 .334.042.472.1.168.07.376.157.758.157.381 0 .59-.087.758-.157.139-.058.239-.1.472-.1.234 0 .334.042.472.1.168.07.376.157.758.157s.591-.087.758-.157c.138-.058.238-.1.472-.1.234 0 .334.042.472.1.168.07.377.157.758.157s.59-.087.758-.157c.139-.058.239-.1.472-.1.234 0 .334.042.473.1.167.07.376.157.758.157.381 0 .591-.087.758-.157.138-.058.239-.1.472-.1.234 0 .334.042.472.1.168.07.377.157.758.157s.591-.087.758-.157c.138-.058.238-.1.472-.1.234 0 .334.042.472.1.168.07.376.157.758.157s.591-.087.758-.157c.139-.058.239-.1.472-.1.233 0 .334.042.472.1.167.07.376.157.758.157s.591-.087.758-.157c.139-.058.239-.1.472-.1.234 0 .334.042.472.1.168.07.376.157.758.157s.591-.087.759-.157c.138-.058.239-.1.473-.1.234 0 .334.042.473.1.168.07.376.157.758.157.217 0 .393-.188.393-.419 0-.231-.176-.419-.393-.419zm-19.419-14.46l.059-2.895.235-.346.23.343.326 16.04c-.361.05-.735.09-1.118.115l.269-13.258zm7.905.25c0-.093.048-.151.076-.178l.147-.06h.002c.217 0 .393-.188.393-.419 0-.231-.176-.419-.393-.419h-2.279c-.121 0-.208-.057-.259-.105-.086-.082-.134-.193-.134-.314s.047-.233.134-.314c.072-.068.164-.105.259-.105h4.672c.216 0 .393.188.393.419 0 .231-.176.419-.393.419-.217 0-.393.188-.393.419h-.002c0 .231.175.419.393.419h.656c-.104.149-.202.307-.29.475h-2.759l-.147-.06c-.028-.027-.076-.086-.076-.178zm3.488 1.076c.044-.144.102-.284.171-.419.076-.147.163-.287.257-.419l.278-.35.284-.3.299-.272.023-.019c.379.319 1.138 1.044 1.342 1.888h-2.685l.031-.109zm-2.185 2.744v5.654l-.922.523v-6.176h.922zm.005 7.549l.388-.22.005-.002.388-.22.005-.003.233-.132.035-.02.358-.203.035-.02.358-.203.031-.018-.031.027-.358.312-.035.03-.358.312-.035.03-.233.203-.005.004-.388.338-.005.004-.388.338-.005.005-.983.857-.29.253h-1.668l.172-.098.079-.045.922-.523.061-.034.332-.189.061-.035.332-.188.061-.035.922-.523.005-.002zm.785 2.038l.233-.203v.296h-.233v-.093zm1.053-.366v-.552l.729-.635v1.647h-.729v-.46zm1.594 0v-1.941l.922-.804v3.204h-.922v-.46zm-.864-7.161v2.133l-.729.414v-2.754l.729-.572v.779zm1.786 1.119l-.922.523v-1.642h.922v1.119zm-7.913 4.491l-.243.138-.486.203v-7.138h.729v6.797zm9.681 1.551v.46h-.922v-3.941l.922-.803v4.285zm0-7.044l-.922.523v-2.7h.922v2.177zm-5.337-.116h.233v3.012l-.233.132v-3.144zm-3.48 0h.922v4.596l-.922.523v-5.119zm-2.647 0h.233v6.247l-.233.076v-6.323zm10.149-2.899c-.217 0-.393.187-.393.419v1.641h-1.062v-.769c0-.158-.083-.302-.215-.373-.132-.072-.29-.058-.41.036l-.63.495v-2.408h2.789v.959h-.079z" fill="#206FAC" sketch:type="MSShapeGroup"/></g></g></svg>