<svg width="32" height="232" viewBox="0 0 32 232" xmlns="http://www.w3.org/2000/svg" xmlns:sketch="http://www.bohemiancoding.com/sketch/ns"><title>Australia</title><g sketch:type="MSLayerGroup" fill="none"><g fill="#373D43" sketch:type="MSShapeGroup"><path d="M27.106 21.733c-.087-.457-.5-.751-.922-.657l-.284.054c-2.479-.313-3.199-2.498-4.02-5-.585-1.783-1.191-3.627-2.483-5.026-2.67-2.892-6.694-2.91-8.719-1.041-.308-.239-.783-.645-1.019-1-.235-.354-.322-1.066-.344-1.453.609-.812.614-2.046.614-2.101 0-.125-.052-.244-.14-.324-.089-.08-.206-.114-.319-.091-1.683.328-2.438 1.312-2.701 1.757-.635.158-1.143.884-1.319 1.165l-1.291.755c-.126.074-.204.217-.204.372 0 .528.153.934.455 1.207.608.55 1.717.476 3.418.149l.544 2.095c.048.186.205.308.375.308l.106-.016c.207-.063.329-.296.27-.521l-.64-2.463c-.058-.225-.274-.356-.481-.293l-.082.037h-.125c-1.198.234-2.479.424-2.886.055-.055-.05-.124-.134-.156-.318l1.155-.676c.06-.035.11-.086.146-.149.206-.36.652-.892.957-.892.152 0 .291-.099.355-.248.018-.042.415-.93 1.728-1.359-.06.357-.187.809-.453 1.102-.073.081-.114.19-.112.303.002.14.033 1.393.497 2.093.445.67 1.392 1.34 1.432 1.368l.107.052c.143.068.316.04.433-.087.796-.861 2.124-1.333 3.557-1.262 1.605.079 3.129.816 4.29 2.073 1.168 1.265 1.743 3.017 2.3 4.712.53 1.615 1.072 3.262 2.146 4.348-1.422-.657-2.536-2.032-2.871-3.792-.077-.401-.404-.684-.786-.674-.378.011-.695.315-.75.721-.001.006-.092.62-.414 1.226-.394.74-.928 1.1-1.636 1.1l-.019.001-.048.003-.036.005-.038.006-.046.011-.02.005-.009.003-.047.017-.028.011-.04.02-.031.017-.031.02-.036.023-.024.019-.037.029-.02.02-.036.035-.02.023-.03.036-.021.03-.023.034-.022.037-.017.03-.02.044-.013.029-.016.044-.011.033-.01.041-.01.041-.006.035-.007.049-.002.03-.003.055v.01l.001.021.002.052.004.04.006.041.01.05.004.021.701 2.754c.095.375.41.621.752.621l.208-.03c.416-.125.659-.589.545-1.039l-.467-1.833c.726-.231 1.34-.727 1.812-1.472 1.142 2.12 3.264 3.465 5.564 3.465.43 0 .866-.047 1.303-.144.422-.095.694-.541.607-.999" id="Fill-1"/><path d="M16.425 23.99c-1.227-.749-4.411-3.26-4.411-5.857 0-1.391.346-2.379 1.027-2.935 1.318-1.074 3.552-.397 3.574-.39.412.13.845-.127.966-.574.121-.448-.116-.917-.53-1.048-.121-.039-2.996-.922-4.942.657-1.098.892-1.656 2.335-1.656 4.29 0 1.77.895 3.552 2.658 5.297.55.543 1.097.995 1.543 1.333-.933.148-2.143.535-3.05 1.518-.152.165-.152.433 0 .597.076.083.176.124.276.124.1 0 .2-.041.276-.124 1.157-1.252 2.995-1.358 3.631-1.355.084.032.169.049.255.049.273 0 .537-.156.681-.431.211-.407.078-.922-.297-1.151" id="Fill-2"/><path d="M10.368 11.85c-.211-.05-.419.095-.464.323l-.483 2.414c-.515-.601-1.103-.966-1.757-1.086-1.373-.251-2.503.689-2.55.729-.169.143-.199.408-.067.592s.377.217.547.075c.009-.007.917-.753 1.947-.561.664.124 1.255.614 1.757 1.458.072.122.197.194.328.194l.07-.007c.155-.031.279-.159.312-.326l.661-3.303c.046-.228-.088-.453-.299-.502" id="Fill-3"/><path d="M6.417 8.498c0 .164.122.296.273.296.151 0 .273-.132.273-.296 0-.163-.122-.296-.273-.296-.151 0-.273.132-.273.296" id="Fill-4"/></g><g fill="#67737B" sketch:type="MSShapeGroup"><path d="M27.106 61.733c-.087-.457-.5-.751-.922-.657l-.284.054c-2.479-.313-3.199-2.498-4.02-5-.585-1.783-1.191-3.627-2.483-5.026-2.67-2.892-6.694-2.91-8.719-1.041-.308-.239-.783-.645-1.019-1-.235-.354-.322-1.066-.344-1.453.609-.812.614-2.046.614-2.101 0-.125-.052-.244-.14-.324-.089-.08-.206-.114-.319-.091-1.683.328-2.438 1.312-2.701 1.757-.635.158-1.143.884-1.319 1.165l-1.291.755c-.126.074-.204.217-.204.372 0 .528.153.934.455 1.207.608.55 1.717.476 3.418.149l.544 2.095c.048.186.205.308.375.308l.106-.016c.207-.063.329-.296.27-.521l-.64-2.463c-.058-.225-.274-.356-.481-.293l-.082.037h-.125c-1.198.234-2.479.424-2.886.055-.055-.05-.124-.134-.156-.318l1.155-.676c.06-.035.11-.086.146-.149.206-.36.652-.892.957-.892.152 0 .291-.099.355-.248.018-.042.415-.93 1.728-1.359-.06.357-.187.809-.453 1.102-.073.081-.114.19-.112.303.002.14.033 1.393.497 2.093.445.67 1.392 1.34 1.432 1.368l.107.052c.143.068.316.04.433-.087.796-.861 2.124-1.333 3.557-1.262 1.605.079 3.129.816 4.29 2.073 1.168 1.265 1.743 3.017 2.3 4.712.53 1.615 1.072 3.262 2.146 4.348-1.422-.657-2.536-2.032-2.871-3.792-.077-.401-.404-.684-.786-.674-.378.011-.695.315-.75.721-.001.006-.092.62-.414 1.226-.394.74-.928 1.1-1.636 1.1l-.019.001-.048.003-.036.005-.038.006-.046.011-.02.005-.009.003-.047.017-.028.011-.04.02-.031.017-.031.02-.036.023-.024.019-.037.029-.02.02-.036.035-.02.023-.03.036-.021.03-.023.034-.022.037-.017.03-.02.044-.013.029-.016.044-.011.033-.01.041-.01.041-.006.035-.007.049-.002.03-.003.055v.01l.001.021.002.052.004.04.006.041.01.05.004.021.701 2.754c.095.375.41.621.752.621l.208-.03c.416-.125.659-.589.545-1.039l-.467-1.833c.726-.231 1.34-.727 1.812-1.472 1.142 2.12 3.264 3.465 5.564 3.465.43 0 .866-.047 1.303-.144.422-.095.694-.541.607-.999" id="Fill-1"/><path d="M16.425 63.99c-1.227-.749-4.411-3.26-4.411-5.857 0-1.391.346-2.379 1.027-2.935 1.318-1.074 3.552-.397 3.574-.39.412.13.845-.127.966-.574.121-.448-.116-.917-.53-1.048-.121-.039-2.996-.922-4.942.657-1.098.892-1.656 2.335-1.656 4.29 0 1.77.895 3.552 2.658 5.297.55.543 1.097.995 1.543 1.333-.933.148-2.143.535-3.05 1.518-.152.165-.152.433 0 .597.076.083.176.124.276.124.1 0 .2-.041.276-.124 1.157-1.252 2.995-1.358 3.631-1.355.084.032.169.049.255.049.273 0 .537-.156.681-.431.211-.407.078-.922-.297-1.151" id="Fill-2"/><path d="M10.368 51.85c-.211-.05-.419.095-.464.323l-.483 2.414c-.515-.601-1.103-.966-1.757-1.086-1.373-.251-2.503.689-2.55.729-.169.143-.199.408-.067.592s.377.217.547.075c.009-.007.917-.753 1.947-.561.664.124 1.255.614 1.757 1.458.072.122.197.194.328.194l.07-.007c.155-.031.279-.159.312-.326l.661-3.303c.046-.228-.088-.453-.299-.502" id="Fill-3"/><path d="M6.417 48.498c0 .164.122.296.273.296.151 0 .273-.132.273-.296 0-.163-.122-.296-.273-.296-.151 0-.273.132-.273.296" id="Fill-4"/></g><g fill="#206FAC" sketch:type="MSShapeGroup"><path d="M27.106 131.733c-.087-.457-.5-.751-.922-.657l-.284.054c-2.479-.313-3.199-2.498-4.02-5-.585-1.783-1.191-3.627-2.483-5.026-2.67-2.892-6.694-2.91-8.719-1.041-.308-.239-.783-.645-1.019-1-.235-.354-.322-1.066-.344-1.453.609-.812.614-2.046.614-2.101 0-.125-.052-.244-.14-.324-.089-.08-.206-.114-.319-.091-1.683.328-2.438 1.312-2.701 1.757-.635.158-1.143.884-1.319 1.165l-1.291.755c-.126.074-.204.217-.204.372 0 .528.153.934.455 1.207.608.55 1.717.476 3.418.149l.544 2.095c.048.186.205.308.375.308l.106-.016c.207-.063.329-.296.27-.521l-.64-2.463c-.058-.225-.274-.356-.481-.293l-.082.037h-.125c-1.198.234-2.479.424-2.886.055-.055-.05-.124-.134-.156-.318l1.155-.676c.06-.035.11-.086.146-.149.206-.36.652-.892.957-.892.152 0 .291-.099.355-.248.018-.042.415-.93 1.728-1.359-.06.357-.187.809-.453 1.102-.073.081-.114.19-.112.303.002.14.033 1.393.497 2.093.445.67 1.392 1.34 1.432 1.368l.107.052c.143.068.316.04.433-.087.796-.861 2.124-1.333 3.557-1.262 1.605.079 3.129.816 4.29 2.073 1.168 1.265 1.743 3.017 2.3 4.712.53 1.615 1.072 3.262 2.146 4.348-1.422-.657-2.536-2.032-2.871-3.792-.077-.401-.404-.684-.786-.674-.378.011-.695.315-.75.721-.001.006-.092.62-.414 1.226-.394.74-.928 1.1-1.636 1.1l-.019.001-.048.003-.036.005-.038.006-.046.011-.02.005-.009.003-.047.017-.028.011-.04.02-.031.017-.031.02-.036.023-.024.019-.037.029-.02.02-.036.035-.02.023-.03.036-.021.03-.023.034-.022.037-.017.03-.02.044-.013.029-.016.044-.011.033-.01.041-.01.041-.006.035-.007.049-.002.03-.003.055v.01l.001.021.002.052.004.04.006.041.01.05.004.021.701 2.754c.095.375.41.621.752.621l.208-.03c.416-.125.659-.589.545-1.039l-.467-1.833c.726-.231 1.34-.727 1.812-1.472 1.142 2.12 3.264 3.465 5.564 3.465.43 0 .866-.047 1.303-.144.422-.095.694-.541.607-.999"/><path d="M16.425 133.99c-1.227-.749-4.411-3.26-4.411-5.857 0-1.391.346-2.379 1.027-2.935 1.318-1.074 3.552-.397 3.574-.39.412.13.845-.127.966-.574.121-.448-.116-.917-.53-1.048-.121-.039-2.996-.922-4.942.657-1.098.892-1.656 2.335-1.656 4.29 0 1.77.895 3.552 2.658 5.297.55.543 1.097.995 1.543 1.333-.933.148-2.143.535-3.05 1.518-.152.165-.152.433 0 .597.076.083.176.124.276.124.1 0 .2-.041.276-.124 1.157-1.252 2.995-1.358 3.631-1.355.084.032.169.049.255.049.273 0 .537-.156.681-.431.211-.407.078-.922-.297-1.151"/><path d="M10.368 121.85c-.211-.05-.419.095-.464.323l-.483 2.414c-.515-.601-1.103-.966-1.757-1.086-1.373-.251-2.503.689-2.55.729-.169.143-.199.408-.067.592s.377.217.547.075c.009-.007.917-.753 1.947-.561.664.124 1.255.614 1.757 1.458.072.122.197.194.328.194l.07-.007c.155-.031.279-.159.312-.326l.661-3.303c.046-.228-.088-.453-.299-.502"/><path d="M6.417 118.498c0 .164.122.296.273.296.151 0 .273-.132.273-.296 0-.163-.122-.296-.273-.296-.151 0-.273.132-.273.296"/></g><g fill="#fff" sketch:type="MSShapeGroup"><path d="M27.106 97.733c-.087-.457-.5-.751-.922-.657l-.284.054c-2.479-.313-3.199-2.498-4.02-5-.585-1.783-1.191-3.627-2.483-5.026-2.67-2.892-6.694-2.91-8.719-1.041-.308-.239-.783-.645-1.019-1-.235-.354-.322-1.066-.344-1.453.609-.812.614-2.046.614-2.101 0-.125-.052-.244-.14-.324-.089-.08-.206-.114-.319-.091-1.683.328-2.438 1.312-2.701 1.757-.635.158-1.143.884-1.319 1.165l-1.291.755c-.126.074-.204.217-.204.372 0 .528.153.934.455 1.207.608.55 1.717.476 3.418.149l.544 2.095c.048.186.205.308.375.308l.106-.016c.207-.063.329-.296.27-.521l-.64-2.463c-.058-.225-.274-.356-.481-.293l-.082.037h-.125c-1.198.234-2.479.424-2.886.055-.055-.05-.124-.134-.156-.318l1.155-.676c.06-.035.11-.086.146-.149.206-.36.652-.892.957-.892.152 0 .291-.099.355-.248.018-.042.415-.93 1.728-1.359-.06.357-.187.809-.453 1.102-.073.081-.114.19-.112.303.002.14.033 1.393.497 2.093.445.67 1.392 1.34 1.432 1.368l.107.052c.143.068.316.04.433-.087.796-.861 2.124-1.333 3.557-1.262 1.605.079 3.129.816 4.29 2.073 1.168 1.265 1.743 3.017 2.3 4.712.53 1.615 1.072 3.262 2.146 4.348-1.422-.657-2.536-2.032-2.871-3.792-.077-.401-.404-.684-.786-.674-.378.011-.695.315-.75.721-.001.006-.092.62-.414 1.226-.394.74-.928 1.1-1.636 1.1l-.019.001-.048.003-.036.005-.038.006-.046.011-.02.005-.009.003-.047.017-.028.011-.04.02-.031.017-.031.02-.036.023-.024.019-.037.029-.02.02-.036.035-.02.023-.03.036-.021.03-.023.034-.022.037-.017.03-.02.044-.013.029-.016.044-.011.033-.01.041-.01.041-.006.035-.007.049-.002.03-.003.055v.01l.001.021.002.052.004.04.006.041.01.05.004.021.701 2.754c.095.375.41.621.752.621l.208-.03c.416-.125.659-.589.545-1.039l-.467-1.833c.726-.231 1.34-.727 1.812-1.472 1.142 2.12 3.264 3.465 5.564 3.465.43 0 .866-.047 1.303-.144.422-.095.694-.541.607-.999M16.425 99.99c-1.227-.749-4.411-3.26-4.411-5.857 0-1.391.346-2.379 1.027-2.935 1.318-1.074 3.552-.397 3.574-.39.412.13.845-.127.966-.574.121-.448-.116-.917-.53-1.048-.121-.039-2.996-.922-4.942.657-1.098.892-1.656 2.335-1.656 4.29 0 1.77.895 3.552 2.658 5.297.55.543 1.097.995 1.543 1.333-.933.148-2.143.535-3.05 1.518-.152.165-.152.433 0 .597.076.083.176.124.276.124.1 0 .2-.041.276-.124 1.157-1.252 2.995-1.358 3.631-1.355.084.032.169.049.255.049.273 0 .537-.156.681-.431.211-.407.078-.922-.297-1.151M10.368 87.85c-.211-.05-.419.095-.464.323l-.483 2.414c-.515-.601-1.103-.966-1.757-1.086-1.373-.251-2.503.689-2.55.729-.169.143-.199.408-.067.592s.377.217.547.075c.009-.007.917-.753 1.947-.561.664.124 1.255.614 1.757 1.458.072.122.197.194.328.194l.07-.007c.155-.031.279-.159.312-.326l.661-3.303c.046-.228-.088-.453-.299-.502M6.417 84.498c0 .164.122.296.273.296.151 0 .273-.132.273-.296 0-.163-.122-.296-.273-.296-.151 0-.273.132-.273.296"/></g></g></svg>