<svg width="32" height="232" viewBox="0 0 32 232" xmlns="http://www.w3.org/2000/svg" xmlns:sketch="http://www.bohemiancoding.com/sketch/ns"><title>Sydney</title><g sketch:type="MSPage" fill="none"><g sketch:type="MSLayerGroup"><g fill="#373D43" sketch:type="MSShapeGroup"><path d="M8.692 5.848h.174c-.027.104-.042.214-.042.327 0 .659.485 1.195 1.082 1.195h7.042c.263 0 .516-.106.714-.299.233-.227.367-.554.367-.896 0-.342-.134-.668-.367-.895-.198-.193-.452-.299-.714-.299h-4.021l.013-.163c0-.295-.115-.576-.316-.772-.17-.166-.389-.258-.616-.258h-3.316c-.514 0-.932.462-.932 1.029 0 .568.418 1.03.932 1.03zm0-1.192h3.316l.097.041.051.121-.051.122-.096.041h-.002c-.217 0-.393.194-.393.434 0 .239.176.433.393.433h4.942c.091 0 .157.045.195.082.038.037.101.118.101.245 0 .128-.063.209-.101.246-.039.037-.104.082-.195.082h-7.042c-.163 0-.296-.147-.296-.328 0-.18.133-.327.296-.327.217 0 .393-.194.393-.433h.002c0-.24-.176-.434-.393-.434h-1.215c-.081 0-.147-.073-.147-.163 0-.089.066-.162.147-.162z" id="Fill-1"/><path d="M29.254 23.306c-.234 0-.334-.043-.473-.103-.168-.072-.377-.163-.758-.163-.382 0-.591.09-.759.163l-.269.087 1.517-3.647c.112-.268.091-.581-.052-.83-.145-.249-.394-.399-.662-.399h-.866c-.064-.783-.315-1.477-.679-2.087-.006-1.3-.363-2.533-1.047-3.647l.006-.101c0-4.475-3.869-6.413-4.034-6.493-.202-.098-.432-.098-.634 0-.138.068-2.907 1.455-3.775 4.566-1.614-1.716-2.96-2.13-3.029-2.151-.284-.083-.587.014-.784.255-.032.039-.638.788-1.067 2.01-.481-.191-.792-.26-.834-.268-.269-.057-.544.046-.728.27-.032.038-.65.8-1.126 2.057-.325-.11-.527-.159-.564-.168-.273-.064-.557.037-.745.266-.077.093-1.817 2.251-1.953 5.491h-1.068c-.268 0-.517.15-.661.399-.144.249-.165.562-.052.83l1.422 3.419c-.204.031-.343.09-.461.141-.138.06-.238.103-.472.103-.234 0-.334-.043-.472-.103-.168-.072-.377-.163-.759-.163-.216 0-.392.194-.392.434 0 .239.176.433.392.433.235 0 .334.043.472.103.168.072.376.162.758.162.381 0 .59-.09.758-.162.138-.06.238-.103.472-.103.234 0 .334.043.473.103.167.072.376.162.758.162.381 0 .59-.09.758-.162.139-.06.239-.103.473-.103.233 0 .334.043.473.103.167.072.376.162.758.162s.591-.09.758-.162c.139-.06.239-.103.473-.103.234 0 .334.043.472.103.168.072.376.162.758.162s.591-.09.759-.162c.138-.06.238-.103.472-.103.233 0 .333.043.472.103.168.072.377.162.758.162.382 0 .59-.09.758-.162.138-.06.238-.103.472-.103.233 0 .334.043.472.103.168.072.376.162.758.162.381 0 .59-.09.758-.162.138-.06.239-.103.473-.103.233 0 .334.043.472.103.168.072.377.162.758.162.382 0 .591-.09.758-.162.138-.06.238-.103.472-.103.234 0 .334.043.473.103.168.072.376.162.758.162.381 0 .59-.09.758-.162.138-.06.239-.103.473-.103.234 0 .334.043.472.103.168.072.376.162.758.162.381 0 .591-.09.758-.162.138-.06.239-.103.472-.103.234 0 .334.043.473.103.168.072.376.162.758.162s.591-.09.758-.162c.139-.06.239-.103.473-.103.234 0 .334.043.473.103.168.072.376.162.758.162.217 0 .393-.194.393-.433 0-.24-.175-.434-.393-.434zm-5.625-6.816c-.192-.111-.429-.029-.53.183l-.825 1.741h-.118l.474-2.18c.051-.233-.079-.467-.29-.523-.211-.057-.423.087-.474.32l-.518 2.383h-.114l.019-.128v-2.717c0-.239-.176-.433-.393-.433-.217 0-.393.194-.393.433v2.717l.019.128h-.176l-.518-2.383c-.051-.233-.263-.377-.474-.32-.211.056-.34.29-.29.523l.474 2.18h-.211l-.825-1.741c-.101-.212-.338-.294-.53-.183-.192.111-.266.374-.165.585l.635 1.339h-1.969l-.049-.09c.381-2.102 3.139-3.492 4.472-3.957 1.353.472 4.17 1.895 4.487 4.047h-2.187l.634-1.339c.101-.212.027-.474-.166-.585zm.569-2.296c-1.469-1.044-3.003-1.529-3.126-1.567-.138-.043-.284-.043-.422 0-.123.038-1.652.522-3.12 1.562.868-1.831 2.645-2.897 3.332-3.254.69.357 2.471 1.419 3.335 3.259zm-3.336-6.34c.555.345 1.689 1.185 2.324 2.587-1.058-.84-1.999-1.242-2.044-1.261-.181-.076-.38-.076-.56 0-.045.019-.986.421-2.044 1.262.635-1.403 1.77-2.242 2.324-2.587zm-7.052 2.543c.151.083.332.192.538.335.516.359 1.28 1.004 2.095 2.073-.191.325-.354.66-.49 1.003-.893-1.076-1.824-1.814-2.633-2.315.15-.454.335-.828.49-1.096zm-2.597 1.944c.201.074.46.18.759.333l.157.082c.947.51 2.232 1.455 3.355 3.155l-.014.417c-.099.165-.188.337-.269.515-1.58-1.736-3.262-2.792-4.528-3.408.18-.463.382-.835.54-1.093zm-2.441 2.156c1.007.35 3.475 1.407 5.62 3.917h-2.663l.019-.128v-1.665c0-.24-.176-.434-.393-.434-.217 0-.392.194-.392.434v1.665l.019.128h-.444l.019-.128v-2.225c0-.239-.175-.434-.393-.434-.217 0-.392.194-.392.434v2.225l.019.128h-.444l.019-.128v-2.717c0-.239-.176-.433-.393-.433-.217 0-.392.194-.392.433v2.717l.019.128h-1.089c.097-1.834.842-3.255 1.261-3.917zm16.032 8.706c-.138.06-.239.103-.473.103-.234 0-.334-.043-.473-.103-.167-.072-.376-.163-.758-.163-.381 0-.59.09-.758.163-.138.06-.239.103-.472.103-.234 0-.334-.043-.473-.103-.168-.072-.376-.163-.758-.163-.381 0-.59.09-.758.163-.139.06-.239.103-.473.103-.234 0-.334-.043-.473-.103-.167-.072-.376-.163-.758-.163s-.591.09-.758.163c-.139.06-.239.103-.473.103-.233 0-.334-.043-.472-.103-.168-.072-.377-.163-.758-.163-.382 0-.591.09-.758.163-.138.06-.239.103-.473.103-.234 0-.334-.043-.472-.103-.168-.072-.377-.163-.758-.163s-.591.09-.758.163c-.138.06-.238.103-.473.103-.233 0-.333-.043-.472-.103-.168-.072-.376-.163-.758-.163-.381 0-.59.09-.758.163-.138.06-.239.103-.473.103-.233 0-.334-.043-.472-.103-.168-.072-.377-.163-.758-.163-.382 0-.591.09-.758.163-.109.046-.195.083-.339.097.032-.174.017-.359-.055-.533l-1.089-2.618h20.479l-1.089 2.618c-.038.091-.059.185-.067.279-.293.019-.469.095-.615.158z" id="Fill-2"/><path d="M20.43 25.557c-.233 0-.334-.043-.472-.103-.167-.072-.376-.163-.758-.163-.381 0-.59.09-.758.163-.138.06-.239.103-.473.103-.234 0-.334-.043-.473-.103-.168-.072-.377-.163-.758-.163s-.59.09-.758.163c-.138.06-.239.103-.472.103-.234 0-.334-.043-.473-.103-.168-.072-.376-.163-.758-.163s-.591.09-.759.163c-.138.06-.239.103-.472.103-.234 0-.334-.043-.472-.103-.167-.072-.376-.163-.758-.163-.381 0-.59.09-.758.163-.138.06-.239.103-.472.103-.233 0-.334-.043-.473-.103-.167-.072-.376-.163-.758-.163-.381 0-.591.09-.758.163-.139.06-.239.103-.473.103-.234 0-.334-.043-.472-.103-.167-.072-.376-.163-.758-.163s-.591.09-.758.163c-.139.06-.238.103-.472.103-.216 0-.392.194-.392.434s.176.434.392.434c.381 0 .59-.09.758-.162.138-.06.239-.103.472-.103.233 0 .334.043.472.103.168.072.376.162.758.162.381 0 .59-.09.758-.162.138-.06.239-.103.472-.103.233 0 .334.043.472.103.168.072.377.162.758.162s.591-.09.758-.162c.138-.06.239-.103.472-.103.234 0 .334.043.472.103.168.072.376.162.758.162s.591-.09.758-.162c.139-.06.239-.103.473-.103.234 0 .333.043.472.103.167.072.376.162.758.162.381 0 .59-.09.758-.162.139-.06.239-.103.473-.103.234 0 .334.043.472.103.168.072.376.162.758.162.381 0 .59-.09.758-.162.139-.06.239-.103.473-.103.234 0 .334.043.473.103.167.072.376.162.758.162.217 0 .393-.194.393-.434 0-.239-.176-.434-.393-.434" id="Fill-3"/><path d="M6.23 9.866c.12-.111.27-.164.426-.148.107.01.207.052.291.119l.005.013c.064.153.203.25.356.25h.045c.153 0 .292-.098.356-.25l.005-.013c.084-.068.184-.109.291-.119.156-.015.307.038.426.148.166.154.413.13.553-.053.139-.183.118-.457-.048-.611-.28-.259-.635-.384-.999-.348-.219.021-.426.098-.607.223-.181-.125-.388-.202-.606-.223-.365-.035-.719.089-.999.348-.166.154-.188.428-.049.611.14.183.387.207.554.053" id="Fill-4"/></g><g id="Sydney-copy" fill="#fff" sketch:type="MSShapeGroup"><path d="M8.774 85.801h.176c-.027.102-.043.208-.043.319 0 .642.492 1.165 1.097 1.165h7.144c.267 0 .524-.104.725-.291.237-.222.373-.54.373-.873 0-.333-.136-.651-.373-.873-.201-.188-.458-.291-.725-.291h-4.079l.013-.159c0-.287-.117-.562-.321-.752-.173-.162-.395-.251-.625-.251h-3.364c-.521 0-.946.45-.946 1.003 0 .553.425 1.004.946 1.004zm0-1.162h3.364l.098.04.051.118-.052.119-.098.04h-.002c-.22 0-.398.189-.398.423 0 .233.178.422.398.422h5.013c.093 0 .159.044.198.08.038.036.103.115.103.239 0 .125-.064.204-.103.24-.039.037-.105.08-.198.08h-7.144c-.166 0-.301-.143-.301-.32 0-.176.135-.319.301-.319.22 0 .398-.189.398-.422h.002c0-.234-.179-.423-.399-.423h-1.233c-.082 0-.149-.071-.149-.159 0-.087.067-.158.149-.158z" id="Fill-1"/><path d="M29.635 102.815c-.237 0-.339-.042-.48-.1-.17-.071-.382-.159-.769-.159s-.599.088-.77.159l-.273.085 1.539-3.554c.113-.262.093-.566-.053-.809-.147-.242-.4-.389-.671-.389h-.879c-.065-.763-.319-1.439-.689-2.034-.006-1.267-.368-2.469-1.062-3.554l.006-.098c0-4.361-3.925-6.25-4.092-6.328-.205-.096-.439-.096-.644 0-.14.066-2.949 1.418-3.83 4.45-1.638-1.672-3.003-2.076-3.073-2.096-.288-.081-.595.014-.796.249-.032.038-.647.768-1.083 1.959-.488-.186-.803-.253-.846-.262-.273-.055-.552.044-.739.263-.032.037-.659.78-1.143 2.005-.33-.107-.535-.155-.572-.164-.277-.062-.565.036-.756.259-.078.091-1.843 2.194-1.981 5.351h-1.084c-.272 0-.524.146-.671.389-.146.243-.167.548-.053.809l1.442 3.332c-.207.03-.348.088-.468.137-.14.059-.242.1-.479.1-.238 0-.338-.042-.479-.1-.17-.071-.382-.159-.77-.159-.22 0-.398.189-.398.423 0 .233.178.422.398.422.238 0 .339.042.479.1.17.071.382.158.769.158s.599-.088.769-.158c.14-.058.242-.1.479-.1.238 0 .338.042.479.1.17.071.382.158.769.158s.599-.088.769-.158c.141-.058.243-.1.479-.1.237 0 .338.042.479.1.17.071.382.158.769.158s.599-.088.769-.158c.141-.058.242-.1.479-.1s.338.042.479.1c.17.071.382.158.769.158.388 0 .599-.088.77-.158.14-.058.241-.1.479-.1.237 0 .338.042.479.1.171.071.382.158.769.158s.599-.088.769-.158c.14-.058.242-.1.479-.1s.338.042.479.1c.17.071.382.158.769.158s.599-.088.769-.158c.14-.058.242-.1.479-.1s.338.042.479.1c.17.071.382.158.769.158s.599-.088.769-.158c.14-.058.242-.1.479-.1.238 0 .339.042.48.1.17.071.382.158.769.158s.599-.088.769-.158c.14-.058.242-.1.479-.1s.338.042.479.1c.17.071.382.158.769.158s.599-.088.769-.158c.14-.058.242-.1.479-.1.238 0 .338.042.479.1.17.071.382.158.769.158s.599-.088.769-.158c.141-.058.243-.1.48-.1s.338.042.479.1c.17.071.382.158.769.158.22 0 .398-.189.398-.422 0-.234-.178-.423-.398-.423zm-5.707-6.642c-.195-.108-.436-.028-.538.178l-.837 1.697h-.119l.481-2.125c.051-.227-.08-.455-.294-.51-.214-.055-.429.085-.481.312l-.526 2.322h-.115l.02-.125v-2.648c0-.233-.178-.422-.398-.422-.22 0-.398.189-.398.422v2.648l.02.125h-.178l-.526-2.322c-.052-.227-.267-.367-.481-.312-.214.054-.345.283-.294.51l.481 2.125h-.214l-.837-1.697c-.102-.207-.343-.287-.538-.178-.195.108-.27.364-.168.57l.644 1.305h-1.997l-.05-.088c.387-2.049 3.184-3.403 4.537-3.856 1.373.46 4.23 1.846 4.552 3.944h-2.219l.643-1.305c.102-.206.027-.462-.168-.57zm.577-2.238c-1.49-1.017-3.046-1.49-3.171-1.527-.14-.042-.288-.042-.428 0-.124.037-1.676.508-3.165 1.523.88-1.784 2.683-2.823 3.38-3.171.7.347 2.507 1.383 3.384 3.176zm-3.385-6.179c.563.337 1.713 1.155 2.358 2.521-1.073-.819-2.028-1.21-2.074-1.229-.183-.074-.385-.074-.569 0-.046.019-1 .411-2.074 1.23.644-1.367 1.796-2.185 2.358-2.521zm-7.155 2.479c.153.081.337.187.545.326.524.35 1.299.978 2.126 2.02-.194.317-.36.643-.497.978-.905-1.049-1.85-1.768-2.671-2.256.153-.442.34-.807.497-1.068zm-2.634 1.894c.204.072.467.176.77.324l.159.08c.961.497 2.264 1.418 3.404 3.075l-.014.406c-.1.161-.191.329-.273.501-1.603-1.692-3.309-2.721-4.594-3.321.183-.451.388-.814.548-1.066zm-2.476 2.102c1.022.341 3.526 1.371 5.701 3.818h-2.702l.02-.125v-1.623c0-.234-.178-.423-.398-.423-.22 0-.398.189-.398.423v1.623l.019.125h-.45l.02-.125v-2.169c0-.233-.178-.423-.398-.423-.22 0-.398.189-.398.423v2.169l.019.125h-.451l.02-.125v-2.648c0-.233-.178-.422-.398-.422-.22 0-.398.189-.398.422v2.648l.019.125h-1.105c.099-1.788.855-3.172 1.28-3.818zm16.264 8.484c-.14.059-.242.1-.479.1s-.338-.042-.479-.1c-.17-.071-.382-.159-.769-.159s-.599.088-.769.159c-.14.059-.242.1-.479.1s-.338-.042-.479-.1c-.17-.071-.382-.159-.769-.159s-.599.088-.769.159c-.141.059-.242.1-.479.1s-.338-.042-.479-.1c-.17-.071-.382-.159-.769-.159s-.599.088-.769.159c-.141.059-.242.1-.48.1-.237 0-.338-.042-.479-.1-.171-.071-.382-.159-.769-.159s-.599.088-.769.159c-.14.059-.242.1-.479.1s-.338-.042-.479-.1c-.171-.071-.382-.159-.769-.159s-.599.088-.769.159c-.14.059-.242.1-.479.1s-.338-.042-.479-.1c-.17-.071-.382-.159-.769-.159s-.598.088-.769.159c-.14.059-.242.1-.479.1s-.338-.042-.479-.1c-.171-.071-.382-.159-.769-.159s-.599.088-.769.159c-.11.045-.198.081-.344.094.032-.169.017-.35-.056-.519l-1.105-2.552h20.776l-1.105 2.552c-.038.088-.059.18-.068.271-.297.019-.476.093-.624.154z" id="Fill-2"/><path d="M20.683 105.009c-.237 0-.338-.042-.479-.1-.17-.071-.382-.159-.769-.159s-.599.088-.769.159c-.14.058-.242.1-.479.1-.238 0-.339-.042-.479-.1-.17-.071-.382-.159-.769-.159s-.599.088-.769.159c-.14.058-.242.1-.479.1s-.338-.042-.479-.1c-.171-.071-.382-.159-.769-.159s-.599.088-.77.159c-.14.058-.242.1-.479.1s-.338-.042-.479-.1c-.169-.071-.382-.159-.769-.159s-.598.088-.769.159c-.14.058-.242.1-.479.1s-.338-.042-.479-.1c-.17-.071-.382-.159-.769-.159s-.599.088-.769.159c-.141.058-.242.1-.479.1s-.338-.042-.479-.1c-.17-.071-.382-.159-.769-.159-.388 0-.599.088-.769.159-.141.058-.242.1-.479.1-.22 0-.398.189-.398.423 0 .234.178.423.398.423.387 0 .599-.088.769-.158.14-.059.242-.1.479-.1s.338.042.479.1c.17.07.382.158.769.158s.599-.088.769-.158c.14-.059.242-.1.479-.1s.338.042.479.1c.17.07.382.158.769.158s.599-.088.769-.158c.14-.058.242-.1.479-.1s.339.042.479.1c.17.07.382.158.769.158s.599-.088.769-.158c.141-.059.242-.1.48-.1.237 0 .338.042.479.1.17.07.382.158.769.158s.598-.088.769-.158c.141-.059.243-.1.479-.1.238 0 .338.042.479.1.17.07.382.158.769.158s.599-.088.769-.158c.141-.059.242-.1.479-.1s.338.042.479.1c.17.07.382.158.769.158.22 0 .399-.189.399-.423 0-.233-.178-.423-.399-.423" id="Fill-3"/><path d="M6.277 89.717c.121-.108.274-.159.432-.144.108.01.21.05.295.116l.005.012c.065.149.206.244.361.244h.045c.155 0 .296-.095.361-.244l.005-.012c.085-.066.187-.106.295-.116.158-.015.311.037.432.144.168.15.419.127.561-.052.141-.178.12-.445-.049-.595-.284-.253-.644-.374-1.013-.34-.223.021-.432.095-.616.218-.184-.122-.393-.197-.615-.218-.37-.034-.73.087-1.014.34-.168.15-.191.417-.049.595.142.178.393.202.562.052" id="Fill-4"/></g><g fill="#67737B" sketch:type="MSShapeGroup"><path d="M8.774 46.801h.176c-.027.102-.043.208-.043.319 0 .642.492 1.165 1.097 1.165h7.144c.267 0 .524-.104.725-.291.237-.222.373-.54.373-.873 0-.333-.136-.651-.373-.873-.201-.188-.458-.291-.725-.291h-4.079l.013-.159c0-.287-.117-.562-.321-.752-.173-.162-.395-.251-.625-.251h-3.364c-.521 0-.946.45-.946 1.003 0 .553.425 1.004.946 1.004zm0-1.162h3.364l.098.04.051.118-.052.119-.098.04h-.002c-.22 0-.398.189-.398.423 0 .233.178.422.398.422h5.013c.093 0 .159.044.198.08.038.036.103.115.103.239 0 .125-.064.204-.103.24-.039.037-.105.08-.198.08h-7.144c-.166 0-.301-.143-.301-.32 0-.176.135-.319.301-.319.22 0 .398-.189.398-.422h.002c0-.234-.179-.423-.399-.423h-1.233c-.082 0-.149-.071-.149-.159 0-.087.067-.158.149-.158z" id="Fill-1"/><path d="M29.635 63.815c-.237 0-.339-.042-.48-.1-.17-.071-.382-.159-.769-.159s-.599.088-.77.159l-.273.085 1.539-3.554c.113-.262.093-.566-.053-.809-.147-.242-.4-.389-.671-.389h-.879c-.065-.763-.319-1.439-.689-2.034-.006-1.267-.368-2.469-1.062-3.554l.006-.098c0-4.361-3.925-6.25-4.092-6.328-.205-.096-.439-.096-.644 0-.14.066-2.949 1.418-3.83 4.45-1.638-1.672-3.003-2.076-3.073-2.096-.288-.081-.595.014-.796.249-.032.038-.647.768-1.083 1.959-.488-.186-.803-.253-.846-.262-.273-.055-.552.044-.739.263-.032.037-.659.78-1.143 2.005-.33-.107-.535-.155-.572-.164-.277-.062-.565.036-.756.259-.078.091-1.843 2.194-1.981 5.351h-1.084c-.272 0-.524.146-.671.389-.146.243-.167.548-.053.809l1.442 3.332c-.207.03-.348.088-.468.137-.14.059-.242.1-.479.1-.238 0-.338-.042-.479-.1-.17-.071-.382-.159-.77-.159-.22 0-.398.189-.398.423 0 .233.178.422.398.422.238 0 .339.042.479.1.17.071.382.158.769.158s.599-.088.769-.158c.14-.058.242-.1.479-.1.238 0 .338.042.479.1.17.071.382.158.769.158s.599-.088.769-.158c.141-.058.243-.1.479-.1.237 0 .338.042.479.1.17.071.382.158.769.158s.599-.088.769-.158c.141-.058.242-.1.479-.1s.338.042.479.1c.17.071.382.158.769.158.388 0 .599-.088.77-.158.14-.058.241-.1.479-.1.237 0 .338.042.479.1.171.071.382.158.769.158s.599-.088.769-.158c.14-.058.242-.1.479-.1s.338.042.479.1c.17.071.382.158.769.158s.599-.088.769-.158c.14-.058.242-.1.479-.1s.338.042.479.1c.17.071.382.158.769.158s.599-.088.769-.158c.14-.058.242-.1.479-.1.238 0 .339.042.48.1.17.071.382.158.769.158s.599-.088.769-.158c.14-.058.242-.1.479-.1s.338.042.479.1c.17.071.382.158.769.158s.599-.088.769-.158c.14-.058.242-.1.479-.1.238 0 .338.042.479.1.17.071.382.158.769.158s.599-.088.769-.158c.141-.058.243-.1.48-.1s.338.042.479.1c.17.071.382.158.769.158.22 0 .398-.189.398-.422 0-.234-.178-.423-.398-.423zm-5.707-6.642c-.195-.108-.436-.028-.538.178l-.837 1.697h-.119l.481-2.125c.051-.227-.08-.455-.294-.51-.214-.055-.429.085-.481.312l-.526 2.322h-.115l.02-.125v-2.648c0-.233-.178-.422-.398-.422-.22 0-.398.189-.398.422v2.648l.02.125h-.178l-.526-2.322c-.052-.227-.267-.367-.481-.312-.214.054-.345.283-.294.51l.481 2.125h-.214l-.837-1.697c-.102-.207-.343-.287-.538-.178-.195.108-.27.364-.168.57l.644 1.305h-1.997l-.05-.088c.387-2.049 3.184-3.403 4.537-3.856 1.373.46 4.23 1.846 4.552 3.944h-2.219l.643-1.305c.102-.206.027-.462-.168-.57zm.577-2.238c-1.49-1.017-3.046-1.49-3.171-1.527-.14-.042-.288-.042-.428 0-.124.037-1.676.508-3.165 1.523.88-1.784 2.683-2.823 3.38-3.171.7.347 2.507 1.383 3.384 3.176zm-3.385-6.179c.563.337 1.713 1.155 2.358 2.521-1.073-.819-2.028-1.21-2.074-1.229-.183-.074-.385-.074-.569 0-.046.019-1 .411-2.074 1.23.644-1.367 1.796-2.185 2.358-2.521zm-7.155 2.479c.153.081.337.187.545.326.524.35 1.299.978 2.126 2.02-.194.317-.36.643-.497.978-.905-1.049-1.85-1.768-2.671-2.256.153-.442.34-.807.497-1.068zm-2.634 1.894c.204.072.467.176.77.324l.159.08c.961.497 2.264 1.418 3.404 3.075l-.014.406c-.1.161-.191.329-.273.501-1.603-1.692-3.309-2.721-4.594-3.321.183-.451.388-.814.548-1.066zm-2.476 2.102c1.022.341 3.526 1.371 5.701 3.818h-2.702l.02-.125v-1.623c0-.234-.178-.423-.398-.423-.22 0-.398.189-.398.423v1.623l.019.125h-.45l.02-.125v-2.169c0-.233-.178-.423-.398-.423-.22 0-.398.189-.398.423v2.169l.019.125h-.451l.02-.125v-2.648c0-.233-.178-.422-.398-.422-.22 0-.398.189-.398.422v2.648l.019.125h-1.105c.099-1.788.855-3.172 1.28-3.818zm16.264 8.484c-.14.059-.242.1-.479.1s-.338-.042-.479-.1c-.17-.071-.382-.159-.769-.159s-.599.088-.769.159c-.14.059-.242.1-.479.1s-.338-.042-.479-.1c-.17-.071-.382-.159-.769-.159s-.599.088-.769.159c-.141.059-.242.1-.479.1s-.338-.042-.479-.1c-.17-.071-.382-.159-.769-.159s-.599.088-.769.159c-.141.059-.242.1-.48.1-.237 0-.338-.042-.479-.1-.171-.071-.382-.159-.769-.159s-.599.088-.769.159c-.14.059-.242.1-.479.1s-.338-.042-.479-.1c-.171-.071-.382-.159-.769-.159s-.599.088-.769.159c-.14.059-.242.1-.479.1s-.338-.042-.479-.1c-.17-.071-.382-.159-.769-.159s-.598.088-.769.159c-.14.059-.242.1-.479.1s-.338-.042-.479-.1c-.171-.071-.382-.159-.769-.159s-.599.088-.769.159c-.11.045-.198.081-.344.094.032-.169.017-.35-.056-.519l-1.105-2.552h20.776l-1.105 2.552c-.038.088-.059.18-.068.271-.297.019-.476.093-.624.154z" id="Fill-2"/><path d="M20.683 66.009c-.237 0-.338-.042-.479-.1-.17-.071-.382-.159-.769-.159s-.599.088-.769.159c-.14.058-.242.1-.479.1-.238 0-.339-.042-.479-.1-.17-.071-.382-.159-.769-.159s-.599.088-.769.159c-.14.058-.242.1-.479.1s-.338-.042-.479-.1c-.171-.071-.382-.159-.769-.159s-.599.088-.77.159c-.14.058-.242.1-.479.1s-.338-.042-.479-.1c-.169-.071-.382-.159-.769-.159s-.598.088-.769.159c-.14.058-.242.1-.479.1s-.338-.042-.479-.1c-.17-.071-.382-.159-.769-.159s-.599.088-.769.159c-.141.058-.242.1-.479.1s-.338-.042-.479-.1c-.17-.071-.382-.159-.769-.159-.388 0-.599.088-.769.159-.141.058-.242.1-.479.1-.22 0-.398.189-.398.423 0 .234.178.423.398.423.387 0 .599-.088.769-.158.14-.059.242-.1.479-.1s.338.042.479.1c.17.07.382.158.769.158s.599-.088.769-.158c.14-.059.242-.1.479-.1s.338.042.479.1c.17.07.382.158.769.158s.599-.088.769-.158c.14-.058.242-.1.479-.1s.339.042.479.1c.17.07.382.158.769.158s.599-.088.769-.158c.141-.059.242-.1.48-.1.237 0 .338.042.479.1.17.07.382.158.769.158s.598-.088.769-.158c.141-.059.243-.1.479-.1.238 0 .338.042.479.1.17.07.382.158.769.158s.599-.088.769-.158c.141-.059.242-.1.479-.1s.338.042.479.1c.17.07.382.158.769.158.22 0 .399-.189.399-.423 0-.233-.178-.423-.399-.423" id="Fill-3"/><path d="M6.277 50.717c.121-.108.274-.159.432-.144.108.01.21.05.295.116l.005.012c.065.149.206.244.361.244h.045c.155 0 .296-.095.361-.244l.005-.012c.085-.066.187-.106.295-.116.158-.015.311.037.432.144.168.15.419.127.561-.052.141-.178.12-.445-.049-.595-.284-.253-.644-.374-1.013-.34-.223.021-.432.095-.616.218-.184-.122-.393-.197-.615-.218-.37-.034-.73.087-1.014.34-.168.15-.191.417-.049.595.142.178.393.202.562.052" id="Fill-4"/></g><g fill="#206FAC" sketch:type="MSShapeGroup"><path d="M8.774 124.801h.176c-.027.102-.043.208-.043.319 0 .642.492 1.165 1.097 1.165h7.144c.267 0 .524-.104.725-.291.237-.222.373-.54.373-.873 0-.333-.136-.651-.373-.873-.201-.188-.458-.291-.725-.291h-4.079l.013-.159c0-.287-.117-.562-.321-.752-.173-.162-.395-.251-.625-.251h-3.364c-.521 0-.946.45-.946 1.003 0 .553.425 1.004.946 1.004zm0-1.162h3.364l.098.04.051.118-.052.119-.098.04h-.002c-.22 0-.398.189-.398.423 0 .233.178.422.398.422h5.013c.093 0 .159.044.198.08.038.036.103.115.103.239 0 .125-.064.204-.103.24-.039.037-.105.08-.198.08h-7.144c-.166 0-.301-.143-.301-.32 0-.176.135-.319.301-.319.22 0 .398-.189.398-.422h.002c0-.234-.179-.423-.399-.423h-1.233c-.082 0-.149-.071-.149-.159 0-.087.067-.158.149-.158z"/><path d="M29.635 141.815c-.237 0-.339-.042-.48-.1-.17-.071-.382-.159-.769-.159s-.599.088-.77.159l-.273.085 1.539-3.554c.113-.262.093-.566-.053-.809-.147-.242-.4-.389-.671-.389h-.879c-.065-.763-.319-1.439-.689-2.034-.006-1.267-.368-2.469-1.062-3.554l.006-.098c0-4.361-3.925-6.25-4.092-6.328-.205-.096-.439-.096-.644 0-.14.066-2.949 1.418-3.83 4.45-1.638-1.672-3.003-2.076-3.073-2.096-.288-.081-.595.014-.796.249-.032.038-.647.768-1.083 1.959-.488-.186-.803-.253-.846-.262-.273-.055-.552.044-.739.263-.032.037-.659.78-1.143 2.005-.33-.107-.535-.155-.572-.164-.277-.062-.565.036-.756.259-.078.091-1.843 2.194-1.981 5.351h-1.084c-.272 0-.524.146-.671.389-.146.243-.167.548-.053.809l1.442 3.332c-.207.03-.348.088-.468.137-.14.059-.242.1-.479.1-.238 0-.338-.042-.479-.1-.17-.071-.382-.159-.77-.159-.22 0-.398.189-.398.423 0 .233.178.422.398.422.238 0 .339.042.479.1.17.071.382.158.769.158s.599-.088.769-.158c.14-.058.242-.1.479-.1.238 0 .338.042.479.1.17.071.382.158.769.158s.599-.088.769-.158c.141-.058.243-.1.479-.1.237 0 .338.042.479.1.17.071.382.158.769.158s.599-.088.769-.158c.141-.058.242-.1.479-.1s.338.042.479.1c.17.071.382.158.769.158.388 0 .599-.088.77-.158.14-.058.241-.1.479-.1.237 0 .338.042.479.1.171.071.382.158.769.158s.599-.088.769-.158c.14-.058.242-.1.479-.1s.338.042.479.1c.17.071.382.158.769.158s.599-.088.769-.158c.14-.058.242-.1.479-.1s.338.042.479.1c.17.071.382.158.769.158s.599-.088.769-.158c.14-.058.242-.1.479-.1.238 0 .339.042.48.1.17.071.382.158.769.158s.599-.088.769-.158c.14-.058.242-.1.479-.1s.338.042.479.1c.17.071.382.158.769.158s.599-.088.769-.158c.14-.058.242-.1.479-.1.238 0 .338.042.479.1.17.071.382.158.769.158s.599-.088.769-.158c.141-.058.243-.1.48-.1s.338.042.479.1c.17.071.382.158.769.158.22 0 .398-.189.398-.422 0-.234-.178-.423-.398-.423zm-5.707-6.642c-.195-.108-.436-.028-.538.178l-.837 1.697h-.119l.481-2.125c.051-.227-.08-.455-.294-.51-.214-.055-.429.085-.481.312l-.526 2.322h-.115l.02-.125v-2.648c0-.233-.178-.422-.398-.422-.22 0-.398.189-.398.422v2.648l.02.125h-.178l-.526-2.322c-.052-.227-.267-.367-.481-.312-.214.054-.345.283-.294.51l.481 2.125h-.214l-.837-1.697c-.102-.207-.343-.287-.538-.178-.195.108-.27.364-.168.57l.644 1.305h-1.997l-.05-.088c.387-2.049 3.184-3.403 4.537-3.856 1.373.46 4.23 1.846 4.552 3.944h-2.219l.643-1.305c.102-.206.027-.462-.168-.57zm.577-2.238c-1.49-1.017-3.046-1.49-3.171-1.527-.14-.042-.288-.042-.428 0-.124.037-1.676.508-3.165 1.523.88-1.784 2.683-2.823 3.38-3.171.7.347 2.507 1.383 3.384 3.176zm-3.385-6.179c.563.337 1.713 1.155 2.358 2.521-1.073-.819-2.028-1.21-2.074-1.229-.183-.074-.385-.074-.569 0-.046.019-1 .411-2.074 1.23.644-1.367 1.796-2.185 2.358-2.521zm-7.155 2.479c.153.081.337.187.545.326.524.35 1.299.978 2.126 2.02-.194.317-.36.643-.497.978-.905-1.049-1.85-1.768-2.671-2.256.153-.442.34-.807.497-1.068zm-2.634 1.894c.204.072.467.176.77.324l.159.08c.961.497 2.264 1.418 3.404 3.075l-.014.406c-.1.161-.191.329-.273.501-1.603-1.692-3.309-2.721-4.594-3.321.183-.451.388-.814.548-1.066zm-2.476 2.102c1.022.341 3.526 1.371 5.701 3.818h-2.702l.02-.125v-1.623c0-.234-.178-.423-.398-.423-.22 0-.398.189-.398.423v1.623l.019.125h-.45l.02-.125v-2.169c0-.233-.178-.423-.398-.423-.22 0-.398.189-.398.423v2.169l.019.125h-.451l.02-.125v-2.648c0-.233-.178-.422-.398-.422-.22 0-.398.189-.398.422v2.648l.019.125h-1.105c.099-1.788.855-3.172 1.28-3.818zm16.264 8.484c-.14.059-.242.1-.479.1s-.338-.042-.479-.1c-.17-.071-.382-.159-.769-.159s-.599.088-.769.159c-.14.059-.242.1-.479.1s-.338-.042-.479-.1c-.17-.071-.382-.159-.769-.159s-.599.088-.769.159c-.141.059-.242.1-.479.1s-.338-.042-.479-.1c-.17-.071-.382-.159-.769-.159s-.599.088-.769.159c-.141.059-.242.1-.48.1-.237 0-.338-.042-.479-.1-.171-.071-.382-.159-.769-.159s-.599.088-.769.159c-.14.059-.242.1-.479.1s-.338-.042-.479-.1c-.171-.071-.382-.159-.769-.159s-.599.088-.769.159c-.14.059-.242.1-.479.1s-.338-.042-.479-.1c-.17-.071-.382-.159-.769-.159s-.598.088-.769.159c-.14.059-.242.1-.479.1s-.338-.042-.479-.1c-.171-.071-.382-.159-.769-.159s-.599.088-.769.159c-.11.045-.198.081-.344.094.032-.169.017-.35-.056-.519l-1.105-2.552h20.776l-1.105 2.552c-.038.088-.059.18-.068.271-.297.019-.476.093-.624.154z"/><path d="M20.683 144.009c-.237 0-.338-.042-.479-.1-.17-.071-.382-.159-.769-.159s-.599.088-.769.159c-.14.058-.242.1-.479.1-.238 0-.339-.042-.479-.1-.17-.071-.382-.159-.769-.159s-.599.088-.769.159c-.14.058-.242.1-.479.1s-.338-.042-.479-.1c-.171-.071-.382-.159-.769-.159s-.599.088-.77.159c-.14.058-.242.1-.479.1s-.338-.042-.479-.1c-.169-.071-.382-.159-.769-.159s-.598.088-.769.159c-.14.058-.242.1-.479.1s-.338-.042-.479-.1c-.17-.071-.382-.159-.769-.159s-.599.088-.769.159c-.141.058-.242.1-.479.1s-.338-.042-.479-.1c-.17-.071-.382-.159-.769-.159-.388 0-.599.088-.769.159-.141.058-.242.1-.479.1-.22 0-.398.189-.398.423 0 .234.178.423.398.423.387 0 .599-.088.769-.158.14-.059.242-.1.479-.1s.338.042.479.1c.17.07.382.158.769.158s.599-.088.769-.158c.14-.059.242-.1.479-.1s.338.042.479.1c.17.07.382.158.769.158s.599-.088.769-.158c.14-.058.242-.1.479-.1s.339.042.479.1c.17.07.382.158.769.158s.599-.088.769-.158c.141-.059.242-.1.48-.1.237 0 .338.042.479.1.17.07.382.158.769.158s.598-.088.769-.158c.141-.059.243-.1.479-.1.238 0 .338.042.479.1.17.07.382.158.769.158s.599-.088.769-.158c.141-.059.242-.1.479-.1s.338.042.479.1c.17.07.382.158.769.158.22 0 .399-.189.399-.423 0-.233-.178-.423-.399-.423"/><path d="M6.277 128.717c.121-.108.274-.159.432-.144.108.01.21.05.295.116l.005.012c.065.149.206.244.361.244h.045c.155 0 .296-.095.361-.244l.005-.012c.085-.066.187-.106.295-.116.158-.015.311.037.432.144.168.15.419.127.561-.052.141-.178.12-.445-.049-.595-.284-.253-.644-.374-1.013-.34-.223.021-.432.095-.616.218-.184-.122-.393-.197-.615-.218-.37-.034-.73.087-1.014.34-.168.15-.191.417-.049.595.142.178.393.202.562.052"/></g></g></g></svg>