<svg width="32" height="232" viewBox="0 0 32 232" xmlns="http://www.w3.org/2000/svg" xmlns:sketch="http://www.bohemiancoding.com/sketch/ns"><title>Tazmania</title><g sketch:type="MSLayerGroup" fill="none"><g fill="#fff" sketch:type="MSShapeGroup"><path d="M27.991 25.134h-15.99c-.562 0-1.019-.483-1.019-1.077s.457-1.077 1.019-1.077l.139-.012c1.423-.086 2.556-1.337 2.556-2.863 0-.56-.153-1.082-.417-1.524h12.762c.234 0 .423-.2.423-.447s-.189-.447-.423-.447h-1.402c.041-.236-.006-.488-.151-.696l-1.127-1.609c-.089-.128-.209-.228-.347-.29l-2.567-1.162-1.322-1.075c-.146-.119-.325-.184-.509-.186-.616-.006-2.649-.022-2.966.002-.12.009-.453.034-1.21.576l-1.52-.533c-.086-.03-.176-.045-.266-.045h-2.888l-.213.029-2.46.676-.174.07-2.562 1.39c-.108.059-.203.141-.278.242l-1.516 2.033-.08.13h-.649c-.467 0-.846.401-.846.895s.379.895.846.895h9.149c.562 0 1.019.483 1.019 1.077s-.457 1.078-1.019 1.078l-.139.012c-1.423.086-2.556 1.337-2.556 2.863 0 1.562 1.188 2.837 2.659 2.867l.03.001h16.014c.467 0 .846-.401.846-.895s-.379-.895-.846-.895zm-21.696-8.798l2.315-1.256 2.265-.622h2.643l1.799.631c.264.092.553.042.775-.134.262-.208.595-.432.74-.501.305-.009 1.414-.006 2.486.002l1.181.961.183.113 2.454 1.111.732 1.045h-10.433c-.421-.283-.92-.448-1.455-.448h-6.358l.672-.901z" id="Fill-1"/><path d="M19.385 21.539c.181.075.406.168.817.168.411 0 .636-.093.817-.168.149-.062.257-.106.509-.106s.36.045.509.106c.181.075.406.168.817.168.411 0 .636-.093.817-.168.149-.062.257-.106.509-.106s.36.045.509.106c.181.075.406.168.817.168.234 0 .423-.2.423-.447s-.19-.447-.423-.447c-.252 0-.36-.045-.509-.106-.181-.075-.406-.168-.817-.168-.411 0-.636.093-.817.168-.149.062-.257.106-.509.106s-.36-.045-.509-.106c-.181-.075-.406-.168-.817-.168-.411 0-.636.093-.817.168-.149.062-.257.106-.509.106s-.36-.045-.509-.106c-.181-.075-.406-.168-.817-.168-.411 0-.636.093-.817.168-.149.062-.257.106-.509.106s-.36-.045-.509-.106c-.181-.075-.406-.168-.817-.168-.234 0-.423.2-.423.447s.189.447.423.447c.252 0 .36.045.509.106.181.075.406.168.817.168.411 0 .636-.093.817-.168.149-.062.257-.106.509-.106s.36.045.509.106" id="Fill-2"/><path d="M25.848 22.753c-.149.062-.257.106-.509.106s-.36-.045-.509-.106c-.181-.075-.406-.168-.817-.168-.411 0-.636.093-.817.168-.149.062-.257.106-.509.106s-.36-.045-.509-.106c-.181-.075-.406-.168-.817-.168-.411 0-.636.093-.817.168-.149.062-.257.106-.509.106s-.36-.045-.509-.106c-.181-.075-.406-.168-.817-.168-.234 0-.423.2-.423.447s.189.447.423.447c.252 0 .36.045.509.106.181.075.406.168.817.168.411 0 .636-.093.817-.168.149-.062.257-.106.509-.106s.36.045.509.106c.181.075.406.168.817.168.411 0 .636-.093.817-.168.149-.062.257-.106.509-.106s.36.045.509.106c.181.075.406.168.817.168.411 0 .636-.093.817-.168.149-.062.257-.106.509-.106s.36.045.509.106c.181.075.406.168.817.168.234 0 .423-.2.423-.447s-.189-.447-.423-.447c-.252 0-.36-.045-.509-.106-.181-.075-.406-.168-.817-.168-.411 0-.636.093-.817.168" id="Fill-3"/><path d="M11.798 11.707c.083.121.212.185.343.185.086 0 .173-.028.248-.085l1.291-.991c.189-.145.231-.425.094-.625s-.402-.245-.591-.099l-1.291.991c-.189.145-.231.425-.094.625" id="Fill-4"/><path d="M7.171 10.931c.083.121.212.185.343.185.086 0 .173-.028.248-.085.189-.145.231-.425.094-.625l-.937-1.364c-.137-.2-.402-.244-.591-.099-.189.145-.231.425-.094.625l.937 1.364" id="Fill-5"/><path d="M4.439 13.113l1.683.282.067.006c.204 0 .384-.157.418-.377.037-.244-.121-.473-.352-.512l-1.683-.282c-.23-.038-.448.128-.484.372-.037.244.121.473.352.512" id="Fill-6"/><path d="M9.913 10.485l.067.006c.204 0 .384-.157.418-.377l.267-1.779c.037-.244-.121-.473-.352-.512-.231-.038-.448.128-.484.372l-.267 1.779c-.037.244.121.473.352.512" id="Fill-7"/><path d="M10.983 10.906c.069.046.147.067.223.067.142 0 .28-.075.36-.212l.57-.971c.123-.21.062-.486-.137-.616s-.46-.066-.583.144l-.57.971c-.123.21-.062.486.137.616" id="Fill-8"/><path d="M5.503 11.434l.918.603c.069.045.147.067.223.067.142 0 .28-.075.36-.212.123-.21.062-.486-.137-.616l-.919-.603c-.199-.13-.459-.066-.583.144-.123.21-.062.486.137.616" id="Fill-9"/><path d="M8.292 10.194c.046.206.22.345.412.345l.097-.012c.228-.056.369-.297.315-.538l-.247-1.113c-.053-.241-.281-.39-.509-.333-.228.056-.369.297-.315.538l.247 1.113" id="Fill-10"/><path d="M19.801 5.066c.249-.221.604-.224.855-.028l.008.02c.069.158.219.258.384.258h.051c.165 0 .314-.101.384-.258l.008-.02c.251-.196.606-.193.855.028.179.159.446.134.596-.055.15-.189.127-.472-.052-.63-.527-.468-1.266-.497-1.817-.125-.551-.372-1.29-.343-1.817.125-.179.159-.202.441-.052.63.15.189.417.214.596.055" id="Fill-11"/><path d="M15.555 6.473c.249-.221.604-.224.856-.028l.008.019c.069.158.219.258.384.258h.051c.165 0 .314-.101.384-.258l.008-.019c.251-.196.606-.193.856.028.179.159.446.134.596-.055.15-.189.127-.471-.052-.63-.527-.468-1.266-.497-1.817-.125-.552-.372-1.29-.343-1.817.125-.179.159-.202.441-.052.63.15.189.417.214.596.055" id="Fill-12"/><path d="M18.556 8.164c-.259 0-.509.1-.704.282-.23.214-.362.522-.362.845 0 .323.132.631.362.845.195.182.445.282.704.282h1.47l-.004.085c0 .281.115.549.315.735.17.158.387.245.612.245h3.093c.511 0 .927-.44.927-.98s-.416-.98-.927-.98h-.089l.023-.232c0-.622-.478-1.127-1.066-1.127h-4.354zm4.354 1.36c-.234 0-.423.2-.423.447h-.002c0 .247.19.447.423.447h1.134c.044 0 .08.038.08.085 0 .047-.036.085-.08.085h-3.093l-.053-.022-.028-.063.028-.064.052-.021h.002c.234 0 .423-.2.423-.447s-.189-.447-.423-.447h-2.394l-.144-.058c-.028-.026-.075-.083-.075-.174 0-.091.047-.148.075-.174l.145-.058h4.354c.121 0 .22.104.22.232s-.099.232-.22.232z" id="Fill-13"/></g><g fill="#373D43" sketch:type="MSShapeGroup"><path d="M27.991 65.134h-15.99c-.562 0-1.019-.483-1.019-1.077s.457-1.077 1.019-1.077l.139-.012c1.423-.086 2.556-1.337 2.556-2.863 0-.56-.153-1.082-.417-1.524h12.762c.234 0 .423-.2.423-.447s-.189-.447-.423-.447h-1.402c.041-.236-.006-.488-.151-.696l-1.127-1.609c-.089-.128-.209-.228-.347-.29l-2.567-1.162-1.322-1.075c-.146-.119-.325-.184-.509-.186-.616-.006-2.649-.022-2.966.002-.12.009-.453.034-1.21.576l-1.52-.533c-.086-.03-.176-.045-.266-.045h-2.888l-.213.029-2.46.676-.174.07-2.562 1.39c-.108.059-.203.141-.278.242l-1.516 2.033-.08.13h-.649c-.467 0-.846.401-.846.895s.379.895.846.895h9.149c.562 0 1.019.483 1.019 1.077s-.457 1.078-1.019 1.078l-.139.012c-1.423.086-2.556 1.337-2.556 2.863 0 1.562 1.188 2.837 2.659 2.867l.03.001h16.014c.467 0 .846-.401.846-.895s-.379-.895-.846-.895zm-21.696-8.798l2.315-1.256 2.265-.622h2.643l1.799.631c.264.092.553.042.775-.134.262-.208.595-.432.74-.501.305-.009 1.414-.006 2.486.002l1.181.961.183.113 2.454 1.111.732 1.045h-10.433c-.421-.283-.92-.448-1.455-.448h-6.358l.672-.901z" id="Fill-1"/><path d="M19.385 61.539c.181.075.406.168.817.168.411 0 .636-.093.817-.168.149-.062.257-.106.509-.106s.36.045.509.106c.181.075.406.168.817.168.411 0 .636-.093.817-.168.149-.062.257-.106.509-.106s.36.045.509.106c.181.075.406.168.817.168.234 0 .423-.2.423-.447s-.19-.447-.423-.447c-.252 0-.36-.045-.509-.106-.181-.075-.406-.168-.817-.168-.411 0-.636.093-.817.168-.149.062-.257.106-.509.106s-.36-.045-.509-.106c-.181-.075-.406-.168-.817-.168-.411 0-.636.093-.817.168-.149.062-.257.106-.509.106s-.36-.045-.509-.106c-.181-.075-.406-.168-.817-.168-.411 0-.636.093-.817.168-.149.062-.257.106-.509.106s-.36-.045-.509-.106c-.181-.075-.406-.168-.817-.168-.234 0-.423.2-.423.447s.189.447.423.447c.252 0 .36.045.509.106.181.075.406.168.817.168.411 0 .636-.093.817-.168.149-.062.257-.106.509-.106s.36.045.509.106" id="Fill-2"/><path d="M25.848 62.753c-.149.062-.257.106-.509.106s-.36-.045-.509-.106c-.181-.075-.406-.168-.817-.168-.411 0-.636.093-.817.168-.149.062-.257.106-.509.106s-.36-.045-.509-.106c-.181-.075-.406-.168-.817-.168-.411 0-.636.093-.817.168-.149.062-.257.106-.509.106s-.36-.045-.509-.106c-.181-.075-.406-.168-.817-.168-.234 0-.423.2-.423.447s.189.447.423.447c.252 0 .36.045.509.106.181.075.406.168.817.168.411 0 .636-.093.817-.168.149-.062.257-.106.509-.106s.36.045.509.106c.181.075.406.168.817.168.411 0 .636-.093.817-.168.149-.062.257-.106.509-.106s.36.045.509.106c.181.075.406.168.817.168.411 0 .636-.093.817-.168.149-.062.257-.106.509-.106s.36.045.509.106c.181.075.406.168.817.168.234 0 .423-.2.423-.447s-.189-.447-.423-.447c-.252 0-.36-.045-.509-.106-.181-.075-.406-.168-.817-.168-.411 0-.636.093-.817.168" id="Fill-3"/><path d="M11.798 51.707c.083.121.212.185.343.185.086 0 .173-.028.248-.085l1.291-.991c.189-.145.231-.425.094-.625s-.402-.245-.591-.099l-1.291.991c-.189.145-.231.425-.094.625" id="Fill-4"/><path d="M7.171 50.931c.083.121.212.185.343.185.086 0 .173-.028.248-.085.189-.145.231-.425.094-.625l-.937-1.364c-.137-.2-.402-.244-.591-.099-.189.145-.231.425-.094.625l.937 1.364" id="Fill-5"/><path d="M4.439 53.113l1.683.282.067.006c.204 0 .384-.157.418-.377.037-.244-.121-.473-.352-.512l-1.683-.282c-.23-.038-.448.128-.484.372-.037.244.121.473.352.512" id="Fill-6"/><path d="M9.913 50.485l.067.006c.204 0 .384-.157.418-.377l.267-1.779c.037-.244-.121-.473-.352-.512-.231-.038-.448.128-.484.372l-.267 1.779c-.037.244.121.473.352.512" id="Fill-7"/><path d="M10.983 50.906c.069.046.147.067.223.067.142 0 .28-.075.36-.212l.57-.971c.123-.21.062-.486-.137-.616s-.46-.066-.583.144l-.57.971c-.123.21-.062.486.137.616" id="Fill-8"/><path d="M5.503 51.434l.918.603c.069.045.147.067.223.067.142 0 .28-.075.36-.212.123-.21.062-.486-.137-.616l-.919-.603c-.199-.13-.459-.066-.583.144-.123.21-.062.486.137.616" id="Fill-9"/><path d="M8.292 50.194c.046.206.22.345.412.345l.097-.012c.228-.056.369-.297.315-.538l-.247-1.113c-.053-.241-.281-.39-.509-.333-.228.056-.369.297-.315.538l.247 1.113" id="Fill-10"/><path d="M19.801 45.066c.249-.221.604-.224.855-.028l.008.02c.069.158.219.258.384.258h.051c.165 0 .314-.101.384-.258l.008-.02c.251-.196.606-.193.855.028.179.159.446.134.596-.055.15-.189.127-.472-.052-.63-.527-.468-1.266-.497-1.817-.125-.551-.372-1.29-.343-1.817.125-.179.159-.202.441-.052.63.15.189.417.214.596.055" id="Fill-11"/><path d="M15.555 46.473c.249-.221.604-.224.856-.028l.008.019c.069.158.219.258.384.258h.051c.165 0 .314-.101.384-.258l.008-.019c.251-.196.606-.193.856.028.179.159.446.134.596-.055.15-.189.127-.471-.052-.63-.527-.468-1.266-.497-1.817-.125-.552-.372-1.29-.343-1.817.125-.179.159-.202.441-.052.63.15.189.417.214.596.055" id="Fill-12"/><path d="M18.556 48.164c-.259 0-.509.1-.704.282-.23.214-.362.522-.362.845 0 .323.132.631.362.845.195.182.445.282.704.282h1.47l-.004.085c0 .281.115.549.315.735.17.158.387.245.612.245h3.093c.511 0 .927-.44.927-.98s-.416-.98-.927-.98h-.089l.023-.232c0-.622-.478-1.127-1.066-1.127h-4.354zm4.354 1.36c-.234 0-.423.2-.423.447h-.002c0 .247.19.447.423.447h1.134c.044 0 .08.038.08.085 0 .047-.036.085-.08.085h-3.093l-.053-.022-.028-.063.028-.064.052-.021h.002c.234 0 .423-.2.423-.447s-.189-.447-.423-.447h-2.394l-.144-.058c-.028-.026-.075-.083-.075-.174 0-.091.047-.148.075-.174l.145-.058h4.354c.121 0 .22.104.22.232s-.099.232-.22.232z" id="Fill-13"/></g><g fill="#67737B" sketch:type="MSShapeGroup"><path d="M27.991 105.134h-15.99c-.562 0-1.019-.483-1.019-1.077s.457-1.077 1.019-1.077l.139-.012c1.423-.086 2.556-1.337 2.556-2.863 0-.56-.153-1.082-.417-1.524h12.762c.234 0 .423-.2.423-.447s-.189-.447-.423-.447h-1.402c.041-.236-.006-.488-.151-.696l-1.127-1.609c-.089-.128-.209-.228-.347-.29l-2.567-1.162-1.322-1.075c-.146-.119-.325-.184-.509-.186-.616-.006-2.649-.022-2.966.002-.12.009-.453.034-1.21.576l-1.52-.533c-.086-.03-.176-.045-.266-.045h-2.888l-.213.029-2.46.676-.174.07-2.562 1.39c-.108.059-.203.141-.278.242l-1.516 2.033-.08.13h-.649c-.467 0-.846.401-.846.895s.379.895.846.895h9.149c.562 0 1.019.483 1.019 1.077s-.457 1.078-1.019 1.078l-.139.012c-1.423.086-2.556 1.337-2.556 2.863 0 1.562 1.188 2.837 2.659 2.867l.03.001h16.014c.467 0 .846-.401.846-.895s-.379-.895-.846-.895zm-21.696-8.798l2.315-1.256 2.265-.622h2.643l1.799.631c.264.092.553.042.775-.134.262-.208.595-.432.74-.501.305-.009 1.414-.006 2.486.002l1.181.961.183.113 2.454 1.111.732 1.045h-10.433c-.421-.283-.92-.448-1.455-.448h-6.358l.672-.901z"/><path d="M19.385 101.539c.181.075.406.168.817.168.411 0 .636-.093.817-.168.149-.062.257-.106.509-.106s.36.045.509.106c.181.075.406.168.817.168.411 0 .636-.093.817-.168.149-.062.257-.106.509-.106s.36.045.509.106c.181.075.406.168.817.168.234 0 .423-.2.423-.447s-.19-.447-.423-.447c-.252 0-.36-.045-.509-.106-.181-.075-.406-.168-.817-.168-.411 0-.636.093-.817.168-.149.062-.257.106-.509.106s-.36-.045-.509-.106c-.181-.075-.406-.168-.817-.168-.411 0-.636.093-.817.168-.149.062-.257.106-.509.106s-.36-.045-.509-.106c-.181-.075-.406-.168-.817-.168-.411 0-.636.093-.817.168-.149.062-.257.106-.509.106s-.36-.045-.509-.106c-.181-.075-.406-.168-.817-.168-.234 0-.423.2-.423.447s.189.447.423.447c.252 0 .36.045.509.106.181.075.406.168.817.168.411 0 .636-.093.817-.168.149-.062.257-.106.509-.106s.36.045.509.106"/><path d="M25.848 102.753c-.149.062-.257.106-.509.106s-.36-.045-.509-.106c-.181-.075-.406-.168-.817-.168-.411 0-.636.093-.817.168-.149.062-.257.106-.509.106s-.36-.045-.509-.106c-.181-.075-.406-.168-.817-.168-.411 0-.636.093-.817.168-.149.062-.257.106-.509.106s-.36-.045-.509-.106c-.181-.075-.406-.168-.817-.168-.234 0-.423.2-.423.447s.189.447.423.447c.252 0 .36.045.509.106.181.075.406.168.817.168.411 0 .636-.093.817-.168.149-.062.257-.106.509-.106s.36.045.509.106c.181.075.406.168.817.168.411 0 .636-.093.817-.168.149-.062.257-.106.509-.106s.36.045.509.106c.181.075.406.168.817.168.411 0 .636-.093.817-.168.149-.062.257-.106.509-.106s.36.045.509.106c.181.075.406.168.817.168.234 0 .423-.2.423-.447s-.189-.447-.423-.447c-.252 0-.36-.045-.509-.106-.181-.075-.406-.168-.817-.168-.411 0-.636.093-.817.168"/><path d="M11.798 91.707c.083.121.212.185.343.185.086 0 .173-.028.248-.085l1.291-.991c.189-.145.231-.425.094-.625s-.402-.245-.591-.099l-1.291.991c-.189.145-.231.425-.094.625"/><path d="M7.171 90.931c.083.121.212.185.343.185.086 0 .173-.028.248-.085.189-.145.231-.425.094-.625l-.937-1.364c-.137-.2-.402-.244-.591-.099-.189.145-.231.425-.094.625l.937 1.364"/><path d="M4.439 93.113l1.683.282.067.006c.204 0 .384-.157.418-.377.037-.244-.121-.473-.352-.512l-1.683-.282c-.23-.038-.448.128-.484.372-.037.244.121.473.352.512"/><path d="M9.913 90.485l.067.006c.204 0 .384-.157.418-.377l.267-1.779c.037-.244-.121-.473-.352-.512-.231-.038-.448.128-.484.372l-.267 1.779c-.037.244.121.473.352.512"/><path d="M10.983 90.906c.069.046.147.067.223.067.142 0 .28-.075.36-.212l.57-.971c.123-.21.062-.486-.137-.616s-.46-.066-.583.144l-.57.971c-.123.21-.062.486.137.616"/><path d="M5.503 91.434l.918.603c.069.045.147.067.223.067.142 0 .28-.075.36-.212.123-.21.062-.486-.137-.616l-.919-.603c-.199-.13-.459-.066-.583.144-.123.21-.062.486.137.616"/><path d="M8.292 90.194c.046.206.22.345.412.345l.097-.012c.228-.056.369-.297.315-.538l-.247-1.113c-.053-.241-.281-.39-.509-.333-.228.056-.369.297-.315.538l.247 1.113"/><path d="M19.801 85.066c.249-.221.604-.224.855-.028l.008.02c.069.158.219.258.384.258h.051c.165 0 .314-.101.384-.258l.008-.02c.251-.196.606-.193.855.028.179.159.446.134.596-.055.15-.189.127-.472-.052-.63-.527-.468-1.266-.497-1.817-.125-.551-.372-1.29-.343-1.817.125-.179.159-.202.441-.052.63.15.189.417.214.596.055"/><path d="M15.555 86.473c.249-.221.604-.224.856-.028l.008.019c.069.158.219.258.384.258h.051c.165 0 .314-.101.384-.258l.008-.019c.251-.196.606-.193.856.028.179.159.446.134.596-.055.15-.189.127-.471-.052-.63-.527-.468-1.266-.497-1.817-.125-.552-.372-1.29-.343-1.817.125-.179.159-.202.441-.052.63.15.189.417.214.596.055"/><path d="M18.556 88.164c-.259 0-.509.1-.704.282-.23.214-.362.522-.362.845 0 .323.132.631.362.845.195.182.445.282.704.282h1.47l-.004.085c0 .281.115.549.315.735.17.158.387.245.612.245h3.093c.511 0 .927-.44.927-.98s-.416-.98-.927-.98h-.089l.023-.232c0-.622-.478-1.127-1.066-1.127h-4.354zm4.354 1.36c-.234 0-.423.2-.423.447h-.002c0 .247.19.447.423.447h1.134c.044 0 .08.038.08.085 0 .047-.036.085-.08.085h-3.093l-.053-.022-.028-.063.028-.064.052-.021h.002c.234 0 .423-.2.423-.447s-.189-.447-.423-.447h-2.394l-.144-.058c-.028-.026-.075-.083-.075-.174 0-.091.047-.148.075-.174l.145-.058h4.354c.121 0 .22.104.22.232s-.099.232-.22.232z"/></g><g fill="#206FAC" sketch:type="MSShapeGroup"><path d="M27.991 146.134h-15.99c-.562 0-1.019-.483-1.019-1.077s.457-1.077 1.019-1.077l.139-.012c1.423-.086 2.556-1.337 2.556-2.863 0-.56-.153-1.082-.417-1.524h12.762c.234 0 .423-.2.423-.447s-.189-.447-.423-.447h-1.402c.041-.236-.006-.488-.151-.696l-1.127-1.609c-.089-.128-.209-.228-.347-.29l-2.567-1.162-1.322-1.075c-.146-.119-.325-.184-.509-.186-.616-.006-2.649-.022-2.966.002-.12.009-.453.034-1.21.576l-1.52-.533c-.086-.03-.176-.045-.266-.045h-2.888l-.213.029-2.46.676-.174.07-2.562 1.39c-.108.059-.203.141-.278.242l-1.516 2.033-.08.13h-.649c-.467 0-.846.401-.846.895s.379.895.846.895h9.149c.562 0 1.019.483 1.019 1.077s-.457 1.078-1.019 1.078l-.139.012c-1.423.086-2.556 1.337-2.556 2.863 0 1.562 1.188 2.837 2.659 2.867l.03.001h16.014c.467 0 .846-.401.846-.895s-.379-.895-.846-.895zm-21.696-8.798l2.315-1.256 2.265-.622h2.643l1.799.631c.264.092.553.042.775-.134.262-.208.595-.432.74-.501.305-.009 1.414-.006 2.486.002l1.181.961.183.113 2.454 1.111.732 1.045h-10.433c-.421-.283-.92-.448-1.455-.448h-6.358l.672-.901zM19.385 142.539c.181.075.406.168.817.168.411 0 .636-.093.817-.168.149-.062.257-.106.509-.106s.36.045.509.106c.181.075.406.168.817.168.411 0 .636-.093.817-.168.149-.062.257-.106.509-.106s.36.045.509.106c.181.075.406.168.817.168.234 0 .423-.2.423-.447s-.19-.447-.423-.447c-.252 0-.36-.045-.509-.106-.181-.075-.406-.168-.817-.168-.411 0-.636.093-.817.168-.149.062-.257.106-.509.106s-.36-.045-.509-.106c-.181-.075-.406-.168-.817-.168-.411 0-.636.093-.817.168-.149.062-.257.106-.509.106s-.36-.045-.509-.106c-.181-.075-.406-.168-.817-.168-.411 0-.636.093-.817.168-.149.062-.257.106-.509.106s-.36-.045-.509-.106c-.181-.075-.406-.168-.817-.168-.234 0-.423.2-.423.447s.189.447.423.447c.252 0 .36.045.509.106.181.075.406.168.817.168.411 0 .636-.093.817-.168.149-.062.257-.106.509-.106s.36.045.509.106M25.848 143.753c-.149.062-.257.106-.509.106s-.36-.045-.509-.106c-.181-.075-.406-.168-.817-.168-.411 0-.636.093-.817.168-.149.062-.257.106-.509.106s-.36-.045-.509-.106c-.181-.075-.406-.168-.817-.168-.411 0-.636.093-.817.168-.149.062-.257.106-.509.106s-.36-.045-.509-.106c-.181-.075-.406-.168-.817-.168-.234 0-.423.2-.423.447s.189.447.423.447c.252 0 .36.045.509.106.181.075.406.168.817.168.411 0 .636-.093.817-.168.149-.062.257-.106.509-.106s.36.045.509.106c.181.075.406.168.817.168.411 0 .636-.093.817-.168.149-.062.257-.106.509-.106s.36.045.509.106c.181.075.406.168.817.168.411 0 .636-.093.817-.168.149-.062.257-.106.509-.106s.36.045.509.106c.181.075.406.168.817.168.234 0 .423-.2.423-.447s-.189-.447-.423-.447c-.252 0-.36-.045-.509-.106-.181-.075-.406-.168-.817-.168-.411 0-.636.093-.817.168M11.798 132.707c.083.121.212.185.343.185.086 0 .173-.028.248-.085l1.291-.991c.189-.145.231-.425.094-.625s-.402-.245-.591-.099l-1.291.991c-.189.145-.231.425-.094.625M7.171 131.931c.083.121.212.185.343.185.086 0 .173-.028.248-.085.189-.145.231-.425.094-.625l-.937-1.364c-.137-.2-.402-.244-.591-.099-.189.145-.231.425-.094.625l.937 1.364M4.439 134.113l1.683.282.067.006c.204 0 .384-.157.418-.377.037-.244-.121-.473-.352-.512l-1.683-.282c-.23-.038-.448.128-.484.372-.037.244.121.473.352.512M9.913 131.485l.067.006c.204 0 .384-.157.418-.377l.267-1.779c.037-.244-.121-.473-.352-.512-.231-.038-.448.128-.484.372l-.267 1.779c-.037.244.121.473.352.512M10.983 131.906c.069.046.147.067.223.067.142 0 .28-.075.36-.212l.57-.971c.123-.21.062-.486-.137-.616s-.46-.066-.583.144l-.57.971c-.123.21-.062.486.137.616M5.503 132.434l.918.603c.069.045.147.067.223.067.142 0 .28-.075.36-.212.123-.21.062-.486-.137-.616l-.919-.603c-.199-.13-.459-.066-.583.144-.123.21-.062.486.137.616M8.292 131.194c.046.206.22.345.412.345l.097-.012c.228-.056.369-.297.315-.538l-.247-1.113c-.053-.241-.281-.39-.509-.333-.228.056-.369.297-.315.538l.247 1.113M19.801 126.066c.249-.221.604-.224.855-.028l.008.02c.069.158.219.258.384.258h.051c.165 0 .314-.101.384-.258l.008-.02c.251-.196.606-.193.855.028.179.159.446.134.596-.055.15-.189.127-.472-.052-.63-.527-.468-1.266-.497-1.817-.125-.551-.372-1.29-.343-1.817.125-.179.159-.202.441-.052.63.15.189.417.214.596.055M15.555 127.473c.249-.221.604-.224.856-.028l.008.019c.069.158.219.258.384.258h.051c.165 0 .314-.101.384-.258l.008-.019c.251-.196.606-.193.856.028.179.159.446.134.596-.055.15-.189.127-.471-.052-.63-.527-.468-1.266-.497-1.817-.125-.552-.372-1.29-.343-1.817.125-.179.159-.202.441-.052.63.15.189.417.214.596.055"/><path d="M18.556 129.164c-.259 0-.509.1-.704.282-.23.214-.362.522-.362.845 0 .323.132.631.362.845.195.182.445.282.704.282h1.47l-.004.085c0 .281.115.549.315.735.17.158.387.245.612.245h3.093c.511 0 .927-.44.927-.98s-.416-.98-.927-.98h-.089l.023-.232c0-.622-.478-1.127-1.066-1.127h-4.354zm4.354 1.36c-.234 0-.423.2-.423.447h-.002c0 .247.19.447.423.447h1.134c.044 0 .08.038.08.085 0 .047-.036.085-.08.085h-3.093l-.053-.022-.028-.063.028-.064.052-.021h.002c.234 0 .423-.2.423-.447s-.189-.447-.423-.447h-2.394l-.144-.058c-.028-.026-.075-.083-.075-.174 0-.091.047-.148.075-.174l.145-.058h4.354c.121 0 .22.104.22.232s-.099.232-.22.232z"/></g></g></svg>