<svg width="32" height="232" viewBox="0 0 32 232" xmlns="http://www.w3.org/2000/svg" xmlns:sketch="http://www.bohemiancoding.com/sketch/ns"><title>Vienna</title><g sketch:type="MSPage" fill="none"><g sketch:type="MSLayerGroup"><g fill="#373D43" sketch:type="MSShapeGroup"><path d="M8.14 21.727c-.071-.037-.151-.051-.23-.041-.086.012-.166.053-.228.117-.075.079-.117.184-.117.296 0 .158.085.301.219.372l.179.045.178-.044.103-.078c.074-.079.117-.185.116-.296 0-.111-.042-.216-.117-.295l-.102-.077" id="Fill-1"/><path d="M7.643 11.866c-.039-.081-.101-.146-.179-.187-.069-.036-.145-.05-.222-.04l-.161.059-.073.059c-.122.127-.152.323-.075.484.039.079.1.143.175.183l.18.045c.105 0 .206-.044.281-.122.121-.127.151-.321.074-.482" id="Fill-2"/><path d="M27.183 6.035l-.102-.077c-.071-.037-.152-.052-.23-.041-.086.012-.166.053-.228.117-.075.078-.117.185-.117.296 0 .158.085.301.219.372l.179.044.178-.044.103-.077c.074-.079.117-.185.116-.296 0-.11-.042-.217-.117-.295" id="Fill-3"/><path d="M6.759 19.189l-.33-.189-.18-.347c-.07-.134-.203-.216-.348-.216-.145 0-.279.083-.349.216l-.18.347-.33.189c-.127.073-.206.213-.206.365 0 .153.079.293.206.365l.33.19.18.346c.07.133.203.217.349.217.145 0 .278-.083.348-.217l.18-.346.33-.19c.127-.073.206-.213.206-.365s-.079-.292-.206-.365" id="Fill-4"/><path d="M23.257 4.258l.33.189.18.346c.07.133.203.216.349.216.145 0 .278-.083.348-.216l.18-.346.33-.189c.127-.073.207-.214.207-.366 0-.153-.08-.292-.207-.365l-.33-.189-.18-.346c-.07-.133-.203-.216-.348-.216-.145 0-.279.083-.349.216l-.18.346-.33.189c-.127.073-.206.214-.206.365 0 .152.079.292.206.366" id="Fill-5"/><path d="M16.228 20.734c-.029-.119-.107-.218-.213-.271-.106-.054-.228-.054-.335-.004l-1.676.794c-.107.051-.187.148-.219.266-.032.118-.012.245.053.347l1.506 2.333c.108.168.316.229.492.146l.844-.4c.176-.083.269-.288.221-.484l-.672-2.727zm-.414 2.707l-1.054-1.633.817-.387.47 1.909-.234.111z" id="Fill-6"/><path d="M20.969 21.108c-.419-.963-1.168-1.704-2.111-2.087-.142-.056-.288-.106-.437-.146-.518-.224-.928-.64-1.159-1.177-.153-.355-.217-.744-.187-1.13l.071-.277.002-.009.002-.008.032-.179.003-.019.003-.015.003-.024.02-.175.002-.027.003-.054.001-.019.006-.141v-.093l-.003-.136-.006-.098-.012-.135-.012-.094-.022-.139-.002-.01-.015-.079-.033-.141-.003-.013-.019-.077-.048-.156-.003-.008-.019-.061-.087-.224c-.732-1.702-2.648-2.462-4.27-1.693l-.296.141-2.773-6.131-.017-.054-.153-.355.851-.403c.2-.094.288-.341.198-.551-.09-.21-.326-.303-.525-.208l-.85.403-.196-.455.851-.403c.2-.094.288-.341.198-.55-.09-.21-.325-.304-.525-.209l-.851.403-.012-.029c-.031-.073-.081-.13-.14-.172l-.325-1.427c-.026-.114-.096-.211-.193-.268-.313-.316-.782-.406-1.188-.214-.405.192-.651.62-.632 1.075-.024.114-.001.233.064.33l.805 1.199c-.009.074-.001.151.03.224l.013.029-.85.403c-.2.095-.289.342-.198.551.09.209.325.303.525.208l.85-.403.196.455-.851.403c-.199.095-.288.341-.198.551.09.21.325.303.525.208l.851-.403.153.355.027.049 2.548 6.238-.297.141c-1.622.769-2.346 2.779-1.614 4.481l.1.212.035.065.082.144.036.058.009.014.083.125.051.069.087.113.06.072.09.1.06.064.094.091.008.008.062.057.105.088.01.008.043.035.023.018.138.099.003.002.018.012.004.003.007.005.013.009.15.093.008.005.253.132c.295.232.531.539.684.895.23.536.257 1.134.074 1.69-.07.144-.132.292-.185.441-.352.999-.316 2.084.103 3.058.678 1.578 2.237 2.524 3.879 2.356l.303-.045c.311-.058.614-.157.903-.293l1.135-.538.032.075c.09.21.325.303.525.208s.289-.341.198-.551l-.032-.075 1.134-.537c.335-.159.647-.367.925-.619l.115-.108c1.207-1.18 1.561-3.033.883-4.611l-.007-.016zm-13.385-17.037l-.7-1.042c-.007-.122.058-.237.166-.288.108-.052.233-.027.315.059l.282 1.241-.063.03zm.98 2.375l-.688-1.599.132-.063.688 1.599-.132.063zm.326.76l.133-.064 4.784 10.578-.522.248-4.395-10.762zm6.692 19.514l-.018.008c-.199.095-.408.162-.623.203l-.211.031c-.733.076-1.478-.182-2.027-.695.021-.158.065-.308.129-.447.145-.317.393-.575.712-.727.731-.346 1.595-.004 1.925.764.058.134.096.276.115.42.019.147.018.296-.004.443zm3.429-2.203l-.067.062c-.163.148-.346.27-.543.364l-2.074.982c-.032-.14-.077-.278-.134-.411-.51-1.186-1.845-1.715-2.975-1.18-.342.162-.632.404-.851.7-.191-.533-.194-1.114-.004-1.653l.126-.293.044-.104c.344-.982.308-2.046-.102-2.997-.281-.655-.726-1.215-1.286-1.624l-.154-.088-.177-.089-.005-.003-.073-.046-.009-.006-.011-.007-.064-.045-.014-.011-.034-.027-.056-.046-.02-.02-.013-.012-.048-.046-.032-.034-.044-.05-.032-.038-.044-.057-.024-.033-.041-.062-.026-.04-.038-.067-.022-.039-.05-.107c-.372-.865-.004-1.887.82-2.277l.269-.127 1.511 3.699c.042.103.122.184.221.224.099.041.21.038.307-.009l1.26-.597.002-.001c.2-.095.288-.341.198-.551l-.02-.041-1.629-3.602.269-.128c.824-.391 1.798-.005 2.17.86l.042.109.012.039.026.081.011.047.017.072.006.034.002.009.011.072.006.049.006.065.004.052.001.065v.05l-.004.07-.003.047-.001.017-.009.078-.003.018v.003l-.015.088-.001.005-.002.009-.053.198-.039.178c-.079.711.027 1.433.309 2.087.409.952 1.146 1.684 2.075 2.062l.103.034.292.095c.556.225.997.663 1.242 1.231l.006.014c.393.924.183 2.007-.524 2.698z" id="Fill-7"/><path d="M15.482 19.187c-.09-.209-.325-.303-.525-.209l-1.534.727c-.2.095-.288.341-.198.551.09.209.326.303.525.208l1.534-.727c.2-.094.289-.341.198-.55" id="Fill-8"/><path d="M23.566 17.641l-10.833-12.848c-.145-.172-.396-.188-.56-.036l-.297.276c-.164.152-.179.416-.034.587.143.17.388.187.553.042l.007-.006 10.308 12.224-.29.27-.007.006c-.164.153-.18.416-.034.588.118.14.306.177.46.104l.1-.067.297-.276 1.3 1.542c.118.141.306.178.461.104l.099-.068c.164-.152.179-.416.034-.587l-1.563-1.854" id="Fill-9"/><path d="M18.632 8.942c.658 0 1.194-.563 1.194-1.253v-3.863c.214.133.358.378.358.657 0 .229.178.416.397.416.219 0 .397-.187.397-.416 0-.88-.683-1.597-1.522-1.597l-.013.002-.014-.002c-.219 0-.397.187-.397.417v3.207c-.125-.047-.26-.073-.4-.073-.658 0-1.194.562-1.194 1.253 0 .691.536 1.253 1.194 1.253zm0-1.673c.221 0 .4.188.4.42 0 .232-.179.42-.4.42-.221 0-.4-.188-.4-.42 0-.232.179-.42.4-.42z" id="Fill-10"/><path d="M25.868 8.468l-.003-.03-.011-.039-.012-.038-.014-.027-.022-.043-.024-.031-.024-.031-.028-.023-.033-.028-.024-.014-.046-.025-.004-.002-3.14-1.308c-.122-.051-.26-.035-.37.043-.108.078-.174.206-.174.344v3.208c-.125-.047-.259-.074-.4-.074-.658 0-1.194.563-1.194 1.253 0 .691.535 1.253 1.194 1.253.658 0 1.194-.562 1.194-1.253v-2.465l1.486.619.861.359v1.616c-.126-.047-.26-.074-.4-.074-.658 0-1.194.562-1.194 1.253 0 .691.536 1.253 1.194 1.253.658 0 1.193-.562 1.193-1.253v-4.39l-.005-.053zm-4.328 3.555c-.221 0-.4-.188-.4-.42 0-.232.179-.42.4-.42.221 0 .4.188.4.42 0 .232-.179.42-.4.42zm3.14 1.308c-.221 0-.4-.189-.4-.42 0-.232.18-.42.4-.42.22 0 .4.189.4.42 0 .231-.18.42-.4.42zm.4-4.418v.306l-.219-.091-2.128-.887v-.412l2.347.978v.106z" id="Fill-11"/></g><g id="Vienna-copy" fill="#fff" sketch:type="MSShapeGroup"><path d="M8.109 101.59c-.07-.037-.15-.051-.228-.04-.085.012-.164.053-.225.117-.074.078-.116.183-.116.294 0 .156.084.299.217.37l.177.044.176-.043.102-.078c.074-.078.115-.184.115-.294 0-.11-.042-.215-.116-.293l-.101-.076" id="Fill-1"/><path d="M7.617 91.797c-.038-.08-.1-.145-.177-.185-.068-.036-.144-.05-.22-.04l-.159.059-.073.059c-.121.126-.151.321-.074.481.038.078.099.142.173.182l.178.045c.104 0 .204-.043.278-.121.12-.126.149-.319.074-.478" id="Fill-2"/><path d="M26.963 86.007l-.101-.076c-.071-.037-.151-.051-.228-.04-.085.012-.164.052-.225.116-.074.078-.116.184-.116.294 0 .156.084.299.217.37l.177.044.176-.044.102-.077c.074-.078.115-.184.115-.294 0-.11-.042-.216-.116-.293" id="Fill-3"/><path d="M6.741 99.07l-.327-.188-.179-.344c-.069-.133-.201-.215-.345-.215-.144 0-.276.082-.345.215l-.178.344-.327.188c-.126.072-.204.212-.204.362 0 .152.078.29.204.363l.327.189.178.344c.069.132.201.215.345.215.144 0 .276-.083.345-.215l.179-.344.327-.189c.126-.072.204-.211.204-.363 0-.151-.078-.29-.204-.362" id="Fill-4"/><path d="M23.076 84.242l.327.188.178.344c.069.132.201.215.345.215.144 0 .276-.083.345-.215l.178-.344.327-.188c.126-.073.205-.212.205-.363 0-.152-.079-.29-.205-.363l-.327-.188-.178-.344c-.069-.132-.201-.215-.345-.215-.144 0-.276.082-.345.215l-.179.344-.327.188c-.126.072-.204.212-.204.363s.078.29.204.363" id="Fill-5"/><path d="M16.116 100.604c-.029-.119-.106-.217-.211-.269-.105-.053-.226-.054-.332-.004l-1.66.789c-.106.05-.185.147-.217.264-.032.117-.012.243.052.345l1.491 2.317c.107.167.313.227.487.145l.835-.397c.174-.083.266-.286.218-.481l-.665-2.708zm-.41 2.689l-1.043-1.622.809-.384.465 1.896-.232.11z" id="Fill-6"/><path d="M20.811 100.976c-.415-.957-1.157-1.692-2.09-2.073-.14-.056-.285-.105-.433-.145-.513-.223-.919-.636-1.147-1.169-.151-.353-.215-.739-.185-1.122l.07-.275.002-.009.002-.008.032-.178.003-.019.003-.015.003-.024.02-.173.002-.027.003-.053.001-.019.006-.14v-.092l-.003-.135-.006-.098-.012-.134-.012-.093-.022-.138-.002-.01-.015-.078-.032-.14-.003-.013-.019-.076-.047-.155-.003-.008-.019-.06-.086-.222c-.725-1.69-2.621-2.445-4.227-1.681l-.293.14-2.746-6.089-.017-.053-.151-.353.842-.401c.198-.093.286-.339.196-.547-.09-.208-.322-.301-.52-.207l-.842.4-.194-.452.842-.4c.198-.093.286-.339.196-.546-.089-.209-.322-.301-.52-.207l-.842.4-.012-.029c-.031-.072-.08-.129-.138-.171l-.322-1.417c-.025-.113-.095-.21-.191-.266-.31-.314-.775-.403-1.176-.212-.401.191-.645.616-.626 1.068-.024.113-.001.232.063.327l.797 1.19c-.009.074-.001.15.03.222l.013.029-.842.4c-.198.094-.286.339-.196.547.089.208.322.301.52.206l.842-.4.194.452-.842.4c-.197.094-.286.339-.196.547.089.208.322.301.52.207l.842-.4.151.353.027.048 2.522 6.195-.294.14c-1.606.763-2.322 2.76-1.598 4.45l.099.211.035.065.081.143.036.057.009.014.082.124.05.068.086.113.059.072.089.099.06.063.093.091.008.008.061.056.104.088.01.008.042.035.023.018.137.099.003.002.018.012.003.003.007.004.013.009.148.093.008.004.25.131c.293.23.526.535.677.888.228.533.254 1.127.073 1.678-.069.143-.13.29-.183.438-.348.992-.313 2.069.102 3.037.672 1.567 2.215 2.507 3.841 2.339l.3-.044c.308-.058.608-.156.894-.291l1.124-.534.032.074c.089.208.322.301.52.207s.286-.339.196-.547l-.032-.074 1.123-.533c.332-.158.64-.365.916-.614l.114-.107c1.195-1.172 1.546-3.012.874-4.579l-.007-.016zm-13.252-16.918l-.693-1.035c-.007-.121.057-.236.164-.286.107-.051.23-.026.312.058l.279 1.233-.063.03zm.97 2.358l-.681-1.588.13-.062.681 1.588-.13.062zm.323.754l.132-.063 4.737 10.505-.517.246-4.352-10.687zm6.625 19.379l-.018.008c-.197.094-.404.161-.617.201l-.208.03c-.726.075-1.464-.181-2.007-.69.021-.156.065-.306.128-.444.144-.314.389-.571.705-.721.724-.344 1.579-.004 1.906.758.057.133.095.274.114.417.019.146.018.294-.003.44zm3.395-2.187l-.066.062c-.162.147-.343.269-.538.361l-2.053.975c-.032-.139-.076-.276-.132-.408-.505-1.178-1.827-1.703-2.945-1.172-.339.161-.625.401-.843.695-.189-.529-.192-1.107-.004-1.642l.124-.291.044-.103c.341-.975.305-2.032-.101-2.977-.278-.65-.719-1.207-1.273-1.612l-.152-.087-.175-.088-.005-.003-.072-.046-.009-.006-.011-.007-.063-.045-.014-.011-.033-.027-.055-.046-.02-.02-.013-.012-.047-.046-.032-.033-.044-.049-.031-.038-.044-.057-.024-.033-.041-.061-.025-.04-.037-.067-.022-.039-.05-.106c-.368-.859-.004-1.874.812-2.262l.266-.126 1.496 3.674c.042.102.121.182.219.223.098.041.208.037.304-.009l1.247-.593.002-.001c.198-.094.286-.338.196-.547l-.02-.04-1.613-3.577.266-.127c.816-.388 1.78-.004 2.149.854l.042.108.012.039.025.08.011.046.017.071.006.033.002.009.011.071.006.048.006.065.003.052.001.064v.05l-.003.07-.003.047-.001.017-.009.078-.003.018v.003l-.015.087-.001.005-.002.009-.053.197-.038.176c-.078.706.027 1.423.306 2.073.405.945 1.135 1.673 2.054 2.048l.102.033.289.094c.55.224.987.659 1.23 1.223l.006.013c.389.917.181 1.993-.518 2.679z" id="Fill-7"/><path d="M15.378 99.067c-.089-.208-.322-.301-.52-.207l-1.518.722c-.198.094-.286.339-.196.547.09.208.322.301.52.207l1.518-.722c.198-.093.286-.339.196-.546" id="Fill-8"/><path d="M23.382 97.532l-10.726-12.759c-.144-.171-.392-.186-.555-.035l-.294.274c-.162.151-.178.413-.034.583.142.169.384.186.547.041l.007-.006 10.206 12.139-.287.268-.007.006c-.162.152-.178.413-.034.584.117.139.303.176.455.103l.099-.067.294-.274 1.288 1.531c.117.14.303.176.456.103l.098-.067c.162-.151.178-.413.034-.583l-1.548-1.842" id="Fill-9"/><path d="M18.496 88.894c.652 0 1.182-.559 1.182-1.244v-3.837c.212.132.354.375.354.652 0 .228.176.413.393.413.217 0 .393-.185.393-.413 0-.874-.676-1.586-1.506-1.586l-.013.002-.014-.002c-.217 0-.393.185-.393.414v3.185c-.124-.046-.257-.073-.396-.073-.652 0-1.182.558-1.182 1.244 0 .686.53 1.244 1.182 1.244zm0-1.661c.218 0 .396.187.396.417 0 .23-.178.417-.396.417-.218 0-.396-.187-.396-.417 0-.23.178-.417.396-.417z" id="Fill-10"/><path d="M25.661 88.423l-.003-.03-.011-.039-.012-.038-.014-.027-.022-.042-.024-.03-.024-.03-.027-.023-.032-.028-.024-.014-.045-.024-.003-.002-3.109-1.299c-.121-.05-.258-.035-.366.042-.107.077-.172.205-.172.342v3.186c-.124-.047-.257-.074-.396-.074-.652 0-1.182.559-1.182 1.244 0 .686.53 1.244 1.182 1.244.652 0 1.182-.558 1.182-1.244v-2.448l1.471.615.852.356v1.605c-.124-.047-.257-.073-.396-.073-.652 0-1.182.558-1.182 1.244 0 .686.53 1.244 1.182 1.244.652 0 1.181-.558 1.181-1.244v-4.36l-.005-.053zm-4.285 3.53c-.218 0-.396-.187-.396-.417 0-.23.178-.417.396-.417.218 0 .396.187.396.417 0 .23-.178.417-.396.417zm3.109 1.299c-.218 0-.396-.187-.396-.417 0-.23.178-.417.396-.417.218 0 .396.187.396.417 0 .23-.178.417-.396.417zm.396-4.387v.304l-.217-.09-2.107-.881v-.409l2.324.971v.105z" id="Fill-11"/></g><g fill="#67737B" sketch:type="MSShapeGroup"><path d="M8.109 62.59c-.07-.037-.15-.051-.228-.04-.085.012-.164.053-.225.117-.074.078-.116.183-.116.294 0 .156.084.299.217.37l.177.044.176-.043.102-.078c.074-.078.115-.184.115-.294 0-.11-.042-.215-.116-.293l-.101-.076" id="Fill-1"/><path d="M7.617 52.797c-.038-.08-.1-.145-.177-.185-.068-.036-.144-.05-.22-.04l-.159.059-.073.059c-.121.126-.151.321-.074.481.038.078.099.142.173.182l.178.045c.104 0 .204-.043.278-.121.12-.126.149-.319.074-.478" id="Fill-2"/><path d="M26.963 47.007l-.101-.076c-.071-.037-.151-.051-.228-.04-.085.012-.164.052-.225.116-.074.078-.116.184-.116.294 0 .156.084.299.217.37l.177.044.176-.044.102-.077c.074-.078.115-.184.115-.294 0-.11-.042-.216-.116-.293" id="Fill-3"/><path d="M6.741 60.07l-.327-.188-.179-.344c-.069-.133-.201-.215-.345-.215-.144 0-.276.082-.345.215l-.178.344-.327.188c-.126.072-.204.212-.204.362 0 .152.078.29.204.363l.327.189.178.344c.069.132.201.215.345.215.144 0 .276-.083.345-.215l.179-.344.327-.189c.126-.072.204-.211.204-.363 0-.151-.078-.29-.204-.362" id="Fill-4"/><path d="M23.076 45.242l.327.188.178.344c.069.132.201.215.345.215.144 0 .276-.083.345-.215l.178-.344.327-.188c.126-.073.205-.212.205-.363 0-.152-.079-.29-.205-.363l-.327-.188-.178-.344c-.069-.132-.201-.215-.345-.215-.144 0-.276.082-.345.215l-.179.344-.327.188c-.126.072-.204.212-.204.363s.078.29.204.363" id="Fill-5"/><path d="M16.116 61.604c-.029-.119-.106-.217-.211-.269-.105-.053-.226-.054-.332-.004l-1.66.789c-.106.05-.185.147-.217.264-.032.117-.012.243.052.345l1.491 2.317c.107.167.313.227.487.145l.835-.397c.174-.083.266-.286.218-.481l-.665-2.708zm-.41 2.689l-1.043-1.622.809-.384.465 1.896-.232.11z" id="Fill-6"/><path d="M20.811 61.976c-.415-.957-1.157-1.692-2.09-2.073-.14-.056-.285-.105-.433-.145-.513-.223-.919-.636-1.147-1.169-.151-.353-.215-.739-.185-1.122l.07-.275.002-.009.002-.008.032-.178.003-.019.003-.015.003-.024.02-.173.002-.027.003-.053.001-.019.006-.14v-.092l-.003-.135-.006-.098-.012-.134-.012-.093-.022-.138-.002-.01-.015-.078-.032-.14-.003-.013-.019-.076-.047-.155-.003-.008-.019-.06-.086-.222c-.725-1.69-2.621-2.445-4.227-1.681l-.293.14-2.746-6.089-.017-.053-.151-.353.842-.401c.198-.093.286-.339.196-.547-.09-.208-.322-.301-.52-.207l-.842.4-.194-.452.842-.4c.198-.093.286-.339.196-.546-.089-.209-.322-.301-.52-.207l-.842.4-.012-.029c-.031-.072-.08-.129-.138-.171l-.322-1.417c-.025-.113-.095-.21-.191-.266-.31-.314-.775-.403-1.176-.212-.401.191-.645.616-.626 1.068-.024.113-.001.232.063.327l.797 1.19c-.009.074-.001.15.03.222l.013.029-.842.4c-.198.094-.286.339-.196.547.089.208.322.301.52.206l.842-.4.194.452-.842.4c-.197.094-.286.339-.196.547.089.208.322.301.52.207l.842-.4.151.353.027.048 2.522 6.195-.294.14c-1.606.763-2.322 2.76-1.598 4.45l.099.211.035.065.081.143.036.057.009.014.082.124.05.068.086.113.059.072.089.099.06.063.093.091.008.008.061.056.104.088.01.008.042.035.023.018.137.099.003.002.018.012.003.003.007.004.013.009.148.093.008.004.25.131c.293.23.526.535.677.888.228.533.254 1.127.073 1.678-.069.143-.13.29-.183.438-.348.992-.313 2.069.102 3.037.672 1.567 2.215 2.507 3.841 2.339l.3-.044c.308-.058.608-.156.894-.291l1.124-.534.032.074c.089.208.322.301.52.207s.286-.339.196-.547l-.032-.074 1.123-.533c.332-.158.64-.365.916-.614l.114-.107c1.195-1.172 1.546-3.012.874-4.579l-.007-.016zm-13.252-16.918l-.693-1.035c-.007-.121.057-.236.164-.286.107-.051.23-.026.312.058l.279 1.233-.063.03zm.97 2.358l-.681-1.588.13-.062.681 1.588-.13.062zm.323.754l.132-.063 4.737 10.505-.517.246-4.352-10.687zm6.625 19.379l-.018.008c-.197.094-.404.161-.617.201l-.208.03c-.726.075-1.464-.181-2.007-.69.021-.156.065-.306.128-.444.144-.314.389-.571.705-.721.724-.344 1.579-.004 1.906.758.057.133.095.274.114.417.019.146.018.294-.003.44zm3.395-2.187l-.066.062c-.162.147-.343.269-.538.361l-2.053.975c-.032-.139-.076-.276-.132-.408-.505-1.178-1.827-1.703-2.945-1.172-.339.161-.625.401-.843.695-.189-.529-.192-1.107-.004-1.642l.124-.291.044-.103c.341-.975.305-2.032-.101-2.977-.278-.65-.719-1.207-1.273-1.612l-.152-.087-.175-.088-.005-.003-.072-.046-.009-.006-.011-.007-.063-.045-.014-.011-.033-.027-.055-.046-.02-.02-.013-.012-.047-.046-.032-.033-.044-.049-.031-.038-.044-.057-.024-.033-.041-.061-.025-.04-.037-.067-.022-.039-.05-.106c-.368-.859-.004-1.874.812-2.262l.266-.126 1.496 3.674c.042.102.121.182.219.223.098.041.208.037.304-.009l1.247-.593.002-.001c.198-.094.286-.338.196-.547l-.02-.04-1.613-3.577.266-.127c.816-.388 1.78-.004 2.149.854l.042.108.012.039.025.08.011.046.017.071.006.033.002.009.011.071.006.048.006.065.003.052.001.064v.05l-.003.07-.003.047-.001.017-.009.078-.003.018v.003l-.015.087-.001.005-.002.009-.053.197-.038.176c-.078.706.027 1.423.306 2.073.405.945 1.135 1.673 2.054 2.048l.102.033.289.094c.55.224.987.659 1.23 1.223l.006.013c.389.917.181 1.993-.518 2.679z" id="Fill-7"/><path d="M15.378 60.067c-.089-.208-.322-.301-.52-.207l-1.518.722c-.198.094-.286.339-.196.547.09.208.322.301.52.207l1.518-.722c.198-.093.286-.339.196-.546" id="Fill-8"/><path d="M23.382 58.532l-10.726-12.759c-.144-.171-.392-.186-.555-.035l-.294.274c-.162.151-.178.413-.034.583.142.169.384.186.547.041l.007-.006 10.206 12.139-.287.268-.007.006c-.162.152-.178.413-.034.584.117.139.303.176.455.103l.099-.067.294-.274 1.288 1.531c.117.14.303.176.456.103l.098-.067c.162-.151.178-.413.034-.583l-1.548-1.842" id="Fill-9"/><path d="M18.496 49.894c.652 0 1.182-.559 1.182-1.244v-3.837c.212.132.354.375.354.652 0 .228.176.413.393.413.217 0 .393-.185.393-.413 0-.874-.676-1.586-1.506-1.586l-.013.002-.014-.002c-.217 0-.393.185-.393.414v3.185c-.124-.046-.257-.073-.396-.073-.652 0-1.182.558-1.182 1.244 0 .686.53 1.244 1.182 1.244zm0-1.661c.218 0 .396.187.396.417 0 .23-.178.417-.396.417-.218 0-.396-.187-.396-.417 0-.23.178-.417.396-.417z" id="Fill-10"/><path d="M25.661 49.423l-.003-.03-.011-.039-.012-.038-.014-.027-.022-.042-.024-.03-.024-.03-.027-.023-.032-.028-.024-.014-.045-.024-.003-.002-3.109-1.299c-.121-.05-.258-.035-.366.042-.107.077-.172.205-.172.342v3.186c-.124-.047-.257-.074-.396-.074-.652 0-1.182.559-1.182 1.244 0 .686.53 1.244 1.182 1.244.652 0 1.182-.558 1.182-1.244v-2.448l1.471.615.852.356v1.605c-.124-.047-.257-.073-.396-.073-.652 0-1.182.558-1.182 1.244 0 .686.53 1.244 1.182 1.244.652 0 1.181-.558 1.181-1.244v-4.36l-.005-.053zm-4.285 3.53c-.218 0-.396-.187-.396-.417 0-.23.178-.417.396-.417.218 0 .396.187.396.417 0 .23-.178.417-.396.417zm3.109 1.299c-.218 0-.396-.187-.396-.417 0-.23.178-.417.396-.417.218 0 .396.187.396.417 0 .23-.178.417-.396.417zm.396-4.387v.304l-.217-.09-2.107-.881v-.409l2.324.971v.105z" id="Fill-11"/></g><g fill="#206FAC" sketch:type="MSShapeGroup"><path d="M8.109 141.59c-.07-.037-.15-.051-.228-.04-.085.012-.164.053-.225.117-.074.078-.116.183-.116.294 0 .156.084.299.217.37l.177.044.176-.043.102-.078c.074-.078.115-.184.115-.294 0-.11-.042-.215-.116-.293l-.101-.076"/><path d="M7.617 131.797c-.038-.08-.1-.145-.177-.185-.068-.036-.144-.05-.22-.04l-.159.059-.073.059c-.121.126-.151.321-.074.481.038.078.099.142.173.182l.178.045c.104 0 .204-.043.278-.121.12-.126.149-.319.074-.478"/><path d="M26.963 126.007l-.101-.076c-.071-.037-.151-.051-.228-.04-.085.012-.164.052-.225.116-.074.078-.116.184-.116.294 0 .156.084.299.217.37l.177.044.176-.044.102-.077c.074-.078.115-.184.115-.294 0-.11-.042-.216-.116-.293"/><path d="M6.741 139.07l-.327-.188-.179-.344c-.069-.133-.201-.215-.345-.215-.144 0-.276.082-.345.215l-.178.344-.327.188c-.126.072-.204.212-.204.362 0 .152.078.29.204.363l.327.189.178.344c.069.132.201.215.345.215.144 0 .276-.083.345-.215l.179-.344.327-.189c.126-.072.204-.211.204-.363 0-.151-.078-.29-.204-.362"/><path d="M23.076 124.242l.327.188.178.344c.069.132.201.215.345.215.144 0 .276-.083.345-.215l.178-.344.327-.188c.126-.073.205-.212.205-.363 0-.152-.079-.29-.205-.363l-.327-.188-.178-.344c-.069-.132-.201-.215-.345-.215-.144 0-.276.082-.345.215l-.179.344-.327.188c-.126.072-.204.212-.204.363s.078.29.204.363"/><path d="M16.116 140.604c-.029-.119-.106-.217-.211-.269-.105-.053-.226-.054-.332-.004l-1.66.789c-.106.05-.185.147-.217.264-.032.117-.012.243.052.345l1.491 2.317c.107.167.313.227.487.145l.835-.397c.174-.083.266-.286.218-.481l-.665-2.708zm-.41 2.689l-1.043-1.622.809-.384.465 1.896-.232.11z"/><path d="M20.811 140.976c-.415-.957-1.157-1.692-2.09-2.073-.14-.056-.285-.105-.433-.145-.513-.223-.919-.636-1.147-1.169-.151-.353-.215-.739-.185-1.122l.07-.275.002-.009.002-.008.032-.178.003-.019.003-.015.003-.024.02-.173.002-.027.003-.053.001-.019.006-.14v-.092l-.003-.135-.006-.098-.012-.134-.012-.093-.022-.138-.002-.01-.015-.078-.032-.14-.003-.013-.019-.076-.047-.155-.003-.008-.019-.06-.086-.222c-.725-1.69-2.621-2.445-4.227-1.681l-.293.14-2.746-6.089-.017-.053-.151-.353.842-.401c.198-.093.286-.339.196-.547-.09-.208-.322-.301-.52-.207l-.842.4-.194-.452.842-.4c.198-.093.286-.339.196-.546-.089-.209-.322-.301-.52-.207l-.842.4-.012-.029c-.031-.072-.08-.129-.138-.171l-.322-1.417c-.025-.113-.095-.21-.191-.266-.31-.314-.775-.403-1.176-.212-.401.191-.645.616-.626 1.068-.024.113-.001.232.063.327l.797 1.19c-.009.074-.001.15.03.222l.013.029-.842.4c-.198.094-.286.339-.196.547.089.208.322.301.52.206l.842-.4.194.452-.842.4c-.197.094-.286.339-.196.547.089.208.322.301.52.207l.842-.4.151.353.027.048 2.522 6.195-.294.14c-1.606.763-2.322 2.76-1.598 4.45l.099.211.035.065.081.143.036.057.009.014.082.124.05.068.086.113.059.072.089.099.06.063.093.091.008.008.061.056.104.088.01.008.042.035.023.018.137.099.003.002.018.012.003.003.007.004.013.009.148.093.008.004.25.131c.293.23.526.535.677.888.228.533.254 1.127.073 1.678-.069.143-.13.29-.183.438-.348.992-.313 2.069.102 3.037.672 1.567 2.215 2.507 3.841 2.339l.3-.044c.308-.058.608-.156.894-.291l1.124-.534.032.074c.089.208.322.301.52.207s.286-.339.196-.547l-.032-.074 1.123-.533c.332-.158.64-.365.916-.614l.114-.107c1.195-1.172 1.546-3.012.874-4.579l-.007-.016zm-13.252-16.918l-.693-1.035c-.007-.121.057-.236.164-.286.107-.051.23-.026.312.058l.279 1.233-.063.03zm.97 2.358l-.681-1.588.13-.062.681 1.588-.13.062zm.323.754l.132-.063 4.737 10.505-.517.246-4.352-10.687zm6.625 19.379l-.018.008c-.197.094-.404.161-.617.201l-.208.03c-.726.075-1.464-.181-2.007-.69.021-.156.065-.306.128-.444.144-.314.389-.571.705-.722.724-.344 1.579-.004 1.906.758.057.133.095.274.114.417.019.146.018.294-.003.44zm3.395-2.187l-.066.062c-.162.147-.343.269-.538.361l-2.053.975c-.032-.139-.076-.276-.132-.408-.505-1.178-1.827-1.703-2.945-1.172-.339.161-.625.401-.843.695-.189-.529-.192-1.107-.004-1.642l.124-.291.044-.103c.341-.975.305-2.032-.101-2.977-.278-.65-.719-1.207-1.273-1.612l-.152-.087-.175-.088-.005-.003-.072-.046-.009-.006-.011-.007-.063-.045-.014-.011-.033-.027-.055-.046-.02-.02-.013-.012-.047-.046-.032-.033-.044-.049-.031-.038-.044-.057-.024-.033-.041-.061-.025-.04-.037-.067-.022-.039-.05-.106c-.368-.859-.004-1.874.812-2.262l.266-.126 1.496 3.674c.042.102.121.182.219.223.098.041.208.037.304-.009l1.247-.593.002-.001c.198-.094.286-.338.196-.547l-.02-.04-1.613-3.577.266-.127c.816-.388 1.78-.004 2.149.854l.042.108.012.039.025.08.011.046.017.071.006.033.002.009.011.071.006.048.006.065.003.052.001.064v.05l-.003.07-.003.047-.001.017-.009.078-.003.018v.003l-.015.087-.001.005-.002.009-.053.197-.038.176c-.078.706.027 1.423.306 2.073.405.945 1.135 1.673 2.054 2.048l.102.033.289.094c.55.224.987.659 1.23 1.223l.006.013c.389.917.181 1.993-.518 2.679z"/><path d="M15.378 139.067c-.089-.208-.322-.301-.52-.207l-1.518.722c-.198.094-.286.339-.196.547.09.208.322.301.52.207l1.518-.722c.198-.093.286-.339.196-.546"/><path d="M23.382 137.532l-10.726-12.759c-.144-.171-.392-.186-.555-.035l-.294.274c-.162.151-.178.413-.034.583.142.169.384.186.547.041l.007-.006 10.206 12.139-.287.268-.007.006c-.162.152-.178.413-.034.584.117.139.303.176.455.103l.099-.067.294-.274 1.288 1.531c.117.14.303.176.456.103l.098-.067c.162-.151.178-.413.034-.583l-1.548-1.842"/><path d="M18.496 128.894c.652 0 1.182-.559 1.182-1.244v-3.837c.212.132.354.375.354.652 0 .228.176.413.393.413.217 0 .393-.185.393-.413 0-.874-.676-1.586-1.506-1.586l-.013.002-.014-.002c-.217 0-.393.185-.393.414v3.185c-.124-.046-.257-.073-.396-.073-.652 0-1.182.558-1.182 1.244 0 .686.53 1.244 1.182 1.244zm0-1.661c.218 0 .396.187.396.417 0 .23-.178.417-.396.417-.218 0-.396-.187-.396-.417 0-.23.178-.417.396-.417z"/><path d="M25.661 128.423l-.003-.03-.011-.039-.012-.038-.014-.027-.022-.042-.024-.03-.024-.03-.027-.023-.032-.028-.024-.014-.045-.024-.003-.002-3.109-1.299c-.121-.05-.258-.035-.366.042-.107.077-.172.205-.172.342v3.186c-.124-.047-.257-.074-.396-.074-.652 0-1.182.559-1.182 1.244 0 .686.53 1.244 1.182 1.244.652 0 1.182-.558 1.182-1.244v-2.448l1.471.615.852.356v1.605c-.124-.047-.257-.073-.396-.073-.652 0-1.182.558-1.182 1.244 0 .686.53 1.244 1.182 1.244.652 0 1.181-.558 1.181-1.244v-4.36l-.005-.053zm-4.285 3.53c-.218 0-.396-.187-.396-.417 0-.23.178-.417.396-.417.218 0 .396.187.396.417 0 .23-.178.417-.396.417zm3.109 1.299c-.218 0-.396-.187-.396-.417 0-.23.178-.417.396-.417.218 0 .396.187.396.417 0 .23-.178.417-.396.417zm.396-4.387v.304l-.217-.09-2.107-.881v-.409l2.324.971v.105z"/></g></g></g></svg>