<svg width="32" height="232" viewBox="0 0 32 232" xmlns="http://www.w3.org/2000/svg" xmlns:sketch="http://www.bohemiancoding.com/sketch/ns"><title>Australia_Vienna</title><g sketch:type="MSLayerGroup" fill="none"><g fill="#fff" sketch:type="MSShapeGroup"><path d="M7.401 22.269c-.131-.02-.268.025-.362.119-.13.13-.162.33-.08.495l.078.108c.079.08.188.126.301.126.112 0 .22-.045.3-.125.129-.13.161-.328.08-.492-.062-.125-.181-.21-.317-.231" id="Fill-1"/><path d="M7.041 12.415c0-.222-.17-.405-.386-.424-.125-.011-.249.034-.338.122-.08.08-.125.189-.125.302 0 .113.044.221.123.3.08.08.188.126.301.126.112 0 .22-.045.3-.125.08-.08.124-.189.124-.302" id="Fill-2"/><path d="M27.955 6.373l-.079-.111c-.079-.08-.188-.125-.3-.125-.112 0-.22.045-.3.125-.13.13-.161.33-.079.494.063.124.181.208.315.229l.063.005c.112 0 .22-.045.299-.124.13-.13.162-.329.08-.493" id="Fill-3"/><path d="M6.051 19.714l-.352-.194-.193-.354c-.074-.137-.217-.222-.372-.222s-.298.085-.372.222l-.193.354-.352.194c-.136.075-.221.218-.221.374s.085.299.221.374l.352.194.193.354c.074.137.217.221.372.221s.298-.085.372-.221l.193-.354.353-.194c.136-.075.221-.218.221-.374s-.084-.299-.221-.374" id="Fill-4"/><path d="M23.681 4.444l.352.194.193.354c.074.137.217.221.372.221s.298-.085.372-.221l.193-.354.353-.194c.136-.075.221-.218.221-.374s-.085-.299-.221-.374l-.352-.194-.193-.354c-.074-.137-.217-.222-.372-.222s-.298.085-.372.222l-.193.354-.352.194c-.136.075-.221.218-.221.374s.085.299.221.374" id="Fill-5"/><path d="M16.169 21.294c-.031-.122-.114-.223-.227-.278-.113-.054-.244-.056-.358-.004l-1.792.812c-.114.052-.2.151-.233.272-.034.121-.013.251.057.355l1.608 2.386c.116.171.337.235.526.149l.901-.409c.188-.085.288-.294.236-.495l-.718-2.789zm-.443 2.769l-1.126-1.67.874-.396.502 1.953-.25.113z" id="Fill-6"/><path d="M21.236 21.676c-.448-.985-1.249-1.743-2.256-2.134-.151-.059-.308-.109-.467-.15-.553-.229-.992-.655-1.239-1.203-.163-.363-.232-.761-.2-1.155l.076-.284.002-.009.002-.009.034-.182.003-.019.003-.016.003-.024.022-.179.002-.028.003-.055.001-.019.007-.144v-.095l-.003-.139-.006-.1-.013-.138-.012-.096-.024-.142-.002-.01-.016-.081-.035-.144-.003-.013-.021-.078-.051-.16-.003-.008-.021-.062-.093-.228c-.783-1.741-2.829-2.518-4.562-1.732l-.317.144-2.963-6.27-.018-.055-.163-.363.909-.412c.213-.097.308-.349.212-.563-.096-.214-.347-.31-.561-.213l-.909.412-.209-.466.909-.412c.213-.097.308-.349.212-.563-.096-.214-.347-.31-.561-.213l-.909.412-.014-.03c-.033-.074-.086-.133-.149-.176l-.347-1.459c-.028-.117-.103-.215-.207-.273-.335-.323-.836-.415-1.269-.219-.433.196-.696.634-.676 1.101-.025.116-.001.239.067.337l.86 1.226c-.01.075-.001.154.033.229l.013.03-.909.412c-.213.097-.308.349-.212.564.096.214.348.31.561.213l.909-.412.209.466-.909.412c-.214.097-.308.349-.212.563.096.214.347.31.561.213l.909-.412.163.363.029.05 2.722 6.379-.317.144c-1.733.786-2.507 2.841-1.724 4.582l.107.217.037.066.088.148.039.059.01.014.088.127.054.071.093.115.064.074.096.102.065.065.101.094.009.008.066.058.112.09.011.009.046.036.025.019.148.102.003.002.019.013.004.003.008.005.014.009.16.095.008.005.27.135c.316.237.568.551.731.914.247.549.275 1.16.08 1.729-.075.147-.141.298-.197.451-.376 1.021-.338 2.131.109 3.127.725 1.613 2.391 2.581 4.145 2.408l.324-.045c.332-.06.656-.161.964-.3l1.212-.55.034.076c.096.214.348.31.561.213.213-.097.308-.349.212-.563l-.034-.076 1.212-.55c.358-.163.691-.375.988-.632l.123-.11c1.289-1.207 1.668-3.102.943-4.715l-.008-.017zm-14.303-17.422l-.748-1.067c-.007-.124.062-.242.177-.294.115-.052.249-.027.337.061l.302 1.269-.067.031zm1.047 2.428l-.735-1.635.141-.064.735 1.635-.141.064zm.348.777l.143-.065 5.112 10.818-.558.253-4.697-11.006zm7.15 19.956l-.019.009c-.213.097-.436.166-.666.207l-.225.032c-.783.077-1.58-.187-2.166-.711.023-.161.07-.315.139-.457.155-.323.42-.588.761-.742.781-.354 1.704-.004 2.057.781.062.137.103.282.123.429.021.15.02.303-.004.453zm3.664-2.253l-.071.064c-.175.151-.37.276-.58.372l-2.216 1.005c-.035-.143-.082-.284-.143-.42-.545-1.213-1.971-1.754-3.179-1.207-.366.166-.674.413-.909.716-.205-.545-.208-1.139-.005-1.69l.134-.3.047-.106c.368-1.003.329-2.092-.109-3.065-.301-.669-.776-1.243-1.374-1.66l-.165-.089-.189-.091-.006-.003-.078-.046-.009-.006-.012-.008-.068-.046-.015-.011-.036-.028-.06-.047-.022-.02-.014-.012-.051-.047-.034-.034-.047-.051-.033-.038-.047-.059-.026-.033-.043-.063-.027-.041-.04-.069-.023-.04-.054-.109c-.398-.885-.005-1.929.876-2.329l.287-.13 1.614 3.783c.045.105.13.188.236.229.106.041.224.038.328-.009l1.346-.61.002-.001c.214-.097.308-.349.212-.563l-.021-.041-1.741-3.684.287-.13c.881-.399 1.921-.005 2.319.88l.045.111.013.039.027.083.012.048.018.073.007.035.002.009.012.073.006.05.006.066.003.053.002.066v.052l-.003.072-.003.048-.001.018-.01.08-.003.019-.001.003-.016.09-.001.005-.002.009-.057.202-.042.182c-.085.727.03 1.464.33 2.134.438.974 1.225 1.723 2.217 2.109l.11.034.313.097c.594.231 1.065.678 1.327 1.259l.006.014c.419.945.196 2.052-.559 2.758z" id="Fill-7"/><path d="M15.373 19.711c-.096-.214-.347-.31-.561-.213l-1.639.743c-.214.097-.308.349-.212.564.096.214.348.31.561.213l1.639-.743c.214-.097.308-.349.212-.563" id="Fill-8"/><path d="M24.011 18.13l-11.576-13.139c-.155-.176-.423-.192-.598-.037l-.318.282c-.175.156-.192.425-.037.601.153.174.415.191.59.043l.008-.006 11.014 12.501-.31.275-.008.007c-.175.156-.192.425-.037.601.126.143.327.181.492.106l.107-.069.318-.282 1.39 1.577c.126.143.327.181.492.106l.106-.069c.175-.156.192-.425.037-.601l-1.67-1.896" id="Fill-9"/><path d="M18.738 9.234c.703 0 1.276-.575 1.276-1.281v-3.95c.228.136.382.386.382.671 0 .235.19.426.424.426.234 0 .424-.191.424-.426 0-.9-.729-1.633-1.626-1.633l-.014.002-.014-.002c-.234 0-.424.191-.424.426v3.28c-.134-.048-.277-.076-.428-.076-.703 0-1.275.575-1.275 1.281 0 .707.572 1.281 1.275 1.281zm0-1.71c.236 0 .428.193.428.429 0 .237-.192.429-.428.429s-.427-.193-.427-.429c0-.237.192-.429.427-.429z" id="Fill-10"/><path d="M26.471 8.75l-.003-.03-.012-.04-.013-.039-.015-.028-.024-.044-.026-.031-.026-.031-.029-.024-.035-.029-.026-.014-.049-.025-.004-.002-3.356-1.338c-.131-.052-.278-.036-.395.043-.116.079-.186.211-.186.352v3.28c-.134-.048-.277-.075-.427-.075-.703 0-1.276.575-1.276 1.281s.572 1.281 1.276 1.281c.703 0 1.275-.575 1.275-1.281v-2.521l1.588.633.919.367v1.654c-.134-.048-.277-.076-.428-.076-.703 0-1.275.575-1.275 1.281s.572 1.281 1.275 1.281 1.276-.575 1.276-1.281v-4.486l-.001-.004-.005-.054zm-3.35-.652l2.508 1v.421l-.234-.093-2.273-.907v-.422zm-1.703 3.859c0-.237.192-.429.428-.429s.427.193.427.429c0 .237-.192.429-.427.429-.236 0-.428-.192-.428-.429zm3.356 1.338c0-.237.192-.429.427-.429.236 0 .428.193.428.429 0 .237-.192.429-.428.429s-.427-.193-.427-.429z" id="Fill-11"/></g><g fill="#373D43" sketch:type="MSShapeGroup"><path d="M7.401 62.269c-.131-.02-.268.025-.362.119-.13.13-.162.33-.08.495l.078.108c.079.08.188.126.301.126.112 0 .22-.045.3-.125.129-.13.161-.328.08-.492-.062-.125-.181-.21-.317-.231" id="Fill-1"/><path d="M7.041 52.415c0-.222-.17-.405-.386-.424-.125-.011-.249.034-.338.122-.08.08-.125.189-.125.302 0 .113.044.221.123.3.08.08.188.126.301.126.112 0 .22-.045.3-.125.08-.08.124-.189.124-.302" id="Fill-2"/><path d="M27.955 46.373l-.079-.111c-.079-.08-.188-.125-.3-.125-.112 0-.22.045-.3.125-.13.13-.161.33-.079.494.063.124.181.208.315.229l.063.005c.112 0 .22-.045.299-.124.13-.13.162-.329.08-.493" id="Fill-3"/><path d="M6.051 59.714l-.352-.194-.193-.354c-.074-.137-.217-.222-.372-.222s-.298.085-.372.222l-.193.354-.352.194c-.136.075-.221.218-.221.374s.085.299.221.374l.352.194.193.354c.074.137.217.221.372.221s.298-.085.372-.221l.193-.354.353-.194c.136-.075.221-.218.221-.374s-.084-.299-.221-.374" id="Fill-4"/><path d="M23.681 44.444l.352.194.193.354c.074.137.217.221.372.221s.298-.085.372-.221l.193-.354.353-.194c.136-.075.221-.218.221-.374s-.085-.299-.221-.374l-.352-.194-.193-.354c-.074-.137-.217-.222-.372-.222s-.298.085-.372.222l-.193.354-.352.194c-.136.075-.221.218-.221.374s.085.299.221.374" id="Fill-5"/><path d="M16.169 61.294c-.031-.122-.114-.223-.227-.278-.113-.054-.244-.056-.358-.004l-1.792.812c-.114.052-.2.151-.233.272-.034.121-.013.251.057.355l1.608 2.386c.116.171.337.235.526.149l.901-.409c.188-.085.288-.294.236-.495l-.718-2.789zm-.443 2.769l-1.126-1.67.874-.396.502 1.953-.25.113z" id="Fill-6"/><path d="M21.236 61.676c-.448-.985-1.249-1.743-2.256-2.134-.151-.059-.308-.109-.467-.15-.553-.229-.992-.655-1.239-1.203-.163-.363-.232-.761-.2-1.155l.076-.284.002-.009.002-.009.034-.182.003-.019.003-.016.003-.024.022-.179.002-.028.003-.055.001-.019.007-.144v-.095l-.003-.139-.006-.1-.013-.138-.012-.096-.024-.142-.002-.01-.016-.081-.035-.144-.003-.013-.021-.078-.051-.16-.003-.008-.021-.062-.093-.228c-.783-1.741-2.829-2.518-4.562-1.732l-.317.144-2.963-6.27-.018-.055-.163-.363.909-.412c.213-.097.308-.349.212-.563-.096-.214-.347-.31-.561-.213l-.909.412-.209-.466.909-.412c.213-.097.308-.349.212-.563-.096-.214-.347-.31-.561-.213l-.909.412-.014-.03c-.033-.074-.086-.133-.149-.176l-.347-1.459c-.028-.117-.103-.215-.207-.273-.335-.323-.836-.415-1.269-.219-.433.196-.696.634-.676 1.101-.025.116-.001.239.067.337l.86 1.226c-.01.075-.001.154.033.229l.013.03-.909.412c-.213.097-.308.349-.212.564.096.214.348.31.561.213l.909-.412.209.466-.909.412c-.214.097-.308.349-.212.563.096.214.347.31.561.213l.909-.412.163.363.029.05 2.722 6.379-.317.144c-1.733.786-2.507 2.841-1.724 4.582l.107.217.037.066.088.148.039.059.01.014.088.127.054.071.093.115.064.074.096.102.065.065.101.094.009.008.066.058.112.09.011.009.046.036.025.019.148.102.003.002.019.013.004.003.008.005.014.009.16.095.008.005.27.135c.316.237.568.551.731.914.247.549.275 1.16.08 1.729-.075.147-.141.298-.197.451-.376 1.021-.338 2.131.109 3.127.725 1.613 2.391 2.581 4.145 2.408l.324-.045c.332-.06.656-.161.964-.3l1.212-.55.034.076c.096.214.348.31.561.213.213-.097.308-.349.212-.563l-.034-.076 1.212-.55c.358-.163.691-.375.988-.632l.123-.11c1.289-1.207 1.668-3.102.943-4.715l-.008-.017zm-14.303-17.422l-.748-1.067c-.007-.124.062-.242.177-.294.115-.052.249-.027.337.061l.302 1.269-.067.031zm1.047 2.428l-.735-1.635.141-.064.735 1.635-.141.064zm.348.777l.143-.065 5.112 10.818-.558.253-4.697-11.006zm7.15 19.956l-.019.009c-.213.097-.436.166-.666.207l-.225.032c-.783.077-1.58-.187-2.166-.711.023-.161.07-.315.139-.457.155-.323.42-.588.761-.742.781-.354 1.704-.004 2.057.781.062.137.103.282.123.429.021.15.02.303-.004.453zm3.664-2.253l-.071.064c-.175.151-.37.276-.58.372l-2.216 1.005c-.035-.143-.082-.284-.143-.42-.545-1.213-1.971-1.754-3.179-1.207-.366.166-.674.413-.909.716-.205-.545-.208-1.139-.005-1.69l.134-.3.047-.106c.368-1.003.329-2.092-.109-3.065-.301-.669-.776-1.243-1.374-1.66l-.165-.089-.189-.091-.006-.003-.078-.046-.009-.006-.012-.008-.068-.046-.015-.011-.036-.028-.06-.047-.022-.02-.014-.012-.051-.047-.034-.034-.047-.051-.033-.038-.047-.059-.026-.033-.043-.063-.027-.041-.04-.069-.023-.04-.054-.109c-.398-.885-.005-1.929.876-2.329l.287-.13 1.614 3.783c.045.105.13.188.236.229.106.041.224.038.328-.009l1.346-.61.002-.001c.214-.097.308-.349.212-.563l-.021-.041-1.741-3.684.287-.13c.881-.399 1.921-.005 2.319.88l.045.111.013.039.027.083.012.048.018.073.007.035.002.009.012.073.006.05.006.066.003.053.002.066v.052l-.003.072-.003.048-.001.018-.01.08-.003.019-.001.003-.016.09-.001.005-.002.009-.057.202-.042.182c-.085.727.03 1.464.33 2.134.438.974 1.225 1.723 2.217 2.109l.11.034.313.097c.594.231 1.065.678 1.327 1.259l.006.014c.419.945.196 2.052-.559 2.758z" id="Fill-7"/><path d="M15.373 59.711c-.096-.214-.347-.31-.561-.213l-1.639.743c-.214.097-.308.349-.212.564.096.214.348.31.561.213l1.639-.743c.214-.097.308-.349.212-.563" id="Fill-8"/><path d="M24.011 58.13l-11.576-13.139c-.155-.176-.423-.192-.598-.037l-.318.282c-.175.156-.192.425-.037.601.153.174.415.191.59.043l.008-.006 11.014 12.501-.31.275-.008.007c-.175.156-.192.425-.037.601.126.143.327.181.492.106l.107-.069.318-.282 1.39 1.577c.126.143.327.181.492.106l.106-.069c.175-.156.192-.425.037-.601l-1.67-1.896" id="Fill-9"/><path d="M18.738 49.234c.703 0 1.276-.575 1.276-1.281v-3.95c.228.136.382.386.382.671 0 .235.19.426.424.426.234 0 .424-.191.424-.426 0-.9-.729-1.633-1.626-1.633l-.014.002-.014-.002c-.234 0-.424.191-.424.426v3.28c-.134-.048-.277-.076-.428-.076-.703 0-1.275.575-1.275 1.281 0 .707.572 1.281 1.275 1.281zm0-1.71c.236 0 .428.193.428.429 0 .237-.192.429-.428.429s-.427-.193-.427-.429c0-.237.192-.429.427-.429z" id="Fill-10"/><path d="M26.471 48.75l-.003-.03-.012-.04-.013-.039-.015-.028-.024-.044-.026-.031-.026-.031-.029-.024-.035-.029-.026-.014-.049-.025-.004-.002-3.356-1.338c-.131-.052-.278-.036-.395.043-.116.079-.186.211-.186.352v3.28c-.134-.048-.277-.075-.427-.075-.703 0-1.276.575-1.276 1.281s.572 1.281 1.276 1.281c.703 0 1.275-.575 1.275-1.281v-2.521l1.588.633.919.367v1.654c-.134-.048-.277-.076-.428-.076-.703 0-1.275.575-1.275 1.281s.572 1.281 1.275 1.281 1.276-.575 1.276-1.281v-4.486l-.001-.004-.005-.054zm-3.35-.652l2.508 1v.421l-.234-.093-2.273-.907v-.422zm-1.703 3.859c0-.237.192-.429.428-.429s.427.193.427.429c0 .237-.192.429-.427.429-.236 0-.428-.192-.428-.429zm3.356 1.338c0-.237.192-.429.427-.429.236 0 .428.193.428.429 0 .237-.192.429-.428.429s-.427-.193-.427-.429z" id="Fill-11"/></g><g fill="#67737B" sketch:type="MSShapeGroup"><path d="M7.401 102.269c-.131-.02-.268.025-.362.119-.13.13-.162.33-.08.495l.078.108c.079.08.188.126.301.126.112 0 .22-.045.3-.125.129-.13.161-.328.08-.492-.062-.125-.181-.21-.317-.231"/><path d="M7.041 92.415c0-.222-.17-.405-.386-.424-.125-.011-.249.034-.338.122-.08.08-.125.189-.125.302 0 .113.044.221.123.3.08.08.188.126.301.126.112 0 .22-.045.3-.125.08-.08.124-.189.124-.302"/><path d="M27.955 86.373l-.079-.111c-.079-.08-.188-.125-.3-.125-.112 0-.22.045-.3.125-.13.13-.161.33-.079.494.063.124.181.208.315.229l.063.005c.112 0 .22-.045.299-.124.13-.13.162-.329.08-.493"/><path d="M6.051 99.714l-.352-.194-.193-.354c-.074-.137-.217-.222-.372-.222s-.298.085-.372.222l-.193.354-.352.194c-.136.075-.221.218-.221.374s.085.299.221.374l.352.194.193.354c.074.137.217.221.372.221s.298-.085.372-.221l.193-.354.353-.194c.136-.075.221-.218.221-.374s-.084-.299-.221-.374"/><path d="M23.681 84.444l.352.194.193.354c.074.137.217.221.372.221s.298-.085.372-.221l.193-.354.353-.194c.136-.075.221-.218.221-.374s-.085-.299-.221-.374l-.352-.194-.193-.354c-.074-.137-.217-.222-.372-.222s-.298.085-.372.222l-.193.354-.352.194c-.136.075-.221.218-.221.374s.085.299.221.374"/><path d="M16.169 101.294c-.031-.122-.114-.223-.227-.278-.113-.054-.244-.056-.358-.004l-1.792.812c-.114.052-.2.151-.233.272-.034.121-.013.251.057.355l1.608 2.386c.116.171.337.235.526.149l.901-.409c.188-.085.288-.294.236-.495l-.718-2.789zm-.443 2.769l-1.126-1.67.874-.396.502 1.953-.25.113z"/><path d="M21.236 101.676c-.448-.985-1.249-1.743-2.256-2.134-.151-.059-.308-.109-.467-.15-.553-.229-.992-.655-1.239-1.203-.163-.363-.232-.761-.2-1.155l.076-.284.002-.009.002-.009.034-.182.003-.019.003-.016.003-.024.022-.179.002-.028.003-.055.001-.019.007-.144v-.095l-.003-.139-.006-.1-.013-.138-.012-.096-.024-.142-.002-.01-.016-.081-.035-.144-.003-.013-.021-.078-.051-.16-.003-.008-.021-.062-.093-.228c-.783-1.741-2.829-2.518-4.562-1.732l-.317.144-2.963-6.27-.018-.055-.163-.363.909-.412c.213-.097.308-.349.212-.563-.096-.214-.347-.31-.561-.213l-.909.412-.209-.466.909-.412c.213-.097.308-.349.212-.563-.096-.214-.347-.31-.561-.213l-.909.412-.014-.03c-.033-.074-.086-.133-.149-.176l-.347-1.459c-.028-.117-.103-.215-.207-.273-.335-.323-.836-.415-1.269-.219-.433.196-.696.634-.676 1.101-.025.116-.001.239.067.337l.86 1.226c-.01.075-.001.154.033.229l.013.03-.909.412c-.213.097-.308.349-.212.564.096.214.348.31.561.213l.909-.412.209.466-.909.412c-.214.097-.308.349-.212.563.096.214.347.31.561.213l.909-.412.163.363.029.05 2.722 6.379-.317.144c-1.733.786-2.507 2.841-1.724 4.582l.107.217.037.066.088.148.039.059.01.014.088.127.054.071.093.115.064.074.096.102.065.065.101.094.009.008.066.058.112.09.011.009.046.036.025.019.148.102.003.002.019.013.004.003.008.005.014.009.16.095.008.005.27.135c.316.237.568.551.731.914.247.549.275 1.16.08 1.729-.075.147-.141.298-.197.451-.376 1.021-.338 2.131.109 3.127.725 1.613 2.391 2.581 4.145 2.408l.324-.045c.332-.06.656-.161.964-.3l1.212-.55.034.076c.096.214.348.31.561.213.213-.097.308-.349.212-.563l-.034-.076 1.212-.55c.358-.163.691-.375.988-.632l.123-.11c1.289-1.207 1.668-3.102.943-4.715l-.008-.017zm-14.303-17.422l-.748-1.067c-.007-.124.062-.242.177-.294.115-.052.249-.027.337.061l.302 1.269-.067.031zm1.047 2.428l-.735-1.635.141-.064.735 1.635-.141.064zm.348.777l.143-.065 5.112 10.818-.558.253-4.697-11.006zm7.15 19.956l-.019.009c-.213.097-.436.166-.666.207l-.225.032c-.783.077-1.58-.187-2.166-.711.023-.161.07-.315.139-.457.155-.323.42-.588.761-.742.781-.354 1.704-.004 2.057.781.062.137.103.282.123.429.021.15.02.303-.004.453zm3.664-2.253l-.071.064c-.175.151-.37.276-.58.372l-2.216 1.005c-.035-.143-.082-.284-.143-.42-.545-1.213-1.971-1.754-3.179-1.207-.366.166-.674.413-.909.716-.205-.545-.208-1.139-.005-1.69l.134-.3.047-.106c.368-1.003.329-2.092-.109-3.065-.301-.669-.776-1.243-1.374-1.66l-.165-.089-.189-.091-.006-.003-.078-.046-.009-.006-.012-.008-.068-.046-.015-.011-.036-.028-.06-.047-.022-.02-.014-.012-.051-.047-.034-.034-.047-.051-.033-.038-.047-.059-.026-.033-.043-.063-.027-.041-.04-.069-.023-.04-.054-.109c-.398-.885-.005-1.929.876-2.329l.287-.13 1.614 3.783c.045.105.13.188.236.229.106.041.224.038.328-.009l1.346-.61.002-.001c.214-.097.308-.349.212-.563l-.021-.041-1.741-3.684.287-.13c.881-.399 1.921-.005 2.319.88l.045.111.013.039.027.083.012.048.018.073.007.035.002.009.012.073.006.05.006.066.003.053.002.066v.052l-.003.072-.003.048-.001.018-.01.08-.003.019-.001.003-.016.09-.001.005-.002.009-.057.202-.042.182c-.085.727.03 1.464.33 2.134.438.974 1.225 1.723 2.217 2.109l.11.034.313.097c.594.231 1.065.678 1.327 1.259l.006.014c.419.945.196 2.052-.559 2.758z"/><path d="M15.373 99.711c-.096-.214-.347-.31-.561-.213l-1.639.743c-.214.097-.308.349-.212.564.096.214.348.31.561.213l1.639-.743c.214-.097.308-.349.212-.563"/><path d="M24.011 98.13l-11.576-13.139c-.155-.176-.423-.192-.598-.037l-.318.282c-.175.156-.192.425-.037.601.153.174.415.191.59.043l.008-.006 11.014 12.501-.31.275-.008.007c-.175.156-.192.425-.037.601.126.143.327.181.492.106l.107-.069.318-.282 1.39 1.577c.126.143.327.181.492.106l.106-.069c.175-.156.192-.425.037-.601l-1.67-1.896"/><path d="M18.738 89.234c.703 0 1.276-.575 1.276-1.281v-3.95c.228.136.382.386.382.671 0 .235.19.426.424.426.234 0 .424-.191.424-.426 0-.9-.729-1.633-1.626-1.633l-.014.002-.014-.002c-.234 0-.424.191-.424.426v3.28c-.134-.048-.277-.076-.428-.076-.703 0-1.275.575-1.275 1.281 0 .707.572 1.281 1.275 1.281zm0-1.71c.236 0 .428.193.428.429 0 .237-.192.429-.428.429s-.427-.193-.427-.429c0-.237.192-.429.427-.429z"/><path d="M26.471 88.75l-.003-.03-.012-.04-.013-.039-.015-.028-.024-.044-.026-.031-.026-.031-.029-.024-.035-.029-.026-.014-.049-.025-.004-.002-3.356-1.338c-.131-.052-.278-.036-.395.043-.116.079-.186.211-.186.352v3.28c-.134-.048-.277-.075-.427-.075-.703 0-1.276.575-1.276 1.281s.572 1.281 1.276 1.281c.703 0 1.275-.575 1.275-1.281v-2.521l1.588.633.919.367v1.654c-.134-.048-.277-.076-.428-.076-.703 0-1.275.575-1.275 1.281s.572 1.281 1.275 1.281 1.276-.575 1.276-1.281v-4.486l-.001-.004-.005-.054zm-3.35-.652l2.508 1v.421l-.234-.093-2.273-.907v-.422zm-1.703 3.859c0-.237.192-.429.428-.429s.427.193.427.429c0 .237-.192.429-.427.429-.236 0-.428-.192-.428-.429zm3.356 1.338c0-.237.192-.429.427-.429.236 0 .428.193.428.429 0 .237-.192.429-.428.429s-.427-.193-.427-.429z"/></g><g fill="#206FAC" sketch:type="MSShapeGroup"><path d="M7.401 143.269c-.131-.02-.268.025-.362.119-.13.13-.162.33-.08.495l.078.108c.079.08.188.126.301.126.112 0 .22-.045.3-.125.129-.13.161-.328.08-.492-.062-.125-.181-.21-.317-.231M7.041 133.415c0-.222-.17-.405-.386-.424-.125-.011-.249.034-.338.122-.08.08-.125.189-.125.302 0 .113.044.221.123.3.08.08.188.126.301.126.112 0 .22-.045.3-.125.08-.08.124-.189.124-.302M27.955 127.373l-.079-.111c-.079-.08-.188-.125-.3-.125-.112 0-.22.045-.3.125-.13.13-.161.33-.079.494.063.124.181.208.315.229l.063.005c.112 0 .22-.045.299-.124.13-.13.162-.329.08-.493M6.051 140.714l-.352-.194-.193-.354c-.074-.137-.217-.222-.372-.222s-.298.085-.372.222l-.193.354-.352.194c-.136.075-.221.218-.221.374s.085.299.221.374l.352.194.193.354c.074.137.217.221.372.221s.298-.085.372-.221l.193-.354.353-.194c.136-.075.221-.218.221-.374s-.084-.299-.221-.374M23.681 125.444l.352.194.193.354c.074.137.217.221.372.221s.298-.085.372-.221l.193-.354.353-.194c.136-.075.221-.218.221-.374s-.085-.299-.221-.374l-.352-.194-.193-.354c-.074-.137-.217-.222-.372-.222s-.298.085-.372.222l-.193.354-.352.194c-.136.075-.221.218-.221.374s.085.299.221.374"/><path d="M16.169 142.294c-.031-.122-.114-.223-.227-.278-.113-.054-.244-.056-.358-.004l-1.792.812c-.114.052-.2.151-.233.272-.034.121-.013.251.057.355l1.608 2.386c.116.171.337.235.526.149l.901-.409c.188-.085.288-.294.236-.495l-.718-2.789zm-.443 2.769l-1.126-1.67.874-.396.502 1.953-.25.113zM21.236 142.676c-.448-.985-1.249-1.743-2.256-2.134-.151-.059-.308-.109-.467-.15-.553-.229-.992-.655-1.239-1.203-.163-.363-.232-.761-.2-1.155l.076-.284.002-.009.002-.009.034-.182.003-.019.003-.016.003-.024.022-.179.002-.028.003-.055.001-.019.007-.144v-.095l-.003-.139-.006-.1-.013-.138-.012-.096-.024-.142-.002-.01-.016-.081-.035-.144-.003-.013-.021-.078-.051-.16-.003-.008-.021-.062-.093-.228c-.783-1.741-2.829-2.518-4.562-1.732l-.317.144-2.963-6.27-.018-.055-.163-.363.909-.412c.213-.097.308-.349.212-.563-.096-.214-.347-.31-.561-.213l-.909.412-.209-.466.909-.412c.213-.097.308-.349.212-.563-.096-.214-.347-.31-.561-.213l-.909.412-.014-.03c-.033-.074-.086-.133-.149-.176l-.347-1.459c-.028-.117-.103-.215-.207-.273-.335-.323-.836-.415-1.269-.219-.433.196-.696.634-.676 1.101-.025.116-.001.239.067.337l.86 1.226c-.01.075-.001.154.033.229l.013.03-.909.412c-.213.097-.308.349-.212.564.096.214.348.31.561.213l.909-.412.209.466-.909.412c-.214.097-.308.349-.212.563.096.214.347.31.561.213l.909-.412.163.363.029.05 2.722 6.379-.317.144c-1.733.786-2.507 2.841-1.724 4.582l.107.217.037.066.088.148.039.059.01.014.088.127.054.071.093.115.064.074.096.102.065.065.101.094.009.008.066.058.112.09.011.009.046.036.025.019.148.102.003.002.019.013.004.003.008.005.014.009.16.095.008.005.27.135c.316.237.568.551.731.914.247.549.275 1.16.08 1.729-.075.147-.141.298-.197.451-.376 1.021-.338 2.131.109 3.127.725 1.613 2.391 2.581 4.145 2.408l.324-.045c.332-.06.656-.161.964-.3l1.212-.55.034.076c.096.214.348.31.561.213.213-.097.308-.349.212-.563l-.034-.076 1.212-.55c.358-.163.691-.375.988-.632l.123-.11c1.289-1.207 1.668-3.102.943-4.715l-.008-.017zm-14.303-17.422l-.748-1.067c-.007-.124.062-.242.177-.294.115-.052.249-.027.337.061l.302 1.269-.067.031zm1.047 2.428l-.735-1.635.141-.064.735 1.635-.141.064zm.348.777l.143-.065 5.112 10.818-.558.253-4.697-11.006zm7.15 19.956l-.019.009c-.213.097-.436.166-.666.207l-.225.032c-.783.077-1.58-.187-2.166-.711.023-.161.07-.315.139-.457.155-.323.42-.588.761-.742.781-.354 1.704-.004 2.057.781.062.137.103.282.123.429.021.15.02.303-.004.453zm3.664-2.253l-.071.064c-.175.151-.37.276-.58.372l-2.216 1.005c-.035-.143-.082-.284-.143-.42-.545-1.213-1.971-1.754-3.179-1.207-.366.166-.674.413-.909.716-.205-.545-.208-1.139-.005-1.69l.134-.3.047-.106c.368-1.003.329-2.092-.109-3.065-.301-.669-.776-1.243-1.374-1.66l-.165-.089-.189-.091-.006-.003-.078-.046-.009-.006-.012-.008-.068-.046-.015-.011-.036-.028-.06-.047-.022-.02-.014-.012-.051-.047-.034-.034-.047-.051-.033-.038-.047-.059-.026-.033-.043-.063-.027-.041-.04-.069-.023-.04-.054-.109c-.398-.885-.005-1.929.876-2.329l.287-.13 1.614 3.783c.045.105.13.188.236.229.106.041.224.038.328-.009l1.346-.61.002-.001c.214-.097.308-.349.212-.563l-.021-.041-1.741-3.684.287-.13c.881-.399 1.921-.005 2.319.88l.045.111.013.039.027.083.012.048.018.073.007.035.002.009.012.073.006.05.006.066.003.053.002.066v.052l-.003.072-.003.048-.001.018-.01.08-.003.019-.001.003-.016.09-.001.005-.002.009-.057.202-.042.182c-.085.727.03 1.464.33 2.134.438.974 1.225 1.723 2.217 2.109l.11.034.313.097c.594.231 1.065.678 1.327 1.259l.006.014c.419.945.196 2.052-.559 2.758zM15.373 140.711c-.096-.214-.347-.31-.561-.213l-1.639.743c-.214.097-.308.349-.212.564.096.214.348.31.561.213l1.639-.743c.214-.097.308-.349.212-.563M24.011 139.13l-11.576-13.139c-.155-.176-.423-.192-.598-.037l-.318.282c-.175.156-.192.425-.037.601.153.174.415.191.59.043l.008-.006 11.014 12.501-.31.275-.008.007c-.175.156-.192.425-.037.601.126.143.327.181.492.106l.107-.069.318-.282 1.39 1.577c.126.143.327.181.492.106l.106-.069c.175-.156.192-.425.037-.601l-1.67-1.896"/><path d="M18.738 130.234c.703 0 1.276-.575 1.276-1.281v-3.95c.228.136.382.386.382.671 0 .235.19.426.424.426.234 0 .424-.191.424-.426 0-.9-.729-1.633-1.626-1.633l-.014.002-.014-.002c-.234 0-.424.191-.424.426v3.28c-.134-.048-.277-.076-.428-.076-.703 0-1.275.575-1.275 1.281 0 .707.572 1.281 1.275 1.281zm0-1.71c.236 0 .428.193.428.429 0 .237-.192.429-.428.429s-.427-.193-.427-.429c0-.237.192-.429.427-.429zM26.471 129.75l-.003-.03-.012-.04-.013-.039-.015-.028-.024-.044-.026-.031-.026-.031-.029-.024-.035-.029-.026-.014-.049-.025-.004-.002-3.356-1.338c-.131-.052-.278-.036-.395.043-.116.079-.186.211-.186.352v3.28c-.134-.048-.277-.075-.427-.075-.703 0-1.276.575-1.276 1.281s.572 1.281 1.276 1.281c.703 0 1.275-.575 1.275-1.281v-2.521l1.588.633.919.367v1.654c-.134-.048-.277-.076-.428-.076-.703 0-1.275.575-1.275 1.281s.572 1.281 1.275 1.281 1.276-.575 1.276-1.281v-4.486l-.001-.004-.005-.054zm-3.35-.652l2.508 1v.421l-.234-.093-2.273-.907v-.422zm-1.703 3.859c0-.237.192-.429.428-.429s.427.193.427.429c0 .237-.192.429-.427.429-.236 0-.428-.192-.428-.429zm3.356 1.338c0-.237.192-.429.427-.429.236 0 .428.193.428.429 0 .237-.192.429-.428.429s-.427-.193-.427-.429z"/></g></g></svg>