<svg width="32" height="232" viewBox="0 0 32 232" xmlns="http://www.w3.org/2000/svg" xmlns:sketch="http://www.bohemiancoding.com/sketch/ns"><title>Melbourne</title><g sketch:type="MSLayerGroup" fill="none"><g fill="#373D43" sketch:type="MSShapeGroup"><path d="M11.351 15.805c-.117-.121-.307-.154-.455-.077-.095.048-.166.134-.199.238l-.018.131-.001.028.042.156c.038.078.099.141.174.181l.179.045c.104 0 .205-.043.279-.119.069-.072.108-.165.114-.262l.002-.028-.042-.185-.074-.107" id="Fill-1"/><path d="M27.509 25.562h-.456v-1.34c.257-.205.502-.428.735-.67.154-.16.154-.42 0-.581-.154-.16-.404-.16-.558.001l-.177.174v-5.56c0-.226-.177-.41-.395-.41h-1.559c-.218 0-.395.183-.395.41v2.906h-1.108l-.012.001-.548-16.218v-2.959c0-.227-.177-.41-.395-.41-.218 0-.395.183-.395.41v2.958l-.402 11.883h-.794c-.218 0-.395.184-.395.41v2.534h-.304v-1.244c0-.226-.177-.41-.395-.41h-1.593c-.218 0-.395.184-.395.41v.84h-.38v-1.945l.009-.119v-2.345c0-.453-.354-.82-.79-.82-.437 0-.79.368-.79.82v.257l-.009.119v.903l-.993-.31v-1.925l-.031-.16c-.035-2.089-1.595-3.799-3.572-3.977v-2.869c0-.226-.177-.41-.395-.41h-2.182c-.146 0-.28.083-.348.217-.069.133-.061.295.02.421l.421.656-.421.656c-.081.126-.088.288-.02.421.069.133.203.217.348.217h1.787v.702c-1.913.228-3.41 1.894-3.461 3.928l-.051.198v1.92l-.984.314v-1.277c0-.453-.354-.82-.79-.82-.436 0-.79.368-.79.82v.257l-.009.119v10.898h-.69c-.436 0-.79.367-.79.82 0 .453.354.821.79.821h23.662c.436 0 .79-.368.79-.821 0-.453-.354-.82-.79-.82zm-21.392-8.615v-.194l.009-.119v-.098h3.719c.218 0 .395-.183.395-.41l-.003-.028c-.014-.213-.183-.382-.392-.382h-1.5l2.662-.85 2.729.85h-1.439c-.209 0-.378.169-.392.382l-.003.028c0 .227.177.41.395.41h3.711v.411h-9.892zm4.689-6.112l.266-.016.266.016c.165.407.331 1.101.362 2.086h-1.256c.03-.985.197-1.679.362-2.086zm-2.906 3.225v-.318h6.325v1.27l-3.106-.968c-.075-.023-.155-.023-.23.001l-2.99.955v-.939zm10.859 5.049v-.84h.803v1.244c0 .226.177.41.395.41h1.094c.218 0 .395-.183.395-.41v-2.534h.371l-.156 4.605v.014c0 1.317-1.031 2.388-2.298 2.388l-.184.049c-.404-.248-.786-.541-1.137-.878-.127-.122-.309-.139-.453-.06v-3.577h.775c.218 0 .395-.183.395-.41zm3.96-.824l.113 3.32c.003 1.353.816 2.51 1.962 2.978-.712.266-1.47.405-2.25.405-.738 0-1.461-.127-2.145-.37 1.193-.442 2.049-1.626 2.052-3.014l.19-5.629.078 2.31zm2.38 3.028c.218 0 .395-.184.395-.41v-2.906h.769v5.805l-.281.188-.063-.006c-1.267 0-2.298-1.071-2.298-2.388v-.014l-.009-.27h1.487zm1.164 4.249h-1.849c.649-.174 1.27-.44 1.849-.789v.789zm-5.577 0h-3.097v-1.728c.893.834 1.955 1.422 3.097 1.728zm-7.301-12.641h-.895c-.019-.613-.092-1.228-.223-1.759.597.372 1.022 1.013 1.118 1.759zm-3.811-5.238l.158-.246c.088-.138.088-.318 0-.456l-.158-.246h1.049v.947h-1.049zm.303 3.479c-.131.532-.204 1.146-.223 1.759h-.894c.095-.747.52-1.388 1.117-1.759zm4.719 14.4h-.398v-1.683c0-1.79-1.402-3.246-3.126-3.246s-3.126 1.456-3.126 3.246v1.683h-.398v-1.683c0-2.017 1.581-3.66 3.524-3.66s3.524 1.642 3.524 3.66v1.683zm-1.188 0h-4.671v-1.683c0-1.338 1.048-2.425 2.336-2.425 1.288 0 2.336 1.088 2.336 2.425v1.683zm1.978 0v-1.683c0-2.469-1.935-4.48-4.314-4.48s-4.314 2.01-4.314 4.48v1.683h-.641v-7.795h.729v.973h.79v-.973h.686v.973h.79v-.973h.686v.973h.79v-.973h.686v.973h.79v-.973h.686v.973h.79v-.973h.686v.973h.79v-.973h.993v7.795h-.622z" id="Fill-2"/><path d="M13.59 8.425c.165.151.376.233.595.233h2.231c0 .235.098.459.268.615.145.132.33.206.522.206h2.427c.436 0 .79-.368.79-.82 0-.451-.352-.818-.786-.82l.007-.114c0-.515-.404-.935-.9-.935h-4.56c-.219 0-.43.083-.595.234-.194.177-.305.433-.305.701 0 .267.111.522.305.7zm.522-.785l.072-.029h4.56c.061 0 .109.051.109.114 0 .062-.049.114-.109.114-.218 0-.395.183-.395.41h-.002c0 .227.177.41.395.41l.889.001-2.427-.001h.002c.218 0 .395-.183.395-.41 0-.226-.177-.41-.395-.41h-3.023l-.072-.029-.037-.085.037-.085z" id="Fill-3"/></g><g fill="#fff" sketch:type="MSShapeGroup"><path d="M11.608 98.261c-.12-.125-.316-.159-.469-.079-.098.05-.172.138-.206.245l-.019.135-.001.029.043.161c.039.08.102.146.179.186l.184.046c.108 0 .211-.044.287-.123.072-.074.111-.17.118-.27l.002-.029-.043-.191-.076-.11" id="Fill-1"/><path d="M28.263 108.317h-.47v-1.381c.265-.211.518-.441.758-.69.159-.165.159-.433 0-.599-.159-.165-.417-.165-.576.001l-.182.179v-5.731c0-.233-.182-.422-.407-.422h-1.607c-.225 0-.407.189-.407.422v2.995h-1.142l-.012.001-.565-16.717v-3.05c0-.234-.182-.423-.407-.423-.225 0-.407.189-.407.423v3.049l-.414 12.248h-.818c-.225 0-.407.189-.407.423v2.612h-.314v-1.282c0-.233-.182-.423-.407-.423h-1.642c-.225 0-.407.19-.407.423v.866h-.392v-2.005l.01-.123v-2.418c0-.467-.365-.846-.814-.846-.45 0-.814.379-.814.846v.265l-.01.123v.93l-1.024-.319v-1.985l-.032-.165c-.036-2.154-1.644-3.916-3.682-4.099v-2.957c0-.233-.182-.423-.407-.423h-2.249c-.15 0-.288.086-.359.223-.071.137-.063.304.02.434l.434.676-.434.677c-.083.13-.091.297-.02.434s.209.223.359.223h1.842v.724c-1.972.236-3.515 1.953-3.568 4.049l-.052.204v1.979l-1.014.324v-1.317c0-.467-.365-.846-.815-.846-.449 0-.814.379-.814.846v.265l-.009.123v11.233h-.711c-.45 0-.814.378-.814.845 0 .467.365.846.814.846h24.39c.45 0 .814-.379.814-.846 0-.467-.365-.845-.814-.845zm-22.05-8.88v-.2l.01-.123v-.101h3.834c.225 0 .407-.189.407-.423l-.003-.029c-.014-.22-.189-.394-.404-.394h-1.546l2.744-.876 2.813.876h-1.483c-.215 0-.39.174-.404.394l-.003.029c0 .234.183.423.407.423h3.825v.424h-10.196zm4.833-6.301l.274-.017.274.017c.17.42.342 1.135.373 2.15h-1.294c.031-1.015.203-1.731.373-2.15zm-2.995 3.324v-.328h6.52v1.309l-3.202-.998c-.078-.024-.16-.024-.237.001l-3.082.984v-.968zm11.193 5.204v-.866h.827v1.282c0 .233.182.422.407.422h1.128c.225 0 .407-.189.407-.422v-2.612h.383l-.161 4.746v.015c0 1.357-1.063 2.461-2.369 2.461l-.19.05c-.417-.255-.81-.557-1.172-.905-.13-.126-.318-.144-.467-.062v-3.687h.799c.225 0 .407-.189.407-.422zm4.082-.849l.116 3.422c.003 1.394.842 2.587 2.022 3.07-.734.274-1.516.417-2.319.417-.761 0-1.506-.131-2.211-.381 1.229-.456 2.112-1.676 2.116-3.107l.196-5.802.08 2.381zm2.454 3.121c.225 0 .407-.189.407-.422v-2.995h.792v5.984l-.289.194-.065-.007c-1.306 0-2.369-1.104-2.369-2.461v-.015l-.01-.278h1.533zm1.2 4.38h-1.906c.669-.179 1.309-.453 1.906-.814v.814zm-5.748 0h-3.193v-1.781c.921.859 2.015 1.465 3.193 1.781zm-7.526-13.03h-.922c-.02-.632-.095-1.266-.23-1.814.616.383 1.053 1.044 1.152 1.814zm-3.928-5.399l.163-.253c.091-.142.091-.327 0-.47l-.163-.253h1.081v.977h-1.081zm.312 3.586c-.135.548-.21 1.182-.23 1.814h-.922c.098-.77.536-1.431 1.152-1.814zm4.864 14.843h-.41v-1.735c0-1.845-1.445-3.346-3.222-3.346s-3.222 1.501-3.222 3.346v1.735h-.41v-1.735c0-2.079 1.63-3.772 3.632-3.772 2.003 0 3.632 1.693 3.632 3.772v1.735zm-1.225 0h-4.815v-1.735c0-1.379 1.08-2.5 2.408-2.5 1.328 0 2.408 1.121 2.408 2.5v1.735zm2.039 0v-1.735c0-2.545-1.995-4.617-4.447-4.617s-4.446 2.072-4.446 4.617v1.735h-.661v-8.034h.752v1.003h.814v-1.003h.707v1.003h.815v-1.003h.707v1.003h.814v-1.003h.707v1.003h.814v-1.003h.707v1.003h.814v-1.003h.707v1.003h.814v-1.003h1.024v8.034h-.642z" id="Fill-2"/><path d="M13.916 90.653c.17.155.388.241.613.241h2.3c0 .243.101.474.276.634.149.136.34.212.538.212h2.502c.45 0 .815-.379.815-.846 0-.465-.363-.843-.81-.846l.008-.117c0-.531-.416-.963-.928-.963h-4.7c-.226 0-.443.085-.613.241-.2.183-.315.446-.315.722 0 .275.115.538.315.722zm.538-.81l.074-.03h4.7c.062 0 .113.052.113.118 0 .064-.05.117-.113.117-.225 0-.407.189-.407.422h-.002c0 .234.182.423.407.423l.917.001-2.502-.001h.002c.225 0 .407-.189.407-.423 0-.233-.182-.422-.407-.422h-3.116l-.074-.029-.038-.088.038-.088z" id="Fill-3"/></g><g fill="#67737B" sketch:type="MSShapeGroup"><path d="M11.608 56.261c-.12-.125-.316-.159-.469-.079-.098.05-.172.138-.206.245l-.019.135-.001.029.043.161c.039.08.102.146.179.186l.184.046c.108 0 .211-.044.287-.123.072-.074.111-.17.118-.27l.002-.029-.043-.191-.076-.11"/><path d="M28.263 66.317h-.47v-1.381c.265-.211.518-.441.758-.69.159-.165.159-.433 0-.599-.159-.165-.417-.165-.576.001l-.182.179v-5.731c0-.233-.182-.422-.407-.422h-1.607c-.225 0-.407.189-.407.422v2.995h-1.142l-.012.001-.565-16.717v-3.05c0-.234-.182-.423-.407-.423-.225 0-.407.189-.407.423v3.049l-.414 12.248h-.818c-.225 0-.407.189-.407.423v2.612h-.314v-1.282c0-.233-.182-.423-.407-.423h-1.642c-.225 0-.407.19-.407.423v.866h-.392v-2.005l.01-.123v-2.418c0-.467-.365-.846-.814-.846-.45 0-.814.379-.814.846v.265l-.01.123v.93l-1.024-.319v-1.985l-.032-.165c-.036-2.154-1.644-3.916-3.682-4.099v-2.957c0-.233-.182-.423-.407-.423h-2.249c-.15 0-.288.086-.359.223-.071.137-.063.304.02.434l.434.676-.434.677c-.083.13-.091.297-.02.434s.209.223.359.223h1.842v.724c-1.972.236-3.515 1.953-3.568 4.049l-.052.204v1.979l-1.014.324v-1.317c0-.467-.365-.846-.815-.846-.449 0-.814.379-.814.846v.265l-.009.123v11.233h-.711c-.45 0-.814.378-.814.845 0 .467.365.846.814.846h24.39c.45 0 .814-.379.814-.846 0-.467-.365-.845-.814-.845zm-22.05-8.88v-.2l.01-.123v-.101h3.834c.225 0 .407-.189.407-.423l-.003-.029c-.014-.22-.189-.394-.404-.394h-1.546l2.744-.876 2.813.876h-1.483c-.215 0-.39.174-.404.394l-.003.029c0 .234.183.423.407.423h3.825v.424h-10.196zm4.833-6.301l.274-.017.274.017c.17.42.342 1.135.373 2.15h-1.294c.031-1.015.203-1.731.373-2.15zm-2.995 3.324v-.328h6.52v1.309l-3.202-.998c-.078-.024-.16-.024-.237.001l-3.082.984v-.968zm11.193 5.204v-.866h.827v1.282c0 .233.182.422.407.422h1.128c.225 0 .407-.189.407-.422v-2.612h.383l-.161 4.746v.015c0 1.357-1.063 2.461-2.369 2.461l-.19.05c-.417-.255-.81-.557-1.172-.905-.13-.126-.318-.144-.467-.062v-3.687h.799c.225 0 .407-.189.407-.422zm4.082-.849l.116 3.422c.003 1.394.842 2.587 2.022 3.07-.734.274-1.516.417-2.319.417-.761 0-1.506-.131-2.211-.381 1.229-.456 2.112-1.676 2.116-3.107l.196-5.802.08 2.381zm2.454 3.121c.225 0 .407-.189.407-.422v-2.995h.792v5.984l-.289.194-.065-.007c-1.306 0-2.369-1.104-2.369-2.461v-.015l-.01-.278h1.533zm1.2 4.38h-1.906c.669-.179 1.309-.453 1.906-.814v.814zm-5.748 0h-3.193v-1.781c.921.859 2.015 1.465 3.193 1.781zm-7.526-13.03h-.922c-.02-.632-.095-1.266-.23-1.814.616.383 1.053 1.044 1.152 1.814zm-3.928-5.399l.163-.253c.091-.142.091-.327 0-.47l-.163-.253h1.081v.977h-1.081zm.312 3.586c-.135.548-.21 1.182-.23 1.814h-.922c.098-.77.536-1.431 1.152-1.814zm4.864 14.843h-.41v-1.735c0-1.845-1.445-3.346-3.222-3.346s-3.222 1.501-3.222 3.346v1.735h-.41v-1.735c0-2.079 1.63-3.772 3.632-3.772 2.003 0 3.632 1.693 3.632 3.772v1.735zm-1.225 0h-4.815v-1.735c0-1.379 1.08-2.5 2.408-2.5 1.328 0 2.408 1.121 2.408 2.5v1.735zm2.039 0v-1.735c0-2.545-1.995-4.617-4.447-4.617s-4.446 2.072-4.446 4.617v1.735h-.661v-8.034h.752v1.003h.814v-1.003h.707v1.003h.815v-1.003h.707v1.003h.814v-1.003h.707v1.003h.814v-1.003h.707v1.003h.814v-1.003h.707v1.003h.814v-1.003h1.024v8.034h-.642z"/><path d="M13.916 48.653c.17.155.388.241.613.241h2.3c0 .243.101.474.276.634.149.136.34.212.538.212h2.502c.45 0 .815-.379.815-.846 0-.465-.363-.843-.81-.846l.008-.117c0-.531-.416-.963-.928-.963h-4.7c-.226 0-.443.085-.613.241-.2.183-.315.446-.315.722 0 .275.115.538.315.722zm.538-.81l.074-.03h4.7c.062 0 .113.052.113.118 0 .064-.05.117-.113.117-.225 0-.407.189-.407.422h-.002c0 .234.182.423.407.423l.917.001-2.502-.001h.002c.225 0 .407-.189.407-.423 0-.233-.182-.422-.407-.422h-3.116l-.074-.029-.038-.088.038-.088z"/></g><g fill="#206FAC" sketch:type="MSShapeGroup"><path d="M11.608 137.261c-.12-.125-.316-.159-.469-.079-.098.05-.172.138-.206.245l-.019.135-.001.029.043.161c.039.08.102.146.179.186l.184.046c.108 0 .211-.044.287-.123.072-.074.111-.17.118-.27l.002-.029-.043-.191-.076-.11"/><path d="M28.263 147.317h-.47v-1.381c.265-.211.518-.441.758-.69.159-.165.159-.433 0-.599-.159-.165-.417-.165-.576.001l-.182.179v-5.731c0-.233-.182-.422-.407-.422h-1.607c-.225 0-.407.189-.407.422v2.995h-1.142l-.012.001-.565-16.717v-3.05c0-.234-.182-.423-.407-.423-.225 0-.407.189-.407.423v3.049l-.414 12.248h-.818c-.225 0-.407.189-.407.423v2.612h-.314v-1.282c0-.233-.182-.423-.407-.423h-1.642c-.225 0-.407.19-.407.423v.866h-.392v-2.005l.01-.123v-2.418c0-.467-.365-.846-.814-.846-.45 0-.814.379-.814.846v.265l-.01.123v.93l-1.024-.319v-1.985l-.032-.165c-.036-2.154-1.644-3.916-3.682-4.099v-2.957c0-.233-.182-.423-.407-.423h-2.249c-.15 0-.288.086-.359.223-.071.137-.063.304.02.434l.434.676-.434.677c-.083.13-.091.297-.02.434s.209.223.359.223h1.842v.724c-1.972.236-3.515 1.953-3.568 4.049l-.052.204v1.979l-1.014.324v-1.317c0-.467-.365-.846-.815-.846-.449 0-.814.379-.814.846v.265l-.009.123v11.233h-.711c-.45 0-.814.378-.814.845 0 .467.365.846.814.846h24.39c.45 0 .814-.379.814-.846 0-.467-.365-.845-.814-.845zm-22.05-8.88v-.2l.01-.123v-.101h3.834c.225 0 .407-.189.407-.423l-.003-.029c-.014-.22-.189-.394-.404-.394h-1.546l2.744-.876 2.813.876h-1.483c-.215 0-.39.174-.404.394l-.003.029c0 .234.183.423.407.423h3.825v.424h-10.196zm4.833-6.301l.274-.017.274.017c.17.42.342 1.135.373 2.15h-1.294c.031-1.015.203-1.731.373-2.15zm-2.995 3.324v-.328h6.52v1.309l-3.202-.998c-.078-.024-.16-.024-.237.001l-3.082.984v-.968zm11.193 5.204v-.866h.827v1.282c0 .233.182.422.407.422h1.128c.225 0 .407-.189.407-.422v-2.612h.383l-.161 4.746v.015c0 1.357-1.063 2.461-2.369 2.461l-.19.05c-.417-.255-.81-.557-1.172-.905-.13-.126-.318-.144-.467-.062v-3.687h.799c.225 0 .407-.189.407-.422zm4.082-.849l.116 3.422c.003 1.394.842 2.587 2.022 3.07-.734.274-1.516.417-2.319.417-.761 0-1.506-.131-2.211-.381 1.229-.456 2.112-1.676 2.116-3.107l.196-5.802.08 2.381zm2.454 3.121c.225 0 .407-.189.407-.422v-2.995h.792v5.984l-.289.194-.065-.007c-1.306 0-2.369-1.104-2.369-2.461v-.015l-.01-.278h1.533zm1.2 4.38h-1.906c.669-.179 1.309-.453 1.906-.814v.814zm-5.748 0h-3.193v-1.781c.921.859 2.015 1.465 3.193 1.781zm-7.526-13.03h-.922c-.02-.632-.095-1.266-.23-1.814.616.383 1.053 1.044 1.152 1.814zm-3.928-5.399l.163-.253c.091-.142.091-.327 0-.47l-.163-.253h1.081v.977h-1.081zm.312 3.586c-.135.548-.21 1.182-.23 1.814h-.922c.098-.77.536-1.431 1.152-1.814zm4.864 14.843h-.41v-1.735c0-1.845-1.445-3.346-3.222-3.346s-3.222 1.501-3.222 3.346v1.735h-.41v-1.735c0-2.079 1.63-3.772 3.632-3.772 2.003 0 3.632 1.693 3.632 3.772v1.735zm-1.225 0h-4.815v-1.735c0-1.379 1.08-2.5 2.408-2.5 1.328 0 2.408 1.121 2.408 2.5v1.735zm2.039 0v-1.735c0-2.545-1.995-4.617-4.447-4.617s-4.446 2.072-4.446 4.617v1.735h-.661v-8.034h.752v1.003h.814v-1.003h.707v1.003h.815v-1.003h.707v1.003h.814v-1.003h.707v1.003h.814v-1.003h.707v1.003h.814v-1.003h.707v1.003h.814v-1.003h1.024v8.034h-.642zM13.916 129.653c.17.155.388.241.613.241h2.3c0 .243.101.474.276.634.149.136.34.212.538.212h2.502c.45 0 .815-.379.815-.846 0-.465-.363-.843-.81-.846l.008-.117c0-.531-.416-.963-.928-.963h-4.7c-.226 0-.443.085-.613.241-.2.183-.315.446-.315.722 0 .275.115.538.315.722zm.538-.81l.074-.03h4.7c.062 0 .113.052.113.118 0 .064-.05.117-.113.117-.225 0-.407.189-.407.422h-.002c0 .234.182.423.407.423l.917.001-2.502-.001h.002c.225 0 .407-.189.407-.423 0-.233-.182-.422-.407-.422h-3.116l-.074-.029-.038-.088.038-.088z"/></g></g></svg>