<svg width="32" height="232" viewBox="0 0 32 232" xmlns="http://www.w3.org/2000/svg" xmlns:sketch="http://www.bohemiancoding.com/sketch/ns"><title>Brussels</title><g sketch:type="MSLayerGroup" fill="none"><g fill="#373D43" sketch:type="MSShapeGroup"><path d="M14.799 6.732c.184.177.419.275.663.275h3.184l-.005.101c0 .273.107.533.296.714.16.154.364.238.575.238h2.958c.48 0 .871-.427.871-.952 0-.525-.391-.953-.871-.953h-.106l.027-.247c0-.605-.45-1.098-1.004-1.098h-5.926c-.244 0-.479.098-.663.275-.216.209-.341.509-.341.823 0 .314.124.615.341.823zm.515-1.008l.149-.062h5.926c.125 0 .226.111.226.247s-.101.247-.226.247c-.215 0-.389.191-.389.426h-.002c0 .235.174.426.39.426h1.084c.051 0 .092.046.092.101 0 .056-.041.101-.092.101h-2.958l-.061-.026-.031-.076.031-.075.061-.026h.002c.215 0 .389-.191.389-.426s-.174-.426-.389-.426h-4.052l-.149-.062c-.029-.028-.077-.089-.077-.185l.077-.185z" id="Fill-1"/><path d="M27.842 19.733h-1.059l-.692-1.831.603-.381.039.027c.132.081.282.124.432.124.321 0 .617-.19.775-.496.238-.467.085-1.059-.341-1.32l-.049-.026v-1.255l.045-.024c.425-.264.574-.857.332-1.322-.157-.302-.452-.491-.771-.491-.153 0-.304.044-.438.127l-.034.024-1.065-.672.002-.049c0-.535-.398-.97-.886-.97-.489 0-.887.435-.887.97l.003.06-1.077.68-.038-.026c-.132-.081-.281-.124-.432-.124-.321 0-.618.191-.774.497-.238.467-.086 1.059.341 1.32l.066.034v1.238l-.062.033c-.425.264-.574.858-.332 1.322.157.303.453.491.771.491.153 0 .305-.044.438-.127l.051-.036.592.374-.693 1.831h-2.071v-2.983l-.032-.242.527-.957c.072-.131.075-.295.005-.429-.069-.134-.198-.217-.339-.217h-.863v-2.179l-.005-.052v-.84c0-.183-.081-.823-1.114-1.374-.108-.057-.234-.057-.341 0-1.034.551-1.114 1.191-1.114 1.374v.84l-.005.052v.224h-1.743v-.53c.155-.056.268-.214.268-.402 0-.235-.174-.426-.389-.426h-.717v-.661c0-.235-.175-.426-.39-.426h-.141l.315-.171c.193-.105.271-.36.175-.57-.096-.211-.33-.296-.522-.192l-.856.466c.126-.167.119-.414-.024-.57-.152-.166-.398-.166-.55 0l-.27.295v-.419c0-.235-.174-.426-.389-.426-.214 0-.389.19-.389.426v.465l-.243-.463c-.107-.204-.345-.275-.531-.157-.187.117-.251.377-.143.581l.175.334-.263-.311c-.146-.173-.393-.183-.55-.023-.158.16-.167.429-.022.601l.141.167c-.143.063-.245.215-.245.395v.661h-.717c-.215 0-.389.191-.389.426 0 .188.112.346.267.402v.53h-1.744v-.224l-.01-.092v-.8c0-.183-.08-.823-1.114-1.374-.108-.057-.234-.057-.341 0-1.034.551-1.114 1.191-1.114 1.374v3.07h-.864c-.144 0-.276.087-.344.226-.067.139-.059.308.022.438l.538.869c-.035.096-.055.201-.055.312v9.035h-.396c-.429 0-.778.381-.778.851s.349.851.778.851h21.828c.43 0 .778-.381.778-.851s-.348-.851-.778-.851h-4.982v-1.068h5.106c.215 0 .389-.191.389-.426s-.174-.426-.389-.426h-.926c-.032-.25-.114-.491-.238-.705l.01-.166c0-.668-.497-1.212-1.108-1.212l-.167.014c-.261-.229-.587-.356-.924-.356-.393 0-.762.169-1.036.463-.119-.038-.242-.058-.366-.058-.12 0-.238.019-.351.053v-1.314h2.202l.122.022h3.579l.121-.022h1.189c.215 0 .389-.191.389-.426s-.174-.426-.389-.426zm-4.645-3.058l1.156-.729v1.442l-.11.067-1.047-.661.001-.119zm-.483-2.092l.125-.086 1.125.71-1.142.722-.108-.072v-1.275zm4.057-.005v1.258l-.125.082-1.126-.71 1.125-.71.125.08zm-1.538 2.882l-.101-.064v-1.451l1.149.726.003.125-1.051.664zm1.038-3.709l-1.139.719v-1.439l.11-.071 1.033.652-.004.138zm-2.036-.785l.119.074v1.43l-1.164-.735-.005-.106 1.05-.663zm-.295 5.721c.145.322.446.544.795.544.356 0 .663-.232.804-.564l.403 1.065h-2.398l.396-1.045zm-18.278-6.388v-.465c.008-.097.229-.325.506-.507.278.183.498.411.506.506v.509h-1.012v-.043zm5.161-.943h3.165v.235h-3.165v-.235zm-.839 1.086h4.843v.506h-4.843v-.506zm-.39 1.357h7.754v1.104h-9.886v-1.104h2.132zm8.538-1.501v-.465c.008-.097.229-.325.507-.508.263.174.497.401.506.507v.509h-1.012v-.043zm-.005 1.501v-.606h1.022v1.71h-1.022v-1.104zm-12.466 0v-.606h1.022v1.71h-1.022v-1.104zm-.389 1.956h14.83l-.089.16-.224.406h-14.686l-.258-.416-.094-.151h.52zm10.844 4.107c.057.157.197.268.361.268.164 0 .303-.111.361-.268.288.142.492.449.511.815v3.104c-.123.071-.208.211-.208.375v1.569h-1.288v-1.569c0-.18-.102-.334-.247-.396v-3.083c.019-.365.224-.672.511-.815zm-4.072 0c.058.157.197.268.361.268.164 0 .304-.111.361-.268.287.142.492.449.511.815v3.097c-.129.069-.219.213-.219.381v1.569h-1.293v-1.569c0-.174-.096-.323-.232-.389v-3.089c.018-.365.223-.672.51-.815zm-4.071 0c.057.157.197.268.361.268.164 0 .304-.111.361-.268.287.142.492.449.511.815v3.088c-.138.066-.234.216-.234.39v1.569h-1.328v-1.569c0-.152-.073-.284-.182-.359v-3.119c.019-.365.223-.672.511-.815zm11.183 5.92v.368h-1.237v-1.995h.209v-3.489l-.001-.02c-.035-.829-.574-1.502-1.286-1.676-.054-.163-.196-.279-.364-.279-.167 0-.309.116-.364.279-.711.174-1.25.847-1.285 1.675l-.001.02v3.489h.247v1.995h-1.237v-1.995h.219v-3.509c-.035-.829-.575-1.502-1.286-1.676-.055-.163-.197-.279-.364-.279-.168 0-.309.116-.364.279-.711.174-1.25.847-1.285 1.675l-.001.02v3.489h.232v1.995h-1.238v-1.995h.234v-3.509c-.036-.829-.575-1.501-1.286-1.676-.055-.163-.196-.279-.364-.279-.167 0-.309.116-.364.279-.711.174-1.25.847-1.286 1.675v3.509h.182v1.995h-1.238v-1.995h.11v-6.557h13.335v6.557h.083v1.627zm1.825-3.088c.097 0 .193.03.278.087.182.121.418.061.533-.135.13-.224.351-.358.591-.358.199 0 .39.095.524.259.111.135.288.18.44.11l.127-.028c.182 0 .33.162.33.361l-.019.119c-.045.141-.019.298.068.413.078.101.133.216.164.339h-3.387v-1.023c.098-.094.221-.146.351-.146z" id="Fill-2"/></g><g fill="#fff" sketch:type="MSShapeGroup"><path d="M15.157 85.764c.189.18.432.28.683.28h3.281l-.005.103c0 .278.111.543.305.727.165.157.375.242.593.242h3.048c.494 0 .897-.435.897-.97 0-.535-.403-.97-.897-.97h-.109l.028-.251c0-.616-.464-1.118-1.034-1.118h-6.105c-.252 0-.494.1-.683.28-.223.213-.351.518-.351.839 0 .32.128.626.351.839zm.53-1.027l.153-.063h6.105c.128 0 .232.113.232.251 0 .139-.104.251-.232.251-.222 0-.401.194-.401.434h-.002c0 .239.18.434.401.434h1.117c.052 0 .095.046.095.103 0 .057-.043.103-.095.103h-3.048l-.063-.026-.032-.077.032-.077.063-.026h.002c.222 0 .401-.194.401-.434 0-.239-.179-.434-.401-.434h-4.175l-.153-.063c-.03-.029-.079-.09-.079-.188l.079-.188z" id="Fill-1"/><path d="M28.595 99.006h-1.091l-.713-1.865.621-.388.041.027c.136.083.29.126.446.126.331 0 .636-.193.798-.506.245-.475.087-1.078-.352-1.344l-.051-.026v-1.278l.046-.025c.438-.269.592-.873.342-1.347-.162-.308-.466-.5-.794-.5-.158 0-.314.045-.451.129l-.035.024-1.098-.685.002-.05c0-.545-.41-.988-.913-.988-.504 0-.914.443-.914.988l.003.061-1.109.693-.039-.027c-.136-.082-.29-.126-.446-.126-.331 0-.636.194-.798.506-.245.475-.088 1.078.352 1.344l.068.035v1.261l-.064.033c-.438.269-.591.874-.342 1.347.162.308.467.5.795.5.158 0 .314-.045.451-.129l.053-.037.61.381-.714 1.865h-2.134v-3.039l-.033-.247.543-.975c.074-.134.077-.301.006-.437s-.204-.221-.349-.221h-.89v-2.22l-.005-.053v-.855c0-.187-.083-.838-1.148-1.399-.111-.058-.241-.058-.352 0-1.065.561-1.148 1.213-1.148 1.399v.855l-.005.053v.228h-1.796v-.54c.16-.057.276-.218.276-.41 0-.239-.18-.434-.401-.434h-.739v-.673c0-.239-.18-.434-.401-.434h-.146l.325-.175c.199-.107.279-.367.18-.581-.099-.215-.34-.302-.538-.195l-.882.474c.13-.17.123-.422-.024-.581-.156-.169-.41-.169-.567 0l-.278.3v-.427c0-.24-.179-.434-.401-.434-.221 0-.401.194-.401.434v.474l-.25-.471c-.111-.208-.356-.28-.548-.16-.192.119-.258.384-.148.592l.18.34-.271-.317c-.15-.176-.405-.187-.567-.024-.162.163-.173.437-.022.612l.145.17c-.148.064-.252.219-.252.402v.673h-.739c-.222 0-.401.194-.401.434 0 .192.115.352.275.41v.54h-1.796v-.228l-.01-.094v-.814c0-.187-.083-.838-1.148-1.399-.111-.058-.241-.058-.352 0-1.065.561-1.148 1.213-1.148 1.399v3.127h-.89c-.149 0-.284.089-.355.23-.069.142-.061.313.022.446l.555.885c-.036.098-.056.205-.056.317v9.202h-.408c-.442 0-.802.388-.802.867s.359.867.802.867h22.489c.443 0 .802-.388.802-.867s-.359-.867-.802-.867h-5.133v-1.088h5.26c.222 0 .401-.194.401-.434 0-.239-.179-.434-.401-.434h-.954c-.033-.255-.117-.5-.245-.718l.011-.17c0-.681-.512-1.235-1.142-1.235l-.172.014c-.269-.233-.604-.363-.952-.363-.405 0-.786.172-1.067.472-.122-.039-.249-.059-.377-.059-.124 0-.245.019-.361.054v-1.338h2.269l.125.022h3.687l.125-.022h1.226c.221 0 .401-.194.401-.434 0-.239-.179-.434-.401-.434zm-4.786-3.114l1.191-.743v1.469l-.113.069-1.079-.673.001-.121zm-.498-2.13l.129-.087 1.159.724-1.177.735-.111-.073v-1.299zm4.18-.005v1.281l-.129.084-1.16-.724 1.159-.723.129.082zm-1.585 2.935l-.104-.066v-1.478l1.184.739.004.127-1.083.676zm1.069-3.778l-1.174.733v-1.465l.113-.072 1.064.664-.004.141zm-2.098-.799l.123.076v1.456l-1.199-.749-.006-.108 1.082-.676zm-.304 5.827c.149.328.46.554.819.554.367 0 .683-.236.828-.574l.415 1.085h-2.47l.408-1.064zm-18.832-6.506v-.473c.009-.098.236-.331.522-.517.286.186.513.418.522.516v.518h-1.043v-.044zm5.318-.96h3.261v.239h-3.261v-.239zm-.864 1.107h4.99v.515h-4.99v-.515zm-.401 1.383h7.989v1.124h-10.186v-1.124h2.197zm8.796-1.529v-.473c.009-.098.236-.331.522-.517.271.177.512.409.521.516v.518h-1.043v-.044zm-.005 1.529v-.617h1.053v1.742h-1.053v-1.124zm-12.844 0v-.617h1.053v1.742h-1.053v-1.124zm-.401 1.992h15.28l-.091.163-.23.414h-15.131l-.266-.423-.097-.154h.535zm11.173 4.183c.059.16.202.273.371.273.169 0 .312-.113.371-.273.297.145.507.457.526.83v3.161c-.127.072-.214.215-.214.382v1.598h-1.327v-1.598c0-.184-.106-.34-.254-.403v-3.14c.02-.372.23-.685.527-.83zm-4.196 0c.059.16.203.273.372.273.169 0 .313-.113.372-.273.296.145.507.457.526.83v3.154c-.133.071-.225.217-.225.388v1.598h-1.332v-1.598c0-.178-.098-.329-.239-.397v-3.146c.019-.372.23-.685.526-.83zm-4.195 0c.059.16.203.273.371.273.169 0 .313-.113.372-.273.296.145.507.457.526.83v3.145c-.142.067-.241.22-.241.397v1.598h-1.368v-1.598c0-.155-.075-.289-.188-.366v-3.177c.019-.372.23-.685.526-.83zm11.522 6.03v.374h-1.275v-2.032h.215v-3.554l-.001-.02c-.036-.844-.592-1.529-1.325-1.707-.056-.166-.202-.284-.375-.284s-.319.118-.375.284c-.732.178-1.288.863-1.324 1.706l-.001.02v3.554h.254v2.032h-1.275v-2.032h.225v-3.574c-.036-.844-.592-1.529-1.325-1.707-.057-.166-.202-.284-.375-.284s-.319.118-.375.284c-.733.178-1.288.863-1.324 1.706l-.001.02v3.554h.24v2.032h-1.275v-2.032h.241v-3.574c-.037-.844-.592-1.529-1.325-1.707-.057-.166-.202-.284-.375-.284-.172 0-.318.118-.375.284-.732.178-1.288.863-1.325 1.706v3.574h.188v2.032h-1.275v-2.032h.113v-6.678h13.739v6.678h.086v1.657zm1.88-3.145c.1 0 .199.03.286.089.187.124.431.063.549-.137.134-.228.362-.365.609-.365.205 0 .402.096.54.264.114.138.297.183.454.112l.13-.028c.188 0 .34.165.34.368l-.019.121c-.046.144-.02.304.071.421.08.103.137.22.169.345h-3.49v-1.042c.1-.096.228-.148.361-.148z" id="Fill-2"/></g><g fill="#67737B" sketch:type="MSShapeGroup"><path d="M15.157 46.764c.189.18.432.28.683.28h3.281l-.005.103c0 .278.111.543.305.727.165.157.375.242.593.242h3.048c.494 0 .897-.435.897-.97 0-.535-.403-.97-.897-.97h-.109l.028-.251c0-.616-.464-1.118-1.034-1.118h-6.105c-.252 0-.494.1-.683.28-.223.213-.351.518-.351.839 0 .32.128.626.351.839zm.53-1.027l.153-.063h6.105c.128 0 .232.113.232.251 0 .139-.104.251-.232.251-.222 0-.401.194-.401.434h-.002c0 .239.18.434.401.434h1.117c.052 0 .095.046.095.103 0 .057-.043.103-.095.103h-3.048l-.063-.026-.032-.077.032-.077.063-.026h.002c.222 0 .401-.194.401-.434 0-.239-.179-.434-.401-.434h-4.175l-.153-.063c-.03-.029-.079-.09-.079-.188l.079-.188z"/><path d="M28.595 60.006h-1.091l-.713-1.865.621-.388.041.027c.136.083.29.126.446.126.331 0 .636-.193.798-.506.245-.475.087-1.078-.352-1.344l-.051-.026v-1.278l.046-.025c.438-.269.592-.873.342-1.347-.162-.308-.466-.5-.794-.5-.158 0-.314.045-.451.129l-.035.024-1.098-.685.002-.05c0-.545-.41-.988-.913-.988-.504 0-.914.443-.914.988l.003.061-1.109.693-.039-.027c-.136-.082-.29-.126-.446-.126-.331 0-.636.194-.798.506-.245.475-.088 1.078.352 1.344l.068.035v1.261l-.064.033c-.438.269-.591.874-.342 1.347.162.308.467.5.795.5.158 0 .314-.045.451-.129l.053-.037.61.381-.714 1.865h-2.134v-3.039l-.033-.247.543-.975c.074-.134.077-.301.006-.437s-.204-.221-.349-.221h-.89v-2.22l-.005-.053v-.855c0-.187-.083-.838-1.148-1.399-.111-.058-.241-.058-.352 0-1.065.561-1.148 1.213-1.148 1.399v.855l-.005.053v.228h-1.796v-.54c.16-.057.276-.218.276-.41 0-.239-.18-.434-.401-.434h-.739v-.673c0-.239-.18-.434-.401-.434h-.146l.325-.175c.199-.107.279-.367.18-.581-.099-.215-.34-.302-.538-.195l-.882.474c.13-.17.123-.422-.024-.581-.156-.169-.41-.169-.567 0l-.278.3v-.427c0-.24-.179-.434-.401-.434-.221 0-.401.194-.401.434v.474l-.25-.471c-.111-.208-.356-.28-.548-.16-.192.119-.258.384-.148.592l.18.34-.271-.317c-.15-.176-.405-.187-.567-.024-.162.163-.173.437-.022.612l.145.17c-.148.064-.252.219-.252.402v.673h-.739c-.222 0-.401.194-.401.434 0 .192.115.352.275.41v.54h-1.796v-.228l-.01-.094v-.814c0-.187-.083-.838-1.148-1.399-.111-.058-.241-.058-.352 0-1.065.561-1.148 1.213-1.148 1.399v3.127h-.89c-.149 0-.284.089-.355.23-.069.142-.061.313.022.446l.555.885c-.036.098-.056.205-.056.317v9.202h-.408c-.442 0-.802.388-.802.867s.359.867.802.867h22.489c.443 0 .802-.388.802-.867s-.359-.867-.802-.867h-5.133v-1.088h5.26c.222 0 .401-.194.401-.434 0-.239-.179-.434-.401-.434h-.954c-.033-.255-.117-.5-.245-.718l.011-.17c0-.681-.512-1.235-1.142-1.235l-.172.014c-.269-.233-.604-.363-.952-.363-.405 0-.786.172-1.067.472-.122-.039-.249-.059-.377-.059-.124 0-.245.019-.361.054v-1.338h2.269l.125.022h3.687l.125-.022h1.226c.221 0 .401-.194.401-.434 0-.239-.179-.434-.401-.434zm-4.786-3.114l1.191-.743v1.469l-.113.069-1.079-.673.001-.121zm-.498-2.13l.129-.087 1.159.724-1.177.735-.111-.073v-1.299zm4.18-.005v1.281l-.129.084-1.16-.724 1.159-.723.129.082zm-1.585 2.935l-.104-.066v-1.478l1.184.739.004.127-1.083.676zm1.069-3.778l-1.174.733v-1.465l.113-.072 1.064.664-.004.141zm-2.098-.799l.123.076v1.456l-1.199-.749-.006-.108 1.082-.676zm-.304 5.827c.149.328.46.554.819.554.367 0 .683-.236.828-.574l.415 1.085h-2.47l.408-1.064zm-18.832-6.506v-.473c.009-.098.236-.331.522-.517.286.186.513.418.522.516v.518h-1.043v-.044zm5.318-.96h3.261v.239h-3.261v-.239zm-.864 1.107h4.99v.515h-4.99v-.515zm-.401 1.383h7.989v1.124h-10.186v-1.124h2.197zm8.796-1.529v-.473c.009-.098.236-.331.522-.517.271.177.512.409.521.516v.518h-1.043v-.044zm-.005 1.529v-.617h1.053v1.742h-1.053v-1.124zm-12.844 0v-.617h1.053v1.742h-1.053v-1.124zm-.401 1.992h15.28l-.091.163-.23.414h-15.131l-.266-.423-.097-.154h.535zm11.173 4.183c.059.16.202.273.371.273.169 0 .312-.113.371-.273.297.145.507.457.526.83v3.161c-.127.072-.214.215-.214.382v1.598h-1.327v-1.598c0-.184-.106-.34-.254-.403v-3.14c.02-.372.23-.685.527-.83zm-4.196 0c.059.16.203.273.372.273.169 0 .313-.113.372-.273.296.145.507.457.526.83v3.154c-.133.071-.225.217-.225.388v1.598h-1.332v-1.598c0-.178-.098-.329-.239-.397v-3.146c.019-.372.23-.685.526-.83zm-4.195 0c.059.16.203.273.371.273.169 0 .313-.113.372-.273.296.145.507.457.526.83v3.145c-.142.067-.241.22-.241.397v1.598h-1.368v-1.598c0-.155-.075-.289-.188-.366v-3.177c.019-.372.23-.685.526-.83zm11.522 6.03v.374h-1.275v-2.032h.215v-3.554l-.001-.02c-.036-.844-.592-1.529-1.325-1.707-.056-.166-.202-.284-.375-.284s-.319.118-.375.284c-.732.178-1.288.863-1.324 1.706l-.001.02v3.554h.254v2.032h-1.275v-2.032h.225v-3.574c-.036-.844-.592-1.529-1.325-1.707-.057-.166-.202-.284-.375-.284s-.319.118-.375.284c-.733.178-1.288.863-1.324 1.706l-.001.02v3.554h.24v2.032h-1.275v-2.032h.241v-3.574c-.037-.844-.592-1.529-1.325-1.707-.057-.166-.202-.284-.375-.284-.172 0-.318.118-.375.284-.732.178-1.288.863-1.325 1.706v3.574h.188v2.032h-1.275v-2.032h.113v-6.678h13.739v6.678h.086v1.657zm1.88-3.145c.1 0 .199.03.286.089.187.124.431.063.549-.137.134-.228.362-.365.609-.365.205 0 .402.096.54.264.114.138.297.183.454.112l.13-.028c.188 0 .34.165.34.368l-.019.121c-.046.144-.02.304.071.421.08.103.137.22.169.345h-3.49v-1.042c.1-.096.228-.148.361-.148z"/></g><g fill="#206FAC" sketch:type="MSShapeGroup"><path d="M15.157 119.764c.189.18.432.28.683.28h3.281l-.005.103c0 .278.111.543.305.727.165.157.375.242.593.242h3.048c.494 0 .897-.435.897-.97 0-.535-.403-.97-.897-.97h-.109l.028-.251c0-.616-.464-1.118-1.034-1.118h-6.105c-.252 0-.494.1-.683.28-.223.213-.351.518-.351.839 0 .32.128.626.351.839zm.53-1.027l.153-.063h6.105c.128 0 .232.113.232.251 0 .139-.104.251-.232.251-.222 0-.401.194-.401.434h-.002c0 .239.18.434.401.434h1.117c.052 0 .095.046.095.103 0 .057-.043.103-.095.103h-3.048l-.063-.026-.032-.077.032-.077.063-.026h.002c.222 0 .401-.194.401-.434 0-.239-.179-.434-.401-.434h-4.175l-.153-.063c-.03-.029-.079-.09-.079-.188l.079-.188zM28.595 133.006h-1.091l-.713-1.865.621-.388.041.027c.136.083.29.126.446.126.331 0 .636-.193.798-.506.245-.475.087-1.078-.352-1.344l-.051-.026v-1.278l.046-.025c.438-.269.592-.873.342-1.347-.162-.308-.466-.5-.794-.5-.158 0-.314.045-.451.129l-.035.024-1.098-.685.002-.05c0-.545-.41-.988-.913-.988-.504 0-.914.443-.914.988l.003.061-1.109.693-.039-.027c-.136-.082-.29-.126-.446-.126-.331 0-.636.194-.798.506-.245.475-.088 1.078.352 1.344l.068.035v1.261l-.064.033c-.438.269-.591.874-.342 1.347.162.308.467.5.795.5.158 0 .314-.045.451-.129l.053-.037.61.381-.714 1.865h-2.134v-3.039l-.033-.247.543-.975c.074-.134.077-.301.006-.437s-.204-.221-.349-.221h-.89v-2.22l-.005-.053v-.855c0-.187-.083-.838-1.148-1.399-.111-.058-.241-.058-.352 0-1.065.561-1.148 1.213-1.148 1.399v.855l-.005.053v.228h-1.796v-.54c.16-.057.276-.218.276-.41 0-.239-.18-.434-.401-.434h-.739v-.673c0-.239-.18-.434-.401-.434h-.146l.325-.175c.199-.107.279-.367.18-.581-.099-.215-.34-.302-.538-.195l-.882.474c.13-.17.123-.422-.024-.581-.156-.169-.41-.169-.567 0l-.278.3v-.427c0-.24-.179-.434-.401-.434-.221 0-.401.194-.401.434v.474l-.25-.471c-.111-.208-.356-.28-.548-.16-.192.119-.258.384-.148.592l.18.34-.271-.317c-.15-.176-.405-.187-.567-.024-.162.163-.173.437-.022.612l.145.17c-.148.064-.252.219-.252.402v.673h-.739c-.222 0-.401.194-.401.434 0 .192.115.352.275.41v.54h-1.796v-.228l-.01-.094v-.814c0-.187-.083-.838-1.148-1.399-.111-.058-.241-.058-.352 0-1.065.561-1.148 1.213-1.148 1.399v3.127h-.89c-.149 0-.284.089-.355.23-.069.142-.061.313.022.446l.555.885c-.036.098-.056.205-.056.317v9.202h-.408c-.442 0-.802.388-.802.867s.359.867.802.867h22.489c.443 0 .802-.388.802-.867s-.359-.867-.802-.867h-5.133v-1.088h5.26c.222 0 .401-.194.401-.434 0-.239-.179-.434-.401-.434h-.954c-.033-.255-.117-.5-.245-.718l.011-.17c0-.681-.512-1.235-1.142-1.235l-.172.014c-.269-.233-.604-.363-.952-.363-.405 0-.786.172-1.067.472-.122-.039-.249-.059-.377-.059-.124 0-.245.019-.361.054v-1.338h2.269l.125.022h3.687l.125-.022h1.226c.221 0 .401-.194.401-.434 0-.239-.179-.434-.401-.434zm-4.786-3.114l1.191-.743v1.469l-.113.069-1.079-.673.001-.121zm-.498-2.13l.129-.087 1.159.724-1.177.735-.111-.073v-1.299zm4.18-.005v1.281l-.129.084-1.16-.724 1.159-.723.129.082zm-1.585 2.935l-.104-.066v-1.478l1.184.739.004.127-1.083.676zm1.069-3.778l-1.174.733v-1.465l.113-.072 1.064.664-.004.141zm-2.098-.799l.123.076v1.456l-1.199-.749-.006-.108 1.082-.676zm-.304 5.827c.149.328.46.554.819.554.367 0 .683-.236.828-.574l.415 1.085h-2.47l.408-1.064zm-18.832-6.506v-.473c.009-.098.236-.331.522-.517.286.186.513.418.522.516v.518h-1.043v-.044zm5.318-.96h3.261v.239h-3.261v-.239zm-.864 1.107h4.99v.515h-4.99v-.515zm-.401 1.383h7.989v1.124h-10.186v-1.124h2.197zm8.796-1.529v-.473c.009-.098.236-.331.522-.517.271.177.512.409.521.516v.518h-1.043v-.044zm-.005 1.529v-.617h1.053v1.742h-1.053v-1.124zm-12.844 0v-.617h1.053v1.742h-1.053v-1.124zm-.401 1.992h15.28l-.091.163-.23.414h-15.131l-.266-.423-.097-.154h.535zm11.173 4.183c.059.16.202.273.371.273.169 0 .312-.113.371-.273.297.145.507.457.526.83v3.161c-.127.072-.214.215-.214.382v1.598h-1.327v-1.598c0-.184-.106-.34-.254-.403v-3.14c.02-.372.23-.685.527-.83zm-4.196 0c.059.16.203.273.372.273.169 0 .313-.113.372-.273.296.145.507.457.526.83v3.154c-.133.071-.225.217-.225.388v1.598h-1.332v-1.598c0-.178-.098-.329-.239-.397v-3.146c.019-.372.23-.685.526-.83zm-4.195 0c.059.16.203.273.371.273.169 0 .313-.113.372-.273.296.145.507.457.526.83v3.145c-.142.067-.241.22-.241.397v1.598h-1.368v-1.598c0-.155-.075-.289-.188-.366v-3.177c.019-.372.23-.685.526-.83zm11.522 6.03v.374h-1.275v-2.032h.215v-3.554l-.001-.02c-.036-.844-.592-1.529-1.325-1.707-.056-.166-.202-.284-.375-.284s-.319.118-.375.284c-.732.178-1.288.863-1.324 1.706l-.001.02v3.554h.254v2.032h-1.275v-2.032h.225v-3.574c-.036-.844-.592-1.529-1.325-1.707-.057-.166-.202-.284-.375-.284s-.319.118-.375.284c-.733.178-1.288.863-1.324 1.706l-.001.02v3.554h.24v2.032h-1.275v-2.032h.241v-3.574c-.037-.844-.592-1.529-1.325-1.707-.057-.166-.202-.284-.375-.284-.172 0-.318.118-.375.284-.732.178-1.288.863-1.325 1.706v3.574h.188v2.032h-1.275v-2.032h.113v-6.678h13.739v6.678h.086v1.657zm1.88-3.145c.1 0 .199.03.286.089.187.124.431.063.549-.137.134-.228.362-.365.609-.365.205 0 .402.096.54.264.114.138.297.183.454.112l.13-.028c.188 0 .34.165.34.368l-.019.121c-.046.144-.02.304.071.421.08.103.137.22.169.345h-3.49v-1.042c.1-.096.228-.148.361-.148z"/></g></g></svg>