<svg width="32" height="232" viewBox="0 0 32 232" xmlns="http://www.w3.org/2000/svg" xmlns:sketch="http://www.bohemiancoding.com/sketch/ns"><title>Belize</title><g sketch:type="MSLayerGroup" fill="none"><g fill="#373D43" sketch:type="MSShapeGroup"><path d="M23.847 18.191c.174-.774.189-1.535.043-2.251.338-.026.678-.134.993-.318.94-.546 1.002-2.059 1.006-2.23.004-.151-.074-.292-.202-.367-.032-.019-.804-.465-1.576-.465-.303 0-.574.067-.803.201-.317.184-.584.432-.779.715-.526-.496-1.173-.878-1.904-1.126l.023-.153c.144-1.037.1-2.367-.925-2.822-1.03-.457-3.318-.738-3.742.076-.109.208-.188.627.501 1.086.256.17.495.304.707.422.493.275.755.432.867.732.036.096.058.211.067.345-1.292.076-2.602.481-3.817 1.186l-.376.231-.094.053-.033.031c-.485.324-.932.687-1.335 1.083-.701-.859-1.73-1.746-2.726-1.221-.92.484-2.453 1.998-2.134 2.795.197.491.76.391 1.078.288.266-.086.497-.182.701-.267.466-.194.722-.291.98-.201.188.064.4.23.648.507-.119.217-.228.438-.325.663-.598 1.401-.675 2.809-.24 4.043-1.06.676-1.425 2.118-.851 3.325l.002.005.074.146c.073.134.209.209.348.209l.196-.053c.192-.112.26-.362.151-.56l-.068-.137c-.051-.118-.07-.213-.052-.269.045-.148.404-.322.72-.477.189-.092.403-.196.617-.32l.05-.037c.942.886 2.268 1.406 3.772 1.446.105.365.134.639.09.839-.059.274-.271.448-.673.758-.176.136-.375.29-.584.479-.583.528-.448.914-.315 1.097.164.228.496.318.899.318.823 0 1.942-.38 2.532-.755.954-.608.742-1.975.385-3.035.721-.202 1.432-.503 2.112-.898 1.217-.707 2.233-1.658 2.957-2.748.108.077.192.156.253.237.192.253.189.566.164 1.141-.011.247-.023.526-.013.839.028.843.418.989.648 1.001l.028.001c.89 0 1.816-2.126 1.964-3.256.152-1.157-.955-1.896-2.013-2.332zm-2.558 1.738c-.38.505-.85.98-1.399 1.399l-.473-.616.066-.112 1.056-2.741c.03-.078.035-.162.017-.241l1.549-.235c.116-.018.217-.088.279-.187-.011.172-.033.345-.067.52-.051.263-.128.527-.229.791-.091.237-.202.474-.331.707-.136.243-.292.483-.467.715zm-2.219 1.949c-.655.38-1.34.654-2.029.815-.195.046-.39.083-.585.111-.286.04-.571.061-.853.061l-.088-.002.616-1.599.143.028.059-.004 2.281-.347.07.141.541.703-.153.092zm-1.209-8.17c.234-.027.467-.041.699-.041l.138.003.343.019-.511 1.329c-.064-.026-.134-.035-.204-.024l-2.606.396-.566-.77c.872-.496 1.795-.805 2.708-.912zm4.383 1.236l.103.133-.588 1.529-1.584.24-.994-1.288.449-1.166.139-.363.461-.07.029-.005 1.093-.165.891 1.154zm-3.42 5.135l-2.381.362-1.496-1.938.886-2.3 2.382-.362 1.496 1.937-.886 2.3zm-6.856.629l.482-1.252 1.867-.284 1.173 1.519-.694 1.803-.795.121-1.072.163-1.173-1.519.212-.55zm1.4-4.691c.328-.349.697-.671 1.103-.96l.618.841-.952 2.471-2.033.309c-.102.016-.193.071-.255.153.062-.324.163-.653.305-.985.203-.476.477-.933.81-1.359.126-.161.261-.317.403-.468zm10.333-2.539c.108-.063.246-.094.409-.094.352 0 .727.141.957.246-.051.412-.206 1.062-.579 1.279-.246.142-.508.218-.761.218l-.083-.004c-.072-.179-.154-.354-.248-.524-.093-.17-.197-.331-.31-.486.123-.248.343-.477.614-.634zm-6.132-3.239c-.208-.116-.423-.236-.653-.388l-.062-.043c.501-.109 1.695-.055 2.551.324.559.248.555 1.192.452 1.941l-.011.075c-.301-.059-.611-.097-.93-.113-.044-.999-.575-1.365-1.348-1.796zm-8.483 5.218c-.193.08-.393.163-.62.238.247-.423.898-1.17 1.64-1.561.506-.267 1.228.373 1.802 1.09-.161.192-.312.389-.453.592-.885-.897-1.503-.719-2.369-.36zm1.543 7.219l-.444.228c.093-.368.299-.696.606-.921.09.159.19.312.297.459l-.46.234zm6.31 3.869c-.708.451-1.663.639-2.145.639h-.003c.18-.161.352-.295.518-.423.748-.577 1.215-1.031.919-2.278.242-.02.485-.051.727-.094.305.877.469 1.847-.017 2.157zm8.127-6.13c-.124.949-.695 2.028-1.044 2.413l-.004-.077c-.009-.28.002-.532.012-.775.039-.902.008-1.558-.804-2.112.089-.169.171-.341.246-.516l.141-.36.067.028c.677.296 1.467.778 1.386 1.399z" id="Fill-1"/><path d="M23.589 10.869c-.119-.091-.286-.106-.418-.038l-.061.039c-.101.077-.16.199-.16.329 0 .082.024.16.066.227l.043.056.051.046c.068.053.152.082.24.082l.178-.043.075-.05.065-.069.068-.143c.029-.114.01-.236-.054-.334l-.094-.102" id="Fill-2"/><path d="M7.192 22.868c-.119-.091-.286-.106-.418-.038l-.061.039c-.101.078-.16.199-.16.329 0 .082.023.16.066.227l.043.055.051.046c.068.052.152.082.24.082l.178-.043.075-.05.065-.07.068-.142c.03-.114.01-.236-.053-.334l-.094-.102" id="Fill-3"/><path d="M6.64 21.19l.066-.071.068-.143c.029-.113.01-.234-.053-.332-.074-.115-.2-.184-.334-.184-.087 0-.172.029-.24.083-.17.13-.211.375-.093.556.074.115.199.183.333.183l.178-.043.075-.049" id="Fill-4"/><path d="M24.231 9.533c-.087 0-.172.029-.24.082-.169.131-.211.374-.094.556.074.115.2.184.334.184l.178-.043.075-.05.066-.071.068-.143c.029-.113.01-.235-.054-.333-.074-.114-.199-.183-.333-.183" id="Fill-5"/><path d="M23.111 8.184c-.093.071-.151.181-.159.3l.005.098.072.174.04.048.106.076.177.045c.087 0 .172-.03.242-.084l.04-.036c.076-.077.119-.183.119-.293 0-.156-.086-.299-.222-.368-.112-.057-.248-.056-.359.002l-.059.038" id="Fill-6"/><path d="M7.186 21.425l-.167.075c-.156.119-.205.337-.118.515.039.079.101.143.178.182l.179.044.178-.043.063-.04c.081-.063.137-.157.154-.262.02-.131-.021-.263-.112-.356-.093-.096-.226-.138-.356-.114" id="Fill-7"/><path d="M23.83 7.553c.105.111.254.176.407.176.121 0 .238-.041.332-.115.109-.082.181-.202.205-.341.026-.155-.013-.319-.108-.449l-.052-.059c-.104-.096-.245-.152-.389-.152-.112 0-.22.033-.312.095l-.033.025c-.222.187-.26.537-.083.78l.033.04zm.246-.18l.153-.173.124.194c-.085.058-.199.051-.277-.021zm.317-.01l-.065-.078.038.06-.125-.158.04-.045.156-.12c.088.12.043.263-.044.342zm-.408-.231c.011-.069.048-.131.101-.175l.15-.051c.08 0 .136.041.167.075l-.182.181-.089-.111.078.121-.186.142c-.037-.05-.051-.115-.039-.182z" id="Fill-8"/><path d="M6.027 18.707c.097.086.221.134.351.134.155 0 .305-.066.411-.181l.032-.04c.167-.233.135-.568-.067-.758-.097-.097-.225-.15-.362-.15-.153 0-.303.067-.412.184l-.048.063c-.138.224-.112.526.064.719l.029.029zm.581-.307l-.191-.125.165-.159c.055.061.096.172.027.284zm-.063-.319l-.064.079.051-.049-.13.154-.051-.033-.141-.138c.086-.093.236-.096.336-.013zm-.368.053l.204.154-.092.109.103-.099.169.165c-.086.092-.252.09-.352-.002-.079-.079-.114-.211-.031-.326z" id="Fill-9"/><path d="M21.841 6.496c.16.17.398.272.636.272.187 0 .365-.063.504-.178.161-.118.268-.294.303-.498.04-.24-.023-.496-.172-.703l-.052-.059c-.163-.151-.388-.238-.617-.238-.176 0-.345.051-.488.148l-.033.025c-.335.282-.387.816-.114 1.191l.033.04zm.651-.574l.004.016-.009.008-.05-.008-.004-.024.058.008z" id="Fill-10"/><path d="M8.061 10.514c.062.037.131.055.2.055l.2-.055 1.292-.766c.624.579 1.441.905 2.288.905.956 0 1.874-.416 2.52-1.14.139-.157.139-.397 0-.554-.646-.725-1.564-1.141-2.52-1.141-.847 0-1.664.327-2.288.905l-1.292-.766c-.124-.073-.276-.073-.4 0s-.2.209-.2.356v1.845c0 .147.076.282.2.356zm3.98-1.875c.6 0 1.18.214 1.642.596-.462.382-1.042.596-1.642.596-.599 0-1.18-.214-1.642-.596.462-.383 1.043-.596 1.642-.596zm-3.38.385l.356.211-.356.211v-.422z" id="Fill-11"/><path d="M8.886 12.454c.14-.157.14-.398 0-.554-.467-.524-1.131-.825-1.822-.825-.581 0-1.143.213-1.585.593l-.809-.48c-.124-.073-.277-.073-.4 0s-.2.209-.2.355v1.267c0 .147.077.282.2.355.062.037.131.055.2.055l.2-.055.809-.48c.442.379 1.004.593 1.585.593.691 0 1.355-.3 1.822-.824zm-1.822-.558c.326 0 .645.099.914.28-.269.181-.587.28-.914.28-.327 0-.644-.099-.914-.28.27-.181.587-.28.914-.28z" id="Fill-12"/><path d="M22.568 24.32c-.581 0-1.143.214-1.585.594l-.809-.481c-.124-.073-.277-.073-.4 0-.124.074-.2.209-.2.356v1.267c0 .147.076.282.2.356.062.037.131.055.2.055l.2-.055.809-.48c.442.379 1.004.593 1.585.593.691 0 1.355-.3 1.822-.824.14-.157.14-.398 0-.554-.467-.524-1.131-.825-1.822-.825zm0 1.383c-.327 0-.644-.1-.914-.28.27-.181.587-.281.914-.281.326 0 .644.1.914.281-.27.181-.587.28-.914.28z" id="Fill-13"/></g><g fill="#67737B" sketch:type="MSShapeGroup"><path d="M23.847 58.191c.174-.774.189-1.535.043-2.251.338-.026.678-.134.993-.318.94-.546 1.002-2.059 1.006-2.23.004-.151-.074-.292-.202-.367-.032-.019-.804-.465-1.576-.465-.303 0-.574.067-.803.201-.317.184-.584.432-.779.715-.526-.496-1.173-.878-1.904-1.126l.023-.153c.144-1.037.1-2.367-.925-2.822-1.03-.457-3.318-.738-3.742.076-.109.208-.188.627.501 1.086.256.17.495.304.707.422.493.275.755.432.867.732.036.096.058.211.067.345-1.292.076-2.602.481-3.817 1.186l-.376.231-.094.053-.033.031c-.485.324-.932.687-1.335 1.083-.701-.859-1.73-1.746-2.726-1.221-.92.484-2.453 1.998-2.134 2.795.197.491.76.391 1.078.288.266-.086.497-.182.701-.267.466-.194.722-.291.98-.201.188.064.4.23.648.507-.119.217-.228.438-.325.663-.598 1.401-.675 2.809-.24 4.043-1.06.676-1.425 2.118-.851 3.325l.002.005.074.146c.073.134.209.209.348.209l.196-.053c.192-.112.26-.362.151-.56l-.068-.137c-.051-.118-.07-.213-.052-.269.045-.148.404-.322.72-.477.189-.092.403-.196.617-.32l.05-.037c.942.886 2.268 1.406 3.772 1.446.105.365.134.639.09.839-.059.274-.271.448-.673.758-.176.136-.375.29-.584.479-.583.528-.448.914-.315 1.097.164.228.496.318.899.318.823 0 1.942-.38 2.532-.755.954-.608.742-1.975.385-3.035.721-.202 1.432-.503 2.112-.898 1.217-.707 2.233-1.658 2.957-2.748.108.077.192.156.253.237.192.253.189.566.164 1.141-.011.247-.023.526-.013.839.028.843.418.989.648 1.001l.028.001c.89 0 1.816-2.126 1.964-3.256.152-1.157-.955-1.896-2.013-2.332zm-2.558 1.738c-.38.505-.85.98-1.399 1.399l-.473-.616.066-.112 1.056-2.741c.03-.078.035-.162.017-.241l1.549-.235c.116-.018.217-.088.279-.187-.011.172-.033.345-.067.52-.051.263-.128.527-.229.791-.091.237-.202.474-.331.707-.136.243-.292.483-.467.715zm-2.219 1.949c-.655.38-1.34.654-2.029.815-.195.046-.39.083-.585.111-.286.04-.571.061-.853.061l-.088-.002.616-1.599.143.028.059-.004 2.281-.347.07.141.541.703-.153.092zm-1.209-8.17c.234-.027.467-.041.699-.041l.138.003.343.019-.511 1.329c-.064-.026-.134-.035-.204-.024l-2.606.396-.566-.77c.872-.496 1.795-.805 2.708-.912zm4.383 1.236l.103.133-.588 1.529-1.584.24-.994-1.288.449-1.166.139-.363.461-.07.029-.005 1.093-.165.891 1.154zm-3.42 5.135l-2.381.362-1.496-1.938.886-2.3 2.382-.362 1.496 1.937-.886 2.3zm-6.856.629l.482-1.252 1.867-.284 1.173 1.519-.694 1.803-.795.121-1.072.163-1.173-1.519.212-.55zm1.4-4.691c.328-.349.697-.671 1.103-.96l.618.841-.952 2.471-2.033.309c-.102.016-.193.071-.255.153.062-.324.163-.653.305-.985.203-.476.477-.933.81-1.359.126-.161.261-.317.403-.468zm10.333-2.539c.108-.063.246-.094.409-.094.352 0 .727.141.957.246-.051.412-.206 1.062-.579 1.279-.246.142-.508.218-.761.218l-.083-.004c-.072-.179-.154-.354-.248-.524-.093-.17-.197-.331-.31-.486.123-.248.343-.477.614-.634zm-6.132-3.239c-.208-.116-.423-.236-.653-.388l-.062-.043c.501-.109 1.695-.055 2.551.324.559.248.555 1.192.452 1.941l-.011.075c-.301-.059-.611-.097-.93-.113-.044-.999-.575-1.365-1.348-1.796zm-8.483 5.218c-.193.08-.393.163-.62.238.247-.423.898-1.17 1.64-1.561.506-.267 1.228.373 1.802 1.09-.161.192-.312.389-.453.592-.885-.897-1.503-.719-2.369-.36zm1.543 7.219l-.444.228c.093-.368.299-.696.606-.921.09.159.19.312.297.459l-.46.234zm6.31 3.869c-.708.451-1.663.639-2.145.639h-.003c.18-.161.352-.295.518-.423.748-.577 1.215-1.031.919-2.278.242-.02.485-.051.727-.094.305.877.469 1.847-.017 2.157zm8.127-6.13c-.124.949-.695 2.028-1.044 2.413l-.004-.077c-.009-.28.002-.532.012-.775.039-.902.008-1.558-.804-2.112.089-.169.171-.341.246-.516l.141-.36.067.028c.677.296 1.467.778 1.386 1.399z" id="Fill-1"/><path d="M23.589 50.869c-.119-.091-.286-.106-.418-.038l-.061.039c-.101.077-.16.199-.16.329 0 .082.024.16.066.227l.043.056.051.046c.068.053.152.082.24.082l.178-.043.075-.05.065-.069.068-.143c.029-.114.01-.236-.054-.334l-.094-.102" id="Fill-2"/><path d="M7.192 62.868c-.119-.091-.286-.106-.418-.038l-.061.039c-.101.078-.16.199-.16.329 0 .082.023.16.066.227l.043.055.051.046c.068.052.152.082.24.082l.178-.043.075-.05.065-.07.068-.142c.03-.114.01-.236-.053-.334l-.094-.102" id="Fill-3"/><path d="M6.64 61.19l.066-.071.068-.143c.029-.113.01-.234-.053-.332-.074-.115-.2-.184-.334-.184-.087 0-.172.029-.24.083-.17.13-.211.375-.093.556.074.115.199.183.333.183l.178-.043.075-.049" id="Fill-4"/><path d="M24.231 49.533c-.087 0-.172.029-.24.082-.169.131-.211.374-.094.556.074.115.2.184.334.184l.178-.043.075-.05.066-.071.068-.143c.029-.113.01-.235-.054-.333-.074-.114-.199-.183-.333-.183" id="Fill-5"/><path d="M23.111 48.184c-.093.071-.151.181-.159.3l.005.098.072.174.04.048.106.076.177.045c.087 0 .172-.03.242-.084l.04-.036c.076-.077.119-.183.119-.293 0-.156-.086-.299-.222-.368-.112-.057-.248-.056-.359.002l-.059.038" id="Fill-6"/><path d="M7.186 61.425l-.167.075c-.156.119-.205.337-.118.515.039.079.101.143.178.182l.179.044.178-.043.063-.04c.081-.063.137-.157.154-.262.02-.131-.021-.263-.112-.356-.093-.096-.226-.138-.356-.114" id="Fill-7"/><path d="M23.83 47.553c.105.111.254.176.407.176.121 0 .238-.041.332-.115.109-.082.181-.202.205-.341.026-.155-.013-.319-.108-.449l-.052-.059c-.104-.096-.245-.152-.389-.152-.112 0-.22.033-.312.095l-.033.025c-.222.187-.26.537-.083.78l.033.04zm.246-.18l.153-.173.124.194c-.085.058-.199.051-.277-.021zm.317-.01l-.065-.078.038.06-.125-.158.04-.045.156-.12c.088.12.043.263-.044.342zm-.408-.231c.011-.069.048-.131.101-.175l.15-.051c.08 0 .136.041.167.075l-.182.181-.089-.111.078.121-.186.142c-.037-.05-.051-.115-.039-.182z" id="Fill-8"/><path d="M6.027 58.707c.097.086.221.134.351.134.155 0 .305-.066.411-.181l.032-.04c.167-.233.135-.568-.067-.758-.097-.097-.225-.15-.362-.15-.153 0-.303.067-.412.184l-.048.063c-.138.224-.112.526.064.719l.029.029zm.581-.307l-.191-.125.165-.159c.055.061.096.172.027.284zm-.063-.319l-.064.079.051-.049-.13.154-.051-.033-.141-.138c.086-.093.236-.096.336-.013zm-.368.053l.204.154-.092.109.103-.099.169.165c-.086.092-.252.09-.352-.002-.079-.079-.114-.211-.031-.326z" id="Fill-9"/><path d="M21.841 46.496c.16.17.398.272.636.272.187 0 .365-.063.504-.178.161-.118.268-.294.303-.498.04-.24-.023-.496-.172-.703l-.052-.059c-.163-.151-.388-.238-.617-.238-.176 0-.345.051-.488.148l-.033.025c-.335.282-.387.816-.114 1.191l.033.04zm.651-.574l.004.016-.009.008-.05-.008-.004-.024.058.008z" id="Fill-10"/><path d="M8.061 50.514c.062.037.131.055.2.055l.2-.055 1.292-.766c.624.579 1.441.905 2.288.905.956 0 1.874-.416 2.52-1.14.139-.157.139-.397 0-.554-.646-.725-1.564-1.141-2.52-1.141-.847 0-1.664.327-2.288.905l-1.292-.766c-.124-.073-.276-.073-.4 0s-.2.209-.2.356v1.845c0 .147.076.282.2.356zm3.98-1.875c.6 0 1.18.214 1.642.596-.462.382-1.042.596-1.642.596-.599 0-1.18-.214-1.642-.596.462-.383 1.043-.596 1.642-.596zm-3.38.385l.356.211-.356.211v-.422z" id="Fill-11"/><path d="M8.886 52.454c.14-.157.14-.398 0-.554-.467-.524-1.131-.825-1.822-.825-.581 0-1.143.213-1.585.593l-.809-.48c-.124-.073-.277-.073-.4 0s-.2.209-.2.355v1.267c0 .147.077.282.2.355.062.037.131.055.2.055l.2-.055.809-.48c.442.379 1.004.593 1.585.593.691 0 1.355-.3 1.822-.824zm-1.822-.558c.326 0 .645.099.914.28-.269.181-.587.28-.914.28-.327 0-.644-.099-.914-.28.27-.181.587-.28.914-.28z" id="Fill-12"/><path d="M22.568 64.32c-.581 0-1.143.214-1.585.594l-.809-.481c-.124-.073-.277-.073-.4 0-.124.074-.2.209-.2.356v1.267c0 .147.076.282.2.356.062.037.131.055.2.055l.2-.055.809-.48c.442.379 1.004.593 1.585.593.691 0 1.355-.3 1.822-.824.14-.157.14-.398 0-.554-.467-.524-1.131-.825-1.822-.825zm0 1.383c-.327 0-.644-.1-.914-.28.27-.181.587-.281.914-.281.326 0 .644.1.914.281-.27.181-.587.28-.914.28z" id="Fill-13"/></g><g fill="#206FAC" sketch:type="MSShapeGroup"><path d="M23.847 128.191c.174-.774.189-1.535.043-2.251.338-.026.678-.134.993-.318.94-.546 1.002-2.059 1.006-2.23.004-.151-.074-.292-.202-.367-.032-.019-.804-.465-1.576-.465-.303 0-.574.067-.803.201-.317.184-.584.432-.779.715-.526-.496-1.173-.878-1.904-1.126l.023-.153c.144-1.037.1-2.367-.925-2.822-1.03-.457-3.318-.738-3.742.076-.109.208-.188.627.501 1.086.256.17.495.304.707.422.493.275.755.432.867.732.036.096.058.211.067.345-1.292.076-2.602.481-3.817 1.186l-.376.231-.094.053-.033.031c-.485.324-.932.687-1.335 1.083-.701-.859-1.73-1.746-2.726-1.221-.92.484-2.453 1.998-2.134 2.795.197.491.76.391 1.078.288.266-.086.497-.182.701-.267.466-.194.722-.291.98-.201.188.064.4.23.648.507-.119.217-.228.438-.325.663-.598 1.401-.675 2.809-.24 4.043-1.06.676-1.425 2.118-.851 3.325l.002.005.074.146c.073.134.209.209.348.209l.196-.053c.192-.112.26-.362.151-.56l-.068-.137c-.051-.118-.07-.213-.052-.269.045-.148.404-.322.72-.477.189-.092.403-.196.617-.32l.05-.037c.942.886 2.268 1.406 3.772 1.446.105.365.134.639.09.839-.059.274-.271.448-.673.758-.176.136-.375.29-.584.479-.583.528-.448.914-.315 1.097.164.228.496.318.899.318.823 0 1.942-.38 2.532-.755.954-.608.742-1.975.385-3.035.721-.202 1.432-.503 2.112-.898 1.217-.707 2.233-1.658 2.957-2.748.108.077.192.156.253.237.192.253.189.566.164 1.141-.011.247-.023.526-.013.839.028.843.418.989.648 1.001l.028.001c.89 0 1.816-2.126 1.964-3.256.152-1.157-.955-1.896-2.013-2.332zm-2.558 1.738c-.38.505-.85.98-1.399 1.399l-.473-.616.066-.112 1.056-2.741c.03-.078.035-.162.017-.241l1.549-.235c.116-.018.217-.088.279-.187-.011.172-.033.345-.067.52-.051.263-.128.527-.229.791-.091.237-.202.474-.331.707-.136.243-.292.483-.467.715zm-2.219 1.949c-.655.38-1.34.654-2.029.815-.195.046-.39.083-.585.111-.286.04-.571.061-.853.061l-.088-.002.616-1.599.143.028.059-.004 2.281-.347.07.141.541.703-.153.092zm-1.209-8.17c.234-.027.467-.041.699-.041l.138.003.343.019-.511 1.329c-.064-.026-.134-.035-.204-.024l-2.606.396-.566-.77c.872-.496 1.795-.805 2.708-.912zm4.383 1.236l.103.133-.588 1.529-1.584.24-.994-1.288.449-1.166.139-.363.461-.07.029-.005 1.093-.165.891 1.154zm-3.42 5.135l-2.381.362-1.496-1.938.886-2.3 2.382-.362 1.496 1.937-.886 2.3zm-6.856.629l.482-1.252 1.867-.284 1.173 1.519-.694 1.803-.795.121-1.072.163-1.173-1.519.212-.55zm1.4-4.691c.328-.349.697-.671 1.103-.96l.618.841-.952 2.471-2.033.309c-.102.016-.193.071-.255.153.062-.324.163-.653.305-.985.203-.476.477-.933.81-1.359.126-.161.261-.317.403-.468zm10.333-2.539c.108-.063.246-.094.409-.094.352 0 .727.141.957.246-.051.412-.206 1.062-.579 1.279-.246.142-.508.218-.761.218l-.083-.004c-.072-.179-.154-.354-.248-.524-.093-.17-.197-.331-.31-.486.123-.248.343-.477.614-.634zm-6.132-3.239c-.208-.116-.423-.236-.653-.388l-.062-.043c.501-.109 1.695-.055 2.551.324.559.248.555 1.192.452 1.941l-.011.075c-.301-.059-.611-.097-.93-.113-.044-.999-.575-1.365-1.348-1.796zm-8.483 5.218c-.193.08-.393.163-.62.238.247-.423.898-1.17 1.64-1.561.506-.267 1.228.373 1.802 1.09-.161.192-.312.389-.453.592-.885-.897-1.503-.719-2.369-.36zm1.543 7.219l-.444.228c.093-.368.299-.696.606-.921.09.159.19.312.297.459l-.46.234zm6.31 3.869c-.708.451-1.663.639-2.145.639h-.003c.18-.161.352-.295.518-.423.748-.577 1.215-1.031.919-2.278.242-.02.485-.051.727-.094.305.877.469 1.847-.017 2.157zm8.127-6.13c-.124.949-.695 2.028-1.044 2.413l-.004-.077c-.009-.28.002-.532.012-.775.039-.902.008-1.558-.804-2.112.089-.169.171-.341.246-.516l.141-.36.067.028c.677.296 1.467.778 1.386 1.399z"/><path d="M23.589 120.869c-.119-.091-.286-.106-.418-.038l-.061.039c-.101.077-.16.199-.16.329 0 .082.024.16.066.227l.043.056.051.046c.068.053.152.082.24.082l.178-.043.075-.05.065-.069.068-.143c.029-.114.01-.236-.054-.334l-.094-.102"/><path d="M7.192 132.868c-.119-.091-.286-.106-.418-.038l-.061.039c-.101.078-.16.199-.16.329 0 .082.023.16.066.227l.043.055.051.046c.068.052.152.082.24.082l.178-.043.075-.05.065-.07.068-.142c.03-.114.01-.236-.053-.334l-.094-.102"/><path d="M6.64 131.19l.066-.071.068-.143c.029-.113.01-.234-.053-.332-.074-.115-.2-.184-.334-.184-.087 0-.172.029-.24.083-.17.13-.211.375-.093.556.074.115.199.183.333.183l.178-.043.075-.049"/><path d="M24.231 119.533c-.087 0-.172.029-.24.082-.169.131-.211.374-.094.556.074.115.2.184.334.184l.178-.043.075-.05.066-.071.068-.143c.029-.113.01-.235-.054-.333-.074-.114-.199-.183-.333-.183"/><path d="M23.111 118.184c-.093.071-.151.181-.159.3l.005.098.072.174.04.048.106.076.177.045c.087 0 .172-.03.242-.084l.04-.036c.076-.077.119-.183.119-.293 0-.156-.086-.299-.222-.368-.112-.057-.248-.056-.359.002l-.059.038"/><path d="M7.186 131.425l-.167.075c-.156.119-.205.337-.118.515.039.079.101.143.178.182l.179.044.178-.043.063-.04c.081-.063.137-.157.154-.262.02-.131-.021-.263-.112-.356-.093-.096-.226-.138-.356-.114"/><path d="M23.83 117.553c.105.111.254.176.407.176.121 0 .238-.041.332-.115.109-.082.181-.202.205-.341.026-.155-.013-.319-.108-.449l-.052-.059c-.104-.096-.245-.152-.389-.152-.112 0-.22.033-.312.095l-.033.025c-.222.187-.26.537-.083.78l.033.04zm.246-.18l.153-.173.124.194c-.085.058-.199.051-.277-.021zm.317-.01l-.065-.078.038.06-.125-.158.04-.045.156-.12c.088.12.043.263-.044.342zm-.408-.231c.011-.069.048-.131.101-.175l.15-.051c.08 0 .136.041.167.075l-.182.181-.089-.111.078.121-.186.142c-.037-.05-.051-.115-.039-.182z"/><path d="M6.027 128.707c.097.086.221.134.351.134.155 0 .305-.066.411-.181l.032-.04c.167-.233.135-.568-.067-.758-.097-.097-.225-.15-.362-.15-.153 0-.303.067-.412.184l-.048.063c-.138.224-.112.526.064.719l.029.029zm.581-.307l-.191-.125.165-.159c.055.061.096.172.027.284zm-.063-.319l-.064.079.051-.049-.13.154-.051-.033-.141-.138c.086-.093.236-.096.336-.013zm-.368.053l.204.154-.092.109.103-.099.169.165c-.086.092-.252.09-.352-.002-.079-.079-.114-.211-.031-.326z"/><path d="M21.841 116.496c.16.17.398.272.636.272.187 0 .365-.063.504-.178.161-.118.268-.294.303-.498.04-.24-.023-.496-.172-.703l-.052-.059c-.163-.151-.388-.238-.617-.238-.176 0-.345.051-.488.148l-.033.025c-.335.282-.387.816-.114 1.191l.033.04zm.651-.574l.004.016-.009.008-.05-.008-.004-.024.058.008z"/><path d="M8.061 120.514c.062.037.131.055.2.055l.2-.055 1.292-.766c.624.579 1.441.905 2.288.905.956 0 1.874-.416 2.52-1.14.139-.157.139-.397 0-.554-.646-.725-1.564-1.141-2.52-1.141-.847 0-1.664.327-2.288.905l-1.292-.766c-.124-.073-.276-.073-.4 0s-.2.209-.2.356v1.845c0 .147.076.282.2.356zm3.98-1.875c.6 0 1.18.214 1.642.596-.462.382-1.042.596-1.642.596-.599 0-1.18-.214-1.642-.596.462-.383 1.043-.596 1.642-.596zm-3.38.385l.356.211-.356.211v-.422z"/><path d="M8.886 122.454c.14-.157.14-.398 0-.554-.467-.524-1.131-.825-1.822-.825-.581 0-1.143.213-1.585.593l-.809-.48c-.124-.073-.277-.073-.4 0s-.2.209-.2.355v1.267c0 .147.077.282.2.355.062.037.131.055.2.055l.2-.055.809-.48c.442.379 1.004.593 1.585.593.691 0 1.355-.3 1.822-.824zm-1.822-.558c.326 0 .645.099.914.28-.269.181-.587.28-.914.28-.327 0-.644-.099-.914-.28.27-.181.587-.28.914-.28z"/><path d="M22.568 134.32c-.581 0-1.143.214-1.585.594l-.809-.481c-.124-.073-.277-.073-.4 0-.124.074-.2.209-.2.356v1.267c0 .147.076.282.2.356.062.037.131.055.2.055l.2-.055.809-.48c.442.379 1.004.593 1.585.593.691 0 1.355-.3 1.822-.824.14-.157.14-.398 0-.554-.467-.524-1.131-.825-1.822-.825zm0 1.383c-.327 0-.644-.1-.914-.28.27-.181.587-.281.914-.281.326 0 .644.1.914.281-.27.181-.587.28-.914.28z"/></g><g fill="#fff" sketch:type="MSShapeGroup"><path d="M23.847 94.191c.174-.774.189-1.535.043-2.251.338-.026.678-.134.993-.318.94-.546 1.002-2.059 1.006-2.23.004-.151-.074-.292-.202-.367-.032-.019-.804-.465-1.576-.465-.303 0-.574.067-.803.201-.317.184-.584.432-.779.715-.526-.496-1.173-.878-1.904-1.126l.023-.153c.144-1.037.1-2.367-.925-2.822-1.03-.457-3.318-.738-3.742.076-.109.208-.188.627.501 1.086.256.17.495.304.707.422.493.275.755.432.867.732.036.096.058.211.067.345-1.292.076-2.602.481-3.817 1.186l-.376.231-.094.053-.033.031c-.485.324-.932.687-1.335 1.083-.701-.859-1.73-1.746-2.726-1.221-.92.484-2.453 1.998-2.134 2.795.197.491.76.391 1.078.288.266-.086.497-.182.701-.267.466-.194.722-.291.98-.201.188.064.4.23.648.507-.119.217-.228.438-.325.663-.598 1.401-.675 2.809-.24 4.043-1.06.676-1.425 2.118-.851 3.325l.002.005.074.146c.073.134.209.209.348.209l.196-.053c.192-.112.26-.362.151-.56l-.068-.137c-.051-.118-.07-.213-.052-.269.045-.148.404-.322.72-.477.189-.092.403-.196.617-.32l.05-.037c.942.886 2.268 1.406 3.772 1.446.105.365.134.639.09.839-.059.274-.271.448-.673.758-.176.136-.375.29-.584.479-.583.528-.448.914-.315 1.097.164.228.496.318.899.318.823 0 1.942-.38 2.532-.755.954-.608.742-1.975.385-3.035.721-.202 1.432-.503 2.112-.898 1.217-.707 2.233-1.658 2.957-2.748.108.077.192.156.253.237.192.253.189.566.164 1.141-.011.247-.023.526-.013.839.028.843.418.989.648 1.001l.028.001c.89 0 1.816-2.126 1.964-3.256.152-1.157-.955-1.896-2.013-2.332zm-2.558 1.738c-.38.505-.85.98-1.399 1.399l-.473-.616.066-.112 1.056-2.741c.03-.078.035-.162.017-.241l1.549-.235c.116-.018.217-.088.279-.187-.011.172-.033.345-.067.52-.051.263-.128.527-.229.791-.091.237-.202.474-.331.707-.136.243-.292.483-.467.715zm-2.219 1.949c-.655.38-1.34.654-2.029.815-.195.046-.39.083-.585.111-.286.04-.571.061-.853.061l-.088-.002.616-1.599.143.028.059-.004 2.281-.347.07.141.541.703-.153.092zm-1.209-8.17c.234-.027.467-.041.699-.041l.138.003.343.019-.511 1.329c-.064-.026-.134-.035-.204-.024l-2.606.396-.566-.77c.872-.496 1.795-.805 2.708-.912zm4.383 1.236l.103.133-.588 1.529-1.584.24-.994-1.288.449-1.166.139-.363.461-.07.029-.005 1.093-.165.891 1.154zm-3.42 5.135l-2.381.362-1.496-1.938.886-2.3 2.382-.362 1.496 1.937-.886 2.3zm-6.856.629l.482-1.252 1.867-.284 1.173 1.519-.694 1.803-.795.121-1.072.163-1.173-1.519.212-.55zm1.4-4.691c.328-.349.697-.671 1.103-.96l.618.841-.952 2.471-2.033.309c-.102.016-.193.071-.255.153.062-.324.163-.653.305-.985.203-.476.477-.933.81-1.359.126-.161.261-.317.403-.468zm10.333-2.539c.108-.063.246-.094.409-.094.352 0 .727.141.957.246-.051.412-.206 1.062-.579 1.279-.246.142-.508.218-.761.218l-.083-.004c-.072-.179-.154-.354-.248-.524-.093-.17-.197-.331-.31-.486.123-.248.343-.477.614-.634zm-6.132-3.239c-.208-.116-.423-.236-.653-.388l-.062-.043c.501-.109 1.695-.055 2.551.324.559.248.555 1.192.452 1.941l-.011.075c-.301-.059-.611-.097-.93-.113-.044-.999-.575-1.365-1.348-1.796zm-8.483 5.218c-.193.08-.393.163-.62.238.247-.423.898-1.17 1.64-1.561.506-.267 1.228.373 1.802 1.09-.161.192-.312.389-.453.592-.885-.897-1.503-.719-2.369-.36zm1.543 7.219l-.444.228c.093-.368.299-.696.606-.921.09.159.19.312.297.459l-.46.234zm6.31 3.869c-.708.451-1.663.639-2.145.639h-.003c.18-.161.352-.295.518-.423.748-.577 1.215-1.031.919-2.278.242-.02.485-.051.727-.094.305.877.469 1.847-.017 2.157zm8.127-6.13c-.124.949-.695 2.028-1.044 2.413l-.004-.077c-.009-.28.002-.532.012-.775.039-.902.008-1.558-.804-2.112.089-.169.171-.341.246-.516l.141-.36.067.028c.677.296 1.467.778 1.386 1.399zM23.589 86.869c-.119-.091-.286-.106-.418-.038l-.061.039c-.101.077-.16.199-.16.329 0 .082.024.16.066.227l.043.056.051.046c.068.053.152.082.24.082l.178-.043.075-.05.065-.069.068-.143c.029-.114.01-.236-.054-.334l-.094-.102M7.192 98.868c-.119-.091-.286-.106-.418-.038l-.061.039c-.101.078-.16.199-.16.329 0 .082.023.16.066.227l.043.055.051.046c.068.052.152.082.24.082l.178-.043.075-.05.065-.07.068-.142c.03-.114.01-.236-.053-.334l-.094-.102M6.64 97.19l.066-.071.068-.143c.029-.113.01-.234-.053-.332-.074-.115-.2-.184-.334-.184-.087 0-.172.029-.24.083-.17.13-.211.375-.093.556.074.115.199.183.333.183l.178-.043.075-.049M24.231 85.533c-.087 0-.172.029-.24.082-.169.131-.211.374-.094.556.074.115.2.184.334.184l.178-.043.075-.05.066-.071.068-.143c.029-.113.01-.235-.054-.333-.074-.114-.199-.183-.333-.183M23.111 84.184c-.093.071-.151.181-.159.3l.005.098.072.174.04.048.106.076.177.045c.087 0 .172-.03.242-.084l.04-.036c.076-.077.119-.183.119-.293 0-.156-.086-.299-.222-.368-.112-.057-.248-.056-.359.002l-.059.038M7.186 97.425l-.167.075c-.156.119-.205.337-.118.515.039.079.101.143.178.182l.179.044.178-.043.063-.04c.081-.063.137-.157.154-.262.02-.131-.021-.263-.112-.356-.093-.096-.226-.138-.356-.114"/><path d="M23.83 83.553c.105.111.254.176.407.176.121 0 .238-.041.332-.115.109-.082.181-.202.205-.341.026-.155-.013-.319-.108-.449l-.052-.059c-.104-.096-.245-.152-.389-.152-.112 0-.22.033-.312.095l-.033.025c-.222.187-.26.537-.083.78l.033.04zm.246-.18l.153-.173.124.194c-.085.058-.199.051-.277-.021zm.317-.01l-.065-.078.038.06-.125-.158.04-.045.156-.12c.088.12.043.263-.044.342zm-.408-.231c.011-.069.048-.131.101-.175l.15-.051c.08 0 .136.041.167.075l-.182.181-.089-.111.078.121-.186.142c-.037-.05-.051-.115-.039-.182zM6.027 94.707c.097.086.221.134.351.134.155 0 .305-.066.411-.181l.032-.04c.167-.233.135-.568-.067-.758-.097-.097-.225-.15-.362-.15-.153 0-.303.067-.412.184l-.048.063c-.138.224-.112.526.064.719l.029.029zm.581-.307l-.191-.125.165-.159c.055.061.096.172.027.284zm-.063-.319l-.064.079.051-.049-.13.154-.051-.033-.141-.138c.086-.093.236-.096.336-.013zm-.368.053l.204.154-.092.109.103-.099.169.165c-.086.092-.252.09-.352-.002-.079-.079-.114-.211-.031-.326zM21.841 82.496c.16.17.398.272.636.272.187 0 .365-.063.504-.178.161-.118.268-.294.303-.498.04-.24-.023-.496-.172-.703l-.052-.059c-.163-.151-.388-.238-.617-.238-.176 0-.345.051-.488.148l-.033.025c-.335.282-.387.816-.114 1.191l.033.04zm.651-.574l.004.016-.009.008-.05-.008-.004-.024.058.008zM8.061 86.514c.062.037.131.055.2.055l.2-.055 1.292-.766c.624.579 1.441.905 2.288.905.956 0 1.874-.416 2.52-1.14.139-.157.139-.397 0-.554-.646-.725-1.564-1.141-2.52-1.141-.847 0-1.664.327-2.288.905l-1.292-.766c-.124-.073-.276-.073-.4 0s-.2.209-.2.356v1.845c0 .147.076.282.2.356zm3.98-1.875c.6 0 1.18.214 1.642.596-.462.382-1.042.596-1.642.596-.599 0-1.18-.214-1.642-.596.462-.383 1.043-.596 1.642-.596zm-3.38.385l.356.211-.356.211v-.422zM8.886 88.454c.14-.157.14-.398 0-.554-.467-.524-1.131-.825-1.822-.825-.581 0-1.143.213-1.585.593l-.809-.48c-.124-.073-.277-.073-.4 0s-.2.209-.2.355v1.267c0 .147.077.282.2.355.062.037.131.055.2.055l.2-.055.809-.48c.442.379 1.004.593 1.585.593.691 0 1.355-.3 1.822-.824zm-1.822-.558c.326 0 .645.099.914.28-.269.181-.587.28-.914.28-.327 0-.644-.099-.914-.28.27-.181.587-.28.914-.28zM22.568 100.32c-.581 0-1.143.214-1.585.594l-.809-.481c-.124-.073-.277-.073-.4 0-.124.074-.2.209-.2.356v1.267c0 .147.076.282.2.356.062.037.131.055.2.055l.2-.055.809-.48c.442.379 1.004.593 1.585.593.691 0 1.355-.3 1.822-.824.14-.157.14-.398 0-.554-.467-.524-1.131-.825-1.822-.825zm0 1.383c-.327 0-.644-.1-.914-.28.27-.181.587-.281.914-.281.326 0 .644.1.914.281-.27.181-.587.28-.914.28z"/></g></g></svg>