<svg width="32" height="232" viewBox="0 0 32 232" xmlns="http://www.w3.org/2000/svg" xmlns:sketch="http://www.bohemiancoding.com/sketch/ns"><title>Brazil</title><g sketch:type="MSLayerGroup" fill="none"><g fill="#373D43" sketch:type="MSShapeGroup"><path d="M29.17 53.951c.047-.169-.016-.349-.155-.45-.542-.393-1.141-.653-1.787-.777.386-.201.755-.354 1.088-.435.165-.04.287-.185.304-.359.017-.175-.074-.341-.228-.415-.608-.293-1.258-.441-1.931-.441-.419 0-.846.058-1.276.173.617-.695 1.249-1.293 1.822-1.609.149-.082.232-.254.206-.427-.027-.173-.157-.31-.324-.34-.268-.05-.54-.075-.808-.075-.687 0-1.367.167-2.022.487.392-.689.809-1.291 1.23-1.676.127-.116.168-.303.104-.465-.065-.162-.223-.264-.391-.254-2.019.118-3.692 1.549-4.713 4.029-.582 1.416-1.417 3.311-2.304 4.436-.887-1.125-1.721-3.02-2.304-4.436-1.021-2.481-2.694-3.911-4.713-4.029-.168-.01-.326.092-.391.254s-.023.348.104.465c.42.385.837.987 1.229 1.676-.655-.32-1.336-.487-2.022-.487-.268 0-.54.025-.808.075-.167.031-.297.168-.323.34-.027.173.056.345.205.427.572.317 1.204.915 1.822 1.609-.43-.114-.857-.173-1.276-.173-.673 0-1.322.148-1.931.441-.154.074-.245.241-.228.415.017.174.139.318.304.359.333.082.702.234 1.088.435-.647.124-1.245.384-1.787.777-.139.1-.2.281-.154.45.046.168.191.288.36.298.467.027 1.022.174 1.611.39l-1.228.209c-.14.024-.266.085-.369.172l-1.184-1.862c-.49-.771-1.496-.987-2.242-.48-.37.251-.626.653-.704 1.103-.039.223.105.437.321.477.217.04.423-.109.462-.332.04-.232.167-.431.358-.56.379-.257.889-.148 1.138.244l1.499 2.358-.141.041-2.496-.882c-.409-.145-.848-.117-1.236.08-.388.196-.679.537-.819.96-.143.433-.108.913.098 1.318.071.14.21.22.353.22l.185-.047c.195-.106.27-.355.167-.556-.106-.209-.123-.446-.049-.669.071-.214.219-.388.416-.488.197-.1.42-.114.628-.04l1.481.524c-.551.209-1.057.451-1.292.695-.696.719-.696 1.889 0 2.607.337.348.785.54 1.262.54s.925-.192 1.262-.54l.182-.242v6.303c0 .227.178.411.399.411.22 0 .398-.184.398-.411v-4.614c.891 2.135 2.948 3.633 5.338 3.633l.166-.018 2.214-.487 2.159 1.486c.133.092.288.138.441.138.156 0 .311-.047.446-.141l2.13-1.485 2.342.491.158.016c3.191 0 5.791-2.672 5.81-5.965l.268-3.112c.037-.429-.253-.815-.664-.885l-1.228-.209c.589-.215 1.144-.362 1.611-.39.169-.011.314-.13.36-.298zm-1.937 4.783l-.003.073c0 2.376-1.85 4.314-4.14 4.356l-2.588-.542c-.209-.044-.427.001-.604.125l-1.964 1.369-1.993-1.372c-.132-.091-.286-.138-.442-.138l-.166.018-2.457.54c-2.288-.044-4.136-1.981-4.136-4.356l-.003-.073-.205-2.386 2.863-.487.65-.111.642-.109.093-.016.109-.019 2.619.929.982.349.238.084.46.163.412.146c.164.058.341.059.506.004l.562-.19.409-.137.279-.095.95-.321.282-.095.96-.323 1.527-.515.116.019.093.016.642.109.65.111 2.863.487-.205 2.386zm-12.285-7.495c.35.852.679 1.594.992 2.237-.499-.616-.971-1.258-1.37-1.816-.394-.551-.819-1.028-1.266-1.427-.453-.954-.873-1.705-1.278-2.285 1.213.471 2.228 1.603 2.923 3.291zm8.996-3.291c-.405.58-.825 1.331-1.279 2.285-.447.398-.871.875-1.266 1.427-.399.559-.871 1.2-1.37 1.817.313-.644.642-1.386.992-2.238.694-1.687 1.709-2.82 2.923-3.291zm1.778 4.726c-.705.078-1.432.291-2.175.638-.214.1-.43.212-.648.335l-.158.089-.803.441c.304-.239.621-.495.955-.771l.211-.169c.329-.257.662-.477.995-.662.983-.545 1.965-.769 2.877-.641-.382.191-.797.437-1.254.741zm-3.271.043l-.057.046-.682.556c-.311.249-.639.504-.975.752l-.381.276c.341-.406.705-.869 1.094-1.39l.59-.808c.153-.214.311-.414.471-.602.259-.305.527-.575.802-.809.729-.62 1.508-.989 2.311-1.09-.601.534-1.271 1.283-2.047 2.285-.379.221-.755.483-1.126.785zm-8.994-1.171c.16.188.318.388.471.602l.59.808c.389.521.752.984 1.094 1.391l-.38-.276c-.336-.248-.664-.503-.975-.752l-.682-.556-.057-.046c-.371-.302-.747-.565-1.125-.785-.777-1.002-1.447-1.75-2.047-2.285.803.101 1.582.471 2.311 1.09.275.234.543.505.802.809zm-.592 1.691l.21.168c.334.277.652.533.955.771l-.803-.441-.157-.089c-.217-.123-.433-.234-.648-.334-.743-.348-1.471-.561-2.175-.638-.457-.304-.873-.549-1.254-.741.912-.128 1.895.096 2.878.642.332.184.665.405.995.662zm-2.887.239c.3.021.606.072.918.152.396.101.802.249 1.215.443l-.518.088-.544.093-.774.131c-.705-.329-1.319-.568-1.858-.726.388-.128.8-.193 1.234-.193l.327.013zm14.94.775l-.544-.093-.518-.088c.413-.194.818-.342 1.215-.443.312-.08.618-.131.918-.152l.326-.013c.434 0 .847.065 1.234.193-.538.158-1.152.398-1.858.726l-.774-.132zm-18.843 4.897c-.187.193-.435.299-.698.299-.264 0-.513-.106-.699-.299-.385-.398-.385-1.045 0-1.443.229-.237 1.118-.569 1.984-.833l.159.057v.38c-.244.823-.534 1.621-.745 1.84z" id="Fill-1"/><path d="M22.65 57.629c-.159 0-.32.012-.478.035-1.029.151-1.929.788-2.446 1.702-.218.253-.397.545-.523.868-.053.137-.032.292.056.408.554.729 1.384 1.147 2.278 1.147.136 0 .274-.01.41-.03.271-.04.531-.12.774-.233 1.183-.18 2.194-1.003 2.642-2.151.054-.136.032-.292-.056-.408-.646-.851-1.616-1.339-2.658-1.339zm-2.275 2.223c.321-.346.749-.58 1.22-.649l.298-.021c.558 0 1.101.239 1.493.648-.203.386-.516.698-.889.897-.205.109-.429.185-.663.219-.657.096-1.33-.144-1.791-.626.09-.172.203-.328.331-.467zm3.879-.127c-.006-.079-.034-.156-.083-.22-.401-.528-.947-.891-1.555-1.052l.034-.001c.706 0 1.391.309 1.876.838-.077.155-.169.3-.272.435z" id="Fill-2"/><path d="M16.149 59.322c-.495-.853-1.329-1.463-2.293-1.645-.202-.038-.407-.057-.611-.057-.99 0-1.928.449-2.573 1.232-.092.112-.12.267-.072.405.406 1.172 1.393 2.038 2.576 2.262l.109.018c.209.097.429.169.659.213.173.032.349.049.523.049.848 0 1.652-.385 2.205-1.056.092-.112.12-.267.072-.406-.133-.382-.338-.726-.596-1.015zm-2.061 1.618c-.204-.039-.399-.108-.579-.204-.4-.212-.728-.553-.93-.975.388-.376.899-.587 1.434-.587.126 0 .255.012.38.036.428.08.814.298 1.113.608.159.166.293.357.395.57-.388.376-.899.587-1.434.587-.126 0-.254-.012-.379-.036zm-2.648-1.734c.482-.488 1.128-.763 1.805-.763l.056.002c-.575.151-1.098.483-1.492.962-.063.076-.095.173-.094.27-.106-.146-.198-.304-.274-.471z" id="Fill-3"/><path d="M25.869 57.998c.13.134.311.211.499.211.146 0 .285-.045.406-.135.286-.216.339-.652.119-.971l-.034-.042c-.117-.13-.295-.204-.488-.204-.154 0-.302.049-.419.137-.133.099-.222.245-.25.413-.03.183.015.379.124.538l.043.053zm.617-.452l-.068.114-.048.02-.094-.056.041-.039.158-.116.011.077zm-.18-.138l.061-.022.065.03-.09.093-.099.073c-.037-.054.01-.134.063-.174z" id="Fill-4"/><path d="M24.812 57.089c.074.115.199.185.332.185.086 0 .169-.029.238-.082.093-.072.151-.182.16-.301.008-.12-.034-.237-.117-.321l-.04-.036c-.138-.108-.34-.108-.479-.002-.155.12-.205.338-.118.516l.023.041" id="Fill-5"/><path d="M9.942 56.994c-.117-.088-.266-.137-.419-.137-.193 0-.37.074-.488.204l-.034.043c-.22.319-.167.754.123.974.117.087.256.131.401.131.187 0 .369-.077.499-.211l.043-.053c.109-.159.155-.355.124-.538-.028-.168-.117-.315-.25-.413zm-.419.686l-.048-.02-.068-.114.011-.077.157.115.041.04-.094.056zm.127-.099l-.1-.074-.089-.092c.023-.023.074-.046.13-.005.049.037.096.117.059.171z" id="Fill-6"/><path d="M11.029 57.154l.02-.021.032-.043c.048-.075.072-.165.065-.256-.008-.118-.066-.228-.157-.3-.069-.054-.154-.083-.241-.083-.106 0-.207.044-.281.12l-.019.021-.032.043c-.048.075-.071.165-.065.256.008.118.065.228.157.299.069.054.154.084.241.084.106 0 .207-.044.281-.12" id="Fill-7"/></g><g fill="#67737B" sketch:type="MSShapeGroup"><path d="M29.17 93.951c.047-.169-.016-.349-.155-.45-.542-.393-1.141-.653-1.787-.777.386-.201.755-.354 1.088-.435.165-.04.287-.185.304-.359.017-.175-.074-.341-.228-.415-.608-.293-1.258-.441-1.931-.441-.419 0-.846.058-1.276.173.617-.695 1.249-1.293 1.822-1.609.149-.082.232-.254.206-.427-.027-.173-.157-.31-.324-.34-.268-.05-.54-.075-.808-.075-.687 0-1.367.167-2.022.487.392-.689.809-1.291 1.23-1.676.127-.116.168-.303.104-.465-.065-.162-.223-.264-.391-.254-2.019.118-3.692 1.549-4.713 4.029-.582 1.416-1.417 3.311-2.304 4.436-.887-1.125-1.721-3.02-2.304-4.436-1.021-2.481-2.694-3.911-4.713-4.029-.168-.01-.326.092-.391.254s-.023.348.104.465c.42.385.837.987 1.229 1.676-.655-.32-1.336-.487-2.022-.487-.268 0-.54.025-.808.075-.167.031-.297.168-.323.34-.027.173.056.345.205.427.572.317 1.204.915 1.822 1.609-.43-.114-.857-.173-1.276-.173-.673 0-1.322.148-1.931.441-.154.074-.245.241-.228.415.017.174.139.318.304.359.333.082.702.234 1.088.435-.647.124-1.245.384-1.787.777-.139.1-.2.281-.154.45.046.168.191.288.36.298.467.027 1.022.174 1.611.39l-1.228.209c-.14.024-.266.085-.369.172l-1.184-1.862c-.49-.771-1.496-.987-2.242-.48-.37.251-.626.653-.704 1.103-.039.223.105.437.321.477.217.04.423-.109.462-.332.04-.232.167-.431.358-.56.379-.257.889-.148 1.138.244l1.499 2.358-.141.041-2.496-.882c-.409-.145-.848-.117-1.236.08-.388.196-.679.537-.819.96-.143.433-.108.913.098 1.318.071.14.21.22.353.22l.185-.047c.195-.106.27-.355.167-.556-.106-.209-.123-.446-.049-.669.071-.214.219-.388.416-.488.197-.1.42-.114.628-.04l1.481.524c-.551.209-1.057.451-1.292.695-.696.719-.696 1.889 0 2.607.337.348.785.54 1.262.54s.925-.192 1.262-.54l.182-.242v6.303c0 .227.178.411.399.411.22 0 .398-.184.398-.411v-4.614c.891 2.135 2.948 3.633 5.338 3.633l.166-.018 2.214-.487 2.159 1.486c.133.092.288.138.441.138.156 0 .311-.047.446-.141l2.13-1.485 2.342.491.158.016c3.191 0 5.791-2.672 5.81-5.965l.268-3.112c.037-.429-.253-.815-.664-.885l-1.228-.209c.589-.215 1.144-.362 1.611-.39.169-.011.314-.13.36-.298zm-1.937 4.783l-.003.073c0 2.376-1.85 4.314-4.14 4.356l-2.588-.542c-.209-.044-.427.001-.604.125l-1.964 1.369-1.993-1.372c-.132-.091-.286-.138-.442-.138l-.166.018-2.457.54c-2.288-.044-4.136-1.981-4.136-4.356l-.003-.073-.205-2.386 2.863-.487.65-.111.642-.109.093-.016.109-.019 2.619.929.982.349.238.084.46.163.412.146c.164.058.341.059.506.004l.562-.19.409-.137.279-.095.95-.321.282-.095.96-.323 1.527-.515.116.019.093.016.642.109.65.111 2.863.487-.205 2.386zm-12.285-7.495c.35.852.679 1.594.992 2.237-.499-.616-.971-1.258-1.37-1.816-.394-.551-.819-1.028-1.266-1.427-.453-.954-.873-1.705-1.278-2.285 1.213.471 2.228 1.603 2.923 3.291zm8.996-3.291c-.405.58-.825 1.331-1.279 2.285-.447.398-.871.875-1.266 1.427-.399.559-.871 1.2-1.37 1.817.313-.644.642-1.386.992-2.238.694-1.687 1.709-2.82 2.923-3.291zm1.778 4.726c-.705.078-1.432.291-2.175.638-.214.1-.43.212-.648.335l-.158.089-.803.441c.304-.239.621-.495.955-.771l.211-.169c.329-.257.662-.477.995-.662.983-.545 1.965-.769 2.877-.641-.382.191-.797.437-1.254.741zm-3.271.043l-.057.046-.682.556c-.311.249-.639.504-.975.752l-.381.276c.341-.406.705-.869 1.094-1.39l.59-.808c.153-.214.311-.414.471-.602.259-.305.527-.575.802-.809.729-.62 1.508-.989 2.311-1.09-.601.534-1.271 1.283-2.047 2.285-.379.221-.755.483-1.126.785zm-8.994-1.171c.16.188.318.388.471.602l.59.808c.389.521.752.984 1.094 1.391l-.38-.276c-.336-.248-.664-.503-.975-.752l-.682-.556-.057-.046c-.371-.302-.747-.565-1.125-.785-.777-1.002-1.447-1.75-2.047-2.285.803.101 1.582.471 2.311 1.09.275.234.543.505.802.809zm-.592 1.691l.21.168c.334.277.652.533.955.771l-.803-.441-.157-.089c-.217-.123-.433-.234-.648-.334-.743-.348-1.471-.561-2.175-.638-.457-.304-.873-.549-1.254-.741.912-.128 1.895.096 2.878.642.332.184.665.405.995.662zm-2.887.239c.3.021.606.072.918.152.396.101.802.249 1.215.443l-.518.088-.544.093-.774.131c-.705-.329-1.319-.568-1.858-.726.388-.128.8-.193 1.234-.193l.327.013zm14.94.775l-.544-.093-.518-.088c.413-.194.818-.342 1.215-.443.312-.08.618-.131.918-.152l.326-.013c.434 0 .847.065 1.234.193-.538.158-1.152.398-1.858.726l-.774-.132zm-18.843 4.897c-.187.193-.435.299-.698.299-.264 0-.513-.106-.699-.299-.385-.398-.385-1.045 0-1.443.229-.237 1.118-.569 1.984-.833l.159.057v.38c-.244.823-.534 1.621-.745 1.84z" id="Fill-1"/><path d="M22.65 97.629c-.159 0-.32.012-.478.035-1.029.151-1.929.788-2.446 1.702-.218.253-.397.545-.523.868-.053.137-.032.292.056.408.554.729 1.384 1.147 2.278 1.147.136 0 .274-.01.41-.03.271-.04.531-.12.774-.233 1.183-.18 2.194-1.003 2.642-2.151.054-.136.032-.292-.056-.408-.646-.851-1.616-1.339-2.658-1.339zm-2.275 2.223c.321-.346.749-.58 1.22-.649l.298-.021c.558 0 1.101.239 1.493.648-.203.386-.516.698-.889.897-.205.109-.429.185-.663.219-.657.096-1.33-.144-1.791-.626.09-.172.203-.328.331-.467zm3.879-.127c-.006-.079-.034-.156-.083-.22-.401-.528-.947-.891-1.555-1.052l.034-.001c.706 0 1.391.309 1.876.838-.077.155-.169.3-.272.435z" id="Fill-2"/><path d="M16.149 99.322c-.495-.853-1.329-1.463-2.293-1.645-.202-.038-.407-.057-.611-.057-.99 0-1.928.449-2.573 1.232-.092.112-.12.267-.072.405.406 1.172 1.393 2.038 2.576 2.262l.109.018c.209.097.429.169.659.213.173.032.349.049.523.049.848 0 1.652-.385 2.205-1.056.092-.112.12-.267.072-.406-.133-.382-.338-.726-.596-1.015zm-2.061 1.618c-.204-.039-.399-.108-.579-.204-.4-.212-.728-.553-.93-.975.388-.376.899-.587 1.434-.587.126 0 .255.012.38.036.428.08.814.298 1.113.608.159.166.293.357.395.57-.388.376-.899.587-1.434.587-.126 0-.254-.012-.379-.036zm-2.648-1.734c.482-.488 1.128-.763 1.805-.763l.056.002c-.575.151-1.098.483-1.492.962-.063.076-.095.173-.094.27-.106-.146-.198-.304-.274-.471z" id="Fill-3"/><path d="M25.869 97.998c.13.134.311.211.499.211.146 0 .285-.045.406-.135.286-.216.339-.652.119-.971l-.034-.042c-.117-.13-.295-.204-.488-.204-.154 0-.302.049-.419.137-.133.099-.222.245-.25.413-.03.183.015.379.124.538l.043.053zm.617-.452l-.068.114-.048.02-.094-.056.041-.039.158-.116.011.077zm-.18-.138l.061-.022.065.03-.09.093-.099.073c-.037-.054.01-.134.063-.174z" id="Fill-4"/><path d="M24.812 97.089c.074.115.199.185.332.185.086 0 .169-.029.238-.082.093-.072.151-.182.16-.301.008-.12-.034-.237-.117-.321l-.04-.036c-.138-.108-.34-.108-.479-.002-.155.12-.205.338-.118.516l.023.041" id="Fill-5"/><path d="M9.942 96.994c-.117-.088-.266-.137-.419-.137-.193 0-.37.074-.488.204l-.034.043c-.22.319-.167.754.123.974.117.087.256.131.401.131.187 0 .369-.077.499-.211l.043-.053c.109-.159.155-.355.124-.538-.028-.168-.117-.315-.25-.413zm-.419.686l-.048-.02-.068-.114.011-.077.157.115.041.04-.094.056zm.127-.099l-.1-.074-.089-.092c.023-.023.074-.046.13-.005.049.037.096.117.059.171z" id="Fill-6"/><path d="M11.029 97.154l.02-.021.032-.043c.048-.075.072-.165.065-.256-.008-.118-.066-.228-.157-.3-.069-.054-.154-.083-.241-.083-.106 0-.207.044-.281.12l-.019.021-.032.043c-.048.075-.071.165-.065.256.008.118.065.228.157.299.069.054.154.084.241.084.106 0 .207-.044.281-.12" id="Fill-7"/></g><g fill="#206FAC" sketch:type="MSShapeGroup"><path d="M29.17 133.951c.047-.169-.016-.349-.155-.45-.542-.393-1.141-.653-1.787-.777.386-.201.755-.354 1.088-.435.165-.04.287-.185.304-.359.017-.175-.074-.341-.228-.415-.608-.293-1.258-.441-1.931-.441-.419 0-.846.058-1.276.173.617-.695 1.249-1.293 1.822-1.609.149-.082.232-.254.206-.427-.027-.173-.157-.31-.324-.34-.268-.05-.54-.075-.808-.075-.687 0-1.367.167-2.022.487.392-.689.809-1.291 1.23-1.676.127-.116.168-.303.104-.465-.065-.162-.223-.264-.391-.254-2.019.118-3.692 1.549-4.713 4.029-.582 1.416-1.417 3.311-2.304 4.436-.887-1.125-1.721-3.02-2.304-4.436-1.021-2.481-2.694-3.911-4.713-4.029-.168-.01-.326.092-.391.254s-.023.348.104.465c.42.385.837.987 1.229 1.676-.655-.32-1.336-.487-2.022-.487-.268 0-.54.025-.808.075-.167.031-.297.168-.323.34-.027.173.056.345.205.427.572.317 1.204.915 1.822 1.609-.43-.114-.857-.173-1.276-.173-.673 0-1.322.148-1.931.441-.154.074-.245.241-.228.415.017.174.139.318.304.359.333.082.702.234 1.088.435-.647.124-1.245.384-1.787.777-.139.1-.2.281-.154.45.046.168.191.288.36.298.467.027 1.022.174 1.611.39l-1.228.209c-.14.024-.266.085-.369.172l-1.184-1.862c-.49-.771-1.496-.987-2.242-.48-.37.251-.626.653-.704 1.103-.039.223.105.437.321.477.217.04.423-.109.462-.332.04-.232.167-.431.358-.56.379-.257.889-.148 1.138.244l1.499 2.358-.141.041-2.496-.882c-.409-.145-.848-.117-1.236.08-.388.196-.679.537-.819.96-.143.433-.108.913.098 1.318.071.14.21.22.353.22l.185-.047c.195-.106.27-.355.167-.556-.106-.209-.123-.446-.049-.669.071-.214.219-.388.416-.488.197-.1.42-.114.628-.04l1.481.524c-.551.209-1.057.451-1.292.695-.696.719-.696 1.889 0 2.607.337.348.785.54 1.262.54s.925-.192 1.262-.54l.182-.242v6.303c0 .227.178.411.399.411.22 0 .398-.184.398-.411v-4.614c.891 2.135 2.948 3.633 5.338 3.633l.166-.018 2.214-.487 2.159 1.486c.133.092.288.138.441.138.156 0 .311-.047.446-.141l2.13-1.485 2.342.491.158.016c3.191 0 5.791-2.672 5.81-5.965l.268-3.112c.037-.429-.253-.815-.664-.885l-1.228-.209c.589-.215 1.144-.362 1.611-.39.169-.011.314-.13.36-.298zm-1.937 4.783l-.003.073c0 2.376-1.85 4.314-4.14 4.356l-2.588-.542c-.209-.044-.427.001-.604.125l-1.964 1.369-1.993-1.372c-.132-.091-.286-.138-.442-.138l-.166.018-2.457.54c-2.288-.044-4.136-1.981-4.136-4.356l-.003-.073-.205-2.386 2.863-.487.65-.111.642-.109.093-.016.109-.019 2.619.929.982.349.238.084.46.163.412.146c.164.058.341.059.506.004l.562-.19.409-.137.279-.095.95-.321.282-.095.96-.323 1.527-.515.116.019.093.016.642.109.65.111 2.863.487-.205 2.386zm-12.285-7.495c.35.852.679 1.594.992 2.237-.499-.616-.971-1.258-1.37-1.816-.394-.551-.819-1.028-1.266-1.427-.453-.954-.873-1.705-1.278-2.285 1.213.471 2.228 1.603 2.923 3.291zm8.996-3.291c-.405.58-.825 1.331-1.279 2.285-.447.398-.871.875-1.266 1.427-.399.559-.871 1.2-1.37 1.817.313-.644.642-1.386.992-2.238.694-1.687 1.709-2.82 2.923-3.291zm1.778 4.726c-.705.078-1.432.291-2.175.638-.214.1-.43.212-.648.335l-.158.089-.803.441c.304-.239.621-.495.955-.771l.211-.169c.329-.257.662-.477.995-.662.983-.545 1.965-.769 2.877-.641-.382.191-.797.437-1.254.741zm-3.271.043l-.057.046-.682.556c-.311.249-.639.504-.975.752l-.381.276c.341-.406.705-.869 1.094-1.39l.59-.808c.153-.214.311-.414.471-.602.259-.305.527-.575.802-.809.729-.62 1.508-.989 2.311-1.09-.601.534-1.271 1.283-2.047 2.285-.379.221-.755.483-1.126.785zm-8.994-1.171c.16.188.318.388.471.602l.59.808c.389.521.752.984 1.094 1.391l-.38-.276c-.336-.248-.664-.503-.975-.752l-.682-.556-.057-.046c-.371-.302-.747-.565-1.125-.785-.777-1.002-1.447-1.75-2.047-2.285.803.101 1.582.471 2.311 1.09.275.234.543.505.802.809zm-.592 1.691l.21.168c.334.277.652.533.955.771l-.803-.441-.157-.089c-.217-.123-.433-.234-.648-.334-.743-.348-1.471-.561-2.175-.638-.457-.304-.873-.549-1.254-.741.912-.128 1.895.096 2.878.642.332.184.665.405.995.662zm-2.887.239c.3.021.606.072.918.152.396.101.802.249 1.215.443l-.518.088-.544.093-.774.131c-.705-.329-1.319-.568-1.858-.726.388-.128.8-.193 1.234-.193l.327.013zm14.94.775l-.544-.093-.518-.088c.413-.194.818-.342 1.215-.443.312-.08.618-.131.918-.152l.326-.013c.434 0 .847.065 1.234.193-.538.158-1.152.398-1.858.726l-.774-.132zm-18.843 4.897c-.187.193-.435.299-.698.299-.264 0-.513-.106-.699-.299-.385-.398-.385-1.045 0-1.443.229-.237 1.118-.569 1.984-.833l.159.057v.38c-.244.823-.534 1.621-.745 1.84z"/><path d="M22.65 137.629c-.159 0-.32.012-.478.035-1.029.151-1.929.788-2.446 1.702-.218.253-.397.545-.523.868-.053.137-.032.292.056.408.554.729 1.384 1.147 2.278 1.147.136 0 .274-.01.41-.03.271-.04.531-.12.774-.233 1.183-.18 2.194-1.003 2.642-2.151.054-.136.032-.292-.056-.408-.646-.851-1.616-1.339-2.658-1.339zm-2.275 2.223c.321-.346.749-.58 1.22-.649l.298-.021c.558 0 1.101.239 1.493.648-.203.386-.516.698-.889.897-.205.109-.429.185-.663.219-.657.096-1.33-.144-1.791-.626.09-.172.203-.328.331-.467zm3.879-.127c-.006-.079-.034-.156-.083-.22-.401-.528-.947-.891-1.555-1.052l.034-.001c.706 0 1.391.309 1.876.838-.077.155-.169.3-.272.435z"/><path d="M16.149 139.322c-.495-.853-1.329-1.463-2.293-1.645-.202-.038-.407-.057-.611-.057-.99 0-1.928.449-2.573 1.232-.092.112-.12.267-.072.405.406 1.172 1.393 2.038 2.576 2.262l.109.018c.209.097.429.169.659.213.173.032.349.049.523.049.848 0 1.652-.385 2.205-1.056.092-.112.12-.267.072-.406-.133-.382-.338-.726-.596-1.015zm-2.061 1.618c-.204-.039-.399-.108-.579-.204-.4-.212-.728-.553-.93-.975.388-.376.899-.587 1.434-.587.126 0 .255.012.38.036.428.08.814.298 1.113.608.159.166.293.357.395.57-.388.376-.899.587-1.434.587-.126 0-.254-.012-.379-.036zm-2.648-1.734c.482-.488 1.128-.763 1.805-.763l.056.002c-.575.151-1.098.483-1.492.962-.063.076-.095.173-.094.27-.106-.146-.198-.304-.274-.471z"/><path d="M25.869 137.998c.13.134.311.211.499.211.146 0 .285-.045.406-.135.286-.216.339-.652.119-.971l-.034-.042c-.117-.13-.295-.204-.488-.204-.154 0-.302.049-.419.137-.133.099-.222.245-.25.413-.03.183.015.379.124.538l.043.053zm.617-.452l-.068.114-.048.02-.094-.056.041-.039.158-.116.011.077zm-.18-.138l.061-.022.065.03-.09.093-.099.073c-.037-.054.01-.134.063-.174z"/><path d="M24.812 137.089c.074.115.199.185.332.185.086 0 .169-.029.238-.082.093-.072.151-.182.16-.301.008-.12-.034-.237-.117-.321l-.04-.036c-.138-.108-.34-.108-.479-.002-.155.12-.205.338-.118.516l.023.041"/><path d="M9.942 136.994c-.117-.088-.266-.137-.419-.137-.193 0-.37.074-.488.204l-.034.043c-.22.319-.167.754.123.974.117.087.256.131.401.131.187 0 .369-.077.499-.211l.043-.053c.109-.159.155-.355.124-.538-.028-.168-.117-.315-.25-.413zm-.419.686l-.048-.02-.068-.114.011-.077.157.115.041.04-.094.056zm.127-.099l-.1-.074-.089-.092c.023-.023.074-.046.13-.005.049.037.096.117.059.171z"/><path d="M11.029 137.154l.02-.021.032-.043c.048-.075.072-.165.065-.256-.008-.118-.066-.228-.157-.3-.069-.054-.154-.083-.241-.083-.106 0-.207.044-.281.12l-.019.021-.032.043c-.048.075-.071.165-.065.256.008.118.065.228.157.299.069.054.154.084.241.084.106 0 .207-.044.281-.12"/></g><g fill="#fff" sketch:type="MSShapeGroup"><path d="M29.17 13.951c.047-.169-.016-.349-.155-.45-.542-.393-1.141-.653-1.787-.777.386-.201.755-.354 1.088-.435.165-.04.287-.185.304-.359.017-.175-.074-.341-.228-.415-.608-.293-1.258-.441-1.931-.441-.419 0-.846.058-1.276.173.617-.695 1.249-1.293 1.822-1.609.149-.082.232-.254.206-.427-.027-.173-.157-.31-.324-.34-.268-.05-.54-.075-.808-.075-.687 0-1.367.167-2.022.487.392-.689.809-1.291 1.23-1.676.127-.116.168-.303.104-.465-.065-.162-.223-.264-.391-.254-2.019.118-3.692 1.549-4.713 4.029-.582 1.416-1.417 3.311-2.304 4.436-.887-1.125-1.721-3.02-2.304-4.436-1.021-2.481-2.694-3.911-4.713-4.029-.168-.01-.326.092-.391.254s-.023.348.104.465c.42.385.837.987 1.229 1.676-.655-.32-1.336-.487-2.022-.487-.268 0-.54.025-.808.075-.167.031-.297.168-.323.34-.027.173.056.345.205.427.572.317 1.204.915 1.822 1.609-.43-.114-.857-.173-1.276-.173-.673 0-1.322.148-1.931.441-.154.074-.245.241-.228.415.017.174.139.318.304.359.333.082.702.234 1.088.435-.647.124-1.245.384-1.787.777-.139.1-.2.281-.154.45.046.168.191.288.36.298.467.027 1.022.174 1.611.39l-1.228.209c-.14.024-.266.085-.369.172l-1.184-1.862c-.49-.771-1.496-.987-2.242-.48-.37.251-.626.653-.704 1.103-.039.223.105.437.321.477.217.04.423-.109.462-.332.04-.232.167-.431.358-.56.379-.257.889-.148 1.138.244l1.499 2.358-.141.041-2.496-.882c-.409-.145-.848-.117-1.236.08-.388.196-.679.537-.819.96-.143.433-.108.913.098 1.318.071.14.21.22.353.22l.185-.047c.195-.106.27-.355.167-.556-.106-.209-.123-.446-.049-.669.071-.214.219-.388.416-.488.197-.1.42-.114.628-.04l1.481.524c-.551.209-1.057.451-1.292.695-.696.719-.696 1.889 0 2.607.337.348.785.54 1.262.54s.925-.192 1.262-.54l.182-.242v6.303c0 .227.178.411.399.411.22 0 .398-.184.398-.411v-4.614c.891 2.135 2.948 3.633 5.338 3.633l.166-.018 2.214-.487 2.159 1.486c.133.092.288.138.441.138.156 0 .311-.047.446-.141l2.13-1.485 2.342.491.158.016c3.191 0 5.791-2.672 5.81-5.965l.268-3.112c.037-.429-.253-.815-.664-.885l-1.228-.209c.589-.215 1.144-.362 1.611-.39.169-.011.314-.13.36-.298zm-1.937 4.783l-.003.073c0 2.376-1.85 4.314-4.14 4.356l-2.588-.542c-.209-.044-.427.001-.604.125l-1.964 1.369-1.993-1.372c-.132-.091-.286-.138-.442-.138l-.166.018-2.457.54c-2.288-.044-4.136-1.981-4.136-4.356l-.003-.073-.205-2.386 2.863-.487.65-.111.642-.109.093-.016.109-.019 2.619.929.982.349.238.084.46.163.412.146c.164.058.341.059.506.004l.562-.19.409-.137.279-.095.95-.321.282-.095.96-.323 1.527-.515.116.019.093.016.642.109.65.111 2.863.487-.205 2.386zm-12.285-7.495c.35.852.679 1.594.992 2.237-.499-.616-.971-1.258-1.37-1.816-.394-.551-.819-1.028-1.266-1.427-.453-.954-.873-1.705-1.278-2.285 1.213.471 2.228 1.603 2.923 3.291zm8.996-3.291c-.405.58-.825 1.331-1.279 2.285-.447.398-.871.875-1.266 1.427-.399.559-.871 1.2-1.37 1.817.313-.644.642-1.386.992-2.238.694-1.687 1.709-2.82 2.923-3.291zm1.778 4.726c-.705.078-1.432.291-2.175.638-.214.1-.43.212-.648.335l-.158.089-.803.441c.304-.239.621-.495.955-.771l.211-.169c.329-.257.662-.477.995-.662.983-.545 1.965-.769 2.877-.641-.382.191-.797.437-1.254.741zm-3.271.043l-.057.046-.682.556c-.311.249-.639.504-.975.752l-.381.276c.341-.406.705-.869 1.094-1.39l.59-.808c.153-.214.311-.414.471-.602.259-.305.527-.575.802-.809.729-.62 1.508-.989 2.311-1.09-.601.534-1.271 1.283-2.047 2.285-.379.221-.755.483-1.126.785zm-8.994-1.171c.16.188.318.388.471.602l.59.808c.389.521.752.984 1.094 1.391l-.38-.276c-.336-.248-.664-.503-.975-.752l-.682-.556-.057-.046c-.371-.302-.747-.565-1.125-.785-.777-1.002-1.447-1.75-2.047-2.285.803.101 1.582.471 2.311 1.09.275.234.543.505.802.809zm-.592 1.691l.21.168c.334.277.652.533.955.771l-.803-.441-.157-.089c-.217-.123-.433-.234-.648-.334-.743-.348-1.471-.561-2.175-.638-.457-.304-.873-.549-1.254-.741.912-.128 1.895.096 2.878.642.332.184.665.405.995.662zm-2.887.239c.3.021.606.072.918.152.396.101.802.249 1.215.443l-.518.088-.544.093-.774.131c-.705-.329-1.319-.568-1.858-.726.388-.128.8-.193 1.234-.193l.327.013zm14.94.775l-.544-.093-.518-.088c.413-.194.818-.342 1.215-.443.312-.08.618-.131.918-.152l.326-.013c.434 0 .847.065 1.234.193-.538.158-1.152.398-1.858.726l-.774-.132zm-18.843 4.897c-.187.193-.435.299-.698.299-.264 0-.513-.106-.699-.299-.385-.398-.385-1.045 0-1.443.229-.237 1.118-.569 1.984-.833l.159.057v.38c-.244.823-.534 1.621-.745 1.84zM22.65 17.629c-.159 0-.32.012-.478.035-1.029.151-1.929.788-2.446 1.702-.218.253-.397.545-.523.868-.053.137-.032.292.056.408.554.729 1.384 1.147 2.278 1.147.136 0 .274-.01.41-.03.271-.04.531-.12.774-.233 1.183-.18 2.194-1.003 2.642-2.151.054-.136.032-.292-.056-.408-.646-.851-1.616-1.339-2.658-1.339zm-2.275 2.223c.321-.346.749-.58 1.22-.649l.298-.021c.558 0 1.101.239 1.493.648-.203.386-.516.698-.889.897-.205.109-.429.185-.663.219-.657.096-1.33-.144-1.791-.626.09-.172.203-.328.331-.467zm3.879-.127c-.006-.079-.034-.156-.083-.22-.401-.528-.947-.891-1.555-1.052l.034-.001c.706 0 1.391.309 1.876.838-.077.155-.169.3-.272.435zM16.149 19.322c-.495-.853-1.329-1.463-2.293-1.645-.202-.038-.407-.057-.611-.057-.99 0-1.928.449-2.573 1.232-.092.112-.12.267-.072.405.406 1.172 1.393 2.038 2.576 2.262l.109.018c.209.097.429.169.659.213.173.032.349.049.523.049.848 0 1.652-.385 2.205-1.056.092-.112.12-.267.072-.406-.133-.382-.338-.726-.596-1.015zm-2.061 1.618c-.204-.039-.399-.108-.579-.204-.4-.212-.728-.553-.93-.975.388-.376.899-.587 1.434-.587.126 0 .255.012.38.036.428.08.814.298 1.113.608.159.166.293.357.395.57-.388.376-.899.587-1.434.587-.126 0-.254-.012-.379-.036zm-2.648-1.734c.482-.488 1.128-.763 1.805-.763l.056.002c-.575.151-1.098.483-1.492.962-.063.076-.095.173-.094.27-.106-.146-.198-.304-.274-.471zM25.869 17.998c.13.134.311.211.499.211.146 0 .285-.045.406-.135.286-.216.339-.652.119-.971l-.034-.042c-.117-.13-.295-.204-.488-.204-.154 0-.302.049-.419.137-.133.099-.222.245-.25.413-.03.183.015.379.124.538l.043.053zm.617-.452l-.068.114-.048.02-.094-.056.041-.039.158-.116.011.077zm-.18-.138l.061-.022.065.03-.09.093-.099.073c-.037-.054.01-.134.063-.174zM24.812 17.089c.074.115.199.185.332.185.086 0 .169-.029.238-.082.093-.072.151-.182.16-.301.008-.12-.034-.237-.117-.321l-.04-.036c-.138-.108-.34-.108-.479-.002-.155.12-.205.338-.118.516l.023.041"/><path d="M9.942 16.994c-.117-.088-.266-.137-.419-.137-.193 0-.37.074-.488.204l-.034.043c-.22.319-.167.754.123.974.117.087.256.131.401.131.187 0 .369-.077.499-.211l.043-.053c.109-.159.155-.355.124-.538-.028-.168-.117-.315-.25-.413zm-.419.686l-.048-.02-.068-.114.011-.077.157.115.041.04-.094.056zm.127-.099l-.1-.074-.089-.092c.023-.023.074-.046.13-.005.049.037.096.117.059.171zM11.029 17.154l.02-.021.032-.043c.048-.075.072-.165.065-.256-.008-.118-.066-.228-.157-.3-.069-.054-.154-.083-.241-.083-.106 0-.207.044-.281.12l-.019.021-.032.043c-.048.075-.071.165-.065.256.008.118.065.228.157.299.069.054.154.084.241.084.106 0 .207-.044.281-.12"/></g></g></svg>