<svg width="32" height="232" viewBox="0 0 32 232" xmlns="http://www.w3.org/2000/svg" xmlns:sketch="http://www.bohemiancoding.com/sketch/ns"><title>Canada</title><g sketch:type="MSLayerGroup" fill="none"><path d="M27.181 55.247l1.116-2.25c.121-.242.12-.531-.001-.773s-.347-.408-.608-.445l-2.413-.344-.582-1.711c-.087-.256-.287-.452-.538-.527-.251-.075-.521-.019-.725.149l-2.32 1.911.787-4.548c.046-.265-.033-.537-.213-.731-.179-.194-.438-.287-.694-.249l-2.298.336-1.84-2.707c-.151-.223-.397-.355-.66-.355s-.509.132-.66.355l-1.84 2.707-2.298-.336c-.26-.038-.519.057-.698.253-.18.196-.257.472-.208.738l.852 4.593-2.387-1.966c-.204-.169-.475-.224-.725-.149-.251.075-.451.272-.538.527l-.582 1.711-2.413.344c-.26.037-.487.203-.608.445s-.121.53-.001.773l1.116 2.25-1.012 1.479c-.15.219-.19.501-.107.756s.278.454.526.534l4.897 1.582-.827 3.281c-.072.285.005.589.203.799.154.164.363.254.578.254l.185-.022 4.86-1.189-.38 5.077c-.018.234.06.464.213.636.152.172.367.269.593.269h2.518c.225 0 .44-.098.593-.269.153-.172.23-.402.213-.636l-.381-5.099 4.857 1.211c.276.069.567-.018.766-.229.198-.211.276-.515.204-.801l-.827-3.281 4.898-1.582c.247-.08.443-.278.526-.534.083-.255.043-.537-.107-.756l-1.012-1.479zm-11.373 11.775l.352-4.705.067-.017.353 4.722h-.772zm1.112-6.291l-.26-.065v-2.737l2.04 1.72c.075.063.165.094.254.094.117 0 .234-.053.314-.155.14-.181.114-.445-.06-.591l-1.945-1.64 5.372-1.839 1.294.765c.063.037.132.055.199.055.14 0 .277-.077.352-.213.11-.202.042-.458-.152-.572l-.658-.389.869-.298c.212-.072.327-.31.257-.53-.07-.221-.298-.34-.51-.268l-.902.309.108-.479c.051-.226-.084-.452-.301-.505-.217-.053-.435.087-.485.313l-.221.978-5.826 1.994v-2.995l.015-.026 1.778-3.616c.102-.206.023-.459-.175-.565-.199-.106-.442-.024-.544.183l-1.073 2.184v-3.54c0-.232-.181-.42-.404-.42-.223 0-.404.188-.404.42v3.626l-1.116-2.27c-.102-.206-.345-.288-.544-.183-.198.106-.277.359-.176.565l1.778 3.616.058.087v2.958l-5.391-1.893-.248-1.102c-.051-.226-.268-.366-.485-.313-.217.053-.352.279-.301.505l.134.594-1.492-.524c-.211-.074-.44.044-.512.263-.071.22.042.458.254.532l1.326.466-.545.322c-.194.114-.262.371-.152.572.074.136.211.213.352.213.067 0 .136-.018.199-.055l1.172-.692 5.054 1.774-1.936 1.633c-.173.146-.2.41-.06.591.08.102.196.155.314.155.09 0 .18-.031.254-.094l2.064-1.74v2.756l-.387.095-.826.202-4.053.992.682-2.707c.11-.435-.129-.882-.542-1.016l-4.569-1.476.651-.95c.175-.256.198-.593.06-.872l-.819-1.65 1.769-.252c.3-.043.551-.255.652-.552l.369-1.086 3.207 2.641c.265.218.632.242.921.06.289-.182.438-.532.374-.877l-1.05-5.662 1.666.243c.3.044.597-.09.772-.347l1.465-2.155 1.464 2.155c.175.257.473.391.772.347l1.681-.245-.969 5.593c-.06.343.092.69.38.87.288.18.653.155.917-.062l3.109-2.56.369 1.086c.101.297.352.51.652.552l1.769.252-.818 1.65c-.139.279-.116.616.06.872l.651.95-4.57 1.476c-.413.133-.652.581-.542 1.016l.681 2.701-4.879-1.217z" fill="#373D43" sketch:type="MSShapeGroup"/><path d="M27.983 95.966l1.107-2.199c.12-.237.119-.519-.001-.755-.12-.237-.344-.399-.602-.435l-2.392-.336-.577-1.672c-.086-.25-.285-.442-.533-.515-.249-.073-.516-.019-.719.145l-2.3 1.867.781-4.444c.046-.259-.033-.525-.211-.715-.178-.19-.434-.281-.689-.244l-2.278.328-1.824-2.645c-.15-.218-.394-.347-.654-.347s-.504.129-.654.347l-1.824 2.645-2.278-.328c-.257-.037-.514.055-.692.247-.178.192-.255.461-.206.721l.845 4.488-2.366-1.921c-.203-.165-.471-.219-.719-.145-.249.073-.447.265-.533.515l-.577 1.672-2.392.336c-.258.036-.482.198-.602.435-.12.236-.12.518-.001.755l1.107 2.199-1.004 1.445c-.149.214-.188.489-.106.738.082.25.276.444.521.521l4.855 1.546-.82 3.206c-.071.279.005.575.201.781.152.16.36.248.573.248l.183-.022 4.818-1.162-.377 4.96c-.018.228.059.453.211.621.151.168.364.263.588.263h2.497c.223 0 .436-.096.588-.263.152-.168.228-.393.211-.621l-.378-4.982 4.816 1.183c.273.068.562-.017.759-.224.197-.206.273-.503.202-.782l-.82-3.206 4.856-1.546c.245-.078.439-.272.521-.521.082-.249.043-.524-.106-.738l-1.004-1.445zm-11.276 11.504l.349-4.597.066-.016.35 4.613h-.766zm1.103-6.146l-.257-.063v-2.674l2.023 1.681c.074.062.164.092.252.092.116 0 .232-.052.311-.152.139-.177.113-.435-.059-.577l-1.928-1.603 5.326-1.796 1.283.747.198.054c.139 0 .275-.075.349-.208.109-.197.042-.448-.151-.559l-.652-.38.862-.291c.21-.071.324-.302.255-.518-.069-.216-.295-.333-.506-.262l-.894.302.107-.468c.051-.221-.083-.442-.298-.494-.215-.052-.431.085-.481.306l-.219.956-5.777 1.948v-2.927l.015-.025 1.763-3.533c.101-.202.022-.449-.174-.552-.197-.103-.438-.023-.54.179l-1.064 2.133v-3.458c0-.227-.179-.41-.4-.41-.222 0-.401.184-.401.41v3.543l-1.107-2.218c-.101-.202-.342-.282-.539-.179-.197.103-.275.35-.174.552l1.763 3.533.057.085v2.89l-5.345-1.85-.246-1.077c-.05-.221-.266-.358-.481-.306-.215.052-.349.273-.299.494l.133.581-1.48-.512c-.209-.073-.437.043-.508.257-.071.215.042.448.251.52l1.314.455-.541.315c-.192.112-.26.362-.15.559.074.133.209.208.349.208.067 0 .135-.017.197-.054l1.162-.676 5.011 1.733-1.92 1.595c-.172.143-.198.401-.059.577.079.1.195.152.311.152.089 0 .178-.03.252-.092l2.047-1.7v2.693l-.384.092-.819.197-4.019.969.676-2.645c.109-.425-.128-.862-.537-.992l-4.53-1.442.645-.929c.174-.25.197-.579.059-.852l-.812-1.612 1.754-.246c.297-.042.546-.25.646-.54l.366-1.061 3.18 2.581c.263.213.627.236.913.058.286-.178.434-.52.371-.857l-1.041-5.532 1.652.237c.297.043.592-.088.765-.339l1.452-2.105 1.451 2.105c.173.251.469.382.765.339l1.667-.24-.96 5.465c-.059.335.091.674.377.85.286.175.648.151.909-.061l3.083-2.502.366 1.061c.1.29.349.498.646.54l1.754.246-.811 1.612c-.138.273-.115.602.059.852l.646.929-4.531 1.442c-.409.13-.646.568-.537.992l.675 2.639-4.838-1.189z" fill="#67737B" sketch:type="MSShapeGroup"/><path d="M27.181 135.247l1.116-2.25c.121-.242.12-.531-.001-.773s-.347-.408-.608-.445l-2.413-.344-.582-1.711c-.087-.256-.287-.452-.538-.527-.251-.075-.521-.019-.725.149l-2.32 1.911.787-4.548c.046-.265-.033-.537-.213-.731-.179-.194-.438-.287-.694-.249l-2.298.336-1.84-2.707c-.151-.223-.397-.355-.66-.355s-.509.132-.66.355l-1.84 2.707-2.298-.336c-.26-.038-.519.057-.698.253-.18.196-.257.472-.208.738l.852 4.593-2.387-1.966c-.204-.169-.475-.224-.725-.149-.251.075-.451.272-.538.527l-.582 1.711-2.413.344c-.26.037-.487.203-.608.445s-.121.53-.001.773l1.116 2.25-1.012 1.479c-.15.219-.19.501-.107.756s.278.454.526.534l4.897 1.582-.827 3.281c-.072.285.005.589.203.799.154.164.363.254.578.254l.185-.022 4.86-1.189-.38 5.077c-.018.234.06.464.213.636.152.172.367.269.593.269h2.518c.225 0 .44-.098.593-.269.153-.172.23-.402.213-.636l-.381-5.099 4.857 1.211c.276.069.567-.018.766-.229.198-.211.276-.515.204-.801l-.827-3.281 4.898-1.582c.247-.08.443-.278.526-.534.083-.255.043-.537-.107-.756l-1.012-1.479zm-11.373 11.775l.352-4.705.067-.017.353 4.722h-.772zm1.112-6.291l-.26-.065v-2.737l2.04 1.72c.075.063.165.094.254.094.117 0 .234-.053.314-.155.14-.181.114-.445-.06-.591l-1.945-1.64 5.372-1.839 1.294.765c.063.037.132.055.199.055.14 0 .277-.077.352-.213.11-.202.042-.458-.152-.572l-.658-.389.869-.298c.212-.072.327-.31.257-.53-.07-.221-.298-.34-.51-.268l-.902.309.108-.479c.051-.226-.084-.452-.301-.505-.217-.053-.435.087-.485.313l-.221.978-5.826 1.994v-2.995l.015-.026 1.778-3.616c.102-.206.023-.459-.175-.565-.199-.106-.442-.024-.544.183l-1.073 2.184v-3.54c0-.232-.181-.42-.404-.42-.223 0-.404.188-.404.42v3.626l-1.116-2.27c-.102-.206-.345-.288-.544-.183-.198.106-.277.359-.176.565l1.778 3.616.058.087v2.958l-5.391-1.893-.248-1.102c-.051-.226-.268-.366-.485-.313-.217.053-.352.279-.301.505l.134.594-1.492-.524c-.211-.074-.44.044-.512.263-.071.22.042.458.254.532l1.326.466-.545.322c-.194.114-.262.371-.152.572.074.136.211.213.352.213.067 0 .136-.018.199-.055l1.172-.692 5.054 1.774-1.936 1.633c-.173.146-.2.41-.06.591.08.102.196.155.314.155.09 0 .18-.031.254-.094l2.064-1.74v2.756l-.387.095-.826.202-4.053.992.682-2.707c.11-.435-.129-.882-.542-1.016l-4.569-1.476.651-.95c.175-.256.198-.593.06-.872l-.819-1.65 1.769-.252c.3-.043.551-.255.652-.552l.369-1.086 3.207 2.641c.265.218.632.242.921.06.289-.182.438-.532.374-.877l-1.05-5.662 1.666.243c.3.044.597-.09.772-.347l1.465-2.155 1.464 2.155c.175.257.473.391.772.347l1.681-.245-.969 5.593c-.06.343.092.69.38.87.288.18.653.155.917-.062l3.109-2.56.369 1.086c.101.297.352.51.652.552l1.769.252-.818 1.65c-.139.279-.116.616.06.872l.651.95-4.57 1.476c-.413.133-.652.581-.542 1.016l.681 2.701-4.879-1.217z" fill="#206FAC" sketch:type="MSShapeGroup"/><path d="M27.181 15.247l1.116-2.25c.121-.242.12-.531-.001-.773s-.347-.408-.608-.445l-2.413-.344-.582-1.711c-.087-.256-.287-.452-.538-.527-.251-.075-.521-.019-.725.149l-2.32 1.911.787-4.548c.046-.265-.033-.537-.213-.731-.179-.194-.438-.287-.694-.249l-2.298.336-1.84-2.707c-.151-.223-.397-.355-.66-.355s-.509.132-.66.355l-1.84 2.707-2.298-.336c-.26-.038-.519.057-.698.253-.18.196-.257.472-.208.738l.852 4.593-2.387-1.966c-.204-.169-.475-.224-.725-.149-.251.075-.451.272-.538.527l-.582 1.711-2.413.344c-.26.037-.487.203-.608.445s-.121.53-.001.773l1.116 2.25-1.012 1.479c-.15.219-.19.501-.107.756s.278.454.526.534l4.897 1.582-.827 3.281c-.072.285.005.589.203.799.154.164.363.254.578.254l.185-.022 4.86-1.189-.38 5.077c-.018.234.06.464.213.636.152.172.367.269.593.269h2.518c.225 0 .44-.098.593-.269.153-.172.23-.402.213-.636l-.381-5.099 4.857 1.211c.276.069.567-.018.766-.229.198-.211.276-.515.204-.801l-.827-3.281 4.898-1.582c.247-.08.443-.278.526-.534.083-.255.043-.537-.107-.756l-1.012-1.479zm-11.373 11.775l.352-4.705.067-.017.353 4.722h-.772zm1.112-6.291l-.26-.065v-2.737l2.04 1.72c.075.063.165.094.254.094.117 0 .234-.053.314-.155.14-.181.114-.445-.06-.591l-1.945-1.64 5.372-1.839 1.294.765c.063.037.132.055.199.055.14 0 .277-.077.352-.213.11-.202.042-.458-.152-.572l-.658-.389.869-.298c.212-.072.327-.31.257-.53-.07-.221-.298-.34-.51-.268l-.902.309.108-.479c.051-.226-.084-.452-.301-.505-.217-.053-.435.087-.485.313l-.221.978-5.826 1.994v-2.995l.015-.026 1.778-3.616c.102-.206.023-.459-.175-.565-.199-.106-.442-.024-.544.183l-1.073 2.184v-3.54c0-.232-.181-.42-.404-.42-.223 0-.404.188-.404.42v3.626l-1.116-2.27c-.102-.206-.345-.288-.544-.183-.198.106-.277.359-.176.565l1.778 3.616.058.087v2.958l-5.391-1.893-.248-1.102c-.051-.226-.268-.366-.485-.313-.217.053-.352.279-.301.505l.134.594-1.492-.524c-.211-.074-.44.044-.512.263-.071.22.042.458.254.532l1.326.466-.545.322c-.194.114-.262.371-.152.572.074.136.211.213.352.213.067 0 .136-.018.199-.055l1.172-.692 5.054 1.774-1.936 1.633c-.173.146-.2.41-.06.591.08.102.196.155.314.155.09 0 .18-.031.254-.094l2.064-1.74v2.756l-.387.095-.826.202-4.053.992.682-2.707c.11-.435-.129-.882-.542-1.016l-4.569-1.476.651-.95c.175-.256.198-.593.06-.872l-.819-1.65 1.769-.252c.3-.043.551-.255.652-.552l.369-1.086 3.207 2.641c.265.218.632.242.921.06.289-.182.438-.532.374-.877l-1.05-5.662 1.666.243c.3.044.597-.09.772-.347l1.465-2.155 1.464 2.155c.175.257.473.391.772.347l1.681-.245-.969 5.593c-.06.343.092.69.38.87.288.18.653.155.917-.062l3.109-2.56.369 1.086c.101.297.352.51.652.552l1.769.252-.818 1.65c-.139.279-.116.616.06.872l.651.95-4.57 1.476c-.413.133-.652.581-.542 1.016l.681 2.701-4.879-1.217z" fill="#fff" sketch:type="MSShapeGroup"/></g></svg>