<svg width="32" height="232" viewBox="0 0 32 232" xmlns="http://www.w3.org/2000/svg" xmlns:sketch="http://www.bohemiancoding.com/sketch/ns"><title>Canada_Toronto</title><g sketch:type="MSPage" fill="none"><g sketch:type="MSLayerGroup"><g fill="#fff" sketch:type="MSShapeGroup"><path d="M21.347 108.132c-.247 0-.353-.041-.5-.098-.178-.069-.398-.156-.802-.156s-.625.086-.802.156c-.147.057-.253.098-.5.098s-.353-.041-.5-.099c-.177-.069-.398-.155-.802-.155s-.625.086-.802.156c-.147.057-.253.098-.5.098s-.353-.041-.5-.098c-.178-.069-.398-.156-.802-.156s-.625.086-.802.156c-.147.057-.253.098-.5.098s-.353-.041-.5-.098c-.177-.069-.398-.156-.802-.156s-.624.086-.802.156c-.147.057-.253.098-.5.098s-.353-.041-.5-.098c-.177-.069-.398-.156-.802-.156s-.625.086-.802.156c-.147.057-.253.098-.5.098s-.353-.041-.5-.098c-.178-.069-.398-.156-.802-.156s-.625.086-.802.156c-.147.057-.253.098-.5.098s-.353-.041-.5-.098c-.177-.069-.398-.156-.802-.156-.23 0-.415.186-.415.415 0 .229.186.415.415.415.247 0 .353.041.5.099.178.069.398.155.802.155s.624-.086.802-.155c.147-.057.253-.099.5-.099s.353.041.5.099c.177.069.398.155.802.155s.624-.086.802-.155c.147-.057.253-.099.5-.099s.353.041.5.099c.178.069.398.155.802.155s.625-.086.802-.155c.147-.057.253-.099.5-.099s.353.041.5.099c.178.069.398.155.802.155s.625-.086.802-.155c.146-.057.253-.099.5-.099s.353.041.5.099c.177.069.398.155.802.155s.625-.086.802-.155c.147-.057.253-.099.5-.099s.353.041.5.099c.178.069.398.155.802.155s.625-.086.802-.155c.146-.057.253-.099.5-.099s.353.041.5.099c.177.069.398.155.802.155.23 0 .415-.186.415-.415 0-.229-.186-.416-.415-.416" id="Fill-1"/><path d="M29.992 105.827c0-.459-.372-.831-.831-.831h-1.748v-9.707c0-.229-.186-.415-.415-.415h-3.53c-.23 0-.415.186-.415.415v1.989c-.066-.143-.209-.243-.377-.243h-2.312c-.23 0-.416.186-.416.415v.685h-.194c-.23 0-.416.186-.416.415v3.495c-.214-.153-.435-.298-.66-.433v-6.055c0-.229-.186-.415-.415-.415h-.665v-2.181c0-.229-.186-.415-.415-.415-.229 0-.415.186-.415.415v2.181h-.369v-2.742c0-.157-.088-.3-.228-.371-.14-.071-.308-.057-.434.036l-3.047 2.24c-.106.078-.169.202-.169.335v3.848h-2.113c-.23 0-.415.186-.415.415v1.928l-.472.195v-1.027c0-.229-.186-.415-.416-.415h-1.67l-.281-8.419h.363c.212 0 .39-.16.413-.37l.182-1.655c.013-.117-.025-.235-.104-.323l-.086-.071v-.742c0-.23-.186-.415-.415-.415h-.737v-6.159c0-.23-.186-.415-.415-.415-.23 0-.415.186-.415.415v6.159h-.737c-.23 0-.415.186-.415.415v.741l-.086.071c-.079.088-.116.205-.104.323l.182 1.655c.023.211.201.37.413.37h.363l-.281 8.419h-1.837c-.23 0-.415.186-.415.415v4.995h-1.201c-.459 0-.831.372-.831.831 0 .364.235.673.562.785.073.062.166.101.269.101.247 0 .353.041.5.099.177.069.398.155.802.155s.625-.086.802-.155c.147-.057.253-.099.5-.099s.353.041.5.099c.178.069.398.155.802.155s.624-.086.802-.155c.147-.057.253-.099.5-.099s.353.041.5.099c.177.069.398.155.802.155s.624-.086.802-.155c.147-.057.253-.099.5-.099s.353.041.5.099c.178.069.398.155.802.155s.625-.086.802-.155c.147-.057.253-.099.5-.099s.353.041.5.099c.178.069.398.155.802.155s.625-.086.802-.155c.146-.057.253-.099.5-.099s.353.041.5.099c.177.069.398.155.802.155s.625-.086.802-.155c.147-.057.253-.099.5-.099s.353.041.5.099c.178.069.398.155.802.155s.625-.086.802-.155c.146-.057.253-.099.5-.099s.353.041.5.099c.177.069.398.155.802.155s.625-.086.802-.155c.147-.057.253-.099.5-.099s.353.041.5.099c.177.069.398.155.802.155s.625-.086.802-.155c.147-.057.253-.099.5-.099s.353.041.5.099c.177.069.398.155.802.155s.625-.086.802-.155c.147-.057.253-.099.5-.099s.354.041.5.099c.178.069.399.155.803.155.229 0 .415-.186.415-.415l-.001-.006c.248-.144.416-.412.416-.719zm-23.887-6.241l.249-7.459.429 12.87.004.125.021.64h-.909l.021-.64.001-.028.184-5.508zm-.488-11.164h1.474v.259h-1.474v-.259zm-.144 1.09h1.762l-.091.824h-1.581l-.091-.824zm11.045 6.463h1.33v5.19c-.429-.207-.874-.383-1.33-.527v-4.663zm-.951 4.414c-.662-.139-1.342-.212-2.031-.212l-.184.003v-5.327l2.216-1.629v7.166zm-4.744-1.068h1.33v.954c-.451.064-.895.159-1.33.283v-1.237zm0 2.978c.431-.15.876-.265 1.33-.343l.368-.054.048-.006.368-.035.048-.003.368-.017.184-.003c.692 0 1.374.088 2.031.255l.12.031.296.086.12.038.296.103.12.046c.462.179.907.398 1.33.655l.415.27.415.306c.23.181.45.374.66.578.144.14.282.285.416.435l.059.066h-1.015l-.119-.154c-.131-.165-.27-.322-.415-.472-.133-.137-.271-.269-.415-.394-.406-.352-.853-.652-1.33-.895l-.12-.06-.296-.135-.12-.049-.296-.111-.12-.04c-.648-.212-1.333-.326-2.031-.326l-.184.003-.368.021-.048.004-.368.045-.048.007-.368.069c-.459.1-.905.248-1.33.441l-.415.207-.415.245c-.162.104-.32.215-.472.332-.297.229-.575.484-.831.762-.146.159-.284.325-.415.499h-.67l-.012-.36c.339-.346.706-.66 1.096-.94.267-.191.544-.367.831-.526l.472-.242.415-.183.415-.157zm-1.464 2.408l.161-.163c.15-.146.308-.284.472-.413l.415-.297.415-.246c.419-.225.866-.398 1.33-.515l.368-.08.048-.008.368-.051.048-.005.368-.024.184-.003c.703 0 1.39.131 2.031.375l.12.047.296.13.12.058.296.159.12.071c.438.266.84.59 1.195.966l.135.147.123.143h-8.868l.257-.29zm14.524-9.001h2.699v9.291h-2.699v-9.291zm-3.104 2.162h1.481v.27h-1.481v-.27zm-.609 1.101h2.699v6.029h-.322v-5.157c0-.23-.186-.415-.415-.415-.23 0-.415.186-.415.415v4.609l-.332-.448v-4.161c0-.23-.186-.415-.415-.415-.23 0-.415.186-.415.415v3.23l-.383-.358v-3.744zm-11.481 1.449v1.026c-.406.226-.796.479-1.168.76l-.06-1.786h1.227zm-4.837 0h1.394l-.147 4.418-.099.162h-1.149v-4.58z" id="Fill-2"/><path d="M20.71 91.184l.111.078.184.045.187-.044c.205-.103.287-.353.185-.558-.04-.081-.106-.146-.187-.186-.156-.077-.355-.045-.478.077-.128.127-.159.322-.078.483l.076.105" id="Fill-3"/><path d="M18.953 87.282l.188.045c.11 0 .216-.044.294-.122.127-.126.158-.32.078-.48-.04-.081-.106-.146-.187-.186-.072-.036-.153-.05-.233-.041l-.169.059-.077.059c-.128.127-.159.322-.078.483.04.079.104.143.183.183" id="Fill-4"/><path d="M14.259 88.273l.346.189.189.345c.073.133.213.216.365.216s.292-.083.364-.216l.189-.345.346-.189c.133-.073.216-.213.216-.364 0-.152-.083-.292-.216-.364l-.346-.189-.189-.345c-.073-.133-.213-.216-.364-.216-.152 0-.292.083-.365.216l-.189.345-.345.189c-.133.073-.216.213-.216.364 0 .152.083.292.216.364" id="Fill-5"/></g><g fill="#373D43" sketch:type="MSShapeGroup"><path d="M21.347 29.132c-.247 0-.353-.041-.5-.098-.178-.069-.398-.156-.802-.156s-.625.086-.802.156c-.147.057-.253.098-.5.098s-.353-.041-.5-.099c-.177-.069-.398-.155-.802-.155s-.625.086-.802.156c-.147.057-.253.098-.5.098s-.353-.041-.5-.098c-.178-.069-.398-.156-.802-.156s-.625.086-.802.156c-.147.057-.253.098-.5.098s-.353-.041-.5-.098c-.177-.069-.398-.156-.802-.156s-.624.086-.802.156c-.147.057-.253.098-.5.098s-.353-.041-.5-.098c-.177-.069-.398-.156-.802-.156s-.625.086-.802.156c-.147.057-.253.098-.5.098s-.353-.041-.5-.098c-.178-.069-.398-.156-.802-.156s-.625.086-.802.156c-.147.057-.253.098-.5.098s-.353-.041-.5-.098c-.177-.069-.398-.156-.802-.156-.23 0-.415.186-.415.415 0 .229.186.415.415.415.247 0 .353.041.5.099.178.069.398.155.802.155s.624-.086.802-.155c.147-.057.253-.099.5-.099s.353.041.5.099c.177.069.398.155.802.155s.624-.086.802-.155c.147-.057.253-.099.5-.099s.353.041.5.099c.178.069.398.155.802.155s.625-.086.802-.155c.147-.057.253-.099.5-.099s.353.041.5.099c.178.069.398.155.802.155s.625-.086.802-.155c.146-.057.253-.099.5-.099s.353.041.5.099c.177.069.398.155.802.155s.625-.086.802-.155c.147-.057.253-.099.5-.099s.353.041.5.099c.178.069.398.155.802.155s.625-.086.802-.155c.146-.057.253-.099.5-.099s.353.041.5.099c.177.069.398.155.802.155.23 0 .415-.186.415-.415 0-.229-.186-.416-.415-.416" id="Fill-1"/><path d="M29.992 26.827c0-.459-.372-.831-.831-.831h-1.748v-9.707c0-.229-.186-.415-.415-.415h-3.53c-.23 0-.415.186-.415.415v1.989c-.066-.143-.209-.243-.377-.243h-2.312c-.23 0-.416.186-.416.415v.685h-.194c-.23 0-.416.186-.416.415v3.495c-.214-.153-.435-.298-.66-.433v-6.055c0-.229-.186-.415-.415-.415h-.665v-2.181c0-.229-.186-.415-.415-.415-.229 0-.415.186-.415.415v2.181h-.369v-2.742c0-.157-.088-.3-.228-.371-.14-.071-.308-.057-.434.036l-3.047 2.24c-.106.078-.169.202-.169.335v3.848h-2.113c-.23 0-.415.186-.415.415v1.928l-.472.195v-1.027c0-.229-.186-.415-.416-.415h-1.67l-.281-8.419h.363c.212 0 .39-.16.413-.37l.182-1.655c.013-.117-.025-.235-.104-.323l-.086-.071v-.742c0-.23-.186-.415-.415-.415h-.737v-6.159c0-.23-.186-.415-.415-.415-.23 0-.415.186-.415.415v6.159h-.737c-.23 0-.415.186-.415.415v.741l-.086.071c-.079.088-.116.205-.104.323l.182 1.655c.023.211.201.37.413.37h.363l-.281 8.419h-1.837c-.23 0-.415.186-.415.415v4.995h-1.201c-.459 0-.831.372-.831.831 0 .364.235.673.562.785.073.062.166.101.269.101.247 0 .353.041.5.099.177.069.398.155.802.155s.625-.086.802-.155c.147-.057.253-.099.5-.099s.353.041.5.099c.178.069.398.155.802.155s.624-.086.802-.155c.147-.057.253-.099.5-.099s.353.041.5.099c.177.069.398.155.802.155s.624-.086.802-.155c.147-.057.253-.099.5-.099s.353.041.5.099c.178.069.398.155.802.155s.625-.086.802-.155c.147-.057.253-.099.5-.099s.353.041.5.099c.178.069.398.155.802.155s.625-.086.802-.155c.146-.057.253-.099.5-.099s.353.041.5.099c.177.069.398.155.802.155s.625-.086.802-.155c.147-.057.253-.099.5-.099s.353.041.5.099c.178.069.398.155.802.155s.625-.086.802-.155c.146-.057.253-.099.5-.099s.353.041.5.099c.177.069.398.155.802.155s.625-.086.802-.155c.147-.057.253-.099.5-.099s.353.041.5.099c.177.069.398.155.802.155s.625-.086.802-.155c.147-.057.253-.099.5-.099s.353.041.5.099c.177.069.398.155.802.155s.625-.086.802-.155c.147-.057.253-.099.5-.099s.354.041.5.099c.178.069.399.155.803.155.229 0 .415-.186.415-.415l-.001-.006c.248-.144.416-.412.416-.719zm-23.887-6.241l.249-7.459.429 12.87.004.125.021.64h-.909l.021-.64.001-.028.184-5.508zm-.488-11.164h1.474v.259h-1.474v-.259zm-.144 1.09h1.762l-.091.824h-1.581l-.091-.824zm11.045 6.463h1.33v5.19c-.429-.207-.874-.383-1.33-.527v-4.663zm-.951 4.414c-.662-.139-1.342-.212-2.031-.212l-.184.003v-5.327l2.216-1.629v7.166zm-4.744-1.068h1.33v.954c-.451.064-.895.159-1.33.283v-1.237zm0 2.978c.431-.15.876-.265 1.33-.343l.368-.054.048-.006.368-.035.048-.003.368-.017.184-.003c.692 0 1.374.088 2.031.255l.12.031.296.086.12.038.296.103.12.046c.462.179.907.398 1.33.655l.415.27.415.306c.23.181.45.374.66.578.144.14.282.285.416.435l.059.066h-1.015l-.119-.154c-.131-.165-.27-.322-.415-.472-.133-.137-.271-.269-.415-.394-.406-.352-.853-.652-1.33-.895l-.12-.06-.296-.135-.12-.049-.296-.111-.12-.04c-.648-.212-1.333-.326-2.031-.326l-.184.003-.368.021-.048.004-.368.045-.048.007-.368.069c-.459.1-.905.248-1.33.441l-.415.207-.415.245c-.162.104-.32.215-.472.332-.297.229-.575.484-.831.762-.146.159-.284.325-.415.499h-.67l-.012-.36c.339-.346.706-.66 1.096-.94.267-.191.544-.367.831-.526l.472-.242.415-.183.415-.157zm-1.464 2.408l.161-.163c.15-.146.308-.284.472-.413l.415-.297.415-.246c.419-.225.866-.398 1.33-.515l.368-.08.048-.008.368-.051.048-.005.368-.024.184-.003c.703 0 1.39.131 2.031.375l.12.047.296.13.12.058.296.159.12.071c.438.266.84.59 1.195.966l.135.147.123.143h-8.868l.257-.29zm14.524-9.001h2.699v9.291h-2.699v-9.291zm-3.104 2.162h1.481v.27h-1.481v-.27zm-.609 1.101h2.699v6.029h-.322v-5.157c0-.23-.186-.415-.415-.415-.23 0-.415.186-.415.415v4.609l-.332-.448v-4.161c0-.23-.186-.415-.415-.415-.23 0-.415.186-.415.415v3.23l-.383-.358v-3.744zm-11.481 1.449v1.026c-.406.226-.796.479-1.168.76l-.06-1.786h1.227zm-4.837 0h1.394l-.147 4.418-.099.162h-1.149v-4.58z" id="Fill-2"/><path d="M20.71 12.184l.111.078.184.045.187-.044c.205-.103.287-.353.185-.558-.04-.081-.106-.146-.187-.186-.156-.077-.355-.045-.478.077-.128.127-.159.322-.078.483l.076.105" id="Fill-3"/><path d="M18.953 8.282l.188.045c.11 0 .216-.044.294-.122.127-.126.158-.32.078-.48-.04-.081-.106-.146-.187-.186-.072-.036-.153-.05-.233-.041l-.169.059-.077.059c-.128.127-.159.322-.078.483.04.079.104.143.183.183" id="Fill-4"/><path d="M14.259 9.273l.346.189.189.345c.073.133.213.216.365.216s.292-.083.364-.216l.189-.345.346-.189c.133-.073.216-.213.216-.364 0-.152-.083-.292-.216-.364l-.346-.189-.189-.345c-.073-.133-.213-.216-.364-.216-.152 0-.292.083-.365.216l-.189.345-.345.189c-.133.073-.216.213-.216.364 0 .152.083.292.216.364" id="Fill-5"/></g><g fill="#67737B" sketch:type="MSShapeGroup"><path d="M21.347 69.132c-.247 0-.353-.041-.5-.098-.178-.069-.398-.156-.802-.156s-.625.086-.802.156c-.147.057-.253.098-.5.098s-.353-.041-.5-.099c-.177-.069-.398-.155-.802-.155s-.625.086-.802.156c-.147.057-.253.098-.5.098s-.353-.041-.5-.098c-.178-.069-.398-.156-.802-.156s-.625.086-.802.156c-.147.057-.253.098-.5.098s-.353-.041-.5-.098c-.177-.069-.398-.156-.802-.156s-.624.086-.802.156c-.147.057-.253.098-.5.098s-.353-.041-.5-.098c-.177-.069-.398-.156-.802-.156s-.625.086-.802.156c-.147.057-.253.098-.5.098s-.353-.041-.5-.098c-.178-.069-.398-.156-.802-.156s-.625.086-.802.156c-.147.057-.253.098-.5.098s-.353-.041-.5-.098c-.177-.069-.398-.156-.802-.156-.23 0-.415.186-.415.415 0 .229.186.415.415.415.247 0 .353.041.5.099.178.069.398.155.802.155s.624-.086.802-.155c.147-.057.253-.099.5-.099s.353.041.5.099c.177.069.398.155.802.155s.624-.086.802-.155c.147-.057.253-.099.5-.099s.353.041.5.099c.178.069.398.155.802.155s.625-.086.802-.155c.147-.057.253-.099.5-.099s.353.041.5.099c.178.069.398.155.802.155s.625-.086.802-.155c.146-.057.253-.099.5-.099s.353.041.5.099c.177.069.398.155.802.155s.625-.086.802-.155c.147-.057.253-.099.5-.099s.353.041.5.099c.178.069.398.155.802.155s.625-.086.802-.155c.146-.057.253-.099.5-.099s.353.041.5.099c.177.069.398.155.802.155.23 0 .415-.186.415-.415 0-.229-.186-.416-.415-.416" id="Fill-1"/><path d="M29.992 66.827c0-.459-.372-.831-.831-.831h-1.748v-9.707c0-.229-.186-.415-.415-.415h-3.53c-.23 0-.415.186-.415.415v1.989c-.066-.143-.209-.243-.377-.243h-2.312c-.23 0-.416.186-.416.415v.685h-.194c-.23 0-.416.186-.416.415v3.495c-.214-.153-.435-.298-.66-.433v-6.055c0-.229-.186-.415-.415-.415h-.665v-2.181c0-.229-.186-.415-.415-.415-.229 0-.415.186-.415.415v2.181h-.369v-2.742c0-.157-.088-.3-.228-.371-.14-.071-.308-.057-.434.036l-3.047 2.24c-.106.078-.169.202-.169.335v3.848h-2.113c-.23 0-.415.186-.415.415v1.928l-.472.195v-1.027c0-.229-.186-.415-.416-.415h-1.67l-.281-8.419h.363c.212 0 .39-.16.413-.37l.182-1.655c.013-.117-.025-.235-.104-.323l-.086-.071v-.742c0-.23-.186-.415-.415-.415h-.737v-6.159c0-.23-.186-.415-.415-.415-.23 0-.415.186-.415.415v6.159h-.737c-.23 0-.415.186-.415.415v.741l-.086.071c-.079.088-.116.205-.104.323l.182 1.655c.023.211.201.37.413.37h.363l-.281 8.419h-1.837c-.23 0-.415.186-.415.415v4.995h-1.201c-.459 0-.831.372-.831.831 0 .364.235.673.562.785.073.062.166.101.269.101.247 0 .353.041.5.099.177.069.398.155.802.155s.625-.086.802-.155c.147-.057.253-.099.5-.099s.353.041.5.099c.178.069.398.155.802.155s.624-.086.802-.155c.147-.057.253-.099.5-.099s.353.041.5.099c.177.069.398.155.802.155s.624-.086.802-.155c.147-.057.253-.099.5-.099s.353.041.5.099c.178.069.398.155.802.155s.625-.086.802-.155c.147-.057.253-.099.5-.099s.353.041.5.099c.178.069.398.155.802.155s.625-.086.802-.155c.146-.057.253-.099.5-.099s.353.041.5.099c.177.069.398.155.802.155s.625-.086.802-.155c.147-.057.253-.099.5-.099s.353.041.5.099c.178.069.398.155.802.155s.625-.086.802-.155c.146-.057.253-.099.5-.099s.353.041.5.099c.177.069.398.155.802.155s.625-.086.802-.155c.147-.057.253-.099.5-.099s.353.041.5.099c.177.069.398.155.802.155s.625-.086.802-.155c.147-.057.253-.099.5-.099s.353.041.5.099c.177.069.398.155.802.155s.625-.086.802-.155c.147-.057.253-.099.5-.099s.354.041.5.099c.178.069.399.155.803.155.229 0 .415-.186.415-.415l-.001-.006c.248-.144.416-.412.416-.719zm-23.887-6.241l.249-7.459.429 12.87.004.125.021.64h-.909l.021-.64.001-.028.184-5.508zm-.488-11.164h1.474v.259h-1.474v-.259zm-.144 1.09h1.762l-.091.824h-1.581l-.091-.824zm11.045 6.463h1.33v5.19c-.429-.207-.874-.383-1.33-.527v-4.663zm-.951 4.414c-.662-.139-1.342-.212-2.031-.212l-.184.003v-5.327l2.216-1.629v7.166zm-4.744-1.068h1.33v.954c-.451.064-.895.159-1.33.283v-1.237zm0 2.978c.431-.15.876-.265 1.33-.343l.368-.054.048-.006.368-.035.048-.003.368-.017.184-.003c.692 0 1.374.088 2.031.255l.12.031.296.086.12.038.296.103.12.046c.462.179.907.398 1.33.655l.415.27.415.306c.23.181.45.374.66.578.144.14.282.285.416.435l.059.066h-1.015l-.119-.154c-.131-.165-.27-.322-.415-.472-.133-.137-.271-.269-.415-.394-.406-.352-.853-.652-1.33-.895l-.12-.06-.296-.135-.12-.049-.296-.111-.12-.04c-.648-.212-1.333-.326-2.031-.326l-.184.003-.368.021-.048.004-.368.045-.048.007-.368.069c-.459.1-.905.248-1.33.441l-.415.207-.415.245c-.162.104-.32.215-.472.332-.297.229-.575.484-.831.762-.146.159-.284.325-.415.499h-.67l-.012-.36c.339-.346.706-.66 1.096-.94.267-.191.544-.367.831-.526l.472-.242.415-.183.415-.157zm-1.464 2.408l.161-.163c.15-.146.308-.284.472-.413l.415-.297.415-.246c.419-.225.866-.398 1.33-.515l.368-.08.048-.008.368-.051.048-.005.368-.024.184-.003c.703 0 1.39.131 2.031.375l.12.047.296.13.12.058.296.159.12.071c.438.266.84.59 1.195.966l.135.147.123.143h-8.868l.257-.29zm14.524-9.001h2.699v9.291h-2.699v-9.291zm-3.104 2.162h1.481v.27h-1.481v-.27zm-.609 1.101h2.699v6.029h-.322v-5.157c0-.23-.186-.415-.415-.415-.23 0-.415.186-.415.415v4.609l-.332-.448v-4.161c0-.23-.186-.415-.415-.415-.23 0-.415.186-.415.415v3.23l-.383-.358v-3.744zm-11.481 1.449v1.026c-.406.226-.796.479-1.168.76l-.06-1.786h1.227zm-4.837 0h1.394l-.147 4.418-.099.162h-1.149v-4.58z" id="Fill-2"/><path d="M20.71 52.184l.111.078.184.045.187-.044c.205-.103.287-.353.185-.558-.04-.081-.106-.146-.187-.186-.156-.077-.355-.045-.478.077-.128.127-.159.322-.078.483l.076.105" id="Fill-3"/><path d="M18.953 48.282l.188.045c.11 0 .216-.044.294-.122.127-.126.158-.32.078-.48-.04-.081-.106-.146-.187-.186-.072-.036-.153-.05-.233-.041l-.169.059-.077.059c-.128.127-.159.322-.078.483.04.079.104.143.183.183" id="Fill-4"/><path d="M14.259 49.273l.346.189.189.345c.073.133.213.216.365.216s.292-.083.364-.216l.189-.345.346-.189c.133-.073.216-.213.216-.364 0-.152-.083-.292-.216-.364l-.346-.189-.189-.345c-.073-.133-.213-.216-.364-.216-.152 0-.292.083-.365.216l-.189.345-.345.189c-.133.073-.216.213-.216.364 0 .152.083.292.216.364" id="Fill-5"/></g><g fill="#206FAC" sketch:type="MSShapeGroup"><path d="M21.347 147.132c-.247 0-.353-.041-.5-.098-.178-.069-.398-.156-.802-.156s-.625.086-.802.156c-.147.057-.253.098-.5.098s-.353-.041-.5-.099c-.177-.069-.398-.155-.802-.155s-.625.086-.802.156c-.147.057-.253.098-.5.098s-.353-.041-.5-.098c-.178-.069-.398-.156-.802-.156s-.625.086-.802.156c-.147.057-.253.098-.5.098s-.353-.041-.5-.098c-.177-.069-.398-.156-.802-.156s-.624.086-.802.156c-.147.057-.253.098-.5.098s-.353-.041-.5-.098c-.177-.069-.398-.156-.802-.156s-.625.086-.802.156c-.147.057-.253.098-.5.098s-.353-.041-.5-.098c-.178-.069-.398-.156-.802-.156s-.625.086-.802.156c-.147.057-.253.098-.5.098s-.353-.041-.5-.098c-.177-.069-.398-.156-.802-.156-.23 0-.415.186-.415.415 0 .229.186.415.415.415.247 0 .353.041.5.099.178.069.398.155.802.155s.624-.086.802-.155c.147-.057.253-.099.5-.099s.353.041.5.099c.177.069.398.155.802.155s.624-.086.802-.155c.147-.057.253-.099.5-.099s.353.041.5.099c.178.069.398.155.802.155s.625-.086.802-.155c.147-.057.253-.099.5-.099s.353.041.5.099c.178.069.398.155.802.155s.625-.086.802-.155c.146-.057.253-.099.5-.099s.353.041.5.099c.177.069.398.155.802.155s.625-.086.802-.155c.147-.057.253-.099.5-.099s.353.041.5.099c.178.069.398.155.802.155s.625-.086.802-.155c.146-.057.253-.099.5-.099s.353.041.5.099c.177.069.398.155.802.155.23 0 .415-.186.415-.415 0-.229-.186-.416-.415-.416"/><path d="M29.992 144.827c0-.459-.372-.831-.831-.831h-1.748v-9.707c0-.229-.186-.415-.415-.415h-3.53c-.23 0-.415.186-.415.415v1.989c-.066-.143-.209-.243-.377-.243h-2.312c-.23 0-.416.186-.416.415v.685h-.194c-.23 0-.416.186-.416.415v3.495c-.214-.153-.435-.298-.66-.433v-6.055c0-.229-.186-.415-.415-.415h-.665v-2.181c0-.229-.186-.415-.415-.415-.229 0-.415.186-.415.415v2.181h-.369v-2.742c0-.157-.088-.3-.228-.371-.14-.071-.308-.057-.434.036l-3.047 2.24c-.106.078-.169.202-.169.335v3.848h-2.113c-.23 0-.415.186-.415.415v1.928l-.472.195v-1.027c0-.229-.186-.415-.416-.415h-1.67l-.281-8.419h.363c.212 0 .39-.16.413-.37l.182-1.655c.013-.117-.025-.235-.104-.323l-.086-.071v-.742c0-.23-.186-.415-.415-.415h-.737v-6.159c0-.23-.186-.415-.415-.415-.23 0-.415.186-.415.415v6.159h-.737c-.23 0-.415.186-.415.415v.741l-.086.071c-.079.088-.116.205-.104.323l.182 1.655c.023.211.201.37.413.37h.363l-.281 8.419h-1.837c-.23 0-.415.186-.415.415v4.995h-1.201c-.459 0-.831.372-.831.831 0 .364.235.673.562.785.073.062.166.101.269.101.247 0 .353.041.5.099.177.069.398.155.802.155s.625-.086.802-.155c.147-.057.253-.099.5-.099s.353.041.5.099c.178.069.398.155.802.155s.624-.086.802-.155c.147-.057.253-.099.5-.099s.353.041.5.099c.177.069.398.155.802.155s.624-.086.802-.155c.147-.057.253-.099.5-.099s.353.041.5.099c.178.069.398.155.802.155s.625-.086.802-.155c.147-.057.253-.099.5-.099s.353.041.5.099c.178.069.398.155.802.155s.625-.086.802-.155c.146-.057.253-.099.5-.099s.353.041.5.099c.177.069.398.155.802.155s.625-.086.802-.155c.147-.057.253-.099.5-.099s.353.041.5.099c.178.069.398.155.802.155s.625-.086.802-.155c.146-.057.253-.099.5-.099s.353.041.5.099c.177.069.398.155.802.155s.625-.086.802-.155c.147-.057.253-.099.5-.099s.353.041.5.099c.177.069.398.155.802.155s.625-.086.802-.155c.147-.057.253-.099.5-.099s.353.041.5.099c.177.069.398.155.802.155s.625-.086.802-.155c.147-.057.253-.099.5-.099s.354.041.5.099c.178.069.399.155.803.155.229 0 .415-.186.415-.415l-.001-.006c.248-.144.416-.412.416-.719zm-23.887-6.241l.249-7.459.429 12.87.004.125.021.64h-.909l.021-.64.001-.028.184-5.508zm-.488-11.164h1.474v.259h-1.474v-.259zm-.144 1.09h1.762l-.091.824h-1.581l-.091-.824zm11.045 6.463h1.33v5.19c-.429-.207-.874-.383-1.33-.527v-4.663zm-.951 4.414c-.662-.139-1.342-.212-2.031-.212l-.184.003v-5.327l2.216-1.629v7.166zm-4.744-1.068h1.33v.954c-.451.064-.895.159-1.33.283v-1.237zm0 2.978c.431-.15.876-.265 1.33-.343l.368-.054.048-.006.368-.035.048-.003.368-.017.184-.003c.692 0 1.374.088 2.031.255l.12.031.296.086.12.038.296.103.12.046c.462.179.907.398 1.33.655l.415.27.415.306c.23.181.45.374.66.578.144.14.282.285.416.435l.059.066h-1.015l-.119-.154c-.131-.165-.27-.322-.415-.472-.133-.137-.271-.269-.415-.394-.406-.352-.853-.652-1.33-.895l-.12-.06-.296-.135-.12-.049-.296-.111-.12-.04c-.648-.212-1.333-.326-2.031-.326l-.184.003-.368.021-.048.004-.368.045-.048.007-.368.069c-.459.1-.905.248-1.33.441l-.415.207-.415.245c-.162.104-.32.215-.472.332-.297.229-.575.484-.831.762-.146.159-.284.325-.415.499h-.67l-.012-.36c.339-.346.706-.66 1.096-.94.267-.191.544-.367.831-.526l.472-.242.415-.183.415-.157zm-1.464 2.408l.161-.163c.15-.146.308-.284.472-.413l.415-.297.415-.246c.419-.225.866-.398 1.33-.515l.368-.08.048-.008.368-.051.048-.005.368-.024.184-.003c.703 0 1.39.131 2.031.375l.12.047.296.13.12.058.296.159.12.071c.438.266.84.59 1.195.966l.135.147.123.143h-8.868l.257-.29zm14.524-9.001h2.699v9.291h-2.699v-9.291zm-3.104 2.162h1.481v.27h-1.481v-.27zm-.609 1.101h2.699v6.029h-.322v-5.157c0-.23-.186-.415-.415-.415-.23 0-.415.186-.415.415v4.609l-.332-.448v-4.161c0-.23-.186-.415-.415-.415-.23 0-.415.186-.415.415v3.23l-.383-.358v-3.744zm-11.481 1.449v1.026c-.406.226-.796.479-1.168.76l-.06-1.786h1.227zm-4.837 0h1.394l-.147 4.418-.099.162h-1.149v-4.58z"/><path d="M20.71 130.184l.111.078.184.045.187-.044c.205-.103.287-.353.185-.558-.04-.081-.106-.146-.187-.186-.156-.077-.355-.045-.478.077-.128.127-.159.322-.078.483l.076.105"/><path d="M18.953 126.282l.188.045c.11 0 .216-.044.294-.122.127-.126.158-.32.078-.48-.04-.081-.106-.146-.187-.186-.072-.036-.153-.05-.233-.041l-.169.059-.077.059c-.128.127-.159.322-.078.483.04.079.104.143.183.183"/><path d="M14.259 127.273l.346.189.189.345c.073.133.213.216.365.216s.292-.083.364-.216l.189-.345.346-.189c.133-.073.216-.213.216-.364 0-.152-.083-.292-.216-.364l-.346-.189-.189-.345c-.073-.133-.213-.216-.364-.216-.152 0-.292.083-.365.216l-.189.345-.345.189c-.133.073-.216.213-.216.364 0 .152.083.292.216.364"/></g></g></g></svg>