<svg width="32" height="232" viewBox="0 0 32 232" xmlns="http://www.w3.org/2000/svg" xmlns:sketch="http://www.bohemiancoding.com/sketch/ns"><title>Hong-Kong</title><g sketch:type="MSPage" fill="none"><g sketch:type="MSLayerGroup"><g fill="#373D43" sketch:type="MSShapeGroup"><path d="M29.768 27.052c-.237 0-.338-.041-.479-.099-.149-.061-.329-.135-.631-.152v-8.438l.203.171.377.319c.171.144.422.116.56-.063.138-.179.112-.441-.059-.585l-1.08-.912v-1.362c0-.23-.179-.417-.398-.417h-.501c-.161-.301-.465-.815-.731-.968-.122-.078-.766-.641-1.383-1.199v-9.066l.016-.166c0-.953-.457-2.056-1.138-2.744-.148-.15-.347-.234-.554-.234h-2.146c-.207 0-.407.084-.555.235-.626.636-1.067 1.608-1.137 2.499l-.01.131v11.284l-.263.369-.855.644h-.722c-.072 0-.142.02-.203.058l-.756.467h-.71v-.604c0-.23-.178-.416-.399-.416h-.637v-2.357c0-.23-.178-.417-.399-.417-.22 0-.398.187-.398.417v2.357h-.353v-2.957c0-.159-.087-.305-.224-.374-.137-.07-.3-.052-.419.046l-2.097 1.718v-3.548c0-.221-.084-.433-.233-.589l-.75-.784v-2.512c0-.23-.179-.416-.399-.416-.22 0-.398.187-.398.416v1.679l-.125-.131c-.311-.325-.815-.325-1.127 0l-.125.131v-1.679c0-.23-.178-.416-.398-.416-.22 0-.398.187-.398.416v2.512l-.75.784c-.15.156-.234.368-.234.589v5.748l-.68.192-.166.097-.69.667-.011.011-.624.652-.867.302c-.209.072-.321.308-.252.527.056.174.211.285.378.285l.126-.021.956-.333.125-.072.03-.029.685-.715.613-.592.378-.107v2.079h-1.274c-.22 0-.398.187-.398.416v7.232l-.274.027c-.237 0-.338-.041-.479-.099-.17-.07-.382-.156-.769-.156-.22 0-.399.187-.399.416 0 .23.178.416.399.416.237 0 .338.041.479.099.169.07.382.156.769.156s.599-.086.769-.156c.105-.043.189-.077.324-.092h.311c.135.014.218.049.324.092.17.07.382.156.769.156s.599-.086.769-.156c.141-.058.242-.099.479-.099s.338.041.479.099c.171.07.382.156.769.156s.599-.086.769-.156c.14-.057.241-.098.473-.099l.07.007h.092c.135.014.218.049.323.092.17.07.382.156.769.156s.598-.086.769-.156c.105-.043.189-.077.323-.092h.312c.135.014.218.049.323.092.17.07.382.156.769.156s.599-.086.769-.156c.105-.043.189-.077.323-.092h.312c.135.014.218.049.323.092.17.07.382.156.769.156s.599-.086.769-.156c.14-.058.242-.099.479-.099s.338.041.479.099c.17.069.382.156.77.156.387 0 .598-.086.769-.156.14-.058.242-.099.479-.099s.338.041.479.099c.17.07.382.156.769.156s.599-.086.769-.156c.14-.058.243-.099.479-.099.237 0 .338.041.479.099.17.07.382.156.769.156s.599-.086.769-.156c.141-.058.242-.099.48-.099.237 0 .338.041.479.099.17.07.382.156.769.156s.599-.086.769-.156c.141-.058.242-.099.48-.099.237 0 .339.041.48.099.17.07.382.156.769.156.22 0 .399-.187.399-.416 0-.23-.178-.416-.399-.416zm-8.054-22.978l.002-.028c.021-.399.206-.882.465-1.244h1.428c.242.342.418.794.451 1.181l-.009.131v.592h-2.337v-.632zm5.105 11.439h-1.175v-1.069c.412.366.84.734.986.824l.189.245zm1.041 1.267v9.897h-2.261c.028-.085.044-.176.044-.272v-10.059h2.216v.434zm-6.147-11.241h2.337v.554h-2.337v-.554zm0 16.642h2.337v.554h-2.337v-.554zm0-1.387h2.337v.554h-2.337v-.554zm0-1.387h2.337v.554h-2.337v-.554zm0-1.387h2.337v.554h-2.337v-.554zm0 5.548h2.337v.553h-2.337v-.553zm0-8.322h2.337v.554h-2.337v-.554zm0 1.387h2.337v.554h-2.337v-.554zm0-9.708h2.337v.554h-2.337v-.554zm0 1.386h2.337v.554h-2.337v-.554zm0 1.387h2.337v.554h-2.337v-.554zm0 1.386h2.337v.554h-2.337v-.554zm0 1.387h2.337v.554h-2.337v-.554zm1.37 1.387h.968v.554h-2.337v-.554h1.37zm-1.37 11.095h2.337v.617h-2.337v-.617zm-3.087-6.3h1.419v.342h-1.419v-.342zm1.817 1.175h.187v6.846h-.311l.002-.016v-5.87c0-.154-.081-.287-.2-.359-.059-.035-.125-.057-.198-.057-.22 0-.398.186-.398.416v5.87l.002.016h-.321l.002-.016v-5.87c0-.23-.178-.416-.398-.416-.22 0-.398.186-.398.416v5.87l.002.016h-.37v-6.846h2.402zm-14.571 6.973v-6.595h1.275v6.596h-1.275zm9.306-10.17h.637v10.17h-1.274v-10.17h.637zm-1.548-1.053v11.223h-2.125v-11.364l.18-.147 1.944-1.593v1.881zm-5.288 3.518l.307.32-.307.32v-.641zm1.75-6.339l-.312-.326.312-.326v.652zm0 12.142l-.875.915-.233-.244-.642-.671-.233-.244.233-.244.875-.915 1.109 1.159-.234.244zm-1.75-2.318l.312.326-.312.326v-.651zm1.75-2.844l-.307-.32.307-.32v.641zm0 3.496l-.312-.326.312-.326v.652zm-1.75-8.81l-.233-.244 1.108-1.159.875.915.234.244-1.109 1.159-.875-.915zm.875 2.092l.875.915.234.244-.981 1.025-.128.133-.875-.915-.233-.244 1.108-1.159zm0 3.485l.875.915.234.244-.234.243-.875.915-1.108-1.159 1.108-1.159zm1.109-9.317l-.282.294-.827.864-.827-.864-.281-.294 1.108-1.159 1.109 1.159zm-1.984 1.422l.312.326-.312.326v-.652zm0 3.522v-.027l.017.017.293.307.002.002-.312.326v-.625zm1.75.22v.405l-.312-.326.157-.164.155-.162v.247zm6.521 11.03v-9.226h.819c.071 0 .141-.02.203-.058l.756-.467h.741c.083 0 .164-.028.232-.079l.757-.57v1.341h-1.893c-.22 0-.398.187-.398.416v.759h-.186c-.22 0-.398.186-.398.416v7.636c-.209-.005-.309-.044-.441-.098l-.192-.072z" id="Fill-1"/><path d="M18.268 10.603c.069.055.154.085.241.085.086 0 .169-.029.238-.083.155-.121.205-.34.119-.521l-.117-.147c-.137-.108-.34-.108-.478-.001-.155.121-.205.342-.117.522l.115.144" id="Fill-2"/><path d="M16.48 6.614c.069.055.154.085.24.085s.17-.029.238-.083c.155-.121.205-.34.119-.521l-.117-.147c-.138-.108-.34-.108-.478-.001-.155.121-.205.342-.118.522l.115.144" id="Fill-3"/><path d="M12.041 7.646l.331.189.181.347c.07.133.204.216.35.216s.279-.083.349-.216l.181-.347.331-.189c.128-.073.207-.214.207-.366s-.079-.292-.207-.365l-.331-.189-.181-.346c-.07-.133-.203-.216-.349-.216-.146 0-.28.083-.35.216l-.181.346-.331.189c-.128.073-.207.213-.207.365s.08.292.207.366" id="Fill-4"/></g><g id="Hong-Kong-copy" fill="#fff" sketch:type="MSShapeGroup"><path d="M29.768 109.052c-.237 0-.338-.041-.479-.099-.149-.061-.329-.135-.631-.152v-8.438l.203.171.377.319c.171.144.422.116.56-.063.138-.179.112-.441-.059-.585l-1.08-.912v-1.362c0-.23-.179-.417-.398-.417h-.501c-.161-.301-.465-.815-.731-.968-.122-.078-.766-.641-1.383-1.199v-9.066l.016-.166c0-.953-.457-2.056-1.138-2.744-.148-.15-.347-.234-.554-.234h-2.146c-.207 0-.407.084-.555.235-.626.636-1.067 1.608-1.137 2.499l-.01.131v11.284l-.263.369-.855.644h-.722c-.072 0-.142.02-.203.058l-.756.467h-.71v-.604c0-.23-.178-.416-.399-.416h-.637v-2.357c0-.23-.178-.417-.399-.417-.22 0-.398.187-.398.417v2.357h-.353v-2.957c0-.159-.087-.305-.224-.374-.137-.07-.3-.052-.419.046l-2.097 1.718v-3.548c0-.221-.084-.433-.233-.589l-.75-.784v-2.512c0-.23-.179-.416-.399-.416-.22 0-.398.187-.398.416v1.679l-.125-.131c-.311-.325-.815-.325-1.127 0l-.125.131v-1.679c0-.23-.178-.416-.398-.416-.22 0-.398.187-.398.416v2.512l-.75.784c-.15.156-.234.368-.234.589v5.748l-.68.192-.166.097-.69.667-.011.011-.624.652-.867.302c-.209.072-.321.308-.252.527.056.174.211.285.378.285l.126-.021.956-.333.125-.072.03-.029.685-.715.613-.592.378-.107v2.079h-1.274c-.22 0-.398.187-.398.416v7.232l-.274.027c-.237 0-.338-.041-.479-.099-.17-.07-.382-.156-.769-.156-.22 0-.399.187-.399.416 0 .23.178.416.399.416.237 0 .338.041.479.099.169.07.382.156.769.156s.599-.086.769-.156c.105-.043.189-.077.324-.092h.311c.135.014.218.049.324.092.17.07.382.156.769.156s.599-.086.769-.156c.141-.058.242-.099.479-.099s.338.041.479.099c.171.07.382.156.769.156s.599-.086.769-.156c.14-.057.241-.098.473-.099l.07.007h.092c.135.014.218.049.323.092.17.07.382.156.769.156s.598-.086.769-.156c.105-.043.189-.077.323-.092h.312c.135.014.218.049.323.092.17.07.382.156.769.156s.599-.086.769-.156c.105-.043.189-.077.323-.092h.312c.135.014.218.049.323.092.17.07.382.156.769.156s.599-.086.769-.156c.14-.058.242-.099.479-.099s.338.041.479.099c.17.069.382.156.77.156.387 0 .598-.086.769-.156.14-.058.242-.099.479-.099s.338.041.479.099c.17.07.382.156.769.156s.599-.086.769-.156c.14-.058.243-.099.479-.099.237 0 .338.041.479.099.17.07.382.156.769.156s.599-.086.769-.156c.141-.058.242-.099.48-.099.237 0 .338.041.479.099.17.07.382.156.769.156s.599-.086.769-.156c.141-.058.242-.099.48-.099.237 0 .339.041.48.099.17.07.382.156.769.156.22 0 .399-.187.399-.416 0-.23-.178-.416-.399-.416zm-8.054-22.978l.002-.028c.021-.399.206-.882.465-1.244h1.428c.242.342.418.794.451 1.181l-.009.131v.592h-2.337v-.632zm5.105 11.439h-1.175v-1.069c.412.366.84.734.986.824l.189.245zm1.041 1.267v9.897h-2.261c.028-.085.044-.176.044-.272v-10.059h2.216v.434zm-6.147-11.241h2.337v.554h-2.337v-.554zm0 16.642h2.337v.554h-2.337v-.554zm0-1.387h2.337v.554h-2.337v-.554zm0-1.387h2.337v.554h-2.337v-.554zm0-1.387h2.337v.554h-2.337v-.554zm0 5.548h2.337v.553h-2.337v-.553zm0-8.322h2.337v.554h-2.337v-.554zm0 1.387h2.337v.554h-2.337v-.554zm0-9.708h2.337v.554h-2.337v-.554zm0 1.386h2.337v.554h-2.337v-.554zm0 1.387h2.337v.554h-2.337v-.554zm0 1.386h2.337v.554h-2.337v-.554zm0 1.387h2.337v.554h-2.337v-.554zm1.37 1.387h.968v.554h-2.337v-.554h1.37zm-1.37 11.095h2.337v.617h-2.337v-.617zm-3.087-6.3h1.419v.342h-1.419v-.342zm1.817 1.175h.187v6.846h-.311l.002-.016v-5.87c0-.154-.081-.287-.2-.359-.059-.035-.125-.057-.198-.057-.22 0-.398.186-.398.416v5.87l.002.016h-.321l.002-.016v-5.87c0-.23-.178-.416-.398-.416-.22 0-.398.186-.398.416v5.87l.002.016h-.37v-6.846h2.402zm-14.571 6.973v-6.595h1.275v6.596h-1.275zm9.306-10.17h.637v10.17h-1.274v-10.17h.637zm-1.548-1.053v11.223h-2.125v-11.364l.18-.147 1.944-1.593v1.881zm-5.288 3.518l.307.32-.307.32v-.641zm1.75-6.339l-.312-.326.312-.326v.652zm0 12.142l-.875.915-.233-.244-.642-.671-.233-.244.233-.244.875-.915 1.109 1.159-.234.244zm-1.75-2.318l.312.326-.312.326v-.651zm1.75-2.844l-.307-.32.307-.32v.641zm0 3.496l-.312-.326.312-.326v.652zm-1.75-8.81l-.233-.244 1.108-1.159.875.915.234.244-1.109 1.159-.875-.915zm.875 2.092l.875.915.234.244-.981 1.025-.128.133-.875-.915-.233-.244 1.108-1.159zm0 3.485l.875.915.234.244-.234.243-.875.915-1.108-1.159 1.108-1.159zm1.109-9.317l-.282.294-.827.864-.827-.864-.281-.294 1.108-1.159 1.109 1.159zm-1.984 1.422l.312.326-.312.326v-.652zm0 3.522v-.027l.017.017.293.307.002.002-.312.326v-.625zm1.75.22v.405l-.312-.326.157-.164.155-.162v.247zm6.521 11.03v-9.226h.819c.071 0 .141-.02.203-.058l.756-.467h.741c.083 0 .164-.028.232-.079l.757-.57v1.341h-1.893c-.22 0-.398.187-.398.416v.759h-.186c-.22 0-.398.186-.398.416v7.636c-.209-.005-.309-.044-.441-.098l-.192-.072z" id="Fill-1"/><path d="M18.268 92.603c.069.055.154.085.241.085.086 0 .169-.029.238-.083.155-.121.205-.34.119-.521l-.117-.147c-.137-.108-.34-.108-.478-.001-.155.121-.205.342-.117.522l.115.144" id="Fill-2"/><path d="M16.48 88.614c.069.055.154.085.24.085s.17-.029.238-.083c.155-.121.205-.34.119-.521l-.117-.147c-.138-.108-.34-.108-.478-.001-.155.121-.205.342-.118.522l.115.144" id="Fill-3"/><path d="M12.041 89.647l.331.189.181.347c.07.133.204.216.35.216s.279-.083.349-.216l.181-.347.331-.189c.128-.073.207-.214.207-.366s-.079-.292-.207-.365l-.331-.189-.181-.346c-.07-.133-.203-.216-.349-.216-.146 0-.28.083-.35.216l-.181.346-.331.189c-.128.073-.207.213-.207.365s.08.292.207.366" id="Fill-4"/></g><g fill="#67737B" sketch:type="MSShapeGroup"><path d="M29.768 67.052c-.237 0-.338-.041-.479-.099-.149-.061-.329-.135-.631-.152v-8.438l.203.171.377.319c.171.144.422.116.56-.063.138-.179.112-.441-.059-.585l-1.08-.912v-1.362c0-.23-.179-.417-.398-.417h-.501c-.161-.301-.465-.815-.731-.968-.122-.078-.766-.641-1.383-1.199v-9.066l.016-.166c0-.953-.457-2.056-1.138-2.744-.148-.15-.347-.234-.554-.234h-2.146c-.207 0-.407.084-.555.235-.626.636-1.067 1.608-1.137 2.499l-.01.131v11.284l-.263.369-.855.644h-.722c-.072 0-.142.02-.203.058l-.756.467h-.71v-.604c0-.23-.178-.416-.399-.416h-.637v-2.357c0-.23-.178-.417-.399-.417-.22 0-.398.187-.398.417v2.357h-.353v-2.957c0-.159-.087-.305-.224-.374-.137-.07-.3-.052-.419.046l-2.097 1.718v-3.548c0-.221-.084-.433-.233-.589l-.75-.784v-2.512c0-.23-.179-.416-.399-.416-.22 0-.398.187-.398.416v1.679l-.125-.131c-.311-.325-.815-.325-1.127 0l-.125.131v-1.679c0-.23-.178-.416-.398-.416-.22 0-.398.187-.398.416v2.512l-.75.784c-.15.156-.234.368-.234.589v5.748l-.68.192-.166.097-.69.667-.011.011-.624.652-.867.302c-.209.072-.321.308-.252.527.056.174.211.285.378.285l.126-.021.956-.333.125-.072.03-.029.685-.715.613-.592.378-.107v2.079h-1.274c-.22 0-.398.187-.398.416v7.232l-.274.027c-.237 0-.338-.041-.479-.099-.17-.07-.382-.156-.769-.156-.22 0-.399.187-.399.416 0 .23.178.416.399.416.237 0 .338.041.479.099.169.07.382.156.769.156s.599-.086.769-.156c.105-.043.189-.077.324-.092h.311c.135.014.218.049.324.092.17.07.382.156.769.156s.599-.086.769-.156c.141-.058.242-.099.479-.099s.338.041.479.099c.171.07.382.156.769.156s.599-.086.769-.156c.14-.057.241-.098.473-.099l.07.007h.092c.135.014.218.049.323.092.17.07.382.156.769.156s.598-.086.769-.156c.105-.043.189-.077.323-.092h.312c.135.014.218.049.323.092.17.07.382.156.769.156s.599-.086.769-.156c.105-.043.189-.077.323-.092h.312c.135.014.218.049.323.092.17.07.382.156.769.156s.599-.086.769-.156c.14-.058.242-.099.479-.099s.338.041.479.099c.17.069.382.156.77.156.387 0 .598-.086.769-.156.14-.058.242-.099.479-.099s.338.041.479.099c.17.07.382.156.769.156s.599-.086.769-.156c.14-.058.243-.099.479-.099.237 0 .338.041.479.099.17.07.382.156.769.156s.599-.086.769-.156c.141-.058.242-.099.48-.099.237 0 .338.041.479.099.17.07.382.156.769.156s.599-.086.769-.156c.141-.058.242-.099.48-.099.237 0 .339.041.48.099.17.07.382.156.769.156.22 0 .399-.187.399-.416 0-.23-.178-.416-.399-.416zm-8.054-22.978l.002-.028c.021-.399.206-.882.465-1.244h1.428c.242.342.418.794.451 1.181l-.009.131v.592h-2.337v-.632zm5.105 11.439h-1.175v-1.069c.412.366.84.734.986.824l.189.245zm1.041 1.267v9.897h-2.261c.028-.085.044-.176.044-.272v-10.059h2.216v.434zm-6.147-11.241h2.337v.554h-2.337v-.554zm0 16.642h2.337v.554h-2.337v-.554zm0-1.387h2.337v.554h-2.337v-.554zm0-1.387h2.337v.554h-2.337v-.554zm0-1.387h2.337v.554h-2.337v-.554zm0 5.548h2.337v.553h-2.337v-.553zm0-8.322h2.337v.554h-2.337v-.554zm0 1.387h2.337v.554h-2.337v-.554zm0-9.708h2.337v.554h-2.337v-.554zm0 1.386h2.337v.554h-2.337v-.554zm0 1.387h2.337v.554h-2.337v-.554zm0 1.386h2.337v.554h-2.337v-.554zm0 1.387h2.337v.554h-2.337v-.554zm1.37 1.387h.968v.554h-2.337v-.554h1.37zm-1.37 11.095h2.337v.617h-2.337v-.617zm-3.087-6.3h1.419v.342h-1.419v-.342zm1.817 1.175h.187v6.846h-.311l.002-.016v-5.87c0-.154-.081-.287-.2-.359-.059-.035-.125-.057-.198-.057-.22 0-.398.186-.398.416v5.87l.002.016h-.321l.002-.016v-5.87c0-.23-.178-.416-.398-.416-.22 0-.398.186-.398.416v5.87l.002.016h-.37v-6.846h2.402zm-14.571 6.973v-6.595h1.275v6.596h-1.275zm9.306-10.17h.637v10.17h-1.274v-10.17h.637zm-1.548-1.053v11.223h-2.125v-11.364l.18-.147 1.944-1.593v1.881zm-5.288 3.518l.307.32-.307.32v-.641zm1.75-6.339l-.312-.326.312-.326v.652zm0 12.142l-.875.915-.233-.244-.642-.671-.233-.244.233-.244.875-.915 1.109 1.159-.234.244zm-1.75-2.318l.312.326-.312.326v-.651zm1.75-2.844l-.307-.32.307-.32v.641zm0 3.496l-.312-.326.312-.326v.652zm-1.75-8.81l-.233-.244 1.108-1.159.875.915.234.244-1.109 1.159-.875-.915zm.875 2.092l.875.915.234.244-.981 1.025-.128.133-.875-.915-.233-.244 1.108-1.159zm0 3.485l.875.915.234.244-.234.243-.875.915-1.108-1.159 1.108-1.159zm1.109-9.317l-.282.294-.827.864-.827-.864-.281-.294 1.108-1.159 1.109 1.159zm-1.984 1.422l.312.326-.312.326v-.652zm0 3.522v-.027l.017.017.293.307.002.002-.312.326v-.625zm1.75.22v.405l-.312-.326.157-.164.155-.162v.247zm6.521 11.03v-9.226h.819c.071 0 .141-.02.203-.058l.756-.467h.741c.083 0 .164-.028.232-.079l.757-.57v1.341h-1.893c-.22 0-.398.187-.398.416v.759h-.186c-.22 0-.398.186-.398.416v7.636c-.209-.005-.309-.044-.441-.098l-.192-.072z" id="Fill-1"/><path d="M18.268 50.603c.069.055.154.085.241.085.086 0 .169-.029.238-.083.155-.121.205-.34.119-.521l-.117-.147c-.137-.108-.34-.108-.478-.001-.155.121-.205.342-.117.522l.115.144" id="Fill-2"/><path d="M16.48 46.614c.069.055.154.085.24.085s.17-.029.238-.083c.155-.121.205-.34.119-.521l-.117-.147c-.138-.108-.34-.108-.478-.001-.155.121-.205.342-.118.522l.115.144" id="Fill-3"/><path d="M12.041 47.647l.331.189.181.347c.07.133.204.216.35.216s.279-.083.349-.216l.181-.347.331-.189c.128-.073.207-.214.207-.366s-.079-.292-.207-.365l-.331-.189-.181-.346c-.07-.133-.203-.216-.349-.216-.146 0-.28.083-.35.216l-.181.346-.331.189c-.128.073-.207.213-.207.365s.08.292.207.366" id="Fill-4"/></g><g fill="#206FAC" sketch:type="MSShapeGroup"><path d="M29.768 147.052c-.237 0-.338-.041-.479-.099-.149-.061-.329-.135-.631-.152v-8.438l.203.171.377.319c.171.144.422.116.56-.063.138-.179.112-.441-.059-.585l-1.08-.912v-1.362c0-.23-.179-.417-.398-.417h-.501c-.161-.301-.465-.815-.731-.968-.122-.078-.766-.641-1.383-1.199v-9.066l.016-.166c0-.953-.457-2.056-1.138-2.744-.148-.15-.347-.234-.554-.234h-2.146c-.207 0-.407.084-.555.235-.626.636-1.067 1.608-1.137 2.499l-.01.131v11.284l-.263.369-.855.644h-.722c-.072 0-.142.02-.203.058l-.756.467h-.71v-.604c0-.23-.178-.416-.399-.416h-.637v-2.357c0-.23-.178-.417-.399-.417-.22 0-.398.187-.398.417v2.357h-.353v-2.957c0-.159-.087-.305-.224-.374-.137-.07-.3-.052-.419.046l-2.097 1.718v-3.548c0-.221-.084-.433-.233-.589l-.75-.784v-2.512c0-.23-.179-.416-.399-.416-.22 0-.398.187-.398.416v1.679l-.125-.131c-.311-.325-.815-.325-1.127 0l-.125.131v-1.679c0-.23-.178-.416-.398-.416-.22 0-.398.187-.398.416v2.512l-.75.784c-.15.156-.234.368-.234.589v5.748l-.68.192-.166.097-.69.667-.011.011-.624.652-.867.302c-.209.072-.321.308-.252.527.056.174.211.285.378.285l.126-.021.956-.333.125-.072.03-.029.685-.715.613-.592.378-.107v2.079h-1.274c-.22 0-.398.187-.398.416v7.232l-.274.027c-.237 0-.338-.041-.479-.099-.17-.07-.382-.156-.769-.156-.22 0-.399.187-.399.416 0 .23.178.416.399.416.237 0 .338.041.479.099.169.07.382.156.769.156s.599-.086.769-.156c.105-.043.189-.077.324-.092h.311c.135.014.218.049.324.092.17.07.382.156.769.156s.599-.086.769-.156c.141-.058.242-.099.479-.099s.338.041.479.099c.171.07.382.156.769.156s.599-.086.769-.156c.14-.057.241-.098.473-.099l.07.007h.092c.135.014.218.049.323.092.17.07.382.156.769.156s.598-.086.769-.156c.105-.043.189-.077.323-.092h.312c.135.014.218.049.323.092.17.07.382.156.769.156s.599-.086.769-.156c.105-.043.189-.077.323-.092h.312c.135.014.218.049.323.092.17.07.382.156.769.156s.599-.086.769-.156c.14-.058.242-.099.479-.099s.338.041.479.099c.17.069.382.156.77.156.387 0 .598-.086.769-.156.14-.058.242-.099.479-.099s.338.041.479.099c.17.07.382.156.769.156s.599-.086.769-.156c.14-.058.243-.099.479-.099.237 0 .338.041.479.099.17.07.382.156.769.156s.599-.086.769-.156c.141-.058.242-.099.48-.099.237 0 .338.041.479.099.17.07.382.156.769.156s.599-.086.769-.156c.141-.058.242-.099.48-.099.237 0 .339.041.48.099.17.07.382.156.769.156.22 0 .399-.187.399-.416 0-.23-.178-.416-.399-.416zm-8.054-22.978l.002-.028c.021-.399.206-.882.465-1.244h1.428c.242.342.418.794.451 1.181l-.009.131v.592h-2.337v-.632zm5.105 11.439h-1.175v-1.069c.412.366.84.734.986.824l.189.245zm1.041 1.267v9.897h-2.261c.028-.085.044-.176.044-.272v-10.059h2.216v.434zm-6.147-11.241h2.337v.554h-2.337v-.554zm0 16.642h2.337v.554h-2.337v-.554zm0-1.387h2.337v.554h-2.337v-.554zm0-1.387h2.337v.554h-2.337v-.554zm0-1.387h2.337v.554h-2.337v-.554zm0 5.548h2.337v.553h-2.337v-.553zm0-8.322h2.337v.554h-2.337v-.554zm0 1.387h2.337v.554h-2.337v-.554zm0-9.708h2.337v.554h-2.337v-.554zm0 1.386h2.337v.554h-2.337v-.554zm0 1.387h2.337v.554h-2.337v-.554zm0 1.386h2.337v.554h-2.337v-.554zm0 1.387h2.337v.554h-2.337v-.554zm1.37 1.387h.968v.554h-2.337v-.554h1.37zm-1.37 11.095h2.337v.617h-2.337v-.617zm-3.087-6.3h1.419v.342h-1.419v-.342zm1.817 1.175h.187v6.846h-.311l.002-.016v-5.87c0-.154-.081-.287-.2-.359-.059-.035-.125-.057-.198-.057-.22 0-.398.186-.398.416v5.87l.002.016h-.321l.002-.016v-5.87c0-.23-.178-.416-.398-.416-.22 0-.398.186-.398.416v5.87l.002.016h-.37v-6.846h2.402zm-14.571 6.973v-6.595h1.275v6.596h-1.275zm9.306-10.17h.637v10.17h-1.274v-10.17h.637zm-1.548-1.053v11.223h-2.125v-11.364l.18-.147 1.944-1.593v1.881zm-5.288 3.518l.307.32-.307.32v-.641zm1.75-6.339l-.312-.326.312-.326v.652zm0 12.142l-.875.915-.233-.244-.642-.671-.233-.244.233-.244.875-.915 1.109 1.159-.234.244zm-1.75-2.318l.312.326-.312.326v-.651zm1.75-2.844l-.307-.32.307-.32v.641zm0 3.496l-.312-.326.312-.326v.652zm-1.75-8.81l-.233-.244 1.108-1.159.875.915.234.244-1.109 1.159-.875-.915zm.875 2.092l.875.915.234.244-.981 1.025-.128.133-.875-.915-.233-.244 1.108-1.159zm0 3.485l.875.915.234.244-.234.243-.875.915-1.108-1.159 1.108-1.159zm1.109-9.317l-.282.294-.827.864-.827-.864-.281-.294 1.108-1.159 1.109 1.159zm-1.984 1.422l.312.326-.312.326v-.652zm0 3.522v-.027l.017.017.293.307.002.002-.312.326v-.625zm1.75.22v.405l-.312-.326.157-.164.155-.162v.247zm6.521 11.03v-9.226h.819c.071 0 .141-.02.203-.058l.756-.467h.741c.083 0 .164-.028.232-.079l.757-.57v1.341h-1.893c-.22 0-.398.187-.398.416v.759h-.186c-.22 0-.398.186-.398.416v7.636c-.209-.005-.309-.044-.441-.098l-.192-.072z"/><path d="M18.268 130.603c.069.055.154.085.241.085.086 0 .169-.029.238-.083.155-.121.205-.34.119-.521l-.117-.147c-.137-.108-.34-.108-.478-.001-.155.121-.205.342-.117.522l.115.144"/><path d="M16.48 126.614c.069.055.154.085.24.085s.17-.029.238-.083c.155-.121.205-.34.119-.521l-.117-.147c-.138-.108-.34-.108-.478-.001-.155.121-.205.342-.118.522l.115.144"/><path d="M12.041 127.647l.331.189.181.347c.07.133.204.216.35.216s.279-.083.349-.216l.181-.347.331-.189c.128-.073.207-.214.207-.366s-.079-.292-.207-.365l-.331-.189-.181-.346c-.07-.133-.203-.216-.349-.216-.146 0-.28.083-.35.216l-.181.346-.331.189c-.128.073-.207.213-.207.365s.08.292.207.366"/></g></g></g></svg>