<svg width="32" height="232" viewBox="0 0 32 232" xmlns="http://www.w3.org/2000/svg" xmlns:sketch="http://www.bohemiancoding.com/sketch/ns"><title>Havana</title><g sketch:type="MSLayerGroup" fill="none"><g fill="#373D43" sketch:type="MSShapeGroup"><path d="M9.259 18.509c1.202 0 2.179-1.012 2.179-2.255 0-.468-.139-.903-.376-1.264-.392-.597-1.054-.99-1.803-.99-.371 0-.72.096-1.026.266-.686.38-1.153 1.128-1.153 1.988 0 1.243.978 2.255 2.179 2.255zm0-3.667c.217 0 .421.054.603.147.45.231.762.71.762 1.264 0 .779-.612 1.412-1.365 1.412-.752 0-1.365-.633-1.365-1.412 0-.647.424-1.192.999-1.358.117-.034.239-.053.366-.053z" id="Fill-1"/><path d="M9.259 17.445c.634 0 1.151-.534 1.151-1.191 0-.232-.182-.421-.407-.421-.225 0-.407.189-.407.421 0 .192-.151.349-.336.349-.225 0-.407.188-.407.421 0 .233.182.421.407.421" id="Fill-2"/><path d="M22.958 18.509c1.202 0 2.179-1.012 2.179-2.255 0-.87-.48-1.626-1.18-2.002-.3-.161-.64-.252-1-.252-.749 0-1.411.393-1.803.99-.237.361-.376.796-.376 1.264 0 1.243.978 2.255 2.179 2.255zm-.603-3.519c.182-.093.386-.147.603-.147.119 0 .235.017.346.048.586.159 1.019.71 1.019 1.364 0 .779-.612 1.412-1.365 1.412-.752 0-1.365-.633-1.365-1.412 0-.554.311-1.033.762-1.264z" id="Fill-3"/><path d="M22.958 17.445c.634 0 1.151-.534 1.151-1.191 0-.232-.183-.421-.408-.421-.225 0-.407.189-.407.421 0 .192-.151.349-.336.349-.225 0-.407.188-.407.421 0 .233.182.421.407.421" id="Fill-4"/><path d="M26.384 23.127h-.302l.532-3.118c.056-.267.825-4.122-.826-6.248-.456-.587-1.048-.984-1.767-1.19l-.254-2.384c-.025-.745-.56-1.346-1.224-1.379l-6.335-.737h-.182l-6.385.737c-.665.033-1.2.634-1.225 1.379l-.249 2.346c-.783.193-1.422.603-1.908 1.229-1.651 2.127-.882 5.981-.826 6.248l.532 3.118h-.133c-.45 0-.814.377-.814.842 0 .422.299.77.69.832v1.263c0 .466.364.842.814.842h3.204c.45 0 .815-.377.815-.842v-1.253h3.102c.004.23.184.415.407.415h3.948c.223 0 .403-.185.407-.415h3.358v1.253c0 .466.365.842.814.842h3.205c.45 0 .814-.377.814-.842v-1.282c.347-.096.603-.423.603-.813 0-.465-.365-.842-.814-.842zm-20.155-3.29c-.008-.037-.766-3.709.666-5.55.312-.401.7-.682 1.176-.851.355-.126.757-.189 1.212-.189.174 0 .319.01.444.025l.183.032c.278.063.437.172.62.298.338.232.721.494 1.697.494.792 0 1.356-.373 1.835-.792l.382-.351c.414-.393.781-.739 1.258-.868v3.084h-1.352c-.225 0-.408.188-.408.421 0 .233.183.421.408.421h.498l.1.279c.059.166.211.275.382.275h1.559c.17 0 .322-.11.382-.275l.1-.279h.498c.225 0 .407-.189.407-.421 0-.233-.182-.421-.407-.421h-1.353v-3.029c.398.157.726.468 1.09.813l.381.351c.479.419 1.042.792 1.835.792.976 0 1.359-.263 1.697-.494.183-.126.342-.235.62-.298l.317-.046.31-.012c.515 0 .964.081 1.352.243.412.172.755.437 1.035.797 1.432 1.841.673 5.513.666 5.549l-.004.017-.302 1.772c-.038-.622-.538-1.117-1.149-1.117h-.971v-.377c0-.465-.364-.842-.814-.842-.195 0-.374.071-.514.19l-.081-.112-.53-1.038c-.067-.131-.196-.216-.339-.223l-4.964-.266h-.042l-5 .266c-.143.008-.272.093-.339.224l-.595 1.165c-.143-.127-.328-.204-.531-.204-.45 0-.815.377-.815.842v.377h-.971c-.636 0-1.153.535-1.153 1.193s.517 1.193 1.153 1.193h.971v.232h-2.034l-.558-3.273-.004-.017zm11.361 4.132v.414h-3.134v-1.488h3.134v1.074zm7.665-.842h-1.865v-.232h.971c.47 0 .875-.293 1.054-.711l-.161.943zm-4.417-4.192l.162.317h-4.486v-.549l4.324.231zm.923 2.49v.627h-5.247v-.701h5.247v.074zm-11.308 0v-.074h5.246v.701h-5.246v-.627zm13.908.627h-.971v-.701h.971c.187 0 .339.157.339.35 0 .194-.152.35-.339.35zm-2.719-1.543h-5.128v-.414h4.917l.211.414zm-5.942-1.257h-4.486l.162-.317 4.324-.23v.547zm0 .843v.414h-5.128l.212-.414h4.916zm-6.876 1.957h-.971c-.187 0-.339-.157-.339-.35 0-.193.152-.35.339-.35h.971v.701zm9.58.842h3.358v.232h-3.358v-.232zm-7.95 0h3.188v.232h-3.188v-.232zm-.429-12.437l6.09-.703 6.042.703.208 1.964c-.69.061-1.011.281-1.299.478-.288.198-.516.354-1.247.354l-.151-.007 2.218-1.168c.2-.105.28-.359.178-.566-.102-.207-.347-.29-.548-.184l-2.736 1.44-.078.055c-.184-.144-.362-.312-.55-.491-.508-.482-1.081-1.027-1.934-1.127l-.02-.005-.021-.005-.06-.006-.013-.001h-.01l-.071.002h-.008l-.196.015c-.851.101-1.424.646-1.932 1.127-.521.494-.971.922-1.666.922-.605 0-.866-.107-1.101-.257l1.903-.911c.204-.098.293-.348.198-.559-.094-.211-.336-.303-.54-.206l-2.487 1.19-.385-.075.21-1.978zm-2.689 14.353h1.576v.41h-1.576v-.41zm16.055 0h1.576v.41h-1.576v-.41z" id="Fill-5"/><path d="M19.092 7.598c.063.167.216.269.38.269l.147-.029 1.657-.664c.21-.084.314-.328.233-.545-.081-.217-.317-.325-.527-.241l-1.657.664c-.21.084-.314.328-.233.545" id="Fill-6"/><path d="M14.317 5.416c.063.168.217.27.38.27l.147-.029c.21-.084.314-.328.233-.545l-.642-1.714c-.081-.216-.317-.324-.526-.24-.21.084-.314.328-.233.545l.641 1.714" id="Fill-7"/><path d="M10.752 6.874l1.737.793.164.036c.156 0 .306-.094.373-.251.091-.213-.002-.461-.208-.555l-1.736-.793c-.206-.094-.446.002-.537.215-.091.213.002.461.208.556" id="Fill-8"/><path d="M17.357 5.717l.164.036c.156 0 .305-.094.372-.251l.767-1.796c.091-.213-.002-.461-.208-.556-.206-.094-.446.002-.537.215l-.767 1.796c-.091.213.002.461.208.556" id="Fill-9"/><path d="M18.418 6.492c.08.088.188.132.296.132.1 0 .201-.038.279-.115l.876-.856c.163-.16.171-.426.016-.595-.154-.169-.412-.177-.576-.017l-.876.856c-.163.16-.171.426-.016.595" id="Fill-10"/><path d="M13.199 6.338c.08.088.188.132.296.132.1 0 .201-.038.279-.115.164-.159.171-.426.016-.595l-.826-.906c-.154-.169-.412-.177-.575-.017-.164.16-.171.426-.017.595l.827.906" id="Fill-11"/><path d="M16.124 5.429h.012c.22 0 .4-.181.406-.409l.034-1.246c.006-.233-.17-.426-.395-.433-.224-.007-.412.177-.419.409l-.034 1.245c-.006.233.171.427.396.433" id="Fill-12"/></g><g fill="#fff" sketch:type="MSShapeGroup"><path d="M9.259 100.509c1.202 0 2.179-1.012 2.179-2.255 0-.468-.139-.903-.376-1.264-.392-.597-1.054-.99-1.803-.99-.371 0-.72.096-1.026.266-.686.38-1.153 1.128-1.153 1.988 0 1.243.978 2.255 2.179 2.255zm0-3.667c.217 0 .421.054.603.147.45.231.762.71.762 1.264 0 .779-.612 1.412-1.365 1.412-.752 0-1.365-.633-1.365-1.412 0-.647.424-1.192.999-1.358.117-.034.239-.053.366-.053z" id="Fill-1"/><path d="M9.259 99.445c.634 0 1.151-.534 1.151-1.191 0-.232-.182-.421-.407-.421-.225 0-.407.189-.407.421 0 .192-.151.349-.336.349-.225 0-.407.188-.407.421 0 .233.182.421.407.421" id="Fill-2"/><path d="M22.958 100.509c1.202 0 2.179-1.012 2.179-2.255 0-.87-.48-1.626-1.18-2.002-.3-.161-.64-.252-1-.252-.749 0-1.411.393-1.803.99-.237.361-.376.796-.376 1.264 0 1.243.978 2.255 2.179 2.255zm-.603-3.519c.182-.093.386-.147.603-.147.119 0 .235.017.346.048.586.159 1.019.71 1.019 1.364 0 .779-.612 1.412-1.365 1.412-.752 0-1.365-.633-1.365-1.412 0-.554.311-1.033.762-1.264z" id="Fill-3"/><path d="M22.958 99.445c.634 0 1.151-.534 1.151-1.191 0-.232-.183-.421-.408-.421-.225 0-.407.189-.407.421 0 .192-.151.349-.336.349-.225 0-.407.188-.407.421 0 .233.182.421.407.421" id="Fill-4"/><path d="M26.384 105.127h-.302l.532-3.118c.056-.267.825-4.122-.826-6.248-.456-.587-1.048-.984-1.767-1.19l-.254-2.384c-.025-.745-.56-1.346-1.224-1.379l-6.335-.737h-.182l-6.385.737c-.665.033-1.2.634-1.225 1.379l-.249 2.346c-.783.193-1.422.603-1.908 1.229-1.651 2.127-.882 5.981-.826 6.248l.532 3.118h-.133c-.45 0-.814.377-.814.842 0 .422.299.77.69.832v1.263c0 .466.364.842.814.842h3.204c.45 0 .815-.377.815-.842v-1.253h3.102c.004.23.184.415.407.415h3.948c.223 0 .403-.185.407-.415h3.358v1.253c0 .466.365.842.814.842h3.205c.45 0 .814-.377.814-.842v-1.282c.347-.096.603-.423.603-.813 0-.465-.365-.842-.814-.842zm-20.155-3.29c-.008-.037-.766-3.709.666-5.55.312-.401.7-.682 1.176-.851.355-.126.757-.189 1.212-.189.174 0 .319.01.444.025l.183.032c.278.063.437.172.62.298.338.232.721.494 1.697.494.792 0 1.356-.373 1.835-.792l.382-.351c.414-.393.781-.739 1.258-.868v3.084h-1.352c-.225 0-.408.188-.408.421 0 .233.183.421.408.421h.498l.1.279c.059.166.211.275.382.275h1.559c.17 0 .322-.11.382-.275l.1-.279h.498c.225 0 .407-.189.407-.421 0-.233-.182-.421-.407-.421h-1.353v-3.029c.398.157.726.468 1.09.813l.381.351c.479.419 1.042.792 1.835.792.976 0 1.359-.263 1.697-.494.183-.126.342-.235.62-.298l.317-.046.31-.012c.515 0 .964.081 1.352.243.412.172.755.437 1.035.797 1.432 1.841.673 5.513.666 5.549l-.004.017-.302 1.772c-.038-.622-.538-1.117-1.149-1.117h-.971v-.377c0-.465-.364-.842-.814-.842-.195 0-.374.071-.514.19l-.081-.112-.53-1.038c-.067-.131-.196-.216-.339-.223l-4.964-.266h-.042l-5 .266c-.143.008-.272.093-.339.224l-.595 1.165c-.143-.127-.328-.204-.531-.204-.45 0-.815.377-.815.842v.377h-.971c-.636 0-1.153.535-1.153 1.193s.517 1.193 1.153 1.193h.971v.232h-2.034l-.558-3.273-.004-.017zm11.361 4.132v.414h-3.134v-1.488h3.134v1.074zm7.665-.842h-1.865v-.232h.971c.47 0 .875-.293 1.054-.711l-.161.943zm-4.417-4.192l.162.317h-4.486v-.549l4.324.231zm.923 2.49v.627h-5.247v-.701h5.247v.074zm-11.308 0v-.074h5.246v.701h-5.246v-.627zm13.908.627h-.971v-.701h.971c.187 0 .339.157.339.35 0 .194-.152.35-.339.35zm-2.719-1.543h-5.128v-.414h4.917l.211.414zm-5.942-1.257h-4.486l.162-.317 4.324-.23v.547zm0 .843v.414h-5.128l.212-.414h4.916zm-6.876 1.957h-.971c-.187 0-.339-.157-.339-.35 0-.193.152-.35.339-.35h.971v.701zm9.58.842h3.358v.232h-3.358v-.232zm-7.95 0h3.188v.232h-3.188v-.232zm-.429-12.437l6.09-.703 6.042.703.208 1.964c-.69.061-1.011.281-1.299.478-.288.198-.516.354-1.247.354l-.151-.007 2.218-1.168c.2-.105.28-.359.178-.566-.102-.207-.347-.29-.548-.184l-2.736 1.44-.078.055c-.184-.144-.362-.312-.55-.491-.508-.482-1.081-1.027-1.934-1.127l-.02-.005-.021-.005-.06-.006-.013-.001h-.01l-.071.002h-.008l-.196.015c-.851.101-1.424.646-1.932 1.127-.521.494-.971.922-1.666.922-.605 0-.866-.107-1.101-.257l1.903-.911c.204-.098.293-.348.198-.559-.094-.211-.336-.303-.54-.206l-2.487 1.19-.385-.075.21-1.978zm-2.689 14.353h1.576v.41h-1.576v-.41zm16.055 0h1.576v.41h-1.576v-.41z" id="Fill-5"/><path d="M19.092 89.598c.063.167.216.269.38.269l.147-.029 1.657-.664c.21-.084.314-.328.233-.545-.081-.217-.317-.325-.527-.241l-1.657.664c-.21.084-.314.328-.233.545" id="Fill-6"/><path d="M14.317 87.416c.063.168.217.27.38.27l.147-.029c.21-.084.314-.328.233-.545l-.642-1.714c-.081-.216-.317-.324-.526-.24-.21.084-.314.328-.233.545l.641 1.714" id="Fill-7"/><path d="M10.752 88.874l1.737.793.164.036c.156 0 .306-.094.373-.251.091-.213-.002-.461-.208-.555l-1.736-.793c-.206-.094-.446.002-.537.215-.091.213.002.461.208.556" id="Fill-8"/><path d="M17.357 87.717l.164.036c.156 0 .305-.094.372-.251l.767-1.796c.091-.213-.002-.461-.208-.556-.206-.094-.446.002-.537.215l-.767 1.796c-.091.213.002.461.208.556" id="Fill-9"/><path d="M18.418 88.492c.08.088.188.132.296.132.1 0 .201-.038.279-.115l.876-.856c.163-.16.171-.426.016-.595-.154-.169-.412-.177-.576-.017l-.876.856c-.163.16-.171.426-.016.595" id="Fill-10"/><path d="M13.199 88.338c.08.088.188.132.296.132.1 0 .201-.038.279-.115.164-.159.171-.426.016-.595l-.826-.906c-.154-.169-.412-.177-.575-.017-.164.16-.171.426-.017.595l.827.906" id="Fill-11"/><path d="M16.124 87.429h.012c.22 0 .4-.181.406-.409l.034-1.246c.006-.233-.17-.426-.395-.433-.224-.007-.412.177-.419.409l-.034 1.245c-.006.233.171.427.396.433" id="Fill-12"/></g><g fill="#67737B" sketch:type="MSShapeGroup"><path d="M9.259 58.509c1.202 0 2.179-1.012 2.179-2.255 0-.468-.139-.903-.376-1.264-.392-.597-1.054-.99-1.803-.99-.371 0-.72.096-1.026.266-.686.38-1.153 1.128-1.153 1.988 0 1.243.978 2.255 2.179 2.255zm0-3.667c.217 0 .421.054.603.147.45.231.762.71.762 1.264 0 .779-.612 1.412-1.365 1.412-.752 0-1.365-.633-1.365-1.412 0-.647.424-1.192.999-1.358.117-.034.239-.053.366-.053z"/><path d="M9.259 57.445c.634 0 1.151-.534 1.151-1.191 0-.232-.182-.421-.407-.421-.225 0-.407.189-.407.421 0 .192-.151.349-.336.349-.225 0-.407.188-.407.421 0 .233.182.421.407.421"/><path d="M22.958 58.509c1.202 0 2.179-1.012 2.179-2.255 0-.87-.48-1.626-1.18-2.002-.3-.161-.64-.252-1-.252-.749 0-1.411.393-1.803.99-.237.361-.376.796-.376 1.264 0 1.243.978 2.255 2.179 2.255zm-.603-3.519c.182-.093.386-.147.603-.147.119 0 .235.017.346.048.586.159 1.019.71 1.019 1.364 0 .779-.612 1.412-1.365 1.412-.752 0-1.365-.633-1.365-1.412 0-.554.311-1.033.762-1.264z"/><path d="M22.958 57.445c.634 0 1.151-.534 1.151-1.191 0-.232-.183-.421-.408-.421-.225 0-.407.189-.407.421 0 .192-.151.349-.336.349-.225 0-.407.188-.407.421 0 .233.182.421.407.421"/><path d="M26.384 63.127h-.302l.532-3.118c.056-.267.825-4.122-.826-6.248-.456-.587-1.048-.984-1.767-1.19l-.254-2.384c-.025-.745-.56-1.346-1.224-1.379l-6.335-.737h-.182l-6.385.737c-.665.033-1.2.634-1.225 1.379l-.249 2.346c-.783.193-1.422.603-1.908 1.229-1.651 2.127-.882 5.981-.826 6.248l.532 3.118h-.133c-.45 0-.814.377-.814.842 0 .422.299.77.69.832v1.263c0 .466.364.842.814.842h3.204c.45 0 .815-.377.815-.842v-1.253h3.102c.004.23.184.415.407.415h3.948c.223 0 .403-.185.407-.415h3.358v1.253c0 .466.365.842.814.842h3.205c.45 0 .814-.377.814-.842v-1.282c.347-.096.603-.423.603-.813 0-.465-.365-.842-.814-.842zm-20.155-3.29c-.008-.037-.766-3.709.666-5.55.312-.401.7-.682 1.176-.851.355-.126.757-.189 1.212-.189.174 0 .319.01.444.025l.183.032c.278.063.437.172.62.298.338.232.721.494 1.697.494.792 0 1.356-.373 1.835-.792l.382-.351c.414-.393.781-.739 1.258-.868v3.084h-1.352c-.225 0-.408.188-.408.421 0 .233.183.421.408.421h.498l.1.279c.059.166.211.275.382.275h1.559c.17 0 .322-.11.382-.275l.1-.279h.498c.225 0 .407-.189.407-.421 0-.233-.182-.421-.407-.421h-1.353v-3.029c.398.157.726.468 1.09.813l.381.351c.479.419 1.042.792 1.835.792.976 0 1.359-.263 1.697-.494.183-.126.342-.235.62-.298l.317-.046.31-.012c.515 0 .964.081 1.352.243.412.172.755.437 1.035.797 1.432 1.841.673 5.513.666 5.549l-.004.017-.302 1.772c-.038-.622-.538-1.117-1.149-1.117h-.971v-.377c0-.465-.364-.842-.814-.842-.195 0-.374.071-.514.19l-.081-.112-.53-1.038c-.067-.131-.196-.216-.339-.223l-4.964-.266h-.042l-5 .266c-.143.008-.272.093-.339.224l-.595 1.165c-.143-.127-.328-.204-.531-.204-.45 0-.815.377-.815.842v.377h-.971c-.636 0-1.153.535-1.153 1.193s.517 1.193 1.153 1.193h.971v.232h-2.034l-.558-3.273-.004-.017zm11.361 4.132v.414h-3.134v-1.488h3.134v1.074zm7.665-.842h-1.865v-.232h.971c.47 0 .875-.293 1.054-.711l-.161.943zm-4.417-4.192l.162.317h-4.486v-.549l4.324.231zm.923 2.49v.627h-5.247v-.701h5.247v.074zm-11.308 0v-.074h5.246v.701h-5.246v-.627zm13.908.627h-.971v-.701h.971c.187 0 .339.157.339.35 0 .194-.152.35-.339.35zm-2.719-1.543h-5.128v-.414h4.917l.211.414zm-5.942-1.257h-4.486l.162-.317 4.324-.23v.547zm0 .843v.414h-5.128l.212-.414h4.916zm-6.876 1.957h-.971c-.187 0-.339-.157-.339-.35 0-.193.152-.35.339-.35h.971v.701zm9.58.842h3.358v.232h-3.358v-.232zm-7.95 0h3.188v.232h-3.188v-.232zm-.429-12.437l6.09-.703 6.042.703.208 1.964c-.69.061-1.011.281-1.299.478-.288.198-.516.354-1.247.354l-.151-.007 2.218-1.168c.2-.105.28-.359.178-.566-.102-.207-.347-.29-.548-.184l-2.736 1.44-.078.055c-.184-.144-.362-.312-.55-.491-.508-.482-1.081-1.027-1.934-1.127l-.02-.005-.021-.005-.06-.006-.013-.001h-.01l-.071.002h-.008l-.196.015c-.851.101-1.424.646-1.932 1.127-.521.494-.971.922-1.666.922-.605 0-.866-.107-1.101-.257l1.903-.911c.204-.098.293-.348.198-.559-.094-.211-.336-.303-.54-.206l-2.487 1.19-.385-.075.21-1.978zm-2.689 14.353h1.576v.41h-1.576v-.41zm16.055 0h1.576v.41h-1.576v-.41z"/><path d="M19.092 47.598c.063.167.216.269.38.269l.147-.029 1.657-.664c.21-.084.314-.328.233-.545-.081-.217-.317-.325-.527-.241l-1.657.664c-.21.084-.314.328-.233.545"/><path d="M14.317 45.416c.063.168.217.27.38.27l.147-.029c.21-.084.314-.328.233-.545l-.642-1.714c-.081-.216-.317-.324-.526-.24-.21.084-.314.328-.233.545l.641 1.714"/><path d="M10.752 46.874l1.737.793.164.036c.156 0 .306-.094.373-.251.091-.213-.002-.461-.208-.555l-1.736-.793c-.206-.094-.446.002-.537.215-.091.213.002.461.208.556"/><path d="M17.357 45.717l.164.036c.156 0 .305-.094.372-.251l.767-1.796c.091-.213-.002-.461-.208-.556-.206-.094-.446.002-.537.215l-.767 1.796c-.091.213.002.461.208.556"/><path d="M18.418 46.492c.08.088.188.132.296.132.1 0 .201-.038.279-.115l.876-.856c.163-.16.171-.426.016-.595-.154-.169-.412-.177-.576-.017l-.876.856c-.163.16-.171.426-.016.595"/><path d="M13.199 46.338c.08.088.188.132.296.132.1 0 .201-.038.279-.115.164-.159.171-.426.016-.595l-.826-.906c-.154-.169-.412-.177-.575-.017-.164.16-.171.426-.017.595l.827.906"/><path d="M16.124 45.429h.012c.22 0 .4-.181.406-.409l.034-1.246c.006-.233-.17-.426-.395-.433-.224-.007-.412.177-.419.409l-.034 1.245c-.006.233.171.427.396.433"/></g><g fill="#206FAC" sketch:type="MSShapeGroup"><path d="M9.259 138.509c1.202 0 2.179-1.012 2.179-2.255 0-.468-.139-.903-.376-1.264-.392-.597-1.054-.99-1.803-.99-.371 0-.72.096-1.026.266-.686.38-1.153 1.128-1.153 1.988 0 1.243.978 2.255 2.179 2.255zm0-3.667c.217 0 .421.054.603.147.45.231.762.71.762 1.264 0 .779-.612 1.412-1.365 1.412-.752 0-1.365-.633-1.365-1.412 0-.647.424-1.192.999-1.358.117-.034.239-.053.366-.053zM9.259 137.445c.634 0 1.151-.534 1.151-1.191 0-.232-.182-.421-.407-.421-.225 0-.407.189-.407.421 0 .192-.151.349-.336.349-.225 0-.407.188-.407.421 0 .233.182.421.407.421"/><path d="M22.958 138.509c1.202 0 2.179-1.012 2.179-2.255 0-.87-.48-1.626-1.18-2.002-.3-.161-.64-.252-1-.252-.749 0-1.411.393-1.803.99-.237.361-.376.796-.376 1.264 0 1.243.978 2.255 2.179 2.255zm-.603-3.519c.182-.093.386-.147.603-.147.119 0 .235.017.346.048.586.159 1.019.71 1.019 1.364 0 .779-.612 1.412-1.365 1.412-.752 0-1.365-.633-1.365-1.412 0-.554.311-1.033.762-1.264zM22.958 137.445c.634 0 1.151-.534 1.151-1.191 0-.232-.183-.421-.408-.421-.225 0-.407.189-.407.421 0 .192-.151.349-.336.349-.225 0-.407.188-.407.421 0 .233.182.421.407.421"/><path d="M26.384 143.127h-.302l.532-3.118c.056-.267.825-4.122-.826-6.248-.456-.587-1.048-.984-1.767-1.19l-.254-2.384c-.025-.745-.56-1.346-1.224-1.379l-6.335-.737h-.182l-6.385.737c-.665.033-1.2.634-1.225 1.379l-.249 2.346c-.783.193-1.422.603-1.908 1.229-1.651 2.127-.882 5.981-.826 6.248l.532 3.118h-.133c-.45 0-.814.377-.814.842 0 .422.299.77.69.832v1.263c0 .466.364.842.814.842h3.204c.45 0 .815-.377.815-.842v-1.253h3.102c.004.23.184.415.407.415h3.948c.223 0 .403-.185.407-.415h3.358v1.253c0 .466.365.842.814.842h3.205c.45 0 .814-.377.814-.842v-1.282c.347-.096.603-.423.603-.813 0-.465-.365-.842-.814-.842zm-20.155-3.29c-.008-.037-.766-3.709.666-5.55.312-.401.7-.682 1.176-.851.355-.126.757-.189 1.212-.189.174 0 .319.01.444.025l.183.032c.278.063.437.172.62.298.338.232.721.494 1.697.494.792 0 1.356-.373 1.835-.792l.382-.351c.414-.393.781-.739 1.258-.868v3.084h-1.352c-.225 0-.408.188-.408.421 0 .233.183.421.408.421h.498l.1.279c.059.166.211.275.382.275h1.559c.17 0 .322-.11.382-.275l.1-.279h.498c.225 0 .407-.189.407-.421 0-.233-.182-.421-.407-.421h-1.353v-3.029c.398.157.726.468 1.09.813l.381.351c.479.419 1.042.792 1.835.792.976 0 1.359-.263 1.697-.494.183-.126.342-.235.62-.298l.317-.046.31-.012c.515 0 .964.081 1.352.243.412.172.755.437 1.035.797 1.432 1.841.673 5.513.666 5.549l-.004.017-.302 1.772c-.038-.622-.538-1.117-1.149-1.117h-.971v-.377c0-.465-.364-.842-.814-.842-.195 0-.374.071-.514.19l-.081-.112-.53-1.038c-.067-.131-.196-.216-.339-.223l-4.964-.266h-.042l-5 .266c-.143.008-.272.093-.339.224l-.595 1.165c-.143-.127-.328-.204-.531-.204-.45 0-.815.377-.815.842v.377h-.971c-.636 0-1.153.535-1.153 1.193s.517 1.193 1.153 1.193h.971v.232h-2.034l-.558-3.273-.004-.017zm11.361 4.132v.414h-3.134v-1.488h3.134v1.074zm7.665-.842h-1.865v-.232h.971c.47 0 .875-.293 1.054-.711l-.161.943zm-4.417-4.192l.162.317h-4.486v-.549l4.324.231zm.923 2.49v.627h-5.247v-.701h5.247v.074zm-11.308 0v-.074h5.246v.701h-5.246v-.627zm13.908.627h-.971v-.701h.971c.187 0 .339.157.339.35 0 .194-.152.35-.339.35zm-2.719-1.543h-5.128v-.414h4.917l.211.414zm-5.942-1.257h-4.486l.162-.317 4.324-.23v.547zm0 .843v.414h-5.128l.212-.414h4.916zm-6.876 1.957h-.971c-.187 0-.339-.157-.339-.35 0-.193.152-.35.339-.35h.971v.701zm9.58.842h3.358v.232h-3.358v-.232zm-7.95 0h3.188v.232h-3.188v-.232zm-.429-12.437l6.09-.703 6.042.703.208 1.964c-.69.061-1.011.281-1.299.478-.288.198-.516.354-1.247.354l-.151-.007 2.218-1.168c.2-.105.28-.359.178-.566-.102-.207-.347-.29-.548-.184l-2.736 1.44-.078.055c-.184-.144-.362-.312-.55-.491-.508-.482-1.081-1.027-1.934-1.127l-.02-.005-.021-.005-.06-.006-.013-.001h-.01l-.071.002h-.008l-.196.015c-.851.101-1.424.646-1.932 1.127-.521.494-.971.922-1.666.922-.605 0-.866-.107-1.101-.257l1.903-.911c.204-.098.293-.348.198-.559-.094-.211-.336-.303-.54-.206l-2.487 1.19-.385-.075.21-1.978zm-2.689 14.353h1.576v.41h-1.576v-.41zm16.055 0h1.576v.41h-1.576v-.41zM19.092 127.598c.063.167.216.269.38.269l.147-.029 1.657-.664c.21-.084.314-.328.233-.545-.081-.217-.317-.325-.527-.241l-1.657.664c-.21.084-.314.328-.233.545M14.317 125.416c.063.168.217.27.38.27l.147-.029c.21-.084.314-.328.233-.545l-.642-1.714c-.081-.216-.317-.324-.526-.24-.21.084-.314.328-.233.545l.641 1.714M10.752 126.874l1.737.793.164.036c.156 0 .306-.094.373-.251.091-.213-.002-.461-.208-.555l-1.736-.793c-.206-.094-.446.002-.537.215-.091.213.002.461.208.556M17.357 125.717l.164.036c.156 0 .305-.094.372-.251l.767-1.796c.091-.213-.002-.461-.208-.556-.206-.094-.446.002-.537.215l-.767 1.796c-.091.213.002.461.208.556M18.418 126.492c.08.088.188.132.296.132.1 0 .201-.038.279-.115l.876-.856c.163-.16.171-.426.016-.595-.154-.169-.412-.177-.576-.017l-.876.856c-.163.16-.171.426-.016.595M13.199 126.338c.08.088.188.132.296.132.1 0 .201-.038.279-.115.164-.159.171-.426.016-.595l-.826-.906c-.154-.169-.412-.177-.575-.017-.164.16-.171.426-.017.595l.827.906M16.124 125.429h.012c.22 0 .4-.181.406-.409l.034-1.246c.006-.233-.17-.426-.395-.433-.224-.007-.412.177-.419.409l-.034 1.245c-.006.233.171.427.396.433"/></g></g></svg>