<svg width="32" height="232" viewBox="0 0 32 232" xmlns="http://www.w3.org/2000/svg" xmlns:sketch="http://www.bohemiancoding.com/sketch/ns"><title>Cuba</title><g sketch:type="MSLayerGroup" fill="none"><g fill="#373D43" sketch:type="MSShapeGroup"><path d="M20.669 46.016c.284-.249.69-.249.972-.023l.013.031c.065.145.204.237.357.237h.054c.153 0 .293-.092.357-.237l.012-.031c.283-.226.688-.226.972.023.166.146.415.123.555-.05.14-.174.118-.433-.048-.579-.544-.477-1.312-.499-1.875-.107-.564-.392-1.331-.37-1.875.107-.167.146-.189.405-.048.579.139.174.388.196.555.05" id="Fill-1"/><path d="M19.506 47.922c.123-.108.296-.115.425-.029.067.136.202.222.35.222h.034c.148 0 .283-.086.35-.222.129-.085.302-.078.425.029.167.146.415.123.555-.05.14-.174.118-.433-.049-.579-.375-.328-.894-.364-1.299-.128-.404-.235-.923-.2-1.299.128-.167.146-.188.405-.048.579.14.174.388.196.555.05" id="Fill-2"/><path d="M28.588 55.369c-.14-.146-.598-.619-1.251-1.217l.017-.065c.027-.152-.03-.307-.147-.401-.095-.075-1.419-1.125-3.023-2.012-1.166-.744-2.39-1.301-3.442-1.301-1.545 0-2.875.252-3.847.728-.855.419-1.443 1.025-1.722 1.754-.22-.139-.456-.281-.702-.419-.086-.122-.138-.27-.138-.45 0-.454.217-.626 1.016-1.024.727-.362 1.824-.909 1.824-2.341 0-.875-.338-1.395-.622-1.677l-.226-.191c-.132-.803-.91-1.612-1.923-1.612-.809 0-1.551.481-1.828 1.15-.965.393-1.452 1.922-1.384 2.685.045.493.326.668.574.668.512 0 .835-.429 1.121-.807.136-.18.276-.365.418-.483.321.186.702.286 1.098.286.434 0 .835-.121 1.158-.326.029.1.038.213.038.307 0 .33-.156.474-.928.859-.708.352-1.75.873-1.895 2.19-.403-.129-.795-.207-1.155-.207-.927 0-1.872.178-2.593.489-.379.163-.681.356-.897.569-.26.256-.398.541-.398.84l.006.11-.217-.104c-.085-.067-.199-.207-.199-.649 0-.402.285-.73.653-1.048l.374-.307c.615-.495 1.382-1.11 1.083-2.058-.187-.591-.607-.891-1.044-1.025-.244-.457-.773-.771-1.337-.771-.165 0-.327.027-.481.08-.591.203-1.027.735-1.095 1.298-.533.497-.59 1.507-.442 2.103.136.548.43.63.593.63l.155-.026c.407-.14.555-.563.673-.903l.142-.36.242.018c.192 0 .386-.033.574-.098l.283-.125c.255-.14.462-.335.606-.558l.094.219c.086.272-.077.468-.61.837l-.244.164c-.65.43-1.46.965-1.46 1.932 0 1.065.886 2.345 1.985 2.562.456.752 1.345 1.328 2.458 1.581l.011.157.313 1.178-.754.098-1.061.138c-.103.013-.196.068-.26.153l-.504.662c-.135.178-.106.436.064.577.072.06.159.089.244.089.116 0 .231-.054.309-.156l.404-.531 1.77-.23.441 1.66-.274 1.324c-.207.046-.35.128-.463.194-.133.078-.214.125-.414.125-.201 0-.282-.047-.415-.125-.166-.097-.393-.23-.8-.23-.406 0-.634.133-.8.23-.133.078-.214.125-.415.125-.201 0-.281-.047-.415-.125-.166-.097-.393-.23-.8-.23-.218 0-.394.184-.394.411 0 .227.177.411.394.411.201 0 .282.047.415.125.166.097.394.23.8.23s.634-.133.8-.23c.133-.078.214-.125.415-.125.201 0 .281.047.415.125.166.097.394.23.801.23.313 0 .519-.079.673-.159l-.159.769h-.31c-.218 0-.394.184-.394.411 0 .227.177.41.394.41h.628c.186 0 .346-.135.385-.324l.291-1.403.121.066c.166.097.394.23.8.23.407 0 .634-.133.8-.23.134-.078.214-.125.415-.125.201 0 .282.047.415.125.166.097.393.23.8.23.406 0 .634-.133.8-.23.134-.078.214-.125.415-.125.201 0 .281.047.415.125.166.097.393.23.8.23.406 0 .634-.133.8-.23.134-.078.214-.125.415-.125.201 0 .281.047.415.125.166.097.394.23.8.23.128 0 .236-.015.332-.035l-.813 3.921h-.53c-.218 0-.394.184-.394.411 0 .227.177.41.394.41h.848c.186 0 .346-.135.385-.324l.979-4.723.002-.015h.012c.201 0 .281.047.415.125.166.097.393.23.8.23.406 0 .634-.133.801-.23.133-.078.214-.125.415-.125.201 0 .281.047.415.125.166.097.394.23.801.23.406 0 .634-.133.8-.23.134-.078.214-.125.415-.125.218 0 .394-.184.394-.411 0-.227-.177-.411-.394-.411-.406 0-.634.133-.8.23-.134.078-.214.125-.415.125-.201 0-.282-.048-.415-.125-.166-.097-.394-.23-.8-.23-.407 0-.634.133-.801.23-.133.078-.214.125-.415.125-.201 0-.281-.047-.415-.125-.166-.097-.394-.23-.8-.23l-.187.012-.554-2.087 5.077.095c.187.001.355-.134.393-.328.038-.193-.061-.388-.236-.463l-3-1.288c2.545-.335 5.31-1.101 5.458-1.142.272-.076.484-.297.557-.581.073-.283-.004-.585-.203-.793zm-15.42-7.879c-.394.166-.663.523-.902.838-.089.119-.191.253-.286.351.028-.264.125-.664.333-1.042.191-.349.419-.566.641-.61.152-.03.273-.15.31-.307.085-.365.544-.759 1.138-.759.355 0 .672.174.883.408.169.187.271.412.271.619 0 .264-.183.503-.461.656-.195.108-.435.173-.694.173-.324 0-.625-.097-.849-.274-.11-.087-.257-.107-.385-.053zm-6.598 1.992c-.131-.047-.276-.018-.382.075-.228.201-.344.478-.438.739.004-.128.019-.266.053-.401.054-.22.142-.375.248-.436.135-.078.214-.231.202-.392-.018-.237.191-.571.562-.698l.234-.039.091.006c.168.021.32.094.429.188l.075.077.081.142c.026.083.016.175-.022.266-.035.083-.093.165-.17.238l-.132.105-.238.119c-.109.038-.218.056-.327.056-.095 0-.185-.015-.266-.044zm19.854 6.03c-1.531.367-3.99.884-5.682.884-1.262 0-2.415-.358-3.188-.912-.257-.184-.472-.389-.636-.611l-.058-.084.053.032.038.021c.917.522 2.133.867 3.361.867 1.623 0 3.876-.514 5.33-.897.286.247.55.485.783.7zm-.595-1.6l-.969.252c-1.388.344-3.22.723-4.548.723-1.449 0-2.661-.49-3.392-1.032l-.314-.263c-.22-.21-.363-.418-.414-.598l-.021-.14c0-.629 1.858-1.599 4.327-1.599.962 0 2.177.515 3.279 1.124.912.504 1.747 1.072 2.294 1.467l-.241.066zm-17.101-.166l-.088-.106-.004-.006c-.077-.105-.117-.199-.117-.274 0-.121.215-.395.808-.65.629-.271 1.464-.426 2.292-.426.329 0 .731.09 1.192.261l.062.278c.155.582.458 1.162.862 1.651-.778.159-1.599.284-2.253.284-1.34 0-2.34-.562-2.754-1.013zm-.034 1.024l.081.054.139.086c.737.433 1.649.671 2.567.671.881 0 2.007-.202 2.971-.421.306.226.64.4.993.501-1.118.249-2.582.52-3.645.52-1.333 0-2.511-.53-3.018-1.267l-.088-.143zm2.717 2.474l-.069-.261.376.016.083.002h.094l.063.04 1.587.805-1.908.248-.226-.85zm8.943 4.999c-.077.035-.156.056-.288.056-.201 0-.281-.047-.415-.125-.166-.097-.394-.23-.801-.23-.407 0-.634.133-.8.23-.133.078-.214.125-.415.125-.201 0-.281-.047-.415-.125-.166-.097-.393-.23-.8-.23-.406 0-.634.133-.8.23-.134.078-.214.125-.415.125-.201 0-.281-.047-.415-.125-.166-.097-.394-.23-.801-.23-.406 0-.634.133-.8.23-.134.078-.214.125-.415.125-.201 0-.281-.047-.414-.125-.089-.052-.197-.114-.339-.16l.266-1.282-.005-.196-.435-1.641 3.111-.404c.173-.022.311-.161.339-.341.029-.179-.059-.357-.216-.436l-1.663-.843c.95-.132 1.931-.341 2.669-.515.75.742 1.836 1.29 3.11 1.538l.301 1.135-2.428-.046c-.125-.002-.24.056-.315.156l-.681.895c-.135.178-.106.436.064.577.072.06.159.089.245.089.116 0 .231-.053.309-.156l.559-.735 2.466.046.634 2.39zm3.189-3.141l-3.221-.06-.274-1.033c.227.019.459.03.694.03l.311-.005 2.49 1.069z" id="Fill-3"/><path id="Fill-4" d="M13.73 46.607c-.12 0-.218.102-.218.227s.098.227.218.227.218-.102.218-.227-.098-.227-.218-.227"/><path id="Fill-5" d="M6.639 48.781c-.091 0-.166.077-.166.173 0 .096.075.173.166.173.092 0 .166-.077.166-.173 0-.096-.075-.173-.166-.173"/></g><g fill="#67737B" sketch:type="MSShapeGroup"><path d="M20.669 86.016c.284-.249.69-.249.972-.023l.013.031c.065.145.204.237.357.237h.054c.153 0 .293-.092.357-.237l.012-.031c.283-.226.688-.226.972.023.166.146.415.123.555-.05.14-.174.118-.433-.048-.579-.544-.477-1.312-.499-1.875-.107-.564-.392-1.331-.37-1.875.107-.167.146-.189.405-.048.579.139.174.388.196.555.05" id="Fill-1"/><path d="M19.506 87.922c.123-.108.296-.115.425-.029.067.136.202.222.35.222h.034c.148 0 .283-.086.35-.222.129-.085.302-.078.425.029.167.146.415.123.555-.05.14-.174.118-.433-.049-.579-.375-.328-.894-.364-1.299-.128-.404-.235-.923-.2-1.299.128-.167.146-.188.405-.048.579.14.174.388.196.555.05" id="Fill-2"/><path d="M28.588 95.369c-.14-.146-.598-.619-1.251-1.217l.017-.065c.027-.152-.03-.307-.147-.401-.095-.075-1.419-1.125-3.023-2.012-1.166-.744-2.39-1.301-3.442-1.301-1.545 0-2.875.252-3.847.728-.855.419-1.443 1.025-1.722 1.754-.22-.139-.456-.281-.702-.419-.086-.122-.138-.27-.138-.45 0-.454.217-.626 1.016-1.024.727-.362 1.824-.909 1.824-2.341 0-.875-.338-1.395-.622-1.677l-.226-.191c-.132-.803-.91-1.612-1.923-1.612-.809 0-1.551.481-1.828 1.15-.965.393-1.452 1.922-1.384 2.685.045.493.326.668.574.668.512 0 .835-.429 1.121-.807.136-.18.276-.365.418-.483.321.186.702.286 1.098.286.434 0 .835-.121 1.158-.326.029.1.038.213.038.307 0 .33-.156.474-.928.859-.708.352-1.75.873-1.895 2.19-.403-.129-.795-.207-1.155-.207-.927 0-1.872.178-2.593.489-.379.163-.681.356-.897.569-.26.256-.398.541-.398.84l.006.11-.217-.104c-.085-.067-.199-.207-.199-.649 0-.402.285-.73.653-1.048l.374-.307c.615-.495 1.382-1.11 1.083-2.058-.187-.591-.607-.891-1.044-1.025-.244-.457-.773-.771-1.337-.771-.165 0-.327.027-.481.08-.591.203-1.027.735-1.095 1.298-.533.497-.59 1.507-.442 2.103.136.548.43.63.593.63l.155-.026c.407-.14.555-.563.673-.903l.142-.36.242.018c.192 0 .386-.033.574-.098l.283-.125c.255-.14.462-.335.606-.558l.094.219c.086.272-.077.468-.61.837l-.244.164c-.65.43-1.46.965-1.46 1.932 0 1.065.886 2.345 1.985 2.562.456.752 1.345 1.328 2.458 1.581l.011.157.313 1.178-.754.098-1.061.138c-.103.013-.196.068-.26.153l-.504.662c-.135.178-.106.436.064.577.072.06.159.089.244.089.116 0 .231-.054.309-.156l.404-.531 1.77-.23.441 1.66-.274 1.324c-.207.046-.35.128-.463.194-.133.078-.214.125-.414.125-.201 0-.282-.047-.415-.125-.166-.097-.393-.23-.8-.23-.406 0-.634.133-.8.23-.133.078-.214.125-.415.125-.201 0-.281-.047-.415-.125-.166-.097-.393-.23-.8-.23-.218 0-.394.184-.394.411 0 .227.177.411.394.411.201 0 .282.047.415.125.166.097.394.23.8.23s.634-.133.8-.23c.133-.078.214-.125.415-.125.201 0 .281.047.415.125.166.097.394.23.801.23.313 0 .519-.079.673-.159l-.159.769h-.31c-.218 0-.394.184-.394.411 0 .227.177.41.394.41h.628c.186 0 .346-.135.385-.324l.291-1.403.121.066c.166.097.394.23.8.23.407 0 .634-.133.8-.23.134-.078.214-.125.415-.125.201 0 .282.047.415.125.166.097.393.23.8.23.406 0 .634-.133.8-.23.134-.078.214-.125.415-.125.201 0 .281.047.415.125.166.097.393.23.8.23.406 0 .634-.133.8-.23.134-.078.214-.125.415-.125.201 0 .281.047.415.125.166.097.394.23.8.23.128 0 .236-.015.332-.035l-.813 3.921h-.53c-.218 0-.394.184-.394.411 0 .227.177.41.394.41h.848c.186 0 .346-.135.385-.324l.979-4.723.002-.015h.012c.201 0 .281.047.415.125.166.097.393.23.8.23.406 0 .634-.133.801-.23.133-.078.214-.125.415-.125.201 0 .281.047.415.125.166.097.394.23.801.23.406 0 .634-.133.8-.23.134-.078.214-.125.415-.125.218 0 .394-.184.394-.411 0-.227-.177-.411-.394-.411-.406 0-.634.133-.8.23-.134.078-.214.125-.415.125-.201 0-.282-.048-.415-.125-.166-.097-.394-.23-.8-.23-.407 0-.634.133-.801.23-.133.078-.214.125-.415.125-.201 0-.281-.047-.415-.125-.166-.097-.394-.23-.8-.23l-.187.012-.554-2.087 5.077.095c.187.001.355-.134.393-.328.038-.193-.061-.388-.236-.463l-3-1.288c2.545-.335 5.31-1.101 5.458-1.142.272-.076.484-.297.557-.581.073-.283-.004-.585-.203-.793zm-15.42-7.879c-.394.166-.663.523-.902.838-.089.119-.191.253-.286.351.028-.264.125-.664.333-1.042.191-.349.419-.566.641-.61.152-.03.273-.15.31-.307.085-.365.544-.759 1.138-.759.355 0 .672.174.883.408.169.187.271.412.271.619 0 .264-.183.503-.461.656-.195.108-.435.173-.694.173-.324 0-.625-.097-.849-.274-.11-.087-.257-.107-.385-.053zm-6.598 1.992c-.131-.047-.276-.018-.382.075-.228.201-.344.478-.438.739.004-.128.019-.266.053-.401.054-.22.142-.375.248-.436.135-.078.214-.231.202-.392-.018-.237.191-.571.562-.698l.234-.039.091.006c.168.021.32.094.429.188l.075.077.081.142c.026.083.016.175-.022.266-.035.083-.093.165-.17.238l-.132.105-.238.119c-.109.038-.218.056-.327.056-.095 0-.185-.015-.266-.044zm19.854 6.03c-1.531.367-3.99.884-5.682.884-1.262 0-2.415-.358-3.188-.912-.257-.184-.472-.389-.636-.611l-.058-.084.053.032.038.021c.917.522 2.133.867 3.361.867 1.623 0 3.876-.514 5.33-.897.286.247.55.485.783.7zm-.595-1.6l-.969.252c-1.388.344-3.22.723-4.548.723-1.449 0-2.661-.49-3.392-1.032l-.314-.263c-.22-.21-.363-.418-.414-.598l-.021-.14c0-.629 1.858-1.599 4.327-1.599.962 0 2.177.515 3.279 1.124.912.504 1.747 1.072 2.294 1.467l-.241.066zm-17.101-.166l-.088-.106-.004-.006c-.077-.105-.117-.199-.117-.274 0-.121.215-.395.808-.65.629-.271 1.464-.426 2.292-.426.329 0 .731.09 1.192.261l.062.278c.155.582.458 1.162.862 1.651-.778.159-1.599.284-2.253.284-1.34 0-2.34-.562-2.754-1.013zm-.034 1.024l.081.054.139.086c.737.433 1.649.671 2.567.671.881 0 2.007-.202 2.971-.421.306.226.64.4.993.501-1.118.249-2.582.52-3.645.52-1.333 0-2.511-.53-3.018-1.267l-.088-.143zm2.717 2.474l-.069-.261.376.016.083.002h.094l.063.04 1.587.805-1.908.248-.226-.85zm8.943 4.999c-.077.035-.156.056-.288.056-.201 0-.281-.047-.415-.125-.166-.097-.394-.23-.801-.23-.407 0-.634.133-.8.23-.133.078-.214.125-.415.125-.201 0-.281-.047-.415-.125-.166-.097-.393-.23-.8-.23-.406 0-.634.133-.8.23-.134.078-.214.125-.415.125-.201 0-.281-.047-.415-.125-.166-.097-.394-.23-.801-.23-.406 0-.634.133-.8.23-.134.078-.214.125-.415.125-.201 0-.281-.047-.414-.125-.089-.052-.197-.114-.339-.16l.266-1.282-.005-.196-.435-1.641 3.111-.404c.173-.022.311-.161.339-.341.029-.179-.059-.357-.216-.436l-1.663-.843c.95-.132 1.931-.341 2.669-.515.75.742 1.836 1.29 3.11 1.538l.301 1.135-2.428-.046c-.125-.002-.24.056-.315.156l-.681.895c-.135.178-.106.436.064.577.072.06.159.089.245.089.116 0 .231-.053.309-.156l.559-.735 2.466.046.634 2.39zm3.189-3.141l-3.221-.06-.274-1.033c.227.019.459.03.694.03l.311-.005 2.49 1.069z" id="Fill-3"/><path id="Fill-4" d="M13.73 86.607c-.12 0-.218.102-.218.227s.098.227.218.227.218-.102.218-.227-.098-.227-.218-.227"/><path id="Fill-5" d="M6.639 88.781c-.091 0-.166.077-.166.173 0 .096.075.173.166.173.092 0 .166-.077.166-.173 0-.096-.075-.173-.166-.173"/></g><g fill="#206FAC" sketch:type="MSShapeGroup"><path d="M20.669 126.016c.284-.249.69-.249.972-.023l.013.031c.065.145.204.237.357.237h.054c.153 0 .293-.092.357-.237l.012-.031c.283-.226.688-.226.972.023.166.146.415.123.555-.05.14-.174.118-.433-.048-.579-.544-.477-1.312-.499-1.875-.107-.564-.392-1.331-.37-1.875.107-.167.146-.189.405-.048.579.139.174.388.196.555.05"/><path d="M19.506 127.922c.123-.108.296-.115.425-.029.067.136.202.222.35.222h.034c.148 0 .283-.086.35-.222.129-.085.302-.078.425.029.167.146.415.123.555-.05.14-.174.118-.433-.049-.579-.375-.328-.894-.364-1.299-.128-.404-.235-.923-.2-1.299.128-.167.146-.188.405-.048.579.14.174.388.196.555.05"/><path d="M28.588 135.369c-.14-.146-.598-.619-1.251-1.217l.017-.065c.027-.152-.03-.307-.147-.401-.095-.075-1.419-1.125-3.023-2.012-1.166-.744-2.39-1.301-3.442-1.301-1.545 0-2.875.252-3.847.728-.855.419-1.443 1.025-1.722 1.754-.22-.139-.456-.281-.702-.419-.086-.122-.138-.27-.138-.45 0-.454.217-.626 1.016-1.024.727-.362 1.824-.909 1.824-2.341 0-.875-.338-1.395-.622-1.677l-.226-.191c-.132-.803-.91-1.612-1.923-1.612-.809 0-1.551.481-1.828 1.15-.965.393-1.452 1.922-1.384 2.685.045.493.326.668.574.668.512 0 .835-.429 1.121-.807.136-.18.276-.365.418-.483.321.186.702.286 1.098.286.434 0 .835-.121 1.158-.326.029.1.038.213.038.307 0 .33-.156.474-.928.859-.708.352-1.75.873-1.895 2.19-.403-.129-.795-.207-1.155-.207-.927 0-1.872.178-2.593.489-.379.163-.681.356-.897.569-.26.256-.398.541-.398.84l.006.11-.217-.104c-.085-.067-.199-.207-.199-.649 0-.402.285-.73.653-1.048l.374-.307c.615-.495 1.382-1.11 1.083-2.058-.187-.591-.607-.891-1.044-1.025-.244-.457-.773-.771-1.337-.771-.165 0-.327.027-.481.08-.591.203-1.027.735-1.095 1.298-.533.497-.59 1.507-.442 2.103.136.548.43.63.593.63l.155-.026c.407-.14.555-.563.673-.903l.142-.36.242.018c.192 0 .386-.033.574-.098l.283-.125c.255-.14.462-.335.606-.558l.094.219c.086.272-.077.468-.61.837l-.244.164c-.65.43-1.46.965-1.46 1.932 0 1.065.886 2.345 1.985 2.562.456.752 1.345 1.328 2.458 1.581l.011.157.313 1.178-.754.098-1.061.138c-.103.013-.196.068-.26.153l-.504.662c-.135.178-.106.436.064.577.072.06.159.089.244.089.116 0 .231-.054.309-.156l.404-.531 1.77-.23.441 1.66-.274 1.324c-.207.046-.35.128-.463.194-.133.078-.214.125-.414.125-.201 0-.282-.047-.415-.125-.166-.097-.393-.23-.8-.23-.406 0-.634.133-.8.23-.133.078-.214.125-.415.125-.201 0-.281-.047-.415-.125-.166-.097-.393-.23-.8-.23-.218 0-.394.184-.394.411 0 .227.177.411.394.411.201 0 .282.047.415.125.166.097.394.23.8.23s.634-.133.8-.23c.133-.078.214-.125.415-.125.201 0 .281.047.415.125.166.097.394.23.801.23.313 0 .519-.079.673-.159l-.159.769h-.31c-.218 0-.394.184-.394.411 0 .227.177.41.394.41h.628c.186 0 .346-.135.385-.324l.291-1.403.121.066c.166.097.394.23.8.23.407 0 .634-.133.8-.23.134-.078.214-.125.415-.125.201 0 .282.047.415.125.166.097.393.23.8.23.406 0 .634-.133.8-.23.134-.078.214-.125.415-.125.201 0 .281.047.415.125.166.097.393.23.8.23.406 0 .634-.133.8-.23.134-.078.214-.125.415-.125.201 0 .281.047.415.125.166.097.394.23.8.23.128 0 .236-.015.332-.035l-.813 3.921h-.53c-.218 0-.394.184-.394.411 0 .227.177.41.394.41h.848c.186 0 .346-.135.385-.324l.979-4.723.002-.015h.012c.201 0 .281.047.415.125.166.097.393.23.8.23.406 0 .634-.133.801-.23.133-.078.214-.125.415-.125.201 0 .281.047.415.125.166.097.394.23.801.23.406 0 .634-.133.8-.23.134-.078.214-.125.415-.125.218 0 .394-.184.394-.411 0-.227-.177-.411-.394-.411-.406 0-.634.133-.8.23-.134.078-.214.125-.415.125-.201 0-.282-.048-.415-.125-.166-.097-.394-.23-.8-.23-.407 0-.634.133-.801.23-.133.078-.214.125-.415.125-.201 0-.281-.047-.415-.125-.166-.097-.394-.23-.8-.23l-.187.012-.554-2.087 5.077.095c.187.001.355-.134.393-.328.038-.193-.061-.388-.236-.463l-3-1.288c2.545-.335 5.31-1.101 5.458-1.142.272-.076.484-.297.557-.581.073-.283-.004-.585-.203-.793zm-15.42-7.879c-.394.166-.663.523-.902.838-.089.119-.191.253-.286.351.028-.264.125-.664.333-1.042.191-.349.419-.566.641-.61.152-.03.273-.15.31-.307.085-.365.544-.759 1.138-.759.355 0 .672.174.883.408.169.187.271.412.271.619 0 .264-.183.503-.461.656-.195.108-.435.173-.694.173-.324 0-.625-.097-.849-.274-.11-.087-.257-.107-.385-.053zm-6.598 1.992c-.131-.047-.276-.018-.382.075-.228.201-.344.478-.438.739.004-.128.019-.266.053-.401.054-.22.142-.375.248-.436.135-.078.214-.231.202-.392-.018-.237.191-.571.562-.698l.234-.039.091.006c.168.021.32.094.429.188l.075.077.081.142c.026.083.016.175-.022.266-.035.083-.093.165-.17.238l-.132.105-.238.119c-.109.038-.218.056-.327.056-.095 0-.185-.015-.266-.044zm19.854 6.03c-1.531.367-3.99.884-5.682.884-1.262 0-2.415-.358-3.188-.912-.257-.184-.472-.389-.636-.611l-.058-.084.053.032.038.021c.917.522 2.133.867 3.361.867 1.623 0 3.876-.514 5.33-.897.286.247.55.485.783.7zm-.595-1.6l-.969.252c-1.388.344-3.22.723-4.548.723-1.449 0-2.661-.49-3.392-1.032l-.314-.263c-.22-.21-.363-.418-.414-.598l-.021-.14c0-.629 1.858-1.599 4.327-1.599.962 0 2.177.515 3.279 1.124.912.504 1.747 1.072 2.294 1.467l-.241.066zm-17.101-.166l-.088-.106-.004-.006c-.077-.105-.117-.199-.117-.274 0-.121.215-.395.808-.65.629-.271 1.464-.426 2.292-.426.329 0 .731.09 1.192.261l.062.278c.155.582.458 1.162.862 1.651-.778.159-1.599.284-2.253.284-1.34 0-2.34-.562-2.754-1.013zm-.034 1.024l.081.054.139.086c.737.433 1.649.671 2.567.671.881 0 2.007-.202 2.971-.421.306.226.64.4.993.501-1.118.249-2.582.52-3.645.52-1.333 0-2.511-.53-3.018-1.267l-.088-.143zm2.717 2.474l-.069-.261.376.016.083.002h.094l.063.04 1.587.805-1.908.248-.226-.85zm8.943 4.999c-.077.035-.156.056-.288.056-.201 0-.281-.047-.415-.125-.166-.097-.394-.23-.801-.23-.407 0-.634.133-.8.23-.133.078-.214.125-.415.125-.201 0-.281-.047-.415-.125-.166-.097-.393-.23-.8-.23-.406 0-.634.133-.8.23-.134.078-.214.125-.415.125-.201 0-.281-.047-.415-.125-.166-.097-.394-.23-.801-.23-.406 0-.634.133-.8.23-.134.078-.214.125-.415.125-.201 0-.281-.047-.414-.125-.089-.052-.197-.114-.339-.16l.266-1.282-.005-.196-.435-1.641 3.111-.404c.173-.022.311-.161.339-.341.029-.179-.059-.357-.216-.436l-1.663-.843c.95-.132 1.931-.341 2.669-.515.75.742 1.836 1.29 3.11 1.538l.301 1.135-2.428-.046c-.125-.002-.24.056-.315.156l-.681.895c-.135.178-.106.436.064.577.072.06.159.089.245.089.116 0 .231-.053.309-.156l.559-.735 2.466.046.634 2.39zm3.189-3.141l-3.221-.06-.274-1.033c.227.019.459.03.694.03l.311-.005 2.49 1.069z"/><path d="M13.73 126.607c-.12 0-.218.102-.218.227s.098.227.218.227.218-.102.218-.227-.098-.227-.218-.227"/><path d="M6.639 128.781c-.091 0-.166.077-.166.173 0 .096.075.173.166.173.092 0 .166-.077.166-.173 0-.096-.075-.173-.166-.173"/></g><g fill="#fff" sketch:type="MSShapeGroup"><path d="M20.669 6.016c.284-.249.69-.249.972-.023l.013.031c.065.145.204.237.357.237h.054c.153 0 .293-.092.357-.237l.012-.031c.283-.226.688-.226.972.023.166.146.415.123.555-.05.14-.174.118-.433-.048-.579-.544-.477-1.312-.499-1.875-.107-.564-.392-1.331-.37-1.875.107-.167.146-.189.405-.048.579.139.174.388.196.555.05M19.506 7.922c.123-.108.296-.115.425-.029.067.136.202.222.35.222h.034c.148 0 .283-.086.35-.222.129-.085.302-.078.425.029.167.146.415.123.555-.05.14-.174.118-.433-.049-.579-.375-.328-.894-.364-1.299-.128-.404-.235-.923-.2-1.299.128-.167.146-.188.405-.048.579.14.174.388.196.555.05"/><path d="M28.588 15.369c-.14-.146-.598-.619-1.251-1.217l.017-.065c.027-.152-.03-.307-.147-.401-.095-.075-1.419-1.125-3.023-2.012-1.166-.744-2.39-1.301-3.442-1.301-1.545 0-2.875.252-3.847.728-.855.419-1.443 1.025-1.722 1.754-.22-.139-.456-.281-.702-.419-.086-.122-.138-.27-.138-.45 0-.454.217-.626 1.016-1.024.727-.362 1.824-.909 1.824-2.341 0-.875-.338-1.395-.622-1.677l-.226-.191c-.132-.803-.91-1.612-1.923-1.612-.809 0-1.551.481-1.828 1.15-.965.393-1.452 1.922-1.384 2.685.045.493.326.668.574.668.512 0 .835-.429 1.121-.807.136-.18.276-.365.418-.483.321.186.702.286 1.098.286.434 0 .835-.121 1.158-.326.029.1.038.213.038.307 0 .33-.156.474-.928.859-.708.352-1.75.873-1.895 2.19-.403-.129-.795-.207-1.155-.207-.927 0-1.872.178-2.593.489-.379.163-.681.356-.897.569-.26.256-.398.541-.398.84l.006.11-.217-.104c-.085-.067-.199-.207-.199-.649 0-.402.285-.73.653-1.048l.374-.307c.615-.495 1.382-1.11 1.083-2.058-.187-.591-.607-.891-1.044-1.025-.244-.457-.773-.771-1.337-.771-.165 0-.327.027-.481.08-.591.203-1.027.735-1.095 1.298-.533.497-.59 1.507-.442 2.103.136.548.43.63.593.63l.155-.026c.407-.14.555-.563.673-.903l.142-.36.242.018c.192 0 .386-.033.574-.098l.283-.125c.255-.14.462-.335.606-.558l.094.219c.086.272-.077.468-.61.837l-.244.164c-.65.43-1.46.965-1.46 1.932 0 1.065.886 2.345 1.985 2.562.456.752 1.345 1.328 2.458 1.581l.011.157.313 1.178-.754.098-1.061.138c-.103.013-.196.068-.26.153l-.504.662c-.135.178-.106.436.064.577.072.06.159.089.244.089.116 0 .231-.054.309-.156l.404-.531 1.77-.23.441 1.66-.274 1.324c-.207.046-.35.128-.463.194-.133.078-.214.125-.414.125-.201 0-.282-.047-.415-.125-.166-.097-.393-.23-.8-.23-.406 0-.634.133-.8.23-.133.078-.214.125-.415.125-.201 0-.281-.047-.415-.125-.166-.097-.393-.23-.8-.23-.218 0-.394.184-.394.411 0 .227.177.411.394.411.201 0 .282.047.415.125.166.097.394.23.8.23s.634-.133.8-.23c.133-.078.214-.125.415-.125.201 0 .281.047.415.125.166.097.394.23.801.23.313 0 .519-.079.673-.159l-.159.769h-.31c-.218 0-.394.184-.394.411 0 .227.177.41.394.41h.628c.186 0 .346-.135.385-.324l.291-1.403.121.066c.166.097.394.23.8.23.407 0 .634-.133.8-.23.134-.078.214-.125.415-.125.201 0 .282.047.415.125.166.097.393.23.8.23.406 0 .634-.133.8-.23.134-.078.214-.125.415-.125.201 0 .281.047.415.125.166.097.393.23.8.23.406 0 .634-.133.8-.23.134-.078.214-.125.415-.125.201 0 .281.047.415.125.166.097.394.23.8.23.128 0 .236-.015.332-.035l-.813 3.921h-.53c-.218 0-.394.184-.394.411 0 .227.177.41.394.41h.848c.186 0 .346-.135.385-.324l.979-4.723.002-.015h.012c.201 0 .281.047.415.125.166.097.393.23.8.23.406 0 .634-.133.801-.23.133-.078.214-.125.415-.125.201 0 .281.047.415.125.166.097.394.23.801.23.406 0 .634-.133.8-.23.134-.078.214-.125.415-.125.218 0 .394-.184.394-.411 0-.227-.177-.411-.394-.411-.406 0-.634.133-.8.23-.134.078-.214.125-.415.125-.201 0-.282-.048-.415-.125-.166-.097-.394-.23-.8-.23-.407 0-.634.133-.801.23-.133.078-.214.125-.415.125-.201 0-.281-.047-.415-.125-.166-.097-.394-.23-.8-.23l-.187.012-.554-2.087 5.077.095c.187.001.355-.134.393-.328.038-.193-.061-.388-.236-.463l-3-1.288c2.545-.335 5.31-1.101 5.458-1.142.272-.076.484-.297.557-.581.073-.283-.004-.585-.203-.793zm-15.42-7.879c-.394.166-.663.523-.902.838-.089.119-.191.253-.286.351.028-.264.125-.664.333-1.042.191-.349.419-.566.641-.61.152-.03.273-.15.31-.307.085-.365.544-.759 1.138-.759.355 0 .672.174.883.408.169.187.271.412.271.619 0 .264-.183.503-.461.656-.195.108-.435.173-.694.173-.324 0-.625-.097-.849-.274-.11-.087-.257-.107-.385-.053zm-6.598 1.992c-.131-.047-.276-.018-.382.075-.228.201-.344.478-.438.739.004-.128.019-.266.053-.401.054-.22.142-.375.248-.436.135-.078.214-.231.202-.392-.018-.237.191-.571.562-.698l.234-.039.091.006c.168.021.32.094.429.188l.075.077.081.142c.026.083.016.175-.022.266-.035.083-.093.165-.17.238l-.132.105-.238.119c-.109.038-.218.056-.327.056-.095 0-.185-.015-.266-.044zm19.854 6.03c-1.531.367-3.99.884-5.682.884-1.262 0-2.415-.358-3.188-.912-.257-.184-.472-.389-.636-.611l-.058-.084.053.032.038.021c.917.522 2.133.867 3.361.867 1.623 0 3.876-.514 5.33-.897.286.247.55.485.783.7zm-.595-1.6l-.969.252c-1.388.344-3.22.723-4.548.723-1.449 0-2.661-.49-3.392-1.032l-.314-.263c-.22-.21-.363-.418-.414-.598l-.021-.14c0-.629 1.858-1.599 4.327-1.599.962 0 2.177.515 3.279 1.124.912.504 1.747 1.072 2.294 1.467l-.241.066zm-17.101-.166l-.088-.106-.004-.006c-.077-.105-.117-.199-.117-.274 0-.121.215-.395.808-.65.629-.271 1.464-.426 2.292-.426.329 0 .731.09 1.192.261l.062.278c.155.582.458 1.162.862 1.651-.778.159-1.599.284-2.253.284-1.34 0-2.34-.562-2.754-1.013zm-.034 1.024l.081.054.139.086c.737.433 1.649.671 2.567.671.881 0 2.007-.202 2.971-.421.306.226.64.4.993.501-1.118.249-2.582.52-3.645.52-1.333 0-2.511-.53-3.018-1.267l-.088-.143zm2.717 2.474l-.069-.261.376.016.083.002h.094l.063.04 1.587.805-1.908.248-.226-.85zm8.943 4.999c-.077.035-.156.056-.288.056-.201 0-.281-.047-.415-.125-.166-.097-.394-.23-.801-.23-.407 0-.634.133-.8.23-.133.078-.214.125-.415.125-.201 0-.281-.047-.415-.125-.166-.097-.393-.23-.8-.23-.406 0-.634.133-.8.23-.134.078-.214.125-.415.125-.201 0-.281-.047-.415-.125-.166-.097-.394-.23-.801-.23-.406 0-.634.133-.8.23-.134.078-.214.125-.415.125-.201 0-.281-.047-.414-.125-.089-.052-.197-.114-.339-.16l.266-1.282-.005-.196-.435-1.641 3.111-.404c.173-.022.311-.161.339-.341.029-.179-.059-.357-.216-.436l-1.663-.843c.95-.132 1.931-.341 2.669-.515.75.742 1.836 1.29 3.11 1.538l.301 1.135-2.428-.046c-.125-.002-.24.056-.315.156l-.681.895c-.135.178-.106.436.064.577.072.06.159.089.245.089.116 0 .231-.053.309-.156l.559-.735 2.466.046.634 2.39zm3.189-3.141l-3.221-.06-.274-1.033c.227.019.459.03.694.03l.311-.005 2.49 1.069zM13.73 6.607c-.12 0-.218.102-.218.227s.098.227.218.227.218-.102.218-.227-.098-.227-.218-.227M6.639 8.781c-.091 0-.166.077-.166.173 0 .096.075.173.166.173.092 0 .166-.077.166-.173 0-.096-.075-.173-.166-.173"/></g></g></svg>