<svg width="32" height="232" viewBox="0 0 32 232" xmlns="http://www.w3.org/2000/svg" xmlns:sketch="http://www.bohemiancoding.com/sketch/ns"><title>Prague</title><g sketch:type="MSPage" fill="none"><g sketch:type="MSLayerGroup"><g fill="#373D43" sketch:type="MSShapeGroup"><path d="M12.816 15.905c-.275 0-.498.23-.498.514 0 .284.223.514.498.514s.498-.23.498-.514c0-.284-.223-.514-.498-.514" id="Fill-1"/><path d="M17.693 14.039c-.015-.337-.285-.605-.615-.605s-.6.268-.615.605v2.26h1.23v-2.26" id="Fill-2"/><path d="M23.122 18.532c-.33 0-.6.268-.615.605v2.26h1.229v-2.26c-.015-.336-.285-.605-.615-.605" id="Fill-3"/><path d="M23.122 22.88c-.33 0-.6.268-.615.605v2.26h1.229v-2.26c-.015-.337-.285-.605-.615-.605" id="Fill-4"/><path d="M9.171 14.039c-.015-.337-.285-.605-.615-.605s-.599.268-.615.605v2.26h1.229v-2.26" id="Fill-5"/><path d="M17.078 18.999c-.33 0-.6.268-.615.605v1.541h1.23v-1.541c-.015-.336-.285-.605-.615-.605" id="Fill-6"/><path d="M8.556 18.999c-.33 0-.599.268-.615.605v1.541h1.229v-1.541c-.015-.336-.285-.605-.615-.605" id="Fill-7"/><path d="M17.078 21.655c-.33 0-.6.268-.615.605v1.54h1.23v-1.54c-.015-.337-.285-.605-.615-.605" id="Fill-8"/><path d="M8.556 21.655c-.33 0-.599.268-.615.605v1.54h1.229v-1.54c-.015-.337-.285-.605-.615-.605" id="Fill-9"/><path d="M26.702 26.882h-.754v-9.441h.267c.223 0 .404-.187.404-.416 0-.175-.104-.325-.253-.387l-1.52-.749-1.355-8.425v-1.747c0-.23-.18-.417-.404-.417-.223 0-.403.187-.403.417v1.704l-1.287 8.469-1.539.759c-.17.084-.261.278-.22.468.042.19.205.324.394.324h.265v9.441h-.943v-8.832c0-.308-.163-.576-.404-.72v-5.214h.159c.223 0 .404-.187.404-.416 0-.23-.18-.417-.404-.417h-.159v-2.359c0-.216-.16-.396-.368-.415-.207-.018-.396.129-.433.341l-.129.74-.538-6.329v-.903c0-.23-.181-.416-.404-.416-.223 0-.404.187-.404.416v.903l-.538 6.33-.129-.741c-.037-.212-.226-.359-.433-.341-.208.019-.368.198-.368.415v2.359h-.159c-.223 0-.404.187-.404.417 0 .229.181.416.404.416h.159v4.866l-1.986-4.303v-.618h.083c.223 0 .404-.187.404-.417 0-.23-.181-.416-.404-.416h-.083v-.085c0-.23-.181-.417-.403-.417-.223 0-.404.187-.404.417v.085h-.083c-.222 0-.403.186-.403.416 0 .23.181.417.403.417h.083v.618l-1.986 4.303v-4.866h.159c.223 0 .403-.187.403-.416 0-.23-.18-.417-.403-.417h-.159v-2.359c0-.216-.159-.396-.367-.415-.207-.018-.396.129-.433.341l-.129.74-.538-6.329v-.903c0-.23-.18-.416-.403-.416-.223 0-.404.187-.404.416v.903l-.537 6.33-.129-.741c-.037-.212-.227-.359-.433-.341-.208.019-.368.198-.368.415v2.359h-.159c-.223 0-.404.187-.404.417 0 .229.181.416.404.416h.159v5.214c-.241.144-.404.412-.404.72v8.832h-.608c-.446 0-.807.373-.807.833 0 .46.362.833.807.833h1.263l.153.016h11.458l.153-.016h8.003c.446 0 .807-.373.807-.833 0-.46-.361-.833-.807-.833zm-15.49-9.665l1.604-3.476 1.604 3.476.129.279h-3.465l.128-.279zm.833 9.665v-5.224c0-.156.319-.49.77-.755.388.231.772.572.772.755v5.224h-1.542zm.947-6.824c-.111-.056-.242-.056-.353 0-.234.117-1.402.748-1.402 1.601v5.224h-.811v-7.999h4.779v7.999h-.812v-5.224c0-.853-1.167-1.483-1.401-1.601zm-5.098 6.824h-.404v-8.332h2.128v8.332h-1.725zm9.843 0h-1.725v-8.332h2.129v8.332h-.404zm-.386-15.599h-.549l.274-3.233.275 3.233zm-1.339.833h2.13v5.602h-2.129v-5.602zm-7.183-.833h-.549l.275-3.233.274 3.233zm-1.339.833h2.128v5.602h-2.128v-5.602zm14.446 4.431c.12-.059.204-.176.225-.311l.933-6.144.989 6.148c.021.134.105.249.224.308l.125.061h-2.62l.125-.061zm-.025.894h2.421v9.441h-2.421v-9.441z" id="Fill-10"/></g><g id="Prague-copy" fill="#fff" sketch:type="MSShapeGroup"><path d="M12.608 96.119c-.268 0-.485.234-.485.522 0 .288.217.522.485.522.267 0 .485-.234.485-.522 0-.288-.217-.522-.485-.522" id="Fill-1"/><path d="M17.354 94.224c-.015-.342-.277-.614-.599-.614-.321 0-.584.272-.598.614v2.295h1.197v-2.295" id="Fill-2"/><path d="M22.639 98.786c-.321 0-.584.272-.598.614v2.295h1.196v-2.295c-.015-.341-.277-.614-.598-.614" id="Fill-3"/><path d="M22.639 103.201c-.321 0-.584.272-.598.614v2.295h1.196v-2.295c-.015-.342-.277-.614-.598-.614" id="Fill-4"/><path d="M9.059 94.224c-.015-.342-.277-.614-.598-.614-.321 0-.583.272-.598.614v2.295h1.196v-2.295" id="Fill-5"/><path d="M16.755 99.26c-.321 0-.584.272-.598.614v1.564h1.197v-1.564c-.015-.341-.277-.614-.599-.614" id="Fill-6"/><path d="M8.461 99.26c-.321 0-.583.272-.598.614v1.564h1.196v-1.564c-.015-.341-.277-.614-.598-.614" id="Fill-7"/><path d="M16.755 101.957c-.321 0-.584.272-.598.614v1.564h1.197v-1.564c-.015-.342-.277-.614-.599-.614" id="Fill-8"/><path d="M8.461 101.957c-.321 0-.583.272-.598.614v1.564h1.196v-1.564c-.015-.342-.277-.614-.598-.614" id="Fill-9"/><path d="M26.123 107.265h-.734v-9.586h.26c.217 0 .393-.189.393-.423 0-.178-.102-.33-.246-.393l-1.479-.761-1.318-8.554v-1.774c0-.234-.176-.423-.393-.423-.217 0-.393.189-.393.423v1.73l-1.253 8.599-1.498.771c-.166.085-.254.282-.214.475.041.193.2.329.383.329h.258v9.586h-.918v-8.968c0-.313-.159-.585-.393-.731v-5.294h.154c.217 0 .393-.19.393-.423 0-.234-.176-.423-.393-.423h-.154v-2.396c0-.22-.156-.402-.358-.421-.201-.018-.386.131-.422.346l-.125.752-.523-6.427v-.917c0-.233-.176-.423-.393-.423-.217 0-.393.189-.393.423v.917l-.523 6.427-.126-.752c-.036-.215-.22-.364-.422-.346-.202.019-.358.201-.358.421v2.396h-.154c-.217 0-.393.189-.393.423 0 .233.176.423.393.423h.154v4.941l-1.933-4.369v-.627h.081c.217 0 .393-.189.393-.423 0-.233-.176-.422-.393-.422h-.081v-.087c0-.234-.176-.423-.393-.423-.217 0-.393.189-.393.423v.087h-.081c-.217 0-.393.189-.393.422 0 .234.176.423.393.423h.081v.627l-1.933 4.369v-4.941h.155c.217 0 .393-.19.393-.423 0-.234-.176-.423-.393-.423h-.155v-2.396c0-.22-.155-.402-.357-.421-.202-.018-.386.131-.422.346l-.126.752-.523-6.427v-.917c0-.233-.176-.423-.393-.423-.217 0-.393.189-.393.423v.917l-.523 6.427-.126-.752c-.036-.215-.221-.364-.422-.346-.203.019-.358.201-.358.421v2.396h-.154c-.217 0-.393.189-.393.423 0 .233.176.423.393.423h.154v5.294c-.235.146-.393.418-.393.731v8.968h-.592c-.434 0-.786.378-.786.846 0 .467.352.846.786.846h1.229l.149.016h11.152l.149-.016h7.789c.434 0 .786-.379.786-.846 0-.467-.352-.846-.786-.846zm-15.076-9.813l1.561-3.529 1.561 3.529.125.283h-3.373l.125-.283zm.811 9.813v-5.304c0-.159.311-.498.75-.767.377.234.751.58.751.767v5.304h-1.501zm.922-6.929c-.108-.057-.235-.057-.344 0-.228.119-1.364.759-1.364 1.625v5.304h-.789v-8.122h4.652v8.122h-.79v-5.304c0-.866-1.136-1.506-1.364-1.625zm-4.962 6.929h-.393v-8.46h2.071v8.46h-1.679zm9.58 0h-1.679v-8.46h2.072v8.46h-.393zm-.376-15.839h-.534l.267-3.282.267 3.282zm-1.303.846h2.072v5.688h-2.072v-5.688zm-6.991-.846h-.535l.267-3.282.267 3.282zm-1.303.846h2.072v5.688h-2.071v-5.688zm14.06 4.499c.117-.06.199-.179.219-.316l.909-6.239.962 6.242c.021.136.102.253.218.312l.122.062h-2.55l.121-.062zm-.025.908h2.357v9.586h-2.357v-9.586z" id="Fill-10"/></g><g fill="#67737B" sketch:type="MSShapeGroup"><path d="M12.608 56.119c-.268 0-.485.234-.485.522 0 .288.217.522.485.522.267 0 .485-.234.485-.522 0-.288-.217-.522-.485-.522" id="Fill-1"/><path d="M17.354 54.224c-.015-.342-.277-.614-.599-.614-.321 0-.584.272-.598.614v2.295h1.197v-2.295" id="Fill-2"/><path d="M22.639 58.786c-.321 0-.584.272-.598.614v2.295h1.196v-2.295c-.015-.341-.277-.614-.598-.614" id="Fill-3"/><path d="M22.639 63.201c-.321 0-.584.272-.598.614v2.295h1.196v-2.295c-.015-.342-.277-.614-.598-.614" id="Fill-4"/><path d="M9.059 54.224c-.015-.342-.277-.614-.598-.614-.321 0-.583.272-.598.614v2.295h1.196v-2.295" id="Fill-5"/><path d="M16.755 59.26c-.321 0-.584.272-.598.614v1.564h1.197v-1.564c-.015-.341-.277-.614-.599-.614" id="Fill-6"/><path d="M8.461 59.26c-.321 0-.583.272-.598.614v1.564h1.196v-1.564c-.015-.341-.277-.614-.598-.614" id="Fill-7"/><path d="M16.755 61.957c-.321 0-.584.272-.598.614v1.564h1.197v-1.564c-.015-.342-.277-.614-.599-.614" id="Fill-8"/><path d="M8.461 61.957c-.321 0-.583.272-.598.614v1.564h1.196v-1.564c-.015-.342-.277-.614-.598-.614" id="Fill-9"/><path d="M26.123 67.265h-.734v-9.586h.26c.217 0 .393-.189.393-.423 0-.178-.102-.33-.246-.393l-1.479-.761-1.318-8.554v-1.774c0-.234-.176-.423-.393-.423-.217 0-.393.189-.393.423v1.73l-1.253 8.599-1.498.771c-.166.085-.254.282-.214.475.041.193.2.329.383.329h.258v9.586h-.918v-8.968c0-.313-.159-.585-.393-.731v-5.294h.154c.217 0 .393-.19.393-.423 0-.234-.176-.423-.393-.423h-.154v-2.396c0-.22-.156-.402-.358-.421-.201-.018-.386.131-.422.346l-.125.752-.523-6.427v-.917c0-.233-.176-.423-.393-.423-.217 0-.393.189-.393.423v.917l-.523 6.427-.126-.752c-.036-.215-.22-.364-.422-.346-.202.019-.358.201-.358.421v2.396h-.154c-.217 0-.393.189-.393.423 0 .233.176.423.393.423h.154v4.941l-1.933-4.369v-.627h.081c.217 0 .393-.189.393-.423 0-.233-.176-.422-.393-.422h-.081v-.087c0-.234-.176-.423-.393-.423-.217 0-.393.189-.393.423v.087h-.081c-.217 0-.393.189-.393.422 0 .234.176.423.393.423h.081v.627l-1.933 4.369v-4.941h.155c.217 0 .393-.19.393-.423 0-.234-.176-.423-.393-.423h-.155v-2.396c0-.22-.155-.402-.357-.421-.202-.018-.386.131-.422.346l-.126.752-.523-6.427v-.917c0-.233-.176-.423-.393-.423-.217 0-.393.189-.393.423v.917l-.523 6.427-.126-.752c-.036-.215-.221-.364-.422-.346-.203.019-.358.201-.358.421v2.396h-.154c-.217 0-.393.189-.393.423 0 .233.176.423.393.423h.154v5.294c-.235.146-.393.418-.393.731v8.968h-.592c-.434 0-.786.378-.786.846 0 .467.352.846.786.846h1.229l.149.016h11.152l.149-.016h7.789c.434 0 .786-.379.786-.846 0-.467-.352-.846-.786-.846zm-15.076-9.813l1.561-3.529 1.561 3.529.125.283h-3.373l.125-.283zm.811 9.813v-5.304c0-.159.311-.498.75-.767.377.234.751.58.751.767v5.304h-1.501zm.922-6.929c-.108-.057-.235-.057-.344 0-.228.119-1.364.759-1.364 1.625v5.304h-.789v-8.122h4.652v8.122h-.79v-5.304c0-.866-1.136-1.506-1.364-1.625zm-4.962 6.929h-.393v-8.46h2.071v8.46h-1.679zm9.58 0h-1.679v-8.46h2.072v8.46h-.393zm-.376-15.839h-.534l.267-3.282.267 3.282zm-1.303.846h2.072v5.688h-2.072v-5.688zm-6.991-.846h-.535l.267-3.282.267 3.282zm-1.303.846h2.072v5.688h-2.071v-5.688zm14.06 4.499c.117-.06.199-.179.219-.316l.909-6.239.962 6.242c.021.136.102.253.218.312l.122.062h-2.55l.121-.062zm-.025.908h2.357v9.586h-2.357v-9.586z" id="Fill-10"/></g><g fill="#206FAC" sketch:type="MSShapeGroup"><path d="M12.608 135.119c-.268 0-.485.234-.485.522 0 .288.217.522.485.522.267 0 .485-.234.485-.522 0-.288-.217-.522-.485-.522"/><path d="M17.354 133.224c-.015-.342-.277-.614-.599-.614-.321 0-.584.272-.598.614v2.295h1.197v-2.295"/><path d="M22.639 137.786c-.321 0-.584.272-.598.614v2.295h1.196v-2.295c-.015-.341-.277-.614-.598-.614"/><path d="M22.639 142.201c-.321 0-.584.272-.598.614v2.295h1.196v-2.295c-.015-.342-.277-.614-.598-.614"/><path d="M9.059 133.224c-.015-.342-.277-.614-.598-.614-.321 0-.583.272-.598.614v2.295h1.196v-2.295"/><path d="M16.755 138.26c-.321 0-.584.272-.598.614v1.564h1.197v-1.564c-.015-.341-.277-.614-.599-.614"/><path d="M8.461 138.26c-.321 0-.583.272-.598.614v1.564h1.196v-1.564c-.015-.341-.277-.614-.598-.614"/><path d="M16.755 140.957c-.321 0-.584.272-.598.614v1.564h1.197v-1.564c-.015-.342-.277-.614-.599-.614"/><path d="M8.461 140.957c-.321 0-.583.272-.598.614v1.564h1.196v-1.564c-.015-.342-.277-.614-.598-.614"/><path d="M26.123 146.265h-.734v-9.586h.26c.217 0 .393-.189.393-.423 0-.178-.102-.33-.246-.393l-1.479-.761-1.318-8.554v-1.774c0-.234-.176-.423-.393-.423-.217 0-.393.189-.393.423v1.73l-1.253 8.599-1.498.771c-.166.085-.254.282-.214.475.041.193.2.329.383.329h.258v9.586h-.918v-8.968c0-.313-.159-.585-.393-.731v-5.294h.154c.217 0 .393-.19.393-.423 0-.234-.176-.423-.393-.423h-.154v-2.396c0-.22-.156-.402-.358-.421-.201-.018-.386.131-.422.346l-.125.752-.523-6.427v-.917c0-.233-.176-.423-.393-.423-.217 0-.393.189-.393.423v.917l-.523 6.427-.126-.752c-.036-.215-.22-.364-.422-.346-.202.019-.358.201-.358.421v2.396h-.154c-.217 0-.393.189-.393.423 0 .233.176.423.393.423h.154v4.941l-1.933-4.369v-.627h.081c.217 0 .393-.189.393-.423 0-.233-.176-.422-.393-.422h-.081v-.087c0-.234-.176-.423-.393-.423-.217 0-.393.189-.393.423v.087h-.081c-.217 0-.393.189-.393.422 0 .234.176.423.393.423h.081v.627l-1.933 4.369v-4.941h.155c.217 0 .393-.19.393-.423 0-.234-.176-.423-.393-.423h-.155v-2.396c0-.22-.155-.402-.357-.421-.202-.018-.386.131-.422.346l-.126.752-.523-6.427v-.917c0-.233-.176-.423-.393-.423-.217 0-.393.189-.393.423v.917l-.523 6.427-.126-.752c-.036-.215-.221-.364-.422-.346-.203.019-.358.201-.358.421v2.396h-.154c-.217 0-.393.189-.393.423 0 .233.176.423.393.423h.154v5.294c-.235.146-.393.418-.393.731v8.968h-.592c-.434 0-.786.378-.786.846 0 .467.352.846.786.846h1.229l.149.016h11.152l.149-.016h7.789c.434 0 .786-.379.786-.846 0-.467-.352-.846-.786-.846zm-15.076-9.813l1.561-3.529 1.561 3.529.125.283h-3.373l.125-.283zm.811 9.813v-5.304c0-.159.311-.498.75-.767.377.234.751.58.751.767v5.304h-1.501zm.922-6.929c-.108-.057-.235-.057-.344 0-.228.119-1.364.759-1.364 1.625v5.304h-.789v-8.122h4.652v8.122h-.79v-5.304c0-.866-1.136-1.506-1.364-1.625zm-4.962 6.929h-.393v-8.46h2.071v8.46h-1.679zm9.58 0h-1.679v-8.46h2.072v8.46h-.393zm-.376-15.839h-.534l.267-3.282.267 3.282zm-1.303.846h2.072v5.688h-2.072v-5.688zm-6.991-.846h-.535l.267-3.282.267 3.282zm-1.303.846h2.072v5.688h-2.071v-5.688zm14.06 4.499c.117-.06.199-.179.219-.316l.909-6.239.962 6.242c.021.136.102.253.218.312l.122.062h-2.55l.121-.062zm-.025.908h2.357v9.586h-2.357v-9.586z"/></g></g></g></svg>