<svg width="32" height="232" viewBox="0 0 32 232" xmlns="http://www.w3.org/2000/svg" xmlns:sketch="http://www.bohemiancoding.com/sketch/ns"><title>Dominican-Republic</title><g sketch:type="MSLayerGroup" fill="none"><g fill="#373D43" sketch:type="MSShapeGroup"><path d="M15.733 5.934c.289-.262.702-.262.989-.023l.013.033c.066.153.208.25.363.25h.055c.156 0 .297-.098.363-.25l.013-.033c.288-.239.701-.239.99.023.169.155.422.13.565-.053.143-.183.121-.457-.049-.61-.554-.503-1.335-.527-1.909-.113-.574-.414-1.355-.39-1.909.113-.17.154-.192.427-.049.61.142.184.395.208.565.053" id="Fill-1"/><path d="M14.55 7.947c.126-.114.301-.121.432-.032.069.144.206.235.357.235h.035c.15 0 .288-.091.357-.235.131-.09.306-.083.432.032.169.154.422.13.565-.054.142-.183.12-.457-.049-.611-.382-.347-.91-.383-1.322-.135-.412-.248-.94-.211-1.322.135-.169.154-.192.428-.049.611.142.184.395.207.565.054" id="Fill-2"/><path d="M28.442 25.795h-5.007l.215-1.202c.429-.006.666-.13.856-.231.158-.083.271-.143.533-.143s.375.06.533.143c.195.104.438.232.885.232.448 0 .69-.128.885-.232.157-.083.271-.143.533-.143.222 0 .401-.195.401-.434s-.18-.434-.401-.434c-.447 0-.69.129-.885.232-.158.083-.271.143-.533.143s-.376-.06-.533-.143c-.195-.103-.438-.232-.885-.232s-.69.129-.885.232c-.114.06-.206.108-.347.13l.351-1.963c.067.021.137.026.206.009l.286-.073.248.171c.091.063.202.083.308.056l.286-.073.248.17c.091.063.202.083.308.056l.286-.073.249.171c.091.063.202.083.307.056l.286-.073.248.171c.065.045.139.068.215.068l.092-.012.39-.1.046.003c.079 0 .159-.025.228-.078.182-.137.227-.407.1-.604l-3.544-5.513c-.061-.096-.156-.161-.262-.18-.106-.02-.215.008-.303.077l-5.024 3.946c-.179.141-.219.412-.089.605.059.087.142.142.232.165l.342.236c.091.063.202.083.308.056l.286-.073.248.17c.091.063.202.083.307.057l.286-.073.248.171c.091.063.202.083.308.056l.286-.073.248.171c.092.063.202.083.308.056l.286-.073.248.17.15.062-.346 1.936c-.184-.095-.42-.195-.816-.195-.448 0-.69.129-.885.232-.157.083-.271.143-.533.143s-.375-.06-.533-.143c-.195-.103-.438-.232-.885-.232s-.69.129-.885.232c-.157.083-.271.143-.533.143s-.375-.06-.533-.143c-.195-.103-.438-.232-.885-.232s-.69.129-.885.232c-.157.083-.271.143-.532.143-.262 0-.375-.06-.533-.143-.195-.103-.438-.232-.885-.232s-.69.129-.885.232c-.158.083-.271.143-.533.143s-.375-.06-.533-.143c-.195-.103-.437-.232-.885-.232-.334 0-.553.072-.724.151.206-.726.531-1.464 1.046-2.075.815-.967 1.982-1.458 3.469-1.458 1.833 0 3.523-.776 4.759-2.183 1.037-1.181 1.68-2.72 1.852-4.406.354.374.585.85.66 1.374.088.612-.05 1.221-.389 1.713-.132.192-.095.464.082.607.072.058.156.086.239.086.122 0 .243-.06.322-.175.468-.68.659-1.52.538-2.364-.084-.583-.308-1.12-.648-1.572.959-.01 1.881.617 2.242 1.621.061.172.213.276.374.276l.145-.029c.206-.087.309-.338.229-.562-.48-1.336-1.701-2.174-2.977-2.172.634-.636 1.61-.836 2.487-.426.203.095.44-.006.527-.226.088-.22-.006-.475-.208-.57-1.059-.496-2.228-.323-3.079.344-.132-1.127-.815-2.167-1.874-2.663-.203-.095-.44.006-.527.226-.088.22.006.475.209.57.877.411 1.41 1.317 1.415 2.251-.871-1.007-2.272-1.396-3.502-.86-.206.089-.305.342-.222.564.083.222.317.33.522.24.924-.403 1.978-.106 2.628.658-.537.041-1.053.232-1.503.565-.653.482-1.088 1.207-1.227 2.041-.039.236.106.461.324.503l.071.007c.191 0 .359-.147.394-.357.1-.603.416-1.128.89-1.478.321-.237.688-.376 1.072-.412-.29 3.208-2.556 5.315-5.824 5.315-2.562 0-4.533 1.426-5.7 4.125-.123.285-.231.569-.325.847-.152-.055-.342-.099-.6-.099l-.062.001.226-3.787c.366-.121.774-.183 1.224-.183 2.603 0 4.16-3.553 4.734-5.171.513.067.97.331 1.291.75.315.411.461.927.41 1.452-.022.238.137.451.358.476l.041.002c.203 0 .377-.166.398-.389.073-.759-.137-1.502-.59-2.094-.291-.38-.659-.67-1.076-.853.697-.411 1.59-.367 2.242.184.175.147.427.114.563-.075.136-.189.106-.461-.069-.608-.905-.765-2.145-.829-3.114-.264.07-.207.172-.404.306-.584.327-.439.799-.721 1.328-.795.22-.031.375-.248.347-.485-.028-.238-.228-.405-.449-.375-.735.103-1.393.497-1.85 1.111-.141.19-.257.392-.349.605-.585-.763-1.529-1.196-2.528-1.056-.219.031-.375.248-.346.486.028.238.228.405.449.375.775-.109 1.501.259 1.903.884-1.07-.281-2.253.123-2.949 1.11-.134.19-.1.463.076.607.072.06.158.089.243.089.121 0 .24-.059.319-.171.535-.76 1.473-1.038 2.282-.745-.532 1.307-1.894 4.042-3.969 4.042-.398 0-.775.045-1.132.132l.468-7.852c.408.197.75.514.988.922.306.525.403 1.142.273 1.739-.051.233.082.466.298.521l.092.011c.182 0 .346-.135.39-.334.18-.825.046-1.678-.375-2.4-.291-.498-.695-.895-1.172-1.164.877-.422 1.953-.242 2.653.524.078.086.182.129.285.129.102 0 .204-.041.282-.125.158-.168.16-.442.004-.612-.932-1.021-2.36-1.265-3.53-.716.348-.856 1.17-1.459 2.126-1.459.221 0 .401-.194.401-.434 0-.239-.18-.433-.401-.433-1.155 0-2.163.661-2.698 1.638-.535-.978-1.543-1.638-2.698-1.638-.221 0-.401.194-.401.433s.18.434.401.434c.956 0 1.778.603 2.126 1.459-1.17-.55-2.598-.305-3.53.716-.156.17-.154.445.004.612.078.084.18.125.282.125.103 0 .207-.043.285-.129.7-.767 1.776-.946 2.653-.524-.478.269-.881.666-1.172 1.164-.422.722-.555 1.575-.375 2.4.043.2.208.334.39.334l.093-.011c.215-.055.349-.288.299-.521-.13-.597-.033-1.214.273-1.739.229-.392.554-.7.94-.899l-.906 8.366c-.34.221-.654.494-.938.822-.905 1.046-1.493 2.599-1.749 4.614-.097.759-.125 1.437-.13 1.923-.232.152-.388.427-.388.742 0 .479.359.867.802.867h23.814c.442 0 .802-.388.802-.867s-.359-.867-.802-.867zm-19.385-.894c-.035.331-.051.634-.058.894h-.117c.041-.259.098-.562.175-.894zm18.1-3.639l-.286.073-.248-.171c-.091-.063-.202-.083-.307-.056l-.286.073-.248-.17c-.091-.063-.202-.083-.308-.056l-.286.073-.248-.171c-.091-.063-.202-.083-.307-.056l-.286.073-.248-.171c-.091-.063-.202-.083-.307-.056l-.286.073-.248-.171c-.091-.063-.202-.083-.307-.056l-.286.073-.248-.171c-.091-.063-.202-.083-.308-.056l-.286.073-.248-.17c-.091-.063-.202-.083-.307-.057l-.286.073-.248-.171-.133-.057 3.93-3.087 2.772 4.312-.144.007zm-16.825 3.1c.157-.083.271-.143.532-.143.262 0 .375.06.533.143.195.104.438.232.885.232s.69-.128.885-.232c.158-.083.271-.143.533-.143s.375.06.533.143c.195.104.438.232.885.232s.69-.128.884-.232c.158-.083.271-.143.533-.143s.375.06.533.143c.195.104.438.232.885.232s.69-.128.885-.232c.157-.083.271-.143.532-.143.262 0 .375.06.533.143.195.104.438.232.885.232s.69-.128.885-.232c.158-.083.271-.143.533-.143s.375.06.533.143l.126.065-.245 1.368h-12.815c.01-.349.04-.784.113-1.259.174-.047.303-.115.415-.174zm-2.302-.143c.156 0 .259.021.351.057-.156.585-.253 1.112-.313 1.519h-.245l.093-1.571.114-.005zm-2.081 1.575c-.042-.368-.082-.841-.089-1.365.133.064.295.125.519.151l-.131 1.214h-.299zm.844-5.223l.024-.031-.344 3.178c-.168-.018-.267-.069-.393-.136l-.193-.096c.074-1.033.315-2.122.906-2.916zm-1.773 5.223c.005-.27.019-.593.046-.95.015.353.041.675.072.95h-.118z" id="Fill-3"/></g><g fill="#67737B" sketch:type="MSShapeGroup"><path d="M15.634 45.911c.286-.255.696-.255.981-.022l.013.032c.065.149.206.244.36.244h.055c.154 0 .295-.095.36-.244l.012-.032c.285-.232.695-.232.982.022.168.151.419.127.56-.052.141-.178.12-.445-.049-.595-.55-.49-1.324-.514-1.893-.11-.569-.403-1.343-.38-1.893.11-.168.15-.19.416-.049.595.141.179.392.203.56.052" id="Fill-1"/><path d="M14.461 47.872c.125-.111.298-.118.429-.031.068.14.204.229.354.229h.035c.149 0 .285-.089.354-.229.13-.088.304-.081.429.031.168.15.419.127.56-.052.141-.178.119-.445-.049-.595-.379-.338-.903-.374-1.311-.132-.408-.242-.932-.206-1.311.132-.168.15-.19.417-.049.595.141.179.392.202.56.052" id="Fill-2"/><path d="M28.236 65.266h-4.964l.213-1.171c.425-.005.66-.127.849-.225.156-.081.269-.139.529-.139s.372.059.529.139c.193.101.434.226.878.226s.684-.125.878-.226c.156-.081.269-.139.528-.139.22 0 .398-.19.398-.423 0-.233-.178-.423-.398-.423-.443 0-.684.125-.877.226-.156.081-.269.139-.529.139s-.373-.059-.529-.139c-.193-.1-.434-.226-.878-.226-.443 0-.684.125-.877.226-.113.059-.204.105-.345.127l.348-1.913c.066.021.136.025.205.008l.284-.071.246.166c.091.061.2.081.305.055l.284-.071.246.166c.091.061.2.081.305.055l.284-.071.246.167c.09.061.2.081.305.055l.284-.071.246.166c.064.044.138.066.214.066l.091-.011.387-.097.046.003c.079 0 .157-.024.227-.076.18-.133.225-.396.1-.588l-3.514-5.373c-.061-.093-.155-.157-.26-.176-.105-.019-.213.008-.3.075l-4.982 3.846c-.177.137-.217.401-.088.59.058.085.141.139.23.161l.339.23c.091.061.2.081.305.055l.284-.071.246.166c.09.061.2.081.305.055l.284-.071.246.166c.091.061.2.081.305.055l.284-.071.246.166c.091.061.201.081.305.055l.284-.071.246.166.149.061-.343 1.887c-.182-.092-.416-.191-.809-.191-.444 0-.684.125-.878.226-.156.081-.269.139-.528.139s-.372-.059-.528-.139c-.193-.1-.434-.226-.878-.226-.443 0-.684.125-.877.226-.156.081-.268.139-.528.139-.259 0-.372-.059-.528-.139-.193-.1-.434-.226-.877-.226s-.684.125-.878.226c-.156.081-.269.139-.528.139-.26 0-.372-.059-.529-.139-.193-.1-.434-.226-.877-.226s-.684.125-.877.226c-.156.081-.269.139-.528.139s-.372-.059-.528-.139c-.193-.1-.434-.226-.877-.226-.331 0-.548.07-.718.147.204-.708.527-1.427 1.037-2.022.808-.943 1.965-1.42 3.44-1.42 1.817 0 3.493-.756 4.719-2.128 1.029-1.151 1.666-2.651 1.836-4.294.351.364.58.828.655 1.34.087.597-.05 1.19-.386 1.669-.131.187-.095.452.082.592.071.056.154.083.237.083.121 0 .241-.059.319-.17.464-.663.654-1.481.533-2.304-.083-.568-.305-1.091-.642-1.532.951-.01 1.866.601 2.223 1.58.061.167.211.269.371.269l.144-.028c.205-.085.306-.33.227-.548-.476-1.302-1.687-2.119-2.952-2.117.629-.62 1.596-.815 2.466-.415.202.093.436-.006.523-.22.087-.214-.005-.463-.207-.555-1.05-.484-2.209-.315-3.053.335-.13-1.098-.808-2.112-1.858-2.595-.202-.093-.436.006-.523.22-.087.214.005.463.207.556.87.4 1.398 1.283 1.403 2.194-.864-.981-2.253-1.36-3.473-.838-.204.087-.302.333-.22.55.082.217.314.321.518.234.916-.393 1.961-.103 2.605.642-.533.04-1.044.226-1.491.55-.648.469-1.079 1.176-1.216 1.99-.039.23.105.449.321.49l.071.007c.189 0 .356-.143.391-.348.099-.588.412-1.1.882-1.441.318-.231.682-.367 1.063-.402-.287 3.126-2.535 5.18-5.775 5.18-2.54 0-4.495 1.39-5.652 4.02-.122.278-.229.555-.323.826-.151-.054-.339-.096-.595-.096l-.061.001.224-3.691c.363-.118.767-.178 1.213-.178 2.581 0 4.125-3.463 4.695-5.04.509.065.962.323 1.28.731.312.401.457.903.407 1.415-.022.232.136.44.355.464l.041.002c.201 0 .374-.161.395-.379.072-.739-.136-1.464-.585-2.041-.288-.371-.654-.653-1.067-.831.691-.401 1.577-.357 2.223.179.173.143.423.111.558-.073.135-.184.105-.45-.069-.593-.897-.746-2.127-.808-3.087-.257.069-.202.171-.394.303-.569.324-.428.792-.703 1.317-.775.218-.03.372-.242.344-.473-.028-.232-.227-.395-.446-.365-.729.1-1.381.485-1.834 1.083-.139.185-.255.382-.346.59-.58-.743-1.516-1.165-2.507-1.029-.218.03-.371.242-.343.473.028.232.226.395.445.365.768-.106 1.489.253 1.887.862-1.061-.274-2.234.12-2.924 1.082-.133.186-.099.451.075.592.072.059.157.087.241.087.12 0 .238-.058.316-.167.531-.741 1.461-1.011 2.263-.726-.527 1.274-1.879 3.939-3.936 3.939-.395 0-.768.044-1.122.128l.464-7.652c.404.192.743.501.98.899.304.511.4 1.113.271 1.695-.051.227.082.455.296.508l.091.011c.18 0 .343-.131.387-.326.179-.804.046-1.635-.372-2.339-.289-.486-.689-.873-1.163-1.134.87-.411 1.937-.236 2.631.511.077.084.18.125.283.125.101 0 .202-.04.279-.122.156-.164.158-.431.004-.597-.924-.995-2.34-1.233-3.5-.697.345-.834 1.16-1.422 2.108-1.422.22 0 .398-.189.398-.423 0-.233-.178-.422-.398-.422-1.145 0-2.145.644-2.676 1.596-.53-.953-1.53-1.596-2.676-1.596-.22 0-.398.189-.398.422 0 .233.178.423.398.423.948 0 1.763.588 2.108 1.422-1.16-.536-2.577-.297-3.5.697-.154.166-.153.433.004.597.077.082.179.122.28.122.102 0 .205-.042.283-.125.694-.747 1.761-.922 2.631-.511-.474.262-.874.649-1.163 1.134-.418.704-.55 1.535-.372 2.339.043.195.206.326.386.326l.092-.011c.214-.054.346-.281.296-.508-.129-.582-.033-1.183.27-1.695.227-.382.549-.682.932-.876l-.898 8.154c-.337.215-.648.482-.93.802-.897 1.019-1.48 2.532-1.734 4.496-.096.74-.124 1.4-.129 1.874-.23.148-.384.416-.384.723 0 .467.356.845.795.845h23.614c.439 0 .795-.379.795-.845 0-.467-.356-.845-.795-.845zm-19.222-.871c-.034.323-.051.618-.057.871h-.116c.041-.252.097-.548.173-.871zm17.948-3.547l-.284.071-.246-.166c-.091-.061-.2-.081-.305-.055l-.284.071-.246-.166c-.091-.061-.2-.081-.305-.055l-.284.071-.246-.166c-.09-.061-.2-.081-.305-.055l-.284.071-.246-.166c-.09-.061-.2-.081-.305-.055l-.284.071-.246-.166c-.091-.061-.201-.081-.305-.055l-.284.071-.246-.166c-.091-.061-.2-.081-.305-.054l-.284.071-.246-.166c-.09-.061-.2-.081-.305-.055l-.284.071-.246-.166-.132-.056 3.897-3.009 2.748 4.203-.143.007zm-16.684 3.021c.156-.081.269-.139.528-.139s.372.059.528.139c.193.101.434.226.877.226s.684-.125.877-.226c.156-.081.269-.139.528-.139s.372.059.528.139c.193.101.434.226.878.226.443 0 .684-.125.877-.226.156-.081.269-.139.529-.139.259 0 .372.059.528.139.193.101.434.226.877.226s.684-.125.878-.226c.156-.081.269-.139.528-.139s.372.059.529.139c.193.101.434.226.877.226s.684-.125.877-.226c.156-.081.269-.139.529-.139.259 0 .372.059.528.139l.125.063-.243 1.333h-12.707c.01-.34.04-.764.112-1.227.173-.046.3-.112.411-.17zm-2.283-.139c.155 0 .257.021.348.055-.154.57-.251 1.083-.31 1.48h-.243l.093-1.531.113-.005zm-2.064 1.535c-.042-.358-.081-.82-.088-1.33.132.063.293.122.515.147l-.13 1.183h-.297zm.837-5.09l.024-.03-.341 3.097c-.167-.017-.265-.068-.39-.132l-.192-.093c.073-1.007.312-2.068.899-2.842zm-1.758 5.09c.005-.263.018-.578.046-.926.014.344.041.658.071.926h-.117z" id="Fill-3"/></g><g fill="#206FAC" sketch:type="MSShapeGroup"><path d="M15.634 115.911c.286-.255.696-.255.981-.022l.013.032c.065.149.206.244.36.244h.055c.154 0 .295-.095.36-.244l.012-.032c.285-.232.695-.232.982.022.168.151.419.127.56-.052.141-.178.12-.445-.049-.595-.55-.49-1.324-.514-1.893-.11-.569-.403-1.343-.38-1.893.11-.168.15-.19.416-.049.595.141.179.392.203.56.052"/><path d="M14.461 117.872c.125-.111.298-.118.429-.031.068.14.204.229.354.229h.035c.149 0 .285-.089.354-.229.13-.088.304-.081.429.031.168.15.419.127.56-.052.141-.178.119-.445-.049-.595-.379-.338-.903-.374-1.311-.132-.408-.242-.932-.206-1.311.132-.168.15-.19.417-.049.595.141.179.392.202.56.052"/><path d="M28.236 135.266h-4.964l.213-1.171c.425-.005.66-.127.849-.225.156-.081.269-.139.529-.139s.372.059.529.139c.193.101.434.226.878.226s.684-.125.878-.226c.156-.081.269-.139.528-.139.22 0 .398-.19.398-.423 0-.233-.178-.423-.398-.423-.443 0-.684.125-.877.226-.156.081-.269.139-.529.139s-.373-.059-.529-.139c-.193-.1-.434-.226-.878-.226-.443 0-.684.125-.877.226-.113.059-.204.105-.345.127l.348-1.913c.066.021.136.025.205.008l.284-.071.246.166c.091.061.2.081.305.055l.284-.071.246.166c.091.061.2.081.305.055l.284-.071.246.167c.09.061.2.081.305.055l.284-.071.246.166c.064.044.138.066.214.066l.091-.011.387-.097.046.003c.079 0 .157-.024.227-.076.18-.133.225-.396.1-.588l-3.514-5.373c-.061-.093-.155-.157-.26-.176-.105-.019-.213.008-.3.075l-4.982 3.846c-.177.137-.217.401-.088.59.058.085.141.139.23.161l.339.23c.091.061.2.081.305.055l.284-.071.246.166c.09.061.2.081.305.055l.284-.071.246.166c.091.061.2.081.305.055l.284-.071.246.166c.091.061.201.081.305.055l.284-.071.246.166.149.061-.343 1.887c-.182-.092-.416-.191-.809-.191-.444 0-.684.125-.878.226-.156.081-.269.139-.528.139s-.372-.059-.528-.139c-.193-.1-.434-.226-.878-.226-.443 0-.684.125-.877.226-.156.081-.268.139-.528.139-.259 0-.372-.059-.528-.139-.193-.1-.434-.226-.877-.226s-.684.125-.878.226c-.156.081-.269.139-.528.139-.26 0-.372-.059-.529-.139-.193-.1-.434-.226-.877-.226s-.684.125-.877.226c-.156.081-.269.139-.528.139s-.372-.059-.528-.139c-.193-.1-.434-.226-.877-.226-.331 0-.548.07-.718.147.204-.708.527-1.427 1.037-2.022.808-.943 1.965-1.42 3.44-1.42 1.817 0 3.493-.756 4.719-2.128 1.029-1.151 1.666-2.651 1.836-4.294.351.364.58.828.655 1.34.087.597-.05 1.19-.386 1.669-.131.187-.095.452.082.592.071.056.154.083.237.083.121 0 .241-.059.319-.17.464-.663.654-1.481.533-2.304-.083-.568-.305-1.091-.642-1.532.951-.01 1.866.601 2.223 1.58.061.167.211.269.371.269l.144-.028c.205-.085.306-.33.227-.548-.476-1.302-1.687-2.119-2.952-2.117.629-.62 1.596-.815 2.466-.415.202.093.436-.006.523-.22.087-.214-.005-.463-.207-.555-1.05-.484-2.209-.315-3.053.335-.13-1.098-.808-2.112-1.858-2.595-.202-.093-.436.006-.523.22-.087.214.005.463.207.556.87.4 1.398 1.283 1.403 2.194-.864-.981-2.253-1.36-3.473-.838-.204.087-.302.333-.22.55.082.217.314.321.518.234.916-.393 1.961-.103 2.605.642-.533.04-1.044.226-1.491.55-.648.469-1.079 1.176-1.216 1.99-.039.23.105.449.321.49l.071.007c.189 0 .356-.143.391-.348.099-.588.412-1.1.882-1.441.318-.231.682-.367 1.063-.402-.287 3.126-2.535 5.18-5.775 5.18-2.54 0-4.495 1.39-5.652 4.02-.122.278-.229.555-.323.826-.151-.054-.339-.096-.595-.096l-.061.001.224-3.691c.363-.118.767-.178 1.213-.178 2.581 0 4.125-3.463 4.695-5.04.509.065.962.323 1.28.731.312.401.457.903.407 1.415-.022.232.136.44.355.464l.041.002c.201 0 .374-.161.395-.379.072-.739-.136-1.464-.585-2.041-.288-.371-.654-.653-1.067-.831.691-.401 1.577-.357 2.223.179.173.143.423.111.558-.073.135-.184.105-.45-.069-.593-.897-.746-2.127-.808-3.087-.257.069-.202.171-.394.303-.569.324-.428.792-.703 1.317-.775.218-.03.372-.242.344-.473-.028-.232-.227-.395-.446-.365-.729.1-1.381.485-1.834 1.083-.139.185-.255.382-.346.59-.58-.743-1.516-1.165-2.507-1.029-.218.03-.371.242-.343.473.028.232.226.395.445.365.768-.106 1.489.253 1.887.862-1.061-.274-2.234.12-2.924 1.082-.133.186-.099.451.075.592.072.059.157.087.241.087.12 0 .238-.058.316-.167.531-.741 1.461-1.011 2.263-.726-.527 1.274-1.879 3.939-3.936 3.939-.395 0-.768.044-1.122.128l.464-7.652c.404.192.743.501.98.899.304.511.4 1.113.271 1.695-.051.227.082.455.296.508l.091.011c.18 0 .343-.131.387-.326.179-.804.046-1.635-.372-2.339-.289-.486-.689-.873-1.163-1.134.87-.411 1.937-.236 2.631.511.077.084.18.125.283.125.101 0 .202-.04.279-.122.156-.164.158-.431.004-.597-.924-.995-2.34-1.233-3.5-.697.345-.834 1.16-1.422 2.108-1.422.22 0 .398-.189.398-.423 0-.233-.178-.422-.398-.422-1.145 0-2.145.644-2.676 1.596-.53-.953-1.53-1.596-2.676-1.596-.22 0-.398.189-.398.422 0 .233.178.423.398.423.948 0 1.763.588 2.108 1.422-1.16-.536-2.577-.297-3.5.697-.154.166-.153.433.004.597.077.082.179.122.28.122.102 0 .205-.042.283-.125.694-.747 1.761-.922 2.631-.511-.474.262-.874.649-1.163 1.134-.418.704-.55 1.535-.372 2.339.043.195.206.326.386.326l.092-.011c.214-.054.346-.281.296-.508-.129-.582-.033-1.183.27-1.695.227-.382.549-.682.932-.876l-.898 8.154c-.337.215-.648.482-.93.802-.897 1.019-1.48 2.532-1.734 4.496-.096.74-.124 1.4-.129 1.874-.23.148-.384.416-.384.723 0 .467.356.845.795.845h23.614c.439 0 .795-.379.795-.845 0-.467-.356-.845-.795-.845zm-19.222-.871c-.034.323-.051.618-.057.871h-.116c.041-.252.097-.548.173-.871zm17.948-3.547l-.284.071-.246-.166c-.091-.061-.2-.081-.305-.055l-.284.071-.246-.166c-.091-.061-.2-.081-.305-.055l-.284.071-.246-.166c-.09-.061-.2-.081-.305-.055l-.284.071-.246-.166c-.09-.061-.2-.081-.305-.055l-.284.071-.246-.166c-.091-.061-.201-.081-.305-.055l-.284.071-.246-.166c-.091-.061-.2-.081-.305-.054l-.284.071-.246-.166c-.09-.061-.2-.081-.305-.055l-.284.071-.246-.166-.132-.056 3.897-3.009 2.748 4.203-.143.007zm-16.684 3.021c.156-.081.269-.139.528-.139s.372.059.528.139c.193.101.434.226.877.226s.684-.125.877-.226c.156-.081.269-.139.528-.139s.372.059.528.139c.193.101.434.226.878.226.443 0 .684-.125.877-.226.156-.081.269-.139.529-.139.259 0 .372.059.528.139.193.101.434.226.877.226s.684-.125.878-.226c.156-.081.269-.139.528-.139s.372.059.529.139c.193.101.434.226.877.226s.684-.125.877-.226c.156-.081.269-.139.529-.139.259 0 .372.059.528.139l.125.063-.243 1.333h-12.707c.01-.34.04-.764.112-1.227.173-.046.3-.112.411-.17zm-2.283-.139c.155 0 .257.021.348.055-.154.57-.251 1.083-.31 1.48h-.243l.093-1.531.113-.005zm-2.064 1.535c-.042-.358-.081-.82-.088-1.33.132.063.293.122.515.147l-.13 1.183h-.297zm.837-5.09l.024-.03-.341 3.097c-.167-.017-.265-.068-.39-.132l-.192-.093c.073-1.007.312-2.068.899-2.842zm-1.758 5.09c.005-.263.018-.578.046-.926.014.344.041.658.071.926h-.117z"/></g><g fill="#fff" sketch:type="MSShapeGroup"><path d="M15.634 81.911c.286-.255.696-.255.981-.022l.013.032c.065.149.206.244.36.244h.055c.154 0 .295-.095.36-.244l.012-.032c.285-.232.695-.232.982.022.168.151.419.127.56-.052.141-.178.12-.445-.049-.595-.55-.49-1.324-.514-1.893-.11-.569-.403-1.343-.38-1.893.11-.168.15-.19.416-.049.595.141.179.392.203.56.052M14.461 83.872c.125-.111.298-.118.429-.031.068.14.204.229.354.229h.035c.149 0 .285-.089.354-.229.13-.088.304-.081.429.031.168.15.419.127.56-.052.141-.178.119-.445-.049-.595-.379-.338-.903-.374-1.311-.132-.408-.242-.932-.206-1.311.132-.168.15-.19.417-.049.595.141.179.392.202.56.052"/><path d="M28.236 101.266h-4.964l.213-1.171c.425-.005.66-.127.849-.225.156-.081.269-.139.529-.139s.372.059.529.139c.193.101.434.226.878.226s.684-.125.878-.226c.156-.081.269-.139.528-.139.22 0 .398-.19.398-.423 0-.233-.178-.423-.398-.423-.443 0-.684.125-.877.226-.156.081-.269.139-.529.139s-.373-.059-.529-.139c-.193-.1-.434-.226-.878-.226-.443 0-.684.125-.877.226-.113.059-.204.105-.345.127l.348-1.913c.066.021.136.025.205.008l.284-.071.246.166c.091.061.2.081.305.055l.284-.071.246.166c.091.061.2.081.305.055l.284-.071.246.167c.09.061.2.081.305.055l.284-.071.246.166c.064.044.138.066.214.066l.091-.011.387-.097.046.003c.079 0 .157-.024.227-.076.18-.133.225-.396.1-.588l-3.514-5.373c-.061-.093-.155-.157-.26-.176-.105-.019-.213.008-.3.075l-4.982 3.846c-.177.137-.217.401-.088.59.058.085.141.139.23.161l.339.23c.091.061.2.081.305.055l.284-.071.246.166c.09.061.2.081.305.055l.284-.071.246.166c.091.061.2.081.305.055l.284-.071.246.166c.091.061.201.081.305.055l.284-.071.246.166.149.061-.343 1.887c-.182-.092-.416-.191-.809-.191-.444 0-.684.125-.878.226-.156.081-.269.139-.528.139s-.372-.059-.528-.139c-.193-.1-.434-.226-.878-.226-.443 0-.684.125-.877.226-.156.081-.268.139-.528.139-.259 0-.372-.059-.528-.139-.193-.1-.434-.226-.877-.226s-.684.125-.878.226c-.156.081-.269.139-.528.139-.26 0-.372-.059-.529-.139-.193-.1-.434-.226-.877-.226s-.684.125-.877.226c-.156.081-.269.139-.528.139s-.372-.059-.528-.139c-.193-.1-.434-.226-.877-.226-.331 0-.548.07-.718.147.204-.708.527-1.427 1.037-2.022.808-.943 1.965-1.42 3.44-1.42 1.817 0 3.493-.756 4.719-2.128 1.029-1.151 1.666-2.651 1.836-4.294.351.364.58.828.655 1.34.087.597-.05 1.19-.386 1.669-.131.187-.095.452.082.592.071.056.154.083.237.083.121 0 .241-.059.319-.17.464-.663.654-1.481.533-2.304-.083-.568-.305-1.091-.642-1.532.951-.01 1.866.601 2.223 1.58.061.167.211.269.371.269l.144-.028c.205-.085.306-.33.227-.548-.476-1.302-1.687-2.119-2.952-2.117.629-.62 1.596-.815 2.466-.415.202.093.436-.006.523-.22.087-.214-.005-.463-.207-.555-1.05-.484-2.209-.315-3.053.335-.13-1.098-.808-2.112-1.858-2.595-.202-.093-.436.006-.523.22-.087.214.005.463.207.556.87.4 1.398 1.283 1.403 2.194-.864-.981-2.253-1.36-3.473-.838-.204.087-.302.333-.22.55.082.217.314.321.518.234.916-.393 1.961-.103 2.605.642-.533.04-1.044.226-1.491.55-.648.469-1.079 1.176-1.216 1.99-.039.23.105.449.321.49l.071.007c.189 0 .356-.143.391-.348.099-.588.412-1.1.882-1.441.318-.231.682-.367 1.063-.402-.287 3.126-2.535 5.18-5.775 5.18-2.54 0-4.495 1.39-5.652 4.02-.122.278-.229.555-.323.826-.151-.054-.339-.096-.595-.096l-.061.001.224-3.691c.363-.118.767-.178 1.213-.178 2.581 0 4.125-3.463 4.695-5.04.509.065.962.323 1.28.731.312.401.457.903.407 1.415-.022.232.136.44.355.464l.041.002c.201 0 .374-.161.395-.379.072-.739-.136-1.464-.585-2.041-.288-.371-.654-.653-1.067-.831.691-.401 1.577-.357 2.223.179.173.143.423.111.558-.073.135-.184.105-.45-.069-.593-.897-.746-2.127-.808-3.087-.257.069-.202.171-.394.303-.569.324-.428.792-.703 1.317-.775.218-.03.372-.242.344-.473-.028-.232-.227-.395-.446-.365-.729.1-1.381.485-1.834 1.083-.139.185-.255.382-.346.59-.58-.743-1.516-1.165-2.507-1.029-.218.03-.371.242-.343.473.028.232.226.395.445.365.768-.106 1.489.253 1.887.862-1.061-.274-2.234.12-2.924 1.082-.133.186-.099.451.075.592.072.059.157.087.241.087.12 0 .238-.058.316-.167.531-.741 1.461-1.011 2.263-.726-.527 1.274-1.879 3.939-3.936 3.939-.395 0-.768.044-1.122.128l.464-7.652c.404.192.743.501.98.899.304.511.4 1.113.271 1.695-.051.227.082.455.296.508l.091.011c.18 0 .343-.131.387-.326.179-.804.046-1.635-.372-2.339-.289-.486-.689-.873-1.163-1.134.87-.411 1.937-.236 2.631.511.077.084.18.125.283.125.101 0 .202-.04.279-.122.156-.164.158-.431.004-.597-.924-.995-2.34-1.233-3.5-.697.345-.834 1.16-1.422 2.108-1.422.22 0 .398-.189.398-.423 0-.233-.178-.422-.398-.422-1.145 0-2.145.644-2.676 1.596-.53-.953-1.53-1.596-2.676-1.596-.22 0-.398.189-.398.422 0 .233.178.423.398.423.948 0 1.763.588 2.108 1.422-1.16-.536-2.577-.297-3.5.697-.154.166-.153.433.004.597.077.082.179.122.28.122.102 0 .205-.042.283-.125.694-.747 1.761-.922 2.631-.511-.474.262-.874.649-1.163 1.134-.418.704-.55 1.535-.372 2.339.043.195.206.326.386.326l.092-.011c.214-.054.346-.281.296-.508-.129-.582-.033-1.183.27-1.695.227-.382.549-.682.932-.876l-.898 8.154c-.337.215-.648.482-.93.802-.897 1.019-1.48 2.532-1.734 4.496-.096.74-.124 1.4-.129 1.874-.23.148-.384.416-.384.723 0 .467.356.845.795.845h23.614c.439 0 .795-.379.795-.845 0-.467-.356-.845-.795-.845zm-19.222-.871c-.034.323-.051.618-.057.871h-.116c.041-.252.097-.548.173-.871zm17.948-3.547l-.284.071-.246-.166c-.091-.061-.2-.081-.305-.055l-.284.071-.246-.166c-.091-.061-.2-.081-.305-.055l-.284.071-.246-.166c-.09-.061-.2-.081-.305-.055l-.284.071-.246-.166c-.09-.061-.2-.081-.305-.055l-.284.071-.246-.166c-.091-.061-.201-.081-.305-.055l-.284.071-.246-.166c-.091-.061-.2-.081-.305-.054l-.284.071-.246-.166c-.09-.061-.2-.081-.305-.055l-.284.071-.246-.166-.132-.056 3.897-3.009 2.748 4.203-.143.007zm-16.684 3.021c.156-.081.269-.139.528-.139s.372.059.528.139c.193.101.434.226.877.226s.684-.125.877-.226c.156-.081.269-.139.528-.139s.372.059.528.139c.193.101.434.226.878.226.443 0 .684-.125.877-.226.156-.081.269-.139.529-.139.259 0 .372.059.528.139.193.101.434.226.877.226s.684-.125.878-.226c.156-.081.269-.139.528-.139s.372.059.529.139c.193.101.434.226.877.226s.684-.125.877-.226c.156-.081.269-.139.529-.139.259 0 .372.059.528.139l.125.063-.243 1.333h-12.707c.01-.34.04-.764.112-1.227.173-.046.3-.112.411-.17zm-2.283-.139c.155 0 .257.021.348.055-.154.57-.251 1.083-.31 1.48h-.243l.093-1.531.113-.005zm-2.064 1.535c-.042-.358-.081-.82-.088-1.33.132.063.293.122.515.147l-.13 1.183h-.297zm.837-5.09l.024-.03-.341 3.097c-.167-.017-.265-.068-.39-.132l-.192-.093c.073-1.007.312-2.068.899-2.842zm-1.758 5.09c.005-.263.018-.578.046-.926.014.344.041.658.071.926h-.117z"/></g></g></svg>