<svg width="32" height="232" viewBox="0 0 32 232" xmlns="http://www.w3.org/2000/svg" xmlns:sketch="http://www.bohemiancoding.com/sketch/ns"><title>Ecuador</title><g sketch:type="MSPage" fill="none"><g sketch:type="MSLayerGroup"><path d="M27.149 10.295c-.007-.606-.048-.993-.055-1.05-.018-.158-.08-.309-.178-.431-.054-.068-.125-.138-.212-.202l.407-1.907c.024-.113.002-.231-.061-.327-.063-.095-.162-.159-.271-.175l-1.355-.199c-.11-.016-.221.016-.307.09s-.138.181-.145.297l-.123 2.145-.008.004c-.963.014-2.212 1.26-3.711 3.705l-.118.178c-.671.7-1.571 1.041-2.745 1.041-2.08 0-4.424-1.106-5.683-1.7-.363-.171-.625-.295-.806-.359-.371-.131-.721-.198-1.04-.198-.255 0-.457.042-.606.093l-.05-.003c-.232 0-.331.176-.404.304l-.223.41c-.068.127-.132.337-.053.611.05.171.161.411.507.756-.41-.118-.714-.204-.924-.243-.279-.051-.548-.077-.798-.077-.596 0-1.004.144-1.257.283-.283-.009-.376.228-.441.399l-.204.564c-.047.131-.079.327-.006.562l-.431-.018c-.872 0-1.468.215-1.847.432-.495.055-.648.52-.716.726l-.222.709c-.077.251-.119.645.114 1.097.226.438.782 1.126 2.998 2.033 1.124.46 2.154.764 2.2.778l.913.253-.373.06c-1.287.263-2.001.8-2.38 1.222-.086.042-.164.099-.232.17-.233.246-.236.521-.238.764l.002.739c.014 1.369 1.736 1.676 2.302 1.777.969.172 2.125.209 2.923.209.578 0 .973-.018.992-.019 7.213-.368 11.979-2.482 14.166-6.284 1.954-3.398 1.296-7.196.703-9.218zm-18.939 13.583c2.464-.067 9.102-.465 13.266-2.802.142-.08.218-.238.207-.396l-.046-.167c-.104-.202-.345-.278-.538-.169-.433.243-.913.472-1.435.686-.708.29-1.495.553-2.353.786-1.462.398-3.129.709-4.964.925-.916.108-1.771.179-2.509.226-.771.049-1.414.073-1.863.084.246-.169.637-.359 1.242-.483.225-.046.69-.093 1.228-.147 1.093-.109 2.629-.264 4.275-.6 1.052-.214 2.148-.503 3.202-.902 1.225-.464 2.391-1.076 3.363-1.893.872-.733 1.587-1.631 2.046-2.734.138-.331.253-.68.342-1.049l.007-.029.06-.274.141-.679.043-.191.036-.155c.115-.497.23-.933.343-1.313l.028-.093c.136-.451.27-.822.396-1.127.164-.396.315-.682.446-.887l.079-.119.15-.191-.032.244-.078.565-.112.742c-.067.423-.142.865-.225 1.31l-.05.264-.176.862c-.141.653-.3 1.287-.473 1.857l-.088.28c-.236.722-.498 1.317-.785 1.68-.121.153-.119.368-.008.518l.061.067c.074.064.164.095.253.095.114 0 .229-.051.307-.151.353-.447.685-1.167.993-2.152.276-.881.533-1.975.77-3.276.063-.344.12-.682.171-1.007.065.346.121.717.161 1.107.092.916.091 1.934-.101 2.965-.157.844-.443 1.698-.914 2.513-1.899 3.291-6.23 5.131-12.871 5.47-.004 0-.379.018-.917.018-1.562 0-2.525-.136-3.079-.277zm-3.071-6.377c.738.247 1.842.593 3.113.921 2.525.651 4.697.978 6.479.978.413 0 .805-.018 1.177-.053.218-.021.38-.223.36-.452-.009-.097-.049-.182-.109-.247-.08-.089-.197-.141-.323-.129l-.604.04c-.484.018-.988.008-1.502-.026-2.086-.136-4.344-.65-6.112-1.142-1.078-.3-1.973-.591-2.536-.783.185-.054.435-.097.764-.097.184 0 .382.014.588.041.228.03.683.138 1.21.264.765.182 1.772.422 2.907.624.868.156 1.811.289 2.776.358.457.033.918.052 1.38.052.433 0 .851-.018 1.254-.05 1.293-.106 2.427-.382 3.4-.825.382-.174.739-.373 1.07-.599.371-.253.711-.538 1.019-.854.267-.275.509-.575.729-.898-.034.168-.075.331-.123.489-.072.236-.159.462-.26.679-.108.231-.232.452-.37.662-.134.202-.28.395-.438.578-.245.282-.518.543-.814.783-.305.247-.634.473-.982.679-1.361.808-3.003 1.317-4.575 1.651-1.75-.134-3.699-.51-5.817-1.124-.01-.003-1.019-.301-2.077-.737-.765-.315-1.262-.58-1.582-.785zm3.708-3.547c.197.036.552.139 1.001.269.544.158 1.224.355 1.987.54.468.114.968.223 1.486.317.488.087.993.161 1.504.209.437.042.879.066 1.319.066 1.845 0 3.323-.428 4.418-1.275-.814.955-1.986 1.587-3.505 1.893-.34.069-.698.121-1.072.156-.359.034-.734.053-1.125.058l-.153.001c-2.534 0-5.148-.622-6.71-.993l-.544-.128c-.409-.313-.424-.473-.424-.474l.161-.447c.082-.064.377-.257.996-.257.205 0 .427.022.661.064zm9.342.34c-.611.153-1.293.23-2.046.23-1.385 0-2.806-.254-4.028-.546-1.023-.607-1.886-1.3-1.952-1.588l.147-.273c.059-.029.197-.079.426-.079.232 0 .496.052.785.154.144.051.404.173.734.329 1.299.613 3.704 1.747 5.934 1.773zm7.468-5.987l.081-1.418.502.073-.292 1.369-.002.008-.084.396-.228-.033.021-.366.002-.029z" fill="#373D43" sketch:type="MSShapeGroup"/><path d="M27.149 50.295c-.007-.606-.048-.993-.055-1.05-.018-.158-.08-.309-.178-.431-.054-.068-.125-.138-.212-.202l.407-1.907c.024-.113.002-.231-.061-.327-.063-.095-.162-.159-.271-.175l-1.355-.199c-.11-.016-.221.016-.307.09s-.138.181-.145.297l-.123 2.145-.008.004c-.963.014-2.212 1.26-3.711 3.705l-.118.178c-.671.7-1.571 1.041-2.745 1.041-2.08 0-4.424-1.106-5.683-1.7-.363-.171-.625-.295-.806-.359-.371-.131-.721-.198-1.04-.198-.255 0-.457.042-.606.093l-.05-.003c-.232 0-.331.176-.404.304l-.223.41c-.068.127-.132.337-.053.611.05.171.161.411.507.756-.41-.118-.714-.204-.924-.243-.279-.051-.548-.077-.798-.077-.596 0-1.004.144-1.257.283-.283-.009-.376.228-.441.399l-.204.564c-.047.131-.079.327-.006.562l-.431-.018c-.872 0-1.468.215-1.847.432-.495.055-.648.52-.716.726l-.222.709c-.077.251-.119.645.114 1.097.226.438.782 1.126 2.998 2.033 1.124.46 2.154.764 2.2.778l.913.253-.373.06c-1.287.263-2.001.8-2.38 1.222-.086.042-.164.099-.232.17-.233.246-.236.521-.238.764l.002.739c.014 1.369 1.736 1.676 2.302 1.777.969.172 2.125.209 2.923.209.578 0 .973-.018.992-.019 7.213-.368 11.979-2.482 14.166-6.284 1.954-3.398 1.296-7.196.703-9.218zm-18.939 13.583c2.464-.067 9.102-.465 13.266-2.802.142-.08.218-.238.207-.396l-.046-.167c-.104-.202-.345-.278-.538-.169-.433.243-.913.472-1.435.686-.708.29-1.495.553-2.353.786-1.462.398-3.129.709-4.964.925-.916.108-1.771.179-2.509.226-.771.049-1.414.073-1.863.084.246-.169.637-.359 1.242-.483.225-.046.69-.093 1.228-.147 1.093-.109 2.629-.264 4.275-.6 1.052-.214 2.148-.503 3.202-.902 1.225-.464 2.391-1.076 3.363-1.893.872-.733 1.587-1.631 2.046-2.734.138-.331.253-.68.342-1.049l.007-.029.06-.274.141-.679.043-.191.036-.155c.115-.497.23-.933.343-1.313l.028-.093c.136-.451.27-.822.396-1.127.164-.396.315-.682.446-.887l.079-.119.15-.191-.032.244-.078.565-.112.742c-.067.423-.142.865-.225 1.31l-.05.264-.176.862c-.141.653-.3 1.287-.473 1.857l-.088.28c-.236.722-.498 1.317-.785 1.68-.121.153-.119.368-.008.518l.061.067c.074.064.164.095.253.095.114 0 .229-.051.307-.151.353-.447.685-1.167.993-2.152.276-.881.533-1.975.77-3.276.063-.344.12-.682.171-1.007.065.346.121.717.161 1.107.092.916.091 1.934-.101 2.965-.157.844-.443 1.698-.914 2.513-1.899 3.291-6.23 5.131-12.871 5.47-.004 0-.379.018-.917.018-1.562 0-2.525-.136-3.079-.277zm-3.071-6.377c.738.247 1.842.593 3.113.921 2.525.651 4.697.978 6.479.978.413 0 .805-.018 1.177-.053.218-.021.38-.223.36-.452-.009-.097-.049-.182-.109-.247-.08-.089-.197-.141-.323-.129l-.604.04c-.484.018-.988.008-1.502-.026-2.086-.136-4.344-.65-6.112-1.142-1.078-.3-1.973-.591-2.536-.783.185-.054.435-.097.764-.097.184 0 .382.014.588.041.228.03.683.138 1.21.264.765.182 1.772.422 2.907.624.868.156 1.811.289 2.776.358.457.033.918.052 1.38.052.433 0 .851-.018 1.254-.05 1.293-.106 2.427-.382 3.4-.825.382-.174.739-.373 1.07-.599.371-.253.711-.538 1.019-.854.267-.275.509-.575.729-.898-.034.168-.075.331-.123.489-.072.236-.159.462-.26.679-.108.231-.232.452-.37.662-.134.202-.28.395-.438.578-.245.282-.518.543-.814.783-.305.247-.634.473-.982.679-1.361.808-3.003 1.317-4.575 1.651-1.75-.134-3.699-.51-5.817-1.124-.01-.003-1.019-.301-2.077-.737-.765-.315-1.262-.58-1.582-.785zm3.708-3.547c.197.036.552.139 1.001.269.544.158 1.224.355 1.987.54.468.114.968.223 1.486.317.488.087.993.161 1.504.209.437.042.879.066 1.319.066 1.845 0 3.323-.428 4.418-1.275-.814.955-1.986 1.587-3.505 1.893-.34.069-.698.121-1.072.156-.359.034-.734.053-1.125.058l-.153.001c-2.534 0-5.148-.622-6.71-.993l-.544-.128c-.409-.313-.424-.473-.424-.474l.161-.447c.082-.064.377-.257.996-.257.205 0 .427.022.661.064zm9.342.34c-.611.153-1.293.23-2.046.23-1.385 0-2.806-.254-4.028-.546-1.023-.607-1.886-1.3-1.952-1.588l.147-.273c.059-.029.197-.079.426-.079.232 0 .496.052.785.154.144.051.404.173.734.329 1.299.613 3.704 1.747 5.934 1.773zm7.468-5.987l.081-1.418.502.073-.292 1.369-.002.008-.084.396-.228-.033.021-.366.002-.029z" id="Ecuador-copy" fill="#67737B" sketch:type="MSShapeGroup"/><path d="M27.149 120.295c-.007-.606-.048-.993-.055-1.05-.018-.158-.08-.309-.178-.431-.054-.068-.125-.138-.212-.202l.407-1.907c.024-.113.002-.231-.061-.327-.063-.095-.162-.159-.271-.175l-1.355-.199c-.11-.016-.221.016-.307.09s-.138.181-.145.297l-.123 2.145-.008.004c-.963.014-2.212 1.26-3.711 3.705l-.118.178c-.671.7-1.571 1.041-2.745 1.041-2.08 0-4.424-1.106-5.683-1.7-.363-.171-.625-.295-.806-.359-.371-.131-.721-.198-1.04-.198-.255 0-.457.042-.606.093l-.05-.003c-.232 0-.331.176-.404.304l-.223.41c-.068.127-.132.337-.053.611.05.171.161.411.507.756-.41-.118-.714-.204-.924-.243-.279-.051-.548-.077-.798-.077-.596 0-1.004.144-1.257.283-.283-.009-.376.228-.441.399l-.204.564c-.047.131-.079.327-.006.562l-.431-.018c-.872 0-1.468.215-1.847.432-.495.055-.648.52-.716.726l-.222.709c-.077.251-.119.645.114 1.097.226.438.782 1.126 2.998 2.033 1.124.46 2.154.764 2.2.778l.913.253-.373.06c-1.287.263-2.001.8-2.38 1.222-.086.042-.164.099-.232.17-.233.246-.236.521-.238.764l.002.739c.014 1.369 1.736 1.676 2.302 1.777.969.172 2.125.209 2.923.209.578 0 .973-.018.992-.019 7.213-.368 11.979-2.482 14.166-6.284 1.954-3.398 1.296-7.196.703-9.218zm-18.939 13.583c2.464-.067 9.102-.465 13.266-2.802.142-.08.218-.238.207-.396l-.046-.167c-.104-.202-.345-.278-.538-.169-.433.243-.913.472-1.435.686-.708.29-1.495.553-2.353.786-1.462.398-3.129.709-4.964.925-.916.108-1.771.179-2.509.226-.771.049-1.414.073-1.863.084.246-.169.637-.359 1.242-.483.225-.046.69-.093 1.228-.147 1.093-.109 2.629-.264 4.275-.6 1.052-.214 2.148-.503 3.202-.902 1.225-.464 2.391-1.076 3.363-1.893.872-.733 1.587-1.631 2.046-2.734.138-.331.253-.68.342-1.049l.007-.029.06-.274.141-.679.043-.191.036-.155c.115-.497.23-.933.343-1.313l.028-.093c.136-.451.27-.822.396-1.127.164-.396.315-.682.446-.887l.079-.119.15-.191-.032.244-.078.565-.112.742c-.067.423-.142.865-.225 1.31l-.05.264-.176.862c-.141.653-.3 1.287-.473 1.857l-.088.28c-.236.722-.498 1.317-.785 1.68-.121.153-.119.368-.008.518l.061.067c.074.064.164.095.253.095.114 0 .229-.051.307-.151.353-.447.685-1.167.993-2.152.276-.881.533-1.975.77-3.276.063-.344.12-.682.171-1.007.065.346.121.717.161 1.107.092.916.091 1.934-.101 2.965-.157.844-.443 1.698-.914 2.513-1.899 3.291-6.23 5.131-12.871 5.47-.004 0-.379.018-.917.018-1.562 0-2.525-.136-3.079-.277zm-3.071-6.377c.738.247 1.842.593 3.113.921 2.525.651 4.697.978 6.479.978.413 0 .805-.018 1.177-.053.218-.021.38-.223.36-.452-.009-.097-.049-.182-.109-.247-.08-.089-.197-.141-.323-.129l-.604.04c-.484.018-.988.008-1.502-.026-2.086-.136-4.344-.65-6.112-1.142-1.078-.3-1.973-.591-2.536-.783.185-.054.435-.097.764-.097.184 0 .382.014.588.041.228.03.683.138 1.21.264.765.182 1.772.422 2.907.624.868.156 1.811.289 2.776.358.457.033.918.052 1.38.052.433 0 .851-.018 1.254-.05 1.293-.106 2.427-.382 3.4-.825.382-.174.739-.373 1.07-.599.371-.253.711-.538 1.019-.854.267-.275.509-.575.729-.898-.034.168-.075.331-.123.489-.072.236-.159.462-.26.679-.108.231-.232.452-.37.662-.134.202-.28.395-.438.578-.245.282-.518.543-.814.783-.305.247-.634.473-.982.679-1.361.808-3.003 1.317-4.575 1.651-1.75-.134-3.699-.51-5.817-1.124-.01-.003-1.019-.301-2.077-.737-.765-.315-1.262-.58-1.582-.785zm3.708-3.547c.197.036.552.139 1.001.269.544.158 1.224.355 1.987.54.468.114.968.223 1.486.317.488.087.993.161 1.504.209.437.042.879.066 1.319.066 1.845 0 3.323-.428 4.418-1.275-.814.955-1.986 1.587-3.505 1.893-.34.069-.698.121-1.072.156-.359.034-.734.053-1.125.058l-.153.001c-2.534 0-5.148-.622-6.71-.993l-.544-.128c-.409-.313-.424-.473-.424-.474l.161-.447c.082-.064.377-.257.996-.257.205 0 .427.022.661.064zm9.342.34c-.611.153-1.293.23-2.046.23-1.385 0-2.806-.254-4.028-.546-1.023-.607-1.886-1.3-1.952-1.588l.147-.273c.059-.029.197-.079.426-.079.232 0 .496.052.785.154.144.051.404.173.734.329 1.299.613 3.704 1.747 5.934 1.773zm7.468-5.987l.081-1.418.502.073-.292 1.369-.002.008-.084.396-.228-.033.021-.366.002-.029z" fill="#206FAC" sketch:type="MSShapeGroup"/><path d="M27.149 86.295c-.007-.606-.048-.993-.055-1.05-.018-.158-.08-.309-.178-.431-.054-.068-.125-.138-.212-.202l.407-1.907c.024-.113.002-.231-.061-.327-.063-.095-.162-.159-.271-.175l-1.355-.199c-.11-.016-.221.016-.307.09s-.138.181-.145.297l-.123 2.145-.008.004c-.963.014-2.212 1.26-3.711 3.705l-.118.178c-.671.7-1.571 1.041-2.745 1.041-2.08 0-4.424-1.106-5.683-1.7-.363-.171-.625-.295-.806-.359-.371-.131-.721-.198-1.04-.198-.255 0-.457.042-.606.093l-.05-.003c-.232 0-.331.176-.404.304l-.223.41c-.068.127-.132.337-.053.611.05.171.161.411.507.756-.41-.118-.714-.204-.924-.243-.279-.051-.548-.077-.798-.077-.596 0-1.004.144-1.257.283-.283-.009-.376.228-.441.399l-.204.564c-.047.131-.079.327-.006.562l-.431-.018c-.872 0-1.468.215-1.847.432-.495.055-.648.52-.716.726l-.222.709c-.077.251-.119.645.114 1.097.226.438.782 1.126 2.998 2.033 1.124.46 2.154.764 2.2.778l.913.253-.373.06c-1.287.263-2.001.8-2.38 1.222-.086.042-.164.099-.232.17-.233.246-.236.521-.238.764l.002.739c.014 1.369 1.736 1.676 2.302 1.777.969.172 2.125.209 2.923.209.578 0 .973-.018.992-.019 7.213-.368 11.979-2.482 14.166-6.284 1.954-3.398 1.296-7.196.703-9.218zm-18.939 13.583c2.464-.067 9.102-.465 13.266-2.802.142-.08.218-.238.207-.396l-.046-.167c-.104-.202-.345-.278-.538-.169-.433.243-.913.472-1.435.686-.708.29-1.495.553-2.353.786-1.462.398-3.129.709-4.964.925-.916.108-1.771.179-2.509.226-.771.049-1.414.073-1.863.084.246-.169.637-.359 1.242-.483.225-.046.69-.093 1.228-.147 1.093-.109 2.629-.264 4.275-.6 1.052-.214 2.148-.503 3.202-.902 1.225-.464 2.391-1.076 3.363-1.893.872-.733 1.587-1.631 2.046-2.734.138-.331.253-.68.342-1.049l.007-.029.06-.274.141-.679.043-.191.036-.155c.115-.497.23-.933.343-1.313l.028-.093c.136-.451.27-.822.396-1.127.164-.396.315-.682.446-.887l.079-.119.15-.191-.032.244-.078.565-.112.742c-.067.423-.142.865-.225 1.31l-.05.264-.176.862c-.141.653-.3 1.287-.473 1.857l-.088.28c-.236.722-.498 1.317-.785 1.68-.121.153-.119.368-.008.518l.061.067c.074.064.164.095.253.095.114 0 .229-.051.307-.151.353-.447.685-1.167.993-2.152.276-.881.533-1.975.77-3.276.063-.344.12-.682.171-1.007.065.346.121.717.161 1.107.092.916.091 1.934-.101 2.965-.157.844-.443 1.698-.914 2.513-1.899 3.291-6.23 5.131-12.871 5.47-.004 0-.379.018-.917.018-1.562 0-2.525-.136-3.079-.277zm-3.071-6.377c.738.247 1.842.593 3.113.921 2.525.651 4.697.978 6.479.978.413 0 .805-.018 1.177-.053.218-.021.38-.223.36-.452-.009-.097-.049-.182-.109-.247-.08-.089-.197-.141-.323-.129l-.604.04c-.484.018-.988.008-1.502-.026-2.086-.136-4.344-.65-6.112-1.142-1.078-.3-1.973-.591-2.536-.783.185-.054.435-.097.764-.097.184 0 .382.014.588.041.228.03.683.138 1.21.264.765.182 1.772.422 2.907.624.868.156 1.811.289 2.776.358.457.033.918.052 1.38.052.433 0 .851-.018 1.254-.05 1.293-.106 2.427-.382 3.4-.825.382-.174.739-.373 1.07-.599.371-.253.711-.538 1.019-.854.267-.275.509-.575.729-.898-.034.168-.075.331-.123.489-.072.236-.159.462-.26.679-.108.231-.232.452-.37.662-.134.202-.28.395-.438.578-.245.282-.518.543-.814.783-.305.247-.634.473-.982.679-1.361.808-3.003 1.317-4.575 1.651-1.75-.134-3.699-.51-5.817-1.124-.01-.003-1.019-.301-2.077-.737-.765-.315-1.262-.58-1.582-.785zm3.708-3.547c.197.036.552.139 1.001.269.544.158 1.224.355 1.987.54.468.114.968.223 1.486.317.488.087.993.161 1.504.209.437.042.879.066 1.319.066 1.845 0 3.323-.428 4.418-1.275-.814.955-1.986 1.587-3.505 1.893-.34.069-.698.121-1.072.156-.359.034-.734.053-1.125.058l-.153.001c-2.534 0-5.148-.622-6.71-.993l-.544-.128c-.409-.313-.424-.473-.424-.474l.161-.447c.082-.064.377-.257.996-.257.205 0 .427.022.661.064zm9.342.34c-.611.153-1.293.23-2.046.23-1.385 0-2.806-.254-4.028-.546-1.023-.607-1.886-1.3-1.952-1.588l.147-.273c.059-.029.197-.079.426-.079.232 0 .496.052.785.154.144.051.404.173.734.329 1.299.613 3.704 1.747 5.934 1.773zm7.468-5.987l.081-1.418.502.073-.292 1.369-.002.008-.084.396-.228-.033.021-.366.002-.029z" fill="#fff" sketch:type="MSShapeGroup"/></g></g></svg>