<svg width="32" height="232" viewBox="0 0 32 232" xmlns="http://www.w3.org/2000/svg" xmlns:sketch="http://www.bohemiancoding.com/sketch/ns"><title>UK_Salisbury</title><g sketch:type="MSPage" fill="none"><g sketch:type="MSLayerGroup"><g fill="#fff" sketch:type="MSShapeGroup"><path d="M29.09 82.806h-1.014c-.075-.109-.197-.181-.337-.181h-1.317c-.139 0-.262.072-.337.181h-.9c-.075-.109-.197-.181-.337-.181h-1.317c-.139 0-.262.072-.337.181h-.9c-.075-.109-.197-.181-.337-.181h-1.317c-.139 0-.262.072-.337.181h-.9c-.075-.109-.197-.181-.337-.181h-1.317c-.139 0-.262.072-.337.181h-3.349l-.024.001-.118-.02c-.737 0-1.396-.508-1.806-.915-.2-.519-.509-.877-.939-.877-.839 0-1.221 1.365-1.221 2.632 0 1.268.382 2.632 1.221 2.632.394 0 .687-.301.887-.751.405-.414 1.089-.966 1.858-.966l.119-.02.023.001h3.271v4.039c-1.064-.118-2.002-.774-2.499-1.769l-.004-.009-.019-.04c-.099-.206-.274-.362-.484-.433-.211-.071-.44-.052-.637.054l-10.02 5.378c-.196.105-.344.287-.41.506-.066.219-.045.455.058.658l.023.043.002.003c.732 1.466.305 3.288-.993 4.239-.364.267-.459.785-.215 1.172 2.384 3.772 5.11 6.613 8.103 8.444 2.97 1.817 5.292 2.089 6.412 2.089.633 0 1.178-.086 1.582-.25l.151-.065.036-.02.033-.017.144-.093c1.182-.81 3.085-3.871 3.218-8.905l.657.591c.078.07.175.105.271.105.097 0 .194-.035.271-.105l4.994-4.492c.091-.082.143-.2.143-.324v-10.798h.936c.457 0 .828-.385.828-.859s-.371-.859-.828-.859zm-17.993-.812l.082-.118c.063.065.15.225.226.475.091.299.167.726.167 1.277 0 .626-.097 1.092-.204 1.391-.066.185-.136.306-.189.361l-.057-.076c-.141-.225-.335-.792-.335-1.677 0-.834.172-1.385.31-1.634zm1.279 2.176c.016-.18.024-.362.024-.542l-.017-.464c.26.162.55.3.863.387l-.008.114.008.114c-.316.087-.608.227-.87.391zm14.949.354v10.602l-4.58 4.119-2.689-2.419-.378-.34-1.513-1.36v-11.642h.489v2.34c0 .237.185.429.414.429h1.573c.229 0 .414-.192.414-.429v-2.34h.489v2.34c0 .237.185.429.414.429h1.573c.229 0 .414-.192.414-.429v-2.34h.489v2.34c0 .237.185.429.414.429h1.573c.229 0 .414-.192.414-.429v-2.34h.489v1.04zm-8.564 17.373c-.471 2.599-1.402 3.774-1.65 4.048-.094.015-.245.029-.447.029-.612 0-1.905-.127-3.687-.973-3.349-1.591-5.944-4.572-7.579-6.887.913-1.326 1.29-2.96 1.055-4.571l7.052-3.785c1.035 1.029 2.401 1.646 3.832 1.734v3.83c0 .124.052.243.143.324l1.414 1.271c.17 1.613.169 3.312-.133 4.979zm6.502-17.373h.745v.87h-.745v-.87zm-2.89 0h.745v.87h-.745v-.87zm-2.89 0h.745v.87h-.745v-.87zm.42 17.595c-.536 2.956-1.73 4.58-2.225 4.904l-.018.012-.02.008c-.075.032-.366.136-.987.136-.765 0-2.84-.18-5.57-1.85-2.606-1.594-5.009-4.04-7.152-7.277 1.293-1.338 1.756-3.346 1.186-5.15l8.655-4.645c.84 1.182 2.136 1.925 3.565 2.029v.343c-1.307-.094-2.549-.698-3.45-1.694-.127-.14-.328-.176-.492-.088l-7.593 4.075c-.165.088-.252.279-.215.467.31 1.572-.064 3.194-1.027 4.449-.115.15-.12.361-.012.517 1.68 2.431 4.447 5.693 8.085 7.422 1.925.915 3.352 1.051 4.032 1.051.307 0 .583-.028.758-.078l.155-.083c.218-.187.584-.646.955-1.375.47-.922.821-2.013 1.044-3.242.262-1.447.308-2.913.218-4.329l.356.32c.064 1.342 0 2.714-.246 4.073z" id="Fill-1"/><path d="M26.606 107.314c-.128-.02-.261.025-.354.12-.127.131-.159.333-.078.499l.076.109c.078.081.184.127.294.127.11 0 .215-.045.293-.126.126-.131.157-.331.078-.496-.061-.126-.177-.212-.309-.233" id="Fill-2"/><path d="M8.709 87.072c.11 0 .215-.045.293-.126.078-.081.122-.19.121-.305 0-.114-.044-.224-.122-.304-.078-.08-.183-.125-.292-.125-.109 0-.215.045-.292.125-.078.081-.122.191-.122.305 0 .114.044.223.121.304.078.081.184.126.294.126" id="Fill-3"/><path d="M7.104 84.282c.11 0 .215-.045.293-.126.078-.081.122-.19.122-.304 0-.224-.166-.408-.377-.428-.122-.012-.243.034-.33.123-.078.081-.122.191-.122.305 0 .113.043.222.121.303.078.081.184.127.294.127" id="Fill-4"/><path d="M27.045 99.24c-.122-.012-.243.034-.33.123-.078.081-.122.191-.122.305 0 .113.043.222.121.303.078.081.184.127.294.127.11 0 .215-.045.293-.126.078-.08.122-.19.122-.304 0-.224-.166-.408-.377-.428" id="Fill-5"/><path d="M25.286 103.165l-.344-.195-.188-.357c-.073-.138-.212-.223-.363-.223s-.291.086-.363.223l-.188.357-.344.195c-.133.075-.215.22-.215.377s.083.301.215.377l.344.195.188.357c.073.138.212.224.363.224s.291-.086.363-.224l.188-.357.345-.195c.133-.075.215-.22.215-.377s-.083-.301-.215-.377" id="Fill-6"/><path d="M4.464 88.318l.344.195.188.357c.073.138.212.223.363.223s.291-.086.363-.223l.188-.357.344-.195c.133-.075.215-.22.215-.377s-.083-.301-.215-.377l-.344-.195-.188-.357c-.073-.138-.212-.224-.363-.224s-.291.086-.363.224l-.188.357-.344.195c-.133.075-.215.22-.215.377s.083.301.215.377" id="Fill-7"/><path d="M16.309 101.805l-.798-1.355-1.764-3.534 1.808-.97.78-.149c.15-.029.272-.14.319-.29.047-.15.011-.315-.094-.429l-.531-.578-.14-.763c-.028-.155-.137-.282-.282-.33-.146-.048-.305-.008-.414.103l-.568.575-1.808.97-.77-1.542-.143-.809c-.028-.155-.135-.282-.28-.331-.144-.048-.303-.011-.414.097l-.558.551-.736.145c-.15.03-.272.142-.318.293-.046.151-.008.316.099.429l.554.588.77 1.542-1.809.971-.78.149c-.15.029-.272.14-.319.29-.047.15-.011.315.094.429l.531.578.14.763c.028.155.137.282.283.33.146.048.305.008.414-.103l.568-.575 1.808-.97 1.764 3.534.606 1.458.202 1.188c.027.159.138.289.286.336l.122.019c.11 0 .218-.046.297-.13l.697-.745.97-.15c.154-.024.283-.136.332-.289.049-.154.011-.323-.099-.438l-.819-.856zm-.881 1.032l-.23.246-.069-.409-.028-.096-.631-1.518-.013-.027-1.961-3.929c-.074-.147-.218-.232-.368-.232l-.19.048-2.231 1.197-.099.074-.059.06-.019-.101c-.015-.081-.052-.156-.107-.216l-.087-.095.087-.017.116-.041 2.231-1.197c.203-.109.283-.368.178-.579l-.989-1.98-.071-.103-.058-.061.098-.019c.078-.015.151-.054.209-.111l.092-.09.016.091.04.12.989 1.98c.051.101.138.177.242.212.105.035.218.025.316-.028l2.231-1.197.099-.074.059-.06.019.101c.015.081.052.156.107.216l.087.095-.088.017-.116.041-2.231 1.197c-.098.052-.171.143-.204.251-.033.108-.024.226.027.327l1.961 3.929.014.027.831 1.411.059.079.278.29-.3.046c-.09.014-.173.058-.236.126z" id="Fill-8"/><path d="M26.187 87.262h-6.881c-.229 0-.414.192-.414.429v6.544c0 .124.052.243.143.325l3.441 3.095c.078.07.175.105.271.105.097 0 .194-.035.271-.105l3.441-3.095c.091-.082.143-.2.143-.325v-6.544c0-.237-.185-.429-.414-.429zm-.414 6.777l-3.027 2.722-3.026-2.722v-5.918h6.053v5.918z" id="Fill-9"/></g><g fill="#373D43" sketch:type="MSShapeGroup"><path d="M29.09 2.806h-1.014c-.075-.109-.197-.181-.337-.181h-1.317c-.139 0-.262.072-.337.181h-.9c-.075-.109-.197-.181-.337-.181h-1.317c-.139 0-.262.072-.337.181h-.9c-.075-.109-.197-.181-.337-.181h-1.317c-.139 0-.262.072-.337.181h-.9c-.075-.109-.197-.181-.337-.181h-1.317c-.139 0-.262.072-.337.181h-3.349l-.024.001-.118-.02c-.737 0-1.396-.508-1.806-.915-.2-.519-.509-.877-.939-.877-.839 0-1.221 1.365-1.221 2.632 0 1.268.382 2.632 1.221 2.632.394 0 .687-.301.887-.751.405-.414 1.089-.966 1.858-.966l.119-.02.023.001h3.271v4.039c-1.064-.118-2.002-.774-2.499-1.769l-.004-.009-.019-.04c-.099-.206-.274-.362-.484-.433-.211-.071-.44-.052-.637.054l-10.02 5.378c-.196.105-.344.287-.41.506-.066.219-.045.455.058.658l.023.043.002.003c.732 1.466.305 3.288-.993 4.239-.364.267-.459.785-.215 1.172 2.384 3.772 5.11 6.613 8.103 8.444 2.97 1.817 5.292 2.089 6.412 2.089.633 0 1.178-.086 1.582-.25l.151-.065.036-.02.033-.017.144-.093c1.182-.81 3.085-3.871 3.218-8.905l.657.591c.078.07.175.105.271.105.097 0 .194-.035.271-.105l4.994-4.492c.091-.082.143-.2.143-.324v-10.798h.936c.457 0 .828-.385.828-.859s-.371-.859-.828-.859zm-17.993-.812l.082-.118c.063.065.15.225.226.475.091.299.167.726.167 1.277 0 .626-.097 1.092-.204 1.391-.066.185-.136.306-.189.361l-.057-.076c-.141-.225-.335-.792-.335-1.677 0-.834.172-1.385.31-1.634zm1.279 2.176c.016-.18.024-.362.024-.542l-.017-.464c.26.162.55.3.863.387l-.008.114.008.114c-.316.087-.608.227-.87.391zm14.949.354v10.602l-4.58 4.119-2.689-2.419-.378-.34-1.513-1.36v-11.642h.489v2.34c0 .237.185.429.414.429h1.573c.229 0 .414-.192.414-.429v-2.34h.489v2.34c0 .237.185.429.414.429h1.573c.229 0 .414-.192.414-.429v-2.34h.489v2.34c0 .237.185.429.414.429h1.573c.229 0 .414-.192.414-.429v-2.34h.489v1.04zm-8.564 17.373c-.471 2.599-1.402 3.774-1.65 4.048-.094.015-.245.029-.447.029-.612 0-1.905-.127-3.687-.973-3.349-1.591-5.944-4.572-7.579-6.887.913-1.326 1.29-2.96 1.055-4.571l7.052-3.785c1.035 1.029 2.401 1.646 3.832 1.734v3.83c0 .124.052.243.143.324l1.414 1.271c.17 1.613.169 3.312-.133 4.979zm6.502-17.373h.745v.87h-.745v-.87zm-2.89 0h.745v.87h-.745v-.87zm-2.89 0h.745v.87h-.745v-.87zm.42 17.595c-.536 2.956-1.73 4.58-2.225 4.904l-.018.012-.02.008c-.075.032-.366.136-.987.136-.765 0-2.84-.18-5.57-1.85-2.606-1.594-5.009-4.04-7.152-7.277 1.293-1.338 1.756-3.346 1.186-5.15l8.655-4.645c.84 1.182 2.136 1.925 3.565 2.029v.343c-1.307-.094-2.549-.698-3.45-1.694-.127-.14-.328-.176-.492-.088l-7.593 4.075c-.165.088-.252.279-.215.467.31 1.572-.064 3.194-1.027 4.449-.115.15-.12.361-.012.517 1.68 2.431 4.447 5.693 8.085 7.422 1.925.915 3.352 1.051 4.032 1.051.307 0 .583-.028.758-.078l.155-.083c.218-.187.584-.646.955-1.375.47-.922.821-2.013 1.044-3.242.262-1.447.308-2.913.218-4.329l.356.32c.064 1.342 0 2.714-.246 4.073z" id="Fill-1"/><path d="M26.606 27.314c-.128-.02-.261.025-.354.12-.127.131-.159.333-.078.499l.076.109c.078.081.184.127.294.127.11 0 .215-.045.293-.126.126-.131.157-.331.078-.496-.061-.126-.177-.212-.309-.233" id="Fill-2"/><path d="M8.709 7.072c.11 0 .215-.045.293-.126.078-.081.122-.19.121-.305 0-.114-.044-.224-.122-.304-.078-.08-.183-.125-.292-.125-.109 0-.215.045-.292.125-.078.081-.122.191-.122.305 0 .114.044.223.121.304.078.081.184.126.294.126" id="Fill-3"/><path d="M7.104 4.282c.11 0 .215-.045.293-.126.078-.081.122-.19.122-.304 0-.224-.166-.408-.377-.428-.122-.012-.243.034-.33.123-.078.081-.122.191-.122.305 0 .113.043.222.121.303.078.081.184.127.294.127" id="Fill-4"/><path d="M27.045 19.24c-.122-.012-.243.034-.33.123-.078.081-.122.191-.122.305 0 .113.043.222.121.303.078.081.184.127.294.127.11 0 .215-.045.293-.126.078-.08.122-.19.122-.304 0-.224-.166-.408-.377-.428" id="Fill-5"/><path d="M25.286 23.165l-.344-.195-.188-.357c-.073-.138-.212-.223-.363-.223s-.291.086-.363.223l-.188.357-.344.195c-.133.075-.215.22-.215.377s.083.301.215.377l.344.195.188.357c.073.138.212.224.363.224s.291-.086.363-.224l.188-.357.345-.195c.133-.075.215-.22.215-.377s-.083-.301-.215-.377" id="Fill-6"/><path d="M4.464 8.318l.344.195.188.357c.073.138.212.223.363.223s.291-.086.363-.223l.188-.357.344-.195c.133-.075.215-.22.215-.377s-.083-.301-.215-.377l-.344-.195-.188-.357c-.073-.138-.212-.224-.363-.224s-.291.086-.363.224l-.188.357-.344.195c-.133.075-.215.22-.215.377s.083.301.215.377" id="Fill-7"/><path d="M16.309 21.805l-.798-1.355-1.764-3.534 1.808-.97.78-.149c.15-.029.272-.14.319-.29.047-.15.011-.315-.094-.429l-.531-.578-.14-.763c-.028-.155-.137-.282-.282-.33-.146-.048-.305-.008-.414.103l-.568.575-1.808.97-.77-1.542-.143-.809c-.028-.155-.135-.282-.28-.331-.144-.048-.303-.011-.414.097l-.558.551-.736.145c-.15.03-.272.142-.318.293-.046.151-.008.316.099.429l.554.588.77 1.542-1.809.971-.78.149c-.15.029-.272.14-.319.29-.047.15-.011.315.094.429l.531.578.14.763c.028.155.137.282.283.33.146.048.305.008.414-.103l.568-.575 1.808-.97 1.764 3.534.606 1.458.202 1.188c.027.159.138.289.286.336l.122.019c.11 0 .218-.046.297-.13l.697-.745.97-.15c.154-.024.283-.136.332-.289.049-.154.011-.323-.099-.438l-.819-.856zm-.881 1.032l-.23.246-.069-.409-.028-.096-.631-1.518-.013-.027-1.961-3.929c-.074-.147-.218-.232-.368-.232l-.19.048-2.231 1.197-.099.074-.059.06-.019-.101c-.015-.081-.052-.156-.107-.216l-.087-.095.087-.017.116-.041 2.231-1.197c.203-.109.283-.368.178-.579l-.989-1.98-.071-.103-.058-.061.098-.019c.078-.015.151-.054.209-.111l.092-.09.016.091.04.12.989 1.98c.051.101.138.177.242.212.105.035.218.025.316-.028l2.231-1.197.099-.074.059-.06.019.101c.015.081.052.156.107.216l.087.095-.088.017-.116.041-2.231 1.197c-.098.052-.171.143-.204.251-.033.108-.024.226.027.327l1.961 3.929.014.027.831 1.411.059.079.278.29-.3.046c-.09.014-.173.058-.236.126z" id="Fill-8"/><path d="M26.187 7.262h-6.881c-.229 0-.414.192-.414.429v6.544c0 .124.052.243.143.325l3.441 3.095c.078.07.175.105.271.105.097 0 .194-.035.271-.105l3.441-3.095c.091-.082.143-.2.143-.325v-6.544c0-.237-.185-.429-.414-.429zm-.414 6.777l-3.027 2.722-3.026-2.722v-5.918h6.053v5.918z" id="Fill-9"/></g><g fill="#67737B" sketch:type="MSShapeGroup"><path d="M29.09 41.806h-1.014c-.075-.109-.197-.181-.337-.181h-1.317c-.139 0-.262.072-.337.181h-.9c-.075-.109-.197-.181-.337-.181h-1.317c-.139 0-.262.072-.337.181h-.9c-.075-.109-.197-.181-.337-.181h-1.317c-.139 0-.262.072-.337.181h-.9c-.075-.109-.197-.181-.337-.181h-1.317c-.139 0-.262.072-.337.181h-3.349l-.024.001-.118-.02c-.737 0-1.396-.508-1.806-.915-.2-.519-.509-.877-.939-.877-.839 0-1.221 1.365-1.221 2.632 0 1.268.382 2.632 1.221 2.632.394 0 .687-.301.887-.751.405-.414 1.089-.966 1.858-.966l.119-.02.023.001h3.271v4.039c-1.064-.118-2.002-.774-2.499-1.769l-.004-.009-.019-.04c-.099-.206-.274-.362-.484-.433-.211-.071-.44-.052-.637.054l-10.02 5.378c-.196.105-.344.287-.41.506-.066.219-.045.455.058.658l.023.043.002.003c.732 1.466.305 3.288-.993 4.239-.364.267-.459.785-.215 1.172 2.384 3.772 5.11 6.613 8.103 8.444 2.97 1.817 5.292 2.089 6.412 2.089.633 0 1.178-.086 1.582-.25l.151-.065.036-.02.033-.017.144-.093c1.182-.81 3.085-3.871 3.218-8.905l.657.591c.078.07.175.105.271.105.097 0 .194-.035.271-.105l4.994-4.492c.091-.082.143-.2.143-.324v-10.798h.936c.457 0 .828-.385.828-.859s-.371-.859-.828-.859zm-17.993-.812l.082-.118c.063.065.15.225.226.475.091.299.167.726.167 1.277 0 .626-.097 1.092-.204 1.391-.066.185-.136.306-.189.361l-.057-.076c-.141-.225-.335-.792-.335-1.677 0-.834.172-1.385.31-1.634zm1.279 2.176c.016-.18.024-.362.024-.542l-.017-.464c.26.162.55.3.863.387l-.008.114.008.114c-.316.087-.608.227-.87.391zm14.949.354v10.602l-4.58 4.119-2.689-2.419-.378-.34-1.513-1.36v-11.642h.489v2.34c0 .237.185.429.414.429h1.573c.229 0 .414-.192.414-.429v-2.34h.489v2.34c0 .237.185.429.414.429h1.573c.229 0 .414-.192.414-.429v-2.34h.489v2.34c0 .237.185.429.414.429h1.573c.229 0 .414-.192.414-.429v-2.34h.489v1.04zm-8.564 17.373c-.471 2.599-1.402 3.774-1.65 4.048-.094.015-.245.029-.447.029-.612 0-1.905-.127-3.687-.973-3.349-1.591-5.944-4.572-7.579-6.887.913-1.326 1.29-2.96 1.055-4.571l7.052-3.785c1.035 1.029 2.401 1.646 3.832 1.734v3.83c0 .124.052.243.143.324l1.414 1.271c.17 1.613.169 3.312-.133 4.979zm6.502-17.373h.745v.87h-.745v-.87zm-2.89 0h.745v.87h-.745v-.87zm-2.89 0h.745v.87h-.745v-.87zm.42 17.595c-.536 2.956-1.73 4.58-2.225 4.904l-.018.012-.02.008c-.075.032-.366.136-.987.136-.765 0-2.84-.18-5.57-1.85-2.606-1.594-5.009-4.04-7.152-7.277 1.293-1.338 1.756-3.346 1.186-5.15l8.655-4.645c.84 1.182 2.136 1.925 3.565 2.029v.343c-1.307-.094-2.549-.698-3.45-1.694-.127-.14-.328-.176-.492-.088l-7.593 4.075c-.165.088-.252.279-.215.467.31 1.572-.064 3.194-1.027 4.449-.115.15-.12.361-.012.517 1.68 2.431 4.447 5.693 8.085 7.422 1.925.915 3.352 1.051 4.032 1.051.307 0 .583-.028.758-.078l.155-.083c.218-.187.584-.646.955-1.375.47-.922.821-2.013 1.044-3.242.262-1.447.308-2.913.218-4.329l.356.32c.064 1.342 0 2.714-.246 4.073z" id="Fill-1"/><path d="M26.606 66.314c-.128-.02-.261.025-.354.12-.127.131-.159.333-.078.499l.076.109c.078.081.184.127.294.127.11 0 .215-.045.293-.126.126-.131.157-.331.078-.496-.061-.126-.177-.212-.309-.233" id="Fill-2"/><path d="M8.709 46.072c.11 0 .215-.045.293-.126.078-.081.122-.19.121-.305 0-.114-.044-.224-.122-.304-.078-.08-.183-.125-.292-.125-.109 0-.215.045-.292.125-.078.081-.122.191-.122.305 0 .114.044.223.121.304.078.081.184.126.294.126" id="Fill-3"/><path d="M7.104 43.282c.11 0 .215-.045.293-.126.078-.081.122-.19.122-.304 0-.224-.166-.408-.377-.428-.122-.012-.243.034-.33.123-.078.081-.122.191-.122.305 0 .113.043.222.121.303.078.081.184.127.294.127" id="Fill-4"/><path d="M27.045 58.24c-.122-.012-.243.034-.33.123-.078.081-.122.191-.122.305 0 .113.043.222.121.303.078.081.184.127.294.127.11 0 .215-.045.293-.126.078-.08.122-.19.122-.304 0-.224-.166-.408-.377-.428" id="Fill-5"/><path d="M25.286 62.165l-.344-.195-.188-.357c-.073-.138-.212-.223-.363-.223s-.291.086-.363.223l-.188.357-.344.195c-.133.075-.215.22-.215.377s.083.301.215.377l.344.195.188.357c.073.138.212.224.363.224s.291-.086.363-.224l.188-.357.345-.195c.133-.075.215-.22.215-.377s-.083-.301-.215-.377" id="Fill-6"/><path d="M4.464 47.318l.344.195.188.357c.073.138.212.223.363.223s.291-.086.363-.223l.188-.357.344-.195c.133-.075.215-.22.215-.377s-.083-.301-.215-.377l-.344-.195-.188-.357c-.073-.138-.212-.224-.363-.224s-.291.086-.363.224l-.188.357-.344.195c-.133.075-.215.22-.215.377s.083.301.215.377" id="Fill-7"/><path d="M16.309 60.805l-.798-1.355-1.764-3.534 1.808-.97.78-.149c.15-.029.272-.14.319-.29.047-.15.011-.315-.094-.429l-.531-.578-.14-.763c-.028-.155-.137-.282-.282-.33-.146-.048-.305-.008-.414.103l-.568.575-1.808.97-.77-1.542-.143-.809c-.028-.155-.135-.282-.28-.331-.144-.048-.303-.011-.414.097l-.558.551-.736.145c-.15.03-.272.142-.318.293-.046.151-.008.316.099.429l.554.588.77 1.542-1.809.971-.78.149c-.15.029-.272.14-.319.29-.047.15-.011.315.094.429l.531.578.14.763c.028.155.137.282.283.33.146.048.305.008.414-.103l.568-.575 1.808-.97 1.764 3.534.606 1.458.202 1.188c.027.159.138.289.286.336l.122.019c.11 0 .218-.046.297-.13l.697-.745.97-.15c.154-.024.283-.136.332-.289.049-.154.011-.323-.099-.438l-.819-.856zm-.881 1.032l-.23.246-.069-.409-.028-.096-.631-1.518-.013-.027-1.961-3.929c-.074-.147-.218-.232-.368-.232l-.19.048-2.231 1.197-.099.074-.059.06-.019-.101c-.015-.081-.052-.156-.107-.216l-.087-.095.087-.017.116-.041 2.231-1.197c.203-.109.283-.368.178-.579l-.989-1.98-.071-.103-.058-.061.098-.019c.078-.015.151-.054.209-.111l.092-.09.016.091.04.12.989 1.98c.051.101.138.177.242.212.105.035.218.025.316-.028l2.231-1.197.099-.074.059-.06.019.101c.015.081.052.156.107.216l.087.095-.088.017-.116.041-2.231 1.197c-.098.052-.171.143-.204.251-.033.108-.024.226.027.327l1.961 3.929.014.027.831 1.411.059.079.278.29-.3.046c-.09.014-.173.058-.236.126z" id="Fill-8"/><path d="M26.187 46.262h-6.881c-.229 0-.414.192-.414.429v6.544c0 .124.052.243.143.325l3.441 3.095c.078.07.175.105.271.105.097 0 .194-.035.271-.105l3.441-3.095c.091-.082.143-.2.143-.325v-6.544c0-.237-.185-.429-.414-.429zm-.414 6.777l-3.027 2.722-3.026-2.722v-5.918h6.053v5.918z" id="Fill-9"/></g><g fill="#206FAC" sketch:type="MSShapeGroup"><path d="M29.09 120.806h-1.014c-.075-.109-.197-.181-.337-.181h-1.317c-.139 0-.262.072-.337.181h-.9c-.075-.109-.197-.181-.337-.181h-1.317c-.139 0-.262.072-.337.181h-.9c-.075-.109-.197-.181-.337-.181h-1.317c-.139 0-.262.072-.337.181h-.9c-.075-.109-.197-.181-.337-.181h-1.317c-.139 0-.262.072-.337.181h-3.349l-.024.001-.118-.02c-.737 0-1.396-.508-1.806-.915-.2-.519-.509-.877-.939-.877-.839 0-1.221 1.365-1.221 2.632 0 1.268.382 2.632 1.221 2.632.394 0 .687-.301.887-.751.405-.414 1.089-.966 1.858-.966l.119-.02.023.001h3.271v4.039c-1.064-.118-2.002-.774-2.499-1.769l-.004-.009-.019-.04c-.099-.206-.274-.362-.484-.433-.211-.071-.44-.052-.637.054l-10.02 5.378c-.196.105-.344.287-.41.506-.066.219-.045.455.058.658l.023.043.002.003c.732 1.466.305 3.288-.993 4.239-.364.267-.459.785-.215 1.172 2.384 3.772 5.11 6.613 8.103 8.444 2.97 1.817 5.292 2.089 6.412 2.089.633 0 1.178-.086 1.582-.25l.151-.065.036-.02.033-.017.144-.093c1.182-.81 3.085-3.871 3.218-8.905l.657.591c.078.07.175.105.271.105.097 0 .194-.035.271-.105l4.994-4.492c.091-.082.143-.2.143-.324v-10.798h.936c.457 0 .828-.385.828-.859s-.371-.859-.828-.859zm-17.993-.812l.082-.118c.063.065.15.225.226.475.091.299.167.726.167 1.277 0 .626-.097 1.092-.204 1.391-.066.185-.136.306-.189.361l-.057-.076c-.141-.225-.335-.792-.335-1.677 0-.834.172-1.385.31-1.634zm1.279 2.176c.016-.18.024-.362.024-.542l-.017-.464c.26.162.55.3.863.387l-.008.114.008.114c-.316.087-.608.227-.87.391zm14.949.354v10.602l-4.58 4.119-2.689-2.419-.378-.34-1.513-1.36v-11.642h.489v2.34c0 .237.185.429.414.429h1.573c.229 0 .414-.192.414-.429v-2.34h.489v2.34c0 .237.185.429.414.429h1.573c.229 0 .414-.192.414-.429v-2.34h.489v2.34c0 .237.185.429.414.429h1.573c.229 0 .414-.192.414-.429v-2.34h.489v1.04zm-8.564 17.373c-.471 2.599-1.402 3.774-1.65 4.048-.094.015-.245.029-.447.029-.612 0-1.905-.127-3.687-.973-3.349-1.591-5.944-4.572-7.579-6.887.913-1.326 1.29-2.96 1.055-4.571l7.052-3.785c1.035 1.029 2.401 1.646 3.832 1.734v3.83c0 .124.052.243.143.324l1.414 1.271c.17 1.613.169 3.312-.133 4.979zm6.502-17.373h.745v.87h-.745v-.87zm-2.89 0h.745v.87h-.745v-.87zm-2.89 0h.745v.87h-.745v-.87zm.42 17.595c-.536 2.956-1.73 4.58-2.225 4.904l-.018.012-.02.008c-.075.032-.366.136-.987.136-.765 0-2.84-.18-5.57-1.85-2.606-1.594-5.009-4.04-7.152-7.277 1.293-1.338 1.756-3.346 1.186-5.15l8.655-4.645c.84 1.182 2.136 1.925 3.565 2.029v.343c-1.307-.094-2.549-.698-3.45-1.694-.127-.14-.328-.176-.492-.088l-7.593 4.075c-.165.088-.252.279-.215.467.31 1.572-.064 3.194-1.027 4.449-.115.15-.12.361-.012.517 1.68 2.431 4.447 5.693 8.085 7.422 1.925.915 3.352 1.051 4.032 1.051.307 0 .583-.028.758-.078l.155-.083c.218-.187.584-.646.955-1.375.47-.922.821-2.013 1.044-3.242.262-1.447.308-2.913.218-4.329l.356.32c.064 1.342 0 2.714-.246 4.073z"/><path d="M26.606 145.314c-.128-.02-.261.025-.354.12-.127.131-.159.333-.078.499l.076.109c.078.081.184.127.294.127.11 0 .215-.045.293-.126.126-.131.157-.331.078-.496-.061-.126-.177-.212-.309-.233"/><path d="M8.709 125.072c.11 0 .215-.045.293-.126.078-.081.122-.19.121-.305 0-.114-.044-.224-.122-.304-.078-.08-.183-.125-.292-.125-.109 0-.215.045-.292.125-.078.081-.122.191-.122.305 0 .114.044.223.121.304.078.081.184.126.294.126"/><path d="M7.104 122.282c.11 0 .215-.045.293-.126.078-.081.122-.19.122-.304 0-.224-.166-.408-.377-.428-.122-.012-.243.034-.33.123-.078.081-.122.191-.122.305 0 .113.043.222.121.303.078.081.184.127.294.127"/><path d="M27.045 137.24c-.122-.012-.243.034-.33.123-.078.081-.122.191-.122.305 0 .113.043.222.121.303.078.081.184.127.294.127.11 0 .215-.045.293-.126.078-.08.122-.19.122-.304 0-.224-.166-.408-.377-.428"/><path d="M25.286 141.165l-.344-.195-.188-.357c-.073-.138-.212-.223-.363-.223s-.291.086-.363.223l-.188.357-.344.195c-.133.075-.215.22-.215.377s.083.301.215.377l.344.195.188.357c.073.138.212.224.363.224s.291-.086.363-.224l.188-.357.345-.195c.133-.075.215-.22.215-.377s-.083-.301-.215-.377"/><path d="M4.464 126.318l.344.195.188.357c.073.138.212.223.363.223s.291-.086.363-.223l.188-.357.344-.195c.133-.075.215-.22.215-.377s-.083-.301-.215-.377l-.344-.195-.188-.357c-.073-.138-.212-.224-.363-.224s-.291.086-.363.224l-.188.357-.344.195c-.133.075-.215.22-.215.377s.083.301.215.377"/><path d="M16.309 139.805l-.798-1.355-1.764-3.534 1.808-.97.78-.149c.15-.029.272-.14.319-.29.047-.15.011-.315-.094-.429l-.531-.578-.14-.763c-.028-.155-.137-.282-.282-.33-.146-.048-.305-.008-.414.103l-.568.575-1.808.97-.77-1.542-.143-.809c-.028-.155-.135-.282-.28-.331-.144-.048-.303-.011-.414.097l-.558.551-.736.145c-.15.03-.272.142-.318.293-.046.151-.008.316.099.429l.554.588.77 1.542-1.809.971-.78.149c-.15.029-.272.14-.319.29-.047.15-.011.315.094.429l.531.578.14.763c.028.155.137.282.283.33.146.048.305.008.414-.103l.568-.575 1.808-.97 1.764 3.534.606 1.458.202 1.188c.027.159.138.289.286.336l.122.019c.11 0 .218-.046.297-.13l.697-.745.97-.15c.154-.024.283-.136.332-.289.049-.154.011-.323-.099-.438l-.819-.856zm-.881 1.032l-.23.246-.069-.409-.028-.096-.631-1.518-.013-.027-1.961-3.929c-.074-.147-.218-.232-.368-.232l-.19.048-2.231 1.197-.099.074-.059.06-.019-.101c-.015-.081-.052-.156-.107-.216l-.087-.095.087-.017.116-.041 2.231-1.197c.203-.109.283-.368.178-.579l-.989-1.98-.071-.103-.058-.061.098-.019c.078-.015.151-.054.209-.111l.092-.09.016.091.04.12.989 1.98c.051.101.138.177.242.212.105.035.218.025.316-.028l2.231-1.197.099-.074.059-.06.019.101c.015.081.052.156.107.216l.087.095-.088.017-.116.041-2.231 1.197c-.098.052-.171.143-.204.251-.033.108-.024.226.027.327l1.961 3.929.014.027.831 1.411.059.079.278.29-.3.046c-.09.014-.173.058-.236.126z"/><path d="M26.187 125.262h-6.881c-.229 0-.414.192-.414.429v6.544c0 .124.052.243.143.325l3.441 3.095c.078.07.175.105.271.105.097 0 .194-.035.271-.105l3.441-3.095c.091-.082.143-.2.143-.325v-6.544c0-.237-.185-.429-.414-.429zm-.414 6.777l-3.027 2.722-3.026-2.722v-5.918h6.053v5.918z"/></g></g></g></svg>