<svg width="32" height="232" viewBox="0 0 32 232" xmlns="http://www.w3.org/2000/svg" xmlns:sketch="http://www.bohemiancoding.com/sketch/ns"><title>Fiji</title><g sketch:type="MSPage" fill="none"><g sketch:type="MSLayerGroup"><g fill="#373D43" sketch:type="MSShapeGroup"><path d="M13.721 5.935c.289-.262.702-.262.99-.023l.013.033c.066.153.208.25.364.25h.055c.156 0 .298-.098.364-.25l.012-.033c.288-.239.702-.239.99.023.17.155.423.13.565-.053.142-.183.12-.457-.049-.61-.555-.503-1.335-.527-1.909-.113-.574-.414-1.355-.39-1.909.113-.169.154-.191.427-.049.61.143.184.396.208.565.054" id="Fill-1"/><path d="M15.562 7.283c-.17.154-.192.428-.049.611.142.184.396.207.565.053.126-.113.301-.121.433-.031.069.144.206.234.357.234h.035c.15 0 .288-.091.357-.235l.164-.06c.098-.009.193.023.267.091.17.154.423.13.565-.053.143-.183.121-.457-.049-.611-.239-.217-.543-.321-.853-.291-.167.016-.327.069-.47.155-.412-.248-.94-.211-1.321.135" id="Fill-2"/><path d="M28.028 25.921c-.004-.486-.033-1.163-.13-1.923-.255-2.015-.844-3.568-1.748-4.614-.284-.328-.598-.602-.939-.822l-.906-8.366c.386.198.711.506.941.898.306.525.403 1.142.273 1.739-.051.233.083.466.298.521l.092.011c.182 0 .347-.135.39-.334.18-.825.046-1.678-.376-2.4-.291-.498-.694-.895-1.172-1.164.877-.422 1.953-.242 2.653.524.078.086.182.129.286.129.102 0 .203-.041.282-.125.158-.168.159-.442.004-.612-.932-1.021-2.36-1.265-3.53-.716.348-.856 1.17-1.459 2.126-1.459.221 0 .401-.194.401-.434 0-.239-.179-.434-.401-.434-1.155 0-2.164.661-2.698 1.639-.535-.978-1.544-1.639-2.698-1.639-.222 0-.401.194-.401.434 0 .239.18.434.401.434.956 0 1.777.603 2.126 1.459-1.17-.55-2.598-.305-3.53.716-.156.17-.154.445.003.612.078.084.18.125.282.125.104 0 .207-.043.286-.129.7-.767 1.776-.946 2.653-.524-.478.269-.881.666-1.173 1.164-.422.722-.555 1.575-.375 2.4.043.2.208.334.39.334l.093-.011c.216-.055.349-.288.298-.521-.13-.597-.033-1.214.273-1.739.238-.408.58-.725.988-.922l.468 7.852c-.357-.087-.734-.132-1.132-.132-2.074 0-3.437-2.735-3.969-4.042.809-.293 1.747-.015 2.282.745.079.112.199.171.319.171.084 0 .17-.029.242-.089.176-.145.211-.417.076-.608-.696-.988-1.88-1.391-2.95-1.11.116-.181.262-.344.433-.481.419-.334.941-.478 1.471-.404.221.031.421-.137.449-.374.028-.238-.127-.455-.346-.486-.736-.103-1.464.098-2.051.566-.18.144-.34.308-.479.488-.092-.213-.208-.415-.348-.604-.457-.614-1.114-1.008-1.851-1.111-.221-.03-.421.137-.449.374-.028.238.126.455.346.486.53.074 1.001.356 1.328.795.134.18.236.377.306.584-.969-.566-2.21-.501-3.114.263-.175.148-.206.42-.069.609.136.188.388.222.563.075.652-.551 1.545-.595 2.242-.184-.416.184-.786.473-1.077.854-.453.592-.663 1.335-.591 2.094.022.223.196.389.399.389l.042-.002c.221-.025.381-.238.358-.476-.05-.525.095-1.041.41-1.452.321-.42.778-.684 1.292-.75.574 1.618 2.132 5.171 4.734 5.171.45 0 .858.062 1.224.183l.248 4.158-.083.003c-.262 0-.375-.06-.533-.143l-.028-.015c-.104-.316-.224-.64-.364-.965-1.167-2.699-3.138-4.126-5.701-4.126-3.269 0-5.535-2.107-5.824-5.315.384.036.751.175 1.072.413.474.35.79.875.89 1.478.035.21.204.357.394.357l.071-.007c.218-.042.363-.267.325-.503-.139-.834-.574-1.56-1.227-2.041-.45-.333-.966-.523-1.503-.565.649-.764 1.703-1.061 2.628-.658.205.089.439-.018.522-.24.083-.222-.017-.475-.222-.564-1.231-.536-2.633-.147-3.504.861.001-.305.059-.612.173-.908.234-.602.675-1.08 1.243-1.346.203-.095.297-.35.208-.57-.088-.22-.323-.321-.527-.226-.758.355-1.349.996-1.663 1.805-.109.279-.179.567-.213.857-.85-.666-2.017-.839-3.076-.343-.203.095-.297.35-.208.57.088.22.324.321.527.226.878-.411 1.853-.21 2.487.426-1.275-.003-2.496.836-2.977 2.172-.08.224.022.474.229.562l.145.029c.161 0 .312-.105.374-.276.361-1.004 1.283-1.632 2.242-1.621-.34.452-.564.989-.648 1.572-.122.845.069 1.684.538 2.364.078.114.2.175.322.175.083 0 .167-.028.24-.086.177-.143.214-.415.082-.607-.339-.492-.477-1.1-.389-1.713.076-.524.306-1 .66-1.374.173 1.685.815 3.225 1.852 4.405 1.236 1.408 2.927 2.184 4.76 2.184 1.487 0 2.653.489 3.468 1.455.512.606.837 1.342 1.043 2.066l-.188.093c-.157.083-.271.143-.533.143-.261 0-.375-.06-.532-.143-.195-.103-.437-.232-.885-.232-.447 0-.69.129-.885.232-.158.083-.271.143-.533.143s-.375-.06-.533-.143c-.195-.103-.438-.232-.885-.232s-.69.129-.886.232c-.157.083-.271.143-.532.143-.262 0-.375-.06-.533-.143-.195-.103-.438-.232-.886-.232-.447 0-.689.129-.885.232-.157.083-.271.143-.532.143-.262 0-.375-.06-.533-.143-.195-.103-.438-.232-.885-.232s-.69.129-.885.232c-.157.083-.271.143-.533.143s-.375-.06-.533-.143l-.302-.139-.328-1.834.15-.062.248-.17.286.073c.106.027.216.007.308-.056l.248-.171.286.073c.106.027.216.006.308-.057l.247-.17.286.073c.106.027.216.006.307-.057l.248-.17.286.073c.105.027.216.007.308-.056l.342-.236c.09-.023.174-.078.232-.165.13-.193.091-.465-.089-.606l-5.024-3.946c-.087-.068-.196-.096-.302-.077-.106.019-.201.084-.262.18l-3.544 5.513c-.126.197-.082.467.1.604.069.052.15.078.228.078l.046-.003.39.1.092.012c.075 0 .15-.023.215-.068l.249-.171.286.073c.105.027.216.006.307-.057l.248-.171.287.073c.105.027.215.007.307-.056l.248-.171.286.073c.106.026.216.006.308-.056l.247-.171.286.073c.069.017.14.013.206-.009l.289 1.616c-.295.036-.482.134-.637.216-.158.083-.271.143-.533.143s-.376-.06-.533-.143c-.195-.103-.438-.232-.885-.232s-.69.129-.886.232c-.157.083-.271.143-.533.143-.222 0-.401.194-.401.434 0 .239.179.434.401.434.447 0 .69-.128.885-.232.157-.083.271-.143.533-.143s.376.06.533.143c.195.104.438.232.885.232s.69-.128.885-.232c.137-.072.241-.127.438-.14l.281 1.573h-5.007c-.443 0-.802.388-.802.867s.359.868.802.868h23.816c.443 0 .802-.388.802-.868 0-.315-.156-.589-.388-.741zm-2.034-.126l-.169-1.561c.136.023.226.07.337.128l.219.107c-.008.508-.046.967-.087 1.326h-.3zm-.568-5.254l.024.031c.595.798.835 1.895.908 2.932-.154-.072-.347-.137-.627-.149l-.305-2.813zm1.749 4.286c.029.364.043.693.048.968h-.119c.03-.28.057-.608.072-.968zm-2.962-.233l.135-.004.072 1.205h-.245c-.05-.336-.124-.754-.237-1.22l.276.019zm-1.028.308c.077.331.133.635.175.894h-.117c-.007-.259-.023-.562-.058-.894zm-13.149-.308c.447 0 .69-.128.885-.232.158-.083.271-.143.533-.143s.375.06.533.143c.195.104.438.232.885.232s.69-.128.885-.232c.157-.083.271-.143.532-.143.262 0 .376.06.533.143.195.104.438.232.886.232.447 0 .69-.128.885-.232.158-.083.271-.143.533-.143s.375.06.533.143c.195.104.438.232.885.232.448 0 .69-.128.885-.232.158-.083.271-.143.533-.143s.375.06.532.143c.195.104.438.232.885.232.448 0 .69-.128.885-.232l.03-.015c.096.547.133 1.052.145 1.448h-12.815l-.236-1.32c.16.065.363.118.65.118zm1.605-4.564l-.133.057-.248.171-.286-.073c-.105-.027-.216-.006-.308.057l-.248.17-.286-.073c-.105-.027-.215-.006-.307.056l-.248.171-.286-.073c-.106-.027-.216-.007-.308.056l-.248.17-.286-.073c-.105-.027-.216-.006-.307.056l-.248.171-.286-.073c-.105-.027-.216-.006-.307.056l-.248.171-.286-.073c-.106-.027-.216-.007-.308.056l-.248.17-.286-.073c-.106-.027-.216-.007-.307.056l-.248.171-.287-.073-.144-.007 2.772-4.312 3.93 3.087z" id="Fill-3"/></g><g id="Fiji-copy" fill="#67737B" sketch:type="MSShapeGroup"><path d="M13.886 45.911c.293-.256.713-.255 1.005-.023l.013.032c.067.149.211.244.369.244h.056c.158 0 .302-.095.369-.244l.012-.032c.293-.232.712-.233 1.006.022.172.151.429.127.574-.052.144-.178.122-.445-.05-.595-.563-.49-1.356-.514-1.939-.11-.583-.403-1.376-.38-1.939.11-.172.15-.194.416-.05.595.145.179.402.203.574.052" id="Fill-1"/><path d="M15.756 47.224c-.172.15-.195.417-.05.595.144.179.402.202.573.052.128-.11.306-.118.439-.03.07.14.209.228.362.228h.036c.153 0 .292-.088.362-.229l.167-.058c.099-.009.196.022.272.089.172.15.429.127.574-.052.145-.178.122-.445-.05-.595-.243-.212-.551-.313-.866-.284-.17.015-.332.067-.477.152-.418-.242-.954-.206-1.342.132" id="Fill-2"/><path d="M28.413 65.389c-.004-.474-.034-1.133-.132-1.874-.259-1.964-.857-3.477-1.775-4.496-.289-.32-.607-.587-.953-.802l-.92-8.153c.392.193.722.493.955.875.31.511.409 1.113.277 1.695-.052.227.084.455.303.508l.094.011c.185 0 .352-.131.396-.326.183-.804.047-1.635-.382-2.339-.295-.486-.704-.873-1.19-1.134.89-.411 1.983-.236 2.694.511.08.083.185.125.29.125.103 0 .206-.04.286-.122.16-.164.162-.431.004-.597-.946-.995-2.397-1.233-3.584-.697.353-.834 1.188-1.422 2.159-1.422.225 0 .407-.189.407-.423 0-.233-.182-.423-.407-.423-1.173 0-2.197.644-2.74 1.597-.544-.953-1.568-1.597-2.74-1.597-.225 0-.408.189-.408.423 0 .233.182.423.408.423.971 0 1.805.588 2.158 1.422-1.188-.536-2.638-.297-3.584.697-.158.166-.156.433.003.597.08.082.183.122.286.122.105 0 .21-.042.29-.125.711-.747 1.803-.922 2.694-.511-.485.262-.895.649-1.191 1.134-.428.704-.563 1.535-.38 2.339.044.195.211.326.396.326l.094-.011c.219-.054.354-.281.303-.508-.132-.582-.034-1.183.277-1.695.242-.398.589-.706 1.003-.899l.475 7.652c-.362-.085-.745-.128-1.149-.128-2.106 0-3.49-2.665-4.03-3.939.822-.286 1.774-.015 2.317.726.08.109.202.166.324.166.086 0 .172-.028.246-.086.179-.141.214-.406.078-.592-.706-.963-1.909-1.356-2.996-1.081.118-.177.266-.335.44-.469.426-.326.956-.466 1.494-.394.224.03.427-.133.456-.365.029-.232-.129-.443-.352-.473-.747-.1-1.487.096-2.082.552-.183.14-.346.3-.486.476-.093-.207-.211-.404-.354-.588-.464-.598-1.132-.983-1.879-1.083-.224-.029-.427.134-.456.365-.029.232.128.443.352.473.538.072 1.017.347 1.349.775.136.175.24.367.31.569-.984-.552-2.244-.489-3.162.256-.178.144-.209.41-.07.594.138.183.394.216.572.073.662-.537 1.569-.58 2.277-.18-.423.179-.798.461-1.093.832-.46.577-.674 1.301-.6 2.041.022.218.199.379.405.379l.042-.002c.224-.024.386-.232.363-.464-.051-.512.097-1.014.417-1.415.326-.409.79-.666 1.312-.731.583 1.577 2.164 5.04 4.807 5.04.457 0 .871.06 1.242.178l.252 4.052-.084.002c-.266 0-.381-.059-.542-.139l-.028-.015c-.105-.308-.227-.624-.37-.941-1.185-2.63-3.186-4.021-5.788-4.021-3.319 0-5.62-2.053-5.914-5.18.39.035.762.171 1.088.402.481.341.802.853.903 1.44.035.205.207.348.4.348l.072-.007c.222-.041.369-.261.33-.49-.141-.813-.583-1.52-1.246-1.99-.457-.324-.981-.51-1.526-.55.659-.745 1.73-1.034 2.668-.642.208.087.446-.018.53-.234.084-.217-.017-.463-.225-.55-1.25-.523-2.673-.143-3.558.839.001-.298.06-.597.176-.885.238-.587.686-1.052 1.262-1.311.206-.093.301-.341.212-.555-.089-.214-.328-.313-.535-.22-.77.346-1.37.971-1.689 1.759-.11.272-.182.552-.216.835-.863-.649-2.048-.817-3.124-.334-.206.093-.301.341-.212.555.089.214.329.313.535.22.891-.401 1.882-.205 2.525.415-1.295-.002-2.535.815-3.023 2.117-.081.218.023.462.232.548l.148.028c.163 0 .317-.103.38-.269.366-.979 1.302-1.59 2.276-1.58-.345.441-.572.964-.658 1.532-.124.823.07 1.641.546 2.304.08.111.203.17.327.17.084 0 .17-.027.243-.083.18-.139.218-.404.083-.592-.344-.479-.484-1.072-.395-1.67.077-.511.311-.975.67-1.339.175 1.643.828 3.143 1.88 4.293 1.255 1.372 2.972 2.128 4.833 2.128 1.51 0 2.694.477 3.521 1.418.52.591.85 1.308 1.059 2.013l-.19.091c-.159.081-.275.139-.541.139-.265 0-.381-.059-.54-.139-.198-.1-.444-.226-.898-.226s-.7.125-.898.226c-.16.081-.276.139-.541.139-.266 0-.381-.059-.541-.139-.198-.1-.445-.226-.899-.226s-.701.125-.899.226c-.16.081-.275.139-.54.139-.266 0-.381-.059-.541-.139-.198-.1-.444-.226-.899-.226-.454 0-.7.125-.898.226-.16.081-.275.139-.54.139-.266 0-.381-.059-.541-.139-.198-.1-.444-.226-.899-.226-.454 0-.7.125-.898.226-.16.081-.275.139-.541.139s-.381-.059-.541-.139l-.307-.135-.333-1.787.153-.061.252-.166.29.071c.107.027.22.007.313-.055l.252-.166.29.071c.107.026.22.006.312-.055l.251-.166.291.071c.107.026.22.006.312-.055l.252-.166.29.071c.107.026.22.007.312-.055l.347-.23c.092-.022.176-.076.236-.161.132-.188.092-.453-.09-.59l-5.101-3.845c-.088-.066-.199-.094-.307-.075-.108.019-.204.082-.266.176l-3.598 5.373c-.128.192-.083.455.102.588.07.051.152.076.232.076l.047-.003.396.097.094.011c.076 0 .152-.023.218-.066l.252-.166.291.071c.106.026.22.006.312-.055l.252-.166.291.071c.107.026.219.007.312-.055l.252-.166.29.071c.107.026.219.006.312-.055l.251-.166.291.071c.07.017.142.012.21-.008l.294 1.575c-.3.035-.489.13-.647.211-.16.081-.276.139-.541.139-.266 0-.382-.059-.541-.139-.198-.1-.445-.226-.899-.226s-.7.125-.899.226c-.16.081-.275.139-.541.139-.225 0-.407.189-.407.423 0 .233.182.423.407.423.454 0 .701-.125.899-.226.16-.081.275-.139.541-.139s.382.059.541.139c.198.101.444.226.899.226.454 0 .701-.125.898-.226.139-.07.245-.124.445-.136l.285 1.533h-5.084c-.45 0-.814.378-.814.845 0 .467.365.846.814.846h24.182c.45 0 .815-.379.815-.846 0-.307-.158-.574-.394-.722zm-2.065-.122l-.171-1.521c.138.022.23.068.342.125l.222.104c-.008.495-.047.942-.089 1.292h-.304zm-.577-5.12l.024.03c.604.777.848 1.846.922 2.858-.156-.07-.352-.133-.637-.146l-.309-2.742zm1.776 4.177c.029.355.043.676.048.944h-.121c.031-.273.058-.592.073-.944zm-3.007-.227l.137-.004.073 1.175h-.249c-.051-.328-.126-.735-.241-1.189l.28.018zm-1.044.3c.078.323.135.618.178.871h-.119c-.007-.253-.024-.548-.059-.871zm-13.351-.3c.454 0 .7-.125.898-.226.16-.081.275-.139.541-.139s.381.059.541.139c.198.101.444.226.899.226.454 0 .7-.125.898-.226.16-.081.275-.139.54-.139.266 0 .382.059.541.139.198.101.445.226.899.226s.7-.125.898-.226c.16-.081.275-.139.541-.139s.381.059.541.139c.198.101.444.226.899.226.454 0 .701-.125.899-.226.16-.081.275-.139.541-.139s.381.059.54.139c.198.101.445.226.898.226.454 0 .701-.125.899-.226l.03-.015c.097.533.135 1.026.147 1.411h-13.012l-.24-1.286c.162.064.368.115.66.115zm1.63-4.448l-.135.056-.252.166-.29-.071c-.107-.026-.22-.006-.312.055l-.252.166-.291-.071c-.106-.026-.219-.006-.312.055l-.252.166-.29-.071c-.107-.026-.219-.007-.312.055l-.252.166-.29-.071c-.107-.027-.22-.006-.312.055l-.252.166-.291-.071c-.106-.026-.22-.006-.312.055l-.252.166-.29-.071c-.107-.027-.22-.007-.313.055l-.252.166-.29-.071c-.107-.026-.22-.007-.312.055l-.252.166-.291-.071-.146-.007 2.815-4.203 3.99 3.009z" id="Fill-3"/></g><g fill="#206FAC" sketch:type="MSShapeGroup"><path d="M13.886 115.911c.293-.256.713-.255 1.005-.023l.013.032c.067.149.211.244.369.244h.056c.158 0 .302-.095.369-.244l.012-.032c.293-.232.712-.233 1.006.022.172.151.429.127.574-.052.144-.178.122-.445-.05-.595-.563-.49-1.356-.514-1.939-.11-.583-.403-1.376-.38-1.939.11-.172.15-.194.416-.05.595.145.179.402.203.574.052" id="Fill-1"/><path d="M15.756 117.224c-.172.15-.195.417-.05.595.144.179.402.202.573.052.128-.11.306-.118.439-.03.07.14.209.228.362.228h.036c.153 0 .292-.088.362-.229l.167-.058c.099-.009.196.022.272.089.172.15.429.127.574-.052.145-.178.122-.445-.05-.595-.243-.212-.551-.313-.866-.284-.17.015-.332.067-.477.152-.418-.242-.954-.206-1.342.132" id="Fill-2"/><path d="M28.413 135.389c-.004-.474-.034-1.133-.132-1.874-.259-1.964-.857-3.477-1.775-4.496-.289-.32-.607-.587-.953-.802l-.92-8.153c.392.193.722.493.955.875.31.511.409 1.113.277 1.695-.052.227.084.455.303.508l.094.011c.185 0 .352-.131.396-.326.183-.804.047-1.635-.382-2.339-.295-.486-.704-.873-1.19-1.134.89-.411 1.983-.236 2.694.511.08.083.185.125.29.125.103 0 .206-.04.286-.122.16-.164.162-.431.004-.597-.946-.995-2.397-1.233-3.584-.697.353-.834 1.188-1.422 2.159-1.422.225 0 .407-.189.407-.423 0-.233-.182-.423-.407-.423-1.173 0-2.197.644-2.74 1.597-.544-.953-1.568-1.597-2.74-1.597-.225 0-.408.189-.408.423 0 .233.182.423.408.423.971 0 1.805.588 2.158 1.422-1.188-.536-2.638-.297-3.584.697-.158.166-.156.433.003.597.08.082.183.122.286.122.105 0 .21-.042.29-.125.711-.747 1.803-.922 2.694-.511-.485.262-.895.649-1.191 1.134-.428.704-.563 1.535-.38 2.339.044.195.211.326.396.326l.094-.011c.219-.054.354-.281.303-.508-.132-.582-.034-1.183.277-1.695.242-.398.589-.706 1.003-.899l.475 7.652c-.362-.085-.745-.128-1.149-.128-2.106 0-3.49-2.665-4.03-3.939.822-.286 1.774-.015 2.317.726.08.109.202.166.324.166.086 0 .172-.028.246-.086.179-.141.214-.406.078-.592-.706-.963-1.909-1.356-2.996-1.081.118-.177.266-.335.44-.469.426-.326.956-.466 1.494-.394.224.03.427-.133.456-.365.029-.232-.129-.443-.352-.473-.747-.1-1.487.096-2.082.552-.183.14-.346.3-.486.476-.093-.207-.211-.404-.354-.588-.464-.598-1.132-.983-1.879-1.083-.224-.029-.427.134-.456.365-.029.232.128.443.352.473.538.072 1.017.347 1.349.775.136.175.24.367.31.569-.984-.552-2.244-.489-3.162.256-.178.144-.209.41-.07.594.138.183.394.216.572.073.662-.537 1.569-.58 2.277-.18-.423.179-.798.461-1.093.832-.46.577-.674 1.301-.6 2.041.022.218.199.379.405.379l.042-.002c.224-.024.386-.232.363-.464-.051-.512.097-1.014.417-1.415.326-.409.79-.666 1.312-.731.583 1.577 2.164 5.04 4.807 5.04.457 0 .871.06 1.242.178l.252 4.052-.084.002c-.266 0-.381-.059-.542-.139l-.028-.015c-.105-.308-.227-.624-.37-.941-1.185-2.63-3.186-4.021-5.788-4.021-3.319 0-5.62-2.053-5.914-5.18.39.035.762.171 1.088.402.481.341.802.853.903 1.44.035.205.207.348.4.348l.072-.007c.222-.041.369-.261.33-.49-.141-.813-.583-1.52-1.246-1.99-.457-.324-.981-.51-1.526-.55.659-.745 1.73-1.034 2.668-.642.208.087.446-.018.53-.234.084-.217-.017-.463-.225-.55-1.25-.523-2.673-.143-3.558.839.001-.298.06-.597.176-.885.238-.587.686-1.052 1.262-1.311.206-.093.301-.341.212-.555-.089-.214-.328-.313-.535-.22-.77.346-1.37.971-1.689 1.759-.11.272-.182.552-.216.835-.863-.649-2.048-.817-3.124-.334-.206.093-.301.341-.212.555.089.214.329.313.535.22.891-.401 1.882-.205 2.525.415-1.295-.002-2.535.815-3.023 2.117-.081.218.023.462.232.548l.148.028c.163 0 .317-.103.38-.269.366-.979 1.302-1.59 2.276-1.58-.345.441-.572.964-.658 1.532-.124.823.07 1.641.546 2.304.08.111.203.17.327.17.084 0 .17-.027.243-.083.18-.139.218-.404.083-.592-.344-.479-.484-1.072-.395-1.67.077-.511.311-.975.67-1.339.175 1.643.828 3.143 1.88 4.293 1.255 1.372 2.972 2.128 4.833 2.128 1.51 0 2.694.477 3.521 1.418.52.591.85 1.308 1.059 2.013l-.19.091c-.159.081-.275.139-.541.139-.265 0-.381-.059-.54-.139-.198-.1-.444-.226-.898-.226s-.7.125-.898.226c-.16.081-.276.139-.541.139-.266 0-.381-.059-.541-.139-.198-.1-.445-.226-.899-.226s-.701.125-.899.226c-.16.081-.275.139-.54.139-.266 0-.381-.059-.541-.139-.198-.1-.444-.226-.899-.226-.454 0-.7.125-.898.226-.16.081-.275.139-.54.139-.266 0-.381-.059-.541-.139-.198-.1-.444-.226-.899-.226-.454 0-.7.125-.898.226-.16.081-.275.139-.541.139s-.381-.059-.541-.139l-.307-.135-.333-1.787.153-.061.252-.166.29.071c.107.027.22.007.313-.055l.252-.166.29.071c.107.026.22.006.312-.055l.251-.166.291.071c.107.026.22.006.312-.055l.252-.166.29.071c.107.026.22.007.312-.055l.347-.23c.092-.022.176-.076.236-.161.132-.188.092-.453-.09-.59l-5.101-3.845c-.088-.066-.199-.094-.307-.075-.108.019-.204.082-.266.176l-3.598 5.373c-.128.192-.083.455.102.588.07.051.152.076.232.076l.047-.003.396.097.094.011c.076 0 .152-.023.218-.066l.252-.166.291.071c.106.026.22.006.312-.055l.252-.166.291.071c.107.026.219.007.312-.055l.252-.166.29.071c.107.026.219.006.312-.055l.251-.166.291.071c.07.017.142.012.21-.008l.294 1.575c-.3.035-.489.13-.647.211-.16.081-.276.139-.541.139-.266 0-.382-.059-.541-.139-.198-.1-.445-.226-.899-.226s-.7.125-.899.226c-.16.081-.275.139-.541.139-.225 0-.407.189-.407.423 0 .233.182.423.407.423.454 0 .701-.125.899-.226.16-.081.275-.139.541-.139s.382.059.541.139c.198.101.444.226.899.226.454 0 .701-.125.898-.226.139-.07.245-.124.445-.136l.285 1.533h-5.084c-.45 0-.814.378-.814.845 0 .467.365.846.814.846h24.182c.45 0 .815-.379.815-.846 0-.307-.158-.574-.394-.722zm-2.065-.122l-.171-1.521c.138.022.23.068.342.125l.222.104c-.008.495-.047.942-.089 1.292h-.304zm-.577-5.12l.024.03c.604.777.848 1.846.922 2.858-.156-.07-.352-.133-.637-.146l-.309-2.742zm1.776 4.177c.029.355.043.676.048.944h-.121c.031-.273.058-.592.073-.944zm-3.007-.227l.137-.004.073 1.175h-.249c-.051-.328-.126-.735-.241-1.189l.28.018zm-1.044.3c.078.323.135.618.178.871h-.119c-.007-.253-.024-.548-.059-.871zm-13.351-.3c.454 0 .7-.125.898-.226.16-.081.275-.139.541-.139s.381.059.541.139c.198.101.444.226.899.226.454 0 .7-.125.898-.226.16-.081.275-.139.54-.139.266 0 .382.059.541.139.198.101.445.226.899.226s.7-.125.898-.226c.16-.081.275-.139.541-.139s.381.059.541.139c.198.101.444.226.899.226.454 0 .701-.125.899-.226.16-.081.275-.139.541-.139s.381.059.54.139c.198.101.445.226.898.226.454 0 .701-.125.899-.226l.03-.015c.097.533.135 1.026.147 1.411h-13.012l-.24-1.286c.162.064.368.115.66.115zm1.63-4.448l-.135.056-.252.166-.29-.071c-.107-.026-.22-.006-.312.055l-.252.166-.291-.071c-.106-.026-.219-.006-.312.055l-.252.166-.29-.071c-.107-.026-.219-.007-.312.055l-.252.166-.29-.071c-.107-.027-.22-.006-.312.055l-.252.166-.291-.071c-.106-.026-.22-.006-.312.055l-.252.166-.29-.071c-.107-.027-.22-.007-.313.055l-.252.166-.29-.071c-.107-.026-.22-.007-.312.055l-.252.166-.291-.071-.146-.007 2.815-4.203 3.99 3.009z" id="Fill-3"/></g><g fill="#fff" sketch:type="MSShapeGroup"><path d="M13.886 81.911c.293-.256.713-.255 1.005-.023l.013.032c.067.149.211.244.369.244h.056c.158 0 .302-.095.369-.244l.012-.032c.293-.232.712-.233 1.006.022.172.151.429.127.574-.052.144-.178.122-.445-.05-.595-.563-.49-1.356-.514-1.939-.11-.583-.403-1.376-.38-1.939.11-.172.15-.194.416-.05.595.145.179.402.203.574.052"/><path d="M15.756 83.224c-.172.15-.195.417-.05.595.144.179.402.202.573.052.128-.11.306-.118.439-.03.07.14.209.228.362.228h.036c.153 0 .292-.088.362-.229l.167-.058c.099-.009.196.022.272.089.172.15.429.127.574-.052.145-.178.122-.445-.05-.595-.243-.212-.551-.313-.866-.284-.17.015-.332.067-.477.152-.418-.242-.954-.206-1.342.132"/><path d="M28.413 101.389c-.004-.474-.034-1.133-.132-1.874-.259-1.964-.857-3.477-1.775-4.496-.289-.32-.607-.587-.953-.802l-.92-8.153c.392.193.722.493.955.875.31.511.409 1.113.277 1.695-.052.227.084.455.303.508l.094.011c.185 0 .352-.131.396-.326.183-.804.047-1.635-.382-2.339-.295-.486-.704-.873-1.19-1.134.89-.411 1.983-.236 2.694.511.08.083.185.125.29.125.103 0 .206-.04.286-.122.16-.164.162-.431.004-.597-.946-.995-2.397-1.233-3.584-.697.353-.834 1.188-1.422 2.159-1.422.225 0 .407-.189.407-.423 0-.233-.182-.423-.407-.423-1.173 0-2.197.644-2.74 1.597-.544-.953-1.568-1.597-2.74-1.597-.225 0-.408.189-.408.423 0 .233.182.423.408.423.971 0 1.805.588 2.158 1.422-1.188-.536-2.638-.297-3.584.697-.158.166-.156.433.003.597.08.082.183.122.286.122.105 0 .21-.042.29-.125.711-.747 1.803-.922 2.694-.511-.485.262-.895.649-1.191 1.134-.428.704-.563 1.535-.38 2.339.044.195.211.326.396.326l.094-.011c.219-.054.354-.281.303-.508-.132-.582-.034-1.183.277-1.695.242-.398.589-.706 1.003-.899l.475 7.652c-.362-.085-.745-.128-1.149-.128-2.106 0-3.49-2.665-4.03-3.939.822-.286 1.774-.015 2.317.726.08.109.202.166.324.166.086 0 .172-.028.246-.086.179-.141.214-.406.078-.592-.706-.963-1.909-1.356-2.996-1.081.118-.177.266-.335.44-.469.426-.326.956-.466 1.494-.394.224.03.427-.133.456-.365.029-.232-.129-.443-.352-.473-.747-.1-1.487.096-2.082.552-.183.14-.346.3-.486.476-.093-.207-.211-.404-.354-.588-.464-.598-1.132-.983-1.879-1.083-.224-.029-.427.134-.456.365-.029.232.128.443.352.473.538.072 1.017.347 1.349.775.136.175.24.367.31.569-.984-.552-2.244-.489-3.162.256-.178.144-.209.41-.07.594.138.183.394.216.572.073.662-.537 1.569-.58 2.277-.18-.423.179-.798.461-1.093.832-.46.577-.674 1.301-.6 2.041.022.218.199.379.405.379l.042-.002c.224-.024.386-.232.363-.464-.051-.512.097-1.014.417-1.415.326-.409.79-.666 1.312-.731.583 1.577 2.164 5.04 4.807 5.04.457 0 .871.06 1.242.178l.252 4.052-.084.002c-.266 0-.381-.059-.542-.139l-.028-.015c-.105-.308-.227-.624-.37-.941-1.185-2.63-3.186-4.021-5.788-4.021-3.319 0-5.62-2.053-5.914-5.18.39.035.762.171 1.088.402.481.341.802.853.903 1.44.035.205.207.348.4.348l.072-.007c.222-.041.369-.261.33-.49-.141-.813-.583-1.52-1.246-1.99-.457-.324-.981-.51-1.526-.55.659-.745 1.73-1.034 2.668-.642.208.087.446-.018.53-.234.084-.217-.017-.463-.225-.55-1.25-.523-2.673-.143-3.558.839.001-.298.06-.597.176-.885.238-.587.686-1.052 1.262-1.311.206-.093.301-.341.212-.555-.089-.214-.328-.313-.535-.22-.77.346-1.37.971-1.689 1.759-.11.272-.182.552-.216.835-.863-.649-2.048-.817-3.124-.334-.206.093-.301.341-.212.555.089.214.329.313.535.22.891-.401 1.882-.205 2.525.415-1.295-.002-2.535.815-3.023 2.117-.081.218.023.462.232.548l.148.028c.163 0 .317-.103.38-.269.366-.979 1.302-1.59 2.276-1.58-.345.441-.572.964-.658 1.532-.124.823.07 1.641.546 2.304.08.111.203.17.327.17.084 0 .17-.027.243-.083.18-.139.218-.404.083-.592-.344-.479-.484-1.072-.395-1.67.077-.511.311-.975.67-1.339.175 1.643.828 3.143 1.88 4.293 1.255 1.372 2.972 2.128 4.833 2.128 1.51 0 2.694.477 3.521 1.418.52.591.85 1.308 1.059 2.013l-.19.091c-.159.081-.275.139-.541.139-.265 0-.381-.059-.54-.139-.198-.1-.444-.226-.898-.226s-.7.125-.898.226c-.16.081-.276.139-.541.139-.266 0-.381-.059-.541-.139-.198-.1-.445-.226-.899-.226s-.701.125-.899.226c-.16.081-.275.139-.54.139-.266 0-.381-.059-.541-.139-.198-.1-.444-.226-.899-.226-.454 0-.7.125-.898.226-.16.081-.275.139-.54.139-.266 0-.381-.059-.541-.139-.198-.1-.444-.226-.899-.226-.454 0-.7.125-.898.226-.16.081-.275.139-.541.139s-.381-.059-.541-.139l-.307-.135-.333-1.787.153-.061.252-.166.29.071c.107.027.22.007.313-.055l.252-.166.29.071c.107.026.22.006.312-.055l.251-.166.291.071c.107.026.22.006.312-.055l.252-.166.29.071c.107.026.22.007.312-.055l.347-.23c.092-.022.176-.076.236-.161.132-.188.092-.453-.09-.59l-5.101-3.845c-.088-.066-.199-.094-.307-.075-.108.019-.204.082-.266.176l-3.598 5.373c-.128.192-.083.455.102.588.07.051.152.076.232.076l.047-.003.396.097.094.011c.076 0 .152-.023.218-.066l.252-.166.291.071c.106.026.22.006.312-.055l.252-.166.291.071c.107.026.219.007.312-.055l.252-.166.29.071c.107.026.219.006.312-.055l.251-.166.291.071c.07.017.142.012.21-.008l.294 1.575c-.3.035-.489.13-.647.211-.16.081-.276.139-.541.139-.266 0-.382-.059-.541-.139-.198-.1-.445-.226-.899-.226s-.7.125-.899.226c-.16.081-.275.139-.541.139-.225 0-.407.189-.407.423 0 .233.182.423.407.423.454 0 .701-.125.899-.226.16-.081.275-.139.541-.139s.382.059.541.139c.198.101.444.226.899.226.454 0 .701-.125.898-.226.139-.07.245-.124.445-.136l.285 1.533h-5.084c-.45 0-.814.378-.814.845 0 .467.365.846.814.846h24.182c.45 0 .815-.379.815-.846 0-.307-.158-.574-.394-.722zm-2.065-.122l-.171-1.521c.138.022.23.068.342.125l.222.104c-.008.495-.047.942-.089 1.292h-.304zm-.577-5.12l.024.03c.604.777.848 1.846.922 2.858-.156-.07-.352-.133-.637-.146l-.309-2.742zm1.776 4.177c.029.355.043.676.048.944h-.121c.031-.273.058-.592.073-.944zm-3.007-.227l.137-.004.073 1.175h-.249c-.051-.328-.126-.735-.241-1.189l.28.018zm-1.044.3c.078.323.135.618.178.871h-.119c-.007-.253-.024-.548-.059-.871zm-13.351-.3c.454 0 .7-.125.898-.226.16-.081.275-.139.541-.139s.381.059.541.139c.198.101.444.226.899.226.454 0 .7-.125.898-.226.16-.081.275-.139.54-.139.266 0 .382.059.541.139.198.101.445.226.899.226s.7-.125.898-.226c.16-.081.275-.139.541-.139s.381.059.541.139c.198.101.444.226.899.226.454 0 .701-.125.899-.226.16-.081.275-.139.541-.139s.381.059.54.139c.198.101.445.226.898.226.454 0 .701-.125.899-.226l.03-.015c.097.533.135 1.026.147 1.411h-13.012l-.24-1.286c.162.064.368.115.66.115zm1.63-4.448l-.135.056-.252.166-.29-.071c-.107-.026-.22-.006-.312.055l-.252.166-.291-.071c-.106-.026-.219-.006-.312.055l-.252.166-.29-.071c-.107-.026-.219-.007-.312.055l-.252.166-.29-.071c-.107-.027-.22-.006-.312.055l-.252.166-.291-.071c-.106-.026-.22-.006-.312.055l-.252.166-.29-.071c-.107-.027-.22-.007-.313.055l-.252.166-.29-.071c-.107-.026-.22-.007-.312.055l-.252.166-.291-.071-.146-.007 2.815-4.203 3.99 3.009z"/></g></g></g></svg>