<svg width="32" height="232" viewBox="0 0 32 232" xmlns="http://www.w3.org/2000/svg" xmlns:sketch="http://www.bohemiancoding.com/sketch/ns"><title>France</title><g sketch:type="MSLayerGroup" fill="none"><g fill="#373D43" sketch:type="MSShapeGroup"><path d="M15.35 20.95c-.066-.487-.316-.918-.703-1.216-.188-.144-.396-.246-.617-.308.184-.342.258-.732.205-1.125-.066-.487-.316-.919-.703-1.216-.177-.136-.373-.234-.58-.297.18-.339.25-.724.198-1.113-.066-.487-.316-.918-.703-1.216-.319-.245-.7-.375-1.1-.375-.575 0-1.104.265-1.451.728-.344.458-.442 1.029-.316 1.55-.414.013-.8.163-1.11.425l-1.742-1.336c-.18-.138-.435-.102-.57.078-.136.181-.101.439.078.576l1.744 1.338c-.17.38-.203.8-.108 1.193-.552.017-1.057.279-1.392.726-.294.391-.42.875-.353 1.362.066.487.316.918.702 1.215.32.245.7.375 1.1.375.477 0 .921-.183 1.257-.509.113.182.258.348.438.485.319.245.699.374 1.099.374.481 0 .929-.186 1.266-.517.118.197.272.373.459.516.319.245.7.375 1.1.375.575 0 1.104-.265 1.451-.728.294-.391.42-.875.354-1.362zm-2.311-3.209c.214.164.352.403.388.671.036.269-.033.536-.196.753-.192.255-.484.402-.802.402-.221 0-.431-.072-.607-.207-.265-.204-.402-.516-.396-.83l.028-.221c.031-.132.089-.26.175-.374.085-.114.191-.204.309-.271l.218-.091.275-.04c.221 0 .431.072.608.207zm-2.496-2.431c.192-.256.484-.402.802-.402.221 0 .43.071.607.207.214.164.352.403.388.672.036.269-.033.536-.195.753-.086.113-.191.203-.309.271l-.218.091-.276.04c-.22 0-.431-.071-.607-.207-.442-.339-.528-.978-.193-1.424zm-.906 1.873c.22 0 .43.072.607.207.214.164.352.403.388.672l.008.163-.026.207c-.032.137-.091.267-.178.383-.085.113-.191.204-.31.271l-.218.092-.275.04c-.221 0-.43-.072-.607-.207-.442-.339-.528-.978-.193-1.425.192-.255.485-.402.803-.402zm-1.711 4.309c-.221 0-.431-.072-.608-.207-.214-.164-.352-.403-.388-.672-.036-.269.033-.536.196-.753.192-.255.484-.402.802-.402.221 0 .431.072.608.207.268.205.404.521.396.837l-.025.201c-.031.137-.089.269-.178.387-.192.255-.484.402-.802.402zm2.794.35c-.221 0-.431-.072-.608-.207-.268-.205-.404-.521-.396-.837l.025-.201c.031-.137.089-.268.178-.386.085-.114.19-.204.308-.271l.218-.092.276-.04c.221 0 .431.072.607.207.214.165.352.403.389.672.036.268-.033.536-.196.753-.192.255-.484.402-.802.402zm3.627-.028c-.192.255-.484.402-.802.402-.221 0-.431-.072-.607-.207-.214-.164-.352-.403-.389-.671-.036-.269.033-.536.196-.753.192-.255.484-.402.802-.402.221 0 .431.071.608.207.214.165.352.403.388.672.037.269-.033.536-.195.752z" id="Fill-1"/><path d="M21.24 24.001h-1.822v-6.87c2.293-.393 4.045-2.413 4.045-4.841 0-.036-.088-3.789-.519-4.653-.138-.278-.42-.453-.727-.453h-7.227c-.308 0-.589.175-.728.453-.431.864-.519 4.617-.519 4.653 0 2.427 1.752 4.448 4.046 4.841v6.87h-1.822c-.45 0-.814.369-.814.823 0 .455.365.823.814.823h5.272c.45 0 .814-.368.814-.823 0-.454-.365-.823-.814-.823zm-5.615-15.17h5.958c.102.679.19 1.86.229 2.707h-6.416c.04-.847.127-2.028.229-2.707zm-.25 3.53h6.458c-.037 1.768-1.471 3.195-3.229 3.195s-3.192-1.427-3.229-3.195z" id="Fill-2"/></g><g fill="#67737B" sketch:type="MSShapeGroup"><path d="M15.031 61.254c-.064-.497-.305-.938-.679-1.242-.181-.147-.383-.252-.596-.314.178-.349.249-.748.198-1.15-.064-.498-.305-.939-.679-1.242-.171-.139-.36-.24-.561-.304.173-.347.242-.74.191-1.137-.064-.498-.305-.938-.679-1.242-.308-.251-.676-.383-1.062-.383-.555 0-1.066.271-1.402.743-.332.468-.427 1.052-.306 1.583-.4.013-.773.166-1.072.435l-1.682-1.365c-.173-.141-.42-.104-.551.08-.132.185-.098.449.075.589l1.684 1.367c-.164.388-.196.818-.105 1.219-.533.018-1.021.285-1.345.741-.284.4-.405.894-.341 1.392.064.497.305.938.678 1.242.309.251.676.383 1.062.383.461 0 .89-.187 1.214-.52.109.186.25.355.423.496.308.25.675.382 1.062.382.464 0 .897-.19 1.223-.528.114.202.262.381.443.527.308.25.676.383 1.062.383.555 0 1.066-.271 1.401-.743.284-.4.405-.894.342-1.392zm-2.232-3.279c.207.168.34.411.375.686.035.275-.032.548-.189.769-.185.261-.468.411-.775.411-.214 0-.416-.073-.587-.211-.256-.208-.388-.527-.383-.848l.027-.226c.03-.135.086-.265.169-.382.082-.116.185-.208.299-.277l.211-.093.266-.04c.213 0 .416.073.587.211zm-2.411-2.484c.186-.261.468-.411.775-.411.214 0 .416.073.587.211.207.168.34.412.375.686.035.275-.032.548-.189.769-.083.116-.184.208-.298.277l-.211.093-.266.04c-.213 0-.416-.073-.587-.211-.427-.346-.51-.999-.187-1.455zm-.875 1.914c.213 0 .416.073.586.211.207.167.34.411.375.686l.008.166-.025.212c-.031.14-.088.273-.172.391-.082.116-.184.208-.299.277l-.21.094-.266.04c-.213 0-.416-.074-.587-.212-.427-.346-.51-.999-.187-1.456.185-.261.468-.411.775-.411zm-1.653 4.403c-.213 0-.416-.073-.587-.212-.207-.168-.34-.411-.375-.686-.035-.275.032-.548.189-.769.185-.261.468-.411.775-.411.214 0 .417.073.587.211.258.21.39.532.382.855l-.024.205c-.03.14-.086.275-.172.396-.185.261-.468.411-.775.411zm2.699.358c-.213 0-.416-.073-.587-.211-.258-.21-.39-.532-.382-.855l.024-.205c.03-.14.086-.274.172-.395.082-.116.184-.209.298-.277l.211-.094.266-.04c.213 0 .416.073.586.211.207.168.34.412.376.687.035.274-.032.548-.189.769-.185.261-.468.411-.775.411zm3.503-.029c-.185.261-.468.411-.775.411-.214 0-.416-.073-.587-.212-.207-.167-.34-.411-.376-.686-.035-.275.032-.548.189-.769.185-.261.468-.411.775-.411.213 0 .416.073.587.211.207.168.34.412.375.687.036.275-.032.548-.189.769z" id="Fill-1"/><path d="M20.72 64.371h-1.76v-7.019c2.215-.401 3.907-2.466 3.907-4.946 0-.037-.085-3.872-.501-4.754-.133-.284-.405-.463-.702-.463h-6.98c-.298 0-.569.179-.703.463-.416.883-.501 4.717-.501 4.754 0 2.48 1.693 4.545 3.908 4.946v7.019h-1.759c-.434 0-.787.377-.787.841 0 .465.352.841.787.841h5.092c.434 0 .787-.376.787-.841 0-.464-.352-.841-.787-.841zm-5.424-15.5h5.755c.099.694.183 1.901.221 2.766h-6.198c.038-.865.123-2.072.221-2.766zm-.241 3.607h6.238c-.036 1.807-1.421 3.264-3.119 3.264-1.698 0-3.083-1.458-3.119-3.264z" id="Fill-2"/></g><g fill="#206FAC" sketch:type="MSShapeGroup"><path d="M15.031 131.254c-.064-.497-.305-.938-.679-1.242-.181-.147-.383-.252-.596-.314.178-.349.249-.748.198-1.15-.064-.498-.305-.939-.679-1.242-.171-.139-.36-.24-.561-.304.173-.347.242-.74.191-1.137-.064-.498-.305-.938-.679-1.242-.308-.251-.676-.383-1.062-.383-.555 0-1.066.271-1.402.743-.332.468-.427 1.052-.306 1.583-.4.013-.773.166-1.072.435l-1.682-1.365c-.173-.141-.42-.104-.551.08-.132.185-.098.449.075.589l1.684 1.367c-.164.388-.196.818-.105 1.219-.533.018-1.021.285-1.345.741-.284.4-.405.894-.341 1.392.064.497.305.938.678 1.242.309.251.676.383 1.062.383.461 0 .89-.187 1.214-.52.109.186.25.355.423.496.308.25.675.382 1.062.382.464 0 .897-.19 1.223-.528.114.202.262.381.443.527.308.25.676.383 1.062.383.555 0 1.066-.271 1.401-.743.284-.4.405-.894.342-1.392zm-2.232-3.279c.207.168.34.411.375.686.035.275-.032.548-.189.769-.185.261-.468.411-.775.411-.214 0-.416-.073-.587-.211-.256-.208-.388-.527-.383-.848l.027-.226c.03-.135.086-.265.169-.382.082-.116.185-.208.299-.277l.211-.093.266-.04c.213 0 .416.073.587.211zm-2.411-2.484c.186-.261.468-.411.775-.411.214 0 .416.073.587.211.207.168.34.412.375.686.035.275-.032.548-.189.769-.083.116-.184.208-.298.277l-.211.093-.266.04c-.213 0-.416-.073-.587-.211-.427-.346-.51-.999-.187-1.455zm-.875 1.914c.213 0 .416.073.586.211.207.167.34.411.375.686l.008.166-.025.212c-.031.14-.088.273-.172.391-.082.116-.184.208-.299.277l-.21.094-.266.04c-.213 0-.416-.074-.587-.212-.427-.346-.51-.999-.187-1.456.185-.261.468-.411.775-.411zm-1.653 4.403c-.213 0-.416-.073-.587-.212-.207-.168-.34-.411-.375-.686-.035-.275.032-.548.189-.769.185-.261.468-.411.775-.411.214 0 .417.073.587.211.258.21.39.532.382.855l-.024.205c-.03.14-.086.275-.172.396-.185.261-.468.411-.775.411zm2.699.358c-.213 0-.416-.073-.587-.211-.258-.21-.39-.532-.382-.855l.024-.205c.03-.14.086-.274.172-.395.082-.116.184-.209.298-.277l.211-.094.266-.04c.213 0 .416.073.586.211.207.168.34.412.376.687.035.274-.032.548-.189.769-.185.261-.468.411-.775.411zm3.503-.029c-.185.261-.468.411-.775.411-.214 0-.416-.073-.587-.212-.207-.167-.34-.411-.376-.686-.035-.275.032-.548.189-.769.185-.261.468-.411.775-.411.213 0 .416.073.587.211.207.168.34.412.375.687.036.275-.032.548-.189.769z"/><path d="M20.72 134.371h-1.76v-7.019c2.215-.401 3.907-2.466 3.907-4.946 0-.037-.085-3.872-.501-4.754-.133-.284-.405-.463-.702-.463h-6.98c-.298 0-.569.179-.703.463-.416.883-.501 4.717-.501 4.754 0 2.48 1.693 4.545 3.908 4.946v7.019h-1.759c-.434 0-.787.377-.787.841 0 .465.352.841.787.841h5.092c.434 0 .787-.376.787-.841 0-.464-.352-.841-.787-.841zm-5.424-15.5h5.755c.099.694.183 1.901.221 2.766h-6.198c.038-.865.123-2.072.221-2.766zm-.241 3.607h6.238c-.036 1.807-1.421 3.264-3.119 3.264-1.698 0-3.083-1.458-3.119-3.264z"/></g><g fill="#fff" sketch:type="MSShapeGroup"><path d="M15.031 97.254c-.064-.497-.305-.938-.679-1.242-.181-.147-.383-.252-.596-.314.178-.349.249-.748.198-1.15-.064-.498-.305-.939-.679-1.242-.171-.139-.36-.24-.561-.304.173-.347.242-.74.191-1.137-.064-.498-.305-.938-.679-1.242-.308-.251-.676-.383-1.062-.383-.555 0-1.066.271-1.402.743-.332.468-.427 1.052-.306 1.583-.4.013-.773.166-1.072.435l-1.682-1.365c-.173-.141-.42-.104-.551.08-.132.185-.098.449.075.589l1.684 1.367c-.164.388-.196.818-.105 1.219-.533.018-1.021.285-1.345.741-.284.4-.405.894-.341 1.392.064.497.305.938.678 1.242.309.251.676.383 1.062.383.461 0 .89-.187 1.214-.52.109.186.25.355.423.496.308.25.675.382 1.062.382.464 0 .897-.19 1.223-.528.114.202.262.381.443.527.308.25.676.383 1.062.383.555 0 1.066-.271 1.401-.743.284-.4.405-.894.342-1.392zm-2.232-3.279c.207.168.34.411.375.686.035.275-.032.548-.189.769-.185.261-.468.411-.775.411-.214 0-.416-.073-.587-.211-.256-.208-.388-.527-.383-.848l.027-.226c.03-.135.086-.265.169-.382.082-.116.185-.208.299-.277l.211-.093.266-.04c.213 0 .416.073.587.211zm-2.411-2.484c.186-.261.468-.411.775-.411.214 0 .416.073.587.211.207.168.34.412.375.686.035.275-.032.548-.189.769-.083.116-.184.208-.298.277l-.211.093-.266.04c-.213 0-.416-.073-.587-.211-.427-.346-.51-.999-.187-1.455zm-.875 1.914c.213 0 .416.073.586.211.207.167.34.411.375.686l.008.166-.025.212c-.031.14-.088.273-.172.391-.082.116-.184.208-.299.277l-.21.094-.266.04c-.213 0-.416-.074-.587-.212-.427-.346-.51-.999-.187-1.456.185-.261.468-.411.775-.411zm-1.653 4.403c-.213 0-.416-.073-.587-.212-.207-.168-.34-.411-.375-.686-.035-.275.032-.548.189-.769.185-.261.468-.411.775-.411.214 0 .417.073.587.211.258.21.39.532.382.855l-.024.205c-.03.14-.086.275-.172.396-.185.261-.468.411-.775.411zm2.699.358c-.213 0-.416-.073-.587-.211-.258-.21-.39-.532-.382-.855l.024-.205c.03-.14.086-.274.172-.395.082-.116.184-.209.298-.277l.211-.094.266-.04c.213 0 .416.073.586.211.207.168.34.412.376.687.035.274-.032.548-.189.769-.185.261-.468.411-.775.411zm3.503-.029c-.185.261-.468.411-.775.411-.214 0-.416-.073-.587-.212-.207-.167-.34-.411-.376-.686-.035-.275.032-.548.189-.769.185-.261.468-.411.775-.411.213 0 .416.073.587.211.207.168.34.412.375.687.036.275-.032.548-.189.769zM20.72 100.371h-1.76v-7.019c2.215-.401 3.907-2.466 3.907-4.946 0-.037-.085-3.872-.501-4.754-.133-.284-.405-.463-.702-.463h-6.98c-.298 0-.569.179-.703.463-.416.883-.501 4.717-.501 4.754 0 2.48 1.693 4.545 3.908 4.946v7.019h-1.759c-.434 0-.787.377-.787.841 0 .465.352.841.787.841h5.092c.434 0 .787-.376.787-.841 0-.464-.352-.841-.787-.841zm-5.424-15.5h5.755c.099.694.183 1.901.221 2.766h-6.198c.038-.865.123-2.072.221-2.766zm-.241 3.607h6.238c-.036 1.807-1.421 3.264-3.119 3.264-1.698 0-3.083-1.458-3.119-3.264z"/></g></g></svg>