<svg width="32" height="232" viewBox="0 0 32 232" xmlns="http://www.w3.org/2000/svg" xmlns:sketch="http://www.bohemiancoding.com/sketch/ns"><title>Germany</title><g sketch:type="MSPage" fill="none"><g sketch:type="MSLayerGroup"><path d="M28.505 25.479l-1.625-3.998c-.127-.312-.416-.515-.736-.515h-1.122l-.064-5.957h.8400000000000001l.03-.004.026-.003.032-.005c.382-.065.674-.417.674-.843v-.864l.806-1.426c.228-.405.106-.93-.273-1.174-.103-.066-.214-.103-.325-.117l.201-.847c.061-.256.007-.527-.145-.735-.152-.208-.385-.33-.633-.33h-6.175c.071-.247.033-.516-.105-.731-.149-.233-.397-.372-.662-.372h-2.521l.156-.165c.156-.167.157-.438 0-.605-.156-.167-.41-.167-.566-.001l-.104.11v-.47c0-.236-.18-.428-.401-.428-.221 0-.401.192-.401.428v.47l-.104-.11c-.157-.167-.411-.166-.567.001-.156.167-.156.438 0 .605l.155.165h-2.597c-.265 0-.513.139-.662.372-.138.215-.176.484-.106.731h-6.175c-.247 0-.481.122-.633.33-.152.208-.205.479-.144.735l.201.847c-.125.015-.249.061-.361.142-.366.265-.462.796-.214 1.187l.783 1.231v1.044c0 .472.359.855.802.855l.185-.023h.695l-.064 5.957h-1.161c-.32 0-.609.203-.736.515l-1.644 4.048c-.108.264-.083.569.065.809.148.241.4.386.67.386h23.989c.443 0 .802-.383.802-.855 0-.14-.032-.272-.088-.389zm-21.096-4.513l.064-5.957h.213l.092 8.542h-.397l.028-2.586zm1.079-5.957h1.239l-.064 5.957h-1.111l-.064-5.957zm2.346 8.542h-.397l.091-8.542h.213l.093 8.542zm.71-8.542h1.239l-.064 5.957h-1.111l-.064-5.957zm2.345 8.542h-.396l.092-8.542h.213l.091 8.542zm.71-8.542h2.43l-.064 5.957h-2.301l-.065-5.957zm3.538 8.542h-.397l.092-8.542h.213l.092 8.542zm.709-8.542h1.239l-.064 5.957h-1.11l-.065-5.957zm2.346 8.542h-.397l.092-8.542h.213l.092 8.542zm.71-8.542h1.239l-.064 5.957h-1.111l-.064-5.957zm2.318 5.957l.018 1.711.01.875h-.397l.091-8.542h.213l.064 5.957zm-17.696-8.437h-.428l-.125-.197-.092-.145-.214-.337h20.345l-.192.341-.191.339h-19.103zm-.136-2.158h6.091v.539h-5.962l-.129-.539zm6.536-1.531h5.779l-.23.633h-5.318l-.139-.384-.091-.249zm12.11 2.07h-5.886v-.539h6.014l-.128.539zm-11.753-.582h5.065v.582h-5.065v-.582zm-6.688 3.056h18.365v.769h-18.365v-.769zm-1.57 11.629l.949-2.337h.615l-.014 1.297c-.002.115.041.225.116.306.075.081.178.127.285.127h1.208c.108 0 .21-.046.286-.127.075-.081.117-.191.116-.306l-.014-1.297h1.073l-.014 1.297c-.001.115.041.225.116.306.075.081.178.127.285.127h1.208c.107 0 .21-.046.286-.127.075-.081.117-.191.115-.306l-.014-1.297h1.073l-.014 1.297c-.001.115.04.225.116.306.075.081.178.127.285.127h1.209c.107 0 .21-.046.285-.127.075-.081.117-.191.116-.306l-.014-1.297h2.265l-.014 1.297c-.001.115.041.225.116.306.075.081.178.127.285.127h1.208c.107 0 .21-.046.285-.127.075-.081.117-.191.116-.306l-.015-1.297h1.074l-.014 1.297c-.002.115.04.225.115.306.075.081.178.127.286.127h1.208c.107 0 .21-.046.286-.127.075-.081.117-.191.115-.306l-.014-1.297h1.074l-.014 1.297c-.001.115.041.225.116.306.075.081.178.127.285.127h1.209c.107 0 .21-.046.285-.127.075-.081.117-.191.116-.306l-.014-1.297h.577l.95 2.337h-21.544z" fill="#373D43" sketch:type="MSShapeGroup"/><path d="M28.505 65.479l-1.625-3.998c-.127-.312-.416-.515-.736-.515h-1.122l-.064-5.957h.8400000000000001l.03-.004.026-.003.032-.005c.382-.065.674-.417.674-.843v-.864l.806-1.426c.228-.405.106-.93-.273-1.174-.103-.066-.214-.103-.325-.117l.201-.847c.061-.256.007-.527-.145-.735-.152-.208-.385-.33-.633-.33h-6.175c.071-.247.033-.516-.105-.731-.149-.233-.397-.372-.662-.372h-2.521l.156-.165c.156-.167.157-.438 0-.605-.156-.167-.41-.167-.566-.001l-.104.11v-.47c0-.236-.18-.428-.401-.428-.221 0-.401.192-.401.428v.47l-.104-.11c-.157-.167-.411-.166-.567.001-.156.167-.156.438 0 .605l.155.165h-2.597c-.265 0-.513.139-.662.372-.138.215-.176.484-.106.731h-6.175c-.247 0-.481.122-.633.33-.152.208-.205.479-.144.735l.201.847c-.125.015-.249.061-.361.142-.366.265-.462.796-.214 1.187l.783 1.231v1.044c0 .472.359.855.802.855l.185-.023h.695l-.064 5.957h-1.161c-.32 0-.609.203-.736.515l-1.644 4.048c-.108.264-.083.569.065.809.148.241.4.386.67.386h23.989c.443 0 .802-.383.802-.855 0-.14-.032-.272-.088-.389zm-21.096-4.513l.064-5.957h.213l.092 8.542h-.397l.028-2.586zm1.079-5.957h1.239l-.064 5.957h-1.111l-.064-5.957zm2.346 8.542h-.397l.091-8.542h.213l.093 8.542zm.71-8.542h1.239l-.064 5.957h-1.111l-.064-5.957zm2.345 8.542h-.396l.092-8.542h.213l.091 8.542zm.71-8.542h2.43l-.064 5.957h-2.301l-.065-5.957zm3.538 8.542h-.397l.092-8.542h.213l.092 8.542zm.709-8.542h1.239l-.064 5.957h-1.11l-.065-5.957zm2.346 8.542h-.397l.092-8.542h.213l.092 8.542zm.71-8.542h1.239l-.064 5.957h-1.111l-.064-5.957zm2.318 5.957l.018 1.711.01.875h-.397l.091-8.542h.213l.064 5.957zm-17.696-8.437h-.428l-.125-.197-.092-.145-.214-.337h20.345l-.192.341-.191.339h-19.103zm-.136-2.158h6.091v.539h-5.962l-.129-.539zm6.536-1.531h5.779l-.23.633h-5.318l-.139-.384-.091-.249zm12.11 2.07h-5.886v-.539h6.014l-.128.539zm-11.753-.582h5.065v.582h-5.065v-.582zm-6.688 3.056h18.365v.769h-18.365v-.769zm-1.57 11.629l.949-2.337h.615l-.014 1.297c-.002.115.041.225.116.306.075.081.178.127.285.127h1.208c.108 0 .21-.046.286-.127.075-.081.117-.191.116-.306l-.014-1.297h1.073l-.014 1.297c-.001.115.041.225.116.306.075.081.178.127.285.127h1.208c.107 0 .21-.046.286-.127.075-.081.117-.191.115-.306l-.014-1.297h1.073l-.014 1.297c-.001.115.04.225.116.306.075.081.178.127.285.127h1.209c.107 0 .21-.046.285-.127.075-.081.117-.191.116-.306l-.014-1.297h2.265l-.014 1.297c-.001.115.041.225.116.306.075.081.178.127.285.127h1.208c.107 0 .21-.046.285-.127.075-.081.117-.191.116-.306l-.015-1.297h1.074l-.014 1.297c-.002.115.04.225.115.306.075.081.178.127.286.127h1.208c.107 0 .21-.046.286-.127.075-.081.117-.191.115-.306l-.014-1.297h1.074l-.014 1.297c-.001.115.041.225.116.306.075.081.178.127.285.127h1.209c.107 0 .21-.046.285-.127.075-.081.117-.191.116-.306l-.014-1.297h.577l.95 2.337h-21.544z" id="Germany-copy" fill="#67737B" sketch:type="MSShapeGroup"/><path d="M28.505 135.479l-1.625-3.998c-.127-.312-.416-.515-.736-.515h-1.122l-.064-5.957h.8400000000000001l.03-.004.026-.003.032-.005c.382-.065.674-.417.674-.843v-.864l.806-1.426c.228-.405.106-.93-.273-1.174-.103-.066-.214-.103-.325-.117l.201-.847c.061-.256.007-.527-.145-.735-.152-.208-.385-.33-.633-.33h-6.175c.071-.247.033-.516-.105-.731-.149-.233-.397-.372-.662-.372h-2.521l.156-.165c.156-.167.157-.438 0-.605-.156-.167-.41-.167-.566-.001l-.104.11v-.47c0-.236-.18-.428-.401-.428-.221 0-.401.192-.401.428v.47l-.104-.11c-.157-.167-.411-.166-.567.001-.156.167-.156.438 0 .605l.155.165h-2.597c-.265 0-.513.139-.662.372-.138.215-.176.484-.106.731h-6.175c-.247 0-.481.122-.633.33-.152.208-.205.479-.144.735l.201.847c-.125.015-.249.061-.361.142-.366.265-.462.796-.214 1.187l.783 1.231v1.044c0 .472.359.855.802.855l.185-.023h.695l-.064 5.957h-1.161c-.32 0-.609.203-.736.515l-1.644 4.048c-.108.264-.083.569.065.809.148.241.4.386.67.386h23.989c.443 0 .802-.383.802-.855 0-.14-.032-.272-.088-.389zm-21.096-4.513l.064-5.957h.213l.092 8.542h-.397l.028-2.586zm1.079-5.957h1.239l-.064 5.957h-1.111l-.064-5.957zm2.346 8.542h-.397l.091-8.542h.213l.093 8.542zm.71-8.542h1.239l-.064 5.957h-1.111l-.064-5.957zm2.345 8.542h-.396l.092-8.542h.213l.091 8.542zm.71-8.542h2.43l-.064 5.957h-2.301l-.065-5.957zm3.538 8.542h-.397l.092-8.542h.213l.092 8.542zm.709-8.542h1.239l-.064 5.957h-1.11l-.065-5.957zm2.346 8.542h-.397l.092-8.542h.213l.092 8.542zm.71-8.542h1.239l-.064 5.957h-1.111l-.064-5.957zm2.318 5.957l.018 1.711.01.875h-.397l.091-8.542h.213l.064 5.957zm-17.696-8.437h-.428l-.125-.197-.092-.145-.214-.337h20.345l-.192.341-.191.339h-19.103zm-.136-2.158h6.091v.539h-5.962l-.129-.539zm6.536-1.531h5.779l-.23.633h-5.318l-.139-.384-.091-.249zm12.11 2.07h-5.886v-.539h6.014l-.128.539zm-11.753-.582h5.065v.582h-5.065v-.582zm-6.688 3.056h18.365v.769h-18.365v-.769zm-1.57 11.629l.949-2.337h.615l-.014 1.297c-.002.115.041.225.116.306.075.081.178.127.285.127h1.208c.108 0 .21-.046.286-.127.075-.081.117-.191.116-.306l-.014-1.297h1.073l-.014 1.297c-.001.115.041.225.116.306.075.081.178.127.285.127h1.208c.107 0 .21-.046.286-.127.075-.081.117-.191.115-.306l-.014-1.297h1.073l-.014 1.297c-.001.115.04.225.116.306.075.081.178.127.285.127h1.209c.107 0 .21-.046.285-.127.075-.081.117-.191.116-.306l-.014-1.297h2.265l-.014 1.297c-.001.115.041.225.116.306.075.081.178.127.285.127h1.208c.107 0 .21-.046.285-.127.075-.081.117-.191.116-.306l-.015-1.297h1.074l-.014 1.297c-.002.115.04.225.115.306.075.081.178.127.286.127h1.208c.107 0 .21-.046.286-.127.075-.081.117-.191.115-.306l-.014-1.297h1.074l-.014 1.297c-.001.115.041.225.116.306.075.081.178.127.285.127h1.209c.107 0 .21-.046.285-.127.075-.081.117-.191.116-.306l-.014-1.297h.577l.95 2.337h-21.544z" fill="#206FAC" sketch:type="MSShapeGroup"/><path d="M28.505 101.479l-1.625-3.998c-.127-.312-.416-.515-.736-.515h-1.122l-.064-5.957h.8400000000000001l.03-.004.026-.003.032-.005c.382-.065.674-.417.674-.843v-.864l.806-1.426c.228-.405.106-.93-.273-1.174-.103-.066-.214-.103-.325-.117l.201-.847c.061-.256.007-.527-.145-.735-.152-.208-.385-.33-.633-.33h-6.175c.071-.247.033-.516-.105-.731-.149-.233-.397-.372-.662-.372h-2.521l.156-.165c.156-.167.157-.438 0-.605-.156-.167-.41-.167-.566-.001l-.104.11v-.47c0-.236-.18-.428-.401-.428-.221 0-.401.192-.401.428v.47l-.104-.11c-.157-.167-.411-.166-.567.001-.156.167-.156.438 0 .605l.155.165h-2.597c-.265 0-.513.139-.662.372-.138.215-.176.484-.106.731h-6.175c-.247 0-.481.122-.633.33-.152.208-.205.479-.144.735l.201.847c-.125.015-.249.061-.361.142-.366.265-.462.796-.214 1.187l.783 1.231v1.044c0 .472.359.855.802.855l.185-.023h.695l-.064 5.957h-1.161c-.32 0-.609.203-.736.515l-1.644 4.048c-.108.264-.083.569.065.809.148.241.4.386.67.386h23.989c.443 0 .802-.383.802-.855 0-.14-.032-.272-.088-.389zm-21.096-4.513l.064-5.957h.213l.092 8.542h-.397l.028-2.586zm1.079-5.957h1.239l-.064 5.957h-1.111l-.064-5.957zm2.346 8.542h-.397l.091-8.542h.213l.093 8.542zm.71-8.542h1.239l-.064 5.957h-1.111l-.064-5.957zm2.345 8.542h-.396l.092-8.542h.213l.091 8.542zm.71-8.542h2.43l-.064 5.957h-2.301l-.065-5.957zm3.538 8.542h-.397l.092-8.542h.213l.092 8.542zm.709-8.542h1.239l-.064 5.957h-1.11l-.065-5.957zm2.346 8.542h-.397l.092-8.542h.213l.092 8.542zm.71-8.542h1.239l-.064 5.957h-1.111l-.064-5.957zm2.318 5.957l.018 1.711.01.875h-.397l.091-8.542h.213l.064 5.957zm-17.696-8.437h-.428l-.125-.197-.092-.145-.214-.337h20.345l-.192.341-.191.339h-19.103zm-.136-2.158h6.091v.539h-5.962l-.129-.539zm6.536-1.531h5.779l-.23.633h-5.318l-.139-.384-.091-.249zm12.11 2.07h-5.886v-.539h6.014l-.128.539zm-11.753-.582h5.065v.582h-5.065v-.582zm-6.688 3.056h18.365v.769h-18.365v-.769zm-1.57 11.629l.949-2.337h.615l-.014 1.297c-.002.115.041.225.116.306.075.081.178.127.285.127h1.208c.108 0 .21-.046.286-.127.075-.081.117-.191.116-.306l-.014-1.297h1.073l-.014 1.297c-.001.115.041.225.116.306.075.081.178.127.285.127h1.208c.107 0 .21-.046.286-.127.075-.081.117-.191.115-.306l-.014-1.297h1.073l-.014 1.297c-.001.115.04.225.116.306.075.081.178.127.285.127h1.209c.107 0 .21-.046.285-.127.075-.081.117-.191.116-.306l-.014-1.297h2.265l-.014 1.297c-.001.115.041.225.116.306.075.081.178.127.285.127h1.208c.107 0 .21-.046.285-.127.075-.081.117-.191.116-.306l-.015-1.297h1.074l-.014 1.297c-.002.115.04.225.115.306.075.081.178.127.286.127h1.208c.107 0 .21-.046.286-.127.075-.081.117-.191.115-.306l-.014-1.297h1.074l-.014 1.297c-.001.115.041.225.116.306.075.081.178.127.285.127h1.209c.107 0 .21-.046.285-.127.075-.081.117-.191.116-.306l-.014-1.297h.577l.95 2.337h-21.544z" fill="#fff" sketch:type="MSShapeGroup"/></g></g></svg>