<svg width="32" height="232" viewBox="0 0 32 232" xmlns="http://www.w3.org/2000/svg" xmlns:sketch="http://www.bohemiancoding.com/sketch/ns"><title>Berlin</title><g sketch:type="MSLayerGroup" fill="none"><path d="M28.505 65.097l-1.624-3.92c-.128-.306-.416-.505-.737-.505h-1.122l-.064-5.841h.841l.03-.003.026-.003.032-.005c.383-.064.675-.41.675-.827v-.847l.806-1.398c.228-.397.106-.912-.273-1.151-.103-.065-.214-.101-.325-.114l.202-.83c.061-.251.007-.517-.145-.721-.152-.204-.386-.323-.633-.323h-6.175c.07-.243.032-.506-.106-.717-.149-.228-.397-.364-.662-.364h-2.52l.155-.162c.157-.163.157-.429.001-.593-.156-.164-.41-.164-.567-.001l-.104.109v-.461c0-.231-.18-.419-.401-.419-.221 0-.401.188-.401.419v.461l-.104-.109c-.157-.163-.411-.163-.567.001-.156.164-.156.429.001.593l.156.162h-2.598c-.265 0-.513.136-.662.364-.138.211-.176.475-.106.717h-6.175c-.247 0-.481.119-.633.323-.152.204-.205.47-.145.721l.202.83c-.126.014-.25.059-.361.138-.367.26-.463.781-.214 1.164l.782 1.208v1.023c0 .463.359.838.802.838l.184-.023h.695l-.064 5.841h-1.161c-.32 0-.609.198-.736.505l-1.644 3.968c-.108.259-.083.557.065.793.149.236.4.378.67.378h23.989c.443 0 .802-.375.802-.838 0-.138-.032-.267-.088-.382zm-21.095-4.424l.064-5.841h.213l.091 8.375h-.397l.028-2.534zm1.079-5.841h1.239l-.064 5.841h-1.11l-.064-5.841zm2.346 8.375h-.397l.092-8.375h.213l.092 8.375zm.71-8.375h1.238l-.064 5.841h-1.11l-.064-5.841zm2.346 8.375h-.397l.092-8.375h.214l.092 8.375zm.71-8.375h2.43l-.064 5.841h-2.302l-.064-5.841zm3.537 8.375h-.397l.092-8.375h.213l.082 7.517.01.858zm.71-8.375h1.238l-.064 5.841h-1.11l-.064-5.841zm2.345 8.375h-.397l.093-8.375h.213l.091 8.375zm.71-8.375h1.239l-.064 5.841h-1.11l-.064-5.841zm2.318 5.841l.028 2.534h-.397l.092-8.375h.213l.065 5.841zm-17.696-8.272h-.427l-.126-.194-.092-.142-.214-.33h20.345l-.193.334-.08.138-.111.194h-19.102zm-.136-2.116h6.091v.529h-5.963l-.128-.529zm6.536-1.5h5.779l-.091.243-.139.377h-5.318l-.14-.377-.091-.243zm12.11 2.029h-5.885v-.529h6.014l-.128.529zm-11.753-.571h5.065v.571h-5.065v-.571zm-6.688 2.996h18.365v.754h-18.365v-.754zm-1.571 11.401l.949-2.291h.616l-.014 1.272c-.002.112.04.22.116.3.075.079.178.124.285.124h1.209c.107 0 .21-.045.285-.124.076-.08.117-.188.116-.299l-.014-1.272h1.074l-.014 1.272c-.002.112.04.22.115.3.076.079.178.124.286.124h1.208c.108 0 .21-.045.286-.124.075-.08.117-.188.116-.3l-.014-1.272h1.073l-.014 1.272c-.001.112.041.22.116.3.075.079.178.124.285.124h1.208c.107 0 .21-.045.285-.124.075-.08.117-.188.116-.3l-.014-1.272h2.265l-.015 1.272c0 .112.041.219.117.299.075.079.178.124.285.124h1.208c.107 0 .21-.045.285-.124.075-.08.117-.188.116-.299l-.014-1.272h1.073l-.014 1.272c-.001.112.041.219.116.299.075.079.178.124.285.124h1.208c.108 0 .21-.045.285-.124.075-.08.117-.188.116-.299l-.014-1.272h1.073l-.014 1.272c-.001.112.041.22.116.3.075.079.178.124.286.124h1.208c.107 0 .21-.045.286-.124.075-.08.117-.188.115-.299l-.014-1.272h.577l.95 2.291h-21.545z" fill="#373D43" sketch:type="MSShapeGroup"/><path d="M28.505 25.097l-1.624-3.92c-.128-.306-.416-.505-.737-.505h-1.122l-.064-5.841h.841l.03-.003.026-.003.032-.005c.383-.064.675-.41.675-.827v-.847l.806-1.398c.228-.397.106-.912-.273-1.151-.103-.065-.214-.101-.325-.114l.202-.83c.061-.251.007-.517-.145-.721-.152-.204-.386-.323-.633-.323h-6.175c.07-.243.032-.506-.106-.717-.149-.228-.397-.364-.662-.364h-2.52l.155-.162c.157-.163.157-.429.001-.593-.156-.164-.41-.164-.567-.001l-.104.109v-.461c0-.231-.18-.419-.401-.419-.221 0-.401.188-.401.419v.461l-.104-.109c-.157-.163-.411-.163-.567.001-.156.164-.156.429.001.593l.156.162h-2.598c-.265 0-.513.136-.662.364-.138.211-.176.475-.106.717h-6.175c-.247 0-.481.119-.633.323-.152.204-.205.47-.145.721l.202.83c-.126.014-.25.059-.361.138-.367.26-.463.781-.214 1.164l.782 1.208v1.023c0 .463.359.838.802.838l.184-.023h.695l-.064 5.841h-1.161c-.32 0-.609.198-.736.505l-1.644 3.968c-.108.259-.083.557.065.793.149.236.4.378.67.378h23.989c.443 0 .802-.375.802-.838 0-.138-.032-.267-.088-.382zm-21.095-4.424l.064-5.841h.213l.091 8.375h-.397l.028-2.534zm1.079-5.841h1.239l-.064 5.841h-1.11l-.064-5.841zm2.346 8.375h-.397l.092-8.375h.213l.092 8.375zm.71-8.375h1.238l-.064 5.841h-1.11l-.064-5.841zm2.346 8.375h-.397l.092-8.375h.214l.092 8.375zm.71-8.375h2.43l-.064 5.841h-2.302l-.064-5.841zm3.537 8.375h-.397l.092-8.375h.213l.082 7.517.01.858zm.71-8.375h1.238l-.064 5.841h-1.11l-.064-5.841zm2.345 8.375h-.397l.093-8.375h.213l.091 8.375zm.71-8.375h1.239l-.064 5.841h-1.11l-.064-5.841zm2.318 5.841l.028 2.534h-.397l.092-8.375h.213l.065 5.841zm-17.696-8.272h-.427l-.126-.194-.092-.142-.214-.33h20.345l-.193.334-.08.138-.111.194h-19.102zm-.136-2.116h6.091v.529h-5.963l-.128-.529zm6.536-1.5h5.779l-.091.243-.139.377h-5.318l-.14-.377-.091-.243zm12.11 2.029h-5.885v-.529h6.014l-.128.529zm-11.753-.571h5.065v.571h-5.065v-.571zm-6.688 2.996h18.365v.754h-18.365v-.754zm-1.571 11.401l.949-2.291h.616l-.014 1.272c-.002.112.04.22.116.3.075.079.178.124.285.124h1.209c.107 0 .21-.045.285-.124.076-.08.117-.188.116-.299l-.014-1.272h1.074l-.014 1.272c-.002.112.04.22.115.3.076.079.178.124.286.124h1.208c.108 0 .21-.045.286-.124.075-.08.117-.188.116-.3l-.014-1.272h1.073l-.014 1.272c-.001.112.041.22.116.3.075.079.178.124.285.124h1.208c.107 0 .21-.045.285-.124.075-.08.117-.188.116-.3l-.014-1.272h2.265l-.015 1.272c0 .112.041.219.117.299.075.079.178.124.285.124h1.208c.107 0 .21-.045.285-.124.075-.08.117-.188.116-.299l-.014-1.272h1.073l-.014 1.272c-.001.112.041.219.116.299.075.079.178.124.285.124h1.208c.108 0 .21-.045.285-.124.075-.08.117-.188.116-.299l-.014-1.272h1.073l-.014 1.272c-.001.112.041.22.116.3.075.079.178.124.286.124h1.208c.107 0 .21-.045.286-.124.075-.08.117-.188.115-.299l-.014-1.272h.577l.95 2.291h-21.545z" fill="#fff" sketch:type="MSShapeGroup"/><path d="M28.505 105.097l-1.624-3.92c-.128-.306-.416-.505-.737-.505h-1.122l-.064-5.841h.841l.03-.003.026-.003.032-.005c.383-.064.675-.41.675-.827v-.847l.806-1.398c.228-.397.106-.912-.273-1.151-.103-.065-.214-.101-.325-.114l.202-.83c.061-.251.007-.517-.145-.721-.152-.204-.386-.323-.633-.323h-6.175c.07-.243.032-.506-.106-.717-.149-.228-.397-.364-.662-.364h-2.52l.155-.162c.157-.163.157-.429.001-.593-.156-.164-.41-.164-.567-.001l-.104.109v-.461c0-.231-.18-.419-.401-.419-.221 0-.401.188-.401.419v.461l-.104-.109c-.157-.163-.411-.163-.567.001-.156.164-.156.429.001.593l.156.162h-2.598c-.265 0-.513.136-.662.364-.138.211-.176.475-.106.717h-6.175c-.247 0-.481.119-.633.323-.152.204-.205.47-.145.721l.202.83c-.126.014-.25.059-.361.138-.367.26-.463.781-.214 1.164l.782 1.208v1.023c0 .463.359.838.802.838l.184-.023h.695l-.064 5.841h-1.161c-.32 0-.609.198-.736.505l-1.644 3.968c-.108.259-.083.557.065.793.149.236.4.378.67.378h23.989c.443 0 .802-.375.802-.838 0-.138-.032-.267-.088-.382zm-21.095-4.424l.064-5.841h.213l.091 8.375h-.397l.028-2.534zm1.079-5.841h1.239l-.064 5.841h-1.11l-.064-5.841zm2.346 8.375h-.397l.092-8.375h.213l.092 8.375zm.71-8.375h1.238l-.064 5.841h-1.11l-.064-5.841zm2.346 8.375h-.397l.092-8.375h.214l.092 8.375zm.71-8.375h2.43l-.064 5.841h-2.302l-.064-5.841zm3.537 8.375h-.397l.092-8.375h.213l.082 7.517.01.858zm.71-8.375h1.238l-.064 5.841h-1.11l-.064-5.841zm2.345 8.375h-.397l.093-8.375h.213l.091 8.375zm.71-8.375h1.239l-.064 5.841h-1.11l-.064-5.841zm2.318 5.841l.028 2.534h-.397l.092-8.375h.213l.065 5.841zm-17.696-8.272h-.427l-.126-.194-.092-.142-.214-.33h20.345l-.193.334-.08.138-.111.194h-19.102zm-.136-2.116h6.091v.529h-5.963l-.128-.529zm6.536-1.5h5.779l-.091.243-.139.377h-5.318l-.14-.377-.091-.243zm12.11 2.029h-5.885v-.529h6.014l-.128.529zm-11.753-.571h5.065v.571h-5.065v-.571zm-6.688 2.996h18.365v.754h-18.365v-.754zm-1.571 11.401l.949-2.291h.616l-.014 1.272c-.002.112.04.22.116.3.075.079.178.124.285.124h1.209c.107 0 .21-.045.285-.124.076-.08.117-.188.116-.299l-.014-1.272h1.074l-.014 1.272c-.002.112.04.22.115.3.076.079.178.124.286.124h1.208c.108 0 .21-.045.286-.124.075-.08.117-.188.116-.3l-.014-1.272h1.073l-.014 1.272c-.001.112.041.22.116.3.075.079.178.124.285.124h1.208c.107 0 .21-.045.285-.124.075-.08.117-.188.116-.3l-.014-1.272h2.265l-.015 1.272c0 .112.041.219.117.299.075.079.178.124.285.124h1.208c.107 0 .21-.045.285-.124.075-.08.117-.188.116-.299l-.014-1.272h1.073l-.014 1.272c-.001.112.041.219.116.299.075.079.178.124.285.124h1.208c.108 0 .21-.045.285-.124.075-.08.117-.188.116-.299l-.014-1.272h1.073l-.014 1.272c-.001.112.041.22.116.3.075.079.178.124.286.124h1.208c.107 0 .21-.045.286-.124.075-.08.117-.188.115-.299l-.014-1.272h.577l.95 2.291h-21.545z" fill="#67737B" sketch:type="MSShapeGroup"/><path d="M28.505 145.097l-1.624-3.92c-.128-.306-.416-.505-.737-.505h-1.122l-.064-5.841h.841l.03-.003.026-.003.032-.005c.383-.064.675-.41.675-.827v-.847l.806-1.398c.228-.397.106-.912-.273-1.151-.103-.065-.214-.101-.325-.114l.202-.83c.061-.251.007-.517-.145-.721-.152-.204-.386-.323-.633-.323h-6.175c.07-.243.032-.506-.106-.717-.149-.228-.397-.364-.662-.364h-2.52l.155-.162c.157-.163.157-.429.001-.593-.156-.164-.41-.164-.567-.001l-.104.109v-.461c0-.231-.18-.419-.401-.419-.221 0-.401.188-.401.419v.461l-.104-.109c-.157-.163-.411-.163-.567.001-.156.164-.156.429.001.593l.156.162h-2.598c-.265 0-.513.136-.662.364-.138.211-.176.475-.106.717h-6.175c-.247 0-.481.119-.633.323-.152.204-.205.47-.145.721l.202.83c-.126.014-.25.059-.361.138-.367.26-.463.781-.214 1.164l.782 1.208v1.023c0 .463.359.838.802.838l.184-.023h.695l-.064 5.841h-1.161c-.32 0-.609.198-.736.505l-1.644 3.968c-.108.259-.083.557.065.793.149.236.4.378.67.378h23.989c.443 0 .802-.375.802-.838 0-.138-.032-.267-.088-.382zm-21.095-4.424l.064-5.841h.213l.091 8.375h-.397l.028-2.534zm1.079-5.841h1.239l-.064 5.841h-1.11l-.064-5.841zm2.346 8.375h-.397l.092-8.375h.213l.092 8.375zm.71-8.375h1.238l-.064 5.841h-1.11l-.064-5.841zm2.346 8.375h-.397l.092-8.375h.214l.092 8.375zm.71-8.375h2.43l-.064 5.841h-2.302l-.064-5.841zm3.537 8.375h-.397l.092-8.375h.213l.082 7.517.01.858zm.71-8.375h1.238l-.064 5.841h-1.11l-.064-5.841zm2.345 8.375h-.397l.093-8.375h.213l.091 8.375zm.71-8.375h1.239l-.064 5.841h-1.11l-.064-5.841zm2.318 5.841l.028 2.534h-.397l.092-8.375h.213l.065 5.841zm-17.696-8.272h-.427l-.126-.194-.092-.142-.214-.33h20.345l-.193.334-.08.138-.111.194h-19.102zm-.136-2.116h6.091v.529h-5.963l-.128-.529zm6.536-1.5h5.779l-.091.243-.139.377h-5.318l-.14-.377-.091-.243zm12.11 2.029h-5.885v-.529h6.014l-.128.529zm-11.753-.571h5.065v.571h-5.065v-.571zm-6.688 2.996h18.365v.754h-18.365v-.754zm-1.571 11.401l.949-2.291h.616l-.014 1.272c-.002.112.04.22.116.3.075.079.178.124.285.124h1.209c.107 0 .21-.045.285-.124.076-.08.117-.188.116-.299l-.014-1.272h1.074l-.014 1.272c-.002.112.04.22.115.3.076.079.178.124.286.124h1.208c.108 0 .21-.045.286-.124.075-.08.117-.188.116-.3l-.014-1.272h1.073l-.014 1.272c-.001.112.041.22.116.3.075.079.178.124.285.124h1.208c.107 0 .21-.045.285-.124.075-.08.117-.188.116-.3l-.014-1.272h2.265l-.015 1.272c0 .112.041.219.117.299.075.079.178.124.285.124h1.208c.107 0 .21-.045.285-.124.075-.08.117-.188.116-.299l-.014-1.272h1.073l-.014 1.272c-.001.112.041.219.116.299.075.079.178.124.285.124h1.208c.108 0 .21-.045.285-.124.075-.08.117-.188.116-.299l-.014-1.272h1.073l-.014 1.272c-.001.112.041.22.116.3.075.079.178.124.286.124h1.208c.107 0 .21-.045.286-.124.075-.08.117-.188.115-.299l-.014-1.272h.577l.95 2.291h-21.545z" fill="#206FAC" sketch:type="MSShapeGroup"/></g></svg>