<svg width="32" height="232" viewBox="0 0 32 232" xmlns="http://www.w3.org/2000/svg" xmlns:sketch="http://www.bohemiancoding.com/sketch/ns"><title>Guatemala</title><g sketch:type="MSPage" fill="none"><g sketch:type="MSLayerGroup"><path d="M30.031 24.503h-2.977v-.844c-.038-.853-.561-1.565-1.286-1.857v-1.413c0-.444-.366-.806-.822-.819v-4.004c0-.45-.376-.815-.84-.82v-4.185c0-.453-.38-.82-.848-.82h-1.861v-2.965l.002-.016-.016-.111-.482-2.511c-.038-.194-.213-.335-.417-.335h-.703l-.492-.293c-.118-.071-.264-.081-.391-.027l-.608.254-.675-.547c-.065-.052-.143-.085-.226-.093l-.895-.093c-.132-.014-.264.033-.355.127l-.545.564-.981-.546c-.191-.106-.435-.054-.56.121l-.338.471-.607-.16c-.07-.019-.143-.019-.213-.002l-.99.236c-.162.038-.285.165-.315.323l-.487 2.539-.001.008-.007.068-.001.006v2.981h-1.944c-.468 0-.848.368-.848.82v4.185c-.465.004-.841.37-.841.82v4.004c-.456.014-.822.375-.822.819v4.114h-.684v-.363l-.001-.017c-.035-.801-.672-1.427-1.45-1.427-.778 0-1.415.627-1.45 1.427l-.001.017v.363h-1.204c-.469 0-.848.367-.848.82 0 .453.38.82.848.82h1.204v1.619c0 .226.19.41.425.41h3.29c.235 0 .425-.183.425-.41 0-.227-.19-.411-.425-.411h-.813v-1.208h17.065v3.154c0 .227.19.41.425.41h5.617c.235 0 .424-.183.424-.41 0-.226-.19-.41-.424-.41h-2.007v-2.744h2.977c.468 0 .848-.368.848-.82 0-.453-.38-.82-.848-.82zm-3.825 1.641v2.744h-2.338v-5.203c.012-.242.086-.464.204-.65.19-.302.496-.509.848-.547l.117-.006c.277 0 .53.104.731.279.252.219.42.549.438.925v2.459zm-13.833-21.597l.618-.147.789.208.097.013.22-.05.143-.125.287-.399.543.303.143-.033-.024.099-.101.421-.778-.065h-.069l-1.248.091-.103-.017-.556-.093.039-.205zm4.797-.649l.776.629c.123.1.294.123.44.062l.646-.27.406.242c.067.04.144.061.223.061h.47l.331 1.727h-8.435l.152-.791.72.122.105.005 1.267-.093 1.111.093.037.002c.196 0 .369-.13.413-.318l.229-.956.553-.572.555.058zm-5.228 5.842v-2.571h8.607v2.804h-2.771v-1.403c0-.226-.19-.41-.424-.41h-2.217c-.234 0-.424.184-.424.41v1.403h-2.771v-.234zm3.62 0v-.758h1.368v.992h-1.368v-.234zm3.971 2.554v.405h-6.473l-.034.003v-.412l.034.004h6.473zm-6.507 1.222l.034.003h6.473v.405h-6.473l-.034.003v-.411zm0 4.901l.034.003h6.473v.405h-6.473l-.034.003v-.411zm.034-1.222h6.473v.405h-6.473l-.034.003v-.411l.034.003zm-.034 2.447l.034.003h6.473v.405h-6.473l-.034.003v-.411zm0-8.516h6.507v.347h-6.473l-.034.004v-.351zm0 3.615l.034.003h6.473v.405h-6.473l-.034.003v-.411zm0 1.225l.034.003h6.473v.405h-6.473l-.034.004v-.411zm0 6.126l.034.003h6.473v.405h-6.473l-.034.004v-.411zm0 1.225l.034.004h6.473v.405h-6.473l-.034.003v-.411zm6.507-2.042h-6.473l-.034.004v-.412l.034.004h6.473v.405zm.848-4.889h2.87v3.293h-2.87v-3.293zm0-5.005h2.029v3.293h-2.029v-3.293zm-11.223 8.187v-3.182h3.019v3.293h-3.019v-.111zm3.868 4.974l.034.004h6.473v.367h-6.507v-.37zm-3.027-13.162h2.178v3.293h-2.178v-3.293zm-1.662 9.939h3.841v3.183h-3.841v-3.183zm12.045 0h3.692v.594c-.602.339-1.019.986-1.052 1.744l-.001.017v.827h-2.639v-3.183zm-15.274 4.824v1.208h-1.205v-3.203c.019-.356.283-.633.602-.633.32 0 .583.277.602.633v1.995z" fill="#373D43" sketch:type="MSShapeGroup"/><path d="M30.031 64.503h-2.977v-.844c-.038-.853-.561-1.565-1.286-1.857v-1.413c0-.444-.366-.806-.822-.819v-4.004c0-.45-.376-.815-.84-.82v-4.185c0-.453-.38-.82-.848-.82h-1.861v-2.965l.002-.016-.016-.111-.482-2.511c-.038-.194-.213-.335-.417-.335h-.703l-.492-.293c-.118-.071-.264-.081-.391-.027l-.608.254-.675-.547c-.065-.052-.143-.085-.226-.093l-.895-.093c-.132-.014-.264.033-.355.127l-.545.564-.981-.546c-.191-.106-.435-.054-.56.121l-.338.471-.607-.16c-.07-.019-.143-.019-.213-.002l-.99.236c-.162.038-.285.165-.315.323l-.487 2.539-.001.008-.007.068-.001.006v2.981h-1.944c-.468 0-.848.368-.848.82v4.185c-.465.004-.841.37-.841.82v4.004c-.456.014-.822.375-.822.819v4.114h-.684v-.363l-.001-.017c-.035-.801-.672-1.427-1.45-1.427-.778 0-1.415.627-1.45 1.427l-.001.017v.363h-1.204c-.469 0-.848.367-.848.82 0 .453.38.82.848.82h1.204v1.619c0 .226.19.41.425.41h3.29c.235 0 .425-.183.425-.41 0-.227-.19-.411-.425-.411h-.813v-1.208h17.065v3.154c0 .227.19.41.425.41h5.617c.235 0 .424-.183.424-.41 0-.226-.19-.41-.424-.41h-2.007v-2.744h2.977c.468 0 .848-.368.848-.82 0-.453-.38-.82-.848-.82zm-3.825 1.641v2.744h-2.338v-5.203c.012-.242.086-.464.204-.65.19-.302.496-.509.848-.547l.117-.006c.277 0 .53.104.731.279.252.219.42.549.438.925v2.459zm-13.833-21.597l.618-.147.789.208.097.013.22-.05.143-.125.287-.399.543.303.143-.033-.024.099-.101.421-.778-.065h-.069l-1.248.091-.103-.017-.556-.093.039-.205zm4.797-.649l.776.629c.123.1.294.123.44.062l.646-.27.406.242c.067.04.144.061.223.061h.47l.331 1.727h-8.435l.152-.791.72.122.105.005 1.267-.093 1.111.093.037.002c.196 0 .369-.13.413-.318l.229-.956.553-.572.555.058zm-5.228 5.842v-2.571h8.607v2.804h-2.771v-1.403c0-.226-.19-.41-.424-.41h-2.217c-.234 0-.424.184-.424.41v1.403h-2.771v-.234zm3.62 0v-.758h1.368v.992h-1.368v-.234zm3.971 2.554v.405h-6.473l-.034.003v-.412l.034.004h6.473zm-6.507 1.222l.034.003h6.473v.405h-6.473l-.034.003v-.411zm0 4.901l.034.003h6.473v.405h-6.473l-.034.003v-.411zm.034-1.222h6.473v.405h-6.473l-.034.003v-.411l.034.003zm-.034 2.447l.034.003h6.473v.405h-6.473l-.034.003v-.411zm0-8.516h6.507v.347h-6.473l-.034.004v-.351zm0 3.615l.034.003h6.473v.405h-6.473l-.034.003v-.411zm0 1.225l.034.003h6.473v.405h-6.473l-.034.004v-.411zm0 6.126l.034.003h6.473v.405h-6.473l-.034.004v-.411zm0 1.225l.034.004h6.473v.405h-6.473l-.034.003v-.411zm6.507-2.042h-6.473l-.034.004v-.412l.034.004h6.473v.405zm.848-4.889h2.87v3.293h-2.87v-3.293zm0-5.005h2.029v3.293h-2.029v-3.293zm-11.223 8.187v-3.182h3.019v3.293h-3.019v-.111zm3.868 4.974l.034.004h6.473v.367h-6.507v-.37zm-3.027-13.162h2.178v3.293h-2.178v-3.293zm-1.662 9.939h3.841v3.183h-3.841v-3.183zm12.045 0h3.692v.594c-.602.339-1.019.986-1.052 1.744l-.001.017v.827h-2.639v-3.183zm-15.274 4.824v1.208h-1.205v-3.203c.019-.356.283-.633.602-.633.32 0 .583.277.602.633v1.995z" id="Guatemala-copy" fill="#67737B" sketch:type="MSShapeGroup"/><path d="M30.031 134.503h-2.977v-.844c-.038-.853-.561-1.565-1.286-1.857v-1.413c0-.444-.366-.806-.822-.819v-4.004c0-.45-.376-.815-.84-.82v-4.185c0-.453-.38-.82-.848-.82h-1.861v-2.965l.002-.016-.016-.111-.482-2.511c-.038-.194-.213-.335-.417-.335h-.703l-.492-.293c-.118-.071-.264-.081-.391-.027l-.608.254-.675-.547c-.065-.052-.143-.085-.226-.093l-.895-.093c-.132-.014-.264.033-.355.127l-.545.564-.981-.546c-.191-.106-.435-.054-.56.121l-.338.471-.607-.16c-.07-.019-.143-.019-.213-.002l-.99.236c-.162.038-.285.165-.315.323l-.487 2.539-.001.008-.007.068-.001.006v2.981h-1.944c-.468 0-.848.368-.848.82v4.185c-.465.004-.841.37-.841.82v4.004c-.456.014-.822.375-.822.819v4.114h-.684v-.363l-.001-.017c-.035-.801-.672-1.427-1.45-1.427-.778 0-1.415.627-1.45 1.427l-.001.017v.363h-1.204c-.469 0-.848.367-.848.82 0 .453.38.82.848.82h1.204v1.619c0 .226.19.41.425.41h3.29c.235 0 .425-.183.425-.41 0-.227-.19-.411-.425-.411h-.813v-1.208h17.065v3.154c0 .227.19.41.425.41h5.617c.235 0 .424-.183.424-.41 0-.226-.19-.41-.424-.41h-2.007v-2.744h2.977c.468 0 .848-.368.848-.82 0-.453-.38-.82-.848-.82zm-3.825 1.641v2.744h-2.338v-5.203c.012-.242.086-.464.204-.65.19-.302.496-.509.848-.547l.117-.006c.277 0 .53.104.731.279.252.219.42.549.438.925v2.459zm-13.833-21.597l.618-.147.789.208.097.013.22-.05.143-.125.287-.399.543.303.143-.033-.024.099-.101.421-.778-.065h-.069l-1.248.091-.103-.017-.556-.093.039-.205zm4.797-.649l.776.629c.123.1.294.123.44.062l.646-.27.406.242c.067.04.144.061.223.061h.47l.331 1.727h-8.435l.152-.791.72.122.105.005 1.267-.093 1.111.093.037.002c.196 0 .369-.13.413-.318l.229-.956.553-.572.555.058zm-5.228 5.842v-2.571h8.607v2.804h-2.771v-1.403c0-.226-.19-.41-.424-.41h-2.217c-.234 0-.424.184-.424.41v1.403h-2.771v-.234zm3.62 0v-.758h1.368v.992h-1.368v-.234zm3.971 2.554v.405h-6.473l-.034.003v-.412l.034.004h6.473zm-6.507 1.222l.034.003h6.473v.405h-6.473l-.034.003v-.411zm0 4.901l.034.003h6.473v.405h-6.473l-.034.003v-.411zm.034-1.222h6.473v.405h-6.473l-.034.003v-.411l.034.003zm-.034 2.447l.034.003h6.473v.405h-6.473l-.034.003v-.411zm0-8.516h6.507v.347h-6.473l-.034.004v-.351zm0 3.615l.034.003h6.473v.405h-6.473l-.034.003v-.411zm0 1.225l.034.003h6.473v.405h-6.473l-.034.004v-.411zm0 6.126l.034.003h6.473v.405h-6.473l-.034.004v-.411zm0 1.225l.034.004h6.473v.405h-6.473l-.034.003v-.411zm6.507-2.042h-6.473l-.034.004v-.412l.034.004h6.473v.405zm.848-4.889h2.87v3.293h-2.87v-3.293zm0-5.005h2.029v3.293h-2.029v-3.293zm-11.223 8.187v-3.182h3.019v3.293h-3.019v-.111zm3.868 4.974l.034.004h6.473v.367h-6.507v-.37zm-3.027-13.162h2.178v3.293h-2.178v-3.293zm-1.662 9.939h3.841v3.183h-3.841v-3.183zm12.045 0h3.692v.594c-.602.339-1.019.986-1.052 1.744l-.001.017v.827h-2.639v-3.183zm-15.274 4.824v1.208h-1.205v-3.203c.019-.356.283-.633.602-.633.32 0 .583.277.602.633v1.995z" fill="#206FAC" sketch:type="MSShapeGroup"/><path d="M30.031 100.503h-2.977v-.844c-.038-.853-.561-1.565-1.286-1.857v-1.413c0-.444-.366-.806-.822-.819v-4.004c0-.45-.376-.815-.84-.82v-4.185c0-.453-.38-.82-.848-.82h-1.861v-2.965l.002-.016-.016-.111-.482-2.511c-.038-.194-.213-.335-.417-.335h-.703l-.492-.293c-.118-.071-.264-.081-.391-.027l-.608.254-.675-.547c-.065-.052-.143-.085-.226-.093l-.895-.093c-.132-.014-.264.033-.355.127l-.545.564-.981-.546c-.191-.106-.435-.054-.56.121l-.338.471-.607-.16c-.07-.019-.143-.019-.213-.002l-.99.236c-.162.038-.285.165-.315.323l-.487 2.539-.001.008-.007.068-.001.006v2.981h-1.944c-.468 0-.848.368-.848.82v4.185c-.465.004-.841.37-.841.82v4.004c-.456.014-.822.375-.822.819v4.114h-.684v-.363l-.001-.017c-.035-.801-.672-1.427-1.45-1.427-.778 0-1.415.627-1.45 1.427l-.001.017v.363h-1.204c-.469 0-.848.367-.848.82 0 .453.38.82.848.82h1.204v1.619c0 .226.19.41.425.41h3.29c.235 0 .425-.183.425-.41 0-.227-.19-.411-.425-.411h-.813v-1.208h17.065v3.154c0 .227.19.41.425.41h5.617c.235 0 .424-.183.424-.41 0-.226-.19-.41-.424-.41h-2.007v-2.744h2.977c.468 0 .848-.368.848-.82 0-.453-.38-.82-.848-.82zm-3.825 1.641v2.744h-2.338v-5.203c.012-.242.086-.464.204-.65.19-.302.496-.509.848-.547l.117-.006c.277 0 .53.104.731.279.252.219.42.549.438.925v2.459zm-13.833-21.597l.618-.147.789.208.097.013.22-.05.143-.125.287-.399.543.303.143-.033-.024.099-.101.421-.778-.065h-.069l-1.248.091-.103-.017-.556-.093.039-.205zm4.797-.649l.776.629c.123.1.294.123.44.062l.646-.27.406.242c.067.04.144.061.223.061h.47l.331 1.727h-8.435l.152-.791.72.122.105.005 1.267-.093 1.111.093.037.002c.196 0 .369-.13.413-.318l.229-.956.553-.572.555.058zm-5.228 5.842v-2.571h8.607v2.804h-2.771v-1.403c0-.226-.19-.41-.424-.41h-2.217c-.234 0-.424.184-.424.41v1.403h-2.771v-.234zm3.62 0v-.758h1.368v.992h-1.368v-.234zm3.971 2.554v.405h-6.473l-.034.003v-.412l.034.004h6.473zm-6.507 1.222l.034.003h6.473v.405h-6.473l-.034.003v-.411zm0 4.901l.034.003h6.473v.405h-6.473l-.034.003v-.411zm.034-1.222h6.473v.405h-6.473l-.034.003v-.411l.034.003zm-.034 2.447l.034.003h6.473v.405h-6.473l-.034.003v-.411zm0-8.516h6.507v.347h-6.473l-.034.004v-.351zm0 3.615l.034.003h6.473v.405h-6.473l-.034.003v-.411zm0 1.225l.034.003h6.473v.405h-6.473l-.034.004v-.411zm0 6.126l.034.003h6.473v.405h-6.473l-.034.004v-.411zm0 1.225l.034.004h6.473v.405h-6.473l-.034.003v-.411zm6.507-2.042h-6.473l-.034.004v-.412l.034.004h6.473v.405zm.848-4.889h2.87v3.293h-2.87v-3.293zm0-5.005h2.029v3.293h-2.029v-3.293zm-11.223 8.187v-3.182h3.019v3.293h-3.019v-.111zm3.868 4.974l.034.004h6.473v.367h-6.507v-.37zm-3.027-13.162h2.178v3.293h-2.178v-3.293zm-1.662 9.939h3.841v3.183h-3.841v-3.183zm12.045 0h3.692v.594c-.602.339-1.019.986-1.052 1.744l-.001.017v.827h-2.639v-3.183zm-15.274 4.824v1.208h-1.205v-3.203c.019-.356.283-.633.602-.633.32 0 .583.277.602.633v1.995z" fill="#fff" sketch:type="MSShapeGroup"/></g></g></svg>