<svg width="32" height="232" viewBox="0 0 32 232" xmlns="http://www.w3.org/2000/svg" xmlns:sketch="http://www.bohemiancoding.com/sketch/ns"><title>India_Chennai</title><g sketch:type="MSLayerGroup" fill="none"><g fill="#fff" sketch:type="MSShapeGroup"><path d="M28.484 107.396v-5.701l.002-.016-.008-.081-.236-2.282c-.022-.213-.201-.375-.414-.375h-1.411l.008-.074v-.888c.454-.007.821-.378.821-.835 0-.462-.373-.836-.833-.836h-4.925c-.46 0-.833.374-.833.836 0 .457.366.828.821.835v.888l.007.074h-1.342v-10.348c0-.229-.092-.436-.24-.587v-1.404c0-.231-.187-.418-.417-.418-.23 0-.417.187-.417.418v.168l-1.29-3.43c-.038-.102-.113-.182-.207-.228v-1.668c0-.231-.187-.418-.417-.418-.23 0-.417.187-.417.418v1.626h-1.568v-1.626c0-.231-.187-.418-.417-.418-.23 0-.417.187-.417.418v1.668c-.093.046-.168.126-.206.228l-1.29 3.43v-.168c0-.231-.187-.418-.417-.418-.23 0-.417.187-.417.418v1.404c-.148.151-.24.358-.24.587v10.348h-6.08v-2.363l.207.009c.311 0 .607-.055.894-.108.261-.048.508-.094.743-.094.169 0 .318.025.455.075.128.047.271.029.383-.049.112-.078.179-.206.179-.343v-1.753c0-.175-.109-.331-.272-.392-.231-.086-.474-.127-.744-.127-.311 0-.608.055-.894.108-.261.048-.508.094-.743.094l-.231-.018c-.057-.163-.21-.281-.392-.281-.23 0-.417.187-.417.418v4.823h-.775c-.213 0-.392.162-.414.375l-.24 2.32v.021l-.002.022v3.284l-.002.021.002.021v2.391c-.249.145-.417.414-.417.723 0 .462.373.836.833.836h24.232c.46 0 .833-.374.833-.836 0-.309-.168-.578-.417-.723zm-24.032-7.619h7.313v1.484h-7.467l.154-1.484zm8.906-12.019l1.449-3.852h2.291l1.606 4.27h-.879l-.083-.086-1.56-1.204c-.152-.117-.363-.115-.513.004l-1.091.869-.421.335-.078.082h-.878l.157-.418zm14.248 13.503h-7.467v-1.484h7.313l.154 1.484zm-23.353.836h7.512v2.469h-7.512v-2.469zm15.886 0h7.512v2.469h-7.512v-2.469zm-1.694 6.022l-.02-.128c-.026-.144-.063-.284-.112-.418l-.128-.29c-.418-.811-1.262-1.366-2.233-1.366-.971 0-1.815.556-2.233 1.366l-.128.29c-.049.134-.086.274-.112.418l-.019.128-.006.048h-.446l.001-.048.004-.128c.009-.142.026-.282.054-.418l.075-.29c.071-.227.169-.443.29-.643.517-.855 1.453-1.427 2.52-1.427s2.004.572 2.52 1.427c.121.2.219.416.29.643l.075.29c.028.136.046.276.054.418l.004.128.001.048h-.446l-.006-.048zm-5.013-6.44v-1.191c.075-.286.242-.535.469-.711.223-.174.503-.278.807-.278.296 0 .577.098.808.278l.117.101c.162.16.422.16.584 0l.117-.101c.231-.18.512-.278.807-.278.304 0 .584.105.807.278.311.242.513.62.513 1.045l.013.098v4.426c-.669-.602-1.553-.969-2.52-.969-.968 0-1.851.367-2.52.969v-3.668zm.841 6.731l.022-.242.007-.048.031-.128c.041-.149.101-.289.179-.418.063-.105.136-.202.219-.29.306-.326.74-.53 1.22-.53.481 0 .914.205 1.22.53.083.088.156.185.219.29.077.129.138.269.179.418l.031.128.007.048.022.242.002.029h-3.361l.001-.029zm12.422-1.126v-.958c-.009-.197-.172-.354-.371-.354s-.361.157-.371.354v.958h-.485v-.958c-.009-.197-.172-.354-.371-.354s-.362.157-.371.354v.958h-.485v-.958c-.009-.197-.172-.354-.371-.354s-.361.157-.371.354v.958h-.485v-.958c-.009-.197-.172-.354-.371-.354s-.362.157-.371.354v.958h-.485v-.958c-.009-.197-.172-.354-.371-.354s-.362.157-.371.354v.958h-.91v-1.882h7.512v1.882h-.956zm-8.223-13.174c-.367-.291-.83-.465-1.333-.465-.284 0-.559.056-.814.161v-.621h2.147v.926zm-3.64-5.098v-.389l.036-.029 1.05-.836.014-.011.014.011 1.083.836.042.033v1.976h-2.239v-1.591zm3.64 3.336h-2.147v-.91h1.162c.23 0 .417-.187.417-.418v-1.591h.568v2.918zm-4.056-.91h1.076v.91h-2.061v-2.918h.568v1.591c0 .231.187.418.417.418zm-.984 1.746h2.061v.609c-.247-.097-.513-.148-.785-.148-.477 0-.918.157-1.275.421v-.882zm0 2.286c.148-.568.663-.989 1.275-.989.348 0 .676.135.925.38.162.16.422.16.584 0 .248-.245.577-.38.924-.38.728 0 1.32.594 1.32 1.324l.013.098v3.226l-.277-.187c-.312-.177-.672-.278-1.056-.278-.376 0-.737.097-1.057.278l-.16.099-.16-.099c-.319-.181-.681-.278-1.057-.278-.383 0-.744.101-1.056.278l-.22.143v-3.614zm-9.179 9.932h7.512v1.882h-.91v-.958c-.009-.197-.172-.354-.371-.354s-.362.157-.371.354v.958h-.485v-.958c-.009-.197-.172-.354-.371-.354s-.362.157-.371.354v.958h-.485v-.958c-.009-.197-.172-.354-.371-.354s-.361.157-.371.354v.958h-.485v-.958c-.009-.197-.172-.354-.371-.354s-.362.157-.371.354v.958h-.485v-.958c-.007-.161-.117-.293-.265-.338l-.105-.017c-.131 0-.245.069-.311.172l-.059.183v.958h-.956v-1.882zm18.054-6.534v-.888h3.284v.888l.007.074h-3.299l.007-.074zm-15.521-4.141c.261-.049.508-.094.743-.094l.183.01v.913l-.182-.007c-.311 0-.608.055-.894.108-.261.049-.508.094-.743.094l-.183-.01v-.913l.183.007c.311 0 .608-.055.894-.108z" id="Fill-1"/><path d="M21.773 90.648c.192.17.438.263.693.263h1.447l-.004.079c0 .263.113.513.31.686.167.148.381.229.603.229h3.046c.503 0 .913-.411.913-.915 0-.505-.409-.915-.913-.915h-.088l.023-.217c0-.58-.471-1.053-1.05-1.053h-4.286c-.255 0-.502.094-.693.264-.226.2-.356.488-.356.789 0 .301.13.589.356.79zm.551-.952l.142-.054h4.286c.119 0 .216.097.216.217s-.097.217-.216.217c-.23 0-.417.187-.417.418h-.002c0 .231.187.418.417.418h1.116l.079.079-.079.079h-3.046l-.052-.02-.027-.059.028-.059.051-.02h.002c.23 0 .417-.187.417-.418 0-.231-.187-.418-.417-.418h-2.357l-.142-.054c-.028-.024-.074-.078-.074-.163 0-.084.046-.138.074-.162z" id="Fill-2"/><path d="M5.685 104.14h.265v-1.148c-.007-.161-.117-.294-.265-.338l-.105-.017c-.131 0-.245.069-.311.172l-.059.183v1.148h.476" id="Fill-3"/><path d="M7.176 102.992c-.009-.198-.172-.355-.371-.355s-.362.157-.371.355v1.148h.741v-1.148" id="Fill-4"/><path d="M10.855 102.992c-.009-.198-.172-.355-.371-.355s-.362.157-.371.355v1.148h.741v-1.148" id="Fill-5"/><path d="M8.402 102.992c-.009-.198-.172-.355-.371-.355s-.361.157-.371.355v1.148h.742v-1.148" id="Fill-6"/><path d="M9.629 102.992c-.009-.198-.172-.355-.371-.355s-.362.157-.371.355v1.148h.742v-1.148" id="Fill-7"/><path d="M21.79 102.992c-.009-.198-.172-.355-.371-.355s-.362.157-.371.355v1.148h.741v-1.148" id="Fill-8"/><path d="M23.017 102.992c-.009-.198-.172-.355-.371-.355s-.362.157-.371.355v1.148h.741v-1.148" id="Fill-9"/><path d="M26.695 102.992c-.009-.198-.172-.355-.371-.355s-.361.157-.371.355v1.148h.741v-1.148" id="Fill-10"/><path d="M24.243 102.992c-.009-.198-.172-.355-.371-.355s-.361.157-.371.355v1.148h.741v-1.148" id="Fill-11"/><path d="M25.469 102.992c-.009-.198-.172-.355-.371-.355s-.362.157-.371.355v1.148h.742v-1.148" id="Fill-12"/><path d="M14.409 98.115h3.087c.23 0 .417-.187.417-.418 0-.2-.14-.366-.327-.408v-1.557c-.016-.338-.294-.607-.634-.607-.341 0-.619.269-.634.607v1.547h-.729v-1.547c-.016-.338-.294-.607-.634-.607-.341 0-.619.269-.634.607v1.557c-.187.041-.327.208-.327.408 0 .231.187.418.417.418" id="Fill-13"/><path d="M14.409 103.055h3.087c.23 0 .417-.187.417-.418 0-.2-.14-.366-.327-.408v-1.557c-.016-.338-.294-.607-.634-.607-.341 0-.619.269-.634.607v1.547h-.729v-1.547c-.016-.338-.294-.607-.634-.607-.341 0-.619.269-.634.607v1.557c-.187.041-.327.208-.327.408 0 .231.187.418.417.418" id="Fill-14"/><path d="M15.952 89.864c.27 0 .496-.185.561-.435l.02-.147c0-.098-.024-.19-.067-.271-.097-.185-.29-.311-.514-.311-.223 0-.416.126-.513.311-.043.081-.067.173-.067.271l.019.147c.065.25.291.435.561.435" id="Fill-15"/></g><g fill="#373D43" sketch:type="MSShapeGroup"><path d="M28.484 28.396v-5.701l.002-.016-.008-.081-.236-2.282c-.022-.213-.201-.375-.414-.375h-1.411l.008-.074v-.888c.454-.007.821-.378.821-.835 0-.462-.373-.836-.833-.836h-4.925c-.46 0-.833.374-.833.836 0 .457.366.828.821.835v.888l.007.074h-1.342v-10.348c0-.229-.092-.436-.24-.587v-1.404c0-.231-.187-.418-.417-.418-.23 0-.417.187-.417.418v.168l-1.29-3.43c-.038-.102-.113-.182-.207-.228v-1.668c0-.231-.187-.418-.417-.418-.23 0-.417.187-.417.418v1.626h-1.568v-1.626c0-.231-.187-.418-.417-.418-.23 0-.417.187-.417.418v1.668c-.093.046-.168.126-.206.228l-1.29 3.43v-.168c0-.231-.187-.418-.417-.418-.23 0-.417.187-.417.418v1.404c-.148.151-.24.358-.24.587v10.348h-6.08v-2.363l.207.009c.311 0 .607-.055.894-.108.261-.048.508-.094.743-.094.169 0 .318.025.455.075.128.047.271.029.383-.049.112-.078.179-.206.179-.343v-1.753c0-.175-.109-.331-.272-.392-.231-.086-.474-.127-.744-.127-.311 0-.608.055-.894.108-.261.048-.508.094-.743.094l-.231-.018c-.057-.163-.21-.281-.392-.281-.23 0-.417.187-.417.418v4.823h-.775c-.213 0-.392.162-.414.375l-.24 2.32v.021l-.002.022v3.284l-.002.021.002.021v2.391c-.249.145-.417.414-.417.723 0 .462.373.836.833.836h24.232c.46 0 .833-.374.833-.836 0-.309-.168-.578-.417-.723zm-24.032-7.619h7.313v1.484h-7.467l.154-1.484zm8.906-12.019l1.449-3.852h2.291l1.606 4.27h-.879l-.083-.086-1.56-1.204c-.152-.117-.363-.115-.513.004l-1.091.869-.421.335-.078.082h-.878l.157-.418zm14.248 13.503h-7.467v-1.484h7.313l.154 1.484zm-23.353.836h7.512v2.469h-7.512v-2.469zm15.886 0h7.512v2.469h-7.512v-2.469zm-1.694 6.022l-.02-.128c-.026-.144-.063-.284-.112-.418l-.128-.29c-.418-.811-1.262-1.366-2.233-1.366-.971 0-1.815.556-2.233 1.366l-.128.29c-.049.134-.086.274-.112.418l-.019.128-.006.048h-.446l.001-.048.004-.128c.009-.142.026-.282.054-.418l.075-.29c.071-.227.169-.443.29-.643.517-.855 1.453-1.427 2.52-1.427s2.004.572 2.52 1.427c.121.2.219.416.29.643l.075.29c.028.136.046.276.054.418l.004.128.001.048h-.446l-.006-.048zm-5.013-6.44v-1.191c.075-.286.242-.535.469-.711.223-.174.503-.278.807-.278.296 0 .577.098.808.278l.117.101c.162.16.422.16.584 0l.117-.101c.231-.18.512-.278.807-.278.304 0 .584.105.807.278.311.242.513.62.513 1.045l.013.098v4.426c-.669-.602-1.553-.969-2.52-.969-.968 0-1.851.367-2.52.969v-3.668zm.841 6.731l.022-.242.007-.048.031-.128c.041-.149.101-.289.179-.418.063-.105.136-.202.219-.29.306-.326.74-.53 1.22-.53.481 0 .914.205 1.22.53.083.088.156.185.219.29.077.129.138.269.179.418l.031.128.007.048.022.242.002.029h-3.361l.001-.029zm12.422-1.126v-.958c-.009-.197-.172-.354-.371-.354s-.361.157-.371.354v.958h-.485v-.958c-.009-.197-.172-.354-.371-.354s-.362.157-.371.354v.958h-.485v-.958c-.009-.197-.172-.354-.371-.354s-.361.157-.371.354v.958h-.485v-.958c-.009-.197-.172-.354-.371-.354s-.362.157-.371.354v.958h-.485v-.958c-.009-.197-.172-.354-.371-.354s-.362.157-.371.354v.958h-.91v-1.882h7.512v1.882h-.956zm-8.223-13.174c-.367-.291-.83-.465-1.333-.465-.284 0-.559.056-.814.161v-.621h2.147v.926zm-3.64-5.098v-.389l.036-.029 1.05-.836.014-.011.014.011 1.083.836.042.033v1.976h-2.239v-1.591zm3.64 3.336h-2.147v-.91h1.162c.23 0 .417-.187.417-.418v-1.591h.568v2.918zm-4.056-.91h1.076v.91h-2.061v-2.918h.568v1.591c0 .231.187.418.417.418zm-.984 1.746h2.061v.609c-.247-.097-.513-.148-.785-.148-.477 0-.918.157-1.275.421v-.882zm0 2.286c.148-.568.663-.989 1.275-.989.348 0 .676.135.925.38.162.16.422.16.584 0 .248-.245.577-.38.924-.38.728 0 1.32.594 1.32 1.324l.013.098v3.226l-.277-.187c-.312-.177-.672-.278-1.056-.278-.376 0-.737.097-1.057.278l-.16.099-.16-.099c-.319-.181-.681-.278-1.057-.278-.383 0-.744.101-1.056.278l-.22.143v-3.614zm-9.179 9.932h7.512v1.882h-.91v-.958c-.009-.197-.172-.354-.371-.354s-.362.157-.371.354v.958h-.485v-.958c-.009-.197-.172-.354-.371-.354s-.362.157-.371.354v.958h-.485v-.958c-.009-.197-.172-.354-.371-.354s-.361.157-.371.354v.958h-.485v-.958c-.009-.197-.172-.354-.371-.354s-.362.157-.371.354v.958h-.485v-.958c-.007-.161-.117-.293-.265-.338l-.105-.017c-.131 0-.245.069-.311.172l-.059.183v.958h-.956v-1.882zm18.054-6.534v-.888h3.284v.888l.007.074h-3.299l.007-.074zm-15.521-4.141c.261-.049.508-.094.743-.094l.183.01v.913l-.182-.007c-.311 0-.608.055-.894.108-.261.049-.508.094-.743.094l-.183-.01v-.913l.183.007c.311 0 .608-.055.894-.108z" id="Fill-1"/><path d="M21.773 11.648c.192.17.438.263.693.263h1.447l-.004.079c0 .263.113.513.31.686.167.148.381.229.603.229h3.046c.503 0 .913-.411.913-.915 0-.505-.409-.915-.913-.915h-.088l.023-.217c0-.58-.471-1.053-1.05-1.053h-4.286c-.255 0-.502.094-.693.264-.226.2-.356.488-.356.789 0 .301.13.589.356.79zm.551-.952l.142-.054h4.286c.119 0 .216.097.216.217s-.097.217-.216.217c-.23 0-.417.187-.417.418h-.002c0 .231.187.418.417.418h1.116l.079.079-.079.079h-3.046l-.052-.02-.027-.059.028-.059.051-.02h.002c.23 0 .417-.187.417-.418 0-.231-.187-.418-.417-.418h-2.357l-.142-.054c-.028-.024-.074-.078-.074-.163 0-.084.046-.138.074-.162z" id="Fill-2"/><path d="M5.685 25.14h.265v-1.148c-.007-.161-.117-.294-.265-.338l-.105-.017c-.131 0-.245.069-.311.172l-.059.183v1.148h.476" id="Fill-3"/><path d="M7.176 23.992c-.009-.198-.172-.355-.371-.355s-.362.157-.371.355v1.148h.741v-1.148" id="Fill-4"/><path d="M10.855 23.992c-.009-.198-.172-.355-.371-.355s-.362.157-.371.355v1.148h.741v-1.148" id="Fill-5"/><path d="M8.402 23.992c-.009-.198-.172-.355-.371-.355s-.361.157-.371.355v1.148h.742v-1.148" id="Fill-6"/><path d="M9.629 23.992c-.009-.198-.172-.355-.371-.355s-.362.157-.371.355v1.148h.742v-1.148" id="Fill-7"/><path d="M21.79 23.992c-.009-.198-.172-.355-.371-.355s-.362.157-.371.355v1.148h.741v-1.148" id="Fill-8"/><path d="M23.017 23.992c-.009-.198-.172-.355-.371-.355s-.362.157-.371.355v1.148h.741v-1.148" id="Fill-9"/><path d="M26.695 23.992c-.009-.198-.172-.355-.371-.355s-.361.157-.371.355v1.148h.741v-1.148" id="Fill-10"/><path d="M24.243 23.992c-.009-.198-.172-.355-.371-.355s-.361.157-.371.355v1.148h.741v-1.148" id="Fill-11"/><path d="M25.469 23.992c-.009-.198-.172-.355-.371-.355s-.362.157-.371.355v1.148h.742v-1.148" id="Fill-12"/><path d="M14.409 19.115h3.087c.23 0 .417-.187.417-.418 0-.2-.14-.366-.327-.408v-1.557c-.016-.338-.294-.607-.634-.607-.341 0-.619.269-.634.607v1.547h-.729v-1.547c-.016-.338-.294-.607-.634-.607-.341 0-.619.269-.634.607v1.557c-.187.041-.327.208-.327.408 0 .231.187.418.417.418" id="Fill-13"/><path d="M14.409 24.055h3.087c.23 0 .417-.187.417-.418 0-.2-.14-.366-.327-.408v-1.557c-.016-.338-.294-.607-.634-.607-.341 0-.619.269-.634.607v1.547h-.729v-1.547c-.016-.338-.294-.607-.634-.607-.341 0-.619.269-.634.607v1.557c-.187.041-.327.208-.327.408 0 .231.187.418.417.418" id="Fill-14"/><path d="M15.952 10.864c.27 0 .496-.185.561-.435l.02-.147c0-.098-.024-.19-.067-.271-.097-.185-.29-.311-.514-.311-.223 0-.416.126-.513.311-.043.081-.067.173-.067.271l.019.147c.065.25.291.435.561.435" id="Fill-15"/></g><g fill="#67737B" sketch:type="MSShapeGroup"><path d="M28.484 68.396v-5.701l.002-.016-.008-.081-.236-2.282c-.022-.213-.201-.375-.414-.375h-1.411l.008-.074v-.888c.454-.007.821-.378.821-.835 0-.462-.373-.836-.833-.836h-4.925c-.46 0-.833.374-.833.836 0 .457.366.828.821.835v.888l.007.074h-1.342v-10.348c0-.229-.092-.436-.24-.587v-1.404c0-.231-.187-.418-.417-.418-.23 0-.417.187-.417.418v.168l-1.29-3.43c-.038-.102-.113-.182-.207-.228v-1.668c0-.231-.187-.418-.417-.418-.23 0-.417.187-.417.418v1.626h-1.568v-1.626c0-.231-.187-.418-.417-.418-.23 0-.417.187-.417.418v1.668c-.093.046-.168.126-.206.228l-1.29 3.43v-.168c0-.231-.187-.418-.417-.418-.23 0-.417.187-.417.418v1.404c-.148.151-.24.358-.24.587v10.348h-6.08v-2.363l.207.009c.311 0 .607-.055.894-.108.261-.048.508-.094.743-.094.169 0 .318.025.455.075.128.047.271.029.383-.049.112-.078.179-.206.179-.343v-1.753c0-.175-.109-.331-.272-.392-.231-.086-.474-.127-.744-.127-.311 0-.608.055-.894.108-.261.048-.508.094-.743.094l-.231-.018c-.057-.163-.21-.281-.392-.281-.23 0-.417.187-.417.418v4.823h-.775c-.213 0-.392.162-.414.375l-.24 2.32v.021l-.002.022v3.284l-.002.021.002.021v2.391c-.249.145-.417.414-.417.723 0 .462.373.836.833.836h24.232c.46 0 .833-.374.833-.836 0-.309-.168-.578-.417-.723zm-24.032-7.619h7.313v1.484h-7.467l.154-1.484zm8.906-12.019l1.449-3.852h2.291l1.606 4.27h-.879l-.083-.086-1.56-1.204c-.152-.117-.363-.115-.513.004l-1.091.869-.421.335-.078.082h-.878l.157-.418zm14.248 13.503h-7.467v-1.484h7.313l.154 1.484zm-23.353.836h7.512v2.469h-7.512v-2.469zm15.886 0h7.512v2.469h-7.512v-2.469zm-1.694 6.022l-.02-.128c-.026-.144-.063-.284-.112-.418l-.128-.29c-.418-.811-1.262-1.366-2.233-1.366-.971 0-1.815.556-2.233 1.366l-.128.29c-.049.134-.086.274-.112.418l-.019.128-.006.048h-.446l.001-.048.004-.128c.009-.142.026-.282.054-.418l.075-.29c.071-.227.169-.443.29-.643.517-.855 1.453-1.427 2.52-1.427s2.004.572 2.52 1.427c.121.2.219.416.29.643l.075.29c.028.136.046.276.054.418l.004.128.001.048h-.446l-.006-.048zm-5.013-6.44v-1.191c.075-.286.242-.535.469-.711.223-.174.503-.278.807-.278.296 0 .577.098.808.278l.117.101c.162.16.422.16.584 0l.117-.101c.231-.18.512-.278.807-.278.304 0 .584.105.807.278.311.242.513.62.513 1.045l.013.098v4.426c-.669-.602-1.553-.969-2.52-.969-.968 0-1.851.367-2.52.969v-3.668zm.841 6.731l.022-.242.007-.048.031-.128c.041-.149.101-.289.179-.418.063-.105.136-.202.219-.29.306-.326.74-.53 1.22-.53.481 0 .914.205 1.22.53.083.088.156.185.219.29.077.129.138.269.179.418l.031.128.007.048.022.242.002.029h-3.361l.001-.029zm12.422-1.126v-.958c-.009-.197-.172-.354-.371-.354s-.361.157-.371.354v.958h-.485v-.958c-.009-.197-.172-.354-.371-.354s-.362.157-.371.354v.958h-.485v-.958c-.009-.197-.172-.354-.371-.354s-.361.157-.371.354v.958h-.485v-.958c-.009-.197-.172-.354-.371-.354s-.362.157-.371.354v.958h-.485v-.958c-.009-.197-.172-.354-.371-.354s-.362.157-.371.354v.958h-.91v-1.882h7.512v1.882h-.956zm-8.223-13.174c-.367-.291-.83-.465-1.333-.465-.284 0-.559.056-.814.161v-.621h2.147v.926zm-3.64-5.098v-.389l.036-.029 1.05-.836.014-.011.014.011 1.083.836.042.033v1.976h-2.239v-1.591zm3.64 3.336h-2.147v-.91h1.162c.23 0 .417-.187.417-.418v-1.591h.568v2.918zm-4.056-.91h1.076v.91h-2.061v-2.918h.568v1.591c0 .231.187.418.417.418zm-.984 1.746h2.061v.609c-.247-.097-.513-.148-.785-.148-.477 0-.918.157-1.275.421v-.882zm0 2.286c.148-.568.663-.989 1.275-.989.348 0 .676.135.925.38.162.16.422.16.584 0 .248-.245.577-.38.924-.38.728 0 1.32.594 1.32 1.324l.013.098v3.226l-.277-.187c-.312-.177-.672-.278-1.056-.278-.376 0-.737.097-1.057.278l-.16.099-.16-.099c-.319-.181-.681-.278-1.057-.278-.383 0-.744.101-1.056.278l-.22.143v-3.614zm-9.179 9.932h7.512v1.882h-.91v-.958c-.009-.197-.172-.354-.371-.354s-.362.157-.371.354v.958h-.485v-.958c-.009-.197-.172-.354-.371-.354s-.362.157-.371.354v.958h-.485v-.958c-.009-.197-.172-.354-.371-.354s-.361.157-.371.354v.958h-.485v-.958c-.009-.197-.172-.354-.371-.354s-.362.157-.371.354v.958h-.485v-.958c-.007-.161-.117-.293-.265-.338l-.105-.017c-.131 0-.245.069-.311.172l-.059.183v.958h-.956v-1.882zm18.054-6.534v-.888h3.284v.888l.007.074h-3.299l.007-.074zm-15.521-4.141c.261-.049.508-.094.743-.094l.183.01v.913l-.182-.007c-.311 0-.608.055-.894.108-.261.049-.508.094-.743.094l-.183-.01v-.913l.183.007c.311 0 .608-.055.894-.108z"/><path d="M21.773 51.648c.192.17.438.263.693.263h1.447l-.004.079c0 .263.113.513.31.686.167.148.381.229.603.229h3.046c.503 0 .913-.411.913-.915 0-.505-.409-.915-.913-.915h-.088l.023-.217c0-.58-.471-1.053-1.05-1.053h-4.286c-.255 0-.502.094-.693.264-.226.2-.356.488-.356.789 0 .301.13.589.356.79zm.551-.952l.142-.054h4.286c.119 0 .216.097.216.217s-.097.217-.216.217c-.23 0-.417.187-.417.418h-.002c0 .231.187.418.417.418h1.116l.079.079-.079.079h-3.046l-.052-.02-.027-.059.028-.059.051-.02h.002c.23 0 .417-.187.417-.418 0-.231-.187-.418-.417-.418h-2.357l-.142-.054c-.028-.024-.074-.078-.074-.163 0-.084.046-.138.074-.162z"/><path d="M5.685 65.14h.265v-1.148c-.007-.161-.117-.294-.265-.338l-.105-.017c-.131 0-.245.069-.311.172l-.059.183v1.148h.476"/><path d="M7.176 63.992c-.009-.198-.172-.355-.371-.355s-.362.157-.371.355v1.148h.741v-1.148"/><path d="M10.855 63.992c-.009-.198-.172-.355-.371-.355s-.362.157-.371.355v1.148h.741v-1.148"/><path d="M8.402 63.992c-.009-.198-.172-.355-.371-.355s-.361.157-.371.355v1.148h.742v-1.148"/><path d="M9.629 63.992c-.009-.198-.172-.355-.371-.355s-.362.157-.371.355v1.148h.742v-1.148"/><path d="M21.79 63.992c-.009-.198-.172-.355-.371-.355s-.362.157-.371.355v1.148h.741v-1.148"/><path d="M23.017 63.992c-.009-.198-.172-.355-.371-.355s-.362.157-.371.355v1.148h.741v-1.148"/><path d="M26.695 63.992c-.009-.198-.172-.355-.371-.355s-.361.157-.371.355v1.148h.741v-1.148"/><path d="M24.243 63.992c-.009-.198-.172-.355-.371-.355s-.361.157-.371.355v1.148h.741v-1.148"/><path d="M25.469 63.992c-.009-.198-.172-.355-.371-.355s-.362.157-.371.355v1.148h.742v-1.148"/><path d="M14.409 59.115h3.087c.23 0 .417-.187.417-.418 0-.2-.14-.366-.327-.408v-1.557c-.016-.338-.294-.607-.634-.607-.341 0-.619.269-.634.607v1.547h-.729v-1.547c-.016-.338-.294-.607-.634-.607-.341 0-.619.269-.634.607v1.557c-.187.041-.327.208-.327.408 0 .231.187.418.417.418"/><path d="M14.409 64.055h3.087c.23 0 .417-.187.417-.418 0-.2-.14-.366-.327-.408v-1.557c-.016-.338-.294-.607-.634-.607-.341 0-.619.269-.634.607v1.547h-.729v-1.547c-.016-.338-.294-.607-.634-.607-.341 0-.619.269-.634.607v1.557c-.187.041-.327.208-.327.408 0 .231.187.418.417.418"/><path d="M15.952 50.864c.27 0 .496-.185.561-.435l.02-.147c0-.098-.024-.19-.067-.271-.097-.185-.29-.311-.514-.311-.223 0-.416.126-.513.311-.043.081-.067.173-.067.271l.019.147c.065.25.291.435.561.435"/></g><g fill="#206FAC" sketch:type="MSShapeGroup"><path d="M28.484 146.396v-5.701l.002-.016-.008-.081-.236-2.282c-.022-.213-.201-.375-.414-.375h-1.411l.008-.074v-.888c.454-.007.821-.378.821-.835 0-.462-.373-.836-.833-.836h-4.925c-.46 0-.833.374-.833.836 0 .457.366.828.821.835v.888l.007.074h-1.342v-10.348c0-.229-.092-.436-.24-.587v-1.404c0-.231-.187-.418-.417-.418-.23 0-.417.187-.417.418v.168l-1.29-3.43c-.038-.102-.113-.182-.207-.228v-1.668c0-.231-.187-.418-.417-.418-.23 0-.417.187-.417.418v1.626h-1.568v-1.626c0-.231-.187-.418-.417-.418-.23 0-.417.187-.417.418v1.668c-.093.046-.168.126-.206.228l-1.29 3.43v-.168c0-.231-.187-.418-.417-.418-.23 0-.417.187-.417.418v1.404c-.148.151-.24.358-.24.587v10.348h-6.08v-2.363l.207.009c.311 0 .607-.055.894-.108.261-.048.508-.094.743-.094.169 0 .318.025.455.075.128.047.271.029.383-.049.112-.078.179-.206.179-.343v-1.753c0-.175-.109-.331-.272-.392-.231-.086-.474-.127-.744-.127-.311 0-.608.055-.894.108-.261.048-.508.094-.743.094l-.231-.018c-.057-.163-.21-.281-.392-.281-.23 0-.417.187-.417.418v4.823h-.775c-.213 0-.392.162-.414.375l-.24 2.32v.021l-.002.022v3.284l-.002.021.002.021v2.391c-.249.145-.417.414-.417.723 0 .462.373.836.833.836h24.232c.46 0 .833-.374.833-.836 0-.309-.168-.578-.417-.723zm-24.032-7.619h7.313v1.484h-7.467l.154-1.484zm8.906-12.019l1.449-3.852h2.291l1.606 4.27h-.879l-.083-.086-1.56-1.204c-.152-.117-.363-.115-.513.004l-1.091.869-.421.335-.078.082h-.878l.157-.418zm14.248 13.503h-7.467v-1.484h7.313l.154 1.484zm-23.353.836h7.512v2.469h-7.512v-2.469zm15.886 0h7.512v2.469h-7.512v-2.469zm-1.694 6.022l-.02-.128c-.026-.144-.063-.284-.112-.418l-.128-.29c-.418-.811-1.262-1.366-2.233-1.366-.971 0-1.815.556-2.233 1.366l-.128.29c-.049.134-.086.274-.112.418l-.019.128-.006.048h-.446l.001-.048.004-.128c.009-.142.026-.282.054-.418l.075-.29c.071-.227.169-.443.29-.643.517-.855 1.453-1.427 2.52-1.427s2.004.572 2.52 1.427c.121.2.219.416.29.643l.075.29c.028.136.046.276.054.418l.004.128.001.048h-.446l-.006-.048zm-5.013-6.44v-1.191c.075-.286.242-.535.469-.711.223-.174.503-.278.807-.278.296 0 .577.098.808.278l.117.101c.162.16.422.16.584 0l.117-.101c.231-.18.512-.278.807-.278.304 0 .584.105.807.278.311.242.513.62.513 1.045l.013.098v4.426c-.669-.602-1.553-.969-2.52-.969-.968 0-1.851.367-2.52.969v-3.668zm.841 6.731l.022-.242.007-.048.031-.128c.041-.149.101-.289.179-.418.063-.105.136-.202.219-.29.306-.326.74-.53 1.22-.53.481 0 .914.205 1.22.53.083.088.156.185.219.29.077.129.138.269.179.418l.031.128.007.048.022.242.002.029h-3.361l.001-.029zm12.422-1.126v-.958c-.009-.197-.172-.354-.371-.354s-.361.157-.371.354v.958h-.485v-.958c-.009-.197-.172-.354-.371-.354s-.362.157-.371.354v.958h-.485v-.958c-.009-.197-.172-.354-.371-.354s-.361.157-.371.354v.958h-.485v-.958c-.009-.197-.172-.354-.371-.354s-.362.157-.371.354v.958h-.485v-.958c-.009-.197-.172-.354-.371-.354s-.362.157-.371.354v.958h-.91v-1.882h7.512v1.882h-.956zm-8.223-13.174c-.367-.291-.83-.465-1.333-.465-.284 0-.559.056-.814.161v-.621h2.147v.926zm-3.64-5.098v-.389l.036-.029 1.05-.836.014-.011.014.011 1.083.836.042.033v1.976h-2.239v-1.591zm3.64 3.336h-2.147v-.91h1.162c.23 0 .417-.187.417-.418v-1.591h.568v2.918zm-4.056-.91h1.076v.91h-2.061v-2.918h.568v1.591c0 .231.187.418.417.418zm-.984 1.746h2.061v.609c-.247-.097-.513-.148-.785-.148-.477 0-.918.157-1.275.421v-.882zm0 2.286c.148-.568.663-.989 1.275-.989.348 0 .676.135.925.38.162.16.422.16.584 0 .248-.245.577-.38.924-.38.728 0 1.32.594 1.32 1.324l.013.098v3.226l-.277-.187c-.312-.177-.672-.278-1.056-.278-.376 0-.737.097-1.057.278l-.16.099-.16-.099c-.319-.181-.681-.278-1.057-.278-.383 0-.744.101-1.056.278l-.22.143v-3.614zm-9.179 9.932h7.512v1.882h-.91v-.958c-.009-.197-.172-.354-.371-.354s-.362.157-.371.354v.958h-.485v-.958c-.009-.197-.172-.354-.371-.354s-.362.157-.371.354v.958h-.485v-.958c-.009-.197-.172-.354-.371-.354s-.361.157-.371.354v.958h-.485v-.958c-.009-.197-.172-.354-.371-.354s-.362.157-.371.354v.958h-.485v-.958c-.007-.161-.117-.293-.265-.338l-.105-.017c-.131 0-.245.069-.311.172l-.059.183v.958h-.956v-1.882zm18.054-6.534v-.888h3.284v.888l.007.074h-3.299l.007-.074zm-15.521-4.141c.261-.049.508-.094.743-.094l.183.01v.913l-.182-.007c-.311 0-.608.055-.894.108-.261.049-.508.094-.743.094l-.183-.01v-.913l.183.007c.311 0 .608-.055.894-.108zM21.773 129.648c.192.17.438.263.693.263h1.447l-.004.079c0 .263.113.513.31.686.167.148.381.229.603.229h3.046c.503 0 .913-.411.913-.915 0-.505-.409-.915-.913-.915h-.088l.023-.217c0-.58-.471-1.053-1.05-1.053h-4.286c-.255 0-.502.094-.693.264-.226.2-.356.488-.356.789 0 .301.13.589.356.79zm.551-.952l.142-.054h4.286c.119 0 .216.097.216.217s-.097.217-.216.217c-.23 0-.417.187-.417.418h-.002c0 .231.187.418.417.418h1.116l.079.079-.079.079h-3.046l-.052-.02-.027-.059.028-.059.051-.02h.002c.23 0 .417-.187.417-.418 0-.231-.187-.418-.417-.418h-2.357l-.142-.054c-.028-.024-.074-.078-.074-.163 0-.084.046-.138.074-.162zM5.685 143.14h.265v-1.148c-.007-.161-.117-.294-.265-.338l-.105-.017c-.131 0-.245.069-.311.172l-.059.183v1.148h.476M7.176 141.992c-.009-.198-.172-.355-.371-.355s-.362.157-.371.355v1.148h.741v-1.148M10.855 141.992c-.009-.198-.172-.355-.371-.355s-.362.157-.371.355v1.148h.741v-1.148M8.402 141.992c-.009-.198-.172-.355-.371-.355s-.361.157-.371.355v1.148h.742v-1.148M9.629 141.992c-.009-.198-.172-.355-.371-.355s-.362.157-.371.355v1.148h.742v-1.148M21.79 141.992c-.009-.198-.172-.355-.371-.355s-.362.157-.371.355v1.148h.741v-1.148M23.017 141.992c-.009-.198-.172-.355-.371-.355s-.362.157-.371.355v1.148h.741v-1.148M26.695 141.992c-.009-.198-.172-.355-.371-.355s-.361.157-.371.355v1.148h.741v-1.148M24.243 141.992c-.009-.198-.172-.355-.371-.355s-.361.157-.371.355v1.148h.741v-1.148M25.469 141.992c-.009-.198-.172-.355-.371-.355s-.362.157-.371.355v1.148h.742v-1.148M14.409 137.115h3.087c.23 0 .417-.187.417-.418 0-.2-.14-.366-.327-.408v-1.557c-.016-.338-.294-.607-.634-.607-.341 0-.619.269-.634.607v1.547h-.729v-1.547c-.016-.338-.294-.607-.634-.607-.341 0-.619.269-.634.607v1.557c-.187.041-.327.208-.327.408 0 .231.187.418.417.418M14.409 142.055h3.087c.23 0 .417-.187.417-.418 0-.2-.14-.366-.327-.408v-1.557c-.016-.338-.294-.607-.634-.607-.341 0-.619.269-.634.607v1.547h-.729v-1.547c-.016-.338-.294-.607-.634-.607-.341 0-.619.269-.634.607v1.557c-.187.041-.327.208-.327.408 0 .231.187.418.417.418M15.952 128.864c.27 0 .496-.185.561-.435l.02-.147c0-.098-.024-.19-.067-.271-.097-.185-.29-.311-.514-.311-.223 0-.416.126-.513.311-.043.081-.067.173-.067.271l.019.147c.065.25.291.435.561.435"/></g></g></svg>