<svg width="32" height="232" viewBox="0 0 32 232" xmlns="http://www.w3.org/2000/svg" xmlns:sketch="http://www.bohemiancoding.com/sketch/ns"><title>India</title><g sketch:type="MSPage" fill="none"><g sketch:type="MSLayerGroup"><g fill="#373D43" sketch:type="MSShapeGroup"><path d="M7.947 21.582h1.987c.225 0 .407-.182.407-.407v-1.732c0-.788-1.004-1.378-1.205-1.488-.122-.067-.27-.067-.392 0-.201.11-1.204.701-1.204 1.488v1.732c0 .224.182.407.407.407zm.408-2.139c0-.166.28-.446.586-.654.306.208.586.488.586.654v1.325h-1.172v-1.325z" id="Fill-1"/><path d="M7.947 25.552h1.987c.225 0 .407-.182.407-.407v-1.732c0-.788-1.004-1.378-1.205-1.488-.122-.067-.27-.067-.392 0-.201.11-1.204.7-1.204 1.488v1.732c0 .225.182.407.407.407zm.408-2.139c0-.166.28-.446.586-.654.306.207.586.487.586.654v1.325h-1.172v-1.325z" id="Fill-2"/><path d="M5.497 21.582h1.121c.225 0 .407-.182.407-.407v-1.732c0-.738-.614-1.356-.684-1.423-.158-.154-.41-.154-.568 0-.07.068-.684.686-.684 1.423v1.732c0 .224.182.407.407.407zm.407-2.139c0-.156.068-.322.153-.468.085.145.154.312.154.468v1.325h-.307v-1.325z" id="Fill-3"/><path d="M5.497 25.552h1.121c.225 0 .407-.182.407-.407v-1.732c0-.738-.614-1.356-.684-1.424-.158-.154-.41-.154-.568 0-.07.068-.684.686-.684 1.424v1.732c0 .225.182.407.407.407zm.407-2.139c0-.156.068-.322.153-.468.085.146.154.312.154.468v1.325h-.307v-1.325z" id="Fill-4"/><path d="M22.256 21.582h1.986c.225 0 .407-.182.407-.407v-1.732c0-.788-1.004-1.378-1.205-1.488-.122-.067-.269-.067-.392 0-.201.11-1.204.701-1.204 1.488v1.732c0 .224.182.407.407.407zm.407-2.139c0-.166.28-.446.586-.654.306.208.586.488.586.654v1.325h-1.172v-1.325z" id="Fill-5"/><path d="M22.256 25.552h1.986c.225 0 .407-.182.407-.407v-1.732c0-.788-1.004-1.378-1.205-1.489-.122-.067-.269-.066-.392 0-.201.11-1.204.7-1.204 1.488v1.732c0 .225.182.407.407.407zm.407-2.139c0-.166.28-.446.586-.654.287.197.586.48.586.654v1.325h-1.172v-1.325z" id="Fill-6"/><path d="M25.571 21.582h1.121c.225 0 .407-.182.407-.407v-1.732c0-.738-.614-1.356-.684-1.423-.158-.154-.41-.154-.568 0-.07.068-.684.686-.684 1.423v1.732c0 .224.182.407.407.407zm.407-2.139c0-.156.068-.322.153-.468.085.145.154.312.154.468v1.325h-.307v-1.325z" id="Fill-7"/><path d="M25.571 25.552h1.121c.225 0 .407-.182.407-.407v-1.732c0-.738-.614-1.356-.684-1.424-.158-.154-.41-.154-.568 0-.07.068-.684.686-.684 1.424v1.732c0 .225.182.407.407.407zm.407-2.139c0-.156.068-.322.153-.468.085.146.154.312.154.468v1.325h-.307v-1.325z" id="Fill-8"/><path d="M28.37 11.572c-.45 0-.814.365-.814.814v4.169h-.356v-2.074c0-.225-.183-.407-.407-.407-.225 0-.407.182-.407.407v2.074h-1.295c.17-.264.298-.604.298-1.035 0-.986-.718-1.544-1.296-1.992-.251-.195-.489-.38-.637-.57v-.641c.084-.096.136-.221.136-.358 0-.3-.244-.543-.543-.543-.3 0-.543.244-.543.543 0 .138.052.262.136.358v.64c-.148.19-.386.376-.637.571l-.414.334.022-.447c0-2.291-1.693-3.606-3.053-4.663-.698-.542-1.357-1.054-1.704-1.603-.045-.078-.103-.15-.174-.211l-.126-.089v-1.393c.197-.132.327-.356.327-.611 0-.405-.329-.735-.734-.735-.405 0-.734.33-.734.735 0 .254.13.479.327.611v1.393l-.02.011c-.124.076-.22.18-.286.298-.348.545-1.004 1.055-1.698 1.594-1.36 1.056-3.053 2.371-3.053 4.662l.022.447-.414-.334c-.251-.195-.49-.38-.637-.57v-.641c.084-.096.136-.221.136-.358 0-.3-.244-.543-.543-.543-.299 0-.543.244-.543.543 0 .137.052.262.136.358v.64c-.148.19-.386.376-.637.571-.577.448-1.296 1.006-1.296 1.992 0 .431.128.772.298 1.035h-1.295v-2.074c0-.225-.182-.407-.407-.407-.225 0-.407.182-.407.407v2.074h-.356v-4.169c0-.45-.365-.814-.814-.814-.45 0-.814.365-.814.814v14.662c0 .45.364.814.814.814l7.954.002.022.001h4.324l12.143.003c.216 0 .423-.085.576-.238.153-.153.239-.36.239-.576v-14.668c0-.45-.365-.814-.814-.814zm-19.666 2.6c.186-.145.376-.292.545-.455.168.162.358.31.544.455.526.408.981.762.981 1.349 0 .6-.436.906-.602 1.001h-1.845c-.169-.097-.603-.402-.603-1.001 0-.587.454-.94.98-1.349zm13.8 0c.186-.145.376-.292.544-.455.168.162.358.31.544.455.526.408.981.762.981 1.349 0 .6-.436.906-.603 1.001h-1.845c-.169-.097-.603-.402-.603-1.001 0-.587.454-.94.981-1.349zm-9.787 3.198v-.623h6.863v9.49h-.57v-5.702c0-1.219-1.19-2.321-1.976-2.917l-.344-.248-.332-.216c-.128-.076-.288-.076-.416 0l-.333.216-.344.248c-.787.596-1.976 1.698-1.976 2.917v5.702h-.57v-8.866zm3.431 4.682c-.332 0-.604.262-.62.591v3.549h-1.427v-4.562c0-.7 1.188-1.57 2.045-2.026.216.117.601.339.984.627.686.514 1.064 1.011 1.064 1.399v4.562h-1.427v-3.549c-.015-.328-.287-.591-.62-.591zm.178-3.272c-.112-.055-.244-.055-.357 0-.157.077-1.016.51-1.72 1.148.366-.797 1.326-1.563 1.899-1.942.574.379 1.535 1.145 1.9 1.943-.704-.638-1.564-1.072-1.722-1.149zm11.229 7.46l-6.347-.002v-8.868h6.347v8.87zm-16.467-8.87v8.866l-6.346-.002v-8.864h6.346zm11.96-5.683c.121 0 .222.08.257.189-.07-.058-.159-.093-.257-.093s-.187.036-.257.094c.035-.11.136-.19.257-.19zm-6.9-6.922c.044 0 .08.036.08.08 0 .044-.036.08-.08.08-.044 0-.08-.036-.08-.08 0-.044.036-.08.08-.08zm-1.411 5.273c.487-.378.985-.765 1.411-1.195.427.43.924.817 1.412 1.195 1.246.968 2.424 1.882 2.424 3.376 0 .732-.252 1.291-.563 1.702h-6.544c-.31-.412-.563-.971-.563-1.702 0-1.494 1.177-2.408 2.424-3.376zm-5.488 1.648c.121 0 .222.08.257.19-.07-.058-.159-.094-.257-.094s-.187.036-.257.094c.035-.11.136-.19.257-.19z" id="Fill-9"/><path d="M9.384 7.583c.225 0 .408-.182.408-.407 0-.225-.183-.408-.408-.408-.225 0-.408.183-.408.408 0 .225.183.407.408.407" id="Fill-10"/><path d="M20.447 6.812l.339.185.185.339c.071.131.208.212.357.212s.286-.081.357-.212l.185-.339.338-.185c.131-.071.212-.208.212-.357s-.081-.286-.212-.357l-.338-.186-.185-.338c-.071-.131-.208-.212-.357-.212s-.286.081-.357.212l-.185.338-.339.186c-.131.071-.212.208-.212.357s.081.286.212.357" id="Fill-11"/><path d="M24.88 8.889l.02.021c.075.075.179.118.287.118.088 0 .173-.028.244-.08.095-.071.154-.18.163-.298.006-.09-.018-.179-.066-.254l-.033-.043-.02-.021c-.076-.075-.178-.118-.287-.118-.088 0-.173.029-.244.081-.095.071-.154.18-.163.298-.006.091.018.18.067.254l.032.044" id="Fill-12"/></g><g id="India-copy" fill="#67737B" sketch:type="MSShapeGroup"><path d="M7.947 61.582h1.987c.225 0 .407-.182.407-.407v-1.732c0-.788-1.004-1.378-1.205-1.488-.122-.067-.27-.067-.392 0-.201.11-1.204.701-1.204 1.488v1.732c0 .224.182.407.407.407zm.408-2.139c0-.166.28-.446.586-.654.306.208.586.488.586.654v1.325h-1.172v-1.325z" id="Fill-1"/><path d="M7.947 65.552h1.987c.225 0 .407-.182.407-.407v-1.732c0-.788-1.004-1.378-1.205-1.488-.122-.067-.27-.067-.392 0-.201.11-1.204.7-1.204 1.488v1.732c0 .225.182.407.407.407zm.408-2.139c0-.166.28-.446.586-.654.306.207.586.487.586.654v1.325h-1.172v-1.325z" id="Fill-2"/><path d="M5.497 61.582h1.121c.225 0 .407-.182.407-.407v-1.732c0-.738-.614-1.356-.684-1.423-.158-.154-.41-.154-.568 0-.07.068-.684.686-.684 1.423v1.732c0 .224.182.407.407.407zm.407-2.139c0-.156.068-.322.153-.468.085.145.154.312.154.468v1.325h-.307v-1.325z" id="Fill-3"/><path d="M5.497 65.552h1.121c.225 0 .407-.182.407-.407v-1.732c0-.738-.614-1.356-.684-1.424-.158-.154-.41-.154-.568 0-.07.068-.684.686-.684 1.424v1.732c0 .225.182.407.407.407zm.407-2.139c0-.156.068-.322.153-.468.085.146.154.312.154.468v1.325h-.307v-1.325z" id="Fill-4"/><path d="M22.256 61.582h1.986c.225 0 .407-.182.407-.407v-1.732c0-.788-1.004-1.378-1.205-1.488-.122-.067-.269-.067-.392 0-.201.11-1.204.701-1.204 1.488v1.732c0 .224.182.407.407.407zm.407-2.139c0-.166.28-.446.586-.654.306.208.586.488.586.654v1.325h-1.172v-1.325z" id="Fill-5"/><path d="M22.256 65.552h1.986c.225 0 .407-.182.407-.407v-1.732c0-.788-1.004-1.378-1.205-1.489-.122-.067-.269-.066-.392 0-.201.11-1.204.7-1.204 1.488v1.732c0 .225.182.407.407.407zm.407-2.139c0-.166.28-.446.586-.654.287.197.586.48.586.654v1.325h-1.172v-1.325z" id="Fill-6"/><path d="M25.571 61.582h1.121c.225 0 .407-.182.407-.407v-1.732c0-.738-.614-1.356-.684-1.423-.158-.154-.41-.154-.568 0-.07.068-.684.686-.684 1.423v1.732c0 .224.182.407.407.407zm.407-2.139c0-.156.068-.322.153-.468.085.145.154.312.154.468v1.325h-.307v-1.325z" id="Fill-7"/><path d="M25.571 65.552h1.121c.225 0 .407-.182.407-.407v-1.732c0-.738-.614-1.356-.684-1.424-.158-.154-.41-.154-.568 0-.07.068-.684.686-.684 1.424v1.732c0 .225.182.407.407.407zm.407-2.139c0-.156.068-.322.153-.468.085.146.154.312.154.468v1.325h-.307v-1.325z" id="Fill-8"/><path d="M28.37 51.572c-.45 0-.814.365-.814.814v4.169h-.356v-2.074c0-.225-.183-.407-.407-.407-.225 0-.407.182-.407.407v2.074h-1.295c.17-.264.298-.604.298-1.035 0-.986-.718-1.544-1.296-1.992-.251-.195-.489-.38-.637-.57v-.641c.084-.096.136-.221.136-.358 0-.3-.244-.543-.543-.543-.3 0-.543.244-.543.543 0 .138.052.262.136.358v.64c-.148.19-.386.376-.637.571l-.414.334.022-.447c0-2.291-1.693-3.606-3.053-4.663-.698-.542-1.357-1.054-1.704-1.603-.045-.078-.103-.15-.174-.211l-.126-.089v-1.393c.197-.132.327-.356.327-.611 0-.405-.329-.735-.734-.735-.405 0-.734.33-.734.735 0 .254.13.479.327.611v1.393l-.02.011c-.124.076-.22.18-.286.298-.348.545-1.004 1.055-1.698 1.594-1.36 1.056-3.053 2.371-3.053 4.662l.022.447-.414-.334c-.251-.195-.49-.38-.637-.57v-.641c.084-.096.136-.221.136-.358 0-.3-.244-.543-.543-.543-.299 0-.543.244-.543.543 0 .137.052.262.136.358v.64c-.148.19-.386.376-.637.571-.577.448-1.296 1.006-1.296 1.992 0 .431.128.772.298 1.035h-1.295v-2.074c0-.225-.182-.407-.407-.407-.225 0-.407.182-.407.407v2.074h-.356v-4.169c0-.45-.365-.814-.814-.814-.45 0-.814.365-.814.814v14.662c0 .45.364.814.814.814l7.954.002.022.001h4.324l12.143.003c.216 0 .423-.085.576-.238.153-.153.239-.36.239-.576v-14.668c0-.45-.365-.814-.814-.814zm-19.666 2.6c.186-.145.376-.292.545-.455.168.162.358.31.544.455.526.408.981.762.981 1.349 0 .6-.436.906-.602 1.001h-1.845c-.169-.097-.603-.402-.603-1.001 0-.587.454-.94.98-1.349zm13.8 0c.186-.145.376-.292.544-.455.168.162.358.31.544.455.526.408.981.762.981 1.349 0 .6-.436.906-.603 1.001h-1.845c-.169-.097-.603-.402-.603-1.001 0-.587.454-.94.981-1.349zm-9.787 3.198v-.623h6.863v9.49h-.57v-5.702c0-1.219-1.19-2.321-1.976-2.917l-.344-.248-.332-.216c-.128-.076-.288-.076-.416 0l-.333.216-.344.248c-.787.596-1.976 1.698-1.976 2.917v5.702h-.57v-8.866zm3.431 4.682c-.332 0-.604.262-.62.591v3.549h-1.427v-4.562c0-.7 1.188-1.57 2.045-2.026.216.117.601.339.984.627.686.514 1.064 1.011 1.064 1.399v4.562h-1.427v-3.549c-.015-.328-.287-.591-.62-.591zm.178-3.272c-.112-.055-.244-.055-.357 0-.157.077-1.016.51-1.72 1.148.366-.797 1.326-1.563 1.899-1.942.574.379 1.535 1.145 1.9 1.943-.704-.638-1.564-1.072-1.722-1.149zm11.229 7.46l-6.347-.002v-8.868h6.347v8.87zm-16.467-8.87v8.866l-6.346-.002v-8.864h6.346zm11.96-5.683c.121 0 .222.08.257.189-.07-.058-.159-.093-.257-.093s-.187.036-.257.094c.035-.11.136-.19.257-.19zm-6.9-6.922c.044 0 .08.036.08.08 0 .044-.036.08-.08.08-.044 0-.08-.036-.08-.08 0-.044.036-.08.08-.08zm-1.411 5.273c.487-.378.985-.765 1.411-1.195.427.43.924.817 1.412 1.195 1.246.968 2.424 1.882 2.424 3.376 0 .732-.252 1.291-.563 1.702h-6.544c-.31-.412-.563-.971-.563-1.702 0-1.494 1.177-2.408 2.424-3.376zm-5.488 1.648c.121 0 .222.08.257.19-.07-.058-.159-.094-.257-.094s-.187.036-.257.094c.035-.11.136-.19.257-.19z" id="Fill-9"/><path d="M9.384 47.583c.225 0 .408-.182.408-.407 0-.225-.183-.408-.408-.408-.225 0-.408.183-.408.408 0 .225.183.407.408.407" id="Fill-10"/><path d="M20.447 46.812l.339.185.185.339c.071.131.208.212.357.212s.286-.081.357-.212l.185-.339.338-.185c.131-.071.212-.208.212-.357s-.081-.286-.212-.357l-.338-.186-.185-.338c-.071-.131-.208-.212-.357-.212s-.286.081-.357.212l-.185.338-.339.186c-.131.071-.212.208-.212.357s.081.286.212.357" id="Fill-11"/><path d="M24.88 48.889l.02.021c.075.075.179.118.287.118.088 0 .173-.028.244-.08.095-.071.154-.18.163-.298.006-.09-.018-.179-.066-.254l-.033-.043-.02-.021c-.076-.075-.178-.118-.287-.118-.088 0-.173.029-.244.081-.095.071-.154.18-.163.298-.006.091.018.18.067.254l.032.044" id="Fill-12"/></g><g fill="#206FAC" sketch:type="MSShapeGroup"><path d="M7.947 131.582h1.987c.225 0 .407-.182.407-.407v-1.732c0-.788-1.004-1.378-1.205-1.488-.122-.067-.27-.067-.392 0-.201.11-1.204.701-1.204 1.488v1.732c0 .224.182.407.407.407zm.408-2.139c0-.166.28-.446.586-.654.306.208.586.488.586.654v1.325h-1.172v-1.325z" id="Fill-1"/><path d="M7.947 135.552h1.987c.225 0 .407-.182.407-.407v-1.732c0-.788-1.004-1.378-1.205-1.488-.122-.067-.27-.067-.392 0-.201.11-1.204.7-1.204 1.488v1.732c0 .225.182.407.407.407zm.408-2.139c0-.166.28-.446.586-.654.306.207.586.487.586.654v1.325h-1.172v-1.325z" id="Fill-2"/><path d="M5.497 131.582h1.121c.225 0 .407-.182.407-.407v-1.732c0-.738-.614-1.356-.684-1.423-.158-.154-.41-.154-.568 0-.07.068-.684.686-.684 1.423v1.732c0 .224.182.407.407.407zm.407-2.139c0-.156.068-.322.153-.468.085.145.154.312.154.468v1.325h-.307v-1.325z" id="Fill-3"/><path d="M5.497 135.552h1.121c.225 0 .407-.182.407-.407v-1.732c0-.738-.614-1.356-.684-1.424-.158-.154-.41-.154-.568 0-.07.068-.684.686-.684 1.424v1.732c0 .225.182.407.407.407zm.407-2.139c0-.156.068-.322.153-.468.085.146.154.312.154.468v1.325h-.307v-1.325z" id="Fill-4"/><path d="M22.256 131.582h1.986c.225 0 .407-.182.407-.407v-1.732c0-.788-1.004-1.378-1.205-1.488-.122-.067-.269-.067-.392 0-.201.11-1.204.701-1.204 1.488v1.732c0 .224.182.407.407.407zm.407-2.139c0-.166.28-.446.586-.654.306.208.586.488.586.654v1.325h-1.172v-1.325z" id="Fill-5"/><path d="M22.256 135.552h1.986c.225 0 .407-.182.407-.407v-1.732c0-.788-1.004-1.378-1.205-1.489-.122-.067-.269-.066-.392 0-.201.11-1.204.7-1.204 1.488v1.732c0 .225.182.407.407.407zm.407-2.139c0-.166.28-.446.586-.654.287.197.586.48.586.654v1.325h-1.172v-1.325z" id="Fill-6"/><path d="M25.571 131.582h1.121c.225 0 .407-.182.407-.407v-1.732c0-.738-.614-1.356-.684-1.423-.158-.154-.41-.154-.568 0-.07.068-.684.686-.684 1.423v1.732c0 .224.182.407.407.407zm.407-2.139c0-.156.068-.322.153-.468.085.145.154.312.154.468v1.325h-.307v-1.325z" id="Fill-7"/><path d="M25.571 135.552h1.121c.225 0 .407-.182.407-.407v-1.732c0-.738-.614-1.356-.684-1.424-.158-.154-.41-.154-.568 0-.07.068-.684.686-.684 1.424v1.732c0 .225.182.407.407.407zm.407-2.139c0-.156.068-.322.153-.468.085.146.154.312.154.468v1.325h-.307v-1.325z" id="Fill-8"/><path d="M28.37 121.572c-.45 0-.814.365-.814.814v4.169h-.356v-2.074c0-.225-.183-.407-.407-.407-.225 0-.407.182-.407.407v2.074h-1.295c.17-.264.298-.604.298-1.035 0-.986-.718-1.544-1.296-1.992-.251-.195-.489-.38-.637-.57v-.641c.084-.096.136-.221.136-.358 0-.3-.244-.543-.543-.543-.3 0-.543.244-.543.543 0 .138.052.262.136.358v.64c-.148.19-.386.376-.637.571l-.414.334.022-.447c0-2.291-1.693-3.606-3.053-4.663-.698-.542-1.357-1.054-1.704-1.603-.045-.078-.103-.15-.174-.211l-.126-.089v-1.393c.197-.132.327-.356.327-.611 0-.405-.329-.735-.734-.735-.405 0-.734.33-.734.735 0 .254.13.479.327.611v1.393l-.02.011c-.124.076-.22.18-.286.298-.348.545-1.004 1.055-1.698 1.594-1.36 1.056-3.053 2.371-3.053 4.662l.022.447-.414-.334c-.251-.195-.49-.38-.637-.57v-.641c.084-.096.136-.221.136-.358 0-.3-.244-.543-.543-.543-.299 0-.543.244-.543.543 0 .137.052.262.136.358v.64c-.148.19-.386.376-.637.571-.577.448-1.296 1.006-1.296 1.992 0 .431.128.772.298 1.035h-1.295v-2.074c0-.225-.182-.407-.407-.407-.225 0-.407.182-.407.407v2.074h-.356v-4.169c0-.45-.365-.814-.814-.814-.45 0-.814.365-.814.814v14.662c0 .45.364.814.814.814l7.954.002.022.001h4.324l12.143.003c.216 0 .423-.085.576-.238.153-.153.239-.36.239-.576v-14.668c0-.45-.365-.814-.814-.814zm-19.666 2.6c.186-.145.376-.292.545-.455.168.162.358.31.544.455.526.408.981.762.981 1.349 0 .6-.436.906-.602 1.001h-1.845c-.169-.097-.603-.402-.603-1.001 0-.587.454-.94.98-1.349zm13.8 0c.186-.145.376-.292.544-.455.168.162.358.31.544.455.526.408.981.762.981 1.349 0 .6-.436.906-.603 1.001h-1.845c-.169-.097-.603-.402-.603-1.001 0-.587.454-.94.981-1.349zm-9.787 3.198v-.623h6.863v9.49h-.57v-5.702c0-1.219-1.19-2.321-1.976-2.917l-.344-.248-.332-.216c-.128-.076-.288-.076-.416 0l-.333.216-.344.248c-.787.596-1.976 1.698-1.976 2.917v5.702h-.57v-8.866zm3.431 4.682c-.332 0-.604.262-.62.591v3.549h-1.427v-4.562c0-.7 1.188-1.57 2.045-2.026.216.117.601.339.984.627.686.514 1.064 1.011 1.064 1.399v4.562h-1.427v-3.549c-.015-.328-.287-.591-.62-.591zm.178-3.272c-.112-.055-.244-.055-.357 0-.157.077-1.016.51-1.72 1.148.366-.797 1.326-1.563 1.899-1.942.574.379 1.535 1.145 1.9 1.943-.704-.638-1.564-1.072-1.722-1.149zm11.229 7.46l-6.347-.002v-8.868h6.347v8.87zm-16.467-8.87v8.866l-6.346-.002v-8.864h6.346zm11.96-5.683c.121 0 .222.08.257.189-.07-.058-.159-.093-.257-.093s-.187.036-.257.094c.035-.11.136-.19.257-.19zm-6.9-6.922c.044 0 .08.036.08.08 0 .044-.036.08-.08.08-.044 0-.08-.036-.08-.08 0-.044.036-.08.08-.08zm-1.411 5.273c.487-.378.985-.765 1.411-1.195.427.43.924.817 1.412 1.195 1.246.968 2.424 1.882 2.424 3.376 0 .732-.252 1.291-.563 1.702h-6.544c-.31-.412-.563-.971-.563-1.702 0-1.494 1.177-2.408 2.424-3.376zm-5.488 1.648c.121 0 .222.08.257.19-.07-.058-.159-.094-.257-.094s-.187.036-.257.094c.035-.11.136-.19.257-.19z" id="Fill-9"/><path d="M9.384 117.583c.225 0 .408-.182.408-.407 0-.225-.183-.408-.408-.408-.225 0-.408.183-.408.408 0 .225.183.407.408.407" id="Fill-10"/><path d="M20.447 116.812l.339.185.185.339c.071.131.208.212.357.212s.286-.081.357-.212l.185-.339.338-.185c.131-.071.212-.208.212-.357s-.081-.286-.212-.357l-.338-.186-.185-.338c-.071-.131-.208-.212-.357-.212s-.286.081-.357.212l-.185.338-.339.186c-.131.071-.212.208-.212.357s.081.286.212.357" id="Fill-11"/><path d="M24.88 118.889l.02.021c.075.075.179.118.287.118.088 0 .173-.028.244-.08.095-.071.154-.18.163-.298.006-.09-.018-.179-.066-.254l-.033-.043-.02-.021c-.076-.075-.178-.118-.287-.118-.088 0-.173.029-.244.081-.095.071-.154.18-.163.298-.006.091.018.18.067.254l.032.044" id="Fill-12"/></g><g fill="#fff" sketch:type="MSShapeGroup"><path d="M7.947 97.582h1.987c.225 0 .407-.182.407-.407v-1.732c0-.788-1.004-1.378-1.205-1.488-.122-.067-.27-.067-.392 0-.201.11-1.204.701-1.204 1.488v1.732c0 .224.182.407.407.407zm.408-2.139c0-.166.28-.446.586-.654.306.208.586.488.586.654v1.325h-1.172v-1.325z"/><path d="M7.947 101.552h1.987c.225 0 .407-.182.407-.407v-1.732c0-.788-1.004-1.378-1.205-1.488-.122-.067-.27-.067-.392 0-.201.11-1.204.7-1.204 1.488v1.732c0 .225.182.407.407.407zm.408-2.139c0-.166.28-.446.586-.654.306.207.586.487.586.654v1.325h-1.172v-1.325z"/><path d="M5.497 97.582h1.121c.225 0 .407-.182.407-.407v-1.732c0-.738-.614-1.356-.684-1.423-.158-.154-.41-.154-.568 0-.07.068-.684.686-.684 1.423v1.732c0 .224.182.407.407.407zm.407-2.139c0-.156.068-.322.153-.468.085.145.154.312.154.468v1.325h-.307v-1.325z"/><path d="M5.497 101.552h1.121c.225 0 .407-.182.407-.407v-1.732c0-.738-.614-1.356-.684-1.424-.158-.154-.41-.154-.568 0-.07.068-.684.686-.684 1.424v1.732c0 .225.182.407.407.407zm.407-2.139c0-.156.068-.322.153-.468.085.146.154.312.154.468v1.325h-.307v-1.325z"/><path d="M22.256 97.582h1.986c.225 0 .407-.182.407-.407v-1.732c0-.788-1.004-1.378-1.205-1.488-.122-.067-.269-.067-.392 0-.201.11-1.204.701-1.204 1.488v1.732c0 .224.182.407.407.407zm.407-2.139c0-.166.28-.446.586-.654.306.208.586.488.586.654v1.325h-1.172v-1.325z"/><path d="M22.256 101.552h1.986c.225 0 .407-.182.407-.407v-1.732c0-.788-1.004-1.378-1.205-1.489-.122-.067-.269-.066-.392 0-.201.11-1.204.7-1.204 1.488v1.732c0 .225.182.407.407.407zm.407-2.139c0-.166.28-.446.586-.654.287.197.586.48.586.654v1.325h-1.172v-1.325z"/><path d="M25.571 97.582h1.121c.225 0 .407-.182.407-.407v-1.732c0-.738-.614-1.356-.684-1.423-.158-.154-.41-.154-.568 0-.07.068-.684.686-.684 1.423v1.732c0 .224.182.407.407.407zm.407-2.139c0-.156.068-.322.153-.468.085.145.154.312.154.468v1.325h-.307v-1.325z"/><path d="M25.571 101.552h1.121c.225 0 .407-.182.407-.407v-1.732c0-.738-.614-1.356-.684-1.424-.158-.154-.41-.154-.568 0-.07.068-.684.686-.684 1.424v1.732c0 .225.182.407.407.407zm.407-2.139c0-.156.068-.322.153-.468.085.146.154.312.154.468v1.325h-.307v-1.325z"/><path d="M28.37 87.572c-.45 0-.814.365-.814.814v4.169h-.356v-2.074c0-.225-.183-.407-.407-.407-.225 0-.407.182-.407.407v2.074h-1.295c.17-.264.298-.604.298-1.035 0-.986-.718-1.544-1.296-1.992-.251-.195-.489-.38-.637-.57v-.641c.084-.096.136-.221.136-.358 0-.3-.244-.543-.543-.543-.3 0-.543.244-.543.543 0 .138.052.262.136.358v.64c-.148.19-.386.376-.637.571l-.414.334.022-.447c0-2.291-1.693-3.606-3.053-4.663-.698-.542-1.357-1.054-1.704-1.603-.045-.078-.103-.15-.174-.211l-.126-.089v-1.393c.197-.132.327-.356.327-.611 0-.405-.329-.735-.734-.735-.405 0-.734.33-.734.735 0 .254.13.479.327.611v1.393l-.02.011c-.124.076-.22.18-.286.298-.348.545-1.004 1.055-1.698 1.594-1.36 1.056-3.053 2.371-3.053 4.662l.022.447-.414-.334c-.251-.195-.49-.38-.637-.57v-.641c.084-.096.136-.221.136-.358 0-.3-.244-.543-.543-.543-.299 0-.543.244-.543.543 0 .137.052.262.136.358v.64c-.148.19-.386.376-.637.571-.577.448-1.296 1.006-1.296 1.992 0 .431.128.772.298 1.035h-1.295v-2.074c0-.225-.182-.407-.407-.407-.225 0-.407.182-.407.407v2.074h-.356v-4.169c0-.45-.365-.814-.814-.814-.45 0-.814.365-.814.814v14.662c0 .45.364.814.814.814l7.954.002.022.001h4.324l12.143.003c.216 0 .423-.085.576-.238.153-.153.239-.36.239-.576v-14.668c0-.45-.365-.814-.814-.814zm-19.666 2.6c.186-.145.376-.292.545-.455.168.162.358.31.544.455.526.408.981.762.981 1.349 0 .6-.436.906-.602 1.001h-1.845c-.169-.097-.603-.402-.603-1.001 0-.587.454-.94.98-1.349zm13.8 0c.186-.145.376-.292.544-.455.168.162.358.31.544.455.526.408.981.762.981 1.349 0 .6-.436.906-.603 1.001h-1.845c-.169-.097-.603-.402-.603-1.001 0-.587.454-.94.981-1.349zm-9.787 3.198v-.623h6.863v9.49h-.57v-5.702c0-1.219-1.19-2.321-1.976-2.917l-.344-.248-.332-.216c-.128-.076-.288-.076-.416 0l-.333.216-.344.248c-.787.596-1.976 1.698-1.976 2.917v5.702h-.57v-8.866zm3.431 4.682c-.332 0-.604.262-.62.591v3.549h-1.427v-4.562c0-.7 1.188-1.57 2.045-2.026.216.117.601.339.984.627.686.514 1.064 1.011 1.064 1.399v4.562h-1.427v-3.549c-.015-.328-.287-.591-.62-.591zm.178-3.272c-.112-.055-.244-.055-.357 0-.157.077-1.016.51-1.72 1.148.366-.797 1.326-1.563 1.899-1.942.574.379 1.535 1.145 1.9 1.943-.704-.638-1.564-1.072-1.722-1.149zm11.229 7.46l-6.347-.002v-8.868h6.347v8.87zm-16.467-8.87v8.866l-6.346-.002v-8.864h6.346zm11.96-5.683c.121 0 .222.08.257.189-.07-.058-.159-.093-.257-.093s-.187.036-.257.094c.035-.11.136-.19.257-.19zm-6.9-6.922c.044 0 .08.036.08.08 0 .044-.036.08-.08.08-.044 0-.08-.036-.08-.08 0-.044.036-.08.08-.08zm-1.411 5.273c.487-.378.985-.765 1.411-1.195.427.43.924.817 1.412 1.195 1.246.968 2.424 1.882 2.424 3.376 0 .732-.252 1.291-.563 1.702h-6.544c-.31-.412-.563-.971-.563-1.702 0-1.494 1.177-2.408 2.424-3.376zm-5.488 1.648c.121 0 .222.08.257.19-.07-.058-.159-.094-.257-.094s-.187.036-.257.094c.035-.11.136-.19.257-.19z"/><path d="M9.384 83.583c.225 0 .408-.182.408-.407 0-.225-.183-.408-.408-.408-.225 0-.408.183-.408.408 0 .225.183.407.408.407"/><path d="M20.447 82.812l.339.185.185.339c.071.131.208.212.357.212s.286-.081.357-.212l.185-.339.338-.185c.131-.071.212-.208.212-.357s-.081-.286-.212-.357l-.338-.186-.185-.338c-.071-.131-.208-.212-.357-.212s-.286.081-.357.212l-.185.338-.339.186c-.131.071-.212.208-.212.357s.081.286.212.357"/><path d="M24.88 84.889l.02.021c.075.075.179.118.287.118.088 0 .173-.028.244-.08.095-.071.154-.18.163-.298.006-.09-.018-.179-.066-.254l-.033-.043-.02-.021c-.076-.075-.178-.118-.287-.118-.088 0-.173.029-.244.081-.095.071-.154.18-.163.298-.006.091.018.18.067.254l.032.044"/></g></g></g></svg>