<svg width="32" height="232" viewBox="0 0 32 232" xmlns="http://www.w3.org/2000/svg" xmlns:sketch="http://www.bohemiancoding.com/sketch/ns"><title>Mumbai</title><g sketch:type="MSLayerGroup" fill="none"><g fill="#373D43" sketch:type="MSShapeGroup"><path d="M17.499 57.983l.07.029.11.018c.105 0 .207-.045.281-.124l.007-.009c.116-.129.144-.323.068-.484l-.068-.103-.006-.008c-.101-.108-.256-.147-.392-.107l-.067.027c-.095.051-.167.14-.201.248-.033.108-.025.226.023.327.038.081.1.147.175.187" id="Fill-1"/><path d="M21.878 59.533c.075.082.177.127.284.127.105 0 .207-.044.281-.124.076-.079.118-.189.118-.302 0-.112-.042-.221-.116-.3-.118-.127-.31-.161-.46-.082-.095.051-.167.14-.201.247-.033.108-.025.226.023.327l.072.107" id="Fill-2"/><path d="M25.248 59.614l.18.046c.105 0 .206-.044.281-.124.122-.129.153-.328.076-.493l-.075-.111c-.118-.126-.31-.16-.459-.08-.095.051-.167.14-.201.247-.034.108-.025.226.023.327.038.081.1.146.175.188" id="Fill-3"/><path d="M6.283 59.234l-.044-.194-.054-.085-.019-.022c-.074-.078-.174-.124-.281-.124l-.177.044c-.115.061-.196.178-.216.313-.02.134.021.271.11.368.075.082.177.127.284.127.105 0 .206-.044.281-.124.075-.079.118-.189.118-.302" id="Fill-4"/><path d="M8.817 59.533c.075.082.177.127.284.127.105 0 .206-.044.281-.124.075-.079.118-.189.118-.302 0-.112-.042-.221-.116-.3-.118-.127-.31-.161-.46-.082-.095.051-.167.14-.201.247-.033.108-.025.226.023.327l.072.107" id="Fill-5"/><path d="M13.484 57.983l.18.046c.105 0 .206-.045.281-.124.122-.13.153-.329.075-.494-.068-.144-.205-.234-.356-.234l-.178.044c-.115.061-.196.178-.216.314-.021.135.022.273.113.37l.101.078" id="Fill-6"/><path d="M28.779 67.965c-.194 0-.297-.028-.405-.07.119-.212.148-.47.075-.706l-.648-2.094v-6.752h.049c.22 0 .398-.191.398-.426s-.178-.426-.398-.426h-.049v-3.515c0-.315-.16-.589-.398-.736v-.889c0-.235-.178-.426-.398-.426h-5.533v-1.071c.076-.077.124-.187.124-.308v-1.182c0-.235-.084-.452-.21-.648h5.619c.22 0 .398-.191.398-.426s-.178-.426-.398-.426h-6.554l-.015-.009v-.791c0-.235-.178-.426-.398-.426-.22 0-.398.191-.398.426v.791l-.015.009h-3.383c-.22 0-.398.19-.398.426 0 .235.178.426.398.426h2.449c-.126.196-.21.414-.21.648v1.182c0 .121.048.23.124.308v.391h-5.819v-.388c.077-.077.127-.187.127-.31v-1.182c0-.703-.747-1.257-1.159-1.509v-.791c0-.235-.178-.426-.398-.426-.22 0-.398.191-.398.426v.791c-.412.252-1.159.806-1.159 1.509v1.182c0 .12.047.228.121.306v1.073h-5.579c-.22 0-.398.191-.398.426v.889c-.238.148-.398.422-.398.736v3.515h-.017c-.22 0-.398.191-.398.426s.178.426.398.426h.017v6.752l-.648 2.094c-.055.179-.052.369.004.542l-.334-.026c-.22 0-.398.191-.398.426s.178.426.398.426c.237 0 .338.042.479.101.17.071.382.159.769.159s.599-.088.769-.159c.14-.059.242-.101.479-.101s.339.042.479.101c.17.071.382.159.769.159s.599-.088.769-.159c.14-.059.242-.101.479-.101s.338.042.479.101c.17.071.382.159.769.159s.599-.088.769-.159c.14-.059.242-.101.479-.101s.339.042.479.101c.17.071.382.159.769.159s.599-.088.769-.159c.141-.059.242-.101.479-.101s.339.042.479.101c.17.071.382.159.769.159s.599-.088.769-.159c.141-.059.242-.101.479-.101s.339.042.479.101c.17.071.382.159.769.159s.599-.088.769-.159c.14-.059.242-.101.479-.101s.338.042.479.101c.17.071.382.159.769.159s.599-.088.769-.159c.14-.059.242-.101.479-.101s.338.042.479.101c.17.071.382.159.769.159s.599-.088.769-.159c.141-.059.242-.101.479-.101s.338.042.479.101c.17.071.382.159.769.159s.599-.088.769-.159c.14-.059.242-.101.479-.101s.338.042.479.101c.17.071.382.159.769.159.388 0 .599-.088.77-.159.14-.059.242-.101.48-.101.237 0 .338.042.479.101.17.071.382.159.769.159.22 0 .399-.19.399-.426 0-.235-.178-.426-.399-.426zm-24.041-15.188h5.181v.349h-5.181v-.349zm6.617-4.185c.177.108.333.226.457.341h-.914c.124-.115.28-.233.457-.341zm-.761 1.192h1.522v.337h-1.522v-.337zm.122 2.313v-1.082h1.273v2.835h-1.273v-1.753zm9.134-3.381h.373l.27.217h-.913l.269-.217zm-.572 1.068h1.521v.337h-1.521v-.337zm.124 1.462v-.23h1.273v2.835h-1.273v-2.605zm7.189 15.359h-21.836l.161-.521h21.514l.161.521zm-19.828-2.224v-3.11c0-.16.315-.501.76-.772.383.236.761.584.761.772v3.535h-1.522v-.426zm6.023-11.034h5.819v.503h-5.819v-.503zm8.685 1.056h5.135v1.028h-5.135v-1.028zm-8.567.299v.498c0 .235.178.426.398.426.22 0 .398-.191.398-.426v-.498h.163v.498c0 .235.178.426.398.426.22 0 .398-.191.398-.426v-.498h.163v.498c0 .235.179.426.399.426.22 0 .398-.191.398-.426v-.498h.163v.498c0 .235.178.426.398.426.22 0 .398-.191.398-.426v-.498h.163v.498c0 .235.178.426.398.426.22 0 .398-.191.398-.426v-.498h.163v.498c0 .185.112.342.266.4l.133.026c.103 0 .195-.043.266-.111.081-.078.133-.189.133-.315v-.498h.106v1.147h-5.819v-1.147h.118zm-2.188.127v-.127h1.273v1.147h-1.273v-1.02zm2.07 1.998v-.127h5.819v8.106h-.526v-4.859c0-.166-.037-.329-.11-.491-.084-.184-.217-.367-.398-.549-.181-.18-.409-.36-.688-.54-.525-.339-1.042-.557-1.064-.567-.094-.039-.197-.039-.291 0-.022.009-.54.228-1.064.567-.805.52-1.196 1.037-1.196 1.579v4.859h-.481v-7.98zm1.278 7.554v-4.434c0-.277.653-.859 1.609-1.29.956.429 1.609 1.012 1.609 1.29v4.859h-3.218v-.426zm5.338-9.679h1.273v1.147h-1.273v-1.147zm1.273 2.125v7.98h-1.273v-8.106h1.273v.127zm-10.755-1.998v.603h-5.181v-1.028h5.181v.426zm.797 9.552v-7.681h1.273v8.106h-1.273v-.426zm12.326 0v-3.11c0-.16.315-.501.76-.772.383.236.761.584.761.772v3.535h-1.521v-.426zm-4.438-12.029v.144h-5.819v-.399h5.819v.255zm7.604 12.029h-.848v-3.11c0-.872-1.152-1.516-1.383-1.636-.11-.057-.239-.057-.349 0-.231.12-1.383.764-1.383 1.636v3.11h-.774v-6.038h4.737v6.038zm0-6.889h-4.737v-1.209h.048v.558c0 .235.178.426.398.426.22 0 .398-.191.398-.426v-.558h.163v.558c0 .235.178.426.398.426.22 0 .398-.191.398-.426v-.558h.163v.558c0 .235.178.426.398.426.22 0 .398-.191.398-.426v-.558h.163v.558c0 .235.178.426.398.426.22 0 .398-.191.398-.426v-.558h.163v.558c0 .235.178.426.398.426.22 0 .398-.191.398-.426v-.558h.054v1.209zm-4.737-4.715h5.135v.349h-5.135v-.349zm-16.335 4.05v-.544h.07v.558c0 .235.178.426.398.426.22 0 .398-.191.398-.426v-.558h.163v.558c0 .235.178.426.398.426.22 0 .398-.191.398-.426v-.558h.163v.558c0 .235.178.426.398.426.22 0 .398-.191.398-.426v-.558h.163v.558c0 .235.178.426.398.426.22 0 .398-.191.398-.426v-.558h.163v.558c0 .235.178.426.398.426.22 0 .398-.191.398-.426v-.558h.077v1.209h-4.783v-.665zm0 1.516h4.783v6.038h-.838v-3.11c0-.872-1.152-1.516-1.383-1.636-.11-.057-.239-.057-.349 0-.231.12-1.382.764-1.382 1.636v3.11h-.83v-6.038z" id="Fill-7"/><path d="M4.34 49.497h2.224c.22 0 .399-.191.399-.426s-.178-.426-.399-.426h-2.224c-.22 0-.398.191-.398.426s.178.426.398.426" id="Fill-8"/><path d="M5.221 48.348h3.758c.22 0 .398-.191.398-.426s-.178-.426-.398-.426h-3.758c-.22 0-.398.19-.398.426 0 .235.178.426.398.426" id="Fill-9"/><path d="M23.349 49.014c-.22 0-.398.191-.398.426s.178.425.398.425h2.225c.22 0 .398-.191.398-.425 0-.235-.178-.426-.398-.426h-2.225" id="Fill-10"/><path d="M15.069 46.946h2.225c.22 0 .398-.19.398-.426 0-.235-.178-.425-.398-.425h-2.225c-.22 0-.398.19-.398.425s.178.426.398.426" id="Fill-11"/></g><g fill="#fff" sketch:type="MSShapeGroup"><path d="M17.499 17.983l.07.029.11.018c.105 0 .207-.045.281-.124l.007-.009c.116-.129.144-.323.068-.484l-.068-.103-.006-.008c-.101-.108-.256-.147-.392-.107l-.067.027c-.095.051-.167.14-.201.248-.033.108-.025.226.023.327.038.081.1.147.175.187" id="Fill-1"/><path d="M21.878 19.533c.075.082.177.127.284.127.105 0 .207-.044.281-.124.076-.079.118-.189.118-.302 0-.112-.042-.221-.116-.3-.118-.127-.31-.161-.46-.082-.095.051-.167.14-.201.247-.033.108-.025.226.023.327l.072.107" id="Fill-2"/><path d="M25.248 19.614l.18.046c.105 0 .206-.044.281-.124.122-.129.153-.328.076-.493l-.075-.111c-.118-.126-.31-.16-.459-.08-.095.051-.167.14-.201.247-.034.108-.025.226.023.327.038.081.1.146.175.188" id="Fill-3"/><path d="M6.283 19.234l-.044-.194-.054-.085-.019-.022c-.074-.078-.174-.124-.281-.124l-.177.044c-.115.061-.196.178-.216.313-.02.134.021.271.11.368.075.082.177.127.284.127.105 0 .206-.044.281-.124.075-.079.118-.189.118-.302" id="Fill-4"/><path d="M8.817 19.533c.075.082.177.127.284.127.105 0 .206-.044.281-.124.075-.079.118-.189.118-.302 0-.112-.042-.221-.116-.3-.118-.127-.31-.161-.46-.082-.095.051-.167.14-.201.247-.033.108-.025.226.023.327l.072.107" id="Fill-5"/><path d="M13.484 17.983l.18.046c.105 0 .206-.045.281-.124.122-.13.153-.329.075-.494-.068-.144-.205-.234-.356-.234l-.178.044c-.115.061-.196.178-.216.314-.021.135.022.273.113.37l.101.078" id="Fill-6"/><path d="M28.779 27.965c-.194 0-.297-.028-.405-.07.119-.212.148-.47.075-.706l-.648-2.094v-6.752h.049c.22 0 .398-.191.398-.426s-.178-.426-.398-.426h-.049v-3.515c0-.315-.16-.589-.398-.736v-.889c0-.235-.178-.426-.398-.426h-5.533v-1.071c.076-.077.124-.187.124-.308v-1.182c0-.235-.084-.452-.21-.648h5.619c.22 0 .398-.191.398-.426s-.178-.426-.398-.426h-6.554l-.015-.009v-.791c0-.235-.178-.426-.398-.426-.22 0-.398.191-.398.426v.791l-.015.009h-3.383c-.22 0-.398.19-.398.426 0 .235.178.426.398.426h2.449c-.126.196-.21.414-.21.648v1.182c0 .121.048.23.124.308v.391h-5.819v-.388c.077-.077.127-.187.127-.31v-1.182c0-.703-.747-1.257-1.159-1.509v-.791c0-.235-.178-.426-.398-.426-.22 0-.398.191-.398.426v.791c-.412.252-1.159.806-1.159 1.509v1.182c0 .12.047.228.121.306v1.073h-5.579c-.22 0-.398.191-.398.426v.889c-.238.148-.398.422-.398.736v3.515h-.017c-.22 0-.398.191-.398.426s.178.426.398.426h.017v6.752l-.648 2.094c-.055.179-.052.369.004.542l-.334-.026c-.22 0-.398.191-.398.426s.178.426.398.426c.237 0 .338.042.479.101.17.071.382.159.769.159s.599-.088.769-.159c.14-.059.242-.101.479-.101s.339.042.479.101c.17.071.382.159.769.159s.599-.088.769-.159c.14-.059.242-.101.479-.101s.338.042.479.101c.17.071.382.159.769.159s.599-.088.769-.159c.14-.059.242-.101.479-.101s.339.042.479.101c.17.071.382.159.769.159s.599-.088.769-.159c.141-.059.242-.101.479-.101s.339.042.479.101c.17.071.382.159.769.159s.599-.088.769-.159c.141-.059.242-.101.479-.101s.339.042.479.101c.17.071.382.159.769.159s.599-.088.769-.159c.14-.059.242-.101.479-.101s.338.042.479.101c.17.071.382.159.769.159s.599-.088.769-.159c.14-.059.242-.101.479-.101s.338.042.479.101c.17.071.382.159.769.159s.599-.088.769-.159c.141-.059.242-.101.479-.101s.338.042.479.101c.17.071.382.159.769.159s.599-.088.769-.159c.14-.059.242-.101.479-.101s.338.042.479.101c.17.071.382.159.769.159.388 0 .599-.088.77-.159.14-.059.242-.101.48-.101.237 0 .338.042.479.101.17.071.382.159.769.159.22 0 .399-.19.399-.426 0-.235-.178-.426-.399-.426zm-24.041-15.188h5.181v.349h-5.181v-.349zm6.617-4.185c.177.108.333.226.457.341h-.914c.124-.115.28-.233.457-.341zm-.761 1.192h1.522v.337h-1.522v-.337zm.122 2.313v-1.082h1.273v2.835h-1.273v-1.753zm9.134-3.381h.373l.27.217h-.913l.269-.217zm-.572 1.068h1.521v.337h-1.521v-.337zm.124 1.462v-.23h1.273v2.835h-1.273v-2.605zm7.189 15.359h-21.836l.161-.521h21.514l.161.521zm-19.828-2.224v-3.11c0-.16.315-.501.76-.772.383.236.761.584.761.772v3.535h-1.522v-.426zm6.023-11.034h5.819v.503h-5.819v-.503zm8.685 1.056h5.135v1.028h-5.135v-1.028zm-8.567.299v.498c0 .235.178.426.398.426.22 0 .398-.191.398-.426v-.498h.163v.498c0 .235.178.426.398.426.22 0 .398-.191.398-.426v-.498h.163v.498c0 .235.179.426.399.426.22 0 .398-.191.398-.426v-.498h.163v.498c0 .235.178.426.398.426.22 0 .398-.191.398-.426v-.498h.163v.498c0 .235.178.426.398.426.22 0 .398-.191.398-.426v-.498h.163v.498c0 .185.112.342.266.4l.133.026c.103 0 .195-.043.266-.111.081-.078.133-.189.133-.315v-.498h.106v1.147h-5.819v-1.147h.118zm-2.188.127v-.127h1.273v1.147h-1.273v-1.02zm2.07 1.998v-.127h5.819v8.106h-.526v-4.859c0-.166-.037-.329-.11-.491-.084-.184-.217-.367-.398-.549-.181-.18-.409-.36-.688-.54-.525-.339-1.042-.557-1.064-.567-.094-.039-.197-.039-.291 0-.022.009-.54.228-1.064.567-.805.52-1.196 1.037-1.196 1.579v4.859h-.481v-7.98zm1.278 7.554v-4.434c0-.277.653-.859 1.609-1.29.956.429 1.609 1.012 1.609 1.29v4.859h-3.218v-.426zm5.338-9.679h1.273v1.147h-1.273v-1.147zm1.273 2.125v7.98h-1.273v-8.106h1.273v.127zm-10.755-1.998v.603h-5.181v-1.028h5.181v.426zm.797 9.552v-7.681h1.273v8.106h-1.273v-.426zm12.326 0v-3.11c0-.16.315-.501.76-.772.383.236.761.584.761.772v3.535h-1.521v-.426zm-4.438-12.029v.144h-5.819v-.399h5.819v.255zm7.604 12.029h-.848v-3.11c0-.872-1.152-1.516-1.383-1.636-.11-.057-.239-.057-.349 0-.231.12-1.383.764-1.383 1.636v3.11h-.774v-6.038h4.737v6.038zm0-6.889h-4.737v-1.209h.048v.558c0 .235.178.426.398.426.22 0 .398-.191.398-.426v-.558h.163v.558c0 .235.178.426.398.426.22 0 .398-.191.398-.426v-.558h.163v.558c0 .235.178.426.398.426.22 0 .398-.191.398-.426v-.558h.163v.558c0 .235.178.426.398.426.22 0 .398-.191.398-.426v-.558h.163v.558c0 .235.178.426.398.426.22 0 .398-.191.398-.426v-.558h.054v1.209zm-4.737-4.715h5.135v.349h-5.135v-.349zm-16.335 4.05v-.544h.07v.558c0 .235.178.426.398.426.22 0 .398-.191.398-.426v-.558h.163v.558c0 .235.178.426.398.426.22 0 .398-.191.398-.426v-.558h.163v.558c0 .235.178.426.398.426.22 0 .398-.191.398-.426v-.558h.163v.558c0 .235.178.426.398.426.22 0 .398-.191.398-.426v-.558h.163v.558c0 .235.178.426.398.426.22 0 .398-.191.398-.426v-.558h.077v1.209h-4.783v-.665zm0 1.516h4.783v6.038h-.838v-3.11c0-.872-1.152-1.516-1.383-1.636-.11-.057-.239-.057-.349 0-.231.12-1.382.764-1.382 1.636v3.11h-.83v-6.038z" id="Fill-7"/><path d="M4.34 9.497h2.224c.22 0 .399-.191.399-.426s-.178-.426-.399-.426h-2.224c-.22 0-.398.191-.398.426s.178.426.398.426" id="Fill-8"/><path d="M5.221 8.348h3.758c.22 0 .398-.191.398-.426s-.178-.426-.398-.426h-3.758c-.22 0-.398.19-.398.426 0 .235.178.426.398.426" id="Fill-9"/><path d="M23.349 9.014c-.22 0-.398.191-.398.426s.178.425.398.425h2.225c.22 0 .398-.191.398-.425 0-.235-.178-.426-.398-.426h-2.225" id="Fill-10"/><path d="M15.069 6.946h2.225c.22 0 .398-.19.398-.426 0-.235-.178-.425-.398-.425h-2.225c-.22 0-.398.19-.398.425s.178.426.398.426" id="Fill-11"/></g><g fill="#67737B" sketch:type="MSShapeGroup"><path d="M17.499 97.983l.07.029.11.018c.105 0 .207-.045.281-.124l.007-.009c.116-.129.144-.323.068-.484l-.068-.103-.006-.008c-.101-.108-.256-.147-.392-.107l-.067.027c-.095.051-.167.14-.201.248-.033.108-.025.226.023.327.038.081.1.147.175.187"/><path d="M21.878 99.533c.075.082.177.127.284.127.105 0 .207-.044.281-.124.076-.079.118-.189.118-.302 0-.112-.042-.221-.116-.3-.118-.127-.31-.161-.46-.082-.095.051-.167.14-.201.247-.033.108-.025.226.023.327l.072.107"/><path d="M25.248 99.614l.18.046c.105 0 .206-.044.281-.124.122-.129.153-.328.076-.493l-.075-.111c-.118-.126-.31-.16-.459-.08-.095.051-.167.14-.201.247-.034.108-.025.226.023.327.038.081.1.146.175.188"/><path d="M6.283 99.234l-.044-.194-.054-.085-.019-.022c-.074-.078-.174-.124-.281-.124l-.177.044c-.115.061-.196.178-.216.313-.02.134.021.271.11.368.075.082.177.127.284.127.105 0 .206-.044.281-.124.075-.079.118-.189.118-.302"/><path d="M8.817 99.533c.075.082.177.127.284.127.105 0 .206-.044.281-.124.075-.079.118-.189.118-.302 0-.112-.042-.221-.116-.3-.118-.127-.31-.161-.46-.082-.095.051-.167.14-.201.247-.033.108-.025.226.023.327l.072.107"/><path d="M13.484 97.983l.18.046c.105 0 .206-.045.281-.124.122-.13.153-.329.075-.494-.068-.144-.205-.234-.356-.234l-.178.044c-.115.061-.196.178-.216.314-.021.135.022.273.113.37l.101.078"/><path d="M28.779 107.965c-.194 0-.297-.028-.405-.07.119-.212.148-.47.075-.706l-.648-2.094v-6.752h.049c.22 0 .398-.191.398-.426s-.178-.426-.398-.426h-.049v-3.515c0-.315-.16-.589-.398-.736v-.889c0-.235-.178-.426-.398-.426h-5.533v-1.071c.076-.077.124-.187.124-.308v-1.182c0-.235-.084-.452-.21-.648h5.619c.22 0 .398-.191.398-.426s-.178-.426-.398-.426h-6.554l-.015-.009v-.791c0-.235-.178-.426-.398-.426-.22 0-.398.191-.398.426v.791l-.015.009h-3.383c-.22 0-.398.19-.398.426 0 .235.178.426.398.426h2.449c-.126.196-.21.414-.21.648v1.182c0 .121.048.23.124.308v.391h-5.819v-.388c.077-.077.127-.187.127-.31v-1.182c0-.703-.747-1.257-1.159-1.509v-.791c0-.235-.178-.426-.398-.426-.22 0-.398.191-.398.426v.791c-.412.252-1.159.806-1.159 1.509v1.182c0 .12.047.228.121.306v1.073h-5.579c-.22 0-.398.191-.398.426v.889c-.238.148-.398.422-.398.736v3.515h-.017c-.22 0-.398.191-.398.426s.178.426.398.426h.017v6.752l-.648 2.094c-.055.179-.052.369.004.542l-.334-.026c-.22 0-.398.191-.398.426s.178.426.398.426c.237 0 .338.042.479.101.17.071.382.159.769.159s.599-.088.769-.159c.14-.059.242-.101.479-.101s.339.042.479.101c.17.071.382.159.769.159s.599-.088.769-.159c.14-.059.242-.101.479-.101s.338.042.479.101c.17.071.382.159.769.159s.599-.088.769-.159c.14-.059.242-.101.479-.101s.339.042.479.101c.17.071.382.159.769.159s.599-.088.769-.159c.141-.059.242-.101.479-.101s.339.042.479.101c.17.071.382.159.769.159s.599-.088.769-.159c.141-.059.242-.101.479-.101s.339.042.479.101c.17.071.382.159.769.159s.599-.088.769-.159c.14-.059.242-.101.479-.101s.338.042.479.101c.17.071.382.159.769.159s.599-.088.769-.159c.14-.059.242-.101.479-.101s.338.042.479.101c.17.071.382.159.769.159s.599-.088.769-.159c.141-.059.242-.101.479-.101s.338.042.479.101c.17.071.382.159.769.159s.599-.088.769-.159c.14-.059.242-.101.479-.101s.338.042.479.101c.17.071.382.159.769.159.388 0 .599-.088.77-.159.14-.059.242-.101.48-.101.237 0 .338.042.479.101.17.071.382.159.769.159.22 0 .399-.19.399-.426 0-.235-.178-.426-.399-.426zm-24.041-15.188h5.181v.349h-5.181v-.349zm6.617-4.185c.177.108.333.226.457.341h-.914c.124-.115.28-.233.457-.341zm-.761 1.192h1.522v.337h-1.522v-.337zm.122 2.313v-1.082h1.273v2.835h-1.273v-1.753zm9.134-3.381h.373l.27.217h-.913l.269-.217zm-.572 1.068h1.521v.337h-1.521v-.337zm.124 1.462v-.23h1.273v2.835h-1.273v-2.605zm7.189 15.359h-21.836l.161-.521h21.514l.161.521zm-19.828-2.224v-3.11c0-.16.315-.501.76-.772.383.236.761.584.761.772v3.535h-1.522v-.426zm6.023-11.034h5.819v.503h-5.819v-.503zm8.685 1.056h5.135v1.028h-5.135v-1.028zm-8.567.299v.498c0 .235.178.426.398.426.22 0 .398-.191.398-.426v-.498h.163v.498c0 .235.178.426.398.426.22 0 .398-.191.398-.426v-.498h.163v.498c0 .235.179.426.399.426.22 0 .398-.191.398-.426v-.498h.163v.498c0 .235.178.426.398.426.22 0 .398-.191.398-.426v-.498h.163v.498c0 .235.178.426.398.426.22 0 .398-.191.398-.426v-.498h.163v.498c0 .185.112.342.266.4l.133.026c.103 0 .195-.043.266-.111.081-.078.133-.189.133-.315v-.498h.106v1.147h-5.819v-1.147h.118zm-2.188.127v-.127h1.273v1.147h-1.273v-1.02zm2.07 1.998v-.127h5.819v8.106h-.526v-4.859c0-.166-.037-.329-.11-.491-.084-.184-.217-.367-.398-.549-.181-.18-.409-.36-.688-.54-.525-.339-1.042-.557-1.064-.567-.094-.039-.197-.039-.291 0-.022.009-.54.228-1.064.567-.805.52-1.196 1.037-1.196 1.579v4.859h-.481v-7.98zm1.278 7.554v-4.434c0-.277.653-.859 1.609-1.29.956.429 1.609 1.012 1.609 1.29v4.859h-3.218v-.426zm5.338-9.679h1.273v1.147h-1.273v-1.147zm1.273 2.125v7.98h-1.273v-8.106h1.273v.127zm-10.755-1.998v.603h-5.181v-1.028h5.181v.426zm.797 9.552v-7.681h1.273v8.106h-1.273v-.426zm12.326 0v-3.11c0-.16.315-.501.76-.772.383.236.761.584.761.772v3.535h-1.521v-.426zm-4.438-12.029v.144h-5.819v-.399h5.819v.255zm7.604 12.029h-.848v-3.11c0-.872-1.152-1.516-1.383-1.636-.11-.057-.239-.057-.349 0-.231.12-1.383.764-1.383 1.636v3.11h-.774v-6.038h4.737v6.038zm0-6.889h-4.737v-1.209h.048v.558c0 .235.178.426.398.426.22 0 .398-.191.398-.426v-.558h.163v.558c0 .235.178.426.398.426.22 0 .398-.191.398-.426v-.558h.163v.558c0 .235.178.426.398.426.22 0 .398-.191.398-.426v-.558h.163v.558c0 .235.178.426.398.426.22 0 .398-.191.398-.426v-.558h.163v.558c0 .235.178.426.398.426.22 0 .398-.191.398-.426v-.558h.054v1.209zm-4.737-4.715h5.135v.349h-5.135v-.349zm-16.335 4.05v-.544h.07v.558c0 .235.178.426.398.426.22 0 .398-.191.398-.426v-.558h.163v.558c0 .235.178.426.398.426.22 0 .398-.191.398-.426v-.558h.163v.558c0 .235.178.426.398.426.22 0 .398-.191.398-.426v-.558h.163v.558c0 .235.178.426.398.426.22 0 .398-.191.398-.426v-.558h.163v.558c0 .235.178.426.398.426.22 0 .398-.191.398-.426v-.558h.077v1.209h-4.783v-.665zm0 1.516h4.783v6.038h-.838v-3.11c0-.872-1.152-1.516-1.383-1.636-.11-.057-.239-.057-.349 0-.231.12-1.382.764-1.382 1.636v3.11h-.83v-6.038z"/><path d="M4.34 89.497h2.224c.22 0 .399-.191.399-.426s-.178-.426-.399-.426h-2.224c-.22 0-.398.191-.398.426s.178.426.398.426"/><path d="M5.221 88.348h3.758c.22 0 .398-.191.398-.426s-.178-.426-.398-.426h-3.758c-.22 0-.398.19-.398.426 0 .235.178.426.398.426"/><path d="M23.349 89.014c-.22 0-.398.191-.398.426s.178.425.398.425h2.225c.22 0 .398-.191.398-.425 0-.235-.178-.426-.398-.426h-2.225"/><path d="M15.069 86.946h2.225c.22 0 .398-.19.398-.426 0-.235-.178-.425-.398-.425h-2.225c-.22 0-.398.19-.398.425s.178.426.398.426"/></g><g fill="#206FAC" sketch:type="MSShapeGroup"><path d="M17.499 137.983l.07.029.11.018c.105 0 .207-.045.281-.124l.007-.009c.116-.129.144-.323.068-.484l-.068-.103-.006-.008c-.101-.108-.256-.147-.392-.107l-.067.027c-.095.051-.167.14-.201.248-.033.108-.025.226.023.327.038.081.1.147.175.187M21.878 139.533c.075.082.177.127.284.127.105 0 .207-.044.281-.124.076-.079.118-.189.118-.302 0-.112-.042-.221-.116-.3-.118-.127-.31-.161-.46-.082-.095.051-.167.14-.201.247-.033.108-.025.226.023.327l.072.107M25.248 139.614l.18.046c.105 0 .206-.044.281-.124.122-.129.153-.328.076-.493l-.075-.111c-.118-.126-.31-.16-.459-.08-.095.051-.167.14-.201.247-.034.108-.025.226.023.327.038.081.1.146.175.188M6.283 139.234l-.044-.194-.054-.085-.019-.022c-.074-.078-.174-.124-.281-.124l-.177.044c-.115.061-.196.178-.216.313-.02.134.021.271.11.368.075.082.177.127.284.127.105 0 .206-.044.281-.124.075-.079.118-.189.118-.302M8.817 139.533c.075.082.177.127.284.127.105 0 .206-.044.281-.124.075-.079.118-.189.118-.302 0-.112-.042-.221-.116-.3-.118-.127-.31-.161-.46-.082-.095.051-.167.14-.201.247-.033.108-.025.226.023.327l.072.107M13.484 137.983l.18.046c.105 0 .206-.045.281-.124.122-.13.153-.329.075-.494-.068-.144-.205-.234-.356-.234l-.178.044c-.115.061-.196.178-.216.314-.021.135.022.273.113.37l.101.078"/><path d="M28.779 147.965c-.194 0-.297-.028-.405-.07.119-.212.148-.47.075-.706l-.648-2.094v-6.752h.049c.22 0 .398-.191.398-.426s-.178-.426-.398-.426h-.049v-3.515c0-.315-.16-.589-.398-.736v-.889c0-.235-.178-.426-.398-.426h-5.533v-1.071c.076-.077.124-.187.124-.308v-1.182c0-.235-.084-.452-.21-.648h5.619c.22 0 .398-.191.398-.426s-.178-.426-.398-.426h-6.554l-.015-.009v-.791c0-.235-.178-.426-.398-.426-.22 0-.398.191-.398.426v.791l-.015.009h-3.383c-.22 0-.398.19-.398.426 0 .235.178.426.398.426h2.449c-.126.196-.21.414-.21.648v1.182c0 .121.048.23.124.308v.391h-5.819v-.388c.077-.077.127-.187.127-.31v-1.182c0-.703-.747-1.257-1.159-1.509v-.791c0-.235-.178-.426-.398-.426-.22 0-.398.191-.398.426v.791c-.412.252-1.159.806-1.159 1.509v1.182c0 .12.047.228.121.306v1.073h-5.579c-.22 0-.398.191-.398.426v.889c-.238.148-.398.422-.398.736v3.515h-.017c-.22 0-.398.191-.398.426s.178.426.398.426h.017v6.752l-.648 2.094c-.055.179-.052.369.004.542l-.334-.026c-.22 0-.398.191-.398.426s.178.426.398.426c.237 0 .338.042.479.101.17.071.382.159.769.159s.599-.088.769-.159c.14-.059.242-.101.479-.101s.339.042.479.101c.17.071.382.159.769.159s.599-.088.769-.159c.14-.059.242-.101.479-.101s.338.042.479.101c.17.071.382.159.769.159s.599-.088.769-.159c.14-.059.242-.101.479-.101s.339.042.479.101c.17.071.382.159.769.159s.599-.088.769-.159c.141-.059.242-.101.479-.101s.339.042.479.101c.17.071.382.159.769.159s.599-.088.769-.159c.141-.059.242-.101.479-.101s.339.042.479.101c.17.071.382.159.769.159s.599-.088.769-.159c.14-.059.242-.101.479-.101s.338.042.479.101c.17.071.382.159.769.159s.599-.088.769-.159c.14-.059.242-.101.479-.101s.338.042.479.101c.17.071.382.159.769.159s.599-.088.769-.159c.141-.059.242-.101.479-.101s.338.042.479.101c.17.071.382.159.769.159s.599-.088.769-.159c.14-.059.242-.101.479-.101s.338.042.479.101c.17.071.382.159.769.159.388 0 .599-.088.77-.159.14-.059.242-.101.48-.101.237 0 .338.042.479.101.17.071.382.159.769.159.22 0 .399-.19.399-.426 0-.235-.178-.426-.399-.426zm-24.041-15.188h5.181v.349h-5.181v-.349zm6.617-4.185c.177.108.333.226.457.341h-.914c.124-.115.28-.233.457-.341zm-.761 1.192h1.522v.337h-1.522v-.337zm.122 2.313v-1.082h1.273v2.835h-1.273v-1.753zm9.134-3.381h.373l.27.217h-.913l.269-.217zm-.572 1.068h1.521v.337h-1.521v-.337zm.124 1.462v-.23h1.273v2.835h-1.273v-2.605zm7.189 15.359h-21.836l.161-.521h21.514l.161.521zm-19.828-2.224v-3.11c0-.16.315-.501.76-.772.383.236.761.584.761.772v3.535h-1.522v-.426zm6.023-11.034h5.819v.503h-5.819v-.503zm8.685 1.056h5.135v1.028h-5.135v-1.028zm-8.567.299v.498c0 .235.178.426.398.426.22 0 .398-.191.398-.426v-.498h.163v.498c0 .235.178.426.398.426.22 0 .398-.191.398-.426v-.498h.163v.498c0 .235.179.426.399.426.22 0 .398-.191.398-.426v-.498h.163v.498c0 .235.178.426.398.426.22 0 .398-.191.398-.426v-.498h.163v.498c0 .235.178.426.398.426.22 0 .398-.191.398-.426v-.498h.163v.498c0 .185.112.342.266.4l.133.026c.103 0 .195-.043.266-.111.081-.078.133-.189.133-.315v-.498h.106v1.147h-5.819v-1.147h.118zm-2.188.127v-.127h1.273v1.147h-1.273v-1.02zm2.07 1.998v-.127h5.819v8.106h-.526v-4.859c0-.166-.037-.329-.11-.491-.084-.184-.217-.367-.398-.549-.181-.18-.409-.36-.688-.54-.525-.339-1.042-.557-1.064-.567-.094-.039-.197-.039-.291 0-.022.009-.54.228-1.064.567-.805.52-1.196 1.037-1.196 1.579v4.859h-.481v-7.98zm1.278 7.554v-4.434c0-.277.653-.859 1.609-1.29.956.429 1.609 1.012 1.609 1.29v4.859h-3.218v-.426zm5.338-9.679h1.273v1.147h-1.273v-1.147zm1.273 2.125v7.98h-1.273v-8.106h1.273v.127zm-10.755-1.998v.603h-5.181v-1.028h5.181v.426zm.797 9.552v-7.681h1.273v8.106h-1.273v-.426zm12.326 0v-3.11c0-.16.315-.501.76-.772.383.236.761.584.761.772v3.535h-1.521v-.426zm-4.438-12.029v.144h-5.819v-.399h5.819v.255zm7.604 12.029h-.848v-3.11c0-.872-1.152-1.516-1.383-1.636-.11-.057-.239-.057-.349 0-.231.12-1.383.764-1.383 1.636v3.11h-.774v-6.038h4.737v6.038zm0-6.889h-4.737v-1.209h.048v.558c0 .235.178.426.398.426.22 0 .398-.191.398-.426v-.558h.163v.558c0 .235.178.426.398.426.22 0 .398-.191.398-.426v-.558h.163v.558c0 .235.178.426.398.426.22 0 .398-.191.398-.426v-.558h.163v.558c0 .235.178.426.398.426.22 0 .398-.191.398-.426v-.558h.163v.558c0 .235.178.426.398.426.22 0 .398-.191.398-.426v-.558h.054v1.209zm-4.737-4.715h5.135v.349h-5.135v-.349zm-16.335 4.05v-.544h.07v.558c0 .235.178.426.398.426.22 0 .398-.191.398-.426v-.558h.163v.558c0 .235.178.426.398.426.22 0 .398-.191.398-.426v-.558h.163v.558c0 .235.178.426.398.426.22 0 .398-.191.398-.426v-.558h.163v.558c0 .235.178.426.398.426.22 0 .398-.191.398-.426v-.558h.163v.558c0 .235.178.426.398.426.22 0 .398-.191.398-.426v-.558h.077v1.209h-4.783v-.665zm0 1.516h4.783v6.038h-.838v-3.11c0-.872-1.152-1.516-1.383-1.636-.11-.057-.239-.057-.349 0-.231.12-1.382.764-1.382 1.636v3.11h-.83v-6.038zM4.34 129.497h2.224c.22 0 .399-.191.399-.426s-.178-.426-.399-.426h-2.224c-.22 0-.398.191-.398.426s.178.426.398.426M5.221 128.348h3.758c.22 0 .398-.191.398-.426s-.178-.426-.398-.426h-3.758c-.22 0-.398.19-.398.426 0 .235.178.426.398.426M23.349 129.014c-.22 0-.398.191-.398.426s.178.425.398.425h2.225c.22 0 .398-.191.398-.425 0-.235-.178-.426-.398-.426h-2.225M15.069 126.946h2.225c.22 0 .398-.19.398-.426 0-.235-.178-.425-.398-.425h-2.225c-.22 0-.398.19-.398.425s.178.426.398.426"/></g></g></svg>