<svg width="32" height="232" viewBox="0 0 32 232" xmlns="http://www.w3.org/2000/svg" xmlns:sketch="http://www.bohemiancoding.com/sketch/ns"><title>Iran</title><g sketch:type="MSPage" fill="none"><g sketch:type="MSLayerGroup"><g fill="#373D43" sketch:type="MSShapeGroup"><path d="M28.193 25.648h-.299v-7.204c0-.225-.18-.407-.402-.407h-1.11c.229-.386.386-.864.386-1.437 0-1.428-1.029-2.239-1.779-2.831-.346-.272-.673-.53-.826-.772l-.142-.18-.149-.112v-.35c.108-.106.175-.255.175-.419 0-.323-.259-.586-.577-.586-.318 0-.577.262-.577.586 0 .164.067.313.175.42v.35l-.02.011c-.118.074-.211.173-.275.287-.155.24-.479.496-.822.766-.751.592-1.78 1.402-1.78 2.831 0 .573.158 1.051.386 1.437h-1.11c-.222 0-.401.182-.401.407v3.841c-.274-.373-.546-.766-.806-1.174v-9.936c0-.225-.18-.407-.401-.407h-1.667c-.1-.175-.262-.309-.456-.371l-.239-.036h-2.433v-.433c0-.225-.18-.407-.401-.407-.222 0-.401.182-.401.407v.433h-2.433l-.239.036c-.194.062-.356.196-.456.371h-1.667c-.222 0-.401.182-.401.407v9.936c-1.41 2.215-3.164 3.965-3.765 4.538h-.467c-.443 0-.803.365-.803.814 0 .45.36.814.803.814h25.38c.443 0 .803-.364.803-.814 0-.45-.36-.814-.803-.814zm-4.723-13.942c.112 0 .205.084.222.193-.063-.043-.14-.068-.222-.068-.082 0-.159.026-.222.068.017-.109.11-.193.222-.193zm-.533 3.349c.179-.141.36-.284.533-.436.172.152.354.295.533.436.721.568 1.159.956 1.159 1.544 0 .578-.373.898-.577 1.03h-2.231c-.204-.132-.577-.452-.577-1.03 0-.589.438-.976 1.159-1.544zm-15.266 8.014c.189-.262.376-.534.559-.814.473-.723.92-1.5 1.295-2.314.334-.723.612-1.474.803-2.24.179-.719.282-1.452.282-2.186v-3.526h4.064v3.526c0 .734.103 1.466.283 2.186.191.766.469 1.517.803 2.24.376.813.823 1.591 1.295 2.314.183.28.371.552.559.814.483.672.975 1.283 1.433 1.814l.401.456.28.307h-4.086l-1.125-6.411c-.016-.424-.289-.946-.832-1.594-.381-.454-.757-.804-.773-.819-.153-.142-.388-.142-.542 0-.016.015-.392.364-.773.819-.543.648-.816 1.171-.832 1.594l-1.125 6.411h-4.086c.625-.674 1.38-1.554 2.115-2.576zm12.179-4.218h7.241v7.201h-.316v-5.268c-.034-.794-.636-1.416-1.373-1.416-.373 0-.711.16-.959.421-.248-.261-.586-.421-.959-.421-.379 0-.722.166-.971.435-.249-.269-.592-.435-.972-.435-.736 0-1.339.622-1.373 1.416v2.9099999999999997l-.316-.378v-4.465zm3.062 1.96c.018-.353.267-.629.57-.629.268 0 .493.215.554.509l-.008.093v5.327h-1.116v-5.3zm-.803 4.837v.097l-.103-.097c-.218-.207-.588-.57-1.038-1.053v-3.784c.018-.353.267-.629.57-.629.303 0 .552.276.57.629v4.837zm-11.605-.003l1.054-4.62.01-.09c.014-.192.501-.707 1.074-1.152.573.445 1.059.96 1.073 1.151l.01.092 1.054 4.62h-4.276zm2.369-6.702c-.139-.099-.323-.099-.462 0-.224.16-.584.434-.91.753l.061-.35.006-.072c0-.321.518-1.018 1.075-1.589.73.74 1.072 1.37 1.072 1.589l.006.072.062.35c-.326-.319-.686-.592-.91-.753zm13.098 7.168h-1.14v-5.3l.016-.12c.061-.294.287-.509.554-.509.303 0 .552.276.57.629v5.3zm-8.533-6.4c-.682-1.34-1.158-2.781-1.158-4.196v-3.933h1.158v8.129zm-9.591-8.129h1.157v3.933c0 1.415-.476 2.857-1.157 4.196v-8.129z" id="Fill-1"/><path d="M12.19 13.002c-.007-.15-.129-.269-.278-.269-.149 0-.271.119-.278.269v1.004h.555v-1.004" id="Fill-2"/><path d="M12.92 13.002c-.007-.15-.129-.269-.278-.269-.149 0-.271.119-.278.269v1.004h.555v-1.004" id="Fill-3"/><path d="M13.65 13.002c-.007-.15-.129-.269-.278-.269-.149 0-.271.119-.278.269v1.004h.555v-1.004" id="Fill-4"/><path d="M14.379 13.002c-.007-.15-.129-.269-.278-.269-.149 0-.271.119-.278.269v1.004h.555v-1.004" id="Fill-5"/><path d="M11.461 13.002c-.007-.15-.128-.269-.277-.269-.149 0-.271.119-.278.269v1.004h.555v-1.004" id="Fill-6"/><path d="M20.232 10.36c.026.206.199.354.398.354l.053-.003 2.107-.28c.22-.03.375-.234.346-.457-.029-.223-.23-.38-.45-.351l-2.107.28c-.22.03-.375.234-.346.456" id="Fill-7"/><path d="M15.279 6.502c.026.206.199.354.398.354l.053-.003c.22-.029.375-.234.346-.457l-.276-2.138c-.029-.223-.23-.38-.45-.351-.22.029-.375.234-.346.457l.276 2.137" id="Fill-8"/><path d="M10.704 7.081l1.801 1.403c.073.057.159.084.244.084.121 0 .24-.055.319-.159.135-.178.102-.434-.074-.571l-1.801-1.403c-.176-.137-.428-.103-.563.075-.135.178-.102.434.074.571" id="Fill-9"/><path d="M18.697 7.661c.073.057.159.084.245.084.12 0 .239-.054.319-.159l1.383-1.826c.135-.178.102-.434-.074-.571-.175-.137-.428-.103-.563.075l-1.383 1.827c-.135.178-.102.434.074.57" id="Fill-10"/><path d="M19.739 8.874c.074.132.21.206.349.206l.198-.053 1.252-.723c.192-.111.26-.36.15-.556-.11-.195-.355-.264-.548-.152l-1.252.723c-.192.111-.26.36-.15.555" id="Fill-11"/><path d="M13.717 7.2c.074.132.21.206.349.206.068 0 .136-.017.199-.054.192-.111.259-.36.15-.555l-.713-1.27c-.11-.196-.355-.264-.547-.152-.193.111-.26.36-.15.555l.713 1.27" id="Fill-12"/><path d="M17.313 6.963l.106.015c.176 0 .338-.119.387-.3l.381-1.409c.059-.217-.067-.441-.281-.5-.214-.059-.435.068-.493.285l-.381 1.409c-.059.217.067.441.281.5" id="Fill-13"/></g><g id="Iran-copy" fill="#67737B" sketch:type="MSShapeGroup"><path d="M28.395 66.394h-.29v-7.453c0-.233-.174-.421-.39-.421h-1.076c.222-.4.375-.894.375-1.487 0-1.478-.997-2.316-1.725-2.928-.335-.281-.652-.548-.801-.798l-.138-.187-.144-.116v-.362c.105-.11.17-.264.17-.434 0-.334-.251-.606-.559-.606-.309 0-.559.271-.559.606 0 .17.065.324.17.434v.362l-.019.011c-.114.076-.204.179-.267.297-.15.248-.465.513-.797.792-.728.612-1.726 1.451-1.726 2.928 0 .593.153 1.087.375 1.487h-1.076c-.215 0-.389.189-.389.421v3.974c-.266-.386-.53-.792-.782-1.214v-10.279c0-.233-.174-.421-.389-.421h-1.617c-.097-.181-.254-.32-.442-.384l-.232-.038h-2.359v-.448c0-.233-.174-.421-.389-.421-.215 0-.389.188-.389.421v.448h-2.359l-.231.038c-.188.064-.345.202-.442.384h-1.617c-.215 0-.389.189-.389.421v10.278c-1.367 2.291-3.067 4.102-3.651 4.694h-.452c-.43 0-.778.377-.778.842 0 .466.349.842.778.842h24.607c.43 0 .778-.377.778-.842 0-.465-.349-.842-.778-.842zm-4.579-14.423c.109 0 .199.087.215.2-.062-.044-.136-.071-.215-.071-.08 0-.154.026-.216.071.016-.113.107-.2.216-.2zm-.517 3.464c.174-.146.349-.294.517-.451.167.158.343.305.517.451.699.588 1.124.989 1.124 1.598 0 .598-.361.929-.559 1.066h-2.163c-.198-.137-.559-.468-.559-1.066 0-.609.424-1.01 1.124-1.598zm-14.801 8.29c.183-.271.364-.553.542-.842.459-.748.892-1.552 1.256-2.393.324-.748.593-1.525.779-2.318.174-.744.274-1.502.274-2.261v-3.647h3.94v3.647c0 .759.1 1.517.274 2.261.185.792.455 1.57.778 2.318.364.841.798 1.646 1.256 2.393.178.29.359.571.542.842.468.695.945 1.327 1.389 1.876l.389.471.272.317h-3.961l-1.091-6.632c-.016-.438-.28-.979-.807-1.649-.369-.47-.734-.832-.749-.847-.149-.147-.377-.147-.525 0-.015.015-.38.377-.749.847-.527.671-.791 1.211-.807 1.649l-1.09 6.632h-3.962c.606-.697 1.338-1.608 2.05-2.665zm11.808-4.363h7.02v7.449h-.307v-5.449c-.033-.821-.617-1.465-1.331-1.465-.362 0-.69.166-.93.436-.24-.27-.568-.436-.93-.436-.368 0-.7.172-.942.45-.242-.278-.574-.45-.942-.45-.714 0-1.298.644-1.331 1.465v3.01l-.306-.391v-4.619zm2.969 2.028c.018-.365.259-.65.552-.65.26 0 .478.223.538.527l-.008.096v5.51h-1.082v-5.483zm-.778 5.004v.101l-.1-.101c-.212-.214-.57-.59-1.006-1.09v-3.914c.018-.365.259-.65.553-.65.294 0 .535.285.553.65v5.004zm-11.251-.003l1.022-4.78.01-.094c.014-.198.486-.731 1.041-1.192.555.461 1.027.993 1.04 1.191l.01.095 1.022 4.78h-4.145zm2.297-6.933c-.135-.102-.314-.102-.448 0-.218.166-.566.449-.882.779l.059-.362.006-.074c0-.332.502-1.053 1.042-1.644.708.766 1.04 1.418 1.04 1.644l.006.074.06.362c-.316-.33-.665-.613-.882-.779zm12.699 7.416h-1.105v-5.483l.015-.124c.059-.304.278-.527.537-.527.294 0 .535.285.553.65v5.483zm-8.273-6.621c-.661-1.386-1.123-2.877-1.123-4.341v-4.068h1.123v8.41zm-9.298-8.41h1.122v4.068c0 1.464-.461 2.955-1.122 4.341v-8.41z" id="Fill-1"/><path d="M12.88 53.313c-.007-.155-.125-.278-.269-.278-.145 0-.262.123-.269.278v1.039h.538v-1.039" id="Fill-2"/><path d="M13.587 53.313c-.007-.155-.125-.278-.269-.278-.145 0-.263.123-.269.278v1.039h.538v-1.039" id="Fill-3"/><path d="M14.295 53.313c-.007-.155-.125-.278-.269-.278-.145 0-.263.123-.269.278v1.039h.538v-1.039" id="Fill-4"/><path d="M15.002 53.313c-.007-.155-.125-.278-.269-.278-.145 0-.262.123-.269.278v1.039h.538v-1.039" id="Fill-5"/><path d="M12.173 53.313c-.006-.155-.124-.278-.269-.278-.145 0-.263.123-.27.278v1.039h.538v-1.039" id="Fill-6"/><path d="M20.676 50.58c.026.213.193.367.385.367l.051-.003 2.043-.29c.213-.031.363-.242.335-.473-.028-.23-.223-.393-.437-.363l-2.043.29c-.213.031-.363.242-.335.472" id="Fill-7"/><path d="M15.875 46.588c.026.213.193.367.385.367l.051-.003c.213-.03.363-.242.335-.473l-.268-2.211c-.028-.23-.223-.394-.436-.363-.213.03-.364.242-.335.473l.268 2.211" id="Fill-8"/><path d="M11.439 47.187l1.746 1.452c.071.059.154.087.237.087.117 0 .232-.057.309-.165.131-.185.099-.449-.071-.591l-1.746-1.452c-.171-.142-.415-.107-.546.078-.131.185-.099.449.072.59" id="Fill-9"/><path d="M19.188 47.787c.071.059.154.087.237.087.117 0 .232-.056.309-.165l1.341-1.889c.131-.184.099-.449-.072-.59-.17-.142-.415-.107-.546.077l-1.341 1.89c-.131.184-.099.449.072.59" id="Fill-10"/><path d="M20.199 49.042c.072.137.203.213.339.213l.192-.055 1.214-.748c.187-.115.252-.373.146-.575-.107-.202-.345-.273-.531-.157l-1.214.748c-.187.115-.252.372-.146.574" id="Fill-11"/><path d="M14.36 47.31c.072.137.203.213.338.213l.193-.055c.187-.115.252-.372.145-.574l-.691-1.313c-.106-.202-.344-.273-.531-.157-.187.115-.252.372-.146.574l.691 1.314" id="Fill-12"/><path d="M17.846 47.065l.103.015c.171 0 .328-.123.375-.31l.369-1.458c.057-.224-.065-.456-.272-.518-.207-.061-.421.071-.478.295l-.369 1.458c-.057.224.065.456.273.518" id="Fill-13"/></g><g fill="#206FAC" sketch:type="MSShapeGroup"><path d="M28.395 136.394h-.29v-7.453c0-.233-.174-.421-.39-.421h-1.076c.222-.4.375-.894.375-1.487 0-1.478-.997-2.316-1.725-2.928-.335-.281-.652-.548-.801-.798l-.138-.187-.144-.116v-.362c.105-.11.17-.264.17-.434 0-.334-.251-.606-.559-.606-.309 0-.559.271-.559.606 0 .17.065.324.17.434v.362l-.019.011c-.114.076-.204.179-.267.297-.15.248-.465.513-.797.792-.728.612-1.726 1.451-1.726 2.928 0 .593.153 1.087.375 1.487h-1.076c-.215 0-.389.189-.389.421v3.974c-.266-.386-.53-.792-.782-1.214v-10.279c0-.233-.174-.421-.389-.421h-1.617c-.097-.181-.254-.32-.442-.384l-.232-.038h-2.359v-.448c0-.233-.174-.421-.389-.421-.215 0-.389.188-.389.421v.448h-2.359l-.231.038c-.188.064-.345.202-.442.384h-1.617c-.215 0-.389.189-.389.421v10.278c-1.367 2.291-3.067 4.102-3.651 4.694h-.452c-.43 0-.778.377-.778.842 0 .466.349.842.778.842h24.607c.43 0 .778-.377.778-.842 0-.465-.349-.842-.778-.842zm-4.579-14.423c.109 0 .199.087.215.2-.062-.044-.136-.071-.215-.071-.08 0-.154.026-.216.071.016-.113.107-.2.216-.2zm-.517 3.464c.174-.146.349-.294.517-.451.167.158.343.305.517.451.699.588 1.124.989 1.124 1.598 0 .598-.361.929-.559 1.066h-2.163c-.198-.137-.559-.468-.559-1.066 0-.609.424-1.01 1.124-1.598zm-14.801 8.29c.183-.271.364-.553.542-.842.459-.748.892-1.552 1.256-2.393.324-.748.593-1.525.779-2.318.174-.744.274-1.502.274-2.261v-3.647h3.94v3.647c0 .759.1 1.517.274 2.261.185.792.455 1.57.778 2.318.364.841.798 1.646 1.256 2.393.178.29.359.571.542.842.468.695.945 1.327 1.389 1.876l.389.471.272.317h-3.961l-1.091-6.632c-.016-.438-.28-.979-.807-1.649-.369-.47-.734-.832-.749-.847-.149-.147-.377-.147-.525 0-.015.015-.38.377-.749.847-.527.671-.791 1.211-.807 1.649l-1.09 6.632h-3.962c.606-.697 1.338-1.608 2.05-2.665zm11.808-4.363h7.02v7.449h-.307v-5.449c-.033-.821-.617-1.465-1.331-1.465-.362 0-.69.166-.93.436-.24-.27-.568-.436-.93-.436-.368 0-.7.172-.942.45-.242-.278-.574-.45-.942-.45-.714 0-1.298.644-1.331 1.465v3.01l-.306-.391v-4.619zm2.969 2.028c.018-.365.259-.65.552-.65.26 0 .478.223.538.527l-.008.096v5.51h-1.082v-5.483zm-.778 5.004v.101l-.1-.101c-.212-.214-.57-.59-1.006-1.09v-3.914c.018-.365.259-.65.553-.65.294 0 .535.285.553.65v5.004zm-11.251-.003l1.022-4.78.01-.094c.014-.198.486-.731 1.041-1.192.555.461 1.027.993 1.04 1.191l.01.095 1.022 4.78h-4.145zm2.297-6.933c-.135-.102-.314-.102-.448 0-.218.166-.566.449-.882.779l.059-.362.006-.074c0-.332.502-1.053 1.042-1.644.708.766 1.04 1.418 1.04 1.644l.006.074.06.362c-.316-.33-.665-.613-.882-.779zm12.699 7.416h-1.105v-5.483l.015-.124c.059-.304.278-.527.537-.527.294 0 .535.285.553.65v5.483zm-8.273-6.621c-.661-1.386-1.123-2.877-1.123-4.341v-4.068h1.123v8.41zm-9.298-8.41h1.122v4.068c0 1.464-.461 2.955-1.122 4.341v-8.41z" id="Fill-1"/><path d="M12.88 123.313c-.007-.155-.125-.278-.269-.278-.145 0-.262.123-.269.278v1.039h.538v-1.039" id="Fill-2"/><path d="M13.587 123.313c-.007-.155-.125-.278-.269-.278-.145 0-.263.123-.269.278v1.039h.538v-1.039" id="Fill-3"/><path d="M14.295 123.313c-.007-.155-.125-.278-.269-.278-.145 0-.263.123-.269.278v1.039h.538v-1.039" id="Fill-4"/><path d="M15.002 123.313c-.007-.155-.125-.278-.269-.278-.145 0-.262.123-.269.278v1.039h.538v-1.039" id="Fill-5"/><path d="M12.173 123.313c-.006-.155-.124-.278-.269-.278-.145 0-.263.123-.27.278v1.039h.538v-1.039" id="Fill-6"/><path d="M20.676 120.58c.026.213.193.367.385.367l.051-.003 2.043-.29c.213-.031.363-.242.335-.473-.028-.23-.223-.393-.437-.363l-2.043.29c-.213.031-.363.242-.335.472" id="Fill-7"/><path d="M15.875 116.588c.026.213.193.367.385.367l.051-.003c.213-.03.363-.242.335-.473l-.268-2.211c-.028-.23-.223-.394-.436-.363-.213.03-.364.242-.335.473l.268 2.211" id="Fill-8"/><path d="M11.439 117.187l1.746 1.452c.071.059.154.087.237.087.117 0 .232-.057.309-.165.131-.185.099-.449-.071-.591l-1.746-1.452c-.171-.142-.415-.107-.546.078-.131.185-.099.449.072.59" id="Fill-9"/><path d="M19.188 117.787c.071.059.154.087.237.087.117 0 .232-.056.309-.165l1.341-1.889c.131-.184.099-.449-.072-.59-.17-.142-.415-.107-.546.077l-1.341 1.89c-.131.184-.099.449.072.59" id="Fill-10"/><path d="M20.199 119.042c.072.137.203.213.339.213l.192-.055 1.214-.748c.187-.115.252-.373.146-.575-.107-.202-.345-.273-.531-.157l-1.214.748c-.187.115-.252.372-.146.574" id="Fill-11"/><path d="M14.36 117.31c.072.137.203.213.338.213l.193-.055c.187-.115.252-.372.145-.574l-.691-1.313c-.106-.202-.344-.273-.531-.157-.187.115-.252.372-.146.574l.691 1.314" id="Fill-12"/><path d="M17.846 117.065l.103.015c.171 0 .328-.123.375-.31l.369-1.458c.057-.224-.065-.456-.272-.518-.207-.061-.421.071-.478.295l-.369 1.458c-.057.224.065.456.273.518" id="Fill-13"/></g><g fill="#fff" sketch:type="MSShapeGroup"><path d="M28.395 102.394h-.29v-7.453c0-.233-.174-.421-.39-.421h-1.076c.222-.4.375-.894.375-1.487 0-1.478-.997-2.316-1.725-2.928-.335-.281-.652-.548-.801-.798l-.138-.187-.144-.116v-.362c.105-.11.17-.264.17-.434 0-.334-.251-.606-.559-.606-.309 0-.559.271-.559.606 0 .17.065.324.17.434v.362l-.019.011c-.114.076-.204.179-.267.297-.15.248-.465.513-.797.792-.728.612-1.726 1.451-1.726 2.928 0 .593.153 1.087.375 1.487h-1.076c-.215 0-.389.189-.389.421v3.974c-.266-.386-.53-.792-.782-1.214v-10.279c0-.233-.174-.421-.389-.421h-1.617c-.097-.181-.254-.32-.442-.384l-.232-.038h-2.359v-.448c0-.233-.174-.421-.389-.421-.215 0-.389.188-.389.421v.448h-2.359l-.231.038c-.188.064-.345.202-.442.384h-1.617c-.215 0-.389.189-.389.421v10.278c-1.367 2.291-3.067 4.102-3.651 4.694h-.452c-.43 0-.778.377-.778.842 0 .466.349.842.778.842h24.607c.43 0 .778-.377.778-.842 0-.465-.349-.842-.778-.842zm-4.579-14.423c.109 0 .199.087.215.2-.062-.044-.136-.071-.215-.071-.08 0-.154.026-.216.071.016-.113.107-.2.216-.2zm-.517 3.464c.174-.146.349-.294.517-.451.167.158.343.305.517.451.699.588 1.124.989 1.124 1.598 0 .598-.361.929-.559 1.066h-2.163c-.198-.137-.559-.468-.559-1.066 0-.609.424-1.01 1.124-1.598zm-14.801 8.29c.183-.271.364-.553.542-.842.459-.748.892-1.552 1.256-2.393.324-.748.593-1.525.779-2.318.174-.744.274-1.502.274-2.261v-3.647h3.94v3.647c0 .759.1 1.517.274 2.261.185.792.455 1.57.778 2.318.364.841.798 1.646 1.256 2.393.178.29.359.571.542.842.468.695.945 1.327 1.389 1.876l.389.471.272.317h-3.961l-1.091-6.632c-.016-.438-.28-.979-.807-1.649-.369-.47-.734-.832-.749-.847-.149-.147-.377-.147-.525 0-.015.015-.38.377-.749.847-.527.671-.791 1.211-.807 1.649l-1.09 6.632h-3.962c.606-.697 1.338-1.608 2.05-2.665zm11.808-4.363h7.02v7.449h-.307v-5.449c-.033-.821-.617-1.465-1.331-1.465-.362 0-.69.166-.93.436-.24-.27-.568-.436-.93-.436-.368 0-.7.172-.942.45-.242-.278-.574-.45-.942-.45-.714 0-1.298.644-1.331 1.465v3.01l-.306-.391v-4.619zm2.969 2.028c.018-.365.259-.65.552-.65.26 0 .478.223.538.527l-.008.096v5.51h-1.082v-5.483zm-.778 5.004v.101l-.1-.101c-.212-.214-.57-.59-1.006-1.09v-3.914c.018-.365.259-.65.553-.65.294 0 .535.285.553.65v5.004zm-11.251-.003l1.022-4.78.01-.094c.014-.198.486-.731 1.041-1.192.555.461 1.027.993 1.04 1.191l.01.095 1.022 4.78h-4.145zm2.297-6.933c-.135-.102-.314-.102-.448 0-.218.166-.566.449-.882.779l.059-.362.006-.074c0-.332.502-1.053 1.042-1.644.708.766 1.04 1.418 1.04 1.644l.006.074.06.362c-.316-.33-.665-.613-.882-.779zm12.699 7.416h-1.105v-5.483l.015-.124c.059-.304.278-.527.537-.527.294 0 .535.285.553.65v5.483zm-8.273-6.621c-.661-1.386-1.123-2.877-1.123-4.341v-4.068h1.123v8.41zm-9.298-8.41h1.122v4.068c0 1.464-.461 2.955-1.122 4.341v-8.41z"/><path d="M12.88 89.313c-.007-.155-.125-.278-.269-.278-.145 0-.262.123-.269.278v1.039h.538v-1.039"/><path d="M13.587 89.313c-.007-.155-.125-.278-.269-.278-.145 0-.263.123-.269.278v1.039h.538v-1.039"/><path d="M14.295 89.313c-.007-.155-.125-.278-.269-.278-.145 0-.263.123-.269.278v1.039h.538v-1.039"/><path d="M15.002 89.313c-.007-.155-.125-.278-.269-.278-.145 0-.262.123-.269.278v1.039h.538v-1.039"/><path d="M12.173 89.313c-.006-.155-.124-.278-.269-.278-.145 0-.263.123-.27.278v1.039h.538v-1.039"/><path d="M20.676 86.58c.026.213.193.367.385.367l.051-.003 2.043-.29c.213-.031.363-.242.335-.473-.028-.23-.223-.393-.437-.363l-2.043.29c-.213.031-.363.242-.335.472"/><path d="M15.875 82.588c.026.213.193.367.385.367l.051-.003c.213-.03.363-.242.335-.473l-.268-2.211c-.028-.23-.223-.394-.436-.363-.213.03-.364.242-.335.473l.268 2.211"/><path d="M11.439 83.187l1.746 1.452c.071.059.154.087.237.087.117 0 .232-.057.309-.165.131-.185.099-.449-.071-.591l-1.746-1.452c-.171-.142-.415-.107-.546.078-.131.185-.099.449.072.59"/><path d="M19.188 83.787c.071.059.154.087.237.087.117 0 .232-.056.309-.165l1.341-1.889c.131-.184.099-.449-.072-.59-.17-.142-.415-.107-.546.077l-1.341 1.89c-.131.184-.099.449.072.59"/><path d="M20.199 85.042c.072.137.203.213.339.213l.192-.055 1.214-.748c.187-.115.252-.373.146-.575-.107-.202-.345-.273-.531-.157l-1.214.748c-.187.115-.252.372-.146.574"/><path d="M14.36 83.31c.072.137.203.213.338.213l.193-.055c.187-.115.252-.372.145-.574l-.691-1.313c-.106-.202-.344-.273-.531-.157-.187.115-.252.372-.146.574l.691 1.314"/><path d="M17.846 83.065l.103.015c.171 0 .328-.123.375-.31l.369-1.458c.057-.224-.065-.456-.272-.518-.207-.061-.421.071-.478.295l-.369 1.458c-.057.224.065.456.273.518"/></g></g></g></svg>