<svg width="32" height="232" viewBox="0 0 32 232" xmlns="http://www.w3.org/2000/svg" xmlns:sketch="http://www.bohemiancoding.com/sketch/ns"><title>Jeruselum-Hills</title><g sketch:type="MSLayerGroup" fill="none"><g fill="#fff" sketch:type="MSShapeGroup"><path d="M7.164 10.093h3.073c.224 0 .44-.085.608-.24.199-.182.313-.444.313-.72l-.004-.083h5.25c.257 0 .506-.098.7-.276.228-.21.359-.511.359-.827 0-.316-.131-.618-.359-.827-.194-.178-.442-.276-.7-.276h-8.114c-.584 0-1.059.495-1.059 1.103l.023.227h-.088c-.508 0-.921.43-.921.959 0 .529.413.959.921.959zm0-1.043h1.126c.232 0 .42-.196.42-.438h-.002c0-.242-.188-.438-.42-.438-.12 0-.218-.102-.218-.227s.098-.227.218-.227h8.114l.144.058c.028.025.074.081.074.17 0 .089-.047.145-.075.17l-.144.057h-6.168c-.232 0-.42.196-.42.438s.188.438.42.438h.002l.053.022.027.062-.027.062-.052.021h-3.073c-.044 0-.08-.037-.08-.083 0-.046.036-.083.08-.083z" id="Fill-1"/><path d="M19.051 7.007c.194.178.442.276.7.276h4.325c.584 0 1.059-.495 1.059-1.103l-.023-.227h.088c.508 0 .921-.43.921-.959 0-.529-.413-.959-.921-.959h-3.073c-.223 0-.44.085-.608.24-.199.182-.313.444-.313.719l.004.083h-1.46c-.257 0-.505.098-.7.276-.228.21-.359.511-.359.827 0 .316.131.618.359.827zm.556-.997l.144-.058h2.378c.232 0 .42-.196.42-.438s-.188-.438-.42-.438h-.002l-.052-.021-.027-.062.027-.062.052-.021h3.073c.044 0 .08.037.08.083 0 .046-.036.083-.08.083h-1.126c-.232 0-.42.196-.42.438h.002c0 .242.188.438.42.438.12 0 .218.102.218.227s-.098.227-.218.227h-4.325l-.144-.057c-.028-.026-.074-.082-.074-.17 0-.088.047-.145.074-.17z" id="Fill-2"/><path d="M29.188 21.389h-1.367l-.031.001c-2.587.099-4.082.217-4.442.351-.45.167-1.54.747-1.755.862l-.069.043-1.026-.349-.07-.017-2.722-.411-.91-.168-.099-.006-1.827.117.382-.595 2.301-.569 2.353-.36h7.828c.232 0 .42-.196.42-.438v-2.445h.671c.232 0 .42-.196.42-.438s-.188-.438-.42-.438h-.671v-1.421c0-.242-.188-.438-.42-.438h-2.874v-.223h2.344c.232 0 .42-.196.42-.438s-.188-.438-.42-.438h-2.344v-1.087c0-.242-.188-.438-.42-.438h-3.087c-.232 0-.42.196-.42.438v.698h-.48v-1.285c0-.242-.188-.438-.421-.438h-2.042c-.232 0-.42.196-.42.438v1.035h-.573c-.232 0-.42.196-.42.438v1.022l-1.652.301-.062.016-2.137.751-.164.109-.127-.093c-.071-.052-.155-.08-.242-.08h-1.402v-1.847c0-.242-.188-.438-.42-.438h-2.609c-.232 0-.42.196-.42.438v.506h-.595v-.048c0-.242-.188-.438-.42-.438h-1.682c-.232 0-.42.196-.42.438v1.043h-.208c-.232 0-.42.196-.42.438s.188.438.42.438h.208v.558c0 .242.188.438.42.438h2.698v.043c0 .242.188.438.42.438h2.609c.232 0 .42-.196.42-.438v-.693h1.268l1.435 1.052.13.064 1.678.481-2.891.65-3.44-.376-.126.006-3.703.766c-.228.047-.376.278-.33.515.04.208.215.353.412.353l.082-.009 3.641-.753 3.443.376.133-.007 3.008-.676 2.035-.452h1.889v1.209l-2.042.313-.036.007-2.479.613c-.103.026-.193.091-.252.183l-.753 1.172-1.361-.126-.73-.303-.198-.029-2.396.252h-2.509l-1.074-.186-.84-.192-.176-.001-1.78.389c-.227.05-.373.282-.325.518.048.237.27.388.498.339l1.691-.369.762.174.021.004 1.119.194.069.006h2.565l.042-.002 2.315-.244.691.287.118.029 2.19.203.063.001 2.05-.131.867.16.013.002 2.693.407.527.179-.52.497h-2.981l-1.771-.04h-1.727c-.128 0-.255.031-.37.09l-1.962 1.003h-4.61c-.14 0-.278.037-.401.106l-1.984 1.123-1.716.132c-.463.036-.811.456-.777.938.033.46.402.811.838.811l.063-.002 1.896-.146c.119-.009.235-.044.339-.104l1.956-1.107h4.592c.128 0 .255-.031.371-.09l1.962-1.003h1.505l1.771.04h3.336c.211 0 .413-.082.568-.231l1.288-1.231c.456-.242 1.16-.602 1.429-.708.365-.08 2.312-.196 3.945-.258h1.352c.464 0 .841-.392.841-.876s-.376-.876-.841-.876zm-19.242-5.118v.255h-1.768v-2.54h1.768v2.285zm-4.886-1.827h.841v1.601h-.841v-1.601zm1.682.486h.595v1.115h-.595v-1.115zm13.912-.875h.483v1.359h-.483v-1.359zm3.365-.488v1.099h-.889c-.232 0-.42.196-.42.438v.066h-.731v-1.554c0-.16-.083-.299-.206-.375v-.324h2.246v.649zm3.295 2.958v2.883h-1.954v-2.446c0-.15-.072-.281-.182-.36-.068-.049-.15-.078-.238-.078h-1.389v-.983h3.764v.983zm-8.905-4.194h1.201v2.57h-.543v-1.535c0-.242-.188-.438-.421-.438h-.238v-.597zm-.994 1.473h.811v1.097h-.811v-1.097zm2.88 3.596h4.224v2.008h-4.224v-2.008zm-2.774-.017l-.088.01-.436.097-.163-.093-2.918-.836-.552-.404 1.735-.609 1.476-.269v.061c0 .242.188.438.42.438h2.818v.074c0 .242.188.438.421.438h1.324c.165 0 .305-.099.374-.243h.777v.479h-2.834c-.232 0-.42.196-.42.438v.421h-1.934z" id="Fill-3"/></g><g fill="#373D43" sketch:type="MSShapeGroup"><path d="M7.164 50.093h3.073c.224 0 .44-.085.608-.24.199-.182.313-.444.313-.72l-.004-.083h5.25c.257 0 .506-.098.7-.276.228-.21.359-.511.359-.827 0-.316-.131-.618-.359-.827-.194-.178-.442-.276-.7-.276h-8.114c-.584 0-1.059.495-1.059 1.103l.023.227h-.088c-.508 0-.921.43-.921.959 0 .529.413.959.921.959zm0-1.043h1.126c.232 0 .42-.196.42-.438h-.002c0-.242-.188-.438-.42-.438-.12 0-.218-.102-.218-.227s.098-.227.218-.227h8.114l.144.058c.028.025.074.081.074.17 0 .089-.047.145-.075.17l-.144.057h-6.168c-.232 0-.42.196-.42.438s.188.438.42.438h.002l.053.022.027.062-.027.062-.052.021h-3.073c-.044 0-.08-.037-.08-.083 0-.046.036-.083.08-.083z" id="Fill-1"/><path d="M19.051 47.007c.194.178.442.276.7.276h4.325c.584 0 1.059-.495 1.059-1.103l-.023-.227h.088c.508 0 .921-.43.921-.959 0-.529-.413-.959-.921-.959h-3.073c-.223 0-.44.085-.608.24-.199.182-.313.444-.313.719l.004.083h-1.46c-.257 0-.505.098-.7.276-.228.21-.359.511-.359.827 0 .316.131.618.359.827zm.556-.997l.144-.058h2.378c.232 0 .42-.196.42-.438s-.188-.438-.42-.438h-.002l-.052-.021-.027-.062.027-.062.052-.021h3.073c.044 0 .08.037.08.083 0 .046-.036.083-.08.083h-1.126c-.232 0-.42.196-.42.438h.002c0 .242.188.438.42.438.12 0 .218.102.218.227s-.098.227-.218.227h-4.325l-.144-.057c-.028-.026-.074-.082-.074-.17 0-.088.047-.145.074-.17z" id="Fill-2"/><path d="M29.188 61.389h-1.367l-.031.001c-2.587.099-4.082.217-4.442.351-.45.167-1.54.747-1.755.862l-.069.043-1.026-.349-.07-.017-2.722-.411-.91-.168-.099-.006-1.827.117.382-.595 2.301-.569 2.353-.36h7.828c.232 0 .42-.196.42-.438v-2.445h.671c.232 0 .42-.196.42-.438s-.188-.438-.42-.438h-.671v-1.421c0-.242-.188-.438-.42-.438h-2.874v-.223h2.344c.232 0 .42-.196.42-.438s-.188-.438-.42-.438h-2.344v-1.087c0-.242-.188-.438-.42-.438h-3.087c-.232 0-.42.196-.42.438v.698h-.48v-1.285c0-.242-.188-.438-.421-.438h-2.042c-.232 0-.42.196-.42.438v1.035h-.573c-.232 0-.42.196-.42.438v1.022l-1.652.301-.062.016-2.137.751-.164.109-.127-.093c-.071-.052-.155-.08-.242-.08h-1.402v-1.847c0-.242-.188-.438-.42-.438h-2.609c-.232 0-.42.196-.42.438v.506h-.595v-.048c0-.242-.188-.438-.42-.438h-1.682c-.232 0-.42.196-.42.438v1.043h-.208c-.232 0-.42.196-.42.438s.188.438.42.438h.208v.558c0 .242.188.438.42.438h2.698v.043c0 .242.188.438.42.438h2.609c.232 0 .42-.196.42-.438v-.693h1.268l1.435 1.052.13.064 1.678.481-2.891.65-3.44-.376-.126.006-3.703.766c-.228.047-.376.278-.33.515.04.208.215.353.412.353l.082-.009 3.641-.753 3.443.376.133-.007 3.008-.676 2.035-.452h1.889v1.209l-2.042.313-.036.007-2.479.613c-.103.026-.193.091-.252.183l-.753 1.172-1.361-.126-.73-.303-.198-.029-2.396.252h-2.509l-1.074-.186-.84-.192-.176-.001-1.78.389c-.227.05-.373.282-.325.518.048.237.27.388.498.339l1.691-.369.762.174.021.004 1.119.194.069.006h2.565l.042-.002 2.315-.244.691.287.118.029 2.19.203.063.001 2.05-.131.867.16.013.002 2.693.407.527.179-.52.497h-2.981l-1.771-.04h-1.727c-.128 0-.255.031-.37.09l-1.962 1.003h-4.61c-.14 0-.278.037-.401.106l-1.984 1.123-1.716.132c-.463.036-.811.456-.777.938.033.46.402.811.838.811l.063-.002 1.896-.146c.119-.009.235-.044.339-.104l1.956-1.107h4.592c.128 0 .255-.031.371-.09l1.962-1.003h1.505l1.771.04h3.336c.211 0 .413-.082.568-.231l1.288-1.231c.456-.242 1.16-.602 1.429-.708.365-.08 2.312-.196 3.945-.258h1.352c.464 0 .841-.392.841-.876s-.376-.876-.841-.876zm-19.242-5.118v.255h-1.768v-2.54h1.768v2.285zm-4.886-1.827h.841v1.601h-.841v-1.601zm1.682.486h.595v1.115h-.595v-1.115zm13.912-.875h.483v1.359h-.483v-1.359zm3.365-.488v1.099h-.889c-.232 0-.42.196-.42.438v.066h-.731v-1.554c0-.16-.083-.299-.206-.375v-.324h2.246v.649zm3.295 2.958v2.883h-1.954v-2.446c0-.15-.072-.281-.182-.36-.068-.049-.15-.078-.238-.078h-1.389v-.983h3.764v.983zm-8.905-4.194h1.201v2.57h-.543v-1.535c0-.242-.188-.438-.421-.438h-.238v-.597zm-.994 1.473h.811v1.097h-.811v-1.097zm2.88 3.596h4.224v2.008h-4.224v-2.008zm-2.774-.017l-.088.01-.436.097-.163-.093-2.918-.836-.552-.404 1.735-.609 1.476-.269v.061c0 .242.188.438.42.438h2.818v.074c0 .242.188.438.421.438h1.324c.165 0 .305-.099.374-.243h.777v.479h-2.834c-.232 0-.42.196-.42.438v.421h-1.934z" id="Fill-3"/></g><g fill="#67737B" sketch:type="MSShapeGroup"><path d="M7.164 90.093h3.073c.224 0 .44-.085.608-.24.199-.182.313-.444.313-.72l-.004-.083h5.25c.257 0 .506-.098.7-.276.228-.21.359-.511.359-.827 0-.316-.131-.618-.359-.827-.194-.178-.442-.276-.7-.276h-8.114c-.584 0-1.059.495-1.059 1.103l.023.227h-.088c-.508 0-.921.43-.921.959 0 .529.413.959.921.959zm0-1.043h1.126c.232 0 .42-.196.42-.438h-.002c0-.242-.188-.438-.42-.438-.12 0-.218-.102-.218-.227s.098-.227.218-.227h8.114l.144.058c.028.025.074.081.074.17 0 .089-.047.145-.075.17l-.144.057h-6.168c-.232 0-.42.196-.42.438s.188.438.42.438h.002l.053.022.027.062-.027.062-.052.021h-3.073c-.044 0-.08-.037-.08-.083 0-.046.036-.083.08-.083z"/><path d="M19.051 87.007c.194.178.442.276.7.276h4.325c.584 0 1.059-.495 1.059-1.103l-.023-.227h.088c.508 0 .921-.43.921-.959 0-.529-.413-.959-.921-.959h-3.073c-.223 0-.44.085-.608.24-.199.182-.313.444-.313.719l.004.083h-1.46c-.257 0-.505.098-.7.276-.228.21-.359.511-.359.827 0 .316.131.618.359.827zm.556-.997l.144-.058h2.378c.232 0 .42-.196.42-.438s-.188-.438-.42-.438h-.002l-.052-.021-.027-.062.027-.062.052-.021h3.073c.044 0 .08.037.08.083 0 .046-.036.083-.08.083h-1.126c-.232 0-.42.196-.42.438h.002c0 .242.188.438.42.438.12 0 .218.102.218.227s-.098.227-.218.227h-4.325l-.144-.057c-.028-.026-.074-.082-.074-.17 0-.088.047-.145.074-.17z"/><path d="M29.188 101.389h-1.367l-.031.001c-2.587.099-4.082.217-4.442.351-.45.167-1.54.747-1.755.862l-.069.043-1.026-.349-.07-.017-2.722-.411-.91-.168-.099-.006-1.827.117.382-.595 2.301-.569 2.353-.36h7.828c.232 0 .42-.196.42-.438v-2.445h.671c.232 0 .42-.196.42-.438s-.188-.438-.42-.438h-.671v-1.421c0-.242-.188-.438-.42-.438h-2.874v-.223h2.344c.232 0 .42-.196.42-.438s-.188-.438-.42-.438h-2.344v-1.087c0-.242-.188-.438-.42-.438h-3.087c-.232 0-.42.196-.42.438v.698h-.48v-1.285c0-.242-.188-.438-.421-.438h-2.042c-.232 0-.42.196-.42.438v1.035h-.573c-.232 0-.42.196-.42.438v1.022l-1.652.301-.062.016-2.137.751-.164.109-.127-.093c-.071-.052-.155-.08-.242-.08h-1.402v-1.847c0-.242-.188-.438-.42-.438h-2.609c-.232 0-.42.196-.42.438v.506h-.595v-.048c0-.242-.188-.438-.42-.438h-1.682c-.232 0-.42.196-.42.438v1.043h-.208c-.232 0-.42.196-.42.438s.188.438.42.438h.208v.558c0 .242.188.438.42.438h2.698v.043c0 .242.188.438.42.438h2.609c.232 0 .42-.196.42-.438v-.693h1.268l1.435 1.052.13.064 1.678.481-2.891.65-3.44-.376-.126.006-3.703.766c-.228.047-.376.278-.33.515.04.208.215.353.412.353l.082-.009 3.641-.753 3.443.376.133-.007 3.008-.676 2.035-.452h1.889v1.209l-2.042.313-.036.007-2.479.613c-.103.026-.193.091-.252.183l-.753 1.172-1.361-.126-.73-.303-.198-.029-2.396.252h-2.509l-1.074-.186-.84-.192-.176-.001-1.78.389c-.227.05-.373.282-.325.518.048.237.27.388.498.339l1.691-.369.762.174.021.004 1.119.194.069.006h2.565l.042-.002 2.315-.244.691.287.118.029 2.19.203.063.001 2.05-.131.867.16.013.002 2.693.407.527.179-.52.497h-2.981l-1.771-.04h-1.727c-.128 0-.255.031-.37.09l-1.962 1.003h-4.61c-.14 0-.278.037-.401.106l-1.984 1.123-1.716.132c-.463.036-.811.456-.777.938.033.46.402.811.838.811l.063-.002 1.896-.146c.119-.009.235-.044.339-.104l1.956-1.107h4.592c.128 0 .255-.031.371-.09l1.962-1.003h1.505l1.771.04h3.336c.211 0 .413-.082.568-.231l1.288-1.231c.456-.242 1.16-.602 1.429-.708.365-.08 2.312-.196 3.945-.258h1.352c.464 0 .841-.392.841-.876s-.376-.876-.841-.876zm-19.242-5.118v.255h-1.768v-2.54h1.768v2.285zm-4.886-1.827h.841v1.601h-.841v-1.601zm1.682.486h.595v1.115h-.595v-1.115zm13.912-.875h.483v1.359h-.483v-1.359zm3.365-.488v1.099h-.889c-.232 0-.42.196-.42.438v.066h-.731v-1.554c0-.16-.083-.299-.206-.375v-.324h2.246v.649zm3.295 2.958v2.883h-1.954v-2.446c0-.15-.072-.281-.182-.36-.068-.049-.15-.078-.238-.078h-1.389v-.983h3.764v.983zm-8.905-4.194h1.201v2.57h-.543v-1.535c0-.242-.188-.438-.421-.438h-.238v-.597zm-.994 1.473h.811v1.097h-.811v-1.097zm2.88 3.596h4.224v2.008h-4.224v-2.008zm-2.774-.017l-.088.01-.436.097-.163-.093-2.918-.836-.552-.404 1.735-.609 1.476-.269v.061c0 .242.188.438.42.438h2.818v.074c0 .242.188.438.421.438h1.324c.165 0 .305-.099.374-.243h.777v.479h-2.834c-.232 0-.42.196-.42.438v.421h-1.934z"/></g><g fill="#206FAC" sketch:type="MSShapeGroup"><path d="M7.164 130.093h3.073c.224 0 .44-.085.608-.24.199-.182.313-.444.313-.72l-.004-.083h5.25c.257 0 .506-.098.7-.276.228-.21.359-.511.359-.827 0-.316-.131-.618-.359-.827-.194-.178-.442-.276-.7-.276h-8.114c-.584 0-1.059.495-1.059 1.103l.023.227h-.088c-.508 0-.921.43-.921.959 0 .529.413.959.921.959zm0-1.043h1.126c.232 0 .42-.196.42-.438h-.002c0-.242-.188-.438-.42-.438-.12 0-.218-.102-.218-.227s.098-.227.218-.227h8.114l.144.058c.028.025.074.081.074.17 0 .089-.047.145-.075.17l-.144.057h-6.168c-.232 0-.42.196-.42.438s.188.438.42.438h.002l.053.022.027.062-.027.062-.052.021h-3.073c-.044 0-.08-.037-.08-.083 0-.046.036-.083.08-.083zM19.051 127.007c.194.178.442.276.7.276h4.325c.584 0 1.059-.495 1.059-1.103l-.023-.227h.088c.508 0 .921-.43.921-.959 0-.529-.413-.959-.921-.959h-3.073c-.223 0-.44.085-.608.24-.199.182-.313.444-.313.719l.004.083h-1.46c-.257 0-.505.098-.7.276-.228.21-.359.511-.359.827 0 .316.131.618.359.827zm.556-.997l.144-.058h2.378c.232 0 .42-.196.42-.438s-.188-.438-.42-.438h-.002l-.052-.021-.027-.062.027-.062.052-.021h3.073c.044 0 .08.037.08.083 0 .046-.036.083-.08.083h-1.126c-.232 0-.42.196-.42.438h.002c0 .242.188.438.42.438.12 0 .218.102.218.227s-.098.227-.218.227h-4.325l-.144-.057c-.028-.026-.074-.082-.074-.17 0-.088.047-.145.074-.17zM29.188 141.389h-1.367l-.031.001c-2.587.099-4.082.217-4.442.351-.45.167-1.54.747-1.755.862l-.069.043-1.026-.349-.07-.017-2.722-.411-.91-.168-.099-.006-1.827.117.382-.595 2.301-.569 2.353-.36h7.828c.232 0 .42-.196.42-.438v-2.445h.671c.232 0 .42-.196.42-.438s-.188-.438-.42-.438h-.671v-1.421c0-.242-.188-.438-.42-.438h-2.874v-.223h2.344c.232 0 .42-.196.42-.438s-.188-.438-.42-.438h-2.344v-1.087c0-.242-.188-.438-.42-.438h-3.087c-.232 0-.42.196-.42.438v.698h-.48v-1.285c0-.242-.188-.438-.421-.438h-2.042c-.232 0-.42.196-.42.438v1.035h-.573c-.232 0-.42.196-.42.438v1.022l-1.652.301-.062.016-2.137.751-.164.109-.127-.093c-.071-.052-.155-.08-.242-.08h-1.402v-1.847c0-.242-.188-.438-.42-.438h-2.609c-.232 0-.42.196-.42.438v.506h-.595v-.048c0-.242-.188-.438-.42-.438h-1.682c-.232 0-.42.196-.42.438v1.043h-.208c-.232 0-.42.196-.42.438s.188.438.42.438h.208v.558c0 .242.188.438.42.438h2.698v.043c0 .242.188.438.42.438h2.609c.232 0 .42-.196.42-.438v-.693h1.268l1.435 1.052.13.064 1.678.481-2.891.65-3.44-.376-.126.006-3.703.766c-.228.047-.376.278-.33.515.04.208.215.353.412.353l.082-.009 3.641-.753 3.443.376.133-.007 3.008-.676 2.035-.452h1.889v1.209l-2.042.313-.036.007-2.479.613c-.103.026-.193.091-.252.183l-.753 1.172-1.361-.126-.73-.303-.198-.029-2.396.252h-2.509l-1.074-.186-.84-.192-.176-.001-1.78.389c-.227.05-.373.282-.325.518.048.237.27.388.498.339l1.691-.369.762.174.021.004 1.119.194.069.006h2.565l.042-.002 2.315-.244.691.287.118.029 2.19.203.063.001 2.05-.131.867.16.013.002 2.693.407.527.179-.52.497h-2.981l-1.771-.04h-1.727c-.128 0-.255.031-.37.09l-1.962 1.003h-4.61c-.14 0-.278.037-.401.106l-1.984 1.123-1.716.132c-.463.036-.811.456-.777.938.033.46.402.811.838.811l.063-.002 1.896-.146c.119-.009.235-.044.339-.104l1.956-1.107h4.592c.128 0 .255-.031.371-.09l1.962-1.003h1.505l1.771.04h3.336c.211 0 .413-.082.568-.231l1.288-1.231c.456-.242 1.16-.602 1.429-.708.365-.08 2.312-.196 3.945-.258h1.352c.464 0 .841-.392.841-.876s-.376-.876-.841-.876zm-19.242-5.118v.255h-1.768v-2.54h1.768v2.285zm-4.886-1.827h.841v1.601h-.841v-1.601zm1.682.486h.595v1.115h-.595v-1.115zm13.912-.875h.483v1.359h-.483v-1.359zm3.365-.488v1.099h-.889c-.232 0-.42.196-.42.438v.066h-.731v-1.554c0-.16-.083-.299-.206-.375v-.324h2.246v.649zm3.295 2.958v2.883h-1.954v-2.446c0-.15-.072-.281-.182-.36-.068-.049-.15-.078-.238-.078h-1.389v-.983h3.764v.983zm-8.905-4.194h1.201v2.57h-.543v-1.535c0-.242-.188-.438-.421-.438h-.238v-.597zm-.994 1.473h.811v1.097h-.811v-1.097zm2.88 3.596h4.224v2.008h-4.224v-2.008zm-2.774-.017l-.088.01-.436.097-.163-.093-2.918-.836-.552-.404 1.735-.609 1.476-.269v.061c0 .242.188.438.42.438h2.818v.074c0 .242.188.438.421.438h1.324c.165 0 .305-.099.374-.243h.777v.479h-2.834c-.232 0-.42.196-.42.438v.421h-1.934z"/></g></g></svg>