<svg width="32" height="232" viewBox="0 0 32 232" xmlns="http://www.w3.org/2000/svg" xmlns:sketch="http://www.bohemiancoding.com/sketch/ns"><title>Rome</title><g sketch:type="MSPage" fill="none"><g sketch:type="MSLayerGroup"><g fill="#373D43" sketch:type="MSShapeGroup"><path d="M7.166 5.446h.065l-.018.197c0 .573.444 1.04.99 1.04h4.54c.241 0 .474-.092.655-.26.213-.197.336-.481.336-.78 0-.298-.123-.582-.336-.779-.181-.168-.414-.26-.655-.26h-1.881l.003-.063c0-.26-.107-.507-.292-.679-.158-.146-.361-.228-.571-.228h-2.836c-.476 0-.863.407-.863.906 0 .499.387.906.863.906zm0-.97h2.836l.039.017.021.047-.022.048-.038.016h-.002c-.222 0-.402.189-.402.421 0 .233.18.421.402.421h2.742l.124.05c.024.022.065.071.065.147 0 .077-.041.125-.065.148l-.124.05h-4.54c-.103 0-.188-.089-.188-.197 0-.108.084-.197.188-.197.222 0 .401-.189.401-.421h.002c0-.233-.18-.421-.402-.421h-1.039l-.061-.063.061-.064z" id="Fill-1"/><path d="M6.726 20.82h1.522c.222 0 .401-.188.401-.421v-2.614c0-.672-.521-1.219-1.162-1.219-.641 0-1.162.547-1.162 1.219v2.614c0 .233.18.421.401.421zm.402-3.035c0-.208.161-.377.359-.377.198 0 .36.169.36.377v2.193h-.719v-2.193z" id="Fill-2"/><path d="M10.018 20.82h1.522c.222 0 .401-.188.401-.421v-2.614c0-.672-.521-1.219-1.162-1.219-.641 0-1.163.547-1.163 1.219v2.614c0 .233.179.421.401.421zm.402-3.035c0-.208.161-.377.359-.377.198 0 .359.169.359.377v2.193h-.719v-2.193z" id="Fill-3"/><path d="M13.31 20.82h1.521c.222 0 .401-.188.401-.421v-2.614c0-.672-.521-1.219-1.162-1.219-.641 0-1.162.547-1.162 1.219v2.614c0 .233.179.421.401.421zm.401-3.035c0-.208.161-.377.359-.377.198 0 .359.169.359.377v2.193h-.719v-2.193z" id="Fill-4"/><path d="M26.059 17.616c-.512 0-.928.437-.928.974v1.809c0 .233.18.421.401.421h1.053c.222 0 .401-.189.401-.421v-1.809c0-.537-.416-.974-.928-.974zm.125 2.361h-.25v-1.387c0-.072.056-.131.125-.131s.125.059.125.131v1.387z" id="Fill-5"/><path d="M6.726 15.914h1.522c.222 0 .401-.189.401-.422v-2.614c0-.672-.521-1.219-1.162-1.219-.641 0-1.162.547-1.162 1.219v2.614c0 .233.18.422.401.422zm.402-3.036c0-.208.161-.377.359-.377.198 0 .36.169.36.377v2.193h-.719v-2.193z" id="Fill-6"/><path d="M10.018 15.914h1.522c.222 0 .401-.189.401-.422v-2.614c0-.672-.521-1.219-1.162-1.219-.641 0-1.163.547-1.163 1.219v2.614c0 .233.179.422.401.422zm.402-3.036c0-.208.161-.377.359-.377.198 0 .359.169.359.377v2.193h-.719v-2.193z" id="Fill-7"/><path d="M15.625 12.184c.222 0 .401-.188.401-.421v-1.718h3.342v1.347h-1.264c-.222 0-.402.188-.402.421v1.853c0 .233.18.421.402.421.222 0 .401-.189.401-.421v-1.432h2.713c.149 0 .278-.086.347-.214.053-.072.086-.16.086-.257v-2.408h4.679v4.543c0 .233.18.421.401.421h1.987c.222 0 .401-.189.401-.421 0-.233-.18-.422-.401-.422h-1.585v-4.542c0-2.201-2.09-3.973-2.727-4.462v-.386l.08-.046c.129-.074.209-.216.209-.37s-.08-.296-.209-.369l-.084-.048-.046-.088c-.07-.135-.205-.219-.352-.219s-.282.084-.352.219l-.046.088-.084.048c-.129.073-.209.215-.209.369s.08.296.209.37l.08.046v.386c-.621.477-2.62 2.173-2.722 4.296l-.032.167v2.458h-.678v-1.768c0-1.665-1.527-3.007-2.062-3.426v-.179l.009-.005c.129-.074.209-.216.209-.369 0-.154-.08-.296-.208-.37l-.039-.022-.021-.04c-.07-.136-.205-.219-.352-.219s-.282.084-.352.219l-.021.039-.039.022c-.129.074-.209.216-.209.37s.08.295.209.369l.009.006v.179c-.52.407-1.974 1.685-2.057 3.283l-.025.142v2.139c0 .233.179.421.401.421zm7.525-3.672c.086-1.26.535-2.358.855-2.995.32.636.768 1.732.855 2.995h-1.71zm3.147 0h-.632c-.045-.768-.209-1.477-.407-2.08.478.58.918 1.301 1.039 2.08zm-3.547-2.076c-.198.602-.36 1.31-.406 2.076h-.632c.122-.777.56-1.496 1.038-2.076zm-5.582 2.766c.071-.78.325-1.47.54-1.934.215.464.468 1.154.54 1.934h-1.08zm2.154 0h-.268c-.026-.341-.082-.666-.155-.968.192.297.349.624.423.968zm-2.806-.968c-.073.302-.129.627-.155.968h-.269c.074-.344.231-.671.423-.968z" id="Fill-8"/><path d="M29.411 24.867h-.809v-6.432l.226-1.534c.018-.122-.016-.245-.091-.339-.077-.094-.188-.147-.305-.147h-10.519l-.252-1.444c-.07-.398-.4-.688-.786-.69l-1.887-.01-.738-4.269c-.069-.401-.401-.693-.79-.693h-8.964c-.234 0-.457.108-.609.294-.153.187-.22.434-.184.677l.222 1.502v13.083h-.139c-.443 0-.803.377-.803.842 0 .466.36.842.803.842h25.625c.444 0 .803-.377.803-.842 0-.465-.359-.842-.803-.842zm-16.621-13.872l.737 4.266c.069.399.399.69.786.692l1.889.01.736 4.201c.069.4.402.69.79.69h4.909v4.012h-.821v-2.176c0-.672-.521-1.219-1.162-1.219-.641 0-1.163.547-1.163 1.219v2.176h-.967v-2.176c0-.672-.521-1.219-1.163-1.219-.64 0-1.162.547-1.162 1.219v2.176h-.968v-2.176c0-.672-.521-1.219-1.162-1.219-.641 0-1.162.547-1.162 1.219v2.176h-.967v-2.176c0-.672-.521-1.219-1.162-1.219-.641 0-1.163.547-1.163 1.219v2.176h-.967v-2.176c0-.672-.521-1.219-1.162-1.219-.641 0-1.162.547-1.162 1.219v2.176h-.793v-13.147l-.01-.129-.088-.595h7.357zm10.561 8.174h-.249v-.58c0-.072.056-.131.125-.131s.125.059.125.131v.58zm-2.832 0h-.25v-.58c0-.072.056-.131.125-.131s.125.059.125.131v.58zm.495 5.697h-.719v-2.176c0-.208.161-.377.36-.377.198 0 .359.169.359.377v2.176zm-3.292 0h-.719v-2.176c0-.208.161-.377.359-.377.198 0 .359.169.359.377v2.176zm-3.292 0h-.719v-2.176c0-.208.161-.377.359-.377.198 0 .359.169.359.377v2.176zm-3.292 0h-.719v-2.176c0-.208.161-.377.359-.377.198 0 .359.169.359.377v2.176zm-3.292 0h-.719v-2.176c0-.208.161-.377.359-.377.198 0 .36.169.36.377v2.176zm18.087-1.22v-.518c0-.072.056-.132.125-.132s.125.059.125.132v1.387h-.25v-.869zm1.053 1.221v-1.739c0-.537-.416-.974-.928-.974-.479 0-.875.383-.923.872l-.006.101v1.739h-.887v-4.855c0-.139-.032-.269-.088-.384v-1.038c0-.537-.417-.974-.928-.974-.511 0-.928.437-.928.974v.58h-.976v-.58c0-.537-.417-.974-.928-.974-.511 0-.928.437-.928.974v.58h-1.07l-.28-1.598-.055-.314h9.902l-.16 1.08-.004.065v6.464h-.813z" id="Fill-9"/><path d="M22.443 10.879v3.621h1.222v-3.621c-.015-.34-.283-.612-.611-.612s-.596.271-.611.612" id="Fill-10"/><path d="M24.325 10.879v3.621h1.223v-3.621c-.015-.34-.284-.612-.612-.612s-.596.271-.611.612" id="Fill-11"/></g><g id="Rome-copy" fill="#fff" sketch:type="MSShapeGroup"><path d="M7.133 86.385h.065l-.018.192c0 .559.441 1.014.983 1.014h4.504c.239 0 .47-.09.65-.254.212-.192.333-.469.333-.76 0-.291-.122-.568-.333-.76-.18-.163-.41-.254-.65-.254h-1.867l.003-.062c0-.253-.106-.495-.29-.662-.157-.143-.358-.222-.566-.222h-2.814c-.472 0-.857.397-.857.884s.384.883.857.883zm0-.945h2.814l.039.016.021.046-.022.046-.038.015h-.002c-.22 0-.399.184-.399.411 0 .227.178.411.399.411h2.721l.123.048c.024.022.064.069.064.144 0 .075-.04.122-.064.144l-.123.048h-4.504c-.103 0-.186-.086-.186-.192 0-.106.084-.192.186-.192.22 0 .398-.184.398-.411h.002c0-.227-.178-.411-.399-.411h-1.031l-.06-.062.06-.062z" id="Fill-1"/><path d="M6.697 101.377h1.51c.22 0 .398-.184.398-.41v-2.549c0-.656-.517-1.189-1.153-1.189s-1.153.533-1.153 1.189v2.549c0 .227.178.41.398.41zm.399-2.96c0-.203.16-.368.356-.368.197 0 .357.165.357.368v2.139h-.713v-2.139z" id="Fill-2"/><path d="M9.964 101.377h1.51c.22 0 .398-.184.398-.41v-2.549c0-.656-.517-1.189-1.153-1.189s-1.154.533-1.154 1.189v2.549c0 .227.178.41.398.41zm.399-2.96c0-.203.16-.368.356-.368.196 0 .356.165.356.368v2.139h-.713v-2.139z" id="Fill-3"/><path d="M13.23 101.377h1.51c.22 0 .398-.184.398-.41v-2.549c0-.656-.517-1.189-1.153-1.189s-1.153.533-1.153 1.189v2.549c0 .227.178.41.398.41zm.398-2.96c0-.203.16-.368.356-.368.196 0 .356.165.356.368v2.139h-.713v-2.139z" id="Fill-4"/><path d="M25.88 98.253c-.508 0-.921.426-.921.949v1.764c0 .227.178.411.398.411h1.045c.22 0 .398-.184.398-.411v-1.764c0-.523-.413-.949-.92-.949zm.124 2.302h-.248v-1.353c0-.071.056-.128.124-.128s.124.057.124.128v1.353z" id="Fill-5"/><path d="M6.697 96.593h1.51c.22 0 .398-.184.398-.411v-2.549c0-.656-.517-1.189-1.153-1.189s-1.153.533-1.153 1.189v2.549c0 .227.178.411.398.411zm.399-2.96c0-.203.16-.368.356-.368.197 0 .357.165.357.368v2.139h-.713v-2.139z" id="Fill-6"/><path d="M9.964 96.593h1.51c.22 0 .398-.184.398-.411v-2.549c0-.656-.517-1.189-1.153-1.189s-1.154.533-1.154 1.189v2.549c0 .227.178.411.398.411zm.399-2.96c0-.203.16-.368.356-.368.196 0 .356.165.356.368v2.139h-.713v-2.139z" id="Fill-7"/><path d="M15.527 92.955c.22 0 .398-.184.398-.41v-1.676h3.316v1.313h-1.254c-.22 0-.399.184-.399.41v1.807c0 .227.178.411.399.411.22 0 .398-.184.398-.411v-1.397h2.692c.148 0 .276-.084.345-.208.052-.07.085-.156.085-.251v-2.348h4.642v4.43c0 .227.178.411.398.411h1.971c.22 0 .398-.184.398-.411 0-.227-.178-.411-.398-.411h-1.573v-4.429c0-2.146-2.074-3.874-2.706-4.351v-.376l.079-.045c.128-.072.207-.21.207-.361 0-.15-.079-.289-.207-.36l-.083-.047-.045-.086c-.07-.132-.204-.213-.349-.213-.146 0-.279.082-.349.213l-.045.086-.083.047c-.128.071-.207.21-.207.36 0 .151.079.289.207.361l.079.045v.376c-.616.465-2.6 2.119-2.7 4.189l-.032.163v2.396h-.672v-1.724c0-1.624-1.516-2.932-2.046-3.341v-.175l.009-.005c.128-.072.207-.21.207-.36 0-.151-.079-.289-.207-.361l-.038-.021-.02-.039c-.07-.132-.204-.214-.349-.214-.146 0-.28.082-.349.214l-.02.038-.038.021c-.128.073-.207.211-.207.361s.079.288.207.36l.009.006v.174c-.516.397-1.958 1.643-2.041 3.202l-.025.139v2.086c0 .227.178.41.398.41zm7.466-3.58c.086-1.228.531-2.299.849-2.921.317.62.762 1.689.848 2.921h-1.697zm3.123 0h-.627c-.045-.749-.208-1.44-.404-2.028.474.565.911 1.268 1.031 2.028zm-3.519-2.024c-.196.588-.358 1.277-.403 2.024h-.627c.121-.757.556-1.459 1.03-2.024zm-5.539 2.697c.071-.761.322-1.433.536-1.886.213.453.464 1.125.536 1.886h-1.071zm2.138 0h-.266c-.026-.333-.081-.65-.153-.944.191.29.346.608.419.944zm-2.785-.944c-.072.295-.128.611-.153.944h-.266c.073-.336.229-.654.42-.944z" id="Fill-8"/><path d="M29.206 105.324h-.803v-6.272l.225-1.495c.018-.119-.016-.239-.091-.33-.076-.091-.187-.143-.303-.143h-10.437l-.25-1.408c-.07-.388-.397-.671-.779-.673l-1.872-.01-.732-4.163c-.068-.391-.398-.675-.784-.675h-8.895c-.232 0-.453.105-.605.287-.152.182-.218.424-.183.661l.22 1.465v12.758h-.138c-.439 0-.796.368-.796.822 0 .454.357.821.796.821h25.426c.44 0 .797-.367.797-.821 0-.454-.356-.822-.797-.822zm-16.492-13.527l.731 4.16c.068.389.396.673.779.675l1.874.01.731 4.097c.069.39.399.673.784.673h4.871v3.912h-.814v-2.122c0-.655-.517-1.189-1.153-1.189s-1.154.534-1.154 1.189v2.122h-.959v-2.122c0-.655-.517-1.189-1.154-1.189-.635 0-1.153.534-1.153 1.189v2.122h-.96v-2.122c0-.655-.517-1.189-1.153-1.189s-1.153.534-1.153 1.189v2.122h-.96v-2.122c0-.655-.517-1.189-1.153-1.189s-1.154.534-1.154 1.189v2.122h-.96v-2.122c0-.655-.517-1.189-1.153-1.189s-1.153.534-1.153 1.189v2.122h-.787v-12.821l-.01-.125-.087-.581h7.3zm10.479 7.971h-.247v-.565c0-.071.055-.128.124-.128.068 0 .124.057.124.128v.565zm-2.81 0h-.248v-.565c0-.071.056-.128.124-.128s.124.057.124.128v.565zm.491 5.556h-.713v-2.122c0-.203.16-.368.357-.368.196 0 .356.165.356.368v2.122zm-3.267 0h-.713v-2.122c0-.203.16-.368.356-.368.197 0 .356.165.356.368v2.122zm-3.266 0h-.713v-2.122c0-.203.16-.368.356-.368.196 0 .356.165.356.368v2.122zm-3.266 0h-.713v-2.122c0-.203.16-.368.356-.368.196 0 .356.165.356.368v2.122zm-3.266 0h-.713v-2.122c0-.203.16-.368.356-.368.197 0 .357.165.357.368v2.122zm17.947-1.19v-.506c0-.071.056-.128.124-.128s.124.058.124.128v1.353h-.248v-.847zm1.045 1.19v-1.696c0-.524-.413-.949-.92-.949-.475 0-.868.373-.916.851l-.005.099v1.696h-.88v-4.734c0-.135-.032-.262-.088-.374v-1.012c0-.523-.414-.949-.921-.949-.508 0-.921.426-.921.949v.565h-.968v-.565c0-.523-.414-.949-.921-.949-.507 0-.921.426-.921.949v.565h-1.062l-.278-1.558-.054-.306h9.825l-.158 1.053-.004.063v6.303h-.806z" id="Fill-9"/><path d="M22.292 91.683v3.531h1.213v-3.531c-.015-.332-.281-.596-.606-.596-.326 0-.592.265-.607.596" id="Fill-10"/><path d="M24.159 91.683v3.531h1.213v-3.531c-.015-.332-.281-.596-.607-.596-.326 0-.591.265-.606.596" id="Fill-11"/></g><g fill="#67737B" sketch:type="MSShapeGroup"><path d="M7.133 45.385h.065l-.018.192c0 .559.441 1.014.983 1.014h4.504c.239 0 .47-.09.65-.254.212-.192.333-.469.333-.76 0-.291-.122-.568-.333-.76-.18-.163-.41-.254-.65-.254h-1.867l.003-.062c0-.253-.106-.495-.29-.662-.157-.143-.358-.222-.566-.222h-2.814c-.472 0-.857.397-.857.884s.384.883.857.883zm0-.945h2.814l.039.016.021.046-.022.046-.038.015h-.002c-.22 0-.399.184-.399.411 0 .227.178.411.399.411h2.721l.123.048c.024.022.064.069.064.144 0 .075-.04.122-.064.144l-.123.048h-4.504c-.103 0-.186-.086-.186-.192 0-.106.084-.192.186-.192.22 0 .398-.184.398-.411h.002c0-.227-.178-.411-.399-.411h-1.031l-.06-.062.06-.062z" id="Fill-1"/><path d="M6.697 60.377h1.51c.22 0 .398-.184.398-.41v-2.549c0-.656-.517-1.189-1.153-1.189s-1.153.533-1.153 1.189v2.549c0 .227.178.41.398.41zm.399-2.96c0-.203.16-.368.356-.368.197 0 .357.165.357.368v2.139h-.713v-2.139z" id="Fill-2"/><path d="M9.964 60.377h1.51c.22 0 .398-.184.398-.41v-2.549c0-.656-.517-1.189-1.153-1.189s-1.154.533-1.154 1.189v2.549c0 .227.178.41.398.41zm.399-2.96c0-.203.16-.368.356-.368.196 0 .356.165.356.368v2.139h-.713v-2.139z" id="Fill-3"/><path d="M13.23 60.377h1.51c.22 0 .398-.184.398-.41v-2.549c0-.656-.517-1.189-1.153-1.189s-1.153.533-1.153 1.189v2.549c0 .227.178.41.398.41zm.398-2.96c0-.203.16-.368.356-.368.196 0 .356.165.356.368v2.139h-.713v-2.139z" id="Fill-4"/><path d="M25.88 57.253c-.508 0-.921.426-.921.949v1.764c0 .227.178.411.398.411h1.045c.22 0 .398-.184.398-.411v-1.764c0-.523-.413-.949-.92-.949zm.124 2.302h-.248v-1.353c0-.071.056-.128.124-.128s.124.057.124.128v1.353z" id="Fill-5"/><path d="M6.697 55.593h1.51c.22 0 .398-.184.398-.411v-2.549c0-.656-.517-1.189-1.153-1.189s-1.153.533-1.153 1.189v2.549c0 .227.178.411.398.411zm.399-2.96c0-.203.16-.368.356-.368.197 0 .357.165.357.368v2.139h-.713v-2.139z" id="Fill-6"/><path d="M9.964 55.593h1.51c.22 0 .398-.184.398-.411v-2.549c0-.656-.517-1.189-1.153-1.189s-1.154.533-1.154 1.189v2.549c0 .227.178.411.398.411zm.399-2.96c0-.203.16-.368.356-.368.196 0 .356.165.356.368v2.139h-.713v-2.139z" id="Fill-7"/><path d="M15.527 51.955c.22 0 .398-.184.398-.41v-1.676h3.316v1.313h-1.254c-.22 0-.399.184-.399.41v1.807c0 .227.178.411.399.411.22 0 .398-.184.398-.411v-1.397h2.692c.148 0 .276-.084.345-.208.052-.07.085-.156.085-.251v-2.348h4.642v4.43c0 .227.178.411.398.411h1.971c.22 0 .398-.184.398-.411 0-.227-.178-.411-.398-.411h-1.573v-4.429c0-2.146-2.074-3.874-2.706-4.351v-.376l.079-.045c.128-.072.207-.21.207-.361 0-.15-.079-.289-.207-.36l-.083-.047-.045-.086c-.07-.132-.204-.213-.349-.213-.146 0-.279.082-.349.213l-.045.086-.083.047c-.128.071-.207.21-.207.36 0 .151.079.289.207.361l.079.045v.376c-.616.465-2.6 2.119-2.7 4.189l-.032.163v2.396h-.672v-1.724c0-1.624-1.516-2.932-2.046-3.341v-.175l.009-.005c.128-.072.207-.21.207-.36 0-.151-.079-.289-.207-.361l-.038-.021-.02-.039c-.07-.132-.204-.214-.349-.214-.146 0-.28.082-.349.214l-.02.038-.038.021c-.128.073-.207.211-.207.361s.079.288.207.36l.009.006v.174c-.516.397-1.958 1.643-2.041 3.202l-.025.139v2.086c0 .227.178.41.398.41zm7.466-3.58c.086-1.228.531-2.299.849-2.921.317.62.762 1.689.848 2.921h-1.697zm3.123 0h-.627c-.045-.749-.208-1.44-.404-2.028.474.565.911 1.268 1.031 2.028zm-3.519-2.024c-.196.588-.358 1.277-.403 2.024h-.627c.121-.757.556-1.459 1.03-2.024zm-5.539 2.697c.071-.761.322-1.433.536-1.886.213.453.464 1.125.536 1.886h-1.071zm2.138 0h-.266c-.026-.333-.081-.65-.153-.944.191.29.346.608.419.944zm-2.785-.944c-.072.295-.128.611-.153.944h-.266c.073-.336.229-.654.42-.944z" id="Fill-8"/><path d="M29.206 64.324h-.803v-6.272l.225-1.495c.018-.119-.016-.239-.091-.33-.076-.091-.187-.143-.303-.143h-10.437l-.25-1.408c-.07-.388-.397-.671-.779-.673l-1.872-.01-.732-4.163c-.068-.391-.398-.675-.784-.675h-8.895c-.232 0-.453.105-.605.287-.152.182-.218.424-.183.661l.22 1.465v12.758h-.138c-.439 0-.796.368-.796.822 0 .454.357.821.796.821h25.426c.44 0 .797-.367.797-.821 0-.454-.356-.822-.797-.822zm-16.492-13.527l.731 4.16c.068.389.396.673.779.675l1.874.01.731 4.097c.069.39.399.673.784.673h4.871v3.912h-.814v-2.122c0-.655-.517-1.189-1.153-1.189s-1.154.534-1.154 1.189v2.122h-.959v-2.122c0-.655-.517-1.189-1.154-1.189-.635 0-1.153.534-1.153 1.189v2.122h-.96v-2.122c0-.655-.517-1.189-1.153-1.189s-1.153.534-1.153 1.189v2.122h-.96v-2.122c0-.655-.517-1.189-1.153-1.189s-1.154.534-1.154 1.189v2.122h-.96v-2.122c0-.655-.517-1.189-1.153-1.189s-1.153.534-1.153 1.189v2.122h-.787v-12.821l-.01-.125-.087-.581h7.3zm10.479 7.971h-.247v-.565c0-.071.055-.128.124-.128.068 0 .124.057.124.128v.565zm-2.81 0h-.248v-.565c0-.071.056-.128.124-.128s.124.057.124.128v.565zm.491 5.556h-.713v-2.122c0-.203.16-.368.357-.368.196 0 .356.165.356.368v2.122zm-3.267 0h-.713v-2.122c0-.203.16-.368.356-.368.197 0 .356.165.356.368v2.122zm-3.266 0h-.713v-2.122c0-.203.16-.368.356-.368.196 0 .356.165.356.368v2.122zm-3.266 0h-.713v-2.122c0-.203.16-.368.356-.368.196 0 .356.165.356.368v2.122zm-3.266 0h-.713v-2.122c0-.203.16-.368.356-.368.197 0 .357.165.357.368v2.122zm17.947-1.19v-.506c0-.071.056-.128.124-.128s.124.058.124.128v1.353h-.248v-.847zm1.045 1.19v-1.696c0-.524-.413-.949-.92-.949-.475 0-.868.373-.916.851l-.005.099v1.696h-.88v-4.734c0-.135-.032-.262-.088-.374v-1.012c0-.523-.414-.949-.921-.949-.508 0-.921.426-.921.949v.565h-.968v-.565c0-.523-.414-.949-.921-.949-.507 0-.921.426-.921.949v.565h-1.062l-.278-1.558-.054-.306h9.825l-.158 1.053-.004.063v6.303h-.806z" id="Fill-9"/><path d="M22.292 50.683v3.531h1.213v-3.531c-.015-.332-.281-.596-.606-.596-.326 0-.592.265-.607.596" id="Fill-10"/><path d="M24.159 50.683v3.531h1.213v-3.531c-.015-.332-.281-.596-.607-.596-.326 0-.591.265-.606.596" id="Fill-11"/></g><g fill="#206FAC" sketch:type="MSShapeGroup"><path d="M7.133 124.385h.065l-.018.192c0 .559.441 1.014.983 1.014h4.504c.239 0 .47-.09.65-.254.212-.192.333-.469.333-.76 0-.291-.122-.568-.333-.76-.18-.163-.41-.254-.65-.254h-1.867l.003-.062c0-.253-.106-.495-.29-.662-.157-.143-.358-.222-.566-.222h-2.814c-.472 0-.857.397-.857.884s.384.883.857.883zm0-.945h2.814l.039.016.021.046-.022.046-.038.015h-.002c-.22 0-.399.184-.399.411 0 .227.178.411.399.411h2.721l.123.048c.024.022.064.069.064.144 0 .075-.04.122-.064.144l-.123.048h-4.504c-.103 0-.186-.086-.186-.192 0-.106.084-.192.186-.192.22 0 .398-.184.398-.411h.002c0-.227-.178-.411-.399-.411h-1.031l-.06-.062.06-.062z"/><path d="M6.697 139.377h1.51c.22 0 .398-.184.398-.41v-2.549c0-.656-.517-1.189-1.153-1.189s-1.153.533-1.153 1.189v2.549c0 .227.178.41.398.41zm.399-2.96c0-.203.16-.368.356-.368.197 0 .357.165.357.368v2.139h-.713v-2.139z"/><path d="M9.964 139.377h1.51c.22 0 .398-.184.398-.41v-2.549c0-.656-.517-1.189-1.153-1.189s-1.154.533-1.154 1.189v2.549c0 .227.178.41.398.41zm.399-2.96c0-.203.16-.368.356-.368.196 0 .356.165.356.368v2.139h-.713v-2.139z"/><path d="M13.23 139.377h1.51c.22 0 .398-.184.398-.41v-2.549c0-.656-.517-1.189-1.153-1.189s-1.153.533-1.153 1.189v2.549c0 .227.178.41.398.41zm.398-2.96c0-.203.16-.368.356-.368.196 0 .356.165.356.368v2.139h-.713v-2.139z"/><path d="M25.88 136.253c-.508 0-.921.426-.921.949v1.764c0 .227.178.411.398.411h1.045c.22 0 .398-.184.398-.411v-1.764c0-.523-.413-.949-.92-.949zm.124 2.302h-.248v-1.353c0-.071.056-.128.124-.128s.124.057.124.128v1.353z"/><path d="M6.697 134.593h1.51c.22 0 .398-.184.398-.411v-2.549c0-.656-.517-1.189-1.153-1.189s-1.153.533-1.153 1.189v2.549c0 .227.178.411.398.411zm.399-2.96c0-.203.16-.368.356-.368.197 0 .357.165.357.368v2.139h-.713v-2.139z"/><path d="M9.964 134.593h1.51c.22 0 .398-.184.398-.411v-2.549c0-.656-.517-1.189-1.153-1.189s-1.154.533-1.154 1.189v2.549c0 .227.178.411.398.411zm.399-2.96c0-.203.16-.368.356-.368.196 0 .356.165.356.368v2.139h-.713v-2.139z"/><path d="M15.527 130.955c.22 0 .398-.184.398-.41v-1.676h3.316v1.313h-1.254c-.22 0-.399.184-.399.41v1.807c0 .227.178.411.399.411.22 0 .398-.184.398-.411v-1.397h2.692c.148 0 .276-.084.345-.208.052-.07.085-.156.085-.251v-2.348h4.642v4.43c0 .227.178.411.398.411h1.971c.22 0 .398-.184.398-.411 0-.227-.178-.411-.398-.411h-1.573v-4.429c0-2.146-2.074-3.874-2.706-4.351v-.376l.079-.045c.128-.072.207-.21.207-.361 0-.15-.079-.289-.207-.36l-.083-.047-.045-.086c-.07-.132-.204-.213-.349-.213-.146 0-.279.082-.349.213l-.045.086-.083.047c-.128.071-.207.21-.207.36 0 .151.079.289.207.361l.079.045v.376c-.616.465-2.6 2.119-2.7 4.189l-.032.163v2.396h-.672v-1.724c0-1.624-1.516-2.932-2.046-3.341v-.175l.009-.005c.128-.072.207-.21.207-.36 0-.151-.079-.289-.207-.361l-.038-.021-.02-.039c-.07-.132-.204-.214-.349-.214-.146 0-.28.082-.349.214l-.02.038-.038.021c-.128.073-.207.211-.207.361s.079.288.207.36l.009.006v.174c-.516.397-1.958 1.643-2.041 3.202l-.025.139v2.086c0 .227.178.41.398.41zm7.466-3.58c.086-1.228.531-2.299.849-2.921.317.62.762 1.689.848 2.921h-1.697zm3.123 0h-.627c-.045-.749-.208-1.44-.404-2.028.474.565.911 1.268 1.031 2.028zm-3.519-2.024c-.196.588-.358 1.277-.403 2.024h-.627c.121-.757.556-1.459 1.03-2.024zm-5.539 2.697c.071-.761.322-1.433.536-1.886.213.453.464 1.125.536 1.886h-1.071zm2.138 0h-.266c-.026-.333-.081-.65-.153-.944.191.29.346.608.419.944zm-2.785-.944c-.072.295-.128.611-.153.944h-.266c.073-.336.229-.654.42-.944z"/><path d="M29.206 143.324h-.803v-6.272l.225-1.495c.018-.119-.016-.239-.091-.33-.076-.091-.187-.143-.303-.143h-10.437l-.25-1.408c-.07-.388-.397-.671-.779-.673l-1.872-.01-.732-4.163c-.068-.391-.398-.675-.784-.675h-8.895c-.232 0-.453.105-.605.287-.152.182-.218.424-.183.661l.22 1.465v12.758h-.138c-.439 0-.796.368-.796.822 0 .454.357.821.796.821h25.426c.44 0 .797-.367.797-.821 0-.454-.356-.822-.797-.822zm-16.492-13.527l.731 4.16c.068.389.396.673.779.675l1.874.01.731 4.097c.069.39.399.673.784.673h4.871v3.912h-.814v-2.122c0-.655-.517-1.189-1.153-1.189s-1.154.534-1.154 1.189v2.122h-.959v-2.122c0-.655-.517-1.189-1.154-1.189-.635 0-1.153.534-1.153 1.189v2.122h-.96v-2.122c0-.655-.517-1.189-1.153-1.189s-1.153.534-1.153 1.189v2.122h-.96v-2.122c0-.655-.517-1.189-1.153-1.189s-1.154.534-1.154 1.189v2.122h-.96v-2.122c0-.655-.517-1.189-1.153-1.189s-1.153.534-1.153 1.189v2.122h-.787v-12.821l-.01-.125-.087-.581h7.3zm10.479 7.971h-.247v-.565c0-.071.055-.128.124-.128.068 0 .124.057.124.128v.565zm-2.81 0h-.248v-.565c0-.071.056-.128.124-.128s.124.057.124.128v.565zm.491 5.556h-.713v-2.122c0-.203.16-.368.357-.368.196 0 .356.165.356.368v2.122zm-3.267 0h-.713v-2.122c0-.203.16-.368.356-.368.197 0 .356.165.356.368v2.122zm-3.266 0h-.713v-2.122c0-.203.16-.368.356-.368.196 0 .356.165.356.368v2.122zm-3.266 0h-.713v-2.122c0-.203.16-.368.356-.368.196 0 .356.165.356.368v2.122zm-3.266 0h-.713v-2.122c0-.203.16-.368.356-.368.197 0 .357.165.357.368v2.122zm17.947-1.19v-.506c0-.071.056-.128.124-.128s.124.058.124.128v1.353h-.248v-.847zm1.045 1.19v-1.696c0-.524-.413-.949-.92-.949-.475 0-.868.373-.916.851l-.005.099v1.696h-.88v-4.734c0-.135-.032-.262-.088-.374v-1.012c0-.523-.414-.949-.921-.949-.508 0-.921.426-.921.949v.565h-.968v-.565c0-.523-.414-.949-.921-.949-.507 0-.921.426-.921.949v.565h-1.062l-.278-1.558-.054-.306h9.825l-.158 1.053-.004.063v6.303h-.806z"/><path d="M22.292 129.683v3.531h1.213v-3.531c-.015-.332-.281-.596-.606-.596-.326 0-.592.265-.607.596"/><path d="M24.159 129.683v3.531h1.213v-3.531c-.015-.332-.281-.596-.607-.596-.326 0-.591.265-.606.596"/></g></g></g></svg>