<svg width="32" height="232" viewBox="0 0 32 232" xmlns="http://www.w3.org/2000/svg" xmlns:sketch="http://www.bohemiancoding.com/sketch/ns"><title>Florence</title><g sketch:type="MSLayerGroup" fill="none"><g fill="#373D43" sketch:type="MSShapeGroup"><path d="M22.062 14.452c0-.465-.36-.841-.804-.841-.444 0-.804.376-.804.841 0 .465.36.842.804.842.444 0 .804-.377.804-.842" id="Fill-1"/><path d="M24.757 22.076c-.106 0-.204.028-.291.078-.178.103-.301.297-.311.522v.394h1.203v-.394c-.015-.334-.278-.6-.601-.6" id="Fill-2"/><path d="M21.284 20.698c-.323 0-.587.266-.601.6v3.644h1.203v-3.644c-.015-.334-.279-.6-.601-.6" id="Fill-3"/><path d="M18.301 23.071v-.394c-.007-.168-.078-.319-.187-.427-.108-.108-.254-.173-.414-.173-.323 0-.586.266-.601.6v.394h1.203" id="Fill-4"/><path d="M10.403 21.548c.302 0 .547-.256.547-.572 0-.316-.245-.572-.547-.572-.302 0-.547.256-.547.572 0 .316.245.572.547.572" id="Fill-5"/><path d="M14.093 21.548c.302 0 .547-.256.547-.572 0-.316-.245-.572-.547-.572-.302 0-.546.256-.546.572 0 .316.244.572.546.572" id="Fill-6"/><path d="M6.7 21.548c.302 0 .546-.256.546-.572 0-.316-.244-.572-.546-.572-.302 0-.547.256-.547.572 0 .316.245.572.547.572" id="Fill-7"/><path d="M5.826 11.386c.243.224.553.347.876.347h1.625c-.034.112-.052.229-.052.349 0 .337.139.659.381.882.206.19.47.294.743.294h4.475c.62 0 1.124-.528 1.124-1.176 0-.648-.504-1.176-1.124-1.176h-.426c.073-.172.114-.361.114-.561 0-.765-.595-1.387-1.325-1.387h-5.535c-.322 0-.633.124-.876.347-.286.264-.45.643-.45 1.04s.164.776.45 1.04zm.522-1.46c.099-.091.224-.141.354-.141h5.535c.295 0 .536.251.536.56 0 .309-.241.561-.536.561-.218 0-.395.185-.395.413h-.003c0 .228.177.414.395.414h1.64c.184 0 .334.156.334.349 0 .193-.15.349-.334.349h-4.475c-.103 0-.177-.048-.22-.088-.073-.067-.114-.16-.114-.262 0-.101.041-.194.114-.261.043-.04.117-.088.22-.088h.002c.218 0 .395-.186.395-.414 0-.228-.177-.413-.395-.413h-2.699c-.13 0-.255-.05-.354-.141-.116-.107-.182-.26-.182-.42 0-.16.066-.313.182-.42z" id="Fill-8"/><path d="M27.613 25.651h-.311v-5.825l-.001-.039c-.04-.914-.524-1.726-1.255-2.175v-5.445l-.005-.093-.005-.029-.01-.062-.002-.011c-.01-.171-.029-.339-.054-.505v-.003l-.027-.162-.001-.005-.031-.159-.002-.006-.036-.156-.002-.007-.04-.154-.002-.007-.044-.153-.002-.007-.049-.152-.002-.005-.053-.152-.001-.004-.057-.152-.001-.002c-.173-.449-.392-.876-.637-1.277-.735-1.202-1.704-2.164-2.396-2.765l-.002-.002-.075-.065-.004-.003-.071-.061-.005-.004-.066-.056-.007-.006-.062-.05-.009-.008-.057-.046-.013-.01-.017-.014v-1.382c0-.229-.177-.414-.395-.414h-.142v-.704l-.002-.026.038-.072.17-.097c.127-.072.206-.211.206-.363 0-.151-.079-.29-.206-.363l-.17-.097-.093-.178c-.069-.132-.202-.215-.347-.215-.144 0-.277.082-.347.215l-.093.178-.17.097c-.127.073-.205.212-.205.363s.079.29.205.363l.17.097.054.103v.698h-.109c-.218 0-.395.185-.395.414v1.381c-1.102.886-3.713 3.292-3.831 6.268l-.004.087v3.457h-9.31c-.217 0-.425.094-.574.259l-2.607 2.887c-.139.154-.216.357-.216.568v6.312h-.113c-.436 0-.79.37-.79.827 0 .457.354.827.79.827h23.899c.436 0 .79-.37.79-.827 0-.457-.354-.827-.79-.827zm-11.257-5.815c.011-.23.075-.444.178-.633.235-.43.677-.717 1.182-.717.138 0 .272.022.397.061.536.17.933.675.964 1.288v.726h-2.721v-.726zm0 2.544v-.99h2.721v4.238h-2.721v-3.248zm3.62-9.723h2.581v4.17c-.362-.286-.811-.456-1.299-.456-.48 0-.924.165-1.282.443v-4.157zm1.282 4.541c.609 0 1.125.417 1.299.998v1.078h-2.581v-1.133c.189-.552.693-.942 1.282-.942zm-1.282 7.953v-5.05h2.581v5.527h-2.581v-.477zm-7.332-2.358h2.922v2.835h-2.922v-2.835zm-3.634 0h2.844v2.835h-2.844v-2.835zm-3.602 0h2.813v2.835h-2.813v-2.835zm20.71 2.837l-.037-.002h-2.671v-4.238h2.708v4.24zm0-5.068h-2.708v-.861c.084-.59.51-1.057 1.057-1.181l.078-.015.213-.019c.598 0 1.107.402 1.29.966.039.121.064.25.071.384v.726zm-2.747-2.374l-.023-.111v-5.42h1.119v5.024c-.414.058-.79.239-1.095.507zm.144-6.359c-.05-1.105-.275-2.127-.555-3.001.706.869 1.323 1.916 1.463 3.001h-.909zm-2.444-4.485l.215-.18.215.181c.483.981 1.13 2.616 1.224 4.483h-2.88c.095-1.865.742-3.502 1.226-4.485zm-2.956 9.26v-3.948h1.072v5.358l-.045.207c-.285-.263-.638-.447-1.026-.523v-1.093zm-2.548 3.221v2.139h-2.922v-2.213h2.922v.074zm-6.556-.074h2.844v2.213h-2.844v-2.213zm-3.602 0h2.813v2.213h-2.813v-2.213zm15.752-14.908h.251v.478h-.251v-.478zm-2.031 4.613l.118-.169.001-.001.364-.471c-.281.876-.508 1.902-.558 3.012h-.909l.004-.034.008-.055.026-.155.01-.049.035-.159.01-.043.044-.162.011-.038.053-.165.011-.033.062-.167.012-.028.07-.169.011-.024.078-.17.01-.02.086-.171.009-.016.094-.171.007-.013.101-.171.006-.009.107-.17.005-.007.113-.169.002-.004zm-2.594 7.821v.75c-.322.221-.583.531-.753.897h-9.703l1.487-1.647h8.969z" id="Fill-9"/></g><g fill="#fff" sketch:type="MSShapeGroup"><path d="M22.649 96.36c0-.461-.371-.835-.828-.835-.458 0-.828.373-.828.835 0 .461.371.835.828.835.457 0 .828-.374.828-.835" id="Fill-1"/><path d="M25.426 103.927c-.109 0-.21.028-.3.078-.183.102-.31.295-.32.518v.391h1.24v-.391c-.015-.332-.287-.596-.62-.596" id="Fill-2"/><path d="M21.847 102.559c-.333 0-.605.264-.62.596v3.617h1.24v-3.617c-.016-.331-.287-.596-.62-.596" id="Fill-3"/><path d="M18.772 104.914v-.391c-.008-.167-.08-.316-.193-.424-.111-.107-.262-.172-.427-.172-.333 0-.604.264-.62.596v.391h1.24" id="Fill-4"/><path d="M10.631 103.402c.311 0 .564-.254.564-.568 0-.314-.252-.568-.564-.568-.311 0-.564.254-.564.568 0 .314.252.568.564.568" id="Fill-5"/><path d="M14.434 103.402c.311 0 .564-.254.564-.568 0-.314-.252-.568-.564-.568-.311 0-.563.254-.563.568 0 .314.252.568.563.568" id="Fill-6"/><path d="M6.814 103.402c.311 0 .563-.254.563-.568 0-.314-.252-.568-.563-.568-.311 0-.564.254-.564.568 0 .314.252.568.564.568" id="Fill-7"/><path d="M5.913 93.316c.25.222.57.345.903.345h1.675c-.035.111-.054.227-.054.346 0 .335.143.654.393.876.212.189.484.292.766.292h4.613c.639 0 1.159-.524 1.159-1.168 0-.644-.52-1.167-1.159-1.167h-.439c.075-.171.117-.358.117-.556 0-.759-.613-1.377-1.366-1.377h-5.705c-.332 0-.653.123-.903.345-.295.262-.464.638-.464 1.032s.169.771.464 1.033zm.538-1.449c.102-.09.231-.14.364-.14h5.705c.304 0 .552.25.552.556 0 .307-.248.556-.552.556-.225 0-.407.183-.407.41h-.003c0 .227.182.411.407.411h1.691c.19 0 .344.155.344.346 0 .192-.154.347-.344.347h-4.613c-.106 0-.182-.047-.227-.087-.076-.067-.118-.159-.118-.26 0-.1.042-.192.117-.259.045-.04.121-.087.227-.087h.002c.225 0 .407-.184.407-.411 0-.227-.182-.41-.407-.41h-2.782c-.134 0-.263-.05-.364-.14-.119-.106-.188-.258-.188-.417 0-.158.068-.31.188-.417z" id="Fill-8"/><path d="M28.371 107.475h-.32v-5.782l-.001-.038c-.042-.907-.54-1.713-1.294-2.159v-5.404l-.006-.092-.005-.029-.011-.062-.002-.011c-.01-.169-.03-.337-.056-.501v-.003l-.028-.16-.001-.005-.032-.158-.002-.006-.037-.155-.002-.007-.041-.153-.002-.007-.045-.152-.002-.007-.05-.151-.002-.005-.054-.151-.001-.004-.058-.151-.001-.002c-.179-.446-.404-.87-.656-1.267-.757-1.193-1.756-2.148-2.47-2.744l-.002-.002-.077-.065-.004-.003-.073-.06-.006-.004-.068-.055-.008-.006-.064-.05-.009-.008-.058-.046-.013-.01-.018-.014v-1.372c0-.227-.182-.41-.407-.41h-.147v-.699l-.002-.025.039-.071.175-.097c.13-.072.212-.21.212-.36s-.082-.288-.212-.36l-.175-.096-.096-.176c-.071-.131-.208-.213-.357-.213s-.286.082-.357.213l-.096.176-.175.096c-.13.073-.212.21-.212.36s.081.288.212.36l.175.097.056.102v.693h-.112c-.225 0-.407.183-.407.41v1.371c-1.136.879-3.828 3.268-3.948 6.221l-.004.086v3.431h-9.596c-.224 0-.438.093-.592.257l-2.687 2.866c-.143.152-.223.354-.223.564v6.265h-.117c-.45 0-.814.367-.814.821 0 .453.364.821.814.821h24.635c.45 0 .814-.368.814-.821 0-.453-.365-.821-.814-.821zm-11.604-5.772c.012-.228.078-.441.184-.628.242-.427.698-.712 1.219-.712.142 0 .28.022.41.061.552.169.961.67.993 1.279v.721h-2.805v-.721zm0 2.525v-.983h2.805v4.207h-2.805v-3.224zm3.731-9.65h2.661v4.139c-.373-.284-.836-.452-1.339-.452-.494 0-.952.163-1.322.44v-4.126zm1.322 4.508c.628 0 1.16.414 1.339.99v1.07h-2.661v-1.125c.195-.548.714-.935 1.322-.935zm-1.322 7.894v-5.012h2.661v5.485h-2.661v-.473zm-7.558-2.341h3.012v2.814h-3.012v-2.814zm-3.746 0h2.932v2.814h-2.932v-2.814zm-3.713 0h2.899v2.814h-2.899v-2.814zm21.347 2.816l-.038-.002h-2.754v-4.207h2.792v4.209zm0-5.03h-2.792v-.855c.086-.586.525-1.049 1.09-1.172l.08-.015.219-.019c.616 0 1.141.399 1.33.959.04.121.066.248.073.381v.721zm-2.831-2.356l-.024-.11v-5.38h1.153v4.986c-.426.058-.815.237-1.129.504zm.148-6.311c-.052-1.096-.284-2.111-.572-2.978.728.862 1.364 1.902 1.508 2.978h-.937zm-2.52-4.451l.222-.178.222.179c.498.973 1.164 2.596 1.262 4.45h-2.969c.098-1.851.765-3.476 1.264-4.451zm-3.047 9.192v-3.919h1.105v5.318l-.047.205c-.294-.261-.657-.444-1.058-.519v-1.085zm-2.626 3.197v2.123h-3.012v-2.196h3.012v.073zm-6.758-.073h2.932v2.196h-2.932v-2.196zm-3.713 0h2.899v2.196h-2.899v-2.196zm16.236-14.797h.258v.475h-.258v-.475zm-2.093 4.578l.122-.167.001-.001c.121-.162.248-.318.376-.467-.29.87-.523 1.888-.576 2.99h-.937l.004-.033.008-.054.027-.154.01-.049.036-.158.011-.043.046-.161.012-.037.055-.164.012-.033.064-.166.012-.028.072-.167.011-.024.08-.169.01-.02.088-.169.009-.016.096-.17.008-.013.104-.17.006-.009.11-.169.005-.007.116-.167.002-.004zm-2.674 7.763v.744c-.332.22-.601.527-.776.89h-10.002l1.533-1.635h9.245z" id="Fill-9"/></g><g fill="#67737B" sketch:type="MSShapeGroup"><path d="M22.649 55.36c0-.461-.371-.835-.828-.835-.458 0-.828.373-.828.835 0 .461.371.835.828.835.457 0 .828-.374.828-.835"/><path d="M25.426 62.927c-.109 0-.21.028-.3.078-.183.102-.31.295-.32.518v.391h1.24v-.391c-.015-.332-.287-.596-.62-.596"/><path d="M21.847 61.559c-.333 0-.605.264-.62.596v3.617h1.24v-3.617c-.016-.331-.287-.596-.62-.596"/><path d="M18.772 63.914v-.391c-.008-.167-.08-.316-.193-.424-.111-.107-.262-.172-.427-.172-.333 0-.604.264-.62.596v.391h1.24"/><path d="M10.631 62.402c.311 0 .564-.254.564-.568 0-.314-.252-.568-.564-.568-.311 0-.564.254-.564.568 0 .314.252.568.564.568"/><path d="M14.434 62.402c.311 0 .564-.254.564-.568 0-.314-.252-.568-.564-.568-.311 0-.563.254-.563.568 0 .314.252.568.563.568"/><path d="M6.814 62.402c.311 0 .563-.254.563-.568 0-.314-.252-.568-.563-.568-.311 0-.564.254-.564.568 0 .314.252.568.564.568"/><path d="M5.913 52.316c.25.222.57.345.903.345h1.675c-.035.111-.054.227-.054.346 0 .335.143.654.393.876.212.189.484.292.766.292h4.613c.639 0 1.159-.524 1.159-1.168 0-.644-.52-1.167-1.159-1.167h-.439c.075-.171.117-.358.117-.556 0-.759-.613-1.377-1.366-1.377h-5.705c-.332 0-.653.123-.903.345-.295.262-.464.638-.464 1.032s.169.771.464 1.033zm.538-1.449c.102-.09.231-.14.364-.14h5.705c.304 0 .552.25.552.556 0 .307-.248.556-.552.556-.225 0-.407.183-.407.41h-.003c0 .227.182.411.407.411h1.691c.19 0 .344.155.344.346 0 .192-.154.347-.344.347h-4.613c-.106 0-.182-.047-.227-.087-.076-.067-.118-.159-.118-.26 0-.1.042-.192.117-.259.045-.04.121-.087.227-.087h.002c.225 0 .407-.184.407-.411 0-.227-.182-.41-.407-.41h-2.782c-.134 0-.263-.05-.364-.14-.119-.106-.188-.258-.188-.417 0-.158.068-.31.188-.417z"/><path d="M28.371 66.475h-.32v-5.782l-.001-.038c-.042-.907-.54-1.713-1.294-2.159v-5.404l-.006-.092-.005-.029-.011-.062-.002-.011c-.01-.169-.03-.337-.056-.501v-.003l-.028-.16-.001-.005-.032-.158-.002-.006-.037-.155-.002-.007-.041-.153-.002-.007-.045-.152-.002-.007-.05-.151-.002-.005-.054-.151-.001-.004-.058-.151-.001-.002c-.179-.446-.404-.87-.656-1.267-.757-1.193-1.756-2.148-2.47-2.744l-.002-.002-.077-.065-.004-.003-.073-.06-.006-.004-.068-.055-.008-.006-.064-.05-.009-.008-.058-.046-.013-.01-.018-.014v-1.372c0-.227-.182-.41-.407-.41h-.147v-.699l-.002-.025.039-.071.175-.097c.13-.072.212-.21.212-.36s-.082-.288-.212-.36l-.175-.096-.096-.176c-.071-.131-.208-.213-.357-.213s-.286.082-.357.213l-.096.176-.175.096c-.13.073-.212.21-.212.36s.081.288.212.36l.175.097.056.102v.693h-.112c-.225 0-.407.183-.407.41v1.371c-1.136.879-3.828 3.268-3.948 6.221l-.004.086v3.431h-9.596c-.224 0-.438.093-.592.257l-2.687 2.866c-.143.152-.223.354-.223.564v6.265h-.117c-.45 0-.814.367-.814.821 0 .453.364.821.814.821h24.635c.45 0 .814-.368.814-.821 0-.453-.365-.821-.814-.821zm-11.604-5.772c.012-.228.078-.441.184-.628.242-.427.698-.712 1.219-.712.142 0 .28.022.41.061.552.169.961.67.993 1.279v.721h-2.805v-.721zm0 2.525v-.983h2.805v4.207h-2.805v-3.224zm3.731-9.65h2.661v4.139c-.373-.284-.836-.452-1.339-.452-.494 0-.952.163-1.322.44v-4.126zm1.322 4.508c.628 0 1.16.414 1.339.99v1.07h-2.661v-1.125c.195-.548.714-.935 1.322-.935zm-1.322 7.894v-5.012h2.661v5.485h-2.661v-.473zm-7.558-2.341h3.012v2.814h-3.012v-2.814zm-3.746 0h2.932v2.814h-2.932v-2.814zm-3.713 0h2.899v2.814h-2.899v-2.814zm21.347 2.816l-.038-.002h-2.754v-4.207h2.792v4.209zm0-5.03h-2.792v-.855c.086-.586.525-1.049 1.09-1.172l.08-.015.219-.019c.616 0 1.141.399 1.33.959.04.121.066.248.073.381v.721zm-2.831-2.356l-.024-.11v-5.38h1.153v4.986c-.426.058-.815.237-1.129.504zm.148-6.311c-.052-1.096-.284-2.111-.572-2.978.728.862 1.364 1.902 1.508 2.978h-.937zm-2.52-4.451l.222-.178.222.179c.498.973 1.164 2.596 1.262 4.45h-2.969c.098-1.851.765-3.476 1.264-4.451zm-3.047 9.192v-3.919h1.105v5.318l-.047.205c-.294-.261-.657-.444-1.058-.519v-1.085zm-2.626 3.197v2.123h-3.012v-2.196h3.012v.073zm-6.758-.073h2.932v2.196h-2.932v-2.196zm-3.713 0h2.899v2.196h-2.899v-2.196zm16.236-14.797h.258v.475h-.258v-.475zm-2.093 4.578l.122-.167.001-.001c.121-.162.248-.318.376-.467-.29.87-.523 1.888-.576 2.99h-.937l.004-.033.008-.054.027-.154.01-.049.036-.158.011-.043.046-.161.012-.037.055-.164.012-.033.064-.166.012-.028.072-.167.011-.024.08-.169.01-.02.088-.169.009-.016.096-.17.008-.013.104-.17.006-.009.11-.169.005-.007.116-.167.002-.004zm-2.674 7.763v.744c-.332.22-.601.527-.776.89h-10.002l1.533-1.635h9.245z"/></g><g fill="#206FAC" sketch:type="MSShapeGroup"><path d="M22.649 135.36c0-.461-.371-.835-.828-.835-.458 0-.828.373-.828.835 0 .461.371.835.828.835.457 0 .828-.374.828-.835M25.426 142.927c-.109 0-.21.028-.3.078-.183.102-.31.295-.32.518v.391h1.24v-.391c-.015-.332-.287-.596-.62-.596M21.847 141.559c-.333 0-.605.264-.62.596v3.617h1.24v-3.617c-.016-.331-.287-.596-.62-.596M18.772 143.914v-.391c-.008-.167-.08-.316-.193-.424-.111-.107-.262-.172-.427-.172-.333 0-.604.264-.62.596v.391h1.24M10.631 142.402c.311 0 .564-.254.564-.568 0-.314-.252-.568-.564-.568-.311 0-.564.254-.564.568 0 .314.252.568.564.568M14.434 142.402c.311 0 .564-.254.564-.568 0-.314-.252-.568-.564-.568-.311 0-.563.254-.563.568 0 .314.252.568.563.568M6.814 142.402c.311 0 .563-.254.563-.568 0-.314-.252-.568-.563-.568-.311 0-.564.254-.564.568 0 .314.252.568.564.568"/><path d="M5.913 132.316c.25.222.57.345.903.345h1.675c-.035.111-.054.227-.054.346 0 .335.143.654.393.876.212.189.484.292.766.292h4.613c.639 0 1.159-.524 1.159-1.168 0-.644-.52-1.167-1.159-1.167h-.439c.075-.171.117-.358.117-.556 0-.759-.613-1.377-1.366-1.377h-5.705c-.332 0-.653.123-.903.345-.295.262-.464.638-.464 1.032s.169.771.464 1.033zm.538-1.449c.102-.09.231-.14.364-.14h5.705c.304 0 .552.25.552.556 0 .307-.248.556-.552.556-.225 0-.407.183-.407.41h-.003c0 .227.182.411.407.411h1.691c.19 0 .344.155.344.346 0 .192-.154.347-.344.347h-4.613c-.106 0-.182-.047-.227-.087-.076-.067-.118-.159-.118-.26 0-.1.042-.192.117-.259.045-.04.121-.087.227-.087h.002c.225 0 .407-.184.407-.411 0-.227-.182-.41-.407-.41h-2.782c-.134 0-.263-.05-.364-.14-.119-.106-.188-.258-.188-.417 0-.158.068-.31.188-.417zM28.371 146.475h-.32v-5.782l-.001-.038c-.042-.907-.54-1.713-1.294-2.159v-5.404l-.006-.092-.005-.029-.011-.062-.002-.011c-.01-.169-.03-.337-.056-.501v-.003l-.028-.16-.001-.005-.032-.158-.002-.006-.037-.155-.002-.007-.041-.153-.002-.007-.045-.152-.002-.007-.05-.151-.002-.005-.054-.151-.001-.004-.058-.151-.001-.002c-.179-.446-.404-.87-.656-1.267-.757-1.193-1.756-2.148-2.47-2.744l-.002-.002-.077-.065-.004-.003-.073-.06-.006-.004-.068-.055-.008-.006-.064-.05-.009-.008-.058-.046-.013-.01-.018-.014v-1.372c0-.227-.182-.41-.407-.41h-.147v-.699l-.002-.025.039-.071.175-.097c.13-.072.212-.21.212-.36s-.082-.288-.212-.36l-.175-.096-.096-.176c-.071-.131-.208-.213-.357-.213s-.286.082-.357.213l-.096.176-.175.096c-.13.073-.212.21-.212.36s.081.288.212.36l.175.097.056.102v.693h-.112c-.225 0-.407.183-.407.41v1.371c-1.136.879-3.828 3.268-3.948 6.221l-.004.086v3.431h-9.596c-.224 0-.438.093-.592.257l-2.687 2.866c-.143.152-.223.354-.223.564v6.265h-.117c-.45 0-.814.367-.814.821 0 .453.364.821.814.821h24.635c.45 0 .814-.368.814-.821 0-.453-.365-.821-.814-.821zm-11.604-5.772c.012-.228.078-.441.184-.628.242-.427.698-.712 1.219-.712.142 0 .28.022.41.061.552.169.961.67.993 1.279v.721h-2.805v-.721zm0 2.525v-.983h2.805v4.207h-2.805v-3.224zm3.731-9.65h2.661v4.139c-.373-.284-.836-.452-1.339-.452-.494 0-.952.163-1.322.44v-4.126zm1.322 4.508c.628 0 1.16.414 1.339.99v1.07h-2.661v-1.125c.195-.548.714-.935 1.322-.935zm-1.322 7.894v-5.012h2.661v5.485h-2.661v-.473zm-7.558-2.341h3.012v2.814h-3.012v-2.814zm-3.746 0h2.932v2.814h-2.932v-2.814zm-3.713 0h2.899v2.814h-2.899v-2.814zm21.347 2.816l-.038-.002h-2.754v-4.207h2.792v4.209zm0-5.03h-2.792v-.855c.086-.586.525-1.049 1.09-1.172l.08-.015.219-.019c.616 0 1.141.399 1.33.959.04.121.066.248.073.381v.721zm-2.831-2.356l-.024-.11v-5.38h1.153v4.986c-.426.058-.815.237-1.129.504zm.148-6.311c-.052-1.096-.284-2.111-.572-2.978.728.862 1.364 1.902 1.508 2.978h-.937zm-2.52-4.451l.222-.178.222.179c.498.973 1.164 2.596 1.262 4.45h-2.969c.098-1.851.765-3.476 1.264-4.451zm-3.047 9.192v-3.919h1.105v5.318l-.047.205c-.294-.261-.657-.444-1.058-.519v-1.085zm-2.626 3.197v2.123h-3.012v-2.196h3.012v.073zm-6.758-.073h2.932v2.196h-2.932v-2.196zm-3.713 0h2.899v2.196h-2.899v-2.196zm16.236-14.797h.258v.475h-.258v-.475zm-2.093 4.578l.122-.167.001-.001c.121-.162.248-.318.376-.467-.29.87-.523 1.888-.576 2.99h-.937l.004-.033.008-.054.027-.154.01-.049.036-.158.011-.043.046-.161.012-.037.055-.164.012-.033.064-.166.012-.028.072-.167.011-.024.08-.169.01-.02.088-.169.009-.016.096-.17.008-.013.104-.17.006-.009.11-.169.005-.007.116-.167.002-.004zm-2.674 7.763v.744c-.332.22-.601.527-.776.89h-10.002l1.533-1.635h9.245z"/></g></g></svg>