<svg width="32" height="232" viewBox="0 0 32 232" xmlns="http://www.w3.org/2000/svg" xmlns:sketch="http://www.bohemiancoding.com/sketch/ns"><title>Milan_Italy</title><g sketch:type="MSLayerGroup" fill="none"><g fill="#fff" sketch:type="MSShapeGroup"><path d="M16.626 18.015c-.016-.338-.293-.607-.632-.607-.34 0-.617.269-.633.607v3.684h1.265v-3.684" id="Fill-1"/><path d="M16.626 13.541c-.016-.338-.293-.607-.632-.607-.34 0-.617.269-.633.607v1.965h1.265v-1.965" id="Fill-2"/><path d="M29.121 27.265h-.784v-7.056c0-.299-.16-.573-.415-.722v-3.378c0-.08-.023-.154-.062-.218l-.469-4.954v-1.394c0-.231-.186-.418-.415-.418-.229 0-.415.187-.415.418v1.395l-.408 4.446-.437-.225v-1.21c0-.231-.186-.418-.415-.418-.229 0-.415.187-.415.418v.782l-.464-.239v-.543c0-.077-.022-.149-.059-.211l-.473-6.091v-1.71c0-.231-.186-.418-.415-.418-.229 0-.415.187-.415.418v1.71l-.445 5.913-.553-.285v-1.036c0-.231-.186-.418-.415-.418-.229 0-.415.187-.415.418v.608l-.542-.279v-1.124c0-.077-.022-.149-.059-.211l-.473-6.09v-1.71c0-.231-.186-.418-.415-.418-.229 0-.416.187-.416.418v1.71l-.107 1.419-.11-1.419v-1.71c0-.231-.186-.418-.415-.418-.229 0-.415.187-.415.418v1.71l-.448 5.953-.393-.203v-.936c0-.231-.186-.418-.415-.418-.229 0-.415.187-.415.418v.508l-.22-.113v-1.293c0-.231-.186-.418-.415-.418-.229 0-.415.187-.415.418v1.248l-.22.115v-.464c0-.231-.186-.418-.415-.418-.229 0-.415.187-.415.418v.897l-.35.182-.444-5.895v-1.71c0-.231-.186-.418-.415-.418-.229 0-.415.187-.415.418v1.71l-.11 1.419-.107-1.419v-1.71c0-.231-.186-.418-.415-.418-.229 0-.415.187-.415.418v1.71l-.472 6.09c-.037.062-.059.134-.059.211v1.081l-.543.283v-.569c0-.231-.186-.418-.415-.418-.229 0-.415.187-.415.418v1.002l-.554.289-.443-5.883v-1.71c0-.231-.186-.418-.416-.418-.229 0-.415.187-.415.418v1.71l-.473 6.091c-.036.062-.059.134-.059.211v.523l-.465.243v-.765c0-.231-.186-.418-.415-.418-.229 0-.415.187-.415.418v1.198l-.437.228-.407-4.437v-1.395c0-.231-.186-.418-.415-.418-.229 0-.415.187-.415.418v1.394l-.469 4.954c-.039.064-.062.138-.062.218v3.378c-.256.149-.415.423-.415.722v7.056h-.784c-.459 0-.831.374-.831.836 0 .462.372.836.831.836h26.255c.459 0 .831-.374.831-.836 0-.462-.372-.836-.831-.836zm-24.116-11.831l.024.258h-.048l.024-.258zm3.502-2.315l.031.414h-.063l.032-.414zm7.166-1.929l.252-.131.308.159 1.527.787v14.88h-1.135v-3.516h-1.265v3.516h-1.135v-14.939l1.448-.755zm6.868 3.276v2.247l-1.854-.955v-2.247l1.854.955zm.938-1.347l.032.414h-.063l.031-.414zm-15.082 1.863v-.613h.217v12.896h-.217v-12.283zm10.194-2.551v-.566h.217v15.4h-.217v-14.834zm4.78 2.462v-.524h.217v12.896h-.217v-12.372zm3.502 1.634h.217v10.737h-.217v-10.737zm-.831 10.355h-1.624v-7.324l1.624.836v6.488zm-3.502 0h-1.854v-9.247l1.854.955v8.292zm-9.146-14.977v15.359h-.217v-15.4h.217v.041zm-2.095 14.977h-1.854v-8.32l1.854-.966v9.287zm-3.733 0h-1.624v-6.495l1.624-.846v7.341zm-2.671-7.832v-2.524h.217v10.737h-.217v-8.214zm22.062-3.36l.024-.258.025.258h-.048zm-.915.578v2.247l-1.624-.836v-2.247l1.624.836zm-6.187-3.656v14.652h-.217v-15.4h.217v.748zm-.14-1.584l.031-.414.032.414h-.063zm-1.017-.414l.032.414h-.063l.031-.414zm-5.444.414l.032-.414.031.414h-.063zm-1.016-.414l.031.414h-.063l.032-.414zm-.11 1.48v-.23h.217v15.4h-.217v-15.17zm-.831 3.619l-1.854.966v-2.244l.936-.488c.109-.011.205-.063.272-.142l.646-.337v2.244zm-3.733 1.946l-1.624.846v-2.244l1.624-.846v2.244z" id="Fill-3"/></g><g fill="#373D43" sketch:type="MSShapeGroup"><path d="M16.626 58.015c-.016-.338-.293-.607-.632-.607-.34 0-.617.269-.633.607v3.684h1.265v-3.684" id="Fill-1"/><path d="M16.626 53.541c-.016-.338-.293-.607-.632-.607-.34 0-.617.269-.633.607v1.965h1.265v-1.965" id="Fill-2"/><path d="M29.121 67.265h-.784v-7.056c0-.299-.16-.573-.415-.722v-3.378c0-.08-.023-.154-.062-.218l-.469-4.954v-1.394c0-.231-.186-.418-.415-.418-.229 0-.415.187-.415.418v1.395l-.408 4.446-.437-.225v-1.21c0-.231-.186-.418-.415-.418-.229 0-.415.187-.415.418v.782l-.464-.239v-.543c0-.077-.022-.149-.059-.211l-.473-6.091v-1.71c0-.231-.186-.418-.415-.418-.229 0-.415.187-.415.418v1.71l-.445 5.913-.553-.285v-1.036c0-.231-.186-.418-.415-.418-.229 0-.415.187-.415.418v.608l-.542-.279v-1.124c0-.077-.022-.149-.059-.211l-.473-6.09v-1.71c0-.231-.186-.418-.415-.418-.229 0-.416.187-.416.418v1.71l-.107 1.419-.11-1.419v-1.71c0-.231-.186-.418-.415-.418-.229 0-.415.187-.415.418v1.71l-.448 5.953-.393-.203v-.936c0-.231-.186-.418-.415-.418-.229 0-.415.187-.415.418v.508l-.22-.113v-1.293c0-.231-.186-.418-.415-.418-.229 0-.415.187-.415.418v1.248l-.22.115v-.464c0-.231-.186-.418-.415-.418-.229 0-.415.187-.415.418v.897l-.35.182-.444-5.895v-1.71c0-.231-.186-.418-.415-.418-.229 0-.415.187-.415.418v1.71l-.11 1.419-.107-1.419v-1.71c0-.231-.186-.418-.415-.418-.229 0-.415.187-.415.418v1.71l-.472 6.09c-.037.062-.059.134-.059.211v1.081l-.543.283v-.569c0-.231-.186-.418-.415-.418-.229 0-.415.187-.415.418v1.002l-.554.289-.443-5.883v-1.71c0-.231-.186-.418-.416-.418-.229 0-.415.187-.415.418v1.71l-.473 6.091c-.036.062-.059.134-.059.211v.523l-.465.243v-.765c0-.231-.186-.418-.415-.418-.229 0-.415.187-.415.418v1.198l-.437.228-.407-4.437v-1.395c0-.231-.186-.418-.415-.418-.229 0-.415.187-.415.418v1.394l-.469 4.954c-.039.064-.062.138-.062.218v3.378c-.256.149-.415.423-.415.722v7.056h-.784c-.459 0-.831.374-.831.836 0 .462.372.836.831.836h26.255c.459 0 .831-.374.831-.836 0-.462-.372-.836-.831-.836zm-24.116-11.831l.024.258h-.048l.024-.258zm3.502-2.315l.031.414h-.063l.032-.414zm7.166-1.929l.252-.131.308.159 1.527.787v14.88h-1.135v-3.516h-1.265v3.516h-1.135v-14.939l1.448-.755zm6.868 3.276v2.247l-1.854-.955v-2.247l1.854.955zm.938-1.347l.032.414h-.063l.031-.414zm-15.082 1.863v-.613h.217v12.896h-.217v-12.283zm10.194-2.551v-.566h.217v15.4h-.217v-14.834zm4.78 2.462v-.524h.217v12.896h-.217v-12.372zm3.502 1.634h.217v10.737h-.217v-10.737zm-.831 10.355h-1.624v-7.324l1.624.836v6.488zm-3.502 0h-1.854v-9.247l1.854.955v8.292zm-9.146-14.977v15.359h-.217v-15.4h.217v.041zm-2.095 14.977h-1.854v-8.32l1.854-.966v9.287zm-3.733 0h-1.624v-6.495l1.624-.846v7.341zm-2.671-7.832v-2.524h.217v10.737h-.217v-8.214zm22.062-3.36l.024-.258.025.258h-.048zm-.915.578v2.247l-1.624-.836v-2.247l1.624.836zm-6.187-3.656v14.652h-.217v-15.4h.217v.748zm-.14-1.584l.031-.414.032.414h-.063zm-1.017-.414l.032.414h-.063l.031-.414zm-5.444.414l.032-.414.031.414h-.063zm-1.016-.414l.031.414h-.063l.032-.414zm-.11 1.48v-.23h.217v15.4h-.217v-15.17zm-.831 3.619l-1.854.966v-2.244l.936-.488c.109-.011.205-.063.272-.142l.646-.337v2.244zm-3.733 1.946l-1.624.846v-2.244l1.624-.846v2.244z" id="Fill-3"/></g><g fill="#67737B" sketch:type="MSShapeGroup"><path d="M16.626 98.015c-.016-.338-.293-.607-.632-.607-.34 0-.617.269-.633.607v3.684h1.265v-3.684"/><path d="M16.626 93.541c-.016-.338-.293-.607-.632-.607-.34 0-.617.269-.633.607v1.965h1.265v-1.965"/><path d="M29.121 107.265h-.784v-7.056c0-.299-.16-.573-.415-.722v-3.378c0-.08-.023-.154-.062-.218l-.469-4.954v-1.394c0-.231-.186-.418-.415-.418-.229 0-.415.187-.415.418v1.395l-.408 4.446-.437-.225v-1.21c0-.231-.186-.418-.415-.418-.229 0-.415.187-.415.418v.782l-.464-.239v-.543c0-.077-.022-.149-.059-.211l-.473-6.091v-1.71c0-.231-.186-.418-.415-.418-.229 0-.415.187-.415.418v1.71l-.445 5.913-.553-.285v-1.036c0-.231-.186-.418-.415-.418-.229 0-.415.187-.415.418v.608l-.542-.279v-1.124c0-.077-.022-.149-.059-.211l-.473-6.09v-1.71c0-.231-.186-.418-.415-.418-.229 0-.416.187-.416.418v1.71l-.107 1.419-.11-1.419v-1.71c0-.231-.186-.418-.415-.418-.229 0-.415.187-.415.418v1.71l-.448 5.953-.393-.203v-.936c0-.231-.186-.418-.415-.418-.229 0-.415.187-.415.418v.508l-.22-.113v-1.293c0-.231-.186-.418-.415-.418-.229 0-.415.187-.415.418v1.248l-.22.115v-.464c0-.231-.186-.418-.415-.418-.229 0-.415.187-.415.418v.897l-.35.182-.444-5.895v-1.71c0-.231-.186-.418-.415-.418-.229 0-.415.187-.415.418v1.71l-.11 1.419-.107-1.419v-1.71c0-.231-.186-.418-.415-.418-.229 0-.415.187-.415.418v1.71l-.472 6.09c-.037.062-.059.134-.059.211v1.081l-.543.283v-.569c0-.231-.186-.418-.415-.418-.229 0-.415.187-.415.418v1.002l-.554.289-.443-5.883v-1.71c0-.231-.186-.418-.416-.418-.229 0-.415.187-.415.418v1.71l-.473 6.091c-.036.062-.059.134-.059.211v.523l-.465.243v-.765c0-.231-.186-.418-.415-.418-.229 0-.415.187-.415.418v1.198l-.437.228-.407-4.437v-1.395c0-.231-.186-.418-.415-.418-.229 0-.415.187-.415.418v1.394l-.469 4.954c-.039.064-.062.138-.062.218v3.378c-.256.149-.415.423-.415.722v7.056h-.784c-.459 0-.831.374-.831.836 0 .462.372.836.831.836h26.255c.459 0 .831-.374.831-.836 0-.462-.372-.836-.831-.836zm-24.116-11.831l.024.258h-.048l.024-.258zm3.502-2.315l.031.414h-.063l.032-.414zm7.166-1.929l.252-.131.308.159 1.527.787v14.88h-1.135v-3.516h-1.265v3.516h-1.135v-14.939l1.448-.755zm6.868 3.276v2.247l-1.854-.955v-2.247l1.854.955zm.938-1.347l.032.414h-.063l.031-.414zm-15.082 1.863v-.613h.217v12.896h-.217v-12.283zm10.194-2.551v-.566h.217v15.4h-.217v-14.834zm4.78 2.462v-.524h.217v12.896h-.217v-12.372zm3.502 1.634h.217v10.737h-.217v-10.737zm-.831 10.355h-1.624v-7.324l1.624.836v6.488zm-3.502 0h-1.854v-9.247l1.854.955v8.292zm-9.146-14.977v15.359h-.217v-15.4h.217v.041zm-2.095 14.977h-1.854v-8.32l1.854-.966v9.287zm-3.733 0h-1.624v-6.495l1.624-.846v7.341zm-2.671-7.832v-2.524h.217v10.737h-.217v-8.214zm22.062-3.36l.024-.258.025.258h-.048zm-.915.578v2.247l-1.624-.836v-2.247l1.624.836zm-6.187-3.656v14.652h-.217v-15.4h.217v.748zm-.14-1.584l.031-.414.032.414h-.063zm-1.017-.414l.032.414h-.063l.031-.414zm-5.444.414l.032-.414.031.414h-.063zm-1.016-.414l.031.414h-.063l.032-.414zm-.11 1.48v-.23h.217v15.4h-.217v-15.17zm-.831 3.619l-1.854.966v-2.244l.936-.488c.109-.011.205-.063.272-.142l.646-.337v2.244zm-3.733 1.946l-1.624.846v-2.244l1.624-.846v2.244z"/></g><g fill="#206FAC" sketch:type="MSShapeGroup"><path d="M16.626 138.015c-.016-.338-.293-.607-.632-.607-.34 0-.617.269-.633.607v3.684h1.265v-3.684M16.626 133.541c-.016-.338-.293-.607-.632-.607-.34 0-.617.269-.633.607v1.965h1.265v-1.965"/><path d="M29.121 147.265h-.784v-7.056c0-.299-.16-.573-.415-.722v-3.378c0-.08-.023-.154-.062-.218l-.469-4.954v-1.394c0-.231-.186-.418-.415-.418-.229 0-.415.187-.415.418v1.395l-.408 4.446-.437-.225v-1.21c0-.231-.186-.418-.415-.418-.229 0-.415.187-.415.418v.782l-.464-.239v-.543c0-.077-.022-.149-.059-.211l-.473-6.091v-1.71c0-.231-.186-.418-.415-.418-.229 0-.415.187-.415.418v1.71l-.445 5.913-.553-.285v-1.036c0-.231-.186-.418-.415-.418-.229 0-.415.187-.415.418v.608l-.542-.279v-1.124c0-.077-.022-.149-.059-.211l-.473-6.09v-1.71c0-.231-.186-.418-.415-.418-.229 0-.416.187-.416.418v1.71l-.107 1.419-.11-1.419v-1.71c0-.231-.186-.418-.415-.418-.229 0-.415.187-.415.418v1.71l-.448 5.953-.393-.203v-.936c0-.231-.186-.418-.415-.418-.229 0-.415.187-.415.418v.508l-.22-.113v-1.293c0-.231-.186-.418-.415-.418-.229 0-.415.187-.415.418v1.248l-.22.115v-.464c0-.231-.186-.418-.415-.418-.229 0-.415.187-.415.418v.897l-.35.182-.444-5.895v-1.71c0-.231-.186-.418-.415-.418-.229 0-.415.187-.415.418v1.71l-.11 1.419-.107-1.419v-1.71c0-.231-.186-.418-.415-.418-.229 0-.415.187-.415.418v1.71l-.472 6.09c-.037.062-.059.134-.059.211v1.081l-.543.283v-.569c0-.231-.186-.418-.415-.418-.229 0-.415.187-.415.418v1.002l-.554.289-.443-5.883v-1.71c0-.231-.186-.418-.416-.418-.229 0-.415.187-.415.418v1.71l-.473 6.091c-.036.062-.059.134-.059.211v.523l-.465.243v-.765c0-.231-.186-.418-.415-.418-.229 0-.415.187-.415.418v1.198l-.437.228-.407-4.437v-1.395c0-.231-.186-.418-.415-.418-.229 0-.415.187-.415.418v1.394l-.469 4.954c-.039.064-.062.138-.062.218v3.378c-.256.149-.415.423-.415.722v7.056h-.784c-.459 0-.831.374-.831.836 0 .462.372.836.831.836h26.255c.459 0 .831-.374.831-.836 0-.462-.372-.836-.831-.836zm-24.116-11.831l.024.258h-.048l.024-.258zm3.502-2.315l.031.414h-.063l.032-.414zm7.166-1.929l.252-.131.308.159 1.527.787v14.88h-1.135v-3.516h-1.265v3.516h-1.135v-14.939l1.448-.755zm6.868 3.276v2.247l-1.854-.955v-2.247l1.854.955zm.938-1.347l.032.414h-.063l.031-.414zm-15.082 1.863v-.613h.217v12.896h-.217v-12.283zm10.194-2.551v-.566h.217v15.4h-.217v-14.834zm4.78 2.462v-.524h.217v12.896h-.217v-12.372zm3.502 1.634h.217v10.737h-.217v-10.737zm-.831 10.355h-1.624v-7.324l1.624.836v6.488zm-3.502 0h-1.854v-9.247l1.854.955v8.292zm-9.146-14.977v15.359h-.217v-15.4h.217v.041zm-2.095 14.977h-1.854v-8.32l1.854-.966v9.287zm-3.733 0h-1.624v-6.495l1.624-.846v7.341zm-2.671-7.832v-2.524h.217v10.737h-.217v-8.214zm22.062-3.36l.024-.258.025.258h-.048zm-.915.578v2.247l-1.624-.836v-2.247l1.624.836zm-6.187-3.656v14.652h-.217v-15.4h.217v.748zm-.14-1.584l.031-.414.032.414h-.063zm-1.017-.414l.032.414h-.063l.031-.414zm-5.444.414l.032-.414.031.414h-.063zm-1.016-.414l.031.414h-.063l.032-.414zm-.11 1.48v-.23h.217v15.4h-.217v-15.17zm-.831 3.619l-1.854.966v-2.244l.936-.488c.109-.011.205-.063.272-.142l.646-.337v2.244zm-3.733 1.946l-1.624.846v-2.244l1.624-.846v2.244z"/></g></g></svg>