<svg width="32" height="232" viewBox="0 0 32 232" xmlns="http://www.w3.org/2000/svg" xmlns:sketch="http://www.bohemiancoding.com/sketch/ns"><title>Japan</title><g sketch:type="MSLayerGroup" fill="none"><g fill="#373D43" sketch:type="MSShapeGroup"><path d="M10.854 6.078c.07-.215-.034-.451-.232-.53-.2-.079-.421.028-.498.241l-2.697 7.447-.589-7.908c-.016-.227-.2-.398-.412-.384-.212.015-.374.209-.364.437l.444 10.401-3.608 9.964c-.039.11-.034.232.014.337.049.105.136.184.241.216l.653.202.108.016c.161 0 .311-.108.367-.28l2.362-7.243.33 7.724c.01.221.179.396.385.399l.679.008h.004c.108 0 .211-.048.285-.133.074-.086.112-.201.103-.318l-.798-10.71 3.224-9.885" id="Fill-1"/><path d="M16.964 14.196c0-1.438-.198-2.858-.588-4.222-.393-1.373-.978-2.675-1.738-3.868-.096-.152-.273-.218-.436-.163-.163.054-.274.216-.274.399v.835c-.354-.079-.681-.267-.944-.546-.084-.09-.202-.133-.321-.117-.118.015-.223.087-.285.196-.585 1.025-1.047 2.124-1.374 3.265-.2.697-.348 1.408-.446 2.129-.853.744-1.359 1.873-1.359 3.058 0 .777.211 1.53.611 2.177.072.117.193.186.324.186.13 0 .252-.07.324-.186l.217-.308.068.342c-.267.401-.413.884-.413 1.381 0 .469.128.922.369 1.312.072.117.193.186.324.186.13 0 .252-.07.324-.186l.151-.204c.441 1.099 1.008 2.135 1.691 3.087-.512.646-1.081 1.242-1.695 1.774-.12.104-.172.274-.132.434.04.16.164.279.316.305l.042.006.018.002.057.005.191-.054c.518-.313 1.107-.479 1.703-.479.596 0 1.185.166 1.702.479.075.046.162.063.248.049l.017-.002.043-.006c.152-.026.276-.145.316-.305.039-.16-.012-.33-.132-.434-.613-.531-1.182-1.127-1.694-1.773.686-.957 1.254-2.002 1.693-3.105l.151.203c.072.117.194.187.324.187.131 0 .253-.07.324-.187.239-.386.365-.835.365-1.3 0-.498-.147-.981-.417-1.381.219-1.035.332-2.099.332-3.17zm-.724 4.864l-.055-.043.085-.263-.029.306zm-2.55 5.044l-.445.025c.152-.17.301-.345.445-.523.144.178.293.353.445.523l-.445-.025zm-2.548-5.028l-.031-.304.085.261-.054.043zm-.944-2.727c-.145-.375-.22-.777-.22-1.189 0-.595.163-1.172.455-1.665-.011.233-.017.466-.017.701 0 .615.037 1.224.108 1.827-.115.102-.224.211-.326.327zm4.119-8.294c.166 0 .309-.113.364-.27.338.672.621 1.371.848 2.094v.002l-.187.083-.029.013-.244.091-.077.025-.172.052-.095.025-.159.037-.1.02-.161.026-.098.014-.175.017-.084.007-.259.009-.26-.009-.084-.007-.175-.017-.098-.014-.16-.026-.101-.02-.159-.037-.095-.025-.172-.051-.078-.025-.244-.091-.029-.013-.187-.083v-.002c.252-.801.575-1.578.964-2.319.44.322.959.495 1.502.495zm-.237 13.625v-10.56l.127-.011.042-.005.219-.03.023-.003.23-.044.049-.011.226-.055.031-.009.209-.064.035-.011.219-.079.046-.018.218-.092.003-.002c.285 1.141.429 2.319.429 3.51 0 2.664-.742 5.278-2.106 7.484zm-2.885-7.484c0-1.191.144-2.369.429-3.51l.003.002.219.092.046.018.219.079.036.011.208.064.031.009.226.055.049.011.23.044.023.003.219.03.042.005.127.011v10.561c-.47-.757-.868-1.562-1.187-2.404-.61-1.614-.919-3.323-.919-5.081z" id="Fill-2"/><path d="M12.908 9.897c.361 0 .654-.315.654-.702 0-.387-.293-.702-.654-.702-.36 0-.654.315-.654.702 0 .387.294.702.654.702zm0-.836c.069 0 .125.06.125.134 0 .074-.056.134-.125.134-.068 0-.124-.06-.124-.134 0-.074.056-.134.124-.134z" id="Fill-3"/><path d="M27.383 6.879c-.07-.063-1.752-1.53-4.698-1.53-1.222 0-2.363.261-3.3.754-.738.389-1.112.797-1.152.842-.138.156-.215.363-.215.577v17.52c0 .248.103.485.281.644.07.062 1.752 1.53 4.698 1.53 1.222 0 2.363-.261 3.299-.754.738-.389 1.111-.797 1.152-.842.138-.155.216-.362.216-.577v-17.52c0-.249-.104-.485-.282-.644zm-1.276 17.771c-.411.313-1.402.894-3.11.894-1.732 0-2.914-.615-3.422-.943v-16.686c.41-.313 1.402-.893 3.11-.893 1.731 0 2.914.615 3.422.943v16.686z" id="Fill-4"/><path d="M24.554 18.612c-.081-.064-.181-.093-.28-.08l-3.099.407c-.115.015-.218.085-.28.189-.026.043-.247.434-.178 1.04.07.619.374.89.435.938.067.054.149.083.232.083l.047-.003 3.099-.408c.115-.015.218-.085.28-.189.026-.043.247-.434.179-1.039-.071-.619-.375-.89-.435-.938zm-3.065 1.455c-.015-.134-.005-.245.011-.327l2.649-.348.067.261c.015.134.005.245-.011.327l-2.649.348-.066-.261z" id="Fill-5"/><path d="M24.554 21.306c-.081-.065-.181-.093-.28-.08l-3.099.408c-.115.015-.218.085-.28.189-.026.043-.247.434-.178 1.04.07.619.374.891.435.939.067.054.149.083.232.083l.047-.003 3.099-.408c.115-.015.218-.085.28-.189.026-.042.247-.434.179-1.039-.071-.619-.375-.89-.435-.938zm-3.065 1.454c-.015-.134-.005-.245.011-.327l2.649-.349.067.261c.015.134.005.245-.011.327l-2.649.349-.066-.262z" id="Fill-6"/><path d="M22.209 8.615c-.194.067-.322.211-.414.316l-.09.093-.113.065c-.121.063-.286.148-.405.324-.118.174-.143.369-.161.511l-.023.138-.054.117c-.064.128-.152.303-.152.524 0 .222.088.397.152.524l.054.117.023.139c.018.142.044.337.161.511.119.175.284.261.405.323l.113.065.09.094c.093.104.22.248.414.316l.234.038.264-.032.134-.019.133.019.265.032.234-.038c.194-.068.321-.212.414-.316l.09-.094.113-.065c.121-.062.286-.148.405-.323.118-.174.143-.369.161-.511l.023-.138.054-.117c.065-.128.153-.303.153-.525 0-.221-.088-.397-.153-.524l-.054-.117-.023-.138c-.018-.142-.043-.337-.161-.511-.119-.175-.284-.261-.405-.324l-.113-.065-.09-.093c-.093-.105-.22-.249-.414-.317l-.234-.038-.265.032-.133.02-.134-.02-.264-.032-.234.038zm1.025.798l.09.094.196.193.233.141.111.064.022.133.054.282.109.257.058.127-.058.127-.109.257-.054.282-.022.133-.111.063-.233.142-.195.193-.091.095-.121-.018-.271-.033-.271.033-.122.018-.09-.094-.195-.193-.233-.142-.112-.063-.021-.133-.054-.283-.109-.257-.057-.127.057-.127.109-.257.054-.282.021-.133.112-.063.233-.142.196-.193.09-.095.122.018.271.033.271-.033.122-.018z" id="Fill-7"/><path d="M22.015 10.704c0 .491.37.888.827.888.457 0 .827-.398.827-.888s-.37-.888-.827-.888c-.457 0-.827.398-.827.888zm.827-.052l.048.052-.048.052-.048-.052.048-.052z" id="Fill-8"/><path d="M21.003 16.079l.023.138c.018.143.044.337.161.511.119.175.284.261.405.323l.113.065.09.094c.093.105.22.248.414.316l.234.039.264-.032.134-.02.133.02.265.032.234-.038c.194-.068.321-.211.414-.316l.09-.094.113-.065c.121-.062.286-.148.405-.323.118-.175.143-.369.161-.512l.023-.138.054-.117c.065-.128.153-.303.153-.524 0-.222-.088-.397-.153-.524l-.054-.117-.023-.138c-.018-.143-.044-.338-.161-.511-.119-.175-.284-.261-.405-.324l-.113-.065-.09-.094c-.093-.105-.22-.248-.414-.316l-.234-.038-.265.032-.133.02-.134-.02-.264-.032-.234.038c-.194.068-.322.212-.414.316l-.09.094-.113.065c-.121.062-.286.148-.405.324-.118.174-.143.369-.161.511l-.023.138-.054.117c-.064.128-.152.303-.152.524 0 .222.088.397.152.524l.054.117zm.631-.768l.109-.257.054-.282.021-.133.112-.063.233-.142.196-.193.09-.094.122.018.271.033.271-.033.122-.018.09.094.196.193.233.142.111.063.022.133.054.283.109.257.058.126-.058.127-.109.257-.054.283-.022.132-.111.064-.233.142-.196.193-.09.094-.121-.019-.271-.032-.271.032-.122.018-.089-.094-.196-.193-.233-.142-.112-.064-.021-.132-.054-.283-.109-.257-.057-.127.057-.126z" id="Fill-9"/><path d="M22.841 16.325c.457 0 .827-.398.827-.888s-.37-.888-.827-.888c-.457 0-.827.398-.827.888s.37.888.827.888zm0-.94l.048.052-.048.052-.048-.052.048-.052z" id="Fill-10"/></g><g fill="#67737B" sketch:type="MSShapeGroup"><path d="M11.216 46.118c.074-.223-.035-.468-.243-.55-.209-.082-.44.029-.521.25l-2.821 7.722-.616-8.201c-.017-.236-.21-.412-.431-.398-.222.015-.392.217-.381.453l.464 10.787-3.774 10.333c-.041.114-.036.24.014.35.051.109.142.19.252.224l.683.21.113.017c.169 0 .326-.112.384-.29l2.471-7.512.345 8.01c.01.23.187.411.402.414l.711.008h.004c.113 0 .22-.05.298-.138.078-.089.117-.209.108-.33l-.834-11.106 3.373-10.251" id="Fill-1"/><path d="M17.608 54.536c0-1.491-.207-2.964-.616-4.379-.412-1.424-1.023-2.774-1.818-4.011-.101-.157-.285-.226-.456-.17-.17.056-.287.224-.287.414v.865c-.371-.082-.712-.276-.988-.566-.088-.093-.211-.138-.336-.122-.123.016-.233.091-.298.204-.612 1.063-1.095 2.202-1.437 3.386-.209.723-.364 1.46-.467 2.208-.893.771-1.422 1.943-1.422 3.171 0 .806.221 1.587.64 2.257.075.121.202.193.339.193.136 0 .263-.072.339-.193l.227-.319.071.354c-.28.416-.432.917-.432 1.432 0 .486.134.957.386 1.361.075.121.202.193.339.193.136 0 .263-.072.339-.193l.158-.212c.461 1.14 1.054 2.214 1.769 3.201-.536.67-1.131 1.288-1.773 1.84-.126.108-.18.284-.138.45.042.166.172.29.331.316l.044.006.019.003.059.005c.07 0 .138-.019.2-.056.542-.325 1.158-.497 1.781-.497s1.239.172 1.78.497c.079.047.17.066.259.051l.018-.003.045-.006c.159-.027.288-.15.331-.316.041-.166-.012-.342-.138-.45-.642-.551-1.237-1.169-1.772-1.838.718-.993 1.312-2.076 1.771-3.22l.158.211c.075.121.203.194.339.194.137 0 .264-.073.339-.194.25-.4.382-.866.382-1.348 0-.517-.154-1.018-.436-1.432.229-1.074.348-2.176.348-3.288zm-.757 5.044l-.058-.045.088-.273-.031.318zm-2.668 5.231c-.156 0-.311.009-.466.026.159-.177.314-.358.466-.543.151.185.306.366.465.543-.154-.017-.31-.026-.465-.026zm-2.666-5.214l-.032-.315.088.271-.056.044zm-.988-2.828c-.152-.388-.23-.806-.23-1.233 0-.617.17-1.216.476-1.727-.011.242-.018.483-.018.727 0 .638.038 1.27.113 1.895-.12.106-.234.219-.341.339zm4.309-8.602c.174 0 .323-.117.381-.28.354.696.65 1.422.887 2.171v.002l-.195.086-.03.014-.255.095-.08.026-.18.054-.099.026-.167.038-.105.021-.168.027-.102.015-.183.018-.088.007-.271.009-.272-.009-.088-.007-.183-.018-.102-.015-.167-.027-.106-.021-.166-.038-.1-.026-.18-.053-.081-.026-.255-.095-.031-.014-.195-.086v-.002c.264-.831.601-1.637 1.009-2.405.46.334 1.004.514 1.572.514zm-.248 14.129v-10.951l.132-.011.044-.006.229-.031.024-.003.24-.046.051-.011.236-.058.033-.009.218-.066.037-.011.229-.082.048-.018.228-.096.004-.002c.298 1.183.449 2.405.449 3.64 0 2.763-.776 5.474-2.203 7.761zm-3.018-7.761c0-1.235.151-2.457.449-3.64l.003.002.229.095.048.019.229.082.038.011.218.066.033.009.236.058.051.011.24.046.024.003.23.031.044.006.132.011v10.952c-.492-.785-.908-1.619-1.242-2.493-.638-1.673-.962-3.447-.962-5.269z" id="Fill-2"/><path d="M13.365 50.078c.377 0 .684-.327.684-.728 0-.402-.307-.728-.684-.728-.377 0-.684.327-.684.728 0 .402.307.728.684.728zm0-.867c.072 0 .13.062.13.139 0 .076-.058.139-.13.139-.072 0-.13-.063-.13-.139 0-.077.058-.139.13-.139z" id="Fill-3"/><path d="M28.508 46.949c-.073-.065-1.832-1.587-4.915-1.587-1.279 0-2.472.27-3.452.782-.772.403-1.163.826-1.205.873-.145.161-.225.376-.225.599v18.169c0 .258.108.503.294.667.073.065 1.832 1.587 4.915 1.587 1.278 0 2.472-.27 3.452-.782.772-.403 1.163-.826 1.205-.874.145-.161.226-.376.226-.598v-18.169c0-.258-.108-.503-.295-.667zm-1.334 18.429c-.43.325-1.466.927-3.253.927-1.812 0-3.048-.638-3.58-.978v-17.304c.429-.324 1.467-.926 3.253-.926 1.811 0 3.048.638 3.58.978v17.304z" id="Fill-4"/><path d="M25.548 59.116c-.084-.067-.189-.097-.293-.083l-3.242.423c-.12.016-.228.088-.293.196-.027.044-.259.45-.186 1.078.074.642.392.923.455.973.07.056.156.086.243.086l.049-.003 3.242-.423c.12-.015.228-.088.293-.196.027-.044.259-.45.187-1.078-.074-.642-.392-.923-.455-.973zm-3.206 1.509c-.016-.139-.005-.254.012-.339l2.771-.361c.028.063.056.151.07.271.016.139.006.254-.012.339l-2.771.361c-.028-.063-.055-.151-.069-.271z" id="Fill-5"/><path d="M25.548 61.91c-.084-.067-.189-.097-.293-.083l-3.242.423c-.12.016-.228.088-.293.196-.027.044-.259.45-.186 1.078.074.642.392.924.455.974.07.056.156.086.243.086l.049-.003 3.242-.423c.12-.016.228-.088.293-.196.027-.044.259-.45.187-1.078-.074-.642-.392-.923-.455-.973zm-3.206 1.508c-.016-.139-.005-.254.012-.339l2.771-.362c.028.063.056.152.07.271.016.139.006.254-.012.339l-2.771.362c-.028-.063-.055-.151-.069-.271z" id="Fill-6"/><path d="M23.096 48.749c-.203.07-.336.219-.434.328l-.094.097-.118.067c-.126.065-.299.154-.424.336-.123.181-.15.383-.169.53l-.024.144-.056.121c-.067.132-.159.314-.159.544 0 .23.092.411.159.544l.056.122.024.144c.019.147.046.349.169.53.124.181.297.27.424.335l.118.067.094.098c.097.108.23.258.434.328l.245.04.276-.033.14-.02.14.02.277.033.245-.04c.203-.07.336-.219.433-.328l.094-.098.118-.067c.126-.065.3-.153.424-.335.123-.181.15-.383.169-.53l.024-.144.056-.121c.068-.133.16-.314.16-.544 0-.23-.092-.411-.16-.544l-.056-.121-.024-.144c-.019-.147-.045-.35-.169-.53-.124-.182-.297-.271-.424-.336l-.118-.067-.094-.097c-.097-.109-.23-.258-.434-.328l-.245-.039-.277.033-.14.02-.14-.02-.276-.033-.245.04zm1.072.828l.094.098.205.2.244.147.116.066.023.138.056.293.114.266.06.131-.06.132-.114.266-.056.293-.023.138-.116.066-.244.147-.204.2-.095.098-.127-.019-.284-.034-.283.034-.128.019-.094-.098-.204-.2-.244-.147-.117-.065-.022-.138-.056-.293-.114-.266-.06-.132.06-.131.114-.266.056-.293.022-.138.117-.065.244-.147.205-.2.094-.098.127.019.283.034.284-.034.127-.019z" id="Fill-7"/><path d="M22.892 50.916c0 .509.387.921.865.921s.865-.412.865-.921c0-.509-.387-.921-.865-.921s-.865.412-.865.921zm.865-.054l.05.054-.05.054-.05-.054.05-.054z" id="Fill-8"/><path d="M21.834 56.489l.024.144c.019.148.046.349.169.53.124.182.297.27.424.335l.118.067.094.097c.097.109.23.258.434.328l.245.04.276-.033.14-.02.14.02.277.033.245-.04c.203-.07.336-.219.433-.328l.094-.097.118-.067c.127-.065.3-.153.424-.335.123-.181.15-.383.169-.531l.024-.143.056-.122c.068-.132.16-.314.16-.544 0-.23-.092-.411-.16-.544l-.056-.121-.024-.144c-.019-.148-.046-.35-.169-.53-.124-.182-.297-.271-.424-.336l-.118-.067-.094-.097c-.097-.109-.23-.258-.434-.328l-.245-.04-.277.033-.14.02-.14-.02-.276-.033-.245.04c-.203.07-.336.219-.434.328l-.094.097-.118.067c-.126.065-.299.154-.424.336-.123.18-.15.382-.169.53l-.024.143-.056.122c-.067.132-.159.314-.159.544 0 .23.092.411.159.544l.056.122zm.66-.797l.114-.267.056-.293.022-.138.117-.065.244-.147.205-.2.094-.098.127.019.283.034.284-.034.127-.019.094.098.205.2.244.147.116.065.023.138.056.293.114.266.06.131-.06.132-.114.266-.056.293-.023.137-.116.066-.244.147-.205.201-.094.098-.127-.02-.284-.034-.283.034-.128.019-.094-.098-.205-.2-.244-.147-.117-.066-.022-.137-.056-.293-.114-.267-.06-.131.06-.131z" id="Fill-9"/><path d="M23.757 56.744c.478 0 .865-.412.865-.921 0-.509-.387-.921-.865-.921s-.865.413-.865.921c0 .509.387.921.865.921zm0-.975l.05.054-.05.054-.05-.054.05-.054z" id="Fill-10"/></g><g fill="#206FAC" sketch:type="MSShapeGroup"><path d="M11.216 119.118c.074-.223-.035-.468-.243-.55-.209-.082-.44.029-.521.25l-2.821 7.722-.616-8.201c-.017-.236-.21-.412-.431-.398-.222.015-.392.217-.381.453l.464 10.787-3.774 10.333c-.041.114-.036.24.014.35.051.109.142.19.252.224l.683.21.113.017c.169 0 .326-.112.384-.29l2.471-7.512.345 8.01c.01.23.187.411.402.414l.711.008h.004c.113 0 .22-.05.298-.138.078-.089.117-.209.108-.33l-.834-11.106 3.373-10.251"/><path d="M17.608 127.536c0-1.491-.207-2.964-.616-4.379-.412-1.424-1.023-2.774-1.818-4.011-.101-.157-.285-.226-.456-.17-.17.056-.287.224-.287.414v.865c-.371-.082-.712-.276-.988-.566-.088-.093-.211-.138-.336-.122-.123.016-.233.091-.298.204-.612 1.063-1.095 2.202-1.437 3.386-.209.723-.364 1.46-.467 2.208-.893.771-1.422 1.943-1.422 3.171 0 .806.221 1.587.64 2.257.075.121.202.193.339.193.136 0 .263-.072.339-.193l.227-.319.071.354c-.28.416-.432.917-.432 1.432 0 .486.134.957.386 1.361.075.121.202.193.339.193.136 0 .263-.072.339-.193l.158-.212c.461 1.14 1.054 2.214 1.769 3.201-.536.67-1.131 1.288-1.773 1.84-.126.108-.18.284-.138.45.042.166.172.29.331.316l.044.006.019.003.059.005c.07 0 .138-.019.2-.056.542-.325 1.158-.497 1.781-.497s1.239.172 1.78.497c.079.047.17.066.259.051l.018-.003.045-.006c.159-.027.288-.15.331-.316.041-.166-.012-.342-.138-.45-.642-.551-1.237-1.169-1.772-1.838.718-.993 1.312-2.076 1.771-3.22l.158.211c.075.121.203.194.339.194.137 0 .264-.073.339-.194.25-.4.382-.866.382-1.348 0-.517-.154-1.018-.436-1.432.229-1.074.348-2.176.348-3.288zm-.757 5.044l-.058-.045.088-.273-.031.318zm-2.668 5.231c-.156 0-.311.009-.466.026.159-.177.314-.358.466-.543.151.185.306.366.465.543-.154-.017-.31-.026-.465-.026zm-2.666-5.214l-.032-.315.088.271-.056.044zm-.988-2.828c-.152-.388-.23-.806-.23-1.233 0-.617.17-1.216.476-1.727-.011.242-.018.483-.018.727 0 .638.038 1.27.113 1.895-.12.106-.234.219-.341.339zm4.309-8.602c.174 0 .323-.117.381-.28.354.696.65 1.422.887 2.171v.002l-.195.086-.03.014-.255.095-.08.026-.18.054-.099.026-.167.038-.105.021-.168.027-.102.015-.183.018-.088.007-.271.009-.272-.009-.088-.007-.183-.018-.102-.015-.167-.027-.106-.021-.166-.038-.1-.026-.18-.053-.081-.026-.255-.095-.031-.014-.195-.086v-.002c.264-.831.601-1.637 1.009-2.405.46.334 1.004.514 1.572.514zm-.248 14.129v-10.951l.132-.011.044-.006.229-.031.024-.003.24-.046.051-.011.236-.058.033-.009.218-.066.037-.011.229-.082.048-.018.228-.096.004-.002c.298 1.183.449 2.405.449 3.64 0 2.763-.776 5.474-2.203 7.761zm-3.018-7.761c0-1.235.151-2.457.449-3.64l.003.002.229.095.048.019.229.082.038.011.218.066.033.009.236.058.051.011.24.046.024.003.23.031.044.006.132.011v10.952c-.492-.785-.908-1.619-1.242-2.493-.638-1.673-.962-3.447-.962-5.269z"/><path d="M13.365 123.078c.377 0 .684-.327.684-.728 0-.402-.307-.728-.684-.728-.377 0-.684.327-.684.728 0 .402.307.728.684.728zm0-.867c.072 0 .13.062.13.139 0 .076-.058.139-.13.139-.072 0-.13-.063-.13-.139 0-.077.058-.139.13-.139z"/><path d="M28.508 119.949c-.073-.065-1.832-1.587-4.915-1.587-1.279 0-2.472.27-3.452.782-.772.403-1.163.826-1.205.873-.145.161-.225.376-.225.599v18.169c0 .258.108.503.294.667.073.065 1.832 1.587 4.915 1.587 1.278 0 2.472-.27 3.452-.782.772-.403 1.163-.826 1.205-.874.145-.161.226-.376.226-.598v-18.169c0-.258-.108-.503-.295-.667zm-1.334 18.429c-.43.325-1.466.927-3.253.927-1.812 0-3.048-.638-3.58-.978v-17.304c.429-.324 1.467-.926 3.253-.926 1.811 0 3.048.638 3.58.978v17.304z"/><path d="M25.548 132.116c-.084-.067-.189-.097-.293-.083l-3.242.423c-.12.016-.228.088-.293.196-.027.044-.259.45-.186 1.078.074.642.392.923.455.973.07.056.156.086.243.086l.049-.003 3.242-.423c.12-.015.228-.088.293-.196.027-.044.259-.45.187-1.078-.074-.642-.392-.923-.455-.973zm-3.206 1.509c-.016-.139-.005-.254.012-.339l2.771-.361c.028.063.056.151.07.271.016.139.006.254-.012.339l-2.771.361c-.028-.063-.055-.151-.069-.271z"/><path d="M25.548 134.91c-.084-.067-.189-.097-.293-.083l-3.242.423c-.12.016-.228.088-.293.196-.027.044-.259.45-.186 1.078.074.642.392.924.455.974.07.056.156.086.243.086l.049-.003 3.242-.423c.12-.016.228-.088.293-.196.027-.044.259-.45.187-1.078-.074-.642-.392-.923-.455-.973zm-3.206 1.508c-.016-.139-.005-.254.012-.339l2.771-.362c.028.063.056.152.07.271.016.139.006.254-.012.339l-2.771.362c-.028-.063-.055-.151-.069-.271z"/><path d="M23.096 121.749c-.203.07-.336.219-.434.328l-.094.097-.118.067c-.126.065-.299.154-.424.336-.123.181-.15.383-.169.53l-.024.144-.056.121c-.067.132-.159.314-.159.544 0 .23.092.411.159.544l.056.122.024.144c.019.147.046.349.169.53.124.181.297.27.424.335l.118.067.094.098c.097.108.23.258.434.328l.245.04.276-.033.14-.02.14.02.277.033.245-.04c.203-.07.336-.219.433-.328l.094-.098.118-.067c.126-.065.3-.153.424-.335.123-.181.15-.383.169-.53l.024-.144.056-.121c.068-.133.16-.314.16-.544 0-.23-.092-.411-.16-.544l-.056-.121-.024-.144c-.019-.147-.045-.35-.169-.53-.124-.182-.297-.271-.424-.336l-.118-.067-.094-.097c-.097-.109-.23-.258-.434-.328l-.245-.039-.277.033-.14.02-.14-.02-.276-.033-.245.04zm1.072.828l.094.098.205.2.244.147.116.066.023.138.056.293.114.266.06.131-.06.132-.114.266-.056.293-.023.138-.116.066-.244.147-.204.2-.095.098-.127-.019-.284-.034-.283.034-.128.019-.094-.098-.204-.2-.244-.147-.117-.065-.022-.138-.056-.293-.114-.266-.06-.132.06-.131.114-.266.056-.293.022-.138.117-.065.244-.147.205-.2.094-.098.127.019.283.034.284-.034.127-.019z"/><path d="M22.892 123.916c0 .509.387.921.865.921s.865-.412.865-.921c0-.509-.387-.921-.865-.921s-.865.412-.865.921zm.865-.054l.05.054-.05.054-.05-.054.05-.054z"/><path d="M21.834 129.489l.024.144c.019.148.046.349.169.53.124.182.297.27.424.335l.118.067.094.097c.097.109.23.258.434.328l.245.04.276-.033.14-.02.14.02.277.033.245-.04c.203-.07.336-.219.433-.328l.094-.097.118-.067c.127-.065.3-.153.424-.335.123-.181.15-.383.169-.531l.024-.143.056-.122c.068-.132.16-.314.16-.544 0-.23-.092-.411-.16-.544l-.056-.121-.024-.144c-.019-.148-.046-.35-.169-.53-.124-.182-.297-.271-.424-.336l-.118-.067-.094-.097c-.097-.109-.23-.258-.434-.328l-.245-.04-.277.033-.14.02-.14-.02-.276-.033-.245.04c-.203.07-.336.219-.434.328l-.094.097-.118.067c-.126.065-.299.154-.424.336-.123.18-.15.382-.169.53l-.024.143-.056.122c-.067.132-.159.314-.159.544 0 .23.092.411.159.544l.056.122zm.66-.797l.114-.267.056-.293.022-.138.117-.065.244-.147.205-.2.094-.098.127.019.283.034.284-.034.127-.019.094.098.205.2.244.147.116.065.023.138.056.293.114.266.06.131-.06.132-.114.266-.056.293-.023.137-.116.066-.244.147-.205.201-.094.098-.127-.02-.284-.034-.283.034-.128.019-.094-.098-.205-.2-.244-.147-.117-.066-.022-.137-.056-.293-.114-.267-.06-.131.06-.131z"/><path d="M23.757 129.744c.478 0 .865-.412.865-.921 0-.509-.387-.921-.865-.921s-.865.413-.865.921c0 .509.387.921.865.921zm0-.975l.05.054-.05.054-.05-.054.05-.054z"/></g><g fill="#fff" sketch:type="MSShapeGroup"><path d="M11.216 85.118c.074-.223-.035-.468-.243-.55-.209-.082-.44.029-.521.25l-2.821 7.722-.616-8.201c-.017-.236-.21-.412-.431-.398-.222.015-.392.217-.381.453l.464 10.787-3.774 10.333c-.041.114-.036.24.014.35.051.109.142.19.252.224l.683.21.113.017c.169 0 .326-.112.384-.29l2.471-7.512.345 8.01c.01.23.187.411.402.414l.711.008h.004c.113 0 .22-.05.298-.138.078-.089.117-.209.108-.33l-.834-11.106 3.373-10.251"/><path d="M17.608 93.536c0-1.491-.207-2.964-.616-4.379-.412-1.424-1.023-2.774-1.818-4.011-.101-.157-.285-.226-.456-.17-.17.056-.287.224-.287.414v.865c-.371-.082-.712-.276-.988-.566-.088-.093-.211-.138-.336-.122-.123.016-.233.091-.298.204-.612 1.063-1.095 2.202-1.437 3.386-.209.723-.364 1.46-.467 2.208-.893.771-1.422 1.943-1.422 3.171 0 .806.221 1.587.64 2.257.075.121.202.193.339.193.136 0 .263-.072.339-.193l.227-.319.071.354c-.28.416-.432.917-.432 1.432 0 .486.134.957.386 1.361.075.121.202.193.339.193.136 0 .263-.072.339-.193l.158-.212c.461 1.14 1.054 2.214 1.769 3.201-.536.67-1.131 1.288-1.773 1.84-.126.108-.18.284-.138.45.042.166.172.29.331.316l.044.006.019.003.059.005c.07 0 .138-.019.2-.056.542-.325 1.158-.497 1.781-.497s1.239.172 1.78.497c.079.047.17.066.259.051l.018-.003.045-.006c.159-.027.288-.15.331-.316.041-.166-.012-.342-.138-.45-.642-.551-1.237-1.169-1.772-1.838.718-.993 1.312-2.076 1.771-3.22l.158.211c.075.121.203.194.339.194.137 0 .264-.073.339-.194.25-.4.382-.866.382-1.348 0-.517-.154-1.018-.436-1.432.229-1.074.348-2.176.348-3.288zm-.757 5.044l-.058-.045.088-.273-.031.318zm-2.668 5.231c-.156 0-.311.009-.466.026.159-.177.314-.358.466-.543.151.185.306.366.465.543-.154-.017-.31-.026-.465-.026zm-2.666-5.214l-.032-.315.088.271-.056.044zm-.988-2.828c-.152-.388-.23-.806-.23-1.233 0-.617.17-1.216.476-1.727-.011.242-.018.483-.018.727 0 .638.038 1.27.113 1.895-.12.106-.234.219-.341.339zm4.309-8.602c.174 0 .323-.117.381-.28.354.696.65 1.422.887 2.171v.002l-.195.086-.03.014-.255.095-.08.026-.18.054-.099.026-.167.038-.105.021-.168.027-.102.015-.183.018-.088.007-.271.009-.272-.009-.088-.007-.183-.018-.102-.015-.167-.027-.106-.021-.166-.038-.1-.026-.18-.053-.081-.026-.255-.095-.031-.014-.195-.086v-.002c.264-.831.601-1.637 1.009-2.405.46.334 1.004.514 1.572.514zm-.248 14.129v-10.951l.132-.011.044-.006.229-.031.024-.003.24-.046.051-.011.236-.058.033-.009.218-.066.037-.011.229-.082.048-.018.228-.096.004-.002c.298 1.183.449 2.405.449 3.64 0 2.763-.776 5.474-2.203 7.761zm-3.018-7.761c0-1.235.151-2.457.449-3.64l.003.002.229.095.048.019.229.082.038.011.218.066.033.009.236.058.051.011.24.046.024.003.23.031.044.006.132.011v10.952c-.492-.785-.908-1.619-1.242-2.493-.638-1.673-.962-3.447-.962-5.269zM13.365 89.078c.377 0 .684-.327.684-.728 0-.402-.307-.728-.684-.728-.377 0-.684.327-.684.728 0 .402.307.728.684.728zm0-.867c.072 0 .13.062.13.139 0 .076-.058.139-.13.139-.072 0-.13-.063-.13-.139 0-.077.058-.139.13-.139zM28.508 85.949c-.073-.065-1.832-1.587-4.915-1.587-1.279 0-2.472.27-3.452.782-.772.403-1.163.826-1.205.873-.145.161-.225.376-.225.599v18.169c0 .258.108.503.294.667.073.065 1.832 1.587 4.915 1.587 1.278 0 2.472-.27 3.452-.782.772-.403 1.163-.826 1.205-.874.145-.161.226-.376.226-.598v-18.169c0-.258-.108-.503-.295-.667zm-1.334 18.429c-.43.325-1.466.927-3.253.927-1.812 0-3.048-.638-3.58-.978v-17.304c.429-.324 1.467-.926 3.253-.926 1.811 0 3.048.638 3.58.978v17.304zM25.548 98.116c-.084-.067-.189-.097-.293-.083l-3.242.423c-.12.016-.228.088-.293.196-.027.044-.259.45-.186 1.078.074.642.392.923.455.973.07.056.156.086.243.086l.049-.003 3.242-.423c.12-.015.228-.088.293-.196.027-.044.259-.45.187-1.078-.074-.642-.392-.923-.455-.973zm-3.206 1.509c-.016-.139-.005-.254.012-.339l2.771-.361c.028.063.056.151.07.271.016.139.006.254-.012.339l-2.771.361c-.028-.063-.055-.151-.069-.271zM25.548 100.91c-.084-.067-.189-.097-.293-.083l-3.242.423c-.12.016-.228.088-.293.196-.027.044-.259.45-.186 1.078.074.642.392.924.455.974.07.056.156.086.243.086l.049-.003 3.242-.423c.12-.016.228-.088.293-.196.027-.044.259-.45.187-1.078-.074-.642-.392-.923-.455-.973zm-3.206 1.508c-.016-.139-.005-.254.012-.339l2.771-.362c.028.063.056.152.07.271.016.139.006.254-.012.339l-2.771.362c-.028-.063-.055-.151-.069-.271zM23.096 87.749c-.203.07-.336.219-.434.328l-.094.097-.118.067c-.126.065-.299.154-.424.336-.123.181-.15.383-.169.53l-.024.144-.056.121c-.067.132-.159.314-.159.544 0 .23.092.411.159.544l.056.122.024.144c.019.147.046.349.169.53.124.181.297.27.424.335l.118.067.094.098c.097.108.23.258.434.328l.245.04.276-.033.14-.02.14.02.277.033.245-.04c.203-.07.336-.219.433-.328l.094-.098.118-.067c.126-.065.3-.153.424-.335.123-.181.15-.383.169-.53l.024-.144.056-.121c.068-.133.16-.314.16-.544 0-.23-.092-.411-.16-.544l-.056-.121-.024-.144c-.019-.147-.045-.35-.169-.53-.124-.182-.297-.271-.424-.336l-.118-.067-.094-.097c-.097-.109-.23-.258-.434-.328l-.245-.039-.277.033-.14.02-.14-.02-.276-.033-.245.04zm1.072.828l.094.098.205.2.244.147.116.066.023.138.056.293.114.266.06.131-.06.132-.114.266-.056.293-.023.138-.116.066-.244.147-.204.2-.095.098-.127-.019-.284-.034-.283.034-.128.019-.094-.098-.204-.2-.244-.147-.117-.065-.022-.138-.056-.293-.114-.266-.06-.132.06-.131.114-.266.056-.293.022-.138.117-.065.244-.147.205-.2.094-.098.127.019.283.034.284-.034.127-.019zM22.892 89.916c0 .509.387.921.865.921s.865-.412.865-.921c0-.509-.387-.921-.865-.921s-.865.412-.865.921zm.865-.054l.05.054-.05.054-.05-.054.05-.054zM21.834 95.489l.024.144c.019.148.046.349.169.53.124.182.297.27.424.335l.118.067.094.097c.097.109.23.258.434.328l.245.04.276-.033.14-.02.14.02.277.033.245-.04c.203-.07.336-.219.433-.328l.094-.097.118-.067c.127-.065.3-.153.424-.335.123-.181.15-.383.169-.531l.024-.143.056-.122c.068-.132.16-.314.16-.544 0-.23-.092-.411-.16-.544l-.056-.121-.024-.144c-.019-.148-.046-.35-.169-.53-.124-.182-.297-.271-.424-.336l-.118-.067-.094-.097c-.097-.109-.23-.258-.434-.328l-.245-.04-.277.033-.14.02-.14-.02-.276-.033-.245.04c-.203.07-.336.219-.434.328l-.094.097-.118.067c-.126.065-.299.154-.424.336-.123.18-.15.382-.169.53l-.024.143-.056.122c-.067.132-.159.314-.159.544 0 .23.092.411.159.544l.056.122zm.66-.797l.114-.267.056-.293.022-.138.117-.065.244-.147.205-.2.094-.098.127.019.283.034.284-.034.127-.019.094.098.205.2.244.147.116.065.023.138.056.293.114.266.06.131-.06.132-.114.266-.056.293-.023.137-.116.066-.244.147-.205.201-.094.098-.127-.02-.284-.034-.283.034-.128.019-.094-.098-.205-.2-.244-.147-.117-.066-.022-.137-.056-.293-.114-.267-.06-.131.06-.131zM23.757 95.744c.478 0 .865-.412.865-.921 0-.509-.387-.921-.865-.921s-.865.413-.865.921c0 .509.387.921.865.921zm0-.975l.05.054-.05.054-.05-.054.05-.054z"/></g></g></svg>