<svg width="32" height="232" viewBox="0 0 32 232" xmlns="http://www.w3.org/2000/svg" xmlns:sketch="http://www.bohemiancoding.com/sketch/ns"><title>Lithuania</title><g sketch:type="MSPage" fill="none"><g sketch:type="MSLayerGroup"><g fill="#fff" sketch:type="MSShapeGroup"><path d="M16.362 104.524c-.245 0-.35-.044-.495-.104-.176-.074-.395-.165-.795-.165s-.619.092-.795.165c-.145.061-.25.105-.496.105-.245 0-.35-.044-.495-.104-.176-.074-.395-.165-.795-.165s-.619.092-.795.165c-.145.061-.25.104-.495.104s-.35-.044-.496-.105c-.176-.073-.395-.165-.795-.165s-.619.092-.795.165c-.145.061-.25.104-.496.104-.245 0-.35-.044-.495-.104-.176-.074-.395-.165-.795-.165s-.619.092-.795.165c-.145.061-.25.104-.495.104-.227 0-.412.198-.412.441 0 .244.184.441.412.441.4 0 .619-.091.795-.165.145-.061.25-.105.495-.105s.35.044.495.105c.176.073.395.165.795.165s.619-.091.795-.165c.145-.061.25-.105.496-.105.245 0 .35.044.495.105.176.073.395.165.795.165s.619-.091.795-.165c.145-.061.25-.105.495-.105s.35.044.496.105c.176.073.395.165.795.165s.619-.091.795-.165c.145-.061.25-.105.496-.105.245 0 .35.044.495.105.176.073.395.165.795.165.227 0 .412-.197.412-.441s-.184-.441-.412-.441" id="Fill-1"/><path d="M11.988 89.721h3.01c.219 0 .431-.086.596-.242.195-.184.306-.448.306-.725l-.004-.084h1.43c.252 0 .495-.099.686-.278.224-.211.352-.515.352-.833 0-.319-.128-.622-.352-.833-.19-.179-.433-.278-.686-.278h-4.236c-.572 0-1.037.499-1.037 1.111l.022.229h-.087c-.497 0-.902.433-.902.966 0 .533.405.966.902.966zm0-1.05h1.103c.227 0 .412-.198.412-.441h-.002c0-.244-.184-.441-.412-.441-.118 0-.214-.103-.214-.229s.096-.229.214-.229h4.236l.141.058c.027.026.073.082.073.172 0 .089-.046.146-.073.171l-.141.058h-2.329c-.227 0-.412.197-.412.441s.184.441.412.441h.002l.051.022.027.062-.027.063-.051.021h-3.01c-.043 0-.078-.038-.078-.084 0-.046.035-.084.078-.084z" id="Fill-2"/><path d="M9.121 93.983c-.152 0-.276.128-.283.29v.937h.566v-.937c-.007-.161-.131-.29-.283-.29" id="Fill-3"/><path d="M6.222 93.983c-.152 0-.276.128-.283.29v.937h.566v-.937c-.007-.161-.131-.29-.283-.29" id="Fill-4"/><path d="M7.672 93.983c-.152 0-.276.128-.283.29v.937h.566v-.937c-.007-.161-.131-.29-.283-.29" id="Fill-5"/><path d="M9.121 96.331c-.152 0-.276.128-.283.29v.937h.566v-.937c-.007-.161-.131-.29-.283-.29" id="Fill-6"/><path d="M6.222 96.331c-.152 0-.276.128-.283.29v.937h.566v-.937c-.007-.161-.131-.29-.283-.29" id="Fill-7"/><path d="M7.672 96.331c-.152 0-.276.128-.283.29v.937h.566v-.937c-.007-.161-.131-.29-.283-.29" id="Fill-8"/><path d="M25.803 93.983c-.152 0-.276.128-.283.29v.937h.566v-.937c-.007-.161-.131-.29-.283-.29" id="Fill-9"/><path d="M22.904 93.983c-.152 0-.276.128-.283.29v.937h.566v-.937c-.007-.161-.131-.29-.283-.29" id="Fill-10"/><path d="M24.354 93.983c-.152 0-.276.128-.283.29v.937h.566v-.937c-.007-.161-.131-.29-.283-.29" id="Fill-11"/><path d="M25.803 96.331c-.152 0-.276.128-.283.29v.937h.566v-.937c-.007-.161-.131-.29-.283-.29" id="Fill-12"/><path d="M22.904 96.331c-.152 0-.276.128-.283.29v.937h.566v-.937c-.007-.161-.131-.29-.283-.29" id="Fill-13"/><path d="M24.354 96.331c-.152 0-.276.128-.283.29v.937h.566v-.937c-.007-.161-.131-.29-.283-.29" id="Fill-14"/><path d="M29.759 102.844c.051-.115.081-.243.081-.379 0-.487-.369-.882-.824-.882h-.124v-.413c0-.197-.122-.37-.298-.424l-.172-.052-.39-.835v-.404c0-.134-.057-.261-.155-.345l-.245-.21-.039-.064v-5.36c.145-.068.246-.223.246-.403 0-.181-.101-.335-.246-.404v-.403h.328c.228 0 .412-.198.412-.441 0-.115-.041-.219-.107-.297l-3.461-4.789v-1.266c0-.244-.184-.441-.412-.441-.227 0-.412.197-.412.441v1.266l-3.48 4.816c-.096.133-.113.313-.044.464.069.151.213.247.37.247h.351v.394c-.157.062-.27.222-.27.413 0 .19.113.351.27.413v2.886h-.805c-.227 0-.412.198-.412.441v.444h-.322v-.444c0-.244-.184-.441-.412-.441h-.601v-.528h.369c.166 0 .316-.107.38-.271.064-.164.03-.353-.087-.48l-1.802-1.958v-.801c0-.244-.184-.441-.412-.441-.227 0-.412.198-.412.441v.458h-1.204v-.458c0-.244-.184-.441-.412-.441-.227 0-.412.198-.412.441v.696l-1.892 2.063c-.116.127-.15.316-.086.48.064.164.214.271.38.271h.208v.528h-.601c-.227 0-.412.198-.412.441v.444h-.322v-.444c0-.244-.184-.441-.412-.441h-.548v-2.895c.145-.068.246-.223.246-.403 0-.181-.101-.335-.246-.404v-.403h.329c.227 0 .412-.198.412-.441 0-.115-.041-.219-.107-.297l-3.461-4.789v-1.266c0-.244-.184-.441-.412-.441-.227 0-.412.197-.412.441v1.266l-3.48 4.816c-.096.133-.113.313-.044.464.069.151.213.247.37.247h.351v.394c-.157.062-.27.222-.27.413 0 .19.113.351.27.413v5.311l-.062.104-.245.21c-.098.084-.155.211-.155.345v.404l-.39.835-.172.052c-.177.054-.299.227-.299.424v.413h-.266c-.455 0-.824.395-.824.882l.024.207c-.045.07-.071.156-.071.248 0 .244.184.441.412.441.245 0 .35.044.495.105.176.074.395.165.795.165s.619-.091.795-.165c.145-.061.25-.105.495-.105s.35.044.495.105c.176.074.395.165.795.165s.619-.091.795-.165c.145-.061.25-.105.495-.105s.35.044.495.105c.176.074.395.165.795.165.329 0 .534-.062.695-.125h1.191c.161.063.366.125.695.125.329 0 .534-.062.695-.125h1.19c.161.063.366.125.695.125.329 0 .534-.062.695-.125h1.19c.161.063.366.125.695.125.329 0 .534-.062.695-.125h1.19c.161.063.366.125.695.125.329 0 .534-.062.695-.125h1.191c.161.063.366.125.695.125.366 0 .58-.076.749-.146v2.662c0 .244.184.441.412.441h2.23c.228 0 .412-.198.412-.441l-.002-.04c-.003-1.069-.142-1.948-.351-2.672.113-.044.219-.074.421-.074.245 0 .35.044.495.105.176.074.395.165.795.165s.619-.091.795-.165c.145-.061.251-.105.496-.105s.35.044.496.105c.176.074.395.165.795.165.227 0 .412-.197.412-.441 0-.141-.063-.265-.159-.346zm-25.802-1.262v-.08l.047-.015c.111-.034.203-.116.255-.227l.515-1.102.043-.198v-.296l.143-.122.089-.106.165-.274c.043-.071.066-.154.066-.239v-5.412h4.808v5.452c0 .085.023.168.066.239l.077.128.064.106.089.106.143.122v.296l.044.198.515 1.102c.051.11.144.193.255.227l.047.014v.337h-7.43v-.257zm1.323-9.318h4.808v.365h-4.808v-.365zm6.179 5.873h1.146c.227 0 .412-.198.412-.441v-.444h.189v4.331h-.996v-.413c0-.197-.122-.37-.299-.424l-.171-.052-.39-.835v-.404c0-.134-.057-.261-.155-.345l-.245-.21-.039-.064v-1.583h.136v.444c0 .244.184.441.412.441zm2.57-1.768v-.544h3.733v6.198h-.589v-2.261c-.031-.717-.58-1.279-1.25-1.279s-1.22.562-1.251 1.279v2.261h-.642v-5.654zm2.758-2.698l1.17 1.272h-3.963l1.113-1.213.127-.058h1.554zm2.4 4.465h1.146c.227 0 .412-.198.412-.441v-.444h.393v1.543l-.062.104-.245.21c-.098.084-.155.211-.155.345v.404l-.39.835-.172.052c-.177.054-.299.227-.299.424v.413h-1.229v-4.331h.189v.444c0 .244.184.441.412.441zm2.775-5.873h4.808v.365h-4.808v-.365zm-6.467 9.759v-2.229c.014-.241.201-.429.427-.429.227 0 .413.188.427.429v2.324h-.855v-.095zm12.574-.441v.257h-3.549l-.169-.257c-.396-.566-.792-.889-1.017-1.044v-1.141c0-.244-.184-.441-.412-.441-.227 0-.412.198-.412.441v2.441h-1.872v-.337l.047-.015c.111-.034.203-.116.255-.227l.515-1.102.044-.198v-.296l.143-.122.089-.106.165-.274c.043-.071.066-.154.066-.239v-5.412h4.808v5.452c0 .085.023.168.066.239l.141.234.089.106.143.122v.296l.044.198.515 1.102c.052.11.144.193.255.227l.047.014v.081zm-4.735 1.808v-1.726l.156.175c.104.124.212.271.32.441.083.131.165.277.245.438l.002.003.183.416.02.05.058.16.091.282c.168.565.291 1.25.323 2.077h-1.397v-2.317zm1.02-15.781l2.727 3.773h-5.453l2.727-3.773zm-16.682 0l2.727 3.773h-5.453l2.727-3.773z" id="Fill-15"/><path d="M16.205 97.761v-.815l-.038-.136c-.049-.091-.14-.154-.245-.154-.105 0-.196.062-.245.154l-.038.136v.937h.566v-.123" id="Fill-16"/><path d="M28.119 107.777c-.4 0-.619.091-.795.165-.145.061-.25.105-.496.105-.216 0-.323-.034-.445-.084.433-.3.561-.608.584-.673.048-.136.031-.288-.046-.407-.077-.12-.204-.191-.339-.191h-5.732c-.135 0-.262.071-.339.191-.077.119-.094.272-.046.407.019.054.117.292.419.549-.132-.036-.293-.062-.508-.062-.4 0-.619.092-.795.165-.145.061-.25.105-.495.105-.227 0-.412.198-.412.441 0 .244.184.441.412.441.4 0 .619-.092.795-.165.145-.061.25-.105.495-.105s.35.044.495.105c.176.074.395.165.795.165s.619-.092.795-.165c.145-.061.25-.105.495-.105s.35.044.495.105c.176.074.395.165.795.165s.619-.092.795-.165c.145-.061.25-.105.495-.105s.35.044.495.105c.176.074.395.165.795.165s.619-.092.795-.165c.145-.061.25-.105.496-.105.227 0 .412-.198.412-.441 0-.244-.184-.441-.412-.441zm-4.402-.064c-.579 0-1.028-.057-1.374-.139h2.747c-.346.082-.795.139-1.374.139z" id="Fill-17"/></g><g fill="#373D43" sketch:type="MSShapeGroup"><path d="M16.362 23.524c-.245 0-.35-.044-.495-.104-.176-.074-.395-.165-.795-.165s-.619.092-.795.165c-.145.061-.25.105-.496.105-.245 0-.35-.044-.495-.104-.176-.074-.395-.165-.795-.165s-.619.092-.795.165c-.145.061-.25.104-.495.104s-.35-.044-.496-.105c-.176-.073-.395-.165-.795-.165s-.619.092-.795.165c-.145.061-.25.104-.496.104-.245 0-.35-.044-.495-.104-.176-.074-.395-.165-.795-.165s-.619.092-.795.165c-.145.061-.25.104-.495.104-.227 0-.412.198-.412.441 0 .244.184.441.412.441.4 0 .619-.091.795-.165.145-.061.25-.105.495-.105s.35.044.495.105c.176.073.395.165.795.165s.619-.091.795-.165c.145-.061.25-.105.496-.105.245 0 .35.044.495.105.176.073.395.165.795.165s.619-.091.795-.165c.145-.061.25-.105.495-.105s.35.044.496.105c.176.073.395.165.795.165s.619-.091.795-.165c.145-.061.25-.105.496-.105.245 0 .35.044.495.105.176.073.395.165.795.165.227 0 .412-.197.412-.441s-.184-.441-.412-.441" id="Fill-1"/><path d="M11.988 8.721h3.01c.219 0 .431-.086.596-.242.195-.184.306-.448.306-.725l-.004-.084h1.43c.252 0 .495-.099.686-.278.224-.211.352-.515.352-.833 0-.319-.128-.622-.352-.833-.19-.179-.433-.278-.686-.278h-4.236c-.572 0-1.037.499-1.037 1.111l.022.229h-.087c-.497 0-.902.433-.902.966 0 .533.405.966.902.966zm0-1.05h1.103c.227 0 .412-.198.412-.441h-.002c0-.244-.184-.441-.412-.441-.118 0-.214-.103-.214-.229s.096-.229.214-.229h4.236l.141.058c.027.026.073.082.073.172 0 .089-.046.146-.073.171l-.141.058h-2.329c-.227 0-.412.197-.412.441s.184.441.412.441h.002l.051.022.027.062-.027.063-.051.021h-3.01c-.043 0-.078-.038-.078-.084 0-.046.035-.084.078-.084z" id="Fill-2"/><path d="M9.121 12.983c-.152 0-.276.128-.283.29v.937h.566v-.937c-.007-.161-.131-.29-.283-.29" id="Fill-3"/><path d="M6.222 12.983c-.152 0-.276.128-.283.29v.937h.566v-.937c-.007-.161-.131-.29-.283-.29" id="Fill-4"/><path d="M7.672 12.983c-.152 0-.276.128-.283.29v.937h.566v-.937c-.007-.161-.131-.29-.283-.29" id="Fill-5"/><path d="M9.121 15.331c-.152 0-.276.128-.283.29v.937h.566v-.937c-.007-.161-.131-.29-.283-.29" id="Fill-6"/><path d="M6.222 15.331c-.152 0-.276.128-.283.29v.937h.566v-.937c-.007-.161-.131-.29-.283-.29" id="Fill-7"/><path d="M7.672 15.331c-.152 0-.276.128-.283.29v.937h.566v-.937c-.007-.161-.131-.29-.283-.29" id="Fill-8"/><path d="M25.803 12.983c-.152 0-.276.128-.283.29v.937h.566v-.937c-.007-.161-.131-.29-.283-.29" id="Fill-9"/><path d="M22.904 12.983c-.152 0-.276.128-.283.29v.937h.566v-.937c-.007-.161-.131-.29-.283-.29" id="Fill-10"/><path d="M24.354 12.983c-.152 0-.276.128-.283.29v.937h.566v-.937c-.007-.161-.131-.29-.283-.29" id="Fill-11"/><path d="M25.803 15.331c-.152 0-.276.128-.283.29v.937h.566v-.937c-.007-.161-.131-.29-.283-.29" id="Fill-12"/><path d="M22.904 15.331c-.152 0-.276.128-.283.29v.937h.566v-.937c-.007-.161-.131-.29-.283-.29" id="Fill-13"/><path d="M24.354 15.331c-.152 0-.276.128-.283.29v.937h.566v-.937c-.007-.161-.131-.29-.283-.29" id="Fill-14"/><path d="M29.759 21.844c.051-.115.081-.243.081-.379 0-.487-.369-.882-.824-.882h-.124v-.413c0-.197-.122-.37-.298-.424l-.172-.052-.39-.835v-.404c0-.134-.057-.261-.155-.345l-.245-.21-.039-.064v-5.36c.145-.068.246-.223.246-.403 0-.181-.101-.335-.246-.404v-.403h.328c.228 0 .412-.198.412-.441 0-.115-.041-.219-.107-.297l-3.461-4.789v-1.266c0-.244-.184-.441-.412-.441-.227 0-.412.197-.412.441v1.266l-3.48 4.816c-.096.133-.113.313-.044.464.069.151.213.247.37.247h.351v.394c-.157.062-.27.222-.27.413 0 .19.113.351.27.413v2.886h-.805c-.227 0-.412.198-.412.441v.444h-.322v-.444c0-.244-.184-.441-.412-.441h-.601v-.528h.369c.166 0 .316-.107.38-.271.064-.164.03-.353-.087-.48l-1.802-1.958v-.801c0-.244-.184-.441-.412-.441-.227 0-.412.198-.412.441v.458h-1.204v-.458c0-.244-.184-.441-.412-.441-.227 0-.412.198-.412.441v.696l-1.892 2.063c-.116.127-.15.316-.086.48.064.164.214.271.38.271h.208v.528h-.601c-.227 0-.412.198-.412.441v.444h-.322v-.444c0-.244-.184-.441-.412-.441h-.548v-2.895c.145-.068.246-.223.246-.403 0-.181-.101-.335-.246-.404v-.403h.329c.227 0 .412-.198.412-.441 0-.115-.041-.219-.107-.297l-3.461-4.789v-1.266c0-.244-.184-.441-.412-.441-.227 0-.412.197-.412.441v1.266l-3.48 4.816c-.096.133-.113.313-.044.464.069.151.213.247.37.247h.351v.394c-.157.062-.27.222-.27.413 0 .19.113.351.27.413v5.311l-.062.104-.245.21c-.098.084-.155.211-.155.345v.404l-.39.835-.172.052c-.177.054-.299.227-.299.424v.413h-.266c-.455 0-.824.395-.824.882l.024.207c-.045.07-.071.156-.071.248 0 .244.184.441.412.441.245 0 .35.044.495.105.176.074.395.165.795.165s.619-.091.795-.165c.145-.061.25-.105.495-.105s.35.044.495.105c.176.074.395.165.795.165s.619-.091.795-.165c.145-.061.25-.105.495-.105s.35.044.495.105c.176.074.395.165.795.165.329 0 .534-.062.695-.125h1.191c.161.063.366.125.695.125.329 0 .534-.062.695-.125h1.19c.161.063.366.125.695.125.329 0 .534-.062.695-.125h1.19c.161.063.366.125.695.125.329 0 .534-.062.695-.125h1.19c.161.063.366.125.695.125.329 0 .534-.062.695-.125h1.191c.161.063.366.125.695.125.366 0 .58-.076.749-.146v2.662c0 .244.184.441.412.441h2.23c.228 0 .412-.198.412-.441l-.002-.04c-.003-1.069-.142-1.948-.351-2.672.113-.044.219-.074.421-.074.245 0 .35.044.495.105.176.074.395.165.795.165s.619-.091.795-.165c.145-.061.251-.105.496-.105s.35.044.496.105c.176.074.395.165.795.165.227 0 .412-.197.412-.441 0-.141-.063-.265-.159-.346zm-25.802-1.262v-.08l.047-.015c.111-.034.203-.116.255-.227l.515-1.102.043-.198v-.296l.143-.122.089-.106.165-.274c.043-.071.066-.154.066-.239v-5.412h4.808v5.452c0 .085.023.168.066.239l.077.128.064.106.089.106.143.122v.296l.044.198.515 1.102c.051.11.144.193.255.227l.047.014v.337h-7.43v-.257zm1.323-9.318h4.808v.365h-4.808v-.365zm6.179 5.873h1.146c.227 0 .412-.198.412-.441v-.444h.189v4.331h-.996v-.413c0-.197-.122-.37-.299-.424l-.171-.052-.39-.835v-.404c0-.134-.057-.261-.155-.345l-.245-.21-.039-.064v-1.583h.136v.444c0 .244.184.441.412.441zm2.57-1.768v-.544h3.733v6.198h-.589v-2.261c-.031-.717-.58-1.279-1.25-1.279s-1.22.562-1.251 1.279v2.261h-.642v-5.654zm2.758-2.698l1.17 1.272h-3.963l1.113-1.213.127-.058h1.554zm2.4 4.465h1.146c.227 0 .412-.198.412-.441v-.444h.393v1.543l-.062.104-.245.21c-.098.084-.155.211-.155.345v.404l-.39.835-.172.052c-.177.054-.299.227-.299.424v.413h-1.229v-4.331h.189v.444c0 .244.184.441.412.441zm2.775-5.873h4.808v.365h-4.808v-.365zm-6.467 9.759v-2.229c.014-.241.201-.429.427-.429.227 0 .413.188.427.429v2.324h-.855v-.095zm12.574-.441v.257h-3.549l-.169-.257c-.396-.566-.792-.889-1.017-1.044v-1.141c0-.244-.184-.441-.412-.441-.227 0-.412.198-.412.441v2.441h-1.872v-.337l.047-.015c.111-.034.203-.116.255-.227l.515-1.102.044-.198v-.296l.143-.122.089-.106.165-.274c.043-.071.066-.154.066-.239v-5.412h4.808v5.452c0 .085.023.168.066.239l.141.234.089.106.143.122v.296l.044.198.515 1.102c.052.11.144.193.255.227l.047.014v.081zm-4.735 1.808v-1.726l.156.175c.104.124.212.271.32.441.083.131.165.277.245.438l.002.003.183.416.02.05.058.16.091.282c.168.565.291 1.25.323 2.077h-1.397v-2.317zm1.02-15.781l2.727 3.773h-5.453l2.727-3.773zm-16.682 0l2.727 3.773h-5.453l2.727-3.773z" id="Fill-15"/><path d="M16.205 16.761v-.815l-.038-.136c-.049-.091-.14-.154-.245-.154-.105 0-.196.062-.245.154l-.038.136v.937h.566v-.123" id="Fill-16"/><path d="M28.119 26.777c-.4 0-.619.091-.795.165-.145.061-.25.105-.496.105-.216 0-.323-.034-.445-.084.433-.3.561-.608.584-.673.048-.136.031-.288-.046-.407-.077-.12-.204-.191-.339-.191h-5.732c-.135 0-.262.071-.339.191-.077.119-.094.272-.046.407.019.054.117.292.419.549-.132-.036-.293-.062-.508-.062-.4 0-.619.092-.795.165-.145.061-.25.105-.495.105-.227 0-.412.198-.412.441 0 .244.184.441.412.441.4 0 .619-.092.795-.165.145-.061.25-.105.495-.105s.35.044.495.105c.176.074.395.165.795.165s.619-.092.795-.165c.145-.061.25-.105.495-.105s.35.044.495.105c.176.074.395.165.795.165s.619-.092.795-.165c.145-.061.25-.105.495-.105s.35.044.495.105c.176.074.395.165.795.165s.619-.092.795-.165c.145-.061.25-.105.496-.105.227 0 .412-.198.412-.441 0-.244-.184-.441-.412-.441zm-4.402-.064c-.579 0-1.028-.057-1.374-.139h2.747c-.346.082-.795.139-1.374.139z" id="Fill-17"/></g><g fill="#67737B" sketch:type="MSShapeGroup"><path d="M16.362 63.524c-.245 0-.35-.044-.495-.104-.176-.074-.395-.165-.795-.165s-.619.092-.795.165c-.145.061-.25.105-.496.105-.245 0-.35-.044-.495-.104-.176-.074-.395-.165-.795-.165s-.619.092-.795.165c-.145.061-.25.104-.495.104s-.35-.044-.496-.105c-.176-.073-.395-.165-.795-.165s-.619.092-.795.165c-.145.061-.25.104-.496.104-.245 0-.35-.044-.495-.104-.176-.074-.395-.165-.795-.165s-.619.092-.795.165c-.145.061-.25.104-.495.104-.227 0-.412.198-.412.441 0 .244.184.441.412.441.4 0 .619-.091.795-.165.145-.061.25-.105.495-.105s.35.044.495.105c.176.073.395.165.795.165s.619-.091.795-.165c.145-.061.25-.105.496-.105.245 0 .35.044.495.105.176.073.395.165.795.165s.619-.091.795-.165c.145-.061.25-.105.495-.105s.35.044.496.105c.176.073.395.165.795.165s.619-.091.795-.165c.145-.061.25-.105.496-.105.245 0 .35.044.495.105.176.073.395.165.795.165.227 0 .412-.197.412-.441s-.184-.441-.412-.441" id="Fill-1"/><path d="M11.988 48.721h3.01c.219 0 .431-.086.596-.242.195-.184.306-.448.306-.725l-.004-.084h1.43c.252 0 .495-.099.686-.278.224-.211.352-.515.352-.833 0-.319-.128-.622-.352-.833-.19-.179-.433-.278-.686-.278h-4.236c-.572 0-1.037.499-1.037 1.111l.022.229h-.087c-.497 0-.902.433-.902.966 0 .533.405.966.902.966zm0-1.05h1.103c.227 0 .412-.198.412-.441h-.002c0-.244-.184-.441-.412-.441-.118 0-.214-.103-.214-.229s.096-.229.214-.229h4.236l.141.058c.027.026.073.082.073.172 0 .089-.046.146-.073.171l-.141.058h-2.329c-.227 0-.412.197-.412.441s.184.441.412.441h.002l.051.022.027.062-.027.063-.051.021h-3.01c-.043 0-.078-.038-.078-.084 0-.046.035-.084.078-.084z" id="Fill-2"/><path d="M9.121 52.983c-.152 0-.276.128-.283.29v.937h.566v-.937c-.007-.161-.131-.29-.283-.29" id="Fill-3"/><path d="M6.222 52.983c-.152 0-.276.128-.283.29v.937h.566v-.937c-.007-.161-.131-.29-.283-.29" id="Fill-4"/><path d="M7.672 52.983c-.152 0-.276.128-.283.29v.937h.566v-.937c-.007-.161-.131-.29-.283-.29" id="Fill-5"/><path d="M9.121 55.331c-.152 0-.276.128-.283.29v.937h.566v-.937c-.007-.161-.131-.29-.283-.29" id="Fill-6"/><path d="M6.222 55.331c-.152 0-.276.128-.283.29v.937h.566v-.937c-.007-.161-.131-.29-.283-.29" id="Fill-7"/><path d="M7.672 55.331c-.152 0-.276.128-.283.29v.937h.566v-.937c-.007-.161-.131-.29-.283-.29" id="Fill-8"/><path d="M25.803 52.983c-.152 0-.276.128-.283.29v.937h.566v-.937c-.007-.161-.131-.29-.283-.29" id="Fill-9"/><path d="M22.904 52.983c-.152 0-.276.128-.283.29v.937h.566v-.937c-.007-.161-.131-.29-.283-.29" id="Fill-10"/><path d="M24.354 52.983c-.152 0-.276.128-.283.29v.937h.566v-.937c-.007-.161-.131-.29-.283-.29" id="Fill-11"/><path d="M25.803 55.331c-.152 0-.276.128-.283.29v.937h.566v-.937c-.007-.161-.131-.29-.283-.29" id="Fill-12"/><path d="M22.904 55.331c-.152 0-.276.128-.283.29v.937h.566v-.937c-.007-.161-.131-.29-.283-.29" id="Fill-13"/><path d="M24.354 55.331c-.152 0-.276.128-.283.29v.937h.566v-.937c-.007-.161-.131-.29-.283-.29" id="Fill-14"/><path d="M29.759 61.844c.051-.115.081-.243.081-.379 0-.487-.369-.882-.824-.882h-.124v-.413c0-.197-.122-.37-.298-.424l-.172-.052-.39-.835v-.404c0-.134-.057-.261-.155-.345l-.245-.21-.039-.064v-5.36c.145-.068.246-.223.246-.403 0-.181-.101-.335-.246-.404v-.403h.328c.228 0 .412-.198.412-.441 0-.115-.041-.219-.107-.297l-3.461-4.789v-1.266c0-.244-.184-.441-.412-.441-.227 0-.412.197-.412.441v1.266l-3.48 4.816c-.096.133-.113.313-.044.464.069.151.213.247.37.247h.351v.394c-.157.062-.27.222-.27.413 0 .19.113.351.27.413v2.886h-.805c-.227 0-.412.198-.412.441v.444h-.322v-.444c0-.244-.184-.441-.412-.441h-.601v-.528h.369c.166 0 .316-.107.38-.271.064-.164.03-.353-.087-.48l-1.802-1.958v-.801c0-.244-.184-.441-.412-.441-.227 0-.412.198-.412.441v.458h-1.204v-.458c0-.244-.184-.441-.412-.441-.227 0-.412.198-.412.441v.696l-1.892 2.063c-.116.127-.15.316-.086.48.064.164.214.271.38.271h.208v.528h-.601c-.227 0-.412.198-.412.441v.444h-.322v-.444c0-.244-.184-.441-.412-.441h-.548v-2.895c.145-.068.246-.223.246-.403 0-.181-.101-.335-.246-.404v-.403h.329c.227 0 .412-.198.412-.441 0-.115-.041-.219-.107-.297l-3.461-4.789v-1.266c0-.244-.184-.441-.412-.441-.227 0-.412.197-.412.441v1.266l-3.48 4.816c-.096.133-.113.313-.044.464.069.151.213.247.37.247h.351v.394c-.157.062-.27.222-.27.413 0 .19.113.351.27.413v5.311l-.062.104-.245.21c-.098.084-.155.211-.155.345v.404l-.39.835-.172.052c-.177.054-.299.227-.299.424v.413h-.266c-.455 0-.824.395-.824.882l.024.207c-.045.07-.071.156-.071.248 0 .244.184.441.412.441.245 0 .35.044.495.105.176.074.395.165.795.165s.619-.091.795-.165c.145-.061.25-.105.495-.105s.35.044.495.105c.176.074.395.165.795.165s.619-.091.795-.165c.145-.061.25-.105.495-.105s.35.044.495.105c.176.074.395.165.795.165.329 0 .534-.062.695-.125h1.191c.161.063.366.125.695.125.329 0 .534-.062.695-.125h1.19c.161.063.366.125.695.125.329 0 .534-.062.695-.125h1.19c.161.063.366.125.695.125.329 0 .534-.062.695-.125h1.19c.161.063.366.125.695.125.329 0 .534-.062.695-.125h1.191c.161.063.366.125.695.125.366 0 .58-.076.749-.146v2.662c0 .244.184.441.412.441h2.23c.228 0 .412-.198.412-.441l-.002-.04c-.003-1.069-.142-1.948-.351-2.672.113-.044.219-.074.421-.074.245 0 .35.044.495.105.176.074.395.165.795.165s.619-.091.795-.165c.145-.061.251-.105.496-.105s.35.044.496.105c.176.074.395.165.795.165.227 0 .412-.197.412-.441 0-.141-.063-.265-.159-.346zm-25.802-1.262v-.08l.047-.015c.111-.034.203-.116.255-.227l.515-1.102.043-.198v-.296l.143-.122.089-.106.165-.274c.043-.071.066-.154.066-.239v-5.412h4.808v5.452c0 .085.023.168.066.239l.077.128.064.106.089.106.143.122v.296l.044.198.515 1.102c.051.11.144.193.255.227l.047.014v.337h-7.43v-.257zm1.323-9.318h4.808v.365h-4.808v-.365zm6.179 5.873h1.146c.227 0 .412-.198.412-.441v-.444h.189v4.331h-.996v-.413c0-.197-.122-.37-.299-.424l-.171-.052-.39-.835v-.404c0-.134-.057-.261-.155-.345l-.245-.21-.039-.064v-1.583h.136v.444c0 .244.184.441.412.441zm2.57-1.768v-.544h3.733v6.198h-.589v-2.261c-.031-.717-.58-1.279-1.25-1.279s-1.22.562-1.251 1.279v2.261h-.642v-5.654zm2.758-2.698l1.17 1.272h-3.963l1.113-1.213.127-.058h1.554zm2.4 4.465h1.146c.227 0 .412-.198.412-.441v-.444h.393v1.543l-.062.104-.245.21c-.098.084-.155.211-.155.345v.404l-.39.835-.172.052c-.177.054-.299.227-.299.424v.413h-1.229v-4.331h.189v.444c0 .244.184.441.412.441zm2.775-5.873h4.808v.365h-4.808v-.365zm-6.467 9.759v-2.229c.014-.241.201-.429.427-.429.227 0 .413.188.427.429v2.324h-.855v-.095zm12.574-.441v.257h-3.549l-.169-.257c-.396-.566-.792-.889-1.017-1.044v-1.141c0-.244-.184-.441-.412-.441-.227 0-.412.198-.412.441v2.441h-1.872v-.337l.047-.015c.111-.034.203-.116.255-.227l.515-1.102.044-.198v-.296l.143-.122.089-.106.165-.274c.043-.071.066-.154.066-.239v-5.412h4.808v5.452c0 .085.023.168.066.239l.141.234.089.106.143.122v.296l.044.198.515 1.102c.052.11.144.193.255.227l.047.014v.081zm-4.735 1.808v-1.726l.156.175c.104.124.212.271.32.441.083.131.165.277.245.438l.002.003.183.416.02.05.058.16.091.282c.168.565.291 1.25.323 2.077h-1.397v-2.317zm1.02-15.781l2.727 3.773h-5.453l2.727-3.773zm-16.682 0l2.727 3.773h-5.453l2.727-3.773z" id="Fill-15"/><path d="M16.205 56.761v-.815l-.038-.136c-.049-.091-.14-.154-.245-.154-.105 0-.196.062-.245.154l-.038.136v.937h.566v-.123" id="Fill-16"/><path d="M28.119 66.777c-.4 0-.619.091-.795.165-.145.061-.25.105-.496.105-.216 0-.323-.034-.445-.084.433-.3.561-.608.584-.673.048-.136.031-.288-.046-.407-.077-.12-.204-.191-.339-.191h-5.732c-.135 0-.262.071-.339.191-.077.119-.094.272-.046.407.019.054.117.292.419.549-.132-.036-.293-.062-.508-.062-.4 0-.619.092-.795.165-.145.061-.25.105-.495.105-.227 0-.412.198-.412.441 0 .244.184.441.412.441.4 0 .619-.092.795-.165.145-.061.25-.105.495-.105s.35.044.495.105c.176.074.395.165.795.165s.619-.092.795-.165c.145-.061.25-.105.495-.105s.35.044.495.105c.176.074.395.165.795.165s.619-.092.795-.165c.145-.061.25-.105.495-.105s.35.044.495.105c.176.074.395.165.795.165s.619-.092.795-.165c.145-.061.25-.105.496-.105.227 0 .412-.198.412-.441 0-.244-.184-.441-.412-.441zm-4.402-.064c-.579 0-1.028-.057-1.374-.139h2.747c-.346.082-.795.139-1.374.139z" id="Fill-17"/></g><g fill="#206FAC" sketch:type="MSShapeGroup"><path d="M16.362 143.524c-.245 0-.35-.044-.495-.104-.176-.074-.395-.165-.795-.165s-.619.092-.795.165c-.145.061-.25.105-.496.105-.245 0-.35-.044-.495-.104-.176-.074-.395-.165-.795-.165s-.619.092-.795.165c-.145.061-.25.104-.495.104s-.35-.044-.496-.105c-.176-.073-.395-.165-.795-.165s-.619.092-.795.165c-.145.061-.25.104-.496.104-.245 0-.35-.044-.495-.104-.176-.074-.395-.165-.795-.165s-.619.092-.795.165c-.145.061-.25.104-.495.104-.227 0-.412.198-.412.441 0 .244.184.441.412.441.4 0 .619-.091.795-.165.145-.061.25-.105.495-.105s.35.044.495.105c.176.073.395.165.795.165s.619-.091.795-.165c.145-.061.25-.105.496-.105.245 0 .35.044.495.105.176.073.395.165.795.165s.619-.091.795-.165c.145-.061.25-.105.495-.105s.35.044.496.105c.176.073.395.165.795.165s.619-.091.795-.165c.145-.061.25-.105.496-.105.245 0 .35.044.495.105.176.073.395.165.795.165.227 0 .412-.197.412-.441s-.184-.441-.412-.441"/><path d="M11.988 128.721h3.01c.219 0 .431-.086.596-.242.195-.184.306-.448.306-.725l-.004-.084h1.43c.252 0 .495-.099.686-.278.224-.211.352-.515.352-.833 0-.319-.128-.622-.352-.833-.19-.179-.433-.278-.686-.278h-4.236c-.572 0-1.037.499-1.037 1.111l.022.229h-.087c-.497 0-.902.433-.902.966 0 .533.405.966.902.966zm0-1.05h1.103c.227 0 .412-.198.412-.441h-.002c0-.244-.184-.441-.412-.441-.118 0-.214-.103-.214-.229s.096-.229.214-.229h4.236l.141.058c.027.026.073.082.073.172 0 .089-.046.146-.073.171l-.141.058h-2.329c-.227 0-.412.197-.412.441s.184.441.412.441h.002l.051.022.027.062-.027.063-.051.021h-3.01c-.043 0-.078-.038-.078-.084 0-.046.035-.084.078-.084z"/><path d="M9.121 132.983c-.152 0-.276.128-.283.29v.937h.566v-.937c-.007-.161-.131-.29-.283-.29"/><path d="M6.222 132.983c-.152 0-.276.128-.283.29v.937h.566v-.937c-.007-.161-.131-.29-.283-.29"/><path d="M7.672 132.983c-.152 0-.276.128-.283.29v.937h.566v-.937c-.007-.161-.131-.29-.283-.29"/><path d="M9.121 135.331c-.152 0-.276.128-.283.29v.937h.566v-.937c-.007-.161-.131-.29-.283-.29"/><path d="M6.222 135.331c-.152 0-.276.128-.283.29v.937h.566v-.937c-.007-.161-.131-.29-.283-.29"/><path d="M7.672 135.331c-.152 0-.276.128-.283.29v.937h.566v-.937c-.007-.161-.131-.29-.283-.29"/><path d="M25.803 132.983c-.152 0-.276.128-.283.29v.937h.566v-.937c-.007-.161-.131-.29-.283-.29"/><path d="M22.904 132.983c-.152 0-.276.128-.283.29v.937h.566v-.937c-.007-.161-.131-.29-.283-.29"/><path d="M24.354 132.983c-.152 0-.276.128-.283.29v.937h.566v-.937c-.007-.161-.131-.29-.283-.29"/><path d="M25.803 135.331c-.152 0-.276.128-.283.29v.937h.566v-.937c-.007-.161-.131-.29-.283-.29"/><path d="M22.904 135.331c-.152 0-.276.128-.283.29v.937h.566v-.937c-.007-.161-.131-.29-.283-.29"/><path d="M24.354 135.331c-.152 0-.276.128-.283.29v.937h.566v-.937c-.007-.161-.131-.29-.283-.29"/><path d="M29.759 141.844c.051-.115.081-.243.081-.379 0-.487-.369-.882-.824-.882h-.124v-.413c0-.197-.122-.37-.298-.424l-.172-.052-.39-.835v-.404c0-.134-.057-.261-.155-.345l-.245-.21-.039-.064v-5.36c.145-.068.246-.223.246-.403 0-.181-.101-.335-.246-.404v-.403h.328c.228 0 .412-.198.412-.441 0-.115-.041-.219-.107-.297l-3.461-4.789v-1.266c0-.244-.184-.441-.412-.441-.227 0-.412.197-.412.441v1.266l-3.48 4.816c-.096.133-.113.313-.044.464.069.151.213.247.37.247h.351v.394c-.157.062-.27.222-.27.413 0 .19.113.351.27.413v2.886h-.805c-.227 0-.412.198-.412.441v.444h-.322v-.444c0-.244-.184-.441-.412-.441h-.601v-.528h.369c.166 0 .316-.107.38-.271.064-.164.03-.353-.087-.48l-1.802-1.958v-.801c0-.244-.184-.441-.412-.441-.227 0-.412.198-.412.441v.458h-1.204v-.458c0-.244-.184-.441-.412-.441-.227 0-.412.198-.412.441v.696l-1.892 2.063c-.116.127-.15.316-.086.48.064.164.214.271.38.271h.208v.528h-.601c-.227 0-.412.198-.412.441v.444h-.322v-.444c0-.244-.184-.441-.412-.441h-.548v-2.895c.145-.068.246-.223.246-.403 0-.181-.101-.335-.246-.404v-.403h.329c.227 0 .412-.198.412-.441 0-.115-.041-.219-.107-.297l-3.461-4.789v-1.266c0-.244-.184-.441-.412-.441-.227 0-.412.197-.412.441v1.266l-3.48 4.816c-.096.133-.113.313-.044.464.069.151.213.247.37.247h.351v.394c-.157.062-.27.222-.27.413 0 .19.113.351.27.413v5.311l-.062.104-.245.21c-.098.084-.155.211-.155.345v.404l-.39.835-.172.052c-.177.054-.299.227-.299.424v.413h-.266c-.455 0-.824.395-.824.882l.024.207c-.045.07-.071.156-.071.248 0 .244.184.441.412.441.245 0 .35.044.495.105.176.074.395.165.795.165s.619-.091.795-.165c.145-.061.25-.105.495-.105s.35.044.495.105c.176.074.395.165.795.165s.619-.091.795-.165c.145-.061.25-.105.495-.105s.35.044.495.105c.176.074.395.165.795.165.329 0 .534-.062.695-.125h1.191c.161.063.366.125.695.125.329 0 .534-.062.695-.125h1.19c.161.063.366.125.695.125.329 0 .534-.062.695-.125h1.19c.161.063.366.125.695.125.329 0 .534-.062.695-.125h1.19c.161.063.366.125.695.125.329 0 .534-.062.695-.125h1.191c.161.063.366.125.695.125.366 0 .58-.076.749-.146v2.662c0 .244.184.441.412.441h2.23c.228 0 .412-.198.412-.441l-.002-.04c-.003-1.069-.142-1.948-.351-2.672.113-.044.219-.074.421-.074.245 0 .35.044.495.105.176.074.395.165.795.165s.619-.091.795-.165c.145-.061.251-.105.496-.105s.35.044.496.105c.176.074.395.165.795.165.227 0 .412-.197.412-.441 0-.141-.063-.265-.159-.346zm-25.802-1.262v-.08l.047-.015c.111-.034.203-.116.255-.227l.515-1.102.043-.198v-.296l.143-.122.089-.106.165-.274c.043-.071.066-.154.066-.239v-5.412h4.808v5.452c0 .085.023.168.066.239l.077.128.064.106.089.106.143.122v.296l.044.198.515 1.102c.051.11.144.193.255.227l.047.014v.337h-7.43v-.257zm1.323-9.318h4.808v.365h-4.808v-.365zm6.179 5.873h1.146c.227 0 .412-.198.412-.441v-.444h.189v4.331h-.996v-.413c0-.197-.122-.37-.299-.424l-.171-.052-.39-.835v-.404c0-.134-.057-.261-.155-.345l-.245-.21-.039-.064v-1.583h.136v.444c0 .244.184.441.412.441zm2.57-1.768v-.544h3.733v6.198h-.589v-2.261c-.031-.717-.58-1.279-1.25-1.279s-1.22.562-1.251 1.279v2.261h-.642v-5.654zm2.758-2.698l1.17 1.272h-3.963l1.113-1.213.127-.058h1.554zm2.4 4.465h1.146c.227 0 .412-.198.412-.441v-.444h.393v1.543l-.062.104-.245.21c-.098.084-.155.211-.155.345v.404l-.39.835-.172.052c-.177.054-.299.227-.299.424v.413h-1.229v-4.331h.189v.444c0 .244.184.441.412.441zm2.775-5.873h4.808v.365h-4.808v-.365zm-6.467 9.759v-2.229c.014-.241.201-.429.427-.429.227 0 .413.188.427.429v2.324h-.855v-.095zm12.574-.441v.257h-3.549l-.169-.257c-.396-.566-.792-.889-1.017-1.044v-1.141c0-.244-.184-.441-.412-.441-.227 0-.412.198-.412.441v2.441h-1.872v-.337l.047-.015c.111-.034.203-.116.255-.227l.515-1.102.044-.198v-.296l.143-.122.089-.106.165-.274c.043-.071.066-.154.066-.239v-5.412h4.808v5.452c0 .085.023.168.066.239l.141.234.089.106.143.122v.296l.044.198.515 1.102c.052.11.144.193.255.227l.047.014v.081zm-4.735 1.808v-1.726l.156.175c.104.124.212.271.32.441.083.131.165.277.245.438l.002.003.183.416.02.05.058.16.091.282c.168.565.291 1.25.323 2.077h-1.397v-2.317zm1.02-15.781l2.727 3.773h-5.453l2.727-3.773zm-16.682 0l2.727 3.773h-5.453l2.727-3.773z"/><path d="M16.205 136.761v-.815l-.038-.136c-.049-.091-.14-.154-.245-.154-.105 0-.196.062-.245.154l-.038.136v.937h.566v-.123"/><path d="M28.119 146.777c-.4 0-.619.091-.795.165-.145.061-.25.105-.496.105-.216 0-.323-.034-.445-.084.433-.3.561-.608.584-.673.048-.136.031-.288-.046-.407-.077-.12-.204-.191-.339-.191h-5.732c-.135 0-.262.071-.339.191-.077.119-.094.272-.046.407.019.054.117.292.419.549-.132-.036-.293-.062-.508-.062-.4 0-.619.092-.795.165-.145.061-.25.105-.495.105-.227 0-.412.198-.412.441 0 .244.184.441.412.441.4 0 .619-.092.795-.165.145-.061.25-.105.495-.105s.35.044.495.105c.176.074.395.165.795.165s.619-.092.795-.165c.145-.061.25-.105.495-.105s.35.044.495.105c.176.074.395.165.795.165s.619-.092.795-.165c.145-.061.25-.105.495-.105s.35.044.495.105c.176.074.395.165.795.165s.619-.092.795-.165c.145-.061.25-.105.496-.105.227 0 .412-.198.412-.441 0-.244-.184-.441-.412-.441zm-4.402-.064c-.579 0-1.028-.057-1.374-.139h2.747c-.346.082-.795.139-1.374.139z"/></g></g></g></svg>