<svg width="32" height="232" viewBox="0 0 32 232" xmlns="http://www.w3.org/2000/svg" xmlns:sketch="http://www.bohemiancoding.com/sketch/ns"><title>Kuala-Lumpur</title><g sketch:type="MSLayerGroup" fill="none"><g fill="#373D43" sketch:type="MSShapeGroup"><path d="M17.54 47.103l.176.045c.103 0 .203-.044.276-.122.073-.077.115-.183.115-.293 0-.157-.084-.3-.216-.37-.109-.058-.242-.057-.35.001l-.035.022-.064.054c-.074.077-.115.183-.115.293 0 .11.041.215.115.293l.099.075" id="Fill-1"/><path d="M15.398 49.199c-.067-.035-.143-.05-.218-.04l-.158.058-.072.059c-.12.126-.149.321-.073.48.038.079.098.142.172.183l.177.044c.103 0 .203-.043.276-.121.118-.126.148-.319.073-.478-.038-.08-.1-.145-.175-.185" id="Fill-2"/><path d="M13.714 46.216l.324.188.177.343c.069.133.2.215.342.215.142 0 .274-.082.342-.215l.177-.343.324-.188c.125-.072.203-.211.203-.362s-.078-.29-.203-.362l-.324-.188-.177-.344c-.069-.132-.2-.214-.342-.214-.142 0-.273.082-.342.214l-.177.344-.324.188c-.125.072-.203.211-.203.362s.078.29.203.362" id="Fill-3"/><path d="M23.77 68.839h-.546v-14.085c0-.368-.227-.681-.542-.787-.164-1.79-.356-3.246-.573-4.342l.005-.055c0-.082-.023-.158-.062-.222-.254-1.191-.625-2.363-1.389-2.658v-.553c.201-.016.36-.192.36-.41 0-.218-.159-.394-.36-.41v-2.035c0-.228-.175-.413-.39-.413-.215 0-.39.185-.39.413v2.036c-.196.021-.35.195-.35.409 0 .213.154.388.35.409v.554c-.802.31-1.167 1.584-1.418 2.834-.223 1.113-.418 2.617-.581 4.476-.272.129-.462.419-.462.755v4.208h-3.316v-4.208c0-.368-.228-.681-.542-.787-.164-1.79-.356-3.246-.573-4.342l.005-.056c0-.082-.023-.158-.062-.222-.254-1.191-.625-2.363-1.389-2.658v-.554c.199-.019.355-.194.355-.409 0-.216-.157-.391-.355-.409v-2.035c0-.228-.175-.413-.39-.413-.215 0-.39.185-.39.413v2.035c-.199.019-.356.194-.356.409 0 .215.157.39.356.409v.553c-.802.31-1.167 1.584-1.418 2.834-.223 1.113-.418 2.617-.581 4.477-.272.129-.462.419-.462.755v14.085h-.586c-.43 0-.779.369-.779.826 0 .456.349.826.779.826h16.053c.43 0 .779-.37.779-.826 0-.457-.349-.826-.779-.826zm-12.613-20.11l.125.428h-.248l.123-.428zm.311 1.254l.028.146h-.672l.028-.146h.616zm8.808-1.254l.124.428h-.248l.123-.428zm.311 1.254l.028.146h-.672l.028-.146h.617zm1.079 18.857h-.399v-7.075c0-.228-.175-.413-.39-.413-.215 0-.39.185-.39.413v7.075h-.354v-7.075c0-.228-.175-.413-.39-.413-.215 0-.39.185-.39.413v7.075h-.37v-7.961h2.683v7.961zm-2.683-13.362c.221-.13.376-.37.399-.653l.008-.091h1.794l.008.094c.026.313.215.573.473.689v.198h-2.683v-.237zm.676-3.446h1.248l.049.406h-1.345l.048-.406zm1.135-.826h-1.026l.037-.25h.951l.038.25zm-1.272 2.058h1.525l.064.643h-1.65l.061-.643zm-.539 3.276h2.683v1.224h-2.683v-1.224zm0 2.05h2.683v1.461h-2.683v-1.461zm-1.559 4.191l-.983-1.869h.983v1.869zm-7.559-7.304c.221-.13.377-.37.4-.653l.008-.091h1.794l.008.094c.026.313.215.573.473.689v.198h-2.683v-.237zm.676-3.446h1.247l.05.406h-1.345l.048-.406zm1.135-.826h-1.026l.037-.25h.951l.038.25zm-1.271 2.058h1.525l.064.643h-1.65l.062-.643zm-.54 3.276h2.683v1.224h-2.683v-1.224zm0 2.05h2.683v1.461h-2.683v-1.461zm4.243 2.322h1.059l-1.059 2.012v-2.012zm-4.243-.035h2.683v7.961h-.412v-7.075c0-.228-.175-.413-.39-.413-.215 0-.39.185-.39.413v7.075h-.354v-7.075c0-.228-.175-.413-.39-.413-.215 0-.39.185-.39.413v7.075h-.357v-7.961zm4.243 3.743l1.695-3.223 1.62 3.08v4.361h-3.316v-4.218zm0-4.833h3.316v.297h-3.316v-.297z" id="Fill-4"/></g><g fill="#fff" sketch:type="MSShapeGroup"><path d="M17.769 8.015l.18.044c.106 0 .207-.043.282-.119.075-.075.117-.179.117-.286 0-.153-.086-.293-.221-.362-.111-.056-.247-.056-.358.001l-.036.022-.065.052c-.076.075-.118.179-.118.287 0 .108.042.211.118.287l.101.074" id="Fill-1"/><path d="M15.581 10.065c-.069-.035-.146-.048-.223-.039l-.162.057-.074.058c-.122.123-.153.314-.075.469.039.077.1.139.176.179l.18.043c.106 0 .207-.042.282-.118.121-.123.151-.312.075-.467-.039-.078-.102-.142-.179-.181" id="Fill-2"/><path d="M13.86 7.147l.331.184.181.336c.07.13.204.21.349.21.146 0 .28-.08.35-.21l.181-.336.331-.184c.128-.071.207-.207.207-.355s-.079-.283-.207-.354l-.331-.184-.181-.336c-.07-.129-.204-.21-.35-.21s-.279.081-.349.21l-.181.336-.331.184c-.128.071-.207.206-.207.354s.079.284.207.355" id="Fill-3"/><path d="M24.135 29.282h-.558v-13.782c0-.361-.232-.666-.554-.77-.167-1.751-.364-3.176-.585-4.249l.005-.054c0-.08-.024-.154-.063-.217-.259-1.165-.639-2.312-1.419-2.601v-.541c.206-.015.368-.188.368-.401 0-.213-.162-.386-.368-.401v-1.991c0-.223-.178-.404-.398-.404-.22 0-.398.181-.398.404v1.992c-.201.021-.358.191-.358.4 0 .209.157.379.358.4v.542c-.819.304-1.193 1.55-1.449 2.773-.228 1.089-.427 2.56-.594 4.38-.278.126-.472.41-.472.739v4.117h-3.388v-4.117c0-.361-.233-.666-.554-.77-.167-1.751-.364-3.176-.585-4.249l.005-.054c0-.08-.024-.154-.063-.217-.259-1.166-.639-2.312-1.419-2.601v-.542c.203-.019.363-.19.363-.401 0-.211-.16-.382-.363-.401v-1.992c0-.223-.178-.404-.398-.404-.22 0-.398.181-.398.404v1.992c-.203.018-.364.189-.364.401 0 .211.16.382.364.401v.541c-.819.304-1.193 1.55-1.449 2.773-.228 1.089-.427 2.561-.594 4.38-.278.126-.472.41-.472.739v13.782h-.598c-.44 0-.796.361-.796.808 0 .446.356.808.796.808h16.4c.44 0 .796-.362.796-.808 0-.447-.356-.808-.796-.808zm-12.888-19.677l.128.419h-.254l.126-.419zm.317 1.227l.029.143h-.687l.028-.143h.63zm8.999-1.227l.127.419h-.253l.126-.419zm.317 1.227l.029.143h-.687l.028-.143h.63zm1.102 18.451h-.408v-6.922c0-.223-.178-.404-.398-.404-.22 0-.398.181-.398.404v6.922h-.362v-6.922c0-.223-.178-.404-.398-.404-.22 0-.398.181-.398.404v6.922h-.378v-7.79h2.741v7.79zm-2.741-13.074c.225-.127.385-.362.408-.639l.008-.089h1.833l.008.092c.027.307.22.561.484.674v.194h-2.741v-.231zm.69-3.371h1.275l.05.397h-1.375l.049-.397zm1.16-.808h-1.048l.038-.245h.972l.039.245zm-1.3 2.013h1.559l.065.629h-1.686l.062-.629zm-.551 3.206h2.741v1.198h-2.741v-1.198zm0 2.006h2.741v1.429h-2.741v-1.429zm-1.593 4.101l-1.005-1.828h1.005v1.828zm-7.723-7.147c.226-.127.385-.362.409-.639l.008-.089h1.833l.008.092c.027.307.22.561.484.674v.194h-2.741v-.231zm.691-3.371h1.274l.051.397h-1.375l.049-.397zm1.16-.808h-1.048l.038-.245h.972l.039.245zm-1.299 2.013h1.558l.065.629h-1.686l.063-.629zm-.551 3.206h2.741v1.198h-2.741v-1.198zm0 2.006h2.741v1.429h-2.741v-1.429zm4.335 2.272h1.082l-1.082 1.969v-1.969zm-4.335-.034h2.741v7.79h-.421v-6.922c0-.223-.178-.404-.398-.404-.22 0-.398.181-.398.404v6.922h-.362v-6.922c0-.223-.178-.404-.398-.404-.22 0-.398.181-.398.404v6.922h-.365v-7.79zm4.335 3.663l1.732-3.153 1.656 3.013v4.267h-3.388v-4.127zm0-4.729h3.388v.291h-3.388v-.291z" id="Fill-4"/></g><g fill="#67737B" sketch:type="MSShapeGroup"><path d="M17.769 87.015l.18.044c.106 0 .207-.043.282-.119.075-.075.117-.179.117-.286 0-.153-.086-.293-.221-.362-.111-.056-.247-.056-.358.001l-.036.022-.065.052c-.076.075-.118.179-.118.287 0 .108.042.211.118.287l.101.074"/><path d="M15.581 89.065c-.069-.035-.146-.048-.223-.039l-.162.057-.074.058c-.122.123-.153.314-.075.469.039.077.1.139.176.179l.18.043c.106 0 .207-.042.282-.118.121-.123.151-.312.075-.467-.039-.078-.102-.142-.179-.181"/><path d="M13.86 86.147l.331.184.181.336c.07.13.204.21.349.21.146 0 .28-.08.35-.21l.181-.336.331-.184c.128-.071.207-.207.207-.355s-.079-.283-.207-.354l-.331-.184-.181-.336c-.07-.129-.204-.21-.35-.21s-.279.081-.349.21l-.181.336-.331.184c-.128.071-.207.206-.207.354s.079.284.207.355"/><path d="M24.135 108.282h-.558v-13.782c0-.361-.232-.666-.554-.77-.167-1.751-.364-3.176-.585-4.249l.005-.054c0-.08-.024-.154-.063-.217-.259-1.165-.639-2.312-1.419-2.601v-.541c.206-.015.368-.188.368-.401 0-.213-.162-.386-.368-.401v-1.991c0-.223-.178-.404-.398-.404-.22 0-.398.181-.398.404v1.992c-.201.021-.358.191-.358.4 0 .209.157.379.358.4v.542c-.819.304-1.193 1.55-1.449 2.773-.228 1.089-.427 2.56-.594 4.38-.278.126-.472.41-.472.739v4.117h-3.388v-4.117c0-.361-.233-.666-.554-.77-.167-1.751-.364-3.176-.585-4.249l.005-.054c0-.08-.024-.154-.063-.217-.259-1.166-.639-2.312-1.419-2.601v-.542c.203-.019.363-.19.363-.401 0-.211-.16-.382-.363-.401v-1.992c0-.223-.178-.404-.398-.404-.22 0-.398.181-.398.404v1.992c-.203.018-.364.189-.364.401 0 .211.16.382.364.401v.541c-.819.304-1.193 1.55-1.449 2.773-.228 1.089-.427 2.561-.594 4.38-.278.126-.472.41-.472.739v13.782h-.598c-.44 0-.796.361-.796.808 0 .446.356.808.796.808h16.4c.44 0 .796-.362.796-.808 0-.447-.356-.808-.796-.808zm-12.888-19.677l.128.419h-.254l.126-.419zm.317 1.227l.029.143h-.687l.028-.143h.63zm8.999-1.227l.127.419h-.253l.126-.419zm.317 1.227l.029.143h-.687l.028-.143h.63zm1.102 18.451h-.408v-6.922c0-.223-.178-.404-.398-.404-.22 0-.398.181-.398.404v6.922h-.362v-6.922c0-.223-.178-.404-.398-.404-.22 0-.398.181-.398.404v6.922h-.378v-7.79h2.741v7.79zm-2.741-13.074c.225-.127.385-.362.408-.639l.008-.089h1.833l.008.092c.027.307.22.561.484.674v.194h-2.741v-.231zm.69-3.371h1.275l.05.397h-1.375l.049-.397zm1.16-.808h-1.048l.038-.245h.972l.039.245zm-1.3 2.013h1.559l.065.629h-1.686l.062-.629zm-.551 3.206h2.741v1.198h-2.741v-1.198zm0 2.006h2.741v1.429h-2.741v-1.429zm-1.593 4.101l-1.005-1.828h1.005v1.828zm-7.723-7.147c.226-.127.385-.362.409-.639l.008-.089h1.833l.008.092c.027.307.22.561.484.674v.194h-2.741v-.231zm.691-3.371h1.274l.051.397h-1.375l.049-.397zm1.16-.808h-1.048l.038-.245h.972l.039.245zm-1.299 2.013h1.558l.065.629h-1.686l.063-.629zm-.551 3.206h2.741v1.198h-2.741v-1.198zm0 2.006h2.741v1.429h-2.741v-1.429zm4.335 2.272h1.082l-1.082 1.969v-1.969zm-4.335-.034h2.741v7.79h-.421v-6.922c0-.223-.178-.404-.398-.404-.22 0-.398.181-.398.404v6.922h-.362v-6.922c0-.223-.178-.404-.398-.404-.22 0-.398.181-.398.404v6.922h-.365v-7.79zm4.335 3.663l1.732-3.153 1.656 3.013v4.267h-3.388v-4.127zm0-4.729h3.388v.291h-3.388v-.291z"/></g><g fill="#206FAC" sketch:type="MSShapeGroup"><path d="M17.769 128.015l.18.044c.106 0 .207-.043.282-.119.075-.075.117-.179.117-.286 0-.153-.086-.293-.221-.362-.111-.056-.247-.056-.358.001l-.036.022-.065.052c-.076.075-.118.179-.118.287 0 .108.042.211.118.287l.101.074M15.581 130.065c-.069-.035-.146-.048-.223-.039l-.162.057-.074.058c-.122.123-.153.314-.075.469.039.077.1.139.176.179l.18.043c.106 0 .207-.042.282-.118.121-.123.151-.312.075-.467-.039-.078-.102-.142-.179-.181M13.86 127.147l.331.184.181.336c.07.13.204.21.349.21.146 0 .28-.08.35-.21l.181-.336.331-.184c.128-.071.207-.207.207-.355s-.079-.283-.207-.354l-.331-.184-.181-.336c-.07-.129-.204-.21-.35-.21s-.279.081-.349.21l-.181.336-.331.184c-.128.071-.207.206-.207.354s.079.284.207.355"/><path d="M24.135 149.282h-.558v-13.782c0-.361-.232-.666-.554-.77-.167-1.751-.364-3.176-.585-4.249l.005-.054c0-.08-.024-.154-.063-.217-.259-1.165-.639-2.312-1.419-2.601v-.541c.206-.015.368-.188.368-.401 0-.213-.162-.386-.368-.401v-1.991c0-.223-.178-.404-.398-.404-.22 0-.398.181-.398.404v1.992c-.201.021-.358.191-.358.4 0 .209.157.379.358.4v.542c-.819.304-1.193 1.55-1.449 2.773-.228 1.089-.427 2.56-.594 4.38-.278.126-.472.41-.472.739v4.117h-3.388v-4.117c0-.361-.233-.666-.554-.77-.167-1.751-.364-3.176-.585-4.249l.005-.054c0-.08-.024-.154-.063-.217-.259-1.166-.639-2.312-1.419-2.601v-.542c.203-.019.363-.19.363-.401 0-.211-.16-.382-.363-.401v-1.992c0-.223-.178-.404-.398-.404-.22 0-.398.181-.398.404v1.992c-.203.018-.364.189-.364.401 0 .211.16.382.364.401v.541c-.819.304-1.193 1.55-1.449 2.773-.228 1.089-.427 2.561-.594 4.38-.278.126-.472.41-.472.739v13.782h-.598c-.44 0-.796.361-.796.808 0 .446.356.808.796.808h16.4c.44 0 .796-.362.796-.808 0-.447-.356-.808-.796-.808zm-12.888-19.677l.128.419h-.254l.126-.419zm.317 1.227l.029.143h-.687l.028-.143h.63zm8.999-1.227l.127.419h-.253l.126-.419zm.317 1.227l.029.143h-.687l.028-.143h.63zm1.102 18.451h-.408v-6.922c0-.223-.178-.404-.398-.404-.22 0-.398.181-.398.404v6.922h-.362v-6.922c0-.223-.178-.404-.398-.404-.22 0-.398.181-.398.404v6.922h-.378v-7.79h2.741v7.79zm-2.741-13.074c.225-.127.385-.362.408-.639l.008-.089h1.833l.008.092c.027.307.22.561.484.674v.194h-2.741v-.231zm.69-3.371h1.275l.05.397h-1.375l.049-.397zm1.16-.808h-1.048l.038-.245h.972l.039.245zm-1.3 2.013h1.559l.065.629h-1.686l.062-.629zm-.551 3.206h2.741v1.198h-2.741v-1.198zm0 2.006h2.741v1.429h-2.741v-1.429zm-1.593 4.101l-1.005-1.828h1.005v1.828zm-7.723-7.147c.226-.127.385-.362.409-.639l.008-.089h1.833l.008.092c.027.307.22.561.484.674v.194h-2.741v-.231zm.691-3.371h1.274l.051.397h-1.375l.049-.397zm1.16-.808h-1.048l.038-.245h.972l.039.245zm-1.299 2.013h1.558l.065.629h-1.686l.063-.629zm-.551 3.206h2.741v1.198h-2.741v-1.198zm0 2.006h2.741v1.429h-2.741v-1.429zm4.335 2.272h1.082l-1.082 1.969v-1.969zm-4.335-.034h2.741v7.79h-.421v-6.922c0-.223-.178-.404-.398-.404-.22 0-.398.181-.398.404v6.922h-.362v-6.922c0-.223-.178-.404-.398-.404-.22 0-.398.181-.398.404v6.922h-.365v-7.79zm4.335 3.663l1.732-3.153 1.656 3.013v4.267h-3.388v-4.127zm0-4.729h3.388v.291h-3.388v-.291z"/></g></g></svg>