<svg width="32" height="232" viewBox="0 0 32 232" xmlns="http://www.w3.org/2000/svg" xmlns:sketch="http://www.bohemiancoding.com/sketch/ns"><title>Valetta_Malta</title><g sketch:type="MSLayerGroup" fill="none"><g fill="#fff" sketch:type="MSShapeGroup"><path d="M5.044 88.18h.182c-.028.107-.044.22-.044.338 0 .679.509 1.232 1.134 1.232h7.385c.276 0 .542-.11.75-.308.245-.234.385-.571.385-.924 0-.353-.14-.689-.385-.924-.208-.199-.474-.308-.749-.308h-4.216l.014-.168c0-.304-.121-.595-.332-.796-.179-.171-.408-.266-.646-.266h-3.477c-.539 0-.978.476-.978 1.062 0 .586.439 1.062.978 1.062zm0-1.23h3.477l.101.042.053.126-.053.125-.101.042h-.002c-.227 0-.412.2-.412.447s.184.447.412.447h5.182c.096 0 .165.046.205.085.04.038.106.121.106.253s-.066.215-.106.253c-.04.039-.109.085-.205.085h-7.385c-.171 0-.311-.152-.311-.338 0-.186.139-.338.311-.338.227 0 .412-.2.412-.447h.002c0-.247-.184-.447-.412-.447h-1.274c-.085 0-.154-.075-.154-.168 0-.093.069-.168.154-.168z" id="Fill-1"/><path d="M29.493 101.904c-.245 0-.35-.045-.496-.106-.176-.075-.395-.167-.795-.167l-.152.005v-5.275c0-.247-.184-.447-.412-.447h-.671v-1.82c0-.247-.184-.447-.412-.447h-1.381v-2.646c0-.494-.369-.894-.824-.894h-.152l-1.095-4.784c-.046-.199-.21-.339-.4-.339-.189 0-.354.14-.4.339l-1.095 4.784h-.152c-.455 0-.824.4-.824.894v2.199h-.83c-.568-1.181-1.653-2.023-2.927-2.17v-.979c0-.247-.184-.447-.412-.447-.227 0-.412.2-.412.447v.983c-1.809.223-3.232 1.848-3.32 3.848h-.734v-.787c0-.494-.369-.894-.823-.894h-.356v-1.133c0-.247-.184-.447-.412-.447h-5.115c-.227 0-.412.2-.412.447v1.133h-.356c-.455 0-.823.4-.823.894v7.614l.011.14-.124-.05c-.176-.075-.395-.167-.795-.167-.227 0-.412.2-.412.447s.184.447.412.447c.245 0 .35.045.495.106.176.074.395.168.795.168s.619-.093.795-.168c.145-.062.25-.106.495-.106s.35.045.495.106c.176.074.395.168.795.168l.07-.002v1.264c0 .247.184.447.412.447h2.231c.227 0 .412-.2.412-.447l-.002-.041c-.001-.459-.028-.881-.073-1.274l.326-.115c.145-.062.25-.106.495-.106s.35.045.495.106c.176.074.395.168.795.168s.619-.093.795-.168l.189-.07h.613l.189.07c.176.074.395.168.795.168s.619-.093.795-.168l.189-.07h.613l.189.07c.176.074.395.168.795.168s.619-.093.795-.167l.189-.07h.613l.189.07c.176.074.395.168.795.168s.619-.093.795-.168l.189-.07h.613l.041.012.011.004.138.054c.176.074.395.167.795.167s.619-.093.795-.167l.036-.015h.919l.036.015c.176.074.395.168.795.168s.619-.093.795-.167c.145-.062.25-.106.496-.106.245 0 .35.045.495.106.176.074.395.168.795.168s.619-.093.795-.167c.146-.062.251-.106.496-.106s.35.045.496.106c.176.075.395.167.795.167.227 0 .412-.2.412-.447s-.184-.447-.412-.447zm-13.414-10.005c.967 0 1.825.512 2.358 1.299.095.141.18.29.253.447.067.143.124.293.171.447.052.173.091.353.115.537h-5.794c.201-1.541 1.423-2.731 2.897-2.731zm5.979-1.794l.646-2.823.755 3.299h-1.51l.109-.476zm3.117 6.702h2.051v4.823h-2.051v-4.823zm0-2.267h.969v1.373h-.969v-1.373zm-3.294-2.646h1.647v8.934h-1.647v-8.934zm-1.816 9.773h-.2v-.924c0-.247-.184-.447-.412-.447-.227 0-.412.2-.412.447v.924h-.666v-.924c0-.247-.184-.447-.412-.447-.227 0-.412.2-.412.447v.924h-.666v-.924c0-.247-.184-.447-.412-.447-.227 0-.412.2-.412.447v.924h-.666v-.924c0-.247-.184-.447-.412-.447-.227 0-.412.2-.412.447v.924h-.666v-.924c0-.247-.184-.447-.412-.447-.227 0-.412.2-.412.447v.924h-.666v-.924c0-.142-.062-.267-.157-.349-.07-.06-.158-.098-.254-.098-.202 0-.37.159-.404.367l-.007.08v.924h-.404v-2.377h9.18v2.377h-.303zm-6.912-6.142h5.889v1.26h-5.889v-1.26zm-.07 2.207h7.286v.664h-9.044l.177-.664h1.581zm7.061-3.639v2.691h-.278v-1.707l-.041-.191c-.012-.272-.048-.538-.107-.794h.426zm-8.544 1.681h.659v1.063h-.659v-1.063zm-6.294-3.261h4.291v.686h-4.291v-.686zm1.853 10.078v-3.074c.376.4.857 1.105 1.148 2.263.075.299.137.628.182.989.033.264.056.545.067.845h-1.397v-1.023zm2.183-.793l-.168.064c-.467-2.211-1.572-3.178-2.015-3.486v-1.156c0-.247-.184-.447-.412-.447-.227 0-.412.2-.412.447v4.683l-.07.002c-.245 0-.35-.045-.495-.106-.12-.051-.262-.11-.467-.142l.002-.026v-6.642h4.291v6.642l.007.071-.262.097z" id="Fill-2"/><path d="M13.486 105.712c-.4 0-.619.093-.795.168-.145.062-.25.106-.495.106s-.35-.045-.495-.106c-.176-.075-.395-.168-.795-.168-.238 0-.411.033-.55.075.315-.265.417-.511.437-.569.048-.137.031-.292-.046-.413s-.204-.194-.339-.194h-5.732c-.135 0-.262.072-.339.194-.077.121-.094.276-.046.413.023.064.153.383.59.689-.115.047-.222.078-.427.078-.227 0-.412.2-.412.447s.184.447.412.447c.4 0 .619-.093.795-.168.145-.062.25-.106.496-.106.245 0 .35.045.495.106.176.075.395.168.795.168s.619-.093.795-.168c.145-.062.25-.106.495-.106s.35.045.495.106c.176.075.395.168.795.168s.619-.093.795-.168c.145-.062.25-.106.495-.106s.35.045.495.106c.176.075.395.168.795.168s.619-.093.795-.168c.145-.062.25-.106.496-.106.227 0 .412-.2.412-.447s-.184-.447-.412-.447zm-7.318-.206h2.747c-.346.084-.795.141-1.374.141-.579 0-1.028-.058-1.374-.141z" id="Fill-3"/></g><g fill="#373D43" sketch:type="MSShapeGroup"><path d="M5.044 9.18h.182c-.028.107-.044.22-.044.338 0 .679.509 1.232 1.134 1.232h7.385c.276 0 .542-.11.75-.308.245-.234.385-.571.385-.924 0-.353-.14-.689-.385-.924-.208-.199-.474-.308-.749-.308h-4.216l.014-.168c0-.304-.121-.595-.332-.796-.179-.171-.408-.266-.646-.266h-3.477c-.539 0-.978.476-.978 1.062 0 .586.439 1.062.978 1.062zm0-1.23h3.477l.101.042.053.126-.053.125-.101.042h-.002c-.227 0-.412.2-.412.447s.184.447.412.447h5.182c.096 0 .165.046.205.085.04.038.106.121.106.253s-.066.215-.106.253c-.04.039-.109.085-.205.085h-7.385c-.171 0-.311-.152-.311-.338 0-.186.139-.338.311-.338.227 0 .412-.2.412-.447h.002c0-.247-.184-.447-.412-.447h-1.274c-.085 0-.154-.075-.154-.168 0-.093.069-.168.154-.168z" id="Fill-1"/><path d="M29.493 22.904c-.245 0-.35-.045-.496-.106-.176-.075-.395-.167-.795-.167l-.152.005v-5.275c0-.247-.184-.447-.412-.447h-.671v-1.82c0-.247-.184-.447-.412-.447h-1.381v-2.646c0-.494-.369-.894-.824-.894h-.152l-1.095-4.784c-.046-.199-.21-.339-.4-.339-.189 0-.354.14-.4.339l-1.095 4.784h-.152c-.455 0-.824.4-.824.894v2.199h-.83c-.568-1.181-1.653-2.023-2.927-2.17v-.979c0-.247-.184-.447-.412-.447-.227 0-.412.2-.412.447v.983c-1.809.223-3.232 1.848-3.32 3.848h-.734v-.787c0-.494-.369-.894-.823-.894h-.356v-1.133c0-.247-.184-.447-.412-.447h-5.115c-.227 0-.412.2-.412.447v1.133h-.356c-.455 0-.823.4-.823.894v7.614l.011.14-.124-.05c-.176-.075-.395-.167-.795-.167-.227 0-.412.2-.412.447s.184.447.412.447c.245 0 .35.045.495.106.176.074.395.168.795.168s.619-.093.795-.168c.145-.062.25-.106.495-.106s.35.045.495.106c.176.074.395.168.795.168l.07-.002v1.264c0 .247.184.447.412.447h2.231c.227 0 .412-.2.412-.447l-.002-.041c-.001-.459-.028-.881-.073-1.274l.326-.115c.145-.062.25-.106.495-.106s.35.045.495.106c.176.074.395.168.795.168s.619-.093.795-.168l.189-.07h.613l.189.07c.176.074.395.168.795.168s.619-.093.795-.168l.189-.07h.613l.189.07c.176.074.395.168.795.168s.619-.093.795-.167l.189-.07h.613l.189.07c.176.074.395.168.795.168s.619-.093.795-.168l.189-.07h.613l.041.012.011.004.138.054c.176.074.395.167.795.167s.619-.093.795-.167l.036-.015h.919l.036.015c.176.074.395.168.795.168s.619-.093.795-.167c.145-.062.25-.106.496-.106.245 0 .35.045.495.106.176.074.395.168.795.168s.619-.093.795-.167c.146-.062.251-.106.496-.106s.35.045.496.106c.176.075.395.167.795.167.227 0 .412-.2.412-.447s-.184-.447-.412-.447zm-13.414-10.005c.967 0 1.825.512 2.358 1.299.095.141.18.29.253.447.067.143.124.293.171.447.052.173.091.353.115.537h-5.794c.201-1.541 1.423-2.731 2.897-2.731zm5.979-1.794l.646-2.823.755 3.299h-1.51l.109-.476zm3.117 6.702h2.051v4.823h-2.051v-4.823zm0-2.267h.969v1.373h-.969v-1.373zm-3.294-2.646h1.647v8.934h-1.647v-8.934zm-1.816 9.773h-.2v-.924c0-.247-.184-.447-.412-.447-.227 0-.412.2-.412.447v.924h-.666v-.924c0-.247-.184-.447-.412-.447-.227 0-.412.2-.412.447v.924h-.666v-.924c0-.247-.184-.447-.412-.447-.227 0-.412.2-.412.447v.924h-.666v-.924c0-.247-.184-.447-.412-.447-.227 0-.412.2-.412.447v.924h-.666v-.924c0-.247-.184-.447-.412-.447-.227 0-.412.2-.412.447v.924h-.666v-.924c0-.142-.062-.267-.157-.349-.07-.06-.158-.098-.254-.098-.202 0-.37.159-.404.367l-.007.08v.924h-.404v-2.377h9.18v2.377h-.303zm-6.912-6.142h5.889v1.26h-5.889v-1.26zm-.07 2.207h7.286v.664h-9.044l.177-.664h1.581zm7.061-3.639v2.691h-.278v-1.707l-.041-.191c-.012-.272-.048-.538-.107-.794h.426zm-8.544 1.681h.659v1.063h-.659v-1.063zm-6.294-3.261h4.291v.686h-4.291v-.686zm1.853 10.078v-3.074c.376.4.857 1.105 1.148 2.263.075.299.137.628.182.989.033.264.056.545.067.845h-1.397v-1.023zm2.183-.793l-.168.064c-.467-2.211-1.572-3.178-2.015-3.486v-1.156c0-.247-.184-.447-.412-.447-.227 0-.412.2-.412.447v4.683l-.07.002c-.245 0-.35-.045-.495-.106-.12-.051-.262-.11-.467-.142l.002-.026v-6.642h4.291v6.642l.007.071-.262.097z" id="Fill-2"/><path d="M13.486 26.712c-.4 0-.619.093-.795.168-.145.062-.25.106-.495.106s-.35-.045-.495-.106c-.176-.075-.395-.168-.795-.168-.238 0-.411.033-.55.075.315-.265.417-.511.437-.569.048-.137.031-.292-.046-.413s-.204-.194-.339-.194h-5.732c-.135 0-.262.072-.339.194-.077.121-.094.276-.046.413.023.064.153.383.59.689-.115.047-.222.078-.427.078-.227 0-.412.2-.412.447s.184.447.412.447c.4 0 .619-.093.795-.168.145-.062.25-.106.496-.106.245 0 .35.045.495.106.176.075.395.168.795.168s.619-.093.795-.168c.145-.062.25-.106.495-.106s.35.045.495.106c.176.075.395.168.795.168s.619-.093.795-.168c.145-.062.25-.106.495-.106s.35.045.495.106c.176.075.395.168.795.168s.619-.093.795-.168c.145-.062.25-.106.496-.106.227 0 .412-.2.412-.447s-.184-.447-.412-.447zm-7.318-.206h2.747c-.346.084-.795.141-1.374.141-.579 0-1.028-.058-1.374-.141z" id="Fill-3"/></g><g fill="#67737B" sketch:type="MSShapeGroup"><path d="M5.044 49.18h.182c-.028.107-.044.22-.044.338 0 .679.509 1.232 1.134 1.232h7.385c.276 0 .542-.11.75-.308.245-.234.385-.571.385-.924 0-.353-.14-.689-.385-.924-.208-.199-.474-.308-.749-.308h-4.216l.014-.168c0-.304-.121-.595-.332-.796-.179-.171-.408-.266-.646-.266h-3.477c-.539 0-.978.476-.978 1.062 0 .586.439 1.062.978 1.062zm0-1.23h3.477l.101.042.053.126-.053.125-.101.042h-.002c-.227 0-.412.2-.412.447s.184.447.412.447h5.182c.096 0 .165.046.205.085.04.038.106.121.106.253s-.066.215-.106.253c-.04.039-.109.085-.205.085h-7.385c-.171 0-.311-.152-.311-.338 0-.186.139-.338.311-.338.227 0 .412-.2.412-.447h.002c0-.247-.184-.447-.412-.447h-1.274c-.085 0-.154-.075-.154-.168 0-.093.069-.168.154-.168z"/><path d="M29.493 62.904c-.245 0-.35-.045-.496-.106-.176-.075-.395-.167-.795-.167l-.152.005v-5.275c0-.247-.184-.447-.412-.447h-.671v-1.82c0-.247-.184-.447-.412-.447h-1.381v-2.646c0-.494-.369-.894-.824-.894h-.152l-1.095-4.784c-.046-.199-.21-.339-.4-.339-.189 0-.354.14-.4.339l-1.095 4.784h-.152c-.455 0-.824.4-.824.894v2.199h-.83c-.568-1.181-1.653-2.023-2.927-2.17v-.979c0-.247-.184-.447-.412-.447-.227 0-.412.2-.412.447v.983c-1.809.223-3.232 1.848-3.32 3.848h-.734v-.787c0-.494-.369-.894-.823-.894h-.356v-1.133c0-.247-.184-.447-.412-.447h-5.115c-.227 0-.412.2-.412.447v1.133h-.356c-.455 0-.823.4-.823.894v7.614l.011.14-.124-.05c-.176-.075-.395-.167-.795-.167-.227 0-.412.2-.412.447s.184.447.412.447c.245 0 .35.045.495.106.176.074.395.168.795.168s.619-.093.795-.168c.145-.062.25-.106.495-.106s.35.045.495.106c.176.074.395.168.795.168l.07-.002v1.264c0 .247.184.447.412.447h2.231c.227 0 .412-.2.412-.447l-.002-.041c-.001-.459-.028-.881-.073-1.274l.326-.115c.145-.062.25-.106.495-.106s.35.045.495.106c.176.074.395.168.795.168s.619-.093.795-.168l.189-.07h.613l.189.07c.176.074.395.168.795.168s.619-.093.795-.168l.189-.07h.613l.189.07c.176.074.395.168.795.168s.619-.093.795-.167l.189-.07h.613l.189.07c.176.074.395.168.795.168s.619-.093.795-.168l.189-.07h.613l.041.012.011.004.138.054c.176.074.395.167.795.167s.619-.093.795-.167l.036-.015h.919l.036.015c.176.074.395.168.795.168s.619-.093.795-.167c.145-.062.25-.106.496-.106.245 0 .35.045.495.106.176.074.395.168.795.168s.619-.093.795-.167c.146-.062.251-.106.496-.106s.35.045.496.106c.176.075.395.167.795.167.227 0 .412-.2.412-.447s-.184-.447-.412-.447zm-13.414-10.005c.967 0 1.825.512 2.358 1.299.095.141.18.29.253.447.067.143.124.293.171.447.052.173.091.353.115.537h-5.794c.201-1.541 1.423-2.731 2.897-2.731zm5.979-1.794l.646-2.823.755 3.299h-1.51l.109-.476zm3.117 6.702h2.051v4.823h-2.051v-4.823zm0-2.267h.969v1.373h-.969v-1.373zm-3.294-2.646h1.647v8.934h-1.647v-8.934zm-1.816 9.773h-.2v-.924c0-.247-.184-.447-.412-.447-.227 0-.412.2-.412.447v.924h-.666v-.924c0-.247-.184-.447-.412-.447-.227 0-.412.2-.412.447v.924h-.666v-.924c0-.247-.184-.447-.412-.447-.227 0-.412.2-.412.447v.924h-.666v-.924c0-.247-.184-.447-.412-.447-.227 0-.412.2-.412.447v.924h-.666v-.924c0-.247-.184-.447-.412-.447-.227 0-.412.2-.412.447v.924h-.666v-.924c0-.142-.062-.267-.157-.349-.07-.06-.158-.098-.254-.098-.202 0-.37.159-.404.367l-.007.08v.924h-.404v-2.377h9.18v2.377h-.303zm-6.912-6.142h5.889v1.26h-5.889v-1.26zm-.07 2.207h7.286v.664h-9.044l.177-.664h1.581zm7.061-3.639v2.691h-.278v-1.707l-.041-.191c-.012-.272-.048-.538-.107-.794h.426zm-8.544 1.681h.659v1.063h-.659v-1.063zm-6.294-3.261h4.291v.686h-4.291v-.686zm1.853 10.078v-3.074c.376.4.857 1.105 1.148 2.263.075.299.137.628.182.989.033.264.056.545.067.845h-1.397v-1.023zm2.183-.793l-.168.064c-.467-2.211-1.572-3.178-2.015-3.486v-1.156c0-.247-.184-.447-.412-.447-.227 0-.412.2-.412.447v4.683l-.07.002c-.245 0-.35-.045-.495-.106-.12-.051-.262-.11-.467-.142l.002-.026v-6.642h4.291v6.642l.007.071-.262.097z"/><path d="M13.486 66.712c-.4 0-.619.093-.795.168-.145.062-.25.106-.495.106s-.35-.045-.495-.106c-.176-.075-.395-.168-.795-.168-.238 0-.411.033-.55.075.315-.265.417-.511.437-.569.048-.137.031-.292-.046-.413s-.204-.194-.339-.194h-5.732c-.135 0-.262.072-.339.194-.077.121-.094.276-.046.413.023.064.153.383.59.689-.115.047-.222.078-.427.078-.227 0-.412.2-.412.447s.184.447.412.447c.4 0 .619-.093.795-.168.145-.062.25-.106.496-.106.245 0 .35.045.495.106.176.075.395.168.795.168s.619-.093.795-.168c.145-.062.25-.106.495-.106s.35.045.495.106c.176.075.395.168.795.168s.619-.093.795-.168c.145-.062.25-.106.495-.106s.35.045.495.106c.176.075.395.168.795.168s.619-.093.795-.168c.145-.062.25-.106.496-.106.227 0 .412-.2.412-.447s-.184-.447-.412-.447zm-7.318-.206h2.747c-.346.084-.795.141-1.374.141-.579 0-1.028-.058-1.374-.141z"/></g><g fill="#206FAC" sketch:type="MSShapeGroup"><path d="M5.044 127.18h.182c-.028.107-.044.22-.044.338 0 .679.509 1.232 1.134 1.232h7.385c.276 0 .542-.11.75-.308.245-.234.385-.571.385-.924 0-.353-.14-.689-.385-.924-.208-.199-.474-.308-.749-.308h-4.216l.014-.168c0-.304-.121-.595-.332-.796-.179-.171-.408-.266-.646-.266h-3.477c-.539 0-.978.476-.978 1.062 0 .586.439 1.062.978 1.062zm0-1.23h3.477l.101.042.053.126-.053.125-.101.042h-.002c-.227 0-.412.2-.412.447s.184.447.412.447h5.182c.096 0 .165.046.205.085.04.038.106.121.106.253s-.066.215-.106.253c-.04.039-.109.085-.205.085h-7.385c-.171 0-.311-.152-.311-.338 0-.186.139-.338.311-.338.227 0 .412-.2.412-.447h.002c0-.247-.184-.447-.412-.447h-1.274c-.085 0-.154-.075-.154-.168 0-.093.069-.168.154-.168zM29.493 140.904c-.245 0-.35-.045-.496-.106-.176-.075-.395-.167-.795-.167l-.152.005v-5.275c0-.247-.184-.447-.412-.447h-.671v-1.82c0-.247-.184-.447-.412-.447h-1.381v-2.646c0-.494-.369-.894-.824-.894h-.152l-1.095-4.784c-.046-.199-.21-.339-.4-.339-.189 0-.354.14-.4.339l-1.095 4.784h-.152c-.455 0-.824.4-.824.894v2.199h-.83c-.568-1.181-1.653-2.023-2.927-2.17v-.979c0-.247-.184-.447-.412-.447-.227 0-.412.2-.412.447v.983c-1.809.223-3.232 1.848-3.32 3.848h-.734v-.787c0-.494-.369-.894-.823-.894h-.356v-1.133c0-.247-.184-.447-.412-.447h-5.115c-.227 0-.412.2-.412.447v1.133h-.356c-.455 0-.823.4-.823.894v7.614l.011.14-.124-.05c-.176-.075-.395-.167-.795-.167-.227 0-.412.2-.412.447s.184.447.412.447c.245 0 .35.045.495.106.176.074.395.168.795.168s.619-.093.795-.168c.145-.062.25-.106.495-.106s.35.045.495.106c.176.074.395.168.795.168l.07-.002v1.264c0 .247.184.447.412.447h2.231c.227 0 .412-.2.412-.447l-.002-.041c-.001-.459-.028-.881-.073-1.274l.326-.115c.145-.062.25-.106.495-.106s.35.045.495.106c.176.074.395.168.795.168s.619-.093.795-.168l.189-.07h.613l.189.07c.176.074.395.168.795.168s.619-.093.795-.168l.189-.07h.613l.189.07c.176.074.395.168.795.168s.619-.093.795-.167l.189-.07h.613l.189.07c.176.074.395.168.795.168s.619-.093.795-.168l.189-.07h.613l.041.012.011.004.138.054c.176.074.395.167.795.167s.619-.093.795-.167l.036-.015h.919l.036.015c.176.074.395.168.795.168s.619-.093.795-.167c.145-.062.25-.106.496-.106.245 0 .35.045.495.106.176.074.395.168.795.168s.619-.093.795-.167c.146-.062.251-.106.496-.106s.35.045.496.106c.176.075.395.167.795.167.227 0 .412-.2.412-.447s-.184-.447-.412-.447zm-13.414-10.005c.967 0 1.825.512 2.358 1.299.095.141.18.29.253.447.067.143.124.293.171.447.052.173.091.353.115.537h-5.794c.201-1.541 1.423-2.731 2.897-2.731zm5.979-1.794l.646-2.823.755 3.299h-1.51l.109-.476zm3.117 6.702h2.051v4.823h-2.051v-4.823zm0-2.267h.969v1.373h-.969v-1.373zm-3.294-2.646h1.647v8.934h-1.647v-8.934zm-1.816 9.773h-.2v-.924c0-.247-.184-.447-.412-.447-.227 0-.412.2-.412.447v.924h-.666v-.924c0-.247-.184-.447-.412-.447-.227 0-.412.2-.412.447v.924h-.666v-.924c0-.247-.184-.447-.412-.447-.227 0-.412.2-.412.447v.924h-.666v-.924c0-.247-.184-.447-.412-.447-.227 0-.412.2-.412.447v.924h-.666v-.924c0-.247-.184-.447-.412-.447-.227 0-.412.2-.412.447v.924h-.666v-.924c0-.142-.062-.267-.157-.349-.07-.06-.158-.098-.254-.098-.202 0-.37.159-.404.367l-.007.08v.924h-.404v-2.377h9.18v2.377h-.303zm-6.912-6.142h5.889v1.26h-5.889v-1.26zm-.07 2.207h7.286v.664h-9.044l.177-.664h1.581zm7.061-3.639v2.691h-.278v-1.707l-.041-.191c-.012-.272-.048-.538-.107-.794h.426zm-8.544 1.681h.659v1.063h-.659v-1.063zm-6.294-3.261h4.291v.686h-4.291v-.686zm1.853 10.078v-3.074c.376.4.857 1.105 1.148 2.263.075.299.137.628.182.989.033.264.056.545.067.845h-1.397v-1.023zm2.183-.793l-.168.064c-.467-2.211-1.572-3.178-2.015-3.486v-1.156c0-.247-.184-.447-.412-.447-.227 0-.412.2-.412.447v4.683l-.07.002c-.245 0-.35-.045-.495-.106-.12-.051-.262-.11-.467-.142l.002-.026v-6.642h4.291v6.642l.007.071-.262.097zM13.486 144.712c-.4 0-.619.093-.795.168-.145.062-.25.106-.495.106s-.35-.045-.495-.106c-.176-.075-.395-.168-.795-.168-.238 0-.411.033-.55.075.315-.265.417-.511.437-.569.048-.137.031-.292-.046-.413s-.204-.194-.339-.194h-5.732c-.135 0-.262.072-.339.194-.077.121-.094.276-.046.413.023.064.153.383.59.689-.115.047-.222.078-.427.078-.227 0-.412.2-.412.447s.184.447.412.447c.4 0 .619-.093.795-.168.145-.062.25-.106.496-.106.245 0 .35.045.495.106.176.075.395.168.795.168s.619-.093.795-.168c.145-.062.25-.106.495-.106s.35.045.495.106c.176.075.395.168.795.168s.619-.093.795-.168c.145-.062.25-.106.495-.106s.35.045.495.106c.176.075.395.168.795.168s.619-.093.795-.168c.145-.062.25-.106.496-.106.227 0 .412-.2.412-.447s-.184-.447-.412-.447zm-7.318-.206h2.747c-.346.084-.795.141-1.374.141-.579 0-1.028-.058-1.374-.141z"/></g></g></svg>