<svg width="32" height="232" viewBox="0 0 32 232" xmlns="http://www.w3.org/2000/svg" xmlns:sketch="http://www.bohemiancoding.com/sketch/ns"><title>Mexico_Copper-Canyon</title><g sketch:type="MSLayerGroup" fill="none"><g fill="#fff" sketch:type="MSShapeGroup"><path d="M6.596 86.02h2.208l2.484 2.698c.083.09.196.138.31.138l.16-.032c.163-.068.27-.232.27-.414v-1.048c0-.084-.023-.166-.065-.237l-.666-1.105h2.473c.131 0 .256-.063.337-.17l1.645-2.162c.102-.134.121-.317.05-.471-.072-.154-.222-.252-.387-.252h-1.106c-.119 0-.233.051-.314.141l-.53.589h-6.864c-.835 0-1.442.489-1.442 1.162 0 .671.604 1.159 1.436 1.162zm.005-1.432h7.05c.119 0 .232-.051.314-.142l.53-.589h.032l-.966 1.27h-6.963c-.347-.001-.58-.141-.58-.27 0-.13.234-.27.583-.27zm3.392 1.432h.29l.55.913-.84-.913z" id="Fill-1"/><path d="M27.91 84.633h-1.918c-.376 0-.709.254-.82.627l-.639 2.136-1.359 1.765c-.122.158-.188.355-.188.557v1.741l-.893.454c-.088.045-.169.106-.238.179-.227.242-.407.451-.55.634l-.638-.487-.974-.773c-.13-.103-.306-.121-.453-.045l-2.618 1.359-2.025.833-1.531-.434c-.109-.031-.226-.016-.324.042l-1.101.646-.119-.593c-.031-.155-.139-.281-.283-.331l-.509-.179-.219-.455v-.668c0-.136-.059-.264-.161-.348l-.412-.342v-.737c0-.246-.192-.446-.43-.446h-2.042v-1.16c0-.242-.186-.44-.419-.446-.095-.002-2.337-.06-2.588-.06-.237 0-.43.2-.43.446s.192.446.43.446c.163 0 1.311.028 2.148.049v2.003c0 .128.053.25.146.335l1.286 1.175v1.523c0 .271.248.897.737 1.861.058.114.161.197.283.227l.803.195.208.604.033.074.769 1.37h-1.345c-.755 0-1.369.638-1.369 1.422 0 .757.572 1.377 1.291 1.42l.07.006c.281 0 .51.238.51.53 0 .292-.229.53-.51.53h-4.103c-.237 0-.429.2-.429.446s.192.446.429.446h4.13c.743-.015 1.343-.647 1.343-1.422 0-.756-.572-1.377-1.29-1.419l-.07-.006c-.281 0-.51-.238-.51-.53 0-.292.229-.53.507-.53h9.222l-.945.359c-.288.109-.497.369-.551.683l-.003.02h-2.75c-.928 0-1.683.784-1.683 1.748 0 .933.707 1.697 1.594 1.745l.077.007c.468 0 1.071.415 1.071.856 0 .117-.023.228-.064.33h-8.03c-.474 0-.859.399-.859.892s.385.892.859.892h8.894c.228 0 .446-.094.608-.261l1.374-1.428c.161-.167.252-.394.252-.631v-1.795l.266-1.558 3.051-1.159c.339-.129.564-.463.564-.838v-5.086c.099-.146.307-.402.516-.633l1.237-.629c.295-.15.481-.461.481-.801v-1.984l1.272-1.652c.067-.087.118-.186.149-.293l.499-1.67h1.285c.474 0 .859-.4.859-.892 0-.493-.385-.892-.859-.892zm-11.026 17.854l-.013.156v1.504l-.46.478c-.03-.435-.264-.858-.651-1.174-.346-.283-.774-.453-1.187-.475l-.077-.007c-.454 0-.824-.384-.824-.856s.37-.855.819-.855h2.602l-.209 1.229zm-3.874-8.398l1.499.425c.09.026.185.02.271-.016l2.175-.895.034-.016 2.395-1.244.767.609.684.521c-.083.204-.083.331-.083.424v1.145l-1.612.249c-.15.023-.278.127-.335.274l-.404 1.036-2.321-.05-1.137-.92c-.159-.128-.381-.125-.536.007l-1.147.977v-.632c0-.214-.147-.398-.349-.438l-.977-.194-.11-.567 1.187-.697zm-1.146 4.323l-1.001-1.784-.273-.794c-.049-.143-.165-.25-.307-.284l-.838-.203c-.258-.524-.518-1.114-.548-1.282v-1.709c0-.128-.053-.25-.146-.335l-1.286-1.175v-.185h1.613v.506c0 .135.059.264.161.348l.412.342v.559l.045.199.344.714c.051.105.139.185.246.223l.444.156.189.937.229 1.178c.035.178.169.316.341.35l.911.18v.94c0 .108.038.212.106.294l.695.826h-1.337zm2.477 0l-.767-.911 1.11-.946.979.792c.073.059.162.092.255.094l2.759.059h.009c.174 0 .332-.11.398-.279l.423-1.084 1.243-.192v2.466h-6.41z" id="Fill-2"/><path d="M15.641 85.236c-.237 0-.43.2-.43.446s.192.446.43.446h3.792c.237 0 .43-.2.43-.446s-.192-.446-.43-.446h-3.792" id="Fill-3"/><path d="M17.145 84.923h6.407c.237 0 .43-.2.43-.446s-.192-.446-.43-.446h-6.407c-.237 0-.43.2-.43.446s.192.446.43.446" id="Fill-4"/></g><g fill="#373D43" sketch:type="MSShapeGroup"><path d="M6.596 7.02h2.208l2.484 2.698c.083.09.196.138.31.138l.16-.032c.163-.068.27-.232.27-.414v-1.048c0-.084-.023-.166-.065-.237l-.666-1.105h2.473c.131 0 .256-.063.337-.17l1.645-2.162c.102-.134.121-.317.05-.471-.072-.154-.222-.252-.387-.252h-1.106c-.119 0-.233.051-.314.141l-.53.589h-6.864c-.835 0-1.442.489-1.442 1.162 0 .671.604 1.159 1.436 1.162zm.005-1.432h7.05c.119 0 .232-.051.314-.142l.53-.589h.032l-.966 1.27h-6.963c-.347-.001-.58-.141-.58-.27 0-.13.234-.27.583-.27zm3.392 1.432h.29l.55.913-.84-.913z" id="Fill-1"/><path d="M27.91 5.633h-1.918c-.376 0-.709.254-.82.627l-.639 2.136-1.359 1.765c-.122.158-.188.355-.188.557v1.741l-.893.454c-.088.045-.169.106-.238.179-.227.242-.407.451-.55.634l-.638-.487-.974-.773c-.13-.103-.306-.121-.453-.045l-2.618 1.359-2.025.833-1.531-.434c-.109-.031-.226-.016-.324.042l-1.101.646-.119-.593c-.031-.155-.139-.281-.283-.331l-.509-.179-.219-.455v-.668c0-.136-.059-.264-.161-.348l-.412-.342v-.737c0-.246-.192-.446-.43-.446h-2.042v-1.16c0-.242-.186-.44-.419-.446-.095-.002-2.337-.06-2.588-.06-.237 0-.43.2-.43.446s.192.446.43.446c.163 0 1.311.028 2.148.049v2.003c0 .128.053.25.146.335l1.286 1.175v1.523c0 .271.248.897.737 1.861.058.114.161.197.283.227l.803.195.208.604.033.074.769 1.37h-1.345c-.755 0-1.369.638-1.369 1.422 0 .757.572 1.377 1.291 1.42l.07.006c.281 0 .51.238.51.53 0 .292-.229.53-.51.53h-4.103c-.237 0-.429.2-.429.446s.192.446.429.446h4.13c.743-.015 1.343-.647 1.343-1.422 0-.756-.572-1.377-1.29-1.419l-.07-.006c-.281 0-.51-.238-.51-.53 0-.292.229-.53.507-.53h9.222l-.945.359c-.288.109-.497.369-.551.683l-.003.02h-2.75c-.928 0-1.683.784-1.683 1.748 0 .933.707 1.697 1.594 1.745l.077.007c.468 0 1.071.415 1.071.856 0 .117-.023.228-.064.33h-8.03c-.474 0-.859.399-.859.892s.385.892.859.892h8.894c.228 0 .446-.094.608-.261l1.374-1.428c.161-.167.252-.394.252-.631v-1.795l.266-1.558 3.051-1.159c.339-.129.564-.463.564-.838v-5.086c.099-.146.307-.402.516-.633l1.237-.629c.295-.15.481-.461.481-.801v-1.984l1.272-1.652c.067-.087.118-.186.149-.293l.499-1.67h1.285c.474 0 .859-.4.859-.892 0-.493-.385-.892-.859-.892zm-11.026 17.854l-.013.156v1.504l-.46.478c-.03-.435-.264-.858-.651-1.174-.346-.283-.774-.453-1.187-.475l-.077-.007c-.454 0-.824-.384-.824-.856s.37-.855.819-.855h2.602l-.209 1.229zm-3.874-8.398l1.499.425c.09.026.185.02.271-.016l2.175-.895.034-.016 2.395-1.244.767.609.684.521c-.083.204-.083.331-.083.424v1.145l-1.612.249c-.15.023-.278.127-.335.274l-.404 1.036-2.321-.05-1.137-.92c-.159-.128-.381-.125-.536.007l-1.147.977v-.632c0-.214-.147-.398-.349-.438l-.977-.194-.11-.567 1.187-.697zm-1.146 4.323l-1.001-1.784-.273-.794c-.049-.143-.165-.25-.307-.284l-.838-.203c-.258-.524-.518-1.114-.548-1.282v-1.709c0-.128-.053-.25-.146-.335l-1.286-1.175v-.185h1.613v.506c0 .135.059.264.161.348l.412.342v.559l.045.199.344.714c.051.105.139.185.246.223l.444.156.189.937.229 1.178c.035.178.169.316.341.35l.911.18v.94c0 .108.038.212.106.294l.695.826h-1.337zm2.477 0l-.767-.911 1.11-.946.979.792c.073.059.162.092.255.094l2.759.059h.009c.174 0 .332-.11.398-.279l.423-1.084 1.243-.192v2.466h-6.41z" id="Fill-2"/><path d="M15.641 6.236c-.237 0-.43.2-.43.446s.192.446.43.446h3.792c.237 0 .43-.2.43-.446s-.192-.446-.43-.446h-3.792" id="Fill-3"/><path d="M17.145 5.923h6.407c.237 0 .43-.2.43-.446s-.192-.446-.43-.446h-6.407c-.237 0-.43.2-.43.446s.192.446.43.446" id="Fill-4"/></g><g fill="#67737B" sketch:type="MSShapeGroup"><path d="M6.596 47.02h2.208l2.484 2.698c.083.09.196.138.31.138l.16-.032c.163-.068.27-.232.27-.414v-1.048c0-.084-.023-.166-.065-.237l-.666-1.105h2.473c.131 0 .256-.063.337-.17l1.645-2.162c.102-.134.121-.317.05-.471-.072-.154-.222-.252-.387-.252h-1.106c-.119 0-.233.051-.314.141l-.53.589h-6.864c-.835 0-1.442.489-1.442 1.162 0 .671.604 1.159 1.436 1.162zm.005-1.432h7.05c.119 0 .232-.051.314-.142l.53-.589h.032l-.966 1.27h-6.963c-.347-.001-.58-.141-.58-.27 0-.13.234-.27.583-.27zm3.392 1.432h.29l.55.913-.84-.913z"/><path d="M27.91 45.633h-1.918c-.376 0-.709.254-.82.627l-.639 2.136-1.359 1.765c-.122.158-.188.355-.188.557v1.741l-.893.454c-.088.045-.169.106-.238.179-.227.242-.407.451-.55.634l-.638-.487-.974-.773c-.13-.103-.306-.121-.453-.045l-2.618 1.359-2.025.833-1.531-.434c-.109-.031-.226-.016-.324.042l-1.101.646-.119-.593c-.031-.155-.139-.281-.283-.331l-.509-.179-.219-.455v-.668c0-.136-.059-.264-.161-.348l-.412-.342v-.737c0-.246-.192-.446-.43-.446h-2.042v-1.16c0-.242-.186-.44-.419-.446-.095-.002-2.337-.06-2.588-.06-.237 0-.43.2-.43.446s.192.446.43.446c.163 0 1.311.028 2.148.049v2.003c0 .128.053.25.146.335l1.286 1.175v1.523c0 .271.248.897.737 1.861.058.114.161.197.283.227l.803.195.208.604.033.074.769 1.37h-1.345c-.755 0-1.369.638-1.369 1.422 0 .757.572 1.377 1.291 1.42l.07.006c.281 0 .51.238.51.53 0 .292-.229.53-.51.53h-4.103c-.237 0-.429.2-.429.446s.192.446.429.446h4.13c.743-.015 1.343-.647 1.343-1.422 0-.756-.572-1.377-1.29-1.419l-.07-.006c-.281 0-.51-.238-.51-.53 0-.292.229-.53.507-.53h9.222l-.945.359c-.288.109-.497.369-.551.683l-.003.02h-2.75c-.928 0-1.683.784-1.683 1.748 0 .933.707 1.697 1.594 1.745l.077.007c.468 0 1.071.415 1.071.856 0 .117-.023.228-.064.33h-8.03c-.474 0-.859.399-.859.892s.385.892.859.892h8.894c.228 0 .446-.094.608-.261l1.374-1.428c.161-.167.252-.394.252-.631v-1.795l.266-1.558 3.051-1.159c.339-.129.564-.463.564-.838v-5.086c.099-.146.307-.402.516-.633l1.237-.629c.295-.15.481-.461.481-.801v-1.984l1.272-1.652c.067-.087.118-.186.149-.293l.499-1.67h1.285c.474 0 .859-.4.859-.892 0-.493-.385-.892-.859-.892zm-11.026 17.854l-.013.156v1.504l-.46.478c-.03-.435-.264-.858-.651-1.174-.346-.283-.774-.453-1.187-.475l-.077-.007c-.454 0-.824-.384-.824-.856s.37-.855.819-.855h2.602l-.209 1.229zm-3.874-8.398l1.499.425c.09.026.185.02.271-.016l2.175-.895.034-.016 2.395-1.244.767.609.684.521c-.083.204-.083.331-.083.424v1.145l-1.612.249c-.15.023-.278.127-.335.274l-.404 1.036-2.321-.05-1.137-.92c-.159-.128-.381-.125-.536.007l-1.147.977v-.632c0-.214-.147-.398-.349-.438l-.977-.194-.11-.567 1.187-.697zm-1.146 4.323l-1.001-1.784-.273-.794c-.049-.143-.165-.25-.307-.284l-.838-.203c-.258-.524-.518-1.114-.548-1.282v-1.709c0-.128-.053-.25-.146-.335l-1.286-1.175v-.185h1.613v.506c0 .135.059.264.161.348l.412.342v.559l.045.199.344.714c.051.105.139.185.246.223l.444.156.189.937.229 1.178c.035.178.169.316.341.35l.911.18v.94c0 .108.038.212.106.294l.695.826h-1.337zm2.477 0l-.767-.911 1.11-.946.979.792c.073.059.162.092.255.094l2.759.059h.009c.174 0 .332-.11.398-.279l.423-1.084 1.243-.192v2.466h-6.41z"/><path d="M15.641 46.236c-.237 0-.43.2-.43.446s.192.446.43.446h3.792c.237 0 .43-.2.43-.446s-.192-.446-.43-.446h-3.792"/><path d="M17.145 45.923h6.407c.237 0 .43-.2.43-.446s-.192-.446-.43-.446h-6.407c-.237 0-.43.2-.43.446s.192.446.43.446"/></g><g fill="#206FAC" sketch:type="MSShapeGroup"><path d="M6.596 125.02h2.208l2.484 2.698c.083.09.196.138.31.138l.16-.032c.163-.068.27-.232.27-.414v-1.048c0-.084-.023-.166-.065-.237l-.666-1.105h2.473c.131 0 .256-.063.337-.17l1.645-2.162c.102-.134.121-.317.05-.471-.072-.154-.222-.252-.387-.252h-1.106c-.119 0-.233.051-.314.141l-.53.589h-6.864c-.835 0-1.442.489-1.442 1.162 0 .671.604 1.159 1.436 1.162zm.005-1.432h7.05c.119 0 .232-.051.314-.142l.53-.589h.032l-.966 1.27h-6.963c-.347-.001-.58-.141-.58-.27 0-.13.234-.27.583-.27zm3.392 1.432h.29l.55.913-.84-.913zM27.91 123.633h-1.918c-.376 0-.709.254-.82.627l-.639 2.136-1.359 1.765c-.122.158-.188.355-.188.557v1.741l-.893.454c-.088.045-.169.106-.238.179-.227.242-.407.451-.55.634l-.638-.487-.974-.773c-.13-.103-.306-.121-.453-.045l-2.618 1.359-2.025.833-1.531-.434c-.109-.031-.226-.016-.324.042l-1.101.646-.119-.593c-.031-.155-.139-.281-.283-.331l-.509-.179-.219-.455v-.668c0-.136-.059-.264-.161-.348l-.412-.342v-.737c0-.246-.192-.446-.43-.446h-2.042v-1.16c0-.242-.186-.44-.419-.446-.095-.002-2.337-.06-2.588-.06-.237 0-.43.2-.43.446s.192.446.43.446c.163 0 1.311.028 2.148.049v2.003c0 .128.053.25.146.335l1.286 1.175v1.523c0 .271.248.897.737 1.861.058.114.161.197.283.227l.803.195.208.604.033.074.769 1.37h-1.345c-.755 0-1.369.638-1.369 1.422 0 .757.572 1.377 1.291 1.42l.07.006c.281 0 .51.238.51.53 0 .292-.229.53-.51.53h-4.103c-.237 0-.429.2-.429.446s.192.446.429.446h4.13c.743-.015 1.343-.647 1.343-1.422 0-.756-.572-1.377-1.29-1.419l-.07-.006c-.281 0-.51-.238-.51-.53 0-.292.229-.53.507-.53h9.222l-.945.359c-.288.109-.497.369-.551.683l-.003.02h-2.75c-.928 0-1.683.784-1.683 1.748 0 .933.707 1.697 1.594 1.745l.077.007c.468 0 1.071.415 1.071.856 0 .117-.023.228-.064.33h-8.03c-.474 0-.859.399-.859.892s.385.892.859.892h8.894c.228 0 .446-.094.608-.261l1.374-1.428c.161-.167.252-.394.252-.631v-1.795l.266-1.558 3.051-1.159c.339-.129.564-.463.564-.838v-5.086c.099-.146.307-.402.516-.633l1.237-.629c.295-.15.481-.461.481-.801v-1.984l1.272-1.652c.067-.087.118-.186.149-.293l.499-1.67h1.285c.474 0 .859-.4.859-.892 0-.493-.385-.892-.859-.892zm-11.026 17.854l-.013.156v1.504l-.46.478c-.03-.435-.264-.858-.651-1.174-.346-.283-.774-.453-1.187-.475l-.077-.007c-.454 0-.824-.384-.824-.856s.37-.855.819-.855h2.602l-.209 1.229zm-3.874-8.398l1.499.425c.09.026.185.02.271-.016l2.175-.895.034-.016 2.395-1.244.767.609.684.521c-.083.204-.083.331-.083.424v1.145l-1.612.249c-.15.023-.278.127-.335.274l-.404 1.036-2.321-.05-1.137-.92c-.159-.128-.381-.125-.536.007l-1.147.977v-.632c0-.214-.147-.398-.349-.438l-.977-.194-.11-.567 1.187-.697zm-1.146 4.323l-1.001-1.784-.273-.794c-.049-.143-.165-.25-.307-.284l-.838-.203c-.258-.524-.518-1.114-.548-1.282v-1.709c0-.128-.053-.25-.146-.335l-1.286-1.175v-.185h1.613v.506c0 .135.059.264.161.348l.412.342v.559l.045.199.344.714c.051.105.139.185.246.223l.444.156.189.937.229 1.178c.035.178.169.316.341.35l.911.18v.94c0 .108.038.212.106.294l.695.826h-1.337zm2.477 0l-.767-.911 1.11-.946.979.792c.073.059.162.092.255.094l2.759.059h.009c.174 0 .332-.11.398-.279l.423-1.084 1.243-.192v2.466h-6.41zM15.641 124.236c-.237 0-.43.2-.43.446s.192.446.43.446h3.792c.237 0 .43-.2.43-.446s-.192-.446-.43-.446h-3.792M17.145 123.923h6.407c.237 0 .43-.2.43-.446s-.192-.446-.43-.446h-6.407c-.237 0-.43.2-.43.446s.192.446.43.446"/></g></g></svg>