<svg width="32" height="232" viewBox="0 0 32 232" xmlns="http://www.w3.org/2000/svg" xmlns:sketch="http://www.bohemiancoding.com/sketch/ns"><title>Mexico</title><g sketch:type="MSLayerGroup" fill="none"><g fill="#373D43" sketch:type="MSShapeGroup"><path d="M21.987 13.117c-.146.177-.126.443.045.594l1.481 1.308c.077.068.171.101.264.101.115 0 .23-.05.31-.148.146-.177.126-.443-.045-.594l-1.482-1.308c-.17-.151-.428-.13-.574.047" id="Fill-1"/><path d="M15.879 8.277c.077.068.171.101.264.101.115 0 .229-.05.31-.148.146-.177.126-.443-.045-.594l-1.482-1.308c-.17-.151-.427-.13-.574.047-.146.177-.126.443.046.594l1.481 1.308" id="Fill-2"/><path d="M21.846 7.912c.115 0 .23-.05.31-.148l1.264-1.532c.146-.177.126-.443-.045-.594-.171-.151-.428-.13-.574.047l-1.264 1.532c-.146.177-.126.443.045.594.077.068.171.101.264.101" id="Fill-3"/><path d="M18.901 6.923l.032-.001c.224-.019.392-.221.374-.453l-.164-2.145c-.017-.233-.214-.406-.437-.387-.224.019-.392.221-.374.453l.164 2.146c.016.221.195.388.406.388" id="Fill-4"/><path d="M22.846 10.377c.017.221.195.389.406.389l.033-.002 2.074-.169c.224-.018.391-.221.374-.453-.018-.232-.214-.406-.438-.387l-2.074.17c-.224.018-.392.221-.374.453" id="Fill-5"/><path d="M24.314 12.836c.171 0 .33-.112.387-.289.071-.221-.045-.459-.258-.532l-1.254-.428c-.214-.073-.444.046-.514.267-.07.221.045.459.259.533l1.253.428.128.021" id="Fill-6"/><path d="M20.361 7.101l.128.021c.17 0 .33-.112.386-.289l.414-1.296c.07-.221-.046-.459-.259-.532-.214-.073-.444.047-.515.268l-.414 1.296c-.071.221.045.459.259.532" id="Fill-7"/><path d="M17.038 7.125c.071.147.215.232.364.232l.183-.045c.201-.105.282-.358.181-.566l-.594-1.219c-.101-.208-.346-.291-.546-.187-.201.105-.282.358-.181.566l.594 1.219" id="Fill-8"/><path d="M22.469 8.982c.072.147.215.232.364.232l.183-.045 1.179-.614c.201-.105.282-.358.18-.566-.1-.208-.346-.292-.546-.187l-1.179.614c-.201.105-.282.358-.181.566" id="Fill-9"/><path d="M28.978 25.532h-.963v-1.37c0-.233-.182-.421-.407-.421h-.652v-1.306c0-.233-.182-.421-.407-.421h-.687v-1.306c0-.233-.182-.422-.407-.422h-.687v-1.306c0-.233-.182-.421-.407-.421h-.722v-1.306c0-.233-.182-.422-.408-.422h-.739v-1.306c0-.233-.183-.421-.407-.421h-.722v-1.306c0-.233-.182-.422-.407-.422h-.994v-3.776c0-.233-.182-.421-.407-.421h-8.208c-.224 0-.407.189-.407.421v3.776h-.994c-.225 0-.407.189-.407.422v1.306h-.722c-.225 0-.407.189-.407.421v1.306h-.74c-.225 0-.407.189-.407.422v1.306h-.722c-.225 0-.408.189-.408.421v1.306h-.687c-.225 0-.407.189-.407.422v1.306h-.687c-.225 0-.407.189-.407.421v1.306h-.652c-.225 0-.407.189-.407.421v1.37h-.963c-.45 0-.814.377-.814.842 0 .465.364.842.814.842h27.055c.449 0 .814-.377.814-.842 0-.466-.365-.842-.814-.842zm-14.64-.065v-11.346h2.198v11.363h-2.198v-.017zm3.8-.884h9.062v.885h-9.062v-.885zm0-1.727h8.004v.885h-8.004v-.885zm0-1.727h6.91v.885h-6.91v-.885zm0-1.727h5.816v.885h-5.816v-.885zm0-1.727h4.687v.885h-4.687v-.885zm0-1.727h3.54v.885h-3.54v-.885zm2.411-1.727v.885h-2.411v-.87h1.416l.101-.014h.894zm-8.795-4.198h7.393v3.355h-1.127c-.143-.243-.401-.407-.696-.407-.296 0-.553.163-.696.407h-.537v-1.202c0-.216-.286-.391-.64-.391-.354 0-.64.175-.64.391v1.202h-.537c-.143-.243-.401-.407-.696-.407-.295 0-.553.163-.696.407h-1.128v-3.355zm-1.401 4.198h.893l.101.014h1.417v.87h-2.41v-.885zm-1.129 1.727h3.54v.885h-3.54v-.885zm-1.147 1.727h4.687v.885h-4.687v-.885zm-1.129 1.727h5.816v.885h-5.816v-.885zm-1.094 1.727h6.91v.885h-6.91v-.885zm-1.094 1.727h8.004v.885h-8.004v-.885zm-1.059 1.727h9.063v.885h-9.063v-.885z" id="Fill-10"/></g><g fill="#67737B" sketch:type="MSShapeGroup"><path d="M22.861 53.049c-.152.175-.131.439.047.589l1.543 1.298c.08.067.178.1.275.1.12 0 .239-.05.323-.147.152-.176.131-.44-.047-.589l-1.543-1.298c-.177-.15-.445-.129-.598.046" id="Fill-1"/><path d="M16.499 48.246c.08.067.178.1.275.1.12 0 .239-.05.322-.147.152-.176.131-.439-.047-.589l-1.543-1.299c-.177-.15-.445-.129-.598.047-.152.175-.131.439.048.589l1.542 1.298" id="Fill-2"/><path d="M22.714 47.883c.12 0 .239-.05.323-.147l1.317-1.52c.152-.176.131-.44-.047-.59-.178-.15-.446-.129-.598.047l-1.317 1.52c-.152.176-.131.439.047.589.08.067.178.1.275.1" id="Fill-3"/><path d="M19.647 46.902l.033-.001c.234-.018.409-.22.39-.45l-.171-2.129c-.018-.231-.223-.403-.455-.384-.234.018-.409.22-.39.45l.171 2.13c.017.219.203.385.422.385" id="Fill-4"/><path d="M23.757 50.33c.018.219.203.386.422.386l.034-.002 2.16-.168c.233-.018.408-.219.389-.45-.018-.23-.223-.403-.456-.384l-2.16.168c-.234.018-.408.219-.39.449" id="Fill-5"/><path d="M25.285 52.77c.178 0 .344-.111.403-.287.074-.219-.047-.455-.269-.528l-1.306-.425c-.223-.073-.462.046-.536.265-.073.219.047.456.27.529l1.305.425.133.021" id="Fill-6"/><path d="M21.168 47.077l.133.021c.178 0 .344-.111.402-.287l.432-1.287c.073-.219-.048-.456-.27-.528-.223-.072-.463.046-.536.266l-.431 1.287c-.074.219.047.455.27.528" id="Fill-7"/><path d="M17.706 47.102c.074.146.224.23.379.23l.19-.045c.21-.104.293-.355.188-.561l-.618-1.21c-.105-.206-.36-.289-.569-.185-.21.104-.294.355-.189.561l.619 1.21" id="Fill-8"/><path d="M23.364 48.945c.075.146.224.23.379.23l.19-.045 1.228-.609c.209-.104.294-.355.188-.561-.105-.207-.36-.29-.569-.186l-1.228.609c-.21.104-.293.356-.188.562" id="Fill-9"/><path d="M30.144 65.372h-1.003v-1.36c0-.231-.19-.418-.424-.418h-.679v-1.296c0-.231-.19-.418-.424-.418h-.715v-1.296c0-.231-.19-.419-.424-.419h-.715v-1.296c0-.231-.19-.418-.424-.418h-.752v-1.296c0-.231-.19-.419-.425-.419h-.77v-1.296c0-.231-.19-.418-.424-.418h-.753v-1.296c0-.231-.19-.419-.424-.419h-1.036v-3.748c0-.231-.19-.418-.424-.418h-8.55c-.234 0-.424.187-.424.418v3.748h-1.035c-.234 0-.424.188-.424.419v1.296h-.753c-.234 0-.424.187-.424.418v1.296h-.771c-.235 0-.424.188-.424.419v1.296h-.752c-.235 0-.425.187-.425.418v1.296h-.715c-.234 0-.424.188-.424.419v1.296h-.715c-.235 0-.424.187-.424.418v1.296h-.679c-.234 0-.424.187-.424.418v1.36h-1.003c-.469 0-.848.374-.848.836 0 .462.38.836.848.836h28.183c.468 0 .848-.375.848-.836 0-.462-.38-.836-.848-.836zm-15.25-.064v-11.261h2.29v11.279h-2.29v-.017zm3.958-.878h9.44v.878h-9.44v-.878zm0-1.714h8.337v.878h-8.337v-.878zm0-1.714h7.198v.878h-7.198v-.878zm0-1.714h6.059v.878h-6.059v-.878zm0-1.714h4.882v.878h-4.882v-.878zm0-1.714h3.688v.878h-3.688v-.878zm2.511-1.714v.878h-2.511v-.864h1.475l.105-.014h.931zm-9.161-4.166h7.701v3.33h-1.174c-.149-.242-.418-.404-.725-.404-.308 0-.576.162-.725.404h-.56v-1.193c0-.214-.298-.388-.666-.388-.368 0-.667.174-.667.388v1.193h-.559c-.149-.242-.418-.404-.725-.404-.308 0-.576.162-.725.404h-1.175v-3.33zm-1.46 4.166h.93l.105.014h1.476v.864h-2.511v-.878zm-1.176 1.714h3.688v.878h-3.688v-.878zm-1.195 1.714h4.882v.878h-4.882v-.878zm-1.176 1.714h6.058v.878h-6.058v-.878zm-1.14 1.714h7.198v.878h-7.198v-.878zm-1.14 1.714h8.337v.878h-8.337v-.878zm-1.103 1.714h9.44v.878h-9.44v-.878z" id="Fill-10"/></g><g fill="#206FAC" sketch:type="MSShapeGroup"><path d="M22.861 127.049c-.152.175-.131.439.047.589l1.543 1.298c.08.067.178.1.275.1.12 0 .239-.05.323-.147.152-.176.131-.44-.047-.589l-1.543-1.298c-.177-.15-.445-.129-.598.046"/><path d="M16.499 122.246c.08.067.178.1.275.1.12 0 .239-.05.322-.147.152-.176.131-.439-.047-.589l-1.543-1.299c-.177-.15-.445-.129-.598.047-.152.175-.131.439.048.589l1.542 1.298"/><path d="M22.714 121.883c.12 0 .239-.05.323-.147l1.317-1.52c.152-.176.131-.44-.047-.59-.178-.15-.446-.129-.598.047l-1.317 1.52c-.152.176-.131.439.047.589.08.067.178.1.275.1"/><path d="M19.647 120.902l.033-.001c.234-.018.409-.22.39-.45l-.171-2.129c-.018-.231-.223-.403-.455-.384-.234.018-.409.22-.39.45l.171 2.13c.017.219.203.385.422.385"/><path d="M23.757 124.33c.018.219.203.386.422.386l.034-.002 2.16-.168c.233-.018.408-.219.389-.45-.018-.23-.223-.403-.456-.384l-2.16.168c-.234.018-.408.219-.39.449"/><path d="M25.285 126.77c.178 0 .344-.111.403-.287.074-.219-.047-.455-.269-.528l-1.306-.425c-.223-.073-.462.046-.536.265-.073.219.047.456.27.529l1.305.425.133.021"/><path d="M21.168 121.077l.133.021c.178 0 .344-.111.402-.287l.432-1.287c.073-.219-.048-.456-.27-.528-.223-.072-.463.046-.536.266l-.431 1.287c-.074.219.047.455.27.528"/><path d="M17.706 121.102c.074.146.224.23.379.23l.19-.045c.21-.104.293-.355.188-.561l-.618-1.21c-.105-.206-.36-.289-.569-.185-.21.104-.294.355-.189.561l.619 1.21"/><path d="M23.364 122.945c.075.146.224.23.379.23l.19-.045 1.228-.609c.209-.104.294-.355.188-.561-.105-.207-.36-.29-.569-.186l-1.228.609c-.21.104-.293.356-.188.562"/><path d="M30.144 139.372h-1.003v-1.36c0-.231-.19-.418-.424-.418h-.679v-1.296c0-.231-.19-.418-.424-.418h-.715v-1.296c0-.231-.19-.419-.424-.419h-.715v-1.296c0-.231-.19-.418-.424-.418h-.752v-1.296c0-.231-.19-.419-.425-.419h-.77v-1.296c0-.231-.19-.418-.424-.418h-.753v-1.296c0-.231-.19-.419-.424-.419h-1.036v-3.748c0-.231-.19-.418-.424-.418h-8.55c-.234 0-.424.187-.424.418v3.748h-1.035c-.234 0-.424.188-.424.419v1.296h-.753c-.234 0-.424.187-.424.418v1.296h-.771c-.235 0-.424.188-.424.419v1.296h-.752c-.235 0-.425.187-.425.418v1.296h-.715c-.234 0-.424.188-.424.419v1.296h-.715c-.235 0-.424.187-.424.418v1.296h-.679c-.234 0-.424.187-.424.418v1.36h-1.003c-.469 0-.848.374-.848.836 0 .462.38.836.848.836h28.183c.468 0 .848-.375.848-.836 0-.462-.38-.836-.848-.836zm-15.25-.064v-11.261h2.29v11.279h-2.29v-.017zm3.958-.878h9.44v.878h-9.44v-.878zm0-1.714h8.337v.878h-8.337v-.878zm0-1.714h7.198v.878h-7.198v-.878zm0-1.714h6.059v.878h-6.059v-.878zm0-1.714h4.882v.878h-4.882v-.878zm0-1.714h3.688v.878h-3.688v-.878zm2.511-1.714v.878h-2.511v-.864h1.475l.105-.014h.931zm-9.161-4.166h7.701v3.33h-1.174c-.149-.242-.418-.404-.725-.404-.308 0-.576.162-.725.404h-.56v-1.193c0-.214-.298-.388-.666-.388-.368 0-.667.174-.667.388v1.193h-.559c-.149-.242-.418-.404-.725-.404-.308 0-.576.162-.725.404h-1.175v-3.33zm-1.46 4.166h.93l.105.014h1.476v.864h-2.511v-.878zm-1.176 1.714h3.688v.878h-3.688v-.878zm-1.195 1.714h4.882v.878h-4.882v-.878zm-1.176 1.714h6.058v.878h-6.058v-.878zm-1.14 1.714h7.198v.878h-7.198v-.878zm-1.14 1.714h8.337v.878h-8.337v-.878zm-1.103 1.714h9.44v.878h-9.44v-.878z"/></g><g fill="#fff" sketch:type="MSShapeGroup"><path d="M22.861 93.049c-.152.175-.131.439.047.589l1.543 1.298c.08.067.178.1.275.1.12 0 .239-.05.323-.147.152-.176.131-.44-.047-.589l-1.543-1.298c-.177-.15-.445-.129-.598.046M16.499 88.246c.08.067.178.1.275.1.12 0 .239-.05.322-.147.152-.176.131-.439-.047-.589l-1.543-1.299c-.177-.15-.445-.129-.598.047-.152.175-.131.439.048.589l1.542 1.298M22.714 87.883c.12 0 .239-.05.323-.147l1.317-1.52c.152-.176.131-.44-.047-.59-.178-.15-.446-.129-.598.047l-1.317 1.52c-.152.176-.131.439.047.589.08.067.178.1.275.1M19.647 86.902l.033-.001c.234-.018.409-.22.39-.45l-.171-2.129c-.018-.231-.223-.403-.455-.384-.234.018-.409.22-.39.45l.171 2.13c.017.219.203.385.422.385M23.757 90.33c.018.219.203.386.422.386l.034-.002 2.16-.168c.233-.018.408-.219.389-.45-.018-.23-.223-.403-.456-.384l-2.16.168c-.234.018-.408.219-.39.449M25.285 92.77c.178 0 .344-.111.403-.287.074-.219-.047-.455-.269-.528l-1.306-.425c-.223-.073-.462.046-.536.265-.073.219.047.456.27.529l1.305.425.133.021M21.168 87.077l.133.021c.178 0 .344-.111.402-.287l.432-1.287c.073-.219-.048-.456-.27-.528-.223-.072-.463.046-.536.266l-.431 1.287c-.074.219.047.455.27.528M17.706 87.102c.074.146.224.23.379.23l.19-.045c.21-.104.293-.355.188-.561l-.618-1.21c-.105-.206-.36-.289-.569-.185-.21.104-.294.355-.189.561l.619 1.21M23.364 88.945c.075.146.224.23.379.23l.19-.045 1.228-.609c.209-.104.294-.355.188-.561-.105-.207-.36-.29-.569-.186l-1.228.609c-.21.104-.293.356-.188.562"/><path d="M30.144 105.372h-1.003v-1.36c0-.231-.19-.418-.424-.418h-.679v-1.296c0-.231-.19-.418-.424-.418h-.715v-1.296c0-.231-.19-.419-.424-.419h-.715v-1.296c0-.231-.19-.418-.424-.418h-.752v-1.296c0-.231-.19-.419-.425-.419h-.77v-1.296c0-.231-.19-.418-.424-.418h-.753v-1.296c0-.231-.19-.419-.424-.419h-1.036v-3.748c0-.231-.19-.418-.424-.418h-8.55c-.234 0-.424.187-.424.418v3.748h-1.035c-.234 0-.424.188-.424.419v1.296h-.753c-.234 0-.424.187-.424.418v1.296h-.771c-.235 0-.424.188-.424.419v1.296h-.752c-.235 0-.425.187-.425.418v1.296h-.715c-.234 0-.424.188-.424.419v1.296h-.715c-.235 0-.424.187-.424.418v1.296h-.679c-.234 0-.424.187-.424.418v1.36h-1.003c-.469 0-.848.374-.848.836 0 .462.38.836.848.836h28.183c.468 0 .848-.375.848-.836 0-.462-.38-.836-.848-.836zm-15.25-.064v-11.261h2.29v11.279h-2.29v-.017zm3.958-.878h9.44v.878h-9.44v-.878zm0-1.714h8.337v.878h-8.337v-.878zm0-1.714h7.198v.878h-7.198v-.878zm0-1.714h6.059v.878h-6.059v-.878zm0-1.714h4.882v.878h-4.882v-.878zm0-1.714h3.688v.878h-3.688v-.878zm2.511-1.714v.878h-2.511v-.864h1.475l.105-.014h.931zm-9.161-4.166h7.701v3.33h-1.174c-.149-.242-.418-.404-.725-.404-.308 0-.576.162-.725.404h-.56v-1.193c0-.214-.298-.388-.666-.388-.368 0-.667.174-.667.388v1.193h-.559c-.149-.242-.418-.404-.725-.404-.308 0-.576.162-.725.404h-1.175v-3.33zm-1.46 4.166h.93l.105.014h1.476v.864h-2.511v-.878zm-1.176 1.714h3.688v.878h-3.688v-.878zm-1.195 1.714h4.882v.878h-4.882v-.878zm-1.176 1.714h6.058v.878h-6.058v-.878zm-1.14 1.714h7.198v.878h-7.198v-.878zm-1.14 1.714h8.337v.878h-8.337v-.878zm-1.103 1.714h9.44v.878h-9.44v-.878z"/></g></g></svg>