<svg width="32" height="232" viewBox="0 0 32 232" xmlns="http://www.w3.org/2000/svg" xmlns:sketch="http://www.bohemiancoding.com/sketch/ns"><title>Marrakesh</title><g sketch:type="MSLayerGroup" fill="none"><g fill="#373D43" sketch:type="MSShapeGroup"><path d="M7.207 45.958h.064l-.018.197c0 .573.438 1.04.975 1.04h4.467c.237 0 .466-.092.645-.26.21-.198.331-.482.331-.78 0-.298-.12-.582-.33-.779-.179-.168-.407-.261-.645-.261h-1.851l.003-.063c0-.26-.105-.508-.287-.679-.156-.146-.355-.227-.562-.227h-2.791c-.469 0-.85.407-.85.907 0 .499.381.905.85.905zm0-.969h2.791l.039.016.021.047-.021.047-.038.016h-.002c-.218 0-.395.188-.395.421 0 .233.177.421.395.421h2.699l.122.05c.023.022.063.071.063.147 0 .077-.04.126-.063.148l-.122.05h-4.467c-.102 0-.185-.089-.185-.197 0-.109.083-.197.185-.197.218 0 .395-.189.395-.421h.002c0-.233-.177-.421-.395-.421h-1.023l-.06-.063.06-.063z" id="Fill-1"/><path d="M27.723 65.929h-1.686c.301-.422.472-.918.472-1.454l-.001-.07-.019-.231c-.029-.229-.089-.453-.182-.666l-1.731-6.286c-.021-.434-.145-.853-.362-1.223l-.033-.053c-.088-.144-.191-.276-.302-.396-.262-.279-.575-.485-.916-.61l.25-.23c.251-.269.429-.586.533-.924.37-.191.652-.556.739-1.006l.057-.292c.087-.453-.036-.905-.303-1.235.002-.297-.047-.591-.146-.869h2.167c.218 0 .395-.188.395-.422 0-.232-.177-.421-.395-.421h-2.675c-.311-.336-.707-.567-1.151-.665-.151-.033-.305-.05-.458-.05-.915 0-1.731.597-2.08 1.472-.242.124-.445.324-.582.574h-1.141v-1.573c0-.233-.177-.422-.395-.422h-5.294c-.218 0-.395.189-.395.422v.114h-1.777c-.218 0-.395.188-.395.421v1.149h-.712v-.593c0-.232-.177-.421-.395-.421h-2.015v-1.449c0-.233-.177-.422-.395-.422h-3.16c-.218 0-.395.188-.395.422 0 .232.177.421.395.421h2.765v1.449c0 .233.177.422.395.422h2.014v.592c0 .233.177.421.395.421h1.501c.218 0 .395-.188.395-.421v-1.15h1.777c.218 0 .395-.188.395-.421v-.115h4.503v1.574c0 .233.177.421.395.421h1.307c-.051.447.099.878.38 1.183-.04.65.173 1.315.638 1.811.218.232.473.409.752.526-.127.091-.247.196-.358.314-.239.254-.426.564-.545.9l-.917 1.586-.837-.574c.049-.152.075-.312.076-.475l1.231-1.48c.139-.167.132-.42-.016-.578l-.713-.76c-.148-.158-.385-.165-.541-.017l-1.388 1.313c-.375.003-.726.16-.991.442-.298.318-.444.749-.411 1.188l-1.706 2.023c-.14.166-.134.421.014.579l-.649.692c-.154.165-.154.431 0 .596.077.082.178.124.279.124.101 0 .202-.041.279-.124l.65-.693c.076.077.174.117.272.117.094 0 .189-.036.263-.108l1.111-1.065c.069.163.164.315.289.449l.03.031 2.234 2.141c.18.186.397.326.635.41l.16.07-2.036.367c-1.481.031-2.631 1.027-2.631 2.294 0 .334.08.649.225.932h-1.587v-1.823c0-.572-.248-1.078-.627-1.386.043-.152.068-.315.068-.483v-1.528c0-.862-.615-1.564-1.371-1.564h-1.418c-.121-.412-.273-.831-.423-1.246l-.256-.725c-.154-.458-.271-.882-.271-1.179 0-.238.045-.399.135-.476.161-.139.515-.152.766-.118l.113.02c.293.07.585-.045.769-.271h.634c.218 0 .395-.188.395-.421 0-.233-.177-.421-.395-.421h-.49c-.089-.258-.295-.465-.565-.53-.137-.033-1.357-.304-2.212.423-.334.284-.731.826-.731 1.795 0 .765.308 1.613.634 2.512l.226.638h-1.789c-.756 0-1.371.701-1.371 1.564v1.528c0 .168.024.331.068.483-.379.307-.627.814-.627 1.386v1.823h-.731c-.437 0-.79.377-.79.842 0 .465.354.842.79.842h23.915c.436 0 .79-.377.79-.842 0-.465-.354-.842-.79-.842zm-13.125-6.522l-.023-.024 1.581-1.875c.087-.103.121-.244.091-.378-.051-.229.011-.464.165-.629.137-.146.331-.216.524-.19.113.015.227-.022.312-.103l1.231-1.165.187.2-1.092 1.313c-.076.091-.111.212-.096.332l-.007.215c-.023.129-.082.248-.171.343l-.066.06c-.163.004-.321.048-.462.127l-.061-.011c-.126-.032-.259.005-.355.096l-1.758 1.686zm7.377-8.894l.14.015c.177.039.33.15.43.312l.045.086c.063.139.083.295.055.449l-.001.005-.01.043-.002.009c-.052.225-.014.452.091.638l.055.085-1.828-.402-.049-.01c.201-.116.35-.324.398-.576l.007-.036.006-.048c.03-.145.101-.273.197-.37.123-.124.288-.199.465-.199zm.855 3.374l-.175.228c-.266.284-.62.441-.997.441s-.731-.157-.997-.441c-.21-.223-.339-.501-.388-.79l2.557.562zm-7.004 11.11c0-.559.695-1.032 1.517-1.032l.066-.006.417-.075-1.06 2.045-.009.016-.048-.016c-.516-.166-.883-.526-.883-.932zm1.255-6.212c-.042-.048-.065-.11-.065-.176l.039-.139.033-.044c.074-.079.193-.092.284-.043l.058.043.066.057 1.236.846v1.037l-1.65-1.581zm2.44 2.157v-1.397l.101-.117 1.382-2.391.039-.089c.06-.192.158-.361.293-.505.227-.243.53-.377.853-.377.322 0 .625.133.853.377l.158.209.003.005c.126.208.192.449.192.696l.016.12 1.778 6.456.026.07c.057.121.092.248.104.376l.002.016v.002l.003.082c0 .239-.081.466-.224.67l-.37-.005-.153-.01c-.795-.062-1.425-.315-1.875-.757-.315-.309-.496-.668-.598-.969l-.082-.29c-.046-.204-.053-.341-.053-.348l-.002-.012v-.014l-.172-1.96 1.168-1.246c.155-.164.155-.431 0-.595-.154-.165-.404-.165-.558 0l-.816.869-.483.516-.584.623c-.147.157-.344.244-.553.244-.123 0-.246-.031-.355-.09l-.073-.03-.037-.014.017-.117zm-1.853 4.987l1.153-2.225 2.422-.437.111.407c.136.404.376.886.801 1.308.259.257.56.465.899.624.282.132.591.23.926.293l-.1.029c-.238.064-.494.099-.759.099h-5.506l.052-.099zm-10.989-5.099h4.46v1.285h-4.46v-1.285zm-.56 5.086v-.236h2.22c.218 0 .395-.189.395-.421 0-.233-.177-.422-.395-.422h-2.22v-.744h5.579l.001.012v1.811l-.001.012h-5.579v-.012z" id="Fill-2"/><path d="M22.945 48.351c.062.163.21.263.366.263l.147-.031 1.303-.561c.202-.087.3-.332.219-.548-.082-.216-.312-.321-.515-.233l-1.303.561c-.203.086-.3.332-.218.548" id="Fill-3"/><path d="M19.145 46.628c.062.164.21.264.367.264l.147-.031c.202-.087.3-.333.218-.548l-.526-1.39c-.081-.215-.312-.32-.514-.233-.203.087-.3.332-.219.548l.526 1.39" id="Fill-4"/><path d="M16.381 47.901l1.381.626.154.034c.154 0 .3-.096.364-.257.086-.214-.008-.461-.209-.552l-1.382-.626c-.2-.091-.433.008-.518.223-.085.214.009.461.21.552" id="Fill-5"/><path d="M21.591 46.88l.154.034c.154 0 .3-.096.364-.256l.588-1.474c.086-.214-.008-.461-.209-.552-.2-.09-.432.009-.518.223l-.588 1.474c-.086.214.009.461.209.552" id="Fill-6"/><path d="M22.414 47.482c.077.085.18.127.283.127.099 0 .198-.039.276-.119l.683-.707c.156-.162.16-.429.008-.596-.152-.167-.402-.17-.558-.009l-.683.708c-.156.162-.16.429-.008.595" id="Fill-7"/><path d="M18.286 47.418c.078.085.181.127.283.127.099 0 .199-.039.276-.119.156-.162.16-.429.008-.595l-.664-.729c-.152-.167-.402-.171-.559-.009-.156.162-.16.429-.008.596l.664.729" id="Fill-8"/><path d="M20.64 46.666h.006c.215 0 .392-.185.395-.415l.014-1.015c.003-.233-.171-.424-.389-.427h-.006c-.216 0-.392.184-.395.415l-.014 1.015c-.003.233.171.424.39.427" id="Fill-9"/></g><g fill="#fff" sketch:type="MSShapeGroup"><path d="M7.27 5.909h.065l-.019.192c0 .559.444 1.014.99 1.014h4.534c.241 0 .473-.09.654-.254.214-.193.336-.47.336-.76 0-.291-.122-.568-.335-.76-.182-.164-.414-.254-.655-.254h-1.879l.003-.061c0-.254-.107-.496-.292-.663-.158-.142-.361-.222-.57-.222h-2.833c-.476 0-.863.397-.863.884s.387.883.863.883zm0-.945h2.833l.039.016.021.046-.022.046-.039.015h-.002c-.221 0-.401.184-.401.411 0 .227.18.411.401.411h2.74l.124.049c.024.021.064.069.064.144 0 .075-.04.123-.064.144l-.124.048h-4.534c-.104 0-.188-.086-.188-.192 0-.106.084-.192.188-.192.221 0 .401-.184.401-.411h.002c0-.227-.18-.411-.401-.411h-1.038l-.061-.061.061-.062z" id="Fill-1"/><path d="M28.097 25.384h-1.711c.305-.411.479-.895.479-1.418l-.001-.068-.019-.226c-.029-.224-.091-.441-.185-.649l-1.757-6.13c-.021-.423-.147-.832-.368-1.192l-.033-.052c-.09-.14-.193-.27-.307-.386-.266-.272-.583-.473-.93-.594l.254-.224c.255-.262.435-.571.541-.901.375-.186.662-.542.75-.981l.058-.284c.089-.441-.036-.883-.308-1.204.002-.29-.048-.576-.149-.847h2.2c.222 0 .401-.184.401-.411 0-.226-.179-.411-.401-.411h-2.715c-.316-.328-.718-.553-1.168-.648-.153-.032-.31-.049-.465-.049-.929 0-1.757.582-2.111 1.436-.245.121-.452.316-.591.559h-1.158v-1.534c0-.227-.18-.411-.401-.411h-5.374c-.221 0-.401.184-.401.411v.111h-1.804c-.222 0-.401.184-.401.411v1.121h-.722v-.578c0-.226-.179-.41-.401-.41h-2.045v-1.413c0-.228-.179-.411-.401-.411h-3.208c-.221 0-.401.184-.401.411 0 .226.18.41.401.41h2.807v1.413c0 .228.179.411.401.411h2.045v.577c0 .227.18.411.401.411h1.524c.221 0 .401-.184.401-.411v-1.121h1.804c.222 0 .401-.184.401-.41v-.112h4.572v1.535c0 .227.18.411.401.411h1.326c-.052.436.1.857.386 1.154-.04.634.175 1.282.648 1.766.221.226.481.399.763.512-.129.089-.251.191-.363.307-.242.248-.433.55-.553.877l-.931 1.546-.85-.559c.049-.148.076-.304.077-.464l1.25-1.443c.141-.163.134-.41-.016-.563l-.724-.741c-.15-.154-.391-.161-.549-.017l-1.409 1.28c-.381.003-.737.156-1.007.431-.302.31-.45.73-.417 1.158l-1.732 1.973c-.142.162-.136.41.015.565l-.659.675c-.156.161-.156.42 0 .581.078.08.181.121.284.121.102 0 .205-.04.284-.121l.659-.676c.078.075.176.114.277.114.095 0 .191-.035.267-.105l1.128-1.039c.07.159.167.307.294.438l.031.03 2.268 2.087c.182.182.403.318.645.4l.162.068-2.067.358c-1.504.03-2.671 1.002-2.671 2.237 0 .326.082.633.228.909h-1.611v-1.778c0-.558-.252-1.052-.637-1.351.044-.148.069-.307.069-.471v-1.49c0-.841-.625-1.525-1.392-1.525h-1.44c-.123-.402-.277-.811-.43-1.215l-.26-.707c-.157-.447-.275-.86-.275-1.15 0-.232.046-.389.137-.464.163-.135.522-.148.778-.115l.115.019c.297.068.594-.044.781-.264h.643c.221 0 .401-.184.401-.41 0-.227-.179-.411-.401-.411h-.497c-.091-.252-.299-.453-.574-.517-.139-.032-1.377-.296-2.245.412-.339.277-.743.805-.743 1.75 0 .746.312 1.573.643 2.449l.23.622h-1.816c-.768 0-1.392.684-1.392 1.525v1.49c0 .164.025.323.069.471-.384.3-.637.793-.637 1.351v1.778h-.743c-.443 0-.802.368-.802.822 0 .454.359.822.802.822h24.278c.443 0 .802-.368.802-.822 0-.454-.359-.822-.802-.822zm-13.323-6.36l-.023-.023 1.605-1.828c.088-.1.123-.238.093-.369-.052-.223.011-.452.168-.613.139-.142.336-.21.532-.185.115.015.23-.022.317-.1l1.25-1.136.189.195-1.108 1.28c-.077.088-.112.207-.098.324l-.007.21c-.024.126-.083.242-.174.335l-.067.059c-.166.004-.326.046-.469.124l-.062-.011c-.128-.031-.263.004-.36.094l-1.785 1.644zm7.489-8.673l.142.015c.18.038.335.146.437.304l.045.084c.064.136.084.288.056.438l-.001.005-.011.042-.002.009c-.053.219-.014.441.093.622l.056.083-1.856-.392-.049-.01c.204-.113.355-.316.404-.562l.007-.035.006-.047c.031-.141.102-.266.2-.361.125-.121.292-.194.472-.194zm.867 3.29l-.178.222c-.27.277-.629.43-1.012.43s-.742-.153-1.012-.43c-.213-.218-.344-.488-.394-.77l2.596.548zm-7.111 10.834c0-.545.705-1.006 1.54-1.006l.067-.006.423-.073-1.076 1.994-.009.015-.048-.015c-.524-.162-.897-.513-.897-.909zm1.274-6.057c-.043-.047-.066-.108-.066-.172l.039-.135.033-.043c.075-.077.196-.09.288-.042l.059.042.067.055 1.255.825v1.012l-1.675-1.542zm2.477 2.103v-1.362l.103-.114 1.403-2.331.039-.087c.061-.187.16-.352.297-.492.231-.237.539-.367.865-.367.327 0 .635.13.866.367l.161.204.003.005c.128.203.195.438.195.679l.017.117 1.805 6.296.026.068c.058.118.093.242.106.367l.002.015v.002l.003.079c0 .233-.082.454-.227.654l-.376-.004-.156-.01c-.807-.061-1.446-.307-1.904-.738-.32-.301-.503-.652-.607-.945l-.083-.283c-.047-.199-.054-.332-.054-.339l-.002-.012v-.013l-.174-1.911 1.185-1.215c.157-.16.157-.42 0-.581-.156-.161-.41-.161-.567 0l-.828.848-.49.503-.593.608c-.15.153-.349.238-.561.238-.125 0-.25-.03-.36-.088l-.074-.029-.038-.013.017-.114zm-1.881 4.863l1.171-2.17 2.459-.426.113.397c.138.394.381.864.813 1.276.263.251.569.454.913.608.286.129.6.224.94.286l-.102.028c-.242.063-.501.097-.77.097h-5.589l.052-.097zm-11.156-4.972h4.528v1.253h-4.528v-1.253zm-.568 4.96v-.23h2.254c.221 0 .401-.184.401-.411 0-.227-.179-.411-.401-.411h-2.254v-.725h5.664l.001.012v1.766l-.001.012h-5.664v-.012z" id="Fill-2"/><path d="M23.247 8.243c.063.159.213.257.372.257l.15-.03 1.323-.547c.205-.085.305-.324.222-.534-.083-.211-.317-.313-.522-.228l-1.323.547c-.206.084-.305.324-.222.535" id="Fill-3"/><path d="M19.389 6.563c.063.16.214.257.372.257l.15-.03c.205-.085.305-.324.222-.535l-.534-1.355c-.082-.21-.316-.312-.522-.227-.206.085-.305.324-.222.534l.534 1.355" id="Fill-4"/><path d="M16.583 7.804l1.402.611.156.033c.156 0 .305-.094.369-.251.087-.209-.008-.45-.212-.539l-1.403-.61c-.203-.089-.439.008-.526.217-.087.209.009.45.213.539" id="Fill-5"/><path d="M21.873 6.809l.156.033c.156 0 .305-.094.369-.25l.596-1.437c.087-.208-.008-.45-.212-.539-.203-.088-.439.009-.526.217l-.596 1.437c-.087.209.009.45.212.539" id="Fill-6"/><path d="M22.708 7.396c.078.083.183.124.288.124.101 0 .201-.038.28-.116l.694-.69c.158-.158.162-.418.008-.581-.154-.163-.408-.166-.567-.008l-.694.69c-.159.158-.162.418-.008.581" id="Fill-7"/><path d="M18.517 7.333c.079.083.184.124.288.124.1 0 .202-.038.28-.116.158-.158.162-.418.008-.581l-.674-.711c-.154-.163-.409-.167-.567-.008-.159.158-.162.418-.008.581l.674.711" id="Fill-8"/><path d="M20.907 6.599h.006c.219 0 .397-.18.401-.405l.014-.99c.003-.227-.174-.413-.395-.417h-.006c-.219 0-.398.18-.401.405l-.014.99c-.003.227.174.414.396.416" id="Fill-9"/></g><g fill="#67737B" sketch:type="MSShapeGroup"><path d="M7.27 86.909h.065l-.019.192c0 .559.444 1.014.99 1.014h4.534c.241 0 .473-.09.654-.254.214-.193.336-.47.336-.76 0-.291-.122-.568-.335-.76-.182-.164-.414-.254-.655-.254h-1.879l.003-.061c0-.254-.107-.496-.292-.663-.158-.142-.361-.222-.57-.222h-2.833c-.476 0-.863.397-.863.884s.387.883.863.883zm0-.945h2.833l.039.016.021.046-.022.046-.039.015h-.002c-.221 0-.401.184-.401.411 0 .227.18.411.401.411h2.74l.124.049c.024.021.064.069.064.144 0 .075-.04.123-.064.144l-.124.048h-4.534c-.104 0-.188-.086-.188-.192 0-.106.084-.192.188-.192.221 0 .401-.184.401-.411h.002c0-.227-.18-.411-.401-.411h-1.038l-.061-.061.061-.062z"/><path d="M28.097 106.384h-1.711c.305-.411.479-.895.479-1.418l-.001-.068-.019-.226c-.029-.224-.091-.441-.185-.649l-1.757-6.13c-.021-.423-.147-.832-.368-1.192l-.033-.052c-.09-.14-.193-.27-.307-.386-.266-.272-.583-.473-.93-.594l.254-.224c.255-.262.435-.571.541-.901.375-.186.662-.542.75-.981l.058-.284c.089-.441-.036-.883-.308-1.204.002-.29-.048-.576-.149-.847h2.2c.222 0 .401-.184.401-.411 0-.226-.179-.411-.401-.411h-2.715c-.316-.328-.718-.553-1.168-.648-.153-.032-.31-.049-.465-.049-.929 0-1.757.582-2.111 1.436-.245.121-.452.316-.591.559h-1.158v-1.534c0-.227-.18-.411-.401-.411h-5.374c-.221 0-.401.184-.401.411v.111h-1.804c-.222 0-.401.184-.401.411v1.121h-.722v-.578c0-.226-.179-.41-.401-.41h-2.045v-1.413c0-.228-.179-.411-.401-.411h-3.208c-.221 0-.401.184-.401.411 0 .226.18.41.401.41h2.807v1.413c0 .228.179.411.401.411h2.045v.577c0 .227.18.411.401.411h1.524c.221 0 .401-.184.401-.411v-1.121h1.804c.222 0 .401-.184.401-.41v-.112h4.572v1.535c0 .227.18.411.401.411h1.326c-.052.436.1.857.386 1.154-.04.634.175 1.282.648 1.766.221.226.481.399.763.512-.129.089-.251.191-.363.307-.242.248-.433.55-.553.877l-.931 1.546-.85-.559c.049-.148.076-.304.077-.464l1.25-1.443c.141-.163.134-.41-.016-.563l-.724-.741c-.15-.154-.391-.161-.549-.017l-1.409 1.28c-.381.003-.737.156-1.007.431-.302.31-.45.73-.417 1.158l-1.732 1.973c-.142.162-.136.41.015.565l-.659.675c-.156.161-.156.42 0 .581.078.08.181.121.284.121.102 0 .205-.04.284-.121l.659-.676c.078.075.176.114.277.114.095 0 .191-.035.267-.105l1.128-1.039c.07.159.167.307.294.438l.031.03 2.268 2.087c.182.182.403.318.645.4l.162.068-2.067.358c-1.504.03-2.671 1.002-2.671 2.237 0 .326.082.633.228.909h-1.611v-1.778c0-.558-.252-1.052-.637-1.351.044-.148.069-.307.069-.471v-1.49c0-.841-.625-1.525-1.392-1.525h-1.44c-.123-.402-.277-.811-.43-1.215l-.26-.707c-.157-.447-.275-.86-.275-1.15 0-.232.046-.389.137-.464.163-.135.522-.148.778-.115l.115.019c.297.068.594-.044.781-.264h.643c.221 0 .401-.184.401-.41 0-.227-.179-.411-.401-.411h-.497c-.091-.252-.299-.453-.574-.517-.139-.032-1.377-.296-2.245.412-.339.277-.743.805-.743 1.75 0 .746.312 1.573.643 2.449l.23.622h-1.816c-.768 0-1.392.684-1.392 1.525v1.49c0 .164.025.323.069.471-.384.3-.637.793-.637 1.351v1.778h-.743c-.443 0-.802.368-.802.822 0 .454.359.822.802.822h24.278c.443 0 .802-.368.802-.822 0-.454-.359-.822-.802-.822zm-13.323-6.36l-.023-.023 1.605-1.828c.088-.1.123-.238.093-.369-.052-.223.011-.452.168-.613.139-.142.336-.21.532-.185.115.015.23-.022.317-.1l1.25-1.136.189.195-1.108 1.28c-.077.088-.112.207-.098.324l-.007.21c-.024.126-.083.242-.174.335l-.067.059c-.166.004-.326.046-.469.124l-.062-.011c-.128-.031-.263.004-.36.094l-1.785 1.644zm7.489-8.673l.142.015c.18.038.335.146.437.304l.045.084c.064.136.084.288.056.438l-.001.005-.011.042-.002.009c-.053.219-.014.441.093.622l.056.083-1.856-.392-.049-.01c.204-.113.355-.316.404-.562l.007-.035.006-.047c.031-.141.102-.266.2-.361.125-.121.292-.194.472-.194zm.867 3.29l-.178.222c-.27.277-.629.43-1.012.43s-.742-.153-1.012-.43c-.213-.218-.344-.488-.394-.77l2.596.548zm-7.111 10.834c0-.545.705-1.006 1.54-1.006l.067-.006.423-.073-1.076 1.994-.009.015-.048-.015c-.524-.162-.897-.513-.897-.909zm1.274-6.057c-.043-.047-.066-.108-.066-.172l.039-.135.033-.043c.075-.077.196-.09.288-.042l.059.042.067.055 1.255.825v1.012l-1.675-1.542zm2.477 2.103v-1.362l.103-.114 1.403-2.331.039-.087c.061-.187.16-.352.297-.492.231-.237.539-.367.865-.367.327 0 .635.13.866.367l.161.204.003.005c.128.203.195.438.195.679l.017.117 1.805 6.296.026.068c.058.118.093.242.106.367l.002.015v.002l.003.079c0 .233-.082.454-.227.654l-.376-.004-.156-.01c-.807-.061-1.446-.307-1.904-.738-.32-.301-.503-.652-.607-.945l-.083-.283c-.047-.199-.054-.332-.054-.339l-.002-.012v-.013l-.174-1.911 1.185-1.215c.157-.16.157-.42 0-.581-.156-.161-.41-.161-.567 0l-.828.848-.49.503-.593.608c-.15.153-.349.238-.561.238-.125 0-.25-.03-.36-.088l-.074-.029-.038-.013.017-.114zm-1.881 4.863l1.171-2.17 2.459-.426.113.397c.138.394.381.864.813 1.276.263.251.569.454.913.608.286.129.6.224.94.286l-.102.028c-.242.063-.501.097-.77.097h-5.589l.052-.097zm-11.156-4.972h4.528v1.253h-4.528v-1.253zm-.568 4.96v-.23h2.254c.221 0 .401-.184.401-.411 0-.227-.179-.411-.401-.411h-2.254v-.725h5.664l.001.012v1.766l-.001.012h-5.664v-.012z"/><path d="M23.247 89.243c.063.159.213.257.372.257l.15-.03 1.323-.547c.205-.085.305-.324.222-.534-.083-.211-.317-.313-.522-.228l-1.323.547c-.206.084-.305.324-.222.535"/><path d="M19.389 87.563c.063.16.214.257.372.257l.15-.03c.205-.085.305-.324.222-.535l-.534-1.355c-.082-.21-.316-.312-.522-.227-.206.085-.305.324-.222.534l.534 1.355"/><path d="M16.583 88.804l1.402.611.156.033c.156 0 .305-.094.369-.251.087-.209-.008-.45-.212-.539l-1.403-.61c-.203-.089-.439.008-.526.217-.087.209.009.45.213.539"/><path d="M21.873 87.809l.156.033c.156 0 .305-.094.369-.25l.596-1.437c.087-.208-.008-.45-.212-.539-.203-.088-.439.009-.526.217l-.596 1.437c-.087.209.009.45.212.539"/><path d="M22.708 88.396c.078.083.183.124.288.124.101 0 .201-.038.28-.116l.694-.69c.158-.158.162-.418.008-.581-.154-.163-.408-.166-.567-.008l-.694.69c-.159.158-.162.418-.008.581"/><path d="M18.517 88.333c.079.083.184.124.288.124.1 0 .202-.038.28-.116.158-.158.162-.418.008-.581l-.674-.711c-.154-.163-.409-.167-.567-.008-.159.158-.162.418-.008.581l.674.711"/><path d="M20.907 87.599h.006c.219 0 .397-.18.401-.405l.014-.99c.003-.227-.174-.413-.395-.417h-.006c-.219 0-.398.18-.401.405l-.014.99c-.003.227.174.414.396.416"/></g><g fill="#206FAC" sketch:type="MSShapeGroup"><path d="M7.27 127.909h.065l-.019.192c0 .559.444 1.014.99 1.014h4.534c.241 0 .473-.09.654-.254.214-.193.336-.47.336-.76 0-.291-.122-.568-.335-.76-.182-.164-.414-.254-.655-.254h-1.879l.003-.061c0-.254-.107-.496-.292-.663-.158-.142-.361-.222-.57-.222h-2.833c-.476 0-.863.397-.863.884s.387.883.863.883zm0-.945h2.833l.039.016.021.046-.022.046-.039.015h-.002c-.221 0-.401.184-.401.411 0 .227.18.411.401.411h2.74l.124.049c.024.021.064.069.064.144 0 .075-.04.123-.064.144l-.124.048h-4.534c-.104 0-.188-.086-.188-.192 0-.106.084-.192.188-.192.221 0 .401-.184.401-.411h.002c0-.227-.18-.411-.401-.411h-1.038l-.061-.061.061-.062zM28.097 147.384h-1.711c.305-.411.479-.895.479-1.418l-.001-.068-.019-.226c-.029-.224-.091-.441-.185-.649l-1.757-6.13c-.021-.423-.147-.832-.368-1.192l-.033-.052c-.09-.14-.193-.27-.307-.386-.266-.272-.583-.473-.93-.594l.254-.224c.255-.262.435-.571.541-.901.375-.186.662-.542.75-.981l.058-.284c.089-.441-.036-.883-.308-1.204.002-.29-.048-.576-.149-.847h2.2c.222 0 .401-.184.401-.411 0-.226-.179-.411-.401-.411h-2.715c-.316-.328-.718-.553-1.168-.648-.153-.032-.31-.049-.465-.049-.929 0-1.757.582-2.111 1.436-.245.121-.452.316-.591.559h-1.158v-1.534c0-.227-.18-.411-.401-.411h-5.374c-.221 0-.401.184-.401.411v.111h-1.804c-.222 0-.401.184-.401.411v1.121h-.722v-.578c0-.226-.179-.41-.401-.41h-2.045v-1.413c0-.228-.179-.411-.401-.411h-3.208c-.221 0-.401.184-.401.411 0 .226.18.41.401.41h2.807v1.413c0 .228.179.411.401.411h2.045v.577c0 .227.18.411.401.411h1.524c.221 0 .401-.184.401-.411v-1.121h1.804c.222 0 .401-.184.401-.41v-.112h4.572v1.535c0 .227.18.411.401.411h1.326c-.052.436.1.857.386 1.154-.04.634.175 1.282.648 1.766.221.226.481.399.763.512-.129.089-.251.191-.363.307-.242.248-.433.55-.553.877l-.931 1.546-.85-.559c.049-.148.076-.304.077-.464l1.25-1.443c.141-.163.134-.41-.016-.563l-.724-.741c-.15-.154-.391-.161-.549-.017l-1.409 1.28c-.381.003-.737.156-1.007.431-.302.31-.45.73-.417 1.158l-1.732 1.973c-.142.162-.136.41.015.565l-.659.675c-.156.161-.156.42 0 .581.078.08.181.121.284.121.102 0 .205-.04.284-.121l.659-.676c.078.075.176.114.277.114.095 0 .191-.035.267-.105l1.128-1.039c.07.159.167.307.294.438l.031.03 2.268 2.087c.182.182.403.318.645.4l.162.068-2.067.358c-1.504.03-2.671 1.002-2.671 2.237 0 .326.082.633.228.909h-1.611v-1.778c0-.558-.252-1.052-.637-1.351.044-.148.069-.307.069-.471v-1.49c0-.841-.625-1.525-1.392-1.525h-1.44c-.123-.402-.277-.811-.43-1.215l-.26-.707c-.157-.447-.275-.86-.275-1.15 0-.232.046-.389.137-.464.163-.135.522-.148.778-.115l.115.019c.297.068.594-.044.781-.264h.643c.221 0 .401-.184.401-.41 0-.227-.179-.411-.401-.411h-.497c-.091-.252-.299-.453-.574-.517-.139-.032-1.377-.296-2.245.412-.339.277-.743.805-.743 1.75 0 .746.312 1.573.643 2.449l.23.622h-1.816c-.768 0-1.392.684-1.392 1.525v1.49c0 .164.025.323.069.471-.384.3-.637.793-.637 1.351v1.778h-.743c-.443 0-.802.368-.802.822 0 .454.359.822.802.822h24.278c.443 0 .802-.368.802-.822 0-.454-.359-.822-.802-.822zm-13.323-6.36l-.023-.023 1.605-1.828c.088-.1.123-.238.093-.369-.052-.223.011-.452.168-.613.139-.142.336-.21.532-.185.115.015.23-.022.317-.1l1.25-1.136.189.195-1.108 1.28c-.077.088-.112.207-.098.324l-.007.21c-.024.126-.083.242-.174.335l-.067.059c-.166.004-.326.046-.469.124l-.062-.011c-.128-.031-.263.004-.36.094l-1.785 1.644zm7.489-8.673l.142.015c.18.038.335.146.437.304l.045.084c.064.136.084.288.056.438l-.001.005-.011.042-.002.009c-.053.219-.014.441.093.622l.056.083-1.856-.392-.049-.01c.204-.113.355-.316.404-.562l.007-.035.006-.047c.031-.141.102-.266.2-.361.125-.121.292-.194.472-.194zm.867 3.29l-.178.222c-.27.277-.629.43-1.012.43s-.742-.153-1.012-.43c-.213-.218-.344-.488-.394-.77l2.596.548zm-7.111 10.834c0-.545.705-1.006 1.54-1.006l.067-.006.423-.073-1.076 1.994-.009.015-.048-.015c-.524-.162-.897-.513-.897-.909zm1.274-6.057c-.043-.047-.066-.108-.066-.172l.039-.135.033-.043c.075-.077.196-.09.288-.042l.059.042.067.055 1.255.825v1.012l-1.675-1.542zm2.477 2.103v-1.362l.103-.114 1.403-2.331.039-.087c.061-.187.16-.352.297-.492.231-.237.539-.367.865-.367.327 0 .635.13.866.367l.161.204.003.005c.128.203.195.438.195.679l.017.117 1.805 6.296.026.068c.058.118.093.242.106.367l.002.015v.002l.003.079c0 .233-.082.454-.227.654l-.376-.004-.156-.01c-.807-.061-1.446-.307-1.904-.738-.32-.301-.503-.652-.607-.945l-.083-.283c-.047-.199-.054-.332-.054-.339l-.002-.012v-.013l-.174-1.911 1.185-1.215c.157-.16.157-.42 0-.581-.156-.161-.41-.161-.567 0l-.828.848-.49.503-.593.608c-.15.153-.349.238-.561.238-.125 0-.25-.03-.36-.088l-.074-.029-.038-.013.017-.114zm-1.881 4.863l1.171-2.17 2.459-.426.113.397c.138.394.381.864.813 1.276.263.251.569.454.913.608.286.129.6.224.94.286l-.102.028c-.242.063-.501.097-.77.097h-5.589l.052-.097zm-11.156-4.972h4.528v1.253h-4.528v-1.253zm-.568 4.96v-.23h2.254c.221 0 .401-.184.401-.411 0-.227-.179-.411-.401-.411h-2.254v-.725h5.664l.001.012v1.766l-.001.012h-5.664v-.012zM23.247 130.243c.063.159.213.257.372.257l.15-.03 1.323-.547c.205-.085.305-.324.222-.534-.083-.211-.317-.313-.522-.228l-1.323.547c-.206.084-.305.324-.222.535M19.389 128.563c.063.16.214.257.372.257l.15-.03c.205-.085.305-.324.222-.535l-.534-1.355c-.082-.21-.316-.312-.522-.227-.206.085-.305.324-.222.534l.534 1.355M16.583 129.804l1.402.611.156.033c.156 0 .305-.094.369-.251.087-.209-.008-.45-.212-.539l-1.403-.61c-.203-.089-.439.008-.526.217-.087.209.009.45.213.539M21.873 128.809l.156.033c.156 0 .305-.094.369-.25l.596-1.437c.087-.208-.008-.45-.212-.539-.203-.088-.439.009-.526.217l-.596 1.437c-.087.209.009.45.212.539M22.708 129.396c.078.083.183.124.288.124.101 0 .201-.038.28-.116l.694-.69c.158-.158.162-.418.008-.581-.154-.163-.408-.166-.567-.008l-.694.69c-.159.158-.162.418-.008.581M18.517 129.333c.079.083.184.124.288.124.1 0 .202-.038.28-.116.158-.158.162-.418.008-.581l-.674-.711c-.154-.163-.409-.167-.567-.008-.159.158-.162.418-.008.581l.674.711M20.907 128.599h.006c.219 0 .397-.18.401-.405l.014-.99c.003-.227-.174-.413-.395-.417h-.006c-.219 0-.398.18-.401.405l-.014.99c-.003.227.174.414.396.416"/></g></g></svg>