<svg width="32" height="232" viewBox="0 0 32 232" xmlns="http://www.w3.org/2000/svg" xmlns:sketch="http://www.bohemiancoding.com/sketch/ns"><title>Khumbu_Nepal</title><g sketch:type="MSLayerGroup" fill="none"><g fill="#fff" sketch:type="MSShapeGroup"><path d="M28.902 18.424h-9.12c-.742 0-1.416.311-1.905.813h-.457c.003-.113-.015-.228-.057-.339l-.745-1.979-.043-.095 1.32-2.195.029-.056.975-2.322.034-.144.238-3.611.783.534.354.242 1.743 1.189.967 1.126.113.093 1.173.665.091 1.352.036.147.793 1.836c.04.094.112.169.201.214l2.887 1.449c.21.105.462.015.564-.201.102-.216.015-.477-.195-.582l-2.749-1.379-.7-1.621-.102-1.512c-.01-.148-.092-.28-.218-.351l-1.311-.743-.955-1.113-.083-.075-1.772-1.208.7-2.389 1.26 1.057.064.044 2.257 1.276 1.559 2.825c.047.085.121.152.21.189l2.229.923c.216.09.462-.019.549-.242.087-.223-.018-.477-.234-.566l-2.092-.866-1.545-2.8c-.039-.07-.095-.128-.164-.166l-2.328-1.316-1.718-1.442c-.109-.092-.255-.121-.39-.078-.134.043-.239.152-.28.29l-.809 2.761-1.024-.699c-.125-.086-.285-.096-.42-.027-.134.069-.224.206-.234.361l-.145 2.201h-1.244c-.183 0-.346.122-.402.303l-.581 1.871-1.902 1.424-1.076-2.161c-.133-.266-.388-.443-.676-.469-.288-.027-.57.102-.746.34l-1.493 2.024c-.089.12-.145.262-.165.412-.031.241-.071.495-.11.707l-.839.01c-.282.005-.543.155-.696.401l-.626 1.008-1.219 1.092c-.108.097-.19.22-.239.359l-.554 1.567c-.054.152-.063.309-.036.458h-.856c-.233 0-.422.195-.422.436s.189.436.422.436h12.529c-.143.34-.222.714-.222 1.107 0 1.485 1.129 2.703 2.548 2.787l.139.012c.56 0 1.016.47 1.016 1.049 0 .578-.456 1.049-1.016 1.049h-15.94c-.466 0-.844.39-.844.871s.378.871.844.871h15.964l.03-.001c1.466-.029 2.65-1.27 2.65-2.791 0-1.485-1.129-2.703-2.548-2.787l-.139-.012c-.56 0-1.016-.471-1.016-1.049s.456-1.049 1.013-1.049h9.124c.107 0 .209-.021.304-.059.203-.002.371-.151.41-.349.082-.134.13-.293.13-.463 0-.481-.378-.871-.844-.871zm-14.4-4.158l2.109-1.579c.073-.054.127-.131.154-.22l.53-1.704h.879l-.08 1.21-.933 2.224-1.172 1.95-.771-.829-.671-.937-.053-.107.011-.008zm-7.204 4.971l.43-1.215 1.146-1.027.157-.188.447-.719c.396-.005.763-.005.864.001.224.026.445-.036.627-.178.23-.18.424-.433.619-1.814l.548-.744.939 1.887.072.12.744 1.039.07.086 1.143 1.228.574 1.524h-8.381z" id="Fill-1"/><path d="M6.301 22.524c.41 0 .634-.09.814-.163.149-.06.256-.103.508-.103.251 0 .359.043.507.103.18.073.405.163.815.163.41 0 .634-.09.814-.163.149-.06.257-.103.508-.103s.359.043.507.103c.18.073.405.163.815.163.41 0 .634-.09.814-.163.149-.06.257-.103.508-.103s.358.043.507.103c.18.073.405.163.815.163.41 0 .634-.09.814-.163.149-.06.256-.103.508-.103.233 0 .422-.195.422-.436s-.189-.436-.422-.436c-.41 0-.634.091-.815.163-.149.06-.256.103-.507.103s-.359-.043-.508-.103c-.18-.073-.404-.163-.814-.163-.41 0-.634.091-.815.163-.149.06-.256.103-.507.103s-.359-.043-.508-.103c-.18-.073-.404-.163-.814-.163-.41 0-.634.091-.815.163-.149.06-.256.103-.507.103s-.359-.043-.508-.103c-.18-.073-.404-.163-.814-.163-.41 0-.634.091-.815.163-.149.06-.256.103-.507.103-.233 0-.422.195-.422.436s.189.436.422.436" id="Fill-2"/><path d="M3.824 24.517c.41 0 .634-.091.814-.163.149-.06.256-.103.507-.103s.359.043.508.103c.18.073.405.163.815.163.41 0 .634-.091.814-.163.149-.06.257-.103.508-.103s.359.043.507.103c.18.073.405.163.814.163.41 0 .634-.091.815-.163.149-.06.256-.103.507-.103s.358.043.507.103c.18.073.404.163.814.163.41 0 .634-.091.814-.163.149-.06.257-.103.508-.103.233 0 .422-.195.422-.436s-.189-.436-.422-.436c-.41 0-.634.091-.814.163-.149.06-.257.104-.507.104-.251 0-.359-.043-.507-.104-.18-.073-.404-.163-.814-.163-.41 0-.634.09-.814.163-.149.06-.257.104-.508.104s-.358-.043-.507-.104c-.18-.073-.404-.163-.814-.163-.41 0-.634.09-.815.163-.149.06-.256.104-.507.104s-.359-.043-.508-.104c-.18-.073-.405-.163-.815-.163-.41 0-.634.091-.814.163-.149.06-.256.104-.507.104-.233 0-.422.195-.422.436s.189.436.422.436" id="Fill-3"/><path d="M5.347 10.764h3.084c.225 0 .441-.085.61-.238.199-.181.314-.442.314-.716l-.004-.083h1.465c.258 0 .507-.097.702-.275.229-.209.36-.508.36-.823 0-.314-.132-.614-.361-.823-.194-.177-.444-.275-.702-.275h-4.34c-.586 0-1.063.492-1.063 1.097l.023.226h-.089c-.51 0-.924.428-.924.954s.414.954.924.954zm0-1.037h1.13c.233 0 .422-.195.422-.436h-.002c0-.241-.189-.436-.422-.436-.121 0-.219-.101-.219-.226s.098-.226.219-.226h4.34l.144.057c.028.026.075.081.075.169 0 .088-.047.144-.075.169l-.144.057h-2.387c-.233 0-.422.195-.422.436s.189.436.422.436h.002l.053.021.028.062-.028.062-.052.021h-3.084c-.044 0-.08-.037-.08-.083 0-.046.036-.083.08-.083z" id="Fill-4"/><path d="M13.904 6.189h4.475c.233 0 .422-.195.422-.436s-.189-.436-.422-.436h-4.475c-.233 0-.422.195-.422.436s.189.436.422.436" id="Fill-5"/><path d="M12.715 7.64h4.475c.233 0 .422-.195.422-.436s-.189-.436-.422-.436h-4.475c-.233 0-.422.195-.422.436s.189.436.422.436" id="Fill-6"/></g><g fill="#373D43" sketch:type="MSShapeGroup"><path d="M28.902 58.424h-9.12c-.742 0-1.416.311-1.905.813h-.457c.003-.113-.015-.228-.057-.339l-.745-1.979-.043-.095 1.32-2.195.029-.056.975-2.322.034-.144.238-3.611.783.534.354.242 1.743 1.189.967 1.126.113.093 1.173.665.091 1.352.036.147.793 1.836c.04.094.112.169.201.214l2.887 1.449c.21.105.462.015.564-.201.102-.216.015-.477-.195-.582l-2.749-1.379-.7-1.621-.102-1.512c-.01-.148-.092-.28-.218-.351l-1.311-.743-.955-1.113-.083-.075-1.772-1.208.7-2.389 1.26 1.057.064.044 2.257 1.276 1.559 2.825c.047.085.121.152.21.189l2.229.923c.216.09.462-.019.549-.242.087-.223-.018-.477-.234-.566l-2.092-.866-1.545-2.8c-.039-.07-.095-.128-.164-.166l-2.328-1.316-1.718-1.442c-.109-.092-.255-.121-.39-.078-.134.043-.239.152-.28.29l-.809 2.761-1.024-.699c-.125-.086-.285-.096-.42-.027-.134.069-.224.206-.234.361l-.145 2.201h-1.244c-.183 0-.346.122-.402.303l-.581 1.871-1.902 1.424-1.076-2.161c-.133-.266-.388-.443-.676-.469-.288-.027-.57.102-.746.34l-1.493 2.024c-.089.12-.145.262-.165.412-.031.241-.071.495-.11.707l-.839.01c-.282.005-.543.155-.696.401l-.626 1.008-1.219 1.092c-.108.097-.19.22-.239.359l-.554 1.567c-.054.152-.063.309-.036.458h-.856c-.233 0-.422.195-.422.436s.189.436.422.436h12.529c-.143.34-.222.714-.222 1.107 0 1.485 1.129 2.703 2.548 2.787l.139.012c.56 0 1.016.47 1.016 1.049 0 .578-.456 1.049-1.016 1.049h-15.94c-.466 0-.844.39-.844.871s.378.871.844.871h15.964l.03-.001c1.466-.029 2.65-1.27 2.65-2.791 0-1.485-1.129-2.703-2.548-2.787l-.139-.012c-.56 0-1.016-.471-1.016-1.049s.456-1.049 1.013-1.049h9.124c.107 0 .209-.021.304-.059.203-.002.371-.151.41-.349.082-.134.13-.293.13-.463 0-.481-.378-.871-.844-.871zm-14.4-4.158l2.109-1.579c.073-.054.127-.131.154-.22l.53-1.704h.879l-.08 1.21-.933 2.224-1.172 1.95-.771-.829-.671-.937-.053-.107.011-.008zm-7.204 4.971l.43-1.215 1.146-1.027.157-.188.447-.719c.396-.005.763-.005.864.001.224.026.445-.036.627-.178.23-.18.424-.433.619-1.814l.548-.744.939 1.887.072.12.744 1.039.07.086 1.143 1.228.574 1.524h-8.381z" id="Fill-1"/><path d="M6.301 62.524c.41 0 .634-.09.814-.163.149-.06.256-.103.508-.103.251 0 .359.043.507.103.18.073.405.163.815.163.41 0 .634-.09.814-.163.149-.06.257-.103.508-.103s.359.043.507.103c.18.073.405.163.815.163.41 0 .634-.09.814-.163.149-.06.257-.103.508-.103s.358.043.507.103c.18.073.405.163.815.163.41 0 .634-.09.814-.163.149-.06.256-.103.508-.103.233 0 .422-.195.422-.436s-.189-.436-.422-.436c-.41 0-.634.091-.815.163-.149.06-.256.103-.507.103s-.359-.043-.508-.103c-.18-.073-.404-.163-.814-.163-.41 0-.634.091-.815.163-.149.06-.256.103-.507.103s-.359-.043-.508-.103c-.18-.073-.404-.163-.814-.163-.41 0-.634.091-.815.163-.149.06-.256.103-.507.103s-.359-.043-.508-.103c-.18-.073-.404-.163-.814-.163-.41 0-.634.091-.815.163-.149.06-.256.103-.507.103-.233 0-.422.195-.422.436s.189.436.422.436" id="Fill-2"/><path d="M3.824 64.517c.41 0 .634-.091.814-.163.149-.06.256-.103.507-.103s.359.043.508.103c.18.073.405.163.815.163.41 0 .634-.091.814-.163.149-.06.257-.103.508-.103s.359.043.507.103c.18.073.405.163.814.163.41 0 .634-.091.815-.163.149-.06.256-.103.507-.103s.358.043.507.103c.18.073.404.163.814.163.41 0 .634-.091.814-.163.149-.06.257-.103.508-.103.233 0 .422-.195.422-.436s-.189-.436-.422-.436c-.41 0-.634.091-.814.163-.149.06-.257.104-.507.104-.251 0-.359-.043-.507-.104-.18-.073-.404-.163-.814-.163-.41 0-.634.09-.814.163-.149.06-.257.104-.508.104s-.358-.043-.507-.104c-.18-.073-.404-.163-.814-.163-.41 0-.634.09-.815.163-.149.06-.256.104-.507.104s-.359-.043-.508-.104c-.18-.073-.405-.163-.815-.163-.41 0-.634.091-.814.163-.149.06-.256.104-.507.104-.233 0-.422.195-.422.436s.189.436.422.436" id="Fill-3"/><path d="M5.347 50.764h3.084c.225 0 .441-.085.61-.238.199-.181.314-.442.314-.716l-.004-.083h1.465c.258 0 .507-.097.702-.275.229-.209.36-.508.36-.823 0-.314-.132-.614-.361-.823-.194-.177-.444-.275-.702-.275h-4.34c-.586 0-1.063.492-1.063 1.097l.023.226h-.089c-.51 0-.924.428-.924.954s.414.954.924.954zm0-1.037h1.13c.233 0 .422-.195.422-.436h-.002c0-.241-.189-.436-.422-.436-.121 0-.219-.101-.219-.226s.098-.226.219-.226h4.34l.144.057c.028.026.075.081.075.169 0 .088-.047.144-.075.169l-.144.057h-2.387c-.233 0-.422.195-.422.436s.189.436.422.436h.002l.053.021.028.062-.028.062-.052.021h-3.084c-.044 0-.08-.037-.08-.083 0-.046.036-.083.08-.083z" id="Fill-4"/><path d="M13.904 46.189h4.475c.233 0 .422-.195.422-.436s-.189-.436-.422-.436h-4.475c-.233 0-.422.195-.422.436s.189.436.422.436" id="Fill-5"/><path d="M12.715 47.64h4.475c.233 0 .422-.195.422-.436s-.189-.436-.422-.436h-4.475c-.233 0-.422.195-.422.436s.189.436.422.436" id="Fill-6"/></g><g fill="#67737B" sketch:type="MSShapeGroup"><path d="M28.902 98.424h-9.12c-.742 0-1.416.311-1.905.813h-.457c.003-.113-.015-.228-.057-.339l-.745-1.979-.043-.095 1.32-2.195.029-.056.975-2.322.034-.144.238-3.611.783.534.354.242 1.743 1.189.967 1.126.113.093 1.173.665.091 1.352.036.147.793 1.836c.04.094.112.169.201.214l2.887 1.449c.21.105.462.015.564-.201.102-.216.015-.477-.195-.582l-2.749-1.379-.7-1.621-.102-1.512c-.01-.148-.092-.28-.218-.351l-1.311-.743-.955-1.113-.083-.075-1.772-1.208.7-2.389 1.26 1.057.064.044 2.257 1.276 1.559 2.825c.047.085.121.152.21.189l2.229.923c.216.09.462-.019.549-.242.087-.223-.018-.477-.234-.566l-2.092-.866-1.545-2.8c-.039-.07-.095-.128-.164-.166l-2.328-1.316-1.718-1.442c-.109-.092-.255-.121-.39-.078-.134.043-.239.152-.28.29l-.809 2.761-1.024-.699c-.125-.086-.285-.096-.42-.027-.134.069-.224.206-.234.361l-.145 2.201h-1.244c-.183 0-.346.122-.402.303l-.581 1.871-1.902 1.424-1.076-2.161c-.133-.266-.388-.443-.676-.469-.288-.027-.57.102-.746.34l-1.493 2.024c-.089.12-.145.262-.165.412-.031.241-.071.495-.11.707l-.839.01c-.282.005-.543.155-.696.401l-.626 1.008-1.219 1.092c-.108.097-.19.22-.239.359l-.554 1.567c-.054.152-.063.309-.036.458h-.856c-.233 0-.422.195-.422.436s.189.436.422.436h12.529c-.143.34-.222.714-.222 1.107 0 1.485 1.129 2.703 2.548 2.787l.139.012c.56 0 1.016.47 1.016 1.049 0 .578-.456 1.049-1.016 1.049h-15.94c-.466 0-.844.39-.844.871s.378.871.844.871h15.964l.03-.001c1.466-.029 2.65-1.27 2.65-2.791 0-1.485-1.129-2.703-2.548-2.787l-.139-.012c-.56 0-1.016-.471-1.016-1.049s.456-1.049 1.013-1.049h9.124c.107 0 .209-.021.304-.059.203-.002.371-.151.41-.349.082-.134.13-.293.13-.463 0-.481-.378-.871-.844-.871zm-14.4-4.158l2.109-1.579c.073-.054.127-.131.154-.22l.53-1.704h.879l-.08 1.21-.933 2.224-1.172 1.95-.771-.829-.671-.937-.053-.107.011-.008zm-7.204 4.971l.43-1.215 1.146-1.027.157-.188.447-.719c.396-.005.763-.005.864.001.224.026.445-.036.627-.178.23-.18.424-.433.619-1.814l.548-.744.939 1.887.072.12.744 1.039.07.086 1.143 1.228.574 1.524h-8.381z"/><path d="M6.301 102.524c.41 0 .634-.09.814-.163.149-.06.256-.103.508-.103.251 0 .359.043.507.103.18.073.405.163.815.163.41 0 .634-.09.814-.163.149-.06.257-.103.508-.103s.359.043.507.103c.18.073.405.163.815.163.41 0 .634-.09.814-.163.149-.06.257-.103.508-.103s.358.043.507.103c.18.073.405.163.815.163.41 0 .634-.09.814-.163.149-.06.256-.103.508-.103.233 0 .422-.195.422-.436s-.189-.436-.422-.436c-.41 0-.634.091-.815.163-.149.06-.256.103-.507.103s-.359-.043-.508-.103c-.18-.073-.404-.163-.814-.163-.41 0-.634.091-.815.163-.149.06-.256.103-.507.103s-.359-.043-.508-.103c-.18-.073-.404-.163-.814-.163-.41 0-.634.091-.815.163-.149.06-.256.103-.507.103s-.359-.043-.508-.103c-.18-.073-.404-.163-.814-.163-.41 0-.634.091-.815.163-.149.06-.256.103-.507.103-.233 0-.422.195-.422.436s.189.436.422.436"/><path d="M3.824 104.517c.41 0 .634-.091.814-.163.149-.06.256-.103.507-.103s.359.043.508.103c.18.073.405.163.815.163.41 0 .634-.091.814-.163.149-.06.257-.103.508-.103s.359.043.507.103c.18.073.405.163.814.163.41 0 .634-.091.815-.163.149-.06.256-.103.507-.103s.358.043.507.103c.18.073.404.163.814.163.41 0 .634-.091.814-.163.149-.06.257-.103.508-.103.233 0 .422-.195.422-.436s-.189-.436-.422-.436c-.41 0-.634.091-.814.163-.149.06-.257.104-.507.104-.251 0-.359-.043-.507-.104-.18-.073-.404-.163-.814-.163-.41 0-.634.09-.814.163-.149.06-.257.104-.508.104s-.358-.043-.507-.104c-.18-.073-.404-.163-.814-.163-.41 0-.634.09-.815.163-.149.06-.256.104-.507.104s-.359-.043-.508-.104c-.18-.073-.405-.163-.815-.163-.41 0-.634.091-.814.163-.149.06-.256.104-.507.104-.233 0-.422.195-.422.436s.189.436.422.436"/><path d="M5.347 90.764h3.084c.225 0 .441-.085.61-.238.199-.181.314-.442.314-.716l-.004-.083h1.465c.258 0 .507-.097.702-.275.229-.209.36-.508.36-.823 0-.314-.132-.614-.361-.823-.194-.177-.444-.275-.702-.275h-4.34c-.586 0-1.063.492-1.063 1.097l.023.226h-.089c-.51 0-.924.428-.924.954s.414.954.924.954zm0-1.037h1.13c.233 0 .422-.195.422-.436h-.002c0-.241-.189-.436-.422-.436-.121 0-.219-.101-.219-.226s.098-.226.219-.226h4.34l.144.057c.028.026.075.081.075.169 0 .088-.047.144-.075.169l-.144.057h-2.387c-.233 0-.422.195-.422.436s.189.436.422.436h.002l.053.021.028.062-.028.062-.052.021h-3.084c-.044 0-.08-.037-.08-.083 0-.046.036-.083.08-.083z"/><path d="M13.904 86.189h4.475c.233 0 .422-.195.422-.436s-.189-.436-.422-.436h-4.475c-.233 0-.422.195-.422.436s.189.436.422.436"/><path d="M12.715 87.64h4.475c.233 0 .422-.195.422-.436s-.189-.436-.422-.436h-4.475c-.233 0-.422.195-.422.436s.189.436.422.436"/></g><g fill="#206FAC" sketch:type="MSShapeGroup"><path d="M28.902 139.424h-9.12c-.742 0-1.416.311-1.905.813h-.457c.003-.113-.015-.228-.057-.339l-.745-1.979-.043-.095 1.32-2.195.029-.056.975-2.322.034-.144.238-3.611.783.534.354.242 1.743 1.189.967 1.126.113.093 1.173.665.091 1.352.036.147.793 1.836c.04.094.112.169.201.214l2.887 1.449c.21.105.462.015.564-.201.102-.216.015-.477-.195-.582l-2.749-1.379-.7-1.621-.102-1.512c-.01-.148-.092-.28-.218-.351l-1.311-.743-.955-1.113-.083-.075-1.772-1.208.7-2.389 1.26 1.057.064.044 2.257 1.276 1.559 2.825c.047.085.121.152.21.189l2.229.923c.216.09.462-.019.549-.242.087-.223-.018-.477-.234-.566l-2.092-.866-1.545-2.8c-.039-.07-.095-.128-.164-.166l-2.328-1.316-1.718-1.442c-.109-.092-.255-.121-.39-.078-.134.043-.239.152-.28.29l-.809 2.761-1.024-.699c-.125-.086-.285-.096-.42-.027-.134.069-.224.206-.234.361l-.145 2.201h-1.244c-.183 0-.346.122-.402.303l-.581 1.871-1.902 1.424-1.076-2.161c-.133-.266-.388-.443-.676-.469-.288-.027-.57.102-.746.34l-1.493 2.024c-.089.12-.145.262-.165.412-.031.241-.071.495-.11.707l-.839.01c-.282.005-.543.155-.696.401l-.626 1.008-1.219 1.092c-.108.097-.19.22-.239.359l-.554 1.567c-.054.152-.063.309-.036.458h-.856c-.233 0-.422.195-.422.436s.189.436.422.436h12.529c-.143.34-.222.714-.222 1.107 0 1.485 1.129 2.703 2.548 2.787l.139.012c.56 0 1.016.47 1.016 1.049 0 .578-.456 1.049-1.016 1.049h-15.94c-.466 0-.844.39-.844.871s.378.871.844.871h15.964l.03-.001c1.466-.029 2.65-1.27 2.65-2.791 0-1.485-1.129-2.703-2.548-2.787l-.139-.012c-.56 0-1.016-.471-1.016-1.049s.456-1.049 1.013-1.049h9.124c.107 0 .209-.021.304-.059.203-.002.371-.151.41-.349.082-.134.13-.293.13-.463 0-.481-.378-.871-.844-.871zm-14.4-4.158l2.109-1.579c.073-.054.127-.131.154-.22l.53-1.704h.879l-.08 1.21-.933 2.224-1.172 1.95-.771-.829-.671-.937-.053-.107.011-.008zm-7.204 4.971l.43-1.215 1.146-1.027.157-.188.447-.719c.396-.005.763-.005.864.001.224.026.445-.036.627-.178.23-.18.424-.433.619-1.814l.548-.744.939 1.887.072.12.744 1.039.07.086 1.143 1.228.574 1.524h-8.381zM6.301 143.524c.41 0 .634-.09.814-.163.149-.06.256-.103.508-.103.251 0 .359.043.507.103.18.073.405.163.815.163.41 0 .634-.09.814-.163.149-.06.257-.103.508-.103s.359.043.507.103c.18.073.405.163.815.163.41 0 .634-.09.814-.163.149-.06.257-.103.508-.103s.358.043.507.103c.18.073.405.163.815.163.41 0 .634-.09.814-.163.149-.06.256-.103.508-.103.233 0 .422-.195.422-.436s-.189-.436-.422-.436c-.41 0-.634.091-.815.163-.149.06-.256.103-.507.103s-.359-.043-.508-.103c-.18-.073-.404-.163-.814-.163-.41 0-.634.091-.815.163-.149.06-.256.103-.507.103s-.359-.043-.508-.103c-.18-.073-.404-.163-.814-.163-.41 0-.634.091-.815.163-.149.06-.256.103-.507.103s-.359-.043-.508-.103c-.18-.073-.404-.163-.814-.163-.41 0-.634.091-.815.163-.149.06-.256.103-.507.103-.233 0-.422.195-.422.436s.189.436.422.436M3.824 145.517c.41 0 .634-.091.814-.163.149-.06.256-.103.507-.103s.359.043.508.103c.18.073.405.163.815.163.41 0 .634-.091.814-.163.149-.06.257-.103.508-.103s.359.043.507.103c.18.073.405.163.814.163.41 0 .634-.091.815-.163.149-.06.256-.103.507-.103s.358.043.507.103c.18.073.404.163.814.163.41 0 .634-.091.814-.163.149-.06.257-.103.508-.103.233 0 .422-.195.422-.436s-.189-.436-.422-.436c-.41 0-.634.091-.814.163-.149.06-.257.104-.507.104-.251 0-.359-.043-.507-.104-.18-.073-.404-.163-.814-.163-.41 0-.634.09-.814.163-.149.06-.257.104-.508.104s-.358-.043-.507-.104c-.18-.073-.404-.163-.814-.163-.41 0-.634.09-.815.163-.149.06-.256.104-.507.104s-.359-.043-.508-.104c-.18-.073-.405-.163-.815-.163-.41 0-.634.091-.814.163-.149.06-.256.104-.507.104-.233 0-.422.195-.422.436s.189.436.422.436"/><path d="M5.347 131.764h3.084c.225 0 .441-.085.61-.238.199-.181.314-.442.314-.716l-.004-.083h1.465c.258 0 .507-.097.702-.275.229-.209.36-.508.36-.823 0-.314-.132-.614-.361-.823-.194-.177-.444-.275-.702-.275h-4.34c-.586 0-1.063.492-1.063 1.097l.023.226h-.089c-.51 0-.924.428-.924.954s.414.954.924.954zm0-1.037h1.13c.233 0 .422-.195.422-.436h-.002c0-.241-.189-.436-.422-.436-.121 0-.219-.101-.219-.226s.098-.226.219-.226h4.34l.144.057c.028.026.075.081.075.169 0 .088-.047.144-.075.169l-.144.057h-2.387c-.233 0-.422.195-.422.436s.189.436.422.436h.002l.053.021.028.062-.028.062-.052.021h-3.084c-.044 0-.08-.037-.08-.083 0-.046.036-.083.08-.083zM13.904 127.189h4.475c.233 0 .422-.195.422-.436s-.189-.436-.422-.436h-4.475c-.233 0-.422.195-.422.436s.189.436.422.436M12.715 128.64h4.475c.233 0 .422-.195.422-.436s-.189-.436-.422-.436h-4.475c-.233 0-.422.195-.422.436s.189.436.422.436"/></g></g></svg>