<svg width="32" height="232" viewBox="0 0 32 232" xmlns="http://www.w3.org/2000/svg" xmlns:sketch="http://www.bohemiancoding.com/sketch/ns"><title>Nicaragua</title><g sketch:type="MSLayerGroup" fill="none"><g fill="#fff" sketch:type="MSShapeGroup"><path d="M9.277 87.607c.225-.196.545-.2.773-.029l.005.013c.069.155.219.253.384.253h.048c.164 0 .314-.099.384-.253l.005-.013c.228-.171.548-.167.773.029.179.156.446.132.596-.054.15-.185.127-.462-.052-.618-.501-.437-1.203-.467-1.731-.126-.528-.341-1.229-.31-1.731.126-.179.156-.202.433-.052.618.15.186.417.21.596.054" id="Fill-1"/><path d="M11.717 89.564c.15.186.417.21.596.054.225-.196.545-.2.773-.029l.005.013c.07.155.219.253.384.253h.048c.164 0 .314-.099.384-.253l.005-.013c.228-.171.548-.167.773.029.179.156.446.132.596-.054.15-.186.127-.462-.052-.618-.501-.437-1.203-.467-1.731-.126-.528-.341-1.229-.31-1.731.126-.179.156-.202.433-.052.618" id="Fill-2"/><path d="M4.312 94.738h3.093c.225 0 .443-.085.612-.24.2-.183.315-.445.315-.721l-.004-.083h1.47c.259 0 .509-.098.704-.277.23-.21.362-.512.362-.829 0-.317-.132-.619-.361-.829-.195-.179-.445-.277-.705-.277h-4.353c-.588 0-1.066.496-1.066 1.106l.023.228h-.089c-.511 0-.927.431-.927.961s.416.961.927.961zm0-1.045h1.134c.234 0 .423-.197.423-.439h-.002c0-.242-.189-.439-.423-.439-.121 0-.22-.102-.22-.228s.099-.228.22-.228h4.353l.145.057c.028.026.075.082.075.17 0 .089-.047.145-.075.171l-.145.057h-2.394c-.234 0-.423.196-.423.439 0 .242.19.439.423.439h.002l.053.021.028.062-.028.062-.053.021h-3.093c-.044 0-.08-.038-.08-.083 0-.046.036-.083.08-.083z" id="Fill-3"/><path d="M29.009 107.199h-.267v-8.951c0-.485-.379-.878-.846-.878-.313 0-.586.177-.732.439h-1.178v-3.431h.205c.234 0 .423-.197.423-.439s-.189-.439-.423-.439h-.251c-.161-2.112-1.782-3.804-3.814-3.987v-3.069c0-.242-.189-.439-.423-.439h-2.337c-.234 0-.423.196-.423.439v1.891c0 .242.189.439.423.439h1.914v.751c-1.977.236-3.539 1.903-3.697 3.974h-.357c-.234 0-.423.196-.423.439 0 .242.19.439.423.439h.291v.659l-.941-.303c-.076-.024-.156-.026-.233-.005l-1.445.394-1.886.245c-.077.01-.149.041-.21.091l-1.279 1.048-1.728.346c-.108.022-.204.086-.267.18l-.644.96-1.479.452-.145.079-1.238 1.029c-.082.068-.131.162-.149.261h-.864c-.234 0-.423.196-.423.439 0 .242.19.439.423.439h9.753v1.263c-.187.033-.321.087-.436.133-.149.061-.257.104-.509.104s-.36-.044-.509-.104c-.181-.073-.406-.164-.817-.164-.411 0-.636.091-.817.164-.149.061-.257.104-.509.104s-.36-.044-.509-.104c-.181-.073-.406-.164-.817-.164-.411 0-.636.091-.817.164-.149.061-.257.104-.509.104s-.36-.044-.509-.104c-.181-.073-.406-.164-.817-.164-.411 0-.636.091-.817.164-.149.061-.257.104-.509.104-.234 0-.423.197-.423.439s.189.439.423.439c.411 0 .636-.091.817-.164.149-.061.257-.104.509-.104s.36.044.509.104c.181.073.406.164.817.164.411 0 .636-.091.817-.164.149-.061.257-.104.509-.104s.36.044.509.104c.181.073.406.164.817.164.411 0 .636-.091.817-.164.149-.061.257-.104.509-.104s.36.044.509.104c.181.073.406.164.817.164.411 0 .636-.091.817-.164l.128-.049v1.634l-.128-.049c-.181-.073-.406-.164-.817-.164-.411 0-.636.091-.817.164-.149.061-.257.104-.509.104s-.36-.044-.509-.104c-.181-.073-.406-.164-.817-.164-.411 0-.636.091-.817.164-.149.061-.257.104-.509.104s-.36-.044-.509-.104c-.181-.073-.406-.164-.817-.164-.411 0-.636.091-.817.164-.149.061-.257.104-.509.104s-.36-.044-.509-.104c-.181-.073-.406-.164-.817-.164-.411 0-.636.091-.817.164-.149.061-.257.104-.509.104-.234 0-.423.196-.423.439 0 .242.189.439.423.439.411 0 .636-.091.817-.165.149-.06.257-.104.509-.104s.36.044.509.104c.181.073.406.165.817.165.411 0 .636-.091.817-.164.149-.061.257-.104.509-.104s.36.044.509.104c.181.073.406.165.817.165.411 0 .636-.091.817-.165.149-.06.257-.104.509-.104s.36.044.509.104c.181.073.406.164.817.164.411 0 .636-.091.817-.164.149-.061.257-.104.509-.104s.36.044.509.104c.115.047.248.1.435.133v1.808h-10.951c-.467 0-.846.393-.846.878s.379.878.846.878h25.201c.467 0 .846-.393.846-.878s-.379-.878-.846-.878zm-3.473-.172h-.426v-1.8c0-1.915-1.502-3.473-3.349-3.473-1.846 0-3.349 1.558-3.349 3.473v1.8h-.426v-1.8c0-2.159 1.693-3.916 3.775-3.916s3.775 1.757 3.775 3.916v1.8zm-1.273 0h-5.005v-1.8c0-1.431 1.122-2.596 2.502-2.596 1.38 0 2.503 1.164 2.503 2.596v1.8zm2.786 0h-.667v-1.8c0-2.643-2.073-4.793-4.622-4.793-2.548 0-4.621 2.15-4.621 4.793v1.8h-.687v-8.34h1.025v1.041h.846v-1.041h.735v1.041h.846v-1.041h.735v1.041h.846v-1.041h.735v1.041h.846v-1.041h.735v1.041h.846v-1.041h.735v1.041h.846v-1.041h.82v8.34zm-19.517-7.607l.19-.158 1.145-.35.397-.121.154-.088.074-.082.631-.94 1.661-.333.182-.086 1.267-1.038 1.797-.233.055-.011 1.355-.37.602.194.474.153v1.853h-1.178c-.146-.262-.419-.439-.732-.439-.467 0-.846.393-.846.878v1.564h-7.7l.472-.393zm13.944-8.15l.285-.017.285.017c.176.435.355 1.177.388 2.231h-1.346c.033-1.053.211-1.796.388-2.231zm3.663 6.54h-.672v-1.815c-.016-.355-.298-.637-.644-.637-.346 0-.628.282-.644.637v1.815h-.761v-1.815c-.016-.355-.298-.637-.644-.637-.346 0-.628.282-.644.637v1.815h-.761v-1.815c-.016-.355-.298-.637-.644-.637-.346 0-.628.282-.644.637v1.815h-.716v-3.43h6.776v3.43zm-.901-4.309h-.958c-.02-.656-.099-1.313-.239-1.881.639.397 1.094 1.082 1.197 1.881zm-4.45-6.617h1.491v1.014h-1.491v-1.014zm.693 4.736c-.14.568-.218 1.225-.239 1.881h-.958c.103-.799.557-1.484 1.197-1.881z" id="Fill-4"/></g><g fill="#373D43" sketch:type="MSShapeGroup"><path d="M9.277 5.607c.225-.196.545-.2.773-.029l.005.013c.069.155.219.253.384.253h.048c.164 0 .314-.099.384-.253l.005-.013c.228-.171.548-.167.773.029.179.156.446.132.596-.054.15-.185.127-.462-.052-.618-.501-.437-1.203-.467-1.731-.126-.528-.341-1.229-.31-1.731.126-.179.156-.202.433-.052.618.15.186.417.21.596.054" id="Fill-1"/><path d="M11.717 7.564c.15.186.417.21.596.054.225-.196.545-.2.773-.029l.005.013c.07.155.219.253.384.253h.048c.164 0 .314-.099.384-.253l.005-.013c.228-.171.548-.167.773.029.179.156.446.132.596-.054.15-.186.127-.462-.052-.618-.501-.437-1.203-.467-1.731-.126-.528-.341-1.229-.31-1.731.126-.179.156-.202.433-.052.618" id="Fill-2"/><path d="M4.312 12.738h3.093c.225 0 .443-.085.612-.24.2-.183.315-.445.315-.721l-.004-.083h1.47c.259 0 .509-.098.704-.277.23-.21.362-.512.362-.829 0-.317-.132-.619-.361-.829-.195-.179-.445-.277-.705-.277h-4.353c-.588 0-1.066.496-1.066 1.106l.023.228h-.089c-.511 0-.927.431-.927.961s.416.961.927.961zm0-1.045h1.134c.234 0 .423-.197.423-.439h-.002c0-.242-.189-.439-.423-.439-.121 0-.22-.102-.22-.228s.099-.228.22-.228h4.353l.145.057c.028.026.075.082.075.17 0 .089-.047.145-.075.171l-.145.057h-2.394c-.234 0-.423.196-.423.439 0 .242.19.439.423.439h.002l.053.021.028.062-.028.062-.053.021h-3.093c-.044 0-.08-.038-.08-.083 0-.046.036-.083.08-.083z" id="Fill-3"/><path d="M29.009 25.199h-.267v-8.951c0-.485-.379-.878-.846-.878-.313 0-.586.177-.732.439h-1.178v-3.431h.205c.234 0 .423-.197.423-.439s-.189-.439-.423-.439h-.251c-.161-2.112-1.782-3.804-3.814-3.987v-3.069c0-.242-.189-.439-.423-.439h-2.337c-.234 0-.423.196-.423.439v1.891c0 .242.189.439.423.439h1.914v.751c-1.977.236-3.539 1.903-3.697 3.974h-.357c-.234 0-.423.196-.423.439 0 .242.19.439.423.439h.291v.659l-.941-.303c-.076-.024-.156-.026-.233-.005l-1.445.394-1.886.245c-.077.01-.149.041-.21.091l-1.279 1.048-1.728.346c-.108.022-.204.086-.267.18l-.644.96-1.479.452-.145.079-1.238 1.029c-.082.068-.131.162-.149.261h-.864c-.234 0-.423.196-.423.439 0 .242.19.439.423.439h9.753v1.263c-.187.033-.321.087-.436.133-.149.061-.257.104-.509.104s-.36-.044-.509-.104c-.181-.073-.406-.164-.817-.164-.411 0-.636.091-.817.164-.149.061-.257.104-.509.104s-.36-.044-.509-.104c-.181-.073-.406-.164-.817-.164-.411 0-.636.091-.817.164-.149.061-.257.104-.509.104s-.36-.044-.509-.104c-.181-.073-.406-.164-.817-.164-.411 0-.636.091-.817.164-.149.061-.257.104-.509.104-.234 0-.423.197-.423.439s.189.439.423.439c.411 0 .636-.091.817-.164.149-.061.257-.104.509-.104s.36.044.509.104c.181.073.406.164.817.164.411 0 .636-.091.817-.164.149-.061.257-.104.509-.104s.36.044.509.104c.181.073.406.164.817.164.411 0 .636-.091.817-.164.149-.061.257-.104.509-.104s.36.044.509.104c.181.073.406.164.817.164.411 0 .636-.091.817-.164l.128-.049v1.634l-.128-.049c-.181-.073-.406-.164-.817-.164-.411 0-.636.091-.817.164-.149.061-.257.104-.509.104s-.36-.044-.509-.104c-.181-.073-.406-.164-.817-.164-.411 0-.636.091-.817.164-.149.061-.257.104-.509.104s-.36-.044-.509-.104c-.181-.073-.406-.164-.817-.164-.411 0-.636.091-.817.164-.149.061-.257.104-.509.104s-.36-.044-.509-.104c-.181-.073-.406-.164-.817-.164-.411 0-.636.091-.817.164-.149.061-.257.104-.509.104-.234 0-.423.196-.423.439 0 .242.189.439.423.439.411 0 .636-.091.817-.165.149-.06.257-.104.509-.104s.36.044.509.104c.181.073.406.165.817.165.411 0 .636-.091.817-.164.149-.061.257-.104.509-.104s.36.044.509.104c.181.073.406.165.817.165.411 0 .636-.091.817-.165.149-.06.257-.104.509-.104s.36.044.509.104c.181.073.406.164.817.164.411 0 .636-.091.817-.164.149-.061.257-.104.509-.104s.36.044.509.104c.115.047.248.1.435.133v1.808h-10.951c-.467 0-.846.393-.846.878s.379.878.846.878h25.201c.467 0 .846-.393.846-.878s-.379-.878-.846-.878zm-3.473-.172h-.426v-1.8c0-1.915-1.502-3.473-3.349-3.473-1.846 0-3.349 1.558-3.349 3.473v1.8h-.426v-1.8c0-2.159 1.693-3.916 3.775-3.916s3.775 1.757 3.775 3.916v1.8zm-1.273 0h-5.005v-1.8c0-1.431 1.122-2.596 2.502-2.596 1.38 0 2.503 1.164 2.503 2.596v1.8zm2.786 0h-.667v-1.8c0-2.643-2.073-4.793-4.622-4.793-2.548 0-4.621 2.15-4.621 4.793v1.8h-.687v-8.34h1.025v1.041h.846v-1.041h.735v1.041h.846v-1.041h.735v1.041h.846v-1.041h.735v1.041h.846v-1.041h.735v1.041h.846v-1.041h.735v1.041h.846v-1.041h.82v8.34zm-19.517-7.607l.19-.158 1.145-.35.397-.121.154-.088.074-.082.631-.94 1.661-.333.182-.086 1.267-1.038 1.797-.233.055-.011 1.355-.37.602.194.474.153v1.853h-1.178c-.146-.262-.419-.439-.732-.439-.467 0-.846.393-.846.878v1.564h-7.7l.472-.393zm13.944-8.15l.285-.017.285.017c.176.435.355 1.177.388 2.231h-1.346c.033-1.053.211-1.796.388-2.231zm3.663 6.54h-.672v-1.815c-.016-.355-.298-.637-.644-.637-.346 0-.628.282-.644.637v1.815h-.761v-1.815c-.016-.355-.298-.637-.644-.637-.346 0-.628.282-.644.637v1.815h-.761v-1.815c-.016-.355-.298-.637-.644-.637-.346 0-.628.282-.644.637v1.815h-.716v-3.43h6.776v3.43zm-.901-4.309h-.958c-.02-.656-.099-1.313-.239-1.881.639.397 1.094 1.082 1.197 1.881zm-4.45-6.617h1.491v1.014h-1.491v-1.014zm.693 4.736c-.14.568-.218 1.225-.239 1.881h-.958c.103-.799.557-1.484 1.197-1.881z" id="Fill-4"/></g><g fill="#67737B" sketch:type="MSShapeGroup"><path d="M9.277 44.607c.225-.196.545-.2.773-.029l.005.013c.069.155.219.253.384.253h.048c.164 0 .314-.099.384-.253l.005-.013c.228-.171.548-.167.773.029.179.156.446.132.596-.054.15-.185.127-.462-.052-.618-.501-.437-1.203-.467-1.731-.126-.528-.341-1.229-.31-1.731.126-.179.156-.202.433-.052.618.15.186.417.21.596.054"/><path d="M11.717 46.564c.15.186.417.21.596.054.225-.196.545-.2.773-.029l.005.013c.07.155.219.253.384.253h.048c.164 0 .314-.099.384-.253l.005-.013c.228-.171.548-.167.773.029.179.156.446.132.596-.054.15-.186.127-.462-.052-.618-.501-.437-1.203-.467-1.731-.126-.528-.341-1.229-.31-1.731.126-.179.156-.202.433-.052.618"/><path d="M4.312 51.738h3.093c.225 0 .443-.085.612-.24.2-.183.315-.445.315-.721l-.004-.083h1.47c.259 0 .509-.098.704-.277.23-.21.362-.512.362-.829 0-.317-.132-.619-.361-.829-.195-.179-.445-.277-.705-.277h-4.353c-.588 0-1.066.496-1.066 1.106l.023.228h-.089c-.511 0-.927.431-.927.961s.416.961.927.961zm0-1.045h1.134c.234 0 .423-.197.423-.439h-.002c0-.242-.189-.439-.423-.439-.121 0-.22-.102-.22-.228s.099-.228.22-.228h4.353l.145.057c.028.026.075.082.075.17 0 .089-.047.145-.075.171l-.145.057h-2.394c-.234 0-.423.196-.423.439 0 .242.19.439.423.439h.002l.053.021.028.062-.028.062-.053.021h-3.093c-.044 0-.08-.038-.08-.083 0-.046.036-.083.08-.083z"/><path d="M29.009 64.199h-.267v-8.951c0-.485-.379-.878-.846-.878-.313 0-.586.177-.732.439h-1.178v-3.431h.205c.234 0 .423-.197.423-.439s-.189-.439-.423-.439h-.251c-.161-2.112-1.782-3.804-3.814-3.987v-3.069c0-.242-.189-.439-.423-.439h-2.337c-.234 0-.423.196-.423.439v1.891c0 .242.189.439.423.439h1.914v.751c-1.977.236-3.539 1.903-3.697 3.974h-.357c-.234 0-.423.196-.423.439 0 .242.19.439.423.439h.291v.659l-.941-.303c-.076-.024-.156-.026-.233-.005l-1.445.394-1.886.245c-.077.01-.149.041-.21.091l-1.279 1.048-1.728.346c-.108.022-.204.086-.267.18l-.644.96-1.479.452-.145.079-1.238 1.029c-.082.068-.131.162-.149.261h-.864c-.234 0-.423.196-.423.439 0 .242.19.439.423.439h9.753v1.263c-.187.033-.321.087-.436.133-.149.061-.257.104-.509.104s-.36-.044-.509-.104c-.181-.073-.406-.164-.817-.164-.411 0-.636.091-.817.164-.149.061-.257.104-.509.104s-.36-.044-.509-.104c-.181-.073-.406-.164-.817-.164-.411 0-.636.091-.817.164-.149.061-.257.104-.509.104s-.36-.044-.509-.104c-.181-.073-.406-.164-.817-.164-.411 0-.636.091-.817.164-.149.061-.257.104-.509.104-.234 0-.423.197-.423.439s.189.439.423.439c.411 0 .636-.091.817-.164.149-.061.257-.104.509-.104s.36.044.509.104c.181.073.406.164.817.164.411 0 .636-.091.817-.164.149-.061.257-.104.509-.104s.36.044.509.104c.181.073.406.164.817.164.411 0 .636-.091.817-.164.149-.061.257-.104.509-.104s.36.044.509.104c.181.073.406.164.817.164.411 0 .636-.091.817-.164l.128-.049v1.634l-.128-.049c-.181-.073-.406-.164-.817-.164-.411 0-.636.091-.817.164-.149.061-.257.104-.509.104s-.36-.044-.509-.104c-.181-.073-.406-.164-.817-.164-.411 0-.636.091-.817.164-.149.061-.257.104-.509.104s-.36-.044-.509-.104c-.181-.073-.406-.164-.817-.164-.411 0-.636.091-.817.164-.149.061-.257.104-.509.104s-.36-.044-.509-.104c-.181-.073-.406-.164-.817-.164-.411 0-.636.091-.817.164-.149.061-.257.104-.509.104-.234 0-.423.196-.423.439 0 .242.189.439.423.439.411 0 .636-.091.817-.165.149-.06.257-.104.509-.104s.36.044.509.104c.181.073.406.165.817.165.411 0 .636-.091.817-.164.149-.061.257-.104.509-.104s.36.044.509.104c.181.073.406.165.817.165.411 0 .636-.091.817-.165.149-.06.257-.104.509-.104s.36.044.509.104c.181.073.406.164.817.164.411 0 .636-.091.817-.164.149-.061.257-.104.509-.104s.36.044.509.104c.115.047.248.1.435.133v1.808h-10.951c-.467 0-.846.393-.846.878s.379.878.846.878h25.201c.467 0 .846-.393.846-.878s-.379-.878-.846-.878zm-3.473-.172h-.426v-1.8c0-1.915-1.502-3.473-3.349-3.473-1.846 0-3.349 1.558-3.349 3.473v1.8h-.426v-1.8c0-2.159 1.693-3.916 3.775-3.916s3.775 1.757 3.775 3.916v1.8zm-1.273 0h-5.005v-1.8c0-1.431 1.122-2.596 2.502-2.596 1.38 0 2.503 1.164 2.503 2.596v1.8zm2.786 0h-.667v-1.8c0-2.643-2.073-4.793-4.622-4.793-2.548 0-4.621 2.15-4.621 4.793v1.8h-.687v-8.34h1.025v1.041h.846v-1.041h.735v1.041h.846v-1.041h.735v1.041h.846v-1.041h.735v1.041h.846v-1.041h.735v1.041h.846v-1.041h.735v1.041h.846v-1.041h.82v8.34zm-19.517-7.607l.19-.158 1.145-.35.397-.121.154-.088.074-.082.631-.94 1.661-.333.182-.086 1.267-1.038 1.797-.233.055-.011 1.355-.37.602.194.474.153v1.853h-1.178c-.146-.262-.419-.439-.732-.439-.467 0-.846.393-.846.878v1.564h-7.7l.472-.393zm13.944-8.15l.285-.017.285.017c.176.435.355 1.177.388 2.231h-1.346c.033-1.053.211-1.796.388-2.231zm3.663 6.54h-.672v-1.815c-.016-.355-.298-.637-.644-.637-.346 0-.628.282-.644.637v1.815h-.761v-1.815c-.016-.355-.298-.637-.644-.637-.346 0-.628.282-.644.637v1.815h-.761v-1.815c-.016-.355-.298-.637-.644-.637-.346 0-.628.282-.644.637v1.815h-.716v-3.43h6.776v3.43zm-.901-4.309h-.958c-.02-.656-.099-1.313-.239-1.881.639.397 1.094 1.082 1.197 1.881zm-4.45-6.617h1.491v1.014h-1.491v-1.014zm.693 4.736c-.14.568-.218 1.225-.239 1.881h-.958c.103-.799.557-1.484 1.197-1.881z"/></g><g fill="#206FAC" sketch:type="MSShapeGroup"><path d="M9.277 125.607c.225-.196.545-.2.773-.029l.005.013c.069.155.219.253.384.253h.048c.164 0 .314-.099.384-.253l.005-.013c.228-.171.548-.167.773.029.179.156.446.132.596-.054.15-.185.127-.462-.052-.618-.501-.437-1.203-.467-1.731-.126-.528-.341-1.229-.31-1.731.126-.179.156-.202.433-.052.618.15.186.417.21.596.054M11.717 127.564c.15.186.417.21.596.054.225-.196.545-.2.773-.029l.005.013c.07.155.219.253.384.253h.048c.164 0 .314-.099.384-.253l.005-.013c.228-.171.548-.167.773.029.179.156.446.132.596-.054.15-.186.127-.462-.052-.618-.501-.437-1.203-.467-1.731-.126-.528-.341-1.229-.31-1.731.126-.179.156-.202.433-.052.618"/><path d="M4.312 132.738h3.093c.225 0 .443-.085.612-.24.2-.183.315-.445.315-.721l-.004-.083h1.47c.259 0 .509-.098.704-.277.23-.21.362-.512.362-.829 0-.317-.132-.619-.361-.829-.195-.179-.445-.277-.705-.277h-4.353c-.588 0-1.066.496-1.066 1.106l.023.228h-.089c-.511 0-.927.431-.927.961s.416.961.927.961zm0-1.045h1.134c.234 0 .423-.197.423-.439h-.002c0-.242-.189-.439-.423-.439-.121 0-.22-.102-.22-.228s.099-.228.22-.228h4.353l.145.057c.028.026.075.082.075.17 0 .089-.047.145-.075.171l-.145.057h-2.394c-.234 0-.423.196-.423.439 0 .242.19.439.423.439h.002l.053.021.028.062-.028.062-.053.021h-3.093c-.044 0-.08-.038-.08-.083 0-.046.036-.083.08-.083zM29.009 145.199h-.267v-8.951c0-.485-.379-.878-.846-.878-.313 0-.586.177-.732.439h-1.178v-3.431h.205c.234 0 .423-.197.423-.439s-.189-.439-.423-.439h-.251c-.161-2.112-1.782-3.804-3.814-3.987v-3.069c0-.242-.189-.439-.423-.439h-2.337c-.234 0-.423.196-.423.439v1.891c0 .242.189.439.423.439h1.914v.751c-1.977.236-3.539 1.903-3.697 3.974h-.357c-.234 0-.423.196-.423.439 0 .242.19.439.423.439h.291v.659l-.941-.303c-.076-.024-.156-.026-.233-.005l-1.445.394-1.886.245c-.077.01-.149.041-.21.091l-1.279 1.048-1.728.346c-.108.022-.204.086-.267.18l-.644.96-1.479.452-.145.079-1.238 1.029c-.082.068-.131.162-.149.261h-.864c-.234 0-.423.196-.423.439 0 .242.19.439.423.439h9.753v1.263c-.187.033-.321.087-.436.133-.149.061-.257.104-.509.104s-.36-.044-.509-.104c-.181-.073-.406-.164-.817-.164-.411 0-.636.091-.817.164-.149.061-.257.104-.509.104s-.36-.044-.509-.104c-.181-.073-.406-.164-.817-.164-.411 0-.636.091-.817.164-.149.061-.257.104-.509.104s-.36-.044-.509-.104c-.181-.073-.406-.164-.817-.164-.411 0-.636.091-.817.164-.149.061-.257.104-.509.104-.234 0-.423.197-.423.439s.189.439.423.439c.411 0 .636-.091.817-.164.149-.061.257-.104.509-.104s.36.044.509.104c.181.073.406.164.817.164.411 0 .636-.091.817-.164.149-.061.257-.104.509-.104s.36.044.509.104c.181.073.406.164.817.164.411 0 .636-.091.817-.164.149-.061.257-.104.509-.104s.36.044.509.104c.181.073.406.164.817.164.411 0 .636-.091.817-.164l.128-.049v1.634l-.128-.049c-.181-.073-.406-.164-.817-.164-.411 0-.636.091-.817.164-.149.061-.257.104-.509.104s-.36-.044-.509-.104c-.181-.073-.406-.164-.817-.164-.411 0-.636.091-.817.164-.149.061-.257.104-.509.104s-.36-.044-.509-.104c-.181-.073-.406-.164-.817-.164-.411 0-.636.091-.817.164-.149.061-.257.104-.509.104s-.36-.044-.509-.104c-.181-.073-.406-.164-.817-.164-.411 0-.636.091-.817.164-.149.061-.257.104-.509.104-.234 0-.423.196-.423.439 0 .242.189.439.423.439.411 0 .636-.091.817-.165.149-.06.257-.104.509-.104s.36.044.509.104c.181.073.406.165.817.165.411 0 .636-.091.817-.164.149-.061.257-.104.509-.104s.36.044.509.104c.181.073.406.165.817.165.411 0 .636-.091.817-.165.149-.06.257-.104.509-.104s.36.044.509.104c.181.073.406.164.817.164.411 0 .636-.091.817-.164.149-.061.257-.104.509-.104s.36.044.509.104c.115.047.248.1.435.133v1.808h-10.951c-.467 0-.846.393-.846.878s.379.878.846.878h25.201c.467 0 .846-.393.846-.878s-.379-.878-.846-.878zm-3.473-.172h-.426v-1.8c0-1.915-1.502-3.473-3.349-3.473-1.846 0-3.349 1.558-3.349 3.473v1.8h-.426v-1.8c0-2.159 1.693-3.916 3.775-3.916s3.775 1.757 3.775 3.916v1.8zm-1.273 0h-5.005v-1.8c0-1.431 1.122-2.596 2.502-2.596 1.38 0 2.503 1.164 2.503 2.596v1.8zm2.786 0h-.667v-1.8c0-2.643-2.073-4.793-4.622-4.793-2.548 0-4.621 2.15-4.621 4.793v1.8h-.687v-8.34h1.025v1.041h.846v-1.041h.735v1.041h.846v-1.041h.735v1.041h.846v-1.041h.735v1.041h.846v-1.041h.735v1.041h.846v-1.041h.735v1.041h.846v-1.041h.82v8.34zm-19.517-7.607l.19-.158 1.145-.35.397-.121.154-.088.074-.082.631-.94 1.661-.333.182-.086 1.267-1.038 1.797-.233.055-.011 1.355-.37.602.194.474.153v1.853h-1.178c-.146-.262-.419-.439-.732-.439-.467 0-.846.393-.846.878v1.564h-7.7l.472-.393zm13.944-8.15l.285-.017.285.017c.176.435.355 1.177.388 2.231h-1.346c.033-1.053.211-1.796.388-2.231zm3.663 6.54h-.672v-1.815c-.016-.355-.298-.637-.644-.637-.346 0-.628.282-.644.637v1.815h-.761v-1.815c-.016-.355-.298-.637-.644-.637-.346 0-.628.282-.644.637v1.815h-.761v-1.815c-.016-.355-.298-.637-.644-.637-.346 0-.628.282-.644.637v1.815h-.716v-3.43h6.776v3.43zm-.901-4.309h-.958c-.02-.656-.099-1.313-.239-1.881.639.397 1.094 1.082 1.197 1.881zm-4.45-6.617h1.491v1.014h-1.491v-1.014zm.693 4.736c-.14.568-.218 1.225-.239 1.881h-.958c.103-.799.557-1.484 1.197-1.881z"/></g></g></svg>