<svg width="32" height="232" viewBox="0 0 32 232" xmlns="http://www.w3.org/2000/svg" xmlns:sketch="http://www.bohemiancoding.com/sketch/ns"><title>Arctic-Norway</title><g sketch:type="MSPage" fill="none"><g sketch:type="MSLayerGroup"><g fill="#fff" sketch:type="MSShapeGroup"><path d="M20.917 89.312h3.001c.218 0 .429-.087.594-.246.194-.187.305-.456.305-.738l-.004-.086h1.426c.251 0 .494-.101.683-.283.223-.215.351-.524.351-.849 0-.324-.128-.634-.351-.848-.189-.183-.432-.283-.684-.283h-4.223c-.57 0-1.034.508-1.034 1.132l.022.233h-.086c-.496 0-.899.441-.899.984 0 .542.403.984.899.984zm0-1.069h1.1c.227 0 .411-.201.411-.449h-.002c0-.248-.184-.449-.411-.449-.118 0-.213-.105-.213-.233 0-.129.096-.233.213-.233h4.223l.14.059c.027.026.073.083.073.174 0 .091-.045.148-.073.175l-.14.059h-2.323c-.227 0-.411.201-.411.449s.184.449.411.449h.002l.051.022.027.063-.027.064-.051.022h-3.001c-.043 0-.078-.038-.078-.085 0-.047.035-.086.078-.086z" id="Fill-1"/><path d="M29.234 104.536l-3.77-1.121-.215-.032h-5.811c-.123 0-.244.03-.355.088l-2.843 1.491-.057.033-1.112.706c-.161-.242-.379-1.005-.379-1.887 0-.474.289-1.394.617-2.216.35-.011.553-.096.716-.166.145-.062.25-.107.494-.107s.349.045.494.107c.175.075.394.168.793.168s.617-.093.793-.168c.145-.062.25-.107.494-.107s.349.045.494.107c.175.075.394.168.793.168s.617-.093.793-.168c.145-.062.25-.107.494-.107s.349.045.494.107c.175.075.394.168.793.168s.617-.093.793-.168c.145-.062.25-.107.494-.107.227 0 .411-.201.411-.449s-.184-.449-.411-.449c-.399 0-.617.093-.793.168-.145.062-.25.107-.494.107s-.349-.045-.494-.107c-.175-.075-.394-.168-.793-.168s-.617.093-.793.168c-.145.062-.25.107-.494.107s-.349-.045-.494-.107c-.175-.075-.394-.168-.793-.168s-.617.093-.793.168c-.145.062-.25.107-.494.107s-.349-.045-.494-.107c-.175-.075-.394-.168-.793-.168-.245 0-.422.035-.563.08.745-.865 2.039-1.928 2.395-1.936.385 0 .742-.201 1.026-.477h9.033c.227 0 .411-.201.411-.449s-.184-.449-.411-.449h-3.374l-3.256-2.407-.126-.062-1.233-.353-.017-.139-.805-2.791-.089-.168-2.383-2.852-.016-.018-1.811-1.944c-.149-.16-.384-.172-.546-.028l-1.887 1.677-2.196.168c-.07.005-.138.03-.196.072l-1.908 1.367-2.089-1.306c-.143-.089-.32-.077-.451.032l-2.821 2.337c-.181.15-.217.431-.08.629s.394.237.575.087l2.605-2.158 2.786 1.741 2.29 3.998c.061.106.159.18.272.203l1.564.322.2-.013 3.617-1.257 4.343 1.244 2.191 1.62h-3.615c.037-.113.056-.219.056-.311 0-.441-.429-.679-.802-.837l-.378-.141c-.165-.271-.575-.528-1.543-.528-1.012 0-1.585.408-2.09.768-.488.348-.91.649-1.748.649-.68 0-.959.118-1.254.242-.122.051-.253.107-.439.159h-9.047c-.227 0-.411.201-.411.449s.184.449.411.449h4.442c-.611.443-1.148 1.096-1.594 1.948-.706 1.347-1.127 3.132-1.127 4.775 0 .483-.306.918-.576 1.302-.22.312-.428.609-.472.939h-.577c-.454 0-.821.402-.821.898s.368.898.821.898h9.567c.106 0 .211-.022.309-.066l2.611-1.16.103-.056 1.585-1.006 2.646-1.387h5.515l3.664 1.089c.437.13.889-.153 1.008-.631.119-.479-.14-.973-.577-1.103zm-12.108-11.105c-.075-.022-.154-.019-.228.006l-3.632 1.262-1.286-.264-2.25-3.927-.144-.152-.221-.138 1.468-1.052 1.446-.11-.869 1.635c-.114.214-.048.489.148.614.065.041.136.061.206.061.141 0 .279-.08.355-.223l1.221-2.297 1.645-1.461 1.542 1.654 2.314 2.77.664 2.304-2.38-.681zm-12.623 13.237c.315-.448.747-1.061.747-1.85 0-2.626 1.268-6.51 3.989-6.51 2.228 0 2.795-.239 3.25-.431.259-.109.431-.182.958-.182 1.082 0 1.674-.422 2.196-.794.468-.334.873-.622 1.642-.622.459 0 .736.075.839.127.04.149.149.268.291.308.269.076.563.193.723.283-.124.255-.457.677-.79.677-.926 0-3.22 2.214-3.624 3.153-.201.467-.856 2.063-.856 2.988 0 .02.008 1.469.47 2.298l-.58.258c-.567-.478-.926-1.557-1.042-3.152l-.009-.303v-.017l-.036-1.222c-.007-.248-.197-.443-.424-.434-.227.008-.404.216-.397.463l.028.939c-1.101.544-2.052.453-2.897.372-.292-.028-.568-.054-.836-.054-.633 0-1.24.608-1.803 1.808-.366.778-.674 1.762-.674 2.148l.01.139h-1.43l.257-.391zm4.139.391c-.105-.257-.268-1.012-.193-3.185l.46.039c.238.023.49.047.756.058-.195.642-.39 1.546-.161 2.088.098.231.262.392.476.465.27.092.45.357.514.535h-1.852zm-1.919 0l-.085-.054-.149-.102c.018-.196.224-.962.591-1.74.192-.405.374-.699.537-.905-.033 1.423.042 2.273.166 2.8h-1.06zm5.487 0h-.879c-.059-.579-.519-1.182-1.086-1.386-.075-.172.007-.878.299-1.724.431-.044.892-.146 1.38-.351.136 1.431.473 2.481 1.002 3.142l-.716.318z" id="Fill-2"/></g><g fill="#373D43" sketch:type="MSShapeGroup"><path d="M20.917 7.312h3.001c.218 0 .429-.087.594-.246.194-.187.305-.456.305-.738l-.004-.086h1.426c.251 0 .494-.101.683-.283.223-.215.351-.524.351-.849 0-.324-.128-.634-.351-.848-.189-.183-.432-.283-.684-.283h-4.223c-.57 0-1.034.508-1.034 1.132l.022.233h-.086c-.496 0-.899.441-.899.984 0 .542.403.984.899.984zm0-1.069h1.1c.227 0 .411-.201.411-.449h-.002c0-.248-.184-.449-.411-.449-.118 0-.213-.105-.213-.233 0-.129.096-.233.213-.233h4.223l.14.059c.027.026.073.083.073.174 0 .091-.045.148-.073.175l-.14.059h-2.323c-.227 0-.411.201-.411.449s.184.449.411.449h.002l.051.022.027.063-.027.064-.051.022h-3.001c-.043 0-.078-.038-.078-.085 0-.047.035-.086.078-.086z" id="Fill-1"/><path d="M29.234 22.536l-3.77-1.121-.215-.032h-5.811c-.123 0-.244.03-.355.088l-2.843 1.491-.057.033-1.112.706c-.161-.242-.379-1.005-.379-1.887 0-.474.289-1.394.617-2.216.35-.011.553-.096.716-.166.145-.062.25-.107.494-.107s.349.045.494.107c.175.075.394.168.793.168s.617-.093.793-.168c.145-.062.25-.107.494-.107s.349.045.494.107c.175.075.394.168.793.168s.617-.093.793-.168c.145-.062.25-.107.494-.107s.349.045.494.107c.175.075.394.168.793.168s.617-.093.793-.168c.145-.062.25-.107.494-.107.227 0 .411-.201.411-.449s-.184-.449-.411-.449c-.399 0-.617.093-.793.168-.145.062-.25.107-.494.107s-.349-.045-.494-.107c-.175-.075-.394-.168-.793-.168s-.617.093-.793.168c-.145.062-.25.107-.494.107s-.349-.045-.494-.107c-.175-.075-.394-.168-.793-.168s-.617.093-.793.168c-.145.062-.25.107-.494.107s-.349-.045-.494-.107c-.175-.075-.394-.168-.793-.168-.245 0-.422.035-.563.08.745-.865 2.039-1.928 2.395-1.936.385 0 .742-.201 1.026-.477h9.033c.227 0 .411-.201.411-.449s-.184-.449-.411-.449h-3.374l-3.256-2.407-.126-.062-1.233-.353-.017-.139-.805-2.791-.089-.168-2.383-2.852-.016-.018-1.811-1.944c-.149-.16-.384-.172-.546-.028l-1.887 1.677-2.196.168c-.07.005-.138.03-.196.072l-1.908 1.367-2.089-1.306c-.143-.089-.32-.077-.451.032l-2.821 2.337c-.181.15-.217.431-.08.629s.394.237.575.087l2.605-2.158 2.786 1.741 2.29 3.998c.061.106.159.18.272.203l1.564.322.2-.013 3.617-1.257 4.343 1.244 2.191 1.62h-3.615c.037-.113.056-.219.056-.311 0-.441-.429-.679-.802-.837l-.378-.141c-.165-.271-.575-.528-1.543-.528-1.012 0-1.585.408-2.09.768-.488.348-.91.649-1.748.649-.68 0-.959.118-1.254.242-.122.051-.253.107-.439.159h-9.047c-.227 0-.411.201-.411.449s.184.449.411.449h4.442c-.611.443-1.148 1.096-1.594 1.948-.706 1.347-1.127 3.132-1.127 4.775 0 .483-.306.918-.576 1.302-.22.312-.428.609-.472.939h-.577c-.454 0-.821.402-.821.898s.368.898.821.898h9.567c.106 0 .211-.022.309-.066l2.611-1.16.103-.056 1.585-1.006 2.646-1.387h5.515l3.664 1.089c.437.13.889-.153 1.008-.631.119-.479-.14-.973-.577-1.103zm-12.108-11.105c-.075-.022-.154-.019-.228.006l-3.632 1.262-1.286-.264-2.25-3.927-.144-.152-.221-.138 1.468-1.052 1.446-.11-.869 1.635c-.114.214-.048.489.148.614.065.041.136.061.206.061.141 0 .279-.08.355-.223l1.221-2.297 1.645-1.461 1.542 1.654 2.314 2.77.664 2.304-2.38-.681zm-12.623 13.237c.315-.448.747-1.061.747-1.85 0-2.626 1.268-6.51 3.989-6.51 2.228 0 2.795-.239 3.25-.431.259-.109.431-.182.958-.182 1.082 0 1.674-.422 2.196-.794.468-.334.873-.622 1.642-.622.459 0 .736.075.839.127.04.149.149.268.291.308.269.076.563.193.723.283-.124.255-.457.677-.79.677-.926 0-3.22 2.214-3.624 3.153-.201.467-.856 2.063-.856 2.988 0 .02.008 1.469.47 2.298l-.58.258c-.567-.478-.926-1.557-1.042-3.152l-.009-.303v-.017l-.036-1.222c-.007-.248-.197-.443-.424-.434-.227.008-.404.216-.397.463l.028.939c-1.101.544-2.052.453-2.897.372-.292-.028-.568-.054-.836-.054-.633 0-1.24.608-1.803 1.808-.366.778-.674 1.762-.674 2.148l.01.139h-1.43l.257-.391zm4.139.391c-.105-.257-.268-1.012-.193-3.185l.46.039c.238.023.49.047.756.058-.195.642-.39 1.546-.161 2.088.098.231.262.392.476.465.27.092.45.357.514.535h-1.852zm-1.919 0l-.085-.054-.149-.102c.018-.196.224-.962.591-1.74.192-.405.374-.699.537-.905-.033 1.423.042 2.273.166 2.8h-1.06zm5.487 0h-.879c-.059-.579-.519-1.182-1.086-1.386-.075-.172.007-.878.299-1.724.431-.044.892-.146 1.38-.351.136 1.431.473 2.481 1.002 3.142l-.716.318z" id="Fill-2"/></g><g fill="#67737B" sketch:type="MSShapeGroup"><path d="M20.917 46.312h3.001c.218 0 .429-.087.594-.246.194-.187.305-.456.305-.738l-.004-.086h1.426c.251 0 .494-.101.683-.283.223-.215.351-.524.351-.849 0-.324-.128-.634-.351-.848-.189-.183-.432-.283-.684-.283h-4.223c-.57 0-1.034.508-1.034 1.132l.022.233h-.086c-.496 0-.899.441-.899.984 0 .542.403.984.899.984zm0-1.069h1.1c.227 0 .411-.201.411-.449h-.002c0-.248-.184-.449-.411-.449-.118 0-.213-.105-.213-.233 0-.129.096-.233.213-.233h4.223l.14.059c.027.026.073.083.073.174 0 .091-.045.148-.073.175l-.14.059h-2.323c-.227 0-.411.201-.411.449s.184.449.411.449h.002l.051.022.027.063-.027.064-.051.022h-3.001c-.043 0-.078-.038-.078-.085 0-.047.035-.086.078-.086z" id="Fill-1"/><path d="M29.234 61.536l-3.77-1.121-.215-.032h-5.811c-.123 0-.244.03-.355.088l-2.843 1.491-.057.033-1.112.706c-.161-.242-.379-1.005-.379-1.887 0-.474.289-1.394.617-2.216.35-.011.553-.096.716-.166.145-.062.25-.107.494-.107s.349.045.494.107c.175.075.394.168.793.168s.617-.093.793-.168c.145-.062.25-.107.494-.107s.349.045.494.107c.175.075.394.168.793.168s.617-.093.793-.168c.145-.062.25-.107.494-.107s.349.045.494.107c.175.075.394.168.793.168s.617-.093.793-.168c.145-.062.25-.107.494-.107.227 0 .411-.201.411-.449s-.184-.449-.411-.449c-.399 0-.617.093-.793.168-.145.062-.25.107-.494.107s-.349-.045-.494-.107c-.175-.075-.394-.168-.793-.168s-.617.093-.793.168c-.145.062-.25.107-.494.107s-.349-.045-.494-.107c-.175-.075-.394-.168-.793-.168s-.617.093-.793.168c-.145.062-.25.107-.494.107s-.349-.045-.494-.107c-.175-.075-.394-.168-.793-.168-.245 0-.422.035-.563.08.745-.865 2.039-1.928 2.395-1.936.385 0 .742-.201 1.026-.477h9.033c.227 0 .411-.201.411-.449s-.184-.449-.411-.449h-3.374l-3.256-2.407-.126-.062-1.233-.353-.017-.139-.805-2.791-.089-.168-2.383-2.852-.016-.018-1.811-1.944c-.149-.16-.384-.172-.546-.028l-1.887 1.677-2.196.168c-.07.005-.138.03-.196.072l-1.908 1.367-2.089-1.306c-.143-.089-.32-.077-.451.032l-2.821 2.337c-.181.15-.217.431-.08.629s.394.237.575.087l2.605-2.158 2.786 1.741 2.29 3.998c.061.106.159.18.272.203l1.564.322.2-.013 3.617-1.257 4.343 1.244 2.191 1.62h-3.615c.037-.113.056-.219.056-.311 0-.441-.429-.679-.802-.837l-.378-.141c-.165-.271-.575-.528-1.543-.528-1.012 0-1.585.408-2.09.768-.488.348-.91.649-1.748.649-.68 0-.959.118-1.254.242-.122.051-.253.107-.439.159h-9.047c-.227 0-.411.201-.411.449s.184.449.411.449h4.442c-.611.443-1.148 1.096-1.594 1.948-.706 1.347-1.127 3.132-1.127 4.775 0 .483-.306.918-.576 1.302-.22.312-.428.609-.472.939h-.577c-.454 0-.821.402-.821.898s.368.898.821.898h9.567c.106 0 .211-.022.309-.066l2.611-1.16.103-.056 1.585-1.006 2.646-1.387h5.515l3.664 1.089c.437.13.889-.153 1.008-.631.119-.479-.14-.973-.577-1.103zm-12.108-11.105c-.075-.022-.154-.019-.228.006l-3.632 1.262-1.286-.264-2.25-3.927-.144-.152-.221-.138 1.468-1.052 1.446-.11-.869 1.635c-.114.214-.048.489.148.614.065.041.136.061.206.061.141 0 .279-.08.355-.223l1.221-2.297 1.645-1.461 1.542 1.654 2.314 2.77.664 2.304-2.38-.681zm-12.623 13.237c.315-.448.747-1.061.747-1.85 0-2.626 1.268-6.51 3.989-6.51 2.228 0 2.795-.239 3.25-.431.259-.109.431-.182.958-.182 1.082 0 1.674-.422 2.196-.794.468-.334.873-.622 1.642-.622.459 0 .736.075.839.127.04.149.149.268.291.308.269.076.563.193.723.283-.124.255-.457.677-.79.677-.926 0-3.22 2.214-3.624 3.153-.201.467-.856 2.063-.856 2.988 0 .02.008 1.469.47 2.298l-.58.258c-.567-.478-.926-1.557-1.042-3.152l-.009-.303v-.017l-.036-1.222c-.007-.248-.197-.443-.424-.434-.227.008-.404.216-.397.463l.028.939c-1.101.544-2.052.453-2.897.372-.292-.028-.568-.054-.836-.054-.633 0-1.24.608-1.803 1.808-.366.778-.674 1.762-.674 2.148l.01.139h-1.43l.257-.391zm4.139.391c-.105-.257-.268-1.012-.193-3.185l.46.039c.238.023.49.047.756.058-.195.642-.39 1.546-.161 2.088.098.231.262.392.476.465.27.092.45.357.514.535h-1.852zm-1.919 0l-.085-.054-.149-.102c.018-.196.224-.962.591-1.74.192-.405.374-.699.537-.905-.033 1.423.042 2.273.166 2.8h-1.06zm5.487 0h-.879c-.059-.579-.519-1.182-1.086-1.386-.075-.172.007-.878.299-1.724.431-.044.892-.146 1.38-.351.136 1.431.473 2.481 1.002 3.142l-.716.318z" id="Fill-2"/></g><g fill="#206FAC" sketch:type="MSShapeGroup"><path d="M20.917 127.312h3.001c.218 0 .429-.087.594-.246.194-.187.305-.456.305-.738l-.004-.086h1.426c.251 0 .494-.101.683-.283.223-.215.351-.524.351-.849 0-.324-.128-.634-.351-.848-.189-.183-.432-.283-.684-.283h-4.223c-.57 0-1.034.508-1.034 1.132l.022.233h-.086c-.496 0-.899.441-.899.984 0 .542.403.984.899.984zm0-1.069h1.1c.227 0 .411-.201.411-.449h-.002c0-.248-.184-.449-.411-.449-.118 0-.213-.105-.213-.233 0-.129.096-.233.213-.233h4.223l.14.059c.027.026.073.083.073.174 0 .091-.045.148-.073.175l-.14.059h-2.323c-.227 0-.411.201-.411.449s.184.449.411.449h.002l.051.022.027.063-.027.064-.051.022h-3.001c-.043 0-.078-.038-.078-.085 0-.047.035-.086.078-.086z"/><path d="M29.234 142.536l-3.77-1.121-.215-.032h-5.811c-.123 0-.244.03-.355.088l-2.843 1.491-.057.033-1.112.706c-.161-.242-.379-1.005-.379-1.887 0-.474.289-1.394.617-2.216.35-.011.553-.096.716-.166.145-.062.25-.107.494-.107s.349.045.494.107c.175.075.394.168.793.168s.617-.093.793-.168c.145-.062.25-.107.494-.107s.349.045.494.107c.175.075.394.168.793.168s.617-.093.793-.168c.145-.062.25-.107.494-.107s.349.045.494.107c.175.075.394.168.793.168s.617-.093.793-.168c.145-.062.25-.107.494-.107.227 0 .411-.201.411-.449s-.184-.449-.411-.449c-.399 0-.617.093-.793.168-.145.062-.25.107-.494.107s-.349-.045-.494-.107c-.175-.075-.394-.168-.793-.168s-.617.093-.793.168c-.145.062-.25.107-.494.107s-.349-.045-.494-.107c-.175-.075-.394-.168-.793-.168s-.617.093-.793.168c-.145.062-.25.107-.494.107s-.349-.045-.494-.107c-.175-.075-.394-.168-.793-.168-.245 0-.422.035-.563.08.745-.865 2.039-1.928 2.395-1.936.385 0 .742-.201 1.026-.477h9.033c.227 0 .411-.201.411-.449s-.184-.449-.411-.449h-3.374l-3.256-2.407-.126-.062-1.233-.353-.017-.139-.805-2.791-.089-.168-2.383-2.852-.016-.018-1.811-1.944c-.149-.16-.384-.172-.546-.028l-1.887 1.677-2.196.168c-.07.005-.138.03-.196.072l-1.908 1.367-2.089-1.306c-.143-.089-.32-.077-.451.032l-2.821 2.337c-.181.15-.217.431-.08.629s.394.237.575.087l2.605-2.158 2.786 1.741 2.29 3.998c.061.106.159.18.272.203l1.564.322.2-.013 3.617-1.257 4.343 1.244 2.191 1.62h-3.615c.037-.113.056-.219.056-.311 0-.441-.429-.679-.802-.837l-.378-.141c-.165-.271-.575-.528-1.543-.528-1.012 0-1.585.408-2.09.768-.488.348-.91.649-1.748.649-.68 0-.959.118-1.254.242-.122.051-.253.107-.439.159h-9.047c-.227 0-.411.201-.411.449s.184.449.411.449h4.442c-.611.443-1.148 1.096-1.594 1.948-.706 1.347-1.127 3.132-1.127 4.775 0 .483-.306.918-.576 1.302-.22.312-.428.609-.472.939h-.577c-.454 0-.821.402-.821.898s.368.898.821.898h9.567c.106 0 .211-.022.309-.066l2.611-1.16.103-.056 1.585-1.006 2.646-1.387h5.515l3.664 1.089c.437.13.889-.153 1.008-.631.119-.479-.14-.973-.577-1.103zm-12.108-11.105c-.075-.022-.154-.019-.228.006l-3.632 1.262-1.286-.264-2.25-3.927-.144-.152-.221-.138 1.468-1.052 1.446-.11-.869 1.635c-.114.214-.048.489.148.614.065.041.136.061.206.061.141 0 .279-.08.355-.223l1.221-2.297 1.645-1.461 1.542 1.654 2.314 2.77.664 2.304-2.38-.681zm-12.623 13.237c.315-.448.747-1.061.747-1.85 0-2.626 1.268-6.51 3.989-6.51 2.228 0 2.795-.239 3.25-.431.259-.109.431-.182.958-.182 1.082 0 1.674-.422 2.196-.794.468-.334.873-.622 1.642-.622.459 0 .736.075.839.127.04.149.149.268.291.308.269.076.563.193.723.283-.124.255-.457.677-.79.677-.926 0-3.22 2.214-3.624 3.153-.201.467-.856 2.063-.856 2.988 0 .02.008 1.469.47 2.298l-.58.258c-.567-.478-.926-1.557-1.042-3.152l-.009-.303v-.017l-.036-1.222c-.007-.248-.197-.443-.424-.434-.227.008-.404.216-.397.463l.028.939c-1.101.544-2.052.453-2.897.372-.292-.028-.568-.054-.836-.054-.633 0-1.24.608-1.803 1.808-.366.778-.674 1.762-.674 2.148l.01.139h-1.43l.257-.391zm4.139.391c-.105-.257-.268-1.012-.193-3.185l.46.039c.238.023.49.047.756.058-.195.642-.39 1.546-.161 2.088.098.231.262.392.476.465.27.092.45.357.514.535h-1.852zm-1.919 0l-.085-.054-.149-.102c.018-.196.224-.962.591-1.74.192-.405.374-.699.537-.905-.033 1.423.042 2.273.166 2.8h-1.06zm5.487 0h-.879c-.059-.579-.519-1.182-1.086-1.386-.075-.172.007-.878.299-1.724.431-.044.892-.146 1.38-.351.136 1.431.473 2.481 1.002 3.142l-.716.318z"/></g></g></g></svg>