<svg width="32" height="232" viewBox="0 0 32 232" xmlns="http://www.w3.org/2000/svg" xmlns:sketch="http://www.bohemiancoding.com/sketch/ns"><title>The-Philippines</title><g sketch:type="MSLayerGroup" fill="none"><g fill="#fff" sketch:type="MSShapeGroup"><path d="M15.651 86.103c.172-.148.389-.219.613-.199.162.015.313.076.438.175l.013.033c.07.155.22.254.386.254h.058c.166 0 .316-.099.386-.254l.013-.033c.305-.242.744-.242 1.051.023.18.156.449.132.6-.054.151-.186.128-.462-.052-.618-.346-.299-.785-.443-1.234-.401-.288.026-.559.125-.793.286-.234-.162-.504-.26-.793-.286-.45-.041-.888.102-1.234.401-.18.156-.203.433-.052.618.151.185.42.21.6.054" id="Fill-1"/><path d="M14.395 88.14c.133-.115.32-.123.459-.032.073.146.219.238.378.238h.037c.16 0 .306-.092.378-.238.139-.091.326-.083.459.032.18.156.449.132.6-.054.151-.186.128-.463-.052-.618-.405-.351-.966-.388-1.403-.137-.437-.251-.998-.214-1.404.137-.18.156-.204.433-.052.618.151.186.42.21.6.054" id="Fill-2"/><path d="M29.147 106.209h-5.317l.228-1.217c.455-.005.707-.132.91-.234.167-.084.288-.145.566-.145.278 0 .399.061.566.145.207.104.465.234.94.234.475 0 .733-.13.94-.234.167-.084.288-.145.566-.145.235 0 .426-.197.426-.439s-.191-.439-.426-.439c-.475 0-.733.13-.94.234-.167.084-.288.145-.566.145-.278 0-.399-.061-.566-.145-.207-.104-.465-.234-.94-.234-.475 0-.733.13-.94.234-.121.061-.219.109-.368.132l.373-1.987c.071.022.146.026.219.009l.304-.074.263.173c.097.064.214.084.326.057l.304-.074.263.173c.097.063.215.084.327.057l.304-.074.264.173c.097.064.214.084.326.057l.304-.074.264.173c.069.045.148.069.229.069l.098-.012.415-.101.049.003c.084 0 .169-.026.243-.079.193-.138.241-.412.107-.611l-3.763-5.581c-.065-.097-.166-.162-.279-.182-.113-.02-.229.008-.321.078l-5.335 3.995c-.19.143-.233.417-.094.613.062.088.151.144.246.167l.364.239c.097.063.215.084.327.057l.304-.074.263.173c.097.064.215.084.327.057l.304-.074.263.173c.097.064.215.084.327.057l.304-.074.263.173c.097.064.215.084.327.057l.304-.074.264.173.16.063-.368 1.961c-.196-.096-.446-.198-.867-.198-.475 0-.732.13-.94.234-.167.084-.288.145-.566.145-.278 0-.399-.061-.566-.145-.207-.104-.465-.234-.94-.234-.475 0-.733.13-.94.234-.167.084-.288.145-.566.145-.278 0-.399-.061-.566-.145-.207-.104-.465-.234-.94-.234-.475 0-.732.13-.94.234-.167.084-.288.145-.566.145-.278 0-.399-.061-.566-.145-.207-.104-.465-.234-.94-.234-.475 0-.733.13-.94.234-.167.084-.288.145-.566.145-.278 0-.398-.061-.565-.145-.207-.104-.465-.234-.94-.234-.354 0-.588.072-.769.152.218-.735.564-1.482 1.11-2.1.865-.979 2.105-1.476 3.684-1.476 1.946 0 3.741-.785 5.054-2.21 1.101-1.196 1.784-2.754 1.967-4.46.376.378.621.86.701 1.391.094.62-.053 1.236-.413 1.734-.14.194-.102.469.087.614.076.059.166.087.254.087.13 0 .258-.061.342-.177.497-.688.7-1.538.571-2.393-.089-.59-.327-1.134-.688-1.591 1.019-.011 1.998.624 2.381 1.641.065.174.226.28.397.28l.154-.03c.219-.088.328-.342.243-.568-.51-1.353-1.807-2.202-3.161-2.2.673-.644 1.709-.847 2.641-.431.216.096.467-.006.56-.228.093-.223-.006-.481-.222-.577-1.125-.502-2.366-.327-3.269.349-.14-1.141-.865-2.193-1.99-2.696-.216-.096-.466.006-.56.229-.093.222.006.481.222.577.932.416 1.498 1.333 1.503 2.28-.925-1.02-2.413-1.413-3.719-.871-.218.091-.324.346-.236.571.088.225.336.334.554.243.981-.408 2.101-.107 2.79.667-.571.042-1.119.235-1.597.571-.693.488-1.156 1.222-1.303 2.067-.041.238.113.467.344.509l.075.007c.202 0 .382-.149.419-.362.106-.611.442-1.143.945-1.497.341-.24.731-.381 1.138-.418-.307 3.248-2.715 5.381-6.185 5.381-2.72 0-4.813 1.444-6.053 4.176-.131.289-.245.576-.346.858-.162-.057-.363-.1-.637-.1l-.065.001.24-3.834c.389-.122.822-.185 1.299-.185 2.764 0 4.418-3.598 5.028-5.235.545.068 1.03.335 1.371.759.334.416.489.938.436 1.47-.024.241.146.457.38.482l.044.002c.216 0 .401-.168.423-.394.077-.768-.146-1.521-.627-2.12-.309-.385-.7-.678-1.143-.864.74-.416 1.689-.371 2.38.186.185.149.453.115.598-.076.145-.191.112-.467-.073-.616-.961-.774-2.278-.84-3.307-.266.074-.21.183-.409.325-.591.347-.444.848-.73 1.41-.805.233-.031.398-.251.368-.492-.03-.24-.243-.411-.477-.379-.782.104-1.479.503-1.965 1.125-.149.191-.272.396-.37.611-.147-.182-.317-.348-.508-.494-.623-.474-1.396-.678-2.178-.574-.233.031-.398.251-.368.492.03.24.243.41.477.379.562-.075 1.117.07 1.563.409.182.139.336.303.46.487-1.137-.285-2.394.123-3.133 1.123-.142.193-.106.468.081.615.077.06.168.09.257.09.128 0 .255-.06.339-.173.568-.769 1.564-1.05 2.423-.753-.565 1.323-2.012 4.091-4.215 4.091-.422 0-.823.045-1.202.133l.497-7.949c.433.2.796.52 1.049.934.325.531.428 1.156.29 1.76-.054.236.088.472.317.528l.098.012c.193 0 .368-.136.414-.338.191-.835.05-1.698-.398-2.43-.309-.505-.737-.906-1.245-1.178.931-.427 2.074-.245 2.818.531.083.087.193.131.303.131.108 0 .216-.042.299-.127.167-.17.169-.448.004-.621-.99-1.033-2.506-1.281-3.749-.724.369-.866 1.242-1.477 2.258-1.477.235 0 .426-.197.426-.439s-.191-.439-.426-.439c-1.226 0-2.297.669-2.866 1.658-.568-.989-1.64-1.658-2.866-1.658-.235 0-.426.196-.426.439 0 .242.191.439.426.439 1.016 0 1.888.61 2.258 1.477-1.242-.557-2.759-.309-3.749.724-.165.173-.164.45.004.621.083.085.191.127.299.127.11 0 .22-.044.303-.131.744-.776 1.886-.958 2.818-.531-.507.272-.936.674-1.245 1.178-.448.732-.59 1.595-.399 2.43.046.202.221.338.414.338l.098-.012c.229-.056.371-.292.317-.528-.138-.604-.035-1.23.29-1.76.243-.397.588-.708.999-.91l-.962 8.47c-.362.223-.695.5-.997.832-.961 1.059-1.586 2.631-1.857 4.671-.102.769-.133 1.455-.137 1.947-.246.154-.412.432-.412.751 0 .485.381.878.852.878h25.29c.47 0 .852-.393.852-.878s-.381-.878-.852-.878zm-20.586-.906c-.037.336-.055.643-.062.906h-.124c.044-.263.104-.57.186-.906zm19.221-3.683l-.304.074-.264-.173c-.097-.064-.215-.084-.327-.057l-.304.074-.263-.173c-.097-.064-.215-.084-.327-.057l-.304.074-.264-.173c-.097-.064-.215-.084-.327-.057l-.304.074-.264-.173c-.097-.064-.215-.084-.327-.057l-.304.074-.263-.173c-.097-.064-.215-.084-.327-.057l-.304.074-.263-.173c-.097-.064-.215-.084-.327-.057l-.304.074-.263-.173c-.097-.064-.215-.084-.327-.057l-.304.074-.263-.173-.142-.058 4.174-3.125 2.944 4.366-.153.007zm-17.868 3.139c.167-.084.288-.145.565-.145.278 0 .399.061.566.145.207.104.465.234.94.234.475 0 .733-.13.94-.234.167-.084.288-.145.566-.145.278 0 .399.061.566.145.207.104.465.234.94.234.475 0 .733-.13.94-.234.167-.084.288-.145.565-.145.278 0 .399.061.566.145.207.104.465.234.94.234.475 0 .733-.13.94-.234.167-.084.288-.145.566-.145.278 0 .399.061.566.145.207.104.465.234.94.234.475 0 .733-.13.94-.234.167-.084.288-.145.565-.145.278 0 .399.061.566.145l.134.065-.26 1.385h-13.609c.011-.353.043-.794.12-1.274.185-.047.321-.116.44-.176zm-2.445-.145c.166 0 .276.022.373.058-.165.593-.268 1.126-.332 1.538h-.26l.099-1.59.121-.005zm-2.21 1.595c-.045-.373-.086-.852-.094-1.381.141.065.313.127.551.153l-.14 1.229h-.318zm.896-5.288l.025-.031-.365 3.217c-.179-.018-.284-.07-.418-.137l-.205-.097c.078-1.046.334-2.149.963-2.952zm-1.883 5.288c.005-.276.019-.606.049-.97.016.36.045.689.077.97h-.126z" id="Fill-3"/></g><g fill="#373D43" sketch:type="MSShapeGroup"><path d="M15.651 5.103c.172-.148.389-.219.613-.199.162.015.313.076.438.175l.013.033c.07.155.22.254.386.254h.058c.166 0 .316-.099.386-.254l.013-.033c.305-.242.744-.242 1.051.023.18.156.449.132.6-.054.151-.186.128-.462-.052-.618-.346-.299-.785-.443-1.234-.401-.288.026-.559.125-.793.286-.234-.162-.504-.26-.793-.286-.45-.041-.888.102-1.234.401-.18.156-.203.433-.052.618.151.185.42.21.6.054" id="Fill-1"/><path d="M14.395 7.14c.133-.115.32-.123.459-.032.073.146.219.238.378.238h.037c.16 0 .306-.092.378-.238.139-.091.326-.083.459.032.18.156.449.132.6-.054.151-.186.128-.463-.052-.618-.405-.351-.966-.388-1.403-.137-.437-.251-.998-.214-1.404.137-.18.156-.204.433-.052.618.151.186.42.21.6.054" id="Fill-2"/><path d="M29.147 25.209h-5.317l.228-1.217c.455-.005.707-.132.91-.234.167-.084.288-.145.566-.145.278 0 .399.061.566.145.207.104.465.234.94.234.475 0 .733-.13.94-.234.167-.084.288-.145.566-.145.235 0 .426-.197.426-.439s-.191-.439-.426-.439c-.475 0-.733.13-.94.234-.167.084-.288.145-.566.145-.278 0-.399-.061-.566-.145-.207-.104-.465-.234-.94-.234-.475 0-.733.13-.94.234-.121.061-.219.109-.368.132l.373-1.987c.071.022.146.026.219.009l.304-.074.263.173c.097.064.214.084.326.057l.304-.074.263.173c.097.063.215.084.327.057l.304-.074.264.173c.097.064.214.084.326.057l.304-.074.264.173c.069.045.148.069.229.069l.098-.012.415-.101.049.003c.084 0 .169-.026.243-.079.193-.138.241-.412.107-.611l-3.763-5.581c-.065-.097-.166-.162-.279-.182-.113-.02-.229.008-.321.078l-5.335 3.995c-.19.143-.233.417-.094.613.062.088.151.144.246.167l.364.239c.097.063.215.084.327.057l.304-.074.263.173c.097.064.215.084.327.057l.304-.074.263.173c.097.064.215.084.327.057l.304-.074.263.173c.097.064.215.084.327.057l.304-.074.264.173.16.063-.368 1.961c-.196-.096-.446-.198-.867-.198-.475 0-.732.13-.94.234-.167.084-.288.145-.566.145-.278 0-.399-.061-.566-.145-.207-.104-.465-.234-.94-.234-.475 0-.733.13-.94.234-.167.084-.288.145-.566.145-.278 0-.399-.061-.566-.145-.207-.104-.465-.234-.94-.234-.475 0-.732.13-.94.234-.167.084-.288.145-.566.145-.278 0-.399-.061-.566-.145-.207-.104-.465-.234-.94-.234-.475 0-.733.13-.94.234-.167.084-.288.145-.566.145-.278 0-.398-.061-.565-.145-.207-.104-.465-.234-.94-.234-.354 0-.588.072-.769.152.218-.735.564-1.482 1.11-2.1.865-.979 2.105-1.476 3.684-1.476 1.946 0 3.741-.785 5.054-2.21 1.101-1.196 1.784-2.754 1.967-4.46.376.378.621.86.701 1.391.094.62-.053 1.236-.413 1.734-.14.194-.102.469.087.614.076.059.166.087.254.087.13 0 .258-.061.342-.177.497-.688.7-1.538.571-2.393-.089-.59-.327-1.134-.688-1.591 1.019-.011 1.998.624 2.381 1.641.065.174.226.28.397.28l.154-.03c.219-.088.328-.342.243-.568-.51-1.353-1.807-2.202-3.161-2.2.673-.644 1.709-.847 2.641-.431.216.096.467-.006.56-.228.093-.223-.006-.481-.222-.577-1.125-.502-2.366-.327-3.269.349-.14-1.141-.865-2.193-1.99-2.696-.216-.096-.466.006-.56.229-.093.222.006.481.222.577.932.416 1.498 1.333 1.503 2.28-.925-1.02-2.413-1.413-3.719-.871-.218.091-.324.346-.236.571.088.225.336.334.554.243.981-.408 2.101-.107 2.79.667-.571.042-1.119.235-1.597.571-.693.488-1.156 1.222-1.303 2.067-.041.238.113.467.344.509l.075.007c.202 0 .382-.149.419-.362.106-.611.442-1.143.945-1.497.341-.24.731-.381 1.138-.418-.307 3.248-2.715 5.381-6.185 5.381-2.72 0-4.813 1.444-6.053 4.176-.131.289-.245.576-.346.858-.162-.057-.363-.1-.637-.1l-.065.001.24-3.834c.389-.122.822-.185 1.299-.185 2.764 0 4.418-3.598 5.028-5.235.545.068 1.03.335 1.371.759.334.416.489.938.436 1.47-.024.241.146.457.38.482l.044.002c.216 0 .401-.168.423-.394.077-.768-.146-1.521-.627-2.12-.309-.385-.7-.678-1.143-.864.74-.416 1.689-.371 2.38.186.185.149.453.115.598-.076.145-.191.112-.467-.073-.616-.961-.774-2.278-.84-3.307-.266.074-.21.183-.409.325-.591.347-.444.848-.73 1.41-.805.233-.031.398-.251.368-.492-.03-.24-.243-.411-.477-.379-.782.104-1.479.503-1.965 1.125-.149.191-.272.396-.37.611-.147-.182-.317-.348-.508-.494-.623-.474-1.396-.678-2.178-.574-.233.031-.398.251-.368.492.03.24.243.41.477.379.562-.075 1.117.07 1.563.409.182.139.336.303.46.487-1.137-.285-2.394.123-3.133 1.123-.142.193-.106.468.081.615.077.06.168.09.257.09.128 0 .255-.06.339-.173.568-.769 1.564-1.05 2.423-.753-.565 1.323-2.012 4.091-4.215 4.091-.422 0-.823.045-1.202.133l.497-7.949c.433.2.796.52 1.049.934.325.531.428 1.156.29 1.76-.054.236.088.472.317.528l.098.012c.193 0 .368-.136.414-.338.191-.835.05-1.698-.398-2.43-.309-.505-.737-.906-1.245-1.178.931-.427 2.074-.245 2.818.531.083.087.193.131.303.131.108 0 .216-.042.299-.127.167-.17.169-.448.004-.621-.99-1.033-2.506-1.281-3.749-.724.369-.866 1.242-1.477 2.258-1.477.235 0 .426-.197.426-.439s-.191-.439-.426-.439c-1.226 0-2.297.669-2.866 1.658-.568-.989-1.64-1.658-2.866-1.658-.235 0-.426.196-.426.439 0 .242.191.439.426.439 1.016 0 1.888.61 2.258 1.477-1.242-.557-2.759-.309-3.749.724-.165.173-.164.45.004.621.083.085.191.127.299.127.11 0 .22-.044.303-.131.744-.776 1.886-.958 2.818-.531-.507.272-.936.674-1.245 1.178-.448.732-.59 1.595-.399 2.43.046.202.221.338.414.338l.098-.012c.229-.056.371-.292.317-.528-.138-.604-.035-1.23.29-1.76.243-.397.588-.708.999-.91l-.962 8.47c-.362.223-.695.5-.997.832-.961 1.059-1.586 2.631-1.857 4.671-.102.769-.133 1.455-.137 1.947-.246.154-.412.432-.412.751 0 .485.381.878.852.878h25.29c.47 0 .852-.393.852-.878s-.381-.878-.852-.878zm-20.586-.906c-.037.336-.055.643-.062.906h-.124c.044-.263.104-.57.186-.906zm19.221-3.683l-.304.074-.264-.173c-.097-.064-.215-.084-.327-.057l-.304.074-.263-.173c-.097-.064-.215-.084-.327-.057l-.304.074-.264-.173c-.097-.064-.215-.084-.327-.057l-.304.074-.264-.173c-.097-.064-.215-.084-.327-.057l-.304.074-.263-.173c-.097-.064-.215-.084-.327-.057l-.304.074-.263-.173c-.097-.064-.215-.084-.327-.057l-.304.074-.263-.173c-.097-.064-.215-.084-.327-.057l-.304.074-.263-.173-.142-.058 4.174-3.125 2.944 4.366-.153.007zm-17.868 3.139c.167-.084.288-.145.565-.145.278 0 .399.061.566.145.207.104.465.234.94.234.475 0 .733-.13.94-.234.167-.084.288-.145.566-.145.278 0 .399.061.566.145.207.104.465.234.94.234.475 0 .733-.13.94-.234.167-.084.288-.145.565-.145.278 0 .399.061.566.145.207.104.465.234.94.234.475 0 .733-.13.94-.234.167-.084.288-.145.566-.145.278 0 .399.061.566.145.207.104.465.234.94.234.475 0 .733-.13.94-.234.167-.084.288-.145.565-.145.278 0 .399.061.566.145l.134.065-.26 1.385h-13.609c.011-.353.043-.794.12-1.274.185-.047.321-.116.44-.176zm-2.445-.145c.166 0 .276.022.373.058-.165.593-.268 1.126-.332 1.538h-.26l.099-1.59.121-.005zm-2.21 1.595c-.045-.373-.086-.852-.094-1.381.141.065.313.127.551.153l-.14 1.229h-.318zm.896-5.288l.025-.031-.365 3.217c-.179-.018-.284-.07-.418-.137l-.205-.097c.078-1.046.334-2.149.963-2.952zm-1.883 5.288c.005-.276.019-.606.049-.97.016.36.045.689.077.97h-.126z" id="Fill-3"/></g><g fill="#67737B" sketch:type="MSShapeGroup"><path d="M15.651 45.103c.172-.148.389-.219.613-.199.162.015.313.076.438.175l.013.033c.07.155.22.254.386.254h.058c.166 0 .316-.099.386-.254l.013-.033c.305-.242.744-.242 1.051.023.18.156.449.132.6-.054.151-.186.128-.462-.052-.618-.346-.299-.785-.443-1.234-.401-.288.026-.559.125-.793.286-.234-.162-.504-.26-.793-.286-.45-.041-.888.102-1.234.401-.18.156-.203.433-.052.618.151.185.42.21.6.054"/><path d="M14.395 47.14c.133-.115.32-.123.459-.032.073.146.219.238.378.238h.037c.16 0 .306-.092.378-.238.139-.091.326-.083.459.032.18.156.449.132.6-.054.151-.186.128-.463-.052-.618-.405-.351-.966-.388-1.403-.137-.437-.251-.998-.214-1.404.137-.18.156-.204.433-.052.618.151.186.42.21.6.054"/><path d="M29.147 65.209h-5.317l.228-1.217c.455-.005.707-.132.91-.234.167-.084.288-.145.566-.145.278 0 .399.061.566.145.207.104.465.234.94.234.475 0 .733-.13.94-.234.167-.084.288-.145.566-.145.235 0 .426-.197.426-.439s-.191-.439-.426-.439c-.475 0-.733.13-.94.234-.167.084-.288.145-.566.145-.278 0-.399-.061-.566-.145-.207-.104-.465-.234-.94-.234-.475 0-.733.13-.94.234-.121.061-.219.109-.368.132l.373-1.987c.071.022.146.026.219.009l.304-.074.263.173c.097.064.214.084.326.057l.304-.074.263.173c.097.063.215.084.327.057l.304-.074.264.173c.097.064.214.084.326.057l.304-.074.264.173c.069.045.148.069.229.069l.098-.012.415-.101.049.003c.084 0 .169-.026.243-.079.193-.138.241-.412.107-.611l-3.763-5.581c-.065-.097-.166-.162-.279-.182-.113-.02-.229.008-.321.078l-5.335 3.995c-.19.143-.233.417-.094.613.062.088.151.144.246.167l.364.239c.097.063.215.084.327.057l.304-.074.263.173c.097.064.215.084.327.057l.304-.074.263.173c.097.064.215.084.327.057l.304-.074.263.173c.097.064.215.084.327.057l.304-.074.264.173.16.063-.368 1.961c-.196-.096-.446-.198-.867-.198-.475 0-.732.13-.94.234-.167.084-.288.145-.566.145-.278 0-.399-.061-.566-.145-.207-.104-.465-.234-.94-.234-.475 0-.733.13-.94.234-.167.084-.288.145-.566.145-.278 0-.399-.061-.566-.145-.207-.104-.465-.234-.94-.234-.475 0-.732.13-.94.234-.167.084-.288.145-.566.145-.278 0-.399-.061-.566-.145-.207-.104-.465-.234-.94-.234-.475 0-.733.13-.94.234-.167.084-.288.145-.566.145-.278 0-.398-.061-.565-.145-.207-.104-.465-.234-.94-.234-.354 0-.588.072-.769.152.218-.735.564-1.482 1.11-2.1.865-.979 2.105-1.476 3.684-1.476 1.946 0 3.741-.785 5.054-2.21 1.101-1.196 1.784-2.754 1.967-4.46.376.378.621.86.701 1.391.094.62-.053 1.236-.413 1.734-.14.194-.102.469.087.614.076.059.166.087.254.087.13 0 .258-.061.342-.177.497-.688.7-1.538.571-2.393-.089-.59-.327-1.134-.688-1.591 1.019-.011 1.998.624 2.381 1.641.065.174.226.28.397.28l.154-.03c.219-.088.328-.342.243-.568-.51-1.353-1.807-2.202-3.161-2.2.673-.644 1.709-.847 2.641-.431.216.096.467-.006.56-.228.093-.223-.006-.481-.222-.577-1.125-.502-2.366-.327-3.269.349-.14-1.141-.865-2.193-1.99-2.696-.216-.096-.466.006-.56.229-.093.222.006.481.222.577.932.416 1.498 1.333 1.503 2.28-.925-1.02-2.413-1.413-3.719-.871-.218.091-.324.346-.236.571.088.225.336.334.554.243.981-.408 2.101-.107 2.79.667-.571.042-1.119.235-1.597.571-.693.488-1.156 1.222-1.303 2.067-.041.238.113.467.344.509l.075.007c.202 0 .382-.149.419-.362.106-.611.442-1.143.945-1.497.341-.24.731-.381 1.138-.418-.307 3.248-2.715 5.381-6.185 5.381-2.72 0-4.813 1.444-6.053 4.176-.131.289-.245.576-.346.858-.162-.057-.363-.1-.637-.1l-.065.001.24-3.834c.389-.122.822-.185 1.299-.185 2.764 0 4.418-3.598 5.028-5.235.545.068 1.03.335 1.371.759.334.416.489.938.436 1.47-.024.241.146.457.38.482l.044.002c.216 0 .401-.168.423-.394.077-.768-.146-1.521-.627-2.12-.309-.385-.7-.678-1.143-.864.74-.416 1.689-.371 2.38.186.185.149.453.115.598-.076.145-.191.112-.467-.073-.616-.961-.774-2.278-.84-3.307-.266.074-.21.183-.409.325-.591.347-.444.848-.73 1.41-.805.233-.031.398-.251.368-.492-.03-.24-.243-.411-.477-.379-.782.104-1.479.503-1.965 1.125-.149.191-.272.396-.37.611-.147-.182-.317-.348-.508-.494-.623-.474-1.396-.678-2.178-.574-.233.031-.398.251-.368.492.03.24.243.41.477.379.562-.075 1.117.07 1.563.409.182.139.336.303.46.487-1.137-.285-2.394.123-3.133 1.123-.142.193-.106.468.081.615.077.06.168.09.257.09.128 0 .255-.06.339-.173.568-.769 1.564-1.05 2.423-.753-.565 1.323-2.012 4.091-4.215 4.091-.422 0-.823.045-1.202.133l.497-7.949c.433.2.796.52 1.049.934.325.531.428 1.156.29 1.76-.054.236.088.472.317.528l.098.012c.193 0 .368-.136.414-.338.191-.835.05-1.698-.398-2.43-.309-.505-.737-.906-1.245-1.178.931-.427 2.074-.245 2.818.531.083.087.193.131.303.131.108 0 .216-.042.299-.127.167-.17.169-.448.004-.621-.99-1.033-2.506-1.281-3.749-.724.369-.866 1.242-1.477 2.258-1.477.235 0 .426-.197.426-.439s-.191-.439-.426-.439c-1.226 0-2.297.669-2.866 1.658-.568-.989-1.64-1.658-2.866-1.658-.235 0-.426.196-.426.439 0 .242.191.439.426.439 1.016 0 1.888.61 2.258 1.477-1.242-.557-2.759-.309-3.749.724-.165.173-.164.45.004.621.083.085.191.127.299.127.11 0 .22-.044.303-.131.744-.776 1.886-.958 2.818-.531-.507.272-.936.674-1.245 1.178-.448.732-.59 1.595-.399 2.43.046.202.221.338.414.338l.098-.012c.229-.056.371-.292.317-.528-.138-.604-.035-1.23.29-1.76.243-.397.588-.708.999-.91l-.962 8.47c-.362.223-.695.5-.997.832-.961 1.059-1.586 2.631-1.857 4.671-.102.769-.133 1.455-.137 1.947-.246.154-.412.432-.412.751 0 .485.381.878.852.878h25.29c.47 0 .852-.393.852-.878s-.381-.878-.852-.878zm-20.586-.906c-.037.336-.055.643-.062.906h-.124c.044-.263.104-.57.186-.906zm19.221-3.683l-.304.074-.264-.173c-.097-.064-.215-.084-.327-.057l-.304.074-.263-.173c-.097-.064-.215-.084-.327-.057l-.304.074-.264-.173c-.097-.064-.215-.084-.327-.057l-.304.074-.264-.173c-.097-.064-.215-.084-.327-.057l-.304.074-.263-.173c-.097-.064-.215-.084-.327-.057l-.304.074-.263-.173c-.097-.064-.215-.084-.327-.057l-.304.074-.263-.173c-.097-.064-.215-.084-.327-.057l-.304.074-.263-.173-.142-.058 4.174-3.125 2.944 4.366-.153.007zm-17.868 3.139c.167-.084.288-.145.565-.145.278 0 .399.061.566.145.207.104.465.234.94.234.475 0 .733-.13.94-.234.167-.084.288-.145.566-.145.278 0 .399.061.566.145.207.104.465.234.94.234.475 0 .733-.13.94-.234.167-.084.288-.145.565-.145.278 0 .399.061.566.145.207.104.465.234.94.234.475 0 .733-.13.94-.234.167-.084.288-.145.566-.145.278 0 .399.061.566.145.207.104.465.234.94.234.475 0 .733-.13.94-.234.167-.084.288-.145.565-.145.278 0 .399.061.566.145l.134.065-.26 1.385h-13.609c.011-.353.043-.794.12-1.274.185-.047.321-.116.44-.176zm-2.445-.145c.166 0 .276.022.373.058-.165.593-.268 1.126-.332 1.538h-.26l.099-1.59.121-.005zm-2.21 1.595c-.045-.373-.086-.852-.094-1.381.141.065.313.127.551.153l-.14 1.229h-.318zm.896-5.288l.025-.031-.365 3.217c-.179-.018-.284-.07-.418-.137l-.205-.097c.078-1.046.334-2.149.963-2.952zm-1.883 5.288c.005-.276.019-.606.049-.97.016.36.045.689.077.97h-.126z"/></g><g fill="#206FAC" sketch:type="MSShapeGroup"><path d="M15.651 125.103c.172-.148.389-.219.613-.199.162.015.313.076.438.175l.013.033c.07.155.22.254.386.254h.058c.166 0 .316-.099.386-.254l.013-.033c.305-.242.744-.242 1.051.023.18.156.449.132.6-.054.151-.186.128-.462-.052-.618-.346-.299-.785-.443-1.234-.401-.288.026-.559.125-.793.286-.234-.162-.504-.26-.793-.286-.45-.041-.888.102-1.234.401-.18.156-.203.433-.052.618.151.185.42.21.6.054M14.395 127.14c.133-.115.32-.123.459-.032.073.146.219.238.378.238h.037c.16 0 .306-.092.378-.238.139-.091.326-.083.459.032.18.156.449.132.6-.054.151-.186.128-.463-.052-.618-.405-.351-.966-.388-1.403-.137-.437-.251-.998-.214-1.404.137-.18.156-.204.433-.052.618.151.186.42.21.6.054"/><path d="M29.147 145.209h-5.317l.228-1.217c.455-.005.707-.132.91-.234.167-.084.288-.145.566-.145.278 0 .399.061.566.145.207.104.465.234.94.234.475 0 .733-.13.94-.234.167-.084.288-.145.566-.145.235 0 .426-.197.426-.439s-.191-.439-.426-.439c-.475 0-.733.13-.94.234-.167.084-.288.145-.566.145-.278 0-.399-.061-.566-.145-.207-.104-.465-.234-.94-.234-.475 0-.733.13-.94.234-.121.061-.219.109-.368.132l.373-1.987c.071.022.146.026.219.009l.304-.074.263.173c.097.064.214.084.326.057l.304-.074.263.173c.097.063.215.084.327.057l.304-.074.264.173c.097.064.214.084.326.057l.304-.074.264.173c.069.045.148.069.229.069l.098-.012.415-.101.049.003c.084 0 .169-.026.243-.079.193-.138.241-.412.107-.611l-3.763-5.581c-.065-.097-.166-.162-.279-.182-.113-.02-.229.008-.321.078l-5.335 3.995c-.19.143-.233.417-.094.613.062.088.151.144.246.167l.364.239c.097.063.215.084.327.057l.304-.074.263.173c.097.064.215.084.327.057l.304-.074.263.173c.097.064.215.084.327.057l.304-.074.263.173c.097.064.215.084.327.057l.304-.074.264.173.16.063-.368 1.961c-.196-.096-.446-.198-.867-.198-.475 0-.732.13-.94.234-.167.084-.288.145-.566.145-.278 0-.399-.061-.566-.145-.207-.104-.465-.234-.94-.234-.475 0-.733.13-.94.234-.167.084-.288.145-.566.145-.278 0-.399-.061-.566-.145-.207-.104-.465-.234-.94-.234-.475 0-.732.13-.94.234-.167.084-.288.145-.566.145-.278 0-.399-.061-.566-.145-.207-.104-.465-.234-.94-.234-.475 0-.733.13-.94.234-.167.084-.288.145-.566.145-.278 0-.398-.061-.565-.145-.207-.104-.465-.234-.94-.234-.354 0-.588.072-.769.152.218-.735.564-1.482 1.11-2.1.865-.979 2.105-1.476 3.684-1.476 1.946 0 3.741-.785 5.054-2.21 1.101-1.196 1.784-2.754 1.967-4.46.376.378.621.86.701 1.391.094.62-.053 1.236-.413 1.734-.14.194-.102.469.087.614.076.059.166.087.254.087.13 0 .258-.061.342-.177.497-.688.7-1.538.571-2.393-.089-.59-.327-1.134-.688-1.591 1.019-.011 1.998.624 2.381 1.641.065.174.226.28.397.28l.154-.03c.219-.088.328-.342.243-.568-.51-1.353-1.807-2.202-3.161-2.2.673-.644 1.709-.847 2.641-.431.216.096.467-.006.56-.228.093-.223-.006-.481-.222-.577-1.125-.502-2.366-.327-3.269.349-.14-1.141-.865-2.193-1.99-2.696-.216-.096-.466.006-.56.229-.093.222.006.481.222.577.932.416 1.498 1.333 1.503 2.28-.925-1.02-2.413-1.413-3.719-.871-.218.091-.324.346-.236.571.088.225.336.334.554.243.981-.408 2.101-.107 2.79.667-.571.042-1.119.235-1.597.571-.693.488-1.156 1.222-1.303 2.067-.041.238.113.467.344.509l.075.007c.202 0 .382-.149.419-.362.106-.611.442-1.143.945-1.497.341-.24.731-.381 1.138-.418-.307 3.248-2.715 5.381-6.185 5.381-2.72 0-4.813 1.444-6.053 4.176-.131.289-.245.576-.346.858-.162-.057-.363-.1-.637-.1l-.065.001.24-3.834c.389-.122.822-.185 1.299-.185 2.764 0 4.418-3.598 5.028-5.235.545.068 1.03.335 1.371.759.334.416.489.938.436 1.47-.024.241.146.457.38.482l.044.002c.216 0 .401-.168.423-.394.077-.768-.146-1.521-.627-2.12-.309-.385-.7-.678-1.143-.864.74-.416 1.689-.371 2.38.186.185.149.453.115.598-.076.145-.191.112-.467-.073-.616-.961-.774-2.278-.84-3.307-.266.074-.21.183-.409.325-.591.347-.444.848-.73 1.41-.805.233-.031.398-.251.368-.492-.03-.24-.243-.411-.477-.379-.782.104-1.479.503-1.965 1.125-.149.191-.272.396-.37.611-.147-.182-.317-.348-.508-.494-.623-.474-1.396-.678-2.178-.574-.233.031-.398.251-.368.492.03.24.243.41.477.379.562-.075 1.117.07 1.563.409.182.139.336.303.46.487-1.137-.285-2.394.123-3.133 1.123-.142.193-.106.468.081.615.077.06.168.09.257.09.128 0 .255-.06.339-.173.568-.769 1.564-1.05 2.423-.753-.565 1.323-2.012 4.091-4.215 4.091-.422 0-.823.045-1.202.133l.497-7.949c.433.2.796.52 1.049.934.325.531.428 1.156.29 1.76-.054.236.088.472.317.528l.098.012c.193 0 .368-.136.414-.338.191-.835.05-1.698-.398-2.43-.309-.505-.737-.906-1.245-1.178.931-.427 2.074-.245 2.818.531.083.087.193.131.303.131.108 0 .216-.042.299-.127.167-.17.169-.448.004-.621-.99-1.033-2.506-1.281-3.749-.724.369-.866 1.242-1.477 2.258-1.477.235 0 .426-.197.426-.439s-.191-.439-.426-.439c-1.226 0-2.297.669-2.866 1.658-.568-.989-1.64-1.658-2.866-1.658-.235 0-.426.196-.426.439 0 .242.191.439.426.439 1.016 0 1.888.61 2.258 1.477-1.242-.557-2.759-.309-3.749.724-.165.173-.164.45.004.621.083.085.191.127.299.127.11 0 .22-.044.303-.131.744-.776 1.886-.958 2.818-.531-.507.272-.936.674-1.245 1.178-.448.732-.59 1.595-.399 2.43.046.202.221.338.414.338l.098-.012c.229-.056.371-.292.317-.528-.138-.604-.035-1.23.29-1.76.243-.397.588-.708.999-.91l-.962 8.47c-.362.223-.695.5-.997.832-.961 1.059-1.586 2.631-1.857 4.671-.102.769-.133 1.455-.137 1.947-.246.154-.412.432-.412.751 0 .485.381.878.852.878h25.29c.47 0 .852-.393.852-.878s-.381-.878-.852-.878zm-20.586-.906c-.037.336-.055.643-.062.906h-.124c.044-.263.104-.57.186-.906zm19.221-3.683l-.304.074-.264-.173c-.097-.064-.215-.084-.327-.057l-.304.074-.263-.173c-.097-.064-.215-.084-.327-.057l-.304.074-.264-.173c-.097-.064-.215-.084-.327-.057l-.304.074-.264-.173c-.097-.064-.215-.084-.327-.057l-.304.074-.263-.173c-.097-.064-.215-.084-.327-.057l-.304.074-.263-.173c-.097-.064-.215-.084-.327-.057l-.304.074-.263-.173c-.097-.064-.215-.084-.327-.057l-.304.074-.263-.173-.142-.058 4.174-3.125 2.944 4.366-.153.007zm-17.868 3.139c.167-.084.288-.145.565-.145.278 0 .399.061.566.145.207.104.465.234.94.234.475 0 .733-.13.94-.234.167-.084.288-.145.566-.145.278 0 .399.061.566.145.207.104.465.234.94.234.475 0 .733-.13.94-.234.167-.084.288-.145.565-.145.278 0 .399.061.566.145.207.104.465.234.94.234.475 0 .733-.13.94-.234.167-.084.288-.145.566-.145.278 0 .399.061.566.145.207.104.465.234.94.234.475 0 .733-.13.94-.234.167-.084.288-.145.565-.145.278 0 .399.061.566.145l.134.065-.26 1.385h-13.609c.011-.353.043-.794.12-1.274.185-.047.321-.116.44-.176zm-2.445-.145c.166 0 .276.022.373.058-.165.593-.268 1.126-.332 1.538h-.26l.099-1.59.121-.005zm-2.21 1.595c-.045-.373-.086-.852-.094-1.381.141.065.313.127.551.153l-.14 1.229h-.318zm.896-5.288l.025-.031-.365 3.217c-.179-.018-.284-.07-.418-.137l-.205-.097c.078-1.046.334-2.149.963-2.952zm-1.883 5.288c.005-.276.019-.606.049-.97.016.36.045.689.077.97h-.126z"/></g></g></svg>