<svg width="32" height="232" viewBox="0 0 32 232" xmlns="http://www.w3.org/2000/svg" xmlns:sketch="http://www.bohemiancoding.com/sketch/ns"><title>Lisbon</title><g sketch:type="MSPage" fill="none"><g sketch:type="MSLayerGroup"><g fill="#373D43" sketch:type="MSShapeGroup"><path d="M16.77 8.132c.163.159.37.247.585.247h2.199c0 .249.096.486.264.651.143.14.325.217.515.217h2.392c.429 0 .779-.389.779-.868 0-.476-.347-.864-.775-.866l.007-.121c0-.545-.398-.988-.886-.988h-4.493c-.216 0-.423.088-.586.247-.191.187-.3.458-.3.741 0 .282.109.552.301.74zm.515-.83l.071-.031h4.493c.06 0 .108.054.108.121 0 .066-.048.12-.108.12-.215 0-.389.194-.389.433h-.002c0 .24.174.434.39.434h.878-2.392c.215 0 .389-.194.389-.434 0-.239-.174-.433-.389-.433h-2.979l-.071-.031-.037-.089.037-.09z" id="Fill-1"/><path d="M28.354 24.198h-2.442l-.434-1.397v-1.854c.11-.077.184-.213.184-.369v-1.456l-.006-.069v-1.098c0-.724-.741-1.295-1.147-1.553v-.819c0-.239-.174-.434-.389-.434-.215 0-.389.195-.389.434v.819c-.406.258-1.147.83-1.147 1.553v.733h-.972c-.215 0-.389.194-.389.434v.408h-.268v-.408c0-.239-.174-.434-.39-.434h-1.306c-.215 0-.39.194-.39.434v.408h-.268v-.408c0-.239-.174-.434-.39-.434h-1.307c-.215 0-.389.194-.389.434v.408h-.268v-.408c0-.164-.083-.305-.205-.379v-1.087h5.787c.215 0 .389-.195.389-.434 0-.24-.174-.434-.389-.434h-5.787v-.466h3.561c.215 0 .389-.194.389-.433 0-.24-.174-.434-.389-.434h-3.561v-.632h11.831c.215 0 .389-.194.389-.434 0-.239-.174-.434-.389-.434h-1.796v-1.054c0-.15-.069-.283-.173-.361-.096-.141-.263-.21-.423-.155-.45.152-.965.233-1.489.233-.564 0-1.114-.093-1.589-.268-.131-.048-.268-.014-.367.075-.419.126-.886.193-1.36.193-.564 0-1.114-.093-1.588-.268-.131-.048-.267-.014-.367.075-.418.126-.886.193-1.36.193-.462 0-.913-.063-1.322-.182l-.005-.042v-.946c.212-.004.383-.196.383-.434v-1.438c0-.239-.174-.433-.389-.433h-.845v-3.55c0-.716-.731-1.28-1.133-1.537v-.805c0-.24-.174-.434-.389-.434-.215 0-.389.194-.389.434v.805c-.402.257-1.133.822-1.133 1.537v.771h-.263v-.202c0-.239-.174-.434-.389-.434-.215 0-.389.195-.389.434v.202h-.169v-.202c0-.239-.174-.434-.389-.434-.215 0-.389.195-.389.434v.202h-.169v-.202c0-.239-.174-.434-.389-.434-.215 0-.389.195-.389.434v.202h-.271v-.771c0-.716-.73-1.28-1.133-1.537v-.805c0-.24-.174-.434-.389-.434-.215 0-.389.194-.389.434v.805c-.402.257-1.133.822-1.133 1.537v3.55h-.897c-.215 0-.39.194-.39.433v1.438c0 .239.175.434.39.434h.039v.946l-.008.119v2.366c-.3.21-.701.581-.701 1.063v3.404c0 .483.401.853.701 1.063v2.345l-.449 1.442h-.982c-.43 0-.778.388-.778.867s.349.868.778.868h24.762c.43 0 .778-.389.778-.868s-.349-.867-.778-.867zm-20.945-19.389c.159.102.317.224.446.347h-.892c.121-.116.273-.237.446-.347zm4.729 2.424v1.92c-.18.038-.316.213-.316.425v.397h-.255v-.397c0-.239-.174-.433-.389-.433h-1.29c-.215 0-.389.194-.389.433v.397h-.255v-.397c0-.209-.133-.383-.31-.425v-1.92h3.206zm1.522-2.425c.173.11.325.231.447.347h-.893c.121-.116.274-.238.447-.347zm-.744 1.557v-.343h1.487v3.149l-.007.003c-.146.062-.251.219-.251.404v.397h-.255v-.397c0-.239-.174-.433-.389-.433h-.585v-2.779zm-4.763.434v2.345h-.591c-.215 0-.389.194-.389.433v.397h-.255v-.397c0-.184-.105-.342-.251-.404v-3.152h1.487v.777zm-1.876 3.938l.016.014c.066.056.146.09.235.09h1.034c.089 0 .17-.035.236-.09.093-.079.154-.203.154-.343v-.397h.512v.397c0 .098.03.187.079.26.071.105.183.174.31.174h1.034c.215 0 .389-.194.389-.434v-.397h.512v.397c0 .239.174.434.389.434h1.034c.131 0 .246-.072.317-.183.045-.071.073-.157.073-.251v-.397h.512v.397c0 .239.174.434.389.434h1.034c.096 0 .183-.04.251-.105l.006-.006c.08-.079.132-.194.132-.322v-.397h.714v.57c-.212.003-.383.196-.383.434v.43l-.048-.003h-9.397v-.428c0-.24-.174-.434-.389-.434h-.039v-.57h.758v.397c0 .132.054.249.138.329zm11.015 9.226v-.408h.529v.408c0 .24.174.434.389.434h1.048c.215 0 .389-.194.389-.434v-.408h.529v.408c0 .24.174.434.389.434h1.047c.215 0 .389-.194.389-.434v-.408h.529v.408c0 .082.021.158.057.224.068.126.191.21.332.21h1.047c.158 0 .292-.104.354-.254l.036-.179v-.408h.528v.654c-.11.076-.184.212-.184.367v2.2969999999999997l.021.141.368 1.183h-8.599l-.448-1.442v-2.358h.862c.215 0 .389-.194.389-.434zm6.826-2.811c.166.106.331.235.465.362h-.93c.125-.121.284-.248.465-.362zm-19.018.927h.698v1.257c-.026.079-.177.225-.349.347l-.029-.022c-.159-.117-.295-.25-.32-.325v-1.257zm1.479-4.902h7.904v9.289h-7.904v-9.289zm-.089 10.157h8.083l.008.026.26.837h-8.62l.268-.863zm-.692-7.38v1.258h-.698v-1.258c.024-.074.16-.208.32-.325l.029-.022c.172.122.323.267.349.346zm19.079 2.427v.306h-.912c-.215 0-.389.194-.389.434v.408h-.215v-1.147h1.516zm.421-5.048v.622h-2.567v-.613c.401.094.828.143 1.261.143.448 0 .892-.052 1.306-.152zm-3.346.006v.616h-2.567v-.62c.41.098.847.15 1.291.15.437 0 .871-.05 1.276-.146zm-3.346.007v.609h-2.565v-.627c.418.102.865.157 1.319.157.426 0 .849-.048 1.246-.139z" id="Fill-2"/><path d="M9.729 20.907h1.606c.215 0 .389-.194.389-.433v-2.357c0-.687-.782-1.165-1.022-1.296-.107-.058-.233-.058-.341 0-.948.515-1.022 1.122-1.022 1.296v2.357c0 .239.174.433.389.433zm.803-3.201c.212.146.397.326.414.411v1.924h-.828v-1.916c.018-.091.203-.273.414-.419z" id="Fill-3"/><path d="M16.52 22.058l.013.109-.013.108v.413h1.185v-.413l-.013-.108.013-.109v-.413h-1.185v.413" id="Fill-4"/><path d="M19.727 22.275l-.013-.108.013-.109v-.413h-1.185v.413l.013.109-.013.108v.413h1.185v-.413" id="Fill-5"/><path d="M21.749 22.275l-.013-.108.013-.109v-.413h-1.185v.413l.013.109-.013.108v.413h1.185v-.413" id="Fill-6"/><path d="M23.771 22.275l-.013-.108.013-.109v-.413h-1.185v.413l.013.109-.013.108v.413h1.185v-.413" id="Fill-7"/><path d="M9.454 14.207h.778v1.867h-.778v-1.867z" id="Fill-8"/><path d="M10.863 14.207h.778v1.867h-.778v-1.867z" id="Fill-9"/></g><g id="Lisbon-copy" fill="#fff" sketch:type="MSShapeGroup"><path d="M16.77 90.132c.163.159.37.247.585.247h2.199c0 .249.096.486.264.651.143.14.325.217.515.217h2.392c.429 0 .779-.389.779-.868 0-.476-.347-.864-.775-.866l.007-.121c0-.545-.398-.988-.886-.988h-4.493c-.216 0-.423.088-.586.247-.191.187-.3.458-.3.741 0 .282.109.552.301.74zm.515-.83l.071-.031h4.493c.06 0 .108.054.108.121 0 .066-.048.12-.108.12-.215 0-.389.194-.389.433h-.002c0 .24.174.434.39.434h.878-2.392c.215 0 .389-.194.389-.434 0-.239-.174-.433-.389-.433h-2.979l-.071-.031-.037-.089.037-.09z" id="Fill-1"/><path d="M28.354 106.198h-2.442l-.434-1.397v-1.854c.11-.077.184-.213.184-.369v-1.456l-.006-.069v-1.098c0-.724-.741-1.295-1.147-1.553v-.819c0-.239-.174-.434-.389-.434-.215 0-.389.195-.389.434v.819c-.406.258-1.147.83-1.147 1.553v.733h-.972c-.215 0-.389.194-.389.434v.408h-.268v-.408c0-.239-.174-.434-.39-.434h-1.306c-.215 0-.39.194-.39.434v.408h-.268v-.408c0-.239-.174-.434-.39-.434h-1.307c-.215 0-.389.194-.389.434v.408h-.268v-.408c0-.164-.083-.305-.205-.379v-1.087h5.787c.215 0 .389-.195.389-.434 0-.24-.174-.434-.389-.434h-5.787v-.466h3.561c.215 0 .389-.194.389-.433 0-.24-.174-.434-.389-.434h-3.561v-.632h11.831c.215 0 .389-.194.389-.434 0-.239-.174-.434-.389-.434h-1.796v-1.054c0-.15-.069-.283-.173-.361-.096-.141-.263-.21-.423-.155-.45.152-.965.233-1.489.233-.564 0-1.114-.093-1.589-.268-.131-.048-.268-.014-.367.075-.419.126-.886.193-1.36.193-.564 0-1.114-.093-1.588-.268-.131-.048-.267-.014-.367.075-.418.126-.886.193-1.36.193-.462 0-.913-.063-1.322-.182l-.005-.042v-.946c.212-.004.383-.196.383-.434v-1.438c0-.239-.174-.433-.389-.433h-.845v-3.55c0-.716-.731-1.28-1.133-1.537v-.805c0-.24-.174-.434-.389-.434-.215 0-.389.194-.389.434v.805c-.402.257-1.133.822-1.133 1.537v.771h-.263v-.202c0-.239-.174-.434-.389-.434-.215 0-.389.195-.389.434v.202h-.169v-.202c0-.239-.174-.434-.389-.434-.215 0-.389.195-.389.434v.202h-.169v-.202c0-.239-.174-.434-.389-.434-.215 0-.389.195-.389.434v.202h-.271v-.771c0-.716-.73-1.28-1.133-1.537v-.805c0-.24-.174-.434-.389-.434-.215 0-.389.194-.389.434v.805c-.402.257-1.133.822-1.133 1.537v3.55h-.897c-.215 0-.39.194-.39.433v1.438c0 .239.175.434.39.434h.039v.946l-.008.119v2.366c-.3.21-.701.581-.701 1.063v3.404c0 .483.401.853.701 1.063v2.345l-.449 1.442h-.982c-.43 0-.778.388-.778.867s.349.868.778.868h24.762c.43 0 .778-.389.778-.868s-.349-.867-.778-.867zm-20.945-19.389c.159.102.317.224.446.347h-.892c.121-.116.273-.237.446-.347zm4.729 2.424v1.92c-.18.038-.316.213-.316.425v.397h-.255v-.397c0-.239-.174-.433-.389-.433h-1.29c-.215 0-.389.194-.389.433v.397h-.255v-.397c0-.209-.133-.383-.31-.425v-1.92h3.206zm1.522-2.425c.173.11.325.231.447.347h-.893c.121-.116.274-.238.447-.347zm-.744 1.557v-.343h1.487v3.149l-.007.003c-.146.062-.251.219-.251.404v.397h-.255v-.397c0-.239-.174-.433-.389-.433h-.585v-2.779zm-4.763.434v2.345h-.591c-.215 0-.389.194-.389.433v.397h-.255v-.397c0-.184-.105-.342-.251-.404v-3.152h1.487v.777zm-1.876 3.938l.016.014c.066.056.146.09.235.09h1.034c.089 0 .17-.035.236-.09.093-.079.154-.203.154-.343v-.397h.512v.397c0 .098.03.187.079.26.071.105.183.174.31.174h1.034c.215 0 .389-.194.389-.434v-.397h.512v.397c0 .239.174.434.389.434h1.034c.131 0 .246-.072.317-.183.045-.071.073-.157.073-.251v-.397h.512v.397c0 .239.174.434.389.434h1.034c.096 0 .183-.04.251-.105l.006-.006c.08-.079.132-.194.132-.322v-.397h.714v.57c-.212.003-.383.196-.383.434v.43l-.048-.003h-9.397v-.428c0-.24-.174-.434-.389-.434h-.039v-.57h.758v.397c0 .132.054.249.138.329zm11.015 9.226v-.408h.529v.408c0 .24.174.434.389.434h1.048c.215 0 .389-.194.389-.434v-.408h.529v.408c0 .24.174.434.389.434h1.047c.215 0 .389-.194.389-.434v-.408h.529v.408c0 .082.021.158.057.224.068.126.191.21.332.21h1.047c.158 0 .292-.104.354-.254l.036-.179v-.408h.528v.654c-.11.076-.184.212-.184.367v2.2969999999999997l.021.141.368 1.183h-8.599l-.448-1.442v-2.358h.862c.215 0 .389-.194.389-.434zm6.826-2.811c.166.106.331.235.465.362h-.93c.125-.121.284-.248.465-.362zm-19.018.927h.698v1.257c-.026.079-.177.225-.349.347l-.029-.022c-.159-.117-.295-.25-.32-.325v-1.257zm1.479-4.902h7.904v9.289h-7.904v-9.289zm-.089 10.157h8.083l.008.026.26.837h-8.62l.268-.863zm-.692-7.38v1.258h-.698v-1.258c.024-.074.16-.208.32-.325l.029-.022c.172.122.323.267.349.346zm19.079 2.427v.306h-.912c-.215 0-.389.194-.389.434v.408h-.215v-1.147h1.516zm.421-5.048v.622h-2.567v-.613c.401.094.828.143 1.261.143.448 0 .892-.052 1.306-.152zm-3.346.006v.616h-2.567v-.62c.41.098.847.15 1.291.15.437 0 .871-.05 1.276-.146zm-3.346.007v.609h-2.565v-.627c.418.102.865.157 1.319.157.426 0 .849-.048 1.246-.139z" id="Fill-2"/><path d="M9.729 102.907h1.606c.215 0 .389-.194.389-.433v-2.357c0-.687-.782-1.165-1.022-1.296-.107-.058-.233-.058-.341 0-.948.515-1.022 1.122-1.022 1.296v2.357c0 .239.174.433.389.433zm.803-3.201c.212.146.397.326.414.411v1.924h-.828v-1.916c.018-.091.203-.273.414-.419z" id="Fill-3"/><path d="M16.52 104.058l.013.109-.013.108v.413h1.185v-.413l-.013-.108.013-.109v-.413h-1.185v.413" id="Fill-4"/><path d="M19.727 104.275l-.013-.108.013-.109v-.413h-1.185v.413l.013.109-.013.108v.413h1.185v-.413" id="Fill-5"/><path d="M21.749 104.275l-.013-.108.013-.109v-.413h-1.185v.413l.013.109-.013.108v.413h1.185v-.413" id="Fill-6"/><path d="M23.771 104.275l-.013-.108.013-.109v-.413h-1.185v.413l.013.109-.013.108v.413h1.185v-.413" id="Fill-7"/><path d="M9.454 96.207h.778v1.867h-.778v-1.867z" id="Fill-8"/><path d="M10.863 96.207h.778v1.867h-.778v-1.867z" id="Fill-9"/></g><g fill="#67737B" sketch:type="MSShapeGroup"><path d="M16.77 48.132c.163.159.37.247.585.247h2.199c0 .249.096.486.264.651.143.14.325.217.515.217h2.392c.429 0 .779-.389.779-.868 0-.476-.347-.864-.775-.866l.007-.121c0-.545-.398-.988-.886-.988h-4.493c-.216 0-.423.088-.586.247-.191.187-.3.458-.3.741 0 .282.109.552.301.74zm.515-.83l.071-.031h4.493c.06 0 .108.054.108.121 0 .066-.048.12-.108.12-.215 0-.389.194-.389.433h-.002c0 .24.174.434.39.434h.878-2.392c.215 0 .389-.194.389-.434 0-.239-.174-.433-.389-.433h-2.979l-.071-.031-.037-.089.037-.09z" id="Fill-1"/><path d="M28.354 64.198h-2.442l-.434-1.397v-1.854c.11-.077.184-.213.184-.369v-1.456l-.006-.069v-1.098c0-.724-.741-1.295-1.147-1.553v-.819c0-.239-.174-.434-.389-.434-.215 0-.389.195-.389.434v.819c-.406.258-1.147.83-1.147 1.553v.733h-.972c-.215 0-.389.194-.389.434v.408h-.268v-.408c0-.239-.174-.434-.39-.434h-1.306c-.215 0-.39.194-.39.434v.408h-.268v-.408c0-.239-.174-.434-.39-.434h-1.307c-.215 0-.389.194-.389.434v.408h-.268v-.408c0-.164-.083-.305-.205-.379v-1.087h5.787c.215 0 .389-.195.389-.434 0-.24-.174-.434-.389-.434h-5.787v-.466h3.561c.215 0 .389-.194.389-.433 0-.24-.174-.434-.389-.434h-3.561v-.632h11.831c.215 0 .389-.194.389-.434 0-.239-.174-.434-.389-.434h-1.796v-1.054c0-.15-.069-.283-.173-.361-.096-.141-.263-.21-.423-.155-.45.152-.965.233-1.489.233-.564 0-1.114-.093-1.589-.268-.131-.048-.268-.014-.367.075-.419.126-.886.193-1.36.193-.564 0-1.114-.093-1.588-.268-.131-.048-.267-.014-.367.075-.418.126-.886.193-1.36.193-.462 0-.913-.063-1.322-.182l-.005-.042v-.946c.212-.004.383-.196.383-.434v-1.438c0-.239-.174-.433-.389-.433h-.845v-3.55c0-.716-.731-1.28-1.133-1.537v-.805c0-.24-.174-.434-.389-.434-.215 0-.389.194-.389.434v.805c-.402.257-1.133.822-1.133 1.537v.771h-.263v-.202c0-.239-.174-.434-.389-.434-.215 0-.389.195-.389.434v.202h-.169v-.202c0-.239-.174-.434-.389-.434-.215 0-.389.195-.389.434v.202h-.169v-.202c0-.239-.174-.434-.389-.434-.215 0-.389.195-.389.434v.202h-.271v-.771c0-.716-.73-1.28-1.133-1.537v-.805c0-.24-.174-.434-.389-.434-.215 0-.389.194-.389.434v.805c-.402.257-1.133.822-1.133 1.537v3.55h-.897c-.215 0-.39.194-.39.433v1.438c0 .239.175.434.39.434h.039v.946l-.008.119v2.366c-.3.21-.701.581-.701 1.063v3.404c0 .483.401.853.701 1.063v2.345l-.449 1.442h-.982c-.43 0-.778.388-.778.867s.349.868.778.868h24.762c.43 0 .778-.389.778-.868s-.349-.867-.778-.867zm-20.945-19.389c.159.102.317.224.446.347h-.892c.121-.116.273-.237.446-.347zm4.729 2.424v1.92c-.18.038-.316.213-.316.425v.397h-.255v-.397c0-.239-.174-.433-.389-.433h-1.29c-.215 0-.389.194-.389.433v.397h-.255v-.397c0-.209-.133-.383-.31-.425v-1.92h3.206zm1.522-2.425c.173.11.325.231.447.347h-.893c.121-.116.274-.238.447-.347zm-.744 1.557v-.343h1.487v3.149l-.007.003c-.146.062-.251.219-.251.404v.397h-.255v-.397c0-.239-.174-.433-.389-.433h-.585v-2.779zm-4.763.434v2.345h-.591c-.215 0-.389.194-.389.433v.397h-.255v-.397c0-.184-.105-.342-.251-.404v-3.152h1.487v.777zm-1.876 3.938l.016.014c.066.056.146.09.235.09h1.034c.089 0 .17-.035.236-.09.093-.079.154-.203.154-.343v-.397h.512v.397c0 .098.03.187.079.26.071.105.183.174.31.174h1.034c.215 0 .389-.194.389-.434v-.397h.512v.397c0 .239.174.434.389.434h1.034c.131 0 .246-.072.317-.183.045-.071.073-.157.073-.251v-.397h.512v.397c0 .239.174.434.389.434h1.034c.096 0 .183-.04.251-.105l.006-.006c.08-.079.132-.194.132-.322v-.397h.714v.57c-.212.003-.383.196-.383.434v.43l-.048-.003h-9.397v-.428c0-.24-.174-.434-.389-.434h-.039v-.57h.758v.397c0 .132.054.249.138.329zm11.015 9.226v-.408h.529v.408c0 .24.174.434.389.434h1.048c.215 0 .389-.194.389-.434v-.408h.529v.408c0 .24.174.434.389.434h1.047c.215 0 .389-.194.389-.434v-.408h.529v.408c0 .082.021.158.057.224.068.126.191.21.332.21h1.047c.158 0 .292-.104.354-.254l.036-.179v-.408h.528v.654c-.11.076-.184.212-.184.367v2.2969999999999997l.021.141.368 1.183h-8.599l-.448-1.442v-2.358h.862c.215 0 .389-.194.389-.434zm6.826-2.811c.166.106.331.235.465.362h-.93c.125-.121.284-.248.465-.362zm-19.018.927h.698v1.257c-.026.079-.177.225-.349.347l-.029-.022c-.159-.117-.295-.25-.32-.325v-1.257zm1.479-4.902h7.904v9.289h-7.904v-9.289zm-.089 10.157h8.083l.008.026.26.837h-8.62l.268-.863zm-.692-7.38v1.258h-.698v-1.258c.024-.074.16-.208.32-.325l.029-.022c.172.122.323.267.349.346zm19.079 2.427v.306h-.912c-.215 0-.389.194-.389.434v.408h-.215v-1.147h1.516zm.421-5.048v.622h-2.567v-.613c.401.094.828.143 1.261.143.448 0 .892-.052 1.306-.152zm-3.346.006v.616h-2.567v-.62c.41.098.847.15 1.291.15.437 0 .871-.05 1.276-.146zm-3.346.007v.609h-2.565v-.627c.418.102.865.157 1.319.157.426 0 .849-.048 1.246-.139z" id="Fill-2"/><path d="M9.729 60.907h1.606c.215 0 .389-.194.389-.433v-2.357c0-.687-.782-1.165-1.022-1.296-.107-.058-.233-.058-.341 0-.948.515-1.022 1.122-1.022 1.296v2.357c0 .239.174.433.389.433zm.803-3.201c.212.146.397.326.414.411v1.924h-.828v-1.916c.018-.091.203-.273.414-.419z" id="Fill-3"/><path d="M16.52 62.058l.013.109-.013.108v.413h1.185v-.413l-.013-.108.013-.109v-.413h-1.185v.413" id="Fill-4"/><path d="M19.727 62.275l-.013-.108.013-.109v-.413h-1.185v.413l.013.109-.013.108v.413h1.185v-.413" id="Fill-5"/><path d="M21.749 62.275l-.013-.108.013-.109v-.413h-1.185v.413l.013.109-.013.108v.413h1.185v-.413" id="Fill-6"/><path d="M23.771 62.275l-.013-.108.013-.109v-.413h-1.185v.413l.013.109-.013.108v.413h1.185v-.413" id="Fill-7"/><path d="M9.454 54.207h.778v1.867h-.778v-1.867z" id="Fill-8"/><path d="M10.863 54.207h.778v1.867h-.778v-1.867z" id="Fill-9"/></g><g fill="#206FAC" sketch:type="MSShapeGroup"><path d="M16.77 130.132c.163.159.37.247.585.247h2.199c0 .249.096.486.264.651.143.14.325.217.515.217h2.392c.429 0 .779-.389.779-.868 0-.476-.347-.864-.775-.866l.007-.121c0-.545-.398-.988-.886-.988h-4.493c-.216 0-.423.088-.586.247-.191.187-.3.458-.3.741 0 .282.109.552.301.74zm.515-.83l.071-.031h4.493c.06 0 .108.054.108.121 0 .066-.048.12-.108.12-.215 0-.389.194-.389.433h-.002c0 .24.174.434.39.434h.878-2.392c.215 0 .389-.194.389-.434 0-.239-.174-.433-.389-.433h-2.979l-.071-.031-.037-.089.037-.09z"/><path d="M28.354 146.198h-2.442l-.434-1.397v-1.854c.11-.077.184-.213.184-.369v-1.456l-.006-.069v-1.098c0-.724-.741-1.295-1.147-1.553v-.819c0-.239-.174-.434-.389-.434-.215 0-.389.195-.389.434v.819c-.406.258-1.147.83-1.147 1.553v.733h-.972c-.215 0-.389.194-.389.434v.408h-.268v-.408c0-.239-.174-.434-.39-.434h-1.306c-.215 0-.39.194-.39.434v.408h-.268v-.408c0-.239-.174-.434-.39-.434h-1.307c-.215 0-.389.194-.389.434v.408h-.268v-.408c0-.164-.083-.305-.205-.379v-1.087h5.787c.215 0 .389-.195.389-.434 0-.24-.174-.434-.389-.434h-5.787v-.466h3.561c.215 0 .389-.194.389-.433 0-.24-.174-.434-.389-.434h-3.561v-.632h11.831c.215 0 .389-.194.389-.434 0-.239-.174-.434-.389-.434h-1.796v-1.054c0-.15-.069-.283-.173-.361-.096-.141-.263-.21-.423-.155-.45.152-.965.233-1.489.233-.564 0-1.114-.093-1.589-.268-.131-.048-.268-.014-.367.075-.419.126-.886.193-1.36.193-.564 0-1.114-.093-1.588-.268-.131-.048-.267-.014-.367.075-.418.126-.886.193-1.36.193-.462 0-.913-.063-1.322-.182l-.005-.042v-.946c.212-.004.383-.196.383-.434v-1.438c0-.239-.174-.433-.389-.433h-.845v-3.55c0-.716-.731-1.28-1.133-1.537v-.805c0-.24-.174-.434-.389-.434-.215 0-.389.194-.389.434v.805c-.402.257-1.133.822-1.133 1.537v.771h-.263v-.202c0-.239-.174-.434-.389-.434-.215 0-.389.195-.389.434v.202h-.169v-.202c0-.239-.174-.434-.389-.434-.215 0-.389.195-.389.434v.202h-.169v-.202c0-.239-.174-.434-.389-.434-.215 0-.389.195-.389.434v.202h-.271v-.771c0-.716-.73-1.28-1.133-1.537v-.805c0-.24-.174-.434-.389-.434-.215 0-.389.194-.389.434v.805c-.402.257-1.133.822-1.133 1.537v3.55h-.897c-.215 0-.39.194-.39.433v1.438c0 .239.175.434.39.434h.039v.946l-.008.119v2.366c-.3.21-.701.581-.701 1.063v3.404c0 .483.401.853.701 1.063v2.345l-.449 1.442h-.982c-.43 0-.778.388-.778.867s.349.868.778.868h24.762c.43 0 .778-.389.778-.868s-.349-.867-.778-.867zm-20.945-19.389c.159.102.317.224.446.347h-.892c.121-.116.273-.237.446-.347zm4.729 2.424v1.92c-.18.038-.316.213-.316.425v.397h-.255v-.397c0-.239-.174-.433-.389-.433h-1.29c-.215 0-.389.194-.389.433v.397h-.255v-.397c0-.209-.133-.383-.31-.425v-1.92h3.206zm1.522-2.425c.173.11.325.231.447.347h-.893c.121-.116.274-.238.447-.347zm-.744 1.557v-.343h1.487v3.149l-.007.003c-.146.062-.251.219-.251.404v.397h-.255v-.397c0-.239-.174-.433-.389-.433h-.585v-2.779zm-4.763.434v2.345h-.591c-.215 0-.389.194-.389.433v.397h-.255v-.397c0-.184-.105-.342-.251-.404v-3.152h1.487v.777zm-1.876 3.938l.016.014c.066.056.146.09.235.09h1.034c.089 0 .17-.035.236-.09.093-.079.154-.203.154-.343v-.397h.512v.397c0 .098.03.187.079.26.071.105.183.174.31.174h1.034c.215 0 .389-.194.389-.434v-.397h.512v.397c0 .239.174.434.389.434h1.034c.131 0 .246-.072.317-.183.045-.071.073-.157.073-.251v-.397h.512v.397c0 .239.174.434.389.434h1.034c.096 0 .183-.04.251-.105l.006-.006c.08-.079.132-.194.132-.322v-.397h.714v.57c-.212.003-.383.196-.383.434v.43l-.048-.003h-9.397v-.428c0-.24-.174-.434-.389-.434h-.039v-.57h.758v.397c0 .132.054.249.138.329zm11.015 9.226v-.408h.529v.408c0 .24.174.434.389.434h1.048c.215 0 .389-.194.389-.434v-.408h.529v.408c0 .24.174.434.389.434h1.047c.215 0 .389-.194.389-.434v-.408h.529v.408c0 .082.021.158.057.224.068.126.191.21.332.21h1.047c.158 0 .292-.104.354-.254l.036-.179v-.408h.528v.654c-.11.076-.184.212-.184.367v2.2969999999999997l.021.141.368 1.183h-8.599l-.448-1.442v-2.358h.862c.215 0 .389-.194.389-.434zm6.826-2.811c.166.106.331.235.465.362h-.93c.125-.121.284-.248.465-.362zm-19.018.927h.698v1.257c-.026.079-.177.225-.349.347l-.029-.022c-.159-.117-.295-.25-.32-.325v-1.257zm1.479-4.902h7.904v9.289h-7.904v-9.289zm-.089 10.157h8.083l.008.026.26.837h-8.62l.268-.863zm-.692-7.38v1.258h-.698v-1.258c.024-.074.16-.208.32-.325l.029-.022c.172.122.323.267.349.346zm19.079 2.427v.306h-.912c-.215 0-.389.194-.389.434v.408h-.215v-1.147h1.516zm.421-5.048v.622h-2.567v-.613c.401.094.828.143 1.261.143.448 0 .892-.052 1.306-.152zm-3.346.006v.616h-2.567v-.62c.41.098.847.15 1.291.15.437 0 .871-.05 1.276-.146zm-3.346.007v.609h-2.565v-.627c.418.102.865.157 1.319.157.426 0 .849-.048 1.246-.139z"/><path d="M9.729 142.907h1.606c.215 0 .389-.194.389-.433v-2.357c0-.687-.782-1.165-1.022-1.296-.107-.058-.233-.058-.341 0-.948.515-1.022 1.122-1.022 1.296v2.357c0 .239.174.433.389.433zm.803-3.201c.212.146.397.326.414.411v1.924h-.828v-1.916c.018-.091.203-.273.414-.419z"/><path d="M16.52 144.058l.013.109-.013.108v.413h1.185v-.413l-.013-.108.013-.109v-.413h-1.185v.413"/><path d="M19.727 144.275l-.013-.108.013-.109v-.413h-1.185v.413l.013.109-.013.108v.413h1.185v-.413"/><path d="M21.749 144.275l-.013-.108.013-.109v-.413h-1.185v.413l.013.109-.013.108v.413h1.185v-.413"/><path d="M23.771 144.275l-.013-.108.013-.109v-.413h-1.185v.413l.013.109-.013.108v.413h1.185v-.413"/><path d="M9.454 136.207h.778v1.867h-.778v-1.867z"/><path d="M10.863 136.207h.778v1.867h-.778v-1.867z"/></g></g></g></svg>