<svg width="32" height="232" viewBox="0 0 32 232" xmlns="http://www.w3.org/2000/svg" xmlns:sketch="http://www.bohemiancoding.com/sketch/ns"><title>Serbia</title><g sketch:type="MSLayerGroup" fill="none"><g fill="#fff" sketch:type="MSShapeGroup"><path d="M29.154 26.276h-1.589v-8.086l.023-.134v-2.728c0-.144-.07-.271-.176-.348l.013-.102c0-1.223-.981-2.245-2.277-2.471l-.115-.073v-1.326c0-.122-.05-.231-.129-.309l.004-.038c0-1.124-1.017-2.038-2.267-2.038-.699 0-1.325.286-1.741.735-.447-1.775-2.262-3.137-4.484-3.287v-.656h.07c.227 0 .411-.191.411-.426s-.184-.426-.411-.426h-.07v-.129c0-.235-.184-.425-.411-.425-.227 0-.411.19-.411.425v.129h-.07c-.227 0-.411.19-.411.426 0 .235.184.426.411.426h.07v.656c-2.255.153-4.09 1.554-4.502 3.368-.414-.495-1.072-.816-1.813-.816-1.25 0-2.267.914-2.267 2.038l.022.132c-.036.063-.058.136-.058.214v1.326l-.08.047c-1.385.159-2.459 1.218-2.459 2.497l.044.187c-.055.073-.09.163-.09.263v2.728l.001.011v8.208h-1.537c-.453 0-.821.381-.821.851s.368.851.821.851h26.296c.454 0 .821-.381.821-.851s-.368-.851-.821-.851zm-23.893-11.397c0-.704.526-1.307 1.267-1.551v1.576h-1.269l.002-.025zm2.58-4.297c.05-.617.676-1.108 1.441-1.108s1.391.49 1.441 1.108l.005.079h-2.891l.005-.079zm14.801-1.108c.765 0 1.391.49 1.441 1.108l.005.079h-2.891l.005-.079c.05-.617.676-1.108 1.441-1.108zm3.963 5.404l.002.025h-1.123v-1.522c.663.272 1.12.841 1.12 1.497zm-18.804-2.472v-.974h3.071v1.25h-1.305v-.623c-.01-.22-.185-.395-.399-.395-.215 0-.39.175-.399.395v.623h-.968v-.276zm17.684 3.347h1.283v1.761h-1.283v-1.761zm-11.403 10.521v-1.546c.011-.169.147-.3.311-.3.08 0 .152.031.207.082v2.092h-.519v-.328zm3.849 0v.328h-.519v-2.092c.055-.051.128-.082.207-.082.165 0 .3.131.311.3v1.546zm-1.34-2.018v2.346h-1.169v-2.75c.019-.32.274-.57.585-.57.311 0 .566.25.585.57v.404zm-3.656-5.462h2.688l-2.688 1.348v-1.348zm6.143 0v1.358l-2.803-1.358h2.803zm0-1.28v.429h-6.143v-1.601h6.143v1.173zm-7.109.46h-1.849c.032-.078.083-.151.149-.216.112-.11.267-.196.446-.245.103-.028.214-.044.33-.044.115 0 .226.016.33.044.285.077.51.249.595.46zm-1.913.851h2.058v7.449h-2.058v-7.449zm9.844 1.995v-1.995h2.058v7.449h-2.058v-5.454zm1.815-3.052c.061.062.108.132.138.206h-1.849c.085-.211.31-.383.595-.46.103-.028.214-.044.33-.044.115 0 .226.016.33.044.184.05.344.14.456.254zm-8.663-2.278l.002-.018c0-.587.282-1.123.745-1.53.187-.165.403-.308.643-.426.454-.223.99-.352 1.565-.352.574 0 1.111.129 1.565.352.24.118.456.261.643.426.463.408.745.944.745 1.53l.002.018h-5.91zm11.161-3.107v.298h-1.171v-.623c-.01-.22-.185-.395-.399-.395-.215 0-.39.175-.4.395v.623h-1.101v-1.25h3.071v.952zm-18.997 3.369h1.313v1.761h-1.313v-1.761zm2.955 2.728v-4.538h4.536c-.302.454-.474.975-.474 1.53l.021.127c-.085.078-.139.19-.139.317v1.012c-.298-.194-.669-.309-1.07-.309-.278 0-.541.055-.776.154-.15.063-.288.143-.41.238-.169.13-.309.288-.411.464l-.022.039-.056.115c-.057.134-.093.277-.104.426l-.005.105.007.073-.03.133-.003.035v7.874h-1.064v-7.794zm10.908 8.219h-.326v-2.004c-.028-.628-.525-1.119-1.132-1.119l-.235.026c-.129-.672-.697-1.171-1.378-1.171-.681 0-1.249.5-1.378 1.171l-.235-.026c-.607 0-1.104.492-1.132 1.119v2.004h-.326v-5.612l3.014-1.512 3.129 1.516v5.608zm3.701-.426v-7.874l-.003-.035-.064-.198.001-.007-.005-.105c-.012-.149-.047-.291-.104-.426l-.056-.115-.012-.022c-.101-.18-.241-.341-.411-.474-.123-.096-.261-.177-.411-.241-.237-.101-.504-.158-.786-.158-.383 0-.738.105-1.029.284v-.986c0-.126-.054-.239-.139-.317l.021-.127c0-.555-.172-1.077-.474-1.53h4.536v12.332h-1.064zm-11.072-15.639h8.599v1.606h-8.599v-1.606zm13.778 7.846h1.26v7.794h-1.26v-7.794zm-9.478-11.575c2.122 0 3.879 1.257 4.144 2.879h-8.287c.265-1.622 2.022-2.879 4.144-2.879zm-10.79 11.575h1.312v7.794h-1.312v-7.794z" id="Fill-1"/><path d="M20.929 19.631c-.21 0-.382.172-.392.387v1.254h.783v-1.254c-.01-.216-.181-.387-.392-.387" id="Fill-2"/><path d="M11.068 19.631c-.21 0-.382.172-.392.387v1.254h.783v-1.254c-.01-.216-.181-.387-.392-.387" id="Fill-3"/><path d="M16.451 21.063l-.053-.061c-.106-.1-.252-.158-.399-.158-.115 0-.226.034-.32.099l-.034.026c-.087.074-.146.172-.176.279-.05.175-.022.374.091.53l.033.041c.108.116.26.182.418.182.125 0 .244-.042.34-.12.112-.085.186-.209.21-.353.015-.093.008-.189-.02-.28l-.091-.185zm-.699.32l.06-.135.044-.046.155-.053c.083 0 .139.042.172.078l-.021.021-.167.167-.091-.116.079.125-.191.148c-.038-.052-.052-.119-.04-.188zm.094.249l.157-.179.127.201c-.088.059-.204.053-.284-.022zm.325-.01l-.067-.081.04.061-.129-.163.042-.048.159-.124c.09.124.044.274-.046.355z" id="Fill-4"/></g><g fill="#373D43" sketch:type="MSShapeGroup"><path d="M29.154 66.276h-1.589v-8.086l.023-.134v-2.728c0-.144-.07-.271-.176-.348l.013-.102c0-1.223-.981-2.245-2.277-2.471l-.115-.073v-1.326c0-.122-.05-.231-.129-.309l.004-.038c0-1.124-1.017-2.038-2.267-2.038-.699 0-1.325.286-1.741.735-.447-1.775-2.262-3.137-4.484-3.287v-.656h.07c.227 0 .411-.191.411-.426s-.184-.426-.411-.426h-.07v-.129c0-.235-.184-.425-.411-.425-.227 0-.411.19-.411.425v.129h-.07c-.227 0-.411.19-.411.426 0 .235.184.426.411.426h.07v.656c-2.255.153-4.09 1.554-4.502 3.368-.414-.495-1.072-.816-1.813-.816-1.25 0-2.267.914-2.267 2.038l.022.132c-.036.063-.058.136-.058.214v1.326l-.08.047c-1.385.159-2.459 1.218-2.459 2.497l.044.187c-.055.073-.09.163-.09.263v2.728l.001.011v8.208h-1.537c-.453 0-.821.381-.821.851s.368.851.821.851h26.296c.454 0 .821-.381.821-.851s-.368-.851-.821-.851zm-23.893-11.397c0-.704.526-1.307 1.267-1.551v1.576h-1.269l.002-.025zm2.58-4.297c.05-.617.676-1.108 1.441-1.108s1.391.49 1.441 1.108l.005.079h-2.891l.005-.079zm14.801-1.108c.765 0 1.391.49 1.441 1.108l.005.079h-2.891l.005-.079c.05-.617.676-1.108 1.441-1.108zm3.963 5.404l.002.025h-1.123v-1.522c.663.272 1.12.841 1.12 1.497zm-18.804-2.472v-.974h3.071v1.25h-1.305v-.623c-.01-.22-.185-.395-.399-.395-.215 0-.39.175-.399.395v.623h-.968v-.276zm17.684 3.347h1.283v1.761h-1.283v-1.761zm-11.403 10.521v-1.546c.011-.169.147-.3.311-.3.08 0 .152.031.207.082v2.092h-.519v-.328zm3.849 0v.328h-.519v-2.092c.055-.051.128-.082.207-.082.165 0 .3.131.311.3v1.546zm-1.34-2.018v2.346h-1.169v-2.75c.019-.32.274-.57.585-.57.311 0 .566.25.585.57v.404zm-3.656-5.462h2.688l-2.688 1.348v-1.348zm6.143 0v1.358l-2.803-1.358h2.803zm0-1.28v.429h-6.143v-1.601h6.143v1.173zm-7.109.46h-1.849c.032-.078.083-.151.149-.216.112-.11.267-.196.446-.245.103-.028.214-.044.33-.044.115 0 .226.016.33.044.285.077.51.249.595.46zm-1.913.851h2.058v7.449h-2.058v-7.449zm9.844 1.995v-1.995h2.058v7.449h-2.058v-5.454zm1.815-3.052c.061.062.108.132.138.206h-1.849c.085-.211.31-.383.595-.46.103-.028.214-.044.33-.044.115 0 .226.016.33.044.184.05.344.14.456.254zm-8.663-2.278l.002-.018c0-.587.282-1.123.745-1.53.187-.165.403-.308.643-.426.454-.223.99-.352 1.565-.352.574 0 1.111.129 1.565.352.24.118.456.261.643.426.463.408.745.944.745 1.53l.002.018h-5.91zm11.161-3.107v.298h-1.171v-.623c-.01-.22-.185-.395-.399-.395-.215 0-.39.175-.4.395v.623h-1.101v-1.25h3.071v.952zm-18.997 3.369h1.313v1.761h-1.313v-1.761zm2.955 2.728v-4.538h4.536c-.302.454-.474.975-.474 1.53l.021.127c-.085.078-.139.19-.139.317v1.012c-.298-.194-.669-.309-1.07-.309-.278 0-.541.055-.776.154-.15.063-.288.143-.41.238-.169.13-.309.288-.411.464l-.022.039-.056.115c-.057.134-.093.277-.104.426l-.005.105.007.073-.03.133-.003.035v7.874h-1.064v-7.794zm10.908 8.219h-.326v-2.004c-.028-.628-.525-1.119-1.132-1.119l-.235.026c-.129-.672-.697-1.171-1.378-1.171-.681 0-1.249.5-1.378 1.171l-.235-.026c-.607 0-1.104.492-1.132 1.119v2.004h-.326v-5.612l3.014-1.512 3.129 1.516v5.608zm3.701-.426v-7.874l-.003-.035-.064-.198.001-.007-.005-.105c-.012-.149-.047-.291-.104-.426l-.056-.115-.012-.022c-.101-.18-.241-.341-.411-.474-.123-.096-.261-.177-.411-.241-.237-.101-.504-.158-.786-.158-.383 0-.738.105-1.029.284v-.986c0-.126-.054-.239-.139-.317l.021-.127c0-.555-.172-1.077-.474-1.53h4.536v12.332h-1.064zm-11.072-15.639h8.599v1.606h-8.599v-1.606zm13.778 7.846h1.26v7.794h-1.26v-7.794zm-9.478-11.575c2.122 0 3.879 1.257 4.144 2.879h-8.287c.265-1.622 2.022-2.879 4.144-2.879zm-10.79 11.575h1.312v7.794h-1.312v-7.794z" id="Fill-1"/><path d="M20.929 59.631c-.21 0-.382.172-.392.387v1.254h.783v-1.254c-.01-.216-.181-.387-.392-.387" id="Fill-2"/><path d="M11.068 59.631c-.21 0-.382.172-.392.387v1.254h.783v-1.254c-.01-.216-.181-.387-.392-.387" id="Fill-3"/><path d="M16.451 61.063l-.053-.061c-.106-.1-.252-.158-.399-.158-.115 0-.226.034-.32.099l-.034.026c-.087.074-.146.172-.176.279-.05.175-.022.374.091.53l.033.041c.108.116.26.182.418.182.125 0 .244-.042.34-.12.112-.085.186-.209.21-.353.015-.093.008-.189-.02-.28l-.091-.185zm-.699.32l.06-.135.044-.046.155-.053c.083 0 .139.042.172.078l-.021.021-.167.167-.091-.116.079.125-.191.148c-.038-.052-.052-.119-.04-.188zm.094.249l.157-.179.127.201c-.088.059-.204.053-.284-.022zm.325-.01l-.067-.081.04.061-.129-.163.042-.048.159-.124c.09.124.044.274-.046.355z" id="Fill-4"/></g><g fill="#67737B" sketch:type="MSShapeGroup"><path d="M29.154 106.276h-1.589v-8.086l.023-.134v-2.728c0-.144-.07-.271-.176-.348l.013-.102c0-1.223-.981-2.245-2.277-2.471l-.115-.073v-1.326c0-.122-.05-.231-.129-.309l.004-.038c0-1.124-1.017-2.038-2.267-2.038-.699 0-1.325.286-1.741.735-.447-1.775-2.262-3.137-4.484-3.287v-.656h.07c.227 0 .411-.191.411-.426s-.184-.426-.411-.426h-.07v-.129c0-.235-.184-.425-.411-.425-.227 0-.411.19-.411.425v.129h-.07c-.227 0-.411.19-.411.426 0 .235.184.426.411.426h.07v.656c-2.255.153-4.09 1.554-4.502 3.368-.414-.495-1.072-.816-1.813-.816-1.25 0-2.267.914-2.267 2.038l.022.132c-.036.063-.058.136-.058.214v1.326l-.08.047c-1.385.159-2.459 1.218-2.459 2.497l.044.187c-.055.073-.09.163-.09.263v2.728l.001.011v8.208h-1.537c-.453 0-.821.381-.821.851s.368.851.821.851h26.296c.454 0 .821-.381.821-.851s-.368-.851-.821-.851zm-23.893-11.397c0-.704.526-1.307 1.267-1.551v1.576h-1.269l.002-.025zm2.58-4.297c.05-.617.676-1.108 1.441-1.108s1.391.49 1.441 1.108l.005.079h-2.891l.005-.079zm14.801-1.108c.765 0 1.391.49 1.441 1.108l.005.079h-2.891l.005-.079c.05-.617.676-1.108 1.441-1.108zm3.963 5.404l.002.025h-1.123v-1.522c.663.272 1.12.841 1.12 1.497zm-18.804-2.472v-.974h3.071v1.25h-1.305v-.623c-.01-.22-.185-.395-.399-.395-.215 0-.39.175-.399.395v.623h-.968v-.276zm17.684 3.347h1.283v1.761h-1.283v-1.761zm-11.403 10.521v-1.546c.011-.169.147-.3.311-.3.08 0 .152.031.207.082v2.092h-.519v-.328zm3.849 0v.328h-.519v-2.092c.055-.051.128-.082.207-.082.165 0 .3.131.311.3v1.546zm-1.34-2.018v2.346h-1.169v-2.75c.019-.32.274-.57.585-.57.311 0 .566.25.585.57v.404zm-3.656-5.462h2.688l-2.688 1.348v-1.348zm6.143 0v1.358l-2.803-1.358h2.803zm0-1.28v.429h-6.143v-1.601h6.143v1.173zm-7.109.46h-1.849c.032-.078.083-.151.149-.216.112-.11.267-.196.446-.245.103-.028.214-.044.33-.044.115 0 .226.016.33.044.285.077.51.249.595.46zm-1.913.851h2.058v7.449h-2.058v-7.449zm9.844 1.995v-1.995h2.058v7.449h-2.058v-5.454zm1.815-3.052c.061.062.108.132.138.206h-1.849c.085-.211.31-.383.595-.46.103-.028.214-.044.33-.044.115 0 .226.016.33.044.184.05.344.14.456.254zm-8.663-2.278l.002-.018c0-.587.282-1.123.745-1.53.187-.165.403-.308.643-.426.454-.223.99-.352 1.565-.352.574 0 1.111.129 1.565.352.24.118.456.261.643.426.463.408.745.944.745 1.53l.002.018h-5.91zm11.161-3.107v.298h-1.171v-.623c-.01-.22-.185-.395-.399-.395-.215 0-.39.175-.4.395v.623h-1.101v-1.25h3.071v.952zm-18.997 3.369h1.313v1.761h-1.313v-1.761zm2.955 2.728v-4.538h4.536c-.302.454-.474.975-.474 1.53l.021.127c-.085.078-.139.19-.139.317v1.012c-.298-.194-.669-.309-1.07-.309-.278 0-.541.055-.776.154-.15.063-.288.143-.41.238-.169.13-.309.288-.411.464l-.022.039-.056.115c-.057.134-.093.277-.104.426l-.005.105.007.073-.03.133-.003.035v7.874h-1.064v-7.794zm10.908 8.219h-.326v-2.004c-.028-.628-.525-1.119-1.132-1.119l-.235.026c-.129-.672-.697-1.171-1.378-1.171-.681 0-1.249.5-1.378 1.171l-.235-.026c-.607 0-1.104.492-1.132 1.119v2.004h-.326v-5.612l3.014-1.512 3.129 1.516v5.608zm3.701-.426v-7.874l-.003-.035-.064-.198.001-.007-.005-.105c-.012-.149-.047-.291-.104-.426l-.056-.115-.012-.022c-.101-.18-.241-.341-.411-.474-.123-.096-.261-.177-.411-.241-.237-.101-.504-.158-.786-.158-.383 0-.738.105-1.029.284v-.986c0-.126-.054-.239-.139-.317l.021-.127c0-.555-.172-1.077-.474-1.53h4.536v12.332h-1.064zm-11.072-15.639h8.599v1.606h-8.599v-1.606zm13.778 7.846h1.26v7.794h-1.26v-7.794zm-9.478-11.575c2.122 0 3.879 1.257 4.144 2.879h-8.287c.265-1.622 2.022-2.879 4.144-2.879zm-10.79 11.575h1.312v7.794h-1.312v-7.794z"/><path d="M20.929 99.631c-.21 0-.382.172-.392.387v1.254h.783v-1.254c-.01-.216-.181-.387-.392-.387"/><path d="M11.068 99.631c-.21 0-.382.172-.392.387v1.254h.783v-1.254c-.01-.216-.181-.387-.392-.387"/><path d="M16.451 101.063l-.053-.061c-.106-.1-.252-.158-.399-.158-.115 0-.226.034-.32.099l-.034.026c-.087.074-.146.172-.176.279-.05.175-.022.374.091.53l.033.041c.108.116.26.182.418.182.125 0 .244-.042.34-.12.112-.085.186-.209.21-.353.015-.093.008-.189-.02-.28l-.091-.185zm-.699.32l.06-.135.044-.046.155-.053c.083 0 .139.042.172.078l-.021.021-.167.167-.091-.116.079.125-.191.148c-.038-.052-.052-.119-.04-.188zm.094.249l.157-.179.127.201c-.088.059-.204.053-.284-.022zm.325-.01l-.067-.081.04.061-.129-.163.042-.048.159-.124c.09.124.044.274-.046.355z"/></g><g fill="#206FAC" sketch:type="MSShapeGroup"><path d="M29.154 147.276h-1.589v-8.086l.023-.134v-2.728c0-.144-.07-.271-.176-.348l.013-.102c0-1.223-.981-2.245-2.277-2.471l-.115-.073v-1.326c0-.122-.05-.231-.129-.309l.004-.038c0-1.124-1.017-2.038-2.267-2.038-.699 0-1.325.286-1.741.735-.447-1.775-2.262-3.137-4.484-3.287v-.656h.07c.227 0 .411-.191.411-.426s-.184-.426-.411-.426h-.07v-.129c0-.235-.184-.425-.411-.425-.227 0-.411.19-.411.425v.129h-.07c-.227 0-.411.19-.411.426 0 .235.184.426.411.426h.07v.656c-2.255.153-4.09 1.554-4.502 3.368-.414-.495-1.072-.816-1.813-.816-1.25 0-2.267.914-2.267 2.038l.022.132c-.036.063-.058.136-.058.214v1.326l-.08.047c-1.385.159-2.459 1.218-2.459 2.497l.044.187c-.055.073-.09.163-.09.263v2.728l.001.011v8.208h-1.537c-.453 0-.821.381-.821.851s.368.851.821.851h26.296c.454 0 .821-.381.821-.851s-.368-.851-.821-.851zm-23.893-11.397c0-.704.526-1.307 1.267-1.551v1.576h-1.269l.002-.025zm2.58-4.297c.05-.617.676-1.108 1.441-1.108s1.391.49 1.441 1.108l.005.079h-2.891l.005-.079zm14.801-1.108c.765 0 1.391.49 1.441 1.108l.005.079h-2.891l.005-.079c.05-.617.676-1.108 1.441-1.108zm3.963 5.404l.002.025h-1.123v-1.522c.663.272 1.12.841 1.12 1.497zm-18.804-2.472v-.974h3.071v1.25h-1.305v-.623c-.01-.22-.185-.395-.399-.395-.215 0-.39.175-.399.395v.623h-.968v-.276zm17.684 3.347h1.283v1.761h-1.283v-1.761zm-11.403 10.521v-1.546c.011-.169.147-.3.311-.3.08 0 .152.031.207.082v2.092h-.519v-.328zm3.849 0v.328h-.519v-2.092c.055-.051.128-.082.207-.082.165 0 .3.131.311.3v1.546zm-1.34-2.018v2.346h-1.169v-2.75c.019-.32.274-.57.585-.57.311 0 .566.25.585.57v.404zm-3.656-5.462h2.688l-2.688 1.348v-1.348zm6.143 0v1.358l-2.803-1.358h2.803zm0-1.28v.429h-6.143v-1.601h6.143v1.173zm-7.109.46h-1.849c.032-.078.083-.151.149-.216.112-.11.267-.196.446-.245.103-.028.214-.044.33-.044.115 0 .226.016.33.044.285.077.51.249.595.46zm-1.913.851h2.058v7.449h-2.058v-7.449zm9.844 1.995v-1.995h2.058v7.449h-2.058v-5.454zm1.815-3.052c.061.062.108.132.138.206h-1.849c.085-.211.31-.383.595-.46.103-.028.214-.044.33-.044.115 0 .226.016.33.044.184.05.344.14.456.254zm-8.663-2.278l.002-.018c0-.587.282-1.123.745-1.53.187-.165.403-.308.643-.426.454-.223.99-.352 1.565-.352.574 0 1.111.129 1.565.352.24.118.456.261.643.426.463.408.745.944.745 1.53l.002.018h-5.91zm11.161-3.107v.298h-1.171v-.623c-.01-.22-.185-.395-.399-.395-.215 0-.39.175-.4.395v.623h-1.101v-1.25h3.071v.952zm-18.997 3.369h1.313v1.761h-1.313v-1.761zm2.955 2.728v-4.538h4.536c-.302.454-.474.975-.474 1.53l.021.127c-.085.078-.139.19-.139.317v1.012c-.298-.194-.669-.309-1.07-.309-.278 0-.541.055-.776.154-.15.063-.288.143-.41.238-.169.13-.309.288-.411.464l-.022.039-.056.115c-.057.134-.093.277-.104.426l-.005.105.007.073-.03.133-.003.035v7.874h-1.064v-7.794zm10.908 8.219h-.326v-2.004c-.028-.628-.525-1.119-1.132-1.119l-.235.026c-.129-.672-.697-1.171-1.378-1.171-.681 0-1.249.5-1.378 1.171l-.235-.026c-.607 0-1.104.492-1.132 1.119v2.004h-.326v-5.612l3.014-1.512 3.129 1.516v5.608zm3.701-.426v-7.874l-.003-.035-.064-.198.001-.007-.005-.105c-.012-.149-.047-.291-.104-.426l-.056-.115-.012-.022c-.101-.18-.241-.341-.411-.474-.123-.096-.261-.177-.411-.241-.237-.101-.504-.158-.786-.158-.383 0-.738.105-1.029.284v-.986c0-.126-.054-.239-.139-.317l.021-.127c0-.555-.172-1.077-.474-1.53h4.536v12.332h-1.064zm-11.072-15.639h8.599v1.606h-8.599v-1.606zm13.778 7.846h1.26v7.794h-1.26v-7.794zm-9.478-11.575c2.122 0 3.879 1.257 4.144 2.879h-8.287c.265-1.622 2.022-2.879 4.144-2.879zm-10.79 11.575h1.312v7.794h-1.312v-7.794zM20.929 140.631c-.21 0-.382.172-.392.387v1.254h.783v-1.254c-.01-.216-.181-.387-.392-.387M11.068 140.631c-.21 0-.382.172-.392.387v1.254h.783v-1.254c-.01-.216-.181-.387-.392-.387"/><path d="M16.451 142.063l-.053-.061c-.106-.1-.252-.158-.399-.158-.115 0-.226.034-.32.099l-.034.026c-.087.074-.146.172-.176.279-.05.175-.022.374.091.53l.033.041c.108.116.26.182.418.182.125 0 .244-.042.34-.12.112-.085.186-.209.21-.353.015-.093.008-.189-.02-.28l-.091-.185zm-.699.32l.06-.135.044-.046.155-.053c.083 0 .139.042.172.078l-.021.021-.167.167-.091-.116.079.125-.191.148c-.038-.052-.052-.119-.04-.188zm.094.249l.157-.179.127.201c-.088.059-.204.053-.284-.022zm.325-.01l-.067-.081.04.061-.129-.163.042-.048.159-.124c.09.124.044.274-.046.355z"/></g></g></svg>