<svg width="32" height="232" viewBox="0 0 32 232" xmlns="http://www.w3.org/2000/svg" xmlns:sketch="http://www.bohemiancoding.com/sketch/ns"><title>Singapore</title><g sketch:type="MSLayerGroup" fill="none"><path d="M4.394 6.066c.21.194.478.3.756.3h3.393l-.014.163c0 .296.122.579.335.775.181.167.412.259.652.259h3.507c.544 0 .986-.464.986-1.034 0-.57-.442-1.034-.986-1.034h-.184c.029-.105.045-.215.045-.329 0-.662-.513-1.2-1.144-1.2h-6.589c-.278 0-.546.107-.756.3-.247.228-.388.556-.388.9s.142.672.388.9zm.549-1.146c.041-.038.11-.083.207-.083h6.589c.173 0 .314.148.314.329 0 .181-.141.329-.314.329-.229 0-.415.195-.415.436h-.002c0 .241.186.436.415.436h1.285c.086 0 .156.073.156.163 0 .09-.07.163-.156.163h-3.507l-.102-.041-.053-.122.054-.122.102-.041h.002c.229 0 .415-.195.415-.436s-.186-.436-.415-.436h-4.368c-.097 0-.166-.045-.207-.083-.069-.064-.107-.151-.107-.246s.038-.183.107-.246z" id="Fill-1" fill="#fff" sketch:type="MSShapeGroup"/><path d="M19.083 12.273c-.217-.076-.453.046-.526.275l-.149.516c-.059.232.072.471.293.534l.108.015c.183 0 .351-.128.401-.323l.134-.466c.073-.228-.044-.475-.262-.551" id="Fill-2" fill="#fff" sketch:type="MSShapeGroup"/><path d="M28.41 15.1c-.229 0-.415.199-.415.44l-.006.309.006-.309c0-3.455-1.896-6.288-4.276-6.478l.177.017.052.003c.206 0 .385-.161.412-.381.029-.239-.133-.457-.36-.486-.176-.023-.356-.035-.534-.035h-.005c-.229 0-.413.195-.413.436s.188.436.418.436c-2.412 0-4.39 2.714-4.523 6.122l.005-.12c.012-.24-.164-.445-.393-.458-.23-.013-.425.172-.437.412l-.014.533v.003c0 .241.186.434.415.434.229 0 .415-.197.415-.437l.006-.309-.005.309c0 2.984 1.414 5.502 3.332 6.257l-.08 2.03h-3.252v-2.749c0-.241-.186-.436-.415-.436h-1.208l.156-3.021v-4.851l.048-.049 1.094-1.353c.104-.129.128-.311.06-.465-.068-.154-.215-.252-.377-.252h-1.566v-3.317c0-.241-.186-.436-.415-.436-.229 0-.415.195-.415.436v3.317h-.316v-1.907c0-.241-.186-.436-.415-.436-.229 0-.415.195-.415.436v1.907h-7.778v-1.907c0-.241-.186-.436-.415-.436-.229 0-.415.195-.415.436v1.907h-2.703c-.133 0-.258.067-.336.179-.078.113-.1.258-.059.391l.419 1.353c.055.18.215.301.395.301h1.283v4.669l-.322 6.284h-.662c-.459 0-.831.39-.831.871s.372.871.831.871h23.653c.459 0 .831-.39.831-.871s-.372-.871-.831-.871h-2.85l-.101-1.553c.078.125.21.196.347.196l.183-.045c.158-.082.315-.175.466-.277.193-.13.249-.4.124-.602-.124-.202-.381-.261-.574-.13-.125.084-.254.161-.384.228-.088.045-.152.12-.19.205l-.008-.118c1.76-.793 3.06-3.085 3.166-5.826l-.004.116c-.012.24.164.445.393.458l.022.001c.219 0 .403-.18.415-.412l.013-.528v-.008c0-.241-.186-.431-.415-.431zm-11.016-3.579l-.39.482h-12.847l-.149-.482h13.386zm-11.441 6.349l.015-.292.001-.024v-.01h1.736v.041l-.015.284h-1.736zm.015-2.717h1.736v.325h-1.736v-.325zm0 1.196h1.736v.325h-1.736v-.325zm1.598 3.913h-1.736l.017-.325h1.736l-.017.325zm-1.78.871h1.736l-.017.325h-1.735l.017-.325zm-.061 1.196h1.735l-.017.325h-1.735l.017-.325zm.244-9.448h1.736v.205h-1.736v-.205zm0 1.076h1.736v.325h-1.736v-.325zm1.659 5.109h-1.736l.017-.325h1.736l-.016.305-.001.02zm.906-1.444l.001-.023v-4.724h1.069v4.669l-.055 1.067h-1.066l.051-.989zm6.365-1.273h1.736v.325h-1.736v-.325zm1.536 5.109h-1.735l.017-.325h1.736l-.017.325zm-1.536-6.305h1.736v.325h-1.736v-.325zm-.001 2.425l.001-.024v-.01h1.736v.041l-.015.284h-1.737l.015-.292zm-.06 1.163h1.736l-.017.325h-1.736l.017-.325zm1.347 1.196h.327l-.017.325h-1.736l.017-.325h1.408zm-1.287-5.98h1.736v.325h-1.736v-.325zm0-1.076h1.736v.205h-1.736v-.205zm-.261 9.773l.017-.325h1.735l-.017.325h-1.735zm-2.469-8.372l-.004-.001h-1.732v-.325h1.736v.325zm0 1.196h-1.736v-.325h1.736v.326zm0 1.196l-.004-.001h-1.732v-.325h1.736v.326zm-.2 4.784h-1.735l.017-.325h1.735l-.017.325zm.062-1.196h-1.736l.017-.325h1.736l-.017.325zm.062-1.196h-1.736l.017-.325h1.736l-.017.325zm-1.659-6.185h1.736v.205h-1.736v-.205zm-.261 9.773l.017-.325h1.735l-.017.325h-1.735zm1.996-5.068l-.015.284h-1.736l.015-.292.001-.024v-.01h1.736v.042zm-2.056 6.241l.015-.302h1.735l-.016.302h-1.735zm2.887-10.952h1.069v4.225h-1.069v-4.225zm1.579 10.952l.015-.302h1.735l-.006.12-.009.182h-1.735zm-8.916-.302h1.735l-.015.302h-1.735l.016-.302zm11.601-2.011h.837v2.313h-.957l.119-2.313zm-8.856-1.461l.029-.571h1.066l-.223 4.345h-1.067l.195-3.774zm4.364 1.981l.209-4.063h1.065l-.3 5.856h-1.067l.093-1.793zm10.554-6.058h.286l.335 5.133c-.158.032-.319.049-.483.049l-.341-.025.203-5.157zm-.172 6.036l-.066-.006v-.001l.066.007zm.97 1.815h-1.108l.037-.949.41.023h.01c.229 0 .416-.195.416-.436s-.186-.435-.415-.435h-.01c.183 0 .363-.017.54-.048l.12 1.846zm.635-3.025l-.346-5.291c-.015-.228-.196-.406-.414-.406h-.836l-.117.02-.101-.019c-.231-.01-.423.177-.432.417l-.211 5.35c-1.472-.742-2.538-2.851-2.538-5.332 0-3.097 1.66-5.618 3.7-5.618s3.7 2.52 3.7 5.618c0 2.405-1.001 4.462-2.404 5.261z" id="Fill-3" fill="#fff" sketch:type="MSShapeGroup"/><path d="M27.715 13.28l.108.473c.041.206.213.347.406.347l.085-.009c.225-.049.369-.279.322-.515l-.119-.523c-.06-.232-.288-.37-.509-.307-.221.063-.352.302-.293.534" id="Fill-4" fill="#fff" sketch:type="MSShapeGroup"/><path d="M19.496 11.359c.07.048.148.07.226.07.136 0 .269-.07.349-.199l.145-.224.118-.167c.139-.191.105-.464-.077-.611-.182-.146-.443-.11-.582.081l-.135.191-.166.255c-.125.202-.07.471.122.602" id="Fill-5" fill="#fff" sketch:type="MSShapeGroup"/><path d="M21.547 8.653c-.158.081-.315.175-.466.276-.193.13-.249.399-.125.602.079.13.213.2.35.2.077 0 .155-.022.224-.069.125-.084.254-.161.384-.228.206-.106.291-.367.189-.583-.101-.216-.35-.305-.556-.199" id="Fill-6" fill="#fff" sketch:type="MSShapeGroup"/><path d="M27.088 11.635c.076.144.218.225.364.225.068 0 .137-.018.2-.054.201-.116.274-.381.163-.592l-.267-.467c-.125-.202-.382-.258-.575-.127-.192.131-.247.401-.121.603l.236.412" id="Fill-7" fill="#fff" sketch:type="MSShapeGroup"/><path d="M25.391 9.658l.361.272c.077.064.168.095.259.095.122 0 .243-.056.325-.164.143-.188.114-.462-.065-.612-.14-.117-.286-.227-.433-.325-.193-.129-.45-.07-.574.133-.123.203-.067.472.126.602" id="Fill-8" fill="#fff" sketch:type="MSShapeGroup"/><path d="M19.105 17.323c-.046-.235-.266-.387-.491-.338-.225.049-.369.279-.323.515l.119.524c.05.194.218.322.401.322l.108-.015c.221-.063.353-.302.293-.534l-.107-.473" id="Fill-9" fill="#fff" sketch:type="MSShapeGroup"/><path d="M19.11 19.861l.267.467c.08.128.213.198.349.198.078 0 .156-.023.226-.07.192-.131.247-.401.122-.603l-.235-.412c-.111-.211-.363-.288-.564-.172-.201.116-.274.381-.164.592" id="Fill-10" fill="#fff" sketch:type="MSShapeGroup"/><path d="M21.085 22.154c.069.047.147.069.224.069.137 0 .271-.071.35-.201.124-.203.068-.472-.126-.602l-.361-.272c-.179-.15-.44-.12-.584.068-.143.188-.115.462.064.612.14.117.285.227.433.326" id="Fill-11" fill="#fff" sketch:type="MSShapeGroup"/><path d="M27.434 19.717c-.193-.131-.45-.073-.574.129l-.148.228-.115.163c-.139.191-.105.464.077.611.075.061.164.09.252.09.125 0 .248-.059.33-.171l.131-.187.169-.26c.125-.202.07-.472-.123-.602" id="Fill-12" fill="#fff" sketch:type="MSShapeGroup"/><path d="M27.847 18.803l.132.023c.174 0 .336-.115.394-.297l.148-.517c.059-.232-.072-.471-.294-.533-.222-.063-.449.076-.509.308l-.134.466c-.073.228.044.475.262.551" id="Fill-13" fill="#fff" sketch:type="MSShapeGroup"/><path d="M27.125 26.642c-.231 0-.328-.054-.475-.137-.19-.107-.427-.24-.867-.24-.439 0-.676.133-.866.24-.147.082-.243.137-.475.137-.231 0-.328-.054-.475-.137-.19-.107-.427-.24-.866-.24s-.676.133-.866.24c-.147.082-.243.137-.474.137-.231 0-.328-.054-.474-.136-.19-.107-.427-.24-.866-.24s-.676.133-.866.24c-.147.082-.243.137-.474.137-.231 0-.328-.054-.474-.137-.19-.107-.427-.24-.866-.24s-.676.133-.866.24c-.147.082-.243.137-.474.137-.231 0-.328-.054-.474-.137-.19-.107-.427-.24-.866-.24s-.676.133-.866.24c-.147.082-.243.137-.474.137-.231 0-.328-.054-.474-.137-.19-.107-.427-.24-.866-.24s-.676.133-.866.24c-.146.082-.243.137-.474.137-.231 0-.328-.054-.474-.137-.19-.107-.427-.24-.866-.24s-.676.133-.866.24c-.147.082-.243.137-.474.137-.231 0-.328-.054-.474-.137-.19-.107-.427-.24-.866-.24s-.676.133-.866.24c-.146.082-.243.137-.474.137-.231 0-.328-.054-.474-.137-.19-.107-.427-.24-.866-.24-.229 0-.415.195-.415.436s.186.436.415.436c.231 0 .328.054.474.137.19.107.427.24.866.24s.676-.133.866-.24c.147-.082.243-.137.474-.137.231 0 .328.054.474.137.19.107.427.24.866.24s.676-.133.866-.24c.147-.082.243-.137.474-.137.231 0 .328.054.474.137.19.107.427.24.866.24s.676-.133.866-.24c.146-.082.243-.137.474-.137.231 0 .328.054.474.137.19.107.427.24.866.24s.676-.133.866-.24c.147-.082.243-.137.474-.137.231 0 .328.054.474.137.19.107.427.24.866.24s.676-.133.866-.24c.146-.082.243-.137.474-.137.231 0 .328.054.474.137.19.107.427.24.866.24s.676-.133.866-.24c.147-.082.243-.137.474-.137.231 0 .328.054.474.137.19.107.427.24.866.24s.676-.133.866-.24c.147-.082.243-.137.474-.137.231 0 .328.054.474.137.19.107.427.24.867.24.439 0 .676-.133.866-.24.147-.082.243-.137.475-.137.231 0 .328.054.475.137.19.107.427.24.867.24.229 0 .415-.195.415-.436s-.186-.436-.415-.436" id="Fill-14" fill="#fff" sketch:type="MSShapeGroup"/><path d="M24.113 28.036c-.199 0-.278-.043-.409-.114-.165-.09-.39-.212-.792-.212s-.627.123-.792.212c-.131.071-.21.114-.41.114-.199 0-.278-.043-.409-.114-.165-.09-.39-.212-.792-.212-.401 0-.627.123-.792.212-.131.071-.21.114-.409.114-.199 0-.278-.043-.409-.114-.165-.09-.39-.212-.792-.212s-.627.123-.792.212c-.131.071-.21.114-.409.114-.229 0-.415.195-.415.436s.186.436.415.436c.402 0 .627-.123.792-.212.131-.071.21-.114.409-.114.199 0 .278.043.409.114.165.09.39.212.792.212.401 0 .627-.123.792-.212.131-.071.21-.114.409-.114.199 0 .278.043.41.114.165.089.39.212.792.212s.627-.123.792-.212c.131-.071.21-.114.41-.114.199 0 .278.043.409.114.165.09.39.212.792.212.229 0 .415-.195.415-.436s-.186-.436-.415-.436" id="Fill-15" fill="#fff" sketch:type="MSShapeGroup"/><path d="M18.091 6.789h2.319c.229 0 .415-.195.415-.436s-.186-.436-.415-.436h-2.319c-.229 0-.415.195-.415.436s.186.436.415.436" id="Fill-16" fill="#fff" sketch:type="MSShapeGroup"/><path d="M19.011 5.612h3.918c.229 0 .415-.195.415-.436s-.186-.436-.415-.436h-3.918c-.229 0-.415.195-.415.436s.186.436.415.436" id="Fill-17" fill="#fff" sketch:type="MSShapeGroup"/><path d="M4.394 46.066c.21.194.478.3.756.3h3.393l-.014.163c0 .296.122.579.335.775.181.167.412.259.652.259h3.507c.544 0 .986-.464.986-1.034 0-.57-.442-1.034-.986-1.034h-.184c.029-.105.045-.215.045-.329 0-.662-.513-1.2-1.144-1.2h-6.589c-.278 0-.546.107-.756.3-.247.228-.388.556-.388.9s.142.672.388.9zm.549-1.146c.041-.038.11-.083.207-.083h6.589c.173 0 .314.148.314.329 0 .181-.141.329-.314.329-.229 0-.415.195-.415.436h-.002c0 .241.186.436.415.436h1.285c.086 0 .156.073.156.163 0 .09-.07.163-.156.163h-3.507l-.102-.041-.053-.122.054-.122.102-.041h.002c.229 0 .415-.195.415-.436s-.186-.436-.415-.436h-4.368c-.097 0-.166-.045-.207-.083-.069-.064-.107-.151-.107-.246s.038-.183.107-.246z" id="Fill-1" fill="#373D43" sketch:type="MSShapeGroup"/><path d="M19.083 52.273c-.217-.076-.453.046-.526.275l-.149.516c-.059.232.072.471.293.534l.108.015c.183 0 .351-.128.401-.323l.134-.466c.073-.228-.044-.475-.262-.551" id="Fill-2" fill="#373D43" sketch:type="MSShapeGroup"/><path d="M28.41 55.1c-.229 0-.415.199-.415.44l-.006.309.006-.309c0-3.455-1.896-6.288-4.276-6.478l.177.017.052.003c.206 0 .385-.161.412-.381.029-.239-.133-.457-.36-.486-.176-.023-.356-.035-.534-.035h-.005c-.229 0-.413.195-.413.436s.188.436.418.436c-2.412 0-4.39 2.714-4.523 6.122l.005-.12c.012-.24-.164-.445-.393-.458-.23-.013-.425.172-.437.412l-.014.533v.003c0 .241.186.434.415.434.229 0 .415-.197.415-.437l.006-.309-.005.309c0 2.984 1.414 5.502 3.332 6.257l-.08 2.03h-3.252v-2.749c0-.241-.186-.436-.415-.436h-1.208l.156-3.021v-4.851l.048-.049 1.094-1.353c.104-.129.128-.311.06-.465-.068-.154-.215-.252-.377-.252h-1.566v-3.317c0-.241-.186-.436-.415-.436-.229 0-.415.195-.415.436v3.317h-.316v-1.907c0-.241-.186-.436-.415-.436-.229 0-.415.195-.415.436v1.907h-7.778v-1.907c0-.241-.186-.436-.415-.436-.229 0-.415.195-.415.436v1.907h-2.703c-.133 0-.258.067-.336.179-.078.113-.1.258-.059.391l.419 1.353c.055.18.215.301.395.301h1.283v4.669l-.322 6.284h-.662c-.459 0-.831.39-.831.871s.372.871.831.871h23.653c.459 0 .831-.39.831-.871s-.372-.871-.831-.871h-2.85l-.101-1.553c.078.125.21.196.347.196l.183-.045c.158-.082.315-.175.466-.277.193-.13.249-.4.124-.602-.124-.202-.381-.261-.574-.13-.125.084-.254.161-.384.228-.088.045-.152.12-.19.205l-.008-.118c1.76-.793 3.06-3.085 3.166-5.826l-.004.116c-.012.24.164.445.393.458l.022.001c.219 0 .403-.18.415-.412l.013-.528v-.008c0-.241-.186-.431-.415-.431zm-11.016-3.579l-.39.482h-12.847l-.149-.482h13.386zm-11.441 6.349l.015-.292.001-.024v-.01h1.736v.041l-.015.284h-1.736zm.015-2.717h1.736v.325h-1.736v-.325zm0 1.196h1.736v.325h-1.736v-.325zm1.598 3.913h-1.736l.017-.325h1.736l-.017.325zm-1.78.871h1.736l-.017.325h-1.735l.017-.325zm-.061 1.196h1.735l-.017.325h-1.735l.017-.325zm.244-9.448h1.736v.205h-1.736v-.205zm0 1.076h1.736v.325h-1.736v-.325zm1.659 5.109h-1.736l.017-.325h1.736l-.016.305-.001.02zm.906-1.444l.001-.023v-4.724h1.069v4.669l-.055 1.067h-1.066l.051-.989zm6.365-1.273h1.736v.325h-1.736v-.325zm1.536 5.109h-1.735l.017-.325h1.736l-.017.325zm-1.536-6.305h1.736v.325h-1.736v-.325zm-.001 2.425l.001-.024v-.01h1.736v.041l-.015.284h-1.737l.015-.292zm-.06 1.163h1.736l-.017.325h-1.736l.017-.325zm1.347 1.196h.327l-.017.325h-1.736l.017-.325h1.408zm-1.287-5.98h1.736v.325h-1.736v-.325zm0-1.076h1.736v.205h-1.736v-.205zm-.261 9.773l.017-.325h1.735l-.017.325h-1.735zm-2.469-8.372l-.004-.001h-1.732v-.325h1.736v.325zm0 1.196h-1.736v-.325h1.736v.326zm0 1.196l-.004-.001h-1.732v-.325h1.736v.326zm-.2 4.784h-1.735l.017-.325h1.735l-.017.325zm.062-1.196h-1.736l.017-.325h1.736l-.017.325zm.062-1.196h-1.736l.017-.325h1.736l-.017.325zm-1.659-6.185h1.736v.205h-1.736v-.205zm-.261 9.773l.017-.325h1.735l-.017.325h-1.735zm1.996-5.068l-.015.284h-1.736l.015-.292.001-.024v-.01h1.736v.042zm-2.056 6.241l.015-.302h1.735l-.016.302h-1.735zm2.887-10.952h1.069v4.225h-1.069v-4.225zm1.579 10.952l.015-.302h1.735l-.006.12-.009.182h-1.735zm-8.916-.302h1.735l-.015.302h-1.735l.016-.302zm11.601-2.011h.837v2.313h-.957l.119-2.313zm-8.856-1.461l.029-.571h1.066l-.223 4.345h-1.067l.195-3.774zm4.364 1.981l.209-4.063h1.065l-.3 5.856h-1.067l.093-1.793zm10.554-6.058h.286l.335 5.133c-.158.032-.319.049-.483.049l-.341-.025.203-5.157zm-.172 6.036l-.066-.006v-.001l.066.007zm.97 1.815h-1.108l.037-.949.41.023h.01c.229 0 .416-.195.416-.436s-.186-.435-.415-.435h-.01c.183 0 .363-.017.54-.048l.12 1.846zm.635-3.025l-.346-5.291c-.015-.228-.196-.406-.414-.406h-.836l-.117.02-.101-.019c-.231-.01-.423.177-.432.417l-.211 5.35c-1.472-.742-2.538-2.851-2.538-5.332 0-3.097 1.66-5.618 3.7-5.618s3.7 2.52 3.7 5.618c0 2.405-1.001 4.462-2.404 5.261z" id="Fill-3" fill="#373D43" sketch:type="MSShapeGroup"/><path d="M27.715 53.28l.108.473c.041.206.213.347.406.347l.085-.009c.225-.049.369-.279.322-.515l-.119-.523c-.06-.232-.288-.37-.509-.307-.221.063-.352.302-.293.534" id="Fill-4" fill="#373D43" sketch:type="MSShapeGroup"/><path d="M19.496 51.359c.07.048.148.07.226.07.136 0 .269-.07.349-.199l.145-.224.118-.167c.139-.191.105-.464-.077-.611-.182-.146-.443-.11-.582.081l-.135.191-.166.255c-.125.202-.07.471.122.602" id="Fill-5" fill="#373D43" sketch:type="MSShapeGroup"/><path d="M21.547 48.653c-.158.081-.315.175-.466.276-.193.13-.249.399-.125.602.079.13.213.2.35.2.077 0 .155-.022.224-.069.125-.084.254-.161.384-.228.206-.106.291-.367.189-.583-.101-.216-.35-.305-.556-.199" id="Fill-6" fill="#373D43" sketch:type="MSShapeGroup"/><path d="M27.088 51.635c.076.144.218.225.364.225.068 0 .137-.018.2-.054.201-.116.274-.381.163-.592l-.267-.467c-.125-.202-.382-.258-.575-.127-.192.131-.247.401-.121.603l.236.412" id="Fill-7" fill="#373D43" sketch:type="MSShapeGroup"/><path d="M25.391 49.658l.361.272c.077.064.168.095.259.095.122 0 .243-.056.325-.164.143-.188.114-.462-.065-.612-.14-.117-.286-.227-.433-.325-.193-.129-.45-.07-.574.133-.123.203-.067.472.126.602" id="Fill-8" fill="#373D43" sketch:type="MSShapeGroup"/><path d="M19.105 57.323c-.046-.235-.266-.387-.491-.338-.225.049-.369.279-.323.515l.119.524c.05.194.218.322.401.322l.108-.015c.221-.063.353-.302.293-.534l-.107-.473" id="Fill-9" fill="#373D43" sketch:type="MSShapeGroup"/><path d="M19.11 59.861l.267.467c.08.128.213.198.349.198.078 0 .156-.023.226-.07.192-.131.247-.401.122-.603l-.235-.412c-.111-.211-.363-.288-.564-.172-.201.116-.274.381-.164.592" id="Fill-10" fill="#373D43" sketch:type="MSShapeGroup"/><path d="M21.085 62.154c.069.047.147.069.224.069.137 0 .271-.071.35-.201.124-.203.068-.472-.126-.602l-.361-.272c-.179-.15-.44-.12-.584.068-.143.188-.115.462.064.612.14.117.285.227.433.326" id="Fill-11" fill="#373D43" sketch:type="MSShapeGroup"/><path d="M27.434 59.717c-.193-.131-.45-.073-.574.129l-.148.228-.115.163c-.139.191-.105.464.077.611.075.061.164.09.252.09.125 0 .248-.059.33-.171l.131-.187.169-.26c.125-.202.07-.472-.123-.602" id="Fill-12" fill="#373D43" sketch:type="MSShapeGroup"/><path d="M27.847 58.803l.132.023c.174 0 .336-.115.394-.297l.148-.517c.059-.232-.072-.471-.294-.533-.222-.063-.449.076-.509.308l-.134.466c-.073.228.044.475.262.551" id="Fill-13" fill="#373D43" sketch:type="MSShapeGroup"/><path d="M27.125 66.642c-.231 0-.328-.054-.475-.137-.19-.107-.427-.24-.867-.24-.439 0-.676.133-.866.24-.147.082-.243.137-.475.137-.231 0-.328-.054-.475-.137-.19-.107-.427-.24-.866-.24s-.676.133-.866.24c-.147.082-.243.137-.474.137-.231 0-.328-.054-.474-.136-.19-.107-.427-.24-.866-.24s-.676.133-.866.24c-.147.082-.243.137-.474.137-.231 0-.328-.054-.474-.137-.19-.107-.427-.24-.866-.24s-.676.133-.866.24c-.147.082-.243.137-.474.137-.231 0-.328-.054-.474-.137-.19-.107-.427-.24-.866-.24s-.676.133-.866.24c-.147.082-.243.137-.474.137-.231 0-.328-.054-.474-.137-.19-.107-.427-.24-.866-.24s-.676.133-.866.24c-.146.082-.243.137-.474.137-.231 0-.328-.054-.474-.137-.19-.107-.427-.24-.866-.24s-.676.133-.866.24c-.147.082-.243.137-.474.137-.231 0-.328-.054-.474-.137-.19-.107-.427-.24-.866-.24s-.676.133-.866.24c-.146.082-.243.137-.474.137-.231 0-.328-.054-.474-.137-.19-.107-.427-.24-.866-.24-.229 0-.415.195-.415.436s.186.436.415.436c.231 0 .328.054.474.137.19.107.427.24.866.24s.676-.133.866-.24c.147-.082.243-.137.474-.137.231 0 .328.054.474.137.19.107.427.24.866.24s.676-.133.866-.24c.147-.082.243-.137.474-.137.231 0 .328.054.474.137.19.107.427.24.866.24s.676-.133.866-.24c.146-.082.243-.137.474-.137.231 0 .328.054.474.137.19.107.427.24.866.24s.676-.133.866-.24c.147-.082.243-.137.474-.137.231 0 .328.054.474.137.19.107.427.24.866.24s.676-.133.866-.24c.146-.082.243-.137.474-.137.231 0 .328.054.474.137.19.107.427.24.866.24s.676-.133.866-.24c.147-.082.243-.137.474-.137.231 0 .328.054.474.137.19.107.427.24.866.24s.676-.133.866-.24c.147-.082.243-.137.474-.137.231 0 .328.054.474.137.19.107.427.24.867.24.439 0 .676-.133.866-.24.147-.082.243-.137.475-.137.231 0 .328.054.475.137.19.107.427.24.867.24.229 0 .415-.195.415-.436s-.186-.436-.415-.436" id="Fill-14" fill="#373D43" sketch:type="MSShapeGroup"/><path d="M24.113 68.036c-.199 0-.278-.043-.409-.114-.165-.09-.39-.212-.792-.212s-.627.123-.792.212c-.131.071-.21.114-.41.114-.199 0-.278-.043-.409-.114-.165-.09-.39-.212-.792-.212-.401 0-.627.123-.792.212-.131.071-.21.114-.409.114-.199 0-.278-.043-.409-.114-.165-.09-.39-.212-.792-.212s-.627.123-.792.212c-.131.071-.21.114-.409.114-.229 0-.415.195-.415.436s.186.436.415.436c.402 0 .627-.123.792-.212.131-.071.21-.114.409-.114.199 0 .278.043.409.114.165.09.39.212.792.212.401 0 .627-.123.792-.212.131-.071.21-.114.409-.114.199 0 .278.043.41.114.165.089.39.212.792.212s.627-.123.792-.212c.131-.071.21-.114.41-.114.199 0 .278.043.409.114.165.09.39.212.792.212.229 0 .415-.195.415-.436s-.186-.436-.415-.436" id="Fill-15" fill="#373D43" sketch:type="MSShapeGroup"/><path d="M18.091 46.789h2.319c.229 0 .415-.195.415-.436s-.186-.436-.415-.436h-2.319c-.229 0-.415.195-.415.436s.186.436.415.436" id="Fill-16" fill="#373D43" sketch:type="MSShapeGroup"/><path d="M19.011 45.612h3.918c.229 0 .415-.195.415-.436s-.186-.436-.415-.436h-3.918c-.229 0-.415.195-.415.436s.186.436.415.436" id="Fill-17" fill="#373D43" sketch:type="MSShapeGroup"/><path d="M4.394 86.066c.21.194.478.3.756.3h3.393l-.014.163c0 .296.122.579.335.775.181.167.412.259.652.259h3.507c.544 0 .986-.464.986-1.034 0-.57-.442-1.034-.986-1.034h-.184c.029-.105.045-.215.045-.329 0-.662-.513-1.2-1.144-1.2h-6.589c-.278 0-.546.107-.756.3-.247.228-.388.556-.388.9s.142.672.388.9zm.549-1.146c.041-.038.11-.083.207-.083h6.589c.173 0 .314.148.314.329 0 .181-.141.329-.314.329-.229 0-.415.195-.415.436h-.002c0 .241.186.436.415.436h1.285c.086 0 .156.073.156.163 0 .09-.07.163-.156.163h-3.507l-.102-.041-.053-.122.054-.122.102-.041h.002c.229 0 .415-.195.415-.436s-.186-.436-.415-.436h-4.368c-.097 0-.166-.045-.207-.083-.069-.064-.107-.151-.107-.246s.038-.183.107-.246z" fill="#67737B" sketch:type="MSShapeGroup"/><path d="M19.083 92.273c-.217-.076-.453.046-.526.275l-.149.516c-.059.232.072.471.293.534l.108.015c.183 0 .351-.128.401-.323l.134-.466c.073-.228-.044-.475-.262-.551" fill="#67737B" sketch:type="MSShapeGroup"/><path d="M28.41 95.1c-.229 0-.415.199-.415.44l-.006.309.006-.309c0-3.455-1.896-6.288-4.276-6.478l.177.017.052.003c.206 0 .385-.161.412-.381.029-.239-.133-.457-.36-.486-.176-.023-.356-.035-.534-.035h-.005c-.229 0-.413.195-.413.436s.188.436.418.436c-2.412 0-4.39 2.714-4.523 6.122l.005-.12c.012-.24-.164-.445-.393-.458-.23-.013-.425.172-.437.412l-.014.533v.003c0 .241.186.434.415.434.229 0 .415-.197.415-.437l.006-.309-.005.309c0 2.984 1.414 5.502 3.332 6.257l-.08 2.03h-3.252v-2.749c0-.241-.186-.436-.415-.436h-1.208l.156-3.021v-4.851l.048-.049 1.094-1.353c.104-.129.128-.311.06-.465-.068-.154-.215-.252-.377-.252h-1.566v-3.317c0-.241-.186-.436-.415-.436-.229 0-.415.195-.415.436v3.317h-.316v-1.907c0-.241-.186-.436-.415-.436-.229 0-.415.195-.415.436v1.907h-7.778v-1.907c0-.241-.186-.436-.415-.436-.229 0-.415.195-.415.436v1.907h-2.703c-.133 0-.258.067-.336.179-.078.113-.1.258-.059.391l.419 1.353c.055.18.215.301.395.301h1.283v4.669l-.322 6.284h-.662c-.459 0-.831.39-.831.871s.372.871.831.871h23.653c.459 0 .831-.39.831-.871s-.372-.871-.831-.871h-2.85l-.101-1.553c.078.125.21.196.347.196l.183-.045c.158-.082.315-.175.466-.277.193-.13.249-.4.124-.602-.124-.202-.381-.261-.574-.13-.125.084-.254.161-.384.228-.088.045-.152.12-.19.205l-.008-.118c1.76-.793 3.06-3.085 3.166-5.826l-.004.116c-.012.24.164.445.393.458l.022.001c.219 0 .403-.18.415-.412l.013-.528v-.008c0-.241-.186-.431-.415-.431zm-11.016-3.579l-.39.482h-12.847l-.149-.482h13.386zm-11.441 6.349l.015-.292.001-.024v-.01h1.736v.041l-.015.284h-1.736zm.015-2.717h1.736v.325h-1.736v-.325zm0 1.196h1.736v.325h-1.736v-.325zm1.598 3.913h-1.736l.017-.325h1.736l-.017.325zm-1.78.871h1.736l-.017.325h-1.735l.017-.325zm-.061 1.196h1.735l-.017.325h-1.735l.017-.325zm.244-9.448h1.736v.205h-1.736v-.205zm0 1.076h1.736v.325h-1.736v-.325zm1.659 5.109h-1.736l.017-.325h1.736l-.016.305-.001.02zm.906-1.444l.001-.023v-4.724h1.069v4.669l-.055 1.067h-1.066l.051-.989zm6.365-1.273h1.736v.325h-1.736v-.325zm1.536 5.109h-1.735l.017-.325h1.736l-.017.325zm-1.536-6.305h1.736v.325h-1.736v-.325zm-.001 2.425l.001-.024v-.01h1.736v.041l-.015.284h-1.737l.015-.292zm-.06 1.163h1.736l-.017.325h-1.736l.017-.325zm1.347 1.196h.327l-.017.325h-1.736l.017-.325h1.408zm-1.287-5.98h1.736v.325h-1.736v-.325zm0-1.076h1.736v.205h-1.736v-.205zm-.261 9.773l.017-.325h1.735l-.017.325h-1.735zm-2.469-8.372l-.004-.001h-1.732v-.325h1.736v.325zm0 1.196h-1.736v-.325h1.736v.326zm0 1.196l-.004-.001h-1.732v-.325h1.736v.326zm-.2 4.784h-1.735l.017-.325h1.735l-.017.325zm.062-1.196h-1.736l.017-.325h1.736l-.017.325zm.062-1.196h-1.736l.017-.325h1.736l-.017.325zm-1.659-6.185h1.736v.205h-1.736v-.205zm-.261 9.773l.017-.325h1.735l-.017.325h-1.735zm1.996-5.068l-.015.284h-1.736l.015-.292.001-.024v-.01h1.736v.042zm-2.056 6.241l.015-.302h1.735l-.016.302h-1.735zm2.887-10.952h1.069v4.225h-1.069v-4.225zm1.579 10.952l.015-.302h1.735l-.006.12-.009.182h-1.735zm-8.916-.302h1.735l-.015.302h-1.735l.016-.302zm11.601-2.011h.837v2.313h-.957l.119-2.313zm-8.856-1.461l.029-.571h1.066l-.223 4.345h-1.067l.195-3.774zm4.364 1.981l.209-4.063h1.065l-.3 5.856h-1.067l.093-1.793zm10.554-6.058h.286l.335 5.133c-.158.032-.319.049-.483.049l-.341-.025.203-5.157zm-.172 6.036l-.066-.006v-.001l.066.007zm.97 1.815h-1.108l.037-.949.41.023h.01c.229 0 .416-.195.416-.436s-.186-.435-.415-.435h-.01c.183 0 .363-.017.54-.048l.12 1.846zm.635-3.025l-.346-5.291c-.015-.228-.196-.406-.414-.406h-.836l-.117.02-.101-.019c-.231-.01-.423.177-.432.417l-.211 5.35c-1.472-.742-2.538-2.851-2.538-5.332 0-3.097 1.66-5.618 3.7-5.618s3.7 2.52 3.7 5.618c0 2.405-1.001 4.462-2.404 5.261z" fill="#67737B" sketch:type="MSShapeGroup"/><path d="M27.715 93.28l.108.473c.041.206.213.347.406.347l.085-.009c.225-.049.369-.279.322-.515l-.119-.523c-.06-.232-.288-.37-.509-.307-.221.063-.352.302-.293.534" fill="#67737B" sketch:type="MSShapeGroup"/><path d="M19.496 91.359c.07.048.148.07.226.07.136 0 .269-.07.349-.199l.145-.224.118-.167c.139-.191.105-.464-.077-.611-.182-.146-.443-.11-.582.081l-.135.191-.166.255c-.125.202-.07.471.122.602" fill="#67737B" sketch:type="MSShapeGroup"/><path d="M21.547 88.653c-.158.081-.315.175-.466.276-.193.13-.249.399-.125.602.079.13.213.2.35.2.077 0 .155-.022.224-.069.125-.084.254-.161.384-.228.206-.106.291-.367.189-.583-.101-.216-.35-.305-.556-.199" fill="#67737B" sketch:type="MSShapeGroup"/><path d="M27.088 91.635c.076.144.218.225.364.225.068 0 .137-.018.2-.054.201-.116.274-.381.163-.592l-.267-.467c-.125-.202-.382-.258-.575-.127-.192.131-.247.401-.121.603l.236.412" fill="#67737B" sketch:type="MSShapeGroup"/><path d="M25.391 89.658l.361.272c.077.064.168.095.259.095.122 0 .243-.056.325-.164.143-.188.114-.462-.065-.612-.14-.117-.286-.227-.433-.325-.193-.129-.45-.07-.574.133-.123.203-.067.472.126.602" fill="#67737B" sketch:type="MSShapeGroup"/><path d="M19.105 97.323c-.046-.235-.266-.387-.491-.338-.225.049-.369.279-.323.515l.119.524c.05.194.218.322.401.322l.108-.015c.221-.063.353-.302.293-.534l-.107-.473" fill="#67737B" sketch:type="MSShapeGroup"/><path d="M19.11 99.861l.267.467c.08.128.213.198.349.198.078 0 .156-.023.226-.07.192-.131.247-.401.122-.603l-.235-.412c-.111-.211-.363-.288-.564-.172-.201.116-.274.381-.164.592" fill="#67737B" sketch:type="MSShapeGroup"/><path d="M21.085 102.154c.069.047.147.069.224.069.137 0 .271-.071.35-.201.124-.203.068-.472-.126-.602l-.361-.272c-.179-.15-.44-.12-.584.068-.143.188-.115.462.064.612.14.117.285.227.433.326" fill="#67737B" sketch:type="MSShapeGroup"/><path d="M27.434 99.717c-.193-.131-.45-.073-.574.129l-.148.228-.115.163c-.139.191-.105.464.077.611.075.061.164.09.252.09.125 0 .248-.059.33-.171l.131-.187.169-.26c.125-.202.07-.472-.123-.602" fill="#67737B" sketch:type="MSShapeGroup"/><path d="M27.847 98.803l.132.023c.174 0 .336-.115.394-.297l.148-.517c.059-.232-.072-.471-.294-.533-.222-.063-.449.076-.509.308l-.134.466c-.073.228.044.475.262.551" fill="#67737B" sketch:type="MSShapeGroup"/><path d="M27.125 106.642c-.231 0-.328-.054-.475-.137-.19-.107-.427-.24-.867-.24-.439 0-.676.133-.866.24-.147.082-.243.137-.475.137-.231 0-.328-.054-.475-.137-.19-.107-.427-.24-.866-.24s-.676.133-.866.24c-.147.082-.243.137-.474.137-.231 0-.328-.054-.474-.136-.19-.107-.427-.24-.866-.24s-.676.133-.866.24c-.147.082-.243.137-.474.137-.231 0-.328-.054-.474-.137-.19-.107-.427-.24-.866-.24s-.676.133-.866.24c-.147.082-.243.137-.474.137-.231 0-.328-.054-.474-.137-.19-.107-.427-.24-.866-.24s-.676.133-.866.24c-.147.082-.243.137-.474.137-.231 0-.328-.054-.474-.137-.19-.107-.427-.24-.866-.24s-.676.133-.866.24c-.146.082-.243.137-.474.137-.231 0-.328-.054-.474-.137-.19-.107-.427-.24-.866-.24s-.676.133-.866.24c-.147.082-.243.137-.474.137-.231 0-.328-.054-.474-.137-.19-.107-.427-.24-.866-.24s-.676.133-.866.24c-.146.082-.243.137-.474.137-.231 0-.328-.054-.474-.137-.19-.107-.427-.24-.866-.24-.229 0-.415.195-.415.436s.186.436.415.436c.231 0 .328.054.474.137.19.107.427.24.866.24s.676-.133.866-.24c.147-.082.243-.137.474-.137.231 0 .328.054.474.137.19.107.427.24.866.24s.676-.133.866-.24c.147-.082.243-.137.474-.137.231 0 .328.054.474.137.19.107.427.24.866.24s.676-.133.866-.24c.146-.082.243-.137.474-.137.231 0 .328.054.474.137.19.107.427.24.866.24s.676-.133.866-.24c.147-.082.243-.137.474-.137.231 0 .328.054.474.137.19.107.427.24.866.24s.676-.133.866-.24c.146-.082.243-.137.474-.137.231 0 .328.054.474.137.19.107.427.24.866.24s.676-.133.866-.24c.147-.082.243-.137.474-.137.231 0 .328.054.474.137.19.107.427.24.866.24s.676-.133.866-.24c.147-.082.243-.137.474-.137.231 0 .328.054.474.137.19.107.427.24.867.24.439 0 .676-.133.866-.24.147-.082.243-.137.475-.137.231 0 .328.054.475.137.19.107.427.24.867.24.229 0 .415-.195.415-.436s-.186-.436-.415-.436" fill="#67737B" sketch:type="MSShapeGroup"/><path d="M24.113 108.036c-.199 0-.278-.043-.409-.114-.165-.09-.39-.212-.792-.212s-.627.123-.792.212c-.131.071-.21.114-.41.114-.199 0-.278-.043-.409-.114-.165-.09-.39-.212-.792-.212-.401 0-.627.123-.792.212-.131.071-.21.114-.409.114-.199 0-.278-.043-.409-.114-.165-.09-.39-.212-.792-.212s-.627.123-.792.212c-.131.071-.21.114-.409.114-.229 0-.415.195-.415.436s.186.436.415.436c.402 0 .627-.123.792-.212.131-.071.21-.114.409-.114.199 0 .278.043.409.114.165.09.39.212.792.212.401 0 .627-.123.792-.212.131-.071.21-.114.409-.114.199 0 .278.043.41.114.165.089.39.212.792.212s.627-.123.792-.212c.131-.071.21-.114.41-.114.199 0 .278.043.409.114.165.09.39.212.792.212.229 0 .415-.195.415-.436s-.186-.436-.415-.436" fill="#67737B" sketch:type="MSShapeGroup"/><path d="M18.091 86.789h2.319c.229 0 .415-.195.415-.436s-.186-.436-.415-.436h-2.319c-.229 0-.415.195-.415.436s.186.436.415.436" fill="#67737B" sketch:type="MSShapeGroup"/><path d="M19.011 85.612h3.918c.229 0 .415-.195.415-.436s-.186-.436-.415-.436h-3.918c-.229 0-.415.195-.415.436s.186.436.415.436" fill="#67737B" sketch:type="MSShapeGroup"/><path d="M4.394 127.066c.21.194.478.3.756.3h3.393l-.014.163c0 .296.122.579.335.775.181.167.412.259.652.259h3.507c.544 0 .986-.464.986-1.034 0-.57-.442-1.034-.986-1.034h-.184c.029-.105.045-.215.045-.329 0-.662-.513-1.2-1.144-1.2h-6.589c-.278 0-.546.107-.756.3-.247.228-.388.556-.388.9s.142.672.388.9zm.549-1.146c.041-.038.11-.083.207-.083h6.589c.173 0 .314.148.314.329 0 .181-.141.329-.314.329-.229 0-.415.195-.415.436h-.002c0 .241.186.436.415.436h1.285c.086 0 .156.073.156.163 0 .09-.07.163-.156.163h-3.507l-.102-.041-.053-.122.054-.122.102-.041h.002c.229 0 .415-.195.415-.436s-.186-.436-.415-.436h-4.368c-.097 0-.166-.045-.207-.083-.069-.064-.107-.151-.107-.246s.038-.183.107-.246zM19.083 133.273c-.217-.076-.453.046-.526.275l-.149.516c-.059.232.072.471.293.534l.108.015c.183 0 .351-.128.401-.323l.134-.466c.073-.228-.044-.475-.262-.551" fill="#206FAC" sketch:type="MSShapeGroup"/><path d="M28.41 136.1c-.229 0-.415.199-.415.44l-.006.309.006-.309c0-3.455-1.896-6.288-4.276-6.478l.177.017.052.003c.206 0 .385-.161.412-.381.029-.239-.133-.457-.36-.486-.176-.023-.356-.035-.534-.035h-.005c-.229 0-.413.195-.413.436s.188.436.418.436c-2.412 0-4.39 2.714-4.523 6.122l.005-.12c.012-.24-.164-.445-.393-.458-.23-.013-.425.172-.437.412l-.014.533v.003c0 .241.186.434.415.434.229 0 .415-.197.415-.437l.006-.309-.005.309c0 2.984 1.414 5.502 3.332 6.257l-.08 2.03h-3.252v-2.749c0-.241-.186-.436-.415-.436h-1.208l.156-3.021v-4.851l.048-.049 1.094-1.353c.104-.129.128-.311.06-.465-.068-.154-.215-.252-.377-.252h-1.566v-3.317c0-.241-.186-.436-.415-.436-.229 0-.415.195-.415.436v3.317h-.316v-1.907c0-.241-.186-.436-.415-.436-.229 0-.415.195-.415.436v1.907h-7.778v-1.907c0-.241-.186-.436-.415-.436-.229 0-.415.195-.415.436v1.907h-2.703c-.133 0-.258.067-.336.179-.078.113-.1.258-.059.391l.419 1.353c.055.18.215.301.395.301h1.283v4.669l-.322 6.284h-.662c-.459 0-.831.39-.831.871s.372.871.831.871h23.653c.459 0 .831-.39.831-.871s-.372-.871-.831-.871h-2.85l-.101-1.553c.078.125.21.196.347.196l.183-.045c.158-.082.315-.175.466-.277.193-.13.249-.4.124-.602-.124-.202-.381-.261-.574-.13-.125.084-.254.161-.384.228-.088.045-.152.12-.19.205l-.008-.118c1.76-.793 3.06-3.085 3.166-5.826l-.004.116c-.012.24.164.445.393.458l.022.001c.219 0 .403-.18.415-.412l.013-.528v-.008c0-.241-.186-.431-.415-.431zm-11.016-3.579l-.39.482h-12.847l-.149-.482h13.386zm-11.441 6.349l.015-.292.001-.024v-.01h1.736v.041l-.015.284h-1.736zm.015-2.717h1.736v.325h-1.736v-.325zm0 1.196h1.736v.325h-1.736v-.325zm1.598 3.913h-1.736l.017-.325h1.736l-.017.325zm-1.78.871h1.736l-.017.325h-1.735l.017-.325zm-.061 1.196h1.735l-.017.325h-1.735l.017-.325zm.244-9.448h1.736v.205h-1.736v-.205zm0 1.076h1.736v.325h-1.736v-.325zm1.659 5.109h-1.736l.017-.325h1.736l-.016.305-.001.02zm.906-1.444l.001-.023v-4.724h1.069v4.669l-.055 1.067h-1.066l.051-.989zm6.365-1.273h1.736v.325h-1.736v-.325zm1.536 5.109h-1.735l.017-.325h1.736l-.017.325zm-1.536-6.305h1.736v.325h-1.736v-.325zm-.001 2.425l.001-.024v-.01h1.736v.041l-.015.284h-1.737l.015-.292zm-.06 1.163h1.736l-.017.325h-1.736l.017-.325zm1.347 1.196h.327l-.017.325h-1.736l.017-.325h1.408zm-1.287-5.98h1.736v.325h-1.736v-.325zm0-1.076h1.736v.205h-1.736v-.205zm-.261 9.773l.017-.325h1.735l-.017.325h-1.735zm-2.469-8.372l-.004-.001h-1.732v-.325h1.736v.325zm0 1.196h-1.736v-.325h1.736v.326zm0 1.196l-.004-.001h-1.732v-.325h1.736v.326zm-.2 4.784h-1.735l.017-.325h1.735l-.017.325zm.062-1.196h-1.736l.017-.325h1.736l-.017.325zm.062-1.196h-1.736l.017-.325h1.736l-.017.325zm-1.659-6.185h1.736v.205h-1.736v-.205zm-.261 9.773l.017-.325h1.735l-.017.325h-1.735zm1.996-5.068l-.015.284h-1.736l.015-.292.001-.024v-.01h1.736v.042zm-2.056 6.241l.015-.302h1.735l-.016.302h-1.735zm2.887-10.952h1.069v4.225h-1.069v-4.225zm1.579 10.952l.015-.302h1.735l-.006.12-.009.182h-1.735zm-8.916-.302h1.735l-.015.302h-1.735l.016-.302zm11.601-2.011h.837v2.313h-.957l.119-2.313zm-8.856-1.461l.029-.571h1.066l-.223 4.345h-1.067l.195-3.774zm4.364 1.981l.209-4.063h1.065l-.3 5.856h-1.067l.093-1.793zm10.554-6.058h.286l.335 5.133c-.158.032-.319.049-.483.049l-.341-.025.203-5.157zm-.172 6.036l-.066-.006v-.001l.066.007zm.97 1.815h-1.108l.037-.949.41.023h.01c.229 0 .416-.195.416-.436s-.186-.435-.415-.435h-.01c.183 0 .363-.017.54-.048l.12 1.846zm.635-3.025l-.346-5.291c-.015-.228-.196-.406-.414-.406h-.836l-.117.02-.101-.019c-.231-.01-.423.177-.432.417l-.211 5.35c-1.472-.742-2.538-2.851-2.538-5.332 0-3.097 1.66-5.618 3.7-5.618s3.7 2.52 3.7 5.618c0 2.405-1.001 4.462-2.404 5.261zM27.715 134.28l.108.473c.041.206.213.347.406.347l.085-.009c.225-.049.369-.279.322-.515l-.119-.523c-.06-.232-.288-.37-.509-.307-.221.063-.352.302-.293.534M19.496 132.359c.07.048.148.07.226.07.136 0 .269-.07.349-.199l.145-.224.118-.167c.139-.191.105-.464-.077-.611-.182-.146-.443-.11-.582.081l-.135.191-.166.255c-.125.202-.07.471.122.602M21.547 129.653c-.158.081-.315.175-.466.276-.193.13-.249.399-.125.602.079.13.213.2.35.2.077 0 .155-.022.224-.069.125-.084.254-.161.384-.228.206-.106.291-.367.189-.583-.101-.216-.35-.305-.556-.199M27.088 132.635c.076.144.218.225.364.225.068 0 .137-.018.2-.054.201-.116.274-.381.163-.592l-.267-.467c-.125-.202-.382-.258-.575-.127-.192.131-.247.401-.121.603l.236.412M25.391 130.658l.361.272c.077.064.168.095.259.095.122 0 .243-.056.325-.164.143-.188.114-.462-.065-.612-.14-.117-.286-.227-.433-.325-.193-.129-.45-.07-.574.133-.123.203-.067.472.126.602M19.105 138.323c-.046-.235-.266-.387-.491-.338-.225.049-.369.279-.323.515l.119.524c.05.194.218.322.401.322l.108-.015c.221-.063.353-.302.293-.534l-.107-.473M19.11 140.861l.267.467c.08.128.213.198.349.198.078 0 .156-.023.226-.07.192-.131.247-.401.122-.603l-.235-.412c-.111-.211-.363-.288-.564-.172-.201.116-.274.381-.164.592M21.085 143.154c.069.047.147.069.224.069.137 0 .271-.071.35-.201.124-.203.068-.472-.126-.602l-.361-.272c-.179-.15-.44-.12-.584.068-.143.188-.115.462.064.612.14.117.285.227.433.326M27.434 140.717c-.193-.131-.45-.073-.574.129l-.148.228-.115.163c-.139.191-.105.464.077.611.075.061.164.09.252.09.125 0 .248-.059.33-.171l.131-.187.169-.26c.125-.202.07-.472-.123-.602M27.847 139.803l.132.023c.174 0 .336-.115.394-.297l.148-.517c.059-.232-.072-.471-.294-.533-.222-.063-.449.076-.509.308l-.134.466c-.073.228.044.475.262.551M27.125 147.642c-.231 0-.328-.054-.475-.137-.19-.107-.427-.24-.867-.24-.439 0-.676.133-.866.24-.147.082-.243.137-.475.137-.231 0-.328-.054-.475-.137-.19-.107-.427-.24-.866-.24s-.676.133-.866.24c-.147.082-.243.137-.474.137-.231 0-.328-.054-.474-.136-.19-.107-.427-.24-.866-.24s-.676.133-.866.24c-.147.082-.243.137-.474.137-.231 0-.328-.054-.474-.137-.19-.107-.427-.24-.866-.24s-.676.133-.866.24c-.147.082-.243.137-.474.137-.231 0-.328-.054-.474-.137-.19-.107-.427-.24-.866-.24s-.676.133-.866.24c-.147.082-.243.137-.474.137-.231 0-.328-.054-.474-.137-.19-.107-.427-.24-.866-.24s-.676.133-.866.24c-.146.082-.243.137-.474.137-.231 0-.328-.054-.474-.137-.19-.107-.427-.24-.866-.24s-.676.133-.866.24c-.147.082-.243.137-.474.137-.231 0-.328-.054-.474-.137-.19-.107-.427-.24-.866-.24s-.676.133-.866.24c-.146.082-.243.137-.474.137-.231 0-.328-.054-.474-.137-.19-.107-.427-.24-.866-.24-.229 0-.415.195-.415.436s.186.436.415.436c.231 0 .328.054.474.137.19.107.427.24.866.24s.676-.133.866-.24c.147-.082.243-.137.474-.137.231 0 .328.054.474.137.19.107.427.24.866.24s.676-.133.866-.24c.147-.082.243-.137.474-.137.231 0 .328.054.474.137.19.107.427.24.866.24s.676-.133.866-.24c.146-.082.243-.137.474-.137.231 0 .328.054.474.137.19.107.427.24.866.24s.676-.133.866-.24c.147-.082.243-.137.474-.137.231 0 .328.054.474.137.19.107.427.24.866.24s.676-.133.866-.24c.146-.082.243-.137.474-.137.231 0 .328.054.474.137.19.107.427.24.866.24s.676-.133.866-.24c.147-.082.243-.137.474-.137.231 0 .328.054.474.137.19.107.427.24.866.24s.676-.133.866-.24c.147-.082.243-.137.474-.137.231 0 .328.054.474.137.19.107.427.24.867.24.439 0 .676-.133.866-.24.147-.082.243-.137.475-.137.231 0 .328.054.475.137.19.107.427.24.867.24.229 0 .415-.195.415-.436s-.186-.436-.415-.436M24.113 149.036c-.199 0-.278-.043-.409-.114-.165-.09-.39-.212-.792-.212s-.627.123-.792.212c-.131.071-.21.114-.41.114-.199 0-.278-.043-.409-.114-.165-.09-.39-.212-.792-.212-.401 0-.627.123-.792.212-.131.071-.21.114-.409.114-.199 0-.278-.043-.409-.114-.165-.09-.39-.212-.792-.212s-.627.123-.792.212c-.131.071-.21.114-.409.114-.229 0-.415.195-.415.436s.186.436.415.436c.402 0 .627-.123.792-.212.131-.071.21-.114.409-.114.199 0 .278.043.409.114.165.09.39.212.792.212.401 0 .627-.123.792-.212.131-.071.21-.114.409-.114.199 0 .278.043.41.114.165.089.39.212.792.212s.627-.123.792-.212c.131-.071.21-.114.41-.114.199 0 .278.043.409.114.165.09.39.212.792.212.229 0 .415-.195.415-.436s-.186-.436-.415-.436M18.091 127.789h2.319c.229 0 .415-.195.415-.436s-.186-.436-.415-.436h-2.319c-.229 0-.415.195-.415.436s.186.436.415.436M19.011 126.612h3.918c.229 0 .415-.195.415-.436s-.186-.436-.415-.436h-3.918c-.229 0-.415.195-.415.436s.186.436.415.436" fill="#206FAC" sketch:type="MSShapeGroup"/></g></svg>