<svg width="32" height="232" viewBox="0 0 32 232" xmlns="http://www.w3.org/2000/svg" xmlns:sketch="http://www.bohemiancoding.com/sketch/ns"><title>Seoul</title><g sketch:type="MSLayerGroup" fill="none"><path d="M28.687 64.718h-1.137v-7.45c0-.319-.16-.596-.398-.745v-.856c0-.238-.178-.431-.398-.431h-.181v-1.925c.777-.403 1.522-.916 2.223-1.535l.057-.056.019-.022.032-.038.021-.028.024-.036.02-.033.019-.034.018-.036.014-.034.015-.039.011-.033.012-.042.007-.031.009-.046.004-.024.009-.1-.002-.1v-.002l-.007-.066-.002-.011-.012-.063-.003-.011-.018-.064-.003-.01-.023-.062-.005-.01-.029-.06-.002-.004-.004-.007-.032-.055-.011-.015-.026-.038-.009-.01-.009-.011-.046-.051-.098-.088-.003-.003-.055-.038-.008-.005-.052-.029-.013-.006-.051-.022-.017-.006-.049-.017-.022-.005-.046-.011-.028-.004-.043-.006-.033-.002-.039-.002-.041.002-.067.007-.036.005-.041.011-.031.008-.041.014-.025.009c-.023.009-1.47.586-2.947.537 1.357-.548 2.642-1.49 3.803-2.799l.05-.062.016-.024.027-.042.017-.031.02-.038.015-.034.015-.038.013-.036.012-.039.01-.036.009-.042.006-.034.006-.05.003-.027.002-.078-.001-.017-.004-.061-.004-.029-.007-.048-.007-.033-.011-.043-.011-.036-.013-.038-.015-.038-.015-.033-.019-.038-.018-.031-.023-.037-.004-.007-.019-.026-.023-.03-.049-.057-.002-.002-.058-.054-.021-.017-.04-.03-.029-.019-.034-.02-.034-.018-.032-.015-.036-.015-.033-.012-.036-.012-.038-.008-.032-.007-.063-.008-.008-.001-.074-.003-.018.001-.054.004-.025.003-.047.009-.03.008-.04.011-.034.012-.033.013-.038.017-.014.006c-.034.018-3.465 1.781-5.101-.481l-.006-.006-.045-.055-.012-.014-.062-.061-.018-.014-.051-.04-.023-.016-.051-.03-.025-.013-.035-.017v-.491c0-.238-.178-.43-.398-.43-.22 0-.398.192-.398.43v.427h-10.953v-.427c0-.238-.178-.43-.398-.43-.22 0-.398.192-.398.43v.491l-.036.017-.024.013-.051.03-.023.016-.051.04-.017.014-.063.061-.012.014-.045.055-.006.006c-1.627 2.248-5.068.499-5.101.481l-.014-.006-.036-.017-.035-.014-.033-.011-.042-.012-.027-.007-.05-.009-.021-.003-.061-.005-.013-.001-.146.011-.027.006-.043.01-.034.011-.035.012-.034.015-.033.015-.033.018-.034.021-.029.019-.039.03-.021.017-.058.054-.005.006-.047.053-.023.031-.018.026-.005.007-.023.037-.018.031-.019.038-.015.034-.015.037-.013.038-.011.036-.011.043-.007.033-.007.048-.004.029-.004.061-.001.017.002.078.003.027.006.05.006.034.009.042.01.036.012.039.013.036.015.038.016.034.02.038.017.031.027.042.016.024.05.062c1.161 1.31 2.446 2.252 3.803 2.799-1.476.05-2.923-.528-2.945-.536l-.023-.008-.044-.015-.025-.006-.046-.012-.03-.004-.069-.008-.045-.003-.031.001-.041.003-.034.005-.038.005-.036.009-.034.009-.038.013-.03.012-.038.017-.029.014-.036.021-.029.018-.033.022-.035.028-.023.019-.056.055-.01.011-.042.05-.004.005-.012.017-.029.043-.019.033-.013.021-.007.014-.018.038-.015.035-.015.039-.012.037-.011.039-.009.041-.007.036-.006.047-.004.03-.003.062v.017l.004.079.003.023.008.054.007.032.01.044.01.035.013.04.013.035.016.037.017.034.02.036.019.033.024.036.021.028.032.038.019.022.057.056c.701.619 1.446 1.132 2.223 1.535v1.925h-.181c-.22 0-.398.192-.398.431v.856c-.238.149-.398.426-.398.745v7.45h-1.137c-.44 0-.797.386-.797.862 0 .475.356.861.797.861h24.89c.44 0 .797-.386.797-.861 0-.476-.356-.862-.797-.862zm-10.941-13.316v.264h-3.008v-.695h3.008v.431zm-3.406 1.125h3.804c.22 0 .398-.192.398-.431v-.695h3.364c.637.581 1.388.897 2.15 1.046l-.323.072-.07.014-.319.054-.052.008-.156.019-.141.017-.052.005-.324.024-.07.003-.333.008h-11.946l-.333-.008-.071-.003-.323-.024-.054-.006-.14-.017-.155-.018-.054-.008-.318-.054-.071-.014-.323-.071c.763-.149 1.513-.465 2.15-1.046h3.364v.695c0 .238.178.431.398.431zm-7.632 1.154c1.141.47 2.339.712 3.561.712h11.946c1.222 0 2.42-.242 3.56-.712v1.555h-19.067v-1.555zm.774 2.725v-.31h.612v.74h-.612v-.43zm17.519 0v.43h-.612v-.74h.612v.31zm-16.11 0v-.31h.612v.74h-.612v-.43zm1.409 0v-.31h.612v.74h-.612v-.43zm1.409 0v-.31h.612v.74h-.612v-.43zm1.409 0v-.31h.612v.74h-.612v-.43zm1.409 0v-.31h.612v.74h-.612v-.43zm1.409 0v-.31h.612v.74h-.612v-.43zm1.409 0v-.31h.612v.74h-.612v-.43zm1.409 0v-.31h.612v.74h-.612v-.43zm1.409 0v-.31h.612v.74h-.612v-.43zm1.409 0v-.31h.612v.74h-.612v-.43zm1.409 0v-.31h.612v.74h-.612v-.43zm2.818-.31h.557v.74h-.557v-.74zm-19.669.31v-.31h.557v.74h-.557v-.43zm4.505-8.827h11.215c.776.894 1.811 1.391 3.05 1.469l-.162.075-.043.018-.129.056-.064.025-.108.043-.07.025-.103.038-.073.025-.1.033-.075.023-.099.029-.076.022-.099.026-.076.019-.099.023-.076.017-.099.02-.077.014-.1.017-.076.012-.101.014-.075.01-.103.011-.073.007-.107.008-.07.005-.119.006-.058.003-.177.003h-11.946l-.178-.003-.058-.003-.119-.006-.07-.005-.107-.008-.074-.007-.103-.011-.075-.01-.101-.014-.076-.012-.1-.017-.077-.014-.099-.02-.077-.017-.099-.023-.076-.019-.099-.026-.076-.022-.099-.029-.075-.023-.1-.033-.073-.025-.102-.038-.07-.025-.107-.043-.064-.025-.13-.056-.042-.018-.162-.075c1.238-.079 2.274-.576 3.05-1.469zm.171 14.468c-.254-.124-.553-.196-.877-.196-.324 0-.623.072-.877.196v-.026c.026-.503.41-.895.877-.895.468 0 .851.393.877.895v.026zm-1.754 2.671v-1.53c.025-.226.4-.476.877-.476s.851.25.877.476v1.961h-1.754v-.431zm8.182-3.201c-.283-.149-.622-.234-.991-.234s-.709.085-.991.234v-.221c.029-.569.463-1.013.991-1.013.529 0 .962.445.991 1.013v.221zm-1.982 3.201v-2.02c.028-.265.436-.555.991-.555.556 0 .963.29.991.555v2.451h-1.982v-.431zm8.181-2.671c-.254-.124-.553-.196-.877-.196-.324 0-.623.072-.877.196v-.026c.026-.503.409-.895.877-.895s.851.393.877.895v.026zm-1.753 2.671v-1.53c.025-.226.4-.476.877-.476s.852.25.877.476v1.961h-1.753v-.431zm2.55 0v-2.729c-.041-.967-.776-1.725-1.673-1.725-.896 0-1.631.759-1.673 1.725v2.729h-2.852v-3.453c-.045-1.034-.83-1.845-1.787-1.845-.958 0-1.743.811-1.787 1.845l-.001.019v3.434h-2.852v-2.729c-.041-.967-.776-1.725-1.673-1.725-.896 0-1.631.759-1.673 1.725v2.729h-1.728v-6.589h19.43v6.589h-1.728z" fill="#373D43" sketch:type="MSShapeGroup"/><path d="M28.687 24.718h-1.137v-7.45c0-.319-.16-.596-.398-.745v-.856c0-.238-.178-.431-.398-.431h-.181v-1.925c.777-.403 1.522-.916 2.223-1.535l.057-.056.019-.022.032-.038.021-.028.024-.036.02-.033.019-.034.018-.036.014-.034.015-.039.011-.033.012-.042.007-.031.009-.046.004-.024.009-.1-.002-.1v-.002l-.007-.066-.002-.011-.012-.063-.003-.011-.018-.064-.003-.01-.023-.062-.005-.01-.029-.06-.002-.004-.004-.007-.032-.055-.011-.015-.026-.038-.009-.01-.009-.011-.046-.051-.098-.088-.003-.003-.055-.038-.008-.005-.052-.029-.013-.006-.051-.022-.017-.006-.049-.017-.022-.005-.046-.011-.028-.004-.043-.006-.033-.002-.039-.002-.041.002-.067.007-.036.005-.041.011-.031.008-.041.014-.025.009c-.023.009-1.47.586-2.947.537 1.357-.548 2.642-1.49 3.803-2.799l.05-.062.016-.024.027-.042.017-.031.02-.038.015-.034.015-.038.013-.036.012-.039.01-.036.009-.042.006-.034.006-.05.003-.027.002-.078-.001-.017-.004-.061-.004-.029-.007-.048-.007-.033-.011-.043-.011-.036-.013-.038-.015-.038-.015-.033-.019-.038-.018-.031-.023-.037-.004-.007-.019-.026-.023-.03-.049-.057-.002-.002-.058-.054-.021-.017-.04-.03-.029-.019-.034-.02-.034-.018-.032-.015-.036-.015-.033-.012-.036-.012-.038-.008-.032-.007-.063-.008-.008-.001-.074-.003-.018.001-.054.004-.025.003-.047.009-.03.008-.04.011-.034.012-.033.013-.038.017-.014.006c-.034.018-3.465 1.781-5.101-.481l-.006-.006-.045-.055-.012-.014-.062-.061-.018-.014-.051-.04-.023-.016-.051-.03-.025-.013-.035-.017v-.491c0-.238-.178-.43-.398-.43-.22 0-.398.192-.398.43v.427h-10.953v-.427c0-.238-.178-.43-.398-.43-.22 0-.398.192-.398.43v.491l-.036.017-.024.013-.051.03-.023.016-.051.04-.017.014-.063.061-.012.014-.045.055-.006.006c-1.627 2.248-5.068.499-5.101.481l-.014-.006-.036-.017-.035-.014-.033-.011-.042-.012-.027-.007-.05-.009-.021-.003-.061-.005-.013-.001-.146.011-.027.006-.043.01-.034.011-.035.012-.034.015-.033.015-.033.018-.034.021-.029.019-.039.03-.021.017-.058.054-.005.006-.047.053-.023.031-.018.026-.005.007-.023.037-.018.031-.019.038-.015.034-.015.037-.013.038-.011.036-.011.043-.007.033-.007.048-.004.029-.004.061-.001.017.002.078.003.027.006.05.006.034.009.042.01.036.012.039.013.036.015.038.016.034.02.038.017.031.027.042.016.024.05.062c1.161 1.31 2.446 2.252 3.803 2.799-1.476.05-2.923-.528-2.945-.536l-.023-.008-.044-.015-.025-.006-.046-.012-.03-.004-.069-.008-.045-.003-.031.001-.041.003-.034.005-.038.005-.036.009-.034.009-.038.013-.03.012-.038.017-.029.014-.036.021-.029.018-.033.022-.035.028-.023.019-.056.055-.01.011-.042.05-.004.005-.012.017-.029.043-.019.033-.013.021-.007.014-.018.038-.015.035-.015.039-.012.037-.011.039-.009.041-.007.036-.006.047-.004.03-.003.062v.017l.004.079.003.023.008.054.007.032.01.044.01.035.013.04.013.035.016.037.017.034.02.036.019.033.024.036.021.028.032.038.019.022.057.056c.701.619 1.446 1.132 2.223 1.535v1.925h-.181c-.22 0-.398.192-.398.431v.856c-.238.149-.398.426-.398.745v7.45h-1.137c-.44 0-.797.386-.797.862 0 .475.356.861.797.861h24.89c.44 0 .797-.386.797-.861 0-.476-.356-.862-.797-.862zm-10.941-13.316v.264h-3.008v-.695h3.008v.431zm-3.406 1.125h3.804c.22 0 .398-.192.398-.431v-.695h3.364c.637.581 1.388.897 2.15 1.046l-.323.072-.07.014-.319.054-.052.008-.156.019-.141.017-.052.005-.324.024-.07.003-.333.008h-11.946l-.333-.008-.071-.003-.323-.024-.054-.006-.14-.017-.155-.018-.054-.008-.318-.054-.071-.014-.323-.071c.763-.149 1.513-.465 2.15-1.046h3.364v.695c0 .238.178.431.398.431zm-7.632 1.154c1.141.47 2.339.712 3.561.712h11.946c1.222 0 2.42-.242 3.56-.712v1.555h-19.067v-1.555zm.774 2.725v-.31h.612v.74h-.612v-.43zm17.519 0v.43h-.612v-.74h.612v.31zm-16.11 0v-.31h.612v.74h-.612v-.43zm1.409 0v-.31h.612v.74h-.612v-.43zm1.409 0v-.31h.612v.74h-.612v-.43zm1.409 0v-.31h.612v.74h-.612v-.43zm1.409 0v-.31h.612v.74h-.612v-.43zm1.409 0v-.31h.612v.74h-.612v-.43zm1.409 0v-.31h.612v.74h-.612v-.43zm1.409 0v-.31h.612v.74h-.612v-.43zm1.409 0v-.31h.612v.74h-.612v-.43zm1.409 0v-.31h.612v.74h-.612v-.43zm1.409 0v-.31h.612v.74h-.612v-.43zm2.818-.31h.557v.74h-.557v-.74zm-19.669.31v-.31h.557v.74h-.557v-.43zm4.505-8.827h11.215c.776.894 1.811 1.391 3.05 1.469l-.162.075-.043.018-.129.056-.064.025-.108.043-.07.025-.103.038-.073.025-.1.033-.075.023-.099.029-.076.022-.099.026-.076.019-.099.023-.076.017-.099.02-.077.014-.1.017-.076.012-.101.014-.075.01-.103.011-.073.007-.107.008-.07.005-.119.006-.058.003-.177.003h-11.946l-.178-.003-.058-.003-.119-.006-.07-.005-.107-.008-.074-.007-.103-.011-.075-.01-.101-.014-.076-.012-.1-.017-.077-.014-.099-.02-.077-.017-.099-.023-.076-.019-.099-.026-.076-.022-.099-.029-.075-.023-.1-.033-.073-.025-.102-.038-.07-.025-.107-.043-.064-.025-.13-.056-.042-.018-.162-.075c1.238-.079 2.274-.576 3.05-1.469zm.171 14.468c-.254-.124-.553-.196-.877-.196-.324 0-.623.072-.877.196v-.026c.026-.503.41-.895.877-.895.468 0 .851.393.877.895v.026zm-1.754 2.671v-1.53c.025-.226.4-.476.877-.476s.851.25.877.476v1.961h-1.754v-.431zm8.182-3.201c-.283-.149-.622-.234-.991-.234s-.709.085-.991.234v-.221c.029-.569.463-1.013.991-1.013.529 0 .962.445.991 1.013v.221zm-1.982 3.201v-2.02c.028-.265.436-.555.991-.555.556 0 .963.29.991.555v2.451h-1.982v-.431zm8.181-2.671c-.254-.124-.553-.196-.877-.196-.324 0-.623.072-.877.196v-.026c.026-.503.409-.895.877-.895s.851.393.877.895v.026zm-1.753 2.671v-1.53c.025-.226.4-.476.877-.476s.852.25.877.476v1.961h-1.753v-.431zm2.55 0v-2.729c-.041-.967-.776-1.725-1.673-1.725-.896 0-1.631.759-1.673 1.725v2.729h-2.852v-3.453c-.045-1.034-.83-1.845-1.787-1.845-.958 0-1.743.811-1.787 1.845l-.001.019v3.434h-2.852v-2.729c-.041-.967-.776-1.725-1.673-1.725-.896 0-1.631.759-1.673 1.725v2.729h-1.728v-6.589h19.43v6.589h-1.728z" fill="#fff" sketch:type="MSShapeGroup"/><path d="M28.687 104.718h-1.137v-7.45c0-.319-.16-.596-.398-.745v-.856c0-.238-.178-.431-.398-.431h-.181v-1.925c.777-.403 1.522-.916 2.223-1.535l.057-.056.019-.022.032-.038.021-.028.024-.036.02-.033.019-.034.018-.036.014-.034.015-.039.011-.033.012-.042.007-.031.009-.046.004-.024.009-.1-.002-.1v-.002l-.007-.066-.002-.011-.012-.063-.003-.011-.018-.064-.003-.01-.023-.062-.005-.01-.029-.06-.002-.004-.004-.007-.032-.055-.011-.015-.026-.038-.009-.01-.009-.011-.046-.051-.098-.088-.003-.003-.055-.038-.008-.005-.052-.029-.013-.006-.051-.022-.017-.006-.049-.017-.022-.005-.046-.011-.028-.004-.043-.006-.033-.002-.039-.002-.041.002-.067.007-.036.005-.041.011-.031.008-.041.014-.025.009c-.023.009-1.47.586-2.947.537 1.357-.548 2.642-1.49 3.803-2.799l.05-.062.016-.024.027-.042.017-.031.02-.038.015-.034.015-.038.013-.036.012-.039.01-.036.009-.042.006-.034.006-.05.003-.027.002-.078-.001-.017-.004-.061-.004-.029-.007-.048-.007-.033-.011-.043-.011-.036-.013-.038-.015-.038-.015-.033-.019-.038-.018-.031-.023-.037-.004-.007-.019-.026-.023-.03-.049-.057-.002-.002-.058-.054-.021-.017-.04-.03-.029-.019-.034-.02-.034-.018-.032-.015-.036-.015-.033-.012-.036-.012-.038-.008-.032-.007-.063-.008-.008-.001-.074-.003-.018.001-.054.004-.025.003-.047.009-.03.008-.04.011-.034.012-.033.013-.038.017-.014.006c-.034.018-3.465 1.781-5.101-.481l-.006-.006-.045-.055-.012-.014-.062-.061-.018-.014-.051-.04-.023-.016-.051-.03-.025-.013-.035-.017v-.491c0-.238-.178-.43-.398-.43-.22 0-.398.192-.398.43v.427h-10.953v-.427c0-.238-.178-.43-.398-.43-.22 0-.398.192-.398.43v.491l-.036.017-.024.013-.051.03-.023.016-.051.04-.017.014-.063.061-.012.014-.045.055-.006.006c-1.627 2.248-5.068.499-5.101.481l-.014-.006-.036-.017-.035-.014-.033-.011-.042-.012-.027-.007-.05-.009-.021-.003-.061-.005-.013-.001-.146.011-.027.006-.043.01-.034.011-.035.012-.034.015-.033.015-.033.018-.034.021-.029.019-.039.03-.021.017-.058.054-.005.006-.047.053-.023.031-.018.026-.005.007-.023.037-.018.031-.019.038-.015.034-.015.037-.013.038-.011.036-.011.043-.007.033-.007.048-.004.029-.004.061-.001.017.002.078.003.027.006.05.006.034.009.042.01.036.012.039.013.036.015.038.016.034.02.038.017.031.027.042.016.024.05.062c1.161 1.31 2.446 2.252 3.803 2.799-1.476.05-2.923-.528-2.945-.536l-.023-.008-.044-.015-.025-.006-.046-.012-.03-.004-.069-.008-.045-.003-.031.001-.041.003-.034.005-.038.005-.036.009-.034.009-.038.013-.03.012-.038.017-.029.014-.036.021-.029.018-.033.022-.035.028-.023.019-.056.055-.01.011-.042.05-.004.005-.012.017-.029.043-.019.033-.013.021-.007.014-.018.038-.015.035-.015.039-.012.037-.011.039-.009.041-.007.036-.006.047-.004.03-.003.062v.017l.004.079.003.023.008.054.007.032.01.044.01.035.013.04.013.035.016.037.017.034.02.036.019.033.024.036.021.028.032.038.019.022.057.056c.701.619 1.446 1.132 2.223 1.535v1.925h-.181c-.22 0-.398.192-.398.431v.856c-.238.149-.398.426-.398.745v7.45h-1.137c-.44 0-.797.386-.797.862 0 .475.356.861.797.861h24.89c.44 0 .797-.386.797-.861 0-.476-.356-.862-.797-.862zm-10.941-13.316v.264h-3.008v-.695h3.008v.431zm-3.406 1.125h3.804c.22 0 .398-.192.398-.431v-.695h3.364c.637.581 1.388.897 2.15 1.046l-.323.072-.07.014-.319.054-.052.008-.156.019-.141.017-.052.005-.324.024-.07.003-.333.008h-11.946l-.333-.008-.071-.003-.323-.024-.054-.006-.14-.017-.155-.018-.054-.008-.318-.054-.071-.014-.323-.071c.763-.149 1.513-.465 2.15-1.046h3.364v.695c0 .238.178.431.398.431zm-7.632 1.154c1.141.47 2.339.712 3.561.712h11.946c1.222 0 2.42-.242 3.56-.712v1.555h-19.067v-1.555zm.774 2.725v-.31h.612v.74h-.612v-.43zm17.519 0v.43h-.612v-.74h.612v.31zm-16.11 0v-.31h.612v.74h-.612v-.43zm1.409 0v-.31h.612v.74h-.612v-.43zm1.409 0v-.31h.612v.74h-.612v-.43zm1.409 0v-.31h.612v.74h-.612v-.43zm1.409 0v-.31h.612v.74h-.612v-.43zm1.409 0v-.31h.612v.74h-.612v-.43zm1.409 0v-.31h.612v.74h-.612v-.43zm1.409 0v-.31h.612v.74h-.612v-.43zm1.409 0v-.31h.612v.74h-.612v-.43zm1.409 0v-.31h.612v.74h-.612v-.43zm1.409 0v-.31h.612v.74h-.612v-.43zm2.818-.31h.557v.74h-.557v-.74zm-19.669.31v-.31h.557v.74h-.557v-.43zm4.505-8.827h11.215c.776.894 1.811 1.391 3.05 1.469l-.162.075-.043.018-.129.056-.064.025-.108.043-.07.025-.103.038-.073.025-.1.033-.075.023-.099.029-.076.022-.099.026-.076.019-.099.023-.076.017-.099.02-.077.014-.1.017-.076.012-.101.014-.075.01-.103.011-.073.007-.107.008-.07.005-.119.006-.058.003-.177.003h-11.946l-.178-.003-.058-.003-.119-.006-.07-.005-.107-.008-.074-.007-.103-.011-.075-.01-.101-.014-.076-.012-.1-.017-.077-.014-.099-.02-.077-.017-.099-.023-.076-.019-.099-.026-.076-.022-.099-.029-.075-.023-.1-.033-.073-.025-.102-.038-.07-.025-.107-.043-.064-.025-.13-.056-.042-.018-.162-.075c1.238-.079 2.274-.576 3.05-1.469zm.171 14.468c-.254-.124-.553-.196-.877-.196-.324 0-.623.072-.877.196v-.026c.026-.503.41-.895.877-.895.468 0 .851.393.877.895v.026zm-1.754 2.671v-1.53c.025-.226.4-.476.877-.476s.851.25.877.476v1.961h-1.754v-.431zm8.182-3.201c-.283-.149-.622-.234-.991-.234s-.709.085-.991.234v-.221c.029-.569.463-1.013.991-1.013.529 0 .962.445.991 1.013v.221zm-1.982 3.201v-2.02c.028-.265.436-.555.991-.555.556 0 .963.29.991.555v2.451h-1.982v-.431zm8.181-2.671c-.254-.124-.553-.196-.877-.196-.324 0-.623.072-.877.196v-.026c.026-.503.409-.895.877-.895s.851.393.877.895v.026zm-1.753 2.671v-1.53c.025-.226.4-.476.877-.476s.852.25.877.476v1.961h-1.753v-.431zm2.55 0v-2.729c-.041-.967-.776-1.725-1.673-1.725-.896 0-1.631.759-1.673 1.725v2.729h-2.852v-3.453c-.045-1.034-.83-1.845-1.787-1.845-.958 0-1.743.811-1.787 1.845l-.001.019v3.434h-2.852v-2.729c-.041-.967-.776-1.725-1.673-1.725-.896 0-1.631.759-1.673 1.725v2.729h-1.728v-6.589h19.43v6.589h-1.728z" fill="#67737B" sketch:type="MSShapeGroup"/><path d="M28.687 146.718h-1.137v-7.45c0-.319-.16-.596-.398-.745v-.856c0-.238-.178-.431-.398-.431h-.181v-1.925c.777-.403 1.522-.916 2.223-1.535l.057-.056.019-.022.032-.038.021-.028.024-.036.02-.033.019-.034.018-.036.014-.034.015-.039.011-.033.012-.042.007-.031.009-.046.004-.024.009-.1-.002-.1v-.002l-.007-.066-.002-.011-.012-.063-.003-.011-.018-.064-.003-.01-.023-.062-.005-.01-.029-.06-.002-.004-.004-.007-.032-.055-.011-.015-.026-.038-.009-.01-.009-.011-.046-.051-.098-.088-.003-.003-.055-.038-.008-.005-.052-.029-.013-.006-.051-.022-.017-.006-.049-.017-.022-.005-.046-.011-.028-.004-.043-.006-.033-.002-.039-.002-.041.002-.067.007-.036.005-.041.011-.031.008-.041.014-.025.009c-.023.009-1.47.586-2.947.537 1.357-.548 2.642-1.49 3.803-2.799l.05-.062.016-.024.027-.042.017-.031.02-.038.015-.034.015-.038.013-.036.012-.039.01-.036.009-.042.006-.034.006-.05.003-.027.002-.078-.001-.017-.004-.061-.004-.029-.007-.048-.007-.033-.011-.043-.011-.036-.013-.038-.015-.038-.015-.033-.019-.038-.018-.031-.023-.037-.004-.007-.019-.026-.023-.03-.049-.057-.002-.002-.058-.054-.021-.017-.04-.03-.029-.019-.034-.02-.034-.018-.032-.015-.036-.015-.033-.012-.036-.012-.038-.008-.032-.007-.063-.008-.008-.001-.074-.003-.018.001-.054.004-.025.003-.047.009-.03.008-.04.011-.034.012-.033.013-.038.017-.014.006c-.034.018-3.465 1.781-5.101-.481l-.006-.006-.045-.055-.012-.014-.062-.061-.018-.014-.051-.04-.023-.016-.051-.03-.025-.013-.035-.017v-.491c0-.238-.178-.43-.398-.43-.22 0-.398.192-.398.43v.427h-10.953v-.427c0-.238-.178-.43-.398-.43-.22 0-.398.192-.398.43v.491l-.036.017-.024.013-.051.03-.023.016-.051.04-.017.014-.063.061-.012.014-.045.055-.006.006c-1.627 2.248-5.068.499-5.101.481l-.014-.006-.036-.017-.035-.014-.033-.011-.042-.012-.027-.007-.05-.009-.021-.003-.061-.005-.013-.001-.146.011-.027.006-.043.01-.034.011-.035.012-.034.015-.033.015-.033.018-.034.021-.029.019-.039.03-.021.017-.058.054-.005.006-.047.053-.023.031-.018.026-.005.007-.023.037-.018.031-.019.038-.015.034-.015.037-.013.038-.011.036-.011.043-.007.033-.007.048-.004.029-.004.061-.001.017.002.078.003.027.006.05.006.034.009.042.01.036.012.039.013.036.015.038.016.034.02.038.017.031.027.042.016.024.05.062c1.161 1.31 2.446 2.252 3.803 2.799-1.476.05-2.923-.528-2.945-.536l-.023-.008-.044-.015-.025-.006-.046-.012-.03-.004-.069-.008-.045-.003-.031.001-.041.003-.034.005-.038.005-.036.009-.034.009-.038.013-.03.012-.038.017-.029.014-.036.021-.029.018-.033.022-.035.028-.023.019-.056.055-.01.011-.042.05-.004.005-.012.017-.029.043-.019.033-.013.021-.007.014-.018.038-.015.035-.015.039-.012.037-.011.039-.009.041-.007.036-.006.047-.004.03-.003.062v.017l.004.079.003.023.008.054.007.032.01.044.01.035.013.04.013.035.016.037.017.034.02.036.019.033.024.036.021.028.032.038.019.022.057.056c.701.619 1.446 1.132 2.223 1.535v1.925h-.181c-.22 0-.398.192-.398.431v.856c-.238.149-.398.426-.398.745v7.45h-1.137c-.44 0-.797.386-.797.862 0 .475.356.861.797.861h24.89c.44 0 .797-.386.797-.861 0-.476-.356-.862-.797-.862zm-10.941-13.316v.264h-3.008v-.695h3.008v.431zm-3.406 1.125h3.804c.22 0 .398-.192.398-.431v-.695h3.364c.637.581 1.388.897 2.15 1.046l-.323.072-.07.014-.319.054-.052.008-.156.019-.141.017-.052.005-.324.024-.07.003-.333.008h-11.946l-.333-.008-.071-.003-.323-.024-.054-.006-.14-.017-.155-.018-.054-.008-.318-.054-.071-.014-.323-.071c.763-.149 1.513-.465 2.15-1.046h3.364v.695c0 .238.178.431.398.431zm-7.632 1.154c1.141.47 2.339.712 3.561.712h11.946c1.222 0 2.42-.242 3.56-.712v1.555h-19.067v-1.555zm.774 2.725v-.31h.612v.74h-.612v-.43zm17.519 0v.43h-.612v-.74h.612v.31zm-16.11 0v-.31h.612v.74h-.612v-.43zm1.409 0v-.31h.612v.74h-.612v-.43zm1.409 0v-.31h.612v.74h-.612v-.43zm1.409 0v-.31h.612v.74h-.612v-.43zm1.409 0v-.31h.612v.74h-.612v-.43zm1.409 0v-.31h.612v.74h-.612v-.43zm1.409 0v-.31h.612v.74h-.612v-.43zm1.409 0v-.31h.612v.74h-.612v-.43zm1.409 0v-.31h.612v.74h-.612v-.43zm1.409 0v-.31h.612v.74h-.612v-.43zm1.409 0v-.31h.612v.74h-.612v-.43zm2.818-.31h.557v.74h-.557v-.74zm-19.669.31v-.31h.557v.74h-.557v-.43zm4.505-8.827h11.215c.776.894 1.811 1.391 3.05 1.469l-.162.075-.043.018-.129.056-.064.025-.108.043-.07.025-.103.038-.073.025-.1.033-.075.023-.099.029-.076.022-.099.026-.076.019-.099.023-.076.017-.099.02-.077.014-.1.017-.076.012-.101.014-.075.01-.103.011-.073.007-.107.008-.07.005-.119.006-.058.003-.177.003h-11.946l-.178-.003-.058-.003-.119-.006-.07-.005-.107-.008-.074-.007-.103-.011-.075-.01-.101-.014-.076-.012-.1-.017-.077-.014-.099-.02-.077-.017-.099-.023-.076-.019-.099-.026-.076-.022-.099-.029-.075-.023-.1-.033-.073-.025-.102-.038-.07-.025-.107-.043-.064-.025-.13-.056-.042-.018-.162-.075c1.238-.079 2.274-.576 3.05-1.469zm.171 14.468c-.254-.124-.553-.196-.877-.196-.324 0-.623.072-.877.196v-.026c.026-.503.41-.895.877-.895.468 0 .851.393.877.895v.026zm-1.754 2.671v-1.53c.025-.226.4-.476.877-.476s.851.25.877.476v1.961h-1.754v-.431zm8.182-3.201c-.283-.149-.622-.234-.991-.234s-.709.085-.991.234v-.221c.029-.569.463-1.013.991-1.013.529 0 .962.445.991 1.013v.221zm-1.982 3.201v-2.02c.028-.265.436-.555.991-.555.556 0 .963.29.991.555v2.451h-1.982v-.431zm8.181-2.671c-.254-.124-.553-.196-.877-.196-.324 0-.623.072-.877.196v-.026c.026-.503.409-.895.877-.895s.851.393.877.895v.026zm-1.753 2.671v-1.53c.025-.226.4-.476.877-.476s.852.25.877.476v1.961h-1.753v-.431zm2.55 0v-2.729c-.041-.967-.776-1.725-1.673-1.725-.896 0-1.631.759-1.673 1.725v2.729h-2.852v-3.453c-.045-1.034-.83-1.845-1.787-1.845-.958 0-1.743.811-1.787 1.845l-.001.019v3.434h-2.852v-2.729c-.041-.967-.776-1.725-1.673-1.725-.896 0-1.631.759-1.673 1.725v2.729h-1.728v-6.589h19.43v6.589h-1.728z" fill="#206FAC" sketch:type="MSShapeGroup"/></g></svg>