<svg width="32" height="232" viewBox="0 0 32 232" xmlns="http://www.w3.org/2000/svg" xmlns:sketch="http://www.bohemiancoding.com/sketch/ns"><title>Seville</title><g sketch:type="MSLayerGroup" fill="none"><g fill="#373D43" sketch:type="MSShapeGroup"><path d="M16.246 43.637l.125.021c.105 0 .205-.044.279-.122.074-.078.116-.185.116-.295 0-.18-.109-.339-.27-.395l-.169-.019-.16.059-.074.06c-.074.078-.117.185-.117.296 0 .179.109.338.27.395" id="Fill-1"/><path d="M13.03 48.621l.177.044.176-.044.104-.079c.132-.141.152-.361.048-.525-.038-.061-.091-.11-.153-.142-.093-.049-.204-.057-.302-.022l-.092.047c-.098.069-.162.182-.174.306-.012.124.03.248.114.336l.103.078" id="Fill-2"/><path d="M10.473 44.464l.38.219.208.401c.069.134.202.216.346.216.144 0 .277-.083.346-.216l.208-.401.38-.219c.126-.073.205-.214.205-.365 0-.152-.079-.292-.205-.366l-.38-.219-.208-.401c-.069-.134-.202-.217-.346-.217-.144 0-.277.083-.346.216l-.208.401-.38.219c-.127.073-.206.214-.206.366s.079.292.206.365" id="Fill-3"/><path d="M24.091 67.808l-1.463-2.512c.149.024.313.038.498.038h.002c.218 0 .394-.186.394-.416 0-.093-.029-.18-.079-.25l-1.786-3.003c.195-.025.347-.198.347-.411 0-.094-.029-.18-.079-.25l-1.803-3.031c.054-.108.087-.229.092-.359l.188-5.553 2.696-3.23c.263-.315.263-.786 0-1.101l-3.257-3.901c-.288-.345-.787-.378-1.114-.074-.327.304-.359.83-.071 1.175l2.797 3.351-2.129 2.55h-.298v-.707c.29-.29.472-.698.472-1.152 0-.876-.676-1.589-1.506-1.589-.674 0-1.247.47-1.438 1.116l-.113-.008c-.526 0-.954.452-.954 1.006 0 .555.428 1.006.954 1.006.165 0 .32-.045.456-.123v.45h-.572c-.109 0-.209.047-.28.124-.117.064-.217.159-.29.273l-4.988 5.526c-.301.333-.289.861.027 1.178.153.153.349.23.544.23.209 0 .417-.087.572-.259l3.778-4.185.132 3.896.001.016-3.885 2.675c-.146.101-.212.291-.162.467.05.177.204.298.378.298l.297.029-3.73 2.569c-.146.101-.212.291-.162.468.05.177.204.298.378.298.34 0 .579.058.782.146l-2.905 2.042-.035-.001c-.36 0-.663.255-.758.603-.075.126-.081.289-.009.425.083.365.395.638.767.638.624 0 .9.184 1.283.438.465.309 1.045.693 2.124.693 1.079 0 1.658-.384 2.123-.693.383-.254.659-.438 1.283-.438.624 0 .9.184 1.283.438.465.309 1.044.693 2.123.693 1.08 0 1.659-.384 2.124-.693.278-.184.5-.331.839-.398l.023-.005c.123-.022.26-.035.42-.035.285 0 .498.039.681.105l.026.01c.206.077.377.191.577.324.465.309 1.044.693 2.124.693.436 0 .789-.373.789-.832 0-.355-.212-.659-.51-.778zm-7.094-.055c-.624 0-.9-.183-1.283-.437-.465-.308-1.045-.693-2.124-.693-1.08 0-1.658.385-2.124.693-.288.191-.515.342-.876.405l-.028.005c-.112.018-.236.027-.378.027-.268 0-.473-.034-.648-.093l-.026-.009c-.221-.079-.399-.197-.608-.336-.256-.17-.548-.362-.937-.502l2.534-1.782c.309.166.693.302 1.275.302.819 0 1.246-.27 1.622-.509.33-.21.615-.391 1.216-.391.6 0 .885.181 1.216.391.377.238.803.509 1.622.509.819 0 1.246-.27 1.622-.509l.244-.149c.249-.14.522-.242.972-.242.526 0 .81.139 1.095.314l.104.065-.069-.005 1.637 2.81c-.185-.077-.344-.182-.527-.304-.465-.308-1.045-.693-2.124-.693-1.079 0-1.658.385-2.124.693-.383.254-.659.437-1.283.437zm-.114-13.753l-.042-1.253.393.42.017.018.446.477c.152.162.399.166.555.008l.084-.085.41-.416.043-.044.409-.415-.151 4.46h-2.055l-.108-3.169zm1.751-2.335h.203l-.009.261-.844.858-.776-.829-.004-.121.01-.168h.078c.218 0 .395-.187.395-.416v-.72l.306.033.245-.023v.71c0 .23.177.416.395.416zm-2.381 6.662l.474-.326h2.48l.247.416 1.232 2.071-.273-.13c-.147-.056-.32-.099-.534-.114l-.163-.005c-.582 0-.897.199-1.149.36-.22.139-.379.24-.742.24s-.523-.101-.742-.24c-.252-.16-.567-.36-1.149-.36-.582 0-.896.199-1.149.36-.135.086-.247.157-.398.198l-.079.018-.265.023c-.17 0-.295-.023-.403-.06l-.084-.034-.255-.146-.064-.04-.119-.072 3.133-2.158zm-2.974 3.196c.157.068.347.122.587.14l.177.007c.582 0 .896-.2 1.149-.36l.28-.158c.121-.052.26-.083.462-.083s.341.031.462.083l.28.158c.138.088.295.187.505.259.173.059.381.101.644.101s.471-.041.644-.101c.209-.072.366-.171.505-.259l.28-.158.118-.042c.095-.026.204-.041.344-.041.216 0 .36.036.487.094l.255.146.089.055 1.77 2.977c-.13-.059-.245-.131-.365-.206l-.043-.027c-.185-.117-.383-.243-.634-.34-.157-.061-.336-.11-.545-.139-.134-.019-.281-.031-.443-.031-.819 0-1.246.271-1.623.51-.33.21-.616.391-1.216.391s-.885-.181-1.216-.391c-.377-.238-.803-.51-1.622-.51-.819 0-1.246.271-1.622.51l-.244.149c-.248.14-.521.242-.972.242-.177 0-.326-.016-.458-.044-.182-.038-.33-.099-.467-.172l-.274-.164-.017-.011-.091-.057c-.145-.091-.3-.182-.484-.259l3.297-2.271z" id="Fill-4"/></g><g fill="#fff" sketch:type="MSShapeGroup"><path d="M16.46 3.647l.127.022c.107 0 .209-.045.285-.124.076-.079.118-.187.118-.299 0-.182-.111-.344-.276-.401l-.173-.019-.163.06-.076.061c-.076.079-.119.188-.119.301 0 .182.111.344.276.401" id="Fill-1"/><path d="M13.176 8.708l.181.045.18-.044.106-.08c.135-.143.156-.366.049-.533-.039-.062-.093-.111-.156-.144-.095-.049-.208-.058-.309-.022l-.094.048c-.101.07-.166.184-.178.311-.012.126.03.252.116.341l.105.079" id="Fill-2"/><path d="M10.566 4.486l.388.223.212.407c.071.136.206.22.353.22s.283-.084.353-.22l.212-.407.388-.223c.129-.074.209-.217.209-.371 0-.155-.08-.297-.209-.371l-.388-.223-.212-.407c-.07-.136-.206-.22-.353-.22s-.283.084-.353.22l-.212.407-.388.223c-.129.074-.21.217-.21.371s.08.297.21.371" id="Fill-3"/><path d="M24.468 28.19l-1.494-2.551c.152.025.32.039.509.039h.002c.222 0 .403-.189.403-.423 0-.095-.03-.183-.08-.253l-1.823-3.049c.2-.025.354-.201.354-.417 0-.095-.03-.183-.08-.254l-1.84-3.077c.055-.109.089-.233.094-.364l.192-5.638 2.752-3.28c.268-.319.268-.798 0-1.118l-3.325-3.962c-.294-.35-.803-.384-1.137-.076-.334.309-.367.843-.072 1.193l2.856 3.403-2.173 2.59h-.304v-.718c.296-.294.481-.709.481-1.169 0-.89-.69-1.614-1.538-1.614-.688 0-1.273.477-1.468 1.133l-.116-.008c-.537 0-.974.459-.974 1.022 0 .564.437 1.022.974 1.022.168 0 .327-.045.465-.125v.457h-.584c-.112 0-.213.048-.286.125-.12.065-.221.161-.296.277l-5.092 5.611c-.307.338-.295.874.027 1.196.156.156.356.233.556.233.213 0 .426-.088.584-.263l3.856-4.249.135 3.956.001.016-3.965 2.716c-.149.102-.217.296-.166.474.051.179.208.303.386.303l.303.03-3.808 2.608c-.149.102-.217.295-.166.475.051.179.208.302.386.302.347 0 .591.059.798.149l-2.966 2.074-.035-.001c-.367 0-.677.259-.774.613-.077.128-.083.293-.009.431.085.371.403.648.783.648.637 0 .919.187 1.309.445.475.314 1.066.703 2.168.703s1.693-.39 2.168-.703c.391-.258.673-.445 1.31-.445s.919.187 1.31.445c.475.314 1.066.703 2.168.703s1.693-.39 2.168-.703c.283-.187.511-.336.857-.405l.024-.005c.125-.022.265-.035.429-.035.291 0 .508.04.695.106l.026.01c.21.079.385.194.589.329.475.314 1.066.703 2.168.703.445 0 .806-.378.806-.845 0-.361-.216-.669-.52-.79zm-7.242-.056c-.637 0-.919-.186-1.309-.444-.475-.313-1.066-.704-2.168-.704s-1.693.391-2.168.704c-.294.194-.526.347-.894.412l-.029.005c-.114.018-.241.028-.386.028-.274 0-.483-.034-.662-.094l-.027-.009c-.225-.08-.407-.2-.621-.341-.261-.173-.559-.368-.956-.509l2.587-1.809c.315.168.707.307 1.301.307.836 0 1.272-.275 1.656-.517.337-.213.628-.397 1.241-.397.612 0 .904.184 1.241.397.384.242.82.517 1.656.517s1.272-.275 1.656-.517l.249-.151c.254-.142.532-.246.993-.246.537 0 .827.141 1.117.319l.106.066-.07-.005 1.671 2.853c-.188-.079-.351-.185-.538-.309-.475-.313-1.066-.704-2.168-.704s-1.693.391-2.168.704c-.391.258-.673.444-1.31.444zm-.117-13.965l-.043-1.272.401.427.017.018.455.484c.155.165.408.168.566.008l.086-.087.418-.423.044-.044.418-.422-.154 4.529h-2.098l-.11-3.218zm1.788-2.371h.207l-.009.265-.862.871-.792-.842-.004-.123.01-.171h.08c.222 0 .403-.189.403-.423v-.731l.312.034.251-.023v.721c0 .233.181.423.403.423zm-2.43 6.765l.484-.331h2.532l.252.422 1.258 2.103-.278-.132c-.15-.057-.327-.101-.545-.116l-.166-.005c-.595 0-.916.202-1.173.365-.225.141-.387.244-.758.244s-.534-.103-.758-.244c-.258-.163-.579-.365-1.173-.365-.595 0-.915.202-1.173.365-.138.087-.253.159-.407.201l-.081.019-.27.024c-.174 0-.302-.023-.412-.061l-.086-.035-.26-.148-.065-.041-.121-.073 3.199-2.192zm-3.036 3.245c.161.069.355.123.6.142l.181.007c.595 0 .915-.203 1.173-.365l.286-.16c.124-.053.265-.084.472-.084.206 0 .348.032.471.084l.286.16c.141.089.302.19.515.263.177.06.389.102.658.102.268 0 .481-.042.657-.102.214-.073.374-.174.515-.263l.286-.16.12-.042c.097-.027.209-.042.351-.042.221 0 .367.037.498.096l.26.149.091.056 1.807 3.023c-.132-.06-.251-.133-.373-.209l-.044-.028c-.189-.119-.391-.246-.647-.345-.161-.062-.343-.112-.557-.142-.137-.02-.287-.031-.452-.031-.836 0-1.272.275-1.657.518-.337.213-.629.397-1.241.397-.613 0-.904-.184-1.241-.397-.385-.242-.82-.518-1.656-.518s-1.272.275-1.656.518l-.249.151c-.253.142-.532.246-.992.246-.181 0-.333-.016-.467-.045-.186-.039-.336-.1-.477-.175l-.279-.166-.017-.011-.093-.058c-.148-.092-.306-.185-.494-.263l3.365-2.306z" id="Fill-4"/></g><g fill="#67737B" sketch:type="MSShapeGroup"><path d="M16.46 83.647l.127.022c.107 0 .209-.045.285-.124.076-.079.118-.187.118-.299 0-.182-.111-.344-.276-.401l-.173-.019-.163.06-.076.061c-.076.079-.119.188-.119.301 0 .182.111.344.276.401"/><path d="M13.176 88.708l.181.045.18-.044.106-.08c.135-.143.156-.366.049-.533-.039-.062-.093-.111-.156-.144-.095-.049-.208-.058-.309-.022l-.094.048c-.101.07-.166.184-.178.311-.012.126.03.252.116.341l.105.079"/><path d="M10.566 84.486l.388.223.212.407c.071.136.206.22.353.22s.283-.084.353-.22l.212-.407.388-.223c.129-.074.209-.217.209-.371 0-.155-.08-.297-.209-.371l-.388-.223-.212-.407c-.07-.136-.206-.22-.353-.22s-.283.084-.353.22l-.212.407-.388.223c-.129.074-.21.217-.21.371s.08.297.21.371"/><path d="M24.468 108.19l-1.494-2.551c.152.025.32.039.509.039h.002c.222 0 .403-.189.403-.423 0-.095-.03-.183-.08-.253l-1.823-3.049c.2-.025.354-.201.354-.417 0-.095-.03-.183-.08-.254l-1.84-3.077c.055-.109.089-.233.094-.364l.192-5.638 2.752-3.28c.268-.319.268-.798 0-1.118l-3.325-3.962c-.294-.35-.803-.384-1.137-.076-.334.309-.367.843-.072 1.193l2.856 3.403-2.173 2.59h-.304v-.718c.296-.294.481-.709.481-1.169 0-.89-.69-1.614-1.538-1.614-.688 0-1.273.477-1.468 1.133l-.116-.008c-.537 0-.974.459-.974 1.022 0 .564.437 1.022.974 1.022.168 0 .327-.045.465-.125v.457h-.584c-.112 0-.213.048-.286.125-.12.065-.221.161-.296.277l-5.092 5.611c-.307.338-.295.874.027 1.196.156.156.356.233.556.233.213 0 .426-.088.584-.263l3.856-4.249.135 3.956.001.016-3.965 2.716c-.149.102-.217.296-.166.474.051.179.208.303.386.303l.303.03-3.808 2.608c-.149.102-.217.295-.166.475.051.179.208.302.386.302.347 0 .591.059.798.149l-2.966 2.074-.035-.001c-.367 0-.677.259-.774.613-.077.128-.083.293-.009.431.085.371.403.648.783.648.637 0 .919.187 1.309.445.475.314 1.066.703 2.168.703s1.693-.39 2.168-.703c.391-.258.673-.445 1.31-.445s.919.187 1.31.445c.475.314 1.066.703 2.168.703s1.693-.39 2.168-.703c.283-.187.511-.336.857-.405l.024-.005c.125-.022.265-.035.429-.035.291 0 .508.04.695.106l.026.01c.21.079.385.194.589.329.475.314 1.066.703 2.168.703.445 0 .806-.378.806-.845 0-.361-.216-.669-.52-.79zm-7.242-.056c-.637 0-.919-.186-1.309-.444-.475-.313-1.066-.704-2.168-.704s-1.693.391-2.168.704c-.294.194-.526.347-.894.412l-.029.005c-.114.018-.241.028-.386.028-.274 0-.483-.034-.662-.094l-.027-.009c-.225-.08-.407-.2-.621-.341-.261-.173-.559-.368-.956-.509l2.587-1.809c.315.168.707.307 1.301.307.836 0 1.272-.275 1.656-.517.337-.213.628-.397 1.241-.397.612 0 .904.184 1.241.397.384.242.82.517 1.656.517s1.272-.275 1.656-.517l.249-.151c.254-.142.532-.246.993-.246.537 0 .827.141 1.117.319l.106.066-.07-.005 1.671 2.853c-.188-.079-.351-.185-.538-.309-.475-.313-1.066-.704-2.168-.704s-1.693.391-2.168.704c-.391.258-.673.444-1.31.444zm-.117-13.965l-.043-1.272.401.427.017.018.455.484c.155.165.408.168.566.008l.086-.087.418-.423.044-.044.418-.422-.154 4.529h-2.098l-.11-3.218zm1.788-2.371h.207l-.009.265-.862.871-.792-.842-.004-.123.01-.171h.08c.222 0 .403-.189.403-.423v-.731l.312.034.251-.023v.721c0 .233.181.423.403.423zm-2.43 6.765l.484-.331h2.532l.252.422 1.258 2.103-.278-.132c-.15-.057-.327-.101-.545-.116l-.166-.005c-.595 0-.916.202-1.173.365-.225.141-.387.244-.758.244s-.534-.103-.758-.244c-.258-.163-.579-.365-1.173-.365-.595 0-.915.202-1.173.365-.138.087-.253.159-.407.201l-.081.019-.27.024c-.174 0-.302-.023-.412-.061l-.086-.035-.26-.148-.065-.041-.121-.073 3.199-2.192zm-3.036 3.245c.161.069.355.123.6.142l.181.007c.595 0 .915-.203 1.173-.365l.286-.16c.124-.053.265-.084.472-.084.206 0 .348.032.471.084l.286.16c.141.089.302.19.515.263.177.06.389.102.658.102.268 0 .481-.042.657-.102.214-.073.374-.174.515-.263l.286-.16.12-.042c.097-.027.209-.042.351-.042.221 0 .367.037.498.096l.26.149.091.056 1.807 3.023c-.132-.06-.251-.133-.373-.209l-.044-.028c-.189-.119-.391-.246-.647-.345-.161-.062-.343-.112-.557-.142-.137-.02-.287-.031-.452-.031-.836 0-1.272.275-1.657.518-.337.213-.629.397-1.241.397-.613 0-.904-.184-1.241-.397-.385-.242-.82-.518-1.656-.518s-1.272.275-1.656.518l-.249.151c-.253.142-.532.246-.992.246-.181 0-.333-.016-.467-.045-.186-.039-.336-.1-.477-.175l-.279-.166-.017-.011-.093-.058c-.148-.092-.306-.185-.494-.263l3.365-2.306z"/></g><g fill="#206FAC" sketch:type="MSShapeGroup"><path d="M16.46 124.647l.127.022c.107 0 .209-.045.285-.124.076-.079.118-.187.118-.299 0-.182-.111-.344-.276-.401l-.173-.019-.163.06-.076.061c-.076.079-.119.188-.119.301 0 .182.111.344.276.401M13.176 129.708l.181.045.18-.044.106-.08c.135-.143.156-.366.049-.533-.039-.062-.093-.111-.156-.144-.095-.049-.208-.058-.309-.022l-.094.048c-.101.07-.166.184-.178.311-.012.126.03.252.116.341l.105.079M10.566 125.486l.388.223.212.407c.071.136.206.22.353.22s.283-.084.353-.22l.212-.407.388-.223c.129-.074.209-.217.209-.371 0-.155-.08-.297-.209-.371l-.388-.223-.212-.407c-.07-.136-.206-.22-.353-.22s-.283.084-.353.22l-.212.407-.388.223c-.129.074-.21.217-.21.371s.08.297.21.371"/><path d="M24.468 149.19l-1.494-2.551c.152.025.32.039.509.039h.002c.222 0 .403-.189.403-.423 0-.095-.03-.183-.08-.253l-1.823-3.049c.2-.025.354-.201.354-.417 0-.095-.03-.183-.08-.254l-1.84-3.077c.055-.109.089-.233.094-.364l.192-5.638 2.752-3.28c.268-.319.268-.798 0-1.118l-3.325-3.962c-.294-.35-.803-.384-1.137-.076-.334.309-.367.843-.072 1.193l2.856 3.403-2.173 2.59h-.304v-.718c.296-.294.481-.709.481-1.169 0-.89-.69-1.614-1.538-1.614-.688 0-1.273.477-1.468 1.133l-.116-.008c-.537 0-.974.459-.974 1.022 0 .564.437 1.022.974 1.022.168 0 .327-.045.465-.125v.457h-.584c-.112 0-.213.048-.286.125-.12.065-.221.161-.296.277l-5.092 5.611c-.307.338-.295.874.027 1.196.156.156.356.233.556.233.213 0 .426-.088.584-.263l3.856-4.249.135 3.956.001.016-3.965 2.716c-.149.102-.217.296-.166.474.051.179.208.303.386.303l.303.03-3.808 2.608c-.149.102-.217.295-.166.475.051.179.208.302.386.302.347 0 .591.059.798.149l-2.966 2.074-.035-.001c-.367 0-.677.259-.774.613-.077.128-.083.293-.009.431.085.371.403.648.783.648.637 0 .919.187 1.309.445.475.314 1.066.703 2.168.703s1.693-.39 2.168-.703c.391-.258.673-.445 1.31-.445s.919.187 1.31.445c.475.314 1.066.703 2.168.703s1.693-.39 2.168-.703c.283-.187.511-.336.857-.405l.024-.005c.125-.022.265-.035.429-.035.291 0 .508.04.695.106l.026.01c.21.079.385.194.589.329.475.314 1.066.703 2.168.703.445 0 .806-.378.806-.845 0-.361-.216-.669-.52-.79zm-7.242-.056c-.637 0-.919-.186-1.309-.444-.475-.313-1.066-.704-2.168-.704s-1.693.391-2.168.704c-.294.194-.526.347-.894.412l-.029.005c-.114.018-.241.028-.386.028-.274 0-.483-.034-.662-.094l-.027-.009c-.225-.08-.407-.2-.621-.341-.261-.173-.559-.368-.956-.509l2.587-1.809c.315.168.707.307 1.301.307.836 0 1.272-.275 1.656-.517.337-.213.628-.397 1.241-.397.612 0 .904.184 1.241.397.384.242.82.517 1.656.517s1.272-.275 1.656-.517l.249-.151c.254-.142.532-.246.993-.246.537 0 .827.141 1.117.319l.106.066-.07-.005 1.671 2.853c-.188-.079-.351-.185-.538-.309-.475-.313-1.066-.704-2.168-.704s-1.693.391-2.168.704c-.391.258-.673.444-1.31.444zm-.117-13.965l-.043-1.272.401.427.017.018.455.484c.155.165.408.168.566.008l.086-.087.418-.423.044-.044.418-.422-.154 4.529h-2.098l-.11-3.218zm1.788-2.371h.207l-.009.265-.862.871-.792-.842-.004-.123.01-.171h.08c.222 0 .403-.189.403-.423v-.731l.312.034.251-.023v.721c0 .233.181.423.403.423zm-2.43 6.765l.484-.331h2.532l.252.422 1.258 2.103-.278-.132c-.15-.057-.327-.101-.545-.116l-.166-.005c-.595 0-.916.202-1.173.365-.225.141-.387.244-.758.244s-.534-.103-.758-.244c-.258-.163-.579-.365-1.173-.365-.595 0-.915.202-1.173.365-.138.087-.253.159-.407.201l-.081.019-.27.024c-.174 0-.302-.023-.412-.061l-.086-.035-.26-.148-.065-.041-.121-.073 3.199-2.192zm-3.036 3.245c.161.069.355.123.6.142l.181.007c.595 0 .915-.203 1.173-.365l.286-.16c.124-.053.265-.084.472-.084.206 0 .348.032.471.084l.286.16c.141.089.302.19.515.263.177.06.389.102.658.102.268 0 .481-.042.657-.102.214-.073.374-.174.515-.263l.286-.16.12-.042c.097-.027.209-.042.351-.042.221 0 .367.037.498.096l.26.149.091.056 1.807 3.023c-.132-.06-.251-.133-.373-.209l-.044-.028c-.189-.119-.391-.246-.647-.345-.161-.062-.343-.112-.557-.142-.137-.02-.287-.031-.452-.031-.836 0-1.272.275-1.657.518-.337.213-.629.397-1.241.397-.613 0-.904-.184-1.241-.397-.385-.242-.82-.518-1.656-.518s-1.272.275-1.656.518l-.249.151c-.253.142-.532.246-.992.246-.181 0-.333-.016-.467-.045-.186-.039-.336-.1-.477-.175l-.279-.166-.017-.011-.093-.058c-.148-.092-.306-.185-.494-.263l3.365-2.306z"/></g></g></svg>