<svg width="32" height="232" viewBox="0 0 32 232" xmlns="http://www.w3.org/2000/svg" xmlns:sketch="http://www.bohemiancoding.com/sketch/ns"><title>Barcelona</title><g sketch:type="MSPage" fill="none"><g sketch:type="MSLayerGroup"><path d="M24.841 28.003h-1.606v-4.06c0-.214-.079-.414-.211-.566l-.064-2.019v-.157l-.009-.096-.061-1.553c-.111-2.588-.246-4.653-.404-6.138-.178-1.678-.363-2.57-.66-2.975v-1.501l.081-.178.234-.153c.151-.099.243-.273.243-.461s-.092-.363-.243-.461l-.234-.153-.133-.29c-.085-.187-.264-.305-.459-.305h-.001c-.195 0-.374.118-.459.305l-.133.29-.234.153c-.151.098-.243.272-.243.461 0 .188.092.362.243.461l.234.153.081.178v1.456c-.319.382-.508 1.278-.69 3.021-.081.772-.154 1.702-.222 2.779-.117-2.286-.252-4.159-.406-5.581-.215-2.006-.438-3.054-.794-3.501v-1.542l.166-.362.389-.254c.152-.099.244-.273.244-.461s-.092-.362-.244-.461l-.389-.254-.217-.474c-.085-.187-.264-.305-.459-.305-.196 0-.374.119-.46.305l-.217.474-.389.254c-.151.099-.243.273-.243.461s.092.362.243.461l.389.254.166.362v1.492c-.379.416-.61 1.467-.83 3.551-.18 1.71-.335 4.072-.459 7.022l-.247-.12c-.081-1.685-.177-3.055-.286-4.077-.136-1.281-.279-2.088-.581-2.451.122-.113.198-.27.216-.447.019-.198-.038-.396-.157-.544l-.026-.03c-.134-.136-.315-.214-.496-.214-.154 0-.298.054-.419.157-.133.102-.219.256-.244.435-.027.199.029.41.154.567l.052.057c-.312.355-.456 1.168-.592 2.471-.108 1.027-.201 2.404-.28 4.099l-.228.112c-.125-2.956-.279-5.323-.46-7.036-.217-2.06-.445-3.111-.816-3.537v-1.507l.166-.362.39-.254c.151-.099.243-.273.243-.461s-.092-.362-.243-.461l-.39-.254-.217-.474c-.085-.187-.264-.305-.459-.305-.196 0-.374.119-.46.305l-.217.474-.389.254c-.151.099-.243.273-.243.461s.092.363.243.461l.389.254.166.362v1.525c-.363.437-.589 1.486-.807 3.517-.153 1.422-.289 3.295-.406 5.582-.067-1.078-.142-2.008-.222-2.78-.179-1.724-.367-2.619-.679-3.008v-1.157l.08-.178.235-.153c.151-.099.243-.273.243-.461s-.092-.362-.243-.461l-.235-.153-.132-.289c-.086-.187-.264-.305-.46-.305-.195 0-.374.118-.459.305l-.134.29-.234.153c-.151.099-.243.273-.243.461s.092.362.243.461l.235.153.081.178v1.175c-.305.398-.491 1.292-.672 2.99-.157 1.484-.293 3.549-.404 6.138l-.061 1.553-.009.096v.157c-.024.693-.045 1.372-.063 2.018-.133.151-.211.352-.211.566v4.06h-1.606c-.434 0-.785.372-.785.833 0 .46.351.833.785.833h20.055c.434 0 .786-.373.786-.833 0-.46-.352-.833-.786-.833zm-11.418-9.247l1.043-.508.364-.178.315.154 1.044.511.146.071-.043 1.191-.057-.025-.142-.056-.899-.439-.035-.017c-.209-.102-.449-.102-.657-.001l-.085.041-.57.278c-.157.037-.314.085-.465.142l-.05.02-.04-1.121.13-.063zm8.24 9.154h-1.129l-.005-.037c.01-.759.032-2.193.074-3.916l1.061.519v3.434zm-2.094.467h-2.019l-.004-.083-.019-.291-.006-.093c-.055-.803-.156-2-.333-3.229l-.029-.199c-.147-.973-.316-1.79-.512-2.461-.081-.279-.167-.531-.257-.759.304.202.592.464.862.786.112.133.221.276.327.43.415.599.785 1.354 1.112 2.263.213.596.382 1.195.515 1.748.135.559.231 1.069.3 1.48l.005.035.046.291.012.083zm-3.464 0h-3.009l.005-.083.017-.291c.038-.614.102-1.47.206-2.385.037-.318.078-.644.125-.968l.01-.074c.236-1.611.521-2.59.777-3.153l.131-.259c.164-.286.308-.399.408-.406h.008l.016.001c.109.012.271.149.454.495l.058.114c.27.56.579 1.569.837 3.276l.016.11.12.897c.108.902.177 1.744.219 2.351l.019.291.005.083h-.421zm-5.979 0h-.079l.011-.083.041-.291.021-.142c.068-.441.166-.985.305-1.575.115-.491.259-1.014.437-1.535.295-.867.634-1.594 1.014-2.18.159-.243.323-.464.496-.658.264-.297.544-.538.841-.72-.103.256-.2.546-.291.869-.186.664-.347 1.469-.484 2.423l-.002.017c-.185 1.29-.285 2.564-.337 3.407l-.006.093-.017.291-.004.083h-1.947zm-1.029-.603l-.02.135h-1.114v-3.434l1.061-.516c.041 1.649.063 3.034.073 3.814zm12.842-4.999l-1.286-.63.039-1.209 1.247.61v1.229zm-12.964-.625l-1.287.626v-1.23l1.247-.607.04 1.211zm10.062-2.024l.041 1.249-1.78-.871.042-1.208 1.697.83zm-6.708.39l-1.781.867.041-1.25 1.699-.827.041 1.209zm8.969-8.337c.181 1.124.412 3.404.596 8.028l.005.127-1.163-.569c.173-4.328.389-6.498.562-7.586zm-3.137-3.611c.231 1.094.56 3.723.817 10.03l.012.313-1.607-.786c.242-5.966.555-8.49.778-9.557zm-3.243 1.893l-.055.105-.06.017-.05-.019.155-.169.01.066zm-.158-.11l.061-.025.073.045.006.009-.172.155-.027-.081.059-.102zm.041 2.894c.093.791.193 1.977.286 3.755l-.042-.02c-.135-.067-.292-.067-.427 0l-.096.047c.09-1.793.189-2.987.279-3.782zm-4.153 5.352c.256-6.307.586-8.936.816-10.03.223 1.068.537 3.595.778 9.569l-1.608.783.013-.322zm-2.916 1.611c.185-4.626.415-6.906.596-8.03.173 1.088.391 3.26.563 7.59l-1.164.567.005-.126z" fill="#373D43" sketch:type="MSShapeGroup"/><path d="M24.841 107.003h-1.606v-4.06c0-.214-.079-.414-.211-.566l-.064-2.019v-.157l-.009-.096-.061-1.553c-.111-2.588-.246-4.653-.404-6.138-.178-1.678-.363-2.57-.66-2.975v-1.501l.081-.178.234-.153c.151-.099.243-.273.243-.461s-.092-.363-.243-.461l-.234-.153-.133-.29c-.085-.187-.264-.305-.459-.305h-.001c-.195 0-.374.118-.459.305l-.133.29-.234.153c-.151.098-.243.272-.243.461 0 .188.092.362.243.461l.234.153.081.178v1.456c-.319.382-.508 1.278-.69 3.021-.081.772-.154 1.702-.222 2.779-.117-2.286-.252-4.159-.406-5.581-.215-2.006-.438-3.054-.794-3.501v-1.542l.166-.362.389-.254c.152-.099.244-.273.244-.461s-.092-.362-.244-.461l-.389-.254-.217-.474c-.085-.187-.264-.305-.459-.305-.196 0-.374.119-.46.305l-.217.474-.389.254c-.151.099-.243.273-.243.461s.092.362.243.461l.389.254.166.362v1.492c-.379.416-.61 1.467-.83 3.551-.18 1.71-.335 4.072-.459 7.022l-.247-.12c-.081-1.685-.177-3.055-.286-4.077-.136-1.281-.279-2.088-.581-2.451.122-.113.198-.27.216-.447.019-.198-.038-.396-.157-.544l-.026-.03c-.134-.136-.315-.214-.496-.214-.154 0-.298.054-.419.157-.133.102-.219.256-.244.435-.027.199.029.41.154.567l.052.057c-.312.355-.456 1.168-.592 2.471-.108 1.027-.201 2.404-.28 4.099l-.228.112c-.125-2.956-.279-5.323-.46-7.036-.217-2.06-.445-3.111-.816-3.537v-1.507l.166-.362.39-.254c.151-.099.243-.273.243-.461s-.092-.362-.243-.461l-.39-.254-.217-.474c-.085-.187-.264-.305-.459-.305-.196 0-.374.119-.46.305l-.217.474-.389.254c-.151.099-.243.273-.243.461s.092.363.243.461l.389.254.166.362v1.525c-.363.437-.589 1.486-.807 3.517-.153 1.422-.289 3.295-.406 5.582-.067-1.078-.142-2.008-.222-2.78-.179-1.724-.367-2.619-.679-3.008v-1.157l.08-.178.235-.153c.151-.099.243-.273.243-.461s-.092-.362-.243-.461l-.235-.153-.132-.289c-.086-.187-.264-.305-.46-.305-.195 0-.374.118-.459.305l-.134.29-.234.153c-.151.099-.243.273-.243.461s.092.362.243.461l.235.153.081.178v1.175c-.305.398-.491 1.292-.672 2.99-.157 1.484-.293 3.549-.404 6.138l-.061 1.553-.009.096v.157c-.024.693-.045 1.372-.063 2.018-.133.151-.211.352-.211.566v4.06h-1.606c-.434 0-.785.372-.785.833 0 .46.351.833.785.833h20.055c.434 0 .786-.373.786-.833 0-.46-.352-.833-.786-.833zm-11.418-9.247l1.043-.508.364-.178.315.154 1.044.511.146.071-.043 1.191-.057-.025-.142-.056-.899-.439-.035-.017c-.209-.102-.449-.102-.657-.001l-.085.041-.57.278c-.157.037-.314.085-.465.142l-.05.02-.04-1.121.13-.063zm8.24 9.154h-1.129l-.005-.037c.01-.759.032-2.193.074-3.916l1.061.519v3.434zm-2.094.467h-2.019l-.004-.083-.019-.291-.006-.093c-.055-.803-.156-2-.333-3.229l-.029-.199c-.147-.973-.316-1.79-.512-2.461-.081-.279-.167-.531-.257-.759.304.202.592.464.862.786.112.133.221.276.327.43.415.599.785 1.354 1.112 2.263.213.596.382 1.195.515 1.748.135.559.231 1.069.3 1.48l.005.035.046.291.012.083zm-3.464 0h-3.009l.005-.083.017-.291c.038-.614.102-1.47.206-2.385.037-.318.078-.644.125-.968l.01-.074c.236-1.611.521-2.59.777-3.153l.131-.259c.164-.286.308-.399.408-.406h.008l.016.001c.109.012.271.149.454.495l.058.114c.27.56.579 1.569.837 3.276l.016.11.12.897c.108.902.177 1.744.219 2.351l.019.291.005.083h-.421zm-5.979 0h-.079l.011-.083.041-.291.021-.142c.068-.441.166-.985.305-1.575.115-.491.259-1.014.437-1.535.295-.867.634-1.594 1.014-2.18.159-.243.323-.464.496-.658.264-.297.544-.538.841-.72-.103.256-.2.546-.291.869-.186.664-.347 1.469-.484 2.423l-.002.017c-.185 1.29-.285 2.564-.337 3.407l-.006.093-.017.291-.004.083h-1.947zm-1.029-.603l-.02.135h-1.114v-3.434l1.061-.516c.041 1.649.063 3.034.073 3.814zm12.842-4.999l-1.286-.63.039-1.209 1.247.61v1.229zm-12.964-.625l-1.287.626v-1.23l1.247-.607.04 1.211zm10.062-2.024l.041 1.249-1.78-.871.042-1.208 1.697.83zm-6.708.39l-1.781.867.041-1.25 1.699-.827.041 1.209zm8.969-8.337c.181 1.124.412 3.404.596 8.028l.005.127-1.163-.569c.173-4.328.389-6.498.562-7.586zm-3.137-3.611c.231 1.094.56 3.723.817 10.03l.012.313-1.607-.786c.242-5.966.555-8.49.778-9.557zm-3.243 1.893l-.055.105-.06.017-.05-.019.155-.169.01.066zm-.158-.11l.061-.025.073.045.006.009-.172.155-.027-.081.059-.102zm.041 2.894c.093.791.193 1.977.286 3.755l-.042-.02c-.135-.067-.292-.067-.427 0l-.096.047c.09-1.793.189-2.987.279-3.782zm-4.153 5.352c.256-6.307.586-8.936.816-10.03.223 1.068.537 3.595.778 9.569l-1.608.783.013-.322zm-2.916 1.611c.185-4.626.415-6.906.596-8.03.173 1.088.391 3.26.563 7.59l-1.164.567.005-.126z" id="Barcelona-copy" fill="#fff" sketch:type="MSShapeGroup"/><path d="M25.213 68.388h-1.634v-4.123c0-.218-.081-.421-.215-.575-.019-.656-.04-1.346-.065-2.05v-.159l-.009-.097c-.018-.522-.039-1.05-.062-1.577-.113-2.628-.251-4.725-.411-6.232-.181-1.703-.369-2.61-.672-3.021v-1.524l.083-.181.238-.155c.154-.1.247-.277.247-.468s-.094-.368-.247-.468l-.238-.156-.135-.294c-.087-.189-.269-.309-.467-.309h-.001c-.198 0-.38.12-.467.309l-.135.294-.238.156c-.154.1-.247.277-.247.468s.094.368.247.468l.238.155.083.181v1.479c-.325.388-.517 1.297-.702 3.067-.082.783-.157 1.728-.226 2.822-.119-2.322-.257-4.223-.413-5.667-.219-2.037-.446-3.101-.808-3.554v-1.566l.169-.368.396-.258c.154-.101.248-.277.248-.469 0-.191-.094-.368-.248-.468l-.396-.258-.221-.481c-.087-.189-.269-.31-.468-.31-.2 0-.381.12-.468.31l-.221.481-.396.258c-.154.1-.247.277-.247.468s.094.368.247.469l.396.258.169.368v1.515c-.386.423-.621 1.49-.845 3.606-.183 1.736-.341 4.135-.468 7.13l-.251-.122c-.082-1.711-.18-3.102-.291-4.14-.139-1.301-.284-2.121-.592-2.489.125-.115.202-.274.22-.454.019-.201-.039-.403-.159-.552l-.027-.03c-.136-.138-.32-.218-.505-.218-.156 0-.304.055-.427.159-.136.104-.223.26-.248.442-.028.202.03.416.156.575l.053.058c-.318.36-.464 1.186-.603 2.509-.11 1.043-.205 2.441-.285 4.163l-.233.113c-.127-3.002-.284-5.405-.469-7.144-.221-2.092-.453-3.159-.831-3.591v-1.53l.169-.368.397-.258c.154-.1.247-.277.247-.469 0-.191-.094-.368-.247-.468l-.397-.258-.221-.481c-.087-.189-.269-.31-.468-.31-.2 0-.381.12-.468.31l-.221.481-.396.258c-.154.1-.247.277-.247.468s.094.368.247.469l.396.258.169.368v1.549c-.37.444-.6 1.509-.822 3.571-.156 1.444-.294 3.346-.413 5.668-.068-1.095-.144-2.039-.226-2.823-.183-1.75-.374-2.66-.691-3.055v-1.175l.082-.18.24-.155c.153-.1.247-.277.247-.468s-.094-.368-.247-.468l-.239-.156-.135-.294c-.088-.19-.269-.31-.468-.31s-.38.12-.467.309l-.136.294-.238.156c-.154.1-.247.277-.247.468s.094.368.247.468l.239.155.083.18v1.193c-.31.404-.5 1.312-.684 3.036-.16 1.507-.299 3.604-.411 6.232l-.062 1.577-.009.098v.16c-.024.704-.046 1.393-.064 2.049-.135.154-.215.357-.215.575v4.123h-1.635c-.442 0-.799.378-.799.845 0 .467.358.846.799.846h20.413c.442 0 .8-.379.8-.846 0-.467-.358-.845-.8-.845zm-11.622-9.389l1.062-.515.371-.18.321.156 1.063.519.148.072-.044 1.21-.058-.025-.144-.057-.915-.446-.035-.017c-.213-.104-.457-.104-.669-.001l-.087.042-.581.282c-.16.038-.319.086-.473.145l-.051.02-.041-1.139.133-.064zm8.388 9.295h-1.15l-.005-.038c.01-.771.032-2.227.075-3.976l1.08.527v3.487zm-2.132.474h-2.055l-.004-.084-.019-.296-.006-.094c-.056-.815-.159-2.03-.339-3.278l-.03-.202c-.15-.988-.322-1.818-.521-2.499-.082-.283-.17-.54-.262-.771.309.205.602.471.878.798.114.135.225.28.333.437.422.609.799 1.375 1.132 2.297.217.606.389 1.213.524 1.775.137.567.235 1.085.305 1.502l.005.035.047.296.012.084zm-3.526 0h-3.062l.005-.084.017-.296c.038-.623.104-1.492.209-2.422.038-.323.079-.653.127-.983l.011-.075c.24-1.636.531-2.63.791-3.201l.133-.263c.167-.291.314-.405.415-.412h.009l.016.001c.111.012.275.151.462.503l.059.116c.275.569.589 1.593.852 3.327l.016.111.122.911c.11.916.18 1.771.223 2.388l.019.296.005.084h-.429zm-6.086 0h-.081l.011-.084.042-.296.022-.144c.069-.448.169-1 .31-1.599.117-.498.264-1.029.444-1.559.301-.881.645-1.618 1.032-2.213.161-.247.329-.471.505-.668.268-.302.554-.546.856-.731-.105.26-.204.555-.296.883-.189.674-.353 1.491-.493 2.461l-.002.017c-.188 1.31-.29 2.604-.343 3.459l-.006.094-.017.296-.004.084h-1.982zm-1.047-.612l-.02.137h-1.134v-3.486l1.08-.524c.041 1.674.064 3.081.074 3.873zm13.071-5.076l-1.309-.639.04-1.227 1.269.619v1.248zm-13.195-.634l-1.31.636v-1.249l1.269-.616.041 1.229zm10.242-2.055l.042 1.269-1.812-.885.042-1.227 1.728.843zm-6.827.396l-1.813.881.042-1.269 1.729-.839.042 1.228zm9.129-8.466c.184 1.141.419 3.457.607 8.152l.005.129-1.184-.578c.176-4.394.396-6.598.572-7.702zm-3.193-3.666c.235 1.111.57 3.78.832 10.184l.012.318-1.636-.798c.246-6.058.565-8.621.792-9.704zm-3.301 1.922l-.056.107-.061.017-.051-.02.158-.172.01.067zm-.161-.111l.062-.025.075.045.006.009-.175.158-.028-.083.06-.104zm.041 2.939c.095.803.196 2.008.291 3.813l-.042-.02c-.138-.068-.297-.068-.435 0l-.098.047c.092-1.82.192-3.033.284-3.84zm-4.227 5.434c.261-6.404.596-9.073.831-10.184.227 1.084.546 3.65.792 9.716l-1.637.795.013-.327zm-2.968 1.636c.188-4.697.422-7.013.606-8.154.176 1.105.398 3.31.573 7.707l-1.185.575.005-.128z" fill="#67737B" sketch:type="MSShapeGroup"/><path d="M24.841 141.003h-1.606v-4.06c0-.214-.079-.414-.211-.566l-.064-2.019v-.157l-.009-.096-.061-1.553c-.111-2.588-.246-4.653-.404-6.138-.178-1.678-.363-2.57-.66-2.975v-1.501l.081-.178.234-.153c.151-.099.243-.273.243-.461s-.092-.363-.243-.461l-.234-.153-.133-.29c-.085-.187-.264-.305-.459-.305h-.001c-.195 0-.374.118-.459.305l-.133.29-.234.153c-.151.098-.243.272-.243.461 0 .188.092.362.243.461l.234.153.081.178v1.456c-.319.382-.508 1.278-.69 3.021-.081.772-.154 1.702-.222 2.779-.117-2.286-.252-4.159-.406-5.581-.215-2.006-.438-3.054-.794-3.501v-1.542l.166-.362.389-.254c.152-.099.244-.273.244-.461s-.092-.362-.244-.461l-.389-.254-.217-.474c-.085-.187-.264-.305-.459-.305-.196 0-.374.119-.46.305l-.217.474-.389.254c-.151.099-.243.273-.243.461s.092.362.243.461l.389.254.166.362v1.492c-.379.416-.61 1.467-.83 3.551-.18 1.71-.335 4.072-.459 7.022l-.247-.12c-.081-1.685-.177-3.055-.286-4.077-.136-1.281-.279-2.088-.581-2.451.122-.113.198-.27.216-.447.019-.198-.038-.396-.157-.544l-.026-.03c-.134-.136-.315-.214-.496-.214-.154 0-.298.054-.419.157-.133.102-.219.256-.244.435-.027.199.029.41.154.567l.052.057c-.312.355-.456 1.168-.592 2.471-.108 1.027-.201 2.404-.28 4.099l-.228.112c-.125-2.956-.279-5.323-.46-7.036-.217-2.06-.445-3.111-.816-3.537v-1.507l.166-.362.39-.254c.151-.099.243-.273.243-.461s-.092-.362-.243-.461l-.39-.254-.217-.474c-.085-.187-.264-.305-.459-.305-.196 0-.374.119-.46.305l-.217.474-.389.254c-.151.099-.243.273-.243.461s.092.363.243.461l.389.254.166.362v1.525c-.363.437-.589 1.486-.807 3.517-.153 1.422-.289 3.295-.406 5.582-.067-1.078-.142-2.008-.222-2.78-.179-1.724-.367-2.619-.679-3.008v-1.157l.08-.178.235-.153c.151-.099.243-.273.243-.461s-.092-.362-.243-.461l-.235-.153-.132-.289c-.086-.187-.264-.305-.46-.305-.195 0-.374.118-.459.305l-.134.29-.234.153c-.151.099-.243.273-.243.461s.092.362.243.461l.235.153.081.178v1.175c-.305.398-.491 1.292-.672 2.99-.157 1.484-.293 3.549-.404 6.138l-.061 1.553-.009.096v.157c-.024.693-.045 1.372-.063 2.018-.133.151-.211.352-.211.566v4.06h-1.606c-.434 0-.785.372-.785.833 0 .46.351.833.785.833h20.055c.434 0 .786-.373.786-.833 0-.46-.352-.833-.786-.833zm-11.418-9.247l1.043-.508.364-.178.315.154 1.044.511.146.071-.043 1.191-.057-.025-.142-.056-.899-.439-.035-.017c-.209-.102-.449-.102-.657-.001l-.085.041-.57.278c-.157.037-.314.085-.465.142l-.05.02-.04-1.121.13-.063zm8.24 9.154h-1.129l-.005-.037c.01-.759.032-2.193.074-3.916l1.061.519v3.434zm-2.094.467h-2.019l-.004-.083-.019-.291-.006-.093c-.055-.803-.156-2-.333-3.229l-.029-.199c-.147-.973-.316-1.79-.512-2.461-.081-.279-.167-.531-.257-.759.304.202.592.464.862.786.112.133.221.276.327.43.415.599.785 1.354 1.112 2.263.213.596.382 1.195.515 1.748.135.559.231 1.069.3 1.48l.005.035.046.291.012.083zm-3.464 0h-3.009l.005-.083.017-.291c.038-.614.102-1.47.206-2.385.037-.318.078-.644.125-.968l.01-.074c.236-1.611.521-2.59.777-3.153l.131-.259c.164-.286.308-.399.408-.406h.008l.016.001c.109.012.271.149.454.495l.058.114c.27.56.579 1.569.837 3.276l.016.11.12.897c.108.902.177 1.744.219 2.351l.019.291.005.083h-.421zm-5.979 0h-.079l.011-.083.041-.291.021-.142c.068-.441.166-.985.305-1.575.115-.491.259-1.014.437-1.535.295-.867.634-1.594 1.014-2.18.159-.243.323-.464.496-.658.264-.297.544-.538.841-.72-.103.256-.2.546-.291.869-.186.664-.347 1.469-.484 2.423l-.002.017c-.185 1.29-.285 2.564-.337 3.407l-.006.093-.017.291-.004.083h-1.947zm-1.029-.603l-.02.135h-1.114v-3.434l1.061-.516c.041 1.649.063 3.034.073 3.814zm12.842-4.999l-1.286-.63.039-1.209 1.247.61v1.229zm-12.964-.625l-1.287.626v-1.23l1.247-.607.04 1.211zm10.062-2.024l.041 1.249-1.78-.871.042-1.208 1.697.83zm-6.708.39l-1.781.867.041-1.25 1.699-.827.041 1.209zm8.969-8.337c.181 1.124.412 3.404.596 8.028l.005.127-1.163-.569c.173-4.328.389-6.498.562-7.586zm-3.137-3.611c.231 1.094.56 3.723.817 10.03l.012.313-1.607-.786c.242-5.966.555-8.49.778-9.557zm-3.243 1.893l-.055.105-.06.017-.05-.019.155-.169.01.066zm-.158-.11l.061-.025.073.045.006.009-.172.155-.027-.081.059-.102zm.041 2.894c.093.791.193 1.977.286 3.755l-.042-.02c-.135-.067-.292-.067-.427 0l-.096.047c.09-1.793.189-2.987.279-3.782zm-4.153 5.352c.256-6.307.586-8.936.816-10.03.223 1.068.537 3.595.778 9.569l-1.608.783.013-.322zm-2.916 1.611c.185-4.626.415-6.906.596-8.03.173 1.088.391 3.26.563 7.59l-1.164.567.005-.126z" fill="#206FAC" sketch:type="MSShapeGroup"/></g></g></svg>