<svg width="32" height="232" viewBox="0 0 32 232" xmlns="http://www.w3.org/2000/svg" xmlns:sketch="http://www.bohemiancoding.com/sketch/ns"><title>St-Lucia</title><g sketch:type="MSLayerGroup" fill="none"><g fill="#fff" sketch:type="MSShapeGroup"><path d="M28.011 26.039h-15.792c-.555 0-1.006-.481-1.006-1.073s.451-1.073 1.006-1.073l.138-.012c1.405-.085 2.524-1.332 2.524-2.852 0-.504-.124-.978-.34-1.39h12.532c.231 0 .418-.2.418-.446s-.187-.446-.418-.446h-.848c.026-.152.017-.313-.036-.468l-.549-1.603c-.049-.142-.13-.268-.237-.367l-1.207-1.118-.62-1.032c-.151-.251-.41-.405-.689-.41l-.831-.011c-.038-.217-.078-.477-.109-.723-.019-.153-.076-.298-.163-.421l-1.479-2.071c-.174-.244-.453-.375-.738-.348-.286.027-.539.208-.67.48l-1.505 3.124-.665.959-1.211 1.343c-.077.085-.137.185-.176.295l-.738 2.025c-.042.114-.06.232-.057.347h-.732c-.449-.361-1.007-.575-1.611-.575h-4.767l-1.227-9.379c.275.144.514.354.695.621.28.413.391.913.313 1.41-.039.243.115.473.342.514l.07.006c.2 0 .377-.154.412-.372.116-.734-.047-1.474-.46-2.081-.255-.375-.586-.673-.967-.88.689-.319 1.525-.208 2.11.347.172.164.437.148.59-.036.154-.184.138-.466-.034-.629-.831-.79-2.02-.948-2.999-.497.077-.169.177-.328.302-.472.341-.397.814-.634 1.33-.67.23-.016.405-.228.39-.473-.015-.246-.214-.432-.444-.416-.733.05-1.405.39-1.893.957-.142.165-.262.343-.362.531-.536-.763-1.43-1.234-2.411-1.169-.23.016-.405.228-.39.473.015.246.213.431.444.416.731-.051 1.393.322 1.754.91-1.025-.313-2.184.006-2.914.902-.151.186-.133.467.041.629.079.073.177.109.274.109.117 0 .233-.052.316-.154.513-.63 1.33-.853 2.051-.631-.354.257-.646.597-.854 1.004-.337.659-.41 1.414-.207 2.127.055.192.22.316.4.316l.122-.02c.221-.072.345-.32.278-.556-.138-.482-.087-.993.141-1.441.163-.32.404-.58.697-.764l.763 9.368h-2.941c-.462 0-.836.399-.836.891s.374.891.836.891h3.086l.186 2.287h-2.599c-.231 0-.418.2-.418.446s.187.446.418.446h5.183c.231 0 .418-.2.418-.446s-.187-.446-.418-.446h-1.058l-.299-2.287h4.536c.555 0 1.006.481 1.006 1.073s-.451 1.073-1.006 1.073l-.138.012c-1.405.085-2.524 1.332-2.524 2.852 0 1.556 1.173 2.826 2.626 2.856l.029.001h15.815c.462 0 .836-.399.836-.891s-.374-.891-.836-.891zm-11.176-8.851l1.132-1.256.07-.088.737-1.064.071-.122.931-1.931.543.761c.193 1.413.385 1.672.613 1.856.18.145.399.209.621.182.1-.006.464-.006.856-.001l.443.736.156.192 1.135 1.051.426 1.243h-8.303l.569-1.559z" id="Fill-1"/><path d="M19.512 22.458c.179.075.401.167.807.167s.628-.092.807-.167c.148-.061.254-.106.503-.106s.355.044.503.106c.179.075.401.167.807.167s.628-.092.807-.167c.148-.061.254-.106.503-.106s.355.044.503.106c.179.075.401.167.807.167.231 0 .418-.2.418-.446s-.187-.446-.418-.446c-.249 0-.355-.044-.503-.106-.178-.074-.401-.167-.807-.167s-.629.093-.807.167c-.147.061-.254.106-.503.106s-.355-.044-.503-.106c-.178-.074-.401-.167-.807-.167s-.628.093-.807.167c-.147.061-.254.106-.503.106s-.355-.044-.503-.106c-.178-.074-.401-.167-.807-.167s-.628.093-.807.167c-.147.061-.254.106-.503.106s-.355-.044-.503-.106c-.178-.074-.401-.167-.807-.167-.231 0-.418.2-.418.446s.187.446.418.446c.249 0 .355.044.503.106.179.075.401.167.807.167s.628-.093.807-.167c.148-.061.254-.106.503-.106s.355.044.503.106" id="Fill-2"/><path d="M25.894 23.667c-.148.061-.254.106-.503.106s-.355-.044-.503-.106c-.179-.075-.401-.167-.807-.167s-.628.093-.807.167c-.148.061-.254.106-.503.106s-.355-.044-.503-.106c-.178-.075-.401-.167-.807-.167s-.628.092-.807.167c-.147.061-.254.106-.503.106s-.355-.044-.503-.106c-.179-.074-.401-.167-.807-.167-.231 0-.418.2-.418.446s.187.446.418.446c.249 0 .355.044.503.106.178.074.401.167.807.167s.628-.093.807-.167c.148-.061.254-.106.503-.106s.355.044.503.106c.179.074.401.167.807.167s.628-.093.807-.167c.147-.061.254-.106.503-.106s.355.044.503.106c.178.074.401.167.807.167s.628-.093.807-.167c.147-.061.254-.106.503-.106s.355.044.503.106c.179.074.401.167.807.167.231 0 .418-.2.418-.446s-.187-.446-.418-.446c-.249 0-.355-.044-.503-.106-.178-.074-.401-.167-.807-.167s-.629.093-.807.167" id="Fill-3"/><path d="M19.922 6.048c.246-.22.597-.224.845-.028l.008.019c.069.157.217.258.379.258h.051c.162 0 .31-.1.379-.258l.008-.019c.248-.195.599-.193.845.028.177.159.441.134.589-.055.149-.189.126-.47-.051-.628-.52-.466-1.25-.495-1.795-.125-.544-.37-1.274-.341-1.795.125-.177.158-.2.439-.051.628.148.189.412.213.589.055" id="Fill-4"/><path d="M15.729 7.45c.246-.221.597-.223.845-.028l.008.019c.069.157.217.258.379.258h.051c.163 0 .31-.1.379-.258l.008-.019c.248-.196.599-.192.845.028.177.158.44.134.589-.055.148-.189.126-.47-.051-.628-.52-.466-1.25-.495-1.795-.124-.544-.371-1.274-.341-1.795.124-.177.158-.2.439-.051.628.148.188.412.213.589.055" id="Fill-5"/><path d="M10.617 11.099c.193.181.44.281.696.281h1.452l-.004.085c0 .28.113.547.311.732.167.157.382.244.605.244h3.055c.505 0 .915-.438.915-.976s-.411-.976-.915-.976h-.088l.023-.231c0-.619-.472-1.123-1.053-1.123h-4.3c-.256 0-.503.1-.696.281-.227.213-.357.52-.357.842 0 .321.13.628.357.842zm.553-1.015l.143-.058h4.3c.12 0 .217.104.217.231 0 .128-.097.231-.217.231-.231 0-.418.2-.418.446h-.002c0 .246.187.446.418.446h1.12c.044 0 .079.038.079.085 0 .047-.036.085-.079.085h-3.055l-.052-.022-.027-.063.028-.063.052-.021h.002c.231 0 .418-.2.418-.446s-.187-.446-.418-.446h-2.364l-.143-.058c-.028-.026-.074-.083-.074-.173 0-.09.046-.147.074-.173z" id="Fill-6"/></g><g fill="#373D43" sketch:type="MSShapeGroup"><path d="M28.011 65.039h-15.792c-.555 0-1.006-.481-1.006-1.073s.451-1.073 1.006-1.073l.138-.012c1.405-.085 2.524-1.332 2.524-2.852 0-.504-.124-.978-.34-1.39h12.532c.231 0 .418-.2.418-.446s-.187-.446-.418-.446h-.848c.026-.152.017-.313-.036-.468l-.549-1.603c-.049-.142-.13-.268-.237-.367l-1.207-1.118-.62-1.032c-.151-.251-.41-.405-.689-.41l-.831-.011c-.038-.217-.078-.477-.109-.723-.019-.153-.076-.298-.163-.421l-1.479-2.071c-.174-.244-.453-.375-.738-.348-.286.027-.539.208-.67.48l-1.505 3.124-.665.959-1.211 1.343c-.077.085-.137.185-.176.295l-.738 2.025c-.042.114-.06.232-.057.347h-.732c-.449-.361-1.007-.575-1.611-.575h-4.767l-1.227-9.379c.275.144.514.354.695.621.28.413.391.913.313 1.41-.039.243.115.473.342.514l.07.006c.2 0 .377-.154.412-.372.116-.734-.047-1.474-.46-2.081-.255-.375-.586-.673-.967-.88.689-.319 1.525-.208 2.11.347.172.164.437.148.59-.036.154-.184.138-.466-.034-.629-.831-.79-2.02-.948-2.999-.497.077-.169.177-.328.302-.472.341-.397.814-.634 1.33-.67.23-.016.405-.228.39-.473-.015-.246-.214-.432-.444-.416-.733.05-1.405.39-1.893.957-.142.165-.262.343-.362.531-.536-.763-1.43-1.234-2.411-1.169-.23.016-.405.228-.39.473.015.246.213.431.444.416.731-.051 1.393.322 1.754.91-1.025-.313-2.184.006-2.914.902-.151.186-.133.467.041.629.079.073.177.109.274.109.117 0 .233-.052.316-.154.513-.63 1.33-.853 2.051-.631-.354.257-.646.597-.854 1.004-.337.659-.41 1.414-.207 2.127.055.192.22.316.4.316l.122-.02c.221-.072.345-.32.278-.556-.138-.482-.087-.993.141-1.441.163-.32.404-.58.697-.764l.763 9.368h-2.941c-.462 0-.836.399-.836.891s.374.891.836.891h3.086l.186 2.287h-2.599c-.231 0-.418.2-.418.446s.187.446.418.446h5.183c.231 0 .418-.2.418-.446s-.187-.446-.418-.446h-1.058l-.299-2.287h4.536c.555 0 1.006.481 1.006 1.073s-.451 1.073-1.006 1.073l-.138.012c-1.405.085-2.524 1.332-2.524 2.852 0 1.556 1.173 2.826 2.626 2.856l.029.001h15.815c.462 0 .836-.399.836-.891s-.374-.891-.836-.891zm-11.176-8.851l1.132-1.256.07-.088.737-1.064.071-.122.931-1.931.543.761c.193 1.413.385 1.672.613 1.856.18.145.399.209.621.182.1-.006.464-.006.856-.001l.443.736.156.192 1.135 1.051.426 1.243h-8.303l.569-1.559z" id="Fill-1"/><path d="M19.512 61.458c.179.075.401.167.807.167s.628-.092.807-.167c.148-.061.254-.106.503-.106s.355.044.503.106c.179.075.401.167.807.167s.628-.092.807-.167c.148-.061.254-.106.503-.106s.355.044.503.106c.179.075.401.167.807.167.231 0 .418-.2.418-.446s-.187-.446-.418-.446c-.249 0-.355-.044-.503-.106-.178-.074-.401-.167-.807-.167s-.629.093-.807.167c-.147.061-.254.106-.503.106s-.355-.044-.503-.106c-.178-.074-.401-.167-.807-.167s-.628.093-.807.167c-.147.061-.254.106-.503.106s-.355-.044-.503-.106c-.178-.074-.401-.167-.807-.167s-.628.093-.807.167c-.147.061-.254.106-.503.106s-.355-.044-.503-.106c-.178-.074-.401-.167-.807-.167-.231 0-.418.2-.418.446s.187.446.418.446c.249 0 .355.044.503.106.179.075.401.167.807.167s.628-.093.807-.167c.148-.061.254-.106.503-.106s.355.044.503.106" id="Fill-2"/><path d="M25.894 62.667c-.148.061-.254.106-.503.106s-.355-.044-.503-.106c-.179-.075-.401-.167-.807-.167s-.628.093-.807.167c-.148.061-.254.106-.503.106s-.355-.044-.503-.106c-.178-.075-.401-.167-.807-.167s-.628.092-.807.167c-.147.061-.254.106-.503.106s-.355-.044-.503-.106c-.179-.074-.401-.167-.807-.167-.231 0-.418.2-.418.446s.187.446.418.446c.249 0 .355.044.503.106.178.074.401.167.807.167s.628-.093.807-.167c.148-.061.254-.106.503-.106s.355.044.503.106c.179.074.401.167.807.167s.628-.093.807-.167c.147-.061.254-.106.503-.106s.355.044.503.106c.178.074.401.167.807.167s.628-.093.807-.167c.147-.061.254-.106.503-.106s.355.044.503.106c.179.074.401.167.807.167.231 0 .418-.2.418-.446s-.187-.446-.418-.446c-.249 0-.355-.044-.503-.106-.178-.074-.401-.167-.807-.167s-.629.093-.807.167" id="Fill-3"/><path d="M19.922 45.048c.246-.22.597-.224.845-.028l.008.019c.069.157.217.258.379.258h.051c.162 0 .31-.1.379-.258l.008-.019c.248-.195.599-.193.845.028.177.159.441.134.589-.055.149-.189.126-.47-.051-.628-.52-.466-1.25-.495-1.795-.125-.544-.37-1.274-.341-1.795.125-.177.158-.2.439-.051.628.148.189.412.213.589.055" id="Fill-4"/><path d="M15.729 46.45c.246-.221.597-.223.845-.028l.008.019c.069.157.217.258.379.258h.051c.163 0 .31-.1.379-.258l.008-.019c.248-.196.599-.192.845.028.177.158.44.134.589-.055.148-.189.126-.47-.051-.628-.52-.466-1.25-.495-1.795-.124-.544-.371-1.274-.341-1.795.124-.177.158-.2.439-.051.628.148.188.412.213.589.055" id="Fill-5"/><path d="M10.617 50.099c.193.181.44.281.696.281h1.452l-.004.085c0 .28.113.547.311.732.167.157.382.244.605.244h3.055c.505 0 .915-.438.915-.976s-.411-.976-.915-.976h-.088l.023-.231c0-.619-.472-1.123-1.053-1.123h-4.3c-.256 0-.503.1-.696.281-.227.213-.357.52-.357.842 0 .321.13.628.357.842zm.553-1.015l.143-.058h4.3c.12 0 .217.104.217.231 0 .128-.097.231-.217.231-.231 0-.418.2-.418.446h-.002c0 .246.187.446.418.446h1.12c.044 0 .079.038.079.085 0 .047-.036.085-.079.085h-3.055l-.052-.022-.027-.063.028-.063.052-.021h.002c.231 0 .418-.2.418-.446s-.187-.446-.418-.446h-2.364l-.143-.058c-.028-.026-.074-.083-.074-.173 0-.09.046-.147.074-.173z" id="Fill-6"/></g><g fill="#67737B" sketch:type="MSShapeGroup"><path d="M28.011 104.039h-15.792c-.555 0-1.006-.481-1.006-1.073s.451-1.073 1.006-1.073l.138-.012c1.405-.085 2.524-1.332 2.524-2.852 0-.504-.124-.978-.34-1.39h12.532c.231 0 .418-.2.418-.446s-.187-.446-.418-.446h-.848c.026-.152.017-.313-.036-.468l-.549-1.603c-.049-.142-.13-.268-.237-.367l-1.207-1.118-.62-1.032c-.151-.251-.41-.405-.689-.41l-.831-.011c-.038-.217-.078-.477-.109-.723-.019-.153-.076-.298-.163-.421l-1.479-2.071c-.174-.244-.453-.375-.738-.348-.286.027-.539.208-.67.48l-1.505 3.124-.665.959-1.211 1.343c-.077.085-.137.185-.176.295l-.738 2.025c-.042.114-.06.232-.057.347h-.732c-.449-.361-1.007-.575-1.611-.575h-4.767l-1.227-9.379c.275.144.514.354.695.621.28.413.391.913.313 1.41-.039.243.115.473.342.514l.07.006c.2 0 .377-.154.412-.372.116-.734-.047-1.474-.46-2.081-.255-.375-.586-.673-.967-.88.689-.319 1.525-.208 2.11.347.172.164.437.148.59-.036.154-.184.138-.466-.034-.629-.831-.79-2.02-.948-2.999-.497.077-.169.177-.328.302-.472.341-.397.814-.634 1.33-.67.23-.016.405-.228.39-.473-.015-.246-.214-.432-.444-.416-.733.05-1.405.39-1.893.957-.142.165-.262.343-.362.531-.536-.763-1.43-1.234-2.411-1.169-.23.016-.405.228-.39.473.015.246.213.431.444.416.731-.051 1.393.322 1.754.91-1.025-.313-2.184.006-2.914.902-.151.186-.133.467.041.629.079.073.177.109.274.109.117 0 .233-.052.316-.154.513-.63 1.33-.853 2.051-.631-.354.257-.646.597-.854 1.004-.337.659-.41 1.414-.207 2.127.055.192.22.316.4.316l.122-.02c.221-.072.345-.32.278-.556-.138-.482-.087-.993.141-1.441.163-.32.404-.58.697-.764l.763 9.368h-2.941c-.462 0-.836.399-.836.891s.374.891.836.891h3.086l.186 2.287h-2.599c-.231 0-.418.2-.418.446s.187.446.418.446h5.183c.231 0 .418-.2.418-.446s-.187-.446-.418-.446h-1.058l-.299-2.287h4.536c.555 0 1.006.481 1.006 1.073s-.451 1.073-1.006 1.073l-.138.012c-1.405.085-2.524 1.332-2.524 2.852 0 1.556 1.173 2.826 2.626 2.856l.029.001h15.815c.462 0 .836-.399.836-.891s-.374-.891-.836-.891zm-11.176-8.851l1.132-1.256.07-.088.737-1.064.071-.122.931-1.931.543.761c.193 1.413.385 1.672.613 1.856.18.145.399.209.621.182.1-.006.464-.006.856-.001l.443.736.156.192 1.135 1.051.426 1.243h-8.303l.569-1.559z"/><path d="M19.512 100.458c.179.075.401.167.807.167s.628-.092.807-.167c.148-.061.254-.106.503-.106s.355.044.503.106c.179.075.401.167.807.167s.628-.092.807-.167c.148-.061.254-.106.503-.106s.355.044.503.106c.179.075.401.167.807.167.231 0 .418-.2.418-.446s-.187-.446-.418-.446c-.249 0-.355-.044-.503-.106-.178-.074-.401-.167-.807-.167s-.629.093-.807.167c-.147.061-.254.106-.503.106s-.355-.044-.503-.106c-.178-.074-.401-.167-.807-.167s-.628.093-.807.167c-.147.061-.254.106-.503.106s-.355-.044-.503-.106c-.178-.074-.401-.167-.807-.167s-.628.093-.807.167c-.147.061-.254.106-.503.106s-.355-.044-.503-.106c-.178-.074-.401-.167-.807-.167-.231 0-.418.2-.418.446s.187.446.418.446c.249 0 .355.044.503.106.179.075.401.167.807.167s.628-.093.807-.167c.148-.061.254-.106.503-.106s.355.044.503.106"/><path d="M25.894 101.667c-.148.061-.254.106-.503.106s-.355-.044-.503-.106c-.179-.075-.401-.167-.807-.167s-.628.093-.807.167c-.148.061-.254.106-.503.106s-.355-.044-.503-.106c-.178-.075-.401-.167-.807-.167s-.628.092-.807.167c-.147.061-.254.106-.503.106s-.355-.044-.503-.106c-.179-.074-.401-.167-.807-.167-.231 0-.418.2-.418.446s.187.446.418.446c.249 0 .355.044.503.106.178.074.401.167.807.167s.628-.093.807-.167c.148-.061.254-.106.503-.106s.355.044.503.106c.179.074.401.167.807.167s.628-.093.807-.167c.147-.061.254-.106.503-.106s.355.044.503.106c.178.074.401.167.807.167s.628-.093.807-.167c.147-.061.254-.106.503-.106s.355.044.503.106c.179.074.401.167.807.167.231 0 .418-.2.418-.446s-.187-.446-.418-.446c-.249 0-.355-.044-.503-.106-.178-.074-.401-.167-.807-.167s-.629.093-.807.167"/><path d="M19.922 84.048c.246-.22.597-.224.845-.028l.008.019c.069.157.217.258.379.258h.051c.162 0 .31-.1.379-.258l.008-.019c.248-.195.599-.193.845.028.177.159.441.134.589-.055.149-.189.126-.47-.051-.628-.52-.466-1.25-.495-1.795-.125-.544-.37-1.274-.341-1.795.125-.177.158-.2.439-.051.628.148.189.412.213.589.055"/><path d="M15.729 85.45c.246-.221.597-.223.845-.028l.008.019c.069.157.217.258.379.258h.051c.163 0 .31-.1.379-.258l.008-.019c.248-.196.599-.192.845.028.177.158.44.134.589-.055.148-.189.126-.47-.051-.628-.52-.466-1.25-.495-1.795-.124-.544-.371-1.274-.341-1.795.124-.177.158-.2.439-.051.628.148.188.412.213.589.055"/><path d="M10.617 89.099c.193.181.44.281.696.281h1.452l-.004.085c0 .28.113.547.311.732.167.157.382.244.605.244h3.055c.505 0 .915-.438.915-.976s-.411-.976-.915-.976h-.088l.023-.231c0-.619-.472-1.123-1.053-1.123h-4.3c-.256 0-.503.1-.696.281-.227.213-.357.52-.357.842 0 .321.13.628.357.842zm.553-1.015l.143-.058h4.3c.12 0 .217.104.217.231 0 .128-.097.231-.217.231-.231 0-.418.2-.418.446h-.002c0 .246.187.446.418.446h1.12c.044 0 .079.038.079.085 0 .047-.036.085-.079.085h-3.055l-.052-.022-.027-.063.028-.063.052-.021h.002c.231 0 .418-.2.418-.446s-.187-.446-.418-.446h-2.364l-.143-.058c-.028-.026-.074-.083-.074-.173 0-.09.046-.147.074-.173z"/></g><g fill="#206FAC" sketch:type="MSShapeGroup"><path d="M28.011 145.039h-15.792c-.555 0-1.006-.481-1.006-1.073s.451-1.073 1.006-1.073l.138-.012c1.405-.085 2.524-1.332 2.524-2.852 0-.504-.124-.978-.34-1.39h12.532c.231 0 .418-.2.418-.446s-.187-.446-.418-.446h-.848c.026-.152.017-.313-.036-.468l-.549-1.603c-.049-.142-.13-.268-.237-.367l-1.207-1.118-.62-1.032c-.151-.251-.41-.405-.689-.41l-.831-.011c-.038-.217-.078-.477-.109-.723-.019-.153-.076-.298-.163-.421l-1.479-2.071c-.174-.244-.453-.375-.738-.348-.286.027-.539.208-.67.48l-1.505 3.124-.665.959-1.211 1.343c-.077.085-.137.185-.176.295l-.738 2.025c-.042.114-.06.232-.057.347h-.732c-.449-.361-1.007-.575-1.611-.575h-4.767l-1.227-9.379c.275.144.514.354.695.621.28.413.391.913.313 1.41-.039.243.115.473.342.514l.07.006c.2 0 .377-.154.412-.372.116-.734-.047-1.474-.46-2.081-.255-.375-.586-.673-.967-.88.689-.319 1.525-.208 2.11.347.172.164.437.148.59-.036.154-.184.138-.466-.034-.629-.831-.79-2.02-.948-2.999-.497.077-.169.177-.328.302-.472.341-.397.814-.634 1.33-.67.23-.016.405-.228.39-.473-.015-.246-.214-.432-.444-.416-.733.05-1.405.39-1.893.957-.142.165-.262.343-.362.531-.536-.763-1.43-1.234-2.411-1.169-.23.016-.405.228-.39.473.015.246.213.431.444.416.731-.051 1.393.322 1.754.91-1.025-.313-2.184.006-2.914.902-.151.186-.133.467.041.629.079.073.177.109.274.109.117 0 .233-.052.316-.154.513-.63 1.33-.853 2.051-.631-.354.257-.646.597-.854 1.004-.337.659-.41 1.414-.207 2.127.055.192.22.316.4.316l.122-.02c.221-.072.345-.32.278-.556-.138-.482-.087-.993.141-1.441.163-.32.404-.58.697-.764l.763 9.368h-2.941c-.462 0-.836.399-.836.891s.374.891.836.891h3.086l.186 2.287h-2.599c-.231 0-.418.2-.418.446s.187.446.418.446h5.183c.231 0 .418-.2.418-.446s-.187-.446-.418-.446h-1.058l-.299-2.287h4.536c.555 0 1.006.481 1.006 1.073s-.451 1.073-1.006 1.073l-.138.012c-1.405.085-2.524 1.332-2.524 2.852 0 1.556 1.173 2.826 2.626 2.856l.029.001h15.815c.462 0 .836-.399.836-.891s-.374-.891-.836-.891zm-11.176-8.851l1.132-1.256.07-.088.737-1.064.071-.122.931-1.931.543.761c.193 1.413.385 1.672.613 1.856.18.145.399.209.621.182.1-.006.464-.006.856-.001l.443.736.156.192 1.135 1.051.426 1.243h-8.303l.569-1.559zM19.512 141.458c.179.075.401.167.807.167s.628-.092.807-.167c.148-.061.254-.106.503-.106s.355.044.503.106c.179.075.401.167.807.167s.628-.092.807-.167c.148-.061.254-.106.503-.106s.355.044.503.106c.179.075.401.167.807.167.231 0 .418-.2.418-.446s-.187-.446-.418-.446c-.249 0-.355-.044-.503-.106-.178-.074-.401-.167-.807-.167s-.629.093-.807.167c-.147.061-.254.106-.503.106s-.355-.044-.503-.106c-.178-.074-.401-.167-.807-.167s-.628.093-.807.167c-.147.061-.254.106-.503.106s-.355-.044-.503-.106c-.178-.074-.401-.167-.807-.167s-.628.093-.807.167c-.147.061-.254.106-.503.106s-.355-.044-.503-.106c-.178-.074-.401-.167-.807-.167-.231 0-.418.2-.418.446s.187.446.418.446c.249 0 .355.044.503.106.179.075.401.167.807.167s.628-.093.807-.167c.148-.061.254-.106.503-.106s.355.044.503.106M25.894 142.667c-.148.061-.254.106-.503.106s-.355-.044-.503-.106c-.179-.075-.401-.167-.807-.167s-.628.093-.807.167c-.148.061-.254.106-.503.106s-.355-.044-.503-.106c-.178-.075-.401-.167-.807-.167s-.628.092-.807.167c-.147.061-.254.106-.503.106s-.355-.044-.503-.106c-.179-.074-.401-.167-.807-.167-.231 0-.418.2-.418.446s.187.446.418.446c.249 0 .355.044.503.106.178.074.401.167.807.167s.628-.093.807-.167c.148-.061.254-.106.503-.106s.355.044.503.106c.179.074.401.167.807.167s.628-.093.807-.167c.147-.061.254-.106.503-.106s.355.044.503.106c.178.074.401.167.807.167s.628-.093.807-.167c.147-.061.254-.106.503-.106s.355.044.503.106c.179.074.401.167.807.167.231 0 .418-.2.418-.446s-.187-.446-.418-.446c-.249 0-.355-.044-.503-.106-.178-.074-.401-.167-.807-.167s-.629.093-.807.167M19.922 125.048c.246-.22.597-.224.845-.028l.008.019c.069.157.217.258.379.258h.051c.162 0 .31-.1.379-.258l.008-.019c.248-.195.599-.193.845.028.177.159.441.134.589-.055.149-.189.126-.47-.051-.628-.52-.466-1.25-.495-1.795-.125-.544-.37-1.274-.341-1.795.125-.177.158-.2.439-.051.628.148.189.412.213.589.055M15.729 126.45c.246-.221.597-.223.845-.028l.008.019c.069.157.217.258.379.258h.051c.163 0 .31-.1.379-.258l.008-.019c.248-.196.599-.192.845.028.177.158.44.134.589-.055.148-.189.126-.47-.051-.628-.52-.466-1.25-.495-1.795-.124-.544-.371-1.274-.341-1.795.124-.177.158-.2.439-.051.628.148.188.412.213.589.055"/><path d="M10.617 130.099c.193.181.44.281.696.281h1.452l-.004.085c0 .28.113.547.311.732.167.157.382.244.605.244h3.055c.505 0 .915-.438.915-.976s-.411-.976-.915-.976h-.088l.023-.231c0-.619-.472-1.123-1.053-1.123h-4.3c-.256 0-.503.1-.696.281-.227.213-.357.52-.357.842 0 .321.13.628.357.842zm.553-1.015l.143-.058h4.3c.12 0 .217.104.217.231 0 .128-.097.231-.217.231-.231 0-.418.2-.418.446h-.002c0 .246.187.446.418.446h1.12c.044 0 .079.038.079.085 0 .047-.036.085-.079.085h-3.055l-.052-.022-.027-.063.028-.063.052-.021h.002c.231 0 .418-.2.418-.446s-.187-.446-.418-.446h-2.364l-.143-.058c-.028-.026-.074-.083-.074-.173 0-.09.046-.147.074-.173z"/></g></g></svg>