<svg width="32" height="232" viewBox="0 0 32 232" xmlns="http://www.w3.org/2000/svg" xmlns:sketch="http://www.bohemiancoding.com/sketch/ns"><title>Zermatt_Switzerland</title><g sketch:type="MSLayerGroup" fill="none"><g fill="#fff" sketch:type="MSShapeGroup"><path d="M25.979 103.073c-.208 0-.294-.034-.422-.087-.161-.065-.362-.146-.729-.146s-.568.081-.729.146c-.129.052-.214.087-.422.087s-.293-.034-.422-.087c-.161-.065-.362-.146-.729-.146s-.568.081-.729.146c-.129.052-.214.087-.422.087s-.293-.034-.422-.087c-.161-.065-.362-.146-.729-.146s-.568.081-.729.146c-.129.052-.214.087-.422.087s-.293-.034-.422-.087c-.161-.065-.362-.146-.729-.146s-.568.081-.729.146c-.129.052-.214.087-.422.087s-.293-.034-.422-.087c-.161-.065-.362-.146-.729-.146s-.568.081-.729.146c-.129.052-.214.087-.422.087s-.293-.034-.422-.087c-.161-.065-.362-.146-.729-.146s-.568.081-.729.146c-.129.052-.214.087-.422.087s-.293-.034-.422-.087c-.161-.065-.362-.146-.729-.146s-.568.081-.729.146c-.129.052-.214.087-.422.087-.233 0-.422.196-.422.438s.189.438.422.438c.367 0 .568-.081.729-.147.129-.052.214-.086.422-.086s.293.034.422.086c.161.065.362.147.729.147s.568-.081.729-.147c.129-.052.214-.086.422-.086s.293.034.422.086c.161.065.362.147.729.147s.568-.081.729-.147c.129-.052.214-.086.422-.086s.293.034.422.086c.161.065.362.147.729.147s.568-.081.729-.147c.129-.052.214-.086.422-.086s.293.034.422.086c.161.065.362.147.729.147s.568-.081.729-.147c.129-.052.214-.086.422-.086s.294.034.422.087c.161.065.362.146.729.146s.568-.081.729-.147c.129-.052.214-.086.422-.086s.293.034.422.086c.161.065.362.147.729.147s.568-.081.729-.147c.129-.052.214-.086.422-.086s.293.034.422.086c.161.065.362.147.729.147.233 0 .422-.196.422-.438s-.189-.438-.422-.438" id="Fill-1"/><path d="M28.736 95.659l-.882-.66c-.159-.119-.376-.109-.524.025l-1.33 1.202-.1.09-.363-.05-.796-.111-.595-.485c-.105-.086-.243-.115-.373-.078l-1.25.356-.693-.898-.063-.072-2.86-2.962-1.481-1.763-1.489-3.727c-.066-.166-.18-.307-.327-.403l-1.485-.981c-.26-.172-.589-.182-.86-.029-.27.154-.438.448-.438.768v.792l-.737.873c-.09.107-.154.234-.186.372l-.054.234c-.2-.364-.578-.611-1.01-.611h-6.696c-.283 0-.555.107-.768.302-.251.229-.394.559-.394.904s.144.675.395.904c.213.194.486.302.768.302h3.448l-.014.164c0 .298.124.582.34.779.183.168.419.26.662.26h2.575l-.312 1.35-1.309.792c-.259.157-.419.445-.419.756v1.646h-.236c-.243 0-.475.109-.635.299l-.116.138-1.353-.276-.192.007-.843.236-.968-.487c-.21-.106-.462-.015-.564.203-.102.218-.014.479.196.585l1.11.559c.092.046.196.056.294.029l.901-.253.777.158-.186.221-.123.192-1.584 3.362c-.082.174-.102.363-.071.54l-.262.029c-.208 0-.293-.034-.422-.087-.161-.065-.362-.146-.729-.146-.233 0-.422.196-.422.438s.189.438.422.438c.208 0 .293.034.422.087.161.065.362.146.729.146s.568-.081.729-.146l.173-.061.189.023.239-.037.243.075c.161.065.362.146.729.146s.568-.081.729-.146c.129-.052.214-.087.422-.087s.293.034.422.087c.161.065.362.146.729.146s.568-.081.729-.146c.129-.052.214-.087.422-.087s.293.034.422.087c.161.065.362.146.729.146s.568-.081.729-.146c.129-.052.214-.087.422-.087s.293.034.422.087c.161.065.362.146.729.146s.568-.081.729-.146c.129-.052.214-.087.422-.087s.293.034.422.087c.161.065.362.146.729.146s.568-.081.729-.146c.129-.052.214-.087.422-.087s.293.034.422.087c.161.065.362.146.729.146s.568-.081.729-.146c.129-.052.214-.087.422-.087.209 0 .294.034.422.087.161.065.362.146.729.146s.568-.081.729-.146c.129-.052.214-.087.422-.087s.293.034.422.087c.161.065.362.146.729.146s.568-.081.729-.146c.129-.052.214-.087.422-.087s.293.034.422.087c.161.065.362.146.729.146s.568-.081.729-.146c.129-.052.214-.087.422-.087.209 0 .294.034.423.087.161.065.362.146.729.146.233 0 .422-.196.422-.438s-.189-.438-.422-.438c-.209 0-.294-.034-.423-.087-.161-.065-.362-.146-.729-.146l-.254.015c-.006-.163-.055-.327-.152-.47l-.675-.996-.073-.093-1.621-1.806-.083-.081-1.079-.916.599-.17.518.422c.059.048.13.079.205.09l1.463.203.056.004c.101 0 .2-.038.277-.108l1.321-1.194.61.457c.189.141.453.098.589-.099.136-.196.094-.47-.095-.611zm-20.311-5.541l.055-.123.104-.041h.002c.233 0 .422-.196.422-.438s-.189-.438-.422-.438h-4.439c-.098 0-.169-.045-.21-.083-.041-.037-.109-.119-.109-.247 0-.129.068-.211.109-.247.041-.038.112-.083.21-.083h6.696c.176 0 .319.148.319.331 0 .182-.143.331-.319.331-.233 0-.422.196-.422.438h-.002c0 .242.189.438.422.438h.595l-.076.328h-2.777l-.104-.041-.054-.123zm16.276 10.499l.271.4-.144-.005c-.367 0-.568.081-.729.146-.129.052-.214.087-.422.087s-.293-.034-.422-.087c-.161-.065-.362-.146-.729-.146s-.568.081-.729.146c-.129.052-.214.087-.422.087s-.293-.034-.422-.087c-.161-.065-.362-.146-.729-.146s-.568.081-.729.146c-.129.052-.214.087-.422.087s-.293-.034-.422-.087c-.161-.065-.362-.146-.729-.146s-.568.081-.729.146c-.129.052-.214.087-.422.087s-.293-.034-.422-.087c-.161-.065-.362-.146-.729-.146s-.568.081-.729.146c-.129.052-.214.087-.422.087s-.293-.034-.422-.087c-.161-.065-.362-.146-.729-.146s-.568.081-.729.146c-.129.052-.214.087-.422.087s-.293-.034-.422-.087c-.161-.065-.362-.146-.729-.146s-.568.081-.729.146c-.129.052-.214.087-.422.087s-.293-.034-.422-.087c-.161-.065-.362-.146-.729-.146s-.568.081-.729.146c-.129.052-.214.087-.422.087-.158 0-.244-.02-.333-.052l1.416-3.006.619-.734h.698c.466 0 .844-.392.844-.876v-2.019l1.202-.727c.199-.12.342-.32.396-.552l.611-2.642c.086-.153.135-.33.135-.52l-.003-.055.353-1.527.426-.504.243 1.466.044.133.183.353-.183.353c-.07.135-.067.299.009.431l.439.768v1.844l-.173.415-.035.174v.646l-.417.499c-.067.08-.103.181-.103.287v.685c0 .123.05.241.139.324l.668.629.288.61.034.06.48.707c.079.116.208.186.345.186h.648l.552.398c.073.053.157.078.241.078.134 0 .265-.066.347-.188.133-.198.086-.471-.106-.609l-.66-.476c-.071-.051-.155-.078-.241-.078h-.561l-.335-.493-.309-.654-.096-.132-.59-.555v-.327l.417-.499c.067-.08.103-.181.103-.287v-.719l.173-.415.035-.174v-2.055c0-.079-.021-.156-.059-.223l-.377-.659.052-.101.125-.241c.067-.129.067-.285 0-.415l-.258-.498-.158-.949 1.089 2.726c.035.087.083.168.143.24l1.591 1.894.04.044 2.847 2.949 1.051 1.363.125.131 1.441 1.223 1.542 1.718z" id="Fill-2"/><path d="M17.56 89.599h3.726c.233 0 .422-.196.422-.438s-.189-.438-.422-.438h-3.726c-.233 0-.422.196-.422.438s.189.438.422.438" id="Fill-3"/><path d="M19.037 88.416h6.295c.233 0 .422-.196.422-.438s-.189-.438-.422-.438h-6.295c-.233 0-.422.196-.422.438s.189.438.422.438" id="Fill-4"/></g><g fill="#373D43" sketch:type="MSShapeGroup"><path d="M25.979 24.073c-.208 0-.294-.034-.422-.087-.161-.065-.362-.146-.729-.146s-.568.081-.729.146c-.129.052-.214.087-.422.087s-.293-.034-.422-.087c-.161-.065-.362-.146-.729-.146s-.568.081-.729.146c-.129.052-.214.087-.422.087s-.293-.034-.422-.087c-.161-.065-.362-.146-.729-.146s-.568.081-.729.146c-.129.052-.214.087-.422.087s-.293-.034-.422-.087c-.161-.065-.362-.146-.729-.146s-.568.081-.729.146c-.129.052-.214.087-.422.087s-.293-.034-.422-.087c-.161-.065-.362-.146-.729-.146s-.568.081-.729.146c-.129.052-.214.087-.422.087s-.293-.034-.422-.087c-.161-.065-.362-.146-.729-.146s-.568.081-.729.146c-.129.052-.214.087-.422.087s-.293-.034-.422-.087c-.161-.065-.362-.146-.729-.146s-.568.081-.729.146c-.129.052-.214.087-.422.087-.233 0-.422.196-.422.438s.189.438.422.438c.367 0 .568-.081.729-.147.129-.052.214-.086.422-.086s.293.034.422.086c.161.065.362.147.729.147s.568-.081.729-.147c.129-.052.214-.086.422-.086s.293.034.422.086c.161.065.362.147.729.147s.568-.081.729-.147c.129-.052.214-.086.422-.086s.293.034.422.086c.161.065.362.147.729.147s.568-.081.729-.147c.129-.052.214-.086.422-.086s.293.034.422.086c.161.065.362.147.729.147s.568-.081.729-.147c.129-.052.214-.086.422-.086s.294.034.422.087c.161.065.362.146.729.146s.568-.081.729-.147c.129-.052.214-.086.422-.086s.293.034.422.086c.161.065.362.147.729.147s.568-.081.729-.147c.129-.052.214-.086.422-.086s.293.034.422.086c.161.065.362.147.729.147.233 0 .422-.196.422-.438s-.189-.438-.422-.438" id="Fill-1"/><path d="M28.736 16.659l-.882-.66c-.159-.119-.376-.109-.524.025l-1.33 1.202-.1.09-.363-.05-.796-.111-.595-.485c-.105-.086-.243-.115-.373-.078l-1.25.356-.693-.898-.063-.072-2.86-2.962-1.481-1.763-1.489-3.727c-.066-.166-.18-.307-.327-.403l-1.485-.981c-.26-.172-.589-.182-.86-.029-.27.154-.438.448-.438.768v.792l-.737.873c-.09.107-.154.234-.186.372l-.054.234c-.2-.364-.578-.611-1.01-.611h-6.696c-.283 0-.555.107-.768.302-.251.229-.394.559-.394.904s.144.675.395.904c.213.194.486.302.768.302h3.448l-.014.164c0 .298.124.582.34.779.183.168.419.26.662.26h2.575l-.312 1.35-1.309.792c-.259.157-.419.445-.419.756v1.646h-.236c-.243 0-.475.109-.635.299l-.116.138-1.353-.276-.192.007-.843.236-.968-.487c-.21-.106-.462-.015-.564.203-.102.218-.014.479.196.585l1.11.559c.092.046.196.056.294.029l.901-.253.777.158-.186.221-.123.192-1.584 3.362c-.082.174-.102.363-.071.54l-.262.029c-.208 0-.293-.034-.422-.087-.161-.065-.362-.146-.729-.146-.233 0-.422.196-.422.438s.189.438.422.438c.208 0 .293.034.422.087.161.065.362.146.729.146s.568-.081.729-.146l.173-.061.189.023.239-.037.243.075c.161.065.362.146.729.146s.568-.081.729-.146c.129-.052.214-.087.422-.087s.293.034.422.087c.161.065.362.146.729.146s.568-.081.729-.146c.129-.052.214-.087.422-.087s.293.034.422.087c.161.065.362.146.729.146s.568-.081.729-.146c.129-.052.214-.087.422-.087s.293.034.422.087c.161.065.362.146.729.146s.568-.081.729-.146c.129-.052.214-.087.422-.087s.293.034.422.087c.161.065.362.146.729.146s.568-.081.729-.146c.129-.052.214-.087.422-.087s.293.034.422.087c.161.065.362.146.729.146s.568-.081.729-.146c.129-.052.214-.087.422-.087.209 0 .294.034.422.087.161.065.362.146.729.146s.568-.081.729-.146c.129-.052.214-.087.422-.087s.293.034.422.087c.161.065.362.146.729.146s.568-.081.729-.146c.129-.052.214-.087.422-.087s.293.034.422.087c.161.065.362.146.729.146s.568-.081.729-.146c.129-.052.214-.087.422-.087.209 0 .294.034.423.087.161.065.362.146.729.146.233 0 .422-.196.422-.438s-.189-.438-.422-.438c-.209 0-.294-.034-.423-.087-.161-.065-.362-.146-.729-.146l-.254.015c-.006-.163-.055-.327-.152-.47l-.675-.996-.073-.093-1.621-1.806-.083-.081-1.079-.916.599-.17.518.422c.059.048.13.079.205.09l1.463.203.056.004c.101 0 .2-.038.277-.108l1.321-1.194.61.457c.189.141.453.098.589-.099.136-.196.094-.47-.095-.611zm-20.311-5.541l.055-.123.104-.041h.002c.233 0 .422-.196.422-.438s-.189-.438-.422-.438h-4.439c-.098 0-.169-.045-.21-.083-.041-.037-.109-.119-.109-.247 0-.129.068-.211.109-.247.041-.038.112-.083.21-.083h6.696c.176 0 .319.148.319.331 0 .182-.143.331-.319.331-.233 0-.422.196-.422.438h-.002c0 .242.189.438.422.438h.595l-.076.328h-2.777l-.104-.041-.054-.123zm16.276 10.499l.271.4-.144-.005c-.367 0-.568.081-.729.146-.129.052-.214.087-.422.087s-.293-.034-.422-.087c-.161-.065-.362-.146-.729-.146s-.568.081-.729.146c-.129.052-.214.087-.422.087s-.293-.034-.422-.087c-.161-.065-.362-.146-.729-.146s-.568.081-.729.146c-.129.052-.214.087-.422.087s-.293-.034-.422-.087c-.161-.065-.362-.146-.729-.146s-.568.081-.729.146c-.129.052-.214.087-.422.087s-.293-.034-.422-.087c-.161-.065-.362-.146-.729-.146s-.568.081-.729.146c-.129.052-.214.087-.422.087s-.293-.034-.422-.087c-.161-.065-.362-.146-.729-.146s-.568.081-.729.146c-.129.052-.214.087-.422.087s-.293-.034-.422-.087c-.161-.065-.362-.146-.729-.146s-.568.081-.729.146c-.129.052-.214.087-.422.087s-.293-.034-.422-.087c-.161-.065-.362-.146-.729-.146s-.568.081-.729.146c-.129.052-.214.087-.422.087-.158 0-.244-.02-.333-.052l1.416-3.006.619-.734h.698c.466 0 .844-.392.844-.876v-2.019l1.202-.727c.199-.12.342-.32.396-.552l.611-2.642c.086-.153.135-.33.135-.52l-.003-.055.353-1.527.426-.504.243 1.466.044.133.183.353-.183.353c-.07.135-.067.299.009.431l.439.768v1.844l-.173.415-.035.174v.646l-.417.499c-.067.08-.103.181-.103.287v.685c0 .123.05.241.139.324l.668.629.288.61.034.06.48.707c.079.116.208.186.345.186h.648l.552.398c.073.053.157.078.241.078.134 0 .265-.066.347-.188.133-.198.086-.471-.106-.609l-.66-.476c-.071-.051-.155-.078-.241-.078h-.561l-.335-.493-.309-.654-.096-.132-.59-.555v-.327l.417-.499c.067-.08.103-.181.103-.287v-.719l.173-.415.035-.174v-2.055c0-.079-.021-.156-.059-.223l-.377-.659.052-.101.125-.241c.067-.129.067-.285 0-.415l-.258-.498-.158-.949 1.089 2.726c.035.087.083.168.143.24l1.591 1.894.04.044 2.847 2.949 1.051 1.363.125.131 1.441 1.223 1.542 1.718z" id="Fill-2"/><path d="M17.56 10.599h3.726c.233 0 .422-.196.422-.438s-.189-.438-.422-.438h-3.726c-.233 0-.422.196-.422.438s.189.438.422.438" id="Fill-3"/><path d="M19.037 9.416h6.295c.233 0 .422-.196.422-.438s-.189-.438-.422-.438h-6.295c-.233 0-.422.196-.422.438s.189.438.422.438" id="Fill-4"/></g><g fill="#67737B" sketch:type="MSShapeGroup"><path d="M25.979 64.073c-.208 0-.294-.034-.422-.087-.161-.065-.362-.146-.729-.146s-.568.081-.729.146c-.129.052-.214.087-.422.087s-.293-.034-.422-.087c-.161-.065-.362-.146-.729-.146s-.568.081-.729.146c-.129.052-.214.087-.422.087s-.293-.034-.422-.087c-.161-.065-.362-.146-.729-.146s-.568.081-.729.146c-.129.052-.214.087-.422.087s-.293-.034-.422-.087c-.161-.065-.362-.146-.729-.146s-.568.081-.729.146c-.129.052-.214.087-.422.087s-.293-.034-.422-.087c-.161-.065-.362-.146-.729-.146s-.568.081-.729.146c-.129.052-.214.087-.422.087s-.293-.034-.422-.087c-.161-.065-.362-.146-.729-.146s-.568.081-.729.146c-.129.052-.214.087-.422.087s-.293-.034-.422-.087c-.161-.065-.362-.146-.729-.146s-.568.081-.729.146c-.129.052-.214.087-.422.087-.233 0-.422.196-.422.438s.189.438.422.438c.367 0 .568-.081.729-.147.129-.052.214-.086.422-.086s.293.034.422.086c.161.065.362.147.729.147s.568-.081.729-.147c.129-.052.214-.086.422-.086s.293.034.422.086c.161.065.362.147.729.147s.568-.081.729-.147c.129-.052.214-.086.422-.086s.293.034.422.086c.161.065.362.147.729.147s.568-.081.729-.147c.129-.052.214-.086.422-.086s.293.034.422.086c.161.065.362.147.729.147s.568-.081.729-.147c.129-.052.214-.086.422-.086s.294.034.422.087c.161.065.362.146.729.146s.568-.081.729-.147c.129-.052.214-.086.422-.086s.293.034.422.086c.161.065.362.147.729.147s.568-.081.729-.147c.129-.052.214-.086.422-.086s.293.034.422.086c.161.065.362.147.729.147.233 0 .422-.196.422-.438s-.189-.438-.422-.438"/><path d="M28.736 56.659l-.882-.66c-.159-.119-.376-.109-.524.025l-1.33 1.202-.1.09-.363-.05-.796-.111-.595-.485c-.105-.086-.243-.115-.373-.078l-1.25.356-.693-.898-.063-.072-2.86-2.962-1.481-1.763-1.489-3.727c-.066-.166-.18-.307-.327-.403l-1.485-.981c-.26-.172-.589-.182-.86-.029-.27.154-.438.448-.438.768v.792l-.737.873c-.09.107-.154.234-.186.372l-.054.234c-.2-.364-.578-.611-1.01-.611h-6.696c-.283 0-.555.107-.768.302-.251.229-.394.559-.394.904s.144.675.395.904c.213.194.486.302.768.302h3.448l-.014.164c0 .298.124.582.34.779.183.168.419.26.662.26h2.575l-.312 1.35-1.309.792c-.259.157-.419.445-.419.756v1.646h-.236c-.243 0-.475.109-.635.299l-.116.138-1.353-.276-.192.007-.843.236-.968-.487c-.21-.106-.462-.015-.564.203-.102.218-.014.479.196.585l1.11.559c.092.046.196.056.294.029l.901-.253.777.158-.186.221-.123.192-1.584 3.362c-.082.174-.102.363-.071.54l-.262.029c-.208 0-.293-.034-.422-.087-.161-.065-.362-.146-.729-.146-.233 0-.422.196-.422.438s.189.438.422.438c.208 0 .293.034.422.087.161.065.362.146.729.146s.568-.081.729-.146l.173-.061.189.023.239-.037.243.075c.161.065.362.146.729.146s.568-.081.729-.146c.129-.052.214-.087.422-.087s.293.034.422.087c.161.065.362.146.729.146s.568-.081.729-.146c.129-.052.214-.087.422-.087s.293.034.422.087c.161.065.362.146.729.146s.568-.081.729-.146c.129-.052.214-.087.422-.087s.293.034.422.087c.161.065.362.146.729.146s.568-.081.729-.146c.129-.052.214-.087.422-.087s.293.034.422.087c.161.065.362.146.729.146s.568-.081.729-.146c.129-.052.214-.087.422-.087s.293.034.422.087c.161.065.362.146.729.146s.568-.081.729-.146c.129-.052.214-.087.422-.087.209 0 .294.034.422.087.161.065.362.146.729.146s.568-.081.729-.146c.129-.052.214-.087.422-.087s.293.034.422.087c.161.065.362.146.729.146s.568-.081.729-.146c.129-.052.214-.087.422-.087s.293.034.422.087c.161.065.362.146.729.146s.568-.081.729-.146c.129-.052.214-.087.422-.087.209 0 .294.034.423.087.161.065.362.146.729.146.233 0 .422-.196.422-.438s-.189-.438-.422-.438c-.209 0-.294-.034-.423-.087-.161-.065-.362-.146-.729-.146l-.254.015c-.006-.163-.055-.327-.152-.47l-.675-.996-.073-.093-1.621-1.806-.083-.081-1.079-.916.599-.17.518.422c.059.048.13.079.205.09l1.463.203.056.004c.101 0 .2-.038.277-.108l1.321-1.194.61.457c.189.141.453.098.589-.099.136-.196.094-.47-.095-.611zm-20.311-5.541l.055-.123.104-.041h.002c.233 0 .422-.196.422-.438s-.189-.438-.422-.438h-4.439c-.098 0-.169-.045-.21-.083-.041-.037-.109-.119-.109-.247 0-.129.068-.211.109-.247.041-.038.112-.083.21-.083h6.696c.176 0 .319.148.319.331 0 .182-.143.331-.319.331-.233 0-.422.196-.422.438h-.002c0 .242.189.438.422.438h.595l-.076.328h-2.777l-.104-.041-.054-.123zm16.276 10.499l.271.4-.144-.005c-.367 0-.568.081-.729.146-.129.052-.214.087-.422.087s-.293-.034-.422-.087c-.161-.065-.362-.146-.729-.146s-.568.081-.729.146c-.129.052-.214.087-.422.087s-.293-.034-.422-.087c-.161-.065-.362-.146-.729-.146s-.568.081-.729.146c-.129.052-.214.087-.422.087s-.293-.034-.422-.087c-.161-.065-.362-.146-.729-.146s-.568.081-.729.146c-.129.052-.214.087-.422.087s-.293-.034-.422-.087c-.161-.065-.362-.146-.729-.146s-.568.081-.729.146c-.129.052-.214.087-.422.087s-.293-.034-.422-.087c-.161-.065-.362-.146-.729-.146s-.568.081-.729.146c-.129.052-.214.087-.422.087s-.293-.034-.422-.087c-.161-.065-.362-.146-.729-.146s-.568.081-.729.146c-.129.052-.214.087-.422.087s-.293-.034-.422-.087c-.161-.065-.362-.146-.729-.146s-.568.081-.729.146c-.129.052-.214.087-.422.087-.158 0-.244-.02-.333-.052l1.416-3.006.619-.734h.698c.466 0 .844-.392.844-.876v-2.019l1.202-.727c.199-.12.342-.32.396-.552l.611-2.642c.086-.153.135-.33.135-.52l-.003-.055.353-1.527.426-.504.243 1.466.044.133.183.353-.183.353c-.07.135-.067.299.009.431l.439.768v1.844l-.173.415-.035.174v.646l-.417.499c-.067.08-.103.181-.103.287v.685c0 .123.05.241.139.324l.668.629.288.61.034.06.48.707c.079.116.208.186.345.186h.648l.552.398c.073.053.157.078.241.078.134 0 .265-.066.347-.188.133-.198.086-.471-.106-.609l-.66-.476c-.071-.051-.155-.078-.241-.078h-.561l-.335-.493-.309-.654-.096-.132-.59-.555v-.327l.417-.499c.067-.08.103-.181.103-.287v-.719l.173-.415.035-.174v-2.055c0-.079-.021-.156-.059-.223l-.377-.659.052-.101.125-.241c.067-.129.067-.285 0-.415l-.258-.498-.158-.949 1.089 2.726c.035.087.083.168.143.24l1.591 1.894.04.044 2.847 2.949 1.051 1.363.125.131 1.441 1.223 1.542 1.718z"/><path d="M17.56 50.599h3.726c.233 0 .422-.196.422-.438s-.189-.438-.422-.438h-3.726c-.233 0-.422.196-.422.438s.189.438.422.438"/><path d="M19.037 49.416h6.295c.233 0 .422-.196.422-.438s-.189-.438-.422-.438h-6.295c-.233 0-.422.196-.422.438s.189.438.422.438"/></g><g fill="#206FAC" sketch:type="MSShapeGroup"><path d="M25.979 143.073c-.208 0-.294-.034-.422-.087-.161-.065-.362-.146-.729-.146s-.568.081-.729.146c-.129.052-.214.087-.422.087s-.293-.034-.422-.087c-.161-.065-.362-.146-.729-.146s-.568.081-.729.146c-.129.052-.214.087-.422.087s-.293-.034-.422-.087c-.161-.065-.362-.146-.729-.146s-.568.081-.729.146c-.129.052-.214.087-.422.087s-.293-.034-.422-.087c-.161-.065-.362-.146-.729-.146s-.568.081-.729.146c-.129.052-.214.087-.422.087s-.293-.034-.422-.087c-.161-.065-.362-.146-.729-.146s-.568.081-.729.146c-.129.052-.214.087-.422.087s-.293-.034-.422-.087c-.161-.065-.362-.146-.729-.146s-.568.081-.729.146c-.129.052-.214.087-.422.087s-.293-.034-.422-.087c-.161-.065-.362-.146-.729-.146s-.568.081-.729.146c-.129.052-.214.087-.422.087-.233 0-.422.196-.422.438s.189.438.422.438c.367 0 .568-.081.729-.147.129-.052.214-.086.422-.086s.293.034.422.086c.161.065.362.147.729.147s.568-.081.729-.147c.129-.052.214-.086.422-.086s.293.034.422.086c.161.065.362.147.729.147s.568-.081.729-.147c.129-.052.214-.086.422-.086s.293.034.422.086c.161.065.362.147.729.147s.568-.081.729-.147c.129-.052.214-.086.422-.086s.293.034.422.086c.161.065.362.147.729.147s.568-.081.729-.147c.129-.052.214-.086.422-.086s.294.034.422.087c.161.065.362.146.729.146s.568-.081.729-.147c.129-.052.214-.086.422-.086s.293.034.422.086c.161.065.362.147.729.147s.568-.081.729-.147c.129-.052.214-.086.422-.086s.293.034.422.086c.161.065.362.147.729.147.233 0 .422-.196.422-.438s-.189-.438-.422-.438"/><path d="M28.736 135.659l-.882-.66c-.159-.119-.376-.109-.524.025l-1.33 1.202-.1.09-.363-.05-.796-.111-.595-.485c-.105-.086-.243-.115-.373-.078l-1.25.356-.693-.898-.063-.072-2.86-2.962-1.481-1.763-1.489-3.727c-.066-.166-.18-.307-.327-.403l-1.485-.981c-.26-.172-.589-.182-.86-.029-.27.154-.438.448-.438.768v.792l-.737.873c-.09.107-.154.234-.186.372l-.054.234c-.2-.364-.578-.611-1.01-.611h-6.696c-.283 0-.555.107-.768.302-.251.229-.394.559-.394.904s.144.675.395.904c.213.194.486.302.768.302h3.448l-.014.164c0 .298.124.582.34.779.183.168.419.26.662.26h2.575l-.312 1.35-1.309.792c-.259.157-.419.445-.419.756v1.646h-.236c-.243 0-.475.109-.635.299l-.116.138-1.353-.276-.192.007-.843.236-.968-.487c-.21-.106-.462-.015-.564.203-.102.218-.014.479.196.585l1.11.559c.092.046.196.056.294.029l.901-.253.777.158-.186.221-.123.192-1.584 3.362c-.082.174-.102.363-.071.54l-.262.029c-.208 0-.293-.034-.422-.087-.161-.065-.362-.146-.729-.146-.233 0-.422.196-.422.438s.189.438.422.438c.208 0 .293.034.422.087.161.065.362.146.729.146s.568-.081.729-.146l.173-.061.189.023.239-.037.243.075c.161.065.362.146.729.146s.568-.081.729-.146c.129-.052.214-.087.422-.087s.293.034.422.087c.161.065.362.146.729.146s.568-.081.729-.146c.129-.052.214-.087.422-.087s.293.034.422.087c.161.065.362.146.729.146s.568-.081.729-.146c.129-.052.214-.087.422-.087s.293.034.422.087c.161.065.362.146.729.146s.568-.081.729-.146c.129-.052.214-.087.422-.087s.293.034.422.087c.161.065.362.146.729.146s.568-.081.729-.146c.129-.052.214-.087.422-.087s.293.034.422.087c.161.065.362.146.729.146s.568-.081.729-.146c.129-.052.214-.087.422-.087.209 0 .294.034.422.087.161.065.362.146.729.146s.568-.081.729-.146c.129-.052.214-.087.422-.087s.293.034.422.087c.161.065.362.146.729.146s.568-.081.729-.146c.129-.052.214-.087.422-.087s.293.034.422.087c.161.065.362.146.729.146s.568-.081.729-.146c.129-.052.214-.087.422-.087.209 0 .294.034.423.087.161.065.362.146.729.146.233 0 .422-.196.422-.438s-.189-.438-.422-.438c-.209 0-.294-.034-.423-.087-.161-.065-.362-.146-.729-.146l-.254.015c-.006-.163-.055-.327-.152-.47l-.675-.996-.073-.093-1.621-1.806-.083-.081-1.079-.916.599-.17.518.422c.059.048.13.079.205.09l1.463.203.056.004c.101 0 .2-.038.277-.108l1.321-1.194.61.457c.189.141.453.098.589-.099.136-.196.094-.47-.095-.611zm-20.311-5.541l.055-.123.104-.041h.002c.233 0 .422-.196.422-.438s-.189-.438-.422-.438h-4.439c-.098 0-.169-.045-.21-.083-.041-.037-.109-.119-.109-.247 0-.129.068-.211.109-.247.041-.038.112-.083.21-.083h6.696c.176 0 .319.148.319.331 0 .182-.143.331-.319.331-.233 0-.422.196-.422.438h-.002c0 .242.189.438.422.438h.595l-.076.328h-2.777l-.104-.041-.054-.123zm16.276 10.499l.271.4-.144-.005c-.367 0-.568.081-.729.146-.129.052-.214.087-.422.087s-.293-.034-.422-.087c-.161-.065-.362-.146-.729-.146s-.568.081-.729.146c-.129.052-.214.087-.422.087s-.293-.034-.422-.087c-.161-.065-.362-.146-.729-.146s-.568.081-.729.146c-.129.052-.214.087-.422.087s-.293-.034-.422-.087c-.161-.065-.362-.146-.729-.146s-.568.081-.729.146c-.129.052-.214.087-.422.087s-.293-.034-.422-.087c-.161-.065-.362-.146-.729-.146s-.568.081-.729.146c-.129.052-.214.087-.422.087s-.293-.034-.422-.087c-.161-.065-.362-.146-.729-.146s-.568.081-.729.146c-.129.052-.214.087-.422.087s-.293-.034-.422-.087c-.161-.065-.362-.146-.729-.146s-.568.081-.729.146c-.129.052-.214.087-.422.087s-.293-.034-.422-.087c-.161-.065-.362-.146-.729-.146s-.568.081-.729.146c-.129.052-.214.087-.422.087-.158 0-.244-.02-.333-.052l1.416-3.006.619-.734h.698c.466 0 .844-.392.844-.876v-2.019l1.202-.727c.199-.12.342-.32.396-.552l.611-2.642c.086-.153.135-.33.135-.52l-.003-.055.353-1.527.426-.504.243 1.466.044.133.183.353-.183.353c-.07.135-.067.299.009.431l.439.768v1.844l-.173.415-.035.174v.646l-.417.499c-.067.08-.103.181-.103.287v.685c0 .123.05.241.139.324l.668.629.288.61.034.06.48.707c.079.116.208.186.345.186h.648l.552.398c.073.053.157.078.241.078.134 0 .265-.066.347-.188.133-.198.086-.471-.106-.609l-.66-.476c-.071-.051-.155-.078-.241-.078h-.561l-.335-.493-.309-.654-.096-.132-.59-.555v-.327l.417-.499c.067-.08.103-.181.103-.287v-.719l.173-.415.035-.174v-2.055c0-.079-.021-.156-.059-.223l-.377-.659.052-.101.125-.241c.067-.129.067-.285 0-.415l-.258-.498-.158-.949 1.089 2.726c.035.087.083.168.143.24l1.591 1.894.04.044 2.847 2.949 1.051 1.363.125.131 1.441 1.223 1.542 1.718zM17.56 129.599h3.726c.233 0 .422-.196.422-.438s-.189-.438-.422-.438h-3.726c-.233 0-.422.196-.422.438s.189.438.422.438M19.037 128.416h6.295c.233 0 .422-.196.422-.438s-.189-.438-.422-.438h-6.295c-.233 0-.422.196-.422.438s.189.438.422.438"/></g></g></svg>