<svg width="32" height="232" viewBox="0 0 32 232" xmlns="http://www.w3.org/2000/svg" xmlns:sketch="http://www.bohemiancoding.com/sketch/ns"><title>Switzerland</title><g sketch:type="MSLayerGroup" fill="none"><g fill="#373D43" sketch:type="MSShapeGroup"><path d="M19.337 46.906h.064l-.018.202c0 .586.432 1.063.963 1.063h3.401c.234 0 .46-.094.636-.266.208-.202.327-.492.327-.797 0-.304-.119-.595-.327-.797-.176-.172-.402-.266-.637-.266h-.817l.003-.065c0-.266-.104-.519-.284-.694-.153-.15-.351-.232-.555-.232h-2.757c-.463 0-.839.415-.839.926 0 .511.376.926.839.926zm0-.99h2.757l.039.017.02.048-.021.049-.038.016h-.002c-.215 0-.39.193-.39.431s.174.43.39.43h1.654l.121.052c.023.022.062.072.062.15 0 .079-.039.129-.062.151l-.12.05h-3.401c-.101 0-.183-.09-.183-.202 0-.111.082-.202.183-.202.215 0 .39-.193.39-.43h.002c0-.238-.174-.431-.39-.431h-1.01l-.059-.065.059-.065z" id="Fill-1"/><path d="M5.074 52.018c.068.057.151.088.236.088.084 0 .166-.03.233-.085.152-.125.2-.352.116-.539l-.115-.152c-.135-.111-.333-.112-.468-.001-.152.125-.201.354-.115.54l.112.149" id="Fill-2"/><path d="M8.165 51.501c.072.121.195.193.325.193.084 0 .166-.03.233-.085.091-.075.148-.19.156-.315.008-.125-.034-.248-.114-.336l-.039-.038c-.135-.113-.334-.113-.469-.002-.152.125-.201.353-.115.54l.023.043" id="Fill-3"/><path d="M7.342 46.483l.019.022c.072.08.171.125.275.125.084 0 .166-.03.233-.085.091-.074.148-.19.156-.315.006-.095-.017-.19-.064-.268l-.031-.046-.019-.022c-.072-.08-.171-.125-.275-.125-.084 0-.166.03-.233.085-.091.074-.148.19-.156.315-.006.096.017.19.064.269l.031.045" id="Fill-4"/><path d="M9.423 48.393l.324.196.177.358c.069.138.2.224.343.224.142 0 .274-.085.342-.224l.177-.358.325-.195c.125-.076.203-.221.203-.378 0-.158-.078-.302-.203-.378l-.325-.196-.177-.358c-.069-.138-.2-.224-.342-.224-.143 0-.274.086-.343.224l-.177.358-.324.196c-.125.076-.203.22-.203.378 0 .157.078.303.203.377" id="Fill-5"/><path d="M6.135 49.993l.324.195.177.358c.068.138.2.224.342.224.143 0 .274-.086.342-.224l.177-.358.325-.195c.125-.076.203-.221.203-.378s-.078-.302-.203-.378l-.325-.195-.177-.358c-.069-.138-.2-.224-.342-.224-.143 0-.274.086-.342.224l-.177.358-.324.195c-.125.075-.203.22-.203.378 0 .157.078.303.203.378" id="Fill-6"/><path d="M12.198 58.456c-.249-.006-.483.1-.658.293-.152.168-.152.441 0 .609.153.168.4.168.552 0l.095-.041.11.053c.076.084.176.127.276.127.1 0 .2-.042.276-.127.152-.168.152-.441 0-.609-.175-.193-.406-.301-.651-.305" id="Fill-7"/><path d="M12.769 56.87h.352c.215 0 .391-.193.391-.431s-.175-.431-.391-.431h-.352c-.215 0-.39.193-.39.431s.175.431.39.431" id="Fill-8"/><path d="M26.206 58.88c-.318 0-.491.074-.63.135-.106.045-.176.075-.347.075-.171 0-.24-.03-.346-.075-.139-.061-.312-.135-.63-.135s-.491.074-.63.135c-.106.045-.176.075-.346.075-.171 0-.241-.03-.347-.075-.139-.061-.312-.135-.63-.135-.317 0-.491.074-.63.135-.106.045-.176.075-.346.075-.171 0-.241-.03-.347-.075-.139-.061-.312-.135-.63-.135s-.491.074-.63.135c-.106.045-.176.075-.346.075-.216 0-.39.193-.39.431s.174.431.39.431c.317 0 .491-.074.63-.135.106-.046.176-.076.347-.076.171 0 .24.03.346.076.139.06.312.135.63.135.317 0 .491-.074.63-.135.106-.046.176-.076.346-.076.171 0 .241.03.347.076.139.06.312.135.63.135.317 0 .491-.074.63-.135.106-.046.176-.076.347-.076.171 0 .24.03.346.076.14.06.313.135.63.135.318 0 .491-.074.63-.135.106-.046.176-.076.347-.076.215 0 .39-.193.39-.431s-.174-.431-.39-.431" id="Fill-9"/><path d="M27.129 57.469c-.171 0-.241-.03-.347-.076-.105-.045-.23-.099-.421-.122l-1.679-1.092-.692-.517-.496-1.268-.402-1.005-.128-.55h3.089c.215 0 .39-.193.39-.431s-.175-.431-.39-.431h-3.289l-.013-.058c-.02-.088-.066-.167-.129-.225l-.897-.82c-.097-.089-.227-.12-.348-.085-.122.036-.221.134-.265.264l-.316.923h-.255v-1.114c0-.154-.075-.297-.197-.374l-.753-.476-.779-1.552c-.07-.14-.206-.225-.349-.222-.145.004-.276.095-.341.238l-.709 1.562-1.089.862-.093.103-.623.985h-1.042c-.215 0-.39.193-.39.431s.175.431.39.431h1.141l.094-.014.019.002h4.595l-.444.752-.454.734-.02.035-.45.9-.713.768-.776.333-.036.017-1.587.893-.113.097-.06.025c-.106.046-.176.076-.346.076-.171 0-.24-.03-.346-.076-.113-.049-.25-.106-.467-.127l.001-.015-.001-.027-.089-1.55h1.211c.215 0 .39-.193.39-.431s-.175-.43-.39-.43h-.908l-2.293-5.4c-.064-.151-.202-.248-.353-.248-.151 0-.289.096-.353.248l-2.293 5.4h-.838c-.216 0-.391.192-.391.43s.175.431.391.431h1.115l-.089 1.55-.001.027c0 .421.091.837.261 1.21-.2.395-.315.845-.32 1.316l-1.762.795-.766-4.403.187-.661.582-.539c.109-.101.159-.26.131-.415-.028-.154-.13-.28-.266-.326l-.725-.25-.489-.642c-.092-.121-.236-.176-.376-.145s-.253.144-.296.294l-.226.801-.582.539c-.109.101-.159.26-.131.415.028.154.13.28.266.326l.726.25.445.584.784 4.505-1.479.666c-.399.18-.59.683-.427 1.124.123.333.415.536.723.536.098 0 .198-.021.295-.064l1.188-.536.371 2.128c.036.206.199.349.383.349l.074-.008c.212-.045.35-.27.31-.504l-.4-2.298 1.627-.734c.344 1.459 1.548 2.507 2.937 2.507l.243-.011c.533-.047 1.046-.248 1.485-.584.111-.085.175-.227.168-.376-.007-.149-.084-.283-.202-.356-.255-.154-.421-.436-.443-.754-.01-.138.007-.272.049-.401l.179-.264 5.546 1.707-2.09 2.131c-.317.323-.336.868-.043 1.217.154.184.363.277.573.277.189 0 .379-.076.529-.229l3.117-3.179c.208-.212.296-.532.229-.835-.067-.303-.277-.544-.549-.627l-6.903-2.125-.003-.073c-.029-.395-.133-.773-.303-1.113l.137-.357c.146.004.215.033.313.075.139.06.312.135.63.135.317 0 .491-.074.63-.135.105-.046.176-.076.346-.076.171 0 .24.03.346.076.14.06.312.135.63.135.317 0 .491-.074.63-.135.106-.046.176-.076.347-.076.171 0 .24.03.346.076.139.06.312.135.63.135.317 0 .491-.074.63-.135.106-.046.176-.076.346-.076.171 0 .241.03.347.076.139.06.312.135.63.135s.491-.074.63-.135c.106-.046.176-.076.347-.076.171 0 .24.03.346.076.139.06.312.135.63.135s.491-.074.63-.135c.106-.046.176-.076.346-.076.171 0 .241.03.347.076.139.06.312.135.63.135s.491-.074.631-.135c.106-.046.176-.076.347-.076.171 0 .241.03.347.076.139.06.312.135.63.135.216 0 .39-.193.39-.431s-.174-.43-.39-.43zm-7.37-5.492h-3.193l.265-.418 1.114-.881.121-.157.421-.927.473.943c.034.069.085.126.148.165l.652.412v.864zm-13.634 3.008l-.018-.006.019-.018.104-.096c.057-.053.099-.123.122-.201l.048-.169.05.066.054.07c.048.063.111.11.182.135l.153.052-.123.114c-.057.053-.099.123-.122.202l-.048.169-.104-.136c-.048-.063-.111-.11-.182-.134l-.136-.047zm12.694 1.721l.811-.874.069-.1.469-.938.227-.366.024.067c.059.167.205.272.363.272l.068-.006.726-.142c.099-.019.188-.08.247-.17l.335-.506.306.01.315.786.54 1.38c.03.075.078.14.14.186l.796.596.021.015.851.553c-.136-.005-.203-.033-.298-.075-.139-.06-.312-.135-.63-.135-.317 0-.491.074-.63.135-.106.046-.176.076-.347.076-.17 0-.24-.03-.346-.076-.139-.06-.312-.135-.63-.135s-.491.074-.63.135c-.106.046-.176.076-.347.076-.17 0-.24-.03-.346-.076-.14-.06-.313-.135-.631-.135-.317 0-.491.074-.63.135-.105.046-.175.076-.346.076-.171 0-.24-.03-.347-.076-.139-.06-.312-.135-.63-.135s-.491.074-.63.135c-.106.046-.176.076-.346.076l-.064-.002.555-.312.832-.356.132-.093zm2.128-3.196l.35-.593.036-.079.002-.003.294-.858.018-.054.059.054.32.292.189.813-.238-.008c-.13-.003-.251.062-.327.177l-.175.265-.189.285-.258.05-.106-.298-.016-.044h.041zm-10.455 1.042l1.674-3.941 1.674 3.941.111.261h-3.57l.111-.261zm3.236 1.122l.091 1.59c-.001.155-.02.31-.056.459-.155-.098-.355-.069-.481.082l-.087.179c-.037.151 0 .318.112.43.321.325.517.766.551 1.244l.005.136c.002.319-.069.633-.208.916l-.035.066c-.057.104-.123.205-.198.297l-.066.114c-.109.272-.155.574-.134.872.026.364.15.704.35.981-.204.088-.421.143-.641.162l-.18.008c-1.068 0-1.99-.835-2.207-1.979l-.041-.314-.069-.958.002-.304c.049-.656.406-1.238.93-1.535.069.124.191.206.332.206h.781c.215 0 .39-.193.39-.431l-.001-.009c-.005-.234-.177-.421-.389-.421h-.391v-1.026c0-.238-.174-.431-.39-.431h-.663c-.216 0-.39.193-.39.431s.174.431.39.431h.273v.341c-.286.112-.544.28-.769.489-.032-.142-.049-.288-.051-.435l.091-1.59h3.149z" id="Fill-10"/></g><g fill="#67737B" sketch:type="MSShapeGroup"><path d="M19.58 86.855h.065l-.018.196c0 .571.439 1.035.98 1.035h3.458c.238 0 .468-.092.647-.259.211-.196.333-.479.333-.776 0-.296-.121-.579-.332-.775-.179-.167-.409-.259-.648-.259h-.831l.004-.063c0-.259-.106-.505-.289-.675-.156-.146-.357-.226-.564-.226h-2.803c-.471 0-.853.404-.853.901s.383.901.853.901zm0-.964h2.803l.039.016.021.047-.021.047-.039.016h-.002c-.219 0-.396.188-.396.419 0 .231.177.419.396.419h1.683l.123.05c.023.022.063.07.063.146 0 .077-.04.125-.064.147l-.122.049h-3.458c-.103 0-.186-.088-.186-.196 0-.108.083-.196.186-.196.219 0 .397-.187.397-.419h.002c0-.231-.177-.419-.397-.419h-1.028l-.06-.063.06-.063z" id="Fill-1"/><path d="M5.075 91.83c.069.055.154.085.24.085.085 0 .169-.029.237-.083.154-.121.204-.343.118-.524l-.117-.148c-.137-.108-.339-.109-.476-.001-.155.122-.204.344-.117.526l.114.145" id="Fill-2"/><path d="M8.219 91.327c.073.117.198.188.331.188.086 0 .169-.029.237-.083.093-.073.151-.185.159-.307.008-.121-.034-.241-.116-.327l-.04-.037c-.137-.11-.34-.11-.477-.002-.155.122-.204.344-.117.526l.023.042" id="Fill-3"/><path d="M7.381 86.444l.019.021c.074.077.174.122.28.122.085 0 .169-.029.237-.083.092-.072.151-.185.159-.306.006-.093-.017-.185-.065-.261l-.032-.044-.019-.022c-.073-.077-.174-.122-.28-.122-.085 0-.169.029-.237.083-.092.072-.15.185-.159.306-.006.093.017.184.065.261l.032.044" id="Fill-4"/><path d="M9.497 88.302l.33.191.18.349c.07.135.203.218.349.218.145 0 .278-.083.348-.218l.18-.349.33-.19c.127-.074.207-.215.207-.368 0-.154-.079-.294-.207-.368l-.33-.191-.18-.348c-.07-.134-.203-.218-.348-.218-.145 0-.279.084-.349.218l-.18.348-.329.191c-.127.074-.207.215-.207.368s.079.294.207.367" id="Fill-5"/><path d="M6.154 89.859l.33.19.18.348c.069.135.203.218.348.218.145 0 .278-.084.348-.218l.18-.348.33-.19c.127-.074.206-.215.206-.368s-.079-.294-.206-.368l-.33-.19-.18-.349c-.07-.135-.203-.218-.348-.218-.145 0-.279.084-.348.218l-.18.349-.33.19c-.127.073-.207.215-.207.368s.079.294.207.368" id="Fill-6"/><path d="M12.32 98.096c-.253-.006-.491.098-.669.285-.155.163-.155.429 0 .593.155.164.407.164.561 0l.096-.04.112.051c.078.082.179.123.281.123.101 0 .203-.041.281-.123.155-.163.155-.429 0-.593-.178-.188-.413-.293-.662-.297" id="Fill-7"/><path d="M12.901 96.553h.358c.219 0 .397-.188.397-.419 0-.231-.178-.419-.397-.419h-.358c-.219 0-.397.188-.397.419 0 .231.178.419.397.419" id="Fill-8"/><path d="M26.566 98.509c-.323 0-.499.072-.641.131-.108.044-.179.073-.352.073s-.244-.029-.352-.073c-.142-.059-.318-.131-.64-.131-.323 0-.499.072-.641.131-.108.044-.179.073-.352.073-.174 0-.245-.029-.352-.073-.142-.059-.318-.131-.641-.131s-.499.072-.64.131c-.108.044-.179.073-.352.073s-.245-.029-.352-.073c-.142-.059-.318-.131-.64-.131-.323 0-.499.072-.641.131-.108.044-.179.073-.352.073-.219 0-.397.188-.397.419 0 .231.177.419.397.419.323 0 .499-.072.64-.131.108-.044.179-.074.352-.074s.244.029.352.074c.142.058.318.131.641.131s.499-.072.64-.131c.108-.044.179-.074.352-.074.174 0 .245.029.352.074.142.058.318.131.641.131s.499-.072.64-.131c.108-.044.179-.074.352-.074s.244.029.352.074c.142.058.318.131.641.131s.499-.072.641-.131c.108-.044.179-.074.352-.074.219 0 .396-.188.396-.419 0-.231-.177-.419-.396-.419" id="Fill-9"/><path d="M27.504 97.136c-.173 0-.245-.03-.352-.074-.107-.044-.234-.096-.428-.119l-1.708-1.063-.703-.504-.504-1.234-.409-.978-.13-.535h3.142c.219 0 .397-.188.397-.419 0-.231-.178-.419-.397-.419h-3.345l-.014-.056c-.021-.086-.067-.162-.131-.219l-.912-.798c-.099-.086-.231-.117-.354-.082-.124.035-.225.13-.27.257l-.322.898h-.26v-1.084c0-.15-.076-.289-.2-.364l-.766-.463-.792-1.511c-.071-.136-.209-.219-.355-.216-.147.004-.281.093-.347.231l-.721 1.521-1.108.839-.094.1-.634.959h-1.06c-.219 0-.397.188-.397.419 0 .231.178.419.397.419h1.16l.095-.014.019.002h4.673l-.452.732-.462.714-.02.034-.458.876-.725.748-.789.324-.037.017-1.614.869-.115.095-.061.025c-.108.044-.179.074-.352.074s-.244-.03-.352-.074c-.115-.047-.255-.103-.475-.123l.001-.014-.001-.026-.09-1.509h1.231c.219 0 .397-.188.397-.419 0-.231-.178-.419-.397-.419h-.924l-2.332-5.256c-.065-.147-.205-.241-.359-.241s-.294.094-.359.241l-2.332 5.256h-.853c-.219 0-.397.187-.397.419 0 .231.178.419.397.419h1.134l-.09 1.509-.001.026c0 .41.092.814.265 1.178-.204.384-.321.822-.326 1.281l-1.792.773-.779-4.285.19-.644.591-.525c.111-.098.162-.253.134-.404-.028-.15-.133-.272-.271-.317l-.738-.243-.497-.625c-.093-.117-.24-.172-.382-.141-.142.03-.257.14-.301.286l-.23.779-.592.525c-.111.098-.162.253-.134.404.029.15.133.272.271.317l.738.243.453.569.797 4.384-1.504.649c-.406.175-.6.665-.434 1.094.126.324.422.521.735.521.1 0 .202-.021.3-.063l1.208-.522.377 2.071c.036.2.202.34.389.34l.075-.007c.216-.044.356-.263.315-.491l-.407-2.236 1.654-.714c.35 1.42 1.575 2.44 2.986 2.44l.247-.01c.542-.046 1.064-.242 1.51-.568.113-.082.178-.221.171-.366-.007-.145-.085-.276-.205-.346-.259-.149-.428-.425-.451-.734-.01-.135.007-.265.05-.39l.182-.257 5.64 1.661-2.125 2.074c-.322.314-.342.845-.044 1.185.156.179.369.269.583.269.192 0 .386-.074.538-.223l3.17-3.094c.211-.207.301-.518.233-.813-.068-.295-.281-.529-.559-.611l-7.02-2.068-.003-.071c-.029-.384-.135-.753-.308-1.083l.139-.347c.149.004.219.032.318.073.142.058.318.131.641.131s.499-.072.641-.131c.107-.044.179-.074.352-.074s.244.029.352.074c.142.058.318.131.641.131s.499-.072.64-.131c.108-.044.179-.074.352-.074s.244.029.352.074c.142.058.318.131.641.131s.499-.072.64-.131c.108-.044.179-.074.352-.074.174 0 .245.029.352.074.142.058.318.131.64.131.323 0 .499-.072.641-.131.108-.044.179-.074.352-.074s.244.029.352.074c.142.058.318.131.64.131.323 0 .499-.072.641-.131.108-.044.179-.074.352-.074.174 0 .245.029.352.074.142.058.318.131.64.131.323 0 .499-.072.641-.131.108-.044.179-.074.352-.074s.245.029.352.074c.142.058.318.131.641.131.219 0 .397-.188.397-.419 0-.231-.177-.419-.397-.419zm-7.494-5.346h-3.247l.269-.407 1.133-.858.123-.153.428-.902.481.917c.035.067.087.123.15.161l.663.401v.841zm-13.865 2.928l-.018-.006.019-.017.106-.094c.058-.051.101-.12.124-.196l.049-.165.051.064.055.068c.049.062.113.107.186.131l.156.051-.125.111c-.058.051-.101.119-.124.196l-.048.165-.105-.132c-.049-.062-.113-.107-.186-.131l-.138-.045zm12.909 1.675l.825-.851.07-.097.477-.913.231-.356.025.065c.06.162.208.265.369.265l.069-.006.738-.138c.101-.019.191-.078.251-.166l.341-.493.311.01.32.765.549 1.343c.03.073.08.136.142.181l.809.58.021.015.866.539c-.139-.005-.206-.033-.303-.073-.142-.058-.317-.131-.641-.131-.323 0-.499.072-.64.131-.108.044-.179.074-.352.074s-.244-.03-.352-.074c-.142-.058-.318-.131-.64-.131-.323 0-.499.072-.641.131-.108.044-.179.074-.352.074s-.244-.03-.352-.074c-.142-.058-.318-.131-.641-.131s-.499.072-.641.131c-.107.044-.178.074-.352.074-.173 0-.244-.03-.352-.074-.142-.058-.318-.131-.64-.131-.323 0-.499.072-.641.131-.108.044-.179.074-.352.074l-.065-.002.564-.303.846-.347.134-.091zm2.164-3.11l.356-.577.037-.077.002-.003.299-.835.019-.052.06.052.325.284.192.791-.242-.008c-.133-.003-.256.061-.333.172l-.178.258-.192.278-.262.049-.108-.29-.016-.043h.042zm-10.633 1.015l1.702-3.836 1.702 3.836.113.254h-3.63l.113-.254zm3.291 1.092l.093 1.548c-.001.151-.02.302-.057.447-.157-.096-.361-.068-.49.08l-.089.174c-.037.147 0 .309.113.419.327.316.525.746.561 1.211l.005.133c.002.31-.07.616-.212.891l-.035.064c-.058.102-.125.199-.202.289l-.067.111c-.111.265-.158.558-.136.848.027.355.153.685.356.954-.208.086-.428.139-.652.158l-.183.007c-1.086 0-2.024-.813-2.244-1.926l-.042-.306-.07-.932.002-.296c.05-.639.413-1.205.946-1.493.07.12.194.201.337.201h.794c.219 0 .397-.188.397-.419l-.001-.009c-.005-.227-.18-.41-.396-.41h-.398v-.998c0-.231-.177-.419-.396-.419h-.674c-.219 0-.397.188-.397.419 0 .231.177.419.397.419h.277v.332c-.29.109-.554.272-.782.476-.033-.138-.05-.28-.051-.424l.093-1.548h3.203z" id="Fill-10"/></g><g fill="#206FAC" sketch:type="MSShapeGroup"><path d="M19.58 127.855h.065l-.018.196c0 .571.439 1.035.98 1.035h3.458c.238 0 .468-.092.647-.259.211-.196.333-.479.333-.776 0-.296-.121-.579-.332-.775-.179-.167-.409-.259-.648-.259h-.831l.004-.063c0-.259-.106-.505-.289-.675-.156-.146-.357-.226-.564-.226h-2.803c-.471 0-.853.404-.853.901s.383.901.853.901zm0-.964h2.803l.039.016.021.047-.021.047-.039.016h-.002c-.219 0-.396.188-.396.419 0 .231.177.419.396.419h1.683l.123.05c.023.022.063.07.063.146 0 .077-.04.125-.064.147l-.122.049h-3.458c-.103 0-.186-.088-.186-.196 0-.108.083-.196.186-.196.219 0 .397-.187.397-.419h.002c0-.231-.177-.419-.397-.419h-1.028l-.06-.063.06-.063z"/><path d="M5.075 132.83c.069.055.154.085.24.085.085 0 .169-.029.237-.083.154-.121.204-.343.118-.524l-.117-.148c-.137-.108-.339-.109-.476-.001-.155.122-.204.344-.117.526l.114.145"/><path d="M8.219 132.327c.073.117.198.188.331.188.086 0 .169-.029.237-.083.093-.073.151-.185.159-.307.008-.121-.034-.241-.116-.327l-.04-.037c-.137-.11-.34-.11-.477-.002-.155.122-.204.344-.117.526l.023.042"/><path d="M7.381 127.444l.019.021c.074.077.174.122.28.122.085 0 .169-.029.237-.083.092-.072.151-.185.159-.306.006-.093-.017-.185-.065-.261l-.032-.044-.019-.022c-.073-.077-.174-.122-.28-.122-.085 0-.169.029-.237.083-.092.072-.15.185-.159.306-.006.093.017.184.065.261l.032.044"/><path d="M9.497 129.302l.33.191.18.349c.07.135.203.218.349.218.145 0 .278-.083.348-.218l.18-.349.33-.19c.127-.074.207-.215.207-.368 0-.154-.079-.294-.207-.368l-.33-.191-.18-.348c-.07-.134-.203-.218-.348-.218-.145 0-.279.084-.349.218l-.18.348-.329.191c-.127.074-.207.215-.207.368s.079.294.207.367"/><path d="M6.154 130.859l.33.19.18.348c.069.135.203.218.348.218.145 0 .278-.084.348-.218l.18-.348.33-.19c.127-.074.206-.215.206-.368s-.079-.294-.206-.368l-.33-.19-.18-.349c-.07-.135-.203-.218-.348-.218-.145 0-.279.084-.348.218l-.18.349-.33.19c-.127.073-.207.215-.207.368s.079.294.207.368"/><path d="M12.32 139.096c-.253-.006-.491.098-.669.285-.155.163-.155.429 0 .593.155.164.407.164.561 0l.096-.04.112.051c.078.082.179.123.281.123.101 0 .203-.041.281-.123.155-.163.155-.429 0-.593-.178-.188-.413-.293-.662-.297"/><path d="M12.901 137.553h.358c.219 0 .397-.188.397-.419 0-.231-.178-.419-.397-.419h-.358c-.219 0-.397.188-.397.419 0 .231.178.419.397.419"/><path d="M26.566 139.509c-.323 0-.499.072-.641.131-.108.044-.179.073-.352.073s-.244-.029-.352-.073c-.142-.059-.318-.131-.64-.131-.323 0-.499.072-.641.131-.108.044-.179.073-.352.073-.174 0-.245-.029-.352-.073-.142-.059-.318-.131-.641-.131s-.499.072-.64.131c-.108.044-.179.073-.352.073s-.245-.029-.352-.073c-.142-.059-.318-.131-.64-.131-.323 0-.499.072-.641.131-.108.044-.179.073-.352.073-.219 0-.397.188-.397.419 0 .231.177.419.397.419.323 0 .499-.072.64-.131.108-.044.179-.074.352-.074s.244.029.352.074c.142.058.318.131.641.131s.499-.072.64-.131c.108-.044.179-.074.352-.074.174 0 .245.029.352.074.142.058.318.131.641.131s.499-.072.64-.131c.108-.044.179-.074.352-.074s.244.029.352.074c.142.058.318.131.641.131s.499-.072.641-.131c.108-.044.179-.074.352-.074.219 0 .396-.188.396-.419 0-.231-.177-.419-.396-.419"/><path d="M27.504 138.136c-.173 0-.245-.03-.352-.074-.107-.044-.234-.096-.428-.119l-1.708-1.063-.703-.504-.504-1.234-.409-.978-.13-.535h3.142c.219 0 .397-.188.397-.419 0-.231-.178-.419-.397-.419h-3.345l-.014-.056c-.021-.086-.067-.162-.131-.219l-.912-.798c-.099-.086-.231-.117-.354-.082-.124.035-.225.13-.27.257l-.322.898h-.26v-1.084c0-.15-.076-.289-.2-.364l-.766-.463-.792-1.511c-.071-.136-.209-.219-.355-.216-.147.004-.281.093-.347.231l-.721 1.521-1.108.839-.094.1-.634.959h-1.06c-.219 0-.397.188-.397.419 0 .231.178.419.397.419h1.16l.095-.014.019.002h4.673l-.452.732-.462.714-.02.034-.458.876-.725.748-.789.324-.037.017-1.614.869-.115.095-.061.025c-.108.044-.179.074-.352.074s-.244-.03-.352-.074c-.115-.047-.255-.103-.475-.123l.001-.014-.001-.026-.09-1.509h1.231c.219 0 .397-.188.397-.419 0-.231-.178-.419-.397-.419h-.924l-2.332-5.256c-.065-.147-.205-.241-.359-.241s-.294.094-.359.241l-2.332 5.256h-.853c-.219 0-.397.187-.397.419 0 .231.178.419.397.419h1.134l-.09 1.509-.001.026c0 .41.092.814.265 1.178-.204.384-.321.822-.326 1.281l-1.792.773-.779-4.285.19-.644.591-.525c.111-.098.162-.253.134-.404-.028-.15-.133-.272-.271-.317l-.738-.243-.497-.625c-.093-.117-.24-.172-.382-.141-.142.03-.257.14-.301.286l-.23.779-.592.525c-.111.098-.162.253-.134.404.029.15.133.272.271.317l.738.243.453.569.797 4.384-1.504.649c-.406.175-.6.665-.434 1.094.126.324.422.521.735.521.1 0 .202-.021.3-.063l1.208-.522.377 2.071c.036.2.202.34.389.34l.075-.007c.216-.044.356-.263.315-.491l-.407-2.236 1.654-.714c.35 1.42 1.575 2.44 2.986 2.44l.247-.01c.542-.046 1.064-.242 1.51-.568.113-.082.178-.221.171-.366-.007-.145-.085-.276-.205-.346-.259-.149-.428-.425-.451-.734-.01-.135.007-.265.05-.39l.182-.257 5.64 1.661-2.125 2.074c-.322.314-.342.845-.044 1.185.156.179.369.269.583.269.192 0 .386-.074.538-.223l3.17-3.094c.211-.207.301-.518.233-.813-.068-.295-.281-.529-.559-.611l-7.02-2.068-.003-.071c-.029-.384-.135-.753-.308-1.083l.139-.347c.149.004.219.032.318.073.142.058.318.131.641.131s.499-.072.641-.131c.107-.044.179-.074.352-.074s.244.029.352.074c.142.058.318.131.641.131s.499-.072.64-.131c.108-.044.179-.074.352-.074s.244.029.352.074c.142.058.318.131.641.131s.499-.072.64-.131c.108-.044.179-.074.352-.074.174 0 .245.029.352.074.142.058.318.131.64.131.323 0 .499-.072.641-.131.108-.044.179-.074.352-.074s.244.029.352.074c.142.058.318.131.64.131.323 0 .499-.072.641-.131.108-.044.179-.074.352-.074.174 0 .245.029.352.074.142.058.318.131.64.131.323 0 .499-.072.641-.131.108-.044.179-.074.352-.074s.245.029.352.074c.142.058.318.131.641.131.219 0 .397-.188.397-.419 0-.231-.177-.419-.397-.419zm-7.494-5.346h-3.247l.269-.407 1.133-.858.123-.153.428-.902.481.917c.035.067.087.123.15.161l.663.401v.841zm-13.865 2.928l-.018-.006.019-.017.106-.094c.058-.051.101-.12.124-.196l.049-.165.051.064.055.068c.049.062.113.107.186.131l.156.051-.125.111c-.058.051-.101.119-.124.196l-.048.165-.105-.132c-.049-.062-.113-.107-.186-.131l-.138-.045zm12.909 1.675l.825-.851.07-.097.477-.913.231-.356.025.065c.06.162.208.265.369.265l.069-.006.738-.138c.101-.019.191-.078.251-.166l.341-.493.311.01.32.765.549 1.343c.03.073.08.136.142.181l.809.58.021.015.866.539c-.139-.005-.206-.033-.303-.073-.142-.058-.317-.131-.641-.131-.323 0-.499.072-.64.131-.108.044-.179.074-.352.074s-.244-.03-.352-.074c-.142-.058-.318-.131-.64-.131-.323 0-.499.072-.641.131-.108.044-.179.074-.352.074s-.244-.03-.352-.074c-.142-.058-.318-.131-.641-.131s-.499.072-.641.131c-.107.044-.178.074-.352.074-.173 0-.244-.03-.352-.074-.142-.058-.318-.131-.64-.131-.323 0-.499.072-.641.131-.108.044-.179.074-.352.074l-.065-.002.564-.303.846-.347.134-.091zm2.164-3.11l.356-.577.037-.077.002-.003.299-.835.019-.052.06.052.325.284.192.791-.242-.008c-.133-.003-.256.061-.333.172l-.178.258-.192.278-.262.049-.108-.29-.016-.043h.042zm-10.633 1.015l1.702-3.836 1.702 3.836.113.254h-3.63l.113-.254zm3.291 1.092l.093 1.548c-.001.151-.02.302-.057.447-.157-.096-.361-.068-.49.08l-.089.174c-.037.147 0 .309.113.419.327.316.525.746.561 1.211l.005.133c.002.31-.07.616-.212.891l-.035.064c-.058.102-.125.199-.202.289l-.067.111c-.111.265-.158.558-.136.848.027.355.153.685.356.954-.208.086-.428.139-.652.158l-.183.007c-1.086 0-2.024-.813-2.244-1.926l-.042-.306-.07-.932.002-.296c.05-.639.413-1.205.946-1.493.07.12.194.201.337.201h.794c.219 0 .397-.188.397-.419l-.001-.009c-.005-.227-.18-.41-.396-.41h-.398v-.998c0-.231-.177-.419-.396-.419h-.674c-.219 0-.397.188-.397.419 0 .231.177.419.397.419h.277v.332c-.29.109-.554.272-.782.476-.033-.138-.05-.28-.051-.424l.093-1.548h3.203z"/></g><g fill="#fff" sketch:type="MSShapeGroup"><path d="M19.58 7.855h.065l-.018.196c0 .571.439 1.035.98 1.035h3.458c.238 0 .468-.092.647-.259.211-.196.333-.479.333-.776 0-.296-.121-.579-.332-.775-.179-.167-.409-.259-.648-.259h-.831l.004-.063c0-.259-.106-.505-.289-.675-.156-.146-.357-.226-.564-.226h-2.803c-.471 0-.853.404-.853.901s.383.901.853.901zm0-.964h2.803l.039.016.021.047-.021.047-.039.016h-.002c-.219 0-.396.188-.396.419 0 .231.177.419.396.419h1.683l.123.05c.023.022.063.07.063.146 0 .077-.04.125-.064.147l-.122.049h-3.458c-.103 0-.186-.088-.186-.196 0-.108.083-.196.186-.196.219 0 .397-.187.397-.419h.002c0-.231-.177-.419-.397-.419h-1.028l-.06-.063.06-.063zM5.075 12.83c.069.055.154.085.24.085.085 0 .169-.029.237-.083.154-.121.204-.343.118-.524l-.117-.148c-.137-.108-.339-.109-.476-.001-.155.122-.204.344-.117.526l.114.145M8.219 12.327c.073.117.198.188.331.188.086 0 .169-.029.237-.083.093-.073.151-.185.159-.307.008-.121-.034-.241-.116-.327l-.04-.037c-.137-.11-.34-.11-.477-.002-.155.122-.204.344-.117.526l.023.042M7.381 7.444l.019.021c.074.077.174.122.28.122.085 0 .169-.029.237-.083.092-.072.151-.185.159-.306.006-.093-.017-.185-.065-.261l-.032-.044-.019-.022c-.073-.077-.174-.122-.28-.122-.085 0-.169.029-.237.083-.092.072-.15.185-.159.306-.006.093.017.184.065.261l.032.044M9.497 9.302l.33.191.18.349c.07.135.203.218.349.218.145 0 .278-.083.348-.218l.18-.349.33-.19c.127-.074.207-.215.207-.368 0-.154-.079-.294-.207-.368l-.33-.191-.18-.348c-.07-.134-.203-.218-.348-.218-.145 0-.279.084-.349.218l-.18.348-.329.191c-.127.074-.207.215-.207.368s.079.294.207.367M6.154 10.859l.33.19.18.348c.069.135.203.218.348.218.145 0 .278-.084.348-.218l.18-.348.33-.19c.127-.074.206-.215.206-.368s-.079-.294-.206-.368l-.33-.19-.18-.349c-.07-.135-.203-.218-.348-.218-.145 0-.279.084-.348.218l-.18.349-.33.19c-.127.073-.207.215-.207.368s.079.294.207.368M12.32 19.096c-.253-.006-.491.098-.669.285-.155.163-.155.429 0 .593.155.164.407.164.561 0l.096-.04.112.051c.078.082.179.123.281.123.101 0 .203-.041.281-.123.155-.163.155-.429 0-.593-.178-.188-.413-.293-.662-.297M12.901 17.553h.358c.219 0 .397-.188.397-.419 0-.231-.178-.419-.397-.419h-.358c-.219 0-.397.188-.397.419 0 .231.178.419.397.419M26.566 19.509c-.323 0-.499.072-.641.131-.108.044-.179.073-.352.073s-.244-.029-.352-.073c-.142-.059-.318-.131-.64-.131-.323 0-.499.072-.641.131-.108.044-.179.073-.352.073-.174 0-.245-.029-.352-.073-.142-.059-.318-.131-.641-.131s-.499.072-.64.131c-.108.044-.179.073-.352.073s-.245-.029-.352-.073c-.142-.059-.318-.131-.64-.131-.323 0-.499.072-.641.131-.108.044-.179.073-.352.073-.219 0-.397.188-.397.419 0 .231.177.419.397.419.323 0 .499-.072.64-.131.108-.044.179-.074.352-.074s.244.029.352.074c.142.058.318.131.641.131s.499-.072.64-.131c.108-.044.179-.074.352-.074.174 0 .245.029.352.074.142.058.318.131.641.131s.499-.072.64-.131c.108-.044.179-.074.352-.074s.244.029.352.074c.142.058.318.131.641.131s.499-.072.641-.131c.108-.044.179-.074.352-.074.219 0 .396-.188.396-.419 0-.231-.177-.419-.396-.419"/><path d="M27.504 18.136c-.173 0-.245-.03-.352-.074-.107-.044-.234-.096-.428-.119l-1.708-1.063-.703-.504-.504-1.234-.409-.978-.13-.535h3.142c.219 0 .397-.188.397-.419 0-.231-.178-.419-.397-.419h-3.345l-.014-.056c-.021-.086-.067-.162-.131-.219l-.912-.798c-.099-.086-.231-.117-.354-.082-.124.035-.225.13-.27.257l-.322.898h-.26v-1.084c0-.15-.076-.289-.2-.364l-.766-.463-.792-1.511c-.071-.136-.209-.219-.355-.216-.147.004-.281.093-.347.231l-.721 1.521-1.108.839-.094.1-.634.959h-1.06c-.219 0-.397.188-.397.419 0 .231.178.419.397.419h1.16l.095-.014.019.002h4.673l-.452.732-.462.714-.02.034-.458.876-.725.748-.789.324-.037.017-1.614.869-.115.095-.061.025c-.108.044-.179.074-.352.074s-.244-.03-.352-.074c-.115-.047-.255-.103-.475-.123l.001-.014-.001-.026-.09-1.509h1.231c.219 0 .397-.188.397-.419 0-.231-.178-.419-.397-.419h-.924l-2.332-5.256c-.065-.147-.205-.241-.359-.241s-.294.094-.359.241l-2.332 5.256h-.853c-.219 0-.397.187-.397.419 0 .231.178.419.397.419h1.134l-.09 1.509-.001.026c0 .41.092.814.265 1.178-.204.384-.321.822-.326 1.281l-1.792.773-.779-4.285.19-.644.591-.525c.111-.098.162-.253.134-.404-.028-.15-.133-.272-.271-.317l-.738-.243-.497-.625c-.093-.117-.24-.172-.382-.141-.142.03-.257.14-.301.286l-.23.779-.592.525c-.111.098-.162.253-.134.404.029.15.133.272.271.317l.738.243.453.569.797 4.384-1.504.649c-.406.175-.6.665-.434 1.094.126.324.422.521.735.521.1 0 .202-.021.3-.063l1.208-.522.377 2.071c.036.2.202.34.389.34l.075-.007c.216-.044.356-.263.315-.491l-.407-2.236 1.654-.714c.35 1.42 1.575 2.44 2.986 2.44l.247-.01c.542-.046 1.064-.242 1.51-.568.113-.082.178-.221.171-.366-.007-.145-.085-.276-.205-.346-.259-.149-.428-.425-.451-.734-.01-.135.007-.265.05-.39l.182-.257 5.64 1.661-2.125 2.074c-.322.314-.342.845-.044 1.185.156.179.369.269.583.269.192 0 .386-.074.538-.223l3.17-3.094c.211-.207.301-.518.233-.813-.068-.295-.281-.529-.559-.611l-7.02-2.068-.003-.071c-.029-.384-.135-.753-.308-1.083l.139-.347c.149.004.219.032.318.073.142.058.318.131.641.131s.499-.072.641-.131c.107-.044.179-.074.352-.074s.244.029.352.074c.142.058.318.131.641.131s.499-.072.64-.131c.108-.044.179-.074.352-.074s.244.029.352.074c.142.058.318.131.641.131s.499-.072.64-.131c.108-.044.179-.074.352-.074.174 0 .245.029.352.074.142.058.318.131.64.131.323 0 .499-.072.641-.131.108-.044.179-.074.352-.074s.244.029.352.074c.142.058.318.131.64.131.323 0 .499-.072.641-.131.108-.044.179-.074.352-.074.174 0 .245.029.352.074.142.058.318.131.64.131.323 0 .499-.072.641-.131.108-.044.179-.074.352-.074s.245.029.352.074c.142.058.318.131.641.131.219 0 .397-.188.397-.419 0-.231-.177-.419-.397-.419zm-7.494-5.346h-3.247l.269-.407 1.133-.858.123-.153.428-.902.481.917c.035.067.087.123.15.161l.663.401v.841zm-13.865 2.928l-.018-.006.019-.017.106-.094c.058-.051.101-.12.124-.196l.049-.165.051.064.055.068c.049.062.113.107.186.131l.156.051-.125.111c-.058.051-.101.119-.124.196l-.048.165-.105-.132c-.049-.062-.113-.107-.186-.131l-.138-.045zm12.909 1.675l.825-.851.07-.097.477-.913.231-.356.025.065c.06.162.208.265.369.265l.069-.006.738-.138c.101-.019.191-.078.251-.166l.341-.493.311.01.32.765.549 1.343c.03.073.08.136.142.181l.809.58.021.015.866.539c-.139-.005-.206-.033-.303-.073-.142-.058-.317-.131-.641-.131-.323 0-.499.072-.64.131-.108.044-.179.074-.352.074s-.244-.03-.352-.074c-.142-.058-.318-.131-.64-.131-.323 0-.499.072-.641.131-.108.044-.179.074-.352.074s-.244-.03-.352-.074c-.142-.058-.318-.131-.641-.131s-.499.072-.641.131c-.107.044-.178.074-.352.074-.173 0-.244-.03-.352-.074-.142-.058-.318-.131-.64-.131-.323 0-.499.072-.641.131-.108.044-.179.074-.352.074l-.065-.002.564-.303.846-.347.134-.091zm2.164-3.11l.356-.577.037-.077.002-.003.299-.835.019-.052.06.052.325.284.192.791-.242-.008c-.133-.003-.256.061-.333.172l-.178.258-.192.278-.262.049-.108-.29-.016-.043h.042zm-10.633 1.015l1.702-3.836 1.702 3.836.113.254h-3.63l.113-.254zm3.291 1.092l.093 1.548c-.001.151-.02.302-.057.447-.157-.096-.361-.068-.49.08l-.089.174c-.037.147 0 .309.113.419.327.316.525.746.561 1.211l.005.133c.002.31-.07.616-.212.891l-.035.064c-.058.102-.125.199-.202.289l-.067.111c-.111.265-.158.558-.136.848.027.355.153.685.356.954-.208.086-.428.139-.652.158l-.183.007c-1.086 0-2.024-.813-2.244-1.926l-.042-.306-.07-.932.002-.296c.05-.639.413-1.205.946-1.493.07.12.194.201.337.201h.794c.219 0 .397-.188.397-.419l-.001-.009c-.005-.227-.18-.41-.396-.41h-.398v-.998c0-.231-.177-.419-.396-.419h-.674c-.219 0-.397.188-.397.419 0 .231.177.419.397.419h.277v.332c-.29.109-.554.272-.782.476-.033-.138-.05-.28-.051-.424l.093-1.548h3.203z"/></g></g></svg>