<svg width="32" height="232" viewBox="0 0 32 232" xmlns="http://www.w3.org/2000/svg" xmlns:sketch="http://www.bohemiancoding.com/sketch/ns"><title>Istanbul</title><g sketch:type="MSLayerGroup" fill="none"><g fill="#373D43" sketch:type="MSShapeGroup"><path d="M29.6 67.09c-.238 0-.34-.042-.48-.1-.17-.07-.382-.158-.769-.158l-.092.003v-3.658h.047c.22 0 .398-.189.398-.421 0-.233-.178-.421-.398-.421h-.047v-3.525h.047c.22 0 .398-.189.398-.421 0-.233-.178-.421-.398-.421h-.047v-3.131l-.001-.003-.003-.053-.998-7.884v-2.145c0-.233-.178-.421-.398-.421-.22 0-.398.188-.398.421v2.146l-.968 7.884-.003.051v3.134h-.048c-.22 0-.398.189-.398.421 0 .233.178.421.398.421h.048v3.525h-.048c-.22 0-.398.188-.398.421 0 .233.178.421.398.421h.048v3.686c-.174.032-.298.083-.405.127l-.093.037c.142-.152.23-.361.23-.592v-2.511c0-.429-.303-.782-.695-.835-.135-.156-.283-.298-.439-.427v-2.39c.167-.05.289-.211.289-.403 0-.192-.122-.353-.289-.403v-2.02c.167-.051.289-.211.289-.403 0-.192-.122-.353-.289-.403v-1.898l-.003-.053-.645-5.092v-1.377c0-.233-.178-.421-.398-.421-.22 0-.398.189-.398.421v1.378l-.625 5.092-.003.051v1.898c-.167.05-.289.211-.289.403 0 .192.122.352.289.403v2.02c-.167.05-.289.211-.289.403 0 .192.122.353.289.403v1.574l-.193-.007-.191.007v-2.01c.05-.218.017-.453-.099-.648-1.076-1.805-2.891-2.928-4.913-3.06v-.729c.225-.198.283-.547.134-.835l-.107-.131c-.233-.187-.565-.208-.789-.045l-.018.014c-.255.209-.279.576-.172.832.031.073.08.136.144.18l.013.008v.706c-2.025.129-3.845 1.252-4.921 3.06-.117.195-.15.43-.1.648v2.01l-.191-.007-.202.007v-1.575c.166-.051.288-.211.288-.403 0-.192-.122-.352-.288-.403v-2.02c.166-.051.288-.211.288-.403 0-.192-.122-.353-.288-.403v-1.895l-.001-.003-.003-.053-.644-5.092v-1.377c0-.233-.179-.421-.398-.421-.22 0-.399.189-.399.421v1.378l-.625 5.092-.003.051v1.898c-.167.05-.289.211-.289.403 0 .192.122.352.289.403v2.02c-.167.05-.289.211-.289.403 0 .192.122.353.289.403v2.399c-.178.149-.344.315-.495.499-.262.138-.443.423-.443.754v2.511c0 .215.077.411.203.56-.135.056-.237.096-.468.096l-.048-.001.034-.169v-3.743h.048c.219 0 .398-.189.398-.421 0-.233-.179-.421-.398-.421h-.048v-3.525h.048c.219 0 .398-.189.398-.421 0-.233-.179-.421-.398-.421h-.048v-3.134l-.003-.053-.999-7.884v-2.145c0-.233-.178-.421-.398-.421-.22 0-.398.188-.398.421v2.146l-.968 7.884-.002.051v3.134h-.049c-.219 0-.398.189-.398.421 0 .233.179.421.398.421h.049v3.525h-.049c-.219 0-.398.188-.398.421 0 .233.179.421.398.421h.049v3.743l.026.145-.218-.075c-.169-.07-.381-.158-.769-.158-.22 0-.398.189-.398.421 0 .233.178.421.398.421.237 0 .339.042.479.1.17.07.382.158.769.158s.599-.087.77-.158c.14-.058.241-.1.478-.1.238 0 .339.042.479.1.17.07.382.158.77.158.387 0 .598-.087.769-.158.14-.058.241-.1.479-.1.237 0 .338.042.479.1.169.07.382.158.769.158s.598-.087.769-.158c.141-.058.243-.1.479-.1.237 0 .338.042.479.1.17.07.382.158.769.158s.599-.087.769-.158c.141-.058.243-.1.479-.1.237 0 .338.042.479.1.17.07.382.158.769.158.388 0 .599-.087.77-.158.14-.058.241-.1.479-.1s.338.042.479.1c.17.07.382.158.769.158.388 0 .599-.087.77-.158.141-.058.242-.1.479-.1s.338.042.479.1c.171.07.382.158.769.158s.599-.087.769-.158c.14-.058.242-.1.479-.1.238 0 .339.042.48.1.17.07.382.158.769.158s.599-.087.769-.158c.14-.058.242-.1.479-.1s.339.042.479.1c.171.07.382.158.769.158s.599-.087.77-.158c.14-.058.242-.1.479-.1s.339.042.479.1c.171.07.382.158.769.158s.599-.087.77-.158c.14-.058.242-.1.48-.1.237 0 .338.042.479.1.17.07.382.158.77.158.22 0 .398-.189.398-.421 0-.233-.178-.421-.398-.421zm-23.878-16.944l.54 4.269h-1.064l.524-4.269zm-.579 5.111h1.177v2.71h-1.177v-2.71zm0 3.552h1.177v3.525h-1.177v-3.525zm0 4.368h1.177v3.322h-1.177v-3.322zm4.224-10.33l.187 1.476h-.368l.181-1.476zm-.236 4.617h.48v1.983h-.48v-1.983zm0-2.299h.48v1.456h-.48v-1.456zm0 5.125h.48v1.695c-.164.048-.324.109-.48.181v-1.876zm13.917-7.442l.187 1.475h-.368l.181-1.475zm-.236 4.616h.48v1.983h-.48v-1.983zm0-2.299h.48v1.456h-.48v-1.456zm0 5.125h.48v1.871c-.155-.071-.315-.131-.48-.179v-1.692zm-9.723 2.561c.865-.76 1.961-1.188 3.128-1.188 1.168 0 2.263.428 3.128 1.188l.246.229h-6.749l.246-.229zm-3.079 2.741h-1.019v-.826h14.64v.826h-13.621zm12.802-2.727c.153.059.302.131.443.216h-2.586l-.083-.106c.324-.162.677-.259 1.045-.285l.191-.007.193.007c.135.009.268.028.398.056.136.03.269.07.398.119zm-11.048.216h-2.585c.139-.083.283-.154.433-.211.129-.05.262-.091.398-.12.131-.029.264-.049.399-.059l.202-.008.191.007c.369.026.722.123 1.046.284l-.083.107zm4.453-5.28c1.049 0 2.038.353 2.835.987h-5.671c.798-.634 1.786-.987 2.835-.987zm-3.821 2.678h7.643v1.845l-.03.018c-1.029-.972-2.364-1.522-3.792-1.522-1.427 0-2.763.55-3.791 1.521l-.031-.017v-1.845zm14.47-10.332l.54 4.268h-1.065l.524-4.268zm-.579 5.111h1.176v2.71h-1.176v-2.71zm0 3.552h1.176v3.525h-1.176v-3.525zm0 4.368h1.176v3.322h-1.176v-3.322z" id="Fill-1"/><path d="M18.777 52.52c.07.055.155.085.241.085s.17-.029.239-.083c.155-.122.205-.344.119-.527l-.117-.149c-.138-.109-.34-.11-.479-.001-.155.123-.205.346-.117.529l.115.146" id="Fill-2"/><path d="M23.426 44.845c.069.055.154.085.24.085s.17-.029.239-.083c.155-.122.205-.344.119-.527l-.117-.148c-.138-.11-.34-.11-.478-.002-.156.122-.205.346-.118.529l.115.146" id="Fill-3"/><path d="M16.991 48.485c.07.055.154.085.241.085.086 0 .169-.029.238-.083.155-.122.205-.344.118-.527l-.117-.149c-.138-.109-.34-.11-.478-.001-.155.122-.205.346-.118.528l.115.146" id="Fill-4"/><path d="M12.551 49.53l.331.192.181.35c.07.135.204.219.349.219.146 0 .28-.084.35-.219l.181-.35.331-.192c.128-.074.207-.216.207-.37s-.079-.296-.207-.37l-.331-.192-.181-.35c-.07-.135-.204-.219-.35-.219-.145 0-.279.084-.349.219l-.181.35-.331.192c-.128.074-.207.216-.207.37s.079.296.207.37" id="Fill-5"/></g><g fill="#fff" sketch:type="MSShapeGroup"><path d="M29.6 27.09c-.238 0-.34-.042-.48-.1-.17-.07-.382-.158-.769-.158l-.092.003v-3.658h.047c.22 0 .398-.189.398-.421 0-.233-.178-.421-.398-.421h-.047v-3.525h.047c.22 0 .398-.189.398-.421 0-.233-.178-.421-.398-.421h-.047v-3.131l-.001-.003-.003-.053-.998-7.884v-2.145c0-.233-.178-.421-.398-.421-.22 0-.398.188-.398.421v2.146l-.968 7.884-.003.051v3.134h-.048c-.22 0-.398.189-.398.421 0 .233.178.421.398.421h.048v3.525h-.048c-.22 0-.398.188-.398.421 0 .233.178.421.398.421h.048v3.686c-.174.032-.298.083-.405.127l-.093.037c.142-.152.23-.361.23-.592v-2.511c0-.429-.303-.782-.695-.835-.135-.156-.283-.298-.439-.427v-2.39c.167-.05.289-.211.289-.403 0-.192-.122-.353-.289-.403v-2.02c.167-.051.289-.211.289-.403 0-.192-.122-.353-.289-.403v-1.898l-.003-.053-.645-5.092v-1.377c0-.233-.178-.421-.398-.421-.22 0-.398.189-.398.421v1.378l-.625 5.092-.003.051v1.898c-.167.05-.289.211-.289.403 0 .192.122.352.289.403v2.02c-.167.05-.289.211-.289.403 0 .192.122.353.289.403v1.574l-.193-.007-.191.007v-2.01c.05-.218.017-.453-.099-.648-1.076-1.805-2.891-2.928-4.913-3.06v-.729c.225-.198.283-.547.134-.835l-.107-.131c-.233-.187-.565-.208-.789-.045l-.018.014c-.255.209-.279.576-.172.832.031.073.08.136.144.18l.013.008v.706c-2.025.129-3.845 1.252-4.921 3.06-.117.195-.15.43-.1.648v2.01l-.191-.007-.202.007v-1.575c.166-.051.288-.211.288-.403 0-.192-.122-.352-.288-.403v-2.02c.166-.051.288-.211.288-.403 0-.192-.122-.353-.288-.403v-1.895l-.001-.003-.003-.053-.644-5.092v-1.377c0-.233-.179-.421-.398-.421-.22 0-.399.189-.399.421v1.378l-.625 5.092-.003.051v1.898c-.167.05-.289.211-.289.403 0 .192.122.352.289.403v2.02c-.167.05-.289.211-.289.403 0 .192.122.353.289.403v2.399c-.178.149-.344.315-.495.499-.262.138-.443.423-.443.754v2.511c0 .215.077.411.203.56-.135.056-.237.096-.468.096l-.048-.001.034-.169v-3.743h.048c.219 0 .398-.189.398-.421 0-.233-.179-.421-.398-.421h-.048v-3.525h.048c.219 0 .398-.189.398-.421 0-.233-.179-.421-.398-.421h-.048v-3.134l-.003-.053-.999-7.884v-2.145c0-.233-.178-.421-.398-.421-.22 0-.398.188-.398.421v2.146l-.968 7.884-.002.051v3.134h-.049c-.219 0-.398.189-.398.421 0 .233.179.421.398.421h.049v3.525h-.049c-.219 0-.398.188-.398.421 0 .233.179.421.398.421h.049v3.743l.026.145-.218-.075c-.169-.07-.381-.158-.769-.158-.22 0-.398.189-.398.421 0 .233.178.421.398.421.237 0 .339.042.479.1.17.07.382.158.769.158s.599-.087.77-.158c.14-.058.241-.1.478-.1.238 0 .339.042.479.1.17.07.382.158.77.158.387 0 .598-.087.769-.158.14-.058.241-.1.479-.1.237 0 .338.042.479.1.169.07.382.158.769.158s.598-.087.769-.158c.141-.058.243-.1.479-.1.237 0 .338.042.479.1.17.07.382.158.769.158s.599-.087.769-.158c.141-.058.243-.1.479-.1.237 0 .338.042.479.1.17.07.382.158.769.158.388 0 .599-.087.77-.158.14-.058.241-.1.479-.1s.338.042.479.1c.17.07.382.158.769.158.388 0 .599-.087.77-.158.141-.058.242-.1.479-.1s.338.042.479.1c.171.07.382.158.769.158s.599-.087.769-.158c.14-.058.242-.1.479-.1.238 0 .339.042.48.1.17.07.382.158.769.158s.599-.087.769-.158c.14-.058.242-.1.479-.1s.339.042.479.1c.171.07.382.158.769.158s.599-.087.77-.158c.14-.058.242-.1.479-.1s.339.042.479.1c.171.07.382.158.769.158s.599-.087.77-.158c.14-.058.242-.1.48-.1.237 0 .338.042.479.1.17.07.382.158.77.158.22 0 .398-.189.398-.421 0-.233-.178-.421-.398-.421zm-23.878-16.944l.54 4.269h-1.064l.524-4.269zm-.579 5.111h1.177v2.71h-1.177v-2.71zm0 3.552h1.177v3.525h-1.177v-3.525zm0 4.368h1.177v3.322h-1.177v-3.322zm4.224-10.33l.187 1.476h-.368l.181-1.476zm-.236 4.617h.48v1.983h-.48v-1.983zm0-2.299h.48v1.456h-.48v-1.456zm0 5.125h.48v1.695c-.164.048-.324.109-.48.181v-1.876zm13.917-7.442l.187 1.475h-.368l.181-1.475zm-.236 4.616h.48v1.983h-.48v-1.983zm0-2.299h.48v1.456h-.48v-1.456zm0 5.125h.48v1.871c-.155-.071-.315-.131-.48-.179v-1.692zm-9.723 2.561c.865-.76 1.961-1.188 3.128-1.188 1.168 0 2.263.428 3.128 1.188l.246.229h-6.749l.246-.229zm-3.079 2.741h-1.019v-.826h14.64v.826h-13.621zm12.802-2.727c.153.059.302.131.443.216h-2.586l-.083-.106c.324-.162.677-.259 1.045-.285l.191-.007.193.007c.135.009.268.028.398.056.136.03.269.07.398.119zm-11.048.216h-2.585c.139-.083.283-.154.433-.211.129-.05.262-.091.398-.12.131-.029.264-.049.399-.059l.202-.008.191.007c.369.026.722.123 1.046.284l-.083.107zm4.453-5.28c1.049 0 2.038.353 2.835.987h-5.671c.798-.634 1.786-.987 2.835-.987zm-3.821 2.678h7.643v1.845l-.03.018c-1.029-.972-2.364-1.522-3.792-1.522-1.427 0-2.763.55-3.791 1.521l-.031-.017v-1.845zm14.47-10.332l.54 4.268h-1.065l.524-4.268zm-.579 5.111h1.176v2.71h-1.176v-2.71zm0 3.552h1.176v3.525h-1.176v-3.525zm0 4.368h1.176v3.322h-1.176v-3.322z" id="Fill-1"/><path d="M18.777 12.52c.07.055.155.085.241.085s.17-.029.239-.083c.155-.122.205-.344.119-.527l-.117-.149c-.138-.109-.34-.11-.479-.001-.155.123-.205.346-.117.529l.115.146" id="Fill-2"/><path d="M23.426 4.845c.069.055.154.085.24.085s.17-.029.239-.083c.155-.122.205-.344.119-.527l-.117-.148c-.138-.11-.34-.11-.478-.002-.156.122-.205.346-.118.529l.115.146" id="Fill-3"/><path d="M16.991 8.485c.07.055.154.085.241.085.086 0 .169-.029.238-.083.155-.122.205-.344.118-.527l-.117-.149c-.138-.109-.34-.11-.478-.001-.155.122-.205.346-.118.528l.115.146" id="Fill-4"/><path d="M12.551 9.53l.331.192.181.35c.07.135.204.219.349.219.146 0 .28-.084.35-.219l.181-.35.331-.192c.128-.074.207-.216.207-.37s-.079-.296-.207-.37l-.331-.192-.181-.35c-.07-.135-.204-.219-.35-.219-.145 0-.279.084-.349.219l-.181.35-.331.192c-.128.074-.207.216-.207.37s.079.296.207.37" id="Fill-5"/></g><g fill="#67737B" sketch:type="MSShapeGroup"><path d="M29.6 107.09c-.238 0-.34-.042-.48-.1-.17-.07-.382-.158-.769-.158l-.092.003v-3.658h.047c.22 0 .398-.189.398-.421 0-.233-.178-.421-.398-.421h-.047v-3.525h.047c.22 0 .398-.189.398-.421 0-.233-.178-.421-.398-.421h-.047v-3.131l-.001-.003-.003-.053-.998-7.884v-2.145c0-.233-.178-.421-.398-.421-.22 0-.398.188-.398.421v2.146l-.968 7.884-.003.051v3.134h-.048c-.22 0-.398.189-.398.421 0 .233.178.421.398.421h.048v3.525h-.048c-.22 0-.398.188-.398.421 0 .233.178.421.398.421h.048v3.686c-.174.032-.298.083-.405.127l-.093.037c.142-.152.23-.361.23-.592v-2.511c0-.429-.303-.782-.695-.835-.135-.156-.283-.298-.439-.427v-2.39c.167-.05.289-.211.289-.403 0-.192-.122-.353-.289-.403v-2.02c.167-.051.289-.211.289-.403 0-.192-.122-.353-.289-.403v-1.898l-.003-.053-.645-5.092v-1.377c0-.233-.178-.421-.398-.421-.22 0-.398.189-.398.421v1.378l-.625 5.092-.003.051v1.898c-.167.05-.289.211-.289.403 0 .192.122.352.289.403v2.02c-.167.05-.289.211-.289.403 0 .192.122.353.289.403v1.574l-.193-.007-.191.007v-2.01c.05-.218.017-.453-.099-.648-1.076-1.805-2.891-2.928-4.913-3.06v-.729c.225-.198.283-.547.134-.835l-.107-.131c-.233-.187-.565-.208-.789-.045l-.018.014c-.255.209-.279.576-.172.832.031.073.08.136.144.18l.013.008v.706c-2.025.129-3.845 1.252-4.921 3.06-.117.195-.15.43-.1.648v2.01l-.191-.007-.202.007v-1.575c.166-.051.288-.211.288-.403 0-.192-.122-.352-.288-.403v-2.02c.166-.051.288-.211.288-.403 0-.192-.122-.353-.288-.403v-1.895l-.001-.003-.003-.053-.644-5.092v-1.377c0-.233-.179-.421-.398-.421-.22 0-.399.189-.399.421v1.378l-.625 5.092-.003.051v1.898c-.167.05-.289.211-.289.403 0 .192.122.352.289.403v2.02c-.167.05-.289.211-.289.403 0 .192.122.353.289.403v2.399c-.178.149-.344.315-.495.499-.262.138-.443.423-.443.754v2.511c0 .215.077.411.203.56-.135.056-.237.096-.468.096l-.048-.001.034-.169v-3.743h.048c.219 0 .398-.189.398-.421 0-.233-.179-.421-.398-.421h-.048v-3.525h.048c.219 0 .398-.189.398-.421 0-.233-.179-.421-.398-.421h-.048v-3.134l-.003-.053-.999-7.884v-2.145c0-.233-.178-.421-.398-.421-.22 0-.398.188-.398.421v2.146l-.968 7.884-.002.051v3.134h-.049c-.219 0-.398.189-.398.421 0 .233.179.421.398.421h.049v3.525h-.049c-.219 0-.398.188-.398.421 0 .233.179.421.398.421h.049v3.743l.026.145-.218-.075c-.169-.07-.381-.158-.769-.158-.22 0-.398.189-.398.421 0 .233.178.421.398.421.237 0 .339.042.479.1.17.07.382.158.769.158s.599-.087.77-.158c.14-.058.241-.1.478-.1.238 0 .339.042.479.1.17.07.382.158.77.158.387 0 .598-.087.769-.158.14-.058.241-.1.479-.1.237 0 .338.042.479.1.169.07.382.158.769.158s.598-.087.769-.158c.141-.058.243-.1.479-.1.237 0 .338.042.479.1.17.07.382.158.769.158s.599-.087.769-.158c.141-.058.243-.1.479-.1.237 0 .338.042.479.1.17.07.382.158.769.158.388 0 .599-.087.77-.158.14-.058.241-.1.479-.1s.338.042.479.1c.17.07.382.158.769.158.388 0 .599-.087.77-.158.141-.058.242-.1.479-.1s.338.042.479.1c.171.07.382.158.769.158s.599-.087.769-.158c.14-.058.242-.1.479-.1.238 0 .339.042.48.1.17.07.382.158.769.158s.599-.087.769-.158c.14-.058.242-.1.479-.1s.339.042.479.1c.171.07.382.158.769.158s.599-.087.77-.158c.14-.058.242-.1.479-.1s.339.042.479.1c.171.07.382.158.769.158s.599-.087.77-.158c.14-.058.242-.1.48-.1.237 0 .338.042.479.1.17.07.382.158.77.158.22 0 .398-.189.398-.421 0-.233-.178-.421-.398-.421zm-23.878-16.944l.54 4.269h-1.064l.524-4.269zm-.579 5.111h1.177v2.71h-1.177v-2.71zm0 3.552h1.177v3.525h-1.177v-3.525zm0 4.368h1.177v3.322h-1.177v-3.322zm4.224-10.33l.187 1.476h-.368l.181-1.476zm-.236 4.617h.48v1.983h-.48v-1.983zm0-2.299h.48v1.456h-.48v-1.456zm0 5.125h.48v1.695c-.164.048-.324.109-.48.181v-1.876zm13.917-7.442l.187 1.475h-.368l.181-1.475zm-.236 4.616h.48v1.983h-.48v-1.983zm0-2.299h.48v1.456h-.48v-1.456zm0 5.125h.48v1.871c-.155-.071-.315-.131-.48-.179v-1.692zm-9.723 2.561c.865-.76 1.961-1.188 3.128-1.188 1.168 0 2.263.428 3.128 1.188l.246.229h-6.749l.246-.229zm-3.079 2.741h-1.019v-.826h14.64v.826h-13.621zm12.802-2.727c.153.059.302.131.443.216h-2.586l-.083-.106c.324-.162.677-.259 1.045-.285l.191-.007.193.007c.135.009.268.028.398.056.136.03.269.07.398.119zm-11.048.216h-2.585c.139-.083.283-.154.433-.211.129-.05.262-.091.398-.12.131-.029.264-.049.399-.059l.202-.008.191.007c.369.026.722.123 1.046.284l-.083.107zm4.453-5.28c1.049 0 2.038.353 2.835.987h-5.671c.798-.634 1.786-.987 2.835-.987zm-3.821 2.678h7.643v1.845l-.03.018c-1.029-.972-2.364-1.522-3.792-1.522-1.427 0-2.763.55-3.791 1.521l-.031-.017v-1.845zm14.47-10.332l.54 4.268h-1.065l.524-4.268zm-.579 5.111h1.176v2.71h-1.176v-2.71zm0 3.552h1.176v3.525h-1.176v-3.525zm0 4.368h1.176v3.322h-1.176v-3.322z"/><path d="M18.777 92.52c.07.055.155.085.241.085s.17-.029.239-.083c.155-.122.205-.344.119-.527l-.117-.149c-.138-.109-.34-.11-.479-.001-.155.123-.205.346-.117.529l.115.146"/><path d="M23.426 84.845c.069.055.154.085.24.085s.17-.029.239-.083c.155-.122.205-.344.119-.527l-.117-.148c-.138-.11-.34-.11-.478-.002-.156.122-.205.346-.118.529l.115.146"/><path d="M16.991 88.485c.07.055.154.085.241.085.086 0 .169-.029.238-.083.155-.122.205-.344.118-.527l-.117-.149c-.138-.109-.34-.11-.478-.001-.155.122-.205.346-.118.528l.115.146"/><path d="M12.551 89.53l.331.192.181.35c.07.135.204.219.349.219.146 0 .28-.084.35-.219l.181-.35.331-.192c.128-.074.207-.216.207-.37s-.079-.296-.207-.37l-.331-.192-.181-.35c-.07-.135-.204-.219-.35-.219-.145 0-.279.084-.349.219l-.181.35-.331.192c-.128.074-.207.216-.207.37s.079.296.207.37"/></g><g fill="#206FAC" sketch:type="MSShapeGroup"><path d="M29.6 148.09c-.238 0-.34-.042-.48-.1-.17-.07-.382-.158-.769-.158l-.092.003v-3.658h.047c.22 0 .398-.189.398-.421 0-.233-.178-.421-.398-.421h-.047v-3.525h.047c.22 0 .398-.189.398-.421 0-.233-.178-.421-.398-.421h-.047v-3.131l-.001-.003-.003-.053-.998-7.884v-2.145c0-.233-.178-.421-.398-.421-.22 0-.398.188-.398.421v2.146l-.968 7.884-.003.051v3.134h-.048c-.22 0-.398.189-.398.421 0 .233.178.421.398.421h.048v3.525h-.048c-.22 0-.398.188-.398.421 0 .233.178.421.398.421h.048v3.686c-.174.032-.298.083-.405.127l-.093.037c.142-.152.23-.361.23-.592v-2.511c0-.429-.303-.782-.695-.835-.135-.156-.283-.298-.439-.427v-2.39c.167-.05.289-.211.289-.403 0-.192-.122-.353-.289-.403v-2.02c.167-.051.289-.211.289-.403 0-.192-.122-.353-.289-.403v-1.898l-.003-.053-.645-5.092v-1.377c0-.233-.178-.421-.398-.421-.22 0-.398.189-.398.421v1.378l-.625 5.092-.003.051v1.898c-.167.05-.289.211-.289.403 0 .192.122.352.289.403v2.02c-.167.05-.289.211-.289.403 0 .192.122.353.289.403v1.574l-.193-.007-.191.007v-2.01c.05-.218.017-.453-.099-.648-1.076-1.805-2.891-2.928-4.913-3.06v-.729c.225-.198.283-.547.134-.835l-.107-.131c-.233-.187-.565-.208-.789-.045l-.018.014c-.255.209-.279.576-.172.832.031.073.08.136.144.18l.013.008v.706c-2.025.129-3.845 1.252-4.921 3.06-.117.195-.15.43-.1.648v2.01l-.191-.007-.202.007v-1.575c.166-.051.288-.211.288-.403 0-.192-.122-.352-.288-.403v-2.02c.166-.051.288-.211.288-.403 0-.192-.122-.353-.288-.403v-1.895l-.001-.003-.003-.053-.644-5.092v-1.377c0-.233-.179-.421-.398-.421-.22 0-.399.189-.399.421v1.378l-.625 5.092-.003.051v1.898c-.167.05-.289.211-.289.403 0 .192.122.352.289.403v2.02c-.167.05-.289.211-.289.403 0 .192.122.353.289.403v2.399c-.178.149-.344.315-.495.499-.262.138-.443.423-.443.754v2.511c0 .215.077.411.203.56-.135.056-.237.096-.468.096l-.048-.001.034-.169v-3.743h.048c.219 0 .398-.189.398-.421 0-.233-.179-.421-.398-.421h-.048v-3.525h.048c.219 0 .398-.189.398-.421 0-.233-.179-.421-.398-.421h-.048v-3.134l-.003-.053-.999-7.884v-2.145c0-.233-.178-.421-.398-.421-.22 0-.398.188-.398.421v2.146l-.968 7.884-.002.051v3.134h-.049c-.219 0-.398.189-.398.421 0 .233.179.421.398.421h.049v3.525h-.049c-.219 0-.398.188-.398.421 0 .233.179.421.398.421h.049v3.743l.026.145-.218-.075c-.169-.07-.381-.158-.769-.158-.22 0-.398.189-.398.421 0 .233.178.421.398.421.237 0 .339.042.479.1.17.07.382.158.769.158s.599-.087.77-.158c.14-.058.241-.1.478-.1.238 0 .339.042.479.1.17.07.382.158.77.158.387 0 .598-.087.769-.158.14-.058.241-.1.479-.1.237 0 .338.042.479.1.169.07.382.158.769.158s.598-.087.769-.158c.141-.058.243-.1.479-.1.237 0 .338.042.479.1.17.07.382.158.769.158s.599-.087.769-.158c.141-.058.243-.1.479-.1.237 0 .338.042.479.1.17.07.382.158.769.158.388 0 .599-.087.77-.158.14-.058.241-.1.479-.1s.338.042.479.1c.17.07.382.158.769.158.388 0 .599-.087.77-.158.141-.058.242-.1.479-.1s.338.042.479.1c.171.07.382.158.769.158s.599-.087.769-.158c.14-.058.242-.1.479-.1.238 0 .339.042.48.1.17.07.382.158.769.158s.599-.087.769-.158c.14-.058.242-.1.479-.1s.339.042.479.1c.171.07.382.158.769.158s.599-.087.77-.158c.14-.058.242-.1.479-.1s.339.042.479.1c.171.07.382.158.769.158s.599-.087.77-.158c.14-.058.242-.1.48-.1.237 0 .338.042.479.1.17.07.382.158.77.158.22 0 .398-.189.398-.421 0-.233-.178-.421-.398-.421zm-23.878-16.944l.54 4.269h-1.064l.524-4.269zm-.579 5.111h1.177v2.71h-1.177v-2.71zm0 3.552h1.177v3.525h-1.177v-3.525zm0 4.368h1.177v3.322h-1.177v-3.322zm4.224-10.33l.187 1.476h-.368l.181-1.476zm-.236 4.617h.48v1.983h-.48v-1.983zm0-2.299h.48v1.456h-.48v-1.456zm0 5.125h.48v1.695c-.164.048-.324.109-.48.181v-1.876zm13.917-7.442l.187 1.475h-.368l.181-1.475zm-.236 4.616h.48v1.983h-.48v-1.983zm0-2.299h.48v1.456h-.48v-1.456zm0 5.125h.48v1.871c-.155-.071-.315-.131-.48-.179v-1.692zm-9.723 2.561c.865-.76 1.961-1.188 3.128-1.188 1.168 0 2.263.428 3.128 1.188l.246.229h-6.749l.246-.229zm-3.079 2.741h-1.019v-.826h14.64v.826h-13.621zm12.802-2.727c.153.059.302.131.443.216h-2.586l-.083-.106c.324-.162.677-.259 1.045-.285l.191-.007.193.007c.135.009.268.028.398.056.136.03.269.07.398.119zm-11.048.216h-2.585c.139-.083.283-.154.433-.211.129-.05.262-.091.398-.12.131-.029.264-.049.399-.059l.202-.008.191.007c.369.026.722.123 1.046.284l-.083.107zm4.453-5.28c1.049 0 2.038.353 2.835.987h-5.671c.798-.634 1.786-.987 2.835-.987zm-3.821 2.678h7.643v1.845l-.03.018c-1.029-.972-2.364-1.522-3.792-1.522-1.427 0-2.763.55-3.791 1.521l-.031-.017v-1.845zm14.47-10.332l.54 4.268h-1.065l.524-4.268zm-.579 5.111h1.176v2.71h-1.176v-2.71zm0 3.552h1.176v3.525h-1.176v-3.525zm0 4.368h1.176v3.322h-1.176v-3.322zM18.777 133.52c.07.055.155.085.241.085s.17-.029.239-.083c.155-.122.205-.344.119-.527l-.117-.149c-.138-.109-.34-.11-.479-.001-.155.123-.205.346-.117.529l.115.146M23.426 125.845c.069.055.154.085.24.085s.17-.029.239-.083c.155-.122.205-.344.119-.527l-.117-.148c-.138-.11-.34-.11-.478-.002-.156.122-.205.346-.118.529l.115.146M16.991 129.485c.07.055.154.085.241.085.086 0 .169-.029.238-.083.155-.122.205-.344.118-.527l-.117-.149c-.138-.109-.34-.11-.478-.001-.155.122-.205.346-.118.528l.115.146M12.551 130.53l.331.192.181.35c.07.135.204.219.349.219.146 0 .28-.084.35-.219l.181-.35.331-.192c.128-.074.207-.216.207-.37s-.079-.296-.207-.37l-.331-.192-.181-.35c-.07-.135-.204-.219-.35-.219-.145 0-.279.084-.349.219l-.181.35-.331.192c-.128.074-.207.216-.207.37s.079.296.207.37"/></g></g></svg>