<svg width="32" height="232" viewBox="0 0 32 232" xmlns="http://www.w3.org/2000/svg" xmlns:sketch="http://www.bohemiancoding.com/sketch/ns"><title>San-Francisco</title><g sketch:type="MSLayerGroup" fill="none"><g fill="#373D43" sketch:type="MSShapeGroup"><path d="M27.323 22.357c.433-.11.698-.562.592-1.009-.107-.448-.545-.721-.977-.611l-2.14.544v-3.028h2.384c.223 0 .404-.187.404-.418 0-.098-.033-.188-.088-.259l-.558-.864.575-.891c.083-.128.091-.293.021-.429-.07-.136-.207-.22-.356-.22h-2.788c-.223 0-.404.187-.404.417v5.897l-.706.179v-6.949c.129-.026.253-.082.361-.174.268-.227.358-.597.25-.917v-1.124c0-.231-.181-.418-.404-.418-.223 0-.404.186-.404.418v.025l-3-3.773c-.062-.078-.137-.142-.22-.192v-.675c0-.231-.181-.418-.404-.418-.223 0-.404.187-.404.418v.675c-.083.05-.158.114-.22.192l-1.849 2.326-.208.067-.216-3.895c-.012-.22-.189-.393-.404-.393h-.656l-.018-.002-.083.009c-.18.034-.32.191-.331.386l-.035.63c-.142.961-.613 1.743-1.203 2.014v-.52c0-.23-.181-.417-.404-.417-.223 0-.404.187-.404.417v.559c-.758-.27-1.344-1.379-1.344-2.661 0-.23-.181-.417-.404-.417l-.018.002h-.675l-.018-.002c-.223 0-.404.186-.404.417 0 1.477-.779 2.725-1.701 2.725-.824 0-1.533-.996-1.674-2.262l-.027-.484-.004-.028-.007-.045-.008-.026-.018-.052-.006-.012c-.067-.136-.202-.231-.36-.231l-.018.002h-.668c-.214 0-.391.173-.403.393l-.21 3.783-.239-.013c-.392 0-.608.086-.78.157-.142.057-.246.099-.486.099-.223 0-.404.187-.404.418 0 .23.181.417.404.417.393 0 .608-.086.78-.157.142-.057.246-.099.486-.099s.343.042.486.099c.173.07.387.157.78.157.392 0 .607-.086.78-.157.143-.057.245-.099.486-.099.24 0 .343.042.486.099.173.07.387.157.78.157.392 0 .608-.086.78-.157.142-.057.245-.099.486-.099.24 0 .343.042.486.099.173.07.387.157.78.157l.176-.007-1.51 1.899v-.013c0-.23-.181-.417-.404-.417-.223 0-.404.187-.404.417v1.095l-.008.023-.012.036-.012.045-.008.034-.008.053-.004.029-.004.075v.007l.004.083.005.039.006.041.011.046.009.033.014.042.012.035.016.035.018.039.016.027.025.043.015.022.031.043.019.021.034.039.058.055.001.001.015.011.048.037.027.017.041.025.032.016.04.019.034.013.04.015.037.009.04.011.041.006.038.006.054.003.025.001h.252v.326l-.096-.007h-2.518v-.722c0-.23-.181-.417-.404-.417-.223 0-.404.186-.404.417v.722h-.465c-.446 0-.808.373-.808.834v8.85l-.076.019c-.433.11-.698.562-.591 1.009.091.381.421.635.784.635l.194-.024 18.362-4.661v1.464l-3.531.896c-.216.055-.349.281-.295.505.045.191.21.318.392.318l.096-.013 6.575-1.668c.216-.055.349-.281.296-.505-.053-.223-.272-.36-.489-.305l-2.236.568v-1.465l2.525-.641zm-2.525-6.351h1.627l-.306.475c-.09.14-.09.323 0 .463l.306.475h-1.628v-1.412zm-5.483 6.666v-2.193c-.015-.338-.285-.606-.615-.606s-.6.268-.615.606v2.504h.005l-1.237.314v-7.075h.247l.076-.004.024-.003.05-.008.028-.006.045-.012.029-.009.043-.016.027-.011.044-.022.023-.011.049-.031.015-.01.059-.046.001-.001.059-.055.034-.039.019-.021.031-.043.016-.022.025-.043.015-.027.019-.039.015-.035.012-.035.014-.042.008-.033.011-.046.006-.041.006-.039.004-.083v-.007l-.004-.075-.004-.029-.008-.053-.008-.034-.011-.045-.012-.036-.014-.041-.017-.036-.017-.037-.023-.039-.018-.031-.035-.048-.012-.017-.635-.798h4.579v8.016l-2.353.597zm-8.494-7.303l2.602-3.273.016.002 1.564 1.966.388.488.09.113.565.711.008.011h-5.247l.014-.018zm5.033-2.863l-.447-.562.026.011c.165.067.372.149.736.155l-.315.396zm3.608-1.909l2.09 2.629h-4.18l2.09-2.629zm-3.792.464l.148-2.671.148 2.671h-.296zm-.755-.974l-.052.936-.179.012-.367-.461c.215-.123.416-.288.598-.487zm-2.403.524l-.336.423-.301.057-.057-1.038c.207.235.441.425.694.558zm-1.744.45l.148-2.671.148 2.671h-.296zm-4.753-2.671l.148 2.671h-.296l.148-2.671zm3.088 2.788c-.143.057-.245.099-.486.099-.24 0-.343-.041-.485-.099-.173-.07-.388-.157-.78-.157-.15 0-.274.014-.379.032l-.054-.979c.426.474.962.757 1.544.757.586 0 1.125-.287 1.552-.766l-.053.957-.079-.002c-.393 0-.608.086-.78.157zm-2.17 7.032h2.983l.096-.006v6.83l-3.079.782v-7.606zm6.427 3.416c-.33 0-.6.269-.615.606v2.108l-1.926.489v-8.607h5.224v7.28l-2.069.525v-1.796c-.015-.337-.285-.606-.615-.606z" id="Fill-1"/><path d="M18.181 17.491h.808v1.796h-.808v-1.796z" id="Fill-2"/><path d="M19.819 17.491h.808v1.796h-.808v-1.796z" id="Fill-3"/><path d="M18.181 15.377h.808v1.796h-.808v-1.796z" id="Fill-4"/><path d="M19.819 15.377h.808v1.796h-.808v-1.796z" id="Fill-5"/><path d="M13.142 17.981c-.015-.337-.285-.606-.615-.606s-.6.269-.615.606v1.516h1.23v-1.516" id="Fill-6"/><path d="M14.778 17.981c-.015-.337-.285-.606-.615-.606-.331 0-.6.269-.615.606v1.516h1.23v-1.516" id="Fill-7"/><path d="M11.923 20.003h2.878v.834h-2.878v-.834z" id="Fill-8"/><path d="M7.284 20.536h.808v1.796h-.808v-1.796z" id="Fill-9"/><path d="M8.34 20.536h.808v1.796h-.808v-1.796z" id="Fill-10"/><path d="M7.284 22.58h.808v1.796h-.808v-1.796z" id="Fill-11"/><path d="M8.34 22.58h.808v1.796h-.808v-1.796z" id="Fill-12"/><path d="M8.749 19.496c0-.316-.247-.571-.552-.571-.306 0-.553.255-.553.571 0 .315.247.571.553.571.305 0 .552-.256.552-.571" id="Fill-13"/><path d="M16.568 4.818h.066l-.018.195c0 .568.447 1.03.996 1.03h4.568c.242 0 .476-.091.659-.257.215-.196.338-.477.338-.773 0-.295-.123-.576-.338-.772-.182-.166-.416-.258-.659-.258h-1.893l.003-.062c0-.257-.107-.502-.294-.672-.159-.145-.363-.225-.574-.225h-2.854c-.479 0-.869.402-.869.897s.39.897.869.897zm0-.96h2.854l.04.016.021.046-.021.047-.039.015h-.002c-.223 0-.404.187-.404.418 0 .231.181.417.404.417h2.76l.125.05c.024.021.064.07.064.145 0 .076-.04.125-.064.147l-.125.049h-4.568c-.104 0-.189-.088-.189-.196 0-.108.085-.195.189-.195.223 0 .404-.186.404-.417h.002c0-.23-.181-.418-.404-.418h-1.046l-.061-.062.061-.063z" id="Fill-14"/><path d="M21.839 8.322c-.171.148-.193.411-.05.588.143.176.398.199.569.051.123-.107.279-.158.439-.143.11.01.212.05.299.115l.005.012c.067.147.21.241.366.241h.046c.158 0 .3-.094.366-.241l.005-.012c.087-.066.19-.105.3-.115.16-.014.315.036.438.143.171.148.426.125.569-.051.143-.177.121-.44-.05-.588-.288-.25-.654-.368-1.028-.335-.225.02-.438.094-.624.214-.186-.12-.398-.194-.624-.214-.375-.034-.74.085-1.027.335" id="Fill-15"/></g><g fill="#fff" sketch:type="MSShapeGroup"><path d="M27.323 102.357c.433-.11.698-.562.592-1.009-.107-.448-.545-.721-.977-.611l-2.14.544v-3.028h2.384c.223 0 .404-.187.404-.418 0-.098-.033-.188-.088-.259l-.558-.864.575-.891c.083-.128.091-.293.021-.429-.07-.136-.207-.22-.356-.22h-2.788c-.223 0-.404.187-.404.417v5.897l-.706.179v-6.949c.129-.026.253-.082.361-.174.268-.227.358-.597.25-.917v-1.124c0-.231-.181-.418-.404-.418-.223 0-.404.186-.404.418v.025l-3-3.773c-.062-.078-.137-.142-.22-.192v-.675c0-.231-.181-.418-.404-.418-.223 0-.404.187-.404.418v.675c-.083.05-.158.114-.22.192l-1.849 2.326-.208.067-.216-3.895c-.012-.22-.189-.393-.404-.393h-.656l-.018-.002-.083.009c-.18.034-.32.191-.331.386l-.035.63c-.142.961-.613 1.743-1.203 2.014v-.52c0-.23-.181-.417-.404-.417-.223 0-.404.187-.404.417v.559c-.758-.27-1.344-1.379-1.344-2.661 0-.23-.181-.417-.404-.417l-.018.002h-.675l-.018-.002c-.223 0-.404.186-.404.417 0 1.477-.779 2.725-1.701 2.725-.824 0-1.533-.996-1.674-2.262l-.027-.484-.004-.028-.007-.045-.008-.026-.018-.052-.006-.012c-.067-.136-.202-.231-.36-.231l-.018.002h-.668c-.214 0-.391.173-.403.393l-.21 3.783-.239-.013c-.392 0-.608.086-.78.157-.142.057-.246.099-.486.099-.223 0-.404.187-.404.418 0 .23.181.417.404.417.393 0 .608-.086.78-.157.142-.057.246-.099.486-.099s.343.042.486.099c.173.07.387.157.78.157.392 0 .607-.086.78-.157.143-.057.245-.099.486-.099.24 0 .343.042.486.099.173.07.387.157.78.157.392 0 .608-.086.78-.157.142-.057.245-.099.486-.099.24 0 .343.042.486.099.173.07.387.157.78.157l.176-.007-1.51 1.899v-.013c0-.23-.181-.417-.404-.417-.223 0-.404.187-.404.417v1.095l-.008.023-.012.036-.012.045-.008.034-.008.053-.004.029-.004.075v.007l.004.083.005.039.006.041.011.046.009.033.014.042.012.035.016.035.018.039.016.027.025.043.015.022.031.043.019.021.034.039.058.055.001.001.015.011.048.037.027.017.041.025.032.016.04.019.034.013.04.015.037.009.04.011.041.006.038.006.054.003.025.001h.252v.326l-.096-.007h-2.518v-.722c0-.23-.181-.417-.404-.417-.223 0-.404.186-.404.417v.722h-.465c-.446 0-.808.373-.808.834v8.85l-.076.019c-.433.11-.698.562-.591 1.009.091.381.421.635.784.635l.194-.024 18.362-4.661v1.464l-3.531.896c-.216.055-.349.281-.295.505.045.191.21.318.392.318l.096-.013 6.575-1.668c.216-.055.349-.281.296-.505-.053-.223-.272-.36-.489-.305l-2.236.568v-1.465l2.525-.641zm-2.525-6.351h1.627l-.306.475c-.09.14-.09.323 0 .463l.306.475h-1.628v-1.412zm-5.483 6.666v-2.193c-.015-.338-.285-.606-.615-.606s-.6.268-.615.606v2.504h.005l-1.237.314v-7.075h.247l.076-.004.024-.003.05-.008.028-.006.045-.012.029-.009.043-.016.027-.011.044-.022.023-.011.049-.031.015-.01.059-.046.001-.001.059-.055.034-.039.019-.021.031-.043.016-.022.025-.043.015-.027.019-.039.015-.035.012-.035.014-.042.008-.033.011-.046.006-.041.006-.039.004-.083v-.007l-.004-.075-.004-.029-.008-.053-.008-.034-.011-.045-.012-.036-.014-.041-.017-.036-.017-.037-.023-.039-.018-.031-.035-.048-.012-.017-.635-.798h4.579v8.016l-2.353.597zm-8.494-7.303l2.602-3.273.016.002 1.564 1.966.388.488.09.113.565.711.008.011h-5.247l.014-.018zm5.033-2.863l-.447-.562.026.011c.165.067.372.149.736.155l-.315.396zm3.608-1.909l2.09 2.629h-4.18l2.09-2.629zm-3.792.464l.148-2.671.148 2.671h-.296zm-.755-.974l-.052.936-.179.012-.367-.461c.215-.123.416-.288.598-.487zm-2.403.524l-.336.423-.301.057-.057-1.038c.207.235.441.425.694.558zm-1.744.45l.148-2.671.148 2.671h-.296zm-4.753-2.671l.148 2.671h-.296l.148-2.671zm3.088 2.788c-.143.057-.245.099-.486.099-.24 0-.343-.041-.485-.099-.173-.07-.388-.157-.78-.157-.15 0-.274.014-.379.032l-.054-.979c.426.474.962.757 1.544.757.586 0 1.125-.287 1.552-.766l-.053.957-.079-.002c-.393 0-.608.086-.78.157zm-2.17 7.032h2.983l.096-.006v6.83l-3.079.782v-7.606zm6.427 3.416c-.33 0-.6.269-.615.606v2.108l-1.926.489v-8.607h5.224v7.28l-2.069.525v-1.796c-.015-.337-.285-.606-.615-.606z" id="Fill-1"/><path d="M18.181 97.491h.808v1.796h-.808v-1.796z" id="Fill-2"/><path d="M19.819 97.491h.808v1.796h-.808v-1.796z" id="Fill-3"/><path d="M18.181 95.377h.808v1.796h-.808v-1.796z" id="Fill-4"/><path d="M19.819 95.377h.808v1.796h-.808v-1.796z" id="Fill-5"/><path d="M13.142 97.981c-.015-.337-.285-.606-.615-.606s-.6.269-.615.606v1.516h1.23v-1.516" id="Fill-6"/><path d="M14.778 97.981c-.015-.337-.285-.606-.615-.606-.331 0-.6.269-.615.606v1.516h1.23v-1.516" id="Fill-7"/><path d="M11.923 100.003h2.878v.834h-2.878v-.834z" id="Fill-8"/><path d="M7.284 100.536h.808v1.796h-.808v-1.796z" id="Fill-9"/><path d="M8.34 100.536h.808v1.796h-.808v-1.796z" id="Fill-10"/><path d="M7.284 102.58h.808v1.796h-.808v-1.796z" id="Fill-11"/><path d="M8.34 102.58h.808v1.796h-.808v-1.796z" id="Fill-12"/><path d="M8.749 99.496c0-.316-.247-.571-.552-.571-.306 0-.553.255-.553.571 0 .315.247.571.553.571.305 0 .552-.256.552-.571" id="Fill-13"/><path d="M16.568 84.818h.066l-.018.195c0 .568.447 1.03.996 1.03h4.568c.242 0 .476-.091.659-.257.215-.196.338-.477.338-.773 0-.295-.123-.576-.338-.772-.182-.166-.416-.258-.659-.258h-1.893l.003-.062c0-.257-.107-.502-.294-.672-.159-.145-.363-.225-.574-.225h-2.854c-.479 0-.869.402-.869.897s.39.897.869.897zm0-.96h2.854l.04.016.021.046-.021.047-.039.015h-.002c-.223 0-.404.187-.404.418 0 .231.181.417.404.417h2.76l.125.05c.024.021.064.07.064.145 0 .076-.04.125-.064.147l-.125.049h-4.568c-.104 0-.189-.088-.189-.196 0-.108.085-.195.189-.195.223 0 .404-.186.404-.417h.002c0-.23-.181-.418-.404-.418h-1.046l-.061-.062.061-.063z" id="Fill-14"/><path d="M21.839 88.322c-.171.148-.193.411-.05.588.143.176.398.199.569.051.123-.107.279-.158.439-.143.11.01.212.05.299.115l.005.012c.067.147.21.241.366.241h.046c.158 0 .3-.094.366-.241l.005-.012c.087-.066.19-.105.3-.115.16-.014.315.036.438.143.171.148.426.125.569-.051.143-.177.121-.44-.05-.588-.288-.25-.654-.368-1.028-.335-.225.02-.438.094-.624.214-.186-.12-.398-.194-.624-.214-.375-.034-.74.085-1.027.335" id="Fill-15"/></g><g fill="#67737B" sketch:type="MSShapeGroup"><path d="M27.323 62.357c.433-.11.698-.562.592-1.009-.107-.448-.545-.721-.977-.611l-2.14.544v-3.028h2.384c.223 0 .404-.187.404-.418 0-.098-.033-.188-.088-.259l-.558-.864.575-.891c.083-.128.091-.293.021-.429-.07-.136-.207-.22-.356-.22h-2.788c-.223 0-.404.187-.404.417v5.897l-.706.179v-6.949c.129-.026.253-.082.361-.174.268-.227.358-.597.25-.917v-1.124c0-.231-.181-.418-.404-.418-.223 0-.404.186-.404.418v.025l-3-3.773c-.062-.078-.137-.142-.22-.192v-.675c0-.231-.181-.418-.404-.418-.223 0-.404.187-.404.418v.675c-.083.05-.158.114-.22.192l-1.849 2.326-.208.067-.216-3.895c-.012-.22-.189-.393-.404-.393h-.656l-.018-.002-.083.009c-.18.034-.32.191-.331.386l-.035.63c-.142.961-.613 1.743-1.203 2.014v-.52c0-.23-.181-.417-.404-.417-.223 0-.404.187-.404.417v.559c-.758-.27-1.344-1.379-1.344-2.661 0-.23-.181-.417-.404-.417l-.018.002h-.675l-.018-.002c-.223 0-.404.186-.404.417 0 1.477-.779 2.725-1.701 2.725-.824 0-1.533-.996-1.674-2.262l-.027-.484-.004-.028-.007-.045-.008-.026-.018-.052-.006-.012c-.067-.136-.202-.231-.36-.231l-.018.002h-.668c-.214 0-.391.173-.403.393l-.21 3.783-.239-.013c-.392 0-.608.086-.78.157-.142.057-.246.099-.486.099-.223 0-.404.187-.404.418 0 .23.181.417.404.417.393 0 .608-.086.78-.157.142-.057.246-.099.486-.099s.343.042.486.099c.173.07.387.157.78.157.392 0 .607-.086.78-.157.143-.057.245-.099.486-.099.24 0 .343.042.486.099.173.07.387.157.78.157.392 0 .608-.086.78-.157.142-.057.245-.099.486-.099.24 0 .343.042.486.099.173.07.387.157.78.157l.176-.007-1.51 1.899v-.013c0-.23-.181-.417-.404-.417-.223 0-.404.187-.404.417v1.095l-.008.023-.012.036-.012.045-.008.034-.008.053-.004.029-.004.075v.007l.004.083.005.039.006.041.011.046.009.033.014.042.012.035.016.035.018.039.016.027.025.043.015.022.031.043.019.021.034.039.058.055.001.001.015.011.048.037.027.017.041.025.032.016.04.019.034.013.04.015.037.009.04.011.041.006.038.006.054.003.025.001h.252v.326l-.096-.007h-2.518v-.722c0-.23-.181-.417-.404-.417-.223 0-.404.186-.404.417v.722h-.465c-.446 0-.808.373-.808.834v8.85l-.076.019c-.433.11-.698.562-.591 1.009.091.381.421.635.784.635l.194-.024 18.362-4.661v1.464l-3.531.896c-.216.055-.349.281-.295.505.045.191.21.318.392.318l.096-.013 6.575-1.668c.216-.055.349-.281.296-.505-.053-.223-.272-.36-.489-.305l-2.236.568v-1.465l2.525-.641zm-2.525-6.351h1.627l-.306.475c-.09.14-.09.323 0 .463l.306.475h-1.628v-1.412zm-5.483 6.666v-2.193c-.015-.338-.285-.606-.615-.606s-.6.268-.615.606v2.504h.005l-1.237.314v-7.075h.247l.076-.004.024-.003.05-.008.028-.006.045-.012.029-.009.043-.016.027-.011.044-.022.023-.011.049-.031.015-.01.059-.046.001-.001.059-.055.034-.039.019-.021.031-.043.016-.022.025-.043.015-.027.019-.039.015-.035.012-.035.014-.042.008-.033.011-.046.006-.041.006-.039.004-.083v-.007l-.004-.075-.004-.029-.008-.053-.008-.034-.011-.045-.012-.036-.014-.041-.017-.036-.017-.037-.023-.039-.018-.031-.035-.048-.012-.017-.635-.798h4.579v8.016l-2.353.597zm-8.494-7.303l2.602-3.273.016.002 1.564 1.966.388.488.09.113.565.711.008.011h-5.247l.014-.018zm5.033-2.863l-.447-.562.026.011c.165.067.372.149.736.155l-.315.396zm3.608-1.909l2.09 2.629h-4.18l2.09-2.629zm-3.792.464l.148-2.671.148 2.671h-.296zm-.755-.974l-.052.936-.179.012-.367-.461c.215-.123.416-.288.598-.487zm-2.403.524l-.336.423-.301.057-.057-1.038c.207.235.441.425.694.558zm-1.744.45l.148-2.671.148 2.671h-.296zm-4.753-2.671l.148 2.671h-.296l.148-2.671zm3.088 2.788c-.143.057-.245.099-.486.099-.24 0-.343-.041-.485-.099-.173-.07-.388-.157-.78-.157-.15 0-.274.014-.379.032l-.054-.979c.426.474.962.757 1.544.757.586 0 1.125-.287 1.552-.766l-.053.957-.079-.002c-.393 0-.608.086-.78.157zm-2.17 7.032h2.983l.096-.006v6.83l-3.079.782v-7.606zm6.427 3.416c-.33 0-.6.269-.615.606v2.108l-1.926.489v-8.607h5.224v7.28l-2.069.525v-1.796c-.015-.337-.285-.606-.615-.606z"/><path d="M18.181 57.491h.808v1.796h-.808v-1.796z"/><path d="M19.819 57.491h.808v1.796h-.808v-1.796z"/><path d="M18.181 55.377h.808v1.796h-.808v-1.796z"/><path d="M19.819 55.377h.808v1.796h-.808v-1.796z"/><path d="M13.142 57.981c-.015-.337-.285-.606-.615-.606s-.6.269-.615.606v1.516h1.23v-1.516"/><path d="M14.778 57.981c-.015-.337-.285-.606-.615-.606-.331 0-.6.269-.615.606v1.516h1.23v-1.516"/><path d="M11.923 60.003h2.878v.834h-2.878v-.834z"/><path d="M7.284 60.536h.808v1.796h-.808v-1.796z"/><path d="M8.34 60.536h.808v1.796h-.808v-1.796z"/><path d="M7.284 62.58h.808v1.796h-.808v-1.796z"/><path d="M8.34 62.58h.808v1.796h-.808v-1.796z"/><path d="M8.749 59.496c0-.316-.247-.571-.552-.571-.306 0-.553.255-.553.571 0 .315.247.571.553.571.305 0 .552-.256.552-.571"/><path d="M16.568 44.818h.066l-.018.195c0 .568.447 1.03.996 1.03h4.568c.242 0 .476-.091.659-.257.215-.196.338-.477.338-.773 0-.295-.123-.576-.338-.772-.182-.166-.416-.258-.659-.258h-1.893l.003-.062c0-.257-.107-.502-.294-.672-.159-.145-.363-.225-.574-.225h-2.854c-.479 0-.869.402-.869.897s.39.897.869.897zm0-.96h2.854l.04.016.021.046-.021.047-.039.015h-.002c-.223 0-.404.187-.404.418 0 .231.181.417.404.417h2.76l.125.05c.024.021.064.07.064.145 0 .076-.04.125-.064.147l-.125.049h-4.568c-.104 0-.189-.088-.189-.196 0-.108.085-.195.189-.195.223 0 .404-.186.404-.417h.002c0-.23-.181-.418-.404-.418h-1.046l-.061-.062.061-.063z"/><path d="M21.839 48.322c-.171.148-.193.411-.05.588.143.176.398.199.569.051.123-.107.279-.158.439-.143.11.01.212.05.299.115l.005.012c.067.147.21.241.366.241h.046c.158 0 .3-.094.366-.241l.005-.012c.087-.066.19-.105.3-.115.16-.014.315.036.438.143.171.148.426.125.569-.051.143-.177.121-.44-.05-.588-.288-.25-.654-.368-1.028-.335-.225.02-.438.094-.624.214-.186-.12-.398-.194-.624-.214-.375-.034-.74.085-1.027.335"/></g><g fill="#206FAC" sketch:type="MSShapeGroup"><path d="M27.323 140.357c.433-.11.698-.562.592-1.009-.107-.448-.545-.721-.977-.611l-2.14.544v-3.028h2.384c.223 0 .404-.187.404-.418 0-.098-.033-.188-.088-.259l-.558-.864.575-.891c.083-.128.091-.293.021-.429-.07-.136-.207-.22-.356-.22h-2.788c-.223 0-.404.187-.404.417v5.897l-.706.179v-6.949c.129-.026.253-.082.361-.174.268-.227.358-.597.25-.917v-1.124c0-.231-.181-.418-.404-.418-.223 0-.404.186-.404.418v.025l-3-3.773c-.062-.078-.137-.142-.22-.192v-.675c0-.231-.181-.418-.404-.418-.223 0-.404.187-.404.418v.675c-.083.05-.158.114-.22.192l-1.849 2.326-.208.067-.216-3.895c-.012-.22-.189-.393-.404-.393h-.656l-.018-.002-.083.009c-.18.034-.32.191-.331.386l-.035.63c-.142.961-.613 1.743-1.203 2.014v-.52c0-.23-.181-.417-.404-.417-.223 0-.404.187-.404.417v.559c-.758-.27-1.344-1.379-1.344-2.661 0-.23-.181-.417-.404-.417l-.018.002h-.675l-.018-.002c-.223 0-.404.186-.404.417 0 1.477-.779 2.725-1.701 2.725-.824 0-1.533-.996-1.674-2.262l-.027-.484-.004-.028-.007-.045-.008-.026-.018-.052-.006-.012c-.067-.136-.202-.231-.36-.231l-.018.002h-.668c-.214 0-.391.173-.403.393l-.21 3.783-.239-.013c-.392 0-.608.086-.78.157-.142.057-.246.099-.486.099-.223 0-.404.187-.404.418 0 .23.181.417.404.417.393 0 .608-.086.78-.157.142-.057.246-.099.486-.099s.343.042.486.099c.173.07.387.157.78.157.392 0 .607-.086.78-.157.143-.057.245-.099.486-.099.24 0 .343.042.486.099.173.07.387.157.78.157.392 0 .608-.086.78-.157.142-.057.245-.099.486-.099.24 0 .343.042.486.099.173.07.387.157.78.157l.176-.007-1.51 1.899v-.013c0-.23-.181-.417-.404-.417-.223 0-.404.187-.404.417v1.095l-.008.023-.012.036-.012.045-.008.034-.008.053-.004.029-.004.075v.007l.004.083.005.039.006.041.011.046.009.033.014.042.012.035.016.035.018.039.016.027.025.043.015.022.031.043.019.021.034.039.058.055.001.001.015.011.048.037.027.017.041.025.032.016.04.019.034.013.04.015.037.009.04.011.041.006.038.006.054.003.025.001h.252v.326l-.096-.007h-2.518v-.722c0-.23-.181-.417-.404-.417-.223 0-.404.186-.404.417v.722h-.465c-.446 0-.808.373-.808.834v8.85l-.076.019c-.433.11-.698.562-.591 1.009.091.381.421.635.784.635l.194-.024 18.362-4.661v1.464l-3.531.896c-.216.055-.349.281-.295.505.045.191.21.318.392.318l.096-.013 6.575-1.668c.216-.055.349-.281.296-.505-.053-.223-.272-.36-.489-.305l-2.236.568v-1.465l2.525-.641zm-2.525-6.351h1.627l-.306.475c-.09.14-.09.323 0 .463l.306.475h-1.628v-1.412zm-5.483 6.666v-2.193c-.015-.338-.285-.606-.615-.606s-.6.268-.615.606v2.504h.005l-1.237.314v-7.075h.247l.076-.004.024-.003.05-.008.028-.006.045-.012.029-.009.043-.016.027-.011.044-.022.023-.011.049-.031.015-.01.059-.046.001-.001.059-.055.034-.039.019-.021.031-.043.016-.022.025-.043.015-.027.019-.039.015-.035.012-.035.014-.042.008-.033.011-.046.006-.041.006-.039.004-.083v-.007l-.004-.075-.004-.029-.008-.053-.008-.034-.011-.045-.012-.036-.014-.041-.017-.036-.017-.037-.023-.039-.018-.031-.035-.048-.012-.017-.635-.798h4.579v8.016l-2.353.597zm-8.494-7.303l2.602-3.273.016.002 1.564 1.966.388.488.09.113.565.711.008.011h-5.247l.014-.018zm5.033-2.863l-.447-.562.026.011c.165.067.372.149.736.155l-.315.396zm3.608-1.909l2.09 2.629h-4.18l2.09-2.629zm-3.792.464l.148-2.671.148 2.671h-.296zm-.755-.974l-.052.936-.179.012-.367-.461c.215-.123.416-.288.598-.487zm-2.403.524l-.336.423-.301.057-.057-1.038c.207.235.441.425.694.558zm-1.744.45l.148-2.671.148 2.671h-.296zm-4.753-2.671l.148 2.671h-.296l.148-2.671zm3.088 2.788c-.143.057-.245.099-.486.099-.24 0-.343-.041-.485-.099-.173-.07-.388-.157-.78-.157-.15 0-.274.014-.379.032l-.054-.979c.426.474.962.757 1.544.757.586 0 1.125-.287 1.552-.766l-.053.957-.079-.002c-.393 0-.608.086-.78.157zm-2.17 7.032h2.983l.096-.006v6.83l-3.079.782v-7.606zm6.427 3.416c-.33 0-.6.269-.615.606v2.108l-1.926.489v-8.607h5.224v7.28l-2.069.525v-1.796c-.015-.337-.285-.606-.615-.606zM18.181 135.491h.808v1.796h-.808v-1.796zM19.819 135.491h.808v1.796h-.808v-1.796zM18.181 133.377h.808v1.796h-.808v-1.796zM19.819 133.377h.808v1.796h-.808v-1.796zM13.142 135.981c-.015-.337-.285-.606-.615-.606s-.6.269-.615.606v1.516h1.23v-1.516M14.778 135.981c-.015-.337-.285-.606-.615-.606-.331 0-.6.269-.615.606v1.516h1.23v-1.516"/><path d="M11.923 138.003h2.878v.834h-2.878v-.834zM7.284 138.536h.808v1.796h-.808v-1.796zM8.34 138.536h.808v1.796h-.808v-1.796zM7.284 140.58h.808v1.796h-.808v-1.796zM8.34 140.58h.808v1.796h-.808v-1.796zM8.749 137.496c0-.316-.247-.571-.552-.571-.306 0-.553.255-.553.571 0 .315.247.571.553.571.305 0 .552-.256.552-.571"/><path d="M16.568 122.818h.066l-.018.195c0 .568.447 1.03.996 1.03h4.568c.242 0 .476-.091.659-.257.215-.196.338-.477.338-.773 0-.295-.123-.576-.338-.772-.182-.166-.416-.258-.659-.258h-1.893l.003-.062c0-.257-.107-.502-.294-.672-.159-.145-.363-.225-.574-.225h-2.854c-.479 0-.869.402-.869.897s.39.897.869.897zm0-.96h2.854l.04.016.021.046-.021.047-.039.015h-.002c-.223 0-.404.187-.404.418 0 .231.181.417.404.417h2.76l.125.05c.024.021.064.07.064.145 0 .076-.04.125-.064.147l-.125.049h-4.568c-.104 0-.189-.088-.189-.196 0-.108.085-.195.189-.195.223 0 .404-.186.404-.417h.002c0-.23-.181-.418-.404-.418h-1.046l-.061-.062.061-.063zM21.839 126.322c-.171.148-.193.411-.05.588.143.176.398.199.569.051.123-.107.279-.158.439-.143.11.01.212.05.299.115l.005.012c.067.147.21.241.366.241h.046c.158 0 .3-.094.366-.241l.005-.012c.087-.066.19-.105.3-.115.16-.014.315.036.438.143.171.148.426.125.569-.051.143-.177.121-.44-.05-.588-.288-.25-.654-.368-1.028-.335-.225.02-.438.094-.624.214-.186-.12-.398-.194-.624-.214-.375-.034-.74.085-1.027.335"/></g></g></svg>