<svg width="32" height="232" viewBox="0 0 32 232" xmlns="http://www.w3.org/2000/svg" xmlns:sketch="http://www.bohemiancoding.com/sketch/ns"><title>Washington-DC</title><g sketch:type="MSLayerGroup" fill="none"><g fill="#fff" sketch:type="MSShapeGroup"><path d="M29.058 27.125h-2.53v-4.739c0-.244-.184-.441-.411-.441h-2.895v-4.817c.184.033.376.049.578.049.488 0 .965-.095 1.426-.186.444-.088.864-.172 1.276-.172.313 0 .59.05.847.152.126.05.267.031.377-.052.11-.083.176-.218.176-.362v-3.099c0-.185-.107-.35-.268-.414-.349-.139-.72-.206-1.132-.206-.488 0-.965.095-1.426.186-.444.088-.864.172-1.276.172-.313 0-.59-.05-.847-.152l-.055-.017-.014-.003-.07-.008h-.005l-.073.008-.015.003-.066.022-.013.007-.055.032-.008.005-.003.002-.05.045-.011.012-.044.057-.003.006-.031.061-.006.016-.02.07-.003.016-.007.079v8.487h-.657v-.72c0-.244-.184-.441-.411-.441h-2.211v-1.852c.182-.045.318-.22.318-.429 0-.244-.184-.441-.411-.441h-.331v-1.147c.118-.078.197-.216.197-.375 0-.165-.085-.307-.21-.383-.142-1.138-.879-2.076-1.864-2.439v-1.259c0-.228-.161-.413-.368-.437v-.685c0-.244-.184-.441-.411-.441h-.25c-.227 0-.411.197-.411.441 0 .182.103.339.25.406v.274h-.207c-.227 0-.411.197-.411.441v1.259c-.985.363-1.722 1.301-1.864 2.439-.124.076-.209.218-.209.383 0 .159.079.297.196.375v1.147h-.331c-.227 0-.41.197-.41.441 0 .209.136.384.318.429v1.852h-2.211c-.227 0-.411.197-.411.441v.72h-1.273l-.652-13.367c-.007-.135-.042-.266-.103-.383l-1.435-2.767c-.145-.28-.42-.453-.717-.453h-.01c-.302.004-.577.185-.717.472l-1.353 2.768c-.055.113-.087.237-.093.364l-.905 18.547h-.055c-.454 0-.821.395-.821.882s.368.882.821.882h26.276c.453 0 .821-.395.821-.882s-.368-.882-.821-.882zm-22.517-18.25l.638 13.07h-1.435c-.227 0-.411.197-.411.441v4.739h-.852l.891-18.262.564-1.153.604 1.165zm3.555 13.952v3.772l-.188.526h-3.754v-4.298h3.941zm.794 4.011l.027-.158v-5.015h10.007v5.015l.021.134.006.024.102.287.157.441h-1.928v-3.365h.091c.227 0 .411-.197.411-.441v-1.325c0-.244-.184-.441-.411-.441h-6.906c-.227 0-.411.198-.411.441v1.325c0 .244.184.441.411.441h.091v3.365h-1.928l.259-.728zm4.948-13.938h.164v.656h-.164v-.656zm.082 1.538c.94 0 1.729.712 1.924 1.66h-3.849c.196-.948.984-1.66 1.924-1.66zm-1.959 2.542h3.918v1.08h-3.918v-1.08zm.894 1.971h.655v1.831h-.655v-1.831zm1.476 0h.655v1.831h-.655v-1.831zm1.476 0h.496v1.831h-.496v-1.831zm-4.268 0h.496v1.831h-.496v-1.831zm8.227 3.875h3.941v4.298h-3.775l-.166-.467v-3.831zm-3.959 1.375h.655v3.365h-.655v-3.365zm-1.476 0h.655v3.365h-.655v-3.365zm-1.476 0h.655v3.365h-.655v-3.365zm-1.476 0h.655v3.365h-.655v-3.365zm-.501-1.325h6.085v.443h-6.085v-.443zm12.349-8.985c.444-.088.864-.172 1.276-.172.207 0 .399.022.579.066v2.2c-.184-.033-.377-.049-.579-.049-.488 0-.965.095-1.426.186-.444.088-.864.172-1.276.172-.207 0-.398-.022-.578-.066v-.78h1.346c.227 0 .41-.197.41-.441v-1.067l.247-.048zm-1.069.675h-.936v-.538c.184.033.376.049.578.049l.357-.016v.504z" id="Fill-1"/><path d="M16.096 9.415c.189.179.432.278.683.278h1.426l-.004.084c0 .277.111.541.305.725.165.156.375.242.594.242h3.001c.496 0 .899-.434.899-.966 0-.533-.403-.966-.899-.966h-.086l.022-.229c0-.613-.464-1.111-1.034-1.111h-4.224c-.251 0-.494.099-.683.278-.223.211-.351.515-.351.833 0 .318.128.622.351.833zm.543-1.005l.14-.057h4.224c.118 0 .213.103.213.229s-.096.229-.213.229c-.227 0-.411.197-.411.441h-.002c0 .244.184.441.411.441h1.1c.043 0 .078.038.078.084 0 .046-.035.084-.078.084h-3.001l-.051-.021-.027-.063.027-.063.051-.021h.002c.227 0 .411-.197.411-.441s-.184-.441-.411-.441h-2.323l-.14-.058c-.027-.026-.073-.082-.073-.171 0-.089.046-.146.073-.172z" id="Fill-2"/><path d="M9.698 25.409v-1.212c-.009-.208-.169-.374-.365-.374-.196 0-.356.166-.365.374v1.212h.731" id="Fill-3"/><path d="M6.917 23.823c-.196 0-.356.166-.365.374v1.212h.73v-1.212c-.009-.208-.169-.374-.365-.374" id="Fill-4"/><path d="M7.759 24.197v1.212h.731v-1.212c-.009-.208-.169-.374-.365-.374l-.033.003c-.181.017-.324.174-.333.371" id="Fill-5"/><path d="M25.299 24.197c-.009-.208-.169-.374-.365-.374-.196 0-.356.166-.365.374v1.212h.731v-1.212" id="Fill-6"/><path d="M22.812 25.409h.071v-1.212c-.003-.08-.029-.153-.071-.214-.067-.097-.174-.161-.294-.161l-.116.022c-.14.05-.242.188-.249.352v1.212h.66" id="Fill-7"/><path d="M24.091 24.197c-.009-.208-.169-.374-.365-.374-.196 0-.356.166-.365.374v1.212h.731v-1.212" id="Fill-8"/></g><g fill="#373D43" sketch:type="MSShapeGroup"><path d="M29.058 66.125h-2.53v-4.739c0-.244-.184-.441-.411-.441h-2.895v-4.817c.184.033.376.049.578.049.488 0 .965-.095 1.426-.186.444-.088.864-.172 1.276-.172.313 0 .59.05.847.152.126.05.267.031.377-.052.11-.083.176-.218.176-.362v-3.099c0-.185-.107-.35-.268-.414-.349-.139-.72-.206-1.132-.206-.488 0-.965.095-1.426.186-.444.088-.864.172-1.276.172-.313 0-.59-.05-.847-.152l-.055-.017-.014-.003-.07-.008h-.005l-.073.008-.015.003-.066.022-.013.007-.055.032-.008.005-.003.002-.05.045-.011.012-.044.057-.003.006-.031.061-.006.016-.02.07-.003.016-.007.079v8.487h-.657v-.72c0-.244-.184-.441-.411-.441h-2.211v-1.852c.182-.045.318-.22.318-.429 0-.244-.184-.441-.411-.441h-.331v-1.147c.118-.078.197-.216.197-.375 0-.165-.085-.307-.21-.383-.142-1.138-.879-2.076-1.864-2.439v-1.259c0-.228-.161-.413-.368-.437v-.685c0-.244-.184-.441-.411-.441h-.25c-.227 0-.411.197-.411.441 0 .182.103.339.25.406v.274h-.207c-.227 0-.411.197-.411.441v1.259c-.985.363-1.722 1.301-1.864 2.439-.124.076-.209.218-.209.383 0 .159.079.297.196.375v1.147h-.331c-.227 0-.41.197-.41.441 0 .209.136.384.318.429v1.852h-2.211c-.227 0-.411.197-.411.441v.72h-1.273l-.652-13.367c-.007-.135-.042-.266-.103-.383l-1.435-2.767c-.145-.28-.42-.453-.717-.453h-.01c-.302.004-.577.185-.717.472l-1.353 2.768c-.055.113-.087.237-.093.364l-.905 18.547h-.055c-.454 0-.821.395-.821.882s.368.882.821.882h26.276c.453 0 .821-.395.821-.882s-.368-.882-.821-.882zm-22.517-18.25l.638 13.07h-1.435c-.227 0-.411.197-.411.441v4.739h-.852l.891-18.262.564-1.153.604 1.165zm3.555 13.952v3.772l-.188.526h-3.754v-4.298h3.941zm.794 4.011l.027-.158v-5.015h10.007v5.015l.021.134.006.024.102.287.157.441h-1.928v-3.365h.091c.227 0 .411-.197.411-.441v-1.325c0-.244-.184-.441-.411-.441h-6.906c-.227 0-.411.198-.411.441v1.325c0 .244.184.441.411.441h.091v3.365h-1.928l.259-.728zm4.948-13.938h.164v.656h-.164v-.656zm.082 1.538c.94 0 1.729.712 1.924 1.66h-3.849c.196-.948.984-1.66 1.924-1.66zm-1.959 2.542h3.918v1.08h-3.918v-1.08zm.894 1.971h.655v1.831h-.655v-1.831zm1.476 0h.655v1.831h-.655v-1.831zm1.476 0h.496v1.831h-.496v-1.831zm-4.268 0h.496v1.831h-.496v-1.831zm8.227 3.875h3.941v4.298h-3.775l-.166-.467v-3.831zm-3.959 1.375h.655v3.365h-.655v-3.365zm-1.476 0h.655v3.365h-.655v-3.365zm-1.476 0h.655v3.365h-.655v-3.365zm-1.476 0h.655v3.365h-.655v-3.365zm-.501-1.325h6.085v.443h-6.085v-.443zm12.349-8.985c.444-.088.864-.172 1.276-.172.207 0 .399.022.579.066v2.2c-.184-.033-.377-.049-.579-.049-.488 0-.965.095-1.426.186-.444.088-.864.172-1.276.172-.207 0-.398-.022-.578-.066v-.78h1.346c.227 0 .41-.197.41-.441v-1.067l.247-.048zm-1.069.675h-.936v-.538c.184.033.376.049.578.049l.357-.016v.504z" id="Fill-1"/><path d="M16.096 48.415c.189.179.432.278.683.278h1.426l-.004.084c0 .277.111.541.305.725.165.156.375.242.594.242h3.001c.496 0 .899-.434.899-.966 0-.533-.403-.966-.899-.966h-.086l.022-.229c0-.613-.464-1.111-1.034-1.111h-4.224c-.251 0-.494.099-.683.278-.223.211-.351.515-.351.833 0 .318.128.622.351.833zm.543-1.005l.14-.057h4.224c.118 0 .213.103.213.229s-.096.229-.213.229c-.227 0-.411.197-.411.441h-.002c0 .244.184.441.411.441h1.1c.043 0 .078.038.078.084 0 .046-.035.084-.078.084h-3.001l-.051-.021-.027-.063.027-.063.051-.021h.002c.227 0 .411-.197.411-.441s-.184-.441-.411-.441h-2.323l-.14-.058c-.027-.026-.073-.082-.073-.171 0-.089.046-.146.073-.172z" id="Fill-2"/><path d="M9.698 64.409v-1.212c-.009-.208-.169-.374-.365-.374-.196 0-.356.166-.365.374v1.212h.731" id="Fill-3"/><path d="M6.917 62.823c-.196 0-.356.166-.365.374v1.212h.73v-1.212c-.009-.208-.169-.374-.365-.374" id="Fill-4"/><path d="M7.759 63.197v1.212h.731v-1.212c-.009-.208-.169-.374-.365-.374l-.033.003c-.181.017-.324.174-.333.371" id="Fill-5"/><path d="M25.299 63.197c-.009-.208-.169-.374-.365-.374-.196 0-.356.166-.365.374v1.212h.731v-1.212" id="Fill-6"/><path d="M22.812 64.409h.071v-1.212c-.003-.08-.029-.153-.071-.214-.067-.097-.174-.161-.294-.161l-.116.022c-.14.05-.242.188-.249.352v1.212h.66" id="Fill-7"/><path d="M24.091 63.197c-.009-.208-.169-.374-.365-.374-.196 0-.356.166-.365.374v1.212h.731v-1.212" id="Fill-8"/></g><g fill="#67737B" sketch:type="MSShapeGroup"><path d="M29.058 105.125h-2.53v-4.739c0-.244-.184-.441-.411-.441h-2.895v-4.817c.184.033.376.049.578.049.488 0 .965-.095 1.426-.186.444-.088.864-.172 1.276-.172.313 0 .59.05.847.152.126.05.267.031.377-.052.11-.083.176-.218.176-.362v-3.099c0-.185-.107-.35-.268-.414-.349-.139-.72-.206-1.132-.206-.488 0-.965.095-1.426.186-.444.088-.864.172-1.276.172-.313 0-.59-.05-.847-.152l-.055-.017-.014-.003-.07-.008h-.005l-.073.008-.015.003-.066.022-.013.007-.055.032-.008.005-.003.002-.05.045-.011.012-.044.057-.003.006-.031.061-.006.016-.02.07-.003.016-.007.079v8.487h-.657v-.72c0-.244-.184-.441-.411-.441h-2.211v-1.852c.182-.045.318-.22.318-.429 0-.244-.184-.441-.411-.441h-.331v-1.147c.118-.078.197-.216.197-.375 0-.165-.085-.307-.21-.383-.142-1.138-.879-2.076-1.864-2.439v-1.259c0-.228-.161-.413-.368-.437v-.685c0-.244-.184-.441-.411-.441h-.25c-.227 0-.411.197-.411.441 0 .182.103.339.25.406v.274h-.207c-.227 0-.411.197-.411.441v1.259c-.985.363-1.722 1.301-1.864 2.439-.124.076-.209.218-.209.383 0 .159.079.297.196.375v1.147h-.331c-.227 0-.41.197-.41.441 0 .209.136.384.318.429v1.852h-2.211c-.227 0-.411.197-.411.441v.72h-1.273l-.652-13.367c-.007-.135-.042-.266-.103-.383l-1.435-2.767c-.145-.28-.42-.453-.717-.453h-.01c-.302.004-.577.185-.717.472l-1.353 2.768c-.055.113-.087.237-.093.364l-.905 18.547h-.055c-.454 0-.821.395-.821.882s.368.882.821.882h26.276c.453 0 .821-.395.821-.882s-.368-.882-.821-.882zm-22.517-18.25l.638 13.07h-1.435c-.227 0-.411.197-.411.441v4.739h-.852l.891-18.262.564-1.153.604 1.165zm3.555 13.952v3.772l-.188.526h-3.754v-4.298h3.941zm.794 4.011l.027-.158v-5.015h10.007v5.015l.021.134.006.024.102.287.157.441h-1.928v-3.365h.091c.227 0 .411-.197.411-.441v-1.325c0-.244-.184-.441-.411-.441h-6.906c-.227 0-.411.198-.411.441v1.325c0 .244.184.441.411.441h.091v3.365h-1.928l.259-.728zm4.948-13.938h.164v.656h-.164v-.656zm.082 1.538c.94 0 1.729.712 1.924 1.66h-3.849c.196-.948.984-1.66 1.924-1.66zm-1.959 2.542h3.918v1.08h-3.918v-1.08zm.894 1.971h.655v1.831h-.655v-1.831zm1.476 0h.655v1.831h-.655v-1.831zm1.476 0h.496v1.831h-.496v-1.831zm-4.268 0h.496v1.831h-.496v-1.831zm8.227 3.875h3.941v4.298h-3.775l-.166-.467v-3.831zm-3.959 1.375h.655v3.365h-.655v-3.365zm-1.476 0h.655v3.365h-.655v-3.365zm-1.476 0h.655v3.365h-.655v-3.365zm-1.476 0h.655v3.365h-.655v-3.365zm-.501-1.325h6.085v.443h-6.085v-.443zm12.349-8.985c.444-.088.864-.172 1.276-.172.207 0 .399.022.579.066v2.2c-.184-.033-.377-.049-.579-.049-.488 0-.965.095-1.426.186-.444.088-.864.172-1.276.172-.207 0-.398-.022-.578-.066v-.78h1.346c.227 0 .41-.197.41-.441v-1.067l.247-.048zm-1.069.675h-.936v-.538c.184.033.376.049.578.049l.357-.016v.504z"/><path d="M16.096 87.415c.189.179.432.278.683.278h1.426l-.004.084c0 .277.111.541.305.725.165.156.375.242.594.242h3.001c.496 0 .899-.434.899-.966 0-.533-.403-.966-.899-.966h-.086l.022-.229c0-.613-.464-1.111-1.034-1.111h-4.224c-.251 0-.494.099-.683.278-.223.211-.351.515-.351.833 0 .318.128.622.351.833zm.543-1.005l.14-.057h4.224c.118 0 .213.103.213.229s-.096.229-.213.229c-.227 0-.411.197-.411.441h-.002c0 .244.184.441.411.441h1.1c.043 0 .078.038.078.084 0 .046-.035.084-.078.084h-3.001l-.051-.021-.027-.063.027-.063.051-.021h.002c.227 0 .411-.197.411-.441s-.184-.441-.411-.441h-2.323l-.14-.058c-.027-.026-.073-.082-.073-.171 0-.089.046-.146.073-.172z"/><path d="M9.698 103.409v-1.212c-.009-.208-.169-.374-.365-.374-.196 0-.356.166-.365.374v1.212h.731"/><path d="M6.917 101.823c-.196 0-.356.166-.365.374v1.212h.73v-1.212c-.009-.208-.169-.374-.365-.374"/><path d="M7.759 102.197v1.212h.731v-1.212c-.009-.208-.169-.374-.365-.374l-.033.003c-.181.017-.324.174-.333.371"/><path d="M25.299 102.197c-.009-.208-.169-.374-.365-.374-.196 0-.356.166-.365.374v1.212h.731v-1.212"/><path d="M22.812 103.409h.071v-1.212c-.003-.08-.029-.153-.071-.214-.067-.097-.174-.161-.294-.161l-.116.022c-.14.05-.242.188-.249.352v1.212h.66"/><path d="M24.091 102.197c-.009-.208-.169-.374-.365-.374-.196 0-.356.166-.365.374v1.212h.731v-1.212"/></g><g fill="#206FAC" sketch:type="MSShapeGroup"><path d="M29.058 146.125h-2.53v-4.739c0-.244-.184-.441-.411-.441h-2.895v-4.817c.184.033.376.049.578.049.488 0 .965-.095 1.426-.186.444-.088.864-.172 1.276-.172.313 0 .59.05.847.152.126.05.267.031.377-.052.11-.083.176-.218.176-.362v-3.099c0-.185-.107-.35-.268-.414-.349-.139-.72-.206-1.132-.206-.488 0-.965.095-1.426.186-.444.088-.864.172-1.276.172-.313 0-.59-.05-.847-.152l-.055-.017-.014-.003-.07-.008h-.005l-.073.008-.015.003-.066.022-.013.007-.055.032-.008.005-.003.002-.05.045-.011.012-.044.057-.003.006-.031.061-.006.016-.02.07-.003.016-.007.079v8.487h-.657v-.72c0-.244-.184-.441-.411-.441h-2.211v-1.852c.182-.045.318-.22.318-.429 0-.244-.184-.441-.411-.441h-.331v-1.147c.118-.078.197-.216.197-.375 0-.165-.085-.307-.21-.383-.142-1.138-.879-2.076-1.864-2.439v-1.259c0-.228-.161-.413-.368-.437v-.685c0-.244-.184-.441-.411-.441h-.25c-.227 0-.411.197-.411.441 0 .182.103.339.25.406v.274h-.207c-.227 0-.411.197-.411.441v1.259c-.985.363-1.722 1.301-1.864 2.439-.124.076-.209.218-.209.383 0 .159.079.297.196.375v1.147h-.331c-.227 0-.41.197-.41.441 0 .209.136.384.318.429v1.852h-2.211c-.227 0-.411.197-.411.441v.72h-1.273l-.652-13.367c-.007-.135-.042-.266-.103-.383l-1.435-2.767c-.145-.28-.42-.453-.717-.453h-.01c-.302.004-.577.185-.717.472l-1.353 2.768c-.055.113-.087.237-.093.364l-.905 18.547h-.055c-.454 0-.821.395-.821.882s.368.882.821.882h26.276c.453 0 .821-.395.821-.882s-.368-.882-.821-.882zm-22.517-18.25l.638 13.07h-1.435c-.227 0-.411.197-.411.441v4.739h-.852l.891-18.262.564-1.153.604 1.165zm3.555 13.952v3.772l-.188.526h-3.754v-4.298h3.941zm.794 4.011l.027-.158v-5.015h10.007v5.015l.021.134.006.024.102.287.157.441h-1.928v-3.365h.091c.227 0 .411-.197.411-.441v-1.325c0-.244-.184-.441-.411-.441h-6.906c-.227 0-.411.198-.411.441v1.325c0 .244.184.441.411.441h.091v3.365h-1.928l.259-.728zm4.948-13.938h.164v.656h-.164v-.656zm.082 1.538c.94 0 1.729.712 1.924 1.66h-3.849c.196-.948.984-1.66 1.924-1.66zm-1.959 2.542h3.918v1.08h-3.918v-1.08zm.894 1.971h.655v1.831h-.655v-1.831zm1.476 0h.655v1.831h-.655v-1.831zm1.476 0h.496v1.831h-.496v-1.831zm-4.268 0h.496v1.831h-.496v-1.831zm8.227 3.875h3.941v4.298h-3.775l-.166-.467v-3.831zm-3.959 1.375h.655v3.365h-.655v-3.365zm-1.476 0h.655v3.365h-.655v-3.365zm-1.476 0h.655v3.365h-.655v-3.365zm-1.476 0h.655v3.365h-.655v-3.365zm-.501-1.325h6.085v.443h-6.085v-.443zm12.349-8.985c.444-.088.864-.172 1.276-.172.207 0 .399.022.579.066v2.2c-.184-.033-.377-.049-.579-.049-.488 0-.965.095-1.426.186-.444.088-.864.172-1.276.172-.207 0-.398-.022-.578-.066v-.78h1.346c.227 0 .41-.197.41-.441v-1.067l.247-.048zm-1.069.675h-.936v-.538c.184.033.376.049.578.049l.357-.016v.504zM16.096 128.415c.189.179.432.278.683.278h1.426l-.004.084c0 .277.111.541.305.725.165.156.375.242.594.242h3.001c.496 0 .899-.434.899-.966 0-.533-.403-.966-.899-.966h-.086l.022-.229c0-.613-.464-1.111-1.034-1.111h-4.224c-.251 0-.494.099-.683.278-.223.211-.351.515-.351.833 0 .318.128.622.351.833zm.543-1.005l.14-.057h4.224c.118 0 .213.103.213.229s-.096.229-.213.229c-.227 0-.411.197-.411.441h-.002c0 .244.184.441.411.441h1.1c.043 0 .078.038.078.084 0 .046-.035.084-.078.084h-3.001l-.051-.021-.027-.063.027-.063.051-.021h.002c.227 0 .411-.197.411-.441s-.184-.441-.411-.441h-2.323l-.14-.058c-.027-.026-.073-.082-.073-.171 0-.089.046-.146.073-.172zM9.698 144.409v-1.212c-.009-.208-.169-.374-.365-.374-.196 0-.356.166-.365.374v1.212h.731M6.917 142.823c-.196 0-.356.166-.365.374v1.212h.73v-1.212c-.009-.208-.169-.374-.365-.374M7.759 143.197v1.212h.731v-1.212c-.009-.208-.169-.374-.365-.374l-.033.003c-.181.017-.324.174-.333.371M25.299 143.197c-.009-.208-.169-.374-.365-.374-.196 0-.356.166-.365.374v1.212h.731v-1.212M22.812 144.409h.071v-1.212c-.003-.08-.029-.153-.071-.214-.067-.097-.174-.161-.294-.161l-.116.022c-.14.05-.242.188-.249.352v1.212h.66M24.091 143.197c-.009-.208-.169-.374-.365-.374-.196 0-.356.166-.365.374v1.212h.731v-1.212"/></g></g></svg>