<svg width="32" height="232" viewBox="0 0 32 232" xmlns="http://www.w3.org/2000/svg" xmlns:sketch="http://www.bohemiancoding.com/sketch/ns"><title>New-York-City</title><g sketch:type="MSLayerGroup" fill="none"><g fill="#373D43" sketch:type="MSShapeGroup"><path d="M7.063 52.589h3.461c.215 0 .389-.183.389-.41 0-.226-.174-.41-.389-.41h-3.461c-.215 0-.39.184-.39.41 0 .227.175.41.39.41" id="Fill-1"/><path d="M9.509 51.482h3.46c.215 0 .389-.184.389-.411 0-.226-.174-.41-.389-.41h-3.46c-.215 0-.389.184-.389.41 0 .227.174.411.389.411" id="Fill-2"/><path d="M28.512 66.711h-1.303c-.215 0-.389.184-.389.41v.283h-.701v-.665c0-.226-.174-.41-.389-.41h-1.754c-.02-.206-.186-.367-.387-.367h-.824v-3.528c0-.453-.348-.82-.778-.82h-.223v-2.047c0-.453-.349-.82-.778-.82h-.602l-.07-1.445c-.01-.218-.181-.389-.388-.389h-.917v-3.226c0-.227-.174-.41-.389-.41h-.632v-.533c0-.226-.174-.41-.389-.41h-.558l-.34-1.342-.013-.227h1.694l-.023.225c0 .3.122.586.336.784.181.169.414.262.656.262h3.702c.547 0 .992-.469.992-1.046 0-.576-.445-1.046-.992-1.046h-.262c.041-.126.065-.26.065-.401 0-.673-.52-1.221-1.159-1.221h-5.153l-.088-1.521c-.01-.171-.119-.312-.267-.363v-2.934c0-.226-.174-.411-.389-.411-.215 0-.389.184-.389.411v2.934c-.148.051-.257.192-.267.363l-.088 1.521h-.316c-.281 0-.553.109-.765.306-.25.232-.393.566-.393.916 0 .35.143.683.393.916.212.197.484.306.765.306h.174l-.013.227-.34 1.342h-.558c-.215 0-.389.184-.389.41v.533h-.632c-.215 0-.389.183-.389.41v3.226h-.917c-.207 0-.378.171-.388.389l-.07 1.445h-.602c-.43 0-.778.368-.778.82v2.047h-.223c-.43 0-.778.368-.778.82v3.611h-3.169c-.215 0-.389.184-.389.411v.954h-1.733c-.215 0-.389.184-.389.411v1.117c0 .227.174.411.389.411.215 0 .389-.184.389-.411v-.708h1.733c.215 0 .389-.183.389-.41v-.955h2.78v2.133c0 .453.348.82.778.82h12.372c.43 0 .778-.367.778-.82v-2.216h.437c.021.206.186.366.387.366h1.752v.664c0 .227.174.411.389.411h1.479c.215 0 .39-.184.39-.411v-.283h.524v1.353c0 .226.174.41.39.41.215 0 .389-.184.389-.41v-1.763c0-.226-.174-.41-.389-.41zm-16.465-8.977h7.508l.049 1.013h-7.605l.049-1.013zm1.325-3.637h4.857v2.816h-.874v-2.016c0-.13-.058-.244-.147-.319-.067-.056-.15-.091-.242-.091-.215 0-.389.183-.389.41v2.016h-.387v-2.016c0-.227-.174-.41-.389-.41-.215 0-.389.183-.389.41v2.016h-.387v-2.016c0-.227-.174-.41-.389-.41-.092 0-.175.035-.242.091-.089.075-.147.189-.147.319v2.016h-.874v-2.816zm1.022-.943h2.815v.123h-2.815v-.123zm-.033-3.611c0-.116.046-.222.129-.301.05-.046.133-.1.251-.1h.268l-.047.802h-.221c-.118 0-.201-.054-.25-.1-.084-.077-.13-.185-.13-.3zm7.337-.401c.21 0 .38.18.38.401 0 .221-.171.401-.38.401-.215 0-.389.184-.389.411h-.002c0 .226.174.41.389.41h1.357c.118 0 .214.101.214.225 0 .125-.096.225-.214.225h-3.702l-.141-.056c-.028-.025-.073-.081-.073-.169 0-.087.046-.143.073-.169l.141-.056h.002c.215 0 .389-.184.389-.41 0-.227-.174-.411-.389-.411h-2.713l-.047-.802h5.105zm-5.979 1.212l.082-1.418.059 1.007.023.411.012.207.003.052h-.195l.003-.052.012-.207zm-.123 1.08h.411l.227.899h-.866l.227-.899zm-4.2 8.954h8.812v1.227h-1.918c-.43 0-.778.368-.778.82v5.744h-.529v-6.73c0-.226-.174-.41-.389-.41-.215 0-.389.183-.389.41v6.73h-.806v-6.73c0-.226-.174-.41-.39-.41-.215 0-.389.183-.389.41v6.73h-.529v-5.744c0-.453-.348-.82-.778-.82h-1.918v-1.227zm-.778 7.791h-.224v-4.923h2.141v4.923h-.71v-4.267l-.01-.091c-.039-.181-.191-.317-.375-.319l-.005-.001c-.174 0-.319.12-.369.286l-.02.125v4.267h-.428zm10.592 0h-.699v-4.267c0-.166-.093-.307-.227-.372l-.162-.038c-.215 0-.389.183-.389.411v4.267h-.663v-4.923h2.141v4.923z" id="Fill-3"/></g><g fill="#fff" sketch:type="MSShapeGroup"><path d="M7.063 12.589h3.461c.215 0 .389-.183.389-.41 0-.226-.174-.41-.389-.41h-3.461c-.215 0-.39.184-.39.41 0 .227.175.41.39.41" id="Fill-1"/><path d="M9.509 11.482h3.46c.215 0 .389-.184.389-.411 0-.226-.174-.41-.389-.41h-3.46c-.215 0-.389.184-.389.41 0 .227.174.411.389.411" id="Fill-2"/><path d="M28.512 26.711h-1.303c-.215 0-.389.184-.389.41v.283h-.701v-.665c0-.226-.174-.41-.389-.41h-1.754c-.02-.206-.186-.367-.387-.367h-.824v-3.528c0-.453-.348-.82-.778-.82h-.223v-2.047c0-.453-.349-.82-.778-.82h-.602l-.07-1.445c-.01-.218-.181-.389-.388-.389h-.917v-3.226c0-.227-.174-.41-.389-.41h-.632v-.533c0-.226-.174-.41-.389-.41h-.558l-.34-1.342-.013-.227h1.694l-.023.225c0 .3.122.586.336.784.181.169.414.262.656.262h3.702c.547 0 .992-.469.992-1.046 0-.576-.445-1.046-.992-1.046h-.262c.041-.126.065-.26.065-.401 0-.673-.52-1.221-1.159-1.221h-5.153l-.088-1.521c-.01-.171-.119-.312-.267-.363v-2.934c0-.226-.174-.411-.389-.411-.215 0-.389.184-.389.411v2.934c-.148.051-.257.192-.267.363l-.088 1.521h-.316c-.281 0-.553.109-.765.306-.25.232-.393.566-.393.916 0 .35.143.683.393.916.212.197.484.306.765.306h.174l-.013.227-.34 1.342h-.558c-.215 0-.389.184-.389.41v.533h-.632c-.215 0-.389.183-.389.41v3.226h-.917c-.207 0-.378.171-.388.389l-.07 1.445h-.602c-.43 0-.778.368-.778.82v2.047h-.223c-.43 0-.778.368-.778.82v3.611h-3.169c-.215 0-.389.184-.389.411v.954h-1.733c-.215 0-.389.184-.389.411v1.117c0 .227.174.411.389.411.215 0 .389-.184.389-.411v-.708h1.733c.215 0 .389-.183.389-.41v-.955h2.78v2.133c0 .453.348.82.778.82h12.372c.43 0 .778-.367.778-.82v-2.216h.437c.021.206.186.366.387.366h1.752v.664c0 .227.174.411.389.411h1.479c.215 0 .39-.184.39-.411v-.283h.524v1.353c0 .226.174.41.39.41.215 0 .389-.184.389-.41v-1.763c0-.226-.174-.41-.389-.41zm-16.465-8.977h7.508l.049 1.013h-7.605l.049-1.013zm1.325-3.637h4.857v2.816h-.874v-2.016c0-.13-.058-.244-.147-.319-.067-.056-.15-.091-.242-.091-.215 0-.389.183-.389.41v2.016h-.387v-2.016c0-.227-.174-.41-.389-.41-.215 0-.389.183-.389.41v2.016h-.387v-2.016c0-.227-.174-.41-.389-.41-.092 0-.175.035-.242.091-.089.075-.147.189-.147.319v2.016h-.874v-2.816zm1.022-.943h2.815v.123h-2.815v-.123zm-.033-3.611c0-.116.046-.222.129-.301.05-.046.133-.1.251-.1h.268l-.047.802h-.221c-.118 0-.201-.054-.25-.1-.084-.077-.13-.185-.13-.3zm7.337-.401c.21 0 .38.18.38.401 0 .221-.171.401-.38.401-.215 0-.389.184-.389.411h-.002c0 .226.174.41.389.41h1.357c.118 0 .214.101.214.225 0 .125-.096.225-.214.225h-3.702l-.141-.056c-.028-.025-.073-.081-.073-.169 0-.087.046-.143.073-.169l.141-.056h.002c.215 0 .389-.184.389-.41 0-.227-.174-.411-.389-.411h-2.713l-.047-.802h5.105zm-5.979 1.212l.082-1.418.059 1.007.023.411.012.207.003.052h-.195l.003-.052.012-.207zm-.123 1.08h.411l.227.899h-.866l.227-.899zm-4.2 8.954h8.812v1.227h-1.918c-.43 0-.778.368-.778.82v5.744h-.529v-6.73c0-.226-.174-.41-.389-.41-.215 0-.389.183-.389.41v6.73h-.806v-6.73c0-.226-.174-.41-.39-.41-.215 0-.389.183-.389.41v6.73h-.529v-5.744c0-.453-.348-.82-.778-.82h-1.918v-1.227zm-.778 7.791h-.224v-4.923h2.141v4.923h-.71v-4.267l-.01-.091c-.039-.181-.191-.317-.375-.319l-.005-.001c-.174 0-.319.12-.369.286l-.02.125v4.267h-.428zm10.592 0h-.699v-4.267c0-.166-.093-.307-.227-.372l-.162-.038c-.215 0-.389.183-.389.411v4.267h-.663v-4.923h2.141v4.923z" id="Fill-3"/></g><g fill="#67737B" sketch:type="MSShapeGroup"><path d="M7.063 92.589h3.461c.215 0 .389-.183.389-.41 0-.226-.174-.41-.389-.41h-3.461c-.215 0-.39.184-.39.41 0 .227.175.41.39.41"/><path d="M9.509 91.482h3.46c.215 0 .389-.184.389-.411 0-.226-.174-.41-.389-.41h-3.46c-.215 0-.389.184-.389.41 0 .227.174.411.389.411"/><path d="M28.512 106.711h-1.303c-.215 0-.389.184-.389.41v.283h-.701v-.665c0-.226-.174-.41-.389-.41h-1.754c-.02-.206-.186-.367-.387-.367h-.824v-3.528c0-.453-.348-.82-.778-.82h-.223v-2.047c0-.453-.349-.82-.778-.82h-.602l-.07-1.445c-.01-.218-.181-.389-.388-.389h-.917v-3.226c0-.227-.174-.41-.389-.41h-.632v-.533c0-.226-.174-.41-.389-.41h-.558l-.34-1.342-.013-.227h1.694l-.023.225c0 .3.122.586.336.784.181.169.414.262.656.262h3.702c.547 0 .992-.469.992-1.046 0-.576-.445-1.046-.992-1.046h-.262c.041-.126.065-.26.065-.401 0-.673-.52-1.221-1.159-1.221h-5.153l-.088-1.521c-.01-.171-.119-.312-.267-.363v-2.934c0-.226-.174-.411-.389-.411-.215 0-.389.184-.389.411v2.934c-.148.051-.257.192-.267.363l-.088 1.521h-.316c-.281 0-.553.109-.765.306-.25.232-.393.566-.393.916 0 .35.143.683.393.916.212.197.484.306.765.306h.174l-.013.227-.34 1.342h-.558c-.215 0-.389.184-.389.41v.533h-.632c-.215 0-.389.183-.389.41v3.226h-.917c-.207 0-.378.171-.388.389l-.07 1.445h-.602c-.43 0-.778.368-.778.82v2.047h-.223c-.43 0-.778.368-.778.82v3.611h-3.169c-.215 0-.389.184-.389.411v.954h-1.733c-.215 0-.389.184-.389.411v1.117c0 .227.174.411.389.411.215 0 .389-.184.389-.411v-.708h1.733c.215 0 .389-.183.389-.41v-.955h2.78v2.133c0 .453.348.82.778.82h12.372c.43 0 .778-.367.778-.82v-2.216h.437c.021.206.186.366.387.366h1.752v.664c0 .227.174.411.389.411h1.479c.215 0 .39-.184.39-.411v-.283h.524v1.353c0 .226.174.41.39.41.215 0 .389-.184.389-.41v-1.763c0-.226-.174-.41-.389-.41zm-16.465-8.977h7.508l.049 1.013h-7.605l.049-1.013zm1.325-3.637h4.857v2.816h-.874v-2.016c0-.13-.058-.244-.147-.319-.067-.056-.15-.091-.242-.091-.215 0-.389.183-.389.41v2.016h-.387v-2.016c0-.227-.174-.41-.389-.41-.215 0-.389.183-.389.41v2.016h-.387v-2.016c0-.227-.174-.41-.389-.41-.092 0-.175.035-.242.091-.089.075-.147.189-.147.319v2.016h-.874v-2.816zm1.022-.943h2.815v.123h-2.815v-.123zm-.033-3.611c0-.116.046-.222.129-.301.05-.046.133-.1.251-.1h.268l-.047.802h-.221c-.118 0-.201-.054-.25-.1-.084-.077-.13-.185-.13-.3zm7.337-.401c.21 0 .38.18.38.401 0 .221-.171.401-.38.401-.215 0-.389.184-.389.411h-.002c0 .226.174.41.389.41h1.357c.118 0 .214.101.214.225 0 .125-.096.225-.214.225h-3.702l-.141-.056c-.028-.025-.073-.081-.073-.169 0-.087.046-.143.073-.169l.141-.056h.002c.215 0 .389-.184.389-.41 0-.227-.174-.411-.389-.411h-2.713l-.047-.802h5.105zm-5.979 1.212l.082-1.418.059 1.007.023.411.012.207.003.052h-.195l.003-.052.012-.207zm-.123 1.08h.411l.227.899h-.866l.227-.899zm-4.2 8.954h8.812v1.227h-1.918c-.43 0-.778.368-.778.82v5.744h-.529v-6.73c0-.226-.174-.41-.389-.41-.215 0-.389.183-.389.41v6.73h-.806v-6.73c0-.226-.174-.41-.39-.41-.215 0-.389.183-.389.41v6.73h-.529v-5.744c0-.453-.348-.82-.778-.82h-1.918v-1.227zm-.778 7.791h-.224v-4.923h2.141v4.923h-.71v-4.267l-.01-.091c-.039-.181-.191-.317-.375-.319l-.005-.001c-.174 0-.319.12-.369.286l-.02.125v4.267h-.428zm10.592 0h-.699v-4.267c0-.166-.093-.307-.227-.372l-.162-.038c-.215 0-.389.183-.389.411v4.267h-.663v-4.923h2.141v4.923z"/></g><g fill="#206FAC" sketch:type="MSShapeGroup"><path d="M7.063 133.589h3.461c.215 0 .389-.183.389-.41 0-.226-.174-.41-.389-.41h-3.461c-.215 0-.39.184-.39.41 0 .227.175.41.39.41M9.509 132.482h3.46c.215 0 .389-.184.389-.411 0-.226-.174-.41-.389-.41h-3.46c-.215 0-.389.184-.389.41 0 .227.174.411.389.411"/><path d="M28.512 147.711h-1.303c-.215 0-.389.184-.389.41v.283h-.701v-.665c0-.226-.174-.41-.389-.41h-1.754c-.02-.206-.186-.367-.387-.367h-.824v-3.528c0-.453-.348-.82-.778-.82h-.223v-2.047c0-.453-.349-.82-.778-.82h-.602l-.07-1.445c-.01-.218-.181-.389-.388-.389h-.917v-3.226c0-.227-.174-.41-.389-.41h-.632v-.533c0-.226-.174-.41-.389-.41h-.558l-.34-1.342-.013-.227h1.694l-.023.225c0 .3.122.586.336.784.181.169.414.262.656.262h3.702c.547 0 .992-.469.992-1.046 0-.576-.445-1.046-.992-1.046h-.262c.041-.126.065-.26.065-.401 0-.673-.52-1.221-1.159-1.221h-5.153l-.088-1.521c-.01-.171-.119-.312-.267-.363v-2.934c0-.226-.174-.411-.389-.411-.215 0-.389.184-.389.411v2.934c-.148.051-.257.192-.267.363l-.088 1.521h-.316c-.281 0-.553.109-.765.306-.25.232-.393.566-.393.916 0 .35.143.683.393.916.212.197.484.306.765.306h.174l-.013.227-.34 1.342h-.558c-.215 0-.389.184-.389.41v.533h-.632c-.215 0-.389.183-.389.41v3.226h-.917c-.207 0-.378.171-.388.389l-.07 1.445h-.602c-.43 0-.778.368-.778.82v2.047h-.223c-.43 0-.778.368-.778.82v3.611h-3.169c-.215 0-.389.184-.389.411v.954h-1.733c-.215 0-.389.184-.389.411v1.117c0 .227.174.411.389.411.215 0 .389-.184.389-.411v-.708h1.733c.215 0 .389-.183.389-.41v-.955h2.78v2.133c0 .453.348.82.778.82h12.372c.43 0 .778-.367.778-.82v-2.216h.437c.021.206.186.366.387.366h1.752v.664c0 .227.174.411.389.411h1.479c.215 0 .39-.184.39-.411v-.283h.524v1.353c0 .226.174.41.39.41.215 0 .389-.184.389-.41v-1.763c0-.226-.174-.41-.389-.41zm-16.465-8.977h7.508l.049 1.013h-7.605l.049-1.013zm1.325-3.637h4.857v2.816h-.874v-2.016c0-.13-.058-.244-.147-.319-.067-.056-.15-.091-.242-.091-.215 0-.389.183-.389.41v2.016h-.387v-2.016c0-.227-.174-.41-.389-.41-.215 0-.389.183-.389.41v2.016h-.387v-2.016c0-.227-.174-.41-.389-.41-.092 0-.175.035-.242.091-.089.075-.147.189-.147.319v2.016h-.874v-2.816zm1.022-.943h2.815v.123h-2.815v-.123zm-.033-3.611c0-.116.046-.222.129-.301.05-.046.133-.1.251-.1h.268l-.047.802h-.221c-.118 0-.201-.054-.25-.1-.084-.077-.13-.185-.13-.3zm7.337-.401c.21 0 .38.18.38.401 0 .221-.171.401-.38.401-.215 0-.389.184-.389.411h-.002c0 .226.174.41.389.41h1.357c.118 0 .214.101.214.225 0 .125-.096.225-.214.225h-3.702l-.141-.056c-.028-.025-.073-.081-.073-.169 0-.087.046-.143.073-.169l.141-.056h.002c.215 0 .389-.184.389-.41 0-.227-.174-.411-.389-.411h-2.713l-.047-.802h5.105zm-5.979 1.212l.082-1.418.059 1.007.023.411.012.207.003.052h-.195l.003-.052.012-.207zm-.123 1.08h.411l.227.899h-.866l.227-.899zm-4.2 8.954h8.812v1.227h-1.918c-.43 0-.778.368-.778.82v5.744h-.529v-6.73c0-.226-.174-.41-.389-.41-.215 0-.389.183-.389.41v6.73h-.806v-6.73c0-.226-.174-.41-.39-.41-.215 0-.389.183-.389.41v6.73h-.529v-5.744c0-.453-.348-.82-.778-.82h-1.918v-1.227zm-.778 7.791h-.224v-4.923h2.141v4.923h-.71v-4.267l-.01-.091c-.039-.181-.191-.317-.375-.319l-.005-.001c-.174 0-.319.12-.369.286l-.02.125v4.267h-.428zm10.592 0h-.699v-4.267c0-.166-.093-.307-.227-.372l-.162-.038c-.215 0-.389.183-.389.411v4.267h-.663v-4.923h2.141v4.923z"/></g></g></svg>