<svg width="32" height="232" viewBox="0 0 32 232" xmlns="http://www.w3.org/2000/svg" xmlns:sketch="http://www.bohemiancoding.com/sketch/ns"><title>Rocky-Mountain-National-Park</title><g sketch:type="MSLayerGroup" fill="none"><g fill="#fff" sketch:type="MSShapeGroup"><path d="M13.401 99.91c-.413 0-.638.091-.82.163-.15.06-.258.104-.51.104-.253 0-.361-.043-.511-.104-.181-.073-.407-.163-.819-.163-.413 0-.638.09-.82.163-.15.06-.258.104-.511.104s-.361-.043-.511-.104c-.181-.073-.407-.163-.82-.163s-.638.09-.82.163c-.15.06-.258.104-.511.104s-.361-.043-.511-.104c-.181-.073-.407-.163-.82-.163s-.638.091-.82.163c-.15.06-.258.104-.51.104-.235 0-.425.195-.425.436s.19.436.425.436c.412 0 .638-.091.819-.163.15-.06.258-.104.511-.104s.361.043.511.104c.181.073.407.163.82.163s.638-.091.82-.163c.15-.06.258-.104.511-.104s.361.043.511.104c.181.073.407.163.82.163s.638-.091.82-.163c.15-.06.258-.104.511-.104.252 0 .361.043.51.104.181.073.407.163.82.163.412 0 .638-.091.819-.163.15-.06.258-.104.511-.104.235 0 .425-.195.425-.436s-.19-.436-.425-.436" id="Fill-1"/><path d="M12.879 102.111c-.15.06-.258.103-.511.103s-.361-.043-.511-.103c-.181-.073-.407-.163-.82-.163s-.638.091-.82.163c-.15.06-.258.103-.511.103s-.361-.043-.511-.103c-.181-.073-.407-.163-.82-.163s-.638.091-.82.163c-.15.06-.258.103-.51.103-.234 0-.425.195-.425.436s.19.436.425.436c.412 0 .638-.09.819-.163.15-.06.258-.103.511-.103s.361.043.511.103c.181.073.407.163.82.163s.638-.09.82-.163c.15-.06.258-.103.511-.103s.361.043.511.103c.181.073.407.163.82.163s.638-.09.82-.163c.15-.06.258-.103.511-.103.252 0 .361.043.51.103.181.073.407.163.82.163.412 0 .638-.09.819-.163.15-.06.258-.103.511-.103.235 0 .425-.195.425-.436s-.19-.436-.425-.436c-.413 0-.638.091-.82.163-.15.06-.258.103-.51.103-.253 0-.361-.043-.511-.103-.181-.073-.407-.163-.819-.163-.413 0-.638.091-.82.163" id="Fill-2"/><path d="M3.393 89.781h3.103c.226 0 .444-.085.614-.239.2-.181.316-.442.316-.716l-.004-.083h1.474c.26 0 .511-.097.707-.275.231-.209.363-.508.363-.823 0-.315-.132-.614-.363-.823-.196-.177-.447-.275-.707-.275h-4.367c-.59 0-1.069.492-1.069 1.097l.023.226h-.089c-.513 0-.93.428-.93.954s.417.954.93.954zm0-1.037h1.137c.234 0 .425-.195.425-.436h-.002c0-.241-.19-.436-.425-.436-.122 0-.22-.101-.22-.226s.099-.226.22-.226h4.367l.145.057c.028.025.075.081.075.169 0 .088-.047.144-.075.169l-.145.057h-2.402c-.235 0-.425.195-.425.436s.19.436.425.436h.002l.053.021.028.062-.028.062-.053.021h-3.103c-.044 0-.081-.037-.081-.083 0-.046.036-.083.081-.083z" id="Fill-3"/><path d="M12.003 85.207h4.503c.235 0 .425-.195.425-.436s-.19-.436-.425-.436h-4.503c-.234 0-.424.195-.424.436s.19.436.424.436" id="Fill-4"/><path d="M10.807 86.658h4.503c.235 0 .425-.195.425-.436s-.19-.436-.425-.436h-4.503c-.234 0-.424.195-.424.436s.19.436.424.436" id="Fill-5"/><path d="M28.167 105.241h-4.612v-1.044h2.879c.152 0 .292-.083.368-.218.076-.135.076-.301 0-.436l-1.413-2.511h3.156c.152 0 .292-.083.368-.218.076-.135.076-.301 0-.436l-1.163-2.067h.341c.235 0 .425-.195.425-.436 0-.092-.028-.178-.076-.249l-1.082-1.923h.404c.235 0 .425-.195.425-.436 0-.093-.028-.178-.076-.249l-2.092-3.718-.168-.298-.112-.13.839.346.681.28c.218.09.465-.019.552-.242.087-.223-.018-.477-.236-.566l-2.105-.867-1.555-2.8c-.039-.07-.096-.128-.165-.166l-2.343-1.316-1.729-1.442c-.11-.092-.257-.121-.392-.079-.135.043-.241.151-.282.29l-.866 2.939-1.747.997-1.466.703c-.107.051-.189.146-.225.262l-.585 1.871-1.914 1.424-1.083-2.161c-.133-.266-.39-.443-.68-.47-.291-.026-.574.102-.75.34l-1.502 2.024c-.089.12-.146.262-.166.412-.031.24-.072.495-.111.707l-.844.01c-.284.005-.547.156-.7.401l-.63 1.008-1.226 1.092c-.109.097-.192.22-.241.359l-.558 1.566c-.054.152-.064.309-.037.457h-.861c-.235 0-.425.195-.425.436s.19.436.425.436h16.308l-.48.853c-.076.135-.076.301 0 .436s.216.218.368.218h.674l-1.638 2.911c-.076.135-.076.301 0 .436s.216.218.368.218h3.12v1.044h-18.644c-.469 0-.849.39-.849.871s.38.871.849.871h25.28c.469 0 .849-.39.849-.871s-.38-.871-.849-.871zm-5.787 0v-1.001h.325v1.571h-.325v-.57zm-1.596-4.827c.076-.135.076-.301 0-.436s-.216-.218-.368-.218h-.674l1.555-2.763c.076-.135.076-.301 0-.436s-.216-.218-.368-.218h-.757l2.249-3.997 1.549 2.753.095.168.139.248.282.502.184.327h-.757c-.074 0-.144.02-.206.055-.066.038-.122.093-.161.162-.039.069-.058.147-.057.224.001.073.02.146.057.211l.157.28.092.162.446.793.012.021.848 1.506h-.674c-.152 0-.292.083-.368.218l-.055.182c-.007.087.011.175.055.254l1.638 2.911h-6.551l1.638-2.911zm5.838-5.581c-.152 0-.292.083-.368.218l-.055.192c-.005.084.013.168.055.244l1.099 1.954h-.34c-.152 0-.292.083-.368.218-.076.135-.076.301 0 .436l1.163 2.067h-1.549c-.006-.079-.032-.152-.073-.213l-1.537-2.732h.759c.235 0 .425-.195.425-.436 0-.093-.028-.178-.076-.249l-.301-.535-.122-.216-.963-1.711 1.112-1.977 1.542 2.741h-.403zm-1.139-4.048c-.152 0-.292.083-.368.218l-1.235 2.194-.501-.889-.085-1.243c-.01-.148-.093-.28-.219-.352l-1.234-.696-.292-.95c-.03-.098-.093-.182-.178-.237l-.93-.603c-.17-.11-.393-.083-.533.066l-2.705 2.879-1.852 1.941-.057.075-1.196 1.977-.776-.828-.675-.937-.054-.107.011-.008 2.122-1.579c.073-.054.127-.131.155-.219l.571-1.826 1.312-.629.027-.014 1.91-1.09c.096-.055.168-.146.2-.254l.733-2.486 1.268 1.058.064.044 2.271 1.276 1.569 2.824c.047.086.122.152.211.189l.516.213-.05-.003zm-20.128 7.469l.432-1.215 1.153-1.027.158-.188.449-.719c.398-.004.767-.005.87.001.225.026.448-.036.631-.178.232-.18.427-.433.623-1.814l.552-.744.945 1.887.072.12.749 1.039.071.086 1.15 1.228.578 1.524h-8.433zm10.184 0c.003-.112-.015-.227-.058-.339l-.75-1.979-.043-.095 1.303-2.154 1.822-1.909 2.467-2.626.506.329.297.965c.033.107.105.197.2.251l.837.472-.067.09-2.984 5.304c-.076.135-.076.301 0 .436s.216.218.368.218h.757l-.584 1.038h-4.071z" id="Fill-6"/></g><g fill="#373D43" sketch:type="MSShapeGroup"><path d="M13.401 18.91c-.413 0-.638.091-.82.163-.15.06-.258.104-.51.104-.253 0-.361-.043-.511-.104-.181-.073-.407-.163-.819-.163-.413 0-.638.09-.82.163-.15.06-.258.104-.511.104s-.361-.043-.511-.104c-.181-.073-.407-.163-.82-.163s-.638.09-.82.163c-.15.06-.258.104-.511.104s-.361-.043-.511-.104c-.181-.073-.407-.163-.82-.163s-.638.091-.82.163c-.15.06-.258.104-.51.104-.235 0-.425.195-.425.436s.19.436.425.436c.412 0 .638-.091.819-.163.15-.06.258-.104.511-.104s.361.043.511.104c.181.073.407.163.82.163s.638-.091.82-.163c.15-.06.258-.104.511-.104s.361.043.511.104c.181.073.407.163.82.163s.638-.091.82-.163c.15-.06.258-.104.511-.104.252 0 .361.043.51.104.181.073.407.163.82.163.412 0 .638-.091.819-.163.15-.06.258-.104.511-.104.235 0 .425-.195.425-.436s-.19-.436-.425-.436" id="Fill-1"/><path d="M12.879 21.111c-.15.06-.258.103-.511.103s-.361-.043-.511-.103c-.181-.073-.407-.163-.82-.163s-.638.091-.82.163c-.15.06-.258.103-.511.103s-.361-.043-.511-.103c-.181-.073-.407-.163-.82-.163s-.638.091-.82.163c-.15.06-.258.103-.51.103-.234 0-.425.195-.425.436s.19.436.425.436c.412 0 .638-.09.819-.163.15-.06.258-.103.511-.103s.361.043.511.103c.181.073.407.163.82.163s.638-.09.82-.163c.15-.06.258-.103.511-.103s.361.043.511.103c.181.073.407.163.82.163s.638-.09.82-.163c.15-.06.258-.103.511-.103.252 0 .361.043.51.103.181.073.407.163.82.163.412 0 .638-.09.819-.163.15-.06.258-.103.511-.103.235 0 .425-.195.425-.436s-.19-.436-.425-.436c-.413 0-.638.091-.82.163-.15.06-.258.103-.51.103-.253 0-.361-.043-.511-.103-.181-.073-.407-.163-.819-.163-.413 0-.638.091-.82.163" id="Fill-2"/><path d="M3.393 8.781h3.103c.226 0 .444-.085.614-.239.2-.181.316-.442.316-.716l-.004-.083h1.474c.26 0 .511-.097.707-.275.231-.209.363-.508.363-.823 0-.315-.132-.614-.363-.823-.196-.177-.447-.275-.707-.275h-4.367c-.59 0-1.069.492-1.069 1.097l.023.226h-.089c-.513 0-.93.428-.93.954s.417.954.93.954zm0-1.037h1.137c.234 0 .425-.195.425-.436h-.002c0-.241-.19-.436-.425-.436-.122 0-.22-.101-.22-.226s.099-.226.22-.226h4.367l.145.057c.028.025.075.081.075.169 0 .088-.047.144-.075.169l-.145.057h-2.402c-.235 0-.425.195-.425.436s.19.436.425.436h.002l.053.021.028.062-.028.062-.053.021h-3.103c-.044 0-.081-.037-.081-.083 0-.046.036-.083.081-.083z" id="Fill-3"/><path d="M12.003 4.207h4.503c.235 0 .425-.195.425-.436s-.19-.436-.425-.436h-4.503c-.234 0-.424.195-.424.436s.19.436.424.436" id="Fill-4"/><path d="M10.807 5.658h4.503c.235 0 .425-.195.425-.436s-.19-.436-.425-.436h-4.503c-.234 0-.424.195-.424.436s.19.436.424.436" id="Fill-5"/><path d="M28.167 24.241h-4.612v-1.044h2.879c.152 0 .292-.083.368-.218.076-.135.076-.301 0-.436l-1.413-2.511h3.156c.152 0 .292-.083.368-.218.076-.135.076-.301 0-.436l-1.163-2.067h.341c.235 0 .425-.195.425-.436 0-.092-.028-.178-.076-.249l-1.082-1.923h.404c.235 0 .425-.195.425-.436 0-.093-.028-.178-.076-.249l-2.092-3.718-.168-.298-.112-.13.839.346.681.28c.218.09.465-.019.552-.242.087-.223-.018-.477-.236-.566l-2.105-.867-1.555-2.8c-.039-.07-.096-.128-.165-.166l-2.343-1.316-1.729-1.442c-.11-.092-.257-.121-.392-.079-.135.043-.241.151-.282.29l-.866 2.939-1.747.997-1.466.703c-.107.051-.189.146-.225.262l-.585 1.871-1.914 1.424-1.083-2.161c-.133-.266-.39-.443-.68-.47-.291-.026-.574.102-.75.34l-1.502 2.024c-.089.12-.146.262-.166.412-.031.24-.072.495-.111.707l-.844.01c-.284.005-.547.156-.7.401l-.63 1.008-1.226 1.092c-.109.097-.192.22-.241.359l-.558 1.566c-.054.152-.064.309-.037.457h-.861c-.235 0-.425.195-.425.436s.19.436.425.436h16.308l-.48.853c-.076.135-.076.301 0 .436s.216.218.368.218h.674l-1.638 2.911c-.076.135-.076.301 0 .436s.216.218.368.218h3.12v1.044h-18.644c-.469 0-.849.39-.849.871s.38.871.849.871h25.28c.469 0 .849-.39.849-.871s-.38-.871-.849-.871zm-5.787 0v-1.001h.325v1.571h-.325v-.57zm-1.596-4.827c.076-.135.076-.301 0-.436s-.216-.218-.368-.218h-.674l1.555-2.763c.076-.135.076-.301 0-.436s-.216-.218-.368-.218h-.757l2.249-3.997 1.549 2.753.095.168.139.248.282.502.184.327h-.757c-.074 0-.144.02-.206.055-.066.038-.122.093-.161.162-.039.069-.058.147-.057.224.001.073.02.146.057.211l.157.28.092.162.446.793.012.021.848 1.506h-.674c-.152 0-.292.083-.368.218l-.055.182c-.007.087.011.175.055.254l1.638 2.911h-6.551l1.638-2.911zm5.838-5.581c-.152 0-.292.083-.368.218l-.055.192c-.005.084.013.168.055.244l1.099 1.954h-.34c-.152 0-.292.083-.368.218-.076.135-.076.301 0 .436l1.163 2.067h-1.549c-.006-.079-.032-.152-.073-.213l-1.537-2.732h.759c.235 0 .425-.195.425-.436 0-.093-.028-.178-.076-.249l-.301-.535-.122-.216-.963-1.711 1.112-1.977 1.542 2.741h-.403zm-1.139-4.048c-.152 0-.292.083-.368.218l-1.235 2.194-.501-.889-.085-1.243c-.01-.148-.093-.28-.219-.352l-1.234-.696-.292-.95c-.03-.098-.093-.182-.178-.237l-.93-.603c-.17-.11-.393-.083-.533.066l-2.705 2.879-1.852 1.941-.057.075-1.196 1.977-.776-.828-.675-.937-.054-.107.011-.008 2.122-1.579c.073-.054.127-.131.155-.219l.571-1.826 1.312-.629.027-.014 1.91-1.09c.096-.055.168-.146.2-.254l.733-2.486 1.268 1.058.064.044 2.271 1.276 1.569 2.824c.047.086.122.152.211.189l.516.213-.05-.003zm-20.128 7.469l.432-1.215 1.153-1.027.158-.188.449-.719c.398-.004.767-.005.87.001.225.026.448-.036.631-.178.232-.18.427-.433.623-1.814l.552-.744.945 1.887.072.12.749 1.039.071.086 1.15 1.228.578 1.524h-8.433zm10.184 0c.003-.112-.015-.227-.058-.339l-.75-1.979-.043-.095 1.303-2.154 1.822-1.909 2.467-2.626.506.329.297.965c.033.107.105.197.2.251l.837.472-.067.09-2.984 5.304c-.076.135-.076.301 0 .436s.216.218.368.218h.757l-.584 1.038h-4.071z" id="Fill-6"/></g><g fill="#67737B" sketch:type="MSShapeGroup"><path d="M13.401 58.91c-.413 0-.638.091-.82.163-.15.06-.258.104-.51.104-.253 0-.361-.043-.511-.104-.181-.073-.407-.163-.819-.163-.413 0-.638.09-.82.163-.15.06-.258.104-.511.104s-.361-.043-.511-.104c-.181-.073-.407-.163-.82-.163s-.638.09-.82.163c-.15.06-.258.104-.511.104s-.361-.043-.511-.104c-.181-.073-.407-.163-.82-.163s-.638.091-.82.163c-.15.06-.258.104-.51.104-.235 0-.425.195-.425.436s.19.436.425.436c.412 0 .638-.091.819-.163.15-.06.258-.104.511-.104s.361.043.511.104c.181.073.407.163.82.163s.638-.091.82-.163c.15-.06.258-.104.511-.104s.361.043.511.104c.181.073.407.163.82.163s.638-.091.82-.163c.15-.06.258-.104.511-.104.252 0 .361.043.51.104.181.073.407.163.82.163.412 0 .638-.091.819-.163.15-.06.258-.104.511-.104.235 0 .425-.195.425-.436s-.19-.436-.425-.436"/><path d="M12.879 61.111c-.15.06-.258.103-.511.103s-.361-.043-.511-.103c-.181-.073-.407-.163-.82-.163s-.638.091-.82.163c-.15.06-.258.103-.511.103s-.361-.043-.511-.103c-.181-.073-.407-.163-.82-.163s-.638.091-.82.163c-.15.06-.258.103-.51.103-.234 0-.425.195-.425.436s.19.436.425.436c.412 0 .638-.09.819-.163.15-.06.258-.103.511-.103s.361.043.511.103c.181.073.407.163.82.163s.638-.09.82-.163c.15-.06.258-.103.511-.103s.361.043.511.103c.181.073.407.163.82.163s.638-.09.82-.163c.15-.06.258-.103.511-.103.252 0 .361.043.51.103.181.073.407.163.82.163.412 0 .638-.09.819-.163.15-.06.258-.103.511-.103.235 0 .425-.195.425-.436s-.19-.436-.425-.436c-.413 0-.638.091-.82.163-.15.06-.258.103-.51.103-.253 0-.361-.043-.511-.103-.181-.073-.407-.163-.819-.163-.413 0-.638.091-.82.163"/><path d="M3.393 48.781h3.103c.226 0 .444-.085.614-.239.2-.181.316-.442.316-.716l-.004-.083h1.474c.26 0 .511-.097.707-.275.231-.209.363-.508.363-.823 0-.315-.132-.614-.363-.823-.196-.177-.447-.275-.707-.275h-4.367c-.59 0-1.069.492-1.069 1.097l.023.226h-.089c-.513 0-.93.428-.93.954s.417.954.93.954zm0-1.037h1.137c.234 0 .425-.195.425-.436h-.002c0-.241-.19-.436-.425-.436-.122 0-.22-.101-.22-.226s.099-.226.22-.226h4.367l.145.057c.028.025.075.081.075.169 0 .088-.047.144-.075.169l-.145.057h-2.402c-.235 0-.425.195-.425.436s.19.436.425.436h.002l.053.021.028.062-.028.062-.053.021h-3.103c-.044 0-.081-.037-.081-.083 0-.046.036-.083.081-.083z"/><path d="M12.003 44.208h4.503c.235 0 .425-.195.425-.436s-.19-.436-.425-.436h-4.503c-.234 0-.424.195-.424.436s.19.436.424.436"/><path d="M10.807 45.658h4.503c.235 0 .425-.195.425-.436s-.19-.436-.425-.436h-4.503c-.234 0-.424.195-.424.436s.19.436.424.436"/><path d="M28.167 64.241h-4.612v-1.044h2.879c.152 0 .292-.083.368-.218.076-.135.076-.301 0-.436l-1.413-2.511h3.156c.152 0 .292-.083.368-.218.076-.135.076-.301 0-.436l-1.163-2.067h.341c.235 0 .425-.195.425-.436 0-.092-.028-.178-.076-.249l-1.082-1.923h.404c.235 0 .425-.195.425-.436 0-.093-.028-.178-.076-.249l-2.092-3.718-.168-.298-.112-.13.839.346.681.28c.218.09.465-.019.552-.242.087-.223-.018-.477-.236-.566l-2.105-.867-1.555-2.8c-.039-.07-.096-.128-.165-.166l-2.343-1.316-1.729-1.442c-.11-.092-.257-.121-.392-.079-.135.043-.241.151-.282.29l-.866 2.939-1.747.997-1.466.703c-.107.051-.189.146-.225.262l-.585 1.871-1.914 1.424-1.083-2.161c-.133-.266-.39-.443-.68-.47-.291-.026-.574.102-.75.34l-1.502 2.024c-.089.12-.146.262-.166.412-.031.24-.072.495-.111.707l-.844.01c-.284.005-.547.156-.7.401l-.63 1.008-1.226 1.092c-.109.097-.192.22-.241.359l-.558 1.566c-.054.152-.064.309-.037.457h-.861c-.235 0-.425.195-.425.436s.19.436.425.436h16.308l-.48.853c-.076.135-.076.301 0 .436s.216.218.368.218h.674l-1.638 2.911c-.076.135-.076.301 0 .436s.216.218.368.218h3.12v1.044h-18.644c-.469 0-.849.39-.849.871s.38.871.849.871h25.28c.469 0 .849-.39.849-.871s-.38-.871-.849-.871zm-5.787 0v-1.001h.325v1.571h-.325v-.57zm-1.596-4.827c.076-.135.076-.301 0-.436s-.216-.218-.368-.218h-.674l1.555-2.763c.076-.135.076-.301 0-.436s-.216-.218-.368-.218h-.757l2.249-3.997 1.549 2.753.095.168.139.248.282.502.184.327h-.757c-.074 0-.144.02-.206.055-.066.038-.122.093-.161.162-.039.069-.058.147-.057.224.001.073.02.146.057.211l.157.28.092.162.446.793.012.021.848 1.506h-.674c-.152 0-.292.083-.368.218l-.055.182c-.007.087.011.175.055.254l1.638 2.911h-6.551l1.638-2.911zm5.838-5.581c-.152 0-.292.083-.368.218l-.055.192c-.005.084.013.168.055.244l1.099 1.954h-.34c-.152 0-.292.083-.368.218-.076.135-.076.301 0 .436l1.163 2.067h-1.549c-.006-.079-.032-.152-.073-.213l-1.537-2.732h.759c.235 0 .425-.195.425-.436 0-.093-.028-.178-.076-.249l-.301-.535-.122-.216-.963-1.711 1.112-1.977 1.542 2.741h-.403zm-1.139-4.048c-.152 0-.292.083-.368.218l-1.235 2.194-.501-.889-.085-1.243c-.01-.148-.093-.28-.219-.352l-1.234-.696-.292-.95c-.03-.098-.093-.182-.178-.237l-.93-.603c-.17-.11-.393-.083-.533.066l-2.705 2.879-1.852 1.941-.057.075-1.196 1.977-.776-.828-.675-.937-.054-.107.011-.008 2.122-1.579c.073-.054.127-.131.155-.219l.571-1.826 1.312-.629.027-.014 1.91-1.09c.096-.055.168-.146.2-.254l.733-2.486 1.268 1.058.064.044 2.271 1.276 1.569 2.824c.047.086.122.152.211.189l.516.213-.05-.003zm-20.128 7.469l.432-1.215 1.153-1.027.158-.188.449-.719c.398-.004.767-.005.87.001.225.026.448-.036.631-.178.232-.18.427-.433.623-1.814l.552-.744.945 1.887.072.12.749 1.039.071.086 1.15 1.228.578 1.524h-8.433zm10.184 0c.003-.112-.015-.227-.058-.339l-.75-1.979-.043-.095 1.303-2.154 1.822-1.909 2.467-2.626.506.329.297.965c.033.107.105.197.2.251l.837.472-.067.09-2.984 5.304c-.076.135-.076.301 0 .436s.216.218.368.218h.757l-.584 1.038h-4.071z"/></g><g fill="#206FAC" sketch:type="MSShapeGroup"><path d="M13.401 138.91c-.413 0-.638.091-.82.163-.15.06-.258.104-.51.104-.253 0-.361-.043-.511-.104-.181-.073-.407-.163-.819-.163-.413 0-.638.09-.82.163-.15.06-.258.104-.511.104s-.361-.043-.511-.104c-.181-.073-.407-.163-.82-.163s-.638.09-.82.163c-.15.06-.258.104-.511.104s-.361-.043-.511-.104c-.181-.073-.407-.163-.82-.163s-.638.091-.82.163c-.15.06-.258.104-.51.104-.235 0-.425.195-.425.436s.19.436.425.436c.412 0 .638-.091.819-.163.15-.06.258-.104.511-.104s.361.043.511.104c.181.073.407.163.82.163s.638-.091.82-.163c.15-.06.258-.104.511-.104s.361.043.511.104c.181.073.407.163.82.163s.638-.091.82-.163c.15-.06.258-.104.511-.104.252 0 .361.043.51.104.181.073.407.163.82.163.412 0 .638-.091.819-.163.15-.06.258-.104.511-.104.235 0 .425-.195.425-.436s-.19-.436-.425-.436M12.879 141.111c-.15.06-.258.103-.511.103s-.361-.043-.511-.103c-.181-.073-.407-.163-.82-.163s-.638.091-.82.163c-.15.06-.258.103-.511.103s-.361-.043-.511-.103c-.181-.073-.407-.163-.82-.163s-.638.091-.82.163c-.15.06-.258.103-.51.103-.234 0-.425.195-.425.436s.19.436.425.436c.412 0 .638-.09.819-.163.15-.06.258-.103.511-.103s.361.043.511.103c.181.073.407.163.82.163s.638-.09.82-.163c.15-.06.258-.103.511-.103s.361.043.511.103c.181.073.407.163.82.163s.638-.09.82-.163c.15-.06.258-.103.511-.103.252 0 .361.043.51.103.181.073.407.163.82.163.412 0 .638-.09.819-.163.15-.06.258-.103.511-.103.235 0 .425-.195.425-.436s-.19-.436-.425-.436c-.413 0-.638.091-.82.163-.15.06-.258.103-.51.103-.253 0-.361-.043-.511-.103-.181-.073-.407-.163-.819-.163-.413 0-.638.091-.82.163"/><path d="M3.393 128.781h3.103c.226 0 .444-.085.614-.239.2-.181.316-.442.316-.716l-.004-.083h1.474c.26 0 .511-.097.707-.275.231-.209.363-.508.363-.823 0-.315-.132-.614-.363-.823-.196-.177-.447-.275-.707-.275h-4.367c-.59 0-1.069.492-1.069 1.097l.023.226h-.089c-.513 0-.93.428-.93.954s.417.954.93.954zm0-1.037h1.137c.234 0 .425-.195.425-.436h-.002c0-.241-.19-.436-.425-.436-.122 0-.22-.101-.22-.226s.099-.226.22-.226h4.367l.145.057c.028.025.075.081.075.169 0 .088-.047.144-.075.169l-.145.057h-2.402c-.235 0-.425.195-.425.436s.19.436.425.436h.002l.053.021.028.062-.028.062-.053.021h-3.103c-.044 0-.081-.037-.081-.083 0-.046.036-.083.081-.083zM12.003 124.207h4.503c.235 0 .425-.195.425-.436s-.19-.436-.425-.436h-4.503c-.234 0-.424.195-.424.436s.19.436.424.436M10.807 125.658h4.503c.235 0 .425-.195.425-.436s-.19-.436-.425-.436h-4.503c-.234 0-.424.195-.424.436s.19.436.424.436"/><path d="M28.167 144.241h-4.612v-1.044h2.879c.152 0 .292-.083.368-.218.076-.135.076-.301 0-.436l-1.413-2.511h3.156c.152 0 .292-.083.368-.218.076-.135.076-.301 0-.436l-1.163-2.067h.341c.235 0 .425-.195.425-.436 0-.092-.028-.178-.076-.249l-1.082-1.923h.404c.235 0 .425-.195.425-.436 0-.093-.028-.178-.076-.249l-2.092-3.718-.168-.298-.112-.13.839.346.681.28c.218.09.465-.019.552-.242.087-.223-.018-.477-.236-.566l-2.105-.867-1.555-2.8c-.039-.07-.096-.128-.165-.166l-2.343-1.316-1.729-1.442c-.11-.092-.257-.121-.392-.079-.135.043-.241.151-.282.29l-.866 2.939-1.747.997-1.466.703c-.107.051-.189.146-.225.262l-.585 1.871-1.914 1.424-1.083-2.161c-.133-.266-.39-.443-.68-.47-.291-.026-.574.102-.75.34l-1.502 2.024c-.089.12-.146.262-.166.412-.031.24-.072.495-.111.707l-.844.01c-.284.005-.547.156-.7.401l-.63 1.008-1.226 1.092c-.109.097-.192.22-.241.359l-.558 1.566c-.054.152-.064.309-.037.457h-.861c-.235 0-.425.195-.425.436s.19.436.425.436h16.308l-.48.853c-.076.135-.076.301 0 .436s.216.218.368.218h.674l-1.638 2.911c-.076.135-.076.301 0 .436s.216.218.368.218h3.12v1.044h-18.644c-.469 0-.849.39-.849.871s.38.871.849.871h25.28c.469 0 .849-.39.849-.871s-.38-.871-.849-.871zm-5.787 0v-1.001h.325v1.571h-.325v-.57zm-1.596-4.827c.076-.135.076-.301 0-.436s-.216-.218-.368-.218h-.674l1.555-2.763c.076-.135.076-.301 0-.436s-.216-.218-.368-.218h-.757l2.249-3.997 1.549 2.753.095.168.139.248.282.502.184.327h-.757c-.074 0-.144.02-.206.055-.066.038-.122.093-.161.162-.039.069-.058.147-.057.224.001.073.02.146.057.211l.157.28.092.162.446.793.012.021.848 1.506h-.674c-.152 0-.292.083-.368.218l-.055.182c-.007.087.011.175.055.254l1.638 2.911h-6.551l1.638-2.911zm5.838-5.581c-.152 0-.292.083-.368.218l-.055.192c-.005.084.013.168.055.244l1.099 1.954h-.34c-.152 0-.292.083-.368.218-.076.135-.076.301 0 .436l1.163 2.067h-1.549c-.006-.079-.032-.152-.073-.213l-1.537-2.732h.759c.235 0 .425-.195.425-.436 0-.093-.028-.178-.076-.249l-.301-.535-.122-.216-.963-1.711 1.112-1.977 1.542 2.741h-.403zm-1.139-4.048c-.152 0-.292.083-.368.218l-1.235 2.194-.501-.889-.085-1.243c-.01-.148-.093-.28-.219-.352l-1.234-.696-.292-.95c-.03-.098-.093-.182-.178-.237l-.93-.603c-.17-.11-.393-.083-.533.066l-2.705 2.879-1.852 1.941-.057.075-1.196 1.977-.776-.828-.675-.937-.054-.107.011-.008 2.122-1.579c.073-.054.127-.131.155-.219l.571-1.826 1.312-.629.027-.014 1.91-1.09c.096-.055.168-.146.2-.254l.733-2.486 1.268 1.058.064.044 2.271 1.276 1.569 2.824c.047.086.122.152.211.189l.516.213-.05-.003zm-20.128 7.469l.432-1.215 1.153-1.027.158-.188.449-.719c.398-.004.767-.005.87.001.225.026.448-.036.631-.178.232-.18.427-.433.623-1.814l.552-.744.945 1.887.072.12.749 1.039.071.086 1.15 1.228.578 1.524h-8.433zm10.184 0c.003-.112-.015-.227-.058-.339l-.75-1.979-.043-.095 1.303-2.154 1.822-1.909 2.467-2.626.506.329.297.965c.033.107.105.197.2.251l.837.472-.067.09-2.984 5.304c-.076.135-.076.301 0 .436s.216.218.368.218h.757l-.584 1.038h-4.071z"/></g></g></svg>