<svg width="32" height="232" viewBox="0 0 32 232" xmlns="http://www.w3.org/2000/svg" xmlns:sketch="http://www.bohemiancoding.com/sketch/ns"><title>Ho-Chi-Minh-City</title><g sketch:type="MSLayerGroup" fill="none"><g fill="#373D43" sketch:type="MSShapeGroup"><path d="M9.761 6.097c.072.054.16.083.251.083.09 0 .177-.028.248-.081.162-.119.214-.336.124-.513l-.122-.145c-.143-.106-.354-.107-.498-.001-.162.119-.214.337-.122.515l.12.142" id="Fill-1"/><path d="M22.368 6.801c.071.054.159.083.25.083.089 0 .177-.029.248-.082.097-.071.158-.181.167-.3.008-.119-.036-.236-.122-.321l-.042-.036c-.143-.108-.355-.108-.498-.002-.105.077-.167.2-.167.329s.061.25.166.328" id="Fill-2"/><path d="M19.089 4.307l.345.187.189.342c.073.131.213.213.365.213s.292-.082.364-.213l.189-.342.345-.187c.133-.072.216-.21.216-.36s-.083-.288-.216-.36l-.345-.187-.189-.341c-.072-.132-.212-.214-.364-.214s-.292.082-.365.214l-.189.341-.345.187c-.133.072-.216.21-.216.36s.083.288.216.36" id="Fill-3"/><path d="M6.513 20.481c.058.094.151.163.262.188l.092.011h1.87c.229 0 .415-.184.415-.41v-2.282c-.033-.714-.626-1.273-1.349-1.273-.22 0-.428.052-.612.144-.159.079-.3.19-.415.322-.117.136-.207.296-.262.472l-.002.008c-.032.104-.053.213-.058.326l-.001.019v2.263c0 .076.022.146.059.207l.002.004zm.769-2.463c.017-.271.244-.482.52-.482.275 0 .503.211.519.482v1.842h-1.039v-1.842z" id="Fill-4"/><path d="M24.815 17.575c-.066-.173-.168-.328-.296-.458-.118-.12-.259-.217-.415-.286-.169-.074-.355-.117-.551-.117-.723 0-1.316.559-1.35 1.273v2.282c0 .227.186.41.415.41h1.869l.032-.003c.121-.009.226-.069.296-.158.054-.069.088-.155.088-.25v-2.282c-.007-.145-.038-.283-.087-.412zm-.743 2.283h-1.038v-1.842c.017-.271.243-.482.519-.482s.503.211.519.482v1.842z" id="Fill-5"/><path d="M29.817 24.587h-.195v-10.321c0-.227-.186-.41-.415-.41h-2.731v-1.41l-.022-.19-.598-2.495c-.069-.288-.287-.509-.561-.594v-.265c0-.227-.186-.41-.416-.41-.229 0-.415.183-.415.41v.227h-1.868v-.227c0-.227-.186-.41-.415-.41-.23 0-.416.183-.416.41v.28c-.253.094-.45.307-.516.579l-.446 1.863h-.472v-.029c0-.226-.186-.41-.415-.41-.229 0-.416.184-.416.41v.029h-.729v-.029c0-.226-.186-.41-.415-.41-.23 0-.415.184-.415.41v.029h-.186v-5.881c0-.454-.372-.821-.83-.821h-.849v-2.525c0-.227-.186-.41-.416-.41h-2.011c-.153 0-.294.083-.366.217-.072.133-.064.296.021.421l.37.547-.37.548c-.085.126-.093.287-.021.421.072.133.213.217.366.217h1.595v.565h-.874c-.459 0-.83.368-.83.821v5.881h-.155v-.029c0-.226-.186-.41-.415-.41-.23 0-.416.184-.416.41v.029h-.729v-.029c0-.226-.186-.41-.415-.41-.229 0-.415.184-.415.41v.029h-.472l-.447-1.863c-.064-.269-.259-.481-.509-.576v-.283c0-.227-.186-.41-.415-.41-.229 0-.415.183-.415.41v.227h-1.868v-.227c0-.227-.186-.41-.416-.41-.229 0-.415.183-.415.41v.263c-.278.083-.498.306-.568.596l-.598 2.495-.022.19v1.492h-2.41c-.229 0-.415.183-.415.41v10.239h-.196c-.458 0-.83.367-.83.821 0 .453.372.821.83.821h27.988c.459 0 .831-.368.831-.821 0-.453-.372-.821-.831-.821zm-15.392-21.05l.093-.137c.093-.138.093-.318 0-.456l-.093-.137h.819v.729h-.819zm-11.57 11.222h1.995v9.828h-.551v-6.527c0-.227-.186-.41-.415-.41-.229 0-.415.184-.415.41v6.527h-.614v-9.828zm6.486-2.624h-3.135l.401-1.674h2.333l.401 1.674zm3.145.821l-.638.311-.622.302c-.173.084-.265.276-.221.461.044.186.212.317.405.317h.098v.513h-1.226v-1.905h2.204zm2.3-2.494h1.723v1.344l-.415-.204-.228-.111c-.116-.057-.252-.057-.368-.001l-.298.145-.415.202v-1.375zm6.26 2.494v1.905h-1.226v-.513h.097c.193 0 .36-.131.404-.317.044-.185-.047-.377-.22-.461l-.617-.303-.633-.311h2.194zm.94-.821l.401-1.674h2.333l.402 1.674h-3.136zm-10.148 3.546l.086.009h7.481l.085-.009h1.557v4.178h-.292v-1.871c-.034-.714-.627-1.273-1.35-1.273-.362 0-.692.14-.935.37-.243-.229-.573-.37-.935-.37-.362 0-.692.14-.935.37-.242-.229-.572-.37-.935-.37-.362 0-.692.14-.935.37-.243-.229-.573-.37-.935-.37-.362 0-.692.14-.935.37-.243-.229-.572-.37-.934-.37-.723 0-1.316.559-1.35 1.273v1.871h-.291v-4.178h1.556zm.501-.821v-.513h6.65v.522h-6.65v-.009zm10.696 9.485v-1.28c.017-.271.243-.482.519-.482s.503.211.519.482v1.522h-1.038v-.242zm-9.761-6.327c.017-.271.244-.482.519-.482.276 0 .503.211.52.482v1.842h-1.04v-1.842zm1.87 0c.017-.271.244-.482.52-.482s.503.211.52.482v1.842h-1.04v-1.842zm1.871 0c.017-.271.244-.482.519-.482.276 0 .503.211.52.482v1.842h-1.039v-1.842zm1.87 0c.017-.271.244-.482.52-.482s.503.211.52.482v1.842h-1.04v-1.842zm-6.441 1.842h-1.039v-1.842c.017-.271.244-.482.52-.482s.503.211.52.482v1.842zm-2.161 4.486v-3.665h10.764v3.907h-.292v-1.603c-.034-.714-.627-1.273-1.35-1.273-.362 0-.692.14-.935.371-.243-.23-.573-.371-.935-.371-.362 0-.692.14-.935.371-.242-.23-.572-.371-.935-.371-.362 0-.692.14-.935.371-.243-.23-.573-.371-.935-.371-.362 0-.692.14-.935.371-.243-.23-.572-.371-.934-.371-.723 0-1.316.559-1.35 1.273v1.603h-.291v-.242zm1.122 0v-1.331c.017-.271.244-.482.52-.482s.503.211.52.482v1.573h-1.039v-.242zm1.87 0v-1.331c.017-.271.244-.482.519-.482.276 0 .503.211.52.482v1.573h-1.04v-.242zm1.87 0v-1.331c.017-.271.244-.482.52-.482s.503.211.52.482v1.573h-1.04v-.242zm1.871 0v-1.331c.017-.271.244-.482.519-.482.276 0 .503.211.52.482v1.573h-1.039v-.242zm1.87 0v-1.331c.017-.271.244-.482.52-.482s.503.211.52.482v1.573h-1.04v-.242zm-10.562 0v.242h-1.039v-1.522c.017-.271.244-.482.52-.482.275 0 .503.211.519.482v1.28zm16.812.242h-.23v-1.552c-.007-.145-.038-.283-.087-.412-.066-.173-.168-.328-.296-.458-.118-.12-.259-.217-.415-.286-.169-.074-.355-.117-.551-.117-.723 0-1.316.559-1.35 1.273v1.552h-.328v-8.207h3.355v8.207h-.097zm-.318-9.131h-2.344c.346-.238.762-.369 1.201-.369.147 0 .292.016.432.044.143.029.282.073.415.131l.296.158.058.037h-.058zm-10.449-2.5l.843-.41.155-.076.126-.061.191-.093.189.093.118.058.16.079.558.274.279.136.632.311.201.099.329.161h-4.955l.332-.161.202-.099.639-.311zm-7.175 2.5h-.675l.26-.152c.132-.065.271-.116.415-.152.17-.043.345-.066.526-.066.439 0 .855.131 1.201.369h-1.727zm-1.095.924h3.355v8.207h-.299v-1.552c-.033-.714-.626-1.273-1.349-1.273-.22 0-.428.053-.612.145-.159.08-.3.189-.415.322-.117.136-.207.296-.262.472l-.002.008c-.032.104-.053.213-.058.327l-.001.019v1.533h-.357v-8.207zm19.135-2.374v.699l-.097-.057-.199-.104-.119-.052-.296-.104c-.135-.04-.274-.071-.415-.091-.142-.021-.286-.032-.432-.032-.666 0-1.291.218-1.797.606v-1.915h3.355v1.05zm-10.445-7.752h1.723v3.386h-1.723v-3.386zm-8.69 7.684v-.982h3.355v1.867c-.494-.358-1.096-.558-1.734-.558-.179 0-.354.017-.526.047-.142.025-.28.06-.415.104l-.262.102-.002.001-.15.072-.263.152-.002.002v-.807zm22.696 10.649h-.76v-6.527c0-.227-.186-.41-.415-.41-.229 0-.415.184-.415.41v6.527h-.726v-9.91h2.316v9.91z" id="Fill-6"/></g><g fill="#fff" sketch:type="MSShapeGroup"><path d="M9.827 88.064c.073.053.162.082.253.082.09 0 .178-.028.25-.08.163-.118.215-.333.125-.509l-.123-.144c-.144-.106-.357-.106-.502-.001-.163.118-.215.334-.123.511l.121.141" id="Fill-1"/><path d="M22.529 88.763c.072.053.161.082.252.082.09 0 .178-.028.25-.081.098-.07.159-.18.168-.298.008-.118-.036-.234-.123-.318l-.043-.036c-.144-.107-.358-.108-.502-.002-.106.077-.168.198-.168.327 0 .128.062.248.167.326" id="Fill-2"/><path d="M19.225 86.289l.348.185.19.339c.074.13.215.211.367.211.153 0 .294-.081.367-.211l.19-.339.348-.185c.134-.072.218-.208.218-.357s-.083-.286-.218-.357l-.348-.185-.19-.338c-.073-.131-.214-.212-.367-.212s-.294.081-.367.212l-.19.338-.348.185c-.134.071-.218.208-.218.357s.084.286.218.357" id="Fill-3"/><path d="M6.555 102.333c.058.093.152.162.264.187l.093.011h1.884c.231 0 .418-.182.418-.407v-2.264c-.034-.708-.631-1.262-1.359-1.262-.222 0-.431.052-.616.143-.16.079-.302.188-.418.319-.118.135-.209.294-.264.468l-.002.008c-.032.103-.053.211-.058.324l-.001.019v2.245c0 .075.023.145.059.206l.002.004zm.775-2.444c.017-.269.246-.478.524-.478.277 0 .506.209.523.478v1.827h-1.047v-1.827z" id="Fill-4"/><path d="M24.994 99.451c-.067-.172-.169-.326-.298-.454-.119-.119-.261-.215-.418-.284-.17-.074-.358-.116-.556-.116-.729 0-1.326.554-1.36 1.262v2.264c0 .225.187.407.418.407h1.883l.032-.003c.122-.009.228-.068.298-.156.055-.069.088-.154.088-.248v-2.264c-.007-.144-.038-.281-.088-.408zm-.749 2.265h-1.046v-1.827c.017-.269.245-.478.523-.478s.506.209.523.478v1.827z" id="Fill-5"/><path d="M30.033 106.406h-.196v-10.238c0-.225-.187-.407-.418-.407h-2.751v-1.399l-.023-.188-.602-2.475c-.069-.286-.289-.505-.565-.589v-.263c0-.225-.187-.407-.419-.407-.231 0-.418.182-.418.407v.226h-1.882v-.226c0-.225-.187-.407-.418-.407-.231 0-.419.182-.419.407v.278c-.255.093-.454.304-.519.574l-.45 1.848h-.475v-.029c0-.224-.187-.407-.418-.407-.231 0-.419.183-.419.407v.029h-.735v-.029c0-.224-.187-.407-.418-.407-.231 0-.418.183-.418.407v.029h-.188v-5.834c0-.45-.375-.815-.837-.815h-.856v-2.505c0-.225-.187-.407-.419-.407h-2.026c-.155 0-.296.083-.369.215-.072.132-.065.293.021.418l.372.543-.372.543c-.086.125-.094.285-.021.418.073.132.215.215.369.215h1.607v.56h-.881c-.462 0-.837.365-.837.815v5.834h-.157v-.029c0-.224-.187-.407-.418-.407-.231 0-.419.183-.419.407v.029h-.734v-.029c0-.224-.187-.407-.418-.407-.231 0-.418.183-.418.407v.029h-.475l-.45-1.848c-.065-.267-.261-.477-.513-.571v-.281c0-.225-.187-.407-.418-.407-.231 0-.418.182-.418.407v.226h-1.882v-.226c0-.225-.187-.407-.419-.407-.231 0-.418.182-.418.407v.261c-.28.083-.502.304-.572.591l-.602 2.475-.022.188v1.48h-2.428c-.231 0-.418.182-.418.407v10.157h-.197c-.462 0-.836.364-.836.814 0 .45.374.814.836.814h28.198c.462 0 .837-.365.837-.814 0-.45-.375-.814-.837-.814zm-15.508-20.882l.094-.136c.093-.137.093-.315 0-.452l-.094-.136h.825v.724h-.825zm-11.657 11.132h2.01v9.75h-.555v-6.475c0-.225-.187-.407-.418-.407-.231 0-.418.182-.418.407v6.475h-.618v-9.75zm6.534-2.603h-3.159l.404-1.66h2.351l.404 1.66zm3.168.814l-.643.308-.626.3c-.174.084-.267.274-.223.458.044.184.213.315.408.315h.099v.509h-1.235v-1.89h2.221zm2.317-2.474h1.736v1.334l-.418-.202-.229-.11c-.117-.056-.254-.056-.371-.001l-.3.144-.418.201v-1.364zm6.307 2.474v1.89h-1.235v-.509h.098c.194 0 .363-.13.407-.314.044-.184-.047-.374-.222-.458l-.621-.301-.637-.308h2.21zm.947-.814l.404-1.66h2.35l.405 1.66h-3.159zm-10.224 3.518l.086.009h7.537l.086-.009h1.568v4.145h-.294v-1.857c-.034-.708-.631-1.262-1.36-1.262-.365 0-.697.139-.942.367-.245-.228-.577-.367-.942-.367s-.697.139-.942.367c-.244-.228-.577-.367-.942-.367s-.697.139-.942.367c-.245-.228-.577-.367-.942-.367s-.697.139-.942.367c-.245-.228-.577-.367-.942-.367-.729 0-1.326.554-1.36 1.262v1.857h-.293v-4.145h1.567zm.505-.814v-.509h6.7v.518h-6.7v-.009zm10.776 9.409v-1.27c.017-.269.245-.478.523-.478s.506.21.523.478v1.51h-1.046v-.24zm-9.834-6.277c.017-.269.246-.478.523-.478.278 0 .507.209.524.478v1.827h-1.048v-1.827zm1.884 0c.017-.269.246-.478.524-.478s.507.209.524.478v1.827h-1.048v-1.827zm1.885 0c.017-.269.245-.478.523-.478s.507.209.524.478v1.827h-1.047v-1.827zm1.884 0c.017-.269.245-.478.524-.478.278 0 .507.209.524.478v1.827h-1.048v-1.827zm-6.49 1.827h-1.047v-1.827c.017-.269.246-.478.524-.478s.506.209.524.478v1.827zm-2.177 4.45v-3.636h10.845v3.876h-.294v-1.591c-.034-.708-.631-1.263-1.36-1.263-.365 0-.697.139-.942.368-.245-.228-.577-.368-.942-.368s-.697.139-.942.368c-.244-.228-.577-.368-.942-.368s-.697.139-.942.368c-.245-.228-.577-.368-.942-.368s-.697.139-.942.368c-.245-.228-.577-.368-.942-.368-.729 0-1.326.555-1.36 1.263v1.591h-.293v-.24zm1.13 0v-1.321c.017-.269.246-.478.524-.478s.506.209.524.478v1.561h-1.047v-.24zm1.884 0v-1.321c.017-.269.246-.478.523-.478.278 0 .507.209.524.478v1.561h-1.048v-.24zm1.884 0v-1.321c.017-.269.246-.478.524-.478s.507.209.524.478v1.561h-1.048v-.24zm1.885 0v-1.321c.017-.269.245-.478.523-.478s.507.209.524.478v1.561h-1.047v-.24zm1.884 0v-1.321c.017-.269.245-.478.524-.478.278 0 .507.209.524.478v1.561h-1.048v-.24zm-10.641 0v.24h-1.047v-1.51c.017-.269.246-.478.524-.478.277 0 .506.21.523.478v1.27zm16.938.24h-.232v-1.539c-.007-.144-.038-.281-.088-.408-.067-.172-.169-.326-.298-.454-.119-.119-.261-.215-.418-.284-.17-.074-.358-.116-.556-.116-.729 0-1.326.554-1.36 1.263v1.539h-.33v-8.142h3.381v8.142h-.098zm-.321-9.058h-2.361c.348-.236.768-.366 1.21-.366.148 0 .294.016.435.044.144.029.284.073.418.13l.298.156.058.036h-.058zm-10.528-2.48l.849-.407.156-.075.127-.06.192-.092.191.092.119.058.162.078.562.272.281.135.637.308.203.098.332.16h-4.992l.335-.16.204-.098.644-.308zm-7.229 2.48h-.68l.262-.15c.133-.065.273-.115.418-.151.171-.042.348-.065.53-.065.443 0 .861.13 1.21.366h-1.74zm-1.103.917h3.381v8.142h-.301v-1.539c-.034-.708-.631-1.263-1.359-1.263-.222 0-.431.052-.616.144-.16.079-.302.188-.418.32-.118.135-.209.294-.264.468l-.002.008c-.032.104-.053.212-.058.324l-.001.019v1.52h-.359v-8.142zm19.279-2.355v.694l-.098-.057-.201-.103-.12-.052-.298-.103c-.136-.04-.276-.07-.418-.09-.143-.02-.288-.032-.435-.032-.671 0-1.301.216-1.811.601v-1.9h3.381v1.042zm-10.523-7.69h1.736v3.359h-1.736v-3.359zm-8.755 7.622v-.974h3.381v1.852c-.498-.355-1.105-.554-1.747-.554-.18 0-.357.016-.53.047-.143.025-.282.059-.418.104l-.264.101-.002.001-.151.072-.265.15-.002.002v-.801zm22.867 10.564h-.766v-6.475c0-.225-.187-.407-.418-.407-.231 0-.418.182-.418.407v6.475h-.731v-9.831h2.333v9.831z" id="Fill-6"/></g><g fill="#67737B" sketch:type="MSShapeGroup"><path d="M9.827 47.064c.073.053.162.082.253.082.09 0 .178-.028.25-.08.163-.118.215-.333.125-.509l-.123-.144c-.144-.106-.357-.106-.502-.001-.163.118-.215.334-.123.511l.121.141"/><path d="M22.529 47.763c.072.053.161.082.252.082.09 0 .178-.028.25-.081.098-.07.159-.18.168-.298.008-.118-.036-.234-.123-.318l-.043-.036c-.144-.107-.358-.108-.502-.002-.106.077-.168.198-.168.327 0 .128.062.248.167.326"/><path d="M19.225 45.289l.348.185.19.339c.074.13.215.211.367.211.153 0 .294-.081.367-.211l.19-.339.348-.185c.134-.072.218-.208.218-.357s-.083-.286-.218-.357l-.348-.185-.19-.338c-.073-.131-.214-.212-.367-.212s-.294.081-.367.212l-.19.338-.348.185c-.134.071-.218.208-.218.357s.084.286.218.357"/><path d="M6.555 61.333c.058.093.152.162.264.187l.093.011h1.884c.231 0 .418-.182.418-.407v-2.264c-.034-.708-.631-1.262-1.359-1.262-.222 0-.431.052-.616.143-.16.079-.302.188-.418.319-.118.135-.209.294-.264.468l-.002.008c-.032.103-.053.211-.058.324l-.001.019v2.245c0 .075.023.145.059.206l.002.004zm.775-2.444c.017-.269.246-.478.524-.478.277 0 .506.209.523.478v1.827h-1.047v-1.827z"/><path d="M24.994 58.451c-.067-.172-.169-.326-.298-.454-.119-.119-.261-.215-.418-.284-.17-.074-.358-.116-.556-.116-.729 0-1.326.554-1.36 1.262v2.264c0 .225.187.407.418.407h1.883l.032-.003c.122-.009.228-.068.298-.156.055-.069.088-.154.088-.248v-2.264c-.007-.144-.038-.281-.088-.408zm-.749 2.265h-1.046v-1.827c.017-.269.245-.478.523-.478s.506.209.523.478v1.827z"/><path d="M30.033 65.406h-.196v-10.238c0-.225-.187-.407-.418-.407h-2.751v-1.399l-.023-.188-.602-2.475c-.069-.286-.289-.505-.565-.589v-.263c0-.225-.187-.407-.419-.407-.231 0-.418.182-.418.407v.226h-1.882v-.226c0-.225-.187-.407-.418-.407-.231 0-.419.182-.419.407v.278c-.255.093-.454.304-.519.574l-.45 1.848h-.475v-.029c0-.224-.187-.407-.418-.407-.231 0-.419.183-.419.407v.029h-.735v-.029c0-.224-.187-.407-.418-.407-.231 0-.418.183-.418.407v.029h-.188v-5.834c0-.45-.375-.815-.837-.815h-.856v-2.505c0-.225-.187-.407-.419-.407h-2.026c-.155 0-.296.083-.369.215-.072.132-.065.293.021.418l.372.543-.372.543c-.086.125-.094.285-.021.418.073.132.215.215.369.215h1.607v.56h-.881c-.462 0-.837.365-.837.815v5.834h-.157v-.029c0-.224-.187-.407-.418-.407-.231 0-.419.183-.419.407v.029h-.734v-.029c0-.224-.187-.407-.418-.407-.231 0-.418.183-.418.407v.029h-.475l-.45-1.848c-.065-.267-.261-.477-.513-.571v-.281c0-.225-.187-.407-.418-.407-.231 0-.418.182-.418.407v.226h-1.882v-.226c0-.225-.187-.407-.419-.407-.231 0-.418.182-.418.407v.261c-.28.083-.502.304-.572.591l-.602 2.475-.022.188v1.48h-2.428c-.231 0-.418.182-.418.407v10.157h-.197c-.462 0-.836.364-.836.814 0 .45.374.814.836.814h28.198c.462 0 .837-.365.837-.814 0-.45-.375-.814-.837-.814zm-15.508-20.882l.094-.136c.093-.137.093-.315 0-.452l-.094-.136h.825v.724h-.825zm-11.657 11.132h2.01v9.75h-.555v-6.475c0-.225-.187-.407-.418-.407-.231 0-.418.182-.418.407v6.475h-.618v-9.75zm6.534-2.603h-3.159l.404-1.66h2.351l.404 1.66zm3.168.814l-.643.308-.626.3c-.174.084-.267.274-.223.458.044.184.213.315.408.315h.099v.509h-1.235v-1.89h2.221zm2.317-2.474h1.736v1.334l-.418-.202-.229-.11c-.117-.056-.254-.056-.371-.001l-.3.144-.418.201v-1.364zm6.307 2.474v1.89h-1.235v-.509h.098c.194 0 .363-.13.407-.314.044-.184-.047-.374-.222-.458l-.621-.301-.637-.308h2.21zm.947-.814l.404-1.66h2.35l.405 1.66h-3.159zm-10.224 3.518l.086.009h7.537l.086-.009h1.568v4.145h-.294v-1.857c-.034-.708-.631-1.262-1.36-1.262-.365 0-.697.139-.942.367-.245-.228-.577-.367-.942-.367s-.697.139-.942.367c-.244-.228-.577-.367-.942-.367s-.697.139-.942.367c-.245-.228-.577-.367-.942-.367s-.697.139-.942.367c-.245-.228-.577-.367-.942-.367-.729 0-1.326.554-1.36 1.262v1.857h-.293v-4.145h1.567zm.505-.814v-.509h6.7v.518h-6.7v-.009zm10.776 9.409v-1.27c.017-.269.245-.478.523-.478s.506.21.523.478v1.51h-1.046v-.24zm-9.834-6.277c.017-.269.246-.478.523-.478.278 0 .507.209.524.478v1.827h-1.048v-1.827zm1.884 0c.017-.269.246-.478.524-.478s.507.209.524.478v1.827h-1.048v-1.827zm1.885 0c.017-.269.245-.478.523-.478s.507.209.524.478v1.827h-1.047v-1.827zm1.884 0c.017-.269.245-.478.524-.478.278 0 .507.209.524.478v1.827h-1.048v-1.827zm-6.49 1.827h-1.047v-1.827c.017-.269.246-.478.524-.478s.506.209.524.478v1.827zm-2.177 4.45v-3.636h10.845v3.876h-.294v-1.591c-.034-.708-.631-1.263-1.36-1.263-.365 0-.697.139-.942.368-.245-.228-.577-.368-.942-.368s-.697.139-.942.368c-.244-.228-.577-.368-.942-.368s-.697.139-.942.368c-.245-.228-.577-.368-.942-.368s-.697.139-.942.368c-.245-.228-.577-.368-.942-.368-.729 0-1.326.555-1.36 1.263v1.591h-.293v-.24zm1.13 0v-1.321c.017-.269.246-.478.524-.478s.506.209.524.478v1.561h-1.047v-.24zm1.884 0v-1.321c.017-.269.246-.478.523-.478.278 0 .507.209.524.478v1.561h-1.048v-.24zm1.884 0v-1.321c.017-.269.246-.478.524-.478s.507.209.524.478v1.561h-1.048v-.24zm1.885 0v-1.321c.017-.269.245-.478.523-.478s.507.209.524.478v1.561h-1.047v-.24zm1.884 0v-1.321c.017-.269.245-.478.524-.478.278 0 .507.209.524.478v1.561h-1.048v-.24zm-10.641 0v.24h-1.047v-1.51c.017-.269.246-.478.524-.478.277 0 .506.21.523.478v1.27zm16.938.24h-.232v-1.539c-.007-.144-.038-.281-.088-.408-.067-.172-.169-.326-.298-.454-.119-.119-.261-.215-.418-.284-.17-.074-.358-.116-.556-.116-.729 0-1.326.554-1.36 1.263v1.539h-.33v-8.142h3.381v8.142h-.098zm-.321-9.058h-2.361c.348-.236.768-.366 1.21-.366.148 0 .294.016.435.044.144.029.284.073.418.13l.298.156.058.036h-.058zm-10.528-2.48l.849-.407.156-.075.127-.06.192-.092.191.092.119.058.162.078.562.272.281.135.637.308.203.098.332.16h-4.992l.335-.16.204-.098.644-.308zm-7.229 2.48h-.68l.262-.15c.133-.065.273-.115.418-.151.171-.042.348-.065.53-.065.443 0 .861.13 1.21.366h-1.74zm-1.103.917h3.381v8.142h-.301v-1.539c-.034-.708-.631-1.263-1.359-1.263-.222 0-.431.052-.616.144-.16.079-.302.188-.418.32-.118.135-.209.294-.264.468l-.002.008c-.032.104-.053.212-.058.324l-.001.019v1.52h-.359v-8.142zm19.279-2.355v.694l-.098-.057-.201-.103-.12-.052-.298-.103c-.136-.04-.276-.07-.418-.09-.143-.02-.288-.032-.435-.032-.671 0-1.301.216-1.811.601v-1.9h3.381v1.042zm-10.523-7.69h1.736v3.359h-1.736v-3.359zm-8.755 7.622v-.974h3.381v1.852c-.498-.355-1.105-.554-1.747-.554-.18 0-.357.016-.53.047-.143.025-.282.059-.418.104l-.264.101-.002.001-.151.072-.265.15-.002.002v-.801zm22.867 10.564h-.766v-6.475c0-.225-.187-.407-.418-.407-.231 0-.418.182-.418.407v6.475h-.731v-9.831h2.333v9.831z"/></g><g fill="#206FAC" sketch:type="MSShapeGroup"><path d="M9.827 127.064c.073.053.162.082.253.082.09 0 .178-.028.25-.08.163-.118.215-.333.125-.509l-.123-.144c-.144-.106-.357-.106-.502-.001-.163.118-.215.334-.123.511l.121.141M22.529 127.763c.072.053.161.082.252.082.09 0 .178-.028.25-.081.098-.07.159-.18.168-.298.008-.118-.036-.234-.123-.318l-.043-.036c-.144-.107-.358-.108-.502-.002-.106.077-.168.198-.168.327 0 .128.062.248.167.326M19.225 125.289l.348.185.19.339c.074.13.215.211.367.211.153 0 .294-.081.367-.211l.19-.339.348-.185c.134-.072.218-.208.218-.357s-.083-.286-.218-.357l-.348-.185-.19-.338c-.073-.131-.214-.212-.367-.212s-.294.081-.367.212l-.19.338-.348.185c-.134.071-.218.208-.218.357s.084.286.218.357"/><path d="M6.555 141.333c.058.093.152.162.264.187l.093.011h1.884c.231 0 .418-.182.418-.407v-2.264c-.034-.708-.631-1.262-1.359-1.262-.222 0-.431.052-.616.143-.16.079-.302.188-.418.319-.118.135-.209.294-.264.468l-.002.008c-.032.103-.053.211-.058.324l-.001.019v2.245c0 .075.023.145.059.206l.002.004zm.775-2.444c.017-.269.246-.478.524-.478.277 0 .506.209.523.478v1.827h-1.047v-1.827zM24.994 138.451c-.067-.172-.169-.326-.298-.454-.119-.119-.261-.215-.418-.284-.17-.074-.358-.116-.556-.116-.729 0-1.326.554-1.36 1.262v2.264c0 .225.187.407.418.407h1.883l.032-.003c.122-.009.228-.068.298-.156.055-.069.088-.154.088-.248v-2.264c-.007-.144-.038-.281-.088-.408zm-.749 2.265h-1.046v-1.827c.017-.269.245-.478.523-.478s.506.209.523.478v1.827zM30.033 145.406h-.196v-10.238c0-.225-.187-.407-.418-.407h-2.751v-1.399l-.023-.188-.602-2.475c-.069-.286-.289-.505-.565-.589v-.263c0-.225-.187-.407-.419-.407-.231 0-.418.182-.418.407v.226h-1.882v-.226c0-.225-.187-.407-.418-.407-.231 0-.419.182-.419.407v.278c-.255.093-.454.304-.519.574l-.45 1.848h-.475v-.029c0-.224-.187-.407-.418-.407-.231 0-.419.183-.419.407v.029h-.735v-.029c0-.224-.187-.407-.418-.407-.231 0-.418.183-.418.407v.029h-.188v-5.834c0-.45-.375-.815-.837-.815h-.856v-2.505c0-.225-.187-.407-.419-.407h-2.026c-.155 0-.296.083-.369.215-.072.132-.065.293.021.418l.372.543-.372.543c-.086.125-.094.285-.021.418.073.132.215.215.369.215h1.607v.56h-.881c-.462 0-.837.365-.837.815v5.834h-.157v-.029c0-.224-.187-.407-.418-.407-.231 0-.419.183-.419.407v.029h-.734v-.029c0-.224-.187-.407-.418-.407-.231 0-.418.183-.418.407v.029h-.475l-.45-1.848c-.065-.267-.261-.477-.513-.571v-.281c0-.225-.187-.407-.418-.407-.231 0-.418.182-.418.407v.226h-1.882v-.226c0-.225-.187-.407-.419-.407-.231 0-.418.182-.418.407v.261c-.28.083-.502.304-.572.591l-.602 2.475-.022.188v1.48h-2.428c-.231 0-.418.182-.418.407v10.157h-.197c-.462 0-.836.364-.836.814 0 .45.374.814.836.814h28.198c.462 0 .837-.365.837-.814 0-.45-.375-.814-.837-.814zm-15.508-20.882l.094-.136c.093-.137.093-.315 0-.452l-.094-.136h.825v.724h-.825zm-11.657 11.132h2.01v9.75h-.555v-6.475c0-.225-.187-.407-.418-.407-.231 0-.418.182-.418.407v6.475h-.618v-9.75zm6.534-2.603h-3.159l.404-1.66h2.351l.404 1.66zm3.168.814l-.643.308-.626.3c-.174.084-.267.274-.223.458.044.184.213.315.408.315h.099v.509h-1.235v-1.89h2.221zm2.317-2.474h1.736v1.334l-.418-.202-.229-.11c-.117-.056-.254-.056-.371-.001l-.3.144-.418.201v-1.364zm6.307 2.474v1.89h-1.235v-.509h.098c.194 0 .363-.13.407-.314.044-.184-.047-.374-.222-.458l-.621-.301-.637-.308h2.21zm.947-.814l.404-1.66h2.35l.405 1.66h-3.159zm-10.224 3.518l.086.009h7.537l.086-.009h1.568v4.145h-.294v-1.857c-.034-.708-.631-1.262-1.36-1.262-.365 0-.697.139-.942.367-.245-.228-.577-.367-.942-.367s-.697.139-.942.367c-.244-.228-.577-.367-.942-.367s-.697.139-.942.367c-.245-.228-.577-.367-.942-.367s-.697.139-.942.367c-.245-.228-.577-.367-.942-.367-.729 0-1.326.554-1.36 1.262v1.857h-.293v-4.145h1.567zm.505-.814v-.509h6.7v.518h-6.7v-.009zm10.776 9.409v-1.27c.017-.269.245-.478.523-.478s.506.21.523.478v1.51h-1.046v-.24zm-9.834-6.277c.017-.269.246-.478.523-.478.278 0 .507.209.524.478v1.827h-1.048v-1.827zm1.884 0c.017-.269.246-.478.524-.478s.507.209.524.478v1.827h-1.048v-1.827zm1.885 0c.017-.269.245-.478.523-.478s.507.209.524.478v1.827h-1.047v-1.827zm1.884 0c.017-.269.245-.478.524-.478.278 0 .507.209.524.478v1.827h-1.048v-1.827zm-6.49 1.827h-1.047v-1.827c.017-.269.246-.478.524-.478s.506.209.524.478v1.827zm-2.177 4.45v-3.636h10.845v3.876h-.294v-1.591c-.034-.708-.631-1.263-1.36-1.263-.365 0-.697.139-.942.368-.245-.228-.577-.368-.942-.368s-.697.139-.942.368c-.244-.228-.577-.368-.942-.368s-.697.139-.942.368c-.245-.228-.577-.368-.942-.368s-.697.139-.942.368c-.245-.228-.577-.368-.942-.368-.729 0-1.326.555-1.36 1.263v1.591h-.293v-.24zm1.13 0v-1.321c.017-.269.246-.478.524-.478s.506.209.524.478v1.561h-1.047v-.24zm1.884 0v-1.321c.017-.269.246-.478.523-.478.278 0 .507.209.524.478v1.561h-1.048v-.24zm1.884 0v-1.321c.017-.269.246-.478.524-.478s.507.209.524.478v1.561h-1.048v-.24zm1.885 0v-1.321c.017-.269.245-.478.523-.478s.507.209.524.478v1.561h-1.047v-.24zm1.884 0v-1.321c.017-.269.245-.478.524-.478.278 0 .507.209.524.478v1.561h-1.048v-.24zm-10.641 0v.24h-1.047v-1.51c.017-.269.246-.478.524-.478.277 0 .506.21.523.478v1.27zm16.938.24h-.232v-1.539c-.007-.144-.038-.281-.088-.408-.067-.172-.169-.326-.298-.454-.119-.119-.261-.215-.418-.284-.17-.074-.358-.116-.556-.116-.729 0-1.326.554-1.36 1.263v1.539h-.33v-8.142h3.381v8.142h-.098zm-.321-9.058h-2.361c.348-.236.768-.366 1.21-.366.148 0 .294.016.435.044.144.029.284.073.418.13l.298.156.058.036h-.058zm-10.528-2.48l.849-.407.156-.075.127-.06.192-.092.191.092.119.058.162.078.562.272.281.135.637.308.203.098.332.16h-4.992l.335-.16.204-.098.644-.308zm-7.229 2.48h-.68l.262-.15c.133-.065.273-.115.418-.151.171-.042.348-.065.53-.065.443 0 .861.13 1.21.366h-1.74zm-1.103.917h3.381v8.142h-.301v-1.539c-.034-.708-.631-1.263-1.359-1.263-.222 0-.431.052-.616.144-.16.079-.302.188-.418.32-.118.135-.209.294-.264.468l-.002.008c-.032.104-.053.212-.058.324l-.001.019v1.52h-.359v-8.142zm19.279-2.355v.694l-.098-.057-.201-.103-.12-.052-.298-.103c-.136-.04-.276-.07-.418-.09-.143-.02-.288-.032-.435-.032-.671 0-1.301.216-1.811.601v-1.9h3.381v1.042zm-10.523-7.69h1.736v3.359h-1.736v-3.359zm-8.755 7.622v-.974h3.381v1.852c-.498-.355-1.105-.554-1.747-.554-.18 0-.357.016-.53.047-.143.025-.282.059-.418.104l-.264.101-.002.001-.151.072-.265.15-.002.002v-.801zm22.867 10.564h-.766v-6.475c0-.225-.187-.407-.418-.407-.231 0-.418.182-.418.407v6.475h-.731v-9.831h2.333v9.831z"/></g></g></svg>