<svg xmlns="http://www.w3.org/2000/svg" width="384" height="550"><g><path fill="#fff" d="M226.967 257.5l-5.195-15.421c.513-.332.996-.71 1.438-1.152 3.379-3.38 3.217-8.875-.162-12.254-1.631-1.631-4.263-2.528-6.263-2.535v-8.023c2-.006 4.633-.907 6.264-2.538 1.637-1.637 2.619-3.813 2.619-6.128s-.861-4.492-2.498-6.128c-1.637-1.637-3.793-2.538-6.108-2.538-2.315 0-4.482.901-6.118 2.538l-.31.333-9.303-4.101c.045-.358.073-.723.073-1.093 0-4.779-3.887-8.667-8.666-8.667s-8.666 3.888-8.666 8.667c0 .369.026.733.071 1.09l-9.311 4.1-.317-.335c-1.637-1.637-3.814-2.539-6.129-2.539-2.315 0-4.492.902-6.128 2.539-3.379 3.38-3.204 8.879.175 12.258 1.167 1.168 2.354 1.959 4.354 2.318v8.47c-2 .36-3.182 1.15-4.348 2.316-1.637 1.637-2.625 3.813-2.625 6.128s.858 4.491 2.495 6.128c.455.455.931.835 1.46 1.172l-4.732 15.394h3.968l4.181-14.129c.398.055.801.093 1.21.093 2.315 0 4.49-.897 6.127-2.535l.278-.29 9.676 5.538c-.262.826-.404 1.705-.404 2.617 0 4.779 3.888 8.667 8.667 8.667s8.667-3.888 8.667-8.667c0-.917-.144-1.8-.409-2.631l9.657-5.549.304.319c1.637 1.637 3.814 2.539 6.128 2.539.423 0 .842-.047 1.253-.106l4.34 14.132h4.287zm-13.187-51.35c.882-.881 2.053-1.367 3.3-1.367 1.246 0 2.418.485 3.3 1.367 1.819 1.82 1.819 4.78 0 6.6-.882.881-2.053 1.367-3.3 1.367-1.247 0-2.419-.485-3.3-1.367-1.82-1.82-1.82-4.78 0-6.6zm-21.045-12.356c2.573 0 4.667 2.093 4.667 4.667 0 2.573-2.093 4.667-4.667 4.667s-4.667-2.093-4.667-4.667c.001-2.574 2.094-4.667 4.667-4.667zm-7.38 9.205c1.528 2.475 4.264 4.129 7.38 4.129 3.115 0 5.851-1.653 7.378-4.126l8.701 3.835c-.263.835-.401 1.714-.401 2.614 0 .909.141 1.795.409 2.637l-9.663 5.562c-1.587-1.752-3.879-2.855-6.423-2.855-2.677 0-5.073 1.22-6.664 3.133l-9.726-5.061c.819-1.913.919-4.061.3-6.031l8.709-3.837zm7.38 25.129c-2.573 0-4.667-2.093-4.667-4.667s2.093-4.667 4.667-4.667 4.667 2.093 4.667 4.667-2.093 4.667-4.667 4.667zm-27.651-21.985c.881-.882 2.052-1.367 3.299-1.367 1.247 0 2.419.486 3.301 1.368 1.82 1.82 1.821 4.781.002 6.601-.881.882-2.053 1.367-3.3 1.367-1.246 0-2.418-.485-3.3-1.367-1.821-1.82-1.822-4.781-.002-6.602zm6.606 31.962c-.882.881-2.053 1.367-3.3 1.367-1.247 0-2.419-.485-3.3-1.367-1.819-1.82-1.819-4.78 0-6.6.882-.881 2.053-1.367 3.3-1.367 1.246 0 2.418.485 3.3 1.367 1.82 1.82 1.82 4.781 0 6.6zm14.114 4.894l-9.412-5.527c.274-.85.541-1.747.541-2.666 0-.645-.011-1.279-.147-1.894l6.191-2.849c-.756-.956-1.296-2.077-1.586-3.3l-6.092 2.821c-.24-.317-.659-.62-.945-.907-1.225-1.225-2.571-2.038-4.571-2.37v-8.365c2-.304 3.082-1.009 4.247-2.063l10.264 5.299c-.199.728-.761 1.493-.761 2.283 0 4.103 3.249 7.547 6.249 8.44v8.455c-.998.407-2.811 1.348-3.978 2.643zm6.931 10.463c-2.573 0-4.667-2.093-4.667-4.667 0-2.573 2.093-4.667 4.667-4.667s4.667 2.093 4.667 4.667c0 2.573-2.093 4.667-4.667 4.667zm17.889-24.785c-.297.297-.402.611-.647.937l-5.998-2.755c-.293 1.222-.809 2.342-1.567 3.297l6.187 2.795c-.322 1.482-.243 3.032.217 4.484l-9.485 5.553c-1.224-1.353-2.547-2.319-4.547-2.69v-8.338c4-.793 6.791-4.302 6.791-8.498 0-.919-.232-1.804-.498-2.636l9.619-5.561-.05.314c.732.733 1.138 1.317 2.138 1.74v9.618c-1 .422-1.428 1.007-2.16 1.74zm3.157 9.429c-1.82-1.82-1.821-4.781-.002-6.601.881-.882 2.053-1.367 3.299-1.367s2.419.486 3.3 1.368c1.82 1.82 1.821 4.781.002 6.601-.881.882-2.053 1.367-3.3 1.367-1.245-.001-2.417-.486-3.299-1.368z"/><path fill="#fff" d="M51.951 322.572v-43.592h16.963c12.534 0 15.403 6.61 15.403 11.537 0 6.673-4.303 8.419-6.424 9.417 5.363 1.123 8.855 4.989 8.855 10.539 0 5.363-3.18 12.099-15.715 12.099h-19.082zm14.343-25.943c4.614 0 7.982-.498 7.982-4.552 0-4.304-2.682-4.864-7.921-4.864h-4.677v9.416h4.616zm2.058 17.712c4.864 0 8.356-.687 8.356-5.114 0-4.303-3.492-4.927-9.292-4.927h-5.737v10.041h6.673z"/><path fill="#fff" d="M126.351 287.649h-21.702v8.979h19.52v8.295h-19.52v9.042h22.388v8.606h-32.117v-43.591h31.431v8.669z"/><path fill="#fff" d="M135.708 278.98h9.729v34.924h18.584v8.668h-28.312v-43.592z"/><path fill="#fff" d="M209.235 300.371v15.466c-3.804 4.241-9.791 7.234-17.961 7.234-12.722 0-22.637-9.354-22.637-22.513 0-12.909 10.165-22.575 22.887-22.575 6.984 0 12.16 2.681 16.09 6.174l-5.052 7.296c-4.116-3.555-7.109-4.49-10.727-4.49-7.233 0-13.158 5.301-13.158 13.72 0 8.481 5.8 13.596 12.659 13.596 2.994 0 5.737-.562 8.107-1.934v-11.974h9.792z"/><path fill="#fff" d="M227.634 278.98v43.592h-9.729v-43.592h9.729z"/><path fill="#fff" d="M265.364 303.053v-24.073h9.729v24.384c0 13.097-8.231 19.645-18.646 19.645-10.414 0-18.709-6.548-18.709-19.645v-24.384h9.729v24.072c0 6.984 3.492 11.288 8.98 11.288 5.425.001 8.917-4.303 8.917-11.287z"/><path fill="#fff" d="M294.925 295.133v27.439h-9.729v-43.592h13.158l11.226 23.947 11.287-23.947h13.097v43.592h-9.729v-27.439c-3.929 7.92-7.92 16.09-11.787 23.822h-5.799l-11.724-23.822z"/></g></svg>