<svg xmlns="http://www.w3.org/2000/svg" width="384" height="550"><g fill="#fff"><path d="M129 294.639v-1.329c0-.771-1.004-2.197-8.113-3.117l-3.97 2.068-3.484 16.625c7.384-4.901 12.567-9.694 15.567-14.247zM218.1 215.822c2.695-2.684 4.912-4.69 6.676-6.041l-.399-.333-.219.038-5.227 4.442-.536.094-2.005 2.381 1.144-1.056.566.475zM176 229.053c0-.423-1.048-.875-3.747-.875-.496 0-1.122.015-1.708.045l-.379.062-.661.691-1.505.235v-.236l-1.223.941.37.243-4.468 4.743-.159.028c-2.05.36-5.249 3.717-8.874 17.65.022 2.879 1.603 5.08 4.812 6.722l.434-.074c4.058-.713 8.857-6.031 14.199-15.808 1.879-4.497 2.909-7.765 2.909-9.668v-4.699zM129.896 291.027v-.514l-1.104-.644c.421.625.792.975 1.104 1.158z"/><polygon points="237.029,232.326 237.09,231.759 237.029,231.832"/><polygon points="103.87,310.591 104.143,309.383 103.87,309.431"/><polygon points="103,272.491 102.665,272.304 102.381,272.334 102,272.746 102,273.351 103,272.662"/><polygon points="106.061,300.896 106.403,299.381 106.061,299.441"/><polygon points="132.087,293.644 131.794,295.179 132.087,294.831"/><polygon points="215.471,216.886 211.987,220.436 211.417,220.536 208.856,223.36 215.96,216.801"/><polygon points="136,298.229 130.833,305.967 136,299.958"/><polygon points="174.815,245.265 175.424,245.158 176.995,241.174 176.67,240.248"/><polygon points="153.348,335.749 153.783,335.246 153.893,333.806 153.456,333.882"/><path d="M234 267.85l1 .61v.53c0-.792.296-1.528.522-2.208l-1.522.244v.824zM234.792 270.489l.144-.596-.332.059.188.537zM241.784 315.353c-.981-.406-1.944-.999-2.884-1.775.308.837 1.466 1.398 2.884 1.775z"/><polygon points="261.418,248.932 261.418,249.946 261.519,248.915"/><polygon points="233.707,310.98 234.168,312.298 234.168,311.632 233.707,310.313"/><path d="M295.369 216.916l-2.377-38.199-35.439 6.439-36.177 5.363-36.033 6.206-35.861 7.255-36.318 4.476-35.367 6.121-1.43 38.081-.507 38.716.188 38.713-.961 40.304 37.611-7.029 35.828-7.479 36.061-6.039 36.505-3.356 35.959-6.647 35.043-7.509 2.015-37.98-3.029-38.739 4.289-38.697zm-61.068 19.16l.021-.052c2.032-23.487 3.678-26.95 4.678-27.557v-.657l2-.278v2.427c1-3.236 2.202-4.031 3.235-4.213l.06-.053 1.477 1.981-.567 2.966.177.148.013-.002.58-3.039 1.919-.337.772 2.205-.039.147c-3.072 11.731-4.629 20.856-4.629 27.123.433 4.721 1.263 5.449 1.576 5.552l13.134-17.326.559-2.924-.009-16.536 1.396-1.657.178-.031c.815-.148 1.344.28 1.59 1.189.379-.877 1.244-1.688 3.056-2.006l.354-.062 1.161 2.146 1.614-.284.576.485.97-.172-2.967 43.44-.709 2.853-.405.057c-1.303.229-2.071.949-2.071 2.265v.42l-3.142.595.473-2.375-2.33 2.958v-1.957l.339-5.448c-.542-.044-1.164-.297-1.453-.738-.205-.312-.386-.711-.442-1.208l-9.96 6.422-4.486-.329v.468l-.205.073c-4.39.768-7.133-4.683-8.6-16.626l.106-.053zm-41.686 6.756l.009-.266c1.148-10.862 2.237-17.403 3.403-19.972l-.646-1.631 1.618-5.09v-1.996l2-.38v.683c1-.955 1.745-1.586 3.422-1.881l.467-.092.541 4.823c.265-.438.583-1.294.851-2.963l.056-.352 1.387-.244.723 2.801-1.502 8.361 5.406-4.926.564-.1 3.483-3.549.558-.098 2.317-2.757.405-.073c.299-.923 1.682-2.511 7.111-5.915l.263-.193.948.869v.893c1-.612 1.805-.969 2.407-1.075l1.126-.182.761 2.944-.441.524 1.965-.346.851 2.432-.329.214c-2.849 1.851-9.573 8.082-19.991 18.522 2.621 5.23 7.148 12.173 13.637 20.645l.013.135v1.344l-.614 5.193-1.003-.898-.022.039-.568 2.52-3.207.705h.052l-1.636.033v-.596c0-.242-.306-.797-.987-2.014l-.004.434-.009.124v1.007l-1.375.246-2.299-6.054-.404.071-2.747-2.295 1.867-.329 1.145.962c-1.871-2.748-4.485-6.427-8.094-11.347l-.087-.131-1.028-2.836-2.193.801c-.513 9.356-1.785 15.272-3.785 18.071v.893l-7 .507v-2.301l.751-3.716c-.431-.077-.68-.345-1.013-1.077-.278-.612-.415-1.475-.415-2.639.617-3.926 1.149-5.538 1.624-6.213l-.332-.269zm-92.705 27.528c1.544-13.46 3.307-23.483 5.243-29.79l.043-.15-.076-.057.001-2.12 1.521-6.017-.682.11.802-2.938 1.238-.258v.587l2.546-.407c1.406-.244 1.939 1.73 1.973 3.387l.779.126c.165-1.34.906-1.766 1.541-1.877l.227-.04.934.784v.821l-2.774 15.703 7.972-1.937 5.501-.967.464-2.412-1.173-.986 1.756-.307-.484-3.529.049-1.079.689-.102v-1.762l1-.204v-.159l-1 .204v-7.054l2 .971v-1.634l-1-.486v-1.241l2.806-.497-.111.583 2.808-1.204.083.659c.486 3.856 1.141 3.964 1.148 3.964l.195-.034c.125-1.465.897-1.919 1.557-2.036l1.254-.22-.1.68c-1.928 13.827-4.872 30.36-8.727 49.141l-.091.333-1.19.201-1.236-.956.605-.934v-2.859l-1.245 5.062-1.87.361-.21.019c-.37 0-.859-.172-1.173-.951l-.94.166c-.65.112-1.151-.114-1.445-.612-.204-.345-.303-.815-.303-1.438 0-2.831 1.092-9.36 3.338-19.95l-7.361 1.867-4.904.318c-1.144 9.369-2.309 15.794-3.46 19.101l-.1.277-2.219.373c-.616 0-1.064-.508-1.301-1.511-.073-.306-.16-.664-.204-1.076l-.452 2.861-2.152-1.698v.978l-1.546.278.033-3.995-.587-2.338.01-.093zm45.09 72.272l-2.468-1.563c1.658 1.714 2.468 3.145 2.468 4.349v.42l-1.134.179-3.765 2.858-1.157.204-1.268-1.701-.441.523-1.105.194-.167-.107c-9.768-6.363-16.711-13.421-20.627-20.979l-3.455-6.367c-.819.451-1.948 2.288-2.199 8.789.324 4.979.027 8.064-.845 9.382-1.873 1.896-1.142 2.754-.843 3.077l.007.144v2.093l-2.479.458-.184.028c-.429 0-1.017-.168-1.383-.973-.105-.23-.186-.502-.244-.819-.459 1.64-1.804 1.92-2.669 1.92l-.466-.022-.201-.019-3.495-4.102.891-7.106.004-2.944.026-.049 4.483-21.791.718-.115v-2.956l2-.303v2.026l.382-2.592-1.79.279.006-2.928.791-3.404.61-.113v-.462l-4 .77v-1.335c0-.581.041-1.129.709-1.661l-2.149.932-1.561.232v-.596c0-.976.675-1.698 2.009-2.154-1.3-.136-2.009-.934-2.009-2.279v-.264l13.87-9.188 9.074-1.54c10.599.142 16.056 3.878 16.056 11.098v4.577l-.468.7 2.397-.385-.817 3.418-.592.109.013 1.249c-2.521 6.127-5.679 10.495-9.587 12.982l-3.946 2.13v2.226c1 .396 3.643 2.732 14.918 16.497 2.005.545 4.023 2.24 5.981 5.041l.101.129v1.804zm22.936-62.547c-3.466 10.951-5.612 23.469-6.379 37.205l-.243 4.229.73.61-.064 1.113.786-.138-1.578 1.785.411 4.884-.093 1.708-.084.118c-2.54 3.551-3.882 6.191-3.99 7.846l-.025.392-3.411.6-4.089-.996 1.068-5.541-2.776-2.449 1.363-11.577.735-13.527 1.59-2.496.15-2.616-.688-.618.081-1.381 1.459-.256.006-.112-.721-.648 2.876-14.12-1.417.249 1.604-1.814.196-4.058-.69-.62.079-1.348 9.151-2.44-.054.704c-.035.45.04.778.223.975.295.318.971.399 1.942.228l.37-.065 1.644 3.36-.048.054.135-.024-.249.784zm.027-13.863l-.13.073-2.903 1.097-.672.127c-1.743.306-3.391.461-4.898.461-6.624 0-11.019-2.967-13.06-8.818l-2.517-3.372.685-.821-.562-3.788-.033-1.247c0-3.381 3.013-9.579 9.322-18.946l.805-1.358v2.373l.037.125c-.385.591-.644 1.19-1.011 1.797 1.841-2.716 4.084-5.649 6.689-8.791l-.497.4-1.218.228v-.596c0-1.075.72-2.68 6.581-4.925l1.979-1.543-1.016 1.16c1.079-.388 2.305-.794 3.703-1.22 1.362-.243 2.655-.359 3.912-.359 3.22 0 6.314.761 9.221 2.261l.533.287-.913 1.028v.239l2.776 3.634-2.123.385-.396-.366.743 4.788v-2.54l2-.38v3.953l-1.92.346.597 3.952c.181-.837.677-1.639 1.525-1.788l.798-.104v2.945c0 2.227-2.001 7.347-5.678 15.637l.562-.136-.612.958c-2.75 4.311-6.892 8.632-12.309 12.844zm57.73 3.563c-3.597 2.337-12.068 10.202-25.213 23.38 3.293 6.599 9.151 15.368 17.352 26.071l.168.135v1.648l-.914 6.263-1.299-1.041-.156.031-.69 3.084-5.941 1.058v-.596c0-.424-.394-1.425-1.618-3.494.139.48.285.993.424 1.539l.194.124v1.159l-1.728.272-3.1-7.614-.554.097-3.195-2.67 2.019-.355 2.118 1.771c-2.414-3.572-5.856-8.442-10.701-15.047l-.072-.131-1.298-3.693-2.881 1.084c-.643 11.827-2.607 19.285-4.607 22.78v1.043l-8 .618v-2.754l.531-4.783c-.536-.063-1.304-.359-1.731-1.299-.342-.752-.507-1.821-.507-3.266.794-5.048 1.483-7.049 2.105-7.832l-.446-.377.04-.266c1.451-13.719 2.896-21.947 4.364-25.128l-.673-2.058 2.317-6.381v-.42l-1-.61v-1.393l3-.432v1.183c0-1.4 1.995-2.313 4.296-2.717l.293-.092.702 6.266c.391-.474.89-1.566 1.289-4.057l.056-.352 1.537-.27.874 3.38-1.951 10.863 7.053-6.427.716-.125 4.383-4.464.711-.125 2.927-3.468.562-.097c.304-1.116 1.975-3.067 8.957-7.445l.34-.193 1.254.994v1.155l-.345.333c1.392-.955 2.438-1.501 3.281-1.649l1.186-.208.911 3.523-.741.879 2.719-.477 1.003 2.859-.321.214zm43.824 44.632l-.8 3.486-.286.057c-1.71.3-2.431 1.246-2.431 2.976v.42l-4.061.7.237-3.23-3.176 3.766v-2.108l.691-6.974c-.701-.021-1.246-.323-1.61-.878-.271-.413-.404-.954-.46-1.644l-.01.012-12.362 8.129-5.25-.423v.619l-.643.073c-.318.056-.865.084-1.173.084-4.914 0-8.152-6.831-9.876-20.885l-.027-.052-.038-.052c2.388-27.595 4.757-33.54 5.757-34.557v-.833l2-.304v3.765c1-3.732 2.727-5.73 4.475-6.037l.253-.053 1.777 2.383-.716 3.75.326.273.163-.028.73-3.822 2.219-.39.92 2.633-.039.147c-3.867 14.771-5.827 26.261-5.827 34.148.576 6.292 1.735 7.067 2.164 7.127l16.588-21.883.709-3.708-.009-20.777 1.695-2.012.179-.031c1.062-.185 1.711.457 1.947 1.836.361-1.221 1.391-2.422 3.896-2.863l.354-.062 1.461 2.698 2.066-.362.73.61 1.14-.199-3.683 54.475z"/><polygon points="262,318.648 262.399,314.538 262,314.608"/><polygon points="209.986,278.838 212.646,276.353 213.064,275.853 210.407,278.335"/><polygon points="183.539,274.998 183.924,273.765 183.539,273.444"/><path d="M215.399 264.981l-6.574 5.587-.686.121-2.921 3.468-.752.132-4.382 4.464-.72.126-5.2 5.734 12.963-11.969.716.599c3.493-3.482 6.345-6.062 8.593-7.768l-.67-.561-.367.067zM220.761 269.005c.19-.064.385-.119.584-.165l-.261-.218-.323.383z"/><polygon points="232,296.23 232.38,292.71 232,293.161"/><path d="M240.169 210.958l-.818.144v.521l.496.415c.107-.382.215-.741.322-1.08z"/></g></svg>