<svg xmlns="http://www.w3.org/2000/svg" width="384" height="550"><g><polygon points="81.711,289.898 81.922,176.308 293.633,233.636 293.422,347.226" fill="none"/><g fill="#fff"><path d="M45.223 250.259l-.122 53.202 4.478 6.455.122-53.212-4.478-6.445m4.646-66.406l-10.464-2.066 5.956 8.59-.134 58.031 23.314 4.613-4.469-6.453-14.341-2.833.138-59.882m24.805 4.909l-10.464-2.076 5.965 8.602-.26 113.085 4.469 6.443.29-126.054"/><path d="M115.032 196.749l-10.464-2.076 5.965 8.783-.243 105.489c-.007 2.929 2.034 5.911 4.4 6.428l.07.014 15.245 3.02c1.044.198 1.641-.235 2.389-1.018l-3.28-4.723-14.341-2.843.259-113.074m24.805 4.899l-10.464-2.066 5.965 8.602-.247 107.149c-.007 3.149-.904 3.899-1.203 4.206l3.429 4.947c1.196-1.248 2.245-3.264 2.252-6.413l.268-116.425"/><path d="M175.695 216.16l-.26 113.085 4.469 6.453.173-75.266-4.382-44.272m7.49-5.932l-13.456-2.66 4.469 6.443 5.237 1.034 23.948 118.245-4.095-39.387-16.103-83.675m26.305 5.206l-10.465-2.076 5.956 8.6-.26 113.085 4.479 6.445.29-126.054"/><path d="M244.241 318.184l-2.155 24.986 3.875 5.588 2.155-24.976-3.875-5.598m7.677-86.942l-7.372 84.412 24.954 4.932-4.618-6.475-15.394-3.043 6.452-73.47-4.022-6.356m15.858-4.284l-21.227-4.197 4.022 6.355 13.008 2.582 9.298 115.899 5.222 7.523-10.323-128.162"/><path d="M310.799 242.885l-.26 113.085 4.469 6.453.173-75.266-4.382-44.272m7.491-5.932l-13.446-2.657 4.469 6.443 5.227 1.032 23.957 118.248-4.095-39.387-16.112-83.679m26.305 5.207l-10.464-2.076 5.965 8.602-.26 113.085 4.469 6.443.29-126.054"/></g></g></svg>