<svg xmlns="http://www.w3.org/2000/svg" width="384" height="550"><g><path d="M133.451 255.63c1.082-.812 2.28-1.404 3.596-1.773 1.315-.368 2.64-.455 3.975-.257 1.031.153 1.983.461 2.854.921.871.461 1.639 1.039 2.305 1.732.665.693 1.208 1.482 1.629 2.364.421.883.712 1.825.873 2.826 2.477-1.744 3.714-2.608 6.185-4.326-.461-1.356-1.079-2.633-1.855-3.831-.776-1.197-1.691-2.261-2.743-3.19-1.053-.928-2.234-1.702-3.541-2.319-1.308-.616-2.705-1.035-4.191-1.256-2.305-.342-4.569-.184-6.79.467s-4.258 1.685-6.107 3.087c-1.85 1.402-3.444 3.108-4.779 5.104-1.336 1.997-2.259 4.187-2.768 6.562-.509 2.376-.54 4.64-.096 6.799.445 2.161 1.259 4.096 2.439 5.819 1.18 1.724 2.687 3.159 4.52 4.321 1.832 1.162 3.902 1.91 6.207 2.252 1.486.22 2.967.25 4.443.084 1.475-.165 2.893-.499 4.254-1.01 1.361-.509 2.645-1.171 3.853-1.99 1.208-.819 2.304-1.768 3.287-2.85-1.571-2.483-2.358-3.718-3.935-6.175-.563.874-1.22 1.643-1.973 2.307-.753.665-1.582 1.212-2.488 1.644-.907.432-1.863.73-2.868.894-1.006.165-2.024.169-3.055.017-1.335-.198-2.546-.643-3.633-1.337-1.088-.694-1.975-1.554-2.662-2.587-.687-1.031-1.159-2.186-1.417-3.465s-.237-2.621.065-4.027c.301-1.406.842-2.69 1.623-3.849.78-1.159 1.711-2.145 2.793-2.958z" fill="none"/><path d="M212.928 268.908c-.562-1.393-1.275-2.593-2.139-3.601-.864-1.007-1.737-1.876-2.62-2.564-.979-.764-2.043-1.422-3.144-1.981-1.101-.56-2.218-1.041-3.352-1.446-1.134-.404-2.243-.745-3.326-1.023-1.083-.277-2.1-.531-3.053-.761l-3.348-.807c-2.462 11.486-4.923 22.972-7.384 34.457l3.348.807c.893.215 2.065.474 3.52.775 1.453.301 3.026.483 4.719.545 1.693.062 3.431-.056 5.217-.355 1.785-.298 3.478-.933 5.079-1.905 1.6-.971 3.028-2.338 4.282-4.099 1.253-1.761 2.189-4.08 2.805-6.956.502-2.344.667-4.429.496-6.256-.171-1.826-.538-3.437-1.1-4.83zm-6.147 9.516c-.349 1.625-.866 2.981-1.552 4.066-.687 1.086-1.593 1.922-2.72 2.508-1.128.586-2.484.928-4.069 1.023-1.586.096-3.452-.032-5.598-.386l4.31-20.112c1.974.575 3.661 1.212 5.061 1.909 1.4.698 2.509 1.546 3.328 2.545.818 1 1.332 2.181 1.541 3.543.207 1.363.107 2.997-.301 4.904z" fill="none"/><path d="M155.29 284.509c8.907 1.811 13.334 2.841 22.182 4.932l1.537-7.173c-6.131-1.449-9.198-2.162-15.353-3.496l1.266-5.907c5.922 1.283 8.874 1.968 14.773 3.359l1.537-7.173c-5.899-1.391-8.851-2.076-14.773-3.359l1.497-6.985c6.155 1.334 9.223 2.048 15.354 3.496l1.527-7.126c-8.848-2.091-13.275-3.121-22.182-4.932l-7.365 34.364z" fill="none"/><path d="M103.46 243.758c-6.626 11.658-13.226 23.325-19.801 35.004 3.172-.255 4.75-.348 7.894-.47 1.154-2.053 1.73-3.078 2.882-5.124 5.594-.166 8.369-.143 13.883.065.274 2.052.411 3.079.683 5.137 3.087.141 4.625.239 7.69.482-1.573-11.691-3.155-23.379-4.789-35.052-3.362-.085-5.05-.095-8.442-.042zm-4.96 22.271c2.829-4.961 4.241-7.432 7.061-12.355.707 4.941 1.058 7.421 1.756 12.398-3.511-.091-5.274-.102-8.817-.043z" fill="none"/><path d="M63.033 271.17c-1.878-8.589-2.829-12.825-4.759-21.169-3.23.875-4.854 1.355-8.121 2.405l-7.384 34.457c3.146-1.011 4.71-1.474 7.822-2.324 1.217-5.682 1.826-8.523 3.044-14.205 1.315 4.991 1.968 7.513 3.261 12.606 3.045-.714 4.559-1.033 7.573-1.604 3.605-6.044 5.403-9.043 8.989-15-1.197 5.588-1.796 8.382-2.994 13.971 3.03-.468 4.537-.666 7.539-1.002l7.384-34.457c-3.097.346-4.653.552-7.781 1.039-5.805 10.004-8.72 15.058-14.573 25.283z" fill="none"/><path d="M282.868 272.36c-1.91 8.907-2.864 13.361-4.773 22.268-3.99-9.073-5.962-13.718-9.871-23.163-3.169-.283-4.748-.451-7.897-.829-2.463 11.486-4.924 22.971-7.384 34.457 2.856.343 4.288.496 7.161.762 1.912-8.925 2.868-13.389 4.781-22.315 3.906 9.463 5.876 14.117 9.863 23.211 3.211.092 4.822.108 8.059.075 2.457-11.47 4.915-22.941 7.374-34.411-2.937.03-4.399.017-7.313-.055z" fill="none"/><path d="M291.077 306.566c2.887-.152 4.336-.255 7.248-.521 2.454-11.455 4.908-22.909 7.364-34.364-2.912.266-4.361.37-7.248.521-2.455 11.455-4.91 22.909-7.364 34.364z" fill="none"/><path d="M322.635 269.279c-6.667 12.122-13.361 24.231-20.085 36.33 3.196-.367 4.802-.586 8.03-1.104 1.173-2.144 1.76-3.218 2.935-5.37 5.77-.988 8.682-1.603 14.566-3.123.322 1.83.483 2.743.806 4.564 3.309-.893 4.972-1.383 8.32-2.459-1.977-10.22-3.879-20.466-5.714-30.735-3.565.858-5.336 1.235-8.858 1.897zm-4.968 22.305c2.896-5.275 4.346-7.925 7.254-13.253.793 4.536 1.193 6.791 1.998 11.272-3.725.901-5.574 1.294-9.252 1.981z" fill="none"/><path d="M248.596 274.222c-1.165-1.797-2.655-3.317-4.467-4.569-1.813-1.253-3.863-2.093-6.148-2.526-2.286-.434-4.522-.406-6.71.093-2.189.499-4.19 1.366-6.006 2.611-1.816 1.244-3.38 2.808-4.692 4.694-1.313 1.888-2.223 4.018-2.732 6.393-.509 2.376-.554 4.699-.132 6.969.421 2.27 1.205 4.348 2.351 6.229 1.146 1.881 2.618 3.483 4.418 4.797 1.799 1.314 3.841 2.192 6.127 2.625 2.286.433 4.529.368 6.731-.193 2.201-.561 4.22-1.51 6.054-2.838 1.834-1.328 3.414-2.972 4.74-4.924 1.326-1.95 2.244-4.116 2.753-6.492.509-2.375.545-4.663.11-6.87-.434-2.205-1.233-4.202-2.397-5.999zm-6.193 15.639c-.776 1.134-1.708 2.089-2.796 2.858-1.088.77-2.277 1.316-3.566 1.635-1.289.32-2.596.355-3.919.105-1.353-.257-2.558-.768-3.615-1.533-1.057-.763-1.922-1.697-2.593-2.798-.672-1.1-1.131-2.315-1.38-3.641s-.221-2.692.08-4.098c.302-1.407.837-2.666 1.607-3.778s1.688-2.038 2.756-2.782c1.066-.743 2.243-1.263 3.527-1.562 1.284-.298 2.603-.318 3.956-.061 1.323.251 2.516.747 3.578 1.489 1.061.743 1.938 1.65 2.631 2.724.692 1.074 1.166 2.261 1.419 3.565.252 1.304.228 2.658-.073 4.065-.299 1.407-.837 2.678-1.612 3.812z" fill="none"/><path fill="#fff" d="M242.672 278.42c-.693-1.074-1.57-1.981-2.631-2.724-1.062-.742-2.254-1.239-3.578-1.489-1.354-.257-2.672-.237-3.956.061-1.285.299-2.461.819-3.527 1.562-1.068.744-1.986 1.67-2.756 2.782-.77 1.112-1.306 2.371-1.607 3.778-.301 1.406-.328 2.773-.08 4.098s.707 2.54 1.38 3.641c.671 1.1 1.536 2.035 2.593 2.798 1.057.765 2.262 1.276 3.615 1.533 1.323.251 2.63.216 3.919-.105 1.289-.319 2.477-.866 3.566-1.635 1.088-.769 2.02-1.723 2.796-2.858.775-1.134 1.313-2.405 1.615-3.811.301-1.407.325-2.761.073-4.065-.256-1.305-.73-2.492-1.422-3.566z"/><path fill="#fff" d="M205.54 269.977c-.819-.999-1.928-1.847-3.328-2.545-1.4-.697-3.087-1.334-5.061-1.909l-4.31 20.112c2.146.354 4.012.482 5.598.386 1.585-.096 2.942-.437 4.069-1.023 1.127-.586 2.033-1.422 2.72-2.508.686-1.085 1.204-2.441 1.552-4.066.408-1.906.508-3.541.3-4.904-.209-1.362-.722-2.543-1.54-3.543z"/><path fill="#fff" d="M98.5 266.029c3.543-.059 5.306-.048 8.817.043-.698-4.978-1.05-7.457-1.756-12.398-2.82 4.923-4.232 7.394-7.061 12.355z"/><path fill="#fff" d="M317.667 291.584c3.678-.687 5.527-1.081 9.251-1.981-.805-4.481-1.204-6.736-1.998-11.272-2.907 5.328-4.358 7.978-7.253 13.253z"/><path fill="#fff" d="M360.932 243.641c-2.453 2.012-40.688 8.912-53.634 10.923-53.526 6.035-96.501-12.071-145.091-22.13-18.532-2.012-36.697-6.104-55.938-4.092-23.438 2.012-49.183 4.092-71.942 14.151-.355 2.012-8.494 60.072-11.656 66.107 2.453-2.012 39.743-10.059 52.689-12.071 53.526-6.035 96.5 12.071 145.445 20.118 40.551 8.047 85.913 8.33 128.268-5.753-2.777-8.045 7.278-53.17 11.859-67.253zm-282.929 35.665c-3.001.335-4.509.534-7.539 1.002 1.197-5.588 1.796-8.382 2.994-13.971-3.586 5.957-5.384 8.956-8.989 15-3.014.571-4.529.89-7.573 1.604-1.294-5.093-1.946-7.615-3.261-12.606l-3.044 14.205c-3.111.849-4.676 1.312-7.822 2.324l7.384-34.457c3.267-1.05 4.891-1.529 8.121-2.405 1.931 8.344 2.882 12.58 4.759 21.169 5.853-10.225 8.768-15.279 14.573-25.283 3.128-.487 4.684-.693 7.781-1.039l-7.384 34.457zm30.998-.936c-.273-2.058-.409-3.085-.683-5.137-5.514-.208-8.288-.23-13.883-.065-1.152 2.046-1.729 3.072-2.882 5.124-3.143.122-4.722.215-7.894.47 6.575-11.679 13.175-23.346 19.801-35.004 3.392-.054 5.08-.043 8.442.042 1.634 11.673 3.216 23.361 4.789 35.052-3.065-.243-4.603-.341-7.69-.482zm19.969-11.906c.257 1.279.73 2.434 1.417 3.465.686 1.032 1.574 1.893 2.662 2.587 1.087.694 2.299 1.139 3.633 1.337 1.031.153 2.05.148 3.055-.017 1.005-.164 1.961-.462 2.868-.894.906-.432 1.735-.979 2.488-1.644.753-.664 1.411-1.433 1.973-2.307 1.577 2.457 2.364 3.692 3.935 6.175-.983 1.082-2.079 2.031-3.287 2.85-1.208.819-2.493 1.481-3.853 1.99-1.361.51-2.779.845-4.254 1.01-1.476.166-2.956.136-4.443-.084-2.305-.342-4.375-1.09-6.207-2.252-1.833-1.162-3.34-2.597-4.52-4.321-1.18-1.723-1.994-3.658-2.439-5.819-.445-2.159-.413-4.423.096-6.799.509-2.375 1.432-4.564 2.768-6.562 1.336-1.996 2.93-3.702 4.779-5.104 1.85-1.402 3.886-2.436 6.107-3.087 2.22-.651 4.485-.809 6.79-.467 1.486.221 2.883.64 4.191 1.256 1.307.617 2.488 1.39 3.541 2.319 1.053.928 1.967 1.993 2.743 3.19.776 1.197 1.395 2.475 1.855 3.831-2.471 1.718-3.708 2.582-6.185 4.326-.161-1.001-.452-1.943-.873-2.826-.421-.882-.964-1.671-1.629-2.364-.666-.693-1.434-1.27-2.305-1.732-.872-.46-1.823-.768-2.854-.921-1.335-.198-2.66-.111-3.975.257-1.316.369-2.514.962-3.596 1.773-1.082.812-2.013 1.799-2.793 2.957-.781 1.158-1.322 2.442-1.623 3.849-.301 1.407-.323 2.748-.065 4.028zm54.339-4.26c-6.131-1.449-9.198-2.162-15.354-3.496l-1.497 6.985c5.922 1.283 8.874 1.968 14.773 3.359l-1.537 7.173c-5.899-1.391-8.851-2.076-14.773-3.359l-1.266 5.907c6.155 1.334 9.223 2.048 15.353 3.496l-1.537 7.173c-8.848-2.091-13.275-3.121-22.182-4.932l7.364-34.364c8.907 1.811 13.334 2.842 22.182 4.932l-1.526 7.126zm30.224 17.79c-.616 2.876-1.552 5.195-2.805 6.956-1.254 1.761-2.682 3.128-4.282 4.099-1.602.972-3.295 1.607-5.079 1.905-1.786.299-3.525.416-5.217.355-1.693-.062-3.265-.243-4.719-.545-1.454-.301-2.627-.559-3.52-.775l-3.348-.807c2.461-11.486 4.922-22.971 7.384-34.457l3.348.807c.952.229 1.969.483 3.053.761 1.082.278 2.191.62 3.326 1.023 1.134.405 2.251.886 3.352 1.446 1.101.559 2.164 1.217 3.144 1.981.882.688 1.755 1.557 2.62 2.564.863 1.008 1.577 2.208 2.139 3.601.562 1.393.929 3.004 1.101 4.83.171 1.828.006 3.912-.497 6.256zm34.598 13.589c-1.326 1.951-2.906 3.595-4.74 4.924-1.834 1.328-3.853 2.278-6.054 2.838-2.202.561-4.446.626-6.731.193-2.286-.433-4.328-1.311-6.127-2.625-1.8-1.314-3.272-2.915-4.418-4.797-1.146-1.881-1.93-3.958-2.351-6.229-.422-2.269-.377-4.593.132-6.969.509-2.375 1.419-4.505 2.732-6.393 1.311-1.887 2.876-3.45 4.692-4.694 1.816-1.245 3.817-2.112 6.006-2.611 2.188-.499 4.423-.527 6.71-.093 2.286.433 4.335 1.274 6.148 2.526 1.812 1.252 3.302 2.772 4.467 4.569 1.164 1.797 1.964 3.794 2.399 5.999.435 2.206.399 4.494-.11 6.87-.511 2.376-1.429 4.542-2.755 6.492zm34.675 13.242c-3.237.033-4.849.017-8.059-.075-3.986-9.094-5.957-13.747-9.863-23.211-1.913 8.926-2.869 13.39-4.781 22.315-2.873-.265-4.305-.419-7.161-.762 2.46-11.486 4.921-22.971 7.384-34.457 3.149.378 4.728.545 7.897.829 3.909 9.445 5.881 14.09 9.871 23.163 1.909-8.908 2.863-13.361 4.773-22.268 2.914.073 4.376.085 7.312.055-2.458 11.47-4.916 22.941-7.373 34.411zm15.519-.78c-2.912.266-4.361.369-7.248.521 2.454-11.455 4.908-22.909 7.364-34.364 2.887-.152 4.336-.255 7.248-.521-2.456 11.455-4.91 22.909-7.364 34.364zm30.561-5.469c-.324-1.821-.485-2.734-.806-4.564-5.884 1.52-8.795 2.135-14.566 3.123-1.175 2.152-1.761 3.226-2.935 5.37-3.228.518-4.834.737-8.03 1.104 6.724-12.099 13.418-24.208 20.085-36.33 3.522-.662 5.293-1.039 8.857-1.897 1.835 10.269 3.737 20.515 5.714 30.735-3.347 1.076-5.011 1.566-8.319 2.459z"/></g></svg>