<svg xmlns="http://www.w3.org/2000/svg" width="384" height="550"><g><path fill="#fff" d="M71.889 257.71c.567-1.022 1.021-2.158 1.362-3.294.454-1.363.909-2.045 1.591-3.521.567-1.022.567-1.817 1.249-2.84.454-.682 1.249-1.931 1.817-2.612.795-.909 1.022-1.817 1.59-2.727.796-1.249.568-2.499 1.137-3.748 1.021-2.271 1.136-5.339 5.338-6.815 1.022-.454 2.271.228 3.749.114 1.931-.114 4.543-1.704 6.247.567 1.249 1.59.908 4.203.908 6.134 0 .909 0 1.817.114 2.84 0 1.022-.682 2.84-.568 3.748.568 3.407 1.022 7.042 1.136 10.45 0 .908-.454 1.817-.341 2.612.114 1.704.682 2.953.568 4.657 0 1.363-.341 2.953-.228 4.202 0 .682.454 1.137.568 1.817.113 1.137-.228 2.613-.228 3.976.113 4.316.341 8.633.341 12.949 0 1.817.113 3.521 0 5.339 0 1.021-.113 2.044-.228 3.18 0 .796.341 1.704.568 2.499.341 2.158.682 4.316.682 6.475.113 1.931.682 5.339-.454 7.042-1.591 2.386-6.248 1.25-8.746 1.137-.796 0-2.386 0-2.84-.796-.568-.908-.228-2.044-.114-3.066.114-1.136-.454-1.931-.454-2.953.228-4.771-.227-9.655-.341-14.539v-8.064c0-.909 0-1.704.114-2.499 0-.795.34-1.591.227-2.271 0-.682-.227-1.363-.341-2.158 0-.796.114-1.477-.113-2.272-.228-.681-.909-1.362-1.022-2.044-.454-1.932.682-4.657-2.158-4.771-.908 0-3.748 7.837-4.089 8.859-.682 2.045-.341 5.68-2.612 6.929-1.704 1.022-4.771.341-6.021-1.249-.795-.909-1.249-2.272-2.158-3.862-1.477-2.84-3.066-5.68-4.998-8.292-.795-1.136-1.59-2.158-2.612-3.066-.908-.909-1.363-.568-1.477.567-.113 1.477.682 2.727.909 4.203.341 4.089 0 8.519.113 12.722 0 1.931 0 3.976.113 5.906l.228 2.271.228 1.704-.228 1.59c0 .796.341 1.477.568 2.158.795 3.181.113 6.815-.341 9.883-.228 1.703 0 3.294-1.591 4.315-.908.568-1.817.341-2.84.228l-3.294.568c-.682-.114-1.477-.455-2.158-.682-1.931-.795-2.839-2.158-3.294-4.203-.113-.567.455-1.477.341-2.271l-.908-1.817.341-1.931c-.341-2.272-.909-3.635-.114-5.566-1.59-3.407-.341-21.922-1.703-25.216.682-7.61-1.136-15.448.454-22.944.454-2.271-.341-5.452-.228-7.838.114-1.477-.341-4.543.455-5.793.567-1.136 1.59-.682 2.726-.682 2.158 0 7.383-1.362 9.087.114.682.567 1.704 2.84 1.931 3.635.455 1.477.909 2.953 1.25 4.43.567 2.612 3.066 6.36 4.771 9.2 1.363 2.271 2.158 3.976 3.181 5.566l1.021 1.703c.228.455.568.795.796.795.341-.001.682-.228 1.023-.682z"/><path fill="#fff" d="M149.807 312.231c-.568 0-1.137-.114-1.591-.228l-3.407-.454c-1.59-.114-3.862.454-5.111-1.136-.341-.568-.341-1.932-.454-2.954-.341-1.817-.455-7.155-2.158-8.291-.568-.341-3.862-.682-4.657-.682-2.271-.228-4.544-.114-6.702 0l-3.407.227h-1.704c-.567 0-1.249-.227-1.703.228-.455.341-.796.795-1.022 1.363-.568.908-.795 1.931-1.022 2.953-.228 1.931-.113 4.202-1.022 5.906-.113.228-.113.341-.227.454-.682 1.022-1.704 1.363-2.727 1.817-.568.228-.795.228-1.363.228-.567-.113-1.362-.341-1.931-.228-.682 0-1.363.341-1.931.568-1.363.682-2.613 1.022-3.976.113-1.932-1.363-1.136-3.976-.114-6.929.682-2.158 1.25-4.771 1.704-7.155.454-2.272.228-4.771.795-6.702.341-1.136 1.136-2.158 1.591-3.294 1.021-2.727 1.249-5.793 1.931-8.859.795-3.067 1.817-6.134 2.612-9.087.228-.909.113-1.932.454-2.727.455-1.817 1.363-3.521 2.045-5.339.454-1.59.682-3.521 1.249-5.111.682-2.044 1.818-3.976 2.386-6.02.113-.795 0-1.591.228-2.386.227-1.022.908-2.044 1.249-3.066 1.022-2.953 1.477-6.021 2.499-8.746.682-1.932 2.612-4.771 3.521-5.226.682-.341 8.519.568 9.769 1.022 3.635 1.363 3.294 3.294 3.861 6.588.795 4.998 1.25 9.655 2.84 14.426 2.271 7.383 2.726 15.448 4.884 22.49.114.454.455.908.568 1.477.113.454-.113 1.022 0 1.704.113.908.795 1.931 1.022 2.953l.341 3.066c0 .454.113.909.341 1.363.341.682.567 1.249.567 2.045l.341 2.498c.228 1.704.568 3.635.909 5.339.227 1.591.567 3.294.908 4.885l.795 2.726-.113 1.704c.228 1.022 1.817 3.407 1.25 4.657-.341.795-1.137 1.021-1.932 1.249-.341 0-.682.113-1.136.228-.341 0-.567.227-.908.341l-.342.002zm-24.422-45.775v1.703c-.34 1.363-1.249 2.386-1.59 3.635-.228.796-.113 1.704-.113 2.499-.114.454-.114.795-.341 1.363-.114.341-.454.568-.682.908-.228.568-.228 1.137-.228 1.704-.227 1.022-.454 2.158-.567 3.181-.228.908-1.136 2.158-.341 2.953 2.726 1.136 5.679.454 8.405.341 1.704 0 1.931.113 3.407-.454 2.158-.909 2.045-2.158 1.817-4.09-.227-1.703-.454-2.385-.795-3.861-.567-2.158-1.136-3.976-1.477-5.906-.228-.909-.113-2.045-.341-2.84-.454-1.363-1.363-2.612-1.704-3.976-.567-1.931-.795-3.976-1.817-4.316-.227-.113-.34-.113-.454.113-1.362 2.273-2.498 4.771-3.179 7.043z"/><path fill="#fff" d="M162.526 308.028c-.341-5.906.341-12.04.455-17.946.113-3.635.454-7.043.454-9.542-.113-1.817-.909-3.748-1.022-6.02-.228-3.976-.567-9.2-.682-13.062-.227-3.748.228-7.383-.113-10.563-.113-1.136-.682-2.271-.795-3.294-.228-2.499.227-6.588.227-9.996 0-2.612-.227-4.089 1.591-5.452 3.066-.227 8.064-.227 11.018.341 2.045 6.247.908 16.13 1.136 23.854 0 2.726.682 5.452.909 8.178.341 3.521-.455 7.043-.228 10.45 0 1.477.682 3.635.795 5.225.341 3.295-.227 6.475-.113 10.337 0 1.136.567 2.271.795 3.521.228 1.477-.113 2.726.341 3.407 1.477 2.271 9.314 1.249 11.586 1.363 2.499 0 6.134-.682 8.405.795 3.066 1.931 2.158 8.064 1.136 11.018-4.089 2.727-21.695 1.022-27.942.795-2.84-.113-7.383.568-7.951-2.953l-.002-.456z"/><path fill="#fff" d="M251.917 312.231c-.568 0-1.136-.114-1.591-.228l-3.407-.454c-1.591-.114-3.862.454-5.111-1.136-.341-.568-.341-1.932-.454-2.954-.341-1.817-.455-7.155-2.158-8.291-.568-.341-3.862-.682-4.657-.682-2.271-.228-4.544-.114-6.702 0l-3.407.227h-1.704c-.567 0-1.249-.227-1.703.228-.455.341-.796.795-1.022 1.363-.568.908-.795 1.931-1.022 2.953-.228 1.931-.113 4.202-1.022 5.906-.113.228-.113.341-.227.454-.682 1.022-1.704 1.363-2.727 1.817-.567.228-.795.228-1.363.228-.567-.113-1.362-.341-1.931-.228-.682 0-1.363.341-1.931.568-1.363.682-2.612 1.022-3.976.113-1.932-1.363-1.136-3.976-.114-6.929.682-2.158 1.25-4.771 1.704-7.155.454-2.272.228-4.771.795-6.702.341-1.136 1.136-2.158 1.591-3.294 1.022-2.727 1.249-5.793 1.931-8.859.795-3.067 1.817-6.134 2.612-9.087.228-.909.114-1.932.454-2.727.455-1.817 1.363-3.521 2.045-5.339.454-1.59.682-3.521 1.25-5.111.681-2.044 1.816-3.976 2.385-6.02.113-.795 0-1.591.228-2.386.227-1.022.908-2.044 1.249-3.066 1.022-2.953 1.477-6.021 2.499-8.746.682-1.932 2.612-4.771 3.521-5.226.682-.341 8.519.568 9.769 1.022 3.635 1.363 3.294 3.294 3.861 6.588.795 4.998 1.25 9.655 2.84 14.426 2.271 7.383 2.727 15.448 4.884 22.49.114.454.455.908.568 1.477.113.454-.113 1.022 0 1.704.113.908.795 1.931 1.022 2.953l.341 3.066c0 .454.113.909.341 1.363.341.682.567 1.249.567 2.045l.341 2.498c.228 1.704.568 3.635.909 5.339.227 1.591.567 3.294.908 4.885l.795 2.726-.113 1.704c.228 1.022 1.817 3.407 1.249 4.657-.34.795-1.136 1.021-1.931 1.249-.341 0-.682.113-1.136.228-.341 0-.568.227-.908.341l-.342.002zm-24.422-45.775v1.703c-.341 1.363-1.249 2.386-1.59 3.635-.228.796-.113 1.704-.113 2.499-.114.454-.114.795-.341 1.363-.113.341-.454.568-.682.908-.228.568-.228 1.137-.228 1.704-.227 1.022-.454 2.158-.567 3.181-.228.908-1.136 2.158-.341 2.953 2.726 1.136 5.679.454 8.405.341 1.704 0 1.931.113 3.407-.454 2.158-.909 2.045-2.158 1.817-4.09-.227-1.703-.454-2.385-.795-3.861-.567-2.158-1.136-3.976-1.477-5.906-.228-.909-.113-2.045-.341-2.84-.454-1.363-1.363-2.612-1.704-3.976-.567-1.931-.795-3.976-1.817-4.316-.227-.113-.341-.113-.454.113-1.362 2.273-2.497 4.771-3.179 7.043z"/><path fill="#fff" d="M312.569 234.879c.114 2.044-.341 3.861-.567 5.793-.455 4.089-.341 8.291-.568 12.381-.341 5.338-.567 10.563-.454 15.902 0 1.931-.568 3.407-.909 5.338-.227 1.591 0 3.408-.113 5.111l-1.022 6.815c-.227 2.84-.341 5.68-.567 8.405-.228 3.862.341 7.838-1.136 11.473-.455 1.021-.796 2.953-1.591 3.635-1.022.908-3.066 1.249-4.316 1.249-1.362-.113-3.407.228-4.43-.795-1.363-1.249-1.931-3.635-2.726-5.339-.796-2.044-1.25-4.202-1.817-6.36-.796-3.521-1.932-6.929-2.727-10.45-.341-1.704-1.249-4.089-2.726-1.817-.796 1.136-1.25 2.726-1.477 4.089-1.022 4.43-1.363 8.974-2.158 13.517-.341 2.045 0 4.09-1.477 5.793-1.817 2.272-8.065 3.067-11.359-.454-.567-.682-1.59-3.521-1.703-4.884-.114-1.25.454-2.499.454-3.635-.113-1.25-.568-2.386-.568-3.635-.227-2.727-.567-5.111-.795-7.384-.227-2.158-.113-3.976-.341-6.36-.113-1.591-.908-3.181-1.136-4.885 0-.908.341-1.703.228-2.498l-.796-2.727c-.454-3.066-.34-6.247-.908-9.2-.228-.795-.568-1.477-.682-2.271-.454-2.386-.795-5.453-1.022-8.065-.113-.795.228-1.703.228-2.499l-.795-2.271c0-.682.454-1.477.341-2.271-.114-2.158-1.022-4.544-1.022-6.701-.113-.796.454-1.591.341-2.499-.114-1.477-1.25-3.067 0-4.998.227-.341 5.111-.341 5.679-.341 1.137.113 3.295-.341 4.09.228 2.158 1.362 1.703 5.452 2.158 7.61.795 4.997.341 10.108 1.59 14.879.795 2.613.795 5.566 1.136 8.179.341 2.84.682 5.68.795 8.519 0 .682 0 1.704.455 2.158 1.021 1.136 1.931-2.612 2.271-3.294.908-2.044 1.59-4.202 2.271-6.36 1.022-2.84.795-7.27 3.181-9.428 1.363-1.136 2.612-2.158 4.316-1.25 1.817 1.137 2.84 3.294 3.066 5.339.113 2.386.795 4.998 1.817 7.042.568 1.137 1.022 2.386 1.477 3.635.341.682.341 1.932.795 2.499 1.136 1.704 1.704.341 1.932-1.022.227-1.136-.341-2.157-.228-3.294 0-1.362.454-2.726.454-4.202.341-4.657.341-9.314.341-14.085 0-3.181.455-6.247.682-9.428.113-2.044.228-7.155 2.612-8.178 1.704-.909 5.111-.228 6.929.227.682.228 1.137.455 1.591.796.566.451.793 1.245.906 2.268z"/><path fill="#fff" d="M334.035 310.981c-1.477.454-3.521.113-5.111.113-1.249 0-3.748.682-4.884-.113-1.137-.795-1.817-4.43-1.932-5.793-.227-2.271.228-4.543 0-6.929 0-.795-.567-1.59-.682-2.499-.341-2.499.341-5.906.114-8.405-.114-1.249-.568-2.499-.455-3.861l.341-1.478c0-.681-.227-1.362-.341-2.044-.113-.795-.113-1.591-.113-2.271l.113-4.771c.114-2.953-.454-6.133-.227-9.087.341-2.044 1.136-4.543 1.136-7.155 0-1.591-.568-3.749-.682-5.793 0-1.932.454-3.862.341-5.566 0-1.021-.454-1.931-.568-2.839l-.113-4.09c-.113-1.249-.113-2.612.341-3.748.682-2.158 2.84-2.044 4.771-2.271 1.363-.228 2.84-.682 4.203-.341.682.113 1.136.454 1.59.682 1.022.341 1.59.113 2.045 1.249 1.477 3.294.682 6.929.567 10.45-.113 2.84.228 5.793.114 8.974l-.796 2.612c-.113 1.59.114 3.521.114 5.339 0 1.703-.228 3.635 0 5.111.113.795.682 1.59.682 2.499.113.908-.455 1.816-.455 2.726.114 1.704.682 3.521.682 5.339-.113 2.499-.227 4.997-.227 7.496 0 1.022.113 2.045.227 2.953.114.568.114.909 0 1.363-.454 1.704.682 3.408.909 5.111.341 1.704.227 3.408-.341 4.998.113.908.682 1.022.682 1.704l-.455 6.701c-.113 1.25 0 2.727-1.021 3.407-.115.114-.341.227-.569.227z"/></g></svg>