<svg xmlns="http://www.w3.org/2000/svg" width="384" height="550"><g><path fill="#fff" d="M88.729 256.798c1.324-2.578 3.021-4.089 5.092-4.528l3.336-.709c.234-.114.755-.356 1.565-.726.81-.37 1.548-.69 2.217-.964.669-.272 1.157-.443 1.467-.51.834-.177 1.47-.147 1.907.087l-12.756 75.803c-1.885.4-4.061.461-6.525.181s-4.328-.729-5.59-1.347l11.817-51.73-26.99 59.877c-2.658.106-4.835-.761-6.533-2.598-1.699-1.838-2.843-3.383-3.432-4.636.086-2.479.307-5.732.661-9.764.354-4.028.715-8.223 1.079-12.583.364-4.359.642-8.446.833-12.259.19-3.814.197-7.048.021-9.701l-17.983 59.637c-.849.113-2.488-.579-4.923-2.079-2.434-1.501-3.863-2.944-4.286-4.33.449-3.05.959-5.741 1.528-8.078.569-2.335 1.523-5.671 2.861-10.009 1.338-4.337 3.478-11.132 6.42-20.388 1.331-4.22 2.893-8.645 4.686-13.276 1.792-4.63 3.388-8.595 4.786-11.895 1.396-3.299 2.377-5.599 2.939-6.899.821-.7 1.74-1.157 2.76-1.374.401-.086.704-.142.909-.169.204-.027.433-.051.687-.071l.808-.074.809-.073c.339-.072 1.074-.375 2.203-.911 1.13-.535 2.05-.879 2.761-1.03.572.568.999 1.511 1.279 2.829.62 2.92.813 7.555.582 13.903-.233 6.35-.744 15.794-1.534 28.332 1.092-1.544 2.071-3.164 2.939-4.857.867-1.693 1.651-3.395 2.354-5.103s1.392-3.397 2.071-5.066c.678-1.67 1.358-3.103 2.04-4.298 1.074-2.394 2.102-4.507 3.085-6.34.982-1.834 2.407-4.434 4.275-7.801 1.868-3.366 3.415-6.155 4.64-8.368 1.226-2.213 2.27-4.249 3.135-6.105z"/><path fill="#fff" d="M133.77 269.767c.125-.322.409-.81.852-1.461.443-.652.707-1.15.796-1.498 1.791-.381 3.287-.634 4.489-.758.864-.185 1.509-.188 1.934-.018.424.173.698.327.824.465l-11.569 53.352c-.237.247-.527.408-.866.479-.248.053-.609.063-1.083.033-.475-.029-.876-.092-1.202-.188-.328-.094-.728-.189-1.199-.287-.328.137-.906.488-1.736 1.059-.833.571-1.434.895-1.805.974-.556.118-.894-.104-1.014-.67-.24-1.13.228-3.411 1.402-6.845-.666 1.422-2.081 3.158-4.244 5.21-2.163 2.051-4.052 3.462-5.664 4.23-.592.257-1.118.435-1.582.532-1.205.257-2.542.271-4.012.042-1.47-.229-2.791-.712-3.965-1.447-1.173-.734-1.934-1.622-2.285-2.664-.555-1.095-.977-2.318-1.264-3.669-.474-2.229-.469-4.862.016-7.902.484-3.039 1.704-6.867 3.662-11.484 2.739-6.553 6.396-12.408 10.967-17.563s9.621-8.32 15.152-9.496c1.08-.23 2.211-.373 3.396-.426zm-2.425 8.192c-3.655 1.335-7.245 4.346-10.77 9.032-3.524 4.688-6.237 9.775-8.139 15.266-1.901 5.489-2.501 9.883-1.8 13.18 1.778-.444 3.411-1.308 4.898-2.592 1.487-1.283 2.821-2.872 4.001-4.764 1.18-1.891 2.17-3.767 2.97-5.626.799-1.859 1.776-4.324 2.934-7.393 3.416-8.994 5.385-14.695 5.906-17.103z"/><path fill="#fff" d="M157.628 246.878c.145-.229.371-.375.681-.44.433-.092 1.457.02 3.073.331.395-.117.977-.494 1.745-1.134.768-.638 1.384-1.008 1.848-1.105.494-.105.96-.04 1.398.194-.52 1.816-1.344 4.887-2.475 9.213-1.131 4.325-2.407 9.485-3.829 15.481-1.422 5.994-2.531 11.374-3.327 16.137-.551 3.333-1.098 7.257-1.64 11.767-.543 4.514-.965 8.262-1.267 11.246-.303 2.984-.522 5.147-.655 6.487-1.343.222-2.906.192-4.692-.084-1.787-.276-3.145-.628-4.075-1.054-.406-.241-.962-.386-1.666-.434s-1.208-.104-1.514-.171c-.305-.065-.493-.271-.567-.617-.02-.095-.008-.343.035-.746.337-2.368.627-4.308.87-5.82.243-1.512.51-2.995.798-4.451.287-1.456.865-3.867 1.731-7.234s1.83-7.114 2.89-11.246c4.335-17.13 7.88-29.238 10.638-36.32z"/><path fill="#fff" d="M192.67 257.247c.125-.322.41-.81.853-1.461.442-.652.707-1.15.796-1.498 1.791-.381 3.287-.634 4.489-.759.864-.184 1.509-.188 1.934-.017.425.173.698.327.824.465l-11.569 53.352c-.238.247-.527.407-.866.479-.249.053-.61.063-1.084.033-.474-.029-.875-.092-1.202-.188-.327-.095-.727-.19-1.198-.287-.327.137-.907.488-1.737 1.059-.832.57-1.434.895-1.804.974-.556.118-.894-.104-1.014-.67-.24-1.13.227-3.411 1.402-6.845-.667 1.422-2.081 3.158-4.244 5.209-2.164 2.052-4.053 3.463-5.664 4.231-.593.257-1.118.434-1.582.532-1.205.257-2.542.271-4.012.042-1.471-.229-2.791-.712-3.965-1.447-1.174-.734-1.935-1.622-2.285-2.664-.556-1.095-.978-2.318-1.265-3.669-.474-2.229-.468-4.862.016-7.902.484-3.039 1.705-6.867 3.662-11.484 2.74-6.554 6.396-12.408 10.967-17.563 4.571-5.155 9.621-8.32 15.152-9.496 1.081-.23 2.213-.372 3.396-.426zm-2.423 8.192c-3.655 1.335-7.246 4.346-10.771 9.032s-6.236 9.775-8.138 15.265c-1.9 5.49-2.501 9.884-1.8 13.181 1.778-.444 3.411-1.309 4.897-2.592 1.487-1.284 2.821-2.872 4.002-4.764 1.18-1.892 2.17-3.767 2.969-5.627.799-1.858 1.777-4.323 2.934-7.392 3.416-8.993 5.385-14.695 5.907-17.103z"/><path fill="#fff" d="M228.974 267.298l-.149.204-.088.043c-.014-.062.483-1.104 1.492-3.122 1.006-2.019 2.056-4.112 3.145-6.279 1.09-2.168 2.02-4.022 2.79-5.565.77-1.54 1.351-2.681 1.743-3.421.555-.577 1.589-1.027 3.103-1.349 1.946-.414 3.083-.459 3.41-.135.434.368.864.646 1.292.834.427.188.905.348 1.435.481.528.135.904.269 1.126.4.223.134.362.342.423.624-1.097 2.432-3.043 6.685-5.837 12.758-2.794 6.074-5.238 11.359-7.333 15.856-2.096 4.5-3.682 7.716-4.755 9.648-.568.976-2.309 4.446-5.223 10.413-2.913 5.968-5.681 11.666-8.305 17.097s-4.552 9.425-5.784 11.984c-.823.076-1.413-.086-1.773-.484-.359-.4-.772-1.018-1.242-1.853-.468-.837-.887-1.362-1.255-1.58-2.091-.113-3.253-.719-3.486-1.817-.074-.346-.048-.68.078-1.001l9.843-24.783c-2.175-4.917-4.765-14.44-7.768-28.568-1.161-5.463-1.942-9.595-2.344-12.396.041-.108.134-.242.277-.403.144-.162.354-.273.632-.332 1.235-.263 3.008.706 5.316 2.906.41.109.77.132 1.079.065.278-.059.695-.262 1.251-.609.555-.348.988-.555 1.297-.621.711-.15 1.441.17 2.19.962l4.947 28.972c.61-1.376 1.47-3.298 2.577-5.765 1.105-2.466 2.212-4.933 3.318-7.398 1.107-2.468 1.967-4.389 2.578-5.766z"/><path fill="#fff" d="M248.467 259.65c-.743-3.493.343-6.931 3.257-10.313 2.913-3.383 7.668-6.498 14.264-9.348 1.175-.545 2.598-.995 4.266-1.35 1.792-.381 3.598-.584 5.416-.61 1.818-.025 3.437.14 4.853.494 1.414.356 2.382.839 2.899 1.451.607.432 1.362 1.015 2.26 1.748.899.733 1.393 1.305 1.479 1.715.101.474.191 1.24.271 2.296.079 1.057.136 1.895.171 2.514-1.284 2.015-2.418 3.628-3.403 4.839-.986 1.212-2.209 2.294-3.67 3.244-1.462.953-3.118 1.624-4.973 2.019-1.378-.562-2.294-1.911-2.749-4.05-.254-1.194-.27-2.028-.048-2.504.847-1.033 1.885-1.918 3.115-2.657 1.232-.738 2.308-1.452 3.227-2.141-2.605-.103-5.051.088-7.337.574-2.843.604-5.283 1.616-7.321 3.035-2.04 1.419-3.553 2.925-4.539 4.514.374 1.761 1.36 3.095 2.958 4.005 1.598.909 4.177 1.987 7.734 3.235 3.56 1.247 6.275 2.478 8.147 3.69 1.873 1.212 3.049 2.95 3.529 5.214.114 2.504-.716 5.061-2.485 7.67-1.771 2.609-4.078 5.054-6.918 7.331-1.812 1.502-4.158 2.854-7.033 4.056-2.877 1.203-5.613 2.08-8.208 2.632-1.7.361-3.187.578-4.462.652-3.019.084-5.535-.515-7.551-1.793-2.016-1.28-3.277-3.113-3.784-5.501-.241-1.131-.309-2.365-.205-3.7.128-1.375.644-2.78 1.549-4.222.905-1.44 2.06-2.728 3.464-3.864 1.406-1.136 2.803-1.853 4.195-2.148 2.748-.584 4.859.463 6.334 3.14-1.811 1.206-3.061 2.128-3.748 2.769-.688.639-1.147 1.401-1.378 2.288-.231.889-.184 2.102.144 3.643.415.733 1.502.912 3.264.538 2.842-.604 6.011-2.065 9.507-4.387 3.493-2.319 5.523-4.426 6.091-6.322-.349-1.636-1.332-2.809-2.953-3.517-1.62-.709-4.172-1.549-7.654-2.519-3.483-.97-6.191-2.048-8.121-3.232-1.934-1.185-3.217-2.894-3.854-5.128z"/><path fill="#fff" d="M302.638 260.105c-.458 2.56-.803 4.552-1.033 5.979-.229 1.427-.517 3.268-.861 5.524-.345 2.255-.734 4.527-1.169 6.818-.436 2.291-.828 4.278-1.181 5.961-.406.217-.688.343-.841.375-.836.178-1.833.013-2.991-.497-1.158-.508-2.14-1.054-2.942-1.639-2.635-.686-4.115-1.799-4.442-3.337 1.405-6.009 3.301-13.285 5.686-21.832.825-2.963 1.77-6.199 2.834-9.707 1.065-3.507 1.935-6.179 2.612-8.013.676-1.833 1.175-2.915 1.492-3.245.238-.247.543-.411.914-.489.34-.072.827-.061 1.461.033.635.096 1.109.125 1.426.092.371-.079.869-.324 1.492-.735s1.151-.663 1.585-.756c.494-.104.946.045 1.355.45-.274 1.141-.754 3.22-1.438 6.235-.684 3.018-1.423 6.423-2.215 10.218-.794 3.795-1.376 6.651-1.744 8.565zm.957-31.162c-1.079-.983-1.801-2.34-2.168-4.066-.407-1.915-.279-3.812.383-5.692.661-1.88 1.712-3.284 3.155-4.215l1.482-.512c2.677-.109 4.276 1.06 4.797 3.508.28 1.319.185 2.8-.286 4.442-.472 1.643-1.215 3.097-2.232 4.361-1.017 1.268-2.093 2.021-3.231 2.263-.586.124-1.219.096-1.9-.089z"/><path fill="#fff" d="M342.191 225.466c.126-.322.41-.81.853-1.461.442-.652.707-1.15.796-1.498 1.791-.381 3.286-.634 4.488-.759.865-.184 1.509-.188 1.935-.017.424.173.698.327.824.465l-11.57 53.352c-.237.247-.526.408-.865.479-.249.053-.61.063-1.083.033-.476-.029-.876-.092-1.203-.188-.327-.095-.727-.19-1.198-.287-.328.137-.907.488-1.737 1.059-.832.571-1.434.895-1.804.974-.556.118-.894-.104-1.014-.67-.24-1.13.227-3.411 1.401-6.845-.665 1.422-2.08 3.158-4.244 5.21-2.163 2.051-4.052 3.462-5.663 4.23-.593.257-1.118.435-1.582.532-1.205.257-2.543.271-4.012.042-1.471-.229-2.791-.712-3.965-1.447-1.173-.734-1.935-1.622-2.285-2.664-.556-1.095-.978-2.318-1.265-3.669-.474-2.229-.468-4.862.016-7.902.485-3.039 1.704-6.867 3.663-11.484 2.738-6.553 6.396-12.408 10.966-17.563 4.571-5.155 9.622-8.32 15.151-9.496 1.081-.23 2.213-.372 3.397-.426zm-2.424 8.192c-3.656 1.335-7.246 4.346-10.771 9.032-3.524 4.688-6.236 9.775-8.138 15.265-1.901 5.49-2.501 9.884-1.8 13.181 1.778-.444 3.41-1.308 4.897-2.592s2.821-2.872 4.002-4.764c1.179-1.891 2.17-3.767 2.97-5.627.798-1.858 1.776-4.323 2.933-7.392 3.416-8.993 5.386-14.695 5.907-17.103z"/></g></svg>