<svg xmlns="http://www.w3.org/2000/svg" width="384" height="550"><g fill="#fff"><path d="M141.599 276.913l.076.808.794 1.345.85.914.57.99.038.405.513.382.591 2.227.206.152.575 3.062.255 1.696.118 3.287.16.683-.356 3.309-.033 1.668-.148.454-.061 2.401-.167.252.067.708-.241.479.044 3.514-.17 3.26-.109.86-.241.478-.097 3.033.343 3.642.246 1.593.646 1.799.42.407.988.359.233.457 1.435.033 1.37.361 1.147 1.043.668 3.037.109 3.185-.286 1.01-.743 1.234-1.172.727-1.583.421-3.139.109-.214-.254-2.478.036-1.902-.945-.466.123-.971-1.193-2.276-1.884-.375-.937-.187.05-.038-.405-.327-.431-.957-3.064-.627-1.597-.329-1.468-.007-3.109.304-1.844-.109-3.184-.086-.911.158-.354-.041-1.441.347-3.411.161-3.361.385-3.006-.078-1.845.189-3.057.068-3.336-.334-3.542-.481-3.086-1.403-2.738-.682-1.167-.382-.002-.151-.582-1.651-1.324-.382-.002-.513-.381-.661.072-.401-.204-1.146-.006-.895-.385-1.36-.26-1.611.117-1.759.572-.901 1.587-.174 1.188-.325.605-.349 2.374-.518 1.589-.136 1.591-.425 1.565-.418.631.038.403-.186.05.048.506-.187.05.038.405-.508 1.691-.655 3.181-.251.377-.664 3.08-.519 1.589-.58 2.956.038.404-.186.049-.037.632-.621 1.513-.729 3.408-.322 1.641-.631 1.413-1.246.953-3.249.967-.809.527-1.052-.032-1.657.648-1.611.118-.616-.458-.346-.634.253-3.386.174-1.188.64-1.311.413-2.702.85-3.13.435-1.463.082-1.163.824-2.396.628-2.449.832-3.331.84-3.231.831-3.333.223-.68.082-1.162.279-.073.756-3.107.442-2.398.186-.049-.047-.506.186-.05.609-2.651.59-2.853.187-.05.055-.429.585-.881.562-3.156.406-1.767-.047-.506.279-.074-.038-.405.25-.378.554-2.22-.067-.709.934-3.256.832-3.331.628-2.449.25-.377.036-.631.279-.074-.048-.506.187-.05-.039-.405.186-.049-.047-.506.279-.074.22-1.716.611-1.616.26-.276 1.438-2.975 1.132-2.168.623-.477.919-1.384 2.547-2.336 1.236-1.054 1.266-.751.744-.199.26-.277-.019-.203 1.303-.347 1.101.538 1.054 1.067 1.059 3.141.066.708-.723 1.437.038.406-1.134 1.13-.91 1.487-.864.955-.036.631-.975 1.814-.807 1.563-.165 1.288-.501.756-.165 1.289-.502.754.058.608-.822 3.433-.831 3.332-.739 3.307-.73 2.372-.167.252.05 1.542.355.734.616.46 2.115.162.876.182.754-.097.029.303 2.85-.135 2.867-.969 3.024-1.324 1.35-.877.967-.879.548-.249.605-.68 1.162-.828 1.16-1.864.967-.878.119-.758 1.106-1.433 1.438-2.977.788-1.765.027-.732.417-.63.449-3.334.277-1.111.17-3.26-.059-1.643-.491-3.188-.32-1.367-1.168-2.281-.869-1.118-.253-.659-1.092-1.473-2.007-2.058-2.695-1.254-.308-.23-.475.023-.234-.455-.568.046-1.007-.562-2.878-.167-.857.02-.206-.153-2.942.161-2.812.541-3.062.917-2.951 1.097-2.8 1.678-1.461.699-.696.704-.819.425-.148.454-2.027 1.783-.632.376-2.146 2.541-2.024 2.82-.817 1.462-1.365 1.711.048.505-.354.301.047.506-.269.176-.705 1.638-.26.277-.046.532-.446.325.038.405-.344.403.048.506-.428.529-.239 1.515-.241.478-.72 3.51-.239 1.516.081 2.881.333 3.542.214.253-.241.479.869 1.117.207 1.189.298.127.413 1.344.172 1.82-.213.783-.613.578-.91 1.487-2.053 2.516-.511.654-.373.099-.427.529-.829.324-.764-.005-.952-.991-.365-.836-.597-.256-.16-.684-1.103-1.573-.677-3.139-.618-1.494-.482-3.087-.218-6.37.449-3.334.479-3.03 1.027-3.28.619-2.55.408-.73.12-.758.91-1.486.509-1.691.51-.655.056-.429 1.736-2.846 2.024-2.82 1.003-1.511.633-.376.222-.681 1.031-1.207.623-.477.751-1.133.623-.477.148-.454.633-.376.604-.68.902-.55.511-.655 2.726-1.452 1.349-.876.157-.353 2.81-1.578 2.354-1.351 2.623-1.528 3.072-.817 3.277-.663 2.802-.642 1.49-.396 1.425-.068 2.98.244 2.86-.034.279-.074.029.303.372-.099.019.202.465-.124.019.203.465-.123.019.201.373-.099.028.303.465-.124.019.203.857-.021.904.485.959.055.615.459.373-.099.233.457.773.103 1.12.74.587.155.522.483.989.36.532.584 1.735 1.198.795 1.345.308.228.141.482.187-.05 1.41 1.803.298.128.439.609.299.129.038.405.186-.049.048.505.186-.05 1.105 2.611.761 3.012.658 2.936.426 3.516-.077 3.235-.45 3.333-.468 3.132-.499 1.792-.22 1.718-.306.807.038.405-.454 1.262-2.421 4.687-.437.428-.984 1.713-1.031 1.208-1.226 2.192-1.32 1.18-.771.932-1.246.953-.502.756-2.585 1.931-2.716 1.553-.679.905-.064.226zm-32.231 20.497l.485.078-.337-.533-.187.05.039.405zm1.432 8.122l-.085-.911-.214-.255-.652.173.57.99.187-.05.194.053zm-.646 2.245l.623-.476.109-.858-.866-.082.134 1.416zm.241-13.648l.456-.225.43.508-.081 1.163 1.453.235.428-.529-.131-.379-.522-.483-.17-.785-.699-.333-.272-.862.038.405-.947 1.083.017.202zm.131 4.424l.038.405.67.028.261-.276-.038-.405-.308-.23-.372.099-.075.228-.176.151zm1.354-10.938l-.688.806-.045.532 2.06.592-.045.531.263.758.289.027.353-.301.416-1.666.176-.151-.847.122-1.745-1.299-.187.049zm1.665-5.626l-1.043.069.038.406.308.229.568-.047.158-.353-.029-.304zm1.4 5.745l-.12.758.205.153.53-.453-.031-1.34-1.071-.234-.456.226.057.606.773.106.113.178zm3.084-8.804l-.289-.026-.429-.509.262.76-.158.352-.465.123-.152-1.618.296-.907.418-.63.446-.327.702 1.369.382.003.585-.881.857-.022.623-.476.055-.429-.726.4-.382-.002-.215-.254 1.032-1.207.119-.758.633-.376.306-.806-.848.121-.702-1.369-.818.425-.671-.029-.718-.535-.381-.002-.241.479-.633.376-.418.629-.129.658.986-.679.317.332-.409.73-.518 1.589-1.201.424-.401-.205.315-.707-.038-.404-.68-.131-.008.935-.427.529-.212.782.179.885.728.636.115 1.214.878 1.219.549-.25.689.231.43.508.979.259-.592-2.229-.02-.2zm-3.806 15.321l.131.381.382.001.623-.477-.019-.201-.391-.103-.447.326-.279.073zm.798-10.789l.319 1.367.838-.223.158-.352-.086-.911.614-.578-.308-.229-.754.096-.624.476-.074.227-.083.127zm.676 3.138l.523.484.382.002.12-.758-.439-.609.604-.679.055-.429-.391-.103-.881 1.789.027.303zm1.445-17.079l-.252-.658-.671-.029-.167.251.16.683.299.128.465-.123.166-.252zm1.501-4.339l-.067-.709-.652.173.132.38.4.205.187-.049zm2.123 4.309l-.178-.886-1.122-1.775-1.053-.031-.437.427.262.759.953.992-.222.681.021 1.238.773.106.549-.25.167-.252.857-.02-.038-.405-.514-.382-.018-.202zm-.7 3.712l.513.381-.055.43-1.105 1.434-.362.201-.393-.104-.477-1.013.409-.73.847-.122.539-.349.084-.128zm2.613-10.754l-.215-.254-.976.778-1.268-.285-1.759.571.833 1.749.354-.301 2.179-.164-.038-.405-.419-.407-.029-.304 1.676-.446.716-.501.017-.834-.883.754-.188.049zm-3.052-3.024l.837-.223.148-.454-.159-.683-.616-.459-.568.047.338 1.57.02.202zm.271-4.22l.856-.022-.047-.505-.504-.28-.232.58-.073.227zm1.047 2.002l.372-.099-.038-.405-.372.099.038.405zm.972 10.319l.157-.353-.188-.987-.308-.229-.466.123.124 1.315.495.181.186-.05zm-.38-8.09l.212-.783-.485-.079.076.81.197.052zm1.336-11.141l.165-1.288-.716.502-.026.732.298.129.279-.075zm-.498 24.086l.345.633.578.055-.019-.203.187-.05-.346-.633-.578-.054.009.102-.176.15zm.318-47.267l.372-.099-.047-.504-.372.099.047.504zm1.811 28.347l-1.212-.715-.345.403 1.213.715.635.66.408-.73.614-.579.157-.352-1.284.549-.186.049zm-1.008 7.526l.372-.099-.038-.404-.372.1.038.403zm.095-12.157l.14.481.568-.048.167-.252.391.103.531-.451.651-.173-.122-.279-1.602.218-.549.249-.175.152zm8.793 26.489l-.42-.406-.456.225-.074.228.224.354.651-.173.075-.228zm.752-1.133l.066.709.298.127 1.294-.447.065-.327-.225-.356-.587-.155-.735.3-.176.149zm2.699 3.327l.222-.682.549-.249-.346-.634-.578-.054-.222.682-.549.249-.336-.533-.382-.002.263.76.606.357.578.054.195.052zm.619-2.551l-.019-.202.187-.049-.131-.38-.289-.027.058.608.194.05zm1.009 1.6l.158-.354-.131-.38-.597-.257.169.786.215.254.186-.049zm.205 13.322l-.039-.406-.513-.382-.158.353.131.381.299.128.28-.074zm.204-18.098l-.577-.054-.055.428.392.103.26-.277-.02-.2zm-.539 35.815l.828-.324.335-.504.055-.428-.716.502-.428.528-.074.226zm2.219 14.445l-.048-.506-.298-.128-.25.378.317.33.279-.074zm-.388-29.449l.43.508.959.055-.449-.71-.298-.128-.465.123-.177.152zm1.282 2.458l-1.144 1.031.038.406.681.129.651-.173.244.558.372-.099.25-.378.027-.732-.347-.634-.587-.156-.185.048zm-.264-5.84l1.809.971.604-.68-1.155-.108-.038-.405-.673-1.066-.651.173.104 1.115zm.654 32.282l.809-.526-.596-.256-.279.074.066.708zm.257-19.563l.484.08.139-.556-.391-.104-.158.354-.074.226zm.62 6.577l-.373.099-.055.429.372-.099.075-.227-.019-.202zm.279-9.201l-.048-.505-.298-.128-.25.378.317.329.279-.074zm-.035-7.456l-.425 1.565.169.784.53-.451-.002-1.037.466-.124.184-1.085.623-.477.212-.781-.215-.255-.465.124-.082 1.161-.809.527-.186.049zm.191 11.148l.392.103-.243-.558-.187.05.038.405zm.648-15.415l.465-.124-.038-.405-.465.124.038.405zm10.109-55.782l-.623.477.122.279.632-.376-.019-.202-.112-.178zm1.672 19.777l-.038-.406-.308-.228-.279.073-.075.227.504.28.196.054zM178.291 242.994l-.32 2.677-.279.074-.646 3.282-.721 2.473.038.405-.417.63-.082 1.162-.37 1.136-.229 1.617-.186.049-.416 1.667-.25.377.047.505-.177.151.038.405-.731 2.371-.007.935-.27.176-.748 3.206-.566 1.084.048.506-.187.049.038.405-.279.073-.385 3.006-.655 3.182-.737 3.307-.12.758-.501.756.067.709-.461 2.196-.186.049-.562 3.157-.108 1.895.245 1.593 1.148 1.043.699.332 1.303-.347 1.358-.776 2.11-1.91 1.411-2.242.624-.476.918-1.385 1.531-2.999 1.521-3.101 1.309-2.318.213-.783.353-.301.667-2.044 1.29-2.52-.038-.405.518-1.589 1.299-2.42.716-.502.931-.248.772.106 1.652 1.323.076.81.225.355-.053 1.465-.797 1.665-.573 2.019-.501.756-.027.733-.408.73-.27.176.038.405-.752 1.133.047.505-.186.05-.12.758-.521.552-.129.657-.762 1.031-.119.758-.354.301.038.405-.418.63-.119.758-.771.931.028.304-1.829 2.871-2.015 2.92-.306.807-.633.376-.565 1.083-.279.074-1.003 1.512-1.748 1.708-.669 1.008-.372.099.019.202-2.624 1.528-1.246.953-2.979.792-2.309.822-.205-.153-.651.173-2.731-.621-.298-.13-.785-1.243-.392-.103-.224-.356.007-.934-1.933-2.286-.565-2.96-.314-3.339.366-3.208.136-1.593.187-.05.034-1.667 1.476-6.613.602-1.716.332-1.54.176-.151.127-1.694.333-1.54.398-.833.146-1.491.177-.15.036-.631.25-.377.026-.734.425-1.564.428-.53-.057-.606.654-3.182.84-3.231 1.037-3.18.776-2.901.418-.631.165-1.288.379-1.034.817-1.462.977-.778 6.516-1.733 1.323-.144 1.231.917.116.184zm-15.319 50.115l.391.103.231-.581-.484-.078-.065.328-.073.228zm1.308-11.444l-.614.579.206.153.362-.201.158-.353-.112-.178zm-.072-2.78l.652-.173.919-1.384-.689-.232-.623.477-.287 1.009.028.303zm.172 10.946l.53-.452.399-.833-.076-.809-.624.476-.155 1.391-.074.227zm.495-3.864l.148-.455-.253-.659.418-.63-.02-.202-.651.173-.053 1.466.214.253.197.054zm.168 8.872l.67.029-.131-.38-.392-.103-.147.454zm.55-30.632l.038.404.308.23.373-.1.119-.757-.205-.153-.456.225-.177.151zm.719 9.659l-.141-.482-.298-.128-.231.581.392.103.278-.074zm.608-7.732l-.038-.404-.513-.383-.186.05-.026.733.484.078.279-.074zm1.023-9.396l-.398.831-.938 1.184.942.889 1.554-.724 1.239-.019.428-.528.372-.099-.062 1.365.234.455.613-.577.146-1.491-.499-2.252-.772-.106-1.167-1.245-2.067.342.422 1.443-.074.227.027.305zm-.584 23.175l.54-.35.055-.43-.327-.431-.186.05-.288 1.009.206.152zm.066-21.586l.437-.427.308.23-.073.227-.651.173-.021-.203zm.12 12.411l.429.508.289.027.417-.63.229-1.617-.262-.759-.652.173-.48 1.994.03.304zm.119-9.883l.031 1.341.224.355.773.105.175-1.187.809-.526-.158.353.272.861.726-.401.417-.629-.42-.407.101-.959-1.592.319-1.182.625-.176.15zm.022 6.321l.838-.223-.047-.506-.485-.078-.231.581-.075.226zm3.56-16.917l-.843 2.195-.436.428-.382-.003-.513-.382-.652.172.15.583.373-.099.307.229.671.029.539-.35 1.222.816.578.054.046-.531-.561-.888.27-.174.728.635 1.042-1.106-.17-.786.399-.831-.298-.128-.726.4-.495-.181-1.333-.992.084.91zm-2.774 14.115l.253.659.912-.45-.066-.709-.382-.003-.632.376-.085.127zm1.08-8.79l.272.861-.408.73-.892.653-.039-.406.379-1.034-.122-.279.624-.477.186-.048zm-.805-6.527l1.024-.272-.085-.911-.465.124-.492.857.018.202zm.238 2.529l.651-.172-.131-.38-.568.046.048.506zm14.326-22.163l-.27.176-.017.834-.501.756-.129.656-.697.704-.456.225-.501.756-2.38 2.084-3.315.26-1.136.094-1.511-.843-.038-.405-.606-.357-1.169-2.283-.205-.152-.33-1.468.117-1.794.593-1.816.52-.553.695-1.739.427-.529 2.158-1.404 2.42-.643 1.528.008 1.37.362 1.726 1.097.243.557.616.459.384 1.038.426 3.516.038.404zm-12.556 26.774l.504.28.057.608-.428.529-.011-1.138-.122-.279zm1.005-.475l.642-.275.158-.352-.67-.03-.158.353.028.304zm1.176-7.779l.689.232.148-.455-1.193-.513-.131-.379-.28.074.048.506.719.535zm.552.788l-.578-.054-.055.429.298.128.354-.301-.019-.202zm4.025-21.085l.272.86-.036.632-.437.427.692 1.267-.055.43.382.002.222-.68-.004-2.074 1.088-.601.055-.429-.514-.382-1.479.497-.186.051zM227.52 230.732l.477 1.013-.636 3.384-.25.377.067.709-.428.53.057.606-1.018 3.381-.879 2.827-.239 1.515-.519 1.589-.174 1.187-.417.631-.082 1.161-.279.074-.165 1.289-.502.756-.153 2.426-.545 2.322-.416 1.666-.408.731-.479 3.031-.26.276-.425 1.565.038.405-.417.63-.24 1.515-.601 1.716-.359 2.273-.501.755-.404 2.804-.621 1.513-.175 1.187-.25.378.085.91-.176.151-.043 1.567.411.306.773.105 2.464-2.21 2.333-2.591 2.043-2.618 1.922-2.895 2.043-2.617.929-1.284.361-1.237.511-.653-.047-.506 1.263-1.788.129-.657 1.113-2.37.919-1.385.463-1.159.12-.758.511-.654.833-2.296 1.134-1.13 1.024-.273 1.388.564.616.458.852 1.951-.341 1.439-.705 1.639-.511.654-.194.984-.621 1.514-.26.277.047.504-.187.05-.463 1.161-.353.3-.703 1.637-.929 1.285.029.303-1.8 3.175-1.132 2.167-1.236 1.055-1.727 2.948-1.002 1.51-1.041 1.107-.566 1.083-.372.099-.939 1.184-2.37 2.185-.678.906-.372.099.028.304-.466.123.019.202-.642.275-.521.553-.148.453-.736.3-.314.706-.372.099.019.202-1.256.853-.25.377-2.585 1.932.028.303-.372.1-1.021 1.308-.733 1.336-.851 3.129-.146 1.491-.26.276-.934 3.257-.471 2.094-.427.529.057.607-.862 1.992.038.404-1.075 2.775-1.54 2.898-1.735 2.847-.549.249-2.016 2.921-2.408 1.781-2.884 1.804-1.377.574-2.933.261-1.872.394-.875-.181-.43-.508-.372.099-2.303-1.15-1.017-.662-1.393-2.637-.497-1.216-.284-1.999.17-3.26.425-1.565.511-.653.119-.758.622-1.513 1.941-2.694.372-.099.557-1.185.642-.274.148-.454.465-.124.055-.429.902-.551.428-.529.996-.576.324-.604.466-.123.148-.454.465-.123.139-.556.642-.274.511-.655 2.679-1.956 1.451-.801.604-.679 1.339-.979 2.054-2.516.797-1.664.203-.884-.048-.506-1.072-.234-.725.401-.762 1.032-2.139 1.606-1.32 1.179-1.285.55-3.193.539-2.581-.04-.988-.36-1.642-1.222-.131-.379-.606-.357-.038-.405-.186.049-.048-.506-.186.05-.038-.405-.279.074-.477-1.014-.799-3.417-.473-2.986.338-3.511-.11-3.187.189-3.056.636-3.384.535-2.423.552-3.259.6-2.752.187-.049.748-3.206.518-1.589.26-.277.306-.808-.038-.405.186-.049-.047-.505.279-.074.786-2.802.428-.527-.048-.506.187-.05-.038-.405.186-.049.036-.632 1.708-3.151 1.727-2.947 2.034-2.719 2.342-2.49 1.246-.953.251-.377 2.624-1.527 1.368-.675 1.583-.421 2.179-.165 2.33.417.475-.023.522.484 1.501.741.15.583 1.455 1.272.253.659 1.203.613 1.239-.018 1.627-.952 2.204-1.935.707-.602-.019-.202.465-.123.502-.755.539-.352.838-.222 1.972-1.354 1.332-.043.201.152zm-39.181 37.899l.055-.429-.606-.358-.128.658.401.204.278-.075zm-.313 10.867l.652-.173-.067-.709-.651.173.066.709zm1.709 1.93l.451-2.297-.623.477-.296.909.272.861.196.05zm-.428-8.596l1.509-.193.427-.529-1.37-.362-.373.099-.222.682.029.303zm.494-3.864l.399-.833-.206-.152-.372.099-.251.376.039.406.391.104zm1.334 5.037l-1.339.978-.417.63 1.948.416.604-.68.148-.454-.262-.759-.401-.205-.281.074zm6.95 27.187l-2.361 2.287-1.869 1.431-.855 1.056-.549.25.029.303-.372.099-.91 1.487-.771.931-.286 1.009-.447.328-.201 1.92.394 1.139.513.383.383.001.019.202.4.204 1.332-.043 2.148-1.504.659-1.11.549-.249 1.521-3.101.39-.934.668-1.007.101-.959.621-1.514.21-1.819-.131-.38-.504-.28-.279.074-.214-.255-.188.051zm-8.26-16.779l.391.103.148-.454-.391-.103-.148.454zm.592 2.227l.119-.758-.577-.054.262.759.196.053zm1.679-7.498l.11-.858-.664-.964-.298-.128-.297.908.571.989.391.103.187-.05zm-.506-14.487l.771-.93.047.504.821.612.169.784.187-.05.432-2.499-1.461.7-.346-.634-.681-.131-.27.176-.11.858.336.533.105.077zm.615 17.673l.363-.2.148-.455-.41-.305-.12.758.019.202zm.331 6.549l.652-.173-.039-.405-.68-.131.067.709zm.25-22.673l.047.506.401.204.428-.529-.132-.379-.475.022-.269.176zm.536-6.468l.95-.044.241-.479-.812-.51-.279.074-.119.757.019.202zm.639 25.029l-.492.855.011 1.139.735-.299.893-.652.477 1.013.494.181-.086-.911.158-.353-.391-.103-.738-.738-.272-.861-.671-.029-.138.556.02.202zm-.233-13.627l.671.03.324-.605-.038-.406-.391-.103-.595.78.029.304zm.621-18.727l.299.128.363-.2.158-.352-.392-.103-.446.326.018.201zm9.673-6.72l-1.533 1.962-1.177 2.699-1.113 2.37-.611 1.614-.511.655-.748 3.206-.704 1.638-.812 3.534-.231.581-.636 3.384-.268 1.211-.26.277-.068 3.336-.449 3.334.069 1.745.751 2.911 1.11.639.382.003.019.202 1.499-.295 2.569-1.099 2.146-2.541.27-.175.409-.732.549-.249 1.726-2.948-.038-.405.836-1.259.694-1.741.879-2.826.313-1.743.611-1.614.036-.631.695-1.741.609-2.652.533-3.459.86-3.029.552-3.257.043-1.568-.479-2.05-.449-.71-2.155-1.604-1.425.068-2.857 1.07-1.458 1.735-.178.154zm-7.116 4.485l-.048-.506-.718-.534-.026.732.224.357.382.001.186-.05zm2.288-6.104l.4.204.139-.555-.392-.103-.147.454zm3.309-3.369l-.578-.054-.055.429.651-.173-.018-.202zm.951 57.714l.726-.402.408-.729.129-.657-.439-.609-.559.148-.5.756-.11.859.234.455.111.179zm.086-3.134l.101-.961-.363.2-.158.354.234.455.186-.048zm-.171-1.821l.466-.124.521-.553-.048-.505.315-.707-.401-.204.048.506-.826 1.36-.075.227zm.681 9.254l.391.103.735-.298.064-.328-.43-.507-.661.072-.128.657.029.301zm.766-3.002l.485.078.139-.555-.484-.079-.065.329-.075.227zm.622-5.558l.279-.074.398-.832-.124-1.315-.587-.155-.435 1.463.355.735.114.178zm2.708-18.867l-.373.099-.398.833.29 1.062.793.308.54-.351-.048-.506-.671-.029-.234-.455.848-.122.895.384-1.039 2.143-.969-.157-.064.328.419.406.029.304.979.258.224.356-.231.581-.904-.486-.279.074-.045.531-.26.277.282.962-.437.428-1.212-.715-.382-.002-.54.35.346.633.587.156.225.355-.315.706-.184 1.087 1.322-.144-.263-.76.055-.43.26-.276 1.585.616.262.758-.565 1.084-.716.503-.465.123-.026.732-1.191.524-.157.354.048.506-.177.149-.484-.077-.27.176-.236.577.68.131.456-.225.764.005.215.254 1.005-.475.606.357.578.054 1.031-1.207.325-.605-.391-.103-.523-.483-.613.579-.215-.255.315-.706.11-.859.325-.604.456-.225.384 1.038-.232.581 1.9-.091.513.381.279-.073.074-.227.363-.2.074-.228.456-.225.158-.353-.356-.735-2.09-1.932-.754.096-.299-.128-.038-.405 1.005-.474 1.277.386 1.136-.095-.424-2.479-.726.4-.503-.28-.038-.405.222-.681.735-.299 1.16-1.865-.15-.581.53-.453.008-.935-.299-.127-.346-.635-.298-.128-1.227 1.156-.465.124-.606-.357.73-2.372.354-.302.597.258 1.312-.246-.179-.885-.504-.28-1.816-.036-.325.605-.643.274-.724 1.437-1.052-.032-.318-.33-.353.301-.046.531.291 1.063-.298-.128-.344.403-.083.122zm-1.765 15.713l-.038-.405-.298-.129-.745.198.132.381.67.029.279-.074zm.151-3.463l.167-.251-.887-1.32-.27.176.086.911.326.431.392.103.186-.05zm-.68-9.254l.187-.05.57.989-.604.68.038.405.867.08.414-2.702-1.053-.032-.437.428.018.202zm.695 16.509l.373-.099-.047-.506-.373.099.047.506zm.328-3.613l1.214 1.751.392.103.101-.96-.199-1.087-.57-.991-.838.223-.129.657.029.304zm1.367 3.37l.306-.807-.484-.079-.325.606.215.254.288.026zm.339 1.569l.101-.961-.838.223.047.506.504.28.186-.048zm-.442 2.399l.465-.124-.038-.404-.465.124.038.404zm1.261-2.824l.466-.123-.048-.506-.466.123.048.506zm.611-14.784l.186-.05.225.356-.091 1.061-.381-.002-.57-.989.559-.149.072-.227zm-.279 9.199l.485.079.251-.378.045-.531-.465.123-.334.504.018.203zm.841-12.356l.373-.099.718.535-1.265.751.091-1.061.083-.126zm5.441-17.208l-.597-.257-1.246.954.047.505.57.989-.187.05-.417.629-.372.099-.709-.433-.27.175.132.38.597.256 1.145.006.215.254-.11.859-.52.553-.736.298-.055.43-.735.298-.26.277-.224-.355-1.277-.386-.52.552-.046.532.848-.122.708.433-.305.807-.688.806.484.078.8-.626.718.533-.158.353.244.558.754-.097 1.06-.904.124 1.315.214.254.363-.2.231-.581.017-.834.614-.578.212-.783-.485-.078-1.117.298-.326-.432.157-.354-.281-.962 1.198-1.46.346.634.298.128 1.403-1.307.838-.222.055-.429-.263-.76-.532-.584-.361 1.237-.995.576-.606-.357-.664-.964.613-.577 1.573-.523.54-.351-.141-.482-.43-.507-.764-.005-.549.249-.172.155zm-3.146 1.044l-.131-.381-.606-.357-.578-.054.047.506.42.406.568-.046.28-.074zm-.566 23.378l.373-.099.346.633-.232.581-.372.099-.115-1.214zm.413-24.996l.372-.099.242-.48-.633.376.019.203zm.893-.653l.131.38.401.204.363-.2.232-.581-.122-.279-.819.425-.186.051zm.267-1.212l.131.378.335-.503.372-.099.355.735 1.139.941.744-.198.26-.276.43.508.466-.124.521-.553.212-.782-1.435-.034-1.563.623-.888-1.319-.392-.103-.604.679-.083.127zm1.875-3.403l.138-.554-.439-.61-.745.198-.026.733.792.308.28-.075zm-.742 6.316l.392.103-.091 1.061-.298-.128-.076-.809.073-.227zm1.079-13.871l-.771.93.019.203.363-.201.816-1.462-.048-.505-.456.225-.036.632.113.178zm-.251 8.466l-.352 1.338.475-.023 1.1.537.277-1.111-.682-1.167-.075.228-.743.198zm-.265 11.374l.651-.173-.067-.708-.465.124-.139.553.02.204zm.652-13.343l.493.181.139-.556-.391-.104-.158.354-.083.125zm.803-7.68l1.139.941.456-.224-.757-.94-.661.073-.177.15zm.614 8.547l.823 1.647.466-.123.976-.778-.233-.456-.924-.688-.931.248-.177.15zm.979-3.787l1.098-.499-.076-.809-.429-.508-.578-.053-.043 1.566.028.303zm1.966-8.506l-.195-.053-.354.303-.064.327.651-.173.075-.228-.113-.176zm-.498 10.918l.857-.021-.048-.506-.298-.128-.363.2-.148.455zm.846-5.204l.623-.477.11-.858-.671-.029-.157.352.095 1.012zM274.128 230.158l-.44 3.435-.416 1.667-.091 1.061-.186.049.038.405-.28.074.047.506-.186.05.039.405-.187.049.047.505-.501.757-.237 2.55-.473 1.06-.12.758-.501.757-.449 3.334-.935 3.255-.519 1.589-.191 2.021-.325.605.038.405-.425 1.565-.368 2.172.079 1.845.358 1.772.58 1.09.568-.047.131.38 1.489-.396 2.399-1.882 2.034-2.719.623-.476 1.514-2.165.622-1.513.835-1.258 1.624-3.026.12-.757.446-.327.12-.758.446-.325.12-.758.354-.301.212-.782.669-1.008.036-.631 1.02-2.345.427-.528 1.213-3.33.25-.377 1.275-.65 1.538.111.802.407.878 1.219.179.885-.416 1.667-.408.731-.509 1.69-.334.503.038.406-.565 1.084-.11.858-.27.176.038.405-.279.073-.026.733-.714 1.539-.762 1.031-.12.758-.354.303-.212.781-.604.679-.036.632-.668 1.007-.129.658-.354.3-.63 1.413-2.005 3.022-2.034 2.719-2.043 2.617-.501.756-.373.099.019.202-.466.123.029.304-.372.099-.148.455-.465.123-.418.63-2.222 1.732-.559.149-.344.403-2.828 1.374-.726.4-3.018.388-1.435-.033-1.268-.286-2.36-1.758-1.577-1.55-.15-.582-1.193-.513-2.342 2.489-1.922 2.898-2.213 1.833-.251.377-1.349.877-2.298.922-.168.252-2.681.92-2.57.063-.122-.279-.373.099-.019-.201-.466.123-.019-.202-.372.099-.029-.304-1.062-.132-1.838-1.275-.149-.581-.606-.357-.403-1.242-.206-.152-.319-1.367-.186.05-.658-2.936-.314-3.339.16-3.36-.162-1.72.167-.252.253-3.387.177-.15.313-1.743.053-1.466.654-3.181.315-.707.552-3.258.573-2.019.034-1.668.26-.276.528-1.49.11-.857.824-2.398.743-1.234.406-1.767.463-1.16.761-1.032.12-.758.353-.301.612-1.615.353-.301.12-.758 1.839-2.771.353-.301.566-1.083.457-.226.231-.579.642-.276.418-.629.373-.099.501-.756.642-.275.139-.555.372-.1.241-.478.466-.124.325-.604 2.81-1.578 3.072-.817 2.571-.06.019.202 1.053.032 2.107 1.098 1.231.917 1.298 1.625.15.582 1.389.564.754-.096.167-.252.744-.198 2.297-1.96 2.585-1.932 1.05-1.004 2.056-1.481.754-.096 1.026.765.337.532-.303 1.843-.924 3.357-.841 3.232-1.149 3-.084.12zm-34.026 21.7l.157-.353-.131-.379-.392-.103-.148.455.234.455.28-.075zm-.022 15.976l1.191-.524.417-.63-1.116.297-.418.631-.074.226zm1.246-4.998l.065-.328-.355-.736-.513-.382-.148.455.346.634.504.28.101.077zm1.493-7.448l-.67-.03.038.406.559-.149.073-.227zm.32-11.803l.132.379.792.308.212-.782-.122-.279-.931.247-.083.127zm12.259-12.697l-.465.123.02.203-.373.099.028.303-.549.249-.398.833-.623.476-1.633 2.923-1.418 3.177-1.428 3.076-.454 1.261-.186.049.047.506-.27.176-.017.833-.621 1.514-.851 3.129-.442 2.399-.246 2.452-.767 3.003-.458 3.232.211 3.263.358 1.771 1.289 1.523.979.259.857-.022 1.572-.521 1.265-.752.614-.578.064-.328.466-.124.138-.555.373-.099 1.848-2.669 1.736-2.847 1.058-1.94.85-3.129.645-3.282.251-.378.544-2.322.251-.377.738-3.308.304-1.844.757-3.104.934-3.255.118-1.794-.546-2.759-.615-.459-.263-.758-.523-.484-1.276-.386-2.282.089-.158.353-1.368.674-.085.126zm-7.409 6.429l.195.053.26-.277.055-.43.427-.529-.019-.202-.392-.103-.743 1.234.103.077.114.177zm3.987-8.319l.735-.299.036-.631-.67-.029-.129.656.028.303zm2.241-1.529l.373-.1.138-.555-.391-.103-.139.556.019.202zm4.269 32.152l.298.127.8-.626-.131-.38-.793-.308-.193.985.019.202zm.956 7.108l.241-.48-.243-.556-.392-.103-.017.833.215.255.196.051zm.629-6.493l.131.38.68.131.53-.453-.019-.202-.689-.231-.457.225-.176.15zm.672-4.016l.716-.502-.252-.659-.774-.105-.167.251.458.811.019.204zm-.101.961l.689.231.754-.098.53-.451.148-.455-.131-.381-.606-.357-1.311 1.283-.073.228zm.234 9.581l.346.634 1.2-.424.203-.884-.353.301-1.22.22-.176.153zm1.119-17.512l-.334.503-.277 1.111.298.128.076.81.205.152.466-.123.635.66.382.003.446-.326-.346-.634-.373.099-.317-.331.065-.327 1.042-.07.158-.354 1.117-.297.513.382.353-.301-.048-.506-1.007-.562.045-.53-.883.753-.764-.005-.747-.837-.056.428-.649.174zm1.193 9.638l-1.573.522-.065.329.45.711.298.127.437-.427 1.21-.322.065-.328-.709-.434-.113-.178zm.559 3.896l-.132-.38-.68-.131-.446.327.336.533 1.239-.018.157-.354.363-.201.351-1.337-.549.25-.203.883-.26.277-.176.151zm-.351-15.875l2.048-.545.158-.353-.198-1.089.354-.301.792.308.261-.277-.132-.379-1.527-.009-1.117.298-.657 2.145.018.202zm1.014-5.455l-.736.299-.296.907 1.508-.192-.365-.837-.111-.177zm.331 24.799l.417-.631-.076-.809-.681-.129-.417.629.076.809.401.205.28-.074zm-.283-28.337l.346.633.484.078.54-.35-.067-.708-.298-.128-.828.323-.177.152zm.108-5.941l.196.052.058.607.362-.2.119-.758.27-.174.392.103.53-.453.148-.453-.69-.231-1.301 1.382-.084.125zm.459 9.937l.597.256 1.518-.092.606.357-.323 1.64.076.809.225.356.649-1.211.212-.781.51-.655.046-.529-.392-.104-.253-.66-.754.098-.346-.633-.895-.386-.263-.759.065-.328-.838.223-.428.528-.034 1.668.022.203zm.218 6.37l.289.027.511-.653 1.088-.601.045-.531-.27.176-.979-.259-.714 1.539.03.302zm.868 5.162l.193-.984-.465.124-.158.353.234.455.196.052zm-.197-18.302l.597.257.394 1.139.324-.604.007-.936-.952-.991-.456.224.195.053-.129.655.02.203zm.342-5.483l.838-.223-.775-1.142-.195-.051-.158.352.188.988.102.076zm.168 8.874l1.036.865 1.053.032.148-.454-.076-.809-.522-.483-.373.099-.129.656-.783-.206-.354.3zm.675-7.024l-.51.654-.056.43.829-.324.511-.654.054-.43-.233-.455-.363.199-.157.353-.075.227zm1.348 3.168l.263.759.289.027.624-.477.128-.656-.382-.003-.029-.304-1.203-.613-.439-.61-.148.455.897 1.422zm-.562-5.968l.067.708.298.128.745-.199.26-.276-.439-.609-.847.121-.084.127zm.156 7.734l.346.635.298.127.838-.223.16.684.578.054.21-1.819-.067-.709-.382-.001-.213.782-1.685.344-.083.126zm.704-10.764l.048.506.764.005.26-.277-.048-.506-.392-.103-.549.25-.083.125zm1.082 5.416l-.066-.708-.606-.357-.064.328.346.634.39.103zm.172 1.821l.12-.758-.225-.354-.568.046.086.911.215.254.372-.099zm1.183.41l.082-1.162-.225-.355-.475.022.217 1.292.205.152.196.051zm-.39-4.147l.651-.173.12-.758-.457.225-.241.48-.073.226z"/></g></svg>