<svg xmlns="http://www.w3.org/2000/svg" width="384" height="550"><g fill="#fff"><path d="M91.468 291.981v-10.933l-7.195 1.928v28.426l6.228-1.669 6.228 4.776v35.217l-6.228 8.574-6.228 1.669-6.335-5.208v-16.112l6.55-1.755v15.997l6.012-1.611v-34.411l-6.228 1.669-6.228-5.466v-29.692l6.228-7.538 7.195-1.927 6.228 5.466v10.933l-6.227 1.667zM121.13 267.152l6.228-1.669v84.243l-6.228 1.669v-84.243zM163.034 291.752l14.389 45.862-6.55 1.755-11.705-37.835-1.288 3.683v37.633l-6.228 1.669v-84.589l6.228-1.669v32.569l12.993-36.051 6.55-1.755-14.389 38.728zM211.273 279.898l14.389 45.861-6.55 1.755-11.705-37.834-1.288 3.683v37.633l-6.228 1.669v-84.588l6.228-1.669v32.569l12.993-36.051 6.55-1.755-14.389 38.727zM245.661 236.999l6.228-1.668v84.243l-6.228 1.668v-84.243zM294.652 279.035l-5.476 17.809-1.074.288-5.369-14.904-1.074.288v30.268l-6.227 1.669v-84.588l6.227-1.669 6.443 44.653 1.181-.316 6.443-48.106 6.335-1.697v84.588l-6.335 1.697v-30.268l-1.074.288zM231.123 220.317l.126-.232.097-.265.077-.244.046-.285.028-.247-.01-.3-.019-.241-.071-.308-.064-.227-.137-.299-.078-.17-.033-.046-.034-.067-18.358-28.301c-.135-.348-.341-.668-.614-.946l-10.907-16.814-.007-.011-.002-.004-.046-.057c-.091-.132-.188-.261-.303-.378-.12-.123-.252-.24-.39-.337l-.037-.04h-.001c-.156 0-.32-.187-.492-.26l-.282-.085-.237-.071-.322-.036-.222-.022-.288.023-.257.023-.32.09-.205.07c-.174.068-.341.268-.5.268h-.002l-.052.032c-.134.091-.264.186-.383.302-.118.115-.22.24-.315.371l-.044.051-.002.003-.008.011-14.908 21.809c-.879 1.287-.549 3.043.737 3.922.487.333 1.041.493 1.59.493.9 0 1.785-.43 2.332-1.23l2.531-3.703 3.175 4.857.02.023c.113.169.243.33.396.477l.03.024.126.098c.127.105.258.199.397.278l.18.091c.138.066.279.119.423.162l.036.05.478.094v-.213h.278c.166 0 .332.078.498.048l.128.021c.129-.029.257-.044.383-.093l.116-.031c.143-.062.283-.128.417-.216l.022-.014.202-.162.249-.212.027-.023 2.806-2.948 2.399 4.455.013.017c.11.201.249.386.409.559l.147.139.195.184.226.146.109.07c.192.109.393.191.599.251l.12-.125c.218.053.44-.067.662-.067h.006l.112.142c.18-.007.36.053.536.012l.206-.033c.146-.047.29-.076.428-.146l.054-.011.303-.2.147-.097c.163-.133.307-.281.433-.442l.016-.016 3.587-4.662 14.787 22.796c-5.124 2.451-17.181 7.369-31.448 7.369-14.558 0-28.049-4.951-33.664-7.316l9.385-13.22 2.75 3.123.008.008c.129.145.273.279.435.399l.006.004.059.036c.133.093.271.172.414.239l.148.061c.125.05.252.091.38.122l.14-.094c.174.033.35-.072.525-.072h.242v.244s.27-.021.462-.061l.104-.042c.137-.038.241-.084.373-.143l.16-.083c.13-.069.246-.151.366-.242l.129-.097.033-.025c.151-.133.282-.28.398-.435l.007-.008 2.656-3.603 5.806 7.57c.556.725 1.393 1.105 2.241 1.105.599 0 1.203-.19 1.715-.583 1.237-.948 1.471-2.72.522-3.956l-12.972-16.914-.086-.092-.203-.216-.22-.192-.096-.084-.115-.065-.264-.15-.24-.107-.262-.086-.267-.062-.267-.032-.268-.01-.277.02-.257.041-.271.073-.255.094-.237.117-.26.161-.111.069-.091.086-.217.204-.19.218-.085.097-18.443 25.979c-.713 1.005-.665 2.31.01 3.261.267.485.676.898 1.209 1.164.747.373 18.543 9.14 38.936 9.14 20.492 0 36.277-9.11 36.939-9.497l.04-.029.069-.038.172-.138.224-.18.186-.204.176-.212.146-.241zm-57.558-18.875l-1.316-1.495 1.599-2.253 1.264 1.649-1.547 2.099zm30.864-8.627l-2.179-4.047-.083-.123-.166-.245-.192-.224-.098-.114-.088-.068-.239-.185-.22-.144-.244-.121-.258-.105-.253-.068-.271-.054-.271-.019-.266-.001-.274.033-.268.052-.251.081-.279.116-.103.043-.125.084-.244.165-.225.193-.113.097-3.033 3.186-2.503-3.829 6.549-9.581 7.841 12.087-2.144 2.791z"/></g></svg>