<svg xmlns="http://www.w3.org/2000/svg" width="384" height="550"><g><path fill="#fff" d="M138.587 225.005c-1.804-.09-3.607.09-4.689-.632-1.443.09-2.254-.18-2.976-.631-.541-.632-.361-1.443-.541-2.074-.271-.631-.541-.811-.992-1.262-.992-1.082-1.983-2.434-3.066-3.516-1.262-.271-2.434-1.262-3.787-1.713-.722-.271-1.894-.271-2.705-.451-.271-.09-.541-.361-.632-.45-.45 0-.992.089-1.443 0-.27 0-.541-.18-.811-.361-.361 0-.722 0-.992-.09-.361-.09-.722-.18-.992-.18-.631 0-1.082.451-1.713.541-.631.09-1.262-.09-1.803 0-.451.09-.902.27-1.443.541-.361.09-.902.09-1.262.271-.992.361-1.623 1.172-2.706 1.172-1.262.992-2.164 2.434-3.246 3.697-.09 1.622-.09 3.516 1.082 4.418.271.089.541.089.992.27.992.451 1.713.992 2.976 1.352l1.262.18c.722.09 1.533.541 2.074.632.901.09 1.894-.09 2.705 0 1.353.09 2.525.451 3.787.631.632.18 1.262.18 1.894.271.722.09 1.172.451 1.713.451.541.09 1.082 0 1.533 0 .09 0 .09.18.361.18.18 0 .27-.18.811-.18.992.18 1.984.992 3.066.721.721.541 1.804.722 3.156.722.721.631 1.623.811 2.525 1.172.721.451 1.443.992 2.344 1.443.632.271 1.262.451 1.894.812.18 0 .18.27.271.36.631.361 1.804.992 2.344 1.623.18.271.18.632.541 1.082 0 .09.18.18.361.271l.09.451.631.901c.541.812.992 1.804 1.352 2.885.451 1.083.992 1.894 1.262 3.517v1.984c.09 1.803.18 3.155-.992 4.327-.271.812.271.812.271 1.533-.812.722-.541 1.804-1.083 2.706-.45 1.082-2.073 1.713-2.073 3.336-.992.722-1.984 1.533-2.525 2.705-.992.271-1.262.812-1.984 1.443-.811.541-1.713.902-2.976 1.533l-.09.361c-.45.18-.992.271-1.443.541-.361.09-.451.18-.541.27-.812.361-1.804.541-2.525.902-.541.09-1.172.361-1.803.631-.541.09-1.083.09-1.984.18-.722 0-1.984.451-3.337.451-.811.09-1.804-.09-2.795-.09-.721 0-1.443.09-2.254.09-.451 0-1.172-.361-1.804-.361l-1.623.271c-.541-.09-1.082-.361-1.443-.541-.901-.36-2.615-.089-3.427-.54-.27-.09-.45-.451-.721-.451-.721-.271-1.443-.09-2.074-.451-.36-.09-.811-.36-1.262-.631-.27-.09-.811-.271-1.172-.451l-1.443-1.352c-.451-.18-1.082-.18-1.533-.541-.541-.18-.901-.901-1.262-1.262-.271-.18-.451-.18-.541-.27-.901-.541-1.443-1.713-2.164-2.616l-1.443-1.353c-1.082-1.353-1.623-3.336-2.434-4.509-.09-1.082.992-1.082.992-2.073-.361-.632-1.082.271-1.533-.271-.451-1.443-.361-3.427-.541-5.139.722-.902 1.533-.541 2.345-.541.36 0 .45.18.631.18.361 0 .361-.18.541-.18.451.09.811.271 1.172.271.541 0 .901-.18 1.353-.271.902-.09 3.427-.271 3.878.18.18.09.18.361.27.451.09.089.361.27.451.27.18.722-.18 1.353 0 2.345 0 .18.361.631.451.901.18.361.27.632.541.992.09.361.361.541.632.812.18.361.271.811.541.992.631.992 1.713 2.074 2.795 2.705.18.18.18.09.45.18.09.18.271.271.361.361.361.361 1.353.361 1.894.541.36.09.901.36 1.353.45.721.271 1.713.541 2.705 1.082 1.082-.36 2.073.271 3.066.541.36 0 .45-.271.541-.271.451 0 1.083.271 1.713.361.361 0 1.443-.361 2.164-.541 1.172-.09 2.164-.27 3.336-.45 1.173-.361 1.984-.541 3.066-1.082.541-.18 1.082-.18 1.443-.451.271-.09.451-.271.632-.541 1.443-.901 3.066-2.073 3.787-3.877-.18-.901.271-1.894 0-2.976-.09-.451-.541-1.082-.811-1.533-.271-.271-.451-.541-.902-.811-.541-.361-1.172-.722-1.803-1.173l-.992-.45c-.631-.18-1.983-.361-3.246-.541-1.263-.18-2.345-.541-3.968-.811-.541-.18-.901-.271-1.443-.361-1.262-.18-2.434-.18-3.516-.361-.361-.09-.902-.361-1.443-.541l-1.804-.09-1.623-.722c-.541-.09-.992.09-1.443 0-.992-.09-1.984-.721-2.976-.451-.541-.27-.992-.631-1.533-.811-.631-.271-1.533-.18-2.164-.361-1.172-.361-1.984-1.262-3.246-1.172-.361-.361-.632-.722-1.172-.992-.271-.18-.812-.541-1.262-.812-.271-.271-.632-.36-.812-.541-.271-.271-.721-.812-.901-1.173-.09-.18-.361-.36-.541-.721-.45-.722-1.172-1.804-1.623-2.615-.18-.361-.18-.812-.27-.992-.451-.721-.812-1.533-1.083-2.705-.18-.721-.45-1.623-.45-2.073 0-.361.27-.992.27-1.713l-.18-1.804c.09-.45.18-.721.36-1.262.09-.541.09-1.262.18-1.533.18-.541.722-.811.992-1.353.271-.541.451-1.172.722-1.623.09-.361.541-.541.722-.901.18-.09.18-.18.27-.271.541-.541 1.172-1.713 1.804-2.434.451-.361.992-.722 1.533-1.173.451-.36.811-.811 1.353-1.172 1.082-.631 2.434-.992 3.156-1.983 1.623.09 2.525-.541 3.516-1.262.812-.361 1.623-.812 2.796-1.173.45 0 .901-.18 1.172-.27.811-.09 1.353.089 2.073-.09.541-.271.632 0 1.353 0 1.533 0 3.337-.361 5.23 0 .36 0 1.082.18 1.443.27.811.271 1.533.451 2.795.632 1.172.271 1.893.361 2.705.632 1.623.811 3.697 1.532 5.32 2.434.271.18.451.541.812.631.45.18.901.18 1.082.451l.451.271c.089.09.27.361.631.451 0 .09.271.18.271.18.451.451.721 1.083 1.262 1.713.361.541 1.172.902 1.443 1.352l.541 1.443c.541.992 1.623 1.623 2.164 2.525.09.45.18.992.361 1.353l.271.541v.812l.541 1.172.09 1.443c.271.901.902 1.533.541 2.434-.543.719-1.715.358-2.797.267z"/><path fill="#fff" d="M163.071 208.054c.205.992.613 2.434.954 3.516.205.451.205.812.341 1.443.068.271.273.722.408.992 0 .36 0 .992.068 1.352.136.45.136.901.205 1.262l1.022 1.983c.068.632.068 1.263.205 1.894.205.992.477 1.894.818 3.066.136.451.136 1.082.205 1.533l.954 1.984c.205.541.205 1.262.477 1.803.205 1.173.408 2.164.749 3.156.205.541.205 1.533.409 2.255.204.992.818 1.713.749 2.795.954.992.749 2.976 1.158 4.328.341.901.749 1.623 1.09 2.164.613 0 .954-.992 1.158-1.713.205-.721.408-1.983.545-2.976.068-.811.409-1.352.273-2.073.205-.541.545-.992.682-1.533l.068-1.894.205-.361c.341-.992.682-2.254 1.09-2.975-.136-1.263.205-1.984.409-2.796.205-.901.205-1.442.409-2.254 0-.18.136-.361.136-.632.341-1.262 1.295-2.795 1.84-3.877.068-.721-.273-.901-.136-1.623.408-.992.545-1.893.749-2.885.205-.631.409-.901.545-1.443.204-.541.204-1.172.272-1.533.136-.631.341-.901.545-1.443.341-1.443.545-3.065 1.227-4.328 0-1.713.477-2.705 1.363-3.246 2.521.09 5.11 0 7.564 0 1.294.721 1.158 3.606 2.248 4.778-.136.992.273 1.713.477 2.345 0 .36 0 .721.136.992.205.901.613 1.713.954 2.525l.341 1.443c.068.451.068.992.272 1.443.273.541.545 1.082.75 1.713.273.632.341 1.533.545 2.254.205.632.409 1.263.75 1.804-.068.992.408 1.804.749 2.705.136.541.341.902.545 1.353.068.541.068 1.263.205 1.713.341 1.533 1.09 3.246 1.636 4.779 0 .18 0 .451.068.721.136.451.408.992.613 1.713.273.361.136.992.341 1.353l.545.902.341 2.795c.205.721.409 1.443.954 1.804.545-.361.545-1.533.749-2.525l.273-.721c0-.271.136-.361.136-.722.205-1.082.341-1.893.545-2.885.204-.901.408-1.893.613-2.885.136-.361.136-.992.341-1.352.068-.541.545-.992.749-1.713.205-.541.068-1.262.205-1.803.205-.722.613-1.173.408-1.894.341-.541.614-.992.886-1.623.068-.721 0-1.713.204-2.434.068-.271.273-.722.409-1.083.136-.36.341-.631.341-.901.205-.721.068-1.713.273-2.344.136-.451.477-.902.545-1.262.341-1.352.341-2.976 1.158-3.878-.205-.721.341-1.353.545-2.254.136-.722.205-1.533.409-2.255 0-.27.273-.541.341-.811.205-.811.545-2.525 1.09-2.795.613-.451 1.022.09 1.771.271.682 0 1.09-.992 1.704-1.172.749-.09 1.499.18 2.248.18.75 0 1.431-.27 2.045-.18.613.18 1.09.45 1.362.992 0 2.434-.613 3.787-1.362 5.23-.136 1.713-.545 2.976-.954 4.328-.341 1.353-.682 2.705-1.158 3.878-.205.541.068.811 0 1.533-.205.27-.341.541-.545.992-.205.271-.136.992-.341 1.713-.34.631-.954 1.262-1.09 2.073-.204.541-.068 1.262-.204 1.984-.068 1.082-.273 2.254-.614 3.336-.341.992-.749 2.255-.749 3.878-.614.811-.614 2.073-.954 3.066l-.341 1.262c-.205.271-.273.721-.409.992-.136.451-.136.992-.136 1.443-.068.361-.273.632-.409 1.082-.205.722-.068 1.533-.614 1.984 0 .721 0 1.262-.34 1.533-.341.992-.545 2.164-.75 2.976-.272.992-.613 1.983-.613 3.246-.341.45-.545 1.172-.886 1.533.136 1.983-.409 3.426-1.022 4.688-.205 2.074-.886 3.607-1.499 5.23-.205 1.082.273 1.983 0 2.795-1.09 1.262-2.862.811-4.497.811-.545 0-1.022.451-1.567.271-.682 0-1.431-.541-1.84-.811-.408-.722-.408-1.533-.545-2.435-.205-.901-.545-1.804-.818-2.885 0-.271-.136-.45-.136-.631-.205-.541-.273-1.353-.614-2.255-.136-.271-.408-.36-.545-.811-.136-.18 0-.451 0-.722 0-.09-.205-.271-.341-.271l-.273-1.983c-.136-.271-.136-.722-.136-.992-.205-.541-.545-1.083-.75-1.533-.341-1.083-.341-2.255-.749-3.337-.068-.361-.273-.632-.409-.901l-.545-2.074-.341-.901c-.068-.361-.068-.812-.205-1.262-.068-.722-.477-1.353-.749-1.984-.205-.812-.409-1.533-.613-2.255-.205-.811-.409-1.532-.614-2.254-.341-1.262-.477-2.344-.954-3.337-.273-.271-.477-.541-.545-.901-.136-.271-.136-1.352-.204-1.894-.273-.992-.545-1.983-.955-2.976l-.477-.45c-.273-1.083-.545-2.525-1.227-3.337-1.09.631-.681 2.795-1.022 4.148 0 .361-.273.901-.477 1.172-.136.451-.204.812-.545 1.082 0 .722-.136 1.353-.341 1.894-.068.09-.34.361-.34.361l-.273 2.615c-.136.361-.409.812-.545 1.262-.408 1.262-.886 2.615-1.158 4.238-.34.812-.408 1.894-.749 2.885-.136.451-.341.722-.545 1.172 0 .271 0 .722-.136.812 0 .271-.205.271-.205.632l-.068 1.893c-.205.632-.545 1.172-.749 1.894-.205 1.082-.409 1.804-.75 2.976-.34.901-.34 2.073-.954 2.795-.136.721 0 1.353-.205 2.073-.204.722-.749 1.263-.954 2.164l-.272 1.623c-.068.361-.205.45-.273.721-.341 1.173-.341 2.705-.886 3.968-.614.45-1.363.541-2.249.721-.818.09-1.158 0-2.112-.18-.75-.09-1.568.18-2.113-.09 0-.18-.136-.45-.136-.45-.954-.541-1.158-2.976-1.977-3.968 0-1.082-.204-2.073-.681-3.336-.068-.451-.545-.992-.613-1.533l-.136-1.443c-.068-.271-.273-.541-.409-.992-.068-.541-.205-1.172-.545-1.713-.068-.361-.409-1.263-.205-2.074.136-.541-.409-.722-.545-1.172-.068-.271-.068-.722-.272-1.082-.136-.451-.205-.902-.341-1.263-.341-.631-.409-1.443-.614-2.434-.136-.451-.34-.721-.477-.992l-.477-2.525c-.272-.722-.545-1.263-.749-2.074-.273-.722-.341-1.623-.545-2.254-.204-.451-.545-.902-.749-1.263-.205-.721-.205-1.622-.34-2.164-.409-1.713-1.091-3.517-1.704-5.23 0-.541 0-.992-.205-1.263-.136-.541-.408-1.082-.613-1.713l-.273-1.804c-.068-.451-.205-.812-.409-1.262-.204-.812-.749-1.804-.954-2.705-.068-.541.136-1.353-.068-2.074-.136-.541-.681-1.262-.886-1.984-.341-.811-.341-1.803-.545-2.705-.068-.36-.273-.811-.409-1.262l-.545-.992-.068-1.623-.341-.992c0-.361 0-.722-.136-.992-.068-.631-.613-.901-.477-1.713.068-.812.955-1.533 1.568-1.804.613-.18 1.363.09 2.249.271 1.908 0 4.225-.271 5.519.27.683 1.081.751 2.343 1.092 3.786zm5.383 30.837c0 .722 0 1.443.477 1.623 1.022-2.254-1.704-2.164-1.636-4.418h-.273c-.272.541 0 1.804.205 2.435.41.091.955.091 1.227.36zm1.432 13.436c0-1.443-1.431-.451-.886.451.545.09.681-.361.886-.451zm2.861 6.222c.136-.992-.341-1.443-.613-1.713-.477.271-.341 1.533 0 1.984.272.09.409-.271.613-.271z"/><path fill="#fff" d="M236.702 204.537c1.983-.631 4.238-.631 6.221-.811.812 0 1.984-.09 2.345-.09.721.09 1.443.631 2.254.721.541 0 1.352-.45 2.074-.631.271 0 .361.271.45.271.271 0 .451-.271.541-.271 1.623 0 2.885.271 4.238.271.812 0 1.713-.271 2.705-.271 1.353.18 2.705.541 4.058.45l2.976-.45 2.525.45c.631 0 1.262-.27 1.893-.45.541 0 1.173.271 1.804.271.632-.09 1.172-.361 1.623-.361 1.082 0 2.254.271 3.337.09.992 0 2.615-.09 3.516-.09.361.271.812.541 1.353.721.992-.18 1.804-.631 3.066-.631 1.623 0 3.337.45 4.96.631 1.713 1.623 1.533 3.788 1.533 6.312-.18.901-.271 1.894-.271 2.615 0 .541.451.992.451 1.353.18.451-.09.541-.09.812v.992l.09 9.558c.18.992.27 1.984.27 2.795-.09.632-.45 1.263-.45 1.894-.18.451 0 1.082 0 1.713-.18.541-.271 1.082-.271 1.533 0 .811.271 1.713.361 2.615 0 .541-.09 1.082 0 1.533 0 .451.36.901.36 1.262l-.27 1.894c0 1.713.18 3.787 0 5.681v5.681c0 .811-.09 1.533-.09 2.164 0 .722.27 1.443.36 2.074v2.615c-.09.722-.36 1.623-.36 2.345 0 1.533.631 3.246-.722 4.328-.721.27-1.623.541-2.344.631-.902 0-1.804-.361-2.615-.361-.632 0-1.263.09-1.984.09-2.164 0-4.148.18-5.951.271l-2.885.271c-1.623.09-3.427 0-4.328 0-.451.09-.992.09-1.443 0l-2.885-.541-2.254.541c-1.443.271-3.246 0-4.869 0-1.443 0-2.976.361-4.328-.18-.992.541-2.164.18-3.066.18l-1.262.271c-.632-.18-1.082-.451-1.713-.451l-2.344.451c-.541 0-1.172-.271-1.623-.271-1.623 0-3.517.271-4.96.271-1.893-.18-3.606-.18-4.328-.541-.27-.271-.992-1.082-1.172-1.262-.451-1.443.451-3.156.451-5.049 0-.902-.451-1.623-.451-2.345 0-.361.271-.721.451-1.172.09-.451 0-.812.361-1.082 1.622-.451 4.418-.632 6.041 0 .902-.271 1.533-.451 2.345-.632l2.525.361 1.353-.09c5.41-.271 11.361-.09 16.141-.271 1.352 0 2.705.271 4.148.271.811 0 1.623-.09 2.434-.271.812 0 1.533-.271 2.435-.271.631-.09 1.353.18 1.983.18.722 0 1.353-.361 1.984-.361.901 0 1.623.451 2.344 0 1.353-1.353.541-3.606.361-5.59l.271-1.713c-.09-.631-.271-1.262-.271-1.893 0-1.894.541-3.967-.361-5.23-1.983-.631-3.606.18-5.32.541-.632-.271-1.352-.361-2.074-.541l-1.893.271c-.451-.09-.992-.36-1.623-.36-.271 0-.632.089-.992.089h-.992c-3.606 0-6.221-.089-9.197-.089-.632 0-1.173.089-1.713.089-.632 0-1.262-.089-1.713-.089-2.164 0-4.238.992-6.492.36-.361-.36-.361-.631-.451-1.082-.18-.451 0-1.172 0-1.443-.18-.992-.271-2.074-.271-3.066 0-2.254-.451-4.689.541-5.951 1.533-.721 3.336-.09 5.049-.09 2.615-.18 5.41-.27 8.295-.18 1.353 0 2.705 0 4.238.18 1.353 0 2.885-.18 4.328-.18h6.854c1.353-.089 2.795.361 3.787-.631.18-1.984.18-3.967.271-5.771l-.271-2.525c0-.361.271-.451.361-.812.271-1.443.18-2.795 0-3.787-1.172-1.082-2.795-.361-4.328-.18-.18 0-.451-.18-.812-.18l-.901.18c-.451 0-.992-.271-1.623-.451-.271 0-.631.271-.992.271s-.812-.271-1.262-.271c-.722.18-1.533.271-2.345.271h-8.295c-2.074 0-3.967.18-5.23-.361-2.164.902-5.681.361-9.107.361-1.894 0-6.402.632-7.394 0-.451-.361-.541-1.082-.811-1.984-.271-.811-.541-1.443-.541-2.254 0-.811.271-.992.361-1.443l.18-1.984c.264-1.086.805-1.988 1.347-2.709zm50.585 51.307c.721-.09.721-.902.721-1.623h-.451c-.18.54-.631 1.172-.27 1.623z"/><path fill="#fff" d="M110.183 341.784c-.451.271-.902.722-1.443.722-.992.18-1.984-.722-2.976-.722-.722 0-1.623.451-2.435.541-1.353.18-2.795-.271-4.328-.09l-2.164.271c-.451 0-1.082-.18-1.713-.18-1.623-.09-3.337 0-4.328-.992-.271-1.713 0-3.337 0-4.96 0-1.623-.271-3.337-.09-5.05v-6.041c-.18-1.533-.18-2.976-.271-4.689l-.18-1.443s.271-1.172.451-1.713c0-.541-.271-1.172-.271-1.894 0-1.172.271-2.434.271-3.697 0-1.262-.18-2.615 0-3.697 0-.632.271-1.173.271-1.894l-.18-1.984v-2.164c-.09-.541-.271-1.172-.361-1.894 0-.541.09-1.172.271-1.713l.09-2.976c0-.18-.271-.631-.09-.901l.271-1.533c0-1.172-.18-2.344-.18-3.606v-1.984c0-.632-.271-1.172-.09-1.713 0-.632.361-1.623.541-2.615.271-1.443-.18-1.984.721-2.615.451-.271 1.172-.361 1.713-.361.451.09.901.541 1.443.541.901 0 1.713-.451 2.434-.541.722 0 1.443.09 2.164.271 3.156.09 6.853-.18 10.009 0h2.073c.541-.18 1.263-.271 1.804-.271.541.09 1.172.361 1.713.361l4.599-.541c1.443 0 2.885.541 4.238.541.901 0 1.804-.271 2.615-.09.722 0 1.353.271 1.894.361.811.36 2.254.45 3.156.721 1.262.451 2.615 1.172 4.058 1.894 3.516 1.713 6.311 4.598 8.656 7.754.45.541 1.172.992 1.172 2.164.721.541 1.713 1.172 2.164 1.983.09.271.09.902.271 1.263.722 1.622 1.353 3.336 1.894 5.049 0 .18-.18.451 0 .722 0 .18.541.901.541 1.262.18.271 0 .901 0 1.262.18.361.45.631.45.901s-.18.722-.18 1.172c-.09.722.18 2.435.18 3.607-.18 1.984-.271 4.058-.541 6.132 0 .901 0 1.533-.18 2.164 0 .271-.451.722-.541 1.082-.271.992-.271 1.894-.811 2.705-.09.361-.541.541-.541.902-.271.631-.18 1.713-.451 2.615-.09.451-.541 1.082-.992 1.713-.361.541-.811.992-1.262 1.533-.18.271-.451.451-.541.721-.271.271-.18.722-.45.902-.18.27-.722.721-.992.992-.18.18-.18.451-.18.541l-.811.45-1.443 1.443c-.18.18-.451.18-.721.451-.632.361-.992 1.262-1.623 1.804l-.992.721c-.27.271-.541.541-.811.902-.451.27-.992.27-1.623.631-.361.09-.992.541-1.353.812-.451.18-.901.18-1.533.27-.451.18-.811.451-1.262.541l-1.713.18c-.541.18-.992.451-1.443.541-.541 0-1.262-.09-1.804 0-1.533.18-2.885.992-4.509 1.172-1.082.18-2.795-.451-4.328-.271-1.262 0-2.525.451-3.516.271-1.443-.271-1.443-.992-2.705-1.713-.545.183-.906.544-1.176.994zm-15.419-52.028h-.631c0 .541 0 1.172.271 1.262.63-.27.45-.811.36-1.262zm11.091 41.298l1.443-.451c.45 0 .992.271 1.533.271.45-.18 1.082-.271 1.532-.271.722.09 1.263.451 1.984.451l2.164-.18c.811-.18 1.532.18 2.344.18h4.238c1.082 0 2.434-.361 3.066-.18.451 0 .721.18 1.082.18.541-.18 1.533-.902 2.434-1.083.541-.27 1.263-.27 1.533-.36 1.353-.632 1.894-1.894 3.156-2.345.451-1.082 1.443-1.533 2.345-2.344.09-1.172.541-1.804 1.172-2.525.271-.271.631-.451.811-.812.18-.18 0-.45 0-.721 0 0 .271-.18.451-.271.361-1.172.361-2.164.811-3.607.18-.811.632-1.622.722-2.344.18-1.533 0-3.337 0-4.779 0-.901.18-1.443.18-2.164-.18-1.172-.902-3.156-1.353-4.328-.09-.541-.09-1.172-.271-1.533l-.271-.18c-.09-.09-.09-.451-.271-.541-.271-.721-.721-1.172-.992-1.622-.18-.271-.18-.722-.271-.992-.18-.18-.451-.45-.631-.541-.361-.632-1.083-1.623-1.444-1.894-.089-.18-.721-.271-1.172-.541-.36-.18-.811-.721-1.082-.901-.451-.09-.992-.271-1.713-.451-.18-.09-.45-.271-.721-.361-1.894-.901-2.976-1.893-4.869-1.622-.992.36-2.434.36-3.606 0-.541-.09-1.083-.361-1.713-.361-.722-.09-1.262.271-2.164.271l-3.426-.541-2.976.541c-.722 0-1.443-.541-2.435-.632-1.622-.18-3.065.09-4.598.361-.722 1.262-.09 2.976-.451 4.509 0 .901-.361 1.262-.361 1.983 0 .632.361 1.173.361 1.623 0 .18-.09.722-.09.992v1.983l.09 1.172c0 .992-.09 2.164-.09 2.976l.09 1.083-.271 2.525c0 1.713.451 3.246.18 4.869l-.541 1.623c0 .541.361 1.083.361 1.713 0 .09-.09.361-.09.722-.09 1.352.271 2.705.271 3.877 0 1.082-.271 2.434-.271 3.697-.09 1.173-.271 2.525.361 3.697.632.18.992 0 1.623 0l1.806.179z"/><path fill="#fff" d="M213.968 282.452l.18 1.984c.09.451.361.632.361 1.443s-.271 1.443-.541 2.254c-.27.902-.36 1.623-.811 1.984-.992.632-5.5 0-7.394 0-3.427 0-6.943.541-9.107-.361-1.262.541-3.155.361-5.23.361h-8.295c-.812 0-1.623-.09-2.345-.271-.45 0-.901.271-1.262.271s-.721-.271-.992-.271c-.632.18-1.172.451-1.623.451l-.901-.18c-.361 0-.632.18-.812.18-1.533-.18-3.156-.901-4.328.18-.18.992-.271 2.344 0 3.787.09.361.361.451.361.812l-.271 2.525c.09 1.804.09 3.787.271 5.771.992.992 2.434.541 3.787.631h6.854c1.443 0 2.976.18 4.328.18 1.533-.18 2.885-.18 4.238-.18 2.885-.089 5.681 0 8.295.18 1.713 0 3.516-.631 5.049.09.992 1.262.541 3.697.541 5.951 0 .992-.09 2.074-.271 3.066 0 .271.18.992 0 1.443-.09.451-.09.722-.451 1.082-2.254.632-4.327-.36-6.492-.36-.451 0-1.082.089-1.713.089-.541 0-1.082-.089-1.713-.089-2.976 0-5.59.089-9.197.089h-.992c-.36 0-.721-.089-.992-.089-.631 0-1.172.27-1.623.36l-1.893-.271c-.722.18-1.443.271-2.074.541-1.713-.361-3.337-1.172-5.32-.541-.902 1.263-.361 3.337-.361 5.23 0 .631-.18 1.262-.271 1.893l.271 1.713c-.18 1.984-.992 4.238.361 5.59.721.451 1.443 0 2.344 0 .632 0 1.262.361 1.984.361.631 0 1.353-.271 1.983-.18.902 0 1.623.271 2.435.271.811.18 1.623.271 2.434.271 1.443 0 2.795-.271 4.148-.271 4.779.18 10.731 0 16.141.271l1.352.09 2.525-.361c.812.18 1.443.361 2.345.632 1.622-.632 4.418-.451 6.041 0 .361.27.271.631.361 1.082.18.451.451.811.451 1.172 0 .722-.451 1.443-.451 2.345 0 1.893.902 3.606.451 5.049-.18.18-.902.992-1.172 1.262-.722.361-2.435.361-4.328.541-1.443 0-3.337-.271-4.96-.271-.451 0-1.082.271-1.623.271l-2.344-.451c-.632 0-1.082.271-1.713.451l-1.262-.271c-.902 0-2.074.361-3.066-.18-1.353.541-2.885.18-4.328.18-1.623 0-3.427.271-4.87 0l-2.254-.541-2.885.541c-.451.09-.992.09-1.443 0-.901 0-2.705.09-4.328 0l-2.885-.271c-1.804-.09-3.787-.271-5.951-.271-.721 0-1.352-.09-1.984-.09-.811 0-1.713.361-2.615.361-.721-.09-1.623-.361-2.344-.631-1.353-1.083-.722-2.795-.722-4.328 0-.722-.27-1.623-.36-2.345v-2.615c.09-.632.36-1.353.36-2.074 0-.631-.09-1.353-.09-2.164v-5.681c-.18-1.894 0-3.967 0-5.681l-.27-1.894c0-.361.36-.811.36-1.262.09-.451 0-.992 0-1.533.09-.901.361-1.804.361-2.615 0-.451-.09-.992-.271-1.533 0-.632.18-1.262 0-1.713 0-.631-.36-1.262-.45-1.894 0-.811.09-1.803.27-2.795l.09-9.558v-.992c0-.271-.27-.361-.09-.812 0-.36.451-.811.451-1.353 0-.721-.09-1.713-.271-2.615 0-2.525-.18-4.689 1.533-6.312 1.623-.18 3.337-.631 4.96-.631 1.262 0 2.073.45 3.066.631.541-.18.992-.45 1.352-.721.901 0 2.525.09 3.516.09 1.083.18 2.255-.09 3.337-.09.451 0 .992.271 1.623.361.631 0 1.262-.271 1.804-.271.631.18 1.262.45 1.893.45l2.525-.45 2.976.45c1.353.09 2.705-.27 4.058-.45.992 0 1.893.271 2.705.271 1.353 0 2.615-.271 4.238-.271.09 0 .271.271.541.271.089 0 .18-.271.45-.271.722.18 1.533.631 2.074.631.811-.09 1.533-.631 2.254-.721.361 0 1.533.09 2.345.09 1.983.18 4.238.18 6.221.811.539.726 1.08 1.627 1.35 2.709zm-52.208 46.979h-.451c0 .721 0 1.533.721 1.623.361-.451-.091-1.083-.27-1.623z"/><path fill="#fff" d="M259.727 295.797l.09 1.353c.721.812 1.353 1.533 2.164 2.255.632.811 1.713 1.443 2.255 2.164.18.18.271.632.541 1.082.541.722 1.353 1.713 2.074 2.616.361 1.172.992 2.164 2.074 2.525.36.992 1.082 1.713 1.622 2.525.18.451.361.811.632 1.262.271.18.541.09.811.361.09.09.09.18.09.271.18.271.271.631.541 1.082.09.271.361.361.541.541.27.45.36 1.082.721 1.533.451.811 1.082 1.443 1.713 2.164.541.632 1.082 1.623 1.984 1.894.631-1.082.089-2.255.18-3.337 0-3.606.09-7.484.09-11.361l-.09-2.074-.45-1.803c0-.902.09-1.713.271-2.616.089-.721.27-1.622.27-2.434l-.27-3.156c0-1.172.18-2.434.18-3.516-.09-.902-.45-1.894-.45-2.795l.45-2.074c-.09-.721-.45-1.262-.45-1.894 0-.992.541-1.893.541-2.705 1.804-.811 4.328-.271 6.493-.09.721 0 1.623-.36 2.164-.27.361.089.902.541 1.353.811.541.18.992.271 1.173.632 0 1.353-.18 2.525-.09 4.148 0 .45.18 1.082.09 1.623l-.271 1.532.541 6.583-.27 1.894c0 1.533.45 2.976-.271 4.509-.18.631.271.992.271 1.622l-.271 1.443c0 .632.271 1.173.541 1.894-.541 1.623-.36 3.787-.27 6.042.09.271.27.811.27 1.082l-.36 1.623c0 .361.09.722.09 1.172 0 .451-.18.812-.09 1.262l.36 1.713c.09 1.804-.18 4.418 0 5.861 0 .271.09.632.18.901 0 .361-.18.812-.18 1.083.09 2.525 0 6.492 0 9.197 0 .361-.27.632-.27 1.083.09.811.45 1.713.45 2.525-.09.901-.18 1.443-.721 2.164-.902.361-1.623.18-2.615 0-1.623-.45-3.337.541-5.591.361-.992-.18-1.532-.721-2.434-.811-1.262-1.173-2.073-2.795-3.246-4.149-.45-.541-.811-.992-1.172-1.532l-.36-.18c-.361-.812-.812-1.713-1.713-2.074-.361-1.804-1.984-3.246-2.976-4.418-1.262-1.262-2.435-2.615-3.337-3.877-.271-.18-.451-.271-.541-.541-.18-.18 0-.541-.27-.631l-.812-.992c-.451-.631-.901-1.353-1.443-1.983-.541-.812-1.262-1.353-1.713-1.984-.631-.992-1.082-2.254-1.893-3.066-.361-.45-.722-.721-1.083-1.082-.27-.361-.631-1.172-.992-1.623-.18-.09-.451-.271-.541-.361-.361-.27-.541-.992-.902-1.353-.361-.45-.901-.811-1.262-1.172-.09-.271 0-.451-.18-.541-.271-.451-.451-.902-.901-1.353-.09-.09-.09-.45-.271-.631-.271-.271-.722-.451-.901-.722-.451-.541-.632-1.353-1.173-1.983-.18-.09-.45-.18-.541-.271s-.09-.361-.18-.541c-.451-.541-.902-1.172-1.623-1.533-.451-1.353-1.353-2.615-2.074-3.787-.36-.361-.631-1.172-1.082-1.713-.45-.541-.811-1.172-1.623-1.172 0 1.262-.09 2.795-.09 4.328 0 .722.18 1.172.09 1.804 0 .901-.811 1.713-.45 2.795 0 .09.36.18.36.361.09.27.09.811.09 1.172.361 1.353.632 3.246.271 4.688-.271 1.083 0 2.885 0 4.418l-.271 3.337c0 .812.271 1.443.271 2.164l-.361 2.073c-.09 1.172.361 2.345.361 3.517 0 .45-.18.992-.271 1.533l.271 4.058-.271 1.713c0 2.705 1.083 5.681-.271 8.295-2.525.541-5.41-.09-7.844 0-1.082 0-2.074.541-3.066.09-.632-.632-.451-1.623-.541-2.434v-2.796c.09-3.065.361-5.951.451-8.926 0-1.894-.451-3.697-.451-5.411 0-.992.09-1.893.271-2.795.09-.631.271-1.172.271-1.803 0-.541-.271-1.173-.271-1.804-.18-.901.09-1.623.18-2.525 0-.812-.18-1.713-.18-2.435 0-.36.271-.811.271-1.082.271-.992.361-2.434.271-3.427-.18-1.533-.902-3.065.09-4.418-.361-2.525.271-4.959-.451-7.033.632-1.172.451-2.254.361-4.058 0 .09.09 0 .09-.09 0-.361-.361-1.082-.361-1.623l.361-2.254c.09-.451-.09-.992-.09-1.443 0-.812.271-1.804.271-2.705 0-1.082-.632-2.345-.18-3.427 1.082-1.172 2.976-.721 4.599-.811.541-.18 1.082-.271 1.983 0l.902.09c.631 0 1.082-.361 1.623-.361.631 0 1.262.361 2.164.361 2.164.18 2.795-.271 3.967.992.09.09.271.361.361.632.271.27.541.541.901 1.082.18.18.271.541.361.631.09.18.361.271.541.541l.09.722 1.352 1.442.271.09c0 .09-.09.271 0 .451l.36.09c.09.271.09.541.271.812.09.089.361.27.451.27 0 .09-.09.271 0 .271 0 .09.361.09.361.271.27.631.901 1.623 1.532 2.254.992 1.262 2.074 1.804 2.435 3.517.807.896 1.71 1.798 2.701 2.609zm-23.715 18.665c-.27.632-.18 1.623.722 1.443 0-.631-.09-1.352-.722-1.443zm3.878-20.378c-.722-.45-1.083 1.083-.361 1.083.541.09.271-.813.361-1.083zm-.18-2.795c.09.541-.271 1.443.541 1.353.089-.722-.181-1.263-.541-1.353zm6.852-1.082c-.721-.18-.721.811 0 .632.181-.362 0-.271 0-.632zm33.814 25.608c0 .722-.18 1.533.811 1.353.001-.722.001-1.534-.811-1.353zm4.148-.811c-.722 0-1.083.271-1.083.901.542.451 1.444.09 1.083-.901z"/></g></svg>