<svg xmlns="http://www.w3.org/2000/svg" width="384" height="550"><g><g fill="#fff"><path d="M50.049 264.995c-3.433 1.882-5.138 2.853-8.523 4.855l-3.79-6.409c8.431-4.987 17.1-9.572 25.968-13.732 1.265 2.696 1.897 4.044 3.161 6.741-3.499 1.642-5.239 2.492-8.697 4.253 6.299 12.376 12.598 24.752 18.896 37.129-2.814 1.433-4.213 2.171-6.992 3.695-6.674-12.177-13.349-24.354-20.023-36.532zM93.859 237.465c4.879-1.686 8.85-1.721 11.791-.247 2.576 1.291 4.348 3.664 5.348 7.073l2.008 6.845c.978 3.334.33 6.575-1.817 9.76 4.925 7.449 7.3 11.216 11.871 18.827-3.224.924-4.831 1.413-8.03 2.444-4.063-6.466-6.157-9.669-10.467-16.015l-.71.244c-1.819.628-2.726.951-4.536 1.611l6.343 17.377c-2.929 1.069-4.388 1.627-7.291 2.788l-18.225-45.6c5.449-2.178 8.193-3.199 13.715-5.107zm8.91 9.494c-.881-2.708-2.96-3.544-6.214-2.423-2.061.71-3.089 1.075-5.139 1.824 2.156 5.905 3.234 8.858 5.389 14.763 1.943-.709 2.917-1.055 4.87-1.729 1.284-.442 2.244-1.205 2.887-2.3.643-1.093.79-2.198.426-3.316-.888-2.726-1.332-4.091-2.219-6.819zM145.425 274.376c-3.031.583-4.543.897-7.559 1.572l-10.72-47.922c3.589-.803 5.389-1.177 8.995-1.871 3.095 16.074 6.19 32.148 9.284 48.221zM164.563 222.013c4.941 10.598 9.581 21.214 13.999 32.041l-1.891-32.975c3.653-.209 5.482-.287 9.138-.387.451 16.375.902 32.751 1.354 49.126-3.3.091-4.95.163-8.247.358-4.323-10.304-8.862-20.395-13.699-30.467l3.155 31.312c-3.062.308-4.591.485-7.645.884l-6.381-48.73c4.081-.533 6.124-.766 10.217-1.162zM210.296 270.217c-3.069-.19-4.605-.263-7.678-.362l1.584-49.08c3.656.118 5.484.204 9.136.431-1.013 16.337-2.028 32.674-3.042 49.011zM252.094 264.215c-.693 3.165-2.489 5.599-5.302 7.37-2.813 1.772-5.818 2.362-9.116 1.801-4.777-.813-7.173-1.163-11.975-1.75 1.991-16.26 3.983-32.521 5.975-48.781 5.716.7 8.568 1.116 14.253 2.084 3.955.673 7.103 2.454 9.358 5.262 2.254 2.809 2.987 5.8 2.299 8.939-2.196 10.03-3.295 15.044-5.492 25.075zm-17.657 1.224c1.89.289 2.833.441 4.719.764 1.24.212 2.358-.018 3.37-.696 1.01-.677 1.628-1.576 1.841-2.707 1.907-10.105 2.861-15.158 4.769-25.263.218-1.155-.078-2.235-.902-3.237-.823-1.001-1.925-1.624-3.294-1.857-2.128-.364-3.194-.537-5.327-.863-1.726 11.286-3.451 22.573-5.176 33.859zM276.107 271.137c-2.121 4.063-3.166 6.102-5.225 10.19-3.089-.958-4.639-1.413-7.75-2.273 7.189-15.049 14.884-29.857 23.063-44.392 4.853 1.52 7.268 2.331 12.069 4.057-2.295 16.515-5.127 32.955-8.495 49.284-3.054-1.215-4.589-1.797-7.671-2.911.848-4.495 1.257-6.747 2.044-11.257-3.201-1.131-4.808-1.67-8.035-2.698zm12.511-23.864c-3.718 6.92-5.538 10.398-9.095 17.387 2.348.76 3.519 1.153 5.853 1.966 1.38-7.72 2.029-11.591 3.242-19.353zM331.815 295.589c-1.649 2.788-4.15 4.518-7.435 5.285-3.287.769-6.396.351-9.43-1.252-4.396-2.322-6.615-3.426-11.091-5.523l20.838-44.51c5.327 2.495 7.969 3.81 13.201 6.574 3.64 1.923 6.158 4.646 7.492 8.059 1.333 3.413 1.129 6.506-.507 9.272-5.228 8.838-7.841 13.257-13.068 22.095zm-17.567-4.58c1.747.884 2.617 1.334 4.352 2.253 1.141.604 2.3.749 3.493.432 1.191-.317 2.07-.972 2.626-1.979l12.419-22.51c.568-1.029.612-2.154.118-3.376-.493-1.221-1.374-2.172-2.633-2.839-1.958-1.037-2.941-1.545-4.913-2.543-5.154 10.186-10.308 20.374-15.462 30.562z"/></g><path fill="#fff" d="M128.161 312.671l-.089 1.022-.356.979-.445.756-.401.445-1.424.134-.311-.134-.712.134h-2.135l-.712-.134-1.379.134-1.468-.089-.356.089-.401-.044-.311-.267-.179.223-.8.133-.756-.179-.534-.355.044-1.023.49-1.112.133-.712.49-.446.534-.312 1.201-.089 1.602.044 1.512.09.134-.09 1.469.09 1.334.089 1.334-.223 1.513.179.534.222.4.356.045.09zm-9.653 1.689l-.044-.177-.178-.089-.089.133.045.133h.266zm.801-.266l-.312.089-.044.089.222.312.134.044.178-.312.312-.267-.134-.489-.178-.089-.134.533-.044.09zm1.601-.401l.489.09v-.179l-.177-.222-.045-.357-.089-.044-.134.623-.044.089zm1.69-.311l.089.133v.579l.222.177.089-.044-.089-.267.222-.044.089-.133-.089-.134v-.266l-.445-.09-.088.089zm2.537 1.601l.311.089.134-.222.356-.134.222-.222-.089-.09-.445.09-.178-.223-.356.044v.623l.045.045z"/><path fill="#fff" d="M157.029 314.405l-.49.534-.356 1.424-.267 1.379-.134.712v1.424l-.044 1.335.044.756h.134l.044.712.178.622.935 1.068.533.49.579.266 1.512.223 1.424-.089 1.379-.312 1.156-.356v-.089h.223v-.09h.178l.49-.222.133-.223.712-.177.579-.356.089-.134h.222v-.133h.178l.223-.223.267-.089.222-.267.623-.4.089-.133.356-.133.89-.846h.134l1.023-1.112.934-1.068.534-.445.934-1.112.845-1.158.756-1.245.356-.445.267-.134h.267l.578.267.534.445.044.267.222.267.089.312-.134.533-.667 1.202-.267.489-.356.312-.089.312-.178.089-.178.312-.222.177v.179l-.223.222-.089.312-.89 1.023-1.023.979-.89 1.112-.978 1.023-1.113.889-1.112.935-.445.4h-.223l-.089.179-.667.489-.445.133-.134.134-.267.044-1.291.578-.312.134-.089.133-1.246.445-1.424.401-.49.044-.089-.089-1.424.177-.089-.089-1.379.089-.667.089-1.468-.266-.712-.179-1.246-.579-.356-.133-1.023-1.023-.49-.533-.222-.49-.178-.089v-.223l-.267-.266-.4-1.291-.267-.623-.177-.845h-.089l-.089-1.379-.044-1.468.044-1.379.223-1.379.222-1.335.134-.622.089-.09v-.31h.134v-.534l-.134-.356-.489-.445-1.246-.712-1.334-.579-.312-.133-.044-.089-.312-.134-.49-.533h-.177l-.935-.979-.978-1.068-.757-1.156-.667-1.112-.089-.623-.133-.089-.267-1.379-.178-1.379-.134-.667.134-1.379.044-.935.134-.089.178-.935.4-1.201.222-.177.223-.667.756-1.246.178-.489.178-.089.044-.267.223-.089v-.179l.978-.979 1.068-.978.756-.312.534.133.89 1.023.178.312.534.667.401.623v.177h.089l-.044.4-.134.044-.267.579-.579.4-.934 1.068-.667 1.245-.756 1.513-.044.622h-.089l-.044 1.469.089.712.401 1.334.623 1.246.979 1.023 1.068.979.089.177.267.044.534.445.356.134.49.044.623-.267.4-.578.445-1.424.178-.446.267-.266.223-.757.4-.934.089-.044.445-1.246.134-.133.089-.312.222-.223.312-.667.312-.312.445-.978.089-.356.267-.267.49-.712.089-.312.757-1.112.49-.579.8-1.112.89-1.112 1.023-1.023.49-.712.311-.089.401-.489.267-.134.222-.312.312-.089.089-.177.312-.134.356-.356.267-.089.133-.177.223-.046v-.133l.312-.089.177-.223.979-.312.134-.133.445-.134.267-.266 1.424-.267 1.29-.133 1.512-.046.712.134 1.023.356.312.222h.178l.4.357.312.133.978 1.068.401.4.044.267.222.089.044.312.356.667.401 1.201.178.356.089 1.379-.089 1.335-.089 1.424-.311 1.379-.49 1.334-.49 1.291-.222.712-.312.533-.49.579-.133.445-.179.09-.712.889v.179l-.4.312-.089.31-.49.534-.134.044-.133.312-.267.267-.267.133-.4.445-1.068.802-.978.712-.578.355-.445.401h-.178l-.222.31h-.178l-.089.179-.978.445-.579.356-1.201.445-.712.223-.089.134-1.29.31-1.424.267-1.424.223-1.379.133-1.424.133-.089-.044h-.091zm-9.075-4.004l.223.089.356-.222v-.09h-.401l-.178.134v.089zm3.826.712l.356.089.578-.356.089-.266-.267-.179h-.267l.045.134-.089.177-.445.267v.134zm.178 8.853v.177l.311.134.179-.089.044-.134-.267-.177h-.178l-.089.089zm.311-7.074v.223l.223.312.312-.134.133-.312.134-.089v-.177l-.089-.09v.09l-.133.089-.534.044-.046.044zm.401-.8l-.134-.356-.178-.044v.312l.222.089h.09zm4.048-4.716l.089.578-.178.223-.134-.134-.489-.133-.089-.133-.756.4-.178.312.044.177.356.356.134.267.534.044.044.133-.178.267-.044.312.134.267-.312.356.044.222.134.134-.045.133-.267.044-.134-.089.089-.312-.267-.222v-.312l-.089-.134-.178-.044-.178-.623h-.445l-.4-.445-.267-.044.134.356.712.49.267.489-.045.177-.712.712-.356.09v-.49h-.222l-.4.312v.089l.134.09.089.578.223.223h.356v-.49l.311.179.49-.089.044.089-.089.133-.178.046-.045.266-.756.446.044.845-.177.089h-.312l-.223.133.223.802-.312.089-.4-.089v.222l.089.134.49.222.267-.4.179-.089.489.089.356-.312.445.223h.311l.089-.489.312-.223-.267-.179h-.756l-.49.09-.133-.223.177-.312.267-.222.178-.046.222.267h.178l.045-.177-.134-.534.089-.177.045.177.267.312.445.044.311.312.757.134.311.222-.222-1.068.089-.312-.089-.312.312-.4.489.179.134-.044.089-.356-.044-.356-.089-.134.222-.222v-.356l-.312-.134v.49l-.712.445-.267-.044-.134-.267.044-.4h.089l-.089-.356.089-.089.312.177.267.356.134-.312-.134-.712.223-.177v-.134l-.134-.089-.757.089-.222-.177.445-.223.044-.4.267-.267.177-.356-.089-.312h-.4l-.045.043zm-4.226 8.764h.489l-.089-.4.134-.044.089-.267-.222-.089-.134.312-.222.177-.044.179v.132zm.088-4.627l.223-.044.177-.267-.356.046-.044.177v.088zm.49 6.05l-.044-.177-.356-.356-.045.133.134.312.178.089h.133zm-.178 1.38l.312-.133.089-.356-.4-.089-.089.177.044.312.044.089zm-.089 1.2l.311-.044.089-.222h-.267l-.133.177v.089zm.489 1.825l.134-.356-.044-.179-.089-.044-.178.312.045.223.132.044zm1.513-6.229l-.178-.267-.756-.356-.089.179-.49.445.089.089v.223l.311.179.49.044.401-.134.267.179h.178l.134-.223-.045-.177-.267-.134-.045-.047zm-1.424 7.163l.267.179.223-.044.177-.267.045-.4-.312-.044-.178.089-.222.4v.087zm.089-5.961l.134.089.356-.044.044-.134-.222-.222-.267.222-.045.089zm.134 1.69l.134.134.311.044.223-.223v-.133l-.312-.179-.312.134-.044.089v.134zm.489 1.735l-.312.4.312.223.178-.044.312-.4h.177l.045-.179h-.712zm.311 4.315l.179-.267v-.222l-.312-.089-.089.133v.223l.134.222h.088zm.312-4.938l-.133-.266h-.179v.177l.223.089h.089zm.089-.889h.178l.133-.223-.311-.089v.312zm.489-11.166l.311.089-.044-.179-.178-.133-.044.133-.045.09zm.311.712l.089-.046.133.09v.177l-.133.089-.089-.044v-.266zm.312 3.202l.49.49.089.312-.089.312-.178-.044v-.179l-.267-.133-.267-.267v-.223l.178-.177.044-.091zm.578-6.361l.223.133.089-.223-.178-.089-.089.133-.045.046zm.623.533l.312.8.712-.089.177.089.089-.356-.267-.533v-.312l-.179-.089-.356.044-.445.4-.043.046zm.801-2.312l-.712.266v.534l.178.089.845-.089-.089-.356-.223-.356v-.088zm.623.489l.4-.312-.222-.712h.178l.133-.312-.311-.177-.712 1.112h.089l.178.312.134.089h.133zm-.4 8.941h.578l.044.4.178.134.089-.802-.889-.133v.401zm2.491-3.203l.8-.177 1.201-.49 1.246-.445.623-.356.356-.089 1.113-.802.222-.222.311-.089.445-.49.578-.445 1.023-1.023.134-.089.134-.312.445-.356.134-.445.667-.802.045-.31.712-1.113.178-.712.489-1.289.223-.667v-1.646l-.134-.756-.267-.623-.49-.666-.312-.09-.134-.133-.712-.177-.756.044-1.335.533-.889.534-.089.222-.4.4-.312.09-.222.312-.845.712-.356.622-.89 1.068v.179l-.445.533-.845 1.246-.623 1.112-.578.8-.134.044v.223l-.267.267-.4 1.201-.49 1.112-.134.089-.044.223-.134.044-.445 1.202-.533 1.289.133.712.667.223 1.246-.223h.09zm-2.091 2.224l.089.046-.089.266.178.089.222-.133.089.044v-.623l-.356.09-.089.133-.044.088zm.4-10.276h.4l-.044-.222-.134-.089-.222.089v.222zm.801 10.276l.223-.044.89.356-.134-.533-.49-.312-.445.445-.044.088zm.311-11.077h.178l.089-.312h-.178l-.089.223v.089zm1.291-1.112l.133.089h.223l.133-.222-.133-.09h-.223l-.133.134v.089zm1.022-2.936l.312.177h.178l.089-.089-.133-.312-.267-.089-.133.223-.046.09zm1.202 13.925l.134.089.356-.044.089-.089-.044-.133-.4-.046-.134.134v.089zm1.824-15.615h.178l.089-.177-.178-.134-.089.223v.088zm1.29 14.368l.311-.044.089-.356-.178.046-.222.266v.088zm5.116-5.337v.222l.178-.044.045-.267-.134.09h-.089zm.223-10.144l-.045.579.134.266.134.046.134-.134.044-.312-.178-.756h-.312l.089.223v.088zm1.423 5.206l.177-.044.089-.134v-.312h-.178l-.089.134v.356zm.489 3.157l-.312.179.089.089.178-.044.089-.133-.044-.091zm-.222-7.651l.312-.133.134-.312-.312.133-.134.223v.089zm.934 5.339v-.4l-.222-.223-.089.446.223.177h.088zm-.312 2.002h.223v-.223h-.223v.223z"/><path fill="#fff" d="M183.85 304.351l-.312 1.023-.133.133-.4 1.246-.534 1.245-.044.312-.178.223-.356 1.201-.4.667-.222.712-.356.623-.223.623-.133.133-.267.979-.356.978-.267.267-.445 1.335-.222.623-.178.267v.177l-.222.223v.356l-.178.356-.134.712-.4.712-.222.622-.267 1.291-.089.089v.312l-.134.312.267.712.4.4.579.089.667-.177.578-.312.445-.356.089-.179.312-.089.978-1.068.356-.356v-.177l.712-.623v-.177l.312-.49.8-1.201.757-1.156.133-.09.49-1.289.044-.223.356-.579.401-.934.533-1.335.223-.667.222-.312.089-.712.311-.533.445-1.379.489-1.112v-.179l.223-.222v-.179l.222-.222.178-.49.222-.312.222-1.023.312-.667.445-.578.49-.312 1.424.044h.311l.134-.089.667.133 1.246-.133.49.445v.623l-.445 1.512-.49 1.335-.534 1.335-.222.666-.134.134-.089.356-.222.356-.134.445-.134.133-.267 1.069-.311.445-.045.312-.222.31-.134.446-.133.133-.134.445-.222.179-.044.312-.223.312-.356 1.112-.356 1.068-.222.222-.134.712-.133.134-.401 1.424-.534 1.289-.178.756-.044.757.089.712.356.489.578.267h.356l.845-.179.623-.356 1.957-2.046 1.023-1.113.222-.222v-.179l.756-1.112.178-.133.134-.312.534-.579.623-1.112.222-.177v-.223h.089v-.223l.89-1.156.667-.177.445.044v.089l.312.133.623.623.089.356-.133.667-.712 1.068-.045.267h-.134l-.712 1.289-.712 1.202-.712.845-.044.223h-.222v.089l-.623.623v.177h-.089l-.089.312-.267.179-.222.489-.623.445-.978 1.023-1.068.89-.757.578-.356.09-.177.222h-.179v.089h-.222v.134h-.178v.089h-.222v.089h-.178l-.4.179-1.424.177-1.468.134-.712-.046-.757-.222v-.089h-.178v-.134l-.356-.044-.978-.979-.578-1.334-.312-.356h-.356l-.312.177-.445.534-.845.756-.267.044-.712.489v.09l-.311.222-.401.089v.09l-1.156.445-.312.133-.712.089-.134.09-1.424.044-.4-.044-.089-.134-.667-.177-.667-.356-.934-.756-.045-.312-.177-.089-.179-.846-.4-1.068.089-1.424.178-1.512.222-.623.134-.133.044-.312.089-.044.045-1.201.134-.134.445-1.289.222-.667.134-.134.044-.312h.089v-.177l.222-.312v-.179h.089l.401-1.112.445-1.378.356-.667v-.179l.356-.623.267-.8h.089l.178-.712.178-.312.089-.4.267-.267v-.31l.578-1.735.134-.09.178-.31.134-.534.49-1.246h.089l.044-.266.445-.579 1.246-.177 1.468.089.712-.044.667.133.4.267.267.356.088.085zm-10.277 18.862l.223-.044.178-.267-.401-.089v.4zm.802.489l.222.09-.133-.267h-.089v.177zm.311-2.713l.089.133.312.044.134-.445-.044-.133-.445.222v.09l-.046.089zm0 2.536l.49.089.311.4h.178l.134-.489-.312-.133h-.222l-.178-.267h-.312l-.089.267v.133zm0 1.201l.49.223.133.534.178.133.312-.4-.134-.09-.089-.31-.312-.09v-.4l-.4.044-.178.267v.089zm.49-4.849l.089.266.178.046.267-.223-.267-.177h-.178l-.089.088zm.8 1.29l.134-.089-.045-.133-.177-.044.044.222.044.044zm.312-2.09l.222-.712-.267-.179h-.134v.712l.089.133.09.046zm.4 4.715l-.178-.356-.178-.089-.222.044.445.4h.133zm-.089 1.645v-.133l.623-.133.089-.134-.267-.222-.312-.446-.623-.177.134.756.267.445.089.044zm.178-7.473l.089-.133-.044-.133-.445-.134.044.179.267.222h.089zm.133-.712h.178v-.266l-.178-.044v.31zm1.113-1.201l.177.089.089-.177-.178-.134-.044.134-.044.088zm.489-.712v-.179l-.4-.133v.223l.089.133h.223l.088-.044zm.623-4.226l.089-.4-.222.044-.089.133.134.223h.088zm-.134 2.402h.222v-.179h-.222v.179zm3.959 8.363h.178l.089-.266h-.267v.266zm.401-.266h.133l.267.489.267.089.178-.089.134-.223-.445-.266-.177-.623h-.179l-.177.533v.09zm.578-1.513l.044.534.312.044.267-.223v-.177l-.356-.223-.044-.266h-.312l-.089.089.133.177.045.045zm.623 3.603l-.044-.177-.178-.133-.089.133.045.133.134.044h.132zm2.803-6.227h-.178l-.178.133-.267.623-.177.044-.134-.533-.178-.089-.089.177.089.356-.4.267.133.312.49.712-.222.312-.579-.401h-.222l-.4.534-.312.177.045.179.177.177.401.046.311-.579.089-.044.445.222.044.179-.356.089-.534.4h-.267l-.134.134.312.133.089.356h-.178l-.223-.223h-.089v.935l-.534.177v.179l.312.133.222.223v.223l.178.266.4-.177.222.267-.4.8.712.312-.044-.179-.134-.089-.044-.223h.89l.044-.177.267-.223v-.089l-.134-.089-.178-.312-.134-.044-.134.267-.222-.09-.267-.267v-.31l.4-.044.089-.223-.845-.044-.178-.267.267-.177-.089-.534.445-.223.178.046.222.266-.044.179-.534.089-.044.267.178.044.845-.579.178.712.222.134.178-.134h-.089l-.223-.4.134-.133v-.667l.178-.712-.178-.267v-.133l.178-.089.089-.223-.089-.4.445-.134.089-.266-.4.044-.222-.134v-.177l.177-.267.445-.4v-.356l-.49-.044-.042.04zm-2.625 1.512l-.178.09v.089l.178.089.49-.177.222-.223v-.179l-.49-.222-.177.445-.045.088zm.311 5.606l.044.179.578.445-.089-.4-.222-.267h-.222l-.089.043zm.223-6.54l.312-.046.089-.133-.4-.133v.312zm1.691 2.224l-.044.133-.223.134-.222-.179v-.089l.134-.089.267.044.088.046zm-.09-5.026l.356.312.178-.044.044-.357-.222-.222h-.222l-.134-.089v-.09h-.311v.179l.311.311zm.312 1.912l.134-.356v-.356l-.134-.133h-.178l-.044-.089.133-.312-.089-.09-.178.044-.178.267-.089.356.089.534.4.133h.134zm-.134 7.652l.178.089.222-.089v-.09l-.133-.089-.223.089-.044.09zm.4-11.79h.223l.222-.177-.089-.445-.222-.09v.223l-.222.356.044.044.044.089zm.535 2.626l-.223.044-.133.312-.267.267.267.133.044.267h.312l.089.089.044.533.178.046.267-.179v-.177l-.401-.312v-.223l.089-.089.445.177.089-.31-.312-.667v-.312l-.4-.312v.4l-.089.223v.09zm-.535-1.202l.623.312v-.222l.089-.09-.133-.355-.356-.357-.223.623v.089zm2.136-1.334l-.311-.179-.356.044-.134.356.089-.044.179.312.311.267v.177l-.267.179h-.223l.179.445-.089.267.445-.223.089-.667.134-.089.178-.312-.134-.089-.089-.356v-.088zm-.311-1.379l.267-.179v-.31l-.178-.046-.089.4v.135zm.712.979l.089.044.134-.134-.134-.312-.089.312v.09zm.711-1.691l-.045-.179-.177-.133-.089.133.044.134.134.044h.133zm-.222-2.224v.489l.311.133.534-.133v-.312l.134-.089.044-.179-.134-.133-.311-.044-.49.222-.088.046zm.934-1.29l-.134-.312h-.267l.045.223.134.133h.133l.089-.044z"/><path fill="#fff" d="M207.291 304.306l.356.177 1.201-.622.267-.267h.311l.49-.177.134-.134 1.379-.223 1.379.046.667.177.801.4.089.134.267.044.756.622.044.267.223.223.311 1.023.222.222.223 1.246.089 1.512-.267 1.424-.267 1.379-.311 1.424-.267.89-.134.089-.089.712-.089.089-.089.623h-.089l-.445 1.289-.356.579-.49 1.291-.445.756.089.312.49.4.712-.09 1.201-.666.623-.356 1.023-.979.534-.489.356-.579.222-.179.044-.222h.089l.756-1.112.667-.89.267-.133 1.113.133.489.489.223.846-.267.667-.623.979-.089.044-.044.266-.979.979-.089.312-.579.445-.089.267-.756.8-.267.044-.489.446-.312.089-.089.177-1.201.623-1.29.534-1.379.266-1.335.267-1.512.223-1.023.889-1.068.89-1.157.712-.445.312-.667.222-.222.223-.623.133-.623.267-1.201.223h-1.557l-1.512-.179-.712-.177-.801-.401-1.156-.933-.223-.267-.044-.177-.222-.179-.134-.356-.222-.267v-.222h-.134v-.223h-.089l-.178-.979-.222-1.424v-1.334l.089-1.158.312-1.424.044-.666.312-1.379.089-.312.134-.134.044-.31.267-.623.222-.223.089-.712.49-1.023.134-.578.089-.09.089-.578.4-.935.222-.222.401-1.023.4-1.068.312-.401.044-.266.134-.134.222-1.023.089-.089.089-.489.134-.134.49-1.201.623-1.335.267-.666.134-.09.445-1.334.312-.667.222-1.023.222-.223.178-.712.134-.089.133-.623.356-.579.134-.445.222-.267.312-.666.49-.4.712-.134 1.424.089 1.424-.089.578.134.178.133.045.222h.133l.089.667-.089.356h-.089l-.445.935-.134.534-.222.266-.445 1.379-.178.49-.223.222-.445 1.335-.044.177-.223.179v.312l-.623 1.289-.178.623.044.179.041.135zm-8.852 14.504l.222.222h.312v-.4l-.089-.177-.134-.044-.044.133-.178.044-.089.133v.089zm1.424-2.938v-.177l.267-.489-.178-.223-.4.623.178.222.133.044zm.31 5.073l.179-.044.133-.179h-.178l-.134.133v.09zm.312-4.271l.178.133.089-.223-.178-.089-.089.179zm1.068-3.826l-.267.223v.177l.178.134-.044.266-.445.446.978.177.179-.312v-.177l-.179-.312-.177-.089-.134.044-.178-.179.044-.223.445-.044-.133-.356-.445-.356-.044.134.222.312v.135zm-.178 7.562l-.311 1.468.089.579.49.579.534.4.712.222.756-.089.623-.312.533-.4.49-.579.089-.266-.312-.579-1.068-.978-.534-.445-.267-.489-.223-.09-.133-.31-.356-.49-.312-.133-.312.133-.222.267-.178.667-.089.756v.089zm1.023-9.875l.312-.134.089-.267-.356.09-.044.222v.089zm.089.934l.578.267.134-.089v-.4l-.312-.134-.4-.044v.4zm.579-2.847l-.312.4-.044.223.089.089.178-.044.4-.445h.223l-.134-.356-.222-.223-.267-.044.044.356.045.044zm.4-1.913l.044-.134.445-.044.044-.133-.178-.044-.222-.223-.178.044-.045.49.09.044zm.133 3.247l.178-.044v-.179l-.178-.089v.312zm1.29-1.023v-.623l-.178-.177-.312.044-.089-.134.222-.31v-.134l-.134-.177h.089l.089-.134-.044-.177-.222-.089.044.222-.4.49.046.576.222-.089.267.179.134.31.177.179.089.044zm2.937 10.277l.089-.312.712-1.291.267-.533.222-.712.178-.267.489-1.289.401-1.113.134-.356v-.266l.133-.09.223-1.068.177-.978.089-.09.089-.845-.089-1.068-.356-.623-.578-.489-.534-.223h-1.201l-.578.223-.801.623-.178.044-.222.266-.49.267-.4.623-.312.179v.222l-.178.089-.534 1.023h-.089v.179h-.089v.312l-.222.578-.134 1.558v1.424l.4 1.334.49 1.202.178.044.089.312.222.312.267.177.222.312h.178l.133.223.401.089.356.222.311.09.445-.267.09-.047zm-3.738-13.792l.179-.044.133-.267-.089-.089-.223.223v.177zm.623-.8h.267v-.312h-.267v.312zm.668 1.112l.222-.4-.312-.134-.089.357.089.133.09.044zm-.089-3.559l.356-.133.178-.267-.222-.445-.312-.044v.889zm.089 1.335l.178.089.178-.044.356-.267-.044-.312-.134-.089v.223l-.49.312-.044.088zm.444 4.315l.312-.179-.134-.133-.178.223v.089zm.49-5.65l-.4-.089v.222l.134.09.177-.046.089-.177zm.978-3.292l.089.133.178.044.044-.089-.623-.4-.134.044-.134.267h.58zm-.578.578l.178.09.134-.179-.222-.089-.09.178zm1.113 22.065l.489.179.178-.044.045-.356-.356-.267-.179.044-.177.312v.132zm1.201.402l.089.044.134-.09-.045-.266h-.178v.312zm.801.622l.311-.133.179-.267-.267-.133h-.222v.533zm.622-1.824l.979-.222-.044-.223-.223-.179-.845-.089-.089.356.178.312.044.045zm0-14.992l.579.177-.179.667.089.356.4-.222.222.133h.179l.4.312.534.889-.222.046-.267.177-.445-.044v.223l.267.222.712.044.044.712.134.09.044.222h.223l.133.09.178.666-.134.267.712.179.223.489.178.044.134-.267-.045-.133-.4-.312.134-.4.267.179h.134l.312-.446.089-.266-.089-.09-.356.09-.579-.179-.222.179-.178-.09.223-.267.712-.177.445-.267.044-.177-.133-.134-.089-.266h-.222l-.356-.401.4-.222.312.356.267.044.089-.089v-.179l-.178-.133v-.179l-.312-.222-.178-.312-.49-.179v-.312l.312-.177.089-.133-1.023-.712-.49.31.178.757.4.756h.4l.223.222v.09l-.801-.044-.578-.223-.044-.179.089-.266-.044-.134-.445-.267.089-.712-.178.046-.222.356h-.089l-.222-.267-.667-.267-.267-.267-.045-.177h-.311l-.089.267v.133zm.4 11.344h.179l.133-.179-.312-.089v.268zm.312-12.367l.134.312.267.223.267.089.134-.267-.222-.445-.134-.044-.356.133h-.09zm.4 1.824l.045-.133h.178l.089.133-.044.089h-.178l-.044-.089h-.046zm.49 11.255v-.179l-.222-.222-.089.177.177.223h.134zm0-6.851l-.267.133v.356l.445.223.089.356.311.044.134-.089.578 1.201.223-.044.089-.134.667.267.267-.089-.045-.179-.4-.266v-.134l-.49.09-.312-.935-.578-.044-.311-.356-.134-.89h-.178l-.089.134v.356zm-.223-3.292h.178v-.312h-.178v.312zm.401 5.605l.223-.667-.134-.089-.178-.312-.134.044-.134.312v.4l.267.312h.09zm1.112-7.918l-.089-.312h-.178v.177l.178.134h.089zm.534 3.603l-.356.133-.223.179-.044.177-.134-.133v-.133l.222-.267.179-.089.044-.179-.312-.356.044-.177.356-.046.223.579v.312zm-.134 3.114l.044.177.267.223.267-.134.089-.222-.044-.133-.578.044-.045.045zm.223 1.824h.178v-.179h-.178v.179z"/><path fill="#fff" d="M238.874 309.734l-.356 1.424-.267.667-.089.445h-.089v.179h-.134v.223h-.089v.177h-.089v.223l-.267.266-.222 1.068-.267.401-.089.31-.267.267-.356 1.379-.579 1.291-.311.622-.178.846-.178.222v.179l-.267.623-.267.889-.044.8.089.802.222.533.267.044.044.179h.712l1.201-.534 1.068-.934.312-.134.8-.756.356-.579.445-.445.89-1.112.089-.312.222-.089.089-.312.222-.089.089-.312.177-.089.134-.312.356-.356.045-.267.578-.889.222-.179.712-1.289.134-.134.623-.133.712.222.356.267.356.623.044.4-.267.667-.222.267-.312.667-.178.177v.177l-.312.401-.089.356-.134.044v.177h-.134l-.044.312-.4.579-.401.356-.089.312-.178.089-.134.312-.312.222-.044.267-.356.356-.089.267-.178.089-.356.534-1.068 1.068-1.068.934-1.068.89-.267.266h-.178v.09h-.222v.133h-.178l-.089.179h-.223l-.222.222-1.112.49h-.267l-.178.133-1.379.267-.356.089-1.424-.179-.667-.177-.578-.267-1.023-1.023-.667-.845-.044-.267-.534-.356-1.201.8-1.023 1.023-1.112.534-.134.133-.667.223-1.113.133-.089.089-1.29.09-1.201-.267-.045-.133h-.177v-.09h-.223v-.089h-.178v-.133l-.49-.179-.8-.756-.044-.267-.267-.222-.133-.579-.089-.089-.089-.623h-.089l-.178-1.335v-1.468l.222-1.424v-.756l.089-.089.267-1.424.089-.044.222-.712.089-.623.445-1.291.178-.266.4-1.335.356-.8.089-.712.134-.09.311-.578.089-.356.489-.935.401-.445.267-.712.267-.445.4-.356.089-.312.179-.09.356-.622.177-.09.089-.31.978-.979.179-.089.311-.4.222-.046.134-.222.312-.044.222-.223h.178l.267-.267.311-.044.089-.223h.178l.134-.177h.222l.178-.223 1.379-.356h1.468l1.201.267v.089l.489.134.935.712.534.533.534.846.044.266.623.401.356.044.089-.09h.356l1.156-.578 1.291-.534.534-.312 1.023-.4.356.044.445.446.134.266-.223.756-.578 1.335-.534 1.291-.667 1.156-.042.053zm-17.528 12.279l.578-.089.222-.223h-.534l-.222.223-.044.089zm.801-2.003l.044-.133-.133-.356-.223-.223-.089.179.134.312.222.177.045.044zm-.089-4.849l.089-.133-.044-.177-.178-.09-.089.179.089.222h.133zm1.112 1.825l-.312-.09v.179h.267l.045-.089zm6.94-9.076h-.222v.089h-.178v.134l-.267.044-.222.312-.312.133-.89 1.068-.8 1.201-.801 1.158-.267.489h-.089v.223l-.133.044-.045.356-.356.578-.534 1.246-.312.979-.222 1.023-.49 1.201-.356 1.335-.044 1.424.089.8.534.8.445.223.4.089.757-.044.623-.177.312-.179.044-.133h.223l.089-.223h.178l.978-.935.935-1.023.578-.712.534-1.245.445-1.335.134-.133.356-.935.134-.133.49-1.335.222-.756.49-1.246.578-1.289.134-.756-.134-1.246-.267-.267-.089-.355-.222-.267-.578-.312-1.068-.223-.089.134-.667.133-.048.043zm-6.272 4.049l.044.177.356.223.134-.312-.045-.134h-.445l-.044.046zm2.535-2.136l.089.044.134-.09.045-.177.222-.179v-.089l-.178-.089-.4.445.044.044.044.091zm2.224-3.114l.356-.044.045-.267-.312-.089-.089.266v.134zm1.113-.4h.178l.089-.223-.178-.089-.089.222v.09zm.712 17.439l.134-.179-.089-.267-.178-.089-.044.356.089.133.088.046zm-.134-3.159l.134.089.4-.177-.044-.179-.356-.223-.134.401v.089zm.712.445l.044.179.312.133.267-.133v-.09l-.312-.177-.223.044-.088.044zm.089 2.891l.134.312.578-.044.134-.356-.178.089-.578-.044-.09.043zm.4-4.538l.356-.133-.089-.312-.356-.133-.089.089.178.4v.089zm-.089.402l.312.177.356.044.267-.133.089-.179-.044-.177-.267-.223-.667.4-.046.091zm1.112 1.022l-.756.044-.044.134.178.356.134.089.222-.133h.578l.044-.134-.311-.266-.045-.09zm-.133-4.271l-.178.179-.178.445.133.089v.356l.089.09h.222l.267.356.178.044.222-.09-.134-.31h-.178l-.133-.179.044-.133.489.089.089-.133h.534l.222.222.178-.089v-.223l-.445-.356.044-.222-.445.222-.356-.089-.312-.445-.044.177h-.308zm.222 6.006l-.044-.177-.312-.134-.222.09.133.266.579.134.089-.134.178-.044.222-.533-.267.044-.134.356-.133.089-.089.043zm.312 1.602l.222-.223v-.356l-.312-.133-.222.222v.356l.178.134h.134zm.222-8.453h.979l.089-.133-.044-.49.178-.089.356.223.134-.09-.045-.177-.712-.179h-.534l-.4.846v.089zm.712-2.224l-.356.044-.178.356.712.089-.134-.4-.044-.089zm.089 3.025l.134.044.267-.222.534-.134.044-.222-.134.044-.445-.223-.401.579v.134zm.178 2.314l.133-.4h-.222l-.089.133.089.223.089.044zm-.089-6.851l.134.31.222.09.267-.09v-.31l-.133-.09-.4.044-.09.046zm.089 1.778l.267.179.712.133.267.223-.222.667v.356l.089.177.356-.445.133-.312.267-.222.044-.223-.178-.089-.089-.312-.356-.044-.134-.312-.4-.267-.089-.356.045-.133h-.401l-.222.177-.089.712v.091zm.223-4.315l.089.044v.267l.178-.044.089-.312.134-.044.177.089.267-.133.089-.177-.311-.179-.667.445-.045.044zm.489 1.513l.267.177.134.534.178-.223.044-.4-.4-.534-.222.046.089.044-.089.266v.09zm.089 1.513l.445.489.49.134.089-.179v-.356l-.223-.267h-.177l-.089.267-.356-.177-.179.089zm.311-3.826h.4l-.312-.579-.089-.044-.089.134.045.445.045.044zm.312.89l-.267.222-.044.179.4-.044.267-.223.044-.179-.089-.222-.178.044-.089.133-.044.09zm.489 1.512l.089.356.134.044.311-.133.089-.267-.178-.044v-.134l-.534-.4-.178-.312-.089.179.356.711zm-.267.712l.134.312.133.089h.4l.045.312.267.089.178-.756v-.312l-.178-.044-.133.312-.801-.044-.045.042zm.267-3.336v.31l.134.09h.356l.134-.09-.178-.31-.401-.046-.045.046zm.801 1.245v-.312l-.267-.222-.044.133.134.312.177.089zm-.267-2.447v.223l.356.089.134-.089v-.223l-.178-.089-.267.044-.045.045zm.267 3.247l.089-.312-.089-.177-.267-.044v.4l.089.133h.178zm.534.312l.089-.489-.089-.179-.223-.044.045.579.089.089.089.044zm0-1.824h.312l.089-.312-.222.044-.134.179-.045.089z"/><path fill="#fff" d="M273.168 312.671l-.089 1.022-.356.979-.445.756-.401.445-1.424.134-.311-.134-.712.134h-2.135l-.712-.134-1.379.134-1.468-.089-.356.089-.401-.044-.311-.267-.179.223-.8.133-.756-.179-.534-.355.044-1.023.49-1.112.133-.712.49-.446.534-.312 1.201-.089 1.602.044 1.512.09.134-.09 1.469.09 1.334.089 1.334-.223 1.513.179.534.222.4.356.045.09zm-9.653 1.689l-.044-.177-.178-.089-.089.133.045.133h.266zm.801-.266l-.312.089-.044.089.222.312.134.044.178-.312.312-.267-.134-.489-.178-.089-.134.533-.044.09zm1.601-.401l.489.09v-.179l-.177-.222-.045-.357-.089-.044-.134.623-.044.089zm1.691-.311l.089.133v.579l.222.177.089-.044-.089-.267.222-.044.089-.133-.089-.134v-.266l-.445-.09-.088.089zm2.536 1.601l.311.089.134-.222.356-.134.222-.222-.089-.09-.445.09-.178-.223-.356.044v.623l.045.045z"/></g></svg>