<svg xmlns="http://www.w3.org/2000/svg" width="384" height="550"><g fill="#fff"><path d="M81.326 231.218c-.854 2.072-1.878 4.029-2.788 6.216-.456.863-.684 1.957-1.024 2.647-.342.633-1.195.979-1.024 2.072-.569.518-.569 1.094-.797 1.957-.341.863-.967 1.669-1.309 2.475-.057.403 0 .863-.171 1.151-.17.518-.626 1.036-.91 1.669-.228.806-.398 1.784-.739 2.417-.342.518-.911.864-1.195 1.497-.398.921-.341 1.957-1.081 2.533v1.208c-1.252 1.439-1.195 4.144-2.674 5.238-.342 1.957-1.024 4.202-2.391 5.41-.512.403-1.479 0-2.275-.115-.74-.058-1.65-.058-2.617-.058-1.081 0-2.618.345-3.244.058-.854-.345-.967-1.669-1.422-2.82-.626-1.611-1.821-3.05-2.39-4.892.113-.345.17-.633.341-.979-.854-.748-.854-2.015-1.365-3.396-.398-1.208-1.252-2.302-1.764-3.511l-.684-2.878c-.228-.69-.796-1.093-1.081-1.669-.568-1.208-.683-2.59-1.081-3.856-.17-.518-.568-.921-.854-1.439-.397-.863-.568-1.036-.739-2.302-.342-2.417-1.536-4.834-2.276-6.964-.228-.633-.512-1.208-.683-1.727-.512-1.036-1.593-1.899-.854-3.568 1.764-.518 4.211 0 6.089 0 .854 1.094 1.081 1.957 1.649 3.396.342.863 1.309 2.245 1.65 3.338.228.864.398 1.785.797 2.533.113.345.284.69.341 1.036.171.403.455.575.683 1.036.342.576.684 1.324.854 2.015.058.518.398.921.513 1.439.057.518.341.863.512 1.381.228.69.569 1.266.74 1.957.228.863.512 1.611.854 2.475.228.749.683 1.497.967 2.302.171.403.342.863.513 1.209.17.288.455.806.455 1.093v.749c.228.23.398.575.568.921v.69c1.081.748.513 3.223 2.049 3.568l.171-.345c.568-3.108 2.73-4.662 3.243-7.885.113-.345.455-.806.626-1.036.228-.403.455-.748.739-1.208.398-.748.854-1.611.91-2.532.114-.864.114-1.439.626-2.302.285-.691.911-1.381 1.252-2.13.342-.863.74-1.727 1.081-2.532.398-.806.854-1.439 1.195-2.245.341-.921.739-1.842 1.138-2.82.797-1.842 1.536-3.799 2.39-5.698 1.479-.69 3.187.173 4.894 0 .569-.058 1.081-.403 1.65-.172.852.975-.229 2.127-.058 3.393zm-29.247 12.777c-.342 0-.342.46-.342.863.797.864 1.31-.863.342-.863zm8.421 19.167c-.341-.173-.739-.058-.796.172 0 .691 1.309.518.796-.172zm4.894-.518c-.341-.345-1.252-.23-1.024.518.455.345 1.024.114 1.024-.518zM97.601 231.736v.979c-.057.633-.284 1.381-.341 1.957 0 .921.284 1.842.341 2.877 0 .576-.057 1.151-.113 1.727 0 .575-.058 1.151-.058 1.611 0 .403.114.576.171.979.114.691.114 1.554 0 2.245-.057.345-.171.633-.171.979l.171 1.324-.171.921c-.113.345.114.691.058 1.036l-.058.863.058 1.957-.058.69c0 .806.114 1.324.058 2.015l-.228.979c0 .288.228.633.228 1.151.057.46-.058 1.094-.058 1.842v4.26s-.17.173-.17.288c0 .058.17.23.17.346-.113.345-.228.633-.228 1.036-.057.749.228 1.957-.171 2.82-.17.518-.397.576-1.194.806-.683.172-1.594.172-2.39.115l-1.878.058c-.455 0-1.138.173-1.423-.058-.284-.115-.284-.979-.228-1.266 0-.576 0-1.151.114-1.727.057-.691.284-1.324.341-2.13 0-.69-.284-1.611-.228-2.475l.058-.863c0-1.209-.058-2.59-.058-3.972-.057-.23.058-.518.058-.806 0-.345-.114-.576-.058-.69.058-.633.74-.864.854-1.382.058-.748-.91-1.324-.967-2.187-.114-.345.057-.863.171-1.208.228-.518.568-.576.397-1.266-.113-.115-.113-.403-.17-.46-.058-.23-.342-.23-.398-.691-.114-.518.341-1.381.341-2.129-.057-.518-.455-1.036-.512-1.727-.057-.691.228-1.727.284-2.706l-.113-.978c0-.288.171-.691.171-.864l-.058-.748s.058-.691.058-1.266c0-.23.17-.403.17-.576l-.341-1.036c-.114-.576-.114-1.381-.171-2.014 0-1.036-.057-1.899 0-2.993.057-.288.057-.576.171-.69.113-.46.626-.806.854-1.151.739-.058 1.536-.288 2.275-.23.398.057.74.23 1.081.23.285 0 .684-.173.968-.058.455 0 .739.173 1.081.288.398.115.854 0 1.138.345.172 1.148.286 2.241.172 3.623zM134.983 240.484c-1.423-2.59-3.982-4.202-6.543-5.583-1.765-.288-3.13-.403-4.837-.403-.569-.115-1.252-.288-1.935-.115-.512.115-.91.691-1.479.806-.398.23-.797 0-1.081.115-.342.173-.739.518-1.138.691-1.081.575-2.731 1.381-3.414 2.187-.228.288-.228.633-.513 1.036-.512.69-1.365 1.151-1.593 1.669-.398.691-.854 2.417-1.081 3.223-1.081 3.684.228 8.461 1.991 10.878.569.691.968 1.554 1.366 2.072.397.518 1.309.69 1.877 1.094.513.403.911.921 1.366 1.324 1.593.863 3.471.979 5.234 1.151 1.195.23 2.561 0 3.869-.288 2.675-.46 4.95-2.187 6.715-4.259.512-.69.91-1.439 1.365-2.129.228-.403.398-.691.512-1.094l.285-.576c.284-.403.967-.288 1.479-.403h1.991c.568 0 1.252.115 1.991.173.284 0 .569.115.854.345.683.173.398 1.094.284 1.669-.17.691-.397 1.382-.568 2.188-.513 1.324-1.195 2.532-2.39 3.396-.058.23 0 .806-.285.921-.91 1.497-2.958 1.669-3.527 3.454-1.309.23-1.707 1.208-2.902 1.611l-.967.23c-.683.288-.968.979-1.65 1.151-.398.115-1.024.115-1.479.23-.398.115-.797.288-1.138.403-.569.115-1.366-.23-2.22-.115-1.706.115-3.3.806-4.381-.172-1.878.172-4.324-.691-5.804-1.497-1.195-.633-2.788-1.612-3.642-2.59-.284-.345-.398-.748-.626-1.036-.398-.403-.854-.576-1.138-.863-.228-.346-.228-.806-.513-1.209-.284-.403-.796-.633-1.309-.921-.398-.288-.796-.69-.967-1.208l-.228-.46c-.058-.345-.285-.633-.455-.921l-.229-.518c-.057-.173-.284-.403-.397-.46-.058-.288-.058-.518-.171-.691l-.398-.633c-.284-.403-.512-.863-.683-1.497-.285-.979-.513-2.014-.626-2.993-.171-3.108.398-6.677 1.309-9.497.171-.46.512-.979.683-1.496.228-.576.398-1.267.626-1.669.057-.288.455-.518.74-.921.739-1.208 1.479-2.302 2.674-3.396.398-.288.797-.46 1.195-.863.796-.806 1.365-1.093 2.39-1.842 1.252-.69 2.959-1.842 4.723-2.187.284-.058.683.115.967 0l1.081-.46c1.878-.518 4.154.058 6.146 0 .398 0 .854-.23 1.365-.23.626.115 2.162.69 3.357 1.208 1.195.403 1.878.921 2.845 1.497 2.391 1.324 5.463 3.684 6.715 5.986.512.979 1.194 2.302 1.707 3.799.398.806.854 1.669 0 2.302-.626.518-1.594.115-2.561.288-1.024.23-2.162.806-3.243.69-1.021-.577-1.136-1.671-1.591-2.592zm-15.533 22.16v-.518c-.342-.173-1.081 0-.968.633.285.172.911.115.968-.115zM183.009 234.383l-1.423.115c-.683 0-1.479-.403-2.276-.403-1.649 0-3.471 0-5.007.576 0 1.611.284 3.914.171 5.755 0 .576-.398 1.209-.398 1.669 0 .633.342 1.439.398 2.188l.171 4.604c.17 1.842-.342 3.856-.228 5.583l.284 1.496c0 .403-.114.691-.228 1.094 0 .748.171 1.899.228 2.763 0 1.208-.114 2.417 0 3.223.113.518.512 4.547-.455 4.604-.797.058-1.65 0-2.447-.058-.796 0-1.479-.115-2.219-.115-.455 0-1.878.173-2.219-.057-.513-.576.284-2.475.284-3.108 0-1.151-.284-2.475-.284-3.684.113-.806.398-1.611.398-2.302.113-1.439-.285-3.05-.229-4.547 0-.576.342-1.324.398-1.957 0-.863-.398-1.899-.284-2.993.057-1.669.398-3.454.284-5.295-.057-1.036-.284-2.705-.228-3.971.058-.403.342-.806.342-1.151 0-.46-.284-.921-.284-1.324.113-1.151.284-2.59-.626-2.993-.854-.288-1.935.115-2.902.173l-2.219-.288c-1.024 0-2.105.403-3.243.46-2.846.23-5.918-.172-8.82 0-.796-1.266-.455-3.166 0-4.72.171-.69.285-1.324.797-1.669.284-.23 1.423-.46 1.935-.46.513 0 .91.403 1.366.403.228 0 .683-.172 1.023-.288 1.479-.058 2.846.403 3.699-.23 2.39.115 5.007.23 7.738.23.455.115 1.023-.23 1.593-.23 1.991-.23 4.04.346 5.918.173 2.275-.173 4.324-.058 6.601 0 1.309.058 2.561-.23 3.755-.173.74 0 1.479.403 2.276.403 1.081-.057 2.048-.863 3.698-.633 1.365.23 2.845.979 3.016 2.59 0 .46-.228.921-.228 1.554-.114 1.381.284 3.108-.797 3.453-3.07.174-6.257-.46-9.329-.46zm-22.419-2.244v-.518c-.228-.058-.284-.288-.683-.23-.171.23-.114.748.113.806.286-.001.513-.001.57-.058zm3.926.057v-.69c-.341-.403-.739-.173-1.023.23-.001.576.568.863 1.023.46zm.967-.173 2.618-.69c-1.138.058 0 1.611.626 1.094-.057-.461-.342-.864-.626-1.094zm2.902 9.899c-.683-.806-1.479.806-.455.863.284-.056.568-.287.455-.863zm0 10.303c.341.173.739.173.854-.115 0-.518-.854-.633-.911-.058.057 0 .057.058.057.173zm2.162-19.799c-.74-.23-1.935-1.439-2.162-.403-.228.863 2.162 1.899 2.162.403zm-1.366 6.561c-.228.23-.228.69.228.69.398-.172.341-.805-.228-.69zm.456 5.065c-1.139.345-.285 1.669.341 1.611.967-.172.682-1.899-.341-1.611zm3.641-12.374c.113.806.113 1.554.625 1.554 1.196.057.513-2.706-.625-1.554zM200.479 249.693c-.171-.288-.171-.518-.171-.806-.057-.46.228-.863.398-1.381.114-.23.057-.288.114-.46.113-.173.455-.518.455-.806 0-.518-.228-.806-.455-1.209.228-1.036-.285-2.36 0-3.396.113-.288.398-.518.568-.691.171-.288.342-.518.513-.691-.114-.863.398-1.093.568-1.611l.398-1.266s0-.288.114-.345c.057-.288.341-.346.512-.633l.171-.173c0-.115.171-.23.284-.403l.968-1.094c.683-.806 1.194-1.669 1.764-2.302.569-.518 1.252-.806 1.65-1.439.739-.058 1.194-.518 1.82-.864.114 0 .171 0 .342-.115l1.309-.806c.171-.115.455-.23.797-.403.341-.23.91-.345 1.593-.575l1.195-.46h1.194l1.309-.403c.854-.115 1.537.288 2.333-.23 1.65-.115 3.13.288 4.495.576l1.024.058.854.345c1.252.345 2.446.576 3.243 1.381.285.115.455.173.626.288.342.058.513.345.91.633.058.058.228.058.285.058.057 0 .057.172.113.288l1.65.576c.113.115.455.576.797.748l.626.576c.455.23.854 1.036 1.309 1.497l.626.575.228.403c.057.115.284.172.341.23.171.288.171.633.285.863.228.345.455.691.796 1.094 0 .058.171.058.171.058.057.115 0 .172 0 .288l.455.518c.057 0 .285.518.342.633.171.345.341.979.512 1.496.398.979.74 1.669.797 2.763.113.403 0 .921 0 1.381.113.518.342.921.342 1.439.113.346-.058.633-.058 1.036 0 .288.171.288.058.576l-.058.403.058 1.208c0 .633-.342 1.266-.398 1.842 0 .403.057.806 0 1.209-.114.345-.285.633-.398 1.093-.114.346-.114.863-.228 1.151-.114.23-.285.345-.455.69-.285.633-.456 1.381-.854 2.015l-.513.69-.455.749-.512.633c-.058.058-.058.403-.114.576-.057.058-.284.115-.228.288-.398.172-.569.518-1.081.518-.284.576-.455 1.151-.854 1.612-.228.288-.739.633-1.081.921-.342.23-.626.518-1.024.863s-.568.633-1.194.863c-.228.058-.626.058-.854.345l-.114.173c-.341.288-1.081.46-1.593.69l-1.081.288c-.513.23-.854.46-1.423.633-.342.115-.739 0-1.138.173-.342 0-.569.288-.854.288-.91.172-1.992.057-2.902.115-.455.058-.854.23-1.194.23-.569 0-.968-.288-1.423-.46-2.105.633-3.698-.749-5.86-.749-.285-.288-.626-.403-.968-.518-.797-.403-1.423-.748-2.219-1.208-.342-.23-.626-.46-.968-.748 0-.058-.057-.23-.113-.23-.058-.058-.171 0-.171 0-.057-.058-.114-.23-.114-.23-.967-.403-1.707-1.151-2.446-1.784-.797-.691-1.138-1.151-1.764-1.957-.285-.403-.626-.806-.797-1.209-.171-.23-.342-.518-.455-.748-.171-.23-.342-.288-.513-.46 0-.115 0-.23-.057-.345 0 0-.171-.058-.171-.115-.284-.518-.284-1.266-.91-1.727l-.171-1.036-.228-.288-.113-.691c-.057-.288-.171-.46-.171-.748 0-.173.114-.345.171-.518.113-.46 0-1.151-.171-1.612-.057-.172-.171-.345-.284-.46l-.112-.233zm4.779 1.497c.229 0 .513 0 .456-.345-.114-.115-.398-.115-.456 0v.345zm19.858 8.346c.455-.115.968-.288 1.309-.46.455-.173.968-.346 1.252-.518l.797-.749.91-.979c.228-.345.455-.46.683-.69.569-.576.74-.979 1.195-1.727.113-.288.455-.576.512-.749.171-.518.342-1.208.569-1.496.171-.346.284-.691.398-.979.284-.518.626-.979.683-1.324 0-.46-.171-.979-.171-1.497 0-1.036.171-2.129 0-2.993 0-.345-.171-.633-.341-.978-.171-.691-.342-1.439-.569-2.015-.398-.691-.74-1.612-1.081-2.13-.342-.46-.626-.748-.91-1.093-.342-.633-.626-.979-1.024-1.266-.455-.346-.854-.691-1.195-.979-.455-.346-.91-.518-1.252-.806-.512-.288-.967-.461-1.422-.749-.228-.115-.513-.345-.626-.403-.342-.115-.91-.115-1.423-.23-.455-.115-.854-.288-1.252-.345-.568-.058-1.138.058-1.422.115-1.309.288-2.846.173-4.268.345-.513.403-1.195.518-1.707.863-.569.288-.968.863-1.65.979l-1.479 1.497c-.228.288-.797.518-.967.633-.569.518-.968 1.554-1.479 2.187-.171.23-.455.403-.513.633-.17.345-.17.921-.341 1.438l-.342.518c-.057.23-.113.518-.228.806-.284 1.208-.455 2.82-.284 4.259.113 1.036.739 1.957.626 3.051.512.575.512 1.438.854 2.072.171.345.568.691.91 1.151.398.403.626 1.036.967 1.324.114.115.285.172.456.345.341.173.626.403.796.518l.171.23c.513.403.968.864 1.423 1.209.683.518.91.69 1.707.979.568.172 1.024.288 1.536.46.739.172 1.365.058 2.162.403 1.138-.403 2.219 0 3.243-.173.853.003 1.934-.4 2.787-.687zM272.629 254.355c.569 1.208 1.594 1.899 1.594 3.568.228.633 1.194 1.036 1.65 1.727.455.576.568 1.497 1.023 2.417.228.345.683.518 1.024 1.036.228.172.342.69.626.921 1.024 1.439 2.617 2.129 1.479 3.741-1.479.46-3.3.403-4.779.115-1.252-.23-2.504-.115-3.187-.633-.285-.23-.626-1.036-1.024-1.612-.683-1.266-1.195-2.129-1.935-3.396-.683-1.151-.797-1.899-1.65-2.59l-.797-2.129c-.17-.46-.739-.748-.967-1.208-.91-1.612-.512-3.741-1.878-5.008-2.617.403-6.031-.518-8.193.461-.114 2.129.057 4.489.171 6.389.057 1.093-.285 2.129-.228 3.28.057 1.267.341 2.533.284 3.856 0 .518-.171.863-.284 1.381-.114.403-.171.749-.74.863-.455.058-1.081 0-1.536 0-.854.058-1.65.058-2.446.058-.569 0-1.707.288-1.935-.345-.114-.403-.058-.748-.058-1.151l-.057-.863c.057-.863.284-1.611.284-2.36l-.228-.806.228-1.151c.114-2.417-.228-4.777-.228-6.677.058-1.094.626-2.417 0-3.281.968-3.511-.341-7.425.398-10.993-.797-1.439.057-3.05 0-4.604 0-.345-.398-.806-.398-1.208 0-.749.684-1.669-.057-2.36.626-1.439.284-3.684 1.707-4.317 1.252-.46 3.016.346 4.097.346.626 0 1.252-.461 1.878-.518 1.65-.173 3.755 0 5.462.115.968.058 1.821.403 2.731.403.398-.058.797-.23 1.195-.346 1.024 0 2.333.288 3.471.403 3.243.46 4.894 1.267 7.112 2.706.569.345 1.195.863 1.536 1.324.684.806 1.309 1.842 1.252 2.877.968 1.842 1.764 4.835 1.536 6.619-.057.748-.568 1.151-.91 1.842l-.228.979-.455.633c-.171.403-.114.749-.228 1.094-1.138 2.82-4.95 3.626-7.17 5.353-.223 1.438 1.029 1.956.858 3.049zm-20.37-2.014c-.683-.23-.854.46-.626.806.455-.001.626-.346.626-.806zm1.764-7.655c.113-.46-.398-.576-.684-.403.001.403.286.518.684.403zm6.714-.173c.683.058 1.309.345 1.991.345.91 0 1.707-.345 2.504-.345.683 0 1.309.345 1.878.345.967 0 1.877-.575 2.503-.748.455-.173 1.024-.115 1.366-.23 2.162-.749 3.243-2.533 2.845-5.18-.284-1.669-1.707-2.647-3.414-3.338-.967-.403-1.82-.172-2.902-.23-.854-.173-1.649-.46-2.446-.46l-1.479.115c-.512 0-.91-.288-1.365-.288-2.105-.173-4.438-.288-6.031.403-.626 2.475-.285 5.986-.228 8.749.909 1.38 2.9.69 4.778.862zm8.649 6.446c-.057-.288-.171-.518-.512-.518-.114.691-.342 1.324-.342 2.13.854.116.513-1.093.854-1.612zM295.561 231.736v.979c-.057.633-.284 1.381-.341 1.957 0 .921.284 1.842.341 2.877 0 .576-.057 1.151-.113 1.727 0 .575-.058 1.151-.058 1.611 0 .403.114.576.171.979.114.691.114 1.554 0 2.245-.057.345-.171.633-.171.979l.171 1.324-.171.921c-.113.345.114.691.058 1.036l-.058.863.058 1.957-.058.69c0 .806.114 1.324.058 2.015l-.228.979c0 .288.228.633.228 1.151.057.46-.058 1.094-.058 1.842v4.26s-.17.173-.17.288c0 .058.17.23.17.346-.113.345-.228.633-.228 1.036-.057.749.228 1.957-.171 2.82-.17.518-.397.576-1.194.806-.683.172-1.594.172-2.39.115l-1.878.058c-.455 0-1.138.173-1.423-.058-.284-.115-.284-.979-.228-1.266 0-.576 0-1.151.114-1.727.057-.691.284-1.324.341-2.13 0-.69-.284-1.611-.228-2.475l.058-.863c0-1.209-.058-2.59-.058-3.972-.057-.23.058-.518.058-.806 0-.345-.114-.576-.058-.69.058-.633.74-.864.854-1.382.058-.748-.91-1.324-.967-2.187-.114-.345.057-.863.171-1.208.228-.518.568-.576.397-1.266-.113-.115-.113-.403-.17-.46-.058-.23-.342-.23-.398-.691-.114-.518.341-1.381.341-2.129-.057-.518-.455-1.036-.512-1.727-.057-.691.228-1.727.284-2.706l-.113-.978c0-.288.171-.691.171-.864l-.058-.748s.058-.691.058-1.266c0-.23.17-.403.17-.576l-.341-1.036c-.114-.576-.114-1.381-.171-2.014 0-1.036-.057-1.899 0-2.993.057-.288.057-.576.171-.69.113-.46.626-.806.854-1.151.739-.058 1.536-.288 2.275-.23.398.057.74.23 1.081.23.285 0 .684-.173.968-.058.455 0 .739.173 1.081.288.398.115.854 0 1.138.345.172 1.148.286 2.241.172 3.623zM341.763 267.996c-.398 0-.967-.172-1.593-.172h-1.138c-.797 0-1.366-.23-1.935-.23l-1.195.23c-.342-.23-.569-.403-.968-.403-.17-.403-.284-.979-.512-1.382l-.569-1.381-.568-1.382-.797-1.554c0-.403-.171-1.094-.569-1.727-.398-.979-.568-2.302-1.536-2.936-5.633.403-12.347-.345-17.81.403-.569.403-.569.979-.739 1.554-.398.633-.797 1.784-1.366 2.302.171.576-.171.979-.171 1.554-.228.23-.228.633-.228.633-.17.576-.739.979-.967 1.381-.171.748 0 1.727-.74 2.302-.626.403-1.309.23-2.104.23-.398.172-.569.403-.968.403-.797-.23-1.764.172-2.504.172-.796-.172-1.764-.806-1.764-1.554 0-.403.398-1.381.569-1.784.228-.749.967-1.554 1.593-2.36-.228-.576 0-1.324.342-1.669 0-.23.228-.633.398-.806l.796-.979.171-1.554c0-.23.228-.403.398-.576v-.633c.171-.576.797-.979.968-1.381.17-.345 0-.748 0-1.151.17-.173.397-.576.397-.806.171-.172.171-.345.398-.575.171-.576.569-1.151.683-1.957.229-.173.229-.576.229-.749.17-.403.739-.806.967-1.381 0-.23.171-.518.171-.921.228-.23.398-.633.568-.979 0-.23.229-.633.229-.979.397-.633.568-.979.967-1.784l.569-1.381c0-.403.171-.749.398-.979 0-.576.17-.979.568-1.381.171-.346.569-.576.569-.979.228-.576.228-1.151.398-1.727 0-.633.398-1.381.796-1.957.171-.403.342-.806.342-1.324.228-.23.228-.403.228-.576.171-.23.398-.403.398-.633.171-.172.171-.575.171-.748.398-.403.797-.806.797-1.208.17-.403.17-.979.397-1.381 0-.346.74-1.151.968-1.324.341 0 .739 0 1.138-.23l3.414-.173c.398 0 .968-.23 1.594 0 .341 0 .739 0 1.138.173.967.23.967 0 1.536.576.228.23.398.633.569.806.228.576.398 1.151.796 1.554.171.633.398 1.208.797 1.784.171.575.171 1.151.74 1.554-.171.518 0 .749 0 1.151.228.345.397.576.568.979.228.172.398.345.626.748l.342 1.209c.228.978 1.024 1.957 1.194 3.108.398.403.398.979.569 1.381.228.403.569.806.797 1.151 0 .403 0 .633.171.806.228.575.568 1.381.568 2.129.228.403.626.633.74 1.036v.921c.17.345.568.748.796 1.151.171.173.342.576.342.806.398.749.626 1.554.967 2.302v.979c.229.633.797.806.968 1.209 0 .172.228.575.398.806.228.576.398 1.324.797 2.129.17.576.796 1.784 1.138 2.533.398.576.797 1.324 1.194 2.129l.171.748c.398.633.569 1.382.797 2.36.171.23 0 .403 0 .576.171 0 .569.633.398.979-.396.406-.624.637-.965.809zm-28.393-21.238c.171-.575-.398-.806-.797-.575 0 .575.626.748.797.575zm12.347-1.957c-.397-.23-.568-.806-.796-1.209 0-.345-.342-.576-.342-.748 0-.403 0-.806-.228-1.208 0-.346-.398-.749-.739-1.151 0-.403 0-.576-.228-.806-.171-.749-.569-1.381-.968-2.13-.171-.575-.398-1.381-.968-1.208-.341.633-.512 1.208-.739 1.784l-.342.576c0 .23 0 .403-.228.806-.17.403-.568.576-.568.979-.171.403-.171.806-.171 1.151-.228.633-.626.978-.797 1.381-.171.403-.171.979-.398 1.382-.398.806-.739 1.381-1.138 2.129-.228 1.151-1.195 1.554-.967 3.281 1.138.403 2.332.23 3.641 0h3.244c.398.23.796.403 1.194.403.398-.173.968-.403 1.366-.403.568-.173 1.309.23 1.935-.173 0-.979-.626-1.784-.968-2.302-.226-.807-.624-1.556-.795-2.534zm1.366-6.101h-.398c-.171.403-.171.979.398.979v-.979zm2.105 15.828c.228-.403-.569-.403-.569-.173.171.173.399.346.569.173zm8.08 5.698c.398-.576-.398-1.208-.568-.576-.001.346-.001.749.568.576zM74.213 284.995c.398.863.285 2.417-.228 3.166-1.479.518-3.243-.115-4.836 0-.455.058-.797.288-1.139.288-.796.058-1.479-.23-2.332-.288-1.024 0-2.163.173-3.357.115l-1.365-.346c-.911 0-1.936.403-3.073.403-2.048.115-4.268-.346-6.146-.288-.397 0-.739.23-1.194.23-.968 0-2.561-.518-3.13 0-.739.575-.341 1.842-.284 2.763.113 1.842 0 4.432.228 5.986 1.365.518 3.016.23 4.609.23 2.845-.058 5.86.23 8.648.058 2.446-.115 5.405-.288 7.625.23.455 1.842-.285 4.547 0 6.561-.854 1.324-3.017.518-4.382.518l-1.82.288c-.626.115-1.139-.115-1.765-.115-2.503-.23-5.405.345-7.795.115-1.707-.058-3.414-.288-5.064 0-.739 1.381-.284 3.166-.284 4.777 0 .518-.228 1.036-.228 1.497l.284 1.669c.057.576-.113 1.094-.228 1.784 0 1.612.398 3.166.398 4.835 0 .403.057 1.324-.398 1.669-.341.23-.91.173-1.252.173-.967 0-1.82-.173-2.73-.173-.684-.058-1.423.115-2.105 0-.171-.058-.285-.115-.455-.115-.058-.058-.285-.058-.342-.058-.114-.23-.057-.749-.057-.863-.058-.288-.058-.633-.058-.921.058-.23.114-.46.114-.633 0-.288-.057-.576-.057-.979-.058-.921-.171-1.899-.058-2.878.058-1.036.285-2.072.285-3.05.057-1.381-.171-2.82-.228-4.317l.113-10.705c0-1.094.228-2.245.228-3.223-.057-1.151-.341-2.13-.341-3.108.057-1.093.341-2.302.341-3.453 0-1.554-.626-4.662.569-5.468.512-.23 2.105-.288 3.016-.288 1.138.058 2.333.46 3.243.46 2.105 0 3.927-.23 5.69-.518 3.016.345 6.601.288 10.128.518 2.902.115 5.804-.403 8.479-.518 1.023-.058 2.162-.288 2.788.518.003.979.287 2.475-.055 3.454zm-30.897 16.921c-.057.23-.228.691 0 .806.626.403.911-.979 0-.806zm11.039-2.129c0-.288-.114-.403-.455-.46-.114.172-.285.172-.228.46.114.172.569.172.683 0zM119.621 321.658c-.398 0-.967-.172-1.593-.172h-1.138c-.797 0-1.366-.23-1.935-.23l-1.195.23c-.342-.23-.569-.403-.968-.403-.17-.403-.284-.978-.512-1.381l-.569-1.382-.568-1.381-.797-1.554c0-.403-.171-1.094-.569-1.727-.398-.979-.568-2.302-1.536-2.936-5.633.403-12.347-.345-17.81.403-.569.403-.569.979-.739 1.554-.398.633-.797 1.784-1.366 2.302.171.575-.171.979-.171 1.554-.228.23-.228.633-.228.633-.17.576-.739.979-.967 1.381-.171.748 0 1.727-.74 2.302-.626.403-1.309.23-2.104.23-.398.173-.569.403-.968.403-.797-.23-1.764.172-2.504.172-.796-.172-1.764-.806-1.764-1.554 0-.403.398-1.381.569-1.785.228-.748.967-1.554 1.593-2.359-.228-.576 0-1.324.342-1.669 0-.23.228-.633.398-.806l.796-.979.171-1.554c0-.23.228-.403.398-.575v-.633c.171-.576.797-.979.968-1.381.17-.345 0-.748 0-1.151.17-.173.397-.576.397-.806.171-.172.171-.345.398-.575.171-.576.569-1.151.683-1.957.229-.173.229-.576.229-.748.17-.403.739-.806.967-1.382 0-.23.171-.518.171-.921.228-.23.398-.633.568-.978 0-.23.229-.633.229-.979.397-.633.568-.979.967-1.784l.569-1.381c0-.403.171-.749.398-.979 0-.576.17-.979.568-1.381.171-.345.569-.576.569-.979.228-.576.228-1.151.398-1.727 0-.633.398-1.381.796-1.957.171-.403.342-.806.342-1.324.228-.23.228-.403.228-.576.171-.23.398-.403.398-.633.171-.172.171-.575.171-.748.398-.403.796-.806.796-1.208.171-.403.171-.979.398-1.381 0-.346.74-1.151.968-1.324.341 0 .739 0 1.138-.23l3.414-.173c.398 0 .968-.23 1.594 0 .341 0 .739 0 1.138.173.967.23.967 0 1.536.576.228.23.398.633.569.806.228.576.398 1.151.796 1.554.171.633.398 1.208.797 1.784.171.576.171 1.151.74 1.554-.171.518 0 .749 0 1.151.228.345.397.576.568.979.228.172.398.345.626.748l.342 1.208c.228.979 1.024 1.957 1.194 3.108.398.403.398.979.569 1.381.228.403.569.806.797 1.151 0 .403 0 .633.171.806.228.576.568 1.382.568 2.13.228.403.626.633.74 1.036v.921c.17.345.568.748.796 1.151.171.173.342.576.342.806.398.749.626 1.554.967 2.302v.979c.229.633.797.806.968 1.209 0 .172.228.575.398.806.228.576.398 1.324.797 2.129.17.576.796 1.784 1.138 2.533.398.575.797 1.324 1.194 2.129l.171.749c.398.633.569 1.381.797 2.359.171.23 0 .403 0 .576.171 0 .569.633.398.979-.396.403-.623.633-.965.806zm-28.392-21.239c.171-.575-.398-.806-.797-.575 0 .575.626.748.797.575zm12.346-1.956c-.397-.23-.568-.806-.796-1.209 0-.345-.342-.575-.342-.748 0-.403 0-.806-.228-1.209 0-.345-.398-.748-.739-1.151 0-.403 0-.576-.229-.806-.17-.749-.568-1.381-.967-2.13-.171-.575-.398-1.381-.968-1.208-.341.633-.512 1.208-.739 1.784l-.342.576c0 .23 0 .403-.228.806-.17.403-.568.576-.568.979-.171.403-.171.806-.171 1.151-.228.633-.626.979-.797 1.382-.171.403-.171.978-.398 1.381-.398.806-.739 1.382-1.138 2.13-.228 1.151-1.195 1.554-.968 3.281 1.139.403 2.333.23 3.643 0h3.243c.397.23.796.403 1.194.403.398-.173.968-.403 1.366-.403.568-.173 1.309.23 1.935-.173 0-.979-.626-1.784-.968-2.302-.225-.808-.624-1.556-.795-2.534zm1.366-6.101h-.398c-.171.403-.171.979.398.979v-.979zm2.106 15.827c.228-.403-.569-.403-.569-.172.17.172.398.345.569.172zm8.079 5.699c.398-.576-.398-1.208-.568-.576 0 .346 0 .749.568.576zM160.989 315.211c.057.403.171.979.171 1.381 0 .576-.171 1.151-.171 1.612 0 .921.398 1.899 0 2.532-.626.921-2.446.288-3.756.403-.512.115-.91.403-1.309.403l-1.138-.23s-.569.23-.797.23c-.17 0-.228-.115-.398-.173-.17 0-.625 0-.854-.058-.397-.058-.625-.23-.967-.23-.512-.057-1.024.173-1.536.23-.569 0-1.139-.058-1.707 0-.513 0-1.081.115-1.479.058-.569-.058-1.081-.403-1.536-.403-.513 0-.911.288-1.366.345-.398 0-.796-.058-1.138-.173-.626-.058-1.081-.058-1.536 0-.455.173-1.081.288-1.536.23-.513 0-1.139-.288-1.992-.288-.341-.057-.854.058-1.309.058l-1.365-.058-.74.058c-.228 0-.397-.115-.625-.058l-1.423.23c-.342 0-.797-.173-1.195-.173-.455 0-1.023.115-1.422 0-1.878-.058-2.618-.345-2.959-1.496-.342-.979-.057-1.957-.114-3.223 0-.576-.113-1.209-.113-1.612l.228-1.094c0-.288-.114-.633-.114-.978l.114-.979c-.057-.691-.228-1.439-.228-1.957l.113-.691c-.057-.748-.341-1.496-.341-2.245 0-.057.057-.403.113-.518v-.518c.114-.518.228-.863.228-1.267l-.228-.979c0-.345.285-.575.342-.921-.342-.345-.398-.69-.455-1.036-.058-.518.113-.863.113-1.151l-.171-.979.058-1.266c0-.921.057-1.842 0-2.647 0-.403-.171-.921-.058-1.324 0-.288.171-.633.171-.979s-.113-.806-.113-1.151c0-1.036-.171-2.245-.228-3.453-.058-1.727.17-3.396.17-4.95-.113-.749-.228-1.842.171-2.302.513-.518 2.22-.346 3.073-.346.341.058.854.115 1.081.115s.512-.23.626-.23c1.081-.115 1.707.172 2.104.575.285.346 0 .806 0 1.151 0 .46.228.806.114 1.324-.171.748-1.081 1.036-1.138 1.784l.967.921c-.171.921.342 1.899.171 2.878-.057.576-.398.979-.398 1.497 0 .345.398 1.036.398 1.554 0 .346-.342.806-.342 1.324 0 .288.228.691.228 1.036l.114 2.187c.113 1.209-.057 2.36-.057 3.569 0 .748.17 1.381.17 2.187.058.633-.113 1.151-.228 1.784-.057.518.114.921.285 1.381.057.46 0 .979-.058 1.439 0 .863-.284 1.669-.228 2.532.058.288.228.518.228.749.058.172-.113.46-.113.576-.057.863.113 1.554 0 2.302.455.346.797.576 1.195.749.683.115 1.251-.23 1.991-.23.854-.057 1.764.23 2.731.23.626 0 1.251-.173 1.707-.173 1.309.173 3.698.173 5.234 0 .398 0 .797-.115 1.309-.23.683-.058 1.423.172 2.162.172.398 0 .797-.172 1.252-.172.228 0 .683.23 1.024.23.398 0 .797-.23 1.252-.23l1.138.23c.512.058 1.081-.058 1.536-.058 1.707-.172 3.072-.518 4.495-.345.402.293.231.753.402 1.328zm-31.75-9.727h.228v-.46c-.342-.115-.342.173-.228.46zm.626-1.553c.057-.518-.114-.633-.569-.576-.057.403.114.633.569.576zm.17-3.569c.285.057.342-.173.513-.288-.057-.345-.228-.576-.569-.576l-.228.23.284.634zM202.584 315.211c.057.403.171.979.171 1.381 0 .576-.171 1.151-.171 1.612 0 .921.398 1.899 0 2.532-.626.921-2.446.288-3.756.403-.512.115-.91.403-1.309.403l-1.138-.23s-.569.23-.797.23c-.17 0-.228-.115-.398-.173-.17 0-.625 0-.854-.058-.397-.058-.625-.23-.967-.23-.512-.057-1.024.173-1.536.23-.569 0-1.139-.058-1.707 0-.513 0-1.081.115-1.479.058-.569-.058-1.081-.403-1.536-.403-.513 0-.911.288-1.366.345-.397 0-.796-.058-1.138-.173-.626-.058-1.081-.058-1.536 0-.455.173-1.081.288-1.536.23-.513 0-1.139-.288-1.992-.288-.341-.057-.854.058-1.309.058l-1.365-.058-.74.058c-.228 0-.397-.115-.625-.058l-1.423.23c-.342 0-.797-.173-1.195-.173-.455 0-1.023.115-1.422 0-1.878-.058-2.618-.345-2.959-1.496-.342-.979-.057-1.957-.114-3.223 0-.576-.113-1.209-.113-1.612l.228-1.094c0-.288-.114-.633-.114-.978l.114-.979c-.057-.691-.228-1.439-.228-1.957l.113-.691c-.057-.748-.341-1.496-.341-2.245 0-.057.057-.403.113-.518v-.518c.114-.518.228-.863.228-1.267l-.228-.979c0-.345.285-.575.342-.921-.342-.345-.398-.69-.455-1.036-.058-.518.113-.863.113-1.151l-.171-.979.058-1.266c0-.921.057-1.842 0-2.647 0-.403-.171-.921-.058-1.324 0-.288.171-.633.171-.979s-.113-.806-.113-1.151c0-1.036-.171-2.245-.228-3.453-.058-1.727.17-3.396.17-4.95-.113-.749-.228-1.842.171-2.302.513-.518 2.22-.346 3.073-.346.341.058.854.115 1.081.115s.512-.23.626-.23c1.081-.115 1.707.172 2.104.575.285.346 0 .806 0 1.151 0 .46.228.806.114 1.324-.171.748-1.081 1.036-1.138 1.784l.967.921c-.171.921.342 1.899.171 2.878-.057.576-.398.979-.398 1.497 0 .345.398 1.036.398 1.554 0 .346-.342.806-.342 1.324 0 .288.228.691.228 1.036l.114 2.187c.113 1.209-.057 2.36-.057 3.569 0 .748.17 1.381.17 2.187.058.633-.113 1.151-.228 1.784-.057.518.114.921.285 1.381.057.46 0 .979-.058 1.439 0 .863-.284 1.669-.228 2.532.058.288.228.518.228.749.058.172-.113.46-.113.576-.057.863.113 1.554 0 2.302.455.346.797.576 1.195.749.683.115 1.251-.23 1.991-.23.854-.057 1.764.23 2.731.23.625 0 1.251-.173 1.707-.173 1.309.173 3.698.173 5.234 0 .398 0 .797-.115 1.309-.23.683-.058 1.423.172 2.162.172.398 0 .797-.172 1.252-.172.228 0 .683.23 1.024.23.398 0 .797-.23 1.252-.23l1.138.23c.512.058 1.081-.058 1.536-.058 1.707-.172 3.072-.518 4.495-.345.402.293.231.753.402 1.328zm-31.75-9.727h.228v-.46c-.342-.115-.342.173-.228.46zm.626-1.553c.057-.518-.114-.633-.569-.576-.057.403.114.633.569.576zm.17-3.569c.285.057.342-.173.513-.288-.057-.345-.228-.576-.569-.576l-.228.23.284.634zM239.798 294.549c-1.139-.058-2.276.058-2.959-.403-.911.058-1.423-.115-1.878-.403-.342-.403-.228-.921-.342-1.324-.17-.403-.341-.518-.626-.806-.625-.69-1.251-1.554-1.935-2.245-.796-.172-1.536-.806-2.39-1.093-.455-.173-1.194-.173-1.707-.288-.171-.058-.341-.23-.398-.288-.284 0-.626.058-.91 0-.171 0-.341-.115-.512-.23-.228 0-.455 0-.626-.058-.228-.058-.455-.115-.626-.115-.398 0-.683.288-1.081.345s-.797-.058-1.138 0c-.285.058-.569.173-.911.345-.228.058-.568.058-.796.173-.626.23-1.024.748-1.707.748-.797.633-1.366 1.554-2.049 2.36-.057 1.036-.057 2.245.683 2.82.171.058.342.058.626.173.626.288 1.081.633 1.878.863l.797.115c.455.057.967.345 1.309.403h1.707c.854.058 1.593.288 2.39.403.398.115.797.115 1.194.172.456.058.74.288 1.082.288.341.058.683 0 .967 0 .057 0 .057.115.228.115.114 0 .171-.115.513-.115.625.115 1.251.633 1.935.46.455.345 1.138.46 1.991.46.455.403 1.024.518 1.593.748.455.288.911.633 1.479.921.398.173.797.288 1.195.518.113 0 .113.173.171.23.397.23 1.138.633 1.479 1.036.114.173.114.403.342.691 0 .058.114.115.228.172l.057.288.398.576c.342.518.626 1.151.854 1.842.285.69.626 1.208.797 2.245v1.266c.057 1.151.113 2.015-.626 2.763-.171.518.171.518.171.979-.513.46-.342 1.151-.683 1.727-.285.691-1.309 1.094-1.309 2.129-.626.461-1.252.979-1.594 1.727-.626.172-.797.518-1.252.921-.512.345-1.081.576-1.878.979l-.057.23c-.284.115-.626.173-.91.345-.228.058-.284.115-.342.173-.512.23-1.138.345-1.593.576-.342.058-.74.23-1.138.403-.342.058-.684.058-1.252.115-.455 0-1.252.288-2.105.288-.512.058-1.138-.058-1.764-.058l-1.423.058c-.284 0-.739-.23-1.138-.23l-1.024.173c-.342-.058-.683-.23-.91-.345-.569-.23-1.65-.058-2.162-.345-.171-.058-.285-.288-.456-.288-.455-.172-.91-.058-1.309-.288-.228-.058-.512-.23-.796-.403-.171-.058-.513-.173-.74-.288l-.91-.863c-.284-.115-.683-.115-.968-.345-.341-.115-.568-.576-.796-.806l-.342-.173c-.569-.345-.91-1.093-1.365-1.669l-.91-.863c-.684-.864-1.024-2.13-1.537-2.878-.057-.691.626-.691.626-1.324-.228-.403-.683.172-.967-.173-.285-.921-.228-2.187-.342-3.281.455-.576.968-.345 1.479-.345.228 0 .284.115.398.115.228 0 .228-.115.342-.115.284.058.512.173.739.173.342 0 .569-.115.854-.173.569-.058 2.162-.173 2.446.115.114.058.114.23.171.288s.228.173.285.173c.113.46-.114.863 0 1.497 0 .115.228.403.284.575.113.23.171.403.341.633.058.23.228.345.398.518.114.23.171.518.342.633.398.633 1.081 1.324 1.764 1.727.114.115.114.057.284.115.058.115.171.173.228.23.229.23.854.23 1.195.345.228.058.569.23.854.288.455.173 1.081.346 1.707.691.683-.23 1.309.173 1.935.345.228 0 .284-.172.342-.172.284 0 .683.172 1.081.23.228 0 .91-.23 1.365-.345.74-.058 1.365-.173 2.105-.288.739-.23 1.252-.346 1.935-.691.342-.115.683-.115.91-.288.171-.058.285-.173.398-.346.91-.575 1.935-1.324 2.39-2.475-.113-.576.171-1.209 0-1.899-.057-.288-.341-.691-.512-.979-.171-.173-.285-.345-.569-.518-.341-.23-.739-.46-1.138-.748l-.626-.288c-.398-.115-1.252-.23-2.049-.345-.796-.115-1.479-.345-2.503-.518-.342-.115-.569-.172-.911-.23-.796-.115-1.536-.115-2.219-.23-.228-.058-.569-.23-.91-.345l-1.138-.058-1.024-.46h-.911c-.625-.058-1.251-.46-1.877-.288-.342-.173-.626-.403-.968-.518-.398-.173-.967-.115-1.365-.23-.74-.23-1.252-.806-2.049-.748-.228-.23-.398-.46-.739-.633-.171-.115-.513-.345-.797-.518-.171-.172-.398-.23-.512-.345-.171-.172-.455-.518-.569-.748-.057-.115-.228-.23-.342-.46-.284-.46-.739-1.151-1.023-1.669-.114-.23-.114-.518-.171-.633-.284-.46-.513-.979-.683-1.727-.114-.46-.285-1.036-.285-1.324 0-.23.171-.633.171-1.094l-.113-1.151c.057-.288.113-.46.228-.806.057-.345.057-.806.113-.979.114-.345.455-.518.626-.863s.284-.748.455-1.036c.058-.23.342-.345.455-.575.114-.058.114-.115.171-.173.342-.345.74-1.094 1.138-1.554.285-.23.626-.46.968-.748.284-.23.512-.518.854-.748.683-.403 1.536-.633 1.991-1.267 1.024.058 1.594-.345 2.22-.806.512-.23 1.023-.518 1.764-.748.284 0 .569-.115.739-.173.513-.058.854.058 1.309-.058.342-.172.398 0 .854 0 .968 0 2.105-.23 3.301 0 .228 0 .683.115.91.173.512.172.968.288 1.764.403.74.173 1.195.23 1.707.403 1.024.518 2.333.979 3.357 1.554.171.115.284.345.512.403.285.115.569.115.684.288l.284.173c.057.058.171.23.398.288 0 .058.171.115.171.115.284.288.455.691.796 1.094.228.345.74.575.91.863l.342.921c.342.633 1.024 1.036 1.365 1.611.058.288.114.633.229.863l.17.346v.518l.342.748.057.921c.171.576.569.979.342 1.554-.345.46-1.085.229-1.767.172z"/></g></svg>