<svg xmlns="http://www.w3.org/2000/svg" width="384" height="550"><g fill="#fff"><g stroke="#fff" stroke-width="3" stroke-miterlimit="10"><polygon points="76.83,239 58.974,260.438 41.017,239 35.999,239 56.5,263.406 56.5,293 61.5,293 61.5,263.406 81.898,239"/><path d="M95.349 256.124c-5.126 0-9.412 1.77-12.858 5.307-3.447 3.538-5.17 7.954-5.17 13.248 0 5.268 1.723 9.665 5.17 13.189 3.446 3.525 7.732 5.288 12.858 5.288 5.125 0 9.399-1.763 12.82-5.288s5.132-7.921 5.132-13.189c0-5.293-1.71-9.709-5.132-13.248-3.421-3.538-7.694-5.307-12.82-5.307zm9.957 29.11c-2.666 2.802-5.984 4.203-9.957 4.203-3.998 0-7.336-1.4-10.014-4.203-2.679-2.802-4.018-6.32-4.018-10.556 0-4.261 1.339-7.799 4.018-10.614 2.677-2.814 6.016-4.222 10.014-4.222 3.946 0 7.259 1.42 9.938 4.261 2.678 2.841 4.017 6.366 4.017 10.575 0 4.236-1.333 7.754-3.998 10.556zM128.713 266h-.213v-9h-4v36h4v-22.931c4-6.818 7.833-10.227 11.37-10.227 1.793 0 4.179 1.356 7.127 4.067l2.199-3.563c-3.102-2.814-5.801-4.32-8.108-4.32-4.024 0-8.146 3.974-12.375 9.974z"/><polygon points="185.796,257 180.844,257 161.309,274.109 183.628,293 188.795,293 166.456,274.093"/><rect x="157.5" y="239" width="3" height="54"/><path d="M208.65 272.842c-4.006-1.56-6.454-2.848-7.343-3.865-.888-1.017-1.332-2.131-1.332-3.341 0-1.7.73-3.128 2.191-4.287 1.46-1.158 3.386-1.738 5.514-1.738 2.87 0 5.819 1.214 9.819 3.641v-4.106c-4-2.014-6.693-3.021-9.589-3.021-3.178 0-5.942.949-8.158 2.847-2.217 1.898-3.358 4.203-3.358 6.915 0 1.911.579 3.648 1.771 5.21 1.192 1.562 3.784 3.146 7.794 4.748 4.01 1.604 6.466 2.928 7.377 3.973.911 1.045 1.364 2.187 1.364 3.426 0 1.807-.7 3.291-2.096 4.452-1.397 1.161-3.001 1.742-5.178 1.742-3.229 0-6.926-1.084-10.926-3.254v3.719c3 2.169 6.863 3.254 10.425 3.254 3.28 0 5.943-.949 8.173-2.847s3.298-4.228 3.298-6.992c0-2.066-.638-3.938-1.868-5.617-1.23-1.679-3.872-3.298-7.878-4.859zM244.372 256.114c-4.819 0-8.701 2.886-11.648 6.886h-.224v-24h-4v54h4v-25.527c3-5.087 6.892-7.631 11.48-7.631 6.407 0 9.52 4.106 9.52 12.318v20.84h4v-22.35c0-4.519-1.182-8.075-3.566-10.657-2.383-2.582-5.564-3.879-9.562-3.879z"/><rect x="271.5" y="239" width="3" height="6"/><rect x="271.5" y="257" width="3" height="36"/><path d="M292.495 266h.005v-9h-4v36h4v-22.931c4-6.818 7.724-10.227 11.261-10.227 1.793 0 4.125 1.356 7.072 4.067l2.172-3.563c-3.102-2.814-5.815-4.32-8.121-4.32-4.025 0-8.161 3.974-12.389 9.974zM324.244 285.292c-2.819-2.763-4.229-5.795-4.229-9.772 0-.62.039-1.521.115-1.521h27.871c0-6-1.513-9.822-4.536-12.908-3.024-3.086-6.728-4.799-11.11-4.799-4.665 0-8.534 1.627-11.609 5.048-3.075 3.422-4.613 7.699-4.613 12.915 0 5.5 1.666 10.012 4.997 13.575 3.332 3.564 7.604 5.335 12.704 5.335 5.022 0 9.665-1.585 13.665-4.736v-4.3c-4 3.538-8.719 5.307-13.204 5.307-3.843.001-7.232-1.38-10.051-4.144zm.596-22.35c2.114-1.82 4.619-2.547 7.515-2.547 6.125 0 9.854 3.604 11.187 10.604h-22.911c.692-3.999 2.095-6.236 4.209-8.057z"/></g><rect x="41" y="305.5" width="307" height="6"/></g></svg>