<svg xmlns="http://www.w3.org/2000/svg" width="384" height="550"><g fill="#fff"><path d="M74.96 268.599l-4.416-3.447 33.152-8.288-19.036 53.481 19.037-4.759-4.416 5.656-21.209 5.302 19.11-53.499-22.222 5.554zm-4.415 55.049l19.109-53.499-19.109 4.777 4.487-5.672 21.209-5.303-19.11 53.499 22.15-5.538 4.416 3.447-33.152 8.289zM146.115 245.813v41.857c0 4.701-1.81 9.406-4.85 13.299-2.968 3.802-7.094 6.772-11.726 7.93-4.56 1.141-8.686.232-11.726-2.067-2.968-2.391-4.85-6.174-4.85-10.874v-41.857l4.488 3.429v37.306c0 6.864 5.429 11.103 12.088 9.439 6.732-1.684 12.161-8.637 12.161-15.501v-37.306l4.415-5.655zm-28.085 48.878v-37.306l4.487-5.673v41.857c0 2.015.797 3.606 2.027 4.642 1.303 1.016 3.04 1.328 4.995.839 1.954-.488 3.764-1.686 4.994-3.337 1.303-1.669 2.099-3.659 2.099-5.673v-41.857l4.415 3.447v37.306c0 6.566-5.139 13.073-11.509 14.74-6.369 1.52-11.508-2.419-11.508-8.985zM184.696 265.938c3.04 2.373 4.922 6.155 4.922 10.856v17.086l-4.488-3.429v-12.535c0-3.731-1.592-6.69-4.126-8.369-1.448-.906-3.258-1.499-5.212-1.458 1.954-.937 3.764-2.359 5.212-4.063 2.533-2.947 4.126-6.703 4.126-10.434 0-6.938-5.428-11.178-12.088-9.513l-12.161 3.04v49.394l-4.415 5.655v-58.496l16.576-4.144c4.56-1.141 8.686-.306 11.654 2.086 3.04 2.3 4.922 6.081 4.922 10.856 0 4.7-1.882 9.425-4.922 13.319l-.072.093c0 .074.072.056.072.056zm-11.654 2.54l-7.094 1.773-4.415 1.104v-23.726l11.509-2.877c6.298-1.575 11.437 2.438 11.437 9.004 0 3.657-1.592 7.263-4.053 10.042-2.027 2.295-4.561 3.973-7.384 4.68zm11.437 9.601v12.535l-4.415 5.655v-17.086c0-2.015-.796-3.606-2.027-4.641-1.303-.942-3.04-1.33-4.995-.841l-7.094 1.773v24.324l-4.415-3.447v-24.399l11.509-2.877c2.823-.632 5.357-.22 7.384.989 2.461 1.549 4.053 4.434 4.053 8.015zm-18.53-12.454l7.094-1.773c1.955-.489 3.692-1.744 4.995-3.338 1.231-1.651 2.027-3.641 2.027-5.656s-.796-3.681-2.027-4.641c-1.303-1.018-3.04-1.404-4.995-.916l-7.094 1.773v14.551zM204.168 236.297l-4.416-3.447 24.249-6.062-4.416 5.655-15.417 3.854zm0 48.722l-4.416-3.447 7.383-1.846v-38.947l-7.383 1.846 4.416-5.73 7.384-1.846v48.124l-7.384 1.846zm15.418-3.182l4.416 3.447-24.249 6.062 4.416-5.656 15.417-3.853zm4.415-45.274l-7.383 1.846v38.947l7.383-1.846-4.416 5.655-7.383 1.846v-48.124l7.383-1.846 4.416 3.522zM263.451 233.937c0-6.864-5.429-11.103-12.161-9.419-6.66 1.664-12.088 8.618-12.088 15.482v24.399c0 6.864 5.428 11.103 12.088 9.439 6.731-1.684 12.161-8.637 12.161-15.501l4.415-5.729v4.626c0 4.701-1.809 9.407-4.849 13.299-2.968 3.802-7.094 6.772-11.726 7.93-4.56 1.141-8.686.232-11.726-2.067-2.968-2.391-4.85-6.174-4.85-10.874v-24.399c0-4.7 1.882-9.423 4.85-13.299 3.04-3.819 7.166-6.791 11.726-7.931 4.632-1.158 8.758-.249 11.726 2.068 3.04 2.374 4.849 6.174 4.849 10.874v4.627l-4.415-3.525zm-5.067 5.819v-4.552c0-2.014-.797-3.606-2.099-4.623-1.23-.961-3.04-1.329-4.994-.841-1.955.489-3.692 1.744-4.995 3.339-1.231 1.65-2.099 3.659-2.099 5.672v24.399c0 2.015.869 3.588 2.099 4.624 1.303 1.016 3.04 1.328 4.995.839 1.954-.488 3.764-1.686 4.994-3.337 1.303-1.669 2.099-3.659 2.099-5.673v-4.626l4.415 3.522c0 6.566-5.139 13.073-11.509 14.74-6.37 1.519-11.509-2.42-11.509-8.986v-24.399c0-6.491 5.139-13.147 11.509-14.739 6.369-1.593 11.509 2.494 11.509 8.985l-4.415 5.656zM282.633 216.681v49.394l-4.416 5.655v-58.496l4.416 3.447zm23.453-5.863v23.653l-22.801 5.7v-23.653l4.415-5.655v23.652l13.97-3.493v-23.652l4.416 3.448zm-22.801 29.949l22.801-5.7v25.145l-4.416 5.655v-25.07l-13.97 3.493v25.07l-4.415-3.447v-25.146zm27.867-35.767v58.496l-4.415-3.447v-49.393l4.415-5.656z"/><polygon points="314.143,273.188 69.857,334.968 74.744,338.306 309.256,278.97"/><polygon points="314.143,283.22 69.857,345 74.744,339.218 309.256,279.882"/></g></svg>