<svg width="32" height="232" viewBox="0 0 32 232" xmlns="http://www.w3.org/2000/svg"><title>accessibility</title><g fill="none"><path d="M25.909 129.585h-19.816c-.879 0-1.593.707-1.593 1.576v19.264c0 .869.714 1.575 1.593 1.575h19.816c.876 0 1.591-.706 1.591-1.575v-19.264c0-.869-.714-1.576-1.591-1.576zm-14.635 20.684h-.302l.001-.002v-7.379h.301v7.381zm9.884 0h-.303v-7.381h.303v7.381zm4.456 0h-2.467v-7.381h.486c.415 0 .796-.322.796-.787v-5.607c0-.594-.475-1.084-1.099-1.084h-4.631c-.572 0-1.094.439-1.094 1.084v5.607c0 .459.385.787.795.787h.465v7.379l.001.001-5.599.001.001-.002v-7.379h.483c.416 0 .793-.322.793-.787v-5.607c0-.594-.471-1.084-1.094-1.084h-4.633c-.572 0-1.095.439-1.095 1.084v5.607c0 .459.386.787.796.787h.464v7.38l-2.731.001v-18.917h19.363v18.917zm-.912-25.353l.005-2.331-2.692 2.665v-5.25h-1.722v5.27l-2.707-2.683v2.325l3.558 3.524 3.559-3.52zm-14.554 3.52h1.722l.001-5.267 2.706 2.68v-2.324l-3.56-3.525-3.561 3.525-.002 2.329 2.693-2.667v5.249zm1.005 6.522c.828 0 1.493-.66 1.493-1.475 0-.814-.665-1.474-1.493-1.474-.824 0-1.493.66-1.493 1.474 0 .815.668 1.475 1.493 1.475zm9.883 0c.825 0 1.493-.66 1.493-1.474s-.668-1.475-1.493-1.475c-.826 0-1.495.661-1.495 1.475 0 .814.669 1.474 1.495 1.474zm0 0" fill="#206FAC"/><path d="M25.909 89.585h-19.816c-.879 0-1.593.707-1.593 1.576v19.264c0 .869.714 1.575 1.593 1.575h19.816c.876 0 1.591-.706 1.591-1.575v-19.264c0-.869-.714-1.576-1.591-1.576zm-14.635 20.684h-.302l.001-.002v-7.379h.301v7.381zm9.884 0h-.303v-7.381h.303v7.381zm4.456 0h-2.467v-7.381h.486c.415 0 .796-.322.796-.787v-5.607c0-.594-.475-1.084-1.099-1.084h-4.631c-.572 0-1.094.439-1.094 1.084v5.607c0 .459.385.787.795.787h.465v7.379l.001.001-5.599.001.001-.002v-7.379h.483c.416 0 .793-.322.793-.787v-5.607c0-.594-.471-1.084-1.094-1.084h-4.633c-.572 0-1.095.439-1.095 1.084v5.607c0 .459.386.787.796.787h.464v7.38l-2.731.001v-18.917h19.363v18.917zm-.912-25.353l.005-2.331-2.692 2.665v-5.25h-1.722v5.27l-2.707-2.683v2.325l3.558 3.524 3.559-3.52zm-14.554 3.52h1.722l.001-5.267 2.706 2.68v-2.324l-3.56-3.525-3.561 3.525-.002 2.329 2.693-2.667v5.249zm1.005 6.522c.828 0 1.493-.66 1.493-1.475 0-.814-.665-1.474-1.493-1.474-.824 0-1.493.66-1.493 1.474 0 .815.668 1.475 1.493 1.475zm9.883 0c.825 0 1.493-.66 1.493-1.474s-.668-1.475-1.493-1.475c-.826 0-1.495.661-1.495 1.475 0 .814.669 1.474 1.495 1.474zm0 0" fill="#fff"/><path d="M25.909 49.585h-19.816c-.879 0-1.593.707-1.593 1.576v19.264c0 .869.714 1.575 1.593 1.575h19.816c.876 0 1.591-.706 1.591-1.575v-19.264c0-.869-.714-1.576-1.591-1.576zm-14.635 20.684h-.302l.001-.002v-7.379h.301v7.381zm9.884 0h-.303v-7.381h.303v7.381zm4.456 0h-2.467v-7.381h.486c.415 0 .796-.322.796-.787v-5.607c0-.594-.475-1.084-1.099-1.084h-4.631c-.572 0-1.094.439-1.094 1.084v5.607c0 .459.385.787.795.787h.465v7.379l.001.001-5.599.001.001-.002v-7.379h.483c.416 0 .793-.322.793-.787v-5.607c0-.594-.471-1.084-1.094-1.084h-4.633c-.572 0-1.095.439-1.095 1.084v5.607c0 .459.386.787.796.787h.464v7.38l-2.731.001v-18.917h19.363v18.917zm-.912-25.353l.005-2.331-2.692 2.665v-5.25h-1.722v5.27l-2.707-2.683v2.325l3.558 3.524 3.559-3.52zm-14.554 3.52h1.722l.001-5.267 2.706 2.68v-2.324l-3.56-3.525-3.561 3.525-.002 2.329 2.693-2.667v5.249zm1.005 6.522c.828 0 1.493-.66 1.493-1.475 0-.814-.665-1.474-1.493-1.474-.824 0-1.493.66-1.493 1.474 0 .815.668 1.475 1.493 1.475zm9.883 0c.825 0 1.493-.66 1.493-1.474s-.668-1.475-1.493-1.475c-.826 0-1.495.661-1.495 1.475 0 .814.669 1.474 1.495 1.474zm0 0" fill="#67737B"/><path d="M25.909 9.585h-19.816c-.879 0-1.593.707-1.593 1.576v19.264c0 .869.714 1.575 1.593 1.575h19.816c.876 0 1.591-.706 1.591-1.575v-19.264c0-.869-.714-1.576-1.591-1.576zm-14.635 20.684h-.302l.001-.002v-7.379h.301v7.381zm9.884 0h-.303v-7.381h.303v7.381zm4.456 0h-2.467v-7.381h.486c.415 0 .796-.322.796-.787v-5.607c0-.594-.475-1.084-1.099-1.084h-4.631c-.572 0-1.094.439-1.094 1.084v5.607c0 .459.385.787.795.787h.465v7.379l.001.001-5.599.001.001-.002v-7.379h.483c.416 0 .793-.322.793-.787v-5.607c0-.594-.471-1.084-1.094-1.084h-4.633c-.572 0-1.095.439-1.095 1.084v5.607c0 .459.386.787.796.787h.464v7.38l-2.731.001v-18.917h19.363v18.917zm-.912-25.353l.005-2.331-2.692 2.665v-5.25h-1.722v5.27l-2.707-2.683v2.325l3.558 3.524 3.559-3.52zm-14.554 3.52h1.722l.001-5.267 2.706 2.68v-2.324l-3.56-3.525-3.561 3.525-.002 2.329 2.693-2.667v5.249zm1.005 6.522c.828 0 1.493-.66 1.493-1.475 0-.814-.665-1.474-1.493-1.474-.824 0-1.493.66-1.493 1.474 0 .815.668 1.475 1.493 1.475zm9.883 0c.825 0 1.493-.66 1.493-1.474s-.668-1.475-1.493-1.475c-.826 0-1.495.661-1.495 1.475 0 .814.669 1.474 1.495 1.474zm0 0" fill="#3A434E"/></g></svg>