<svg width="22" height="32" viewBox="0 0 22 32" xmlns="http://www.w3.org/2000/svg"><title>activity--pin</title><g fill="none"><path d="M15.499 29.984c0 1.105-2.016 2-4.5 2-2.486 0-4.5-.895-4.5-2 0-1.104 2.014-2 4.5-2 2.484 0 4.5.896 4.5 2" fill-opacity=".2" fill="#1D508D"/><path d="M10.998-.016c6.076 0 11.001 4.363 11.001 10.919 0 6.407-5.551 9.16-8.507 13.258-2.417 3.345-2.494 5.823-2.494 5.823s-.019-2.49-2.493-5.823c-3.041-4.098-8.506-6.661-8.506-13.258 0-6.558 4.925-10.919 10.999-10.919" fill="#FFC83F"/><path d="M13.811 6.756c.775 0 1.401-.629 1.401-1.404 0-.773-.626-1.401-1.401-1.401-.773 0-1.402.628-1.402 1.401 0 .775.629 1.404 1.402 1.404m2.263 2.745l-.146-.017h-.064l-1.24-.003-.428-1.319c-.119-.368-.433-.649-.791-.727l-1.123-.46c-.128-.047-.258-.073-.39-.077l-2.489-.042c-.192 0-.38.043-.548.137l-.028-.018-1.917 1.747c-.464.424-.493 1.148-.067 1.621.219.239.53.377.854.377.281 0 .553-.104.762-.293l1.394-1.268.36.002-.818 1.983-.863 1.678-1.617-.299-.144-.015-.448-.081c-.627-.115-1.213.314-1.326.929-.112.621.299 1.222.917 1.334l3.077.561c.567.108 1.107-.228 1.285-.762l.483-.784.364 1.056v2.453c0 .624.515 1.137 1.153 1.137.628 0 1.148-.511 1.148-1.137v-2.542l-.005-.122c-.009-.126-.024-.229-.061-.326l-.664-1.942.373-.884c.204.18.468.281.746.281l2.069.002c.703 0 1.136-.42 1.136-1.097 0-.605-.358-1.01-.944-1.083" fill="#fff"/></g></svg>