<?xml version="1.0" encoding="UTF-8" standalone="no"?>
<svg width="32px" height="232px" viewBox="0 0 32 232" version="1.1" xmlns="http://www.w3.org/2000/svg" xmlns:xlink="http://www.w3.org/1999/xlink" xmlns:sketch="http://www.bohemiancoding.com/sketch/ns">
    <title>activity--line</title>
    <description>Created with Sketch (http://www.bohemiancoding.com/sketch)</description>
    <defs></defs>
    <g id="Points-of-interest" stroke="none" stroke-width="1" fill="none" fill-rule="evenodd" sketch:type="MSPage">
        <path d="M25.5897328,131.607143 L25.2747494,131.569549 C25.2333043,131.567669 25.176202,131.56485 25.1052847,131.56485 L23.3194581,131.56015 L22.6839654,129.56015 C22.4343734,128.778195 21.8384838,128.155075 21.1173378,127.840226 C21.166151,127.842105 21.2131222,127.854323 21.2619354,127.854323 C23.1140743,127.854323 24.6217577,126.317669 24.6217577,124.428571 C24.6217577,122.537594 23.1140743,121 21.2619354,121 C19.4107175,121 17.9048762,122.537594 17.9048762,124.428571 C17.9048762,125.452068 18.3561681,126.360902 19.056131,126.989662 L18.6545733,126.825188 C18.340511,126.702068 18.0144756,126.637218 17.6912032,126.633459 L13.0171084,126.540414 C12.5391074,126.540414 12.0620274,126.665414 11.5582382,126.954887 L11.038792,127.349624 L7.8567235,130.303571 C6.68704854,131.389098 6.60600019,133.25094 7.67804874,134.456767 C8.71417814,135.613722 10.6234192,135.707707 11.747044,134.666353 L13.0088194,133.49718 L12.3447756,135.143797 L10.9844528,137.853383 L8.48761118,137.379699 C8.37248569,137.360902 8.27578028,137.348684 8.17723286,137.342105 L7.3851695,137.196429 C5.79183274,136.906015 4.32559451,138 4.04653033,139.578008 C3.76378213,141.170113 4.79899052,142.704887 6.35456613,143.00188 L12.1145246,144.068609 C13.5015565,144.330827 14.8360911,143.515977 15.3177762,142.198308 L15.3629054,142.12312 L15.4982929,142.521617 L15.4982929,147.072368 C15.4982929,148.68515 16.7950664,150 18.3884032,150 C19.9771349,150 21.2739085,148.68703 21.2794345,147.072368 L21.2794345,142.222744 C21.2794345,142.102444 21.2720664,141.996241 21.2619354,141.917293 C21.2471993,141.635338 21.1983861,141.368421 21.1154958,141.12218 L19.9605569,137.68609 L20.222122,137.054511 C20.5509204,137.18609 20.9055069,137.256579 21.2646984,137.258459 L25.1393619,137.265038 C26.8505871,137.265038 28,136.120301 28,134.417293 C28,132.898496 27.05505,131.796053 25.5897328,131.607143 C25.5897328,131.607143 27.05505,131.796053 25.5897328,131.607143 L25.5897328,131.607143 L25.5897328,131.607143 Z M21.2619354,122.5 C22.3045118,122.5 23.1518354,123.364662 23.1518354,124.428571 C23.1518354,125.490602 22.3045118,126.356203 21.2619354,126.356203 C20.222122,126.356203 19.3747984,125.490602 19.3747984,124.428571 C19.3747984,123.364662 20.222122,122.5 21.2619354,122.5 C21.2619354,122.5 20.222122,122.5 21.2619354,122.5 L21.2619354,122.5 L21.2619354,122.5 Z M25.1393619,135.765038 L21.2702244,135.758459 C20.932216,135.756579 20.6089436,135.632519 20.3565886,135.406015 L19.5903133,134.718985 L18.3902452,137.631579 L19.7257009,141.608083 C19.7662251,141.730263 19.7901712,141.865602 19.8058282,142.115602 C19.8095122,142.141917 19.8113542,142.179511 19.8113542,142.222744 L19.8113542,147.068609 C19.8076702,147.857143 19.1694145,148.5 18.3884032,148.5 C17.6046289,148.5 16.9654522,147.859023 16.9654522,147.072368 L16.9654522,142.396617 L15.744201,138.632519 L14.0265287,141.478383 L13.9565324,141.631579 C13.7336494,142.306391 13.0889467,142.730263 12.3788527,142.594925 L6.62073626,141.527256 C5.85998703,141.383459 5.35435588,140.62688 5.49250647,139.843985 C5.63157806,139.068609 6.36561817,138.531015 7.12268339,138.671992 L7.96263895,138.827068 L8.0685544,138.839286 C8.12289363,138.839286 8.17539085,138.847744 8.22880908,138.855263 L11.7940152,139.532895 L13.6774682,135.771617 L15.6272335,130.953008 L13.5752368,130.946429 L10.7597278,133.558271 C10.2126515,134.06203 9.27414852,134.014098 8.76483336,133.446429 C8.23986113,132.855263 8.27578028,131.942669 8.8458817,131.411654 L11.969006,128.509398 L12.3484596,128.216165 C12.5566065,128.098684 12.7813314,128.040414 13.0032933,128.040414 L17.6654151,128.131579 C17.8219858,128.134398 17.9803985,128.166353 18.1185491,128.219925 L20.227648,129.095865 L20.3473785,129.133459 C20.7682773,129.225564 21.1458889,129.585526 21.2868025,130.024436 L22.2510936,133.056391 L25.1430459,133.06203 L25.409216,133.094925 C26.1432561,133.190789 26.5319198,133.646617 26.5319198,134.417293 C26.5319198,135.531015 25.7748546,135.765038 25.1393619,135.765038 L25.1393619,135.765038 Z M25.1393619,135.765038" id="activity-line--lp-blue" fill="#206FAC" sketch:type="MSShapeGroup"></path>
        <path d="M25.5897328,91.6071429 L25.2747494,91.5695489 C25.2333043,91.5676692 25.176202,91.5648496 25.1052847,91.5648496 L23.3194581,91.5601504 L22.6839654,89.5601504 C22.4343734,88.7781955 21.8384838,88.1550752 21.1173378,87.8402256 C21.166151,87.8421053 21.2131222,87.8543233 21.2619354,87.8543233 C23.1140743,87.8543233 24.6217577,86.3176692 24.6217577,84.4285714 C24.6217577,82.537594 23.1140743,81 21.2619354,81 C19.4107175,81 17.9048762,82.537594 17.9048762,84.4285714 C17.9048762,85.4520677 18.3561681,86.3609023 19.056131,86.9896617 L18.6545733,86.825188 C18.340511,86.7020677 18.0144756,86.637218 17.6912032,86.6334586 L13.0171084,86.5404135 C12.5391074,86.5404135 12.0620274,86.6654135 11.5582382,86.9548872 L11.038792,87.3496241 L7.8567235,90.3035714 C6.68704854,91.3890977 6.60600019,93.2509398 7.67804874,94.4567669 C8.71417814,95.6137218 10.6234192,95.7077068 11.747044,94.6663534 L13.0088194,93.4971805 L12.3447756,95.143797 L10.9844528,97.8533835 L8.48761118,97.3796992 C8.37248569,97.3609023 8.27578028,97.3486842 8.17723286,97.3421053 L7.3851695,97.1964286 C5.79183274,96.906015 4.32559451,98 4.04653033,99.5780075 C3.76378213,101.170113 4.79899052,102.704887 6.35456613,103.00188 L12.1145246,104.068609 C13.5015565,104.330827 14.8360911,103.515977 15.3177762,102.198308 L15.3629054,102.12312 L15.4982929,102.521617 L15.4982929,107.072368 C15.4982929,108.68515 16.7950664,110 18.3884032,110 C19.9771349,110 21.2739085,108.68703 21.2794345,107.072368 L21.2794345,102.222744 C21.2794345,102.102444 21.2720664,101.996241 21.2619354,101.917293 C21.2471993,101.635338 21.1983861,101.368421 21.1154958,101.12218 L19.9605569,97.6860902 L20.222122,97.0545113 C20.5509204,97.1860902 20.9055069,97.2565789 21.2646984,97.2584586 L25.1393619,97.2650376 C26.8505871,97.2650376 28,96.1203008 28,94.4172932 C28,92.8984962 27.05505,91.7960526 25.5897328,91.6071429 C25.5897328,91.6071429 27.05505,91.7960526 25.5897328,91.6071429 L25.5897328,91.6071429 L25.5897328,91.6071429 Z M21.2619354,82.5 C22.3045118,82.5 23.1518354,83.3646617 23.1518354,84.4285714 C23.1518354,85.4906015 22.3045118,86.356203 21.2619354,86.356203 C20.222122,86.356203 19.3747984,85.4906015 19.3747984,84.4285714 C19.3747984,83.3646617 20.222122,82.5 21.2619354,82.5 C21.2619354,82.5 20.222122,82.5 21.2619354,82.5 L21.2619354,82.5 L21.2619354,82.5 Z M25.1393619,95.7650376 L21.2702244,95.7584586 C20.932216,95.7565789 20.6089436,95.6325188 20.3565886,95.406015 L19.5903133,94.718985 L18.3902452,97.6315789 L19.7257009,101.608083 C19.7662251,101.730263 19.7901712,101.865602 19.8058282,102.115602 C19.8095122,102.141917 19.8113542,102.179511 19.8113542,102.222744 L19.8113542,107.068609 C19.8076702,107.857143 19.1694145,108.5 18.3884032,108.5 C17.6046289,108.5 16.9654522,107.859023 16.9654522,107.072368 L16.9654522,102.396617 L15.744201,98.6325188 L14.0265287,101.478383 L13.9565324,101.631579 C13.7336494,102.306391 13.0889467,102.730263 12.3788527,102.594925 L6.62073626,101.527256 C5.85998703,101.383459 5.35435588,100.62688 5.49250647,99.843985 C5.63157806,99.068609 6.36561817,98.531015 7.12268339,98.6719925 L7.96263895,98.8270677 L8.0685544,98.8392857 C8.12289363,98.8392857 8.17539085,98.8477444 8.22880908,98.8552632 L11.7940152,99.5328947 L13.6774682,95.7716165 L15.6272335,90.9530075 L13.5752368,90.9464286 L10.7597278,93.5582707 C10.2126515,94.0620301 9.27414852,94.0140977 8.76483336,93.4464286 C8.23986113,92.8552632 8.27578028,91.9426692 8.8458817,91.4116541 L11.969006,88.5093985 L12.3484596,88.2161654 C12.5566065,88.0986842 12.7813314,88.0404135 13.0032933,88.0404135 L17.6654151,88.1315789 C17.8219858,88.1343985 17.9803985,88.1663534 18.1185491,88.2199248 L20.227648,89.0958647 L20.3473785,89.1334586 C20.7682773,89.2255639 21.1458889,89.5855263 21.2868025,90.0244361 L22.2510936,93.056391 L25.1430459,93.0620301 L25.409216,93.0949248 C26.1432561,93.1907895 26.5319198,93.6466165 26.5319198,94.4172932 C26.5319198,95.531015 25.7748546,95.7650376 25.1393619,95.7650376 L25.1393619,95.7650376 Z M25.1393619,95.7650376" id="activity-line--white" fill="#FFFFFF" sketch:type="MSShapeGroup"></path>
        <path d="M25.5897328,51.6071429 L25.2747494,51.5695489 C25.2333043,51.5676692 25.176202,51.5648496 25.1052847,51.5648496 L23.3194581,51.5601504 L22.6839654,49.5601504 C22.4343734,48.7781955 21.8384838,48.1550752 21.1173378,47.8402256 C21.166151,47.8421053 21.2131222,47.8543233 21.2619354,47.8543233 C23.1140743,47.8543233 24.6217577,46.3176692 24.6217577,44.4285714 C24.6217577,42.537594 23.1140743,41 21.2619354,41 C19.4107175,41 17.9048762,42.537594 17.9048762,44.4285714 C17.9048762,45.4520677 18.3561681,46.3609023 19.056131,46.9896617 L18.6545733,46.825188 C18.340511,46.7020677 18.0144756,46.637218 17.6912032,46.6334586 L13.0171084,46.5404135 C12.5391074,46.5404135 12.0620274,46.6654135 11.5582382,46.9548872 L11.038792,47.3496241 L7.8567235,50.3035714 C6.68704854,51.3890977 6.60600019,53.2509398 7.67804874,54.4567669 C8.71417814,55.6137218 10.6234192,55.7077068 11.747044,54.6663534 L13.0088194,53.4971805 L12.3447756,55.143797 L10.9844528,57.8533835 L8.48761118,57.3796992 C8.37248569,57.3609023 8.27578028,57.3486842 8.17723286,57.3421053 L7.3851695,57.1964286 C5.79183274,56.906015 4.32559451,58 4.04653033,59.5780075 C3.76378213,61.1701128 4.79899052,62.7048872 6.35456613,63.0018797 L12.1145246,64.068609 C13.5015565,64.3308271 14.8360911,63.5159774 15.3177762,62.1983083 L15.3629054,62.1231203 L15.4982929,62.5216165 L15.4982929,67.0723684 C15.4982929,68.6851504 16.7950664,70 18.3884032,70 C19.9771349,70 21.2739085,68.6870301 21.2794345,67.0723684 L21.2794345,62.2227444 C21.2794345,62.1024436 21.2720664,61.9962406 21.2619354,61.9172932 C21.2471993,61.6353383 21.1983861,61.3684211 21.1154958,61.1221805 L19.9605569,57.6860902 L20.222122,57.0545113 C20.5509204,57.1860902 20.9055069,57.2565789 21.2646984,57.2584586 L25.1393619,57.2650376 C26.8505871,57.2650376 28,56.1203008 28,54.4172932 C28,52.8984962 27.05505,51.7960526 25.5897328,51.6071429 C25.5897328,51.6071429 27.05505,51.7960526 25.5897328,51.6071429 L25.5897328,51.6071429 L25.5897328,51.6071429 Z M21.2619354,42.5 C22.3045118,42.5 23.1518354,43.3646617 23.1518354,44.4285714 C23.1518354,45.4906015 22.3045118,46.356203 21.2619354,46.356203 C20.222122,46.356203 19.3747984,45.4906015 19.3747984,44.4285714 C19.3747984,43.3646617 20.222122,42.5 21.2619354,42.5 C21.2619354,42.5 20.222122,42.5 21.2619354,42.5 L21.2619354,42.5 L21.2619354,42.5 Z M25.1393619,55.7650376 L21.2702244,55.7584586 C20.932216,55.7565789 20.6089436,55.6325188 20.3565886,55.406015 L19.5903133,54.718985 L18.3902452,57.6315789 L19.7257009,61.6080827 C19.7662251,61.7302632 19.7901712,61.8656015 19.8058282,62.1156015 C19.8095122,62.1419173 19.8113542,62.1795113 19.8113542,62.2227444 L19.8113542,67.068609 C19.8076702,67.8571429 19.1694145,68.5 18.3884032,68.5 C17.6046289,68.5 16.9654522,67.8590226 16.9654522,67.0723684 L16.9654522,62.3966165 L15.744201,58.6325188 L14.0265287,61.4783835 L13.9565324,61.6315789 C13.7336494,62.306391 13.0889467,62.7302632 12.3788527,62.5949248 L6.62073626,61.5272556 C5.85998703,61.3834586 5.35435588,60.6268797 5.49250647,59.843985 C5.63157806,59.068609 6.36561817,58.531015 7.12268339,58.6719925 L7.96263895,58.8270677 L8.0685544,58.8392857 C8.12289363,58.8392857 8.17539085,58.8477444 8.22880908,58.8552632 L11.7940152,59.5328947 L13.6774682,55.7716165 L15.6272335,50.9530075 L13.5752368,50.9464286 L10.7597278,53.5582707 C10.2126515,54.0620301 9.27414852,54.0140977 8.76483336,53.4464286 C8.23986113,52.8552632 8.27578028,51.9426692 8.8458817,51.4116541 L11.969006,48.5093985 L12.3484596,48.2161654 C12.5566065,48.0986842 12.7813314,48.0404135 13.0032933,48.0404135 L17.6654151,48.1315789 C17.8219858,48.1343985 17.9803985,48.1663534 18.1185491,48.2199248 L20.227648,49.0958647 L20.3473785,49.1334586 C20.7682773,49.2255639 21.1458889,49.5855263 21.2868025,50.0244361 L22.2510936,53.056391 L25.1430459,53.0620301 L25.409216,53.0949248 C26.1432561,53.1907895 26.5319198,53.6466165 26.5319198,54.4172932 C26.5319198,55.531015 25.7748546,55.7650376 25.1393619,55.7650376 L25.1393619,55.7650376 Z M25.1393619,55.7650376" id="activity-line--body-grey" fill="#67747C" sketch:type="MSShapeGroup"></path>
        <path d="M25.5897328,11.6071429 L25.2747494,11.5695489 C25.2333043,11.5676692 25.176202,11.5648496 25.1052847,11.5648496 L23.3194581,11.5601504 L22.6839654,9.56015038 C22.4343734,8.77819549 21.8384838,8.15507519 21.1173378,7.84022556 C21.166151,7.84210526 21.2131222,7.85432331 21.2619354,7.85432331 C23.1140743,7.85432331 24.6217577,6.31766917 24.6217577,4.42857143 C24.6217577,2.53759398 23.1140743,1 21.2619354,1 C19.4107175,1 17.9048762,2.53759398 17.9048762,4.42857143 C17.9048762,5.45206767 18.3561681,6.36090226 19.056131,6.98966165 L18.6545733,6.82518797 C18.340511,6.70206767 18.0144756,6.63721805 17.6912032,6.63345865 L13.0171084,6.54041353 C12.5391074,6.54041353 12.0620274,6.66541353 11.5582382,6.95488722 L11.038792,7.34962406 L7.8567235,10.3035714 C6.68704854,11.3890977 6.60600019,13.2509398 7.67804874,14.4567669 C8.71417814,15.6137218 10.6234192,15.7077068 11.747044,14.6663534 L13.0088194,13.4971805 L12.3447756,15.143797 L10.9844528,17.8533835 L8.48761118,17.3796992 C8.37248569,17.3609023 8.27578028,17.3486842 8.17723286,17.3421053 L7.3851695,17.1964286 C5.79183274,16.906015 4.32559451,18 4.04653033,19.5780075 C3.76378213,21.1701128 4.79899052,22.7048872 6.35456613,23.0018797 L12.1145246,24.068609 C13.5015565,24.3308271 14.8360911,23.5159774 15.3177762,22.1983083 L15.3629054,22.1231203 L15.4982929,22.5216165 L15.4982929,27.0723684 C15.4982929,28.6851504 16.7950664,30 18.3884032,30 C19.9771349,30 21.2739085,28.6870301 21.2794345,27.0723684 L21.2794345,22.2227444 C21.2794345,22.1024436 21.2720664,21.9962406 21.2619354,21.9172932 C21.2471993,21.6353383 21.1983861,21.3684211 21.1154958,21.1221805 L19.9605569,17.6860902 L20.222122,17.0545113 C20.5509204,17.1860902 20.9055069,17.2565789 21.2646984,17.2584586 L25.1393619,17.2650376 C26.8505871,17.2650376 28,16.1203008 28,14.4172932 C28,12.8984962 27.05505,11.7960526 25.5897328,11.6071429 C25.5897328,11.6071429 27.05505,11.7960526 25.5897328,11.6071429 L25.5897328,11.6071429 L25.5897328,11.6071429 Z M21.2619354,2.5 C22.3045118,2.5 23.1518354,3.36466165 23.1518354,4.42857143 C23.1518354,5.4906015 22.3045118,6.35620301 21.2619354,6.35620301 C20.222122,6.35620301 19.3747984,5.4906015 19.3747984,4.42857143 C19.3747984,3.36466165 20.222122,2.5 21.2619354,2.5 C21.2619354,2.5 20.222122,2.5 21.2619354,2.5 L21.2619354,2.5 L21.2619354,2.5 Z M25.1393619,15.7650376 L21.2702244,15.7584586 C20.932216,15.7565789 20.6089436,15.6325188 20.3565886,15.406015 L19.5903133,14.718985 L18.3902452,17.6315789 L19.7257009,21.6080827 C19.7662251,21.7302632 19.7901712,21.8656015 19.8058282,22.1156015 C19.8095122,22.1419173 19.8113542,22.1795113 19.8113542,22.2227444 L19.8113542,27.068609 C19.8076702,27.8571429 19.1694145,28.5 18.3884032,28.5 C17.6046289,28.5 16.9654522,27.8590226 16.9654522,27.0723684 L16.9654522,22.3966165 L15.744201,18.6325188 L14.0265287,21.4783835 L13.9565324,21.6315789 C13.7336494,22.306391 13.0889467,22.7302632 12.3788527,22.5949248 L6.62073626,21.5272556 C5.85998703,21.3834586 5.35435588,20.6268797 5.49250647,19.843985 C5.63157806,19.068609 6.36561817,18.531015 7.12268339,18.6719925 L7.96263895,18.8270677 L8.0685544,18.8392857 C8.12289363,18.8392857 8.17539085,18.8477444 8.22880908,18.8552632 L11.7940152,19.5328947 L13.6774682,15.7716165 L15.6272335,10.9530075 L13.5752368,10.9464286 L10.7597278,13.5582707 C10.2126515,14.0620301 9.27414852,14.0140977 8.76483336,13.4464286 C8.23986113,12.8552632 8.27578028,11.9426692 8.8458817,11.4116541 L11.969006,8.5093985 L12.3484596,8.21616541 C12.5566065,8.09868421 12.7813314,8.04041353 13.0032933,8.04041353 L17.6654151,8.13157895 C17.8219858,8.1343985 17.9803985,8.16635338 18.1185491,8.21992481 L20.227648,9.09586466 L20.3473785,9.13345865 C20.7682773,9.22556391 21.1458889,9.58552632 21.2868025,10.0244361 L22.2510936,13.056391 L25.1430459,13.0620301 L25.409216,13.0949248 C26.1432561,13.1907895 26.5319198,13.6466165 26.5319198,14.4172932 C26.5319198,15.531015 25.7748546,15.7650376 25.1393619,15.7650376 L25.1393619,15.7650376 Z M25.1393619,15.7650376" id="activity-line--title-grey" fill="#3B444F" sketch:type="MSShapeGroup"></path>
        <path d="M25.5897328,171.607143 L25.2747494,171.569549 C25.2333043,171.567669 25.176202,171.56485 25.1052847,171.56485 L23.3194581,171.56015 L22.6839654,169.56015 C22.4343734,168.778195 21.8384838,168.155075 21.1173378,167.840226 C21.166151,167.842105 21.2131222,167.854323 21.2619354,167.854323 C23.1140743,167.854323 24.6217577,166.317669 24.6217577,164.428571 C24.6217577,162.537594 23.1140743,161 21.2619354,161 C19.4107175,161 17.9048762,162.537594 17.9048762,164.428571 C17.9048762,165.452068 18.3561681,166.360902 19.056131,166.989662 L18.6545733,166.825188 C18.340511,166.702068 18.0144756,166.637218 17.6912032,166.633459 L13.0171084,166.540414 C12.5391074,166.540414 12.0620274,166.665414 11.5582382,166.954887 L11.038792,167.349624 L7.8567235,170.303571 C6.68704854,171.389098 6.60600019,173.25094 7.67804874,174.456767 C8.71417814,175.613722 10.6234192,175.707707 11.747044,174.666353 L13.0088194,173.49718 L12.3447756,175.143797 L10.9844528,177.853383 L8.48761118,177.379699 C8.37248569,177.360902 8.27578028,177.348684 8.17723286,177.342105 L7.3851695,177.196429 C5.79183274,176.906015 4.32559451,178 4.04653033,179.578008 C3.76378213,181.170113 4.79899052,182.704887 6.35456613,183.00188 L12.1145246,184.068609 C13.5015565,184.330827 14.8360911,183.515977 15.3177762,182.198308 L15.3629054,182.12312 L15.4982929,182.521617 L15.4982929,187.072368 C15.4982929,188.68515 16.7950664,190 18.3884032,190 C19.9771349,190 21.2739085,188.68703 21.2794345,187.072368 L21.2794345,182.222744 C21.2794345,182.102444 21.2720664,181.996241 21.2619354,181.917293 C21.2471993,181.635338 21.1983861,181.368421 21.1154958,181.12218 L19.9605569,177.68609 L20.222122,177.054511 C20.5509204,177.18609 20.9055069,177.256579 21.2646984,177.258459 L25.1393619,177.265038 C26.8505871,177.265038 28,176.120301 28,174.417293 C28,172.898496 27.05505,171.796053 25.5897328,171.607143 C25.5897328,171.607143 27.05505,171.796053 25.5897328,171.607143 L25.5897328,171.607143 L25.5897328,171.607143 Z M21.2619354,162.5 C22.3045118,162.5 23.1518354,163.364662 23.1518354,164.428571 C23.1518354,165.490602 22.3045118,166.356203 21.2619354,166.356203 C20.222122,166.356203 19.3747984,165.490602 19.3747984,164.428571 C19.3747984,163.364662 20.222122,162.5 21.2619354,162.5 C21.2619354,162.5 20.222122,162.5 21.2619354,162.5 L21.2619354,162.5 L21.2619354,162.5 Z M25.1393619,175.765038 L21.2702244,175.758459 C20.932216,175.756579 20.6089436,175.632519 20.3565886,175.406015 L19.5903133,174.718985 L18.3902452,177.631579 L19.7257009,181.608083 C19.7662251,181.730263 19.7901712,181.865602 19.8058282,182.115602 C19.8095122,182.141917 19.8113542,182.179511 19.8113542,182.222744 L19.8113542,187.068609 C19.8076702,187.857143 19.1694145,188.5 18.3884032,188.5 C17.6046289,188.5 16.9654522,187.859023 16.9654522,187.072368 L16.9654522,182.396617 L15.744201,178.632519 L14.0265287,181.478383 L13.9565324,181.631579 C13.7336494,182.306391 13.0889467,182.730263 12.3788527,182.594925 L6.62073626,181.527256 C5.85998703,181.383459 5.35435588,180.62688 5.49250647,179.843985 C5.63157806,179.068609 6.36561817,178.531015 7.12268339,178.671992 L7.96263895,178.827068 L8.0685544,178.839286 C8.12289363,178.839286 8.17539085,178.847744 8.22880908,178.855263 L11.7940152,179.532895 L13.6774682,175.771617 L15.6272335,170.953008 L13.5752368,170.946429 L10.7597278,173.558271 C10.2126515,174.06203 9.27414852,174.014098 8.76483336,173.446429 C8.23986113,172.855263 8.27578028,171.942669 8.8458817,171.411654 L11.969006,168.509398 L12.3484596,168.216165 C12.5566065,168.098684 12.7813314,168.040414 13.0032933,168.040414 L17.6654151,168.131579 C17.8219858,168.134398 17.9803985,168.166353 18.1185491,168.219925 L20.227648,169.095865 L20.3473785,169.133459 C20.7682773,169.225564 21.1458889,169.585526 21.2868025,170.024436 L22.2510936,173.056391 L25.1430459,173.06203 L25.409216,173.094925 C26.1432561,173.190789 26.5319198,173.646617 26.5319198,174.417293 C26.5319198,175.531015 25.7748546,175.765038 25.1393619,175.765038 L25.1393619,175.765038 Z M25.1393619,175.765038" id="activity-line--yellow" fill="#FFF06D" sketch:type="MSShapeGroup"></path>
    </g>
</svg>