<svg width="32" height="232" viewBox="0 0 32 232" xmlns="http://www.w3.org/2000/svg"><title>activity</title><g fill="none"><path d="M21.606 167.045c1.544 0 2.796-1.265 2.796-2.821 0-1.558-1.252-2.825-2.796-2.825-1.541 0-2.794 1.267-2.794 2.825 0 1.556 1.253 2.821 2.794 2.821zm4.516 5.535l-.288-.037-.135-.004-2.471-.006-.851-2.654c-.238-.743-.864-1.311-1.579-1.469l-2.246-.921c-.247-.096-.501-.147-.767-.152l-4.96-.098c-.383 0-.756.098-1.091.285l-.053-.037-3.825 3.517c-.931.852-.989 2.315-.14 3.26.44.486 1.059.761 1.703.761.567 0 1.109-.207 1.528-.589l2.77-2.55.718.002-1.634 3.994-1.712 3.382-3.225-.602-.284-.033-.895-.165c-1.251-.226-2.423.633-2.649 1.875-.225 1.254.595 2.46 1.83 2.693l6.139 1.127c1.129.211 2.2-.462 2.559-1.54l.961-1.574.722 2.127v4.929c0 1.269 1.031 2.299 2.297 2.299 1.261 0 2.291-1.03 2.299-2.299v-5.112l-.017-.248c-.011-.247-.051-.462-.117-.655l-1.327-3.912.741-1.779c.406.358.932.566 1.486.568l4.125.008c1.397 0 2.264-.851 2.264-2.212 0-1.215-.713-2.028-1.878-2.177zm0 0" fill="#FFC841"/><path d="M21.606 126.647c1.544 0 2.796-1.265 2.796-2.821 0-1.558-1.252-2.825-2.796-2.825-1.541 0-2.794 1.267-2.794 2.825 0 1.556 1.253 2.821 2.794 2.821zm4.516 5.535l-.288-.037-.135-.004-2.471-.006-.851-2.654c-.238-.743-.864-1.311-1.579-1.469l-2.246-.921c-.247-.096-.501-.147-.767-.152l-4.96-.098c-.383 0-.756.098-1.091.285l-.053-.037-3.825 3.517c-.931.852-.989 2.315-.14 3.26.44.486 1.059.761 1.703.761.567 0 1.109-.207 1.528-.589l2.77-2.55.718.002-1.634 3.994-1.712 3.382-3.225-.602-.284-.033-.895-.165c-1.251-.226-2.423.633-2.649 1.875-.225 1.254.595 2.46 1.83 2.693l6.139 1.127c1.129.211 2.2-.462 2.559-1.54l.961-1.574.722 2.127v4.929c0 1.269 1.031 2.299 2.297 2.299 1.261 0 2.291-1.03 2.299-2.299v-5.112l-.017-.248c-.011-.247-.051-.462-.117-.655l-1.327-3.912.741-1.779c.406.358.932.566 1.486.568l4.125.008c1.397 0 2.264-.851 2.264-2.212 0-1.215-.713-2.028-1.878-2.177zm0 0" fill="#206FAC"/><path d="M21.606 86.647c1.544 0 2.796-1.265 2.796-2.821 0-1.558-1.252-2.825-2.796-2.825-1.541 0-2.794 1.267-2.794 2.825 0 1.556 1.253 2.821 2.794 2.821zm4.516 5.535l-.288-.037-.135-.004-2.471-.006-.851-2.654c-.238-.743-.864-1.311-1.579-1.469l-2.246-.921c-.247-.096-.501-.147-.767-.152l-4.96-.098c-.383 0-.756.098-1.091.285l-.053-.037-3.825 3.517c-.931.852-.989 2.315-.14 3.26.44.486 1.059.761 1.703.761.567 0 1.109-.207 1.528-.589l2.77-2.55.718.002-1.634 3.994-1.712 3.382-3.225-.602-.284-.033-.895-.165c-1.251-.226-2.423.633-2.649 1.875-.225 1.254.595 2.46 1.83 2.693l6.139 1.127c1.129.211 2.2-.462 2.559-1.54l.961-1.574.722 2.127v4.929c0 1.269 1.031 2.299 2.297 2.299 1.261 0 2.291-1.03 2.299-2.299v-5.112l-.017-.248c-.011-.247-.051-.462-.117-.655l-1.327-3.912.741-1.779c.406.358.932.566 1.486.568l4.125.008c1.397 0 2.264-.851 2.264-2.212 0-1.215-.713-2.028-1.878-2.177zm0 0" fill="#fff"/><path d="M21.606 46.647c1.544 0 2.796-1.265 2.796-2.821 0-1.558-1.252-2.825-2.796-2.825-1.541 0-2.794 1.267-2.794 2.825 0 1.556 1.253 2.821 2.794 2.821zm4.516 5.535l-.288-.037-.135-.004-2.471-.006-.851-2.654c-.238-.743-.864-1.311-1.579-1.469l-2.246-.921c-.247-.096-.501-.147-.767-.152l-4.96-.098c-.383 0-.756.098-1.091.285l-.053-.037-3.825 3.517c-.931.852-.989 2.315-.14 3.26.44.486 1.059.761 1.703.761.567 0 1.109-.207 1.528-.589l2.77-2.55.718.002-1.634 3.994-1.712 3.382-3.225-.602-.284-.033-.895-.165c-1.251-.226-2.423.633-2.649 1.875-.225 1.254.595 2.46 1.83 2.693l6.139 1.127c1.129.211 2.2-.462 2.559-1.54l.961-1.574.722 2.127v4.929c0 1.269 1.031 2.299 2.297 2.299 1.261 0 2.291-1.03 2.299-2.299v-5.112l-.017-.248c-.011-.247-.051-.462-.117-.655l-1.327-3.912.741-1.779c.406.358.932.566 1.486.568l4.125.008c1.397 0 2.264-.851 2.264-2.212 0-1.215-.713-2.028-1.878-2.177zm0 0" fill="#67747C"/><path d="M21.606 7.045c1.544 0 2.796-1.265 2.796-2.821 0-1.558-1.252-2.825-2.796-2.825-1.541 0-2.794 1.267-2.794 2.825 0 1.556 1.253 2.821 2.794 2.821zm4.516 5.535l-.288-.037-.135-.004-2.471-.006-.851-2.654c-.238-.743-.864-1.311-1.579-1.469l-2.246-.921c-.247-.096-.501-.147-.767-.152l-4.96-.098c-.383 0-.756.098-1.091.285l-.053-.037-3.825 3.517c-.931.852-.989 2.315-.14 3.26.44.486 1.059.761 1.703.761.567 0 1.109-.207 1.528-.589l2.77-2.55.718.002-1.634 3.994-1.712 3.382-3.225-.602-.284-.033-.895-.165c-1.251-.226-2.423.633-2.649 1.875-.225 1.254.595 2.46 1.83 2.693l6.139 1.127c1.129.211 2.2-.462 2.559-1.54l.961-1.574.722 2.127v4.929c0 1.269 1.031 2.299 2.297 2.299 1.261 0 2.291-1.03 2.299-2.299v-5.112l-.017-.248c-.011-.247-.051-.462-.117-.655l-1.327-3.912.741-1.779c.406.358.932.566 1.486.568l4.125.008c1.397 0 2.264-.851 2.264-2.212 0-1.215-.713-2.028-1.878-2.177zm0 0" fill="#3B444F"/></g></svg>