<?xml version="1.0" encoding="UTF-8" standalone="no"?>
<svg width="22px" height="32px" viewBox="0 0 22 32" version="1.1" xmlns="http://www.w3.org/2000/svg" xmlns:xlink="http://www.w3.org/1999/xlink" xmlns:sketch="http://www.bohemiancoding.com/sketch/ns">
    <title>activity--pin</title>
    <description>Created with Sketch (http://www.bohemiancoding.com/sketch)</description>
    <defs></defs>
    <g id="Points-of-interest" stroke="none" stroke-width="1" fill="none" fill-rule="evenodd" sketch:type="MSPage">
        <g id="activity--pin" sketch:type="MSLayerGroup" transform="translate(-1.000000, -1.000000)">
            <path d="M16.499,30.984 C16.499,32.089 14.483,32.984 11.999,32.984 C9.513,32.984 7.499,32.089 7.499,30.984 C7.499,29.88 9.513,28.984 11.999,28.984 C14.483,28.984 16.499,29.88 16.499,30.984" id="Fill-1" fill-opacity="0.2" fill="#1D508D" sketch:type="MSShapeGroup"></path>
            <path d="M11.998,0.984 C18.074,0.984 22.999,5.347 22.999,11.903 C22.999,18.31 17.448,21.063 14.492,25.161 C12.075,28.506 11.998,30.984 11.998,30.984 C11.998,30.984 11.979,28.494 9.505,25.161 C6.464,21.063 0.999,18.5 0.999,11.903 C0.999,5.345 5.924,0.984 11.998,0.984" id="Fill-2" fill="#FFC83F" sketch:type="MSShapeGroup"></path>
            <path d="M14.811,7.756 C15.586,7.756 16.212,7.127 16.212,6.352 C16.212,5.579 15.586,4.951 14.811,4.951 C14.038,4.951 13.409,5.579 13.409,6.352 C13.409,7.127 14.038,7.756 14.811,7.756 M17.074,10.501 L16.928,10.484 L16.864,10.484 L15.624,10.481 L15.196,9.162 C15.077,8.794 14.763,8.513 14.405,8.435 L13.282,7.975 C13.154,7.928 13.024,7.902 12.892,7.898 L10.403,7.856 C10.211,7.856 10.023,7.899 9.855,7.993 L9.827,7.975 L7.91,9.722 C7.446,10.146 7.417,10.87 7.843,11.343 C8.062,11.582 8.373,11.72 8.697,11.72 C8.978,11.72 9.25,11.616 9.459,11.427 L10.853,10.159 L11.213,10.161 L10.395,12.144 L9.532,13.822 L7.915,13.523 C7.863,13.515 7.818,13.511 7.771,13.508 L7.323,13.427 C6.696,13.312 6.11,13.741 5.997,14.356 C5.885,14.977 6.296,15.578 6.914,15.69 L9.991,16.251 C10.558,16.359 11.098,16.023 11.276,15.489 L11.759,14.705 L12.123,15.761 L12.123,18.214 C12.123,18.838 12.638,19.351 13.276,19.351 C13.904,19.351 14.424,18.84 14.424,18.214 L14.424,15.672 C14.424,15.62 14.424,15.573 14.419,15.55 C14.41,15.424 14.395,15.321 14.358,15.224 L13.694,13.282 L14.067,12.398 C14.271,12.578 14.535,12.679 14.813,12.679 L16.882,12.681 C17.585,12.681 18.018,12.261 18.018,11.584 C18.018,10.979 17.66,10.574 17.074,10.501" id="Fill-3" fill="#FFFFFF" sketch:type="MSShapeGroup"></path>
        </g>
    </g>
</svg>