<svg width="32" height="232" viewBox="0 0 32 232" xmlns="http://www.w3.org/2000/svg"><title>activity--line</title><g fill="none"><path d="M25.59 131.607l-.315-.038-.169-.005-1.786-.005-.635-2c-.25-.782-.845-1.405-1.567-1.72l.145.014c1.852 0 3.36-1.537 3.36-3.426 0-1.891-1.508-3.429-3.36-3.429-1.851 0-3.357 1.538-3.357 3.429 0 1.023.451 1.932 1.151 2.561l-.402-.164c-.314-.123-.64-.188-.963-.192l-4.674-.093c-.478 0-.955.125-1.459.414l-.519.395-3.182 2.954c-1.17 1.086-1.251 2.947-.179 4.153 1.036 1.157 2.945 1.251 4.069.21l1.262-1.169-.664 1.647-1.36 2.71-2.497-.474-.31-.038-.792-.146c-1.593-.29-3.06.804-3.339 2.382-.283 1.592.752 3.127 2.308 3.424l5.76 1.067c1.387.262 2.722-.553 3.203-1.87l.045-.075.135.398v4.551c0 1.613 1.297 2.928 2.89 2.928 1.589 0 2.886-1.313 2.891-2.928v-4.85l-.017-.305c-.015-.282-.064-.549-.146-.795l-1.155-3.436.262-.632c.329.132.683.202 1.043.204l3.875.007c1.711 0 2.861-1.145 2.861-2.848 0-1.519-.945-2.621-2.41-2.81zm-4.328-9.107c1.043 0 1.89.865 1.89 1.929 0 1.062-.847 1.928-1.89 1.928-1.04 0-1.887-.866-1.887-1.928 0-1.064.847-1.929 1.887-1.929zm3.877 13.265l-3.869-.007c-.338-.002-.661-.126-.914-.352l-.766-.687-1.2 2.913 1.335 3.977c.041.122.064.258.08.508l.006.107v4.846c-.004.789-.642 1.431-1.423 1.431-.784 0-1.423-.641-1.423-1.428v-4.676l-1.221-3.764-1.718 2.846-.07.153c-.223.675-.868 1.099-1.578.963l-5.758-1.068c-.761-.144-1.266-.9-1.128-1.683.139-.775.873-1.313 1.63-1.172l.84.155.106.012.16.016 3.565.678 1.883-3.761 1.95-4.819-2.052-.007-2.816 2.612c-.547.504-1.486.456-1.995-.112-.525-.591-.489-1.504.081-2.035l3.123-2.902.379-.293c.208-.117.433-.176.655-.176l4.662.091c.157.003.315.035.453.088l2.109.876.12.038c.421.092.799.452.939.891l.964 3.032 2.892.006.266.033c.734.096 1.123.552 1.123 1.322 0 1.114-.757 1.348-1.393 1.348zm0 0" fill="#206FAC"/><path d="M25.59 91.607l-.315-.038-.169-.005-1.786-.005-.635-2c-.25-.782-.845-1.405-1.567-1.72l.145.014c1.852 0 3.36-1.537 3.36-3.426 0-1.891-1.508-3.429-3.36-3.429-1.851 0-3.357 1.538-3.357 3.429 0 1.023.451 1.932 1.151 2.561l-.402-.164c-.314-.123-.64-.188-.963-.192l-4.674-.093c-.478 0-.955.125-1.459.414l-.519.395-3.182 2.954c-1.17 1.086-1.251 2.947-.179 4.153 1.036 1.157 2.945 1.251 4.069.21l1.262-1.169-.664 1.647-1.36 2.71-2.497-.474-.31-.038-.792-.146c-1.593-.29-3.06.804-3.339 2.382-.283 1.592.752 3.127 2.308 3.424l5.76 1.067c1.387.262 2.722-.553 3.203-1.87l.045-.075.135.398v4.551c0 1.613 1.297 2.928 2.89 2.928 1.589 0 2.886-1.313 2.891-2.928v-4.85l-.017-.305c-.015-.282-.064-.549-.146-.795l-1.155-3.436.262-.632c.329.132.683.202 1.043.204l3.875.007c1.711 0 2.861-1.145 2.861-2.848 0-1.519-.945-2.621-2.41-2.81zm-4.328-9.107c1.043 0 1.89.865 1.89 1.929 0 1.062-.847 1.928-1.89 1.928-1.04 0-1.887-.866-1.887-1.928 0-1.064.847-1.929 1.887-1.929zm3.877 13.265l-3.869-.007c-.338-.002-.661-.126-.914-.352l-.766-.687-1.2 2.913 1.335 3.977c.041.122.064.258.08.508l.006.107v4.846c-.004.789-.642 1.431-1.423 1.431-.784 0-1.423-.641-1.423-1.428v-4.676l-1.221-3.764-1.718 2.846-.07.153c-.223.675-.868 1.099-1.578.963l-5.758-1.068c-.761-.144-1.266-.9-1.128-1.683.139-.775.873-1.313 1.63-1.172l.84.155.106.012.16.016 3.565.678 1.883-3.761 1.95-4.819-2.052-.007-2.816 2.612c-.547.504-1.486.456-1.995-.112-.525-.591-.489-1.504.081-2.035l3.123-2.902.379-.293c.208-.117.433-.176.655-.176l4.662.091c.157.003.315.035.453.088l2.109.876.12.038c.421.092.799.452.939.891l.964 3.032 2.892.006.266.033c.734.096 1.123.552 1.123 1.322 0 1.114-.757 1.348-1.393 1.348zm0 0" fill="#fff"/><path d="M25.59 51.607l-.315-.038-.169-.005-1.786-.005-.635-2c-.25-.782-.845-1.405-1.567-1.72l.145.014c1.852 0 3.36-1.537 3.36-3.426 0-1.891-1.508-3.429-3.36-3.429-1.851 0-3.357 1.538-3.357 3.429 0 1.023.451 1.932 1.151 2.561l-.402-.164c-.314-.123-.64-.188-.963-.192l-4.674-.093c-.478 0-.955.125-1.459.414l-.519.395-3.182 2.954c-1.17 1.086-1.251 2.947-.179 4.153 1.036 1.157 2.945 1.251 4.069.21l1.262-1.169-.664 1.647-1.36 2.71-2.497-.474-.31-.038-.792-.146c-1.593-.29-3.06.804-3.339 2.382-.283 1.592.752 3.127 2.308 3.424l5.76 1.067c1.387.262 2.722-.553 3.203-1.87l.045-.075.135.398v4.551c0 1.613 1.297 2.928 2.89 2.928 1.589 0 2.886-1.313 2.891-2.928v-4.85l-.017-.305c-.015-.282-.064-.549-.146-.795l-1.155-3.436.262-.632c.329.132.683.202 1.043.204l3.875.007c1.711 0 2.861-1.145 2.861-2.848 0-1.519-.945-2.621-2.41-2.81zm-4.328-9.107c1.043 0 1.89.865 1.89 1.929 0 1.062-.847 1.928-1.89 1.928-1.04 0-1.887-.866-1.887-1.928 0-1.064.847-1.929 1.887-1.929zm3.877 13.265l-3.869-.007c-.338-.002-.661-.126-.914-.352l-.766-.687-1.2 2.913 1.335 3.977c.041.122.064.258.08.508l.006.107v4.846c-.004.789-.642 1.431-1.423 1.431-.784 0-1.423-.641-1.423-1.428v-4.676l-1.221-3.764-1.718 2.846-.07.153c-.223.675-.868 1.099-1.578.963l-5.758-1.068c-.761-.144-1.266-.9-1.128-1.683.139-.775.873-1.313 1.63-1.172l.84.155.106.012.16.016 3.565.678 1.883-3.761 1.95-4.819-2.052-.007-2.816 2.612c-.547.504-1.486.456-1.995-.112-.525-.591-.489-1.504.081-2.035l3.123-2.902.379-.293c.208-.117.433-.176.655-.176l4.662.091c.157.003.315.035.453.088l2.109.876.12.038c.421.092.799.452.939.891l.964 3.032 2.892.006.266.033c.734.096 1.123.552 1.123 1.322 0 1.114-.757 1.348-1.393 1.348zm0 0" fill="#67747C"/><path d="M25.59 11.607l-.315-.038-.169-.005-1.786-.005-.635-2c-.25-.782-.845-1.405-1.567-1.72l.145.014c1.852 0 3.36-1.537 3.36-3.426 0-1.891-1.508-3.429-3.36-3.429-1.851 0-3.357 1.538-3.357 3.429 0 1.023.451 1.932 1.151 2.561l-.402-.164c-.314-.123-.64-.188-.963-.192l-4.674-.093c-.478 0-.955.125-1.459.414l-.519.395-3.182 2.954c-1.17 1.086-1.251 2.947-.179 4.153 1.036 1.157 2.945 1.251 4.069.21l1.262-1.169-.664 1.647-1.36 2.71-2.497-.474-.31-.038-.792-.146c-1.593-.29-3.06.804-3.339 2.382-.283 1.592.752 3.127 2.308 3.424l5.76 1.067c1.387.262 2.722-.553 3.203-1.87l.045-.075.135.398v4.551c0 1.613 1.297 2.928 2.89 2.928 1.589 0 2.886-1.313 2.891-2.928v-4.85l-.017-.305c-.015-.282-.064-.549-.146-.795l-1.155-3.436.262-.632c.329.132.683.202 1.043.204l3.875.007c1.711 0 2.861-1.145 2.861-2.848 0-1.519-.945-2.621-2.41-2.81zm-4.328-9.107c1.043 0 1.89.865 1.89 1.929 0 1.062-.847 1.928-1.89 1.928-1.04 0-1.887-.866-1.887-1.928 0-1.064.847-1.929 1.887-1.929zm3.877 13.265l-3.869-.007c-.338-.002-.661-.126-.914-.352l-.766-.687-1.2 2.913 1.335 3.977c.041.122.064.258.08.508l.006.107v4.846c-.004.789-.642 1.431-1.423 1.431-.784 0-1.423-.641-1.423-1.428v-4.676l-1.221-3.764-1.718 2.846-.07.153c-.223.675-.868 1.099-1.578.963l-5.758-1.068c-.761-.144-1.266-.9-1.128-1.683.139-.775.873-1.313 1.63-1.172l.84.155.106.012.16.016 3.565.678 1.883-3.761 1.95-4.819-2.052-.007-2.816 2.612c-.547.504-1.486.456-1.995-.112-.525-.591-.489-1.504.081-2.035l3.123-2.902.379-.293c.208-.117.433-.176.655-.176l4.662.091c.157.003.315.035.453.088l2.109.876.12.038c.421.092.799.452.939.891l.964 3.032 2.892.006.266.033c.734.096 1.123.552 1.123 1.322 0 1.114-.757 1.348-1.393 1.348zm0 0" fill="#3B444F"/><path d="M25.59 171.607l-.315-.038-.169-.005-1.786-.005-.635-2c-.25-.782-.845-1.405-1.567-1.72l.145.014c1.852 0 3.36-1.537 3.36-3.426 0-1.891-1.508-3.429-3.36-3.429-1.851 0-3.357 1.538-3.357 3.429 0 1.023.451 1.932 1.151 2.561l-.402-.164c-.314-.123-.64-.188-.963-.192l-4.674-.093c-.478 0-.955.125-1.459.414l-.519.395-3.182 2.954c-1.17 1.086-1.251 2.947-.179 4.153 1.036 1.157 2.945 1.251 4.069.21l1.262-1.169-.664 1.647-1.36 2.71-2.497-.474-.31-.038-.792-.146c-1.593-.29-3.06.804-3.339 2.382-.283 1.592.752 3.127 2.308 3.424l5.76 1.067c1.387.262 2.722-.553 3.203-1.87l.045-.075.135.398v4.551c0 1.613 1.297 2.928 2.89 2.928 1.589 0 2.886-1.313 2.891-2.928v-4.85l-.017-.305c-.015-.282-.064-.549-.146-.795l-1.155-3.436.262-.632c.329.132.683.202 1.043.204l3.875.007c1.711 0 2.861-1.145 2.861-2.848 0-1.519-.945-2.621-2.41-2.81zm-4.328-9.107c1.043 0 1.89.865 1.89 1.929 0 1.062-.847 1.928-1.89 1.928-1.04 0-1.887-.866-1.887-1.928 0-1.064.847-1.929 1.887-1.929zm3.877 13.265l-3.869-.007c-.338-.002-.661-.126-.914-.352l-.766-.687-1.2 2.913 1.335 3.977c.041.122.064.258.08.508l.006.107v4.846c-.004.789-.642 1.431-1.423 1.431-.784 0-1.423-.641-1.423-1.428v-4.676l-1.221-3.764-1.718 2.846-.07.153c-.223.675-.868 1.099-1.578.963l-5.758-1.068c-.761-.144-1.266-.9-1.128-1.683.139-.775.873-1.313 1.63-1.172l.84.155.106.012.16.016 3.565.678 1.883-3.761 1.95-4.819-2.052-.007-2.816 2.612c-.547.504-1.486.456-1.995-.112-.525-.591-.489-1.504.081-2.035l3.123-2.902.379-.293c.208-.117.433-.176.655-.176l4.662.091c.157.003.315.035.453.088l2.109.876.12.038c.421.092.799.452.939.891l.964 3.032 2.892.006.266.033c.734.096 1.123.552 1.123 1.322 0 1.114-.757 1.348-1.393 1.348zm0 0" fill="#FFF06D"/></g></svg>