<svg width="32" height="232" xmlns="http://www.w3.org/2000/svg" xmlns:sketch="http://www.bohemiancoding.com/sketch/ns"><title>add</title><g sketch:type="MSPage" fill="none"><path d="M17.963 134.537h-.073v-10.537h-3.855l-.002 10.537h-10.533v3.857l10.535-.002v.072h.07v10.536h3.858v-10.536h10.537l-.002-3.855h-10.535v-.072" fill="#206FAC" sketch:type="MSShapeGroup"/><path d="M17.963 94.537h-.073v-10.537h-3.855l-.002 10.537h-10.533v3.857l10.535-.002v.072h.07v10.536h3.858v-10.536h10.537l-.002-3.855h-10.535v-.072" fill="#fff" sketch:type="MSShapeGroup"/><path d="M17.963 54.537h-.073v-10.537h-3.855l-.002 10.537h-10.533v3.857l10.535-.002v.072h.07v10.536h3.858v-10.536h10.537l-.002-3.855h-10.535v-.072" fill="#67737B" sketch:type="MSShapeGroup"/><path d="M17.963 14.537h-.073v-10.537h-3.855l-.002 10.537h-10.533v3.857l10.535-.002v.072h.07v10.536h3.858v-10.536h10.537l-.002-3.855h-10.535v-.072" fill="#3A434E" sketch:type="MSShapeGroup"/></g></svg>