<?xml version="1.0" encoding="UTF-8" standalone="no"?>
<svg width="32px" height="232px" viewBox="0 0 32 232" version="1.1" xmlns="http://www.w3.org/2000/svg" xmlns:xlink="http://www.w3.org/1999/xlink" xmlns:sketch="http://www.bohemiancoding.com/sketch/ns">
    <title>air-conditioning</title>
    <description>Created with Sketch (http://www.bohemiancoding.com/sketch)</description>
    <defs></defs>
    <g id="Hotel-facilities" stroke="none" stroke-width="1" fill="none" fill-rule="evenodd" sketch:type="MSPage">
        <path d="M25.8540058,140.717 C25.2170058,140.354 25.2270058,139.752 25.8760058,139.376 C26.5260058,139.006 26.5160058,138.393 25.8560058,138.017 L25.7820058,137.975 C25.1200058,137.595 24.0570058,137.59 23.4150058,137.959 C22.7780058,138.332 21.8510058,138.4 21.3580058,138.123 C20.8660058,137.834 20.4650058,137.103 20.4690058,136.487 C20.4730058,135.877 20.4850058,135.362 20.4980058,135.347 C20.5100058,135.339 20.9070058,135.1 21.3830058,134.824 C21.8600058,134.542 22.7760058,134.614 23.4160058,134.979 C24.0610058,135.343 25.1220058,135.325 25.7800058,134.943 L25.8560058,134.903 C26.5120058,134.516 26.5180058,133.905 25.8660058,133.543 C25.2170058,133.182 25.2040058,132.581 25.8380058,132.218 C26.4720058,131.845 26.9890058,131.219 26.9890058,130.834 C26.9870058,130.446 26.7060058,129.966 26.3640058,129.766 C26.0220058,129.562 25.2250058,129.702 24.5890058,130.073 C23.9550058,130.444 23.4380058,130.136 23.4400058,129.387 C23.4430058,128.637 22.9070058,128.34 22.2490058,128.723 L22.1730058,128.77 C21.5160058,129.153 20.9810058,130.071 20.9830058,130.808 C20.9830058,131.549 20.5900058,132.386 20.1100058,132.67 C19.6270058,132.952 19.2260058,133.182 19.2150058,133.178 C19.2050058,133.175 18.7600058,132.916 18.2250058,132.603 C17.6910058,132.285 17.2540058,132.023 17.2540058,132.023 L17.2540058,130.998 C17.2540058,130.449 17.7690058,129.698 18.4010058,129.325 C19.0320058,128.951 19.5490058,128.027 19.5490058,127.268 L19.5490058,127.18 C19.5490058,126.418 19.0260058,126.105 18.3860058,126.485 C17.7480058,126.865 17.2270058,126.573 17.2270058,125.84 C17.2270058,125.105 16.9540058,124.346 16.6220058,124.147 C16.2870058,123.951 15.7290058,123.951 15.3810058,124.147 C15.0360058,124.346 14.7500058,125.105 14.7500058,125.84 C14.7500058,126.573 14.2200058,126.865 13.5730058,126.485 C12.9260058,126.105 12.3970058,126.418 12.3970058,127.18 L12.3970058,127.268 C12.3970058,128.027 12.9220058,128.951 13.5630058,129.325 C14.2050058,129.698 14.7310058,130.449 14.7310058,130.998 L14.7310058,132.016 C14.7310058,132.016 14.2950058,132.281 13.7660058,132.589 C13.2350058,132.904 12.7890058,133.155 12.7800058,133.16 C12.7690058,133.165 12.3680058,132.942 11.8910058,132.657 C11.4140058,132.384 11.0260058,131.549 11.0260058,130.808 C11.0280058,130.071 10.4930058,129.153 9.83400577,128.77 L9.75800577,128.723 C9.10400577,128.34 8.56700577,128.637 8.56900577,129.387 C8.57100577,130.136 8.05300577,130.444 7.42000577,130.073 C6.78600577,129.702 5.98700577,129.562 5.64500577,129.766 C5.30300577,129.966 5.02200577,130.446 5.02000577,130.834 C5.02000577,131.219 5.53800577,131.845 6.17100577,132.218 C6.80600577,132.581 6.79300577,133.182 6.14300577,133.543 C5.49300577,133.905 5.49800577,134.516 6.15300577,134.903 L6.23000577,134.946 C6.88700577,135.325 7.95000577,135.343 8.59200577,134.979 C9.23300577,134.614 10.1480058,134.542 10.6230058,134.824 C11.1000058,135.1 11.4980058,135.339 11.5100058,135.347 C11.5240058,135.362 11.5360058,135.877 11.5400058,136.487 C11.5440058,137.103 11.1450058,137.834 10.6510058,138.123 C10.1590058,138.4 9.23100577,138.332 8.59200577,137.959 C7.95300577,137.59 6.88900577,137.595 6.23000577,137.975 L6.15200577,138.017 C5.49300577,138.393 5.48500577,139.006 6.13300577,139.376 C6.78200577,139.752 6.79300577,140.354 6.15300577,140.717 C5.51600577,141.08 4.99800577,141.708 5.00000577,142.102 C5.00200577,142.494 5.27900577,142.982 5.61400577,143.176 C5.95000577,143.371 6.74700577,143.232 7.38300577,142.866 C8.02200577,142.502 8.53600577,142.816 8.52500577,143.557 C8.51400577,144.301 9.04400577,144.602 9.70500577,144.227 L9.78200577,144.182 C10.4420058,143.803 10.9850058,142.886 10.9910058,142.153 C10.9970058,141.417 11.3930058,140.587 11.8680058,140.314 C12.3480058,140.038 12.7470058,139.809 12.7570058,139.807 C12.7700058,139.806 13.2170058,140.058 13.7540058,140.371 C14.2940058,140.686 14.7340058,140.954 14.7340058,140.97 L14.7340058,142.004 C14.7340058,142.555 14.2090058,143.309 13.5730058,143.682 C12.9360058,144.054 12.4130058,144.975 12.4130058,145.74 L12.4130058,145.823 C12.4130058,146.585 12.9360058,146.897 13.5790058,146.522 C14.2170058,146.141 14.7420058,146.43 14.7420058,147.165 C14.7420058,147.899 15.0160058,148.66 15.3520058,148.856 C15.6890058,149.048 16.2450058,149.048 16.5900058,148.856 C16.9380058,148.66 17.2170058,147.899 17.2170058,147.165 C17.2170058,146.43 17.7470058,146.141 18.3910058,146.522 C19.0370058,146.897 19.5630058,146.585 19.5630058,145.823 L19.5630058,145.74 C19.5630058,144.975 19.0410058,144.054 18.4010058,143.682 C17.7600058,143.309 17.2370058,142.555 17.2370058,142.004 L17.2370058,140.97 C17.2370058,140.954 17.6870058,140.686 18.2370058,140.373 C18.7850058,140.058 19.2410058,139.807 19.2500058,139.807 C19.2620058,139.811 19.6630058,140.038 20.1390058,140.314 C20.6180058,140.587 21.0120058,141.417 21.0180058,142.153 C21.0250058,142.886 21.5690058,143.803 22.2280058,144.182 L22.3030058,144.227 C22.9630058,144.602 23.4950058,144.301 23.4850058,143.557 C23.4730058,142.816 23.9890058,142.502 24.6250058,142.866 C25.2640058,143.232 26.0590058,143.371 26.3930058,143.176 C26.7290058,142.982 27.0060058,142.494 27.0080058,142.102 C27.0100058,141.708 26.4910058,141.08 25.8540058,140.717 M16.8750058,137.987 C16.4110058,138.256 16.0160058,138.472 16.0040058,138.472 C15.9910058,138.472 15.5900058,138.256 15.1180058,137.987 C14.6450058,137.724 14.2520058,137.051 14.2500058,136.491 C14.2450058,135.936 14.6330058,135.252 15.1130058,134.973 C15.5920058,134.689 15.9870058,134.463 15.9870058,134.463 C15.9910058,134.463 16.3830058,134.689 16.8640058,134.973 C17.3420058,135.252 17.7290058,135.936 17.7270058,136.491 C17.7230058,137.051 17.3400058,137.724 16.8750058,137.987" id="air-conditioning--white" fill="#206FAC" sketch:type="MSShapeGroup"></path>
        <path d="M25.8540058,100.717 C25.2170058,100.354 25.2270058,99.752 25.8760058,99.376 C26.5260058,99.006 26.5160058,98.393 25.8560058,98.017 L25.7820058,97.975 C25.1200058,97.595 24.0570058,97.59 23.4150058,97.959 C22.7780058,98.332 21.8510058,98.4 21.3580058,98.123 C20.8660058,97.834 20.4650058,97.103 20.4690058,96.487 C20.4730058,95.877 20.4850058,95.362 20.4980058,95.347 C20.5100058,95.339 20.9070058,95.1 21.3830058,94.824 C21.8600058,94.542 22.7760058,94.614 23.4160058,94.979 C24.0610058,95.343 25.1220058,95.325 25.7800058,94.943 L25.8560058,94.903 C26.5120058,94.516 26.5180058,93.905 25.8660058,93.543 C25.2170058,93.182 25.2040058,92.581 25.8380058,92.218 C26.4720058,91.845 26.9890058,91.219 26.9890058,90.834 C26.9870058,90.446 26.7060058,89.966 26.3640058,89.766 C26.0220058,89.562 25.2250058,89.702 24.5890058,90.073 C23.9550058,90.444 23.4380058,90.136 23.4400058,89.387 C23.4430058,88.637 22.9070058,88.34 22.2490058,88.723 L22.1730058,88.77 C21.5160058,89.153 20.9810058,90.071 20.9830058,90.808 C20.9830058,91.549 20.5900058,92.386 20.1100058,92.67 C19.6270058,92.952 19.2260058,93.182 19.2150058,93.178 C19.2050058,93.175 18.7600058,92.916 18.2250058,92.603 C17.6910058,92.285 17.2540058,92.023 17.2540058,92.023 L17.2540058,90.998 C17.2540058,90.449 17.7690058,89.698 18.4010058,89.325 C19.0320058,88.951 19.5490058,88.027 19.5490058,87.268 L19.5490058,87.18 C19.5490058,86.418 19.0260058,86.105 18.3860058,86.485 C17.7480058,86.865 17.2270058,86.573 17.2270058,85.84 C17.2270058,85.105 16.9540058,84.346 16.6220058,84.147 C16.2870058,83.951 15.7290058,83.951 15.3810058,84.147 C15.0360058,84.346 14.7500058,85.105 14.7500058,85.84 C14.7500058,86.573 14.2200058,86.865 13.5730058,86.485 C12.9260058,86.105 12.3970058,86.418 12.3970058,87.18 L12.3970058,87.268 C12.3970058,88.027 12.9220058,88.951 13.5630058,89.325 C14.2050058,89.698 14.7310058,90.449 14.7310058,90.998 L14.7310058,92.016 C14.7310058,92.016 14.2950058,92.281 13.7660058,92.589 C13.2350058,92.904 12.7890058,93.155 12.7800058,93.16 C12.7690058,93.165 12.3680058,92.942 11.8910058,92.657 C11.4140058,92.384 11.0260058,91.549 11.0260058,90.808 C11.0280058,90.071 10.4930058,89.153 9.83400577,88.77 L9.75800577,88.723 C9.10400577,88.34 8.56700577,88.637 8.56900577,89.387 C8.57100577,90.136 8.05300577,90.444 7.42000577,90.073 C6.78600577,89.702 5.98700577,89.562 5.64500577,89.766 C5.30300577,89.966 5.02200577,90.446 5.02000577,90.834 C5.02000577,91.219 5.53800577,91.845 6.17100577,92.218 C6.80600577,92.581 6.79300577,93.182 6.14300577,93.543 C5.49300577,93.905 5.49800577,94.516 6.15300577,94.903 L6.23000577,94.946 C6.88700577,95.325 7.95000577,95.343 8.59200577,94.979 C9.23300577,94.614 10.1480058,94.542 10.6230058,94.824 C11.1000058,95.1 11.4980058,95.339 11.5100058,95.347 C11.5240058,95.362 11.5360058,95.877 11.5400058,96.487 C11.5440058,97.103 11.1450058,97.834 10.6510058,98.123 C10.1590058,98.4 9.23100577,98.332 8.59200577,97.959 C7.95300577,97.59 6.88900577,97.595 6.23000577,97.975 L6.15200577,98.017 C5.49300577,98.393 5.48500577,99.006 6.13300577,99.376 C6.78200577,99.752 6.79300577,100.354 6.15300577,100.717 C5.51600577,101.08 4.99800577,101.708 5.00000577,102.102 C5.00200577,102.494 5.27900577,102.982 5.61400577,103.176 C5.95000577,103.371 6.74700577,103.232 7.38300577,102.866 C8.02200577,102.502 8.53600577,102.816 8.52500577,103.557 C8.51400577,104.301 9.04400577,104.602 9.70500577,104.227 L9.78200577,104.182 C10.4420058,103.803 10.9850058,102.886 10.9910058,102.153 C10.9970058,101.417 11.3930058,100.587 11.8680058,100.314 C12.3480058,100.038 12.7470058,99.809 12.7570058,99.807 C12.7700058,99.806 13.2170058,100.058 13.7540058,100.371 C14.2940058,100.686 14.7340058,100.954 14.7340058,100.97 L14.7340058,102.004 C14.7340058,102.555 14.2090058,103.309 13.5730058,103.682 C12.9360058,104.054 12.4130058,104.975 12.4130058,105.74 L12.4130058,105.823 C12.4130058,106.585 12.9360058,106.897 13.5790058,106.522 C14.2170058,106.141 14.7420058,106.43 14.7420058,107.165 C14.7420058,107.899 15.0160058,108.66 15.3520058,108.856 C15.6890058,109.048 16.2450058,109.048 16.5900058,108.856 C16.9380058,108.66 17.2170058,107.899 17.2170058,107.165 C17.2170058,106.43 17.7470058,106.141 18.3910058,106.522 C19.0370058,106.897 19.5630058,106.585 19.5630058,105.823 L19.5630058,105.74 C19.5630058,104.975 19.0410058,104.054 18.4010058,103.682 C17.7600058,103.309 17.2370058,102.555 17.2370058,102.004 L17.2370058,100.97 C17.2370058,100.954 17.6870058,100.686 18.2370058,100.373 C18.7850058,100.058 19.2410058,99.807 19.2500058,99.807 C19.2620058,99.811 19.6630058,100.038 20.1390058,100.314 C20.6180058,100.587 21.0120058,101.417 21.0180058,102.153 C21.0250058,102.886 21.5690058,103.803 22.2280058,104.182 L22.3030058,104.227 C22.9630058,104.602 23.4950058,104.301 23.4850058,103.557 C23.4730058,102.816 23.9890058,102.502 24.6250058,102.866 C25.2640058,103.232 26.0590058,103.371 26.3930058,103.176 C26.7290058,102.982 27.0060058,102.494 27.0080058,102.102 C27.0100058,101.708 26.4910058,101.08 25.8540058,100.717 M16.8750058,97.987 C16.4110058,98.256 16.0160058,98.472 16.0040058,98.472 C15.9910058,98.472 15.5900058,98.256 15.1180058,97.987 C14.6450058,97.724 14.2520058,97.051 14.2500058,96.491 C14.2450058,95.936 14.6330058,95.252 15.1130058,94.973 C15.5920058,94.689 15.9870058,94.463 15.9870058,94.463 C15.9910058,94.463 16.3830058,94.689 16.8640058,94.973 C17.3420058,95.252 17.7290058,95.936 17.7270058,96.491 C17.7230058,97.051 17.3400058,97.724 16.8750058,97.987" id="air-conditioning--white" fill="#FFFFFF" sketch:type="MSShapeGroup"></path>
        <path d="M25.8540058,60.717 C25.2170058,60.354 25.2270058,59.752 25.8760058,59.376 C26.5260058,59.006 26.5160058,58.393 25.8560058,58.017 L25.7820058,57.975 C25.1200058,57.595 24.0570058,57.59 23.4150058,57.959 C22.7780058,58.332 21.8510058,58.4 21.3580058,58.123 C20.8660058,57.834 20.4650058,57.103 20.4690058,56.487 C20.4730058,55.877 20.4850058,55.362 20.4980058,55.347 C20.5100058,55.339 20.9070058,55.1 21.3830058,54.824 C21.8600058,54.542 22.7760058,54.614 23.4160058,54.979 C24.0610058,55.343 25.1220058,55.325 25.7800058,54.943 L25.8560058,54.903 C26.5120058,54.516 26.5180058,53.905 25.8660058,53.543 C25.2170058,53.182 25.2040058,52.581 25.8380058,52.218 C26.4720058,51.845 26.9890058,51.219 26.9890058,50.834 C26.9870058,50.446 26.7060058,49.966 26.3640058,49.766 C26.0220058,49.562 25.2250058,49.702 24.5890058,50.073 C23.9550058,50.444 23.4380058,50.136 23.4400058,49.387 C23.4430058,48.637 22.9070058,48.34 22.2490058,48.723 L22.1730058,48.77 C21.5160058,49.153 20.9810058,50.071 20.9830058,50.808 C20.9830058,51.549 20.5900058,52.386 20.1100058,52.67 C19.6270058,52.952 19.2260058,53.182 19.2150058,53.178 C19.2050058,53.175 18.7600058,52.916 18.2250058,52.603 C17.6910058,52.285 17.2540058,52.023 17.2540058,52.023 L17.2540058,50.998 C17.2540058,50.449 17.7690058,49.698 18.4010058,49.325 C19.0320058,48.951 19.5490058,48.027 19.5490058,47.268 L19.5490058,47.18 C19.5490058,46.418 19.0260058,46.105 18.3860058,46.485 C17.7480058,46.865 17.2270058,46.573 17.2270058,45.84 C17.2270058,45.105 16.9540058,44.346 16.6220058,44.147 C16.2870058,43.951 15.7290058,43.951 15.3810058,44.147 C15.0360058,44.346 14.7500058,45.105 14.7500058,45.84 C14.7500058,46.573 14.2200058,46.865 13.5730058,46.485 C12.9260058,46.105 12.3970058,46.418 12.3970058,47.18 L12.3970058,47.268 C12.3970058,48.027 12.9220058,48.951 13.5630058,49.325 C14.2050058,49.698 14.7310058,50.449 14.7310058,50.998 L14.7310058,52.016 C14.7310058,52.016 14.2950058,52.281 13.7660058,52.589 C13.2350058,52.904 12.7890058,53.155 12.7800058,53.16 C12.7690058,53.165 12.3680058,52.942 11.8910058,52.657 C11.4140058,52.384 11.0260058,51.549 11.0260058,50.808 C11.0280058,50.071 10.4930058,49.153 9.83400577,48.77 L9.75800577,48.723 C9.10400577,48.34 8.56700577,48.637 8.56900577,49.387 C8.57100577,50.136 8.05300577,50.444 7.42000577,50.073 C6.78600577,49.702 5.98700577,49.562 5.64500577,49.766 C5.30300577,49.966 5.02200577,50.446 5.02000577,50.834 C5.02000577,51.219 5.53800577,51.845 6.17100577,52.218 C6.80600577,52.581 6.79300577,53.182 6.14300577,53.543 C5.49300577,53.905 5.49800577,54.516 6.15300577,54.903 L6.23000577,54.946 C6.88700577,55.325 7.95000577,55.343 8.59200577,54.979 C9.23300577,54.614 10.1480058,54.542 10.6230058,54.824 C11.1000058,55.1 11.4980058,55.339 11.5100058,55.347 C11.5240058,55.362 11.5360058,55.877 11.5400058,56.487 C11.5440058,57.103 11.1450058,57.834 10.6510058,58.123 C10.1590058,58.4 9.23100577,58.332 8.59200577,57.959 C7.95300577,57.59 6.88900577,57.595 6.23000577,57.975 L6.15200577,58.017 C5.49300577,58.393 5.48500577,59.006 6.13300577,59.376 C6.78200577,59.752 6.79300577,60.354 6.15300577,60.717 C5.51600577,61.08 4.99800577,61.708 5.00000577,62.102 C5.00200577,62.494 5.27900577,62.982 5.61400577,63.176 C5.95000577,63.371 6.74700577,63.232 7.38300577,62.866 C8.02200577,62.502 8.53600577,62.816 8.52500577,63.557 C8.51400577,64.301 9.04400577,64.602 9.70500577,64.227 L9.78200577,64.182 C10.4420058,63.803 10.9850058,62.886 10.9910058,62.153 C10.9970058,61.417 11.3930058,60.587 11.8680058,60.314 C12.3480058,60.038 12.7470058,59.809 12.7570058,59.807 C12.7700058,59.806 13.2170058,60.058 13.7540058,60.371 C14.2940058,60.686 14.7340058,60.954 14.7340058,60.97 L14.7340058,62.004 C14.7340058,62.555 14.2090058,63.309 13.5730058,63.682 C12.9360058,64.054 12.4130058,64.975 12.4130058,65.74 L12.4130058,65.823 C12.4130058,66.585 12.9360058,66.897 13.5790058,66.522 C14.2170058,66.141 14.7420058,66.43 14.7420058,67.165 C14.7420058,67.899 15.0160058,68.66 15.3520058,68.856 C15.6890058,69.048 16.2450058,69.048 16.5900058,68.856 C16.9380058,68.66 17.2170058,67.899 17.2170058,67.165 C17.2170058,66.43 17.7470058,66.141 18.3910058,66.522 C19.0370058,66.897 19.5630058,66.585 19.5630058,65.823 L19.5630058,65.74 C19.5630058,64.975 19.0410058,64.054 18.4010058,63.682 C17.7600058,63.309 17.2370058,62.555 17.2370058,62.004 L17.2370058,60.97 C17.2370058,60.954 17.6870058,60.686 18.2370058,60.373 C18.7850058,60.058 19.2410058,59.807 19.2500058,59.807 C19.2620058,59.811 19.6630058,60.038 20.1390058,60.314 C20.6180058,60.587 21.0120058,61.417 21.0180058,62.153 C21.0250058,62.886 21.5690058,63.803 22.2280058,64.182 L22.3030058,64.227 C22.9630058,64.602 23.4950058,64.301 23.4850058,63.557 C23.4730058,62.816 23.9890058,62.502 24.6250058,62.866 C25.2640058,63.232 26.0590058,63.371 26.3930058,63.176 C26.7290058,62.982 27.0060058,62.494 27.0080058,62.102 C27.0100058,61.708 26.4910058,61.08 25.8540058,60.717 M16.8750058,57.987 C16.4110058,58.256 16.0160058,58.472 16.0040058,58.472 C15.9910058,58.472 15.5900058,58.256 15.1180058,57.987 C14.6450058,57.724 14.2520058,57.051 14.2500058,56.491 C14.2450058,55.936 14.6330058,55.252 15.1130058,54.973 C15.5920058,54.689 15.9870058,54.463 15.9870058,54.463 C15.9910058,54.463 16.3830058,54.689 16.8640058,54.973 C17.3420058,55.252 17.7290058,55.936 17.7270058,56.491 C17.7230058,57.051 17.3400058,57.724 16.8750058,57.987" id="air-conditioning--light-grey" fill="#67737B" sketch:type="MSShapeGroup"></path>
        <path d="M25.8540058,20.717 C25.2170058,20.354 25.2270058,19.752 25.8760058,19.376 C26.5260058,19.006 26.5160058,18.393 25.8560058,18.017 L25.7820058,17.975 C25.1200058,17.595 24.0570058,17.59 23.4150058,17.959 C22.7780058,18.332 21.8510058,18.4 21.3580058,18.123 C20.8660058,17.834 20.4650058,17.103 20.4690058,16.487 C20.4730058,15.877 20.4850058,15.362 20.4980058,15.347 C20.5100058,15.339 20.9070058,15.1 21.3830058,14.824 C21.8600058,14.542 22.7760058,14.614 23.4160058,14.979 C24.0610058,15.343 25.1220058,15.325 25.7800058,14.943 L25.8560058,14.903 C26.5120058,14.516 26.5180058,13.905 25.8660058,13.543 C25.2170058,13.182 25.2040058,12.581 25.8380058,12.218 C26.4720058,11.845 26.9890058,11.219 26.9890058,10.834 C26.9870058,10.446 26.7060058,9.966 26.3640058,9.766 C26.0220058,9.562 25.2250058,9.702 24.5890058,10.073 C23.9550058,10.444 23.4380058,10.136 23.4400058,9.387 C23.4430058,8.637 22.9070058,8.34 22.2490058,8.723 L22.1730058,8.77 C21.5160058,9.153 20.9810058,10.071 20.9830058,10.808 C20.9830058,11.549 20.5900058,12.386 20.1100058,12.67 C19.6270058,12.952 19.2260058,13.182 19.2150058,13.178 C19.2050058,13.175 18.7600058,12.916 18.2250058,12.603 C17.6910058,12.285 17.2540058,12.023 17.2540058,12.023 L17.2540058,10.998 C17.2540058,10.449 17.7690058,9.698 18.4010058,9.325 C19.0320058,8.951 19.5490058,8.027 19.5490058,7.268 L19.5490058,7.18 C19.5490058,6.418 19.0260058,6.105 18.3860058,6.485 C17.7480058,6.865 17.2270058,6.573 17.2270058,5.84 C17.2270058,5.105 16.9540058,4.346 16.6220058,4.147 C16.2870058,3.951 15.7290058,3.951 15.3810058,4.147 C15.0360058,4.346 14.7500058,5.105 14.7500058,5.84 C14.7500058,6.573 14.2200058,6.865 13.5730058,6.485 C12.9260058,6.105 12.3970058,6.418 12.3970058,7.18 L12.3970058,7.268 C12.3970058,8.027 12.9220058,8.951 13.5630058,9.325 C14.2050058,9.698 14.7310058,10.449 14.7310058,10.998 L14.7310058,12.016 C14.7310058,12.016 14.2950058,12.281 13.7660058,12.589 C13.2350058,12.904 12.7890058,13.155 12.7800058,13.16 C12.7690058,13.165 12.3680058,12.942 11.8910058,12.657 C11.4140058,12.384 11.0260058,11.549 11.0260058,10.808 C11.0280058,10.071 10.4930058,9.153 9.83400577,8.77 L9.75800577,8.723 C9.10400577,8.34 8.56700577,8.637 8.56900577,9.387 C8.57100577,10.136 8.05300577,10.444 7.42000577,10.073 C6.78600577,9.702 5.98700577,9.562 5.64500577,9.766 C5.30300577,9.966 5.02200577,10.446 5.02000577,10.834 C5.02000577,11.219 5.53800577,11.845 6.17100577,12.218 C6.80600577,12.581 6.79300577,13.182 6.14300577,13.543 C5.49300577,13.905 5.49800577,14.516 6.15300577,14.903 L6.23000577,14.946 C6.88700577,15.325 7.95000577,15.343 8.59200577,14.979 C9.23300577,14.614 10.1480058,14.542 10.6230058,14.824 C11.1000058,15.1 11.4980058,15.339 11.5100058,15.347 C11.5240058,15.362 11.5360058,15.877 11.5400058,16.487 C11.5440058,17.103 11.1450058,17.834 10.6510058,18.123 C10.1590058,18.4 9.23100577,18.332 8.59200577,17.959 C7.95300577,17.59 6.88900577,17.595 6.23000577,17.975 L6.15200577,18.017 C5.49300577,18.393 5.48500577,19.006 6.13300577,19.376 C6.78200577,19.752 6.79300577,20.354 6.15300577,20.717 C5.51600577,21.08 4.99800577,21.708 5.00000577,22.102 C5.00200577,22.494 5.27900577,22.982 5.61400577,23.176 C5.95000577,23.371 6.74700577,23.232 7.38300577,22.866 C8.02200577,22.502 8.53600577,22.816 8.52500577,23.557 C8.51400577,24.301 9.04400577,24.602 9.70500577,24.227 L9.78200577,24.182 C10.4420058,23.803 10.9850058,22.886 10.9910058,22.153 C10.9970058,21.417 11.3930058,20.587 11.8680058,20.314 C12.3480058,20.038 12.7470058,19.809 12.7570058,19.807 C12.7700058,19.806 13.2170058,20.058 13.7540058,20.371 C14.2940058,20.686 14.7340058,20.954 14.7340058,20.97 L14.7340058,22.004 C14.7340058,22.555 14.2090058,23.309 13.5730058,23.682 C12.9360058,24.054 12.4130058,24.975 12.4130058,25.74 L12.4130058,25.823 C12.4130058,26.585 12.9360058,26.897 13.5790058,26.522 C14.2170058,26.141 14.7420058,26.43 14.7420058,27.165 C14.7420058,27.899 15.0160058,28.66 15.3520058,28.856 C15.6890058,29.048 16.2450058,29.048 16.5900058,28.856 C16.9380058,28.66 17.2170058,27.899 17.2170058,27.165 C17.2170058,26.43 17.7470058,26.141 18.3910058,26.522 C19.0370058,26.897 19.5630058,26.585 19.5630058,25.823 L19.5630058,25.74 C19.5630058,24.975 19.0410058,24.054 18.4010058,23.682 C17.7600058,23.309 17.2370058,22.555 17.2370058,22.004 L17.2370058,20.97 C17.2370058,20.954 17.6870058,20.686 18.2370058,20.373 C18.7850058,20.058 19.2410058,19.807 19.2500058,19.807 C19.2620058,19.811 19.6630058,20.038 20.1390058,20.314 C20.6180058,20.587 21.0120058,21.417 21.0180058,22.153 C21.0250058,22.886 21.5690058,23.803 22.2280058,24.182 L22.3030058,24.227 C22.9630058,24.602 23.4950058,24.301 23.4850058,23.557 C23.4730058,22.816 23.9890058,22.502 24.6250058,22.866 C25.2640058,23.232 26.0590058,23.371 26.3930058,23.176 C26.7290058,22.982 27.0060058,22.494 27.0080058,22.102 C27.0100058,21.708 26.4910058,21.08 25.8540058,20.717 M16.8750058,17.987 C16.4110058,18.256 16.0160058,18.472 16.0040058,18.472 C15.9910058,18.472 15.5900058,18.256 15.1180058,17.987 C14.6450058,17.724 14.2520058,17.051 14.2500058,16.491 C14.2450058,15.936 14.6330058,15.252 15.1130058,14.973 C15.5920058,14.689 15.9870058,14.463 15.9870058,14.463 C15.9910058,14.463 16.3830058,14.689 16.8640058,14.973 C17.3420058,15.252 17.7290058,15.936 17.7270058,16.491 C17.7230058,17.051 17.3400058,17.724 16.8750058,17.987" id="air-conditioning--dark-grey" fill="#3A434E" sketch:type="MSShapeGroup"></path>
    </g>
</svg>