<svg width="32" height="232" viewBox="0 0 32 232" xmlns="http://www.w3.org/2000/svg"><title>arrow-up</title><g fill="none"><path d="M17.702 124.709l8.599 8.694c.931.943.931 2.474 0 3.416-.932.945-2.446.945-3.376 0l-4.472-4.52v14.286c0 1.331-1.068 2.415-2.387 2.415-1.325 0-2.391-1.084-2.391-2.415v-14.416l-4.602 4.65c-.925.945-2.441.945-3.375 0-.932-.942-.932-2.473 0-3.416l8.598-8.694c.469-.477 1.087-.711 1.703-.709.613-.002 1.231.232 1.702.709" fill="#206FAC"/><path d="M17.702 84.709l8.599 8.694c.931.943.931 2.474 0 3.416-.932.945-2.446.945-3.376 0l-4.472-4.52v14.286c0 1.331-1.068 2.415-2.387 2.415-1.325 0-2.391-1.084-2.391-2.415v-14.416l-4.602 4.65c-.925.945-2.441.945-3.375 0-.932-.942-.932-2.473 0-3.416l8.598-8.694c.469-.477 1.087-.711 1.703-.709.613-.002 1.231.232 1.702.709" fill="#fff"/><path d="M17.702 44.709l8.599 8.694c.931.943.931 2.474 0 3.416-.932.945-2.446.945-3.376 0l-4.472-4.52v14.286c0 1.331-1.068 2.415-2.387 2.415-1.325 0-2.391-1.084-2.391-2.415v-14.416l-4.602 4.65c-.925.945-2.441.945-3.375 0-.932-.942-.932-2.473 0-3.416l8.598-8.694c.469-.477 1.087-.711 1.703-.709.613-.002 1.231.232 1.702.709" fill="#67737B"/><path d="M17.702 4.709l8.599 8.694c.931.943.931 2.474 0 3.416-.932.945-2.446.945-3.376 0l-4.472-4.52v14.286c0 1.331-1.068 2.415-2.387 2.415-1.325 0-2.391-1.084-2.391-2.415v-14.416l-4.602 4.65c-.925.945-2.441.945-3.375 0-.932-.942-.932-2.473 0-3.416l8.598-8.694c.469-.477 1.087-.711 1.703-.709.613-.002 1.231.232 1.702.709" fill="#3A434E"/></g></svg>