<svg width="32" height="232" viewBox="0 0 32 232" xmlns="http://www.w3.org/2000/svg"><title>arrow-left</title><g fill="none"><path d="M4.209 135.25l8.694-8.599c.943-.932 2.474-.932 3.416 0 .945.932.945 2.447 0 3.376l-4.52 4.472h14.285c1.332 0 2.416 1.068 2.416 2.389 0 1.323-1.084 2.389-2.416 2.389h-14.416l4.651 4.6c.945.928.945 2.443 0 3.376-.942.932-2.473.932-3.416 0l-8.694-8.598c-.476-.47-.711-1.088-.709-1.704-.002-.613.233-1.231.709-1.701" fill="#206FAC"/><path d="M4.209 95.25l8.694-8.599c.943-.932 2.474-.932 3.416 0 .945.932.945 2.447 0 3.376l-4.52 4.472h14.285c1.332 0 2.416 1.068 2.416 2.389 0 1.323-1.084 2.389-2.416 2.389h-14.416l4.651 4.6c.945.928.945 2.443 0 3.376-.942.932-2.473.932-3.416 0l-8.694-8.598c-.476-.47-.711-1.088-.709-1.704-.002-.613.233-1.231.709-1.701" fill="#fff"/><path d="M4.209 55.25l8.694-8.599c.943-.932 2.474-.932 3.416 0 .945.932.945 2.447 0 3.376l-4.52 4.472h14.285c1.332 0 2.416 1.068 2.416 2.389 0 1.323-1.084 2.389-2.416 2.389h-14.416l4.651 4.6c.945.928.945 2.443 0 3.376-.942.932-2.473.932-3.416 0l-8.694-8.598c-.476-.47-.711-1.088-.709-1.704-.002-.613.233-1.231.709-1.701" fill="#67737B"/><path d="M4.209 15.25l8.694-8.599c.943-.932 2.474-.932 3.416 0 .945.932.945 2.447 0 3.376l-4.52 4.472h14.285c1.332 0 2.416 1.068 2.416 2.389 0 1.323-1.084 2.389-2.416 2.389h-14.416l4.651 4.6c.945.928.945 2.443 0 3.376-.942.932-2.473.932-3.416 0l-8.694-8.598c-.476-.47-.711-1.088-.709-1.704-.002-.613.233-1.231.709-1.701" fill="#3A434E"/></g></svg>