<svg width="32" height="232" xmlns="http://www.w3.org/2000/svg" xmlns:sketch="http://www.bohemiancoding.com/sketch/ns"><title>arrow-down</title><g sketch:type="MSPage" fill="none"><path d="M17.702 148.29l8.601-8.692c.93-.943.93-2.475 0-3.416-.933-.946-2.447-.946-3.376 0l-4.473 4.518v-14.286c0-1.33-1.068-2.414-2.387-2.414-1.325 0-2.391 1.084-2.391 2.414v14.416l-4.6-4.648c-.927-.946-2.443-.946-3.374 0-.935.941-.935 2.473 0 3.416l8.596 8.692c.47.478 1.088.712 1.704.71.614.002 1.23-.232 1.701-.71" fill="#206FAC" sketch:type="MSShapeGroup"/><path d="M17.702 108.29l8.601-8.692c.93-.943.93-2.475 0-3.416-.933-.946-2.447-.946-3.376 0l-4.473 4.518v-14.286c0-1.33-1.068-2.414-2.387-2.414-1.325 0-2.391 1.084-2.391 2.414v14.416l-4.6-4.648c-.927-.946-2.443-.946-3.374 0-.935.941-.935 2.473 0 3.416l8.596 8.692c.47.478 1.088.712 1.704.71.614.002 1.23-.232 1.701-.71" fill="#fff" sketch:type="MSShapeGroup"/><path d="M17.702 68.29l8.601-8.692c.93-.943.93-2.475 0-3.416-.933-.946-2.447-.946-3.376 0l-4.473 4.518v-14.286c0-1.33-1.068-2.414-2.387-2.414-1.325 0-2.391 1.084-2.391 2.414v14.416l-4.6-4.648c-.927-.946-2.443-.946-3.374 0-.935.941-.935 2.473 0 3.416l8.596 8.692c.47.478 1.088.712 1.704.71.614.002 1.23-.232 1.701-.71" fill="#67737B" sketch:type="MSShapeGroup"/><path d="M17.702 28.29l8.601-8.692c.93-.943.93-2.475 0-3.416-.933-.946-2.447-.946-3.376 0l-4.473 4.518v-14.286c0-1.33-1.068-2.414-2.387-2.414-1.325 0-2.391 1.084-2.391 2.414v14.416l-4.6-4.648c-.927-.946-2.443-.946-3.374 0-.935.941-.935 2.473 0 3.416l8.596 8.692c.47.478 1.088.712 1.704.71.614.002 1.23-.232 1.701-.71" fill="#3A434E" sketch:type="MSShapeGroup"/></g></svg>