<svg width="32" height="232" viewBox="0 0 32 232" xmlns="http://www.w3.org/2000/svg"><title>article</title><g fill="none"><path d="M23.754 163h-15.507c-1.239 0-2.246 1.039-2.246 2.316v22.37c0 1.278 1.007 2.314 2.246 2.314h15.507c1.241 0 2.246-1.036 2.246-2.314v-22.37c0-1.277-1.005-2.316-2.246-2.316zm-15.615 3.166h4.726v2.199h-4.726v-2.199zm0 14.649h11.041v2.181h-11.041v-2.181zm15.758-2.718l-15.758.018v-2.113l15.758-.035v2.13zm0-4.871l-15.758.064v-2.162l15.758-.017v2.115zm0 0" fill="#C7E6AA"/><path d="M23.754 123h-15.507c-1.239 0-2.246 1.039-2.246 2.316v22.37c0 1.278 1.007 2.314 2.246 2.314h15.507c1.241 0 2.246-1.036 2.246-2.314v-22.37c0-1.277-1.005-2.316-2.246-2.316zm-15.615 3.166h4.726v2.199h-4.726v-2.199zm0 14.649h11.041v2.181h-11.041v-2.181zm15.758-2.718l-15.758.018v-2.113l15.758-.035v2.13zm0-4.871l-15.758.064v-2.162l15.758-.017v2.115zm0 0" fill="#206FAC"/><path d="M23.754 83h-15.507c-1.239 0-2.246 1.039-2.246 2.316v22.37c0 1.278 1.007 2.314 2.246 2.314h15.507c1.241 0 2.246-1.036 2.246-2.314v-22.37c0-1.277-1.005-2.316-2.246-2.316zm-15.615 3.166h4.726v2.199h-4.726v-2.199zm0 14.649h11.041v2.181h-11.041v-2.181zm15.758-2.718l-15.758.018v-2.113l15.758-.035v2.13zm0-4.871l-15.758.064v-2.162l15.758-.017v2.115zm0 0" fill="#fff"/><path d="M23.754 43h-15.507c-1.239 0-2.246 1.039-2.246 2.316v22.37c0 1.278 1.007 2.314 2.246 2.314h15.507c1.241 0 2.246-1.036 2.246-2.314v-22.37c0-1.277-1.005-2.316-2.246-2.316zm-15.615 3.166h4.726v2.199h-4.726v-2.199zm0 14.649h11.041v2.181h-11.041v-2.181zm15.758-2.718l-15.758.018v-2.113l15.758-.035v2.13zm0-4.871l-15.758.064v-2.162l15.758-.017v2.115zm0 0" fill="#67747C"/><path d="M23.754 3h-15.507c-1.239 0-2.246 1.039-2.246 2.316v22.37c0 1.278 1.007 2.314 2.246 2.314h15.507c1.241 0 2.246-1.036 2.246-2.314v-22.37c0-1.277-1.005-2.316-2.246-2.316zm-15.615 3.166h4.726v2.199h-4.726v-2.199zm0 14.649h11.041v2.181h-11.041v-2.181zm15.758-2.718l-15.758.018v-2.113l15.758-.035v2.13zm0-4.871l-15.758.064v-2.162l15.758-.017v2.115zm0 0" fill="#3B444F"/></g></svg>