<svg width="32" height="32" viewBox="0 0 32 32" xmlns="http://www.w3.org/2000/svg" xmlns:sketch="http://www.bohemiancoding.com/sketch/ns"><title>article-pin-green</title><path d="M16.147 0c6.711 0 12.15 4.654 12.15 11.648 0 6.834-6.131 9.769-9.395 14.14-2.671 3.569-2.755 6.212-2.755 6.212s-.022-2.656-2.755-6.212c-3.356-4.371-9.392-7.104-9.392-14.14 0-6.996 5.438-11.648 12.147-11.648m-3.907 7.011h2.31v1.043h-2.31v-1.043zm0 6.945h5.395v1.035h-5.395v-1.035zm7.699-1.287l-7.699.008v-1.003l7.699-.017v1.012zm0-2.312l-7.699.032v-1.024l7.699-.008v1zm-.07-4.846h-7.575c-.605 0-1.094.493-1.094 1.098v10.605c0 .606.489 1.098 1.094 1.098h7.575c.606 0 1.096-.492 1.096-1.098v-10.605c0-.605-.49-1.098-1.096-1.098zm0 0" fill="#C7E6AA" sketch:type="MSShapeGroup"/></svg>