<svg width="22" height="32" viewBox="0 0 22 32" xmlns="http://www.w3.org/2000/svg"><title>article--pin</title><g fill="none"><path d="M15.499 29.984c0 1.105-2.016 2-4.5 2-2.486 0-4.5-.895-4.5-2 0-1.104 2.014-2 4.5-2 2.484 0 4.5.896 4.5 2" fill-opacity=".2" fill="#1D508D"/><path d="M10.998.016c6.076 0 11.001 4.362 11.001 10.919 0 6.408-5.551 9.16-8.506 13.257-2.419 3.346-2.495 5.824-2.495 5.824s-.019-2.491-2.494-5.824c-3.039-4.097-8.505-6.661-8.505-13.257 0-6.559 4.925-10.919 10.999-10.919" fill="#C7E6AA"/><path d="M7.398 6.589h2.165v.977h-2.165v-.977zm0 6.51h5.057v.971h-5.057v-.971zm7.218-1.205l-7.218.005v-.939l7.218-.017v.951zm0-2.168l-7.218.03v-.962l7.218-.006v.938zm-.066-4.543h-7.103c-.565 0-1.025.461-1.025 1.029v9.941c0 .569.46 1.03 1.025 1.03h7.103c.566 0 1.027-.461 1.027-1.03v-9.941c0-.568-.461-1.029-1.027-1.029zm0 0" fill="#fff"/></g></svg>