<?xml version="1.0" encoding="UTF-8" standalone="no"?>
<svg width="32px" height="32px" viewBox="0 0 32 32" version="1.1" xmlns="http://www.w3.org/2000/svg" xmlns:xlink="http://www.w3.org/1999/xlink" xmlns:sketch="http://www.bohemiancoding.com/sketch/ns">
    <title>article--body-grey</title>
    <description>Created with Sketch (http://www.bohemiancoding.com/sketch)</description>
    <defs></defs>
    <g id="Page-1" stroke="none" stroke-width="1" fill="none" fill-rule="evenodd" sketch:type="MSPage">
        <path d="M23.7536583,3 L8.2463417,3 C7.00688051,3 6,4.03926789 6,5.31613977 L6,27.6858569 C6,28.9637271 7.00688051,30 8.2463417,30 L23.7536583,30 C24.9950577,30 26,28.9637271 26,27.6858569 L26,5.31613977 C26,4.03926789 24.9950577,3 23.7536583,3 L23.7536583,3 L23.7536583,3 L23.7536583,3 Z M8.13877314,6.16572379 L12.8650063,6.16572379 L12.8650063,8.36505824 L8.13877314,8.36505824 L8.13877314,8.36505824 L8.13877314,6.16572379 L8.13877314,6.16572379 Z M8.13877314,20.8143095 L19.1795717,20.8143095 L19.1795717,22.9956739 L8.13877314,22.9956739 L8.13877314,22.9956739 L8.13877314,20.8143095 L8.13877314,20.8143095 Z M23.8970831,18.0958403 L8.13877314,18.1138103 L8.13877314,16.0003328 L23.8970831,15.965391 L23.8970831,18.0958403 L23.8970831,18.0958403 L23.8970831,18.0958403 L23.8970831,18.0958403 Z M23.8970831,13.2249584 L8.13877314,13.2888519 L8.13877314,11.1264559 L23.8970831,11.1094842 L23.8970831,13.2249584 L23.8970831,13.2249584 Z M23.8970831,13.2249584" id="article--body-grey" fill="#67747C" sketch:type="MSShapeGroup"></path>
    </g>
</svg>