<svg width="32" height="232" xmlns="http://www.w3.org/2000/svg" xmlns:sketch="http://www.bohemiancoding.com/sketch/ns"><title>article--line</title><g sketch:type="MSPage" fill="none"><path d="M22.848 124.7c1.097 0 1.986.906 1.986 2.024v19.555c0 1.116-.889 2.021-1.986 2.021h-13.699c-1.096 0-1.984-.905-1.984-2.021v-19.555c0-1.118.888-2.024 1.984-2.024h13.699zm-13.793 4.689h4.175v-1.924h-4.175v1.924zm0 4.306l13.922-.06v-1.848l-13.922.014v1.894zm0 4.216l13.922-.015v-1.863l-13.922.03v1.848zm0 4.268h9.754v-1.908h-9.754v1.908zm13.793-19.179h-13.699c-2.012 0-3.649 1.669-3.649 3.724v19.555c0 2.053 1.637 3.721 3.649 3.721h13.699c2.015 0 3.652-1.668 3.652-3.721v-19.555c0-2.055-1.637-3.724-3.652-3.724zm0 0" fill="#206FAC" sketch:type="MSShapeGroup"/><path d="M22.848 84.7c1.097 0 1.986.906 1.986 2.024v19.555c0 1.116-.889 2.021-1.986 2.021h-13.699c-1.096 0-1.984-.905-1.984-2.021v-19.555c0-1.118.888-2.024 1.984-2.024h13.699zm-13.793 4.689h4.175v-1.924h-4.175v1.924zm0 4.306l13.922-.06v-1.848l-13.922.014v1.894zm0 4.216l13.922-.015v-1.863l-13.922.03v1.848zm0 4.268h9.754v-1.908h-9.754v1.908zm13.793-19.179h-13.699c-2.012 0-3.649 1.669-3.649 3.724v19.555c0 2.053 1.637 3.721 3.649 3.721h13.699c2.015 0 3.652-1.668 3.652-3.721v-19.555c0-2.055-1.637-3.724-3.652-3.724zm0 0" fill="#fff" sketch:type="MSShapeGroup"/><path d="M22.848 44.7c1.097 0 1.986.906 1.986 2.024v19.555c0 1.116-.889 2.021-1.986 2.021h-13.699c-1.096 0-1.984-.905-1.984-2.021v-19.555c0-1.118.888-2.024 1.984-2.024h13.699zm-13.793 4.689h4.175v-1.924h-4.175v1.924zm0 4.306l13.922-.06v-1.848l-13.922.014v1.894zm0 4.216l13.922-.015v-1.863l-13.922.03v1.848zm0 4.268h9.754v-1.908h-9.754v1.908zm13.793-19.179h-13.699c-2.012 0-3.649 1.669-3.649 3.724v19.555c0 2.053 1.637 3.721 3.649 3.721h13.699c2.015 0 3.652-1.668 3.652-3.721v-19.555c0-2.055-1.637-3.724-3.652-3.724zm0 0" fill="#67747C" sketch:type="MSShapeGroup"/><path d="M22.848 4.7c1.097 0 1.986.906 1.986 2.024v19.555c0 1.116-.889 2.021-1.986 2.021h-13.699c-1.096 0-1.984-.905-1.984-2.021v-19.555c0-1.118.888-2.024 1.984-2.024h13.699zm-13.793 4.689h4.175v-1.924h-4.175v1.924zm0 4.306l13.922-.06v-1.848l-13.922.014v1.894zm0 4.216l13.922-.015v-1.863l-13.922.03v1.848zm0 4.268h9.754v-1.908h-9.754v1.908zm13.793-19.179h-13.699c-2.012 0-3.649 1.669-3.649 3.724v19.555c0 2.053 1.637 3.721 3.649 3.721h13.699c2.015 0 3.652-1.668 3.652-3.721v-19.555c0-2.055-1.637-3.724-3.652-3.724zm0 0" fill="#3B444F" sketch:type="MSShapeGroup"/><path d="M22.848 164.7c1.097 0 1.986.906 1.986 2.024v19.555c0 1.116-.889 2.021-1.986 2.021h-13.699c-1.096 0-1.984-.905-1.984-2.021v-19.555c0-1.118.888-2.024 1.984-2.024h13.699zm-13.793 4.689h4.175v-1.924h-4.175v1.924zm0 4.306l13.922-.06v-1.848l-13.922.014v1.894zm0 4.216l13.922-.015v-1.863l-13.922.03v1.848zm0 4.268h9.754v-1.908h-9.754v1.908zm13.793-19.179h-13.699c-2.012 0-3.649 1.669-3.649 3.724v19.555c0 2.053 1.637 3.721 3.649 3.721h13.699c2.015 0 3.652-1.668 3.652-3.721v-19.555c0-2.055-1.637-3.724-3.652-3.724zm0 0" fill="#C7E6AA" sketch:type="MSShapeGroup"/></g></svg>