<?xml version="1.0" encoding="UTF-8" standalone="no"?>
<svg width="32px" height="32px" viewBox="0 0 32 32" version="1.1" xmlns="http://www.w3.org/2000/svg" xmlns:xlink="http://www.w3.org/1999/xlink" xmlns:sketch="http://www.bohemiancoding.com/sketch/ns">
    <title>article-pin-green</title>
    <description>Created with Sketch (http://www.bohemiancoding.com/sketch)</description>
    <defs></defs>
    <g id="Points-of-interest" stroke="none" stroke-width="1" fill="none" fill-rule="evenodd" sketch:type="MSPage">
        <path d="M16.1469361,0 C22.8581522,0 28.297001,4.654 28.297001,11.648 C28.297001,18.482 22.1656507,21.417 18.9023414,25.788 C16.231413,29.357 16.1469361,32 16.1469361,32 C16.1469361,32 16.1250347,29.344 13.3915308,25.788 C10.0354013,21.417 4,18.684 4,11.648 C4,4.652 9.43780586,0 16.1469361,0 M12.24,7.011 L14.55,7.011 L14.55,8.054 L12.24,8.054 L12.24,8.054 L12.24,7.011 L12.24,7.011 Z M12.24,13.956 L17.635,13.956 L17.635,14.991 L12.24,14.991 L12.24,14.991 L12.24,13.956 L12.24,13.956 Z M19.939,12.669 L12.24,12.677 L12.24,11.674 L19.939,11.657 L19.939,12.669 L19.939,12.669 L19.939,12.669 L19.939,12.669 Z M19.939,10.357 L12.24,10.389 L12.24,9.365 L19.939,9.357 L19.939,10.357 L19.939,10.357 L19.939,10.357 L19.939,10.357 Z M19.869,5.511 L12.294,5.511 C11.689,5.511 11.2,6.004 11.2,6.609 L11.2,17.214 C11.2,17.82 11.689,18.312 12.294,18.312 L19.869,18.312 C20.475,18.312 20.965,17.82 20.965,17.214 L20.965,6.609 C20.965,6.004 20.475,5.511 19.869,5.511 L19.869,5.511 Z M19.869,5.511" id="article-pin--green" fill="#C7E6AA" sketch:type="MSShapeGroup"></path>
    </g>
</svg>