<?xml version="1.0" encoding="UTF-8" standalone="no"?>
<svg width="32px" height="232px" viewBox="0 0 32 232" version="1.1" xmlns="http://www.w3.org/2000/svg" xmlns:xlink="http://www.w3.org/1999/xlink" xmlns:sketch="http://www.bohemiancoding.com/sketch/ns">
    <title>article</title>
    <description>Created with Sketch (http://www.bohemiancoding.com/sketch)</description>
    <defs></defs>
    <g id="Points-of-interest" stroke="none" stroke-width="1" fill="none" fill-rule="evenodd" sketch:type="MSPage">
        <path d="M23.7536583,163 L8.2463417,163 C7.00688051,163 6,164.039268 6,165.31614 L6,187.685857 C6,188.963727 7.00688051,190 8.2463417,190 L23.7536583,190 C24.9950577,190 26,188.963727 26,187.685857 L26,165.31614 C26,164.039268 24.9950577,163 23.7536583,163 L23.7536583,163 L23.7536583,163 L23.7536583,163 Z M8.13877314,166.165724 L12.8650063,166.165724 L12.8650063,168.365058 L8.13877314,168.365058 L8.13877314,168.365058 L8.13877314,166.165724 L8.13877314,166.165724 Z M8.13877314,180.814309 L19.1795717,180.814309 L19.1795717,182.995674 L8.13877314,182.995674 L8.13877314,182.995674 L8.13877314,180.814309 L8.13877314,180.814309 Z M23.8970831,178.09584 L8.13877314,178.11381 L8.13877314,176.000333 L23.8970831,175.965391 L23.8970831,178.09584 L23.8970831,178.09584 L23.8970831,178.09584 L23.8970831,178.09584 Z M23.8970831,173.224958 L8.13877314,173.288852 L8.13877314,171.126456 L23.8970831,171.109484 L23.8970831,173.224958 L23.8970831,173.224958 Z M23.8970831,173.224958" id="article--green" fill="#C7E6AA" sketch:type="MSShapeGroup"></path>
        <path d="M23.7536583,123 L8.2463417,123 C7.00688051,123 6,124.039268 6,125.31614 L6,147.685857 C6,148.963727 7.00688051,150 8.2463417,150 L23.7536583,150 C24.9950577,150 26,148.963727 26,147.685857 L26,125.31614 C26,124.039268 24.9950577,123 23.7536583,123 L23.7536583,123 L23.7536583,123 L23.7536583,123 Z M8.13877314,126.165724 L12.8650063,126.165724 L12.8650063,128.365058 L8.13877314,128.365058 L8.13877314,128.365058 L8.13877314,126.165724 L8.13877314,126.165724 Z M8.13877314,140.814309 L19.1795717,140.814309 L19.1795717,142.995674 L8.13877314,142.995674 L8.13877314,142.995674 L8.13877314,140.814309 L8.13877314,140.814309 Z M23.8970831,138.09584 L8.13877314,138.11381 L8.13877314,136.000333 L23.8970831,135.965391 L23.8970831,138.09584 L23.8970831,138.09584 L23.8970831,138.09584 L23.8970831,138.09584 Z M23.8970831,133.224958 L8.13877314,133.288852 L8.13877314,131.126456 L23.8970831,131.109484 L23.8970831,133.224958 L23.8970831,133.224958 Z M23.8970831,133.224958" id="article--lp-blue" fill="#206FAC" sketch:type="MSShapeGroup"></path>
        <path d="M23.7536583,83 L8.2463417,83 C7.00688051,83 6,84.0392679 6,85.3161398 L6,107.685857 C6,108.963727 7.00688051,110 8.2463417,110 L23.7536583,110 C24.9950577,110 26,108.963727 26,107.685857 L26,85.3161398 C26,84.0392679 24.9950577,83 23.7536583,83 L23.7536583,83 L23.7536583,83 L23.7536583,83 Z M8.13877314,86.1657238 L12.8650063,86.1657238 L12.8650063,88.3650582 L8.13877314,88.3650582 L8.13877314,88.3650582 L8.13877314,86.1657238 L8.13877314,86.1657238 Z M8.13877314,100.814309 L19.1795717,100.814309 L19.1795717,102.995674 L8.13877314,102.995674 L8.13877314,102.995674 L8.13877314,100.814309 L8.13877314,100.814309 Z M23.8970831,98.0958403 L8.13877314,98.1138103 L8.13877314,96.0003328 L23.8970831,95.965391 L23.8970831,98.0958403 L23.8970831,98.0958403 L23.8970831,98.0958403 L23.8970831,98.0958403 Z M23.8970831,93.2249584 L8.13877314,93.2888519 L8.13877314,91.1264559 L23.8970831,91.1094842 L23.8970831,93.2249584 L23.8970831,93.2249584 Z M23.8970831,93.2249584" id="article--white" fill="#FFFFFF" sketch:type="MSShapeGroup"></path>
        <path d="M23.7536583,43 L8.2463417,43 C7.00688051,43 6,44.0392679 6,45.3161398 L6,67.6858569 C6,68.9637271 7.00688051,70 8.2463417,70 L23.7536583,70 C24.9950577,70 26,68.9637271 26,67.6858569 L26,45.3161398 C26,44.0392679 24.9950577,43 23.7536583,43 L23.7536583,43 L23.7536583,43 L23.7536583,43 Z M8.13877314,46.1657238 L12.8650063,46.1657238 L12.8650063,48.3650582 L8.13877314,48.3650582 L8.13877314,48.3650582 L8.13877314,46.1657238 L8.13877314,46.1657238 Z M8.13877314,60.8143095 L19.1795717,60.8143095 L19.1795717,62.9956739 L8.13877314,62.9956739 L8.13877314,62.9956739 L8.13877314,60.8143095 L8.13877314,60.8143095 Z M23.8970831,58.0958403 L8.13877314,58.1138103 L8.13877314,56.0003328 L23.8970831,55.965391 L23.8970831,58.0958403 L23.8970831,58.0958403 L23.8970831,58.0958403 L23.8970831,58.0958403 Z M23.8970831,53.2249584 L8.13877314,53.2888519 L8.13877314,51.1264559 L23.8970831,51.1094842 L23.8970831,53.2249584 L23.8970831,53.2249584 Z M23.8970831,53.2249584" id="article--body-grey" fill="#67747C" sketch:type="MSShapeGroup"></path>
        <path d="M23.7536583,3 L8.2463417,3 C7.00688051,3 6,4.03926789 6,5.31613977 L6,27.6858569 C6,28.9637271 7.00688051,30 8.2463417,30 L23.7536583,30 C24.9950577,30 26,28.9637271 26,27.6858569 L26,5.31613977 C26,4.03926789 24.9950577,3 23.7536583,3 L23.7536583,3 L23.7536583,3 L23.7536583,3 Z M8.13877314,6.16572379 L12.8650063,6.16572379 L12.8650063,8.36505824 L8.13877314,8.36505824 L8.13877314,8.36505824 L8.13877314,6.16572379 L8.13877314,6.16572379 Z M8.13877314,20.8143095 L19.1795717,20.8143095 L19.1795717,22.9956739 L8.13877314,22.9956739 L8.13877314,22.9956739 L8.13877314,20.8143095 L8.13877314,20.8143095 Z M23.8970831,18.0958403 L8.13877314,18.1138103 L8.13877314,16.0003328 L23.8970831,15.965391 L23.8970831,18.0958403 L23.8970831,18.0958403 L23.8970831,18.0958403 L23.8970831,18.0958403 Z M23.8970831,13.2249584 L8.13877314,13.2888519 L8.13877314,11.1264559 L23.8970831,11.1094842 L23.8970831,13.2249584 L23.8970831,13.2249584 Z M23.8970831,13.2249584" id="article--title-grey" fill="#3B444F" sketch:type="MSShapeGroup"></path>
    </g>
</svg>