<svg width="32" height="232" xmlns="http://www.w3.org/2000/svg" xmlns:sketch="http://www.bohemiancoding.com/sketch/ns"><title>back-arrow</title><g sketch:type="MSPage" fill="none"><path d="M32 149s-3.556-17.892-19.155-17.892v-7.108l-12.845 11.867 12.845 12.299v-8.011c8.466 0 14.739.775 19.155 8.845" fill="#206FAC" sketch:type="MSShapeGroup"/><path d="M32 109s-3.556-17.892-19.155-17.892v-7.108l-12.845 11.867 12.845 12.299v-8.011c8.466 0 14.739.775 19.155 8.845" fill="#fff" sketch:type="MSShapeGroup"/><path d="M32 69s-3.556-17.892-19.155-17.892v-7.108l-12.845 11.867 12.845 12.299v-8.011c8.466 0 14.739.775 19.155 8.845" fill="#67737B" sketch:type="MSShapeGroup"/><path d="M32 29s-3.556-17.892-19.155-17.892v-7.108l-12.845 11.867 12.845 12.299v-8.011c8.466 0 14.739.775 19.155 8.845" fill="#3A434E" sketch:type="MSShapeGroup"/></g></svg>