<svg width="22" height="32" xmlns="http://www.w3.org/2000/svg" xmlns:sketch="http://www.bohemiancoding.com/sketch/ns"><title>bar--pin</title><g sketch:type="MSLayerGroup" fill="none"><path d="M15.497 29.984c0 1.105-2.016 2-4.5 2-2.486 0-4.5-.895-4.5-2 0-1.104 2.014-2 4.5-2 2.484 0 4.5.896 4.5 2" fill-opacity=".2" fill="#1D508D" sketch:type="MSShapeGroup"/><path d="M10.996.016c6.076 0 11.001 4.362 11.001 10.919 0 6.408-5.551 9.16-8.506 13.257-2.418 3.346-2.495 5.824-2.495 5.824s-.018-2.491-2.494-5.824c-3.041-4.097-8.505-6.661-8.505-13.257 0-6.559 4.925-10.919 10.999-10.919" fill="#841E1B" sketch:type="MSShapeGroup"/><path d="M13.352 16.505c-.243-.059-.911-.252-1.126-.432-.232-.191-.414-.995-.465-1.454l-.034-.202-.01-.082v-.141l-.044-.123-.126-.045-.174.016c-.185.021-.367.045-.572.035l-.252-.015-.111-.01c-.049-.026-.103-.024-.153.008-.044.027-.074.076-.074.13l-.031.517c-.044.47-.206 1.28-.457 1.464-.367.262-1.038.332-1.051.334-.317.033-.578.323-.578.639v.043c0 .33.264.596.6.596h4.609c.329 0 .593-.266.593-.596v-.043c0-.303-.234-.571-.544-.639m.72-11.923h-5.97c-2.426 2.523-2.923 8.423 2.922 8.423 5.843 0 5.163-5.47 3.048-8.423m-6.049 2.715c.16-.462.384-.954.687-1.476l.029-.097h4.534l.032.097c.304.522.522 1.014.678 1.476h-5.96" fill="#fff" sketch:type="MSShapeGroup"/></g></svg>