<?xml version="1.0" encoding="UTF-8" standalone="no"?>
<svg width="22px" height="32px" viewBox="0 0 22 32" version="1.1" xmlns="http://www.w3.org/2000/svg" xmlns:xlink="http://www.w3.org/1999/xlink" xmlns:sketch="http://www.bohemiancoding.com/sketch/ns">
    <title>bar--pin</title>
    <description>Created with Sketch (http://www.bohemiancoding.com/sketch)</description>
    <defs></defs>
    <g id="Points-of-interest" stroke="none" stroke-width="1" fill="none" fill-rule="evenodd" sketch:type="MSPage">
        <g id="bar--pin" sketch:type="MSLayerGroup" transform="translate(-1.000000, 0.000000)">
            <path d="M16.497,29.984 C16.497,31.089 14.481,31.984 11.997,31.984 C9.511,31.984 7.497,31.089 7.497,29.984 C7.497,28.88 9.511,27.984 11.997,27.984 C14.481,27.984 16.497,28.88 16.497,29.984" id="Fill-1" fill-opacity="0.2" fill="#1D508D" sketch:type="MSShapeGroup"></path>
            <path d="M11.996,0.016 C18.072,0.016 22.997,4.378 22.997,10.935 C22.997,17.343 17.446,20.095 14.491,24.192 C12.073,27.538 11.996,30.016 11.996,30.016 C11.996,30.016 11.978,27.525 9.502,24.192 C6.461,20.095 0.997,17.531 0.997,10.935 C0.997,4.376 5.922,0.016 11.996,0.016" id="Fill-2" fill="#841E1B" sketch:type="MSShapeGroup"></path>
            <path d="M14.352,16.505 C14.109,16.446 13.441,16.253 13.226,16.073 C12.994,15.882 12.812,15.078 12.761,14.619 C12.746,14.504 12.732,14.452 12.727,14.417 C12.725,14.396 12.718,14.385 12.717,14.335 C12.713,14.303 12.711,14.251 12.717,14.194 C12.719,14.15 12.703,14.102 12.673,14.071 C12.637,14.035 12.598,14.023 12.547,14.026 L12.373,14.042 C12.188,14.063 12.006,14.087 11.801,14.077 C11.713,14.069 11.631,14.064 11.549,14.062 L11.438,14.052 C11.389,14.026 11.335,14.028 11.285,14.06 C11.241,14.087 11.211,14.136 11.211,14.19 C11.211,14.241 11.195,14.474 11.18,14.707 C11.136,15.177 10.974,15.987 10.723,16.171 C10.356,16.433 9.685,16.503 9.672,16.505 C9.355,16.538 9.094,16.828 9.094,17.144 L9.094,17.187 C9.094,17.517 9.358,17.783 9.694,17.783 L14.303,17.783 C14.632,17.783 14.896,17.517 14.896,17.187 L14.896,17.144 C14.896,16.841 14.662,16.573 14.352,16.505 M15.072,4.582 L9.102,4.582 C6.676,7.105 6.179,13.005 12.024,13.005 C17.867,13.005 17.187,7.535 15.072,4.582 M9.023,7.297 C9.183,6.835 9.407,6.343 9.71,5.821 L9.739,5.724 L14.273,5.724 L14.305,5.821 C14.609,6.343 14.827,6.835 14.983,7.297 L9.023,7.297" id="Fill-3" fill="#FFFFFF" sketch:type="MSShapeGroup"></path>
        </g>
    </g>
</svg>