<svg width="32" height="232" xmlns="http://www.w3.org/2000/svg" xmlns:sketch="http://www.bohemiancoding.com/sketch/ns"><title>bar</title><g sketch:type="MSPage" fill="none"><path d="M21.232 187.387c-.495-.116-1.862-.514-2.297-.881-.477-.392-.847-2.037-.955-2.979l-.069-.409-.019-.169v-.287c.002-.094-.032-.187-.092-.25-.074-.074-.154-.097-.258-.096l-.353.034c-.381.041-.752.091-1.174.072l-.512-.031-.229-.02c-.101-.055-.212-.049-.312.016-.09.054-.152.154-.152.269 0 .101-.032.578-.065 1.053-.086.959-.422 2.62-.935 2.996-.748.534-2.122.68-2.147.682-.648.068-1.184.662-1.184 1.312v.082c0 .675.543 1.219 1.23 1.219h9.425c.672 0 1.215-.544 1.215-1.219v-.082c0-.623-.481-1.172-1.117-1.312m1.476-24.387h-12.212c-4.962 5.16-5.981 17.229 5.98 17.229 11.949 0 10.559-11.185 6.232-17.229m-12.371 5.553c.324-.944.786-1.952 1.402-3.02l.061-.196h9.275l.069.196c.617 1.068 1.065 2.076 1.382 3.02h-12.189" fill="#831D1B" sketch:type="MSShapeGroup"/><path d="M21.232 147.387c-.495-.116-1.862-.514-2.297-.881-.477-.392-.847-2.037-.955-2.979l-.069-.409-.019-.169v-.287c.002-.094-.032-.187-.092-.25-.074-.074-.154-.097-.258-.096l-.353.034c-.381.041-.752.091-1.174.072l-.512-.031-.229-.02c-.101-.055-.212-.049-.312.016-.09.054-.152.154-.152.269 0 .101-.032.578-.065 1.053-.086.959-.422 2.62-.935 2.996-.748.534-2.122.68-2.147.682-.648.068-1.184.662-1.184 1.312v.082c0 .675.543 1.219 1.23 1.219h9.425c.672 0 1.215-.544 1.215-1.219v-.082c0-.623-.481-1.172-1.117-1.312m1.476-24.387h-12.212c-4.962 5.16-5.981 17.229 5.98 17.229 11.949 0 10.559-11.185 6.232-17.229m-12.371 5.553c.324-.944.786-1.952 1.402-3.02l.061-.196h9.275l.069.196c.617 1.068 1.065 2.076 1.382 3.02h-12.189" fill="#206FAC" sketch:type="MSShapeGroup"/><path d="M21.232 107.387c-.495-.116-1.862-.514-2.297-.881-.477-.392-.847-2.037-.955-2.979l-.069-.409-.019-.169v-.287c.002-.094-.032-.187-.092-.25-.074-.074-.154-.097-.258-.096l-.353.034c-.381.041-.752.091-1.174.072l-.512-.031-.229-.02c-.101-.055-.212-.049-.312.016-.09.054-.152.154-.152.269 0 .101-.032.578-.065 1.053-.086.959-.422 2.62-.935 2.996-.748.534-2.122.68-2.147.682-.648.068-1.184.662-1.184 1.312v.082c0 .675.543 1.219 1.23 1.219h9.425c.672 0 1.215-.544 1.215-1.219v-.082c0-.623-.481-1.172-1.117-1.312m1.476-24.387h-12.212c-4.962 5.16-5.981 17.229 5.98 17.229 11.949 0 10.559-11.185 6.232-17.229m-12.371 5.553c.324-.944.786-1.952 1.402-3.02l.061-.196h9.275l.069.196c.617 1.068 1.065 2.076 1.382 3.02h-12.189" fill="#fff" sketch:type="MSShapeGroup"/><path d="M21.232 67.387c-.495-.116-1.862-.514-2.297-.881-.477-.392-.847-2.037-.955-2.979l-.069-.409-.019-.169v-.287c.002-.094-.032-.187-.092-.25-.074-.074-.154-.097-.258-.096l-.353.034c-.381.041-.752.091-1.174.072l-.512-.031-.229-.02c-.101-.055-.212-.049-.312.016-.09.054-.152.154-.152.269 0 .101-.032.578-.065 1.053-.086.959-.422 2.62-.935 2.996-.748.534-2.122.68-2.147.682-.648.068-1.184.662-1.184 1.312v.082c0 .675.543 1.219 1.23 1.219h9.425c.672 0 1.215-.544 1.215-1.219v-.082c0-.623-.481-1.172-1.117-1.312m1.476-24.387h-12.212c-4.962 5.16-5.981 17.229 5.98 17.229 11.949 0 10.559-11.185 6.232-17.229m-12.371 5.553c.324-.944.786-1.952 1.402-3.02l.061-.196h9.275l.069.196c.617 1.068 1.065 2.076 1.382 3.02h-12.189" fill="#67747C" sketch:type="MSShapeGroup"/><path d="M21.232 27.387c-.495-.116-1.862-.514-2.297-.881-.477-.392-.847-2.037-.955-2.979l-.069-.409-.019-.169v-.287c.002-.094-.032-.187-.092-.25-.074-.074-.154-.097-.258-.096l-.353.034c-.381.041-.752.091-1.174.072l-.512-.031-.229-.02c-.101-.055-.212-.049-.312.016-.09.054-.152.154-.152.269 0 .101-.032.578-.065 1.053-.086.959-.422 2.62-.935 2.996-.748.534-2.122.68-2.147.682-.648.068-1.184.662-1.184 1.312v.082c0 .675.543 1.219 1.23 1.219h9.425c.672 0 1.215-.544 1.215-1.219v-.082c0-.623-.481-1.172-1.117-1.312m1.476-24.387h-12.212c-4.962 5.16-5.981 17.229 5.98 17.229 11.949 0 10.559-11.185 6.232-17.229m-12.371 5.553c.324-.944.786-1.952 1.402-3.02l.061-.196h9.275l.069.196c.617 1.068 1.065 2.076 1.382 3.02h-12.189" fill="#3B444F" sketch:type="MSShapeGroup"/></g></svg>