<svg width="32" height="232" xmlns="http://www.w3.org/2000/svg" xmlns:sketch="http://www.bohemiancoding.com/sketch/ns"><title>bicycle</title><g sketch:type="MSPage" fill="none"><path d="M18.689 136.649c.152.063.315.096.478.096h2.557c.684 0 1.237-.548 1.237-1.237 0-.682-.553-1.253-1.237-1.253h-2.052l-2.819-2.841-.008-.011c-.239-.245-.556-.366-.874-.365-.318-.001-.636.12-.88.365l-.013.02-3.176 3.201c-.244.24-.366.56-.366.88 0 .319.122.637.366.878l2.831 2.849v4.778c0 .686.554 1.249 1.233 1.249.691 0 1.243-.563 1.243-1.249v-5.26c.007-.33-.11-.663-.364-.914l-2.32-2.333 1.443-1.454 2.319 2.334.004.003c.113.112.248.202.398.264zm.57-4.659c1.098 0 1.988-.89 1.988-2 0-1.101-.89-1.989-1.988-1.989-1.089 0-1.982.888-1.982 1.989 0 1.11.893 2 1.982 2zm4.138 5.758c-2.817 0-5.102 2.301-5.102 5.132 0 2.823 2.285 5.121 5.102 5.121 2.814 0 5.103-2.298 5.103-5.121 0-2.831-2.289-5.132-5.103-5.132zm0 8.269c-1.724 0-3.127-1.408-3.127-3.137 0-1.731 1.403-3.139 3.127-3.139 1.722 0 3.121 1.408 3.121 3.139 0 1.729-1.399 3.137-3.121 3.137zm-14.794-8.269c-2.818 0-5.103 2.301-5.103 5.132 0 2.823 2.285 5.121 5.103 5.121 2.817 0 5.106-2.298 5.106-5.121 0-2.831-2.289-5.132-5.106-5.132zm0 8.269c-1.723 0-3.124-1.408-3.124-3.137 0-1.731 1.401-3.139 3.124-3.139 1.721 0 3.122 1.408 3.122 3.139 0 1.729-1.401 3.137-3.122 3.137zm0 0" fill="#206FAC" sketch:type="MSShapeGroup"/><path d="M18.689 96.649c.152.063.315.096.478.096h2.557c.684 0 1.237-.548 1.237-1.237 0-.682-.553-1.253-1.237-1.253h-2.052l-2.819-2.841-.008-.011c-.239-.245-.556-.366-.874-.365-.318-.001-.636.12-.88.365l-.013.02-3.176 3.201c-.244.24-.366.56-.366.88 0 .319.122.637.366.878l2.831 2.849v4.778c0 .686.554 1.249 1.233 1.249.691 0 1.243-.563 1.243-1.249v-5.26c.007-.33-.11-.663-.364-.914l-2.32-2.333 1.443-1.454 2.319 2.334.004.003c.113.112.248.202.398.264zm.57-4.659c1.098 0 1.988-.89 1.988-2 0-1.101-.89-1.989-1.988-1.989-1.089 0-1.982.888-1.982 1.989 0 1.11.893 2 1.982 2zm4.138 5.758c-2.817 0-5.102 2.301-5.102 5.132 0 2.823 2.285 5.121 5.102 5.121 2.814 0 5.103-2.298 5.103-5.121 0-2.831-2.289-5.132-5.103-5.132zm0 8.269c-1.724 0-3.127-1.408-3.127-3.137 0-1.731 1.403-3.139 3.127-3.139 1.722 0 3.121 1.408 3.121 3.139 0 1.729-1.399 3.137-3.121 3.137zm-14.794-8.269c-2.818 0-5.103 2.301-5.103 5.132 0 2.823 2.285 5.121 5.103 5.121 2.817 0 5.106-2.298 5.106-5.121 0-2.831-2.289-5.132-5.106-5.132zm0 8.269c-1.723 0-3.124-1.408-3.124-3.137 0-1.731 1.401-3.139 3.124-3.139 1.721 0 3.122 1.408 3.122 3.139 0 1.729-1.401 3.137-3.122 3.137zm0 0" fill="#fff" sketch:type="MSShapeGroup"/><path d="M18.689 56.649c.152.063.315.096.478.096h2.557c.684 0 1.237-.548 1.237-1.237 0-.682-.553-1.253-1.237-1.253h-2.052l-2.819-2.841-.008-.011c-.239-.245-.556-.366-.874-.365-.318-.001-.636.12-.88.365l-.013.02-3.176 3.201c-.244.24-.366.56-.366.88 0 .319.122.637.366.878l2.831 2.849v4.778c0 .686.554 1.249 1.233 1.249.691 0 1.243-.563 1.243-1.249v-5.26c.007-.33-.11-.663-.364-.914l-2.32-2.333 1.443-1.454 2.319 2.334.004.003c.113.112.248.202.398.264zm.57-4.659c1.098 0 1.988-.89 1.988-2 0-1.101-.89-1.989-1.988-1.989-1.089 0-1.982.888-1.982 1.989 0 1.11.893 2 1.982 2zm4.138 5.758c-2.817 0-5.102 2.301-5.102 5.132 0 2.823 2.285 5.121 5.102 5.121 2.814 0 5.103-2.298 5.103-5.121 0-2.831-2.289-5.132-5.103-5.132zm0 8.269c-1.724 0-3.127-1.408-3.127-3.137 0-1.731 1.403-3.139 3.127-3.139 1.722 0 3.121 1.408 3.121 3.139 0 1.729-1.399 3.137-3.121 3.137zm-14.794-8.269c-2.818 0-5.103 2.301-5.103 5.132 0 2.823 2.285 5.121 5.103 5.121 2.817 0 5.106-2.298 5.106-5.121 0-2.831-2.289-5.132-5.106-5.132zm0 8.269c-1.723 0-3.124-1.408-3.124-3.137 0-1.731 1.401-3.139 3.124-3.139 1.721 0 3.122 1.408 3.122 3.139 0 1.729-1.401 3.137-3.122 3.137zm0 0" fill="#67737B" sketch:type="MSShapeGroup"/><path d="M18.689 16.649c.152.063.315.096.478.096h2.557c.684 0 1.237-.548 1.237-1.237 0-.682-.553-1.253-1.237-1.253h-2.052l-2.819-2.841-.008-.011c-.239-.245-.556-.366-.874-.365-.318-.001-.636.12-.88.365l-.013.02-3.176 3.201c-.244.24-.366.56-.366.88 0 .319.122.637.366.878l2.831 2.849v4.778c0 .686.554 1.249 1.233 1.249.691 0 1.243-.563 1.243-1.249v-5.26c.007-.33-.11-.663-.364-.914l-2.32-2.333 1.443-1.454 2.319 2.334.004.003c.113.112.248.202.398.264zm.57-4.659c1.098 0 1.988-.89 1.988-2 0-1.101-.89-1.989-1.988-1.989-1.089 0-1.982.888-1.982 1.989 0 1.11.893 2 1.982 2zm4.138 5.758c-2.817 0-5.102 2.301-5.102 5.132 0 2.823 2.285 5.121 5.102 5.121 2.814 0 5.103-2.298 5.103-5.121 0-2.831-2.289-5.132-5.103-5.132zm0 8.269c-1.724 0-3.127-1.408-3.127-3.137 0-1.731 1.403-3.139 3.127-3.139 1.722 0 3.121 1.408 3.121 3.139 0 1.729-1.399 3.137-3.121 3.137zm-14.794-8.269c-2.818 0-5.103 2.301-5.103 5.132 0 2.823 2.285 5.121 5.103 5.121 2.817 0 5.106-2.298 5.106-5.121 0-2.831-2.289-5.132-5.106-5.132zm0 8.269c-1.723 0-3.124-1.408-3.124-3.137 0-1.731 1.401-3.139 3.124-3.139 1.721 0 3.122 1.408 3.122 3.139 0 1.729-1.401 3.137-3.122 3.137zm0 0" fill="#3A434E" sketch:type="MSShapeGroup"/></g></svg>