<svg width="32" height="232" viewBox="0 0 32 232" xmlns="http://www.w3.org/2000/svg"><title>block</title><g fill="none"><path d="M24.838 127.66c-2.441-2.439-5.639-3.66-8.838-3.66-3.2 0-6.399 1.221-8.839 3.66-4.881 4.883-4.881 12.797 0 17.678 2.44 2.442 5.639 3.662 8.839 3.662 3.199 0 6.397-1.22 8.838-3.662 4.881-4.881 4.881-12.797 0-17.678zm-16.945 8.84c0-2.166.844-4.2 2.373-5.732 1.532-1.531 3.568-2.375 5.734-2.375 1.384 0 2.71.347 3.889.996l-11.001 11.002c-.647-1.18-.995-2.506-.995-3.891zm13.837 5.733c-1.53 1.529-3.565 2.373-5.73 2.373-1.384 0-2.711-.348-3.889-.994l11.001-11c.646 1.177.994 2.506.994 3.888 0 2.166-.846 4.202-2.376 5.733zm0 0" fill="#206FAC"/><path d="M24.838 87.66c-2.441-2.439-5.639-3.66-8.838-3.66-3.2 0-6.399 1.221-8.839 3.66-4.881 4.883-4.881 12.797 0 17.678 2.44 2.442 5.639 3.662 8.839 3.662 3.199 0 6.397-1.22 8.838-3.662 4.881-4.881 4.881-12.797 0-17.678zm-16.945 8.84c0-2.166.844-4.2 2.373-5.732 1.532-1.531 3.568-2.375 5.734-2.375 1.384 0 2.71.347 3.889.996l-11.001 11.002c-.647-1.18-.995-2.506-.995-3.891zm13.837 5.733c-1.53 1.529-3.565 2.373-5.73 2.373-1.384 0-2.711-.348-3.889-.994l11.001-11c.646 1.177.994 2.506.994 3.888 0 2.166-.846 4.202-2.376 5.733zm0 0" fill="#fff"/><path d="M24.838 47.66c-2.441-2.439-5.639-3.66-8.838-3.66-3.2 0-6.399 1.221-8.839 3.66-4.881 4.883-4.881 12.797 0 17.678 2.44 2.442 5.639 3.662 8.839 3.662 3.199 0 6.397-1.22 8.838-3.662 4.881-4.881 4.881-12.797 0-17.678zm-16.945 8.84c0-2.166.844-4.2 2.373-5.732 1.532-1.531 3.568-2.375 5.734-2.375 1.384 0 2.71.347 3.889.996l-11.001 11.002c-.647-1.18-.995-2.506-.995-3.891zm13.837 5.733c-1.53 1.529-3.565 2.373-5.73 2.373-1.384 0-2.711-.348-3.889-.994l11.001-11c.646 1.177.994 2.506.994 3.888 0 2.166-.846 4.202-2.376 5.733zm0 0" fill="#67737B"/><path d="M24.838 7.66c-2.441-2.439-5.639-3.66-8.838-3.66-3.2 0-6.399 1.221-8.839 3.66-4.881 4.883-4.881 12.797 0 17.678 2.44 2.442 5.639 3.662 8.839 3.662 3.199 0 6.397-1.22 8.838-3.662 4.881-4.881 4.881-12.797 0-17.678zm-16.945 8.84c0-2.166.844-4.2 2.373-5.732 1.532-1.531 3.568-2.375 5.734-2.375 1.384 0 2.71.347 3.889.996l-11.001 11.002c-.647-1.18-.995-2.506-.995-3.891zm13.837 5.733c-1.53 1.529-3.565 2.373-5.73 2.373-1.384 0-2.711-.348-3.889-.994l11.001-11c.646 1.177.994 2.506.994 3.888 0 2.166-.846 4.202-2.376 5.733zm0 0" fill="#3A434E"/></g></svg>