<svg width="32" height="232" xmlns="http://www.w3.org/2000/svg" xmlns:sketch="http://www.bohemiancoding.com/sketch/ns"><title>book</title><g sketch:type="MSPage" fill="none"><path d="M28.211 9.577c.66-.816.556-1.423.425-1.722-.146-.319-.569-.855-1.799-.855h-10.775c-1.62 0-3.736.93-4.817 2.12l-6.759 7.421-.263.326c-.761.865-1.239 1.979-1.239 3.209 0 2.719 2.239 4.925 4.992 4.925h8.532c1.565 0 3.964-.116 5.049-1.306l6.756-7.42c.704-.767.858-1.564.445-2.088-.016-.021-1.309-2.618-.547-4.609zm-21.947 9.705h10.244c1.615 0 3.728-.931 4.813-2.12l5.229-5.725c-.227.492-.148 1.072-.14 1.072.163.825.506 2.064.688 2.4l-.133.164-6.756 7.421c-.747.823-2.639.715-3.701.715h-8.532c-1.751 0-3.173-1.403-3.173-3.135l.004-.218.08-.575h1.377zm0 0" fill="#3B444F" sketch:type="MSShapeGroup"/><path d="M28.211 49.571c.66-.816.556-1.423.425-1.722-.146-.319-.569-.855-1.799-.855h-10.775c-1.62 0-3.736.93-4.817 2.12l-6.759 7.421-.263.326c-.761.865-1.239 1.979-1.239 3.209 0 2.719 2.239 4.925 4.992 4.925h8.532c1.565 0 3.964-.116 5.049-1.306l6.756-7.42c.704-.767.858-1.564.445-2.088-.016-.021-1.309-2.618-.547-4.609zm-21.947 9.705h10.244c1.615 0 3.728-.931 4.813-2.12l5.229-5.725c-.227.492-.148 1.072-.14 1.072.163.825.506 2.064.688 2.4l-.133.164-6.756 7.421c-.747.823-2.639.715-3.701.715h-8.532c-1.751 0-3.173-1.403-3.173-3.135l.004-.218.08-.575h1.377zm0 0" fill="#67737B" sketch:type="MSShapeGroup"/><path d="M28.211 89.571c.66-.816.556-1.423.425-1.722-.146-.319-.569-.855-1.799-.855h-10.775c-1.62 0-3.736.93-4.817 2.12l-6.759 7.421-.263.326c-.761.865-1.239 1.979-1.239 3.209 0 2.719 2.239 4.925 4.992 4.925h8.532c1.565 0 3.964-.116 5.049-1.306l6.756-7.42c.704-.767.858-1.564.445-2.088-.016-.021-1.309-2.618-.547-4.609zm-21.947 9.705h10.244c1.615 0 3.728-.931 4.813-2.12l5.229-5.725c-.227.492-.148 1.072-.14 1.072.163.825.506 2.064.688 2.4l-.133.164-6.756 7.421c-.747.823-2.639.715-3.701.715h-8.532c-1.751 0-3.173-1.403-3.173-3.135l.004-.218.08-.575h1.377zm0 0" fill="#fff" sketch:type="MSShapeGroup"/><path d="M28.211 129.571c.66-.816.556-1.423.425-1.722-.146-.319-.569-.855-1.799-.855h-10.775c-1.62 0-3.736.93-4.817 2.12l-6.759 7.421-.263.326c-.761.865-1.239 1.979-1.239 3.209 0 2.719 2.239 4.925 4.992 4.925h8.532c1.565 0 3.964-.116 5.049-1.306l6.756-7.42c.704-.767.858-1.564.445-2.088-.016-.021-1.309-2.618-.547-4.609zm-21.947 9.705h10.244c1.615 0 3.728-.931 4.813-2.12l5.229-5.725c-.227.492-.148 1.072-.14 1.072.163.825.506 2.064.688 2.4l-.133.164-6.756 7.421c-.747.823-2.639.715-3.701.715h-8.532c-1.751 0-3.173-1.403-3.173-3.135l.004-.218.08-.575h1.377zm0 0" fill="#206FAC" sketch:type="MSShapeGroup"/></g></svg>