<svg width="32" height="232" xmlns="http://www.w3.org/2000/svg" xmlns:sketch="http://www.bohemiancoding.com/sketch/ns"><title>breakfast</title><g sketch:type="MSPage" fill="none"><path d="M22.684 149c.775 0 1.408-.631 1.408-1.408 0-.783-.633-1.414-1.408-1.414h-16.414c-.781 0-1.412.631-1.412 1.414 0 .777.631 1.408 1.412 1.408h16.414zm-5.633-25.866c-.707.844-1.205 2.121-.728 3.187.414.929 1.535 1.34 1.332 2.501-.094.549-.451.9-.666 1.381-.207.465.478.871.687.401.18-.399.467-.743.631-1.162.269-.683.219-1.416-.119-2.059-.203-.385-.574-.641-.869-.948-.358-.373-.436-.912-.348-1.402.086-.466.371-1.008.643-1.336.33-.392-.231-.958-.563-.563zm-3.564 0c-.705.844-1.203 2.121-.727 3.187.414.929 1.533 1.34 1.334 2.501-.096.549-.455.9-.67 1.381-.207.465.481.871.69.401.179-.399.465-.743.63-1.162.27-.683.219-1.416-.121-2.059-.203-.385-.574-.641-.867-.948-.357-.373-.435-.912-.347-1.402.084-.466.369-1.008.642-1.336.328-.392-.232-.958-.564-.563zm-3.59 0c-.707.844-1.205 2.121-.731 3.187.414.929 1.535 1.34 1.334 2.501-.095.549-.453.9-.668 1.381-.207.465.481.871.69.401.179-.399.465-.743.631-1.162.267-.683.216-1.416-.123-2.059-.201-.385-.573-.641-.866-.948-.359-.373-.435-.912-.347-1.402.084-.466.367-1.008.642-1.336.329-.392-.234-.958-.562-.563zm15.549 11.347c-.227 0-.446.024-.664.066l.015-.368v-.118c0-.553-.453-1.008-1.006-1.008h-19.781c-.558 0-1.01.455-1.01 1.008v.118c0 .556.094 1.453.21 1.993l3.802 7.671c.371.415 1.129.754 1.68.754h10.412c.553 0 1.305-.339 1.68-.754l1.834-3.694c.646.865 1.668 1.431 2.828 1.431 1.959 0 3.552-1.594 3.552-3.552 0-1.957-1.593-3.547-3.552-3.547zm0 5.561c-1.116 0-2.024-.907-2.024-2.023 0-1.115.908-2.026 2.024-2.026 1.119 0 2.025.911 2.025 2.026 0 1.116-.906 2.023-2.025 2.023zm0 0" fill="#206FAC" sketch:type="MSShapeGroup"/><path d="M22.684 109c.775 0 1.408-.631 1.408-1.408 0-.783-.633-1.414-1.408-1.414h-16.414c-.781 0-1.412.631-1.412 1.414 0 .777.631 1.408 1.412 1.408h16.414zm-5.633-25.866c-.707.844-1.205 2.121-.728 3.187.414.929 1.535 1.34 1.332 2.501-.094.549-.451.9-.666 1.381-.207.465.478.871.687.401.18-.399.467-.743.631-1.162.269-.683.219-1.416-.119-2.059-.203-.385-.574-.641-.869-.948-.358-.373-.436-.912-.348-1.402.086-.466.371-1.008.643-1.336.33-.392-.231-.958-.563-.563zm-3.564 0c-.705.844-1.203 2.121-.727 3.187.414.929 1.533 1.34 1.334 2.501-.096.549-.455.9-.67 1.381-.207.465.481.871.69.401.179-.399.465-.743.63-1.162.27-.683.219-1.416-.121-2.059-.203-.385-.574-.641-.867-.948-.357-.373-.435-.912-.347-1.402.084-.466.369-1.008.642-1.336.328-.392-.232-.958-.564-.563zm-3.59 0c-.707.844-1.205 2.121-.731 3.187.414.929 1.535 1.34 1.334 2.501-.095.549-.453.9-.668 1.381-.207.465.481.871.69.401.179-.399.465-.743.631-1.162.267-.683.216-1.416-.123-2.059-.201-.385-.573-.641-.866-.948-.359-.373-.435-.912-.347-1.402.084-.466.367-1.008.642-1.336.329-.392-.234-.958-.562-.563zm15.549 11.347c-.227 0-.446.024-.664.066l.015-.368v-.118c0-.553-.453-1.008-1.006-1.008h-19.781c-.558 0-1.01.455-1.01 1.008v.118c0 .556.094 1.453.21 1.993l3.802 7.671c.371.415 1.129.754 1.68.754h10.412c.553 0 1.305-.339 1.68-.754l1.834-3.694c.646.865 1.668 1.431 2.828 1.431 1.959 0 3.552-1.594 3.552-3.552 0-1.957-1.593-3.547-3.552-3.547zm0 5.561c-1.116 0-2.024-.907-2.024-2.023 0-1.115.908-2.026 2.024-2.026 1.119 0 2.025.911 2.025 2.026 0 1.116-.906 2.023-2.025 2.023zm0 0" fill="#fff" sketch:type="MSShapeGroup"/><path d="M22.684 69c.775 0 1.408-.631 1.408-1.408 0-.783-.633-1.414-1.408-1.414h-16.414c-.781 0-1.412.631-1.412 1.414 0 .777.631 1.408 1.412 1.408h16.414zm-5.633-25.866c-.707.844-1.205 2.121-.728 3.187.414.929 1.535 1.34 1.332 2.501-.094.549-.451.9-.666 1.381-.207.465.478.871.687.401.18-.399.467-.743.631-1.162.269-.683.219-1.416-.119-2.059-.203-.385-.574-.641-.869-.948-.358-.373-.436-.912-.348-1.402.086-.466.371-1.008.643-1.336.33-.392-.231-.958-.563-.563zm-3.564 0c-.705.844-1.203 2.121-.727 3.187.414.929 1.533 1.34 1.334 2.501-.096.549-.455.9-.67 1.381-.207.465.481.871.69.401.179-.399.465-.743.63-1.162.27-.683.219-1.416-.121-2.059-.203-.385-.574-.641-.867-.948-.357-.373-.435-.912-.347-1.402.084-.466.369-1.008.642-1.336.328-.392-.232-.958-.564-.563zm-3.59 0c-.707.844-1.205 2.121-.731 3.187.414.929 1.535 1.34 1.334 2.501-.095.549-.453.9-.668 1.381-.207.465.481.871.69.401.179-.399.465-.743.631-1.162.267-.683.216-1.416-.123-2.059-.201-.385-.573-.641-.866-.948-.359-.373-.435-.912-.347-1.402.084-.466.367-1.008.642-1.336.329-.392-.234-.958-.562-.563zm15.549 11.347c-.227 0-.446.024-.664.066l.015-.368v-.118c0-.553-.453-1.008-1.006-1.008h-19.781c-.558 0-1.01.455-1.01 1.008v.118c0 .556.094 1.453.21 1.993l3.802 7.671c.371.415 1.129.754 1.68.754h10.412c.553 0 1.305-.339 1.68-.754l1.834-3.694c.646.865 1.668 1.431 2.828 1.431 1.959 0 3.552-1.594 3.552-3.552 0-1.957-1.593-3.547-3.552-3.547zm0 5.561c-1.116 0-2.024-.907-2.024-2.023 0-1.115.908-2.026 2.024-2.026 1.119 0 2.025.911 2.025 2.026 0 1.116-.906 2.023-2.025 2.023zm0 0" fill="#67737B" sketch:type="MSShapeGroup"/><path d="M22.684 29c.775 0 1.408-.631 1.408-1.408 0-.783-.633-1.414-1.408-1.414h-16.414c-.781 0-1.412.631-1.412 1.414 0 .777.631 1.408 1.412 1.408h16.414zm-5.633-25.866c-.707.844-1.205 2.121-.728 3.187.414.929 1.535 1.34 1.332 2.501-.094.549-.451.9-.666 1.381-.207.465.478.871.687.401.18-.399.467-.743.631-1.162.269-.683.219-1.416-.119-2.059-.203-.385-.574-.641-.869-.948-.358-.373-.436-.912-.348-1.402.086-.466.371-1.008.643-1.336.33-.392-.231-.958-.563-.563zm-3.564 0c-.705.844-1.203 2.121-.727 3.187.414.929 1.533 1.34 1.334 2.501-.096.549-.455.9-.67 1.381-.207.465.481.871.69.401.179-.399.465-.743.63-1.162.27-.683.219-1.416-.121-2.059-.203-.385-.574-.641-.867-.948-.357-.373-.435-.912-.347-1.402.084-.466.369-1.008.642-1.336.328-.392-.232-.958-.564-.563zm-3.59 0c-.707.844-1.205 2.121-.731 3.187.414.929 1.535 1.34 1.334 2.501-.095.549-.453.9-.668 1.381-.207.465.481.871.69.401.179-.399.465-.743.631-1.162.267-.683.216-1.416-.123-2.059-.201-.385-.573-.641-.866-.948-.359-.373-.435-.912-.347-1.402.084-.466.367-1.008.642-1.336.329-.392-.234-.958-.562-.563zm15.549 11.347c-.227 0-.446.024-.664.066l.015-.368v-.118c0-.553-.453-1.008-1.006-1.008h-19.781c-.558 0-1.01.455-1.01 1.008v.118c0 .556.094 1.453.21 1.993l3.802 7.671c.371.415 1.129.754 1.68.754h10.412c.553 0 1.305-.339 1.68-.754l1.834-3.694c.646.865 1.668 1.431 2.828 1.431 1.959 0 3.552-1.594 3.552-3.552 0-1.957-1.593-3.547-3.552-3.547zm0 5.561c-1.116 0-2.024-.907-2.024-2.023 0-1.115.908-2.026 2.024-2.026 1.119 0 2.025.911 2.025 2.026 0 1.116-.906 2.023-2.025 2.023zm0 0" fill="#3A434E" sketch:type="MSShapeGroup"/></g></svg>