<svg width="32" height="232" xmlns="http://www.w3.org/2000/svg" xmlns:sketch="http://www.bohemiancoding.com/sketch/ns"><title>bureau-de-change</title><g sketch:type="MSPage" fill="none"><path d="M14.534 147.542v2.458h3.342v-2.458c5.248-.533 7.124-3.493 7.124-6.749 0-4.145-2.932-5.685-7.24-6.662v-4.707c1.201.504 1.993 1.45 2.727 2.487l3.809-2.813c-1.377-1.924-3.137-3.522-6.42-3.997v-2.101h-3.342v2.012c-4.193.357-6.948 2.813-6.948 6.81 0 4.352 3.489 5.713 7.125 6.571v5.093c-1.7-.474-2.669-1.807-3.84-3.345l-3.871 2.487c1.643 2.604 3.784 4.5 7.534 4.914zm.176-18.414v4.263c-1.29-.444-1.848-.977-1.848-2.102 0-1.067.587-1.895 1.848-2.161zm3.049 14.447v-4.382c1.465.504 1.963 1.125 1.963 2.161 0 1.184-.527 1.925-1.963 2.221zm0 0" fill="#206FAC" sketch:type="MSShapeGroup"/><path d="M14.534 107.542v2.458h3.342v-2.458c5.248-.533 7.124-3.493 7.124-6.749 0-4.145-2.932-5.685-7.24-6.662v-4.707c1.201.504 1.993 1.45 2.727 2.487l3.809-2.813c-1.377-1.924-3.137-3.522-6.42-3.997v-2.101h-3.342v2.012c-4.193.357-6.948 2.813-6.948 6.81 0 4.352 3.489 5.713 7.125 6.571v5.093c-1.7-.474-2.669-1.807-3.84-3.345l-3.871 2.487c1.643 2.604 3.784 4.5 7.534 4.914zm.176-18.414v4.263c-1.29-.444-1.848-.977-1.848-2.102 0-1.067.587-1.895 1.848-2.161zm3.049 14.447v-4.382c1.465.504 1.963 1.125 1.963 2.161 0 1.184-.527 1.925-1.963 2.221zm0 0" fill="#fff" sketch:type="MSShapeGroup"/><path d="M14.534 67.542v2.458h3.342v-2.458c5.248-.533 7.124-3.493 7.124-6.749 0-4.145-2.932-5.685-7.24-6.662v-4.707c1.201.504 1.993 1.45 2.727 2.487l3.809-2.813c-1.377-1.924-3.137-3.522-6.42-3.997v-2.101h-3.342v2.012c-4.193.357-6.948 2.813-6.948 6.81 0 4.352 3.489 5.713 7.125 6.571v5.093c-1.7-.474-2.669-1.807-3.84-3.345l-3.871 2.487c1.643 2.604 3.784 4.5 7.534 4.914zm.176-18.414v4.263c-1.29-.444-1.848-.977-1.848-2.102 0-1.067.587-1.895 1.848-2.161zm3.049 14.447v-4.382c1.465.504 1.963 1.125 1.963 2.161 0 1.184-.527 1.925-1.963 2.221zm0 0" fill="#67737B" sketch:type="MSShapeGroup"/><path d="M14.534 27.542v2.458h3.342v-2.458c5.248-.533 7.124-3.493 7.124-6.749 0-4.145-2.932-5.685-7.24-6.662v-4.707c1.201.504 1.993 1.45 2.727 2.487l3.809-2.813c-1.377-1.924-3.137-3.522-6.42-3.997v-2.101h-3.342v2.012c-4.193.357-6.948 2.813-6.948 6.81 0 4.352 3.489 5.713 7.125 6.571v5.093c-1.7-.474-2.669-1.807-3.84-3.345l-3.871 2.487c1.643 2.604 3.784 4.5 7.534 4.914zm.176-18.414v4.263c-1.29-.444-1.848-.977-1.848-2.102 0-1.067.587-1.895 1.848-2.161zm3.049 14.447v-4.382c1.465.504 1.963 1.125 1.963 2.161 0 1.184-.527 1.925-1.963 2.221zm0 0" fill="#3A434E" sketch:type="MSShapeGroup"/></g></svg>