<svg width="32" height="232" viewBox="0 0 32 232" xmlns="http://www.w3.org/2000/svg" xmlns:sketch="http://www.bohemiancoding.com/sketch/ns"><title>by</title><g sketch:type="MSPage" fill="none"><path d="M15.972 120c4.495 0 8.286 1.543 11.371 4.629 3.105 3.105 4.658 6.895 4.658 11.371 0 4.496-1.524 8.238-4.572 11.228-3.238 3.182-7.058 4.772-11.457 4.772-4.324 0-8.076-1.57-11.257-4.714-3.143-3.143-4.715-6.904-4.715-11.286 0-4.381 1.572-8.171 4.715-11.371 3.086-3.086 6.838-4.629 11.257-4.629zm.057 2.887c-3.638 0-6.714 1.276-9.229 3.828-2.609 2.667-3.913 5.762-3.913 9.285 0 3.543 1.294 6.61 3.885 9.201 2.591 2.59 5.676 3.885 9.257 3.885 3.562 0 6.667-1.304 9.314-3.914 2.515-2.419 3.772-5.476 3.772-9.172 0-3.638-1.277-6.732-3.829-9.285-2.552-2.552-5.638-3.828-9.257-3.828zm4.286 9.142v6.543h-1.828v7.772h-4.972v-7.772h-1.828v-6.543c0-.286.099-.529.299-.728.2-.2.443-.3.728-.3h6.573c.265 0 .503.1.713.3.209.199.315.442.315.728zm-6.543-4.114c0-1.505.743-2.258 2.228-2.258 1.486 0 2.229.753 2.229 2.258 0 1.485-.743 2.227-2.229 2.227-1.485 0-2.228-.742-2.228-2.227zm0 0" fill="#206FAC" sketch:type="MSShapeGroup"/><path d="M15.972 80c4.495 0 8.286 1.543 11.371 4.629 3.105 3.105 4.658 6.895 4.658 11.371 0 4.496-1.524 8.238-4.572 11.228-3.238 3.182-7.058 4.772-11.457 4.772-4.324 0-8.076-1.57-11.257-4.714-3.143-3.143-4.715-6.904-4.715-11.286 0-4.381 1.572-8.171 4.715-11.371 3.086-3.086 6.838-4.629 11.257-4.629zm.057 2.887c-3.638 0-6.714 1.276-9.229 3.828-2.609 2.667-3.913 5.762-3.913 9.285 0 3.543 1.294 6.61 3.885 9.201 2.591 2.59 5.676 3.885 9.257 3.885 3.562 0 6.667-1.304 9.314-3.914 2.515-2.419 3.772-5.476 3.772-9.172 0-3.638-1.277-6.732-3.829-9.285-2.552-2.552-5.638-3.828-9.257-3.828zm4.286 9.142v6.543h-1.828v7.772h-4.972v-7.772h-1.828v-6.543c0-.286.099-.529.299-.728.2-.2.443-.3.728-.3h6.573c.265 0 .503.1.713.3.209.199.315.442.315.728zm-6.543-4.114c0-1.505.743-2.258 2.228-2.258 1.486 0 2.229.753 2.229 2.258 0 1.485-.743 2.227-2.229 2.227-1.485 0-2.228-.742-2.228-2.227zm0 0" fill="#fff" sketch:type="MSShapeGroup"/><path d="M15.972 40c4.495 0 8.286 1.543 11.371 4.629 3.105 3.105 4.658 6.895 4.658 11.371 0 4.496-1.524 8.238-4.572 11.228-3.238 3.182-7.058 4.772-11.457 4.772-4.324 0-8.076-1.57-11.257-4.714-3.143-3.143-4.715-6.904-4.715-11.286 0-4.381 1.572-8.171 4.715-11.371 3.086-3.086 6.838-4.629 11.257-4.629zm.057 2.887c-3.638 0-6.714 1.276-9.229 3.828-2.609 2.667-3.913 5.762-3.913 9.285 0 3.543 1.294 6.61 3.885 9.201 2.591 2.59 5.676 3.885 9.257 3.885 3.562 0 6.667-1.304 9.314-3.914 2.515-2.419 3.772-5.476 3.772-9.172 0-3.638-1.277-6.732-3.829-9.285-2.552-2.552-5.638-3.828-9.257-3.828zm4.286 9.142v6.543h-1.828v7.772h-4.972v-7.772h-1.828v-6.543c0-.286.099-.529.299-.728.2-.2.443-.3.728-.3h6.573c.265 0 .503.1.713.3.209.199.315.442.315.728zm-6.543-4.114c0-1.505.743-2.258 2.228-2.258 1.486 0 2.229.753 2.229 2.258 0 1.485-.743 2.227-2.229 2.227-1.485 0-2.228-.742-2.228-2.227zm0 0" fill="#67737B" sketch:type="MSShapeGroup"/><path d="M15.972 0c4.495 0 8.286 1.543 11.371 4.629 3.105 3.105 4.658 6.895 4.658 11.371 0 4.496-1.524 8.238-4.572 11.228-3.238 3.182-7.058 4.772-11.457 4.772-4.324 0-8.076-1.57-11.257-4.714-3.143-3.143-4.715-6.904-4.715-11.286 0-4.381 1.572-8.171 4.715-11.371 3.086-3.086 6.838-4.629 11.257-4.629zm.057 2.887c-3.638 0-6.714 1.276-9.229 3.828-2.609 2.667-3.913 5.762-3.913 9.285 0 3.543 1.294 6.61 3.885 9.201 2.591 2.59 5.676 3.885 9.257 3.885 3.562 0 6.667-1.304 9.314-3.914 2.515-2.419 3.772-5.476 3.772-9.172 0-3.638-1.277-6.732-3.829-9.285-2.552-2.552-5.638-3.828-9.257-3.828zm4.286 9.142v6.543h-1.828v7.772h-4.972v-7.772h-1.828v-6.543c0-.286.099-.529.299-.728.2-.2.443-.3.728-.3h6.573c.265 0 .503.1.713.3.209.199.315.442.315.728zm-6.543-4.114c0-1.505.743-2.258 2.228-2.258 1.486 0 2.229.753 2.229 2.258 0 1.485-.743 2.227-2.229 2.227-1.485 0-2.228-.742-2.228-2.227zm0 0" fill="#3B444F" sketch:type="MSShapeGroup"/></g></svg>