<svg width="32" height="232" viewBox="0 0 32 232" xmlns="http://www.w3.org/2000/svg"><title>by</title><g fill="none"><path d="M15.986 8c2.247 0 4.143.771 5.685 2.315 1.552 1.553 2.329 3.447 2.329 5.685 0 2.248-.762 4.119-2.286 5.614-1.619 1.591-3.529 2.386-5.728 2.386-2.162 0-4.038-.785-5.628-2.357-1.571-1.572-2.357-3.452-2.357-5.643s.786-4.085 2.357-5.685c1.543-1.543 3.419-2.315 5.628-2.315zm.028 1.444c-1.819 0-3.357.638-4.614 1.914-1.304 1.334-1.956 2.881-1.956 4.643 0 1.771.647 3.305 1.942 4.601 1.295 1.295 2.838 1.942 4.628 1.942 1.781 0 3.333-.652 4.657-1.957 1.257-1.209 1.886-2.738 1.886-4.586 0-1.819-.638-3.366-1.914-4.643-1.276-1.276-2.819-1.914-4.628-1.914zm2.143 4.571v3.272h-.914v3.886h-2.486v-3.886h-.914v-3.272c0-.143.049-.264.149-.364.1-.1.221-.15.364-.15h3.286c.132 0 .251.05.356.15.104.1.157.221.157.364zm-3.271-2.057c0-.752.371-1.129 1.114-1.129.743 0 1.114.377 1.114 1.129 0 .742-.371 1.114-1.114 1.114-.742 0-1.114-.371-1.114-1.114zm0 0" fill="#3B444F"/><path d="M15.986 48c2.247 0 4.143.772 5.685 2.315 1.552 1.552 2.329 3.447 2.329 5.685 0 2.248-.762 4.119-2.286 5.614-1.619 1.591-3.529 2.386-5.728 2.386-2.162 0-4.038-.785-5.628-2.357-1.571-1.572-2.357-3.452-2.357-5.643s.786-4.086 2.357-5.685c1.543-1.543 3.419-2.315 5.628-2.315zm.028 1.444c-1.819 0-3.357.638-4.614 1.914-1.304 1.334-1.956 2.881-1.956 4.642 0 1.772.647 3.305 1.942 4.6 1.295 1.295 2.838 1.943 4.628 1.943 1.781 0 3.333-.652 4.657-1.957 1.257-1.209 1.886-2.738 1.886-4.586 0-1.819-.638-3.366-1.914-4.642-1.276-1.276-2.819-1.914-4.628-1.914zm2.143 4.571v3.272h-.914v3.886h-2.486v-3.886h-.914v-3.272c0-.143.049-.264.149-.364.1-.1.221-.15.364-.15h3.286c.132 0 .251.05.356.15.104.099.157.221.157.364zm-3.271-2.057c0-.753.371-1.129 1.114-1.129.743 0 1.114.377 1.114 1.129 0 .742-.371 1.113-1.114 1.113-.742 0-1.114-.371-1.114-1.113zm0 0" fill="#67737B"/><path d="M15.986 88c2.247 0 4.143.772 5.685 2.314 1.552 1.553 2.329 3.448 2.329 5.686 0 2.248-.762 4.119-2.286 5.614-1.619 1.591-3.529 2.386-5.728 2.386-2.162 0-4.038-.785-5.628-2.357-1.571-1.572-2.357-3.452-2.357-5.643s.786-4.085 2.357-5.686c1.543-1.543 3.419-2.314 5.628-2.314zm.028 1.444c-1.819 0-3.357.638-4.614 1.914-1.304 1.334-1.956 2.881-1.956 4.642 0 1.772.647 3.305 1.942 4.6 1.295 1.295 2.838 1.943 4.628 1.943 1.781 0 3.333-.652 4.657-1.957 1.257-1.21 1.886-2.738 1.886-4.586 0-1.819-.638-3.366-1.914-4.642-1.276-1.276-2.819-1.914-4.628-1.914zm2.143 4.571v3.272h-.914v3.886h-2.486v-3.886h-.914v-3.272c0-.143.049-.264.149-.364.1-.1.221-.15.364-.15h3.286c.132 0 .251.05.356.15.104.1.157.221.157.364zm-3.271-2.057c0-.752.371-1.129 1.114-1.129.743 0 1.114.376 1.114 1.129 0 .743-.371 1.114-1.114 1.114-.742 0-1.114-.371-1.114-1.114zm0 0" fill="#fff"/><path d="M15.986 128c2.247 0 4.143.772 5.685 2.315 1.552 1.552 2.329 3.447 2.329 5.685 0 2.248-.762 4.119-2.286 5.614-1.619 1.591-3.529 2.386-5.728 2.386-2.162 0-4.038-.785-5.628-2.357-1.571-1.572-2.357-3.452-2.357-5.643 0-2.19.786-4.085 2.357-5.685 1.543-1.543 3.419-2.315 5.628-2.315zm.028 1.444c-1.819 0-3.357.638-4.614 1.914-1.304 1.334-1.956 2.881-1.956 4.643 0 1.772.647 3.305 1.942 4.601 1.295 1.295 2.838 1.942 4.628 1.942 1.781 0 3.333-.652 4.657-1.957 1.257-1.21 1.886-2.738 1.886-4.586 0-1.819-.638-3.366-1.914-4.643-1.276-1.276-2.819-1.914-4.628-1.914zm2.143 4.571v3.272h-.914v3.886h-2.486v-3.886h-.914v-3.272c0-.143.049-.264.149-.364.1-.1.221-.15.364-.15h3.286c.132 0 .251.05.356.15.104.1.157.221.157.364zm-3.271-2.057c0-.752.371-1.129 1.114-1.129.743 0 1.114.377 1.114 1.129 0 .742-.371 1.113-1.114 1.113-.742 0-1.114-.371-1.114-1.113zm0 0" fill="#206FAC"/></g></svg>