<svg width="32" height="232" xmlns="http://www.w3.org/2000/svg" xmlns:sketch="http://www.bohemiancoding.com/sketch/ns"><title>camping</title><g sketch:type="MSPage" fill="none"><path d="M28.761 149h-25.525c-1.232 0-2.236-.902-2.236-2.004 0-.845.574-1.56 1.393-1.867l-.545-1.187c-.169-.364-.185-.78-.042-1.16.129-.368.399-.668.748-.829.713-.334 1.624.015 1.952.74l.322.715 9.93-12.799c.652-.828 1.829-.806 2.452.03l9.582 12.746.326-.693c.323-.722 1.222-1.073 1.938-.739.351.165.62.461.756.833.137.384.121.792-.04 1.156l-.505 1.091c.988.207 1.732 1.002 1.732 1.963 0 1.102-1.004 2.004-2.239 2.004m-12.775-4.15h6.925l-6.925-9.541v9.541" fill="#206FAC" sketch:type="MSShapeGroup"/><path d="M28.761 109h-25.525c-1.232 0-2.236-.902-2.236-2.004 0-.845.574-1.56 1.393-1.867l-.545-1.187c-.169-.364-.185-.78-.042-1.16.129-.368.399-.668.748-.829.713-.334 1.624.015 1.952.74l.322.715 9.93-12.799c.652-.828 1.829-.806 2.452.03l9.582 12.746.326-.693c.323-.722 1.222-1.073 1.938-.739.351.165.62.461.756.833.137.384.121.792-.04 1.156l-.505 1.091c.988.207 1.732 1.002 1.732 1.963 0 1.102-1.004 2.004-2.239 2.004m-12.775-4.15h6.925l-6.925-9.541v9.541" fill="#fff" sketch:type="MSShapeGroup"/><path d="M28.761 69h-25.525c-1.232 0-2.236-.902-2.236-2.004 0-.845.574-1.56 1.393-1.867l-.545-1.187c-.169-.364-.185-.78-.042-1.16.129-.368.399-.668.748-.829.713-.334 1.624.015 1.952.74l.322.715 9.93-12.799c.652-.828 1.829-.806 2.452.03l9.582 12.746.326-.693c.323-.722 1.222-1.073 1.938-.739.351.165.62.461.756.833.137.384.121.792-.04 1.156l-.505 1.091c.988.207 1.732 1.002 1.732 1.963 0 1.102-1.004 2.004-2.239 2.004m-12.775-4.15h6.925l-6.925-9.541v9.541" fill="#67737B" sketch:type="MSShapeGroup"/><path d="M28.761 29h-25.525c-1.232 0-2.236-.902-2.236-2.004 0-.845.574-1.56 1.393-1.867l-.545-1.187c-.169-.364-.185-.78-.042-1.16.129-.368.399-.668.748-.829.713-.334 1.624.015 1.952.74l.322.715 9.93-12.799c.652-.828 1.829-.806 2.452.03l9.582 12.746.326-.693c.323-.722 1.222-1.073 1.938-.739.351.165.62.461.756.833.137.384.121.792-.04 1.156l-.505 1.091c.988.207 1.732 1.002 1.732 1.963 0 1.102-1.004 2.004-2.239 2.004m-12.775-4.15h6.925l-6.925-9.541v9.541" fill="#3A434E" sketch:type="MSShapeGroup"/></g></svg>