<svg width="32" height="232" viewBox="0 0 32 232" xmlns="http://www.w3.org/2000/svg"><title>cards-accepted</title><g fill="none"><path d="M21.729 125.094l-18.881 10.928c-.333.191-.447.618-.255.951l6.728 11.677c.191.336.616.449.949.256l18.882-10.927c.333-.193.446-.618.255-.953l-6.728-11.677c-.192-.333-.617-.448-.95-.255zm.092 1.558l1.452 2.516-17.678 10.228-1.448-2.515 17.674-10.229zm-11.643 20.696l-2.726-4.731 17.676-10.228 2.726 4.73-17.676 10.229zm2.888-3.819l5.222-3.022.464.807-5.224 3.021-.462-.806zm-3.013 1.745l2.21-1.279.462.805-2.21 1.278-.462-.804zm0 0" fill="#206FAC"/><path d="M21.729 85.094l-18.881 10.928c-.333.191-.447.618-.255.951l6.728 11.677c.191.336.616.449.949.256l18.882-10.927c.333-.193.446-.618.255-.953l-6.728-11.677c-.192-.333-.617-.448-.95-.255zm.092 1.558l1.452 2.516-17.678 10.228-1.448-2.515 17.674-10.229zm-11.643 20.696l-2.726-4.731 17.676-10.228 2.726 4.73-17.676 10.229zm2.888-3.819l5.222-3.022.464.807-5.224 3.021-.462-.806zm-3.013 1.745l2.21-1.279.462.805-2.21 1.278-.462-.804zm0 0" fill="#fff"/><path d="M21.729 45.094l-18.881 10.928c-.333.191-.447.618-.255.951l6.728 11.677c.191.336.616.449.949.256l18.882-10.927c.333-.193.446-.618.255-.953l-6.728-11.677c-.192-.333-.617-.448-.95-.255zm.092 1.558l1.452 2.516-17.678 10.228-1.448-2.515 17.674-10.229zm-11.643 20.696l-2.726-4.731 17.676-10.228 2.726 4.73-17.676 10.229zm2.888-3.819l5.222-3.022.464.807-5.224 3.021-.462-.806zm-3.013 1.745l2.21-1.279.462.805-2.21 1.278-.462-.804zm0 0" fill="#67737B"/><path d="M21.729 5.094l-18.881 10.928c-.333.191-.447.618-.255.951l6.728 11.677c.191.336.616.449.949.256l18.882-10.927c.333-.193.446-.618.255-.953l-6.728-11.677c-.192-.333-.617-.448-.95-.255zm.092 1.558l1.452 2.516-17.678 10.228-1.448-2.515 17.674-10.229zm-11.643 20.696l-2.726-4.731 17.676-10.228 2.726 4.73-17.676 10.229zm2.888-3.819l5.222-3.022.464.807-5.224 3.021-.462-.806zm-3.013 1.745l2.21-1.279.462.805-2.21 1.278-.462-.804zm0 0" fill="#3A434E"/></g></svg>