<svg width="32" height="232" viewBox="0 0 32 232" xmlns="http://www.w3.org/2000/svg"><title>cc</title><g fill="none"><path d="M15.986 8c2.239 0 4.144.781 5.714 2.343.753.752 1.323 1.612 1.715 2.579.389.967.585 1.994.585 3.078 0 1.096-.194 2.121-.579 3.079-.384.957-.956 1.803-1.708 2.534-.781.773-1.666 1.364-2.657 1.774-.989.409-2.014.613-3.071.613-1.056 0-2.069-.202-3.036-.608-.967-.404-1.833-.99-2.599-1.756-.767-.768-1.351-1.631-1.75-2.592-.402-.963-.601-1.978-.601-3.044 0-1.056.202-2.074.607-3.049.404-.976.994-1.85 1.764-2.622 1.525-1.553 3.395-2.329 5.614-2.329zm.028 1.444c-1.828 0-3.366.638-4.615 1.914-.626.637-1.11 1.353-1.449 2.151-.338.793-.505 1.626-.505 2.491 0 .858.168 1.683.505 2.48.339.794.823 1.505 1.449 2.128.629.624 1.34 1.099 2.129 1.428.791.327 1.62.492 2.486.492.858 0 1.688-.166 2.495-.5.803-.332 1.53-.815 2.177-1.442 1.247-1.22 1.87-2.748 1.87-4.587 0-.886-.16-1.723-.485-2.514-.324-.789-.796-1.495-1.414-2.114-1.287-1.286-2.834-1.928-4.643-1.928zm-.1 5.228l-1.071.557c-.114-.239-.256-.403-.421-.5-.166-.095-.32-.143-.463-.143-.716 0-1.073.47-1.073 1.414 0 .428.091.771.273 1.029.18.258.446.387.8.387.465 0 .794-.23.986-.686l.986.5c-.21.389-.5.695-.873.919-.37.225-.78.336-1.227.336-.713 0-1.29-.219-1.727-.656-.439-.438-.658-1.047-.658-1.829 0-.761.22-1.366.664-1.815.443-.447 1.002-.67 1.679-.67.989 0 1.7.385 2.127 1.157zm4.614 0l-1.056.557c-.115-.239-.255-.403-.421-.5-.166-.095-.326-.143-.479-.143-.715 0-1.071.47-1.071 1.414 0 .428.09.771.273 1.029.179.258.446.387.798.387.467 0 .795-.23.985-.686l1 .5c-.219.389-.514.695-.886.919-.37.225-.774.336-1.213.336-.725 0-1.303-.219-1.736-.656-.433-.438-.651-1.047-.651-1.829 0-.761.222-1.366.665-1.815.444-.447 1.003-.67 1.68-.67.989 0 1.694.385 2.113 1.157zm0 0" fill="#3B444F"/><path d="M15.986 48c2.239 0 4.144.781 5.714 2.343.753.752 1.323 1.612 1.715 2.579.389.967.585 1.994.585 3.078 0 1.096-.194 2.121-.579 3.079-.384.957-.956 1.803-1.708 2.535-.781.773-1.666 1.364-2.657 1.773-.989.408-2.014.613-3.071.613-1.056 0-2.069-.202-3.036-.608-.967-.404-1.833-.99-2.599-1.756-.767-.767-1.351-1.631-1.75-2.592-.402-.963-.601-1.978-.601-3.044 0-1.056.202-2.074.607-3.048.404-.977.994-1.851 1.764-2.623 1.525-1.553 3.395-2.329 5.614-2.329zm.028 1.444c-1.828 0-3.366.638-4.615 1.914-.626.637-1.11 1.354-1.449 2.151-.338.793-.505 1.626-.505 2.491 0 .858.168 1.684.505 2.48.339.794.823 1.505 1.449 2.128.629.624 1.34 1.099 2.129 1.428.791.327 1.62.492 2.486.492.858 0 1.688-.166 2.495-.5.803-.333 1.53-.815 2.177-1.442 1.247-1.22 1.87-2.748 1.87-4.587 0-.886-.16-1.724-.485-2.514-.324-.789-.796-1.495-1.414-2.114-1.287-1.285-2.834-1.928-4.643-1.928zm-.1 5.228l-1.071.558c-.114-.239-.256-.404-.421-.5-.166-.095-.32-.143-.463-.143-.716 0-1.073.47-1.073 1.413 0 .428.091.771.273 1.029.18.258.446.387.8.387.465 0 .794-.23.986-.685l.986.5c-.21.389-.5.696-.873.919-.37.225-.78.337-1.227.337-.713 0-1.29-.219-1.727-.657-.439-.438-.658-1.047-.658-1.829 0-.761.22-1.365.664-1.815.443-.447 1.002-.67 1.679-.67.989 0 1.7.386 2.127 1.157zm4.614 0l-1.056.558c-.115-.239-.255-.404-.421-.5-.166-.095-.326-.143-.479-.143-.715 0-1.071.47-1.071 1.413 0 .428.09.771.273 1.029.179.258.446.387.798.387.467 0 .795-.23.985-.685l1 .5c-.219.389-.514.696-.886.919-.37.225-.774.337-1.213.337-.725 0-1.303-.219-1.736-.657-.433-.438-.651-1.047-.651-1.829 0-.761.222-1.365.665-1.815.444-.447 1.003-.67 1.68-.67.989 0 1.694.386 2.113 1.157zm0 0" fill="#67737B"/><path d="M15.986 88c2.239 0 4.144.781 5.714 2.343.753.752 1.323 1.612 1.715 2.579.389.967.585 1.994.585 3.078 0 1.096-.194 2.121-.579 3.079-.384.958-.956 1.803-1.708 2.535-.781.773-1.666 1.364-2.657 1.773-.989.409-2.014.613-3.071.613-1.056 0-2.069-.202-3.036-.608-.967-.404-1.833-.99-2.599-1.756-.767-.767-1.351-1.631-1.75-2.592-.402-.963-.601-1.978-.601-3.044 0-1.056.202-2.074.607-3.049.404-.977.994-1.85 1.764-2.623 1.525-1.552 3.395-2.329 5.614-2.329zm.028 1.444c-1.828 0-3.366.638-4.615 1.914-.626.637-1.11 1.353-1.449 2.151-.338.793-.505 1.626-.505 2.491 0 .858.168 1.683.505 2.48.339.794.823 1.504 1.449 2.129.629.624 1.34 1.099 2.129 1.428.791.327 1.62.492 2.486.492.858 0 1.688-.166 2.495-.5.803-.332 1.53-.814 2.177-1.442 1.247-1.219 1.87-2.749 1.87-4.587 0-.885-.16-1.724-.485-2.513-.324-.789-.796-1.496-1.414-2.115-1.287-1.285-2.834-1.928-4.643-1.928zm-.1 5.228l-1.071.558c-.114-.239-.256-.404-.421-.5-.166-.095-.32-.143-.463-.143-.716 0-1.073.47-1.073 1.413 0 .428.091.771.273 1.028.18.258.446.388.8.388.465 0 .794-.23.986-.685l.986.5c-.21.389-.5.695-.873.918-.37.225-.78.337-1.227.337-.713 0-1.29-.219-1.727-.657-.439-.438-.658-1.047-.658-1.829 0-.761.22-1.365.664-1.814.443-.447 1.002-.671 1.679-.671.989 0 1.7.385 2.127 1.157zm4.614 0l-1.056.558c-.115-.239-.255-.404-.421-.5-.166-.095-.326-.143-.479-.143-.715 0-1.071.47-1.071 1.413 0 .428.09.771.273 1.028.179.258.446.388.798.388.467 0 .795-.23.985-.685l1 .5c-.219.389-.514.695-.886.918-.37.225-.774.337-1.213.337-.725 0-1.303-.219-1.736-.657-.433-.438-.651-1.047-.651-1.829 0-.761.222-1.365.665-1.814.444-.447 1.003-.671 1.68-.671.989 0 1.694.385 2.113 1.157zm0 0" fill="#fff"/><path d="M15.986 128c2.239 0 4.144.781 5.714 2.343.753.752 1.323 1.612 1.715 2.579.389.967.585 1.994.585 3.078 0 1.095-.194 2.121-.579 3.079-.384.957-.956 1.803-1.708 2.534-.781.773-1.666 1.364-2.657 1.774-.989.409-2.014.613-3.071.613-1.056 0-2.069-.202-3.036-.607-.967-.404-1.833-.99-2.599-1.756-.767-.768-1.351-1.631-1.75-2.592-.402-.964-.601-1.978-.601-3.044 0-1.056.202-2.074.607-3.048.404-.977.994-1.851 1.764-2.623 1.525-1.553 3.395-2.329 5.614-2.329zm.028 1.444c-1.828 0-3.366.638-4.615 1.914-.626.637-1.11 1.353-1.449 2.151-.338.793-.505 1.626-.505 2.491 0 .858.168 1.684.505 2.48.339.794.823 1.505 1.449 2.129.629.624 1.34 1.099 2.129 1.428.791.327 1.62.492 2.486.492.858 0 1.688-.166 2.495-.5.803-.333 1.53-.815 2.177-1.442 1.247-1.22 1.87-2.749 1.87-4.587 0-.886-.16-1.724-.485-2.513-.324-.789-.796-1.495-1.414-2.114-1.287-1.286-2.834-1.928-4.643-1.928zm-.1 5.228l-1.071.558c-.114-.238-.256-.404-.421-.5-.166-.095-.32-.143-.463-.143-.716 0-1.073.47-1.073 1.413 0 .428.091.771.273 1.029.18.258.446.387.8.387.465 0 .794-.231.986-.685l.986.5c-.21.389-.5.695-.873.918-.37.225-.78.337-1.227.337-.713 0-1.29-.219-1.727-.656-.439-.438-.658-1.048-.658-1.829 0-.762.22-1.365.664-1.815.443-.447 1.002-.671 1.679-.671.989 0 1.7.386 2.127 1.157zm4.614 0l-1.056.558c-.115-.238-.255-.404-.421-.5-.166-.095-.326-.143-.479-.143-.715 0-1.071.47-1.071 1.413 0 .428.09.771.273 1.029.179.258.446.387.798.387.467 0 .795-.231.985-.685l1 .5c-.219.389-.514.695-.886.918-.37.225-.774.337-1.213.337-.725 0-1.303-.219-1.736-.656-.433-.438-.651-1.048-.651-1.829 0-.762.222-1.365.665-1.815.444-.447 1.003-.671 1.68-.671.989 0 1.694.386 2.113 1.157zm0 0" fill="#206FAC"/></g></svg>