<svg width="32" height="232" xmlns="http://www.w3.org/2000/svg" xmlns:sketch="http://www.bohemiancoding.com/sketch/ns"><title>chevron-left</title><g sketch:type="MSPage" fill="none"><path d="M20.5 149.5l-12.5-12.5 3.334-3.332 9.166-9.168 3.334 3.334-9.168 9.166 9.168 9.168-3.334 3.332" fill="#206FAC" sketch:type="MSShapeGroup"/><path d="M20.5 109.5l-12.5-12.5 3.334-3.332 9.166-9.168 3.334 3.334-9.168 9.166 9.168 9.168-3.334 3.332" fill="#fff" sketch:type="MSShapeGroup"/><path d="M20.5 69.5l-12.5-12.5 3.334-3.332 9.166-9.168 3.334 3.334-9.168 9.166 9.168 9.168-3.334 3.332" fill="#67737B" sketch:type="MSShapeGroup"/><path d="M20.5 29.5l-12.5-12.5 3.334-3.332 9.166-9.168 3.334 3.334-9.168 9.166 9.168 9.168-3.334 3.332" fill="#3A434E" sketch:type="MSShapeGroup"/></g></svg>