<svg width="32" height="232" viewBox="0 0 32 232" xmlns="http://www.w3.org/2000/svg"><title>chevron-left</title><g fill="none"><path d="M20.5 149.5l-12.5-12.5 3.334-3.332 9.166-9.168 3.334 3.334-9.168 9.166 9.168 9.168-3.334 3.332" fill="#206FAC"/><path d="M20.5 109.5l-12.5-12.5 3.334-3.332 9.166-9.168 3.334 3.334-9.168 9.166 9.168 9.168-3.334 3.332" fill="#fff"/><path d="M20.5 69.5l-12.5-12.5 3.334-3.332 9.166-9.168 3.334 3.334-9.168 9.166 9.168 9.168-3.334 3.332" fill="#67737B"/><path d="M20.5 29.5l-12.5-12.5 3.334-3.332 9.166-9.168 3.334 3.334-9.168 9.166 9.168 9.168-3.334 3.332" fill="#3A434E"/></g></svg>