<svg width="32" height="232" xmlns="http://www.w3.org/2000/svg" xmlns:sketch="http://www.bohemiancoding.com/sketch/ns"><title>chevron-up</title><g sketch:type="MSPage" fill="none"><path d="M3.5 141.583l12.5-12.5 3.332 3.334 9.168 9.166-3.334 3.334-9.166-9.168-9.168 9.168-3.332-3.334" fill="#206FAC" sketch:type="MSShapeGroup"/><path d="M3.5 101.583l12.5-12.5 3.332 3.334 9.168 9.166-3.334 3.334-9.166-9.168-9.168 9.168-3.332-3.334" fill="#fff" sketch:type="MSShapeGroup"/><path d="M3.5 61.583l12.5-12.5 3.332 3.334 9.168 9.166-3.334 3.334-9.166-9.168-9.168 9.168-3.332-3.334" fill="#67737B" sketch:type="MSShapeGroup"/><path d="M3.5 21.583l12.5-12.5 3.332 3.334 9.168 9.166-3.334 3.334-9.166-9.168-9.168 9.168-3.332-3.334" fill="#3A434E" sketch:type="MSShapeGroup"/></g></svg>