<?xml version="1.0" encoding="UTF-8" standalone="no"?>
<svg width="32px" height="232px" viewBox="0 0 32 232" version="1.1" xmlns="http://www.w3.org/2000/svg" xmlns:xlink="http://www.w3.org/1999/xlink" xmlns:sketch="http://www.bohemiancoding.com/sketch/ns">
    <title>chevron-left</title>
    <description>Created with Sketch (http://www.bohemiancoding.com/sketch)</description>
    <defs></defs>
    <g id="Functions" stroke="none" stroke-width="1" fill="none" fill-rule="evenodd" sketch:type="MSPage">
        <path d="M28.417,132.417 L15.917,144.917 L12.585,141.583 L3.417,132.417 L6.751,129.083 L15.917,138.251 L25.085,129.083 L28.417,132.417" id="chevron-left--lp-blue" fill="#206FAC" sketch:type="MSShapeGroup" transform="translate(15.917000, 137.000000) rotate(-270.000000) translate(-15.917000, -137.000000) "></path>
        <path d="M28.417,92.417 L15.917,104.917 L12.585,101.583 L3.417,92.417 L6.751,89.083 L15.917,98.251 L25.085,89.083 L28.417,92.417" id="chevron-left--white" fill="#FFFFFF" sketch:type="MSShapeGroup" transform="translate(15.917000, 97.000000) rotate(-270.000000) translate(-15.917000, -97.000000) "></path>
        <path d="M28.417,52.417 L15.917,64.917 L12.585,61.583 L3.417,52.417 L6.751,49.083 L15.917,58.251 L25.085,49.083 L28.417,52.417" id="chevron-left--body-grey" fill="#67737B" sketch:type="MSShapeGroup" transform="translate(15.917000, 57.000000) rotate(-270.000000) translate(-15.917000, -57.000000) "></path>
        <path d="M28.417,12.417 L15.917,24.917 L12.585,21.583 L3.417,12.417 L6.751,9.083 L15.917,18.251 L25.085,9.083 L28.417,12.417" id="chevron-left--title-grey" fill="#3A434E" sketch:type="MSShapeGroup" transform="translate(15.917000, 17.000000) rotate(-270.000000) translate(-15.917000, -17.000000) "></path>
    </g>
</svg>