<?xml version="1.0" encoding="UTF-8" standalone="no"?>
<svg width="32px" height="232px" viewBox="0 0 32 232" version="1.1" xmlns="http://www.w3.org/2000/svg" xmlns:xlink="http://www.w3.org/1999/xlink" xmlns:sketch="http://www.bohemiancoding.com/sketch/ns">
    <title>chevron-right</title>
    <description>Created with Sketch (http://www.bohemiancoding.com/sketch)</description>
    <defs></defs>
    <g id="Functions" stroke="none" stroke-width="1" fill="none" fill-rule="evenodd" sketch:type="MSPage">
        <path d="M28.4194258,131.417 L15.9194258,143.917 L12.5874258,140.583 L3.41942578,131.417 L6.75342578,128.083 L15.9194258,137.251 L25.0874258,128.083 L28.4194258,131.417" id="chevron-right--lp-blue" fill="#206FAC" sketch:type="MSShapeGroup" transform="translate(15.919426, 136.000000) rotate(-90.000000) translate(-15.919426, -136.000000) "></path>
        <path d="M28.4194258,91.417 L15.9194258,103.917 L12.5874258,100.583 L3.41942578,91.417 L6.75342578,88.083 L15.9194258,97.251 L25.0874258,88.083 L28.4194258,91.417" id="chevron-right--white" fill="#FFFFFF" sketch:type="MSShapeGroup" transform="translate(15.919426, 96.000000) rotate(-90.000000) translate(-15.919426, -96.000000) "></path>
        <path d="M28.4194258,51.417 L15.9194258,63.917 L12.5874258,60.583 L3.41942578,51.417 L6.75342578,48.083 L15.9194258,57.251 L25.0874258,48.083 L28.4194258,51.417" id="chevron-right--body-grey" fill="#67737B" sketch:type="MSShapeGroup" transform="translate(15.919426, 56.000000) rotate(-90.000000) translate(-15.919426, -56.000000) "></path>
        <path d="M28.4194258,11.417 L15.9194258,23.917 L12.5874258,20.583 L3.41942578,11.417 L6.75342578,8.083 L15.9194258,17.251 L25.0874258,8.083 L28.4194258,11.417" id="chevron-right--title-grey" fill="#3A434E" sketch:type="MSShapeGroup" transform="translate(15.919426, 16.000000) rotate(-90.000000) translate(-15.919426, -16.000000) "></path>
    </g>
</svg>