<?xml version="1.0" encoding="UTF-8" standalone="no"?>
<svg width="32px" height="232px" viewBox="0 0 32 232" version="1.1" xmlns="http://www.w3.org/2000/svg" xmlns:xlink="http://www.w3.org/1999/xlink" xmlns:sketch="http://www.bohemiancoding.com/sketch/ns">
    <title>chevron-down</title>
    <description>Created with Sketch (http://www.bohemiancoding.com/sketch)</description>
    <defs></defs>
    <g id="Functions" stroke="none" stroke-width="1" fill="none" fill-rule="evenodd" sketch:type="MSPage">
        <path d="M28.5,132.417 L16,144.917 L12.668,141.583 L3.5,132.417 L6.834,129.083 L16,138.251 L25.168,129.083 L28.5,132.417" id="chevron-down--lp-blue" fill="#206FAC" sketch:type="MSShapeGroup"></path>
        <path d="M28.5,92.417 L16,104.917 L12.668,101.583 L3.5,92.417 L6.834,89.083 L16,98.251 L25.168,89.083 L28.5,92.417" id="chevron-down--white" fill="#FFFFFF" sketch:type="MSShapeGroup"></path>
        <path d="M28.5,52.417 L16,64.917 L12.668,61.583 L3.5,52.417 L6.834,49.083 L16,58.251 L25.168,49.083 L28.5,52.417" id="chevron-down--body-grey" fill="#67737B" sketch:type="MSShapeGroup"></path>
        <path d="M28.5,12.417 L16,24.917 L12.668,21.583 L3.5,12.417 L6.834,9.083 L16,18.251 L25.168,9.083 L28.5,12.417" id="chevron-down--title-grey" fill="#3A434E" sketch:type="MSShapeGroup"></path>
    </g>
</svg>