<svg width="32" height="232" viewBox="0 0 32 232" xmlns="http://www.w3.org/2000/svg"><title>chevron-right</title><g fill="none"><path d="M11.336 123.5l12.5 12.5-3.334 3.332-9.166 9.168-3.334-3.334 9.168-9.166-9.168-9.168 3.334-3.332" fill="#206FAC"/><path d="M11.336 83.5l12.5 12.5-3.334 3.332-9.166 9.168-3.334-3.334 9.168-9.166-9.168-9.168 3.334-3.332" fill="#fff"/><path d="M11.336 43.5l12.5 12.5-3.334 3.332-9.166 9.168-3.334-3.334 9.168-9.166-9.168-9.168 3.334-3.332" fill="#67737B"/><path d="M11.336 3.5l12.5 12.5-3.334 3.332-9.166 9.168-3.334-3.334 9.168-9.166-9.168-9.168 3.334-3.332" fill="#3A434E"/></g></svg>