<svg width="32" height="232" viewBox="0 0 32 232" xmlns="http://www.w3.org/2000/svg"><title>collapse</title><g fill="none"><path d="M21.986 140.684l6.514 6.463-1.853 1.853-6.463-6.413v3.206h-2.506v-7.615h7.717v2.506h-3.409zm-10.169-13.478h2.505v7.615h-7.714v-2.504h3.355l-6.463-6.463 1.854-1.854 6.463 6.362v-3.156zm0 0" fill="#206FAC"/><path d="M21.986 100.684l6.514 6.463-1.853 1.853-6.463-6.413v3.206h-2.506v-7.615h7.717v2.506h-3.409zm-10.169-13.478h2.505v7.615h-7.714v-2.504h3.355l-6.463-6.463 1.854-1.854 6.463 6.362v-3.156zm0 0" fill="#fff"/><path d="M21.986 60.684l6.514 6.463-1.853 1.853-6.463-6.413v3.206h-2.506v-7.615h7.717v2.506h-3.409zm-10.169-13.478h2.505v7.615h-7.714v-2.504h3.355l-6.463-6.463 1.854-1.854 6.463 6.362v-3.156zm0 0" fill="#67737B"/><path d="M21.986 20.684l6.514 6.463-1.853 1.853-6.463-6.413v3.206h-2.506v-7.615h7.717v2.506h-3.409zm-10.169-13.478h2.505v7.615h-7.714v-2.504h3.355l-6.463-6.463 1.854-1.854 6.463 6.362v-3.156zm0 0" fill="#3A434E"/></g></svg>