<svg width="32" height="232" xmlns="http://www.w3.org/2000/svg" xmlns:sketch="http://www.bohemiancoding.com/sketch/ns"><title>comment</title><g sketch:type="MSPage" fill="none"><path d="M23.232 142.623c-1.768 1.098-3.978 1.797-6.393 1.938l-4.7 4.451v-4.945c-4.442-1.215-7.639-4.447-7.639-8.276 0-4.859 5.146-8.791 11.494-8.791 6.346 0 11.506 3.932 11.506 8.791 0 2.731-1.636 5.18-4.202 6.791l-.067.041zm0 0" fill="#206FAC" sketch:type="MSShapeGroup"/><path d="M23.232 102.623c-1.768 1.098-3.978 1.797-6.393 1.938l-4.7 4.451v-4.945c-4.442-1.215-7.639-4.447-7.639-8.276 0-4.859 5.146-8.791 11.494-8.791 6.346 0 11.506 3.932 11.506 8.791 0 2.731-1.636 5.18-4.202 6.791l-.067.041zm0 0" fill="#fff" sketch:type="MSShapeGroup"/><path d="M23.232 62.623c-1.768 1.098-3.978 1.797-6.393 1.938l-4.7 4.451v-4.945c-4.442-1.215-7.639-4.447-7.639-8.276 0-4.859 5.146-8.791 11.494-8.791 6.346 0 11.506 3.932 11.506 8.791 0 2.731-1.636 5.18-4.202 6.791l-.067.041zm0 0" fill="#67737B" sketch:type="MSShapeGroup"/><path d="M23.232 22.623c-1.768 1.098-3.978 1.797-6.393 1.938l-4.7 4.451v-4.945c-4.442-1.215-7.639-4.447-7.639-8.276 0-4.859 5.146-8.791 11.494-8.791 6.346 0 11.506 3.932 11.506 8.791 0 2.731-1.636 5.18-4.202 6.791l-.067.041zm0 0" fill="#3A434E" sketch:type="MSShapeGroup"/></g></svg>