<?xml version="1.0" encoding="UTF-8" standalone="no"?>
<svg width="32px" height="232px" viewBox="0 0 32 232" version="1.1" xmlns="http://www.w3.org/2000/svg" xmlns:xlink="http://www.w3.org/1999/xlink" xmlns:sketch="http://www.bohemiancoding.com/sketch/ns">
    <title>comment</title>
    <description>Created with Sketch (http://www.bohemiancoding.com/sketch)</description>
    <defs></defs>
    <g id="Categories" stroke="none" stroke-width="1" fill="none" fill-rule="evenodd" sketch:type="MSPage">
        <path d="M23.2318548,142.623 C21.4637097,143.721 19.2540323,144.42 16.8387097,144.561 L12.1391129,149.012 L12.1391129,144.067 C7.69758065,142.852 4.5,139.62 4.5,135.791 C4.5,130.932 9.64616935,127 15.9939516,127 C22.3397177,127 27.5,130.932 27.5,135.791 C27.5,138.522 25.8639113,140.971 23.2983871,142.582 C23.2852823,142.604 23.2510081,142.604 23.2318548,142.623 Z M23.2318548,142.623" id="comment--lp-blue" fill="#206FAC" sketch:type="MSShapeGroup"></path>
        <path d="M23.2318548,102.623 C21.4637097,103.721 19.2540323,104.42 16.8387097,104.561 L12.1391129,109.012 L12.1391129,104.067 C7.69758065,102.852 4.5,99.62 4.5,95.791 C4.5,90.932 9.64616935,87 15.9939516,87 C22.3397177,87 27.5,90.932 27.5,95.791 C27.5,98.522 25.8639113,100.971 23.2983871,102.582 C23.2852823,102.604 23.2510081,102.604 23.2318548,102.623 Z M23.2318548,102.623" id="comment--white" fill="#FFFFFF" sketch:type="MSShapeGroup"></path>
        <path d="M23.2318548,62.623 C21.4637097,63.721 19.2540323,64.42 16.8387097,64.561 L12.1391129,69.012 L12.1391129,64.067 C7.69758065,62.852 4.5,59.62 4.5,55.791 C4.5,50.932 9.64616935,47 15.9939516,47 C22.3397177,47 27.5,50.932 27.5,55.791 C27.5,58.522 25.8639113,60.971 23.2983871,62.582 C23.2852823,62.604 23.2510081,62.604 23.2318548,62.623 Z M23.2318548,62.623" id="comment--body-grey" fill="#67737B" sketch:type="MSShapeGroup"></path>
        <path d="M23.2318548,22.623 C21.4637097,23.721 19.2540323,24.42 16.8387097,24.561 L12.1391129,29.012 L12.1391129,24.067 C7.69758065,22.852 4.5,19.62 4.5,15.791 C4.5,10.932 9.64616935,7 15.9939516,7 C22.3397177,7 27.5,10.932 27.5,15.791 C27.5,18.522 25.8639113,20.971 23.2983871,22.582 C23.2852823,22.604 23.2510081,22.604 23.2318548,22.623 Z M23.2318548,22.623" id="comment--title-grey" fill="#3A434E" sketch:type="MSShapeGroup"></path>
    </g>
</svg>