<svg width="32" height="232" viewBox="0 0 32 232" xmlns="http://www.w3.org/2000/svg"><title>concierge</title><g fill="none"><path d="M21.858 138.115c-.236-.921-1.167-1.475-2.087-1.233l-4.073.681v-2.204c0-.462-.025-.838-.109-1.135l.002-.001-.004-.009c-.159-.567-.533-.845-1.358-.89l-.145-.007h-7.875c-1.612 0-2.21.463-2.21 2.082v3.767c0 1.407.224 2.011 1.61 2.042v.001h7.879l.32-.008c.264.041.535.024.799-.017l6.025-.969c.916-.24 1.467-1.18 1.226-2.1zm-9.157-1.574c0 .443-.34.684-.754.535l-1.908-.681-1.722.536c-.424.13-.767-.127-.767-.569v-1.01c0-.444.339-.686.753-.536l1.912.68 1.722-.533c.42-.131.764.122.764.566v1.012zm14.451 5.911h-22.272c-.465 0-.848.381-.848.852v5.844c0 .471.383.852.848.852h22.272c.467 0 .848-.381.848-.852v-5.844c0-.471-.381-.852-.848-.852zm-17.028-10.703c2.683-.002 4.852-2.183 4.854-4.874-.002-2.689-2.172-4.875-4.854-4.875-2.68 0-4.852 2.184-4.852 4.875s2.173 4.872 4.852 4.874zm0 0" fill="#206FAC"/><path d="M21.858 98.115c-.236-.921-1.167-1.475-2.087-1.233l-4.073.681v-2.204c0-.462-.025-.838-.109-1.135l.002-.001-.004-.009c-.159-.567-.533-.845-1.358-.89l-.145-.007h-7.875c-1.612 0-2.21.463-2.21 2.082v3.767c0 1.407.224 2.011 1.61 2.042v.001h7.879l.32-.008c.264.041.535.024.799-.017l6.025-.969c.916-.24 1.467-1.18 1.226-2.1zm-9.157-1.574c0 .443-.34.684-.754.535l-1.908-.681-1.722.536c-.424.13-.767-.127-.767-.569v-1.01c0-.444.339-.686.753-.536l1.912.68 1.722-.533c.42-.131.764.122.764.566v1.012zm14.451 5.911h-22.272c-.465 0-.848.381-.848.852v5.844c0 .471.383.852.848.852h22.272c.467 0 .848-.381.848-.852v-5.844c0-.471-.381-.852-.848-.852zm-17.028-10.703c2.683-.002 4.852-2.183 4.854-4.874-.002-2.689-2.172-4.875-4.854-4.875-2.68 0-4.852 2.184-4.852 4.875s2.173 4.872 4.852 4.874zm0 0" fill="#fff"/><path d="M21.858 58.115c-.236-.921-1.167-1.475-2.087-1.233l-4.073.681v-2.204c0-.462-.025-.838-.109-1.135l.002-.001-.004-.009c-.159-.567-.533-.845-1.358-.89l-.145-.007h-7.875c-1.612 0-2.21.463-2.21 2.082v3.767c0 1.407.224 2.011 1.61 2.042v.001h7.879l.32-.008c.264.041.535.024.799-.017l6.025-.969c.916-.24 1.467-1.18 1.226-2.1zm-9.157-1.574c0 .443-.34.684-.754.535l-1.908-.681-1.722.536c-.424.13-.767-.127-.767-.569v-1.01c0-.444.339-.686.753-.536l1.912.68 1.722-.533c.42-.131.764.122.764.566v1.012zm14.451 5.911h-22.272c-.465 0-.848.381-.848.852v5.844c0 .471.383.852.848.852h22.272c.467 0 .848-.381.848-.852v-5.844c0-.471-.381-.852-.848-.852zm-17.028-10.703c2.683-.002 4.852-2.183 4.854-4.874-.002-2.689-2.172-4.875-4.854-4.875-2.68 0-4.852 2.184-4.852 4.875s2.173 4.872 4.852 4.874zm0 0" fill="#67737B"/><path d="M21.858 18.115c-.236-.921-1.167-1.475-2.087-1.233l-4.073.681v-2.204c0-.462-.025-.838-.109-1.135l.002-.001-.004-.009c-.159-.567-.533-.845-1.358-.89l-.145-.007h-7.875c-1.612 0-2.21.463-2.21 2.082v3.767c0 1.407.224 2.011 1.61 2.042v.001h7.879l.32-.008c.264.041.535.024.799-.017l6.025-.969c.916-.24 1.467-1.18 1.226-2.1zm-9.157-1.574c0 .443-.34.684-.754.535l-1.908-.681-1.722.536c-.424.13-.767-.127-.767-.569v-1.01c0-.444.339-.686.753-.536l1.912.68 1.722-.533c.42-.131.764.122.764.566v1.012zm14.451 5.911h-22.272c-.465 0-.848.381-.848.852v5.844c0 .471.383.852.848.852h22.272c.467 0 .848-.381.848-.852v-5.844c0-.471-.381-.852-.848-.852zm-17.028-10.703c2.683-.002 4.852-2.183 4.854-4.874-.002-2.689-2.172-4.875-4.854-4.875-2.68 0-4.852 2.184-4.852 4.875s2.173 4.872 4.852 4.874zm0 0" fill="#3A434E"/></g></svg>