<svg width="32" height="232" xmlns="http://www.w3.org/2000/svg" xmlns:sketch="http://www.bohemiancoding.com/sketch/ns"><title>contact</title><g sketch:type="MSPage" fill="none"><path d="M14.079 134.581c2.475-2.473 5.339-4.837 6.471-3.705 1.623 1.621 2.621 3.033 6.195.16 3.575-2.873.83-4.787-.741-6.359-1.811-1.812-8.569-.096-15.247 6.582-6.677 6.678-8.395 13.433-6.581 15.248 1.57 1.57 3.484 4.314 6.357.74 2.873-3.572 1.462-4.574-.161-6.195-1.131-1.129 1.233-3.996 3.707-6.471" fill="#206FAC" sketch:type="MSShapeGroup"/><path d="M14.079 94.581c2.475-2.473 5.339-4.837 6.471-3.705 1.623 1.621 2.621 3.033 6.195.16 3.575-2.873.83-4.787-.741-6.359-1.811-1.812-8.569-.096-15.247 6.582-6.677 6.678-8.395 13.433-6.581 15.248 1.57 1.57 3.484 4.314 6.357.74 2.873-3.572 1.462-4.574-.161-6.195-1.131-1.129 1.233-3.996 3.707-6.471" fill="#fff" sketch:type="MSShapeGroup"/><path d="M14.079 54.581c2.475-2.473 5.339-4.837 6.471-3.705 1.623 1.621 2.621 3.033 6.195.16 3.575-2.873.83-4.787-.741-6.359-1.811-1.812-8.569-.096-15.247 6.582-6.677 6.678-8.395 13.433-6.581 15.248 1.57 1.57 3.484 4.314 6.357.74 2.873-3.572 1.462-4.574-.161-6.195-1.131-1.129 1.233-3.996 3.707-6.471" fill="#67737B" sketch:type="MSShapeGroup"/><path d="M14.079 14.581c2.475-2.473 5.339-4.837 6.471-3.705 1.623 1.621 2.621 3.033 6.195.16 3.575-2.873.83-4.787-.741-6.359-1.811-1.812-8.569-.096-15.247 6.582-6.677 6.678-8.395 13.433-6.581 15.248 1.57 1.57 3.484 4.314 6.357.74 2.873-3.572 1.462-4.574-.161-6.195-1.131-1.129 1.233-3.996 3.707-6.471" fill="#3A434E" sketch:type="MSShapeGroup"/></g></svg>