<svg width="32" height="232" viewBox="0 0 32 232" xmlns="http://www.w3.org/2000/svg"><title>cross</title><g fill="none"><path d="M19.142 176.942l8.744-8.743-3.199-3.2-8.746 8.744-8.741-8.744-3.201 3.201 8.743 8.742-.056.058.056.057-8.743 8.743 3.201 3.201 8.743-8.743 8.744 8.743 3.199-3.201-8.744-8.743.059-.057-.059-.058z" fill="#F95D5B"/><path d="M19.142 215.942l8.744-8.743-3.199-3.2-8.746 8.744-8.741-8.744-3.201 3.201 8.743 8.742-.056.058.056.057-8.743 8.743 3.201 3.201 8.743-8.743 8.744 8.743 3.199-3.201-8.744-8.743.059-.057-.059-.058z" fill="#98A8B2"/><path d="M19.142 136.942l8.744-8.743-3.199-3.2-8.746 8.744-8.741-8.744-3.201 3.201 8.743 8.742-.056.058.056.057-8.743 8.743 3.201 3.201 8.743-8.743 8.744 8.743 3.199-3.201-8.744-8.743.059-.057-.059-.058z" fill="#206FAC"/><path d="M19.142 96.942l8.744-8.743-3.199-3.2-8.746 8.744-8.741-8.744-3.201 3.201 8.743 8.742-.056.058.056.057-8.743 8.743 3.201 3.201 8.743-8.743 8.744 8.743 3.199-3.201-8.744-8.743.059-.057-.059-.058z" fill="#fff"/><path d="M19.142 56.942l8.744-8.743-3.199-3.2-8.746 8.744-8.741-8.744-3.201 3.201 8.743 8.742-.056.058.056.057-8.743 8.743 3.201 3.201 8.743-8.743 8.744 8.743 3.199-3.201-8.744-8.743.059-.057-.059-.058z" fill="#67737B"/><path d="M19.142 16.942l8.744-8.743-3.199-3.2-8.746 8.744-8.741-8.744-3.201 3.201 8.743 8.742-.056.058.056.057-8.743 8.743 3.201 3.201 8.743-8.743 8.744 8.743 3.199-3.201-8.744-8.743.059-.057-.059-.058z" fill="#3A434E"/></g></svg>