<svg width="32" height="232" xmlns="http://www.w3.org/2000/svg" xmlns:sketch="http://www.bohemiancoding.com/sketch/ns"><title>cross</title><g sketch:type="MSPage" fill="none"><path d="M19.142 176.942l8.744-8.743-3.199-3.2-8.746 8.744-8.741-8.744-3.201 3.201 8.743 8.742-.056.058.056.057-8.743 8.743 3.201 3.201 8.743-8.743 8.744 8.743 3.199-3.201-8.744-8.743.059-.057-.059-.058zm0 0" fill="#F95D5B" sketch:type="MSShapeGroup"/><path d="M19.142 136.942l8.744-8.743-3.199-3.2-8.746 8.744-8.741-8.744-3.201 3.201 8.743 8.742-.056.058.056.057-8.743 8.743 3.201 3.201 8.743-8.743 8.744 8.743 3.199-3.201-8.744-8.743.059-.057-.059-.058zm0 0" fill="#206FAC" sketch:type="MSShapeGroup"/><path d="M19.142 96.942l8.744-8.743-3.199-3.2-8.746 8.744-8.741-8.744-3.201 3.201 8.743 8.742-.056.058.056.057-8.743 8.743 3.201 3.201 8.743-8.743 8.744 8.743 3.199-3.201-8.744-8.743.059-.057-.059-.058zm0 0" fill="#fff" sketch:type="MSShapeGroup"/><path d="M19.142 56.942l8.744-8.743-3.199-3.2-8.746 8.744-8.741-8.744-3.201 3.201 8.743 8.742-.056.058.056.057-8.743 8.743 3.201 3.201 8.743-8.743 8.744 8.743 3.199-3.201-8.744-8.743.059-.057-.059-.058zm0 0" fill="#67737B" sketch:type="MSShapeGroup"/><path d="M19.142 16.942l8.744-8.743-3.199-3.2-8.746 8.744-8.741-8.744-3.201 3.201 8.743 8.742-.056.058.056.057-8.743 8.743 3.201 3.201 8.743-8.743 8.744 8.743 3.199-3.201-8.744-8.743.059-.057-.059-.058zm0 0" fill="#3A434E" sketch:type="MSShapeGroup"/></g></svg>