<?xml version="1.0" encoding="UTF-8" standalone="no"?>
<svg width="32px" height="32px" viewBox="0 0 32 32" version="1.1" xmlns="http://www.w3.org/2000/svg" xmlns:xlink="http://www.w3.org/1999/xlink" xmlns:sketch="http://www.bohemiancoding.com/sketch/ns">
    <title>destination-flag--body-grey</title>
    <description>Created with Sketch (http://www.bohemiancoding.com/sketch)</description>
    <defs></defs>
    <g id="Categories" stroke="none" stroke-width="1" fill="none" fill-rule="evenodd" sketch:type="MSPage">
        <path d="M6.2477171,29 C5.55935542,29 5,28.432 5,27.731 L5,5.27 C5,4.568 5.55935542,4 6.2477171,4 C6.94001791,4 7.57914056,4.568 7.57914056,5.27 L7.57914056,27.731 C7.57914056,28.432 6.94001791,29 6.2477171,29 L6.2477171,29 L6.2477171,29 L6.2477171,29 Z M21.0066249,20.521 C18.2640107,20.521 15.2289167,18.547 12.7856759,18.547 L8.89874664,18.547 L8.89874664,4.752 L12.7856759,4.752 C15.2289167,4.752 18.2640107,6.725 21.0066249,6.725 C24.2357207,6.725 27,4.752 27,4.752 L27,18.547 C27,18.547 24.2357207,20.521 21.0066249,20.521 L21.0066249,20.521 Z M21.0066249,20.521" id="destination-flag--body-grey" fill="#67737B" sketch:type="MSShapeGroup"></path>
    </g>
</svg>