<svg width="32" height="232" xmlns="http://www.w3.org/2000/svg" xmlns:sketch="http://www.bohemiancoding.com/sketch/ns"><title>destination</title><g sketch:type="MSPage" fill="none"><path d="M28.233 128c-2.072 0-3.749 1.681-3.749 3.755 0 2.076 3.749 5.26 3.749 5.26s3.75-3.184 3.75-5.26c0-2.074-1.677-3.755-3.75-3.755zm-.003 4.87c-.658-.001-1.192-.538-1.192-1.199.002-.66.537-1.196 1.197-1.195.661.001 1.195.537 1.194 1.199-.002.662-.537 1.196-1.199 1.195zm-27.12 5.055c.622 0 1.126.506 1.126 1.129 0 .621-.504 1.128-1.126 1.128-.623 0-1.127-.507-1.127-1.128 0-.623.504-1.129 1.127-1.129zm27.107.999c.622 0 1.128.505 1.128 1.129 0 .623-.506 1.127-1.128 1.127-.621 0-1.127-.504-1.127-1.127 0-.624.506-1.129 1.127-1.129zm-5.875 4.918l-.038.011c-.709.169-1.409.227-2.077.171-.267-.022-.465-.257-.444-.525.022-.266.256-.465.522-.445.568.048 1.165-.002 1.776-.147.26-.061.52.099.582.36.059.25-.084.498-.321.575zm2.03-.782c-.22.07-.465-.025-.576-.236-.126-.238-.036-.532.201-.656.672-.358 1.218-.748 1.556-1.012.21-.166.515-.129.68.083.165.212.127.517-.084.683-.368.288-.96.714-1.697 1.104l-.079.034zm-6.037.337c-.121.038-.254.03-.373-.032-.584-.306-1.147-.719-1.67-1.229-.191-.187-.195-.496-.008-.687.187-.193.494-.197.686-.01.455.444.94.802 1.441 1.064.239.126.33.418.207.656-.061.118-.166.2-.282.238zm-2.924-2.841c-.205.066-.433-.009-.556-.199-.156-.239-.313-.494-.461-.756-.176-.312-.36-.608-.551-.88-.153-.22-.099-.522.121-.678.219-.153.522-.098.675.122.207.296.407.619.601.956.138.246.283.484.427.707.148.223.084.525-.141.671l-.115.057zm-2.471-3.273c-.155.048-.33.021-.463-.092-.473-.4-.982-.712-1.516-.928-.25-.097-.369-.381-.27-.63.1-.249.381-.369.631-.27.629.253 1.227.619 1.78 1.086.205.172.23.48.058.684-.06.072-.138.123-.221.15zm-9.345.728c-.184.059-.391.004-.523-.152-.171-.207-.143-.513.064-.684.027-.024.679-.564 1.711-1.111.237-.126.53-.035.656.203.126.236.035.532-.201.656-.938.498-1.541.995-1.547.998l-.161.09zm5.566-2.14l-.15.023c-.572-.001-1.173.084-1.789.253-.257.071-.524-.081-.593-.34-.072-.259.081-.525.338-.598.7-.191 1.387-.288 2.045-.285.268 0 .484.216.484.486-.001.214-.142.397-.335.461zm0 0" fill="#206FAC" sketch:type="MSShapeGroup"/><path d="M28.233 88c-2.072 0-3.749 1.681-3.749 3.755 0 2.076 3.749 5.26 3.749 5.26s3.75-3.184 3.75-5.26c0-2.074-1.677-3.755-3.75-3.755zm-.003 4.87c-.658-.001-1.192-.538-1.192-1.199.002-.66.537-1.196 1.197-1.195.661.001 1.195.537 1.194 1.199-.002.662-.537 1.196-1.199 1.195zm-27.12 5.055c.622 0 1.126.506 1.126 1.129 0 .621-.504 1.128-1.126 1.128-.623 0-1.127-.507-1.127-1.128 0-.623.504-1.129 1.127-1.129zm27.107.999c.622 0 1.128.505 1.128 1.129 0 .623-.506 1.127-1.128 1.127-.621 0-1.127-.504-1.127-1.127 0-.624.506-1.129 1.127-1.129zm-5.875 4.918l-.038.011c-.709.169-1.409.227-2.077.171-.267-.022-.465-.257-.444-.525.022-.266.256-.465.522-.445.568.048 1.165-.002 1.776-.147.26-.061.52.099.582.36.059.25-.084.498-.321.575zm2.03-.782c-.22.07-.465-.025-.576-.236-.126-.238-.036-.532.201-.656.672-.358 1.218-.748 1.556-1.012.21-.166.515-.129.68.083.165.212.127.517-.084.683-.368.288-.96.714-1.697 1.104l-.079.034zm-6.037.337c-.121.038-.254.03-.373-.032-.584-.306-1.147-.719-1.67-1.229-.191-.187-.195-.496-.008-.687.187-.193.494-.197.686-.01.455.444.94.802 1.441 1.064.239.126.33.418.207.656-.061.118-.166.2-.282.238zm-2.924-2.841c-.205.066-.433-.009-.556-.199-.156-.239-.313-.494-.461-.756-.176-.312-.36-.608-.551-.88-.153-.22-.099-.522.121-.678.219-.153.522-.098.675.122.207.296.407.619.601.956.138.246.283.484.427.707.148.223.084.525-.141.671l-.115.057zm-2.471-3.273c-.155.048-.33.021-.463-.092-.473-.4-.982-.712-1.516-.928-.25-.097-.369-.381-.27-.63.1-.249.381-.369.631-.27.629.253 1.227.619 1.78 1.086.205.172.23.48.058.684-.06.072-.138.123-.221.15zm-9.345.728c-.184.059-.391.004-.523-.152-.171-.207-.143-.513.064-.684.027-.024.679-.564 1.711-1.111.237-.126.53-.035.656.203.126.236.035.532-.201.656-.938.498-1.541.995-1.547.998l-.161.09zm5.566-2.14l-.15.023c-.572-.001-1.173.084-1.789.253-.257.071-.524-.081-.593-.34-.072-.259.081-.525.338-.598.7-.191 1.387-.288 2.045-.285.268 0 .484.216.484.486-.001.214-.142.397-.335.461zm0 0" fill="#fff" sketch:type="MSShapeGroup"/><path d="M28.233 48c-2.072 0-3.749 1.681-3.749 3.755 0 2.076 3.749 5.26 3.749 5.26s3.75-3.184 3.75-5.26c0-2.074-1.677-3.755-3.75-3.755zm-.003 4.87c-.658-.001-1.192-.538-1.192-1.199.002-.66.537-1.196 1.197-1.195.661.001 1.195.537 1.194 1.199-.002.662-.537 1.196-1.199 1.195zm-27.12 5.055c.622 0 1.126.506 1.126 1.129 0 .621-.504 1.128-1.126 1.128-.623 0-1.127-.507-1.127-1.128 0-.623.504-1.129 1.127-1.129zm27.107.999c.622 0 1.128.505 1.128 1.129 0 .623-.506 1.127-1.128 1.127-.621 0-1.127-.504-1.127-1.127 0-.624.506-1.129 1.127-1.129zm-5.875 4.918l-.038.011c-.709.169-1.409.227-2.077.171-.267-.022-.465-.257-.444-.525.022-.266.256-.465.522-.445.568.048 1.165-.002 1.776-.147.26-.061.52.099.582.36.059.25-.084.498-.321.575zm2.03-.782c-.22.07-.465-.025-.576-.236-.126-.238-.036-.532.201-.656.672-.358 1.218-.748 1.556-1.012.21-.166.515-.129.68.083.165.212.127.517-.084.683-.368.288-.96.714-1.697 1.104l-.079.034zm-6.037.337c-.121.038-.254.03-.373-.032-.584-.306-1.147-.719-1.67-1.229-.191-.187-.195-.496-.008-.687.187-.193.494-.197.686-.01.455.444.94.802 1.441 1.064.239.126.33.418.207.656-.061.118-.166.2-.282.238zm-2.924-2.841c-.205.066-.433-.009-.556-.199-.156-.239-.313-.494-.461-.756-.176-.312-.36-.608-.551-.88-.153-.22-.099-.522.121-.678.219-.153.522-.098.675.122.207.296.407.619.601.956.138.246.283.484.427.707.148.223.084.525-.141.671l-.115.057zm-2.471-3.273c-.155.048-.33.021-.463-.092-.473-.4-.982-.712-1.516-.928-.25-.097-.369-.381-.27-.63.1-.249.381-.369.631-.27.629.253 1.227.619 1.78 1.086.205.172.23.48.058.684-.06.072-.138.123-.221.15zm-9.345.728c-.184.059-.391.004-.523-.152-.171-.207-.143-.513.064-.684.027-.024.679-.564 1.711-1.111.237-.126.53-.035.656.203.126.236.035.532-.201.656-.938.498-1.541.995-1.547.998l-.161.09zm5.566-2.14l-.15.023c-.572-.001-1.173.084-1.789.253-.257.071-.524-.081-.593-.34-.072-.259.081-.525.338-.598.7-.191 1.387-.288 2.045-.285.268 0 .484.216.484.486-.001.214-.142.397-.335.461zm0 0" fill="#67737B" sketch:type="MSShapeGroup"/><path d="M28.233 8c-2.072 0-3.749 1.681-3.749 3.755 0 2.076 3.749 5.26 3.749 5.26s3.75-3.184 3.75-5.26c0-2.074-1.677-3.755-3.75-3.755zm-.003 4.87c-.658-.001-1.192-.538-1.192-1.199.002-.66.537-1.196 1.197-1.195.661.001 1.195.537 1.194 1.199-.002.662-.537 1.196-1.199 1.195zm-27.12 5.055c.622 0 1.126.506 1.126 1.129 0 .621-.504 1.128-1.126 1.128-.623 0-1.127-.507-1.127-1.128 0-.623.504-1.129 1.127-1.129zm27.107.999c.622 0 1.128.505 1.128 1.129 0 .623-.506 1.127-1.128 1.127-.621 0-1.127-.504-1.127-1.127 0-.624.506-1.129 1.127-1.129zm-5.875 4.918l-.038.011c-.709.169-1.409.227-2.077.171-.267-.022-.465-.257-.444-.525.022-.266.256-.465.522-.445.568.048 1.165-.002 1.776-.147.26-.061.52.099.582.36.059.25-.084.498-.321.575zm2.03-.782c-.22.07-.465-.025-.576-.236-.126-.238-.036-.532.201-.656.672-.358 1.218-.748 1.556-1.012.21-.166.515-.129.68.083.165.212.127.517-.084.683-.368.288-.96.714-1.697 1.104l-.079.034zm-6.037.337c-.121.038-.254.03-.373-.032-.584-.306-1.147-.719-1.67-1.229-.191-.187-.195-.496-.008-.687.187-.193.494-.197.686-.01.455.444.94.802 1.441 1.064.239.126.33.418.207.656-.061.118-.166.2-.282.238zm-2.924-2.841c-.205.066-.433-.009-.556-.199-.156-.239-.313-.494-.461-.756-.176-.312-.36-.608-.551-.88-.153-.22-.099-.522.121-.678.219-.153.522-.098.675.122.207.296.407.619.601.956.138.246.283.484.427.707.148.223.084.525-.141.671l-.115.057zm-2.471-3.273c-.155.048-.33.021-.463-.092-.473-.4-.982-.712-1.516-.928-.25-.097-.369-.381-.27-.63.1-.249.381-.369.631-.27.629.253 1.227.619 1.78 1.086.205.172.23.48.058.684-.06.072-.138.123-.221.15zm-9.345.728c-.184.059-.391.004-.523-.152-.171-.207-.143-.513.064-.684.027-.024.679-.564 1.711-1.111.237-.126.53-.035.656.203.126.236.035.532-.201.656-.938.498-1.541.995-1.547.998l-.161.09zm5.566-2.14l-.15.023c-.572-.001-1.173.084-1.789.253-.257.071-.524-.081-.593-.34-.072-.259.081-.525.338-.598.7-.191 1.387-.288 2.045-.285.268 0 .484.216.484.486-.001.214-.142.397-.335.461zm0 0" fill="#3A434E" sketch:type="MSShapeGroup"/></g></svg>