<svg width="32" height="232" xmlns="http://www.w3.org/2000/svg" xmlns:sketch="http://www.bohemiancoding.com/sketch/ns"><title>destination-flag</title><g sketch:type="MSPage" fill="none"><path d="M6.248 149c-.688 0-1.248-.568-1.248-1.269v-22.461c0-.702.559-1.27 1.248-1.27.692 0 1.331.568 1.331 1.27v22.461c0 .701-.639 1.269-1.331 1.269zm14.759-8.479c-2.743 0-5.778-1.974-8.221-1.974h-3.887v-13.795h3.887c2.443 0 5.478 1.973 8.221 1.973 3.229 0 5.993-1.973 5.993-1.973v13.795s-2.764 1.974-5.993 1.974zm0 0" fill="#206FAC" sketch:type="MSShapeGroup"/><path d="M6.248 109c-.688 0-1.248-.568-1.248-1.269v-22.461c0-.702.559-1.27 1.248-1.27.692 0 1.331.568 1.331 1.27v22.461c0 .701-.639 1.269-1.331 1.269zm14.759-8.479c-2.743 0-5.778-1.974-8.221-1.974h-3.887v-13.795h3.887c2.443 0 5.478 1.973 8.221 1.973 3.229 0 5.993-1.973 5.993-1.973v13.795s-2.764 1.974-5.993 1.974zm0 0" fill="#fff" sketch:type="MSShapeGroup"/><path d="M6.248 69c-.688 0-1.248-.568-1.248-1.269v-22.461c0-.702.559-1.27 1.248-1.27.692 0 1.331.568 1.331 1.27v22.461c0 .701-.639 1.269-1.331 1.269zm14.759-8.479c-2.743 0-5.778-1.974-8.221-1.974h-3.887v-13.795h3.887c2.443 0 5.478 1.973 8.221 1.973 3.229 0 5.993-1.973 5.993-1.973v13.795s-2.764 1.974-5.993 1.974zm0 0" fill="#67737B" sketch:type="MSShapeGroup"/><path d="M6.248 29c-.688 0-1.248-.568-1.248-1.269v-22.461c0-.702.559-1.27 1.248-1.27.692 0 1.331.568 1.331 1.27v22.461c0 .701-.639 1.269-1.331 1.269zm14.759-8.479c-2.743 0-5.778-1.974-8.221-1.974h-3.887v-13.795h3.887c2.443 0 5.478 1.973 8.221 1.973 3.229 0 5.993-1.973 5.993-1.973v13.795s-2.764 1.974-5.993 1.974zm0 0" fill="#3A434E" sketch:type="MSShapeGroup"/></g></svg>