<svg width="22" height="32" viewBox="0 0 22 32" xmlns="http://www.w3.org/2000/svg" xmlns:sketch="http://www.bohemiancoding.com/sketch/ns"><title>destination--pin</title><g sketch:type="MSPage" fill="none"><path d="M15.518 29.984c0 1.105-2.016 2-4.5 2-2.487 0-4.5-.895-4.5-2 0-1.104 2.013-2 4.5-2 2.484 0 4.5.896 4.5 2" fill-opacity=".2" fill="#1D508D" sketch:type="MSShapeGroup"/><path d="M10.999 0c6.077 0 11.001 4.363 11.001 10.92 0 6.407-5.55 9.158-8.507 13.256-2.417 3.346-2.494 5.824-2.494 5.824s-.018-2.49-2.493-5.824c-3.042-4.098-8.506-6.66-8.506-13.256 0-6.559 4.925-10.92 10.999-10.92m0 7.201c-2.107 0-3.813 1.745-3.813 3.9 0 2.152 1.706 3.899 3.813 3.899 2.103 0 3.815-1.748 3.815-3.899 0-2.155-1.712-3.9-3.815-3.9zm0 0" sketch:type="MSShapeGroup"/></g></svg>