<?xml version="1.0" encoding="UTF-8" standalone="no"?>
<svg width="32px" height="232px" viewBox="0 0 32 232" version="1.1" xmlns="http://www.w3.org/2000/svg" xmlns:xlink="http://www.w3.org/1999/xlink" xmlns:sketch="http://www.bohemiancoding.com/sketch/ns">
    <title>dude-map</title>
    <description>Created with Sketch (http://www.bohemiancoding.com/sketch)</description>
    <defs></defs>
    <g id="Brand" stroke="none" stroke-width="1" fill="none" fill-rule="evenodd" sketch:type="MSPage">
        <path d="M9.72493045,137.812581 C10.0014048,137.521671 10.0440155,137.350034 10.0608616,137.308337 C10.0955448,137.26858 10.1203184,137.295731 10.1371646,137.308337 C10.317517,137.433429 10.4909328,137.829066 10.8684837,137.897915 C11.2054058,137.97743 11.4640431,137.897915 11.4640431,137.897915 C11.4640431,137.897915 11.7722277,137.903733 11.898078,137.861066 C12.0952765,137.787369 12.1656338,137.820339 12.1854527,137.84652 C12.2260816,137.897915 12.2112174,138.016218 12.1329325,138.132582 C11.9476254,138.416704 11.4551245,138.746401 10.5216521,138.458401 C10.0895991,138.323612 9.72493045,137.812581 9.72493045,137.812581 Z M10.4096751,136.141789 C10.3611187,136.13791 10.2669787,136.134032 10.1599563,136.124335 C10.0549159,136.111728 9.86267214,136.07391 9.78934203,135.943001 C9.83492561,135.791728 9.96374877,135.619121 10.0777077,135.529909 C10.2659877,135.358272 10.6534481,135.271969 10.9309134,135.271969 C11.2281976,135.26712 11.8188022,135.36506 12.0496929,135.533788 C12.3400405,135.747122 12.5501214,136.155365 12.4193163,136.340577 C12.387606,136.383244 12.3588685,136.403608 12.2805837,136.369668 C11.9664534,136.123365 11.7216894,136.089425 11.7216894,136.089425 C11.7216894,136.089425 11.635477,136.04191 11.4868348,135.995365 C11.0151439,135.841182 10.4998513,135.901304 10.4096751,136.141789 Z M9.09072415,137.081428 C9.02829446,137.049428 8.80136752,136.901064 8.80334941,136.734275 C8.80533131,136.596578 8.97181046,136.453063 8.98964752,136.446275 C9.00252983,136.445305 9.14027152,136.418153 9.34837046,136.409426 C9.63772709,136.381305 10.5018332,136.443366 10.8902845,136.503487 C11.3163919,136.570396 12.236982,136.821548 12.5739041,136.931124 C13.7184483,137.275368 13.2229746,137.33161 12.4867007,137.276337 C12.5055287,137.284095 11.4917896,137.191973 10.5682267,137.113428 C9.89735529,137.056216 9.57133361,137.007731 9.09072415,137.081428 Z M26.7850801,136.818639 C26.7018405,136.227123 26.4630222,134.617422 26.3143801,134.003602 C26.4204115,133.888208 26.4689679,133.72142 26.4332938,133.62348 C26.3758188,133.46154 26.1706927,133.415964 25.9606119,133.371358 C25.9616028,133.275358 25.9170102,133.206509 25.9170102,133.206509 C26.0388967,132.376447 25.9705214,131.460081 25.8198974,130.901534 C25.6415269,130.243108 25.4294641,129.802865 24.7952578,129.342258 C23.7507993,128.586862 22.2197856,128.488922 21.1148793,128.886499 C20.7076,129.030015 20.2349181,129.217167 19.8286297,129.642865 C19.7642181,129.711713 19.4411693,130.059835 19.4679248,130.435109 C19.2003691,130.281896 18.1420373,129.389773 16.961819,129.060075 C17.2174834,129.020318 17.4820663,128.976681 17.5732335,128.708074 C17.8229522,127.9808 16.2473459,127.575466 15.1989236,127.743224 C14.4993148,127.854739 13.8660994,127.976921 13.1536083,128.286255 C11.9951908,128.78759 10.8536195,129.348076 10.0767168,130.348806 C9.49106688,131.104201 9.06793236,132.162143 9.06793236,132.162143 C9.06793236,132.162143 7.24855302,131.980809 7.31395554,132.007961 C6.9720787,131.990506 6.6728126,131.990506 6.50336061,132.018628 C6.50336061,132.019597 6.47363219,131.833415 6.44588566,131.810142 C6.00194125,131.433899 5.75222251,131.755839 5.67393767,131.948809 C5.65907346,131.9779 5.66105536,131.984688 5.6640282,132.003113 C5.6640282,132.003113 6.13373724,134.454512 6.2794065,135.338878 C6.59452776,137.262761 6.6163286,137.634156 6.69560439,138.120945 C6.29129787,138.161673 5.97914946,138.333309 5.79978798,138.569916 C5.68880188,138.71828 5.54412357,139.024705 5.50250378,139.312706 C5.50250378,139.312706 5.19431915,139.434888 5.08036021,139.726767 C4.95649179,140.043859 4.96640126,140.429799 5.1764821,141.049437 C5.37962631,141.65259 6.01185072,142.569926 6.33985429,142.899623 C6.63812945,143.19926 6.91559471,143.299139 7.30206417,143.276836 C7.41205933,144.36193 7.61718543,146.74933 7.61718543,146.74933 C7.61718543,146.74933 7.91744248,148.930183 7.92338816,148.882668 C8.00563679,149.372366 8.10869532,149.765094 8.19788058,149.776731 C8.16022458,149.958064 8.33364037,150.049216 8.44561742,150.081216 C8.49021005,150.098671 8.87568857,149.983277 9.42269151,149.87467 C9.80916098,149.797094 10.6227288,149.666185 11.1281119,149.608003 C11.1162205,149.706912 10.9685694,150.759036 10.9685694,150.759036 C10.9655965,150.758066 11.0795555,151.278795 11.108293,151.257461 C11.2499984,151.548371 11.5135904,151.526068 11.6800696,151.275886 C11.8515035,151.088734 11.9951908,150.818188 11.9951908,150.818188 C11.9951908,150.818188 12.16167,149.642912 12.1765342,149.500366 C12.1765342,149.500366 13.9969045,149.291881 14.4101295,149.267639 C15.0681186,149.16679 15.4892712,149.026183 14.4101295,148.969941 C13.6907018,148.933092 12.5521033,148.897213 11.4749435,149.031032 C10.8347915,149.111517 9.05108625,149.321942 8.29796626,149.590548 C8.44660837,148.71394 8.44066268,146.791996 8.43967174,146.792966 L8.24247321,144.48993 C8.20382627,144.075869 8.10869532,143.1692 8.11365006,143.16823 C8.50606521,143.122654 8.99262036,143.189563 9.29188646,142.954896 C9.69421109,142.643623 9.72493045,142.183985 9.73483993,141.768954 C9.74177656,141.495499 9.71502098,141.223983 9.67736498,140.952467 C9.6714193,140.91271 9.66547361,140.873922 9.65952793,140.835134 L9.71105719,140.852588 C10.4076932,141.014528 11.5542193,141.278286 12.0705028,141.406287 L12.4896736,141.509075 L13.2309022,141.655499 C13.5975527,141.725318 13.9542938,141.800954 13.9265472,141.787378 C14.2287862,141.839742 14.4824687,141.870772 14.5478712,141.834894 C14.6132738,141.801924 14.4903963,141.701075 14.0296058,141.508105 C13.4915213,141.26762 12.6947997,141.009679 12.6947997,141.009679 L12.2022988,140.888467 C11.654305,140.752709 10.5226431,140.49186 9.83789845,140.33186 L9.5188134,140.205799 C9.47422077,140.019617 9.2948593,139.708343 9.19279172,139.574525 C8.96685573,139.282645 8.59723237,139.162402 8.25436458,139.132342 C8.00464585,139.110039 7.75096332,139.060584 7.65583238,139.098402 C7.78168269,138.968463 7.63304059,138.513674 7.4992627,138.389552 L7.55673764,138.389552 C7.37539428,136.854518 7.09297428,135.238999 7.09297428,135.238999 C6.97802439,134.450634 6.54398945,132.223234 6.54398945,132.223234 C6.94036839,132.402629 9.27206751,132.980569 9.27206751,132.980569 C14.4487765,133.922147 17.5900796,134.168451 19.3995495,134.212088 C21.2080284,134.261542 22.9550686,134.149057 24.3721233,133.965784 C24.6456248,133.930875 24.8874159,133.897905 25.0905601,133.864935 C25.0301123,134.089905 24.9438999,134.401179 24.8368776,134.770634 C24.6931902,135.270999 23.9460159,137.820339 23.8479121,138.20337 L23.6903515,138.827856 C23.6903515,138.827856 23.32271,140.819618 23.3177553,141.340347 C23.2771265,141.391741 23.2137058,141.536226 23.2166787,141.55562 C23.2226244,141.583741 23.3286557,142.133561 23.5635103,142.884108 C23.8211566,143.742292 24.8021944,146.315874 24.8021944,146.315874 C24.8021944,146.316844 25.8803452,148.809941 26.053761,149.000002 C25.9170102,148.957335 25.6752191,148.912729 25.3016319,148.863274 C24.4315801,148.729455 23.1899231,148.605334 23.1889322,148.605334 C23.1889322,148.605334 20.0981674,148.509334 19.1310027,148.515152 C17.7615135,148.524849 15.8816864,148.613092 15.8489851,148.638304 C15.3485567,149.032002 15.7013339,149.342305 15.8985325,149.434427 C15.926279,149.452851 16.4891371,149.383033 17.2650489,149.348124 C18.016187,149.314184 20.1923074,149.320972 20.3032935,149.322911 C20.4449989,149.897943 20.5609398,150.303277 20.5599488,150.303277 C20.5599488,150.303277 21.1327164,151.572614 21.1346983,151.541583 C21.4260368,152.043888 21.7629589,152.310555 21.7183663,151.388371 C21.7223301,150.837582 21.6281901,150.087034 21.6281901,150.087034 C21.630172,150.087034 21.5459414,149.791276 21.4319825,149.350063 C21.8085425,149.36073 23.0541633,149.401457 23.0541633,149.401457 C23.0541633,149.401457 24.9567822,149.348124 25.2649669,149.306427 C25.7277393,149.267639 26.1082631,149.19879 26.185557,149.121214 C26.204385,149.10182 26.2360953,148.77891 26.1221363,148.171878 C25.9576391,147.299149 25.6028799,146.13454 25.6048618,146.13454 C25.6048618,146.13454 25.0221848,144.605324 24.8329138,144.080717 C25.6653096,143.647262 26.1736656,142.965563 26.3778007,142.61938 C26.7147228,142.045318 26.90003,141.259862 26.955523,140.679982 C27.0615544,139.549312 26.9674144,138.113188 26.7850801,136.818639 C26.7850801,136.818639 26.9674144,138.113188 26.7850801,136.818639 Z M6.77785302,138.651371 C7.18711428,138.634886 7.34368396,138.839493 7.45169722,138.971372 C7.49232607,139.020826 7.5725928,139.121675 7.64394101,139.10616 C7.59736648,139.207978 8.11563195,139.393191 8.19688963,139.424221 C8.415889,139.505676 8.65074352,139.594888 8.78253952,139.795616 C8.9410911,140.035132 8.99361131,140.350284 9.06495952,140.605315 C9.1442353,140.886528 9.16009046,141.17065 9.17990941,141.463499 C9.20567404,141.848469 9.24333004,142.58835 8.75182015,142.594168 C8.641825,142.597077 7.88275932,142.637805 7.47547996,142.725078 C7.36350291,142.75029 7.12567554,142.772593 6.97108776,142.707623 C6.81352713,142.642653 6.70155008,142.498168 6.59155492,142.375986 C6.37651934,142.13647 5.96725809,141.468347 5.89491893,141.336468 C5.73141262,141.035861 5.5887162,140.656709 5.55304209,140.304708 C5.53916883,140.171859 5.53124125,140.030283 5.59862567,139.909071 C5.67988336,139.763616 5.88005472,139.81501 6.0009503,139.726767 C6.02275114,139.710282 6.01482356,139.573555 6.04257009,139.393191 C6.09905409,139.032463 6.27544271,138.670765 6.77785302,138.651371 C6.77785302,138.651371 6.27544271,138.670765 6.77785302,138.651371 Z M19.4897257,133.413055 C17.752595,133.375237 15.9540255,133.190994 14.3328356,132.967963 C12.7106548,132.743963 11.2618898,132.49669 10.2154494,132.326022 L10.1817572,132.322144 C10.4948965,131.613293 10.9398319,130.780322 11.6562868,130.293533 C12.3628323,129.812562 13.2507211,129.33353 14.1068997,129.07656 C14.8421826,128.855469 15.9877177,128.538377 16.7586748,129.031954 C16.6575981,129.037772 16.6684986,129.134742 16.8042584,129.268561 C17.2234291,129.679713 17.9111465,130.182017 18.7356147,131.018868 C19.2895543,131.584202 20.3023025,132.681902 20.6857991,133.413055 C20.2884292,133.418874 19.897005,133.421783 19.4897257,133.413055 C19.4897257,133.413055 19.897005,133.421783 19.4897257,133.413055 Z M21.874936,133.381055 C21.6430543,132.887478 21.3427972,132.405538 21.0583953,132.025416 C21.0583953,132.025416 20.6828263,131.503717 20.2468095,131.094504 C20.5867044,131.093535 21.1128974,130.605776 21.4210821,130.375957 C21.5102673,130.308078 21.6034164,130.245048 21.7005292,130.187836 C22.0879896,129.956077 22.6320197,129.793168 23.530809,130.273169 C23.3524385,130.315836 22.5606715,130.632927 22.2782515,131.01111 C22.0315056,131.344687 22.0879896,131.750991 22.3575273,132.116567 C22.7697614,132.676084 23.3266738,132.916569 23.7071976,132.852569 C23.8716949,132.824448 24.1669972,132.59075 24.2046532,132.552932 C24.246273,132.696448 24.2878928,132.887478 24.3711323,133.156085 C23.7309804,133.242388 22.7330964,133.337419 21.874936,133.381055 C21.874936,133.381055 22.7330964,133.337419 21.874936,133.381055 Z M24.4880641,133.1396 C24.5207654,132.706145 24.5267111,132.245537 24.5138288,132.090386 L24.4989646,131.797536 C24.4989646,131.797536 24.227445,131.990506 24.1214136,132.069052 C24.0411469,132.128204 23.7022429,132.358023 23.6130576,132.361901 C23.4267595,132.36578 23.0759642,132.161174 22.8470553,131.88287 C22.7747162,131.795597 22.551753,131.464929 22.5765267,131.314626 C22.6260741,131.009171 23.2959545,130.4002 23.5575646,130.285775 C23.623958,130.314866 23.6368404,130.319715 23.6279218,130.30323 C23.6229671,130.295472 23.6130576,130.281896 23.6011663,130.267351 C23.642786,130.249896 23.6754873,130.23923 23.6903515,130.235351 C23.6764783,130.23826 23.5962115,130.257654 23.5942296,130.257654 C23.5744107,130.233411 23.4505423,130.102502 23.2880269,129.988077 C23.003625,129.78735 22.4447307,129.501288 21.7322395,129.735956 C21.2298292,129.899835 20.5926501,130.371109 20.4707636,130.452563 C20.2963568,130.569897 20.1387962,130.612564 20.047629,130.438988 C19.992136,130.317775 20.1278958,130.106381 20.3815783,129.869774 C20.7363375,129.537167 21.3259511,129.283106 21.6390905,129.196803 C23.0620909,128.808923 24.1055585,129.337409 24.3651867,129.457652 C25.1103791,129.805774 25.337306,130.314866 25.4344189,130.524321 C25.7366578,131.175959 25.9249378,132.20578 25.8823271,133.151237 C25.8169245,133.070751 25.7009837,132.996085 25.6177441,132.969903 C25.5781062,132.974751 25.1371347,133.053297 24.4880641,133.1396 C24.4880641,133.1396 25.1371347,133.053297 24.4880641,133.1396 Z M26.1558285,140.514163 C26.0894351,141.113437 25.9616028,141.678772 25.7227845,142.146167 C25.48793,142.615502 25.1391165,142.984957 24.7635475,143.273927 C24.7050816,143.317564 24.6485976,143.358291 24.5911227,143.399019 C24.4731999,143.045078 24.132314,142.060834 24.0233098,141.401438 L24.0223189,141.400468 C24.4286073,140.996104 24.6357153,139.933313 24.6872446,139.583252 C24.7645384,139.076099 24.792285,138.210158 24.7675113,137.918278 C24.8586784,137.579853 24.9706555,137.181307 25.092542,136.773063 C25.2768582,136.145668 25.4809934,135.490151 25.6266626,134.989786 C25.695038,134.75124 25.7564767,134.537907 25.8060241,134.353664 C25.9249378,134.342997 26.1389824,134.174269 26.2014121,134.10833 C26.1756475,134.564088 26.1954664,136.252335 26.2073578,136.839003 C26.2162763,137.423732 26.2311405,138.04046 26.2321315,138.664947 C26.2331224,139.284584 26.222222,139.916828 26.1558285,140.514163 Z M23.0333534,136.940821 C23.1403757,136.499608 22.6894947,136.191244 22.1306004,136.135971 C21.9175467,136.115607 21.4498195,136.097183 21.0891147,136.153426 C21.0821781,136.153426 21.0415492,136.251365 21.0346126,136.287244 C20.9563278,136.312456 20.8552511,136.389062 20.8552511,136.389062 C20.8552511,136.389062 20.9622734,136.892336 21.1119065,137.350034 C21.2585667,137.811611 21.4280187,138.254764 21.4280187,138.254764 C21.4260368,138.255734 21.7163844,138.762886 21.7193572,138.735735 C21.8640355,138.927735 22.0305147,139.022766 22.005741,138.637795 C22.0037591,138.405067 21.9472751,138.098642 21.9472751,138.098642 C21.9472751,138.098642 21.8967368,137.961915 21.8273705,137.765066 C22.4635587,137.637065 22.9431772,137.310277 23.0333534,136.940821 C23.0333534,136.940821 22.9431772,137.310277 23.0333534,136.940821 Z M21.7362033,137.504217 C21.7035021,137.409186 21.5211678,136.852579 21.478557,136.656699 C21.5855793,136.649912 21.9234924,136.636336 22.1652835,136.679972 C22.2832063,136.701306 22.4734682,136.746881 22.4893233,136.81476 C22.5031966,136.882639 22.156365,137.145428 22.0166414,137.270519 C21.8878183,137.385913 21.7441309,137.498398 21.7362033,137.504217 Z M20.4519356,136.615972 C20.2448276,136.46179 20.0238463,136.487972 19.9376339,136.516093 C19.9306973,136.519002 19.8256568,137.0087 19.727553,137.479004 C19.6264764,137.951248 19.5422459,138.424461 19.5432368,138.424461 C19.540264,138.424461 19.5372912,139.016947 19.5551282,138.994644 C19.5858476,139.237069 19.6859333,139.3961 19.8534034,139.043129 C19.9673623,138.838523 20.0743846,138.543734 20.0743846,138.543734 C20.0743846,138.543734 20.0912307,138.451613 20.1169954,138.310037 C20.1219501,138.310037 20.3657231,138.308097 20.3657231,138.308097 C20.368696,138.310037 20.5104015,138.182036 20.499501,138.1704 C20.5044558,138.160703 20.5876953,138.324582 20.5876953,138.324582 C20.5867044,138.326522 20.9047985,138.708583 20.9057894,138.684341 C21.0593863,138.822038 21.2268564,138.871493 21.1733452,138.545674 C21.1535263,138.346885 21.0792052,138.094763 21.0792052,138.094763 C21.0792052,138.094763 20.8869614,137.747611 20.7274189,137.389792 C20.5847225,137.07561 20.4836459,136.749791 20.462836,136.672215 C20.4767092,136.627608 20.4558994,136.619851 20.4519356,136.615972 C20.4519356,136.615972 20.4558994,136.619851 20.4519356,136.615972 Z M20.2220358,137.780581 C20.2299634,137.736944 20.2388819,137.695247 20.2487914,137.649671 C20.2686103,137.695247 20.2884292,137.736944 20.3082482,137.778641 C20.2904111,137.779611 20.2587008,137.780581 20.2220358,137.780581 Z M17.338379,136.451123 C17.1104611,136.326032 16.9073169,136.376456 16.8270501,136.418153 C16.8131769,136.423972 16.8131769,136.425911 16.8131769,136.425911 L16.6833628,138.375007 C16.6823718,138.375976 16.7457925,138.965553 16.7606567,138.941311 C16.8151588,139.177918 16.9301087,139.33113 17.0619047,138.960705 C17.1540628,138.742523 17.2264019,138.431249 17.2264019,138.431249 C17.2264019,138.431249 17.243248,138.119006 17.2670308,137.744702 C17.4652202,138.151006 17.676292,138.376946 17.9329474,138.656219 C17.9379021,138.668825 17.9448388,138.651371 17.9507844,138.646522 L17.9686215,138.625189 C18.297616,138.264461 18.5156244,137.937672 18.7068773,137.537186 C18.7415604,137.903733 18.7722798,138.244097 18.7702979,138.244097 C18.7732707,138.244097 18.8882206,138.68628 18.8961482,138.668825 C18.9645236,138.844341 19.0864101,138.969432 19.1983872,138.666886 C19.2786539,138.486522 19.3163099,138.227612 19.3163099,138.227612 C19.3173008,138.227612 19.2836086,137.838763 19.2489255,137.46058 C19.2122604,137.079488 19.2043328,136.708093 19.2073057,136.699366 C19.2043328,136.694518 19.1894686,136.6887 19.1855048,136.68579 C18.9476775,136.604336 18.749488,136.65379 18.6731851,136.693548 C18.6612937,136.697427 18.6612937,136.699366 18.6612937,136.699366 C18.6593118,136.710033 18.6632756,136.850639 18.6702122,137.035852 C18.6712032,137.043609 18.5641809,137.176458 18.5384162,137.210398 C18.4888689,137.276337 18.1826661,137.689429 18.0023137,137.866884 C17.9527663,137.916339 17.9488025,137.841672 17.8804272,137.731126 C17.8160156,137.624459 17.6485455,137.301549 17.5880977,137.146398 C17.544496,137.037791 17.413691,136.710033 17.3770259,136.600457 C17.375044,136.592699 17.3601798,136.581063 17.3502703,136.575245 L17.3581979,136.468578 C17.356216,136.463729 17.3413518,136.453063 17.338379,136.451123 Z M15.6656598,142.358531 C15.6844878,142.358531 16.0541112,142.375986 16.585259,142.371137 C17.2036101,142.368228 18.0231236,142.328471 18.7990354,142.238288 C19.5749472,142.151985 20.3062663,142.019136 20.7591292,141.915379 C21.026685,141.857197 21.1882094,141.817439 21.1882094,141.817439 C21.1882094,141.817439 22.3248261,141.452832 22.5834633,141.293801 C22.8648924,141.160953 23.0829008,141.021316 23.1096564,140.954407 C23.1413667,140.869073 22.8975936,140.924346 22.4159932,141.026164 C21.968085,141.121195 19.728544,141.628348 18.712823,141.710772 C17.959703,141.770893 17.0480314,141.862045 15.6864697,141.824227 C15.6745784,141.826166 15.6488137,141.838772 15.643859,141.842651 C15.3495476,142.062773 15.5100811,142.263501 15.6299857,142.343986 C15.6468318,142.358531 15.6527775,142.358531 15.6656598,142.358531 Z M15.2722537,143.903262 C15.2593714,143.386412 15.2385615,143.029563 15.2385615,143.009199 C15.2345977,142.997563 15.2187426,142.973321 15.2137878,142.968472 C14.9620872,142.698896 14.7747982,142.884108 14.702459,143.003381 C14.6915586,143.020836 14.6915586,143.025684 14.6925495,143.037321 C14.6935405,143.056715 14.7123685,143.406776 14.7262417,143.918777 C14.7460607,144.681931 14.8094813,146.962663 14.8094813,146.962663 C14.8094813,146.962663 14.8511011,147.338907 14.9075851,147.706423 C14.9640691,148.074908 15.0403721,148.432727 15.042354,148.401697 C15.1156841,148.699395 15.210815,148.935032 15.2722537,148.975759 C15.3376563,149.014547 15.3564843,148.860365 15.3445929,148.378424 C15.3445929,147.809211 15.3574752,147.003391 15.3574752,147.003391 C15.2950455,146.019146 15.2930636,144.666415 15.2722537,143.903262 Z M15.6131396,137.776702 C15.6953883,136.914639 16.1284323,134.630998 16.1314051,134.612573 C16.1314051,134.599967 16.1214956,134.573785 16.1175318,134.567967 C15.9431251,134.247966 15.7142163,134.374997 15.6141306,134.476815 C15.5982754,134.492331 15.5972845,134.496209 15.5953026,134.509785 C15.5913388,134.52724 15.1820775,136.656699 15.0869466,137.615732 C14.9977613,138.511734 14.9135308,140.048708 14.9135308,140.048708 C14.9155127,140.049677 14.9224493,141.548832 14.9363226,141.487741 C14.9630782,142.089924 15.0592001,142.484592 15.2365796,141.52459 C15.3554933,140.958285 15.4535971,140.147617 15.4545881,140.147617 C15.4545881,140.147617 15.5388186,138.555371 15.6131396,137.776702 Z M22.21384,130.813292 C22.1444736,130.88408 21.7946692,130.950989 21.7946692,130.950989 C21.7946692,130.950989 21.2377568,131.162383 21.1495625,131.217656 C21.0564134,131.273899 20.7472379,131.395111 20.7472379,131.395111 C20.7472379,131.395111 20.9374998,131.519233 21.3745075,131.394141 C21.5122492,131.354384 21.6420633,131.296202 21.7362033,131.246747 C21.9353837,131.14202 22.1206909,130.940322 22.21384,130.813292 Z M19.8375482,128.708074 L20.0991583,128.606256 C20.1001493,128.608195 20.7353465,128.30468 21.0564134,128.27074 C21.0504678,128.272679 20.4152705,128.190255 20.0060093,128.358013 C19.6690872,128.494741 19.4154046,128.742984 19.3282013,128.890378 C19.3341469,128.881651 19.6284583,128.801166 19.8375482,128.708074 Z M16.9875836,121.681633 C16.9747013,121.697149 16.9459638,121.734967 16.9092988,121.740785 C16.4603996,121.874604 16.2562645,121.712664 16.1829344,121.624421 C16.1115862,121.536179 16.0055548,121.257875 16.0739302,121.089147 C16.0808668,121.07848 16.3672506,120.739086 16.5218384,120.612055 C17.1045154,120.159206 17.9834857,119.851811 18.8039901,120.073872 C19.1676678,120.181509 20.0654661,120.5306 20.0912307,121.683573 C20.105104,122.093756 19.9842084,122.484544 19.7889918,122.726969 C19.5818838,123.029515 19.0903739,123.384425 18.4403124,123.569638 C18.2014941,123.654971 17.5712516,123.841154 17.4781026,123.862487 C17.2957682,123.907093 17.2234291,123.895457 17.2363114,123.822729 C17.2482028,123.638487 17.9527663,123.182728 18.203476,123.024667 C18.8198453,122.609636 19.2806358,122.326483 19.0517269,121.600179 C18.9883063,121.429512 18.8703836,121.224905 18.5701265,121.114359 C17.5335956,120.906844 16.9965021,121.670967 16.9875836,121.681633 Z M16.5376935,124.91655 C16.5713857,124.656671 17.0064116,124.483095 17.2075739,124.580065 C17.4077453,124.678004 17.619808,125.228793 17.4612564,125.489643 C17.3096415,125.72431 16.8161497,125.75437 16.6754352,125.509036 C16.5684129,125.325763 16.5198565,125.100793 16.5376935,124.91655 Z M16.5376935,124.91655" id="dude-map--white" fill="#FFFFFF" sketch:type="MSShapeGroup"></path>
        <path d="M9.72493045,57.812581 C10.0014048,57.5216712 10.0440155,57.3500344 10.0608616,57.3083373 C10.0955448,57.2685797 10.1203184,57.2957313 10.1371646,57.3083373 C10.317517,57.4334286 10.4909328,57.8290659 10.8684837,57.8979145 C11.2054058,57.9774298 11.4640431,57.8979145 11.4640431,57.8979145 C11.4640431,57.8979145 11.7722277,57.9037327 11.898078,57.8610659 C12.0952765,57.7873688 12.1656338,57.8203386 12.1854527,57.8465204 C12.2260816,57.8979145 12.2112174,58.0162178 12.1329325,58.1325817 C11.9476254,58.4167036 11.4551245,58.7464014 10.5216521,58.4584007 C10.0895991,58.3236125 9.72493045,57.812581 9.72493045,57.812581 Z M10.4096751,56.1417891 C10.3611187,56.1379103 10.2669787,56.1340315 10.1599563,56.1243345 C10.0549159,56.1117284 9.86267214,56.0739102 9.78934203,55.9430008 C9.83492561,55.7917277 9.96374877,55.6191212 10.0777077,55.5299089 C10.2659877,55.3582721 10.6534481,55.2719689 10.9309134,55.2719689 C11.2281976,55.2671204 11.8188022,55.36506 12.0496929,55.5337877 C12.3400405,55.7471215 12.5501214,56.1553649 12.4193163,56.3405775 C12.387606,56.3832442 12.3588685,56.4036079 12.2805837,56.3696684 C11.9664534,56.1233648 11.7216894,56.0894253 11.7216894,56.0894253 C11.7216894,56.0894253 11.635477,56.0419101 11.4868348,55.9953645 C11.0151439,55.8411823 10.4998513,55.9013037 10.4096751,56.1417891 Z M9.09072415,57.0814277 C9.02829446,57.0494276 8.80136752,56.9010636 8.80334941,56.7342754 C8.80533131,56.5965781 8.97181046,56.4530626 8.98964752,56.4462747 C9.00252983,56.445305 9.14027152,56.4181534 9.34837046,56.4094261 C9.63772709,56.3813048 10.5018332,56.4433656 10.8902845,56.5034869 C11.3163919,56.5703962 12.236982,56.8215483 12.5739041,56.9311243 C13.7184483,57.2753676 13.2229746,57.3316101 12.4867007,57.2763373 C12.5055287,57.2840949 11.4917896,57.1919734 10.5682267,57.1134278 C9.89735529,57.0562155 9.57133361,57.0077306 9.09072415,57.0814277 Z M26.7850801,56.8186392 C26.7018405,56.2271226 26.4630222,54.6174218 26.3143801,54.0036022 C26.4204115,53.888208 26.4689679,53.7214197 26.4332938,53.6234801 C26.3758188,53.4615403 26.1706927,53.4159644 25.9606119,53.3713583 C25.9616028,53.275358 25.9170102,53.2065094 25.9170102,53.2065094 C26.0388967,52.3764468 25.9705214,51.460081 25.8198974,50.9015342 C25.6415269,50.2431084 25.4294641,49.8028649 24.7952578,49.3422578 C23.7507993,48.586862 22.2197856,48.4889224 21.1148793,48.8864991 C20.7076,49.0300146 20.2349181,49.2171665 19.8286297,49.6428645 C19.7642181,49.7117132 19.4411693,50.0598352 19.4679248,50.4351088 C19.2003691,50.2818964 18.1420373,49.389773 16.961819,49.0600753 C17.2174834,49.0203176 17.4820663,48.9766811 17.5732335,48.7080744 C17.8229522,47.9808 16.2473459,47.5754657 15.1989236,47.7432236 C14.4993148,47.8547391 13.8660994,47.9769212 13.1536083,48.2862552 C11.9951908,48.7875898 10.8536195,49.348076 10.0767168,50.3488056 C9.49106688,51.1042013 9.06793236,52.1621433 9.06793236,52.1621433 C9.06793236,52.1621433 7.24855302,51.9808095 7.31395554,52.0079611 C6.9720787,51.9905065 6.6728126,51.9905065 6.50336061,52.0186278 C6.50336061,52.0195975 6.47363219,51.8334152 6.44588566,51.8101424 C6.00194125,51.4338991 5.75222251,51.7558393 5.67393767,51.9488094 C5.65907346,51.9779004 5.66105536,51.9846883 5.6640282,52.0031126 C5.6640282,52.0031126 6.13373724,54.4545124 6.2794065,55.3388781 C6.59452776,57.2627615 6.6163286,57.6341563 6.69560439,58.1209453 C6.29129787,58.1616727 5.97914946,58.3333095 5.79978798,58.5699161 C5.68880188,58.7182801 5.54412357,59.0247051 5.50250378,59.3127058 C5.50250378,59.3127058 5.19431915,59.4348879 5.08036021,59.7267674 C4.95649179,60.043859 4.96640126,60.4297993 5.1764821,61.0494372 C5.37962631,61.6525901 6.01185072,62.5699256 6.33985429,62.8996234 C6.63812945,63.1992605 6.91559471,63.2991395 7.30206417,63.2768364 C7.41205933,64.3619299 7.61718543,66.7493295 7.61718543,66.7493295 C7.61718543,66.7493295 7.91744248,68.9301832 7.92338816,68.882668 C8.00563679,69.3723661 8.10869532,69.7650943 8.19788058,69.7767307 C8.16022458,69.9580645 8.33364037,70.0492162 8.44561742,70.0812163 C8.49021005,70.0986709 8.87568857,69.9832766 9.42269151,69.8746703 C9.80916098,69.7970944 10.6227288,69.666185 11.1281119,69.608003 C11.1162205,69.7069123 10.9685694,70.7590361 10.9685694,70.7590361 C10.9655965,70.7580664 11.0795555,71.2787949 11.108293,71.2574615 C11.2499984,71.5483713 11.5135904,71.5260682 11.6800696,71.2758858 C11.8515035,71.0887338 11.9951908,70.8181877 11.9951908,70.8181877 C11.9951908,70.8181877 12.16167,69.6429122 12.1765342,69.5003664 C12.1765342,69.5003664 13.9969045,69.2918811 14.4101295,69.2676386 C15.0681186,69.1667898 15.4892712,69.0261835 14.4101295,68.9699409 C13.6907018,68.9330923 12.5521033,68.8972134 11.4749435,69.0310319 C10.8347915,69.111517 9.05108625,69.3219417 8.29796626,69.5905484 C8.44660837,68.7139403 8.44066268,66.7919963 8.43967174,66.792966 L8.24247321,64.4899302 C8.20382627,64.0758686 8.10869532,63.1691998 8.11365006,63.1682301 C8.50606521,63.1226542 8.99262036,63.1895635 9.29188646,62.9548963 C9.69421109,62.6436228 9.72493045,62.1839853 9.73483993,61.768954 C9.74177656,61.4954988 9.71502098,61.223983 9.67736498,60.9524672 C9.6714193,60.9127096 9.66547361,60.8739216 9.65952793,60.8351336 L9.71105719,60.8525882 C10.4076932,61.014528 11.5542193,61.2782862 12.0705028,61.4062865 L12.4896736,61.5090746 L13.2309022,61.6554992 C13.5975527,61.7253176 13.9542938,61.8009541 13.9265472,61.7873783 C14.2287862,61.8397421 14.4824687,61.8707725 14.5478712,61.8348936 C14.6132738,61.8019238 14.4903963,61.7010751 14.0296058,61.5081049 C13.4915213,61.2676195 12.6947997,61.0096795 12.6947997,61.0096795 L12.2022988,60.8884671 C11.654305,60.7527092 10.5226431,60.4918601 9.83789845,60.3318597 L9.5188134,60.2057988 C9.47422077,60.0196165 9.2948593,59.7083431 9.19279172,59.5745246 C8.96685573,59.2826451 8.59723237,59.1624024 8.25436458,59.1323417 C8.00464585,59.1100386 7.75096332,59.0605839 7.65583238,59.0984022 C7.78168269,58.9684625 7.63304059,58.5136736 7.4992627,58.389552 L7.55673764,58.389552 C7.37539428,56.8545181 7.09297428,55.2389991 7.09297428,55.2389991 C6.97802439,54.4506336 6.54398945,52.2232343 6.54398945,52.2232343 C6.94036839,52.4026287 9.27206751,52.9805695 9.27206751,52.9805695 C14.4487765,53.9221475 17.5900796,54.1684511 19.3995495,54.2120875 C21.2080284,54.2615422 22.9550686,54.1490571 24.3721233,53.9657839 C24.6456248,53.9308748 24.8874159,53.897905 25.0905601,53.8649352 C25.0301123,54.0899054 24.9438999,54.4011789 24.8368776,54.7706343 C24.6931902,55.2709992 23.9460159,57.8203386 23.8479121,58.2033698 L23.6903515,58.8278561 C23.6903515,58.8278561 23.32271,60.8196184 23.3177553,61.340347 C23.2771265,61.391741 23.2137058,61.5362262 23.2166787,61.5556202 C23.2226244,61.5837415 23.3286557,62.133561 23.5635103,62.8841082 C23.8211566,63.7422921 24.8021944,66.315874 24.8021944,66.315874 C24.8021944,66.3168437 25.8803452,68.8099405 26.053761,69.0000016 C25.9170102,68.9573348 25.6752191,68.9127286 25.3016319,68.863274 C24.4315801,68.7294555 23.1899231,68.605334 23.1889322,68.605334 C23.1889322,68.605334 20.0981674,68.5093337 19.1310027,68.5151519 C17.7615135,68.5248489 15.8816864,68.6130916 15.8489851,68.6383037 C15.3485567,69.0320016 15.7013339,69.3423054 15.8985325,69.4344268 C15.926279,69.4528511 16.4891371,69.3830328 17.2650489,69.3481236 C18.016187,69.3141841 20.1923074,69.320972 20.3032935,69.3229114 C20.4449989,69.8979431 20.5609398,70.3032774 20.5599488,70.3032774 C20.5599488,70.3032774 21.1327164,71.5726138 21.1346983,71.5415834 C21.4260368,72.0438876 21.7629589,72.3105549 21.7183663,71.3883709 C21.7223301,70.8375817 21.6281901,70.0870345 21.6281901,70.0870345 C21.630172,70.0870345 21.5459414,69.7912762 21.4319825,69.350063 C21.8085425,69.3607297 23.0541633,69.4014571 23.0541633,69.4014571 C23.0541633,69.4014571 24.9567822,69.3481236 25.2649669,69.3064265 C25.7277393,69.2676386 26.1082631,69.1987899 26.185557,69.121214 C26.204385,69.10182 26.2360953,68.7789101 26.1221363,68.1718784 C25.9576391,67.299149 25.6028799,66.1345402 25.6048618,66.1345402 C25.6048618,66.1345402 25.0221848,64.6053244 24.8329138,64.0807171 C25.6653096,63.6472615 26.1736656,62.9655629 26.3778007,62.6193803 C26.7147228,62.0453183 26.90003,61.2598619 26.955523,60.6799817 C27.0615544,59.5493124 26.9674144,58.1131877 26.7850801,56.8186392 C26.7850801,56.8186392 26.9674144,58.1131877 26.7850801,56.8186392 Z M6.77785302,58.6513708 C7.18711428,58.634886 7.34368396,58.8394925 7.45169722,58.9713716 C7.49232607,59.0208263 7.5725928,59.121675 7.64394101,59.1061598 C7.59736648,59.2079782 8.11563195,59.3931908 8.19688963,59.4242212 C8.415889,59.5056759 8.65074352,59.5948882 8.78253952,59.795616 C8.9410911,60.0351317 8.99361131,60.350284 9.06495952,60.6053149 C9.1442353,60.8865277 9.16009046,61.1706496 9.17990941,61.4634988 C9.20567404,61.8484694 9.24333004,62.5883499 8.75182015,62.5941681 C8.641825,62.5970772 7.88275932,62.6378046 7.47547996,62.7250775 C7.36350291,62.7502897 7.12567554,62.7725928 6.97108776,62.7076229 C6.81352713,62.6426531 6.70155008,62.4981679 6.59155492,62.3759858 C6.37651934,62.1364701 5.96725809,61.4683473 5.89491893,61.3364682 C5.73141262,61.0358614 5.5887162,60.656709 5.55304209,60.3047081 C5.53916883,60.1718593 5.53124125,60.0302832 5.59862567,59.9090708 C5.67988336,59.7636159 5.88005472,59.81501 6.0009503,59.7267674 C6.02275114,59.7102825 6.01482356,59.5735549 6.04257009,59.3931908 C6.09905409,59.0324627 6.27544271,58.6707648 6.77785302,58.6513708 C6.77785302,58.6513708 6.27544271,58.6707648 6.77785302,58.6513708 Z M19.4897257,53.4130553 C17.752595,53.3752371 15.9540255,53.1909942 14.3328356,52.9679634 C12.7106548,52.7439628 11.2618898,52.4966895 10.2154494,52.3260224 L10.1817572,52.3221436 C10.4948965,51.6132935 10.9398319,50.7803218 11.6562868,50.2935327 C12.3628323,49.8125619 13.2507211,49.3335305 14.1068997,49.0765602 C14.8421826,48.8554687 15.9877177,48.5383771 16.7586748,49.031954 C16.6575981,49.0377722 16.6684986,49.1347421 16.8042584,49.2685606 C17.2234291,49.6797131 17.9111465,50.1820173 18.7356147,51.0188678 C19.2895543,51.5842025 20.3023025,52.6819021 20.6857991,53.4130553 C20.2884292,53.4188735 19.897005,53.4217826 19.4897257,53.4130553 C19.4897257,53.4130553 19.897005,53.4217826 19.4897257,53.4130553 Z M21.874936,53.3810553 C21.6430543,52.8874783 21.3427972,52.4055378 21.0583953,52.0254157 C21.0583953,52.0254157 20.6828263,51.5037175 20.2468095,51.0945044 C20.5867044,51.0935347 21.1128974,50.6057759 21.4210821,50.3759572 C21.5102673,50.3080782 21.6034164,50.2450478 21.7005292,50.1878355 C22.0879896,49.9560774 22.6320197,49.7931679 23.530809,50.2731691 C23.3524385,50.3158358 22.5606715,50.6329275 22.2782515,51.0111102 C22.0315056,51.3446868 22.0879896,51.7509908 22.3575273,52.1165674 C22.7697614,52.6760839 23.3266738,52.9165693 23.7071976,52.8525692 C23.8716949,52.8244479 24.1669972,52.5907503 24.2046532,52.5529321 C24.246273,52.6964476 24.2878928,52.8874783 24.3711323,53.156085 C23.7309804,53.2423883 22.7330964,53.3374188 21.874936,53.3810553 C21.874936,53.3810553 22.7330964,53.3374188 21.874936,53.3810553 Z M24.4880641,53.1396001 C24.5207654,52.7061446 24.5267111,52.2455374 24.5138288,52.0903855 L24.4989646,51.7975363 C24.4989646,51.7975363 24.227445,51.9905065 24.1214136,52.0690521 C24.0411469,52.1282038 23.7022429,52.3580225 23.6130576,52.3619013 C23.4267595,52.3657801 23.0759642,52.1611736 22.8470553,51.8828699 C22.7747162,51.7955969 22.551753,51.4649295 22.5765267,51.3146261 C22.6260741,51.0091708 23.2959545,50.4001997 23.5575646,50.2857752 C23.623958,50.3148661 23.6368404,50.3197146 23.6279218,50.3032297 C23.6229671,50.2954721 23.6130576,50.2818964 23.6011663,50.2673509 C23.642786,50.2498963 23.6754873,50.2392296 23.6903515,50.2353508 C23.6764783,50.2382599 23.5962115,50.2576539 23.5942296,50.2576539 C23.5744107,50.2334114 23.4505423,50.102502 23.2880269,49.9880775 C23.003625,49.7873497 22.4447307,49.5012884 21.7322395,49.7359557 C21.2298292,49.8998348 20.5926501,50.3711087 20.4707636,50.4525634 C20.2963568,50.569897 20.1387962,50.6125638 20.047629,50.4389876 C19.992136,50.3177752 20.1278958,50.1063808 20.3815783,49.8697742 C20.7363375,49.5371673 21.3259511,49.2831061 21.6390905,49.1968029 C23.0620909,48.8089232 24.1055585,49.3374093 24.3651867,49.457652 C25.1103791,49.805774 25.337306,50.3148661 25.4344189,50.5243212 C25.7366578,51.1759591 25.9249378,52.2057797 25.8823271,53.1512365 C25.8169245,53.0707515 25.7009837,52.9960846 25.6177441,52.9699028 C25.5781062,52.9747513 25.1371347,53.0532969 24.4880641,53.1396001 C24.4880641,53.1396001 25.1371347,53.0532969 24.4880641,53.1396001 Z M26.1558285,60.5141632 C26.0894351,61.1134373 25.9616028,61.678772 25.7227845,62.1461671 C25.48793,62.6155015 25.1391165,62.9849569 24.7635475,63.2739273 C24.7050816,63.3175638 24.6485976,63.3582912 24.5911227,63.3990185 C24.4731999,63.0450783 24.132314,62.0608335 24.0233098,61.401438 L24.0223189,61.4004683 C24.4286073,60.9961037 24.6357153,59.9333133 24.6872446,59.5832519 C24.7645384,59.0760991 24.792285,58.2101577 24.7675113,57.9182782 C24.8586784,57.5798531 24.9706555,57.1813067 25.092542,56.7730633 C25.2768582,56.1456679 25.4809934,55.4901512 25.6266626,54.9897864 C25.695038,54.7512403 25.7564767,54.5379065 25.8060241,54.3536636 C25.9249378,54.3429969 26.1389824,54.1742693 26.2014121,54.1083297 C26.1756475,54.5640884 26.1954664,56.2523348 26.2073578,56.8390029 C26.2162763,57.4237316 26.2311405,58.0404603 26.2321315,58.6649466 C26.2331224,59.2845845 26.222222,59.9168284 26.1558285,60.5141632 Z M23.0333534,56.9408213 C23.1403757,56.4996081 22.6894947,56.1912438 22.1306004,56.1359709 C21.9175467,56.1156072 21.4498195,56.0971829 21.0891147,56.1534255 C21.0821781,56.1534255 21.0415492,56.2513651 21.0346126,56.287244 C20.9563278,56.3124562 20.8552511,56.3890624 20.8552511,56.3890624 C20.8552511,56.3890624 20.9622734,56.8923364 21.1119065,57.3500344 C21.2585667,57.8116113 21.4280187,58.2547638 21.4280187,58.2547638 C21.4260368,58.2557335 21.7163844,58.7628863 21.7193572,58.7357347 C21.8640355,58.9277351 22.0305147,59.0227657 22.005741,58.6377951 C22.0037591,58.4050672 21.9472751,58.0986423 21.9472751,58.0986423 C21.9472751,58.0986423 21.8967368,57.9619147 21.8273705,57.7650657 C22.4635587,57.6370654 22.9431772,57.3102767 23.0333534,56.9408213 C23.0333534,56.9408213 22.9431772,57.3102767 23.0333534,56.9408213 Z M21.7362033,57.5042166 C21.7035021,57.4091861 21.5211678,56.8525787 21.478557,56.6566994 C21.5855793,56.6499115 21.9234924,56.6363357 22.1652835,56.6799722 C22.2832063,56.7013056 22.4734682,56.7468815 22.4893233,56.8147604 C22.5031966,56.8826394 22.156365,57.1454279 22.0166414,57.2705191 C21.8878183,57.3859133 21.7441309,57.4983984 21.7362033,57.5042166 Z M20.4519356,56.6159721 C20.2448276,56.4617899 20.0238463,56.4879718 19.9376339,56.516093 C19.9306973,56.5190021 19.8256568,57.0087003 19.727553,57.4790044 C19.6264764,57.951248 19.5422459,58.4244612 19.5432368,58.4244612 C19.540264,58.4244612 19.5372912,59.0169475 19.5551282,58.9946444 C19.5858476,59.2370692 19.6859333,59.3960999 19.8534034,59.0431294 C19.9673623,58.8385228 20.0743846,58.5437342 20.0743846,58.5437342 C20.0743846,58.5437342 20.0912307,58.4516128 20.1169954,58.3100367 C20.1219501,58.3100367 20.3657231,58.3080973 20.3657231,58.3080973 C20.368696,58.3100367 20.5104015,58.1820364 20.499501,58.1704 C20.5044558,58.160703 20.5876953,58.3245822 20.5876953,58.3245822 C20.5867044,58.3265216 20.9047985,58.7085831 20.9057894,58.6843406 C21.0593863,58.8220379 21.2268564,58.8714926 21.1733452,58.5456736 C21.1535263,58.3468853 21.0792052,58.0947635 21.0792052,58.0947635 C21.0792052,58.0947635 20.8869614,57.7476111 20.7274189,57.3897921 C20.5847225,57.0756095 20.4836459,56.7497906 20.462836,56.6722146 C20.4767092,56.6276084 20.4558994,56.6198509 20.4519356,56.6159721 C20.4519356,56.6159721 20.4558994,56.6198509 20.4519356,56.6159721 Z M20.2220358,57.7805809 C20.2299634,57.7369444 20.2388819,57.6952474 20.2487914,57.6496715 C20.2686103,57.6952474 20.2884292,57.7369444 20.3082482,57.7786415 C20.2904111,57.7796112 20.2587008,57.7805809 20.2220358,57.7805809 Z M17.338379,56.4511232 C17.1104611,56.326032 16.9073169,56.3764563 16.8270501,56.4181534 C16.8131769,56.4239716 16.8131769,56.425911 16.8131769,56.425911 L16.6833628,58.3750066 C16.6823718,58.3759763 16.7457925,58.9655534 16.7606567,58.9413109 C16.8151588,59.1779176 16.9301087,59.33113 17.0619047,58.9607049 C17.1540628,58.7425226 17.2264019,58.4312491 17.2264019,58.4312491 C17.2264019,58.4312491 17.243248,58.1190059 17.2670308,57.744702 C17.4652202,58.151006 17.676292,58.376946 17.9329474,58.6562193 C17.9379021,58.6688254 17.9448388,58.6513708 17.9507844,58.6465224 L17.9686215,58.625189 C18.297616,58.2644608 18.5156244,57.9376722 18.7068773,57.5371864 C18.7415604,57.9037327 18.7722798,58.2440972 18.7702979,58.2440972 C18.7732707,58.2440972 18.8882206,58.68628 18.8961482,58.6688254 C18.9645236,58.844341 19.0864101,58.9694322 19.1983872,58.666886 C19.2786539,58.486522 19.3163099,58.2276123 19.3163099,58.2276123 C19.3173008,58.2276123 19.2836086,57.8387629 19.2489255,57.4605801 C19.2122604,57.0794883 19.2043328,56.7080935 19.2073057,56.6993662 C19.2043328,56.6945177 19.1894686,56.6886995 19.1855048,56.6857904 C18.9476775,56.6043357 18.749488,56.6537903 18.6731851,56.693548 C18.6612937,56.6974268 18.6612937,56.6993662 18.6612937,56.6993662 C18.6593118,56.7100329 18.6632756,56.8506393 18.6702122,57.0358518 C18.6712032,57.0436094 18.5641809,57.1764582 18.5384162,57.2103977 C18.4888689,57.2763373 18.1826661,57.6894292 18.0023137,57.8668841 C17.9527663,57.9163388 17.9488025,57.8416719 17.8804272,57.7311262 C17.8160156,57.6244593 17.6485455,57.3015494 17.5880977,57.1463976 C17.544496,57.0377912 17.413691,56.7100329 17.3770259,56.6004569 C17.375044,56.5926993 17.3601798,56.5810629 17.3502703,56.5752447 L17.3581979,56.4685778 C17.356216,56.4637293 17.3413518,56.4530626 17.338379,56.4511232 Z M15.6656598,62.3585312 C15.6844878,62.3585312 16.0541112,62.3759858 16.585259,62.3711373 C17.2036101,62.3682282 18.0231236,62.3284705 18.7990354,62.2382885 C19.5749472,62.1519853 20.3062663,62.0191364 20.7591292,61.9153786 C21.026685,61.8571967 21.1882094,61.817439 21.1882094,61.817439 C21.1882094,61.817439 22.3248261,61.4528321 22.5834633,61.2938014 C22.8648924,61.1609526 23.0829008,61.0213159 23.1096564,60.9544066 C23.1413667,60.8690731 22.8975936,60.924346 22.4159932,61.0261644 C21.968085,61.1211949 19.728544,61.6283476 18.712823,61.7107721 C17.959703,61.7708934 17.0480314,61.8620452 15.6864697,61.8242269 C15.6745784,61.8261663 15.6488137,61.8387724 15.643859,61.8426512 C15.3495476,62.0627729 15.5100811,62.2635007 15.6299857,62.3439857 C15.6468318,62.3585312 15.6527775,62.3585312 15.6656598,62.3585312 Z M15.2722537,63.9032622 C15.2593714,63.3864124 15.2385615,63.0295631 15.2385615,63.0091994 C15.2345977,62.997563 15.2187426,62.9733205 15.2137878,62.968472 C14.9620872,62.6988956 14.7747982,62.8841082 14.702459,63.0033812 C14.6915586,63.0208358 14.6915586,63.0256843 14.6925495,63.0373207 C14.6935405,63.0567147 14.7123685,63.4067761 14.7262417,63.9187773 C14.7460607,64.6819307 14.8094813,66.9626634 14.8094813,66.9626634 C14.8094813,66.9626634 14.8511011,67.3389067 14.9075851,67.7064227 C14.9640691,68.0749085 15.0403721,68.4327275 15.042354,68.4016971 C15.1156841,68.6993948 15.210815,68.9350317 15.2722537,68.9757591 C15.3376563,69.0145471 15.3564843,68.8603649 15.3445929,68.3784243 C15.3445929,67.8092109 15.3574752,67.0033908 15.3574752,67.0033908 C15.2950455,66.019146 15.2930636,64.6664155 15.2722537,63.9032622 Z M15.6131396,57.7767021 C15.6953883,56.9146394 16.1284323,54.6309976 16.1314051,54.6125733 C16.1314051,54.5999673 16.1214956,54.5737854 16.1175318,54.5679672 C15.9431251,54.2479664 15.7142163,54.374997 15.6141306,54.4768154 C15.5982754,54.4923306 15.5972845,54.4962094 15.5953026,54.5097852 C15.5913388,54.5272398 15.1820775,56.6566994 15.0869466,57.615732 C14.9977613,58.5117342 14.9135308,60.0487075 14.9135308,60.0487075 C14.9155127,60.0496772 14.9224493,61.5488323 14.9363226,61.4877412 C14.9630782,62.0899245 15.0592001,62.4845921 15.2365796,61.5245898 C15.3554933,60.9582854 15.4535971,60.1476168 15.4545881,60.1476168 C15.4545881,60.1476168 15.5388186,58.5553706 15.6131396,57.7767021 Z M22.21384,50.8132916 C22.1444736,50.8840796 21.7946692,50.9509889 21.7946692,50.9509889 C21.7946692,50.9509889 21.2377568,51.1623833 21.1495625,51.2176562 C21.0564134,51.2738987 20.7472379,51.3951111 20.7472379,51.3951111 C20.7472379,51.3951111 20.9374998,51.5192326 21.3745075,51.3941414 C21.5122492,51.3543838 21.6420633,51.2962018 21.7362033,51.2467471 C21.9353837,51.1420196 22.1206909,50.9403222 22.21384,50.8132916 Z M19.8375482,48.7080744 L20.0991583,48.606256 C20.1001493,48.6081954 20.7353465,48.3046795 21.0564134,48.2707401 C21.0504678,48.2726794 20.4152705,48.190255 20.0060093,48.358013 C19.6690872,48.4947406 19.4154046,48.7429836 19.3282013,48.8903779 C19.3341469,48.8816506 19.6284583,48.8011656 19.8375482,48.7080744 Z M16.9875836,41.6816334 C16.9747013,41.6971486 16.9459638,41.7349669 16.9092988,41.7407851 C16.4603996,41.8746036 16.2562645,41.7126638 16.1829344,41.6244212 C16.1115862,41.5361785 16.0055548,41.2578749 16.0739302,41.0891472 C16.0808668,41.0784805 16.3672506,40.7390857 16.5218384,40.6120551 C17.1045154,40.1592056 17.9834857,39.8518109 18.8039901,40.073872 C19.1676678,40.1815087 20.0654661,40.5306004 20.0912307,41.6835728 C20.105104,42.0937556 19.9842084,42.4845444 19.7889918,42.7269693 C19.5818838,43.0295154 19.0903739,43.3844254 18.4403124,43.5696379 C18.2014941,43.6549715 17.5712516,43.8411537 17.4781026,43.8624871 C17.2957682,43.9070933 17.2234291,43.8954569 17.2363114,43.8227295 C17.2482028,43.6384866 17.9527663,43.1827279 18.203476,43.0246669 C18.8198453,42.6096357 19.2806358,42.3264835 19.0517269,41.6001787 C18.9883063,41.4295116 18.8703836,41.2249051 18.5701265,41.1143594 C17.5335956,40.9068437 16.9965021,41.6709667 16.9875836,41.6816334 Z M16.5376935,44.9165502 C16.5713857,44.6566708 17.0064116,44.4830947 17.2075739,44.5800646 C17.4077453,44.6780042 17.619808,45.2287934 17.4612564,45.4896425 C17.3096415,45.7243097 16.8161497,45.7543704 16.6754352,45.5090365 C16.5684129,45.3257633 16.5198565,45.1007931 16.5376935,44.9165502 Z M16.5376935,44.9165502" id="dude-map--body-grey" fill="#67737B" sketch:type="MSShapeGroup"></path>
        <path d="M9.72493045,17.812581 C10.0014048,17.5216712 10.0440155,17.3500344 10.0608616,17.3083373 C10.0955448,17.2685797 10.1203184,17.2957313 10.1371646,17.3083373 C10.317517,17.4334286 10.4909328,17.8290659 10.8684837,17.8979145 C11.2054058,17.9774298 11.4640431,17.8979145 11.4640431,17.8979145 C11.4640431,17.8979145 11.7722277,17.9037327 11.898078,17.8610659 C12.0952765,17.7873688 12.1656338,17.8203386 12.1854527,17.8465204 C12.2260816,17.8979145 12.2112174,18.0162178 12.1329325,18.1325817 C11.9476254,18.4167036 11.4551245,18.7464014 10.5216521,18.4584007 C10.0895991,18.3236125 9.72493045,17.812581 9.72493045,17.812581 Z M10.4096751,16.1417891 C10.3611187,16.1379103 10.2669787,16.1340315 10.1599563,16.1243345 C10.0549159,16.1117284 9.86267214,16.0739102 9.78934203,15.9430008 C9.83492561,15.7917277 9.96374877,15.6191212 10.0777077,15.5299089 C10.2659877,15.3582721 10.6534481,15.2719689 10.9309134,15.2719689 C11.2281976,15.2671204 11.8188022,15.36506 12.0496929,15.5337877 C12.3400405,15.7471215 12.5501214,16.1553649 12.4193163,16.3405775 C12.387606,16.3832442 12.3588685,16.4036079 12.2805837,16.3696684 C11.9664534,16.1233648 11.7216894,16.0894253 11.7216894,16.0894253 C11.7216894,16.0894253 11.635477,16.0419101 11.4868348,15.9953645 C11.0151439,15.8411823 10.4998513,15.9013037 10.4096751,16.1417891 Z M9.09072415,17.0814277 C9.02829446,17.0494276 8.80136752,16.9010636 8.80334941,16.7342754 C8.80533131,16.5965781 8.97181046,16.4530626 8.98964752,16.4462747 C9.00252983,16.445305 9.14027152,16.4181534 9.34837046,16.4094261 C9.63772709,16.3813048 10.5018332,16.4433656 10.8902845,16.5034869 C11.3163919,16.5703962 12.236982,16.8215483 12.5739041,16.9311243 C13.7184483,17.2753676 13.2229746,17.3316101 12.4867007,17.2763373 C12.5055287,17.2840949 11.4917896,17.1919734 10.5682267,17.1134278 C9.89735529,17.0562155 9.57133361,17.0077306 9.09072415,17.0814277 Z M26.7850801,16.8186392 C26.7018405,16.2271226 26.4630222,14.6174218 26.3143801,14.0036022 C26.4204115,13.888208 26.4689679,13.7214197 26.4332938,13.6234801 C26.3758188,13.4615403 26.1706927,13.4159644 25.9606119,13.3713583 C25.9616028,13.275358 25.9170102,13.2065094 25.9170102,13.2065094 C26.0388967,12.3764468 25.9705214,11.460081 25.8198974,10.9015342 C25.6415269,10.2431084 25.4294641,9.80286491 24.7952578,9.34225776 C23.7507993,8.58686202 22.2197856,8.48892239 21.1148793,8.88649909 C20.7076,9.03001459 20.2349181,9.21716655 19.8286297,9.64286453 C19.7642181,9.71171318 19.4411693,10.0598352 19.4679248,10.4351088 C19.2003691,10.2818964 18.1420373,9.38977302 16.961819,9.06007526 C17.2174834,9.02031759 17.4820663,8.97668113 17.5732335,8.70807443 C17.8229522,7.98079997 16.2473459,7.57546567 15.1989236,7.74322364 C14.4993148,7.85473906 13.8660994,7.97692117 13.1536083,8.28625524 C11.9951908,8.78758977 10.8536195,9.34807595 10.0767168,10.3488056 C9.49106688,11.1042013 9.06793236,12.1621433 9.06793236,12.1621433 C9.06793236,12.1621433 7.24855302,11.9808095 7.31395554,12.0079611 C6.9720787,11.9905065 6.6728126,11.9905065 6.50336061,12.0186278 C6.50336061,12.0195975 6.47363219,11.8334152 6.44588566,11.8101424 C6.00194125,11.4338991 5.75222251,11.7558393 5.67393767,11.9488094 C5.65907346,11.9779004 5.66105536,11.9846883 5.6640282,12.0031126 C5.6640282,12.0031126 6.13373724,14.4545124 6.2794065,15.3388781 C6.59452776,17.2627615 6.6163286,17.6341563 6.69560439,18.1209453 C6.29129787,18.1616727 5.97914946,18.3333095 5.79978798,18.5699161 C5.68880188,18.7182801 5.54412357,19.0247051 5.50250378,19.3127058 C5.50250378,19.3127058 5.19431915,19.4348879 5.08036021,19.7267674 C4.95649179,20.043859 4.96640126,20.4297993 5.1764821,21.0494372 C5.37962631,21.6525901 6.01185072,22.5699256 6.33985429,22.8996234 C6.63812945,23.1992605 6.91559471,23.2991395 7.30206417,23.2768364 C7.41205933,24.3619299 7.61718543,26.7493295 7.61718543,26.7493295 C7.61718543,26.7493295 7.91744248,28.9301832 7.92338816,28.882668 C8.00563679,29.3723661 8.10869532,29.7650943 8.19788058,29.7767307 C8.16022458,29.9580645 8.33364037,30.0492162 8.44561742,30.0812163 C8.49021005,30.0986709 8.87568857,29.9832766 9.42269151,29.8746703 C9.80916098,29.7970944 10.6227288,29.666185 11.1281119,29.608003 C11.1162205,29.7069123 10.9685694,30.7590361 10.9685694,30.7590361 C10.9655965,30.7580664 11.0795555,31.2787949 11.108293,31.2574615 C11.2499984,31.5483713 11.5135904,31.5260682 11.6800696,31.2758858 C11.8515035,31.0887338 11.9951908,30.8181877 11.9951908,30.8181877 C11.9951908,30.8181877 12.16167,29.6429122 12.1765342,29.5003664 C12.1765342,29.5003664 13.9969045,29.2918811 14.4101295,29.2676386 C15.0681186,29.1667898 15.4892712,29.0261835 14.4101295,28.9699409 C13.6907018,28.9330923 12.5521033,28.8972134 11.4749435,29.0310319 C10.8347915,29.111517 9.05108625,29.3219417 8.29796626,29.5905484 C8.44660837,28.7139403 8.44066268,26.7919963 8.43967174,26.792966 L8.24247321,24.4899302 C8.20382627,24.0758686 8.10869532,23.1691998 8.11365006,23.1682301 C8.50606521,23.1226542 8.99262036,23.1895635 9.29188646,22.9548963 C9.69421109,22.6436228 9.72493045,22.1839853 9.73483993,21.768954 C9.74177656,21.4954988 9.71502098,21.223983 9.67736498,20.9524672 C9.6714193,20.9127096 9.66547361,20.8739216 9.65952793,20.8351336 L9.71105719,20.8525882 C10.4076932,21.014528 11.5542193,21.2782862 12.0705028,21.4062865 L12.4896736,21.5090746 L13.2309022,21.6554992 C13.5975527,21.7253176 13.9542938,21.8009541 13.9265472,21.7873783 C14.2287862,21.8397421 14.4824687,21.8707725 14.5478712,21.8348936 C14.6132738,21.8019238 14.4903963,21.7010751 14.0296058,21.5081049 C13.4915213,21.2676195 12.6947997,21.0096795 12.6947997,21.0096795 L12.2022988,20.8884671 C11.654305,20.7527092 10.5226431,20.4918601 9.83789845,20.3318597 L9.5188134,20.2057988 C9.47422077,20.0196165 9.2948593,19.7083431 9.19279172,19.5745246 C8.96685573,19.2826451 8.59723237,19.1624024 8.25436458,19.1323417 C8.00464585,19.1100386 7.75096332,19.0605839 7.65583238,19.0984022 C7.78168269,18.9684625 7.63304059,18.5136736 7.4992627,18.389552 L7.55673764,18.389552 C7.37539428,16.8545181 7.09297428,15.2389991 7.09297428,15.2389991 C6.97802439,14.4506336 6.54398945,12.2232343 6.54398945,12.2232343 C6.94036839,12.4026287 9.27206751,12.9805695 9.27206751,12.9805695 C14.4487765,13.9221475 17.5900796,14.1684511 19.3995495,14.2120875 C21.2080284,14.2615422 22.9550686,14.1490571 24.3721233,13.9657839 C24.6456248,13.9308748 24.8874159,13.897905 25.0905601,13.8649352 C25.0301123,14.0899054 24.9438999,14.4011789 24.8368776,14.7706343 C24.6931902,15.2709992 23.9460159,17.8203386 23.8479121,18.2033698 L23.6903515,18.8278561 C23.6903515,18.8278561 23.32271,20.8196184 23.3177553,21.340347 C23.2771265,21.391741 23.2137058,21.5362262 23.2166787,21.5556202 C23.2226244,21.5837415 23.3286557,22.133561 23.5635103,22.8841082 C23.8211566,23.7422921 24.8021944,26.315874 24.8021944,26.315874 C24.8021944,26.3168437 25.8803452,28.8099405 26.053761,29.0000016 C25.9170102,28.9573348 25.6752191,28.9127286 25.3016319,28.863274 C24.4315801,28.7294555 23.1899231,28.605334 23.1889322,28.605334 C23.1889322,28.605334 20.0981674,28.5093337 19.1310027,28.5151519 C17.7615135,28.5248489 15.8816864,28.6130916 15.8489851,28.6383037 C15.3485567,29.0320016 15.7013339,29.3423054 15.8985325,29.4344268 C15.926279,29.4528511 16.4891371,29.3830328 17.2650489,29.3481236 C18.016187,29.3141841 20.1923074,29.320972 20.3032935,29.3229114 C20.4449989,29.8979431 20.5609398,30.3032774 20.5599488,30.3032774 C20.5599488,30.3032774 21.1327164,31.5726138 21.1346983,31.5415834 C21.4260368,32.0438876 21.7629589,32.3105549 21.7183663,31.3883709 C21.7223301,30.8375817 21.6281901,30.0870345 21.6281901,30.0870345 C21.630172,30.0870345 21.5459414,29.7912762 21.4319825,29.350063 C21.8085425,29.3607297 23.0541633,29.4014571 23.0541633,29.4014571 C23.0541633,29.4014571 24.9567822,29.3481236 25.2649669,29.3064265 C25.7277393,29.2676386 26.1082631,29.1987899 26.185557,29.121214 C26.204385,29.10182 26.2360953,28.7789101 26.1221363,28.1718784 C25.9576391,27.299149 25.6028799,26.1345402 25.6048618,26.1345402 C25.6048618,26.1345402 25.0221848,24.6053244 24.8329138,24.0807171 C25.6653096,23.6472615 26.1736656,22.9655629 26.3778007,22.6193803 C26.7147228,22.0453183 26.90003,21.2598619 26.955523,20.6799817 C27.0615544,19.5493124 26.9674144,18.1131877 26.7850801,16.8186392 C26.7850801,16.8186392 26.9674144,18.1131877 26.7850801,16.8186392 Z M6.77785302,18.6513708 C7.18711428,18.634886 7.34368396,18.8394925 7.45169722,18.9713716 C7.49232607,19.0208263 7.5725928,19.121675 7.64394101,19.1061598 C7.59736648,19.2079782 8.11563195,19.3931908 8.19688963,19.4242212 C8.415889,19.5056759 8.65074352,19.5948882 8.78253952,19.795616 C8.9410911,20.0351317 8.99361131,20.350284 9.06495952,20.6053149 C9.1442353,20.8865277 9.16009046,21.1706496 9.17990941,21.4634988 C9.20567404,21.8484694 9.24333004,22.5883499 8.75182015,22.5941681 C8.641825,22.5970772 7.88275932,22.6378046 7.47547996,22.7250775 C7.36350291,22.7502897 7.12567554,22.7725928 6.97108776,22.7076229 C6.81352713,22.6426531 6.70155008,22.4981679 6.59155492,22.3759858 C6.37651934,22.1364701 5.96725809,21.4683473 5.89491893,21.3364682 C5.73141262,21.0358614 5.5887162,20.656709 5.55304209,20.3047081 C5.53916883,20.1718593 5.53124125,20.0302832 5.59862567,19.9090708 C5.67988336,19.7636159 5.88005472,19.81501 6.0009503,19.7267674 C6.02275114,19.7102825 6.01482356,19.5735549 6.04257009,19.3931908 C6.09905409,19.0324627 6.27544271,18.6707648 6.77785302,18.6513708 C6.77785302,18.6513708 6.27544271,18.6707648 6.77785302,18.6513708 Z M19.4897257,13.4130553 C17.752595,13.3752371 15.9540255,13.1909942 14.3328356,12.9679634 C12.7106548,12.7439628 11.2618898,12.4966895 10.2154494,12.3260224 L10.1817572,12.3221436 C10.4948965,11.6132935 10.9398319,10.7803218 11.6562868,10.2935327 C12.3628323,9.81256191 13.2507211,9.33353046 14.1068997,9.07656015 C14.8421826,8.85546872 15.9877177,8.53837705 16.7586748,9.03195399 C16.6575981,9.03777218 16.6684986,9.13474211 16.8042584,9.26856061 C17.2234291,9.6797131 17.9111465,10.1820173 18.7356147,11.0188678 C19.2895543,11.5842025 20.3023025,12.6819021 20.6857991,13.4130553 C20.2884292,13.4188735 19.897005,13.4217826 19.4897257,13.4130553 C19.4897257,13.4130553 19.897005,13.4217826 19.4897257,13.4130553 Z M21.874936,13.3810553 C21.6430543,12.8874783 21.3427972,12.4055378 21.0583953,12.0254157 C21.0583953,12.0254157 20.6828263,11.5037175 20.2468095,11.0945044 C20.5867044,11.0935347 21.1128974,10.6057759 21.4210821,10.3759572 C21.5102673,10.3080782 21.6034164,10.2450478 21.7005292,10.1878355 C22.0879896,9.9560774 22.6320197,9.79316792 23.530809,10.2731691 C23.3524385,10.3158358 22.5606715,10.6329275 22.2782515,11.0111102 C22.0315056,11.3446868 22.0879896,11.7509908 22.3575273,12.1165674 C22.7697614,12.6760839 23.3266738,12.9165693 23.7071976,12.8525692 C23.8716949,12.8244479 24.1669972,12.5907503 24.2046532,12.5529321 C24.246273,12.6964476 24.2878928,12.8874783 24.3711323,13.156085 C23.7309804,13.2423883 22.7330964,13.3374188 21.874936,13.3810553 C21.874936,13.3810553 22.7330964,13.3374188 21.874936,13.3810553 Z M24.4880641,13.1396001 C24.5207654,12.7061446 24.5267111,12.2455374 24.5138288,12.0903855 L24.4989646,11.7975363 C24.4989646,11.7975363 24.227445,11.9905065 24.1214136,12.0690521 C24.0411469,12.1282038 23.7022429,12.3580225 23.6130576,12.3619013 C23.4267595,12.3657801 23.0759642,12.1611736 22.8470553,11.8828699 C22.7747162,11.7955969 22.551753,11.4649295 22.5765267,11.3146261 C22.6260741,11.0091708 23.2959545,10.4001997 23.5575646,10.2857752 C23.623958,10.3148661 23.6368404,10.3197146 23.6279218,10.3032297 C23.6229671,10.2954721 23.6130576,10.2818964 23.6011663,10.2673509 C23.642786,10.2498963 23.6754873,10.2392296 23.6903515,10.2353508 C23.6764783,10.2382599 23.5962115,10.2576539 23.5942296,10.2576539 C23.5744107,10.2334114 23.4505423,10.102502 23.2880269,9.98807748 C23.003625,9.78734972 22.4447307,9.50128844 21.7322395,9.73595566 C21.2298292,9.89983484 20.5926501,10.3711087 20.4707636,10.4525634 C20.2963568,10.569897 20.1387962,10.6125638 20.047629,10.4389876 C19.992136,10.3177752 20.1278958,10.1063808 20.3815783,9.86977416 C20.7363375,9.53716731 21.3259511,9.2831061 21.6390905,9.19680286 C23.0620909,8.80892315 24.1055585,9.33740926 24.3651867,9.45765197 C25.1103791,9.80577401 25.337306,10.3148661 25.4344189,10.5243212 C25.7366578,11.1759591 25.9249378,12.2057797 25.8823271,13.1512365 C25.8169245,13.0707515 25.7009837,12.9960846 25.6177441,12.9699028 C25.5781062,12.9747513 25.1371347,13.0532969 24.4880641,13.1396001 C24.4880641,13.1396001 25.1371347,13.0532969 24.4880641,13.1396001 Z M26.1558285,20.5141632 C26.0894351,21.1134373 25.9616028,21.678772 25.7227845,22.1461671 C25.48793,22.6155015 25.1391165,22.9849569 24.7635475,23.2739273 C24.7050816,23.3175638 24.6485976,23.3582912 24.5911227,23.3990185 C24.4731999,23.0450783 24.132314,22.0608335 24.0233098,21.401438 L24.0223189,21.4004683 C24.4286073,20.9961037 24.6357153,19.9333133 24.6872446,19.5832519 C24.7645384,19.0760991 24.792285,18.2101577 24.7675113,17.9182782 C24.8586784,17.5798531 24.9706555,17.1813067 25.092542,16.7730633 C25.2768582,16.1456679 25.4809934,15.4901512 25.6266626,14.9897864 C25.695038,14.7512403 25.7564767,14.5379065 25.8060241,14.3536636 C25.9249378,14.3429969 26.1389824,14.1742693 26.2014121,14.1083297 C26.1756475,14.5640884 26.1954664,16.2523348 26.2073578,16.8390029 C26.2162763,17.4237316 26.2311405,18.0404603 26.2321315,18.6649466 C26.2331224,19.2845845 26.222222,19.9168284 26.1558285,20.5141632 Z M23.0333534,16.9408213 C23.1403757,16.4996081 22.6894947,16.1912438 22.1306004,16.1359709 C21.9175467,16.1156072 21.4498195,16.0971829 21.0891147,16.1534255 C21.0821781,16.1534255 21.0415492,16.2513651 21.0346126,16.287244 C20.9563278,16.3124562 20.8552511,16.3890624 20.8552511,16.3890624 C20.8552511,16.3890624 20.9622734,16.8923364 21.1119065,17.3500344 C21.2585667,17.8116113 21.4280187,18.2547638 21.4280187,18.2547638 C21.4260368,18.2557335 21.7163844,18.7628863 21.7193572,18.7357347 C21.8640355,18.9277351 22.0305147,19.0227657 22.005741,18.6377951 C22.0037591,18.4050672 21.9472751,18.0986423 21.9472751,18.0986423 C21.9472751,18.0986423 21.8967368,17.9619147 21.8273705,17.7650657 C22.4635587,17.6370654 22.9431772,17.3102767 23.0333534,16.9408213 C23.0333534,16.9408213 22.9431772,17.3102767 23.0333534,16.9408213 Z M21.7362033,17.5042166 C21.7035021,17.4091861 21.5211678,16.8525787 21.478557,16.6566994 C21.5855793,16.6499115 21.9234924,16.6363357 22.1652835,16.6799722 C22.2832063,16.7013056 22.4734682,16.7468815 22.4893233,16.8147604 C22.5031966,16.8826394 22.156365,17.1454279 22.0166414,17.2705191 C21.8878183,17.3859133 21.7441309,17.4983984 21.7362033,17.5042166 Z M20.4519356,16.6159721 C20.2448276,16.4617899 20.0238463,16.4879718 19.9376339,16.516093 C19.9306973,16.5190021 19.8256568,17.0087003 19.727553,17.4790044 C19.6264764,17.951248 19.5422459,18.4244612 19.5432368,18.4244612 C19.540264,18.4244612 19.5372912,19.0169475 19.5551282,18.9946444 C19.5858476,19.2370692 19.6859333,19.3960999 19.8534034,19.0431294 C19.9673623,18.8385228 20.0743846,18.5437342 20.0743846,18.5437342 C20.0743846,18.5437342 20.0912307,18.4516128 20.1169954,18.3100367 C20.1219501,18.3100367 20.3657231,18.3080973 20.3657231,18.3080973 C20.368696,18.3100367 20.5104015,18.1820364 20.499501,18.1704 C20.5044558,18.160703 20.5876953,18.3245822 20.5876953,18.3245822 C20.5867044,18.3265216 20.9047985,18.7085831 20.9057894,18.6843406 C21.0593863,18.8220379 21.2268564,18.8714926 21.1733452,18.5456736 C21.1535263,18.3468853 21.0792052,18.0947635 21.0792052,18.0947635 C21.0792052,18.0947635 20.8869614,17.7476111 20.7274189,17.3897921 C20.5847225,17.0756095 20.4836459,16.7497906 20.462836,16.6722146 C20.4767092,16.6276084 20.4558994,16.6198509 20.4519356,16.6159721 C20.4519356,16.6159721 20.4558994,16.6198509 20.4519356,16.6159721 Z M20.2220358,17.7805809 C20.2299634,17.7369444 20.2388819,17.6952474 20.2487914,17.6496715 C20.2686103,17.6952474 20.2884292,17.7369444 20.3082482,17.7786415 C20.2904111,17.7796112 20.2587008,17.7805809 20.2220358,17.7805809 Z M17.338379,16.4511232 C17.1104611,16.326032 16.9073169,16.3764563 16.8270501,16.4181534 C16.8131769,16.4239716 16.8131769,16.425911 16.8131769,16.425911 L16.6833628,18.3750066 C16.6823718,18.3759763 16.7457925,18.9655534 16.7606567,18.9413109 C16.8151588,19.1779176 16.9301087,19.33113 17.0619047,18.9607049 C17.1540628,18.7425226 17.2264019,18.4312491 17.2264019,18.4312491 C17.2264019,18.4312491 17.243248,18.1190059 17.2670308,17.744702 C17.4652202,18.151006 17.676292,18.376946 17.9329474,18.6562193 C17.9379021,18.6688254 17.9448388,18.6513708 17.9507844,18.6465224 L17.9686215,18.625189 C18.297616,18.2644608 18.5156244,17.9376722 18.7068773,17.5371864 C18.7415604,17.9037327 18.7722798,18.2440972 18.7702979,18.2440972 C18.7732707,18.2440972 18.8882206,18.68628 18.8961482,18.6688254 C18.9645236,18.844341 19.0864101,18.9694322 19.1983872,18.666886 C19.2786539,18.486522 19.3163099,18.2276123 19.3163099,18.2276123 C19.3173008,18.2276123 19.2836086,17.8387629 19.2489255,17.4605801 C19.2122604,17.0794883 19.2043328,16.7080935 19.2073057,16.6993662 C19.2043328,16.6945177 19.1894686,16.6886995 19.1855048,16.6857904 C18.9476775,16.6043357 18.749488,16.6537903 18.6731851,16.693548 C18.6612937,16.6974268 18.6612937,16.6993662 18.6612937,16.6993662 C18.6593118,16.7100329 18.6632756,16.8506393 18.6702122,17.0358518 C18.6712032,17.0436094 18.5641809,17.1764582 18.5384162,17.2103977 C18.4888689,17.2763373 18.1826661,17.6894292 18.0023137,17.8668841 C17.9527663,17.9163388 17.9488025,17.8416719 17.8804272,17.7311262 C17.8160156,17.6244593 17.6485455,17.3015494 17.5880977,17.1463976 C17.544496,17.0377912 17.413691,16.7100329 17.3770259,16.6004569 C17.375044,16.5926993 17.3601798,16.5810629 17.3502703,16.5752447 L17.3581979,16.4685778 C17.356216,16.4637293 17.3413518,16.4530626 17.338379,16.4511232 Z M15.6656598,22.3585312 C15.6844878,22.3585312 16.0541112,22.3759858 16.585259,22.3711373 C17.2036101,22.3682282 18.0231236,22.3284705 18.7990354,22.2382885 C19.5749472,22.1519853 20.3062663,22.0191364 20.7591292,21.9153786 C21.026685,21.8571967 21.1882094,21.817439 21.1882094,21.817439 C21.1882094,21.817439 22.3248261,21.4528321 22.5834633,21.2938014 C22.8648924,21.1609526 23.0829008,21.0213159 23.1096564,20.9544066 C23.1413667,20.8690731 22.8975936,20.924346 22.4159932,21.0261644 C21.968085,21.1211949 19.728544,21.6283476 18.712823,21.7107721 C17.959703,21.7708934 17.0480314,21.8620452 15.6864697,21.8242269 C15.6745784,21.8261663 15.6488137,21.8387724 15.643859,21.8426512 C15.3495476,22.0627729 15.5100811,22.2635007 15.6299857,22.3439857 C15.6468318,22.3585312 15.6527775,22.3585312 15.6656598,22.3585312 Z M15.2722537,23.9032622 C15.2593714,23.3864124 15.2385615,23.0295631 15.2385615,23.0091994 C15.2345977,22.997563 15.2187426,22.9733205 15.2137878,22.968472 C14.9620872,22.6988956 14.7747982,22.8841082 14.702459,23.0033812 C14.6915586,23.0208358 14.6915586,23.0256843 14.6925495,23.0373207 C14.6935405,23.0567147 14.7123685,23.4067761 14.7262417,23.9187773 C14.7460607,24.6819307 14.8094813,26.9626634 14.8094813,26.9626634 C14.8094813,26.9626634 14.8511011,27.3389067 14.9075851,27.7064227 C14.9640691,28.0749085 15.0403721,28.4327275 15.042354,28.4016971 C15.1156841,28.6993948 15.210815,28.9350317 15.2722537,28.9757591 C15.3376563,29.0145471 15.3564843,28.8603649 15.3445929,28.3784243 C15.3445929,27.8092109 15.3574752,27.0033908 15.3574752,27.0033908 C15.2950455,26.019146 15.2930636,24.6664155 15.2722537,23.9032622 Z M15.6131396,17.7767021 C15.6953883,16.9146394 16.1284323,14.6309976 16.1314051,14.6125733 C16.1314051,14.5999673 16.1214956,14.5737854 16.1175318,14.5679672 C15.9431251,14.2479664 15.7142163,14.374997 15.6141306,14.4768154 C15.5982754,14.4923306 15.5972845,14.4962094 15.5953026,14.5097852 C15.5913388,14.5272398 15.1820775,16.6566994 15.0869466,17.615732 C14.9977613,18.5117342 14.9135308,20.0487075 14.9135308,20.0487075 C14.9155127,20.0496772 14.9224493,21.5488323 14.9363226,21.4877412 C14.9630782,22.0899245 15.0592001,22.4845921 15.2365796,21.5245898 C15.3554933,20.9582854 15.4535971,20.1476168 15.4545881,20.1476168 C15.4545881,20.1476168 15.5388186,18.5553706 15.6131396,17.7767021 Z M22.21384,10.8132916 C22.1444736,10.8840796 21.7946692,10.9509889 21.7946692,10.9509889 C21.7946692,10.9509889 21.2377568,11.1623833 21.1495625,11.2176562 C21.0564134,11.2738987 20.7472379,11.3951111 20.7472379,11.3951111 C20.7472379,11.3951111 20.9374998,11.5192326 21.3745075,11.3941414 C21.5122492,11.3543838 21.6420633,11.2962018 21.7362033,11.2467471 C21.9353837,11.1420196 22.1206909,10.9403222 22.21384,10.8132916 Z M19.8375482,8.70807443 L20.0991583,8.606256 C20.1001493,8.6081954 20.7353465,8.30467952 21.0564134,8.27074005 C21.0504678,8.27267945 20.4152705,8.19025501 20.0060093,8.35801299 C19.6690872,8.49474058 19.4154046,8.7429836 19.3282013,8.89037789 C19.3341469,8.8816506 19.6284583,8.80116556 19.8375482,8.70807443 Z M16.9875836,1.68163344 C16.9747013,1.69714863 16.9459638,1.7349669 16.9092988,1.7407851 C16.4603996,1.8746036 16.2562645,1.71266382 16.1829344,1.62442118 C16.1115862,1.53617855 16.0055548,1.25787485 16.0739302,1.08914718 C16.0808668,1.07848049 16.3672506,0.739085738 16.5218384,0.612055132 C17.1045154,0.159205568 17.9834857,-0.148189103 18.8039901,0.0738720318 C19.1676678,0.181508652 20.0654661,0.530600393 20.0912307,1.68357284 C20.105104,2.09375563 19.9842084,2.48454444 19.7889918,2.72696926 C19.5818838,3.02951544 19.0903739,3.38442538 18.4403124,3.56963794 C18.2014941,3.65497147 17.5712516,3.84115374 17.4781026,3.86248712 C17.2957682,3.90709329 17.2234291,3.8954569 17.2363114,3.82272945 C17.2482028,3.63848659 17.9527663,3.18272793 18.203476,3.02466694 C18.8198453,2.60963565 19.2806358,2.32648346 19.0517269,1.6001787 C18.9883063,1.42951163 18.8703836,1.22490508 18.5701265,1.11435936 C17.5335956,0.906843714 16.9965021,1.67096675 16.9875836,1.68163344 Z M16.5376935,4.91655024 C16.5713857,4.65667083 17.0064116,4.48309466 17.2075739,4.58006459 C17.4077453,4.67800422 17.619808,5.22879341 17.4612564,5.48964251 C17.3096415,5.72430974 16.8161497,5.75437042 16.6754352,5.5090365 C16.5684129,5.32576334 16.5198565,5.1007931 16.5376935,4.91655024 Z M16.5376935,4.91655024" id="dude-map--title-grey" fill="#3A434E" sketch:type="MSShapeGroup"></path>
    </g>
</svg>