<svg width="32" height="232" viewBox="0 0 32 232" xmlns="http://www.w3.org/2000/svg"><title>dude-map</title><g fill="none"><path d="M9.725 137.813c.276-.291.319-.463.336-.504h.076c.18.125.354.521.731.59.337.08.596 0 .596 0s.308.006.434-.037c.197-.074.268-.041.287-.015.041.051.026.17-.053.286-.185.284-.678.614-1.611.326-.432-.135-.797-.646-.797-.646zm.685-1.671l-.25-.017c-.105-.013-.297-.05-.371-.181.046-.151.174-.324.288-.413.188-.172.576-.258.853-.258.297-.005.888.093 1.119.262.29.213.5.622.37.807-.032.043-.06.063-.139.029-.314-.246-.559-.28-.559-.28l-.235-.094c-.472-.154-.987-.094-1.077.146zm-1.319.94c-.062-.032-.289-.18-.287-.347.002-.138.168-.281.186-.288l.359-.037c.289-.028 1.153.034 1.542.094.426.067 1.347.318 1.684.428 1.145.344.649.4-.087.345.019.008-.995-.084-1.918-.163-.671-.057-.997-.106-1.478-.032zm17.694-.263c-.083-.592-.322-2.201-.471-2.815.106-.115.155-.282.119-.38-.057-.162-.263-.208-.473-.252l-.044-.165c.122-.83.054-1.746-.097-2.305-.178-.658-.39-1.099-1.025-1.559-1.044-.755-2.575-.853-3.68-.456-.407.144-.88.331-1.286.756-.064.069-.387.417-.361.792-.268-.153-1.326-1.045-2.506-1.375.256-.04.52-.083.611-.352.25-.727-1.326-1.133-2.374-.965-.7.112-1.333.234-2.045.543-1.158.501-2.3 1.062-3.077 2.063-.586.755-1.009 1.813-1.009 1.813s-1.819-.181-1.754-.154c-.342-.017-.641-.017-.811.011l-.057-.208c-.444-.376-.694-.054-.772.139l-.01.054s.47 2.451.615 3.336c.315 1.924.337 2.295.416 2.782-.404.041-.716.212-.896.449-.111.148-.256.455-.297.743 0 0-.308.122-.422.414-.124.317-.114.703.096 1.323.203.603.835 1.52 1.163 1.85.298.3.576.4.962.377.11 1.085.315 3.472.315 3.472s.3 2.181.306 2.133c.082.49.185.882.274.894-.038.181.136.272.248.304l.977-.207c.386-.078 1.2-.208 1.705-.267l-.16 1.151c-.003-.001.111.52.14.498.142.291.405.269.572.018.171-.187.315-.458.315-.458s.166-1.175.181-1.318c0 0 1.82-.208 2.234-.233.658-.101 1.079-.241 0-.298-.719-.037-1.858-.073-2.935.061-.64.08-2.424.291-3.177.56.149-.877.143-2.799.142-2.798l-.197-2.303-.129-1.322c.392-.046.879.021 1.178-.213.402-.311.433-.771.443-1.186.007-.273-.02-.545-.057-.816l-.018-.117.052.017c.697.162 1.843.426 2.359.554l.419.103.741.146.696.132c.302.052.556.083.621.048.065-.033-.057-.134-.518-.327-.538-.24-1.335-.498-1.335-.498l-.493-.121c-.548-.136-1.68-.397-2.364-.557l-.319-.126c-.045-.186-.224-.497-.326-.631-.226-.292-.596-.412-.938-.442-.25-.022-.503-.072-.599-.034.126-.13-.023-.585-.157-.709h.057c-.181-1.535-.464-3.151-.464-3.151-.115-.788-.549-3.016-.549-3.016.396.179 2.728.757 2.728.757 5.177.942 8.318 1.188 10.127 1.232 1.808.049 3.556-.063 4.973-.246l.718-.101-.254.906c-.144.5-.891 3.05-.989 3.433l-.158.624s-.368 1.992-.373 2.512c-.041.051-.104.196-.101.215.006.028.112.578.347 1.328.258.858 1.239 3.432 1.239 3.432 0 .001 1.078 2.494 1.252 2.684-.137-.043-.379-.087-.752-.137-.87-.134-2.112-.258-2.113-.258 0 0-3.091-.096-4.058-.09-1.369.01-3.249.098-3.282.123-.5.394-.148.704.05.796.028.018.591-.051 1.367-.086.751-.034 2.927-.027 3.038-.025.142.575.258.98.257.98 0 0 .573 1.269.575 1.238.291.502.628.769.584-.153.004-.551-.09-1.301-.09-1.301l-.196-.737 1.622.051s1.903-.053 2.211-.095c.463-.039.843-.108.921-.185.019-.019.051-.342-.063-.949-.164-.873-.519-2.037-.517-2.037 0 0-.583-1.529-.772-2.054.832-.433 1.341-1.115 1.545-1.461.337-.574.522-1.36.578-1.939.106-1.131.012-2.567-.17-3.861zm-20.007 1.833c.409-.016.566.188.674.32.041.049.121.15.192.135-.047.102.472.287.553.318.219.081.454.171.586.371.159.24.211.555.282.81.079.281.095.565.115.858.026.385.063 1.125-.428 1.131-.11.003-.869.044-1.276.131-.112.025-.35.048-.504-.017-.158-.065-.27-.209-.38-.332-.215-.24-.624-.908-.697-1.04-.164-.301-.306-.68-.342-1.032-.014-.133-.022-.274.046-.396.081-.145.281-.094.402-.182l.042-.334c.056-.361.233-.722.735-.742zm12.712-5.238c-1.737-.038-3.536-.222-5.157-.445-1.622-.224-3.071-.471-4.117-.642l-.034-.004c.313-.709.758-1.542 1.475-2.029.707-.481 1.594-.96 2.451-1.217.735-.221 1.881-.538 2.652-.045-.101.006-.09.103.046.237.419.411 1.107.913 1.931 1.75.554.565 1.567 1.663 1.95 2.394-.397.006-.789.009-1.196 0zm2.385-.032c-.232-.494-.532-.976-.817-1.356 0 0-.376-.522-.812-.931.34-.001.866-.489 1.174-.719l.279-.188c.387-.232.931-.395 1.83.085-.178.043-.97.36-1.253.738-.247.334-.19.74.079 1.105.412.56.969.8 1.35.736.164-.028.46-.262.497-.3l.166.603c-.64.086-1.638.181-2.496.225zm2.613-.241c.033-.433.039-.894.026-1.049l-.015-.293-.378.272c-.08.059-.419.289-.508.293-.186.004-.537-.201-.766-.479-.072-.087-.295-.418-.271-.568.05-.305.719-.914.981-1.029l.07.017-.027-.036.089-.032-.096.022c-.02-.024-.144-.155-.306-.27-.284-.201-.843-.487-1.556-.252-.502.164-1.14.635-1.261.717-.174.117-.332.16-.423-.014-.055-.121.08-.333.334-.569.355-.333.944-.587 1.258-.673 1.423-.388 2.466.141 2.726.261.745.348.972.857 1.069 1.067.302.652.491 1.681.448 2.627-.065-.08-.181-.155-.265-.181-.04.005-.481.083-1.13.17zm1.668 7.375c-.066.599-.194 1.165-.433 1.632-.235.469-.584.839-.959 1.128l-.172.125c-.118-.354-.459-1.338-.568-1.998l-.001-.001c.406-.404.613-1.467.665-1.817.077-.507.105-1.373.08-1.665.091-.338.203-.737.325-1.145l.534-1.783.179-.636c.119-.011.333-.179.395-.245-.026.456-.006 2.144.006 2.731.009.585.024 1.201.025 1.826.001.62-.01 1.252-.076 1.849zm-3.122-3.573c.107-.441-.344-.75-.903-.805-.213-.02-.681-.039-1.041.017l-.055.134-.179.102s.107.503.257.961c.147.462.316.905.316.905-.002.001.288.508.291.481.145.192.311.287.286-.098-.002-.233-.058-.539-.058-.539l-.12-.334c.636-.128 1.116-.455 1.206-.824zm-1.297.563c-.033-.095-.215-.652-.258-.848.107-.007.445-.02.687.023.118.021.308.067.324.135.014.068-.333.331-.473.456l-.28.234zm-1.284-.888c-.207-.154-.428-.128-.514-.1-.007.003-.112.493-.21.963-.101.472-.185.945-.184.945-.003 0-.006.592.012.57.031.242.131.401.298.048.114-.205.221-.499.221-.499l.043-.234.249-.002.134-.138.088.154c-.001.002.317.384.318.36.154.138.321.187.268-.139-.02-.199-.094-.451-.094-.451s-.192-.347-.352-.705c-.143-.314-.244-.64-.265-.718l-.011-.056zm-.23 1.165l.027-.131.059.129-.086.002zm-2.884-1.329c-.228-.125-.431-.075-.511-.033l-.014.008-.13 1.949c-.001.001.062.591.077.566.055.237.169.39.301.019.092-.218.164-.529.164-.529l.041-.687c.198.406.409.632.666.912l.018-.01.018-.021c.329-.361.547-.688.738-1.088l.063.707.126.425c.068.176.19.301.302-.002.08-.18.118-.439.118-.439l-.067-.767c-.037-.381-.045-.752-.042-.761l-.022-.014c-.238-.081-.436-.032-.512.008l-.012.006.009.336-.132.175c-.05.066-.356.479-.536.656-.05.049-.054-.025-.122-.136-.064-.107-.232-.43-.292-.585l-.211-.546-.027-.025.008-.107-.02-.017zm-1.673 5.907c.019 0 .388.017.92.013.618-.003 1.438-.043 2.214-.133.776-.086 1.507-.219 1.96-.323l.429-.098s1.137-.365 1.395-.524c.281-.133.499-.272.526-.339.032-.085-.212-.03-.694.072-.448.095-2.687.602-3.703.685-.753.06-1.665.151-3.026.113l-.043.018c-.294.22-.134.421-.014.501l.036.015zm-.393 1.545c-.013-.517-.034-.874-.034-.894l-.025-.041c-.252-.27-.439-.084-.511.035l-.01.034c.001.019.02.369.034.881l.083 3.044s.042.376.098.744.133.726.135.695c.073.298.168.533.23.574.065.039.084-.115.072-.597 0-.569.013-1.375.013-1.375-.062-.984-.064-2.337-.085-3.1zm.341-6.127c.082-.862.515-3.146.518-3.164l-.014-.045c-.174-.32-.403-.193-.503-.091l-.019.033c-.004.017-.413 2.147-.508 3.106-.089.896-.173 2.433-.173 2.433.002.001.009 1.5.023 1.439.027.602.123.997.3.037.119-.566.217-1.377.218-1.377 0 0 .084-1.592.159-2.371zm6.601-6.963c-.069.071-.419.138-.419.138s-.557.211-.645.267c-.093.056-.402.177-.402.177s.19.124.627-.001c.138-.04.268-.098.362-.147.199-.105.384-.306.478-.433zm-2.376-2.105l.262-.102c.001.002.636-.302.957-.336-.006.002-.641-.08-1.05.087-.337.137-.591.385-.678.532.006-.009.3-.089.509-.182zm-2.85-7.026l-.078.059c-.449.134-.653-.028-.726-.116-.071-.088-.177-.367-.109-.535.007-.011.293-.35.448-.477.583-.453 1.462-.76 2.282-.538.364.108 1.261.457 1.287 1.61.014.41-.107.801-.302 1.043-.207.303-.699.657-1.349.843-.239.085-.869.272-.962.293-.182.045-.255.033-.242-.04.012-.184.716-.64.967-.798.616-.415 1.077-.698.848-1.424-.063-.171-.181-.375-.482-.486-1.037-.208-1.574.557-1.583.567zm-.45 3.235c.034-.26.469-.433.67-.336.2.098.412.649.254.91-.152.235-.645.265-.786.019-.107-.183-.156-.408-.138-.592zm0 0" fill="#fff"/><path d="M9.725 57.813c.276-.291.319-.463.336-.504h.076c.18.125.354.521.731.59.337.08.596 0 .596 0s.308.006.434-.037c.197-.074.268-.041.287-.015.041.051.026.17-.053.286-.185.284-.678.614-1.611.326-.432-.135-.797-.646-.797-.646zm.685-1.671l-.25-.017c-.105-.013-.297-.05-.371-.181.046-.151.174-.324.288-.413.188-.172.576-.258.853-.258.297-.005.888.093 1.119.262.29.213.5.622.37.807-.032.043-.06.063-.139.029-.314-.246-.559-.28-.559-.28l-.235-.094c-.472-.154-.987-.094-1.077.146zm-1.319.94c-.062-.032-.289-.18-.287-.347.002-.138.168-.281.186-.288l.359-.037c.289-.028 1.153.034 1.542.094.426.067 1.347.318 1.684.428 1.145.344.649.4-.087.345.019.008-.995-.084-1.918-.163-.671-.057-.997-.106-1.478-.032zm17.694-.263c-.083-.592-.322-2.201-.471-2.815.106-.115.155-.282.119-.38-.057-.162-.263-.208-.473-.252l-.044-.165c.122-.83.054-1.746-.097-2.305-.178-.658-.39-1.099-1.025-1.559-1.044-.755-2.575-.853-3.68-.456-.407.144-.88.331-1.286.756-.064.069-.387.417-.361.792-.268-.153-1.326-1.045-2.506-1.375.256-.04.52-.083.611-.352.25-.727-1.326-1.133-2.374-.965-.7.112-1.333.234-2.045.543-1.158.501-2.3 1.062-3.077 2.063-.586.755-1.009 1.813-1.009 1.813s-1.819-.181-1.754-.154c-.342-.017-.641-.017-.811.011l-.057-.208c-.444-.376-.694-.054-.772.139l-.01.054s.47 2.451.615 3.336c.315 1.924.337 2.295.416 2.782-.404.041-.716.212-.896.449-.111.148-.256.455-.297.743 0 0-.308.122-.422.414-.124.317-.114.703.096 1.323.203.603.835 1.52 1.163 1.85.298.3.576.4.962.377.11 1.085.315 3.472.315 3.472s.3 2.181.306 2.133c.082.49.185.882.274.894-.038.181.136.272.248.304l.977-.207c.386-.078 1.2-.208 1.705-.267l-.16 1.151c-.003-.001.111.52.14.498.142.291.405.269.572.018.171-.187.315-.458.315-.458s.166-1.175.181-1.318c0 0 1.82-.208 2.234-.233.658-.101 1.079-.241 0-.298-.719-.037-1.858-.073-2.935.061-.64.08-2.424.291-3.177.56.149-.877.143-2.799.142-2.798l-.197-2.303-.129-1.322c.392-.046.879.021 1.178-.213.402-.311.433-.771.443-1.186.007-.273-.02-.545-.057-.816l-.018-.117.052.017c.697.162 1.843.426 2.359.554l.419.103.741.146.696.132c.302.052.556.083.621.048.065-.033-.057-.134-.518-.327-.538-.24-1.335-.498-1.335-.498l-.493-.121c-.548-.136-1.68-.397-2.364-.557l-.319-.126c-.045-.186-.224-.497-.326-.631-.226-.292-.596-.412-.938-.442-.25-.022-.503-.072-.599-.034.126-.13-.023-.585-.157-.709h.057c-.181-1.535-.464-3.151-.464-3.151-.115-.788-.549-3.016-.549-3.016.396.179 2.728.757 2.728.757 5.177.942 8.318 1.188 10.127 1.232 1.808.049 3.556-.063 4.973-.246l.718-.101-.254.906c-.144.5-.891 3.05-.989 3.433l-.158.624s-.368 1.992-.373 2.512c-.041.051-.104.196-.101.215.006.028.112.578.347 1.328.258.858 1.239 3.432 1.239 3.432 0 .001 1.078 2.494 1.252 2.684-.137-.043-.379-.087-.752-.137-.87-.134-2.112-.258-2.113-.258 0 0-3.091-.096-4.058-.09-1.369.01-3.249.098-3.282.123-.5.394-.148.704.05.796.028.018.591-.051 1.367-.086.751-.034 2.927-.027 3.038-.025.142.575.258.98.257.98 0 0 .573 1.269.575 1.238.291.502.628.769.584-.153.004-.551-.09-1.301-.09-1.301l-.196-.737 1.622.051s1.903-.053 2.211-.095c.463-.039.843-.108.921-.185.019-.019.051-.342-.063-.949-.164-.873-.519-2.037-.517-2.037 0 0-.583-1.529-.772-2.054.832-.433 1.341-1.115 1.545-1.461.337-.574.522-1.36.578-1.939.106-1.131.012-2.567-.17-3.861zm-20.007 1.833c.409-.016.566.188.674.32.041.049.121.15.192.135-.047.102.472.287.553.318.219.081.454.171.586.371.159.24.211.555.282.81.079.281.095.565.115.858.026.385.063 1.125-.428 1.131-.11.003-.869.044-1.276.131-.112.025-.35.048-.504-.017-.158-.065-.27-.209-.38-.332-.215-.24-.624-.908-.697-1.04-.164-.301-.306-.68-.342-1.032-.014-.133-.022-.274.046-.396.081-.145.281-.094.402-.182l.042-.334c.056-.361.233-.722.735-.742zm12.712-5.238c-1.737-.038-3.536-.222-5.157-.445-1.622-.224-3.071-.471-4.117-.642l-.034-.004c.313-.709.758-1.542 1.475-2.029.707-.481 1.594-.96 2.451-1.217.735-.221 1.881-.538 2.652-.045-.101.006-.09.103.046.237.419.411 1.107.913 1.931 1.75.554.565 1.567 1.663 1.95 2.394-.397.006-.789.009-1.196 0zm2.385-.032c-.232-.494-.532-.976-.817-1.356 0 0-.376-.522-.812-.931.34-.001.866-.489 1.174-.719l.279-.188c.387-.232.931-.395 1.83.085-.178.043-.97.36-1.253.738-.247.334-.19.74.079 1.105.412.56.969.8 1.35.736.164-.028.46-.262.497-.3l.166.603c-.64.086-1.638.181-2.496.225zm2.613-.241c.033-.433.039-.894.026-1.049l-.015-.293-.378.272c-.08.059-.419.289-.508.293-.186.004-.537-.201-.766-.479-.072-.087-.295-.418-.271-.568.05-.305.719-.914.981-1.029l.07.017-.027-.036.089-.032-.096.022c-.02-.024-.144-.155-.306-.27-.284-.201-.843-.487-1.556-.252-.502.164-1.14.635-1.261.717-.174.117-.332.16-.423-.014-.055-.121.08-.333.334-.569.355-.333.944-.587 1.258-.673 1.423-.388 2.466.141 2.726.261.745.348.972.857 1.069 1.067.302.652.491 1.681.448 2.627-.065-.08-.181-.155-.265-.181-.04.005-.481.083-1.13.17zm1.668 7.375c-.066.599-.194 1.165-.433 1.632-.235.469-.584.839-.959 1.128l-.172.125c-.118-.354-.459-1.338-.568-1.998l-.001-.001c.406-.404.613-1.467.665-1.817.077-.507.105-1.373.08-1.665.091-.338.203-.737.325-1.145l.534-1.783.179-.636c.119-.011.333-.179.395-.245-.026.456-.006 2.144.006 2.731.009.585.024 1.201.025 1.826.001.62-.01 1.252-.076 1.849zm-3.122-3.573c.107-.441-.344-.75-.903-.805-.213-.02-.681-.039-1.041.017l-.055.134-.179.102s.107.503.257.961c.147.462.316.905.316.905-.002.001.288.508.291.481.145.192.311.287.286-.098-.002-.233-.058-.539-.058-.539l-.12-.334c.636-.128 1.116-.455 1.206-.824zm-1.297.563c-.033-.095-.215-.652-.258-.848.107-.007.445-.02.687.023.118.021.308.067.324.135.014.068-.333.331-.473.456l-.28.234zm-1.284-.888c-.207-.154-.428-.128-.514-.1-.007.003-.112.493-.21.963-.101.472-.185.945-.184.945-.003 0-.006.592.012.57.031.242.131.401.298.048.114-.205.221-.499.221-.499l.043-.234.249-.002.134-.138.088.154c-.001.002.317.384.318.36.154.138.321.187.268-.139-.02-.199-.094-.451-.094-.451s-.192-.347-.352-.705c-.143-.314-.244-.64-.265-.718l-.011-.056zm-.23 1.165l.027-.131.059.129-.086.002zm-2.884-1.329c-.228-.125-.431-.075-.511-.033l-.014.008-.13 1.949c-.001.001.062.591.077.566.055.237.169.39.301.019.092-.218.164-.529.164-.529l.041-.687c.198.406.409.632.666.912l.018-.01.018-.021c.329-.361.547-.688.738-1.088l.063.707.126.425c.068.176.19.301.302-.002.08-.18.118-.439.118-.439l-.067-.767c-.037-.381-.045-.752-.042-.761l-.022-.014c-.238-.081-.436-.032-.512.008l-.012.006.009.336-.132.175c-.05.066-.356.479-.536.656-.05.049-.054-.025-.122-.136-.064-.107-.232-.43-.292-.585l-.211-.546-.027-.025.008-.107-.02-.017zm-1.673 5.907c.019 0 .388.017.92.013.618-.003 1.438-.043 2.214-.133.776-.086 1.507-.219 1.96-.323l.429-.098s1.137-.365 1.395-.524c.281-.133.499-.272.526-.339.032-.085-.212-.03-.694.072-.448.095-2.687.602-3.703.685-.753.06-1.665.151-3.026.113l-.043.018c-.294.22-.134.421-.014.501l.036.015zm-.393 1.545c-.013-.517-.034-.874-.034-.894l-.025-.041c-.252-.27-.439-.084-.511.035l-.01.034c.001.019.02.369.034.881l.083 3.044s.042.376.098.744.133.726.135.695c.073.298.168.533.23.574.065.039.084-.115.072-.597 0-.569.013-1.375.013-1.375-.062-.984-.064-2.337-.085-3.1zm.341-6.127c.082-.862.515-3.146.518-3.164l-.014-.045c-.174-.32-.403-.193-.503-.091l-.019.033c-.004.017-.413 2.147-.508 3.106-.089.896-.173 2.433-.173 2.433.002.001.009 1.5.023 1.439.027.602.123.997.3.037.119-.566.217-1.377.218-1.377 0 0 .084-1.592.159-2.371zm6.601-6.963c-.069.071-.419.138-.419.138s-.557.211-.645.267c-.093.056-.402.177-.402.177s.19.124.627-.001c.138-.04.268-.098.362-.147.199-.105.384-.306.478-.433zm-2.376-2.105l.262-.102c.001.002.636-.302.957-.336-.006.002-.641-.08-1.05.087-.337.137-.591.385-.678.532.006-.009.3-.089.509-.182zm-2.85-7.026l-.078.059c-.449.134-.653-.028-.726-.116-.071-.088-.177-.367-.109-.535.007-.011.293-.35.448-.477.583-.453 1.462-.76 2.282-.538.364.108 1.261.457 1.287 1.61.014.41-.107.801-.302 1.043-.207.303-.699.657-1.349.843-.239.085-.869.272-.962.293-.182.045-.255.033-.242-.04.012-.184.716-.64.967-.798.616-.415 1.077-.698.848-1.424-.063-.171-.181-.375-.482-.486-1.037-.208-1.574.557-1.583.567zm-.45 3.235c.034-.26.469-.433.67-.336.2.098.412.649.254.91-.152.235-.645.265-.786.019-.107-.183-.156-.408-.138-.592zm0 0" fill="#67737B"/><path d="M9.725 17.813c.276-.291.319-.463.336-.504h.076c.18.125.354.521.731.59.337.08.596 0 .596 0s.308.006.434-.037c.197-.074.268-.041.287-.015.041.051.026.17-.053.286-.185.284-.678.614-1.611.326-.432-.135-.797-.646-.797-.646zm.685-1.671l-.25-.017c-.105-.013-.297-.05-.371-.181.046-.151.174-.324.288-.413.188-.172.576-.258.853-.258.297-.005.888.093 1.119.262.29.213.5.622.37.807-.032.043-.06.063-.139.029-.314-.246-.559-.28-.559-.28l-.235-.094c-.472-.154-.987-.094-1.077.146zm-1.319.94c-.062-.032-.289-.18-.287-.347.002-.138.168-.281.186-.288l.359-.037c.289-.028 1.153.034 1.542.094.426.067 1.347.318 1.684.428 1.145.344.649.4-.087.345.019.008-.995-.084-1.918-.163-.671-.057-.997-.106-1.478-.032zm17.694-.263c-.083-.592-.322-2.201-.471-2.815.106-.115.155-.282.119-.38-.057-.162-.263-.208-.473-.252l-.044-.165c.122-.83.054-1.746-.097-2.305-.178-.658-.39-1.099-1.025-1.559-1.044-.755-2.575-.853-3.68-.456-.407.144-.88.331-1.286.756-.064.069-.387.417-.361.792-.268-.153-1.326-1.045-2.506-1.375.256-.04.52-.083.611-.352.25-.727-1.326-1.133-2.374-.965-.7.112-1.333.234-2.045.543-1.158.501-2.3 1.062-3.077 2.063-.586.755-1.009 1.813-1.009 1.813s-1.819-.181-1.754-.154c-.342-.017-.641-.017-.811.011l-.057-.208c-.444-.376-.694-.054-.772.139l-.01.054s.47 2.451.615 3.336c.315 1.924.337 2.295.416 2.782-.404.041-.716.212-.896.449-.111.148-.256.455-.297.743 0 0-.308.122-.422.414-.124.317-.114.703.096 1.323.203.603.835 1.52 1.163 1.85.298.3.576.4.962.377.11 1.085.315 3.472.315 3.472s.3 2.181.306 2.133c.082.49.185.882.274.894-.038.181.136.272.248.304l.977-.207c.386-.078 1.2-.208 1.705-.267l-.16 1.151c-.003-.001.111.52.14.498.142.291.405.269.572.018.171-.187.315-.458.315-.458s.166-1.175.181-1.318c0 0 1.82-.208 2.234-.233.658-.101 1.079-.241 0-.298-.719-.037-1.858-.073-2.935.061-.64.08-2.424.291-3.177.56.149-.877.143-2.799.142-2.798l-.197-2.303-.129-1.322c.392-.046.879.021 1.178-.213.402-.311.433-.771.443-1.186.007-.273-.02-.545-.057-.816l-.018-.117.052.017c.697.162 1.843.426 2.359.554l.419.103.741.146.696.132c.302.052.556.083.621.048.065-.033-.057-.134-.518-.327-.538-.24-1.335-.498-1.335-.498l-.493-.121c-.548-.136-1.68-.397-2.364-.557l-.319-.126c-.045-.186-.224-.497-.326-.631-.226-.292-.596-.412-.938-.442-.25-.022-.503-.072-.599-.034.126-.13-.023-.585-.157-.709h.057c-.181-1.535-.464-3.151-.464-3.151-.115-.788-.549-3.016-.549-3.016.396.179 2.728.757 2.728.757 5.177.942 8.318 1.188 10.127 1.232 1.808.049 3.556-.063 4.973-.246l.718-.101-.254.906c-.144.5-.891 3.05-.989 3.433l-.158.624s-.368 1.992-.373 2.512c-.041.051-.104.196-.101.215.006.028.112.578.347 1.328.258.858 1.239 3.432 1.239 3.432 0 .001 1.078 2.494 1.252 2.684-.137-.043-.379-.087-.752-.137-.87-.134-2.112-.258-2.113-.258 0 0-3.091-.096-4.058-.09-1.369.01-3.249.098-3.282.123-.5.394-.148.704.05.796.028.018.591-.051 1.367-.086.751-.034 2.927-.027 3.038-.025.142.575.258.98.257.98 0 0 .573 1.269.575 1.238.291.502.628.769.584-.153.004-.551-.09-1.301-.09-1.301l-.196-.737 1.622.051s1.903-.053 2.211-.095c.463-.039.843-.108.921-.185.019-.019.051-.342-.063-.949-.164-.873-.519-2.037-.517-2.037 0 0-.583-1.529-.772-2.054.832-.433 1.341-1.115 1.545-1.461.337-.574.522-1.36.578-1.939.106-1.131.012-2.567-.17-3.861zm-20.007 1.833c.409-.016.566.188.674.32.041.049.121.15.192.135-.047.102.472.287.553.318.219.081.454.171.586.371.159.24.211.555.282.81.079.281.095.565.115.858.026.385.063 1.125-.428 1.131-.11.003-.869.044-1.276.131-.112.025-.35.048-.504-.017-.158-.065-.27-.209-.38-.332-.215-.24-.624-.908-.697-1.04-.164-.301-.306-.68-.342-1.032-.014-.133-.022-.274.046-.396.081-.145.281-.094.402-.182l.042-.334c.056-.361.233-.722.735-.742zm12.712-5.238c-1.737-.038-3.536-.222-5.157-.445-1.622-.224-3.071-.471-4.117-.642l-.034-.004c.313-.709.758-1.542 1.475-2.029.707-.481 1.594-.96 2.451-1.217.735-.221 1.881-.538 2.652-.045-.101.006-.09.103.046.237.419.411 1.107.913 1.931 1.75.554.565 1.567 1.663 1.95 2.394-.397.006-.789.009-1.196 0zm2.385-.032c-.232-.494-.532-.976-.817-1.356 0 0-.376-.522-.812-.931.34-.001.866-.489 1.174-.719l.279-.188c.387-.232.931-.395 1.83.085-.178.043-.97.36-1.253.738-.247.334-.19.74.079 1.105.412.56.969.8 1.35.736.164-.028.46-.262.497-.3l.166.603c-.64.086-1.638.181-2.496.225zm2.613-.241c.033-.433.039-.894.026-1.049l-.015-.293-.378.272c-.08.059-.419.289-.508.293-.186.004-.537-.201-.766-.479-.072-.087-.295-.418-.271-.568.05-.305.719-.914.981-1.029l.07.017-.027-.036.089-.032-.096.022c-.02-.024-.144-.155-.306-.27-.284-.201-.843-.487-1.556-.252-.502.164-1.14.635-1.261.717-.174.117-.332.16-.423-.014-.055-.121.08-.333.334-.569.355-.333.944-.587 1.258-.673 1.423-.388 2.466.141 2.726.261.745.348.972.857 1.069 1.067.302.652.491 1.681.448 2.627-.065-.08-.181-.155-.265-.181-.04.005-.481.083-1.13.17zm1.668 7.375c-.066.599-.194 1.165-.433 1.632-.235.469-.584.839-.959 1.128l-.172.125c-.118-.354-.459-1.338-.568-1.998l-.001-.001c.406-.404.613-1.467.665-1.817.077-.507.105-1.373.08-1.665.091-.338.203-.737.325-1.145l.534-1.783.179-.636c.119-.011.333-.179.395-.245-.026.456-.006 2.144.006 2.731.009.585.024 1.201.025 1.826.001.62-.01 1.252-.076 1.849zm-3.122-3.573c.107-.441-.344-.75-.903-.805-.213-.02-.681-.039-1.041.017l-.055.134-.179.102s.107.503.257.961c.147.462.316.905.316.905-.002.001.288.508.291.481.145.192.311.287.286-.098-.002-.233-.058-.539-.058-.539l-.12-.334c.636-.128 1.116-.455 1.206-.824zm-1.297.563c-.033-.095-.215-.652-.258-.848.107-.007.445-.02.687.023.118.021.308.067.324.135.014.068-.333.331-.473.456l-.28.234zm-1.284-.888c-.207-.154-.428-.128-.514-.1-.007.003-.112.493-.21.963-.101.472-.185.945-.184.945-.003 0-.006.592.012.57.031.242.131.401.298.048.114-.205.221-.499.221-.499l.043-.234.249-.002.134-.138.088.154c-.001.002.317.384.318.36.154.138.321.187.268-.139-.02-.199-.094-.451-.094-.451s-.192-.347-.352-.705c-.143-.314-.244-.64-.265-.718l-.011-.056zm-.23 1.165l.027-.131.059.129-.086.002zm-2.884-1.329c-.228-.125-.431-.075-.511-.033l-.014.008-.13 1.949c-.001.001.062.591.077.566.055.237.169.39.301.019.092-.218.164-.529.164-.529l.041-.687c.198.406.409.632.666.912l.018-.01.018-.021c.329-.361.547-.688.738-1.088l.063.707.126.425c.068.176.19.301.302-.002.08-.18.118-.439.118-.439l-.067-.767c-.037-.381-.045-.752-.042-.761l-.022-.014c-.238-.081-.436-.032-.512.008l-.012.006.009.336-.132.175c-.05.066-.356.479-.536.656-.05.049-.054-.025-.122-.136-.064-.107-.232-.43-.292-.585l-.211-.546-.027-.025.008-.107-.02-.017zm-1.673 5.907c.019 0 .388.017.92.013.618-.003 1.438-.043 2.214-.133.776-.086 1.507-.219 1.96-.323l.429-.098s1.137-.365 1.395-.524c.281-.133.499-.272.526-.339.032-.085-.212-.03-.694.072-.448.095-2.687.602-3.703.685-.753.06-1.665.151-3.026.113l-.043.018c-.294.22-.134.421-.014.501l.036.015zm-.393 1.545c-.013-.517-.034-.874-.034-.894l-.025-.041c-.252-.27-.439-.084-.511.035l-.01.034c.001.019.02.369.034.881l.083 3.044s.042.376.098.744.133.726.135.695c.073.298.168.533.23.574.065.039.084-.115.072-.597 0-.569.013-1.375.013-1.375-.062-.984-.064-2.337-.085-3.1zm.341-6.127c.082-.862.515-3.146.518-3.164l-.014-.045c-.174-.32-.403-.193-.503-.091l-.019.033c-.004.017-.413 2.147-.508 3.106-.089.896-.173 2.433-.173 2.433.002.001.009 1.5.023 1.439.027.602.123.997.3.037.119-.566.217-1.377.218-1.377 0 0 .084-1.592.159-2.371zm6.601-6.963c-.069.071-.419.138-.419.138s-.557.211-.645.267c-.093.056-.402.177-.402.177s.19.124.627-.001c.138-.04.268-.098.362-.147.199-.105.384-.306.478-.433zm-2.376-2.105l.262-.102c.001.002.636-.302.957-.336-.006.002-.641-.08-1.05.087-.337.137-.591.385-.678.532.006-.009.3-.089.509-.182zm-2.85-7.026l-.078.059c-.449.134-.653-.028-.726-.116-.071-.088-.177-.367-.109-.535.007-.011.293-.35.448-.477.583-.453 1.462-.76 2.282-.538.364.108 1.261.457 1.287 1.61.014.41-.107.801-.302 1.043-.207.303-.699.657-1.349.843-.239.085-.869.272-.962.293-.182.045-.255.033-.242-.04.012-.184.716-.64.967-.798.616-.415 1.077-.698.848-1.424-.063-.171-.181-.375-.482-.486-1.037-.208-1.574.557-1.583.567zm-.45 3.235c.034-.26.469-.433.67-.336.2.098.412.649.254.91-.152.235-.645.265-.786.019-.107-.183-.156-.408-.138-.592zm0 0" fill="#3A434E"/></g></svg>