<svg width="32" height="232" viewBox="0 0 32 232" xmlns="http://www.w3.org/2000/svg"><title>email</title><g fill="none"><path d="M25.33 126.806c-2.002-1.785-4.809-2.81-8.067-2.806-4.306-.012-7.744 1.248-10.332 3.841-2.25 2.278-3.435 5.34-3.431 8.78-.002 3.269 1.148 6.242 3.269 8.334 2.451 2.457 5.68 3.767 9.258 3.767h.016c2.009 0 4.007-.298 5.931-.892.391-.117.764-.25 1.104-.393l.021-.015.125-.069c.504-.273.826-.8.826-1.381 0-.871-.701-1.587-1.574-1.587-.129 0-.256.027-.375.052l-.049.016-.029.008-.166.056c-.338.122-.662.219-1.031.334l-.283.086c-1.268.385-2.772.604-4.198.604-5.42-.033-9.08-3.682-9.103-9.086.021-5.459 3.947-9.184 9.797-9.219 1.943-.002 3.693.428 4.892 1.149.506.314.951.699 1.344 1.136h-1.91c-.463.002-.877.106-1.223.277-.256.131-.486.274-.65.524-.695-.994-1.682-1.43-3.059-1.385-3.896.039-6.931 4.084-6.935 8.741 0 1.579.412 2.927 1.23 3.884.813.965 2.028 1.498 3.424 1.495 1.453.021 2.625-.489 3.615-1.55.049.254.112.422.215.583.51.791 1.479 1.158 2.524 1.162 1.919-.002 3.839-.86 5.31-2.324 1.738-1.737 2.684-4.169 2.684-6.807.002-2.959-1.168-5.522-3.17-7.315m-8.129 11.045c-.758 1.481-1.694 2.137-2.574 2.129-.295 0-.647-.062-.909-.306-.259-.243-.537-.719-.541-1.776-.004-1.199.434-2.857 1.094-4.084.705-1.312 1.611-1.908 2.572-1.91.846.012 1.416.602 1.45 1.748.002 1.209-.432 2.912-1.092 4.199m5.654 1.528c-.555.449-1.217.695-1.65.689-.455-.049-.514-.119-.561-.531v-.238c.057-.297.293-1.252.516-2.067l1.25-4.633c.113-.488.457-1.681.662-2.354l.207-.72c1.115 1.234 1.756 2.903 1.756 4.738.006 2.094-.905 4.137-2.18 5.116" fill="#206FAC"/><path d="M25.33 86.806c-2.002-1.785-4.809-2.81-8.067-2.806-4.306-.012-7.744 1.248-10.332 3.841-2.25 2.278-3.435 5.34-3.431 8.78-.002 3.269 1.148 6.242 3.269 8.334 2.451 2.457 5.68 3.767 9.258 3.767h.016c2.009 0 4.007-.298 5.931-.892.391-.117.764-.25 1.104-.393l.021-.015.125-.069c.504-.273.826-.8.826-1.381 0-.871-.701-1.587-1.574-1.587-.129 0-.256.027-.375.052l-.049.016-.029.008-.166.056c-.338.122-.662.219-1.031.334l-.283.086c-1.268.385-2.772.604-4.198.604-5.42-.033-9.08-3.682-9.103-9.086.021-5.459 3.947-9.184 9.797-9.219 1.943-.002 3.693.428 4.892 1.149.506.314.951.699 1.344 1.136h-1.91c-.463.002-.877.106-1.223.277-.256.131-.486.274-.65.524-.695-.994-1.682-1.43-3.059-1.385-3.896.039-6.931 4.084-6.935 8.741 0 1.579.412 2.927 1.23 3.884.813.965 2.028 1.498 3.424 1.495 1.453.021 2.625-.489 3.615-1.55.049.254.112.422.215.583.51.791 1.479 1.158 2.524 1.162 1.919-.002 3.839-.86 5.31-2.324 1.738-1.737 2.684-4.169 2.684-6.807.002-2.959-1.168-5.522-3.17-7.315m-8.129 11.045c-.758 1.481-1.694 2.137-2.574 2.129-.295 0-.647-.062-.909-.306-.259-.243-.537-.719-.541-1.776-.004-1.199.434-2.857 1.094-4.084.705-1.312 1.611-1.908 2.572-1.91.846.012 1.416.602 1.45 1.748.002 1.209-.432 2.912-1.092 4.199m5.654 1.528c-.555.449-1.217.695-1.65.689-.455-.049-.514-.119-.561-.531v-.238c.057-.297.293-1.252.516-2.067l1.25-4.633c.113-.488.457-1.681.662-2.354l.207-.72c1.115 1.234 1.756 2.903 1.756 4.738.006 2.094-.905 4.137-2.18 5.116" fill="#fff"/><path d="M25.33 46.806c-2.002-1.785-4.809-2.81-8.067-2.806-4.306-.012-7.744 1.248-10.332 3.841-2.25 2.278-3.435 5.34-3.431 8.78-.002 3.269 1.148 6.242 3.269 8.334 2.451 2.457 5.68 3.767 9.258 3.767h.016c2.009 0 4.007-.298 5.931-.892.391-.117.764-.25 1.104-.393l.021-.015.125-.069c.504-.273.826-.8.826-1.381 0-.871-.701-1.587-1.574-1.587-.129 0-.256.027-.375.052l-.049.016-.029.008-.166.056c-.338.122-.662.219-1.031.334l-.283.086c-1.268.385-2.772.604-4.198.604-5.42-.033-9.08-3.682-9.103-9.086.021-5.459 3.947-9.184 9.797-9.219 1.943-.002 3.693.428 4.892 1.149.506.314.951.699 1.344 1.136h-1.91c-.463.002-.877.106-1.223.277-.256.131-.486.274-.65.524-.695-.994-1.682-1.43-3.059-1.385-3.896.039-6.931 4.084-6.935 8.741 0 1.579.412 2.927 1.23 3.884.813.965 2.028 1.498 3.424 1.495 1.453.021 2.625-.489 3.615-1.55.049.254.112.422.215.583.51.791 1.479 1.158 2.524 1.162 1.919-.002 3.839-.86 5.31-2.324 1.738-1.737 2.684-4.169 2.684-6.807.002-2.959-1.168-5.522-3.17-7.315m-8.129 11.045c-.758 1.481-1.694 2.137-2.574 2.129-.295 0-.647-.062-.909-.306-.259-.243-.537-.719-.541-1.776-.004-1.199.434-2.857 1.094-4.084.705-1.312 1.611-1.908 2.572-1.91.846.012 1.416.602 1.45 1.748.002 1.209-.432 2.912-1.092 4.199m5.654 1.528c-.555.449-1.217.695-1.65.689-.455-.049-.514-.119-.561-.531v-.238c.057-.297.293-1.252.516-2.067l1.25-4.633c.113-.488.457-1.681.662-2.354l.207-.72c1.115 1.234 1.756 2.903 1.756 4.738.006 2.094-.905 4.137-2.18 5.116" fill="#67737B"/><path d="M25.33 6.806c-2.002-1.785-4.809-2.81-8.067-2.806-4.306-.012-7.744 1.248-10.332 3.841-2.25 2.278-3.435 5.34-3.431 8.78-.002 3.269 1.148 6.242 3.269 8.334 2.451 2.457 5.68 3.767 9.258 3.767h.016c2.009 0 4.007-.298 5.931-.892.391-.117.764-.25 1.104-.393l.021-.015.125-.069c.504-.273.826-.8.826-1.381 0-.871-.701-1.587-1.574-1.587-.129 0-.256.027-.375.052l-.049.016-.029.008-.166.056c-.338.122-.662.219-1.031.334l-.283.086c-1.268.385-2.772.604-4.198.604-5.42-.033-9.08-3.682-9.103-9.086.021-5.459 3.947-9.184 9.797-9.219 1.943-.002 3.693.428 4.892 1.149.506.314.951.699 1.344 1.136h-1.91c-.463.002-.877.106-1.223.277-.256.131-.486.274-.65.524-.695-.994-1.682-1.43-3.059-1.385-3.896.039-6.931 4.084-6.935 8.741 0 1.579.412 2.927 1.23 3.884.813.965 2.028 1.498 3.424 1.495 1.453.021 2.625-.489 3.615-1.55.049.254.112.422.215.583.51.791 1.479 1.158 2.524 1.162 1.919-.002 3.839-.86 5.31-2.324 1.738-1.737 2.684-4.169 2.684-6.807.002-2.959-1.168-5.522-3.17-7.315m-8.129 11.045c-.758 1.481-1.694 2.137-2.574 2.129-.295 0-.647-.062-.909-.306-.259-.243-.537-.719-.541-1.776-.004-1.199.434-2.857 1.094-4.084.705-1.312 1.611-1.908 2.572-1.91.846.012 1.416.602 1.45 1.748.002 1.209-.432 2.912-1.092 4.199m5.654 1.528c-.555.449-1.217.695-1.65.689-.455-.049-.514-.119-.561-.531v-.238c.057-.297.293-1.252.516-2.067l1.25-4.633c.113-.488.457-1.681.662-2.354l.207-.72c1.115 1.234 1.756 2.903 1.756 4.738.006 2.094-.905 4.137-2.18 5.116" fill="#3A434E"/></g></svg>