<?xml version="1.0" encoding="UTF-8" standalone="no"?>
<svg width="22px" height="32px" viewBox="0 0 22 32" version="1.1" xmlns="http://www.w3.org/2000/svg" xmlns:xlink="http://www.w3.org/1999/xlink" xmlns:sketch="http://www.bohemiancoding.com/sketch/ns">
    <title>entertainment--pin</title>
    <description>Created with Sketch (http://www.bohemiancoding.com/sketch)</description>
    <defs></defs>
    <g id="Points-of-interest" stroke="none" stroke-width="1" fill="none" fill-rule="evenodd" sketch:type="MSPage">
        <g id="entertainment--pin" sketch:type="MSLayerGroup" transform="translate(-1.000000, 0.000000)">
            <path d="M16.473,29.984 C16.473,31.089 14.457,31.984 11.973,31.984 C9.486,31.984 7.473,31.089 7.473,29.984 C7.473,28.88 9.486,27.984 11.973,27.984 C14.457,27.984 16.473,28.88 16.473,29.984" id="Fill-1" fill-opacity="0.2" fill="#1D508D" sketch:type="MSShapeGroup"></path>
            <path d="M11.972,0.016 C18.048,0.016 22.973,4.41 22.973,11.015 C22.973,17.47 17.421,20.242 14.467,24.37 C12.048,27.74 11.972,30.235 11.972,30.235 C11.972,30.235 11.953,27.728 9.478,24.37 C6.439,20.242 0.973,17.66 0.973,11.015 C0.973,4.408 5.898,0.016 11.972,0.016" id="Fill-2" fill="#288AD6" sketch:type="MSShapeGroup"></path>
            <path d="M15.518,11.917 C15.356,12.076 15.254,12.394 15.296,12.62 L15.92,16.272 C15.959,16.497 15.825,16.598 15.62,16.487 L12.34,14.767 C12.141,14.659 11.806,14.659 11.605,14.767 L8.323,16.487 C8.119,16.598 7.984,16.497 8.023,16.272 L8.65,12.62 C8.689,12.394 8.586,12.076 8.422,11.917 L5.768,9.327 C5.602,9.169 5.654,9.011 5.881,8.978 L9.55,8.44 C9.777,8.411 10.045,8.216 10.147,8.007 L11.785,4.689 C11.889,4.48 12.056,4.48 12.157,4.689 L13.797,8.007 C13.897,8.216 14.168,8.411 14.393,8.44 L18.064,8.978 C18.291,9.011 18.343,9.169 18.178,9.327 L15.518,11.917" id="Fill-3" fill="#FFFFFF" sketch:type="MSShapeGroup"></path>
            <path d="M14.695,10.497 C14.769,10.43 14.744,10.36 14.648,10.343 L13.035,10.112 C12.935,10.097 12.818,10.01 12.773,9.918 L12.056,8.46 C12.01,8.372 11.934,8.372 11.893,8.46 L11.172,9.918 C11.127,10.01 11.009,10.097 10.906,10.112 L9.297,10.343 C9.199,10.36 9.178,10.43 9.248,10.497 L10.415,11.633 C10.487,11.705 10.529,11.845 10.516,11.942 L10.238,13.547 C10.223,13.646 10.282,13.687 10.371,13.64 L11.81,12.886 C11.899,12.841 12.045,12.841 12.134,12.886 L13.574,13.64 C13.664,13.687 13.723,13.646 13.707,13.547 L13.432,11.942 C13.414,11.845 13.457,11.705 13.531,11.633 L14.695,10.497" id="Fill-4" fill="#288AD6" sketch:type="MSShapeGroup"></path>
        </g>
    </g>
</svg>