<svg width="22" height="32" viewBox="0 0 22 32" xmlns="http://www.w3.org/2000/svg"><title>entertainment--pin</title><g fill="none"><path d="M15.473 29.984c0 1.105-2.016 2-4.5 2-2.487 0-4.5-.895-4.5-2 0-1.104 2.013-2 4.5-2 2.484 0 4.5.896 4.5 2" fill-opacity=".2" fill="#1D508D"/><path d="M10.972.016c6.076 0 11.001 4.394 11.001 10.999 0 6.455-5.552 9.227-8.506 13.355-2.419 3.37-2.495 5.865-2.495 5.865s-.019-2.507-2.494-5.865c-3.039-4.128-8.505-6.71-8.505-13.355 0-6.607 4.925-10.999 10.999-10.999" fill="#288AD6"/><path d="M14.518 11.917c-.162.159-.264.477-.222.703l.624 3.652c.039.225-.095.326-.3.215l-3.28-1.72c-.199-.108-.534-.108-.735 0l-3.282 1.72c-.204.111-.339.01-.3-.215l.627-3.652c.039-.226-.064-.544-.228-.703l-2.654-2.59c-.166-.158-.114-.316.113-.349l3.669-.538c.227-.029.495-.224.597-.433l1.638-3.318c.104-.209.271-.209.372 0l1.64 3.318c.1.209.371.404.596.433l3.671.538c.227.033.279.191.114.349l-2.66 2.59" fill="#fff"/><path d="M13.695 10.497c.074-.067.049-.137-.047-.154l-1.613-.231c-.1-.015-.217-.102-.262-.194l-.717-1.458c-.046-.088-.122-.088-.163 0l-.721 1.458c-.045.092-.163.179-.266.194l-1.609.231c-.098.017-.119.087-.049.154l1.167 1.136c.072.072.114.212.101.309l-.278 1.605c-.015.099.044.14.133.093l1.439-.754c.089-.045.235-.045.324 0l1.44.754c.09.047.149.006.133-.093l-.275-1.605c-.018-.097.025-.237.099-.309l1.164-1.136" fill="#288AD6"/></g></svg>