<svg width="32" height="232" xmlns="http://www.w3.org/2000/svg" xmlns:sketch="http://www.bohemiancoding.com/sketch/ns"><title>entertainment</title><g sketch:type="MSPage" fill="none"><path d="M28.801 173.993c.339-.332.236-.661-.233-.729l-7.573-1.118c-.466-.061-1.024-.469-1.233-.903l-3.381-6.915c-.208-.435-.555-.435-.765 0l-3.381 6.915c-.21.434-.761.842-1.233.903l-7.566 1.118c-.468.068-.576.396-.234.729l5.476 5.392c.337.334.553.992.474 1.465l-1.296 7.608c-.081.473.193.68.615.448l6.772-3.583c.414-.223 1.108-.223 1.518 0l6.765 3.583c.424.233.7.025.621-.448l-1.292-7.608c-.084-.472.13-1.13.46-1.465l5.487-5.392zm-7.182 2.437l-2.405 2.366c-.15.149-.24.441-.201.643l.566 3.344c.032.204-.088.292-.274.193l-2.972-1.57c-.185-.093-.484-.093-.669 0l-2.97 1.57c-.181.099-.305.011-.272-.193l.572-3.344c.03-.202-.06-.493-.206-.643l-2.409-2.366c-.144-.143-.103-.285.104-.324l3.32-.478c.207-.034.453-.215.547-.406l1.483-3.039c.088-.183.242-.183.339 0l1.479 3.039c.094.191.336.372.54.406l3.324.478c.204.039.251.18.103.324zm0 0" fill="#2789D5" sketch:type="MSShapeGroup"/><path d="M28.801 133.993c.339-.332.236-.661-.233-.729l-7.573-1.118c-.466-.061-1.024-.469-1.233-.903l-3.381-6.915c-.208-.435-.555-.435-.765 0l-3.381 6.915c-.21.434-.761.842-1.233.903l-7.566 1.118c-.468.068-.576.396-.234.729l5.476 5.392c.337.334.553.992.474 1.465l-1.296 7.608c-.081.473.193.68.615.448l6.772-3.583c.414-.223 1.108-.223 1.518 0l6.765 3.583c.424.233.7.025.621-.448l-1.292-7.608c-.084-.472.13-1.13.46-1.465l5.487-5.392zm-7.182 2.437l-2.405 2.366c-.15.149-.24.441-.201.643l.566 3.344c.032.204-.088.292-.274.193l-2.972-1.57c-.185-.093-.484-.093-.669 0l-2.97 1.57c-.181.099-.305.011-.272-.193l.572-3.344c.03-.202-.06-.493-.206-.643l-2.409-2.366c-.144-.143-.103-.285.104-.324l3.32-.478c.207-.034.453-.215.547-.406l1.483-3.039c.088-.183.242-.183.339 0l1.479 3.039c.094.191.336.372.54.406l3.324.478c.204.039.251.18.103.324zm0 0" fill="#206FAC" sketch:type="MSShapeGroup"/><path d="M28.801 93.993c.339-.332.236-.661-.233-.729l-7.573-1.118c-.466-.061-1.024-.469-1.233-.903l-3.381-6.915c-.208-.435-.555-.435-.765 0l-3.381 6.915c-.21.434-.761.842-1.233.903l-7.566 1.118c-.468.068-.576.396-.234.729l5.476 5.392c.337.334.553.992.474 1.465l-1.296 7.608c-.081.473.193.68.615.448l6.772-3.583c.414-.223 1.108-.223 1.518 0l6.765 3.583c.424.233.7.025.621-.448l-1.292-7.608c-.084-.472.13-1.13.46-1.465l5.487-5.392zm-7.182 2.437l-2.405 2.366c-.15.149-.24.441-.201.643l.566 3.344c.032.204-.088.292-.274.193l-2.972-1.57c-.185-.093-.484-.093-.669 0l-2.97 1.57c-.181.099-.305.011-.272-.193l.572-3.344c.03-.202-.06-.493-.206-.643l-2.409-2.366c-.144-.143-.103-.285.104-.324l3.32-.478c.207-.034.453-.215.547-.406l1.483-3.039c.088-.183.242-.183.339 0l1.479 3.039c.094.191.336.372.54.406l3.324.478c.204.039.251.18.103.324zm0 0" fill="#fff" sketch:type="MSShapeGroup"/><path d="M28.801 53.993c.339-.332.236-.661-.233-.729l-7.573-1.118c-.466-.061-1.024-.469-1.233-.903l-3.381-6.915c-.208-.435-.555-.435-.765 0l-3.381 6.915c-.21.434-.761.842-1.233.903l-7.566 1.118c-.468.068-.576.396-.234.729l5.476 5.392c.337.334.553.992.474 1.465l-1.296 7.608c-.081.473.193.68.615.448l6.772-3.583c.414-.223 1.108-.223 1.518 0l6.765 3.583c.424.233.7.025.621-.448l-1.292-7.608c-.084-.472.13-1.13.46-1.465l5.487-5.392zm-7.182 2.437l-2.405 2.366c-.15.149-.24.441-.201.643l.566 3.344c.032.204-.088.292-.274.193l-2.972-1.57c-.185-.093-.484-.093-.669 0l-2.97 1.57c-.181.099-.305.011-.272-.193l.572-3.344c.03-.202-.06-.493-.206-.643l-2.409-2.366c-.144-.143-.103-.285.104-.324l3.32-.478c.207-.034.453-.215.547-.406l1.483-3.039c.088-.183.242-.183.339 0l1.479 3.039c.094.191.336.372.54.406l3.324.478c.204.039.251.18.103.324zm0 0" fill="#67747C" sketch:type="MSShapeGroup"/><path d="M28.801 13.993c.339-.332.236-.661-.233-.729l-7.573-1.118c-.466-.061-1.024-.469-1.233-.903l-3.381-6.915c-.208-.435-.555-.435-.765 0l-3.381 6.915c-.21.434-.761.842-1.233.903l-7.566 1.118c-.468.068-.576.396-.234.729l5.476 5.392c.337.334.553.992.474 1.465l-1.296 7.608c-.081.473.193.68.615.448l6.772-3.583c.414-.223 1.108-.223 1.518 0l6.765 3.583c.424.233.7.025.621-.448l-1.292-7.608c-.084-.472.13-1.13.46-1.465l5.487-5.392zm-7.182 2.437l-2.405 2.366c-.15.149-.24.441-.201.643l.566 3.344c.032.204-.088.292-.274.193l-2.972-1.57c-.185-.093-.484-.093-.669 0l-2.97 1.57c-.181.099-.305.011-.272-.193l.572-3.344c.03-.202-.06-.493-.206-.643l-2.409-2.366c-.144-.143-.103-.285.104-.324l3.32-.478c.207-.034.453-.215.547-.406l1.483-3.039c.088-.183.242-.183.339 0l1.479 3.039c.094.191.336.372.54.406l3.324.478c.204.039.251.18.103.324zm0 0" fill="#3B444F" sketch:type="MSShapeGroup"/></g></svg>