<?xml version="1.0" encoding="UTF-8" standalone="no"?>
<svg width="32px" height="32px" viewBox="0 0 32 32" version="1.1" xmlns="http://www.w3.org/2000/svg" xmlns:xlink="http://www.w3.org/1999/xlink" xmlns:sketch="http://www.bohemiancoding.com/sketch/ns">
    <title>entertainment-pin--body-grey</title>
    <description>Created with Sketch (http://www.bohemiancoding.com/sketch)</description>
    <defs></defs>
    <g id="Page-1" stroke="none" stroke-width="1" fill="none" fill-rule="evenodd" sketch:type="MSPage">
        <path d="M15.9994849,0 C22.6276345,0 28,4.654 28,11.648 C28,18.482 21.9435979,21.417 18.7201786,25.788 C16.0829291,29.357 15.9994849,32 15.9994849,32 C15.9994849,32 15.9778512,29.344 13.2798214,25.788 C9.96162596,21.417 4,18.684 4,11.648 C4,4.652 9.37236554,0 15.9994849,0 C15.9994849,0 9.37236554,0 15.9994849,0 L15.9994849,0 L15.9994849,0 Z M19.9377513,13.0004411 C19.7596841,13.1740933 19.645138,13.5163201 19.6909565,13.7620735 L20.3855226,17.7174847 C20.428217,17.9622226 20.2803484,18.0708821 20.0522974,17.951052 L16.4086891,16.0865757 C16.1868861,15.9708076 15.8140905,15.9708076 15.5902049,16.0865757 L11.9455553,17.951052 C11.7185456,18.0708821 11.570677,17.9622226 11.6133715,17.7174847 L12.3110616,13.7620735 C12.353756,13.5163201 12.2371272,13.1740933 12.0569774,13.0004411 L9.10689383,10.1956027 C8.92466135,10.022966 8.98089309,9.85236031 9.23393591,9.81681746 L13.3086542,9.23594578 C13.5616971,9.20344946 13.8584757,8.99120789 13.9719805,8.76576468 L15.7922226,5.16984404 C15.9067688,4.94338532 16.0921252,4.94338532 16.2045887,5.16984404 L18.0258722,8.76576468 C18.1372944,8.99120789 18.4382383,9.20344946 18.6891985,9.23594578 L22.7670408,9.81681746 C23.0190423,9.85236031 23.075274,10.022966 22.8930415,10.1956027 L19.9377513,13.0004411 L19.9377513,13.0004411 L19.9377513,13.0004411 L19.9377513,13.0004411 Z M18.9540291,11.3975656 C19.0323374,11.3195873 19.0079296,11.241609 18.9011456,11.2202451 L17.1529386,10.9596053 C17.0451376,10.9403777 16.9180138,10.8410355 16.8681812,10.7374205 L16.0901834,9.07530781 C16.0403508,8.9748974 15.9589916,8.9748974 15.913227,9.07530781 L15.1321782,10.7374205 C15.0823456,10.8410355 14.9542048,10.9403777 14.8443698,10.9596053 L13.0981968,11.2202451 C12.9914128,11.241609 12.969039,11.3195873 13.0442963,11.3975656 L14.3104497,12.6922189 C14.388758,12.7734018 14.4355396,12.932563 14.4192677,13.0436554 L14.1192555,14.8724066 C14.1019666,14.983499 14.166037,15.0315678 14.2626511,14.978158 L15.8237318,14.1182604 C15.9213629,14.0680552 16.0779795,14.0680552 16.1756106,14.1182604 L17.7387252,14.978158 C17.8353393,15.0315678 17.8994098,14.983499 17.8811039,14.8724066 L17.5831257,13.0436554 C17.5638028,12.932563 17.6116014,12.7734018 17.6909267,12.6922189 L18.9540291,11.3975656 L18.9540291,11.3975656 Z M18.9540291,11.3975656" id="entertainment-pin--body-grey" fill="#67747C" sketch:type="MSShapeGroup"></path>
    </g>
</svg>