<svg width="32" height="232" xmlns="http://www.w3.org/2000/svg" xmlns:sketch="http://www.bohemiancoding.com/sketch/ns"><title>envelope</title><g sketch:type="MSPage" fill="none"><path d="M23.625 127h-15.248c-2.688 0-4.877 2.187-4.877 4.875v10.089c0 2.688 2.189 4.875 4.877 4.875h15.248c2.689 0 4.877-2.187 4.877-4.875v-10.089c0-2.688-2.188-4.875-4.877-4.875zm-15.248 2.869h15.248c.969 0 1.777.686 1.967 1.599l-9.49 5.591-9.69-5.597c.192-.911.998-1.593 1.965-1.593zm15.248 14.102h-15.248c-1.109 0-2.008-.899-2.008-2.007v-7.656l9.116 5.265.009.004.02.01.129.062.004.001c.15.06.306.091.46.091.159 0 .315-.031.463-.091l.008-.002.129-.063.022-.01.009-.007 8.895-5.239v7.635c0 1.108-.899 2.007-2.008 2.007zm0 0" fill="#206FAC" sketch:type="MSShapeGroup"/><path d="M23.625 87h-15.248c-2.688 0-4.877 2.187-4.877 4.875v10.089c0 2.688 2.189 4.875 4.877 4.875h15.248c2.689 0 4.877-2.187 4.877-4.875v-10.089c0-2.688-2.188-4.875-4.877-4.875zm-15.248 2.869h15.248c.969 0 1.777.686 1.967 1.599l-9.49 5.591-9.69-5.597c.192-.911.998-1.593 1.965-1.593zm15.248 14.102h-15.248c-1.109 0-2.008-.899-2.008-2.007v-7.656l9.116 5.265.009.004.02.01.129.062.004.001c.15.06.306.091.46.091.159 0 .315-.031.463-.091l.008-.002.129-.063.022-.01.009-.007 8.895-5.239v7.635c0 1.108-.899 2.007-2.008 2.007zm0 0" fill="#fff" sketch:type="MSShapeGroup"/><path d="M23.625 47h-15.248c-2.688 0-4.877 2.187-4.877 4.875v10.089c0 2.688 2.189 4.875 4.877 4.875h15.248c2.689 0 4.877-2.187 4.877-4.875v-10.089c0-2.688-2.188-4.875-4.877-4.875zm-15.248 2.869h15.248c.969 0 1.777.686 1.967 1.599l-9.49 5.591-9.69-5.597c.192-.911.998-1.593 1.965-1.593zm15.248 14.102h-15.248c-1.109 0-2.008-.899-2.008-2.007v-7.656l9.116 5.265.009.004.02.01.129.062.004.001c.15.06.306.091.46.091.159 0 .315-.031.463-.091l.008-.002.129-.063.022-.01.009-.007 8.895-5.239v7.635c0 1.108-.899 2.007-2.008 2.007zm0 0" fill="#67737B" sketch:type="MSShapeGroup"/><path d="M23.625 7h-15.248c-2.688 0-4.877 2.187-4.877 4.875v10.089c0 2.688 2.189 4.875 4.877 4.875h15.248c2.689 0 4.877-2.187 4.877-4.875v-10.089c0-2.688-2.188-4.875-4.877-4.875zm-15.248 2.869h15.248c.969 0 1.777.686 1.967 1.599l-9.49 5.591-9.69-5.597c.192-.911.998-1.593 1.965-1.593zm15.248 14.102h-15.248c-1.109 0-2.008-.899-2.008-2.007v-7.656l9.116 5.265.009.004.02.01.129.062.004.001c.15.06.306.091.46.091.159 0 .315-.031.463-.091l.008-.002.129-.063.022-.01.009-.007 8.895-5.239v7.635c0 1.108-.899 2.007-2.008 2.007zm0 0" fill="#3A434E" sketch:type="MSShapeGroup"/></g></svg>