<?xml version="1.0" encoding="UTF-8" standalone="no"?>
<svg width="22px" height="32px" viewBox="0 0 22 32" version="1.1" xmlns="http://www.w3.org/2000/svg" xmlns:xlink="http://www.w3.org/1999/xlink" xmlns:sketch="http://www.bohemiancoding.com/sketch/ns">
    <title>event--pin</title>
    <description>Created with Sketch (http://www.bohemiancoding.com/sketch)</description>
    <defs></defs>
    <g id="Points-of-interest" stroke="none" stroke-width="1" fill="none" fill-rule="evenodd" sketch:type="MSPage">
        <g id="event--pin" sketch:type="MSLayerGroup" transform="translate(-1.000000, 0.000000)">
            <path d="M16.497,29.984 C16.497,31.089 14.481,31.984 11.997,31.984 C9.511,31.984 7.497,31.089 7.497,29.984 C7.497,28.88 9.511,27.984 11.997,27.984 C14.481,27.984 16.497,28.88 16.497,29.984" id="Fill-1" fill-opacity="0.2" fill="#1D508D" sketch:type="MSShapeGroup"></path>
            <path d="M11.997,0.016 C18.072,0.016 22.997,4.378 22.997,10.935 C22.997,17.343 17.447,20.095 14.491,24.192 C12.073,27.538 11.997,30.016 11.997,30.016 C11.997,30.016 11.979,27.525 9.502,24.192 C6.462,20.095 0.997,17.531 0.997,10.935 C0.997,4.376 5.923,0.016 11.997,0.016" id="Fill-2" fill="#684E79" sketch:type="MSShapeGroup"></path>
            <path d="M7.967,5.716 C7.94,5.687 7.932,5.643 7.949,5.605 C7.967,5.565 7.992,5.539 8.047,5.54 L9.576,5.551 L10.053,4.099 C10.07,4.059 10.103,4.03 10.143,4.025 C10.19,4.019 10.225,4.044 10.248,4.077 L11.004,5.412 L12.504,5.098 C12.545,5.087 12.586,5.107 12.609,5.139 C12.635,5.173 12.635,5.218 12.615,5.256 L11.838,6.581 L12.861,7.72 C12.893,7.744 12.894,7.794 12.883,7.831 C12.861,7.87 12.826,7.897 12.783,7.897 L11.246,7.877 L10.773,9.34 C10.758,9.379 10.723,9.406 10.682,9.413 L10.672,9.413 C10.633,9.413 10.598,9.393 10.578,9.358 L9.824,8.023 L8.322,8.337 C8.283,8.347 8.238,8.333 8.215,8.295 C8.193,8.263 8.187,8.215 8.209,8.178 L8.988,6.86 L7.967,5.716" id="Fill-3" fill="#FFFFFF" sketch:type="MSShapeGroup"></path>
            <path d="M12.715,8.559 C12.736,8.518 12.773,8.497 12.812,8.497 L14.244,8.485 L14.668,7.114 C14.678,7.072 14.717,7.044 14.756,7.039 C14.795,7.035 14.838,7.055 14.859,7.089 L15.586,8.323 L16.978,8.005 C17.02,7.997 17.063,8.012 17.086,8.048 C17.115,8.082 17.115,8.124 17.096,8.162 L16.389,9.406 L17.361,10.458 C17.393,10.489 17.398,10.529 17.383,10.568 C17.365,10.608 17.328,10.636 17.285,10.636 L15.853,10.645 L15.437,12.013 C15.424,12.052 15.387,12.076 15.348,12.085 L15.336,12.085 C15.299,12.085 15.266,12.065 15.24,12.032 L14.512,10.802 L13.121,11.123 C13.082,11.131 13.037,11.117 13.012,11.078 C12.986,11.049 12.984,11.003 13.006,10.966 L13.711,9.721 L12.738,8.673 C12.707,8.643 12.701,8.596 12.715,8.559" id="Fill-4" fill="#FFFFFF" sketch:type="MSShapeGroup"></path>
            <path d="M11.609,15.005 C11.63,15.043 11.625,15.086 11.6,15.12 C11.574,15.155 11.529,15.169 11.488,15.157 L9.293,14.603 L8.096,16.53 C8.08,16.559 8.043,16.58 8.006,16.58 L7.992,16.58 C7.949,16.569 7.918,16.546 7.904,16.502 L7.291,14.319 L5.025,14.248 C4.978,14.247 4.943,14.225 4.926,14.181 C4.91,14.144 4.92,14.099 4.95,14.069 L6.532,12.444 L5.463,10.449 C5.443,10.407 5.447,10.366 5.473,10.332 C5.498,10.299 5.541,10.285 5.582,10.296 L7.777,10.848 L8.975,8.926 C9,8.887 9.037,8.871 9.082,8.875 C9.123,8.879 9.158,8.912 9.168,8.955 L9.785,11.131 L12.049,11.207 C12.09,11.207 12.129,11.234 12.144,11.272 C12.158,11.31 12.152,11.357 12.123,11.387 L10.541,13.011 L11.609,15.005" id="Fill-5" fill="#FFFFFF" sketch:type="MSShapeGroup"></path>
            <path d="M17.506,11.665 C17.548,11.778 18.478,14.48 17.344,16.771 C17.332,16.802 17.309,16.819 17.281,16.826 C17.266,16.835 17.252,16.838 17.232,16.838 C17.199,16.838 17.168,16.822 17.144,16.793 C17.131,16.769 15.432,14.44 12.234,14.21 C12.201,14.206 12.164,14.181 12.148,14.146 L11.752,13.324 C11.732,13.278 11.744,13.234 11.777,13.199 L12.617,12.425 C12.646,12.397 12.69,12.392 12.731,12.405 C12.76,12.419 15.9,13.694 17.193,16.389 C17.277,15.695 17.324,13.953 16.107,12.342 C16.084,12.311 16.08,12.271 16.094,12.236 L16.381,11.554 C16.398,11.516 16.443,11.489 16.492,11.49 L17.42,11.598 C17.461,11.6 17.49,11.628 17.506,11.665" id="Fill-6" fill="#FFFFFF" sketch:type="MSShapeGroup"></path>
        </g>
    </g>
</svg>