<svg width="32" height="232" viewBox="0 0 32 232" xmlns="http://www.w3.org/2000/svg"><title>event</title><g fill="none"><path d="M10.787 168.756l-1.489 2.674c-.042.074-.031.168.009.236.046.076.129.104.206.084l2.871-.637 1.445 2.711c.037.069.101.112.18.112h.015c.079-.013.149-.069.176-.151l.905-2.969 2.94.04h.002c.079 0 .151-.053.188-.131.025-.075.024-.176-.037-.227l-1.96-2.311 1.487-2.689c.039-.076.039-.168-.009-.237-.048-.063-.124-.106-.204-.085l-2.87.64-1.446-2.709c-.044-.068-.112-.119-.199-.105-.078.01-.141.066-.172.146l-.916 2.95-2.926-.021c-.104-.004-.153.048-.185.129-.035.077-.019.167.032.228l1.955 2.322zm7.134 3.445c-.03.074-.019.168.04.229l1.866 2.128-1.354 2.528c-.039.075-.037.17.014.229.049.078.134.103.207.089l2.661-.653 1.397 2.497c.046.066.109.109.18.109h.021c.077-.017.146-.068.173-.15l.796-2.773 2.74-.019c.081 0 .152-.054.187-.137.027-.079.019-.161-.041-.225l-1.862-2.13 1.354-2.526c.037-.078.037-.165-.018-.233-.044-.072-.125-.105-.206-.086l-2.666.647-1.389-2.508c-.04-.069-.12-.106-.199-.1-.074.01-.147.069-.168.151l-.81 2.783-2.737.022c-.078 0-.148.044-.185.128zm-4.164 9.033l3.026-3.295c.058-.06.07-.154.044-.235-.03-.073-.106-.129-.185-.129l-4.331-.157-1.18-4.414c-.02-.084-.086-.152-.165-.162-.083-.009-.155.025-.204.103l-2.292 3.902-4.199-1.12c-.078-.024-.161.005-.21.072-.048.068-.055.154-.018.237l2.047 4.048-3.027 3.3c-.06.06-.078.151-.047.226.033.087.099.134.19.136l4.335.143 1.174 4.43c.025.088.086.136.167.158h.027c.072 0 .139-.041.172-.099l2.292-3.913 4.2 1.127c.076.021.164-.005.21-.077.049-.07.058-.156.019-.232l-2.044-4.049zm13.327-2.728c-.027-.078-.09-.137-.165-.141l-1.776-.215c-.092-.002-.179.05-.212.129l-.55 1.383c-.027.07-.017.152.025.217 2.33 3.269 2.239 6.803 2.078 8.211-2.472-5.467-8.483-8.057-8.538-8.084-.076-.029-.162-.017-.218.039l-1.607 1.573c-.064.069-.085.16-.045.252l.757 1.667c.03.073.1.121.164.129 6.117.469 9.367 5.195 9.396 5.245.042.059.107.089.17.089l.09-.021c.054-.014.097-.051.122-.112 2.169-4.65.388-10.132.31-10.361zm0 0" fill="#674D79"/><path d="M10.787 128.756l-1.489 2.674c-.042.074-.031.168.009.236.046.076.129.104.206.084l2.871-.637 1.445 2.711c.037.069.101.112.18.112h.015c.079-.013.149-.069.176-.151l.905-2.969 2.94.04h.002c.079 0 .151-.053.188-.131.025-.075.024-.176-.037-.227l-1.96-2.311 1.487-2.689c.039-.076.039-.168-.009-.237-.048-.063-.124-.106-.204-.085l-2.87.64-1.446-2.709c-.044-.068-.112-.119-.199-.105-.078.01-.141.066-.172.146l-.916 2.95-2.926-.021c-.104-.004-.153.048-.185.129-.035.077-.019.167.032.228l1.955 2.322zm7.134 3.445c-.03.074-.019.168.04.229l1.866 2.128-1.354 2.528c-.039.075-.037.17.014.229.049.078.134.103.207.089l2.661-.653 1.397 2.497c.046.066.109.109.18.109h.021c.077-.017.146-.068.173-.15l.796-2.773 2.74-.019c.081 0 .152-.054.187-.137.027-.079.019-.161-.041-.225l-1.862-2.13 1.354-2.526c.037-.078.037-.165-.018-.233-.044-.072-.125-.105-.206-.086l-2.666.647-1.389-2.508c-.04-.069-.12-.106-.199-.1-.074.01-.147.069-.168.151l-.81 2.783-2.737.022c-.078 0-.148.044-.185.128zm-4.164 9.033l3.026-3.295c.058-.06.07-.154.044-.235-.03-.073-.106-.129-.185-.129l-4.331-.157-1.18-4.414c-.02-.084-.086-.152-.165-.162-.083-.009-.155.025-.204.103l-2.292 3.902-4.199-1.12c-.078-.024-.161.005-.21.072-.048.068-.055.154-.018.237l2.047 4.048-3.027 3.3c-.06.06-.078.151-.047.226.033.087.099.134.19.136l4.335.143 1.174 4.43c.025.088.086.136.167.158h.027c.072 0 .139-.041.172-.099l2.292-3.913 4.2 1.127c.076.021.164-.005.21-.077.049-.07.058-.156.019-.232l-2.044-4.049zm13.327-2.728c-.027-.078-.09-.137-.165-.141l-1.776-.215c-.092-.002-.179.05-.212.129l-.55 1.383c-.027.07-.017.152.025.217 2.33 3.269 2.239 6.803 2.078 8.211-2.472-5.467-8.483-8.057-8.538-8.084-.076-.029-.162-.017-.218.039l-1.607 1.573c-.064.069-.085.16-.045.252l.757 1.667c.03.073.1.121.164.129 6.117.469 9.367 5.195 9.396 5.245.042.059.107.089.17.089l.09-.021c.054-.014.097-.051.122-.112 2.169-4.65.388-10.132.31-10.361zm0 0" fill="#206FAC"/><path d="M10.787 88.756l-1.489 2.674c-.042.074-.031.168.009.236.046.076.129.104.206.084l2.871-.637 1.445 2.711c.037.069.101.112.18.112h.015c.079-.013.149-.069.176-.151l.905-2.969 2.94.04h.002c.079 0 .151-.053.188-.131.025-.075.024-.176-.037-.227l-1.96-2.311 1.487-2.689c.039-.076.039-.168-.009-.237-.048-.063-.124-.106-.204-.085l-2.87.64-1.446-2.709c-.044-.068-.112-.119-.199-.105-.078.01-.141.066-.172.146l-.916 2.95-2.926-.021c-.104-.004-.153.048-.185.129-.035.077-.019.167.032.228l1.955 2.322zm7.134 3.445c-.03.074-.019.168.04.229l1.866 2.128-1.354 2.528c-.039.075-.037.17.014.229.049.078.134.103.207.089l2.661-.653 1.397 2.497c.046.066.109.109.18.109h.021c.077-.017.146-.068.173-.15l.796-2.773 2.74-.019c.081 0 .152-.054.187-.137.027-.079.019-.161-.041-.225l-1.862-2.13 1.354-2.526c.037-.078.037-.165-.018-.233-.044-.072-.125-.105-.206-.086l-2.666.647-1.389-2.508c-.04-.069-.12-.106-.199-.1-.074.01-.147.069-.168.151l-.81 2.783-2.737.022c-.078 0-.148.044-.185.128zm-4.164 9.033l3.026-3.295c.058-.06.07-.154.044-.235-.03-.073-.106-.129-.185-.129l-4.331-.157-1.18-4.414c-.02-.084-.086-.152-.165-.162-.083-.009-.155.025-.204.103l-2.292 3.902-4.199-1.12c-.078-.024-.161.005-.21.072-.048.068-.055.154-.018.237l2.047 4.048-3.027 3.3c-.06.06-.078.151-.047.226.033.087.099.134.19.136l4.335.143 1.174 4.43c.025.088.086.136.167.158h.027c.072 0 .139-.041.172-.099l2.292-3.913 4.2 1.127c.076.021.164-.005.21-.077.049-.07.058-.156.019-.232l-2.044-4.049zm13.327-2.728c-.027-.078-.09-.137-.165-.141l-1.776-.215c-.092-.002-.179.05-.212.129l-.55 1.383c-.027.07-.017.152.025.217 2.33 3.269 2.239 6.803 2.078 8.211-2.472-5.467-8.483-8.057-8.538-8.084-.076-.029-.162-.017-.218.039l-1.607 1.573c-.064.069-.085.16-.045.252l.757 1.667c.03.073.1.121.164.129 6.117.469 9.367 5.195 9.396 5.245.042.059.107.089.17.089l.09-.021c.054-.014.097-.051.122-.112 2.169-4.65.388-10.132.31-10.361zm0 0" fill="#fff"/><path d="M10.787 48.756l-1.489 2.674c-.042.074-.031.168.009.236.046.076.129.104.206.084l2.871-.637 1.445 2.711c.037.069.101.112.18.112h.015c.079-.013.149-.069.176-.151l.905-2.969 2.94.04h.002c.079 0 .151-.053.188-.131.025-.075.024-.176-.037-.227l-1.96-2.311 1.487-2.689c.039-.076.039-.168-.009-.237-.048-.063-.124-.106-.204-.085l-2.87.64-1.446-2.709c-.044-.068-.112-.119-.199-.105-.078.01-.141.066-.172.146l-.916 2.95-2.926-.021c-.104-.004-.153.048-.185.129-.035.077-.019.167.032.228l1.955 2.322zm7.134 3.445c-.03.074-.019.168.04.229l1.866 2.128-1.354 2.528c-.039.075-.037.17.014.229.049.078.134.103.207.089l2.661-.653 1.397 2.497c.046.066.109.109.18.109h.021c.077-.017.146-.068.173-.15l.796-2.773 2.74-.019c.081 0 .152-.054.187-.137.027-.079.019-.161-.041-.225l-1.862-2.13 1.354-2.526c.037-.078.037-.165-.018-.233-.044-.072-.125-.105-.206-.086l-2.666.647-1.389-2.508c-.04-.069-.12-.106-.199-.1-.074.01-.147.069-.168.151l-.81 2.783-2.737.022c-.078 0-.148.044-.185.128zm-4.164 9.033l3.026-3.295c.058-.06.07-.154.044-.235-.03-.073-.106-.129-.185-.129l-4.331-.157-1.18-4.414c-.02-.084-.086-.152-.165-.162-.083-.009-.155.025-.204.103l-2.292 3.902-4.199-1.12c-.078-.024-.161.005-.21.072-.048.068-.055.154-.018.237l2.047 4.048-3.027 3.3c-.06.06-.078.151-.047.226.033.087.099.134.19.136l4.335.143 1.174 4.43c.025.088.086.136.167.158h.027c.072 0 .139-.041.172-.099l2.292-3.913 4.2 1.127c.076.021.164-.005.21-.077.049-.07.058-.156.019-.232l-2.044-4.049zm13.327-2.728c-.027-.078-.09-.137-.165-.141l-1.776-.215c-.092-.002-.179.05-.212.129l-.55 1.383c-.027.07-.017.152.025.217 2.33 3.269 2.239 6.803 2.078 8.211-2.472-5.467-8.483-8.057-8.538-8.084-.076-.029-.162-.017-.218.039l-1.607 1.573c-.064.069-.085.16-.045.252l.757 1.667c.03.073.1.121.164.129 6.117.469 9.367 5.195 9.396 5.245.042.059.107.089.17.089l.09-.021c.054-.014.097-.051.122-.112 2.169-4.65.388-10.132.31-10.361zm0 0" fill="#67747C"/><path d="M10.787 8.756l-1.489 2.674c-.042.074-.031.168.009.236.046.076.129.104.206.084l2.871-.637 1.445 2.711c.037.069.101.112.18.112h.015c.079-.013.149-.069.176-.151l.905-2.969 2.94.04h.002c.079 0 .151-.053.188-.131.025-.075.024-.176-.037-.227l-1.96-2.311 1.487-2.689c.039-.076.039-.168-.009-.237-.048-.063-.124-.106-.204-.085l-2.87.64-1.446-2.709c-.044-.068-.112-.119-.199-.105-.078.01-.141.066-.172.146l-.916 2.95-2.926-.021c-.104-.004-.153.048-.185.129-.035.077-.019.167.032.228l1.955 2.322zm7.134 3.445c-.03.074-.019.168.04.229l1.866 2.128-1.354 2.528c-.039.075-.037.17.014.229.049.078.134.103.207.089l2.661-.653 1.397 2.497c.046.066.109.109.18.109h.021c.077-.017.146-.068.173-.15l.796-2.773 2.74-.019c.081 0 .152-.054.187-.137.027-.079.019-.161-.041-.225l-1.862-2.13 1.354-2.526c.037-.078.037-.165-.018-.233-.044-.072-.125-.105-.206-.086l-2.666.647-1.389-2.508c-.04-.069-.12-.106-.199-.1-.074.01-.147.069-.168.151l-.81 2.783-2.737.022c-.078 0-.148.044-.185.128zm-4.164 9.033l3.026-3.295c.058-.06.07-.154.044-.235-.03-.073-.106-.129-.185-.129l-4.331-.157-1.18-4.414c-.02-.084-.086-.152-.165-.162-.083-.009-.155.025-.204.103l-2.292 3.902-4.199-1.12c-.078-.024-.161.005-.21.072-.048.068-.055.154-.018.237l2.047 4.048-3.027 3.3c-.06.06-.078.151-.047.226.033.087.099.134.19.136l4.335.143 1.174 4.43c.025.088.086.136.167.158h.027c.072 0 .139-.041.172-.099l2.292-3.913 4.2 1.127c.076.021.164-.005.21-.077.049-.07.058-.156.019-.232l-2.044-4.049zm13.327-2.728c-.027-.078-.09-.137-.165-.141l-1.776-.215c-.092-.002-.179.05-.212.129l-.55 1.383c-.027.07-.017.152.025.217 2.33 3.269 2.239 6.803 2.078 8.211-2.472-5.467-8.483-8.057-8.538-8.084-.076-.029-.162-.017-.218.039l-1.607 1.573c-.064.069-.085.16-.045.252l.757 1.667c.03.073.1.121.164.129 6.117.469 9.367 5.195 9.396 5.245.042.059.107.089.17.089l.09-.021c.054-.014.097-.051.122-.112 2.169-4.65.388-10.132.31-10.361zm0 0" fill="#3B444F"/></g></svg>