<svg width="32" height="232" xmlns="http://www.w3.org/2000/svg" xmlns:sketch="http://www.bohemiancoding.com/sketch/ns"><title>expand-full-screen</title><g sketch:type="MSPage" fill="none"><path d="M29.156 123h-26.311c-1.57 0-2.844 1.293-2.844 2.888v20.222c0 1.597 1.274 2.89 2.844 2.89h26.311c1.57 0 2.844-1.293 2.844-2.89v-20.222c0-1.595-1.274-2.888-2.844-2.888zm-26.311 2.888h26.311v20.164h-26.311v-20.164zm16.113 12.597l4.325-4.391v2.874h2.096v-6.563h-6.406v2.13h2.685l-4.28 4.346 1.58 1.603zm-5.93 1.656h-2.683l4.278-4.347-1.58-1.604-4.325 4.393v-2.874h-2.096v6.563h6.406v-2.13zm0 0" fill="#206FAC" sketch:type="MSShapeGroup"/><path d="M29.156 83h-26.311c-1.57 0-2.844 1.293-2.844 2.888v20.222c0 1.597 1.274 2.89 2.844 2.89h26.311c1.57 0 2.844-1.293 2.844-2.89v-20.222c0-1.595-1.274-2.888-2.844-2.888zm-26.311 2.888h26.311v20.164h-26.311v-20.164zm16.113 12.597l4.325-4.391v2.874h2.096v-6.563h-6.406v2.13h2.685l-4.28 4.346 1.58 1.603zm-5.93 1.656h-2.683l4.278-4.347-1.58-1.604-4.325 4.393v-2.874h-2.096v6.563h6.406v-2.13zm0 0" fill="#fff" sketch:type="MSShapeGroup"/><path d="M29.156 43h-26.311c-1.57 0-2.844 1.293-2.844 2.888v20.222c0 1.597 1.274 2.89 2.844 2.89h26.311c1.57 0 2.844-1.293 2.844-2.89v-20.222c0-1.595-1.274-2.888-2.844-2.888zm-26.311 2.888h26.311v20.164h-26.311v-20.164zm16.113 12.597l4.325-4.391v2.874h2.096v-6.563h-6.406v2.13h2.685l-4.28 4.346 1.58 1.603zm-5.93 1.656h-2.683l4.278-4.347-1.58-1.604-4.325 4.393v-2.874h-2.096v6.563h6.406v-2.13zm0 0" fill="#67737B" sketch:type="MSShapeGroup"/><path d="M29.156 3h-26.311c-1.57 0-2.844 1.293-2.844 2.888v20.222c0 1.597 1.274 2.89 2.844 2.89h26.311c1.57 0 2.844-1.293 2.844-2.89v-20.222c0-1.595-1.274-2.888-2.844-2.888zm-26.311 2.888h26.311v20.164h-26.311v-20.164zm16.113 12.597l4.325-4.391v2.874h2.096v-6.563h-6.406v2.13h2.685l-4.28 4.346 1.58 1.603zm-5.93 1.656h-2.683l4.278-4.347-1.58-1.604-4.325 4.393v-2.874h-2.096v6.563h6.406v-2.13zm0 0" fill="#3A434E" sketch:type="MSShapeGroup"/></g></svg>