<svg width="32" height="232" xmlns="http://www.w3.org/2000/svg" xmlns:sketch="http://www.bohemiancoding.com/sketch/ns"><title>expand</title><g sketch:type="MSPage" fill="none"><path d="M24.191 146.569l-6.511-6.463 1.853-1.853 6.463 6.413v-3.206h2.504v7.615h-7.715v-2.506h3.406zm-18.185-14.879h-2.506v-7.615h7.717v2.505h-3.358l6.463 6.463-1.853 1.853-6.463-6.362v3.156zm0 0" fill="#206FAC" sketch:type="MSShapeGroup"/><path d="M24.191 106.569l-6.511-6.463 1.853-1.853 6.463 6.413v-3.206h2.504v7.615h-7.715v-2.506h3.406zm-18.185-14.879h-2.506v-7.615h7.717v2.505h-3.358l6.463 6.463-1.853 1.853-6.463-6.362v3.156zm0 0" fill="#fff" sketch:type="MSShapeGroup"/><path d="M24.191 66.569l-6.511-6.463 1.853-1.853 6.463 6.413v-3.206h2.504v7.615h-7.715v-2.506h3.406zm-18.185-14.879h-2.506v-7.615h7.717v2.505h-3.358l6.463 6.463-1.853 1.853-6.463-6.362v3.156zm0 0" fill="#67737B" sketch:type="MSShapeGroup"/><path d="M24.191 26.569l-6.511-6.463 1.853-1.853 6.463 6.413v-3.206h2.504v7.615h-7.715v-2.506h3.406zm-18.185-14.879h-2.506v-7.615h7.717v2.505h-3.358l6.463 6.463-1.853 1.853-6.463-6.362v3.156zm0 0" fill="#3A434E" sketch:type="MSShapeGroup"/></g></svg>