<?xml version="1.0" encoding="UTF-8" standalone="no"?>
<svg width="32px" height="232px" viewBox="0 0 32 232" version="1.1" xmlns="http://www.w3.org/2000/svg" xmlns:xlink="http://www.w3.org/1999/xlink" xmlns:sketch="http://www.bohemiancoding.com/sketch/ns">
    <title>facebook</title>
    <description>Created with Sketch (http://www.bohemiancoding.com/sketch)</description>
    <defs></defs>
    <g id="Social" stroke="none" stroke-width="1" fill="none" fill-rule="evenodd" sketch:type="MSPage">
        <path d="M11.787,167.817 C11.834,167.303 12.027,166.761 12.377,166.195 C12.724,165.63 13.287,165.123 14.066,164.676 C14.846,164.225 15.971,164 17.437,164 L21.572,164 L21.572,168.506 L18.545,168.506 C18.244,168.506 17.967,168.618 17.715,168.841 C17.465,169.063 17.336,169.273 17.336,169.469 L17.336,172.273 L21.572,172.273 C21.527,172.822 21.478,173.355 21.424,173.869 L21.254,175.229 C21.187,175.69 21.119,176.116 21.053,176.51 L17.304,176.51 L17.304,189 L11.722,189 L11.722,176.51 L9,176.51 L9,172.273 L11.722,172.273 L11.722,168.824 C11.722,168.669 11.742,168.333 11.787,167.817 Z M11.787,167.817" id="facebook--lp-blue" fill="#1D4F8D" sketch:type="MSShapeGroup"></path>
        <path d="M11.787,127.817 C11.834,127.303 12.027,126.761 12.377,126.195 C12.724,125.63 13.287,125.123 14.066,124.676 C14.846,124.225 15.971,124 17.437,124 L21.572,124 L21.572,128.506 L18.545,128.506 C18.244,128.506 17.967,128.618 17.715,128.841 C17.465,129.063 17.336,129.273 17.336,129.469 L17.336,132.273 L21.572,132.273 C21.527,132.822 21.478,133.355 21.424,133.869 L21.254,135.229 C21.187,135.69 21.119,136.116 21.053,136.51 L17.304,136.51 L17.304,149 L11.722,149 L11.722,136.51 L9,136.51 L9,132.273 L11.722,132.273 L11.722,128.824 C11.722,128.669 11.742,128.333 11.787,127.817 Z M11.787,127.817" id="facebook--white" fill="#FFFFFF" sketch:type="MSShapeGroup"></path>
        <path d="M11.787,87.817 C11.834,87.303 12.027,86.761 12.377,86.195 C12.724,85.63 13.287,85.123 14.066,84.676 C14.846,84.225 15.971,84 17.437,84 L21.572,84 L21.572,88.506 L18.545,88.506 C18.244,88.506 17.967,88.618 17.715,88.841 C17.465,89.063 17.336,89.273 17.336,89.469 L17.336,92.273 L21.572,92.273 C21.527,92.822 21.478,93.355 21.424,93.869 L21.254,95.229 C21.187,95.69 21.119,96.116 21.053,96.51 L17.304,96.51 L17.304,109 L11.722,109 L11.722,96.51 L9,96.51 L9,92.273 L11.722,92.273 L11.722,88.824 C11.722,88.669 11.742,88.333 11.787,87.817 Z M11.787,87.817" id="facebook--subdued-grey" fill="#E5EDF5" sketch:type="MSShapeGroup"></path>
        <path d="M11.787,47.817 C11.834,47.303 12.027,46.761 12.377,46.195 C12.724,45.63 13.287,45.123 14.066,44.676 C14.846,44.225 15.971,44 17.437,44 L21.572,44 L21.572,48.506 L18.545,48.506 C18.244,48.506 17.967,48.618 17.715,48.841 C17.465,49.063 17.336,49.273 17.336,49.469 L17.336,52.273 L21.572,52.273 C21.527,52.822 21.478,53.355 21.424,53.869 L21.254,55.229 C21.187,55.69 21.119,56.116 21.053,56.51 L17.304,56.51 L17.304,69 L11.722,69 L11.722,56.51 L9,56.51 L9,52.273 L11.722,52.273 L11.722,48.824 C11.722,48.669 11.742,48.333 11.787,47.817 Z M11.787,47.817" id="facebook--body-grey" fill="#67737B" sketch:type="MSShapeGroup"></path>
        <path d="M11.787,7.817 C11.834,7.303 12.027,6.761 12.377,6.195 C12.724,5.63 13.287,5.123 14.066,4.676 C14.846,4.225 15.971,4 17.437,4 L21.572,4 L21.572,8.506 L18.545,8.506 C18.244,8.506 17.967,8.618 17.715,8.841 C17.465,9.063 17.336,9.273 17.336,9.469 L17.336,12.273 L21.572,12.273 C21.527,12.822 21.478,13.355 21.424,13.869 L21.254,15.229 C21.187,15.69 21.119,16.116 21.053,16.51 L17.304,16.51 L17.304,29 L11.722,29 L11.722,16.51 L9,16.51 L9,12.273 L11.722,12.273 L11.722,8.824 C11.722,8.669 11.742,8.333 11.787,7.817 Z M11.787,7.817" id="facebook--title-grey" fill="#3A434E" sketch:type="MSShapeGroup"></path>
    </g>
</svg>