<?xml version="1.0" encoding="UTF-8" standalone="no"?>
<svg width="32px" height="32px" viewBox="0 0 32 32" version="1.1" xmlns="http://www.w3.org/2000/svg" xmlns:xlink="http://www.w3.org/1999/xlink" xmlns:sketch="http://www.bohemiancoding.com/sketch/ns">
    <title>facebook--body-grey</title>
    <description>Created with Sketch (http://www.bohemiancoding.com/sketch)</description>
    <defs></defs>
    <g id="Social" stroke="none" stroke-width="1" fill="none" fill-rule="evenodd" sketch:type="MSPage">
        <path d="M11.787,7.817 C11.834,7.303 12.027,6.761 12.377,6.195 C12.724,5.63 13.287,5.123 14.066,4.676 C14.846,4.225 15.971,4 17.437,4 L21.572,4 L21.572,8.506 L18.545,8.506 C18.244,8.506 17.967,8.618 17.715,8.841 C17.465,9.063 17.336,9.273 17.336,9.469 L17.336,12.273 L21.572,12.273 C21.527,12.822 21.478,13.355 21.424,13.869 L21.254,15.229 C21.187,15.69 21.119,16.116 21.053,16.51 L17.304,16.51 L17.304,29 L11.722,29 L11.722,16.51 L9,16.51 L9,12.273 L11.722,12.273 L11.722,8.824 C11.722,8.669 11.742,8.333 11.787,7.817 Z M11.787,7.817" id="facebook--body-grey" fill="#67737B" sketch:type="MSShapeGroup"></path>
    </g>
</svg>