<svg width="32" height="232" xmlns="http://www.w3.org/2000/svg" xmlns:sketch="http://www.bohemiancoding.com/sketch/ns"><title>facebook</title><g sketch:type="MSPage" fill="none"><path d="M12.66 8.359c.045-.452.229-.929.563-1.427.331-.497.869-.943 1.612-1.337.745-.397 1.818-.595 3.218-.595h3.947v3.965h-2.889c-.287 0-.552.099-.792.295-.239.195-.362.38-.362.553v2.468h4.043c-.043.483-.09.952-.141 1.404l-.162 1.197c-.064.406-.129.781-.192 1.127h-3.578v10.991h-5.328v-10.991h-2.598v-3.729h2.598v-3.035c0-.136.019-.432.062-.886zm0 0" fill="#3A434E" sketch:type="MSShapeGroup"/><path d="M13.16 48.359c.045-.452.229-.929.563-1.427.331-.497.869-.943 1.612-1.337.745-.397 1.818-.595 3.218-.595h3.947v3.965h-2.889c-.287 0-.552.099-.792.295-.239.195-.362.38-.362.553v2.468h4.043c-.043.483-.09.952-.141 1.404l-.162 1.197c-.064.406-.129.781-.192 1.127h-3.578v10.991h-5.328v-10.991h-2.598v-3.729h2.598v-3.035c0-.136.019-.432.062-.886zm0 0" fill="#67737B" sketch:type="MSShapeGroup"/><path d="M13.66 88.359c.045-.452.229-.929.563-1.427.331-.497.869-.943 1.612-1.337.745-.397 1.818-.595 3.218-.595h3.947v3.965h-2.889c-.287 0-.552.099-.792.295-.239.195-.362.38-.362.553v2.468h4.043c-.043.483-.09.952-.141 1.404l-.162 1.197c-.064.406-.129.781-.192 1.127h-3.578v10.991h-5.328v-10.991h-2.598v-3.729h2.598v-3.035c0-.136.019-.432.062-.886zm0 0" fill="#fff" sketch:type="MSShapeGroup"/><path d="M13.66 128.359c.045-.452.229-.929.563-1.427.331-.497.869-.943 1.612-1.337.745-.397 1.818-.595 3.218-.595h3.947v3.965h-2.889c-.287 0-.552.099-.792.295-.239.195-.362.38-.362.553v2.468h4.043c-.043.483-.09.952-.141 1.404l-.162 1.197c-.064.406-.129.781-.192 1.127h-3.578v10.991h-5.328v-10.991h-2.598v-3.729h2.598v-3.035c0-.136.019-.432.062-.886zm0 0" fill="#206FAC" sketch:type="MSShapeGroup"/></g></svg>