<svg width="32" height="232" viewBox="0 0 32 232" xmlns="http://www.w3.org/2000/svg"><title>family</title><g fill="none"><path d="M20.982 127.616c1.519 0 2.754-1.259 2.754-2.808 0-1.548-1.235-2.809-2.754-2.809-1.524 0-2.76 1.261-2.76 2.809 0 1.549 1.235 2.808 2.76 2.808m3.667.644h-7.09c-1.591 0-3.327 1.571-3.327 3.418l-.013 7.524c.008.703.581 1.276 1.272 1.276.691 0 1.254-.564 1.269-1.263v-6.82h.707l.004.005v15.989c0 .888.711 1.61 1.582 1.61.872 0 1.578-.722 1.578-1.61v-8.301h.942v8.301c0 .888.707 1.61 1.58 1.61.872 0 1.578-.722 1.578-1.61v-15.988l.004-.006h.717v6.893h.001c.015.701.579 1.266 1.269 1.266.698 0 1.268-.575 1.275-1.299l-.025-7.562c0-1.862-1.733-3.433-3.326-3.433m-16.425 7.748c.951 0 1.723-.786 1.723-1.754 0-.965-.772-1.756-1.723-1.756-.95 0-1.722.792-1.722 1.756 0 .968.772 1.754 1.722 1.754m2.293.404h-4.433c-.993 0-2.078.98-2.076 2.137l-.008 4.702c.006.438.362.799.793.799.433 0 .785-.353.798-.794v-4.262h.44l.002.008c.002.082.002 9.893.002 9.992 0 .555.44 1.007.988 1.007.543 0 .985-.452.985-1.007v-5.186h.591v5.186c0 .555.442 1.007.986 1.007.545 0 .989-.452.989-1.007v-9.994l.446-.005v4.311c.013.436.366.792.798.792.436 0 .791-.36.795-.814l-.017-4.726c0-1.164-1.084-2.144-2.078-2.144" fill="#206FAC"/><path d="M20.982 87.616c1.519 0 2.754-1.259 2.754-2.808 0-1.548-1.235-2.809-2.754-2.809-1.524 0-2.76 1.261-2.76 2.809 0 1.549 1.235 2.808 2.76 2.808m3.667.644h-7.09c-1.591 0-3.327 1.571-3.327 3.418l-.013 7.524c.008.703.581 1.276 1.272 1.276.691 0 1.254-.564 1.269-1.263v-6.82h.707l.004.005v15.989c0 .888.711 1.61 1.582 1.61.872 0 1.578-.722 1.578-1.61v-8.301h.942v8.301c0 .888.707 1.61 1.58 1.61.872 0 1.578-.722 1.578-1.61v-15.988l.004-.006h.717v6.893h.001c.015.701.579 1.266 1.269 1.266.698 0 1.268-.575 1.275-1.299l-.025-7.562c0-1.862-1.733-3.433-3.326-3.433m-16.425 7.748c.951 0 1.723-.786 1.723-1.754 0-.965-.772-1.756-1.723-1.756-.95 0-1.722.792-1.722 1.756 0 .968.772 1.754 1.722 1.754m2.293.404h-4.433c-.993 0-2.078.98-2.076 2.137l-.008 4.702c.006.438.362.799.793.799.433 0 .785-.353.798-.794v-4.262h.44l.002.008c.002.082.002 9.893.002 9.992 0 .555.44 1.007.988 1.007.543 0 .985-.452.985-1.007v-5.186h.591v5.186c0 .555.442 1.007.986 1.007.545 0 .989-.452.989-1.007v-9.994l.446-.005v4.311c.013.436.366.792.798.792.436 0 .791-.36.795-.814l-.017-4.726c0-1.164-1.084-2.144-2.078-2.144" fill="#fff"/><path d="M20.982 47.616c1.519 0 2.754-1.259 2.754-2.808 0-1.548-1.235-2.809-2.754-2.809-1.524 0-2.76 1.261-2.76 2.809 0 1.549 1.235 2.808 2.76 2.808m3.667.644h-7.09c-1.591 0-3.327 1.571-3.327 3.418l-.013 7.524c.008.703.581 1.276 1.272 1.276.691 0 1.254-.564 1.269-1.263v-6.82h.707l.004.005v15.989c0 .888.711 1.61 1.582 1.61.872 0 1.578-.722 1.578-1.61v-8.301h.942v8.301c0 .888.707 1.61 1.58 1.61.872 0 1.578-.722 1.578-1.61v-15.988l.004-.006h.717v6.893h.001c.015.701.579 1.266 1.269 1.266.698 0 1.268-.575 1.275-1.299l-.025-7.562c0-1.862-1.733-3.433-3.326-3.433m-16.425 7.748c.951 0 1.723-.786 1.723-1.754 0-.965-.772-1.756-1.723-1.756-.95 0-1.722.792-1.722 1.756 0 .968.772 1.754 1.722 1.754m2.293.404h-4.433c-.993 0-2.078.98-2.076 2.137l-.008 4.702c.006.438.362.799.793.799.433 0 .785-.353.798-.794v-4.262h.44l.002.008c.002.082.002 9.893.002 9.992 0 .555.44 1.007.988 1.007.543 0 .985-.452.985-1.007v-5.186h.591v5.186c0 .555.442 1.007.986 1.007.545 0 .989-.452.989-1.007v-9.994l.446-.005v4.311c.013.436.366.792.798.792.436 0 .791-.36.795-.814l-.017-4.726c0-1.164-1.084-2.144-2.078-2.144" fill="#67737B"/><path d="M20.982 7.616c1.519 0 2.754-1.259 2.754-2.808 0-1.548-1.235-2.809-2.754-2.809-1.524 0-2.76 1.261-2.76 2.809 0 1.549 1.235 2.808 2.76 2.808m3.667.644h-7.09c-1.591 0-3.327 1.571-3.327 3.418l-.013 7.524c.008.703.581 1.276 1.272 1.276.691 0 1.254-.564 1.269-1.263v-6.82h.707l.004.005v15.989c0 .888.711 1.61 1.582 1.61.872 0 1.578-.722 1.578-1.61v-8.301h.942v8.301c0 .888.707 1.61 1.58 1.61.872 0 1.578-.722 1.578-1.61v-15.988l.004-.006h.717v6.893h.001c.015.701.579 1.266 1.269 1.266.698 0 1.268-.575 1.275-1.299l-.025-7.562c0-1.862-1.733-3.433-3.326-3.433m-16.425 7.748c.951 0 1.723-.786 1.723-1.754 0-.965-.772-1.756-1.723-1.756-.95 0-1.722.792-1.722 1.756 0 .968.772 1.754 1.722 1.754m2.293.404h-4.433c-.993 0-2.078.98-2.076 2.137l-.008 4.702c.006.438.362.799.793.799.433 0 .785-.353.798-.794v-4.262h.44l.002.008c.002.082.002 9.893.002 9.992 0 .555.44 1.007.988 1.007.543 0 .985-.452.985-1.007v-5.186h.591v5.186c0 .555.442 1.007.986 1.007.545 0 .989-.452.989-1.007v-9.994l.446-.005v4.311c.013.436.366.792.798.792.436 0 .791-.36.795-.814l-.017-4.726c0-1.164-1.084-2.144-2.078-2.144" fill="#3A434E"/></g></svg>