<svg width="32" height="232" viewBox="0 0 32 232" xmlns="http://www.w3.org/2000/svg"><title>female</title><g fill="none"><path d="M22.367 137.191c1.626-1.613 2.635-3.838 2.633-6.293.002-4.913-4.028-8.898-9.001-8.898-2.483 0-4.734.994-6.364 2.605-1.628 1.612-2.635 3.836-2.635 6.293 0 4.462 3.329 8.153 7.666 8.788v3.527h-4.74v2.64h4.74v4.147h2.671v-4.147h4.74v-2.64h-4.74v-3.527c1.948-.288 3.697-1.18 5.031-2.495zm-11.155-6.293c0-1.263.498-2.453 1.402-3.347.905-.895 2.106-1.387 3.385-1.387 1.281 0 2.481.494 3.387 1.387.902.894 1.4 2.083 1.4 3.347 0 1.264-.498 2.452-1.4 3.346-.905.893-2.106 1.385-3.387 1.385-1.279 0-2.479-.492-3.385-1.385-.904-.894-1.402-2.082-1.402-3.346zm0 0" fill="#206FAC"/><path d="M22.367 97.191c1.626-1.613 2.635-3.838 2.633-6.293.002-4.913-4.028-8.898-9.001-8.898-2.483 0-4.734.994-6.364 2.605-1.628 1.612-2.635 3.836-2.635 6.293 0 4.462 3.329 8.153 7.666 8.788v3.527h-4.74v2.64h4.74v4.147h2.671v-4.147h4.74v-2.64h-4.74v-3.527c1.948-.288 3.697-1.18 5.031-2.495zm-11.155-6.293c0-1.263.498-2.453 1.402-3.347.905-.895 2.106-1.387 3.385-1.387 1.281 0 2.481.494 3.387 1.387.902.894 1.4 2.083 1.4 3.347 0 1.264-.498 2.452-1.4 3.346-.905.893-2.106 1.385-3.387 1.385-1.279 0-2.479-.492-3.385-1.385-.904-.894-1.402-2.082-1.402-3.346zm0 0" fill="#fff"/><path d="M22.367 57.191c1.626-1.613 2.635-3.838 2.633-6.293.002-4.913-4.028-8.898-9.001-8.898-2.483 0-4.734.994-6.364 2.605-1.628 1.612-2.635 3.836-2.635 6.293 0 4.462 3.329 8.153 7.666 8.788v3.527h-4.74v2.64h4.74v4.147h2.671v-4.147h4.74v-2.64h-4.74v-3.527c1.948-.288 3.697-1.18 5.031-2.495zm-11.155-6.293c0-1.263.498-2.453 1.402-3.347.905-.895 2.106-1.387 3.385-1.387 1.281 0 2.481.494 3.387 1.387.902.894 1.4 2.083 1.4 3.347 0 1.264-.498 2.452-1.4 3.346-.905.893-2.106 1.385-3.387 1.385-1.279 0-2.479-.492-3.385-1.385-.904-.894-1.402-2.082-1.402-3.346zm0 0" fill="#67737B"/><path d="M22.367 17.191c1.626-1.613 2.635-3.838 2.633-6.293.002-4.913-4.028-8.898-9.001-8.898-2.483 0-4.734.994-6.364 2.605-1.628 1.612-2.635 3.836-2.635 6.293 0 4.462 3.329 8.153 7.666 8.788v3.527h-4.74v2.64h4.74v4.147h2.671v-4.147h4.74v-2.64h-4.74v-3.527c1.948-.288 3.697-1.18 5.031-2.495zm-11.155-6.293c0-1.263.498-2.453 1.402-3.347.905-.895 2.106-1.387 3.385-1.387 1.281 0 2.481.494 3.387 1.387.902.894 1.4 2.083 1.4 3.347 0 1.264-.498 2.452-1.4 3.346-.905.893-2.106 1.385-3.387 1.385-1.279 0-2.479-.492-3.385-1.385-.904-.894-1.402-2.082-1.402-3.346zm0 0" fill="#3A434E"/></g></svg>