<svg width="32" height="232" viewBox="0 0 32 232" xmlns="http://www.w3.org/2000/svg"><title>ferry</title><g fill="none"><path d="M10.073 126.862c0-.478.455-.825 1.076-.825h2.232v-.961c0-.596.484-1.076 1.077-1.076h1.648c.594 0 1.077.48 1.077 1.076v.961h2.226c.625 0 1.074.342 1.074.812v1.929c0 .598-.453 1.08-1.014 1.08-.517 0-1.271-.42-1.271-1.08v-.495l-5.922.041.062.454c0 .66-.74 1.08-1.245 1.08-.563 0-1.02-.482-1.02-1.08v-1.916zm-4.478 5.608c.138-.25.427-.395.802-.395l7.159-1.237c.677-.008 1.093.346 1.174.806h.012v2.001c.006.006.096.072.245.072h.59c.148 0 .249-.068.261-.098l-.006-.961.016-1.014c.077-.46.542-.811 1.102-.811l7.267 1.247h.022c.338 0 .64.133.777.372.103.175.106.393.004.58l-.141.247-.375.646-.437.8-4.883 8.582-.361-.282c-.676-.526-1.6-1.242-2.953-1.3l-.139-.006h-.025c-1.277 0-2.278.322-3.103.957-.184.128-.334.258-.468.379l-.328.305-.29-.342c-.709-.86-1.261-1.907-1.698-2.745-.16-.305-.303-.572-.425-.778-.462-.775-.827-1.394-1.165-1.978-.596-1.017-1.114-1.899-1.947-3.257-.319-.515-.656-1.089-.656-1.089-.141-.228-.156-.482-.031-.702zm21.348 14.733c-.191 0-.349-.051-.456-.079-.444-.144-.875-.19-1.093-.206l-.175-.004c-.45 0-.836.11-1.596.708l-.095.076c-.703.553-1.668 1.301-2.991 1.301-.189 0-.394-.002-.606-.047-1.093-.171-1.913-.8-2.573-1.312-.592-.464-.992-.759-1.389-.777l-.191-.006c-.496 0-.886.118-1.221.367l-.396.315c-.458.401-1.118.963-2.063 1.195-.374.086-.687.126-.98.126-1.008 0-1.774-.481-2.757-1.306-.552-.464-2.048-.738-2.825-.491-.12.035-.284.074-.481.074-.855 0-1.555-.705-1.555-1.575 0-.672.415-1.256 1.049-1.478l.082-.035c1.86-.558 3.764-.215 5.121.92.645.544 1.206.79 1.634.69.206-.045.487-.283.786-.534l.151-.122.39-.299c.858-.666 1.901-.997 3.153-.997l.224.002c1.427.072 2.379.816 3.145 1.414.443.345.861.672 1.226.733h.014c.318 0 .667-.267 1.142-.644 1.023-.802 2.21-1.555 3.995-1.425.347.025 1.021.108 1.789.334.668.227 1.099.827 1.099 1.498 0 .873-.695 1.586-1.557 1.586zm0 0" fill="#206FAC"/><path d="M10.073 86.862c0-.478.455-.825 1.076-.825h2.232v-.961c0-.596.484-1.076 1.077-1.076h1.648c.594 0 1.077.48 1.077 1.076v.961h2.226c.625 0 1.074.342 1.074.812v1.929c0 .598-.453 1.08-1.014 1.08-.517 0-1.271-.42-1.271-1.08v-.495l-5.922.041.062.454c0 .66-.74 1.08-1.245 1.08-.563 0-1.02-.482-1.02-1.08v-1.916zm-4.478 5.608c.138-.25.427-.395.802-.395l7.159-1.237c.677-.008 1.093.346 1.174.806h.012v2.001c.006.006.096.072.245.072h.59c.148 0 .249-.068.261-.098l-.006-.961.016-1.014c.077-.46.542-.811 1.102-.811l7.267 1.247h.022c.338 0 .64.133.777.372.103.175.106.393.004.58l-.141.247-.375.646-.437.8-4.883 8.582-.361-.282c-.676-.526-1.6-1.242-2.953-1.3l-.139-.006h-.025c-1.277 0-2.278.322-3.103.957-.184.128-.334.258-.468.379l-.328.305-.29-.342c-.709-.86-1.261-1.907-1.698-2.745-.16-.305-.303-.572-.425-.778-.462-.775-.827-1.394-1.165-1.978-.596-1.017-1.114-1.899-1.947-3.257-.319-.515-.656-1.089-.656-1.089-.141-.228-.156-.482-.031-.702zm21.348 14.733c-.191 0-.349-.051-.456-.079-.444-.144-.875-.19-1.093-.206l-.175-.004c-.45 0-.836.11-1.596.708l-.095.076c-.703.553-1.668 1.301-2.991 1.301-.189 0-.394-.002-.606-.047-1.093-.171-1.913-.8-2.573-1.312-.592-.464-.992-.759-1.389-.777l-.191-.006c-.496 0-.886.118-1.221.367l-.396.315c-.458.401-1.118.963-2.063 1.195-.374.086-.687.126-.98.126-1.008 0-1.774-.481-2.757-1.306-.552-.464-2.048-.738-2.825-.491-.12.035-.284.074-.481.074-.855 0-1.555-.705-1.555-1.575 0-.672.415-1.256 1.049-1.478l.082-.035c1.86-.558 3.764-.215 5.121.92.645.544 1.206.79 1.634.69.206-.045.487-.283.786-.534l.151-.122.39-.299c.858-.666 1.901-.997 3.153-.997l.224.002c1.427.072 2.379.816 3.145 1.414.443.345.861.672 1.226.733h.014c.318 0 .667-.267 1.142-.644 1.023-.802 2.21-1.555 3.995-1.425.347.025 1.021.108 1.789.334.668.227 1.099.827 1.099 1.498 0 .873-.695 1.586-1.557 1.586zm0 0" fill="#fff"/><path d="M10.073 46.862c0-.478.455-.825 1.076-.825h2.232v-.961c0-.596.484-1.076 1.077-1.076h1.648c.594 0 1.077.48 1.077 1.076v.961h2.226c.625 0 1.074.342 1.074.812v1.929c0 .598-.453 1.08-1.014 1.08-.517 0-1.271-.42-1.271-1.08v-.495l-5.922.041.062.454c0 .66-.74 1.08-1.245 1.08-.563 0-1.02-.482-1.02-1.08v-1.916zm-4.478 5.608c.138-.25.427-.395.802-.395l7.159-1.237c.677-.008 1.093.346 1.174.806h.012v2.001c.006.006.096.072.245.072h.59c.148 0 .249-.068.261-.098l-.006-.961.016-1.014c.077-.46.542-.811 1.102-.811l7.267 1.247h.022c.338 0 .64.133.777.372.103.175.106.393.004.58l-.141.247-.375.646-.437.8-4.883 8.582-.361-.282c-.676-.526-1.6-1.242-2.953-1.3l-.139-.006h-.025c-1.277 0-2.278.322-3.103.957-.184.128-.334.258-.468.379l-.328.305-.29-.342c-.709-.86-1.261-1.907-1.698-2.745-.16-.305-.303-.572-.425-.778-.462-.775-.827-1.394-1.165-1.978-.596-1.017-1.114-1.899-1.947-3.257-.319-.515-.656-1.089-.656-1.089-.141-.228-.156-.482-.031-.702zm21.348 14.733c-.191 0-.349-.051-.456-.079-.444-.144-.875-.19-1.093-.206l-.175-.004c-.45 0-.836.11-1.596.708l-.095.076c-.703.553-1.668 1.301-2.991 1.301-.189 0-.394-.002-.606-.047-1.093-.171-1.913-.8-2.573-1.312-.592-.464-.992-.759-1.389-.777l-.191-.006c-.496 0-.886.118-1.221.367l-.396.315c-.458.401-1.118.963-2.063 1.195-.374.086-.687.126-.98.126-1.008 0-1.774-.481-2.757-1.306-.552-.464-2.048-.738-2.825-.491-.12.035-.284.074-.481.074-.855 0-1.555-.705-1.555-1.575 0-.672.415-1.256 1.049-1.478l.082-.035c1.86-.558 3.764-.215 5.121.92.645.544 1.206.79 1.634.69.206-.045.487-.283.786-.534l.151-.122.39-.299c.858-.666 1.901-.997 3.153-.997l.224.002c1.427.072 2.379.816 3.145 1.414.443.345.861.672 1.226.733h.014c.318 0 .667-.267 1.142-.644 1.023-.802 2.21-1.555 3.995-1.425.347.025 1.021.108 1.789.334.668.227 1.099.827 1.099 1.498 0 .873-.695 1.586-1.557 1.586zm0 0" fill="#67737B"/><path d="M10.073 6.862c0-.478.455-.825 1.076-.825h2.232v-.961c0-.596.484-1.076 1.077-1.076h1.648c.594 0 1.077.48 1.077 1.076v.961h2.226c.625 0 1.074.342 1.074.812v1.929c0 .598-.453 1.08-1.014 1.08-.517 0-1.271-.42-1.271-1.08v-.495l-5.922.041.062.454c0 .66-.74 1.08-1.245 1.08-.563 0-1.02-.482-1.02-1.08v-1.916zm-4.478 5.608c.138-.25.427-.395.802-.395l7.159-1.237c.677-.008 1.093.346 1.174.806h.012v2.001c.006.006.096.072.245.072h.59c.148 0 .249-.068.261-.098l-.006-.961.016-1.014c.077-.46.542-.811 1.102-.811l7.267 1.247h.022c.338 0 .64.133.777.372.103.175.106.393.004.58l-.141.247-.375.646-.437.8-4.883 8.582-.361-.282c-.676-.526-1.6-1.242-2.953-1.3l-.139-.006h-.025c-1.277 0-2.278.322-3.103.957-.184.128-.334.258-.468.379l-.328.305-.29-.342c-.709-.86-1.261-1.907-1.698-2.745-.16-.305-.303-.572-.425-.778-.462-.775-.827-1.394-1.165-1.978-.596-1.017-1.114-1.899-1.947-3.257-.319-.515-.656-1.089-.656-1.089-.141-.228-.156-.482-.031-.702zm21.348 14.733c-.191 0-.349-.051-.456-.079-.444-.144-.875-.19-1.093-.206l-.175-.004c-.45 0-.836.11-1.596.708l-.095.076c-.703.553-1.668 1.301-2.991 1.301-.189 0-.394-.002-.606-.047-1.093-.171-1.913-.8-2.573-1.312-.592-.464-.992-.759-1.389-.777l-.191-.006c-.496 0-.886.118-1.221.367l-.396.315c-.458.401-1.118.963-2.063 1.195-.374.086-.687.126-.98.126-1.008 0-1.774-.481-2.757-1.306-.552-.464-2.048-.738-2.825-.491-.12.035-.284.074-.481.074-.855 0-1.555-.705-1.555-1.575 0-.672.415-1.256 1.049-1.478l.082-.035c1.86-.558 3.764-.215 5.121.92.645.544 1.206.79 1.634.69.206-.045.487-.283.786-.534l.151-.122.39-.299c.858-.666 1.901-.997 3.153-.997l.224.002c1.427.072 2.379.816 3.145 1.414.443.345.861.672 1.226.733h.014c.318 0 .667-.267 1.142-.644 1.023-.802 2.21-1.555 3.995-1.425.347.025 1.021.108 1.789.334.668.227 1.099.827 1.099 1.498 0 .873-.695 1.586-1.557 1.586zm0 0" fill="#3A434E"/></g></svg>