<?xml version="1.0" encoding="UTF-8" standalone="no"?>
<svg width="32px" height="232px" viewBox="0 0 32 232" version="1.1" xmlns="http://www.w3.org/2000/svg" xmlns:xlink="http://www.w3.org/1999/xlink" xmlns:sketch="http://www.bohemiancoding.com/sketch/ns">
    <title>festival</title>
    <description>Created with Sketch (http://www.bohemiancoding.com/sketch)</description>
    <defs></defs>
    <g id="Points-of-interest" stroke="none" stroke-width="1" fill="none" fill-rule="evenodd" sketch:type="MSPage">
        <path d="M10.7869985,208.756325 L9.29822712,211.430325 C9.25579855,211.504325 9.26711283,211.598325 9.30765569,211.666325 C9.35385569,211.742325 9.43682712,211.770325 9.5141414,211.750325 L12.3851414,211.113325 L13.8305414,213.824325 C13.8673128,213.893325 13.9314271,213.936325 14.0106271,213.936325 L14.0257128,213.936325 C14.1049128,213.923325 14.1746843,213.867325 14.2020271,213.785325 L15.10717,210.816325 L18.0469985,210.856325 L18.0488843,210.856325 C18.1280843,210.856325 18.1997414,210.803325 18.2365128,210.725325 C18.2610271,210.650325 18.2600843,210.549325 18.1997414,210.498325 L16.2395414,208.187325 L17.7264271,205.498325 C17.7650843,205.422325 17.7650843,205.330325 17.7169985,205.261325 C17.6689128,205.198325 17.5925414,205.155325 17.5133414,205.176325 L14.6432843,205.816325 L13.1969414,203.107325 C13.1526271,203.039325 13.0847414,202.988325 12.9979985,203.002325 C12.9197414,203.012325 12.85657,203.068325 12.8263985,203.148325 L11.9099414,206.098325 L8.98425569,206.077325 C8.8805414,206.073325 8.83151283,206.125325 8.79945569,206.206325 C8.76456998,206.283325 8.78059855,206.373325 8.83151283,206.434325 L10.7869985,208.756325 L10.7869985,208.756325 L10.7869985,208.756325 L10.7869985,208.756325 Z M17.9206557,212.201325 C17.8904843,212.275325 17.9017985,212.369325 17.9602557,212.430325 L19.82617,214.558325 L18.4722271,217.086325 C18.43357,217.161325 18.4354557,217.256325 18.48637,217.315325 C18.5353985,217.393325 18.6202557,217.418325 18.6937985,217.404325 L21.3545414,216.751325 L22.7518557,219.248325 C22.7980557,219.314325 22.8612271,219.357325 22.9319414,219.357325 L22.9526843,219.357325 C23.0299985,219.340325 23.0988271,219.289325 23.12617,219.207325 L23.9219414,216.434325 L26.6618843,216.415325 C26.74297,216.415325 26.8136843,216.361325 26.84857,216.278325 C26.8759128,216.199325 26.8674271,216.117325 26.8070843,216.053325 L24.9449414,213.923325 L26.2988843,211.397325 C26.3356557,211.319325 26.3356557,211.232325 26.28097,211.164325 C26.2366557,211.092325 26.15557,211.059325 26.0744843,211.078325 L23.4080843,211.725325 L22.0192557,209.217325 C21.9796557,209.148325 21.8995128,209.111325 21.8203128,209.117325 C21.74677,209.127325 21.6732271,209.186325 21.6524843,209.268325 L20.84257,212.051325 L18.1054557,212.073325 C18.0271985,212.073325 17.9574271,212.117325 17.9206557,212.201325 L17.9206557,212.201325 Z M13.7569985,221.234325 L16.7826271,217.939325 C16.8410843,217.879325 16.8523985,217.785325 16.8269414,217.704325 C16.79677,217.631325 16.7213414,217.575325 16.6421414,217.575325 L12.3106557,217.418325 L11.1301985,213.004325 C11.1103985,212.920325 11.0443985,212.852325 10.9651985,212.842325 C10.8822271,212.833325 10.81057,212.867325 10.7615414,212.945325 L8.46945569,216.847325 L4.26996998,215.727325 C4.19171283,215.703325 4.1087414,215.732325 4.05971283,215.799325 C4.01162712,215.867325 4.00502712,215.953325 4.04179855,216.036325 L6.0887414,220.084325 L3.06216998,223.384325 C3.00182712,223.444325 2.98391283,223.535325 3.01502712,223.610325 C3.04802712,223.697325 3.11402712,223.744325 3.2045414,223.746325 L7.53979855,223.889325 L8.71365569,228.319325 C8.73911283,228.407325 8.79945569,228.455325 8.8805414,228.477325 L8.90788426,228.477325 C8.9795414,228.477325 9.04648426,228.436325 9.07948426,228.378325 L11.37157,224.465325 L15.5719985,225.592325 C15.64837,225.613325 15.7360557,225.587325 15.7822557,225.515325 C15.8312843,225.445325 15.8407128,225.359325 15.8011128,225.283325 L13.7569985,221.234325 L13.7569985,221.234325 L13.7569985,221.234325 L13.7569985,221.234325 Z M27.0842843,218.506325 C27.0569414,218.428325 26.9947128,218.369325 26.9192843,218.365325 L25.1429414,218.150325 C25.0505414,218.148325 24.9637985,218.200325 24.9307985,218.279325 L24.3811128,219.662325 C24.35377,219.732325 24.3641414,219.814325 24.4056271,219.879325 C26.7354271,223.148325 26.6449128,226.682325 26.4836843,228.090325 C24.0115128,222.623325 18.0007985,220.033325 17.9461128,220.006325 C17.8697414,219.977325 17.7839414,219.989325 17.7283128,220.045325 L16.1216843,221.618325 C16.05757,221.687325 16.0368271,221.778325 16.0764271,221.870325 L16.8335414,223.537325 C16.8637128,223.610325 16.9334843,223.658325 16.9975985,223.666325 C23.1148557,224.135325 26.3648843,228.861325 26.39317,228.911325 C26.4355985,228.970325 26.4997128,229.000325 26.5628843,229.000325 C26.5958843,229.000325 26.6232271,228.994325 26.6524557,228.979325 C26.7061985,228.965325 26.74957,228.928325 26.7740843,228.867325 C28.9426557,224.217325 27.1625414,218.735325 27.0842843,218.506325 L27.0842843,218.506325 Z M27.0842843,218.506325" id="festival--purple" fill="#674D79" sketch:type="MSShapeGroup"></path>
        <path d="M10.7869985,168.756325 L9.29822712,171.430325 C9.25579855,171.504325 9.26711283,171.598325 9.30765569,171.666325 C9.35385569,171.742325 9.43682712,171.770325 9.5141414,171.750325 L12.3851414,171.113325 L13.8305414,173.824325 C13.8673128,173.893325 13.9314271,173.936325 14.0106271,173.936325 L14.0257128,173.936325 C14.1049128,173.923325 14.1746843,173.867325 14.2020271,173.785325 L15.10717,170.816325 L18.0469985,170.856325 L18.0488843,170.856325 C18.1280843,170.856325 18.1997414,170.803325 18.2365128,170.725325 C18.2610271,170.650325 18.2600843,170.549325 18.1997414,170.498325 L16.2395414,168.187325 L17.7264271,165.498325 C17.7650843,165.422325 17.7650843,165.330325 17.7169985,165.261325 C17.6689128,165.198325 17.5925414,165.155325 17.5133414,165.176325 L14.6432843,165.816325 L13.1969414,163.107325 C13.1526271,163.039325 13.0847414,162.988325 12.9979985,163.002325 C12.9197414,163.012325 12.85657,163.068325 12.8263985,163.148325 L11.9099414,166.098325 L8.98425569,166.077325 C8.8805414,166.073325 8.83151283,166.125325 8.79945569,166.206325 C8.76456998,166.283325 8.78059855,166.373325 8.83151283,166.434325 L10.7869985,168.756325 L10.7869985,168.756325 L10.7869985,168.756325 L10.7869985,168.756325 Z M17.9206557,172.201325 C17.8904843,172.275325 17.9017985,172.369325 17.9602557,172.430325 L19.82617,174.558325 L18.4722271,177.086325 C18.43357,177.161325 18.4354557,177.256325 18.48637,177.315325 C18.5353985,177.393325 18.6202557,177.418325 18.6937985,177.404325 L21.3545414,176.751325 L22.7518557,179.248325 C22.7980557,179.314325 22.8612271,179.357325 22.9319414,179.357325 L22.9526843,179.357325 C23.0299985,179.340325 23.0988271,179.289325 23.12617,179.207325 L23.9219414,176.434325 L26.6618843,176.415325 C26.74297,176.415325 26.8136843,176.361325 26.84857,176.278325 C26.8759128,176.199325 26.8674271,176.117325 26.8070843,176.053325 L24.9449414,173.923325 L26.2988843,171.397325 C26.3356557,171.319325 26.3356557,171.232325 26.28097,171.164325 C26.2366557,171.092325 26.15557,171.059325 26.0744843,171.078325 L23.4080843,171.725325 L22.0192557,169.217325 C21.9796557,169.148325 21.8995128,169.111325 21.8203128,169.117325 C21.74677,169.127325 21.6732271,169.186325 21.6524843,169.268325 L20.84257,172.051325 L18.1054557,172.073325 C18.0271985,172.073325 17.9574271,172.117325 17.9206557,172.201325 L17.9206557,172.201325 Z M13.7569985,181.234325 L16.7826271,177.939325 C16.8410843,177.879325 16.8523985,177.785325 16.8269414,177.704325 C16.79677,177.631325 16.7213414,177.575325 16.6421414,177.575325 L12.3106557,177.418325 L11.1301985,173.004325 C11.1103985,172.920325 11.0443985,172.852325 10.9651985,172.842325 C10.8822271,172.833325 10.81057,172.867325 10.7615414,172.945325 L8.46945569,176.847325 L4.26996998,175.727325 C4.19171283,175.703325 4.1087414,175.732325 4.05971283,175.799325 C4.01162712,175.867325 4.00502712,175.953325 4.04179855,176.036325 L6.0887414,180.084325 L3.06216998,183.384325 C3.00182712,183.444325 2.98391283,183.535325 3.01502712,183.610325 C3.04802712,183.697325 3.11402712,183.744325 3.2045414,183.746325 L7.53979855,183.889325 L8.71365569,188.319325 C8.73911283,188.407325 8.79945569,188.455325 8.8805414,188.477325 L8.90788426,188.477325 C8.9795414,188.477325 9.04648426,188.436325 9.07948426,188.378325 L11.37157,184.465325 L15.5719985,185.592325 C15.64837,185.613325 15.7360557,185.587325 15.7822557,185.515325 C15.8312843,185.445325 15.8407128,185.359325 15.8011128,185.283325 L13.7569985,181.234325 L13.7569985,181.234325 L13.7569985,181.234325 L13.7569985,181.234325 Z M27.0842843,178.506325 C27.0569414,178.428325 26.9947128,178.369325 26.9192843,178.365325 L25.1429414,178.150325 C25.0505414,178.148325 24.9637985,178.200325 24.9307985,178.279325 L24.3811128,179.662325 C24.35377,179.732325 24.3641414,179.814325 24.4056271,179.879325 C26.7354271,183.148325 26.6449128,186.682325 26.4836843,188.090325 C24.0115128,182.623325 18.0007985,180.033325 17.9461128,180.006325 C17.8697414,179.977325 17.7839414,179.989325 17.7283128,180.045325 L16.1216843,181.618325 C16.05757,181.687325 16.0368271,181.778325 16.0764271,181.870325 L16.8335414,183.537325 C16.8637128,183.610325 16.9334843,183.658325 16.9975985,183.666325 C23.1148557,184.135325 26.3648843,188.861325 26.39317,188.911325 C26.4355985,188.970325 26.4997128,189.000325 26.5628843,189.000325 C26.5958843,189.000325 26.6232271,188.994325 26.6524557,188.979325 C26.7061985,188.965325 26.74957,188.928325 26.7740843,188.867325 C28.9426557,184.217325 27.1625414,178.735325 27.0842843,178.506325 L27.0842843,178.506325 Z M27.0842843,178.506325" id="festival--lp-blue" fill="#1D4F8D" sketch:type="MSShapeGroup"></path>
        <path d="M10.7869985,128.756325 L9.29822712,131.430325 C9.25579855,131.504325 9.26711283,131.598325 9.30765569,131.666325 C9.35385569,131.742325 9.43682712,131.770325 9.5141414,131.750325 L12.3851414,131.113325 L13.8305414,133.824325 C13.8673128,133.893325 13.9314271,133.936325 14.0106271,133.936325 L14.0257128,133.936325 C14.1049128,133.923325 14.1746843,133.867325 14.2020271,133.785325 L15.10717,130.816325 L18.0469985,130.856325 L18.0488843,130.856325 C18.1280843,130.856325 18.1997414,130.803325 18.2365128,130.725325 C18.2610271,130.650325 18.2600843,130.549325 18.1997414,130.498325 L16.2395414,128.187325 L17.7264271,125.498325 C17.7650843,125.422325 17.7650843,125.330325 17.7169985,125.261325 C17.6689128,125.198325 17.5925414,125.155325 17.5133414,125.176325 L14.6432843,125.816325 L13.1969414,123.107325 C13.1526271,123.039325 13.0847414,122.988325 12.9979985,123.002325 C12.9197414,123.012325 12.85657,123.068325 12.8263985,123.148325 L11.9099414,126.098325 L8.98425569,126.077325 C8.8805414,126.073325 8.83151283,126.125325 8.79945569,126.206325 C8.76456998,126.283325 8.78059855,126.373325 8.83151283,126.434325 L10.7869985,128.756325 L10.7869985,128.756325 L10.7869985,128.756325 L10.7869985,128.756325 Z M17.9206557,132.201325 C17.8904843,132.275325 17.9017985,132.369325 17.9602557,132.430325 L19.82617,134.558325 L18.4722271,137.086325 C18.43357,137.161325 18.4354557,137.256325 18.48637,137.315325 C18.5353985,137.393325 18.6202557,137.418325 18.6937985,137.404325 L21.3545414,136.751325 L22.7518557,139.248325 C22.7980557,139.314325 22.8612271,139.357325 22.9319414,139.357325 L22.9526843,139.357325 C23.0299985,139.340325 23.0988271,139.289325 23.12617,139.207325 L23.9219414,136.434325 L26.6618843,136.415325 C26.74297,136.415325 26.8136843,136.361325 26.84857,136.278325 C26.8759128,136.199325 26.8674271,136.117325 26.8070843,136.053325 L24.9449414,133.923325 L26.2988843,131.397325 C26.3356557,131.319325 26.3356557,131.232325 26.28097,131.164325 C26.2366557,131.092325 26.15557,131.059325 26.0744843,131.078325 L23.4080843,131.725325 L22.0192557,129.217325 C21.9796557,129.148325 21.8995128,129.111325 21.8203128,129.117325 C21.74677,129.127325 21.6732271,129.186325 21.6524843,129.268325 L20.84257,132.051325 L18.1054557,132.073325 C18.0271985,132.073325 17.9574271,132.117325 17.9206557,132.201325 L17.9206557,132.201325 Z M13.7569985,141.234325 L16.7826271,137.939325 C16.8410843,137.879325 16.8523985,137.785325 16.8269414,137.704325 C16.79677,137.631325 16.7213414,137.575325 16.6421414,137.575325 L12.3106557,137.418325 L11.1301985,133.004325 C11.1103985,132.920325 11.0443985,132.852325 10.9651985,132.842325 C10.8822271,132.833325 10.81057,132.867325 10.7615414,132.945325 L8.46945569,136.847325 L4.26996998,135.727325 C4.19171283,135.703325 4.1087414,135.732325 4.05971283,135.799325 C4.01162712,135.867325 4.00502712,135.953325 4.04179855,136.036325 L6.0887414,140.084325 L3.06216998,143.384325 C3.00182712,143.444325 2.98391283,143.535325 3.01502712,143.610325 C3.04802712,143.697325 3.11402712,143.744325 3.2045414,143.746325 L7.53979855,143.889325 L8.71365569,148.319325 C8.73911283,148.407325 8.79945569,148.455325 8.8805414,148.477325 L8.90788426,148.477325 C8.9795414,148.477325 9.04648426,148.436325 9.07948426,148.378325 L11.37157,144.465325 L15.5719985,145.592325 C15.64837,145.613325 15.7360557,145.587325 15.7822557,145.515325 C15.8312843,145.445325 15.8407128,145.359325 15.8011128,145.283325 L13.7569985,141.234325 L13.7569985,141.234325 L13.7569985,141.234325 L13.7569985,141.234325 Z M27.0842843,138.506325 C27.0569414,138.428325 26.9947128,138.369325 26.9192843,138.365325 L25.1429414,138.150325 C25.0505414,138.148325 24.9637985,138.200325 24.9307985,138.279325 L24.3811128,139.662325 C24.35377,139.732325 24.3641414,139.814325 24.4056271,139.879325 C26.7354271,143.148325 26.6449128,146.682325 26.4836843,148.090325 C24.0115128,142.623325 18.0007985,140.033325 17.9461128,140.006325 C17.8697414,139.977325 17.7839414,139.989325 17.7283128,140.045325 L16.1216843,141.618325 C16.05757,141.687325 16.0368271,141.778325 16.0764271,141.870325 L16.8335414,143.537325 C16.8637128,143.610325 16.9334843,143.658325 16.9975985,143.666325 C23.1148557,144.135325 26.3648843,148.861325 26.39317,148.911325 C26.4355985,148.970325 26.4997128,149.000325 26.5628843,149.000325 C26.5958843,149.000325 26.6232271,148.994325 26.6524557,148.979325 C26.7061985,148.965325 26.74957,148.928325 26.7740843,148.867325 C28.9426557,144.217325 27.1625414,138.735325 27.0842843,138.506325 L27.0842843,138.506325 Z M27.0842843,138.506325" id="festival--white" fill="#FFFFFF" sketch:type="MSShapeGroup"></path>
        <path d="M10.7869985,88.7563254 L9.29822712,91.4303254 C9.25579855,91.5043254 9.26711283,91.5983254 9.30765569,91.6663254 C9.35385569,91.7423254 9.43682712,91.7703254 9.5141414,91.7503254 L12.3851414,91.1133254 L13.8305414,93.8243254 C13.8673128,93.8933254 13.9314271,93.9363254 14.0106271,93.9363254 L14.0257128,93.9363254 C14.1049128,93.9233254 14.1746843,93.8673254 14.2020271,93.7853254 L15.10717,90.8163254 L18.0469985,90.8563254 L18.0488843,90.8563254 C18.1280843,90.8563254 18.1997414,90.8033254 18.2365128,90.7253254 C18.2610271,90.6503254 18.2600843,90.5493254 18.1997414,90.4983254 L16.2395414,88.1873254 L17.7264271,85.4983254 C17.7650843,85.4223254 17.7650843,85.3303254 17.7169985,85.2613254 C17.6689128,85.1983254 17.5925414,85.1553254 17.5133414,85.1763254 L14.6432843,85.8163254 L13.1969414,83.1073254 C13.1526271,83.0393254 13.0847414,82.9883254 12.9979985,83.0023254 C12.9197414,83.0123254 12.85657,83.0683254 12.8263985,83.1483254 L11.9099414,86.0983254 L8.98425569,86.0773254 C8.8805414,86.0733254 8.83151283,86.1253254 8.79945569,86.2063254 C8.76456998,86.2833254 8.78059855,86.3733254 8.83151283,86.4343254 L10.7869985,88.7563254 L10.7869985,88.7563254 L10.7869985,88.7563254 L10.7869985,88.7563254 Z M17.9206557,92.2013254 C17.8904843,92.2753254 17.9017985,92.3693254 17.9602557,92.4303254 L19.82617,94.5583254 L18.4722271,97.0863254 C18.43357,97.1613254 18.4354557,97.2563254 18.48637,97.3153254 C18.5353985,97.3933254 18.6202557,97.4183254 18.6937985,97.4043254 L21.3545414,96.7513254 L22.7518557,99.2483254 C22.7980557,99.3143254 22.8612271,99.3573254 22.9319414,99.3573254 L22.9526843,99.3573254 C23.0299985,99.3403254 23.0988271,99.2893254 23.12617,99.2073254 L23.9219414,96.4343254 L26.6618843,96.4153254 C26.74297,96.4153254 26.8136843,96.3613254 26.84857,96.2783254 C26.8759128,96.1993254 26.8674271,96.1173254 26.8070843,96.0533254 L24.9449414,93.9233254 L26.2988843,91.3973254 C26.3356557,91.3193254 26.3356557,91.2323254 26.28097,91.1643254 C26.2366557,91.0923254 26.15557,91.0593254 26.0744843,91.0783254 L23.4080843,91.7253254 L22.0192557,89.2173254 C21.9796557,89.1483254 21.8995128,89.1113254 21.8203128,89.1173254 C21.74677,89.1273254 21.6732271,89.1863254 21.6524843,89.2683254 L20.84257,92.0513254 L18.1054557,92.0733254 C18.0271985,92.0733254 17.9574271,92.1173254 17.9206557,92.2013254 L17.9206557,92.2013254 Z M13.7569985,101.234325 L16.7826271,97.9393254 C16.8410843,97.8793254 16.8523985,97.7853254 16.8269414,97.7043254 C16.79677,97.6313254 16.7213414,97.5753254 16.6421414,97.5753254 L12.3106557,97.4183254 L11.1301985,93.0043254 C11.1103985,92.9203254 11.0443985,92.8523254 10.9651985,92.8423254 C10.8822271,92.8333254 10.81057,92.8673254 10.7615414,92.9453254 L8.46945569,96.8473254 L4.26996998,95.7273254 C4.19171283,95.7033254 4.1087414,95.7323254 4.05971283,95.7993254 C4.01162712,95.8673254 4.00502712,95.9533254 4.04179855,96.0363254 L6.0887414,100.084325 L3.06216998,103.384325 C3.00182712,103.444325 2.98391283,103.535325 3.01502712,103.610325 C3.04802712,103.697325 3.11402712,103.744325 3.2045414,103.746325 L7.53979855,103.889325 L8.71365569,108.319325 C8.73911283,108.407325 8.79945569,108.455325 8.8805414,108.477325 L8.90788426,108.477325 C8.9795414,108.477325 9.04648426,108.436325 9.07948426,108.378325 L11.37157,104.465325 L15.5719985,105.592325 C15.64837,105.613325 15.7360557,105.587325 15.7822557,105.515325 C15.8312843,105.445325 15.8407128,105.359325 15.8011128,105.283325 L13.7569985,101.234325 L13.7569985,101.234325 L13.7569985,101.234325 L13.7569985,101.234325 Z M27.0842843,98.5063254 C27.0569414,98.4283254 26.9947128,98.3693254 26.9192843,98.3653254 L25.1429414,98.1503254 C25.0505414,98.1483254 24.9637985,98.2003254 24.9307985,98.2793254 L24.3811128,99.6623254 C24.35377,99.7323254 24.3641414,99.8143254 24.4056271,99.8793254 C26.7354271,103.148325 26.6449128,106.682325 26.4836843,108.090325 C24.0115128,102.623325 18.0007985,100.033325 17.9461128,100.006325 C17.8697414,99.9773254 17.7839414,99.9893254 17.7283128,100.045325 L16.1216843,101.618325 C16.05757,101.687325 16.0368271,101.778325 16.0764271,101.870325 L16.8335414,103.537325 C16.8637128,103.610325 16.9334843,103.658325 16.9975985,103.666325 C23.1148557,104.135325 26.3648843,108.861325 26.39317,108.911325 C26.4355985,108.970325 26.4997128,109.000325 26.5628843,109.000325 C26.5958843,109.000325 26.6232271,108.994325 26.6524557,108.979325 C26.7061985,108.965325 26.74957,108.928325 26.7740843,108.867325 C28.9426557,104.217325 27.1625414,98.7353254 27.0842843,98.5063254 L27.0842843,98.5063254 Z M27.0842843,98.5063254" id="festival--subdued-grey" fill="#E6EDF5" sketch:type="MSShapeGroup"></path>
        <path d="M10.7869985,48.7563254 L9.29822712,51.4303254 C9.25579855,51.5043254 9.26711283,51.5983254 9.30765569,51.6663254 C9.35385569,51.7423254 9.43682712,51.7703254 9.5141414,51.7503254 L12.3851414,51.1133254 L13.8305414,53.8243254 C13.8673128,53.8933254 13.9314271,53.9363254 14.0106271,53.9363254 L14.0257128,53.9363254 C14.1049128,53.9233254 14.1746843,53.8673254 14.2020271,53.7853254 L15.10717,50.8163254 L18.0469985,50.8563254 L18.0488843,50.8563254 C18.1280843,50.8563254 18.1997414,50.8033254 18.2365128,50.7253254 C18.2610271,50.6503254 18.2600843,50.5493254 18.1997414,50.4983254 L16.2395414,48.1873254 L17.7264271,45.4983254 C17.7650843,45.4223254 17.7650843,45.3303254 17.7169985,45.2613254 C17.6689128,45.1983254 17.5925414,45.1553254 17.5133414,45.1763254 L14.6432843,45.8163254 L13.1969414,43.1073254 C13.1526271,43.0393254 13.0847414,42.9883254 12.9979985,43.0023254 C12.9197414,43.0123254 12.85657,43.0683254 12.8263985,43.1483254 L11.9099414,46.0983254 L8.98425569,46.0773254 C8.8805414,46.0733254 8.83151283,46.1253254 8.79945569,46.2063254 C8.76456998,46.2833254 8.78059855,46.3733254 8.83151283,46.4343254 L10.7869985,48.7563254 L10.7869985,48.7563254 L10.7869985,48.7563254 L10.7869985,48.7563254 Z M17.9206557,52.2013254 C17.8904843,52.2753254 17.9017985,52.3693254 17.9602557,52.4303254 L19.82617,54.5583254 L18.4722271,57.0863254 C18.43357,57.1613254 18.4354557,57.2563254 18.48637,57.3153254 C18.5353985,57.3933254 18.6202557,57.4183254 18.6937985,57.4043254 L21.3545414,56.7513254 L22.7518557,59.2483254 C22.7980557,59.3143254 22.8612271,59.3573254 22.9319414,59.3573254 L22.9526843,59.3573254 C23.0299985,59.3403254 23.0988271,59.2893254 23.12617,59.2073254 L23.9219414,56.4343254 L26.6618843,56.4153254 C26.74297,56.4153254 26.8136843,56.3613254 26.84857,56.2783254 C26.8759128,56.1993254 26.8674271,56.1173254 26.8070843,56.0533254 L24.9449414,53.9233254 L26.2988843,51.3973254 C26.3356557,51.3193254 26.3356557,51.2323254 26.28097,51.1643254 C26.2366557,51.0923254 26.15557,51.0593254 26.0744843,51.0783254 L23.4080843,51.7253254 L22.0192557,49.2173254 C21.9796557,49.1483254 21.8995128,49.1113254 21.8203128,49.1173254 C21.74677,49.1273254 21.6732271,49.1863254 21.6524843,49.2683254 L20.84257,52.0513254 L18.1054557,52.0733254 C18.0271985,52.0733254 17.9574271,52.1173254 17.9206557,52.2013254 L17.9206557,52.2013254 Z M13.7569985,61.2343254 L16.7826271,57.9393254 C16.8410843,57.8793254 16.8523985,57.7853254 16.8269414,57.7043254 C16.79677,57.6313254 16.7213414,57.5753254 16.6421414,57.5753254 L12.3106557,57.4183254 L11.1301985,53.0043254 C11.1103985,52.9203254 11.0443985,52.8523254 10.9651985,52.8423254 C10.8822271,52.8333254 10.81057,52.8673254 10.7615414,52.9453254 L8.46945569,56.8473254 L4.26996998,55.7273254 C4.19171283,55.7033254 4.1087414,55.7323254 4.05971283,55.7993254 C4.01162712,55.8673254 4.00502712,55.9533254 4.04179855,56.0363254 L6.0887414,60.0843254 L3.06216998,63.3843254 C3.00182712,63.4443254 2.98391283,63.5353254 3.01502712,63.6103254 C3.04802712,63.6973254 3.11402712,63.7443254 3.2045414,63.7463254 L7.53979855,63.8893254 L8.71365569,68.3193254 C8.73911283,68.4073254 8.79945569,68.4553254 8.8805414,68.4773254 L8.90788426,68.4773254 C8.9795414,68.4773254 9.04648426,68.4363254 9.07948426,68.3783254 L11.37157,64.4653254 L15.5719985,65.5923254 C15.64837,65.6133254 15.7360557,65.5873254 15.7822557,65.5153254 C15.8312843,65.4453254 15.8407128,65.3593254 15.8011128,65.2833254 L13.7569985,61.2343254 L13.7569985,61.2343254 L13.7569985,61.2343254 L13.7569985,61.2343254 Z M27.0842843,58.5063254 C27.0569414,58.4283254 26.9947128,58.3693254 26.9192843,58.3653254 L25.1429414,58.1503254 C25.0505414,58.1483254 24.9637985,58.2003254 24.9307985,58.2793254 L24.3811128,59.6623254 C24.35377,59.7323254 24.3641414,59.8143254 24.4056271,59.8793254 C26.7354271,63.1483254 26.6449128,66.6823254 26.4836843,68.0903254 C24.0115128,62.6233254 18.0007985,60.0333254 17.9461128,60.0063254 C17.8697414,59.9773254 17.7839414,59.9893254 17.7283128,60.0453254 L16.1216843,61.6183254 C16.05757,61.6873254 16.0368271,61.7783254 16.0764271,61.8703254 L16.8335414,63.5373254 C16.8637128,63.6103254 16.9334843,63.6583254 16.9975985,63.6663254 C23.1148557,64.1353254 26.3648843,68.8613254 26.39317,68.9113254 C26.4355985,68.9703254 26.4997128,69.0003254 26.5628843,69.0003254 C26.5958843,69.0003254 26.6232271,68.9943254 26.6524557,68.9793254 C26.7061985,68.9653254 26.74957,68.9283254 26.7740843,68.8673254 C28.9426557,64.2173254 27.1625414,58.7353254 27.0842843,58.5063254 L27.0842843,58.5063254 Z M27.0842843,58.5063254" id="festival--body-grey" fill="#67747C" sketch:type="MSShapeGroup"></path>
        <path d="M10.7869985,8.75632538 L9.29822712,11.4303254 C9.25579855,11.5043254 9.26711283,11.5983254 9.30765569,11.6663254 C9.35385569,11.7423254 9.43682712,11.7703254 9.5141414,11.7503254 L12.3851414,11.1133254 L13.8305414,13.8243254 C13.8673128,13.8933254 13.9314271,13.9363254 14.0106271,13.9363254 L14.0257128,13.9363254 C14.1049128,13.9233254 14.1746843,13.8673254 14.2020271,13.7853254 L15.10717,10.8163254 L18.0469985,10.8563254 L18.0488843,10.8563254 C18.1280843,10.8563254 18.1997414,10.8033254 18.2365128,10.7253254 C18.2610271,10.6503254 18.2600843,10.5493254 18.1997414,10.4983254 L16.2395414,8.18732538 L17.7264271,5.49832538 C17.7650843,5.42232538 17.7650843,5.33032538 17.7169985,5.26132538 C17.6689128,5.19832538 17.5925414,5.15532538 17.5133414,5.17632538 L14.6432843,5.81632538 L13.1969414,3.10732538 C13.1526271,3.03932538 13.0847414,2.98832538 12.9979985,3.00232538 C12.9197414,3.01232538 12.85657,3.06832538 12.8263985,3.14832538 L11.9099414,6.09832538 L8.98425569,6.07732538 C8.8805414,6.07332538 8.83151283,6.12532538 8.79945569,6.20632538 C8.76456998,6.28332538 8.78059855,6.37332538 8.83151283,6.43432538 L10.7869985,8.75632538 L10.7869985,8.75632538 L10.7869985,8.75632538 L10.7869985,8.75632538 Z M17.9206557,12.2013254 C17.8904843,12.2753254 17.9017985,12.3693254 17.9602557,12.4303254 L19.82617,14.5583254 L18.4722271,17.0863254 C18.43357,17.1613254 18.4354557,17.2563254 18.48637,17.3153254 C18.5353985,17.3933254 18.6202557,17.4183254 18.6937985,17.4043254 L21.3545414,16.7513254 L22.7518557,19.2483254 C22.7980557,19.3143254 22.8612271,19.3573254 22.9319414,19.3573254 L22.9526843,19.3573254 C23.0299985,19.3403254 23.0988271,19.2893254 23.12617,19.2073254 L23.9219414,16.4343254 L26.6618843,16.4153254 C26.74297,16.4153254 26.8136843,16.3613254 26.84857,16.2783254 C26.8759128,16.1993254 26.8674271,16.1173254 26.8070843,16.0533254 L24.9449414,13.9233254 L26.2988843,11.3973254 C26.3356557,11.3193254 26.3356557,11.2323254 26.28097,11.1643254 C26.2366557,11.0923254 26.15557,11.0593254 26.0744843,11.0783254 L23.4080843,11.7253254 L22.0192557,9.21732538 C21.9796557,9.14832538 21.8995128,9.11132538 21.8203128,9.11732538 C21.74677,9.12732538 21.6732271,9.18632538 21.6524843,9.26832538 L20.84257,12.0513254 L18.1054557,12.0733254 C18.0271985,12.0733254 17.9574271,12.1173254 17.9206557,12.2013254 L17.9206557,12.2013254 Z M13.7569985,21.2343254 L16.7826271,17.9393254 C16.8410843,17.8793254 16.8523985,17.7853254 16.8269414,17.7043254 C16.79677,17.6313254 16.7213414,17.5753254 16.6421414,17.5753254 L12.3106557,17.4183254 L11.1301985,13.0043254 C11.1103985,12.9203254 11.0443985,12.8523254 10.9651985,12.8423254 C10.8822271,12.8333254 10.81057,12.8673254 10.7615414,12.9453254 L8.46945569,16.8473254 L4.26996998,15.7273254 C4.19171283,15.7033254 4.1087414,15.7323254 4.05971283,15.7993254 C4.01162712,15.8673254 4.00502712,15.9533254 4.04179855,16.0363254 L6.0887414,20.0843254 L3.06216998,23.3843254 C3.00182712,23.4443254 2.98391283,23.5353254 3.01502712,23.6103254 C3.04802712,23.6973254 3.11402712,23.7443254 3.2045414,23.7463254 L7.53979855,23.8893254 L8.71365569,28.3193254 C8.73911283,28.4073254 8.79945569,28.4553254 8.8805414,28.4773254 L8.90788426,28.4773254 C8.9795414,28.4773254 9.04648426,28.4363254 9.07948426,28.3783254 L11.37157,24.4653254 L15.5719985,25.5923254 C15.64837,25.6133254 15.7360557,25.5873254 15.7822557,25.5153254 C15.8312843,25.4453254 15.8407128,25.3593254 15.8011128,25.2833254 L13.7569985,21.2343254 L13.7569985,21.2343254 L13.7569985,21.2343254 L13.7569985,21.2343254 Z M27.0842843,18.5063254 C27.0569414,18.4283254 26.9947128,18.3693254 26.9192843,18.3653254 L25.1429414,18.1503254 C25.0505414,18.1483254 24.9637985,18.2003254 24.9307985,18.2793254 L24.3811128,19.6623254 C24.35377,19.7323254 24.3641414,19.8143254 24.4056271,19.8793254 C26.7354271,23.1483254 26.6449128,26.6823254 26.4836843,28.0903254 C24.0115128,22.6233254 18.0007985,20.0333254 17.9461128,20.0063254 C17.8697414,19.9773254 17.7839414,19.9893254 17.7283128,20.0453254 L16.1216843,21.6183254 C16.05757,21.6873254 16.0368271,21.7783254 16.0764271,21.8703254 L16.8335414,23.5373254 C16.8637128,23.6103254 16.9334843,23.6583254 16.9975985,23.6663254 C23.1148557,24.1353254 26.3648843,28.8613254 26.39317,28.9113254 C26.4355985,28.9703254 26.4997128,29.0003254 26.5628843,29.0003254 C26.5958843,29.0003254 26.6232271,28.9943254 26.6524557,28.9793254 C26.7061985,28.9653254 26.74957,28.9283254 26.7740843,28.8673254 C28.9426557,24.2173254 27.1625414,18.7353254 27.0842843,18.5063254 L27.0842843,18.5063254 Z M27.0842843,18.5063254" id="festival--title-grey" fill="#3B444F" sketch:type="MSShapeGroup"></path>
    </g>
</svg>