<?xml version="1.0" encoding="UTF-8" standalone="no"?>
<svg width="32px" height="32px" viewBox="0 0 32 32" version="1.1" xmlns="http://www.w3.org/2000/svg" xmlns:xlink="http://www.w3.org/1999/xlink" xmlns:sketch="http://www.bohemiancoding.com/sketch/ns">
    <title>festival-pin--body-grey</title>
    <description>Created with Sketch (http://www.bohemiancoding.com/sketch)</description>
    <defs></defs>
    <g id="Page-1" stroke="none" stroke-width="1" fill="none" fill-rule="evenodd" sketch:type="MSPage">
        <path d="M15.9994849,0 C22.6276345,0 28,4.654 28,11.648 C28,18.482 21.9456582,21.417 18.7201786,25.788 C16.0829291,29.357 15.9994849,32 15.9994849,32 C15.9994849,32 15.9788814,29.344 13.2787913,25.788 C9.96162596,21.417 4,18.684 4,11.648 C4,4.652 9.37339572,0 15.9994849,0 M22.1323984,12.427 C22.1773984,12.548 23.1693984,15.429 21.9603984,17.873 C21.9463984,17.906 21.9213984,17.925 21.8923984,17.932 C21.8763984,17.941 21.8613984,17.944 21.8413984,17.944 C21.8063984,17.944 21.7713984,17.928 21.7473984,17.897 C21.7323984,17.87 19.9193984,15.386 16.5093984,15.14 C16.4743984,15.136 16.4353984,15.111 16.4173984,15.072 L15.9953984,14.196 C15.9743984,14.148 15.9863984,14.1 16.0213984,14.063 L16.9173984,13.237 C16.9493984,13.207 16.9953984,13.2 17.0383984,13.216 C17.0693984,13.23 20.4193984,14.591 21.7983984,17.465 C21.8883984,16.725 21.9393984,14.868 20.6403984,13.149 C20.6163984,13.116 20.6113984,13.072 20.6263984,13.036 L20.9333984,12.308 C20.9503984,12.267 20.9993984,12.24 21.0503984,12.241 L22.0403984,12.354 C22.0833984,12.356 22.1163984,12.386 22.1323984,12.427 L22.1323984,12.427 Z M15.8433984,15.99 C15.8653984,16.03 15.8593984,16.075 15.8313984,16.112 C15.8063984,16.15 15.7573984,16.163 15.7143984,16.152 L13.3723984,15.56 L12.0953984,17.616 C12.0773984,17.647 12.0383984,17.668 11.9993984,17.668 L11.9843984,17.668 C11.9393984,17.658 11.9053984,17.632 11.8903984,17.586 L11.2363984,15.257 L8.81939844,15.182 C8.76939844,15.181 8.73239844,15.157 8.71439844,15.111 C8.69639844,15.071 8.70639844,15.023 8.74039844,14.991 L10.4273984,13.257 L9.28639844,11.129 C9.26539844,11.085 9.26939844,11.04 9.29639844,11.004 C9.32339844,10.969 9.37039844,10.954 9.41339844,10.966 L11.7553984,11.555 L13.0323984,9.504 C13.0603984,9.463 13.0993984,9.446 13.1463984,9.45 C13.1913984,9.455 13.2283984,9.491 13.2373984,9.535 L13.8963984,11.856 L16.3123984,11.938 C16.3553984,11.938 16.3983984,11.967 16.4133984,12.006 C16.4293984,12.048 16.4213984,12.098 16.3903984,12.129 L14.7023984,13.862 L15.8433984,15.99 L15.8433984,15.99 L15.8433984,15.99 L15.8433984,15.99 Z M17.0233984,9.114 C17.0443984,9.069 17.0833984,9.046 17.1263984,9.046 L18.6533984,9.034 L19.1053984,7.572 C19.1163984,7.528 19.1573984,7.497 19.1993984,7.493 C19.2413984,7.489 19.2863984,7.508 19.3103984,7.544 L20.0833984,8.863 L21.5693984,8.523 C21.6153984,8.513 21.6593984,8.53 21.6853984,8.568 C21.7163984,8.604 21.7163984,8.65 21.6943984,8.69 L20.9413984,10.018 L21.9783984,11.138 C22.0113984,11.172 22.0173984,11.215 22.0013984,11.256 C21.9823984,11.3 21.9433984,11.328 21.8983984,11.328 L20.3703984,11.338 L19.9253984,12.796 C19.9113984,12.839 19.8723984,12.866 19.8293984,12.874 L19.8183984,12.874 C19.7783984,12.874 19.7433984,12.852 19.7163984,12.818 L18.9393984,11.505 L17.4543984,11.848 C17.4133984,11.856 17.3663984,11.842 17.3393984,11.801 C17.3123984,11.77 17.3103984,11.72 17.3313984,11.681 L18.0853984,10.352 L17.0463984,9.234 C17.0133984,9.201 17.0073984,9.153 17.0233984,9.114 L17.0233984,9.114 Z M11.9563984,6.081 C11.9293984,6.049 11.9193984,6.002 11.9393984,5.962 C11.9563984,5.919 11.9843984,5.892 12.0423984,5.894 L13.6733984,5.905 L14.1833984,4.355 C14.2003984,4.313 14.2363984,4.283 14.2783984,4.278 C14.3273984,4.271 14.3663984,4.297 14.3903984,4.333 L15.1963984,5.756 L16.7963984,5.42 C16.8413984,5.41 16.8843984,5.432 16.9093984,5.465 C16.9373984,5.501 16.9373984,5.549 16.9153984,5.59 L16.0873984,7.003 L17.1793984,8.218 C17.2123984,8.244 17.2143984,8.298 17.2003984,8.337 C17.1793984,8.378 17.1403984,8.407 17.0953984,8.407 L15.4543984,8.385 L14.9503984,9.946 C14.9353984,9.989 14.8963984,10.018 14.8533984,10.025 L14.8433984,10.025 C14.8003984,10.025 14.7633984,10.002 14.7433984,9.966 L13.9393984,8.541 L12.3373984,8.876 C12.2943984,8.886 12.2473984,8.872 12.2223984,8.832 C12.1993984,8.796 12.1933984,8.746 12.2163984,8.707 L13.0463984,7.302 L11.9563984,6.081 L11.9563984,6.081 L11.9563984,6.081 L11.9563984,6.081 Z M11.9563984,6.081" id="festival-pin--body-grey" fill="#67747C" sketch:type="MSShapeGroup"></path>
    </g>
</svg>