<svg width="32" height="232" xmlns="http://www.w3.org/2000/svg" xmlns:sketch="http://www.bohemiancoding.com/sketch/ns"><title>filter</title><g sketch:type="MSPage" fill="none"><path d="M1.5 120l12.697 16.91v15.09l3.664-4.786v-10.38l12.639-16.834h-29zm14.501 14.277l-6.61-8.802h13.217l-6.608 8.802zm0 0" fill="#206FAC" sketch:type="MSShapeGroup"/><path d="M1.5 80l12.697 16.91v15.09l3.664-4.786v-10.38l12.639-16.834h-29zm14.501 14.277l-6.61-8.802h13.217l-6.608 8.802zm0 0" fill="#fff" sketch:type="MSShapeGroup"/><path d="M1.5 40l12.697 16.91v15.09l3.664-4.786v-10.38l12.639-16.834h-29zm14.501 14.277l-6.61-8.802h13.217l-6.608 8.802zm0 0" fill="#67737B" sketch:type="MSShapeGroup"/><path d="M1.5 0l12.697 16.91v15.09l3.664-4.786v-10.38l12.639-16.834h-29zm14.501 14.277l-6.61-8.802h13.217l-6.608 8.802zm0 0" fill="#3A434E" sketch:type="MSShapeGroup"/></g></svg>