<svg width="32" height="232" viewBox="0 0 32 232" xmlns="http://www.w3.org/2000/svg"><title>filter</title><g fill="none"><g fill="#3B444F"><path d="M29.859 5.668h-3.383c-.856-2.146-2.955-3.668-5.407-3.668-2.453 0-4.551 1.522-5.407 3.668h-13.518c-1.183 0-2.144.957-2.144 2.136 0 1.182.961 2.139 2.144 2.139h13.518c.856 2.145 2.954 3.668 5.407 3.668s4.551-1.523 5.407-3.668h3.383c1.18 0 2.141-.957 2.141-2.139 0-1.179-.961-2.136-2.141-2.136zm-8.79 4.27c-1.182 0-2.145-.96-2.145-2.139 0-1.179.963-2.138 2.145-2.138 1.181 0 2.144.959 2.144 2.138 0 1.179-.963 2.139-2.144 2.139z"/><path d="M29.857 21.658h-13.518c-.856-2.146-2.954-3.669-5.407-3.669s-4.552 1.523-5.407 3.669h-3.383c-1.181 0-2.142.956-2.142 2.139 0 1.178.961 2.134 2.142 2.134h3.383c.856 2.146 2.955 3.669 5.407 3.669 2.453 0 4.551-1.523 5.407-3.669h13.518c1.182 0 2.143-.956 2.143-2.134 0-1.183-.961-2.139-2.143-2.139zm-18.925 4.28c-1.182 0-2.144-.959-2.144-2.137 0-1.179.962-2.139 2.144-2.139 1.182 0 2.145.96 2.145 2.139 0 1.178-.963 2.137-2.145 2.137z"/></g><g fill="#67737B"><path d="M29.859 45.668h-3.383c-.856-2.146-2.955-3.668-5.407-3.668-2.453 0-4.551 1.522-5.407 3.668h-13.518c-1.183 0-2.144.957-2.144 2.136 0 1.182.961 2.139 2.144 2.139h13.518c.856 2.145 2.954 3.668 5.407 3.668s4.551-1.523 5.407-3.668h3.383c1.18 0 2.141-.957 2.141-2.139 0-1.179-.961-2.136-2.141-2.136zm-8.79 4.27c-1.182 0-2.145-.96-2.145-2.139 0-1.179.963-2.138 2.145-2.138 1.181 0 2.144.959 2.144 2.138 0 1.179-.963 2.139-2.144 2.139zM29.857 61.658h-13.518c-.856-2.146-2.954-3.669-5.407-3.669s-4.552 1.523-5.407 3.669h-3.383c-1.181 0-2.142.956-2.142 2.139 0 1.178.961 2.134 2.142 2.134h3.383c.856 2.146 2.955 3.669 5.407 3.669 2.453 0 4.551-1.523 5.407-3.669h13.518c1.182 0 2.143-.956 2.143-2.134 0-1.183-.961-2.139-2.143-2.139zm-18.925 4.28c-1.182 0-2.144-.959-2.144-2.137 0-1.179.962-2.139 2.144-2.139 1.182 0 2.145.96 2.145 2.139 0 1.178-.963 2.137-2.145 2.137z"/></g><path d="M29.859 85.668h-3.383c-.856-2.146-2.955-3.668-5.407-3.668-2.453 0-4.551 1.522-5.407 3.668h-13.518c-1.183 0-2.144.957-2.144 2.136 0 1.182.961 2.139 2.144 2.139h13.518c.856 2.145 2.954 3.668 5.407 3.668s4.551-1.523 5.407-3.668h3.383c1.18 0 2.141-.957 2.141-2.139 0-1.179-.961-2.136-2.141-2.136zm-8.79 4.27c-1.182 0-2.145-.96-2.145-2.139 0-1.179.963-2.138 2.145-2.138 1.181 0 2.144.959 2.144 2.138 0 1.179-.963 2.139-2.144 2.139zm8.788 11.72h-13.518c-.856-2.146-2.954-3.669-5.407-3.669s-4.552 1.523-5.407 3.669h-3.383c-1.181 0-2.142.956-2.142 2.139 0 1.178.961 2.134 2.142 2.134h3.383c.856 2.146 2.955 3.669 5.407 3.669 2.453 0 4.551-1.523 5.407-3.669h13.518c1.182 0 2.143-.956 2.143-2.134 0-1.183-.961-2.139-2.143-2.139zm-18.925 4.28c-1.182 0-2.144-.959-2.144-2.137 0-1.179.962-2.139 2.144-2.139 1.182 0 2.145.96 2.145 2.139 0 1.178-.963 2.137-2.145 2.137z" fill="#fff"/><path d="M29.859 125.668h-3.383c-.856-2.146-2.955-3.668-5.407-3.668-2.453 0-4.551 1.522-5.407 3.668h-13.518c-1.183 0-2.144.957-2.144 2.136 0 1.182.961 2.139 2.144 2.139h13.518c.856 2.145 2.954 3.668 5.407 3.668s4.551-1.523 5.407-3.668h3.383c1.18 0 2.141-.957 2.141-2.139 0-1.179-.961-2.136-2.141-2.136zm-8.79 4.27c-1.182 0-2.145-.96-2.145-2.139 0-1.179.963-2.138 2.145-2.138 1.181 0 2.144.959 2.144 2.138 0 1.179-.963 2.139-2.144 2.139zm8.788 11.72h-13.518c-.856-2.146-2.954-3.669-5.407-3.669s-4.552 1.523-5.407 3.669h-3.383c-1.181 0-2.142.956-2.142 2.139 0 1.178.961 2.134 2.142 2.134h3.383c.856 2.146 2.955 3.669 5.407 3.669 2.453 0 4.551-1.523 5.407-3.669h13.518c1.182 0 2.143-.956 2.143-2.134 0-1.183-.961-2.139-2.143-2.139zm-18.925 4.28c-1.182 0-2.144-.959-2.144-2.137 0-1.179.962-2.139 2.144-2.139 1.182 0 2.145.96 2.145 2.139 0 1.178-.963 2.137-2.145 2.137z" fill="#206FAC"/><path d="M29.859 165.668h-3.383c-.856-2.146-2.955-3.668-5.407-3.668-2.453 0-4.551 1.522-5.407 3.668h-13.518c-1.183 0-2.144.957-2.144 2.136 0 1.182.961 2.139 2.144 2.139h13.518c.856 2.145 2.954 3.668 5.407 3.668s4.551-1.523 5.407-3.668h3.383c1.18 0 2.141-.957 2.141-2.139 0-1.179-.961-2.136-2.141-2.136zm-8.79 4.27c-1.182 0-2.145-.96-2.145-2.139 0-1.179.963-2.138 2.145-2.138 1.181 0 2.144.959 2.144 2.138 0 1.179-.963 2.139-2.144 2.139zm8.788 11.72h-13.518c-.856-2.146-2.954-3.669-5.407-3.669s-4.552 1.523-5.407 3.669h-3.383c-1.181 0-2.142.956-2.142 2.139 0 1.178.961 2.134 2.142 2.134h3.383c.856 2.146 2.955 3.669 5.407 3.669 2.453 0 4.551-1.523 5.407-3.669h13.518c1.182 0 2.143-.956 2.143-2.134 0-1.183-.961-2.139-2.143-2.139zm-18.925 4.28c-1.182 0-2.144-.959-2.144-2.137 0-1.179.962-2.139 2.144-2.139 1.182 0 2.145.96 2.145 2.139 0 1.178-.963 2.137-2.145 2.137z" fill="#98A8B2"/></g></svg>