<svg width="32" height="232" xmlns="http://www.w3.org/2000/svg" xmlns:sketch="http://www.bohemiancoding.com/sketch/ns"><title>flickr</title><g sketch:type="MSPage" fill="none"><path d="M10.05 21.681c-2.788 0-5.05-2.282-5.05-5.1 0-2.818 2.262-5.101 5.05-5.101 2.792 0 5.054 2.283 5.054 5.101 0 2.817-2.262 5.1-5.054 5.1zm11.899.001c-2.788 0-5.054-2.281-5.054-5.101 0-2.819 2.266-5.102 5.054-5.102 2.788 0 5.051 2.283 5.051 5.102 0 2.819-2.263 5.101-5.051 5.101zm0 0" fill="#3A434E" sketch:type="MSShapeGroup"/><path d="M10.05 61.681c-2.788 0-5.05-2.282-5.05-5.1 0-2.818 2.262-5.101 5.05-5.101 2.792 0 5.054 2.283 5.054 5.101 0 2.817-2.262 5.1-5.054 5.1zm11.899.001c-2.788 0-5.054-2.281-5.054-5.101 0-2.819 2.266-5.102 5.054-5.102 2.788 0 5.051 2.282 5.051 5.102 0 2.819-2.263 5.101-5.051 5.101zm0 0" fill="#67737B" sketch:type="MSShapeGroup"/><path d="M10.05 101.681c-2.788 0-5.05-2.283-5.05-5.1 0-2.818 2.262-5.101 5.05-5.101 2.792 0 5.054 2.283 5.054 5.101 0 2.817-2.262 5.1-5.054 5.1zm11.899.001c-2.788 0-5.054-2.281-5.054-5.101 0-2.819 2.266-5.102 5.054-5.102 2.788 0 5.051 2.282 5.051 5.102 0 2.819-2.263 5.101-5.051 5.101zm0 0" fill="#fff" sketch:type="MSShapeGroup"/><path d="M10.05 142.202c-2.788 0-5.05-2.282-5.05-5.1 0-2.818 2.262-5.101 5.05-5.101 2.792 0 5.054 2.283 5.054 5.101 0 2.817-2.262 5.1-5.054 5.1zm11.899.001c-2.788 0-5.054-2.281-5.054-5.101 0-2.819 2.266-5.102 5.054-5.102 2.788 0 5.051 2.282 5.051 5.102 0 2.819-2.263 5.101-5.051 5.101zm0 0" fill="#206FAC" sketch:type="MSShapeGroup"/></g></svg>