<?xml version="1.0" encoding="UTF-8" standalone="no"?>
<svg width="32px" height="32px" viewBox="0 0 32 32" version="1.1" xmlns="http://www.w3.org/2000/svg" xmlns:xlink="http://www.w3.org/1999/xlink" xmlns:sketch="http://www.bohemiancoding.com/sketch/ns">
    <title>flickr--body-grey</title>
    <description>Created with Sketch (http://www.bohemiancoding.com/sketch)</description>
    <defs></defs>
    <g id="Social" stroke="none" stroke-width="1" fill="none" fill-rule="evenodd" sketch:type="MSPage">
        <path d="M7.34546355,23.999 C3.28951603,23.999 0,20.679 0,16.581 C0,12.482 3.28951603,9.161 7.34546355,9.161 C11.4063622,9.161 14.6968684,12.482 14.6968684,16.581 C14.6968684,20.679 11.4063622,23.999 7.34546355,23.999 L7.34546355,23.999 L7.34546355,23.999 L7.34546355,23.999 Z M24.652556,24 C20.5975987,24 17.3011511,20.682 17.3011511,16.581 C17.3011511,12.48 20.5975987,9.16 24.652556,9.16 C28.7085035,9.16 32,12.48 32,16.581 C32,20.682 28.7085035,24 24.652556,24 L24.652556,24 Z M24.652556,24" id="flickr--body-grey" fill="#67737B" sketch:type="MSShapeGroup"></path>
    </g>
</svg>