<?xml version="1.0" encoding="UTF-8" standalone="no"?>
<svg width="32px" height="232px" viewBox="0 0 32 232" version="1.1" xmlns="http://www.w3.org/2000/svg" xmlns:xlink="http://www.w3.org/1999/xlink" xmlns:sketch="http://www.bohemiancoding.com/sketch/ns">
    <title>flickr</title>
    <description>Created with Sketch (http://www.bohemiancoding.com/sketch)</description>
    <defs></defs>
    <g id="Social" stroke="none" stroke-width="1" fill="none" fill-rule="evenodd" sketch:type="MSPage">
        <path d="M7.34546355,183.999 C3.28951603,183.999 0,180.679 0,176.581 C0,172.482 3.28951603,169.161 7.34546355,169.161 C11.4063622,169.161 14.6968684,172.482 14.6968684,176.581 C14.6968684,180.679 11.4063622,183.999 7.34546355,183.999 L7.34546355,183.999 L7.34546355,183.999 L7.34546355,183.999 Z M24.652556,184 C20.5975987,184 17.3011511,180.682 17.3011511,176.581 C17.3011511,172.48 20.5975987,169.16 24.652556,169.16 C28.7085035,169.16 32,172.48 32,176.581 C32,180.682 28.7085035,184 24.652556,184 L24.652556,184 Z M24.652556,184" id="flickr--lp-blue" fill="#1D4F8D" sketch:type="MSShapeGroup"></path>
        <path d="M7.34546355,143.999 C3.28951603,143.999 0,140.679 0,136.581 C0,132.482 3.28951603,129.161 7.34546355,129.161 C11.4063622,129.161 14.6968684,132.482 14.6968684,136.581 C14.6968684,140.679 11.4063622,143.999 7.34546355,143.999 L7.34546355,143.999 L7.34546355,143.999 L7.34546355,143.999 Z M24.652556,144 C20.5975987,144 17.3011511,140.682 17.3011511,136.581 C17.3011511,132.48 20.5975987,129.16 24.652556,129.16 C28.7085035,129.16 32,132.48 32,136.581 C32,140.682 28.7085035,144 24.652556,144 L24.652556,144 Z M24.652556,144" id="flickr--white" fill="#FFFFFF" sketch:type="MSShapeGroup"></path>
        <path d="M7.34546355,103.999 C3.28951603,103.999 0,100.679 0,96.581 C0,92.482 3.28951603,89.161 7.34546355,89.161 C11.4063622,89.161 14.6968684,92.482 14.6968684,96.581 C14.6968684,100.679 11.4063622,103.999 7.34546355,103.999 L7.34546355,103.999 L7.34546355,103.999 L7.34546355,103.999 Z M24.652556,104 C20.5975987,104 17.3011511,100.682 17.3011511,96.581 C17.3011511,92.48 20.5975987,89.16 24.652556,89.16 C28.7085035,89.16 32,92.48 32,96.581 C32,100.682 28.7085035,104 24.652556,104 L24.652556,104 Z M24.652556,104" id="flickr--subdued-grey" fill="#E5EDF5" sketch:type="MSShapeGroup"></path>
        <path d="M7.34546355,63.999 C3.28951603,63.999 0,60.679 0,56.581 C0,52.482 3.28951603,49.161 7.34546355,49.161 C11.4063622,49.161 14.6968684,52.482 14.6968684,56.581 C14.6968684,60.679 11.4063622,63.999 7.34546355,63.999 L7.34546355,63.999 L7.34546355,63.999 L7.34546355,63.999 Z M24.652556,64 C20.5975987,64 17.3011511,60.682 17.3011511,56.581 C17.3011511,52.48 20.5975987,49.16 24.652556,49.16 C28.7085035,49.16 32,52.48 32,56.581 C32,60.682 28.7085035,64 24.652556,64 L24.652556,64 Z M24.652556,64" id="flickr--body-grey" fill="#67737B" sketch:type="MSShapeGroup"></path>
        <path d="M7.34546355,23.999 C3.28951603,23.999 0,20.679 0,16.581 C0,12.482 3.28951603,9.161 7.34546355,9.161 C11.4063622,9.161 14.6968684,12.482 14.6968684,16.581 C14.6968684,20.679 11.4063622,23.999 7.34546355,23.999 L7.34546355,23.999 L7.34546355,23.999 L7.34546355,23.999 Z M24.652556,24 C20.5975987,24 17.3011511,20.682 17.3011511,16.581 C17.3011511,12.48 20.5975987,9.16 24.652556,9.16 C28.7085035,9.16 32,12.48 32,16.581 C32,20.682 28.7085035,24 24.652556,24 L24.652556,24 Z M24.652556,24" id="flickr--title-grey" fill="#3A434E" sketch:type="MSShapeGroup"></path>
    </g>
</svg>