<?xml version="1.0" encoding="UTF-8" standalone="no"?>
<svg width="32px" height="32px" viewBox="0 0 32 32" version="1.1" xmlns="http://www.w3.org/2000/svg" xmlns:xlink="http://www.w3.org/1999/xlink" xmlns:sketch="http://www.bohemiancoding.com/sketch/ns">
    <title>flights--body-grey</title>
    <description>Created with Sketch (http://www.bohemiancoding.com/sketch)</description>
    <defs></defs>
    <g id="Categories" stroke="none" stroke-width="1" fill="none" fill-rule="evenodd" sketch:type="MSPage">
        <path d="M23.383,6.61875023 L20.556,9.44775023 L7.06,8.13675023 C5.923,8.14875023 5.004,9.06875023 5,10.1957502 C5.004,11.3287502 5.735,11.8617502 7.112,12.3927502 L15.186,14.8167502 L11.138,18.8657502 C10.849,19.1547502 10.667,19.5057502 10.577,19.8747502 L6.304,19.6897502 C5.804,19.6837502 5.39,20.0977502 5.387,20.6077502 C5.396,21.1117502 5.804,21.5197502 6.304,21.5257502 L10.461,22.5527502 L11.398,26.7087502 C11.521,27.2967502 11.908,27.6227502 12.41,27.6307502 C12.92,27.6267502 13.334,27.2127502 13.33,26.7127502 L13.143,22.4157502 C13.504,22.3247502 13.849,22.1447502 14.133,21.8617502 L18.186,17.8067502 L20.618,25.8967502 C21.149,27.2757502 21.683,28.0077502 22.814,28.0097502 C23.943,28.0077502 24.863,27.0877502 24.872,25.9497502 L23.562,12.4317502 L26.379,9.61575023 C27.204,8.78975023 27.206,7.44975023 26.384,6.61875023 C25.555,5.79275023 24.208,5.79475023 23.383,6.61875023 Z M23.383,6.61875023" id="flights--body-grey" fill="#67737B" sketch:type="MSShapeGroup"></path>
    </g>
</svg>