<?xml version="1.0" encoding="UTF-8" standalone="no"?>
<svg width="32px" height="32px" viewBox="0 0 32 32" version="1.1" xmlns="http://www.w3.org/2000/svg" xmlns:xlink="http://www.w3.org/1999/xlink" xmlns:sketch="http://www.bohemiancoding.com/sketch/ns">
    <title>flights-line--body-grey</title>
    <description>Created with Sketch (http://www.bohemiancoding.com/sketch)</description>
    <defs></defs>
    <g id="Categories" stroke="none" stroke-width="1" fill="none" fill-rule="evenodd" sketch:type="MSPage">
        <path d="M23.202,28.9995006 L23.198,28.9995006 C21.377,28.9935006 20.608,27.6485006 20.044,26.1935006 L17.891,19.0345006 L14.678,22.2475006 C14.458,22.4705006 14.204,22.6555006 13.922,22.8005006 L14.092,26.6875006 C14.104,27.7415006 13.272,28.5855006 12.237,28.6015006 C11.245,28.5875006 10.485,27.9235006 10.274,26.9095006 L9.409,23.0795006 L5.647,22.1525006 C4.688,22.0795006 3.936,21.2905006 3.911,20.3085006 C3.922,19.2495006 4.758,18.4155006 5.774,18.4155006 L9.678,18.5875006 C9.825,18.3025006 10.012,18.0405006 10.239,17.8125006 L13.45,14.6035006 L6.374,12.4785006 C4.854,11.8965006 3.508,11.1265006 3.5,9.30050063 C3.506,7.61650063 4.885,6.23950063 6.569,6.22650063 L20.481,7.57250063 L23.165,4.88850063 C24.36,3.70250063 26.424,3.70450063 27.606,4.89050063 C28.825,6.11450063 28.821,8.10350063 27.598,9.32150063 L24.926,11.9935006 L26.27,25.8395006 C26.262,27.6245006 24.883,28.9995006 23.202,28.9995006 L23.202,28.9995006 L23.202,28.9995006 L23.202,28.9995006 Z M18.749,15.6305006 L21.747,25.6095006 C22.319,27.0795006 22.696,27.1985006 23.204,27.1985006 C23.899,27.1985006 24.469,26.6245006 24.473,25.9195006 L23.053,11.3225006 L26.325,8.04850063 C26.846,7.52850063 26.848,6.68150063 26.329,6.15950063 C25.827,5.65350063 24.944,5.66150063 24.436,6.16350063 L21.153,9.44450063 L6.489,8.02350063 C5.879,8.03250063 5.305,8.60550063 5.301,9.30050063 C5.303,9.80450063 5.42,10.1835006 6.956,10.7775006 L16.854,13.7455006 L11.516,19.0835006 C11.342,19.2575006 11.223,19.4745006 11.165,19.7225006 L10.993,20.4465006 L5.739,20.2145006 C5.745,20.2165006 5.709,20.2515006 5.709,20.2965006 C5.711,20.3125006 5.747,20.3555006 5.79,20.3555006 L5.995,20.3825006 L10.92,21.5995006 L12.034,26.5295006 C12.112,26.9055006 12.295,26.8255006 12.292,26.7355006 L12.063,21.4895006 L12.786,21.3185006 C13.028,21.2595006 13.235,21.1445006 13.401,20.9785006 L18.749,15.6305006 L18.749,15.6305006 Z M18.749,15.6305006" id="flights-line--body-grey" fill="#67737B" sketch:type="MSShapeGroup"></path>
    </g>
</svg>