<svg width="32" height="232" xmlns="http://www.w3.org/2000/svg" xmlns:sketch="http://www.bohemiancoding.com/sketch/ns"><title>flights-left</title><g sketch:type="MSPage" fill="none"><path d="M5.118 138.095h3.995l8.606 10.317c.812.783 2.111.783 2.91.002.798-.793.657-1.675.06-3.004l-3.992-7.315h5.721c.408 0 .784-.119 1.109-.313l2.888 3.107c.348.353.933.353 1.295 0 .35-.358.35-.926.001-1.28l-2.21-3.612 2.273-3.548c.329-.497.285-.993-.064-1.349-.362-.352-.947-.352-1.297 0l-2.903 3.124c-.321-.187-.691-.302-1.092-.302h-5.728l3.998-7.332c.598-1.33.74-2.212-.058-3.001-.8-.787-2.1-.787-2.911.001l-8.622 10.332h-3.979c-1.166 0-2.114.932-2.12 2.083.002 1.153.955 2.09 2.12 2.09zm0 0" fill="#206FAC" sketch:type="MSShapeGroup"/><path d="M5.118 98.095h3.995l8.606 10.317c.812.783 2.111.783 2.91.002.798-.793.657-1.675.06-3.004l-3.992-7.315h5.721c.408 0 .784-.119 1.109-.313l2.888 3.107c.348.353.933.353 1.295 0 .35-.358.35-.926.001-1.28l-2.21-3.612 2.273-3.548c.329-.497.285-.993-.064-1.349-.362-.352-.947-.352-1.297 0l-2.903 3.124c-.321-.187-.691-.302-1.092-.302h-5.728l3.998-7.332c.598-1.33.74-2.212-.058-3.001-.8-.787-2.1-.787-2.911.001l-8.622 10.332h-3.979c-1.166 0-2.114.932-2.12 2.083.002 1.153.955 2.09 2.12 2.09zm0 0" fill="#fff" sketch:type="MSShapeGroup"/><path d="M5.118 58.095h3.995l8.606 10.317c.812.783 2.111.783 2.91.002.798-.793.657-1.675.06-3.004l-3.992-7.315h5.721c.408 0 .784-.119 1.109-.313l2.888 3.107c.348.353.933.353 1.295 0 .35-.358.35-.926.001-1.28l-2.21-3.612 2.273-3.548c.329-.497.285-.993-.064-1.349-.362-.352-.947-.352-1.297 0l-2.903 3.124c-.321-.187-.691-.302-1.092-.302h-5.728l3.998-7.332c.598-1.33.74-2.212-.058-3.001-.8-.787-2.1-.787-2.911.001l-8.622 10.332h-3.979c-1.166 0-2.114.932-2.12 2.083.002 1.153.955 2.09 2.12 2.09zm0 0" fill="#67737B" sketch:type="MSShapeGroup"/><path d="M5.62 18.095h3.995l8.606 10.317c.812.783 2.111.783 2.91.002.798-.793.657-1.675.06-3.004l-3.992-7.315h5.721c.408 0 .784-.119 1.109-.313l2.888 3.107c.348.353.933.353 1.295 0 .35-.358.35-.926.001-1.28l-2.21-3.612 2.273-3.548c.329-.497.285-.993-.064-1.349-.362-.352-.947-.352-1.297 0l-2.903 3.124c-.321-.187-.691-.302-1.092-.302h-5.728l3.998-7.332c.598-1.33.74-2.212-.058-3.001-.8-.787-2.1-.787-2.911.001l-8.622 10.332h-3.979c-1.166 0-2.114.932-2.12 2.083.002 1.153.955 2.09 2.12 2.09zm0 0" fill="#3A434E" sketch:type="MSShapeGroup"/></g></svg>