<svg width="32" height="232" viewBox="0 0 32 232" xmlns="http://www.w3.org/2000/svg"><title>flights-tail</title><g fill="none"><path d="M31.7 131.302c-.402-.403-1.057-.403-1.459 0l-1.375 1.375-6.564-.637c-.553.004-.999.452-1.001 1.001.002.55.357.81 1.027 1.068l3.926 1.179-1.969 1.969c-.139.141-.229.312-.272.491l-2.078-.092c-.244-.002-.444.2-.446.447.004.246.202.445.446.447l2.023.5.455 2.021c.06.287.246.447.492.449.247-.001.45-.203.447-.447l-.092-2.09c.176-.043.344-.13.483-.269l1.971-1.971 1.182 3.934c.259.671.517 1.025 1.068 1.027.551-.001.997-.449 1.002-1.001l-.638-6.574 1.37-1.371c.402-.402.403-1.052.002-1.456zm-8.532 8.366l-.269.292c-.175.189-.424.476-.773.813-.685.683-1.695 1.643-3.09 2.583-.686.484-1.489.928-2.369 1.34-.891.381-1.856.764-2.909.961-.519.135-1.064.17-1.608.256-.549.022-1.108.093-1.668.047l-.845-.035-.843-.101c-.567-.046-1.115-.201-1.675-.3l-.104-.021-.027-.006-.057-.016-.049-.016-.197-.062-.393-.123c-.266-.093-.517-.141-.791-.27-.541-.247-1.098-.463-1.568-.792-.999-.574-1.824-1.405-2.454-2.301-.661-.887-1.029-1.905-1.257-2.867l-.141-.719c-.028-.238-.043-.475-.059-.706-.053-.461.004-.909.012-1.334.034-.425.111-.826.164-1.208l.278-1.059.334-.895c.106-.276.244-.512.345-.73.2-.446.436-.753.567-.974l.214-.334-.158.363c-.098.24-.27.576-.411 1.035-.071.228-.174.471-.241.75l-.221.897-.154 1.033c-.011.367-.059.749-.053 1.148.029.398.007.815.095 1.235l.097.64.17.644c.261.854.642 1.727 1.243 2.482l.213.294.254.262c.174.17.33.361.521.519.394.302.771.63 1.223.87.424.292.895.458 1.35.668.221.109.514.166.768.253l.394.118.198.059.048.016.013.003-.019-.007.023.006.098.02c.522.097 1.037.252 1.563.299l.784.105.785.042c.519.045 1.035-.007 1.546-.004.505-.061 1.014-.073 1.498-.184.985-.152 1.908-.446 2.773-.754.85-.347 1.652-.702 2.354-1.111 1.417-.793 2.522-1.609 3.285-2.19.765-.583 1.193-.934 1.193-.934zm0 0" fill="#206FAC"/><path d="M31.7 91.302c-.402-.403-1.057-.403-1.459 0l-1.375 1.375-6.564-.637c-.553.004-.999.452-1.001 1.001.002.55.357.81 1.027 1.068l3.926 1.179-1.969 1.969c-.139.141-.229.312-.272.491l-2.078-.092c-.244-.002-.444.2-.446.447.004.246.202.445.446.447l2.023.5.455 2.021c.06.287.246.447.492.449.247-.001.45-.203.447-.447l-.092-2.09c.176-.043.344-.13.483-.269l1.971-1.971 1.182 3.934c.259.671.517 1.025 1.068 1.027.551-.001.997-.449 1.002-1.001l-.638-6.574 1.37-1.371c.402-.402.403-1.052.002-1.456zm-8.532 8.366l-.269.292c-.175.189-.424.476-.773.813-.685.683-1.695 1.643-3.09 2.583-.686.484-1.489.928-2.369 1.34-.891.381-1.856.764-2.909.961-.519.135-1.064.17-1.608.256-.549.022-1.108.093-1.668.047l-.845-.035-.843-.101c-.567-.046-1.115-.201-1.675-.3l-.104-.021-.027-.006-.057-.016-.049-.016-.197-.062-.393-.123c-.266-.093-.517-.141-.791-.27-.541-.247-1.098-.463-1.568-.792-.999-.574-1.824-1.405-2.454-2.301-.661-.887-1.029-1.905-1.257-2.867l-.141-.719c-.028-.238-.043-.475-.059-.706-.053-.461.004-.909.012-1.334.034-.425.111-.826.164-1.208l.278-1.059.334-.895c.106-.276.244-.512.345-.73.2-.446.436-.753.567-.974l.214-.334-.158.363c-.098.24-.27.576-.411 1.035-.071.228-.174.471-.241.75l-.221.897-.154 1.033c-.011.367-.059.749-.053 1.148.029.398.007.815.095 1.235l.097.64.17.644c.261.854.642 1.727 1.243 2.482l.213.294.254.262c.174.17.33.361.521.519.394.302.771.63 1.223.87.424.292.895.458 1.35.668.221.109.514.166.768.253l.394.118.198.059.048.016.013.003-.019-.007.023.006.098.02c.522.097 1.037.252 1.563.299l.784.105.785.042c.519.045 1.035-.007 1.546-.004.505-.061 1.014-.073 1.498-.184.985-.152 1.908-.446 2.773-.754.85-.347 1.652-.702 2.354-1.111 1.417-.793 2.522-1.609 3.285-2.19.765-.583 1.193-.934 1.193-.934zm0 0" fill="#fff"/><path d="M31.7 51.302c-.402-.403-1.057-.403-1.459 0l-1.375 1.375-6.564-.637c-.553.004-.999.452-1.001 1.001.002.55.357.81 1.027 1.068l3.926 1.179-1.969 1.969c-.139.141-.229.312-.272.491l-2.078-.092c-.244-.002-.444.2-.446.447.004.246.202.445.446.447l2.023.5.455 2.021c.06.287.246.447.492.449.247-.001.45-.203.447-.447l-.092-2.09c.176-.043.344-.13.483-.269l1.971-1.971 1.182 3.934c.259.671.517 1.025 1.068 1.027.551-.001.997-.449 1.002-1.001l-.638-6.574 1.37-1.371c.402-.402.403-1.052.002-1.456zm-8.532 8.366l-.269.292c-.175.189-.424.476-.773.813-.685.683-1.695 1.643-3.09 2.583-.686.484-1.489.928-2.369 1.34-.891.381-1.856.764-2.909.961-.519.135-1.064.17-1.608.256-.549.022-1.108.093-1.668.047l-.845-.035-.843-.101c-.567-.046-1.115-.201-1.675-.3l-.104-.021-.027-.006-.057-.016-.049-.016-.197-.062-.393-.123c-.266-.093-.517-.141-.791-.27-.541-.247-1.098-.463-1.568-.792-.999-.574-1.824-1.405-2.454-2.301-.661-.887-1.029-1.905-1.257-2.867l-.141-.719c-.028-.238-.043-.475-.059-.706-.053-.461.004-.909.012-1.334.034-.425.111-.826.164-1.208l.278-1.059.334-.895c.106-.276.244-.512.345-.73.2-.446.436-.753.567-.974l.214-.334-.158.363c-.098.24-.27.576-.411 1.035-.071.228-.174.471-.241.75l-.221.897-.154 1.033c-.011.367-.059.749-.053 1.148.029.398.007.815.095 1.235l.097.64.17.644c.261.854.642 1.727 1.243 2.482l.213.294.254.262c.174.17.33.361.521.519.394.302.771.63 1.223.87.424.292.895.458 1.35.668.221.109.514.166.768.253l.394.118.198.059.048.016.013.003-.019-.007.023.006.098.02c.522.097 1.037.252 1.563.299l.784.105.785.042c.519.045 1.035-.007 1.546-.004.505-.061 1.014-.073 1.498-.184.985-.152 1.908-.446 2.773-.754.85-.347 1.652-.702 2.354-1.111 1.417-.793 2.522-1.609 3.285-2.19.765-.583 1.193-.934 1.193-.934zm0 0" fill="#67737B"/><path d="M31.7 11.302c-.402-.403-1.057-.403-1.459 0l-1.375 1.375-6.564-.637c-.553.004-.999.452-1.001 1.001.002.55.357.81 1.027 1.068l3.926 1.179-1.969 1.969c-.139.141-.229.312-.272.491l-2.078-.092c-.244-.002-.444.2-.446.447.004.246.202.445.446.447l2.023.5.455 2.021c.06.287.246.447.492.449.247-.001.45-.203.447-.447l-.092-2.09c.176-.043.344-.13.483-.269l1.971-1.971 1.182 3.934c.259.671.517 1.025 1.068 1.027.551-.001.997-.449 1.002-1.001l-.638-6.574 1.37-1.371c.402-.402.403-1.052.002-1.456zm-8.532 8.366l-.269.292c-.175.189-.424.476-.773.813-.685.683-1.695 1.643-3.09 2.583-.686.484-1.489.928-2.369 1.34-.891.381-1.856.764-2.909.961-.519.135-1.064.17-1.608.256-.549.022-1.108.093-1.668.047l-.845-.035-.843-.101c-.567-.046-1.115-.201-1.675-.3l-.104-.021-.027-.006-.057-.016-.049-.016-.197-.062-.393-.123c-.266-.093-.517-.141-.791-.27-.541-.247-1.098-.463-1.568-.792-.999-.574-1.824-1.405-2.454-2.301-.661-.887-1.029-1.905-1.257-2.867l-.141-.719c-.028-.238-.043-.475-.059-.706-.053-.461.004-.909.012-1.334.034-.425.111-.826.164-1.208l.278-1.059.334-.895c.106-.276.244-.512.345-.73.2-.446.436-.753.567-.974l.214-.334-.158.363c-.098.24-.27.576-.411 1.035-.071.228-.174.471-.241.75l-.221.897-.154 1.033c-.011.367-.059.749-.053 1.148.029.398.007.815.095 1.235l.097.64.17.644c.261.854.642 1.727 1.243 2.482l.213.294.254.262c.174.17.33.361.521.519.394.302.771.63 1.223.87.424.292.895.458 1.35.668.221.109.514.166.768.253l.394.118.198.059.048.016.013.003-.019-.007.023.006.098.02c.522.097 1.037.252 1.563.299l.784.105.785.042c.519.045 1.035-.007 1.546-.004.505-.061 1.014-.073 1.498-.184.985-.152 1.908-.446 2.773-.754.85-.347 1.652-.702 2.354-1.111 1.417-.793 2.522-1.609 3.285-2.19.765-.583 1.193-.934 1.193-.934zm0 0" fill="#3A434E"/></g></svg>