<svg width="32" height="232" viewBox="0 0 32 232" xmlns="http://www.w3.org/2000/svg"><title>flights-line</title><g fill="none"><path d="M23.202 149h-.004c-1.821-.006-2.59-1.351-3.154-2.806l-2.153-7.159-3.213 3.213c-.22.223-.474.408-.756.553l.17 3.887c.012 1.054-.82 1.898-1.855 1.914-.992-.014-1.752-.678-1.963-1.692l-.865-3.83-3.762-.927c-.959-.073-1.711-.862-1.736-1.844.011-1.059.847-1.893 1.863-1.893l3.904.172c.147-.285.334-.547.561-.775l3.211-3.209-7.076-2.125c-1.52-.582-2.866-1.352-2.874-3.178.006-1.684 1.385-3.061 3.069-3.074l13.912 1.346 2.684-2.684c1.195-1.186 3.259-1.184 4.441.002 1.219 1.224 1.215 3.213-.008 4.431l-2.672 2.672 1.344 13.846c-.008 1.785-1.387 3.16-3.068 3.16zm-4.453-13.369l2.998 9.979c.572 1.47.949 1.589 1.457 1.589.695 0 1.265-.574 1.269-1.279l-1.42-14.597 3.272-3.274c.521-.52.523-1.367.004-1.889-.502-.506-1.385-.498-1.893.004l-3.283 3.281-14.664-1.421c-.61.009-1.184.582-1.188 1.277.002.504.119.883 1.655 1.477l9.898 2.968-5.338 5.338c-.174.174-.293.391-.351.639l-.172.724-5.254-.232-.03.082.081.059.205.027 4.925 1.217 1.114 4.93c.078.376.261.296.258.206l-.229-5.246.723-.171c.242-.059.449-.174.615-.34l5.348-5.348zm0 0" fill="#206FAC"/><path d="M23.202 109h-.004c-1.821-.006-2.59-1.351-3.154-2.806l-2.153-7.159-3.213 3.213c-.22.223-.474.408-.756.553l.17 3.887c.012 1.054-.82 1.898-1.855 1.914-.992-.014-1.752-.678-1.963-1.692l-.865-3.83-3.762-.927c-.959-.073-1.711-.862-1.736-1.844.011-1.059.847-1.893 1.863-1.893l3.904.172c.147-.285.334-.547.561-.775l3.211-3.209-7.076-2.125c-1.52-.582-2.866-1.352-2.874-3.178.006-1.684 1.385-3.061 3.069-3.074l13.912 1.346 2.684-2.684c1.195-1.186 3.259-1.184 4.441.002 1.219 1.224 1.215 3.213-.008 4.431l-2.672 2.672 1.344 13.846c-.008 1.785-1.387 3.16-3.068 3.16zm-4.453-13.369l2.998 9.979c.572 1.47.949 1.589 1.457 1.589.695 0 1.265-.574 1.269-1.279l-1.42-14.597 3.272-3.274c.521-.52.523-1.367.004-1.889-.502-.506-1.385-.498-1.893.004l-3.283 3.281-14.664-1.421c-.61.009-1.184.582-1.188 1.277.002.504.119.883 1.655 1.477l9.898 2.968-5.338 5.338c-.174.174-.293.391-.351.639l-.172.724-5.254-.232-.03.082.081.059.205.027 4.925 1.217 1.114 4.93c.078.376.261.296.258.206l-.229-5.246.723-.171c.242-.059.449-.174.615-.34l5.348-5.348zm0 0" fill="#fff"/><path d="M23.202 69h-.004c-1.821-.006-2.59-1.351-3.154-2.806l-2.153-7.159-3.213 3.213c-.22.223-.474.408-.756.553l.17 3.887c.012 1.054-.82 1.898-1.855 1.914-.992-.014-1.752-.678-1.963-1.692l-.865-3.83-3.762-.927c-.959-.073-1.711-.862-1.736-1.844.011-1.059.847-1.893 1.863-1.893l3.904.172c.147-.285.334-.547.561-.775l3.211-3.209-7.076-2.125c-1.52-.582-2.866-1.352-2.874-3.178.006-1.684 1.385-3.061 3.069-3.074l13.912 1.346 2.684-2.684c1.195-1.186 3.259-1.184 4.441.002 1.219 1.224 1.215 3.213-.008 4.431l-2.672 2.672 1.344 13.846c-.008 1.785-1.387 3.16-3.068 3.16zm-4.453-13.369l2.998 9.979c.572 1.47.949 1.589 1.457 1.589.695 0 1.265-.574 1.269-1.279l-1.42-14.597 3.272-3.274c.521-.52.523-1.367.004-1.889-.502-.506-1.385-.498-1.893.004l-3.283 3.281-14.664-1.421c-.61.009-1.184.582-1.188 1.277.002.504.119.883 1.655 1.477l9.898 2.968-5.338 5.338c-.174.174-.293.391-.351.639l-.172.724-5.254-.232-.03.082.081.059.205.027 4.925 1.217 1.114 4.93c.078.376.261.296.258.206l-.229-5.246.723-.171c.242-.059.449-.174.615-.34l5.348-5.348zm0 0" fill="#67737B"/><path d="M23.202 29h-.004c-1.821-.006-2.59-1.351-3.154-2.806l-2.153-7.159-3.213 3.213c-.22.223-.474.408-.756.553l.17 3.887c.012 1.054-.82 1.898-1.855 1.914-.992-.014-1.752-.678-1.963-1.692l-.865-3.83-3.762-.927c-.959-.073-1.711-.862-1.736-1.844.011-1.059.847-1.893 1.863-1.893l3.904.172c.147-.285.334-.547.561-.775l3.211-3.209-7.076-2.125c-1.52-.582-2.866-1.352-2.874-3.178.006-1.684 1.385-3.061 3.069-3.074l13.912 1.346 2.684-2.684c1.195-1.186 3.259-1.184 4.441.002 1.219 1.224 1.215 3.213-.008 4.431l-2.672 2.672 1.344 13.846c-.008 1.785-1.387 3.16-3.068 3.16zm-4.453-13.369l2.998 9.979c.572 1.47.949 1.589 1.457 1.589.695 0 1.265-.574 1.269-1.279l-1.42-14.597 3.272-3.274c.521-.52.523-1.367.004-1.889-.502-.506-1.385-.498-1.893.004l-3.283 3.281-14.664-1.421c-.61.009-1.184.582-1.188 1.277.002.504.119.883 1.655 1.477l9.898 2.968-5.338 5.338c-.174.174-.293.391-.351.639l-.172.724-5.254-.232-.03.082.081.059.205.027 4.925 1.217 1.114 4.93c.078.376.261.296.258.206l-.229-5.246.723-.171c.242-.059.449-.174.615-.34l5.348-5.348zm0 0" fill="#3A434E"/></g></svg>