<svg width="32" height="232" xmlns="http://www.w3.org/2000/svg" xmlns:sketch="http://www.bohemiancoding.com/sketch/ns"><title>folder</title><g sketch:type="MSPage" fill="none"><path d="M8.581 132.459c-1.062 0-1.922.846-1.922 1.885v10.818c-.906-.15-1.6-.92-1.6-1.854v-10.199c0-1.043.86-1.888 1.922-1.888h7.911c.673-.036 10.566 0 10.566 0 .174 0 .336.033.494.072-.185-.85-.953-1.485-1.874-1.485h-.286c-.649-.035-1.143-.23-1.178-.869v-.066c0-1.041-.861-1.414-1.92-1.414h-4.074c-1.057 0-1.915.371-1.92 1.404-.002.705-.516.908-1.19.945h-8.089c-1.061 0-1.921.844-1.921 1.885v11.768c0 .486.19.922.497 1.256.101.111.189.187.285.257l2.759 2.254c.153.207.352.379.581.51.309.168.621.262.959.262h17.996c1.061 0 1.923-.846 1.923-1.887v-11.769c0-1.039-.862-1.885-1.923-1.885h-17.996zm0 0" fill="#206FAC" sketch:type="MSShapeGroup"/><path d="M8.581 92.459c-1.062 0-1.922.846-1.922 1.885v10.818c-.906-.15-1.6-.92-1.6-1.854v-10.199c0-1.043.86-1.888 1.922-1.888h7.911c.673-.036 10.566 0 10.566 0 .174 0 .336.033.494.072-.185-.85-.953-1.485-1.874-1.485h-.286c-.649-.035-1.143-.23-1.178-.869v-.066c0-1.041-.861-1.414-1.92-1.414h-4.074c-1.057 0-1.915.371-1.92 1.404-.002.705-.516.908-1.19.945h-8.089c-1.061 0-1.921.844-1.921 1.885v11.768c0 .486.19.922.497 1.256.101.111.189.187.285.257l2.759 2.254c.153.207.352.379.581.51.309.168.621.262.959.262h17.996c1.061 0 1.923-.846 1.923-1.887v-11.769c0-1.039-.862-1.885-1.923-1.885h-17.996zm0 0" fill="#fff" sketch:type="MSShapeGroup"/><path d="M8.581 52.459c-1.062 0-1.922.846-1.922 1.885v10.818c-.906-.15-1.6-.92-1.6-1.854v-10.199c0-1.043.86-1.888 1.922-1.888h7.911c.673-.036 10.566 0 10.566 0 .174 0 .336.033.494.072-.185-.85-.953-1.485-1.874-1.485h-.286c-.649-.035-1.143-.23-1.178-.869v-.066c0-1.041-.861-1.414-1.92-1.414h-4.074c-1.057 0-1.915.371-1.92 1.404-.002.705-.516.908-1.19.945h-8.089c-1.061 0-1.921.844-1.921 1.885v11.768c0 .486.19.922.497 1.256.101.111.189.187.285.257l2.759 2.254c.153.207.352.379.581.51.309.168.621.262.959.262h17.996c1.061 0 1.923-.846 1.923-1.887v-11.769c0-1.039-.862-1.885-1.923-1.885h-17.996zm0 0" fill="#67737B" sketch:type="MSShapeGroup"/><path d="M8.581 12.459c-1.062 0-1.922.846-1.922 1.885v10.818c-.906-.15-1.6-.92-1.6-1.854v-10.199c0-1.043.86-1.888 1.922-1.888h7.911c.673-.036 10.566 0 10.566 0 .174 0 .336.033.494.072-.185-.85-.953-1.485-1.874-1.485h-.286c-.649-.035-1.143-.23-1.178-.869v-.066c0-1.041-.861-1.414-1.92-1.414h-4.074c-1.057 0-1.915.371-1.92 1.404-.002.705-.516.908-1.19.945h-8.089c-1.061 0-1.921.844-1.921 1.885v11.768c0 .486.19.922.497 1.256.101.111.189.187.285.257l2.759 2.254c.153.207.352.379.581.51.309.168.621.262.959.262h17.996c1.061 0 1.923-.846 1.923-1.887v-11.769c0-1.039-.862-1.885-1.923-1.885h-17.996zm0 0" fill="#3A434E" sketch:type="MSShapeGroup"/></g></svg>