<svg width="32" height="232" viewBox="0 0 32 232" xmlns="http://www.w3.org/2000/svg"><title>globe</title><g fill="none"><path d="M32 135.891c0 4.449-1.57 8.242-4.71 11.382-3.141 3.153-6.902 4.727-11.282 4.727-4.381 0-8.136-1.549-11.266-4.645-3.161-3.117-4.742-6.9-4.742-11.347 0-4.448 1.581-8.235 4.742-11.363 3.13-3.096 6.885-4.645 11.266-4.645 4.38 0 8.13 1.525 11.248 4.576 3.163 3.096 4.744 6.867 4.744 11.315zm-2.753-.075c0-3.621-1.316-6.726-3.945-9.314-2.609-2.559-5.697-3.838-9.266-3.838l-1.439 3.004 1.569.322 1.222-1.246 2.158.147.434 1.171-1.297 1.319v.789l.807.162.375-.615 1.425-.906-.044.613.532.937-.634.674.403.395-.949.06.388.791-2.057.994.316 1.188h-.648l-.288-1.172-1.51-.029-.274.455-.618-.293-1.007 1.025.805.981-.029 1.082.849.646 4.951.571 1.568 1.126-.186 2.799-3.412 3.471c-.221.225-.437.85-.648 1.875-.202.967-.273 1.654-.214 2.064l-.519.6c-.403-.811-.927-2.055-1.569-3.732-.155-.576-.287-1.309-.403-2.198l-.259-2.212-2.159-1.932 1.915-2.301-.792-1.158c-1.219-.252-2.01-.477-2.375-.672-.365-.205-.992-.766-1.884-1.683l.748 1.478-.504.218-1.166-2.226.23-2.08-.359-1.463-1.123-1.113-.82-.205-.719.511-.792.208c-2.179 2.556-3.268 5.496-3.268 8.816 0 3.709 1.306 6.86 3.915 9.445 2.58 2.559 5.699 3.836 9.355 3.836 3.654 0 6.767-1.3 9.341-3.908 2.58-2.607 3.869-5.768 3.87-9.477zm0 0" fill="#206FAC"/><path d="M32 95.891c0 4.449-1.57 8.242-4.71 11.382-3.141 3.153-6.902 4.727-11.282 4.727-4.381 0-8.136-1.549-11.266-4.645-3.161-3.117-4.742-6.9-4.742-11.347 0-4.448 1.581-8.235 4.742-11.363 3.13-3.096 6.885-4.645 11.266-4.645 4.38 0 8.13 1.525 11.248 4.576 3.163 3.096 4.744 6.867 4.744 11.315zm-2.753-.075c0-3.621-1.316-6.726-3.945-9.314-2.609-2.559-5.697-3.838-9.266-3.838l-1.439 3.004 1.569.322 1.222-1.246 2.158.147.434 1.171-1.297 1.319v.789l.807.162.375-.615 1.425-.906-.044.613.532.937-.634.674.403.395-.949.06.388.791-2.057.994.316 1.188h-.648l-.288-1.172-1.51-.029-.274.455-.618-.293-1.007 1.025.805.981-.029 1.082.849.646 4.951.571 1.568 1.126-.186 2.799-3.412 3.471c-.221.225-.437.85-.648 1.875-.202.967-.273 1.654-.214 2.064l-.519.6c-.403-.811-.927-2.055-1.569-3.732-.155-.576-.287-1.309-.403-2.198l-.259-2.212-2.159-1.932 1.915-2.301-.792-1.158c-1.219-.252-2.01-.477-2.375-.672-.365-.205-.992-.766-1.884-1.683l.748 1.478-.504.218-1.166-2.226.23-2.08-.359-1.463-1.123-1.113-.82-.205-.719.511-.792.208c-2.179 2.556-3.268 5.496-3.268 8.816 0 3.709 1.306 6.86 3.915 9.445 2.58 2.559 5.699 3.836 9.355 3.836 3.654 0 6.767-1.3 9.341-3.908 2.58-2.607 3.869-5.768 3.87-9.477zm0 0" fill="#fff"/><path d="M32 55.891c0 4.449-1.57 8.242-4.71 11.382-3.141 3.153-6.902 4.727-11.282 4.727-4.381 0-8.136-1.549-11.266-4.645-3.161-3.117-4.742-6.9-4.742-11.347 0-4.448 1.581-8.235 4.742-11.363 3.13-3.096 6.885-4.645 11.266-4.645 4.38 0 8.13 1.525 11.248 4.576 3.163 3.096 4.744 6.867 4.744 11.315zm-2.753-.075c0-3.621-1.316-6.726-3.945-9.314-2.609-2.559-5.697-3.838-9.266-3.838l-1.439 3.004 1.569.322 1.222-1.246 2.158.147.434 1.171-1.297 1.319v.789l.807.162.375-.615 1.425-.906-.044.613.532.937-.634.674.403.395-.949.06.388.791-2.057.994.316 1.188h-.648l-.288-1.172-1.51-.029-.274.455-.618-.293-1.007 1.025.805.981-.029 1.082.849.646 4.951.571 1.568 1.126-.186 2.799-3.412 3.471c-.221.225-.437.85-.648 1.875-.202.967-.273 1.654-.214 2.064l-.519.6c-.403-.811-.927-2.055-1.569-3.732-.155-.576-.287-1.309-.403-2.198l-.259-2.212-2.159-1.932 1.915-2.301-.792-1.158c-1.219-.252-2.01-.477-2.375-.672-.365-.205-.992-.766-1.884-1.683l.748 1.478-.504.218-1.166-2.226.23-2.08-.359-1.463-1.123-1.113-.82-.205-.719.511-.792.208c-2.179 2.556-3.268 5.496-3.268 8.816 0 3.709 1.306 6.86 3.915 9.445 2.58 2.559 5.699 3.836 9.355 3.836 3.654 0 6.767-1.3 9.341-3.908 2.58-2.607 3.869-5.768 3.87-9.477zm0 0" fill="#67737B"/><path d="M32 15.891c0 4.449-1.57 8.242-4.71 11.382-3.141 3.153-6.902 4.727-11.282 4.727-4.381 0-8.136-1.549-11.266-4.645-3.161-3.117-4.742-6.9-4.742-11.347 0-4.448 1.581-8.235 4.742-11.363 3.13-3.096 6.885-4.645 11.266-4.645 4.38 0 8.13 1.525 11.248 4.576 3.163 3.096 4.744 6.867 4.744 11.315zm-2.753-.075c0-3.621-1.316-6.726-3.945-9.314-2.609-2.559-5.697-3.838-9.266-3.838l-1.439 3.004 1.569.322 1.222-1.246 2.158.147.434 1.171-1.297 1.319v.789l.807.162.375-.615 1.425-.906-.044.613.532.937-.634.674.403.395-.949.06.388.791-2.057.994.316 1.188h-.648l-.288-1.172-1.51-.029-.274.455-.618-.293-1.007 1.025.805.981-.029 1.082.849.646 4.951.571 1.568 1.126-.186 2.799-3.412 3.471c-.221.225-.437.85-.648 1.875-.202.967-.273 1.654-.214 2.064l-.519.6c-.403-.811-.927-2.055-1.569-3.732-.155-.576-.287-1.309-.403-2.198l-.259-2.212-2.159-1.932 1.915-2.301-.792-1.158c-1.219-.252-2.01-.477-2.375-.672-.365-.205-.992-.766-1.884-1.683l.748 1.478-.504.218-1.166-2.226.23-2.08-.359-1.463-1.123-1.113-.82-.205-.719.511-.792.208c-2.179 2.556-3.268 5.496-3.268 8.816 0 3.709 1.306 6.86 3.915 9.445 2.58 2.559 5.699 3.836 9.355 3.836 3.654 0 6.767-1.3 9.341-3.908 2.58-2.607 3.869-5.768 3.87-9.477zm0 0" fill="#3A434E"/></g></svg>