<svg width="32" height="232" viewBox="0 0 32 232" xmlns="http://www.w3.org/2000/svg"><title>grid-list</title><g fill="none"><path d="M13.127 135.522h-7.699c-1.066 0-1.928-.861-1.928-1.923v-7.674c0-1.061.862-1.925 1.928-1.925h7.699c1.065 0 1.926.864 1.926 1.925v7.674c0 1.062-.861 1.923-1.926 1.923zm0 13.478h-7.699c-1.066 0-1.928-.861-1.928-1.924v-7.672c0-1.064.862-1.924 1.928-1.924h7.699c1.065 0 1.926.86 1.926 1.924v7.672c0 1.063-.861 1.924-1.926 1.924zm13.463-21.059h-7.761c-1.071 0-1.942-.868-1.942-1.94 0-1.071.871-1.938 1.942-1.938h7.761c1.071 0 1.94.867 1.94 1.938 0 1.072-.869 1.94-1.94 1.94zm-7.761 2.86h7.761c1.071 0 1.94.867 1.94 1.94 0 1.07-.869 1.939-1.94 1.939h-7.761c-1.071 0-1.942-.869-1.942-1.939 0-1.073.871-1.94 1.942-1.94zm7.761 10.617h-7.761c-1.071 0-1.942-.869-1.942-1.94s.871-1.937 1.942-1.937h7.761c1.071 0 1.94.866 1.94 1.937 0 1.071-.869 1.94-1.94 1.94zm0 6.74h-7.761c-1.071 0-1.942-.868-1.942-1.941 0-1.07.871-1.937 1.942-1.937h7.761c1.071 0 1.94.867 1.94 1.937 0 1.073-.869 1.941-1.94 1.941zm0 0" fill="#206FAC"/><path d="M13.127 95.522h-7.699c-1.066 0-1.928-.861-1.928-1.923v-7.674c0-1.061.862-1.925 1.928-1.925h7.699c1.065 0 1.926.864 1.926 1.925v7.674c0 1.062-.861 1.923-1.926 1.923zm0 13.478h-7.699c-1.066 0-1.928-.861-1.928-1.924v-7.672c0-1.064.862-1.924 1.928-1.924h7.699c1.065 0 1.926.86 1.926 1.924v7.672c0 1.063-.861 1.924-1.926 1.924zm13.463-21.059h-7.761c-1.071 0-1.942-.868-1.942-1.94 0-1.071.871-1.938 1.942-1.938h7.761c1.071 0 1.94.867 1.94 1.938 0 1.072-.869 1.94-1.94 1.94zm-7.761 2.86h7.761c1.071 0 1.94.867 1.94 1.94 0 1.07-.869 1.939-1.94 1.939h-7.761c-1.071 0-1.942-.869-1.942-1.939 0-1.073.871-1.94 1.942-1.94zm7.761 10.617h-7.761c-1.071 0-1.942-.869-1.942-1.94s.871-1.937 1.942-1.937h7.761c1.071 0 1.94.866 1.94 1.937 0 1.071-.869 1.94-1.94 1.94zm0 6.74h-7.761c-1.071 0-1.942-.868-1.942-1.941 0-1.07.871-1.937 1.942-1.937h7.761c1.071 0 1.94.867 1.94 1.937 0 1.073-.869 1.941-1.94 1.941zm0 0" fill="#fff"/><path d="M13.127 55.522h-7.699c-1.066 0-1.928-.861-1.928-1.923v-7.674c0-1.061.862-1.925 1.928-1.925h7.699c1.065 0 1.926.864 1.926 1.925v7.674c0 1.062-.861 1.923-1.926 1.923zm0 13.478h-7.699c-1.066 0-1.928-.861-1.928-1.924v-7.672c0-1.064.862-1.924 1.928-1.924h7.699c1.065 0 1.926.86 1.926 1.924v7.672c0 1.063-.861 1.924-1.926 1.924zm13.463-21.059h-7.761c-1.071 0-1.942-.868-1.942-1.94 0-1.071.871-1.938 1.942-1.938h7.761c1.071 0 1.94.867 1.94 1.938 0 1.072-.869 1.94-1.94 1.94zm-7.761 2.86h7.761c1.071 0 1.94.867 1.94 1.94 0 1.07-.869 1.939-1.94 1.939h-7.761c-1.071 0-1.942-.869-1.942-1.939 0-1.073.871-1.94 1.942-1.94zm7.761 10.617h-7.761c-1.071 0-1.942-.869-1.942-1.94s.871-1.937 1.942-1.937h7.761c1.071 0 1.94.866 1.94 1.937 0 1.071-.869 1.94-1.94 1.94zm0 6.74h-7.761c-1.071 0-1.942-.868-1.942-1.941 0-1.07.871-1.937 1.942-1.937h7.761c1.071 0 1.94.867 1.94 1.937 0 1.073-.869 1.941-1.94 1.941zm0 0" fill="#67737B"/><path d="M13.127 15.522h-7.699c-1.066 0-1.928-.861-1.928-1.923v-7.674c0-1.061.862-1.925 1.928-1.925h7.699c1.065 0 1.926.864 1.926 1.925v7.674c0 1.062-.861 1.923-1.926 1.923zm0 13.478h-7.699c-1.066 0-1.928-.861-1.928-1.924v-7.672c0-1.064.862-1.924 1.928-1.924h7.699c1.065 0 1.926.86 1.926 1.924v7.672c0 1.063-.861 1.924-1.926 1.924zm13.463-21.059h-7.761c-1.071 0-1.942-.868-1.942-1.94 0-1.071.871-1.938 1.942-1.938h7.761c1.071 0 1.94.867 1.94 1.938 0 1.072-.869 1.94-1.94 1.94zm-7.761 2.86h7.761c1.071 0 1.94.867 1.94 1.94 0 1.07-.869 1.939-1.94 1.939h-7.761c-1.071 0-1.942-.869-1.942-1.939 0-1.073.871-1.94 1.942-1.94zm7.761 10.617h-7.761c-1.071 0-1.942-.869-1.942-1.94s.871-1.937 1.942-1.937h7.761c1.071 0 1.94.866 1.94 1.937 0 1.071-.869 1.94-1.94 1.94zm0 6.74h-7.761c-1.071 0-1.942-.868-1.942-1.941 0-1.07.871-1.937 1.942-1.937h7.761c1.071 0 1.94.867 1.94 1.937 0 1.073-.869 1.941-1.94 1.941zm0 0" fill="#3A434E"/></g></svg>