<svg width="32" height="232" xmlns="http://www.w3.org/2000/svg" xmlns:sketch="http://www.bohemiancoding.com/sketch/ns"><title>grid</title><g sketch:type="MSPage" fill="none"><path d="M26.603 135.522h-7.699c-1.066 0-1.93-.861-1.93-1.925v-7.672c0-1.061.864-1.925 1.93-1.925h7.699c1.065 0 1.926.864 1.926 1.925v7.672c0 1.064-.861 1.925-1.926 1.925zm-13.478 0h-7.698c-1.066 0-1.927-.861-1.927-1.925v-7.672c0-1.061.861-1.925 1.927-1.925h7.698c1.066 0 1.927.864 1.927 1.925v7.672c0 1.064-.861 1.925-1.927 1.925zm0 13.478h-7.698c-1.066 0-1.927-.863-1.927-1.924v-7.672c0-1.063.861-1.926 1.927-1.926h7.698c1.066 0 1.927.863 1.927 1.926v7.672c0 1.061-.861 1.924-1.927 1.924zm13.478 0h-7.699c-1.066 0-1.93-.863-1.93-1.924v-7.672c0-1.063.864-1.926 1.93-1.926h7.699c1.065 0 1.926.863 1.926 1.926v7.672c0 1.061-.861 1.924-1.926 1.924zm0 0" fill="#206FAC" sketch:type="MSShapeGroup"/><path d="M26.603 95.522h-7.699c-1.066 0-1.93-.861-1.93-1.925v-7.672c0-1.061.864-1.925 1.93-1.925h7.699c1.065 0 1.926.864 1.926 1.925v7.672c0 1.064-.861 1.925-1.926 1.925zm-13.478 0h-7.698c-1.066 0-1.927-.861-1.927-1.925v-7.672c0-1.061.861-1.925 1.927-1.925h7.698c1.066 0 1.927.864 1.927 1.925v7.672c0 1.064-.861 1.925-1.927 1.925zm0 13.478h-7.698c-1.066 0-1.927-.863-1.927-1.924v-7.672c0-1.063.861-1.926 1.927-1.926h7.698c1.066 0 1.927.863 1.927 1.926v7.672c0 1.061-.861 1.924-1.927 1.924zm13.478 0h-7.699c-1.066 0-1.93-.863-1.93-1.924v-7.672c0-1.063.864-1.926 1.93-1.926h7.699c1.065 0 1.926.863 1.926 1.926v7.672c0 1.061-.861 1.924-1.926 1.924zm0 0" fill="#fff" sketch:type="MSShapeGroup"/><path d="M26.603 55.522h-7.699c-1.066 0-1.93-.861-1.93-1.925v-7.672c0-1.061.864-1.925 1.93-1.925h7.699c1.065 0 1.926.864 1.926 1.925v7.672c0 1.064-.861 1.925-1.926 1.925zm-13.478 0h-7.698c-1.066 0-1.927-.861-1.927-1.925v-7.672c0-1.061.861-1.925 1.927-1.925h7.698c1.066 0 1.927.864 1.927 1.925v7.672c0 1.064-.861 1.925-1.927 1.925zm0 13.478h-7.698c-1.066 0-1.927-.863-1.927-1.924v-7.672c0-1.063.861-1.926 1.927-1.926h7.698c1.066 0 1.927.863 1.927 1.926v7.672c0 1.061-.861 1.924-1.927 1.924zm13.478 0h-7.699c-1.066 0-1.93-.863-1.93-1.924v-7.672c0-1.063.864-1.926 1.93-1.926h7.699c1.065 0 1.926.863 1.926 1.926v7.672c0 1.061-.861 1.924-1.926 1.924zm0 0" fill="#67737B" sketch:type="MSShapeGroup"/><path d="M26.603 15.522h-7.699c-1.066 0-1.93-.861-1.93-1.925v-7.672c0-1.061.864-1.925 1.93-1.925h7.699c1.065 0 1.926.864 1.926 1.925v7.672c0 1.064-.861 1.925-1.926 1.925zm-13.478 0h-7.698c-1.066 0-1.927-.861-1.927-1.925v-7.672c0-1.061.861-1.925 1.927-1.925h7.698c1.066 0 1.927.864 1.927 1.925v7.672c0 1.064-.861 1.925-1.927 1.925zm0 13.478h-7.698c-1.066 0-1.927-.863-1.927-1.924v-7.672c0-1.063.861-1.926 1.927-1.926h7.698c1.066 0 1.927.863 1.927 1.926v7.672c0 1.061-.861 1.924-1.927 1.924zm13.478 0h-7.699c-1.066 0-1.93-.863-1.93-1.924v-7.672c0-1.063.864-1.926 1.93-1.926h7.699c1.065 0 1.926.863 1.926 1.926v7.672c0 1.061-.861 1.924-1.926 1.924zm0 0" fill="#3A434E" sketch:type="MSShapeGroup"/></g></svg>