<svg width="32" height="232" xmlns="http://www.w3.org/2000/svg" xmlns:sketch="http://www.bohemiancoding.com/sketch/ns"><title>guest-services</title><g sketch:type="MSPage" fill="none"><path d="M17.259 131.418c0 .151-.123.274-.274.274h-1.967c-.153 0-.274-.123-.274-.274 0-.149.121-.271.274-.271h1.967c.151 0 .274.122.274.271zm-1.242-2.418h-.03c-.327.002-3.474.035-3.502.726-.029.729 2.835.132 2.851 1.26h1.33c.014-1.128 2.88-.531 2.85-1.26-.027-.691-3.175-.724-3.499-.726zm-.581 16.11h-11.829c-.19 0-.343.166-.343.357v.756c0 .147-.386.349-.694.515-.663.352-1.569.832-1.569 1.916 0 .19.154.346.342.346h29.316c.188 0 .341-.155.341-.346.002-1.084-.904-1.564-1.565-1.916-.31-.166-.696-.368-.696-.515v-.768c0-.189-.155-.345-.345-.345h-12.958zm.565-12.018c-7.014 0-12.718 4.479-12.718 9.984 0 .19.156.344.344.344h24.746c.19 0 .343-.154.343-.344 0-5.505-5.705-9.984-12.716-9.984zm0-.193l.565.003v-1.07h-1.13v1.07l.565-.003zm0 0" fill="#206FAC" sketch:type="MSShapeGroup"/><path d="M17.259 91.418c0 .151-.123.274-.274.274h-1.967c-.153 0-.274-.123-.274-.274 0-.149.121-.271.274-.271h1.967c.151 0 .274.122.274.271zm-1.242-2.418h-.03c-.327.002-3.474.035-3.502.726-.029.729 2.835.132 2.851 1.26h1.33c.014-1.128 2.88-.531 2.85-1.26-.027-.691-3.175-.724-3.499-.726zm-.581 16.11h-11.829c-.19 0-.343.166-.343.357v.756c0 .147-.386.349-.694.515-.663.352-1.569.832-1.569 1.916 0 .19.154.346.342.346h29.316c.188 0 .341-.155.341-.346.002-1.084-.904-1.564-1.565-1.916-.31-.166-.696-.368-.696-.515v-.768c0-.189-.155-.345-.345-.345h-12.958zm.565-12.018c-7.014 0-12.718 4.479-12.718 9.984 0 .19.156.344.344.344h24.746c.19 0 .343-.154.343-.344 0-5.505-5.705-9.984-12.716-9.984zm0-.193l.565.003v-1.07h-1.13v1.07l.565-.003zm0 0" fill="#fff" sketch:type="MSShapeGroup"/><path d="M17.259 51.418c0 .151-.123.274-.274.274h-1.967c-.153 0-.274-.123-.274-.274 0-.149.121-.271.274-.271h1.967c.151 0 .274.122.274.271zm-1.242-2.418h-.03c-.327.002-3.474.035-3.502.726-.029.729 2.835.132 2.851 1.26h1.33c.014-1.128 2.88-.531 2.85-1.26-.027-.691-3.175-.724-3.499-.726zm-.581 16.11h-11.829c-.19 0-.343.166-.343.357v.756c0 .147-.386.349-.694.515-.663.352-1.569.832-1.569 1.916 0 .19.154.346.342.346h29.316c.188 0 .341-.155.341-.346.002-1.084-.904-1.564-1.565-1.916-.31-.166-.696-.368-.696-.515v-.768c0-.189-.155-.345-.345-.345h-12.958zm.565-12.018c-7.014 0-12.718 4.479-12.718 9.984 0 .19.156.344.344.344h24.746c.19 0 .343-.154.343-.344 0-5.505-5.705-9.984-12.716-9.984zm0-.193l.565.003v-1.07h-1.13v1.07l.565-.003zm0 0" fill="#67737B" sketch:type="MSShapeGroup"/><path d="M17.259 11.418c0 .151-.123.274-.274.274h-1.967c-.153 0-.274-.123-.274-.274 0-.149.121-.271.274-.271h1.967c.151 0 .274.122.274.271zm-1.242-2.418h-.03c-.327.002-3.474.035-3.502.726-.029.729 2.835.132 2.851 1.26h1.33c.014-1.128 2.88-.531 2.85-1.26-.027-.691-3.175-.724-3.499-.726zm-.581 16.11h-11.829c-.19 0-.343.166-.343.357v.756c0 .147-.386.349-.694.515-.663.352-1.569.832-1.569 1.916 0 .19.154.346.342.346h29.316c.188 0 .341-.155.341-.346.002-1.084-.904-1.564-1.565-1.916-.31-.166-.696-.368-.696-.515v-.768c0-.189-.155-.345-.345-.345h-12.958zm.565-12.018c-7.014 0-12.718 4.479-12.718 9.984 0 .19.156.344.344.344h24.746c.19 0 .343-.154.343-.344 0-5.505-5.705-9.984-12.716-9.984zm0-.193l.565.003v-1.07h-1.13v1.07l.565-.003zm0 0" fill="#3A434E" sketch:type="MSShapeGroup"/></g></svg>