<svg width="32" height="232" xmlns="http://www.w3.org/2000/svg" xmlns:sketch="http://www.bohemiancoding.com/sketch/ns"><title>gym</title><g sketch:type="MSPage" fill="none"><path d="M18.743 135.052c.139.14.306.252.487.329.146.058.293.079.453.092l.118.022h3.064c.822 0 1.49-.662 1.49-1.486 0-.822-.668-1.5-1.49-1.5h-2.451l-3.395-3.421-.004-.007c-.287-.289-.667-.436-1.054-.436-.381 0-.764.147-1.059.436l-.011.021-3.816 3.843c-.291.289-.436.673-.436 1.059 0 .38.144.764.436 1.05l3.404 3.427v5.719c0 .829.664 1.506 1.478 1.506.826 0 1.5-.677 1.5-1.506v-6.338l-.024-.138c-.019-.145-.035-.298-.091-.436-.084-.183-.193-.347-.327-.486v-.002l-2.783-2.798 1.729-1.746 2.782 2.796zm-11.624 1.643c-3.378 0-6.119 2.761-6.119 6.153 0 3.388 2.741 6.152 6.119 6.152 3.379 0 6.127-2.764 6.127-6.152 0-3.392-2.748-6.153-6.127-6.153zm0 9.923c-2.061 0-3.743-1.695-3.743-3.77 0-2.072 1.682-3.759 3.743-3.759 2.065 0 3.746 1.687 3.746 3.759 0 2.075-1.681 3.77-3.746 3.77zm12.792-21.618c-1.31 0-2.382 1.066-2.382 2.388 0 1.335 1.072 2.402 2.382 2.402 1.317 0 2.377-1.067 2.377-2.402 0-1.322-1.06-2.388-2.377-2.388zm4.966 11.695c-3.377 0-6.125 2.761-6.125 6.153 0 3.388 2.748 6.152 6.125 6.152 3.374 0 6.123-2.764 6.123-6.152 0-3.392-2.749-6.153-6.123-6.153zm0 9.923c-2.069 0-3.748-1.695-3.748-3.77 0-2.072 1.679-3.759 3.748-3.759 2.063 0 3.747 1.687 3.747 3.759 0 2.075-1.684 3.77-3.747 3.77zm0 0" fill="#206FAC" sketch:type="MSShapeGroup"/><path d="M18.743 95.052c.139.14.306.252.487.329.146.058.293.079.453.092l.118.022h3.064c.822 0 1.49-.662 1.49-1.486 0-.822-.668-1.5-1.49-1.5h-2.451l-3.395-3.421-.004-.007c-.287-.289-.667-.436-1.054-.436-.381 0-.764.147-1.059.436l-.011.021-3.816 3.843c-.291.289-.436.673-.436 1.059 0 .38.144.764.436 1.05l3.404 3.427v5.719c0 .829.664 1.506 1.478 1.506.826 0 1.5-.677 1.5-1.506v-6.338l-.024-.138c-.019-.145-.035-.298-.091-.436-.084-.183-.193-.347-.327-.486v-.002l-2.783-2.798 1.729-1.746 2.782 2.796zm-11.624 1.643c-3.378 0-6.119 2.761-6.119 6.153 0 3.388 2.741 6.152 6.119 6.152 3.379 0 6.127-2.764 6.127-6.152 0-3.392-2.748-6.153-6.127-6.153zm0 9.923c-2.061 0-3.743-1.695-3.743-3.77 0-2.072 1.682-3.759 3.743-3.759 2.065 0 3.746 1.687 3.746 3.759 0 2.075-1.681 3.77-3.746 3.77zm12.792-21.618c-1.31 0-2.382 1.066-2.382 2.388 0 1.335 1.072 2.402 2.382 2.402 1.317 0 2.377-1.067 2.377-2.402 0-1.322-1.06-2.388-2.377-2.388zm4.966 11.695c-3.377 0-6.125 2.761-6.125 6.153 0 3.388 2.748 6.152 6.125 6.152 3.374 0 6.123-2.764 6.123-6.152 0-3.392-2.749-6.153-6.123-6.153zm0 9.923c-2.069 0-3.748-1.695-3.748-3.77 0-2.072 1.679-3.759 3.748-3.759 2.063 0 3.747 1.687 3.747 3.759 0 2.075-1.684 3.77-3.747 3.77zm0 0" fill="#fff" sketch:type="MSShapeGroup"/><path d="M18.743 55.052c.139.14.306.252.487.329.146.058.293.079.453.092l.118.022h3.064c.822 0 1.49-.662 1.49-1.486 0-.822-.668-1.5-1.49-1.5h-2.451l-3.395-3.421-.004-.007c-.287-.289-.667-.436-1.054-.436-.381 0-.764.147-1.059.436l-.011.021-3.816 3.843c-.291.289-.436.673-.436 1.059 0 .38.144.764.436 1.05l3.404 3.427v5.719c0 .829.664 1.506 1.478 1.506.826 0 1.5-.677 1.5-1.506v-6.338l-.024-.138c-.019-.145-.035-.298-.091-.436-.084-.183-.193-.347-.327-.486v-.002l-2.783-2.798 1.729-1.746 2.782 2.796zm-11.624 1.643c-3.378 0-6.119 2.761-6.119 6.153 0 3.388 2.741 6.152 6.119 6.152 3.379 0 6.127-2.764 6.127-6.152 0-3.392-2.748-6.153-6.127-6.153zm0 9.923c-2.061 0-3.743-1.695-3.743-3.77 0-2.072 1.682-3.759 3.743-3.759 2.065 0 3.746 1.687 3.746 3.759 0 2.075-1.681 3.77-3.746 3.77zm12.792-21.618c-1.31 0-2.382 1.066-2.382 2.388 0 1.335 1.072 2.402 2.382 2.402 1.317 0 2.377-1.067 2.377-2.402 0-1.322-1.06-2.388-2.377-2.388zm4.966 11.695c-3.377 0-6.125 2.761-6.125 6.153 0 3.388 2.748 6.152 6.125 6.152 3.374 0 6.123-2.764 6.123-6.152 0-3.392-2.749-6.153-6.123-6.153zm0 9.923c-2.069 0-3.748-1.695-3.748-3.77 0-2.072 1.679-3.759 3.748-3.759 2.063 0 3.747 1.687 3.747 3.759 0 2.075-1.684 3.77-3.747 3.77zm0 0" fill="#67737B" sketch:type="MSShapeGroup"/><path d="M18.743 15.052c.139.14.306.252.487.329.146.058.293.079.453.092l.118.022h3.064c.822 0 1.49-.662 1.49-1.486 0-.822-.668-1.5-1.49-1.5h-2.451l-3.395-3.421-.004-.007c-.287-.289-.667-.436-1.054-.436-.381 0-.764.147-1.059.436l-.011.021-3.816 3.843c-.291.289-.436.673-.436 1.059 0 .38.144.764.436 1.05l3.404 3.427v5.719c0 .829.664 1.506 1.478 1.506.826 0 1.5-.677 1.5-1.506v-6.338l-.024-.138c-.019-.145-.035-.298-.091-.436-.084-.183-.193-.347-.327-.486v-.002l-2.783-2.798 1.729-1.746 2.782 2.796zm-11.624 1.643c-3.378 0-6.119 2.761-6.119 6.153 0 3.388 2.741 6.152 6.119 6.152 3.379 0 6.127-2.764 6.127-6.152 0-3.392-2.748-6.153-6.127-6.153zm0 9.923c-2.061 0-3.743-1.695-3.743-3.77 0-2.072 1.682-3.759 3.743-3.759 2.065 0 3.746 1.687 3.746 3.759 0 2.075-1.681 3.77-3.746 3.77zm12.792-21.618c-1.31 0-2.382 1.066-2.382 2.388 0 1.335 1.072 2.402 2.382 2.402 1.317 0 2.377-1.067 2.377-2.402 0-1.322-1.06-2.388-2.377-2.388zm4.966 11.695c-3.377 0-6.125 2.761-6.125 6.153 0 3.388 2.748 6.152 6.125 6.152 3.374 0 6.123-2.764 6.123-6.152 0-3.392-2.749-6.153-6.123-6.153zm0 9.923c-2.069 0-3.748-1.695-3.748-3.77 0-2.072 1.679-3.759 3.748-3.759 2.063 0 3.747 1.687 3.747 3.759 0 2.075-1.684 3.77-3.747 3.77zm0 0" fill="#3A434E" sketch:type="MSShapeGroup"/></g></svg>