<svg width="32" height="232" xmlns="http://www.w3.org/2000/svg" xmlns:sketch="http://www.bohemiancoding.com/sketch/ns"><title>hamburger</title><g sketch:type="MSPage" fill="none"><path d="M26.827 129.383h-21.651c-.925 0-1.675-.757-1.675-1.689 0-.936.75-1.693 1.675-1.693h21.651c.922 0 1.673.758 1.673 1.693 0 .932-.751 1.689-1.673 1.689zm-21.651 2.491h21.651c.922 0 1.673.757 1.673 1.689 0 .936-.751 1.693-1.673 1.693h-21.651c-.925 0-1.675-.757-1.675-1.693 0-.932.75-1.689 1.675-1.689zm21.651 9.253h-21.651c-.925 0-1.675-.756-1.675-1.688 0-.937.75-1.693 1.675-1.693h21.651c.922 0 1.673.756 1.673 1.693 0 .932-.751 1.688-1.673 1.688zm0 5.873h-21.651c-.925 0-1.675-.756-1.675-1.691 0-.933.75-1.69 1.675-1.69h21.651c.922 0 1.673.757 1.673 1.69 0 .935-.751 1.691-1.673 1.691zm0 0" fill="#206FAC" sketch:type="MSShapeGroup"/><path d="M26.827 89.383h-21.651c-.925 0-1.675-.757-1.675-1.689 0-.936.75-1.693 1.675-1.693h21.651c.922 0 1.673.758 1.673 1.693 0 .932-.751 1.689-1.673 1.689zm-21.651 2.491h21.651c.922 0 1.673.757 1.673 1.689 0 .936-.751 1.693-1.673 1.693h-21.651c-.925 0-1.675-.757-1.675-1.693 0-.932.75-1.689 1.675-1.689zm21.651 9.253h-21.651c-.925 0-1.675-.756-1.675-1.688 0-.937.75-1.693 1.675-1.693h21.651c.922 0 1.673.756 1.673 1.693 0 .932-.751 1.688-1.673 1.688zm0 5.873h-21.651c-.925 0-1.675-.756-1.675-1.691 0-.933.75-1.69 1.675-1.69h21.651c.922 0 1.673.757 1.673 1.69 0 .935-.751 1.691-1.673 1.691zm0 0" fill="#fff" sketch:type="MSShapeGroup"/><path d="M26.827 49.383h-21.651c-.925 0-1.675-.757-1.675-1.689 0-.936.75-1.693 1.675-1.693h21.651c.922 0 1.673.758 1.673 1.693 0 .932-.751 1.689-1.673 1.689zm-21.651 2.491h21.651c.922 0 1.673.757 1.673 1.689 0 .936-.751 1.693-1.673 1.693h-21.651c-.925 0-1.675-.757-1.675-1.693 0-.932.75-1.689 1.675-1.689zm21.651 9.253h-21.651c-.925 0-1.675-.756-1.675-1.688 0-.937.75-1.693 1.675-1.693h21.651c.922 0 1.673.756 1.673 1.693 0 .932-.751 1.688-1.673 1.688zm0 5.873h-21.651c-.925 0-1.675-.756-1.675-1.691 0-.933.75-1.69 1.675-1.69h21.651c.922 0 1.673.757 1.673 1.69 0 .935-.751 1.691-1.673 1.691zm0 0" fill="#67737B" sketch:type="MSShapeGroup"/><path d="M26.827 9.383h-21.651c-.925 0-1.675-.757-1.675-1.689 0-.936.75-1.693 1.675-1.693h21.651c.922 0 1.673.758 1.673 1.693 0 .932-.751 1.689-1.673 1.689zm-21.651 2.491h21.651c.922 0 1.673.757 1.673 1.689 0 .936-.751 1.693-1.673 1.693h-21.651c-.925 0-1.675-.757-1.675-1.693 0-.932.75-1.689 1.675-1.689zm21.651 9.253h-21.651c-.925 0-1.675-.756-1.675-1.688 0-.937.75-1.693 1.675-1.693h21.651c.922 0 1.673.756 1.673 1.693 0 .932-.751 1.688-1.673 1.688zm0 5.873h-21.651c-.925 0-1.675-.756-1.675-1.691 0-.933.75-1.69 1.675-1.69h21.651c.922 0 1.673.757 1.673 1.69 0 .935-.751 1.691-1.673 1.691zm0 0" fill="#3A434E" sketch:type="MSShapeGroup"/></g></svg>