<svg width="32" height="232" xmlns="http://www.w3.org/2000/svg" xmlns:sketch="http://www.bohemiancoding.com/sketch/ns"><title>hand-point</title><g sketch:type="MSPage" fill="none"><path d="M25.204 137.186h-5.234c-.285.277-.639.436-.998.424.361.18.689.771.689.771s1.31 2.255-1.113 2.876c.035.114 1.329.735 1.074 1.64-.256.907-1.854 1.453-1.854 1.453s1.04.66.622 1.443c-.385.725-1.744 1.193-1.744 1.193l-9.403.014c-.296 0-.879-.939-1.558-.432l-.686-11.315s.287.018.466.006c1.996-.097 3.907-3.233 3.907-3.233s2.851-.027 3.235-.027c1.889 0 2.488 1.478 1.592 1.478 1.107 0-.467.107-.467.107 0-.001 1.922-.02 3.685-.02l.117-.013h7.669c.992 0 1.796.814 1.796 1.816 0 1.003-.803 1.817-1.796 1.817" fill="#1D4F8D" sketch:type="MSShapeGroup"/><path d="M25.204 97.186h-5.234c-.285.277-.639.436-.998.424.361.18.689.771.689.771s1.31 2.255-1.113 2.876c.035.114 1.329.735 1.074 1.64-.256.907-1.854 1.453-1.854 1.453s1.04.66.622 1.443c-.385.725-1.744 1.193-1.744 1.193l-9.403.014c-.296 0-.879-.939-1.558-.432l-.686-11.315s.287.018.466.006c1.996-.097 3.907-3.233 3.907-3.233s2.851-.027 3.235-.027c1.889 0 2.488 1.478 1.592 1.478 1.107 0-.467.107-.467.107 0-.001 1.922-.02 3.685-.02l.117-.013h7.669c.992 0 1.796.814 1.796 1.816 0 1.003-.803 1.817-1.796 1.817" fill="#fff" sketch:type="MSShapeGroup"/><path d="M25.204 57.186h-5.234c-.285.277-.639.436-.998.424.361.18.689.771.689.771s1.31 2.255-1.113 2.876c.035.114 1.329.735 1.074 1.64-.256.907-1.854 1.453-1.854 1.453s1.04.66.622 1.443c-.385.725-1.744 1.193-1.744 1.193l-9.403.014c-.296 0-.879-.939-1.558-.432l-.686-11.315s.287.018.466.006c1.996-.097 3.907-3.233 3.907-3.233s2.851-.027 3.235-.027c1.889 0 2.488 1.478 1.592 1.478 1.107 0-.467.107-.467.107 0-.001 1.922-.02 3.685-.02l.117-.013h7.669c.992 0 1.796.814 1.796 1.816 0 1.003-.803 1.817-1.796 1.817" fill="#67737B" sketch:type="MSShapeGroup"/><path d="M25.204 17.186h-5.234c-.285.277-.639.436-.998.424.361.18.689.771.689.771s1.31 2.255-1.113 2.876c.035.114 1.329.735 1.074 1.64-.256.907-1.854 1.453-1.854 1.453s1.04.66.622 1.443c-.385.725-1.744 1.193-1.744 1.193l-9.403.014c-.296 0-.879-.939-1.558-.432l-.686-11.315s.287.018.466.006c1.996-.097 3.907-3.233 3.907-3.233s2.851-.027 3.235-.027c1.889 0 2.488 1.478 1.592 1.478 1.107 0-.467.107-.467.107 0-.001 1.922-.02 3.685-.02l.117-.013h7.669c.992 0 1.796.814 1.796 1.816 0 1.003-.803 1.817-1.796 1.817" fill="#3A434E" sketch:type="MSShapeGroup"/></g></svg>