<svg width="32" height="232" viewBox="0 0 32 232" xmlns="http://www.w3.org/2000/svg"><title>hand-point--line</title><g fill="none"><path d="M12.819 132.506c1.797 0 2.366 1.392 1.514 1.392 1.054 0-.446.098-.446.098s1.83-.018 3.508-.018l.11-.013h7.3c.946 0 1.711.769 1.711 1.713 0 .944-.765 1.711-1.711 1.711h-4.98c-.263.251-.586.399-.918.399l-.034-.001c.345.169.657.726.657.726s1.246 2.123-1.059 2.709c.032.106 1.265.692 1.022 1.544-.242.852-1.764 1.368-1.764 1.368s.988.62.59 1.359c-.364.682-1.659 1.122-1.659 1.122l-8.949.013c-.223 0-.612-.546-1.084-.546-.128 0-.261.04-.399.142l-.653-10.654.314.008.129-.003c1.899-.091 3.72-3.044 3.72-3.044s2.712-.025 3.081-.025m0-1.477c-.37 0-3.095.025-3.095.025l-.816.008-.428.695c-.673 1.081-1.88 2.31-2.533 2.342l-.058.002-.228-.007-1.661-.096.1 1.661.82 13.37 1.736-1.284c.248.172.597.361 1.055.361l8.952-.013h.242l.23-.079c.434-.148 1.893-.714 2.488-1.823.275-.513.325-1.039.215-1.526.471-.369.896-.86 1.076-1.496.168-.586.112-1.145-.165-1.676.172-.217.291-.437.374-.637.297-.714.255-1.425.118-1.99h3.564c1.759 0 3.189-1.429 3.189-3.188 0-1.759-1.43-3.19-3.189-3.19h-7.3l-.213.012-1.42.005c-.508-.819-1.584-1.476-3.053-1.476" fill="#206FAC"/><path d="M12.819 92.506c1.797 0 2.366 1.392 1.514 1.392 1.054 0-.446.098-.446.098s1.83-.018 3.508-.018l.11-.013h7.3c.946 0 1.711.769 1.711 1.713 0 .944-.765 1.711-1.711 1.711h-4.98c-.263.251-.586.399-.918.399l-.034-.001c.345.169.657.726.657.726s1.246 2.123-1.059 2.709c.032.106 1.265.692 1.022 1.544-.242.852-1.764 1.368-1.764 1.368s.988.62.59 1.359c-.364.682-1.659 1.122-1.659 1.122l-8.949.013c-.223 0-.612-.546-1.084-.546-.128 0-.261.04-.399.142l-.653-10.654.314.008.129-.003c1.899-.091 3.72-3.044 3.72-3.044s2.712-.025 3.081-.025m0-1.477c-.37 0-3.095.025-3.095.025l-.816.008-.428.695c-.673 1.081-1.88 2.31-2.533 2.342l-.058.002-.228-.007-1.661-.096.1 1.661.82 13.37 1.736-1.284c.248.172.597.361 1.055.361l8.952-.013h.242l.23-.079c.434-.148 1.893-.714 2.488-1.823.275-.513.325-1.039.215-1.526.471-.369.896-.86 1.076-1.496.168-.586.112-1.145-.165-1.676.172-.217.291-.437.374-.637.297-.714.255-1.425.118-1.99h3.564c1.759 0 3.189-1.429 3.189-3.188 0-1.759-1.43-3.19-3.189-3.19h-7.3l-.213.012-1.42.005c-.508-.819-1.584-1.476-3.053-1.476" fill="#fff"/><path d="M12.819 52.506c1.797 0 2.366 1.392 1.514 1.392 1.054 0-.446.098-.446.098s1.83-.018 3.508-.018l.11-.013h7.3c.946 0 1.711.769 1.711 1.713 0 .944-.765 1.711-1.711 1.711h-4.98c-.263.251-.586.399-.918.399l-.034-.001c.345.169.657.726.657.726s1.246 2.123-1.059 2.709c.032.106 1.265.692 1.022 1.544-.242.852-1.764 1.368-1.764 1.368s.988.62.59 1.359c-.364.682-1.659 1.122-1.659 1.122l-8.949.013c-.223 0-.612-.546-1.084-.546-.128 0-.261.04-.399.142l-.653-10.654.314.008.129-.003c1.899-.091 3.72-3.044 3.72-3.044s2.712-.025 3.081-.025m0-1.477c-.37 0-3.095.025-3.095.025l-.816.008-.428.695c-.673 1.081-1.88 2.31-2.533 2.342l-.058.002-.228-.007-1.661-.096.1 1.661.82 13.37 1.736-1.284c.248.172.597.361 1.055.361l8.952-.013h.242l.23-.079c.434-.148 1.893-.714 2.488-1.823.275-.513.325-1.039.215-1.526.471-.369.896-.86 1.076-1.496.168-.586.112-1.145-.165-1.676.172-.217.291-.437.374-.637.297-.714.255-1.425.118-1.99h3.564c1.759 0 3.189-1.429 3.189-3.188 0-1.759-1.43-3.19-3.189-3.19h-7.3l-.213.012-1.42.005c-.508-.819-1.584-1.476-3.053-1.476" fill="#67737B"/><path d="M12.819 12.506c1.797 0 2.366 1.392 1.514 1.392 1.054 0-.446.098-.446.098s1.83-.018 3.508-.018l.11-.013h7.3c.946 0 1.711.769 1.711 1.713 0 .944-.765 1.711-1.711 1.711h-4.98c-.263.251-.586.399-.918.399l-.034-.001c.345.169.657.726.657.726s1.246 2.123-1.059 2.709c.032.106 1.265.692 1.022 1.544-.242.852-1.764 1.368-1.764 1.368s.988.62.59 1.359c-.364.682-1.659 1.122-1.659 1.122l-8.949.013c-.223 0-.612-.546-1.084-.546-.128 0-.261.04-.399.142l-.653-10.654.314.008.129-.003c1.899-.091 3.72-3.044 3.72-3.044s2.712-.025 3.081-.025m0-1.477c-.37 0-3.095.025-3.095.025l-.816.008-.428.695c-.673 1.081-1.88 2.31-2.533 2.342l-.058.002-.228-.007-1.661-.096.1 1.661.82 13.37 1.736-1.284c.248.172.597.361 1.055.361l8.952-.013h.242l.23-.079c.434-.148 1.893-.714 2.488-1.823.275-.513.325-1.039.215-1.526.471-.369.896-.86 1.076-1.496.168-.586.112-1.145-.165-1.676.172-.217.291-.437.374-.637.297-.714.255-1.425.118-1.99h3.564c1.759 0 3.189-1.429 3.189-3.188 0-1.759-1.43-3.19-3.189-3.19h-7.3l-.213.012-1.42.005c-.508-.819-1.584-1.476-3.053-1.476" fill="#3A434E"/></g></svg>