<?xml version="1.0" encoding="UTF-8" standalone="no"?>
<svg width="32px" height="32px" viewBox="0 0 32 32" version="1.1" xmlns="http://www.w3.org/2000/svg" xmlns:xlink="http://www.w3.org/1999/xlink" xmlns:sketch="http://www.bohemiancoding.com/sketch/ns">
    <title>home--body-grey</title>
    <description>Created with Sketch (http://www.bohemiancoding.com/sketch)</description>
    <defs></defs>
    <g id="Categories" stroke="none" stroke-width="1" fill="none" fill-rule="evenodd" sketch:type="MSPage">
        <path d="M29.3612316,16.588 C29.1302612,16.889 28.6965612,16.949 28.3919627,16.723 L15.9992392,7.451 L3.60651564,16.723 C3.30393429,16.949 2.87023435,16.889 2.64027252,16.588 C2.40930209,16.288 2.47082697,15.858 2.77139111,15.63 L15.2387514,6.305 C15.466696,6.134 15.752131,5.99 15.9720068,5.99 C16.1969256,5.994 16.5327909,6.134 16.7607356,6.305 L21.8673001,10.125 L21.8673001,9.493 C21.8673001,8.997 22.2455268,8.594 22.7094849,8.594 L24.6177646,8.594 C25.0817227,8.594 25.4589408,8.997 25.4589408,9.493 L25.4589408,12.811 L29.2270872,15.63 C29.5306771,15.858 29.5891762,16.288 29.3612316,16.588 C29.3612316,16.588 29.5891762,16.288 29.3612316,16.588 L29.3612316,16.588 L29.3612316,16.588 Z M23.7332185,28 L18.7365918,28 L18.7365918,21.157 C18.7365918,20.399 18.1163,19.783 17.3527864,19.783 L14.5972789,19.783 C13.8337653,19.783 13.2124649,20.399 13.2124649,21.157 L13.2124649,28 L8.26626844,28 C7.19815627,28 6.33277361,27.143 6.33277361,25.981 L6.33277361,17.15 L15.1106586,10.548 C15.1106586,10.548 15.6593394,10.094 15.9992392,10.094 C16.3280442,10.094 16.8847939,10.548 16.8847939,10.548 L25.6677219,17.15 L25.6677219,26.084 C25.6677219,27.143 24.8013306,28 23.7332185,28 L23.7332185,28 Z M23.7332185,28" id="home--body-grey" fill="#67737B" sketch:type="MSShapeGroup"></path>
    </g>
</svg>