<svg width="32" height="232" xmlns="http://www.w3.org/2000/svg" xmlns:sketch="http://www.bohemiancoding.com/sketch/ns"><title>home-line</title><g sketch:type="MSPage" fill="none"><path d="M16 127.819c-.623 0-1.283.486-1.503.67l-9.975 7.439v10.038c0 1.714 1.317 3.059 2.996 3.059h6.304v-8.307c0-.349.288-.632.642-.632h3.02c.354 0 .642.283.642.632v8.307h6.356c1.654 0 2.998-1.323 2.998-2.948v-10.149l-9.952-7.418c-.317-.257-.939-.691-1.527-.691zm9.727 18.258c0 .676-.559 1.223-1.245 1.223h-4.603v-6.582c0-1.299-1.075-2.358-2.395-2.358h-3.02c-1.321 0-2.396 1.059-2.396 2.358v6.582h-4.549c-.709 0-1.242-.573-1.242-1.334v-9.18l9.311-6.949c.11-.09.291-.209.409-.269.116.058.296.175.445.294l9.286 6.924v9.291zm5.254-10.938c-.014-.099-.048-.197-.1-.285-.064-.116-.147-.22-.258-.303l-3.373-2.502v-4.021c0-1.014-.806-1.842-1.8-1.842h-2.09c-.93 0-1.688.727-1.781 1.653l-4.625-3.434c-.296-.219-.697-.375-.983-.38-.369 0-.768.266-.921.38l-13.673 10.146c-.202.151-.331.37-.367.618-.036.248.029.495.184.694.092.12.218.202.352.263.127.082.268.139.418.139.165 0 .329-.051.47-.156l.074-.055.019-.009 13.473-9.999 13.474 10c.166.123.366.187.573.187.301 0 .579-.135.76-.37.155-.2.219-.446.182-.694l-.009-.03zm0 0" fill="#206FAC" sketch:type="MSShapeGroup"/><path d="M16 87.819c-.623 0-1.283.486-1.503.67l-9.975 7.439v10.038c0 1.714 1.317 3.059 2.996 3.059h6.304v-8.307c0-.349.288-.632.642-.632h3.02c.354 0 .642.283.642.632v8.307h6.356c1.654 0 2.998-1.323 2.998-2.948v-10.149l-9.952-7.418c-.317-.257-.939-.691-1.527-.691zm9.727 18.258c0 .676-.559 1.223-1.245 1.223h-4.603v-6.582c0-1.299-1.075-2.358-2.395-2.358h-3.02c-1.321 0-2.396 1.059-2.396 2.358v6.582h-4.549c-.709 0-1.242-.573-1.242-1.334v-9.18l9.311-6.949c.11-.09.291-.209.409-.269.116.058.296.175.445.294l9.286 6.924v9.291zm5.254-10.938c-.014-.099-.048-.197-.1-.285-.064-.116-.147-.22-.258-.303l-3.373-2.502v-4.021c0-1.014-.806-1.842-1.8-1.842h-2.09c-.93 0-1.688.727-1.781 1.653l-4.625-3.434c-.296-.219-.697-.375-.983-.38-.369 0-.768.266-.921.38l-13.673 10.146c-.202.151-.331.37-.367.618-.036.248.029.495.184.694.092.12.218.202.352.263.127.082.268.139.418.139.165 0 .329-.051.47-.156l.074-.055.019-.009 13.473-9.999 13.474 10c.166.123.366.187.573.187.301 0 .579-.135.76-.37.155-.2.219-.446.182-.694l-.009-.03zm0 0" fill="#fff" sketch:type="MSShapeGroup"/><path d="M16 47.819c-.623 0-1.283.486-1.503.67l-9.975 7.439v10.038c0 1.714 1.317 3.059 2.996 3.059h6.304v-8.307c0-.349.288-.632.642-.632h3.02c.354 0 .642.283.642.632v8.307h6.356c1.654 0 2.998-1.323 2.998-2.948v-10.149l-9.952-7.418c-.317-.257-.939-.691-1.527-.691zm9.727 18.258c0 .676-.559 1.223-1.245 1.223h-4.603v-6.582c0-1.299-1.075-2.358-2.395-2.358h-3.02c-1.321 0-2.396 1.059-2.396 2.358v6.582h-4.549c-.709 0-1.242-.573-1.242-1.334v-9.18l9.311-6.949c.11-.09.291-.209.409-.269.116.058.296.175.445.294l9.286 6.924v9.291zm5.254-10.938c-.014-.099-.048-.197-.1-.285-.064-.116-.147-.22-.258-.303l-3.373-2.502v-4.021c0-1.014-.806-1.842-1.8-1.842h-2.09c-.93 0-1.688.727-1.781 1.653l-4.625-3.434c-.296-.219-.697-.375-.983-.38-.369 0-.768.266-.921.38l-13.673 10.146c-.202.151-.331.37-.367.618-.036.248.029.495.184.694.092.12.218.202.352.263.127.082.268.139.418.139.165 0 .329-.051.47-.156l.074-.055.019-.009 13.473-9.999 13.474 10c.166.123.366.187.573.187.301 0 .579-.135.76-.37.155-.2.219-.446.182-.694l-.009-.03zm0 0" fill="#67737B" sketch:type="MSShapeGroup"/><path d="M16 7.819c-.623 0-1.283.486-1.503.67l-9.975 7.439v10.038c0 1.714 1.317 3.059 2.996 3.059h6.304v-8.307c0-.349.288-.632.642-.632h3.02c.354 0 .642.283.642.632v8.307h6.356c1.654 0 2.998-1.323 2.998-2.948v-10.149l-9.952-7.418c-.317-.257-.939-.691-1.527-.691zm9.727 18.258c0 .676-.559 1.223-1.245 1.223h-4.603v-6.582c0-1.299-1.075-2.358-2.395-2.358h-3.02c-1.321 0-2.396 1.059-2.396 2.358v6.582h-4.549c-.709 0-1.242-.573-1.242-1.334v-9.18l9.311-6.949c.11-.09.291-.209.409-.269.116.058.296.175.445.294l9.286 6.924v9.291zm5.254-10.938c-.014-.099-.048-.197-.1-.285-.064-.116-.147-.22-.258-.303l-3.373-2.502v-4.021c0-1.014-.806-1.842-1.8-1.842h-2.09c-.93 0-1.688.727-1.781 1.653l-4.625-3.434c-.296-.219-.697-.375-.983-.38-.369 0-.768.266-.921.38l-13.673 10.146c-.202.151-.331.37-.367.618-.036.248.029.495.184.694.092.12.218.202.352.263.127.082.268.139.418.139.165 0 .329-.051.47-.156l.074-.055.019-.009 13.473-9.999 13.474 10c.166.123.366.187.573.187.301 0 .579-.135.76-.37.155-.2.219-.446.182-.694l-.009-.03zm0 0" fill="#3A434E" sketch:type="MSShapeGroup"/></g></svg>