<svg width="22" height="32" xmlns="http://www.w3.org/2000/svg" xmlns:sketch="http://www.bohemiancoding.com/sketch/ns"><title>hotel--pin</title><g sketch:type="MSLayerGroup" fill="none"><path d="M15.484 29.984c0 1.105-2.015 2-4.5 2-2.486 0-4.5-.895-4.5-2 0-1.104 2.014-2 4.5-2 2.485 0 4.5.896 4.5 2" fill-opacity=".2" fill="#1D508D" sketch:type="MSShapeGroup"/><path d="M10.983.016c6.076 0 11.001 4.362 11.001 10.919 0 6.408-5.55 9.16-8.506 13.257-2.418 3.346-2.495 5.824-2.495 5.824s-.018-2.491-2.494-5.824c-3.04-4.097-8.505-6.661-8.505-13.257 0-6.559 4.925-10.919 10.999-10.919" fill="#BF538D" sketch:type="MSShapeGroup"/><path d="M16.985 11.952c-.112-.13-.268-.195-.46-.195h-9.852v-4.903c0-.594-.437-1.081-.978-1.081-.539 0-.974.487-.974 1.081v7.442c0 .592.435 1.078.974 1.078.541 0 .978-.486.978-1.078v-.696h8.54v.665c0 .597.435 1.078.977 1.078.539 0 .978-.481.978-1.078v-1.612c.004-.044.043-.449-.183-.701m-9.337-1.898c0 .451.375.797.816.797h8.46c1.08-1.911-.852-3.345-1.369-3.345h-3.327c-.095-.341-.411-.587-.785-.587-.443 0-.815.352-.82.799v1.537h-2.159c-.444 0-.816.347-.816.799m1.142-1.235c.722 0 1.308-.587 1.308-1.313 0-.718-.586-1.306-1.308-1.306-.726 0-1.312.588-1.312 1.306 0 .726.586 1.313 1.312 1.313" fill="#fff" sketch:type="MSShapeGroup"/></g></svg>