<?xml version="1.0" encoding="UTF-8" standalone="no"?>
<svg width="22px" height="32px" viewBox="0 0 22 32" version="1.1" xmlns="http://www.w3.org/2000/svg" xmlns:xlink="http://www.w3.org/1999/xlink" xmlns:sketch="http://www.bohemiancoding.com/sketch/ns">
    <title>hotel--pin</title>
    <description>Created with Sketch (http://www.bohemiancoding.com/sketch)</description>
    <defs></defs>
    <g id="Points-of-interest" stroke="none" stroke-width="1" fill="none" fill-rule="evenodd" sketch:type="MSPage">
        <g id="hotel--pin" sketch:type="MSLayerGroup" transform="translate(-1.000000, 0.000000)">
            <path d="M16.484,29.984 C16.484,31.089 14.469,31.984 11.984,31.984 C9.498,31.984 7.484,31.089 7.484,29.984 C7.484,28.88 9.498,27.984 11.984,27.984 C14.469,27.984 16.484,28.88 16.484,29.984" id="Fill-1" fill-opacity="0.2" fill="#1D508D" sketch:type="MSShapeGroup"></path>
            <path d="M11.983,0.016 C18.059,0.016 22.984,4.378 22.984,10.935 C22.984,17.343 17.434,20.095 14.478,24.192 C12.06,27.538 11.983,30.016 11.983,30.016 C11.983,30.016 11.965,27.525 9.489,24.192 C6.449,20.095 0.984,17.531 0.984,10.935 C0.984,4.376 5.909,0.016 11.983,0.016" id="Fill-2" fill="#BF538D" sketch:type="MSShapeGroup"></path>
            <path d="M17.985,11.952 C17.873,11.822 17.717,11.757 17.525,11.757 L7.673,11.757 L7.673,6.854 C7.673,6.26 7.236,5.773 6.695,5.773 C6.156,5.773 5.721,6.26 5.721,6.854 L5.721,14.296 C5.721,14.888 6.156,15.374 6.695,15.374 C7.236,15.374 7.673,14.888 7.673,14.296 L7.673,13.6 L16.213,13.6 L16.213,14.265 C16.213,14.862 16.648,15.343 17.19,15.343 C17.729,15.343 18.168,14.862 18.168,14.265 L18.168,12.653 C18.172,12.609 18.211,12.204 17.985,11.952 M8.648,10.054 C8.648,10.505 9.023,10.851 9.464,10.851 L17.924,10.851 C19.004,8.94 17.072,7.506 16.555,7.506 L13.228,7.506 C13.133,7.165 12.817,6.919 12.443,6.919 C12,6.919 11.628,7.271 11.623,7.718 L11.623,9.255 L9.464,9.255 C9.02,9.255 8.648,9.602 8.648,10.054 M9.79,8.819 C10.512,8.819 11.098,8.232 11.098,7.506 C11.098,6.788 10.512,6.2 9.79,6.2 C9.064,6.2 8.478,6.788 8.478,7.506 C8.478,8.232 9.064,8.819 9.79,8.819" id="Fill-3" fill="#FFFFFF" sketch:type="MSShapeGroup"></path>
        </g>
    </g>
</svg>