<svg width="32" height="232" viewBox="0 0 32 232" xmlns="http://www.w3.org/2000/svg"><title>hotel</title><g fill="none"><path d="M28.937 181.515c-.238-.28-.583-.428-.987-.428h-21.245v-10.72c0-1.296-.947-2.368-2.106-2.368-1.163 0-2.099 1.072-2.099 2.368v16.277c0 1.302.936 2.356 2.099 2.356 1.159 0 2.106-1.053 2.106-2.356v-1.508h18.409v1.456c0 1.298.95 2.352 2.11 2.352 1.159 0 2.109-1.053 2.109-2.352v-3.533c0-.109.092-.994-.397-1.544m-20.123-4.144c0 .97.804 1.735 1.753 1.735h18.239c2.32-4.176-1.836-7.307-2.953-7.307h-7.174c-.211-.747-.883-1.285-1.687-1.285-.951 0-1.759.761-1.769 1.741v3.358h-4.656c-.957 0-1.753.774-1.753 1.757m2.454-2.708c1.559 0 2.825-1.286 2.825-2.864 0-1.58-1.266-2.878-2.825-2.878-1.55 0-2.823 1.298-2.823 2.878 0 1.577 1.273 2.864 2.823 2.864" fill="#BF538D"/><path d="M28.937 141.515c-.238-.28-.583-.428-.987-.428h-21.245v-10.72c0-1.296-.947-2.368-2.106-2.368-1.163 0-2.099 1.072-2.099 2.368v16.277c0 1.302.936 2.356 2.099 2.356 1.159 0 2.106-1.053 2.106-2.356v-1.508h18.409v1.456c0 1.298.95 2.352 2.11 2.352 1.159 0 2.109-1.053 2.109-2.352v-3.533c0-.109.092-.994-.397-1.544m-20.123-4.144c0 .97.804 1.735 1.753 1.735h18.239c2.32-4.176-1.836-7.307-2.953-7.307h-7.174c-.211-.747-.883-1.285-1.687-1.285-.951 0-1.759.761-1.769 1.741v3.358h-4.656c-.957 0-1.753.774-1.753 1.757m2.454-2.708c1.559 0 2.825-1.286 2.825-2.864 0-1.58-1.266-2.878-2.825-2.878-1.55 0-2.823 1.298-2.823 2.878 0 1.577 1.273 2.864 2.823 2.864" fill="#206FAC"/><path d="M28.937 101.515c-.238-.28-.583-.428-.987-.428h-21.245v-10.72c0-1.296-.947-2.368-2.106-2.368-1.163 0-2.099 1.072-2.099 2.368v16.277c0 1.302.936 2.356 2.099 2.356 1.159 0 2.106-1.053 2.106-2.356v-1.508h18.409v1.456c0 1.298.95 2.352 2.11 2.352 1.159 0 2.109-1.053 2.109-2.352v-3.533c0-.109.092-.994-.397-1.544m-20.123-4.144c0 .97.804 1.735 1.753 1.735h18.239c2.32-4.176-1.836-7.307-2.953-7.307h-7.174c-.211-.747-.883-1.285-1.687-1.285-.951 0-1.759.761-1.769 1.741v3.358h-4.656c-.957 0-1.753.774-1.753 1.757m2.454-2.708c1.559 0 2.825-1.286 2.825-2.864 0-1.58-1.266-2.878-2.825-2.878-1.55 0-2.823 1.298-2.823 2.878 0 1.577 1.273 2.864 2.823 2.864" fill="#fff"/><path d="M28.937 61.515c-.238-.28-.583-.428-.987-.428h-21.245v-10.72c0-1.296-.947-2.368-2.106-2.368-1.163 0-2.099 1.072-2.099 2.368v16.277c0 1.302.936 2.356 2.099 2.356 1.159 0 2.106-1.053 2.106-2.356v-1.508h18.409v1.456c0 1.298.95 2.352 2.11 2.352 1.159 0 2.109-1.053 2.109-2.352v-3.533c0-.109.092-.994-.397-1.544m-20.123-4.144c0 .97.804 1.735 1.753 1.735h18.239c2.32-4.176-1.836-7.307-2.953-7.307h-7.174c-.211-.747-.883-1.285-1.687-1.285-.951 0-1.759.761-1.769 1.741v3.358h-4.656c-.957 0-1.753.774-1.753 1.757m2.454-2.708c1.559 0 2.825-1.286 2.825-2.864 0-1.58-1.266-2.878-2.825-2.878-1.55 0-2.823 1.298-2.823 2.878 0 1.577 1.273 2.864 2.823 2.864" fill="#67747C"/><path d="M28.937 21.515c-.238-.28-.583-.428-.987-.428h-21.245v-10.72c0-1.296-.947-2.368-2.106-2.368-1.163 0-2.099 1.072-2.099 2.368v16.277c0 1.302.936 2.356 2.099 2.356 1.159 0 2.106-1.053 2.106-2.356v-1.508h18.409v1.456c0 1.298.95 2.352 2.11 2.352 1.159 0 2.109-1.053 2.109-2.352v-3.533c0-.109.092-.994-.397-1.544m-20.123-4.144c0 .97.804 1.735 1.753 1.735h18.239c2.32-4.176-1.836-7.307-2.953-7.307h-7.174c-.211-.747-.883-1.285-1.687-1.285-.951 0-1.759.761-1.769 1.741v3.358h-4.656c-.957 0-1.753.774-1.753 1.757m2.454-2.708c1.559 0 2.825-1.286 2.825-2.864 0-1.58-1.266-2.878-2.825-2.878-1.55 0-2.823 1.298-2.823 2.878 0 1.577 1.273 2.864 2.823 2.864" fill="#3B444F"/></g></svg>