<?xml version="1.0" encoding="UTF-8" standalone="no"?>
<svg width="32px" height="32px" viewBox="0 0 32 32" version="1.1" xmlns="http://www.w3.org/2000/svg" xmlns:xlink="http://www.w3.org/1999/xlink" xmlns:sketch="http://www.bohemiancoding.com/sketch/ns">
    <title>hotel-pin--body-grey</title>
    <description>Created with Sketch (http://www.bohemiancoding.com/sketch)</description>
    <defs></defs>
    <g id="Page-1" stroke="none" stroke-width="1" fill="none" fill-rule="evenodd" sketch:type="MSPage">
        <path d="M28,11.648 C28,18.482 21.9435979,21.417 18.7201786,25.788 C16.0829291,29.357 15.9994849,32 15.9994849,32 C15.9994849,32 15.9778512,29.344 13.2798214,25.788 C9.96162596,21.417 4,18.684 4,11.648 C4,4.652 9.37236554,0 15.9994849,0 C22.6276345,0 28,4.654 28,11.648 Z M22.083,13.3238867 C22.324,13.5928867 22.281,14.0258867 22.277,14.0718867 L22.277,15.7908867 C22.277,16.4288867 21.809,16.9408867 21.234,16.9408867 C20.656,16.9408867 20.191,16.4288867 20.191,15.7908867 L20.191,15.0828867 L11.083,15.0828867 L11.083,15.8238867 C11.083,16.4568867 10.617,16.9738867 10.039,16.9738867 C9.464,16.9738867 9,16.4568867 9,15.8238867 L9,7.88588672 C9,7.25288672 9.464,6.73388672 10.039,6.73388672 C10.617,6.73388672 11.083,7.25288672 11.083,7.88588672 L11.083,13.1168867 L21.591,13.1168867 C21.796,13.1168867 21.963,13.1858867 22.083,13.3238867 M12.123,11.2998867 C12.123,10.8178867 12.52,10.4468867 12.993,10.4468867 L15.296,10.4468867 L15.296,8.80788672 C15.301,8.33188672 15.699,7.95688672 16.171,7.95688672 C16.569,7.95688672 16.906,8.21788672 17.006,8.58288672 L20.556,8.58288672 C21.109,8.58288672 23.17,10.1128867 22.017,12.1498867 L12.993,12.1498867 C12.523,12.1498867 12.123,11.7808867 12.123,11.2998867 M13.34,9.98188672 C12.566,9.98188672 11.941,9.35588672 11.941,8.58288672 C11.941,7.81588672 12.566,7.18888672 13.34,7.18888672 C14.111,7.18888672 14.736,7.81588672 14.736,8.58288672 C14.736,9.35588672 14.111,9.98188672 13.34,9.98188672" id="hotel-pin--body-grey" fill="#67747C" sketch:type="MSShapeGroup"></path>
    </g>
</svg>