<svg width="32" height="232" viewBox="0 0 32 232" xmlns="http://www.w3.org/2000/svg"><title>housekeeping</title><g fill="none"><path d="M28.947 146.424l-.568-4.744c-.274-2.09-.742-2.893-2.691-2.918l-.002-.004h-9.087c-.789 0-1.528.537-1.895 1.439l-1.39 3.4-4.695-4.047c-.303-.31-1.214-.769-1.584-.89v-6.665l3.092-4.421c.103-.257.203-.533.006-.728 0 0-.275-.237-.531-.417l-.518-.285c-.263-.113-.533-.242-.857-.349-.097-.036-.394-.114-.435-.121-.289-.065-.472-.105-.877-.113l-.622.013c-.392.006-.539.039-.852.107l-.395.093c-.275.095-.632.25-.834.366-.033.019-.38.239-.49.332-.349.28-.496.518-.496.518-.209.18-.287.539-.175.792l3.133 4.238-.035 6.877-.448.423c-.999.982-.466 2.146.665 3.283l6.47 5.684c.391.42 1.367.713 1.983.713h11.961c1.871-.002 2.402-1.119 2.166-2.576zm-14.298-9.636h2.86c1.019.72 2.235 1.142 3.548 1.142 1.312 0 2.532-.422 3.55-1.142h3.043c.52 0 .813-.432.648-.962l-.801-4.66.006-.15h.002c0-2.388-1.107-4.341-2.79-5.764-1.487-1.648-5.267-1.695-7.241.014-1.727 1.242-2.865 3.354-2.867 5.75l.012.213-.615 4.597c-.167.528.126.962.646.962zm2.118-6.563h8.575c.045.259.075.52.079.793-.008 2.582-1.957 4.672-4.366 4.676-2.412-.004-4.363-2.094-4.365-4.676 0-.273.035-.534.075-.793zm0 0" fill="#206FAC"/><path d="M28.947 106.424l-.568-4.744c-.274-2.09-.742-2.893-2.691-2.918l-.002-.004h-9.087c-.789 0-1.528.537-1.895 1.439l-1.39 3.4-4.695-4.047c-.303-.31-1.214-.769-1.584-.89v-6.665l3.092-4.421c.103-.257.203-.533.006-.728 0 0-.275-.237-.531-.417l-.518-.285c-.263-.113-.533-.242-.857-.349-.097-.036-.394-.114-.435-.121-.289-.065-.472-.105-.877-.113l-.622.013c-.392.006-.539.039-.852.107l-.395.093c-.275.095-.632.25-.834.366-.033.019-.38.239-.49.332-.349.28-.496.518-.496.518-.209.18-.287.539-.175.792l3.133 4.238-.035 6.877-.448.423c-.999.982-.466 2.146.665 3.283l6.47 5.684c.391.42 1.367.713 1.983.713h11.961c1.871-.002 2.402-1.119 2.166-2.576zm-14.298-9.636h2.86c1.019.72 2.235 1.142 3.548 1.142 1.312 0 2.532-.422 3.55-1.142h3.043c.52 0 .813-.432.648-.962l-.801-4.66.006-.15h.002c0-2.388-1.107-4.341-2.79-5.764-1.487-1.648-5.267-1.695-7.241.014-1.727 1.242-2.865 3.354-2.867 5.75l.012.213-.615 4.597c-.167.528.126.962.646.962zm2.118-6.563h8.575c.045.259.075.52.079.793-.008 2.582-1.957 4.672-4.366 4.676-2.412-.004-4.363-2.094-4.365-4.676 0-.273.035-.534.075-.793zm0 0" fill="#fff"/><path d="M28.947 66.424l-.568-4.744c-.274-2.09-.742-2.893-2.691-2.918l-.002-.004h-9.087c-.789 0-1.528.537-1.895 1.439l-1.39 3.4-4.695-4.047c-.303-.31-1.214-.769-1.584-.89v-6.665l3.092-4.421c.103-.257.203-.533.006-.728 0 0-.275-.237-.531-.417l-.518-.285c-.263-.113-.533-.242-.857-.349-.097-.036-.394-.114-.435-.121-.289-.065-.472-.105-.877-.113l-.622.013c-.392.006-.539.039-.852.107l-.395.093c-.275.095-.632.25-.834.366-.033.019-.38.239-.49.332-.349.28-.496.518-.496.518-.209.18-.287.539-.175.792l3.133 4.238-.035 6.877-.448.423c-.999.982-.466 2.146.665 3.283l6.47 5.684c.391.42 1.367.713 1.983.713h11.961c1.871-.002 2.402-1.119 2.166-2.576zm-14.298-9.636h2.86c1.019.72 2.235 1.142 3.548 1.142 1.312 0 2.532-.422 3.55-1.142h3.043c.52 0 .813-.432.648-.962l-.801-4.66.006-.15h.002c0-2.388-1.107-4.341-2.79-5.764-1.487-1.648-5.267-1.695-7.241.014-1.727 1.242-2.865 3.354-2.867 5.75l.012.213-.615 4.597c-.167.528.126.962.646.962zm2.118-6.563h8.575c.045.259.075.52.079.793-.008 2.582-1.957 4.672-4.366 4.676-2.412-.004-4.363-2.094-4.365-4.676 0-.273.035-.534.075-.793zm0 0" fill="#67737B"/><path d="M28.947 26.424l-.568-4.744c-.274-2.09-.742-2.893-2.691-2.918l-.002-.004h-9.087c-.789 0-1.528.537-1.895 1.439l-1.39 3.4-4.695-4.047c-.303-.31-1.214-.769-1.584-.89v-6.665l3.092-4.421c.103-.257.203-.533.006-.728 0 0-.275-.237-.531-.417l-.518-.285c-.263-.113-.533-.242-.857-.349-.097-.036-.394-.114-.435-.121-.289-.065-.472-.105-.877-.113l-.622.013c-.392.006-.539.039-.852.107l-.395.093c-.275.095-.632.25-.834.366-.033.019-.38.239-.49.332-.349.28-.496.518-.496.518-.209.18-.287.539-.175.792l3.133 4.238-.035 6.877-.448.423c-.999.982-.466 2.146.665 3.283l6.47 5.684c.391.42 1.367.713 1.983.713h11.961c1.871-.002 2.402-1.119 2.166-2.576zm-14.298-9.636h2.86c1.019.72 2.235 1.142 3.548 1.142 1.312 0 2.532-.422 3.55-1.142h3.043c.52 0 .813-.432.648-.962l-.801-4.66.006-.15h.002c0-2.388-1.107-4.341-2.79-5.764-1.487-1.648-5.267-1.695-7.241.014-1.727 1.242-2.865 3.354-2.867 5.75l.012.213-.615 4.597c-.167.528.126.962.646.962zm2.118-6.563h8.575c.045.259.075.52.079.793-.008 2.582-1.957 4.672-4.366 4.676-2.412-.004-4.363-2.094-4.365-4.676 0-.273.035-.534.075-.793zm0 0" fill="#3A434E"/></g></svg>