<svg width="32" height="232" xmlns="http://www.w3.org/2000/svg" xmlns:sketch="http://www.bohemiancoding.com/sketch/ns"><title>image</title><g sketch:type="MSPage" fill="none"><path d="M19.189 142.078c-2.8 0-5.072-2.271-5.072-5.072 0-2.8 2.272-5.072 5.072-5.072 2.799 0 5.071 2.272 5.071 5.072 0 2.801-2.272 5.072-5.071 5.072zm8.729 5.934h-23.881c-1.402 0-2.537-1.137-2.537-2.536v-16.94c0-1.4 1.135-2.536 2.537-2.536h23.881c1.402 0 2.535 1.136 2.535 2.536v16.94c0 1.399-1.133 2.536-2.535 2.536zm-18.807-19.946h-4.012c-.847 0-1.533.685-1.533 1.534 0 .846.686 1.531 1.533 1.531h4.012c.846 0 1.531-.685 1.531-1.531 0-.849-.685-1.534-1.531-1.534zm10.078.374c-4.732 0-8.566 3.835-8.566 8.566 0 4.733 3.834 8.567 8.566 8.567 4.731 0 8.565-3.834 8.565-8.567 0-4.731-3.834-8.566-8.565-8.566zm0 0" fill="#206FAC" sketch:type="MSShapeGroup"/><path d="M19.189 102.078c-2.8 0-5.072-2.271-5.072-5.072 0-2.8 2.272-5.072 5.072-5.072 2.799 0 5.071 2.272 5.071 5.072 0 2.801-2.272 5.072-5.071 5.072zm8.729 5.934h-23.881c-1.402 0-2.537-1.137-2.537-2.536v-16.94c0-1.4 1.135-2.536 2.537-2.536h23.881c1.402 0 2.535 1.136 2.535 2.536v16.94c0 1.399-1.133 2.536-2.535 2.536zm-18.807-19.946h-4.012c-.847 0-1.533.685-1.533 1.534 0 .846.686 1.531 1.533 1.531h4.012c.846 0 1.531-.685 1.531-1.531 0-.849-.685-1.534-1.531-1.534zm10.078.374c-4.732 0-8.566 3.835-8.566 8.566 0 4.733 3.834 8.567 8.566 8.567 4.731 0 8.565-3.834 8.565-8.567 0-4.731-3.834-8.566-8.565-8.566zm0 0" fill="#fff" sketch:type="MSShapeGroup"/><path d="M19.189 62.078c-2.8 0-5.072-2.271-5.072-5.072 0-2.8 2.272-5.072 5.072-5.072 2.799 0 5.071 2.272 5.071 5.072 0 2.801-2.272 5.072-5.071 5.072zm8.729 5.934h-23.881c-1.402 0-2.537-1.137-2.537-2.536v-16.94c0-1.4 1.135-2.536 2.537-2.536h23.881c1.402 0 2.535 1.136 2.535 2.536v16.94c0 1.399-1.133 2.536-2.535 2.536zm-18.807-19.946h-4.012c-.847 0-1.533.685-1.533 1.534 0 .846.686 1.531 1.533 1.531h4.012c.846 0 1.531-.685 1.531-1.531 0-.849-.685-1.534-1.531-1.534zm10.078.374c-4.732 0-8.566 3.835-8.566 8.566 0 4.733 3.834 8.567 8.566 8.567 4.731 0 8.565-3.834 8.565-8.567 0-4.731-3.834-8.566-8.565-8.566zm0 0" fill="#67737B" sketch:type="MSShapeGroup"/><path d="M19.189 22.078c-2.8 0-5.072-2.271-5.072-5.072 0-2.8 2.272-5.072 5.072-5.072 2.799 0 5.071 2.272 5.071 5.072 0 2.801-2.272 5.072-5.071 5.072zm8.729 5.934h-23.881c-1.402 0-2.537-1.137-2.537-2.536v-16.94c0-1.4 1.135-2.536 2.537-2.536h23.881c1.402 0 2.535 1.136 2.535 2.536v16.94c0 1.399-1.133 2.536-2.535 2.536zm-18.807-19.946h-4.012c-.847 0-1.533.685-1.533 1.534 0 .846.686 1.531 1.533 1.531h4.012c.846 0 1.531-.685 1.531-1.531 0-.849-.685-1.534-1.531-1.534zm10.078.374c-4.732 0-8.566 3.835-8.566 8.566 0 4.733 3.834 8.567 8.566 8.567 4.731 0 8.565-3.834 8.565-8.567 0-4.731-3.834-8.566-8.565-8.566zm0 0" fill="#3A434E" sketch:type="MSShapeGroup"/></g></svg>