<?xml version="1.0" encoding="UTF-8" standalone="no"?>
<svg width="32px" height="232px" viewBox="0 0 32 232" version="1.1" xmlns="http://www.w3.org/2000/svg" xmlns:xlink="http://www.w3.org/1999/xlink" xmlns:sketch="http://www.bohemiancoding.com/sketch/ns">
    <title>image-line</title>
    <description>Created with Sketch (http://www.bohemiancoding.com/sketch)</description>
    <defs></defs>
    <g id="Categories" stroke="none" stroke-width="1" fill="none" fill-rule="evenodd" sketch:type="MSPage">
        <path d="M28.4507182,149 L3.55225359,149 C1.59187717,149 0,147.393 0,145.414 L0,127.586 C0,125.609 1.59187717,124 3.55225359,124 L28.4507182,124 C30.4081228,124 32,125.609 32,127.586 L32,145.414 C32,147.393 30.4081228,149 28.4507182,149 Z M3.55225359,125.834 C2.59237246,125.834 1.81475978,126.62 1.81475978,127.586 L1.81475978,145.414 C1.81475978,146.383 2.59237246,147.166 3.55225359,147.166 L28.4507182,147.166 C29.4076275,147.166 30.1852402,146.383 30.1852402,145.414 L30.1852402,127.586 C30.1852402,126.62 29.4076275,125.834 28.4507182,125.834 L3.55225359,125.834 Z M19.9970282,129.564 C16.205052,129.564 13.1292719,132.67 13.1292719,136.5 C13.1292719,140.332 16.205052,143.437 19.9970282,143.437 C23.7929668,143.437 26.8677563,140.332 26.8677563,136.5 C26.8677563,132.67 23.7929668,129.564 19.9970282,129.564 Z M19.9970282,131.399 C22.7875186,131.399 25.0529965,133.688 25.0529965,136.5 C25.0529965,139.315 22.7875186,141.602 19.9970282,141.602 C17.213472,141.602 14.9460129,139.315 14.9460129,136.5 C14.9460129,133.688 17.213472,131.399 19.9970282,131.399 Z M10.9737494,128.707 L5.71272907,128.707 C5.01238237,128.707 4.44576523,129.256 4.44576523,129.936 C4.44576523,130.614 5.01238237,131.164 5.71272907,131.164 L10.9737494,131.164 C11.6731055,131.164 12.2407132,130.614 12.2407132,129.936 C12.2407132,129.256 11.6731055,128.707 10.9737494,128.707 Z M10.9737494,128.707" id="image-line--lp-blue" fill="#206FAC" sketch:type="MSShapeGroup"></path>
        <path d="M28.4507182,109 L3.55225359,109 C1.59187717,109 0,107.393 0,105.414 L0,87.586 C0,85.609 1.59187717,84 3.55225359,84 L28.4507182,84 C30.4081228,84 32,85.609 32,87.586 L32,105.414 C32,107.393 30.4081228,109 28.4507182,109 Z M3.55225359,85.834 C2.59237246,85.834 1.81475978,86.62 1.81475978,87.586 L1.81475978,105.414 C1.81475978,106.383 2.59237246,107.166 3.55225359,107.166 L28.4507182,107.166 C29.4076275,107.166 30.1852402,106.383 30.1852402,105.414 L30.1852402,87.586 C30.1852402,86.62 29.4076275,85.834 28.4507182,85.834 L3.55225359,85.834 Z M19.9970282,89.564 C16.205052,89.564 13.1292719,92.67 13.1292719,96.5 C13.1292719,100.332 16.205052,103.437 19.9970282,103.437 C23.7929668,103.437 26.8677563,100.332 26.8677563,96.5 C26.8677563,92.67 23.7929668,89.564 19.9970282,89.564 Z M19.9970282,91.399 C22.7875186,91.399 25.0529965,93.688 25.0529965,96.5 C25.0529965,99.315 22.7875186,101.602 19.9970282,101.602 C17.213472,101.602 14.9460129,99.315 14.9460129,96.5 C14.9460129,93.688 17.213472,91.399 19.9970282,91.399 Z M10.9737494,88.707 L5.71272907,88.707 C5.01238237,88.707 4.44576523,89.256 4.44576523,89.936 C4.44576523,90.614 5.01238237,91.164 5.71272907,91.164 L10.9737494,91.164 C11.6731055,91.164 12.2407132,90.614 12.2407132,89.936 C12.2407132,89.256 11.6731055,88.707 10.9737494,88.707 Z M10.9737494,88.707" id="image-line--white" fill="#FFFFFF" sketch:type="MSShapeGroup"></path>
        <path d="M28.4507182,69 L3.55225359,69 C1.59187717,69 0,67.393 0,65.414 L0,47.586 C0,45.609 1.59187717,44 3.55225359,44 L28.4507182,44 C30.4081228,44 32,45.609 32,47.586 L32,65.414 C32,67.393 30.4081228,69 28.4507182,69 Z M3.55225359,45.834 C2.59237246,45.834 1.81475978,46.62 1.81475978,47.586 L1.81475978,65.414 C1.81475978,66.383 2.59237246,67.166 3.55225359,67.166 L28.4507182,67.166 C29.4076275,67.166 30.1852402,66.383 30.1852402,65.414 L30.1852402,47.586 C30.1852402,46.62 29.4076275,45.834 28.4507182,45.834 L3.55225359,45.834 Z M19.9970282,49.564 C16.205052,49.564 13.1292719,52.67 13.1292719,56.5 C13.1292719,60.332 16.205052,63.437 19.9970282,63.437 C23.7929668,63.437 26.8677563,60.332 26.8677563,56.5 C26.8677563,52.67 23.7929668,49.564 19.9970282,49.564 Z M19.9970282,51.399 C22.7875186,51.399 25.0529965,53.688 25.0529965,56.5 C25.0529965,59.315 22.7875186,61.602 19.9970282,61.602 C17.213472,61.602 14.9460129,59.315 14.9460129,56.5 C14.9460129,53.688 17.213472,51.399 19.9970282,51.399 Z M10.9737494,48.707 L5.71272907,48.707 C5.01238237,48.707 4.44576523,49.256 4.44576523,49.936 C4.44576523,50.614 5.01238237,51.164 5.71272907,51.164 L10.9737494,51.164 C11.6731055,51.164 12.2407132,50.614 12.2407132,49.936 C12.2407132,49.256 11.6731055,48.707 10.9737494,48.707 Z M10.9737494,48.707" id="image-line--body-grey" fill="#67737B" sketch:type="MSShapeGroup"></path>
        <path d="M28.4507182,29 L3.55225359,29 C1.59187717,29 0,27.393 0,25.414 L0,7.586 C0,5.609 1.59187717,4 3.55225359,4 L28.4507182,4 C30.4081228,4 32,5.609 32,7.586 L32,25.414 C32,27.393 30.4081228,29 28.4507182,29 Z M3.55225359,5.834 C2.59237246,5.834 1.81475978,6.62 1.81475978,7.586 L1.81475978,25.414 C1.81475978,26.383 2.59237246,27.166 3.55225359,27.166 L28.4507182,27.166 C29.4076275,27.166 30.1852402,26.383 30.1852402,25.414 L30.1852402,7.586 C30.1852402,6.62 29.4076275,5.834 28.4507182,5.834 L3.55225359,5.834 Z M19.9970282,9.564 C16.205052,9.564 13.1292719,12.67 13.1292719,16.5 C13.1292719,20.332 16.205052,23.437 19.9970282,23.437 C23.7929668,23.437 26.8677563,20.332 26.8677563,16.5 C26.8677563,12.67 23.7929668,9.564 19.9970282,9.564 Z M19.9970282,11.399 C22.7875186,11.399 25.0529965,13.688 25.0529965,16.5 C25.0529965,19.315 22.7875186,21.602 19.9970282,21.602 C17.213472,21.602 14.9460129,19.315 14.9460129,16.5 C14.9460129,13.688 17.213472,11.399 19.9970282,11.399 Z M10.9737494,8.707 L5.71272907,8.707 C5.01238237,8.707 4.44576523,9.256 4.44576523,9.936 C4.44576523,10.614 5.01238237,11.164 5.71272907,11.164 L10.9737494,11.164 C11.6731055,11.164 12.2407132,10.614 12.2407132,9.936 C12.2407132,9.256 11.6731055,8.707 10.9737494,8.707 Z M10.9737494,8.707" id="image-line--title-grey" fill="#3A434E" sketch:type="MSShapeGroup"></path>
    </g>
</svg>