<svg width="22" height="32" xmlns="http://www.w3.org/2000/svg" xmlns:sketch="http://www.bohemiancoding.com/sketch/ns"><title>information--pin</title><g sketch:type="MSLayerGroup" fill="none"><path d="M15.484 29.716c0 1.104-2.015 2-4.5 2-2.486 0-4.5-.896-4.5-2 0-1.105 2.014-2 4.5-2 2.485 0 4.5.895 4.5 2" fill-opacity=".2" fill="#1D508D" sketch:type="MSShapeGroup"/><path d="M10.982.019c6.076 0 11.002 4.363 11.002 10.919 0 6.409-5.551 9.16-8.504 13.258-2.42 3.346-2.498 5.823-2.498 5.823s-.017-2.49-2.493-5.823c-3.041-4.098-8.505-6.661-8.505-13.258 0-6.558 4.925-10.919 10.998-10.919" fill="#3B444F" sketch:type="MSShapeGroup"/><path d="M10.984 4.556c-.818 0-1.539.722-1.539 1.501 0 .836.721 1.577 1.539 1.577.852 0 1.539-.723 1.539-1.577 0-.797-.72-1.501-1.539-1.501m2.782 12.001v-.751c-.307-.014-.581-.093-.836-.186-.307-.111-.463-.359-.463-.703v-6.063l-.117-.109-4.147.191v.778c.305.015.75.139.955.265.272.172.407.453.444.782v4.249c0 .344-.135.592-.461.687-.239.063-.512.095-.821.109v.751h5.446" fill="#fff" sketch:type="MSShapeGroup"/></g></svg>