<svg width="32" height="232" viewBox="0 0 32 232" xmlns="http://www.w3.org/2000/svg"><title>information--line</title><g fill="none"><path d="M16 123c-7.17 0-13 5.834-13 13.002 0 7.166 5.83 12.998 13 12.998 7.166 0 13-5.832 13-12.998 0-7.168-5.834-13.002-13-13.002zm0 24.016c-6.078 0-11.018-4.942-11.018-11.014 0-6.078 4.94-11.018 11.018-11.018 6.072 0 11.014 4.94 11.014 11.018 0 6.072-4.942 11.014-11.014 11.014zm-3.633-3.856c.42-.021.793-.064 1.117-.15.444-.127.627-.469.627-.936v-5.795c-.047-.447-.23-.832-.603-1.064-.28-.172-.885-.342-1.303-.363v-1.063l5.658-.258.158.149v8.265c0 .469.211.809.631.959.35.129.723.235 1.141.256v1.024h-7.426v-1.024zm3.631-11.146c-1.113 0-2.098-1.01-2.098-2.151 0-1.06.985-2.045 2.098-2.045 1.115 0 2.099.957 2.099 2.045 0 1.166-.933 2.151-2.099 2.151zm0 0" fill="#206FAC"/><path d="M16 83c-7.17 0-13 5.834-13 13.002 0 7.166 5.83 12.998 13 12.998 7.166 0 13-5.832 13-12.998 0-7.168-5.834-13.002-13-13.002zm0 24.016c-6.078 0-11.018-4.942-11.018-11.014 0-6.078 4.94-11.018 11.018-11.018 6.072 0 11.014 4.94 11.014 11.018 0 6.072-4.942 11.014-11.014 11.014zm-3.633-3.856c.42-.021.793-.064 1.117-.15.444-.127.627-.469.627-.936v-5.795c-.047-.447-.23-.832-.603-1.064-.28-.172-.885-.342-1.303-.363v-1.063l5.658-.258.158.149v8.265c0 .469.211.809.631.959.35.129.723.235 1.141.256v1.024h-7.426v-1.024zm3.631-11.146c-1.113 0-2.098-1.01-2.098-2.151 0-1.06.985-2.045 2.098-2.045 1.115 0 2.099.957 2.099 2.045 0 1.166-.933 2.151-2.099 2.151zm0 0" fill="#fff"/><path d="M16 43c-7.17 0-13 5.834-13 13.002 0 7.166 5.83 12.998 13 12.998 7.166 0 13-5.832 13-12.998 0-7.168-5.834-13.002-13-13.002zm0 24.016c-6.078 0-11.018-4.942-11.018-11.014 0-6.078 4.94-11.018 11.018-11.018 6.072 0 11.014 4.94 11.014 11.018 0 6.072-4.942 11.014-11.014 11.014zm-3.633-3.856c.42-.021.793-.064 1.117-.15.444-.127.627-.469.627-.936v-5.795c-.047-.447-.23-.832-.603-1.064-.28-.172-.885-.342-1.303-.363v-1.063l5.658-.258.158.149v8.265c0 .469.211.809.631.959.35.129.723.235 1.141.256v1.024h-7.426v-1.024zm3.631-11.146c-1.113 0-2.098-1.01-2.098-2.151 0-1.06.985-2.045 2.098-2.045 1.115 0 2.099.957 2.099 2.045 0 1.166-.933 2.151-2.099 2.151zm0 0" fill="#67747C"/><path d="M16 3c-7.17 0-13 5.834-13 13.002 0 7.166 5.83 12.998 13 12.998 7.166 0 13-5.832 13-12.998 0-7.168-5.834-13.002-13-13.002zm0 24.016c-6.078 0-11.018-4.942-11.018-11.014 0-6.078 4.94-11.018 11.018-11.018 6.072 0 11.014 4.94 11.014 11.018 0 6.072-4.942 11.014-11.014 11.014zm-3.633-3.856c.42-.021.793-.064 1.117-.15.444-.127.627-.469.627-.936v-5.795c-.047-.447-.23-.832-.603-1.064-.28-.172-.885-.342-1.303-.363v-1.063l5.658-.258.158.149v8.265c0 .469.211.809.631.959.35.129.723.235 1.141.256v1.024h-7.426v-1.024zm3.631-11.146c-1.113 0-2.098-1.01-2.098-2.151 0-1.06.985-2.045 2.098-2.045 1.115 0 2.099.957 2.099 2.045 0 1.166-.933 2.151-2.099 2.151zm0 0" fill="#3B444F"/></g></svg>