<?xml version="1.0" encoding="UTF-8" standalone="no"?>
<svg width="22px" height="32px" viewBox="0 0 22 32" version="1.1" xmlns="http://www.w3.org/2000/svg" xmlns:xlink="http://www.w3.org/1999/xlink" xmlns:sketch="http://www.bohemiancoding.com/sketch/ns">
    <title>information--pin</title>
    <description>Created with Sketch (http://www.bohemiancoding.com/sketch)</description>
    <defs></defs>
    <g id="Points-of-interest" stroke="none" stroke-width="1" fill="none" fill-rule="evenodd" sketch:type="MSPage">
        <g id="information--pin" sketch:type="MSLayerGroup" transform="translate(-1.000000, -0.300000)">
            <path d="M16.484,30.016 C16.484,31.12 14.469,32.016 11.984,32.016 C9.498,32.016 7.484,31.12 7.484,30.016 C7.484,28.911 9.498,28.016 11.984,28.016 C14.469,28.016 16.484,28.911 16.484,30.016" id="Fill-1" fill-opacity="0.2" fill="#1D508D" sketch:type="MSShapeGroup"></path>
            <path d="M11.982,0.319 C18.058,0.319 22.984,4.682 22.984,11.238 C22.984,17.647 17.433,20.398 14.48,24.496 C12.06,27.842 11.982,30.319 11.982,30.319 C11.982,30.319 11.965,27.829 9.489,24.496 C6.448,20.398 0.984,17.835 0.984,11.238 C0.984,4.68 5.909,0.319 11.982,0.319" id="Fill-2" fill="#3B444F" sketch:type="MSShapeGroup"></path>
            <path d="M11.984,4.856 C11.166,4.856 10.445,5.578 10.445,6.357 C10.445,7.193 11.166,7.934 11.984,7.934 C12.836,7.934 13.523,7.211 13.523,6.357 C13.523,5.56 12.803,4.856 11.984,4.856" id="Fill-3" fill="#FFFFFF" sketch:type="MSShapeGroup"></path>
            <path d="M14.766,16.857 L14.766,16.106 C14.459,16.092 14.185,16.013 13.93,15.92 C13.623,15.809 13.467,15.561 13.467,15.217 L13.467,9.154 L13.35,9.045 L9.203,9.236 L9.203,10.014 C9.508,10.029 9.953,10.153 10.158,10.279 C10.43,10.451 10.565,10.732 10.602,11.061 L10.602,15.31 C10.602,15.654 10.467,15.902 10.141,15.997 C9.902,16.06 9.629,16.092 9.32,16.106 L9.32,16.857 L14.766,16.857" id="Fill-4" fill="#FFFFFF" sketch:type="MSShapeGroup"></path>
        </g>
    </g>
</svg>