<svg width="32" height="232" viewBox="0 0 32 232" xmlns="http://www.w3.org/2000/svg" xmlns:sketch="http://www.bohemiancoding.com/sketch/ns"><title>instagram</title><g sketch:type="MSPage" fill="none"><path d="M24.462 14.307h-1.915c.141.542.222 1.11.222 1.693 0 3.738-3.03 6.771-6.769 6.771-3.738 0-6.769-3.033-6.769-6.771 0-.583.084-1.151.222-1.693h-1.915v9.309c0 .466.378.845.847.845h15.231c.468 0 .846-.379.846-.845v-9.309zm0-5.922c0-.468-.378-.846-.846-.846h-2.539c-.467 0-.846.378-.846.846v2.538c0 .468.379.848.846.848h2.539c.468 0 .846-.38.846-.848v-2.538zm-8.462 3.386c-2.336 0-4.23 1.891-4.23 4.229 0 2.336 1.894 4.231 4.23 4.231 2.336 0 4.231-1.895 4.231-4.231 0-2.338-1.895-4.229-4.231-4.229zm8.462 15.229h-16.924c-1.401 0-2.538-1.136-2.538-2.539v-16.922c0-1.402 1.137-2.539 2.538-2.539h16.924c1.403 0 2.538 1.137 2.538 2.539v16.922c0 1.403-1.135 2.539-2.538 2.539z" fill="#3A434E" sketch:type="MSShapeGroup"/><path d="M24.462 54.307h-1.915c.141.542.222 1.11.222 1.693 0 3.738-3.03 6.771-6.769 6.771-3.738 0-6.769-3.033-6.769-6.771 0-.583.084-1.151.222-1.693h-1.915v9.309c0 .466.378.845.847.845h15.231c.468 0 .846-.379.846-.845v-9.309zm0-5.922c0-.468-.378-.846-.846-.846h-2.539c-.467 0-.846.378-.846.846v2.538c0 .468.379.848.846.848h2.539c.468 0 .846-.38.846-.848v-2.538zm-8.462 3.386c-2.336 0-4.23 1.891-4.23 4.229 0 2.336 1.894 4.231 4.23 4.231 2.336 0 4.231-1.895 4.231-4.231 0-2.338-1.895-4.229-4.231-4.229zm8.462 15.229h-16.924c-1.401 0-2.538-1.136-2.538-2.539v-16.922c0-1.402 1.137-2.539 2.538-2.539h16.924c1.403 0 2.538 1.137 2.538 2.539v16.922c0 1.403-1.135 2.539-2.538 2.539z" fill="#67737B" sketch:type="MSShapeGroup"/><path d="M24.462 94.307h-1.915c.141.542.222 1.11.222 1.693 0 3.738-3.03 6.771-6.769 6.771-3.738 0-6.769-3.033-6.769-6.771 0-.583.084-1.151.222-1.693h-1.915v9.309c0 .466.378.845.847.845h15.231c.468 0 .846-.379.846-.845v-9.309zm0-5.922c0-.468-.378-.846-.846-.846h-2.539c-.467 0-.846.378-.846.846v2.538c0 .468.379.848.846.848h2.539c.468 0 .846-.38.846-.848v-2.538zm-8.462 3.386c-2.336 0-4.23 1.891-4.23 4.229 0 2.336 1.894 4.231 4.23 4.231 2.336 0 4.231-1.895 4.231-4.231 0-2.338-1.895-4.229-4.231-4.229zm8.462 15.229h-16.924c-1.401 0-2.538-1.136-2.538-2.539v-16.922c0-1.402 1.137-2.539 2.538-2.539h16.924c1.403 0 2.538 1.137 2.538 2.539v16.922c0 1.403-1.135 2.539-2.538 2.539z" fill="#fff" sketch:type="MSShapeGroup"/><path d="M24.462 134.307h-1.915c.141.542.222 1.11.222 1.693 0 3.738-3.03 6.771-6.769 6.771-3.738 0-6.769-3.033-6.769-6.771 0-.583.084-1.151.222-1.693h-1.915v9.309c0 .466.378.845.847.845h15.231c.468 0 .846-.379.846-.845v-9.309zm0-5.922c0-.468-.378-.846-.846-.846h-2.539c-.467 0-.846.378-.846.846v2.538c0 .468.379.848.846.848h2.539c.468 0 .846-.38.846-.848v-2.538zm-8.462 3.386c-2.336 0-4.23 1.891-4.23 4.229 0 2.336 1.894 4.231 4.23 4.231 2.336 0 4.231-1.895 4.231-4.231 0-2.338-1.895-4.229-4.231-4.229zm8.462 15.229h-16.924c-1.401 0-2.538-1.136-2.538-2.539v-16.922c0-1.402 1.137-2.539 2.538-2.539h16.924c1.403 0 2.538 1.137 2.538 2.539v16.922c0 1.403-1.135 2.539-2.538 2.539z" fill="#206FAC" sketch:type="MSShapeGroup"/><path d="M24.462 174.307h-1.915c.141.542.222 1.11.222 1.693 0 3.738-3.03 6.771-6.769 6.771-3.738 0-6.769-3.033-6.769-6.771 0-.583.084-1.151.222-1.693h-1.915v9.309c0 .466.378.845.847.845h15.231c.468 0 .846-.379.846-.845v-9.309zm0-5.922c0-.468-.378-.846-.846-.846h-2.539c-.467 0-.846.378-.846.846v2.538c0 .468.379.848.846.848h2.539c.468 0 .846-.38.846-.848v-2.538zm-8.462 3.386c-2.336 0-4.23 1.891-4.23 4.229 0 2.336 1.894 4.231 4.23 4.231 2.336 0 4.231-1.895 4.231-4.231 0-2.338-1.895-4.229-4.231-4.229zm8.462 15.229h-16.924c-1.401 0-2.538-1.136-2.538-2.539v-16.922c0-1.402 1.137-2.539 2.538-2.539h16.924c1.403 0 2.538 1.137 2.538 2.539v16.922c0 1.403-1.135 2.539-2.538 2.539z" fill="#3F729B" sketch:type="MSShapeGroup"/></g></svg>