<svg width="32" height="232" viewBox="0 0 32 232" xmlns="http://www.w3.org/2000/svg"><title>insurance-line</title><g fill="none"><path d="M16.287 125.571l.277.027c3.195.311 5.873 1.492 7.964 3.516.839.81 1.792 1.968 2.513 3.512l-.479-.018c-1.284 0-2.506.422-3.451 1.197l-.101.089c-.982-.79-2.325-1.258-3.7-1.258-1.311 0-2.476.433-3.338 1.216-.898-.785-2.163-1.18-3.066-1.26-.17-.016-.337-.022-.499-.022-1.308 0-2.554.474-3.524 1.316-.942-.817-2.206-1.268-3.557-1.268l-.413.014.085-.173c2.035-4.078 5.512-6.366 10.337-6.802l.951-.086m-.296-3.571c-.618 0-1.109.738-.821 1.792-5.859.53-9.696 3.546-11.832 7.828-.716 1.435-1.409 3.107-1.353 4.991.46-.462.581-.958 1.072-1.361.618-.507 1.443-.759 2.269-.759.863 0 1.724.273 2.35.818.349.304.682 1.306 1.228 1.306l.067-.004c.328-.044.554-.697.733-.904.587-.698 1.519-1.265 2.704-1.265l.336.015c.905.08 2.23.661 2.426 1.418.189.748 0 1.864 0 2.78v5.56c0 .905.144 1.973-.057 2.723-.252.945-1.113 1.413-1.972 1.413-.809 0-1.62-.415-1.918-1.241-.263-.737-.073-1.413-.73-1.533l-.287-.028c-1.522 0-.121 2.863.173 3.203.563.658 1.596 1.248 2.736 1.248h.022c2.051-.009 3.444-1.566 3.606-3.345.31-3.328-.229-7.15 0-10.836.562-.927 1.553-1.311 2.568-1.311 1.152 0 2.335.495 2.952 1.254.306.372.324.85.763.85l.028-.001c.484-.016.872-1.055 1.241-1.361.632-.518 1.451-.77 2.267-.77.864 0 1.723.282 2.351.829.472.41.559.92 1.07 1.302-.318-3.768-1.986-6.741-4.166-8.848-2.207-2.135-5.213-3.654-9.073-4.028-.022-.467.061-1.041-.053-1.417-.228-.218-.473-.318-.699-.318" fill="#206FAC"/><path d="M16.287 85.571l.277.027c3.195.311 5.873 1.492 7.964 3.516.839.81 1.792 1.968 2.513 3.512l-.479-.018c-1.284 0-2.506.422-3.451 1.197l-.101.089c-.982-.79-2.325-1.258-3.7-1.258-1.311 0-2.476.433-3.338 1.216-.898-.785-2.163-1.18-3.066-1.26-.17-.016-.337-.022-.499-.022-1.308 0-2.554.474-3.524 1.316-.942-.817-2.206-1.268-3.557-1.268l-.413.014.085-.173c2.035-4.078 5.512-6.366 10.337-6.802l.951-.086m-.296-3.571c-.618 0-1.109.738-.821 1.792-5.859.53-9.696 3.546-11.832 7.828-.716 1.435-1.409 3.107-1.353 4.991.46-.462.581-.958 1.072-1.361.618-.507 1.443-.759 2.269-.759.863 0 1.724.273 2.35.818.349.304.682 1.306 1.228 1.306l.067-.004c.328-.044.554-.697.733-.904.587-.698 1.519-1.265 2.704-1.265l.336.015c.905.08 2.23.661 2.426 1.418.189.748 0 1.864 0 2.78v5.56c0 .905.144 1.973-.057 2.723-.252.945-1.113 1.413-1.972 1.413-.809 0-1.62-.415-1.918-1.241-.263-.737-.073-1.413-.73-1.533l-.287-.028c-1.522 0-.121 2.863.173 3.203.563.658 1.596 1.248 2.736 1.248h.022c2.051-.009 3.444-1.566 3.606-3.345.31-3.328-.229-7.15 0-10.836.562-.927 1.553-1.311 2.568-1.311 1.152 0 2.335.495 2.952 1.254.306.372.324.85.763.85l.028-.001c.484-.016.872-1.055 1.241-1.361.632-.518 1.451-.77 2.267-.77.864 0 1.723.282 2.351.829.472.41.559.92 1.07 1.302-.318-3.768-1.986-6.741-4.166-8.848-2.207-2.135-5.213-3.654-9.073-4.028-.022-.467.061-1.041-.053-1.417-.228-.218-.473-.318-.699-.318" fill="#fff"/><path d="M16.287 45.571l.277.027c3.195.311 5.873 1.492 7.964 3.516.839.81 1.792 1.968 2.513 3.512l-.479-.018c-1.284 0-2.506.422-3.451 1.197l-.101.089c-.982-.79-2.325-1.258-3.7-1.258-1.311 0-2.476.433-3.338 1.216-.898-.785-2.163-1.18-3.066-1.26-.17-.016-.337-.022-.499-.022-1.308 0-2.554.474-3.524 1.316-.942-.817-2.206-1.268-3.557-1.268l-.413.014.085-.173c2.035-4.078 5.512-6.366 10.337-6.802l.951-.086m-.296-3.571c-.618 0-1.109.738-.821 1.792-5.859.53-9.696 3.546-11.832 7.828-.716 1.435-1.409 3.107-1.353 4.991.46-.462.581-.958 1.072-1.361.618-.507 1.443-.759 2.269-.759.863 0 1.724.273 2.35.818.349.304.682 1.306 1.228 1.306l.067-.004c.328-.044.554-.697.733-.904.587-.698 1.519-1.265 2.704-1.265l.336.015c.905.08 2.23.661 2.426 1.418.189.748 0 1.864 0 2.78v5.56c0 .905.144 1.973-.057 2.723-.252.945-1.113 1.413-1.972 1.413-.809 0-1.62-.415-1.918-1.241-.263-.737-.073-1.413-.73-1.533l-.287-.028c-1.522 0-.121 2.863.173 3.203.563.658 1.596 1.248 2.736 1.248h.022c2.051-.009 3.444-1.566 3.606-3.345.31-3.328-.229-7.15 0-10.836.562-.927 1.553-1.311 2.568-1.311 1.152 0 2.335.495 2.952 1.254.306.372.324.85.763.85l.028-.001c.484-.016.872-1.055 1.241-1.361.632-.518 1.451-.77 2.267-.77.864 0 1.723.282 2.351.829.472.41.559.92 1.07 1.302-.318-3.768-1.986-6.741-4.166-8.848-2.207-2.135-5.213-3.654-9.073-4.028-.022-.467.061-1.041-.053-1.417-.228-.218-.473-.318-.699-.318" fill="#67737B"/><path d="M16.287 5.571l.277.027c3.195.311 5.873 1.492 7.964 3.516.839.81 1.792 1.968 2.513 3.512l-.479-.018c-1.284 0-2.506.422-3.451 1.197l-.101.089c-.982-.79-2.325-1.258-3.7-1.258-1.311 0-2.476.433-3.338 1.216-.898-.785-2.163-1.18-3.066-1.26-.17-.016-.337-.022-.499-.022-1.308 0-2.554.474-3.524 1.316-.942-.817-2.206-1.268-3.557-1.268l-.413.014.085-.173c2.035-4.078 5.512-6.366 10.337-6.802l.951-.086m-.296-3.571c-.618 0-1.109.738-.821 1.792-5.859.53-9.696 3.546-11.832 7.828-.716 1.435-1.409 3.107-1.353 4.991.46-.462.581-.958 1.072-1.361.618-.507 1.443-.759 2.269-.759.863 0 1.724.273 2.35.818.349.304.682 1.306 1.228 1.306l.067-.004c.328-.044.554-.697.733-.904.587-.698 1.519-1.265 2.704-1.265l.336.015c.905.08 2.23.661 2.426 1.418.189.748 0 1.864 0 2.78v5.56c0 .905.144 1.973-.057 2.723-.252.945-1.113 1.413-1.972 1.413-.809 0-1.62-.415-1.918-1.241-.263-.737-.073-1.413-.73-1.533l-.287-.028c-1.522 0-.121 2.863.173 3.203.563.658 1.596 1.248 2.736 1.248h.022c2.051-.009 3.444-1.566 3.606-3.345.31-3.328-.229-7.15 0-10.836.562-.927 1.553-1.311 2.568-1.311 1.152 0 2.335.495 2.952 1.254.306.372.324.85.763.85l.028-.001c.484-.016.872-1.055 1.241-1.361.632-.518 1.451-.77 2.267-.77.864 0 1.723.282 2.351.829.472.41.559.92 1.07 1.302-.318-3.768-1.986-6.741-4.166-8.848-2.207-2.135-5.213-3.654-9.073-4.028-.022-.467.061-1.041-.053-1.417-.228-.218-.473-.318-.699-.318" fill="#3A434E"/></g></svg>