<svg width="32" height="232" xmlns="http://www.w3.org/2000/svg" xmlns:sketch="http://www.bohemiancoding.com/sketch/ns"><title>italics</title><g sketch:type="MSPage" fill="none"><path d="M25.604 148.414c-1.158.352-2.755.586-4.233.586-3.115 0-5.671-1.486-5.671-4.687 0-.586.12-1.211.239-1.834l1.917-8.166-2.755-.195.159-2.93 3.474-.899.959-3.984h4.513l-.918 4.219h4.712l-.12 3.789h-5.631l-1.797 7.968c-.078.313-.199.743-.199 1.172 0 1.289.958 1.719 2.318 1.719.877 0 1.636-.195 2.394-.468l.639 3.71zm-21.604 0l4.833-24.414h4.873l-4.833 24.414h-4.873zm0 0" fill="#206FAC" sketch:type="MSShapeGroup"/><path d="M25.604 108.414c-1.158.352-2.755.586-4.233.586-3.115 0-5.671-1.486-5.671-4.687 0-.586.12-1.211.239-1.834l1.917-8.166-2.755-.195.159-2.93 3.474-.899.959-3.984h4.513l-.918 4.219h4.712l-.12 3.789h-5.631l-1.797 7.968c-.078.313-.199.743-.199 1.172 0 1.289.958 1.719 2.318 1.719.877 0 1.636-.195 2.394-.468l.639 3.71zm-21.604 0l4.833-24.414h4.873l-4.833 24.414h-4.873zm0 0" fill="#fff" sketch:type="MSShapeGroup"/><path d="M25.604 68.414c-1.158.352-2.755.586-4.233.586-3.115 0-5.671-1.486-5.671-4.687 0-.586.12-1.211.239-1.834l1.917-8.166-2.755-.195.159-2.93 3.474-.899.959-3.984h4.513l-.918 4.219h4.712l-.12 3.789h-5.631l-1.797 7.968c-.078.313-.199.743-.199 1.172 0 1.289.958 1.719 2.318 1.719.877 0 1.636-.195 2.394-.468l.639 3.71zm-21.604 0l4.833-24.414h4.873l-4.833 24.414h-4.873zm0 0" fill="#67737B" sketch:type="MSShapeGroup"/><path d="M25.604 28.414c-1.158.352-2.755.586-4.233.586-3.115 0-5.671-1.486-5.671-4.687 0-.586.12-1.211.239-1.834l1.917-8.166-2.755-.195.159-2.93 3.474-.899.959-3.984h4.513l-.918 4.219h4.712l-.12 3.789h-5.631l-1.797 7.968c-.078.313-.199.743-.199 1.172 0 1.289.958 1.719 2.318 1.719.877 0 1.636-.195 2.394-.468l.639 3.71zm-21.604 0l4.833-24.414h4.873l-4.833 24.414h-4.873zm0 0" fill="#3A434E" sketch:type="MSShapeGroup"/></g></svg>