<svg width="32" height="232" viewBox="0 0 32 232" xmlns="http://www.w3.org/2000/svg"><title>journey</title><g fill="none"><path d="M31.572 142.139l.428-1.433-1.84-.542.545-1.828-1.444-.422-.543 1.828-1.839-.54-.426 1.435 1.836.538-.541 1.83 1.441.422.543-1.828 1.84.54zm-28.615-14.342l-.809-.485-.627 1.024-1.029-.622-.492.805 1.031.622-.627 1.024.808.487.625-1.026 1.032.624.492-.804-1.031-.622.627-1.027zm7.089 14.69c-.14-.257-.252-.526-.335-.803-.057-.186-.254-.293-.444-.237-.187.055-.295.253-.238.441.096.322.228.64.392.939l.045.08c.096.167.309.227.481.135l.004-.002c.172-.098.232-.314.135-.485l-.04-.068zm4.014 2.491c-.34-.045-.664-.111-.971-.193-.187-.053-.384.059-.437.247-.051.189.06.385.25.438.334.09.689.159 1.06.21.079.009.155-.004.219-.041.096-.051.166-.145.182-.263.027-.194-.11-.373-.303-.398zm12.174-3.116l-.922.451c-.178.084-.254.295-.168.472.084.176.297.251.473.167.31-.146.627-.301.937-.459l.01-.004c.17-.092.236-.301.148-.471-.087-.174-.302-.245-.478-.157zm-14.488 2.374c-.282-.161-.543-.352-.774-.562-.144-.132-.369-.12-.504.024-.132.145-.123.369.024.501.267.243.568.46.894.651.112.064.244.061.35.002l.139-.13c.095-.171.041-.387-.129-.485zm4.818.771c-.346.032-.686.049-1.01.055-.195.002-.351.163-.349.359.004.194.164.352.361.348.342-.006.697-.026 1.062-.057l.137-.043c.121-.066.197-.198.186-.344-.02-.194-.194-.338-.387-.318zm7.344-2.059c-.317.136-.637.266-.948.39-.183.075-.273.281-.199.461.071.181.28.271.463.198.317-.126.643-.26.965-.398l.029-.015c.162-.089.231-.283.157-.452-.077-.178-.286-.262-.467-.184zm-4.842 1.637c-.338.081-.674.15-.996.21-.193.037-.322.22-.285.414.035.193.22.319.414.284.336-.063.683-.136 1.031-.217l.088-.035c.137-.076.215-.235.176-.392-.043-.191-.237-.309-.428-.265zm2.453-.712c-.328.112-.656.217-.974.312-.188.058-.295.257-.237.443.055.187.254.293.443.236.327-.099.663-.206.999-.323l.054-.023c.151-.082.225-.261.166-.426-.062-.187-.265-.283-.451-.219zm-11.314-16.873l-.672.005-.395.018c-.195.013-.345.18-.332.374.012.196.182.344.379.332l.363-.018.645-.002.174-.043c.109-.06.185-.175.187-.304.002-.199-.154-.357-.349-.362zm1.812 7.834c-.222.234-.443.454-.654.664l-.067.071c-.14.137-.138.361.002.499.114.112.288.131.42.06l.084-.064.067-.067.664-.673c.135-.142.131-.365-.01-.499-.143-.136-.369-.132-.506.009zm-7.019-7.085l-.534.13-.474.114c-.19.045-.311.236-.266.426.045.191.237.309.43.267l.482-.118.528-.128.088-.033c.136-.077.212-.238.173-.397-.045-.188-.238-.307-.427-.261zm9.337 3.867c-.07.183.022.387.206.457.101.037.209.028.297-.019.072-.04.132-.103.162-.187.14-.363.232-.726.275-1.078.023-.194-.115-.369-.311-.394-.195-.024-.373.116-.396.31-.037.293-.115.6-.233.911zm-1.248 2.586c.118.094.274.102.399.037l.103-.088c.245-.295.454-.575.643-.85.109-.161.066-.383-.096-.492-.162-.108-.384-.065-.494.095-.178.261-.373.52-.603.801-.125.149-.102.373.048.497zm-3.332 3.924c.11.061.239.057.342.002.059-.031.108-.079.141-.139.142-.255.308-.511.494-.762l.043-.057c.121-.155.092-.379-.066-.497-.155-.118-.379-.09-.499.064l-.052.073c-.203.274-.385.555-.541.836-.098.171-.035.386.138.481zm-.066 1.208c.049-.191-.066-.384-.256-.433-.189-.048-.385.067-.433.255-.094.362-.151.728-.17 1.088-.008.194.142.361.34.371l.187-.043c.103-.059.18-.167.186-.295.013-.31.064-.63.146-.943zm3.174-11.975c-.32-.097-.678-.175-1.063-.235-.193-.03-.375.104-.406.298-.029.193.104.371.299.403.35.052.672.124.959.211.096.03.193.018.275-.027.08-.043.141-.114.17-.206.059-.188-.047-.387-.234-.445zm1.472 1.869l.073.145c.078.181.289.262.469.183l.027-.014c.162-.088.23-.283.156-.453l-.099-.2c-.151-.279-.354-.528-.604-.744-.148-.13-.373-.114-.502.033-.129.146-.115.371.033.499.186.161.336.348.447.55zm-6.777-2.015c-.322.053-.67.119-1.031.193-.193.039-.318.227-.277.42.037.19.226.312.42.274.353-.072.691-.134 1.005-.187l.114-.039c.129-.07.205-.215.179-.369-.031-.192-.216-.324-.41-.291zm0 0" fill="#206FAC"/><path d="M31.572 102.139l.428-1.433-1.84-.542.545-1.828-1.444-.422-.543 1.828-1.839-.54-.426 1.435 1.836.538-.541 1.83 1.441.422.543-1.828 1.84.54zm-28.615-14.342l-.809-.485-.627 1.024-1.029-.622-.492.805 1.031.622-.627 1.024.808.487.625-1.026 1.032.624.492-.804-1.031-.622.627-1.027zm7.089 14.69c-.14-.257-.252-.526-.335-.803-.057-.186-.254-.293-.444-.237-.187.055-.295.253-.238.441.096.322.228.64.392.939l.045.08c.096.167.309.227.481.135l.004-.002c.172-.098.232-.314.135-.485l-.04-.068zm4.014 2.491c-.34-.045-.664-.111-.971-.193-.187-.053-.384.059-.437.247-.051.189.06.385.25.438.334.09.689.159 1.06.21.079.009.155-.004.219-.041.096-.051.166-.145.182-.263.027-.194-.11-.373-.303-.398zm12.174-3.116l-.922.451c-.178.084-.254.295-.168.472.084.176.297.251.473.167.31-.146.627-.301.937-.459l.01-.004c.17-.092.236-.301.148-.471-.087-.174-.302-.245-.478-.157zm-14.488 2.374c-.282-.161-.543-.352-.774-.562-.144-.132-.369-.12-.504.024-.132.145-.123.369.024.501.267.243.568.46.894.651.112.064.244.061.35.002l.139-.13c.095-.171.041-.387-.129-.485zm4.818.771c-.346.032-.686.049-1.01.055-.195.002-.351.163-.349.359.004.194.164.352.361.348.342-.006.697-.026 1.062-.057l.137-.043c.121-.066.197-.198.186-.344-.02-.194-.194-.338-.387-.318zm7.344-2.059c-.317.136-.637.266-.948.39-.183.075-.273.281-.199.461.071.181.28.271.463.198.317-.126.643-.26.965-.398l.029-.015c.162-.089.231-.283.157-.452-.077-.178-.286-.262-.467-.184zm-4.842 1.637c-.338.081-.674.15-.996.21-.193.037-.322.22-.285.414.035.193.22.319.414.284.336-.063.683-.136 1.031-.217l.088-.035c.137-.076.215-.235.176-.392-.043-.191-.237-.309-.428-.265zm2.453-.712c-.328.112-.656.217-.974.312-.188.058-.295.257-.237.443.055.187.254.293.443.236.327-.099.663-.206.999-.323l.054-.023c.151-.082.225-.261.166-.426-.062-.187-.265-.283-.451-.219zm-11.314-16.873l-.672.005-.395.018c-.195.013-.345.18-.332.374.012.196.182.344.379.332l.363-.018.645-.002.174-.043c.109-.06.185-.175.187-.304.002-.199-.154-.357-.349-.362zm1.812 7.834c-.222.234-.443.454-.654.664l-.067.071c-.14.137-.138.361.002.499.114.112.288.131.42.06l.084-.064.067-.067.664-.673c.135-.142.131-.365-.01-.499-.143-.136-.369-.132-.506.009zm-7.019-7.085l-.534.13-.474.114c-.19.045-.311.236-.266.426.045.191.237.309.43.267l.482-.118.528-.128.088-.033c.136-.077.212-.238.173-.397-.045-.188-.238-.307-.427-.261zm9.337 3.867c-.07.183.022.387.206.457.101.037.209.028.297-.019.072-.04.132-.103.162-.187.14-.363.232-.726.275-1.078.023-.194-.115-.369-.311-.394-.195-.024-.373.116-.396.31-.037.293-.115.6-.233.911zm-1.248 2.586c.118.094.274.102.399.037l.103-.088c.245-.295.454-.575.643-.85.109-.161.066-.383-.096-.492-.162-.108-.384-.065-.494.095-.178.261-.373.52-.603.801-.125.149-.102.373.048.497zm-3.332 3.924c.11.061.239.057.342.002.059-.031.108-.079.141-.139.142-.255.308-.511.494-.762l.043-.057c.121-.155.092-.379-.066-.497-.155-.118-.379-.09-.499.064l-.052.073c-.203.274-.385.555-.541.836-.098.171-.035.386.138.481zm-.066 1.208c.049-.191-.066-.384-.256-.433-.189-.048-.385.067-.433.255-.094.362-.151.728-.17 1.088-.008.194.142.361.34.371l.187-.043c.103-.059.18-.167.186-.295.013-.31.064-.63.146-.943zm3.174-11.975c-.32-.097-.678-.175-1.063-.235-.193-.03-.375.104-.406.298-.029.193.104.371.299.403.35.052.672.124.959.211.096.03.193.018.275-.027.08-.043.141-.114.17-.206.059-.188-.047-.387-.234-.445zm1.472 1.869l.073.145c.078.181.289.262.469.183l.027-.014c.162-.088.23-.283.156-.453l-.099-.2c-.151-.279-.354-.528-.604-.744-.148-.13-.373-.114-.502.033-.129.146-.115.371.033.499.186.161.336.348.447.55zm-6.777-2.015c-.322.053-.67.119-1.031.193-.193.039-.318.227-.277.42.037.19.226.312.42.274.353-.072.691-.134 1.005-.187l.114-.039c.129-.07.205-.215.179-.369-.031-.192-.216-.324-.41-.291zm0 0" fill="#fff"/><path d="M31.572 62.139l.428-1.433-1.84-.542.545-1.828-1.444-.422-.543 1.828-1.839-.54-.426 1.435 1.836.538-.541 1.83 1.441.422.543-1.828 1.84.54zm-28.615-14.342l-.809-.485-.627 1.024-1.029-.622-.492.805 1.031.622-.627 1.024.808.487.625-1.026 1.032.624.492-.804-1.031-.622.627-1.027zm7.089 14.69c-.14-.257-.252-.526-.335-.803-.057-.186-.254-.293-.444-.237-.187.055-.295.253-.238.441.096.322.228.64.392.939l.045.08c.096.167.309.227.481.135l.004-.002c.172-.098.232-.314.135-.485l-.04-.068zm4.014 2.491c-.34-.045-.664-.111-.971-.193-.187-.053-.384.059-.437.247-.051.189.06.385.25.438.334.09.689.159 1.06.21.079.009.155-.004.219-.041.096-.051.166-.145.182-.263.027-.194-.11-.373-.303-.398zm12.174-3.116l-.922.451c-.178.084-.254.295-.168.472.084.176.297.251.473.167.31-.146.627-.301.937-.459l.01-.004c.17-.092.236-.301.148-.471-.087-.174-.302-.245-.478-.157zm-14.488 2.374c-.282-.161-.543-.352-.774-.562-.144-.132-.369-.12-.504.024-.132.145-.123.369.024.501.267.243.568.46.894.651.112.064.244.061.35.002l.139-.13c.095-.171.041-.387-.129-.485zm4.818.771c-.346.032-.686.049-1.01.055-.195.002-.351.163-.349.359.004.194.164.352.361.348.342-.006.697-.026 1.062-.057l.137-.043c.121-.066.197-.198.186-.344-.02-.194-.194-.338-.387-.318zm7.344-2.059c-.317.136-.637.266-.948.39-.183.075-.273.281-.199.461.071.181.28.271.463.198.317-.126.643-.26.965-.398l.029-.015c.162-.089.231-.283.157-.452-.077-.178-.286-.262-.467-.184zm-4.842 1.637c-.338.081-.674.15-.996.21-.193.037-.322.22-.285.414.035.193.22.319.414.284.336-.063.683-.136 1.031-.217l.088-.035c.137-.076.215-.235.176-.392-.043-.191-.237-.309-.428-.265zm2.453-.712c-.328.112-.656.217-.974.312-.188.058-.295.257-.237.443.055.187.254.293.443.236.327-.099.663-.206.999-.323l.054-.023c.151-.082.225-.261.166-.426-.062-.187-.265-.283-.451-.219zm-11.314-16.873l-.672.005-.395.018c-.195.013-.345.18-.332.374.012.196.182.344.379.332l.363-.018.645-.002.174-.043c.109-.06.185-.175.187-.304.002-.199-.154-.357-.349-.362zm1.812 7.834c-.222.234-.443.454-.654.664l-.067.071c-.14.137-.138.361.002.499.114.112.288.131.42.06l.084-.064.067-.067.664-.673c.135-.142.131-.365-.01-.499-.143-.136-.369-.132-.506.009zm-7.019-7.085l-.534.13-.474.114c-.19.045-.311.236-.266.426.045.191.237.309.43.267l.482-.118.528-.128.088-.033c.136-.077.212-.238.173-.397-.045-.188-.238-.307-.427-.261zm9.337 3.867c-.07.183.022.387.206.457.101.037.209.028.297-.019.072-.04.132-.103.162-.187.14-.363.232-.726.275-1.078.023-.194-.115-.369-.311-.394-.195-.024-.373.116-.396.31-.037.293-.115.6-.233.911zm-1.248 2.586c.118.094.274.102.399.037l.103-.088c.245-.295.454-.575.643-.85.109-.161.066-.383-.096-.492-.162-.108-.384-.065-.494.095-.178.261-.373.52-.603.801-.125.149-.102.373.048.497zm-3.332 3.924c.11.061.239.057.342.002.059-.031.108-.079.141-.139.142-.255.308-.511.494-.762l.043-.057c.121-.155.092-.379-.066-.497-.155-.118-.379-.09-.499.064l-.052.073c-.203.274-.385.555-.541.836-.098.171-.035.386.138.481zm-.066 1.208c.049-.191-.066-.384-.256-.433-.189-.048-.385.067-.433.255-.094.362-.151.728-.17 1.088-.008.194.142.361.34.371l.187-.043c.103-.059.18-.167.186-.295.013-.31.064-.63.146-.943zm3.174-11.975c-.32-.097-.678-.175-1.063-.235-.193-.03-.375.104-.406.298-.029.193.104.371.299.403.35.052.672.124.959.211.096.03.193.018.275-.027.08-.043.141-.114.17-.206.059-.188-.047-.387-.234-.445zm1.472 1.869l.073.145c.078.181.289.262.469.183l.027-.014c.162-.088.23-.283.156-.453l-.099-.2c-.151-.279-.354-.528-.604-.744-.148-.13-.373-.114-.502.033-.129.146-.115.371.033.499.186.161.336.348.447.55zm-6.777-2.015c-.322.053-.67.119-1.031.193-.193.039-.318.227-.277.42.037.19.226.312.42.274.353-.072.691-.134 1.005-.187l.114-.039c.129-.07.205-.215.179-.369-.031-.192-.216-.324-.41-.291zm0 0" fill="#67737B"/><path d="M31.572 22.139l.428-1.433-1.84-.542.545-1.828-1.444-.422-.543 1.828-1.839-.54-.426 1.435 1.836.538-.541 1.83 1.441.422.543-1.828 1.84.54zm-28.615-14.342l-.809-.485-.627 1.024-1.029-.622-.492.805 1.031.622-.627 1.024.808.487.625-1.026 1.032.624.492-.804-1.031-.622.627-1.027zm7.089 14.69c-.14-.257-.252-.526-.335-.803-.057-.186-.254-.293-.444-.237-.187.055-.295.253-.238.441.096.322.228.64.392.939l.045.08c.096.167.309.227.481.135l.004-.002c.172-.098.232-.314.135-.485l-.04-.068zm4.014 2.491c-.34-.045-.664-.111-.971-.193-.187-.053-.384.059-.437.247-.051.189.06.385.25.438.334.09.689.159 1.06.21.079.009.155-.004.219-.041.096-.051.166-.145.182-.263.027-.194-.11-.373-.303-.398zm12.174-3.116l-.922.451c-.178.084-.254.295-.168.472.084.176.297.251.473.167.31-.146.627-.301.937-.459l.01-.004c.17-.092.236-.301.148-.471-.087-.174-.302-.245-.478-.157zm-14.488 2.374c-.282-.161-.543-.352-.774-.562-.144-.132-.369-.12-.504.024-.132.145-.123.369.024.501.267.243.568.46.894.651.112.064.244.061.35.002l.139-.13c.095-.171.041-.387-.129-.485zm4.818.771c-.346.032-.686.049-1.01.055-.195.002-.351.163-.349.359.004.194.164.352.361.348.342-.006.697-.026 1.062-.057l.137-.043c.121-.066.197-.198.186-.344-.02-.194-.194-.338-.387-.318zm7.344-2.059c-.317.136-.637.266-.948.39-.183.075-.273.281-.199.461.071.181.28.271.463.198.317-.126.643-.26.965-.398l.029-.015c.162-.089.231-.283.157-.452-.077-.178-.286-.262-.467-.184zm-4.842 1.637c-.338.081-.674.15-.996.21-.193.037-.322.22-.285.414.035.193.22.319.414.284.336-.063.683-.136 1.031-.217l.088-.035c.137-.076.215-.235.176-.392-.043-.191-.237-.309-.428-.265zm2.453-.712c-.328.112-.656.217-.974.312-.188.058-.295.257-.237.443.055.187.254.293.443.236.327-.099.663-.206.999-.323l.054-.023c.151-.082.225-.261.166-.426-.062-.187-.265-.283-.451-.219zm-11.314-16.873l-.672.005-.395.018c-.195.013-.345.18-.332.374.012.196.182.344.379.332l.363-.018.645-.002.174-.043c.109-.06.185-.175.187-.304.002-.199-.154-.357-.349-.362zm1.812 7.834c-.222.234-.443.454-.654.664l-.067.071c-.14.137-.138.361.002.499.114.112.288.131.42.06l.084-.064.067-.067.664-.673c.135-.142.131-.365-.01-.499-.143-.136-.369-.132-.506.009zm-7.019-7.085l-.534.13-.474.114c-.19.045-.311.236-.266.426.045.191.237.309.43.267l.482-.118.528-.128.088-.033c.136-.077.212-.238.173-.397-.045-.188-.238-.307-.427-.261zm9.337 3.867c-.07.183.022.387.206.457.101.037.209.028.297-.019.072-.04.132-.103.162-.187.14-.363.232-.726.275-1.078.023-.194-.115-.369-.311-.394-.195-.024-.373.116-.396.31-.037.293-.115.6-.233.911zm-1.248 2.586c.118.094.274.102.399.037l.103-.088c.245-.295.454-.575.643-.85.109-.161.066-.383-.096-.492-.162-.108-.384-.065-.494.095-.178.261-.373.52-.603.801-.125.149-.102.373.048.497zm-3.332 3.924c.11.061.239.057.342.002.059-.031.108-.079.141-.139.142-.255.308-.511.494-.762l.043-.057c.121-.155.092-.379-.066-.497-.155-.118-.379-.09-.499.064l-.052.073c-.203.274-.385.555-.541.836-.098.171-.035.386.138.481zm-.066 1.208c.049-.191-.066-.384-.256-.433-.189-.048-.385.067-.433.255-.094.362-.151.728-.17 1.088-.008.194.142.361.34.371l.187-.043c.103-.059.18-.167.186-.295.013-.31.064-.63.146-.943zm3.174-11.975c-.32-.097-.678-.175-1.063-.235-.193-.03-.375.104-.406.298-.029.193.104.371.299.403.35.052.672.124.959.211.096.03.193.018.275-.027.08-.043.141-.114.17-.206.059-.188-.047-.387-.234-.445zm1.472 1.869l.073.145c.078.181.289.262.469.183l.027-.014c.162-.088.23-.283.156-.453l-.099-.2c-.151-.279-.354-.528-.604-.744-.148-.13-.373-.114-.502.033-.129.146-.115.371.033.499.186.161.336.348.447.55zm-6.777-2.015c-.322.053-.67.119-1.031.193-.193.039-.318.227-.277.42.037.19.226.312.42.274.353-.072.691-.134 1.005-.187l.114-.039c.129-.07.205-.215.179-.369-.031-.192-.216-.324-.41-.291zm0 0" fill="#3A434E"/></g></svg>