<?xml version="1.0" encoding="UTF-8" standalone="no"?>
<svg width="32px" height="232px" viewBox="0 0 32 232" version="1.1" xmlns="http://www.w3.org/2000/svg" xmlns:xlink="http://www.w3.org/1999/xlink" xmlns:sketch="http://www.bohemiancoding.com/sketch/ns">
    <title>journey</title>
    <description>Created with Sketch (http://www.bohemiancoding.com/sketch)</description>
    <defs></defs>
    <g id="Graphics" stroke="none" stroke-width="1" fill="none" fill-rule="evenodd" sketch:type="MSPage">
        <path d="M31.572,142.139296 L32,140.70589 L30.16,140.163762 L30.705,138.335447 L29.261,137.913681 L28.718,139.741996 L26.879,139.201857 L26.453,140.637253 L28.289,141.175403 L27.748,143.005707 L29.189,143.427472 L29.732,141.599158 L31.572,142.139296 Z M2.957,127.797272 L2.148,127.311844 L1.521,128.335421 L0.492,127.713715 L0,128.518452 L1.031,129.140158 L0.404,130.163736 L1.212,130.651154 L1.837,129.625587 L2.869,130.249283 L3.361,129.445541 L2.33,128.823834 L2.957,127.797272 Z M10.046,142.487452 C9.906,142.230812 9.794,141.96124 9.711,141.684705 C9.654,141.49869 9.457,141.391259 9.267,141.447959 C9.08,141.502669 8.972,141.70062 9.029,141.888624 C9.125,142.210917 9.257,142.528236 9.421,142.82765 C9.437,142.852518 9.451,142.879376 9.466,142.907228 C9.562,143.074343 9.775,143.134027 9.947,143.042512 C9.949,143.040522 9.949,143.040522 9.951,143.040522 C10.123,142.942044 10.183,142.726187 10.086,142.555094 C10.072,142.534204 10.058,142.510331 10.046,142.487452 Z M14.06,144.978257 C13.72,144.933494 13.396,144.866847 13.089,144.78528 C12.902,144.732559 12.705,144.843969 12.652,145.031973 C12.601,145.220971 12.712,145.416933 12.902,145.469654 C13.236,145.55918 13.591,145.628811 13.962,145.679542 C14.041,145.688495 14.117,145.675563 14.181,145.638758 C14.277,145.588027 14.347,145.493528 14.363,145.376149 C14.39,145.182177 14.253,145.003125 14.06,144.978257 Z M26.234,141.861767 C25.925,142.016945 25.617,142.168144 25.312,142.31238 C25.134,142.395937 25.058,142.607814 25.144,142.784877 C25.228,142.960944 25.441,143.035549 25.617,142.951991 C25.927,142.805766 26.244,142.650588 26.554,142.49342 C26.558,142.491431 26.562,142.489442 26.564,142.489442 C26.734,142.397926 26.8,142.188038 26.712,142.018934 C26.625,141.844856 26.41,141.77423 26.234,141.861767 Z M11.746,144.236188 C11.464,144.075042 11.203,143.884054 10.972,143.674166 C10.828,143.541866 10.603,143.553803 10.468,143.698039 C10.336,143.84327 10.345,144.067084 10.492,144.199383 C10.759,144.442098 11.06,144.658949 11.386,144.849937 C11.498,144.9136 11.63,144.910616 11.736,144.851926 C11.791,144.822085 11.839,144.777322 11.875,144.721617 C11.97,144.550523 11.916,144.334667 11.746,144.236188 Z M16.564,145.007104 C16.218,145.038936 15.878,145.055846 15.554,145.061815 C15.359,145.063804 15.203,145.22495 15.205,145.420912 C15.209,145.614885 15.369,145.773047 15.566,145.769068 C15.908,145.7631 16.263,145.743205 16.628,145.712368 C16.677,145.7064 16.724,145.693468 16.765,145.669595 C16.886,145.603943 16.962,145.471644 16.951,145.325418 C16.931,145.131446 16.757,144.98721 16.564,145.007104 Z M23.908,142.948012 C23.591,143.08429 23.271,143.213605 22.96,143.337947 C22.777,143.412551 22.687,143.618461 22.761,143.798507 C22.832,143.979548 23.041,144.069074 23.224,143.996458 C23.541,143.870127 23.867,143.736834 24.189,143.598566 C24.201,143.592598 24.209,143.586629 24.218,143.583645 C24.38,143.495114 24.449,143.301142 24.375,143.132037 C24.298,142.953981 24.089,142.870423 23.908,142.948012 Z M19.066,144.585339 C18.728,144.665912 18.392,144.735543 18.07,144.795227 C17.877,144.832032 17.748,145.015062 17.785,145.209035 C17.82,145.402012 18.005,145.528343 18.199,145.493528 C18.535,145.43086 18.882,145.35725 19.23,145.276676 C19.261,145.267724 19.291,145.255787 19.318,145.241861 C19.455,145.166261 19.533,145.007104 19.494,144.849937 C19.451,144.658949 19.257,144.540576 19.066,144.585339 Z M21.519,143.873112 C21.191,143.985516 20.863,144.089963 20.545,144.185457 C20.357,144.243151 20.25,144.442098 20.308,144.628112 C20.363,144.815121 20.562,144.921558 20.751,144.863863 C21.078,144.76439 21.414,144.657954 21.75,144.540576 C21.767,144.534607 21.787,144.527644 21.804,144.517697 C21.955,144.436129 22.029,144.257078 21.97,144.091952 C21.908,143.904943 21.705,143.809449 21.519,143.873112 Z M10.205,127.000493 C9.988,126.999498 9.763,126.999498 9.533,127.005467 C9.408,127.006462 9.275,127.01243 9.138,127.023372 C8.943,127.036303 8.793,127.203418 8.806,127.397391 C8.818,127.593353 8.988,127.741567 9.185,127.729631 C9.31,127.719683 9.433,127.713715 9.548,127.711725 C9.769,127.706752 9.986,127.706752 10.193,127.709736 C10.255,127.709736 10.316,127.694815 10.367,127.666963 C10.476,127.607279 10.552,127.49189 10.554,127.362575 C10.556,127.163629 10.4,127.005467 10.205,127.000493 Z M12.017,134.833996 C11.795,135.067757 11.574,135.287593 11.363,135.498476 L11.296,135.569102 C11.156,135.706374 11.158,135.930189 11.298,136.068456 C11.412,136.180861 11.586,136.199761 11.718,136.12814 C11.75,136.11123 11.777,136.091335 11.802,136.064477 L11.869,135.99783 C12.084,135.782969 12.304,135.562138 12.533,135.324398 C12.668,135.182151 12.664,134.959332 12.523,134.825043 C12.38,134.688765 12.154,134.692744 12.017,134.833996 Z M4.998,127.74853 C4.802,127.797272 4.625,127.840046 4.464,127.87884 C4.273,127.925592 4.113,127.964387 3.99,127.993234 C3.8,128.037997 3.679,128.228985 3.724,128.418979 C3.769,128.609967 3.961,128.72834 4.154,128.685567 C4.279,128.65473 4.441,128.615935 4.636,128.567194 C4.793,128.528399 4.97,128.483636 5.164,128.438873 C5.195,128.428926 5.222,128.418979 5.252,128.406047 C5.388,128.329453 5.464,128.168307 5.425,128.00915 C5.38,127.821146 5.187,127.701778 4.998,127.74853 Z M14.335,131.615048 C14.265,131.798078 14.357,132.001998 14.541,132.071629 C14.642,132.108434 14.75,132.099482 14.838,132.052729 C14.91,132.01294 14.97,131.949277 15,131.86572 C15.14,131.502643 15.232,131.139567 15.275,130.787432 C15.298,130.59346 15.16,130.418387 14.964,130.393519 C14.769,130.369645 14.591,130.509902 14.568,130.703875 C14.531,130.99732 14.453,131.303697 14.335,131.615048 Z M13.087,134.201347 C13.205,134.294852 13.361,134.303804 13.486,134.238152 C13.523,134.216268 13.56,134.187421 13.589,134.150616 C13.834,133.855181 14.043,133.575662 14.232,133.300121 C14.341,133.138975 14.298,132.91715 14.136,132.80773 C13.974,132.699304 13.752,132.743072 13.642,132.903224 C13.464,133.163843 13.269,133.423468 13.039,133.703982 C12.914,133.853191 12.937,134.077006 13.087,134.201347 Z M9.755,138.125559 C9.865,138.186237 9.994,138.182259 10.097,138.127548 C10.156,138.096712 10.205,138.048965 10.238,137.988286 C10.38,137.733635 10.546,137.476995 10.732,137.226323 C10.746,137.208417 10.759,137.189518 10.775,137.169623 C10.896,137.014445 10.867,136.790631 10.709,136.672258 C10.554,136.553885 10.33,136.582732 10.21,136.73592 C10.193,136.761783 10.173,136.785657 10.158,136.808536 C9.955,137.082087 9.773,137.363595 9.617,137.644109 C9.519,137.815203 9.582,138.030065 9.755,138.125559 Z M9.689,139.333162 C9.738,139.142173 9.623,138.949196 9.433,138.900454 C9.244,138.852707 9.048,138.967101 9,139.155105 C8.906,139.517187 8.849,139.883248 8.83,140.24334 C8.822,140.437313 8.972,140.604427 9.17,140.614375 C9.236,140.616364 9.3,140.600448 9.357,140.571601 C9.46,140.512912 9.537,140.404486 9.543,140.276166 C9.556,139.96581 9.607,139.646502 9.689,139.333162 Z M12.863,127.358596 C12.543,127.261113 12.185,127.183524 11.8,127.12384 C11.607,127.093998 11.425,127.228286 11.394,127.422259 C11.365,127.615237 11.498,127.793293 11.693,127.825125 C12.043,127.876851 12.365,127.949466 12.652,128.036008 C12.748,128.065849 12.845,128.053913 12.927,128.00915 C13.007,127.966376 13.068,127.894756 13.097,127.803241 C13.156,127.615237 13.05,127.41629 12.863,127.358596 Z M14.335,129.227695 C14.361,129.274447 14.384,129.322194 14.408,129.372925 C14.486,129.553966 14.697,129.634539 14.877,129.555956 C14.886,129.551977 14.896,129.547998 14.904,129.54203 C15.066,129.454493 15.134,129.258531 15.06,129.089427 C15.029,129.021785 14.998,128.953149 14.961,128.889486 C14.81,128.610962 14.607,128.361284 14.357,128.145428 C14.209,128.015118 13.984,128.031034 13.855,128.178254 C13.726,128.324479 13.74,128.549289 13.888,128.677609 C14.074,128.838755 14.224,129.025764 14.335,129.227695 Z M7.558,127.212371 C7.236,127.265091 6.888,127.331738 6.527,127.405348 C6.334,127.444143 6.209,127.632147 6.25,127.825125 C6.287,128.015118 6.476,128.13747 6.67,128.098676 C7.023,128.027055 7.361,127.964387 7.675,127.911666 C7.714,127.904703 7.754,127.893761 7.789,127.872872 C7.918,127.803241 7.994,127.65801 7.968,127.503827 C7.937,127.311844 7.752,127.179545 7.558,127.212371 Z M7.558,127.212371" id="journey--white" fill="#206FAC" sketch:type="MSShapeGroup"></path>
        <path d="M31.572,102.139296 L32,100.70589 L30.16,100.163762 L30.705,98.335447 L29.261,97.9136813 L28.718,99.741996 L26.879,99.2018573 L26.453,100.637253 L28.289,101.175403 L27.748,103.005707 L29.189,103.427472 L29.732,101.599158 L31.572,102.139296 Z M2.957,87.7972723 L2.148,87.3118438 L1.521,88.3354215 L0.492,87.7137149 L0,88.5184519 L1.031,89.1401584 L0.404,90.1637361 L1.212,90.651154 L1.837,89.6255869 L2.869,90.2492829 L3.361,89.4455407 L2.33,88.8238341 L2.957,87.7972723 Z M10.046,102.487452 C9.906,102.230812 9.794,101.96124 9.711,101.684705 C9.654,101.49869 9.457,101.391259 9.267,101.447959 C9.08,101.502669 8.972,101.70062 9.029,101.888624 C9.125,102.210917 9.257,102.528236 9.421,102.82765 C9.437,102.852518 9.451,102.879376 9.466,102.907228 C9.562,103.074343 9.775,103.134027 9.947,103.042512 C9.949,103.040522 9.949,103.040522 9.951,103.040522 C10.123,102.942044 10.183,102.726187 10.086,102.555094 C10.072,102.534204 10.058,102.510331 10.046,102.487452 Z M14.06,104.978257 C13.72,104.933494 13.396,104.866847 13.089,104.78528 C12.902,104.732559 12.705,104.843969 12.652,105.031973 C12.601,105.220971 12.712,105.416933 12.902,105.469654 C13.236,105.55918 13.591,105.628811 13.962,105.679542 C14.041,105.688495 14.117,105.675563 14.181,105.638758 C14.277,105.588027 14.347,105.493528 14.363,105.376149 C14.39,105.182177 14.253,105.003125 14.06,104.978257 Z M26.234,101.861767 C25.925,102.016945 25.617,102.168144 25.312,102.31238 C25.134,102.395937 25.058,102.607814 25.144,102.784877 C25.228,102.960944 25.441,103.035549 25.617,102.951991 C25.927,102.805766 26.244,102.650588 26.554,102.49342 C26.558,102.491431 26.562,102.489442 26.564,102.489442 C26.734,102.397926 26.8,102.188038 26.712,102.018934 C26.625,101.844856 26.41,101.77423 26.234,101.861767 Z M11.746,104.236188 C11.464,104.075042 11.203,103.884054 10.972,103.674166 C10.828,103.541866 10.603,103.553803 10.468,103.698039 C10.336,103.84327 10.345,104.067084 10.492,104.199383 C10.759,104.442098 11.06,104.658949 11.386,104.849937 C11.498,104.9136 11.63,104.910616 11.736,104.851926 C11.791,104.822085 11.839,104.777322 11.875,104.721617 C11.97,104.550523 11.916,104.334667 11.746,104.236188 Z M16.564,105.007104 C16.218,105.038936 15.878,105.055846 15.554,105.061815 C15.359,105.063804 15.203,105.22495 15.205,105.420912 C15.209,105.614885 15.369,105.773047 15.566,105.769068 C15.908,105.7631 16.263,105.743205 16.628,105.712368 C16.677,105.7064 16.724,105.693468 16.765,105.669595 C16.886,105.603943 16.962,105.471644 16.951,105.325418 C16.931,105.131446 16.757,104.98721 16.564,105.007104 Z M23.908,102.948012 C23.591,103.08429 23.271,103.213605 22.96,103.337947 C22.777,103.412551 22.687,103.618461 22.761,103.798507 C22.832,103.979548 23.041,104.069074 23.224,103.996458 C23.541,103.870127 23.867,103.736834 24.189,103.598566 C24.201,103.592598 24.209,103.586629 24.218,103.583645 C24.38,103.495114 24.449,103.301142 24.375,103.132037 C24.298,102.953981 24.089,102.870423 23.908,102.948012 Z M19.066,104.585339 C18.728,104.665912 18.392,104.735543 18.07,104.795227 C17.877,104.832032 17.748,105.015062 17.785,105.209035 C17.82,105.402012 18.005,105.528343 18.199,105.493528 C18.535,105.43086 18.882,105.35725 19.23,105.276676 C19.261,105.267724 19.291,105.255787 19.318,105.241861 C19.455,105.166261 19.533,105.007104 19.494,104.849937 C19.451,104.658949 19.257,104.540576 19.066,104.585339 Z M21.519,103.873112 C21.191,103.985516 20.863,104.089963 20.545,104.185457 C20.357,104.243151 20.25,104.442098 20.308,104.628112 C20.363,104.815121 20.562,104.921558 20.751,104.863863 C21.078,104.76439 21.414,104.657954 21.75,104.540576 C21.767,104.534607 21.787,104.527644 21.804,104.517697 C21.955,104.436129 22.029,104.257078 21.97,104.091952 C21.908,103.904943 21.705,103.809449 21.519,103.873112 Z M10.205,87.0004931 C9.988,86.9994984 9.763,86.9994984 9.533,87.0054668 C9.408,87.0064615 9.275,87.0124299 9.138,87.0233719 C8.943,87.0363034 8.793,87.2034182 8.806,87.3973906 C8.818,87.5933525 8.988,87.7415674 9.185,87.7296306 C9.31,87.7196833 9.433,87.7137149 9.548,87.7117254 C9.769,87.7067518 9.986,87.7067518 10.193,87.709736 C10.255,87.709736 10.316,87.694815 10.367,87.6669626 C10.476,87.6072787 10.552,87.49189 10.554,87.362575 C10.556,87.1636289 10.4,87.0054668 10.205,87.0004931 Z M12.017,94.8339957 C11.795,95.0677574 11.574,95.2875928 11.363,95.4984757 L11.296,95.5691016 C11.156,95.7063744 11.158,95.9301887 11.298,96.0684563 C11.412,96.1808608 11.586,96.1997607 11.718,96.1281401 C11.75,96.1112297 11.777,96.0913351 11.802,96.0644773 L11.869,95.9978304 C12.084,95.7829686 12.304,95.5621384 12.533,95.3243979 C12.668,95.1821514 12.664,94.9593318 12.523,94.8250432 C12.38,94.6887651 12.154,94.692744 12.017,94.8339957 Z M4.998,87.7485305 C4.802,87.7972723 4.625,87.8400457 4.464,87.8788402 C4.273,87.9255925 4.113,87.964387 3.99,87.9932342 C3.8,88.037997 3.679,88.2289853 3.724,88.4189788 C3.769,88.6099671 3.961,88.72834 4.154,88.6855666 C4.279,88.6547299 4.441,88.6159355 4.636,88.5671937 C4.793,88.5283992 4.97,88.4836363 5.164,88.4388734 C5.195,88.4289261 5.222,88.4189788 5.252,88.4060473 C5.388,88.3294531 5.464,88.1683067 5.425,88.0091499 C5.38,87.8211458 5.187,87.7017781 4.998,87.7485305 Z M14.335,91.6150479 C14.265,91.7980783 14.357,92.001998 14.541,92.0716292 C14.642,92.1084342 14.75,92.0994816 14.838,92.0527293 C14.91,92.0129401 14.97,91.9492773 15,91.86572 C15.14,91.5026433 15.232,91.1395667 15.275,90.7874321 C15.298,90.5934597 15.16,90.4183871 14.964,90.3935188 C14.769,90.3696453 14.591,90.5099023 14.568,90.7038747 C14.531,90.9973202 14.453,91.3036972 14.335,91.6150479 Z M13.087,94.2013471 C13.205,94.2948518 13.361,94.3038044 13.486,94.2381522 C13.523,94.2162681 13.56,94.1874209 13.589,94.1506159 C13.834,93.8551809 14.043,93.5756617 14.232,93.3001213 C14.341,93.138975 14.298,92.9171501 14.136,92.8077297 C13.974,92.6993041 13.752,92.7430722 13.642,92.9032239 C13.464,93.1638432 13.269,93.4234679 13.039,93.7039819 C12.914,93.8531915 12.937,94.0770058 13.087,94.2013471 Z M9.755,98.1255589 C9.865,98.1862375 9.994,98.1822585 10.097,98.1275484 C10.156,98.0967117 10.205,98.0489647 10.238,97.9882861 C10.38,97.7336351 10.546,97.4769946 10.732,97.2263226 C10.746,97.2084174 10.759,97.1895175 10.775,97.1696229 C10.896,97.014445 10.867,96.7906306 10.709,96.6722577 C10.554,96.5538847 10.33,96.5827319 10.21,96.7359204 C10.193,96.7617834 10.173,96.7856569 10.158,96.8085357 C9.955,97.0820866 9.773,97.3635954 9.617,97.6441094 C9.519,97.815203 9.582,98.0300648 9.755,98.1255589 Z M9.689,99.3331617 C9.738,99.1421735 9.623,98.9491958 9.433,98.900454 C9.244,98.8527069 9.048,98.9671009 9,99.155105 C8.906,99.5171869 8.849,99.8832477 8.83,100.24334 C8.822,100.437313 8.972,100.604427 9.17,100.614375 C9.236,100.616364 9.3,100.600448 9.357,100.571601 C9.46,100.512912 9.537,100.404486 9.543,100.276166 C9.556,99.9658103 9.607,99.6465018 9.689,99.3331617 Z M12.863,87.3585961 C12.543,87.2611125 12.185,87.1835236 11.8,87.1238397 C11.607,87.0939978 11.425,87.2282864 11.394,87.4222589 C11.365,87.6152366 11.498,87.7932933 11.693,87.8251247 C12.043,87.8768507 12.365,87.949466 12.652,88.0360076 C12.748,88.0658495 12.845,88.0539127 12.927,88.0091499 C13.007,87.9663764 13.068,87.8947559 13.097,87.8032406 C13.156,87.6152366 13.05,87.4162905 12.863,87.3585961 Z M14.335,89.2276947 C14.361,89.274447 14.384,89.3221941 14.408,89.3729254 C14.486,89.5539663 14.697,89.6345395 14.877,89.5559558 C14.886,89.5519768 14.896,89.5479979 14.904,89.5420295 C15.066,89.4544933 15.134,89.2585313 15.06,89.0894272 C15.029,89.0217855 14.998,88.9531491 14.961,88.8894863 C14.81,88.6109618 14.607,88.3612844 14.357,88.1454279 C14.209,88.0151182 13.984,88.0310339 13.855,88.178254 C13.726,88.3244794 13.74,88.5492885 13.888,88.6776087 C14.074,88.8387551 14.224,89.0257644 14.335,89.2276947 Z M7.558,87.2123707 C7.236,87.2650915 6.888,87.3317384 6.527,87.4053485 C6.334,87.4441429 6.209,87.632147 6.25,87.8251247 C6.287,88.0151182 6.476,88.1374701 6.67,88.0986756 C7.023,88.027055 7.361,87.964387 7.675,87.9116663 C7.714,87.9047032 7.754,87.8937611 7.789,87.8728718 C7.918,87.8032406 7.994,87.65801 7.968,87.5038268 C7.937,87.3118438 7.752,87.1795446 7.558,87.2123707 Z M7.558,87.2123707" id="journey--subdued-grey" fill="#FFFFFF" sketch:type="MSShapeGroup"></path>
        <path d="M31.572,62.1392964 L32,60.7058898 L30.16,60.1637617 L30.705,58.335447 L29.261,57.9136813 L28.718,59.741996 L26.879,59.2018573 L26.453,60.6372534 L28.289,61.1754026 L27.748,63.0057067 L29.189,63.4274724 L29.732,61.5991578 L31.572,62.1392964 Z M2.957,47.7972723 L2.148,47.3118438 L1.521,48.3354215 L0.492,47.7137149 L0,48.5184519 L1.031,49.1401584 L0.404,50.1637361 L1.212,50.651154 L1.837,49.6255869 L2.869,50.2492829 L3.361,49.4455407 L2.33,48.8238341 L2.957,47.7972723 Z M10.046,62.4874521 C9.906,62.2308116 9.794,61.9612397 9.711,61.6847046 C9.654,61.49869 9.457,61.3912591 9.267,61.4479587 C9.08,61.5026689 8.972,61.7006203 9.029,61.8886243 C9.125,62.210917 9.257,62.528236 9.421,62.8276499 C9.437,62.8525182 9.451,62.8793759 9.466,62.9072284 C9.562,63.0743431 9.775,63.1340269 9.947,63.0425117 C9.949,63.0405222 9.949,63.0405222 9.951,63.0405222 C10.123,62.9420439 10.183,62.7261874 10.086,62.5550938 C10.072,62.5342044 10.058,62.5103309 10.046,62.4874521 Z M14.06,64.9782572 C13.72,64.9334944 13.396,64.8668474 13.089,64.7852795 C12.902,64.7325588 12.705,64.8439686 12.652,65.0319727 C12.601,65.2209715 12.712,65.4169334 12.902,65.4696541 C13.236,65.5591798 13.591,65.628811 13.962,65.6795422 C14.041,65.6884948 14.117,65.6755633 14.181,65.6387583 C14.277,65.588027 14.347,65.4935276 14.363,65.3761494 C14.39,65.182177 14.253,65.0031255 14.06,64.9782572 Z M26.234,61.8617666 C25.925,62.0169446 25.617,62.1681436 25.312,62.3123795 C25.134,62.3959369 25.058,62.6078145 25.144,62.7848765 C25.228,62.9609438 25.441,63.0355486 25.617,62.9519912 C25.927,62.8057659 26.244,62.6505879 26.554,62.4934205 C26.558,62.491431 26.562,62.4894416 26.564,62.4894416 C26.734,62.3979264 26.8,62.1880382 26.712,62.018934 C26.625,61.8448562 26.41,61.7742303 26.234,61.8617666 Z M11.746,64.2361883 C11.464,64.075042 11.203,63.8840537 10.972,63.6741656 C10.828,63.5418664 10.603,63.5538032 10.468,63.6980391 C10.336,63.8432698 10.345,64.0670841 10.492,64.1993833 C10.759,64.4420975 11.06,64.6589488 11.386,64.849937 C11.498,64.9135998 11.63,64.9106156 11.736,64.8519265 C11.791,64.8220846 11.839,64.7773217 11.875,64.7216168 C11.97,64.5505231 11.916,64.3346666 11.746,64.2361883 Z M16.564,65.0071044 C16.218,65.0389358 15.878,65.0558462 15.554,65.0618146 C15.359,65.0638041 15.203,65.2249504 15.205,65.4209123 C15.209,65.6148847 15.369,65.7730469 15.566,65.769068 C15.908,65.7630996 16.263,65.743205 16.628,65.7123683 C16.677,65.7064 16.724,65.6934685 16.765,65.6695949 C16.886,65.6039427 16.962,65.4716436 16.951,65.3254182 C16.931,65.1314457 16.757,64.9872098 16.564,65.0071044 Z M23.908,62.9480123 C23.591,63.0842904 23.271,63.2136054 22.96,63.3379467 C22.777,63.4125515 22.687,63.6184607 22.761,63.7985069 C22.832,63.9795478 23.041,64.0690736 23.224,63.9964582 C23.541,63.8701275 23.867,63.7368336 24.189,63.5985661 C24.201,63.5925977 24.209,63.5866293 24.218,63.5836451 C24.38,63.4951141 24.449,63.3011416 24.375,63.1320375 C24.298,62.9539807 24.089,62.8704233 23.908,62.9480123 Z M19.066,64.5853387 C18.728,64.6659119 18.392,64.735543 18.07,64.7952268 C17.877,64.8320319 17.748,65.0150623 17.785,65.2090347 C17.82,65.4020124 18.005,65.5283432 18.199,65.4935276 C18.535,65.4308596 18.882,65.3572496 19.23,65.2766764 C19.261,65.2677238 19.291,65.255787 19.318,65.2418608 C19.455,65.1662613 19.533,65.0071044 19.494,64.849937 C19.451,64.6589488 19.257,64.5405758 19.066,64.5853387 Z M21.519,63.8731117 C21.191,63.9855162 20.863,64.0899629 20.545,64.185457 C20.357,64.2431514 20.25,64.4420975 20.308,64.6281121 C20.363,64.8151214 20.562,64.9215576 20.751,64.8638632 C21.078,64.7643902 21.414,64.657954 21.75,64.5405758 C21.767,64.5346074 21.787,64.5276443 21.804,64.517697 C21.955,64.4361291 22.029,64.2570776 21.97,64.0919524 C21.908,63.904943 21.705,63.8094489 21.519,63.8731117 Z M10.205,47.0004931 C9.988,46.9994984 9.763,46.9994984 9.533,47.0054668 C9.408,47.0064615 9.275,47.0124299 9.138,47.0233719 C8.943,47.0363034 8.793,47.2034182 8.806,47.3973906 C8.818,47.5933525 8.988,47.7415674 9.185,47.7296306 C9.31,47.7196833 9.433,47.7137149 9.548,47.7117254 C9.769,47.7067518 9.986,47.7067518 10.193,47.709736 C10.255,47.709736 10.316,47.694815 10.367,47.6669626 C10.476,47.6072787 10.552,47.49189 10.554,47.362575 C10.556,47.1636289 10.4,47.0054668 10.205,47.0004931 Z M12.017,54.8339957 C11.795,55.0677574 11.574,55.2875928 11.363,55.4984757 L11.296,55.5691016 C11.156,55.7063744 11.158,55.9301887 11.298,56.0684563 C11.412,56.1808608 11.586,56.1997607 11.718,56.1281401 C11.75,56.1112297 11.777,56.0913351 11.802,56.0644773 L11.869,55.9978304 C12.084,55.7829686 12.304,55.5621384 12.533,55.3243979 C12.668,55.1821514 12.664,54.9593318 12.523,54.8250432 C12.38,54.6887651 12.154,54.692744 12.017,54.8339957 Z M4.998,47.7485305 C4.802,47.7972723 4.625,47.8400457 4.464,47.8788402 C4.273,47.9255925 4.113,47.964387 3.99,47.9932342 C3.8,48.037997 3.679,48.2289853 3.724,48.4189788 C3.769,48.6099671 3.961,48.72834 4.154,48.6855666 C4.279,48.6547299 4.441,48.6159355 4.636,48.5671937 C4.793,48.5283992 4.97,48.4836363 5.164,48.4388734 C5.195,48.4289261 5.222,48.4189788 5.252,48.4060473 C5.388,48.3294531 5.464,48.1683067 5.425,48.0091499 C5.38,47.8211458 5.187,47.7017781 4.998,47.7485305 Z M14.335,51.6150479 C14.265,51.7980783 14.357,52.001998 14.541,52.0716292 C14.642,52.1084342 14.75,52.0994816 14.838,52.0527293 C14.91,52.0129401 14.97,51.9492773 15,51.86572 C15.14,51.5026433 15.232,51.1395667 15.275,50.7874321 C15.298,50.5934597 15.16,50.4183871 14.964,50.3935188 C14.769,50.3696453 14.591,50.5099023 14.568,50.7038747 C14.531,50.9973202 14.453,51.3036972 14.335,51.6150479 Z M13.087,54.2013471 C13.205,54.2948518 13.361,54.3038044 13.486,54.2381522 C13.523,54.2162681 13.56,54.1874209 13.589,54.1506159 C13.834,53.8551809 14.043,53.5756617 14.232,53.3001213 C14.341,53.138975 14.298,52.9171501 14.136,52.8077297 C13.974,52.6993041 13.752,52.7430722 13.642,52.9032239 C13.464,53.1638432 13.269,53.4234679 13.039,53.7039819 C12.914,53.8531915 12.937,54.0770058 13.087,54.2013471 Z M9.755,58.1255589 C9.865,58.1862375 9.994,58.1822585 10.097,58.1275484 C10.156,58.0967117 10.205,58.0489647 10.238,57.9882861 C10.38,57.7336351 10.546,57.4769946 10.732,57.2263226 C10.746,57.2084174 10.759,57.1895175 10.775,57.1696229 C10.896,57.014445 10.867,56.7906306 10.709,56.6722577 C10.554,56.5538847 10.33,56.5827319 10.21,56.7359204 C10.193,56.7617834 10.173,56.7856569 10.158,56.8085357 C9.955,57.0820866 9.773,57.3635954 9.617,57.6441094 C9.519,57.815203 9.582,58.0300648 9.755,58.1255589 Z M9.689,59.3331617 C9.738,59.1421735 9.623,58.9491958 9.433,58.900454 C9.244,58.8527069 9.048,58.9671009 9,59.155105 C8.906,59.5171869 8.849,59.8832477 8.83,60.2433401 C8.822,60.4373126 8.972,60.6044273 9.17,60.6143746 C9.236,60.6163641 9.3,60.6004484 9.357,60.5716012 C9.46,60.5129121 9.537,60.4044865 9.543,60.2761662 C9.556,59.9658103 9.607,59.6465018 9.689,59.3331617 Z M12.863,47.3585961 C12.543,47.2611125 12.185,47.1835236 11.8,47.1238397 C11.607,47.0939978 11.425,47.2282864 11.394,47.4222589 C11.365,47.6152366 11.498,47.7932933 11.693,47.8251247 C12.043,47.8768507 12.365,47.949466 12.652,48.0360076 C12.748,48.0658495 12.845,48.0539127 12.927,48.0091499 C13.007,47.9663764 13.068,47.8947559 13.097,47.8032406 C13.156,47.6152366 13.05,47.4162905 12.863,47.3585961 Z M14.335,49.2276947 C14.361,49.274447 14.384,49.3221941 14.408,49.3729254 C14.486,49.5539663 14.697,49.6345395 14.877,49.5559558 C14.886,49.5519768 14.896,49.5479979 14.904,49.5420295 C15.066,49.4544933 15.134,49.2585313 15.06,49.0894272 C15.029,49.0217855 14.998,48.9531491 14.961,48.8894863 C14.81,48.6109618 14.607,48.3612844 14.357,48.1454279 C14.209,48.0151182 13.984,48.0310339 13.855,48.178254 C13.726,48.3244794 13.74,48.5492885 13.888,48.6776087 C14.074,48.8387551 14.224,49.0257644 14.335,49.2276947 Z M7.558,47.2123707 C7.236,47.2650915 6.888,47.3317384 6.527,47.4053485 C6.334,47.4441429 6.209,47.632147 6.25,47.8251247 C6.287,48.0151182 6.476,48.1374701 6.67,48.0986756 C7.023,48.027055 7.361,47.964387 7.675,47.9116663 C7.714,47.9047032 7.754,47.8937611 7.789,47.8728718 C7.918,47.8032406 7.994,47.65801 7.968,47.5038268 C7.937,47.3118438 7.752,47.1795446 7.558,47.2123707 Z M7.558,47.2123707" id="journey--body-grey" fill="#67737B" sketch:type="MSShapeGroup"></path>
        <path d="M31.572,22.1392964 L32,20.7058898 L30.16,20.1637617 L30.705,18.335447 L29.261,17.9136813 L28.718,19.741996 L26.879,19.2018573 L26.453,20.6372534 L28.289,21.1754026 L27.748,23.0057067 L29.189,23.4274724 L29.732,21.5991578 L31.572,22.1392964 Z M2.957,7.79727226 L2.148,7.31184379 L1.521,8.33542146 L0.492,7.7137149 L0,8.51845187 L1.031,9.14015842 L0.404,10.1637361 L1.212,10.651154 L1.837,9.6255869 L2.869,10.2492829 L3.361,9.44554068 L2.33,8.82383413 L2.957,7.79727226 Z M10.046,22.4874521 C9.906,22.2308116 9.794,21.9612397 9.711,21.6847046 C9.654,21.49869 9.457,21.3912591 9.267,21.4479587 C9.08,21.5026689 8.972,21.7006203 9.029,21.8886243 C9.125,22.210917 9.257,22.528236 9.421,22.8276499 C9.437,22.8525182 9.451,22.8793759 9.466,22.9072284 C9.562,23.0743431 9.775,23.1340269 9.947,23.0425117 C9.949,23.0405222 9.949,23.0405222 9.951,23.0405222 C10.123,22.9420439 10.183,22.7261874 10.086,22.5550938 C10.072,22.5342044 10.058,22.5103309 10.046,22.4874521 Z M14.06,24.9782572 C13.72,24.9334944 13.396,24.8668474 13.089,24.7852795 C12.902,24.7325588 12.705,24.8439686 12.652,25.0319727 C12.601,25.2209715 12.712,25.4169334 12.902,25.4696541 C13.236,25.5591798 13.591,25.628811 13.962,25.6795422 C14.041,25.6884948 14.117,25.6755633 14.181,25.6387583 C14.277,25.588027 14.347,25.4935276 14.363,25.3761494 C14.39,25.182177 14.253,25.0031255 14.06,24.9782572 Z M26.234,21.8617666 C25.925,22.0169446 25.617,22.1681436 25.312,22.3123795 C25.134,22.3959369 25.058,22.6078145 25.144,22.7848765 C25.228,22.9609438 25.441,23.0355486 25.617,22.9519912 C25.927,22.8057659 26.244,22.6505879 26.554,22.4934205 C26.558,22.491431 26.562,22.4894416 26.564,22.4894416 C26.734,22.3979264 26.8,22.1880382 26.712,22.018934 C26.625,21.8448562 26.41,21.7742303 26.234,21.8617666 Z M11.746,24.2361883 C11.464,24.075042 11.203,23.8840537 10.972,23.6741656 C10.828,23.5418664 10.603,23.5538032 10.468,23.6980391 C10.336,23.8432698 10.345,24.0670841 10.492,24.1993833 C10.759,24.4420975 11.06,24.6589488 11.386,24.849937 C11.498,24.9135998 11.63,24.9106156 11.736,24.8519265 C11.791,24.8220846 11.839,24.7773217 11.875,24.7216168 C11.97,24.5505231 11.916,24.3346666 11.746,24.2361883 Z M16.564,25.0071044 C16.218,25.0389358 15.878,25.0558462 15.554,25.0618146 C15.359,25.0638041 15.203,25.2249504 15.205,25.4209123 C15.209,25.6148847 15.369,25.7730469 15.566,25.769068 C15.908,25.7630996 16.263,25.743205 16.628,25.7123683 C16.677,25.7064 16.724,25.6934685 16.765,25.6695949 C16.886,25.6039427 16.962,25.4716436 16.951,25.3254182 C16.931,25.1314457 16.757,24.9872098 16.564,25.0071044 Z M23.908,22.9480123 C23.591,23.0842904 23.271,23.2136054 22.96,23.3379467 C22.777,23.4125515 22.687,23.6184607 22.761,23.7985069 C22.832,23.9795478 23.041,24.0690736 23.224,23.9964582 C23.541,23.8701275 23.867,23.7368336 24.189,23.5985661 C24.201,23.5925977 24.209,23.5866293 24.218,23.5836451 C24.38,23.4951141 24.449,23.3011416 24.375,23.1320375 C24.298,22.9539807 24.089,22.8704233 23.908,22.9480123 Z M19.066,24.5853387 C18.728,24.6659119 18.392,24.735543 18.07,24.7952268 C17.877,24.8320319 17.748,25.0150623 17.785,25.2090347 C17.82,25.4020124 18.005,25.5283432 18.199,25.4935276 C18.535,25.4308596 18.882,25.3572496 19.23,25.2766764 C19.261,25.2677238 19.291,25.255787 19.318,25.2418608 C19.455,25.1662613 19.533,25.0071044 19.494,24.849937 C19.451,24.6589488 19.257,24.5405758 19.066,24.5853387 Z M21.519,23.8731117 C21.191,23.9855162 20.863,24.0899629 20.545,24.185457 C20.357,24.2431514 20.25,24.4420975 20.308,24.6281121 C20.363,24.8151214 20.562,24.9215576 20.751,24.8638632 C21.078,24.7643902 21.414,24.657954 21.75,24.5405758 C21.767,24.5346074 21.787,24.5276443 21.804,24.517697 C21.955,24.4361291 22.029,24.2570776 21.97,24.0919524 C21.908,23.904943 21.705,23.8094489 21.519,23.8731117 Z M10.205,7.00049314 C9.988,6.99949841 9.763,6.99949841 9.533,7.0054668 C9.408,7.00646153 9.275,7.01242991 9.138,7.02337194 C8.943,7.03630344 8.793,7.20341816 8.806,7.39739061 C8.818,7.59335251 8.988,7.74156736 9.185,7.72963059 C9.31,7.71968328 9.433,7.7137149 9.548,7.71172544 C9.769,7.70675179 9.986,7.70675179 10.193,7.70973598 C10.255,7.70973598 10.316,7.69481502 10.367,7.66696257 C10.476,7.60727874 10.552,7.49189 10.554,7.36257504 C10.556,7.16362894 10.4,7.0054668 10.205,7.00049314 Z M12.017,14.8339957 C11.795,15.0677574 11.574,15.2875928 11.363,15.4984757 L11.296,15.5691016 C11.156,15.7063744 11.158,15.9301887 11.298,16.0684563 C11.412,16.1808608 11.586,16.1997607 11.718,16.1281401 C11.75,16.1112297 11.777,16.0913351 11.802,16.0644773 L11.869,15.9978304 C12.084,15.7829686 12.304,15.5621384 12.533,15.3243979 C12.668,15.1821514 12.664,14.9593318 12.523,14.8250432 C12.38,14.6887651 12.154,14.692744 12.017,14.8339957 Z M4.998,7.74853047 C4.802,7.79727226 4.625,7.84004567 4.464,7.87884016 C4.273,7.9255925 4.113,7.96438698 3.99,7.99323417 C3.8,8.03799704 3.679,8.22898529 3.724,8.41897882 C3.769,8.60996707 3.961,8.72834 4.154,8.68556659 C4.279,8.65472994 4.441,8.61593545 4.636,8.56719366 C4.793,8.52839917 4.97,8.4836363 5.164,8.43887343 C5.195,8.42892612 5.222,8.41897882 5.252,8.40604732 C5.388,8.32945307 5.464,8.16830673 5.425,8.00914986 C5.38,7.82114579 5.187,7.70177814 4.998,7.74853047 Z M14.335,11.6150479 C14.265,11.7980783 14.357,12.001998 14.541,12.0716292 C14.642,12.1084342 14.75,12.0994816 14.838,12.0527293 C14.91,12.0129401 14.97,11.9492773 15,11.86572 C15.14,11.5026433 15.232,11.1395667 15.275,10.7874321 C15.298,10.5934597 15.16,10.4183871 14.964,10.3935188 C14.769,10.3696453 14.591,10.5099023 14.568,10.7038747 C14.531,10.9973202 14.453,11.3036972 14.335,11.6150479 Z M13.087,14.2013471 C13.205,14.2948518 13.361,14.3038044 13.486,14.2381522 C13.523,14.2162681 13.56,14.1874209 13.589,14.1506159 C13.834,13.8551809 14.043,13.5756617 14.232,13.3001213 C14.341,13.138975 14.298,12.9171501 14.136,12.8077297 C13.974,12.6993041 13.752,12.7430722 13.642,12.9032239 C13.464,13.1638432 13.269,13.4234679 13.039,13.7039819 C12.914,13.8531915 12.937,14.0770058 13.087,14.2013471 Z M9.755,18.1255589 C9.865,18.1862375 9.994,18.1822585 10.097,18.1275484 C10.156,18.0967117 10.205,18.0489647 10.238,17.9882861 C10.38,17.7336351 10.546,17.4769946 10.732,17.2263226 C10.746,17.2084174 10.759,17.1895175 10.775,17.1696229 C10.896,17.014445 10.867,16.7906306 10.709,16.6722577 C10.554,16.5538847 10.33,16.5827319 10.21,16.7359204 C10.193,16.7617834 10.173,16.7856569 10.158,16.8085357 C9.955,17.0820866 9.773,17.3635954 9.617,17.6441094 C9.519,17.815203 9.582,18.0300648 9.755,18.1255589 Z M9.689,19.3331617 C9.738,19.1421735 9.623,18.9491958 9.433,18.900454 C9.244,18.8527069 9.048,18.9671009 9,19.155105 C8.906,19.5171869 8.849,19.8832477 8.83,20.2433401 C8.822,20.4373126 8.972,20.6044273 9.17,20.6143746 C9.236,20.6163641 9.3,20.6004484 9.357,20.5716012 C9.46,20.5129121 9.537,20.4044865 9.543,20.2761662 C9.556,19.9658103 9.607,19.6465018 9.689,19.3331617 Z M12.863,7.35859612 C12.543,7.26111253 12.185,7.18352355 11.8,7.12383972 C11.607,7.09399781 11.425,7.22828642 11.394,7.42225887 C11.365,7.61523658 11.498,7.79329334 11.693,7.82512472 C12.043,7.8768507 12.365,7.94946603 12.652,8.03600758 C12.748,8.06584949 12.845,8.05391273 12.927,8.00914986 C13.007,7.96637645 13.068,7.89475585 13.097,7.80324065 C13.156,7.61523658 13.05,7.41629049 12.863,7.35859612 Z M14.335,9.2276947 C14.361,9.27444704 14.384,9.3221941 14.408,9.37292535 C14.486,9.5539663 14.697,9.63453947 14.877,9.55595576 C14.886,9.55197684 14.896,9.54799792 14.904,9.54202954 C15.066,9.45449325 15.134,9.25853135 15.06,9.08942717 C15.029,9.02178549 14.998,8.95314909 14.961,8.88948634 C14.81,8.6109618 14.607,8.36128445 14.357,8.14542793 C14.209,8.01511824 13.984,8.03103393 13.855,8.17825404 C13.726,8.32447942 13.74,8.54928851 13.888,8.67760874 C14.074,8.83875508 14.224,9.02576441 14.335,9.2276947 Z M7.558,7.21237074 C7.236,7.26509145 6.888,7.33173839 6.527,7.40534845 C6.334,7.44414294 6.209,7.632147 6.25,7.82512472 C6.287,8.01511824 6.476,8.13747009 6.67,8.0986756 C7.023,8.02705501 7.361,7.96438698 7.675,7.91166627 C7.714,7.90470316 7.754,7.89376112 7.789,7.87287178 C7.918,7.80324065 7.994,7.65800999 7.968,7.50382677 C7.937,7.31184379 7.752,7.17954463 7.558,7.21237074 Z M7.558,7.21237074" id="journey--title-grey" fill="#3A434E" sketch:type="MSShapeGroup"></path>
    </g>
</svg>