<svg width="32" height="232" xmlns="http://www.w3.org/2000/svg" xmlns:sketch="http://www.bohemiancoding.com/sketch/ns"><title>lightbulb</title><g sketch:type="MSPage" fill="none"><path d="M21.662 138.846h.007c.001 0-.817.942-1.328 2.392-.425 1.195-.469 2.844-.469 2.844h-.006c0 2.163-1.73 3.918-3.865 3.918-2.135 0-3.866-1.755-3.866-3.918 0 0-.086-1.632-.468-2.844-.446-1.419-1.328-2.392-1.328-2.392-1.445-1.468-2.338-3.494-2.338-5.733 0-4.479 3.58-8.112 8.001-8.112 4.419 0 7.999 3.633 7.999 8.112 0 2.239-.894 4.265-2.338 5.733zm-7.049 6.975h2.773c.272 0 .494-.222.494-.499 0-.274-.222-.496-.494-.496h-2.773c-.27 0-.492.223-.492.496 0 .278.222.499.492.499zm-.56-2.375h3.893c.272 0 .494-.225.494-.5 0-.273-.222-.495-.494-.495h-3.893c-.272 0-.492.223-.492.495 0 .276.22.5.492.5zm4.09-7.567c-.238.191-.916.534-1.421.534l-.167-.014c.396-.447.949-1.062.869-1.982-.085-.793-.733-1.296-1.598-1.296-.727 0-1.534.484-1.58 1.338-.04.794.336 1.255.588 1.569l.225.288h-.08c-.598 0-1.193-.27-1.2-.272l-.902-.424 1.269 4.814h.018l-.01.043c0 .263.211.478.471.478.264 0 .475-.214.475-.478l-.009-.043h.015l-.877-3.328c.562.12 1.075.11 1.504-.027.098.07.197.149.315.182.498.124 1.091.165 1.763-.143l-.6 3.316h.004l-.004.026c0 .263.211.48.471.48.262 0 .475-.216.475-.48l-.006-.016.006-.01.967-5.355-.98.798zm-2.344.03c-.324-.257-.592-.589-.682-1.017-.059-.277.016-.544.215-.739.093-.092.328-.176.547-.169.471.015.709.368.688.708-.015.377-.395.923-.769 1.216zm0 0" fill="#206FAC" sketch:type="MSShapeGroup"/><path d="M21.662 98.846h.007c.001 0-.817.942-1.328 2.392-.425 1.195-.469 2.844-.469 2.844h-.006c0 2.163-1.73 3.918-3.865 3.918-2.135 0-3.866-1.755-3.866-3.918 0 0-.086-1.632-.468-2.844-.446-1.419-1.328-2.392-1.328-2.392-1.445-1.468-2.338-3.494-2.338-5.733 0-4.479 3.58-8.112 8.001-8.112 4.419 0 7.999 3.633 7.999 8.112 0 2.239-.894 4.265-2.338 5.733zm-7.049 6.975h2.773c.272 0 .494-.222.494-.499 0-.274-.222-.496-.494-.496h-2.773c-.27 0-.492.223-.492.496 0 .278.222.499.492.499zm-.56-2.375h3.893c.272 0 .494-.225.494-.501 0-.273-.222-.495-.494-.495h-3.893c-.272 0-.492.223-.492.495 0 .276.22.501.492.501zm4.09-7.567c-.238.191-.916.534-1.421.534l-.167-.014c.396-.447.949-1.062.869-1.982-.085-.793-.733-1.296-1.598-1.296-.727 0-1.534.484-1.58 1.338-.04.794.336 1.255.588 1.569l.225.288h-.08c-.598 0-1.193-.27-1.2-.272l-.902-.424 1.269 4.814h.018l-.01.043c0 .263.211.478.471.478.264 0 .475-.214.475-.478l-.009-.043h.015l-.877-3.328c.562.12 1.075.11 1.504-.027.098.07.197.149.315.182.498.124 1.091.165 1.763-.143l-.6 3.316h.004l-.004.026c0 .263.211.48.471.48.262 0 .475-.216.475-.48l-.006-.016.006-.01.967-5.355-.98.798zm-2.344.03c-.324-.257-.592-.589-.682-1.017-.059-.277.016-.544.215-.739.093-.092.328-.176.547-.169.471.015.709.368.688.708-.015.377-.395.923-.769 1.216zm0 0" fill="#fff" sketch:type="MSShapeGroup"/><path d="M21.662 58.846h.007c.001 0-.817.942-1.328 2.392-.425 1.195-.469 2.844-.469 2.844h-.006c0 2.163-1.73 3.918-3.865 3.918-2.135 0-3.866-1.755-3.866-3.918 0 0-.086-1.632-.468-2.844-.446-1.419-1.328-2.392-1.328-2.392-1.445-1.468-2.338-3.494-2.338-5.733 0-4.479 3.58-8.112 8.001-8.112 4.419 0 7.999 3.633 7.999 8.112 0 2.239-.894 4.265-2.338 5.733zm-7.049 6.975h2.773c.272 0 .494-.222.494-.499 0-.274-.222-.496-.494-.496h-2.773c-.27 0-.492.223-.492.496 0 .278.222.499.492.499zm-.56-2.375h3.893c.272 0 .494-.225.494-.5 0-.273-.222-.495-.494-.495h-3.893c-.272 0-.492.223-.492.495 0 .276.22.5.492.5zm4.09-7.567c-.238.191-.916.534-1.421.534l-.167-.014c.396-.447.949-1.062.869-1.982-.085-.793-.733-1.296-1.598-1.296-.727 0-1.534.484-1.58 1.338-.04.794.336 1.255.588 1.569l.225.288h-.08c-.598 0-1.193-.27-1.2-.272l-.902-.424 1.269 4.814h.018l-.01.043c0 .263.211.478.471.478.264 0 .475-.214.475-.478l-.009-.043h.015l-.877-3.328c.562.12 1.075.11 1.504-.027.098.07.197.149.315.182.498.124 1.091.165 1.763-.143l-.6 3.316h.004l-.004.026c0 .263.211.48.471.48.262 0 .475-.216.475-.48l-.006-.016.006-.01.967-5.355-.98.798zm-2.344.03c-.324-.257-.592-.589-.682-1.017-.059-.277.016-.544.215-.739.093-.092.328-.176.547-.169.471.015.709.368.688.708-.015.377-.395.923-.769 1.216zm0 0" fill="#67737B" sketch:type="MSShapeGroup"/><path d="M21.662 18.846h.007c.001 0-.817.942-1.328 2.392-.425 1.195-.469 2.844-.469 2.844h-.006c0 2.163-1.73 3.918-3.865 3.918-2.135 0-3.866-1.755-3.866-3.918 0 0-.086-1.632-.468-2.844-.446-1.419-1.328-2.392-1.328-2.392-1.445-1.468-2.338-3.494-2.338-5.733 0-4.479 3.58-8.112 8.001-8.112 4.419 0 7.999 3.633 7.999 8.112 0 2.239-.894 4.265-2.338 5.733zm-7.049 6.975h2.773c.272 0 .494-.222.494-.499 0-.274-.222-.496-.494-.496h-2.773c-.27 0-.492.223-.492.496 0 .278.222.499.492.499zm-.56-2.375h3.893c.272 0 .494-.225.494-.5 0-.273-.222-.495-.494-.495h-3.893c-.272 0-.492.223-.492.495 0 .276.22.5.492.5zm4.09-7.567c-.238.191-.916.534-1.421.534l-.167-.014c.396-.447.949-1.062.869-1.982-.085-.793-.733-1.296-1.598-1.296-.727 0-1.534.484-1.58 1.338-.04.794.336 1.255.588 1.569l.225.288h-.08c-.598 0-1.193-.27-1.2-.272l-.902-.424 1.269 4.814h.018l-.01.043c0 .263.211.478.471.478.264 0 .475-.214.475-.478l-.009-.043h.015l-.877-3.328c.562.12 1.075.11 1.504-.027.098.07.197.149.315.182.498.124 1.091.165 1.763-.143l-.6 3.316h.004l-.004.026c0 .263.211.48.471.48.262 0 .475-.216.475-.48l-.006-.016.006-.01.967-5.355-.98.798zm-2.344.03c-.324-.257-.592-.589-.682-1.017-.059-.277.016-.544.215-.739.093-.092.328-.176.547-.169.471.015.709.368.688.708-.015.377-.395.923-.769 1.216zm0 0" fill="#3A434E" sketch:type="MSShapeGroup"/></g></svg>