<svg width="32" height="232" viewBox="0 0 32 232" xmlns="http://www.w3.org/2000/svg"><title>link</title><g fill="none"><path d="M28.551 127.793l-3.845-3.845c-.612-.613-1.424-.948-2.289-.948-.866 0-1.676.335-2.289.948l-5.707 5.707c-1.262 1.263-1.262 3.316 0 4.578l.722.724-.689.688-.721-.725c-.613-.612-1.424-.947-2.289-.947-.865 0-1.676.335-2.289.947l-5.707 5.707c-.613.614-.948 1.424-.948 2.289 0 .865.335 1.68.948 2.289l3.846 3.846c.611.611 1.423.949 2.287.949.865 0 1.677-.338 2.289-.949l5.709-5.707c1.262-1.262 1.262-3.314 0-4.578l-.637-.637.687-.685.637.634c.612.612 1.424.95 2.287.95.867 0 1.678-.338 2.291-.95l5.707-5.708c.612-.61.949-1.424.949-2.29 0-.863-.337-1.675-.949-2.287zm-13.103 13.103c.088.089.088.231 0 .316l-5.709 5.708c-.055.055-.115.069-.158.069-.041 0-.104-.014-.158-.069l-3.846-3.842c-.055-.056-.066-.119-.066-.162 0-.041.011-.101.066-.158l5.709-5.708c.053-.055.117-.065.158-.065.041 0 .103.01.158.065l.723.722-3.578 3.58c-.649.644-.649 1.693 0 2.341l.144.145c.648.646 1.694.646 2.342 0l3.578-3.58.637.638zm10.973-10.657l-5.709 5.709c-.053.054-.116.068-.159.068-.041 0-.103-.014-.158-.068l-.637-.635 3.409-3.406c.644-.649.644-1.696 0-2.342l-.147-.145c-.646-.649-1.694-.649-2.34 0l-3.408 3.406-.721-.722c-.088-.088-.088-.231 0-.319l5.707-5.707c.055-.055.118-.066.159-.066.043 0 .104.011.158.066l3.846 3.844c.054.056.066.117.066.158 0 .043-.012.106-.066.159zm0 0" fill="#206FAC"/><path d="M28.551 87.793l-3.845-3.845c-.612-.613-1.424-.948-2.289-.948-.866 0-1.676.335-2.289.948l-5.707 5.707c-1.262 1.263-1.262 3.316 0 4.578l.722.724-.689.688-.721-.725c-.613-.612-1.424-.947-2.289-.947-.865 0-1.676.335-2.289.947l-5.707 5.707c-.613.614-.948 1.424-.948 2.289 0 .865.335 1.68.948 2.289l3.846 3.846c.611.611 1.423.949 2.287.949.865 0 1.677-.338 2.289-.949l5.709-5.707c1.262-1.262 1.262-3.314 0-4.578l-.637-.637.687-.685.637.634c.612.612 1.424.95 2.287.95.867 0 1.678-.338 2.291-.95l5.707-5.708c.612-.61.949-1.424.949-2.29 0-.863-.337-1.675-.949-2.287zm-13.103 13.103c.088.089.088.231 0 .316l-5.709 5.708c-.055.055-.115.069-.158.069-.041 0-.104-.014-.158-.069l-3.846-3.842c-.055-.056-.066-.119-.066-.162 0-.041.011-.101.066-.158l5.709-5.708c.053-.055.117-.065.158-.065.041 0 .103.01.158.065l.723.722-3.578 3.58c-.649.644-.649 1.693 0 2.341l.144.145c.648.646 1.694.646 2.342 0l3.578-3.58.637.638zm10.973-10.657l-5.709 5.709c-.053.054-.116.068-.159.068-.041 0-.103-.014-.158-.068l-.637-.635 3.409-3.406c.644-.649.644-1.696 0-2.342l-.147-.145c-.646-.649-1.694-.649-2.34 0l-3.408 3.406-.721-.722c-.088-.088-.088-.231 0-.319l5.707-5.707c.055-.055.118-.066.159-.066.043 0 .104.011.158.066l3.846 3.844c.054.056.066.117.066.158 0 .043-.012.106-.066.159zm0 0" fill="#fff"/><path d="M28.551 47.793l-3.845-3.845c-.612-.613-1.424-.948-2.289-.948-.866 0-1.676.335-2.289.948l-5.707 5.707c-1.262 1.263-1.262 3.316 0 4.578l.722.724-.689.688-.721-.725c-.613-.612-1.424-.947-2.289-.947-.865 0-1.676.335-2.289.947l-5.707 5.707c-.613.614-.948 1.424-.948 2.289 0 .865.335 1.68.948 2.289l3.846 3.846c.611.611 1.423.949 2.287.949.865 0 1.677-.338 2.289-.949l5.709-5.707c1.262-1.262 1.262-3.314 0-4.578l-.637-.637.687-.685.637.634c.612.612 1.424.95 2.287.95.867 0 1.678-.338 2.291-.95l5.707-5.708c.612-.61.949-1.424.949-2.29 0-.863-.337-1.675-.949-2.287zm-13.103 13.103c.088.089.088.231 0 .316l-5.709 5.708c-.055.055-.115.069-.158.069-.041 0-.104-.014-.158-.069l-3.846-3.842c-.055-.056-.066-.119-.066-.162 0-.041.011-.101.066-.158l5.709-5.708c.053-.055.117-.065.158-.065.041 0 .103.01.158.065l.723.722-3.578 3.58c-.649.644-.649 1.693 0 2.341l.144.145c.648.646 1.694.646 2.342 0l3.578-3.58.637.638zm10.973-10.657l-5.709 5.709c-.053.054-.116.068-.159.068-.041 0-.103-.014-.158-.068l-.637-.635 3.409-3.406c.644-.649.644-1.696 0-2.342l-.147-.145c-.646-.649-1.694-.649-2.34 0l-3.408 3.406-.721-.722c-.088-.088-.088-.231 0-.319l5.707-5.707c.055-.055.118-.066.159-.066.043 0 .104.011.158.066l3.846 3.844c.054.056.066.117.066.158 0 .043-.012.106-.066.159zm0 0" fill="#67737B"/><path d="M28.551 7.793l-3.845-3.845c-.612-.613-1.424-.948-2.289-.948-.866 0-1.676.335-2.289.948l-5.707 5.707c-1.262 1.263-1.262 3.316 0 4.578l.722.724-.689.688-.721-.725c-.613-.612-1.424-.947-2.289-.947-.865 0-1.676.335-2.289.947l-5.707 5.707c-.613.614-.948 1.424-.948 2.289 0 .865.335 1.68.948 2.289l3.846 3.846c.611.611 1.423.949 2.287.949.865 0 1.677-.338 2.289-.949l5.709-5.707c1.262-1.262 1.262-3.314 0-4.578l-.637-.637.687-.685.637.634c.612.612 1.424.95 2.287.95.867 0 1.678-.338 2.291-.95l5.707-5.708c.612-.61.949-1.424.949-2.29 0-.863-.337-1.675-.949-2.287zm-13.103 13.103c.088.089.088.231 0 .316l-5.709 5.708c-.055.055-.115.069-.158.069-.041 0-.104-.014-.158-.069l-3.846-3.842c-.055-.056-.066-.119-.066-.162 0-.041.011-.101.066-.158l5.709-5.708c.053-.055.117-.065.158-.065.041 0 .103.01.158.065l.723.722-3.578 3.58c-.649.644-.649 1.693 0 2.341l.144.145c.648.646 1.694.646 2.342 0l3.578-3.58.637.638zm10.973-10.657l-5.709 5.709c-.053.054-.116.068-.159.068-.041 0-.103-.014-.158-.068l-.637-.635 3.409-3.406c.644-.649.644-1.696 0-2.342l-.147-.145c-.646-.649-1.694-.649-2.34 0l-3.408 3.406-.721-.722c-.088-.088-.088-.231 0-.319l5.707-5.707c.055-.055.118-.066.159-.066.043 0 .104.011.158.066l3.846 3.844c.054.056.066.117.066.158 0 .043-.012.106-.066.159zm0 0" fill="#3A434E"/></g></svg>