<?xml version="1.0" encoding="UTF-8" standalone="no"?>
<svg width="82px" height="289px" viewBox="0 0 82 289" version="1.1" xmlns="http://www.w3.org/2000/svg" xmlns:xlink="http://www.w3.org/1999/xlink" xmlns:sketch="http://www.bohemiancoding.com/sketch/ns">
    <title>lp-logo</title>
    <description>Created with Sketch (http://www.bohemiancoding.com/sketch)</description>
    <defs></defs>
    <g id="Brand" stroke="none" stroke-width="1" fill="none" fill-rule="evenodd" sketch:type="MSPage">
        <path d="M79.6085393,27.5798104 L79.6085393,26.0447704 L80.0601406,26.0447704 L80.6043365,27.1320904 C80.6563193,27.2337704 80.6920576,27.3092104 80.7131756,27.3600504 C80.7391671,27.3026504 80.7781542,27.2222904 80.8382594,27.1124104 L81.395451,26.0447704 L81.7918205,26.0447704 L81.7918205,27.5798104 L81.4977923,27.5798104 L81.4977923,26.2940504 L80.8268882,27.5798104 L80.5588514,27.5798104 L79.900943,26.2760104 L79.900943,27.5798104 L79.6085393,27.5798104 Z M78.2439886,27.5798104 L78.2439886,26.2268104 L77.4902368,26.2268104 L77.4902368,26.0447704 L79.3047643,26.0447704 L79.3047643,26.2268104 L78.5510125,26.2268104 L78.5510125,27.5798104 L78.2439886,27.5798104 Z M40.7919445,38.6990104 C32.9880139,38.6990104 26.3699428,33.7872104 23.9088781,26.8106504 L22.8805917,27.1616104 L21.8604276,27.5158504 C24.5472929,35.4140904 32.0052125,40.9999304 40.7968179,40.9999304 C49.5429383,40.9999304 57.0073556,35.3550504 59.7380816,27.5502904 L57.7010023,26.7794904 C55.2220684,33.7101304 48.5715081,38.6990104 40.7919445,38.6990104 Z M26.8784004,22.5630504 L24.4222091,22.1136904 C23.1778688,23.0648904 21.7597107,22.6516104 21.3097339,21.2313704 L27.4469632,21.2313704 L27.4469632,25.1394904 L30.2621613,25.1394904 L30.2621613,23.2912104 C30.6146703,25.2887304 33.1878231,25.9676904 34.5767408,24.4752904 C34.5767408,24.9131704 34.5263824,25.4297704 34.3931762,25.8496104 C33.9480728,26.9287304 32.4584382,26.9287304 31.6868173,26.2054904 L29.9372683,28.4883704 C31.0532759,29.3788904 32.1839036,29.8085704 33.6264287,29.6708104 C34.8155372,29.5510904 35.6277697,29.3395304 36.5358458,28.5146104 C37.224619,27.7372504 37.6518533,26.9287304 37.6518533,25.8856904 L37.6518533,16.2588904 L34.4857707,16.2588904 L34.4857707,21.5872504 C34.4857707,22.6516104 33.0773595,22.6516104 33.0773595,21.5872504 L33.0773595,16.2588904 L30.2621613,16.2588904 L30.2621613,12.7050104 L27.4469632,12.7050104 L27.4469632,19.0190104 C26.3926854,16.9575304 24.6057737,15.8948104 22.3428937,16.2146104 C20.7184286,16.5819704 19.5228222,17.4888904 18.8974031,19.0190104 C18.3337137,17.2051704 16.9870321,16.2424904 15.1351418,16.1440904 C13.1744124,16.1440904 11.702647,17.1133304 11.1113417,19.0190104 C10.1220424,16.8214104 8.11582791,15.7570504 5.75548004,16.2982504 C4.33894643,16.7459704 3.51859152,17.4987304 2.81357365,18.8271304 L2.81357365,12.7050104 L0,12.7050104 L0,25.1394904 L2.81357365,25.1394904 L2.81357365,22.4482504 C3.869476,24.1538504 5.16742365,25.0952104 7.0534277,25.1345704 C9.06126663,25.0148504 10.2048901,24.0521704 11.259168,22.2563704 L11.259168,25.1394904 L14.0759906,25.1394904 L14.0759906,19.8111304 C14.0759906,18.7451304 15.8352863,18.7451304 15.8352863,19.8111304 L15.8352863,25.1394904 L19.0013689,25.1394904 L19.0013689,22.4302104 C19.3538778,23.9045704 20.6242096,24.7950904 22.1804472,25.1985304 C25.5853262,25.5232504 26.8605313,23.1600104 26.8784004,22.5630504 C26.8784004,22.5630504 26.8605313,23.1600104 26.8784004,22.5630504 Z M6.87960993,22.5122104 C5.84157669,22.5122104 5.00172821,21.6577704 5.00172821,20.6114504 C5.00172821,19.5684104 5.84157669,18.7139704 6.87960993,18.7139704 C7.91601869,18.7139704 8.75749164,19.5684104 8.75749164,20.6114504 C8.75749164,21.6577704 7.91601869,22.5122104 6.87960993,22.5122104 Z M24.8949285,20.1702904 L21.2447553,20.1702904 C21.8100692,18.3925304 24.3068721,18.3925304 24.8949285,20.1702904 Z M81.8909129,21.7299304 L81.7577067,21.8480104 C81.2297555,22.2809704 80.4467633,22.0841704 80.1738532,21.4872104 C79.8911963,20.6344104 80.0373981,19.8111304 80.0373981,18.7451304 L81.9916297,18.7451304 L81.9916297,16.2588904 L79.879825,16.2588904 L79.879825,14.4811304 L77.0646269,14.4811304 L77.0646269,19.0190104 C76.7137424,17.7644104 75.8202866,17.0395304 74.5921909,16.4720904 C72.1343751,15.5930504 69.808141,16.6278904 68.7262473,19.0190104 C68.2990129,17.7644104 67.6687204,16.9952504 66.4698652,16.4245304 C64.0932726,15.5832104 61.8092746,16.5819704 60.9840463,19.0190104 C60.3293869,17.4888904 59.4034417,16.6852904 57.7789766,16.2326504 C55.590822,15.8669304 53.8396486,16.8296104 52.7837462,18.8271304 L52.7837462,12.7050104 L49.6160392,12.7050104 L49.6160392,18.8271304 C49.2651547,18.0760104 48.8899033,17.5430104 48.2482395,17.0116504 C45.2039918,14.7845304 41.1704449,17.0050904 41.1704449,20.7524904 L41.1704449,28.6933704 L44.2098192,28.6933704 C44.2098192,27.9832504 44.1188491,24.7852504 44.1188491,24.7852504 L44.3625189,24.9230104 C46.5766649,25.4920904 48.9126458,24.3621304 49.6160392,22.6138904 L49.6160392,25.1394904 L52.7837462,25.1394904 L52.7837462,22.6138904 C53.4871396,24.4457704 55.2561822,25.5002904 57.2786413,25.3526904 C58.2143332,25.4133704 58.9908276,22.9861704 58.9924521,23.6798904 L58.9875787,25.4953704 L60.9726751,25.4953704 L63.6936542,25.3067704 L63.6936542,19.8012904 C63.6936542,18.6565704 65.6365145,18.4728904 65.7339824,19.6454904 C65.756725,21.4462104 65.8346993,23.3633704 65.8346993,25.1394904 L68.620657,25.1394904 L68.620657,22.4302104 C69.322426,23.6602104 69.9397227,24.3719704 71.1304557,24.9590904 C73.4826812,25.7348104 75.9697374,25.3559704 76.8875602,22.4580904 L74.4216221,21.9759304 C73.8530593,22.8385704 71.8306002,23.0074904 71.1856875,21.2313704 L77.1685927,21.2313704 C77.1685927,22.6516104 77.197833,23.8078104 78.4681648,24.7426104 C79.7417455,25.6790504 82.0273679,24.8180504 81.999752,24.2112504 L81.8909129,21.7299304 Z M45.8391577,22.5630504 C44.8043734,22.5630504 43.9580271,21.7069704 43.9580271,20.6639304 C43.9580271,19.6225304 44.8043734,18.7648104 45.8391577,18.7648104 C46.873942,18.7648104 47.7186639,19.6225304 47.7186639,20.6639304 C47.7186639,21.7069704 46.873942,22.5630504 45.8391577,22.5630504 Z M56.805922,22.5630504 C55.7695132,22.5630504 54.9280402,21.7069704 54.9280402,20.6639304 C54.9280402,19.6225304 55.7695132,18.7648104 56.805922,18.7648104 C57.8407063,18.7648104 58.6854281,19.6225304 58.6854281,20.6639304 C58.6854281,21.7069704 57.8407063,22.5630504 56.805922,22.5630504 Z M71.1661939,20.1702904 C71.6567824,18.3925304 74.1958214,18.3925304 74.7643842,20.1702904 L71.1661939,20.1702904 Z M40.8065647,2.34513039 C48.6088708,2.34513039 55.2301908,7.34549039 57.6912555,14.4532504 L58.7179174,14.0957304 L59.7380816,13.7332904 C57.0512162,5.68909039 49.5965456,-6.96109356e-05 40.8000668,-6.96109356e-05 C32.0555709,-6.96109356e-05 24.589529,5.74977039 21.8604276,13.7004904 L23.8991313,14.4827704 C26.3764407,7.42421039 33.027001,2.34513039 40.8065647,2.34513039 Z M40.8065647,2.34513039" id="lp-logo--title-grey" fill="#3A434E" sketch:type="MSShapeGroup"></path>
        <path d="M79.6085393,76.57988 L79.6085393,75.04484 L80.0601406,75.04484 L80.6043365,76.13216 C80.6563193,76.23384 80.6920576,76.30928 80.7131756,76.36012 C80.7391671,76.30272 80.7781542,76.22236 80.8382594,76.11248 L81.395451,75.04484 L81.7918205,75.04484 L81.7918205,76.57988 L81.4977923,76.57988 L81.4977923,75.29412 L80.8268882,76.57988 L80.5588514,76.57988 L79.900943,75.27608 L79.900943,76.57988 L79.6085393,76.57988 Z M78.2439886,76.57988 L78.2439886,75.22688 L77.4902368,75.22688 L77.4902368,75.04484 L79.3047643,75.04484 L79.3047643,75.22688 L78.5510125,75.22688 L78.5510125,76.57988 L78.2439886,76.57988 Z M40.7919445,87.69908 C32.9880139,87.69908 26.3699428,82.78728 23.9088781,75.81072 L22.8805917,76.16168 L21.8604276,76.51592 C24.5472929,84.41416 32.0052125,90 40.7968179,90 C49.5429383,90 57.0073556,84.35512 59.7380816,76.55036 L57.7010023,75.77956 C55.2220684,82.7102 48.5715081,87.69908 40.7919445,87.69908 Z M26.8784004,71.56312 L24.4222091,71.11376 C23.1778688,72.06496 21.7597107,71.65168 21.3097339,70.23144 L27.4469632,70.23144 L27.4469632,74.13956 L30.2621613,74.13956 L30.2621613,72.29128 C30.6146703,74.2888 33.1878231,74.96776 34.5767408,73.47536 C34.5767408,73.91324 34.5263824,74.42984 34.3931762,74.84968 C33.9480728,75.9288 32.4584382,75.9288 31.6868173,75.20556 L29.9372683,77.48844 C31.0532759,78.37896 32.1839036,78.80864 33.6264287,78.67088 C34.8155372,78.55116 35.6277697,78.3396 36.5358458,77.51468 C37.224619,76.73732 37.6518533,75.9288 37.6518533,74.88576 L37.6518533,65.25896 L34.4857707,65.25896 L34.4857707,70.58732 C34.4857707,71.65168 33.0773595,71.65168 33.0773595,70.58732 L33.0773595,65.25896 L30.2621613,65.25896 L30.2621613,61.70508 L27.4469632,61.70508 L27.4469632,68.01908 C26.3926854,65.9576 24.6057737,64.89488 22.3428937,65.21468 C20.7184286,65.58204 19.5228222,66.48896 18.8974031,68.01908 C18.3337137,66.20524 16.9870321,65.24256 15.1351418,65.14416 C13.1744124,65.14416 11.702647,66.1134 11.1113417,68.01908 C10.1220424,65.82148 8.11582791,64.75712 5.75548004,65.29832 C4.33894643,65.74604 3.51859152,66.4988 2.81357365,67.8272 L2.81357365,61.70508 L0,61.70508 L0,74.13956 L2.81357365,74.13956 L2.81357365,71.44832 C3.869476,73.15392 5.16742365,74.09528 7.0534277,74.13464 C9.06126663,74.01492 10.2048901,73.05224 11.259168,71.25644 L11.259168,74.13956 L14.0759906,74.13956 L14.0759906,68.8112 C14.0759906,67.7452 15.8352863,67.7452 15.8352863,68.8112 L15.8352863,74.13956 L19.0013689,74.13956 L19.0013689,71.43028 C19.3538778,72.90464 20.6242096,73.79516 22.1804472,74.1986 C25.5853262,74.52332 26.8605313,72.16008 26.8784004,71.56312 C26.8784004,71.56312 26.8605313,72.16008 26.8784004,71.56312 Z M6.87960993,71.51228 C5.84157669,71.51228 5.00172821,70.65784 5.00172821,69.61152 C5.00172821,68.56848 5.84157669,67.71404 6.87960993,67.71404 C7.91601869,67.71404 8.75749164,68.56848 8.75749164,69.61152 C8.75749164,70.65784 7.91601869,71.51228 6.87960993,71.51228 Z M24.8949285,69.17036 L21.2447553,69.17036 C21.8100692,67.3926 24.3068721,67.3926 24.8949285,69.17036 Z M81.8909129,70.73 L81.7577067,70.84808 C81.2297555,71.28104 80.4467633,71.08424 80.1738532,70.48728 C79.8911963,69.63448 80.0373981,68.8112 80.0373981,67.7452 L81.9916297,67.7452 L81.9916297,65.25896 L79.879825,65.25896 L79.879825,63.4812 L77.0646269,63.4812 L77.0646269,68.01908 C76.7137424,66.76448 75.8202866,66.0396 74.5921909,65.47216 C72.1343751,64.59312 69.808141,65.62796 68.7262473,68.01908 C68.2990129,66.76448 67.6687204,65.99532 66.4698652,65.4246 C64.0932726,64.58328 61.8092746,65.58204 60.9840463,68.01908 C60.3293869,66.48896 59.4034417,65.68536 57.7789766,65.23272 C55.590822,64.867 53.8396486,65.82968 52.7837462,67.8272 L52.7837462,61.70508 L49.6160392,61.70508 L49.6160392,67.8272 C49.2651547,67.07608 48.8899033,66.54308 48.2482395,66.01172 C45.2039918,63.7846 41.1704449,66.00516 41.1704449,69.75256 L41.1704449,77.69344 L44.2098192,77.69344 C44.2098192,76.98332 44.1188491,73.78532 44.1188491,73.78532 L44.3625189,73.92308 C46.5766649,74.49216 48.9126458,73.3622 49.6160392,71.61396 L49.6160392,74.13956 L52.7837462,74.13956 L52.7837462,71.61396 C53.4871396,73.44584 55.2561822,74.50036 57.2786413,74.35276 C58.2143332,74.41344 58.9908276,71.98624 58.9924521,72.67996 L58.9875787,74.49544 L60.9726751,74.49544 L63.6936542,74.30684 L63.6936542,68.80136 C63.6936542,67.65664 65.6365145,67.47296 65.7339824,68.64556 C65.756725,70.44628 65.8346993,72.36344 65.8346993,74.13956 L68.620657,74.13956 L68.620657,71.43028 C69.322426,72.66028 69.9397227,73.37204 71.1304557,73.95916 C73.4826812,74.73488 75.9697374,74.35604 76.8875602,71.45816 L74.4216221,70.976 C73.8530593,71.83864 71.8306002,72.00756 71.1856875,70.23144 L77.1685927,70.23144 C77.1685927,71.65168 77.197833,72.80788 78.4681648,73.74268 C79.7417455,74.67912 82.0273679,73.81812 81.999752,73.21132 L81.8909129,70.73 Z M45.8391577,71.56312 C44.8043734,71.56312 43.9580271,70.70704 43.9580271,69.664 C43.9580271,68.6226 44.8043734,67.76488 45.8391577,67.76488 C46.873942,67.76488 47.7186639,68.6226 47.7186639,69.664 C47.7186639,70.70704 46.873942,71.56312 45.8391577,71.56312 Z M56.805922,71.56312 C55.7695132,71.56312 54.9280402,70.70704 54.9280402,69.664 C54.9280402,68.6226 55.7695132,67.76488 56.805922,67.76488 C57.8407063,67.76488 58.6854281,68.6226 58.6854281,69.664 C58.6854281,70.70704 57.8407063,71.56312 56.805922,71.56312 Z M71.1661939,69.17036 C71.6567824,67.3926 74.1958214,67.3926 74.7643842,69.17036 L71.1661939,69.17036 Z M40.8065647,51.3452 C48.6088708,51.3452 55.2301908,56.34556 57.6912555,63.45332 L58.7179174,63.0958 L59.7380816,62.73336 C57.0512162,54.68916 49.5965456,49 40.8000668,49 C32.0555709,49 24.589529,54.74984 21.8604276,62.70056 L23.8991313,63.48284 C26.3764407,56.42428 33.027001,51.3452 40.8065647,51.3452 Z M40.8065647,51.3452" id="lp-logo--title-grey-copy" fill="#67737B" sketch:type="MSShapeGroup"></path>
        <path d="M79.6085393,125.57995 L79.6085393,124.04491 L80.0601406,124.04491 L80.6043365,125.13223 C80.6563193,125.23391 80.6920576,125.30935 80.7131756,125.36019 C80.7391671,125.30279 80.7781542,125.22243 80.8382594,125.11255 L81.395451,124.04491 L81.7918205,124.04491 L81.7918205,125.57995 L81.4977923,125.57995 L81.4977923,124.29419 L80.8268882,125.57995 L80.5588514,125.57995 L79.900943,124.27615 L79.900943,125.57995 L79.6085393,125.57995 Z M78.2439886,125.57995 L78.2439886,124.22695 L77.4902368,124.22695 L77.4902368,124.04491 L79.3047643,124.04491 L79.3047643,124.22695 L78.5510125,124.22695 L78.5510125,125.57995 L78.2439886,125.57995 Z M40.7919445,136.69915 C32.9880139,136.69915 26.3699428,131.78735 23.9088781,124.81079 L22.8805917,125.16175 L21.8604276,125.51599 C24.5472929,133.41423 32.0052125,139.00007 40.7968179,139.00007 C49.5429383,139.00007 57.0073556,133.35519 59.7380816,125.55043 L57.7010023,124.77963 C55.2220684,131.71027 48.5715081,136.69915 40.7919445,136.69915 Z M26.8784004,120.56319 L24.4222091,120.11383 C23.1778688,121.06503 21.7597107,120.65175 21.3097339,119.23151 L27.4469632,119.23151 L27.4469632,123.13963 L30.2621613,123.13963 L30.2621613,121.29135 C30.6146703,123.28887 33.1878231,123.96783 34.5767408,122.47543 C34.5767408,122.91331 34.5263824,123.42991 34.3931762,123.84975 C33.9480728,124.92887 32.4584382,124.92887 31.6868173,124.20563 L29.9372683,126.48851 C31.0532759,127.37903 32.1839036,127.80871 33.6264287,127.67095 C34.8155372,127.55123 35.6277697,127.33967 36.5358458,126.51475 C37.224619,125.73739 37.6518533,124.92887 37.6518533,123.88583 L37.6518533,114.25903 L34.4857707,114.25903 L34.4857707,119.58739 C34.4857707,120.65175 33.0773595,120.65175 33.0773595,119.58739 L33.0773595,114.25903 L30.2621613,114.25903 L30.2621613,110.70515 L27.4469632,110.70515 L27.4469632,117.01915 C26.3926854,114.95767 24.6057737,113.89495 22.3428937,114.21475 C20.7184286,114.58211 19.5228222,115.48903 18.8974031,117.01915 C18.3337137,115.20531 16.9870321,114.24263 15.1351418,114.14423 C13.1744124,114.14423 11.702647,115.11347 11.1113417,117.01915 C10.1220424,114.82155 8.11582791,113.75719 5.75548004,114.29839 C4.33894643,114.74611 3.51859152,115.49887 2.81357365,116.82727 L2.81357365,110.70515 L0,110.70515 L0,123.13963 L2.81357365,123.13963 L2.81357365,120.44839 C3.869476,122.15399 5.16742365,123.09535 7.0534277,123.13471 C9.06126663,123.01499 10.2048901,122.05231 11.259168,120.25651 L11.259168,123.13963 L14.0759906,123.13963 L14.0759906,117.81127 C14.0759906,116.74527 15.8352863,116.74527 15.8352863,117.81127 L15.8352863,123.13963 L19.0013689,123.13963 L19.0013689,120.43035 C19.3538778,121.90471 20.6242096,122.79523 22.1804472,123.19867 C25.5853262,123.52339 26.8605313,121.16015 26.8784004,120.56319 C26.8784004,120.56319 26.8605313,121.16015 26.8784004,120.56319 Z M6.87960993,120.51235 C5.84157669,120.51235 5.00172821,119.65791 5.00172821,118.61159 C5.00172821,117.56855 5.84157669,116.71411 6.87960993,116.71411 C7.91601869,116.71411 8.75749164,117.56855 8.75749164,118.61159 C8.75749164,119.65791 7.91601869,120.51235 6.87960993,120.51235 Z M24.8949285,118.17043 L21.2447553,118.17043 C21.8100692,116.39267 24.3068721,116.39267 24.8949285,118.17043 Z M81.8909129,119.73007 L81.7577067,119.84815 C81.2297555,120.28111 80.4467633,120.08431 80.1738532,119.48735 C79.8911963,118.63455 80.0373981,117.81127 80.0373981,116.74527 L81.9916297,116.74527 L81.9916297,114.25903 L79.879825,114.25903 L79.879825,112.48127 L77.0646269,112.48127 L77.0646269,117.01915 C76.7137424,115.76455 75.8202866,115.03967 74.5921909,114.47223 C72.1343751,113.59319 69.808141,114.62803 68.7262473,117.01915 C68.2990129,115.76455 67.6687204,114.99539 66.4698652,114.42467 C64.0932726,113.58335 61.8092746,114.58211 60.9840463,117.01915 C60.3293869,115.48903 59.4034417,114.68543 57.7789766,114.23279 C55.590822,113.86707 53.8396486,114.82975 52.7837462,116.82727 L52.7837462,110.70515 L49.6160392,110.70515 L49.6160392,116.82727 C49.2651547,116.07615 48.8899033,115.54315 48.2482395,115.01179 C45.2039918,112.78467 41.1704449,115.00523 41.1704449,118.75263 L41.1704449,126.69351 L44.2098192,126.69351 C44.2098192,125.98339 44.1188491,122.78539 44.1188491,122.78539 L44.3625189,122.92315 C46.5766649,123.49223 48.9126458,122.36227 49.6160392,120.61403 L49.6160392,123.13963 L52.7837462,123.13963 L52.7837462,120.61403 C53.4871396,122.44591 55.2561822,123.50043 57.2786413,123.35283 C58.2143332,123.41351 58.9908276,120.98631 58.9924521,121.68003 L58.9875787,123.49551 L60.9726751,123.49551 L63.6936542,123.30691 L63.6936542,117.80143 C63.6936542,116.65671 65.6365145,116.47303 65.7339824,117.64563 C65.756725,119.44635 65.8346993,121.36351 65.8346993,123.13963 L68.620657,123.13963 L68.620657,120.43035 C69.322426,121.66035 69.9397227,122.37211 71.1304557,122.95923 C73.4826812,123.73495 75.9697374,123.35611 76.8875602,120.45823 L74.4216221,119.97607 C73.8530593,120.83871 71.8306002,121.00763 71.1856875,119.23151 L77.1685927,119.23151 C77.1685927,120.65175 77.197833,121.80795 78.4681648,122.74275 C79.7417455,123.67919 82.0273679,122.81819 81.999752,122.21139 L81.8909129,119.73007 Z M45.8391577,120.56319 C44.8043734,120.56319 43.9580271,119.70711 43.9580271,118.66407 C43.9580271,117.62267 44.8043734,116.76495 45.8391577,116.76495 C46.873942,116.76495 47.7186639,117.62267 47.7186639,118.66407 C47.7186639,119.70711 46.873942,120.56319 45.8391577,120.56319 Z M56.805922,120.56319 C55.7695132,120.56319 54.9280402,119.70711 54.9280402,118.66407 C54.9280402,117.62267 55.7695132,116.76495 56.805922,116.76495 C57.8407063,116.76495 58.6854281,117.62267 58.6854281,118.66407 C58.6854281,119.70711 57.8407063,120.56319 56.805922,120.56319 Z M71.1661939,118.17043 C71.6567824,116.39267 74.1958214,116.39267 74.7643842,118.17043 L71.1661939,118.17043 Z M40.8065647,100.34527 C48.6088708,100.34527 55.2301908,105.34563 57.6912555,112.45339 L58.7179174,112.09587 L59.7380816,111.73343 C57.0512162,103.68923 49.5965456,98.0000696 40.8000668,98.0000696 C32.0555709,98.0000696 24.589529,103.74991 21.8604276,111.70063 L23.8991313,112.48291 C26.3764407,105.42435 33.027001,100.34527 40.8065647,100.34527 Z M40.8065647,100.34527" id="lp-logo--title-grey-copy-2" fill="#FFFFFF" sketch:type="MSShapeGroup"></path>
        <path d="M79.6085393,174.580019 L79.6085393,173.044979 L80.0601406,173.044979 L80.6043365,174.132299 C80.6563193,174.233979 80.6920576,174.309419 80.7131756,174.360259 C80.7391671,174.302859 80.7781542,174.222499 80.8382594,174.112619 L81.395451,173.044979 L81.7918205,173.044979 L81.7918205,174.580019 L81.4977923,174.580019 L81.4977923,173.294259 L80.8268882,174.580019 L80.5588514,174.580019 L79.900943,173.276219 L79.900943,174.580019 L79.6085393,174.580019 Z M78.2439886,174.580019 L78.2439886,173.227019 L77.4902368,173.227019 L77.4902368,173.044979 L79.3047643,173.044979 L79.3047643,173.227019 L78.5510125,173.227019 L78.5510125,174.580019 L78.2439886,174.580019 Z M40.7919445,185.699219 C32.9880139,185.699219 26.3699428,180.787419 23.9088781,173.810859 L22.8805917,174.161819 L21.8604276,174.516059 C24.5472929,182.414299 32.0052125,188.000139 40.7968179,188.000139 C49.5429383,188.000139 57.0073556,182.355259 59.7380816,174.550499 L57.7010023,173.779699 C55.2220684,180.710339 48.5715081,185.699219 40.7919445,185.699219 Z M26.8784004,169.563259 L24.4222091,169.113899 C23.1778688,170.065099 21.7597107,169.651819 21.3097339,168.231579 L27.4469632,168.231579 L27.4469632,172.139699 L30.2621613,172.139699 L30.2621613,170.291419 C30.6146703,172.288939 33.1878231,172.967899 34.5767408,171.475499 C34.5767408,171.913379 34.5263824,172.429979 34.3931762,172.849819 C33.9480728,173.928939 32.4584382,173.928939 31.6868173,173.205699 L29.9372683,175.488579 C31.0532759,176.379099 32.1839036,176.808779 33.6264287,176.671019 C34.8155372,176.551299 35.6277697,176.339739 36.5358458,175.514819 C37.224619,174.737459 37.6518533,173.928939 37.6518533,172.885899 L37.6518533,163.259099 L34.4857707,163.259099 L34.4857707,168.587459 C34.4857707,169.651819 33.0773595,169.651819 33.0773595,168.587459 L33.0773595,163.259099 L30.2621613,163.259099 L30.2621613,159.705219 L27.4469632,159.705219 L27.4469632,166.019219 C26.3926854,163.957739 24.6057737,162.895019 22.3428937,163.214819 C20.7184286,163.582179 19.5228222,164.489099 18.8974031,166.019219 C18.3337137,164.205379 16.9870321,163.242699 15.1351418,163.144299 C13.1744124,163.144299 11.702647,164.113539 11.1113417,166.019219 C10.1220424,163.821619 8.11582791,162.757259 5.75548004,163.298459 C4.33894643,163.746179 3.51859152,164.498939 2.81357365,165.827339 L2.81357365,159.705219 L0,159.705219 L0,172.139699 L2.81357365,172.139699 L2.81357365,169.448459 C3.869476,171.154059 5.16742365,172.095419 7.0534277,172.134779 C9.06126663,172.015059 10.2048901,171.052379 11.259168,169.256579 L11.259168,172.139699 L14.0759906,172.139699 L14.0759906,166.811339 C14.0759906,165.745339 15.8352863,165.745339 15.8352863,166.811339 L15.8352863,172.139699 L19.0013689,172.139699 L19.0013689,169.430419 C19.3538778,170.904779 20.6242096,171.795299 22.1804472,172.198739 C25.5853262,172.523459 26.8605313,170.160219 26.8784004,169.563259 C26.8784004,169.563259 26.8605313,170.160219 26.8784004,169.563259 Z M6.87960993,169.512419 C5.84157669,169.512419 5.00172821,168.657979 5.00172821,167.611659 C5.00172821,166.568619 5.84157669,165.714179 6.87960993,165.714179 C7.91601869,165.714179 8.75749164,166.568619 8.75749164,167.611659 C8.75749164,168.657979 7.91601869,169.512419 6.87960993,169.512419 Z M24.8949285,167.170499 L21.2447553,167.170499 C21.8100692,165.392739 24.3068721,165.392739 24.8949285,167.170499 Z M81.8909129,168.730139 L81.7577067,168.848219 C81.2297555,169.281179 80.4467633,169.084379 80.1738532,168.487419 C79.8911963,167.634619 80.0373981,166.811339 80.0373981,165.745339 L81.9916297,165.745339 L81.9916297,163.259099 L79.879825,163.259099 L79.879825,161.481339 L77.0646269,161.481339 L77.0646269,166.019219 C76.7137424,164.764619 75.8202866,164.039739 74.5921909,163.472299 C72.1343751,162.593259 69.808141,163.628099 68.7262473,166.019219 C68.2990129,164.764619 67.6687204,163.995459 66.4698652,163.424739 C64.0932726,162.583419 61.8092746,163.582179 60.9840463,166.019219 C60.3293869,164.489099 59.4034417,163.685499 57.7789766,163.232859 C55.590822,162.867139 53.8396486,163.829819 52.7837462,165.827339 L52.7837462,159.705219 L49.6160392,159.705219 L49.6160392,165.827339 C49.2651547,165.076219 48.8899033,164.543219 48.2482395,164.011859 C45.2039918,161.784739 41.1704449,164.005299 41.1704449,167.752699 L41.1704449,175.693579 L44.2098192,175.693579 C44.2098192,174.983459 44.1188491,171.785459 44.1188491,171.785459 L44.3625189,171.923219 C46.5766649,172.492299 48.9126458,171.362339 49.6160392,169.614099 L49.6160392,172.139699 L52.7837462,172.139699 L52.7837462,169.614099 C53.4871396,171.445979 55.2561822,172.500499 57.2786413,172.352899 C58.2143332,172.413579 58.9908276,169.986379 58.9924521,170.680099 L58.9875787,172.495579 L60.9726751,172.495579 L63.6936542,172.306979 L63.6936542,166.801499 C63.6936542,165.656779 65.6365145,165.473099 65.7339824,166.645699 C65.756725,168.446419 65.8346993,170.363579 65.8346993,172.139699 L68.620657,172.139699 L68.620657,169.430419 C69.322426,170.660419 69.9397227,171.372179 71.1304557,171.959299 C73.4826812,172.735019 75.9697374,172.356179 76.8875602,169.458299 L74.4216221,168.976139 C73.8530593,169.838779 71.8306002,170.007699 71.1856875,168.231579 L77.1685927,168.231579 C77.1685927,169.651819 77.197833,170.808019 78.4681648,171.742819 C79.7417455,172.679259 82.0273679,171.818259 81.999752,171.211459 L81.8909129,168.730139 Z M45.8391577,169.563259 C44.8043734,169.563259 43.9580271,168.707179 43.9580271,167.664139 C43.9580271,166.622739 44.8043734,165.765019 45.8391577,165.765019 C46.873942,165.765019 47.7186639,166.622739 47.7186639,167.664139 C47.7186639,168.707179 46.873942,169.563259 45.8391577,169.563259 Z M56.805922,169.563259 C55.7695132,169.563259 54.9280402,168.707179 54.9280402,167.664139 C54.9280402,166.622739 55.7695132,165.765019 56.805922,165.765019 C57.8407063,165.765019 58.6854281,166.622739 58.6854281,167.664139 C58.6854281,168.707179 57.8407063,169.563259 56.805922,169.563259 Z M71.1661939,167.170499 C71.6567824,165.392739 74.1958214,165.392739 74.7643842,167.170499 L71.1661939,167.170499 Z M40.8065647,149.345339 C48.6088708,149.345339 55.2301908,154.345699 57.6912555,161.453459 L58.7179174,161.095939 L59.7380816,160.733499 C57.0512162,152.689299 49.5965456,147.000139 40.8000668,147.000139 C32.0555709,147.000139 24.589529,152.749979 21.8604276,160.700699 L23.8991313,161.482979 C26.3764407,154.424419 33.027001,149.345339 40.8065647,149.345339 Z M40.8065647,149.345339" id="lp-logo--title-grey-copy-3" fill="#206FAC" sketch:type="MSShapeGroup"></path>
    </g>
</svg>