<svg width="82" height="289" viewBox="0 0 82 289" xmlns="http://www.w3.org/2000/svg"><title>lp-logo</title><g fill="none"><path d="M79.609 27.58v-1.535h.452l.544 1.087.109.228.125-.248.557-1.068h.396v1.535h-.294v-1.286l-.671 1.286h-.268l-.658-1.304v1.304h-.292zm-1.365 0v-1.353h-.754v-.182h1.815v.182h-.754v1.353h-.307zm-37.452 11.119c-7.804 0-14.422-4.912-16.883-11.888l-1.028.351-1.02.354c2.687 7.898 10.145 13.484 18.936 13.484 8.746 0 16.211-5.645 18.941-13.45l-2.037-.771c-2.479 6.931-9.129 11.92-16.909 11.92zm-13.914-16.136l-2.456-.449c-1.244.951-2.662.538-3.112-.882h6.137v3.908h2.815v-1.848c.353 1.998 2.926 2.676 4.315 1.184 0 .438-.05.954-.184 1.374-.445 1.079-1.935 1.079-2.706.356l-1.75 2.283c1.116.891 2.247 1.32 3.689 1.182 1.189-.12 2.001-.331 2.909-1.156.689-.777 1.116-1.586 1.116-2.629v-9.627h-3.166v5.328c0 1.064-1.408 1.064-1.408 0v-5.328h-2.815v-3.554h-2.815v6.314c-1.054-2.061-2.841-3.124-5.104-2.804-1.624.367-2.82 1.274-3.445 2.804-.564-1.814-1.91-2.777-3.762-2.875-1.961 0-3.432.969-4.024 2.875-.989-2.198-2.996-3.262-5.356-2.721-1.417.448-2.237 1.2-2.942 2.529v-6.122h-2.814v12.434h2.814v-2.691c1.056 1.706 2.354 2.647 4.24 2.686 2.008-.12 3.151-1.082 4.206-2.878v2.883h2.817v-5.328c0-1.066 1.759-1.066 1.759 0v5.328h3.166v-2.709c.353 1.474 1.623 2.365 3.179 2.768 3.405.325 4.68-2.039 4.698-2.635zm-19.999-.051c-1.038 0-1.878-.854-1.878-1.901 0-1.043.84-1.897 1.878-1.897 1.036 0 1.878.854 1.878 1.897 0 1.046-.841 1.901-1.878 1.901zm18.015-2.342h-3.65c.565-1.778 3.062-1.778 3.65 0zm56.996 1.56l-.133.118c-.528.433-1.311.236-1.584-.361-.283-.853-.136-1.676-.136-2.742h1.954v-2.486h-2.112v-1.778h-2.815v4.538c-.351-1.255-1.244-1.979-2.472-2.547-2.458-.879-4.784.156-5.866 2.547-.427-1.255-1.058-2.024-2.256-2.594-2.377-.841-4.661.157-5.486 2.594-.655-1.53-1.581-2.334-3.205-2.786-2.188-.366-3.939.597-4.995 2.594v-6.122h-3.168v6.122c-.351-.751-.726-1.284-1.368-1.815-3.044-2.227-7.078-.007-7.078 3.741v7.941h3.039c0-.71-.091-3.908-.091-3.908l.244.138c2.214.569 4.55-.561 5.254-2.309v2.526h3.168v-2.526c.703 1.832 2.472 2.886 4.495 2.739.936.061 1.712-2.367 1.714-1.673l-.005 1.815h1.985l2.721-.189v-5.505c0-1.145 1.943-1.328 2.04-.156.023 1.801.101 3.718.101 5.494h2.786v-2.709c.702 1.23 1.319 1.942 2.51 2.529 2.352.776 4.839.397 5.757-2.501l-2.466-.482c-.569.863-2.591 1.032-3.236-.745h5.983c0 1.42.029 2.576 1.3 3.511 1.274.936 3.559.075 3.532-.531l-.109-2.481zm-36.052.833c-1.035 0-1.881-.856-1.881-1.899 0-1.041.846-1.899 1.881-1.899 1.035 0 1.88.858 1.88 1.899 0 1.043-.845 1.899-1.88 1.899zm10.967 0c-1.036 0-1.878-.856-1.878-1.899 0-1.041.841-1.899 1.878-1.899 1.035 0 1.88.858 1.88 1.899 0 1.043-.845 1.899-1.88 1.899zm14.36-2.393c.491-1.778 3.03-1.778 3.598 0h-3.598zm-30.36-17.825c7.802 0 14.424 5 16.885 12.108l1.027-.358 1.02-.362c-2.687-8.044-10.142-13.733-18.938-13.733-8.744 0-16.211 5.75-18.94 13.701l2.039.782c2.477-7.059 9.128-12.138 16.907-12.138zm0 0" fill="#3A434E"/><path d="M79.609 76.58v-1.535h.452l.544 1.087.109.228.125-.248.557-1.068h.396v1.535h-.294v-1.286l-.671 1.286h-.268l-.658-1.304v1.304h-.292zm-1.365 0v-1.353h-.754v-.182h1.815v.182h-.754v1.353h-.307zm-37.452 11.119c-7.804 0-14.422-4.912-16.883-11.888l-1.028.351-1.02.354c2.687 7.898 10.145 13.484 18.936 13.484 8.746 0 16.211-5.645 18.941-13.45l-2.037-.771c-2.479 6.931-9.129 11.92-16.909 11.92zm-13.914-16.136l-2.456-.449c-1.244.951-2.662.538-3.112-.882h6.137v3.908h2.815v-1.848c.353 1.998 2.926 2.676 4.315 1.184 0 .438-.05.954-.184 1.374-.445 1.079-1.935 1.079-2.706.356l-1.75 2.283c1.116.891 2.247 1.32 3.689 1.182 1.189-.12 2.001-.331 2.909-1.156.689-.777 1.116-1.586 1.116-2.629v-9.627h-3.166v5.328c0 1.064-1.408 1.064-1.408 0v-5.328h-2.815v-3.554h-2.815v6.314c-1.054-2.061-2.841-3.124-5.104-2.804-1.624.367-2.82 1.274-3.445 2.804-.564-1.814-1.91-2.777-3.762-2.875-1.961 0-3.432.969-4.024 2.875-.989-2.198-2.996-3.262-5.356-2.721-1.417.448-2.237 1.2-2.942 2.529v-6.122h-2.814v12.434h2.814v-2.691c1.056 1.706 2.354 2.647 4.24 2.686 2.008-.12 3.151-1.082 4.206-2.878v2.883h2.817v-5.328c0-1.066 1.759-1.066 1.759 0v5.328h3.166v-2.709c.353 1.474 1.623 2.365 3.179 2.768 3.405.325 4.68-2.039 4.698-2.635zm-19.999-.051c-1.038 0-1.878-.854-1.878-1.901 0-1.043.84-1.897 1.878-1.897 1.036 0 1.878.854 1.878 1.897 0 1.046-.841 1.901-1.878 1.901zm18.015-2.342h-3.65c.565-1.778 3.062-1.778 3.65 0zm56.996 1.56l-.133.118c-.528.433-1.311.236-1.584-.361-.283-.853-.136-1.676-.136-2.742h1.954v-2.486h-2.112v-1.778h-2.815v4.538c-.351-1.255-1.244-1.979-2.472-2.547-2.458-.879-4.784.156-5.866 2.547-.427-1.255-1.058-2.024-2.256-2.594-2.377-.841-4.661.157-5.486 2.594-.655-1.53-1.581-2.334-3.205-2.786-2.188-.366-3.939.597-4.995 2.594v-6.122h-3.168v6.122c-.351-.751-.726-1.284-1.368-1.815-3.044-2.227-7.078-.007-7.078 3.741v7.941h3.039c0-.71-.091-3.908-.091-3.908l.244.138c2.214.569 4.55-.561 5.254-2.309v2.526h3.168v-2.526c.703 1.832 2.472 2.886 4.495 2.739.936.061 1.712-2.367 1.714-1.673l-.005 1.815h1.985l2.721-.189v-5.505c0-1.145 1.943-1.328 2.04-.156.023 1.801.101 3.718.101 5.494h2.786v-2.709c.702 1.23 1.319 1.942 2.51 2.529 2.352.776 4.839.397 5.757-2.501l-2.466-.482c-.569.863-2.591 1.032-3.236-.745h5.983c0 1.42.029 2.576 1.3 3.511 1.274.936 3.559.075 3.532-.531l-.109-2.481zm-36.052.833c-1.035 0-1.881-.856-1.881-1.899 0-1.041.846-1.899 1.881-1.899 1.035 0 1.88.858 1.88 1.899 0 1.043-.845 1.899-1.88 1.899zm10.967 0c-1.036 0-1.878-.856-1.878-1.899 0-1.041.841-1.899 1.878-1.899 1.035 0 1.88.858 1.88 1.899 0 1.043-.845 1.899-1.88 1.899zm14.36-2.393c.491-1.778 3.03-1.778 3.598 0h-3.598zm-30.36-17.825c7.802 0 14.424 5 16.885 12.108l1.027-.358 1.02-.362c-2.687-8.044-10.142-13.733-18.938-13.733-8.744 0-16.211 5.75-18.94 13.701l2.039.782c2.477-7.059 9.128-12.138 16.907-12.138zm0 0" fill="#67737B"/><path d="M79.609 125.58v-1.535h.452l.544 1.087.109.228.125-.248.557-1.068h.396v1.535h-.294v-1.286l-.671 1.286h-.268l-.658-1.304v1.304h-.292zm-1.365 0v-1.353h-.754v-.182h1.815v.182h-.754v1.353h-.307zm-37.452 11.119c-7.804 0-14.422-4.912-16.883-11.888l-1.028.351-1.02.354c2.687 7.898 10.145 13.484 18.936 13.484 8.746 0 16.211-5.645 18.941-13.45l-2.037-.771c-2.479 6.931-9.129 11.92-16.909 11.92zm-13.914-16.136l-2.456-.449c-1.244.951-2.662.538-3.112-.882h6.137v3.908h2.815v-1.848c.353 1.998 2.926 2.676 4.315 1.184 0 .438-.05.954-.184 1.374-.445 1.079-1.935 1.079-2.706.356l-1.75 2.283c1.116.891 2.247 1.32 3.689 1.182 1.189-.12 2.001-.331 2.909-1.156.689-.777 1.116-1.586 1.116-2.629v-9.627h-3.166v5.328c0 1.064-1.408 1.064-1.408 0v-5.328h-2.815v-3.554h-2.815v6.314c-1.054-2.061-2.841-3.124-5.104-2.804-1.624.367-2.82 1.274-3.445 2.804-.564-1.814-1.91-2.777-3.762-2.875-1.961 0-3.432.969-4.024 2.875-.989-2.198-2.996-3.262-5.356-2.721-1.417.448-2.237 1.2-2.942 2.529v-6.122h-2.814v12.434h2.814v-2.691c1.056 1.706 2.354 2.647 4.24 2.686 2.008-.12 3.151-1.082 4.206-2.878v2.883h2.817v-5.328c0-1.066 1.759-1.066 1.759 0v5.328h3.166v-2.709c.353 1.474 1.623 2.365 3.179 2.768 3.405.325 4.68-2.039 4.698-2.635zm-19.999-.051c-1.038 0-1.878-.854-1.878-1.901 0-1.043.84-1.897 1.878-1.897 1.036 0 1.878.854 1.878 1.897 0 1.046-.841 1.901-1.878 1.901zm18.015-2.342h-3.65c.565-1.778 3.062-1.778 3.65 0zm56.996 1.56l-.133.118c-.528.433-1.311.236-1.584-.361-.283-.853-.136-1.676-.136-2.742h1.954v-2.486h-2.112v-1.778h-2.815v4.538c-.351-1.255-1.244-1.979-2.472-2.547-2.458-.879-4.784.156-5.866 2.547-.427-1.255-1.058-2.024-2.256-2.594-2.377-.841-4.661.157-5.486 2.594-.655-1.53-1.581-2.334-3.205-2.786-2.188-.366-3.939.597-4.995 2.594v-6.122h-3.168v6.122c-.351-.751-.726-1.284-1.368-1.815-3.044-2.227-7.078-.007-7.078 3.741v7.941h3.039c0-.71-.091-3.908-.091-3.908l.244.138c2.214.569 4.55-.561 5.254-2.309v2.526h3.168v-2.526c.703 1.832 2.472 2.886 4.495 2.739.936.061 1.712-2.367 1.714-1.673l-.005 1.815h1.985l2.721-.189v-5.505c0-1.145 1.943-1.328 2.04-.156.023 1.801.101 3.718.101 5.494h2.786v-2.709c.702 1.23 1.319 1.942 2.51 2.529 2.352.776 4.839.397 5.757-2.501l-2.466-.482c-.569.863-2.591 1.032-3.236-.745h5.983c0 1.42.029 2.576 1.3 3.511 1.274.936 3.559.075 3.532-.531l-.109-2.481zm-36.052.833c-1.035 0-1.881-.856-1.881-1.899 0-1.041.846-1.899 1.881-1.899 1.035 0 1.88.858 1.88 1.899 0 1.043-.845 1.899-1.88 1.899zm10.967 0c-1.036 0-1.878-.856-1.878-1.899 0-1.041.841-1.899 1.878-1.899 1.035 0 1.88.858 1.88 1.899 0 1.043-.845 1.899-1.88 1.899zm14.36-2.393c.491-1.778 3.03-1.778 3.598 0h-3.598zm-30.36-17.825c7.802 0 14.424 5 16.885 12.108l1.027-.358 1.02-.362c-2.687-8.044-10.142-13.733-18.938-13.733-8.744 0-16.211 5.75-18.94 13.701l2.039.782c2.477-7.059 9.128-12.138 16.907-12.138zm0 0" fill="#fff"/><path d="M79.609 174.58v-1.535h.452l.544 1.087.109.228.125-.248.557-1.068h.396v1.535h-.294v-1.286l-.671 1.286h-.268l-.658-1.304v1.304h-.292zm-1.365 0v-1.353h-.754v-.182h1.815v.182h-.754v1.353h-.307zm-37.452 11.119c-7.804 0-14.422-4.912-16.883-11.888l-1.028.351-1.02.354c2.687 7.898 10.145 13.484 18.936 13.484 8.746 0 16.211-5.645 18.941-13.45l-2.037-.771c-2.479 6.931-9.129 11.92-16.909 11.92zm-13.914-16.136l-2.456-.449c-1.244.951-2.662.538-3.112-.882h6.137v3.908h2.815v-1.848c.353 1.998 2.926 2.676 4.315 1.184 0 .438-.05.954-.184 1.374-.445 1.079-1.935 1.079-2.706.356l-1.75 2.283c1.116.891 2.247 1.32 3.689 1.182 1.189-.12 2.001-.331 2.909-1.156.689-.777 1.116-1.586 1.116-2.629v-9.627h-3.166v5.328c0 1.064-1.408 1.064-1.408 0v-5.328h-2.815v-3.554h-2.815v6.314c-1.054-2.061-2.841-3.124-5.104-2.804-1.624.367-2.82 1.274-3.445 2.804-.564-1.814-1.91-2.777-3.762-2.875-1.961 0-3.432.969-4.024 2.875-.989-2.198-2.996-3.262-5.356-2.721-1.417.448-2.237 1.2-2.942 2.529v-6.122h-2.814v12.434h2.814v-2.691c1.056 1.706 2.354 2.647 4.24 2.686 2.008-.12 3.151-1.082 4.206-2.878v2.883h2.817v-5.328c0-1.066 1.759-1.066 1.759 0v5.328h3.166v-2.709c.353 1.474 1.623 2.365 3.179 2.768 3.405.325 4.68-2.039 4.698-2.635zm-19.999-.051c-1.038 0-1.878-.854-1.878-1.901 0-1.043.84-1.897 1.878-1.897 1.036 0 1.878.854 1.878 1.897 0 1.046-.841 1.901-1.878 1.901zm18.015-2.342h-3.65c.565-1.778 3.062-1.778 3.65 0zm56.996 1.56l-.133.118c-.528.433-1.311.236-1.584-.361-.283-.853-.136-1.676-.136-2.742h1.954v-2.486h-2.112v-1.778h-2.815v4.538c-.351-1.255-1.244-1.979-2.472-2.547-2.458-.879-4.784.156-5.866 2.547-.427-1.255-1.058-2.024-2.256-2.594-2.377-.841-4.661.157-5.486 2.594-.655-1.53-1.581-2.334-3.205-2.786-2.188-.366-3.939.597-4.995 2.594v-6.122h-3.168v6.122c-.351-.751-.726-1.284-1.368-1.815-3.044-2.227-7.078-.007-7.078 3.741v7.941h3.039c0-.71-.091-3.908-.091-3.908l.244.138c2.214.569 4.55-.561 5.254-2.309v2.526h3.168v-2.526c.703 1.832 2.472 2.886 4.495 2.739.936.061 1.712-2.367 1.714-1.673l-.005 1.815h1.985l2.721-.189v-5.505c0-1.145 1.943-1.328 2.04-.156.023 1.801.101 3.718.101 5.494h2.786v-2.709c.702 1.23 1.319 1.942 2.51 2.529 2.352.776 4.839.397 5.757-2.501l-2.466-.482c-.569.863-2.591 1.032-3.236-.745h5.983c0 1.42.029 2.576 1.3 3.511 1.274.936 3.559.075 3.532-.531l-.109-2.481zm-36.052.833c-1.035 0-1.881-.856-1.881-1.899 0-1.041.846-1.899 1.881-1.899 1.035 0 1.88.858 1.88 1.899 0 1.043-.845 1.899-1.88 1.899zm10.967 0c-1.036 0-1.878-.856-1.878-1.899 0-1.041.841-1.899 1.878-1.899 1.035 0 1.88.858 1.88 1.899 0 1.043-.845 1.899-1.88 1.899zm14.36-2.393c.491-1.778 3.03-1.778 3.598 0h-3.598zm-30.36-17.825c7.802 0 14.424 5 16.885 12.108l1.027-.358 1.02-.362c-2.687-8.044-10.142-13.733-18.938-13.733-8.744 0-16.211 5.75-18.94 13.701l2.039.782c2.477-7.059 9.128-12.138 16.907-12.138zm0 0" fill="#206FAC"/></g></svg>