<?xml version="1.0" encoding="utf-8"?>
<!-- Generator: Adobe Illustrator 17.0.0, SVG Export Plug-In . SVG Version: 6.00 Build 0)  -->
<!DOCTYPE svg PUBLIC "-//W3C//DTD SVG 1.1//EN" "http://www.w3.org/Graphics/SVG/1.1/DTD/svg11.dtd">
<svg version="1.1" id="Layer_1" xmlns:sketch="http://www.bohemiancoding.com/sketch/ns"
	 xmlns="http://www.w3.org/2000/svg" xmlns:xlink="http://www.w3.org/1999/xlink" x="0px" y="0px" width="32px" height="136px"
	 viewBox="0 0 32 136" enable-background="new 0 0 32 136" xml:space="preserve">
<title>lp-logo</title>
<description>Created with Sketch (http://www.bohemiancoding.com/sketch)</description>
<g id="Brand" sketch:type="MSPage">
	<path id="lp-logo--lp-blue" sketch:type="MSShapeGroup" fill="#1D4F8D" d="M31.067,106.763v-0.599h0.176l0.212,0.424
		c0.02,0.04,0.034,0.069,0.042,0.089c0.01-0.022,0.025-0.054,0.049-0.097l0.217-0.417h0.155v0.599h-0.115v-0.502l-0.262,0.502
		h-0.105l-0.257-0.509v0.509H31.067z M30.534,106.763v-0.528H30.24v-0.071h0.708v0.071h-0.294v0.528H30.534z M15.919,111.102
		c-3.045,0-5.628-1.917-6.589-4.639L8.929,106.6l-0.398,0.138C9.579,109.82,12.49,112,15.921,112c3.413,0,6.326-2.203,7.392-5.249
		l-0.795-0.301C21.55,109.155,18.955,111.102,15.919,111.102z M10.489,104.805l-0.959-0.175c-0.486,0.371-1.039,0.21-1.215-0.344
		h2.395v1.525h1.099v-0.721c0.138,0.78,1.142,1.044,1.684,0.462c0,0.171-0.02,0.372-0.072,0.536
		c-0.174,0.421-0.755,0.421-1.056,0.139l-0.683,0.891c0.436,0.348,0.877,0.515,1.44,0.461c0.464-0.047,0.781-0.129,1.135-0.451
		c0.269-0.303,0.436-0.619,0.436-1.026v-3.757h-1.236v2.079c0,0.415-0.55,0.415-0.55,0v-2.079H11.81v-1.387h-1.099v2.464
		c-0.411-0.804-1.109-1.219-1.992-1.094c-0.634,0.143-1.101,0.497-1.345,1.094c-0.22-0.708-0.746-1.084-1.468-1.122
		c-0.765,0-1.34,0.378-1.57,1.122c-0.386-0.858-1.169-1.273-2.09-1.062c-0.553,0.175-0.873,0.468-1.148,0.987v-2.389H0v4.852h1.098
		v-1.05c0.412,0.666,0.919,1.033,1.655,1.048c0.784-0.047,1.23-0.422,1.641-1.123v1.125h1.099v-2.079c0-0.416,0.687-0.416,0.687,0
		v2.079h1.236v-1.057c0.138,0.575,0.633,0.923,1.241,1.08C9.985,105.96,10.482,105.038,10.489,104.805
		C10.489,104.805,10.482,105.038,10.489,104.805z M2.685,104.785c-0.405,0-0.733-0.333-0.733-0.742c0-0.407,0.328-0.74,0.733-0.74
		c0.404,0,0.733,0.333,0.733,0.74C3.418,104.452,3.089,104.785,2.685,104.785z M9.715,103.871H8.291
		C8.511,103.178,9.486,103.178,9.715,103.871z M31.957,104.48l-0.052,0.046c-0.206,0.169-0.512,0.092-0.618-0.141
		c-0.11-0.333-0.053-0.654-0.053-1.07h0.763v-0.97h-0.824v-0.694h-1.099v1.771c-0.137-0.49-0.486-0.772-0.965-0.994
		c-0.959-0.343-1.867,0.061-2.289,0.994c-0.167-0.49-0.413-0.79-0.881-1.012c-0.927-0.328-1.819,0.061-2.141,1.012
		c-0.255-0.597-0.617-0.911-1.251-1.087c-0.854-0.143-1.537,0.233-1.949,1.012v-2.389h-1.236v2.389
		c-0.137-0.293-0.283-0.501-0.534-0.708c-1.188-0.869-2.762-0.003-2.762,1.46v3.099h1.186c0-0.277-0.036-1.525-0.036-1.525
		l0.095,0.054c0.864,0.222,1.776-0.219,2.05-0.901v0.986h1.236v-0.986c0.274,0.715,0.965,1.126,1.754,1.069
		c0.365,0.024,0.668-0.924,0.669-0.653l-0.002,0.708h0.775l1.062-0.074v-2.148c0-0.447,0.758-0.518,0.796-0.061
		c0.009,0.703,0.039,1.451,0.039,2.144h1.087v-1.057c0.274,0.48,0.515,0.758,0.979,0.987c0.918,0.303,1.889,0.155,2.247-0.976
		l-0.962-0.188c-0.222,0.337-1.011,0.403-1.263-0.291h2.335c0,0.554,0.011,1.005,0.507,1.37c0.497,0.365,1.389,0.029,1.378-0.207
		L31.957,104.48z M17.888,104.805c-0.404,0-0.734-0.334-0.734-0.741c0-0.406,0.33-0.741,0.734-0.741s0.733,0.335,0.733,0.741
		C18.622,104.471,18.292,104.805,17.888,104.805z M22.168,104.805c-0.404,0-0.733-0.334-0.733-0.741
		c0-0.406,0.328-0.741,0.733-0.741c0.404,0,0.733,0.335,0.733,0.741C22.902,104.471,22.572,104.805,22.168,104.805z M27.772,103.871
		c0.191-0.694,1.182-0.694,1.404,0H27.772z M15.925,96.915c3.045,0,5.629,1.951,6.589,4.725l0.401-0.14l0.398-0.141
		C22.264,98.22,19.355,96,15.922,96c-3.412,0-6.326,2.244-7.391,5.347l0.796,0.305C10.293,98.897,12.889,96.915,15.925,96.915z"/>
	<path id="lp-logo--white" sketch:type="MSShapeGroup" fill="#FFFFFF" d="M31.067,82.763v-0.599h0.176l0.212,0.424
		c0.02,0.04,0.034,0.069,0.042,0.089c0.01-0.022,0.025-0.054,0.049-0.097l0.217-0.417h0.155v0.599h-0.115v-0.502l-0.262,0.502
		h-0.105l-0.257-0.509v0.509H31.067z M30.534,82.763v-0.528H30.24v-0.071h0.708v0.071h-0.294v0.528H30.534z M15.919,87.102
		c-3.045,0-5.628-1.917-6.589-4.639L8.929,82.6l-0.398,0.138C9.579,85.82,12.49,88,15.921,88c3.413,0,6.326-2.203,7.392-5.249
		l-0.795-0.301C21.55,85.155,18.955,87.102,15.919,87.102z M10.489,80.805L9.531,80.63c-0.486,0.371-1.039,0.21-1.215-0.344h2.395
		v1.525h1.099v-0.721c0.138,0.78,1.142,1.044,1.684,0.462c0,0.171-0.02,0.372-0.072,0.536c-0.174,0.421-0.755,0.421-1.056,0.139
		l-0.683,0.891c0.436,0.348,0.877,0.515,1.44,0.461c0.464-0.047,0.781-0.129,1.135-0.451c0.269-0.303,0.436-0.619,0.436-1.026
		v-3.757h-1.236v2.079c0,0.415-0.55,0.415-0.55,0v-2.079H11.81v-1.387h-1.099v2.464c-0.411-0.804-1.109-1.219-1.992-1.094
		c-0.634,0.143-1.101,0.497-1.345,1.094c-0.22-0.708-0.746-1.084-1.468-1.122c-0.765,0-1.34,0.378-1.57,1.122
		c-0.386-0.858-1.169-1.273-2.09-1.062c-0.553,0.175-0.873,0.468-1.148,0.987v-2.389H0v4.852h1.098v-1.05
		c0.412,0.666,0.919,1.033,1.655,1.048c0.784-0.047,1.23-0.422,1.641-1.123v1.125h1.099v-2.079c0-0.416,0.687-0.416,0.687,0v2.079
		h1.236v-1.057c0.138,0.575,0.633,0.923,1.241,1.08C9.985,81.96,10.482,81.038,10.489,80.805
		C10.489,80.805,10.482,81.038,10.489,80.805z M2.685,80.785c-0.405,0-0.733-0.333-0.733-0.742c0-0.407,0.328-0.74,0.733-0.74
		c0.404,0,0.733,0.333,0.733,0.74C3.418,80.452,3.089,80.785,2.685,80.785z M9.715,79.871H8.291
		C8.511,79.178,9.486,79.178,9.715,79.871z M31.957,80.48l-0.052,0.046c-0.206,0.169-0.512,0.092-0.618-0.141
		c-0.11-0.333-0.053-0.654-0.053-1.07h0.763v-0.97h-0.824v-0.694h-1.099v1.771c-0.137-0.49-0.486-0.772-0.965-0.994
		c-0.959-0.343-1.867,0.061-2.289,0.994c-0.167-0.49-0.413-0.79-0.881-1.012c-0.927-0.328-1.819,0.061-2.141,1.012
		c-0.255-0.597-0.617-0.911-1.251-1.087c-0.854-0.143-1.537,0.233-1.949,1.012v-2.389h-1.236v2.389
		c-0.137-0.293-0.283-0.501-0.534-0.708c-1.188-0.869-2.762-0.003-2.762,1.46v3.099h1.186c0-0.277-0.036-1.525-0.036-1.525
		l0.095,0.054c0.864,0.222,1.776-0.219,2.05-0.901v0.986h1.236v-0.986c0.274,0.715,0.965,1.126,1.754,1.069
		c0.365,0.024,0.668-0.924,0.669-0.653l-0.002,0.708h0.775l1.062-0.074v-2.148c0-0.447,0.758-0.518,0.796-0.061
		c0.009,0.703,0.039,1.451,0.039,2.144h1.087v-1.057c0.274,0.48,0.515,0.758,0.979,0.987c0.918,0.303,1.889,0.155,2.247-0.976
		l-0.962-0.188c-0.222,0.337-1.011,0.403-1.263-0.291h2.335c0,0.554,0.011,1.005,0.507,1.37c0.497,0.365,1.389,0.029,1.378-0.207
		L31.957,80.48z M17.888,80.805c-0.404,0-0.734-0.334-0.734-0.741c0-0.406,0.33-0.741,0.734-0.741s0.733,0.335,0.733,0.741
		C18.622,80.471,18.292,80.805,17.888,80.805z M22.168,80.805c-0.404,0-0.733-0.334-0.733-0.741c0-0.406,0.328-0.741,0.733-0.741
		c0.404,0,0.733,0.335,0.733,0.741C22.902,80.471,22.572,80.805,22.168,80.805z M27.772,79.871c0.191-0.694,1.182-0.694,1.404,0
		H27.772z M15.925,72.915c3.045,0,5.629,1.951,6.589,4.725l0.401-0.14l0.398-0.141C22.264,74.22,19.355,72,15.922,72
		c-3.412,0-6.326,2.244-7.391,5.347l0.796,0.305C10.293,74.897,12.889,72.915,15.925,72.915z"/>
	<path id="lp-logo--subdued-grey" sketch:type="MSShapeGroup" fill="#E5EDF5" d="M31.067,58.763v-0.599h0.176l0.212,0.424
		c0.02,0.04,0.034,0.069,0.042,0.089c0.01-0.022,0.025-0.054,0.049-0.097l0.217-0.417h0.155v0.599h-0.115v-0.502l-0.262,0.502
		h-0.105l-0.257-0.509v0.509H31.067z M30.534,58.763v-0.528H30.24v-0.071h0.708v0.071h-0.294v0.528H30.534z M15.919,63.102
		c-3.045,0-5.628-1.917-6.589-4.639L8.929,58.6l-0.398,0.138C9.579,61.82,12.49,64,15.921,64c3.413,0,6.326-2.203,7.392-5.249
		l-0.795-0.301C21.55,61.155,18.955,63.102,15.919,63.102z M10.489,56.805L9.531,56.63c-0.486,0.371-1.039,0.21-1.215-0.344h2.395
		v1.525h1.099v-0.721c0.138,0.78,1.142,1.044,1.684,0.462c0,0.171-0.02,0.372-0.072,0.536c-0.174,0.421-0.755,0.421-1.056,0.139
		l-0.683,0.891c0.436,0.348,0.877,0.515,1.44,0.461c0.464-0.047,0.781-0.129,1.135-0.451c0.269-0.303,0.436-0.619,0.436-1.026
		v-3.757h-1.236v2.079c0,0.415-0.55,0.415-0.55,0v-2.079H11.81v-1.387h-1.099v2.464c-0.411-0.804-1.109-1.219-1.992-1.094
		c-0.634,0.143-1.101,0.497-1.345,1.094c-0.22-0.708-0.746-1.084-1.468-1.122c-0.765,0-1.34,0.378-1.57,1.122
		c-0.386-0.858-1.169-1.273-2.09-1.062c-0.553,0.175-0.873,0.468-1.148,0.987v-2.389H0v4.852h1.098v-1.05
		c0.412,0.666,0.919,1.033,1.655,1.048c0.784-0.047,1.23-0.422,1.641-1.123v1.125h1.099v-2.079c0-0.416,0.687-0.416,0.687,0v2.079
		h1.236v-1.057c0.138,0.575,0.633,0.923,1.241,1.08C9.985,57.96,10.482,57.038,10.489,56.805
		C10.489,56.805,10.482,57.038,10.489,56.805z M2.685,56.785c-0.405,0-0.733-0.333-0.733-0.742c0-0.407,0.328-0.74,0.733-0.74
		c0.404,0,0.733,0.333,0.733,0.74C3.418,56.452,3.089,56.785,2.685,56.785z M9.715,55.871H8.291
		C8.511,55.178,9.486,55.178,9.715,55.871z M31.957,56.48l-0.052,0.046c-0.206,0.169-0.512,0.092-0.618-0.141
		c-0.11-0.333-0.053-0.654-0.053-1.07h0.763v-0.97h-0.824v-0.694h-1.099v1.771c-0.137-0.49-0.486-0.772-0.965-0.994
		c-0.959-0.343-1.867,0.061-2.289,0.994c-0.167-0.49-0.413-0.79-0.881-1.012c-0.927-0.328-1.819,0.061-2.141,1.012
		c-0.255-0.597-0.617-0.911-1.251-1.087c-0.854-0.143-1.537,0.233-1.949,1.012v-2.389h-1.236v2.389
		c-0.137-0.293-0.283-0.501-0.534-0.708c-1.188-0.869-2.762-0.003-2.762,1.46v3.099h1.186c0-0.277-0.036-1.525-0.036-1.525
		l0.095,0.054c0.864,0.222,1.776-0.219,2.05-0.901v0.986h1.236v-0.986c0.274,0.715,0.965,1.126,1.754,1.069
		c0.365,0.024,0.668-0.924,0.669-0.653l-0.002,0.708h0.775l1.062-0.074v-2.148c0-0.447,0.758-0.518,0.796-0.061
		c0.009,0.703,0.039,1.451,0.039,2.144h1.087v-1.057c0.274,0.48,0.515,0.758,0.979,0.987c0.918,0.303,1.889,0.155,2.247-0.976
		l-0.962-0.188c-0.222,0.337-1.011,0.403-1.263-0.291h2.335c0,0.554,0.011,1.005,0.507,1.37c0.497,0.365,1.389,0.029,1.378-0.207
		L31.957,56.48z M17.888,56.805c-0.404,0-0.734-0.334-0.734-0.741c0-0.406,0.33-0.741,0.734-0.741s0.733,0.335,0.733,0.741
		C18.622,56.471,18.292,56.805,17.888,56.805z M22.168,56.805c-0.404,0-0.733-0.334-0.733-0.741c0-0.406,0.328-0.741,0.733-0.741
		c0.404,0,0.733,0.335,0.733,0.741C22.902,56.471,22.572,56.805,22.168,56.805z M27.772,55.871c0.191-0.694,1.182-0.694,1.404,0
		H27.772z M15.925,48.915c3.045,0,5.629,1.951,6.589,4.725l0.401-0.14l0.398-0.141C22.264,50.22,19.355,48,15.922,48
		c-3.412,0-6.326,2.244-7.391,5.347l0.796,0.305C10.293,50.897,12.889,48.915,15.925,48.915z"/>
	<path id="lp-logo--body-grey" sketch:type="MSShapeGroup" fill="#67737B" d="M31.067,34.763v-0.599h0.176l0.212,0.424
		c0.02,0.04,0.034,0.069,0.042,0.089c0.01-0.022,0.025-0.054,0.049-0.097l0.217-0.417h0.155v0.599h-0.115v-0.502l-0.262,0.502
		h-0.105l-0.257-0.509v0.509H31.067z M30.534,34.763v-0.528H30.24v-0.071h0.708v0.071h-0.294v0.528H30.534z M15.919,39.102
		c-3.045,0-5.628-1.917-6.589-4.639L8.929,34.6l-0.398,0.138C9.579,37.82,12.49,40,15.921,40c3.413,0,6.326-2.203,7.392-5.249
		l-0.795-0.301C21.55,37.155,18.955,39.102,15.919,39.102z M10.489,32.805L9.531,32.63c-0.486,0.371-1.039,0.21-1.215-0.344h2.395
		v1.525h1.099v-0.721c0.138,0.78,1.142,1.044,1.684,0.462c0,0.171-0.02,0.372-0.072,0.536c-0.174,0.421-0.755,0.421-1.056,0.139
		l-0.683,0.891c0.436,0.348,0.877,0.515,1.44,0.461c0.464-0.047,0.781-0.129,1.135-0.451c0.269-0.303,0.436-0.619,0.436-1.026
		v-3.757h-1.236v2.079c0,0.415-0.55,0.415-0.55,0v-2.079H11.81v-1.387h-1.099v2.464c-0.411-0.804-1.109-1.219-1.992-1.094
		c-0.634,0.143-1.101,0.497-1.345,1.094c-0.22-0.708-0.746-1.084-1.468-1.122c-0.765,0-1.34,0.378-1.57,1.122
		c-0.386-0.858-1.169-1.273-2.09-1.062c-0.553,0.175-0.873,0.468-1.148,0.987v-2.389H0v4.852h1.098v-1.05
		c0.412,0.666,0.919,1.033,1.655,1.048c0.784-0.047,1.23-0.422,1.641-1.123v1.125h1.099v-2.079c0-0.416,0.687-0.416,0.687,0v2.079
		h1.236v-1.057c0.138,0.575,0.633,0.923,1.241,1.08C9.985,33.96,10.482,33.038,10.489,32.805
		C10.489,32.805,10.482,33.038,10.489,32.805z M2.685,32.785c-0.405,0-0.733-0.333-0.733-0.742c0-0.407,0.328-0.74,0.733-0.74
		c0.404,0,0.733,0.333,0.733,0.74C3.418,32.452,3.089,32.785,2.685,32.785z M9.715,31.871H8.291
		C8.511,31.178,9.486,31.178,9.715,31.871z M31.957,32.48l-0.052,0.046c-0.206,0.169-0.512,0.092-0.618-0.141
		c-0.11-0.333-0.053-0.654-0.053-1.07h0.763v-0.97h-0.824v-0.694h-1.099v1.771c-0.137-0.49-0.486-0.772-0.965-0.994
		c-0.959-0.343-1.867,0.061-2.289,0.994c-0.167-0.49-0.413-0.79-0.881-1.012c-0.927-0.328-1.819,0.061-2.141,1.012
		c-0.255-0.597-0.617-0.911-1.251-1.087c-0.854-0.143-1.537,0.233-1.949,1.012v-2.389h-1.236v2.389
		c-0.137-0.293-0.283-0.501-0.534-0.708c-1.188-0.869-2.762-0.003-2.762,1.46v3.099h1.186c0-0.277-0.036-1.525-0.036-1.525
		l0.095,0.054c0.864,0.222,1.776-0.219,2.05-0.901v0.986h1.236v-0.986c0.274,0.715,0.965,1.126,1.754,1.069
		c0.365,0.024,0.668-0.924,0.669-0.653l-0.002,0.708h0.775l1.062-0.074v-2.148c0-0.447,0.758-0.518,0.796-0.061
		c0.009,0.703,0.039,1.451,0.039,2.144h1.087v-1.057c0.274,0.48,0.515,0.758,0.979,0.987c0.918,0.303,1.889,0.155,2.247-0.976
		l-0.962-0.188c-0.222,0.337-1.011,0.403-1.263-0.291h2.335c0,0.554,0.011,1.005,0.507,1.37c0.497,0.365,1.389,0.029,1.378-0.207
		L31.957,32.48z M17.888,32.805c-0.404,0-0.734-0.334-0.734-0.741c0-0.406,0.33-0.741,0.734-0.741s0.733,0.335,0.733,0.741
		C18.622,32.471,18.292,32.805,17.888,32.805z M22.168,32.805c-0.404,0-0.733-0.334-0.733-0.741c0-0.406,0.328-0.741,0.733-0.741
		c0.404,0,0.733,0.335,0.733,0.741C22.902,32.471,22.572,32.805,22.168,32.805z M27.772,31.871c0.191-0.694,1.182-0.694,1.404,0
		H27.772z M15.925,24.915c3.045,0,5.629,1.951,6.589,4.725l0.401-0.14l0.398-0.141C22.264,26.22,19.355,24,15.922,24
		c-3.412,0-6.326,2.244-7.391,5.347l0.796,0.305C10.293,26.897,12.889,24.915,15.925,24.915z"/>
	<path id="lp-logo--title-grey" sketch:type="MSShapeGroup" fill="#3A434E" d="M31.067,10.763v-0.599h0.176l0.212,0.424
		c0.02,0.04,0.034,0.069,0.042,0.089c0.01-0.022,0.025-0.054,0.049-0.097l0.217-0.417h0.155v0.599h-0.115v-0.502l-0.262,0.502
		h-0.105l-0.257-0.509v0.509H31.067z M30.534,10.763v-0.528H30.24v-0.071h0.708v0.071h-0.294v0.528H30.534z M15.919,15.102
		c-3.045,0-5.628-1.917-6.589-4.639L8.929,10.6l-0.398,0.138C9.579,13.82,12.49,16,15.921,16c3.413,0,6.326-2.203,7.392-5.249
		l-0.795-0.301C21.55,13.155,18.955,15.102,15.919,15.102z M10.489,8.805L9.531,8.63C9.045,9.001,8.492,8.84,8.316,8.285h2.395V9.81
		h1.099V9.089c0.138,0.78,1.142,1.044,1.684,0.462c0,0.171-0.02,0.372-0.072,0.536c-0.174,0.421-0.755,0.421-1.056,0.139
		l-0.683,0.891c0.436,0.348,0.877,0.515,1.44,0.461c0.464-0.047,0.781-0.129,1.135-0.451c0.269-0.303,0.436-0.619,0.436-1.026V6.345
		h-1.236v2.079c0,0.415-0.55,0.415-0.55,0V6.345H11.81V4.958h-1.099v2.464C10.3,6.618,9.602,6.203,8.719,6.328
		C8.085,6.471,7.619,6.825,7.375,7.422C7.155,6.714,6.629,6.338,5.906,6.3c-0.765,0-1.34,0.378-1.57,1.122
		C3.95,6.564,3.167,6.149,2.246,6.36C1.693,6.535,1.373,6.829,1.098,7.347V4.958H0V9.81h1.098V8.76
		C1.51,9.426,2.017,9.793,2.753,9.809c0.784-0.047,1.23-0.422,1.641-1.123V9.81h1.099V7.731c0-0.416,0.687-0.416,0.687,0V9.81h1.236
		V8.753c0.138,0.575,0.633,0.923,1.241,1.08C9.985,9.96,10.482,9.038,10.489,8.805C10.489,8.805,10.482,9.038,10.489,8.805z
		 M2.685,8.785c-0.405,0-0.733-0.333-0.733-0.742c0-0.407,0.328-0.74,0.733-0.74c0.404,0,0.733,0.333,0.733,0.74
		C3.418,8.452,3.089,8.785,2.685,8.785z M9.715,7.871H8.291C8.511,7.178,9.486,7.178,9.715,7.871z M31.957,8.48l-0.052,0.046
		c-0.206,0.169-0.512,0.092-0.618-0.141c-0.11-0.333-0.053-0.654-0.053-1.07h0.763v-0.97h-0.824V5.651h-1.099v1.771
		c-0.137-0.49-0.486-0.772-0.965-0.994c-0.959-0.343-1.867,0.061-2.289,0.994c-0.167-0.49-0.413-0.79-0.881-1.012
		c-0.927-0.328-1.819,0.061-2.141,1.012c-0.255-0.597-0.617-0.911-1.251-1.087c-0.854-0.143-1.537,0.233-1.949,1.012V4.958h-1.236
		v2.389c-0.137-0.293-0.283-0.501-0.534-0.708c-1.188-0.869-2.762-0.003-2.762,1.46v3.099h1.186c0-0.277-0.036-1.525-0.036-1.525
		l0.095,0.054c0.864,0.222,1.776-0.219,2.05-0.901V9.81h1.236V8.825c0.274,0.715,0.965,1.126,1.754,1.069
		c0.365,0.024,0.668-0.924,0.669-0.653L23.02,9.949h0.775l1.062-0.074V7.727c0-0.447,0.758-0.518,0.796-0.061
		c0.009,0.703,0.039,1.451,0.039,2.144h1.087V8.753c0.274,0.48,0.515,0.758,0.979,0.987c0.918,0.303,1.889,0.155,2.247-0.976
		l-0.962-0.188c-0.222,0.337-1.011,0.403-1.263-0.291h2.335c0,0.554,0.011,1.005,0.507,1.37c0.497,0.365,1.389,0.029,1.378-0.207
		L31.957,8.48z M17.888,8.805c-0.404,0-0.734-0.334-0.734-0.741c0-0.406,0.33-0.741,0.734-0.741s0.733,0.335,0.733,0.741
		C18.622,8.471,18.292,8.805,17.888,8.805z M22.168,8.805c-0.404,0-0.733-0.334-0.733-0.741c0-0.406,0.328-0.741,0.733-0.741
		c0.404,0,0.733,0.335,0.733,0.741C22.902,8.471,22.572,8.805,22.168,8.805z M27.772,7.871c0.191-0.694,1.182-0.694,1.404,0H27.772z
		 M15.925,0.915c3.045,0,5.629,1.951,6.589,4.725l0.401-0.14l0.398-0.141C22.264,2.22,19.355,0,15.922,0
		c-3.412,0-6.326,2.244-7.391,5.347l0.796,0.305C10.293,2.897,12.889,0.915,15.925,0.915z"/>
</g>
</svg>
