<?xml version="1.0" encoding="UTF-8" standalone="no"?>
<svg width="32px" height="232px" viewBox="0 0 32 232" version="1.1" xmlns="http://www.w3.org/2000/svg" xmlns:xlink="http://www.w3.org/1999/xlink" xmlns:sketch="http://www.bohemiancoding.com/sketch/ns">
    <title>lp-logo</title>
    <description>Created with Sketch (http://www.bohemiancoding.com/sketch)</description>
    <defs></defs>
    <g id="Brand" stroke="none" stroke-width="1" fill="none" fill-rule="evenodd" sketch:type="MSPage">
        <path d="M31.0667471,178.76288 L31.0667471,178.16384 L31.2429817,178.16384 L31.4553508,178.58816 C31.4756368,178.62784 31.4895834,178.65728 31.4978246,178.67712 C31.5079676,178.65472 31.5231821,178.62336 31.5466378,178.58048 L31.7640784,178.16384 L31.9187592,178.16384 L31.9187592,178.76288 L31.8040165,178.76288 L31.8040165,178.26112 L31.5422003,178.76288 L31.4376006,178.76288 L31.1808558,178.25408 L31.1808558,178.76288 L31.0667471,178.76288 Z M30.5342394,178.76288 L30.5342394,178.23488 L30.2400924,178.23488 L30.2400924,178.16384 L30.9482007,178.16384 L30.9482007,178.23488 L30.6540537,178.23488 L30.6540537,178.76288 L30.5342394,178.76288 Z M15.9188076,183.10208 C12.8733713,183.10208 10.2907094,181.18528 9.3302939,178.46272 L8.92901139,178.59968 L8.53089856,178.73792 C9.57943139,181.82016 12.489839,184 15.9207094,184 C19.3338296,184 22.2467729,181.79712 23.3124221,178.75136 L22.5174643,178.45056 C21.5500755,181.1552 18.9547349,183.10208 15.9188076,183.10208 Z M10.4891319,176.80512 L9.53061819,176.62976 C9.04502198,177.00096 8.49159443,176.83968 8.31599371,176.28544 L10.71101,176.28544 L10.71101,177.81056 L11.8096239,177.81056 L11.8096239,177.08928 C11.9471884,177.8688 12.9513456,178.13376 13.4933623,177.55136 C13.4933623,177.72224 13.4737102,177.92384 13.4217273,178.08768 C13.2480284,178.5088 12.6667076,178.5088 12.3655872,178.22656 L11.6828364,179.11744 C12.1183516,179.46496 12.5595721,179.63264 13.1225088,179.57888 C13.5865511,179.53216 13.9035199,179.4496 14.257891,179.12768 C14.5266806,178.82432 14.6934062,178.5088 14.6934062,178.10176 L14.6934062,174.34496 L13.4578618,174.34496 L13.4578618,176.42432 C13.4578618,176.83968 12.9082378,176.83968 12.9082378,176.42432 L12.9082378,174.34496 L11.8096239,174.34496 L11.8096239,172.95808 L10.71101,172.95808 L10.71101,175.42208 C10.2995845,174.6176 9.60225314,174.20288 8.71917804,174.32768 C8.08524042,174.47104 7.61866233,174.82496 7.37459634,175.42208 C7.15461999,174.71424 6.6290857,174.33856 5.90639681,174.30016 C5.14123411,174.30016 4.56688662,174.6784 4.33613333,175.42208 C3.95006532,174.56448 3.16715235,174.14912 2.24604099,174.36032 C1.69324739,174.53504 1.37310889,174.8288 1.09797996,175.3472 L1.09797996,172.95808 L0,172.95808 L0,177.81056 L1.09797996,177.81056 L1.09797996,176.76032 C1.51003941,177.42592 2.01655557,177.79328 2.75255715,177.80864 C3.53610405,177.76192 3.98239613,177.38624 4.39382165,176.68544 L4.39382165,177.81056 L5.49306949,177.81056 L5.49306949,175.7312 C5.49306949,175.3152 6.17962393,175.3152 6.17962393,175.7312 L6.17962393,177.81056 L7.41516835,177.81056 L7.41516835,176.75328 C7.55273282,177.32864 8.04847204,177.67616 8.65578428,177.8336 C9.98451753,177.96032 10.4821586,177.03808 10.4891319,176.80512 C10.4891319,176.80512 10.4821586,177.03808 10.4891319,176.80512 Z M2.68472582,176.78528 C2.27963968,176.78528 1.95189393,176.45184 1.95189393,176.04352 C1.95189393,175.63648 2.27963968,175.30304 2.68472582,175.30304 C3.08917803,175.30304 3.41755771,175.63648 3.41755771,176.04352 C3.41755771,176.45184 3.08917803,176.78528 2.68472582,176.78528 Z M9.71509404,175.87136 L8.29063621,175.87136 C8.5112465,175.1776 9.48560862,175.1776 9.71509404,175.87136 Z M31.9574294,176.48 L31.9054465,176.52608 C31.6994168,176.69504 31.3938589,176.61824 31.2873573,176.38528 C31.1770522,176.05248 31.2341066,175.7312 31.2341066,175.3152 L31.9967335,175.3152 L31.9967335,174.34496 L31.1726146,174.34496 L31.1726146,173.6512 L30.0740007,173.6512 L30.0740007,175.42208 C29.9370702,174.93248 29.5884045,174.6496 29.1091477,174.42816 C28.1500001,174.08512 27.2422014,174.48896 26.8199989,175.42208 C26.6532733,174.93248 26.4073055,174.63232 25.9394596,174.4096 C25.0120088,174.08128 24.1206925,174.47104 23.7986522,175.42208 C23.5431754,174.82496 23.1818309,174.51136 22.5478933,174.33472 C21.6939793,174.192 21.0105946,174.56768 20.5985351,175.3472 L20.5985351,172.95808 L19.3623568,172.95808 L19.3623568,175.3472 C19.2254262,175.05408 19.0789866,174.84608 18.8285813,174.63872 C17.6405822,173.7696 16.0665151,174.63616 16.0665151,176.09856 L16.0665151,179.19744 L17.2526124,179.19744 C17.2526124,178.92032 17.2171118,177.67232 17.2171118,177.67232 L17.3122025,177.72608 C18.1762595,177.94816 19.0878618,177.5072 19.3623568,176.82496 L19.3623568,177.81056 L20.5985351,177.81056 L20.5985351,176.82496 C20.8730301,177.53984 21.5633882,177.95136 22.3526405,177.89376 C22.7177886,177.91744 23.0208108,176.97024 23.0214447,177.24096 L23.0195429,177.94944 L23.7942147,177.94944 L24.8560602,177.87584 L24.8560602,175.72736 C24.8560602,175.28064 25.6142496,175.20896 25.6522858,175.66656 C25.661161,176.36928 25.69159,177.11744 25.69159,177.81056 L26.778793,177.81056 L26.778793,176.75328 C27.052654,177.23328 27.2935503,177.51104 27.7582266,177.74016 C28.6761683,178.04288 29.6467268,177.89504 30.0049015,176.76416 L29.0425842,176.576 C28.8207061,176.91264 28.0314537,176.97856 27.7797805,176.28544 L30.1145727,176.28544 C30.1145727,176.83968 30.1259836,177.29088 30.6217228,177.65568 C31.1187299,178.02112 32.0106802,177.68512 31.9999032,177.44832 L31.9574294,176.48 Z M17.8884518,176.80512 C17.4846335,176.80512 17.154352,176.47104 17.154352,176.064 C17.154352,175.6576 17.4846335,175.32288 17.8884518,175.32288 C18.2922701,175.32288 18.6219176,175.6576 18.6219176,176.064 C18.6219176,176.47104 18.2922701,176.80512 17.8884518,176.80512 Z M22.1681647,176.80512 C21.7637125,176.80512 21.4353328,176.47104 21.4353328,176.064 C21.4353328,175.6576 21.7637125,175.32288 22.1681647,175.32288 C22.5719829,175.32288 22.9016305,175.6576 22.9016305,176.064 C22.9016305,176.47104 22.5719829,176.80512 22.1681647,176.80512 Z M27.7721732,175.87136 C27.9636224,175.1776 28.9544669,175.1776 29.1763451,175.87136 L27.7721732,175.87136 Z M15.924513,168.9152 C18.9693154,168.9152 21.5532452,170.86656 22.5136607,173.64032 L22.9143092,173.5008 L23.3124221,173.35936 C22.2638892,170.22016 19.3547495,168 15.9219773,168 C12.5094911,168 9.59591377,170.24384 8.53089856,173.34656 L9.32649028,173.65184 C10.2932452,170.89728 12.8885858,168.9152 15.924513,168.9152 Z M15.924513,168.9152" id="lp-logo--lp-blue" fill="#1D4F8D" sketch:type="MSShapeGroup"></path>
        <path d="M31.0667471,138.76288 L31.0667471,138.16384 L31.2429817,138.16384 L31.4553508,138.58816 C31.4756368,138.62784 31.4895834,138.65728 31.4978246,138.67712 C31.5079676,138.65472 31.5231821,138.62336 31.5466378,138.58048 L31.7640784,138.16384 L31.9187592,138.16384 L31.9187592,138.76288 L31.8040165,138.76288 L31.8040165,138.26112 L31.5422003,138.76288 L31.4376006,138.76288 L31.1808558,138.25408 L31.1808558,138.76288 L31.0667471,138.76288 Z M30.5342394,138.76288 L30.5342394,138.23488 L30.2400924,138.23488 L30.2400924,138.16384 L30.9482007,138.16384 L30.9482007,138.23488 L30.6540537,138.23488 L30.6540537,138.76288 L30.5342394,138.76288 Z M15.9188076,143.10208 C12.8733713,143.10208 10.2907094,141.18528 9.3302939,138.46272 L8.92901139,138.59968 L8.53089856,138.73792 C9.57943139,141.82016 12.489839,144 15.9207094,144 C19.3338296,144 22.2467729,141.79712 23.3124221,138.75136 L22.5174643,138.45056 C21.5500755,141.1552 18.9547349,143.10208 15.9188076,143.10208 Z M10.4891319,136.80512 L9.53061819,136.62976 C9.04502198,137.00096 8.49159443,136.83968 8.31599371,136.28544 L10.71101,136.28544 L10.71101,137.81056 L11.8096239,137.81056 L11.8096239,137.08928 C11.9471884,137.8688 12.9513456,138.13376 13.4933623,137.55136 C13.4933623,137.72224 13.4737102,137.92384 13.4217273,138.08768 C13.2480284,138.5088 12.6667076,138.5088 12.3655872,138.22656 L11.6828364,139.11744 C12.1183516,139.46496 12.5595721,139.63264 13.1225088,139.57888 C13.5865511,139.53216 13.9035199,139.4496 14.257891,139.12768 C14.5266806,138.82432 14.6934062,138.5088 14.6934062,138.10176 L14.6934062,134.34496 L13.4578618,134.34496 L13.4578618,136.42432 C13.4578618,136.83968 12.9082378,136.83968 12.9082378,136.42432 L12.9082378,134.34496 L11.8096239,134.34496 L11.8096239,132.95808 L10.71101,132.95808 L10.71101,135.42208 C10.2995845,134.6176 9.60225314,134.20288 8.71917804,134.32768 C8.08524042,134.47104 7.61866233,134.82496 7.37459634,135.42208 C7.15461999,134.71424 6.6290857,134.33856 5.90639681,134.30016 C5.14123411,134.30016 4.56688662,134.6784 4.33613333,135.42208 C3.95006532,134.56448 3.16715235,134.14912 2.24604099,134.36032 C1.69324739,134.53504 1.37310889,134.8288 1.09797996,135.3472 L1.09797996,132.95808 L0,132.95808 L0,137.81056 L1.09797996,137.81056 L1.09797996,136.76032 C1.51003941,137.42592 2.01655557,137.79328 2.75255715,137.80864 C3.53610405,137.76192 3.98239613,137.38624 4.39382165,136.68544 L4.39382165,137.81056 L5.49306949,137.81056 L5.49306949,135.7312 C5.49306949,135.3152 6.17962393,135.3152 6.17962393,135.7312 L6.17962393,137.81056 L7.41516835,137.81056 L7.41516835,136.75328 C7.55273282,137.32864 8.04847204,137.67616 8.65578428,137.8336 C9.98451753,137.96032 10.4821586,137.03808 10.4891319,136.80512 C10.4891319,136.80512 10.4821586,137.03808 10.4891319,136.80512 Z M2.68472582,136.78528 C2.27963968,136.78528 1.95189393,136.45184 1.95189393,136.04352 C1.95189393,135.63648 2.27963968,135.30304 2.68472582,135.30304 C3.08917803,135.30304 3.41755771,135.63648 3.41755771,136.04352 C3.41755771,136.45184 3.08917803,136.78528 2.68472582,136.78528 Z M9.71509404,135.87136 L8.29063621,135.87136 C8.5112465,135.1776 9.48560862,135.1776 9.71509404,135.87136 Z M31.9574294,136.48 L31.9054465,136.52608 C31.6994168,136.69504 31.3938589,136.61824 31.2873573,136.38528 C31.1770522,136.05248 31.2341066,135.7312 31.2341066,135.3152 L31.9967335,135.3152 L31.9967335,134.34496 L31.1726146,134.34496 L31.1726146,133.6512 L30.0740007,133.6512 L30.0740007,135.42208 C29.9370702,134.93248 29.5884045,134.6496 29.1091477,134.42816 C28.1500001,134.08512 27.2422014,134.48896 26.8199989,135.42208 C26.6532733,134.93248 26.4073055,134.63232 25.9394596,134.4096 C25.0120088,134.08128 24.1206925,134.47104 23.7986522,135.42208 C23.5431754,134.82496 23.1818309,134.51136 22.5478933,134.33472 C21.6939793,134.192 21.0105946,134.56768 20.5985351,135.3472 L20.5985351,132.95808 L19.3623568,132.95808 L19.3623568,135.3472 C19.2254262,135.05408 19.0789866,134.84608 18.8285813,134.63872 C17.6405822,133.7696 16.0665151,134.63616 16.0665151,136.09856 L16.0665151,139.19744 L17.2526124,139.19744 C17.2526124,138.92032 17.2171118,137.67232 17.2171118,137.67232 L17.3122025,137.72608 C18.1762595,137.94816 19.0878618,137.5072 19.3623568,136.82496 L19.3623568,137.81056 L20.5985351,137.81056 L20.5985351,136.82496 C20.8730301,137.53984 21.5633882,137.95136 22.3526405,137.89376 C22.7177886,137.91744 23.0208108,136.97024 23.0214447,137.24096 L23.0195429,137.94944 L23.7942147,137.94944 L24.8560602,137.87584 L24.8560602,135.72736 C24.8560602,135.28064 25.6142496,135.20896 25.6522858,135.66656 C25.661161,136.36928 25.69159,137.11744 25.69159,137.81056 L26.778793,137.81056 L26.778793,136.75328 C27.052654,137.23328 27.2935503,137.51104 27.7582266,137.74016 C28.6761683,138.04288 29.6467268,137.89504 30.0049015,136.76416 L29.0425842,136.576 C28.8207061,136.91264 28.0314537,136.97856 27.7797805,136.28544 L30.1145727,136.28544 C30.1145727,136.83968 30.1259836,137.29088 30.6217228,137.65568 C31.1187299,138.02112 32.0106802,137.68512 31.9999032,137.44832 L31.9574294,136.48 Z M17.8884518,136.80512 C17.4846335,136.80512 17.154352,136.47104 17.154352,136.064 C17.154352,135.6576 17.4846335,135.32288 17.8884518,135.32288 C18.2922701,135.32288 18.6219176,135.6576 18.6219176,136.064 C18.6219176,136.47104 18.2922701,136.80512 17.8884518,136.80512 Z M22.1681647,136.80512 C21.7637125,136.80512 21.4353328,136.47104 21.4353328,136.064 C21.4353328,135.6576 21.7637125,135.32288 22.1681647,135.32288 C22.5719829,135.32288 22.9016305,135.6576 22.9016305,136.064 C22.9016305,136.47104 22.5719829,136.80512 22.1681647,136.80512 Z M27.7721732,135.87136 C27.9636224,135.1776 28.9544669,135.1776 29.1763451,135.87136 L27.7721732,135.87136 Z M15.924513,128.9152 C18.9693154,128.9152 21.5532452,130.86656 22.5136607,133.64032 L22.9143092,133.5008 L23.3124221,133.35936 C22.2638892,130.22016 19.3547495,128 15.9219773,128 C12.5094911,128 9.59591377,130.24384 8.53089856,133.34656 L9.32649028,133.65184 C10.2932452,130.89728 12.8885858,128.9152 15.924513,128.9152 Z M15.924513,128.9152" id="lp-logo--white" fill="#FFFFFF" sketch:type="MSShapeGroup"></path>
        <path d="M31.0667471,98.76288 L31.0667471,98.16384 L31.2429817,98.16384 L31.4553508,98.58816 C31.4756368,98.62784 31.4895834,98.65728 31.4978246,98.67712 C31.5079676,98.65472 31.5231821,98.62336 31.5466378,98.58048 L31.7640784,98.16384 L31.9187592,98.16384 L31.9187592,98.76288 L31.8040165,98.76288 L31.8040165,98.26112 L31.5422003,98.76288 L31.4376006,98.76288 L31.1808558,98.25408 L31.1808558,98.76288 L31.0667471,98.76288 Z M30.5342394,98.76288 L30.5342394,98.23488 L30.2400924,98.23488 L30.2400924,98.16384 L30.9482007,98.16384 L30.9482007,98.23488 L30.6540537,98.23488 L30.6540537,98.76288 L30.5342394,98.76288 Z M15.9188076,103.10208 C12.8733713,103.10208 10.2907094,101.18528 9.3302939,98.46272 L8.92901139,98.59968 L8.53089856,98.73792 C9.57943139,101.82016 12.489839,104 15.9207094,104 C19.3338296,104 22.2467729,101.79712 23.3124221,98.75136 L22.5174643,98.45056 C21.5500755,101.1552 18.9547349,103.10208 15.9188076,103.10208 Z M10.4891319,96.80512 L9.53061819,96.62976 C9.04502198,97.00096 8.49159443,96.83968 8.31599371,96.28544 L10.71101,96.28544 L10.71101,97.81056 L11.8096239,97.81056 L11.8096239,97.08928 C11.9471884,97.8688 12.9513456,98.13376 13.4933623,97.55136 C13.4933623,97.72224 13.4737102,97.92384 13.4217273,98.08768 C13.2480284,98.5088 12.6667076,98.5088 12.3655872,98.22656 L11.6828364,99.11744 C12.1183516,99.46496 12.5595721,99.63264 13.1225088,99.57888 C13.5865511,99.53216 13.9035199,99.4496 14.257891,99.12768 C14.5266806,98.82432 14.6934062,98.5088 14.6934062,98.10176 L14.6934062,94.34496 L13.4578618,94.34496 L13.4578618,96.42432 C13.4578618,96.83968 12.9082378,96.83968 12.9082378,96.42432 L12.9082378,94.34496 L11.8096239,94.34496 L11.8096239,92.95808 L10.71101,92.95808 L10.71101,95.42208 C10.2995845,94.6176 9.60225314,94.20288 8.71917804,94.32768 C8.08524042,94.47104 7.61866233,94.82496 7.37459634,95.42208 C7.15461999,94.71424 6.6290857,94.33856 5.90639681,94.30016 C5.14123411,94.30016 4.56688662,94.6784 4.33613333,95.42208 C3.95006532,94.56448 3.16715235,94.14912 2.24604099,94.36032 C1.69324739,94.53504 1.37310889,94.8288 1.09797996,95.3472 L1.09797996,92.95808 L0,92.95808 L0,97.81056 L1.09797996,97.81056 L1.09797996,96.76032 C1.51003941,97.42592 2.01655557,97.79328 2.75255715,97.80864 C3.53610405,97.76192 3.98239613,97.38624 4.39382165,96.68544 L4.39382165,97.81056 L5.49306949,97.81056 L5.49306949,95.7312 C5.49306949,95.3152 6.17962393,95.3152 6.17962393,95.7312 L6.17962393,97.81056 L7.41516835,97.81056 L7.41516835,96.75328 C7.55273282,97.32864 8.04847204,97.67616 8.65578428,97.8336 C9.98451753,97.96032 10.4821586,97.03808 10.4891319,96.80512 C10.4891319,96.80512 10.4821586,97.03808 10.4891319,96.80512 Z M2.68472582,96.78528 C2.27963968,96.78528 1.95189393,96.45184 1.95189393,96.04352 C1.95189393,95.63648 2.27963968,95.30304 2.68472582,95.30304 C3.08917803,95.30304 3.41755771,95.63648 3.41755771,96.04352 C3.41755771,96.45184 3.08917803,96.78528 2.68472582,96.78528 Z M9.71509404,95.87136 L8.29063621,95.87136 C8.5112465,95.1776 9.48560862,95.1776 9.71509404,95.87136 Z M31.9574294,96.48 L31.9054465,96.52608 C31.6994168,96.69504 31.3938589,96.61824 31.2873573,96.38528 C31.1770522,96.05248 31.2341066,95.7312 31.2341066,95.3152 L31.9967335,95.3152 L31.9967335,94.34496 L31.1726146,94.34496 L31.1726146,93.6512 L30.0740007,93.6512 L30.0740007,95.42208 C29.9370702,94.93248 29.5884045,94.6496 29.1091477,94.42816 C28.1500001,94.08512 27.2422014,94.48896 26.8199989,95.42208 C26.6532733,94.93248 26.4073055,94.63232 25.9394596,94.4096 C25.0120088,94.08128 24.1206925,94.47104 23.7986522,95.42208 C23.5431754,94.82496 23.1818309,94.51136 22.5478933,94.33472 C21.6939793,94.192 21.0105946,94.56768 20.5985351,95.3472 L20.5985351,92.95808 L19.3623568,92.95808 L19.3623568,95.3472 C19.2254262,95.05408 19.0789866,94.84608 18.8285813,94.63872 C17.6405822,93.7696 16.0665151,94.63616 16.0665151,96.09856 L16.0665151,99.19744 L17.2526124,99.19744 C17.2526124,98.92032 17.2171118,97.67232 17.2171118,97.67232 L17.3122025,97.72608 C18.1762595,97.94816 19.0878618,97.5072 19.3623568,96.82496 L19.3623568,97.81056 L20.5985351,97.81056 L20.5985351,96.82496 C20.8730301,97.53984 21.5633882,97.95136 22.3526405,97.89376 C22.7177886,97.91744 23.0208108,96.97024 23.0214447,97.24096 L23.0195429,97.94944 L23.7942147,97.94944 L24.8560602,97.87584 L24.8560602,95.72736 C24.8560602,95.28064 25.6142496,95.20896 25.6522858,95.66656 C25.661161,96.36928 25.69159,97.11744 25.69159,97.81056 L26.778793,97.81056 L26.778793,96.75328 C27.052654,97.23328 27.2935503,97.51104 27.7582266,97.74016 C28.6761683,98.04288 29.6467268,97.89504 30.0049015,96.76416 L29.0425842,96.576 C28.8207061,96.91264 28.0314537,96.97856 27.7797805,96.28544 L30.1145727,96.28544 C30.1145727,96.83968 30.1259836,97.29088 30.6217228,97.65568 C31.1187299,98.02112 32.0106802,97.68512 31.9999032,97.44832 L31.9574294,96.48 Z M17.8884518,96.80512 C17.4846335,96.80512 17.154352,96.47104 17.154352,96.064 C17.154352,95.6576 17.4846335,95.32288 17.8884518,95.32288 C18.2922701,95.32288 18.6219176,95.6576 18.6219176,96.064 C18.6219176,96.47104 18.2922701,96.80512 17.8884518,96.80512 Z M22.1681647,96.80512 C21.7637125,96.80512 21.4353328,96.47104 21.4353328,96.064 C21.4353328,95.6576 21.7637125,95.32288 22.1681647,95.32288 C22.5719829,95.32288 22.9016305,95.6576 22.9016305,96.064 C22.9016305,96.47104 22.5719829,96.80512 22.1681647,96.80512 Z M27.7721732,95.87136 C27.9636224,95.1776 28.9544669,95.1776 29.1763451,95.87136 L27.7721732,95.87136 Z M15.924513,88.9152 C18.9693154,88.9152 21.5532452,90.86656 22.5136607,93.64032 L22.9143092,93.5008 L23.3124221,93.35936 C22.2638892,90.22016 19.3547495,88 15.9219773,88 C12.5094911,88 9.59591377,90.24384 8.53089856,93.34656 L9.32649028,93.65184 C10.2932452,90.89728 12.8885858,88.9152 15.924513,88.9152 Z M15.924513,88.9152" id="lp-logo--subdued-grey" fill="#E5EDF5" sketch:type="MSShapeGroup"></path>
        <path d="M31.0667471,58.76288 L31.0667471,58.16384 L31.2429817,58.16384 L31.4553508,58.58816 C31.4756368,58.62784 31.4895834,58.65728 31.4978246,58.67712 C31.5079676,58.65472 31.5231821,58.62336 31.5466378,58.58048 L31.7640784,58.16384 L31.9187592,58.16384 L31.9187592,58.76288 L31.8040165,58.76288 L31.8040165,58.26112 L31.5422003,58.76288 L31.4376006,58.76288 L31.1808558,58.25408 L31.1808558,58.76288 L31.0667471,58.76288 Z M30.5342394,58.76288 L30.5342394,58.23488 L30.2400924,58.23488 L30.2400924,58.16384 L30.9482007,58.16384 L30.9482007,58.23488 L30.6540537,58.23488 L30.6540537,58.76288 L30.5342394,58.76288 Z M15.9188076,63.10208 C12.8733713,63.10208 10.2907094,61.18528 9.3302939,58.46272 L8.92901139,58.59968 L8.53089856,58.73792 C9.57943139,61.82016 12.489839,64 15.9207094,64 C19.3338296,64 22.2467729,61.79712 23.3124221,58.75136 L22.5174643,58.45056 C21.5500755,61.1552 18.9547349,63.10208 15.9188076,63.10208 Z M10.4891319,56.80512 L9.53061819,56.62976 C9.04502198,57.00096 8.49159443,56.83968 8.31599371,56.28544 L10.71101,56.28544 L10.71101,57.81056 L11.8096239,57.81056 L11.8096239,57.08928 C11.9471884,57.8688 12.9513456,58.13376 13.4933623,57.55136 C13.4933623,57.72224 13.4737102,57.92384 13.4217273,58.08768 C13.2480284,58.5088 12.6667076,58.5088 12.3655872,58.22656 L11.6828364,59.11744 C12.1183516,59.46496 12.5595721,59.63264 13.1225088,59.57888 C13.5865511,59.53216 13.9035199,59.4496 14.257891,59.12768 C14.5266806,58.82432 14.6934062,58.5088 14.6934062,58.10176 L14.6934062,54.34496 L13.4578618,54.34496 L13.4578618,56.42432 C13.4578618,56.83968 12.9082378,56.83968 12.9082378,56.42432 L12.9082378,54.34496 L11.8096239,54.34496 L11.8096239,52.95808 L10.71101,52.95808 L10.71101,55.42208 C10.2995845,54.6176 9.60225314,54.20288 8.71917804,54.32768 C8.08524042,54.47104 7.61866233,54.82496 7.37459634,55.42208 C7.15461999,54.71424 6.6290857,54.33856 5.90639681,54.30016 C5.14123411,54.30016 4.56688662,54.6784 4.33613333,55.42208 C3.95006532,54.56448 3.16715235,54.14912 2.24604099,54.36032 C1.69324739,54.53504 1.37310889,54.8288 1.09797996,55.3472 L1.09797996,52.95808 L0,52.95808 L0,57.81056 L1.09797996,57.81056 L1.09797996,56.76032 C1.51003941,57.42592 2.01655557,57.79328 2.75255715,57.80864 C3.53610405,57.76192 3.98239613,57.38624 4.39382165,56.68544 L4.39382165,57.81056 L5.49306949,57.81056 L5.49306949,55.7312 C5.49306949,55.3152 6.17962393,55.3152 6.17962393,55.7312 L6.17962393,57.81056 L7.41516835,57.81056 L7.41516835,56.75328 C7.55273282,57.32864 8.04847204,57.67616 8.65578428,57.8336 C9.98451753,57.96032 10.4821586,57.03808 10.4891319,56.80512 C10.4891319,56.80512 10.4821586,57.03808 10.4891319,56.80512 Z M2.68472582,56.78528 C2.27963968,56.78528 1.95189393,56.45184 1.95189393,56.04352 C1.95189393,55.63648 2.27963968,55.30304 2.68472582,55.30304 C3.08917803,55.30304 3.41755771,55.63648 3.41755771,56.04352 C3.41755771,56.45184 3.08917803,56.78528 2.68472582,56.78528 Z M9.71509404,55.87136 L8.29063621,55.87136 C8.5112465,55.1776 9.48560862,55.1776 9.71509404,55.87136 Z M31.9574294,56.48 L31.9054465,56.52608 C31.6994168,56.69504 31.3938589,56.61824 31.2873573,56.38528 C31.1770522,56.05248 31.2341066,55.7312 31.2341066,55.3152 L31.9967335,55.3152 L31.9967335,54.34496 L31.1726146,54.34496 L31.1726146,53.6512 L30.0740007,53.6512 L30.0740007,55.42208 C29.9370702,54.93248 29.5884045,54.6496 29.1091477,54.42816 C28.1500001,54.08512 27.2422014,54.48896 26.8199989,55.42208 C26.6532733,54.93248 26.4073055,54.63232 25.9394596,54.4096 C25.0120088,54.08128 24.1206925,54.47104 23.7986522,55.42208 C23.5431754,54.82496 23.1818309,54.51136 22.5478933,54.33472 C21.6939793,54.192 21.0105946,54.56768 20.5985351,55.3472 L20.5985351,52.95808 L19.3623568,52.95808 L19.3623568,55.3472 C19.2254262,55.05408 19.0789866,54.84608 18.8285813,54.63872 C17.6405822,53.7696 16.0665151,54.63616 16.0665151,56.09856 L16.0665151,59.19744 L17.2526124,59.19744 C17.2526124,58.92032 17.2171118,57.67232 17.2171118,57.67232 L17.3122025,57.72608 C18.1762595,57.94816 19.0878618,57.5072 19.3623568,56.82496 L19.3623568,57.81056 L20.5985351,57.81056 L20.5985351,56.82496 C20.8730301,57.53984 21.5633882,57.95136 22.3526405,57.89376 C22.7177886,57.91744 23.0208108,56.97024 23.0214447,57.24096 L23.0195429,57.94944 L23.7942147,57.94944 L24.8560602,57.87584 L24.8560602,55.72736 C24.8560602,55.28064 25.6142496,55.20896 25.6522858,55.66656 C25.661161,56.36928 25.69159,57.11744 25.69159,57.81056 L26.778793,57.81056 L26.778793,56.75328 C27.052654,57.23328 27.2935503,57.51104 27.7582266,57.74016 C28.6761683,58.04288 29.6467268,57.89504 30.0049015,56.76416 L29.0425842,56.576 C28.8207061,56.91264 28.0314537,56.97856 27.7797805,56.28544 L30.1145727,56.28544 C30.1145727,56.83968 30.1259836,57.29088 30.6217228,57.65568 C31.1187299,58.02112 32.0106802,57.68512 31.9999032,57.44832 L31.9574294,56.48 Z M17.8884518,56.80512 C17.4846335,56.80512 17.154352,56.47104 17.154352,56.064 C17.154352,55.6576 17.4846335,55.32288 17.8884518,55.32288 C18.2922701,55.32288 18.6219176,55.6576 18.6219176,56.064 C18.6219176,56.47104 18.2922701,56.80512 17.8884518,56.80512 Z M22.1681647,56.80512 C21.7637125,56.80512 21.4353328,56.47104 21.4353328,56.064 C21.4353328,55.6576 21.7637125,55.32288 22.1681647,55.32288 C22.5719829,55.32288 22.9016305,55.6576 22.9016305,56.064 C22.9016305,56.47104 22.5719829,56.80512 22.1681647,56.80512 Z M27.7721732,55.87136 C27.9636224,55.1776 28.9544669,55.1776 29.1763451,55.87136 L27.7721732,55.87136 Z M15.924513,48.9152 C18.9693154,48.9152 21.5532452,50.86656 22.5136607,53.64032 L22.9143092,53.5008 L23.3124221,53.35936 C22.2638892,50.22016 19.3547495,48 15.9219773,48 C12.5094911,48 9.59591377,50.24384 8.53089856,53.34656 L9.32649028,53.65184 C10.2932452,50.89728 12.8885858,48.9152 15.924513,48.9152 Z M15.924513,48.9152" id="lp-logo--body-grey" fill="#67737B" sketch:type="MSShapeGroup"></path>
        <path d="M31.0667471,18.76288 L31.0667471,18.16384 L31.2429817,18.16384 L31.4553508,18.58816 C31.4756368,18.62784 31.4895834,18.65728 31.4978246,18.67712 C31.5079676,18.65472 31.5231821,18.62336 31.5466378,18.58048 L31.7640784,18.16384 L31.9187592,18.16384 L31.9187592,18.76288 L31.8040165,18.76288 L31.8040165,18.26112 L31.5422003,18.76288 L31.4376006,18.76288 L31.1808558,18.25408 L31.1808558,18.76288 L31.0667471,18.76288 Z M30.5342394,18.76288 L30.5342394,18.23488 L30.2400924,18.23488 L30.2400924,18.16384 L30.9482007,18.16384 L30.9482007,18.23488 L30.6540537,18.23488 L30.6540537,18.76288 L30.5342394,18.76288 Z M15.9188076,23.10208 C12.8733713,23.10208 10.2907094,21.18528 9.3302939,18.46272 L8.92901139,18.59968 L8.53089856,18.73792 C9.57943139,21.82016 12.489839,24 15.9207094,24 C19.3338296,24 22.2467729,21.79712 23.3124221,18.75136 L22.5174643,18.45056 C21.5500755,21.1552 18.9547349,23.10208 15.9188076,23.10208 Z M10.4891319,16.80512 L9.53061819,16.62976 C9.04502198,17.00096 8.49159443,16.83968 8.31599371,16.28544 L10.71101,16.28544 L10.71101,17.81056 L11.8096239,17.81056 L11.8096239,17.08928 C11.9471884,17.8688 12.9513456,18.13376 13.4933623,17.55136 C13.4933623,17.72224 13.4737102,17.92384 13.4217273,18.08768 C13.2480284,18.5088 12.6667076,18.5088 12.3655872,18.22656 L11.6828364,19.11744 C12.1183516,19.46496 12.5595721,19.63264 13.1225088,19.57888 C13.5865511,19.53216 13.9035199,19.4496 14.257891,19.12768 C14.5266806,18.82432 14.6934062,18.5088 14.6934062,18.10176 L14.6934062,14.34496 L13.4578618,14.34496 L13.4578618,16.42432 C13.4578618,16.83968 12.9082378,16.83968 12.9082378,16.42432 L12.9082378,14.34496 L11.8096239,14.34496 L11.8096239,12.95808 L10.71101,12.95808 L10.71101,15.42208 C10.2995845,14.6176 9.60225314,14.20288 8.71917804,14.32768 C8.08524042,14.47104 7.61866233,14.82496 7.37459634,15.42208 C7.15461999,14.71424 6.6290857,14.33856 5.90639681,14.30016 C5.14123411,14.30016 4.56688662,14.6784 4.33613333,15.42208 C3.95006532,14.56448 3.16715235,14.14912 2.24604099,14.36032 C1.69324739,14.53504 1.37310889,14.8288 1.09797996,15.3472 L1.09797996,12.95808 L0,12.95808 L0,17.81056 L1.09797996,17.81056 L1.09797996,16.76032 C1.51003941,17.42592 2.01655557,17.79328 2.75255715,17.80864 C3.53610405,17.76192 3.98239613,17.38624 4.39382165,16.68544 L4.39382165,17.81056 L5.49306949,17.81056 L5.49306949,15.7312 C5.49306949,15.3152 6.17962393,15.3152 6.17962393,15.7312 L6.17962393,17.81056 L7.41516835,17.81056 L7.41516835,16.75328 C7.55273282,17.32864 8.04847204,17.67616 8.65578428,17.8336 C9.98451753,17.96032 10.4821586,17.03808 10.4891319,16.80512 C10.4891319,16.80512 10.4821586,17.03808 10.4891319,16.80512 Z M2.68472582,16.78528 C2.27963968,16.78528 1.95189393,16.45184 1.95189393,16.04352 C1.95189393,15.63648 2.27963968,15.30304 2.68472582,15.30304 C3.08917803,15.30304 3.41755771,15.63648 3.41755771,16.04352 C3.41755771,16.45184 3.08917803,16.78528 2.68472582,16.78528 Z M9.71509404,15.87136 L8.29063621,15.87136 C8.5112465,15.1776 9.48560862,15.1776 9.71509404,15.87136 Z M31.9574294,16.48 L31.9054465,16.52608 C31.6994168,16.69504 31.3938589,16.61824 31.2873573,16.38528 C31.1770522,16.05248 31.2341066,15.7312 31.2341066,15.3152 L31.9967335,15.3152 L31.9967335,14.34496 L31.1726146,14.34496 L31.1726146,13.6512 L30.0740007,13.6512 L30.0740007,15.42208 C29.9370702,14.93248 29.5884045,14.6496 29.1091477,14.42816 C28.1500001,14.08512 27.2422014,14.48896 26.8199989,15.42208 C26.6532733,14.93248 26.4073055,14.63232 25.9394596,14.4096 C25.0120088,14.08128 24.1206925,14.47104 23.7986522,15.42208 C23.5431754,14.82496 23.1818309,14.51136 22.5478933,14.33472 C21.6939793,14.192 21.0105946,14.56768 20.5985351,15.3472 L20.5985351,12.95808 L19.3623568,12.95808 L19.3623568,15.3472 C19.2254262,15.05408 19.0789866,14.84608 18.8285813,14.63872 C17.6405822,13.7696 16.0665151,14.63616 16.0665151,16.09856 L16.0665151,19.19744 L17.2526124,19.19744 C17.2526124,18.92032 17.2171118,17.67232 17.2171118,17.67232 L17.3122025,17.72608 C18.1762595,17.94816 19.0878618,17.5072 19.3623568,16.82496 L19.3623568,17.81056 L20.5985351,17.81056 L20.5985351,16.82496 C20.8730301,17.53984 21.5633882,17.95136 22.3526405,17.89376 C22.7177886,17.91744 23.0208108,16.97024 23.0214447,17.24096 L23.0195429,17.94944 L23.7942147,17.94944 L24.8560602,17.87584 L24.8560602,15.72736 C24.8560602,15.28064 25.6142496,15.20896 25.6522858,15.66656 C25.661161,16.36928 25.69159,17.11744 25.69159,17.81056 L26.778793,17.81056 L26.778793,16.75328 C27.052654,17.23328 27.2935503,17.51104 27.7582266,17.74016 C28.6761683,18.04288 29.6467268,17.89504 30.0049015,16.76416 L29.0425842,16.576 C28.8207061,16.91264 28.0314537,16.97856 27.7797805,16.28544 L30.1145727,16.28544 C30.1145727,16.83968 30.1259836,17.29088 30.6217228,17.65568 C31.1187299,18.02112 32.0106802,17.68512 31.9999032,17.44832 L31.9574294,16.48 Z M17.8884518,16.80512 C17.4846335,16.80512 17.154352,16.47104 17.154352,16.064 C17.154352,15.6576 17.4846335,15.32288 17.8884518,15.32288 C18.2922701,15.32288 18.6219176,15.6576 18.6219176,16.064 C18.6219176,16.47104 18.2922701,16.80512 17.8884518,16.80512 Z M22.1681647,16.80512 C21.7637125,16.80512 21.4353328,16.47104 21.4353328,16.064 C21.4353328,15.6576 21.7637125,15.32288 22.1681647,15.32288 C22.5719829,15.32288 22.9016305,15.6576 22.9016305,16.064 C22.9016305,16.47104 22.5719829,16.80512 22.1681647,16.80512 Z M27.7721732,15.87136 C27.9636224,15.1776 28.9544669,15.1776 29.1763451,15.87136 L27.7721732,15.87136 Z M15.924513,8.9152 C18.9693154,8.9152 21.5532452,10.86656 22.5136607,13.64032 L22.9143092,13.5008 L23.3124221,13.35936 C22.2638892,10.22016 19.3547495,8 15.9219773,8 C12.5094911,8 9.59591377,10.24384 8.53089856,13.34656 L9.32649028,13.65184 C10.2932452,10.89728 12.8885858,8.9152 15.924513,8.9152 Z M15.924513,8.9152" id="lp-logo--title-grey" fill="#3A434E" sketch:type="MSShapeGroup"></path>
    </g>
</svg>