<svg width="32" height="232" xmlns="http://www.w3.org/2000/svg" xmlns:sketch="http://www.bohemiancoding.com/sketch/ns"><title>lp-reviewed</title><g sketch:type="MSPage" fill="none"><path d="M24.999 145.588h-8.401l-5.998 4.412v-4.412h-3.599c-1.651 0-3.001-1.323-3.001-2.941v-14.706c0-1.618 1.349-2.941 3.001-2.941h17.998c1.649 0 3.001 1.323 3.001 2.941v14.706c0 1.618-1.351 2.941-3.001 2.941zm-13.855-6.154h2.705v-11.28h-2.705v11.28zm11.14-5.737c-.339-.664-.703-1.135-1.289-1.606-2.774-1.972-6.424-.007-6.492 3.311v7.029l2.618.002v-3.463l.295.126c2.43.478 4.124-.479 4.868-2.046.836-1.757 0-3.353 0-3.353zm-3.618 3.308c-.948 0-1.723-.756-1.723-1.689 0-.936.775-1.691 1.723-1.691.953 0 1.73.755 1.73 1.691 0 .933-.777 1.689-1.73 1.689zm0 0" fill="#206FAC" sketch:type="MSShapeGroup"/><path d="M24.999 105.588h-8.401l-5.998 4.412v-4.412h-3.599c-1.651 0-3.001-1.323-3.001-2.941v-14.706c0-1.618 1.349-2.941 3.001-2.941h17.998c1.649 0 3.001 1.323 3.001 2.941v14.706c0 1.618-1.351 2.941-3.001 2.941zm-13.855-6.154h2.705v-11.28h-2.705v11.28zm11.14-5.737c-.339-.664-.703-1.135-1.289-1.606-2.774-1.972-6.424-.007-6.492 3.311v7.029l2.618.002v-3.463l.295.126c2.43.478 4.124-.479 4.868-2.046.836-1.757 0-3.353 0-3.353zm-3.618 3.308c-.948 0-1.723-.756-1.723-1.689 0-.936.775-1.691 1.723-1.691.953 0 1.73.755 1.73 1.691 0 .933-.777 1.689-1.73 1.689zm0 0" fill="#fff" sketch:type="MSShapeGroup"/><path d="M24.999 65.088h-8.401l-5.998 4.412v-4.412h-3.599c-1.651 0-3.001-1.323-3.001-2.941v-14.706c0-1.618 1.349-2.941 3.001-2.941h17.998c1.649 0 3.001 1.323 3.001 2.941v14.706c0 1.618-1.351 2.941-3.001 2.941zm-13.855-6.154h2.705v-11.28h-2.705v11.28zm11.14-5.737c-.339-.664-.703-1.135-1.289-1.606-2.774-1.972-6.424-.007-6.492 3.311v7.029l2.618.002v-3.463l.295.126c2.43.478 4.124-.479 4.868-2.046.836-1.757 0-3.353 0-3.353zm-3.618 3.308c-.948 0-1.723-.756-1.723-1.689 0-.936.775-1.691 1.723-1.691.953 0 1.73.755 1.73 1.691 0 .933-.777 1.689-1.73 1.689zm0 0" fill="#67737B" sketch:type="MSShapeGroup"/><path d="M24.999 25.588h-8.401l-5.998 4.412v-4.412h-3.599c-1.651 0-3.001-1.323-3.001-2.941v-14.706c0-1.618 1.349-2.941 3.001-2.941h17.998c1.649 0 3.001 1.323 3.001 2.941v14.706c0 1.618-1.351 2.941-3.001 2.941zm-13.855-6.154h2.705v-11.28h-2.705v11.28zm11.14-5.737c-.339-.664-.703-1.135-1.289-1.606-2.774-1.972-6.424-.007-6.492 3.311v7.029l2.618.002v-3.463l.295.126c2.43.478 4.124-.479 4.868-2.046.836-1.757 0-3.353 0-3.353zm-3.618 3.308c-.948 0-1.723-.756-1.723-1.689 0-.936.775-1.691 1.723-1.691.953 0 1.73.755 1.73 1.691 0 .933-.777 1.689-1.73 1.689zm0 0" fill="#3A434E" sketch:type="MSShapeGroup"/></g></svg>