<svg width="32" height="232" viewBox="0 0 32 232" xmlns="http://www.w3.org/2000/svg"><title>luggage-storage</title><g fill="none"><path d="M16.123 124c-5.162 0-9.623 3.505-9.623 7.832v12.555c0 2.596 2.212 4.613 4.838 4.613h9.525c2.625 0 4.637-2.017 4.637-4.613v-12.555c0-4.327-4.171-7.832-9.377-7.832zm1.855 20.589c.028.105.004.218-.065.305-.068.089-.17.138-.283.138h-3.062c-.11 0-.213-.049-.28-.138-.072-.087-.093-.2-.064-.305l.864-3.253c-.593-.349-.964-.977-.964-1.674 0-1.08.886-1.953 1.978-1.953 1.086 0 1.974.873 1.974 1.953 0 .697-.371 1.325-.962 1.674l.865 3.253zm4.577-11.196h-12.844v-1.561c0-2.596 3.033-4.71 6.421-4.71 3.368 0 6.422 2.114 6.422 4.71v1.561zm0 0" fill="#206FAC"/><path d="M16.123 84c-5.162 0-9.623 3.505-9.623 7.832v12.555c0 2.596 2.212 4.613 4.838 4.613h9.525c2.625 0 4.637-2.017 4.637-4.613v-12.555c0-4.327-4.171-7.832-9.377-7.832zm1.855 20.589c.028.105.004.218-.065.305-.068.089-.17.138-.283.138h-3.062c-.11 0-.213-.049-.28-.138-.072-.087-.093-.2-.064-.305l.864-3.253c-.593-.349-.964-.977-.964-1.674 0-1.08.886-1.953 1.978-1.953 1.086 0 1.974.873 1.974 1.953 0 .697-.371 1.325-.962 1.674l.865 3.253zm4.577-11.196h-12.844v-1.561c0-2.596 3.033-4.71 6.421-4.71 3.368 0 6.422 2.114 6.422 4.71v1.561zm0 0" fill="#fff"/><path d="M16.123 44c-5.162 0-9.623 3.505-9.623 7.832v12.555c0 2.596 2.212 4.613 4.838 4.613h9.525c2.625 0 4.637-2.017 4.637-4.613v-12.555c0-4.327-4.171-7.832-9.377-7.832zm1.855 20.589c.028.105.004.218-.065.305-.068.089-.17.138-.283.138h-3.062c-.11 0-.213-.049-.28-.138-.072-.087-.093-.2-.064-.305l.864-3.253c-.593-.349-.964-.977-.964-1.674 0-1.08.886-1.953 1.978-1.953 1.086 0 1.974.873 1.974 1.953 0 .697-.371 1.325-.962 1.674l.865 3.253zm4.577-11.196h-12.844v-1.561c0-2.596 3.033-4.71 6.421-4.71 3.368 0 6.422 2.114 6.422 4.71v1.561zm0 0" fill="#67737B"/><path d="M16.123 4c-5.162 0-9.623 3.505-9.623 7.832v12.555c0 2.596 2.212 4.613 4.838 4.613h9.525c2.625 0 4.637-2.017 4.637-4.613v-12.555c0-4.327-4.171-7.832-9.377-7.832zm1.855 20.589c.028.105.004.218-.065.305-.068.089-.17.138-.283.138h-3.062c-.11 0-.213-.049-.28-.138-.072-.087-.093-.2-.064-.305l.864-3.253c-.593-.349-.964-.977-.964-1.674 0-1.08.886-1.953 1.978-1.953 1.086 0 1.974.873 1.974 1.953 0 .697-.371 1.325-.962 1.674l.865 3.253zm4.577-11.196h-12.844v-1.561c0-2.596 3.033-4.71 6.421-4.71 3.368 0 6.422 2.114 6.422 4.71v1.561zm0 0" fill="#3A434E"/></g></svg>