<?xml version="1.0" encoding="UTF-8" standalone="no"?>
<svg width="32px" height="232px" viewBox="0 0 32 232" version="1.1" xmlns="http://www.w3.org/2000/svg" xmlns:xlink="http://www.w3.org/1999/xlink" xmlns:sketch="http://www.bohemiancoding.com/sketch/ns">
    <title>magazine-line</title>
    <description>Created with Sketch (http://www.bohemiancoding.com/sketch)</description>
    <defs></defs>
    <g id="Categories" stroke="none" stroke-width="1" fill="none" fill-rule="evenodd" sketch:type="MSPage">
        <path d="M23.0689645,126.84032 C24.9576298,126.84032 26.845362,127.15712 28.655644,127.79072 C29.5281253,128.09408 30.2121133,129.16448 30.2121133,130.07264 L30.2121133,146.03072 C30.2121133,146.744 29.7940688,147.15008 29.1987286,147.15008 C29.0307643,147.15008 28.848803,147.11744 28.655644,147.05024 C26.845362,146.41664 24.9576298,146.09888 23.0680314,146.09888 C21.1812323,146.09888 19.2916339,146.41664 17.4794856,147.05024 C17.2919255,147.11648 17.1136967,147.1424 16.9475986,147.14432 L16.9475986,147.15968 L15.0412037,147.15968 L15.0412037,147.1424 C14.8788382,147.13952 14.704342,147.11456 14.5195813,147.05024 C12.7064999,146.41664 10.8187677,146.09888 8.93010235,146.09888 C7.04050389,146.09888 5.1499723,146.41664 3.34062345,147.05024 C3.14933077,147.11744 2.96457003,147.15008 2.79753886,147.15008 C2.20126556,147.15008 1.78788674,146.744 1.78788674,146.03072 L1.78788674,130.07264 C1.78788674,129.16448 2.46720905,128.09408 3.34062345,127.79264 C5.15183857,127.15712 7.04237016,126.84032 8.93010235,126.84032 C10.8206339,126.84032 12.7083661,127.15712 14.5195813,127.79072 C15.2287639,128.03936 15.8063745,128.7968 15.9995334,129.56192 C16.1908261,128.7968 16.7693698,128.03936 17.4794856,127.79264 C19.2916339,127.15712 21.1812323,126.84032 23.0689645,126.84032 L23.0689645,126.84032 Z M17.4029685,135.13952 C18.5078004,134.74784 19.6396932,134.47136 20.7837168,134.31776 L20.7837168,129.25376 C19.6396932,129.40928 18.5078004,129.6848 17.4029685,130.07648 L17.4029685,135.13952 L17.4029685,135.13952 Z M3.58323856,131.91296 C5.31980288,131.33312 7.12541918,131.04224 8.93010235,131.04224 C10.7347855,131.04224 12.5404018,131.3312 14.2778993,131.912 L14.2778993,130.14944 C12.5385356,129.57152 10.7347855,129.28256 8.93010235,129.28256 C7.12448605,129.28256 5.31980288,129.57152 3.58323856,130.14944 L3.58323856,131.91296 L3.58323856,131.91296 Z M22.7190389,134.17184 C22.8618085,134.168 23.0055113,134.16608 23.1473479,134.16608 C25.0453445,134.16608 26.9424081,134.47712 28.759222,135.12032 L28.759222,133.6112 C26.9256116,132.95936 25.0117517,132.64064 23.0988248,132.64064 C22.9728516,132.64064 22.8450121,132.64352 22.7190389,132.64544 L22.7190389,134.17184 L22.7190389,134.17184 Z M3.58323856,135.38048 C5.31980288,134.79968 7.12541918,134.51072 8.93010235,134.51072 C10.7347855,134.51072 12.5404018,134.79968 14.2778993,135.37856 L14.2778993,133.61696 C12.5385356,133.03616 10.7347855,132.75008 8.93010235,132.75008 C7.12448605,132.75008 5.31980288,133.03616 3.58323856,133.61696 L3.58323856,135.38048 L3.58323856,135.38048 Z M17.4029685,138.5984 C19.244044,137.94272 21.1644359,137.6144 23.0857609,137.61632 C25.0052197,137.61632 26.9218791,137.94272 28.759222,138.59648 L28.759222,137.07584 C26.9293442,136.42592 25.0173505,136.10048 23.1062899,136.10048 C21.1793661,136.10048 19.2496428,136.43072 17.4029685,137.0912 L17.4029685,138.5984 L17.4029685,138.5984 Z M3.58323856,144.42944 C5.31980288,143.85056 7.12448605,143.55968 8.93010235,143.55968 C10.7347855,143.55968 12.5385356,143.85056 14.2778993,144.42944 L14.2778993,137.56352 C12.5404018,136.98656 10.7347855,136.6976 8.93010235,136.6976 C7.12541918,136.6976 5.31980288,136.98656 3.58323856,137.56544 L3.58323856,144.42944 L3.58323856,144.42944 Z M17.4029685,142.08128 C19.2384452,141.4304 21.1541714,141.104 23.0680314,141.104 C23.8425335,141.104 24.6189018,141.15776 25.3878051,141.26432 L25.3878051,139.70912 C24.6170355,139.60064 23.8406672,139.54688 23.0642988,139.54688 C21.1523051,139.54688 19.2365789,139.87136 17.4029685,140.52416 L17.4029685,142.08128 L17.4029685,142.08128 Z M23.0689645,125 C20.9684775,125 18.8922521,125.35328 16.901875,126.05024 C16.5864754,126.15968 16.2822734,126.32096 15.9995334,126.52064 C15.7177266,126.31904 15.4125915,126.15968 15.0943924,126.04832 C13.1077479,125.35328 11.0333887,125 8.93010235,125 C6.82681597,125 4.75152363,125.35328 2.76301286,126.05024 C1.18974718,126.59264 0,128.32352 0,130.07264 L0,146.03072 C0,147.74432 1.17575015,148.9904 2.79753886,148.9904 C3.16332779,148.9904 3.53938121,148.92512 3.9145015,148.79456 C5.5334908,148.2272 7.21873269,147.94016 8.93010235,147.94016 C10.3969906,147.94016 11.8480156,148.15136 13.253317,148.56992 L13.253317,148.98464 L15.0412037,149 L18.7354854,149 L18.7354854,148.57376 C20.1445193,148.15232 21.5983437,147.94016 23.0680314,147.94016 C24.7775348,147.94016 26.4627767,148.2272 28.0798997,148.79264 C28.45502,148.92512 28.8301403,148.9904 29.1987286,148.9904 C30.8205173,148.9904 32,147.74432 32,146.03072 L32,130.07264 C32,128.32736 30.8093197,126.59648 29.2295221,126.04832 C27.2428776,125.35328 25.1685184,125 23.0689645,125 L23.0689645,125 L23.0689645,125 L23.0689645,125 Z M5.3711253,138.96032 C6.53567784,138.68 7.72915755,138.53888 8.93010235,138.53888 C10.1329134,138.53888 11.3235937,138.68 12.4881463,138.96032 L12.4881463,142.06304 C11.3179949,141.83456 10.1273146,141.72032 8.93010235,141.72032 C7.73102382,141.72032 6.54314292,141.83456 5.3711253,142.06304 L5.3711253,138.96032 L5.3711253,138.96032 Z M5.3711253,138.96032" id="magazine-line--lp-blue" fill="#206FAC" sketch:type="MSShapeGroup"></path>
        <path d="M23.0689645,86.84032 C24.9576298,86.84032 26.845362,87.15712 28.655644,87.79072 C29.5281253,88.09408 30.2121133,89.16448 30.2121133,90.07264 L30.2121133,106.03072 C30.2121133,106.744 29.7940688,107.15008 29.1987286,107.15008 C29.0307643,107.15008 28.848803,107.11744 28.655644,107.05024 C26.845362,106.41664 24.9576298,106.09888 23.0680314,106.09888 C21.1812323,106.09888 19.2916339,106.41664 17.4794856,107.05024 C17.2919255,107.11648 17.1136967,107.1424 16.9475986,107.14432 L16.9475986,107.15968 L15.0412037,107.15968 L15.0412037,107.1424 C14.8788382,107.13952 14.704342,107.11456 14.5195813,107.05024 C12.7064999,106.41664 10.8187677,106.09888 8.93010235,106.09888 C7.04050389,106.09888 5.1499723,106.41664 3.34062345,107.05024 C3.14933077,107.11744 2.96457003,107.15008 2.79753886,107.15008 C2.20126556,107.15008 1.78788674,106.744 1.78788674,106.03072 L1.78788674,90.07264 C1.78788674,89.16448 2.46720905,88.09408 3.34062345,87.79264 C5.15183857,87.15712 7.04237016,86.84032 8.93010235,86.84032 C10.8206339,86.84032 12.7083661,87.15712 14.5195813,87.79072 C15.2287639,88.03936 15.8063745,88.7968 15.9995334,89.56192 C16.1908261,88.7968 16.7693698,88.03936 17.4794856,87.79264 C19.2916339,87.15712 21.1812323,86.84032 23.0689645,86.84032 L23.0689645,86.84032 Z M17.4029685,95.13952 C18.5078004,94.74784 19.6396932,94.47136 20.7837168,94.31776 L20.7837168,89.25376 C19.6396932,89.40928 18.5078004,89.6848 17.4029685,90.07648 L17.4029685,95.13952 L17.4029685,95.13952 Z M3.58323856,91.91296 C5.31980288,91.33312 7.12541918,91.04224 8.93010235,91.04224 C10.7347855,91.04224 12.5404018,91.3312 14.2778993,91.912 L14.2778993,90.14944 C12.5385356,89.57152 10.7347855,89.28256 8.93010235,89.28256 C7.12448605,89.28256 5.31980288,89.57152 3.58323856,90.14944 L3.58323856,91.91296 L3.58323856,91.91296 Z M22.7190389,94.17184 C22.8618085,94.168 23.0055113,94.16608 23.1473479,94.16608 C25.0453445,94.16608 26.9424081,94.47712 28.759222,95.12032 L28.759222,93.6112 C26.9256116,92.95936 25.0117517,92.64064 23.0988248,92.64064 C22.9728516,92.64064 22.8450121,92.64352 22.7190389,92.64544 L22.7190389,94.17184 L22.7190389,94.17184 Z M3.58323856,95.38048 C5.31980288,94.79968 7.12541918,94.51072 8.93010235,94.51072 C10.7347855,94.51072 12.5404018,94.79968 14.2778993,95.37856 L14.2778993,93.61696 C12.5385356,93.03616 10.7347855,92.75008 8.93010235,92.75008 C7.12448605,92.75008 5.31980288,93.03616 3.58323856,93.61696 L3.58323856,95.38048 L3.58323856,95.38048 Z M17.4029685,98.5984 C19.244044,97.94272 21.1644359,97.6144 23.0857609,97.61632 C25.0052197,97.61632 26.9218791,97.94272 28.759222,98.59648 L28.759222,97.07584 C26.9293442,96.42592 25.0173505,96.10048 23.1062899,96.10048 C21.1793661,96.10048 19.2496428,96.43072 17.4029685,97.0912 L17.4029685,98.5984 L17.4029685,98.5984 Z M3.58323856,104.42944 C5.31980288,103.85056 7.12448605,103.55968 8.93010235,103.55968 C10.7347855,103.55968 12.5385356,103.85056 14.2778993,104.42944 L14.2778993,97.56352 C12.5404018,96.98656 10.7347855,96.6976 8.93010235,96.6976 C7.12541918,96.6976 5.31980288,96.98656 3.58323856,97.56544 L3.58323856,104.42944 L3.58323856,104.42944 Z M17.4029685,102.08128 C19.2384452,101.4304 21.1541714,101.104 23.0680314,101.104 C23.8425335,101.104 24.6189018,101.15776 25.3878051,101.26432 L25.3878051,99.70912 C24.6170355,99.60064 23.8406672,99.54688 23.0642988,99.54688 C21.1523051,99.54688 19.2365789,99.87136 17.4029685,100.52416 L17.4029685,102.08128 L17.4029685,102.08128 Z M23.0689645,85 C20.9684775,85 18.8922521,85.35328 16.901875,86.05024 C16.5864754,86.15968 16.2822734,86.32096 15.9995334,86.52064 C15.7177266,86.31904 15.4125915,86.15968 15.0943924,86.04832 C13.1077479,85.35328 11.0333887,85 8.93010235,85 C6.82681597,85 4.75152363,85.35328 2.76301286,86.05024 C1.18974718,86.59264 0,88.32352 0,90.07264 L0,106.03072 C0,107.74432 1.17575015,108.9904 2.79753886,108.9904 C3.16332779,108.9904 3.53938121,108.92512 3.9145015,108.79456 C5.5334908,108.2272 7.21873269,107.94016 8.93010235,107.94016 C10.3969906,107.94016 11.8480156,108.15136 13.253317,108.56992 L13.253317,108.98464 L15.0412037,109 L18.7354854,109 L18.7354854,108.57376 C20.1445193,108.15232 21.5983437,107.94016 23.0680314,107.94016 C24.7775348,107.94016 26.4627767,108.2272 28.0798997,108.79264 C28.45502,108.92512 28.8301403,108.9904 29.1987286,108.9904 C30.8205173,108.9904 32,107.74432 32,106.03072 L32,90.07264 C32,88.32736 30.8093197,86.59648 29.2295221,86.04832 C27.2428776,85.35328 25.1685184,85 23.0689645,85 L23.0689645,85 L23.0689645,85 L23.0689645,85 Z M5.3711253,98.96032 C6.53567784,98.68 7.72915755,98.53888 8.93010235,98.53888 C10.1329134,98.53888 11.3235937,98.68 12.4881463,98.96032 L12.4881463,102.06304 C11.3179949,101.83456 10.1273146,101.72032 8.93010235,101.72032 C7.73102382,101.72032 6.54314292,101.83456 5.3711253,102.06304 L5.3711253,98.96032 L5.3711253,98.96032 Z M5.3711253,98.96032" id="magazine-line--white" fill="#FFFFFF" sketch:type="MSShapeGroup"></path>
        <path d="M23.0689645,46.84032 C24.9576298,46.84032 26.845362,47.15712 28.655644,47.79072 C29.5281253,48.09408 30.2121133,49.16448 30.2121133,50.07264 L30.2121133,66.03072 C30.2121133,66.744 29.7940688,67.15008 29.1987286,67.15008 C29.0307643,67.15008 28.848803,67.11744 28.655644,67.05024 C26.845362,66.41664 24.9576298,66.09888 23.0680314,66.09888 C21.1812323,66.09888 19.2916339,66.41664 17.4794856,67.05024 C17.2919255,67.11648 17.1136967,67.1424 16.9475986,67.14432 L16.9475986,67.15968 L15.0412037,67.15968 L15.0412037,67.1424 C14.8788382,67.13952 14.704342,67.11456 14.5195813,67.05024 C12.7064999,66.41664 10.8187677,66.09888 8.93010235,66.09888 C7.04050389,66.09888 5.1499723,66.41664 3.34062345,67.05024 C3.14933077,67.11744 2.96457003,67.15008 2.79753886,67.15008 C2.20126556,67.15008 1.78788674,66.744 1.78788674,66.03072 L1.78788674,50.07264 C1.78788674,49.16448 2.46720905,48.09408 3.34062345,47.79264 C5.15183857,47.15712 7.04237016,46.84032 8.93010235,46.84032 C10.8206339,46.84032 12.7083661,47.15712 14.5195813,47.79072 C15.2287639,48.03936 15.8063745,48.7968 15.9995334,49.56192 C16.1908261,48.7968 16.7693698,48.03936 17.4794856,47.79264 C19.2916339,47.15712 21.1812323,46.84032 23.0689645,46.84032 L23.0689645,46.84032 Z M17.4029685,55.13952 C18.5078004,54.74784 19.6396932,54.47136 20.7837168,54.31776 L20.7837168,49.25376 C19.6396932,49.40928 18.5078004,49.6848 17.4029685,50.07648 L17.4029685,55.13952 L17.4029685,55.13952 Z M3.58323856,51.91296 C5.31980288,51.33312 7.12541918,51.04224 8.93010235,51.04224 C10.7347855,51.04224 12.5404018,51.3312 14.2778993,51.912 L14.2778993,50.14944 C12.5385356,49.57152 10.7347855,49.28256 8.93010235,49.28256 C7.12448605,49.28256 5.31980288,49.57152 3.58323856,50.14944 L3.58323856,51.91296 L3.58323856,51.91296 Z M22.7190389,54.17184 C22.8618085,54.168 23.0055113,54.16608 23.1473479,54.16608 C25.0453445,54.16608 26.9424081,54.47712 28.759222,55.12032 L28.759222,53.6112 C26.9256116,52.95936 25.0117517,52.64064 23.0988248,52.64064 C22.9728516,52.64064 22.8450121,52.64352 22.7190389,52.64544 L22.7190389,54.17184 L22.7190389,54.17184 Z M3.58323856,55.38048 C5.31980288,54.79968 7.12541918,54.51072 8.93010235,54.51072 C10.7347855,54.51072 12.5404018,54.79968 14.2778993,55.37856 L14.2778993,53.61696 C12.5385356,53.03616 10.7347855,52.75008 8.93010235,52.75008 C7.12448605,52.75008 5.31980288,53.03616 3.58323856,53.61696 L3.58323856,55.38048 L3.58323856,55.38048 Z M17.4029685,58.5984 C19.244044,57.94272 21.1644359,57.6144 23.0857609,57.61632 C25.0052197,57.61632 26.9218791,57.94272 28.759222,58.59648 L28.759222,57.07584 C26.9293442,56.42592 25.0173505,56.10048 23.1062899,56.10048 C21.1793661,56.10048 19.2496428,56.43072 17.4029685,57.0912 L17.4029685,58.5984 L17.4029685,58.5984 Z M3.58323856,64.42944 C5.31980288,63.85056 7.12448605,63.55968 8.93010235,63.55968 C10.7347855,63.55968 12.5385356,63.85056 14.2778993,64.42944 L14.2778993,57.56352 C12.5404018,56.98656 10.7347855,56.6976 8.93010235,56.6976 C7.12541918,56.6976 5.31980288,56.98656 3.58323856,57.56544 L3.58323856,64.42944 L3.58323856,64.42944 Z M17.4029685,62.08128 C19.2384452,61.4304 21.1541714,61.104 23.0680314,61.104 C23.8425335,61.104 24.6189018,61.15776 25.3878051,61.26432 L25.3878051,59.70912 C24.6170355,59.60064 23.8406672,59.54688 23.0642988,59.54688 C21.1523051,59.54688 19.2365789,59.87136 17.4029685,60.52416 L17.4029685,62.08128 L17.4029685,62.08128 Z M23.0689645,45 C20.9684775,45 18.8922521,45.35328 16.901875,46.05024 C16.5864754,46.15968 16.2822734,46.32096 15.9995334,46.52064 C15.7177266,46.31904 15.4125915,46.15968 15.0943924,46.04832 C13.1077479,45.35328 11.0333887,45 8.93010235,45 C6.82681597,45 4.75152363,45.35328 2.76301286,46.05024 C1.18974718,46.59264 0,48.32352 0,50.07264 L0,66.03072 C0,67.74432 1.17575015,68.9904 2.79753886,68.9904 C3.16332779,68.9904 3.53938121,68.92512 3.9145015,68.79456 C5.5334908,68.2272 7.21873269,67.94016 8.93010235,67.94016 C10.3969906,67.94016 11.8480156,68.15136 13.253317,68.56992 L13.253317,68.98464 L15.0412037,69 L18.7354854,69 L18.7354854,68.57376 C20.1445193,68.15232 21.5983437,67.94016 23.0680314,67.94016 C24.7775348,67.94016 26.4627767,68.2272 28.0798997,68.79264 C28.45502,68.92512 28.8301403,68.9904 29.1987286,68.9904 C30.8205173,68.9904 32,67.74432 32,66.03072 L32,50.07264 C32,48.32736 30.8093197,46.59648 29.2295221,46.04832 C27.2428776,45.35328 25.1685184,45 23.0689645,45 L23.0689645,45 L23.0689645,45 L23.0689645,45 Z M5.3711253,58.96032 C6.53567784,58.68 7.72915755,58.53888 8.93010235,58.53888 C10.1329134,58.53888 11.3235937,58.68 12.4881463,58.96032 L12.4881463,62.06304 C11.3179949,61.83456 10.1273146,61.72032 8.93010235,61.72032 C7.73102382,61.72032 6.54314292,61.83456 5.3711253,62.06304 L5.3711253,58.96032 L5.3711253,58.96032 Z M5.3711253,58.96032" id="magazine-line--body-grey" fill="#67737B" sketch:type="MSShapeGroup"></path>
        <path d="M23.0689645,6.84032 C24.9576298,6.84032 26.845362,7.15712 28.655644,7.79072 C29.5281253,8.09408 30.2121133,9.16448 30.2121133,10.07264 L30.2121133,26.03072 C30.2121133,26.744 29.7940688,27.15008 29.1987286,27.15008 C29.0307643,27.15008 28.848803,27.11744 28.655644,27.05024 C26.845362,26.41664 24.9576298,26.09888 23.0680314,26.09888 C21.1812323,26.09888 19.2916339,26.41664 17.4794856,27.05024 C17.2919255,27.11648 17.1136967,27.1424 16.9475986,27.14432 L16.9475986,27.15968 L15.0412037,27.15968 L15.0412037,27.1424 C14.8788382,27.13952 14.704342,27.11456 14.5195813,27.05024 C12.7064999,26.41664 10.8187677,26.09888 8.93010235,26.09888 C7.04050389,26.09888 5.1499723,26.41664 3.34062345,27.05024 C3.14933077,27.11744 2.96457003,27.15008 2.79753886,27.15008 C2.20126556,27.15008 1.78788674,26.744 1.78788674,26.03072 L1.78788674,10.07264 C1.78788674,9.16448 2.46720905,8.09408 3.34062345,7.79264 C5.15183857,7.15712 7.04237016,6.84032 8.93010235,6.84032 C10.8206339,6.84032 12.7083661,7.15712 14.5195813,7.79072 C15.2287639,8.03936 15.8063745,8.7968 15.9995334,9.56192 C16.1908261,8.7968 16.7693698,8.03936 17.4794856,7.79264 C19.2916339,7.15712 21.1812323,6.84032 23.0689645,6.84032 L23.0689645,6.84032 Z M17.4029685,15.13952 C18.5078004,14.74784 19.6396932,14.47136 20.7837168,14.31776 L20.7837168,9.25376 C19.6396932,9.40928 18.5078004,9.6848 17.4029685,10.07648 L17.4029685,15.13952 L17.4029685,15.13952 Z M3.58323856,11.91296 C5.31980288,11.33312 7.12541918,11.04224 8.93010235,11.04224 C10.7347855,11.04224 12.5404018,11.3312 14.2778993,11.912 L14.2778993,10.14944 C12.5385356,9.57152 10.7347855,9.28256 8.93010235,9.28256 C7.12448605,9.28256 5.31980288,9.57152 3.58323856,10.14944 L3.58323856,11.91296 L3.58323856,11.91296 Z M22.7190389,14.17184 C22.8618085,14.168 23.0055113,14.16608 23.1473479,14.16608 C25.0453445,14.16608 26.9424081,14.47712 28.759222,15.12032 L28.759222,13.6112 C26.9256116,12.95936 25.0117517,12.64064 23.0988248,12.64064 C22.9728516,12.64064 22.8450121,12.64352 22.7190389,12.64544 L22.7190389,14.17184 L22.7190389,14.17184 Z M3.58323856,15.38048 C5.31980288,14.79968 7.12541918,14.51072 8.93010235,14.51072 C10.7347855,14.51072 12.5404018,14.79968 14.2778993,15.37856 L14.2778993,13.61696 C12.5385356,13.03616 10.7347855,12.75008 8.93010235,12.75008 C7.12448605,12.75008 5.31980288,13.03616 3.58323856,13.61696 L3.58323856,15.38048 L3.58323856,15.38048 Z M17.4029685,18.5984 C19.244044,17.94272 21.1644359,17.6144 23.0857609,17.61632 C25.0052197,17.61632 26.9218791,17.94272 28.759222,18.59648 L28.759222,17.07584 C26.9293442,16.42592 25.0173505,16.10048 23.1062899,16.10048 C21.1793661,16.10048 19.2496428,16.43072 17.4029685,17.0912 L17.4029685,18.5984 L17.4029685,18.5984 Z M3.58323856,24.42944 C5.31980288,23.85056 7.12448605,23.55968 8.93010235,23.55968 C10.7347855,23.55968 12.5385356,23.85056 14.2778993,24.42944 L14.2778993,17.56352 C12.5404018,16.98656 10.7347855,16.6976 8.93010235,16.6976 C7.12541918,16.6976 5.31980288,16.98656 3.58323856,17.56544 L3.58323856,24.42944 L3.58323856,24.42944 Z M17.4029685,22.08128 C19.2384452,21.4304 21.1541714,21.104 23.0680314,21.104 C23.8425335,21.104 24.6189018,21.15776 25.3878051,21.26432 L25.3878051,19.70912 C24.6170355,19.60064 23.8406672,19.54688 23.0642988,19.54688 C21.1523051,19.54688 19.2365789,19.87136 17.4029685,20.52416 L17.4029685,22.08128 L17.4029685,22.08128 Z M23.0689645,5 C20.9684775,5 18.8922521,5.35328 16.901875,6.05024 C16.5864754,6.15968 16.2822734,6.32096 15.9995334,6.52064 C15.7177266,6.31904 15.4125915,6.15968 15.0943924,6.04832 C13.1077479,5.35328 11.0333887,5 8.93010235,5 C6.82681597,5 4.75152363,5.35328 2.76301286,6.05024 C1.18974718,6.59264 0,8.32352 0,10.07264 L0,26.03072 C0,27.74432 1.17575015,28.9904 2.79753886,28.9904 C3.16332779,28.9904 3.53938121,28.92512 3.9145015,28.79456 C5.5334908,28.2272 7.21873269,27.94016 8.93010235,27.94016 C10.3969906,27.94016 11.8480156,28.15136 13.253317,28.56992 L13.253317,28.98464 L15.0412037,29 L18.7354854,29 L18.7354854,28.57376 C20.1445193,28.15232 21.5983437,27.94016 23.0680314,27.94016 C24.7775348,27.94016 26.4627767,28.2272 28.0798997,28.79264 C28.45502,28.92512 28.8301403,28.9904 29.1987286,28.9904 C30.8205173,28.9904 32,27.74432 32,26.03072 L32,10.07264 C32,8.32736 30.8093197,6.59648 29.2295221,6.04832 C27.2428776,5.35328 25.1685184,5 23.0689645,5 L23.0689645,5 L23.0689645,5 L23.0689645,5 Z M5.3711253,18.96032 C6.53567784,18.68 7.72915755,18.53888 8.93010235,18.53888 C10.1329134,18.53888 11.3235937,18.68 12.4881463,18.96032 L12.4881463,22.06304 C11.3179949,21.83456 10.1273146,21.72032 8.93010235,21.72032 C7.73102382,21.72032 6.54314292,21.83456 5.3711253,22.06304 L5.3711253,18.96032 L5.3711253,18.96032 Z M5.3711253,18.96032" id="magazine-line--title-grey" fill="#3A434E" sketch:type="MSShapeGroup"></path>
    </g>
</svg>