<svg width="32" height="232" xmlns="http://www.w3.org/2000/svg" xmlns:sketch="http://www.bohemiancoding.com/sketch/ns"><title>magazine</title><g sketch:type="MSPage" fill="none"><path d="M30.252 127.018c-4.079-1.373-8.506-1.372-12.585.001-.8.268-1.45 1.088-1.667 1.917-.216-.829-.867-1.649-1.665-1.918-4.079-1.373-8.51-1.372-12.589.001-.981.327-1.746 1.488-1.746 2.472v17.288c0 .988.765 1.432 1.746 1.103 4.079-1.374 8.51-1.374 12.589 0 .208.071.403.099.588.101v.017h2.144v-.017c.185 0 .385-.028.6-.101 4.079-1.374 8.506-1.374 12.585 0 .979.329 1.748-.115 1.748-1.103v-17.288c0-.984-.769-2.145-1.748-2.473zm-16.19 18.026c-3.914-1.256-8.13-1.256-12.043 0v-7.438c3.912-1.253 8.128-1.253 12.043 0v7.438zm0-9.807c-3.914-1.254-8.13-1.254-12.043.001v-1.91c3.912-1.254 8.128-1.254 12.043 0v1.909zm0-3.754c-3.914-1.256-8.13-1.256-12.043 0v-1.909c3.912-1.253 8.128-1.253 12.043-.001v1.91zm3.521-1.991c1.241-.422 2.516-.721 3.804-.889v5.484c-1.288.169-2.564.466-3.804.891v-5.486zm8.988 12.121c-3.007-.402-6.088-.106-8.988.885v-1.685c2.9-.993 5.98-1.287 8.988-.886v1.686zm3.797-2.888c-4.14-1.42-8.646-1.418-12.785.002v-1.633c4.14-1.427 8.646-1.432 12.785-.019v1.65zm0-3.768c-2.201-.748-4.505-1.08-6.801-1.025v-1.654c2.296-.049 4.6.292 6.801 1.044v1.635zm0 0" fill="#206FAC" sketch:type="MSShapeGroup"/><path d="M30.252 87.018c-4.079-1.373-8.506-1.372-12.585.001-.8.268-1.45 1.088-1.667 1.917-.216-.829-.867-1.649-1.665-1.918-4.079-1.373-8.51-1.372-12.589.001-.981.327-1.746 1.488-1.746 2.472v17.288c0 .988.765 1.432 1.746 1.103 4.079-1.374 8.51-1.374 12.589 0 .208.071.403.099.588.101v.017h2.144v-.017c.185 0 .385-.028.6-.101 4.079-1.374 8.506-1.374 12.585 0 .979.329 1.748-.115 1.748-1.103v-17.288c0-.984-.769-2.145-1.748-2.473zm-16.19 18.026c-3.914-1.256-8.13-1.256-12.043 0v-7.438c3.912-1.253 8.128-1.253 12.043 0v7.438zm0-9.807c-3.914-1.254-8.13-1.254-12.043.001v-1.91c3.912-1.254 8.128-1.254 12.043 0v1.909zm0-3.754c-3.914-1.256-8.13-1.256-12.043 0v-1.909c3.912-1.253 8.128-1.253 12.043-.001v1.91zm3.521-1.991c1.241-.422 2.516-.721 3.804-.889v5.484c-1.288.169-2.564.466-3.804.891v-5.486zm8.988 12.121c-3.007-.402-6.088-.106-8.988.885v-1.685c2.9-.993 5.98-1.287 8.988-.886v1.686zm3.797-2.888c-4.14-1.42-8.646-1.418-12.785.002v-1.633c4.14-1.427 8.646-1.432 12.785-.019v1.65zm0-3.768c-2.201-.748-4.505-1.08-6.801-1.025v-1.654c2.296-.049 4.6.292 6.801 1.044v1.635zm0 0" fill="#fff" sketch:type="MSShapeGroup"/><path d="M30.252 47.018c-4.079-1.373-8.506-1.372-12.585.001-.8.268-1.45 1.088-1.667 1.917-.216-.829-.867-1.649-1.665-1.918-4.079-1.373-8.51-1.372-12.589.001-.981.327-1.746 1.488-1.746 2.472v17.288c0 .988.765 1.432 1.746 1.103 4.079-1.374 8.51-1.374 12.589 0 .208.071.403.099.588.101v.017h2.144v-.017c.185 0 .385-.028.6-.101 4.079-1.374 8.506-1.374 12.585 0 .979.329 1.748-.115 1.748-1.103v-17.288c0-.984-.769-2.145-1.748-2.473zm-16.19 18.026c-3.914-1.256-8.13-1.256-12.043 0v-7.438c3.912-1.253 8.128-1.253 12.043 0v7.438zm0-9.807c-3.914-1.254-8.13-1.254-12.043.001v-1.91c3.912-1.254 8.128-1.254 12.043 0v1.909zm0-3.754c-3.914-1.256-8.13-1.256-12.043 0v-1.909c3.912-1.253 8.128-1.253 12.043-.001v1.91zm3.521-1.991c1.241-.422 2.516-.721 3.804-.889v5.484c-1.288.169-2.564.466-3.804.891v-5.486zm8.988 12.121c-3.007-.402-6.088-.106-8.988.885v-1.685c2.9-.993 5.98-1.287 8.988-.886v1.686zm3.797-2.888c-4.14-1.42-8.646-1.418-12.785.002v-1.633c4.14-1.427 8.646-1.432 12.785-.019v1.65zm0-3.768c-2.201-.748-4.505-1.08-6.801-1.025v-1.654c2.296-.049 4.6.292 6.801 1.044v1.635zm0 0" fill="#67737B" sketch:type="MSShapeGroup"/><path d="M30.252 7.018c-4.079-1.373-8.506-1.372-12.585.001-.8.268-1.45 1.088-1.667 1.917-.216-.829-.867-1.649-1.665-1.918-4.079-1.373-8.51-1.372-12.589.001-.981.327-1.746 1.488-1.746 2.472v17.288c0 .988.765 1.432 1.746 1.103 4.079-1.374 8.51-1.374 12.589 0 .208.071.403.099.588.101v.017h2.144v-.017c.185 0 .385-.028.6-.101 4.079-1.374 8.506-1.374 12.585 0 .979.329 1.748-.115 1.748-1.103v-17.288c0-.984-.769-2.145-1.748-2.473zm-16.19 18.026c-3.914-1.256-8.13-1.256-12.043 0v-7.438c3.912-1.253 8.128-1.253 12.043 0v7.438zm0-9.807c-3.914-1.254-8.13-1.254-12.043.001v-1.91c3.912-1.254 8.128-1.254 12.043 0v1.909zm0-3.754c-3.914-1.256-8.13-1.256-12.043 0v-1.909c3.912-1.253 8.128-1.253 12.043-.001v1.91zm3.521-1.991c1.241-.422 2.516-.721 3.804-.889v5.484c-1.288.169-2.564.466-3.804.891v-5.486zm8.988 12.121c-3.007-.402-6.088-.106-8.988.885v-1.685c2.9-.993 5.98-1.287 8.988-.886v1.686zm3.797-2.888c-4.14-1.42-8.646-1.418-12.785.002v-1.633c4.14-1.427 8.646-1.432 12.785-.019v1.65zm0-3.768c-2.201-.748-4.505-1.08-6.801-1.025v-1.654c2.296-.049 4.6.292 6.801 1.044v1.635zm0 0" fill="#3A434E" sketch:type="MSShapeGroup"/></g></svg>