<svg width="32" height="232" xmlns="http://www.w3.org/2000/svg" xmlns:sketch="http://www.bohemiancoding.com/sketch/ns"><title>male</title><g sketch:type="MSPage" fill="none"><path d="M27.5 125h-9.798v2.615h5.264l-3.897 3.898c-1.609-1.192-3.514-1.797-5.424-1.797-2.342 0-4.682.893-6.468 2.679-3.569 3.569-3.569 9.356 0 12.929 1.786 1.786 4.127 2.677 6.468 2.677 2.338 0 4.678-.891 6.464-2.677 3.241-3.243 3.529-8.313.879-11.892l3.902-3.899-.002 5.264h2.613v-9.797zm-10.243 17.471c-.965.966-2.249 1.5-3.612 1.5-1.367 0-2.651-.534-3.615-1.5-.965-.965-1.497-2.247-1.497-3.612 0-1.365.532-2.649 1.497-3.615.964-.965 2.248-1.495 3.615-1.495 1.363 0 2.647.53 3.612 1.495.966.966 1.496 2.25 1.496 3.615 0 1.365-.53 2.647-1.496 3.612zm0 0" fill="#206FAC" sketch:type="MSShapeGroup"/><path d="M27.5 85h-9.798v2.615h5.264l-3.897 3.898c-1.609-1.192-3.514-1.797-5.424-1.797-2.342 0-4.682.893-6.468 2.679-3.569 3.569-3.569 9.356 0 12.929 1.786 1.786 4.127 2.677 6.468 2.677 2.338 0 4.678-.891 6.464-2.677 3.241-3.243 3.529-8.313.879-11.892l3.902-3.899-.002 5.264h2.613v-9.797zm-10.243 17.471c-.965.966-2.249 1.5-3.612 1.5-1.367 0-2.651-.534-3.615-1.5-.965-.965-1.497-2.247-1.497-3.612 0-1.365.532-2.649 1.497-3.615.964-.965 2.248-1.495 3.615-1.495 1.363 0 2.647.53 3.612 1.495.966.966 1.496 2.25 1.496 3.615 0 1.365-.53 2.647-1.496 3.612zm0 0" fill="#fff" sketch:type="MSShapeGroup"/><path d="M27.5 45h-9.798v2.615h5.264l-3.897 3.898c-1.609-1.192-3.514-1.797-5.424-1.797-2.342 0-4.682.893-6.468 2.679-3.569 3.569-3.569 9.356 0 12.929 1.786 1.786 4.127 2.677 6.468 2.677 2.338 0 4.678-.891 6.464-2.677 3.241-3.243 3.529-8.313.879-11.892l3.902-3.899-.002 5.264h2.613v-9.797zm-10.243 17.471c-.965.966-2.249 1.5-3.612 1.5-1.367 0-2.651-.534-3.615-1.5-.965-.965-1.497-2.247-1.497-3.612 0-1.365.532-2.649 1.497-3.615.964-.965 2.248-1.495 3.615-1.495 1.363 0 2.647.53 3.612 1.495.966.966 1.496 2.25 1.496 3.615 0 1.365-.53 2.647-1.496 3.612zm0 0" fill="#67737B" sketch:type="MSShapeGroup"/><path d="M27.5 5h-9.798v2.615h5.264l-3.897 3.898c-1.609-1.192-3.514-1.797-5.424-1.797-2.342 0-4.682.893-6.468 2.679-3.569 3.569-3.569 9.356 0 12.929 1.786 1.786 4.127 2.677 6.468 2.677 2.338 0 4.678-.891 6.464-2.677 3.241-3.243 3.529-8.313.879-11.892l3.902-3.899-.002 5.264h2.613v-9.797zm-10.243 17.471c-.965.966-2.249 1.5-3.612 1.5-1.367 0-2.651-.534-3.615-1.5-.965-.965-1.497-2.247-1.497-3.612 0-1.365.532-2.649 1.497-3.615.964-.965 2.248-1.495 3.615-1.495 1.363 0 2.647.53 3.612 1.495.966.966 1.496 2.25 1.496 3.615 0 1.365-.53 2.647-1.496 3.612zm0 0" fill="#3A434E" sketch:type="MSShapeGroup"/></g></svg>