<svg width="32" height="232" xmlns="http://www.w3.org/2000/svg" xmlns:sketch="http://www.bohemiancoding.com/sketch/ns"><title>metro</title><g sketch:type="MSPage" fill="none"><path d="M22.578 127.4c-2.421 0-2.96 1.335-4.187 4.974l-2.361 6.958-2.423-6.958c-1.226-3.639-1.765-4.974-4.185-4.974-1.226 0-2.752.484-3.201 2.898l-1.914 10.399c-.389 2.101-.807 4.402-.807 5.086 0 1.021.838 2.187 2.272 2.187 2.185 0 2.574-1.476 2.813-3.039l1.433-8.979 3.321 9.944c.479 1.477 1.195 2.074 2.659 2.074 1.468 0 2.186-.597 2.665-2.074l3.261-9.944 1.492 8.979c.238 1.563.627 3.039 2.812 3.039 1.435 0 2.272-1.166 2.272-2.187 0-.684-.419-2.985-.81-5.086l-1.909-10.399c-.449-2.414-1.976-2.898-3.203-2.898zm0 0" fill="#206FAC" sketch:type="MSShapeGroup"/><path d="M22.578 87.4c-2.421 0-2.96 1.335-4.187 4.974l-2.361 6.958-2.423-6.958c-1.226-3.639-1.765-4.974-4.185-4.974-1.226 0-2.752.484-3.201 2.898l-1.914 10.399c-.389 2.101-.807 4.402-.807 5.086 0 1.021.838 2.187 2.272 2.187 2.185 0 2.574-1.476 2.813-3.039l1.433-8.979 3.321 9.944c.479 1.477 1.195 2.074 2.659 2.074 1.468 0 2.186-.597 2.665-2.074l3.261-9.944 1.492 8.979c.238 1.563.627 3.039 2.812 3.039 1.435 0 2.272-1.166 2.272-2.187 0-.684-.419-2.985-.81-5.086l-1.909-10.399c-.449-2.414-1.976-2.898-3.203-2.898zm0 0" fill="#fff" sketch:type="MSShapeGroup"/><path d="M22.578 47.4c-2.421 0-2.96 1.335-4.187 4.974l-2.361 6.958-2.423-6.958c-1.226-3.639-1.765-4.974-4.185-4.974-1.226 0-2.752.484-3.201 2.898l-1.914 10.399c-.389 2.101-.807 4.402-.807 5.086 0 1.021.838 2.187 2.272 2.187 2.185 0 2.574-1.476 2.813-3.039l1.433-8.979 3.321 9.944c.479 1.477 1.195 2.074 2.659 2.074 1.468 0 2.186-.597 2.665-2.074l3.261-9.944 1.492 8.979c.238 1.563.627 3.039 2.812 3.039 1.435 0 2.272-1.166 2.272-2.187 0-.684-.419-2.985-.81-5.086l-1.909-10.399c-.449-2.414-1.976-2.898-3.203-2.898zm0 0" fill="#67737B" sketch:type="MSShapeGroup"/><path d="M22.578 7.4c-2.421 0-2.96 1.335-4.187 4.974l-2.361 6.958-2.423-6.958c-1.226-3.639-1.765-4.974-4.185-4.974-1.226 0-2.752.484-3.201 2.898l-1.914 10.399c-.389 2.101-.807 4.402-.807 5.086 0 1.021.838 2.187 2.272 2.187 2.185 0 2.574-1.476 2.813-3.039l1.433-8.979 3.321 9.944c.479 1.477 1.195 2.074 2.659 2.074 1.468 0 2.186-.597 2.665-2.074l3.261-9.944 1.492 8.979c.238 1.563.627 3.039 2.812 3.039 1.435 0 2.272-1.166 2.272-2.187 0-.684-.419-2.985-.81-5.086l-1.909-10.399c-.449-2.414-1.976-2.898-3.203-2.898zm0 0" fill="#3A434E" sketch:type="MSShapeGroup"/></g></svg>