<svg width="32" height="232" xmlns="http://www.w3.org/2000/svg" xmlns:sketch="http://www.bohemiancoding.com/sketch/ns"><title>monorail</title><g sketch:type="MSPage" fill="none"><path d="M21.164 138.801c-.947 0-1.708.716-1.708 1.613 0 .885.761 1.598 1.708 1.598.94 0 1.702-.713 1.702-1.598 0-.897-.762-1.613-1.702-1.613zm1.575-12.782h-13.47c-.757 0-1.375.5-1.375 1.108v9.115c0 .612.618 1.102 1.375 1.102h13.47c.758 0 1.368-.49 1.368-1.102v-9.115c0-.608-.61-1.108-1.368-1.108zm3.761 15.596c0 1.213-1.229 2.215-2.744 2.215h-5.408v3.015h2.652c.599 0 1.098.487 1.098 1.081 0 .588-.499 1.074-1.098 1.074h-10.007c-.597 0-1.091-.486-1.091-1.074 0-.594.494-1.081 1.091-1.081h2.769v-3.015h-5.52c-1.504 0-2.742-1.002-2.742-2.215v-15.603c0-1.215 1.238-2.213 2.742-2.213h15.514c1.515 0 2.744.998 2.744 2.213v15.603zm-15.662-2.814c-.936 0-1.701.716-1.701 1.613 0 .885.765 1.598 1.701 1.598s1.713-.713 1.713-1.598c0-.897-.777-1.613-1.713-1.613zm0 0" fill="#206FAC" sketch:type="MSShapeGroup"/><path d="M21.164 98.801c-.947 0-1.708.716-1.708 1.613 0 .885.761 1.598 1.708 1.598.94 0 1.702-.713 1.702-1.598 0-.897-.762-1.613-1.702-1.613zm1.575-12.782h-13.47c-.757 0-1.375.5-1.375 1.108v9.115c0 .612.618 1.102 1.375 1.102h13.47c.758 0 1.368-.49 1.368-1.102v-9.115c0-.608-.61-1.108-1.368-1.108zm3.761 15.596c0 1.213-1.229 2.215-2.744 2.215h-5.408v3.015h2.652c.599 0 1.098.487 1.098 1.081 0 .588-.499 1.074-1.098 1.074h-10.007c-.597 0-1.091-.486-1.091-1.074 0-.594.494-1.081 1.091-1.081h2.769v-3.015h-5.52c-1.504 0-2.742-1.002-2.742-2.215v-15.603c0-1.215 1.238-2.213 2.742-2.213h15.514c1.515 0 2.744.998 2.744 2.213v15.603zm-15.662-2.814c-.936 0-1.701.716-1.701 1.613 0 .885.765 1.598 1.701 1.598s1.713-.713 1.713-1.598c0-.897-.777-1.613-1.713-1.613zm0 0" fill="#fff" sketch:type="MSShapeGroup"/><path d="M21.164 58.801c-.947 0-1.708.716-1.708 1.613 0 .885.761 1.598 1.708 1.598.94 0 1.702-.713 1.702-1.598 0-.897-.762-1.613-1.702-1.613zm1.575-12.782h-13.47c-.757 0-1.375.5-1.375 1.108v9.115c0 .612.618 1.102 1.375 1.102h13.47c.758 0 1.368-.49 1.368-1.102v-9.115c0-.608-.61-1.108-1.368-1.108zm3.761 15.596c0 1.213-1.229 2.215-2.744 2.215h-5.408v3.015h2.652c.599 0 1.098.487 1.098 1.081 0 .588-.499 1.074-1.098 1.074h-10.007c-.597 0-1.091-.486-1.091-1.074 0-.594.494-1.081 1.091-1.081h2.769v-3.015h-5.52c-1.504 0-2.742-1.002-2.742-2.215v-15.603c0-1.215 1.238-2.213 2.742-2.213h15.514c1.515 0 2.744.998 2.744 2.213v15.603zm-15.662-2.814c-.936 0-1.701.716-1.701 1.613 0 .885.765 1.598 1.701 1.598s1.713-.713 1.713-1.598c0-.897-.777-1.613-1.713-1.613zm0 0" fill="#67737B" sketch:type="MSShapeGroup"/><path d="M21.164 18.801c-.947 0-1.708.716-1.708 1.613 0 .885.761 1.598 1.708 1.598.94 0 1.702-.713 1.702-1.598 0-.897-.762-1.613-1.702-1.613zm1.575-12.782h-13.47c-.757 0-1.375.5-1.375 1.108v9.115c0 .612.618 1.102 1.375 1.102h13.47c.758 0 1.368-.49 1.368-1.102v-9.115c0-.608-.61-1.108-1.368-1.108zm3.761 15.596c0 1.213-1.229 2.215-2.744 2.215h-5.408v3.015h2.652c.599 0 1.098.487 1.098 1.081 0 .588-.499 1.074-1.098 1.074h-10.007c-.597 0-1.091-.486-1.091-1.074 0-.594.494-1.081 1.091-1.081h2.769v-3.015h-5.52c-1.504 0-2.742-1.002-2.742-2.215v-15.603c0-1.215 1.238-2.213 2.742-2.213h15.514c1.515 0 2.744.998 2.744 2.213v15.603zm-15.662-2.814c-.936 0-1.701.716-1.701 1.613 0 .885.765 1.598 1.701 1.598s1.713-.713 1.713-1.598c0-.897-.777-1.613-1.713-1.613zm0 0" fill="#3A434E" sketch:type="MSShapeGroup"/></g></svg>