<svg width="32" height="232" viewBox="0 0 32 232" xmlns="http://www.w3.org/2000/svg" xmlns:sketch="http://www.bohemiancoding.com/sketch/ns"><title>nd</title><g sketch:type="MSPage" fill="none"><path d="M15.971 120c4.474 0 8.269 1.555 11.373 4.658 3.101 3.088 4.656 6.867 4.656 11.342 0 4.475-1.525 8.228-4.57 11.256-3.219 3.164-7.045 4.744-11.459 4.744-4.323 0-8.073-1.57-11.256-4.715-3.145-3.146-4.715-6.906-4.715-11.285 0-4.365 1.57-8.138 4.715-11.342 3.103-3.103 6.853-4.658 11.256-4.658zm.058 2.883c-3.642 0-6.714 1.291-9.226 3.863-2.613 2.641-3.918 5.728-3.918 9.254 0 3.562 1.297 6.627 3.888 9.197 2.592 2.594 5.672 3.885 9.256 3.885 3.563 0 6.664-1.3 9.315-3.908 2.509-2.438 3.771-5.496 3.771-9.174 0-3.656-1.277-6.744-3.832-9.254-2.531-2.572-5.619-3.863-9.254-3.863zm-5.599 9.345h11.629v2.745h-11.629v-2.745zm0 5.145h11.629v2.742h-11.629v-2.742zm0 0" fill="#206FAC" sketch:type="MSShapeGroup"/><path d="M15.971 80c4.474 0 8.269 1.555 11.373 4.658 3.101 3.088 4.656 6.867 4.656 11.342 0 4.475-1.525 8.228-4.57 11.256-3.219 3.164-7.045 4.744-11.459 4.744-4.323 0-8.073-1.57-11.256-4.715-3.145-3.146-4.715-6.906-4.715-11.285 0-4.365 1.57-8.138 4.715-11.342 3.103-3.103 6.853-4.658 11.256-4.658zm.058 2.883c-3.642 0-6.714 1.291-9.226 3.863-2.613 2.641-3.918 5.728-3.918 9.254 0 3.562 1.297 6.627 3.888 9.197 2.592 2.594 5.672 3.885 9.256 3.885 3.563 0 6.664-1.3 9.315-3.908 2.509-2.438 3.771-5.496 3.771-9.174 0-3.656-1.277-6.744-3.832-9.254-2.531-2.572-5.619-3.863-9.254-3.863zm-5.599 9.345h11.629v2.745h-11.629v-2.745zm0 5.145h11.629v2.742h-11.629v-2.742zm0 0" fill="#fff" sketch:type="MSShapeGroup"/><path d="M15.971 40c4.474 0 8.269 1.555 11.373 4.658 3.101 3.088 4.656 6.867 4.656 11.342 0 4.475-1.525 8.228-4.57 11.256-3.219 3.164-7.045 4.744-11.459 4.744-4.323 0-8.073-1.57-11.256-4.715-3.145-3.146-4.715-6.906-4.715-11.285 0-4.365 1.57-8.138 4.715-11.342 3.103-3.103 6.853-4.658 11.256-4.658zm.058 2.883c-3.642 0-6.714 1.291-9.226 3.863-2.613 2.641-3.918 5.728-3.918 9.254 0 3.562 1.297 6.627 3.888 9.197 2.592 2.594 5.672 3.885 9.256 3.885 3.563 0 6.664-1.3 9.315-3.908 2.509-2.438 3.771-5.496 3.771-9.174 0-3.656-1.277-6.744-3.832-9.254-2.531-2.572-5.619-3.863-9.254-3.863zm-5.599 9.345h11.629v2.745h-11.629v-2.745zm0 5.145h11.629v2.742h-11.629v-2.742zm0 0" fill="#67737B" sketch:type="MSShapeGroup"/><path d="M15.971 0c4.474 0 8.269 1.555 11.373 4.658 3.101 3.088 4.656 6.867 4.656 11.342 0 4.475-1.525 8.228-4.57 11.256-3.219 3.164-7.045 4.744-11.459 4.744-4.323 0-8.073-1.57-11.256-4.715-3.145-3.146-4.715-6.906-4.715-11.285 0-4.365 1.57-8.138 4.715-11.342 3.103-3.103 6.853-4.658 11.256-4.658zm.058 2.883c-3.642 0-6.714 1.291-9.226 3.863-2.613 2.641-3.918 5.728-3.918 9.254 0 3.562 1.297 6.627 3.888 9.197 2.592 2.594 5.672 3.885 9.256 3.885 3.563 0 6.664-1.3 9.315-3.908 2.509-2.438 3.771-5.496 3.771-9.174 0-3.656-1.277-6.744-3.832-9.254-2.531-2.572-5.619-3.863-9.254-3.863zm-5.599 9.345h11.629v2.745h-11.629v-2.745zm0 5.145h11.629v2.742h-11.629v-2.742zm0 0" fill="#3B444F" sketch:type="MSShapeGroup"/></g></svg>