<svg width="32" height="232" viewBox="0 0 32 232" xmlns="http://www.w3.org/2000/svg"><title>no-comment</title><g fill="none"><g fill="#3A434E"><path d="M11.344 29.262v-6.323c-4.6-1.484-7.645-5.026-7.645-8.971 0-5.35 5.535-9.706 12.34-9.706 6.811 0 12.354 4.356 12.354 9.706 0 2.91-1.62 5.623-4.452 7.468l-.046.067-.196.084c-1.844 1.154-4.07 1.855-6.453 2.045l-5.902 5.63zm4.695-23.324c-5.881 0-10.666 3.603-10.666 8.03 0 3.355 2.824 6.384 7.029 7.542l.618.169v3.669l3.511-3.349.307-.02c2.205-.129 4.258-.75 5.941-1.791l.139-.086c2.418-1.535 3.799-3.767 3.799-6.134 0-4.427-4.791-8.03-10.678-8.03zm0 0M25.881 25.692l-20.794-20.793c-.488-.489-.488-1.281 0-1.77.488-.489 1.28-.489 1.77 0l20.793 20.794c.489.488.489 1.281 0 1.769-.488.488-1.281.488-1.769 0"/></g><path d="M11.344 69.262v-6.323c-4.6-1.484-7.645-5.026-7.645-8.971 0-5.35 5.535-9.706 12.34-9.706 6.811 0 12.354 4.356 12.354 9.706 0 2.91-1.62 5.623-4.452 7.468l-.046.067-.196.084c-1.844 1.154-4.07 1.855-6.453 2.045l-5.902 5.63zm4.695-23.324c-5.881 0-10.666 3.603-10.666 8.03 0 3.355 2.824 6.384 7.029 7.542l.618.169v3.669l3.511-3.349.307-.02c2.205-.129 4.258-.75 5.941-1.791l.139-.086c2.418-1.535 3.799-3.767 3.799-6.134 0-4.427-4.791-8.03-10.678-8.03zm0 0 9.842 19.754l-20.794-20.793c-.488-.489-.488-1.281 0-1.77.488-.489 1.28-.489 1.77 0l20.793 20.794c.489.488.489 1.281 0 1.769-.488.488-1.281.488-1.769 0" fill="#67737B"/><path d="M11.344 109.262v-6.323c-4.6-1.484-7.645-5.026-7.645-8.971 0-5.35 5.535-9.706 12.34-9.706 6.811 0 12.354 4.356 12.354 9.706 0 2.91-1.62 5.623-4.452 7.468l-.046.067-.196.084c-1.844 1.154-4.07 1.855-6.453 2.045l-5.902 5.63zm4.695-23.324c-5.881 0-10.666 3.603-10.666 8.03 0 3.355 2.824 6.384 7.029 7.542l.618.169v3.669l3.511-3.349.307-.02c2.205-.129 4.258-.75 5.941-1.791l.139-.086c2.418-1.535 3.799-3.767 3.799-6.134 0-4.427-4.791-8.03-10.678-8.03zm0 0l9.842 19.754-20.794-20.793c-.488-.489-.488-1.281 0-1.77.488-.489 1.28-.489 1.77 0l20.793 20.794c.489.488.489 1.281 0 1.769-.488.488-1.281.488-1.769 0" fill="#fff"/><path d="M11.344 149.262v-6.323c-4.6-1.484-7.645-5.026-7.645-8.971 0-5.35 5.535-9.706 12.34-9.706 6.811 0 12.354 4.356 12.354 9.706 0 2.91-1.62 5.623-4.452 7.468l-.046.067-.196.084c-1.844 1.154-4.07 1.855-6.453 2.045l-5.902 5.63zm4.695-23.324c-5.881 0-10.666 3.603-10.666 8.03 0 3.355 2.824 6.384 7.029 7.542l.618.169v3.669l3.511-3.349.307-.02c2.205-.129 4.258-.75 5.941-1.791l.139-.086c2.418-1.535 3.799-3.767 3.799-6.134 0-4.427-4.791-8.03-10.678-8.03zm0 0l9.842 19.754-20.794-20.793c-.488-.489-.488-1.281 0-1.77.488-.489 1.28-.489 1.77 0l20.793 20.794c.489.488.489 1.281 0 1.769-.488.488-1.281.488-1.769 0" fill="#206FAC"/></g></svg>