<svg width="32" height="232" viewBox="0 0 32 232" xmlns="http://www.w3.org/2000/svg"><title>non-smoking</title><g fill="none"><path d="M24.839 127.662c-2.363-2.361-5.5-3.662-8.839-3.662-3.338 0-6.477 1.301-8.838 3.662-2.362 2.361-3.662 5.498-3.662 8.838 0 3.338 1.3 6.477 3.662 8.838 2.361 2.361 5.5 3.662 8.838 3.662 3.339 0 6.476-1.301 8.839-3.662 2.36-2.361 3.661-5.5 3.661-8.838 0-3.34-1.301-6.477-3.661-8.838zm-1.683 8.641c.008.115.088.246.215.216.185-.049.332-.386.404-.53.268-.537.506-1.233.418-1.837-.047-.324-.195-.664-.443-.889l-.112-.09c-.312-.218-.718-.33-.937-.657-.248-.371-.371-.83-.379-1.27-.006-.425-.277-.113-.399.056-.412.556-.873 1.165-.949 1.864-.062.583.207 1.098.647 1.479.301.258.66.443.982.673.356.254.518.555.553.985zm2.555.197c0 2.135-.694 4.114-1.866 5.719l-13.562-13.565c1.603-1.172 3.58-1.867 5.717-1.867 5.355 0 9.711 4.358 9.711 9.713zm-19.422 0c0-2.173.716-4.179 1.925-5.8l13.586 13.585c-1.621 1.209-3.628 1.928-5.8 1.928-5.356 0-9.711-4.357-9.711-9.713zm1.734.639v2.237h8.699l-2.24-2.237h-6.459zm14.244 2.237v-2.237h-3.332l2.238 2.237h1.094zm.391-2.271h1.701v2.262h-1.701v-2.262zm0 0" fill="#206FAC"/><path d="M24.839 87.662c-2.363-2.361-5.5-3.662-8.839-3.662-3.338 0-6.477 1.301-8.838 3.662-2.362 2.361-3.662 5.498-3.662 8.838 0 3.338 1.3 6.477 3.662 8.838 2.361 2.361 5.5 3.662 8.838 3.662 3.339 0 6.476-1.301 8.839-3.662 2.36-2.361 3.661-5.5 3.661-8.838 0-3.34-1.301-6.477-3.661-8.838zm-1.683 8.641c.008.115.088.246.215.216.185-.049.332-.386.404-.53.268-.537.506-1.233.418-1.837-.047-.324-.195-.664-.443-.889l-.112-.09c-.312-.218-.718-.33-.937-.657-.248-.371-.371-.83-.379-1.27-.006-.425-.277-.113-.399.056-.412.556-.873 1.165-.949 1.864-.062.583.207 1.098.647 1.479.301.258.66.443.982.673.356.254.518.555.553.985zm2.555.197c0 2.135-.694 4.114-1.866 5.719l-13.562-13.565c1.603-1.172 3.58-1.867 5.717-1.867 5.355 0 9.711 4.358 9.711 9.713zm-19.422 0c0-2.173.716-4.179 1.925-5.8l13.586 13.585c-1.621 1.209-3.628 1.928-5.8 1.928-5.356 0-9.711-4.357-9.711-9.713zm1.734.639v2.237h8.699l-2.24-2.237h-6.459zm14.244 2.237v-2.237h-3.332l2.238 2.237h1.094zm.391-2.271h1.701v2.262h-1.701v-2.262zm0 0" fill="#fff"/><path d="M24.839 47.662c-2.363-2.361-5.5-3.662-8.839-3.662-3.338 0-6.477 1.301-8.838 3.662-2.362 2.361-3.662 5.498-3.662 8.838 0 3.338 1.3 6.477 3.662 8.838 2.361 2.361 5.5 3.662 8.838 3.662 3.339 0 6.476-1.301 8.839-3.662 2.36-2.361 3.661-5.5 3.661-8.838 0-3.34-1.301-6.477-3.661-8.838zm-1.683 8.641c.008.115.088.246.215.216.185-.049.332-.386.404-.53.268-.537.506-1.233.418-1.837-.047-.324-.195-.664-.443-.889l-.112-.09c-.312-.218-.718-.33-.937-.657-.248-.371-.371-.83-.379-1.27-.006-.425-.277-.113-.399.056-.412.556-.873 1.165-.949 1.864-.062.583.207 1.098.647 1.479.301.258.66.443.982.673.356.254.518.555.553.985zm2.555.197c0 2.135-.694 4.114-1.866 5.719l-13.562-13.565c1.603-1.172 3.58-1.867 5.717-1.867 5.355 0 9.711 4.358 9.711 9.713zm-19.422 0c0-2.173.716-4.179 1.925-5.8l13.586 13.585c-1.621 1.209-3.628 1.928-5.8 1.928-5.356 0-9.711-4.357-9.711-9.713zm1.734.639v2.237h8.699l-2.24-2.237h-6.459zm14.244 2.237v-2.237h-3.332l2.238 2.237h1.094zm.391-2.271h1.701v2.262h-1.701v-2.262zm0 0" fill="#67737B"/><path d="M24.839 7.662c-2.363-2.361-5.5-3.662-8.839-3.662-3.338 0-6.477 1.301-8.838 3.662-2.362 2.361-3.662 5.498-3.662 8.838 0 3.338 1.3 6.477 3.662 8.838 2.361 2.361 5.5 3.662 8.838 3.662 3.339 0 6.476-1.301 8.839-3.662 2.36-2.361 3.661-5.5 3.661-8.838 0-3.34-1.301-6.477-3.661-8.838zm-1.683 8.641c.008.115.088.246.215.216.185-.049.332-.386.404-.53.268-.537.506-1.233.418-1.837-.047-.324-.195-.664-.443-.889l-.112-.09c-.312-.218-.718-.33-.937-.657-.248-.371-.371-.83-.379-1.27-.006-.425-.277-.113-.399.056-.412.556-.873 1.165-.949 1.864-.062.583.207 1.098.647 1.479.301.258.66.443.982.673.356.254.518.555.553.985zm2.555.197c0 2.135-.694 4.114-1.866 5.719l-13.562-13.565c1.603-1.172 3.58-1.867 5.717-1.867 5.355 0 9.711 4.358 9.711 9.713zm-19.422 0c0-2.173.716-4.179 1.925-5.8l13.586 13.585c-1.621 1.209-3.628 1.928-5.8 1.928-5.356 0-9.711-4.357-9.711-9.713zm1.734.639v2.237h8.699l-2.24-2.237h-6.459zm14.244 2.237v-2.237h-3.332l2.238 2.237h1.094zm.391-2.271h1.701v2.262h-1.701v-2.262zm0 0" fill="#3A434E"/></g></svg>