<svg width="32" height="232" viewBox="0 0 32 232" xmlns="http://www.w3.org/2000/svg"><title>outdoor-space</title><g fill="none"><path d="M28.595 135.845h-3.839c-.767.005-1.391.643-1.391 1.423 0 .748.557 1.356 1.301 1.424l.201.006h.06v.91h-3.703l-1.671-6.068h3.021l.097-.011c.917-.055 1.642-.824 1.642-1.763 0-.971-.783-1.766-1.781-1.766h-13.254c-.962 0-1.747.795-1.747 1.766 0 .927.714 1.695 1.614 1.76l.112.014h3.254l-1.703 6.068h-3.727v-.91h.074l.088.007c.78 0 1.413-.642 1.413-1.437 0-.784-.632-1.423-1.413-1.423h-3.832c-.775 0-1.41.639-1.41 1.423 0 .795.634 1.437 1.412 1.437l.088-.007h.082v2.153c0 1.529.636 2.304 1.881 2.304h4.094l-1.294 3.696c-.285.826.146 1.749.96 2.05.803.296 1.749-.151 2.048-.969l.018-.061 1.663-4.716h6.093l1.716 4.779c.229.638.832 1.066 1.498 1.066.186 0 .377-.031.55-.099.805-.297 1.229-1.19.97-2.016l-.02-.07-1.314-3.66h4.102c1.159 0 1.882-.643 1.882-1.686v-2.771h.068l.187-.002c.732-.047 1.315-.67 1.315-1.428 0-.78-.63-1.418-1.405-1.423zm-14.437 3.763l1.677-6.068h.321l1.626 6.068h-3.623zm0 0" fill="#206FAC"/><path d="M28.595 95.845h-3.839c-.767.005-1.391.643-1.391 1.423 0 .748.557 1.356 1.301 1.424l.201.006h.06v.91h-3.703l-1.671-6.068h3.021l.097-.011c.917-.055 1.642-.824 1.642-1.763 0-.971-.783-1.766-1.781-1.766h-13.254c-.962 0-1.747.795-1.747 1.766 0 .927.714 1.695 1.614 1.76l.112.014h3.254l-1.703 6.068h-3.727v-.91h.074l.088.007c.78 0 1.413-.642 1.413-1.437 0-.784-.632-1.423-1.413-1.423h-3.832c-.775 0-1.41.639-1.41 1.423 0 .795.634 1.437 1.412 1.437l.088-.007h.082v2.153c0 1.529.636 2.304 1.881 2.304h4.094l-1.294 3.696c-.285.826.146 1.749.96 2.05.803.296 1.749-.151 2.048-.969l.018-.061 1.663-4.716h6.093l1.716 4.779c.229.638.832 1.066 1.498 1.066.186 0 .377-.031.55-.099.805-.297 1.229-1.19.97-2.016l-.02-.07-1.314-3.66h4.102c1.159 0 1.882-.643 1.882-1.686v-2.771h.068l.187-.002c.732-.047 1.315-.67 1.315-1.428 0-.78-.63-1.418-1.405-1.423zm-14.437 3.763l1.677-6.068h.321l1.626 6.068h-3.623zm0 0" fill="#fff"/><path d="M28.595 55.845h-3.839c-.767.005-1.391.643-1.391 1.423 0 .748.557 1.356 1.301 1.424l.201.006h.06v.91h-3.703l-1.671-6.068h3.021l.097-.011c.917-.055 1.642-.824 1.642-1.763 0-.971-.783-1.766-1.781-1.766h-13.254c-.962 0-1.747.795-1.747 1.766 0 .927.714 1.695 1.614 1.76l.112.014h3.254l-1.703 6.068h-3.727v-.91h.074l.088.007c.78 0 1.413-.642 1.413-1.437 0-.784-.632-1.423-1.413-1.423h-3.832c-.775 0-1.41.639-1.41 1.423 0 .795.634 1.437 1.412 1.437l.088-.007h.082v2.153c0 1.529.636 2.304 1.881 2.304h4.094l-1.294 3.696c-.285.826.146 1.749.96 2.05.803.296 1.749-.151 2.048-.969l.018-.061 1.663-4.716h6.093l1.716 4.779c.229.638.832 1.066 1.498 1.066.186 0 .377-.031.55-.099.805-.297 1.229-1.19.97-2.016l-.02-.07-1.314-3.66h4.102c1.159 0 1.882-.643 1.882-1.686v-2.771h.068l.187-.002c.732-.047 1.315-.67 1.315-1.428 0-.78-.63-1.418-1.405-1.423zm-14.437 3.763l1.677-6.068h.321l1.626 6.068h-3.623zm0 0" fill="#67737B"/><path d="M28.595 15.845h-3.839c-.767.005-1.391.643-1.391 1.423 0 .748.557 1.356 1.301 1.424l.201.006h.06v.91h-3.703l-1.671-6.068h3.021l.097-.011c.917-.055 1.642-.824 1.642-1.763 0-.971-.783-1.766-1.781-1.766h-13.254c-.962 0-1.747.795-1.747 1.766 0 .927.714 1.695 1.614 1.76l.112.014h3.254l-1.703 6.068h-3.727v-.91h.074l.088.007c.78 0 1.413-.642 1.413-1.437 0-.784-.632-1.423-1.413-1.423h-3.832c-.775 0-1.41.639-1.41 1.423 0 .795.634 1.437 1.412 1.437l.088-.007h.082v2.153c0 1.529.636 2.304 1.881 2.304h4.094l-1.294 3.696c-.285.826.146 1.749.96 2.05.803.296 1.749-.151 2.048-.969l.018-.061 1.663-4.716h6.093l1.716 4.779c.229.638.832 1.066 1.498 1.066.186 0 .377-.031.55-.099.805-.297 1.229-1.19.97-2.016l-.02-.07-1.314-3.66h4.102c1.159 0 1.882-.643 1.882-1.686v-2.771h.068l.187-.002c.732-.047 1.315-.67 1.315-1.428 0-.78-.63-1.418-1.405-1.423zm-14.437 3.763l1.677-6.068h.321l1.626 6.068h-3.623zm0 0" fill="#3A434E"/></g></svg>