<svg width="32" height="232" xmlns="http://www.w3.org/2000/svg" xmlns:sketch="http://www.bohemiancoding.com/sketch/ns"><title>paper-airplane</title><g sketch:type="MSPage" fill="none"><path d="M31.914 123.527c.22-.478.003-.704-.484-.5l-31.047 13.009c-.486.203-.513.592-.061.861l5.732 3.425c.452.271.823.923.823 1.45v6.946c0 .527.346.701.77.387l5.327-3.948c.423-.313 1.15-.365 1.614-.116l5.098 2.743c.464.25 1.024.063 1.244-.416l10.984-23.841zm-23.888 23.802l.432-7.282 22.404-15.952-20.297 17.724-2.539 5.51zm0 0" fill="#206FAC" sketch:type="MSShapeGroup"/><path d="M31.914 83.527c.22-.478.003-.704-.484-.5l-31.047 13.009c-.486.203-.513.592-.061.861l5.732 3.425c.452.271.823.923.823 1.45v6.946c0 .527.346.701.77.387l5.327-3.948c.423-.313 1.15-.365 1.614-.116l5.098 2.743c.464.25 1.024.063 1.244-.416l10.984-23.841zm-23.888 23.802l.432-7.282 22.404-15.952-20.297 17.724-2.539 5.51zm0 0" fill="#fff" sketch:type="MSShapeGroup"/><path d="M31.914 43.527c.22-.478.003-.704-.484-.5l-31.047 13.009c-.486.203-.513.592-.061.861l5.732 3.425c.452.271.823.923.823 1.45v6.946c0 .527.346.701.77.387l5.327-3.948c.423-.313 1.15-.365 1.614-.116l5.098 2.743c.464.25 1.024.063 1.244-.416l10.984-23.841zm-23.888 23.802l.432-7.282 22.404-15.952-20.297 17.724-2.539 5.51zm0 0" fill="#67737B" sketch:type="MSShapeGroup"/><path d="M31.914 3.527c.22-.478.003-.704-.484-.5l-31.047 13.009c-.486.203-.513.592-.061.861l5.732 3.425c.452.271.823.923.823 1.45v6.946c0 .527.346.701.77.387l5.327-3.948c.423-.313 1.15-.365 1.614-.116l5.098 2.743c.464.25 1.024.063 1.244-.416l10.984-23.841zm-23.888 23.802l.432-7.282 22.404-15.952-20.297 17.724-2.539 5.51zm0 0" fill="#3A434E" sketch:type="MSShapeGroup"/></g></svg>