<svg width="32" height="232" viewBox="0 0 32 232" xmlns="http://www.w3.org/2000/svg"><title>paperclip</title><g fill="none"><path d="M27.665 17.686c2.493 2.508 2.493 6.572.001 9.078-2.492 2.507-6.533 2.507-9.024 0 0 0-14.898-14.985-14.792-14.878-1.8-1.809-1.8-4.745 0-6.555 1.8-1.81 4.718-1.81 6.518 0-.155-.155 14.79 14.876 14.79 14.876 1.107 1.115 1.108 2.921.001 4.036-1.107 1.113-2.904 1.113-4.013 0l-10.778-10.843c-.416-.417-.416-1.095 0-1.512.415-.42 1.088-.42 1.504 0l10.779 10.841c.277.278.727.278 1.002 0 .278-.278.278-.73 0-1.008 0 0-21.586-21.714-14.789-14.877-.969-.975-2.541-.975-3.511 0-.968.975-.968 2.556.001 3.53-6.815-6.853 14.79 14.877 14.79 14.877 1.661 1.671 4.355 1.672 6.016 0 1.661-1.673 1.662-4.382 0-6.052l-14.289-14.373c-.415-.417-.415-1.094 0-1.512.415-.418 1.089-.418 1.503 0l14.289 14.372" fill="#3A434E"/><path d="M27.667 57.686c2.493 2.508 2.493 6.572.001 9.078-2.492 2.507-6.533 2.507-9.024 0 0 0-14.898-14.985-14.792-14.878-1.8-1.809-1.8-4.745 0-6.555 1.8-1.81 4.718-1.81 6.518 0-.155-.155 14.79 14.876 14.79 14.876 1.107 1.115 1.108 2.921.001 4.036-1.107 1.113-2.904 1.113-4.013 0l-10.778-10.843c-.416-.417-.416-1.095 0-1.512.415-.42 1.088-.42 1.504 0l10.779 10.841c.277.278.727.278 1.002 0 .278-.278.278-.73 0-1.008 0 0-21.586-21.714-14.789-14.877-.969-.975-2.541-.975-3.511 0-.968.975-.968 2.556.001 3.53-6.815-6.853 14.79 14.877 14.79 14.877 1.661 1.671 4.355 1.672 6.016 0 1.661-1.673 1.662-4.382 0-6.052l-14.289-14.373c-.415-.417-.415-1.094 0-1.512.415-.418 1.089-.418 1.503 0l14.289 14.372" fill="#67737B"/><path d="M27.667 97.686c2.493 2.508 2.493 6.572.001 9.078-2.492 2.507-6.533 2.507-9.024 0 0 0-14.898-14.985-14.792-14.878-1.8-1.809-1.8-4.745 0-6.555 1.8-1.81 4.718-1.81 6.518 0-.155-.155 14.79 14.876 14.79 14.876 1.107 1.115 1.108 2.921.001 4.036-1.107 1.113-2.904 1.113-4.013 0l-10.778-10.843c-.416-.417-.416-1.095 0-1.512.415-.42 1.088-.42 1.504 0l10.779 10.841c.277.278.727.278 1.002 0 .278-.278.278-.73 0-1.008 0 0-21.586-21.714-14.789-14.877-.969-.975-2.541-.975-3.511 0-.968.975-.968 2.556.001 3.53-6.815-6.853 14.79 14.877 14.79 14.877 1.661 1.671 4.355 1.672 6.016 0 1.661-1.673 1.662-4.382 0-6.052l-14.289-14.373c-.415-.417-.415-1.094 0-1.512.415-.418 1.089-.418 1.503 0l14.289 14.372" fill="#fff"/><path d="M27.667 137.686c2.493 2.508 2.493 6.572.001 9.078-2.492 2.507-6.533 2.507-9.024 0 0 0-14.898-14.985-14.792-14.878-1.8-1.809-1.8-4.745 0-6.555 1.8-1.81 4.718-1.81 6.518 0-.155-.155 14.79 14.876 14.79 14.876 1.107 1.115 1.108 2.921.001 4.036-1.107 1.113-2.904 1.113-4.013 0l-10.778-10.843c-.416-.417-.416-1.095 0-1.512.415-.42 1.088-.42 1.504 0l10.779 10.841c.277.278.727.278 1.002 0 .278-.278.278-.73 0-1.008 0 0-21.586-21.714-14.789-14.877-.969-.975-2.541-.975-3.511 0-.968.975-.968 2.556.001 3.53-6.815-6.853 14.79 14.877 14.79 14.877 1.661 1.671 4.355 1.672 6.016 0 1.661-1.673 1.662-4.382 0-6.052l-14.289-14.373c-.415-.417-.415-1.094 0-1.512.415-.418 1.089-.418 1.503 0l14.289 14.372" fill="#206FAC"/></g></svg>