<svg width="32" height="232" xmlns="http://www.w3.org/2000/svg" xmlns:sketch="http://www.bohemiancoding.com/sketch/ns"><title>parking</title><g sketch:type="MSPage" fill="none"><path d="M16.672 124h-7.588c-1.6 0-3.084 1.05-3.084 2.932v19.955c0 2.06 1.293 3.113 3.084 3.113 1.799 0 3.088-1.053 3.088-3.113v-5.394h4.689c5.866 0 9.102-3.697 9.102-8.728 0-5.833-4.529-8.765-9.291-8.765zm-1.19 12.277h-3.31v-7.059h3.31c2.442 0 4.082 1.228 4.082 3.547 0 1.81-1.447 3.512-4.082 3.512zm0 0" fill="#206FAC" sketch:type="MSShapeGroup"/><path d="M16.672 84h-7.588c-1.6 0-3.084 1.05-3.084 2.932v19.955c0 2.06 1.293 3.113 3.084 3.113 1.799 0 3.088-1.053 3.088-3.113v-5.394h4.689c5.866 0 9.102-3.697 9.102-8.728 0-5.833-4.529-8.765-9.291-8.765zm-1.19 12.277h-3.31v-7.059h3.31c2.442 0 4.082 1.228 4.082 3.547 0 1.81-1.447 3.512-4.082 3.512zm0 0" fill="#fff" sketch:type="MSShapeGroup"/><path d="M16.672 44h-7.588c-1.6 0-3.084 1.05-3.084 2.932v19.955c0 2.06 1.293 3.113 3.084 3.113 1.799 0 3.088-1.053 3.088-3.113v-5.394h4.689c5.866 0 9.102-3.697 9.102-8.728 0-5.833-4.529-8.765-9.291-8.765zm-1.19 12.277h-3.31v-7.059h3.31c2.442 0 4.082 1.228 4.082 3.547 0 1.81-1.447 3.512-4.082 3.512zm0 0" fill="#67737B" sketch:type="MSShapeGroup"/><path d="M16.672 4h-7.588c-1.6 0-3.084 1.05-3.084 2.932v19.955c0 2.06 1.293 3.113 3.084 3.113 1.799 0 3.088-1.053 3.088-3.113v-5.394h4.689c5.866 0 9.102-3.697 9.102-8.728 0-5.833-4.529-8.765-9.291-8.765zm-1.19 12.277h-3.31v-7.059h3.31c2.442 0 4.082 1.228 4.082 3.547 0 1.81-1.447 3.512-4.082 3.512zm0 0" fill="#3A434E" sketch:type="MSShapeGroup"/></g></svg>