<svg width="32" height="232" viewBox="0 0 32 232" xmlns="http://www.w3.org/2000/svg"><title>pen--line</title><g fill="none"><path d="M14.78 131.696c1.919 2.098 3.985 4.051 5.999 6.055 1.607-1.072 3.361-2.459 5.109-3.775.482-.364 1.233-1.138 1.834-1.113.457.02.768.413.777.78.021.667-1.176 1.37-1.722 1.777l-3.944 2.943c-.52.386-1.493 1.343-2.111 1.332-.785-.01-.998-.967-1.554-1.219-1.026 1.617-2.044 3.377-3.166 5.164-.264.417-.716 1.356-1.112 1.611-.564.361-2.027.602-2.778.834-2.228.689-4.372 1.319-6.608 2.385-.407.195-.938.573-1.222.558-.269-.013-.74-.32-.779-.721-.037-.374.338-.832.556-1.278 1.239-2.546 1.932-5.263 2.776-8.055.139-.455.274-1.072.447-1.332.291-.451 1.239-.849 1.666-1.113 1.743-1.078 3.361-2.13 5.056-3.111-.132-.702-1.109-.721-1.17-1.554-.038-.554.841-1.52 1.278-2.111.878-1.184 2.059-2.652 2.944-3.834.406-.539 1.074-1.844 1.723-1.888.509-.033.852.411.888.665.102.709-.746 1.406-1.112 1.89-1.312 1.745-2.518 3.414-3.775 5.11zm.444 2.835c-2.157 1.396-4.38 2.73-6.555 4.11-.577 2.013-1.23 3.953-1.888 5.887 1.524-1.346 3.141-3.078 4.664-4.61-.067-2.161 3.072-1.487 2.501.334-.145.462-.664.896-1.333.832-1.357 1.277-2.813 2.813-4.11 4.111-.171.171-.48.304-.445.557 1.887-.688 3.834-1.315 5.83-1.891 1.367-2.205 2.749-4.397 4.114-6.608l-2.778-2.722zm0 0" fill="#206FAC"/><path d="M14.78 91.696c1.919 2.098 3.985 4.051 5.999 6.055 1.607-1.072 3.361-2.459 5.109-3.775.482-.364 1.233-1.138 1.834-1.113.457.02.768.413.777.78.021.667-1.176 1.37-1.722 1.777l-3.944 2.943c-.52.386-1.493 1.343-2.111 1.332-.785-.01-.998-.967-1.554-1.219-1.026 1.617-2.044 3.377-3.166 5.164-.264.417-.716 1.356-1.112 1.611-.564.361-2.027.602-2.778.834-2.228.689-4.372 1.319-6.608 2.385-.407.195-.938.573-1.222.558-.269-.013-.74-.32-.779-.721-.037-.374.338-.832.556-1.278 1.239-2.546 1.932-5.263 2.776-8.055.139-.455.274-1.072.447-1.332.291-.451 1.239-.849 1.666-1.113 1.743-1.078 3.361-2.13 5.056-3.111-.132-.702-1.109-.721-1.17-1.554-.038-.554.841-1.52 1.278-2.111.878-1.184 2.059-2.652 2.944-3.834.406-.539 1.074-1.844 1.723-1.888.509-.033.852.411.888.665.102.709-.746 1.406-1.112 1.89-1.312 1.745-2.518 3.414-3.775 5.11zm.444 2.835c-2.157 1.396-4.38 2.73-6.555 4.11-.577 2.013-1.23 3.953-1.888 5.887 1.524-1.346 3.141-3.078 4.664-4.61-.067-2.161 3.072-1.487 2.501.334-.145.462-.664.896-1.333.832-1.357 1.277-2.813 2.813-4.11 4.111-.171.171-.48.304-.445.557 1.887-.688 3.834-1.315 5.83-1.891 1.367-2.205 2.749-4.397 4.114-6.608l-2.778-2.722zm0 0" fill="#fff"/><path d="M14.78 51.696c1.919 2.098 3.985 4.051 5.999 6.055 1.607-1.072 3.361-2.459 5.109-3.775.482-.364 1.233-1.138 1.834-1.113.457.02.768.413.777.78.021.667-1.176 1.37-1.722 1.777l-3.944 2.943c-.52.386-1.493 1.343-2.111 1.332-.785-.01-.998-.967-1.554-1.219-1.026 1.617-2.044 3.377-3.166 5.164-.264.417-.716 1.356-1.112 1.611-.564.361-2.027.602-2.778.834-2.228.689-4.372 1.319-6.608 2.385-.407.195-.938.573-1.222.558-.269-.013-.74-.32-.779-.721-.037-.374.338-.832.556-1.278 1.239-2.546 1.932-5.263 2.776-8.055.139-.455.274-1.072.447-1.332.291-.451 1.239-.849 1.666-1.113 1.743-1.078 3.361-2.13 5.056-3.111-.132-.702-1.109-.721-1.17-1.554-.038-.554.841-1.52 1.278-2.111.878-1.184 2.059-2.652 2.944-3.834.406-.539 1.074-1.844 1.723-1.888.509-.033.852.411.888.665.102.709-.746 1.406-1.112 1.89-1.312 1.745-2.518 3.414-3.775 5.11zm.444 2.835c-2.157 1.396-4.38 2.73-6.555 4.11-.577 2.013-1.23 3.953-1.888 5.887 1.524-1.346 3.141-3.078 4.664-4.61-.067-2.161 3.072-1.487 2.501.334-.145.462-.664.896-1.333.832-1.357 1.277-2.813 2.813-4.11 4.111-.171.171-.48.304-.445.557 1.887-.688 3.834-1.315 5.83-1.891 1.367-2.205 2.749-4.397 4.114-6.608l-2.778-2.722zm0 0" fill="#67737B"/><path d="M14.78 11.696c1.919 2.098 3.985 4.051 5.999 6.055 1.607-1.072 3.361-2.459 5.109-3.775.482-.364 1.233-1.138 1.834-1.113.457.02.768.413.777.78.021.667-1.176 1.37-1.722 1.777l-3.944 2.943c-.52.386-1.493 1.343-2.111 1.332-.785-.01-.998-.967-1.554-1.219-1.026 1.617-2.044 3.377-3.166 5.164-.264.417-.716 1.356-1.112 1.611-.564.361-2.027.602-2.778.834-2.228.689-4.372 1.319-6.608 2.385-.407.195-.938.573-1.222.558-.269-.013-.74-.32-.779-.721-.037-.374.338-.832.556-1.278 1.239-2.546 1.932-5.263 2.776-8.055.139-.455.274-1.072.447-1.332.291-.451 1.239-.849 1.666-1.113 1.743-1.078 3.361-2.13 5.056-3.111-.132-.702-1.109-.721-1.17-1.554-.038-.554.841-1.52 1.278-2.111.878-1.184 2.059-2.652 2.944-3.834.406-.539 1.074-1.844 1.723-1.888.509-.033.852.411.888.665.102.709-.746 1.406-1.112 1.89-1.312 1.745-2.518 3.414-3.775 5.11zm.444 2.835c-2.157 1.396-4.38 2.73-6.555 4.11-.577 2.013-1.23 3.953-1.888 5.887 1.524-1.346 3.141-3.078 4.664-4.61-.067-2.161 3.072-1.487 2.501.334-.145.462-.664.896-1.333.832-1.357 1.277-2.813 2.813-4.11 4.111-.171.171-.48.304-.445.557 1.887-.688 3.834-1.315 5.83-1.891 1.367-2.205 2.749-4.397 4.114-6.608l-2.778-2.722zm0 0" fill="#3A434E"/></g></svg>