<svg width="32" height="232" xmlns="http://www.w3.org/2000/svg" xmlns:sketch="http://www.bohemiancoding.com/sketch/ns"><title>pen</title><g sketch:type="MSPage" fill="none"><path d="M18.157 18.557c-.019.029-1.87 3.007-2.879 4.572l-.199.331c-.25.43-.562.963-.881 1.163-.377.236-1.086.401-1.771.561-.304.07-.589.136-.807.204l-.457.134c-1.878.564-3.653 1.097-5.516 1.963l-.351.182c-.31.171-.603.333-.868.333h-.002c-.334-.018-.873-.358-.923-.839-.029-.305.158-.616.338-.916l.191-.333c.915-1.829 1.494-3.744 2.105-5.771l.403-1.323.098-.333c.104-.364.2-.706.335-.902.227-.343.773-.624 1.211-.852l.374-.203c1.584-.953 4.594-2.752 4.6-2.754.383-.214 1.308-.716 1.638-.716.112 0 .179.045.217.082.4.387 1.151 1.132 1.893 1.867.719.714 1.428 1.416 1.795 1.772.253.248.068.847-.544 1.777zm-4.939 1.456c-.132.409-.602.794-1.212.738-1.232 1.129-2.554 2.488-3.733 3.635-.155.153-.436.271-.404.494 1.714-.609 3.483-1.163 5.297-1.672 1.242-1.952 2.497-3.891 3.739-5.847l-2.526-2.41c-1.96 1.237-3.979 2.415-5.955 3.637-.524 1.782-1.118 3.5-1.716 5.211 1.385-1.192 2.854-2.725 4.239-4.08-.063-1.912 2.791-1.316 2.271.295zm8.063-15.767c-.354-.346-.908-.323-1.231.047l-.335.418c-1.432 1.854-4.466 5.618-4.466 5.618-.309.383-.274.98.076 1.329l5.256 5.186c.359.339.973.369 1.367.07 0 0 3.861-2.953 5.767-4.351l.469-.351c.393-.301.425-.829.071-1.172l-6.974-6.793zm0 0" fill="#3A434E" sketch:type="MSShapeGroup"/><path d="M18.157 58.557c-.019.029-1.87 3.007-2.879 4.572l-.199.331c-.25.43-.562.963-.881 1.163-.377.236-1.086.401-1.771.561-.304.07-.589.136-.807.204l-.457.134c-1.878.564-3.653 1.097-5.516 1.963l-.351.182c-.31.171-.603.333-.868.333h-.002c-.334-.018-.873-.358-.923-.839-.029-.305.158-.616.338-.916l.191-.333c.915-1.829 1.494-3.744 2.105-5.771l.403-1.323.098-.333c.104-.364.2-.706.335-.902.227-.343.773-.624 1.211-.852l.374-.203c1.584-.953 4.594-2.752 4.6-2.754.383-.214 1.308-.716 1.638-.716.112 0 .179.045.217.082.4.387 1.151 1.132 1.893 1.867.719.714 1.428 1.416 1.795 1.772.253.248.068.847-.544 1.777zm-4.939 1.456c-.132.409-.602.794-1.212.738-1.232 1.129-2.554 2.488-3.733 3.635-.155.153-.436.271-.404.494 1.714-.609 3.483-1.163 5.297-1.672 1.242-1.952 2.497-3.891 3.739-5.847l-2.526-2.41c-1.96 1.237-3.979 2.415-5.955 3.637-.524 1.782-1.118 3.5-1.716 5.211 1.385-1.192 2.854-2.725 4.239-4.08-.063-1.912 2.791-1.316 2.271.295zm8.063-15.767c-.354-.346-.908-.323-1.231.047l-.335.418c-1.432 1.854-4.466 5.618-4.466 5.618-.309.383-.274.98.076 1.329l5.256 5.186c.359.339.973.369 1.367.07 0 0 3.861-2.953 5.767-4.351l.469-.351c.393-.301.425-.829.071-1.172l-6.974-6.793zm0 0" fill="#67737B" sketch:type="MSShapeGroup"/><path d="M18.157 98.557c-.019.029-1.87 3.007-2.879 4.572l-.199.331c-.25.43-.562.963-.881 1.163-.377.236-1.086.401-1.771.561-.304.07-.589.136-.807.204l-.457.134c-1.878.564-3.653 1.097-5.516 1.963l-.351.182c-.31.171-.603.333-.868.333h-.002c-.334-.018-.873-.358-.923-.839-.029-.305.158-.616.338-.916l.191-.333c.915-1.83 1.494-3.744 2.105-5.771l.403-1.323.098-.333c.104-.364.2-.706.335-.902.227-.343.773-.624 1.211-.852l.374-.203c1.584-.953 4.594-2.752 4.6-2.754.383-.214 1.308-.716 1.638-.716.112 0 .179.045.217.082.4.387 1.151 1.132 1.893 1.867.719.714 1.428 1.416 1.795 1.772.253.248.068.847-.544 1.777zm-4.939 1.456c-.132.409-.602.794-1.212.738-1.232 1.129-2.554 2.488-3.733 3.635-.155.153-.436.271-.404.494 1.714-.609 3.483-1.163 5.297-1.672 1.242-1.952 2.497-3.891 3.739-5.847l-2.526-2.41c-1.96 1.237-3.979 2.415-5.955 3.637-.524 1.782-1.118 3.5-1.716 5.211 1.385-1.192 2.854-2.725 4.239-4.08-.063-1.912 2.791-1.316 2.271.295zm8.063-15.767c-.354-.346-.908-.323-1.231.047l-.335.418c-1.432 1.854-4.466 5.618-4.466 5.618-.309.383-.274.98.076 1.329l5.256 5.186c.359.339.973.369 1.367.07 0 0 3.861-2.953 5.767-4.351l.469-.351c.393-.301.425-.829.071-1.172l-6.974-6.793zm0 0" fill="#fff" sketch:type="MSShapeGroup"/><path d="M18.157 138.557c-.019.029-1.87 3.007-2.879 4.572l-.199.331c-.25.43-.562.963-.881 1.163-.377.236-1.086.401-1.771.561-.304.07-.589.136-.807.204l-.457.134c-1.878.564-3.653 1.097-5.516 1.963l-.351.182c-.31.171-.603.333-.868.333h-.002c-.334-.018-.873-.358-.923-.839-.029-.305.158-.616.338-.916l.191-.333c.915-1.829 1.494-3.744 2.105-5.771l.403-1.323.098-.333c.104-.364.2-.706.335-.902.227-.343.773-.624 1.211-.852l.374-.203c1.584-.953 4.594-2.752 4.6-2.754.383-.214 1.308-.716 1.638-.716.112 0 .179.045.217.082.4.387 1.151 1.132 1.893 1.867.719.714 1.428 1.416 1.795 1.772.253.248.068.847-.544 1.777zm-4.939 1.456c-.132.409-.602.794-1.212.738-1.232 1.129-2.554 2.488-3.733 3.635-.155.153-.436.271-.404.494 1.714-.609 3.483-1.163 5.297-1.672 1.242-1.952 2.497-3.891 3.739-5.847l-2.526-2.41c-1.96 1.237-3.979 2.415-5.955 3.637-.524 1.782-1.118 3.5-1.716 5.211 1.385-1.192 2.854-2.725 4.239-4.08-.063-1.912 2.791-1.316 2.271.295zm8.063-15.767c-.354-.346-.908-.323-1.231.047l-.335.418c-1.432 1.854-4.466 5.618-4.466 5.618-.309.383-.274.98.076 1.329l5.256 5.186c.359.339.973.369 1.367.07 0 0 3.861-2.953 5.767-4.351l.469-.351c.393-.301.425-.829.071-1.172l-6.974-6.793zm0 0" fill="#206FAC" sketch:type="MSShapeGroup"/></g></svg>