<svg width="32" height="232" xmlns="http://www.w3.org/2000/svg" xmlns:sketch="http://www.bohemiancoding.com/sketch/ns"><title>pets</title><g sketch:type="MSPage" fill="none"><path d="M21.065 138.196c-.405-3.041-4.499-3.393-5.052-3.426-.553.033-4.645.385-5.051 3.426 0 4.374-3.295 1.971-3.556 6.005 0 2.631 3.845 4.766 8.607 4.799 4.761-.033 8.606-2.168 8.606-4.799-.259-4.034-3.554-1.631-3.554-6.005m6.382-5.897c-1.212-.892-2.982-.563-3.949.731-.97 1.293-1.04 3.537.178 4.423 1.21.892 3.239.088 4.208-1.205.97-1.295.774-3.063-.437-3.949m-18.88.949c-.906-1.338-2.658-1.751-3.908-.918-1.254.829-1.535 2.587-.626 3.925.904 1.337 3.019 2.149 4.272 1.317 1.25-.828 1.171-2.988.262-4.324m9.638-.27c1.567.798 3.751-.501 4.625-2.173.871-1.674.309-3.678-1.256-4.477-1.57-.797-3.547-.091-4.419 1.579-.869 1.673-.517 4.273 1.05 5.071m-5.352.383c1.727-.34 2.615-2.71 2.241-4.557-.375-1.841-2.081-3.059-3.809-2.714-1.73.344-2.824 2.115-2.449 3.961.373 1.846 2.287 3.656 4.017 3.31" fill="#206FAC" sketch:type="MSShapeGroup"/><path d="M21.065 98.196c-.405-3.041-4.499-3.393-5.052-3.426-.553.033-4.645.385-5.051 3.426 0 4.374-3.295 1.971-3.556 6.005 0 2.631 3.845 4.766 8.607 4.799 4.761-.033 8.606-2.168 8.606-4.799-.259-4.034-3.554-1.631-3.554-6.005m6.382-5.897c-1.212-.892-2.982-.563-3.949.731-.97 1.293-1.04 3.537.178 4.423 1.21.892 3.239.088 4.208-1.205.97-1.295.774-3.063-.437-3.949m-18.88.949c-.906-1.338-2.658-1.751-3.908-.918-1.254.829-1.535 2.587-.626 3.925.904 1.337 3.019 2.149 4.272 1.317 1.25-.828 1.171-2.988.262-4.324m9.638-.27c1.567.798 3.751-.501 4.625-2.173.871-1.674.309-3.678-1.256-4.477-1.57-.797-3.547-.091-4.419 1.579-.869 1.673-.517 4.273 1.05 5.071m-5.352.383c1.727-.34 2.615-2.71 2.241-4.557-.375-1.841-2.081-3.059-3.809-2.714-1.73.344-2.824 2.115-2.449 3.961.373 1.846 2.287 3.656 4.017 3.31" fill="#fff" sketch:type="MSShapeGroup"/><path d="M21.065 58.196c-.405-3.041-4.499-3.393-5.052-3.426-.553.033-4.645.385-5.051 3.426 0 4.374-3.295 1.971-3.556 6.005 0 2.631 3.845 4.766 8.607 4.799 4.761-.033 8.606-2.168 8.606-4.799-.259-4.034-3.554-1.631-3.554-6.005m6.382-5.897c-1.212-.892-2.982-.563-3.949.731-.97 1.293-1.04 3.537.178 4.423 1.21.892 3.239.088 4.208-1.205.97-1.295.774-3.063-.437-3.949m-18.88.949c-.906-1.338-2.658-1.751-3.908-.918-1.254.829-1.535 2.587-.626 3.925.904 1.337 3.019 2.149 4.272 1.317 1.25-.828 1.171-2.988.262-4.324m9.638-.27c1.567.798 3.751-.501 4.625-2.173.871-1.674.309-3.678-1.256-4.477-1.57-.797-3.547-.091-4.419 1.579-.869 1.673-.517 4.273 1.05 5.071m-5.352.383c1.727-.34 2.615-2.71 2.241-4.557-.375-1.841-2.081-3.059-3.809-2.714-1.73.344-2.824 2.115-2.449 3.961.373 1.846 2.287 3.656 4.017 3.31" fill="#67737B" sketch:type="MSShapeGroup"/><path d="M21.065 18.196c-.405-3.041-4.499-3.393-5.052-3.426-.553.033-4.645.385-5.051 3.426 0 4.374-3.295 1.971-3.556 6.005 0 2.631 3.845 4.766 8.607 4.799 4.761-.033 8.606-2.168 8.606-4.799-.259-4.034-3.554-1.631-3.554-6.005m6.382-5.897c-1.212-.892-2.982-.563-3.949.731-.97 1.293-1.04 3.537.178 4.423 1.21.892 3.239.088 4.208-1.205.97-1.295.774-3.063-.437-3.949m-18.88.949c-.906-1.338-2.658-1.751-3.908-.918-1.254.829-1.535 2.587-.626 3.925.904 1.337 3.019 2.149 4.272 1.317 1.25-.828 1.171-2.988.262-4.324m9.638-.27c1.567.798 3.751-.501 4.625-2.173.871-1.674.309-3.678-1.256-4.477-1.57-.797-3.547-.091-4.419 1.579-.869 1.673-.517 4.273 1.05 5.071m-5.352.383c1.727-.34 2.615-2.71 2.241-4.557-.375-1.841-2.081-3.059-3.809-2.714-1.73.344-2.824 2.115-2.449 3.961.373 1.846 2.287 3.656 4.017 3.31" fill="#3A434E" sketch:type="MSShapeGroup"/></g></svg>