<svg width="32" height="232" viewBox="0 0 32 232" xmlns="http://www.w3.org/2000/svg"><title>pinterest</title><g fill="none"><path d="M16.566 20.939c-1.413-.082-2.192-.626-3.029-1.558-.787 2.938-1.424 6.024-3.627 7.619-.638-2.893.269-5.522.865-7.949.316-1.295.868-2.759.865-3.686 0-.427-.29-.857-.346-1.309-.226-1.717.435-3.713 1.902-4.017 2.653-.545 2.476 1.884 1.984 3.606-.571 2.021-1.835 4.866 1.041 5.163 1.784.185 3.079-1.365 3.541-2.211.674-1.221 1.057-2.741 1.042-4.507-.036-2.974-2.204-4.874-5.533-4.918-3.627-.048-7.803 3.113-6.484 7.374.309 1.02 1.597 1.873.435 3.197-2.25-.323-3.373-2.73-3.205-5.08.329-4.403 4.109-7.193 8.73-7.619 5.156-.479 9.218 3.1 9.253 7.292.035 4.529-2.582 8.879-7.434 8.604zm0 0" fill="#3A434E"/><path d="M16.566 60.939c-1.413-.082-2.192-.626-3.029-1.558-.787 2.938-1.424 6.024-3.627 7.619-.638-2.893.269-5.522.865-7.949.316-1.295.868-2.759.865-3.686 0-.427-.29-.857-.346-1.309-.226-1.717.435-3.713 1.902-4.017 2.653-.545 2.476 1.884 1.984 3.606-.571 2.021-1.835 4.866 1.041 5.163 1.784.185 3.079-1.365 3.541-2.211.674-1.221 1.057-2.741 1.042-4.507-.036-2.974-2.204-4.874-5.533-4.918-3.627-.048-7.803 3.113-6.484 7.374.309 1.02 1.597 1.873.435 3.197-2.25-.323-3.373-2.73-3.205-5.08.329-4.403 4.109-7.193 8.73-7.619 5.156-.479 9.218 3.1 9.253 7.292.035 4.529-2.582 8.879-7.434 8.604zm0 0" fill="#67737B"/><path d="M16.566 100.939c-1.413-.082-2.192-.626-3.029-1.558-.787 2.938-1.424 6.024-3.627 7.619-.638-2.893.269-5.522.865-7.949.316-1.295.868-2.759.865-3.686 0-.427-.29-.857-.346-1.309-.226-1.717.435-3.713 1.902-4.017 2.653-.545 2.476 1.884 1.984 3.606-.571 2.021-1.835 4.866 1.041 5.163 1.784.185 3.079-1.365 3.541-2.211.674-1.221 1.057-2.741 1.042-4.507-.036-2.974-2.204-4.874-5.533-4.918-3.627-.048-7.803 3.113-6.484 7.374.309 1.02 1.597 1.873.435 3.197-2.25-.323-3.373-2.73-3.205-5.08.329-4.403 4.109-7.193 8.73-7.619 5.156-.479 9.218 3.1 9.253 7.292.035 4.529-2.582 8.879-7.434 8.604zm0 0" fill="#fff"/><path d="M16.566 140.939c-1.413-.082-2.192-.626-3.029-1.558-.787 2.938-1.424 6.024-3.627 7.619-.638-2.893.269-5.522.865-7.949.316-1.295.868-2.759.865-3.686 0-.427-.29-.857-.346-1.309-.226-1.717.435-3.713 1.902-4.017 2.653-.545 2.476 1.884 1.984 3.606-.571 2.021-1.835 4.866 1.041 5.163 1.784.185 3.079-1.365 3.541-2.211.674-1.221 1.057-2.741 1.042-4.507-.036-2.974-2.204-4.874-5.533-4.918-3.627-.048-7.803 3.113-6.484 7.374.309 1.02 1.597 1.873.435 3.197-2.25-.323-3.373-2.73-3.205-5.08.329-4.403 4.109-7.193 8.73-7.619 5.156-.479 9.218 3.1 9.253 7.292.035 4.529-2.582 8.879-7.434 8.604zm0 0" fill="#206FAC"/></g></svg>