<?xml version="1.0" encoding="UTF-8" standalone="no"?>
<svg width="32px" height="232px" viewBox="0 0 32 232" version="1.1" xmlns="http://www.w3.org/2000/svg" xmlns:xlink="http://www.w3.org/1999/xlink" xmlns:sketch="http://www.bohemiancoding.com/sketch/ns">
    <title>pinterest</title>
    <description>Created with Sketch (http://www.bohemiancoding.com/sketch)</description>
    <defs></defs>
    <g id="Social" stroke="none" stroke-width="1" fill="none" fill-rule="evenodd" sketch:type="MSPage">
        <path d="M17.8270242,183.455564 C16.1790117,183.35456 15.2694141,182.686918 14.2929641,181.543544 C13.3752631,185.149414 12.6317836,188.936082 10.0620184,190.893555 C9.31752594,187.343237 10.376022,184.116135 11.0708817,181.138515 C11.4395827,179.54971 12.0837966,177.752836 12.0797449,176.614512 C12.0797449,176.090297 11.7414314,175.563053 11.6766048,175.007526 C11.4132469,172.900567 12.1840752,170.450192 13.8959014,170.077484 C16.9913694,169.408833 16.7847348,172.389483 16.210412,174.502503 C15.543914,176.98318 14.0701228,180.473904 17.424897,180.838531 C19.5064372,181.065792 21.0166934,179.162862 21.5555641,178.125543 C22.3415861,176.627643 22.7882816,174.762085 22.771062,172.594523 C22.7295325,168.944211 20.2002839,166.613021 16.3157552,166.558479 C12.0837966,166.499896 7.21268872,170.378478 8.75130649,175.608505 C9.11190421,176.859954 10.614057,177.907373 9.25877687,179.53153 C6.63330138,179.135591 5.32360238,176.181202 5.51909496,173.296506 C5.90298972,167.892751 10.3132213,164.46869 15.7039546,163.946496 C21.7196563,163.358648 26.4580723,167.751345 26.4996019,172.895517 C26.5401185,178.453809 23.4871929,183.79191 17.8270242,183.455564 Z M17.8270242,183.455564" id="pinterest--lp-blue" fill="#1D4F8D" sketch:type="MSShapeGroup"></path>
        <path d="M17.8270242,143.455564 C16.1790117,143.35456 15.2694141,142.686918 14.2929641,141.543544 C13.3752631,145.149414 12.6317836,148.936082 10.0620184,150.893555 C9.31752594,147.343237 10.376022,144.116135 11.0708817,141.138515 C11.4395827,139.54971 12.0837966,137.752836 12.0797449,136.614512 C12.0797449,136.090297 11.7414314,135.563053 11.6766048,135.007526 C11.4132469,132.900567 12.1840752,130.450192 13.8959014,130.077484 C16.9913694,129.408833 16.7847348,132.389483 16.210412,134.502503 C15.543914,136.98318 14.0701228,140.473904 17.424897,140.838531 C19.5064372,141.065792 21.0166934,139.162862 21.5555641,138.125543 C22.3415861,136.627643 22.7882816,134.762085 22.771062,132.594523 C22.7295325,128.944211 20.2002839,126.613021 16.3157552,126.558479 C12.0837966,126.499896 7.21268872,130.378478 8.75130649,135.608505 C9.11190421,136.859954 10.614057,137.907373 9.25877687,139.53153 C6.63330138,139.135591 5.32360238,136.181202 5.51909496,133.296506 C5.90298972,127.892751 10.3132213,124.46869 15.7039546,123.946496 C21.7196563,123.358648 26.4580723,127.751345 26.4996019,132.895517 C26.5401185,138.453809 23.4871929,143.79191 17.8270242,143.455564 Z M17.8270242,143.455564" id="pinterest--white" fill="#FFFFFF" sketch:type="MSShapeGroup"></path>
        <path d="M17.8270242,103.455564 C16.1790117,103.35456 15.2694141,102.686918 14.2929641,101.543544 C13.3752631,105.149414 12.6317836,108.936082 10.0620184,110.893555 C9.31752594,107.343237 10.376022,104.116135 11.0708817,101.138515 C11.4395827,99.5497104 12.0837966,97.7528358 12.0797449,96.6145122 C12.0797449,96.0902975 11.7414314,95.5630526 11.6766048,95.0075265 C11.4132469,92.9005672 12.1840752,90.4501918 13.8959014,90.0774843 C16.9913694,89.4088328 16.7847348,92.3894832 16.210412,94.5025027 C15.543914,96.9831795 14.0701228,100.473904 17.424897,100.838531 C19.5064372,101.065792 21.0166934,99.1628622 21.5555641,98.1255433 C22.3415861,96.6276428 22.7882816,94.7620849 22.771062,92.5945228 C22.7295325,88.9442109 20.2002839,86.6130211 16.3157552,86.5584785 C12.0837966,86.4998958 7.21268872,90.3784784 8.75130649,95.6085048 C9.11190421,96.8599537 10.614057,97.9073731 9.25877687,99.5315295 C6.63330138,99.1355909 5.32360238,96.1812018 5.51909496,93.2965059 C5.90298972,87.8927514 10.3132213,84.4686901 15.7039546,83.9464955 C21.7196563,83.3586478 26.4580723,87.7513447 26.4996019,92.895517 C26.5401185,98.4538088 23.4871929,103.79191 17.8270242,103.455564 Z M17.8270242,103.455564" id="pinterest--subdued-grey" fill="#E5EDF5" sketch:type="MSShapeGroup"></path>
        <path d="M17.8270242,63.4555644 C16.1790117,63.3545596 15.2694141,62.6869182 14.2929641,61.5435443 C13.3752631,65.1494141 12.6317836,68.9360825 10.0620184,70.8935547 C9.31752594,67.3432375 10.376022,64.1161355 11.0708817,61.1385152 C11.4395827,59.5497104 12.0837966,57.7528358 12.0797449,56.6145122 C12.0797449,56.0902975 11.7414314,55.5630526 11.6766048,55.0075265 C11.4132469,52.9005672 12.1840752,50.4501918 13.8959014,50.0774843 C16.9913694,49.4088328 16.7847348,52.3894832 16.210412,54.5025027 C15.543914,56.9831795 14.0701228,60.4739039 17.424897,60.8385311 C19.5064372,61.0657918 21.0166934,59.1628622 21.5555641,58.1255433 C22.3415861,56.6276428 22.7882816,54.7620849 22.771062,52.5945228 C22.7295325,48.9442109 20.2002839,46.6130211 16.3157552,46.5584785 C12.0837966,46.4998958 7.21268872,50.3784784 8.75130649,55.6085048 C9.11190421,56.8599537 10.614057,57.9073731 9.25877687,59.5315295 C6.63330138,59.1355909 5.32360238,56.1812018 5.51909496,53.2965059 C5.90298972,47.8927514 10.3132213,44.4686901 15.7039546,43.9464955 C21.7196563,43.3586478 26.4580723,47.7513447 26.4996019,52.895517 C26.5401185,58.4538088 23.4871929,63.7919102 17.8270242,63.4555644 Z M17.8270242,63.4555644" id="pinterest--body-grey" fill="#67737B" sketch:type="MSShapeGroup"></path>
        <path d="M17.8270242,23.4555644 C16.1790117,23.3545596 15.2694141,22.6869182 14.2929641,21.5435443 C13.3752631,25.1494141 12.6317836,28.9360825 10.0620184,30.8935547 C9.31752594,27.3432375 10.376022,24.1161355 11.0708817,21.1385152 C11.4395827,19.5497104 12.0837966,17.7528358 12.0797449,16.6145122 C12.0797449,16.0902975 11.7414314,15.5630526 11.6766048,15.0075265 C11.4132469,12.9005672 12.1840752,10.4501918 13.8959014,10.0774843 C16.9913694,9.40883278 16.7847348,12.3894832 16.210412,14.5025027 C15.543914,16.9831795 14.0701228,20.4739039 17.424897,20.8385311 C19.5064372,21.0657918 21.0166934,19.1628622 21.5555641,18.1255433 C22.3415861,16.6276428 22.7882816,14.7620849 22.771062,12.5945228 C22.7295325,8.9442109 20.2002839,6.6130211 16.3157552,6.55847853 C12.0837966,6.49989577 7.21268872,10.3784784 8.75130649,15.6085048 C9.11190421,16.8599537 10.614057,17.9073731 9.25877687,19.5315295 C6.63330138,19.1355909 5.32360238,16.1812018 5.51909496,13.2965059 C5.90298972,7.89275137 10.3132213,4.4686901 15.7039546,3.94649551 C21.7196563,3.35864782 26.4580723,7.75134471 26.4996019,12.895517 C26.5401185,18.4538088 23.4871929,23.7919102 17.8270242,23.4555644 Z M17.8270242,23.4555644" id="pinterest--title-grey" fill="#3A434E" sketch:type="MSShapeGroup"></path>
    </g>
</svg>