<?xml version="1.0" encoding="UTF-8" standalone="no"?>
<svg width="32px" height="32px" viewBox="0 0 32 32" version="1.1" xmlns="http://www.w3.org/2000/svg" xmlns:xlink="http://www.w3.org/1999/xlink" xmlns:sketch="http://www.bohemiancoding.com/sketch/ns">
    <title>pinterest--body-grey</title>
    <description>Created with Sketch (http://www.bohemiancoding.com/sketch)</description>
    <defs></defs>
    <g id="Social" stroke="none" stroke-width="1" fill="none" fill-rule="evenodd" sketch:type="MSPage">
        <path d="M17.8270242,23.4555644 C16.1790117,23.3545596 15.2694141,22.6869182 14.2929641,21.5435443 C13.3752631,25.1494141 12.6317836,28.9360825 10.0620184,30.8935547 C9.31752594,27.3432375 10.376022,24.1161355 11.0708817,21.1385152 C11.4395827,19.5497104 12.0837966,17.7528358 12.0797449,16.6145122 C12.0797449,16.0902975 11.7414314,15.5630526 11.6766048,15.0075265 C11.4132469,12.9005672 12.1840752,10.4501918 13.8959014,10.0774843 C16.9913694,9.40883278 16.7847348,12.3894832 16.210412,14.5025027 C15.543914,16.9831795 14.0701228,20.4739039 17.424897,20.8385311 C19.5064372,21.0657918 21.0166934,19.1628622 21.5555641,18.1255433 C22.3415861,16.6276428 22.7882816,14.7620849 22.771062,12.5945228 C22.7295325,8.9442109 20.2002839,6.6130211 16.3157552,6.55847853 C12.0837966,6.49989577 7.21268872,10.3784784 8.75130649,15.6085048 C9.11190421,16.8599537 10.614057,17.9073731 9.25877687,19.5315295 C6.63330138,19.1355909 5.32360238,16.1812018 5.51909496,13.2965059 C5.90298972,7.89275137 10.3132213,4.4686901 15.7039546,3.94649551 C21.7196563,3.35864782 26.4580723,7.75134471 26.4996019,12.895517 C26.5401185,18.4538088 23.4871929,23.7919102 17.8270242,23.4555644 Z M17.8270242,23.4555644" id="pinterest--body-grey" fill="#67737B" sketch:type="MSShapeGroup"></path>
    </g>
</svg>