<svg width="32" height="232" viewBox="0 0 32 232" xmlns="http://www.w3.org/2000/svg"><title>place--pin--line</title><g fill="none"><path d="M16.979 152l-1.707-.027-.259.004c0-.024-.075-2.338-2.3-5.433-.848-1.175-1.899-2.225-3.011-3.335-2.669-2.678-5.702-5.71-5.702-10.933 0-6.999 5.16-12.276 11.996-12.276 6.843 0 12.004 5.277 12.004 12.276 0 5.045-3.009 8.115-5.668 10.82-1.126 1.153-2.198 2.243-3.036 3.441-2.183 3.12-2.315 5.442-2.317 5.463zm-.983-29.988c-5.81 0-10.03 4.317-10.03 10.264 0 4.38 2.482 6.865 5.11 9.496 1.117 1.119 2.273 2.272 3.219 3.582.773 1.078 1.325 2.08 1.719 2.968.391-.88.933-1.88 1.684-2.958.935-1.333 2.113-2.528 3.248-3.695 2.617-2.663 5.091-5.184 5.091-9.393 0-5.947-4.221-10.264-10.041-10.264zm.002 15.133c-2.709 0-4.915-2.258-4.915-5.035 0-2.771 2.206-5.024 4.915-5.024 2.713 0 4.919 2.253 4.919 5.024 0 2.777-2.206 5.035-4.919 5.035zm0-8.052c-1.625 0-2.953 1.357-2.953 3.017 0 1.667 1.328 3.021 2.953 3.021 1.629 0 2.956-1.354 2.956-3.021 0-1.66-1.327-3.017-2.956-3.017zm0 0" fill="#206FAC"/><path d="M16.979 112l-1.707-.027-.259.004c0-.024-.075-2.338-2.3-5.433-.848-1.175-1.899-2.225-3.011-3.335-2.669-2.678-5.702-5.71-5.702-10.933 0-6.999 5.16-12.276 11.996-12.276 6.843 0 12.004 5.277 12.004 12.276 0 5.045-3.009 8.115-5.668 10.82-1.126 1.153-2.198 2.243-3.036 3.441-2.183 3.12-2.315 5.442-2.317 5.463zm-.983-29.988c-5.81 0-10.03 4.317-10.03 10.264 0 4.38 2.482 6.865 5.11 9.496 1.117 1.119 2.273 2.272 3.219 3.582.773 1.078 1.325 2.08 1.719 2.968.391-.88.933-1.88 1.684-2.958.935-1.333 2.113-2.528 3.248-3.695 2.617-2.663 5.091-5.184 5.091-9.393 0-5.947-4.221-10.264-10.041-10.264zm.002 15.133c-2.709 0-4.915-2.258-4.915-5.035 0-2.771 2.206-5.024 4.915-5.024 2.713 0 4.919 2.253 4.919 5.024 0 2.777-2.206 5.035-4.919 5.035zm0-8.052c-1.625 0-2.953 1.357-2.953 3.017 0 1.667 1.328 3.021 2.953 3.021 1.629 0 2.956-1.354 2.956-3.021 0-1.66-1.327-3.017-2.956-3.017zm0 0" fill="#fff"/><path d="M16.979 72l-1.707-.027-.259.004c0-.024-.075-2.338-2.3-5.433-.848-1.175-1.899-2.225-3.011-3.335-2.669-2.678-5.702-5.71-5.702-10.933 0-6.999 5.16-12.276 11.996-12.276 6.843 0 12.004 5.277 12.004 12.276 0 5.045-3.009 8.115-5.668 10.82-1.126 1.153-2.198 2.243-3.036 3.441-2.183 3.12-2.315 5.442-2.317 5.463zm-.983-29.988c-5.81 0-10.03 4.317-10.03 10.264 0 4.38 2.482 6.865 5.11 9.496 1.117 1.119 2.273 2.272 3.219 3.582.773 1.078 1.325 2.08 1.719 2.968.391-.88.933-1.88 1.684-2.958.935-1.333 2.113-2.528 3.248-3.695 2.617-2.663 5.091-5.184 5.091-9.393 0-5.947-4.221-10.264-10.041-10.264zm.002 15.133c-2.709 0-4.915-2.258-4.915-5.035 0-2.771 2.206-5.024 4.915-5.024 2.713 0 4.919 2.253 4.919 5.024 0 2.777-2.206 5.035-4.919 5.035zm0-8.052c-1.625 0-2.953 1.357-2.953 3.017 0 1.667 1.328 3.021 2.953 3.021 1.629 0 2.956-1.354 2.956-3.021 0-1.66-1.327-3.017-2.956-3.017zm0 0" fill="#67747C"/><path d="M16.979 32l-1.707-.027-.259.004c0-.024-.075-2.338-2.3-5.433-.848-1.175-1.899-2.225-3.011-3.335-2.669-2.678-5.702-5.71-5.702-10.933 0-6.999 5.16-12.276 11.996-12.276 6.843 0 12.004 5.277 12.004 12.276 0 5.045-3.009 8.115-5.668 10.82-1.126 1.153-2.198 2.243-3.036 3.441-2.183 3.12-2.315 5.442-2.317 5.463zm-.983-29.988c-5.81 0-10.03 4.317-10.03 10.264 0 4.38 2.482 6.865 5.11 9.496 1.117 1.119 2.273 2.272 3.219 3.582.773 1.078 1.325 2.08 1.719 2.968.391-.88.933-1.88 1.684-2.958.935-1.333 2.113-2.528 3.248-3.695 2.617-2.663 5.091-5.184 5.091-9.393 0-5.947-4.221-10.264-10.041-10.264zm.002 15.133c-2.709 0-4.915-2.258-4.915-5.035 0-2.771 2.206-5.024 4.915-5.024 2.713 0 4.919 2.253 4.919 5.024 0 2.777-2.206 5.035-4.919 5.035zm0-8.052c-1.625 0-2.953 1.357-2.953 3.017 0 1.667 1.328 3.021 2.953 3.021 1.629 0 2.956-1.354 2.956-3.021 0-1.66-1.327-3.017-2.956-3.017zm0 0" fill="#3B444F"/></g></svg>