<svg width="32" height="232" viewBox="0 0 32 232" xmlns="http://www.w3.org/2000/svg"><title>place--pin</title><g fill="none"><path d="M15.999 0c6.629 0 12.001 4.654 12.001 11.648 0 6.834-6.054 9.769-9.28 14.14-2.637 3.569-2.721 6.212-2.721 6.212s-.02-2.656-2.72-6.212c-3.319-4.371-9.279-7.104-9.279-14.14 0-6.996 5.373-11.648 11.999-11.648m0 7.681c-2.299 0-4.16 1.861-4.16 4.16 0 2.295 1.861 4.159 4.16 4.159 2.294 0 4.162-1.864 4.162-4.159 0-2.299-1.868-4.16-4.162-4.16zm0 0" fill="#3B444F"/><path d="M15.999 40c6.629 0 12.001 4.654 12.001 11.648 0 6.834-6.054 9.769-9.28 14.14-2.637 3.569-2.721 6.212-2.721 6.212s-.02-2.656-2.72-6.212c-3.319-4.371-9.279-7.104-9.279-14.14 0-6.996 5.373-11.648 11.999-11.648m0 7.681c-2.299 0-4.16 1.861-4.16 4.16 0 2.295 1.861 4.159 4.16 4.159 2.294 0 4.162-1.864 4.162-4.159 0-2.299-1.868-4.16-4.162-4.16zm0 0" fill="#67747C"/><path d="M15.999 80c6.629 0 12.001 4.654 12.001 11.648 0 6.834-6.054 9.769-9.28 14.14-2.637 3.569-2.721 6.212-2.721 6.212s-.02-2.656-2.72-6.212c-3.319-4.371-9.279-7.104-9.279-14.14 0-6.996 5.373-11.648 11.999-11.648m0 7.681c-2.299 0-4.16 1.861-4.16 4.16 0 2.295 1.861 4.159 4.16 4.159 2.294 0 4.162-1.864 4.162-4.159 0-2.299-1.868-4.16-4.162-4.16zm0 0" fill="#fff"/><path d="M15.999 120c6.629 0 12.001 4.654 12.001 11.648 0 6.834-6.054 9.769-9.28 14.14-2.637 3.569-2.721 6.212-2.721 6.212s-.02-2.656-2.72-6.212c-3.319-4.371-9.279-7.104-9.279-14.14 0-6.996 5.373-11.648 11.999-11.648m0 7.681c-2.299 0-4.16 1.861-4.16 4.16 0 2.295 1.861 4.159 4.16 4.159 2.294 0 4.162-1.864 4.162-4.159 0-2.299-1.868-4.16-4.162-4.16zm0 0" fill="#206FAC"/><path d="M28 171.648c0 6.834-6.054 9.769-9.28 14.14-2.637 3.569-2.721 6.212-2.721 6.212s-.02-2.656-2.72-6.212c-3.319-4.371-9.279-7.104-9.279-14.14 0-6.996 5.373-11.648 11.999-11.648 6.629 0 12.001 4.654 12.001 11.648zm-12.001-3.967c-2.299 0-4.16 1.861-4.16 4.16 0 2.295 1.861 4.159 4.16 4.159 2.294 0 4.162-1.864 4.162-4.159 0-2.299-1.868-4.16-4.162-4.16zm0 0" fill="#0FDDCF"/></g></svg>