<?xml version="1.0" encoding="UTF-8" standalone="no"?>
<svg width="32px" height="232px" viewBox="0 0 32 232" version="1.1" xmlns="http://www.w3.org/2000/svg" xmlns:xlink="http://www.w3.org/1999/xlink" xmlns:sketch="http://www.bohemiancoding.com/sketch/ns">
    <title>point-down</title>
    <description>Created with Sketch (http://www.bohemiancoding.com/sketch)</description>
    <defs></defs>
    <g id="Graphics" stroke="none" stroke-width="1" fill="none" fill-rule="evenodd" sketch:type="MSPage">
        <path d="M15.9985,212 C15.9985,212 19.8205,223 28.4985,223 L3.4985,223 C11.4845,223 15.9985,212 15.9985,212 Z M15.9985,212" id="point-down--green" fill="#15C98D" sketch:type="MSShapeGroup" transform="translate(15.998500, 217.500000) rotate(-180.000000) translate(-15.998500, -217.500000) "></path>
        <path d="M15.9985,172 C15.9985,172 19.8205,183 28.4985,183 L3.4985,183 C11.4845,183 15.9985,172 15.9985,172 Z M15.9985,172" id="point-down--lp-blue" fill="#1D4F8D" sketch:type="MSShapeGroup" transform="translate(15.998500, 177.500000) rotate(-180.000000) translate(-15.998500, -177.500000) "></path>
        <path d="M15.9985,132 C15.9985,132 19.8205,143 28.4985,143 L3.4985,143 C11.4845,143 15.9985,132 15.9985,132 Z M15.9985,132" id="point-down--white" fill="#FFFFFF" sketch:type="MSShapeGroup" transform="translate(15.998500, 137.500000) rotate(-180.000000) translate(-15.998500, -137.500000) "></path>
        <path d="M15.9985,92 C15.9985,92 19.8205,103 28.4985,103 L3.4985,103 C11.4845,103 15.9985,92 15.9985,92 Z M15.9985,92" id="point-down--subdued-grey" fill="#E5EDF5" sketch:type="MSShapeGroup" transform="translate(15.998500, 97.500000) rotate(-180.000000) translate(-15.998500, -97.500000) "></path>
        <path d="M15.9985,52 C15.9985,52 19.8205,63 28.4985,63 L3.4985,63 C11.4845,63 15.9985,52 15.9985,52 Z M15.9985,52" id="point-down--body-grey" fill="#67737B" sketch:type="MSShapeGroup" transform="translate(15.998500, 57.500000) rotate(-180.000000) translate(-15.998500, -57.500000) "></path>
        <path d="M15.9985,12 C15.9985,12 19.8205,23 28.4985,23 L3.4985,23 C11.4845,23 15.9985,12 15.9985,12 Z M15.9985,12" id="point-down--title-grey" fill="#3A434E" sketch:type="MSShapeGroup" transform="translate(15.998500, 17.500000) rotate(-180.000000) translate(-15.998500, -17.500000) "></path>
    </g>
</svg>