<svg width="32" height="232" viewBox="0 0 32 232" xmlns="http://www.w3.org/2000/svg" xmlns:sketch="http://www.bohemiancoding.com/sketch/ns"><title>point-up</title><g sketch:type="MSPage" fill="none"><path d="M16 212s3.822 11 12.5 11h-25c7.986 0 12.5-11 12.5-11zm0 0" fill="#15C98D" sketch:type="MSShapeGroup"/><path d="M16 172s3.822 11 12.5 11h-25c7.986 0 12.5-11 12.5-11zm0 0" fill="#1D4F8D" sketch:type="MSShapeGroup"/><path d="M16 132s3.822 11 12.5 11h-25c7.986 0 12.5-11 12.5-11zm0 0" fill="#fff" sketch:type="MSShapeGroup"/><path d="M16 92s3.822 11 12.5 11h-25c7.986 0 12.5-11 12.5-11zm0 0" fill="#E5EDF5" sketch:type="MSShapeGroup"/><path d="M16 52s3.822 11 12.5 11h-25c7.986 0 12.5-11 12.5-11zm0 0" fill="#67737B" sketch:type="MSShapeGroup"/><path d="M16 12s3.822 11 12.5 11h-25c7.986 0 12.5-11 12.5-11zm0 0" fill="#3A434E" sketch:type="MSShapeGroup"/></g></svg>