<svg width="32" height="232" viewBox="0 0 32 232" xmlns="http://www.w3.org/2000/svg"><title>print</title><g fill="none"><path d="M26.124 132.224h-2.965v-4.965c0-1.913-1.555-3.468-3.467-3.468h-7.887c-1.912 0-3.467 1.555-3.467 3.468v4.965h-2.515c-1.297 0-2.35 1.051-2.35 2.348v8.447c0 1.297 1.053 2.35 2.35 2.35h2.515v.4c0 1.913 1.555 3.467 3.467 3.467h7.887c1.912 0 3.467-1.554 3.467-3.467v-.4h2.965c1.296 0 2.349-1.053 2.349-2.35v-8.447c0-1.297-1.053-2.348-2.349-2.348zm-15.547-4.965c0-.679.552-1.23 1.228-1.23h7.887c.678 0 1.23.551 1.23 1.23v4.965h-10.345v-4.965zm10.345 18.51c0 .678-.552 1.231-1.23 1.231h-7.887c-.676 0-1.228-.553-1.228-1.231v-2.99h10.345v2.99zm2.84-7.644h-15.646c-1.024 0-1.854-.619-1.854-1.381 0-.764.83-1.382 1.854-1.382h15.646c1.022 0 1.852.618 1.852 1.382 0 .762-.83 1.381-1.852 1.381zm0 0" fill="#206FAC"/><path d="M26.124 92.224h-2.965v-4.965c0-1.913-1.555-3.468-3.467-3.468h-7.887c-1.912 0-3.467 1.555-3.467 3.468v4.965h-2.515c-1.297 0-2.35 1.051-2.35 2.348v8.447c0 1.297 1.053 2.35 2.35 2.35h2.515v.4c0 1.913 1.555 3.467 3.467 3.467h7.887c1.912 0 3.467-1.554 3.467-3.467v-.4h2.965c1.296 0 2.349-1.053 2.349-2.35v-8.447c0-1.297-1.053-2.348-2.349-2.348zm-15.547-4.965c0-.679.552-1.23 1.228-1.23h7.887c.678 0 1.23.551 1.23 1.23v4.965h-10.345v-4.965zm10.345 18.51c0 .678-.552 1.231-1.23 1.231h-7.887c-.676 0-1.228-.553-1.228-1.231v-2.99h10.345v2.99zm2.84-7.644h-15.646c-1.024 0-1.854-.619-1.854-1.381 0-.764.83-1.382 1.854-1.382h15.646c1.022 0 1.852.618 1.852 1.382 0 .762-.83 1.381-1.852 1.381zm0 0" fill="#fff"/><path d="M26.124 52.224h-2.965v-4.965c0-1.913-1.555-3.468-3.467-3.468h-7.887c-1.912 0-3.467 1.555-3.467 3.468v4.965h-2.515c-1.297 0-2.35 1.051-2.35 2.348v8.447c0 1.297 1.053 2.35 2.35 2.35h2.515v.4c0 1.913 1.555 3.467 3.467 3.467h7.887c1.912 0 3.467-1.554 3.467-3.467v-.4h2.965c1.296 0 2.349-1.053 2.349-2.35v-8.447c0-1.297-1.053-2.348-2.349-2.348zm-15.547-4.965c0-.679.552-1.23 1.228-1.23h7.887c.678 0 1.23.551 1.23 1.23v4.965h-10.345v-4.965zm10.345 18.51c0 .678-.552 1.231-1.23 1.231h-7.887c-.676 0-1.228-.553-1.228-1.231v-2.99h10.345v2.99zm2.84-7.644h-15.646c-1.024 0-1.854-.619-1.854-1.381 0-.764.83-1.382 1.854-1.382h15.646c1.022 0 1.852.618 1.852 1.382 0 .762-.83 1.381-1.852 1.381zm0 0" fill="#67737B"/><path d="M26.124 12.224h-2.965v-4.965c0-1.913-1.555-3.468-3.467-3.468h-7.887c-1.912 0-3.467 1.555-3.467 3.468v4.965h-2.515c-1.297 0-2.35 1.051-2.35 2.348v8.447c0 1.297 1.053 2.35 2.35 2.35h2.515v.4c0 1.913 1.555 3.467 3.467 3.467h7.887c1.912 0 3.467-1.554 3.467-3.467v-.4h2.965c1.296 0 2.349-1.053 2.349-2.35v-8.447c0-1.297-1.053-2.348-2.349-2.348zm-15.547-4.965c0-.679.552-1.23 1.228-1.23h7.887c.678 0 1.23.551 1.23 1.23v4.965h-10.345v-4.965zm10.345 18.51c0 .678-.552 1.231-1.23 1.231h-7.887c-.676 0-1.228-.553-1.228-1.231v-2.99h10.345v2.99zm2.84-7.644h-15.646c-1.024 0-1.854-.619-1.854-1.381 0-.764.83-1.382 1.854-1.382h15.646c1.022 0 1.852.618 1.852 1.382 0 .762-.83 1.381-1.852 1.381zm0 0" fill="#3A434E"/></g></svg>