<svg width="32" height="232" viewBox="0 0 32 232" xmlns="http://www.w3.org/2000/svg"><title>quote</title><g fill="none"><path d="M27.934 143.016c-2.014-1.008-3.856-2.197-3.856-4.333 0-2.788 4.893-5.995 6.965-6.944l-3.167-3.739c-5.122 1.959-12.201 6.528-12.201 13.059 0 3.736 2.647 6.941 6.389 6.941 3.166 0 5.295-1.959 5.87-4.984zm-14.676 0c-2.014-1.008-3.856-2.197-3.856-4.333 0-2.788 4.895-5.995 6.967-6.944l-3.168-3.739c-5.123 1.959-12.201 6.528-12.201 13.059 0 3.736 2.705 6.941 6.388 6.941 3.108 0 5.295-1.959 5.87-4.984zm0 0" fill="#206FAC"/><path d="M27.934 103.016c-2.014-1.008-3.856-2.197-3.856-4.333 0-2.788 4.893-5.995 6.965-6.944l-3.167-3.739c-5.122 1.959-12.201 6.528-12.201 13.059 0 3.736 2.647 6.941 6.389 6.941 3.166 0 5.295-1.959 5.87-4.984zm-14.676 0c-2.014-1.008-3.856-2.197-3.856-4.333 0-2.788 4.895-5.995 6.967-6.944l-3.168-3.739c-5.123 1.959-12.201 6.528-12.201 13.059 0 3.736 2.705 6.941 6.388 6.941 3.108 0 5.295-1.959 5.87-4.984zm0 0" fill="#fff"/><path d="M27.934 63.016c-2.014-1.008-3.856-2.197-3.856-4.333 0-2.788 4.893-5.995 6.965-6.944l-3.167-3.739c-5.122 1.959-12.201 6.528-12.201 13.059 0 3.736 2.647 6.941 6.389 6.941 3.166 0 5.295-1.959 5.87-4.984zm-14.676 0c-2.014-1.008-3.856-2.197-3.856-4.333 0-2.788 4.895-5.995 6.967-6.944l-3.168-3.739c-5.123 1.959-12.201 6.528-12.201 13.059 0 3.736 2.705 6.941 6.388 6.941 3.108 0 5.295-1.959 5.87-4.984zm0 0" fill="#67737B"/><path d="M27.934 23.016c-2.014-1.008-3.856-2.197-3.856-4.333 0-2.788 4.893-5.995 6.965-6.944l-3.167-3.739c-5.122 1.959-12.201 6.528-12.201 13.059 0 3.736 2.647 6.941 6.389 6.941 3.166 0 5.295-1.959 5.87-4.984zm-14.676 0c-2.014-1.008-3.856-2.197-3.856-4.333 0-2.788 4.895-5.995 6.967-6.944l-3.168-3.739c-5.123 1.959-12.201 6.528-12.201 13.059 0 3.736 2.705 6.941 6.388 6.941 3.108 0 5.295-1.959 5.87-4.984zm0 0" fill="#3A434E"/></g></svg>