<svg width="32" height="232" viewBox="0 0 32 232" xmlns="http://www.w3.org/2000/svg"><title>recreation</title><g fill="none"><path d="M19.445 128.063c1.397 0 2.533-1.135 2.533-2.531 0-1.397-1.136-2.532-2.533-2.532-1.396 0-2.529 1.135-2.529 2.532 0 1.396 1.133 2.531 2.529 2.531m4.09 4.961l-.262-.032-.123-.004-2.234-.007-.772-2.377c-.216-.668-.783-1.176-1.431-1.317l-2.034-.826c-.224-.086-.457-.134-.695-.137l-4.496-.087c-.344 0-.682.088-.984.257l-.051-.037-3.465 3.153c-.84.763-.894 2.078-.123 2.924.396.437.955.685 1.541.685.512 0 1.002-.188 1.381-.531l2.513-2.285.649.002-1.479 3.581-1.548 3.032-2.922-.541-.26-.03-.811-.146c-1.132-.207-2.195.566-2.396 1.68-.203 1.125.539 2.206 1.656 2.413l5.561 1.008c1.023.191 1.99-.414 2.318-1.378l.867-1.414.657 1.91v4.42c0 1.134.933 2.06 2.082 2.06 1.14 0 2.074-.924 2.078-2.06v-4.584l-.012-.221c-.01-.225-.047-.417-.107-.592l-1.202-3.501.674-1.598c.367.323.844.505 1.344.507l3.736.009c1.264 0 2.051-.763 2.051-1.983 0-1.09-.646-1.822-1.701-1.953zm4.978 13.541c0 1.342-1.087 2.435-2.433 2.435-1.344 0-2.436-1.093-2.436-2.435 0-1.346 1.092-2.437 2.436-2.437 1.346 0 2.433 1.091 2.433 2.437zm0 0" fill="#206FAC"/><path d="M19.445 88.063c1.397 0 2.533-1.135 2.533-2.531 0-1.397-1.136-2.532-2.533-2.532-1.396 0-2.529 1.135-2.529 2.532 0 1.396 1.133 2.531 2.529 2.531m4.09 4.961l-.262-.032-.123-.004-2.234-.007-.772-2.377c-.216-.668-.783-1.176-1.431-1.317l-2.034-.826c-.224-.086-.457-.134-.695-.137l-4.496-.087c-.344 0-.682.088-.984.257l-.051-.037-3.465 3.153c-.84.763-.894 2.078-.123 2.924.396.437.955.685 1.541.685.512 0 1.002-.188 1.381-.531l2.513-2.285.649.002-1.479 3.581-1.548 3.032-2.922-.541-.26-.03-.811-.146c-1.132-.207-2.195.566-2.396 1.68-.203 1.125.539 2.206 1.656 2.413l5.561 1.008c1.023.191 1.99-.414 2.318-1.378l.867-1.414.657 1.91v4.42c0 1.134.933 2.06 2.082 2.06 1.14 0 2.074-.924 2.078-2.06v-4.584l-.012-.221c-.01-.225-.047-.417-.107-.592l-1.202-3.501.674-1.598c.367.323.844.505 1.344.507l3.736.009c1.264 0 2.051-.763 2.051-1.983 0-1.09-.646-1.822-1.701-1.953zm4.978 13.541c0 1.342-1.087 2.435-2.433 2.435-1.344 0-2.436-1.093-2.436-2.435 0-1.346 1.092-2.437 2.436-2.437 1.346 0 2.433 1.091 2.433 2.437zm0 0" fill="#fff"/><path d="M19.445 48.063c1.397 0 2.533-1.135 2.533-2.531 0-1.397-1.136-2.532-2.533-2.532-1.396 0-2.529 1.135-2.529 2.532 0 1.396 1.133 2.531 2.529 2.531m4.09 4.961l-.262-.032-.123-.004-2.234-.007-.772-2.377c-.216-.668-.783-1.176-1.431-1.317l-2.034-.826c-.224-.086-.457-.134-.695-.137l-4.496-.087c-.344 0-.682.088-.984.257l-.051-.037-3.465 3.153c-.84.763-.894 2.078-.123 2.924.396.437.955.685 1.541.685.512 0 1.002-.188 1.381-.531l2.513-2.285.649.002-1.479 3.581-1.548 3.032-2.922-.541-.26-.03-.811-.146c-1.132-.207-2.195.566-2.396 1.68-.203 1.125.539 2.206 1.656 2.413l5.561 1.008c1.023.191 1.99-.414 2.318-1.378l.867-1.414.657 1.91v4.42c0 1.134.933 2.06 2.082 2.06 1.14 0 2.074-.924 2.078-2.06v-4.584l-.012-.221c-.01-.225-.047-.417-.107-.592l-1.202-3.501.674-1.598c.367.323.844.505 1.344.507l3.736.009c1.264 0 2.051-.763 2.051-1.983 0-1.09-.646-1.822-1.701-1.953zm4.978 13.541c0 1.342-1.087 2.435-2.433 2.435-1.344 0-2.436-1.093-2.436-2.435 0-1.346 1.092-2.437 2.436-2.437 1.346 0 2.433 1.091 2.433 2.437zm0 0" fill="#67737B"/><path d="M19.445 8.063c1.397 0 2.533-1.135 2.533-2.531 0-1.397-1.136-2.532-2.533-2.532-1.396 0-2.529 1.135-2.529 2.532 0 1.396 1.133 2.531 2.529 2.531m4.09 4.961l-.262-.032-.123-.004-2.234-.007-.772-2.377c-.216-.668-.783-1.176-1.431-1.317l-2.034-.826c-.224-.086-.457-.134-.695-.137l-4.496-.087c-.344 0-.682.088-.984.257l-.051-.037-3.465 3.153c-.84.763-.894 2.078-.123 2.924.396.437.955.685 1.541.685.512 0 1.002-.188 1.381-.531l2.513-2.285.649.002-1.479 3.581-1.548 3.032-2.922-.541-.26-.03-.811-.146c-1.132-.207-2.195.566-2.396 1.68-.203 1.125.539 2.206 1.656 2.413l5.561 1.008c1.023.191 1.99-.414 2.318-1.378l.867-1.414.657 1.91v4.42c0 1.134.933 2.06 2.082 2.06 1.14 0 2.074-.924 2.078-2.06v-4.584l-.012-.221c-.01-.225-.047-.417-.107-.592l-1.202-3.501.674-1.598c.367.323.844.505 1.344.507l3.736.009c1.264 0 2.051-.763 2.051-1.983 0-1.09-.646-1.822-1.701-1.953zm4.978 13.541c0 1.342-1.087 2.435-2.433 2.435-1.344 0-2.436-1.093-2.436-2.435 0-1.346 1.092-2.437 2.436-2.437 1.346 0 2.433 1.091 2.433 2.437zm0 0" fill="#3A434E"/></g></svg>