<?xml version="1.0" encoding="UTF-8" standalone="no"?>
<svg width="32px" height="232px" viewBox="0 0 32 232" version="1.1" xmlns="http://www.w3.org/2000/svg" xmlns:xlink="http://www.w3.org/1999/xlink" xmlns:sketch="http://www.bohemiancoding.com/sketch/ns">
    <title>refresh</title>
    <description>Created with Sketch (http://www.bohemiancoding.com/sketch)</description>
    <defs></defs>
    <g id="Actions" stroke="none" stroke-width="1" fill="none" fill-rule="evenodd" sketch:type="MSPage">
        <path d="M17.73,125 C11.57,125 6.56,129.996 6.406,136.214 L3,136.214 L8.097,141.964 L13.199,136.214 L9.238,136.214 C9.392,131.583 13.133,127.875 17.73,127.875 C22.428,127.875 26.232,131.737 26.232,136.5 C26.232,141.264 22.428,145.125 17.73,145.125 C15.849,145.125 14.113,144.504 12.701,143.451 L10.754,145.563 C12.679,147.09 15.101,148 17.73,148 C23.994,148 29.066,142.851 29.066,136.5 C29.066,130.15 23.994,125 17.73,125" id="refresh--lp-blue" fill="#206FAC" sketch:type="MSShapeGroup"></path>
        <path d="M17.73,85 C11.57,85 6.56,89.996 6.406,96.214 L3,96.214 L8.097,101.964 L13.199,96.214 L9.238,96.214 C9.392,91.583 13.133,87.875 17.73,87.875 C22.428,87.875 26.232,91.737 26.232,96.5 C26.232,101.264 22.428,105.125 17.73,105.125 C15.849,105.125 14.113,104.504 12.701,103.451 L10.754,105.563 C12.679,107.09 15.101,108 17.73,108 C23.994,108 29.066,102.851 29.066,96.5 C29.066,90.15 23.994,85 17.73,85" id="refresh--white" fill="#FFFFFF" sketch:type="MSShapeGroup"></path>
        <path d="M17.73,45 C11.57,45 6.56,49.996 6.406,56.214 L3,56.214 L8.097,61.964 L13.199,56.214 L9.238,56.214 C9.392,51.583 13.133,47.875 17.73,47.875 C22.428,47.875 26.232,51.737 26.232,56.5 C26.232,61.264 22.428,65.125 17.73,65.125 C15.849,65.125 14.113,64.504 12.701,63.451 L10.754,65.563 C12.679,67.09 15.101,68 17.73,68 C23.994,68 29.066,62.851 29.066,56.5 C29.066,50.15 23.994,45 17.73,45" id="refresh--body-grey" fill="#67737B" sketch:type="MSShapeGroup"></path>
        <path d="M17.73,5 C11.57,5 6.56,9.996 6.406,16.214 L3,16.214 L8.097,21.964 L13.199,16.214 L9.238,16.214 C9.392,11.583 13.133,7.875 17.73,7.875 C22.428,7.875 26.232,11.737 26.232,16.5 C26.232,21.264 22.428,25.125 17.73,25.125 C15.849,25.125 14.113,24.504 12.701,23.451 L10.754,25.563 C12.679,27.09 15.101,28 17.73,28 C23.994,28 29.066,22.851 29.066,16.5 C29.066,10.15 23.994,5 17.73,5" id="refresh--title-grey" fill="#3A434E" sketch:type="MSShapeGroup"></path>
    </g>
</svg>