<svg width="32" height="232" xmlns="http://www.w3.org/2000/svg" xmlns:sketch="http://www.bohemiancoding.com/sketch/ns"><title>refresh</title><g sketch:type="MSPage" fill="none"><path d="M17.73 125c-6.16 0-11.17 4.996-11.324 11.214h-3.406l5.097 5.75 5.102-5.75h-3.961c.154-4.631 3.895-8.339 8.492-8.339 4.698 0 8.502 3.862 8.502 8.625 0 4.764-3.804 8.625-8.502 8.625-1.881 0-3.617-.621-5.029-1.674l-1.947 2.112c1.925 1.527 4.347 2.437 6.976 2.437 6.264 0 11.336-5.149 11.336-11.5 0-6.35-5.072-11.5-11.336-11.5" fill="#206FAC" sketch:type="MSShapeGroup"/><path d="M17.73 85c-6.16 0-11.17 4.996-11.324 11.214h-3.406l5.097 5.75 5.102-5.75h-3.961c.154-4.631 3.895-8.339 8.492-8.339 4.698 0 8.502 3.862 8.502 8.625 0 4.764-3.804 8.625-8.502 8.625-1.881 0-3.617-.621-5.029-1.674l-1.947 2.112c1.925 1.527 4.347 2.437 6.976 2.437 6.264 0 11.336-5.149 11.336-11.5 0-6.35-5.072-11.5-11.336-11.5" fill="#fff" sketch:type="MSShapeGroup"/><path d="M17.73 45c-6.16 0-11.17 4.996-11.324 11.214h-3.406l5.097 5.75 5.102-5.75h-3.961c.154-4.631 3.895-8.339 8.492-8.339 4.698 0 8.502 3.862 8.502 8.625 0 4.764-3.804 8.625-8.502 8.625-1.881 0-3.617-.621-5.029-1.674l-1.947 2.112c1.925 1.527 4.347 2.437 6.976 2.437 6.264 0 11.336-5.149 11.336-11.5 0-6.35-5.072-11.5-11.336-11.5" fill="#67737B" sketch:type="MSShapeGroup"/><path d="M17.73 5c-6.16 0-11.17 4.996-11.324 11.214h-3.406l5.097 5.75 5.102-5.75h-3.961c.154-4.631 3.895-8.339 8.492-8.339 4.698 0 8.502 3.862 8.502 8.625 0 4.764-3.804 8.625-8.502 8.625-1.881 0-3.617-.621-5.029-1.674l-1.947 2.112c1.925 1.527 4.347 2.437 6.976 2.437 6.264 0 11.336-5.149 11.336-11.5 0-6.35-5.072-11.5-11.336-11.5" fill="#3A434E" sketch:type="MSShapeGroup"/></g></svg>