<svg width="32" height="232" viewBox="0 0 32 232" xmlns="http://www.w3.org/2000/svg"><title>restaurant</title><g fill="none"><path d="M11.305 179.247c-.049.042-4.853 4.532-6.595 6.268-.679.677-.888 1.559-.553 2.358.294.716.95 1.176 1.668 1.176.517 0 1.016-.239 1.455-.674l6.846-6.609-2.665-2.666-.156.147zm16.526 6.283l-6.127-6.127-13.627-13.834-.126.041c-.073.024-1.792.569-2.288 2.154-.385 1.23.084 2.707 1.414 4.41l8.704 8.912.058.058 2.527.203.67.721c.04.046 4.203 4.299 5.942 6.036.583.585 1.186.706 1.588.706.794 0 1.523-.47 1.811-1.175.291-.697.092-1.465-.546-2.105zm-10.439-12.94l3.096 3.099c.47.469 1.059.736 1.62.736.327 0 .622-.095.853-.27l.008.011 4.868-4.87c.197-.199.308-.461.308-.742 0-.278-.111-.543-.308-.742-.395-.395-1.087-.395-1.487 0l-4.202 4.209-.776-.775 4.008-4.009c.41-.408.41-1.078 0-1.483-.398-.399-1.086-.399-1.483 0l-4.01 4.007-.82-.826 4.153-4.154c.41-.411.41-1.075 0-1.484-.395-.396-1.087-.396-1.482 0l-4.705 4.699c-.3.303-.43.748-.36 1.247.076.481.33.96.719 1.347zm0 0" fill="#47A899"/><path d="M11.305 139.247c-.049.042-4.853 4.532-6.595 6.268-.679.677-.888 1.559-.553 2.358.294.716.95 1.176 1.668 1.176.517 0 1.016-.239 1.455-.674l6.846-6.609-2.665-2.666-.156.147zm16.526 6.283l-6.127-6.127-13.627-13.834-.126.041c-.073.024-1.792.569-2.288 2.154-.385 1.23.084 2.707 1.414 4.41l8.704 8.912.058.058 2.527.203.67.721c.04.046 4.203 4.299 5.942 6.036.583.585 1.186.706 1.588.706.794 0 1.523-.47 1.811-1.175.291-.697.092-1.465-.546-2.105zm-10.439-12.94l3.096 3.099c.47.469 1.059.736 1.62.736.327 0 .622-.095.853-.27l.008.011 4.868-4.87c.197-.199.308-.461.308-.742 0-.278-.111-.543-.308-.742-.395-.395-1.087-.395-1.487 0l-4.202 4.209-.776-.775 4.008-4.009c.41-.408.41-1.078 0-1.483-.398-.399-1.086-.399-1.483 0l-4.01 4.007-.82-.826 4.153-4.154c.41-.411.41-1.075 0-1.484-.395-.396-1.087-.396-1.482 0l-4.705 4.699c-.3.303-.43.748-.36 1.247.076.481.33.96.719 1.347zm0 0" fill="#206FAC"/><path d="M11.305 99.247c-.049.042-4.853 4.532-6.595 6.268-.679.677-.888 1.559-.553 2.358.294.716.95 1.176 1.668 1.176.517 0 1.016-.239 1.455-.674l6.846-6.609-2.665-2.666-.156.147zm16.526 6.283l-6.127-6.127-13.627-13.834-.126.041c-.073.024-1.792.569-2.288 2.154-.385 1.23.084 2.707 1.414 4.41l8.704 8.912.058.058 2.527.203.67.721c.04.046 4.203 4.299 5.942 6.036.583.585 1.186.706 1.588.706.794 0 1.523-.47 1.811-1.175.291-.697.092-1.465-.546-2.105zm-10.439-12.94l3.096 3.099c.47.469 1.059.736 1.62.736.327 0 .622-.095.853-.27l.008.011 4.868-4.87c.197-.199.308-.461.308-.742 0-.278-.111-.543-.308-.742-.395-.395-1.087-.395-1.487 0l-4.202 4.209-.776-.775 4.008-4.009c.41-.408.41-1.078 0-1.483-.398-.399-1.086-.399-1.483 0l-4.01 4.007-.82-.826 4.153-4.154c.41-.411.41-1.075 0-1.484-.395-.396-1.087-.396-1.482 0l-4.705 4.699c-.3.303-.43.748-.36 1.247.076.481.33.96.719 1.347zm0 0" fill="#fff"/><path d="M11.305 59.247c-.049.042-4.853 4.532-6.595 6.268-.679.677-.888 1.559-.553 2.358.294.716.95 1.176 1.668 1.176.517 0 1.016-.239 1.455-.674l6.846-6.609-2.665-2.666-.156.147zm16.526 6.283l-6.127-6.127-13.627-13.834-.126.041c-.073.024-1.792.569-2.288 2.154-.385 1.23.084 2.707 1.414 4.41l8.704 8.912.058.058 2.527.203.67.721c.04.046 4.203 4.299 5.942 6.036.583.585 1.186.706 1.588.706.794 0 1.523-.47 1.811-1.175.291-.697.092-1.465-.546-2.105zm-10.439-12.94l3.096 3.099c.47.469 1.059.736 1.62.736.327 0 .622-.095.853-.27l.008.011 4.868-4.87c.197-.199.308-.461.308-.742 0-.278-.111-.543-.308-.742-.395-.395-1.087-.395-1.487 0l-4.202 4.209-.776-.775 4.008-4.009c.41-.408.41-1.078 0-1.483-.398-.399-1.086-.399-1.483 0l-4.01 4.007-.82-.826 4.153-4.154c.41-.411.41-1.075 0-1.484-.395-.396-1.087-.396-1.482 0l-4.705 4.699c-.3.303-.43.748-.36 1.247.076.481.33.96.719 1.347zm0 0" fill="#67747C"/><path d="M11.305 19.247c-.049.042-4.853 4.532-6.595 6.268-.679.677-.888 1.559-.553 2.358.294.716.95 1.176 1.668 1.176.517 0 1.016-.239 1.455-.674l6.846-6.609-2.665-2.666-.156.147zm16.526 6.283l-6.127-6.127-13.627-13.834-.126.041c-.073.024-1.792.569-2.288 2.154-.385 1.23.084 2.707 1.414 4.41l8.704 8.912.058.058 2.527.203.67.721c.04.046 4.203 4.299 5.942 6.036.583.585 1.186.706 1.588.706.794 0 1.523-.47 1.811-1.175.291-.697.092-1.465-.546-2.105zm-10.439-12.94l3.096 3.099c.47.469 1.059.736 1.62.736.327 0 .622-.095.853-.27l.008.011 4.868-4.87c.197-.199.308-.461.308-.742 0-.278-.111-.543-.308-.742-.395-.395-1.087-.395-1.487 0l-4.202 4.209-.776-.775 4.008-4.009c.41-.408.41-1.078 0-1.483-.398-.399-1.086-.399-1.483 0l-4.01 4.007-.82-.826 4.153-4.154c.41-.411.41-1.075 0-1.484-.395-.396-1.087-.396-1.482 0l-4.705 4.699c-.3.303-.43.748-.36 1.247.076.481.33.96.719 1.347zm0 0" fill="#3B444F"/></g></svg>