<?xml version="1.0" encoding="UTF-8" standalone="no"?>
<svg width="22px" height="32px" viewBox="0 0 22 32" version="1.1" xmlns="http://www.w3.org/2000/svg" xmlns:xlink="http://www.w3.org/1999/xlink" xmlns:sketch="http://www.bohemiancoding.com/sketch/ns">
    <title>restaurant--pin</title>
    <description>Created with Sketch (http://www.bohemiancoding.com/sketch)</description>
    <defs></defs>
    <g id="Points-of-interest" stroke="none" stroke-width="1" fill="none" fill-rule="evenodd" sketch:type="MSPage">
        <g id="restaurant--pin" sketch:type="MSLayerGroup" transform="translate(-1.000000, 0.000000)">
            <path d="M16.497,29.984 C16.497,31.089 14.481,31.984 11.997,31.984 C9.511,31.984 7.497,31.089 7.497,29.984 C7.497,28.88 9.511,27.984 11.997,27.984 C14.481,27.984 16.497,28.88 16.497,29.984" id="Fill-1" fill-opacity="0.2" fill="#1D508D" sketch:type="MSShapeGroup"></path>
            <path d="M11.997,0.016 C18.072,0.016 22.997,4.378 22.997,10.935 C22.997,17.343 17.447,20.095 14.491,24.192 C12.073,27.538 11.997,30.016 11.997,30.016 C11.997,30.016 11.979,27.525 9.502,24.192 C6.462,20.095 0.997,17.531 0.997,10.935 C0.997,4.376 5.923,0.016 11.997,0.016" id="Fill-2" fill="#47A899" sketch:type="MSShapeGroup"></path>
            <path d="M9.528,11.69 C9.505,11.714 7.106,13.951 6.237,14.821 C5.896,15.158 5.794,15.599 5.96,15.997 C6.106,16.354 6.435,16.583 6.792,16.583 C7.047,16.583 7.302,16.466 7.523,16.246 L10.935,12.95 L9.605,11.62 L9.528,11.69 L9.528,11.69 L9.528,11.69 L9.528,11.69 Z M17.776,14.83 L14.716,11.771 L7.917,4.869 L7.856,4.89 C7.819,4.896 6.96,5.175 6.71,5.956 C6.521,6.575 6.755,7.312 7.419,8.165 L11.765,12.608 L11.793,12.636 L13.052,12.741 L13.388,13.097 C13.405,13.124 15.481,15.245 16.351,16.113 C16.644,16.401 16.944,16.466 17.146,16.466 C17.539,16.466 17.905,16.231 18.048,15.879 C18.192,15.53 18.093,15.148 17.776,14.83 L17.776,14.83 Z M12.567,8.372 L14.114,9.915 C14.349,10.149 14.639,10.284 14.919,10.284 C15.085,10.284 15.23,10.236 15.345,10.148 L15.353,10.152 L17.78,7.727 C17.874,7.62 17.933,7.495 17.933,7.355 C17.933,7.213 17.874,7.083 17.78,6.983 C17.581,6.786 17.235,6.786 17.038,6.983 L14.938,9.083 L14.552,8.7 L16.552,6.698 C16.758,6.493 16.758,6.158 16.552,5.956 C16.354,5.761 16.012,5.761 15.81,5.956 L13.808,7.956 L13.4,7.544 L15.472,5.47 C15.677,5.269 15.677,4.935 15.472,4.729 C15.275,4.534 14.935,4.534 14.733,4.729 L12.39,7.072 C12.239,7.226 12.173,7.447 12.21,7.694 C12.247,7.938 12.372,8.175 12.567,8.372 L12.567,8.372 Z M12.567,8.372" id="Fill-3" fill="#FFFFFF" sketch:type="MSShapeGroup"></path>
        </g>
    </g>
</svg>