<svg width="22" height="32" viewBox="0 0 22 32" xmlns="http://www.w3.org/2000/svg"><title>restaurant--pin</title><g fill="none"><path d="M15.497 29.984c0 1.105-2.016 2-4.5 2-2.486 0-4.5-.895-4.5-2 0-1.104 2.014-2 4.5-2 2.484 0 4.5.896 4.5 2" fill-opacity=".2" fill="#1D508D"/><path d="M10.997.016c6.075 0 11 4.362 11 10.919 0 6.408-5.55 9.16-8.506 13.257-2.418 3.346-2.494 5.824-2.494 5.824s-.018-2.491-2.495-5.824c-3.04-4.097-8.505-6.661-8.505-13.257 0-6.559 4.926-10.919 11-10.919" fill="#47A899"/><path d="M8.528 11.69c-.023.024-2.422 2.261-3.291 3.131-.341.337-.443.778-.277 1.176.146.357.475.586.832.586.255 0 .51-.117.731-.337l3.412-3.296-1.33-1.33-.077.07zm8.248 3.14l-3.06-3.059-6.799-6.902-.061.021c-.037.006-.896.285-1.146 1.066-.189.619.045 1.356.709 2.209l4.346 4.443.028.028 1.259.105.336.356c.017.027 2.093 2.148 2.963 3.016.293.288.593.353.795.353.393 0 .759-.235.902-.587.144-.349.045-.731-.272-1.049zm-5.209-6.458l1.547 1.543c.235.234.525.369.805.369.166 0 .311-.048.426-.136l.008.004 2.427-2.425c.094-.107.153-.232.153-.372 0-.142-.059-.272-.153-.372-.199-.197-.545-.197-.742 0l-2.1 2.1-.386-.383 2-2.002c.206-.205.206-.54 0-.742-.198-.195-.54-.195-.742 0l-2.002 2-.408-.412 2.072-2.074c.205-.201.205-.535 0-.741-.197-.195-.537-.195-.739 0l-2.343 2.343c-.151.154-.217.375-.18.622.037.244.162.481.357.678zm0 0" fill="#fff"/></g></svg>