<svg width="32" height="232" xmlns="http://www.w3.org/2000/svg" xmlns:sketch="http://www.bohemiancoding.com/sketch/ns"><title>restaurant--line</title><g sketch:type="MSPage" fill="none"><path d="M27.282 129.239c-.364-.371-.828-.613-1.321-.7-.123-.345-.32-.659-.584-.923-.272-.275-.605-.478-.97-.595-.085-.476-.307-.928-.667-1.295-.455-.464-1.088-.726-1.739-.726s-1.284.263-1.735.724l-2.972 3.008c-.601.611-.87 1.484-.741 2.393.109.732.468 1.434 1.009 1.985l2.37 2.406c.673.679 1.547 1.063 2.406 1.063.614 0 1.186-.192 1.653-.555l.081-.064.076-.073.788-.788 2.327-2.357c.47-.487.72-1.109.72-1.762 0-.65-.248-1.268-.701-1.741zm-1.186 2.317l-2.319 2.348-.788.788c-.176.137-.401.211-.651.211-.427 0-.879-.209-1.237-.569l-2.367-2.405c-.296-.301-.491-.671-.546-1.044-.056-.388.042-.732.273-.966l2.974-3.013c.151-.152.359-.23.566-.23.208 0 .415.078.569.23.309.316.309.833 0 1.151l-3.175 3.22.628.64 3.062-3.108c.152-.153.358-.23.566-.23.207 0 .415.077.566.23.314.314.314.834 0 1.153l-3.061 3.105.593.6 3.211-3.261c.152-.154.361-.231.569-.231.21 0 .416.077.567.231.148.153.235.356.235.574 0 .218-.087.422-.235.576zm-.693 17.225c-.521 0-1.299-.156-2.032-.895-1.607-1.633-5.417-5.585-5.433-5.602l-.4-.435-2.296-.187-.217-.231-7.985-8.292c-1.446-1.871-1.925-3.501-1.485-4.919.584-1.892 2.553-2.516 2.636-2.541l.585-.191 12.78 13.165 5.583 5.663c.818.829 1.073 1.899.679 2.863-.389.956-1.359 1.602-2.415 1.602zm-9.409-8.738l2.317.189.83.904c.08.083 3.829 3.969 5.397 5.563.607.611 1.51.44 1.752-.159.172-.418-.079-.795-.317-1.036l-5.588-5.67-12.046-12.408c-.389.196-.995.603-1.209 1.298-.267.859.121 1.974 1.151 3.315l7.713 8.004zm-9.506 8.957c-.993 0-1.89-.629-2.284-1.606-.43-1.041-.169-2.226.684-3.091 1.581-1.601 5.184-4.961 5.336-5.102l.584-.546 3.587 3.641-6.006 5.846c-.554.559-1.213.858-1.901.858zm4.273-8.022c-1.109 1.041-3.523 3.314-4.706 4.512-.38.384-.498.843-.326 1.262.143.349.44.572.759.572.306 0 .575-.205.748-.38l4.797-4.674-1.272-1.292zm0 0" fill="#206FAC" sketch:type="MSShapeGroup"/><path d="M27.282 89.239c-.364-.371-.828-.613-1.321-.7-.123-.345-.32-.659-.584-.923-.272-.275-.605-.478-.97-.595-.085-.476-.307-.928-.667-1.295-.455-.464-1.088-.726-1.739-.726s-1.284.263-1.735.724l-2.972 3.008c-.601.611-.87 1.484-.741 2.393.109.732.468 1.434 1.009 1.985l2.37 2.406c.673.679 1.547 1.063 2.406 1.063.614 0 1.186-.192 1.653-.555l.081-.064.076-.073.788-.788 2.327-2.357c.47-.487.72-1.109.72-1.762 0-.65-.248-1.268-.701-1.741zm-1.186 2.317l-2.319 2.348-.788.788c-.176.137-.401.211-.651.211-.427 0-.879-.209-1.237-.569l-2.367-2.405c-.296-.301-.491-.671-.546-1.044-.056-.388.042-.732.273-.966l2.974-3.013c.151-.152.359-.23.566-.23.208 0 .415.078.569.23.309.316.309.833 0 1.151l-3.175 3.22.628.64 3.062-3.108c.152-.153.358-.23.566-.23.207 0 .415.077.566.23.314.314.314.834 0 1.153l-3.061 3.105.593.6 3.211-3.261c.152-.154.361-.231.569-.231.21 0 .416.077.567.231.148.153.235.356.235.574 0 .218-.087.422-.235.576zm-.693 17.225c-.521 0-1.299-.156-2.032-.895-1.607-1.633-5.417-5.585-5.433-5.602l-.4-.435-2.296-.187-.217-.231-7.985-8.292c-1.446-1.871-1.925-3.501-1.485-4.919.584-1.892 2.553-2.516 2.636-2.541l.585-.191 12.78 13.165 5.583 5.663c.818.829 1.073 1.899.679 2.863-.389.956-1.359 1.602-2.415 1.602zm-9.409-8.738l2.317.189.83.904c.08.083 3.829 3.969 5.397 5.563.607.611 1.51.44 1.752-.159.172-.418-.079-.795-.317-1.036l-5.588-5.67-12.046-12.408c-.389.196-.995.603-1.209 1.298-.267.859.121 1.974 1.151 3.315l7.713 8.004zm-9.506 8.957c-.993 0-1.89-.629-2.284-1.606-.43-1.041-.169-2.226.684-3.091 1.581-1.601 5.184-4.961 5.336-5.102l.584-.546 3.587 3.641-6.006 5.846c-.554.559-1.213.858-1.901.858zm4.273-8.022c-1.109 1.041-3.523 3.314-4.706 4.512-.38.384-.498.843-.326 1.262.143.349.44.572.759.572.306 0 .575-.205.748-.38l4.797-4.674-1.272-1.292zm0 0" fill="#fff" sketch:type="MSShapeGroup"/><path d="M27.282 49.239c-.364-.371-.828-.613-1.321-.7-.123-.345-.32-.659-.584-.923-.272-.275-.605-.478-.97-.595-.085-.476-.307-.928-.667-1.295-.455-.464-1.088-.726-1.739-.726s-1.284.263-1.735.724l-2.972 3.008c-.601.611-.87 1.484-.741 2.393.109.732.468 1.434 1.009 1.985l2.37 2.406c.673.679 1.547 1.063 2.406 1.063.614 0 1.186-.192 1.653-.555l.081-.064.076-.073.788-.788 2.327-2.357c.47-.487.72-1.109.72-1.762 0-.65-.248-1.268-.701-1.741zm-1.186 2.317l-2.319 2.348-.788.788c-.176.137-.401.211-.651.211-.427 0-.879-.209-1.237-.569l-2.367-2.405c-.296-.301-.491-.671-.546-1.044-.056-.388.042-.732.273-.966l2.974-3.013c.151-.152.359-.23.566-.23.208 0 .415.078.569.23.309.316.309.833 0 1.151l-3.175 3.22.628.64 3.062-3.108c.152-.153.358-.23.566-.23.207 0 .415.077.566.23.314.314.314.834 0 1.153l-3.061 3.105.593.6 3.211-3.261c.152-.154.361-.231.569-.231.21 0 .416.077.567.231.148.153.235.356.235.574 0 .218-.087.422-.235.576zm-.693 17.225c-.521 0-1.299-.156-2.032-.895-1.607-1.633-5.417-5.585-5.433-5.602l-.4-.435-2.296-.187-.217-.231-7.985-8.292c-1.446-1.871-1.925-3.501-1.485-4.919.584-1.892 2.553-2.516 2.636-2.541l.585-.191 12.78 13.165 5.583 5.663c.818.829 1.073 1.899.679 2.863-.389.956-1.359 1.602-2.415 1.602zm-9.409-8.738l2.317.189.83.904c.08.083 3.829 3.969 5.397 5.563.607.611 1.51.44 1.752-.159.172-.418-.079-.795-.317-1.036l-5.588-5.67-12.046-12.408c-.389.196-.995.603-1.209 1.298-.267.859.121 1.974 1.151 3.315l7.713 8.004zm-9.506 8.957c-.993 0-1.89-.629-2.284-1.606-.43-1.041-.169-2.226.684-3.091 1.581-1.601 5.184-4.961 5.336-5.102l.584-.546 3.587 3.641-6.006 5.846c-.554.559-1.213.858-1.901.858zm4.273-8.022c-1.109 1.041-3.523 3.314-4.706 4.512-.38.384-.498.843-.326 1.262.143.349.44.572.759.572.306 0 .575-.205.748-.38l4.797-4.674-1.272-1.292zm0 0" fill="#67747C" sketch:type="MSShapeGroup"/><path d="M27.282 9.239c-.364-.371-.828-.613-1.321-.7-.123-.345-.32-.659-.584-.923-.272-.275-.605-.478-.97-.595-.085-.476-.307-.928-.667-1.295-.455-.464-1.088-.726-1.739-.726s-1.284.263-1.735.724l-2.972 3.008c-.601.611-.87 1.484-.741 2.393.109.732.468 1.434 1.009 1.985l2.37 2.406c.673.679 1.547 1.063 2.406 1.063.614 0 1.186-.192 1.653-.555l.081-.064.076-.073.788-.788 2.327-2.357c.47-.487.72-1.109.72-1.762 0-.65-.248-1.268-.701-1.741zm-1.186 2.317l-2.319 2.348-.788.788c-.176.137-.401.211-.651.211-.427 0-.879-.209-1.237-.569l-2.367-2.405c-.296-.301-.491-.671-.546-1.044-.056-.388.042-.732.273-.966l2.974-3.013c.151-.152.359-.23.566-.23.208 0 .415.078.569.23.309.316.309.833 0 1.151l-3.175 3.22.628.64 3.062-3.108c.152-.153.358-.23.566-.23.207 0 .415.077.566.23.314.314.314.834 0 1.153l-3.061 3.105.593.6 3.211-3.261c.152-.154.361-.231.569-.231.21 0 .416.077.567.231.148.153.235.356.235.574 0 .218-.087.422-.235.576zm-.693 17.225c-.521 0-1.299-.156-2.032-.895-1.607-1.633-5.417-5.585-5.433-5.602l-.4-.435-2.296-.187-.217-.231-7.985-8.292c-1.446-1.871-1.925-3.501-1.485-4.919.584-1.892 2.553-2.516 2.636-2.541l.585-.191 12.78 13.165 5.583 5.663c.818.829 1.073 1.899.679 2.863-.389.956-1.359 1.602-2.415 1.602zm-9.409-8.738l2.317.189.83.904c.08.083 3.829 3.969 5.397 5.563.607.611 1.51.44 1.752-.159.172-.418-.079-.795-.317-1.036l-5.588-5.67-12.046-12.408c-.389.196-.995.603-1.209 1.298-.267.859.121 1.974 1.151 3.315l7.713 8.004zm-9.506 8.957c-.993 0-1.89-.629-2.284-1.606-.43-1.041-.169-2.226.684-3.091 1.581-1.601 5.184-4.961 5.336-5.102l.584-.546 3.587 3.641-6.006 5.846c-.554.559-1.213.858-1.901.858zm4.273-8.022c-1.109 1.041-3.523 3.314-4.706 4.512-.38.384-.498.843-.326 1.262.143.349.44.572.759.572.306 0 .575-.205.748-.38l4.797-4.674-1.272-1.292zm0 0" fill="#3B444F" sketch:type="MSShapeGroup"/><path d="M27.282 169.239c-.364-.371-.828-.613-1.321-.7-.123-.345-.32-.659-.584-.923-.272-.275-.605-.478-.97-.595-.085-.476-.307-.928-.667-1.295-.455-.464-1.088-.726-1.739-.726s-1.284.263-1.735.724l-2.972 3.008c-.601.611-.87 1.484-.741 2.393.109.732.468 1.434 1.009 1.985l2.37 2.406c.673.679 1.547 1.063 2.406 1.063.614 0 1.186-.192 1.653-.555l.081-.064.076-.073.788-.788 2.327-2.357c.47-.487.72-1.109.72-1.762 0-.65-.248-1.268-.701-1.741zm-1.186 2.317l-2.319 2.348-.788.788c-.176.137-.401.211-.651.211-.427 0-.879-.209-1.237-.569l-2.367-2.405c-.296-.301-.491-.671-.546-1.044-.056-.388.042-.732.273-.966l2.974-3.013c.151-.152.359-.23.566-.23.208 0 .415.078.569.23.309.316.309.833 0 1.151l-3.175 3.22.628.64 3.062-3.108c.152-.153.358-.23.566-.23.207 0 .415.077.566.23.314.314.314.834 0 1.153l-3.061 3.105.593.6 3.211-3.261c.152-.154.361-.231.569-.231.21 0 .416.077.567.231.148.153.235.356.235.574 0 .218-.087.422-.235.576zm-.693 17.225c-.521 0-1.299-.156-2.032-.895-1.607-1.633-5.417-5.585-5.433-5.602l-.4-.435-2.296-.187-.217-.231-7.985-8.292c-1.446-1.871-1.925-3.501-1.485-4.919.584-1.892 2.553-2.516 2.636-2.541l.585-.191 12.78 13.165 5.583 5.663c.818.829 1.073 1.899.679 2.863-.389.956-1.359 1.602-2.415 1.602zm-9.409-8.738l2.317.189.83.904c.08.083 3.829 3.969 5.397 5.563.607.611 1.51.44 1.752-.159.172-.418-.079-.795-.317-1.036l-5.588-5.67-12.046-12.408c-.389.196-.995.603-1.209 1.298-.267.859.121 1.974 1.151 3.315l7.713 8.004zm-9.506 8.957c-.993 0-1.89-.629-2.284-1.606-.43-1.041-.169-2.226.684-3.091 1.581-1.601 5.184-4.961 5.336-5.102l.584-.546 3.587 3.641-6.006 5.846c-.554.559-1.213.858-1.901.858zm4.273-8.022c-1.109 1.041-3.523 3.314-4.706 4.512-.38.384-.498.843-.326 1.262.143.349.44.572.759.572.306 0 .575-.205.748-.38l4.797-4.674-1.272-1.292zm0 0" fill="#47A899" sketch:type="MSShapeGroup"/></g></svg>