<?xml version="1.0" encoding="UTF-8" standalone="no"?>
<svg width="32px" height="232px" viewBox="0 0 32 232" version="1.1" xmlns="http://www.w3.org/2000/svg" xmlns:xlink="http://www.w3.org/1999/xlink" xmlns:sketch="http://www.bohemiancoding.com/sketch/ns">
    <title>rss</title>
    <description>Created with Sketch (http://www.bohemiancoding.com/sketch)</description>
    <defs></defs>
    <g id="Social" stroke="none" stroke-width="1" fill="none" fill-rule="evenodd" sketch:type="MSPage">
        <path d="M15.2495385,188.796 C15.2495385,187.303 15.0067421,185.807 14.3967413,184.355 C13.8328919,182.942 12.9800947,181.729 11.8885143,180.599 C10.7939241,179.51 9.53379083,178.659 8.11714423,178.095 C6.70150092,177.489 5.24171282,177.205 3.66654627,177.205 L3.66654627,172.44 C8.1974075,172.44 12.0069026,174.015 15.2495385,177.245 C18.4480295,180.479 20.0763705,184.316 20.0763705,188.796 L15.2495385,188.796 L15.2495385,188.796 L15.2495385,188.796 L15.2495385,188.796 Z M23.7163095,188.839 C23.7163095,183.304 21.7338069,178.578 17.8400353,174.622 C13.9522835,170.742 9.21374107,168.765 3.66654627,168.765 L3.66654627,164 C10.5501244,164 16.3842604,166.421 21.2472109,171.269 C26.0680231,176.114 28.5,182.013 28.5,188.839 L23.7163095,188.839 L23.7163095,188.839 L23.7163095,188.839 L23.7163095,188.839 Z M9.21374107,187.99 C8.56360864,188.676 7.79709447,189 6.86102416,189 C5.93599005,189 5.16144955,188.676 4.47419536,187.99 C3.82506622,187.344 3.5,186.575 3.5,185.644 C3.5,184.719 3.82506622,183.95 4.47419536,183.265 C5.16144955,182.579 5.93599005,182.257 6.86102416,182.257 C7.79709447,182.257 8.56360864,182.579 9.21374107,183.265 C9.89999197,183.95 10.2230516,184.719 10.2230516,185.644 C10.2230516,186.575 9.89999197,187.344 9.21374107,187.99 L9.21374107,187.99 Z M9.21374107,187.99" id="rss--lp-blue" fill="#1D4F8D" sketch:type="MSShapeGroup"></path>
        <path d="M15.2495385,148.796 C15.2495385,147.303 15.0067421,145.807 14.3967413,144.355 C13.8328919,142.942 12.9800947,141.729 11.8885143,140.599 C10.7939241,139.51 9.53379083,138.659 8.11714423,138.095 C6.70150092,137.489 5.24171282,137.205 3.66654627,137.205 L3.66654627,132.44 C8.1974075,132.44 12.0069026,134.015 15.2495385,137.245 C18.4480295,140.479 20.0763705,144.316 20.0763705,148.796 L15.2495385,148.796 L15.2495385,148.796 L15.2495385,148.796 L15.2495385,148.796 Z M23.7163095,148.839 C23.7163095,143.304 21.7338069,138.578 17.8400353,134.622 C13.9522835,130.742 9.21374107,128.765 3.66654627,128.765 L3.66654627,124 C10.5501244,124 16.3842604,126.421 21.2472109,131.269 C26.0680231,136.114 28.5,142.013 28.5,148.839 L23.7163095,148.839 L23.7163095,148.839 L23.7163095,148.839 L23.7163095,148.839 Z M9.21374107,147.99 C8.56360864,148.676 7.79709447,149 6.86102416,149 C5.93599005,149 5.16144955,148.676 4.47419536,147.99 C3.82506622,147.344 3.5,146.575 3.5,145.644 C3.5,144.719 3.82506622,143.95 4.47419536,143.265 C5.16144955,142.579 5.93599005,142.257 6.86102416,142.257 C7.79709447,142.257 8.56360864,142.579 9.21374107,143.265 C9.89999197,143.95 10.2230516,144.719 10.2230516,145.644 C10.2230516,146.575 9.89999197,147.344 9.21374107,147.99 L9.21374107,147.99 Z M9.21374107,147.99" id="rss--white" fill="#FFFFFF" sketch:type="MSShapeGroup"></path>
        <path d="M15.2495385,108.796 C15.2495385,107.303 15.0067421,105.807 14.3967413,104.355 C13.8328919,102.942 12.9800947,101.729 11.8885143,100.599 C10.7939241,99.51 9.53379083,98.659 8.11714423,98.095 C6.70150092,97.489 5.24171282,97.205 3.66654627,97.205 L3.66654627,92.44 C8.1974075,92.44 12.0069026,94.015 15.2495385,97.245 C18.4480295,100.479 20.0763705,104.316 20.0763705,108.796 L15.2495385,108.796 L15.2495385,108.796 L15.2495385,108.796 L15.2495385,108.796 Z M23.7163095,108.839 C23.7163095,103.304 21.7338069,98.578 17.8400353,94.622 C13.9522835,90.742 9.21374107,88.765 3.66654627,88.765 L3.66654627,84 C10.5501244,84 16.3842604,86.421 21.2472109,91.269 C26.0680231,96.114 28.5,102.013 28.5,108.839 L23.7163095,108.839 L23.7163095,108.839 L23.7163095,108.839 L23.7163095,108.839 Z M9.21374107,107.99 C8.56360864,108.676 7.79709447,109 6.86102416,109 C5.93599005,109 5.16144955,108.676 4.47419536,107.99 C3.82506622,107.344 3.5,106.575 3.5,105.644 C3.5,104.719 3.82506622,103.95 4.47419536,103.265 C5.16144955,102.579 5.93599005,102.257 6.86102416,102.257 C7.79709447,102.257 8.56360864,102.579 9.21374107,103.265 C9.89999197,103.95 10.2230516,104.719 10.2230516,105.644 C10.2230516,106.575 9.89999197,107.344 9.21374107,107.99 L9.21374107,107.99 Z M9.21374107,107.99" id="rss--subdued-grey" fill="#E5EDF5" sketch:type="MSShapeGroup"></path>
        <path d="M15.2495385,68.796 C15.2495385,67.303 15.0067421,65.807 14.3967413,64.355 C13.8328919,62.942 12.9800947,61.729 11.8885143,60.599 C10.7939241,59.51 9.53379083,58.659 8.11714423,58.095 C6.70150092,57.489 5.24171282,57.205 3.66654627,57.205 L3.66654627,52.44 C8.1974075,52.44 12.0069026,54.015 15.2495385,57.245 C18.4480295,60.479 20.0763705,64.316 20.0763705,68.796 L15.2495385,68.796 L15.2495385,68.796 L15.2495385,68.796 L15.2495385,68.796 Z M23.7163095,68.839 C23.7163095,63.304 21.7338069,58.578 17.8400353,54.622 C13.9522835,50.742 9.21374107,48.765 3.66654627,48.765 L3.66654627,44 C10.5501244,44 16.3842604,46.421 21.2472109,51.269 C26.0680231,56.114 28.5,62.013 28.5,68.839 L23.7163095,68.839 L23.7163095,68.839 L23.7163095,68.839 L23.7163095,68.839 Z M9.21374107,67.99 C8.56360864,68.676 7.79709447,69 6.86102416,69 C5.93599005,69 5.16144955,68.676 4.47419536,67.99 C3.82506622,67.344 3.5,66.575 3.5,65.644 C3.5,64.719 3.82506622,63.95 4.47419536,63.265 C5.16144955,62.579 5.93599005,62.257 6.86102416,62.257 C7.79709447,62.257 8.56360864,62.579 9.21374107,63.265 C9.89999197,63.95 10.2230516,64.719 10.2230516,65.644 C10.2230516,66.575 9.89999197,67.344 9.21374107,67.99 L9.21374107,67.99 Z M9.21374107,67.99" id="rss--body-grey" fill="#67737B" sketch:type="MSShapeGroup"></path>
        <path d="M15.2495385,28.796 C15.2495385,27.303 15.0067421,25.807 14.3967413,24.355 C13.8328919,22.942 12.9800947,21.729 11.8885143,20.599 C10.7939241,19.51 9.53379083,18.659 8.11714423,18.095 C6.70150092,17.489 5.24171282,17.205 3.66654627,17.205 L3.66654627,12.44 C8.1974075,12.44 12.0069026,14.015 15.2495385,17.245 C18.4480295,20.479 20.0763705,24.316 20.0763705,28.796 L15.2495385,28.796 L15.2495385,28.796 L15.2495385,28.796 L15.2495385,28.796 Z M23.7163095,28.839 C23.7163095,23.304 21.7338069,18.578 17.8400353,14.622 C13.9522835,10.742 9.21374107,8.765 3.66654627,8.765 L3.66654627,4 C10.5501244,4 16.3842604,6.421 21.2472109,11.269 C26.0680231,16.114 28.5,22.013 28.5,28.839 L23.7163095,28.839 L23.7163095,28.839 L23.7163095,28.839 L23.7163095,28.839 Z M9.21374107,27.99 C8.56360864,28.676 7.79709447,29 6.86102416,29 C5.93599005,29 5.16144955,28.676 4.47419536,27.99 C3.82506622,27.344 3.5,26.575 3.5,25.644 C3.5,24.719 3.82506622,23.95 4.47419536,23.265 C5.16144955,22.579 5.93599005,22.257 6.86102416,22.257 C7.79709447,22.257 8.56360864,22.579 9.21374107,23.265 C9.89999197,23.95 10.2230516,24.719 10.2230516,25.644 C10.2230516,26.575 9.89999197,27.344 9.21374107,27.99 L9.21374107,27.99 Z M9.21374107,27.99" id="rss--title-grey" fill="#3A434E" sketch:type="MSShapeGroup"></path>
    </g>
</svg>