<svg width="32" height="232" viewBox="0 0 32 232" xmlns="http://www.w3.org/2000/svg"><title>rss</title><g fill="none"><path d="M15.34 26.82c0-1.314-.214-2.63-.75-3.908-.496-1.243-1.247-2.311-2.207-3.305-.963-.958-2.072-1.707-3.319-2.204-1.246-.533-2.53-.783-3.917-.783v-4.193c3.987 0 7.34 1.386 10.193 4.228 2.815 2.846 4.248 6.222 4.248 10.165h-4.248zm7.451.038c0-4.871-1.745-9.03-5.171-12.511-3.421-3.414-7.591-5.154-12.473-5.154v-4.193c6.058 0 11.192 2.13 15.471 6.397 4.242 4.264 6.382 9.455 6.382 15.462h-4.21zm-12.762-.747c-.572.604-1.247.889-2.07.889-.814 0-1.496-.285-2.1-.889-.571-.568-.857-1.245-.857-2.064 0-.814.286-1.491.857-2.094.605-.604 1.286-.887 2.1-.887.824 0 1.498.283 2.07.887.604.603.888 1.28.888 2.094 0 .819-.284 1.496-.888 2.064zm0 0" fill="#3A434E"/><path d="M15.34 66.82c0-1.314-.214-2.63-.75-3.908-.496-1.243-1.247-2.311-2.207-3.305-.963-.958-2.072-1.707-3.319-2.204-1.246-.533-2.53-.783-3.917-.783v-4.193c3.987 0 7.34 1.386 10.193 4.228 2.815 2.846 4.248 6.222 4.248 10.165h-4.248zm7.451.038c0-4.871-1.745-9.03-5.171-12.511-3.421-3.414-7.591-5.154-12.473-5.154v-4.193c6.058 0 11.192 2.13 15.471 6.397 4.242 4.264 6.382 9.455 6.382 15.462h-4.21zm-12.762-.747c-.572.604-1.247.889-2.07.889-.814 0-1.496-.285-2.1-.889-.571-.568-.857-1.245-.857-2.064 0-.814.286-1.491.857-2.094.605-.604 1.286-.887 2.1-.887.824 0 1.498.283 2.07.887.604.603.888 1.28.888 2.094 0 .819-.284 1.496-.888 2.064zm0 0" fill="#67737B"/><path d="M15.34 106.82c0-1.314-.214-2.63-.75-3.908-.496-1.243-1.247-2.311-2.207-3.305-.963-.958-2.072-1.707-3.319-2.204-1.246-.533-2.53-.783-3.917-.783v-4.193c3.987 0 7.34 1.386 10.193 4.228 2.815 2.846 4.248 6.222 4.248 10.165h-4.248zm7.451.038c0-4.871-1.745-9.03-5.171-12.511-3.421-3.414-7.591-5.154-12.473-5.154v-4.193c6.058 0 11.192 2.13 15.471 6.397 4.242 4.264 6.382 9.455 6.382 15.462h-4.21zm-12.762-.747c-.572.604-1.247.889-2.07.889-.814 0-1.496-.285-2.1-.889-.571-.568-.857-1.245-.857-2.064 0-.814.286-1.491.857-2.094.605-.604 1.286-.887 2.1-.887.824 0 1.498.283 2.07.887.604.603.888 1.28.888 2.094 0 .819-.284 1.496-.888 2.064zm0 0" fill="#fff"/><path d="M15.34 146.82c0-1.314-.214-2.63-.75-3.908-.496-1.243-1.247-2.311-2.207-3.305-.963-.958-2.072-1.707-3.319-2.204-1.246-.533-2.53-.783-3.917-.783v-4.193c3.987 0 7.34 1.386 10.193 4.228 2.815 2.846 4.248 6.222 4.248 10.165h-4.248zm7.451.038c0-4.871-1.745-9.03-5.171-12.511-3.421-3.414-7.591-5.154-12.473-5.154v-4.193c6.058 0 11.192 2.13 15.471 6.397 4.242 4.264 6.382 9.455 6.382 15.462h-4.21zm-12.762-.747c-.572.604-1.247.889-2.07.889-.814 0-1.496-.285-2.1-.889-.571-.568-.857-1.245-.857-2.064 0-.814.286-1.491.857-2.094.605-.604 1.286-.887 2.1-.887.824 0 1.498.283 2.07.887.604.603.888 1.28.888 2.094 0 .819-.284 1.496-.888 2.064zm0 0" fill="#206FAC"/></g></svg>