<svg width="32" height="232" viewBox="0 0 32 232" xmlns="http://www.w3.org/2000/svg"><title>s-bahn</title><g fill="none"><path d="M23.348 146.274c-.86.803-1.912 1.461-3.155 1.965-1.247.505-2.652.761-4.224.761-.879 0-1.776-.091-2.689-.269-.928-.184-1.82-.438-2.678-.764-.858-.326-1.67-.701-2.426-1.135-.756-.429-1.408-.894-1.967-1.392v-4.994c1.884 2.714 4.948 4.677 8.209 5.224 1.551.266 3.26.178 4.59-.744 1.18-.818 1.561-2.307.655-3.486-1.071-1.409-3.335-1.881-4.958-2.289-1.831-.456-3.697-.856-5.351-1.824-3-1.762-4.219-5.395-2.699-8.583 1.361-2.861 4.516-4.404 7.55-4.689 3.641-.338 7.393.9 10.268 3.125v4.164c-2.07-2.213-4.799-3.924-7.834-4.367-1.272-.184-2.781-.266-3.909.453-1.152.723-1.516 2.207-.841 3.39.713 1.251 2.422 1.741 3.72 2.084 1.598.432 3.249.702 4.834 1.194 1.495.461 2.938 1.187 4.038 2.326 1.115 1.164 1.508 2.664 1.508 4.252 0 .951-.226 1.932-.673 2.912-.451.985-1.107 1.883-1.968 2.686zm0 0" fill="#206FAC"/><path d="M23.348 106.274c-.86.803-1.912 1.461-3.155 1.965-1.247.505-2.652.761-4.224.761-.879 0-1.776-.091-2.689-.269-.928-.184-1.82-.438-2.678-.764-.858-.326-1.67-.701-2.426-1.135-.756-.429-1.408-.894-1.967-1.392v-4.994c1.884 2.714 4.948 4.677 8.209 5.224 1.551.266 3.26.178 4.59-.744 1.18-.818 1.561-2.307.655-3.486-1.071-1.409-3.335-1.881-4.958-2.289-1.831-.456-3.697-.856-5.351-1.824-3-1.762-4.219-5.395-2.699-8.583 1.361-2.861 4.516-4.404 7.55-4.689 3.641-.338 7.393.9 10.268 3.125v4.164c-2.07-2.213-4.799-3.924-7.834-4.367-1.272-.184-2.781-.266-3.909.453-1.152.723-1.516 2.207-.841 3.39.713 1.251 2.422 1.741 3.72 2.084 1.598.432 3.249.702 4.834 1.194 1.495.461 2.938 1.187 4.038 2.326 1.115 1.164 1.508 2.664 1.508 4.252 0 .951-.226 1.932-.673 2.912-.451.985-1.107 1.883-1.968 2.686zm0 0" fill="#fff"/><path d="M23.348 66.274c-.86.803-1.912 1.461-3.155 1.965-1.247.505-2.652.761-4.224.761-.879 0-1.776-.091-2.689-.269-.928-.184-1.82-.438-2.678-.764-.858-.326-1.67-.701-2.426-1.135-.756-.429-1.408-.894-1.967-1.392v-4.994c1.884 2.714 4.948 4.677 8.209 5.224 1.551.266 3.26.178 4.59-.744 1.18-.818 1.561-2.307.655-3.486-1.071-1.409-3.335-1.881-4.958-2.289-1.831-.456-3.697-.856-5.351-1.824-3-1.762-4.219-5.395-2.699-8.583 1.361-2.861 4.516-4.404 7.55-4.689 3.641-.338 7.393.9 10.268 3.125v4.164c-2.07-2.213-4.799-3.924-7.834-4.367-1.272-.184-2.781-.266-3.909.453-1.152.723-1.516 2.207-.841 3.39.713 1.251 2.422 1.741 3.72 2.084 1.598.432 3.249.702 4.834 1.194 1.495.461 2.938 1.187 4.038 2.326 1.115 1.164 1.508 2.664 1.508 4.252 0 .951-.226 1.932-.673 2.912-.451.985-1.107 1.883-1.968 2.686zm0 0" fill="#67737B"/><path d="M23.348 26.274c-.86.803-1.912 1.461-3.155 1.965-1.247.505-2.652.761-4.224.761-.879 0-1.776-.091-2.689-.269-.928-.184-1.82-.438-2.678-.764-.858-.326-1.67-.701-2.426-1.135-.756-.429-1.408-.894-1.967-1.392v-4.994c1.884 2.714 4.948 4.677 8.209 5.224 1.551.266 3.26.178 4.59-.744 1.18-.818 1.561-2.307.655-3.486-1.071-1.409-3.335-1.881-4.958-2.289-1.831-.456-3.697-.856-5.351-1.824-3-1.762-4.219-5.395-2.699-8.583 1.361-2.861 4.516-4.404 7.55-4.689 3.641-.338 7.393.9 10.268 3.125v4.164c-2.07-2.213-4.799-3.924-7.834-4.367-1.272-.184-2.781-.266-3.909.453-1.152.723-1.516 2.207-.841 3.39.713 1.251 2.422 1.741 3.72 2.084 1.598.432 3.249.702 4.834 1.194 1.495.461 2.938 1.187 4.038 2.326 1.115 1.164 1.508 2.664 1.508 4.252 0 .951-.226 1.932-.673 2.912-.451.985-1.107 1.883-1.968 2.686zm0 0" fill="#3A434E"/></g></svg>