<svg width="32" height="232" viewBox="0 0 32 232" xmlns="http://www.w3.org/2000/svg" xmlns:sketch="http://www.bohemiancoding.com/sketch/ns"><title>sa</title><g sketch:type="MSPage" fill="none"><path d="M15.972 120c4.476 0 8.267 1.553 11.371 4.657 3.105 3.086 4.658 6.867 4.658 11.343 0 4.477-1.524 8.228-4.572 11.257-3.219 3.162-7.038 4.743-11.457 4.743-4.324 0-8.076-1.571-11.257-4.714-3.143-3.143-4.715-6.905-4.715-11.286 0-4.362 1.572-8.143 4.715-11.343 3.105-3.104 6.857-4.657 11.257-4.657zm.057 2.886c-3.638 0-6.714 1.285-9.229 3.857-2.609 2.648-3.913 5.734-3.913 9.257 0 3.562 1.294 6.628 3.885 9.2 2.591 2.591 5.676 3.885 9.257 3.885 3.562 0 6.667-1.303 9.314-3.913 2.515-2.438 3.772-5.496 3.772-9.172 0-3.657-1.277-6.743-3.829-9.257-2.533-2.572-5.619-3.857-9.257-3.857zm-7.143 10.857c.305-1.962 1.096-3.481 2.372-4.556 1.276-1.077 2.828-1.616 4.657-1.616 2.514 0 4.514.811 5.999 2.429 1.486 1.619 2.229 3.696 2.229 6.229 0 2.456-.772 4.5-2.313 6.129-1.543 1.628-3.543 2.442-6.001 2.442-1.81 0-3.372-.543-4.686-1.629-1.313-1.085-2.104-2.629-2.371-4.628h4.028c.096 1.942 1.267 2.914 3.515 2.914 1.123 0 2.028-.485 2.715-1.457.685-.971 1.027-2.267 1.027-3.886 0-1.695-.313-2.985-.942-3.871-.628-.886-1.533-1.329-2.714-1.329-2.134 0-3.334.944-3.601 2.829h1.172l-3.172 3.171-3.171-3.171h1.257zm0 0" fill="#206FAC" sketch:type="MSShapeGroup"/><path d="M15.972 80c4.476 0 8.267 1.553 11.371 4.657 3.105 3.086 4.658 6.867 4.658 11.343 0 4.477-1.524 8.228-4.572 11.257-3.219 3.162-7.038 4.743-11.457 4.743-4.324 0-8.076-1.571-11.257-4.714-3.143-3.143-4.715-6.905-4.715-11.286 0-4.362 1.572-8.143 4.715-11.343 3.105-3.104 6.857-4.657 11.257-4.657zm.057 2.886c-3.638 0-6.714 1.285-9.229 3.857-2.609 2.648-3.913 5.734-3.913 9.257 0 3.562 1.294 6.628 3.885 9.2 2.591 2.591 5.676 3.885 9.257 3.885 3.562 0 6.667-1.303 9.314-3.913 2.515-2.438 3.772-5.496 3.772-9.172 0-3.657-1.277-6.743-3.829-9.257-2.533-2.572-5.619-3.857-9.257-3.857zm-7.143 10.857c.305-1.962 1.096-3.481 2.372-4.556 1.276-1.077 2.828-1.616 4.657-1.616 2.514 0 4.514.811 5.999 2.429 1.486 1.619 2.229 3.696 2.229 6.229 0 2.456-.772 4.5-2.313 6.129-1.543 1.628-3.543 2.442-6.001 2.442-1.81 0-3.372-.543-4.686-1.629-1.313-1.085-2.104-2.629-2.371-4.628h4.028c.096 1.942 1.267 2.914 3.515 2.914 1.123 0 2.028-.485 2.715-1.457.685-.971 1.027-2.267 1.027-3.886 0-1.695-.313-2.985-.942-3.871-.628-.886-1.533-1.329-2.714-1.329-2.134 0-3.334.944-3.601 2.829h1.172l-3.172 3.171-3.171-3.171h1.257zm0 0" fill="#fff" sketch:type="MSShapeGroup"/><path d="M15.972 40c4.476 0 8.267 1.553 11.371 4.657 3.105 3.086 4.658 6.867 4.658 11.343 0 4.477-1.524 8.228-4.572 11.257-3.219 3.162-7.038 4.743-11.457 4.743-4.324 0-8.076-1.571-11.257-4.714-3.143-3.143-4.715-6.905-4.715-11.286 0-4.362 1.572-8.143 4.715-11.343 3.105-3.104 6.857-4.657 11.257-4.657zm.057 2.886c-3.638 0-6.714 1.285-9.229 3.857-2.609 2.648-3.913 5.734-3.913 9.257 0 3.562 1.294 6.628 3.885 9.2 2.591 2.591 5.676 3.885 9.257 3.885 3.562 0 6.667-1.303 9.314-3.913 2.515-2.438 3.772-5.496 3.772-9.172 0-3.657-1.277-6.743-3.829-9.257-2.533-2.572-5.619-3.857-9.257-3.857zm-7.143 10.857c.305-1.962 1.096-3.481 2.372-4.556 1.276-1.077 2.828-1.616 4.657-1.616 2.514 0 4.514.811 5.999 2.429 1.486 1.619 2.229 3.696 2.229 6.229 0 2.456-.772 4.5-2.313 6.129-1.543 1.628-3.543 2.442-6.001 2.442-1.81 0-3.372-.543-4.686-1.629-1.313-1.085-2.104-2.629-2.371-4.628h4.028c.096 1.942 1.267 2.914 3.515 2.914 1.123 0 2.028-.485 2.715-1.457.685-.971 1.027-2.267 1.027-3.886 0-1.695-.313-2.985-.942-3.871-.628-.886-1.533-1.329-2.714-1.329-2.134 0-3.334.944-3.601 2.829h1.172l-3.172 3.171-3.171-3.171h1.257zm0 0" fill="#67737B" sketch:type="MSShapeGroup"/><path d="M15.972 0c4.476 0 8.267 1.553 11.371 4.657 3.105 3.086 4.658 6.867 4.658 11.343 0 4.477-1.524 8.228-4.572 11.257-3.219 3.162-7.038 4.743-11.457 4.743-4.324 0-8.076-1.571-11.257-4.714-3.143-3.143-4.715-6.905-4.715-11.286 0-4.362 1.572-8.143 4.715-11.343 3.105-3.104 6.857-4.657 11.257-4.657zm.057 2.886c-3.638 0-6.714 1.285-9.229 3.857-2.609 2.648-3.913 5.734-3.913 9.257 0 3.562 1.294 6.628 3.885 9.2 2.591 2.591 5.676 3.885 9.257 3.885 3.562 0 6.667-1.303 9.314-3.913 2.515-2.438 3.772-5.496 3.772-9.172 0-3.657-1.277-6.743-3.829-9.257-2.533-2.572-5.619-3.857-9.257-3.857zm-7.143 10.857c.305-1.962 1.096-3.481 2.372-4.556 1.276-1.077 2.828-1.616 4.657-1.616 2.514 0 4.514.811 5.999 2.429 1.486 1.619 2.229 3.696 2.229 6.229 0 2.456-.772 4.5-2.313 6.129-1.543 1.628-3.543 2.442-6.001 2.442-1.81 0-3.372-.543-4.686-1.629-1.313-1.085-2.104-2.629-2.371-4.628h4.028c.096 1.942 1.267 2.914 3.515 2.914 1.123 0 2.028-.485 2.715-1.457.685-.971 1.027-2.267 1.027-3.886 0-1.695-.313-2.985-.942-3.871-.628-.886-1.533-1.329-2.714-1.329-2.134 0-3.334.944-3.601 2.829h1.172l-3.172 3.171-3.171-3.171h1.257zm0 0" fill="#3B444F" sketch:type="MSShapeGroup"/></g></svg>