<svg width="32" height="232" viewBox="0 0 32 232" xmlns="http://www.w3.org/2000/svg" xmlns:sketch="http://www.bohemiancoding.com/sketch/ns"><title>search</title><g sketch:type="MSPage" fill="none"><path d="M27.938 24.895l-5.98-5.908c.904-1.466 1.421-3.184 1.421-5.021 0-5.342-4.685-9.967-10.092-9.967-5.405 0-9.787 4.327-9.787 9.669 0 5.343 4.685 9.971 10.09 9.971 1.799 0 3.483-.48 4.93-1.319l6.009 5.939c.589.582 1.542.582 2.129 0l1.493-1.472c.59-.582.376-1.311-.213-1.892zm-21.426-11.227c0-3.7 3.037-6.695 6.775-6.695 3.746 0 7.081 3.295 7.081 6.993 0 3.699-3.033 6.695-6.778 6.695-3.741 0-7.078-3.292-7.078-6.993z" fill="#3A434E" sketch:type="MSShapeGroup"/><path d="M27.409 64.895l-5.98-5.908c.904-1.466 1.421-3.184 1.421-5.021 0-5.342-4.685-9.967-10.092-9.967-5.405 0-9.787 4.327-9.787 9.669 0 5.343 4.685 9.971 10.09 9.971 1.799 0 3.483-.48 4.93-1.319l6.009 5.939c.589.582 1.542.582 2.129 0l1.493-1.472c.59-.582.376-1.311-.213-1.892zm-21.426-11.227c0-3.7 3.037-6.695 6.775-6.695 3.746 0 7.081 3.295 7.081 6.993 0 3.699-3.033 6.695-6.778 6.695-3.741 0-7.078-3.292-7.078-6.993z" fill="#67737B" sketch:type="MSShapeGroup"/><path d="M26.906 104.895l-5.98-5.908c.904-1.466 1.421-3.184 1.421-5.021 0-5.342-4.685-9.967-10.092-9.967-5.405 0-9.787 4.327-9.787 9.669 0 5.343 4.685 9.971 10.09 9.971 1.799 0 3.483-.48 4.93-1.319l6.009 5.939c.589.582 1.542.582 2.129 0l1.493-1.472c.59-.582.376-1.311-.213-1.892zm-21.426-11.227c0-3.7 3.037-6.695 6.775-6.695 3.746 0 7.081 3.295 7.081 6.993 0 3.699-3.033 6.695-6.778 6.695-3.741 0-7.078-3.292-7.078-6.993z" fill="#fff" sketch:type="MSShapeGroup"/><path d="M26.906 144.895l-5.98-5.908c.904-1.466 1.421-3.184 1.421-5.021 0-5.342-4.685-9.967-10.092-9.967-5.405 0-9.787 4.327-9.787 9.669 0 5.343 4.685 9.971 10.09 9.971 1.799 0 3.483-.48 4.93-1.319l6.009 5.939c.589.582 1.542.582 2.129 0l1.493-1.472c.59-.582.376-1.311-.213-1.892zm-21.426-11.227c0-3.7 3.037-6.695 6.775-6.695 3.746 0 7.081 3.295 7.081 6.993 0 3.699-3.033 6.695-6.778 6.695-3.741 0-7.078-3.292-7.078-6.993z" fill="#206FAC" sketch:type="MSShapeGroup"/><path d="M26.438 184.896l-5.98-5.908c.904-1.466 1.421-3.184 1.421-5.021 0-5.342-4.685-9.967-10.092-9.967-5.405 0-9.787 4.327-9.787 9.669 0 5.343 4.685 9.971 10.09 9.971 1.799 0 3.483-.48 4.93-1.319l6.009 5.939c.589.582 1.542.582 2.129 0l1.493-1.472c.59-.582.376-1.311-.213-1.892zm-21.426-11.227c0-3.7 3.037-6.695 6.775-6.695 3.746 0 7.081 3.295 7.081 6.993 0 3.699-3.033 6.695-6.778 6.695-3.741 0-7.078-3.292-7.078-6.993z" fill="#98A8B2" sketch:type="MSShapeGroup"/></g></svg>