<?xml version="1.0" encoding="UTF-8" standalone="no"?>
<svg width="32px" height="232px" viewBox="0 0 32 232" version="1.1" xmlns="http://www.w3.org/2000/svg" xmlns:xlink="http://www.w3.org/1999/xlink" xmlns:sketch="http://www.bohemiancoding.com/sketch/ns">
    <title>search</title>
    <description>Created with Sketch (http://www.bohemiancoding.com/sketch)</description>
    <defs></defs>
    <g id="Actions" stroke="none" stroke-width="1" fill="none" fill-rule="evenodd" sketch:type="MSPage">
        <path d="M27.9376955,186.153 L21.9576918,180.172 C22.8606694,178.689 23.3783502,176.95 23.3783502,175.09 C23.3783502,169.684 18.6935365,165 13.2865383,165 C7.88151598,165 3.5,169.381 3.5,174.789 C3.5,180.198 8.18481371,184.881 13.589836,184.881 C15.3878877,184.881 17.0723262,184.395 18.519659,183.545 L24.5283129,189.559 C25.1181134,190.147 26.0695,190.147 26.6583126,189.559 L28.1501027,188.068 C28.7399031,187.478 28.526508,186.741 27.9376955,186.153 C27.9376955,186.153 28.526508,186.741 27.9376955,186.153 L27.9376955,186.153 L27.9376955,186.153 Z M6.51124255,174.789 C6.51124255,171.044 9.5491595,168.012 13.2865383,168.012 C17.0318206,168.012 20.3680956,171.347 20.3680956,175.09 C20.3680956,178.834 17.3351183,181.867 13.589836,181.867 C9.84751752,181.867 6.51124255,178.534 6.51124255,174.789 L6.51124255,174.789 Z M6.51124255,174.789" id="search--lp-blue" fill="#1D4F8D" sketch:type="MSShapeGroup"></path>
        <path d="M27.9376955,146.153 L21.9576918,140.172 C22.8606694,138.689 23.3783502,136.95 23.3783502,135.09 C23.3783502,129.684 18.6935365,125 13.2865383,125 C7.88151598,125 3.5,129.381 3.5,134.789 C3.5,140.198 8.18481371,144.881 13.589836,144.881 C15.3878877,144.881 17.0723262,144.395 18.519659,143.545 L24.5283129,149.559 C25.1181134,150.147 26.0695,150.147 26.6583126,149.559 L28.1501027,148.068 C28.7399031,147.478 28.526508,146.741 27.9376955,146.153 C27.9376955,146.153 28.526508,146.741 27.9376955,146.153 L27.9376955,146.153 L27.9376955,146.153 Z M6.51124255,134.789 C6.51124255,131.044 9.5491595,128.012 13.2865383,128.012 C17.0318206,128.012 20.3680956,131.347 20.3680956,135.09 C20.3680956,138.834 17.3351183,141.867 13.589836,141.867 C9.84751752,141.867 6.51124255,138.534 6.51124255,134.789 L6.51124255,134.789 Z M6.51124255,134.789" id="search--white" fill="#FFFFFF" sketch:type="MSShapeGroup"></path>
        <path d="M27.9376955,106.153 L21.9576918,100.172 C22.8606694,98.689 23.3783502,96.95 23.3783502,95.09 C23.3783502,89.684 18.6935365,85 13.2865383,85 C7.88151598,85 3.5,89.381 3.5,94.789 C3.5,100.198 8.18481371,104.881 13.589836,104.881 C15.3878877,104.881 17.0723262,104.395 18.519659,103.545 L24.5283129,109.559 C25.1181134,110.147 26.0695,110.147 26.6583126,109.559 L28.1501027,108.068 C28.7399031,107.478 28.526508,106.741 27.9376955,106.153 C27.9376955,106.153 28.526508,106.741 27.9376955,106.153 L27.9376955,106.153 L27.9376955,106.153 Z M6.51124255,94.789 C6.51124255,91.044 9.5491595,88.012 13.2865383,88.012 C17.0318206,88.012 20.3680956,91.347 20.3680956,95.09 C20.3680956,98.834 17.3351183,101.867 13.589836,101.867 C9.84751752,101.867 6.51124255,98.534 6.51124255,94.789 L6.51124255,94.789 Z M6.51124255,94.789" id="search--subdued-grey" fill="#E5EDF5" sketch:type="MSShapeGroup"></path>
        <path d="M27.9376955,66.153 L21.9576918,60.172 C22.8606694,58.689 23.3783502,56.95 23.3783502,55.09 C23.3783502,49.684 18.6935365,45 13.2865383,45 C7.88151598,45 3.5,49.381 3.5,54.789 C3.5,60.198 8.18481371,64.881 13.589836,64.881 C15.3878877,64.881 17.0723262,64.395 18.519659,63.545 L24.5283129,69.559 C25.1181134,70.147 26.0695,70.147 26.6583126,69.559 L28.1501027,68.068 C28.7399031,67.478 28.526508,66.741 27.9376955,66.153 C27.9376955,66.153 28.526508,66.741 27.9376955,66.153 L27.9376955,66.153 L27.9376955,66.153 Z M6.51124255,54.789 C6.51124255,51.044 9.5491595,48.012 13.2865383,48.012 C17.0318206,48.012 20.3680956,51.347 20.3680956,55.09 C20.3680956,58.834 17.3351183,61.867 13.589836,61.867 C9.84751752,61.867 6.51124255,58.534 6.51124255,54.789 L6.51124255,54.789 Z M6.51124255,54.789" id="search--body-grey" fill="#67737B" sketch:type="MSShapeGroup"></path>
        <path d="M27.9376955,26.153 L21.9576918,20.172 C22.8606694,18.689 23.3783502,16.95 23.3783502,15.09 C23.3783502,9.684 18.6935365,5 13.2865383,5 C7.88151598,5 3.5,9.381 3.5,14.789 C3.5,20.198 8.18481371,24.881 13.589836,24.881 C15.3878877,24.881 17.0723262,24.395 18.519659,23.545 L24.5283129,29.559 C25.1181134,30.147 26.0695,30.147 26.6583126,29.559 L28.1501027,28.068 C28.7399031,27.478 28.526508,26.741 27.9376955,26.153 C27.9376955,26.153 28.526508,26.741 27.9376955,26.153 L27.9376955,26.153 L27.9376955,26.153 Z M6.51124255,14.789 C6.51124255,11.044 9.5491595,8.012 13.2865383,8.012 C17.0318206,8.012 20.3680956,11.347 20.3680956,15.09 C20.3680956,18.834 17.3351183,21.867 13.589836,21.867 C9.84751752,21.867 6.51124255,18.534 6.51124255,14.789 L6.51124255,14.789 Z M6.51124255,14.789" id="search--title-grey" fill="#3A434E" sketch:type="MSShapeGroup"></path>
    </g>
</svg>