<svg width="15" height="130" viewBox="0 0 15 130" xmlns="http://www.w3.org/2000/svg"><title>search</title><g fill="none"><path d="M14.685 81.731l-3.599-3.6c.543-.893.855-1.939.855-3.059 0-3.254-2.82-6.073-6.074-6.073-3.253 0-5.89 2.637-5.89 5.892 0 3.256 2.82 6.074 6.073 6.074 1.082 0 2.096-.293 2.967-.804l3.616 3.62c.355.354.928.354 1.282 0l.898-.897c.355-.355.227-.799-.128-1.153zm-12.896-6.84c0-2.254 1.828-4.079 4.078-4.079 2.254 0 4.262 2.007 4.262 4.26 0 2.253-1.825 4.079-4.08 4.079-2.252 0-4.26-2.006-4.26-4.26z" fill="#206FAC"/><path d="M11.086 101.132c.543-.893.855-1.939.855-3.059 0-3.254-2.82-6.073-6.074-6.073-3.253 0-5.89 2.637-5.89 5.892 0 3.256 2.82 6.074 6.073 6.074 1.082 0 2.096-.293 2.967-.804l3.616 3.62c.355.354.928.354 1.282 0l.898-.897c.355-.355.227-.799-.128-1.153l-3.599-3.6zm-9.297-3.24c0-2.254 1.828-4.079 4.078-4.079 2.254 0 4.262 2.007 4.262 4.26 0 2.253-1.825 4.079-4.08 4.079-2.252 0-4.26-2.006-4.26-4.26z" fill="#98A8B2"/><path d="M14.663 58.692l-3.588-3.589c.542-.89.852-1.933.852-3.049 0-3.244-2.811-6.054-6.055-6.054-3.243 0-5.872 2.629-5.872 5.873 0 3.245 2.811 6.055 6.054 6.055 1.079 0 2.089-.292 2.958-.802l3.605 3.608c.354.353.925.353 1.278 0l.895-.895c.354-.354.226-.796-.127-1.149zm-12.856-6.818c0-2.247 1.823-4.066 4.065-4.066 2.247 0 4.249 2.001 4.249 4.247s-1.82 4.066-4.067 4.066c-2.245 0-4.247-2-4.247-4.247z" fill="#fff"/><path d="M14.663 35.692l-3.588-3.589c.542-.89.852-1.933.852-3.049 0-3.244-2.811-6.054-6.055-6.054-3.243 0-5.872 2.629-5.872 5.873 0 3.245 2.811 6.055 6.054 6.055 1.079 0 2.089-.292 2.958-.802l3.605 3.608c.354.353.925.353 1.278 0l.895-.895c.354-.354.226-.796-.127-1.149zm-12.856-6.818c0-2.247 1.823-4.066 4.065-4.066 2.247 0 4.249 2.001 4.249 4.247s-1.82 4.066-4.067 4.066c-2.245 0-4.247-2-4.247-4.247z" fill="#67737B"/><path d="M14.663 12.692l-3.588-3.589c.542-.89.852-1.933.852-3.049 0-3.244-2.811-6.054-6.055-6.054-3.243 0-5.872 2.629-5.872 5.873 0 3.245 2.811 6.055 6.054 6.055 1.079 0 2.089-.292 2.958-.802l3.605 3.608c.354.353.925.353 1.278 0l.895-.895c.354-.354.226-.796-.127-1.149zm-12.856-6.818c0-2.247 1.823-4.066 4.065-4.066 2.247 0 4.249 2.001 4.249 4.247s-1.82 4.066-4.067 4.066c-2.245 0-4.247-2-4.247-4.247z" fill="#3A434E"/></g></svg>