<?xml version="1.0" encoding="UTF-8" standalone="no"?>
<svg width="32px" height="32px" viewBox="0 0 32 32" version="1.1" xmlns="http://www.w3.org/2000/svg" xmlns:xlink="http://www.w3.org/1999/xlink" xmlns:sketch="http://www.bohemiancoding.com/sketch/ns">
    <title>search--body-grey</title>
    <description>Created with Sketch (http://www.bohemiancoding.com/sketch)</description>
    <defs></defs>
    <g id="Actions" stroke="none" stroke-width="1" fill="none" fill-rule="evenodd" sketch:type="MSPage">
        <path d="M27.9376955,26.153 L21.9576918,20.172 C22.8606694,18.689 23.3783502,16.95 23.3783502,15.09 C23.3783502,9.684 18.6935365,5 13.2865383,5 C7.88151598,5 3.5,9.381 3.5,14.789 C3.5,20.198 8.18481371,24.881 13.589836,24.881 C15.3878877,24.881 17.0723262,24.395 18.519659,23.545 L24.5283129,29.559 C25.1181134,30.147 26.0695,30.147 26.6583126,29.559 L28.1501027,28.068 C28.7399031,27.478 28.526508,26.741 27.9376955,26.153 C27.9376955,26.153 28.526508,26.741 27.9376955,26.153 L27.9376955,26.153 L27.9376955,26.153 Z M6.51124255,14.789 C6.51124255,11.044 9.5491595,8.012 13.2865383,8.012 C17.0318206,8.012 20.3680956,11.347 20.3680956,15.09 C20.3680956,18.834 17.3351183,21.867 13.589836,21.867 C9.84751752,21.867 6.51124255,18.534 6.51124255,14.789 L6.51124255,14.789 Z M6.51124255,14.789" id="search--body-grey" fill="#67737B" sketch:type="MSShapeGroup"></path>
    </g>
</svg>