<svg width="32" height="232" xmlns="http://www.w3.org/2000/svg" xmlns:sketch="http://www.bohemiancoding.com/sketch/ns"><title>settings</title><g sketch:type="MSPage" fill="none"><path d="M25.83 136.549c.006-.894 1.485-2.1 2.67-3.258-.144-.564-.324-1.117-.553-1.669-.218-.553-.488-1.075-.773-1.579-1.656-.002-3.561.18-4.188-.455-.654-.661-.47-2.572-.461-4.221-.984-.574-2.046-1.021-3.142-1.324-1.172 1.166-2.412 2.631-3.336 2.627-.895-.004-2.1-1.484-3.258-2.668-.564.143-1.119.324-1.67.553-.554.219-1.074.486-1.58.774 0 1.654.18 3.56-.455 4.185-.66.658-2.572.473-4.221.463-.572.982-1.019 2.047-1.322 3.143 1.164 1.169 2.629 2.411 2.627 3.333-.002.897-1.484 2.102-2.668 3.258.143.569.324 1.121.551 1.672.219.555.488 1.074.775 1.578 1.655.004 3.561-.178 4.186.457.654.659.474 2.571.461 4.219.984.572 2.049 1.022 3.142 1.324 1.172-1.166 2.412-2.631 3.338-2.627.893.004 2.1 1.485 3.258 2.668.565-.144 1.117-.322 1.67-.552.553-.219 1.072-.487 1.578-.773.002-1.655-.178-3.561.457-4.186.66-.657 2.57-.473 4.219-.463.572-.985 1.019-2.047 1.324-3.141-1.166-1.168-2.631-2.414-2.629-3.338zm-9.83 4.42c-2.465 0-4.463-2-4.463-4.467 0-2.465 1.998-4.463 4.463-4.463s4.463 1.998 4.463 4.463c0 2.467-1.998 4.467-4.463 4.467zm0 0" fill="#206FAC" sketch:type="MSShapeGroup"/><path d="M25.83 96.549c.006-.894 1.485-2.1 2.67-3.258-.144-.564-.324-1.117-.553-1.669-.218-.553-.488-1.075-.773-1.579-1.656-.002-3.561.18-4.188-.455-.654-.661-.47-2.572-.461-4.221-.984-.574-2.046-1.021-3.142-1.324-1.172 1.166-2.412 2.631-3.336 2.627-.895-.004-2.1-1.484-3.258-2.668-.564.143-1.119.324-1.67.553-.554.219-1.074.486-1.58.774 0 1.654.18 3.56-.455 4.185-.66.658-2.572.473-4.221.463-.572.982-1.019 2.047-1.322 3.143 1.164 1.169 2.629 2.411 2.627 3.333-.002.897-1.484 2.102-2.668 3.258.143.569.324 1.121.551 1.672.219.555.488 1.074.775 1.578 1.655.004 3.561-.178 4.186.457.654.659.474 2.571.461 4.219.984.572 2.049 1.022 3.142 1.324 1.172-1.166 2.412-2.631 3.338-2.627.893.004 2.1 1.485 3.258 2.668.565-.144 1.117-.322 1.67-.552.553-.219 1.072-.487 1.578-.773.002-1.655-.178-3.561.457-4.186.66-.657 2.57-.473 4.219-.463.572-.985 1.019-2.047 1.324-3.141-1.166-1.168-2.631-2.414-2.629-3.338zm-9.83 4.42c-2.465 0-4.463-2-4.463-4.467 0-2.465 1.998-4.463 4.463-4.463s4.463 1.998 4.463 4.463c0 2.467-1.998 4.467-4.463 4.467zm0 0" fill="#fff" sketch:type="MSShapeGroup"/><path d="M25.83 56.549c.006-.894 1.485-2.1 2.67-3.258-.144-.564-.324-1.117-.553-1.669-.218-.553-.488-1.075-.773-1.579-1.656-.002-3.561.18-4.188-.455-.654-.661-.47-2.572-.461-4.221-.984-.574-2.046-1.021-3.142-1.324-1.172 1.166-2.412 2.631-3.336 2.627-.895-.004-2.1-1.484-3.258-2.668-.564.143-1.119.324-1.67.553-.554.219-1.074.486-1.58.774 0 1.654.18 3.56-.455 4.185-.66.658-2.572.473-4.221.463-.572.982-1.019 2.047-1.322 3.143 1.164 1.169 2.629 2.411 2.627 3.333-.002.897-1.484 2.102-2.668 3.258.143.569.324 1.121.551 1.672.219.555.488 1.074.775 1.578 1.655.004 3.561-.178 4.186.457.654.659.474 2.571.461 4.219.984.572 2.049 1.022 3.142 1.324 1.172-1.166 2.412-2.631 3.338-2.627.893.004 2.1 1.485 3.258 2.668.565-.144 1.117-.322 1.67-.552.553-.219 1.072-.487 1.578-.773.002-1.655-.178-3.561.457-4.186.66-.657 2.57-.473 4.219-.463.572-.985 1.019-2.047 1.324-3.141-1.166-1.168-2.631-2.414-2.629-3.338zm-9.83 4.42c-2.465 0-4.463-2-4.463-4.467 0-2.465 1.998-4.463 4.463-4.463s4.463 1.998 4.463 4.463c0 2.467-1.998 4.467-4.463 4.467zm0 0" fill="#67737B" sketch:type="MSShapeGroup"/><path d="M25.83 16.549c.006-.894 1.485-2.1 2.67-3.258-.144-.564-.324-1.117-.553-1.669-.218-.553-.488-1.075-.773-1.579-1.656-.002-3.561.18-4.188-.455-.654-.661-.47-2.572-.461-4.221-.984-.574-2.046-1.021-3.142-1.324-1.172 1.166-2.412 2.631-3.336 2.627-.895-.004-2.1-1.484-3.258-2.668-.564.143-1.119.324-1.67.553-.554.219-1.074.486-1.58.774 0 1.654.18 3.56-.455 4.185-.66.658-2.572.473-4.221.463-.572.982-1.019 2.047-1.322 3.143 1.164 1.169 2.629 2.411 2.627 3.333-.002.897-1.484 2.102-2.668 3.258.143.569.324 1.121.551 1.672.219.555.488 1.074.775 1.578 1.655.004 3.561-.178 4.186.457.654.659.474 2.571.461 4.219.984.572 2.049 1.022 3.142 1.324 1.172-1.166 2.412-2.631 3.338-2.627.893.004 2.1 1.485 3.258 2.668.565-.144 1.117-.322 1.67-.552.553-.219 1.072-.487 1.578-.773.002-1.655-.178-3.561.457-4.186.66-.657 2.57-.473 4.219-.463.572-.985 1.019-2.047 1.324-3.141-1.166-1.168-2.631-2.414-2.629-3.338zm-9.83 4.42c-2.465 0-4.463-2-4.463-4.467 0-2.465 1.998-4.463 4.463-4.463s4.463 1.998 4.463 4.463c0 2.467-1.998 4.467-4.463 4.467zm0 0" fill="#3A434E" sketch:type="MSShapeGroup"/></g></svg>