<svg width="22" height="32" xmlns="http://www.w3.org/2000/svg" xmlns:sketch="http://www.bohemiancoding.com/sketch/ns"><title>shopping--pin</title><g sketch:type="MSLayerGroup" fill="none"><path d="M15.484 29.984c0 1.105-2.015 2-4.5 2-2.486 0-4.5-.895-4.5-2 0-1.104 2.014-2 4.5-2 2.485 0 4.5.896 4.5 2" fill-opacity=".2" fill="#1D508D" sketch:type="MSShapeGroup"/><path d="M10.983.016c6.077 0 11.001 4.362 11.001 10.919 0 6.408-5.55 9.16-8.505 13.257-2.419 3.346-2.496 5.824-2.496 5.824s-.018-2.491-2.494-5.824c-3.04-4.097-8.505-6.661-8.505-13.257 0-6.559 4.925-10.919 10.999-10.919" fill="#FF708E" sketch:type="MSShapeGroup"/><path d="M15.783 7.913l-.06-.678-1.288.003h-.21l.009-.061-.009-.078c-.055-1.746-1.481-3.143-3.241-3.145-1.793.002-3.242 1.449-3.242 3.246h.004l.008.072-.354.002-1.181.007-.554 9.19c0 .18.069.354.2.481.127.13.298.201.48.201h9.282c.182 0 .351-.071.482-.201.127-.127.2-.301.197-.481l-.523-8.558zm-6.688-.713v-.031c.021-1.029.856-1.857 1.889-1.859 1.041.002 1.888.845 1.889 1.89h.004l.008.045-3.799.021.009-.066zm4.659 7.596c-.071.07-.166.107-.267.107h-5.18c-.1 0-.196-.037-.266-.107-.076-.076-.115-.175-.115-.273l.311-5.129.657-.003.676-.004 2.58-.011.67-.002.721-.004.034.376.293 4.777c0 .098-.04.197-.114.273zm0 0" fill="#fff" sketch:type="MSShapeGroup"/></g></svg>