<?xml version="1.0" encoding="UTF-8" standalone="no"?>
<svg width="22px" height="32px" viewBox="0 0 22 32" version="1.1" xmlns="http://www.w3.org/2000/svg" xmlns:xlink="http://www.w3.org/1999/xlink" xmlns:sketch="http://www.bohemiancoding.com/sketch/ns">
    <title>shopping--pin</title>
    <description>Created with Sketch (http://www.bohemiancoding.com/sketch)</description>
    <defs></defs>
    <g id="Points-of-interest" stroke="none" stroke-width="1" fill="none" fill-rule="evenodd" sketch:type="MSPage">
        <g id="pin--shopping" sketch:type="MSLayerGroup" transform="translate(-1.000000, 0.000000)">
            <path d="M16.484,29.984 C16.484,31.089 14.469,31.984 11.984,31.984 C9.498,31.984 7.484,31.089 7.484,29.984 C7.484,28.88 9.498,27.984 11.984,27.984 C14.469,27.984 16.484,28.88 16.484,29.984" id="Fill-1" fill-opacity="0.2" fill="#1D508D" sketch:type="MSShapeGroup"></path>
            <path d="M11.983,0.016 C18.06,0.016 22.984,4.378 22.984,10.935 C22.984,17.343 17.434,20.095 14.479,24.192 C12.06,27.538 11.983,30.016 11.983,30.016 C11.983,30.016 11.965,27.525 9.489,24.192 C6.449,20.095 0.984,17.531 0.984,10.935 C0.984,4.376 5.909,0.016 11.983,0.016" id="Fill-2" fill="#FF708E" sketch:type="MSShapeGroup"></path>
            <path d="M16.783,7.913 L16.723,7.235 L15.435,7.238 L15.225,7.238 C15.226,7.216 15.234,7.197 15.234,7.177 C15.234,7.148 15.227,7.125 15.225,7.099 C15.17,5.353 13.744,3.956 11.984,3.954 C10.191,3.956 8.742,5.403 8.742,7.2 L8.746,7.2 C8.746,7.223 8.754,7.251 8.754,7.272 L8.4,7.274 L7.219,7.281 L6.665,16.471 C6.665,16.651 6.734,16.825 6.865,16.952 C6.992,17.082 7.163,17.153 7.345,17.153 L16.627,17.153 C16.809,17.153 16.978,17.082 17.109,16.952 C17.236,16.825 17.309,16.651 17.306,16.471 L16.783,7.913 L16.783,7.913 L16.783,7.913 L16.783,7.913 Z M10.095,7.2 L10.095,7.2 L10.095,7.188 L10.095,7.177 L10.095,7.169 C10.116,6.14 10.951,5.312 11.984,5.31 C13.025,5.312 13.872,6.155 13.873,7.2 L13.877,7.2 C13.879,7.213 13.881,7.233 13.885,7.245 L10.086,7.266 C10.087,7.243 10.095,7.223 10.095,7.2 L10.095,7.2 Z M14.754,14.796 C14.683,14.866 14.588,14.903 14.487,14.903 L9.307,14.903 C9.207,14.903 9.111,14.866 9.041,14.796 C8.965,14.72 8.926,14.621 8.926,14.523 L9.237,9.394 L9.894,9.391 L10.57,9.387 L13.15,9.376 L13.82,9.374 L14.541,9.37 L14.575,9.746 L14.868,14.523 C14.868,14.621 14.828,14.72 14.754,14.796 L14.754,14.796 Z M14.754,14.796" id="Fill-3" fill="#FFFFFF" sketch:type="MSShapeGroup"></path>
        </g>
    </g>
</svg>