<?xml version="1.0" encoding="UTF-8" standalone="no"?>
<svg width="32px" height="232px" viewBox="0 0 32 232" version="1.1" xmlns="http://www.w3.org/2000/svg" xmlns:xlink="http://www.w3.org/1999/xlink" xmlns:sketch="http://www.bohemiancoding.com/sketch/ns">
    <title>shop-basket</title>
    <description>Created with Sketch (http://www.bohemiancoding.com/sketch)</description>
    <defs></defs>
    <g id="Categories" stroke="none" stroke-width="1" fill="none" fill-rule="evenodd" sketch:type="MSPage">
        <path d="M28.6322376,134.168785 L25.7482277,134.168785 L19.9268369,126.537785 C19.4633,125.932785 18.6044225,125.821785 18.0054815,126.288785 C17.4075288,126.756785 17.2978218,127.623785 17.7603703,128.229785 L22.2909739,134.168785 L9.90594036,134.168785 L14.4385207,128.229785 C14.9000808,127.623785 14.7874088,126.756785 14.1914328,126.288785 C13.5934801,125.821785 12.7336142,125.932785 12.2710657,126.537785 L6.44868656,134.168785 L3.36799471,134.168785 C2.61091741,134.168785 1.99912779,134.785785 1.99912779,135.551785 C1.99912779,136.315785 2.61091741,136.936785 3.36799471,136.936785 L3.90071621,136.936785 L5.92189517,147.104785 C6.01974198,147.602785 6.50996436,148.010785 7.01204696,148.010785 L25.077137,148.010785 C25.5802079,148.010785 26.0714186,147.602785 26.1692655,147.104785 L28.1884677,136.936785 L28.6322376,136.936785 C29.3853615,136.936785 29.9991278,136.315785 29.9991278,135.551785 C29.9991278,134.785785 29.3853615,134.168785 28.6322376,134.168785 L28.6322376,134.168785 L28.6322376,134.168785 L28.6322376,134.168785 Z M10.7549344,144.041785 C10.7549344,144.551785 10.3457568,144.963785 9.84367421,144.963785 L9.11229404,144.963785 C8.61021145,144.963785 8.2010339,144.551785 8.2010339,144.041785 L8.2010339,143.211785 C8.2010339,142.701785 8.61021145,142.287785 9.11229404,142.287785 L9.84367421,142.287785 C10.3457568,142.287785 10.7549344,142.701785 10.7549344,143.211785 L10.7549344,144.041785 L10.7549344,144.041785 L10.7549344,144.041785 L10.7549344,144.041785 Z M10.7549344,139.334785 C10.7549344,139.844785 10.3457568,140.258785 9.84367421,140.258785 L9.11229404,140.258785 C8.61021145,140.258785 8.2010339,139.844785 8.2010339,139.334785 L8.2010339,138.504785 C8.2010339,137.995785 8.61021145,137.582785 9.11229404,137.582785 L9.84367421,137.582785 C10.3457568,137.582785 10.7549344,137.995785 10.7549344,138.504785 L10.7549344,139.334785 L10.7549344,139.334785 L10.7549344,139.334785 L10.7549344,139.334785 Z M15.1333318,144.041785 C15.1333318,144.551785 14.7241543,144.963785 14.2220717,144.963785 L13.4906915,144.963785 C12.9886089,144.963785 12.5794314,144.551785 12.5794314,144.041785 L12.5794314,143.211785 C12.5794314,142.701785 12.9886089,142.287785 13.4906915,142.287785 L14.2220717,142.287785 C14.7241543,142.287785 15.1333318,142.701785 15.1333318,143.211785 L15.1333318,144.041785 L15.1333318,144.041785 L15.1333318,144.041785 L15.1333318,144.041785 Z M15.1333318,139.334785 C15.1333318,139.844785 14.7241543,140.258785 14.2220717,140.258785 L13.4906915,140.258785 C12.9886089,140.258785 12.5794314,139.844785 12.5794314,139.334785 L12.5794314,138.504785 C12.5794314,137.995785 12.9886089,137.582785 13.4906915,137.582785 L14.2220717,137.582785 C14.7241543,137.582785 15.1333318,137.995785 15.1333318,138.504785 L15.1333318,139.334785 L15.1333318,139.334785 L15.1333318,139.334785 L15.1333318,139.334785 Z M19.6016693,144.041785 C19.6016693,144.551785 19.1944684,144.963785 18.6894208,144.963785 L17.9610057,144.963785 C17.4579347,144.963785 17.0477688,144.551785 17.0477688,144.041785 L17.0477688,143.211785 C17.0477688,142.701785 17.4579347,142.287785 17.9610057,142.287785 L18.6894208,142.287785 C19.1944684,142.287785 19.6016693,142.701785 19.6016693,143.211785 L19.6016693,144.041785 L19.6016693,144.041785 L19.6016693,144.041785 L19.6016693,144.041785 Z M19.6016693,139.334785 C19.6016693,139.844785 19.1944684,140.258785 18.6894208,140.258785 L17.9610057,140.258785 C17.4579347,140.258785 17.0477688,139.844785 17.0477688,139.334785 L17.0477688,138.504785 C17.0477688,137.995785 17.4579347,137.582785 17.9610057,137.582785 L18.6894208,137.582785 C19.1944684,137.582785 19.6016693,137.995785 19.6016693,138.504785 L19.6016693,139.334785 L19.6016693,139.334785 L19.6016693,139.334785 L19.6016693,139.334785 Z M23.9800667,144.041785 C23.9800667,144.551785 23.5728659,144.963785 23.0688066,144.963785 L22.3374264,144.963785 C21.8333671,144.963785 21.4261663,144.551785 21.4261663,144.041785 L21.4261663,143.211785 C21.4261663,142.701785 21.8333671,142.287785 22.3374264,142.287785 L23.0688066,142.287785 C23.5728659,142.287785 23.9800667,142.701785 23.9800667,143.211785 L23.9800667,144.041785 L23.9800667,144.041785 L23.9800667,144.041785 L23.9800667,144.041785 Z M23.9800667,139.334785 C23.9800667,139.844785 23.5728659,140.258785 23.0688066,140.258785 L22.3374264,140.258785 C21.8333671,140.258785 21.4261663,139.844785 21.4261663,139.334785 L21.4261663,138.504785 C21.4261663,137.995785 21.8333671,137.582785 22.3374264,137.582785 L23.0688066,137.582785 C23.5728659,137.582785 23.9800667,137.995785 23.9800667,138.504785 L23.9800667,139.334785 L23.9800667,139.334785 Z M23.9800667,139.334785" id="shop-basket--lp-blue" fill="#206FAC" sketch:type="MSShapeGroup"></path>
        <path d="M28.6322376,174.168785 L25.7482277,174.168785 L19.9268369,166.537785 C19.4633,165.932785 18.6044225,165.821785 18.0054815,166.288785 C17.4075288,166.756785 17.2978218,167.623785 17.7603703,168.229785 L22.2909739,174.168785 L9.90594036,174.168785 L14.4385207,168.229785 C14.9000808,167.623785 14.7874088,166.756785 14.1914328,166.288785 C13.5934801,165.821785 12.7336142,165.932785 12.2710657,166.537785 L6.44868656,174.168785 L3.36799471,174.168785 C2.61091741,174.168785 1.99912779,174.785785 1.99912779,175.551785 C1.99912779,176.315785 2.61091741,176.936785 3.36799471,176.936785 L3.90071621,176.936785 L5.92189517,187.104785 C6.01974198,187.602785 6.50996436,188.010785 7.01204696,188.010785 L25.077137,188.010785 C25.5802079,188.010785 26.0714186,187.602785 26.1692655,187.104785 L28.1884677,176.936785 L28.6322376,176.936785 C29.3853615,176.936785 29.9991278,176.315785 29.9991278,175.551785 C29.9991278,174.785785 29.3853615,174.168785 28.6322376,174.168785 L28.6322376,174.168785 L28.6322376,174.168785 L28.6322376,174.168785 Z M10.7549344,184.041785 C10.7549344,184.551785 10.3457568,184.963785 9.84367421,184.963785 L9.11229404,184.963785 C8.61021145,184.963785 8.2010339,184.551785 8.2010339,184.041785 L8.2010339,183.211785 C8.2010339,182.701785 8.61021145,182.287785 9.11229404,182.287785 L9.84367421,182.287785 C10.3457568,182.287785 10.7549344,182.701785 10.7549344,183.211785 L10.7549344,184.041785 L10.7549344,184.041785 L10.7549344,184.041785 L10.7549344,184.041785 Z M10.7549344,179.334785 C10.7549344,179.844785 10.3457568,180.258785 9.84367421,180.258785 L9.11229404,180.258785 C8.61021145,180.258785 8.2010339,179.844785 8.2010339,179.334785 L8.2010339,178.504785 C8.2010339,177.995785 8.61021145,177.582785 9.11229404,177.582785 L9.84367421,177.582785 C10.3457568,177.582785 10.7549344,177.995785 10.7549344,178.504785 L10.7549344,179.334785 L10.7549344,179.334785 L10.7549344,179.334785 L10.7549344,179.334785 Z M15.1333318,184.041785 C15.1333318,184.551785 14.7241543,184.963785 14.2220717,184.963785 L13.4906915,184.963785 C12.9886089,184.963785 12.5794314,184.551785 12.5794314,184.041785 L12.5794314,183.211785 C12.5794314,182.701785 12.9886089,182.287785 13.4906915,182.287785 L14.2220717,182.287785 C14.7241543,182.287785 15.1333318,182.701785 15.1333318,183.211785 L15.1333318,184.041785 L15.1333318,184.041785 L15.1333318,184.041785 L15.1333318,184.041785 Z M15.1333318,179.334785 C15.1333318,179.844785 14.7241543,180.258785 14.2220717,180.258785 L13.4906915,180.258785 C12.9886089,180.258785 12.5794314,179.844785 12.5794314,179.334785 L12.5794314,178.504785 C12.5794314,177.995785 12.9886089,177.582785 13.4906915,177.582785 L14.2220717,177.582785 C14.7241543,177.582785 15.1333318,177.995785 15.1333318,178.504785 L15.1333318,179.334785 L15.1333318,179.334785 L15.1333318,179.334785 L15.1333318,179.334785 Z M19.6016693,184.041785 C19.6016693,184.551785 19.1944684,184.963785 18.6894208,184.963785 L17.9610057,184.963785 C17.4579347,184.963785 17.0477688,184.551785 17.0477688,184.041785 L17.0477688,183.211785 C17.0477688,182.701785 17.4579347,182.287785 17.9610057,182.287785 L18.6894208,182.287785 C19.1944684,182.287785 19.6016693,182.701785 19.6016693,183.211785 L19.6016693,184.041785 L19.6016693,184.041785 L19.6016693,184.041785 L19.6016693,184.041785 Z M19.6016693,179.334785 C19.6016693,179.844785 19.1944684,180.258785 18.6894208,180.258785 L17.9610057,180.258785 C17.4579347,180.258785 17.0477688,179.844785 17.0477688,179.334785 L17.0477688,178.504785 C17.0477688,177.995785 17.4579347,177.582785 17.9610057,177.582785 L18.6894208,177.582785 C19.1944684,177.582785 19.6016693,177.995785 19.6016693,178.504785 L19.6016693,179.334785 L19.6016693,179.334785 L19.6016693,179.334785 L19.6016693,179.334785 Z M23.9800667,184.041785 C23.9800667,184.551785 23.5728659,184.963785 23.0688066,184.963785 L22.3374264,184.963785 C21.8333671,184.963785 21.4261663,184.551785 21.4261663,184.041785 L21.4261663,183.211785 C21.4261663,182.701785 21.8333671,182.287785 22.3374264,182.287785 L23.0688066,182.287785 C23.5728659,182.287785 23.9800667,182.701785 23.9800667,183.211785 L23.9800667,184.041785 L23.9800667,184.041785 L23.9800667,184.041785 L23.9800667,184.041785 Z M23.9800667,179.334785 C23.9800667,179.844785 23.5728659,180.258785 23.0688066,180.258785 L22.3374264,180.258785 C21.8333671,180.258785 21.4261663,179.844785 21.4261663,179.334785 L21.4261663,178.504785 C21.4261663,177.995785 21.8333671,177.582785 22.3374264,177.582785 L23.0688066,177.582785 C23.5728659,177.582785 23.9800667,177.995785 23.9800667,178.504785 L23.9800667,179.334785 L23.9800667,179.334785 Z M23.9800667,179.334785" id="shop-basket--lp-blue-copy" fill="#093367" sketch:type="MSShapeGroup"></path>
        <path d="M28.6322376,94.1687847 L25.7482277,94.1687847 L19.9268369,86.5377847 C19.4633,85.9327847 18.6044225,85.8217847 18.0054815,86.2887847 C17.4075288,86.7567847 17.2978218,87.6237847 17.7603703,88.2297847 L22.2909739,94.1687847 L9.90594036,94.1687847 L14.4385207,88.2297847 C14.9000808,87.6237847 14.7874088,86.7567847 14.1914328,86.2887847 C13.5934801,85.8217847 12.7336142,85.9327847 12.2710657,86.5377847 L6.44868656,94.1687847 L3.36799471,94.1687847 C2.61091741,94.1687847 1.99912779,94.7857847 1.99912779,95.5517847 C1.99912779,96.3157847 2.61091741,96.9367847 3.36799471,96.9367847 L3.90071621,96.9367847 L5.92189517,107.104785 C6.01974198,107.602785 6.50996436,108.010785 7.01204696,108.010785 L25.077137,108.010785 C25.5802079,108.010785 26.0714186,107.602785 26.1692655,107.104785 L28.1884677,96.9367847 L28.6322376,96.9367847 C29.3853615,96.9367847 29.9991278,96.3157847 29.9991278,95.5517847 C29.9991278,94.7857847 29.3853615,94.1687847 28.6322376,94.1687847 L28.6322376,94.1687847 L28.6322376,94.1687847 L28.6322376,94.1687847 Z M10.7549344,104.041785 C10.7549344,104.551785 10.3457568,104.963785 9.84367421,104.963785 L9.11229404,104.963785 C8.61021145,104.963785 8.2010339,104.551785 8.2010339,104.041785 L8.2010339,103.211785 C8.2010339,102.701785 8.61021145,102.287785 9.11229404,102.287785 L9.84367421,102.287785 C10.3457568,102.287785 10.7549344,102.701785 10.7549344,103.211785 L10.7549344,104.041785 L10.7549344,104.041785 L10.7549344,104.041785 L10.7549344,104.041785 Z M10.7549344,99.3347847 C10.7549344,99.8447847 10.3457568,100.258785 9.84367421,100.258785 L9.11229404,100.258785 C8.61021145,100.258785 8.2010339,99.8447847 8.2010339,99.3347847 L8.2010339,98.5047847 C8.2010339,97.9957847 8.61021145,97.5827847 9.11229404,97.5827847 L9.84367421,97.5827847 C10.3457568,97.5827847 10.7549344,97.9957847 10.7549344,98.5047847 L10.7549344,99.3347847 L10.7549344,99.3347847 L10.7549344,99.3347847 L10.7549344,99.3347847 Z M15.1333318,104.041785 C15.1333318,104.551785 14.7241543,104.963785 14.2220717,104.963785 L13.4906915,104.963785 C12.9886089,104.963785 12.5794314,104.551785 12.5794314,104.041785 L12.5794314,103.211785 C12.5794314,102.701785 12.9886089,102.287785 13.4906915,102.287785 L14.2220717,102.287785 C14.7241543,102.287785 15.1333318,102.701785 15.1333318,103.211785 L15.1333318,104.041785 L15.1333318,104.041785 L15.1333318,104.041785 L15.1333318,104.041785 Z M15.1333318,99.3347847 C15.1333318,99.8447847 14.7241543,100.258785 14.2220717,100.258785 L13.4906915,100.258785 C12.9886089,100.258785 12.5794314,99.8447847 12.5794314,99.3347847 L12.5794314,98.5047847 C12.5794314,97.9957847 12.9886089,97.5827847 13.4906915,97.5827847 L14.2220717,97.5827847 C14.7241543,97.5827847 15.1333318,97.9957847 15.1333318,98.5047847 L15.1333318,99.3347847 L15.1333318,99.3347847 L15.1333318,99.3347847 L15.1333318,99.3347847 Z M19.6016693,104.041785 C19.6016693,104.551785 19.1944684,104.963785 18.6894208,104.963785 L17.9610057,104.963785 C17.4579347,104.963785 17.0477688,104.551785 17.0477688,104.041785 L17.0477688,103.211785 C17.0477688,102.701785 17.4579347,102.287785 17.9610057,102.287785 L18.6894208,102.287785 C19.1944684,102.287785 19.6016693,102.701785 19.6016693,103.211785 L19.6016693,104.041785 L19.6016693,104.041785 L19.6016693,104.041785 L19.6016693,104.041785 Z M19.6016693,99.3347847 C19.6016693,99.8447847 19.1944684,100.258785 18.6894208,100.258785 L17.9610057,100.258785 C17.4579347,100.258785 17.0477688,99.8447847 17.0477688,99.3347847 L17.0477688,98.5047847 C17.0477688,97.9957847 17.4579347,97.5827847 17.9610057,97.5827847 L18.6894208,97.5827847 C19.1944684,97.5827847 19.6016693,97.9957847 19.6016693,98.5047847 L19.6016693,99.3347847 L19.6016693,99.3347847 L19.6016693,99.3347847 L19.6016693,99.3347847 Z M23.9800667,104.041785 C23.9800667,104.551785 23.5728659,104.963785 23.0688066,104.963785 L22.3374264,104.963785 C21.8333671,104.963785 21.4261663,104.551785 21.4261663,104.041785 L21.4261663,103.211785 C21.4261663,102.701785 21.8333671,102.287785 22.3374264,102.287785 L23.0688066,102.287785 C23.5728659,102.287785 23.9800667,102.701785 23.9800667,103.211785 L23.9800667,104.041785 L23.9800667,104.041785 L23.9800667,104.041785 L23.9800667,104.041785 Z M23.9800667,99.3347847 C23.9800667,99.8447847 23.5728659,100.258785 23.0688066,100.258785 L22.3374264,100.258785 C21.8333671,100.258785 21.4261663,99.8447847 21.4261663,99.3347847 L21.4261663,98.5047847 C21.4261663,97.9957847 21.8333671,97.5827847 22.3374264,97.5827847 L23.0688066,97.5827847 C23.5728659,97.5827847 23.9800667,97.9957847 23.9800667,98.5047847 L23.9800667,99.3347847 L23.9800667,99.3347847 Z M23.9800667,99.3347847" id="shop-basket--white" fill="#FFFFFF" sketch:type="MSShapeGroup"></path>
        <path d="M28.6322376,54.1687847 L25.7482277,54.1687847 L19.9268369,46.5377847 C19.4633,45.9327847 18.6044225,45.8217847 18.0054815,46.2887847 C17.4075288,46.7567847 17.2978218,47.6237847 17.7603703,48.2297847 L22.2909739,54.1687847 L9.90594036,54.1687847 L14.4385207,48.2297847 C14.9000808,47.6237847 14.7874088,46.7567847 14.1914328,46.2887847 C13.5934801,45.8217847 12.7336142,45.9327847 12.2710657,46.5377847 L6.44868656,54.1687847 L3.36799471,54.1687847 C2.61091741,54.1687847 1.99912779,54.7857847 1.99912779,55.5517847 C1.99912779,56.3157847 2.61091741,56.9367847 3.36799471,56.9367847 L3.90071621,56.9367847 L5.92189517,67.1047847 C6.01974198,67.6027847 6.50996436,68.0107847 7.01204696,68.0107847 L25.077137,68.0107847 C25.5802079,68.0107847 26.0714186,67.6027847 26.1692655,67.1047847 L28.1884677,56.9367847 L28.6322376,56.9367847 C29.3853615,56.9367847 29.9991278,56.3157847 29.9991278,55.5517847 C29.9991278,54.7857847 29.3853615,54.1687847 28.6322376,54.1687847 L28.6322376,54.1687847 L28.6322376,54.1687847 L28.6322376,54.1687847 Z M10.7549344,64.0417847 C10.7549344,64.5517847 10.3457568,64.9637847 9.84367421,64.9637847 L9.11229404,64.9637847 C8.61021145,64.9637847 8.2010339,64.5517847 8.2010339,64.0417847 L8.2010339,63.2117847 C8.2010339,62.7017847 8.61021145,62.2877847 9.11229404,62.2877847 L9.84367421,62.2877847 C10.3457568,62.2877847 10.7549344,62.7017847 10.7549344,63.2117847 L10.7549344,64.0417847 L10.7549344,64.0417847 L10.7549344,64.0417847 L10.7549344,64.0417847 Z M10.7549344,59.3347847 C10.7549344,59.8447847 10.3457568,60.2587847 9.84367421,60.2587847 L9.11229404,60.2587847 C8.61021145,60.2587847 8.2010339,59.8447847 8.2010339,59.3347847 L8.2010339,58.5047847 C8.2010339,57.9957847 8.61021145,57.5827847 9.11229404,57.5827847 L9.84367421,57.5827847 C10.3457568,57.5827847 10.7549344,57.9957847 10.7549344,58.5047847 L10.7549344,59.3347847 L10.7549344,59.3347847 L10.7549344,59.3347847 L10.7549344,59.3347847 Z M15.1333318,64.0417847 C15.1333318,64.5517847 14.7241543,64.9637847 14.2220717,64.9637847 L13.4906915,64.9637847 C12.9886089,64.9637847 12.5794314,64.5517847 12.5794314,64.0417847 L12.5794314,63.2117847 C12.5794314,62.7017847 12.9886089,62.2877847 13.4906915,62.2877847 L14.2220717,62.2877847 C14.7241543,62.2877847 15.1333318,62.7017847 15.1333318,63.2117847 L15.1333318,64.0417847 L15.1333318,64.0417847 L15.1333318,64.0417847 L15.1333318,64.0417847 Z M15.1333318,59.3347847 C15.1333318,59.8447847 14.7241543,60.2587847 14.2220717,60.2587847 L13.4906915,60.2587847 C12.9886089,60.2587847 12.5794314,59.8447847 12.5794314,59.3347847 L12.5794314,58.5047847 C12.5794314,57.9957847 12.9886089,57.5827847 13.4906915,57.5827847 L14.2220717,57.5827847 C14.7241543,57.5827847 15.1333318,57.9957847 15.1333318,58.5047847 L15.1333318,59.3347847 L15.1333318,59.3347847 L15.1333318,59.3347847 L15.1333318,59.3347847 Z M19.6016693,64.0417847 C19.6016693,64.5517847 19.1944684,64.9637847 18.6894208,64.9637847 L17.9610057,64.9637847 C17.4579347,64.9637847 17.0477688,64.5517847 17.0477688,64.0417847 L17.0477688,63.2117847 C17.0477688,62.7017847 17.4579347,62.2877847 17.9610057,62.2877847 L18.6894208,62.2877847 C19.1944684,62.2877847 19.6016693,62.7017847 19.6016693,63.2117847 L19.6016693,64.0417847 L19.6016693,64.0417847 L19.6016693,64.0417847 L19.6016693,64.0417847 Z M19.6016693,59.3347847 C19.6016693,59.8447847 19.1944684,60.2587847 18.6894208,60.2587847 L17.9610057,60.2587847 C17.4579347,60.2587847 17.0477688,59.8447847 17.0477688,59.3347847 L17.0477688,58.5047847 C17.0477688,57.9957847 17.4579347,57.5827847 17.9610057,57.5827847 L18.6894208,57.5827847 C19.1944684,57.5827847 19.6016693,57.9957847 19.6016693,58.5047847 L19.6016693,59.3347847 L19.6016693,59.3347847 L19.6016693,59.3347847 L19.6016693,59.3347847 Z M23.9800667,64.0417847 C23.9800667,64.5517847 23.5728659,64.9637847 23.0688066,64.9637847 L22.3374264,64.9637847 C21.8333671,64.9637847 21.4261663,64.5517847 21.4261663,64.0417847 L21.4261663,63.2117847 C21.4261663,62.7017847 21.8333671,62.2877847 22.3374264,62.2877847 L23.0688066,62.2877847 C23.5728659,62.2877847 23.9800667,62.7017847 23.9800667,63.2117847 L23.9800667,64.0417847 L23.9800667,64.0417847 L23.9800667,64.0417847 L23.9800667,64.0417847 Z M23.9800667,59.3347847 C23.9800667,59.8447847 23.5728659,60.2587847 23.0688066,60.2587847 L22.3374264,60.2587847 C21.8333671,60.2587847 21.4261663,59.8447847 21.4261663,59.3347847 L21.4261663,58.5047847 C21.4261663,57.9957847 21.8333671,57.5827847 22.3374264,57.5827847 L23.0688066,57.5827847 C23.5728659,57.5827847 23.9800667,57.9957847 23.9800667,58.5047847 L23.9800667,59.3347847 L23.9800667,59.3347847 Z M23.9800667,59.3347847" id="shop-basket--body-grey" fill="#67737B" sketch:type="MSShapeGroup"></path>
        <path d="M28.6322376,14.1687847 L25.7482277,14.1687847 L19.9268369,6.53778473 C19.4633,5.93278473 18.6044225,5.82178473 18.0054815,6.28878473 C17.4075288,6.75678473 17.2978218,7.62378473 17.7603703,8.22978473 L22.2909739,14.1687847 L9.90594036,14.1687847 L14.4385207,8.22978473 C14.9000808,7.62378473 14.7874088,6.75678473 14.1914328,6.28878473 C13.5934801,5.82178473 12.7336142,5.93278473 12.2710657,6.53778473 L6.44868656,14.1687847 L3.36799471,14.1687847 C2.61091741,14.1687847 1.99912779,14.7857847 1.99912779,15.5517847 C1.99912779,16.3157847 2.61091741,16.9367847 3.36799471,16.9367847 L3.90071621,16.9367847 L5.92189517,27.1047847 C6.01974198,27.6027847 6.50996436,28.0107847 7.01204696,28.0107847 L25.077137,28.0107847 C25.5802079,28.0107847 26.0714186,27.6027847 26.1692655,27.1047847 L28.1884677,16.9367847 L28.6322376,16.9367847 C29.3853615,16.9367847 29.9991278,16.3157847 29.9991278,15.5517847 C29.9991278,14.7857847 29.3853615,14.1687847 28.6322376,14.1687847 L28.6322376,14.1687847 L28.6322376,14.1687847 L28.6322376,14.1687847 Z M10.7549344,24.0417847 C10.7549344,24.5517847 10.3457568,24.9637847 9.84367421,24.9637847 L9.11229404,24.9637847 C8.61021145,24.9637847 8.2010339,24.5517847 8.2010339,24.0417847 L8.2010339,23.2117847 C8.2010339,22.7017847 8.61021145,22.2877847 9.11229404,22.2877847 L9.84367421,22.2877847 C10.3457568,22.2877847 10.7549344,22.7017847 10.7549344,23.2117847 L10.7549344,24.0417847 L10.7549344,24.0417847 L10.7549344,24.0417847 L10.7549344,24.0417847 Z M10.7549344,19.3347847 C10.7549344,19.8447847 10.3457568,20.2587847 9.84367421,20.2587847 L9.11229404,20.2587847 C8.61021145,20.2587847 8.2010339,19.8447847 8.2010339,19.3347847 L8.2010339,18.5047847 C8.2010339,17.9957847 8.61021145,17.5827847 9.11229404,17.5827847 L9.84367421,17.5827847 C10.3457568,17.5827847 10.7549344,17.9957847 10.7549344,18.5047847 L10.7549344,19.3347847 L10.7549344,19.3347847 L10.7549344,19.3347847 L10.7549344,19.3347847 Z M15.1333318,24.0417847 C15.1333318,24.5517847 14.7241543,24.9637847 14.2220717,24.9637847 L13.4906915,24.9637847 C12.9886089,24.9637847 12.5794314,24.5517847 12.5794314,24.0417847 L12.5794314,23.2117847 C12.5794314,22.7017847 12.9886089,22.2877847 13.4906915,22.2877847 L14.2220717,22.2877847 C14.7241543,22.2877847 15.1333318,22.7017847 15.1333318,23.2117847 L15.1333318,24.0417847 L15.1333318,24.0417847 L15.1333318,24.0417847 L15.1333318,24.0417847 Z M15.1333318,19.3347847 C15.1333318,19.8447847 14.7241543,20.2587847 14.2220717,20.2587847 L13.4906915,20.2587847 C12.9886089,20.2587847 12.5794314,19.8447847 12.5794314,19.3347847 L12.5794314,18.5047847 C12.5794314,17.9957847 12.9886089,17.5827847 13.4906915,17.5827847 L14.2220717,17.5827847 C14.7241543,17.5827847 15.1333318,17.9957847 15.1333318,18.5047847 L15.1333318,19.3347847 L15.1333318,19.3347847 L15.1333318,19.3347847 L15.1333318,19.3347847 Z M19.6016693,24.0417847 C19.6016693,24.5517847 19.1944684,24.9637847 18.6894208,24.9637847 L17.9610057,24.9637847 C17.4579347,24.9637847 17.0477688,24.5517847 17.0477688,24.0417847 L17.0477688,23.2117847 C17.0477688,22.7017847 17.4579347,22.2877847 17.9610057,22.2877847 L18.6894208,22.2877847 C19.1944684,22.2877847 19.6016693,22.7017847 19.6016693,23.2117847 L19.6016693,24.0417847 L19.6016693,24.0417847 L19.6016693,24.0417847 L19.6016693,24.0417847 Z M19.6016693,19.3347847 C19.6016693,19.8447847 19.1944684,20.2587847 18.6894208,20.2587847 L17.9610057,20.2587847 C17.4579347,20.2587847 17.0477688,19.8447847 17.0477688,19.3347847 L17.0477688,18.5047847 C17.0477688,17.9957847 17.4579347,17.5827847 17.9610057,17.5827847 L18.6894208,17.5827847 C19.1944684,17.5827847 19.6016693,17.9957847 19.6016693,18.5047847 L19.6016693,19.3347847 L19.6016693,19.3347847 L19.6016693,19.3347847 L19.6016693,19.3347847 Z M23.9800667,24.0417847 C23.9800667,24.5517847 23.5728659,24.9637847 23.0688066,24.9637847 L22.3374264,24.9637847 C21.8333671,24.9637847 21.4261663,24.5517847 21.4261663,24.0417847 L21.4261663,23.2117847 C21.4261663,22.7017847 21.8333671,22.2877847 22.3374264,22.2877847 L23.0688066,22.2877847 C23.5728659,22.2877847 23.9800667,22.7017847 23.9800667,23.2117847 L23.9800667,24.0417847 L23.9800667,24.0417847 L23.9800667,24.0417847 L23.9800667,24.0417847 Z M23.9800667,19.3347847 C23.9800667,19.8447847 23.5728659,20.2587847 23.0688066,20.2587847 L22.3374264,20.2587847 C21.8333671,20.2587847 21.4261663,19.8447847 21.4261663,19.3347847 L21.4261663,18.5047847 C21.4261663,17.9957847 21.8333671,17.5827847 22.3374264,17.5827847 L23.0688066,17.5827847 C23.5728659,17.5827847 23.9800667,17.9957847 23.9800667,18.5047847 L23.9800667,19.3347847 L23.9800667,19.3347847 Z M23.9800667,19.3347847" id="shop-basket--title-grey" fill="#3A434E" sketch:type="MSShapeGroup"></path>
    </g>
</svg>