<?xml version="1.0" encoding="UTF-8" standalone="no"?>
<svg width="32px" height="32px" viewBox="0 0 32 32" version="1.1" xmlns="http://www.w3.org/2000/svg" xmlns:xlink="http://www.w3.org/1999/xlink" xmlns:sketch="http://www.bohemiancoding.com/sketch/ns">
    <title>shopping-pin--body-grey</title>
    <description>Created with Sketch (http://www.bohemiancoding.com/sketch)</description>
    <defs></defs>
    <g id="Page-1" stroke="none" stroke-width="1" fill="none" fill-rule="evenodd" sketch:type="MSPage">
        <path d="M28,11.648 C28,18.482 21.9446281,21.417 18.7201786,25.788 C16.0829291,29.357 15.9984547,32 15.9984547,32 C15.9984547,32 15.9778512,29.344 13.2777611,25.788 C9.96059578,21.417 4,18.684 4,11.648 C4,4.652 9.37236554,0 15.9984547,0 C22.6276345,0 28,4.654 28,11.648 Z M20.793,8.59169922 L20.729,7.86669922 L19.356,7.87169922 L19.131,7.87169922 C19.132,7.84769922 19.141,7.82669922 19.141,7.80469922 C19.141,7.77469922 19.133,7.75069922 19.131,7.72269922 C19.073,5.85969922 17.551,4.36869922 15.674,4.36669922 C13.762,4.36869922 12.215,5.91369922 12.215,7.82969922 L12.219,7.82969922 C12.219,7.85469922 12.229,7.88469922 12.229,7.90769922 L11.852,7.90969922 L10.59,7.91669922 L10,17.7196992 C10,17.9116992 10.075,18.0976992 10.213,18.2326992 C10.35,18.3716992 10.531,18.4476992 10.726,18.4476992 L20.626,18.4476992 C20.821,18.4476992 21.001,18.3716992 21.141,18.2326992 C21.276,18.0976992 21.354,17.9116992 21.351,17.7196992 L20.793,8.59169922 L20.793,8.59169922 L20.793,8.59169922 L20.793,8.59169922 Z M13.659,7.82969922 L13.659,7.82969922 L13.659,7.81869922 L13.659,7.80469922 L13.659,7.79669922 C13.681,6.69969922 14.573,5.81669922 15.674,5.81469922 C16.785,5.81669922 17.687,6.71669922 17.688,7.82969922 L17.694,7.82969922 C17.696,7.84469922 17.698,7.86569922 17.702,7.87869922 L13.649,7.89969922 C13.65,7.87669922 13.659,7.85469922 13.659,7.82969922 L13.659,7.82969922 Z M18.629,15.9316992 C18.552,16.0076992 18.452,16.0466992 18.343,16.0466992 L12.819,16.0466992 C12.711,16.0466992 12.61,16.0076992 12.535,15.9316992 C12.454,15.8516992 12.413,15.7466992 12.413,15.6406992 L12.744,10.1696992 L13.446,10.1666992 L14.167,10.1626992 L16.918,10.1506992 L17.633,10.1486992 L18.401,10.1446992 L18.437,10.5456992 L18.75,15.6406992 C18.75,15.7466992 18.708,15.8516992 18.629,15.9316992 L18.629,15.9316992 Z M18.629,15.9316992" id="shopping-pin--body-grey" fill="#67747C" sketch:type="MSShapeGroup"></path>
    </g>
</svg>