<?xml version="1.0" encoding="UTF-8" standalone="no"?>
<svg width="32px" height="32px" viewBox="0 0 32 32" version="1.1" xmlns="http://www.w3.org/2000/svg" xmlns:xlink="http://www.w3.org/1999/xlink" xmlns:sketch="http://www.bohemiancoding.com/sketch/ns">
    <title>shop-basket-line--body-grey</title>
    <description>Created with Sketch (http://www.bohemiancoding.com/sketch)</description>
    <defs></defs>
    <g id="Categories" stroke="none" stroke-width="1" fill="none" fill-rule="evenodd" sketch:type="MSPage">
        <path d="M18.8908619,5.708 C19.3093368,5.708 19.7226834,5.891 19.997564,6.238 L25.9228821,13.718 L28.8563095,13.718 C29.6235136,13.718 30.2491747,14.324 30.2491747,15.074 C30.2491747,15.824 29.6235136,16.434 28.8563095,16.434 L28.4070643,16.434 L26.3495625,26.405 C26.2500721,26.892 25.7485176,27.292 25.237732,27.292 L6.85663002,27.292 C6.34584442,27.292 5.84531555,26.892 5.74274817,26.405 L3.68729767,16.434 L3.14471618,16.434 C2.3775121,16.434 1.75082535,15.824 1.75082535,15.074 C1.75082535,14.324 2.3775121,13.718 3.14471618,13.718 L6.27917561,13.718 L12.2075708,6.238 C12.4814257,5.89 12.8947723,5.708 13.3111959,5.708 C13.6076156,5.708 13.9060867,5.8 14.1604539,5.991 C14.7676528,6.449 14.8825283,7.302 14.411744,7.898 L9.79826276,13.718 L22.4017436,13.718 L17.7923651,7.898 C17.3226065,7.302 17.4344049,6.449 18.0405782,5.991 C18.2949454,5.8 18.5934165,5.708 18.8908619,5.708 L18.8908619,5.708 Z M22.4489246,19.692 L23.1935639,19.692 C23.7064008,19.692 24.1228244,19.284 24.1228244,18.785 L24.1228244,17.972 C24.1228244,17.472 23.7064008,17.069 23.1935639,17.069 L22.4489246,17.069 C21.938139,17.069 21.5237668,17.472 21.5237668,17.972 L21.5237668,18.785 C21.5237668,19.284 21.938139,19.692 22.4489246,19.692 L22.4489246,19.692 Z M17.9954486,19.692 L18.7400878,19.692 C19.2529248,19.692 19.667297,19.284 19.667297,18.785 L19.667297,17.972 C19.667297,17.472 19.2529248,17.069 18.7400878,17.069 L17.9954486,17.069 C17.4836373,17.069 17.0702907,17.472 17.0702907,17.972 L17.0702907,18.785 C17.0702907,19.284 17.4836373,19.692 17.9954486,19.692 L17.9954486,19.692 Z M13.4476105,19.692 L14.1901984,19.692 C14.7020097,19.692 15.1204846,19.284 15.1204846,18.785 L15.1204846,17.972 C15.1204846,17.472 14.7020097,17.069 14.1901984,17.069 L13.4476105,17.069 C12.9347736,17.069 12.5224526,17.472 12.5224526,17.972 L12.5224526,18.785 C12.5224526,19.284 12.9347736,19.692 13.4476105,19.692 L13.4476105,19.692 Z M8.99413443,19.692 L9.737748,19.692 C10.2495593,19.692 10.6649572,19.284 10.6649572,18.785 L10.6649572,17.972 C10.6649572,17.472 10.2495593,17.069 9.737748,17.069 L8.99413443,17.069 C8.47924613,17.069 8.06692522,17.472 8.06692522,17.972 L8.06692522,18.785 C8.06692522,19.284 8.47924613,19.692 8.99413443,19.692 L8.99413443,19.692 Z M22.4489246,24.304 L23.1935639,24.304 C23.7064008,24.304 24.1228244,23.901 24.1228244,23.4 L24.1228244,22.587 C24.1228244,22.088 23.7064008,21.681 23.1935639,21.681 L22.4489246,21.681 C21.938139,21.681 21.5237668,22.088 21.5237668,22.587 L21.5237668,23.4 C21.5237668,23.901 21.938139,24.304 22.4489246,24.304 L22.4489246,24.304 Z M17.9954486,24.304 L18.7400878,24.304 C19.2529248,24.304 19.667297,23.901 19.667297,23.4 L19.667297,22.587 C19.667297,22.088 19.2529248,21.681 18.7400878,21.681 L17.9954486,21.681 C17.4836373,21.681 17.0702907,22.088 17.0702907,22.587 L17.0702907,23.4 C17.0702907,23.901 17.4836373,24.304 17.9954486,24.304 L17.9954486,24.304 Z M13.4476105,24.304 L14.1901984,24.304 C14.7020097,24.304 15.1204846,23.901 15.1204846,23.4 L15.1204846,22.587 C15.1204846,22.088 14.7020097,21.681 14.1901984,21.681 L13.4476105,21.681 C12.9347736,21.681 12.5224526,22.088 12.5224526,22.587 L12.5224526,23.4 C12.5224526,23.901 12.9347736,24.304 13.4476105,24.304 L13.4476105,24.304 Z M8.99413443,24.304 L9.737748,24.304 C10.2495593,24.304 10.6649572,23.901 10.6649572,23.4 L10.6649572,22.587 C10.6649572,22.088 10.2495593,21.681 9.737748,21.681 L8.99413443,21.681 C8.47924613,21.681 8.06692522,22.088 8.06692522,22.587 L8.06692522,23.4 C8.06692522,23.901 8.47924613,24.304 8.99413443,24.304 L8.99413443,24.304 Z M18.8908619,4 L18.8908619,4 C18.201609,4 17.5195359,4.227 16.9708003,4.638 C16.5964294,4.921 16.3061637,5.271 16.1020546,5.657 C15.8979454,5.272 15.6056284,4.923 15.2322831,4.64 C14.6814962,4.227 14.0004487,4 13.3111959,4 C12.3296259,4 11.4219045,4.435 10.8208596,5.192 L5.41863521,12.011 L3.14471618,12.011 C1.41030161,12.011 0,13.384 0,15.074 C0,16.454 0.938491618,17.624 2.22571236,18.008 L4.02577006,26.741 C4.29552229,28.03 5.51299721,29 6.85663002,29 L25.237732,29 C26.5864932,29 27.8029424,28.029 28.0675663,26.74 L29.8758294,17.976 C31.1107407,17.562 32,16.418 32,15.074 C32,13.384 30.5896984,12.011 28.8563095,12.011 L26.7834225,12.011 L21.3842751,5.192 C20.7811789,4.435 19.8744832,4 18.8908619,4 L18.8908619,4 L18.8908619,4 L18.8908619,4 Z M13.3655566,12.011 L15.7984551,8.941 C15.9153819,8.792 16.0169236,8.636 16.1020546,8.476 C16.1871855,8.636 16.2877015,8.79 16.4046284,8.938 L18.8375268,12.011 L13.3655566,12.011 L13.3655566,12.011 Z M13.3655566,12.011" id="shop-basket-line--body-grey" fill="#67737B" sketch:type="MSShapeGroup"></path>
    </g>
</svg>