<svg width="32" height="232" xmlns="http://www.w3.org/2000/svg" xmlns:sketch="http://www.bohemiancoding.com/sketch/ns"><title>shop-basket-line</title><g sketch:type="MSPage" fill="none"><path d="M18.891 125.708c.418 0 .832.183 1.107.53l5.925 7.48h2.933c.767 0 1.393.606 1.393 1.356 0 .75-.626 1.36-1.393 1.36h-.449l-2.058 9.971c-.099.487-.601.887-1.112.887h-18.381c-.511 0-1.011-.4-1.114-.887l-2.055-9.971h-.543c-.767 0-1.394-.61-1.394-1.36 0-.75.627-1.356 1.394-1.356h3.134l5.928-7.48c.274-.348.687-.53 1.104-.53.296 0 .595.092.849.283.607.458.722 1.311.251 1.907l-4.613 5.82h12.603l-4.609-5.82c-.47-.596-.358-1.449.248-1.907.254-.191.553-.283.85-.283zm3.558 13.984h.745c.513 0 .929-.408.929-.907v-.813c0-.5-.416-.903-.929-.903h-.745c-.511 0-.925.403-.925.903v.813c0 .499.414.907.925.907zm-4.453 0h.745c.513 0 .927-.408.927-.907v-.813c0-.5-.414-.903-.927-.903h-.745c-.512 0-.925.403-.925.903v.813c0 .499.413.907.925.907zm-4.548 0h.743c.512 0 .93-.408.93-.907v-.813c0-.5-.418-.903-.93-.903h-.743c-.513 0-.925.403-.925.903v.813c0 .499.412.907.925.907zm-4.453 0h.744c.512 0 .927-.408.927-.907v-.813c0-.5-.415-.903-.927-.903h-.744c-.515 0-.927.403-.927.903v.813c0 .499.412.907.927.907zm13.455 4.612h.745c.513 0 .929-.403.929-.904v-.813c0-.499-.416-.906-.929-.906h-.745c-.511 0-.925.407-.925.906v.813c0 .501.414.904.925.904zm-4.453 0h.745c.513 0 .927-.403.927-.904v-.813c0-.499-.414-.906-.927-.906h-.745c-.512 0-.925.407-.925.906v.813c0 .501.413.904.925.904zm-4.548 0h.743c.512 0 .93-.403.93-.904v-.813c0-.499-.418-.906-.93-.906h-.743c-.513 0-.925.407-.925.906v.813c0 .501.412.904.925.904zm-4.453 0h.744c.512 0 .927-.403.927-.904v-.813c0-.499-.415-.906-.927-.906h-.744c-.515 0-.927.407-.927.906v.813c0 .501.412.904.927.904zm9.897-20.304c-.689 0-1.371.227-1.92.638-.374.283-.665.633-.869 1.019-.204-.385-.496-.734-.87-1.017-.551-.413-1.232-.64-1.921-.64-.982 0-1.889.435-2.49 1.192l-5.402 6.819h-2.274c-1.734 0-3.145 1.373-3.145 3.063 0 1.38.938 2.55 2.226 2.934l1.8 8.733c.27 1.289 1.487 2.259 2.831 2.259h18.381c1.349 0 2.565-.971 2.83-2.26l1.808-8.764c1.235-.414 2.124-1.558 2.124-2.902 0-1.69-1.41-3.063-3.144-3.063h-2.073l-5.399-6.819c-.603-.757-1.51-1.192-2.493-1.192zm-5.525 8.011l2.433-3.07c.117-.149.218-.305.304-.465.085.16.186.314.303.462l2.433 3.073h-5.472zm0 0" fill="#206FAC" sketch:type="MSShapeGroup"/><path d="M18.891 85.708c.418 0 .832.183 1.107.53l5.925 7.48h2.933c.767 0 1.393.606 1.393 1.356 0 .75-.626 1.36-1.393 1.36h-.449l-2.058 9.971c-.099.487-.601.887-1.112.887h-18.381c-.511 0-1.011-.4-1.114-.887l-2.055-9.971h-.543c-.767 0-1.394-.61-1.394-1.36 0-.75.627-1.356 1.394-1.356h3.134l5.928-7.48c.274-.348.687-.53 1.104-.53.296 0 .595.092.849.283.607.458.722 1.311.251 1.907l-4.613 5.82h12.603l-4.609-5.82c-.47-.596-.358-1.449.248-1.907.254-.191.553-.283.85-.283zm3.558 13.984h.745c.513 0 .929-.408.929-.907v-.813c0-.5-.416-.903-.929-.903h-.745c-.511 0-.925.403-.925.903v.813c0 .499.414.907.925.907zm-4.453 0h.745c.513 0 .927-.408.927-.907v-.813c0-.5-.414-.903-.927-.903h-.745c-.512 0-.925.403-.925.903v.813c0 .499.413.907.925.907zm-4.548 0h.743c.512 0 .93-.408.93-.907v-.813c0-.5-.418-.903-.93-.903h-.743c-.513 0-.925.403-.925.903v.813c0 .499.412.907.925.907zm-4.453 0h.744c.512 0 .927-.408.927-.907v-.813c0-.5-.415-.903-.927-.903h-.744c-.515 0-.927.403-.927.903v.813c0 .499.412.907.927.907zm13.455 4.612h.745c.513 0 .929-.403.929-.904v-.813c0-.499-.416-.906-.929-.906h-.745c-.511 0-.925.407-.925.906v.813c0 .501.414.904.925.904zm-4.453 0h.745c.513 0 .927-.403.927-.904v-.813c0-.499-.414-.906-.927-.906h-.745c-.512 0-.925.407-.925.906v.813c0 .501.413.904.925.904zm-4.548 0h.743c.512 0 .93-.403.93-.904v-.813c0-.499-.418-.906-.93-.906h-.743c-.513 0-.925.407-.925.906v.813c0 .501.412.904.925.904zm-4.453 0h.744c.512 0 .927-.403.927-.904v-.813c0-.499-.415-.906-.927-.906h-.744c-.515 0-.927.407-.927.906v.813c0 .501.412.904.927.904zm9.897-20.304c-.689 0-1.371.227-1.92.638-.374.283-.665.633-.869 1.019-.204-.385-.496-.734-.87-1.017-.551-.413-1.232-.64-1.921-.64-.982 0-1.889.435-2.49 1.192l-5.402 6.819h-2.274c-1.734 0-3.145 1.373-3.145 3.063 0 1.38.938 2.55 2.226 2.934l1.8 8.733c.27 1.289 1.487 2.259 2.831 2.259h18.381c1.349 0 2.565-.971 2.83-2.26l1.808-8.764c1.235-.414 2.124-1.558 2.124-2.902 0-1.69-1.41-3.063-3.144-3.063h-2.073l-5.399-6.819c-.603-.757-1.51-1.192-2.493-1.192zm-5.525 8.011l2.433-3.07c.117-.149.218-.305.304-.465.085.16.186.314.303.462l2.433 3.073h-5.472zm0 0" fill="#fff" sketch:type="MSShapeGroup"/><path d="M18.891 45.708c.418 0 .832.183 1.107.53l5.925 7.48h2.933c.767 0 1.393.606 1.393 1.356 0 .75-.626 1.36-1.393 1.36h-.449l-2.058 9.971c-.099.487-.601.887-1.112.887h-18.381c-.511 0-1.011-.4-1.114-.887l-2.055-9.971h-.543c-.767 0-1.394-.61-1.394-1.36 0-.75.627-1.356 1.394-1.356h3.134l5.928-7.48c.274-.348.687-.53 1.104-.53.296 0 .595.092.849.283.607.458.722 1.311.251 1.907l-4.613 5.82h12.603l-4.609-5.82c-.47-.596-.358-1.449.248-1.907.254-.191.553-.283.85-.283zm3.558 13.984h.745c.513 0 .929-.408.929-.907v-.813c0-.5-.416-.903-.929-.903h-.745c-.511 0-.925.403-.925.903v.813c0 .499.414.907.925.907zm-4.453 0h.745c.513 0 .927-.408.927-.907v-.813c0-.5-.414-.903-.927-.903h-.745c-.512 0-.925.403-.925.903v.813c0 .499.413.907.925.907zm-4.548 0h.743c.512 0 .93-.408.93-.907v-.813c0-.5-.418-.903-.93-.903h-.743c-.513 0-.925.403-.925.903v.813c0 .499.412.907.925.907zm-4.453 0h.744c.512 0 .927-.408.927-.907v-.813c0-.5-.415-.903-.927-.903h-.744c-.515 0-.927.403-.927.903v.813c0 .499.412.907.927.907zm13.455 4.612h.745c.513 0 .929-.403.929-.904v-.813c0-.499-.416-.906-.929-.906h-.745c-.511 0-.925.407-.925.906v.813c0 .501.414.904.925.904zm-4.453 0h.745c.513 0 .927-.403.927-.904v-.813c0-.499-.414-.906-.927-.906h-.745c-.512 0-.925.407-.925.906v.813c0 .501.413.904.925.904zm-4.548 0h.743c.512 0 .93-.403.93-.904v-.813c0-.499-.418-.906-.93-.906h-.743c-.513 0-.925.407-.925.906v.813c0 .501.412.904.925.904zm-4.453 0h.744c.512 0 .927-.403.927-.904v-.813c0-.499-.415-.906-.927-.906h-.744c-.515 0-.927.407-.927.906v.813c0 .501.412.904.927.904zm9.897-20.304c-.689 0-1.371.227-1.92.638-.374.283-.665.633-.869 1.019-.204-.385-.496-.734-.87-1.017-.551-.413-1.232-.64-1.921-.64-.982 0-1.889.435-2.49 1.192l-5.402 6.819h-2.274c-1.734 0-3.145 1.373-3.145 3.063 0 1.38.938 2.55 2.226 2.934l1.8 8.733c.27 1.289 1.487 2.259 2.831 2.259h18.381c1.349 0 2.565-.971 2.83-2.26l1.808-8.764c1.235-.414 2.124-1.558 2.124-2.902 0-1.69-1.41-3.063-3.144-3.063h-2.073l-5.399-6.819c-.603-.757-1.51-1.192-2.493-1.192zm-5.525 8.011l2.433-3.07c.117-.149.218-.305.304-.465.085.16.186.314.303.462l2.433 3.073h-5.472zm0 0" fill="#67737B" sketch:type="MSShapeGroup"/><path d="M18.891 5.708c.418 0 .832.183 1.107.53l5.925 7.48h2.933c.767 0 1.393.606 1.393 1.356 0 .75-.626 1.36-1.393 1.36h-.449l-2.058 9.971c-.099.487-.601.887-1.112.887h-18.381c-.511 0-1.011-.4-1.114-.887l-2.055-9.971h-.543c-.767 0-1.394-.61-1.394-1.36 0-.75.627-1.356 1.394-1.356h3.134l5.928-7.48c.274-.348.687-.53 1.104-.53.296 0 .595.092.849.283.607.458.722 1.311.251 1.907l-4.613 5.82h12.603l-4.609-5.82c-.47-.596-.358-1.449.248-1.907.254-.191.553-.283.85-.283zm3.558 13.984h.745c.513 0 .929-.408.929-.907v-.813c0-.5-.416-.903-.929-.903h-.745c-.511 0-.925.403-.925.903v.813c0 .499.414.907.925.907zm-4.453 0h.745c.513 0 .927-.408.927-.907v-.813c0-.5-.414-.903-.927-.903h-.745c-.512 0-.925.403-.925.903v.813c0 .499.413.907.925.907zm-4.548 0h.743c.512 0 .93-.408.93-.907v-.813c0-.5-.418-.903-.93-.903h-.743c-.513 0-.925.403-.925.903v.813c0 .499.412.907.925.907zm-4.453 0h.744c.512 0 .927-.408.927-.907v-.813c0-.5-.415-.903-.927-.903h-.744c-.515 0-.927.403-.927.903v.813c0 .499.412.907.927.907zm13.455 4.612h.745c.513 0 .929-.403.929-.904v-.813c0-.499-.416-.906-.929-.906h-.745c-.511 0-.925.407-.925.906v.813c0 .501.414.904.925.904zm-4.453 0h.745c.513 0 .927-.403.927-.904v-.813c0-.499-.414-.906-.927-.906h-.745c-.512 0-.925.407-.925.906v.813c0 .501.413.904.925.904zm-4.548 0h.743c.512 0 .93-.403.93-.904v-.813c0-.499-.418-.906-.93-.906h-.743c-.513 0-.925.407-.925.906v.813c0 .501.412.904.925.904zm-4.453 0h.744c.512 0 .927-.403.927-.904v-.813c0-.499-.415-.906-.927-.906h-.744c-.515 0-.927.407-.927.906v.813c0 .501.412.904.927.904zm9.897-20.304c-.689 0-1.371.227-1.92.638-.374.283-.665.633-.869 1.019-.204-.385-.496-.734-.87-1.017-.551-.413-1.232-.64-1.921-.64-.982 0-1.889.435-2.49 1.192l-5.402 6.819h-2.274c-1.734 0-3.145 1.373-3.145 3.063 0 1.38.938 2.55 2.226 2.934l1.8 8.733c.27 1.289 1.487 2.259 2.831 2.259h18.381c1.349 0 2.565-.971 2.83-2.26l1.808-8.764c1.235-.414 2.124-1.558 2.124-2.902 0-1.69-1.41-3.063-3.144-3.063h-2.073l-5.399-6.819c-.603-.757-1.51-1.192-2.493-1.192zm-5.525 8.011l2.433-3.07c.117-.149.218-.305.304-.465.085.16.186.314.303.462l2.433 3.073h-5.472zm0 0" fill="#3A434E" sketch:type="MSShapeGroup"/></g></svg>