<svg width="32" height="232" xmlns="http://www.w3.org/2000/svg" xmlns:sketch="http://www.bohemiancoding.com/sketch/ns"><title>shopping--line</title><g sketch:type="MSPage" fill="none"><path d="M24.505 149.877h-17.415c-.552 0-1.075-.219-1.475-.621-.397-.402-.615-.938-.615-1.513l1.08-18.462 2.929-.015c.432-2.525 2.222-6.266 6.789-6.266 4.598 0 6.462 3.753 6.936 6.272l2.704-.01.176 2.062.985 16.37c.002.622-.217 1.159-.616 1.561-.389.399-.915.623-1.477.623zm-16.884-18.941l-.987 16.857c.002.04.023.172.131.283.061.062.172.136.325.136h17.415c.123 0 .236-.047.323-.133.093-.094.137-.208.137-.336l-1.025-16.813-2.665.011-.065-.762c-.02-.224-.555-5.516-5.413-5.516-4.8 0-5.236 5.273-5.254 5.498l-.054.777-1.423-.009-1.446.007zm12.87 14.646h-9.716c-.403 0-.785-.159-1.075-.448-.296-.303-.457-.693-.457-1.108l.622-10.629 11.475-.06.128 1.491.549 9.148c.008.456-.153.852-.448 1.153-.278.288-.661.454-1.078.454zm-9.085-10.527l-.521 8.887 9.493-.024-.534-8.907-8.439.044zm7.667-4.092h-6.348l.065-.673c.107-1.139.882-3.289 3.034-3.289 2.125 0 2.989 2.135 3.149 3.262l.1.7zm-4.943-1.227h3.464c-.236-.648-.745-1.507-1.77-1.507-1.038 0-1.496.866-1.694 1.507zm0 0" fill="#206FAC" sketch:type="MSShapeGroup"/><path d="M24.505 109.877h-17.415c-.552 0-1.075-.219-1.475-.621-.397-.402-.615-.938-.615-1.513l1.08-18.462 2.929-.015c.432-2.525 2.222-6.266 6.789-6.266 4.598 0 6.462 3.753 6.936 6.272l2.704-.01.176 2.062.985 16.37c.002.622-.217 1.159-.616 1.561-.389.399-.915.623-1.477.623zm-16.884-18.941l-.987 16.857c.002.04.023.172.131.283.061.062.172.136.325.136h17.415c.123 0 .236-.047.323-.133.093-.094.137-.208.137-.336l-1.025-16.813-2.665.011-.065-.762c-.02-.224-.555-5.516-5.413-5.516-4.8 0-5.236 5.273-5.254 5.498l-.054.777-1.423-.009-1.446.007zm12.87 14.646h-9.716c-.403 0-.785-.159-1.075-.448-.296-.303-.457-.693-.457-1.108l.622-10.629 11.475-.06.128 1.491.549 9.148c.008.456-.153.852-.448 1.153-.278.288-.661.454-1.078.454zm-9.085-10.527l-.521 8.887 9.493-.024-.534-8.907-8.439.044zm7.667-4.092h-6.348l.065-.673c.107-1.139.882-3.289 3.034-3.289 2.125 0 2.989 2.135 3.149 3.262l.1.7zm-4.943-1.227h3.464c-.236-.648-.745-1.507-1.77-1.507-1.038 0-1.496.866-1.694 1.507zm0 0" fill="#fff" sketch:type="MSShapeGroup"/><path d="M24.505 69.877h-17.415c-.552 0-1.075-.219-1.475-.621-.397-.402-.615-.938-.615-1.513l1.08-18.462 2.929-.015c.432-2.525 2.222-6.266 6.789-6.266 4.598 0 6.462 3.753 6.936 6.272l2.704-.01.176 2.062.985 16.37c.002.622-.217 1.159-.616 1.561-.389.399-.915.623-1.477.623zm-16.884-18.941l-.987 16.857c.002.04.023.172.131.283.061.062.172.136.325.136h17.415c.123 0 .236-.047.323-.133.093-.094.137-.208.137-.336l-1.025-16.813-2.665.011-.065-.762c-.02-.224-.555-5.516-5.413-5.516-4.8 0-5.236 5.273-5.254 5.498l-.054.777-1.423-.009-1.446.007zm12.87 14.646h-9.716c-.403 0-.785-.159-1.075-.448-.296-.303-.457-.693-.457-1.108l.622-10.629 11.475-.06.128 1.491.549 9.148c.008.456-.153.852-.448 1.153-.278.288-.661.454-1.078.454zm-9.085-10.527l-.521 8.887 9.493-.024-.534-8.907-8.439.044zm7.667-4.092h-6.348l.065-.673c.107-1.139.882-3.289 3.034-3.289 2.125 0 2.989 2.135 3.149 3.262l.1.7zm-4.943-1.227h3.464c-.236-.648-.745-1.507-1.77-1.507-1.038 0-1.496.866-1.694 1.507zm0 0" fill="#67747C" sketch:type="MSShapeGroup"/><path d="M24.505 29.877h-17.415c-.552 0-1.075-.219-1.475-.621-.397-.402-.615-.938-.615-1.513l1.08-18.462 2.929-.015c.432-2.525 2.222-6.266 6.789-6.266 4.598 0 6.462 3.753 6.936 6.272l2.704-.01.176 2.062.985 16.37c.002.622-.217 1.159-.616 1.561-.389.399-.915.623-1.477.623zm-16.884-18.941l-.987 16.857c.002.04.023.172.131.283.061.062.172.136.325.136h17.415c.123 0 .236-.047.323-.133.093-.094.137-.208.137-.336l-1.025-16.813-2.665.011-.065-.762c-.02-.224-.555-5.516-5.413-5.516-4.8 0-5.236 5.273-5.254 5.498l-.054.777-1.423-.009-1.446.007zm12.87 14.646h-9.716c-.403 0-.785-.159-1.075-.448-.296-.303-.457-.693-.457-1.108l.622-10.629 11.475-.06.128 1.491.549 9.148c.008.456-.153.852-.448 1.153-.278.288-.661.454-1.078.454zm-9.085-10.527l-.521 8.887 9.493-.024-.534-8.907-8.439.044zm7.667-4.092h-6.348l.065-.673c.107-1.139.882-3.289 3.034-3.289 2.125 0 2.989 2.135 3.149 3.262l.1.7zm-4.943-1.227h3.464c-.236-.648-.745-1.507-1.77-1.507-1.038 0-1.496.866-1.694 1.507zm0 0" fill="#3B444F" sketch:type="MSShapeGroup"/><path d="M24.505 189.877h-17.415c-.552 0-1.075-.219-1.475-.621-.397-.402-.615-.938-.615-1.513l1.08-18.462 2.929-.015c.432-2.525 2.222-6.266 6.789-6.266 4.598 0 6.462 3.753 6.936 6.272l2.704-.01.176 2.062.985 16.37c.002.622-.217 1.159-.616 1.561-.389.399-.915.623-1.477.623zm-16.884-18.941l-.987 16.857c.002.04.023.172.131.283.061.062.172.136.325.136h17.415c.123 0 .236-.047.323-.133.093-.094.137-.208.137-.336l-1.025-16.813-2.665.011-.065-.762c-.02-.224-.555-5.516-5.413-5.516-4.8 0-5.236 5.273-5.254 5.498l-.054.777-1.423-.009-1.446.007zm12.87 14.646h-9.716c-.403 0-.785-.159-1.075-.448-.296-.303-.457-.693-.457-1.108l.622-10.629 11.475-.06.128 1.491.549 9.148c.008.456-.153.852-.448 1.153-.278.288-.661.454-1.078.454zm-9.085-10.527l-.521 8.887 9.493-.024-.534-8.907-8.439.044zm7.667-4.092h-6.348l.065-.673c.107-1.139.882-3.289 3.034-3.289 2.125 0 2.989 2.135 3.149 3.262l.1.7zm-4.943-1.227h3.464c-.236-.648-.745-1.507-1.77-1.507-1.038 0-1.496.866-1.694 1.507zm0 0" fill="#FF708E" sketch:type="MSShapeGroup"/></g></svg>