<svg width="32" height="232" xmlns="http://www.w3.org/2000/svg" xmlns:sketch="http://www.bohemiancoding.com/sketch/ns"><title>sight</title><g sketch:type="MSPage" fill="none"><path d="M16 174.748c-1.291 0-2.331 1.01-2.331 2.252 0 1.243 1.04 2.251 2.331 2.251 1.289 0 2.335-1.008 2.335-2.251 0-1.242-1.046-2.252-2.335-2.252m0-6.748c-7.731 0-14 9-14 9s6.269 9 14 9c7.729 0 14-9 14-9s-6.271-9-14-9m0 14.628c-3.22 0-5.833-2.522-5.833-5.628 0-3.106 2.613-5.627 5.833-5.627 3.222 0 5.833 2.521 5.833 5.627s-2.611 5.628-5.833 5.628" fill="#FA5E5B" sketch:type="MSShapeGroup"/><path d="M16 134.748c-1.291 0-2.331 1.01-2.331 2.252 0 1.243 1.04 2.251 2.331 2.251 1.289 0 2.335-1.008 2.335-2.251 0-1.242-1.046-2.252-2.335-2.252m0-6.748c-7.731 0-14 9-14 9s6.269 9 14 9c7.729 0 14-9 14-9s-6.271-9-14-9m0 14.628c-3.22 0-5.833-2.522-5.833-5.628 0-3.106 2.613-5.627 5.833-5.627 3.222 0 5.833 2.521 5.833 5.627s-2.611 5.628-5.833 5.628" fill="#206FAC" sketch:type="MSShapeGroup"/><path d="M16 94.748c-1.291 0-2.331 1.01-2.331 2.252 0 1.243 1.04 2.251 2.331 2.251 1.289 0 2.335-1.008 2.335-2.251 0-1.242-1.046-2.252-2.335-2.252m0-6.748c-7.731 0-14 9-14 9s6.269 9 14 9c7.729 0 14-9 14-9s-6.271-9-14-9m0 14.628c-3.22 0-5.833-2.522-5.833-5.628 0-3.106 2.613-5.627 5.833-5.627 3.222 0 5.833 2.521 5.833 5.627s-2.611 5.628-5.833 5.628" fill="#fff" sketch:type="MSShapeGroup"/><path d="M16 54.748c-1.291 0-2.331 1.01-2.331 2.252 0 1.243 1.04 2.251 2.331 2.251 1.289 0 2.335-1.008 2.335-2.251 0-1.242-1.046-2.252-2.335-2.252m0-6.748c-7.731 0-14 9-14 9s6.269 9 14 9c7.729 0 14-9 14-9s-6.271-9-14-9m0 14.628c-3.22 0-5.833-2.522-5.833-5.628 0-3.106 2.613-5.627 5.833-5.627 3.222 0 5.833 2.521 5.833 5.627s-2.611 5.628-5.833 5.628" fill="#67747C" sketch:type="MSShapeGroup"/><path d="M16 14.748c-1.291 0-2.331 1.01-2.331 2.252 0 1.243 1.04 2.251 2.331 2.251 1.289 0 2.335-1.008 2.335-2.251 0-1.242-1.046-2.252-2.335-2.252m0-6.748c-7.731 0-14 9-14 9s6.269 9 14 9c7.729 0 14-9 14-9s-6.271-9-14-9m0 14.628c-3.22 0-5.833-2.522-5.833-5.628 0-3.106 2.613-5.627 5.833-5.627 3.222 0 5.833 2.521 5.833 5.627s-2.611 5.628-5.833 5.628" fill="#3B444F" sketch:type="MSShapeGroup"/></g></svg>