<?xml version="1.0" encoding="UTF-8" standalone="no"?>
<svg width="32px" height="32px" viewBox="0 0 32 32" version="1.1" xmlns="http://www.w3.org/2000/svg" xmlns:xlink="http://www.w3.org/1999/xlink" xmlns:sketch="http://www.bohemiancoding.com/sketch/ns">
    <title>sight--body-grey</title>
    <description>Created with Sketch (http://www.bohemiancoding.com/sketch)</description>
    <defs></defs>
    <g id="Page-1" stroke="none" stroke-width="1" fill="none" fill-rule="evenodd" sketch:type="MSPage">
        <path d="M16,14.7484977 C14.7085271,14.7484977 13.6686399,15.7580681 13.6686399,17 C13.6686399,18.2429335 14.7085271,19.2505008 16,19.2505008 C17.2894996,19.2505008 18.3353066,18.2429335 18.3353066,17 C18.3353066,15.7580681 17.2894996,14.7484977 16,14.7484977 M16,8 C8.26892178,8 2,17 2,17 C2,17 8.26892178,26 16,26 C23.729105,26 30,17 30,17 C30,17 23.729105,8 16,8 M16,22.6277543 C12.779704,22.6277543 10.16716,20.1058313 10.16716,17 C10.16716,13.8941687 12.779704,11.3732473 16,11.3732473 C19.2222692,11.3732473 21.83284,13.8941687 21.83284,17 C21.83284,20.1058313 19.2222692,22.6277543 16,22.6277543" id="sight--body-grey" fill="#67747C" sketch:type="MSShapeGroup"></path>
    </g>
</svg>