<svg width="22" height="32" xmlns="http://www.w3.org/2000/svg" xmlns:sketch="http://www.bohemiancoding.com/sketch/ns"><title>sight--pin</title><g sketch:type="MSLayerGroup" fill="none"><path d="M15.5 29.984c0 1.105-2.016 2-4.5 2-2.486 0-4.5-.895-4.5-2 0-1.104 2.014-2 4.5-2 2.484 0 4.5.896 4.5 2" fill-opacity=".2" fill="#1D508D" sketch:type="MSShapeGroup"/><path d="M10.999.016c6.078 0 11.001 4.362 11.001 10.919 0 6.408-5.551 9.16-8.505 13.257-2.419 3.346-2.496 5.824-2.496 5.824s-.018-2.491-2.492-5.824c-3.041-4.097-8.507-6.661-8.507-13.257 0-6.559 4.925-10.919 10.999-10.919" fill="#FA5E5B" sketch:type="MSShapeGroup"/><path d="M11.063 9.332c-.666 0-1.201.538-1.201 1.201 0 .661.535 1.198 1.201 1.198.661 0 1.198-.537 1.198-1.198 0-.663-.537-1.201-1.198-1.201m0-3.6c-3.982 0-7.207 4.801-7.207 4.801s3.225 4.798 7.207 4.798c3.977 0 7.202-4.798 7.202-4.798s-3.225-4.801-7.202-4.801m0 7.8c-1.659 0-3.003-1.34-3.003-2.999 0-1.656 1.344-3.002 3.003-3.002 1.655 0 2.998 1.346 2.998 3.002 0 1.659-1.343 2.999-2.998 2.999" fill="#fff" sketch:type="MSShapeGroup"/></g></svg>