<svg width="32" height="232" xmlns="http://www.w3.org/2000/svg" xmlns:sketch="http://www.bohemiancoding.com/sketch/ns"><title>sign-out</title><g sketch:type="MSPage" fill="none"><path d="M16.625 125.192v6.519h2.918v-3.825l7.541-1.189v19.494l-7.541-2.369v-3.928h-2.918v6.12l13.375 3.985v-27l-13.375 2.192zm-7.708 12.632h11.398c1.128 0 2.046-.904 2.046-2.027 0-1.121-.918-2.026-2.046-2.026h-11.288l3.826-3.794c.802-.786.802-2.072 0-2.863-.797-.791-2.094-.791-2.892 0l-7.359 7.293c-.403.399-.601.923-.601 1.444 0 .523.198 1.047.601 1.445l7.359 7.292c.799.79 2.096.79 2.892 0 .802-.79.802-2.076 0-2.863l-3.936-3.902zm0 0" fill="#206FAC" sketch:type="MSShapeGroup"/><path d="M16.625 85.192v6.519h2.918v-3.825l7.541-1.189v19.494l-7.541-2.369v-3.928h-2.918v6.12l13.375 3.985v-27l-13.375 2.192zm-7.708 12.632h11.398c1.128 0 2.046-.904 2.046-2.027 0-1.121-.918-2.026-2.046-2.026h-11.288l3.826-3.794c.802-.786.802-2.072 0-2.863-.797-.791-2.094-.791-2.892 0l-7.359 7.293c-.403.399-.601.923-.601 1.444 0 .523.198 1.047.601 1.445l7.359 7.292c.799.79 2.096.79 2.892 0 .802-.79.802-2.076 0-2.863l-3.936-3.902zm0 0" fill="#fff" sketch:type="MSShapeGroup"/><path d="M16.625 45.192v6.519h2.918v-3.825l7.541-1.189v19.494l-7.541-2.369v-3.928h-2.918v6.12l13.375 3.985v-27l-13.375 2.192zm-7.708 12.632h11.398c1.128 0 2.046-.904 2.046-2.027 0-1.121-.918-2.026-2.046-2.026h-11.288l3.826-3.794c.802-.786.802-2.072 0-2.863-.797-.791-2.094-.791-2.892 0l-7.359 7.293c-.403.399-.601.923-.601 1.444 0 .523.198 1.047.601 1.445l7.359 7.292c.799.79 2.096.79 2.892 0 .802-.79.802-2.076 0-2.863l-3.936-3.902zm0 0" fill="#67737B" sketch:type="MSShapeGroup"/><path d="M16.625 5.192v6.519h2.918v-3.825l7.541-1.189v19.494l-7.541-2.369v-3.928h-2.918v6.12l13.375 3.985v-27l-13.375 2.192zm-7.708 12.632h11.398c1.128 0 2.046-.904 2.046-2.027 0-1.121-.918-2.026-2.046-2.026h-11.288l3.826-3.794c.802-.786.802-2.072 0-2.863-.797-.791-2.094-.791-2.892 0l-7.359 7.293c-.403.399-.601.923-.601 1.444 0 .523.198 1.047.601 1.445l7.359 7.292c.799.79 2.096.79 2.892 0 .802-.79.802-2.076 0-2.863l-3.936-3.902zm0 0" fill="#3A434E" sketch:type="MSShapeGroup"/></g></svg>