<svg width="32" height="232" xmlns="http://www.w3.org/2000/svg" xmlns:sketch="http://www.bohemiancoding.com/sketch/ns"><title>sign-in</title><g sketch:type="MSPage" fill="none"><path d="M16.626 125.192v.841l2.918 2.889v-1.036l7.541-1.189v19.494l-7.541-2.369v-1.14l-2.918 2.891v.441l13.374 3.985v-27l-13.374 2.192zm5.736 10.66c0-.521-.196-1.044-.601-1.444l-7.359-7.293c-.799-.791-2.096-.791-2.892 0-.8.79-.8 2.076 0 2.863l3.826 3.794h-11.289c-1.128 0-2.046.904-2.046 2.026 0 1.122.918 2.027 2.046 2.027h11.401l-3.938 3.902c-.8.786-.8 2.072 0 2.863.797.79 2.094.79 2.892 0l7.359-7.292c.405-.398.601-.922.601-1.445zm0 0" fill="#206FAC" sketch:type="MSShapeGroup"/><path d="M16.626 85.192v.841l2.918 2.889v-1.036l7.541-1.189v19.494l-7.541-2.369v-1.14l-2.918 2.891v.441l13.374 3.985v-27l-13.374 2.192zm5.736 10.66c0-.521-.196-1.044-.601-1.444l-7.359-7.293c-.799-.791-2.096-.791-2.892 0-.8.79-.8 2.076 0 2.863l3.826 3.794h-11.289c-1.128 0-2.046.904-2.046 2.026 0 1.122.918 2.027 2.046 2.027h11.401l-3.938 3.902c-.8.786-.8 2.072 0 2.863.797.79 2.094.79 2.892 0l7.359-7.292c.405-.398.601-.922.601-1.445zm0 0" fill="#fff" sketch:type="MSShapeGroup"/><path d="M16.626 45.192v.841l2.918 2.889v-1.036l7.541-1.189v19.494l-7.541-2.369v-1.14l-2.918 2.891v.441l13.374 3.985v-27l-13.374 2.192zm5.736 10.66c0-.521-.196-1.044-.601-1.444l-7.359-7.293c-.799-.791-2.096-.791-2.892 0-.8.79-.8 2.076 0 2.863l3.826 3.794h-11.289c-1.128 0-2.046.904-2.046 2.026 0 1.122.918 2.027 2.046 2.027h11.401l-3.938 3.902c-.8.786-.8 2.072 0 2.863.797.79 2.094.79 2.892 0l7.359-7.292c.405-.398.601-.922.601-1.445zm0 0" fill="#67737B" sketch:type="MSShapeGroup"/><path d="M16.626 5.192v.841l2.918 2.889v-1.036l7.541-1.189v19.494l-7.541-2.369v-1.14l-2.918 2.891v.441l13.374 3.985v-27l-13.374 2.192zm5.736 10.66c0-.521-.196-1.044-.601-1.444l-7.359-7.293c-.799-.791-2.096-.791-2.892 0-.8.79-.8 2.076 0 2.863l3.826 3.794h-11.289c-1.128 0-2.046.904-2.046 2.026 0 1.122.918 2.027 2.046 2.027h11.401l-3.938 3.902c-.8.786-.8 2.072 0 2.863.797.79 2.094.79 2.892 0l7.359-7.292c.405-.398.601-.922.601-1.445zm0 0" fill="#3A434E" sketch:type="MSShapeGroup"/></g></svg>