<svg width="32" height="232" xmlns="http://www.w3.org/2000/svg" xmlns:sketch="http://www.bohemiancoding.com/sketch/ns"><title>spell-check</title><g sketch:type="MSPage" fill="none"><path d="M20.135 132.43c.913 0 1.786-.191 2.317-.516l-.313-1.588c-.491.299-1.036.477-1.675.477-.981 0-1.623-.625-1.623-1.75 0-1.02.559-1.725 1.568-1.725.559 0 1.171.204 1.675.488l.41-1.573c-.572-.326-1.418-.531-2.303-.531-2.126 0-3.489 1.317-3.489 3.407 0 2.143 1.336 3.311 3.434 3.311zm-7.426-.014c1.716 0 3.175-1.329 3.175-3.418 0-2.009-1.132-3.286-2.698-3.286-.804 0-1.389.45-1.786.857v-3.569l-2.099.258v9.172l1.975-.271c.41.15 1.008.257 1.432.257zm-1.309-4.6c.286-.258.601-.433 1.064-.433.857 0 1.322.637 1.322 1.723 0 1.045-.517 1.75-1.418 1.75-.396 0-.722-.096-.967-.258v-2.782zm-9.401 2.864c0 .977.846 1.75 1.934 1.75.873 0 1.377-.434 1.826-.963h.041c.286.692.967 1.057 2.344.881l.204-1.492c-.435-.041-.517-.081-.517-.516l.015-1.873c.026-1.763-.698-2.755-2.889-2.755-1.2 0-2.252.396-2.918.747l.437 1.534c.736-.366 1.499-.637 2.154-.637.774 0 1.116.297 1.116.963v.121c-2.848.084-3.746 1.047-3.746 2.24zm3.746-.055c-.217.245-.558.42-.98.42-.463 0-.79-.27-.79-.676 0-.558.476-.802 1.771-.953v1.209zm21.437-.625l-14.45 14.387-7.753-7.721-2.819 2.808 10.572 10.526 17.267-17.195-2.817-2.805zm0 0" fill="#206FAC" sketch:type="MSShapeGroup"/><path d="M20.135 92.43c.913 0 1.786-.191 2.317-.516l-.313-1.588c-.491.299-1.036.477-1.675.477-.981 0-1.623-.625-1.623-1.75 0-1.02.559-1.725 1.568-1.725.559 0 1.171.204 1.675.488l.41-1.573c-.572-.326-1.418-.531-2.303-.531-2.126 0-3.489 1.317-3.489 3.407 0 2.143 1.336 3.311 3.434 3.311zm-7.426-.014c1.716 0 3.175-1.329 3.175-3.418 0-2.009-1.132-3.286-2.698-3.286-.804 0-1.389.45-1.786.857v-3.569l-2.099.258v9.172l1.975-.271c.41.15 1.008.257 1.432.257zm-1.309-4.6c.286-.258.601-.433 1.064-.433.857 0 1.322.637 1.322 1.723 0 1.045-.517 1.75-1.418 1.75-.396 0-.722-.096-.967-.258v-2.782zm-9.401 2.864c0 .977.846 1.75 1.934 1.75.873 0 1.377-.434 1.826-.963h.041c.286.692.967 1.057 2.344.881l.204-1.492c-.435-.041-.517-.081-.517-.516l.015-1.873c.026-1.763-.698-2.755-2.889-2.755-1.2 0-2.252.396-2.918.747l.437 1.534c.736-.366 1.499-.637 2.154-.637.774 0 1.116.297 1.116.963v.121c-2.848.084-3.746 1.047-3.746 2.24zm3.746-.055c-.217.245-.558.42-.98.42-.463 0-.79-.27-.79-.676 0-.558.476-.802 1.771-.953v1.209zm21.437-.625l-14.45 14.387-7.753-7.721-2.819 2.808 10.572 10.526 17.267-17.195-2.817-2.805zm0 0" fill="#fff" sketch:type="MSShapeGroup"/><path d="M20.135 52.43c.913 0 1.786-.191 2.317-.516l-.313-1.588c-.491.299-1.036.477-1.675.477-.981 0-1.623-.625-1.623-1.75 0-1.02.559-1.725 1.568-1.725.559 0 1.171.204 1.675.488l.41-1.573c-.572-.326-1.418-.531-2.303-.531-2.126 0-3.489 1.317-3.489 3.407 0 2.143 1.336 3.311 3.434 3.311zm-7.426-.014c1.716 0 3.175-1.329 3.175-3.418 0-2.009-1.132-3.286-2.698-3.286-.804 0-1.389.45-1.786.857v-3.569l-2.099.258v9.172l1.975-.271c.41.15 1.008.257 1.432.257zm-1.309-4.6c.286-.258.601-.433 1.064-.433.857 0 1.322.637 1.322 1.723 0 1.045-.517 1.75-1.418 1.75-.396 0-.722-.096-.967-.258v-2.782zm-9.401 2.864c0 .977.846 1.75 1.934 1.75.873 0 1.377-.434 1.826-.963h.041c.286.692.967 1.057 2.344.881l.204-1.492c-.435-.041-.517-.081-.517-.516l.015-1.873c.026-1.763-.698-2.755-2.889-2.755-1.2 0-2.252.396-2.918.747l.437 1.534c.736-.366 1.499-.637 2.154-.637.774 0 1.116.297 1.116.963v.121c-2.848.084-3.746 1.047-3.746 2.24zm3.746-.055c-.217.245-.558.42-.98.42-.463 0-.79-.27-.79-.676 0-.558.476-.802 1.771-.953v1.209zm21.437-.625l-14.45 14.387-7.753-7.721-2.819 2.808 10.572 10.526 17.267-17.195-2.817-2.805zm0 0" fill="#67737B" sketch:type="MSShapeGroup"/><path d="M20.135 12.43c.913 0 1.786-.191 2.317-.516l-.313-1.588c-.491.299-1.036.477-1.675.477-.981 0-1.623-.625-1.623-1.75 0-1.02.559-1.725 1.568-1.725.559 0 1.171.204 1.675.488l.41-1.573c-.572-.326-1.418-.531-2.303-.531-2.126 0-3.489 1.317-3.489 3.407 0 2.143 1.336 3.311 3.434 3.311zm-7.426-.014c1.716 0 3.175-1.329 3.175-3.418 0-2.009-1.132-3.286-2.698-3.286-.804 0-1.389.45-1.786.857v-3.569l-2.099.258v9.172l1.975-.271c.41.15 1.008.257 1.432.257zm-1.309-4.6c.286-.258.601-.433 1.064-.433.857 0 1.322.637 1.322 1.723 0 1.045-.517 1.75-1.418 1.75-.396 0-.722-.096-.967-.258v-2.782zm-9.401 2.864c0 .977.846 1.75 1.934 1.75.873 0 1.377-.434 1.826-.963h.041c.286.692.967 1.057 2.344.881l.204-1.492c-.435-.041-.517-.081-.517-.516l.015-1.873c.026-1.763-.698-2.755-2.889-2.755-1.2 0-2.252.396-2.918.747l.437 1.534c.736-.366 1.499-.637 2.154-.637.774 0 1.116.297 1.116.963v.121c-2.848.084-3.746 1.047-3.746 2.24zm3.746-.055c-.217.245-.558.42-.98.42-.463 0-.79-.27-.79-.676 0-.558.476-.802 1.771-.953v1.209zm21.437-.625l-14.45 14.387-7.753-7.721-2.819 2.808 10.572 10.526 17.267-17.195-2.817-2.805zm0 0" fill="#3A434E" sketch:type="MSShapeGroup"/></g></svg>