<svg width="32" height="232" viewBox="0 0 32 232" xmlns="http://www.w3.org/2000/svg" xmlns:sketch="http://www.bohemiancoding.com/sketch/ns"><title>stumbleupon</title><g sketch:type="MSPage" fill="none"><path d="M17.164 13.792l1.503.7 2.241-.668v-1.556c-.08-2.645-2.243-4.768-4.908-4.768-2.656 0-4.814 2.107-4.908 4.74v7.103c0 .643-.521 1.164-1.164 1.164-.643 0-1.165-.521-1.165-1.164v-3.011h-3.763v3.051c0 2.716 2.201 4.918 4.917 4.918 2.693 0 4.875-2.164 4.913-4.847l.006-7.016c0-.643.521-1.164 1.164-1.164.643 0 1.164.521 1.164 1.164v1.354zm6.072 2.54v3.151c0 .643-.521 1.164-1.164 1.164-.643 0-1.164-.521-1.164-1.164v-3.09l-2.241.668-1.503-.7v3.066c.023 2.695 2.216 4.874 4.918 4.874 2.716 0 4.918-2.202 4.918-4.918v-3.051h-3.764z" fill="#3B444F" sketch:type="MSShapeGroup"/><path d="M17.164 53.792l1.503.7 2.241-.668v-1.556c-.08-2.645-2.243-4.768-4.908-4.768-2.656 0-4.814 2.107-4.908 4.74v7.103c0 .643-.521 1.164-1.164 1.164-.643 0-1.165-.521-1.165-1.164v-3.011h-3.763v3.051c0 2.716 2.201 4.918 4.917 4.918 2.693 0 4.875-2.164 4.913-4.847l.006-7.016c0-.643.521-1.164 1.164-1.164.643 0 1.164.521 1.164 1.164v1.354zm6.072 2.54v3.151c0 .643-.521 1.164-1.164 1.164-.643 0-1.164-.521-1.164-1.164v-3.09l-2.241.668-1.503-.7v3.066c.023 2.695 2.216 4.874 4.918 4.874 2.716 0 4.918-2.202 4.918-4.918v-3.051h-3.764z" fill="#67737B" sketch:type="MSShapeGroup"/><path d="M17.164 93.792l1.503.7 2.241-.668v-1.556c-.08-2.645-2.243-4.768-4.908-4.768-2.656 0-4.814 2.107-4.908 4.74v7.103c0 .643-.521 1.164-1.164 1.164-.643 0-1.165-.521-1.165-1.164v-3.011h-3.763v3.051c0 2.716 2.201 4.918 4.917 4.918 2.693 0 4.875-2.164 4.913-4.847l.006-7.016c0-.643.521-1.164 1.164-1.164.643 0 1.164.521 1.164 1.164v1.354zm6.072 2.54v3.151c0 .643-.521 1.164-1.164 1.164-.643 0-1.164-.521-1.164-1.164v-3.09l-2.241.668-1.503-.7v3.066c.023 2.695 2.216 4.874 4.918 4.874 2.716 0 4.918-2.202 4.918-4.918v-3.051h-3.764z" fill="#fff" sketch:type="MSShapeGroup"/><path d="M17.164 133.792l1.503.7 2.241-.668v-1.556c-.08-2.645-2.243-4.768-4.908-4.768-2.656 0-4.814 2.107-4.908 4.74v7.103c0 .643-.521 1.164-1.164 1.164-.643 0-1.165-.521-1.165-1.164v-3.011h-3.763v3.051c0 2.716 2.201 4.918 4.917 4.918 2.693 0 4.875-2.164 4.913-4.847l.006-7.016c0-.643.521-1.164 1.164-1.164.643 0 1.164.521 1.164 1.164v1.354zm6.072 2.54v3.151c0 .643-.521 1.164-1.164 1.164-.643 0-1.164-.521-1.164-1.164v-3.09l-2.241.668-1.503-.7v3.066c.023 2.695 2.216 4.874 4.918 4.874 2.716 0 4.918-2.202 4.918-4.918v-3.051h-3.764z" fill="#206FAC" sketch:type="MSShapeGroup"/><path d="M17.164 173.792l1.503.7 2.241-.668v-1.556c-.08-2.645-2.243-4.768-4.908-4.768-2.656 0-4.814 2.107-4.908 4.74v7.103c0 .643-.521 1.164-1.164 1.164-.643 0-1.165-.521-1.165-1.164v-3.011h-3.763v3.051c0 2.716 2.201 4.918 4.917 4.918 2.693 0 4.875-2.164 4.913-4.847l.006-7.016c0-.643.521-1.164 1.164-1.164.643 0 1.164.521 1.164 1.164v1.354zm6.072 2.54v3.151c0 .643-.521 1.164-1.164 1.164-.643 0-1.164-.521-1.164-1.164v-3.09l-2.241.668-1.503-.7v3.066c.023 2.695 2.216 4.874 4.918 4.874 2.716 0 4.918-2.202 4.918-4.918v-3.051h-3.764z" fill="#E64011" sketch:type="MSShapeGroup"/></g></svg>