<svg width="32" height="232" xmlns="http://www.w3.org/2000/svg" xmlns:sketch="http://www.bohemiancoding.com/sketch/ns"><title>subway</title><g sketch:type="MSPage" fill="none"><path d="M13.552 131.188c0-1.176 1.058-1.945 2.604-1.945 2.433 0 3.035.908 4.865.908 1.517 0 2.538-1.077 2.538-2.549 0-2.088-2.538-3.602-7.119-3.602-4.757 0-9.015 2.452-9.015 7.662 0 4.338 3.062 5.543 6.023 6.452 3.243 1.011 5.423 1.378 5.423 3.191 0 1.182-.808 2.252-3.027 2.252-2.925 0-4.758-1.375-6.166-1.375-1.727 0-2.677 1.408-2.677 2.893 0 2.685 5.072 3.925 8.417 3.925 5.322 0 9.583-2.484 9.583-7.998 0-4.533-2.994-6.047-6.093-7.021-3.947-1.244-5.356-1.407-5.356-2.793zm0 0" fill="#206FAC" sketch:type="MSShapeGroup"/><path d="M13.552 91.188c0-1.176 1.058-1.945 2.604-1.945 2.433 0 3.035.908 4.865.908 1.517 0 2.538-1.077 2.538-2.549 0-2.088-2.538-3.602-7.119-3.602-4.757 0-9.015 2.452-9.015 7.662 0 4.338 3.062 5.543 6.023 6.452 3.243 1.011 5.423 1.378 5.423 3.191 0 1.182-.808 2.252-3.027 2.252-2.925 0-4.758-1.375-6.166-1.375-1.727 0-2.677 1.408-2.677 2.893 0 2.685 5.072 3.925 8.417 3.925 5.322 0 9.583-2.484 9.583-7.998 0-4.533-2.994-6.047-6.093-7.021-3.947-1.244-5.356-1.407-5.356-2.793zm0 0" fill="#fff" sketch:type="MSShapeGroup"/><path d="M13.552 51.188c0-1.176 1.058-1.945 2.604-1.945 2.433 0 3.035.908 4.865.908 1.517 0 2.538-1.077 2.538-2.549 0-2.088-2.538-3.602-7.119-3.602-4.757 0-9.015 2.452-9.015 7.662 0 4.338 3.062 5.543 6.023 6.452 3.243 1.011 5.423 1.378 5.423 3.191 0 1.182-.808 2.252-3.027 2.252-2.925 0-4.758-1.375-6.166-1.375-1.727 0-2.677 1.408-2.677 2.893 0 2.685 5.072 3.925 8.417 3.925 5.322 0 9.583-2.484 9.583-7.998 0-4.533-2.994-6.047-6.093-7.021-3.947-1.244-5.356-1.407-5.356-2.793zm0 0" fill="#67737B" sketch:type="MSShapeGroup"/><path d="M13.552 11.188c0-1.176 1.058-1.945 2.604-1.945 2.433 0 3.035.908 4.865.908 1.517 0 2.538-1.077 2.538-2.549 0-2.088-2.538-3.602-7.119-3.602-4.757 0-9.015 2.452-9.015 7.662 0 4.338 3.062 5.543 6.023 6.452 3.243 1.011 5.423 1.378 5.423 3.191 0 1.182-.808 2.252-3.027 2.252-2.925 0-4.758-1.375-6.166-1.375-1.727 0-2.677 1.408-2.677 2.893 0 2.685 5.072 3.925 8.417 3.925 5.322 0 9.583-2.484 9.583-7.998 0-4.533-2.994-6.047-6.093-7.021-3.947-1.244-5.356-1.407-5.356-2.793zm0 0" fill="#3A434E" sketch:type="MSShapeGroup"/></g></svg>