<svg width="32" height="232" xmlns="http://www.w3.org/2000/svg" xmlns:sketch="http://www.bohemiancoding.com/sketch/ns"><title>swimming-pool</title><g sketch:type="MSPage" fill="none"><path d="M6.139 136.755c.151-.091.382-.247.79-.519l4.093-2.771c.179-.119.525-.09.679.053l.984.918c.038.026.073.078.071.135l-.084.132-4.482 3.369c-.361.277-.568.668-.564 1.082.004.413.219.804.591 1.069l2.291 1.645c.223.16.533.16.756.004 1.095-.774 2.408-1.163 3.908-1.163 2.61 0 4.91 1.188 4.929 1.193.267.147.589.215.921.215.526 0 1.033-.177 1.384-.492l1.594-1.423c.323-.286.508-.692.501-1.107-.002-.419-.195-.815-.529-1.102l-10.58-9.033c-.603-.515-1.656-.576-2.317-.143l-6.936 4.611c-.165.072-.322.175-.486.318-.792.729-.859 1.963-.153 2.756.647.729 1.842.839 2.638.253zm17.278-9.755c-2.107 0-3.822 1.717-3.822 3.853s1.715 3.86 3.822 3.86c2.12 0 3.836-1.724 3.836-3.86s-1.716-3.853-3.836-3.853zm-19.247 19.836l.06-.014c.913-.275 2.592.028 3.208.549 1.403 1.209 2.337 1.764 4.168 1.321 1.059-.25 1.794-.875 2.341-1.337l.418-.344c.384-.285.83-.415 1.399-.415l.209.004c.442.01.932.39 1.533.847.739.575 1.658 1.29 3.004 1.514l.158.012.43.027c1.46 0 2.532-.824 3.394-1.493l.053-.052c.844-.663 1.278-.789 1.788-.789l.245.007c.14.007.639.038 1.221.223.113.026.278.07.48.07.953 0 1.721-.765 1.721-1.712 0-.709-.451-1.351-1.115-1.59l-.067-.024c-.773-.257-1.523-.355-2.021-.388-1.97-.15-3.334.69-4.381 1.511l-.101.083c-.514.408-.927.726-1.299.726h-.008c-.415-.068-.868-.421-1.393-.83-.868-.674-1.955-1.516-3.514-1.572l-.28-.003c-1.378 0-2.533.361-3.521 1.112l-.418.329-.164.134c-.324.278-.652.563-.897.624-.472.117-1.121-.165-1.852-.782-1.519-1.286-3.634-1.672-5.733-1.039l-.088.033c-.692.247-1.147.882-1.147 1.611 0 1.098.979 2.011 2.17 1.647zm0 0" fill="#206FAC" sketch:type="MSShapeGroup"/><path d="M6.139 96.755c.151-.091.382-.247.79-.519l4.093-2.771c.179-.119.525-.09.679.053l.984.918c.038.026.073.078.071.135l-.084.132-4.482 3.369c-.361.277-.568.668-.564 1.082.004.413.219.804.591 1.069l2.291 1.645c.223.16.533.16.756.004 1.095-.774 2.408-1.163 3.908-1.163 2.61 0 4.91 1.188 4.929 1.193.267.147.589.215.921.215.526 0 1.033-.177 1.384-.492l1.594-1.423c.323-.286.508-.692.501-1.107-.002-.419-.195-.815-.529-1.102l-10.58-9.033c-.603-.515-1.656-.576-2.317-.143l-6.936 4.611c-.165.072-.322.175-.486.318-.792.729-.859 1.963-.153 2.756.647.729 1.842.839 2.638.253zm17.278-9.755c-2.107 0-3.822 1.717-3.822 3.853s1.715 3.86 3.822 3.86c2.12 0 3.836-1.724 3.836-3.86s-1.716-3.853-3.836-3.853zm-19.247 19.836l.06-.014c.913-.275 2.592.028 3.208.549 1.403 1.209 2.337 1.764 4.168 1.321 1.059-.25 1.794-.875 2.341-1.337l.418-.344c.384-.285.83-.415 1.399-.415l.209.004c.442.01.932.39 1.533.847.739.575 1.658 1.29 3.004 1.514l.158.012.43.027c1.46 0 2.532-.824 3.394-1.493l.053-.052c.844-.663 1.278-.789 1.788-.789l.245.007c.14.007.639.038 1.221.223.113.026.278.07.48.07.953 0 1.721-.765 1.721-1.712 0-.709-.451-1.351-1.115-1.59l-.067-.024c-.773-.257-1.523-.355-2.021-.388-1.97-.15-3.334.69-4.381 1.511l-.101.083c-.514.408-.927.726-1.299.726h-.008c-.415-.068-.868-.421-1.393-.83-.868-.674-1.955-1.516-3.514-1.572l-.28-.003c-1.378 0-2.533.361-3.521 1.112l-.418.329-.164.134c-.324.278-.652.563-.897.624-.472.117-1.121-.165-1.852-.782-1.519-1.286-3.634-1.672-5.733-1.039l-.088.033c-.692.247-1.147.882-1.147 1.611 0 1.098.979 2.011 2.17 1.647zm0 0" fill="#fff" sketch:type="MSShapeGroup"/><path d="M6.139 56.755c.151-.091.382-.247.79-.519l4.093-2.771c.179-.119.525-.09.679.053l.984.918c.038.026.073.078.071.135l-.084.132-4.482 3.369c-.361.277-.568.668-.564 1.082.004.413.219.804.591 1.069l2.291 1.645c.223.16.533.16.756.004 1.095-.774 2.408-1.163 3.908-1.163 2.61 0 4.91 1.188 4.929 1.193.267.147.589.215.921.215.526 0 1.033-.177 1.384-.492l1.594-1.423c.323-.286.508-.692.501-1.107-.002-.419-.195-.815-.529-1.102l-10.58-9.033c-.603-.515-1.656-.576-2.317-.143l-6.936 4.611c-.165.072-.322.175-.486.318-.792.729-.859 1.963-.153 2.756.647.729 1.842.839 2.638.253zm17.278-9.755c-2.107 0-3.822 1.717-3.822 3.853s1.715 3.86 3.822 3.86c2.12 0 3.836-1.724 3.836-3.86s-1.716-3.853-3.836-3.853zm-19.247 19.836l.06-.014c.913-.275 2.592.028 3.208.549 1.403 1.209 2.337 1.764 4.168 1.321 1.059-.25 1.794-.875 2.341-1.337l.418-.344c.384-.285.83-.415 1.399-.415l.209.004c.442.01.932.39 1.533.847.739.575 1.658 1.29 3.004 1.514l.158.012.43.027c1.46 0 2.532-.824 3.394-1.493l.053-.052c.844-.663 1.278-.789 1.788-.789l.245.007c.14.007.639.038 1.221.223.113.026.278.07.48.07.953 0 1.721-.765 1.721-1.712 0-.709-.451-1.351-1.115-1.59l-.067-.024c-.773-.257-1.523-.355-2.021-.388-1.97-.15-3.334.69-4.381 1.511l-.101.083c-.514.408-.927.726-1.299.726h-.008c-.415-.068-.868-.421-1.393-.83-.868-.674-1.955-1.516-3.514-1.572l-.28-.003c-1.378 0-2.533.361-3.521 1.112l-.418.329-.164.134c-.324.278-.652.563-.897.624-.472.117-1.121-.165-1.852-.782-1.519-1.286-3.634-1.672-5.733-1.039l-.088.033c-.692.247-1.147.882-1.147 1.611 0 1.098.979 2.011 2.17 1.647zm0 0" fill="#67737B" sketch:type="MSShapeGroup"/><path d="M6.139 16.755c.151-.091.382-.247.79-.519l4.093-2.771c.179-.119.525-.09.679.053l.984.918c.038.026.073.078.071.135l-.084.132-4.482 3.369c-.361.277-.568.668-.564 1.082.004.413.219.804.591 1.069l2.291 1.645c.223.16.533.16.756.004 1.095-.774 2.408-1.163 3.908-1.163 2.61 0 4.91 1.188 4.929 1.193.267.147.589.215.921.215.526 0 1.033-.177 1.384-.492l1.594-1.423c.323-.286.508-.692.501-1.107-.002-.419-.195-.815-.529-1.102l-10.58-9.033c-.603-.515-1.656-.576-2.317-.143l-6.936 4.611c-.165.072-.322.175-.486.318-.792.729-.859 1.963-.153 2.756.647.729 1.842.839 2.638.253zm17.278-9.755c-2.107 0-3.822 1.717-3.822 3.853s1.715 3.86 3.822 3.86c2.12 0 3.836-1.724 3.836-3.86s-1.716-3.853-3.836-3.853zm-19.247 19.836l.06-.014c.913-.275 2.592.028 3.208.549 1.403 1.209 2.337 1.764 4.168 1.321 1.059-.25 1.794-.875 2.341-1.337l.418-.344c.384-.285.83-.415 1.399-.415l.209.004c.442.01.932.39 1.533.847.739.575 1.658 1.29 3.004 1.514l.158.012.43.027c1.46 0 2.532-.824 3.394-1.493l.053-.052c.844-.663 1.278-.789 1.788-.789l.245.007c.14.007.639.038 1.221.223.113.026.278.07.48.07.953 0 1.721-.765 1.721-1.712 0-.709-.451-1.351-1.115-1.59l-.067-.024c-.773-.257-1.523-.355-2.021-.388-1.97-.15-3.334.69-4.381 1.511l-.101.083c-.514.408-.927.726-1.299.726h-.008c-.415-.068-.868-.421-1.393-.83-.868-.674-1.955-1.516-3.514-1.572l-.28-.003c-1.378 0-2.533.361-3.521 1.112l-.418.329-.164.134c-.324.278-.652.563-.897.624-.472.117-1.121-.165-1.852-.782-1.519-1.286-3.634-1.672-5.733-1.039l-.088.033c-.692.247-1.147.882-1.147 1.611 0 1.098.979 2.011 2.17 1.647zm0 0" fill="#3A434E" sketch:type="MSShapeGroup"/></g></svg>