<svg width="32" height="232" xmlns="http://www.w3.org/2000/svg" xmlns:sketch="http://www.bohemiancoding.com/sketch/ns"><title>tag</title><g sketch:type="MSPage" fill="none"><path d="M28.456 135.129c.028-.152.045-.31.045-.469v-8.063c0-1.427-1.17-2.597-2.597-2.597h-8.063c-.16 0-.316.016-.469.045-.683-.015-1.373.237-1.89.755l-11.225 11.226c-1.01 1.008-1.01 2.661 0 3.67l8.547 8.547c1.01 1.01 2.662 1.01 3.672 0l11.225-11.223c.517-.519.769-1.207.755-1.891zm-7.964-3.119c-1.098-1.097-1.098-2.875 0-3.972 1.095-1.098 2.875-1.098 3.97 0 1.098 1.097 1.098 2.875 0 3.972-1.095 1.098-2.875 1.098-3.97 0zm0 0" fill="#206FAC" sketch:type="MSShapeGroup"/><path d="M28.456 95.129c.028-.152.045-.31.045-.469v-8.063c0-1.427-1.17-2.597-2.597-2.597h-8.063c-.16 0-.316.016-.469.045-.683-.015-1.373.237-1.89.755l-11.225 11.226c-1.01 1.008-1.01 2.661 0 3.67l8.547 8.547c1.01 1.01 2.662 1.01 3.672 0l11.225-11.223c.517-.519.769-1.207.755-1.891zm-7.964-3.119c-1.098-1.097-1.098-2.875 0-3.972 1.095-1.098 2.875-1.098 3.97 0 1.098 1.097 1.098 2.875 0 3.972-1.095 1.098-2.875 1.098-3.97 0zm0 0" fill="#fff" sketch:type="MSShapeGroup"/><path d="M28.456 55.129c.028-.152.045-.31.045-.469v-8.063c0-1.427-1.17-2.597-2.597-2.597h-8.063c-.16 0-.316.016-.469.045-.683-.015-1.373.237-1.89.755l-11.225 11.226c-1.01 1.008-1.01 2.661 0 3.67l8.547 8.547c1.01 1.01 2.662 1.01 3.672 0l11.225-11.223c.517-.519.769-1.207.755-1.891zm-7.964-3.119c-1.098-1.097-1.098-2.875 0-3.972 1.095-1.098 2.875-1.098 3.97 0 1.098 1.097 1.098 2.875 0 3.972-1.095 1.098-2.875 1.098-3.97 0zm0 0" fill="#67737B" sketch:type="MSShapeGroup"/><path d="M28.456 15.129c.028-.152.045-.31.045-.469v-8.063c0-1.427-1.17-2.597-2.597-2.597h-8.063c-.16 0-.316.016-.469.045-.683-.015-1.373.237-1.89.755l-11.225 11.226c-1.01 1.008-1.01 2.661 0 3.67l8.547 8.547c1.01 1.01 2.662 1.01 3.672 0l11.225-11.223c.517-.519.769-1.207.755-1.891zm-7.964-3.119c-1.098-1.097-1.098-2.875 0-3.972 1.095-1.098 2.875-1.098 3.97 0 1.098 1.097 1.098 2.875 0 3.972-1.095 1.098-2.875 1.098-3.97 0zm0 0" fill="#3A434E" sketch:type="MSShapeGroup"/></g></svg>