<svg width="32" height="232" xmlns="http://www.w3.org/2000/svg" xmlns:sketch="http://www.bohemiancoding.com/sketch/ns"><title>tapered-arrow-down</title><g sketch:type="MSPage" fill="none"><path d="M15.997 183s-3.822-11-12.5-11h25c-7.986 0-12.5 11-12.5 11zm0 0" fill="#15C98D" sketch:type="MSShapeGroup"/><path d="M15.997 143s-3.822-11-12.5-11h25c-7.986 0-12.5 11-12.5 11zm0 0" fill="#206FAC" sketch:type="MSShapeGroup"/><path d="M15.997 103s-3.822-11-12.5-11h25c-7.986 0-12.5 11-12.5 11zm0 0" fill="#fff" sketch:type="MSShapeGroup"/><path d="M15.997 63s-3.822-11-12.5-11h25c-7.986 0-12.5 11-12.5 11zm0 0" fill="#67737B" sketch:type="MSShapeGroup"/><path d="M15.997 23s-3.822-11-12.5-11h25c-7.986 0-12.5 11-12.5 11zm0 0" fill="#3A434E" sketch:type="MSShapeGroup"/></g></svg>