<svg width="32" height="232" viewBox="0 0 32 232" xmlns="http://www.w3.org/2000/svg"><title>taxi</title><g fill="none"><path d="M28.5 145.074v-6.901c0-.613-.207-1.124-.615-1.541-.412-.411-.91-.617-1.496-.617h-.492l-2.004-5.626c-.188-.496-.428-.92-.719-1.274-.295-.354-.688-.532-1.18-.532h-2.672v-1.98c0-.163-.053-.307-.158-.427-.105-.114-.24-.175-.404-.175h-5.522c-.162 0-.297.061-.402.175-.108.12-.158.264-.158.427v1.98h-2.813c-.494 0-.887.186-1.18.553-.292.364-.533.782-.72 1.254l-2.002 5.626h-.316c-.612 0-1.122.206-1.532.617-.41.417-.615.928-.615 1.541v6.901h1.83c-.023.284-.023.55 0 .792.023.251.033.433.033.553v.14c0 .686.246 1.264.739 1.734.494.471 1.078.708 1.757.708.682 0 1.266-.237 1.76-.708.49-.47.738-1.048.738-1.734v-.14l.016-.409c.012-.153.02-.334.02-.547v-.39h11.039c.023.329.035.624.035.883v.602c0 .686.24 1.264.72 1.734.481.471 1.061.708 1.741.708.703 0 1.297-.237 1.775-.708.481-.47.721-1.048.721-1.734v-.14c0-.12.013-.302.037-.553.023-.243.033-.508.033-.792h2.006zm-20.606-6.334c.541 0 1.008.191 1.409.585.398.387.595.865.595 1.432 0 .541-.197 1.013-.595 1.414-.401.401-.868.599-1.409.599-.56 0-1.035-.198-1.423-.599-.387-.402-.58-.873-.58-1.414 0-.568.193-1.045.58-1.432.388-.394.863-.585 1.423-.585zm15.19-3.009h-13.992l1.511-4.67h10.969l1.512 4.67zm.738 3.009c.539 0 1.01.191 1.408.585.397.387.596.865.596 1.432 0 .541-.199 1.013-.596 1.414-.398.401-.869.599-1.408.599-.562 0-1.037-.198-1.424-.599-.386-.402-.58-.873-.58-1.414 0-.568.194-1.045.58-1.432.387-.394.862-.585 1.424-.585zm0 0" fill="#206FAC"/><path d="M28.5 105.074v-6.901c0-.613-.207-1.124-.615-1.541-.412-.411-.91-.617-1.496-.617h-.492l-2.004-5.626c-.188-.496-.428-.92-.719-1.274-.295-.354-.688-.532-1.18-.532h-2.672v-1.98c0-.163-.053-.307-.158-.427-.105-.114-.24-.175-.404-.175h-5.522c-.162 0-.297.061-.402.175-.108.12-.158.264-.158.427v1.98h-2.813c-.494 0-.887.186-1.18.553-.292.364-.533.782-.72 1.254l-2.002 5.626h-.316c-.612 0-1.122.206-1.532.617-.41.417-.615.928-.615 1.541v6.901h1.83c-.023.284-.023.55 0 .792.023.251.033.433.033.553v.14c0 .686.246 1.264.739 1.734.494.471 1.078.708 1.757.708.682 0 1.266-.237 1.76-.708.49-.47.738-1.048.738-1.734v-.14l.016-.409c.012-.153.02-.334.02-.547v-.39h11.039c.023.329.035.624.035.883v.602c0 .686.24 1.264.72 1.734.481.471 1.061.708 1.741.708.703 0 1.297-.237 1.775-.708.481-.47.721-1.048.721-1.734v-.14c0-.12.013-.302.037-.553.023-.243.033-.508.033-.792h2.006zm-20.606-6.334c.541 0 1.008.191 1.409.585.398.387.595.865.595 1.432 0 .541-.197 1.013-.595 1.414-.401.401-.868.599-1.409.599-.56 0-1.035-.198-1.423-.599-.387-.402-.58-.873-.58-1.414 0-.568.193-1.045.58-1.432.388-.394.863-.585 1.423-.585zm15.19-3.009h-13.992l1.511-4.67h10.969l1.512 4.67zm.738 3.009c.539 0 1.01.191 1.408.585.397.387.596.865.596 1.432 0 .541-.199 1.013-.596 1.414-.398.401-.869.599-1.408.599-.562 0-1.037-.198-1.424-.599-.386-.402-.58-.873-.58-1.414 0-.568.194-1.045.58-1.432.387-.394.862-.585 1.424-.585zm0 0" fill="#fff"/><path d="M28.5 65.074v-6.901c0-.613-.207-1.124-.615-1.541-.412-.411-.91-.617-1.496-.617h-.492l-2.004-5.626c-.188-.496-.428-.92-.719-1.274-.295-.354-.688-.532-1.18-.532h-2.672v-1.98c0-.163-.053-.307-.158-.427-.105-.114-.24-.175-.404-.175h-5.522c-.162 0-.297.061-.402.175-.108.12-.158.264-.158.427v1.98h-2.813c-.494 0-.887.186-1.18.553-.292.364-.533.782-.72 1.254l-2.002 5.626h-.316c-.612 0-1.122.206-1.532.617-.41.417-.615.928-.615 1.541v6.901h1.83c-.023.284-.023.55 0 .792.023.251.033.433.033.553v.14c0 .686.246 1.264.739 1.734.494.471 1.078.708 1.757.708.682 0 1.266-.237 1.76-.708.49-.47.738-1.048.738-1.734v-.14l.016-.409c.012-.153.02-.334.02-.547v-.39h11.039c.023.329.035.624.035.883v.602c0 .686.24 1.264.72 1.734.481.471 1.061.708 1.741.708.703 0 1.297-.237 1.775-.708.481-.47.721-1.048.721-1.734v-.14c0-.12.013-.302.037-.553.023-.243.033-.508.033-.792h2.006zm-20.606-6.334c.541 0 1.008.191 1.409.585.398.387.595.865.595 1.432 0 .541-.197 1.013-.595 1.414-.401.401-.868.599-1.409.599-.56 0-1.035-.198-1.423-.599-.387-.402-.58-.873-.58-1.414 0-.568.193-1.045.58-1.432.388-.394.863-.585 1.423-.585zm15.19-3.009h-13.992l1.511-4.67h10.969l1.512 4.67zm.738 3.009c.539 0 1.01.191 1.408.585.397.387.596.865.596 1.432 0 .541-.199 1.013-.596 1.414-.398.401-.869.599-1.408.599-.562 0-1.037-.198-1.424-.599-.386-.402-.58-.873-.58-1.414 0-.568.194-1.045.58-1.432.387-.394.862-.585 1.424-.585zm0 0" fill="#67737B"/><path d="M28.5 25.074v-6.901c0-.613-.207-1.124-.615-1.541-.412-.411-.91-.617-1.496-.617h-.492l-2.004-5.626c-.188-.496-.428-.92-.719-1.274-.295-.354-.688-.532-1.18-.532h-2.672v-1.98c0-.163-.053-.307-.158-.427-.105-.114-.24-.175-.404-.175h-5.522c-.162 0-.297.061-.402.175-.108.12-.158.264-.158.427v1.98h-2.813c-.494 0-.887.186-1.18.553-.292.364-.533.782-.72 1.254l-2.002 5.626h-.316c-.612 0-1.122.206-1.532.617-.41.417-.615.928-.615 1.541v6.901h1.83c-.023.284-.023.55 0 .792.023.251.033.433.033.553v.14c0 .686.246 1.264.739 1.734.494.471 1.078.708 1.757.708.682 0 1.266-.237 1.76-.708.49-.47.738-1.048.738-1.734v-.14l.016-.409c.012-.153.02-.334.02-.547v-.39h11.039c.023.329.035.624.035.883v.602c0 .686.24 1.264.72 1.734.481.471 1.061.708 1.741.708.703 0 1.297-.237 1.775-.708.481-.47.721-1.048.721-1.734v-.14c0-.12.013-.302.037-.553.023-.243.033-.508.033-.792h2.006zm-20.606-6.334c.541 0 1.008.191 1.409.585.398.387.595.865.595 1.432 0 .541-.197 1.013-.595 1.414-.401.401-.868.599-1.409.599-.56 0-1.035-.198-1.423-.599-.387-.402-.58-.873-.58-1.414 0-.568.193-1.045.58-1.432.388-.394.863-.585 1.423-.585zm15.19-3.009h-13.992l1.511-4.67h10.969l1.512 4.67zm.738 3.009c.539 0 1.01.191 1.408.585.397.387.596.865.596 1.432 0 .541-.199 1.013-.596 1.414-.398.401-.869.599-1.408.599-.562 0-1.037-.198-1.424-.599-.386-.402-.58-.873-.58-1.414 0-.568.194-1.045.58-1.432.387-.394.862-.585 1.424-.585zm0 0" fill="#3A434E"/></g></svg>