<svg width="32" height="232" xmlns="http://www.w3.org/2000/svg" xmlns:sketch="http://www.bohemiancoding.com/sketch/ns"><title>thumbs-up--line</title><g sketch:type="MSPage" fill="none"><path d="M14.342 125.514c.246 0 .552.076.933.264 1.683.828 2.047 3.428 2.222 4.504.176 1.076-.547 3.219-.547 3.219s1.922-.02 3.637-.02c.858 0 1.664.005 2.152.02 1.586 2.022.46 3.915-.737 3.915h-.03c.348.174.663.749.663.749s1.257 2.191-1.068 2.796c.034.111 1.276.715 1.03 1.595-.244.879-1.776 1.413-1.776 1.413s.994.639.595 1.404c-.368.703-1.673 1.158-1.673 1.158l-9.016.013c-.224 0-.616-.564-1.092-.564-.129 0-.263.041-.404.148l-.658-11.002.306.008.141-.003c1.912-.093 4.087-3.728 4.239-4.715.141-.92.11-3.339.11-3.72 0-.295.131-1.182.971-1.182m0-1.514c-1.588 0-2.448 1.389-2.448 2.696l.002.191c.01 2.143-.046 2.975-.095 3.295-.198.827-2.006 3.396-2.849 3.437l-.071.002-.23-.007-1.651-.086.924 15.472 1.741-1.317c.249.179.602.374 1.064.374l9.018-.013h.244l.23-.081c.434-.151 1.901-.735 2.498-1.874.279-.531.326-1.073.216-1.577.473-.38.903-.886 1.085-1.541.169-.604.112-1.182-.168-1.73.174-.227.295-.455.379-.662.424-1.04.16-2.075-.082-2.683.197-.229.368-.491.503-.778.659-1.412.375-3.118-.76-4.565l-.426-.543-.681-.021c-.446-.015-1.186-.022-2.196-.022l-1.717.005c.116-.659.179-1.36.085-1.938l-.019-.113c-.209-1.306-.702-4.366-3.022-5.508-.563-.278-1.077-.413-1.572-.413" fill="#206FAC" sketch:type="MSShapeGroup"/><path d="M14.342 85.514c.246 0 .552.076.933.264 1.683.828 2.047 3.428 2.222 4.504.176 1.076-.547 3.219-.547 3.219s1.922-.02 3.637-.02c.858 0 1.664.005 2.152.02 1.586 2.022.46 3.915-.737 3.915h-.03c.348.174.663.749.663.749s1.257 2.191-1.068 2.796c.034.111 1.276.715 1.03 1.595-.244.879-1.776 1.413-1.776 1.413s.994.639.595 1.404c-.368.703-1.673 1.158-1.673 1.158l-9.016.013c-.224 0-.616-.564-1.092-.564-.129 0-.263.041-.404.148l-.658-11.002.306.008.141-.003c1.912-.093 4.087-3.728 4.239-4.715.141-.92.11-3.339.11-3.72 0-.295.131-1.182.971-1.182m0-1.514c-1.588 0-2.448 1.389-2.448 2.696l.002.191c.01 2.143-.046 2.975-.095 3.295-.198.827-2.006 3.396-2.849 3.437l-.071.002-.23-.007-1.651-.086.924 15.472 1.741-1.317c.249.179.602.374 1.064.374l9.018-.013h.244l.23-.081c.434-.151 1.901-.735 2.498-1.874.279-.531.326-1.073.216-1.577.473-.38.903-.886 1.085-1.541.169-.604.112-1.182-.168-1.73.174-.227.295-.455.379-.662.424-1.04.16-2.075-.082-2.683.197-.229.368-.491.503-.778.659-1.412.375-3.118-.76-4.565l-.426-.543-.681-.021c-.446-.015-1.186-.022-2.196-.022l-1.717.005c.116-.659.179-1.36.085-1.938l-.019-.113c-.209-1.306-.702-4.366-3.022-5.508-.563-.278-1.077-.413-1.572-.413" fill="#fff" sketch:type="MSShapeGroup"/><path d="M14.342 45.514c.246 0 .552.076.933.264 1.683.828 2.047 3.428 2.222 4.504.176 1.076-.547 3.219-.547 3.219s1.922-.02 3.637-.02c.858 0 1.664.005 2.152.02 1.586 2.022.46 3.915-.737 3.915h-.03c.348.174.663.749.663.749s1.257 2.191-1.068 2.796c.034.111 1.276.715 1.03 1.595-.244.879-1.776 1.413-1.776 1.413s.994.639.595 1.404c-.368.703-1.673 1.158-1.673 1.158l-9.016.013c-.224 0-.616-.564-1.092-.564-.129 0-.263.041-.404.148l-.658-11.002.306.008.141-.003c1.912-.093 4.087-3.728 4.239-4.715.141-.92.11-3.339.11-3.72 0-.295.131-1.182.971-1.182m0-1.514c-1.588 0-2.448 1.389-2.448 2.696l.002.191c.01 2.143-.046 2.975-.095 3.295-.198.827-2.006 3.396-2.849 3.437l-.071.002-.23-.007-1.651-.086.924 15.472 1.741-1.317c.249.179.602.374 1.064.374l9.018-.013h.244l.23-.081c.434-.151 1.901-.735 2.498-1.874.279-.531.326-1.073.216-1.577.473-.38.903-.886 1.085-1.541.169-.604.112-1.182-.168-1.73.174-.227.295-.455.379-.662.424-1.04.16-2.075-.082-2.683.197-.229.368-.491.503-.778.659-1.412.375-3.118-.76-4.565l-.426-.543-.681-.021c-.446-.015-1.186-.022-2.196-.022l-1.717.005c.116-.659.179-1.36.085-1.938l-.019-.113c-.209-1.306-.702-4.366-3.022-5.508-.563-.278-1.077-.413-1.572-.413" fill="#67737B" sketch:type="MSShapeGroup"/><path d="M14.342 5.514c.246 0 .552.076.933.264 1.683.828 2.047 3.428 2.222 4.504.176 1.076-.547 3.219-.547 3.219s1.922-.02 3.637-.02c.858 0 1.664.005 2.152.02 1.586 2.022.46 3.915-.737 3.915h-.03c.348.174.663.749.663.749s1.257 2.191-1.068 2.796c.034.111 1.276.715 1.03 1.595-.244.879-1.776 1.413-1.776 1.413s.994.639.595 1.404c-.368.703-1.673 1.158-1.673 1.158l-9.016.013c-.224 0-.616-.564-1.092-.564-.129 0-.263.041-.404.148l-.658-11.002.306.008.141-.003c1.912-.093 4.087-3.728 4.239-4.715.141-.92.11-3.339.11-3.72 0-.295.131-1.182.971-1.182m0-1.514c-1.588 0-2.448 1.389-2.448 2.696l.002.191c.01 2.143-.046 2.975-.095 3.295-.198.827-2.006 3.396-2.849 3.437l-.071.002-.23-.007-1.651-.086.924 15.472 1.741-1.317c.249.179.602.374 1.064.374l9.018-.013h.244l.23-.081c.434-.151 1.901-.735 2.498-1.874.279-.531.326-1.073.216-1.577.473-.38.903-.886 1.085-1.541.169-.604.112-1.182-.168-1.73.174-.227.295-.455.379-.662.424-1.04.16-2.075-.082-2.683.197-.229.368-.491.503-.778.659-1.412.375-3.118-.76-4.565l-.426-.543-.681-.021c-.446-.015-1.186-.022-2.196-.022l-1.717.005c.116-.659.179-1.36.085-1.938l-.019-.113c-.209-1.306-.702-4.366-3.022-5.508-.563-.278-1.077-.413-1.572-.413" fill="#3A434E" sketch:type="MSShapeGroup"/></g></svg>