<svg width="32" height="232" xmlns="http://www.w3.org/2000/svg" xmlns:sketch="http://www.bohemiancoding.com/sketch/ns"><title>thumb--tack</title><g sketch:type="MSPage" fill="none"><path d="M21.469 138.222c-.035-.973 1.565-2.478 1.565-2.478s1.4-1.474 2.433-1.474l2.161.542c.173 0 .33-.028.49-.092.164-.066.281-.148.398-.246l.092-.061.061-.094c.457-.542.445-1.338-.061-1.846l-6.082-6.079c-.508-.508-1.305-.52-1.846-.065l-.058.029-.096.127c-.098.116-.18.233-.232.35-.079.208-.108.363-.108.52.006.741.545 1.461.545 2.176 0 1.036-1.475 2.436-1.475 2.436.001-.001-1.507 1.6-2.478 1.564-1.959-.074-2.113-.587-3.715-.478-1.133.079-2.117 1.257-2.117 1.257l3.701 4.874-3.432 3.433-3.214 4.259.125.123 4.259-3.214 3.432-3.431 4.873 3.7s1.178-.985 1.256-2.118c.111-1.599-.404-1.756-.477-3.714zm0 0" fill="#206FAC" sketch:type="MSShapeGroup"/><path d="M18.968 98.222c-.035-.973 1.565-2.478 1.565-2.478s1.4-1.474 2.433-1.474l2.161.542c.173 0 .33-.028.49-.092.164-.066.281-.148.398-.246l.092-.061.061-.094c.457-.542.445-1.338-.061-1.846l-6.082-6.079c-.508-.508-1.305-.52-1.846-.065l-.058.029-.096.127c-.098.116-.18.233-.232.35-.079.208-.108.363-.108.52.006.741.545 1.461.545 2.176 0 1.036-1.475 2.436-1.475 2.436.001-.001-1.507 1.6-2.478 1.564-1.959-.074-2.113-.587-3.715-.478-1.133.079-2.117 1.257-2.117 1.257l3.701 4.874-3.432 3.433-3.214 4.259.125.123 4.259-3.214 3.432-3.431 4.873 3.7s1.178-.985 1.256-2.118c.111-1.599-.404-1.756-.477-3.714zm0 0" fill="#fff" sketch:type="MSShapeGroup"/><path d="M18.968 58.222c-.035-.973 1.565-2.478 1.565-2.478s1.4-1.474 2.433-1.474l2.161.542c.173 0 .33-.028.49-.092.164-.066.281-.148.398-.246l.092-.061.061-.094c.457-.542.445-1.338-.061-1.846l-6.082-6.079c-.508-.508-1.305-.52-1.846-.065l-.058.029-.096.127c-.098.116-.18.233-.232.35-.079.208-.108.363-.108.52.006.741.545 1.461.545 2.176 0 1.036-1.475 2.436-1.475 2.436.001-.001-1.507 1.6-2.478 1.564-1.959-.074-2.113-.587-3.715-.478-1.133.079-2.117 1.257-2.117 1.257l3.701 4.874-3.432 3.433-3.214 4.259.125.123 4.259-3.214 3.432-3.431 4.873 3.7s1.178-.985 1.256-2.118c.111-1.599-.404-1.756-.477-3.714zm0 0" fill="#67737B" sketch:type="MSShapeGroup"/><path d="M18.968 18.222c-.035-.973 1.565-2.478 1.565-2.478s1.4-1.474 2.433-1.474l2.161.542c.173 0 .33-.028.49-.092.164-.066.281-.148.398-.246l.092-.061.061-.094c.457-.542.445-1.338-.061-1.846l-6.082-6.079c-.508-.508-1.305-.52-1.846-.065l-.058.029-.096.127c-.098.116-.18.233-.232.35-.079.208-.108.363-.108.52.006.741.545 1.461.545 2.176 0 1.036-1.475 2.436-1.475 2.436.001-.001-1.507 1.6-2.478 1.564-1.959-.074-2.113-.587-3.715-.478-1.133.079-2.117 1.257-2.117 1.257l3.701 4.874-3.432 3.433-3.214 4.259.125.123 4.259-3.214 3.432-3.431 4.873 3.7s1.178-.985 1.256-2.118c.111-1.599-.404-1.756-.477-3.714zm0 0" fill="#3A434E" sketch:type="MSShapeGroup"/></g></svg>