<svg width="32" height="232" viewBox="0 0 32 232" xmlns="http://www.w3.org/2000/svg"><title>thumbs-up</title><g fill="none"><path d="M8 135.05s.299.016.48.005c2.051-.098 4.385-3.902 4.545-4.936.151-.96.121-3.495.121-3.893 0-.397.233-1.83 2.04-.961 1.806.867 2.197 3.589 2.384 4.714.188 1.127-.586 3.37-.586 3.37s4.637-.048 6.209 0c1.715 2.134.473 4.133-.822 4.097.375.183.711.783.711.783s1.35 2.296-1.144 2.929c.035.116 1.367.747 1.103 1.669-.262.919-1.904 1.479-1.904 1.479s1.066.668.638 1.469c-.394.735-1.795 1.212-1.795 1.212l-9.671.013c-.305 0-.903-.954-1.604-.436l-.705-11.514" fill="#206FAC"/><path d="M8 95.05s.299.016.48.005c2.051-.098 4.385-3.902 4.545-4.936.151-.96.121-3.495.121-3.893 0-.397.233-1.83 2.04-.961 1.806.867 2.197 3.589 2.384 4.714.188 1.127-.586 3.37-.586 3.37s4.637-.048 6.209 0c1.715 2.134.473 4.133-.822 4.097.375.183.711.783.711.783s1.35 2.296-1.144 2.929c.035.116 1.367.747 1.103 1.669-.262.919-1.904 1.479-1.904 1.479s1.066.668.638 1.469c-.394.735-1.795 1.212-1.795 1.212l-9.671.013c-.305 0-.903-.954-1.604-.436l-.705-11.514" fill="#fff"/><path d="M8 55.05s.299.016.48.005c2.051-.098 4.385-3.902 4.545-4.936.151-.96.121-3.495.121-3.893 0-.397.233-1.83 2.04-.961 1.806.867 2.197 3.589 2.384 4.714.188 1.127-.586 3.37-.586 3.37s4.637-.048 6.209 0c1.715 2.134.473 4.133-.822 4.097.375.183.711.783.711.783s1.35 2.296-1.144 2.929c.035.116 1.367.747 1.103 1.669-.262.919-1.904 1.479-1.904 1.479s1.066.668.638 1.469c-.394.735-1.795 1.212-1.795 1.212l-9.671.013c-.305 0-.903-.954-1.604-.436l-.705-11.514" fill="#67737B"/><path d="M8 15.05s.299.016.48.005c2.051-.098 4.385-3.902 4.545-4.936.151-.96.121-3.495.121-3.893 0-.397.233-1.83 2.04-.961 1.806.867 2.197 3.589 2.384 4.714.188 1.127-.586 3.37-.586 3.37s4.637-.048 6.209 0c1.715 2.134.473 4.133-.822 4.097.375.183.711.783.711.783s1.35 2.296-1.144 2.929c.035.116 1.367.747 1.103 1.669-.262.919-1.904 1.479-1.904 1.479s1.066.668.638 1.469c-.394.735-1.795 1.212-1.795 1.212l-9.671.013c-.305 0-.903-.954-1.604-.436l-.705-11.514" fill="#3A434E"/></g></svg>