<svg width="32" height="232" viewBox="0 0 32 232" xmlns="http://www.w3.org/2000/svg"><title>tick</title><g fill="none"><path d="M0 176.37l12.151 12.63 19.849-20.631-3.24-3.369-16.609 17.264-8.911-9.261-3.24 3.368" fill="#15C98D"/><path d="M0 136.37l12.151 12.63 19.849-20.631-3.24-3.369-16.609 17.264-8.911-9.261-3.24 3.368" fill="#206FAC"/><path d="M0 96.37l12.151 12.63 19.849-20.631-3.24-3.369-16.609 17.264-8.911-9.261-3.24 3.368" fill="#fff"/><path d="M0 56.37l12.151 12.63 19.849-20.631-3.24-3.369-16.609 17.264-8.911-9.261-3.24 3.368" fill="#67737B"/><path d="M0 16.37l12.151 12.63 19.849-20.631-3.24-3.369-16.609 17.264-8.911-9.261-3.24 3.368" fill="#3A434E"/></g></svg>