<?xml version="1.0" encoding="UTF-8" standalone="no"?>
<svg width="32px" height="232px" viewBox="0 0 32 232" version="1.1" xmlns="http://www.w3.org/2000/svg" xmlns:xlink="http://www.w3.org/1999/xlink" xmlns:sketch="http://www.bohemiancoding.com/sketch/ns">
    <title>time</title>
    <description>Created with Sketch (http://www.bohemiancoding.com/sketch)</description>
    <defs></defs>
    <g id="Graphics" stroke="none" stroke-width="1" fill="none" fill-rule="evenodd" sketch:type="MSPage">
        <path d="M16,149 C9.098,149 3.5,143.404 3.5,136.5 C3.5,129.596 9.098,124 16,124 C22.904,124 28.5,129.596 28.5,136.5 C28.5,143.404 22.904,149 16,149 L16,149 L16,149 L16,149 Z M16,127.358 C10.951,127.358 6.858,131.449 6.858,136.5 C6.858,141.549 10.951,145.643 16,145.643 C21.049,145.643 25.143,141.549 25.143,136.5 C25.143,131.449 21.049,127.358 16,127.358 L16,127.358 L16,127.358 L16,127.358 Z M19.436,141.192 L15.111,136.869 L15.111,129.897 L16.889,129.897 L16.889,136.131 L20.692,139.936 L19.436,141.192 L19.436,141.192 Z M19.436,141.192" id="time--white" fill="#206FAC" sketch:type="MSShapeGroup"></path>
        <path d="M16,109 C9.098,109 3.5,103.404 3.5,96.5 C3.5,89.596 9.098,84 16,84 C22.904,84 28.5,89.596 28.5,96.5 C28.5,103.404 22.904,109 16,109 L16,109 L16,109 L16,109 Z M16,87.358 C10.951,87.358 6.858,91.449 6.858,96.5 C6.858,101.549 10.951,105.643 16,105.643 C21.049,105.643 25.143,101.549 25.143,96.5 C25.143,91.449 21.049,87.358 16,87.358 L16,87.358 L16,87.358 L16,87.358 Z M19.436,101.192 L15.111,96.869 L15.111,89.897 L16.889,89.897 L16.889,96.131 L20.692,99.936 L19.436,101.192 L19.436,101.192 Z M19.436,101.192" id="time--subdued-grey" fill="#FFFFFF" sketch:type="MSShapeGroup"></path>
        <path d="M16,69 C9.098,69 3.5,63.404 3.5,56.5 C3.5,49.596 9.098,44 16,44 C22.904,44 28.5,49.596 28.5,56.5 C28.5,63.404 22.904,69 16,69 L16,69 L16,69 L16,69 Z M16,47.358 C10.951,47.358 6.858,51.449 6.858,56.5 C6.858,61.549 10.951,65.643 16,65.643 C21.049,65.643 25.143,61.549 25.143,56.5 C25.143,51.449 21.049,47.358 16,47.358 L16,47.358 L16,47.358 L16,47.358 Z M19.436,61.192 L15.111,56.869 L15.111,49.897 L16.889,49.897 L16.889,56.131 L20.692,59.936 L19.436,61.192 L19.436,61.192 Z M19.436,61.192" id="time--body-grey" fill="#67737B" sketch:type="MSShapeGroup"></path>
        <path d="M16,29 C9.098,29 3.5,23.404 3.5,16.5 C3.5,9.596 9.098,4 16,4 C22.904,4 28.5,9.596 28.5,16.5 C28.5,23.404 22.904,29 16,29 L16,29 L16,29 L16,29 Z M16,7.358 C10.951,7.358 6.858,11.449 6.858,16.5 C6.858,21.549 10.951,25.643 16,25.643 C21.049,25.643 25.143,21.549 25.143,16.5 C25.143,11.449 21.049,7.358 16,7.358 L16,7.358 L16,7.358 L16,7.358 Z M19.436,21.192 L15.111,16.869 L15.111,9.897 L16.889,9.897 L16.889,16.131 L20.692,19.936 L19.436,21.192 L19.436,21.192 Z M19.436,21.192" id="time--title-grey" fill="#3A434E" sketch:type="MSShapeGroup"></path>
    </g>
</svg>