<svg width="32" height="232" viewBox="0 0 32 232" xmlns="http://www.w3.org/2000/svg"><title>time</title><g fill="none"><path d="M16 149c-6.902 0-12.5-5.596-12.5-12.5s5.598-12.5 12.5-12.5c6.904 0 12.5 5.596 12.5 12.5s-5.596 12.5-12.5 12.5zm0-21.642c-5.049 0-9.142 4.091-9.142 9.142 0 5.049 4.093 9.143 9.142 9.143 5.049 0 9.143-4.094 9.143-9.143 0-5.051-4.094-9.142-9.143-9.142zm3.436 13.834l-4.325-4.323v-6.972h1.778v6.234l3.803 3.805-1.256 1.256zm0 0" fill="#206FAC"/><path d="M16 109c-6.902 0-12.5-5.596-12.5-12.5s5.598-12.5 12.5-12.5c6.904 0 12.5 5.596 12.5 12.5s-5.596 12.5-12.5 12.5zm0-21.642c-5.049 0-9.142 4.091-9.142 9.142 0 5.049 4.093 9.143 9.142 9.143 5.049 0 9.143-4.094 9.143-9.143 0-5.051-4.094-9.142-9.143-9.142zm3.436 13.834l-4.325-4.323v-6.972h1.778v6.234l3.803 3.805-1.256 1.256zm0 0" fill="#fff"/><path d="M16 69c-6.902 0-12.5-5.596-12.5-12.5s5.598-12.5 12.5-12.5c6.904 0 12.5 5.596 12.5 12.5s-5.596 12.5-12.5 12.5zm0-21.642c-5.049 0-9.142 4.091-9.142 9.142 0 5.049 4.093 9.143 9.142 9.143 5.049 0 9.143-4.094 9.143-9.143 0-5.051-4.094-9.142-9.143-9.142zm3.436 13.834l-4.325-4.323v-6.972h1.778v6.234l3.803 3.805-1.256 1.256zm0 0" fill="#67737B"/><path d="M16 29c-6.902 0-12.5-5.596-12.5-12.5s5.598-12.5 12.5-12.5c6.904 0 12.5 5.596 12.5 12.5s-5.596 12.5-12.5 12.5zm0-21.642c-5.049 0-9.142 4.091-9.142 9.142 0 5.049 4.093 9.143 9.142 9.143 5.049 0 9.143-4.094 9.143-9.143 0-5.051-4.094-9.142-9.143-9.142zm3.436 13.834l-4.325-4.323v-6.972h1.778v6.234l3.803 3.805-1.256 1.256zm0 0" fill="#3A434E"/></g></svg>