<svg width="32" height="232" viewBox="0 0 32 232" xmlns="http://www.w3.org/2000/svg"><title>top-choice</title><g fill="none"><path d="M7.256 9.465h1.42c.84 0 1.311-.446 1.311-1.114 0-.698-.47-1.115-1.311-1.115h-5.367c-.84 0-1.309.417-1.309 1.115 0 .668.468 1.114 1.309 1.114h1.42v7.164c0 .847.53 1.278 1.264 1.278.733 0 1.263-.431 1.263-1.278v-7.164zm8.14-2.465c-3.288 0-5.458 2.167-5.458 5.527 0 3.358 2.17 5.528 5.458 5.528 3.293 0 5.461-2.17 5.461-5.528 0-3.36-2.168-5.527-5.461-5.527zm0 8.826c-1.948 0-2.742-1.619-2.742-3.299s.794-3.295 2.742-3.295c1.951 0 2.745 1.615 2.745 3.295 0 1.679-.794 3.299-2.745 3.299zm14.57-4.992c0-2.393-1.857-3.598-3.805-3.598h-3.106c-.657 0-1.263.432-1.263 1.205v8.189c0 .847.528 1.278 1.263 1.278.734 0 1.262-.431 1.262-1.278v-2.214h1.919c2.403 0 3.729-1.517 3.729-3.581zm-4.291 1.44h-1.357v-2.896h1.357c.998 0 1.671.505 1.671 1.456 0 .741-.595 1.44-1.671 1.44zm-19.413 12.052c-.357 0-.491.282-1.348.282-.94 0-1.431-.833-1.431-1.803 0-.945.441-1.856 1.55-1.856.532 0 .872.295 1.194.295.355 0 .592-.327.592-.663 0-.729-.99-.97-1.82-.97-1.812 0-2.988 1.338-2.988 3.193 0 1.752 1.066 3.195 2.962 3.195.756 0 1.897-.263 1.897-1.031 0-.178-.066-.643-.608-.643zm5.535-4.629c-.398 0-.685.248-.685.737v1.649h-2.558v-1.649c0-.49-.287-.737-.686-.737-.398 0-.683.248-.683.737v4.743c0 .488.285.735.683.735.399 0 .686-.248.686-.735v-1.805h2.558v1.805c0 .488.287.735.685.735.397 0 .686-.248.686-.735v-4.743c0-.49-.289-.737-.686-.737zm4.157-.086c-1.785 0-2.963 1.253-2.963 3.193 0 1.94 1.178 3.195 2.963 3.195 1.787 0 2.963-1.255 2.963-3.195s-1.176-3.193-2.963-3.193zm0 5.099c-1.058 0-1.49-.937-1.49-1.906 0-.97.432-1.907 1.49-1.907 1.059 0 1.492.938 1.492 1.907 0 .97-.433 1.906-1.492 1.906zm4.157-5.014c-.397 0-.684.248-.684.737v4.743c0 .488.287.735.684.735.4 0 .685-.248.685-.735v-4.743c0-.49-.285-.737-.685-.737zm5.446 4.629c-.357 0-.493.282-1.346.282-.94 0-1.432-.833-1.432-1.803 0-.945.44-1.856 1.55-1.856.534 0 .87.295 1.192.295.356 0 .593-.327.593-.663 0-.729-.988-.97-1.82-.97-1.813 0-2.987 1.338-2.987 3.193 0 1.752 1.066 3.195 2.96 3.195.754 0 1.9-.263 1.9-1.031 0-.178-.071-.643-.611-.643zm3.761.25h-1.469v-1.144h1.298c.433 0 .685-.249.685-.644 0-.396-.253-.645-.685-.645h-1.298v-1.108h1.416c.431 0 .683-.242.683-.645 0-.387-.253-.646-.683-.646h-2.1c-.355 0-.687.252-.687.698v4.721c0 .447.332.696.687.696h2.153c.431 0 .683-.255.683-.642 0-.404-.253-.644-.683-.644zm0 0" fill="#3A434E"/><path d="M7.256 49.465h1.42c.84 0 1.311-.446 1.311-1.114 0-.698-.47-1.115-1.311-1.115h-5.367c-.84 0-1.309.417-1.309 1.115 0 .668.468 1.114 1.309 1.114h1.42v7.164c0 .847.53 1.278 1.264 1.278.733 0 1.263-.431 1.263-1.278v-7.164zm8.14-2.465c-3.288 0-5.458 2.167-5.458 5.527 0 3.358 2.17 5.528 5.458 5.528 3.293 0 5.461-2.17 5.461-5.528 0-3.36-2.168-5.527-5.461-5.527zm0 8.826c-1.948 0-2.742-1.619-2.742-3.299s.794-3.295 2.742-3.295c1.951 0 2.745 1.615 2.745 3.295 0 1.679-.794 3.299-2.745 3.299zm14.57-4.992c0-2.393-1.857-3.598-3.805-3.598h-3.106c-.657 0-1.263.432-1.263 1.205v8.189c0 .847.528 1.278 1.263 1.278.734 0 1.262-.431 1.262-1.278v-2.214h1.919c2.403 0 3.729-1.517 3.729-3.581zm-4.291 1.44h-1.357v-2.896h1.357c.998 0 1.671.505 1.671 1.456 0 .741-.595 1.44-1.671 1.44zm-19.413 12.052c-.357 0-.491.282-1.348.282-.94 0-1.431-.833-1.431-1.803 0-.945.441-1.856 1.55-1.856.532 0 .872.295 1.194.295.355 0 .592-.327.592-.663 0-.729-.99-.97-1.82-.97-1.812 0-2.988 1.338-2.988 3.193 0 1.752 1.066 3.195 2.962 3.195.756 0 1.897-.263 1.897-1.031 0-.178-.066-.643-.608-.643zm5.535-4.629c-.398 0-.685.248-.685.737v1.649h-2.558v-1.649c0-.49-.287-.737-.686-.737-.398 0-.683.248-.683.737v4.743c0 .488.285.735.683.735.399 0 .686-.248.686-.735v-1.805h2.558v1.805c0 .488.287.735.685.735.397 0 .686-.248.686-.735v-4.743c0-.49-.289-.737-.686-.737zm4.157-.086c-1.785 0-2.963 1.253-2.963 3.193 0 1.94 1.178 3.195 2.963 3.195 1.787 0 2.963-1.255 2.963-3.195s-1.176-3.193-2.963-3.193zm0 5.099c-1.058 0-1.49-.937-1.49-1.906 0-.97.432-1.907 1.49-1.907 1.059 0 1.492.938 1.492 1.907 0 .97-.433 1.906-1.492 1.906zm4.157-5.014c-.397 0-.684.248-.684.737v4.743c0 .488.287.735.684.735.4 0 .685-.248.685-.735v-4.743c0-.49-.285-.737-.685-.737zm5.446 4.629c-.357 0-.493.282-1.346.282-.94 0-1.432-.833-1.432-1.803 0-.945.44-1.856 1.55-1.856.534 0 .87.295 1.192.295.356 0 .593-.327.593-.663 0-.729-.988-.97-1.82-.97-1.813 0-2.987 1.338-2.987 3.193 0 1.752 1.066 3.195 2.96 3.195.754 0 1.9-.263 1.9-1.031 0-.178-.071-.643-.611-.643zm3.761.25h-1.469v-1.144h1.298c.433 0 .685-.249.685-.644 0-.396-.253-.645-.685-.645h-1.298v-1.108h1.416c.431 0 .683-.242.683-.645 0-.387-.253-.646-.683-.646h-2.1c-.355 0-.687.252-.687.698v4.721c0 .447.332.696.687.696h2.153c.431 0 .683-.255.683-.642 0-.404-.253-.644-.683-.644zm0 0" fill="#67737B"/><path d="M7.256 89.465h1.42c.84 0 1.311-.446 1.311-1.114 0-.698-.47-1.115-1.311-1.115h-5.367c-.84 0-1.309.417-1.309 1.115 0 .668.468 1.114 1.309 1.114h1.42v7.164c0 .847.53 1.278 1.264 1.278.733 0 1.263-.431 1.263-1.278v-7.164zm8.14-2.465c-3.288 0-5.458 2.167-5.458 5.527 0 3.358 2.17 5.528 5.458 5.528 3.293 0 5.461-2.17 5.461-5.528 0-3.36-2.168-5.527-5.461-5.527zm0 8.826c-1.948 0-2.742-1.619-2.742-3.299s.794-3.295 2.742-3.295c1.951 0 2.745 1.615 2.745 3.295 0 1.679-.794 3.299-2.745 3.299zm14.57-4.992c0-2.393-1.857-3.598-3.805-3.598h-3.106c-.657 0-1.263.432-1.263 1.205v8.189c0 .847.528 1.278 1.263 1.278.734 0 1.262-.431 1.262-1.278v-2.214h1.919c2.403 0 3.729-1.517 3.729-3.581zm-4.291 1.44h-1.357v-2.896h1.357c.998 0 1.671.505 1.671 1.456 0 .741-.595 1.44-1.671 1.44zm-19.413 12.052c-.357 0-.491.282-1.348.282-.94 0-1.431-.833-1.431-1.803 0-.945.441-1.856 1.55-1.856.532 0 .872.295 1.194.295.355 0 .592-.327.592-.663 0-.729-.99-.97-1.82-.97-1.812 0-2.988 1.338-2.988 3.193 0 1.752 1.066 3.195 2.962 3.195.756 0 1.897-.263 1.897-1.031 0-.178-.066-.643-.608-.643zm5.535-4.629c-.398 0-.685.248-.685.737v1.649h-2.558v-1.649c0-.49-.287-.737-.686-.737-.398 0-.683.248-.683.737v4.743c0 .488.285.735.683.735.399 0 .686-.248.686-.735v-1.805h2.558v1.805c0 .488.287.735.685.735.397 0 .686-.248.686-.735v-4.743c0-.49-.289-.737-.686-.737zm4.157-.086c-1.785 0-2.963 1.253-2.963 3.193 0 1.94 1.178 3.195 2.963 3.195 1.787 0 2.963-1.255 2.963-3.195s-1.176-3.193-2.963-3.193zm0 5.099c-1.058 0-1.49-.937-1.49-1.906 0-.97.432-1.907 1.49-1.907 1.059 0 1.492.938 1.492 1.907 0 .97-.433 1.906-1.492 1.906zm4.157-5.014c-.397 0-.684.248-.684.737v4.743c0 .488.287.735.684.735.4 0 .685-.248.685-.735v-4.743c0-.49-.285-.737-.685-.737zm5.446 4.629c-.357 0-.493.282-1.346.282-.94 0-1.432-.833-1.432-1.803 0-.945.44-1.856 1.55-1.856.534 0 .87.295 1.192.295.356 0 .593-.327.593-.663 0-.729-.988-.97-1.82-.97-1.813 0-2.987 1.338-2.987 3.193 0 1.752 1.066 3.195 2.96 3.195.754 0 1.9-.263 1.9-1.031 0-.178-.071-.643-.611-.643zm3.761.25h-1.469v-1.144h1.298c.433 0 .685-.249.685-.644 0-.396-.253-.645-.685-.645h-1.298v-1.108h1.416c.431 0 .683-.242.683-.645 0-.387-.253-.646-.683-.646h-2.1c-.355 0-.687.252-.687.698v4.721c0 .447.332.696.687.696h2.153c.431 0 .683-.255.683-.642 0-.404-.253-.644-.683-.644zm0 0" fill="#fff"/><path d="M7.256 129.465h1.42c.84 0 1.311-.446 1.311-1.114 0-.698-.47-1.115-1.311-1.115h-5.367c-.84 0-1.309.417-1.309 1.115 0 .668.468 1.114 1.309 1.114h1.42v7.164c0 .847.53 1.278 1.264 1.278.733 0 1.263-.431 1.263-1.278v-7.164zm8.14-2.465c-3.288 0-5.458 2.167-5.458 5.527 0 3.358 2.17 5.528 5.458 5.528 3.293 0 5.461-2.17 5.461-5.528 0-3.36-2.168-5.527-5.461-5.527zm0 8.826c-1.948 0-2.742-1.619-2.742-3.299s.794-3.295 2.742-3.295c1.951 0 2.745 1.615 2.745 3.295 0 1.679-.794 3.299-2.745 3.299zm14.57-4.992c0-2.393-1.857-3.598-3.805-3.598h-3.106c-.657 0-1.263.432-1.263 1.205v8.189c0 .847.528 1.278 1.263 1.278.734 0 1.262-.431 1.262-1.278v-2.214h1.919c2.403 0 3.729-1.517 3.729-3.581zm-4.291 1.44h-1.357v-2.896h1.357c.998 0 1.671.505 1.671 1.456 0 .741-.595 1.44-1.671 1.44zm-19.413 12.052c-.357 0-.491.282-1.348.282-.94 0-1.431-.833-1.431-1.803 0-.945.441-1.856 1.55-1.856.532 0 .872.295 1.194.295.355 0 .592-.327.592-.663 0-.729-.99-.97-1.82-.97-1.812 0-2.988 1.338-2.988 3.193 0 1.752 1.066 3.195 2.962 3.195.756 0 1.897-.263 1.897-1.031 0-.178-.066-.643-.608-.643zm5.535-4.629c-.398 0-.685.248-.685.737v1.649h-2.558v-1.649c0-.49-.287-.737-.686-.737-.398 0-.683.248-.683.737v4.743c0 .488.285.735.683.735.399 0 .686-.248.686-.735v-1.805h2.558v1.805c0 .488.287.735.685.735.397 0 .686-.248.686-.735v-4.743c0-.49-.289-.737-.686-.737zm4.157-.086c-1.785 0-2.963 1.253-2.963 3.193 0 1.94 1.178 3.195 2.963 3.195 1.787 0 2.963-1.255 2.963-3.195s-1.176-3.193-2.963-3.193zm0 5.099c-1.058 0-1.49-.937-1.49-1.906 0-.97.432-1.907 1.49-1.907 1.059 0 1.492.938 1.492 1.907 0 .97-.433 1.906-1.492 1.906zm4.157-5.014c-.397 0-.684.248-.684.737v4.743c0 .488.287.735.684.735.4 0 .685-.248.685-.735v-4.743c0-.49-.285-.737-.685-.737zm5.446 4.629c-.357 0-.493.282-1.346.282-.94 0-1.432-.833-1.432-1.803 0-.945.44-1.856 1.55-1.856.534 0 .87.295 1.192.295.356 0 .593-.327.593-.663 0-.729-.988-.97-1.82-.97-1.813 0-2.987 1.338-2.987 3.193 0 1.752 1.066 3.195 2.96 3.195.754 0 1.9-.263 1.9-1.031 0-.178-.071-.643-.611-.643zm3.761.25h-1.469v-1.144h1.298c.433 0 .685-.249.685-.644 0-.396-.253-.645-.685-.645h-1.298v-1.108h1.416c.431 0 .683-.242.683-.645 0-.387-.253-.646-.683-.646h-2.1c-.355 0-.687.252-.687.698v4.721c0 .447.332.696.687.696h2.153c.431 0 .683-.255.683-.642 0-.404-.253-.644-.683-.644zm0 0" fill="#206FAC"/></g></svg>