<?xml version="1.0" encoding="UTF-8" standalone="no"?>
<svg width="32px" height="232px" viewBox="0 0 32 232" version="1.1" xmlns="http://www.w3.org/2000/svg" xmlns:xlink="http://www.w3.org/1999/xlink" xmlns:sketch="http://www.bohemiancoding.com/sketch/ns">
    <title>top-choice</title>
    <description>Created with Sketch (http://www.bohemiancoding.com/sketch)</description>
    <defs></defs>
    <g id="Brand" stroke="none" stroke-width="1" fill="none" fill-rule="evenodd" sketch:type="MSPage">
        <path d="M7.25571814,9.46512133 L8.67580622,9.46512133 C9.51612445,9.46512133 9.98650376,9.01954291 9.98650376,8.35117529 C9.98650376,7.65289615 9.51612445,7.23619782 8.67580622,7.23619782 L3.30870862,7.23619782 C2.4683904,7.23619782 2,7.65289615 2,8.35117529 C2,9.01954291 2.4683904,9.46512133 3.30870862,9.46512133 L4.7287967,9.46512133 L4.7287967,16.6294447 C4.7287967,17.4762499 5.25884359,17.9073883 5.99275465,17.9073883 C6.72567126,17.9073883 7.25571814,17.4762499 7.25571814,16.6294447 L7.25571814,9.46512133 L7.25571814,9.46512133 L7.25571814,9.46512133 L7.25571814,9.46512133 Z M15.3953687,7 C12.1076858,7 9.93777525,9.16703762 9.93777525,12.5274415 C9.93777525,15.8857825 12.1076858,18.0559144 15.3953687,18.0559144 C18.6880239,18.0559144 20.8559454,15.8857825 20.8559454,12.5274415 C20.8559454,9.16703762 18.6880239,7 15.3953687,7 L15.3953687,7 L15.3953687,7 L15.3953687,7 Z M15.3953687,15.8259595 C13.4472226,15.8259595 12.653644,14.206612 12.653644,12.5274415 C12.653644,10.8472396 13.4472226,9.23201781 15.3953687,9.23201781 C17.3464981,9.23201781 18.1400767,10.8472396 18.1400767,12.5274415 C18.1400767,14.206612 17.3464981,15.8259595 15.3953687,15.8259595 L15.3953687,15.8259595 L15.3953687,15.8259595 L15.3953687,15.8259595 Z M29.9651939,10.833831 C29.9651939,8.44090983 28.1085381,7.23619782 26.1603921,7.23619782 L23.0546953,7.23619782 C22.3973576,7.23619782 21.7917318,7.66836762 21.7917318,8.44090983 L21.7917318,16.6294447 C21.7917318,17.4762499 22.3197897,17.9073883 23.0546953,17.9073883 C23.7886063,17.9073883 24.3166643,17.4762499 24.3166643,16.6294447 L24.3166643,14.4149612 L26.235971,14.4149612 C28.638585,14.4149612 29.9651939,12.8977254 29.9651939,10.833831 C29.9651939,10.833831 29.9651939,12.8977254 29.9651939,10.833831 L29.9651939,10.833831 L29.9651939,10.833831 Z M25.6741014,12.2737094 L24.3166643,12.2737094 L24.3166643,9.37744965 L25.6741014,9.37744965 C26.6725387,9.37744965 27.3447933,9.88285109 27.3447933,10.833831 C27.3447933,11.5743988 26.7501065,12.2737094 25.6741014,12.2737094 L25.6741014,12.2737094 L25.6741014,12.2737094 L25.6741014,12.2737094 Z M6.2612587,24.3259866 C5.90424776,24.3259866 5.76999574,24.6075675 4.9127717,24.6075675 C3.97300753,24.6075675 3.48174457,23.7741708 3.48174457,22.8046252 C3.48174457,21.8598339 3.9222901,20.9490799 5.03210683,20.9490799 C5.56414263,20.9490799 5.90424776,21.2440693 6.22645262,21.2440693 C6.58147464,21.2440693 6.81815599,20.9171055 6.81815599,20.5808588 C6.81815599,19.8516367 5.82767439,19.6113132 4.99829521,19.6113132 C3.18639011,19.6113132 2.00994459,20.9490799 2.00994459,22.8046252 C2.00994459,24.5570273 3.07600511,26 4.97144481,26 C5.72723398,26 6.86887342,25.736985 6.86887342,24.9685685 C6.86887342,24.7901308 6.8032391,24.3259866 6.2612587,24.3259866 L6.2612587,24.3259866 L6.2612587,24.3259866 L6.2612587,24.3259866 Z M11.7964199,19.696922 C11.3986362,19.696922 11.1112374,19.9444656 11.1112374,20.4343955 L11.1112374,22.0836545 L8.55348771,22.0836545 L8.55348771,20.4343955 C8.55348771,19.9444656 8.26608893,19.696922 7.8673107,19.696922 C7.46952692,19.696922 7.18411706,19.9444656 7.18411706,20.4343955 L7.18411706,25.1769176 C7.18411706,25.6647848 7.46952692,25.9123283 7.8673107,25.9123283 C8.26608893,25.9123283 8.55348771,25.6647848 8.55348771,25.1769176 L8.55348771,23.3719125 L11.1112374,23.3719125 L11.1112374,25.1769176 C11.1112374,25.6647848 11.3986362,25.9123283 11.7964199,25.9123283 C12.1932093,25.9123283 12.482597,25.6647848 12.482597,25.1769176 L12.482597,20.4343955 C12.482597,19.9444656 12.1932093,19.696922 11.7964199,19.696922 L11.7964199,19.696922 L11.7964199,19.696922 L11.7964199,19.696922 Z M15.9532604,19.6113132 C14.1682057,19.6113132 12.9897713,20.8645025 12.9897713,22.8046252 C12.9897713,24.7447478 14.1682057,26 15.9532604,26 C17.740304,26 18.9167495,24.7447478 18.9167495,22.8046252 C18.9167495,20.8645025 17.740304,19.6113132 15.9532604,19.6113132 L15.9532604,19.6113132 L15.9532604,19.6113132 L15.9532604,19.6113132 Z M15.9532604,24.7107106 C14.8951556,24.7107106 14.4635602,23.7741708 14.4635602,22.8046252 C14.4635602,21.8350795 14.8951556,20.8975083 15.9532604,20.8975083 C17.0123597,20.8975083 17.4449496,21.8350795 17.4449496,22.8046252 C17.4449496,23.7741708 17.0123597,24.7107106 15.9532604,24.7107106 L15.9532604,24.7107106 L15.9532604,24.7107106 L15.9532604,24.7107106 Z M20.1101009,19.696922 C19.7133115,19.696922 19.4259128,19.9444656 19.4259128,20.4343955 L19.4259128,25.1769176 C19.4259128,25.6647848 19.7133115,25.9123283 20.1101009,25.9123283 C20.5098736,25.9123283 20.7952834,25.6647848 20.7952834,25.1769176 L20.7952834,20.4343955 C20.7952834,19.9444656 20.5098736,19.696922 20.1101009,19.696922 L20.1101009,19.696922 L20.1101009,19.696922 L20.1101009,19.696922 Z M25.5557608,24.3259866 C25.1987498,24.3259866 25.0625089,24.6075675 24.2102571,24.6075675 C23.270493,24.6075675 22.7782355,23.7741708 22.7782355,22.8046252 C22.7782355,21.8598339 23.2177866,20.9490799 24.3285978,20.9490799 C24.8626225,20.9490799 25.1987498,21.2440693 25.5209547,21.2440693 C25.8769712,21.2440693 26.1136525,20.9171055 26.1136525,20.5808588 C26.1136525,19.8516367 25.1251598,19.6113132 24.2937917,19.6113132 C22.4808922,19.6113132 21.3064356,20.9490799 21.3064356,22.8046252 C21.3064356,24.5570273 22.3724961,26 24.2659469,26 C25.0197471,26 26.1663589,25.736985 26.1663589,24.9685685 C26.1663589,24.7901308 26.0957522,24.3259866 25.5557608,24.3259866 L25.5557608,24.3259866 L25.5557608,24.3259866 L25.5557608,24.3259866 Z M29.3168064,24.5755931 L27.8479898,24.5755931 L27.8479898,23.4317355 L29.1457593,23.4317355 C29.5783492,23.4317355 29.8309419,23.1831605 29.8309419,22.7881223 C29.8309419,22.3920525 29.5783492,22.1434776 29.1457593,22.1434776 L27.8479898,22.1434776 L27.8479898,21.0357201 L29.2641,21.0357201 C29.694701,21.0357201 29.9472936,20.7933337 29.9472936,20.3910754 C29.9472936,20.0042886 29.694701,19.7453993 29.2641,19.7453993 L27.1638017,19.7453993 C26.8087797,19.7453993 26.4766302,19.9970686 26.4766302,20.4436784 L26.4766302,25.1645405 C26.4766302,25.6111503 26.8087797,25.8607567 27.1638017,25.8607567 L29.3168064,25.8607567 C29.7474073,25.8607567 30,25.6059932 30,25.2192063 C30,24.8148852 29.7474073,24.5755931 29.3168064,24.5755931 L29.3168064,24.5755931 Z M29.3168064,24.5755931" id="top-choice--title-grey" fill="#3A434E" sketch:type="MSShapeGroup"></path>
        <path d="M7.25571814,49.4651213 L8.67580622,49.4651213 C9.51612445,49.4651213 9.98650376,49.0195429 9.98650376,48.3511753 C9.98650376,47.6528962 9.51612445,47.2361978 8.67580622,47.2361978 L3.30870862,47.2361978 C2.4683904,47.2361978 2,47.6528962 2,48.3511753 C2,49.0195429 2.4683904,49.4651213 3.30870862,49.4651213 L4.7287967,49.4651213 L4.7287967,56.6294447 C4.7287967,57.4762499 5.25884359,57.9073883 5.99275465,57.9073883 C6.72567126,57.9073883 7.25571814,57.4762499 7.25571814,56.6294447 L7.25571814,49.4651213 L7.25571814,49.4651213 L7.25571814,49.4651213 L7.25571814,49.4651213 Z M15.3953687,47 C12.1076858,47 9.93777525,49.1670376 9.93777525,52.5274415 C9.93777525,55.8857825 12.1076858,58.0559144 15.3953687,58.0559144 C18.6880239,58.0559144 20.8559454,55.8857825 20.8559454,52.5274415 C20.8559454,49.1670376 18.6880239,47 15.3953687,47 L15.3953687,47 L15.3953687,47 L15.3953687,47 Z M15.3953687,55.8259595 C13.4472226,55.8259595 12.653644,54.206612 12.653644,52.5274415 C12.653644,50.8472396 13.4472226,49.2320178 15.3953687,49.2320178 C17.3464981,49.2320178 18.1400767,50.8472396 18.1400767,52.5274415 C18.1400767,54.206612 17.3464981,55.8259595 15.3953687,55.8259595 L15.3953687,55.8259595 L15.3953687,55.8259595 L15.3953687,55.8259595 Z M29.9651939,50.833831 C29.9651939,48.4409098 28.1085381,47.2361978 26.1603921,47.2361978 L23.0546953,47.2361978 C22.3973576,47.2361978 21.7917318,47.6683676 21.7917318,48.4409098 L21.7917318,56.6294447 C21.7917318,57.4762499 22.3197897,57.9073883 23.0546953,57.9073883 C23.7886063,57.9073883 24.3166643,57.4762499 24.3166643,56.6294447 L24.3166643,54.4149612 L26.235971,54.4149612 C28.638585,54.4149612 29.9651939,52.8977254 29.9651939,50.833831 C29.9651939,50.833831 29.9651939,52.8977254 29.9651939,50.833831 L29.9651939,50.833831 L29.9651939,50.833831 Z M25.6741014,52.2737094 L24.3166643,52.2737094 L24.3166643,49.3774496 L25.6741014,49.3774496 C26.6725387,49.3774496 27.3447933,49.8828511 27.3447933,50.833831 C27.3447933,51.5743988 26.7501065,52.2737094 25.6741014,52.2737094 L25.6741014,52.2737094 L25.6741014,52.2737094 L25.6741014,52.2737094 Z M6.2612587,64.3259866 C5.90424776,64.3259866 5.76999574,64.6075675 4.9127717,64.6075675 C3.97300753,64.6075675 3.48174457,63.7741708 3.48174457,62.8046252 C3.48174457,61.8598339 3.9222901,60.9490799 5.03210683,60.9490799 C5.56414263,60.9490799 5.90424776,61.2440693 6.22645262,61.2440693 C6.58147464,61.2440693 6.81815599,60.9171055 6.81815599,60.5808588 C6.81815599,59.8516367 5.82767439,59.6113132 4.99829521,59.6113132 C3.18639011,59.6113132 2.00994459,60.9490799 2.00994459,62.8046252 C2.00994459,64.5570273 3.07600511,66 4.97144481,66 C5.72723398,66 6.86887342,65.736985 6.86887342,64.9685685 C6.86887342,64.7901308 6.8032391,64.3259866 6.2612587,64.3259866 L6.2612587,64.3259866 L6.2612587,64.3259866 L6.2612587,64.3259866 Z M11.7964199,59.696922 C11.3986362,59.696922 11.1112374,59.9444656 11.1112374,60.4343955 L11.1112374,62.0836545 L8.55348771,62.0836545 L8.55348771,60.4343955 C8.55348771,59.9444656 8.26608893,59.696922 7.8673107,59.696922 C7.46952692,59.696922 7.18411706,59.9444656 7.18411706,60.4343955 L7.18411706,65.1769176 C7.18411706,65.6647848 7.46952692,65.9123283 7.8673107,65.9123283 C8.26608893,65.9123283 8.55348771,65.6647848 8.55348771,65.1769176 L8.55348771,63.3719125 L11.1112374,63.3719125 L11.1112374,65.1769176 C11.1112374,65.6647848 11.3986362,65.9123283 11.7964199,65.9123283 C12.1932093,65.9123283 12.482597,65.6647848 12.482597,65.1769176 L12.482597,60.4343955 C12.482597,59.9444656 12.1932093,59.696922 11.7964199,59.696922 L11.7964199,59.696922 L11.7964199,59.696922 L11.7964199,59.696922 Z M15.9532604,59.6113132 C14.1682057,59.6113132 12.9897713,60.8645025 12.9897713,62.8046252 C12.9897713,64.7447478 14.1682057,66 15.9532604,66 C17.740304,66 18.9167495,64.7447478 18.9167495,62.8046252 C18.9167495,60.8645025 17.740304,59.6113132 15.9532604,59.6113132 L15.9532604,59.6113132 L15.9532604,59.6113132 L15.9532604,59.6113132 Z M15.9532604,64.7107106 C14.8951556,64.7107106 14.4635602,63.7741708 14.4635602,62.8046252 C14.4635602,61.8350795 14.8951556,60.8975083 15.9532604,60.8975083 C17.0123597,60.8975083 17.4449496,61.8350795 17.4449496,62.8046252 C17.4449496,63.7741708 17.0123597,64.7107106 15.9532604,64.7107106 L15.9532604,64.7107106 L15.9532604,64.7107106 L15.9532604,64.7107106 Z M20.1101009,59.696922 C19.7133115,59.696922 19.4259128,59.9444656 19.4259128,60.4343955 L19.4259128,65.1769176 C19.4259128,65.6647848 19.7133115,65.9123283 20.1101009,65.9123283 C20.5098736,65.9123283 20.7952834,65.6647848 20.7952834,65.1769176 L20.7952834,60.4343955 C20.7952834,59.9444656 20.5098736,59.696922 20.1101009,59.696922 L20.1101009,59.696922 L20.1101009,59.696922 L20.1101009,59.696922 Z M25.5557608,64.3259866 C25.1987498,64.3259866 25.0625089,64.6075675 24.2102571,64.6075675 C23.270493,64.6075675 22.7782355,63.7741708 22.7782355,62.8046252 C22.7782355,61.8598339 23.2177866,60.9490799 24.3285978,60.9490799 C24.8626225,60.9490799 25.1987498,61.2440693 25.5209547,61.2440693 C25.8769712,61.2440693 26.1136525,60.9171055 26.1136525,60.5808588 C26.1136525,59.8516367 25.1251598,59.6113132 24.2937917,59.6113132 C22.4808922,59.6113132 21.3064356,60.9490799 21.3064356,62.8046252 C21.3064356,64.5570273 22.3724961,66 24.2659469,66 C25.0197471,66 26.1663589,65.736985 26.1663589,64.9685685 C26.1663589,64.7901308 26.0957522,64.3259866 25.5557608,64.3259866 L25.5557608,64.3259866 L25.5557608,64.3259866 L25.5557608,64.3259866 Z M29.3168064,64.5755931 L27.8479898,64.5755931 L27.8479898,63.4317355 L29.1457593,63.4317355 C29.5783492,63.4317355 29.8309419,63.1831605 29.8309419,62.7881223 C29.8309419,62.3920525 29.5783492,62.1434776 29.1457593,62.1434776 L27.8479898,62.1434776 L27.8479898,61.0357201 L29.2641,61.0357201 C29.694701,61.0357201 29.9472936,60.7933337 29.9472936,60.3910754 C29.9472936,60.0042886 29.694701,59.7453993 29.2641,59.7453993 L27.1638017,59.7453993 C26.8087797,59.7453993 26.4766302,59.9970686 26.4766302,60.4436784 L26.4766302,65.1645405 C26.4766302,65.6111503 26.8087797,65.8607567 27.1638017,65.8607567 L29.3168064,65.8607567 C29.7474073,65.8607567 30,65.6059932 30,65.2192063 C30,64.8148852 29.7474073,64.5755931 29.3168064,64.5755931 L29.3168064,64.5755931 Z M29.3168064,64.5755931" id="top-choice--title-grey-copy" fill="#67737B" sketch:type="MSShapeGroup"></path>
        <path d="M7.25571814,89.4651213 L8.67580622,89.4651213 C9.51612445,89.4651213 9.98650376,89.0195429 9.98650376,88.3511753 C9.98650376,87.6528962 9.51612445,87.2361978 8.67580622,87.2361978 L3.30870862,87.2361978 C2.4683904,87.2361978 2,87.6528962 2,88.3511753 C2,89.0195429 2.4683904,89.4651213 3.30870862,89.4651213 L4.7287967,89.4651213 L4.7287967,96.6294447 C4.7287967,97.4762499 5.25884359,97.9073883 5.99275465,97.9073883 C6.72567126,97.9073883 7.25571814,97.4762499 7.25571814,96.6294447 L7.25571814,89.4651213 L7.25571814,89.4651213 L7.25571814,89.4651213 L7.25571814,89.4651213 Z M15.3953687,87 C12.1076858,87 9.93777525,89.1670376 9.93777525,92.5274415 C9.93777525,95.8857825 12.1076858,98.0559144 15.3953687,98.0559144 C18.6880239,98.0559144 20.8559454,95.8857825 20.8559454,92.5274415 C20.8559454,89.1670376 18.6880239,87 15.3953687,87 L15.3953687,87 L15.3953687,87 L15.3953687,87 Z M15.3953687,95.8259595 C13.4472226,95.8259595 12.653644,94.206612 12.653644,92.5274415 C12.653644,90.8472396 13.4472226,89.2320178 15.3953687,89.2320178 C17.3464981,89.2320178 18.1400767,90.8472396 18.1400767,92.5274415 C18.1400767,94.206612 17.3464981,95.8259595 15.3953687,95.8259595 L15.3953687,95.8259595 L15.3953687,95.8259595 L15.3953687,95.8259595 Z M29.9651939,90.833831 C29.9651939,88.4409098 28.1085381,87.2361978 26.1603921,87.2361978 L23.0546953,87.2361978 C22.3973576,87.2361978 21.7917318,87.6683676 21.7917318,88.4409098 L21.7917318,96.6294447 C21.7917318,97.4762499 22.3197897,97.9073883 23.0546953,97.9073883 C23.7886063,97.9073883 24.3166643,97.4762499 24.3166643,96.6294447 L24.3166643,94.4149612 L26.235971,94.4149612 C28.638585,94.4149612 29.9651939,92.8977254 29.9651939,90.833831 C29.9651939,90.833831 29.9651939,92.8977254 29.9651939,90.833831 L29.9651939,90.833831 L29.9651939,90.833831 Z M25.6741014,92.2737094 L24.3166643,92.2737094 L24.3166643,89.3774496 L25.6741014,89.3774496 C26.6725387,89.3774496 27.3447933,89.8828511 27.3447933,90.833831 C27.3447933,91.5743988 26.7501065,92.2737094 25.6741014,92.2737094 L25.6741014,92.2737094 L25.6741014,92.2737094 L25.6741014,92.2737094 Z M6.2612587,104.325987 C5.90424776,104.325987 5.76999574,104.607567 4.9127717,104.607567 C3.97300753,104.607567 3.48174457,103.774171 3.48174457,102.804625 C3.48174457,101.859834 3.9222901,100.94908 5.03210683,100.94908 C5.56414263,100.94908 5.90424776,101.244069 6.22645262,101.244069 C6.58147464,101.244069 6.81815599,100.917105 6.81815599,100.580859 C6.81815599,99.8516367 5.82767439,99.6113132 4.99829521,99.6113132 C3.18639011,99.6113132 2.00994459,100.94908 2.00994459,102.804625 C2.00994459,104.557027 3.07600511,106 4.97144481,106 C5.72723398,106 6.86887342,105.736985 6.86887342,104.968568 C6.86887342,104.790131 6.8032391,104.325987 6.2612587,104.325987 L6.2612587,104.325987 L6.2612587,104.325987 L6.2612587,104.325987 Z M11.7964199,99.696922 C11.3986362,99.696922 11.1112374,99.9444656 11.1112374,100.434396 L11.1112374,102.083655 L8.55348771,102.083655 L8.55348771,100.434396 C8.55348771,99.9444656 8.26608893,99.696922 7.8673107,99.696922 C7.46952692,99.696922 7.18411706,99.9444656 7.18411706,100.434396 L7.18411706,105.176918 C7.18411706,105.664785 7.46952692,105.912328 7.8673107,105.912328 C8.26608893,105.912328 8.55348771,105.664785 8.55348771,105.176918 L8.55348771,103.371912 L11.1112374,103.371912 L11.1112374,105.176918 C11.1112374,105.664785 11.3986362,105.912328 11.7964199,105.912328 C12.1932093,105.912328 12.482597,105.664785 12.482597,105.176918 L12.482597,100.434396 C12.482597,99.9444656 12.1932093,99.696922 11.7964199,99.696922 L11.7964199,99.696922 L11.7964199,99.696922 L11.7964199,99.696922 Z M15.9532604,99.6113132 C14.1682057,99.6113132 12.9897713,100.864502 12.9897713,102.804625 C12.9897713,104.744748 14.1682057,106 15.9532604,106 C17.740304,106 18.9167495,104.744748 18.9167495,102.804625 C18.9167495,100.864502 17.740304,99.6113132 15.9532604,99.6113132 L15.9532604,99.6113132 L15.9532604,99.6113132 L15.9532604,99.6113132 Z M15.9532604,104.710711 C14.8951556,104.710711 14.4635602,103.774171 14.4635602,102.804625 C14.4635602,101.83508 14.8951556,100.897508 15.9532604,100.897508 C17.0123597,100.897508 17.4449496,101.83508 17.4449496,102.804625 C17.4449496,103.774171 17.0123597,104.710711 15.9532604,104.710711 L15.9532604,104.710711 L15.9532604,104.710711 L15.9532604,104.710711 Z M20.1101009,99.696922 C19.7133115,99.696922 19.4259128,99.9444656 19.4259128,100.434396 L19.4259128,105.176918 C19.4259128,105.664785 19.7133115,105.912328 20.1101009,105.912328 C20.5098736,105.912328 20.7952834,105.664785 20.7952834,105.176918 L20.7952834,100.434396 C20.7952834,99.9444656 20.5098736,99.696922 20.1101009,99.696922 L20.1101009,99.696922 L20.1101009,99.696922 L20.1101009,99.696922 Z M25.5557608,104.325987 C25.1987498,104.325987 25.0625089,104.607567 24.2102571,104.607567 C23.270493,104.607567 22.7782355,103.774171 22.7782355,102.804625 C22.7782355,101.859834 23.2177866,100.94908 24.3285978,100.94908 C24.8626225,100.94908 25.1987498,101.244069 25.5209547,101.244069 C25.8769712,101.244069 26.1136525,100.917105 26.1136525,100.580859 C26.1136525,99.8516367 25.1251598,99.6113132 24.2937917,99.6113132 C22.4808922,99.6113132 21.3064356,100.94908 21.3064356,102.804625 C21.3064356,104.557027 22.3724961,106 24.2659469,106 C25.0197471,106 26.1663589,105.736985 26.1663589,104.968568 C26.1663589,104.790131 26.0957522,104.325987 25.5557608,104.325987 L25.5557608,104.325987 L25.5557608,104.325987 L25.5557608,104.325987 Z M29.3168064,104.575593 L27.8479898,104.575593 L27.8479898,103.431736 L29.1457593,103.431736 C29.5783492,103.431736 29.8309419,103.183161 29.8309419,102.788122 C29.8309419,102.392053 29.5783492,102.143478 29.1457593,102.143478 L27.8479898,102.143478 L27.8479898,101.03572 L29.2641,101.03572 C29.694701,101.03572 29.9472936,100.793334 29.9472936,100.391075 C29.9472936,100.004289 29.694701,99.7453993 29.2641,99.7453993 L27.1638017,99.7453993 C26.8087797,99.7453993 26.4766302,99.9970686 26.4766302,100.443678 L26.4766302,105.16454 C26.4766302,105.61115 26.8087797,105.860757 27.1638017,105.860757 L29.3168064,105.860757 C29.7474073,105.860757 30,105.605993 30,105.219206 C30,104.814885 29.7474073,104.575593 29.3168064,104.575593 L29.3168064,104.575593 Z M29.3168064,104.575593" id="top-choice--title-grey-copy-2" fill="#FFFFFF" sketch:type="MSShapeGroup"></path>
        <path d="M7.25571814,129.465121 L8.67580622,129.465121 C9.51612445,129.465121 9.98650376,129.019543 9.98650376,128.351175 C9.98650376,127.652896 9.51612445,127.236198 8.67580622,127.236198 L3.30870862,127.236198 C2.4683904,127.236198 2,127.652896 2,128.351175 C2,129.019543 2.4683904,129.465121 3.30870862,129.465121 L4.7287967,129.465121 L4.7287967,136.629445 C4.7287967,137.47625 5.25884359,137.907388 5.99275465,137.907388 C6.72567126,137.907388 7.25571814,137.47625 7.25571814,136.629445 L7.25571814,129.465121 L7.25571814,129.465121 L7.25571814,129.465121 L7.25571814,129.465121 Z M15.3953687,127 C12.1076858,127 9.93777525,129.167038 9.93777525,132.527442 C9.93777525,135.885783 12.1076858,138.055914 15.3953687,138.055914 C18.6880239,138.055914 20.8559454,135.885783 20.8559454,132.527442 C20.8559454,129.167038 18.6880239,127 15.3953687,127 L15.3953687,127 L15.3953687,127 L15.3953687,127 Z M15.3953687,135.82596 C13.4472226,135.82596 12.653644,134.206612 12.653644,132.527442 C12.653644,130.84724 13.4472226,129.232018 15.3953687,129.232018 C17.3464981,129.232018 18.1400767,130.84724 18.1400767,132.527442 C18.1400767,134.206612 17.3464981,135.82596 15.3953687,135.82596 L15.3953687,135.82596 L15.3953687,135.82596 L15.3953687,135.82596 Z M29.9651939,130.833831 C29.9651939,128.44091 28.1085381,127.236198 26.1603921,127.236198 L23.0546953,127.236198 C22.3973576,127.236198 21.7917318,127.668368 21.7917318,128.44091 L21.7917318,136.629445 C21.7917318,137.47625 22.3197897,137.907388 23.0546953,137.907388 C23.7886063,137.907388 24.3166643,137.47625 24.3166643,136.629445 L24.3166643,134.414961 L26.235971,134.414961 C28.638585,134.414961 29.9651939,132.897725 29.9651939,130.833831 C29.9651939,130.833831 29.9651939,132.897725 29.9651939,130.833831 L29.9651939,130.833831 L29.9651939,130.833831 Z M25.6741014,132.273709 L24.3166643,132.273709 L24.3166643,129.37745 L25.6741014,129.37745 C26.6725387,129.37745 27.3447933,129.882851 27.3447933,130.833831 C27.3447933,131.574399 26.7501065,132.273709 25.6741014,132.273709 L25.6741014,132.273709 L25.6741014,132.273709 L25.6741014,132.273709 Z M6.2612587,144.325987 C5.90424776,144.325987 5.76999574,144.607567 4.9127717,144.607567 C3.97300753,144.607567 3.48174457,143.774171 3.48174457,142.804625 C3.48174457,141.859834 3.9222901,140.94908 5.03210683,140.94908 C5.56414263,140.94908 5.90424776,141.244069 6.22645262,141.244069 C6.58147464,141.244069 6.81815599,140.917105 6.81815599,140.580859 C6.81815599,139.851637 5.82767439,139.611313 4.99829521,139.611313 C3.18639011,139.611313 2.00994459,140.94908 2.00994459,142.804625 C2.00994459,144.557027 3.07600511,146 4.97144481,146 C5.72723398,146 6.86887342,145.736985 6.86887342,144.968568 C6.86887342,144.790131 6.8032391,144.325987 6.2612587,144.325987 L6.2612587,144.325987 L6.2612587,144.325987 L6.2612587,144.325987 Z M11.7964199,139.696922 C11.3986362,139.696922 11.1112374,139.944466 11.1112374,140.434396 L11.1112374,142.083655 L8.55348771,142.083655 L8.55348771,140.434396 C8.55348771,139.944466 8.26608893,139.696922 7.8673107,139.696922 C7.46952692,139.696922 7.18411706,139.944466 7.18411706,140.434396 L7.18411706,145.176918 C7.18411706,145.664785 7.46952692,145.912328 7.8673107,145.912328 C8.26608893,145.912328 8.55348771,145.664785 8.55348771,145.176918 L8.55348771,143.371912 L11.1112374,143.371912 L11.1112374,145.176918 C11.1112374,145.664785 11.3986362,145.912328 11.7964199,145.912328 C12.1932093,145.912328 12.482597,145.664785 12.482597,145.176918 L12.482597,140.434396 C12.482597,139.944466 12.1932093,139.696922 11.7964199,139.696922 L11.7964199,139.696922 L11.7964199,139.696922 L11.7964199,139.696922 Z M15.9532604,139.611313 C14.1682057,139.611313 12.9897713,140.864502 12.9897713,142.804625 C12.9897713,144.744748 14.1682057,146 15.9532604,146 C17.740304,146 18.9167495,144.744748 18.9167495,142.804625 C18.9167495,140.864502 17.740304,139.611313 15.9532604,139.611313 L15.9532604,139.611313 L15.9532604,139.611313 L15.9532604,139.611313 Z M15.9532604,144.710711 C14.8951556,144.710711 14.4635602,143.774171 14.4635602,142.804625 C14.4635602,141.83508 14.8951556,140.897508 15.9532604,140.897508 C17.0123597,140.897508 17.4449496,141.83508 17.4449496,142.804625 C17.4449496,143.774171 17.0123597,144.710711 15.9532604,144.710711 L15.9532604,144.710711 L15.9532604,144.710711 L15.9532604,144.710711 Z M20.1101009,139.696922 C19.7133115,139.696922 19.4259128,139.944466 19.4259128,140.434396 L19.4259128,145.176918 C19.4259128,145.664785 19.7133115,145.912328 20.1101009,145.912328 C20.5098736,145.912328 20.7952834,145.664785 20.7952834,145.176918 L20.7952834,140.434396 C20.7952834,139.944466 20.5098736,139.696922 20.1101009,139.696922 L20.1101009,139.696922 L20.1101009,139.696922 L20.1101009,139.696922 Z M25.5557608,144.325987 C25.1987498,144.325987 25.0625089,144.607567 24.2102571,144.607567 C23.270493,144.607567 22.7782355,143.774171 22.7782355,142.804625 C22.7782355,141.859834 23.2177866,140.94908 24.3285978,140.94908 C24.8626225,140.94908 25.1987498,141.244069 25.5209547,141.244069 C25.8769712,141.244069 26.1136525,140.917105 26.1136525,140.580859 C26.1136525,139.851637 25.1251598,139.611313 24.2937917,139.611313 C22.4808922,139.611313 21.3064356,140.94908 21.3064356,142.804625 C21.3064356,144.557027 22.3724961,146 24.2659469,146 C25.0197471,146 26.1663589,145.736985 26.1663589,144.968568 C26.1663589,144.790131 26.0957522,144.325987 25.5557608,144.325987 L25.5557608,144.325987 L25.5557608,144.325987 L25.5557608,144.325987 Z M29.3168064,144.575593 L27.8479898,144.575593 L27.8479898,143.431736 L29.1457593,143.431736 C29.5783492,143.431736 29.8309419,143.183161 29.8309419,142.788122 C29.8309419,142.392053 29.5783492,142.143478 29.1457593,142.143478 L27.8479898,142.143478 L27.8479898,141.03572 L29.2641,141.03572 C29.694701,141.03572 29.9472936,140.793334 29.9472936,140.391075 C29.9472936,140.004289 29.694701,139.745399 29.2641,139.745399 L27.1638017,139.745399 C26.8087797,139.745399 26.4766302,139.997069 26.4766302,140.443678 L26.4766302,145.16454 C26.4766302,145.61115 26.8087797,145.860757 27.1638017,145.860757 L29.3168064,145.860757 C29.7474073,145.860757 30,145.605993 30,145.219206 C30,144.814885 29.7474073,144.575593 29.3168064,144.575593 L29.3168064,144.575593 Z M29.3168064,144.575593" id="top-choice--title-grey-copy-3" fill="#206FAC" sketch:type="MSShapeGroup"></path>
    </g>
</svg>