<?xml version="1.0" encoding="UTF-8" standalone="no"?>
<svg width="32px" height="232px" viewBox="0 0 32 232" version="1.1" xmlns="http://www.w3.org/2000/svg" xmlns:xlink="http://www.w3.org/1999/xlink" xmlns:sketch="http://www.bohemiancoding.com/sketch/ns">
    <title>top-choice</title>
    <description>Created with Sketch (http://www.bohemiancoding.com/sketch)</description>
    <defs></defs>
    <g id="Brand" stroke="none" stroke-width="1" fill="none" fill-rule="evenodd" sketch:type="MSPage">
        <path d="M7.25571814,169.335378 L8.67580622,169.335378 C9.51612445,169.335378 9.98650376,168.913251 9.98650376,168.280061 C9.98650376,167.618533 9.51612445,167.223766 8.67580622,167.223766 L3.30870862,167.223766 C2.4683904,167.223766 2,167.618533 2,168.280061 C2,168.913251 2.4683904,169.335378 3.30870862,169.335378 L4.7287967,169.335378 L4.7287967,176.122632 C4.7287967,176.924868 5.25884359,177.333315 5.99275465,177.333315 C6.72567126,177.333315 7.25571814,176.924868 7.25571814,176.122632 L7.25571814,169.335378 L7.25571814,169.335378 L7.25571814,169.335378 L7.25571814,169.335378 Z M15.3953687,167 C12.1076858,167 9.93777525,169.052983 9.93777525,172.236524 C9.93777525,175.41811 12.1076858,177.474024 15.3953687,177.474024 C18.6880239,177.474024 20.8559454,175.41811 20.8559454,172.236524 C20.8559454,169.052983 18.6880239,167 15.3953687,167 L15.3953687,167 L15.3953687,167 L15.3953687,167 Z M15.3953687,175.361435 C13.4472226,175.361435 12.653644,173.827317 12.653644,172.236524 C12.653644,170.644753 13.4472226,169.114543 15.3953687,169.114543 C17.3464981,169.114543 18.1400767,170.644753 18.1400767,172.236524 C18.1400767,173.827317 17.3464981,175.361435 15.3953687,175.361435 L15.3953687,175.361435 L15.3953687,175.361435 L15.3953687,175.361435 Z M29.9651939,170.63205 C29.9651939,168.365072 28.1085381,167.223766 26.1603921,167.223766 L23.0546953,167.223766 C22.3973576,167.223766 21.7917318,167.63319 21.7917318,168.365072 L21.7917318,176.122632 C21.7917318,176.924868 22.3197897,177.333315 23.0546953,177.333315 C23.7886063,177.333315 24.3166643,176.924868 24.3166643,176.122632 L24.3166643,174.0247 L26.235971,174.0247 C28.638585,174.0247 29.9651939,172.587319 29.9651939,170.63205 C29.9651939,170.63205 29.9651939,172.587319 29.9651939,170.63205 L29.9651939,170.63205 L29.9651939,170.63205 Z M25.6741014,171.996146 L24.3166643,171.996146 L24.3166643,169.252321 L25.6741014,169.252321 C26.6725387,169.252321 27.3447933,169.731122 27.3447933,170.63205 C27.3447933,171.333641 26.7501065,171.996146 25.6741014,171.996146 L25.6741014,171.996146 L25.6741014,171.996146 L25.6741014,171.996146 Z M6.2612587,183.414093 C5.90424776,183.414093 5.76999574,183.680853 4.9127717,183.680853 C3.97300753,183.680853 3.48174457,182.89132 3.48174457,181.972803 C3.48174457,181.077737 3.9222901,180.214918 5.03210683,180.214918 C5.56414263,180.214918 5.90424776,180.494381 6.22645262,180.494381 C6.58147464,180.494381 6.81815599,180.184626 6.81815599,179.866077 C6.81815599,179.175235 5.82767439,178.94756 4.99829521,178.94756 C3.18639011,178.94756 2.00994459,180.214918 2.00994459,181.972803 C2.00994459,183.632973 3.07600511,185 4.97144481,185 C5.72723398,185 6.86887342,184.750828 6.86887342,184.022854 C6.86887342,183.853808 6.8032391,183.414093 6.2612587,183.414093 L6.2612587,183.414093 L6.2612587,183.414093 L6.2612587,183.414093 Z M11.7964199,179.028663 C11.3986362,179.028663 11.1112374,179.263178 11.1112374,179.727322 L11.1112374,181.289778 L8.55348771,181.289778 L8.55348771,179.727322 C8.55348771,179.263178 8.26608893,179.028663 7.8673107,179.028663 C7.46952692,179.028663 7.18411706,179.263178 7.18411706,179.727322 L7.18411706,184.220238 C7.18411706,184.682428 7.46952692,184.916943 7.8673107,184.916943 C8.26608893,184.916943 8.55348771,184.682428 8.55348771,184.220238 L8.55348771,182.510233 L11.1112374,182.510233 L11.1112374,184.220238 C11.1112374,184.682428 11.3986362,184.916943 11.7964199,184.916943 C12.1932093,184.916943 12.482597,184.682428 12.482597,184.220238 L12.482597,179.727322 C12.482597,179.263178 12.1932093,179.028663 11.7964199,179.028663 L11.7964199,179.028663 L11.7964199,179.028663 L11.7964199,179.028663 Z M15.9532604,178.94756 C14.1682057,178.94756 12.9897713,180.134792 12.9897713,181.972803 C12.9897713,183.810814 14.1682057,185 15.9532604,185 C17.740304,185 18.9167495,183.810814 18.9167495,181.972803 C18.9167495,180.134792 17.740304,178.94756 15.9532604,178.94756 L15.9532604,178.94756 L15.9532604,178.94756 L15.9532604,178.94756 Z M15.9532604,183.778568 C14.8951556,183.778568 14.4635602,182.89132 14.4635602,181.972803 C14.4635602,181.054286 14.8951556,180.16606 15.9532604,180.16606 C17.0123597,180.16606 17.4449496,181.054286 17.4449496,181.972803 C17.4449496,182.89132 17.0123597,183.778568 15.9532604,183.778568 L15.9532604,183.778568 L15.9532604,183.778568 L15.9532604,183.778568 Z M20.1101009,179.028663 C19.7133115,179.028663 19.4259128,179.263178 19.4259128,179.727322 L19.4259128,184.220238 C19.4259128,184.682428 19.7133115,184.916943 20.1101009,184.916943 C20.5098736,184.916943 20.7952834,184.682428 20.7952834,184.220238 L20.7952834,179.727322 C20.7952834,179.263178 20.5098736,179.028663 20.1101009,179.028663 L20.1101009,179.028663 L20.1101009,179.028663 L20.1101009,179.028663 Z M25.5557608,183.414093 C25.1987498,183.414093 25.0625089,183.680853 24.2102571,183.680853 C23.270493,183.680853 22.7782355,182.89132 22.7782355,181.972803 C22.7782355,181.077737 23.2177866,180.214918 24.3285978,180.214918 C24.8626225,180.214918 25.1987498,180.494381 25.5209547,180.494381 C25.8769712,180.494381 26.1136525,180.184626 26.1136525,179.866077 C26.1136525,179.175235 25.1251598,178.94756 24.2937917,178.94756 C22.4808922,178.94756 21.3064356,180.214918 21.3064356,181.972803 C21.3064356,183.632973 22.3724961,185 24.2659469,185 C25.0197471,185 26.1663589,184.750828 26.1663589,184.022854 C26.1663589,183.853808 26.0957522,183.414093 25.5557608,183.414093 L25.5557608,183.414093 L25.5557608,183.414093 L25.5557608,183.414093 Z M29.3168064,183.650562 L27.8479898,183.650562 L27.8479898,182.566907 L29.1457593,182.566907 C29.5783492,182.566907 29.8309419,182.331415 29.8309419,181.957168 C29.8309419,181.581945 29.5783492,181.346452 29.1457593,181.346452 L27.8479898,181.346452 L27.8479898,180.296998 L29.2641,180.296998 C29.694701,180.296998 29.9472936,180.067369 29.9472936,179.686282 C29.9472936,179.319852 29.694701,179.074589 29.2641,179.074589 L27.1638017,179.074589 C26.8087797,179.074589 26.4766302,179.313012 26.4766302,179.736116 L26.4766302,184.208512 C26.4766302,184.631616 26.8087797,184.868085 27.1638017,184.868085 L29.3168064,184.868085 C29.7474073,184.868085 30,184.62673 30,184.260301 C30,183.87726 29.7474073,183.650562 29.3168064,183.650562 L29.3168064,183.650562 Z M29.3168064,183.650562" id="top-choice--lp-blue" fill="#1D4F8D" sketch:type="MSShapeGroup"></path>
        <path d="M7.25571814,129.335378 L8.67580622,129.335378 C9.51612445,129.335378 9.98650376,128.913251 9.98650376,128.280061 C9.98650376,127.618533 9.51612445,127.223766 8.67580622,127.223766 L3.30870862,127.223766 C2.4683904,127.223766 2,127.618533 2,128.280061 C2,128.913251 2.4683904,129.335378 3.30870862,129.335378 L4.7287967,129.335378 L4.7287967,136.122632 C4.7287967,136.924868 5.25884359,137.333315 5.99275465,137.333315 C6.72567126,137.333315 7.25571814,136.924868 7.25571814,136.122632 L7.25571814,129.335378 L7.25571814,129.335378 L7.25571814,129.335378 L7.25571814,129.335378 Z M15.3953687,127 C12.1076858,127 9.93777525,129.052983 9.93777525,132.236524 C9.93777525,135.41811 12.1076858,137.474024 15.3953687,137.474024 C18.6880239,137.474024 20.8559454,135.41811 20.8559454,132.236524 C20.8559454,129.052983 18.6880239,127 15.3953687,127 L15.3953687,127 L15.3953687,127 L15.3953687,127 Z M15.3953687,135.361435 C13.4472226,135.361435 12.653644,133.827317 12.653644,132.236524 C12.653644,130.644753 13.4472226,129.114543 15.3953687,129.114543 C17.3464981,129.114543 18.1400767,130.644753 18.1400767,132.236524 C18.1400767,133.827317 17.3464981,135.361435 15.3953687,135.361435 L15.3953687,135.361435 L15.3953687,135.361435 L15.3953687,135.361435 Z M29.9651939,130.63205 C29.9651939,128.365072 28.1085381,127.223766 26.1603921,127.223766 L23.0546953,127.223766 C22.3973576,127.223766 21.7917318,127.63319 21.7917318,128.365072 L21.7917318,136.122632 C21.7917318,136.924868 22.3197897,137.333315 23.0546953,137.333315 C23.7886063,137.333315 24.3166643,136.924868 24.3166643,136.122632 L24.3166643,134.0247 L26.235971,134.0247 C28.638585,134.0247 29.9651939,132.587319 29.9651939,130.63205 C29.9651939,130.63205 29.9651939,132.587319 29.9651939,130.63205 L29.9651939,130.63205 L29.9651939,130.63205 Z M25.6741014,131.996146 L24.3166643,131.996146 L24.3166643,129.252321 L25.6741014,129.252321 C26.6725387,129.252321 27.3447933,129.731122 27.3447933,130.63205 C27.3447933,131.333641 26.7501065,131.996146 25.6741014,131.996146 L25.6741014,131.996146 L25.6741014,131.996146 L25.6741014,131.996146 Z M6.2612587,143.414093 C5.90424776,143.414093 5.76999574,143.680853 4.9127717,143.680853 C3.97300753,143.680853 3.48174457,142.89132 3.48174457,141.972803 C3.48174457,141.077737 3.9222901,140.214918 5.03210683,140.214918 C5.56414263,140.214918 5.90424776,140.494381 6.22645262,140.494381 C6.58147464,140.494381 6.81815599,140.184626 6.81815599,139.866077 C6.81815599,139.175235 5.82767439,138.94756 4.99829521,138.94756 C3.18639011,138.94756 2.00994459,140.214918 2.00994459,141.972803 C2.00994459,143.632973 3.07600511,145 4.97144481,145 C5.72723398,145 6.86887342,144.750828 6.86887342,144.022854 C6.86887342,143.853808 6.8032391,143.414093 6.2612587,143.414093 L6.2612587,143.414093 L6.2612587,143.414093 L6.2612587,143.414093 Z M11.7964199,139.028663 C11.3986362,139.028663 11.1112374,139.263178 11.1112374,139.727322 L11.1112374,141.289778 L8.55348771,141.289778 L8.55348771,139.727322 C8.55348771,139.263178 8.26608893,139.028663 7.8673107,139.028663 C7.46952692,139.028663 7.18411706,139.263178 7.18411706,139.727322 L7.18411706,144.220238 C7.18411706,144.682428 7.46952692,144.916943 7.8673107,144.916943 C8.26608893,144.916943 8.55348771,144.682428 8.55348771,144.220238 L8.55348771,142.510233 L11.1112374,142.510233 L11.1112374,144.220238 C11.1112374,144.682428 11.3986362,144.916943 11.7964199,144.916943 C12.1932093,144.916943 12.482597,144.682428 12.482597,144.220238 L12.482597,139.727322 C12.482597,139.263178 12.1932093,139.028663 11.7964199,139.028663 L11.7964199,139.028663 L11.7964199,139.028663 L11.7964199,139.028663 Z M15.9532604,138.94756 C14.1682057,138.94756 12.9897713,140.134792 12.9897713,141.972803 C12.9897713,143.810814 14.1682057,145 15.9532604,145 C17.740304,145 18.9167495,143.810814 18.9167495,141.972803 C18.9167495,140.134792 17.740304,138.94756 15.9532604,138.94756 L15.9532604,138.94756 L15.9532604,138.94756 L15.9532604,138.94756 Z M15.9532604,143.778568 C14.8951556,143.778568 14.4635602,142.89132 14.4635602,141.972803 C14.4635602,141.054286 14.8951556,140.16606 15.9532604,140.16606 C17.0123597,140.16606 17.4449496,141.054286 17.4449496,141.972803 C17.4449496,142.89132 17.0123597,143.778568 15.9532604,143.778568 L15.9532604,143.778568 L15.9532604,143.778568 L15.9532604,143.778568 Z M20.1101009,139.028663 C19.7133115,139.028663 19.4259128,139.263178 19.4259128,139.727322 L19.4259128,144.220238 C19.4259128,144.682428 19.7133115,144.916943 20.1101009,144.916943 C20.5098736,144.916943 20.7952834,144.682428 20.7952834,144.220238 L20.7952834,139.727322 C20.7952834,139.263178 20.5098736,139.028663 20.1101009,139.028663 L20.1101009,139.028663 L20.1101009,139.028663 L20.1101009,139.028663 Z M25.5557608,143.414093 C25.1987498,143.414093 25.0625089,143.680853 24.2102571,143.680853 C23.270493,143.680853 22.7782355,142.89132 22.7782355,141.972803 C22.7782355,141.077737 23.2177866,140.214918 24.3285978,140.214918 C24.8626225,140.214918 25.1987498,140.494381 25.5209547,140.494381 C25.8769712,140.494381 26.1136525,140.184626 26.1136525,139.866077 C26.1136525,139.175235 25.1251598,138.94756 24.2937917,138.94756 C22.4808922,138.94756 21.3064356,140.214918 21.3064356,141.972803 C21.3064356,143.632973 22.3724961,145 24.2659469,145 C25.0197471,145 26.1663589,144.750828 26.1663589,144.022854 C26.1663589,143.853808 26.0957522,143.414093 25.5557608,143.414093 L25.5557608,143.414093 L25.5557608,143.414093 L25.5557608,143.414093 Z M29.3168064,143.650562 L27.8479898,143.650562 L27.8479898,142.566907 L29.1457593,142.566907 C29.5783492,142.566907 29.8309419,142.331415 29.8309419,141.957168 C29.8309419,141.581945 29.5783492,141.346452 29.1457593,141.346452 L27.8479898,141.346452 L27.8479898,140.296998 L29.2641,140.296998 C29.694701,140.296998 29.9472936,140.067369 29.9472936,139.686282 C29.9472936,139.319852 29.694701,139.074589 29.2641,139.074589 L27.1638017,139.074589 C26.8087797,139.074589 26.4766302,139.313012 26.4766302,139.736116 L26.4766302,144.208512 C26.4766302,144.631616 26.8087797,144.868085 27.1638017,144.868085 L29.3168064,144.868085 C29.7474073,144.868085 30,144.62673 30,144.260301 C30,143.87726 29.7474073,143.650562 29.3168064,143.650562 L29.3168064,143.650562 Z M29.3168064,143.650562" id="top-choice--white" fill="#FFFFFF" sketch:type="MSShapeGroup"></path>
        <path d="M7.25571814,89.3353781 L8.67580622,89.3353781 C9.51612445,89.3353781 9.98650376,88.9132512 9.98650376,88.2800608 C9.98650376,87.6185332 9.51612445,87.2237664 8.67580622,87.2237664 L3.30870862,87.2237664 C2.4683904,87.2237664 2,87.6185332 2,88.2800608 C2,88.9132512 2.4683904,89.3353781 3.30870862,89.3353781 L4.7287967,89.3353781 L4.7287967,96.1226318 C4.7287967,96.9248684 5.25884359,97.3333152 5.99275465,97.3333152 C6.72567126,97.3333152 7.25571814,96.9248684 7.25571814,96.1226318 L7.25571814,89.3353781 L7.25571814,89.3353781 L7.25571814,89.3353781 L7.25571814,89.3353781 Z M15.3953687,87 C12.1076858,87 9.93777525,89.052983 9.93777525,92.2365235 C9.93777525,95.4181098 12.1076858,97.4740242 15.3953687,97.4740242 C18.6880239,97.4740242 20.8559454,95.4181098 20.8559454,92.2365235 C20.8559454,89.052983 18.6880239,87 15.3953687,87 L15.3953687,87 L15.3953687,87 L15.3953687,87 Z M15.3953687,95.3614353 C13.4472226,95.3614353 12.653644,93.8273166 12.653644,92.2365235 C12.653644,90.6447533 13.4472226,89.1145432 15.3953687,89.1145432 C17.3464981,89.1145432 18.1400767,90.6447533 18.1400767,92.2365235 C18.1400767,93.8273166 17.3464981,95.3614353 15.3953687,95.3614353 L15.3953687,95.3614353 L15.3953687,95.3614353 L15.3953687,95.3614353 Z M29.9651939,90.6320504 C29.9651939,88.3650725 28.1085381,87.2237664 26.1603921,87.2237664 L23.0546953,87.2237664 C22.3973576,87.2237664 21.7917318,87.6331904 21.7917318,88.3650725 L21.7917318,96.1226318 C21.7917318,96.9248684 22.3197897,97.3333152 23.0546953,97.3333152 C23.7886063,97.3333152 24.3166643,96.9248684 24.3166643,96.1226318 L24.3166643,94.0247001 L26.235971,94.0247001 C28.638585,94.0247001 29.9651939,92.5873188 29.9651939,90.6320504 C29.9651939,90.6320504 29.9651939,92.5873188 29.9651939,90.6320504 L29.9651939,90.6320504 L29.9651939,90.6320504 Z M25.6741014,91.9961457 L24.3166643,91.9961457 L24.3166643,89.2523207 L25.6741014,89.2523207 C26.6725387,89.2523207 27.3447933,89.7311221 27.3447933,90.6320504 C27.3447933,91.333641 26.7501065,91.9961457 25.6741014,91.9961457 L25.6741014,91.9961457 L25.6741014,91.9961457 L25.6741014,91.9961457 Z M6.2612587,103.414093 C5.90424776,103.414093 5.76999574,103.680853 4.9127717,103.680853 C3.97300753,103.680853 3.48174457,102.89132 3.48174457,101.972803 C3.48174457,101.077737 3.9222901,100.214918 5.03210683,100.214918 C5.56414263,100.214918 5.90424776,100.494381 6.22645262,100.494381 C6.58147464,100.494381 6.81815599,100.184626 6.81815599,99.8660768 C6.81815599,99.1752348 5.82767439,98.9475599 4.99829521,98.9475599 C3.18639011,98.9475599 2.00994459,100.214918 2.00994459,101.972803 C2.00994459,103.632973 3.07600511,105 4.97144481,105 C5.72723398,105 6.86887342,104.750828 6.86887342,104.022854 C6.86887342,103.853808 6.8032391,103.414093 6.2612587,103.414093 L6.2612587,103.414093 L6.2612587,103.414093 L6.2612587,103.414093 Z M11.7964199,99.0286629 C11.3986362,99.0286629 11.1112374,99.2631779 11.1112374,99.7273221 L11.1112374,101.289778 L8.55348771,101.289778 L8.55348771,99.7273221 C8.55348771,99.2631779 8.26608893,99.0286629 7.8673107,99.0286629 C7.46952692,99.0286629 7.18411706,99.2631779 7.18411706,99.7273221 L7.18411706,104.220238 C7.18411706,104.682428 7.46952692,104.916943 7.8673107,104.916943 C8.26608893,104.916943 8.55348771,104.682428 8.55348771,104.220238 L8.55348771,102.510233 L11.1112374,102.510233 L11.1112374,104.220238 C11.1112374,104.682428 11.3986362,104.916943 11.7964199,104.916943 C12.1932093,104.916943 12.482597,104.682428 12.482597,104.220238 L12.482597,99.7273221 C12.482597,99.2631779 12.1932093,99.0286629 11.7964199,99.0286629 L11.7964199,99.0286629 L11.7964199,99.0286629 L11.7964199,99.0286629 Z M15.9532604,98.9475599 C14.1682057,98.9475599 12.9897713,100.134792 12.9897713,101.972803 C12.9897713,103.810814 14.1682057,105 15.9532604,105 C17.740304,105 18.9167495,103.810814 18.9167495,101.972803 C18.9167495,100.134792 17.740304,98.9475599 15.9532604,98.9475599 L15.9532604,98.9475599 L15.9532604,98.9475599 L15.9532604,98.9475599 Z M15.9532604,103.778568 C14.8951556,103.778568 14.4635602,102.89132 14.4635602,101.972803 C14.4635602,101.054286 14.8951556,100.16606 15.9532604,100.16606 C17.0123597,100.16606 17.4449496,101.054286 17.4449496,101.972803 C17.4449496,102.89132 17.0123597,103.778568 15.9532604,103.778568 L15.9532604,103.778568 L15.9532604,103.778568 L15.9532604,103.778568 Z M20.1101009,99.0286629 C19.7133115,99.0286629 19.4259128,99.2631779 19.4259128,99.7273221 L19.4259128,104.220238 C19.4259128,104.682428 19.7133115,104.916943 20.1101009,104.916943 C20.5098736,104.916943 20.7952834,104.682428 20.7952834,104.220238 L20.7952834,99.7273221 C20.7952834,99.2631779 20.5098736,99.0286629 20.1101009,99.0286629 L20.1101009,99.0286629 L20.1101009,99.0286629 L20.1101009,99.0286629 Z M25.5557608,103.414093 C25.1987498,103.414093 25.0625089,103.680853 24.2102571,103.680853 C23.270493,103.680853 22.7782355,102.89132 22.7782355,101.972803 C22.7782355,101.077737 23.2177866,100.214918 24.3285978,100.214918 C24.8626225,100.214918 25.1987498,100.494381 25.5209547,100.494381 C25.8769712,100.494381 26.1136525,100.184626 26.1136525,99.8660768 C26.1136525,99.1752348 25.1251598,98.9475599 24.2937917,98.9475599 C22.4808922,98.9475599 21.3064356,100.214918 21.3064356,101.972803 C21.3064356,103.632973 22.3724961,105 24.2659469,105 C25.0197471,105 26.1663589,104.750828 26.1663589,104.022854 C26.1663589,103.853808 26.0957522,103.414093 25.5557608,103.414093 L25.5557608,103.414093 L25.5557608,103.414093 L25.5557608,103.414093 Z M29.3168064,103.650562 L27.8479898,103.650562 L27.8479898,102.566907 L29.1457593,102.566907 C29.5783492,102.566907 29.8309419,102.331415 29.8309419,101.957168 C29.8309419,101.581945 29.5783492,101.346452 29.1457593,101.346452 L27.8479898,101.346452 L27.8479898,100.296998 L29.2641,100.296998 C29.694701,100.296998 29.9472936,100.067369 29.9472936,99.686282 C29.9472936,99.3198523 29.694701,99.0745888 29.2641,99.0745888 L27.1638017,99.0745888 C26.8087797,99.0745888 26.4766302,99.3130123 26.4766302,99.7361164 L26.4766302,104.208512 C26.4766302,104.631616 26.8087797,104.868085 27.1638017,104.868085 L29.3168064,104.868085 C29.7474073,104.868085 30,104.62673 30,104.260301 C30,103.87726 29.7474073,103.650562 29.3168064,103.650562 L29.3168064,103.650562 Z M29.3168064,103.650562" id="top-choice--subdued-grey" fill="#E5EDF5" sketch:type="MSShapeGroup"></path>
        <path d="M7.25571814,49.3353781 L8.67580622,49.3353781 C9.51612445,49.3353781 9.98650376,48.9132512 9.98650376,48.2800608 C9.98650376,47.6185332 9.51612445,47.2237664 8.67580622,47.2237664 L3.30870862,47.2237664 C2.4683904,47.2237664 2,47.6185332 2,48.2800608 C2,48.9132512 2.4683904,49.3353781 3.30870862,49.3353781 L4.7287967,49.3353781 L4.7287967,56.1226318 C4.7287967,56.9248684 5.25884359,57.3333152 5.99275465,57.3333152 C6.72567126,57.3333152 7.25571814,56.9248684 7.25571814,56.1226318 L7.25571814,49.3353781 L7.25571814,49.3353781 L7.25571814,49.3353781 L7.25571814,49.3353781 Z M15.3953687,47 C12.1076858,47 9.93777525,49.052983 9.93777525,52.2365235 C9.93777525,55.4181098 12.1076858,57.4740242 15.3953687,57.4740242 C18.6880239,57.4740242 20.8559454,55.4181098 20.8559454,52.2365235 C20.8559454,49.052983 18.6880239,47 15.3953687,47 L15.3953687,47 L15.3953687,47 L15.3953687,47 Z M15.3953687,55.3614353 C13.4472226,55.3614353 12.653644,53.8273166 12.653644,52.2365235 C12.653644,50.6447533 13.4472226,49.1145432 15.3953687,49.1145432 C17.3464981,49.1145432 18.1400767,50.6447533 18.1400767,52.2365235 C18.1400767,53.8273166 17.3464981,55.3614353 15.3953687,55.3614353 L15.3953687,55.3614353 L15.3953687,55.3614353 L15.3953687,55.3614353 Z M29.9651939,50.6320504 C29.9651939,48.3650725 28.1085381,47.2237664 26.1603921,47.2237664 L23.0546953,47.2237664 C22.3973576,47.2237664 21.7917318,47.6331904 21.7917318,48.3650725 L21.7917318,56.1226318 C21.7917318,56.9248684 22.3197897,57.3333152 23.0546953,57.3333152 C23.7886063,57.3333152 24.3166643,56.9248684 24.3166643,56.1226318 L24.3166643,54.0247001 L26.235971,54.0247001 C28.638585,54.0247001 29.9651939,52.5873188 29.9651939,50.6320504 C29.9651939,50.6320504 29.9651939,52.5873188 29.9651939,50.6320504 L29.9651939,50.6320504 L29.9651939,50.6320504 Z M25.6741014,51.9961457 L24.3166643,51.9961457 L24.3166643,49.2523207 L25.6741014,49.2523207 C26.6725387,49.2523207 27.3447933,49.7311221 27.3447933,50.6320504 C27.3447933,51.333641 26.7501065,51.9961457 25.6741014,51.9961457 L25.6741014,51.9961457 L25.6741014,51.9961457 L25.6741014,51.9961457 Z M6.2612587,63.4140926 C5.90424776,63.4140926 5.76999574,63.6808534 4.9127717,63.6808534 C3.97300753,63.6808534 3.48174457,62.8913197 3.48174457,61.9728028 C3.48174457,61.0777374 3.9222901,60.2149178 5.03210683,60.2149178 C5.56414263,60.2149178 5.90424776,60.4943814 6.22645262,60.4943814 C6.58147464,60.4943814 6.81815599,60.1846262 6.81815599,59.8660768 C6.81815599,59.1752348 5.82767439,58.9475599 4.99829521,58.9475599 C3.18639011,58.9475599 2.00994459,60.2149178 2.00994459,61.9728028 C2.00994459,63.6329732 3.07600511,65 4.97144481,65 C5.72723398,65 6.86887342,64.7508279 6.86887342,64.0228544 C6.86887342,63.8538082 6.8032391,63.4140926 6.2612587,63.4140926 L6.2612587,63.4140926 L6.2612587,63.4140926 L6.2612587,63.4140926 Z M11.7964199,59.0286629 C11.3986362,59.0286629 11.1112374,59.2631779 11.1112374,59.7273221 L11.1112374,61.289778 L8.55348771,61.289778 L8.55348771,59.7273221 C8.55348771,59.2631779 8.26608893,59.0286629 7.8673107,59.0286629 C7.46952692,59.0286629 7.18411706,59.2631779 7.18411706,59.7273221 L7.18411706,64.2202378 C7.18411706,64.6824277 7.46952692,64.9169426 7.8673107,64.9169426 C8.26608893,64.9169426 8.55348771,64.6824277 8.55348771,64.2202378 L8.55348771,62.5102329 L11.1112374,62.5102329 L11.1112374,64.2202378 C11.1112374,64.6824277 11.3986362,64.9169426 11.7964199,64.9169426 C12.1932093,64.9169426 12.482597,64.6824277 12.482597,64.2202378 L12.482597,59.7273221 C12.482597,59.2631779 12.1932093,59.0286629 11.7964199,59.0286629 L11.7964199,59.0286629 L11.7964199,59.0286629 L11.7964199,59.0286629 Z M15.9532604,58.9475599 C14.1682057,58.9475599 12.9897713,60.1347918 12.9897713,61.9728028 C12.9897713,63.8108137 14.1682057,65 15.9532604,65 C17.740304,65 18.9167495,63.8108137 18.9167495,61.9728028 C18.9167495,60.1347918 17.740304,58.9475599 15.9532604,58.9475599 L15.9532604,58.9475599 L15.9532604,58.9475599 L15.9532604,58.9475599 Z M15.9532604,63.7785679 C14.8951556,63.7785679 14.4635602,62.8913197 14.4635602,61.9728028 C14.4635602,61.0542859 14.8951556,60.1660605 15.9532604,60.1660605 C17.0123597,60.1660605 17.4449496,61.0542859 17.4449496,61.9728028 C17.4449496,62.8913197 17.0123597,63.7785679 15.9532604,63.7785679 L15.9532604,63.7785679 L15.9532604,63.7785679 L15.9532604,63.7785679 Z M20.1101009,59.0286629 C19.7133115,59.0286629 19.4259128,59.2631779 19.4259128,59.7273221 L19.4259128,64.2202378 C19.4259128,64.6824277 19.7133115,64.9169426 20.1101009,64.9169426 C20.5098736,64.9169426 20.7952834,64.6824277 20.7952834,64.2202378 L20.7952834,59.7273221 C20.7952834,59.2631779 20.5098736,59.0286629 20.1101009,59.0286629 L20.1101009,59.0286629 L20.1101009,59.0286629 L20.1101009,59.0286629 Z M25.5557608,63.4140926 C25.1987498,63.4140926 25.0625089,63.6808534 24.2102571,63.6808534 C23.270493,63.6808534 22.7782355,62.8913197 22.7782355,61.9728028 C22.7782355,61.0777374 23.2177866,60.2149178 24.3285978,60.2149178 C24.8626225,60.2149178 25.1987498,60.4943814 25.5209547,60.4943814 C25.8769712,60.4943814 26.1136525,60.1846262 26.1136525,59.8660768 C26.1136525,59.1752348 25.1251598,58.9475599 24.2937917,58.9475599 C22.4808922,58.9475599 21.3064356,60.2149178 21.3064356,61.9728028 C21.3064356,63.6329732 22.3724961,65 24.2659469,65 C25.0197471,65 26.1663589,64.7508279 26.1663589,64.0228544 C26.1663589,63.8538082 26.0957522,63.4140926 25.5557608,63.4140926 L25.5557608,63.4140926 L25.5557608,63.4140926 L25.5557608,63.4140926 Z M29.3168064,63.6505619 L27.8479898,63.6505619 L27.8479898,62.5669073 L29.1457593,62.5669073 C29.5783492,62.5669073 29.8309419,62.3314152 29.8309419,61.9571684 C29.8309419,61.5819445 29.5783492,61.3464524 29.1457593,61.3464524 L27.8479898,61.3464524 L27.8479898,60.296998 L29.2641,60.296998 C29.694701,60.296998 29.9472936,60.0673688 29.9472936,59.686282 C29.9472936,59.3198523 29.694701,59.0745888 29.2641,59.0745888 L27.1638017,59.0745888 C26.8087797,59.0745888 26.4766302,59.3130123 26.4766302,59.7361164 L26.4766302,64.208512 C26.4766302,64.6316161 26.8087797,64.8680853 27.1638017,64.8680853 L29.3168064,64.8680853 C29.7474073,64.8680853 30,64.6267304 30,64.2603007 C30,63.8772596 29.7474073,63.6505619 29.3168064,63.6505619 L29.3168064,63.6505619 Z M29.3168064,63.6505619" id="top-choice--body-grey" fill="#67737B" sketch:type="MSShapeGroup"></path>
        <path d="M7.25571814,9.3353781 L8.67580622,9.3353781 C9.51612445,9.3353781 9.98650376,8.91325118 9.98650376,8.2800608 C9.98650376,7.6185332 9.51612445,7.22376635 8.67580622,7.22376635 L3.30870862,7.22376635 C2.4683904,7.22376635 2,7.6185332 2,8.2800608 C2,8.91325118 2.4683904,9.3353781 3.30870862,9.3353781 L4.7287967,9.3353781 L4.7287967,16.1226318 C4.7287967,16.9248684 5.25884359,17.3333152 5.99275465,17.3333152 C6.72567126,17.3333152 7.25571814,16.9248684 7.25571814,16.1226318 L7.25571814,9.3353781 L7.25571814,9.3353781 L7.25571814,9.3353781 L7.25571814,9.3353781 Z M15.3953687,7 C12.1076858,7 9.93777525,9.05298301 9.93777525,12.2365235 C9.93777525,15.4181098 12.1076858,17.4740242 15.3953687,17.4740242 C18.6880239,17.4740242 20.8559454,15.4181098 20.8559454,12.2365235 C20.8559454,9.05298301 18.6880239,7 15.3953687,7 L15.3953687,7 L15.3953687,7 L15.3953687,7 Z M15.3953687,15.3614353 C13.4472226,15.3614353 12.653644,13.8273166 12.653644,12.2365235 C12.653644,10.6447533 13.4472226,9.11454318 15.3953687,9.11454318 C17.3464981,9.11454318 18.1400767,10.6447533 18.1400767,12.2365235 C18.1400767,13.8273166 17.3464981,15.3614353 15.3953687,15.3614353 L15.3953687,15.3614353 L15.3953687,15.3614353 L15.3953687,15.3614353 Z M29.9651939,10.6320504 C29.9651939,8.36507247 28.1085381,7.22376635 26.1603921,7.22376635 L23.0546953,7.22376635 C22.3973576,7.22376635 21.7917318,7.63319038 21.7917318,8.36507247 L21.7917318,16.1226318 C21.7917318,16.9248684 22.3197897,17.3333152 23.0546953,17.3333152 C23.7886063,17.3333152 24.3166643,16.9248684 24.3166643,16.1226318 L24.3166643,14.0247001 L26.235971,14.0247001 C28.638585,14.0247001 29.9651939,12.5873188 29.9651939,10.6320504 C29.9651939,10.6320504 29.9651939,12.5873188 29.9651939,10.6320504 L29.9651939,10.6320504 L29.9651939,10.6320504 Z M25.6741014,11.9961457 L24.3166643,11.9961457 L24.3166643,9.25232072 L25.6741014,9.25232072 C26.6725387,9.25232072 27.3447933,9.73112209 27.3447933,10.6320504 C27.3447933,11.333641 26.7501065,11.9961457 25.6741014,11.9961457 L25.6741014,11.9961457 L25.6741014,11.9961457 L25.6741014,11.9961457 Z M6.2612587,23.4140926 C5.90424776,23.4140926 5.76999574,23.6808534 4.9127717,23.6808534 C3.97300753,23.6808534 3.48174457,22.8913197 3.48174457,21.9728028 C3.48174457,21.0777374 3.9222901,20.2149178 5.03210683,20.2149178 C5.56414263,20.2149178 5.90424776,20.4943814 6.22645262,20.4943814 C6.58147464,20.4943814 6.81815599,20.1846262 6.81815599,19.8660768 C6.81815599,19.1752348 5.82767439,18.9475599 4.99829521,18.9475599 C3.18639011,18.9475599 2.00994459,20.2149178 2.00994459,21.9728028 C2.00994459,23.6329732 3.07600511,25 4.97144481,25 C5.72723398,25 6.86887342,24.7508279 6.86887342,24.0228544 C6.86887342,23.8538082 6.8032391,23.4140926 6.2612587,23.4140926 L6.2612587,23.4140926 L6.2612587,23.4140926 L6.2612587,23.4140926 Z M11.7964199,19.0286629 C11.3986362,19.0286629 11.1112374,19.2631779 11.1112374,19.7273221 L11.1112374,21.289778 L8.55348771,21.289778 L8.55348771,19.7273221 C8.55348771,19.2631779 8.26608893,19.0286629 7.8673107,19.0286629 C7.46952692,19.0286629 7.18411706,19.2631779 7.18411706,19.7273221 L7.18411706,24.2202378 C7.18411706,24.6824277 7.46952692,24.9169426 7.8673107,24.9169426 C8.26608893,24.9169426 8.55348771,24.6824277 8.55348771,24.2202378 L8.55348771,22.5102329 L11.1112374,22.5102329 L11.1112374,24.2202378 C11.1112374,24.6824277 11.3986362,24.9169426 11.7964199,24.9169426 C12.1932093,24.9169426 12.482597,24.6824277 12.482597,24.2202378 L12.482597,19.7273221 C12.482597,19.2631779 12.1932093,19.0286629 11.7964199,19.0286629 L11.7964199,19.0286629 L11.7964199,19.0286629 L11.7964199,19.0286629 Z M15.9532604,18.9475599 C14.1682057,18.9475599 12.9897713,20.1347918 12.9897713,21.9728028 C12.9897713,23.8108137 14.1682057,25 15.9532604,25 C17.740304,25 18.9167495,23.8108137 18.9167495,21.9728028 C18.9167495,20.1347918 17.740304,18.9475599 15.9532604,18.9475599 L15.9532604,18.9475599 L15.9532604,18.9475599 L15.9532604,18.9475599 Z M15.9532604,23.7785679 C14.8951556,23.7785679 14.4635602,22.8913197 14.4635602,21.9728028 C14.4635602,21.0542859 14.8951556,20.1660605 15.9532604,20.1660605 C17.0123597,20.1660605 17.4449496,21.0542859 17.4449496,21.9728028 C17.4449496,22.8913197 17.0123597,23.7785679 15.9532604,23.7785679 L15.9532604,23.7785679 L15.9532604,23.7785679 L15.9532604,23.7785679 Z M20.1101009,19.0286629 C19.7133115,19.0286629 19.4259128,19.2631779 19.4259128,19.7273221 L19.4259128,24.2202378 C19.4259128,24.6824277 19.7133115,24.9169426 20.1101009,24.9169426 C20.5098736,24.9169426 20.7952834,24.6824277 20.7952834,24.2202378 L20.7952834,19.7273221 C20.7952834,19.2631779 20.5098736,19.0286629 20.1101009,19.0286629 L20.1101009,19.0286629 L20.1101009,19.0286629 L20.1101009,19.0286629 Z M25.5557608,23.4140926 C25.1987498,23.4140926 25.0625089,23.6808534 24.2102571,23.6808534 C23.270493,23.6808534 22.7782355,22.8913197 22.7782355,21.9728028 C22.7782355,21.0777374 23.2177866,20.2149178 24.3285978,20.2149178 C24.8626225,20.2149178 25.1987498,20.4943814 25.5209547,20.4943814 C25.8769712,20.4943814 26.1136525,20.1846262 26.1136525,19.8660768 C26.1136525,19.1752348 25.1251598,18.9475599 24.2937917,18.9475599 C22.4808922,18.9475599 21.3064356,20.2149178 21.3064356,21.9728028 C21.3064356,23.6329732 22.3724961,25 24.2659469,25 C25.0197471,25 26.1663589,24.7508279 26.1663589,24.0228544 C26.1663589,23.8538082 26.0957522,23.4140926 25.5557608,23.4140926 L25.5557608,23.4140926 L25.5557608,23.4140926 L25.5557608,23.4140926 Z M29.3168064,23.6505619 L27.8479898,23.6505619 L27.8479898,22.5669073 L29.1457593,22.5669073 C29.5783492,22.5669073 29.8309419,22.3314152 29.8309419,21.9571684 C29.8309419,21.5819445 29.5783492,21.3464524 29.1457593,21.3464524 L27.8479898,21.3464524 L27.8479898,20.296998 L29.2641,20.296998 C29.694701,20.296998 29.9472936,20.0673688 29.9472936,19.686282 C29.9472936,19.3198523 29.694701,19.0745888 29.2641,19.0745888 L27.1638017,19.0745888 C26.8087797,19.0745888 26.4766302,19.3130123 26.4766302,19.7361164 L26.4766302,24.208512 C26.4766302,24.6316161 26.8087797,24.8680853 27.1638017,24.8680853 L29.3168064,24.8680853 C29.7474073,24.8680853 30,24.6267304 30,24.2603007 C30,23.8772596 29.7474073,23.6505619 29.3168064,23.6505619 L29.3168064,23.6505619 Z M29.3168064,23.6505619" id="top-choice--title-grey" fill="#3A434E" sketch:type="MSShapeGroup"></path>
    </g>
</svg>