<svg width="22" height="32" viewBox="0 0 22 32" xmlns="http://www.w3.org/2000/svg"><title>tour--pin</title><g fill="none"><path d="M15.504 29.984c0 1.105-2.016 2-4.5 2-2.486 0-4.5-.895-4.5-2 0-1.104 2.014-2 4.5-2 2.484 0 4.5.896 4.5 2" fill-opacity=".2" fill="#1D508D"/><path d="M11.004.016c6.075 0 11 4.362 11 10.919 0 6.408-5.55 9.16-8.506 13.257-2.42 3.346-2.494 5.824-2.494 5.824s-.018-2.491-2.495-5.824c-3.039-4.097-8.505-6.661-8.505-13.257 0-6.559 4.925-10.919 11-10.919" fill="#16C98D"/><path d="M11.004 17.2c3.646 0 6.6-2.953 6.6-6.597 0-3.644-2.954-6.602-6.6-6.602-3.646 0-6.601 2.958-6.601 6.602s2.955 6.597 6.601 6.597zm0-11.036c2.453 0 4.437 1.987 4.437 4.439 0 2.45-1.984 4.435-4.437 4.435-2.451 0-4.438-1.985-4.438-4.435 0-2.452 1.987-4.439 4.438-4.439zm.866 5.307l1.931-3.669-3.666 1.929-2.059 3.797 3.794-2.057zm-1.358-1.177l.797.8-1.745.947.948-1.747zm0 0" fill="#fff"/></g></svg>