<svg width="32" height="232" viewBox="0 0 32 232" xmlns="http://www.w3.org/2000/svg"><title>tour--line</title><g fill="none"><path d="M16 123c-7.168 0-13 5.834-13 13.001s5.832 12.999 13 12.999c7.166 0 13-5.832 13-12.999 0-7.167-5.834-13.001-13-13.001zm0 24.016c-6.076 0-11.018-4.943-11.018-11.015 0-6.077 4.942-11.017 11.018-11.017 6.074 0 11.015 4.94 11.015 11.017 0 6.072-4.941 11.015-11.015 11.015zm0-20.078c-4.998 0-9.061 4.066-9.061 9.063 0 4.997 4.063 9.061 9.061 9.061 4.994 0 9.062-4.064 9.062-9.061s-4.068-9.063-9.062-9.063zm-2.965 12.025l3.93-2.133 1.998-3.796-3.793 2.001-2.135 3.928zm2.965 4.715c-4.237 0-7.678-3.446-7.678-7.677 0-4.235 3.441-7.679 7.678-7.679 4.232 0 7.679 3.444 7.679 7.679 0 4.231-3.447 7.677-7.679 7.677zm0 0" fill="#206FAC"/><path d="M16 83c-7.168 0-13 5.834-13 13.001s5.832 12.999 13 12.999c7.166 0 13-5.832 13-12.999 0-7.167-5.834-13.001-13-13.001zm0 24.016c-6.076 0-11.018-4.943-11.018-11.015 0-6.077 4.942-11.017 11.018-11.017 6.074 0 11.015 4.94 11.015 11.017 0 6.072-4.941 11.015-11.015 11.015zm0-20.078c-4.998 0-9.061 4.066-9.061 9.063 0 4.997 4.063 9.061 9.061 9.061 4.994 0 9.062-4.064 9.062-9.061s-4.068-9.063-9.062-9.063zm-2.965 12.025l3.93-2.133 1.998-3.796-3.793 2.001-2.135 3.928zm2.965 4.715c-4.237 0-7.678-3.446-7.678-7.677 0-4.235 3.441-7.679 7.678-7.679 4.232 0 7.679 3.444 7.679 7.679 0 4.231-3.447 7.677-7.679 7.677zm0 0" fill="#fff"/><path d="M16 43c-7.168 0-13 5.834-13 13.001s5.832 12.999 13 12.999c7.166 0 13-5.832 13-12.999 0-7.167-5.834-13.001-13-13.001zm0 24.016c-6.076 0-11.018-4.943-11.018-11.015 0-6.077 4.942-11.017 11.018-11.017 6.074 0 11.015 4.94 11.015 11.017 0 6.072-4.941 11.015-11.015 11.015zm0-20.078c-4.998 0-9.061 4.066-9.061 9.063 0 4.997 4.063 9.061 9.061 9.061 4.994 0 9.062-4.064 9.062-9.061s-4.068-9.063-9.062-9.063zm-2.965 12.025l3.93-2.133 1.998-3.796-3.793 2.001-2.135 3.928zm2.965 4.715c-4.237 0-7.678-3.446-7.678-7.677 0-4.235 3.441-7.679 7.678-7.679 4.232 0 7.679 3.444 7.679 7.679 0 4.231-3.447 7.677-7.679 7.677zm0 0" fill="#67747C"/><path d="M16 3c-7.168 0-13 5.834-13 13.001s5.832 12.999 13 12.999c7.166 0 13-5.832 13-12.999 0-7.167-5.834-13.001-13-13.001zm0 24.016c-6.076 0-11.018-4.943-11.018-11.015 0-6.077 4.942-11.017 11.018-11.017 6.074 0 11.015 4.94 11.015 11.017 0 6.072-4.941 11.015-11.015 11.015zm0-20.078c-4.998 0-9.061 4.066-9.061 9.063 0 4.997 4.063 9.061 9.061 9.061 4.994 0 9.062-4.064 9.062-9.061s-4.068-9.063-9.062-9.063zm-2.965 12.025l3.93-2.133 1.998-3.796-3.793 2.001-2.135 3.928zm2.965 4.715c-4.237 0-7.678-3.446-7.678-7.677 0-4.235 3.441-7.679 7.678-7.679 4.232 0 7.679 3.444 7.679 7.679 0 4.231-3.447 7.677-7.679 7.677zm0 0" fill="#3B444F"/><path d="M16 163c-7.168 0-13 5.834-13 13.001s5.832 12.999 13 12.999c7.166 0 13-5.832 13-12.999 0-7.167-5.834-13.001-13-13.001zm0 24.016c-6.076 0-11.018-4.943-11.018-11.015 0-6.077 4.942-11.017 11.018-11.017 6.074 0 11.015 4.94 11.015 11.017 0 6.072-4.941 11.015-11.015 11.015zm0-20.078c-4.998 0-9.061 4.066-9.061 9.063 0 4.997 4.063 9.061 9.061 9.061 4.994 0 9.062-4.064 9.062-9.061s-4.068-9.063-9.062-9.063zm-2.965 12.025l3.93-2.133 1.998-3.796-3.793 2.001-2.135 3.928zm2.965 4.715c-4.237 0-7.678-3.446-7.678-7.677 0-4.235 3.441-7.679 7.678-7.679 4.232 0 7.679 3.444 7.679 7.679 0 4.231-3.447 7.677-7.679 7.677zm0 0" fill="#16C98D"/></g></svg>