<?xml version="1.0" encoding="UTF-8" standalone="no"?>
<svg width="32px" height="32px" viewBox="0 0 32 32" version="1.1" xmlns="http://www.w3.org/2000/svg" xmlns:xlink="http://www.w3.org/1999/xlink" xmlns:sketch="http://www.bohemiancoding.com/sketch/ns">
    <title>tour--body-grey</title>
    <description>Created with Sketch (http://www.bohemiancoding.com/sketch)</description>
    <defs></defs>
    <g id="Page-1" stroke="none" stroke-width="1" fill="none" fill-rule="evenodd" sketch:type="MSPage">
        <path d="M16,29 C8.822,29 3,23.183 3,16.001 C3,8.825 8.822,3 16,3 C23.178,3 29,8.825 29,16.001 C29,23.183 23.178,29 16,29 L16,29 L16,29 L16,29 Z M16,7.258 C11.17,7.258 7.256,11.171 7.256,16.001 C7.256,20.831 11.17,24.745 16,24.745 C20.832,24.745 24.742,20.831 24.742,16.001 C24.742,11.171 20.832,7.258 16,7.258 L16,7.258 L16,7.258 L16,7.258 Z M17.705,17.71 L10.23,21.771 L14.285,14.292 L21.506,10.485 L17.705,17.71 L17.705,17.71 L17.705,17.71 L17.705,17.71 Z M15.023,15.397 L13.164,18.831 L16.6,16.968 L15.023,15.397 L15.023,15.397 Z M15.023,15.397" id="tour--body-grey" fill="#67747C" sketch:type="MSShapeGroup"></path>
    </g>
</svg>