<svg width="32" height="232" viewBox="0 0 32 232" xmlns="http://www.w3.org/2000/svg"><title>tour</title><g fill="none"><path d="M16 189c-7.178 0-13-5.817-13-12.999 0-7.176 5.822-13.001 13-13.001s13 5.825 13 13.001c0 7.182-5.822 12.999-13 12.999zm0-21.742c-4.83 0-8.744 3.913-8.744 8.743s3.914 8.744 8.744 8.744c4.832 0 8.742-3.914 8.742-8.744s-3.91-8.743-8.742-8.743zm1.705 10.452l-7.475 4.061 4.055-7.479 7.221-3.807-3.801 7.225zm-2.682-2.313l-1.859 3.434 3.436-1.863-1.577-1.571zm0 0" fill="#16C98D"/><path d="M16 149c-7.178 0-13-5.817-13-12.999 0-7.176 5.822-13.001 13-13.001s13 5.825 13 13.001c0 7.182-5.822 12.999-13 12.999zm0-21.742c-4.83 0-8.744 3.913-8.744 8.743s3.914 8.744 8.744 8.744c4.832 0 8.742-3.914 8.742-8.744s-3.91-8.743-8.742-8.743zm1.705 10.452l-7.475 4.061 4.055-7.479 7.221-3.807-3.801 7.225zm-2.682-2.313l-1.859 3.434 3.436-1.863-1.577-1.571zm0 0" fill="#206FAC"/><path d="M16 109c-7.178 0-13-5.817-13-12.999 0-7.176 5.822-13.001 13-13.001s13 5.825 13 13.001c0 7.182-5.822 12.999-13 12.999zm0-21.742c-4.83 0-8.744 3.913-8.744 8.743s3.914 8.744 8.744 8.744c4.832 0 8.742-3.914 8.742-8.744s-3.91-8.743-8.742-8.743zm1.705 10.452l-7.475 4.061 4.055-7.479 7.221-3.807-3.801 7.225zm-2.682-2.313l-1.859 3.434 3.436-1.863-1.577-1.571zm0 0" fill="#fff"/><path d="M16 69c-7.178 0-13-5.817-13-12.999 0-7.176 5.822-13.001 13-13.001s13 5.825 13 13.001c0 7.182-5.822 12.999-13 12.999zm0-21.742c-4.83 0-8.744 3.913-8.744 8.743s3.914 8.744 8.744 8.744c4.832 0 8.742-3.914 8.742-8.744s-3.91-8.743-8.742-8.743zm1.705 10.452l-7.475 4.061 4.055-7.479 7.221-3.807-3.801 7.225zm-2.682-2.313l-1.859 3.434 3.436-1.863-1.577-1.571zm0 0" fill="#67747C"/><path d="M16 29c-7.178 0-13-5.817-13-12.999 0-7.176 5.822-13.001 13-13.001s13 5.825 13 13.001c0 7.182-5.822 12.999-13 12.999zm0-21.742c-4.83 0-8.744 3.913-8.744 8.743s3.914 8.744 8.744 8.744c4.832 0 8.742-3.914 8.742-8.744s-3.91-8.743-8.742-8.743zm1.705 10.452l-7.475 4.061 4.055-7.479 7.221-3.807-3.801 7.225zm-2.682-2.313l-1.859 3.434 3.436-1.863-1.577-1.571zm0 0" fill="#3B444F"/></g></svg>