<svg width="32" height="232" viewBox="0 0 32 232" xmlns="http://www.w3.org/2000/svg"><title>towel</title><g fill="none"><path d="M25.655 150.867l-8.033-3.524c-.74-.324-1.955-.336-2.701-.025l-8.566 3.574c-.745.312-1.355-.073-1.355-.854v-24.617c0-.781.666-1.421 1.479-1.421h19.041c.815 0 1.48.64 1.48 1.421v24.617c0 .781-.605 1.155-1.345.83zm0 0" fill="#206FAC"/><path d="M25.655 110.867l-8.033-3.524c-.74-.324-1.955-.336-2.701-.025l-8.566 3.574c-.745.312-1.355-.073-1.355-.854v-24.617c0-.781.666-1.421 1.479-1.421h19.041c.815 0 1.48.64 1.48 1.421v24.617c0 .781-.605 1.155-1.345.83zm0 0" fill="#fff"/><path d="M25.655 70.867l-8.033-3.524c-.74-.324-1.955-.336-2.701-.025l-8.566 3.574c-.745.312-1.355-.073-1.355-.854v-24.617c0-.781.666-1.421 1.479-1.421h19.041c.815 0 1.48.64 1.48 1.421v24.617c0 .781-.605 1.155-1.345.83zm0 0" fill="#67737B"/><path d="M25.655 30.867l-8.033-3.524c-.74-.324-1.955-.336-2.701-.025l-8.566 3.574c-.745.312-1.355-.073-1.355-.854v-24.617c0-.781.666-1.421 1.479-1.421h19.041c.815 0 1.48.64 1.48 1.421v24.617c0 .781-.605 1.155-1.345.83zm0 0" fill="#3A434E"/></g></svg>