<svg width="32" height="232" viewBox="0 0 32 232" xmlns="http://www.w3.org/2000/svg"><title>train</title><g fill="none"><path d="M11.928 143.731h8.144l3.741 4.519c.265.412.732.672 1.228.672.799 0 1.459-.666 1.459-1.461 0-.303-.097-.606-.273-.846l-2.704-2.884h.245c1.509 0 2.732-1.057 2.732-2.331v-5.963l-1.973-11.109c0-1.281-1.228-2.328-2.734-2.328h-11.875c-1.508 0-2.737 1.047-2.737 2.328l-1.593 11.041v6.031c0 1.274 1.227 2.331 2.733 2.331h.156l-2.703 2.884c-.177.24-.274.543-.274.846 0 .795.66 1.461 1.459 1.461.496 0 .963-.26 1.228-.672l3.741-4.519zm-2.363-18.36c0-.646.609-1.156 1.364-1.156h9.849c.751 0 1.367.51 1.367 1.156l1.97 10.289c0 .635-.603 1.168-1.357 1.168h-13.429c-.753 0-1.362-.533-1.362-1.168l1.598-10.289zm.447 16.912c-1.157 0-2.099-.955-2.099-2.099 0-1.157.942-2.102 2.099-2.102 1.154 0 2.095.945 2.095 2.102 0 1.144-.941 2.099-2.095 2.099zm12.278 0c-1.151 0-2.092-.955-2.092-2.099 0-1.157.941-2.102 2.092-2.102 1.157 0 2.096.945 2.096 2.102 0 1.144-.939 2.099-2.096 2.099zm0 0" fill="#206FAC"/><path d="M11.928 103.731h8.144l3.741 4.519c.265.412.732.672 1.228.672.799 0 1.459-.666 1.459-1.461 0-.303-.097-.606-.273-.846l-2.704-2.884h.245c1.509 0 2.732-1.057 2.732-2.331v-5.963l-1.973-11.109c0-1.281-1.228-2.328-2.734-2.328h-11.875c-1.508 0-2.737 1.047-2.737 2.328l-1.593 11.041v6.031c0 1.274 1.227 2.331 2.733 2.331h.156l-2.703 2.884c-.177.24-.274.543-.274.846 0 .795.66 1.461 1.459 1.461.496 0 .963-.26 1.228-.672l3.741-4.519zm-2.363-18.36c0-.646.609-1.156 1.364-1.156h9.849c.751 0 1.367.51 1.367 1.156l1.97 10.289c0 .635-.603 1.168-1.357 1.168h-13.429c-.753 0-1.362-.533-1.362-1.168l1.598-10.289zm.447 16.912c-1.157 0-2.099-.955-2.099-2.099 0-1.157.942-2.102 2.099-2.102 1.154 0 2.095.945 2.095 2.102 0 1.144-.941 2.099-2.095 2.099zm12.278 0c-1.151 0-2.092-.955-2.092-2.099 0-1.157.941-2.102 2.092-2.102 1.157 0 2.096.945 2.096 2.102 0 1.144-.939 2.099-2.096 2.099zm0 0" fill="#fff"/><path d="M11.928 63.731h8.144l3.741 4.519c.265.412.732.672 1.228.672.799 0 1.459-.666 1.459-1.461 0-.303-.097-.606-.273-.846l-2.704-2.884h.245c1.509 0 2.732-1.057 2.732-2.331v-5.963l-1.973-11.109c0-1.281-1.228-2.328-2.734-2.328h-11.875c-1.508 0-2.737 1.047-2.737 2.328l-1.593 11.041v6.031c0 1.274 1.227 2.331 2.733 2.331h.156l-2.703 2.884c-.177.24-.274.543-.274.846 0 .795.66 1.461 1.459 1.461.496 0 .963-.26 1.228-.672l3.741-4.519zm-2.363-18.36c0-.646.609-1.156 1.364-1.156h9.849c.751 0 1.367.51 1.367 1.156l1.97 10.289c0 .635-.603 1.168-1.357 1.168h-13.429c-.753 0-1.362-.533-1.362-1.168l1.598-10.289zm.447 16.912c-1.157 0-2.099-.955-2.099-2.099 0-1.157.942-2.102 2.099-2.102 1.154 0 2.095.945 2.095 2.102 0 1.144-.941 2.099-2.095 2.099zm12.278 0c-1.151 0-2.092-.955-2.092-2.099 0-1.157.941-2.102 2.092-2.102 1.157 0 2.096.945 2.096 2.102 0 1.144-.939 2.099-2.096 2.099zm0 0" fill="#67737B"/><path d="M11.928 23.731h8.144l3.741 4.519c.265.412.732.672 1.228.672.799 0 1.459-.666 1.459-1.461 0-.303-.097-.606-.273-.846l-2.704-2.884h.245c1.509 0 2.732-1.057 2.732-2.331v-5.963l-1.973-11.109c0-1.281-1.228-2.328-2.734-2.328h-11.875c-1.508 0-2.737 1.047-2.737 2.328l-1.593 11.041v6.031c0 1.274 1.227 2.331 2.733 2.331h.156l-2.703 2.884c-.177.24-.274.543-.274.846 0 .795.66 1.461 1.459 1.461.496 0 .963-.26 1.228-.672l3.741-4.519zm-2.363-18.36c0-.646.609-1.156 1.364-1.156h9.849c.751 0 1.367.51 1.367 1.156l1.97 10.289c0 .635-.603 1.168-1.357 1.168h-13.429c-.753 0-1.362-.533-1.362-1.168l1.598-10.289zm.447 16.912c-1.157 0-2.099-.955-2.099-2.099 0-1.157.942-2.102 2.099-2.102 1.154 0 2.095.945 2.095 2.102 0 1.144-.941 2.099-2.095 2.099zm12.278 0c-1.151 0-2.092-.955-2.092-2.099 0-1.157.941-2.102 2.092-2.102 1.157 0 2.096.945 2.096 2.102 0 1.144-.939 2.099-2.096 2.099zm0 0" fill="#3A434E"/></g></svg>