<svg width="32" height="232" xmlns="http://www.w3.org/2000/svg" xmlns:sketch="http://www.bohemiancoding.com/sketch/ns"><title>tram</title><g sketch:type="MSPage" fill="none"><path d="M23.756 126.679h-6.027l.818-2.487h2.764c.601 0 1.091-.494 1.091-1.095 0-.603-.49-1.097-1.091-1.097h-10.619c-.603 0-1.094.494-1.094 1.097 0 .601.491 1.095 1.094 1.095h3.263l-.816 2.487h-4.894c-1.509 0-2.745 1.006-2.745 2.232v13.93c0 1.194 1.176 2.172 2.631 2.219l-.99 1.598c-.18.254-.275.551-.275.861 0 .813.656 1.481 1.464 1.481.5 0 .964-.255 1.237-.69l2.011-3.238h8.846l2.01 3.238c.275.435.736.69 1.236.69.809 0 1.465-.668 1.465-1.481 0-.311-.095-.607-.276-.861l-.989-1.594c1.455-.052 2.63-1.029 2.63-2.224v-13.93c0-1.226-1.234-2.232-2.744-2.232m-7.759 17.01c-1.159 0-2.102-.902-2.102-2.007 0-1.11.943-2.01 2.102-2.01 1.161 0 2.105.9 2.105 2.01 0 1.105-.944 2.007-2.105 2.007m8.11-6.342c0 .611-.617 1.117-1.371 1.117h-13.47c-.756 0-1.372-.506-1.372-1.117v-7.353c0-.611.616-1.115 1.372-1.115h13.47c.754 0 1.371.504 1.371 1.115v7.353" fill="#206FAC" sketch:type="MSShapeGroup"/><path d="M23.756 86.679h-6.027l.818-2.487h2.764c.601 0 1.091-.494 1.091-1.095 0-.603-.49-1.097-1.091-1.097h-10.619c-.603 0-1.094.494-1.094 1.097 0 .601.491 1.095 1.094 1.095h3.263l-.816 2.487h-4.894c-1.509 0-2.745 1.006-2.745 2.232v13.93c0 1.194 1.176 2.172 2.631 2.219l-.99 1.598c-.18.254-.275.551-.275.861 0 .813.656 1.481 1.464 1.481.5 0 .964-.255 1.237-.69l2.011-3.238h8.846l2.01 3.238c.275.435.736.69 1.236.69.809 0 1.465-.668 1.465-1.481 0-.311-.095-.607-.276-.861l-.989-1.594c1.455-.052 2.63-1.029 2.63-2.224v-13.93c0-1.226-1.234-2.232-2.744-2.232m-7.759 17.01c-1.159 0-2.102-.902-2.102-2.007 0-1.11.943-2.01 2.102-2.01 1.161 0 2.105.9 2.105 2.01 0 1.105-.944 2.007-2.105 2.007m8.11-6.342c0 .611-.617 1.117-1.371 1.117h-13.47c-.756 0-1.372-.506-1.372-1.117v-7.353c0-.611.616-1.115 1.372-1.115h13.47c.754 0 1.371.504 1.371 1.115v7.353" fill="#fff" sketch:type="MSShapeGroup"/><path d="M23.756 46.679h-6.027l.818-2.487h2.764c.601 0 1.091-.494 1.091-1.095 0-.603-.49-1.097-1.091-1.097h-10.619c-.603 0-1.094.494-1.094 1.097 0 .601.491 1.095 1.094 1.095h3.263l-.816 2.487h-4.894c-1.509 0-2.745 1.006-2.745 2.232v13.93c0 1.194 1.176 2.172 2.631 2.219l-.99 1.598c-.18.254-.275.551-.275.861 0 .813.656 1.481 1.464 1.481.5 0 .964-.255 1.237-.69l2.011-3.238h8.846l2.01 3.238c.275.435.736.69 1.236.69.809 0 1.465-.668 1.465-1.481 0-.311-.095-.607-.276-.861l-.989-1.594c1.455-.052 2.63-1.029 2.63-2.224v-13.93c0-1.226-1.234-2.232-2.744-2.232m-7.759 17.01c-1.159 0-2.102-.902-2.102-2.007 0-1.11.943-2.01 2.102-2.01 1.161 0 2.105.9 2.105 2.01 0 1.105-.944 2.007-2.105 2.007m8.11-6.342c0 .611-.617 1.117-1.371 1.117h-13.47c-.756 0-1.372-.506-1.372-1.117v-7.353c0-.611.616-1.115 1.372-1.115h13.47c.754 0 1.371.504 1.371 1.115v7.353" fill="#67737B" sketch:type="MSShapeGroup"/><path d="M23.756 6.679h-6.027l.818-2.487h2.764c.601 0 1.091-.494 1.091-1.095 0-.603-.49-1.097-1.091-1.097h-10.619c-.603 0-1.094.494-1.094 1.097 0 .601.491 1.095 1.094 1.095h3.263l-.816 2.487h-4.894c-1.509 0-2.745 1.006-2.745 2.232v13.93c0 1.194 1.176 2.172 2.631 2.219l-.99 1.598c-.18.254-.275.551-.275.861 0 .813.656 1.481 1.464 1.481.5 0 .964-.255 1.237-.69l2.011-3.238h8.846l2.01 3.238c.275.435.736.69 1.236.69.809 0 1.465-.668 1.465-1.481 0-.311-.095-.607-.276-.861l-.989-1.594c1.455-.052 2.63-1.029 2.63-2.224v-13.93c0-1.226-1.234-2.232-2.744-2.232m-7.759 17.01c-1.159 0-2.102-.902-2.102-2.007 0-1.11.943-2.01 2.102-2.01 1.161 0 2.105.9 2.105 2.01 0 1.105-.944 2.007-2.105 2.007m8.11-6.342c0 .611-.617 1.117-1.371 1.117h-13.47c-.756 0-1.372-.506-1.372-1.117v-7.353c0-.611.616-1.115 1.372-1.115h13.47c.754 0 1.371.504 1.371 1.115v7.353" fill="#3A434E" sketch:type="MSShapeGroup"/></g></svg>