<?xml version="1.0" encoding="UTF-8" standalone="no"?>
<svg width="22px" height="32px" viewBox="0 0 22 32" version="1.1" xmlns="http://www.w3.org/2000/svg" xmlns:xlink="http://www.w3.org/1999/xlink" xmlns:sketch="http://www.bohemiancoding.com/sketch/ns">
    <title>transport--pin</title>
    <description>Created with Sketch (http://www.bohemiancoding.com/sketch)</description>
    <defs></defs>
    <g id="Points-of-interest" stroke="none" stroke-width="1" fill="none" fill-rule="evenodd" sketch:type="MSPage">
        <g id="transport--pin" sketch:type="MSLayerGroup" transform="translate(-1.000000, -0.300000)">
            <path d="M16.497,30.016 C16.497,31.12 14.481,32.016 11.997,32.016 C9.511,32.016 7.497,31.12 7.497,30.016 C7.497,28.911 9.511,28.016 11.997,28.016 C14.481,28.016 16.497,28.911 16.497,30.016" id="Fill-1" fill-opacity="0.2" fill="#1D508D" sketch:type="MSShapeGroup"></path>
            <path d="M11.996,0.319 C18.072,0.319 22.997,4.682 22.997,11.238 C22.997,17.647 17.446,20.398 14.491,24.496 C12.073,27.842 11.996,30.319 11.996,30.319 C11.996,30.319 11.979,27.829 9.501,24.496 C6.461,20.398 0.997,17.835 0.997,11.238 C0.997,4.68 5.922,0.319 11.996,0.319" id="Fill-2" fill="#3B444F" sketch:type="MSShapeGroup"></path>
            <path d="M17.168,6.865 C17.168,6.168 16.666,5.486 15.808,5.486 L8.185,5.488 C7.327,5.488 6.826,6.168 6.826,6.867 C6.826,7.542 7.227,8.242 8.185,8.242 L10.6,8.24 L10.6,15.93 C10.6,16.932 11.237,17.486 12.096,17.486 C12.952,17.486 13.594,16.93 13.594,15.93 L13.594,8.24 L15.808,8.244 C16.765,8.244 17.168,7.542 17.168,6.865" id="Fill-3" fill="#FFFFFF" sketch:type="MSShapeGroup"></path>
        </g>
    </g>
</svg>