<?xml version="1.0" encoding="UTF-8" standalone="no"?>
<svg width="32px" height="232px" viewBox="0 0 32 232" version="1.1" xmlns="http://www.w3.org/2000/svg" xmlns:xlink="http://www.w3.org/1999/xlink" xmlns:sketch="http://www.bohemiancoding.com/sketch/ns">
    <title>transfers</title>
    <description>Created with Sketch (http://www.bohemiancoding.com/sketch)</description>
    <defs></defs>
    <g id="Hotel-facilities" stroke="none" stroke-width="1" fill="none" fill-rule="evenodd" sketch:type="MSPage">
        <path d="M23.754,124 L8.248,124 C6.732,124 5.5,125.108 5.5,126.476 L5.5,143.383 C5.5,144.209 5.949,144.936 6.638,145.375 C6.617,145.939 6.691,146.471 6.691,146.735 L6.691,146.836 C6.691,148.033 7.683,149 8.9,149 C10.119,149 11.115,148.033 11.115,146.836 L11.115,146.735 C11.115,146.548 11.15,146.223 11.173,145.866 L20.955,145.866 C20.972,146.223 21.009,146.548 21.009,146.735 L21.009,146.836 C21.009,148.033 22.005,149 23.224,149 C24.443,149 25.441,148.033 25.441,146.836 L25.441,146.735 C25.441,146.458 25.523,145.888 25.492,145.293 C26.101,144.842 26.5,144.148 26.5,143.383 L26.5,126.476 C26.5,125.108 25.269,124 23.754,124 L23.754,124 L23.754,124 L23.754,124 Z M7.89,127.734 C7.89,127.049 8.503,126.502 9.261,126.502 L22.738,126.502 C23.492,126.502 24.105,127.049 24.105,127.734 L24.105,137.265 C24.105,137.944 23.492,138.508 22.738,138.508 L9.261,138.508 C8.503,138.508 7.89,137.944 7.89,137.265 L7.89,127.734 L7.89,127.734 L7.89,127.734 L7.89,127.734 Z M9.785,144.102 C8.621,144.102 7.683,143.154 7.683,141.991 C7.683,140.832 8.621,139.882 9.785,139.882 C10.949,139.882 11.886,140.832 11.886,141.991 C11.886,143.154 10.949,144.102 9.785,144.102 L9.785,144.102 L9.785,144.102 L9.785,144.102 Z M22.123,144.102 C20.955,144.102 20.013,143.154 20.013,141.991 C20.013,140.832 20.955,139.882 22.123,139.882 C23.273,139.882 24.226,140.832 24.226,141.991 C24.226,143.154 23.273,144.102 22.123,144.102 L22.123,144.102 Z M22.123,144.102" id="transfers--white" fill="#206FAC" sketch:type="MSShapeGroup"></path>
        <path d="M23.754,84 L8.248,84 C6.732,84 5.5,85.108 5.5,86.476 L5.5,103.383 C5.5,104.209 5.949,104.936 6.638,105.375 C6.617,105.939 6.691,106.471 6.691,106.735 L6.691,106.836 C6.691,108.033 7.683,109 8.9,109 C10.119,109 11.115,108.033 11.115,106.836 L11.115,106.735 C11.115,106.548 11.15,106.223 11.173,105.866 L20.955,105.866 C20.972,106.223 21.009,106.548 21.009,106.735 L21.009,106.836 C21.009,108.033 22.005,109 23.224,109 C24.443,109 25.441,108.033 25.441,106.836 L25.441,106.735 C25.441,106.458 25.523,105.888 25.492,105.293 C26.101,104.842 26.5,104.148 26.5,103.383 L26.5,86.476 C26.5,85.108 25.269,84 23.754,84 L23.754,84 L23.754,84 L23.754,84 Z M7.89,87.734 C7.89,87.049 8.503,86.502 9.261,86.502 L22.738,86.502 C23.492,86.502 24.105,87.049 24.105,87.734 L24.105,97.265 C24.105,97.944 23.492,98.508 22.738,98.508 L9.261,98.508 C8.503,98.508 7.89,97.944 7.89,97.265 L7.89,87.734 L7.89,87.734 L7.89,87.734 L7.89,87.734 Z M9.785,104.102 C8.621,104.102 7.683,103.154 7.683,101.991 C7.683,100.832 8.621,99.882 9.785,99.882 C10.949,99.882 11.886,100.832 11.886,101.991 C11.886,103.154 10.949,104.102 9.785,104.102 L9.785,104.102 L9.785,104.102 L9.785,104.102 Z M22.123,104.102 C20.955,104.102 20.013,103.154 20.013,101.991 C20.013,100.832 20.955,99.882 22.123,99.882 C23.273,99.882 24.226,100.832 24.226,101.991 C24.226,103.154 23.273,104.102 22.123,104.102 L22.123,104.102 Z M22.123,104.102" id="transfers--white" fill="#FFFFFF" sketch:type="MSShapeGroup"></path>
        <path d="M23.754,44 L8.248,44 C6.732,44 5.5,45.108 5.5,46.476 L5.5,63.383 C5.5,64.209 5.949,64.936 6.638,65.375 C6.617,65.939 6.691,66.471 6.691,66.735 L6.691,66.836 C6.691,68.033 7.683,69 8.9,69 C10.119,69 11.115,68.033 11.115,66.836 L11.115,66.735 C11.115,66.548 11.15,66.223 11.173,65.866 L20.955,65.866 C20.972,66.223 21.009,66.548 21.009,66.735 L21.009,66.836 C21.009,68.033 22.005,69 23.224,69 C24.443,69 25.441,68.033 25.441,66.836 L25.441,66.735 C25.441,66.458 25.523,65.888 25.492,65.293 C26.101,64.842 26.5,64.148 26.5,63.383 L26.5,46.476 C26.5,45.108 25.269,44 23.754,44 L23.754,44 L23.754,44 L23.754,44 Z M7.89,47.734 C7.89,47.049 8.503,46.502 9.261,46.502 L22.738,46.502 C23.492,46.502 24.105,47.049 24.105,47.734 L24.105,57.265 C24.105,57.944 23.492,58.508 22.738,58.508 L9.261,58.508 C8.503,58.508 7.89,57.944 7.89,57.265 L7.89,47.734 L7.89,47.734 L7.89,47.734 L7.89,47.734 Z M9.785,64.102 C8.621,64.102 7.683,63.154 7.683,61.991 C7.683,60.832 8.621,59.882 9.785,59.882 C10.949,59.882 11.886,60.832 11.886,61.991 C11.886,63.154 10.949,64.102 9.785,64.102 L9.785,64.102 L9.785,64.102 L9.785,64.102 Z M22.123,64.102 C20.955,64.102 20.013,63.154 20.013,61.991 C20.013,60.832 20.955,59.882 22.123,59.882 C23.273,59.882 24.226,60.832 24.226,61.991 C24.226,63.154 23.273,64.102 22.123,64.102 L22.123,64.102 Z M22.123,64.102" id="transfers--light-grey" fill="#67737B" sketch:type="MSShapeGroup"></path>
        <path d="M23.754,4 L8.248,4 C6.732,4 5.5,5.108 5.5,6.476 L5.5,23.383 C5.5,24.209 5.949,24.936 6.638,25.375 C6.617,25.939 6.691,26.471 6.691,26.735 L6.691,26.836 C6.691,28.033 7.683,29 8.9,29 C10.119,29 11.115,28.033 11.115,26.836 L11.115,26.735 C11.115,26.548 11.15,26.223 11.173,25.866 L20.955,25.866 C20.972,26.223 21.009,26.548 21.009,26.735 L21.009,26.836 C21.009,28.033 22.005,29 23.224,29 C24.443,29 25.441,28.033 25.441,26.836 L25.441,26.735 C25.441,26.458 25.523,25.888 25.492,25.293 C26.101,24.842 26.5,24.148 26.5,23.383 L26.5,6.476 C26.5,5.108 25.269,4 23.754,4 L23.754,4 L23.754,4 L23.754,4 Z M7.89,7.734 C7.89,7.049 8.503,6.502 9.261,6.502 L22.738,6.502 C23.492,6.502 24.105,7.049 24.105,7.734 L24.105,17.265 C24.105,17.944 23.492,18.508 22.738,18.508 L9.261,18.508 C8.503,18.508 7.89,17.944 7.89,17.265 L7.89,7.734 L7.89,7.734 L7.89,7.734 L7.89,7.734 Z M9.785,24.102 C8.621,24.102 7.683,23.154 7.683,21.991 C7.683,20.832 8.621,19.882 9.785,19.882 C10.949,19.882 11.886,20.832 11.886,21.991 C11.886,23.154 10.949,24.102 9.785,24.102 L9.785,24.102 L9.785,24.102 L9.785,24.102 Z M22.123,24.102 C20.955,24.102 20.013,23.154 20.013,21.991 C20.013,20.832 20.955,19.882 22.123,19.882 C23.273,19.882 24.226,20.832 24.226,21.991 C24.226,23.154 23.273,24.102 22.123,24.102 L22.123,24.102 Z M22.123,24.102" id="transfers--dark-grey" fill="#3A434E" sketch:type="MSShapeGroup"></path>
    </g>
</svg>