<svg width="22" height="32" xmlns="http://www.w3.org/2000/svg" xmlns:sketch="http://www.bohemiancoding.com/sketch/ns"><title>transport--pin</title><g sketch:type="MSLayerGroup" fill="none"><path d="M15.497 29.716c0 1.104-2.016 2-4.5 2-2.486 0-4.5-.896-4.5-2 0-1.105 2.014-2 4.5-2 2.484 0 4.5.895 4.5 2" fill-opacity=".2" fill="#1D508D" sketch:type="MSShapeGroup"/><path d="M10.996.019c6.076 0 11.001 4.363 11.001 10.919 0 6.409-5.551 9.16-8.506 13.258-2.418 3.346-2.495 5.823-2.495 5.823s-.017-2.49-2.495-5.823c-3.04-4.098-8.504-6.661-8.504-13.258 0-6.558 4.925-10.919 10.999-10.919" fill="#3B444F" sketch:type="MSShapeGroup"/><path d="M16.168 6.565c0-.697-.502-1.379-1.36-1.379l-7.623.002c-.858 0-1.359.68-1.359 1.379 0 .675.401 1.375 1.359 1.375l2.415-.002v7.69c0 1.002.637 1.556 1.496 1.556.856 0 1.498-.556 1.498-1.556v-7.69l2.214.004c.957 0 1.36-.702 1.36-1.379" fill="#fff" sketch:type="MSShapeGroup"/></g></svg>