<?xml version="1.0" encoding="UTF-8" standalone="no"?>
<svg width="32px" height="32px" viewBox="0 0 32 32" version="1.1" xmlns="http://www.w3.org/2000/svg" xmlns:xlink="http://www.w3.org/1999/xlink" xmlns:sketch="http://www.bohemiancoding.com/sketch/ns">
    <title>transport-pin--title-grey</title>
    <description>Created with Sketch (http://www.bohemiancoding.com/sketch)</description>
    <defs></defs>
    <g id="Points-of-interest" stroke="none" stroke-width="1" fill="none" fill-rule="evenodd" sketch:type="MSPage">
        <path d="M15.9989697,0 C22.6279729,0 28,4.654 28,11.648 C28,18.482 21.9459088,21.417 18.7200137,25.788 C16.083455,29.357 15.9989697,32 15.9989697,32 C15.9989697,32 15.9793938,29.344 13.278956,25.788 C9.96033313,21.417 4,18.684 4,11.648 C4,4.652 9.37305744,0 15.9989697,0 Z M21.63,6.983 C21.63,6.24 21.095,5.511 20.179,5.511 L12.05,5.514 C11.135,5.514 10.6,6.24 10.6,6.984 C10.6,7.705 11.026,8.45 12.05,8.45 L14.624,8.449 L14.624,16.652 C14.624,17.72 15.304,18.312 16.22,18.312 C17.135,18.312 17.817,17.718 17.817,16.652 L17.817,8.449 L20.179,8.452 C21.201,8.452 21.63,7.705 21.63,6.983 Z M21.63,6.983" id="transport-pin--title-grey" fill="#3B444F" sketch:type="MSShapeGroup"></path>
    </g>
</svg>