<svg width="32" height="32" viewBox="0 0 32 32" xmlns="http://www.w3.org/2000/svg" xmlns:sketch="http://www.bohemiancoding.com/sketch/ns"><title>transport-pin--title-grey</title><path d="M15.999 0c6.629 0 12.001 4.654 12.001 11.648 0 6.834-6.054 9.769-9.28 14.14-2.637 3.569-2.721 6.212-2.721 6.212s-.02-2.656-2.72-6.212c-3.319-4.371-9.279-7.104-9.279-14.14 0-6.996 5.373-11.648 11.999-11.648zm5.631 6.983c0-.743-.535-1.472-1.451-1.472l-8.129.003c-.915 0-1.45.726-1.45 1.47 0 .721.426 1.466 1.45 1.466l2.574-.001v8.203c0 1.068.68 1.66 1.596 1.66.915 0 1.597-.594 1.597-1.66v-8.203l2.362.003c1.022 0 1.451-.747 1.451-1.469zm0 0" fill="#3B444F" sketch:type="MSShapeGroup"/></svg>