<svg width="32" height="232" viewBox="0 0 32 232" xmlns="http://www.w3.org/2000/svg"><title>trash</title><g fill="none"><path d="M25.455 126.093h-4.633v-1.809c0-1.259-1.014-2.284-2.266-2.284h-4.339c-1.255 0-2.271 1.025-2.271 2.284v1.809h-5.405c-.852 0-1.542.689-1.542 1.551v.497c0 .857.689 1.554 1.542 1.554h18.913c.851 0 1.545-.697 1.545-1.554v-.497c0-.861-.694-1.551-1.545-1.551zm-6.511 0h-5.121v-1.809c0-.215.178-.396.395-.396h4.339c.214 0 .387.181.387.396v1.809zm5.071 5.564h-16.137c-.852 0-1.545.695-1.545 1.552v14.239c0 .853.692 1.553 1.545 1.553h16.137c.847 0 1.542-.699 1.542-1.553v-14.239c0-.856-.694-1.552-1.542-1.552zm-12.271 12.676c0 .659-.532 1.194-1.19 1.194h-.154c-.653 0-1.182-.535-1.182-1.194v-8.38c0-.657.529-1.19 1.182-1.19h.154c.659 0 1.19.533 1.19 1.19v8.38zm5.396 0c0 .659-.529 1.194-1.178 1.194h-.16c-.654 0-1.182-.535-1.182-1.194v-8.38c0-.657.529-1.19 1.182-1.19h.16c.649 0 1.178.533 1.178 1.19v8.38zm5.411 0c0 .659-.532 1.194-1.184 1.194h-.16c-.653 0-1.182-.535-1.182-1.194v-8.38c0-.657.529-1.19 1.182-1.19h.16c.652 0 1.184.533 1.184 1.19v8.38zm0 0" fill="#206FAC"/><path d="M25.455 86.093h-4.633v-1.809c0-1.259-1.014-2.284-2.266-2.284h-4.339c-1.255 0-2.271 1.025-2.271 2.284v1.809h-5.405c-.852 0-1.542.689-1.542 1.551v.497c0 .857.689 1.554 1.542 1.554h18.913c.851 0 1.545-.697 1.545-1.554v-.497c0-.861-.694-1.551-1.545-1.551zm-6.511 0h-5.121v-1.809c0-.215.178-.396.395-.396h4.339c.214 0 .387.181.387.396v1.809zm5.071 5.564h-16.137c-.852 0-1.545.695-1.545 1.552v14.239c0 .853.692 1.552 1.545 1.552h16.137c.847 0 1.542-.699 1.542-1.552v-14.239c0-.856-.694-1.552-1.542-1.552zm-12.271 12.676c0 .659-.532 1.194-1.19 1.194h-.154c-.653 0-1.182-.535-1.182-1.194v-8.38c0-.657.529-1.19 1.182-1.19h.154c.659 0 1.19.533 1.19 1.19v8.38zm5.396 0c0 .659-.529 1.194-1.178 1.194h-.16c-.654 0-1.182-.535-1.182-1.194v-8.38c0-.657.529-1.19 1.182-1.19h.16c.649 0 1.178.533 1.178 1.19v8.38zm5.411 0c0 .659-.532 1.194-1.184 1.194h-.16c-.653 0-1.182-.535-1.182-1.194v-8.38c0-.657.529-1.19 1.182-1.19h.16c.652 0 1.184.533 1.184 1.19v8.38zm0 0" fill="#fff"/><path d="M25.455 46.093h-4.633v-1.809c0-1.259-1.014-2.284-2.266-2.284h-4.339c-1.255 0-2.271 1.025-2.271 2.284v1.809h-5.405c-.852 0-1.542.689-1.542 1.551v.497c0 .857.689 1.554 1.542 1.554h18.913c.851 0 1.545-.697 1.545-1.554v-.497c0-.861-.694-1.551-1.545-1.551zm-6.511 0h-5.121v-1.809c0-.215.178-.396.395-.396h4.339c.214 0 .387.181.387.396v1.809zm5.071 5.564h-16.137c-.852 0-1.545.695-1.545 1.552v14.239c0 .853.692 1.552 1.545 1.552h16.137c.847 0 1.542-.699 1.542-1.552v-14.239c0-.856-.694-1.552-1.542-1.552zm-12.271 12.676c0 .659-.532 1.194-1.19 1.194h-.154c-.653 0-1.182-.535-1.182-1.194v-8.38c0-.657.529-1.19 1.182-1.19h.154c.659 0 1.19.533 1.19 1.19v8.38zm5.396 0c0 .659-.529 1.194-1.178 1.194h-.16c-.654 0-1.182-.535-1.182-1.194v-8.38c0-.657.529-1.19 1.182-1.19h.16c.649 0 1.178.533 1.178 1.19v8.38zm5.411 0c0 .659-.532 1.194-1.184 1.194h-.16c-.653 0-1.182-.535-1.182-1.194v-8.38c0-.657.529-1.19 1.182-1.19h.16c.652 0 1.184.533 1.184 1.19v8.38zm0 0" fill="#67737B"/><path d="M25.455 6.093h-4.633v-1.809c0-1.259-1.014-2.284-2.266-2.284h-4.339c-1.255 0-2.271 1.025-2.271 2.284v1.809h-5.405c-.852 0-1.542.689-1.542 1.551v.497c0 .857.689 1.554 1.542 1.554h18.913c.851 0 1.545-.697 1.545-1.554v-.497c0-.861-.694-1.551-1.545-1.551zm-6.511 0h-5.121v-1.809c0-.215.178-.396.395-.396h4.339c.214 0 .387.181.387.396v1.809zm5.071 5.564h-16.137c-.852 0-1.545.695-1.545 1.552v14.239c0 .853.692 1.552 1.545 1.552h16.137c.847 0 1.542-.699 1.542-1.552v-14.239c0-.856-.694-1.552-1.542-1.552zm-12.271 12.676c0 .659-.532 1.194-1.19 1.194h-.154c-.653 0-1.182-.535-1.182-1.194v-8.38c0-.657.529-1.19 1.182-1.19h.154c.659 0 1.19.533 1.19 1.19v8.38zm5.396 0c0 .659-.529 1.194-1.178 1.194h-.16c-.654 0-1.182-.535-1.182-1.194v-8.38c0-.657.529-1.19 1.182-1.19h.16c.649 0 1.178.533 1.178 1.19v8.38zm5.411 0c0 .659-.532 1.194-1.184 1.194h-.16c-.653 0-1.182-.535-1.182-1.194v-8.38c0-.657.529-1.19 1.182-1.19h.16c.652 0 1.184.533 1.184 1.19v8.38zm0 0" fill="#3A434E"/></g></svg>