<svg width="32" height="232" xmlns="http://www.w3.org/2000/svg" xmlns:sketch="http://www.bohemiancoding.com/sketch/ns"><title>tube</title><g sketch:type="MSPage" fill="none"><path d="M27.734 135.227h-1.634c-.969-4.699-5.12-8.227-10.1-8.227-4.984.005-9.137 3.532-10.1 8.227h-1.634c-.424 0-.766.268-.766.596v3.008c0 .324.342.594.766.594h1.63c.963 4.689 5.12 8.216 10.104 8.216 4.984 0 9.135-3.527 10.102-8.216h1.632c.426 0 .766-.27.766-.594v-3.008c0-.328-.34-.596-.766-.596zm-11.734 8.725c-2.932-.006-5.408-1.899-6.285-4.527h12.568c-.879 2.628-3.359 4.521-6.283 4.527zm-6.283-8.725c.877-2.634 3.353-4.537 6.283-4.545 2.924.008 5.404 1.911 6.283 4.545h-12.566zm0 0" fill="#206FAC" sketch:type="MSShapeGroup"/><path d="M27.734 95.227h-1.634c-.969-4.699-5.12-8.227-10.1-8.227-4.984.005-9.137 3.532-10.1 8.227h-1.634c-.424 0-.766.268-.766.596v3.008c0 .324.342.594.766.594h1.63c.963 4.689 5.12 8.216 10.104 8.216 4.984 0 9.135-3.527 10.102-8.216h1.632c.426 0 .766-.27.766-.594v-3.008c0-.328-.34-.596-.766-.596zm-11.734 8.725c-2.932-.006-5.408-1.899-6.285-4.527h12.568c-.879 2.628-3.359 4.521-6.283 4.527zm-6.283-8.725c.877-2.634 3.353-4.537 6.283-4.545 2.924.008 5.404 1.911 6.283 4.545h-12.566zm0 0" fill="#fff" sketch:type="MSShapeGroup"/><path d="M27.734 55.227h-1.634c-.969-4.699-5.12-8.227-10.1-8.227-4.984.005-9.137 3.532-10.1 8.227h-1.634c-.424 0-.766.268-.766.596v3.008c0 .324.342.594.766.594h1.63c.963 4.689 5.12 8.216 10.104 8.216 4.984 0 9.135-3.527 10.102-8.216h1.632c.426 0 .766-.27.766-.594v-3.008c0-.328-.34-.596-.766-.596zm-11.734 8.725c-2.932-.006-5.408-1.899-6.285-4.527h12.568c-.879 2.628-3.359 4.521-6.283 4.527zm-6.283-8.725c.877-2.634 3.353-4.537 6.283-4.545 2.924.008 5.404 1.911 6.283 4.545h-12.566zm0 0" fill="#67737B" sketch:type="MSShapeGroup"/><path d="M27.734 15.227h-1.634c-.969-4.699-5.12-8.227-10.1-8.227-4.984.005-9.137 3.532-10.1 8.227h-1.634c-.424 0-.766.268-.766.596v3.008c0 .324.342.594.766.594h1.63c.963 4.689 5.12 8.216 10.104 8.216 4.984 0 9.135-3.527 10.102-8.216h1.632c.426 0 .766-.27.766-.594v-3.008c0-.328-.34-.596-.766-.596zm-11.734 8.725c-2.932-.006-5.408-1.899-6.285-4.527h12.568c-.879 2.628-3.359 4.521-6.283 4.527zm-6.283-8.725c.877-2.634 3.353-4.537 6.283-4.545 2.924.008 5.404 1.911 6.283 4.545h-12.566zm0 0" fill="#3A434E" sketch:type="MSShapeGroup"/></g></svg>