<?xml version="1.0" encoding="UTF-8" standalone="no"?>
<svg width="32px" height="232px" viewBox="0 0 32 232" version="1.1" xmlns="http://www.w3.org/2000/svg" xmlns:xlink="http://www.w3.org/1999/xlink" xmlns:sketch="http://www.bohemiancoding.com/sketch/ns">
    <title>twitter</title>
    <description>Created with Sketch (http://www.bohemiancoding.com/sketch)</description>
    <defs></defs>
    <g id="Social" stroke="none" stroke-width="1" fill="none" fill-rule="evenodd" sketch:type="MSPage">
        <path d="M27.4633036,167.953 C28.7358123,167.172 29.7099395,165.936 30.1692128,164.461 C28.980563,165.186 27.6631996,165.709 26.2610024,165.992 C25.1376845,164.765 23.5394916,164 21.7687057,164 C18.371449,164 15.6148346,166.824 15.6148346,170.311 C15.6148346,170.807 15.6684652,171.287 15.7747513,171.749 C10.6593642,171.487 6.12513814,168.972 3.08964441,165.153 C2.56016382,166.089 2.25690698,167.17 2.25690698,168.327 C2.25690698,170.518 3.34219593,172.448 4.99596958,173.58 C3.9847884,173.547 3.03601378,173.264 2.20717675,172.791 L2.20717675,172.871 C2.20717675,175.93 4.32704934,178.479 7.14412013,179.061 C6.62634077,179.203 6.08320874,179.28 5.52154976,179.28 C5.12565819,179.28 4.73854255,179.242 4.36312813,179.168 C5.14808555,181.676 7.42007411,183.5 10.1133069,183.551 C8.00708574,185.244 5.35383215,186.252 2.4704544,186.252 C1.97120198,186.252 1.48170058,186.224 1,186.164 C3.72346096,187.954 6.95885068,189 10.4370409,189 C21.7550543,189 27.9469544,179.382 27.9469544,171.043 C27.9469544,170.77 27.9391536,170.497 27.9274524,170.225 C29.1297536,169.337 30.1731132,168.225 31,166.959 C29.895209,167.461 28.7085094,167.803 27.4633036,167.953 Z M27.4633036,167.953" id="twitter--lp-blue" fill="#1D4F8D" sketch:type="MSShapeGroup"></path>
        <path d="M27.4633036,127.953 C28.7358123,127.172 29.7099395,125.936 30.1692128,124.461 C28.980563,125.186 27.6631996,125.709 26.2610024,125.992 C25.1376845,124.765 23.5394916,124 21.7687057,124 C18.371449,124 15.6148346,126.824 15.6148346,130.311 C15.6148346,130.807 15.6684652,131.287 15.7747513,131.749 C10.6593642,131.487 6.12513814,128.972 3.08964441,125.153 C2.56016382,126.089 2.25690698,127.17 2.25690698,128.327 C2.25690698,130.518 3.34219593,132.448 4.99596958,133.58 C3.9847884,133.547 3.03601378,133.264 2.20717675,132.791 L2.20717675,132.871 C2.20717675,135.93 4.32704934,138.479 7.14412013,139.061 C6.62634077,139.203 6.08320874,139.28 5.52154976,139.28 C5.12565819,139.28 4.73854255,139.242 4.36312813,139.168 C5.14808555,141.676 7.42007411,143.5 10.1133069,143.551 C8.00708574,145.244 5.35383215,146.252 2.4704544,146.252 C1.97120198,146.252 1.48170058,146.224 1,146.164 C3.72346096,147.954 6.95885068,149 10.4370409,149 C21.7550543,149 27.9469544,139.382 27.9469544,131.043 C27.9469544,130.77 27.9391536,130.497 27.9274524,130.225 C29.1297536,129.337 30.1731132,128.225 31,126.959 C29.895209,127.461 28.7085094,127.803 27.4633036,127.953 Z M27.4633036,127.953" id="twitter--white" fill="#FFFFFF" sketch:type="MSShapeGroup"></path>
        <path d="M27.4633036,87.953 C28.7358123,87.172 29.7099395,85.936 30.1692128,84.461 C28.980563,85.186 27.6631996,85.709 26.2610024,85.992 C25.1376845,84.765 23.5394916,84 21.7687057,84 C18.371449,84 15.6148346,86.824 15.6148346,90.311 C15.6148346,90.807 15.6684652,91.287 15.7747513,91.749 C10.6593642,91.487 6.12513814,88.972 3.08964441,85.153 C2.56016382,86.089 2.25690698,87.17 2.25690698,88.327 C2.25690698,90.518 3.34219593,92.448 4.99596958,93.58 C3.9847884,93.547 3.03601378,93.264 2.20717675,92.791 L2.20717675,92.871 C2.20717675,95.93 4.32704934,98.479 7.14412013,99.061 C6.62634077,99.203 6.08320874,99.28 5.52154976,99.28 C5.12565819,99.28 4.73854255,99.242 4.36312813,99.168 C5.14808555,101.676 7.42007411,103.5 10.1133069,103.551 C8.00708574,105.244 5.35383215,106.252 2.4704544,106.252 C1.97120198,106.252 1.48170058,106.224 1,106.164 C3.72346096,107.954 6.95885068,109 10.4370409,109 C21.7550543,109 27.9469544,99.382 27.9469544,91.043 C27.9469544,90.77 27.9391536,90.497 27.9274524,90.225 C29.1297536,89.337 30.1731132,88.225 31,86.959 C29.895209,87.461 28.7085094,87.803 27.4633036,87.953 Z M27.4633036,87.953" id="twitter--subdued-grey" fill="#E5EDF5" sketch:type="MSShapeGroup"></path>
        <path d="M27.4633036,47.953 C28.7358123,47.172 29.7099395,45.936 30.1692128,44.461 C28.980563,45.186 27.6631996,45.709 26.2610024,45.992 C25.1376845,44.765 23.5394916,44 21.7687057,44 C18.371449,44 15.6148346,46.824 15.6148346,50.311 C15.6148346,50.807 15.6684652,51.287 15.7747513,51.749 C10.6593642,51.487 6.12513814,48.972 3.08964441,45.153 C2.56016382,46.089 2.25690698,47.17 2.25690698,48.327 C2.25690698,50.518 3.34219593,52.448 4.99596958,53.58 C3.9847884,53.547 3.03601378,53.264 2.20717675,52.791 L2.20717675,52.871 C2.20717675,55.93 4.32704934,58.479 7.14412013,59.061 C6.62634077,59.203 6.08320874,59.28 5.52154976,59.28 C5.12565819,59.28 4.73854255,59.242 4.36312813,59.168 C5.14808555,61.676 7.42007411,63.5 10.1133069,63.551 C8.00708574,65.244 5.35383215,66.252 2.4704544,66.252 C1.97120198,66.252 1.48170058,66.224 1,66.164 C3.72346096,67.954 6.95885068,69 10.4370409,69 C21.7550543,69 27.9469544,59.382 27.9469544,51.043 C27.9469544,50.77 27.9391536,50.497 27.9274524,50.225 C29.1297536,49.337 30.1731132,48.225 31,46.959 C29.895209,47.461 28.7085094,47.803 27.4633036,47.953 Z M27.4633036,47.953" id="twitter--body-grey" fill="#67737B" sketch:type="MSShapeGroup"></path>
        <path d="M27.4633036,7.953 C28.7358123,7.172 29.7099395,5.936 30.1692128,4.461 C28.980563,5.186 27.6631996,5.709 26.2610024,5.992 C25.1376845,4.765 23.5394916,4 21.7687057,4 C18.371449,4 15.6148346,6.824 15.6148346,10.311 C15.6148346,10.807 15.6684652,11.287 15.7747513,11.749 C10.6593642,11.487 6.12513814,8.972 3.08964441,5.153 C2.56016382,6.089 2.25690698,7.17 2.25690698,8.327 C2.25690698,10.518 3.34219593,12.448 4.99596958,13.58 C3.9847884,13.547 3.03601378,13.264 2.20717675,12.791 L2.20717675,12.871 C2.20717675,15.93 4.32704934,18.479 7.14412013,19.061 C6.62634077,19.203 6.08320874,19.28 5.52154976,19.28 C5.12565819,19.28 4.73854255,19.242 4.36312813,19.168 C5.14808555,21.676 7.42007411,23.5 10.1133069,23.551 C8.00708574,25.244 5.35383215,26.252 2.4704544,26.252 C1.97120198,26.252 1.48170058,26.224 1,26.164 C3.72346096,27.954 6.95885068,29 10.4370409,29 C21.7550543,29 27.9469544,19.382 27.9469544,11.043 C27.9469544,10.77 27.9391536,10.497 27.9274524,10.225 C29.1297536,9.337 30.1731132,8.225 31,6.959 C29.895209,7.461 28.7085094,7.803 27.4633036,7.953 Z M27.4633036,7.953" id="twitter--title-grey" fill="#3A434E" sketch:type="MSShapeGroup"></path>
    </g>
</svg>