<?xml version="1.0" encoding="UTF-8" standalone="no"?>
<svg width="32px" height="32px" viewBox="0 0 32 32" version="1.1" xmlns="http://www.w3.org/2000/svg" xmlns:xlink="http://www.w3.org/1999/xlink" xmlns:sketch="http://www.bohemiancoding.com/sketch/ns">
    <title>twitter--body-grey</title>
    <description>Created with Sketch (http://www.bohemiancoding.com/sketch)</description>
    <defs></defs>
    <g id="Social" stroke="none" stroke-width="1" fill="none" fill-rule="evenodd" sketch:type="MSPage">
        <path d="M27.4633036,7.953 C28.7358123,7.172 29.7099395,5.936 30.1692128,4.461 C28.980563,5.186 27.6631996,5.709 26.2610024,5.992 C25.1376845,4.765 23.5394916,4 21.7687057,4 C18.371449,4 15.6148346,6.824 15.6148346,10.311 C15.6148346,10.807 15.6684652,11.287 15.7747513,11.749 C10.6593642,11.487 6.12513814,8.972 3.08964441,5.153 C2.56016382,6.089 2.25690698,7.17 2.25690698,8.327 C2.25690698,10.518 3.34219593,12.448 4.99596958,13.58 C3.9847884,13.547 3.03601378,13.264 2.20717675,12.791 L2.20717675,12.871 C2.20717675,15.93 4.32704934,18.479 7.14412013,19.061 C6.62634077,19.203 6.08320874,19.28 5.52154976,19.28 C5.12565819,19.28 4.73854255,19.242 4.36312813,19.168 C5.14808555,21.676 7.42007411,23.5 10.1133069,23.551 C8.00708574,25.244 5.35383215,26.252 2.4704544,26.252 C1.97120198,26.252 1.48170058,26.224 1,26.164 C3.72346096,27.954 6.95885068,29 10.4370409,29 C21.7550543,29 27.9469544,19.382 27.9469544,11.043 C27.9469544,10.77 27.9391536,10.497 27.9274524,10.225 C29.1297536,9.337 30.1731132,8.225 31,6.959 C29.895209,7.461 28.7085094,7.803 27.4633036,7.953 Z M27.4633036,7.953" id="twitter--body-grey" fill="#67737B" sketch:type="MSShapeGroup"></path>
    </g>
</svg>