<svg width="32" height="232" xmlns="http://www.w3.org/2000/svg" xmlns:sketch="http://www.bohemiancoding.com/sketch/ns"><title>u-bahn</title><g sketch:type="MSPage" fill="none"><path d="M22.836 146.406c-1.957 1.801-4.728 2.594-7.371 2.594-2.628 0-5.398-.783-7.339-2.594-1.838-1.714-2.626-4.046-2.626-6.505v-15.901h5.852v15.331c0 1.261.236 2.702 1.093 3.706.745.858 1.931 1.08 3.02 1.08 1.146 0 2.399-.249 3.112-1.208.762-1.008.978-2.354.978-3.578v-15.331h5.946v15.901c0 2.465-.818 4.793-2.664 6.505zm0 0" fill="#206FAC" sketch:type="MSShapeGroup"/><path d="M22.836 106.406c-1.957 1.801-4.728 2.594-7.371 2.594-2.628 0-5.398-.783-7.339-2.594-1.838-1.714-2.626-4.046-2.626-6.505v-15.901h5.852v15.331c0 1.261.236 2.702 1.093 3.706.745.858 1.931 1.08 3.02 1.08 1.146 0 2.399-.249 3.112-1.208.762-1.008.978-2.354.978-3.578v-15.331h5.946v15.901c0 2.465-.818 4.793-2.664 6.505zm0 0" fill="#fff" sketch:type="MSShapeGroup"/><path d="M22.836 66.406c-1.957 1.801-4.728 2.594-7.371 2.594-2.628 0-5.398-.783-7.339-2.594-1.838-1.714-2.626-4.046-2.626-6.505v-15.901h5.852v15.331c0 1.261.236 2.702 1.093 3.706.745.858 1.931 1.08 3.02 1.08 1.146 0 2.399-.249 3.112-1.208.762-1.008.978-2.354.978-3.578v-15.331h5.946v15.901c0 2.465-.818 4.793-2.664 6.505zm0 0" fill="#67737B" sketch:type="MSShapeGroup"/><path d="M22.836 26.406c-1.957 1.801-4.728 2.594-7.371 2.594-2.628 0-5.398-.783-7.339-2.594-1.838-1.714-2.626-4.046-2.626-6.505v-15.901h5.852v15.331c0 1.261.236 2.702 1.093 3.706.745.858 1.931 1.08 3.02 1.08 1.146 0 2.399-.249 3.112-1.208.762-1.008.978-2.354.978-3.578v-15.331h5.946v15.901c0 2.465-.818 4.793-2.664 6.505zm0 0" fill="#3A434E" sketch:type="MSShapeGroup"/></g></svg>