<svg width="32" height="232" viewBox="0 0 32 232" xmlns="http://www.w3.org/2000/svg"><title>user</title><g fill="none"><path d="M19.724 131.217v3.211s.006 2.44-1.627 3.351c0 0-.118.719-.023.672.091-.047-.282 3.229 2.556 3.646 2.836.417 4.942 2.161 5.475 2.669.535.508.895 4.234.895 4.234h-22s-.028-3.04.899-4.234c.536-.508 3.16-2.252 5.999-2.669 2.834-.417 1.886-3.548 1.98-3.5.091.047-.026-.672-.026-.672s-1.573-1.975-1.549-3.757c.023-1.782 0-2.951 0-2.951s-.058-4.228 2.844-4.228l1.786.779c2.606 0 2.79 3.449 2.79 3.449zm0 0" fill="#206FAC"/><path d="M19.724 91.217v3.211s.006 2.44-1.627 3.351c0 0-.118.719-.023.672.091-.047-.282 3.229 2.556 3.646 2.836.417 4.942 2.161 5.475 2.669.535.508.895 4.234.895 4.234h-22s-.028-3.04.899-4.234c.536-.508 3.16-2.252 5.999-2.669 2.834-.417 1.886-3.548 1.98-3.5.091.047-.026-.672-.026-.672s-1.573-1.975-1.549-3.757c.023-1.782 0-2.951 0-2.951s-.058-4.228 2.844-4.228l1.786.779c2.606 0 2.79 3.449 2.79 3.449zm0 0" fill="#fff"/><path d="M19.724 51.217v3.211s.006 2.44-1.627 3.351c0 0-.118.719-.023.672.091-.047-.282 3.229 2.556 3.646 2.836.417 4.942 2.161 5.475 2.669.535.508.895 4.234.895 4.234h-22s-.028-3.04.899-4.234c.536-.508 3.16-2.252 5.999-2.669 2.834-.417 1.886-3.548 1.98-3.5.091.047-.026-.672-.026-.672s-1.573-1.975-1.549-3.757c.023-1.782 0-2.951 0-2.951s-.058-4.228 2.844-4.228l1.786.779c2.606 0 2.79 3.449 2.79 3.449zm0 0" fill="#67737B"/><path d="M19.724 11.217v3.211s.006 2.44-1.627 3.351c0 0-.118.719-.023.672.091-.047-.282 3.229 2.556 3.646 2.836.417 4.942 2.161 5.475 2.669.535.508.895 4.234.895 4.234h-22s-.028-3.04.899-4.234c.536-.508 3.16-2.252 5.999-2.669 2.834-.417 1.886-3.548 1.98-3.5.091.047-.026-.672-.026-.672s-1.573-1.975-1.549-3.757c.023-1.782 0-2.951 0-2.951s-.058-4.228 2.844-4.228l1.786.779c2.606 0 2.79 3.449 2.79 3.449zm0 0" fill="#3A434E"/></g></svg>