<?xml version="1.0" encoding="UTF-8" standalone="no"?>
<svg width="32px" height="232px" viewBox="0 0 32 232" version="1.1" xmlns="http://www.w3.org/2000/svg" xmlns:xlink="http://www.w3.org/1999/xlink" xmlns:sketch="http://www.bohemiancoding.com/sketch/ns">
    <title>video-line</title>
    <description>Created with Sketch (http://www.bohemiancoding.com/sketch)</description>
    <defs></defs>
    <g id="Categories" stroke="none" stroke-width="1" fill="none" fill-rule="evenodd" sketch:type="MSPage">
        <path d="M28.4517088,149 L3.55225359,149 C1.59187717,149 0,147.393 0,145.414 L0,127.586 C0,125.608 1.59187717,124 3.55225359,124 L28.4517088,124 C30.4081228,124 32,125.608 32,127.586 L32,145.414 C32,147.393 30.4081228,149 28.4517088,149 Z M3.55225359,125.834 C2.59237246,125.834 1.81475978,126.619 1.81475978,127.586 L1.81475978,145.414 C1.81475978,146.383 2.59237246,147.166 3.55225359,147.166 L28.4517088,147.166 C29.4076275,147.166 30.1852402,146.383 30.1852402,145.414 L30.1852402,127.586 C30.1852402,126.619 29.4076275,125.834 28.4517088,125.834 L3.55225359,125.834 Z M11.7087667,130.1 L11.7087667,142.901 L22.2724121,136.498 L11.7087667,130.1 Z M13.7097573,133.664 L18.3853393,136.498 L13.7097573,139.33 L13.7097573,133.664 Z M13.7097573,133.664" id="video-line--lp-blue" fill="#206FAC" sketch:type="MSShapeGroup"></path>
        <path d="M28.4517088,109 L3.55225359,109 C1.59187717,109 0,107.393 0,105.414 L0,87.586 C0,85.608 1.59187717,84 3.55225359,84 L28.4517088,84 C30.4081228,84 32,85.608 32,87.586 L32,105.414 C32,107.393 30.4081228,109 28.4517088,109 Z M3.55225359,85.834 C2.59237246,85.834 1.81475978,86.619 1.81475978,87.586 L1.81475978,105.414 C1.81475978,106.383 2.59237246,107.166 3.55225359,107.166 L28.4517088,107.166 C29.4076275,107.166 30.1852402,106.383 30.1852402,105.414 L30.1852402,87.586 C30.1852402,86.619 29.4076275,85.834 28.4517088,85.834 L3.55225359,85.834 Z M11.7087667,90.1 L11.7087667,102.901 L22.2724121,96.498 L11.7087667,90.1 Z M13.7097573,93.664 L18.3853393,96.498 L13.7097573,99.33 L13.7097573,93.664 Z M13.7097573,93.664" id="video-line--white" fill="#FFFFFF" sketch:type="MSShapeGroup"></path>
        <path d="M28.4517088,69 L3.55225359,69 C1.59187717,69 0,67.393 0,65.414 L0,47.586 C0,45.608 1.59187717,44 3.55225359,44 L28.4517088,44 C30.4081228,44 32,45.608 32,47.586 L32,65.414 C32,67.393 30.4081228,69 28.4517088,69 Z M3.55225359,45.834 C2.59237246,45.834 1.81475978,46.619 1.81475978,47.586 L1.81475978,65.414 C1.81475978,66.383 2.59237246,67.166 3.55225359,67.166 L28.4517088,67.166 C29.4076275,67.166 30.1852402,66.383 30.1852402,65.414 L30.1852402,47.586 C30.1852402,46.619 29.4076275,45.834 28.4517088,45.834 L3.55225359,45.834 Z M11.7087667,50.1 L11.7087667,62.901 L22.2724121,56.498 L11.7087667,50.1 Z M13.7097573,53.664 L18.3853393,56.498 L13.7097573,59.33 L13.7097573,53.664 Z M13.7097573,53.664" id="video-line--body-grey" fill="#67737B" sketch:type="MSShapeGroup"></path>
        <path d="M28.4517088,29 L3.55225359,29 C1.59187717,29 0,27.393 0,25.414 L0,7.586 C0,5.608 1.59187717,4 3.55225359,4 L28.4517088,4 C30.4081228,4 32,5.608 32,7.586 L32,25.414 C32,27.393 30.4081228,29 28.4517088,29 Z M3.55225359,5.834 C2.59237246,5.834 1.81475978,6.619 1.81475978,7.586 L1.81475978,25.414 C1.81475978,26.383 2.59237246,27.166 3.55225359,27.166 L28.4517088,27.166 C29.4076275,27.166 30.1852402,26.383 30.1852402,25.414 L30.1852402,7.586 C30.1852402,6.619 29.4076275,5.834 28.4517088,5.834 L3.55225359,5.834 Z M11.7087667,10.1 L11.7087667,22.901 L22.2724121,16.498 L11.7087667,10.1 Z M13.7097573,13.664 L18.3853393,16.498 L13.7097573,19.33 L13.7097573,13.664 Z M13.7097573,13.664" id="video-line--title-grey" fill="#3A434E" sketch:type="MSShapeGroup"></path>
    </g>
</svg>