<svg width="32" height="232" viewBox="0 0 32 232" xmlns="http://www.w3.org/2000/svg"><title>video-line</title><g fill="none"><path d="M28.452 149h-24.899c-1.96 0-3.552-1.607-3.552-3.586v-17.828c0-1.978 1.592-3.586 3.552-3.586h24.899c1.956 0 3.548 1.608 3.548 3.586v17.828c0 1.979-1.592 3.586-3.548 3.586zm-24.899-23.166c-.96 0-1.737.785-1.737 1.752v17.828c0 .969.778 1.752 1.737 1.752h24.899c.956 0 1.734-.783 1.734-1.752v-17.828c0-.967-.778-1.752-1.734-1.752h-24.899zm8.157 4.266v12.801l10.564-6.403-10.564-6.398zm2.001 3.564l4.676 2.834-4.676 2.832v-5.666zm0 0" fill="#206FAC"/><path d="M28.452 109h-24.899c-1.96 0-3.552-1.607-3.552-3.586v-17.828c0-1.978 1.592-3.586 3.552-3.586h24.899c1.956 0 3.548 1.608 3.548 3.586v17.828c0 1.979-1.592 3.586-3.548 3.586zm-24.899-23.166c-.96 0-1.737.785-1.737 1.752v17.828c0 .969.778 1.752 1.737 1.752h24.899c.956 0 1.734-.783 1.734-1.752v-17.828c0-.967-.778-1.752-1.734-1.752h-24.899zm8.157 4.266v12.801l10.564-6.403-10.564-6.398zm2.001 3.564l4.676 2.834-4.676 2.832v-5.666zm0 0" fill="#fff"/><path d="M28.452 69h-24.899c-1.96 0-3.552-1.607-3.552-3.586v-17.828c0-1.978 1.592-3.586 3.552-3.586h24.899c1.956 0 3.548 1.608 3.548 3.586v17.828c0 1.979-1.592 3.586-3.548 3.586zm-24.899-23.166c-.96 0-1.737.785-1.737 1.752v17.828c0 .969.778 1.752 1.737 1.752h24.899c.956 0 1.734-.783 1.734-1.752v-17.828c0-.967-.778-1.752-1.734-1.752h-24.899zm8.157 4.266v12.801l10.564-6.403-10.564-6.398zm2.001 3.564l4.676 2.834-4.676 2.832v-5.666zm0 0" fill="#67737B"/><path d="M28.452 29h-24.899c-1.96 0-3.552-1.607-3.552-3.586v-17.828c0-1.978 1.592-3.586 3.552-3.586h24.899c1.956 0 3.548 1.608 3.548 3.586v17.828c0 1.979-1.592 3.586-3.548 3.586zm-24.899-23.166c-.96 0-1.737.785-1.737 1.752v17.828c0 .969.778 1.752 1.737 1.752h24.899c.956 0 1.734-.783 1.734-1.752v-17.828c0-.967-.778-1.752-1.734-1.752h-24.899zm8.157 4.266v12.801l10.564-6.403-10.564-6.398zm2.001 3.564l4.676 2.834-4.676 2.832v-5.666zm0 0" fill="#3A434E"/></g></svg>