<svg width="32" height="232" viewBox="0 0 32 232" xmlns="http://www.w3.org/2000/svg" xmlns:sketch="http://www.bohemiancoding.com/sketch/ns"><title>vine</title><g sketch:type="MSPage" fill="none"><path d="M23.679 16.126c-2.775 0-4.912-1.939-4.912-5.311 0-1.651.638-2.511 1.542-2.511.859 0 1.432.771 1.432 2.336 0 .889-.239 1.862-.414 2.44 0 0 .856 1.493 3.194 1.034.498-1.102.767-2.53.767-3.782 0-3.373-1.718-5.332-4.87-5.332-3.238 0-5.134 2.489-5.134 5.772 0 3.252 1.522 6.043 4.028 7.315-1.053 2.108-2.395 3.966-3.794 5.366-2.537-3.068-4.832-7.162-5.773-15.149h-3.745c1.73 13.304 6.886 17.538 8.249 18.352.771.463 1.436.441 2.14.044 1.106-.628 4.431-3.952 6.271-7.844.774-.002 1.703-.092 2.628-.299v-2.62c-.566.131-1.115.189-1.609.189z" fill="#3A434E" sketch:type="MSShapeGroup"/><path d="M23.679 56.126c-2.775 0-4.912-1.939-4.912-5.311 0-1.651.638-2.511 1.542-2.511.859 0 1.432.771 1.432 2.336 0 .889-.239 1.862-.414 2.44 0 0 .856 1.493 3.194 1.034.498-1.102.767-2.53.767-3.782 0-3.373-1.718-5.332-4.87-5.332-3.238 0-5.134 2.489-5.134 5.772 0 3.252 1.522 6.043 4.028 7.315-1.053 2.108-2.395 3.966-3.794 5.366-2.537-3.068-4.832-7.162-5.773-15.149h-3.745c1.73 13.304 6.886 17.538 8.249 18.352.771.463 1.436.441 2.14.044 1.106-.628 4.431-3.952 6.271-7.844.774-.002 1.703-.092 2.628-.299v-2.62c-.566.131-1.115.189-1.609.189z" fill="#67737B" sketch:type="MSShapeGroup"/><path d="M23.679 96.126c-2.775 0-4.912-1.939-4.912-5.311 0-1.651.638-2.511 1.542-2.511.859 0 1.432.771 1.432 2.336 0 .889-.239 1.862-.414 2.44 0 0 .856 1.493 3.194 1.034.498-1.102.767-2.53.767-3.782 0-3.373-1.718-5.332-4.87-5.332-3.238 0-5.134 2.489-5.134 5.772 0 3.252 1.522 6.043 4.028 7.315-1.053 2.108-2.395 3.966-3.794 5.366-2.537-3.068-4.832-7.162-5.773-15.149h-3.745c1.73 13.304 6.886 17.538 8.249 18.352.771.463 1.436.441 2.14.044 1.106-.628 4.431-3.952 6.271-7.844.774-.002 1.703-.092 2.628-.299v-2.62c-.566.131-1.115.189-1.609.189z" fill="#fff" sketch:type="MSShapeGroup"/><path d="M23.679 136.126c-2.775 0-4.912-1.939-4.912-5.311 0-1.651.638-2.511 1.542-2.511.859 0 1.432.771 1.432 2.336 0 .889-.239 1.862-.414 2.44 0 0 .856 1.493 3.194 1.034.498-1.102.767-2.53.767-3.782 0-3.373-1.718-5.332-4.87-5.332-3.238 0-5.134 2.489-5.134 5.772 0 3.252 1.522 6.043 4.028 7.315-1.053 2.108-2.395 3.966-3.794 5.366-2.537-3.068-4.832-7.162-5.773-15.149h-3.745c1.73 13.304 6.886 17.538 8.249 18.352.771.463 1.436.441 2.14.044 1.106-.628 4.431-3.952 6.271-7.844.774-.002 1.703-.092 2.628-.299v-2.62c-.566.131-1.115.189-1.609.189z" fill="#206FAC" sketch:type="MSShapeGroup"/><path d="M23.679 176.126c-2.775 0-4.912-1.939-4.912-5.311 0-1.651.638-2.511 1.542-2.511.859 0 1.432.771 1.432 2.336 0 .889-.239 1.862-.414 2.44 0 0 .856 1.493 3.194 1.034.498-1.102.767-2.53.767-3.782 0-3.373-1.718-5.332-4.87-5.332-3.238 0-5.134 2.489-5.134 5.772 0 3.252 1.522 6.043 4.028 7.315-1.053 2.108-2.395 3.966-3.794 5.366-2.537-3.068-4.832-7.162-5.773-15.149h-3.745c1.73 13.304 6.886 17.538 8.249 18.352.771.463 1.436.441 2.14.044 1.106-.628 4.431-3.952 6.271-7.844.774-.002 1.703-.092 2.628-.299v-2.62c-.566.131-1.115.189-1.609.189z" fill="#00B389" sketch:type="MSShapeGroup"/></g></svg>