<?xml version="1.0" encoding="UTF-8" standalone="no"?>
<svg width="32px" height="32px" viewBox="0 0 32 32" version="1.1" xmlns="http://www.w3.org/2000/svg" xmlns:xlink="http://www.w3.org/1999/xlink" xmlns:sketch="http://www.bohemiancoding.com/sketch/ns">
    <title>website--body-grey</title>
    <description>Created with Sketch (http://www.bohemiancoding.com/sketch)</description>
    <defs></defs>
    <g id="Categories" stroke="none" stroke-width="1" fill="none" fill-rule="evenodd" sketch:type="MSPage">
        <path d="M25.3300101,6.8060849 C23.3280101,5.0210849 20.5210101,3.9960849 17.2630101,4.0000849 C12.9570101,3.9880849 9.51901009,5.2480849 6.93101009,7.8410849 C4.68101009,10.1190849 3.49601009,13.1810849 3.50001009,16.6210849 C3.49801009,19.8900849 4.64801009,22.8630849 6.76901009,24.9550849 C9.22001009,27.4120849 12.4490101,28.7220849 16.0270101,28.7220849 L16.0430101,28.7220849 C18.0520101,28.7220849 20.0500101,28.4240849 21.9740101,27.8300849 C22.3650101,27.7130849 22.7380101,27.5800849 23.0780101,27.4370849 L23.0990101,27.4220849 L23.2240101,27.3530849 C23.7280101,27.0800849 24.0500101,26.5530849 24.0500101,25.9720849 C24.0500101,25.1010849 23.3490101,24.3850849 22.4760101,24.3850849 C22.3470101,24.3850849 22.2200101,24.4120849 22.1010101,24.4370849 L22.0520101,24.4530849 L22.0230101,24.4610849 L21.8570101,24.5170849 C21.5190101,24.6390849 21.1950101,24.7360849 20.8260101,24.8510849 L20.5430101,24.9370849 C19.2750101,25.3220849 17.7710101,25.5410849 16.3450101,25.5410849 C10.9250101,25.5080849 7.26501009,21.8590849 7.24201009,16.4550849 C7.26301009,10.9960849 11.1890101,7.2710849 17.0390101,7.2360849 C18.9820101,7.2340849 20.7320101,7.6640849 21.9310101,8.3850849 C22.4370101,8.6990849 22.8820101,9.0840849 23.2750101,9.5210849 L21.3650101,9.5210849 C20.9020101,9.5230849 20.4880101,9.6270849 20.1420101,9.7980849 C19.8860101,9.9290849 19.6560101,10.0720849 19.4920101,10.3220849 C18.7970101,9.3280849 17.8100101,8.8920849 16.4330101,8.9370849 C12.5370101,8.9760849 9.50201009,13.0210849 9.49801009,17.6780849 C9.49801009,19.2570849 9.91001009,20.6050849 10.7280101,21.5620849 C11.5410101,22.5270849 12.7560101,23.0600849 14.1520101,23.0570849 C15.6050101,23.0780849 16.7770101,22.5680849 17.7670101,21.5070849 C17.8160101,21.7610849 17.8790101,21.9290849 17.9820101,22.0900849 C18.4920101,22.8810849 19.4610101,23.2480849 20.5060101,23.2520849 C22.4250101,23.2500849 24.3450101,22.3920849 25.8160101,20.9280849 C27.5540101,19.1910849 28.5000101,16.7590849 28.5000101,14.1210849 C28.5020101,11.1620849 27.3320101,8.5990849 25.3300101,6.8060849 M17.2010101,17.8510849 C16.4430101,19.3320849 15.5070101,19.9880849 14.6270101,19.9800849 C14.3320101,19.9800849 13.9800101,19.9180849 13.7180101,19.6740849 C13.4590101,19.4310849 13.1810101,18.9550849 13.1770101,17.8980849 C13.1730101,16.6990849 13.6110101,15.0410849 14.2710101,13.8140849 C14.9760101,12.5020849 15.8820101,11.9060849 16.8430101,11.9040849 C17.6890101,11.9160849 18.2590101,12.5060849 18.2930101,13.6520849 C18.2950101,14.8610849 17.8610101,16.5640849 17.2010101,17.8510849 M22.8550101,19.3790849 C22.3000101,19.8280849 21.6380101,20.0740849 21.2050101,20.0680849 C20.7500101,20.0190849 20.6910101,19.9490849 20.6440101,19.5370849 L20.6440101,19.2990849 C20.7010101,19.0020849 20.9370101,18.0470849 21.1600101,17.2320849 L22.4100101,12.5990849 C22.5230101,12.1110849 22.8670101,10.9180849 23.0720101,10.2450849 L23.2790101,9.5250849 C24.3940101,10.7590849 25.0350101,12.4280849 25.0350101,14.2630849 C25.0410101,16.3570849 24.1300101,18.4000849 22.8550101,19.3790849" id="website--body-grey" fill="#67737B" sketch:type="MSShapeGroup"></path>
    </g>
</svg>