<svg width="32" height="232" xmlns="http://www.w3.org/2000/svg" xmlns:sketch="http://www.bohemiancoding.com/sketch/ns"><title>wi-fi</title><g sketch:type="MSPage" fill="none"><path d="M15.928 140.653c-2.368 0-4.294 1.871-4.294 4.171 0 2.302 1.926 4.176 4.294 4.176 2.369 0 4.295-1.874 4.295-4.176 0-2.3-1.926-4.171-4.295-4.171zm7.966-2.917l-.032-.028c-2.014-2.266-4.909-3.565-7.955-3.565-2.933 0-5.753 1.215-7.753 3.341l-.059.051c-.372.361-.574.842-.574 1.352 0 .509.203.988.572 1.348.742.721 1.575.791 2.543.173.099-.045.193-.107.266-.193 1.266-1.435 3.09-2.259 5.005-2.259 1.986 0 3.843.863 5.126 2.389l.082.093c.372.36.865.556 1.388.556.525 0 1.018-.196 1.391-.558.764-.748.764-1.957-.002-2.7zm3.968-5.296c-3.025-3.456-7.399-5.44-12.002-5.44-4.422 0-8.692 1.859-11.719 5.106l-.148.135c-.316.355-.491.812-.491 1.281 0 .524.211 1.016.592 1.382.374.37.878.573 1.415.573.52 0 1.019-.193 1.384-.531l.183-.17c2.248-2.454 5.448-3.864 8.784-3.864 3.564 0 6.909 1.569 9.18 4.3l.08.083c.371.329.85.508 1.349.508.542 0 1.051-.206 1.429-.574.738-.719.809-1.867.155-2.613l-.191-.176zm0 0" fill="#206FAC" sketch:type="MSShapeGroup"/><path d="M15.928 100.653c-2.368 0-4.294 1.871-4.294 4.171 0 2.302 1.926 4.176 4.294 4.176 2.369 0 4.295-1.874 4.295-4.176 0-2.3-1.926-4.171-4.295-4.171zm7.966-2.917l-.032-.028c-2.014-2.266-4.909-3.565-7.955-3.565-2.933 0-5.753 1.215-7.753 3.341l-.059.051c-.372.361-.574.842-.574 1.352 0 .509.203.988.572 1.348.742.721 1.575.791 2.543.173.099-.045.193-.107.266-.193 1.266-1.435 3.09-2.259 5.005-2.259 1.986 0 3.843.863 5.126 2.389l.082.093c.372.36.865.556 1.388.556.525 0 1.018-.196 1.391-.558.764-.748.764-1.957-.002-2.7zm3.968-5.296c-3.025-3.456-7.399-5.44-12.002-5.44-4.422 0-8.692 1.859-11.719 5.106l-.148.135c-.316.355-.491.812-.491 1.281 0 .524.211 1.016.592 1.382.374.37.878.573 1.415.573.52 0 1.019-.193 1.384-.531l.183-.17c2.248-2.454 5.448-3.864 8.784-3.864 3.564 0 6.909 1.569 9.18 4.3l.08.083c.371.329.85.508 1.349.508.542 0 1.051-.206 1.429-.574.738-.719.809-1.867.155-2.613l-.191-.176zm0 0" fill="#fff" sketch:type="MSShapeGroup"/><path d="M15.928 60.653c-2.368 0-4.294 1.871-4.294 4.171 0 2.302 1.926 4.176 4.294 4.176 2.369 0 4.295-1.874 4.295-4.176 0-2.3-1.926-4.171-4.295-4.171zm7.966-2.917l-.032-.028c-2.014-2.266-4.909-3.565-7.955-3.565-2.933 0-5.753 1.215-7.753 3.341l-.059.051c-.372.361-.574.842-.574 1.352 0 .509.203.988.572 1.348.742.721 1.575.791 2.543.173.099-.045.193-.107.266-.193 1.266-1.435 3.09-2.259 5.005-2.259 1.986 0 3.843.863 5.126 2.389l.082.093c.372.36.865.556 1.388.556.525 0 1.018-.196 1.391-.558.764-.748.764-1.957-.002-2.7zm3.968-5.296c-3.025-3.456-7.399-5.44-12.002-5.44-4.422 0-8.692 1.859-11.719 5.106l-.148.135c-.316.355-.491.812-.491 1.281 0 .524.211 1.016.592 1.382.374.37.878.573 1.415.573.52 0 1.019-.193 1.384-.531l.183-.17c2.248-2.454 5.448-3.864 8.784-3.864 3.564 0 6.909 1.569 9.18 4.3l.08.083c.371.329.85.508 1.349.508.542 0 1.051-.206 1.429-.574.738-.719.809-1.867.155-2.613l-.191-.176zm0 0" fill="#67737B" sketch:type="MSShapeGroup"/><path d="M15.928 20.653c-2.368 0-4.294 1.871-4.294 4.171 0 2.302 1.926 4.176 4.294 4.176 2.369 0 4.295-1.874 4.295-4.176 0-2.3-1.926-4.171-4.295-4.171zm7.966-2.917l-.032-.028c-2.014-2.266-4.909-3.565-7.955-3.565-2.933 0-5.753 1.215-7.753 3.341l-.059.051c-.372.361-.574.842-.574 1.352 0 .509.203.988.572 1.348.742.721 1.575.791 2.543.173.099-.045.193-.107.266-.193 1.266-1.435 3.09-2.259 5.005-2.259 1.986 0 3.843.863 5.126 2.389l.082.093c.372.36.865.556 1.388.556.525 0 1.018-.196 1.391-.558.764-.748.764-1.957-.002-2.7zm3.968-5.296c-3.025-3.456-7.399-5.44-12.002-5.44-4.422 0-8.692 1.859-11.719 5.106l-.148.135c-.316.355-.491.812-.491 1.281 0 .524.211 1.016.592 1.382.374.37.878.573 1.415.573.52 0 1.019-.193 1.384-.531l.183-.17c2.248-2.454 5.448-3.864 8.784-3.864 3.564 0 6.909 1.569 9.18 4.3l.08.083c.371.329.85.508 1.349.508.542 0 1.051-.206 1.429-.574.738-.719.809-1.867.155-2.613l-.191-.176zm0 0" fill="#3A434E" sketch:type="MSShapeGroup"/></g></svg>