<?xml version="1.0" encoding="UTF-8" standalone="no"?>
<svg width="32px" height="232px" viewBox="0 0 32 232" version="1.1" xmlns="http://www.w3.org/2000/svg" xmlns:xlink="http://www.w3.org/1999/xlink" xmlns:sketch="http://www.bohemiancoding.com/sketch/ns">
    <title>you-tube</title>
    <description>Created with Sketch (http://www.bohemiancoding.com/sketch)</description>
    <defs></defs>
    <g id="Social" stroke="none" stroke-width="1" fill="none" fill-rule="evenodd" sketch:type="MSPage">
        <path d="M28,179.56128 L28,187.520179 C28,188.016292 27.8975252,188.472234 27.687601,188.887 C27.4776769,189.30478 27.1941301,189.673349 26.832981,189.987688 C26.4728268,190.303031 26.0569581,190.546067 25.585375,190.728845 C25.1108071,190.909615 24.5994279,191 24.0522323,191 L7.93284417,191 C7.39559756,191 6.89018779,190.909615 6.41561995,190.728845 C5.94403681,190.546067 5.52617834,190.303031 5.16801393,189.987688 C4.81084442,189.673349 4.523318,189.30478 4.31140405,188.887 C4.10346972,188.472234 4,188.016292 4,187.520179 L4,179.56128 C4,179.088265 4.10346972,178.639353 4.31140405,178.208518 C4.523318,177.778687 4.81084442,177.410117 5.16801393,177.102808 C5.52617834,176.794495 5.94403681,176.546439 6.41561995,176.359643 C6.89018779,176.172847 7.39559756,176.076437 7.93284417,176.076437 L24.0522323,176.076437 C24.588484,176.076437 25.0948887,176.172847 25.5774157,176.359643 C26.0549683,176.546439 26.4728268,176.794495 26.832981,177.102808 C27.1941301,177.410117 27.4776769,177.778687 27.687601,178.208518 C27.8975252,178.639353 28,179.088265 28,179.56128 C28,179.56128 28,179.088265 28,179.56128 L28,179.56128 L28,179.56128 Z M9.011317,188.405951 L9.011317,180.011196 L10.9881855,180.011196 L10.9881855,178.741789 L5.65253078,178.741789 L5.65253078,179.976046 L7.36177092,179.976046 L7.36177092,188.405951 L9.011317,188.405951 L9.011317,188.405951 L9.011317,188.405951 L9.011317,188.405951 Z M9.81818182,168.875767 L7.6085064,164 L9.53264519,164 L10.631016,167.644523 L11.728392,164 L13.6485512,164 L11.5791568,168.875767 L11.5791568,174.553952 L9.81818182,174.553952 L9.81818182,168.875767 L9.81818182,168.875767 L9.81818182,168.875767 L9.81818182,168.875767 Z M15.0145504,181.243444 L13.3630146,181.243444 L13.3630146,185.727543 C13.3630146,186.048912 13.3659993,186.30199 13.3779381,186.476734 C13.3878871,186.655496 13.3659993,186.764962 13.3063052,186.812163 C13.2555652,187.005988 13.117274,187.147592 12.8804875,187.238981 C12.65365,187.328362 12.4745678,187.201823 12.352195,186.847313 C12.3273225,186.800112 12.3253327,186.680603 12.3362766,186.493807 C12.3482154,186.308016 12.352195,186.062972 12.352195,185.760684 L12.3173735,181.243444 L10.6658376,181.243444 L10.7046387,185.690385 C10.7046387,186.038869 10.6946897,186.331114 10.6827509,186.567119 C10.6728019,186.80212 10.6747917,186.980882 10.7046387,187.102399 C10.7255317,187.298233 10.7494093,187.50411 10.772292,187.728064 C10.7951747,187.950009 10.9085935,188.129775 11.1165278,188.264348 C11.3065539,188.382853 11.5323965,188.446122 11.7870912,188.446122 C12.0447706,188.446122 12.2994652,188.40093 12.5422211,188.316571 C12.7909464,188.230203 13.0147992,188.114711 13.2267131,187.965073 C13.4346474,187.814432 13.5878622,187.651739 13.6833727,187.485029 L13.6485512,188.370802 L15.0145504,188.405951 L15.0145504,181.243444 L15.0145504,181.243444 L15.0145504,181.243444 L15.0145504,181.243444 Z M13.5023007,169.619937 C13.5023007,168.957114 13.5649795,168.403757 13.6833727,167.971917 C13.8286283,167.523005 14.0604402,167.202641 14.384778,167.010824 C14.7091158,166.767789 15.1210049,166.645267 15.6244248,166.645267 C16.0671558,166.645267 16.4362641,166.720588 16.739709,166.865204 C17.0371844,166.986721 17.2839199,167.196615 17.473946,167.498903 C17.6201965,167.717835 17.7266509,167.963883 17.7992787,168.242068 C17.866932,168.544356 17.9057331,168.950084 17.9057331,169.458248 L17.9057331,171.359345 C17.9057331,172.052297 17.866932,172.546401 17.7992787,172.850697 C17.7694317,173.128882 17.655018,173.436191 17.4371347,173.775637 C17.2212411,174.075916 16.9904241,174.275767 16.739709,174.374186 C16.4362641,174.518802 16.0989927,174.590106 15.7119761,174.590106 C15.32098,174.590106 14.9558513,174.528845 14.6374829,174.409336 C14.3360279,174.311921 14.1121751,174.137177 13.9728889,173.883095 C13.8286283,173.687261 13.7062554,173.41711 13.60975,173.065613 C13.5411019,172.739223 13.5023007,172.246122 13.5023007,171.579282 L13.5023007,169.619937 L13.5023007,169.619937 L13.5023007,169.619937 L13.5023007,169.619937 Z M14.9777391,172.577534 C14.9777391,172.769351 15.0473822,172.942087 15.1926377,173.094737 C15.3349086,173.246383 15.5100112,173.320699 15.7119761,173.320699 C15.9020022,173.320699 16.075115,173.2504 16.2273349,173.102771 C16.3765701,172.960164 16.448203,172.783411 16.448203,172.577534 L16.448203,168.640766 C16.448203,168.422838 16.3765701,168.242068 16.2273349,168.091426 C16.075115,167.938776 15.9020022,167.862451 15.7119761,167.862451 C15.52195,167.862451 15.3488372,167.938776 15.2005969,168.091426 C15.0533516,168.242068 14.9777391,168.422838 14.9777391,168.640766 L14.9777391,172.577534 L14.9777391,172.577534 L14.9777391,172.577534 L14.9777391,172.577534 Z M20.3482154,186.358229 L20.3482154,182.642403 C20.3482154,181.927357 20.0975003,181.420197 19.5940803,181.11791 C19.4289268,181.021499 19.2329312,180.972289 19.0190275,180.972289 C18.621067,180.972289 18.168387,181.159085 17.655018,181.53368 L17.655018,178.741789 L16.0034822,178.741789 L16.0034822,188.335652 L17.3674916,188.298494 L17.473946,187.699944 C17.9196617,188.076548 18.319612,188.306528 18.6698172,188.390887 C19.0249969,188.473238 19.3204825,188.442105 19.567218,188.288451 C19.8139535,188.139818 20.0039796,187.892765 20.1402811,187.545285 C20.2785723,187.203831 20.3482154,186.804129 20.3482154,186.358229 C20.3482154,186.358229 20.3482154,186.804129 20.3482154,186.358229 L20.3482154,186.358229 L20.3482154,186.358229 Z M18.3564233,181.896225 C18.5474443,181.896225 18.7135928,181.955477 18.8658127,182.071973 C19.0150479,182.186461 19.0906604,182.316013 19.0906604,182.459624 L19.0906604,186.668551 C19.0906604,186.812163 19.0150479,186.939706 18.8658127,187.047164 C18.7135928,187.154622 18.5474443,187.211865 18.3564233,187.211865 C18.1624176,187.211865 17.9932844,187.154622 17.8400696,187.047164 C17.6918294,186.939706 17.6201965,186.812163 17.6201965,186.668551 L17.6201965,182.459624 C17.6201965,182.316013 17.6918294,182.186461 17.8400696,182.071973 C17.9932844,181.955477 18.1624176,181.896225 18.3564233,181.896225 C18.3564233,181.896225 18.1624176,181.896225 18.3564233,181.896225 L18.3564233,181.896225 L18.3564233,181.896225 Z M19.1254819,173.812795 C19.0817063,173.713372 19.0478796,173.610935 19.0389255,173.511512 C19.0249969,173.409076 19.0070887,173.309652 18.9822161,173.213242 C18.9593334,173.091724 18.9473946,172.927023 18.9473946,172.721146 L18.9473946,166.938516 L20.4924761,166.938516 L20.4924761,172.703069 C20.4924761,172.850697 20.5442109,172.975228 20.6516602,173.085698 C20.7640841,173.193156 20.9043651,173.2504 21.0844422,173.2504 C21.2515856,173.2504 21.3958463,173.193156 21.5142395,173.085698 C21.6366124,172.975228 21.6963064,172.850697 21.6963064,172.703069 L21.6963064,166.938516 L23.1309539,166.938516 L23.1309539,174.337028 L21.3023256,174.337028 L21.3351573,173.738479 C21.1660241,173.98051 21.0088297,174.168309 20.8516354,174.29987 C20.6596195,174.419379 20.4516851,174.479635 20.2198732,174.479635 C19.9482651,174.479635 19.7164532,174.419379 19.5383659,174.29987 C19.3821664,174.193416 19.24487,174.028715 19.1254819,173.812795 C19.1254819,173.812795 19.24487,174.028715 19.1254819,173.812795 L19.1254819,173.812795 L19.1254819,173.812795 Z M25.5555279,185.890236 L24.3198607,185.890236 L24.3198607,186.703701 C24.3198607,186.898531 24.2502176,187.047164 24.1119264,187.154622 C23.97463,187.267101 23.8114662,187.318319 23.6204452,187.318319 L23.3637607,187.318319 C23.1757244,187.318319 23.01853,187.267101 22.8921776,187.154622 C22.7658251,187.047164 22.7011566,186.898531 22.7011566,186.703701 L22.7011566,184.979357 L25.5555279,184.979357 L25.5555279,183.981105 C25.5555279,183.608518 25.5505534,183.249991 25.5386146,182.904519 C25.5286656,182.560052 25.4978237,182.290906 25.4510633,182.101097 C25.4023131,181.77069 25.2590474,181.507569 25.0083323,181.307718 C24.7655764,181.109875 24.4770551,180.972289 24.1487377,180.90199 C23.8184305,180.825665 23.4841438,180.816626 23.1409029,180.864832 C22.8006467,180.914041 22.505161,181.025516 22.2504664,181.208295 C21.9301082,181.425219 21.6963064,181.724493 21.5510509,182.101097 C21.40878,182.470671 21.3351573,182.991891 21.3351573,183.657727 L21.3351573,185.890236 C21.3351573,186.829236 21.5838826,187.502102 22.073374,187.9008 C22.5280438,188.275395 23.0065912,188.463195 23.5080214,188.463195 L23.6552668,188.463195 C24.2213655,188.428045 24.7148365,188.18501 25.1476185,187.738107 C25.4699664,187.411717 25.6321353,186.980882 25.6321353,186.450623 C25.6142271,186.2809 25.595324,186.094105 25.5555279,185.890236 C25.5555279,185.890236 25.595324,186.094105 25.5555279,185.890236 L25.5555279,185.890236 L25.5555279,185.890236 Z M24.2810596,183.764181 L22.7011566,183.764181 L22.7359781,182.879412 C22.7359781,182.684582 22.8086059,182.525907 22.9518717,182.396355 C23.0961323,182.268812 23.2672553,182.206546 23.4751897,182.206546 L23.5468225,182.206546 C23.7607263,182.206546 23.9427932,182.266803 24.0950131,182.387316 C24.2402686,182.50783 24.3198607,182.671527 24.3198607,182.879412 L24.2810596,183.764181 L24.2810596,183.764181 Z M24.2810596,183.764181" id="you-tube--lp-blue" fill="#1D4F8D" sketch:type="MSShapeGroup"></path>
        <path d="M28,139.56128 L28,147.520179 C28,148.016292 27.8975252,148.472234 27.687601,148.887 C27.4776769,149.30478 27.1941301,149.673349 26.832981,149.987688 C26.4728268,150.303031 26.0569581,150.546067 25.585375,150.728845 C25.1108071,150.909615 24.5994279,151 24.0522323,151 L7.93284417,151 C7.39559756,151 6.89018779,150.909615 6.41561995,150.728845 C5.94403681,150.546067 5.52617834,150.303031 5.16801393,149.987688 C4.81084442,149.673349 4.523318,149.30478 4.31140405,148.887 C4.10346972,148.472234 4,148.016292 4,147.520179 L4,139.56128 C4,139.088265 4.10346972,138.639353 4.31140405,138.208518 C4.523318,137.778687 4.81084442,137.410117 5.16801393,137.102808 C5.52617834,136.794495 5.94403681,136.546439 6.41561995,136.359643 C6.89018779,136.172847 7.39559756,136.076437 7.93284417,136.076437 L24.0522323,136.076437 C24.588484,136.076437 25.0948887,136.172847 25.5774157,136.359643 C26.0549683,136.546439 26.4728268,136.794495 26.832981,137.102808 C27.1941301,137.410117 27.4776769,137.778687 27.687601,138.208518 C27.8975252,138.639353 28,139.088265 28,139.56128 C28,139.56128 28,139.088265 28,139.56128 L28,139.56128 L28,139.56128 Z M9.011317,148.405951 L9.011317,140.011196 L10.9881855,140.011196 L10.9881855,138.741789 L5.65253078,138.741789 L5.65253078,139.976046 L7.36177092,139.976046 L7.36177092,148.405951 L9.011317,148.405951 L9.011317,148.405951 L9.011317,148.405951 L9.011317,148.405951 Z M9.81818182,128.875767 L7.6085064,124 L9.53264519,124 L10.631016,127.644523 L11.728392,124 L13.6485512,124 L11.5791568,128.875767 L11.5791568,134.553952 L9.81818182,134.553952 L9.81818182,128.875767 L9.81818182,128.875767 L9.81818182,128.875767 L9.81818182,128.875767 Z M15.0145504,141.243444 L13.3630146,141.243444 L13.3630146,145.727543 C13.3630146,146.048912 13.3659993,146.30199 13.3779381,146.476734 C13.3878871,146.655496 13.3659993,146.764962 13.3063052,146.812163 C13.2555652,147.005988 13.117274,147.147592 12.8804875,147.238981 C12.65365,147.328362 12.4745678,147.201823 12.352195,146.847313 C12.3273225,146.800112 12.3253327,146.680603 12.3362766,146.493807 C12.3482154,146.308016 12.352195,146.062972 12.352195,145.760684 L12.3173735,141.243444 L10.6658376,141.243444 L10.7046387,145.690385 C10.7046387,146.038869 10.6946897,146.331114 10.6827509,146.567119 C10.6728019,146.80212 10.6747917,146.980882 10.7046387,147.102399 C10.7255317,147.298233 10.7494093,147.50411 10.772292,147.728064 C10.7951747,147.950009 10.9085935,148.129775 11.1165278,148.264348 C11.3065539,148.382853 11.5323965,148.446122 11.7870912,148.446122 C12.0447706,148.446122 12.2994652,148.40093 12.5422211,148.316571 C12.7909464,148.230203 13.0147992,148.114711 13.2267131,147.965073 C13.4346474,147.814432 13.5878622,147.651739 13.6833727,147.485029 L13.6485512,148.370802 L15.0145504,148.405951 L15.0145504,141.243444 L15.0145504,141.243444 L15.0145504,141.243444 L15.0145504,141.243444 Z M13.5023007,129.619937 C13.5023007,128.957114 13.5649795,128.403757 13.6833727,127.971917 C13.8286283,127.523005 14.0604402,127.202641 14.384778,127.010824 C14.7091158,126.767789 15.1210049,126.645267 15.6244248,126.645267 C16.0671558,126.645267 16.4362641,126.720588 16.739709,126.865204 C17.0371844,126.986721 17.2839199,127.196615 17.473946,127.498903 C17.6201965,127.717835 17.7266509,127.963883 17.7992787,128.242068 C17.866932,128.544356 17.9057331,128.950084 17.9057331,129.458248 L17.9057331,131.359345 C17.9057331,132.052297 17.866932,132.546401 17.7992787,132.850697 C17.7694317,133.128882 17.655018,133.436191 17.4371347,133.775637 C17.2212411,134.075916 16.9904241,134.275767 16.739709,134.374186 C16.4362641,134.518802 16.0989927,134.590106 15.7119761,134.590106 C15.32098,134.590106 14.9558513,134.528845 14.6374829,134.409336 C14.3360279,134.311921 14.1121751,134.137177 13.9728889,133.883095 C13.8286283,133.687261 13.7062554,133.41711 13.60975,133.065613 C13.5411019,132.739223 13.5023007,132.246122 13.5023007,131.579282 L13.5023007,129.619937 L13.5023007,129.619937 L13.5023007,129.619937 L13.5023007,129.619937 Z M14.9777391,132.577534 C14.9777391,132.769351 15.0473822,132.942087 15.1926377,133.094737 C15.3349086,133.246383 15.5100112,133.320699 15.7119761,133.320699 C15.9020022,133.320699 16.075115,133.2504 16.2273349,133.102771 C16.3765701,132.960164 16.448203,132.783411 16.448203,132.577534 L16.448203,128.640766 C16.448203,128.422838 16.3765701,128.242068 16.2273349,128.091426 C16.075115,127.938776 15.9020022,127.862451 15.7119761,127.862451 C15.52195,127.862451 15.3488372,127.938776 15.2005969,128.091426 C15.0533516,128.242068 14.9777391,128.422838 14.9777391,128.640766 L14.9777391,132.577534 L14.9777391,132.577534 L14.9777391,132.577534 L14.9777391,132.577534 Z M20.3482154,146.358229 L20.3482154,142.642403 C20.3482154,141.927357 20.0975003,141.420197 19.5940803,141.11791 C19.4289268,141.021499 19.2329312,140.972289 19.0190275,140.972289 C18.621067,140.972289 18.168387,141.159085 17.655018,141.53368 L17.655018,138.741789 L16.0034822,138.741789 L16.0034822,148.335652 L17.3674916,148.298494 L17.473946,147.699944 C17.9196617,148.076548 18.319612,148.306528 18.6698172,148.390887 C19.0249969,148.473238 19.3204825,148.442105 19.567218,148.288451 C19.8139535,148.139818 20.0039796,147.892765 20.1402811,147.545285 C20.2785723,147.203831 20.3482154,146.804129 20.3482154,146.358229 C20.3482154,146.358229 20.3482154,146.804129 20.3482154,146.358229 L20.3482154,146.358229 L20.3482154,146.358229 Z M18.3564233,141.896225 C18.5474443,141.896225 18.7135928,141.955477 18.8658127,142.071973 C19.0150479,142.186461 19.0906604,142.316013 19.0906604,142.459624 L19.0906604,146.668551 C19.0906604,146.812163 19.0150479,146.939706 18.8658127,147.047164 C18.7135928,147.154622 18.5474443,147.211865 18.3564233,147.211865 C18.1624176,147.211865 17.9932844,147.154622 17.8400696,147.047164 C17.6918294,146.939706 17.6201965,146.812163 17.6201965,146.668551 L17.6201965,142.459624 C17.6201965,142.316013 17.6918294,142.186461 17.8400696,142.071973 C17.9932844,141.955477 18.1624176,141.896225 18.3564233,141.896225 C18.3564233,141.896225 18.1624176,141.896225 18.3564233,141.896225 L18.3564233,141.896225 L18.3564233,141.896225 Z M19.1254819,133.812795 C19.0817063,133.713372 19.0478796,133.610935 19.0389255,133.511512 C19.0249969,133.409076 19.0070887,133.309652 18.9822161,133.213242 C18.9593334,133.091724 18.9473946,132.927023 18.9473946,132.721146 L18.9473946,126.938516 L20.4924761,126.938516 L20.4924761,132.703069 C20.4924761,132.850697 20.5442109,132.975228 20.6516602,133.085698 C20.7640841,133.193156 20.9043651,133.2504 21.0844422,133.2504 C21.2515856,133.2504 21.3958463,133.193156 21.5142395,133.085698 C21.6366124,132.975228 21.6963064,132.850697 21.6963064,132.703069 L21.6963064,126.938516 L23.1309539,126.938516 L23.1309539,134.337028 L21.3023256,134.337028 L21.3351573,133.738479 C21.1660241,133.98051 21.0088297,134.168309 20.8516354,134.29987 C20.6596195,134.419379 20.4516851,134.479635 20.2198732,134.479635 C19.9482651,134.479635 19.7164532,134.419379 19.5383659,134.29987 C19.3821664,134.193416 19.24487,134.028715 19.1254819,133.812795 C19.1254819,133.812795 19.24487,134.028715 19.1254819,133.812795 L19.1254819,133.812795 L19.1254819,133.812795 Z M25.5555279,145.890236 L24.3198607,145.890236 L24.3198607,146.703701 C24.3198607,146.898531 24.2502176,147.047164 24.1119264,147.154622 C23.97463,147.267101 23.8114662,147.318319 23.6204452,147.318319 L23.3637607,147.318319 C23.1757244,147.318319 23.01853,147.267101 22.8921776,147.154622 C22.7658251,147.047164 22.7011566,146.898531 22.7011566,146.703701 L22.7011566,144.979357 L25.5555279,144.979357 L25.5555279,143.981105 C25.5555279,143.608518 25.5505534,143.249991 25.5386146,142.904519 C25.5286656,142.560052 25.4978237,142.290906 25.4510633,142.101097 C25.4023131,141.77069 25.2590474,141.507569 25.0083323,141.307718 C24.7655764,141.109875 24.4770551,140.972289 24.1487377,140.90199 C23.8184305,140.825665 23.4841438,140.816626 23.1409029,140.864832 C22.8006467,140.914041 22.505161,141.025516 22.2504664,141.208295 C21.9301082,141.425219 21.6963064,141.724493 21.5510509,142.101097 C21.40878,142.470671 21.3351573,142.991891 21.3351573,143.657727 L21.3351573,145.890236 C21.3351573,146.829236 21.5838826,147.502102 22.073374,147.9008 C22.5280438,148.275395 23.0065912,148.463195 23.5080214,148.463195 L23.6552668,148.463195 C24.2213655,148.428045 24.7148365,148.18501 25.1476185,147.738107 C25.4699664,147.411717 25.6321353,146.980882 25.6321353,146.450623 C25.6142271,146.2809 25.595324,146.094105 25.5555279,145.890236 C25.5555279,145.890236 25.595324,146.094105 25.5555279,145.890236 L25.5555279,145.890236 L25.5555279,145.890236 Z M24.2810596,143.764181 L22.7011566,143.764181 L22.7359781,142.879412 C22.7359781,142.684582 22.8086059,142.525907 22.9518717,142.396355 C23.0961323,142.268812 23.2672553,142.206546 23.4751897,142.206546 L23.5468225,142.206546 C23.7607263,142.206546 23.9427932,142.266803 24.0950131,142.387316 C24.2402686,142.50783 24.3198607,142.671527 24.3198607,142.879412 L24.2810596,143.764181 L24.2810596,143.764181 Z M24.2810596,143.764181" id="you-tube--white" fill="#FFFFFF" sketch:type="MSShapeGroup"></path>
        <path d="M28,99.5612795 L28,107.520179 C28,108.016292 27.8975252,108.472234 27.687601,108.887 C27.4776769,109.30478 27.1941301,109.673349 26.832981,109.987688 C26.4728268,110.303031 26.0569581,110.546067 25.585375,110.728845 C25.1108071,110.909615 24.5994279,111 24.0522323,111 L7.93284417,111 C7.39559756,111 6.89018779,110.909615 6.41561995,110.728845 C5.94403681,110.546067 5.52617834,110.303031 5.16801393,109.987688 C4.81084442,109.673349 4.523318,109.30478 4.31140405,108.887 C4.10346972,108.472234 4,108.016292 4,107.520179 L4,99.5612795 C4,99.0882648 4.10346972,98.6393528 4.31140405,98.2085178 C4.523318,97.778687 4.81084442,97.4101172 5.16801393,97.1028083 C5.52617834,96.7944951 5.94403681,96.5464385 6.41561995,96.3596429 C6.89018779,96.1728473 7.39559756,96.0764367 7.93284417,96.0764367 L24.0522323,96.0764367 C24.588484,96.0764367 25.0948887,96.1728473 25.5774157,96.3596429 C26.0549683,96.5464385 26.4728268,96.7944951 26.832981,97.1028083 C27.1941301,97.4101172 27.4776769,97.778687 27.687601,98.2085178 C27.8975252,98.6393528 28,99.0882648 28,99.5612795 C28,99.5612795 28,99.0882648 28,99.5612795 L28,99.5612795 L28,99.5612795 Z M9.011317,108.405951 L9.011317,100.011196 L10.9881855,100.011196 L10.9881855,98.7417891 L5.65253078,98.7417891 L5.65253078,99.9760461 L7.36177092,99.9760461 L7.36177092,108.405951 L9.011317,108.405951 L9.011317,108.405951 L9.011317,108.405951 L9.011317,108.405951 Z M9.81818182,88.8757672 L7.6085064,84 L9.53264519,84 L10.631016,87.644523 L11.728392,84 L13.6485512,84 L11.5791568,88.8757672 L11.5791568,94.553952 L9.81818182,94.553952 L9.81818182,88.8757672 L9.81818182,88.8757672 L9.81818182,88.8757672 L9.81818182,88.8757672 Z M15.0145504,101.243444 L13.3630146,101.243444 L13.3630146,105.727543 C13.3630146,106.048912 13.3659993,106.30199 13.3779381,106.476734 C13.3878871,106.655496 13.3659993,106.764962 13.3063052,106.812163 C13.2555652,107.005988 13.117274,107.147592 12.8804875,107.238981 C12.65365,107.328362 12.4745678,107.201823 12.352195,106.847313 C12.3273225,106.800112 12.3253327,106.680603 12.3362766,106.493807 C12.3482154,106.308016 12.352195,106.062972 12.352195,105.760684 L12.3173735,101.243444 L10.6658376,101.243444 L10.7046387,105.690385 C10.7046387,106.038869 10.6946897,106.331114 10.6827509,106.567119 C10.6728019,106.80212 10.6747917,106.980882 10.7046387,107.102399 C10.7255317,107.298233 10.7494093,107.50411 10.772292,107.728064 C10.7951747,107.950009 10.9085935,108.129775 11.1165278,108.264348 C11.3065539,108.382853 11.5323965,108.446122 11.7870912,108.446122 C12.0447706,108.446122 12.2994652,108.40093 12.5422211,108.316571 C12.7909464,108.230203 13.0147992,108.114711 13.2267131,107.965073 C13.4346474,107.814432 13.5878622,107.651739 13.6833727,107.485029 L13.6485512,108.370802 L15.0145504,108.405951 L15.0145504,101.243444 L15.0145504,101.243444 L15.0145504,101.243444 L15.0145504,101.243444 Z M13.5023007,89.6199368 C13.5023007,88.9571136 13.5649795,88.4037567 13.6833727,87.9719174 C13.8286283,87.5230054 14.0604402,87.2026409 14.384778,87.0108239 C14.7091158,86.7677887 15.1210049,86.6452669 15.6244248,86.6452669 C16.0671558,86.6452669 16.4362641,86.7205877 16.739709,86.8652036 C17.0371844,86.9867212 17.2839199,87.1966152 17.473946,87.4989027 C17.6201965,87.7178352 17.7266509,87.9638832 17.7992787,88.2420681 C17.866932,88.5443556 17.9057331,88.9500837 17.9057331,89.4582481 L17.9057331,91.3593454 C17.9057331,92.0522968 17.866932,92.5464013 17.7992787,92.8506974 C17.7694317,93.1288823 17.655018,93.4361912 17.4371347,93.775637 C17.2212411,94.0759159 16.9904241,94.2757672 16.739709,94.3741863 C16.4362641,94.5188023 16.0989927,94.590106 15.7119761,94.590106 C15.32098,94.590106 14.9558513,94.5288451 14.6374829,94.4093361 C14.3360279,94.3119211 14.1121751,94.1371769 13.9728889,93.8830947 C13.8286283,93.6872606 13.7062554,93.4171099 13.60975,93.0656128 C13.5411019,92.7392226 13.5023007,92.2461224 13.5023007,91.5792821 L13.5023007,89.6199368 L13.5023007,89.6199368 L13.5023007,89.6199368 L13.5023007,89.6199368 Z M14.9777391,92.5775339 C14.9777391,92.7693509 15.0473822,92.9420867 15.1926377,93.0947368 C15.3349086,93.2463827 15.5100112,93.3206993 15.7119761,93.3206993 C15.9020022,93.3206993 16.075115,93.2503999 16.2273349,93.1027711 C16.3765701,92.9601637 16.448203,92.7834108 16.448203,92.5775339 L16.448203,88.6407662 C16.448203,88.422838 16.3765701,88.2420681 16.2273349,88.0914264 C16.075115,87.9387763 15.9020022,87.8624512 15.7119761,87.8624512 C15.52195,87.8624512 15.3488372,87.9387763 15.2005969,88.0914264 C15.0533516,88.2420681 14.9777391,88.422838 14.9777391,88.6407662 L14.9777391,92.5775339 L14.9777391,92.5775339 L14.9777391,92.5775339 L14.9777391,92.5775339 Z M20.3482154,106.358229 L20.3482154,102.642403 C20.3482154,101.927357 20.0975003,101.420197 19.5940803,101.11791 C19.4289268,101.021499 19.2329312,100.972289 19.0190275,100.972289 C18.621067,100.972289 18.168387,101.159085 17.655018,101.53368 L17.655018,98.7417891 L16.0034822,98.7417891 L16.0034822,108.335652 L17.3674916,108.298494 L17.473946,107.699944 C17.9196617,108.076548 18.319612,108.306528 18.6698172,108.390887 C19.0249969,108.473238 19.3204825,108.442105 19.567218,108.288451 C19.8139535,108.139818 20.0039796,107.892765 20.1402811,107.545285 C20.2785723,107.203831 20.3482154,106.804129 20.3482154,106.358229 C20.3482154,106.358229 20.3482154,106.804129 20.3482154,106.358229 L20.3482154,106.358229 L20.3482154,106.358229 Z M18.3564233,101.896225 C18.5474443,101.896225 18.7135928,101.955477 18.8658127,102.071973 C19.0150479,102.186461 19.0906604,102.316013 19.0906604,102.459624 L19.0906604,106.668551 C19.0906604,106.812163 19.0150479,106.939706 18.8658127,107.047164 C18.7135928,107.154622 18.5474443,107.211865 18.3564233,107.211865 C18.1624176,107.211865 17.9932844,107.154622 17.8400696,107.047164 C17.6918294,106.939706 17.6201965,106.812163 17.6201965,106.668551 L17.6201965,102.459624 C17.6201965,102.316013 17.6918294,102.186461 17.8400696,102.071973 C17.9932844,101.955477 18.1624176,101.896225 18.3564233,101.896225 C18.3564233,101.896225 18.1624176,101.896225 18.3564233,101.896225 L18.3564233,101.896225 L18.3564233,101.896225 Z M19.1254819,93.8127952 C19.0817063,93.7133718 19.0478796,93.6109355 19.0389255,93.511512 C19.0249969,93.4090757 19.0070887,93.3096522 18.9822161,93.2132416 C18.9593334,93.091724 18.9473946,92.9270225 18.9473946,92.7211456 L18.9473946,86.9385159 L20.4924761,86.9385159 L20.4924761,92.7030686 C20.4924761,92.8506974 20.5442109,92.9752278 20.6516602,93.0856983 C20.7640841,93.193156 20.9043651,93.2503999 21.0844422,93.2503999 C21.2515856,93.2503999 21.3958463,93.193156 21.5142395,93.0856983 C21.6366124,92.9752278 21.6963064,92.8506974 21.6963064,92.7030686 L21.6963064,86.9385159 L23.1309539,86.9385159 L23.1309539,94.3370281 L21.3023256,94.3370281 L21.3351573,93.7384787 C21.1660241,93.9805096 21.0088297,94.1683095 20.8516354,94.2998698 C20.6596195,94.4193788 20.4516851,94.4796355 20.2198732,94.4796355 C19.9482651,94.4796355 19.7164532,94.4193788 19.5383659,94.2998698 C19.3821664,94.1934164 19.24487,94.0287149 19.1254819,93.8127952 C19.1254819,93.8127952 19.24487,94.0287149 19.1254819,93.8127952 L19.1254819,93.8127952 L19.1254819,93.8127952 Z M25.5555279,105.890236 L24.3198607,105.890236 L24.3198607,106.703701 C24.3198607,106.898531 24.2502176,107.047164 24.1119264,107.154622 C23.97463,107.267101 23.8114662,107.318319 23.6204452,107.318319 L23.3637607,107.318319 C23.1757244,107.318319 23.01853,107.267101 22.8921776,107.154622 C22.7658251,107.047164 22.7011566,106.898531 22.7011566,106.703701 L22.7011566,104.979357 L25.5555279,104.979357 L25.5555279,103.981105 C25.5555279,103.608518 25.5505534,103.249991 25.5386146,102.904519 C25.5286656,102.560052 25.4978237,102.290906 25.4510633,102.101097 C25.4023131,101.77069 25.2590474,101.507569 25.0083323,101.307718 C24.7655764,101.109875 24.4770551,100.972289 24.1487377,100.90199 C23.8184305,100.825665 23.4841438,100.816626 23.1409029,100.864832 C22.8006467,100.914041 22.505161,101.025516 22.2504664,101.208295 C21.9301082,101.425219 21.6963064,101.724493 21.5510509,102.101097 C21.40878,102.470671 21.3351573,102.991891 21.3351573,103.657727 L21.3351573,105.890236 C21.3351573,106.829236 21.5838826,107.502102 22.073374,107.9008 C22.5280438,108.275395 23.0065912,108.463195 23.5080214,108.463195 L23.6552668,108.463195 C24.2213655,108.428045 24.7148365,108.18501 25.1476185,107.738107 C25.4699664,107.411717 25.6321353,106.980882 25.6321353,106.450623 C25.6142271,106.2809 25.595324,106.094105 25.5555279,105.890236 C25.5555279,105.890236 25.595324,106.094105 25.5555279,105.890236 L25.5555279,105.890236 L25.5555279,105.890236 Z M24.2810596,103.764181 L22.7011566,103.764181 L22.7359781,102.879412 C22.7359781,102.684582 22.8086059,102.525907 22.9518717,102.396355 C23.0961323,102.268812 23.2672553,102.206546 23.4751897,102.206546 L23.5468225,102.206546 C23.7607263,102.206546 23.9427932,102.266803 24.0950131,102.387316 C24.2402686,102.50783 24.3198607,102.671527 24.3198607,102.879412 L24.2810596,103.764181 L24.2810596,103.764181 Z M24.2810596,103.764181" id="you-tube--subdued-grey" fill="#E5EDF5" sketch:type="MSShapeGroup"></path>
        <path d="M28,59.5612795 L28,67.5201785 C28,68.0162916 27.8975252,68.4722336 27.687601,68.8870002 C27.4776769,69.3047796 27.1941301,69.6733495 26.832981,69.9876883 C26.4728268,70.3030314 26.0569581,70.5460666 25.585375,70.7288451 C25.1108071,70.909615 24.5994279,71 24.0522323,71 L7.93284417,71 C7.39559756,71 6.89018779,70.909615 6.41561995,70.7288451 C5.94403681,70.5460666 5.52617834,70.3030314 5.16801393,69.9876883 C4.81084442,69.6733495 4.523318,69.3047796 4.31140405,68.8870002 C4.10346972,68.4722336 4,68.0162916 4,67.5201785 L4,59.5612795 C4,59.0882648 4.10346972,58.6393528 4.31140405,58.2085178 C4.523318,57.778687 4.81084442,57.4101172 5.16801393,57.1028083 C5.52617834,56.7944951 5.94403681,56.5464385 6.41561995,56.3596429 C6.89018779,56.1728473 7.39559756,56.0764367 7.93284417,56.0764367 L24.0522323,56.0764367 C24.588484,56.0764367 25.0948887,56.1728473 25.5774157,56.3596429 C26.0549683,56.5464385 26.4728268,56.7944951 26.832981,57.1028083 C27.1941301,57.4101172 27.4776769,57.778687 27.687601,58.2085178 C27.8975252,58.6393528 28,59.0882648 28,59.5612795 C28,59.5612795 28,59.0882648 28,59.5612795 L28,59.5612795 L28,59.5612795 Z M9.011317,68.4059513 L9.011317,60.0111958 L10.9881855,60.0111958 L10.9881855,58.7417891 L5.65253078,58.7417891 L5.65253078,59.9760461 L7.36177092,59.9760461 L7.36177092,68.4059513 L9.011317,68.4059513 L9.011317,68.4059513 L9.011317,68.4059513 L9.011317,68.4059513 Z M9.81818182,48.8757672 L7.6085064,44 L9.53264519,44 L10.631016,47.644523 L11.728392,44 L13.6485512,44 L11.5791568,48.8757672 L11.5791568,54.553952 L9.81818182,54.553952 L9.81818182,48.8757672 L9.81818182,48.8757672 L9.81818182,48.8757672 L9.81818182,48.8757672 Z M15.0145504,61.2434443 L13.3630146,61.2434443 L13.3630146,65.7275432 C13.3630146,66.048912 13.3659993,66.30199 13.3779381,66.4767342 C13.3878871,66.6554956 13.3659993,66.7649619 13.3063052,66.8121629 C13.2555652,67.0059885 13.117274,67.1475916 12.8804875,67.2389808 C12.65365,67.3283615 12.4745678,67.2018226 12.352195,66.8473126 C12.3273225,66.8001116 12.3253327,66.6806026 12.3362766,66.493807 C12.3482154,66.3080156 12.352195,66.0629719 12.352195,65.7606844 L12.3173735,61.2434443 L10.6658376,61.2434443 L10.7046387,65.690385 C10.7046387,66.0388693 10.6946897,66.331114 10.6827509,66.5671192 C10.6728019,66.8021201 10.6747917,66.9808815 10.7046387,67.1023991 C10.7255317,67.2982332 10.7494093,67.5041101 10.772292,67.728064 C10.7951747,67.9500093 10.9085935,68.129775 11.1165278,68.2643481 C11.3065539,68.3828529 11.5323965,68.4461224 11.7870912,68.4461224 C12.0447706,68.4461224 12.2994652,68.4009299 12.5422211,68.3165706 C12.7909464,68.2302027 13.0147992,68.1147108 13.2267131,67.9650735 C13.4346474,67.8144318 13.5878622,67.6517389 13.6833727,67.4850288 L13.6485512,68.3708016 L15.0145504,68.4059513 L15.0145504,61.2434443 L15.0145504,61.2434443 L15.0145504,61.2434443 L15.0145504,61.2434443 Z M13.5023007,49.6199368 C13.5023007,48.9571136 13.5649795,48.4037567 13.6833727,47.9719174 C13.8286283,47.5230054 14.0604402,47.2026409 14.384778,47.0108239 C14.7091158,46.7677887 15.1210049,46.6452669 15.6244248,46.6452669 C16.0671558,46.6452669 16.4362641,46.7205877 16.739709,46.8652036 C17.0371844,46.9867212 17.2839199,47.1966152 17.473946,47.4989027 C17.6201965,47.7178352 17.7266509,47.9638832 17.7992787,48.2420681 C17.866932,48.5443556 17.9057331,48.9500837 17.9057331,49.4582481 L17.9057331,51.3593454 C17.9057331,52.0522968 17.866932,52.5464013 17.7992787,52.8506974 C17.7694317,53.1288823 17.655018,53.4361912 17.4371347,53.775637 C17.2212411,54.0759159 16.9904241,54.2757672 16.739709,54.3741863 C16.4362641,54.5188023 16.0989927,54.590106 15.7119761,54.590106 C15.32098,54.590106 14.9558513,54.5288451 14.6374829,54.4093361 C14.3360279,54.3119211 14.1121751,54.1371769 13.9728889,53.8830947 C13.8286283,53.6872606 13.7062554,53.4171099 13.60975,53.0656128 C13.5411019,52.7392226 13.5023007,52.2461224 13.5023007,51.5792821 L13.5023007,49.6199368 L13.5023007,49.6199368 L13.5023007,49.6199368 L13.5023007,49.6199368 Z M14.9777391,52.5775339 C14.9777391,52.7693509 15.0473822,52.9420867 15.1926377,53.0947368 C15.3349086,53.2463827 15.5100112,53.3206993 15.7119761,53.3206993 C15.9020022,53.3206993 16.075115,53.2503999 16.2273349,53.1027711 C16.3765701,52.9601637 16.448203,52.7834108 16.448203,52.5775339 L16.448203,48.6407662 C16.448203,48.422838 16.3765701,48.2420681 16.2273349,48.0914264 C16.075115,47.9387763 15.9020022,47.8624512 15.7119761,47.8624512 C15.52195,47.8624512 15.3488372,47.9387763 15.2005969,48.0914264 C15.0533516,48.2420681 14.9777391,48.422838 14.9777391,48.6407662 L14.9777391,52.5775339 L14.9777391,52.5775339 L14.9777391,52.5775339 L14.9777391,52.5775339 Z M20.3482154,66.3582295 L20.3482154,62.6424028 C20.3482154,61.9273573 20.0975003,61.4201971 19.5940803,61.1179096 C19.4289268,61.021499 19.2329312,60.9722894 19.0190275,60.9722894 C18.621067,60.9722894 18.168387,61.159085 17.655018,61.5336805 L17.655018,58.7417891 L16.0034822,58.7417891 L16.0034822,68.3356519 L17.3674916,68.2984936 L17.473946,67.6999442 C17.9196617,68.0765483 18.319612,68.3065278 18.6698172,68.3908871 C19.0249969,68.4732379 19.3204825,68.4421053 19.567218,68.2884508 C19.8139535,68.1398177 20.0039796,67.8927655 20.1402811,67.5452855 C20.2785723,67.2038311 20.3482154,66.8041287 20.3482154,66.3582295 C20.3482154,66.3582295 20.3482154,66.8041287 20.3482154,66.3582295 L20.3482154,66.3582295 L20.3482154,66.3582295 Z M18.3564233,61.8962247 C18.5474443,61.8962247 18.7135928,61.955477 18.8658127,62.0719732 C19.0150479,62.1864609 19.0906604,62.3160126 19.0906604,62.4596243 L19.0906604,66.6685512 C19.0906604,66.8121629 19.0150479,66.9397062 18.8658127,67.0471638 C18.7135928,67.1546215 18.5474443,67.2118654 18.3564233,67.2118654 C18.1624176,67.2118654 17.9932844,67.1546215 17.8400696,67.0471638 C17.6918294,66.9397062 17.6201965,66.8121629 17.6201965,66.6685512 L17.6201965,62.4596243 C17.6201965,62.3160126 17.6918294,62.1864609 17.8400696,62.0719732 C17.9932844,61.955477 18.1624176,61.8962247 18.3564233,61.8962247 C18.3564233,61.8962247 18.1624176,61.8962247 18.3564233,61.8962247 L18.3564233,61.8962247 L18.3564233,61.8962247 Z M19.1254819,53.8127952 C19.0817063,53.7133718 19.0478796,53.6109355 19.0389255,53.511512 C19.0249969,53.4090757 19.0070887,53.3096522 18.9822161,53.2132416 C18.9593334,53.091724 18.9473946,52.9270225 18.9473946,52.7211456 L18.9473946,46.9385159 L20.4924761,46.9385159 L20.4924761,52.7030686 C20.4924761,52.8506974 20.5442109,52.9752278 20.6516602,53.0856983 C20.7640841,53.193156 20.9043651,53.2503999 21.0844422,53.2503999 C21.2515856,53.2503999 21.3958463,53.193156 21.5142395,53.0856983 C21.6366124,52.9752278 21.6963064,52.8506974 21.6963064,52.7030686 L21.6963064,46.9385159 L23.1309539,46.9385159 L23.1309539,54.3370281 L21.3023256,54.3370281 L21.3351573,53.7384787 C21.1660241,53.9805096 21.0088297,54.1683095 20.8516354,54.2998698 C20.6596195,54.4193788 20.4516851,54.4796355 20.2198732,54.4796355 C19.9482651,54.4796355 19.7164532,54.4193788 19.5383659,54.2998698 C19.3821664,54.1934164 19.24487,54.0287149 19.1254819,53.8127952 C19.1254819,53.8127952 19.24487,54.0287149 19.1254819,53.8127952 L19.1254819,53.8127952 L19.1254819,53.8127952 Z M25.5555279,65.8902362 L24.3198607,65.8902362 L24.3198607,66.7037009 C24.3198607,66.8985308 24.2502176,67.0471638 24.1119264,67.1546215 C23.97463,67.2671006 23.8114662,67.3183188 23.6204452,67.3183188 L23.3637607,67.3183188 C23.1757244,67.3183188 23.01853,67.2671006 22.8921776,67.1546215 C22.7658251,67.0471638 22.7011566,66.8985308 22.7011566,66.7037009 L22.7011566,64.9793565 L25.5555279,64.9793565 L25.5555279,63.9811047 C25.5555279,63.6085178 25.5505534,63.2499907 25.5386146,62.9045192 C25.5286656,62.5600521 25.4978237,62.2909057 25.4510633,62.1010973 C25.4023131,61.77069 25.2590474,61.5075693 25.0083323,61.3077181 C24.7655764,61.1098754 24.4770551,60.9722894 24.1487377,60.90199 C23.8184305,60.8256649 23.4841438,60.8166264 23.1409029,60.8648317 C22.8006467,60.9140413 22.505161,61.0255161 22.2504664,61.2082946 C21.9301082,61.4252185 21.6963064,61.7244932 21.5510509,62.1010973 C21.40878,62.4706714 21.3351573,62.9918914 21.3351573,63.6577274 L21.3351573,65.8902362 C21.3351573,66.8292356 21.5838826,67.5021015 22.073374,67.9007997 C22.5280438,68.2753952 23.0065912,68.4631951 23.5080214,68.4631951 L23.6552668,68.4631951 C24.2213655,68.4280454 24.7148365,68.1850102 25.1476185,67.7381068 C25.4699664,67.4117166 25.6321353,66.9808815 25.6321353,66.450623 C25.6142271,66.2809001 25.595324,66.0941045 25.5555279,65.8902362 C25.5555279,65.8902362 25.595324,66.0941045 25.5555279,65.8902362 L25.5555279,65.8902362 L25.5555279,65.8902362 Z M24.2810596,63.7641808 L22.7011566,63.7641808 L22.7359781,62.8794123 C22.7359781,62.6845825 22.8086059,62.5259066 22.9518717,62.3963548 C23.0961323,62.2688116 23.2672553,62.2065464 23.4751897,62.2065464 L23.5468225,62.2065464 C23.7607263,62.2065464 23.9427932,62.2668031 24.0950131,62.3873163 C24.2402686,62.5078296 24.3198607,62.6715269 24.3198607,62.8794123 L24.2810596,63.7641808 L24.2810596,63.7641808 Z M24.2810596,63.7641808" id="you-tube--body-grey" fill="#67737B" sketch:type="MSShapeGroup"></path>
        <path d="M28,19.5612795 L28,27.5201785 C28,28.0162916 27.8975252,28.4722336 27.687601,28.8870002 C27.4776769,29.3047796 27.1941301,29.6733495 26.832981,29.9876883 C26.4728268,30.3030314 26.0569581,30.5460666 25.585375,30.7288451 C25.1108071,30.909615 24.5994279,31 24.0522323,31 L7.93284417,31 C7.39559756,31 6.89018779,30.909615 6.41561995,30.7288451 C5.94403681,30.5460666 5.52617834,30.3030314 5.16801393,29.9876883 C4.81084442,29.6733495 4.523318,29.3047796 4.31140405,28.8870002 C4.10346972,28.4722336 4,28.0162916 4,27.5201785 L4,19.5612795 C4,19.0882648 4.10346972,18.6393528 4.31140405,18.2085178 C4.523318,17.778687 4.81084442,17.4101172 5.16801393,17.1028083 C5.52617834,16.7944951 5.94403681,16.5464385 6.41561995,16.3596429 C6.89018779,16.1728473 7.39559756,16.0764367 7.93284417,16.0764367 L24.0522323,16.0764367 C24.588484,16.0764367 25.0948887,16.1728473 25.5774157,16.3596429 C26.0549683,16.5464385 26.4728268,16.7944951 26.832981,17.1028083 C27.1941301,17.4101172 27.4776769,17.778687 27.687601,18.2085178 C27.8975252,18.6393528 28,19.0882648 28,19.5612795 C28,19.5612795 28,19.0882648 28,19.5612795 L28,19.5612795 L28,19.5612795 Z M9.011317,28.4059513 L9.011317,20.0111958 L10.9881855,20.0111958 L10.9881855,18.7417891 L5.65253078,18.7417891 L5.65253078,19.9760461 L7.36177092,19.9760461 L7.36177092,28.4059513 L9.011317,28.4059513 L9.011317,28.4059513 L9.011317,28.4059513 L9.011317,28.4059513 Z M9.81818182,8.87576716 L7.6085064,4 L9.53264519,4 L10.631016,7.64452297 L11.728392,4 L13.6485512,4 L11.5791568,8.87576716 L11.5791568,14.553952 L9.81818182,14.553952 L9.81818182,8.87576716 L9.81818182,8.87576716 L9.81818182,8.87576716 L9.81818182,8.87576716 Z M15.0145504,21.2434443 L13.3630146,21.2434443 L13.3630146,25.7275432 C13.3630146,26.048912 13.3659993,26.30199 13.3779381,26.4767342 C13.3878871,26.6554956 13.3659993,26.7649619 13.3063052,26.8121629 C13.2555652,27.0059885 13.117274,27.1475916 12.8804875,27.2389808 C12.65365,27.3283615 12.4745678,27.2018226 12.352195,26.8473126 C12.3273225,26.8001116 12.3253327,26.6806026 12.3362766,26.493807 C12.3482154,26.3080156 12.352195,26.0629719 12.352195,25.7606844 L12.3173735,21.2434443 L10.6658376,21.2434443 L10.7046387,25.690385 C10.7046387,26.0388693 10.6946897,26.331114 10.6827509,26.5671192 C10.6728019,26.8021201 10.6747917,26.9808815 10.7046387,27.1023991 C10.7255317,27.2982332 10.7494093,27.5041101 10.772292,27.728064 C10.7951747,27.9500093 10.9085935,28.129775 11.1165278,28.2643481 C11.3065539,28.3828529 11.5323965,28.4461224 11.7870912,28.4461224 C12.0447706,28.4461224 12.2994652,28.4009299 12.5422211,28.3165706 C12.7909464,28.2302027 13.0147992,28.1147108 13.2267131,27.9650735 C13.4346474,27.8144318 13.5878622,27.6517389 13.6833727,27.4850288 L13.6485512,28.3708016 L15.0145504,28.4059513 L15.0145504,21.2434443 L15.0145504,21.2434443 L15.0145504,21.2434443 L15.0145504,21.2434443 Z M13.5023007,9.61993677 C13.5023007,8.95711363 13.5649795,8.40375674 13.6833727,7.97191743 C13.8286283,7.52300539 14.0604402,7.20264088 14.384778,7.01082388 C14.7091158,6.76778873 15.1210049,6.64526688 15.6244248,6.64526688 C16.0671558,6.64526688 16.4362641,6.72058769 16.739709,6.86520365 C17.0371844,6.98672122 17.2839199,7.19661521 17.473946,7.49890273 C17.6201965,7.71783522 17.7266509,7.96388321 17.7992787,8.24206807 C17.866932,8.54435559 17.9057331,8.95008369 17.9057331,9.45824809 L17.9057331,11.3593454 C17.9057331,12.0522968 17.866932,12.5464013 17.7992787,12.8506974 C17.7694317,13.1288823 17.655018,13.4361912 17.4371347,13.775637 C17.2212411,14.0759159 16.9904241,14.2757672 16.739709,14.3741863 C16.4362641,14.5188023 16.0989927,14.590106 15.7119761,14.590106 C15.32098,14.590106 14.9558513,14.5288451 14.6374829,14.4093361 C14.3360279,14.3119211 14.1121751,14.1371769 13.9728889,13.8830947 C13.8286283,13.6872606 13.7062554,13.4171099 13.60975,13.0656128 C13.5411019,12.7392226 13.5023007,12.2461224 13.5023007,11.5792821 L13.5023007,9.61993677 L13.5023007,9.61993677 L13.5023007,9.61993677 L13.5023007,9.61993677 Z M14.9777391,12.5775339 C14.9777391,12.7693509 15.0473822,12.9420867 15.1926377,13.0947368 C15.3349086,13.2463827 15.5100112,13.3206993 15.7119761,13.3206993 C15.9020022,13.3206993 16.075115,13.2503999 16.2273349,13.1027711 C16.3765701,12.9601637 16.448203,12.7834108 16.448203,12.5775339 L16.448203,8.64076623 C16.448203,8.42283801 16.3765701,8.24206807 16.2273349,8.09142645 C16.075115,7.93877627 15.9020022,7.86245118 15.7119761,7.86245118 C15.52195,7.86245118 15.3488372,7.93877627 15.2005969,8.09142645 C15.0533516,8.24206807 14.9777391,8.42283801 14.9777391,8.64076623 L14.9777391,12.5775339 L14.9777391,12.5775339 L14.9777391,12.5775339 L14.9777391,12.5775339 Z M20.3482154,26.3582295 L20.3482154,22.6424028 C20.3482154,21.9273573 20.0975003,21.4201971 19.5940803,21.1179096 C19.4289268,21.021499 19.2329312,20.9722894 19.0190275,20.9722894 C18.621067,20.9722894 18.168387,21.159085 17.655018,21.5336805 L17.655018,18.7417891 L16.0034822,18.7417891 L16.0034822,28.3356519 L17.3674916,28.2984936 L17.473946,27.6999442 C17.9196617,28.0765483 18.319612,28.3065278 18.6698172,28.3908871 C19.0249969,28.4732379 19.3204825,28.4421053 19.567218,28.2884508 C19.8139535,28.1398177 20.0039796,27.8927655 20.1402811,27.5452855 C20.2785723,27.2038311 20.3482154,26.8041287 20.3482154,26.3582295 C20.3482154,26.3582295 20.3482154,26.8041287 20.3482154,26.3582295 L20.3482154,26.3582295 L20.3482154,26.3582295 Z M18.3564233,21.8962247 C18.5474443,21.8962247 18.7135928,21.955477 18.8658127,22.0719732 C19.0150479,22.1864609 19.0906604,22.3160126 19.0906604,22.4596243 L19.0906604,26.6685512 C19.0906604,26.8121629 19.0150479,26.9397062 18.8658127,27.0471638 C18.7135928,27.1546215 18.5474443,27.2118654 18.3564233,27.2118654 C18.1624176,27.2118654 17.9932844,27.1546215 17.8400696,27.0471638 C17.6918294,26.9397062 17.6201965,26.8121629 17.6201965,26.6685512 L17.6201965,22.4596243 C17.6201965,22.3160126 17.6918294,22.1864609 17.8400696,22.0719732 C17.9932844,21.955477 18.1624176,21.8962247 18.3564233,21.8962247 C18.3564233,21.8962247 18.1624176,21.8962247 18.3564233,21.8962247 L18.3564233,21.8962247 L18.3564233,21.8962247 Z M19.1254819,13.8127952 C19.0817063,13.7133718 19.0478796,13.6109355 19.0389255,13.511512 C19.0249969,13.4090757 19.0070887,13.3096522 18.9822161,13.2132416 C18.9593334,13.091724 18.9473946,12.9270225 18.9473946,12.7211456 L18.9473946,6.9385159 L20.4924761,6.9385159 L20.4924761,12.7030686 C20.4924761,12.8506974 20.5442109,12.9752278 20.6516602,13.0856983 C20.7640841,13.193156 20.9043651,13.2503999 21.0844422,13.2503999 C21.2515856,13.2503999 21.3958463,13.193156 21.5142395,13.0856983 C21.6366124,12.9752278 21.6963064,12.8506974 21.6963064,12.7030686 L21.6963064,6.9385159 L23.1309539,6.9385159 L23.1309539,14.3370281 L21.3023256,14.3370281 L21.3351573,13.7384787 C21.1660241,13.9805096 21.0088297,14.1683095 20.8516354,14.2998698 C20.6596195,14.4193788 20.4516851,14.4796355 20.2198732,14.4796355 C19.9482651,14.4796355 19.7164532,14.4193788 19.5383659,14.2998698 C19.3821664,14.1934164 19.24487,14.0287149 19.1254819,13.8127952 C19.1254819,13.8127952 19.24487,14.0287149 19.1254819,13.8127952 L19.1254819,13.8127952 L19.1254819,13.8127952 Z M25.5555279,25.8902362 L24.3198607,25.8902362 L24.3198607,26.7037009 C24.3198607,26.8985308 24.2502176,27.0471638 24.1119264,27.1546215 C23.97463,27.2671006 23.8114662,27.3183188 23.6204452,27.3183188 L23.3637607,27.3183188 C23.1757244,27.3183188 23.01853,27.2671006 22.8921776,27.1546215 C22.7658251,27.0471638 22.7011566,26.8985308 22.7011566,26.7037009 L22.7011566,24.9793565 L25.5555279,24.9793565 L25.5555279,23.9811047 C25.5555279,23.6085178 25.5505534,23.2499907 25.5386146,22.9045192 C25.5286656,22.5600521 25.4978237,22.2909057 25.4510633,22.1010973 C25.4023131,21.77069 25.2590474,21.5075693 25.0083323,21.3077181 C24.7655764,21.1098754 24.4770551,20.9722894 24.1487377,20.90199 C23.8184305,20.8256649 23.4841438,20.8166264 23.1409029,20.8648317 C22.8006467,20.9140413 22.505161,21.0255161 22.2504664,21.2082946 C21.9301082,21.4252185 21.6963064,21.7244932 21.5510509,22.1010973 C21.40878,22.4706714 21.3351573,22.9918914 21.3351573,23.6577274 L21.3351573,25.8902362 C21.3351573,26.8292356 21.5838826,27.5021015 22.073374,27.9007997 C22.5280438,28.2753952 23.0065912,28.4631951 23.5080214,28.4631951 L23.6552668,28.4631951 C24.2213655,28.4280454 24.7148365,28.1850102 25.1476185,27.7381068 C25.4699664,27.4117166 25.6321353,26.9808815 25.6321353,26.450623 C25.6142271,26.2809001 25.595324,26.0941045 25.5555279,25.8902362 C25.5555279,25.8902362 25.595324,26.0941045 25.5555279,25.8902362 L25.5555279,25.8902362 L25.5555279,25.8902362 Z M24.2810596,23.7641808 L22.7011566,23.7641808 L22.7359781,22.8794123 C22.7359781,22.6845825 22.8086059,22.5259066 22.9518717,22.3963548 C23.0961323,22.2688116 23.2672553,22.2065464 23.4751897,22.2065464 L23.5468225,22.2065464 C23.7607263,22.2065464 23.9427932,22.2668031 24.0950131,22.3873163 C24.2402686,22.5078296 24.3198607,22.6715269 24.3198607,22.8794123 L24.2810596,23.7641808 L24.2810596,23.7641808 Z M24.2810596,23.7641808" id="you-tube--title-grey" fill="#3A434E" sketch:type="MSShapeGroup"></path>
    </g>
</svg>