<?xml version="1.0" encoding="UTF-8" standalone="no"?>
<svg width="32px" height="232px" viewBox="0 0 32 232" version="1.1" xmlns="http://www.w3.org/2000/svg" xmlns:xlink="http://www.w3.org/1999/xlink" xmlns:sketch="http://www.bohemiancoding.com/sketch/ns">
    <title>youtube</title>
    <description>Created with Sketch (http://www.bohemiancoding.com/sketch)</description>
    <defs></defs>
    <g id="Social" stroke="none" stroke-width="1" fill="none" fill-rule="evenodd" sketch:type="MSPage">
        <path d="M26,17.6795611 L26,24.1645899 C26,24.5688302 25.9146043,24.9403385 25.7396675,25.2782964 C25.5647308,25.6187093 25.3284417,25.9190255 25.0274841,26.1751534 C24.7273556,26.4320997 24.3807984,26.6301283 23.9878125,26.779059 C23.5923393,26.926353 23.1661899,27 22.7101936,27 L9.27737014,27 C8.82966464,27 8.40848982,26.926353 8.01301662,26.779059 C7.62003068,26.6301283 7.27181528,26.4320997 6.97334494,26.1751534 C6.67570369,25.9190255 6.43609833,25.6187093 6.25950338,25.2782964 C6.08622476,24.9403385 6,24.5688302 6,24.1645899 L6,17.6795611 C6,17.2941417 6.08622476,16.9283615 6.25950338,16.5773108 C6.43609833,16.2270783 6.67570369,15.9267621 6.97334494,15.6763623 C7.27181528,15.4251441 7.62003068,15.223024 8.01301662,15.0708202 C8.40848982,14.9186163 8.82966464,14.8400595 9.27737014,14.8400595 L22.7101936,14.8400595 C23.15707,14.8400595 23.5790739,14.9186163 23.9811798,15.0708202 C24.3791402,15.223024 24.7273556,15.4251441 25.0274841,15.6763623 C25.3284417,15.9267621 25.5647308,16.2270783 25.7396675,16.5773108 C25.9146043,16.9283615 26,17.2941417 26,17.6795611 C26,17.6795611 26,17.2941417 26,17.6795611 L26,17.6795611 L26,17.6795611 Z M10.1760975,24.8863307 L10.1760975,18.0461596 L11.823488,18.0461596 L11.823488,17.0118282 L7.37710898,17.0118282 L7.37710898,18.0175191 L8.80147577,18.0175191 L8.80147577,24.8863307 L10.1760975,24.8863307 L10.1760975,24.8863307 L10.1760975,24.8863307 L10.1760975,24.8863307 Z M10.8484848,8.97284731 L9.00708867,5 L10.6105377,5 L11.5258467,7.96961131 L12.4403267,5 L14.0404593,5 L12.315964,8.97284731 L12.315964,13.5995165 L10.8484848,13.5995165 L10.8484848,8.97284731 L10.8484848,8.97284731 L10.8484848,8.97284731 L10.8484848,8.97284731 Z M15.178792,19.0502139 L13.8025121,19.0502139 L13.8025121,22.7039241 C13.8025121,22.9657802 13.8049994,23.1719918 13.8149484,23.314376 C13.8232392,23.4600335 13.8049994,23.5492282 13.7552543,23.5876883 C13.712971,23.7456202 13.5977283,23.8610006 13.4004063,23.9354659 C13.211375,24.0082946 13.0621399,23.9051888 12.9601625,23.6163288 C12.9394354,23.5778687 12.9377772,23.480491 12.9468972,23.3282871 C12.9568462,23.1769016 12.9601625,22.9772364 12.9601625,22.730928 L12.9311446,19.0502139 L11.5548647,19.0502139 L11.5871989,22.673647 C11.5871989,22.9575972 11.5789081,23.1957225 11.5689591,23.3880231 C11.5606682,23.5795053 11.5623264,23.7251627 11.5871989,23.8241771 C11.6046097,23.9837456 11.6245077,24.1514971 11.6435767,24.3339781 C11.6626456,24.5148224 11.7571612,24.6612981 11.9304398,24.7709503 C12.0887949,24.8675098 12.2769971,24.9190627 12.4892426,24.9190627 C12.7039755,24.9190627 12.916221,24.8822392 13.1185176,24.813502 C13.3257887,24.7431281 13.5123326,24.6490236 13.6889276,24.5270969 C13.8622062,24.4043519 13.9898852,24.2717872 14.0694773,24.1359494 L14.0404593,24.8576902 L15.178792,24.8863307 L15.178792,19.0502139 L15.178792,19.0502139 L15.178792,19.0502139 L15.178792,19.0502139 Z M13.9185839,9.57920774 C13.9185839,9.03912963 13.9708162,8.58824623 14.0694773,8.23637716 C14.1905236,7.87059699 14.3837002,7.60955923 14.6539817,7.4532639 C14.9242632,7.25523526 15.267504,7.15540264 15.6870207,7.15540264 C16.0559632,7.15540264 16.3635535,7.21677515 16.6164242,7.33461038 C16.8643204,7.4336247 17.0699333,7.60464943 17.2282884,7.85095778 C17.3501637,8.02934722 17.4388758,8.22983076 17.4993989,8.45649991 C17.5557766,8.70280826 17.5881109,9.03340153 17.5881109,9.44746141 L17.5881109,10.9965036 C17.5881109,11.5611307 17.5557766,11.9637344 17.4993989,12.2116794 C17.4745264,12.4383485 17.3791817,12.6887484 17.1976122,12.9653338 C17.0177009,13.2100056 16.8253534,13.3728473 16.6164242,13.4530407 C16.3635535,13.570876 16.0824939,13.6289753 15.7599801,13.6289753 C15.43415,13.6289753 15.1298761,13.579059 14.8645691,13.4816812 C14.6133565,13.4023061 14.4268126,13.2599219 14.3107408,13.0528919 C14.1905236,12.8933234 14.0885462,12.6732007 14.008125,12.3867956 C13.9509182,12.1208481 13.9185839,11.7190627 13.9185839,11.1757114 L13.9185839,9.57920774 L13.9185839,9.57920774 L13.9185839,9.57920774 L13.9185839,9.57920774 Z M15.1481159,11.9891017 C15.1481159,12.1453971 15.2061518,12.2861447 15.3271981,12.4105263 C15.4457572,12.5340896 15.591676,12.5946439 15.7599801,12.5946439 C15.9183352,12.5946439 16.0625959,12.5373628 16.1894458,12.4170727 C16.3138084,12.3008741 16.3735025,12.1568533 16.3735025,11.9891017 L16.3735025,8.78136507 C16.3735025,8.60379394 16.3138084,8.45649991 16.1894458,8.33375488 C16.0625959,8.20937326 15.9183352,8.14718244 15.7599801,8.14718244 C15.601625,8.14718244 15.4573643,8.20937326 15.3338308,8.33375488 C15.2111263,8.45649991 15.1481159,8.60379394 15.1481159,8.78136507 L15.1481159,11.9891017 L15.1481159,11.9891017 L15.1481159,11.9891017 L15.1481159,11.9891017 Z M19.6235128,23.2178166 L19.6235128,20.190106 C19.6235128,19.6074763 19.4145836,19.1942347 18.9950669,18.9479264 C18.857439,18.8693695 18.6941094,18.8292728 18.5158562,18.8292728 C18.1842225,18.8292728 17.8069892,18.9814767 17.3791817,19.2867026 L17.3791817,17.0118282 L16.0029018,17.0118282 L16.0029018,24.8290497 L17.1395763,24.7987725 L17.2282884,24.3110656 C17.5997181,24.6179282 17.93301,24.805319 18.2248477,24.8740562 C18.5208307,24.9411568 18.7670688,24.9157895 18.9726817,24.7905895 C19.1782946,24.6694811 19.3366497,24.4681793 19.4502342,24.1850474 C19.5654769,23.9068254 19.6235128,23.5811419 19.6235128,23.2178166 C19.6235128,23.2178166 19.6235128,23.5811419 19.6235128,23.2178166 L19.6235128,23.2178166 L19.6235128,23.2178166 Z M17.9636861,19.582109 C18.1228703,19.582109 18.2613274,19.6303887 18.3881773,19.7253115 C18.5125399,19.8185977 18.5755503,19.9241585 18.5755503,20.0411754 L18.5755503,23.4706714 C18.5755503,23.5876883 18.5125399,23.6916124 18.3881773,23.7791705 C18.2613274,23.8667287 18.1228703,23.9133718 17.9636861,23.9133718 C17.8020147,23.9133718 17.6610703,23.8667287 17.5333914,23.7791705 C17.4098578,23.6916124 17.3501637,23.5876883 17.3501637,23.4706714 L17.3501637,20.0411754 C17.3501637,19.9241585 17.4098578,19.8185977 17.5333914,19.7253115 C17.6610703,19.6303887 17.8020147,19.582109 17.9636861,19.582109 C17.9636861,19.582109 17.8020147,19.582109 17.9636861,19.582109 L17.9636861,19.582109 L17.9636861,19.582109 Z M18.6045683,12.9956109 C18.5680885,12.9145992 18.5398997,12.8311326 18.5324379,12.7501209 C18.5208307,12.6666543 18.5059072,12.5856426 18.4851801,12.5070857 C18.4661112,12.4080714 18.4561622,12.2738702 18.4561622,12.1061187 L18.4561622,7.39434629 L19.7437301,7.39434629 L19.7437301,12.0913893 C19.7437301,12.2116794 19.7868424,12.3131486 19.8763835,12.4031616 C19.9700701,12.4907197 20.0869709,12.5373628 20.2370352,12.5373628 C20.3763214,12.5373628 20.4965386,12.4907197 20.5951996,12.4031616 C20.697177,12.3131486 20.746922,12.2116794 20.746922,12.0913893 L20.746922,7.39434629 L21.9424616,7.39434629 L21.9424616,13.4227636 L20.4186047,13.4227636 L20.4459644,12.9350567 C20.3050201,13.1322671 20.1740248,13.2852892 20.0430295,13.3924865 C19.8830162,13.4898642 19.7097376,13.5389622 19.516561,13.5389622 C19.290221,13.5389622 19.0970443,13.4898642 18.9486382,13.3924865 C18.818472,13.3057467 18.7040584,13.1715455 18.6045683,12.9956109 C18.6045683,12.9956109 18.7040584,13.1715455 18.6045683,12.9956109 L18.6045683,12.9956109 L18.6045683,12.9956109 Z M23.9629399,22.8364887 L22.9332173,22.8364887 L22.9332173,23.4993119 C22.9332173,23.6580621 22.8751814,23.7791705 22.7599386,23.8667287 C22.645525,23.9583783 22.5095552,24.0001116 22.350371,24.0001116 L22.1364673,24.0001116 C21.9797703,24.0001116 21.848775,23.9583783 21.7434813,23.8667287 C21.6381876,23.7791705 21.5842971,23.6580621 21.5842971,23.4993119 L21.5842971,22.0942905 L23.9629399,22.0942905 L23.9629399,21.2809001 C23.9629399,20.9773108 23.9587945,20.6851776 23.9488455,20.4036824 C23.9405547,20.1230054 23.914853,19.9037009 23.8758861,19.7490422 C23.835261,19.4798215 23.7158728,19.2654268 23.5069436,19.1025851 C23.304647,18.94138 23.0642126,18.8292728 22.7906148,18.7719918 C22.5153588,18.709801 22.2367865,18.7024363 21.9507524,18.7417147 C21.6672056,18.7818114 21.4209675,18.8726427 21.208722,19.0215734 C20.9417568,19.1983262 20.746922,19.4421797 20.6258757,19.7490422 C20.5073167,20.0501767 20.4459644,20.4748745 20.4459644,21.0174075 L20.4459644,22.8364887 C20.4459644,23.6015994 20.6532355,24.1498605 21.061145,24.4747257 C21.4400365,24.7799516 21.838826,24.9329738 22.2566845,24.9329738 L22.379389,24.9329738 C22.8511379,24.9043333 23.2623637,24.7063046 23.6230154,24.3421611 C23.8916387,24.0762135 24.0267794,23.7251627 24.0267794,23.2931002 C24.0118559,23.1548075 23.9961033,23.0026037 23.9629399,22.8364887 C23.9629399,22.8364887 23.9961033,23.0026037 23.9629399,22.8364887 L23.9629399,22.8364887 L23.9629399,22.8364887 Z M22.900883,21.1041473 L21.5842971,21.1041473 L21.6133151,20.3832248 C21.6133151,20.2244746 21.6738382,20.0951832 21.7932264,19.9896225 C21.9134436,19.8856983 22.0560461,19.8349637 22.2293247,19.8349637 L22.2890188,19.8349637 C22.4672719,19.8349637 22.6189943,19.8840617 22.7458442,19.9822578 C22.8668905,20.0804538 22.9332173,20.2138367 22.9332173,20.3832248 L22.900883,21.1041473 L22.900883,21.1041473 Z M22.900883,21.1041473" id="youtube--title-grey" fill="#3A434E" sketch:type="MSShapeGroup"></path>
        <path d="M26,57.6795611 L26,64.1645899 C26,64.5688302 25.9146043,64.9403385 25.7396675,65.2782964 C25.5647308,65.6187093 25.3284417,65.9190255 25.0274841,66.1751534 C24.7273556,66.4320997 24.3807984,66.6301283 23.9878125,66.779059 C23.5923393,66.926353 23.1661899,67 22.7101936,67 L9.27737014,67 C8.82966464,67 8.40848982,66.926353 8.01301662,66.779059 C7.62003068,66.6301283 7.27181528,66.4320997 6.97334494,66.1751534 C6.67570369,65.9190255 6.43609833,65.6187093 6.25950338,65.2782964 C6.08622476,64.9403385 6,64.5688302 6,64.1645899 L6,57.6795611 C6,57.2941417 6.08622476,56.9283615 6.25950338,56.5773108 C6.43609833,56.2270783 6.67570369,55.9267621 6.97334494,55.6763623 C7.27181528,55.4251441 7.62003068,55.223024 8.01301662,55.0708202 C8.40848982,54.9186163 8.82966464,54.8400595 9.27737014,54.8400595 L22.7101936,54.8400595 C23.15707,54.8400595 23.5790739,54.9186163 23.9811798,55.0708202 C24.3791402,55.223024 24.7273556,55.4251441 25.0274841,55.6763623 C25.3284417,55.9267621 25.5647308,56.2270783 25.7396675,56.5773108 C25.9146043,56.9283615 26,57.2941417 26,57.6795611 C26,57.6795611 26,57.2941417 26,57.6795611 L26,57.6795611 L26,57.6795611 Z M10.1760975,64.8863307 L10.1760975,58.0461596 L11.823488,58.0461596 L11.823488,57.0118282 L7.37710898,57.0118282 L7.37710898,58.0175191 L8.80147577,58.0175191 L8.80147577,64.8863307 L10.1760975,64.8863307 L10.1760975,64.8863307 L10.1760975,64.8863307 L10.1760975,64.8863307 Z M10.8484848,48.9728473 L9.00708867,45 L10.6105377,45 L11.5258467,47.9696113 L12.4403267,45 L14.0404593,45 L12.315964,48.9728473 L12.315964,53.5995165 L10.8484848,53.5995165 L10.8484848,48.9728473 L10.8484848,48.9728473 L10.8484848,48.9728473 L10.8484848,48.9728473 Z M15.178792,59.0502139 L13.8025121,59.0502139 L13.8025121,62.7039241 C13.8025121,62.9657802 13.8049994,63.1719918 13.8149484,63.314376 C13.8232392,63.4600335 13.8049994,63.5492282 13.7552543,63.5876883 C13.712971,63.7456202 13.5977283,63.8610006 13.4004063,63.9354659 C13.211375,64.0082946 13.0621399,63.9051888 12.9601625,63.6163288 C12.9394354,63.5778687 12.9377772,63.480491 12.9468972,63.3282871 C12.9568462,63.1769016 12.9601625,62.9772364 12.9601625,62.730928 L12.9311446,59.0502139 L11.5548647,59.0502139 L11.5871989,62.673647 C11.5871989,62.9575972 11.5789081,63.1957225 11.5689591,63.3880231 C11.5606682,63.5795053 11.5623264,63.7251627 11.5871989,63.8241771 C11.6046097,63.9837456 11.6245077,64.1514971 11.6435767,64.3339781 C11.6626456,64.5148224 11.7571612,64.6612981 11.9304398,64.7709503 C12.0887949,64.8675098 12.2769971,64.9190627 12.4892426,64.9190627 C12.7039755,64.9190627 12.916221,64.8822392 13.1185176,64.813502 C13.3257887,64.7431281 13.5123326,64.6490236 13.6889276,64.5270969 C13.8622062,64.4043519 13.9898852,64.2717872 14.0694773,64.1359494 L14.0404593,64.8576902 L15.178792,64.8863307 L15.178792,59.0502139 L15.178792,59.0502139 L15.178792,59.0502139 L15.178792,59.0502139 Z M13.9185839,49.5792077 C13.9185839,49.0391296 13.9708162,48.5882462 14.0694773,48.2363772 C14.1905236,47.870597 14.3837002,47.6095592 14.6539817,47.4532639 C14.9242632,47.2552353 15.267504,47.1554026 15.6870207,47.1554026 C16.0559632,47.1554026 16.3635535,47.2167752 16.6164242,47.3346104 C16.8643204,47.4336247 17.0699333,47.6046494 17.2282884,47.8509578 C17.3501637,48.0293472 17.4388758,48.2298308 17.4993989,48.4564999 C17.5557766,48.7028083 17.5881109,49.0334015 17.5881109,49.4474614 L17.5881109,50.9965036 C17.5881109,51.5611307 17.5557766,51.9637344 17.4993989,52.2116794 C17.4745264,52.4383485 17.3791817,52.6887484 17.1976122,52.9653338 C17.0177009,53.2100056 16.8253534,53.3728473 16.6164242,53.4530407 C16.3635535,53.570876 16.0824939,53.6289753 15.7599801,53.6289753 C15.43415,53.6289753 15.1298761,53.579059 14.8645691,53.4816812 C14.6133565,53.4023061 14.4268126,53.2599219 14.3107408,53.0528919 C14.1905236,52.8933234 14.0885462,52.6732007 14.008125,52.3867956 C13.9509182,52.1208481 13.9185839,51.7190627 13.9185839,51.1757114 L13.9185839,49.5792077 L13.9185839,49.5792077 L13.9185839,49.5792077 L13.9185839,49.5792077 Z M15.1481159,51.9891017 C15.1481159,52.1453971 15.2061518,52.2861447 15.3271981,52.4105263 C15.4457572,52.5340896 15.591676,52.5946439 15.7599801,52.5946439 C15.9183352,52.5946439 16.0625959,52.5373628 16.1894458,52.4170727 C16.3138084,52.3008741 16.3735025,52.1568533 16.3735025,51.9891017 L16.3735025,48.7813651 C16.3735025,48.6037939 16.3138084,48.4564999 16.1894458,48.3337549 C16.0625959,48.2093733 15.9183352,48.1471824 15.7599801,48.1471824 C15.601625,48.1471824 15.4573643,48.2093733 15.3338308,48.3337549 C15.2111263,48.4564999 15.1481159,48.6037939 15.1481159,48.7813651 L15.1481159,51.9891017 L15.1481159,51.9891017 L15.1481159,51.9891017 L15.1481159,51.9891017 Z M19.6235128,63.2178166 L19.6235128,60.190106 C19.6235128,59.6074763 19.4145836,59.1942347 18.9950669,58.9479264 C18.857439,58.8693695 18.6941094,58.8292728 18.5158562,58.8292728 C18.1842225,58.8292728 17.8069892,58.9814767 17.3791817,59.2867026 L17.3791817,57.0118282 L16.0029018,57.0118282 L16.0029018,64.8290497 L17.1395763,64.7987725 L17.2282884,64.3110656 C17.5997181,64.6179282 17.93301,64.805319 18.2248477,64.8740562 C18.5208307,64.9411568 18.7670688,64.9157895 18.9726817,64.7905895 C19.1782946,64.6694811 19.3366497,64.4681793 19.4502342,64.1850474 C19.5654769,63.9068254 19.6235128,63.5811419 19.6235128,63.2178166 C19.6235128,63.2178166 19.6235128,63.5811419 19.6235128,63.2178166 L19.6235128,63.2178166 L19.6235128,63.2178166 Z M17.9636861,59.582109 C18.1228703,59.582109 18.2613274,59.6303887 18.3881773,59.7253115 C18.5125399,59.8185977 18.5755503,59.9241585 18.5755503,60.0411754 L18.5755503,63.4706714 C18.5755503,63.5876883 18.5125399,63.6916124 18.3881773,63.7791705 C18.2613274,63.8667287 18.1228703,63.9133718 17.9636861,63.9133718 C17.8020147,63.9133718 17.6610703,63.8667287 17.5333914,63.7791705 C17.4098578,63.6916124 17.3501637,63.5876883 17.3501637,63.4706714 L17.3501637,60.0411754 C17.3501637,59.9241585 17.4098578,59.8185977 17.5333914,59.7253115 C17.6610703,59.6303887 17.8020147,59.582109 17.9636861,59.582109 C17.9636861,59.582109 17.8020147,59.582109 17.9636861,59.582109 L17.9636861,59.582109 L17.9636861,59.582109 Z M18.6045683,52.9956109 C18.5680885,52.9145992 18.5398997,52.8311326 18.5324379,52.7501209 C18.5208307,52.6666543 18.5059072,52.5856426 18.4851801,52.5070857 C18.4661112,52.4080714 18.4561622,52.2738702 18.4561622,52.1061187 L18.4561622,47.3943463 L19.7437301,47.3943463 L19.7437301,52.0913893 C19.7437301,52.2116794 19.7868424,52.3131486 19.8763835,52.4031616 C19.9700701,52.4907197 20.0869709,52.5373628 20.2370352,52.5373628 C20.3763214,52.5373628 20.4965386,52.4907197 20.5951996,52.4031616 C20.697177,52.3131486 20.746922,52.2116794 20.746922,52.0913893 L20.746922,47.3943463 L21.9424616,47.3943463 L21.9424616,53.4227636 L20.4186047,53.4227636 L20.4459644,52.9350567 C20.3050201,53.1322671 20.1740248,53.2852892 20.0430295,53.3924865 C19.8830162,53.4898642 19.7097376,53.5389622 19.516561,53.5389622 C19.290221,53.5389622 19.0970443,53.4898642 18.9486382,53.3924865 C18.818472,53.3057467 18.7040584,53.1715455 18.6045683,52.9956109 C18.6045683,52.9956109 18.7040584,53.1715455 18.6045683,52.9956109 L18.6045683,52.9956109 L18.6045683,52.9956109 Z M23.9629399,62.8364887 L22.9332173,62.8364887 L22.9332173,63.4993119 C22.9332173,63.6580621 22.8751814,63.7791705 22.7599386,63.8667287 C22.645525,63.9583783 22.5095552,64.0001116 22.350371,64.0001116 L22.1364673,64.0001116 C21.9797703,64.0001116 21.848775,63.9583783 21.7434813,63.8667287 C21.6381876,63.7791705 21.5842971,63.6580621 21.5842971,63.4993119 L21.5842971,62.0942905 L23.9629399,62.0942905 L23.9629399,61.2809001 C23.9629399,60.9773108 23.9587945,60.6851776 23.9488455,60.4036824 C23.9405547,60.1230054 23.914853,59.9037009 23.8758861,59.7490422 C23.835261,59.4798215 23.7158728,59.2654268 23.5069436,59.1025851 C23.304647,58.94138 23.0642126,58.8292728 22.7906148,58.7719918 C22.5153588,58.709801 22.2367865,58.7024363 21.9507524,58.7417147 C21.6672056,58.7818114 21.4209675,58.8726427 21.208722,59.0215734 C20.9417568,59.1983262 20.746922,59.4421797 20.6258757,59.7490422 C20.5073167,60.0501767 20.4459644,60.4748745 20.4459644,61.0174075 L20.4459644,62.8364887 C20.4459644,63.6015994 20.6532355,64.1498605 21.061145,64.4747257 C21.4400365,64.7799516 21.838826,64.9329738 22.2566845,64.9329738 L22.379389,64.9329738 C22.8511379,64.9043333 23.2623637,64.7063046 23.6230154,64.3421611 C23.8916387,64.0762135 24.0267794,63.7251627 24.0267794,63.2931002 C24.0118559,63.1548075 23.9961033,63.0026037 23.9629399,62.8364887 C23.9629399,62.8364887 23.9961033,63.0026037 23.9629399,62.8364887 L23.9629399,62.8364887 L23.9629399,62.8364887 Z M22.900883,61.1041473 L21.5842971,61.1041473 L21.6133151,60.3832248 C21.6133151,60.2244746 21.6738382,60.0951832 21.7932264,59.9896225 C21.9134436,59.8856983 22.0560461,59.8349637 22.2293247,59.8349637 L22.2890188,59.8349637 C22.4672719,59.8349637 22.6189943,59.8840617 22.7458442,59.9822578 C22.8668905,60.0804538 22.9332173,60.2138367 22.9332173,60.3832248 L22.900883,61.1041473 L22.900883,61.1041473 Z M22.900883,61.1041473" id="youtube--title-grey-copy" fill="#67737B" sketch:type="MSShapeGroup"></path>
        <path d="M26,97.6795611 L26,104.16459 C26,104.56883 25.9146043,104.940338 25.7396675,105.278296 C25.5647308,105.618709 25.3284417,105.919025 25.0274841,106.175153 C24.7273556,106.4321 24.3807984,106.630128 23.9878125,106.779059 C23.5923393,106.926353 23.1661899,107 22.7101936,107 L9.27737014,107 C8.82966464,107 8.40848982,106.926353 8.01301662,106.779059 C7.62003068,106.630128 7.27181528,106.4321 6.97334494,106.175153 C6.67570369,105.919025 6.43609833,105.618709 6.25950338,105.278296 C6.08622476,104.940338 6,104.56883 6,104.16459 L6,97.6795611 C6,97.2941417 6.08622476,96.9283615 6.25950338,96.5773108 C6.43609833,96.2270783 6.67570369,95.9267621 6.97334494,95.6763623 C7.27181528,95.4251441 7.62003068,95.223024 8.01301662,95.0708202 C8.40848982,94.9186163 8.82966464,94.8400595 9.27737014,94.8400595 L22.7101936,94.8400595 C23.15707,94.8400595 23.5790739,94.9186163 23.9811798,95.0708202 C24.3791402,95.223024 24.7273556,95.4251441 25.0274841,95.6763623 C25.3284417,95.9267621 25.5647308,96.2270783 25.7396675,96.5773108 C25.9146043,96.9283615 26,97.2941417 26,97.6795611 C26,97.6795611 26,97.2941417 26,97.6795611 L26,97.6795611 L26,97.6795611 Z M10.1760975,104.886331 L10.1760975,98.0461596 L11.823488,98.0461596 L11.823488,97.0118282 L7.37710898,97.0118282 L7.37710898,98.0175191 L8.80147577,98.0175191 L8.80147577,104.886331 L10.1760975,104.886331 L10.1760975,104.886331 L10.1760975,104.886331 L10.1760975,104.886331 Z M10.8484848,88.9728473 L9.00708867,85 L10.6105377,85 L11.5258467,87.9696113 L12.4403267,85 L14.0404593,85 L12.315964,88.9728473 L12.315964,93.5995165 L10.8484848,93.5995165 L10.8484848,88.9728473 L10.8484848,88.9728473 L10.8484848,88.9728473 L10.8484848,88.9728473 Z M15.178792,99.0502139 L13.8025121,99.0502139 L13.8025121,102.703924 C13.8025121,102.96578 13.8049994,103.171992 13.8149484,103.314376 C13.8232392,103.460033 13.8049994,103.549228 13.7552543,103.587688 C13.712971,103.74562 13.5977283,103.861001 13.4004063,103.935466 C13.211375,104.008295 13.0621399,103.905189 12.9601625,103.616329 C12.9394354,103.577869 12.9377772,103.480491 12.9468972,103.328287 C12.9568462,103.176902 12.9601625,102.977236 12.9601625,102.730928 L12.9311446,99.0502139 L11.5548647,99.0502139 L11.5871989,102.673647 C11.5871989,102.957597 11.5789081,103.195723 11.5689591,103.388023 C11.5606682,103.579505 11.5623264,103.725163 11.5871989,103.824177 C11.6046097,103.983746 11.6245077,104.151497 11.6435767,104.333978 C11.6626456,104.514822 11.7571612,104.661298 11.9304398,104.77095 C12.0887949,104.86751 12.2769971,104.919063 12.4892426,104.919063 C12.7039755,104.919063 12.916221,104.882239 13.1185176,104.813502 C13.3257887,104.743128 13.5123326,104.649024 13.6889276,104.527097 C13.8622062,104.404352 13.9898852,104.271787 14.0694773,104.135949 L14.0404593,104.85769 L15.178792,104.886331 L15.178792,99.0502139 L15.178792,99.0502139 L15.178792,99.0502139 L15.178792,99.0502139 Z M13.9185839,89.5792077 C13.9185839,89.0391296 13.9708162,88.5882462 14.0694773,88.2363772 C14.1905236,87.870597 14.3837002,87.6095592 14.6539817,87.4532639 C14.9242632,87.2552353 15.267504,87.1554026 15.6870207,87.1554026 C16.0559632,87.1554026 16.3635535,87.2167752 16.6164242,87.3346104 C16.8643204,87.4336247 17.0699333,87.6046494 17.2282884,87.8509578 C17.3501637,88.0293472 17.4388758,88.2298308 17.4993989,88.4564999 C17.5557766,88.7028083 17.5881109,89.0334015 17.5881109,89.4474614 L17.5881109,90.9965036 C17.5881109,91.5611307 17.5557766,91.9637344 17.4993989,92.2116794 C17.4745264,92.4383485 17.3791817,92.6887484 17.1976122,92.9653338 C17.0177009,93.2100056 16.8253534,93.3728473 16.6164242,93.4530407 C16.3635535,93.570876 16.0824939,93.6289753 15.7599801,93.6289753 C15.43415,93.6289753 15.1298761,93.579059 14.8645691,93.4816812 C14.6133565,93.4023061 14.4268126,93.2599219 14.3107408,93.0528919 C14.1905236,92.8933234 14.0885462,92.6732007 14.008125,92.3867956 C13.9509182,92.1208481 13.9185839,91.7190627 13.9185839,91.1757114 L13.9185839,89.5792077 L13.9185839,89.5792077 L13.9185839,89.5792077 L13.9185839,89.5792077 Z M15.1481159,91.9891017 C15.1481159,92.1453971 15.2061518,92.2861447 15.3271981,92.4105263 C15.4457572,92.5340896 15.591676,92.5946439 15.7599801,92.5946439 C15.9183352,92.5946439 16.0625959,92.5373628 16.1894458,92.4170727 C16.3138084,92.3008741 16.3735025,92.1568533 16.3735025,91.9891017 L16.3735025,88.7813651 C16.3735025,88.6037939 16.3138084,88.4564999 16.1894458,88.3337549 C16.0625959,88.2093733 15.9183352,88.1471824 15.7599801,88.1471824 C15.601625,88.1471824 15.4573643,88.2093733 15.3338308,88.3337549 C15.2111263,88.4564999 15.1481159,88.6037939 15.1481159,88.7813651 L15.1481159,91.9891017 L15.1481159,91.9891017 L15.1481159,91.9891017 L15.1481159,91.9891017 Z M19.6235128,103.217817 L19.6235128,100.190106 C19.6235128,99.6074763 19.4145836,99.1942347 18.9950669,98.9479264 C18.857439,98.8693695 18.6941094,98.8292728 18.5158562,98.8292728 C18.1842225,98.8292728 17.8069892,98.9814767 17.3791817,99.2867026 L17.3791817,97.0118282 L16.0029018,97.0118282 L16.0029018,104.82905 L17.1395763,104.798773 L17.2282884,104.311066 C17.5997181,104.617928 17.93301,104.805319 18.2248477,104.874056 C18.5208307,104.941157 18.7670688,104.915789 18.9726817,104.79059 C19.1782946,104.669481 19.3366497,104.468179 19.4502342,104.185047 C19.5654769,103.906825 19.6235128,103.581142 19.6235128,103.217817 C19.6235128,103.217817 19.6235128,103.581142 19.6235128,103.217817 L19.6235128,103.217817 L19.6235128,103.217817 Z M17.9636861,99.582109 C18.1228703,99.582109 18.2613274,99.6303887 18.3881773,99.7253115 C18.5125399,99.8185977 18.5755503,99.9241585 18.5755503,100.041175 L18.5755503,103.470671 C18.5755503,103.587688 18.5125399,103.691612 18.3881773,103.779171 C18.2613274,103.866729 18.1228703,103.913372 17.9636861,103.913372 C17.8020147,103.913372 17.6610703,103.866729 17.5333914,103.779171 C17.4098578,103.691612 17.3501637,103.587688 17.3501637,103.470671 L17.3501637,100.041175 C17.3501637,99.9241585 17.4098578,99.8185977 17.5333914,99.7253115 C17.6610703,99.6303887 17.8020147,99.582109 17.9636861,99.582109 C17.9636861,99.582109 17.8020147,99.582109 17.9636861,99.582109 L17.9636861,99.582109 L17.9636861,99.582109 Z M18.6045683,92.9956109 C18.5680885,92.9145992 18.5398997,92.8311326 18.5324379,92.7501209 C18.5208307,92.6666543 18.5059072,92.5856426 18.4851801,92.5070857 C18.4661112,92.4080714 18.4561622,92.2738702 18.4561622,92.1061187 L18.4561622,87.3943463 L19.7437301,87.3943463 L19.7437301,92.0913893 C19.7437301,92.2116794 19.7868424,92.3131486 19.8763835,92.4031616 C19.9700701,92.4907197 20.0869709,92.5373628 20.2370352,92.5373628 C20.3763214,92.5373628 20.4965386,92.4907197 20.5951996,92.4031616 C20.697177,92.3131486 20.746922,92.2116794 20.746922,92.0913893 L20.746922,87.3943463 L21.9424616,87.3943463 L21.9424616,93.4227636 L20.4186047,93.4227636 L20.4459644,92.9350567 C20.3050201,93.1322671 20.1740248,93.2852892 20.0430295,93.3924865 C19.8830162,93.4898642 19.7097376,93.5389622 19.516561,93.5389622 C19.290221,93.5389622 19.0970443,93.4898642 18.9486382,93.3924865 C18.818472,93.3057467 18.7040584,93.1715455 18.6045683,92.9956109 C18.6045683,92.9956109 18.7040584,93.1715455 18.6045683,92.9956109 L18.6045683,92.9956109 L18.6045683,92.9956109 Z M23.9629399,102.836489 L22.9332173,102.836489 L22.9332173,103.499312 C22.9332173,103.658062 22.8751814,103.779171 22.7599386,103.866729 C22.645525,103.958378 22.5095552,104.000112 22.350371,104.000112 L22.1364673,104.000112 C21.9797703,104.000112 21.848775,103.958378 21.7434813,103.866729 C21.6381876,103.779171 21.5842971,103.658062 21.5842971,103.499312 L21.5842971,102.09429 L23.9629399,102.09429 L23.9629399,101.2809 C23.9629399,100.977311 23.9587945,100.685178 23.9488455,100.403682 C23.9405547,100.123005 23.914853,99.9037009 23.8758861,99.7490422 C23.835261,99.4798215 23.7158728,99.2654268 23.5069436,99.1025851 C23.304647,98.94138 23.0642126,98.8292728 22.7906148,98.7719918 C22.5153588,98.709801 22.2367865,98.7024363 21.9507524,98.7417147 C21.6672056,98.7818114 21.4209675,98.8726427 21.208722,99.0215734 C20.9417568,99.1983262 20.746922,99.4421797 20.6258757,99.7490422 C20.5073167,100.050177 20.4459644,100.474874 20.4459644,101.017407 L20.4459644,102.836489 C20.4459644,103.601599 20.6532355,104.149861 21.061145,104.474726 C21.4400365,104.779952 21.838826,104.932974 22.2566845,104.932974 L22.379389,104.932974 C22.8511379,104.904333 23.2623637,104.706305 23.6230154,104.342161 C23.8916387,104.076214 24.0267794,103.725163 24.0267794,103.2931 C24.0118559,103.154808 23.9961033,103.002604 23.9629399,102.836489 C23.9629399,102.836489 23.9961033,103.002604 23.9629399,102.836489 L23.9629399,102.836489 L23.9629399,102.836489 Z M22.900883,101.104147 L21.5842971,101.104147 L21.6133151,100.383225 C21.6133151,100.224475 21.6738382,100.095183 21.7932264,99.9896225 C21.9134436,99.8856983 22.0560461,99.8349637 22.2293247,99.8349637 L22.2890188,99.8349637 C22.4672719,99.8349637 22.6189943,99.8840617 22.7458442,99.9822578 C22.8668905,100.080454 22.9332173,100.213837 22.9332173,100.383225 L22.900883,101.104147 L22.900883,101.104147 Z M22.900883,101.104147" id="youtube--title-grey-copy-2" fill="#FFFFFF" sketch:type="MSShapeGroup"></path>
        <path d="M26,137.679561 L26,144.16459 C26,144.56883 25.9146043,144.940338 25.7396675,145.278296 C25.5647308,145.618709 25.3284417,145.919025 25.0274841,146.175153 C24.7273556,146.4321 24.3807984,146.630128 23.9878125,146.779059 C23.5923393,146.926353 23.1661899,147 22.7101936,147 L9.27737014,147 C8.82966464,147 8.40848982,146.926353 8.01301662,146.779059 C7.62003068,146.630128 7.27181528,146.4321 6.97334494,146.175153 C6.67570369,145.919025 6.43609833,145.618709 6.25950338,145.278296 C6.08622476,144.940338 6,144.56883 6,144.16459 L6,137.679561 C6,137.294142 6.08622476,136.928362 6.25950338,136.577311 C6.43609833,136.227078 6.67570369,135.926762 6.97334494,135.676362 C7.27181528,135.425144 7.62003068,135.223024 8.01301662,135.07082 C8.40848982,134.918616 8.82966464,134.84006 9.27737014,134.84006 L22.7101936,134.84006 C23.15707,134.84006 23.5790739,134.918616 23.9811798,135.07082 C24.3791402,135.223024 24.7273556,135.425144 25.0274841,135.676362 C25.3284417,135.926762 25.5647308,136.227078 25.7396675,136.577311 C25.9146043,136.928362 26,137.294142 26,137.679561 C26,137.679561 26,137.294142 26,137.679561 L26,137.679561 L26,137.679561 Z M10.1760975,144.886331 L10.1760975,138.04616 L11.823488,138.04616 L11.823488,137.011828 L7.37710898,137.011828 L7.37710898,138.017519 L8.80147577,138.017519 L8.80147577,144.886331 L10.1760975,144.886331 L10.1760975,144.886331 L10.1760975,144.886331 L10.1760975,144.886331 Z M10.8484848,128.972847 L9.00708867,125 L10.6105377,125 L11.5258467,127.969611 L12.4403267,125 L14.0404593,125 L12.315964,128.972847 L12.315964,133.599516 L10.8484848,133.599516 L10.8484848,128.972847 L10.8484848,128.972847 L10.8484848,128.972847 L10.8484848,128.972847 Z M15.178792,139.050214 L13.8025121,139.050214 L13.8025121,142.703924 C13.8025121,142.96578 13.8049994,143.171992 13.8149484,143.314376 C13.8232392,143.460033 13.8049994,143.549228 13.7552543,143.587688 C13.712971,143.74562 13.5977283,143.861001 13.4004063,143.935466 C13.211375,144.008295 13.0621399,143.905189 12.9601625,143.616329 C12.9394354,143.577869 12.9377772,143.480491 12.9468972,143.328287 C12.9568462,143.176902 12.9601625,142.977236 12.9601625,142.730928 L12.9311446,139.050214 L11.5548647,139.050214 L11.5871989,142.673647 C11.5871989,142.957597 11.5789081,143.195723 11.5689591,143.388023 C11.5606682,143.579505 11.5623264,143.725163 11.5871989,143.824177 C11.6046097,143.983746 11.6245077,144.151497 11.6435767,144.333978 C11.6626456,144.514822 11.7571612,144.661298 11.9304398,144.77095 C12.0887949,144.86751 12.2769971,144.919063 12.4892426,144.919063 C12.7039755,144.919063 12.916221,144.882239 13.1185176,144.813502 C13.3257887,144.743128 13.5123326,144.649024 13.6889276,144.527097 C13.8622062,144.404352 13.9898852,144.271787 14.0694773,144.135949 L14.0404593,144.85769 L15.178792,144.886331 L15.178792,139.050214 L15.178792,139.050214 L15.178792,139.050214 L15.178792,139.050214 Z M13.9185839,129.579208 C13.9185839,129.03913 13.9708162,128.588246 14.0694773,128.236377 C14.1905236,127.870597 14.3837002,127.609559 14.6539817,127.453264 C14.9242632,127.255235 15.267504,127.155403 15.6870207,127.155403 C16.0559632,127.155403 16.3635535,127.216775 16.6164242,127.33461 C16.8643204,127.433625 17.0699333,127.604649 17.2282884,127.850958 C17.3501637,128.029347 17.4388758,128.229831 17.4993989,128.4565 C17.5557766,128.702808 17.5881109,129.033402 17.5881109,129.447461 L17.5881109,130.996504 C17.5881109,131.561131 17.5557766,131.963734 17.4993989,132.211679 C17.4745264,132.438349 17.3791817,132.688748 17.1976122,132.965334 C17.0177009,133.210006 16.8253534,133.372847 16.6164242,133.453041 C16.3635535,133.570876 16.0824939,133.628975 15.7599801,133.628975 C15.43415,133.628975 15.1298761,133.579059 14.8645691,133.481681 C14.6133565,133.402306 14.4268126,133.259922 14.3107408,133.052892 C14.1905236,132.893323 14.0885462,132.673201 14.008125,132.386796 C13.9509182,132.120848 13.9185839,131.719063 13.9185839,131.175711 L13.9185839,129.579208 L13.9185839,129.579208 L13.9185839,129.579208 L13.9185839,129.579208 Z M15.1481159,131.989102 C15.1481159,132.145397 15.2061518,132.286145 15.3271981,132.410526 C15.4457572,132.53409 15.591676,132.594644 15.7599801,132.594644 C15.9183352,132.594644 16.0625959,132.537363 16.1894458,132.417073 C16.3138084,132.300874 16.3735025,132.156853 16.3735025,131.989102 L16.3735025,128.781365 C16.3735025,128.603794 16.3138084,128.4565 16.1894458,128.333755 C16.0625959,128.209373 15.9183352,128.147182 15.7599801,128.147182 C15.601625,128.147182 15.4573643,128.209373 15.3338308,128.333755 C15.2111263,128.4565 15.1481159,128.603794 15.1481159,128.781365 L15.1481159,131.989102 L15.1481159,131.989102 L15.1481159,131.989102 L15.1481159,131.989102 Z M19.6235128,143.217817 L19.6235128,140.190106 C19.6235128,139.607476 19.4145836,139.194235 18.9950669,138.947926 C18.857439,138.86937 18.6941094,138.829273 18.5158562,138.829273 C18.1842225,138.829273 17.8069892,138.981477 17.3791817,139.286703 L17.3791817,137.011828 L16.0029018,137.011828 L16.0029018,144.82905 L17.1395763,144.798773 L17.2282884,144.311066 C17.5997181,144.617928 17.93301,144.805319 18.2248477,144.874056 C18.5208307,144.941157 18.7670688,144.915789 18.9726817,144.79059 C19.1782946,144.669481 19.3366497,144.468179 19.4502342,144.185047 C19.5654769,143.906825 19.6235128,143.581142 19.6235128,143.217817 C19.6235128,143.217817 19.6235128,143.581142 19.6235128,143.217817 L19.6235128,143.217817 L19.6235128,143.217817 Z M17.9636861,139.582109 C18.1228703,139.582109 18.2613274,139.630389 18.3881773,139.725312 C18.5125399,139.818598 18.5755503,139.924158 18.5755503,140.041175 L18.5755503,143.470671 C18.5755503,143.587688 18.5125399,143.691612 18.3881773,143.779171 C18.2613274,143.866729 18.1228703,143.913372 17.9636861,143.913372 C17.8020147,143.913372 17.6610703,143.866729 17.5333914,143.779171 C17.4098578,143.691612 17.3501637,143.587688 17.3501637,143.470671 L17.3501637,140.041175 C17.3501637,139.924158 17.4098578,139.818598 17.5333914,139.725312 C17.6610703,139.630389 17.8020147,139.582109 17.9636861,139.582109 C17.9636861,139.582109 17.8020147,139.582109 17.9636861,139.582109 L17.9636861,139.582109 L17.9636861,139.582109 Z M18.6045683,132.995611 C18.5680885,132.914599 18.5398997,132.831133 18.5324379,132.750121 C18.5208307,132.666654 18.5059072,132.585643 18.4851801,132.507086 C18.4661112,132.408071 18.4561622,132.27387 18.4561622,132.106119 L18.4561622,127.394346 L19.7437301,127.394346 L19.7437301,132.091389 C19.7437301,132.211679 19.7868424,132.313149 19.8763835,132.403162 C19.9700701,132.49072 20.0869709,132.537363 20.2370352,132.537363 C20.3763214,132.537363 20.4965386,132.49072 20.5951996,132.403162 C20.697177,132.313149 20.746922,132.211679 20.746922,132.091389 L20.746922,127.394346 L21.9424616,127.394346 L21.9424616,133.422764 L20.4186047,133.422764 L20.4459644,132.935057 C20.3050201,133.132267 20.1740248,133.285289 20.0430295,133.392487 C19.8830162,133.489864 19.7097376,133.538962 19.516561,133.538962 C19.290221,133.538962 19.0970443,133.489864 18.9486382,133.392487 C18.818472,133.305747 18.7040584,133.171545 18.6045683,132.995611 C18.6045683,132.995611 18.7040584,133.171545 18.6045683,132.995611 L18.6045683,132.995611 L18.6045683,132.995611 Z M23.9629399,142.836489 L22.9332173,142.836489 L22.9332173,143.499312 C22.9332173,143.658062 22.8751814,143.779171 22.7599386,143.866729 C22.645525,143.958378 22.5095552,144.000112 22.350371,144.000112 L22.1364673,144.000112 C21.9797703,144.000112 21.848775,143.958378 21.7434813,143.866729 C21.6381876,143.779171 21.5842971,143.658062 21.5842971,143.499312 L21.5842971,142.09429 L23.9629399,142.09429 L23.9629399,141.2809 C23.9629399,140.977311 23.9587945,140.685178 23.9488455,140.403682 C23.9405547,140.123005 23.914853,139.903701 23.8758861,139.749042 C23.835261,139.479821 23.7158728,139.265427 23.5069436,139.102585 C23.304647,138.94138 23.0642126,138.829273 22.7906148,138.771992 C22.5153588,138.709801 22.2367865,138.702436 21.9507524,138.741715 C21.6672056,138.781811 21.4209675,138.872643 21.208722,139.021573 C20.9417568,139.198326 20.746922,139.44218 20.6258757,139.749042 C20.5073167,140.050177 20.4459644,140.474874 20.4459644,141.017407 L20.4459644,142.836489 C20.4459644,143.601599 20.6532355,144.149861 21.061145,144.474726 C21.4400365,144.779952 21.838826,144.932974 22.2566845,144.932974 L22.379389,144.932974 C22.8511379,144.904333 23.2623637,144.706305 23.6230154,144.342161 C23.8916387,144.076214 24.0267794,143.725163 24.0267794,143.2931 C24.0118559,143.154808 23.9961033,143.002604 23.9629399,142.836489 C23.9629399,142.836489 23.9961033,143.002604 23.9629399,142.836489 L23.9629399,142.836489 L23.9629399,142.836489 Z M22.900883,141.104147 L21.5842971,141.104147 L21.6133151,140.383225 C21.6133151,140.224475 21.6738382,140.095183 21.7932264,139.989622 C21.9134436,139.885698 22.0560461,139.834964 22.2293247,139.834964 L22.2890188,139.834964 C22.4672719,139.834964 22.6189943,139.884062 22.7458442,139.982258 C22.8668905,140.080454 22.9332173,140.213837 22.9332173,140.383225 L22.900883,141.104147 L22.900883,141.104147 Z M22.900883,141.104147" id="youtube--title-grey-copy-3" fill="#206FAC" sketch:type="MSShapeGroup"></path>
    </g>
</svg>