<svg width="32" height="232" viewBox="0 0 32 232" xmlns="http://www.w3.org/2000/svg"><title>youtube</title><g fill="none"><path d="M26 17.68v6.485c0 .404-.085.776-.26 1.114-.175.34-.411.641-.712.897-.3.257-.647.455-1.04.604-.395.147-.822.221-1.278.221h-13.433c-.448 0-.869-.074-1.264-.221-.393-.149-.741-.347-1.04-.604-.298-.256-.537-.556-.714-.897-.173-.338-.26-.709-.26-1.114v-6.485c0-.385.086-.751.26-1.102.177-.35.416-.651.714-.901.298-.251.647-.453 1.04-.606.395-.152.817-.231 1.264-.231h13.433c.447 0 .869.079 1.271.231.398.152.746.354 1.046.606.301.25.537.551.712.901.175.351.26.717.26 1.102zm-15.824 7.207v-6.84h1.647v-1.034h-4.446v1.006h1.424v6.869h1.375zm.672-15.913l-1.841-3.973h1.603l.915 2.97.914-2.97h1.6l-1.724 3.973v4.627h-1.467v-4.627zm4.33 10.077h-1.376v3.654l.012.61c.008.146-.01.235-.06.273-.042.158-.158.273-.355.348-.189.073-.338-.03-.44-.319-.021-.038-.022-.136-.013-.288l.013-.597-.029-3.681h-1.376l.032 3.623c0 .284-.008.522-.018.714-.008.191-.007.337.018.436l.056.51c.019.181.114.327.287.437.158.097.347.148.559.148.215 0 .427-.037.629-.106.207-.07.394-.164.57-.286.173-.123.301-.255.381-.391l-.029.722 1.138.029v-5.836zm-1.26-9.471c0-.54.052-.991.151-1.343.121-.366.314-.627.585-.783.27-.198.614-.298 1.033-.298.369 0 .677.061.929.179.248.099.454.27.612.516.122.178.211.379.271.606.056.246.089.577.089.991v1.549c0 .565-.032.967-.089 1.215-.025.227-.12.477-.302.754-.18.245-.372.408-.581.488-.253.118-.534.176-.856.176-.326 0-.63-.05-.895-.147-.251-.079-.438-.222-.554-.429-.12-.16-.222-.38-.303-.666-.057-.266-.09-.668-.09-1.211v-1.597zm1.23 2.41c0 .156.058.297.179.421.119.124.264.184.433.184.158 0 .303-.057.429-.178.124-.116.184-.26.184-.428v-3.208c0-.178-.06-.325-.184-.448-.127-.124-.271-.187-.429-.187-.158 0-.303.062-.426.187-.123.123-.186.27-.186.448v3.208zm4.475 11.229v-3.028c0-.583-.209-.996-.628-1.242-.138-.079-.301-.119-.479-.119-.332 0-.709.152-1.137.457v-2.275h-1.376v7.817l1.137-.03.089-.488c.371.307.705.494.997.563.296.067.542.042.748-.083.206-.121.364-.322.478-.606.115-.278.173-.604.173-.967zm-1.66-3.636c.159 0 .298.048.424.143.124.093.187.199.187.316v3.429c0 .117-.063.221-.187.308-.127.088-.265.134-.424.134-.162 0-.303-.047-.43-.134-.124-.088-.183-.191-.183-.308v-3.429c0-.117.06-.223.183-.316.128-.095.269-.143.43-.143zm.641-6.586l-.072-.245-.047-.243c-.019-.099-.029-.233-.029-.401v-4.712h1.288v4.697c0 .12.043.222.133.312.094.088.211.134.361.134.139 0 .26-.047.358-.134.102-.09.152-.191.152-.312v-4.697h1.196v6.028h-1.524l.027-.488c-.141.197-.272.35-.403.457-.16.097-.333.146-.526.146-.226 0-.42-.049-.568-.146-.13-.087-.245-.221-.344-.397zm5.358 9.841h-1.03v.663c0 .159-.058.28-.173.367-.114.092-.25.133-.41.133h-.214c-.157 0-.288-.042-.393-.133-.105-.088-.159-.209-.159-.367v-1.405h2.379v-.813c0-.304-.004-.596-.014-.877-.008-.281-.034-.5-.073-.655-.041-.269-.16-.484-.369-.646-.202-.161-.443-.273-.716-.331-.275-.062-.554-.07-.84-.03-.284.04-.53.131-.742.28-.267.177-.462.421-.583.727-.119.301-.18.726-.18 1.268v1.819c0 .765.207 1.313.615 1.638.379.305.778.458 1.196.458h.123c.472-.029.883-.227 1.244-.591.269-.266.404-.617.404-1.049l-.064-.457zm-1.062-1.732h-1.317l.029-.721c0-.159.061-.288.18-.394.12-.104.263-.155.436-.155h.06c.178 0 .33.049.457.147.121.098.187.232.187.401l-.032.721zm0 0" fill="#3A434E"/><path d="M26 57.68v6.485c0 .404-.085.776-.26 1.114-.175.34-.411.641-.712.897-.3.257-.647.455-1.04.604-.395.147-.822.221-1.278.221h-13.433c-.448 0-.869-.074-1.264-.221-.393-.149-.741-.347-1.04-.604-.298-.256-.537-.556-.714-.897-.173-.338-.26-.709-.26-1.114v-6.485c0-.385.086-.751.26-1.102.177-.35.416-.651.714-.901.298-.251.647-.453 1.04-.606.395-.152.817-.231 1.264-.231h13.433c.447 0 .869.079 1.271.231.398.152.746.354 1.046.606.301.25.537.551.712.901.175.351.26.717.26 1.102zm-15.824 7.207v-6.84h1.647v-1.034h-4.446v1.006h1.424v6.869h1.375zm.672-15.913l-1.841-3.973h1.603l.915 2.97.914-2.97h1.6l-1.724 3.973v4.627h-1.467v-4.627zm4.33 10.077h-1.376v3.654l.012.61c.008.146-.01.235-.06.273-.042.158-.158.273-.355.348-.189.073-.338-.03-.44-.319-.021-.038-.022-.136-.013-.288l.013-.597-.029-3.681h-1.376l.032 3.623c0 .284-.008.522-.018.714-.008.191-.007.337.018.436l.056.51c.019.181.114.327.287.437.158.097.347.148.559.148.215 0 .427-.037.629-.106.207-.07.394-.164.57-.286.173-.123.301-.255.381-.391l-.029.722 1.138.029v-5.836zm-1.26-9.471c0-.54.052-.991.151-1.343.121-.366.314-.627.585-.783.27-.198.614-.298 1.033-.298.369 0 .677.061.929.179.248.099.454.27.612.516.122.178.211.379.271.606.056.246.089.577.089.991v1.549c0 .565-.032.967-.089 1.215-.025.227-.12.477-.302.754-.18.245-.372.408-.581.488-.253.118-.534.176-.856.176-.326 0-.63-.05-.895-.147-.251-.079-.438-.222-.554-.429-.12-.16-.222-.38-.303-.666-.057-.266-.09-.668-.09-1.211v-1.597zm1.23 2.41c0 .156.058.297.179.421.119.124.264.184.433.184.158 0 .303-.057.429-.178.124-.116.184-.26.184-.428v-3.208c0-.178-.06-.325-.184-.448-.127-.124-.271-.187-.429-.187-.158 0-.303.062-.426.187-.123.123-.186.27-.186.448v3.208zm4.475 11.229v-3.028c0-.583-.209-.996-.628-1.242-.138-.079-.301-.119-.479-.119-.332 0-.709.152-1.137.457v-2.275h-1.376v7.817l1.137-.03.089-.488c.371.307.705.494.997.563.296.067.542.042.748-.083.206-.121.364-.322.478-.606.115-.278.173-.604.173-.967zm-1.66-3.636c.159 0 .298.048.424.143.124.093.187.199.187.316v3.429c0 .117-.063.221-.187.308-.127.088-.265.134-.424.134-.162 0-.303-.047-.43-.134-.124-.088-.183-.191-.183-.308v-3.429c0-.117.06-.223.183-.316.128-.095.269-.143.43-.143zm.641-6.586l-.072-.245-.047-.243c-.019-.099-.029-.233-.029-.401v-4.712h1.288v4.697c0 .12.043.222.133.312.094.088.211.134.361.134.139 0 .26-.047.358-.134.102-.09.152-.191.152-.312v-4.697h1.196v6.028h-1.524l.027-.488c-.141.197-.272.35-.403.457-.16.097-.333.146-.526.146-.226 0-.42-.049-.568-.146-.13-.087-.245-.221-.344-.397zm5.358 9.841h-1.03v.663c0 .159-.058.28-.173.367-.114.092-.25.133-.41.133h-.214c-.157 0-.288-.042-.393-.133-.105-.088-.159-.209-.159-.367v-1.405h2.379v-.813c0-.304-.004-.596-.014-.877-.008-.281-.034-.5-.073-.655-.041-.269-.16-.484-.369-.646-.202-.161-.443-.273-.716-.331-.275-.062-.554-.07-.84-.03-.284.04-.53.131-.742.28-.267.177-.462.421-.583.727-.119.301-.18.726-.18 1.268v1.819c0 .765.207 1.313.615 1.638.379.305.778.458 1.196.458h.123c.472-.029.883-.227 1.244-.591.269-.266.404-.617.404-1.049l-.064-.457zm-1.062-1.732h-1.317l.029-.721c0-.159.061-.288.18-.394.12-.104.263-.155.436-.155h.06c.178 0 .33.049.457.147.121.098.187.232.187.401l-.032.721zm0 0" fill="#67737B"/><path d="M26 97.68v6.485c0 .404-.085.776-.26 1.114-.175.34-.411.641-.712.897-.3.257-.647.455-1.04.604-.395.147-.822.221-1.278.221h-13.433c-.448 0-.869-.074-1.264-.221-.393-.149-.741-.347-1.04-.604-.298-.256-.537-.556-.714-.897-.173-.338-.26-.709-.26-1.114v-6.485c0-.385.086-.751.26-1.102.177-.35.416-.651.714-.901.298-.251.647-.453 1.04-.606.395-.152.817-.231 1.264-.231h13.433c.447 0 .869.079 1.271.231.398.152.746.354 1.046.606.301.25.537.551.712.901.175.351.26.717.26 1.102zm-15.824 7.207v-6.84h1.647v-1.034h-4.446v1.006h1.424v6.869h1.375zm.672-15.913l-1.841-3.973h1.603l.915 2.97.914-2.97h1.6l-1.724 3.973v4.627h-1.467v-4.627zm4.33 10.077h-1.376v3.654l.012.61c.008.146-.01.235-.06.273-.042.158-.158.273-.355.348-.189.073-.338-.03-.44-.319-.021-.038-.022-.136-.013-.288l.013-.597-.029-3.681h-1.376l.032 3.623c0 .284-.008.522-.018.714-.008.191-.007.337.018.436l.056.51c.019.181.114.327.287.437.158.097.347.148.559.148.215 0 .427-.037.629-.106.207-.07.394-.164.57-.286.173-.123.301-.255.381-.391l-.029.722 1.138.029v-5.836zm-1.26-9.471c0-.54.052-.991.151-1.343.121-.366.314-.627.585-.783.27-.198.614-.298 1.033-.298.369 0 .677.061.929.179.248.099.454.27.612.516.122.178.211.379.271.606.056.246.089.577.089.991v1.549c0 .565-.032.967-.089 1.215-.025.227-.12.477-.302.754-.18.245-.372.408-.581.488-.253.118-.534.176-.856.176-.326 0-.63-.05-.895-.147-.251-.079-.438-.222-.554-.429-.12-.16-.222-.38-.303-.666-.057-.266-.09-.668-.09-1.211v-1.597zm1.23 2.41c0 .156.058.297.179.421.119.124.264.184.433.184.158 0 .303-.057.429-.178.124-.116.184-.26.184-.428v-3.208c0-.178-.06-.325-.184-.448-.127-.124-.271-.187-.429-.187-.158 0-.303.062-.426.187-.123.123-.186.27-.186.448v3.208zm4.475 11.229v-3.028c0-.583-.209-.996-.628-1.242-.138-.079-.301-.119-.479-.119-.332 0-.709.152-1.137.457v-2.275h-1.376v7.817l1.137-.03.089-.488c.371.307.705.494.997.563.296.067.542.042.748-.083.206-.121.364-.322.478-.606.115-.278.173-.604.173-.967zm-1.66-3.636c.159 0 .298.048.424.143.124.093.187.199.187.316v3.429c0 .117-.063.221-.187.309-.127.088-.265.134-.424.134-.162 0-.303-.047-.43-.134-.124-.088-.183-.191-.183-.309v-3.429c0-.117.06-.223.183-.316.128-.095.269-.143.43-.143zm.641-6.586l-.072-.245-.047-.243c-.019-.099-.029-.233-.029-.401v-4.712h1.288v4.697c0 .12.043.222.133.312.094.088.211.134.361.134.139 0 .26-.047.358-.134.102-.09.152-.191.152-.312v-4.697h1.196v6.028h-1.524l.027-.488c-.141.197-.272.35-.403.457-.16.097-.333.146-.526.146-.226 0-.42-.049-.568-.146-.13-.087-.245-.221-.344-.397zm5.358 9.841h-1.03v.663c0 .159-.058.28-.173.367-.114.092-.25.133-.41.133h-.214c-.157 0-.288-.042-.393-.133-.105-.088-.159-.209-.159-.367v-1.405h2.379v-.813c0-.304-.004-.596-.014-.877-.008-.281-.034-.5-.073-.655-.041-.269-.16-.484-.369-.646-.202-.161-.443-.273-.716-.331-.275-.062-.554-.07-.84-.03-.284.04-.53.131-.742.28-.267.177-.462.421-.583.727-.119.301-.18.726-.18 1.268v1.819c0 .765.207 1.313.615 1.638.379.305.778.458 1.196.458h.123c.472-.029.883-.227 1.244-.591.269-.266.404-.617.404-1.049l-.064-.457zm-1.062-1.732h-1.317l.029-.721c0-.159.061-.288.18-.394.12-.104.263-.155.436-.155h.06c.178 0 .33.049.457.147.121.098.187.232.187.401l-.032.721zm0 0" fill="#fff"/><path d="M26 137.68v6.485c0 .404-.085.776-.26 1.114-.175.34-.411.641-.712.897-.3.257-.647.455-1.04.604-.395.147-.822.221-1.278.221h-13.433c-.448 0-.869-.074-1.264-.221-.393-.149-.741-.347-1.04-.604-.298-.256-.537-.556-.714-.897-.173-.338-.26-.709-.26-1.114v-6.485c0-.385.086-.751.26-1.102.177-.35.416-.651.714-.901.298-.251.647-.453 1.04-.606.395-.152.817-.231 1.264-.231h13.433c.447 0 .869.079 1.271.231.398.152.746.354 1.046.606.301.25.537.551.712.901.175.351.26.717.26 1.102zm-15.824 7.207v-6.84h1.647v-1.034h-4.446v1.006h1.424v6.869h1.375zm.672-15.913l-1.841-3.973h1.603l.915 2.97.914-2.97h1.6l-1.724 3.973v4.627h-1.467v-4.627zm4.33 10.077h-1.376v3.654l.012.61c.008.146-.01.235-.06.273-.042.158-.158.273-.355.348-.189.073-.338-.03-.44-.319-.021-.038-.022-.136-.013-.288l.013-.597-.029-3.681h-1.376l.032 3.623c0 .284-.008.522-.018.714-.008.191-.007.337.018.436l.056.51c.019.181.114.327.287.437.158.097.347.148.559.148.215 0 .427-.037.629-.106.207-.07.394-.164.57-.286.173-.123.301-.255.381-.391l-.029.722 1.138.029v-5.836zm-1.26-9.471c0-.54.052-.991.151-1.343.121-.366.314-.627.585-.783.27-.198.614-.298 1.033-.298.369 0 .677.061.929.179.248.099.454.27.612.516.122.178.211.379.271.606.056.246.089.577.089.991v1.549c0 .565-.032.967-.089 1.215-.025.227-.12.477-.302.754-.18.245-.372.408-.581.488-.253.118-.534.176-.856.176-.326 0-.63-.05-.895-.147-.251-.079-.438-.222-.554-.429-.12-.16-.222-.38-.303-.666-.057-.266-.09-.668-.09-1.211v-1.597zm1.23 2.41c0 .156.058.297.179.421.119.124.264.184.433.184.158 0 .303-.057.429-.178.124-.116.184-.26.184-.428v-3.208c0-.178-.06-.325-.184-.448-.127-.124-.271-.187-.429-.187-.158 0-.303.062-.426.187-.123.123-.186.27-.186.448v3.208zm4.475 11.229v-3.028c0-.583-.209-.996-.628-1.242-.138-.079-.301-.119-.479-.119-.332 0-.709.152-1.137.457v-2.275h-1.376v7.817l1.137-.03.089-.488c.371.307.705.494.997.563.296.067.542.042.748-.083.206-.121.364-.322.478-.606.115-.278.173-.604.173-.967zm-1.66-3.636c.159 0 .298.048.424.143.124.093.187.199.187.316v3.429c0 .117-.063.221-.187.308-.127.088-.265.134-.424.134-.162 0-.303-.047-.43-.134-.124-.088-.183-.191-.183-.308v-3.429c0-.117.06-.223.183-.316.128-.095.269-.143.43-.143zm.641-6.586l-.072-.245-.047-.243c-.019-.099-.029-.233-.029-.401v-4.712h1.288v4.697c0 .12.043.222.133.312.094.088.211.134.361.134.139 0 .26-.047.358-.134.102-.09.152-.191.152-.312v-4.697h1.196v6.028h-1.524l.027-.488c-.141.197-.272.35-.403.457-.16.097-.333.146-.526.146-.226 0-.42-.049-.568-.146-.13-.087-.245-.221-.344-.397zm5.358 9.841h-1.03v.663c0 .159-.058.28-.173.367-.114.092-.25.133-.41.133h-.214c-.157 0-.288-.042-.393-.133-.105-.088-.159-.209-.159-.367v-1.405h2.379v-.813c0-.304-.004-.596-.014-.877-.008-.281-.034-.5-.073-.655-.041-.269-.16-.484-.369-.646-.202-.161-.443-.273-.716-.331-.275-.062-.554-.07-.84-.03-.284.04-.53.131-.742.28-.267.177-.462.421-.583.727-.119.301-.18.726-.18 1.268v1.819c0 .765.207 1.313.615 1.638.379.305.778.458 1.196.458h.123c.472-.029.883-.227 1.244-.591.269-.266.404-.617.404-1.049l-.064-.457zm-1.062-1.732h-1.317l.029-.721c0-.159.061-.288.18-.394.12-.104.263-.155.436-.155h.06c.178 0 .33.049.457.147.121.098.187.232.187.401l-.032.721zm0 0" fill="#206FAC"/></g></svg>