<?xml version="1.0" encoding="iso-8859-1"?>
<!-- Generator: Adobe Illustrator 15.0.0, SVG Export Plug-In . SVG Version: 6.00 Build 0)  -->
<!DOCTYPE svg PUBLIC "-//W3C//DTD SVG 1.1//EN" "http://www.w3.org/Graphics/SVG/1.1/DTD/svg11.dtd">
<svg version="1.1" id="Layer_1" xmlns="http://www.w3.org/2000/svg" xmlns:xlink="http://www.w3.org/1999/xlink" x="0px" y="0px"
	 width="132px" height="145.272px" viewBox="0 0 132 145.272" style="enable-background:new 0 0 132 145.272;" xml:space="preserve"
	>
<path style="fill:#FFFFFF;" d="M113.109,0c0,0-0.23,0.269-0.573,0.661c0.08-0.185,0.123-0.298,0.123-0.298s-0.778,0.978-1.617,1.958
	c-0.127,0.136-0.252,0.269-0.374,0.395c-3.051,3.164-7.354,4.988-11.589,6.066c-5.422,1.382-10.882,1.291-16.422,0.975
	c-7.597-0.434-15.186-1.053-22.755,0.085c-3.155,0.474-6.229,1.264-9.137,2.584c-0.345,0.156-0.688,0.319-1.027,0.486l-2.242,1.215
	l0.051,2.508l2.125-0.134c2.414-1.259,4.89-2.003,7.61-2.404c7.061-1.04,14.315-0.619,21.417-0.342
	c5.386,0.21,10.78,0.623,16.094-0.491c4.969-1.041,9.893-3.116,13.668-6.559c0.843-0.769,1.57-1.678,2.171-2.564
	C112.215,2.092,113.109,0,113.109,0"/>
<path style="fill:#FFFFFF;" d="M131.934,30.413c-0.488-6.146-5.758-14.221-14.166-15.332c-6.324-0.835-12.851,2.163-16.999,8.513
	c-1.314,2.013-0.725,4.207,0.003,4.701c0.739,0.501,2.474,0.672,3.984-1.315c1.75-2.301,2.358-4.956,4.384-6.947
	c1.62-1.593,3.378-2.499,5.767-2.581c5.052-0.175,7.596,2.801,9.609,6.123c1.564,2.581,1.521,4.373,1.818,6.707
	c0.138,1.084,0.177,2.248,0.093,3.366c-0.415,5.467-2.584,10.88-4.625,16.09c-1.546,3.945-3.675,7.698-4.863,11.734
	c-0.191,0.475-0.948,2.779-1.068,3.272c-0.7,2.882-0.749,4.053-1.039,6.958c-0.056,0.546,1.763,0.547,1.816,0.002
	c0.34-3.405,0.777-6.741,2.097-10.029c1.577-3.929,4.323-7.401,6.684-10.985C129.461,44.565,132.491,37.42,131.934,30.413"/>
<path style="fill:#FFFFFF;" d="M50.027,13.33c-0.417-0.199-1.014-0.056-1.424,0.13c-0.543,0.245-1.266,0.353-1.522,0.959
	c-0.022,0.052-0.021,0.096-0.01,0.135c-0.057,0.119-0.1,1.128-0.117,1.281c-0.958,8.328-2.557,19.726-4.238,33.398
	c-0.1,0.817,0.675,1.218,1.324,1.055c0.429,0,0.901-0.118,1.31-0.218c1.09-0.267,1.661-0.705,1.902-1.869
	c0.707-3.401,1.18-6.911,1.495-10.344c0.332-0.661,0.688-1.31,1.081-1.939c1.104-1.767,2.696-3.238,4.73-2.876
	c0.018,0.036,0.044,0.101,0.071,0.222c0.078,0.364,0.061,0.749,0.052,1.125c-0.021,1.01-0.16,2.031-0.278,3.042
	c-0.331,2.839-1.417,7.592,1.156,9.431c2.084,1.489,4.976-1.385,6.736-3.816c0.7,1.222,1.822,2.019,3.5,1.984
	c2.273-0.048,4.104-1.811,5.683-3.405c0.74-0.75,1.461-1.542,2.152-2.361c-0.14,1.001-0.275,2.005-0.402,3.009
	c-0.09,0.723,0.41,1.081,0.955,1.077c0.992,0.248,2.544-0.319,3.043-0.995c0.826-1.12,1.005-2.674,1.173-3.978
	c0.244-1.902,0.391-3.815,0.577-5.719c0.144-1.456,0.4-3.001,0.512-4.513c0.868-1.002,1.901-1.588,3.388-0.914
	c0.627,0.285,1.243,0.608,1.859,0.77c-0.999,2.932-1.038,6.158-0.105,8.846c0.596,1.718,2.06,2.571,3.829,2.553
	c1.488-0.016,2.786-0.781,3.938-1.775c-0.342,2.708-0.418,2.743-0.681,5.452c-0.541,3.232-1.181,6.45-1.952,9.635
	c-0.371,1.537-0.984,5.017-2.229,7.41c-0.228,0.33-0.445,0.666-0.675,0.994c-0.882,1.259-1.641-0.471-1.807-1.17
	c-0.303-1.278-0.069-2.839-0.021-4.173c0.081-2.189,0.326-4.32,0.611-6.5c0.113-0.866,0.18-2.371-0.906-2.521
	c-0.664-0.092-1.434,0.173-2.097,0.318c-0.504,0.109-0.967,0.308-1.259,0.714c-0.17,0.176-0.283,0.421-0.291,0.745
	c-0.056,2.497-0.533,5.045-1.133,7.507c-0.532,2.184-1.222,4.739-2.529,6.755c-0.375,0.461-0.739,0.93-1.224,1.277
	c-1.093,0.783-1.595-1.229-1.691-1.862c-0.212-1.369,0.125-2.994,0.283-4.39c0.236-2.077,0.653-4.109,0.981-6.172
	c0.153-0.959,0.132-2.159-0.942-2.363c-0.595-0.113-1.377,0.149-1.97,0.289c-0.629,0.148-1.175,0.443-1.445,1.074
	c-0.023,0.053-0.213,0.677-0.245,0.841c-0.41,2.116-2.682,3.151-4.759,3.814c-0.924-1.136-2.297-1.878-3.735-2.193
	c-1.478-0.567-3.428-0.325-4.732,0.655c-1.214,0.663-2.223,1.67-3.028,2.875c-2.432,0.004-5.516-2.534-6.627,1.086
	c-0.829,2.7-0.683,5.685-1.126,8.434c-0.244,1.512-0.738,4.562-2.092,5.909c-0.467,0.23-0.995,0.043-1.203-0.608
	c-0.28-0.873-0.15-1.905-0.13-2.831c0.039-1.806,0.183-3.646-0.005-5.427c-0.114-1.083-0.505-2.12-1.489-2.576
	c-0.594-0.275-1.424-0.427-2.052-0.112c-0.269,0.049-0.535,0.213-0.747,0.521c-2.655,3.884-2.943,9.001-5.821,12.801
	c-0.398,0.131-0.503-1.043-0.548-1.487c-0.134-1.343,0.052-2.78,0.201-4.141c0.21-1.909,0.708-3.864,0.956-5.772
	c0.188-1.26,0.531-2.749-0.154-3.178c-0.819-0.336-3.026,0.394-3.749,1.271c-0.186,0.227-0.61,1.63-0.753,2.104
	c-0.476,1.584-0.939,3.994-0.939,3.994c-0.981,5.217-1.255,11.709,2.932,11.368c2.823-0.231,4.556-4.281,5.621-6.496
	c0.916-1.905,1.557-4.116,2.397-6.174c-0.144,2.93-0.884,6.004,0.887,8.404c1.896,2.57,5.556,1.067,7.003-1.452
	c1.759-3.063,2.048-6.96,2.371-10.309c0.13-1.348,0.188-2.69,0.589-4.013c0.052,0.021,0.123,0.049,0.236,0.095
	c0.417,0.169,0.822,0.355,1.247,0.508c0.576,0.209,1.187,0.31,1.807,0.337c-1.314,3.215-1.512,7.052-0.551,9.704
	c0.71,1.962,2.203,3.102,4.105,3.005c0.499,0.064,1.025,0.061,1.652-0.018c1.237-0.155,2.438-0.624,3.548-1.268
	c2.492-1.446,3.778-3.936,4.585-6.599c0.656-2.161,0.952-4.432,0.333-6.507c1.129-0.414,2.227-0.924,3.174-1.599
	c-0.418,2.213-0.801,4.421-0.68,6.669c0.167,3.104,2.644,5.803,5.909,4.728c2.347-0.773,3.781-3.366,4.734-5.792
	c0.329,1.231,0.934,2.292,1.963,3.06c1.453,1.084,3.831,0.589,5.137-0.793c1.518-1.607,2.307-3.937,2.978-5.965
	c0.106-0.326,0.206-0.653,0.308-0.979c0.078,1.165,0.256,2.293,0.606,3.329c0.474,1.397,2.491,2.515,3.928,1.668
	c1.273-0.752,2.082-2.095,2.712-3.526c0.594,1.321,1.591,2.3,3.165,2.416c3.391,0.249,5.672-3.138,7.131-6.328
	c0.152,0.583,0.356,1.113,0.619,1.58c0.035,0.069,0.066,0.141,0.104,0.208c0.25,0.441,0.597,0.803,1.001,1.065
	c0.961,0.702,2.317,0.952,4.216,0.537c1.278-0.279,0.971-1.826-0.078-2.174c-0.83-0.275-1.555-1.767-1.719-2.673
	c-0.125-1.084-0.139-2.205-0.153-3.299c-0.022-1.612,0.151-3.23,0.318-4.847c0.337-3.255,0.715-6.509,1.082-9.764
	c0.253-2.25,0.389-3.163,0.625-5.413c0.076-0.729,0.479-2.43-0.021-3.04c-1.071-1.313-2.302-0.243-3.471,0.636
	c-0.249,0.187-0.316,0.556-0.338,0.698c-0.412,2.719-0.677,4.109-1.012,6.84c-0.381,2.76-0.762,5.521-1.142,8.281
	c-1.245-0.806-2.925-0.788-4.486-0.352c-0.12-0.002-0.251,0.014-0.396,0.065c-0.293,0.104-0.569,0.233-0.838,0.372
	c-0.134,0.058-0.266,0.117-0.394,0.18c-0.165,0.08-0.294,0.181-0.391,0.295c-2.746,1.901-4.021,5.588-4.456,8.771
	c-0.087,0.629-0.133,1.344-0.12,2.083c-0.006,0.015-0.015,0.027-0.021,0.042c-0.104,0.253-0.332,0.881-0.632,1.62
	c-0.034,0.024-0.066,0.054-0.089,0.099c-0.02,0.039-0.833,1.869-1.114,1.284c-0.165-0.341-0.173-0.817-0.208-1.199
	c-0.142-1.463-0.095-2.964-0.01-4.449c0.094-1.598,0.278-3.201,0.448-4.798c0.368-3.44,0.541-4.203,0.921-7.643
	c0.268-2.408,0.674-4.697,0.245-5.767c-0.725-1.816-2.243-0.951-4.114,0.873c-0.696,0.747-1.625,1.664-2.576,2.276
	c-0.186,0.078-0.372,0.146-0.567,0.196c-1.116,0.285-1.26-1.445-1.355-2.198c-0.064-0.504-0.063-1.02-0.021-1.536
	c1.231-0.894,2.431-1.908,3.436-3.053c0.389-0.299,0.738-0.69,1.066-1.041c0.776-0.823,1.564-1.638,2.329-2.469
	c1.195-1.3,2.112-2.941,1.294-4.573c-1.205-2.409-5.674-0.809-7.509,0.273c-0.02,0.009-0.03,0.024-0.044,0.038
	c-0.336,0.195-0.653,0.428-0.939,0.7c-0.903,0.866-1.649,1.869-2.248,2.952c-0.556,0.336-1.396-0.386-1.913-0.621
	c-0.828-0.376-1.785-0.622-2.737-0.42c-0.64,0.136-1.165,0.362-1.62,0.648c-0.361-1.566-2.101-1.049-3.419-0.317
	c-0.061,0.033-0.095,0.081-0.11,0.13c-0.225,0.181-0.392,0.449-0.434,0.81c-0.348,2.999-0.79,5.987-1.23,8.977
	c-1.54,2.27-3.38,4.388-5.384,6.241c-0.204,0.189-0.428,0.381-0.663,0.567c-0.405,0.207-0.809,0.402-1.245,0.513
	c-1.117,0.285-1.26-1.446-1.355-2.198c-0.062-0.484-0.062-0.979-0.026-1.474c1.304-0.938,2.663-2.064,3.768-3.32
	c0.33-0.215,0.648-0.458,0.937-0.77c0.86-0.926,1.766-1.844,2.59-2.803c1.077-1.254,1.432-3.24,0.587-4.572
	c-1.17-1.849-4.248-1.001-6.173-0.049c-2.468,0.779-3.98,3.957-4.932,6.15c-0.798,1.84-1.255,4.747-0.884,7.211
	c-0.534,0.891-1.222,1.739-1.962,2.517c-0.21,0.136-0.432,0.18-0.593-0.073c-0.174-0.273-0.169-0.763-0.196-1.094
	c-0.09-1.145,0.035-2.263,0.219-3.413c0.274-1.722,0.629-3.574,0.042-5.192c-0.675-1.856-2.732-2.674-4.677-2.522
	c-0.813-0.021-1.677,0.179-2.362,0.463c-1.197,0.501-2.171,1.388-2.994,2.411c0.255-1.942,0.425-3.893,0.646-5.829
	c0.332-2.898,1.08-9.135,1.376-12.034 M103.256,44.972c0.042-0.025,0.084-0.049,0.127-0.074c0.002-0.001,0.002-0.001,0.005-0.001
	c-0.044,0.033-0.09,0.065-0.134,0.101c0-0.005,0.001-0.01,0.002-0.015C103.256,44.978,103.256,44.976,103.256,44.972
	 M102.544,50.072c0.361-2.121,1.926-5.578,4.415-5.379c0.82,0.456,1.337,1.38,1.299,2.803c-0.049,1.802-0.794,3.639-1.539,5.303
	c-0.448,1-1.326,2.883-2.453,4.156C101.425,59.012,102.308,51.461,102.544,50.072 M91.005,23.809c0.062-0.062,0.129-0.124,0.2-0.174
	c0.111-0.077,0.205-0.107,0.299-0.111c1.6,0.363,0.104,3.087-0.447,3.89c-0.57,0.83-1.28,1.594-2.06,2.298
	C89.566,27.708,90.073,25.697,91.005,23.809 M70.776,33.321c0.011,0,0.021,0,0.032,0c-0.029,0.032-0.06,0.065-0.087,0.098
	C70.739,33.386,70.758,33.354,70.776,33.321 M68.204,29.536c0.087-0.093,0.179-0.179,0.283-0.251
	c0.104-0.073,0.195-0.102,0.285-0.109c0.455,0.088,0.759,0.516,0.696,1.496c-0.108,1.744-1.587,3.45-3.276,4.866
	C66.775,33.504,67.274,31.457,68.204,29.536 M63.28,67.939c0.012,0.001,0.023,0,0.035-0.001c-0.02,0.02-0.042,0.039-0.062,0.059
	C63.263,67.978,63.271,67.959,63.28,67.939 M60.982,55.103c0.242,0.016,0.46,0.044,0.623,0.073c0.783,0.136,1.303,0.542,1.636,1.094
	c-1.254,0.414-3.14,0.974-4.033,0.679C59.632,56.149,60.205,55.347,60.982,55.103 M57.636,60.959
	c0.166-0.645,0.392-1.284,0.641-1.914c1.597,0.417,3.938-0.267,5.464-0.706c0.001,0.056,0.002,0.111,0.002,0.167
	c-0.016,2.783-1.425,5.746-2.935,8.113c-0.592,0.928-1.387,1.961-2.351,2.476c-0.046,0.007-0.092,0.007-0.138,0.004
	c0-0.001-0.001-0.001-0.002-0.003c-0.229-0.126-0.419-0.296-0.595-0.483c-0.076-0.137-0.14-0.285-0.193-0.421
	c-0.283-0.815-0.392-1.646-0.452-2.501c-0.003-0.103-0.01-0.207-0.012-0.311C57.031,63.916,57.264,62.405,57.636,60.959"/>
<path style="fill:#FFFFFF;" d="M105.797,96.041c-2.988,2.238-6.339,3.878-9.76,5.168c-1.053,0.397-2.116,0.757-3.186,1.083
	c-0.915,0.28-1.828,0.524-2.741,0.75l-4.572,0.905l0.05-0.443c0.437-3.726,0.907-7.448,1.35-11.175
	c0.282-2.395,0.471-4.789,0.754-7.184c0.389-3.312,0.9-6.649,1.169-9.962c0.083-1.017,0.745-3.574-0.546-3.912
	c-0.678-0.178-1.642,0.218-2.286,0.491c-0.972,0.412-1.15,0.894-1.276,1.878c-0.001,0.009,0.001,0.015,0.001,0.021
	c-0.085,0.57-0.168,1.141-0.252,1.711c-0.066-0.143-0.138-0.282-0.218-0.419c-1.162-2.003-3.37-2.257-5.658-1.575
	c-0.548,0.163-1.23,0.4-1.655,0.636c-3.218,1.782-4.963,5.433-5.58,9.003c-0.566,3.274,0.159,8.232,4.022,8.522
	c3.733,0.281,6.144-3.13,7.693-6.501c-0.608,4.384-1.182,8.768-1.689,13.156c-0.241,2.085-0.452,4.178-0.678,6.27l-0.256,0.097
	c-4.17,0.355-6.58-0.049-10.777-0.05c-11.237-0.006-22.477-0.013-33.686,2.872c-3.869,0.995-7.488,2.53-10.972,4.379
	c0.011-0.094,0.021-0.189,0.033-0.283c0.647-5.298,1.001-10.607,1.735-15.903c0.292-2.104,0.894-8.655,1.122-10.761
	c0.103-0.952,0.479-2.658-0.14-3.449c-0.595-0.762-2.036-0.186-2.818,0.087c-1.266,0.44-1.689,1.112-1.784,2.445
	c-0.001,0.032,0.003,0.06,0.011,0.086c-0.137,2.991-4.22,18.679-8.262,22.283c-0.644,0.487-1.319,0.632-1.867-0.215
	c-0.675-1.042-0.889-2.722-0.817-4.002c0.175-3.12,0.749-11.165,1.323-14.275c0.226-1.227,1.914-16.887,0.595-17.543
	c-0.609-0.303-1.529,0.03-2.168,0.199c-0.815,0.218-1.421,0.691-1.862,1.37c-0.179,0.177-0.312,0.417-0.345,0.729
	c-0.579,5.402-5.147,33.731,0.701,36.662c4.17,2.09,7.185-2.716,9.186-6.066c0.501-0.838,0.998-1.714,1.476-2.616
	c-0.695,4.893-1.38,9.788-1.986,14.686c-0.527,0.335-1.054,0.675-1.579,1.018c-1.068,0.563-2.119,1.161-3.137,1.732
	c-1.371,0.77-2.683,1.666-4.024,2.493c-0.787,0.486-1.541,1.015-2.257,1.606c-4.43,2.937-7.526,7.773-8.12,13.017
	c-0.567,5.014,2.655,9.627,7.496,10.004c1.731,0.337,3.614,0.271,5.356-0.258c2.792-0.774,5.245-2.555,6.955-5.249
	c0.729-1.147,1.295-2.434,1.57-3.744c0.695-3.309,1.292-6.656,1.842-9.98c0.676-4.075,1.085-8.202,1.555-12.302
	c4.515-2.353,9.186-3.325,14.091-3.938c10.457-1.31,19.141-0.453,29.544-0.351c-0.213,0.213-0.539,0.539-0.558,0.557
	c-3.283,3.211-5.409,7.723-5.344,12.201c0.069,4.7,3.866,8.418,7.98,8.53c3.576,0.488,7.495-0.797,9.792-4.142
	c1.754-2.554,2.453-5.846,3.112-8.757c0.714-3.156,1.243-6.319,1.605-9.504c1.466-0.258,2.79-0.551,4.117-0.873
	c1.976-0.48,4.397-1.311,6.375-2.137c5.1-2.13,10.125-5.056,14.016-9.253c1.04-1.124,2.032-2.37,2.858-3.662
	c0.966-1.509,1.828-3.138,2.208-4.874c0.084-0.377,0.168-1.136,0.168-1.136S112.566,90.97,105.797,96.041 M87.299,84.857
	c-0.006,0.044-0.012,0.088-0.017,0.132c-0.003-0.005-0.006-0.01-0.008-0.017C87.282,84.935,87.29,84.896,87.299,84.857
	 M80.984,84.513c-0.52,1.036-1.305,2.516-2.304,3.576c-0.156,0.107-0.317,0.208-0.487,0.301c-0.369,0.197-0.678,0.222-0.939,0.139
	c-0.105-0.054-0.203-0.105-0.296-0.156c-0.476-0.357-0.73-1.124-0.834-1.725c-0.275-1.599,0.037-3.418,0.414-5.029
	c0.426-1.826,1.831-6.356,4.217-6.224c1.282,0.227,2.17,1.237,2.12,3.09C82.82,80.522,81.909,82.67,80.984,84.513 M12.004,99.102
	c0.004-0.035,0.013-0.072,0.019-0.109c-0.01,0.159-0.021,0.317-0.031,0.477c-0.003,0.055-0.007,0.11-0.011,0.167
	C11.988,99.457,11.998,99.279,12.004,99.102 M13.177,119.198c-0.062,0.042-0.125,0.085-0.185,0.127
	c-0.004-0.003-0.006-0.005-0.01-0.008C13.047,119.278,13.112,119.237,13.177,119.198 M16.804,129.928
	c-0.902,4.027-2.129,9.656-5.874,12.135c-0.443,0.294-0.881,0.509-1.312,0.66c-1.902-0.028-3.297-0.525-4.105-2.31
	c-1.071-2.369-0.53-5.594,0.288-8.104c0.795-2.44,1.781-4.953,3.188-7.139c0.935-1.454,2.138-2.67,3.451-3.752
	c2.117-1.438,4.232-2.886,6.378-4.276C18.353,121.416,17.751,125.693,16.804,129.928 M18.513,140.703
	c0.004-0.008,0.009-0.018,0.014-0.026c0.006-0.008,0.013-0.014,0.021-0.02C18.536,140.671,18.524,140.688,18.513,140.703
	 M22.678,120.31c-0.002-0.001-0.005-0.003-0.007-0.005c0.006-0.028,0.013-0.057,0.019-0.085
	C22.687,120.249,22.682,120.28,22.678,120.31 M78.104,119.727c-0.875,3.078-2.152,6.445-5.11,8.087
	c-0.37,0.205-0.739,0.352-1.109,0.451c-0.982-0.019-1.826-0.166-2.523-0.555c-0.173-0.132-0.351-0.251-0.534-0.37
	c-0.397-0.338-0.733-0.788-1.003-1.383c-1.07-2.371-0.529-5.594,0.288-8.106c0.46-1.409,0.985-2.841,1.615-4.221
	c0.045-0.073,0.091-0.147,0.135-0.222c0.763-1.234,1.24-2.474,2.597-3.211c0.643-0.349,1.274-0.578,1.911-0.732
	c1.684-0.136,3.354-0.335,5.021-0.604c0.288-0.025,0.567-0.053,0.842-0.079C79.756,112.457,79.133,116.117,78.104,119.727
	 M78.691,126.676c0.04-0.049,0.08-0.099,0.121-0.148c0.023-0.017,0.049-0.033,0.072-0.049
	C78.821,126.544,78.756,126.61,78.691,126.676"/>
<path style="fill:#FFFFFF;" d="M17.314,57.463c2.191,0.218,3.709-1.484,4.802-3.331c2.295-3.877,3.634-8.347,4.841-12.792
	c0.299,6.942,1.801,14.964,7.472,11.757c4.372-2.472,5.271-9.793,6.021-14.07c1.117-6.361,1.523-13.198,2.13-19.576
	c0.031-0.335,0.217-1.439,0.054-1.618c-0.536-0.59-2.113,0.512-2.218,1.615c-0.484,5.092-0.87,10.627-1.543,15.717
	c-0.385,2.917-0.875,5.834-1.61,8.712c-0.413,1.614-0.908,3.446-1.764,5.002c-0.461,0.476-0.77,0.627-1.372,0.068
	c-0.279-0.259-0.489-0.603-0.686-0.93c-0.67-1.118-1.018-2.433-1.225-3.75c-0.176-1.126-0.302-2.27-0.402-3.419
	c-0.079-1.033-0.131-2.068-0.209-3.101c-0.028-0.586-0.053-1.172-0.071-1.758c-0.044-1.431-0.249-2.993-1.376-3.877
	c-0.471-0.37-1.681-0.282-2.291-0.07c-0.361,0.125-0.543,0.378-0.639,0.678c-0.049,0.082-0.093,0.17-0.126,0.272
	c-1.872,5.867-3.31,11.844-5.623,17.59c-0.014,0.036-0.029,0.073-0.043,0.108c-0.72,1.446-2.08,3.521-3.124,2.454
	c-0.215-0.22-0.587-2.285-0.567-4.825c0.018-2.183,0.31-4.395,0.507-6.584c0.273-3.011,0.63-6.016,1.149-9.015
	c0.413-2.387,1.077-4.933,0.94-7.327c-0.095-1.658-1.507-1.933-3.006-1.367c-0.786,0.296-1.249,0.692-1.541,1.204
	c-0.019,0.015-0.037,0.033-0.051,0.057c-0.042,0.066-0.067,0.142-0.087,0.218c-0.009,0.021-0.017,0.044-0.026,0.065
	c-0.084,0.135-0.146,0.292-0.178,0.472c-0.911,5.191-1.736,10.392-2.241,15.606c-0.409,4.214-0.94,9.123,0.534,13.02
	C14.292,56.116,15.778,57.31,17.314,57.463 M31.179,50.569c0.012,0.032,0.025,0.065,0.04,0.098c0,0.004,0,0.008,0,0.012
	c-0.025-0.036-0.051-0.072-0.077-0.11C31.154,50.57,31.166,50.569,31.179,50.569 M29.253,42.497h-0.014
	c-0.002-0.029-0.005-0.059-0.008-0.089C29.239,42.438,29.246,42.467,29.253,42.497"/>
<path style="fill:#FFFFFF;" d="M113.726,79.324c0.221,0.18,0.516,0.242,0.797,0.229c0.547,0.174,1.104,0.183,1.689,0.046
	c0.563-0.13,1.09-0.611,1.436-1.017c0.241-0.283,0.463-1.146,0.446-1.529c-0.024-0.59-0.244-1.018-0.727-1.431
	c-0.239-0.206-0.562-0.353-0.867-0.445c-0.707-0.214-1.483-0.291-2.195-0.155c-0.761,0.145-1.643,0.506-1.842,1.274
	C112.191,77.351,112.868,78.628,113.726,79.324"/>
<path style="fill:#FFFFFF;" d="M47.345,92.93c0.187,3.248,2.566,5.986,6.042,4.868c2.692-0.866,4.275-4.004,5.295-6.646
	c0.384,2.901,1.752,4.899,5.405,4.102c1.114-0.244,0.846-1.594-0.068-1.896c-0.773-0.257-0.738-1.723-0.817-2.486
	c-0.126-1.195-0.035-2.434,0.004-3.646c0.074-2.3,0.237-4.57,0.597-6.863c0.159-1.018,0.371-2.61-0.775-2.981
	c-0.588-0.191-1.416,0.15-2.009,0.305c-0.611,0.161-1.207,0.439-1.491,1.036c-0.11,0.146-0.182,0.339-0.188,0.58
	c-0.058,2.706-0.632,5.473-1.362,8.123c-0.571,2.069-1.364,4.75-2.81,6.665c-0.216,0.242-0.438,0.479-0.685,0.696
	c-1.077,0.954-1.868-0.121-2.161-1.104c-0.384-1.289-0.044-2.948,0.095-4.303c0.228-2.238,0.559-4.453,1.009-6.673
	c0.205-1.009,0.454-2.503-0.631-2.945c-0.585-0.239-1.499,0.085-2.101,0.228c-0.644,0.151-1.213,0.458-1.48,1.112
	c-0.014,0.035-0.017,0.066-0.013,0.095c-0.032,0.076-0.059,0.157-0.075,0.246c-0.436,2.393-2.961,3.562-5.286,4.305
	c-0.999-1.267-2.53-2.071-4.12-2.367c-0.27-0.07-0.55-0.131-0.857-0.171c-1.39-0.172-2.916,0.059-3.996,0.833
	c-4.388,2.298-5.815,8.673-5.549,13.064c0.128,2.112,0.902,4.529,2.864,5.403c0.956,0.426,1.963,0.41,2.924,0.105
	c0.312-0.019,0.624-0.052,0.921-0.089c1.265-0.156,2.499-0.623,3.637-1.275c2.748-1.576,4.081-4.334,4.921-7.257
	c0.622-2.167,0.854-4.472,0.169-6.519c1.302-0.483,2.549-1.086,3.593-1.879C47.79,88.035,47.204,90.476,47.345,92.93 M63.061,92.573
	c-0.005-0.008-0.011-0.017-0.016-0.024c0-0.011-0.003-0.025-0.003-0.036C63.047,92.533,63.054,92.554,63.061,92.573 M61.614,87.946
	c0,0.024,0,0.05,0,0.074c-0.004-0.021-0.006-0.043-0.009-0.063C61.608,87.953,61.611,87.95,61.614,87.946 M50.322,80.5
	c-0.004,0.004-0.01,0.009-0.015,0.013c-0.004,0-0.007,0-0.011,0C50.304,80.508,50.313,80.504,50.322,80.5 M38.222,85.115
	c0.026-0.005,0.048-0.015,0.067-0.027c1.123,0.092,1.935,0.697,2.409,1.601c-1.38,0.473-3.72,1.272-4.789,0.785
	C36.402,86.44,37.122,85.312,38.222,85.115 M38.36,97.164c-0.435,0.732-0.981,1.57-1.633,2.266
	c-0.021,0.008-0.043,0.019-0.065,0.036c-2.223,1.809-2.747-1.532-2.812-3.137c-0.066-1.643,0.19-3.352,0.625-4.974
	c0.188-0.699,0.426-1.399,0.688-2.089c1.16,0.344,2.677,0.157,3.821-0.146c0.673-0.18,1.417-0.359,2.191-0.562
	C41.363,91.418,39.813,94.719,38.36,97.164"/>
<path style="fill:#FFFFFF;" d="M109.631,67.569c0,0-3.473,2.536-5.581,3.033c-1.146-1.152-2.909-2.032-4.528-2.225
	c-0.008-0.001-0.014,0.002-0.021,0.002c-1.631-0.404-3.411-0.09-4.597,1.363c-4.169,2.734-5.471,9.391-4.676,13.737
	c0.407,2.229,1.688,4.057,3.97,4.337c0.023,0.002,0.046,0,0.069,0.004c0.087,0.011,0.178,0.014,0.271,0.014
	c0.274,0.01,0.544-0.001,0.806-0.042c1.262-0.073,2.527-0.493,3.708-1.031c2.772-1.265,4.6-3.477,5.63-6.345
	c0.331-0.924,0.626-1.919,0.816-2.928c0.124-0.557,0.197-1.132,0.204-1.69c0.057-1.088-0.052-2.156-0.417-3.131
	c-0.065-0.173-0.141-0.342-0.22-0.507C107.392,70.607,109.631,67.569,109.631,67.569 M98.499,70.567
	c0.65,0.062,1.271,0.245,1.589,0.417c0.454,0.247,0.78,0.591,1.007,1.001c-1.54,0.629-3.149,0.962-4.337,0.744
	C97.14,71.864,97.688,70.872,98.499,70.567 M95.027,85.749c0-0.005-0.001-0.011-0.001-0.017c0.011,0.004,0.021,0.008,0.03,0.013
	C95.048,85.746,95.037,85.747,95.027,85.749 M100.488,78.633c-0.763,2.104-1.961,4.351-3.599,5.958
	c-1.799,1.092-2.103-2.068-2.134-3.428c-0.037-1.555,0.221-3.165,0.646-4.693c0.15-0.542,0.329-1.083,0.521-1.62
	c1.772,0.483,3.761-0.25,5.515-0.858c0.028-0.009,0.057-0.021,0.085-0.031C101.52,75.574,100.932,77.412,100.488,78.633"/>
</svg>
