<?xml version="1.0" encoding="utf-8"?>
<!-- Generator: Adobe Illustrator 17.0.0, SVG Export Plug-In . SVG Version: 6.00 Build 0)  -->
<!DOCTYPE svg PUBLIC "-//W3C//DTD SVG 1.1//EN" "http://www.w3.org/Graphics/SVG/1.1/DTD/svg11.dtd">
<svg version="1.1" xmlns="http://www.w3.org/2000/svg" xmlns:xlink="http://www.w3.org/1999/xlink" x="0px" y="0px" width="384px"
	 height="550px" viewBox="0 0 384 550" enable-background="new 0 0 384 550" xml:space="preserve">
<g id="Borders" display="none">
	<g display="inline">
		<rect x="0.392" y="-0.055" fill="#5D5D5D" width="384" height="550"/>
	</g>
</g>
<g id="Labels">
</g>
<g id="Names">
	<g>
		<g>
			<path fill="#FFFFFF" d="M88.729,256.798c1.324-2.578,3.021-4.089,5.092-4.528l3.336-0.709c0.234-0.114,0.755-0.356,1.565-0.726
				c0.81-0.37,1.548-0.69,2.217-0.964c0.669-0.272,1.157-0.443,1.467-0.51c0.834-0.177,1.47-0.147,1.907,0.087l-12.756,75.803
				c-1.885,0.4-4.061,0.461-6.525,0.181s-4.328-0.729-5.59-1.347l11.817-51.73l-26.99,59.877c-2.658,0.106-4.835-0.761-6.533-2.598
				c-1.699-1.838-2.843-3.383-3.432-4.636c0.086-2.479,0.307-5.732,0.661-9.764c0.354-4.028,0.715-8.223,1.079-12.583
				c0.364-4.359,0.642-8.446,0.833-12.259c0.19-3.814,0.197-7.048,0.021-9.701l-17.983,59.637c-0.849,0.113-2.488-0.579-4.923-2.079
				c-2.434-1.501-3.863-2.944-4.286-4.33c0.449-3.05,0.959-5.741,1.528-8.078c0.569-2.335,1.523-5.671,2.861-10.009
				c1.338-4.337,3.478-11.132,6.42-20.388c1.331-4.22,2.893-8.645,4.686-13.276c1.792-4.63,3.388-8.595,4.786-11.895
				c1.396-3.299,2.377-5.599,2.939-6.899c0.821-0.7,1.74-1.157,2.76-1.374c0.401-0.086,0.704-0.142,0.909-0.169
				c0.204-0.027,0.433-0.051,0.687-0.071c0.254-0.021,0.523-0.046,0.808-0.074c0.285-0.027,0.555-0.052,0.809-0.073
				c0.339-0.072,1.074-0.375,2.203-0.911c1.13-0.535,2.05-0.879,2.761-1.03c0.572,0.568,0.999,1.511,1.279,2.829
				c0.62,2.92,0.813,7.555,0.582,13.903c-0.233,6.35-0.744,15.794-1.534,28.332c1.092-1.544,2.071-3.164,2.939-4.857
				c0.867-1.693,1.651-3.395,2.354-5.103s1.392-3.397,2.071-5.066c0.678-1.67,1.358-3.103,2.04-4.298
				c1.074-2.394,2.102-4.507,3.085-6.34c0.982-1.834,2.407-4.434,4.275-7.801c1.868-3.366,3.415-6.155,4.64-8.368
				C86.82,260.69,87.864,258.654,88.729,256.798z"/>
		</g>
		<g>
			<path fill="#FFFFFF" d="M133.77,269.767c0.125-0.322,0.409-0.81,0.852-1.461c0.443-0.652,0.707-1.15,0.796-1.498
				c1.791-0.381,3.287-0.634,4.489-0.758c0.864-0.185,1.509-0.188,1.934-0.018c0.424,0.173,0.698,0.327,0.824,0.465l-11.569,53.352
				c-0.237,0.247-0.527,0.408-0.866,0.479c-0.248,0.053-0.609,0.063-1.083,0.033c-0.475-0.029-0.876-0.092-1.202-0.188
				c-0.328-0.094-0.728-0.189-1.199-0.287c-0.328,0.137-0.906,0.488-1.736,1.059c-0.833,0.571-1.434,0.895-1.805,0.974
				c-0.556,0.118-0.894-0.104-1.014-0.67c-0.24-1.13,0.228-3.411,1.402-6.845c-0.666,1.422-2.081,3.158-4.244,5.21
				c-2.163,2.051-4.052,3.462-5.664,4.23c-0.592,0.257-1.118,0.435-1.582,0.532c-1.205,0.257-2.542,0.271-4.012,0.042
				c-1.47-0.229-2.791-0.712-3.965-1.447c-1.173-0.734-1.934-1.622-2.285-2.664c-0.555-1.095-0.977-2.318-1.264-3.669
				c-0.474-2.229-0.469-4.862,0.016-7.902c0.484-3.039,1.704-6.867,3.662-11.484c2.739-6.553,6.396-12.408,10.967-17.563
				s9.621-8.32,15.152-9.496C131.454,269.963,132.585,269.82,133.77,269.767z M131.345,277.959
				c-3.655,1.335-7.245,4.346-10.77,9.032c-3.524,4.688-6.237,9.775-8.139,15.266c-1.901,5.489-2.501,9.883-1.8,13.18
				c1.778-0.444,3.411-1.308,4.898-2.592c1.487-1.283,2.821-2.872,4.001-4.764c1.18-1.891,2.17-3.767,2.97-5.626
				c0.799-1.859,1.776-4.324,2.934-7.393C128.855,286.068,130.824,280.367,131.345,277.959z"/>
		</g>
		<g>
			<path fill="#FFFFFF" d="M157.628,246.878c0.145-0.229,0.371-0.375,0.681-0.44c0.433-0.092,1.457,0.02,3.073,0.331
				c0.395-0.117,0.977-0.494,1.745-1.134c0.768-0.638,1.384-1.008,1.848-1.105c0.494-0.105,0.96-0.04,1.398,0.194
				c-0.52,1.816-1.344,4.887-2.475,9.213c-1.131,4.325-2.407,9.485-3.829,15.481c-1.422,5.994-2.531,11.374-3.327,16.137
				c-0.551,3.333-1.098,7.257-1.64,11.767c-0.543,4.514-0.965,8.262-1.267,11.246c-0.303,2.984-0.522,5.147-0.655,6.487
				c-1.343,0.222-2.906,0.192-4.692-0.084c-1.787-0.276-3.145-0.628-4.075-1.054c-0.406-0.241-0.962-0.386-1.666-0.434
				s-1.208-0.104-1.514-0.171c-0.305-0.065-0.493-0.271-0.567-0.617c-0.02-0.095-0.008-0.343,0.035-0.746
				c0.337-2.368,0.627-4.308,0.87-5.82c0.243-1.512,0.51-2.995,0.798-4.451c0.287-1.456,0.865-3.867,1.731-7.234
				s1.83-7.114,2.89-11.246C151.325,266.068,154.87,253.96,157.628,246.878z"/>
		</g>
		<g>
			<path fill="#FFFFFF" d="M192.67,257.247c0.125-0.322,0.41-0.81,0.853-1.461c0.442-0.652,0.707-1.15,0.796-1.498
				c1.791-0.381,3.287-0.634,4.489-0.759c0.864-0.184,1.509-0.188,1.934-0.017c0.425,0.173,0.698,0.327,0.824,0.465l-11.569,53.352
				c-0.238,0.247-0.527,0.407-0.866,0.479c-0.249,0.053-0.61,0.063-1.084,0.033c-0.474-0.029-0.875-0.092-1.202-0.188
				c-0.327-0.095-0.727-0.19-1.198-0.287c-0.327,0.137-0.907,0.488-1.737,1.059c-0.832,0.57-1.434,0.895-1.804,0.974
				c-0.556,0.118-0.894-0.104-1.014-0.67c-0.24-1.13,0.227-3.411,1.402-6.845c-0.667,1.422-2.081,3.158-4.244,5.209
				c-2.164,2.052-4.053,3.463-5.664,4.231c-0.593,0.257-1.118,0.434-1.582,0.532c-1.205,0.257-2.542,0.271-4.012,0.042
				c-1.471-0.229-2.791-0.712-3.965-1.447c-1.174-0.734-1.935-1.622-2.285-2.664c-0.556-1.095-0.978-2.318-1.265-3.669
				c-0.474-2.229-0.468-4.862,0.016-7.902c0.484-3.039,1.705-6.867,3.662-11.484c2.74-6.554,6.396-12.408,10.967-17.563
				c4.571-5.155,9.621-8.32,15.152-9.496C190.355,257.443,191.487,257.301,192.67,257.247z M190.247,265.439
				c-3.655,1.335-7.246,4.346-10.771,9.032s-6.236,9.775-8.138,15.265c-1.9,5.49-2.501,9.884-1.8,13.181
				c1.778-0.444,3.411-1.309,4.897-2.592c1.487-1.284,2.821-2.872,4.002-4.764c1.18-1.892,2.17-3.767,2.969-5.627
				c0.799-1.858,1.777-4.323,2.934-7.392C187.756,273.549,189.725,267.847,190.247,265.439z"/>
		</g>
		<g>
			<path fill="#FFFFFF" d="M228.974,267.298c-0.072,0.114-0.122,0.182-0.149,0.204c-0.029,0.023-0.058,0.036-0.088,0.043
				c-0.014-0.062,0.483-1.104,1.492-3.122c1.006-2.019,2.056-4.112,3.145-6.279c1.09-2.168,2.02-4.022,2.79-5.565
				c0.77-1.54,1.351-2.681,1.743-3.421c0.555-0.577,1.589-1.027,3.103-1.349c1.946-0.414,3.083-0.459,3.41-0.135
				c0.434,0.368,0.864,0.646,1.292,0.834c0.427,0.188,0.905,0.348,1.435,0.481c0.528,0.135,0.904,0.269,1.126,0.4
				c0.223,0.134,0.362,0.342,0.423,0.624c-1.097,2.432-3.043,6.685-5.837,12.758c-2.794,6.074-5.238,11.359-7.333,15.856
				c-2.096,4.5-3.682,7.716-4.755,9.648c-0.568,0.976-2.309,4.446-5.223,10.413c-2.913,5.968-5.681,11.666-8.305,17.097
				s-4.552,9.425-5.784,11.984c-0.823,0.076-1.413-0.086-1.773-0.484c-0.359-0.4-0.772-1.018-1.242-1.853
				c-0.468-0.837-0.887-1.362-1.255-1.58c-2.091-0.113-3.253-0.719-3.486-1.817c-0.074-0.346-0.048-0.68,0.078-1.001l9.843-24.783
				c-2.175-4.917-4.765-14.44-7.768-28.568c-1.161-5.463-1.942-9.595-2.344-12.396c0.041-0.108,0.134-0.242,0.277-0.403
				c0.144-0.162,0.354-0.273,0.632-0.332c1.235-0.263,3.008,0.706,5.316,2.906c0.41,0.109,0.77,0.132,1.079,0.065
				c0.278-0.059,0.695-0.262,1.251-0.609c0.555-0.348,0.988-0.555,1.297-0.621c0.711-0.15,1.441,0.17,2.19,0.962l4.947,28.972
				c0.61-1.376,1.47-3.298,2.577-5.765c1.105-2.466,2.212-4.933,3.318-7.398C227.503,270.596,228.363,268.675,228.974,267.298z"/>
		</g>
		<g>
			<path fill="#FFFFFF" d="M248.467,259.65c-0.743-3.493,0.343-6.931,3.257-10.313c2.913-3.383,7.668-6.498,14.264-9.348
				c1.175-0.545,2.598-0.995,4.266-1.35c1.792-0.381,3.598-0.584,5.416-0.61c1.818-0.025,3.437,0.14,4.853,0.494
				c1.414,0.356,2.382,0.839,2.899,1.451c0.607,0.432,1.362,1.015,2.26,1.748c0.899,0.733,1.393,1.305,1.479,1.715
				c0.101,0.474,0.191,1.24,0.271,2.296c0.079,1.057,0.136,1.895,0.171,2.514c-1.284,2.015-2.418,3.628-3.403,4.839
				c-0.986,1.212-2.209,2.294-3.67,3.244c-1.462,0.953-3.118,1.624-4.973,2.019c-1.378-0.562-2.294-1.911-2.749-4.05
				c-0.254-1.194-0.27-2.028-0.048-2.504c0.847-1.033,1.885-1.918,3.115-2.657c1.232-0.738,2.308-1.452,3.227-2.141
				c-2.605-0.103-5.051,0.088-7.337,0.574c-2.843,0.604-5.283,1.616-7.321,3.035c-2.04,1.419-3.553,2.925-4.539,4.514
				c0.374,1.761,1.36,3.095,2.958,4.005c1.598,0.909,4.177,1.987,7.734,3.235c3.56,1.247,6.275,2.478,8.147,3.69
				c1.873,1.212,3.049,2.95,3.529,5.214c0.114,2.504-0.716,5.061-2.485,7.67c-1.771,2.609-4.078,5.054-6.918,7.331
				c-1.812,1.502-4.158,2.854-7.033,4.056c-2.877,1.203-5.613,2.08-8.208,2.632c-1.7,0.361-3.187,0.578-4.462,0.652
				c-3.019,0.084-5.535-0.515-7.551-1.793c-2.016-1.28-3.277-3.113-3.784-5.501c-0.241-1.131-0.309-2.365-0.205-3.7
				c0.128-1.375,0.644-2.78,1.549-4.222c0.905-1.44,2.06-2.728,3.464-3.864c1.406-1.136,2.803-1.853,4.195-2.148
				c2.748-0.584,4.859,0.463,6.334,3.14c-1.811,1.206-3.061,2.128-3.748,2.769c-0.688,0.639-1.147,1.401-1.378,2.288
				c-0.231,0.889-0.184,2.102,0.144,3.643c0.415,0.733,1.502,0.912,3.264,0.538c2.842-0.604,6.011-2.065,9.507-4.387
				c3.493-2.319,5.523-4.426,6.091-6.322c-0.349-1.636-1.332-2.809-2.953-3.517c-1.62-0.709-4.172-1.549-7.654-2.519
				c-3.483-0.97-6.191-2.048-8.121-3.232C250.387,263.593,249.104,261.884,248.467,259.65z"/>
		</g>
		<g>
			<path fill="#FFFFFF" d="M302.638,260.105c-0.458,2.56-0.803,4.552-1.033,5.979c-0.229,1.427-0.517,3.268-0.861,5.524
				c-0.345,2.255-0.734,4.527-1.169,6.818c-0.436,2.291-0.828,4.278-1.181,5.961c-0.406,0.217-0.688,0.343-0.841,0.375
				c-0.836,0.178-1.833,0.013-2.991-0.497c-1.158-0.508-2.14-1.054-2.942-1.639c-2.635-0.686-4.115-1.799-4.442-3.337
				c1.405-6.009,3.301-13.285,5.686-21.832c0.825-2.963,1.77-6.199,2.834-9.707c1.065-3.507,1.935-6.179,2.612-8.013
				c0.676-1.833,1.175-2.915,1.492-3.245c0.238-0.247,0.543-0.411,0.914-0.489c0.34-0.072,0.827-0.061,1.461,0.033
				c0.635,0.096,1.109,0.125,1.426,0.092c0.371-0.079,0.869-0.324,1.492-0.735s1.151-0.663,1.585-0.756
				c0.494-0.104,0.946,0.045,1.355,0.45c-0.274,1.141-0.754,3.22-1.438,6.235c-0.684,3.018-1.423,6.423-2.215,10.218
				C303.588,255.335,303.006,258.191,302.638,260.105z M303.595,228.943c-1.079-0.983-1.801-2.34-2.168-4.066
				c-0.407-1.915-0.279-3.812,0.383-5.692c0.661-1.88,1.712-3.284,3.155-4.215l1.482-0.512c2.677-0.109,4.276,1.06,4.797,3.508
				c0.28,1.319,0.185,2.8-0.286,4.442c-0.472,1.643-1.215,3.097-2.232,4.361c-1.017,1.268-2.093,2.021-3.231,2.263
				C304.909,229.156,304.276,229.128,303.595,228.943z"/>
		</g>
		<g>
			<path fill="#FFFFFF" d="M342.191,225.466c0.126-0.322,0.41-0.81,0.853-1.461c0.442-0.652,0.707-1.15,0.796-1.498
				c1.791-0.381,3.286-0.634,4.488-0.759c0.865-0.184,1.509-0.188,1.935-0.017c0.424,0.173,0.698,0.327,0.824,0.465l-11.57,53.352
				c-0.237,0.247-0.526,0.408-0.865,0.479c-0.249,0.053-0.61,0.063-1.083,0.033c-0.476-0.029-0.876-0.092-1.203-0.188
				c-0.327-0.095-0.727-0.19-1.198-0.287c-0.328,0.137-0.907,0.488-1.737,1.059c-0.832,0.571-1.434,0.895-1.804,0.974
				c-0.556,0.118-0.894-0.104-1.014-0.67c-0.24-1.13,0.227-3.411,1.401-6.845c-0.665,1.422-2.08,3.158-4.244,5.21
				c-2.163,2.051-4.052,3.462-5.663,4.23c-0.593,0.257-1.118,0.435-1.582,0.532c-1.205,0.257-2.543,0.271-4.012,0.042
				c-1.471-0.229-2.791-0.712-3.965-1.447c-1.173-0.734-1.935-1.622-2.285-2.664c-0.556-1.095-0.978-2.318-1.265-3.669
				c-0.474-2.229-0.468-4.862,0.016-7.902c0.485-3.039,1.704-6.867,3.663-11.484c2.738-6.553,6.396-12.408,10.966-17.563
				c4.571-5.155,9.622-8.32,15.151-9.496C339.875,225.662,341.007,225.52,342.191,225.466z M339.767,233.658
				c-3.656,1.335-7.246,4.346-10.771,9.032c-3.524,4.688-6.236,9.775-8.138,15.265c-1.901,5.49-2.501,9.884-1.8,13.181
				c1.778-0.444,3.41-1.308,4.897-2.592s2.821-2.872,4.002-4.764c1.179-1.891,2.17-3.767,2.97-5.627
				c0.798-1.858,1.776-4.323,2.933-7.392C337.276,241.768,339.246,236.066,339.767,233.658z"/>
		</g>
	</g>
</g>
<g id="Spots" display="none">
</g>
</svg>
