<?xml version="1.0" standalone="yes"?><svg version="1.1" xmlns = 'http://www.w3.org/2000/svg'><defs><font id='web' horiz-adv-x="1000">
<font-face font-family="web" descent="-410" cap-height="1280" units-per-em="2048" bbox="-432,-567,2617,2058" x-height="944" ascent="1638" />
<missing-glyph horiz-adv-x="1024" d="" /><glyph horiz-adv-x="698" d="M 639 393 L 61 393 L 61 600 L 639 600 L 639 393 Z" unicode="‐" />
<glyph horiz-adv-x="1010" d="M 958 397 L 57 397 L 63 580 L 952 580 L 958 397 Z" unicode="–" />
<glyph horiz-adv-x="1972" d="M 1921 397 L 57 397 L 63 580 L 1915 580 L 1921 397 Z" unicode="—" />
<glyph horiz-adv-x="504" d="M 436 874 C 431 830 413 794 381 765 C 349 735 308 721 258 721 C 200 721 151 742 109 786 C 67 830 47 882 47 944 C 47 1034 80 1112 148 1179 C 215 1246 290 1304 373 1354 L 477 1257 C 413 1212 363 1170 327 1131 C 290 1091 272 1054 272 1020 C 272 993 283 969 307 948 C 331 926 374 902 436 874 Z" unicode="‘" />
<glyph horiz-adv-x="504" d="M 66 1214 C 70 1258 89 1294 122 1324 C 154 1353 196 1368 246 1368 C 302 1368 351 1346 393 1302 C 434 1258 455 1206 455 1145 C 455 1055 421 976 354 909 C 286 842 212 784 131 735 L 25 831 C 89 876 139 918 176 958 C 212 997 231 1034 231 1069 C 231 1095 219 1119 195 1141 C 171 1162 128 1186 66 1214 Z" unicode="’" />
<glyph horiz-adv-x="504" d="M 66 158 C 70 201 89 237 122 267 C 154 296 196 311 246 311 C 302 311 351 289 393 245 C 434 201 455 149 455 88 C 455 -1 421 -79 354 -147 C 286 -214 212 -272 131 -322 L 25 -225 C 89 -180 139 -138 176 -99 C 212 -59 231 -22 231 12 C 231 38 219 62 195 84 C 171 105 128 130 66 158 Z" unicode="‚" />
<glyph horiz-adv-x="997" d="M 436 874 C 431 830 413 794 381 765 C 349 735 308 721 258 721 C 200 721 151 742 109 786 C 67 830 47 882 47 944 C 47 1034 80 1112 148 1179 C 215 1246 290 1304 373 1354 L 477 1257 C 413 1212 363 1170 327 1131 C 290 1091 272 1054 272 1020 C 272 993 283 969 307 948 C 331 926 374 902 436 874 Z M 930 874 C 924 830 906 794 874 765 C 842 735 802 721 752 721 C 694 721 645 742 603 786 C 561 830 541 882 541 944 C 541 1034 574 1112 642 1179 C 709 1246 784 1304 866 1354 L 971 1257 C 907 1212 857 1170 821 1131 C 784 1091 766 1054 766 1020 C 766 993 777 969 801 948 C 825 926 868 902 930 874 Z" unicode="“" />
<glyph horiz-adv-x="997" d="M 66 1214 C 70 1258 89 1294 122 1324 C 154 1353 196 1368 246 1368 C 302 1368 351 1346 393 1302 C 434 1258 455 1206 455 1145 C 455 1055 421 976 354 909 C 286 842 212 784 131 735 L 25 831 C 89 876 139 918 176 958 C 212 997 231 1034 231 1069 C 231 1095 219 1119 195 1141 C 171 1162 128 1186 66 1214 Z M 559 1214 C 564 1258 583 1294 615 1324 C 647 1353 689 1368 739 1368 C 796 1368 845 1346 886 1302 C 927 1258 948 1206 948 1145 C 948 1055 914 976 847 909 C 780 842 706 784 625 735 L 518 831 C 582 876 632 918 669 958 C 706 997 725 1034 725 1069 C 725 1095 713 1119 689 1141 C 665 1162 622 1186 559 1214 Z" unicode="”" />
<glyph horiz-adv-x="977" d="M 66 158 C 70 201 89 237 122 267 C 154 296 196 311 246 311 C 302 311 351 289 393 245 C 434 201 455 149 455 88 C 455 -1 421 -79 354 -147 C 286 -214 212 -272 131 -322 L 25 -225 C 89 -180 139 -138 176 -99 C 212 -59 231 -22 231 12 C 231 38 219 62 195 84 C 171 105 128 130 66 158 Z M 559 158 C 564 201 583 237 615 267 C 647 296 689 311 739 311 C 796 311 845 289 886 245 C 927 201 948 149 948 88 C 948 -1 914 -79 847 -147 C 780 -214 706 -272 625 -322 L 518 -225 C 582 -180 632 -138 669 -99 C 706 -59 725 -22 725 12 C 725 38 713 62 689 84 C 665 105 622 130 559 158 Z" unicode="„" />
<glyph horiz-adv-x="467" d="" unicode=" " />
<glyph horiz-adv-x="594" d="M 459 123 C 459 78 444 41 414 12 C 384 -16 345 -31 299 -31 C 250 -31 210 -16 179 12 C 148 41 133 78 133 123 C 133 167 148 203 179 231 C 210 258 250 272 299 272 C 345 272 384 258 414 231 C 444 203 459 167 459 123 Z M 215 420 L 154 1335 L 442 1335 L 383 420 L 215 420 Z" unicode="!" />
<glyph horiz-adv-x="1024" d="M 268 815 L 131 815 L 367 1321 L 582 1247 L 268 815 Z M 637 815 L 500 815 L 735 1321 L 948 1247 L 637 815 Z" unicode="&#x22;" />
<glyph horiz-adv-x="1210" d="M 313 733 L 76 733 L 76 907 L 360 907 L 469 1315 L 647 1315 L 537 907 L 846 907 L 956 1315 L 1135 1315 L 1024 907 L 1182 907 L 1182 733 L 977 733 L 903 459 L 1141 459 L 1141 285 L 858 285 L 741 -152 L 563 -152 L 680 285 L 371 285 L 254 -152 L 76 -152 L 193 285 L 35 285 L 35 459 L 238 459 L 313 733 Z M 803 739 L 492 739 L 414 453 L 723 453 L 803 739 Z" unicode="#" />
<glyph horiz-adv-x="1024" d="M 551 1309 L 578 1495 L 696 1495 L 668 1296 C 715 1287 760 1274 804 1258 C 847 1241 888 1221 926 1198 L 866 993 C 831 1014 794 1033 755 1049 C 716 1065 677 1079 637 1090 L 588 750 C 677 723 760 682 837 627 C 913 571 952 485 952 367 C 952 250 909 154 825 80 C 741 6 627 -31 485 -31 L 457 -31 L 424 -252 L 303 -252 C 303 -252 308 -213 320 -135 C 331 -57 336 -18 336 -18 C 282 -9 230 4 180 22 C 130 40 85 62 45 88 L 102 297 C 140 272 182 250 227 230 C 272 210 319 195 367 184 L 420 557 C 335 582 255 621 179 675 C 103 728 66 814 66 934 C 66 1047 105 1138 185 1207 C 264 1276 370 1311 504 1311 C 512 1311 519 1310 527 1310 C 535 1310 543 1309 551 1309 Z M 473 782 L 520 1104 C 518 1104 515 1105 512 1105 C 509 1105 506 1106 504 1106 C 430 1106 376 1091 342 1062 C 308 1032 291 995 291 950 C 291 906 307 872 339 848 C 371 823 415 801 473 782 Z M 485 172 L 496 172 C 565 172 621 187 664 219 C 707 250 729 293 729 348 C 729 392 712 427 680 453 C 647 479 599 502 537 522 L 485 172 Z" unicode="$" />
<glyph horiz-adv-x="1610" d="M 733 979 C 733 881 701 798 638 732 C 575 666 489 633 381 633 C 273 633 188 666 126 732 C 64 798 33 881 33 979 C 33 1079 64 1162 127 1229 C 189 1295 275 1329 383 1329 C 492 1329 578 1295 640 1229 C 702 1162 733 1079 733 979 Z M 571 979 C 571 1042 554 1094 520 1134 C 486 1174 441 1194 383 1194 C 323 1194 277 1173 243 1133 C 209 1092 193 1041 193 979 C 193 919 209 868 243 828 C 277 788 323 768 383 768 C 441 768 486 788 520 828 C 554 868 571 919 571 979 Z M 1577 299 C 1577 199 1545 115 1483 49 C 1420 -17 1335 -51 1227 -51 C 1117 -51 1032 -17 971 49 C 909 115 879 199 879 299 C 879 397 910 479 972 545 C 1034 611 1119 645 1229 645 C 1337 645 1422 611 1484 545 C 1546 479 1577 397 1577 299 Z M 1415 299 C 1415 359 1398 409 1364 449 C 1330 489 1285 510 1227 510 C 1169 510 1123 489 1089 449 C 1055 408 1038 358 1038 299 C 1038 235 1055 184 1089 144 C 1123 104 1169 84 1229 84 C 1285 84 1330 104 1364 144 C 1398 184 1415 235 1415 299 Z M 1417 1309 L 377 -31 L 195 -31 L 1235 1309 L 1417 1309 Z" unicode="%" />
<glyph horiz-adv-x="1311" d="M 885 231 C 823 149 754 84 680 38 C 605 -7 526 -31 444 -31 C 323 -31 226 3 154 71 C 81 139 45 224 45 326 C 45 412 75 486 135 546 C 195 606 264 646 344 668 C 282 701 233 742 197 792 C 161 842 143 899 143 965 C 143 1048 177 1126 247 1199 C 317 1272 416 1309 545 1309 C 661 1309 753 1278 821 1217 C 889 1156 924 1083 924 997 C 924 927 899 866 850 816 C 801 766 744 729 678 705 C 709 689 745 664 786 630 C 826 596 864 560 899 524 L 1059 786 L 1323 786 L 1020 395 L 1329 16 L 1077 -27 L 885 231 Z M 786 354 C 734 412 680 463 625 507 C 570 551 517 582 465 600 C 409 572 364 538 329 498 C 293 457 276 412 276 362 C 276 305 295 257 333 219 C 371 181 423 162 487 162 C 545 162 599 179 649 214 C 699 249 744 296 786 354 Z M 555 766 C 599 788 635 816 663 849 C 691 882 705 923 705 971 C 705 1019 689 1058 658 1088 C 626 1118 585 1133 535 1133 C 483 1133 442 1117 412 1086 C 382 1054 367 1019 367 979 C 367 928 383 886 416 853 C 449 820 495 791 555 766 Z" unicode="&#x26;" />
<glyph horiz-adv-x="512" d="M 197 815 L 59 815 L 295 1321 L 510 1247 L 197 815 Z" unicode="'" />
<glyph horiz-adv-x="1024" d="M 825 -535 C 691 -466 559 -345 429 -173 C 298 0 233 212 233 465 C 233 717 298 930 429 1103 C 559 1276 691 1396 823 1464 L 942 1305 C 826 1237 717 1131 613 985 C 509 839 457 665 457 465 C 457 265 509 91 613 -54 C 717 -200 826 -307 942 -375 L 825 -535 Z" unicode="(" />
<glyph horiz-adv-x="1024" d="M 201 -535 L 82 -375 C 198 -307 307 -200 411 -54 C 515 91 567 265 567 465 C 567 665 515 839 411 985 C 307 1131 198 1237 82 1305 L 203 1464 C 334 1396 465 1276 595 1103 C 725 930 791 717 791 465 C 791 212 725 0 595 -173 C 464 -345 333 -466 201 -535 Z" unicode=")" />
<glyph horiz-adv-x="1024" d="M 492 881 L 287 639 L 154 815 L 451 936 L 451 950 L 158 1073 L 287 1251 L 492 1004 L 504 1008 L 535 1325 L 741 1257 L 567 985 L 575 975 L 881 1049 L 881 831 L 575 907 L 567 897 L 735 623 L 528 559 L 504 879 L 492 881 Z" unicode="*" />
<glyph horiz-adv-x="1024" d="M 954 389 L 612 389 L 612 41 L 416 41 L 416 389 L 70 389 L 76 582 L 416 582 L 416 928 L 612 928 L 612 582 L 948 582 L 954 389 Z" unicode="+" />
<glyph horiz-adv-x="512" d="M 68 145 C 72 189 91 225 124 255 C 156 284 198 299 248 299 C 304 299 353 277 395 233 C 436 189 457 136 457 74 C 457 -14 423 -92 356 -159 C 288 -226 214 -284 133 -334 L 27 -238 C 91 -192 141 -150 178 -111 C 214 -71 233 -34 233 0 C 233 26 221 50 197 72 C 173 93 130 117 68 145 Z" unicode="," />
<glyph horiz-adv-x="698" d="M 639 393 L 61 393 L 61 600 L 639 600 L 639 393 Z" unicode="-" />
<glyph horiz-adv-x="512" d="M 420 129 C 420 84 405 46 375 15 C 345 -15 306 -31 260 -31 C 212 -31 172 -15 142 15 C 111 46 96 84 96 129 C 96 173 111 211 142 241 C 172 271 212 287 260 287 C 306 287 345 271 375 241 C 405 211 420 173 420 129 Z" unicode="." />
<glyph horiz-adv-x="516" d="M 584 1438 L 86 -408 L -104 -408 L 393 1438 L 584 1438 Z" unicode="/" />
<glyph horiz-adv-x="1024" d="M 963 639 C 963 430 922 266 842 147 C 761 28 649 -31 506 -31 C 363 -31 253 27 176 145 C 99 263 61 426 61 635 C 61 841 101 1004 181 1124 C 261 1243 373 1303 516 1303 C 658 1303 768 1244 846 1126 C 924 1008 963 845 963 639 Z M 737 631 C 737 809 714 934 670 1007 C 625 1079 571 1116 508 1116 C 446 1116 393 1080 350 1009 C 306 937 285 813 285 635 C 285 461 307 339 353 267 C 398 195 452 160 516 160 C 579 160 632 195 674 266 C 716 336 737 458 737 631 Z" unicode="0" />
<glyph horiz-adv-x="1024" d="M 475 0 L 475 1028 L 170 954 L 164 1161 L 711 1292 L 711 0 L 475 0 Z" unicode="1" />
<glyph horiz-adv-x="1024" d="M 934 0 L 84 0 L 78 193 C 267 373 410 511 508 607 C 606 703 655 800 655 899 C 655 957 636 1004 598 1041 C 560 1077 511 1096 451 1096 C 397 1096 345 1083 295 1059 C 244 1034 198 1004 158 969 L 80 1155 C 126 1193 185 1227 257 1256 C 328 1285 403 1300 481 1300 C 609 1300 711 1264 785 1193 C 859 1122 897 1032 897 924 C 897 808 849 699 755 597 C 661 495 522 363 340 203 L 926 203 L 934 0 Z" unicode="2" />
<glyph horiz-adv-x="1024" d="M 563 670 C 688 672 781 642 841 580 C 901 518 932 447 932 367 C 932 244 884 147 790 76 C 695 4 580 -31 446 -31 C 379 -31 312 -22 246 -5 C 179 11 122 31 76 55 L 115 250 C 157 229 208 209 267 191 C 326 173 385 164 444 164 C 513 164 574 180 627 214 C 680 247 707 295 707 358 C 707 412 683 457 636 493 C 589 529 520 547 430 547 C 398 547 365 544 331 540 C 296 536 265 532 238 528 L 238 705 C 363 732 464 764 540 800 C 616 836 655 886 655 950 C 655 994 638 1030 606 1059 C 573 1087 524 1102 459 1102 C 409 1102 356 1091 300 1069 C 244 1047 196 1019 156 985 L 80 1174 C 130 1208 189 1238 259 1264 C 328 1290 401 1303 477 1303 C 595 1303 692 1275 768 1221 C 844 1166 883 1087 883 985 C 883 911 855 847 800 793 C 745 739 666 698 563 670 Z" unicode="3" />
<glyph horiz-adv-x="1024" d="M 999 313 L 823 313 L 823 0 L 614 0 L 614 313 L 59 313 L 43 473 L 559 1282 L 823 1282 L 823 502 L 993 502 L 999 313 Z M 618 498 L 618 1067 L 256 498 L 618 498 Z" unicode="4" />
<glyph horiz-adv-x="1024" d="M 346 762 C 361 764 380 767 402 770 C 424 772 449 774 477 774 C 610 774 717 740 799 673 C 881 605 922 513 922 397 C 922 273 880 170 796 90 C 712 9 597 -31 451 -31 C 388 -31 323 -23 256 -8 C 188 7 132 27 86 51 L 115 258 C 154 233 204 212 265 194 C 326 176 386 168 444 168 C 515 168 574 186 621 224 C 668 262 692 317 692 389 C 692 452 668 503 621 541 C 574 579 508 598 424 598 C 368 598 316 592 269 582 C 221 572 183 560 154 547 L 117 586 L 203 1274 L 895 1274 L 901 1067 L 385 1067 L 346 762 Z" unicode="5" />
<glyph horiz-adv-x="1024" d="M 66 516 C 66 697 127 862 250 1012 C 372 1162 550 1259 784 1305 L 840 1124 C 699 1094 580 1040 484 964 C 387 887 324 794 295 684 L 303 680 C 343 714 389 744 443 768 C 497 792 553 805 612 805 C 711 805 794 769 862 698 C 929 626 963 532 963 414 C 963 289 923 184 845 98 C 766 12 658 -31 522 -31 C 372 -31 259 22 182 128 C 104 234 66 364 66 516 Z M 293 446 C 293 370 313 302 353 244 C 393 185 452 156 530 156 C 592 156 643 178 681 223 C 719 267 739 325 739 395 C 739 464 720 518 683 558 C 646 598 597 618 535 618 C 487 618 443 608 401 589 C 359 569 326 548 303 526 C 300 514 298 501 296 487 C 294 473 293 459 293 446 Z" unicode="6" />
<glyph horiz-adv-x="1024" d="M 715 1067 L 70 1067 L 76 1274 L 938 1274 L 950 1092 L 397 0 L 172 0 L 715 1067 Z" unicode="7" />
<glyph horiz-adv-x="1024" d="M 965 346 C 965 244 926 155 850 81 C 774 6 660 -31 508 -31 C 365 -31 254 2 175 69 C 96 135 57 220 57 322 C 57 400 83 465 135 517 C 187 569 245 607 311 633 C 248 663 194 702 148 748 C 102 794 80 854 80 928 C 80 1036 118 1125 194 1196 C 270 1267 379 1303 522 1303 C 658 1303 763 1269 835 1201 C 907 1133 944 1050 944 950 C 944 878 921 818 877 768 C 833 718 780 679 719 651 C 784 619 841 580 891 533 C 940 485 965 423 965 346 Z M 741 330 C 741 392 713 443 658 483 C 602 523 535 556 455 580 C 403 554 361 521 330 482 C 298 443 283 399 283 350 C 283 291 304 243 348 206 C 391 168 448 150 520 150 C 591 150 646 166 684 198 C 722 230 741 274 741 330 Z M 725 930 C 725 990 705 1038 665 1075 C 625 1111 575 1130 516 1130 C 448 1130 395 1111 359 1075 C 323 1039 305 996 305 946 C 305 890 330 842 381 803 C 432 764 497 734 575 713 C 621 736 657 766 684 804 C 711 842 725 884 725 930 Z" unicode="8" />
<glyph horiz-adv-x="1024" d="M 956 756 C 956 574 894 409 772 259 C 649 109 471 11 238 -35 L 184 147 C 324 177 443 231 539 307 C 635 383 697 476 727 588 L 721 592 C 680 556 633 526 580 502 C 526 478 470 467 410 467 C 312 467 229 502 162 573 C 94 643 61 738 61 856 C 61 981 100 1087 178 1173 C 256 1259 363 1303 500 1303 C 649 1303 762 1249 840 1142 C 917 1035 956 906 956 756 Z M 729 825 C 729 901 708 969 668 1027 C 628 1085 570 1114 494 1114 C 430 1114 379 1091 341 1047 C 302 1003 283 945 283 874 C 283 806 301 752 338 712 C 375 672 425 653 487 653 C 534 653 579 662 621 682 C 663 702 696 723 721 745 C 723 757 724 770 726 784 C 728 797 729 811 729 825 Z" unicode="9" />
<glyph horiz-adv-x="512" d="M 420 129 C 420 84 405 46 375 15 C 345 -15 306 -31 260 -31 C 212 -31 172 -15 142 15 C 111 46 96 84 96 129 C 96 173 111 211 142 241 C 172 271 212 287 260 287 C 306 287 345 271 375 241 C 405 211 420 173 420 129 Z M 420 733 C 420 688 405 650 375 619 C 345 588 306 573 260 573 C 212 573 172 588 142 619 C 111 650 96 688 96 733 C 96 777 111 815 142 845 C 172 875 212 891 260 891 C 306 891 345 875 375 845 C 405 815 420 777 420 733 Z" unicode=":" />
<glyph horiz-adv-x="512" d="M 68 145 C 72 189 91 225 124 255 C 156 284 198 299 248 299 C 304 299 353 277 395 233 C 436 189 457 136 457 74 C 457 -14 423 -92 356 -159 C 288 -226 214 -284 133 -334 L 27 -238 C 91 -192 141 -150 178 -111 C 214 -71 233 -34 233 0 C 233 26 221 50 197 72 C 173 93 130 117 68 145 Z M 420 733 C 420 688 405 650 375 619 C 345 588 306 573 260 573 C 212 573 172 588 142 619 C 111 650 96 688 96 733 C 96 777 111 815 142 845 C 172 875 212 891 260 891 C 306 891 345 875 375 845 C 405 815 420 777 420 733 Z" unicode=";" />
<glyph horiz-adv-x="1024" d="M 915 227 L 915 20 L 92 401 L 92 563 L 913 944 L 913 737 L 358 492 L 358 471 L 915 227 Z" unicode="&#x3C;" />
<glyph horiz-adv-x="1024" d="M 934 180 L 92 180 L 102 371 L 924 371 L 934 180 Z M 924 590 L 102 590 L 92 780 L 934 780 L 924 590 Z" unicode="=" />
<glyph horiz-adv-x="1024" d="M 913 401 L 92 20 L 92 227 L 647 471 L 647 492 L 92 737 L 92 944 L 913 563 L 913 401 Z" unicode="&#x3E;" />
<glyph horiz-adv-x="793" d="M 719 950 C 719 864 695 802 649 762 C 603 722 550 692 492 672 C 450 657 415 643 387 629 C 359 615 343 595 340 569 C 340 547 353 522 381 494 C 408 466 432 443 453 424 C 453 424 430 419 386 409 C 341 399 317 395 313 395 C 267 417 228 450 196 492 C 163 534 147 579 147 627 C 147 687 167 732 207 763 C 247 794 295 819 352 838 C 400 853 438 869 468 885 C 497 901 512 926 512 958 C 512 998 491 1031 450 1058 C 409 1084 350 1098 274 1098 C 244 1098 213 1095 180 1089 C 146 1083 118 1077 96 1071 L 102 1282 C 126 1289 153 1295 185 1301 C 216 1306 252 1309 293 1309 C 418 1309 520 1274 600 1204 C 679 1134 719 1049 719 950 Z M 500 123 C 500 78 485 41 455 12 C 425 -16 386 -31 338 -31 C 291 -31 252 -16 221 12 C 189 41 174 78 174 123 C 174 167 189 203 221 231 C 252 258 291 272 338 272 C 386 272 425 258 455 231 C 485 203 500 167 500 123 Z" unicode="?" />
<glyph horiz-adv-x="1726" d="M 1171 416 C 1158 347 1161 295 1180 260 C 1198 224 1236 207 1292 207 C 1363 207 1427 243 1485 316 C 1542 388 1571 493 1571 629 C 1571 813 1501 960 1363 1072 C 1224 1183 1069 1239 897 1239 C 697 1239 526 1164 386 1016 C 246 868 176 695 176 498 C 176 309 237 148 361 14 C 485 -119 643 -186 836 -186 C 879 -186 922 -182 965 -175 C 1008 -167 1050 -157 1092 -145 L 1116 -223 C 1068 -238 1021 -250 976 -258 C 930 -266 882 -270 831 -270 C 615 -270 436 -195 295 -47 C 154 101 84 282 84 496 C 84 720 162 913 320 1076 C 477 1239 669 1321 897 1321 C 1099 1321 1278 1258 1432 1134 C 1586 1009 1663 841 1663 629 C 1663 451 1619 316 1533 222 C 1446 128 1348 82 1239 82 C 1177 82 1124 96 1080 124 C 1036 152 1004 192 985 244 C 949 202 910 171 867 151 C 823 131 781 121 739 121 C 657 121 588 152 532 214 C 476 276 449 357 449 457 C 449 588 490 699 574 790 C 657 880 760 926 883 926 C 912 926 943 921 976 912 C 1008 903 1038 893 1065 881 L 1272 926 L 1171 416 Z M 963 338 L 1038 709 C 1020 726 997 741 971 754 C 945 767 916 774 885 774 C 813 774 756 742 712 680 C 668 618 647 549 647 475 C 647 413 663 364 696 328 C 728 292 768 274 815 274 C 845 274 872 280 896 293 C 920 305 942 320 963 338 Z" unicode="@" />
<glyph horiz-adv-x="1247" d="M 778 1280 L 1239 0 L 987 0 L 881 303 L 365 303 L 260 0 L 8 0 L 475 1280 L 778 1280 Z M 817 510 L 625 1065 L 430 510 L 817 510 Z" unicode="A" />
<glyph horiz-adv-x="1214" d="M 872 664 C 956 645 1022 610 1070 558 C 1118 506 1143 442 1143 367 C 1143 261 1106 174 1032 104 C 958 34 829 0 645 0 L 147 0 L 147 1280 L 637 1280 C 809 1280 929 1247 998 1183 C 1067 1119 1102 1038 1102 942 C 1102 874 1082 816 1042 770 C 1002 723 945 688 872 664 Z M 891 377 C 891 440 865 484 815 510 C 765 536 701 549 623 549 L 393 549 L 393 201 L 641 201 C 724 201 786 215 828 245 C 870 275 891 319 891 377 Z M 852 909 C 852 963 832 1004 794 1034 C 756 1064 701 1079 629 1079 L 393 1079 L 393 731 L 608 731 C 687 731 747 747 789 779 C 831 811 852 854 852 909 Z" unicode="B" />
<glyph horiz-adv-x="1243" d="M 1167 1210 L 1090 993 C 1038 1027 985 1052 929 1070 C 873 1087 814 1096 754 1096 C 629 1096 528 1055 452 974 C 376 893 338 783 338 645 C 338 504 375 392 451 309 C 527 225 629 184 758 184 C 823 184 886 195 947 217 C 1007 239 1061 266 1108 299 L 1155 70 C 1104 39 1041 14 967 -3 C 893 -21 820 -31 748 -31 C 552 -31 392 28 270 146 C 147 264 86 428 86 637 C 86 841 147 1004 271 1127 C 394 1249 555 1311 754 1311 C 828 1311 901 1301 975 1283 C 1048 1265 1112 1240 1167 1210 Z" unicode="C" />
<glyph horiz-adv-x="1356" d="M 1272 649 C 1272 452 1210 295 1088 177 C 966 59 791 0 565 0 L 147 0 L 147 1280 L 582 1280 C 798 1280 967 1222 1089 1106 C 1211 990 1272 838 1272 649 Z M 1022 637 C 1022 780 982 888 904 960 C 825 1032 713 1069 567 1069 L 397 1069 L 397 211 L 580 211 C 714 211 821 246 901 317 C 981 388 1022 495 1022 637 Z" unicode="D" />
<glyph horiz-adv-x="1114" d="M 1020 0 L 147 0 L 147 1280 L 1020 1280 L 1020 1069 L 393 1069 L 393 748 L 907 748 L 907 537 L 393 537 L 393 211 L 1020 211 L 1020 0 Z" unicode="E" />
<glyph horiz-adv-x="1061" d="M 147 0 L 147 1280 L 999 1280 L 999 1063 L 395 1063 L 395 725 L 887 725 L 887 510 L 395 510 L 395 0 L 147 0 Z" unicode="F" />
<glyph horiz-adv-x="1346" d="M 1231 90 C 1162 51 1085 21 1000 0 C 914 -20 832 -31 752 -31 C 556 -31 396 28 272 148 C 148 267 86 430 86 637 C 86 843 147 1006 271 1128 C 395 1250 556 1311 754 1311 C 831 1311 911 1301 995 1281 C 1079 1261 1149 1234 1206 1200 L 1126 983 C 1070 1017 1010 1045 947 1065 C 884 1085 821 1096 758 1096 C 631 1096 529 1055 453 973 C 376 891 338 782 338 645 C 338 502 375 389 450 305 C 524 221 627 180 758 180 C 802 180 846 185 888 195 C 930 205 967 217 999 231 L 999 477 L 664 477 L 664 688 L 1231 688 L 1231 90 Z" unicode="G" />
<glyph horiz-adv-x="1403" d="M 1253 0 L 1006 0 L 1006 537 L 397 537 L 397 0 L 147 0 L 147 1280 L 397 1280 L 397 754 L 1006 754 L 1006 1280 L 1253 1280 L 1253 0 Z" unicode="H" />
<glyph horiz-adv-x="551" d="M 399 0 L 152 0 L 152 1280 L 399 1280 L 399 0 Z" unicode="I" />
<glyph horiz-adv-x="911" d="M 768 420 C 768 282 734 173 666 91 C 598 9 492 -31 346 -31 C 284 -31 225 -22 167 -6 C 109 9 62 29 25 53 L 70 268 C 110 242 151 222 193 207 C 235 191 278 184 322 184 C 390 184 440 204 472 245 C 504 285 520 349 520 436 L 520 1280 L 768 1280 L 768 420 Z" unicode="J" />
<glyph horiz-adv-x="1202" d="M 397 692 L 399 692 L 883 1280 L 1180 1280 L 631 651 L 1188 0 L 883 0 L 399 586 L 397 586 L 397 0 L 147 0 L 147 1280 L 397 1280 L 397 692 Z" unicode="K" />
<glyph horiz-adv-x="1038" d="M 975 0 L 147 0 L 147 1280 L 397 1280 L 397 219 L 975 219 L 975 0 Z" unicode="L" />
<glyph horiz-adv-x="1661" d="M 1305 0 L 1294 1026 L 961 18 L 698 18 L 362 1026 L 350 0 L 115 0 L 158 1280 L 504 1280 L 834 272 L 1163 1280 L 1505 1280 L 1546 0 L 1305 0 Z" unicode="M" />
<glyph horiz-adv-x="1411" d="M 1026 348 L 1026 1280 L 1264 1280 L 1264 -12 L 997 -12 L 385 930 L 385 0 L 147 0 L 147 1280 L 420 1280 L 1026 348 Z" unicode="N" />
<glyph horiz-adv-x="1487" d="M 1401 645 C 1401 448 1338 286 1213 159 C 1088 32 931 -31 743 -31 C 555 -31 398 28 273 146 C 148 264 86 428 86 637 C 86 833 148 995 274 1121 C 400 1247 557 1311 745 1311 C 933 1311 1089 1252 1214 1134 C 1338 1016 1401 853 1401 645 Z M 1151 637 C 1151 776 1113 888 1038 974 C 963 1059 863 1102 739 1102 C 617 1102 520 1059 447 975 C 374 890 338 780 338 645 C 338 505 375 393 449 307 C 523 221 623 178 748 178 C 868 178 966 220 1040 306 C 1114 391 1151 501 1151 637 Z" unicode="O" />
<glyph horiz-adv-x="1159" d="M 1090 852 C 1090 705 1041 593 944 516 C 847 439 713 400 543 399 L 397 397 L 397 0 L 147 0 L 147 1280 L 561 1280 C 737 1280 870 1239 958 1159 C 1046 1078 1090 976 1090 852 Z M 840 844 C 840 918 815 974 765 1013 C 715 1051 642 1071 545 1071 L 393 1071 L 393 604 L 553 608 C 647 610 719 631 767 671 C 815 711 840 769 840 844 Z" unicode="P" />
<glyph horiz-adv-x="1487" d="M 1067 59 L 1446 -117 L 1343 -326 L 784 -29 C 778 -29 771 -29 764 -30 C 756 -30 749 -31 743 -31 C 555 -31 398 28 273 146 C 148 264 86 428 86 637 C 86 833 148 995 274 1121 C 400 1247 557 1311 745 1311 C 933 1311 1089 1252 1214 1134 C 1338 1016 1401 853 1401 645 C 1401 513 1370 396 1309 294 C 1248 191 1167 113 1067 59 Z M 1151 637 C 1151 776 1113 888 1038 974 C 963 1059 863 1102 739 1102 C 617 1102 520 1059 447 975 C 374 890 338 780 338 645 C 338 505 375 392 449 305 C 523 217 623 174 748 174 C 868 174 966 216 1040 302 C 1114 388 1151 499 1151 637 Z" unicode="Q" />
<glyph horiz-adv-x="1190" d="M 397 457 L 397 0 L 147 0 L 147 1280 L 596 1280 C 756 1280 879 1244 964 1173 C 1049 1102 1092 1008 1092 891 C 1092 800 1067 723 1018 661 C 969 598 901 552 815 522 L 1151 0 L 866 0 L 582 469 L 397 457 Z M 395 653 L 582 657 C 658 661 719 681 766 717 C 812 753 836 805 836 874 C 836 940 811 990 763 1022 C 714 1054 645 1071 557 1071 L 395 1071 L 395 653 Z" unicode="R" />
<glyph horiz-adv-x="1098" d="M 532 180 C 601 180 658 195 703 227 C 747 258 770 299 770 350 C 770 403 746 443 698 469 C 650 495 579 521 485 547 C 393 572 304 611 218 664 C 131 717 88 806 88 932 C 88 1044 129 1136 211 1206 C 293 1276 405 1311 547 1311 C 633 1311 713 1300 786 1280 C 858 1260 925 1232 987 1198 L 926 987 C 870 1021 808 1048 740 1068 C 672 1088 609 1098 549 1098 C 474 1098 419 1083 385 1055 C 351 1026 334 990 334 946 C 334 894 360 854 413 828 C 466 802 537 777 625 754 C 720 727 809 686 892 632 C 974 578 1016 490 1016 369 C 1016 252 972 156 884 81 C 796 6 678 -31 528 -31 C 444 -31 361 -20 280 1 C 198 22 128 51 68 88 L 125 303 C 184 267 248 238 316 215 C 384 191 456 180 532 180 Z" unicode="S" />
<glyph horiz-adv-x="1190" d="M 1147 1061 L 719 1061 L 719 0 L 471 0 L 471 1061 L 43 1061 L 43 1280 L 1147 1280 L 1147 1061 Z" unicode="T" />
<glyph horiz-adv-x="1350" d="M 1208 508 C 1208 334 1161 201 1067 108 C 973 15 842 -31 674 -31 C 510 -31 381 13 285 102 C 189 191 141 319 141 485 L 141 1280 L 391 1280 L 391 518 C 391 413 414 332 462 274 C 510 216 583 188 682 188 C 770 188 839 213 888 265 C 936 317 961 398 961 508 L 961 1280 L 1208 1280 L 1208 508 Z" unicode="U" />
<glyph horiz-adv-x="1227" d="M 1221 1280 L 762 0 L 459 0 L 4 1280 L 262 1280 L 612 252 L 963 1280 L 1221 1280 Z" unicode="V" />
<glyph horiz-adv-x="1898" d="M 950 989 L 662 0 L 408 0 L 55 1280 L 322 1280 L 545 305 L 811 1280 L 1098 1280 L 1368 305 L 1589 1280 L 1843 1280 L 1491 0 L 1233 0 L 950 989 Z" unicode="W" />
<glyph horiz-adv-x="1247" d="M 618 481 L 305 0 L 23 0 L 473 643 L 37 1280 L 328 1280 L 623 821 L 928 1280 L 1210 1280 L 770 653 L 1225 0 L 932 0 L 618 481 Z" unicode="X" />
<glyph horiz-adv-x="1180" d="M 1159 1280 L 715 496 L 715 0 L 467 0 L 467 498 L 20 1280 L 291 1280 L 594 727 L 891 1280 L 1159 1280 Z" unicode="Y" />
<glyph horiz-adv-x="1128" d="M 1049 0 L 55 0 L 55 172 L 737 1063 L 68 1063 L 68 1280 L 1051 1280 L 1051 1104 L 371 217 L 1049 217 L 1049 0 Z" unicode="Z" />
<glyph horiz-adv-x="1024" d="M 897 -438 L 266 -438 L 266 1399 L 897 1399 L 897 1217 L 481 1217 L 481 -254 L 897 -254 L 897 -438 Z" unicode="[" />
<glyph horiz-adv-x="522" d="M -61 1438 L 129 1438 L 627 -408 L 436 -408 L -61 1438 Z" unicode="\" />
<glyph horiz-adv-x="1024" d="M 129 -438 L 129 -254 L 545 -254 L 545 1217 L 129 1217 L 129 1399 L 758 1399 L 758 -438 L 129 -438 Z" unicode="]" />
<glyph horiz-adv-x="811" d="M 766 1071 L 596 1071 L 412 1313 L 408 1313 L 225 1071 L 53 1071 L 293 1454 L 526 1454 L 766 1071 Z" unicode="^" />
<glyph horiz-adv-x="1028" d="M 1049 -180 L -20 -180 L -20 0 L 1049 0 L 1049 -180 Z" unicode="_" />
<glyph horiz-adv-x="809" d="M 586 1071 L 424 1071 L 102 1446 L 375 1446 L 586 1071 Z" unicode="`" />
<glyph horiz-adv-x="985" d="M 633 109 L 625 109 C 591 67 552 34 510 8 C 467 -18 416 -31 358 -31 C 274 -31 204 -5 149 46 C 93 98 66 161 66 236 C 66 322 105 397 184 463 C 262 528 409 564 625 571 L 625 594 C 625 657 610 703 581 731 C 551 759 503 774 436 774 C 388 774 336 764 281 745 C 225 726 173 702 123 674 L 74 864 C 120 892 178 918 248 941 C 318 963 391 975 469 975 C 613 975 716 942 778 877 C 840 812 869 715 866 586 L 866 248 C 866 212 871 189 881 179 C 891 169 914 164 950 162 L 932 -20 C 842 -30 774 -23 728 1 C 682 25 650 61 633 109 Z M 625 227 L 625 444 C 507 430 424 409 376 383 C 327 356 303 318 303 268 C 303 232 315 203 341 180 C 367 156 401 145 444 145 C 482 145 516 152 547 168 C 577 184 603 203 625 227 Z" unicode="a" />
<glyph horiz-adv-x="1116" d="M 1049 481 C 1049 331 1002 209 910 114 C 818 18 705 -29 571 -29 C 541 -29 506 -26 466 -20 C 426 -14 390 -6 360 4 L 129 -31 L 129 1368 L 371 1401 L 371 854 C 402 884 439 912 483 937 C 527 962 577 975 635 975 C 759 975 859 928 935 836 C 1011 744 1049 625 1049 481 Z M 803 471 C 803 563 782 636 740 690 C 698 744 639 772 565 772 C 525 772 490 764 458 750 C 426 736 397 717 371 694 L 371 217 C 393 199 419 186 449 177 C 479 168 513 164 549 164 C 629 164 692 193 736 252 C 780 310 803 383 803 471 Z" unicode="b" />
<glyph horiz-adv-x="963" d="M 891 47 C 850 22 801 3 744 -10 C 686 -24 626 -31 563 -31 C 410 -31 290 13 204 103 C 117 193 74 315 74 469 C 74 621 120 744 212 836 C 304 928 423 975 571 975 C 635 975 695 968 750 954 C 805 940 854 920 897 895 L 846 700 C 807 724 766 743 722 756 C 678 769 634 776 590 776 C 503 776 437 748 391 693 C 345 638 322 565 322 475 C 322 379 346 304 396 250 C 446 196 510 170 590 170 C 638 170 685 176 730 189 C 774 202 815 220 852 244 L 891 47 Z" unicode="c" />
<glyph horiz-adv-x="1122" d="M 752 944 L 752 1368 L 993 1401 L 993 0 L 752 0 L 752 92 C 720 61 682 33 638 7 C 594 -18 543 -31 485 -31 C 361 -31 261 15 186 107 C 111 199 74 319 74 465 C 74 615 120 737 212 832 C 304 927 417 975 551 975 C 584 975 618 972 654 966 C 689 960 722 953 752 944 Z M 752 727 C 728 744 701 757 671 767 C 641 777 609 782 573 782 C 493 782 430 752 386 693 C 341 634 319 561 319 475 C 319 383 340 310 384 256 C 427 201 485 174 557 174 C 597 174 632 180 664 194 C 696 208 725 227 752 252 L 752 727 Z" unicode="d" />
<glyph horiz-adv-x="1022" d="M 311 426 L 311 420 C 316 343 344 281 394 233 C 444 185 510 162 594 162 C 644 162 695 169 747 185 C 799 200 846 221 889 248 L 920 47 C 874 22 822 3 762 -10 C 702 -24 640 -31 578 -31 C 426 -31 304 13 212 103 C 120 193 74 313 74 463 C 74 615 120 739 212 833 C 304 927 420 975 561 975 C 685 975 781 940 849 870 C 916 800 950 707 950 592 C 950 566 948 539 944 509 C 940 479 936 454 930 434 C 928 434 825 432 619 430 C 413 427 311 426 311 426 Z M 317 567 L 723 569 L 723 586 C 723 648 708 698 679 736 C 650 774 605 793 543 793 C 476 793 423 769 385 723 C 346 677 323 625 317 567 Z" unicode="e" />
<glyph horiz-adv-x="702" d="M 737 1378 C 737 1377 728 1342 711 1273 C 694 1204 686 1170 686 1171 C 663 1181 639 1190 613 1198 C 587 1206 560 1210 532 1210 C 488 1210 457 1196 437 1170 C 417 1143 408 1100 408 1042 L 408 938 L 688 938 L 682 739 L 414 739 L 414 0 L 172 0 L 172 737 L 8 750 L 16 903 L 170 948 L 172 1049 C 175 1183 207 1279 267 1337 C 327 1395 409 1425 514 1425 C 560 1425 602 1419 642 1409 C 682 1399 713 1388 737 1378 Z" unicode="f" />
<glyph horiz-adv-x="1028" d="M 219 -39 C 178 -25 144 -3 117 25 C 89 53 76 87 76 125 C 76 167 92 207 124 243 C 156 279 198 306 250 324 C 198 350 156 388 125 440 C 93 491 78 549 78 614 C 78 711 114 795 188 867 C 261 939 363 975 494 975 C 546 975 596 968 642 956 C 688 943 727 929 760 915 L 1014 938 L 1024 727 L 844 758 C 856 744 866 722 874 692 C 882 662 887 634 887 610 C 887 514 850 433 776 366 C 702 299 608 266 492 266 C 469 266 448 267 429 269 C 410 271 388 276 362 283 C 346 276 329 265 313 251 C 297 237 289 220 289 201 C 289 175 302 156 329 144 C 356 132 407 127 483 127 L 582 127 C 716 127 820 106 894 65 C 968 24 1006 -41 1006 -133 C 1006 -244 951 -335 842 -405 C 732 -475 603 -510 455 -510 C 330 -510 224 -487 137 -442 C 49 -397 6 -332 6 -248 C 6 -198 24 -154 60 -115 C 96 -75 149 -50 219 -39 Z M 344 -72 C 310 -84 282 -101 259 -123 C 236 -145 225 -170 225 -199 C 225 -242 249 -278 299 -306 C 349 -334 414 -348 494 -348 C 576 -348 645 -333 701 -305 C 757 -276 786 -237 786 -188 C 786 -144 764 -115 721 -101 C 677 -87 612 -80 524 -80 C 494 -80 462 -79 426 -77 C 390 -75 363 -74 344 -72 Z M 311 612 C 311 556 327 510 359 476 C 391 441 437 424 496 424 C 550 424 591 442 621 478 C 651 514 666 561 666 621 C 666 677 651 722 621 758 C 591 793 545 811 485 811 C 432 811 390 792 358 756 C 326 719 311 671 311 612 Z" unicode="g" />
<glyph horiz-adv-x="1108" d="M 985 0 L 743 0 L 743 575 C 743 644 729 692 702 720 C 675 748 636 762 586 762 C 540 762 499 752 462 734 C 424 716 394 696 371 674 L 371 0 L 129 0 L 129 1368 L 371 1401 L 371 825 C 412 871 460 907 515 934 C 570 961 628 975 690 975 C 780 975 852 946 905 888 C 958 830 985 750 985 649 L 985 0 Z" unicode="h" />
<glyph horiz-adv-x="500" d="M 399 1262 C 399 1218 386 1182 360 1156 C 334 1129 298 1116 250 1116 C 203 1116 167 1129 141 1156 C 115 1182 102 1218 102 1262 C 102 1304 115 1339 141 1366 C 167 1393 203 1407 250 1407 C 298 1407 334 1393 360 1366 C 386 1339 399 1304 399 1262 Z M 371 0 L 129 0 L 129 938 L 371 973 L 371 0 Z" unicode="i" />
<glyph horiz-adv-x="496" d="M 399 1262 C 399 1218 386 1182 360 1156 C 334 1129 298 1116 250 1116 C 203 1116 167 1129 141 1156 C 115 1182 102 1218 102 1262 C 102 1304 115 1339 141 1366 C 167 1393 203 1407 250 1407 C 298 1407 334 1393 360 1366 C 386 1339 399 1304 399 1262 Z M 111 -502 L -37 -338 C 21 -310 63 -273 89 -226 C 115 -178 129 -104 129 -4 L 129 938 L 371 973 L 371 -8 C 371 -144 351 -251 312 -327 C 272 -403 205 -462 111 -502 Z" unicode="j" />
<glyph horiz-adv-x="1012" d="M 375 455 L 371 455 L 371 0 L 129 0 L 129 1368 L 371 1401 L 371 524 L 375 524 L 713 944 L 1001 944 L 610 496 L 1004 0 L 715 0 L 375 455 Z" unicode="k" />
<glyph horiz-adv-x="500" d="M 371 0 L 129 0 L 129 1368 L 371 1401 L 371 0 Z" unicode="l" />
<glyph horiz-adv-x="1677" d="M 371 684 L 371 0 L 129 0 L 129 940 L 371 973 L 371 840 C 414 883 460 916 510 940 C 560 963 614 975 672 975 C 728 975 780 961 826 934 C 872 906 906 866 930 813 C 976 863 1028 903 1084 932 C 1140 960 1201 975 1266 975 C 1354 975 1425 945 1477 887 C 1529 829 1556 749 1556 647 L 1556 0 L 1315 0 L 1315 573 C 1315 642 1301 691 1274 719 C 1247 747 1209 762 1159 762 C 1117 762 1080 753 1047 735 C 1014 717 986 698 963 678 L 963 0 L 721 0 L 721 573 C 721 642 707 691 681 719 C 655 747 617 762 567 762 C 524 762 486 754 453 739 C 420 723 393 705 371 684 Z" unicode="m" />
<glyph horiz-adv-x="1108" d="M 985 0 L 743 0 L 743 575 C 743 644 729 692 702 720 C 674 748 634 762 580 762 C 538 762 498 752 461 734 C 424 716 394 696 371 674 L 371 0 L 129 0 L 129 940 L 371 973 L 371 823 C 412 869 460 905 514 933 C 568 961 624 975 682 975 C 776 975 850 946 904 888 C 958 830 985 750 985 649 L 985 0 Z" unicode="n" />
<glyph horiz-adv-x="1114" d="M 1040 473 C 1040 319 992 196 898 105 C 804 14 688 -31 551 -31 C 413 -31 299 13 209 103 C 119 192 74 315 74 471 C 74 625 120 748 214 840 C 308 931 424 977 563 977 C 701 977 815 931 905 841 C 995 750 1040 627 1040 473 Z M 801 471 C 801 561 779 636 736 694 C 692 752 632 782 555 782 C 476 782 416 753 374 695 C 332 637 311 563 311 473 C 311 383 332 310 376 252 C 419 194 480 166 559 166 C 636 166 696 194 738 250 C 780 306 801 380 801 471 Z" unicode="o" />
<glyph horiz-adv-x="1122" d="M 371 854 C 402 884 439 912 483 937 C 527 962 577 975 635 975 C 759 975 859 928 935 836 C 1011 744 1049 625 1049 481 C 1049 331 1002 209 910 114 C 818 18 705 -29 571 -29 C 541 -29 507 -26 470 -22 C 433 -18 400 -11 371 -2 L 371 -451 L 129 -451 L 129 940 L 371 973 L 371 854 Z M 371 694 L 371 217 C 393 199 419 186 449 177 C 479 168 513 164 549 164 C 629 164 692 193 736 252 C 780 310 803 383 803 471 C 803 563 782 636 740 690 C 698 744 639 772 565 772 C 525 772 490 764 458 750 C 426 736 397 717 371 694 Z" unicode="p" />
<glyph horiz-adv-x="1122" d="M 993 -451 L 752 -451 L 752 92 C 720 61 682 33 638 7 C 594 -18 543 -31 485 -31 C 361 -31 261 15 186 107 C 111 199 74 319 74 465 C 74 615 120 737 212 832 C 304 927 417 975 551 975 C 591 975 633 970 677 962 C 721 953 756 944 784 934 L 993 973 L 993 -451 Z M 752 727 C 728 744 701 758 671 768 C 641 778 609 784 573 784 C 493 784 430 754 386 694 C 341 634 319 561 319 475 C 319 383 340 310 384 254 C 427 198 485 170 557 170 C 597 170 632 177 664 192 C 696 207 725 227 752 252 L 752 727 Z" unicode="q" />
<glyph horiz-adv-x="801" d="M 371 584 L 371 0 L 129 0 L 129 938 L 371 973 L 371 819 C 400 869 434 907 474 934 C 514 961 561 975 616 975 C 644 975 673 971 702 965 C 731 958 758 947 784 932 L 731 715 C 709 727 686 736 664 742 C 641 748 618 752 596 752 C 554 752 513 738 475 710 C 437 682 402 640 371 584 Z" unicode="r" />
<glyph horiz-adv-x="883" d="M 815 274 C 815 186 779 113 708 55 C 637 -3 542 -33 422 -33 C 360 -33 296 -24 228 -8 C 160 7 102 29 55 55 L 109 244 C 155 217 207 196 264 180 C 321 164 376 156 428 156 C 474 156 512 165 541 183 C 569 201 584 227 584 260 C 584 296 566 323 530 341 C 494 358 448 373 393 387 C 304 407 229 439 167 482 C 105 525 74 591 74 680 C 74 768 108 840 177 894 C 246 948 337 975 451 975 C 509 975 569 968 633 954 C 697 940 751 921 795 899 L 741 711 C 695 734 645 753 590 767 C 534 781 486 788 444 788 C 400 788 366 780 341 764 C 315 748 303 724 303 694 C 303 658 321 632 357 616 C 393 599 438 584 494 571 C 583 549 659 517 721 475 C 783 433 815 366 815 274 Z" unicode="s" />
<glyph horiz-adv-x="733" d="M 682 6 C 646 -6 610 -15 576 -21 C 541 -27 503 -31 463 -31 C 357 -31 278 -6 224 44 C 170 94 145 175 150 289 L 164 733 L 16 750 L 23 903 L 170 950 L 174 1159 L 408 1159 L 403 938 L 670 938 L 664 739 L 389 739 L 377 303 C 375 259 386 226 408 205 C 430 184 461 174 502 174 C 526 174 550 176 575 182 C 600 188 625 195 649 203 L 682 6 Z" unicode="t" />
<glyph horiz-adv-x="1100" d="M 121 944 L 362 944 L 362 369 C 362 299 376 251 404 224 C 432 197 471 184 522 184 C 564 184 604 192 640 209 C 676 225 706 244 729 266 L 729 944 L 971 944 L 971 6 L 729 -27 L 729 113 C 690 71 643 36 589 9 C 535 -17 478 -31 418 -31 C 326 -31 253 -1 200 56 C 147 114 121 194 121 295 L 121 944 Z" unicode="u" />
<glyph horiz-adv-x="979" d="M 981 944 L 616 -2 L 358 -2 L -2 944 L 256 944 L 494 254 L 721 944 L 981 944 Z" unicode="v" />
<glyph horiz-adv-x="1491" d="M 541 -4 L 305 -4 L 25 944 L 276 944 L 440 281 L 629 942 L 870 942 L 1073 285 L 1214 944 L 1470 944 L 1194 -4 L 956 -4 L 745 659 L 541 -4 Z" unicode="w" />
<glyph horiz-adv-x="932" d="M 936 0 L 674 0 L 467 336 L 262 0 L -4 0 L 322 483 L 8 944 L 270 944 L 465 639 L 653 944 L 918 944 L 612 487 L 936 0 Z" unicode="x" />
<glyph horiz-adv-x="971" d="M 975 944 L 614 18 L 559 -129 C 512 -257 459 -345 401 -393 C 343 -441 270 -465 184 -465 C 141 -465 100 -460 60 -450 C 20 -440 -17 -427 -55 -410 L 16 -211 C 44 -224 69 -235 93 -243 C 117 -251 141 -256 166 -256 C 200 -256 229 -245 251 -224 C 273 -203 298 -160 324 -96 L 365 12 L -4 944 L 256 944 L 492 268 L 717 944 L 975 944 Z" unicode="y" />
<glyph horiz-adv-x="889" d="M 844 0 L 41 0 L 41 166 L 535 739 L 59 739 L 59 944 L 844 944 L 844 782 L 348 207 L 844 207 L 844 0 Z" unicode="z" />
<glyph horiz-adv-x="1024" d="M 856 -453 C 695 -446 568 -424 474 -387 C 380 -350 334 -280 334 -176 C 334 -93 347 -20 374 41 C 400 103 414 164 414 223 C 414 276 394 314 354 337 C 314 360 250 375 164 383 L 158 489 L 164 596 C 250 602 314 616 354 639 C 394 661 414 700 414 756 C 414 814 400 874 374 938 C 347 1001 334 1074 334 1157 C 334 1259 380 1329 474 1367 C 568 1405 695 1427 856 1434 L 856 1280 C 747 1272 670 1256 626 1234 C 581 1212 559 1179 559 1137 C 559 1083 571 1027 597 969 C 622 910 635 840 635 760 C 635 687 609 627 558 579 C 506 531 436 504 348 500 L 348 479 C 436 473 506 446 558 399 C 609 351 635 291 635 219 C 635 138 622 69 597 13 C 571 -42 559 -98 559 -152 C 559 -196 581 -230 626 -253 C 670 -276 747 -291 856 -299 L 856 -453 Z" unicode="{" />
<glyph horiz-adv-x="512" d="M 154 -408 L 154 1438 L 360 1438 L 360 -408 L 154 -408 Z" unicode="|" />
<glyph horiz-adv-x="1024" d="M 864 489 L 858 383 C 771 375 707 360 667 337 C 626 314 606 276 606 223 C 606 164 620 103 648 41 C 676 -20 690 -93 690 -176 C 690 -280 643 -350 549 -387 C 455 -424 328 -446 166 -453 L 166 -299 C 274 -291 351 -276 396 -253 C 440 -230 463 -196 463 -152 C 463 -98 450 -42 426 13 C 401 69 389 138 389 219 C 389 291 414 351 464 399 C 514 446 585 473 676 479 L 676 500 C 585 504 514 531 464 579 C 414 627 389 687 389 760 C 389 840 401 910 426 969 C 450 1027 463 1083 463 1137 C 463 1179 440 1212 396 1234 C 351 1256 274 1272 166 1280 L 166 1434 C 328 1427 455 1405 549 1367 C 643 1329 690 1259 690 1157 C 690 1074 676 1001 648 938 C 620 874 606 814 606 756 C 606 700 626 661 667 639 C 707 616 771 602 858 596 L 864 489 Z" unicode="}" />
<glyph horiz-adv-x="1024" d="M 887 657 C 875 553 853 480 819 437 C 785 394 737 373 676 373 C 612 373 552 394 498 437 C 443 480 398 502 362 502 C 345 502 331 493 319 476 C 307 459 299 429 293 385 L 141 385 C 152 489 175 563 210 607 C 245 650 293 672 354 672 C 417 672 476 650 531 606 C 586 562 631 541 666 541 C 683 541 698 549 710 566 C 722 583 730 613 735 657 L 887 657 Z" unicode="~" />
<glyph horiz-adv-x="319" d="" unicode=" " />
<glyph horiz-adv-x="594" d="M 130 1154 C 130 1198 145 1235 175 1264 C 205 1293 243 1307 290 1307 C 338 1307 378 1293 409 1264 C 440 1235 456 1198 456 1154 C 456 1109 440 1073 409 1046 C 378 1018 338 1005 290 1005 C 243 1005 205 1018 175 1046 C 145 1073 130 1109 130 1154 Z M 374 857 L 435 -57 L 147 -57 L 206 857 L 374 857 Z" unicode="¡" />
<glyph horiz-adv-x="1024" d="M 758 961 C 791 954 823 945 853 934 C 883 923 910 910 936 895 L 887 705 C 862 719 836 731 810 743 C 783 755 755 764 727 770 C 728 770 713 669 682 467 C 650 265 635 164 635 164 C 683 164 728 171 772 185 C 816 199 856 217 893 240 L 930 47 C 890 22 841 3 785 -10 C 729 -24 670 -31 608 -31 L 606 -31 L 569 -266 L 453 -266 L 489 -20 C 375 2 284 55 217 141 C 150 227 117 336 117 469 C 117 621 162 743 253 836 C 344 928 463 975 610 975 L 639 975 L 670 1167 L 788 1167 L 758 961 Z M 610 782 C 526 778 462 747 418 691 C 374 635 352 563 352 475 C 352 401 367 339 397 289 C 427 239 468 203 520 182 L 610 782 Z" unicode="¢" />
<glyph horiz-adv-x="1024" d="M 211 688 C 209 720 207 751 205 782 C 203 812 203 842 203 870 C 203 1014 242 1123 321 1198 C 400 1273 501 1311 625 1311 C 681 1311 738 1303 795 1288 C 852 1273 904 1252 950 1225 L 899 1028 C 862 1051 821 1070 775 1086 C 729 1102 683 1110 637 1110 C 564 1110 510 1087 476 1042 C 441 996 424 939 424 870 C 424 846 424 818 426 787 C 428 755 430 722 432 688 L 795 688 L 788 561 L 440 561 C 442 535 443 510 444 485 C 445 460 446 435 446 410 C 446 385 445 361 443 339 C 441 316 437 294 432 274 C 470 242 511 218 557 200 C 603 182 643 174 678 174 C 720 174 757 187 790 214 C 823 240 846 294 860 375 L 1024 340 C 1016 212 980 119 916 59 C 852 -1 778 -31 696 -31 C 633 -31 573 -14 517 17 C 460 49 409 87 365 129 C 336 91 297 58 249 31 C 200 3 140 -18 68 -35 C 68 -35 59 -3 43 58 C 26 120 18 150 18 147 C 98 167 154 195 186 231 C 217 267 233 317 233 383 C 233 410 232 439 230 469 C 228 499 227 529 225 561 L 43 561 L 35 688 L 211 688 Z" unicode="£" />
<glyph horiz-adv-x="952" d="M 893 1026 L 768 901 C 780 877 789 850 797 819 C 805 788 809 760 809 735 C 809 706 805 677 797 647 C 789 617 780 590 768 567 L 903 432 L 780 309 L 647 442 C 622 428 596 417 569 410 C 541 402 511 399 477 399 C 442 399 410 402 382 408 C 354 414 328 424 305 438 L 184 317 L 63 438 L 184 559 C 168 585 157 613 151 642 C 145 671 143 702 143 735 C 143 767 145 798 151 826 C 157 854 168 881 184 907 L 57 1032 L 180 1155 L 307 1028 C 331 1042 357 1052 385 1060 C 413 1067 443 1071 477 1071 C 509 1071 540 1067 571 1059 C 601 1051 629 1041 653 1028 L 772 1147 L 893 1026 Z M 651 735 C 651 784 635 826 604 862 C 573 897 531 915 477 915 C 422 915 379 897 348 862 C 316 826 301 784 301 735 C 301 687 316 645 348 609 C 379 573 422 555 477 555 C 531 555 573 573 604 609 C 635 645 651 687 651 735 Z" unicode="¤" />
<glyph horiz-adv-x="1024" d="M 393 545 L 70 545 L 63 672 L 344 672 L -31 1280 L 240 1280 L 512 770 L 782 1280 L 1049 1280 L 676 672 L 958 672 L 950 545 L 627 545 L 627 397 L 950 397 L 958 272 L 631 272 L 631 0 L 389 0 L 389 272 L 63 272 L 70 397 L 393 397 L 393 545 Z" unicode="¥" />
<glyph horiz-adv-x="512" d="M 154 -285 L 154 401 L 360 401 L 360 -285 L 154 -285 Z M 154 629 L 154 1315 L 360 1315 L 360 629 L 154 629 Z" unicode="¦" />
<glyph horiz-adv-x="1024" d="M 979 608 C 979 550 962 499 928 457 C 894 414 847 382 788 360 C 818 338 843 311 862 281 C 881 250 891 214 891 172 C 891 85 856 12 786 -46 C 716 -105 623 -135 506 -135 C 446 -135 383 -127 317 -112 C 251 -96 195 -75 150 -49 L 201 137 C 246 109 296 87 352 71 C 408 55 461 47 512 47 C 558 47 596 56 626 76 C 655 95 670 122 670 156 C 670 194 644 224 593 244 C 541 264 483 283 418 301 C 334 322 252 352 174 390 C 96 428 57 493 57 586 C 57 644 77 695 117 739 C 157 782 205 813 262 831 C 231 853 206 880 187 910 C 167 940 158 977 158 1020 C 158 1108 191 1180 259 1235 C 327 1289 416 1317 526 1317 C 580 1317 638 1310 701 1296 C 763 1282 817 1264 862 1241 L 811 1057 C 766 1080 716 1099 662 1113 C 608 1127 560 1135 520 1135 C 476 1135 441 1126 415 1109 C 389 1092 377 1068 377 1036 C 377 999 402 972 454 954 C 505 936 563 917 629 899 C 711 875 790 843 866 802 C 941 761 979 696 979 608 Z M 784 557 C 784 619 735 662 639 686 C 542 710 448 743 358 784 C 332 766 307 745 284 719 C 261 693 250 665 250 637 C 250 577 299 534 399 509 C 499 484 595 451 688 410 C 712 425 734 445 754 471 C 774 497 784 525 784 557 Z" unicode="§" />
<glyph horiz-adv-x="811" d="M 328 1225 C 328 1182 314 1147 288 1120 C 262 1092 227 1079 184 1079 C 142 1079 108 1092 81 1120 C 54 1147 41 1182 41 1225 C 41 1266 54 1300 81 1326 C 108 1352 142 1366 184 1366 C 227 1366 262 1352 288 1326 C 314 1300 328 1266 328 1225 Z M 776 1225 C 776 1182 762 1147 736 1120 C 710 1092 675 1079 633 1079 C 590 1079 555 1092 529 1120 C 502 1147 489 1182 489 1225 C 489 1266 502 1300 529 1326 C 555 1352 590 1366 633 1366 C 675 1366 710 1352 736 1326 C 762 1300 776 1266 776 1225 Z" unicode="¨" />
<glyph horiz-adv-x="1563" d="M 1071 975 L 1012 817 C 984 834 954 847 922 856 C 890 865 857 870 823 870 C 757 870 705 849 667 808 C 629 766 610 711 610 641 C 610 569 629 512 667 470 C 705 427 757 406 825 406 C 861 406 896 411 930 422 C 964 433 994 448 1022 467 L 1063 299 C 1033 283 996 270 950 260 C 904 250 859 246 817 246 C 699 246 603 279 531 347 C 458 414 422 510 422 635 C 422 755 458 850 531 922 C 603 994 701 1030 823 1030 C 868 1030 912 1025 956 1015 C 999 1005 1037 992 1071 975 Z M 780 -76 C 584 -76 417 -6 277 133 C 137 273 68 441 68 637 C 68 833 137 1002 277 1143 C 417 1283 584 1354 780 1354 C 976 1354 1145 1283 1285 1143 C 1425 1002 1495 833 1495 637 C 1495 441 1425 273 1285 133 C 1145 -6 976 -76 780 -76 Z M 1430 637 C 1430 815 1366 968 1239 1098 C 1111 1227 958 1292 780 1292 C 602 1292 450 1227 323 1098 C 196 968 133 815 133 637 C 133 458 196 304 323 176 C 450 48 602 -16 780 -16 C 958 -16 1111 48 1239 176 C 1366 304 1430 458 1430 637 Z" unicode="©" />
<glyph horiz-adv-x="766" d="M 750 547 L 551 504 C 537 519 525 536 513 554 C 501 572 491 595 483 621 L 479 621 C 453 591 422 564 385 541 C 348 517 306 506 258 506 C 194 506 141 525 101 565 C 61 605 41 655 41 717 C 41 790 73 852 139 904 C 205 956 316 985 473 991 L 473 1028 C 473 1066 462 1095 440 1117 C 418 1138 386 1149 344 1149 C 303 1149 262 1140 221 1124 C 180 1108 142 1086 106 1059 L 45 1206 C 87 1236 136 1262 193 1282 C 249 1302 308 1313 369 1313 C 456 1313 527 1291 583 1247 C 638 1203 666 1132 666 1034 L 666 760 C 666 713 675 672 693 636 C 711 600 730 571 750 547 Z M 473 707 L 473 883 C 379 877 313 862 277 836 C 241 810 223 781 223 750 C 223 717 233 692 254 676 C 274 659 300 651 330 651 C 356 651 382 656 410 668 C 438 679 459 692 473 707 Z" unicode="ª" />
<glyph horiz-adv-x="1214" d="M 584 215 L 549 59 L 37 373 L 37 586 L 549 899 L 584 743 L 254 481 L 254 477 L 584 215 Z M 1165 199 L 1133 37 L 602 367 L 602 590 L 1133 920 L 1165 758 L 823 481 L 823 477 L 1165 199 Z" unicode="«" />
<glyph horiz-adv-x="1024" d="M 948 698 L 948 227 L 758 227 L 758 506 L 76 506 L 82 698 L 948 698 Z" unicode="¬" />
<glyph horiz-adv-x="698" d="M 639 393 L 61 393 L 61 600 L 639 600 L 639 393 Z" unicode="­" />
<glyph horiz-adv-x="1563" d="M 674 520 L 674 272 L 487 272 L 487 1020 L 803 1020 C 901 1020 976 998 1029 955 C 1081 911 1108 853 1108 780 C 1108 730 1095 686 1071 649 C 1047 611 1011 583 965 565 L 1143 272 L 938 272 L 793 526 L 674 520 Z M 780 -76 C 584 -76 417 -6 277 133 C 137 273 68 441 68 637 C 68 833 137 1002 277 1143 C 417 1283 584 1354 780 1354 C 976 1354 1145 1283 1285 1143 C 1425 1002 1495 833 1495 637 C 1495 441 1425 273 1285 133 C 1145 -6 976 -76 780 -76 Z M 1430 637 C 1430 815 1366 968 1239 1098 C 1111 1227 958 1292 780 1292 C 602 1292 450 1227 323 1098 C 196 968 133 815 133 637 C 133 458 196 304 323 176 C 450 48 602 -16 780 -16 C 958 -16 1111 48 1239 176 C 1366 304 1430 458 1430 637 Z M 672 647 L 774 649 C 824 650 860 661 884 682 C 908 702 920 731 920 768 C 920 806 907 834 883 852 C 859 870 822 879 772 879 L 672 879 L 672 647 Z" unicode="®" />
<glyph horiz-adv-x="811" d="M 735 1114 L 82 1114 L 98 1255 L 719 1255 L 735 1114 Z" unicode="¯" />
<glyph horiz-adv-x="1024" d="M 848 973 C 848 883 817 804 757 737 C 697 670 614 637 510 637 C 408 637 326 670 265 737 C 204 804 174 883 174 973 C 174 1064 204 1143 265 1210 C 326 1277 408 1311 510 1311 C 614 1311 697 1277 757 1210 C 817 1143 848 1064 848 973 Z M 739 973 C 739 1037 718 1091 678 1137 C 637 1183 581 1206 510 1206 C 439 1206 384 1183 344 1137 C 304 1091 285 1037 285 973 C 285 911 304 857 344 811 C 384 765 439 742 510 742 C 581 742 637 765 678 811 C 718 857 739 911 739 973 Z" unicode="°" />
<glyph horiz-adv-x="1024" d="M 954 518 L 612 518 L 612 244 L 416 244 L 416 518 L 70 518 L 76 711 L 416 711 L 416 985 L 612 985 L 612 711 L 948 711 L 954 518 Z M 954 0 L 70 0 L 76 193 L 948 193 L 954 0 Z" unicode="±" />
<glyph horiz-adv-x="676" d="M 606 559 L 47 559 L 43 690 C 168 797 259 877 317 930 C 374 983 403 1035 403 1087 C 403 1119 392 1144 371 1163 C 350 1182 321 1192 285 1192 C 253 1192 221 1184 189 1170 C 157 1155 128 1136 104 1114 C 102 1114 90 1135 69 1179 C 48 1223 39 1245 41 1245 C 73 1272 114 1295 163 1313 C 211 1331 263 1341 317 1341 C 405 1341 474 1318 522 1272 C 570 1226 594 1169 594 1102 C 594 1038 566 979 511 923 C 455 867 371 795 258 707 C 256 705 312 705 428 706 C 544 706 602 707 602 707 L 606 559 Z" unicode="²" />
<glyph horiz-adv-x="676" d="M 379 961 C 458 963 518 945 558 908 C 598 871 618 828 618 778 C 618 704 586 646 524 604 C 462 562 384 541 291 541 C 245 541 200 545 157 555 C 113 565 76 577 45 592 L 74 729 C 103 717 136 706 173 696 C 210 686 247 682 283 682 C 326 682 363 690 394 706 C 424 722 440 746 440 780 C 440 808 427 831 401 850 C 375 869 335 879 281 879 C 259 877 236 875 214 873 C 191 870 172 868 156 866 L 156 991 C 234 1005 294 1022 338 1040 C 381 1058 403 1085 403 1120 C 403 1142 394 1161 377 1176 C 360 1190 332 1198 293 1198 C 261 1198 228 1192 194 1180 C 160 1168 130 1152 104 1133 L 47 1266 C 78 1287 117 1305 164 1319 C 211 1333 260 1341 311 1341 C 393 1341 459 1324 510 1292 C 560 1260 586 1212 586 1149 C 586 1104 568 1065 533 1033 C 497 1001 446 977 379 961 Z" unicode="³" />
<glyph horiz-adv-x="809" d="M 715 1446 L 393 1071 L 233 1071 L 442 1446 L 715 1446 Z" unicode="´" />
<glyph horiz-adv-x="1108" d="M 371 944 L 371 377 C 371 300 390 249 428 223 C 466 197 505 184 545 184 C 579 184 620 197 667 223 C 713 249 737 304 737 387 L 737 944 L 979 944 L 979 0 L 737 0 L 737 98 C 721 60 694 30 658 8 C 621 -13 584 -25 547 -25 C 509 -25 474 -16 444 0 C 413 17 389 42 371 74 L 371 -477 L 129 -477 L 129 944 L 371 944 Z" unicode="µ" />
<glyph horiz-adv-x="1024" d="M 680 471 C 668 469 653 467 636 465 C 619 463 603 463 588 463 C 415 463 286 500 201 574 C 116 648 74 746 74 868 C 74 1000 121 1101 217 1173 C 312 1244 441 1280 604 1280 L 887 1280 L 887 -137 L 680 -137 L 680 471 Z" unicode="¶" />
<glyph horiz-adv-x="512" d="M 422 496 C 422 450 407 412 377 382 C 347 351 308 336 262 336 C 214 336 174 351 144 382 C 113 412 98 450 98 496 C 98 540 113 578 144 608 C 174 638 214 653 262 653 C 308 653 347 638 377 608 C 407 578 422 540 422 496 Z" unicode="·" />
<glyph horiz-adv-x="811" d="M 397 -121 C 472 -123 533 -140 581 -173 C 629 -205 653 -250 653 -307 C 653 -370 624 -423 566 -467 C 508 -511 414 -541 283 -557 L 268 -432 C 350 -426 408 -414 443 -395 C 478 -376 496 -352 496 -322 C 496 -287 476 -263 436 -249 C 396 -235 335 -233 254 -244 L 236 -147 L 475 80 L 612 80 C 612 80 579 48 514 -13 C 448 -75 409 -111 397 -121 Z" unicode="¸" />
<glyph horiz-adv-x="676" d="M 293 559 L 293 1149 L 100 1110 L 94 1262 L 489 1337 L 489 559 L 293 559 Z" unicode="¹" />
<glyph horiz-adv-x="895" d="M 834 907 C 834 785 796 687 721 615 C 646 542 554 506 444 506 C 333 506 241 542 168 614 C 95 686 59 783 59 907 C 59 1030 96 1128 171 1201 C 246 1274 340 1311 453 1311 C 563 1311 654 1274 726 1202 C 798 1130 834 1031 834 907 Z M 641 905 C 641 978 623 1039 589 1087 C 555 1135 507 1159 446 1159 C 384 1159 336 1135 303 1089 C 270 1042 254 982 254 909 C 254 837 270 777 304 729 C 338 681 386 657 449 657 C 511 657 558 680 591 726 C 624 772 641 831 641 905 Z" unicode="º" />
<glyph horiz-adv-x="1225" d="M 625 367 L 92 37 L 59 199 L 401 477 L 401 481 L 59 758 L 92 920 L 625 590 L 625 367 Z M 1188 373 L 678 59 L 641 215 L 971 477 L 971 481 L 641 743 L 678 899 L 1188 586 L 1188 373 Z" unicode="»" />
<glyph horiz-adv-x="1464" d="M 1448 -111 L 1341 -111 L 1341 -293 L 1174 -293 L 1174 -111 L 821 -111 L 811 10 L 1118 479 L 1341 479 L 1341 23 L 1444 23 L 1448 -111 Z M 293 559 L 293 1149 L 100 1110 L 94 1262 L 489 1337 L 489 559 L 293 559 Z M 1423 1280 L 307 -238 L 125 -238 L 1241 1280 L 1423 1280 Z M 1178 20 L 1178 342 L 971 20 L 1178 20 Z" unicode="¼" />
<glyph horiz-adv-x="1464" d="M 1395 -293 L 836 -293 L 831 -162 C 956 -54 1047 25 1105 78 C 1163 131 1192 184 1192 236 C 1192 267 1181 292 1160 311 C 1138 330 1109 340 1073 340 C 1041 340 1010 332 978 318 C 946 303 917 284 893 262 C 891 262 879 283 858 327 C 836 371 827 393 829 393 C 861 420 902 443 951 461 C 1000 479 1052 489 1106 489 C 1194 489 1262 466 1310 420 C 1358 374 1382 317 1382 250 C 1382 186 1354 127 1299 71 C 1243 15 1159 -56 1047 -145 C 1044 -146 1101 -146 1217 -146 C 1333 -145 1391 -145 1391 -145 L 1395 -293 Z M 293 559 L 293 1149 L 100 1110 L 94 1262 L 489 1337 L 489 559 L 293 559 Z M 1393 1280 L 276 -238 L 94 -238 L 1210 1280 L 1393 1280 Z" unicode="½" />
<glyph horiz-adv-x="1464" d="M 379 961 C 458 963 518 945 558 908 C 598 871 618 828 618 778 C 618 704 586 646 524 604 C 462 562 384 541 291 541 C 245 541 200 545 157 555 C 113 565 76 577 45 592 L 74 729 C 103 717 136 706 173 696 C 210 686 247 682 283 682 C 326 682 363 690 394 706 C 424 722 440 746 440 780 C 440 808 427 831 401 850 C 375 869 335 879 281 879 C 259 877 236 875 214 873 C 191 870 172 868 156 866 L 156 991 C 234 1005 294 1022 338 1040 C 381 1058 403 1085 403 1120 C 403 1142 394 1161 377 1176 C 360 1190 332 1198 293 1198 C 261 1198 228 1192 194 1180 C 160 1168 130 1152 104 1133 L 47 1266 C 78 1287 117 1305 164 1319 C 211 1333 260 1341 311 1341 C 393 1341 459 1324 510 1292 C 560 1260 586 1212 586 1149 C 586 1104 568 1065 533 1033 C 497 1001 446 977 379 961 Z M 1448 -111 L 1341 -111 L 1341 -293 L 1174 -293 L 1174 -111 L 821 -111 L 811 10 L 1118 479 L 1341 479 L 1341 23 L 1444 23 L 1448 -111 Z M 1423 1280 L 307 -238 L 125 -238 L 1241 1280 L 1423 1280 Z M 1178 20 L 1178 342 L 971 20 L 1178 20 Z" unicode="¾" />
<glyph horiz-adv-x="793" d="M 69 330 C 69 415 92 478 138 518 C 184 558 237 588 296 608 C 337 622 372 636 400 650 C 428 664 444 684 448 711 C 448 733 434 757 407 785 C 379 813 355 836 335 856 C 335 856 357 860 402 870 C 446 880 471 885 475 885 C 520 862 559 830 592 788 C 624 746 641 701 641 653 C 641 593 621 547 581 516 C 541 485 492 460 436 442 C 388 426 349 410 320 394 C 290 378 276 354 276 322 C 276 282 296 248 337 222 C 378 195 437 182 514 182 C 543 182 574 185 608 191 C 641 197 669 203 692 209 L 686 -1 C 662 -9 634 -15 603 -20 C 571 -26 535 -28 495 -28 C 369 -28 267 6 188 76 C 108 146 69 230 69 330 Z M 288 1157 C 288 1201 303 1238 333 1267 C 363 1296 402 1310 450 1310 C 496 1310 535 1296 567 1267 C 598 1238 614 1201 614 1157 C 614 1112 598 1076 567 1049 C 535 1021 496 1008 450 1008 C 402 1008 363 1021 333 1049 C 303 1076 288 1112 288 1157 Z" unicode="¿" />
<glyph horiz-adv-x="1247" d="M 778 1280 L 1239 0 L 987 0 L 881 303 L 365 303 L 260 0 L 8 0 L 475 1280 L 778 1280 Z M 817 510 L 625 1065 L 430 510 L 817 510 Z M 708 1386 L 546 1386 L 224 1761 L 497 1761 L 708 1386 Z" unicode="À" />
<glyph horiz-adv-x="1247" d="M 778 1280 L 1239 0 L 987 0 L 881 303 L 365 303 L 260 0 L 8 0 L 475 1280 L 778 1280 Z M 817 510 L 625 1065 L 430 510 L 817 510 Z M 1016 1761 L 694 1386 L 534 1386 L 743 1761 L 1016 1761 Z" unicode="Á" />
<glyph horiz-adv-x="1247" d="M 778 1280 L 1239 0 L 987 0 L 881 303 L 365 303 L 260 0 L 8 0 L 475 1280 L 778 1280 Z M 817 510 L 625 1065 L 430 510 L 817 510 Z M 983 1386 L 813 1386 L 629 1628 L 625 1628 L 442 1386 L 270 1386 L 510 1769 L 743 1769 L 983 1386 Z" unicode="Â" />
<glyph horiz-adv-x="1247" d="M 778 1280 L 1239 0 L 987 0 L 881 303 L 365 303 L 260 0 L 8 0 L 475 1280 L 778 1280 Z M 817 510 L 625 1065 L 430 510 L 817 510 Z M 997 1679 C 985 1575 963 1501 929 1458 C 895 1415 847 1394 786 1394 C 722 1394 662 1415 608 1458 C 553 1501 508 1523 473 1523 C 455 1523 441 1514 430 1497 C 418 1480 409 1450 403 1407 L 252 1407 C 263 1511 286 1585 321 1628 C 355 1671 403 1693 465 1693 C 528 1693 587 1671 642 1627 C 696 1583 741 1562 776 1562 C 793 1562 808 1570 820 1587 C 832 1604 840 1635 846 1679 L 997 1679 Z" unicode="Ã" />
<glyph horiz-adv-x="1247" d="M 778 1280 L 1239 0 L 987 0 L 881 303 L 365 303 L 260 0 L 8 0 L 475 1280 L 778 1280 Z M 817 510 L 625 1065 L 430 510 L 817 510 Z M 538 1540 C 538 1497 524 1462 498 1435 C 472 1407 437 1394 394 1394 C 352 1394 318 1407 291 1435 C 264 1462 251 1497 251 1540 C 251 1581 264 1615 291 1641 C 318 1667 352 1681 394 1681 C 437 1681 472 1667 498 1641 C 524 1615 538 1581 538 1540 Z M 986 1540 C 986 1497 972 1462 946 1435 C 920 1407 885 1394 843 1394 C 800 1394 765 1407 739 1435 C 712 1462 699 1497 699 1540 C 699 1581 712 1615 739 1641 C 765 1667 800 1681 843 1681 C 885 1681 920 1667 946 1641 C 972 1615 986 1581 986 1540 Z" unicode="Ä" />
<glyph horiz-adv-x="1247" d="M 455 1227 C 425 1245 400 1270 382 1302 C 363 1334 354 1368 354 1405 C 354 1469 378 1523 428 1569 C 477 1615 543 1638 625 1638 C 708 1638 773 1615 821 1569 C 869 1523 893 1469 895 1405 C 896 1369 888 1336 870 1304 C 852 1272 828 1247 797 1227 L 1239 0 L 987 0 L 881 303 L 365 303 L 260 0 L 8 0 L 455 1227 Z M 784 1407 C 784 1445 769 1477 741 1505 C 712 1532 673 1546 625 1546 C 578 1546 540 1532 512 1505 C 483 1477 469 1445 469 1407 C 469 1369 483 1336 512 1309 C 540 1281 578 1268 625 1268 C 673 1268 712 1281 741 1309 C 769 1336 784 1369 784 1407 Z M 817 510 L 625 1065 L 430 510 L 817 510 Z" unicode="Å" />
<glyph horiz-adv-x="1772" d="M 412 303 L 254 0 L -16 0 L 662 1280 L 1690 1280 L 1690 1069 L 1061 1069 L 1061 748 L 1583 748 L 1583 537 L 1061 537 L 1061 211 L 1690 211 L 1690 0 L 815 0 L 815 303 L 412 303 Z M 514 514 L 815 514 L 815 1096 L 514 514 Z" unicode="Æ" />
<glyph horiz-adv-x="1243" d="M 651 -25 C 482 -6 346 60 242 176 C 138 292 86 445 86 637 C 86 841 147 1004 271 1127 C 394 1249 555 1311 754 1311 C 828 1311 901 1301 975 1283 C 1048 1265 1112 1240 1167 1210 L 1090 993 C 1038 1027 985 1052 929 1070 C 873 1087 814 1096 754 1096 C 629 1096 528 1055 452 974 C 376 893 338 783 338 645 C 338 504 375 392 451 309 C 527 225 629 184 758 184 C 823 184 886 195 947 217 C 1007 239 1061 266 1108 299 L 1155 70 C 1108 41 1051 18 984 0 C 916 -17 849 -27 782 -31 C 760 -51 739 -70 720 -88 C 701 -106 689 -117 684 -121 C 759 -123 820 -140 868 -173 C 916 -205 940 -250 940 -307 C 940 -370 911 -423 853 -467 C 795 -511 701 -541 569 -557 L 555 -432 C 636 -426 694 -414 729 -395 C 764 -376 782 -352 782 -322 C 782 -287 762 -263 722 -249 C 682 -235 622 -233 541 -244 L 522 -147 L 651 -25 Z" unicode="Ç" />
<glyph horiz-adv-x="1114" d="M 1020 0 L 147 0 L 147 1280 L 1020 1280 L 1020 1069 L 393 1069 L 393 748 L 907 748 L 907 537 L 393 537 L 393 211 L 1020 211 L 1020 0 Z M 690 1386 L 528 1386 L 206 1761 L 479 1761 L 690 1386 Z" unicode="È" />
<glyph horiz-adv-x="1114" d="M 1020 0 L 147 0 L 147 1280 L 1020 1280 L 1020 1069 L 393 1069 L 393 748 L 907 748 L 907 537 L 393 537 L 393 211 L 1020 211 L 1020 0 Z M 958 1761 L 636 1386 L 476 1386 L 685 1761 L 958 1761 Z" unicode="É" />
<glyph horiz-adv-x="1114" d="M 1020 0 L 147 0 L 147 1280 L 1020 1280 L 1020 1069 L 393 1069 L 393 748 L 907 748 L 907 537 L 393 537 L 393 211 L 1020 211 L 1020 0 Z M 940 1386 L 770 1386 L 586 1628 L 582 1628 L 399 1386 L 227 1386 L 467 1769 L 700 1769 L 940 1386 Z" unicode="Ê" />
<glyph horiz-adv-x="1114" d="M 1020 0 L 147 0 L 147 1280 L 1020 1280 L 1020 1069 L 393 1069 L 393 748 L 907 748 L 907 537 L 393 537 L 393 211 L 1020 211 L 1020 0 Z M 502 1540 C 502 1497 488 1462 462 1435 C 436 1407 401 1394 358 1394 C 316 1394 282 1407 255 1435 C 228 1462 215 1497 215 1540 C 215 1581 228 1615 255 1641 C 282 1667 316 1681 358 1681 C 401 1681 436 1667 462 1641 C 488 1615 502 1581 502 1540 Z M 950 1540 C 950 1497 936 1462 910 1435 C 884 1407 849 1394 807 1394 C 764 1394 729 1407 703 1435 C 676 1462 663 1497 663 1540 C 663 1581 676 1615 703 1641 C 729 1667 764 1681 807 1681 C 849 1681 884 1667 910 1641 C 936 1615 950 1581 950 1540 Z" unicode="Ë" />
<glyph horiz-adv-x="551" d="M 399 0 L 152 0 L 152 1280 L 399 1280 L 399 0 Z M 374 1386 L 212 1386 L -110 1761 L 163 1761 L 374 1386 Z" unicode="Ì" />
<glyph horiz-adv-x="551" d="M 399 0 L 152 0 L 152 1280 L 399 1280 L 399 0 Z M 664 1761 L 342 1386 L 182 1386 L 391 1761 L 664 1761 Z" unicode="Í" />
<glyph horiz-adv-x="551" d="M 399 0 L 152 0 L 152 1280 L 399 1280 L 399 0 Z M 635 1386 L 465 1386 L 281 1628 L 277 1628 L 94 1386 L -78 1386 L 162 1769 L 395 1769 L 635 1386 Z" unicode="Î" />
<glyph horiz-adv-x="551" d="M 399 0 L 152 0 L 152 1280 L 399 1280 L 399 0 Z M 197 1540 C 197 1497 183 1462 157 1435 C 131 1407 96 1394 53 1394 C 11 1394 -22 1407 -49 1435 C -76 1462 -90 1497 -90 1540 C -90 1581 -76 1615 -49 1641 C -22 1667 11 1681 53 1681 C 96 1681 131 1667 157 1641 C 183 1615 197 1581 197 1540 Z M 645 1540 C 645 1497 631 1462 605 1435 C 579 1407 544 1394 502 1394 C 459 1394 424 1407 398 1435 C 371 1462 358 1497 358 1540 C 358 1581 371 1615 398 1641 C 424 1667 459 1681 502 1681 C 544 1681 579 1667 605 1641 C 631 1615 645 1581 645 1540 Z" unicode="Ï" />
<glyph horiz-adv-x="1407" d="M 203 547 L 33 547 L 33 748 L 203 748 L 203 1280 L 635 1280 C 853 1280 1022 1222 1144 1106 C 1266 990 1327 838 1327 649 C 1327 452 1265 295 1143 177 C 1021 59 847 0 621 0 L 203 0 L 203 547 Z M 453 748 L 743 748 L 743 547 L 453 547 L 453 211 L 621 211 C 755 211 864 246 949 317 C 1034 388 1077 495 1077 637 C 1077 780 1035 888 952 960 C 868 1032 754 1069 608 1069 L 453 1069 L 453 748 Z" unicode="Ð" />
<glyph horiz-adv-x="1411" d="M 1026 348 L 1026 1280 L 1264 1280 L 1264 -12 L 997 -12 L 385 930 L 385 0 L 147 0 L 147 1280 L 420 1280 L 1026 348 Z M 1079 1679 C 1067 1575 1045 1501 1011 1458 C 977 1415 929 1394 868 1394 C 804 1394 744 1415 690 1458 C 635 1501 590 1523 555 1523 C 537 1523 523 1514 512 1497 C 500 1480 491 1450 485 1407 L 334 1407 C 345 1511 368 1585 403 1628 C 437 1671 485 1693 547 1693 C 610 1693 669 1671 724 1627 C 778 1583 823 1562 858 1562 C 875 1562 890 1570 902 1587 C 914 1604 922 1635 928 1679 L 1079 1679 Z" unicode="Ñ" />
<glyph horiz-adv-x="1487" d="M 1401 645 C 1401 448 1338 286 1213 159 C 1088 32 931 -31 743 -31 C 555 -31 398 28 273 146 C 148 264 86 428 86 637 C 86 833 148 995 274 1121 C 400 1247 557 1311 745 1311 C 933 1311 1089 1252 1214 1134 C 1338 1016 1401 853 1401 645 Z M 1151 637 C 1151 776 1113 888 1038 974 C 963 1059 863 1102 739 1102 C 617 1102 520 1059 447 975 C 374 890 338 780 338 645 C 338 505 375 393 449 307 C 523 221 623 178 748 178 C 868 178 966 220 1040 306 C 1114 391 1151 501 1151 637 Z M 842 1392 L 680 1392 L 358 1767 L 631 1767 L 842 1392 Z" unicode="Ò" />
<glyph horiz-adv-x="1487" d="M 1401 645 C 1401 448 1338 286 1213 159 C 1088 32 931 -31 743 -31 C 555 -31 398 28 273 146 C 148 264 86 428 86 637 C 86 833 148 995 274 1121 C 400 1247 557 1311 745 1311 C 933 1311 1089 1252 1214 1134 C 1338 1016 1401 853 1401 645 Z M 1151 637 C 1151 776 1113 888 1038 974 C 963 1059 863 1102 739 1102 C 617 1102 520 1059 447 975 C 374 890 338 780 338 645 C 338 505 375 393 449 307 C 523 221 623 178 748 178 C 868 178 966 220 1040 306 C 1114 391 1151 501 1151 637 Z M 1134 1767 L 812 1392 L 652 1392 L 861 1767 L 1134 1767 Z" unicode="Ó" />
<glyph horiz-adv-x="1487" d="M 1401 645 C 1401 448 1338 286 1213 159 C 1088 32 931 -31 743 -31 C 555 -31 398 28 273 146 C 148 264 86 428 86 637 C 86 833 148 995 274 1121 C 400 1247 557 1311 745 1311 C 933 1311 1089 1252 1214 1134 C 1338 1016 1401 853 1401 645 Z M 1151 637 C 1151 776 1113 888 1038 974 C 963 1059 863 1102 739 1102 C 617 1102 520 1059 447 975 C 374 890 338 780 338 645 C 338 505 375 393 449 307 C 523 221 623 178 748 178 C 868 178 966 220 1040 306 C 1114 391 1151 501 1151 637 Z M 1103 1386 L 933 1386 L 749 1628 L 745 1628 L 562 1386 L 390 1386 L 630 1769 L 863 1769 L 1103 1386 Z" unicode="Ô" />
<glyph horiz-adv-x="1487" d="M 1401 645 C 1401 448 1338 286 1213 159 C 1088 32 931 -31 743 -31 C 555 -31 398 28 273 146 C 148 264 86 428 86 637 C 86 833 148 995 274 1121 C 400 1247 557 1311 745 1311 C 933 1311 1089 1252 1214 1134 C 1338 1016 1401 853 1401 645 Z M 1151 637 C 1151 776 1113 888 1038 974 C 963 1059 863 1102 739 1102 C 617 1102 520 1059 447 975 C 374 890 338 780 338 645 C 338 505 375 393 449 307 C 523 221 623 178 748 178 C 868 178 966 220 1040 306 C 1114 391 1151 501 1151 637 Z M 1117 1679 C 1105 1575 1083 1501 1049 1458 C 1015 1415 967 1394 906 1394 C 842 1394 782 1415 728 1458 C 673 1501 628 1523 593 1523 C 575 1523 561 1514 550 1497 C 538 1480 529 1450 523 1407 L 372 1407 C 383 1511 406 1585 441 1628 C 475 1671 523 1693 585 1693 C 648 1693 707 1671 762 1627 C 816 1583 861 1562 896 1562 C 913 1562 928 1570 940 1587 C 952 1604 960 1635 966 1679 L 1117 1679 Z" unicode="Õ" />
<glyph horiz-adv-x="1487" d="M 1401 645 C 1401 448 1338 286 1213 159 C 1088 32 931 -31 743 -31 C 555 -31 398 28 273 146 C 148 264 86 428 86 637 C 86 833 148 995 274 1121 C 400 1247 557 1311 745 1311 C 933 1311 1089 1252 1214 1134 C 1338 1016 1401 853 1401 645 Z M 1151 637 C 1151 776 1113 888 1038 974 C 963 1059 863 1102 739 1102 C 617 1102 520 1059 447 975 C 374 890 338 780 338 645 C 338 505 375 393 449 307 C 523 221 623 178 748 178 C 868 178 966 220 1040 306 C 1114 391 1151 501 1151 637 Z M 665 1540 C 665 1497 651 1462 625 1435 C 599 1407 564 1394 521 1394 C 479 1394 445 1407 418 1435 C 391 1462 378 1497 378 1540 C 378 1581 391 1615 418 1641 C 445 1667 479 1681 521 1681 C 564 1681 599 1667 625 1641 C 651 1615 665 1581 665 1540 Z M 1113 1540 C 1113 1497 1099 1462 1073 1435 C 1047 1407 1012 1394 970 1394 C 927 1394 892 1407 866 1435 C 839 1462 826 1497 826 1540 C 826 1581 839 1615 866 1641 C 892 1667 927 1681 970 1681 C 1012 1681 1047 1667 1073 1641 C 1099 1615 1113 1581 1113 1540 Z" unicode="Ö" />
<glyph horiz-adv-x="1024" d="M 961 172 L 829 39 L 516 354 L 205 39 L 72 172 L 389 483 L 72 797 L 205 928 L 516 610 L 829 928 L 961 797 L 645 483 L 961 172 Z" unicode="×" />
<glyph horiz-adv-x="1487" d="M 1405 645 C 1405 449 1342 288 1217 160 C 1092 32 936 -31 748 -31 C 694 -31 643 -26 594 -16 C 545 -6 499 8 457 27 L 365 -137 L 225 -137 L 352 84 C 272 138 208 213 161 307 C 113 401 90 511 90 637 C 90 833 152 995 278 1121 C 404 1247 561 1311 750 1311 C 800 1311 849 1306 897 1296 C 944 1286 989 1272 1032 1255 L 1126 1417 L 1266 1417 L 1141 1200 C 1221 1145 1285 1070 1333 976 C 1381 882 1405 771 1405 645 Z M 1018 999 L 567 219 C 595 205 624 194 655 188 C 685 181 718 178 752 178 C 872 178 969 220 1043 306 C 1116 391 1153 501 1153 637 C 1153 713 1141 783 1117 845 C 1093 907 1060 958 1018 999 Z M 924 1065 C 897 1077 869 1086 839 1092 C 809 1098 777 1102 743 1102 C 622 1102 525 1059 452 975 C 378 890 342 780 342 645 C 342 568 353 499 377 438 C 400 376 433 326 475 287 L 924 1065 Z" unicode="Ø" />
<glyph horiz-adv-x="1350" d="M 1208 508 C 1208 334 1161 201 1067 108 C 973 15 842 -31 674 -31 C 510 -31 381 13 285 102 C 189 191 141 319 141 485 L 141 1280 L 391 1280 L 391 518 C 391 413 414 332 462 274 C 510 216 583 188 682 188 C 770 188 839 213 888 265 C 936 317 961 398 961 508 L 961 1280 L 1208 1280 L 1208 508 Z M 790 1386 L 628 1386 L 306 1761 L 579 1761 L 790 1386 Z" unicode="Ù" />
<glyph horiz-adv-x="1350" d="M 1208 508 C 1208 334 1161 201 1067 108 C 973 15 842 -31 674 -31 C 510 -31 381 13 285 102 C 189 191 141 319 141 485 L 141 1280 L 391 1280 L 391 518 C 391 413 414 332 462 274 C 510 216 583 188 682 188 C 770 188 839 213 888 265 C 936 317 961 398 961 508 L 961 1280 L 1208 1280 L 1208 508 Z M 1046 1761 L 724 1386 L 564 1386 L 773 1761 L 1046 1761 Z" unicode="Ú" />
<glyph horiz-adv-x="1350" d="M 1208 508 C 1208 334 1161 201 1067 108 C 973 15 842 -31 674 -31 C 510 -31 381 13 285 102 C 189 191 141 319 141 485 L 141 1280 L 391 1280 L 391 518 C 391 413 414 332 462 274 C 510 216 583 188 682 188 C 770 188 839 213 888 265 C 936 317 961 398 961 508 L 961 1280 L 1208 1280 L 1208 508 Z M 1034 1386 L 864 1386 L 680 1628 L 676 1628 L 493 1386 L 321 1386 L 561 1769 L 794 1769 L 1034 1386 Z" unicode="Û" />
<glyph horiz-adv-x="1350" d="M 1208 508 C 1208 334 1161 201 1067 108 C 973 15 842 -31 674 -31 C 510 -31 381 13 285 102 C 189 191 141 319 141 485 L 141 1280 L 391 1280 L 391 518 C 391 413 414 332 462 274 C 510 216 583 188 682 188 C 770 188 839 213 888 265 C 936 317 961 398 961 508 L 961 1280 L 1208 1280 L 1208 508 Z M 596 1540 C 596 1497 582 1462 556 1435 C 530 1407 495 1394 452 1394 C 410 1394 376 1407 349 1435 C 322 1462 309 1497 309 1540 C 309 1581 322 1615 349 1641 C 376 1667 410 1681 452 1681 C 495 1681 530 1667 556 1641 C 582 1615 596 1581 596 1540 Z M 1044 1540 C 1044 1497 1030 1462 1004 1435 C 978 1407 943 1394 901 1394 C 858 1394 823 1407 797 1435 C 770 1462 757 1497 757 1540 C 757 1581 770 1615 797 1641 C 823 1667 858 1681 901 1681 C 943 1681 978 1667 1004 1641 C 1030 1615 1044 1581 1044 1540 Z" unicode="Ü" />
<glyph horiz-adv-x="1180" d="M 1159 1280 L 715 496 L 715 0 L 467 0 L 467 498 L 20 1280 L 291 1280 L 594 727 L 891 1280 L 1159 1280 Z M 977 1761 L 655 1386 L 495 1386 L 704 1761 L 977 1761 Z" unicode="Ý" />
<glyph horiz-adv-x="1151" d="M 1090 657 C 1090 510 1041 398 944 321 C 847 244 713 205 543 205 L 397 203 L 397 0 L 147 0 L 147 1280 L 397 1280 L 397 1085 L 561 1085 C 737 1085 870 1045 958 965 C 1046 885 1090 782 1090 657 Z M 840 649 C 840 723 815 780 765 819 C 715 857 642 877 545 877 L 393 877 L 393 412 L 551 414 C 645 416 717 437 766 478 C 815 518 840 575 840 649 Z" unicode="Þ" />
<glyph horiz-adv-x="1255" d="M 172 0 L 172 737 L 8 750 L 18 903 L 170 948 C 170 948 170 964 171 997 C 171 1029 172 1044 172 1040 C 175 1182 219 1282 305 1339 C 390 1396 490 1425 604 1425 C 727 1425 825 1394 899 1332 C 973 1270 1010 1189 1010 1090 C 1010 1001 980 937 920 898 C 860 858 831 818 831 776 C 831 695 893 635 1019 596 C 1145 557 1208 459 1208 301 C 1208 200 1175 119 1110 58 C 1045 -2 954 -33 838 -33 C 780 -33 725 -25 672 -10 C 618 4 570 23 526 47 L 569 246 C 605 222 644 202 686 186 C 728 170 768 162 807 162 C 855 162 892 172 918 193 C 944 214 958 245 958 285 C 958 385 899 450 783 480 C 666 509 608 589 608 721 C 608 804 634 865 686 905 C 738 944 764 999 764 1069 C 764 1117 748 1157 717 1189 C 685 1221 646 1237 598 1237 C 540 1237 494 1220 461 1187 C 428 1153 412 1105 412 1042 L 412 0 L 172 0 Z" unicode="ß" />
<glyph horiz-adv-x="985" d="M 633 109 L 625 109 C 591 67 552 34 510 8 C 467 -18 416 -31 358 -31 C 274 -31 204 -5 149 46 C 93 98 66 161 66 236 C 66 322 105 397 184 463 C 262 528 409 564 625 571 L 625 594 C 625 657 610 703 581 731 C 551 759 503 774 436 774 C 388 774 336 764 281 745 C 225 726 173 702 123 674 L 74 864 C 120 892 178 918 248 941 C 318 963 391 975 469 975 C 613 975 716 942 778 877 C 840 812 869 715 866 586 L 866 248 C 866 212 871 189 881 179 C 891 169 914 164 950 162 L 932 -20 C 842 -30 774 -23 728 1 C 682 25 650 61 633 109 Z M 625 227 L 625 444 C 507 430 424 409 376 383 C 327 356 303 318 303 268 C 303 232 315 203 341 180 C 367 156 401 145 444 145 C 482 145 516 152 547 168 C 577 184 603 203 625 227 Z M 564 1071 L 402 1071 L 80 1446 L 353 1446 L 564 1071 Z" unicode="à" />
<glyph horiz-adv-x="985" d="M 633 109 L 625 109 C 591 67 552 34 510 8 C 467 -18 416 -31 358 -31 C 274 -31 204 -5 149 46 C 93 98 66 161 66 236 C 66 322 105 397 184 463 C 262 528 409 564 625 571 L 625 594 C 625 657 610 703 581 731 C 551 759 503 774 436 774 C 388 774 336 764 281 745 C 225 726 173 702 123 674 L 74 864 C 120 892 178 918 248 941 C 318 963 391 975 469 975 C 613 975 716 942 778 877 C 840 812 869 715 866 586 L 866 248 C 866 212 871 189 881 179 C 891 169 914 164 950 162 L 932 -20 C 842 -30 774 -23 728 1 C 682 25 650 61 633 109 Z M 625 227 L 625 444 C 507 430 424 409 376 383 C 327 356 303 318 303 268 C 303 232 315 203 341 180 C 367 156 401 145 444 145 C 482 145 516 152 547 168 C 577 184 603 203 625 227 Z M 833 1446 L 511 1071 L 351 1071 L 560 1446 L 833 1446 Z" unicode="á" />
<glyph horiz-adv-x="985" d="M 633 109 L 625 109 C 591 67 552 34 510 8 C 467 -18 416 -31 358 -31 C 274 -31 204 -5 149 46 C 93 98 66 161 66 236 C 66 322 105 397 184 463 C 262 528 409 564 625 571 L 625 594 C 625 657 610 703 581 731 C 551 759 503 774 436 774 C 388 774 336 764 281 745 C 225 726 173 702 123 674 L 74 864 C 120 892 178 918 248 941 C 318 963 391 975 469 975 C 613 975 716 942 778 877 C 840 812 869 715 866 586 L 866 248 C 866 212 871 189 881 179 C 891 169 914 164 950 162 L 932 -20 C 842 -30 774 -23 728 1 C 682 25 650 61 633 109 Z M 625 227 L 625 444 C 507 430 424 409 376 383 C 327 356 303 318 303 268 C 303 232 315 203 341 180 C 367 156 401 145 444 145 C 482 145 516 152 547 168 C 577 184 603 203 625 227 Z M 823 1071 L 653 1071 L 469 1313 L 465 1313 L 282 1071 L 110 1071 L 350 1454 L 583 1454 L 823 1071 Z" unicode="â" />
<glyph horiz-adv-x="985" d="M 633 109 L 625 109 C 591 67 552 34 510 8 C 467 -18 416 -31 358 -31 C 274 -31 204 -5 149 46 C 93 98 66 161 66 236 C 66 322 105 397 184 463 C 262 528 409 564 625 571 L 625 594 C 625 657 610 703 581 731 C 551 759 503 774 436 774 C 388 774 336 764 281 745 C 225 726 173 702 123 674 L 74 864 C 120 892 178 918 248 941 C 318 963 391 975 469 975 C 613 975 716 942 778 877 C 840 812 869 715 866 586 L 866 248 C 866 212 871 189 881 179 C 891 169 914 164 950 162 L 932 -20 C 842 -30 774 -23 728 1 C 682 25 650 61 633 109 Z M 625 227 L 625 444 C 507 430 424 409 376 383 C 327 356 303 318 303 268 C 303 232 315 203 341 180 C 367 156 401 145 444 145 C 482 145 516 152 547 168 C 577 184 603 203 625 227 Z M 843 1364 C 831 1260 809 1186 775 1143 C 741 1100 693 1079 632 1079 C 568 1079 508 1100 454 1143 C 399 1186 354 1208 319 1208 C 301 1208 287 1199 276 1182 C 264 1165 255 1135 249 1092 L 98 1092 C 109 1196 132 1270 167 1313 C 201 1356 249 1378 311 1378 C 374 1378 433 1356 488 1312 C 542 1268 587 1247 622 1247 C 639 1247 654 1255 666 1272 C 678 1289 686 1320 692 1364 L 843 1364 Z" unicode="ã" />
<glyph horiz-adv-x="985" d="M 633 109 L 625 109 C 591 67 552 34 510 8 C 467 -18 416 -31 358 -31 C 274 -31 204 -5 149 46 C 93 98 66 161 66 236 C 66 322 105 397 184 463 C 262 528 409 564 625 571 L 625 594 C 625 657 610 703 581 731 C 551 759 503 774 436 774 C 388 774 336 764 281 745 C 225 726 173 702 123 674 L 74 864 C 120 892 178 918 248 941 C 318 963 391 975 469 975 C 613 975 716 942 778 877 C 840 812 869 715 866 586 L 866 248 C 866 212 871 189 881 179 C 891 169 914 164 950 162 L 932 -20 C 842 -30 774 -23 728 1 C 682 25 650 61 633 109 Z M 625 227 L 625 444 C 507 430 424 409 376 383 C 327 356 303 318 303 268 C 303 232 315 203 341 180 C 367 156 401 145 444 145 C 482 145 516 152 547 168 C 577 184 603 203 625 227 Z M 391 1219 C 391 1176 377 1141 351 1114 C 325 1086 290 1073 247 1073 C 205 1073 171 1086 144 1114 C 117 1141 104 1176 104 1219 C 104 1260 117 1294 144 1320 C 171 1346 205 1360 247 1360 C 290 1360 325 1346 351 1320 C 377 1294 391 1260 391 1219 Z M 839 1219 C 839 1176 825 1141 799 1114 C 773 1086 738 1073 696 1073 C 653 1073 618 1086 592 1114 C 565 1141 552 1176 552 1219 C 552 1260 565 1294 592 1320 C 618 1346 653 1360 696 1360 C 738 1360 773 1346 799 1320 C 825 1294 839 1260 839 1219 Z" unicode="ä" />
<glyph horiz-adv-x="985" d="M 633 109 L 625 109 C 591 67 552 34 510 8 C 467 -18 416 -31 358 -31 C 274 -31 204 -5 149 46 C 93 98 66 161 66 236 C 66 322 105 397 184 463 C 262 528 409 564 625 571 L 625 594 C 625 657 610 703 581 731 C 551 759 503 774 436 774 C 388 774 336 764 281 745 C 225 726 173 702 123 674 L 74 864 C 120 892 178 918 248 941 C 318 963 391 975 469 975 C 613 975 716 942 778 877 C 840 812 869 715 866 586 L 866 248 C 866 212 871 189 881 179 C 891 169 914 164 950 162 L 932 -20 C 842 -30 774 -23 728 1 C 682 25 650 61 633 109 Z M 625 227 L 625 444 C 507 430 424 409 376 383 C 327 356 303 318 303 268 C 303 232 315 203 341 180 C 367 156 401 145 444 145 C 482 145 516 152 547 168 C 577 184 603 203 625 227 Z M 733 1300 C 733 1236 708 1181 659 1136 C 610 1091 544 1069 461 1069 C 377 1069 310 1091 261 1136 C 212 1181 188 1236 188 1300 C 188 1364 212 1420 261 1466 C 310 1512 377 1536 461 1536 C 544 1536 610 1513 658 1467 C 706 1421 731 1365 733 1300 Z M 618 1303 C 618 1341 604 1374 576 1401 C 548 1428 509 1442 461 1442 C 413 1442 375 1428 347 1401 C 319 1374 305 1341 305 1303 C 305 1263 319 1230 347 1203 C 375 1176 413 1163 461 1163 C 509 1163 548 1176 576 1203 C 604 1230 618 1263 618 1303 Z" unicode="å" />
<glyph horiz-adv-x="1577" d="M 717 164 C 679 112 630 67 570 28 C 510 -11 440 -31 358 -31 C 274 -31 204 -5 149 46 C 93 98 66 161 66 236 C 66 322 106 397 188 463 C 270 529 421 565 641 571 L 641 590 C 641 658 623 705 589 733 C 554 760 503 774 436 774 C 388 774 336 764 281 745 C 225 726 173 702 123 674 L 74 864 C 120 892 178 918 248 941 C 318 963 392 975 471 975 C 558 975 627 963 679 940 C 731 916 771 885 799 846 C 836 885 882 916 936 940 C 990 963 1052 975 1120 975 C 1243 975 1337 939 1403 867 C 1468 795 1501 704 1501 592 C 1501 566 1499 539 1495 509 C 1491 479 1487 454 1481 434 L 864 426 L 864 420 C 868 343 895 281 945 233 C 995 185 1061 162 1145 162 C 1195 162 1246 169 1298 185 C 1350 200 1398 221 1440 248 L 1470 47 C 1425 22 1373 3 1314 -10 C 1254 -24 1192 -31 1128 -31 C 1037 -31 956 -13 885 22 C 814 57 758 104 717 164 Z M 641 444 C 519 434 432 414 380 386 C 328 357 303 318 303 268 C 303 232 316 203 342 180 C 368 156 405 145 451 145 C 489 145 529 155 570 177 C 610 198 644 225 670 258 C 662 277 656 307 651 348 C 645 388 642 420 641 444 Z M 868 567 L 1274 569 L 1274 586 C 1274 648 1259 698 1230 736 C 1201 774 1156 793 1096 793 C 1029 793 976 769 937 723 C 897 677 874 625 868 567 Z" unicode="æ" />
<glyph horiz-adv-x="965" d="M 485 -27 C 355 -11 254 39 182 127 C 110 214 74 328 74 469 C 74 621 120 744 212 836 C 304 928 423 975 571 975 C 635 975 695 968 750 954 C 805 940 854 920 897 895 L 846 700 C 807 724 766 743 722 756 C 678 769 634 776 590 776 C 503 776 437 748 391 693 C 345 638 322 565 322 475 C 322 379 346 304 396 250 C 446 196 510 170 590 170 C 638 170 685 176 730 189 C 774 202 815 220 852 244 L 891 47 C 856 27 815 10 769 -3 C 723 -16 673 -25 621 -29 C 598 -50 577 -70 557 -88 C 537 -106 525 -117 520 -121 C 595 -123 656 -140 704 -173 C 752 -205 776 -250 776 -307 C 776 -370 747 -423 689 -467 C 631 -511 537 -541 406 -557 L 391 -432 C 472 -426 530 -414 565 -395 C 600 -376 618 -352 618 -322 C 618 -287 598 -263 558 -249 C 518 -235 458 -233 377 -244 L 358 -147 L 485 -27 Z" unicode="ç" />
<glyph horiz-adv-x="1022" d="M 311 426 L 311 420 C 316 343 344 281 394 233 C 444 185 510 162 594 162 C 644 162 695 169 747 185 C 799 200 846 221 889 248 L 920 47 C 874 22 822 3 762 -10 C 702 -24 640 -31 578 -31 C 426 -31 304 13 212 103 C 120 193 74 313 74 463 C 74 615 120 739 212 833 C 304 927 420 975 561 975 C 685 975 781 940 849 870 C 916 800 950 707 950 592 C 950 566 948 539 944 509 C 940 479 936 454 930 434 C 928 434 825 432 619 430 C 413 427 311 426 311 426 Z M 317 567 L 723 569 L 723 586 C 723 648 708 698 679 736 C 650 774 605 793 543 793 C 476 793 423 769 385 723 C 346 677 323 625 317 567 Z M 637 1071 L 475 1071 L 153 1446 L 426 1446 L 637 1071 Z" unicode="è" />
<glyph horiz-adv-x="1022" d="M 311 426 L 311 420 C 316 343 344 281 394 233 C 444 185 510 162 594 162 C 644 162 695 169 747 185 C 799 200 846 221 889 248 L 920 47 C 874 22 822 3 762 -10 C 702 -24 640 -31 578 -31 C 426 -31 304 13 212 103 C 120 193 74 313 74 463 C 74 615 120 739 212 833 C 304 927 420 975 561 975 C 685 975 781 940 849 870 C 916 800 950 707 950 592 C 950 566 948 539 944 509 C 940 479 936 454 930 434 C 928 434 825 432 619 430 C 413 427 311 426 311 426 Z M 317 567 L 723 569 L 723 586 C 723 648 708 698 679 736 C 650 774 605 793 543 793 C 476 793 423 769 385 723 C 346 677 323 625 317 567 Z M 909 1446 L 587 1071 L 427 1071 L 636 1446 L 909 1446 Z" unicode="é" />
<glyph horiz-adv-x="1022" d="M 311 426 L 311 420 C 316 343 344 281 394 233 C 444 185 510 162 594 162 C 644 162 695 169 747 185 C 799 200 846 221 889 248 L 920 47 C 874 22 822 3 762 -10 C 702 -24 640 -31 578 -31 C 426 -31 304 13 212 103 C 120 193 74 313 74 463 C 74 615 120 739 212 833 C 304 927 420 975 561 975 C 685 975 781 940 849 870 C 916 800 950 707 950 592 C 950 566 948 539 944 509 C 940 479 936 454 930 434 C 928 434 825 432 619 430 C 413 427 311 426 311 426 Z M 317 567 L 723 569 L 723 586 C 723 648 708 698 679 736 C 650 774 605 793 543 793 C 476 793 423 769 385 723 C 346 677 323 625 317 567 Z M 864 1071 L 694 1071 L 510 1313 L 506 1313 L 323 1071 L 151 1071 L 391 1454 L 624 1454 L 864 1071 Z" unicode="ê" />
<glyph horiz-adv-x="1022" d="M 311 426 L 311 420 C 316 343 344 281 394 233 C 444 185 510 162 594 162 C 644 162 695 169 747 185 C 799 200 846 221 889 248 L 920 47 C 874 22 822 3 762 -10 C 702 -24 640 -31 578 -31 C 426 -31 304 13 212 103 C 120 193 74 313 74 463 C 74 615 120 739 212 833 C 304 927 420 975 561 975 C 685 975 781 940 849 870 C 916 800 950 707 950 592 C 950 566 948 539 944 509 C 940 479 936 454 930 434 C 928 434 825 432 619 430 C 413 427 311 426 311 426 Z M 317 567 L 723 569 L 723 586 C 723 648 708 698 679 736 C 650 774 605 793 543 793 C 476 793 423 769 385 723 C 346 677 323 625 317 567 Z M 438 1219 C 438 1176 424 1141 398 1114 C 372 1086 337 1073 294 1073 C 252 1073 218 1086 191 1114 C 164 1141 151 1176 151 1219 C 151 1260 164 1294 191 1320 C 218 1346 252 1360 294 1360 C 337 1360 372 1346 398 1320 C 424 1294 438 1260 438 1219 Z M 886 1219 C 886 1176 872 1141 846 1114 C 820 1086 785 1073 743 1073 C 700 1073 665 1086 639 1114 C 612 1141 599 1176 599 1219 C 599 1260 612 1294 639 1320 C 665 1346 700 1360 743 1360 C 785 1360 820 1346 846 1320 C 872 1294 886 1260 886 1219 Z" unicode="ë" />
<glyph horiz-adv-x="500" d="M 377 0 L 135 0 L 135 934 L 377 961 L 377 0 Z M 359 1071 L 197 1071 L -125 1446 L 148 1446 L 359 1071 Z" unicode="ì" />
<glyph horiz-adv-x="500" d="M 377 0 L 135 0 L 135 934 L 377 961 L 377 0 Z M 636 1446 L 314 1071 L 154 1071 L 363 1446 L 636 1446 Z" unicode="í" />
<glyph horiz-adv-x="500" d="M 377 0 L 135 0 L 135 934 L 377 961 L 377 0 Z M 615 1071 L 445 1071 L 261 1313 L 257 1313 L 74 1071 L -98 1071 L 142 1454 L 375 1454 L 615 1071 Z" unicode="î" />
<glyph horiz-adv-x="500" d="M 377 0 L 135 0 L 135 934 L 377 961 L 377 0 Z M 177 1219 C 177 1176 163 1141 137 1114 C 111 1086 76 1073 33 1073 C -8 1073 -42 1086 -69 1114 C -96 1141 -110 1176 -110 1219 C -110 1260 -96 1294 -69 1320 C -42 1346 -8 1360 33 1360 C 76 1360 111 1346 137 1320 C 163 1294 177 1260 177 1219 Z M 625 1219 C 625 1176 611 1141 585 1114 C 559 1086 524 1073 482 1073 C 439 1073 404 1086 378 1114 C 351 1141 338 1176 338 1219 C 338 1260 351 1294 378 1320 C 404 1346 439 1360 482 1360 C 524 1360 559 1346 585 1320 C 611 1294 625 1260 625 1219 Z" unicode="ï" />
<glyph horiz-adv-x="1135" d="M 1059 520 C 1059 366 1015 235 929 129 C 843 22 720 -31 561 -31 C 418 -31 301 12 211 100 C 121 188 76 300 76 438 C 76 592 121 708 212 788 C 302 867 394 907 487 907 C 547 907 598 896 640 876 C 681 855 718 828 750 795 L 754 797 C 733 841 698 894 650 954 C 602 1014 554 1068 506 1116 L 276 1055 L 240 1196 L 387 1235 C 360 1258 334 1281 308 1303 C 282 1325 255 1347 229 1368 L 500 1423 C 524 1403 547 1384 570 1364 C 593 1344 615 1324 637 1303 L 868 1364 L 903 1225 L 752 1186 C 840 1087 914 981 972 867 C 1030 753 1059 637 1059 520 Z M 813 465 C 813 499 809 531 803 561 C 796 590 788 616 780 639 C 762 663 733 683 691 699 C 649 715 603 723 553 723 C 491 723 437 698 393 650 C 348 602 326 536 326 453 C 326 361 349 290 396 242 C 443 194 501 170 571 170 C 640 170 698 195 744 247 C 790 298 813 371 813 465 Z" unicode="ð" />
<glyph horiz-adv-x="1108" d="M 985 0 L 743 0 L 743 575 C 743 644 729 692 702 720 C 674 748 634 762 580 762 C 538 762 498 752 461 734 C 424 716 394 696 371 674 L 371 0 L 129 0 L 129 940 L 371 973 L 371 823 C 412 869 460 905 514 933 C 568 961 624 975 682 975 C 776 975 850 946 904 888 C 958 830 985 750 985 649 L 985 0 Z M 929 1364 C 917 1260 895 1186 861 1143 C 827 1100 779 1079 718 1079 C 654 1079 594 1100 540 1143 C 485 1186 440 1208 405 1208 C 387 1208 373 1199 362 1182 C 350 1165 341 1135 335 1092 L 184 1092 C 195 1196 218 1270 253 1313 C 287 1356 335 1378 397 1378 C 460 1378 519 1356 574 1312 C 628 1268 673 1247 708 1247 C 725 1247 740 1255 752 1272 C 764 1289 772 1320 778 1364 L 929 1364 Z" unicode="ñ" />
<glyph horiz-adv-x="1114" d="M 1040 473 C 1040 319 992 196 898 105 C 804 14 688 -31 551 -31 C 413 -31 299 13 209 103 C 119 192 74 315 74 471 C 74 625 120 748 214 840 C 308 931 424 977 563 977 C 701 977 815 931 905 841 C 995 750 1040 627 1040 473 Z M 801 471 C 801 561 779 636 736 694 C 692 752 632 782 555 782 C 476 782 416 753 374 695 C 332 637 311 563 311 473 C 311 383 332 310 376 252 C 419 194 480 166 559 166 C 636 166 696 194 738 250 C 780 306 801 380 801 471 Z M 694 1071 L 532 1071 L 210 1446 L 483 1446 L 694 1071 Z" unicode="ò" />
<glyph horiz-adv-x="1114" d="M 1040 473 C 1040 319 992 196 898 105 C 804 14 688 -31 551 -31 C 413 -31 299 13 209 103 C 119 192 74 315 74 471 C 74 625 120 748 214 840 C 308 931 424 977 563 977 C 701 977 815 931 905 841 C 995 750 1040 627 1040 473 Z M 801 471 C 801 561 779 636 736 694 C 692 752 632 782 555 782 C 476 782 416 753 374 695 C 332 637 311 563 311 473 C 311 383 332 310 376 252 C 419 194 480 166 559 166 C 636 166 696 194 738 250 C 780 306 801 380 801 471 Z M 915 1446 L 593 1071 L 433 1071 L 642 1446 L 915 1446 Z" unicode="ó" />
<glyph horiz-adv-x="1114" d="M 1040 473 C 1040 319 992 196 898 105 C 804 14 688 -31 551 -31 C 413 -31 299 13 209 103 C 119 192 74 315 74 471 C 74 625 120 748 214 840 C 308 931 424 977 563 977 C 701 977 815 931 905 841 C 995 750 1040 627 1040 473 Z M 801 471 C 801 561 779 636 736 694 C 692 752 632 782 555 782 C 476 782 416 753 374 695 C 332 637 311 563 311 473 C 311 383 332 310 376 252 C 419 194 480 166 559 166 C 636 166 696 194 738 250 C 780 306 801 380 801 471 Z M 919 1071 L 749 1071 L 565 1313 L 561 1313 L 378 1071 L 206 1071 L 446 1454 L 679 1454 L 919 1071 Z" unicode="ô" />
<glyph horiz-adv-x="1114" d="M 1040 473 C 1040 319 992 196 898 105 C 804 14 688 -31 551 -31 C 413 -31 299 13 209 103 C 119 192 74 315 74 471 C 74 625 120 748 214 840 C 308 931 424 977 563 977 C 701 977 815 931 905 841 C 995 750 1040 627 1040 473 Z M 801 471 C 801 561 779 636 736 694 C 692 752 632 782 555 782 C 476 782 416 753 374 695 C 332 637 311 563 311 473 C 311 383 332 310 376 252 C 419 194 480 166 559 166 C 636 166 696 194 738 250 C 780 306 801 380 801 471 Z M 935 1364 C 923 1260 901 1186 867 1143 C 833 1100 785 1079 724 1079 C 660 1079 600 1100 546 1143 C 491 1186 446 1208 411 1208 C 393 1208 379 1199 368 1182 C 356 1165 347 1135 341 1092 L 190 1092 C 201 1196 224 1270 259 1313 C 293 1356 341 1378 403 1378 C 466 1378 525 1356 580 1312 C 634 1268 679 1247 714 1247 C 731 1247 746 1255 758 1272 C 770 1289 778 1320 784 1364 L 935 1364 Z" unicode="õ" />
<glyph horiz-adv-x="1114" d="M 1040 473 C 1040 319 992 196 898 105 C 804 14 688 -31 551 -31 C 413 -31 299 13 209 103 C 119 192 74 315 74 471 C 74 625 120 748 214 840 C 308 931 424 977 563 977 C 701 977 815 931 905 841 C 995 750 1040 627 1040 473 Z M 801 471 C 801 561 779 636 736 694 C 692 752 632 782 555 782 C 476 782 416 753 374 695 C 332 637 311 563 311 473 C 311 383 332 310 376 252 C 419 194 480 166 559 166 C 636 166 696 194 738 250 C 780 306 801 380 801 471 Z M 481 1219 C 481 1176 467 1141 441 1114 C 415 1086 380 1073 337 1073 C 295 1073 261 1086 234 1114 C 207 1141 194 1176 194 1219 C 194 1260 207 1294 234 1320 C 261 1346 295 1360 337 1360 C 380 1360 415 1346 441 1320 C 467 1294 481 1260 481 1219 Z M 929 1219 C 929 1176 915 1141 889 1114 C 863 1086 828 1073 786 1073 C 743 1073 708 1086 682 1114 C 655 1141 642 1176 642 1219 C 642 1260 655 1294 682 1320 C 708 1346 743 1360 786 1360 C 828 1360 863 1346 889 1320 C 915 1294 929 1260 929 1219 Z" unicode="ö" />
<glyph horiz-adv-x="1024" d="M 666 139 C 666 98 652 63 624 35 C 596 6 560 -8 516 -8 C 471 -8 434 6 405 35 C 376 63 362 98 362 139 C 362 181 376 215 405 243 C 434 271 471 285 516 285 C 560 285 596 271 624 243 C 652 215 666 181 666 139 Z M 666 829 C 666 788 651 754 622 726 C 593 698 556 684 512 684 C 468 684 432 698 404 726 C 376 754 362 788 362 829 C 362 871 376 906 404 935 C 432 964 468 979 512 979 C 556 979 593 964 622 935 C 651 906 666 871 666 829 Z M 954 389 L 70 389 L 76 582 L 948 582 L 954 389 Z" unicode="÷" />
<glyph horiz-adv-x="1114" d="M 1047 473 C 1047 319 1000 196 907 105 C 813 14 697 -31 559 -31 C 524 -31 490 -28 458 -22 C 425 -16 395 -7 367 4 L 283 -137 L 141 -137 C 141 -137 160 -103 200 -35 C 240 32 259 66 258 66 C 203 108 160 164 128 234 C 96 304 80 383 80 473 C 80 625 126 747 220 839 C 313 931 429 977 569 977 C 605 977 640 973 673 967 C 706 961 737 952 766 940 L 846 1077 L 989 1077 L 872 879 C 926 835 968 778 1000 709 C 1031 640 1047 561 1047 473 Z M 672 770 C 654 779 636 786 618 790 C 599 794 580 797 561 797 C 481 797 420 767 378 708 C 336 648 315 571 315 477 C 315 433 319 392 329 355 C 339 318 353 284 373 254 L 672 770 Z M 813 471 C 813 513 808 552 799 589 C 789 625 776 659 758 690 L 463 174 C 479 168 495 163 513 159 C 531 155 549 154 569 154 C 647 154 708 183 750 241 C 792 299 813 376 813 471 Z" unicode="ø" />
<glyph horiz-adv-x="1100" d="M 121 944 L 362 944 L 362 369 C 362 299 376 251 404 224 C 432 197 471 184 522 184 C 564 184 604 192 640 209 C 676 225 706 244 729 266 L 729 944 L 971 944 L 971 6 L 729 -27 L 729 113 C 690 71 643 36 589 9 C 535 -17 478 -31 418 -31 C 326 -31 253 -1 200 56 C 147 114 121 194 121 295 L 121 944 Z M 659 1071 L 497 1071 L 175 1446 L 448 1446 L 659 1071 Z" unicode="ù" />
<glyph horiz-adv-x="1100" d="M 121 944 L 362 944 L 362 369 C 362 299 376 251 404 224 C 432 197 471 184 522 184 C 564 184 604 192 640 209 C 676 225 706 244 729 266 L 729 944 L 971 944 L 971 6 L 729 -27 L 729 113 C 690 71 643 36 589 9 C 535 -17 478 -31 418 -31 C 326 -31 253 -1 200 56 C 147 114 121 194 121 295 L 121 944 Z M 930 1446 L 608 1071 L 448 1071 L 657 1446 L 930 1446 Z" unicode="ú" />
<glyph horiz-adv-x="1100" d="M 121 944 L 362 944 L 362 369 C 362 299 376 251 404 224 C 432 197 471 184 522 184 C 564 184 604 192 640 209 C 676 225 706 244 729 266 L 729 944 L 971 944 L 971 6 L 729 -27 L 729 113 C 690 71 643 36 589 9 C 535 -17 478 -31 418 -31 C 326 -31 253 -1 200 56 C 147 114 121 194 121 295 L 121 944 Z M 909 1071 L 739 1071 L 555 1313 L 551 1313 L 368 1071 L 196 1071 L 436 1454 L 669 1454 L 909 1071 Z" unicode="û" />
<glyph horiz-adv-x="1100" d="M 121 944 L 362 944 L 362 369 C 362 299 376 251 404 224 C 432 197 471 184 522 184 C 564 184 604 192 640 209 C 676 225 706 244 729 266 L 729 944 L 971 944 L 971 6 L 729 -27 L 729 113 C 690 71 643 36 589 9 C 535 -17 478 -31 418 -31 C 326 -31 253 -1 200 56 C 147 114 121 194 121 295 L 121 944 Z M 467 1219 C 467 1176 453 1141 427 1114 C 401 1086 366 1073 323 1073 C 281 1073 247 1086 220 1114 C 193 1141 180 1176 180 1219 C 180 1260 193 1294 220 1320 C 247 1346 281 1360 323 1360 C 366 1360 401 1346 427 1320 C 453 1294 467 1260 467 1219 Z M 915 1219 C 915 1176 901 1141 875 1114 C 849 1086 814 1073 772 1073 C 729 1073 694 1086 668 1114 C 641 1141 628 1176 628 1219 C 628 1260 641 1294 668 1320 C 694 1346 729 1360 772 1360 C 814 1360 849 1346 875 1320 C 901 1294 915 1260 915 1219 Z" unicode="ü" />
<glyph horiz-adv-x="971" d="M 975 944 L 614 18 L 559 -129 C 512 -257 459 -345 401 -393 C 343 -441 270 -465 184 -465 C 141 -465 100 -460 60 -450 C 20 -440 -17 -427 -55 -410 L 16 -211 C 44 -224 69 -235 93 -243 C 117 -251 141 -256 166 -256 C 200 -256 229 -245 251 -224 C 273 -203 298 -160 324 -96 L 365 12 L -4 944 L 256 944 L 492 268 L 717 944 L 975 944 Z M 868 1446 L 546 1071 L 386 1071 L 595 1446 L 868 1446 Z" unicode="ý" />
<glyph horiz-adv-x="1116" d="M 371 -2 L 371 -469 L 129 -469 L 129 1368 L 371 1401 L 371 860 C 402 887 439 913 483 938 C 526 962 575 975 629 975 C 756 975 858 928 934 836 C 1010 744 1049 625 1049 481 C 1049 331 1002 209 910 114 C 818 18 705 -29 571 -29 C 541 -29 507 -26 470 -22 C 433 -18 400 -11 371 -2 Z M 371 694 L 371 217 C 393 199 419 186 449 177 C 479 168 513 164 549 164 C 629 164 692 193 736 252 C 780 310 803 383 803 471 C 803 563 782 636 740 690 C 698 744 639 772 565 772 C 525 772 490 764 458 750 C 426 736 397 717 371 694 Z" unicode="þ" />
<glyph horiz-adv-x="971" d="M 975 944 L 614 18 L 559 -129 C 512 -257 459 -345 401 -393 C 343 -441 270 -465 184 -465 C 141 -465 100 -460 60 -450 C 20 -440 -17 -427 -55 -410 L 16 -211 C 44 -224 69 -235 93 -243 C 117 -251 141 -256 166 -256 C 200 -256 229 -245 251 -224 C 273 -203 298 -160 324 -96 L 365 12 L -4 944 L 256 944 L 492 268 L 717 944 L 975 944 Z M 405 1225 C 405 1182 391 1147 365 1120 C 339 1092 304 1079 261 1079 C 219 1079 185 1092 158 1120 C 131 1147 118 1182 118 1225 C 118 1266 131 1300 158 1326 C 185 1352 219 1366 261 1366 C 304 1366 339 1352 365 1326 C 391 1300 405 1266 405 1225 Z M 853 1225 C 853 1182 839 1147 813 1120 C 787 1092 752 1079 710 1079 C 667 1079 632 1092 606 1120 C 579 1147 566 1182 566 1225 C 566 1266 579 1300 606 1326 C 632 1352 667 1366 710 1366 C 752 1366 787 1352 813 1326 C 839 1300 853 1266 853 1225 Z" unicode="ÿ" />
<glyph horiz-adv-x="1249" d="M 778 1280 L 1239 0 L 987 0 L 881 303 L 365 303 L 260 0 L 8 0 L 475 1280 L 778 1280 Z M 817 510 L 625 1065 L 430 510 L 817 510 Z M 950 1447 L 297 1447 L 313 1588 L 934 1588 L 950 1447 Z" unicode="Ā" />
<glyph horiz-adv-x="987" d="M 633 109 L 625 109 C 591 67 552 34 510 8 C 467 -18 416 -31 358 -31 C 274 -31 204 -5 149 46 C 93 98 66 161 66 236 C 66 322 105 397 184 463 C 262 528 409 564 625 571 L 625 594 C 625 657 610 703 581 731 C 551 759 503 774 436 774 C 388 774 336 764 281 745 C 225 726 173 702 123 674 L 74 864 C 120 892 178 918 248 941 C 318 963 391 975 469 975 C 613 975 716 942 778 877 C 840 812 869 715 866 586 L 866 248 C 866 212 871 189 881 179 C 891 169 914 164 950 162 L 932 -20 C 842 -30 774 -23 728 1 C 682 25 650 61 633 109 Z M 625 227 L 625 444 C 507 430 424 409 376 383 C 327 356 303 318 303 268 C 303 232 315 203 341 180 C 367 156 401 145 444 145 C 482 145 516 152 547 168 C 577 184 603 203 625 227 Z M 798 1114 L 145 1114 L 161 1255 L 782 1255 L 798 1114 Z" unicode="ā" />
<glyph horiz-adv-x="1249" d="M 778 1280 L 1239 0 L 987 0 L 881 303 L 365 303 L 260 0 L 8 0 L 475 1280 L 778 1280 Z M 817 510 L 625 1065 L 430 510 L 817 510 Z M 975 1783 C 962 1661 924 1566 861 1498 C 798 1430 719 1396 625 1396 C 531 1396 452 1430 388 1498 C 324 1566 286 1661 274 1783 L 438 1781 C 450 1717 472 1664 502 1620 C 532 1576 573 1554 625 1554 C 677 1554 719 1576 749 1620 C 779 1664 799 1717 811 1781 L 975 1783 Z" unicode="Ă" />
<glyph horiz-adv-x="987" d="M 633 109 L 625 109 C 591 67 552 34 510 8 C 467 -18 416 -31 358 -31 C 274 -31 204 -5 149 46 C 93 98 66 161 66 236 C 66 322 105 397 184 463 C 262 528 409 564 625 571 L 625 594 C 625 657 610 703 581 731 C 551 759 503 774 436 774 C 388 774 336 764 281 745 C 225 726 173 702 123 674 L 74 864 C 120 892 178 918 248 941 C 318 963 391 975 469 975 C 613 975 716 942 778 877 C 840 812 869 715 866 586 L 866 248 C 866 212 871 189 881 179 C 891 169 914 164 950 162 L 932 -20 C 842 -30 774 -23 728 1 C 682 25 650 61 633 109 Z M 625 227 L 625 444 C 507 430 424 409 376 383 C 327 356 303 318 303 268 C 303 232 315 203 341 180 C 367 156 401 145 444 145 C 482 145 516 152 547 168 C 577 184 603 203 625 227 Z M 841 1450 C 828 1328 790 1233 727 1165 C 664 1097 585 1063 491 1063 C 397 1063 318 1097 254 1165 C 190 1233 152 1328 140 1450 L 304 1448 C 316 1384 338 1331 368 1287 C 398 1243 439 1221 491 1221 C 543 1221 585 1243 615 1287 C 645 1331 665 1384 677 1448 L 841 1450 Z" unicode="ă" />
<glyph horiz-adv-x="1249" d="M 780 1280 L 1241 0 C 1167 -9 1105 -31 1056 -66 C 1007 -101 983 -140 983 -182 C 983 -212 990 -235 1006 -253 C 1022 -270 1044 -279 1073 -279 C 1091 -279 1109 -276 1128 -270 C 1147 -264 1164 -257 1178 -248 L 1219 -391 C 1194 -407 1165 -421 1133 -432 C 1101 -443 1062 -449 1018 -449 C 949 -449 893 -430 850 -393 C 807 -356 786 -306 786 -244 C 786 -184 806 -132 848 -89 C 890 -46 936 -16 987 2 L 881 303 L 367 303 L 262 0 L 8 0 L 475 1280 L 780 1280 Z M 817 510 L 627 1063 L 432 510 L 817 510 Z" unicode="Ą" />
<glyph horiz-adv-x="987" d="M 633 109 L 625 109 C 590 67 551 34 509 8 C 467 -18 416 -31 358 -31 C 273 -31 203 -5 148 47 C 93 99 66 162 66 236 C 66 322 105 397 184 463 C 263 528 410 564 625 571 L 625 594 C 625 656 610 702 581 730 C 551 758 503 772 436 772 C 388 772 337 762 282 743 C 226 724 173 700 123 672 L 74 864 C 120 892 178 918 248 941 C 318 963 393 975 471 975 C 615 975 718 942 780 877 C 841 812 870 714 868 584 L 868 250 C 868 214 873 191 883 181 C 893 171 916 165 952 164 L 934 -20 C 868 -24 813 -41 768 -69 C 722 -97 700 -134 700 -182 C 700 -212 708 -235 724 -253 C 740 -270 762 -279 791 -279 C 808 -279 826 -276 845 -270 C 864 -264 881 -257 895 -248 L 934 -391 C 910 -407 882 -421 850 -432 C 817 -443 779 -449 735 -449 C 665 -449 609 -430 566 -393 C 523 -356 502 -306 502 -244 C 502 -185 521 -133 560 -88 C 598 -42 645 -7 700 18 C 684 29 670 42 658 58 C 646 74 638 91 633 109 Z M 625 227 L 625 444 C 509 430 426 410 378 384 C 329 357 305 318 305 268 C 305 232 317 203 343 180 C 368 156 402 145 444 145 C 482 145 517 153 547 170 C 577 186 603 205 625 227 Z" unicode="ą" />
<glyph horiz-adv-x="1243" d="M 991 1779 L 669 1404 L 509 1404 L 718 1779 L 991 1779 Z M 1167 1210 L 1090 993 C 1038 1027 985 1052 929 1070 C 873 1087 814 1096 754 1096 C 629 1096 528 1055 452 974 C 376 893 338 783 338 645 C 338 504 375 392 451 309 C 527 225 629 184 758 184 C 823 184 886 195 947 217 C 1007 239 1061 266 1108 299 L 1155 70 C 1104 39 1041 14 967 -3 C 893 -21 820 -31 748 -31 C 552 -31 392 28 270 146 C 147 264 86 428 86 637 C 86 841 147 1004 271 1127 C 394 1249 555 1311 754 1311 C 828 1311 901 1301 975 1283 C 1048 1265 1112 1240 1167 1210 Z" unicode="Ć" />
<glyph horiz-adv-x="963" d="M 850 1446 L 528 1071 L 368 1071 L 577 1446 L 850 1446 Z M 891 47 C 850 22 801 3 744 -10 C 686 -24 626 -31 563 -31 C 410 -31 290 13 204 103 C 117 193 74 315 74 469 C 74 621 120 744 212 836 C 304 928 423 975 571 975 C 635 975 695 968 750 954 C 805 940 854 920 897 895 L 846 700 C 807 724 766 743 722 756 C 678 769 634 776 590 776 C 503 776 437 748 391 693 C 345 638 322 565 322 475 C 322 379 346 304 396 250 C 446 196 510 170 590 170 C 638 170 685 176 730 189 C 774 202 815 220 852 244 L 891 47 Z" unicode="ć" />
<glyph horiz-adv-x="1243" d="M 1042 1404 L 872 1404 L 688 1646 L 684 1646 L 501 1404 L 329 1404 L 569 1787 L 802 1787 L 1042 1404 Z M 1167 1210 L 1090 993 C 1038 1027 985 1052 929 1070 C 873 1087 814 1096 754 1096 C 629 1096 528 1055 452 974 C 376 893 338 783 338 645 C 338 504 375 392 451 309 C 527 225 629 184 758 184 C 823 184 886 195 947 217 C 1007 239 1061 266 1108 299 L 1155 70 C 1104 39 1041 14 967 -3 C 893 -21 820 -31 748 -31 C 552 -31 392 28 270 146 C 147 264 86 428 86 637 C 86 841 147 1004 271 1127 C 394 1249 555 1311 754 1311 C 828 1311 901 1301 975 1283 C 1048 1265 1112 1240 1167 1210 Z" unicode="Ĉ" />
<glyph horiz-adv-x="963" d="M 897 1071 L 727 1071 L 543 1313 L 539 1313 L 356 1071 L 184 1071 L 424 1454 L 657 1454 L 897 1071 Z M 891 47 C 850 22 801 3 744 -10 C 686 -24 626 -31 563 -31 C 410 -31 290 13 204 103 C 117 193 74 315 74 469 C 74 621 120 744 212 836 C 304 928 423 975 571 975 C 635 975 695 968 750 954 C 805 940 854 920 897 895 L 846 700 C 807 724 766 743 722 756 C 678 769 634 776 590 776 C 503 776 437 748 391 693 C 345 638 322 565 322 475 C 322 379 346 304 396 250 C 446 196 510 170 590 170 C 638 170 685 176 730 189 C 774 202 815 220 852 244 L 891 47 Z" unicode="ĉ" />
<glyph horiz-adv-x="1243" d="M 1167 1210 L 1090 993 C 1038 1027 985 1052 929 1070 C 873 1087 814 1096 754 1096 C 629 1096 528 1055 452 974 C 376 893 338 783 338 645 C 338 504 375 392 451 309 C 527 225 629 184 758 184 C 823 184 886 195 947 217 C 1007 239 1061 266 1108 299 L 1155 70 C 1104 39 1041 14 967 -3 C 893 -21 820 -31 748 -31 C 552 -31 392 28 270 146 C 147 264 86 428 86 637 C 86 841 147 1004 271 1127 C 394 1249 555 1311 754 1311 C 828 1311 901 1301 975 1283 C 1048 1265 1112 1240 1167 1210 Z M 849 1549 C 849 1507 835 1472 809 1442 C 782 1412 747 1398 704 1398 C 660 1398 624 1412 598 1442 C 571 1472 558 1507 558 1549 C 558 1589 571 1624 598 1654 C 624 1684 660 1699 704 1699 C 747 1699 782 1684 809 1654 C 835 1624 849 1589 849 1549 Z" unicode="Ċ" />
<glyph horiz-adv-x="963" d="M 891 47 C 850 22 801 3 744 -10 C 686 -24 626 -31 563 -31 C 410 -31 290 13 204 103 C 117 193 74 315 74 469 C 74 621 120 744 212 836 C 304 928 423 975 571 975 C 635 975 695 968 750 954 C 805 940 854 920 897 895 L 846 700 C 807 724 766 743 722 756 C 678 769 634 776 590 776 C 503 776 437 748 391 693 C 345 638 322 565 322 475 C 322 379 346 304 396 250 C 446 196 510 170 590 170 C 638 170 685 176 730 189 C 774 202 815 220 852 244 L 891 47 Z M 714 1214 C 714 1172 700 1137 674 1107 C 647 1077 612 1063 569 1063 C 525 1063 489 1077 463 1107 C 436 1137 423 1172 423 1214 C 423 1254 436 1289 463 1319 C 489 1349 525 1364 569 1364 C 612 1364 647 1349 674 1319 C 700 1289 714 1254 714 1214 Z" unicode="ċ" />
<glyph horiz-adv-x="1243" d="M 1048 1787 L 808 1404 L 575 1404 L 335 1787 L 505 1787 L 690 1547 L 694 1547 L 876 1787 L 1048 1787 Z M 1167 1210 L 1090 993 C 1038 1027 985 1052 929 1070 C 873 1087 814 1096 754 1096 C 629 1096 528 1055 452 974 C 376 893 338 783 338 645 C 338 504 375 392 451 309 C 527 225 629 184 758 184 C 823 184 886 195 947 217 C 1007 239 1061 266 1108 299 L 1155 70 C 1104 39 1041 14 967 -3 C 893 -21 820 -31 748 -31 C 552 -31 392 28 270 146 C 147 264 86 428 86 637 C 86 841 147 1004 271 1127 C 394 1249 555 1311 754 1311 C 828 1311 901 1301 975 1283 C 1048 1265 1112 1240 1167 1210 Z" unicode="Č" />
<glyph horiz-adv-x="963" d="M 890 1454 L 650 1071 L 417 1071 L 177 1454 L 347 1454 L 532 1214 L 536 1214 L 718 1454 L 890 1454 Z M 891 47 C 850 22 801 3 744 -10 C 686 -24 626 -31 563 -31 C 410 -31 290 13 204 103 C 117 193 74 315 74 469 C 74 621 120 744 212 836 C 304 928 423 975 571 975 C 635 975 695 968 750 954 C 805 940 854 920 897 895 L 846 700 C 807 724 766 743 722 756 C 678 769 634 776 590 776 C 503 776 437 748 391 693 C 345 638 322 565 322 475 C 322 379 346 304 396 250 C 446 196 510 170 590 170 C 638 170 685 176 730 189 C 774 202 815 220 852 244 L 891 47 Z" unicode="č" />
<glyph horiz-adv-x="1358" d="M 950 1787 L 710 1404 L 477 1404 L 237 1787 L 407 1787 L 592 1547 L 596 1547 L 778 1787 L 950 1787 Z M 1272 649 C 1272 452 1210 295 1088 177 C 966 59 791 0 565 0 L 147 0 L 147 1280 L 582 1280 C 798 1280 967 1222 1089 1106 C 1211 990 1272 838 1272 649 Z M 1022 637 C 1022 780 982 888 904 960 C 825 1032 713 1069 567 1069 L 397 1069 L 397 211 L 580 211 C 714 211 821 246 901 317 C 981 388 1022 495 1022 637 Z" unicode="Ď" />
<glyph horiz-adv-x="1604" d="M 1178 1263 C 1182 1307 1201 1343 1234 1373 C 1266 1402 1308 1417 1358 1417 C 1414 1417 1463 1395 1505 1351 C 1546 1307 1567 1255 1567 1194 C 1567 1104 1533 1025 1466 958 C 1398 891 1324 833 1243 784 L 1137 880 C 1201 925 1251 967 1288 1007 C 1324 1046 1343 1083 1343 1118 C 1343 1144 1331 1168 1307 1190 C 1283 1211 1240 1235 1178 1263 Z M 752 944 L 752 1368 L 993 1401 L 993 0 L 752 0 L 752 92 C 720 61 682 33 638 7 C 594 -18 543 -31 485 -31 C 361 -31 261 15 186 107 C 111 199 74 319 74 465 C 74 615 120 737 212 832 C 304 927 417 975 551 975 C 584 975 618 972 654 966 C 689 960 722 953 752 944 Z M 752 727 C 728 744 701 757 671 767 C 641 777 609 782 573 782 C 493 782 430 752 386 693 C 341 634 319 561 319 475 C 319 383 340 310 384 256 C 427 201 485 174 557 174 C 597 174 632 180 664 194 C 696 208 725 227 752 252 L 752 727 Z" unicode="ď" />
<glyph horiz-adv-x="1407" d="M 203 547 L 33 547 L 33 748 L 203 748 L 203 1280 L 635 1280 C 853 1280 1022 1222 1144 1106 C 1266 990 1327 838 1327 649 C 1327 452 1265 295 1143 177 C 1021 59 847 0 621 0 L 203 0 L 203 547 Z M 453 748 L 743 748 L 743 547 L 453 547 L 453 211 L 621 211 C 755 211 864 246 949 317 C 1034 388 1077 495 1077 637 C 1077 780 1035 888 952 960 C 868 1032 754 1069 608 1069 L 453 1069 L 453 748 Z" unicode="Đ" />
<glyph horiz-adv-x="1122" d="M 752 944 L 752 1071 L 510 1071 L 526 1217 L 752 1217 L 752 1368 L 993 1401 L 993 1217 L 1110 1217 L 1126 1071 L 993 1071 L 993 0 L 752 0 L 752 92 C 720 61 682 33 638 7 C 594 -18 543 -31 485 -31 C 361 -31 261 15 186 107 C 111 199 74 319 74 465 C 74 615 120 737 212 832 C 304 927 417 975 551 975 C 584 975 618 972 654 966 C 689 960 722 953 752 944 Z M 752 727 C 728 744 701 757 671 767 C 641 777 609 782 573 782 C 493 782 430 752 386 693 C 341 634 319 561 319 475 C 319 383 340 310 384 256 C 427 201 485 174 557 174 C 597 174 632 180 664 194 C 696 208 725 227 752 252 L 752 727 Z" unicode="đ" />
<glyph horiz-adv-x="1116" d="M 1020 0 L 147 0 L 147 1280 L 1020 1280 L 1020 1069 L 393 1069 L 393 748 L 907 748 L 907 537 L 393 537 L 393 211 L 1020 211 L 1020 0 Z M 907 1447 L 254 1447 L 270 1588 L 891 1588 L 907 1447 Z" unicode="Ē" />
<glyph horiz-adv-x="1024" d="M 311 426 L 311 420 C 316 343 344 281 394 233 C 444 185 510 162 594 162 C 644 162 695 169 747 185 C 799 200 846 221 889 248 L 920 47 C 874 22 822 3 762 -10 C 702 -24 640 -31 578 -31 C 426 -31 304 13 212 103 C 120 193 74 313 74 463 C 74 615 120 739 212 833 C 304 927 420 975 561 975 C 685 975 781 940 849 870 C 916 800 950 707 950 592 C 950 566 948 539 944 509 C 940 479 936 454 930 434 C 928 434 825 432 619 430 C 413 427 311 426 311 426 Z M 317 567 L 723 569 L 723 586 C 723 648 708 698 679 736 C 650 774 605 793 543 793 C 476 793 423 769 385 723 C 346 677 323 625 317 567 Z M 853 1114 L 200 1114 L 216 1255 L 837 1255 L 853 1114 Z" unicode="ē" />
<glyph horiz-adv-x="1116" d="M 1020 0 L 147 0 L 147 1280 L 1020 1280 L 1020 1069 L 393 1069 L 393 748 L 907 748 L 907 537 L 393 537 L 393 211 L 1020 211 L 1020 0 Z M 958 1783 C 945 1661 907 1566 844 1498 C 781 1430 702 1396 608 1396 C 514 1396 435 1430 371 1498 C 307 1566 269 1661 257 1783 L 421 1781 C 433 1717 455 1664 485 1620 C 515 1576 556 1554 608 1554 C 660 1554 702 1576 732 1620 C 762 1664 782 1717 794 1781 L 958 1783 Z" unicode="Ĕ" />
<glyph horiz-adv-x="1024" d="M 311 426 L 311 420 C 316 343 344 281 394 233 C 444 185 510 162 594 162 C 644 162 695 169 747 185 C 799 200 846 221 889 248 L 920 47 C 874 22 822 3 762 -10 C 702 -24 640 -31 578 -31 C 426 -31 304 13 212 103 C 120 193 74 313 74 463 C 74 615 120 739 212 833 C 304 927 420 975 561 975 C 685 975 781 940 849 870 C 916 800 950 707 950 592 C 950 566 948 539 944 509 C 940 479 936 454 930 434 C 928 434 825 432 619 430 C 413 427 311 426 311 426 Z M 317 567 L 723 569 L 723 586 C 723 648 708 698 679 736 C 650 774 605 793 543 793 C 476 793 423 769 385 723 C 346 677 323 625 317 567 Z M 876 1450 C 863 1328 825 1233 762 1165 C 699 1097 620 1063 526 1063 C 432 1063 353 1097 289 1165 C 225 1233 187 1328 175 1450 L 339 1448 C 351 1384 373 1331 403 1287 C 433 1243 474 1221 526 1221 C 578 1221 620 1243 650 1287 C 680 1331 700 1384 712 1448 L 876 1450 Z" unicode="ĕ" />
<glyph horiz-adv-x="1116" d="M 1020 0 L 147 0 L 147 1280 L 1020 1280 L 1020 1069 L 393 1069 L 393 748 L 907 748 L 907 537 L 393 537 L 393 211 L 1020 211 L 1020 0 Z M 737 1547 C 737 1505 723 1470 697 1440 C 670 1410 635 1396 592 1396 C 548 1396 512 1410 486 1440 C 459 1470 446 1505 446 1547 C 446 1587 459 1622 486 1652 C 512 1682 548 1697 592 1697 C 635 1697 670 1682 697 1652 C 723 1622 737 1587 737 1547 Z" unicode="Ė" />
<glyph horiz-adv-x="1024" d="M 311 426 L 311 420 C 316 343 344 281 394 233 C 444 185 510 162 594 162 C 644 162 695 169 747 185 C 799 200 846 221 889 248 L 920 47 C 874 22 822 3 762 -10 C 702 -24 640 -31 578 -31 C 426 -31 304 13 212 103 C 120 193 74 313 74 463 C 74 615 120 739 212 833 C 304 927 420 975 561 975 C 685 975 781 940 849 870 C 916 800 950 707 950 592 C 950 566 948 539 944 509 C 940 479 936 454 930 434 C 928 434 825 432 619 430 C 413 427 311 426 311 426 Z M 317 567 L 723 569 L 723 586 C 723 648 708 698 679 736 C 650 774 605 793 543 793 C 476 793 423 769 385 723 C 346 677 323 625 317 567 Z M 673 1214 C 673 1172 659 1137 633 1107 C 606 1077 571 1063 528 1063 C 484 1063 448 1077 422 1107 C 395 1137 382 1172 382 1214 C 382 1254 395 1289 422 1319 C 448 1349 484 1364 528 1364 C 571 1364 606 1349 633 1319 C 659 1289 673 1254 673 1214 Z" unicode="ė" />
<glyph horiz-adv-x="1116" d="M 1022 0 L 903 0 C 866 -27 837 -55 817 -85 C 796 -115 786 -147 786 -182 C 786 -212 794 -235 810 -253 C 826 -270 848 -279 877 -279 C 895 -279 913 -276 932 -270 C 951 -264 967 -257 981 -248 L 1022 -391 C 997 -407 968 -421 936 -432 C 904 -443 865 -449 821 -449 C 753 -449 697 -430 654 -393 C 611 -355 590 -306 590 -244 C 590 -192 605 -145 637 -103 C 669 -61 708 -26 754 0 L 147 0 L 147 1280 L 1022 1280 L 1022 1067 L 395 1067 L 395 750 L 909 750 L 909 535 L 395 535 L 395 213 L 1022 213 L 1022 0 Z" unicode="Ę" />
<glyph horiz-adv-x="1024" d="M 313 426 L 313 420 C 319 343 346 281 396 234 C 446 187 512 164 594 164 C 644 164 695 171 747 186 C 799 201 846 222 889 250 L 920 47 C 865 32 812 4 761 -37 C 709 -79 684 -127 684 -182 C 684 -212 691 -235 707 -253 C 723 -270 745 -279 774 -279 C 792 -279 810 -276 829 -270 C 848 -264 865 -257 879 -248 L 920 -391 C 895 -407 866 -421 834 -432 C 802 -443 763 -449 719 -449 C 650 -449 594 -430 551 -393 C 508 -356 487 -306 487 -244 C 487 -200 498 -160 520 -124 C 542 -88 570 -57 606 -31 L 578 -31 C 427 -31 305 13 213 103 C 120 193 74 313 74 463 C 74 615 120 739 212 833 C 304 927 420 975 561 975 C 687 975 783 939 851 869 C 918 799 952 706 952 592 C 952 566 950 538 946 509 C 942 479 937 454 932 434 C 930 434 827 432 621 430 C 415 427 313 426 313 426 Z M 319 567 L 721 569 C 722 570 723 573 723 577 C 723 581 723 584 723 586 C 723 648 708 698 680 736 C 651 774 605 793 543 793 C 477 793 424 770 386 724 C 347 678 325 625 319 567 Z" unicode="ę" />
<glyph horiz-adv-x="1116" d="M 954 1787 L 714 1404 L 481 1404 L 241 1787 L 411 1787 L 596 1547 L 600 1547 L 782 1787 L 954 1787 Z M 1020 0 L 147 0 L 147 1280 L 1020 1280 L 1020 1069 L 393 1069 L 393 748 L 907 748 L 907 537 L 393 537 L 393 211 L 1020 211 L 1020 0 Z" unicode="Ě" />
<glyph horiz-adv-x="1024" d="M 882 1454 L 642 1071 L 409 1071 L 169 1454 L 339 1454 L 524 1214 L 528 1214 L 710 1454 L 882 1454 Z M 311 426 L 311 420 C 316 343 344 281 394 233 C 444 185 510 162 594 162 C 644 162 695 169 747 185 C 799 200 846 221 889 248 L 920 47 C 874 22 822 3 762 -10 C 702 -24 640 -31 578 -31 C 426 -31 304 13 212 103 C 120 193 74 313 74 463 C 74 615 120 739 212 833 C 304 927 420 975 561 975 C 685 975 781 940 849 870 C 916 800 950 707 950 592 C 950 566 948 539 944 509 C 940 479 936 454 930 434 C 928 434 825 432 619 430 C 413 427 311 426 311 426 Z M 317 567 L 723 569 L 723 586 C 723 648 708 698 679 736 C 650 774 605 793 543 793 C 476 793 423 769 385 723 C 346 677 323 625 317 567 Z" unicode="ě" />
<glyph horiz-adv-x="1346" d="M 1054 1404 L 884 1404 L 700 1646 L 696 1646 L 513 1404 L 341 1404 L 581 1787 L 814 1787 L 1054 1404 Z M 1231 90 C 1162 51 1085 21 1000 0 C 914 -20 832 -31 752 -31 C 556 -31 396 28 272 148 C 148 267 86 430 86 637 C 86 843 147 1006 271 1128 C 395 1250 556 1311 754 1311 C 831 1311 911 1301 995 1281 C 1079 1261 1149 1234 1206 1200 L 1126 983 C 1070 1017 1010 1045 947 1065 C 884 1085 821 1096 758 1096 C 631 1096 529 1055 453 973 C 376 891 338 782 338 645 C 338 502 375 389 450 305 C 524 221 627 180 758 180 C 802 180 846 185 888 195 C 930 205 967 217 999 231 L 999 477 L 664 477 L 664 688 L 1231 688 L 1231 90 Z" unicode="Ĝ" />
<glyph horiz-adv-x="1030" d="M 847 1071 L 677 1071 L 493 1313 L 489 1313 L 306 1071 L 134 1071 L 374 1454 L 607 1454 L 847 1071 Z M 219 -39 C 178 -25 144 -3 117 25 C 89 53 76 87 76 125 C 76 167 92 207 124 243 C 156 279 198 306 250 324 C 198 350 156 388 125 440 C 93 491 78 549 78 614 C 78 711 114 795 188 867 C 261 939 363 975 494 975 C 546 975 596 968 642 956 C 688 943 727 929 760 915 L 1014 938 L 1024 727 L 844 758 C 856 744 866 722 874 692 C 882 662 887 634 887 610 C 887 514 850 433 776 366 C 702 299 608 266 492 266 C 469 266 448 267 429 269 C 410 271 388 276 362 283 C 346 276 329 265 313 251 C 297 237 289 220 289 201 C 289 175 302 156 329 144 C 356 132 407 127 483 127 L 582 127 C 716 127 820 106 894 65 C 968 24 1006 -41 1006 -133 C 1006 -244 951 -335 842 -405 C 732 -475 603 -510 455 -510 C 330 -510 224 -487 137 -442 C 49 -397 6 -332 6 -248 C 6 -198 24 -154 60 -115 C 96 -75 149 -50 219 -39 Z M 344 -72 C 310 -84 282 -101 259 -123 C 236 -145 225 -170 225 -199 C 225 -242 249 -278 299 -306 C 349 -334 414 -348 494 -348 C 576 -348 645 -333 701 -305 C 757 -276 786 -237 786 -188 C 786 -144 764 -115 721 -101 C 677 -87 612 -80 524 -80 C 494 -80 462 -79 426 -77 C 390 -75 363 -74 344 -72 Z M 311 612 C 311 556 327 510 359 476 C 391 441 437 424 496 424 C 550 424 591 442 621 478 C 651 514 666 561 666 621 C 666 677 651 722 621 758 C 591 793 545 811 485 811 C 432 811 390 792 358 756 C 326 719 311 671 311 612 Z" unicode="ĝ" />
<glyph horiz-adv-x="1346" d="M 1231 90 C 1162 51 1085 21 1000 0 C 914 -20 832 -31 752 -31 C 556 -31 396 28 272 148 C 148 267 86 430 86 637 C 86 843 147 1006 271 1128 C 395 1250 556 1311 754 1311 C 831 1311 911 1301 995 1281 C 1079 1261 1149 1234 1206 1200 L 1126 983 C 1070 1017 1010 1045 947 1065 C 884 1085 821 1096 758 1096 C 631 1096 529 1055 453 973 C 376 891 338 782 338 645 C 338 502 375 389 450 305 C 524 221 627 180 758 180 C 802 180 846 185 888 195 C 930 205 967 217 999 231 L 999 477 L 664 477 L 664 688 L 1231 688 L 1231 90 Z M 1040 1783 C 1027 1661 989 1566 926 1498 C 863 1430 784 1396 690 1396 C 596 1396 517 1430 453 1498 C 389 1566 351 1661 339 1783 L 503 1781 C 515 1717 537 1664 567 1620 C 597 1576 638 1554 690 1554 C 742 1554 784 1576 814 1620 C 844 1664 864 1717 876 1781 L 1040 1783 Z" unicode="Ğ" />
<glyph horiz-adv-x="1030" d="M 219 -39 C 178 -25 144 -3 117 25 C 89 53 76 87 76 125 C 76 167 92 207 124 243 C 156 279 198 306 250 324 C 198 350 156 388 125 440 C 93 491 78 549 78 614 C 78 711 114 795 188 867 C 261 939 363 975 494 975 C 546 975 596 968 642 956 C 688 943 727 929 760 915 L 1014 938 L 1024 727 L 844 758 C 856 744 866 722 874 692 C 882 662 887 634 887 610 C 887 514 850 433 776 366 C 702 299 608 266 492 266 C 469 266 448 267 429 269 C 410 271 388 276 362 283 C 346 276 329 265 313 251 C 297 237 289 220 289 201 C 289 175 302 156 329 144 C 356 132 407 127 483 127 L 582 127 C 716 127 820 106 894 65 C 968 24 1006 -41 1006 -133 C 1006 -244 951 -335 842 -405 C 732 -475 603 -510 455 -510 C 330 -510 224 -487 137 -442 C 49 -397 6 -332 6 -248 C 6 -198 24 -154 60 -115 C 96 -75 149 -50 219 -39 Z M 344 -72 C 310 -84 282 -101 259 -123 C 236 -145 225 -170 225 -199 C 225 -242 249 -278 299 -306 C 349 -334 414 -348 494 -348 C 576 -348 645 -333 701 -305 C 757 -276 786 -237 786 -188 C 786 -144 764 -115 721 -101 C 677 -87 612 -80 524 -80 C 494 -80 462 -79 426 -77 C 390 -75 363 -74 344 -72 Z M 311 612 C 311 556 327 510 359 476 C 391 441 437 424 496 424 C 550 424 591 442 621 478 C 651 514 666 561 666 621 C 666 677 651 722 621 758 C 591 793 545 811 485 811 C 432 811 390 792 358 756 C 326 719 311 671 311 612 Z M 860 1450 C 847 1328 809 1233 746 1165 C 683 1097 604 1063 510 1063 C 416 1063 337 1097 273 1165 C 209 1233 171 1328 159 1450 L 323 1448 C 335 1384 357 1331 387 1287 C 417 1243 458 1221 510 1221 C 562 1221 604 1243 634 1287 C 664 1331 684 1384 696 1448 L 860 1450 Z" unicode="ğ" />
<glyph horiz-adv-x="1346" d="M 1231 90 C 1162 51 1085 21 1000 0 C 914 -20 832 -31 752 -31 C 556 -31 396 28 272 148 C 148 267 86 430 86 637 C 86 843 147 1006 271 1128 C 395 1250 556 1311 754 1311 C 831 1311 911 1301 995 1281 C 1079 1261 1149 1234 1206 1200 L 1126 983 C 1070 1017 1010 1045 947 1065 C 884 1085 821 1096 758 1096 C 631 1096 529 1055 453 973 C 376 891 338 782 338 645 C 338 502 375 389 450 305 C 524 221 627 180 758 180 C 802 180 846 185 888 195 C 930 205 967 217 999 231 L 999 477 L 664 477 L 664 688 L 1231 688 L 1231 90 Z M 882 1547 C 882 1505 868 1470 842 1440 C 815 1410 780 1396 737 1396 C 693 1396 657 1410 631 1440 C 604 1470 591 1505 591 1547 C 591 1587 604 1622 631 1652 C 657 1682 693 1697 737 1697 C 780 1697 815 1682 842 1652 C 868 1622 882 1587 882 1547 Z" unicode="Ġ" />
<glyph horiz-adv-x="1030" d="M 219 -39 C 178 -25 144 -3 117 25 C 89 53 76 87 76 125 C 76 167 92 207 124 243 C 156 279 198 306 250 324 C 198 350 156 388 125 440 C 93 491 78 549 78 614 C 78 711 114 795 188 867 C 261 939 363 975 494 975 C 546 975 596 968 642 956 C 688 943 727 929 760 915 L 1014 938 L 1024 727 L 844 758 C 856 744 866 722 874 692 C 882 662 887 634 887 610 C 887 514 850 433 776 366 C 702 299 608 266 492 266 C 469 266 448 267 429 269 C 410 271 388 276 362 283 C 346 276 329 265 313 251 C 297 237 289 220 289 201 C 289 175 302 156 329 144 C 356 132 407 127 483 127 L 582 127 C 716 127 820 106 894 65 C 968 24 1006 -41 1006 -133 C 1006 -244 951 -335 842 -405 C 732 -475 603 -510 455 -510 C 330 -510 224 -487 137 -442 C 49 -397 6 -332 6 -248 C 6 -198 24 -154 60 -115 C 96 -75 149 -50 219 -39 Z M 344 -72 C 310 -84 282 -101 259 -123 C 236 -145 225 -170 225 -199 C 225 -242 249 -278 299 -306 C 349 -334 414 -348 494 -348 C 576 -348 645 -333 701 -305 C 757 -276 786 -237 786 -188 C 786 -144 764 -115 721 -101 C 677 -87 612 -80 524 -80 C 494 -80 462 -79 426 -77 C 390 -75 363 -74 344 -72 Z M 311 612 C 311 556 327 510 359 476 C 391 441 437 424 496 424 C 550 424 591 442 621 478 C 651 514 666 561 666 621 C 666 677 651 722 621 758 C 591 793 545 811 485 811 C 432 811 390 792 358 756 C 326 719 311 671 311 612 Z M 647 1214 C 647 1172 633 1137 607 1107 C 580 1077 545 1063 502 1063 C 458 1063 422 1077 396 1107 C 369 1137 356 1172 356 1214 C 356 1254 369 1289 396 1319 C 422 1349 458 1364 502 1364 C 545 1364 580 1349 607 1319 C 633 1289 647 1254 647 1214 Z" unicode="ġ" />
<glyph horiz-adv-x="1346" d="M 602 -229 C 604 -197 617 -169 641 -143 C 665 -117 699 -104 741 -104 C 787 -104 826 -120 858 -152 C 889 -184 905 -225 905 -274 C 905 -339 882 -396 836 -445 C 790 -493 729 -534 653 -567 L 589 -504 C 641 -471 676 -441 695 -415 C 713 -389 723 -364 723 -342 C 723 -319 715 -299 700 -282 C 685 -265 652 -247 602 -229 Z M 1231 90 C 1162 51 1085 21 1000 0 C 914 -20 832 -31 752 -31 C 556 -31 396 28 272 148 C 148 267 86 430 86 637 C 86 843 147 1006 271 1128 C 395 1250 556 1311 754 1311 C 831 1311 911 1301 995 1281 C 1079 1261 1149 1234 1206 1200 L 1126 983 C 1070 1017 1010 1045 947 1065 C 884 1085 821 1096 758 1096 C 631 1096 529 1055 453 973 C 376 891 338 782 338 645 C 338 502 375 389 450 305 C 524 221 627 180 758 180 C 802 180 846 185 888 195 C 930 205 967 217 999 231 L 999 477 L 664 477 L 664 688 L 1231 688 L 1231 90 Z" unicode="Ģ" />
<glyph horiz-adv-x="1030" d="M 653 1192 C 651 1161 637 1132 613 1106 C 589 1080 556 1067 514 1067 C 467 1067 428 1084 397 1116 C 365 1148 350 1189 350 1237 C 350 1303 372 1360 418 1408 C 464 1457 525 1498 602 1530 L 666 1467 C 614 1435 578 1405 560 1379 C 541 1353 532 1328 532 1305 C 532 1283 539 1263 554 1246 C 569 1229 602 1211 653 1192 Z M 219 -39 C 178 -25 144 -3 117 25 C 89 53 76 87 76 125 C 76 167 92 207 124 243 C 156 279 198 306 250 324 C 198 350 156 388 125 440 C 93 491 78 549 78 614 C 78 711 114 795 188 867 C 261 939 363 975 494 975 C 546 975 596 968 642 956 C 688 943 727 929 760 915 L 1014 938 L 1024 727 L 844 758 C 856 744 866 722 874 692 C 882 662 887 634 887 610 C 887 514 850 433 776 366 C 702 299 608 266 492 266 C 469 266 448 267 429 269 C 410 271 388 276 362 283 C 346 276 329 265 313 251 C 297 237 289 220 289 201 C 289 175 302 156 329 144 C 356 132 407 127 483 127 L 582 127 C 716 127 820 106 894 65 C 968 24 1006 -41 1006 -133 C 1006 -244 951 -335 842 -405 C 732 -475 603 -510 455 -510 C 330 -510 224 -487 137 -442 C 49 -397 6 -332 6 -248 C 6 -198 24 -154 60 -115 C 96 -75 149 -50 219 -39 Z M 344 -72 C 310 -84 282 -101 259 -123 C 236 -145 225 -170 225 -199 C 225 -242 249 -278 299 -306 C 349 -334 414 -348 494 -348 C 576 -348 645 -333 701 -305 C 757 -276 786 -237 786 -188 C 786 -144 764 -115 721 -101 C 677 -87 612 -80 524 -80 C 494 -80 462 -79 426 -77 C 390 -75 363 -74 344 -72 Z M 311 612 C 311 556 327 510 359 476 C 391 441 437 424 496 424 C 550 424 591 442 621 478 C 651 514 666 561 666 621 C 666 677 651 722 621 758 C 591 793 545 811 485 811 C 432 811 390 792 358 756 C 326 719 311 671 311 612 Z" unicode="ģ" />
<glyph horiz-adv-x="1403" d="M 1060 1404 L 890 1404 L 706 1646 L 702 1646 L 519 1404 L 347 1404 L 587 1787 L 820 1787 L 1060 1404 Z M 1253 0 L 1006 0 L 1006 537 L 397 537 L 397 0 L 147 0 L 147 1280 L 397 1280 L 397 754 L 1006 754 L 1006 1280 L 1253 1280 L 1253 0 Z" unicode="Ĥ" />
<glyph horiz-adv-x="1110" d="M 625 1404 L 455 1404 L 271 1646 L 267 1646 L 84 1404 L -88 1404 L 152 1787 L 385 1787 L 625 1404 Z M 985 0 L 743 0 L 743 575 C 743 644 729 692 702 720 C 675 748 636 762 586 762 C 540 762 499 752 462 734 C 424 716 394 696 371 674 L 371 0 L 129 0 L 129 1368 L 371 1401 L 371 825 C 412 871 460 907 515 934 C 570 961 628 975 690 975 C 780 975 852 946 905 888 C 958 830 985 750 985 649 L 985 0 Z" unicode="ĥ" />
<glyph horiz-adv-x="1403" d="M 1255 0 L 1006 0 L 1006 535 L 399 535 L 399 0 L 147 0 L 147 922 L -10 922 L 4 1067 L 147 1067 L 147 1280 L 399 1280 L 399 1067 L 1006 1067 L 1006 1280 L 1255 1280 L 1255 1067 L 1389 1067 L 1405 922 L 1255 922 L 1255 0 Z M 399 754 L 1006 754 L 1006 922 L 399 922 L 399 754 Z" unicode="Ħ" />
<glyph horiz-adv-x="1110" d="M 987 0 L 743 0 L 743 575 C 743 643 729 691 703 719 C 676 746 638 760 588 760 C 542 760 500 750 463 732 C 426 714 396 694 373 672 L 373 0 L 129 0 L 129 1071 L -4 1071 L 12 1217 L 129 1217 L 129 1368 L 373 1401 L 373 1217 L 596 1217 L 612 1071 L 373 1071 L 373 825 C 414 871 462 907 518 934 C 573 961 631 975 692 975 C 782 975 854 946 907 888 C 960 830 987 750 987 649 L 987 0 Z" unicode="ħ" />
<glyph horiz-adv-x="553" d="M 399 0 L 152 0 L 152 1280 L 399 1280 L 399 0 Z M 579 1447 L -20 1447 L -5 1590 L 565 1590 L 579 1447 Z" unicode="Ī" />
<glyph horiz-adv-x="502" d="M 377 0 L 135 0 L 135 934 L 377 961 L 377 0 Z M 554 1119 L -37 1119 L -23 1256 L 540 1256 L 554 1119 Z" unicode="ī" />
<glyph horiz-adv-x="553" d="M 399 0 L 152 0 L 152 1280 L 399 1280 L 399 0 Z M 631 1783 C 618 1661 580 1566 517 1498 C 454 1430 375 1396 281 1396 C 187 1396 108 1430 44 1498 C -19 1566 -57 1661 -70 1783 L 94 1781 C 106 1717 128 1664 158 1620 C 188 1576 229 1554 281 1554 C 333 1554 375 1576 405 1620 C 435 1664 455 1717 467 1781 L 631 1783 Z" unicode="Ĭ" />
<glyph horiz-adv-x="502" d="M 377 0 L 135 0 L 135 934 L 377 961 L 377 0 Z M 607 1450 C 594 1328 556 1233 493 1165 C 430 1097 351 1063 257 1063 C 163 1063 84 1097 20 1165 C -43 1233 -81 1328 -94 1450 L 70 1448 C 82 1384 104 1331 134 1287 C 164 1243 205 1221 257 1221 C 309 1221 351 1243 381 1287 C 411 1331 431 1384 443 1448 L 607 1450 Z" unicode="ĭ" />
<glyph horiz-adv-x="553" d="M 276 -449 C 207 -449 151 -430 108 -393 C 64 -355 43 -306 43 -244 C 43 -192 58 -145 89 -103 C 120 -61 159 -26 205 0 L 152 0 L 152 1280 L 401 1280 L 401 0 C 355 -20 317 -47 287 -80 C 257 -113 242 -147 242 -182 C 242 -212 249 -235 265 -253 C 281 -270 303 -279 332 -279 C 350 -279 368 -276 387 -270 C 406 -264 422 -257 436 -248 L 475 -391 C 451 -407 424 -421 392 -432 C 360 -443 321 -449 276 -449 Z" unicode="Į" />
<glyph horiz-adv-x="502" d="M 244 -449 C 175 -449 119 -430 76 -393 C 33 -355 12 -306 12 -244 C 12 -192 27 -144 59 -102 C 90 -59 129 -25 176 0 L 129 0 L 129 938 L 373 973 L 373 0 C 323 -20 283 -46 253 -76 C 223 -106 209 -141 209 -182 C 209 -212 216 -235 232 -253 C 248 -270 270 -279 299 -279 C 317 -279 336 -276 355 -270 C 374 -264 390 -257 403 -248 L 444 -391 C 420 -407 391 -421 359 -432 C 327 -443 288 -449 244 -449 Z M 401 1262 C 401 1218 387 1182 361 1155 C 335 1127 298 1114 252 1114 C 204 1114 167 1127 141 1155 C 115 1182 102 1218 102 1262 C 102 1304 115 1339 141 1366 C 167 1393 204 1407 252 1407 C 298 1407 335 1393 361 1366 C 387 1339 401 1304 401 1262 Z" unicode="į" />
<glyph horiz-adv-x="553" d="M 399 0 L 152 0 L 152 1280 L 399 1280 L 399 0 Z M 426 1547 C 426 1505 412 1470 386 1440 C 359 1410 324 1396 281 1396 C 237 1396 201 1410 175 1440 C 148 1470 135 1505 135 1547 C 135 1587 148 1622 175 1652 C 201 1682 237 1697 281 1697 C 324 1697 359 1682 386 1652 C 412 1622 426 1587 426 1547 Z" unicode="İ" />
<glyph horiz-adv-x="500" d="M 377 0 L 135 0 L 135 934 L 377 961 L 377 0 Z" unicode="ı" />
<glyph horiz-adv-x="913" d="M 997 1404 L 827 1404 L 643 1646 L 639 1646 L 456 1404 L 284 1404 L 524 1787 L 757 1787 L 997 1404 Z M 768 420 C 768 282 734 173 666 91 C 598 9 492 -31 346 -31 C 284 -31 225 -22 167 -6 C 109 9 62 29 25 53 L 70 268 C 110 242 151 222 193 207 C 235 191 278 184 322 184 C 390 184 440 204 472 245 C 504 285 520 349 520 436 L 520 1280 L 768 1280 L 768 420 Z" unicode="Ĵ" />
<glyph horiz-adv-x="498" d="M 111 -502 L -39 -336 C 19 -308 61 -271 88 -224 C 115 -176 129 -102 129 -2 L 129 938 L 373 973 L 373 -8 C 373 -143 353 -249 313 -326 C 273 -403 205 -462 111 -502 Z M 609 1071 L 439 1071 L 255 1313 L 251 1313 L 68 1071 L -104 1071 L 136 1454 L 369 1454 L 609 1071 Z" unicode="ĵ" />
<glyph horiz-adv-x="1204" d="M 485 -229 C 487 -197 500 -169 524 -143 C 548 -117 582 -104 624 -104 C 670 -104 709 -120 741 -152 C 772 -184 788 -225 788 -274 C 788 -339 765 -396 719 -445 C 673 -493 612 -534 536 -567 L 472 -504 C 524 -471 559 -441 578 -415 C 596 -389 606 -364 606 -342 C 606 -319 598 -299 583 -282 C 568 -265 535 -247 485 -229 Z M 397 692 L 399 692 L 883 1280 L 1180 1280 L 631 651 L 1188 0 L 883 0 L 399 586 L 397 586 L 397 0 L 147 0 L 147 1280 L 397 1280 L 397 692 Z" unicode="Ķ" />
<glyph horiz-adv-x="1014" d="M 381 -229 C 383 -197 396 -169 420 -143 C 444 -117 478 -104 520 -104 C 566 -104 605 -120 637 -152 C 668 -184 684 -225 684 -274 C 684 -339 661 -396 615 -445 C 569 -493 508 -534 432 -567 L 368 -504 C 420 -471 455 -441 474 -415 C 492 -389 502 -364 502 -342 C 502 -319 494 -299 479 -282 C 464 -265 431 -247 381 -229 Z M 375 455 L 371 455 L 371 0 L 129 0 L 129 1368 L 371 1401 L 371 524 L 375 524 L 713 944 L 1001 944 L 610 496 L 1004 0 L 715 0 L 375 455 Z" unicode="ķ" />
<glyph horiz-adv-x="1038" d="M 640 1779 L 318 1404 L 158 1404 L 367 1779 L 640 1779 Z M 975 0 L 147 0 L 147 1280 L 397 1280 L 397 219 L 975 219 L 975 0 Z" unicode="Ĺ" />
<glyph horiz-adv-x="502" d="M 611 1822 L 289 1447 L 129 1447 L 338 1822 L 611 1822 Z M 371 0 L 129 0 L 129 1368 L 371 1401 L 371 0 Z" unicode="ĺ" />
<glyph horiz-adv-x="1038" d="M 393 -229 C 395 -197 408 -169 432 -143 C 456 -117 490 -104 532 -104 C 578 -104 617 -120 649 -152 C 680 -184 696 -225 696 -274 C 696 -339 673 -396 627 -445 C 581 -493 520 -534 444 -567 L 380 -504 C 432 -471 467 -441 486 -415 C 504 -389 514 -364 514 -342 C 514 -319 506 -299 491 -282 C 476 -265 443 -247 393 -229 Z M 975 0 L 147 0 L 147 1280 L 397 1280 L 397 219 L 975 219 L 975 0 Z" unicode="Ļ" />
<glyph horiz-adv-x="502" d="M 101 -229 C 103 -197 116 -169 140 -143 C 164 -117 198 -104 240 -104 C 286 -104 325 -120 357 -152 C 388 -184 404 -225 404 -274 C 404 -339 381 -396 335 -445 C 289 -493 228 -534 152 -567 L 88 -504 C 140 -471 175 -441 194 -415 C 212 -389 222 -364 222 -342 C 222 -319 214 -299 199 -282 C 184 -265 151 -247 101 -229 Z M 371 0 L 129 0 L 129 1368 L 371 1401 L 371 0 Z" unicode="ļ" />
<glyph horiz-adv-x="1292" d="M 965 1153 C 969 1197 988 1233 1021 1263 C 1053 1292 1095 1307 1145 1307 C 1201 1307 1250 1285 1292 1241 C 1333 1197 1354 1145 1354 1084 C 1354 994 1320 915 1253 848 C 1185 781 1111 723 1030 674 L 924 770 C 988 815 1038 857 1075 897 C 1111 936 1130 973 1130 1008 C 1130 1034 1118 1058 1094 1080 C 1070 1101 1027 1125 965 1153 Z M 975 0 L 147 0 L 147 1280 L 397 1280 L 397 219 L 975 219 L 975 0 Z" unicode="Ľ" />
<glyph horiz-adv-x="1006" d="M 580 1267 C 584 1311 603 1347 636 1377 C 668 1406 710 1421 760 1421 C 816 1421 865 1399 907 1355 C 948 1311 969 1259 969 1198 C 969 1108 935 1029 868 962 C 800 895 726 837 645 788 L 539 884 C 603 929 653 971 690 1011 C 726 1050 745 1087 745 1122 C 745 1148 733 1172 709 1194 C 685 1215 642 1239 580 1267 Z M 371 0 L 129 0 L 129 1368 L 371 1401 L 371 0 Z" unicode="ľ" />
<glyph horiz-adv-x="1210" d="M 975 0 L 147 0 L 147 1280 L 397 1280 L 397 219 L 975 219 L 975 0 Z M 1316 610 C 1316 570 1302 534 1275 503 C 1248 471 1213 456 1169 456 C 1124 456 1087 471 1058 503 C 1029 534 1015 570 1015 610 C 1015 650 1029 684 1058 713 C 1087 742 1124 757 1169 757 C 1213 757 1248 742 1275 713 C 1302 684 1316 650 1316 610 Z" unicode="Ŀ" />
<glyph horiz-adv-x="913" d="M 371 0 L 129 0 L 129 1368 L 371 1401 L 371 0 Z M 874 610 C 874 570 860 534 833 503 C 806 471 771 456 727 456 C 682 456 645 471 616 503 C 587 534 573 570 573 610 C 573 650 587 684 616 713 C 645 742 682 757 727 757 C 771 757 806 742 833 713 C 860 684 874 650 874 610 Z" unicode="ŀ" />
<glyph horiz-adv-x="1087" d="M 455 545 L 455 221 L 1032 221 L 1032 0 L 207 0 L 207 479 L 35 432 L 35 631 L 207 678 L 207 1280 L 455 1280 L 455 743 L 760 825 L 760 627 L 455 545 Z" unicode="Ł" />
<glyph horiz-adv-x="604" d="M 430 543 L 430 0 L 188 0 L 188 477 L 31 434 L 31 637 L 188 680 L 188 1368 L 430 1401 L 430 745 L 586 786 L 586 584 L 430 543 Z" unicode="ł" />
<glyph horiz-adv-x="1413" d="M 1052 1779 L 730 1404 L 570 1404 L 779 1779 L 1052 1779 Z M 1026 348 L 1026 1280 L 1264 1280 L 1264 -12 L 997 -12 L 385 930 L 385 0 L 147 0 L 147 1280 L 420 1280 L 1026 348 Z" unicode="Ń" />
<glyph horiz-adv-x="1110" d="M 854 1446 L 532 1071 L 372 1071 L 581 1446 L 854 1446 Z M 985 0 L 743 0 L 743 575 C 743 644 729 692 702 720 C 674 748 634 762 580 762 C 538 762 498 752 461 734 C 424 716 394 696 371 674 L 371 0 L 129 0 L 129 940 L 371 973 L 371 823 C 412 869 460 905 514 933 C 568 961 624 975 682 975 C 776 975 850 946 904 888 C 958 830 985 750 985 649 L 985 0 Z" unicode="ń" />
<glyph horiz-adv-x="1413" d="M 567 -229 C 569 -197 582 -169 606 -143 C 630 -117 664 -104 706 -104 C 752 -104 791 -120 823 -152 C 854 -184 870 -225 870 -274 C 870 -339 847 -396 801 -445 C 755 -493 694 -534 618 -567 L 554 -504 C 606 -471 641 -441 660 -415 C 678 -389 688 -364 688 -342 C 688 -319 680 -299 665 -282 C 650 -265 617 -247 567 -229 Z M 1026 348 L 1026 1280 L 1264 1280 L 1264 -12 L 997 -12 L 385 930 L 385 0 L 147 0 L 147 1280 L 420 1280 L 1026 348 Z" unicode="Ņ" />
<glyph horiz-adv-x="1110" d="M 409 -229 C 411 -197 424 -169 448 -143 C 472 -117 506 -104 548 -104 C 594 -104 633 -120 665 -152 C 696 -184 712 -225 712 -274 C 712 -339 689 -396 643 -445 C 597 -493 536 -534 460 -567 L 396 -504 C 448 -471 483 -441 502 -415 C 520 -389 530 -364 530 -342 C 530 -319 522 -299 507 -282 C 492 -265 459 -247 409 -229 Z M 985 0 L 743 0 L 743 575 C 743 644 729 692 702 720 C 674 748 634 762 580 762 C 538 762 498 752 461 734 C 424 716 394 696 371 674 L 371 0 L 129 0 L 129 940 L 371 973 L 371 823 C 412 869 460 905 514 933 C 568 961 624 975 682 975 C 776 975 850 946 904 888 C 958 830 985 750 985 649 L 985 0 Z" unicode="ņ" />
<glyph horiz-adv-x="1413" d="M 1075 1787 L 835 1404 L 602 1404 L 362 1787 L 532 1787 L 717 1547 L 721 1547 L 903 1787 L 1075 1787 Z M 1026 348 L 1026 1280 L 1264 1280 L 1264 -12 L 997 -12 L 385 930 L 385 0 L 147 0 L 147 1280 L 420 1280 L 1026 348 Z" unicode="Ň" />
<glyph horiz-adv-x="1110" d="M 899 1454 L 659 1071 L 426 1071 L 186 1454 L 356 1454 L 541 1214 L 545 1214 L 727 1454 L 899 1454 Z M 985 0 L 743 0 L 743 575 C 743 644 729 692 702 720 C 674 748 634 762 580 762 C 538 762 498 752 461 734 C 424 716 394 696 371 674 L 371 0 L 129 0 L 129 940 L 371 973 L 371 823 C 412 869 460 905 514 933 C 568 961 624 975 682 975 C 776 975 850 946 904 888 C 958 830 985 750 985 649 L 985 0 Z" unicode="ň" />
<glyph horiz-adv-x="1487" d="M 1062 1447 L 409 1447 L 425 1588 L 1046 1588 L 1062 1447 Z M 1401 645 C 1401 448 1338 286 1213 159 C 1088 32 931 -31 743 -31 C 555 -31 398 28 273 146 C 148 264 86 428 86 637 C 86 833 148 995 274 1121 C 400 1247 557 1311 745 1311 C 933 1311 1089 1252 1214 1134 C 1338 1016 1401 853 1401 645 Z M 1151 637 C 1151 776 1113 888 1038 974 C 963 1059 863 1102 739 1102 C 617 1102 520 1059 447 975 C 374 890 338 780 338 645 C 338 505 375 393 449 307 C 523 221 623 178 748 178 C 868 178 966 220 1040 306 C 1114 391 1151 501 1151 637 Z" unicode="Ō" />
<glyph horiz-adv-x="1114" d="M 878 1114 L 225 1114 L 241 1255 L 862 1255 L 878 1114 Z M 1040 473 C 1040 319 992 196 898 105 C 804 14 688 -31 551 -31 C 413 -31 299 13 209 103 C 119 192 74 315 74 471 C 74 625 120 748 214 840 C 308 931 424 977 563 977 C 701 977 815 931 905 841 C 995 750 1040 627 1040 473 Z M 801 471 C 801 561 779 636 736 694 C 692 752 632 782 555 782 C 476 782 416 753 374 695 C 332 637 311 563 311 473 C 311 383 332 310 376 252 C 419 194 480 166 559 166 C 636 166 696 194 738 250 C 780 306 801 380 801 471 Z" unicode="ō" />
<glyph horiz-adv-x="1487" d="M 1401 645 C 1401 448 1338 286 1213 159 C 1088 32 931 -31 743 -31 C 555 -31 398 28 273 146 C 148 264 86 428 86 637 C 86 833 148 995 274 1121 C 400 1247 557 1311 745 1311 C 933 1311 1089 1252 1214 1134 C 1338 1016 1401 853 1401 645 Z M 1151 637 C 1151 776 1113 888 1038 974 C 963 1059 863 1102 739 1102 C 617 1102 520 1059 447 975 C 374 890 338 780 338 645 C 338 505 375 393 449 307 C 523 221 623 178 748 178 C 868 178 966 220 1040 306 C 1114 391 1151 501 1151 637 Z M 1079 1783 C 1066 1661 1028 1566 965 1498 C 902 1430 823 1396 729 1396 C 635 1396 556 1430 492 1498 C 428 1566 390 1661 378 1783 L 542 1781 C 554 1717 576 1664 606 1620 C 636 1576 677 1554 729 1554 C 781 1554 823 1576 853 1620 C 883 1664 903 1717 915 1781 L 1079 1783 Z" unicode="Ŏ" />
<glyph horiz-adv-x="1114" d="M 1040 473 C 1040 319 992 196 898 105 C 804 14 688 -31 551 -31 C 413 -31 299 13 209 103 C 119 192 74 315 74 471 C 74 625 120 748 214 840 C 308 931 424 977 563 977 C 701 977 815 931 905 841 C 995 750 1040 627 1040 473 Z M 801 471 C 801 561 779 636 736 694 C 692 752 632 782 555 782 C 476 782 416 753 374 695 C 332 637 311 563 311 473 C 311 383 332 310 376 252 C 419 194 480 166 559 166 C 636 166 696 194 738 250 C 780 306 801 380 801 471 Z M 889 1450 C 876 1328 838 1233 775 1165 C 712 1097 633 1063 539 1063 C 445 1063 366 1097 302 1165 C 238 1233 200 1328 188 1450 L 352 1448 C 364 1384 386 1331 416 1287 C 446 1243 487 1221 539 1221 C 591 1221 633 1243 663 1287 C 693 1331 713 1384 725 1448 L 889 1450 Z" unicode="ŏ" />
<glyph horiz-adv-x="1487" d="M 854 1769 L 561 1398 L 383 1398 L 622 1769 L 854 1769 Z M 1269 1769 L 930 1398 L 755 1398 L 1038 1769 L 1269 1769 Z M 1401 645 C 1401 448 1338 286 1213 159 C 1088 32 931 -31 743 -31 C 555 -31 398 28 273 146 C 148 264 86 428 86 637 C 86 833 148 995 274 1121 C 400 1247 557 1311 745 1311 C 933 1311 1089 1252 1214 1134 C 1338 1016 1401 853 1401 645 Z M 1151 637 C 1151 776 1113 888 1038 974 C 963 1059 863 1102 739 1102 C 617 1102 520 1059 447 975 C 374 890 338 780 338 645 C 338 505 375 393 449 307 C 523 221 623 178 748 178 C 868 178 966 220 1040 306 C 1114 391 1151 501 1151 637 Z" unicode="Ő" />
<glyph horiz-adv-x="1114" d="M 663 1442 L 370 1071 L 192 1071 L 431 1442 L 663 1442 Z M 1078 1442 L 739 1071 L 564 1071 L 847 1442 L 1078 1442 Z M 1040 473 C 1040 319 992 196 898 105 C 804 14 688 -31 551 -31 C 413 -31 299 13 209 103 C 119 192 74 315 74 471 C 74 625 120 748 214 840 C 308 931 424 977 563 977 C 701 977 815 931 905 841 C 995 750 1040 627 1040 473 Z M 801 471 C 801 561 779 636 736 694 C 692 752 632 782 555 782 C 476 782 416 753 374 695 C 332 637 311 563 311 473 C 311 383 332 310 376 252 C 419 194 480 166 559 166 C 636 166 696 194 738 250 C 780 306 801 380 801 471 Z" unicode="ő" />
<glyph horiz-adv-x="1925" d="M 1843 1280 L 1843 1069 L 1219 1069 L 1219 748 L 1737 748 L 1737 537 L 1219 537 L 1219 211 L 1843 211 L 1843 0 L 782 0 C 565 0 395 57 273 173 C 151 289 90 441 90 631 C 90 827 150 985 270 1103 C 390 1221 564 1280 791 1280 L 1843 1280 Z M 342 643 C 342 499 381 391 459 319 C 537 247 650 211 797 211 L 969 211 L 969 1069 L 784 1069 C 650 1069 542 1033 462 962 C 382 891 342 785 342 643 Z" unicode="Œ" />
<glyph horiz-adv-x="1735" d="M 909 139 C 868 85 817 43 756 13 C 694 -16 626 -31 551 -31 C 413 -31 299 13 209 103 C 119 192 74 315 74 471 C 74 625 120 748 214 840 C 308 931 424 977 563 977 C 638 977 706 962 766 932 C 826 902 876 861 915 807 C 957 859 1009 900 1071 930 C 1133 960 1200 975 1274 975 C 1398 975 1493 940 1561 870 C 1629 800 1663 707 1663 592 C 1663 566 1661 539 1657 509 C 1653 479 1648 454 1642 434 C 1641 434 1538 432 1332 430 C 1126 427 1024 426 1024 426 L 1024 420 C 1028 343 1055 281 1105 233 C 1155 185 1222 162 1305 162 C 1354 162 1405 169 1458 185 C 1510 200 1557 221 1599 248 L 1630 47 C 1585 22 1533 3 1473 -10 C 1413 -24 1352 -31 1288 -31 C 1203 -31 1129 -15 1067 14 C 1005 44 952 86 909 139 Z M 311 473 C 311 383 332 310 376 252 C 419 194 480 166 559 166 C 636 166 696 194 738 250 C 780 306 801 380 801 471 C 801 561 779 636 736 694 C 692 752 632 782 555 782 C 476 782 416 753 374 695 C 332 637 311 563 311 473 Z M 1030 567 L 1434 569 C 1434 571 1435 574 1435 578 C 1435 582 1436 584 1436 586 C 1436 648 1421 698 1391 736 C 1361 774 1316 793 1255 793 C 1189 793 1136 769 1097 723 C 1058 677 1036 625 1030 567 Z" unicode="œ" />
<glyph horiz-adv-x="1192" d="M 858 1779 L 536 1404 L 376 1404 L 585 1779 L 858 1779 Z M 397 457 L 397 0 L 147 0 L 147 1280 L 596 1280 C 756 1280 879 1244 964 1173 C 1049 1102 1092 1008 1092 891 C 1092 800 1067 723 1018 661 C 969 598 901 552 815 522 L 1151 0 L 866 0 L 582 469 L 397 457 Z M 395 653 L 582 657 C 658 661 719 681 766 717 C 812 753 836 805 836 874 C 836 940 811 990 763 1022 C 714 1054 645 1071 557 1071 L 395 1071 L 395 653 Z" unicode="Ŕ" />
<glyph horiz-adv-x="803" d="M 786 1446 L 464 1071 L 304 1071 L 513 1446 L 786 1446 Z M 371 584 L 371 0 L 129 0 L 129 938 L 371 973 L 371 819 C 400 869 434 907 474 934 C 514 961 561 975 616 975 C 644 975 673 971 702 965 C 731 958 758 947 784 932 L 731 715 C 709 727 686 736 664 742 C 641 748 618 752 596 752 C 554 752 513 738 475 710 C 437 682 402 640 371 584 Z" unicode="ŕ" />
<glyph horiz-adv-x="1192" d="M 438 -229 C 440 -197 453 -169 477 -143 C 501 -117 535 -104 577 -104 C 623 -104 662 -120 694 -152 C 725 -184 741 -225 741 -274 C 741 -339 718 -396 672 -445 C 626 -493 565 -534 489 -567 L 425 -504 C 477 -471 512 -441 531 -415 C 549 -389 559 -364 559 -342 C 559 -319 551 -299 536 -282 C 521 -265 488 -247 438 -229 Z M 397 457 L 397 0 L 147 0 L 147 1280 L 596 1280 C 756 1280 879 1244 964 1173 C 1049 1102 1092 1008 1092 891 C 1092 800 1067 723 1018 661 C 969 598 901 552 815 522 L 1151 0 L 866 0 L 582 469 L 397 457 Z M 395 653 L 582 657 C 658 661 719 681 766 717 C 812 753 836 805 836 874 C 836 940 811 990 763 1022 C 714 1054 645 1071 557 1071 L 395 1071 L 395 653 Z" unicode="Ŗ" />
<glyph horiz-adv-x="803" d="M 111 -229 C 113 -197 126 -169 150 -143 C 174 -117 208 -104 250 -104 C 296 -104 335 -120 367 -152 C 398 -184 414 -225 414 -274 C 414 -339 391 -396 345 -445 C 299 -493 238 -534 162 -567 L 98 -504 C 150 -471 185 -441 204 -415 C 222 -389 232 -364 232 -342 C 232 -319 224 -299 209 -282 C 194 -265 161 -247 111 -229 Z M 371 584 L 371 0 L 129 0 L 129 938 L 371 973 L 371 819 C 400 869 434 907 474 934 C 514 961 561 975 616 975 C 644 975 673 971 702 965 C 731 958 758 947 784 932 L 731 715 C 709 727 686 736 664 742 C 641 748 618 752 596 752 C 554 752 513 738 475 710 C 437 682 402 640 371 584 Z" unicode="ŗ" />
<glyph horiz-adv-x="1192" d="M 911 1787 L 671 1404 L 438 1404 L 198 1787 L 368 1787 L 553 1547 L 557 1547 L 739 1787 L 911 1787 Z M 397 457 L 397 0 L 147 0 L 147 1280 L 596 1280 C 756 1280 879 1244 964 1173 C 1049 1102 1092 1008 1092 891 C 1092 800 1067 723 1018 661 C 969 598 901 552 815 522 L 1151 0 L 866 0 L 582 469 L 397 457 Z M 395 653 L 582 657 C 658 661 719 681 766 717 C 812 753 836 805 836 874 C 836 940 811 990 763 1022 C 714 1054 645 1071 557 1071 L 395 1071 L 395 653 Z" unicode="Ř" />
<glyph horiz-adv-x="803" d="M 780 1454 L 540 1071 L 307 1071 L 67 1454 L 237 1454 L 422 1214 L 426 1214 L 608 1454 L 780 1454 Z M 371 584 L 371 0 L 129 0 L 129 938 L 371 973 L 371 819 C 400 869 434 907 474 934 C 514 961 561 975 616 975 C 644 975 673 971 702 965 C 731 958 758 947 784 932 L 731 715 C 709 727 686 736 664 742 C 641 748 618 752 596 752 C 554 752 513 738 475 710 C 437 682 402 640 371 584 Z" unicode="ř" />
<glyph horiz-adv-x="1100" d="M 858 1779 L 536 1404 L 376 1404 L 585 1779 L 858 1779 Z M 532 180 C 601 180 658 195 703 227 C 747 258 770 299 770 350 C 770 403 746 443 698 469 C 650 495 579 521 485 547 C 393 572 304 611 218 664 C 131 717 88 806 88 932 C 88 1044 129 1136 211 1206 C 293 1276 405 1311 547 1311 C 633 1311 713 1300 786 1280 C 858 1260 925 1232 987 1198 L 926 987 C 870 1021 808 1048 740 1068 C 672 1088 609 1098 549 1098 C 474 1098 419 1083 385 1055 C 351 1026 334 990 334 946 C 334 894 360 854 413 828 C 466 802 537 777 625 754 C 720 727 809 686 892 632 C 974 578 1016 490 1016 369 C 1016 252 972 156 884 81 C 796 6 678 -31 528 -31 C 444 -31 361 -20 280 1 C 198 22 128 51 68 88 L 125 303 C 184 267 248 238 316 215 C 384 191 456 180 532 180 Z" unicode="Ś" />
<glyph horiz-adv-x="885" d="M 790 1446 L 468 1071 L 308 1071 L 517 1446 L 790 1446 Z M 815 274 C 815 186 779 113 708 55 C 637 -3 542 -33 422 -33 C 360 -33 296 -24 228 -8 C 160 7 102 29 55 55 L 109 244 C 155 217 207 196 264 180 C 321 164 376 156 428 156 C 474 156 512 165 541 183 C 569 201 584 227 584 260 C 584 296 566 323 530 341 C 494 358 448 373 393 387 C 304 407 229 439 167 482 C 105 525 74 591 74 680 C 74 768 108 840 177 894 C 246 948 337 975 451 975 C 509 975 569 968 633 954 C 697 940 751 921 795 899 L 741 711 C 695 734 645 753 590 767 C 534 781 486 788 444 788 C 400 788 366 780 341 764 C 315 748 303 724 303 694 C 303 658 321 632 357 616 C 393 599 438 584 494 571 C 583 549 659 517 721 475 C 783 433 815 366 815 274 Z" unicode="ś" />
<glyph horiz-adv-x="1100" d="M 915 1404 L 745 1404 L 561 1646 L 557 1646 L 374 1404 L 202 1404 L 442 1787 L 675 1787 L 915 1404 Z M 532 180 C 601 180 658 195 703 227 C 747 258 770 299 770 350 C 770 403 746 443 698 469 C 650 495 579 521 485 547 C 393 572 304 611 218 664 C 131 717 88 806 88 932 C 88 1044 129 1136 211 1206 C 293 1276 405 1311 547 1311 C 633 1311 713 1300 786 1280 C 858 1260 925 1232 987 1198 L 926 987 C 870 1021 808 1048 740 1068 C 672 1088 609 1098 549 1098 C 474 1098 419 1083 385 1055 C 351 1026 334 990 334 946 C 334 894 360 854 413 828 C 466 802 537 777 625 754 C 720 727 809 686 892 632 C 974 578 1016 490 1016 369 C 1016 252 972 156 884 81 C 796 6 678 -31 528 -31 C 444 -31 361 -20 280 1 C 198 22 128 51 68 88 L 125 303 C 184 267 248 238 316 215 C 384 191 456 180 532 180 Z" unicode="Ŝ" />
<glyph horiz-adv-x="885" d="M 817 1071 L 647 1071 L 463 1313 L 459 1313 L 276 1071 L 104 1071 L 344 1454 L 577 1454 L 817 1071 Z M 815 274 C 815 186 779 113 708 55 C 637 -3 542 -33 422 -33 C 360 -33 296 -24 228 -8 C 160 7 102 29 55 55 L 109 244 C 155 217 207 196 264 180 C 321 164 376 156 428 156 C 474 156 512 165 541 183 C 569 201 584 227 584 260 C 584 296 566 323 530 341 C 494 358 448 373 393 387 C 304 407 229 439 167 482 C 105 525 74 591 74 680 C 74 768 108 840 177 894 C 246 948 337 975 451 975 C 509 975 569 968 633 954 C 697 940 751 921 795 899 L 741 711 C 695 734 645 753 590 767 C 534 781 486 788 444 788 C 400 788 366 780 341 764 C 315 748 303 724 303 694 C 303 658 321 632 357 616 C 393 599 438 584 494 571 C 583 549 659 517 721 475 C 783 433 815 366 815 274 Z" unicode="ŝ" />
<glyph horiz-adv-x="1100" d="M 512 -121 C 587 -123 648 -140 696 -173 C 744 -205 768 -250 768 -307 C 768 -370 739 -423 681 -467 C 623 -511 528 -541 397 -557 L 383 -432 C 464 -426 522 -414 557 -395 C 592 -376 610 -352 610 -322 C 610 -287 590 -263 550 -249 C 510 -235 450 -233 369 -244 L 350 -147 L 473 -29 C 397 -25 324 -12 253 8 C 182 28 120 55 68 88 L 125 303 C 184 267 248 238 316 215 C 384 191 456 180 532 180 C 601 180 658 195 703 227 C 747 258 770 299 770 350 C 770 403 746 443 698 469 C 650 495 579 521 485 547 C 393 572 304 611 218 664 C 131 717 88 806 88 932 C 88 1044 129 1136 211 1206 C 293 1276 405 1311 547 1311 C 633 1311 713 1300 786 1280 C 858 1260 925 1232 987 1198 L 926 987 C 870 1021 808 1048 740 1068 C 672 1088 609 1098 549 1098 C 474 1098 419 1083 385 1055 C 351 1026 334 990 334 946 C 334 894 360 854 413 828 C 466 802 537 777 625 754 C 720 727 809 686 892 632 C 974 578 1016 490 1016 369 C 1016 263 980 175 908 104 C 836 32 739 -10 616 -25 L 512 -121 Z" unicode="Ş" />
<glyph horiz-adv-x="885" d="M 401 -121 C 477 -123 538 -140 586 -173 C 633 -205 657 -250 657 -307 C 657 -370 628 -423 570 -467 C 512 -511 418 -541 287 -557 L 272 -432 C 354 -426 412 -414 447 -395 C 482 -376 500 -352 500 -322 C 500 -287 480 -263 440 -249 C 400 -235 339 -233 258 -244 L 240 -147 L 362 -31 C 308 -25 253 -15 198 0 C 142 14 95 33 55 55 L 109 244 C 155 217 207 196 264 180 C 321 164 376 156 428 156 C 474 156 512 165 541 183 C 569 201 584 227 584 260 C 584 296 566 323 530 341 C 494 358 448 373 393 387 C 304 407 229 439 167 482 C 105 525 74 591 74 680 C 74 768 108 840 177 894 C 246 948 337 975 451 975 C 509 975 569 968 633 954 C 697 940 751 921 795 899 L 741 711 C 695 734 645 753 590 767 C 534 781 486 788 444 788 C 400 788 366 780 341 764 C 315 748 303 724 303 694 C 303 658 321 632 357 616 C 393 599 438 584 494 571 C 583 549 659 517 721 475 C 783 433 815 366 815 274 C 815 196 787 130 731 75 C 675 20 599 -13 504 -27 L 401 -121 Z" unicode="ş" />
<glyph horiz-adv-x="1098" d="M 532 180 C 601 180 658 195 703 227 C 747 258 770 299 770 350 C 770 403 746 443 698 469 C 650 495 579 521 485 547 C 393 572 304 611 218 664 C 131 717 88 806 88 932 C 88 1044 129 1136 211 1206 C 293 1276 405 1311 547 1311 C 633 1311 713 1300 786 1280 C 858 1260 925 1232 987 1198 L 926 987 C 870 1021 808 1048 740 1068 C 672 1088 609 1098 549 1098 C 474 1098 419 1083 385 1055 C 351 1026 334 990 334 946 C 334 894 360 854 413 828 C 466 802 537 777 625 754 C 720 727 809 686 892 632 C 974 578 1016 490 1016 369 C 1016 252 972 156 884 81 C 796 6 678 -31 528 -31 C 444 -31 361 -20 280 1 C 198 22 128 51 68 88 L 125 303 C 184 267 248 238 316 215 C 384 191 456 180 532 180 Z M 909 1775 L 669 1392 L 436 1392 L 196 1775 L 366 1775 L 551 1535 L 555 1535 L 737 1775 L 909 1775 Z" unicode="Š" />
<glyph horiz-adv-x="883" d="M 815 274 C 815 186 779 113 708 55 C 637 -3 542 -33 422 -33 C 360 -33 296 -24 228 -8 C 160 7 102 29 55 55 L 109 244 C 155 217 207 196 264 180 C 321 164 376 156 428 156 C 474 156 512 165 541 183 C 569 201 584 227 584 260 C 584 296 566 323 530 341 C 494 358 448 373 393 387 C 304 407 229 439 167 482 C 105 525 74 591 74 680 C 74 768 108 840 177 894 C 246 948 337 975 451 975 C 509 975 569 968 633 954 C 697 940 751 921 795 899 L 741 711 C 695 734 645 753 590 767 C 534 781 486 788 444 788 C 400 788 366 780 341 764 C 315 748 303 724 303 694 C 303 658 321 632 357 616 C 393 599 438 584 494 571 C 583 549 659 517 721 475 C 783 433 815 366 815 274 Z M 800 1454 L 560 1071 L 327 1071 L 87 1454 L 257 1454 L 442 1214 L 446 1214 L 628 1454 L 800 1454 Z" unicode="š" />
<glyph horiz-adv-x="1190" d="M 954 1787 L 714 1404 L 481 1404 L 241 1787 L 411 1787 L 596 1547 L 600 1547 L 782 1787 L 954 1787 Z M 1147 1061 L 719 1061 L 719 0 L 471 0 L 471 1061 L 43 1061 L 43 1280 L 1147 1280 L 1147 1061 Z" unicode="Ť" />
<glyph horiz-adv-x="735" d="M 487 1451 C 491 1495 510 1531 543 1561 C 575 1590 617 1605 667 1605 C 723 1605 772 1583 814 1539 C 855 1495 876 1443 876 1382 C 876 1292 842 1213 775 1146 C 707 1079 633 1021 552 972 L 446 1068 C 510 1113 560 1155 597 1195 C 633 1234 652 1271 652 1306 C 652 1332 640 1356 616 1378 C 592 1399 549 1423 487 1451 Z M 682 6 C 646 -6 610 -15 576 -21 C 541 -27 503 -31 463 -31 C 357 -31 278 -6 224 44 C 170 94 145 175 150 289 L 164 733 L 16 750 L 23 903 L 170 950 L 174 1159 L 408 1159 L 403 938 L 670 938 L 664 739 L 389 739 L 377 303 C 375 259 386 226 408 205 C 430 184 461 174 502 174 C 526 174 550 176 575 182 C 600 188 625 195 649 203 L 682 6 Z" unicode="ť" />
<glyph horiz-adv-x="1352" d="M 1208 508 C 1208 334 1161 201 1067 108 C 973 15 842 -31 674 -31 C 510 -31 381 13 285 102 C 189 191 141 319 141 485 L 141 1280 L 391 1280 L 391 518 C 391 413 414 332 462 274 C 510 216 583 188 682 188 C 770 188 839 213 888 265 C 936 317 961 398 961 508 L 961 1280 L 1208 1280 L 1208 508 Z M 1003 1447 L 350 1447 L 366 1588 L 987 1588 L 1003 1447 Z" unicode="Ū" />
<glyph horiz-adv-x="1102" d="M 121 944 L 362 944 L 362 369 C 362 299 376 251 404 224 C 432 197 471 184 522 184 C 564 184 604 192 640 209 C 676 225 706 244 729 266 L 729 944 L 971 944 L 971 6 L 729 -27 L 729 113 C 690 71 643 36 589 9 C 535 -17 478 -31 418 -31 C 326 -31 253 -1 200 56 C 147 114 121 194 121 295 L 121 944 Z M 872 1114 L 219 1114 L 235 1255 L 856 1255 L 872 1114 Z" unicode="ū" />
<glyph horiz-adv-x="1352" d="M 1208 508 C 1208 334 1161 201 1067 108 C 973 15 842 -31 674 -31 C 510 -31 381 13 285 102 C 189 191 141 319 141 485 L 141 1280 L 391 1280 L 391 518 C 391 413 414 332 462 274 C 510 216 583 188 682 188 C 770 188 839 213 888 265 C 936 317 961 398 961 508 L 961 1280 L 1208 1280 L 1208 508 Z M 1028 1783 C 1015 1661 977 1566 914 1498 C 851 1430 772 1396 678 1396 C 584 1396 505 1430 441 1498 C 377 1566 339 1661 327 1783 L 491 1781 C 503 1717 525 1664 555 1620 C 585 1576 626 1554 678 1554 C 730 1554 772 1576 802 1620 C 832 1664 852 1717 864 1781 L 1028 1783 Z" unicode="Ŭ" />
<glyph horiz-adv-x="1102" d="M 121 944 L 362 944 L 362 369 C 362 299 376 251 404 224 C 432 197 471 184 522 184 C 564 184 604 192 640 209 C 676 225 706 244 729 266 L 729 944 L 971 944 L 971 6 L 729 -27 L 729 113 C 690 71 643 36 589 9 C 535 -17 478 -31 418 -31 C 326 -31 253 -1 200 56 C 147 114 121 194 121 295 L 121 944 Z M 893 1450 C 880 1328 842 1233 779 1165 C 716 1097 637 1063 543 1063 C 449 1063 370 1097 306 1165 C 242 1233 204 1328 192 1450 L 356 1448 C 368 1384 390 1331 420 1287 C 450 1243 491 1221 543 1221 C 595 1221 637 1243 667 1287 C 697 1331 717 1384 729 1448 L 893 1450 Z" unicode="ŭ" />
<glyph horiz-adv-x="1352" d="M 950 1607 C 950 1543 925 1488 876 1443 C 827 1398 761 1376 678 1376 C 594 1376 527 1398 478 1443 C 429 1488 405 1543 405 1607 C 405 1671 429 1727 478 1773 C 527 1819 594 1843 678 1843 C 761 1843 827 1820 875 1774 C 923 1728 948 1672 950 1607 Z M 835 1610 C 835 1648 821 1681 793 1708 C 765 1735 726 1749 678 1749 C 630 1749 592 1735 564 1708 C 536 1681 522 1648 522 1610 C 522 1570 536 1537 564 1510 C 592 1483 630 1470 678 1470 C 726 1470 765 1483 793 1510 C 821 1537 835 1570 835 1610 Z M 1208 508 C 1208 334 1161 201 1067 108 C 973 15 842 -31 674 -31 C 510 -31 381 13 285 102 C 189 191 141 319 141 485 L 141 1280 L 391 1280 L 391 518 C 391 413 414 332 462 274 C 510 216 583 188 682 188 C 770 188 839 213 888 265 C 936 317 961 398 961 508 L 961 1280 L 1208 1280 L 1208 508 Z" unicode="Ů" />
<glyph horiz-adv-x="1102" d="M 815 1300 C 815 1236 790 1181 741 1136 C 692 1091 626 1069 543 1069 C 459 1069 392 1091 343 1136 C 294 1181 270 1236 270 1300 C 270 1364 294 1420 343 1466 C 392 1512 459 1536 543 1536 C 626 1536 692 1513 740 1467 C 788 1421 813 1365 815 1300 Z M 700 1303 C 700 1341 686 1374 658 1401 C 630 1428 591 1442 543 1442 C 495 1442 457 1428 429 1401 C 401 1374 387 1341 387 1303 C 387 1263 401 1230 429 1203 C 457 1176 495 1163 543 1163 C 591 1163 630 1176 658 1203 C 686 1230 700 1263 700 1303 Z M 121 944 L 362 944 L 362 369 C 362 299 376 251 404 224 C 432 197 471 184 522 184 C 564 184 604 192 640 209 C 676 225 706 244 729 266 L 729 944 L 971 944 L 971 6 L 729 -27 L 729 113 C 690 71 643 36 589 9 C 535 -17 478 -31 418 -31 C 326 -31 253 -1 200 56 C 147 114 121 194 121 295 L 121 944 Z" unicode="ů" />
<glyph horiz-adv-x="1352" d="M 1208 508 C 1208 334 1161 201 1067 108 C 973 15 842 -31 674 -31 C 510 -31 381 13 285 102 C 189 191 141 319 141 485 L 141 1280 L 391 1280 L 391 518 C 391 413 414 332 462 274 C 510 216 583 188 682 188 C 770 188 839 213 888 265 C 936 317 961 398 961 508 L 961 1280 L 1208 1280 L 1208 508 Z M 825 1775 L 532 1404 L 354 1404 L 593 1775 L 825 1775 Z M 1240 1775 L 901 1404 L 726 1404 L 1009 1775 L 1240 1775 Z" unicode="Ű" />
<glyph horiz-adv-x="1102" d="M 121 944 L 362 944 L 362 369 C 362 299 376 251 404 224 C 432 197 471 184 522 184 C 564 184 604 192 640 209 C 676 225 706 244 729 266 L 729 944 L 971 944 L 971 6 L 729 -27 L 729 113 C 690 71 643 36 589 9 C 535 -17 478 -31 418 -31 C 326 -31 253 -1 200 56 C 147 114 121 194 121 295 L 121 944 Z M 659 1442 L 366 1071 L 188 1071 L 427 1442 L 659 1442 Z M 1074 1442 L 735 1071 L 560 1071 L 843 1442 L 1074 1442 Z" unicode="ű" />
<glyph horiz-adv-x="1352" d="M 1208 508 C 1208 388 1186 288 1142 209 C 1098 129 1036 67 956 23 C 907 -5 868 -36 840 -71 C 811 -106 797 -143 797 -182 C 797 -212 804 -235 820 -253 C 836 -270 858 -279 887 -279 C 905 -279 923 -276 942 -270 C 961 -264 977 -257 991 -248 L 1032 -391 C 1008 -407 979 -421 947 -432 C 915 -443 876 -449 831 -449 C 763 -449 707 -430 664 -393 C 621 -355 600 -306 600 -244 C 600 -200 610 -159 632 -123 C 654 -86 683 -55 719 -29 C 711 -29 704 -29 696 -30 C 688 -30 680 -31 674 -31 C 510 -31 381 13 285 102 C 189 191 141 319 141 485 L 141 1280 L 393 1280 L 393 520 C 393 414 416 332 464 275 C 511 218 584 190 682 190 C 770 190 838 215 886 267 C 934 318 958 398 958 508 L 958 1280 L 1208 1280 L 1208 508 Z" unicode="Ų" />
<glyph horiz-adv-x="1102" d="M 121 944 L 365 944 L 365 369 C 365 300 378 252 406 226 C 433 199 472 186 522 186 C 564 186 604 194 640 211 C 676 227 706 246 729 266 L 729 944 L 973 944 L 973 2 C 911 -8 853 -31 799 -68 C 744 -105 717 -143 717 -182 C 717 -212 724 -235 740 -253 C 756 -270 778 -279 807 -279 C 825 -279 843 -276 862 -270 C 881 -264 897 -257 911 -248 L 952 -391 C 928 -407 900 -421 868 -432 C 835 -443 796 -449 752 -449 C 683 -449 627 -430 584 -393 C 541 -355 520 -306 520 -244 C 520 -182 541 -129 583 -83 C 625 -37 674 -3 729 20 L 729 113 C 690 71 643 36 589 9 C 535 -17 478 -31 418 -31 C 326 -31 253 -1 200 56 C 147 114 121 194 121 295 L 121 944 Z" unicode="ų" />
<glyph horiz-adv-x="1901" d="M 1310 1404 L 1140 1404 L 956 1646 L 952 1646 L 769 1404 L 597 1404 L 837 1787 L 1070 1787 L 1310 1404 Z M 950 989 L 662 0 L 408 0 L 55 1280 L 322 1280 L 545 305 L 811 1280 L 1098 1280 L 1368 305 L 1589 1280 L 1843 1280 L 1491 0 L 1233 0 L 950 989 Z" unicode="Ŵ" />
<glyph horiz-adv-x="1493" d="M 1105 1071 L 935 1071 L 751 1313 L 747 1313 L 564 1071 L 392 1071 L 632 1454 L 865 1454 L 1105 1071 Z M 541 -4 L 305 -4 L 25 944 L 276 944 L 440 281 L 629 942 L 870 942 L 1073 285 L 1214 944 L 1470 944 L 1194 -4 L 956 -4 L 745 659 L 541 -4 Z" unicode="ŵ" />
<glyph horiz-adv-x="1182" d="M 1159 1280 L 715 496 L 715 0 L 467 0 L 467 498 L 20 1280 L 291 1280 L 594 727 L 891 1280 L 1159 1280 Z M 952 1404 L 782 1404 L 598 1646 L 594 1646 L 411 1404 L 239 1404 L 479 1787 L 712 1787 L 952 1404 Z" unicode="Ŷ" />
<glyph horiz-adv-x="973" d="M 975 944 L 614 18 L 559 -129 C 512 -257 459 -345 401 -393 C 343 -441 270 -465 184 -465 C 141 -465 100 -460 60 -450 C 20 -440 -17 -427 -55 -410 L 16 -211 C 44 -224 69 -235 93 -243 C 117 -251 141 -256 166 -256 C 200 -256 229 -245 251 -224 C 273 -203 298 -160 324 -96 L 365 12 L -4 944 L 256 944 L 492 268 L 717 944 L 975 944 Z M 841 1071 L 671 1071 L 487 1313 L 483 1313 L 300 1071 L 128 1071 L 368 1454 L 601 1454 L 841 1071 Z" unicode="ŷ" />
<glyph horiz-adv-x="1180" d="M 1159 1280 L 715 496 L 715 0 L 467 0 L 467 498 L 20 1280 L 291 1280 L 594 727 L 891 1280 L 1159 1280 Z M 510 1540 C 510 1497 496 1462 470 1435 C 444 1407 409 1394 366 1394 C 324 1394 290 1407 263 1435 C 236 1462 223 1497 223 1540 C 223 1581 236 1615 263 1641 C 290 1667 324 1681 366 1681 C 409 1681 444 1667 470 1641 C 496 1615 510 1581 510 1540 Z M 958 1540 C 958 1497 944 1462 918 1435 C 892 1407 857 1394 815 1394 C 772 1394 737 1407 711 1435 C 684 1462 671 1497 671 1540 C 671 1581 684 1615 711 1641 C 737 1667 772 1681 815 1681 C 857 1681 892 1667 918 1641 C 944 1615 958 1581 958 1540 Z" unicode="Ÿ" />
<glyph horiz-adv-x="1130" d="M 907 1779 L 585 1404 L 425 1404 L 634 1779 L 907 1779 Z M 1049 0 L 55 0 L 55 172 L 737 1063 L 68 1063 L 68 1280 L 1051 1280 L 1051 1104 L 371 217 L 1049 217 L 1049 0 Z" unicode="Ź" />
<glyph horiz-adv-x="891" d="M 776 1446 L 454 1071 L 294 1071 L 503 1446 L 776 1446 Z M 844 0 L 41 0 L 41 166 L 535 739 L 59 739 L 59 944 L 844 944 L 844 782 L 348 207 L 844 207 L 844 0 Z" unicode="ź" />
<glyph horiz-adv-x="1130" d="M 1049 0 L 55 0 L 55 172 L 737 1063 L 68 1063 L 68 1280 L 1051 1280 L 1051 1104 L 371 217 L 1049 217 L 1049 0 Z M 712 1547 C 712 1505 698 1470 672 1440 C 645 1410 610 1396 567 1396 C 523 1396 487 1410 461 1440 C 434 1470 421 1505 421 1547 C 421 1587 434 1622 461 1652 C 487 1682 523 1697 567 1697 C 610 1697 645 1682 672 1652 C 698 1622 712 1587 712 1547 Z" unicode="Ż" />
<glyph horiz-adv-x="891" d="M 844 0 L 41 0 L 41 166 L 535 739 L 59 739 L 59 944 L 844 944 L 844 782 L 348 207 L 844 207 L 844 0 Z M 589 1214 C 589 1172 575 1137 549 1107 C 522 1077 487 1063 444 1063 C 400 1063 364 1077 338 1107 C 311 1137 298 1172 298 1214 C 298 1254 311 1289 338 1319 C 364 1349 400 1364 444 1364 C 487 1364 522 1349 549 1319 C 575 1289 589 1254 589 1214 Z" unicode="ż" />
<glyph horiz-adv-x="1128" d="M 1049 0 L 55 0 L 55 172 L 737 1063 L 68 1063 L 68 1280 L 1051 1280 L 1051 1104 L 371 217 L 1049 217 L 1049 0 Z M 909 1769 L 669 1386 L 436 1386 L 196 1769 L 366 1769 L 551 1529 L 555 1529 L 737 1769 L 909 1769 Z" unicode="Ž" />
<glyph horiz-adv-x="889" d="M 844 0 L 41 0 L 41 166 L 535 739 L 59 739 L 59 944 L 844 944 L 844 782 L 348 207 L 844 207 L 844 0 Z M 790 1454 L 550 1071 L 317 1071 L 77 1454 L 247 1454 L 432 1214 L 436 1214 L 618 1454 L 790 1454 Z" unicode="ž" />
<glyph horiz-adv-x="827" d="M 199 332 L 254 627 L 25 639 L 63 793 L 287 838 L 311 971 C 329 1075 364 1155 416 1212 C 468 1269 543 1298 641 1298 C 691 1298 739 1291 783 1277 C 827 1263 864 1247 893 1229 C 893 1227 878 1196 850 1134 C 821 1072 807 1042 807 1042 C 783 1056 759 1069 734 1079 C 709 1089 685 1094 662 1094 C 627 1094 599 1082 579 1060 C 558 1038 543 1001 535 950 L 512 827 L 768 827 L 735 629 L 485 629 L 430 340 C 410 226 371 139 311 80 C 251 21 160 -17 39 -37 L -16 158 C 48 168 98 187 133 215 C 167 243 189 282 199 332 Z" unicode="ƒ" />
<glyph horiz-adv-x="1255" d="M 1239 1309 L 199 -31 L 16 -31 L 1059 1309 L 1239 1309 Z" unicode="⁄" />
<glyph horiz-adv-x="1247" d="M 778 1280 L 1239 0 L 987 0 L 881 303 L 365 303 L 260 0 L 8 0 L 475 1280 L 778 1280 Z M 817 510 L 625 1065 L 430 510 L 817 510 Z M 982 1769 L 742 1386 L 509 1386 L 269 1769 L 439 1769 L 624 1529 L 628 1529 L 810 1769 L 982 1769 Z" unicode="Ǎ" />
<glyph horiz-adv-x="985" d="M 633 109 L 625 109 C 591 67 552 34 510 8 C 467 -18 416 -31 358 -31 C 274 -31 204 -5 149 46 C 93 98 66 161 66 236 C 66 322 105 397 184 463 C 262 528 409 564 625 571 L 625 594 C 625 657 610 703 581 731 C 551 759 503 774 436 774 C 388 774 336 764 281 745 C 225 726 173 702 123 674 L 74 864 C 120 892 178 918 248 941 C 318 963 391 975 469 975 C 613 975 716 942 778 877 C 840 812 869 715 866 586 L 866 248 C 866 212 871 189 881 179 C 891 169 914 164 950 162 L 932 -20 C 842 -30 774 -23 728 1 C 682 25 650 61 633 109 Z M 625 227 L 625 444 C 507 430 424 409 376 383 C 327 356 303 318 303 268 C 303 232 315 203 341 180 C 367 156 401 145 444 145 C 482 145 516 152 547 168 C 577 184 603 203 625 227 Z M 849 1454 L 609 1071 L 376 1071 L 136 1454 L 306 1454 L 491 1214 L 495 1214 L 677 1454 L 849 1454 Z" unicode="ǎ" />
<glyph horiz-adv-x="1249" d="M 899 2058 L 577 1683 L 417 1683 L 626 2058 L 899 2058 Z M 455 1227 C 425 1245 400 1270 382 1302 C 363 1334 354 1368 354 1405 C 354 1469 378 1523 428 1569 C 477 1615 543 1638 625 1638 C 708 1638 773 1615 821 1569 C 869 1523 893 1469 895 1405 C 896 1369 888 1336 870 1304 C 852 1272 828 1247 797 1227 L 1239 0 L 987 0 L 881 303 L 365 303 L 260 0 L 8 0 L 455 1227 Z M 784 1407 C 784 1445 769 1477 741 1505 C 712 1532 673 1546 625 1546 C 578 1546 540 1532 512 1505 C 483 1477 469 1445 469 1407 C 469 1369 483 1336 512 1309 C 540 1281 578 1268 625 1268 C 673 1268 712 1281 741 1309 C 769 1336 784 1369 784 1407 Z M 817 510 L 625 1065 L 430 510 L 817 510 Z" unicode="Ǻ" />
<glyph horiz-adv-x="987" d="M 633 109 L 625 109 C 591 67 552 34 510 8 C 467 -18 416 -31 358 -31 C 274 -31 204 -5 149 46 C 93 98 66 161 66 236 C 66 322 105 397 184 463 C 262 528 409 564 625 571 L 625 594 C 625 657 610 703 581 731 C 551 759 503 774 436 774 C 388 774 336 764 281 745 C 225 726 173 702 123 674 L 74 864 C 120 892 178 918 248 941 C 318 963 391 975 469 975 C 613 975 716 942 778 877 C 840 812 869 715 866 586 L 866 248 C 866 212 871 189 881 179 C 891 169 914 164 950 162 L 932 -20 C 842 -30 774 -23 728 1 C 682 25 650 61 633 109 Z M 625 227 L 625 444 C 507 430 424 409 376 383 C 327 356 303 318 303 268 C 303 232 315 203 341 180 C 367 156 401 145 444 145 C 482 145 516 152 547 168 C 577 184 603 203 625 227 Z M 780 1962 L 458 1587 L 298 1587 L 507 1962 L 780 1962 Z M 733 1300 C 733 1236 708 1181 659 1136 C 610 1091 544 1069 461 1069 C 377 1069 310 1091 261 1136 C 212 1181 188 1236 188 1300 C 188 1364 212 1420 261 1466 C 310 1512 377 1536 461 1536 C 544 1536 610 1513 658 1467 C 706 1421 731 1365 733 1300 Z M 618 1303 C 618 1341 604 1374 576 1401 C 548 1428 509 1442 461 1442 C 413 1442 375 1428 347 1401 C 319 1374 305 1341 305 1303 C 305 1263 319 1230 347 1203 C 375 1176 413 1163 461 1163 C 509 1163 548 1176 576 1203 C 604 1230 618 1263 618 1303 Z" unicode="ǻ" />
<glyph horiz-adv-x="1774" d="M 1427 1779 L 1105 1404 L 945 1404 L 1154 1779 L 1427 1779 Z M 412 303 L 254 0 L -16 0 L 662 1280 L 1690 1280 L 1690 1069 L 1061 1069 L 1061 748 L 1583 748 L 1583 537 L 1061 537 L 1061 211 L 1690 211 L 1690 0 L 815 0 L 815 303 L 412 303 Z M 514 514 L 815 514 L 815 1096 L 514 514 Z" unicode="Ǽ" />
<glyph horiz-adv-x="1577" d="M 1132 1446 L 810 1071 L 650 1071 L 859 1446 L 1132 1446 Z M 717 164 C 679 112 630 67 570 28 C 510 -11 440 -31 358 -31 C 274 -31 204 -5 149 46 C 93 98 66 161 66 236 C 66 322 106 397 188 463 C 270 529 421 565 641 571 L 641 590 C 641 658 623 705 589 733 C 554 760 503 774 436 774 C 388 774 336 764 281 745 C 225 726 173 702 123 674 L 74 864 C 120 892 178 918 248 941 C 318 963 392 975 471 975 C 558 975 627 963 679 940 C 731 916 771 885 799 846 C 836 885 882 916 936 940 C 990 963 1052 975 1120 975 C 1243 975 1337 939 1403 867 C 1468 795 1501 704 1501 592 C 1501 566 1499 539 1495 509 C 1491 479 1487 454 1481 434 L 864 426 L 864 420 C 868 343 895 281 945 233 C 995 185 1061 162 1145 162 C 1195 162 1246 169 1298 185 C 1350 200 1398 221 1440 248 L 1470 47 C 1425 22 1373 3 1314 -10 C 1254 -24 1192 -31 1128 -31 C 1037 -31 956 -13 885 22 C 814 57 758 104 717 164 Z M 641 444 C 519 434 432 414 380 386 C 328 357 303 318 303 268 C 303 232 316 203 342 180 C 368 156 405 145 451 145 C 489 145 529 155 570 177 C 610 198 644 225 670 258 C 662 277 656 307 651 348 C 645 388 642 420 641 444 Z M 868 567 L 1274 569 L 1274 586 C 1274 648 1259 698 1230 736 C 1201 774 1156 793 1096 793 C 1029 793 976 769 937 723 C 897 677 874 625 868 567 Z" unicode="ǽ" />
<glyph horiz-adv-x="1487" d="M 1405 645 C 1405 449 1342 288 1217 160 C 1092 32 936 -31 748 -31 C 694 -31 643 -26 594 -16 C 545 -6 499 8 457 27 L 365 -137 L 225 -137 L 352 84 C 272 138 208 213 161 307 C 113 401 90 511 90 637 C 90 833 152 995 278 1121 C 404 1247 561 1311 750 1311 C 800 1311 849 1306 897 1296 C 944 1286 989 1272 1032 1255 L 1126 1417 L 1266 1417 L 1141 1200 C 1221 1145 1285 1070 1333 976 C 1381 882 1405 771 1405 645 Z M 1018 999 L 567 219 C 595 205 624 194 655 188 C 685 181 718 178 752 178 C 872 178 969 220 1043 306 C 1116 391 1153 501 1153 637 C 1153 713 1141 783 1117 845 C 1093 907 1060 958 1018 999 Z M 924 1065 C 897 1077 869 1086 839 1092 C 809 1098 777 1102 743 1102 C 622 1102 525 1059 452 975 C 378 890 342 780 342 645 C 342 568 353 499 377 438 C 400 376 433 326 475 287 L 924 1065 Z M 1116 1765 L 794 1390 L 634 1390 L 843 1765 L 1116 1765 Z" unicode="Ǿ" />
<glyph horiz-adv-x="1114" d="M 1047 473 C 1047 319 1000 196 907 105 C 813 14 697 -31 559 -31 C 524 -31 490 -28 458 -22 C 425 -16 395 -7 367 4 L 283 -137 L 141 -137 C 141 -137 160 -103 200 -35 C 240 32 259 66 258 66 C 203 108 160 164 128 234 C 96 304 80 383 80 473 C 80 625 126 747 220 839 C 313 931 429 977 569 977 C 605 977 640 973 673 967 C 706 961 737 952 766 940 L 846 1077 L 989 1077 L 872 879 C 926 835 968 778 1000 709 C 1031 640 1047 561 1047 473 Z M 672 770 C 654 779 636 786 618 790 C 599 794 580 797 561 797 C 481 797 420 767 378 708 C 336 648 315 571 315 477 C 315 433 319 392 329 355 C 339 318 353 284 373 254 L 672 770 Z M 813 471 C 813 513 808 552 799 589 C 789 625 776 659 758 690 L 463 174 C 479 168 495 163 513 159 C 531 155 549 154 569 154 C 647 154 708 183 750 241 C 792 299 813 376 813 471 Z M 872 1446 L 550 1071 L 390 1071 L 599 1446 L 872 1446 Z" unicode="ǿ" />
<glyph horiz-adv-x="1024" d="M 954 389 L 70 389 L 76 582 L 948 582 L 954 389 Z" unicode="−" />
<glyph horiz-adv-x="1255" d="M 1239 1309 L 199 -31 L 16 -31 L 1059 1309 L 1239 1309 Z" unicode="∕" />
<glyph horiz-adv-x="1100" d="M 405 -229 C 407 -197 420 -169 444 -143 C 468 -117 502 -104 544 -104 C 590 -104 629 -120 661 -152 C 692 -184 708 -225 708 -274 C 708 -339 685 -396 639 -445 C 593 -493 532 -534 456 -567 L 392 -504 C 444 -471 479 -441 498 -415 C 516 -389 526 -364 526 -342 C 526 -319 518 -299 503 -282 C 488 -265 455 -247 405 -229 Z M 532 180 C 601 180 658 195 703 227 C 747 258 770 299 770 350 C 770 403 746 443 698 469 C 650 495 579 521 485 547 C 393 572 304 611 218 664 C 131 717 88 806 88 932 C 88 1044 129 1136 211 1206 C 293 1276 405 1311 547 1311 C 633 1311 713 1300 786 1280 C 858 1260 925 1232 987 1198 L 926 987 C 870 1021 808 1048 740 1068 C 672 1088 609 1098 549 1098 C 474 1098 419 1083 385 1055 C 351 1026 334 990 334 946 C 334 894 360 854 413 828 C 466 802 537 777 625 754 C 720 727 809 686 892 632 C 974 578 1016 490 1016 369 C 1016 252 972 156 884 81 C 796 6 678 -31 528 -31 C 444 -31 361 -20 280 1 C 198 22 128 51 68 88 L 125 303 C 184 267 248 238 316 215 C 384 191 456 180 532 180 Z" unicode="Ș" />
<glyph horiz-adv-x="885" d="M 280 -229 C 282 -197 295 -169 319 -143 C 343 -117 377 -104 419 -104 C 465 -104 504 -120 536 -152 C 567 -184 583 -225 583 -274 C 583 -339 560 -396 514 -445 C 468 -493 407 -534 331 -567 L 267 -504 C 319 -471 354 -441 373 -415 C 391 -389 401 -364 401 -342 C 401 -319 393 -299 378 -282 C 363 -265 330 -247 280 -229 Z M 815 274 C 815 186 779 113 708 55 C 637 -3 542 -33 422 -33 C 360 -33 296 -24 228 -8 C 160 7 102 29 55 55 L 109 244 C 155 217 207 196 264 180 C 321 164 376 156 428 156 C 474 156 512 165 541 183 C 569 201 584 227 584 260 C 584 296 566 323 530 341 C 494 358 448 373 393 387 C 304 407 229 439 167 482 C 105 525 74 591 74 680 C 74 768 108 840 177 894 C 246 948 337 975 451 975 C 509 975 569 968 633 954 C 697 940 751 921 795 899 L 741 711 C 695 734 645 753 590 767 C 534 781 486 788 444 788 C 400 788 366 780 341 764 C 315 748 303 724 303 694 C 303 658 321 632 357 616 C 393 599 438 584 494 571 C 583 549 659 517 721 475 C 783 433 815 366 815 274 Z" unicode="ș" />
<glyph horiz-adv-x="1190" d="M 442 -229 C 444 -197 457 -169 481 -143 C 505 -117 539 -104 581 -104 C 627 -104 666 -120 698 -152 C 729 -184 745 -225 745 -274 C 745 -339 722 -396 676 -445 C 630 -493 569 -534 493 -567 L 429 -504 C 481 -471 516 -441 535 -415 C 553 -389 563 -364 563 -342 C 563 -319 555 -299 540 -282 C 525 -265 492 -247 442 -229 Z M 1147 1061 L 719 1061 L 719 0 L 471 0 L 471 1061 L 43 1061 L 43 1280 L 1147 1280 L 1147 1061 Z" unicode="Ț" />
<glyph horiz-adv-x="735" d="M 270 -229 C 272 -197 285 -169 309 -143 C 333 -117 367 -104 409 -104 C 455 -104 494 -120 526 -152 C 557 -184 573 -225 573 -274 C 573 -339 550 -396 504 -445 C 458 -493 397 -534 321 -567 L 257 -504 C 309 -471 344 -441 363 -415 C 381 -389 391 -364 391 -342 C 391 -319 383 -299 368 -282 C 353 -265 320 -247 270 -229 Z M 682 6 C 646 -6 610 -15 576 -21 C 541 -27 503 -31 463 -31 C 357 -31 278 -6 224 44 C 170 94 145 175 150 289 L 164 733 L 16 750 L 23 903 L 170 950 L 174 1159 L 408 1159 L 403 938 L 670 938 L 664 739 L 389 739 L 377 303 C 375 259 386 226 408 205 C 430 184 461 174 502 174 C 526 174 550 176 575 182 C 600 188 625 195 649 203 L 682 6 Z" unicode="ț" />
<glyph horiz-adv-x="498" d="M 111 -502 L -39 -336 C 19 -308 61 -271 88 -224 C 115 -176 129 -102 129 -2 L 129 938 L 373 973 L 373 -8 C 373 -143 353 -249 313 -326 C 273 -403 205 -462 111 -502 Z" unicode="ȷ" />
<glyph horiz-adv-x="1024" d="M 930 410 C 916 337 886 273 840 218 C 793 162 734 135 662 135 C 608 135 552 151 496 185 C 440 219 394 236 358 236 C 346 236 330 231 310 223 C 290 215 275 189 264 145 L 96 145 C 109 217 139 281 186 337 C 232 392 292 420 365 420 C 417 420 473 403 533 369 C 592 335 637 319 668 319 C 687 319 705 324 721 334 C 737 344 752 370 764 410 L 930 410 Z M 930 815 C 916 743 886 679 840 624 C 793 568 734 541 662 541 C 608 541 552 557 496 591 C 440 624 394 641 358 641 C 346 641 330 637 310 629 C 290 621 275 595 264 551 L 96 551 C 109 623 139 686 186 742 C 232 797 292 825 365 825 C 417 825 473 808 533 775 C 592 741 637 725 668 725 C 687 725 705 730 721 740 C 737 750 752 775 764 815 L 930 815 Z" unicode="≈" />
<glyph horiz-adv-x="1024" d="M 279 -68 L 342 180 L 92 180 L 102 371 L 393 371 L 451 590 L 102 590 L 92 780 L 500 780 L 559 1008 L 745 1008 L 686 780 L 934 780 L 924 590 L 637 590 L 580 371 L 924 371 L 934 180 L 528 180 L 465 -68 L 279 -68 Z" unicode="≠" />
<glyph horiz-adv-x="1024" d="M 881 414 L 881 223 L 141 514 L 141 735 L 881 1026 L 881 836 L 358 633 L 358 614 L 881 414 Z M 883 0 L 156 0 L 162 193 L 877 193 L 883 0 Z" unicode="≤" />
<glyph horiz-adv-x="1024" d="M 143 223 L 143 414 L 666 614 L 666 633 L 143 836 L 143 1026 L 883 735 L 883 514 L 143 223 Z M 868 0 L 141 0 L 147 193 L 862 193 L 868 0 Z" unicode="≥" />
<glyph horiz-adv-x="504" d="M 436 874 C 431 830 413 794 381 765 C 349 735 308 721 258 721 C 200 721 151 742 109 786 C 67 830 47 882 47 944 C 47 1034 80 1112 148 1179 C 215 1246 290 1304 373 1354 L 477 1257 C 413 1212 363 1170 327 1131 C 290 1091 272 1054 272 1020 C 272 993 283 969 307 948 C 331 926 374 902 436 874 Z" unicode="ʻ" />
<glyph horiz-adv-x="811" d="M 766 1071 L 596 1071 L 412 1313 L 408 1313 L 225 1071 L 53 1071 L 293 1454 L 526 1454 L 766 1071 Z" unicode="ˆ" />
<glyph horiz-adv-x="811" d="M 766 1454 L 526 1071 L 293 1071 L 53 1454 L 223 1454 L 408 1214 L 412 1214 L 594 1454 L 766 1454 Z" unicode="ˇ" />
<glyph horiz-adv-x="811" d="M 735 1114 L 82 1114 L 98 1255 L 719 1255 L 735 1114 Z" unicode="ˉ" />
<glyph horiz-adv-x="811" d="M 760 1450 C 747 1328 709 1233 646 1165 C 583 1097 504 1063 410 1063 C 316 1063 237 1097 173 1165 C 109 1233 71 1328 59 1450 L 223 1448 C 235 1384 257 1331 287 1287 C 317 1243 358 1221 410 1221 C 462 1221 504 1243 534 1287 C 564 1331 584 1384 596 1448 L 760 1450 Z" unicode="˘" />
<glyph horiz-adv-x="811" d="M 555 1214 C 555 1172 541 1137 515 1107 C 488 1077 453 1063 410 1063 C 366 1063 330 1077 304 1107 C 277 1137 264 1172 264 1214 C 264 1254 277 1289 304 1319 C 330 1349 366 1364 410 1364 C 453 1364 488 1349 515 1319 C 541 1289 555 1254 555 1214 Z" unicode="˙" />
<glyph horiz-adv-x="811" d="M 682 1300 C 682 1236 657 1181 608 1136 C 559 1091 493 1069 410 1069 C 326 1069 259 1091 210 1136 C 161 1181 137 1236 137 1300 C 137 1364 161 1420 210 1466 C 259 1512 326 1536 410 1536 C 493 1536 559 1513 607 1467 C 655 1421 680 1365 682 1300 Z M 567 1303 C 567 1341 553 1374 525 1401 C 497 1428 458 1442 410 1442 C 362 1442 324 1428 296 1401 C 268 1374 254 1341 254 1303 C 254 1263 268 1230 296 1203 C 324 1176 362 1163 410 1163 C 458 1163 497 1176 525 1203 C 553 1230 567 1263 567 1303 Z" unicode="˚" />
<glyph horiz-adv-x="811" d="M 653 -451 C 620 -475 582 -496 540 -516 C 497 -535 450 -545 399 -545 C 325 -545 264 -523 215 -481 C 165 -438 141 -382 141 -313 C 141 -239 175 -165 243 -93 C 311 -20 404 31 522 61 L 690 61 C 560 11 464 -45 400 -109 C 336 -173 305 -233 305 -289 C 305 -324 315 -352 337 -374 C 359 -395 389 -406 428 -406 C 457 -406 490 -399 526 -387 C 562 -374 599 -357 635 -336 L 653 -451 Z" unicode="˛" />
<glyph horiz-adv-x="809" d="M 780 1364 C 768 1260 746 1186 712 1143 C 678 1100 630 1079 569 1079 C 505 1079 445 1100 391 1143 C 336 1186 291 1208 256 1208 C 238 1208 224 1199 213 1182 C 201 1165 192 1135 186 1092 L 35 1092 C 46 1196 69 1270 104 1313 C 138 1356 186 1378 248 1378 C 311 1378 370 1356 425 1312 C 479 1268 524 1247 559 1247 C 576 1247 591 1255 603 1272 C 615 1289 623 1320 629 1364 L 780 1364 Z" unicode="˜" />
<glyph horiz-adv-x="809" d="M 586 1442 L 293 1071 L 115 1071 L 354 1442 L 586 1442 Z M 1001 1442 L 662 1071 L 487 1071 L 770 1442 L 1001 1442 Z" unicode="˝" />
<glyph horiz-adv-x="1176" d="M 719 1384 C 719 1382 711 1346 695 1277 C 679 1208 672 1174 672 1176 C 650 1184 628 1192 604 1199 C 580 1206 556 1210 532 1210 C 488 1210 457 1196 437 1170 C 417 1143 408 1100 408 1042 L 408 938 L 682 938 L 676 739 L 414 739 L 414 0 L 172 0 L 172 737 L 8 750 L 16 903 L 170 948 L 172 1049 C 175 1183 206 1279 266 1337 C 325 1395 408 1425 514 1425 C 552 1425 590 1420 627 1411 C 663 1402 694 1393 719 1384 Z M 1081 1247 C 1081 1204 1068 1169 1042 1143 C 1016 1117 980 1104 932 1104 C 884 1104 847 1117 822 1143 C 796 1169 784 1204 784 1247 C 784 1291 796 1326 822 1353 C 847 1379 884 1393 932 1393 C 980 1393 1016 1379 1042 1353 C 1068 1326 1081 1291 1081 1247 Z M 1053 0 L 811 0 L 811 938 L 1053 973 L 1053 0 Z" unicode="ﬁ" />
<glyph horiz-adv-x="1202" d="M 737 1378 C 737 1377 728 1342 711 1273 C 694 1204 686 1170 686 1171 C 663 1181 639 1190 613 1198 C 587 1206 560 1210 532 1210 C 488 1210 457 1196 437 1170 C 417 1143 408 1100 408 1042 L 408 938 L 688 938 L 682 739 L 414 739 L 414 0 L 172 0 L 172 737 L 8 750 L 16 903 L 170 948 L 172 1049 C 175 1183 207 1279 267 1337 C 327 1395 409 1425 514 1425 C 560 1425 602 1419 642 1409 C 682 1399 713 1388 737 1378 Z M 1073 0 L 831 0 L 831 1368 L 1073 1401 L 1073 0 Z" unicode="ﬂ" />
<glyph horiz-adv-x="1108" d="M 371 944 L 371 377 C 371 300 390 249 428 223 C 466 197 505 184 545 184 C 579 184 620 197 667 223 C 713 249 737 304 737 387 L 737 944 L 979 944 L 979 0 L 737 0 L 737 98 C 721 60 694 30 658 8 C 621 -13 584 -25 547 -25 C 509 -25 474 -16 444 0 C 413 17 389 42 371 74 L 371 -477 L 129 -477 L 129 944 L 371 944 Z" unicode="μ" />
<glyph horiz-adv-x="1077" d="M 211 741 L 63 741 L 57 868 L 227 868 C 257 1027 317 1142 407 1212 C 497 1282 601 1317 719 1317 C 784 1317 846 1310 904 1296 C 962 1282 1012 1263 1053 1239 L 1004 1047 C 966 1069 924 1086 879 1099 C 833 1111 786 1118 737 1118 C 669 1118 612 1097 568 1057 C 524 1017 492 954 473 868 L 909 868 L 903 741 L 455 741 C 453 728 453 713 453 697 C 453 680 453 664 453 649 C 453 629 453 611 454 593 C 455 575 457 559 459 543 L 842 543 L 848 416 L 481 416 C 502 329 535 266 581 227 C 627 187 680 168 741 168 C 791 168 839 174 885 187 C 931 199 973 217 1010 240 L 1047 45 C 1007 21 958 3 900 -10 C 842 -24 780 -31 713 -31 C 588 -31 482 2 395 69 C 307 136 250 252 223 416 L 57 416 L 63 543 L 211 543 C 209 557 209 571 209 587 C 209 602 209 618 209 635 C 209 653 209 670 209 688 C 209 706 209 723 211 741 Z" unicode="€" />
<glyph horiz-adv-x="512" d="M 422 496 C 422 450 407 412 377 382 C 347 351 308 336 262 336 C 214 336 174 351 144 382 C 113 412 98 450 98 496 C 98 540 113 578 144 608 C 174 638 214 653 262 653 C 308 653 347 638 377 608 C 407 578 422 540 422 496 Z" unicode="∙" />
<glyph horiz-adv-x="1012" d="M 412 735 L 68 735 L 61 911 L 412 911 L 412 1280 L 600 1280 L 600 911 L 952 911 L 946 735 L 600 735 L 600 -258 L 412 -258 L 412 735 Z" unicode="†" />
<glyph horiz-adv-x="1563" d="M 780 -76 C 584 -76 417 -6 277 133 C 137 272 68 440 68 637 C 68 833 137 1002 277 1143 C 417 1283 584 1354 780 1354 C 976 1354 1145 1283 1285 1143 C 1425 1002 1495 833 1495 637 C 1495 440 1425 272 1285 133 C 1145 -6 976 -76 780 -76 Z M 1430 637 C 1430 815 1366 968 1239 1098 C 1111 1227 958 1292 780 1292 C 602 1292 450 1227 323 1098 C 196 968 133 815 133 637 C 133 458 196 304 323 176 C 450 48 602 -16 780 -16 C 958 -16 1111 48 1239 176 C 1366 304 1430 458 1430 637 Z M 1141 750 C 1141 660 1111 592 1052 546 C 993 500 913 477 811 477 L 721 477 L 721 260 L 532 260 L 532 1006 L 821 1006 C 926 1006 1006 982 1060 935 C 1114 887 1141 826 1141 750 Z M 956 743 C 956 783 943 813 917 833 C 891 853 853 864 801 864 L 715 864 L 715 614 L 803 616 C 853 617 891 628 917 650 C 943 671 956 702 956 743 Z" unicode="ⓟ" />
<glyph horiz-adv-x="1012" d="M 414 762 L 68 762 L 61 938 L 412 938 L 412 1280 L 600 1280 L 600 938 L 952 938 L 946 762 L 598 762 L 598 258 L 946 258 L 952 82 L 600 82 L 600 -258 L 412 -258 L 412 82 L 61 82 L 68 258 L 414 258 L 414 762 Z" unicode="‡" />
<glyph horiz-adv-x="1024" d="M 905 475 C 905 445 891 397 864 329 C 836 261 812 216 791 195 C 770 174 725 150 657 122 C 588 94 539 80 510 80 C 481 80 433 94 365 122 C 297 150 253 174 233 195 C 213 216 188 261 160 329 C 131 397 117 445 117 475 C 117 504 131 553 160 621 C 188 689 213 733 233 754 C 253 774 298 798 366 826 C 434 854 483 868 512 868 C 541 868 590 854 658 826 C 726 798 770 774 791 754 C 811 733 835 689 863 621 C 891 553 905 504 905 475 Z" unicode="•" />
<glyph horiz-adv-x="1532" d="M 414 127 C 414 82 399 44 369 14 C 339 -15 302 -31 258 -31 C 212 -31 173 -15 143 14 C 113 44 98 82 98 127 C 98 171 113 207 143 237 C 173 266 212 281 258 281 C 302 281 339 266 369 237 C 399 207 414 171 414 127 Z M 928 127 C 928 82 912 44 882 14 C 852 -15 814 -31 770 -31 C 725 -31 687 -15 656 14 C 625 44 610 82 610 127 C 610 171 625 207 656 237 C 687 266 725 281 770 281 C 814 281 852 266 882 237 C 912 207 928 171 928 127 Z M 1442 127 C 1442 82 1426 44 1396 14 C 1366 -15 1328 -31 1282 -31 C 1238 -31 1200 -15 1169 14 C 1137 44 1122 82 1122 127 C 1122 171 1137 207 1169 237 C 1200 266 1238 281 1282 281 C 1328 281 1366 266 1396 237 C 1426 207 1442 171 1442 127 Z" unicode="…" />
<glyph horiz-adv-x="1552" d="M 1563 477 L 1194 303 L 1335 -84 L 948 57 L 774 -313 L 602 55 L 219 -84 L 358 299 L -12 475 L 358 645 L 219 1032 L 602 891 L 778 1262 L 948 891 L 1335 1032 L 1194 645 L 1563 477 Z M 1358 475 L 1087 602 L 1190 887 L 905 784 L 776 1057 L 647 784 L 362 887 L 467 602 L 193 473 L 467 344 L 362 61 L 647 166 L 774 -111 L 905 166 L 1190 61 L 1087 348 L 1358 475 Z" unicode="" />
<glyph horiz-adv-x="1901" d="M 950 989 L 662 0 L 408 0 L 55 1280 L 322 1280 L 545 305 L 811 1280 L 1098 1280 L 1368 305 L 1589 1280 L 1843 1280 L 1491 0 L 1233 0 L 950 989 Z M 1063 1404 L 901 1404 L 579 1779 L 852 1779 L 1063 1404 Z" unicode="Ẁ" />
<glyph horiz-adv-x="1493" d="M 541 -4 L 305 -4 L 25 944 L 276 944 L 440 281 L 629 942 L 870 942 L 1073 285 L 1214 944 L 1470 944 L 1194 -4 L 956 -4 L 745 659 L 541 -4 Z M 858 1071 L 696 1071 L 374 1446 L 647 1446 L 858 1071 Z" unicode="ẁ" />
<glyph horiz-adv-x="1901" d="M 1310 1779 L 988 1404 L 828 1404 L 1037 1779 L 1310 1779 Z M 950 989 L 662 0 L 408 0 L 55 1280 L 322 1280 L 545 305 L 811 1280 L 1098 1280 L 1368 305 L 1589 1280 L 1843 1280 L 1491 0 L 1233 0 L 950 989 Z" unicode="Ẃ" />
<glyph horiz-adv-x="1493" d="M 1110 1446 L 788 1071 L 628 1071 L 837 1446 L 1110 1446 Z M 541 -4 L 305 -4 L 25 944 L 276 944 L 440 281 L 629 942 L 870 942 L 1073 285 L 1214 944 L 1470 944 L 1194 -4 L 956 -4 L 745 659 L 541 -4 Z" unicode="ẃ" />
<glyph horiz-adv-x="1901" d="M 874 1558 C 874 1515 860 1480 834 1453 C 808 1425 773 1412 730 1412 C 688 1412 654 1425 627 1453 C 600 1480 587 1515 587 1558 C 587 1599 600 1633 627 1659 C 654 1685 688 1699 730 1699 C 773 1699 808 1685 834 1659 C 860 1633 874 1599 874 1558 Z M 1322 1558 C 1322 1515 1308 1480 1282 1453 C 1256 1425 1221 1412 1179 1412 C 1136 1412 1101 1425 1075 1453 C 1048 1480 1035 1515 1035 1558 C 1035 1599 1048 1633 1075 1659 C 1101 1685 1136 1699 1179 1699 C 1221 1699 1256 1685 1282 1659 C 1308 1633 1322 1599 1322 1558 Z M 950 989 L 662 0 L 408 0 L 55 1280 L 322 1280 L 545 305 L 811 1280 L 1098 1280 L 1368 305 L 1589 1280 L 1843 1280 L 1491 0 L 1233 0 L 950 989 Z" unicode="Ẅ" />
<glyph horiz-adv-x="1493" d="M 667 1225 C 667 1182 653 1147 627 1120 C 601 1092 566 1079 523 1079 C 481 1079 447 1092 420 1120 C 393 1147 380 1182 380 1225 C 380 1266 393 1300 420 1326 C 447 1352 481 1366 523 1366 C 566 1366 601 1352 627 1326 C 653 1300 667 1266 667 1225 Z M 1115 1225 C 1115 1182 1101 1147 1075 1120 C 1049 1092 1014 1079 972 1079 C 929 1079 894 1092 868 1120 C 841 1147 828 1182 828 1225 C 828 1266 841 1300 868 1326 C 894 1352 929 1366 972 1366 C 1014 1366 1049 1352 1075 1326 C 1101 1300 1115 1266 1115 1225 Z M 541 -4 L 305 -4 L 25 944 L 276 944 L 440 281 L 629 942 L 870 942 L 1073 285 L 1214 944 L 1470 944 L 1194 -4 L 956 -4 L 745 659 L 541 -4 Z" unicode="ẅ" />
<glyph horiz-adv-x="2408" d="M 733 979 C 733 881 701 798 638 732 C 575 666 489 633 381 633 C 273 633 188 666 126 732 C 64 798 33 881 33 979 C 33 1079 64 1162 127 1229 C 189 1295 275 1329 383 1329 C 492 1329 578 1295 640 1229 C 702 1162 733 1079 733 979 Z M 571 979 C 571 1042 554 1094 520 1134 C 486 1174 441 1194 383 1194 C 323 1194 277 1173 243 1133 C 209 1092 193 1041 193 979 C 193 919 209 868 243 828 C 277 788 323 768 383 768 C 441 768 486 788 520 828 C 554 868 571 919 571 979 Z M 1577 299 C 1577 199 1545 115 1483 49 C 1420 -17 1335 -51 1227 -51 C 1117 -51 1032 -17 971 49 C 909 115 879 199 879 299 C 879 397 910 479 972 545 C 1034 611 1119 645 1229 645 C 1337 645 1422 611 1484 545 C 1546 479 1577 397 1577 299 Z M 1415 299 C 1415 359 1398 409 1364 449 C 1330 489 1285 510 1227 510 C 1169 510 1123 489 1089 449 C 1055 408 1038 358 1038 299 C 1038 235 1055 184 1089 144 C 1123 104 1169 84 1229 84 C 1285 84 1330 104 1364 144 C 1398 184 1415 235 1415 299 Z M 2376 299 C 2376 199 2344 115 2281 49 C 2217 -17 2132 -51 2025 -51 C 1916 -51 1830 -17 1768 49 C 1706 115 1675 199 1675 299 C 1675 397 1706 479 1769 545 C 1831 611 1917 645 2025 645 C 2133 645 2218 611 2281 545 C 2344 479 2376 397 2376 299 Z M 2214 299 C 2214 359 2197 409 2163 449 C 2129 489 2083 510 2025 510 C 1967 510 1921 489 1887 449 C 1853 408 1837 358 1837 299 C 1837 235 1853 184 1887 144 C 1921 104 1967 84 2025 84 C 2083 84 2129 104 2163 144 C 2197 184 2214 235 2214 299 Z M 1417 1309 L 377 -31 L 195 -31 L 1235 1309 L 1417 1309 Z" unicode="‰" />
<glyph horiz-adv-x="498" d="M 111 -502 L -39 -336 C 19 -308 61 -271 88 -224 C 115 -176 129 -102 129 -2 L 129 938 L 373 973 L 373 -8 C 373 -143 353 -249 313 -326 C 273 -403 205 -462 111 -502 Z" unicode="" />
<glyph horiz-adv-x="811" d="M 246 -229 C 248 -197 261 -169 285 -143 C 309 -117 343 -104 385 -104 C 431 -104 470 -120 502 -152 C 533 -184 549 -225 549 -274 C 549 -339 526 -396 480 -445 C 434 -493 373 -534 297 -567 L 233 -504 C 285 -471 320 -441 339 -415 C 357 -389 367 -364 367 -342 C 367 -319 359 -299 344 -282 C 329 -265 296 -247 246 -229 Z" unicode="" />
<glyph horiz-adv-x="1978" d="M 1817 516 L 1651 516 L 1657 1112 L 1632 1112 L 1442 539 L 1257 539 L 1094 1112 L 1071 1112 L 1063 516 L 911 516 L 924 1282 L 1217 1282 L 1348 721 L 1372 721 L 1530 1282 L 1808 1282 L 1817 516 Z M 815 1128 L 520 1128 L 520 516 L 352 516 L 352 1128 L 82 1128 L 82 1282 L 815 1282 L 815 1128 Z" unicode="™" />
<glyph horiz-adv-x="676" d="M 594 885 L 395 885 L 395 684 L 281 684 L 281 885 L 82 885 L 84 995 L 281 995 L 281 1196 L 395 1196 L 395 995 L 590 995 L 594 885 Z" unicode="⁺" />
<glyph horiz-adv-x="723" d="M 643 199 L 608 37 L 57 367 L 57 590 L 608 920 L 643 758 L 268 481 L 268 477 L 643 199 Z" unicode="‹" />
<glyph horiz-adv-x="723" d="M 666 367 L 115 37 L 78 199 L 453 477 L 453 481 L 78 758 L 115 920 L 666 590 L 666 367 Z" unicode="›" />
</font>
</defs>
</svg>
