<?xml version="1.0" standalone="no"?>
<!DOCTYPE svg PUBLIC "-//W3C//DTD SVG 1.1//EN" "http://www.w3.org/Graphics/SVG/1.1/DTD/svg11.dtd" >
<svg xmlns="http://www.w3.org/2000/svg">
<metadata></metadata>
<defs>
<font id="bentonsansregular" horiz-adv-x="1533" >
<font-face units-per-em="2048" ascent="1638" descent="-410" />
<missing-glyph horiz-adv-x="479" />
<glyph unicode=" "  horiz-adv-x="479" />
<glyph unicode="&#x09;" horiz-adv-x="479" />
<glyph unicode="&#xa0;" horiz-adv-x="479" />
<glyph unicode="!" horiz-adv-x="657" d="M221 1516h219l-51 -1090h-115zM225 211h211v-211h-211v211z" />
<glyph unicode="&#x22;" horiz-adv-x="849" d="M522 1395v121h166v-121l-35 -402h-96zM160 1395v121h168v-121l-35 -402h-98z" />
<glyph unicode="#" horiz-adv-x="1470" d="M317 432h-235v141h266l76 369h-254v141h285l90 433h162l-91 -433h363l90 433h162l-90 -433h245v-141h-274l-78 -369h264v-141h-292l-93 -432h-161l90 432h-361l-92 -432h-162zM872 573l76 369h-360l-78 -369h362z" />
<glyph unicode="$" horiz-adv-x="1339" d="M604 -10q-100 8 -179 36.5t-138.5 70.5t-102.5 91.5t-69 96.5l131 86q33 -49 69.5 -90t79.5 -72t96.5 -50.5t118.5 -25.5v586q-90 25 -171 56.5t-144.5 78.5t-100 114.5t-36.5 166.5q0 80 30.5 149.5t88 121.5t140.5 85t187 39v147h127v-151q86 -8 151.5 -33t116 -59.5 t87 -77.5t65.5 -88l-129 -97q-53 86 -117.5 139.5t-177.5 67.5v-528q94 -27 182 -58.5t156 -82t108.5 -124t40.5 -182.5q0 -174 -124.5 -286.5t-358.5 -128.5v-178h-127v180zM610 1382q-147 -8 -213.5 -74.5t-66.5 -158.5q0 -57 21.5 -98t58 -72t88 -53.5t112.5 -40.5v497z M727 133q68 4 125 19.5t99 46t66.5 77t24.5 113.5q0 66 -24.5 113t-66.5 80.5t-99 58.5t-125 45v-553z" />
<glyph unicode="%" horiz-adv-x="2037" d="M473 612q-86 0 -151.5 34t-110.5 94.5t-68.5 144.5t-23.5 186q0 106 25.5 192.5t71.5 148t111.5 94t147.5 32.5q164 0 257 -125t93 -336q0 -102 -23.5 -187t-68.5 -146.5t-110.5 -96.5t-149.5 -35zM1393 1516h159l-905 -1516h-160zM1565 -20q-84 0 -149.5 33.5t-110.5 94 t-69 144.5t-24 186q0 106 26 192.5t72 148t111.5 94t147.5 32.5q80 0 145.5 -32.5t110.5 -92t69.5 -145.5t24.5 -191q0 -102 -23.5 -187t-69.5 -146.5t-111.5 -96t-149.5 -34.5zM475 748q96 0 145.5 92t49.5 233q0 152 -50.5 241t-146.5 89q-98 0 -147.5 -92t-49.5 -234 q0 -152 50.5 -240.5t148.5 -88.5zM1567 113q49 0 86 24.5t61.5 69.5t36.5 104.5t12 130.5q0 152 -50 240t-148 88t-147.5 -92t-49.5 -234q0 -152 50.5 -241.5t148.5 -89.5z" />
<glyph unicode="&#x26;" horiz-adv-x="1484" d="M582 -29q-125 0 -220.5 30t-160 83t-97 127t-32.5 164q0 84 28.5 152.5t76.5 125t112.5 101.5t136.5 82q-51 92 -76.5 175t-25.5 171q0 70 22.5 135t68.5 116.5t115.5 81t161.5 29.5q82 0 144.5 -23.5t104.5 -64.5t62.5 -95t20.5 -116q0 -80 -29.5 -144.5t-81 -117.5 t-121 -97t-147.5 -83q27 -41 59.5 -84t71.5 -92q70 -90 130.5 -160t113.5 -123q59 82 96 187.5t53 230.5h164q-20 -145 -67 -275.5t-125 -234.5q82 -63 154.5 -90t146.5 -27v-155q-119 4 -215.5 37.5t-198.5 113.5q-88 -76 -196.5 -118t-249.5 -42zM580 909q57 31 109 64 t90 71.5t60.5 85t22.5 103.5q0 66 -41 117t-129 51q-96 0 -147 -56.5t-51 -152.5q0 -72 20.5 -138.5t65.5 -144.5zM594 121q186 0 317 106q-59 57 -126.5 133t-147.5 177q-41 51 -76 97t-63 89q-111 -66 -178.5 -147.5t-67.5 -182.5q0 -133 87 -202.5t255 -69.5z" />
<glyph unicode="'" horiz-adv-x="489" d="M160 1395v121h168v-121l-35 -402h-98z" />
<glyph unicode="(" horiz-adv-x="817" d="M635 -420q-252 211 -383 449.5t-131 533.5t132 533.5t382 449.5l80 -88q-184 -174 -294 -399t-110 -496q0 -270 110.5 -497.5t297.5 -401.5l-84 -84v0z" />
<glyph unicode=")" horiz-adv-x="817" d="M98 -336q186 174 296 401.5t110 497.5t-108.5 495.5t-295.5 399.5l82 88q250 -211 381 -449.5t131 -533.5t-130 -533.5t-382 -449.5z" />
<glyph unicode="*" horiz-adv-x="1040" d="M246 770l209 303l-369 -24v127l371 -27l-211 303l116 70l158 -334l158 334l117 -70l-209 -303l368 27v-127l-368 24l209 -303l-115 -68l-160 334l-158 -334z" />
<glyph unicode="+" horiz-adv-x="1306" d="M578 608h-443v148h443v450h151v-450h445v-148h-445v-450h-151v450z" />
<glyph unicode="," horiz-adv-x="555" d="M252 0h-80v215h211v-190l-104 -240h-82z" />
<glyph unicode="-" horiz-adv-x="731" d="M127 713h477v-140h-477v140z" />
<glyph unicode="." horiz-adv-x="555" d="M172 215h211v-215h-211v215z" />
<glyph unicode="/" horiz-adv-x="1159" d="M928 1516h184l-881 -1516h-184z" />
<glyph unicode="0" horiz-adv-x="1353" d="M678 -29q-135 0 -241.5 56.5t-180.5 160t-112 248t-38 322.5t38 322.5t112 248t180.5 159.5t241.5 56q137 0 242.5 -56t177 -159.5t109.5 -248t38 -322.5t-38 -322.5t-109.5 -248t-177 -160t-242.5 -56.5zM678 129q184 0 286.5 158.5t102.5 470.5q0 311 -104.5 468.5 t-284.5 157.5q-186 0 -288.5 -157.5t-102.5 -468.5t105.5 -470t285.5 -159z" />
<glyph unicode="1" horiz-adv-x="894" d="M111 160h284v1167q-55 -29 -135 -49.5t-145 -20.5v160q88 4 162.5 27.5t125.5 71.5h168v-1356h254v-160h-714v160z" />
<glyph unicode="2" horiz-adv-x="1212" d="M90 33q0 82 21.5 162.5t78 163.5t152.5 170t246 184q86 55 146.5 101t98 92t56 95.5t18.5 110.5q0 125 -74.5 198.5t-209.5 73.5q-233 0 -371 -249l-139 86q84 152 212 237.5t306 85.5q104 0 188 -30.5t142.5 -86t90 -133t31.5 -170.5q0 -74 -18 -138t-62.5 -125.5 t-118 -123t-182.5 -131.5q-199 -127 -298 -237.5t-111 -208.5h799v-160h-1002v33z" />
<glyph unicode="3" horiz-adv-x="1222" d="M588 -29q-172 0 -309.5 71t-225.5 206l131 98q82 -117 182.5 -167t221.5 -50q160 0 252 76t92 211q0 158 -108.5 234.5t-358.5 76.5h-62v150h72q117 0 198 17t130 51t70.5 83t21.5 113q0 109 -69.5 175t-231.5 66q-111 0 -201 -47t-155 -125l-117 109q86 98 209 160.5 t278 62.5q121 0 209 -29.5t144.5 -82t84 -121t27.5 -146.5q0 -143 -79 -235t-216 -123q170 -35 251 -133.5t81 -259.5q0 -96 -37 -177t-104.5 -139.5t-164.5 -91.5t-216 -33z" />
<glyph unicode="4" horiz-adv-x="1267" d="M793 350h-732v137l691 1029h215v-1008h256v-158h-256v-350h-174v350zM793 508v797h-5l-528 -797h533z" />
<glyph unicode="5" horiz-adv-x="1202" d="M584 -29q-170 0 -301 71t-213 187l120 111q72 -92 165.5 -151.5t224.5 -59.5q92 0 160.5 30.5t112.5 81t65.5 117t21.5 140.5q0 174 -91 263t-239 89q-111 0 -191.5 -45t-142.5 -131l-129 45l60 797h823l-14 -162h-664l-37 -484q53 59 131 95t199 36q106 0 193.5 -34.5 t150 -99t96 -157t33.5 -204.5q0 -117 -37 -214t-106.5 -169t-167.5 -112t-223 -40z" />
<glyph unicode="6" horiz-adv-x="1267" d="M659 -29q-117 0 -218 46t-176 140.5t-117 237t-42 336.5q0 182 46.5 332.5t129.5 257t194.5 165t244.5 58.5q127 0 218 -34.5t153 -84.5l-91 -133q-57 43 -122.5 68.5t-163.5 25.5t-177 -47t-135.5 -130t-87 -197.5t-32.5 -249.5q74 78 178 135t244 57q117 0 205.5 -33.5 t149 -96t91.5 -150.5t31 -195q0 -111 -39 -204t-107.5 -160.5t-165 -105.5t-211.5 -38zM670 125q154 0 246 92t92 258q0 70 -18.5 130.5t-58.5 103.5t-102.5 67.5t-150.5 24.5q-121 0 -224.5 -57.5t-166.5 -143.5q10 -125 44 -214t84 -147.5t115.5 -86t139.5 -27.5z" />
<glyph unicode="7" horiz-adv-x="1120" d="M856 1354h-768v162h956v-152l-630 -1364h-185z" />
<glyph unicode="8" horiz-adv-x="1255" d="M629 -33q-131 0 -234.5 31t-174 85t-108.5 128t-38 160q0 78 27.5 141t77.5 114.5t122 94.5t162 80q-74 35 -133.5 71.5t-101.5 80.5t-63.5 98.5t-21.5 124.5t33 137t94.5 119.5t151.5 84t207 31.5q119 0 209 -31.5t150.5 -84t91 -120t30.5 -136.5q0 -133 -84 -216 t-238 -153q92 -41 165 -82t123 -92t77 -114.5t27 -147.5t-37 -158t-107.5 -128t-173 -86t-233.5 -32zM637 872q80 35 136 67t92 65.5t53.5 72.5t17.5 88q0 43 -18.5 85t-55.5 74t-95 52.5t-138 20.5q-78 0 -136.5 -19.5t-96.5 -50.5t-57.5 -72t-19.5 -84q0 -53 19.5 -93 t58.5 -73.5t98.5 -65.5t141.5 -67zM629 117q82 0 150.5 18.5t117.5 53t76.5 82.5t27.5 110q0 59 -24.5 107.5t-73.5 89t-120.5 78.5t-166.5 77q-92 -41 -160.5 -80t-112.5 -81t-66.5 -88t-22.5 -103q0 -59 27.5 -107.5t77 -83t118 -54t152.5 -19.5z" />
<glyph unicode="9" horiz-adv-x="1267" d="M547 -29q-131 0 -227.5 39t-159.5 92l88 134q61 -47 131 -78t174 -31q98 0 177 47t134.5 131t86 198.5t32.5 250.5q-74 -78 -178.5 -135.5t-243.5 -57.5q-115 0 -204 34t-149.5 96.5t-91 150.5t-30.5 194q0 111 39 204t107.5 160.5t165 105.5t210.5 38q117 0 218.5 -46 t175 -140t115.5 -237.5t42 -336.5q0 -182 -46 -332.5t-128 -257t-194.5 -165t-243.5 -58.5zM590 715q119 0 222 57t167 143q-10 125 -43 214.5t-83 146.5t-115.5 85t-139.5 28q-154 0 -246 -91.5t-92 -257.5q0 -72 18.5 -131t57.5 -102t101.5 -67.5t152.5 -24.5z" />
<glyph unicode=":" horiz-adv-x="563" d="M176 1081h211v-217h-211v217zM176 215h211v-215h-211v215z" />
<glyph unicode=";" horiz-adv-x="563" d="M176 1081h211v-217h-211v217zM256 0h-80v215h211v-188l-106 -242h-82z" />
<glyph unicode="&#x3c;" horiz-adv-x="1306" d="M109 604v119l1083 465v-158l-885 -366l885 -367v-158z" />
<glyph unicode="=" horiz-adv-x="1306" d="M135 971h1034v-142h-1034v142zM135 504h1034v-142h-1034v142z" />
<glyph unicode="&#x3e;" horiz-adv-x="1306" d="M119 297l885 367l-885 366v158l1083 -465v-119l-1083 -465v158z" />
<glyph unicode="?" horiz-adv-x="1124" d="M436 424q-6 63 -6 137q0 111 45 182.5t146 130.5q57 35 99 65t69.5 61.5t41 70.5t13.5 92q0 104 -75 162.5t-208 58.5q-127 0 -214 -56t-150 -140l-121 100q43 55 93 101.5t110.5 81t133 54t160.5 19.5q104 0 187.5 -27.5t142 -76.5t89 -117t30.5 -149 q0 -74 -20.5 -129.5t-55.5 -99.5t-82 -79t-100 -65q-66 -37 -102.5 -70t-55 -74t-22.5 -96t-4 -137h-144zM403 211h209v-211h-209v211z" />
<glyph unicode="@" horiz-adv-x="1777" d="M883 -29q-174 0 -318.5 57.5t-249 161t-162 248t-57.5 318.5t59.5 319.5t166 250t252 161.5t317.5 57t316.5 -56t250 -157.5t164.5 -243t59 -309.5q0 -106 -26.5 -191t-73.5 -145.5t-112.5 -92.5t-143.5 -32q-104 0 -164.5 43t-83.5 113q-72 -66 -152.5 -105.5 t-183.5 -39.5q-133 0 -217 79.5t-84 245.5q0 119 32 220.5t87 175t133 115.5t170 42t152.5 -30.5t107.5 -77.5l15 92h143l-90 -606q-12 -74 26.5 -122t124.5 -48q100 0 171 89t71 271q0 150 -52 275t-144.5 214t-219.5 138t-276 49q-152 0 -279 -51t-219 -142.5t-143 -219.5 t-51 -281q0 -154 51 -281t141 -219t216 -143.5t278 -51.5q123 0 221 27t190 80l43 -74q-94 -57 -210.5 -90t-245.5 -33zM776 444q72 0 136.5 29t131.5 94l62 408q-49 57 -105.5 82.5t-130.5 25.5q-66 0 -118 -33.5t-88.5 -91t-57 -133t-20.5 -157.5q0 -117 50 -170.5 t140 -53.5z" />
<glyph unicode="A" horiz-adv-x="1392" d="M602 1522h189l536 -1522h-186l-150 434h-602l-149 -434h-174zM936 592l-242 711h-4l-246 -711h492z" />
<glyph unicode="B" horiz-adv-x="1415" d="M186 1516h543q248 0 383 -94.5t135 -284.5q0 -78 -21.5 -137.5t-60.5 -102.5t-90 -70.5t-108 -40.5v-4q70 -12 130 -40.5t104 -73.5t69.5 -108.5t25.5 -145.5q0 -193 -135 -303.5t-389 -110.5h-586v1516zM713 854q172 0 265 61.5t93 192.5t-84 189.5t-270 58.5h-352v-502 h348zM760 158q186 0 272 68.5t86 199.5q0 143 -105.5 207.5t-289.5 64.5h-358v-540h395z" />
<glyph unicode="C" horiz-adv-x="1443" d="M756 -29q-145 0 -263 54.5t-203 157t-131 249t-46 332.5q0 178 47 321.5t132 246t203.5 157.5t260.5 55q121 0 214 -33.5t161.5 -94t113.5 -146.5t72 -191l-172 -47q-49 174 -137 260t-254 86q-106 0 -191.5 -43t-145 -122.5t-91 -192.5t-31.5 -254q0 -303 125 -467 t338 -164q317 0 411 367l170 -39q-29 -113 -78 -203t-121.5 -154.5t-168.5 -99.5t-215 -35z" />
<glyph unicode="D" horiz-adv-x="1464" d="M186 1516h400q365 0 564.5 -186.5t199.5 -567.5q0 -193 -51.5 -336t-149.5 -237.5t-240.5 -141.5t-322.5 -47h-400v1516zM608 162q274 0 417.5 141t143.5 459q0 305 -144 446.5t-421 141.5h-237v-1188h241z" />
<glyph unicode="E" horiz-adv-x="1247" d="M186 1516h930v-166h-749v-473h557v-162h-557v-551h792v-164h-973v1516z" />
<glyph unicode="F" horiz-adv-x="1165" d="M186 1516h910v-166h-729v-488h536v-162h-536v-700h-181v1516z" />
<glyph unicode="G" horiz-adv-x="1495" d="M745 -29q-154 0 -271.5 59.5t-198 165t-121.5 251t-41 317.5q0 180 47 324.5t133 246t204.5 155.5t260.5 54q217 0 359.5 -114.5t201.5 -354.5l-168 -43q-53 182 -145.5 264t-249.5 82q-90 0 -173 -34.5t-146.5 -109.5t-102.5 -189.5t-39 -274.5t35 -278.5t97 -198.5 t148.5 -120t186.5 -40q178 0 286.5 114.5t112.5 325.5h-348v152h522v-725h-157v227h-4q-23 -47 -60 -93t-89 -82t-122 -58.5t-158 -22.5z" />
<glyph unicode="H" horiz-adv-x="1513" d="M186 1516h181v-635h780v635h180v-1516h-180v715h-780v-715h-181v1516z" />
<glyph unicode="I" horiz-adv-x="593" d="M207 1516h180v-1516h-180v1516z" />
<glyph unicode="J" horiz-adv-x="1034" d="M434 -29q-139 0 -229 54.5t-156 144.5l121 102q47 -63 107.5 -103t150.5 -40q57 0 104.5 15.5t81 49t52 90t18.5 138.5v1094h180v-1106q0 -215 -113.5 -327t-316.5 -112z" />
<glyph unicode="K" horiz-adv-x="1388" d="M186 1516h181v-783l686 783h217l-520 -578l591 -938h-206l-504 801l-264 -289v-512h-181v1516z" />
<glyph unicode="L" horiz-adv-x="1165" d="M186 1516h181v-1352h729v-164h-910v1516z" />
<glyph unicode="M" horiz-adv-x="1798" d="M186 1516h236l477 -1289h4l469 1289h240v-1516h-178v1227h-4q-16 -59 -41 -131t-52 -148l-362 -948h-162l-362 948q-14 37 -25.5 70t-23 65.5t-22.5 68.5t-24 81h-4v-1233h-166v1516z" />
<glyph unicode="N" d="M186 1516h191l797 -1199h4v1199h170v-1516h-162l-826 1231h-4v-1231h-170v1516z" />
<glyph unicode="O" d="M768 -29q-141 0 -261 54.5t-207 156t-137 247.5t-50 329q0 182 50 328.5t137 248t207 155.5t261 54t260 -54t206 -155.5t136 -248t49 -328.5t-49 -328.5t-136 -248t-206 -156t-260 -54.5zM768 133q102 0 189 42t149.5 122t97.5 196.5t35 264.5q0 147 -35 263t-97.5 195.5 t-149.5 121.5t-189 42q-104 0 -191.5 -42t-149.5 -121.5t-97 -195.5t-35 -263t35 -264t97 -197t149.5 -122t191.5 -42z" />
<glyph unicode="P" horiz-adv-x="1329" d="M186 1516h514q123 0 223.5 -25t173 -77t111.5 -134t39 -195q0 -121 -43 -205.5t-117.5 -138t-177 -77t-221.5 -23.5h-321v-641h-181v1516zM698 801q182 0 276.5 62.5t94.5 215.5q0 147 -93 210t-280 63h-329v-551h331z" />
<glyph unicode="Q" d="M1126 -385q-117 0 -202.5 27.5t-142 76t-85 116t-30.5 147.5q-121 16 -222.5 77.5t-175 162t-114.5 236.5t-41 300q0 182 51 328.5t139 248t208 155.5t257 54t256 -54t207 -155.5t138 -248t50 -328.5q0 -168 -43 -305.5t-118.5 -237.5t-181 -160.5t-228.5 -74.5 q8 -66 33.5 -106t68.5 -63.5t100.5 -31.5t129.5 -8h104v-156h-158zM768 131q102 0 188 42t148.5 123t97.5 197.5t35 264.5q0 147 -35 263t-97.5 195.5t-148.5 121.5t-188 42q-104 0 -191.5 -42t-151 -121.5t-98 -195.5t-34.5 -263t34.5 -264t98 -198t151 -123t191.5 -42z " />
<glyph unicode="R" horiz-adv-x="1386" d="M186 1516h521q260 0 399 -106.5t139 -317.5q0 -184 -95 -282.5t-257 -133.5l373 -676h-197l-362 653h-342v-653h-179v1516zM696 813q178 0 274.5 58.5t96.5 213.5q0 150 -95 208.5t-278 58.5h-329v-539h331z" />
<glyph unicode="S" horiz-adv-x="1345" d="M684 -29q-217 0 -365.5 107.5t-207.5 288.5l151 67q57 -154 167 -228.5t263 -74.5q160 0 257.5 64.5t97.5 185.5q0 55 -17.5 99t-60.5 81t-117 70t-186 67q-119 37 -212.5 74t-158 86t-99 117.5t-34.5 167.5q0 86 35.5 159.5t100 128t154 84t197.5 29.5q109 0 195 -25.5 t151.5 -71.5t112.5 -108.5t76 -134.5l-144 -80q-61 137 -159.5 196.5t-233.5 59.5q-145 0 -226 -62.5t-81 -160.5q0 -61 20.5 -103t67.5 -76t124 -64.5t187 -65.5q115 -35 205 -75t152.5 -92t95.5 -122t33 -166q0 -94 -39 -172t-110.5 -133t-171 -86t-220.5 -31z" />
<glyph unicode="T" horiz-adv-x="1275" d="M547 1350h-481v166h1144v-166h-483v-1350h-180v1350z" />
<glyph unicode="U" horiz-adv-x="1468" d="M735 -27q-145 0 -251.5 42t-176 116t-102.5 175.5t-33 217.5v992h180v-967q0 -92 22.5 -168t70 -130t120 -85t172.5 -31q199 0 290 112.5t91 297.5v971h178v-988q0 -119 -34.5 -220t-105.5 -176t-175.5 -117t-245.5 -42z" />
<glyph unicode="V" horiz-adv-x="1363" d="M66 1516h184l434 -1280h4l436 1280h174l-532 -1522h-168z" />
<glyph unicode="W" horiz-adv-x="1906" d="M74 1516h182l223 -879q27 -100 49.5 -194.5t38.5 -176.5h4q16 80 38 175.5t48 193.5l211 881h183l217 -887q25 -102 46 -188.5t38 -174.5h4q18 92 38.5 174t45.5 183l221 893h172l-401 -1516h-166l-305 1268h-5l-313 -1268h-166z" />
<glyph unicode="X" horiz-adv-x="1372" d="M586 809l-457 707h207l358 -564l353 564h190l-453 -705l523 -811h-197l-428 668l-430 -668h-186z" />
<glyph unicode="Y" horiz-adv-x="1292" d="M555 664l-510 852h193l411 -699l410 699h188l-512 -852v-664h-180v664z" />
<glyph unicode="Z" horiz-adv-x="1290" d="M82 127l887 1237h-830v152h1051v-132l-881 -1234h881v-150h-1108v127z" />
<glyph unicode="[" horiz-adv-x="817" d="M172 1516h555v-132h-377v-1663h377v-131h-555v1926z" />
<glyph unicode="\" horiz-adv-x="1138" d="M37 1516h184l881 -1516h-184z" />
<glyph unicode="]" horiz-adv-x="817" d="M88 -279h377v1661h-377v134h555v-1926h-555v131z" />
<glyph unicode="^" horiz-adv-x="1060" d="M465 1522h129l264 -330h-106l-224 192l-221 -192h-106z" />
<glyph unicode="_" horiz-adv-x="1024" d="M0 -133h1024v-137h-1024v137z" />
<glyph unicode="`" horiz-adv-x="1024" d="M279 1522h215l192 -324h-117z" />
<glyph unicode="a" horiz-adv-x="1132" d="M395 -16q-141 0 -223 70.5t-82 201.5q0 82 38 151.5t123 127t223 100.5t339 72v49q0 201 -205 200q-123 0 -217 -47t-174 -116l-92 110q94 86 217 143.5t285 57.5q96 0 164.5 -24.5t111.5 -70.5t63.5 -114t20.5 -152v-477q0 -98 7 -161.5t24 -104.5h-180 q-10 35 -17.5 68.5t-7.5 81.5q-178 -166 -418 -166zM446 123q109 0 200 42t167 116v303q-154 -25 -259 -55.5t-170 -68.5t-92.5 -82t-27.5 -95q0 -78 48 -119t134 -41z" />
<glyph unicode="b" horiz-adv-x="1226" d="M670 -16q-100 0 -184.5 42t-153.5 113v-139h-176v1516h176v-586q61 70 148 122t208 52q92 0 173 -35t140.5 -104.5t93 -175t33.5 -246.5t-34.5 -247t-96 -174.5t-145.5 -103t-182 -34.5zM645 127q141 0 224 99.5t83 314.5q0 207 -87 309t-218 102q-94 0 -171 -46 t-144 -120v-495q145 -164 313 -164z" />
<glyph unicode="c" horiz-adv-x="1097" d="M575 -23q-94 0 -181 36t-153.5 106.5t-106.5 176t-40 245.5q0 147 43 253.5t114 175t160 101.5t179 33q92 0 159.5 -24.5t119 -66.5t86 -97.5t59.5 -114.5l-150 -62q-41 104 -106.5 159.5t-171.5 55.5q-59 0 -114.5 -21.5t-100.5 -70.5t-72 -128t-27 -193 q0 -201 86 -308.5t224 -107.5q104 0 170.5 49t119.5 168l146 -57q-31 -68 -72 -124.5t-94 -97t-121 -63.5t-156 -23z" />
<glyph unicode="d" horiz-adv-x="1226" d="M537 -16q-92 0 -173 33.5t-140.5 102t-93.5 173t-34 246.5q0 141 35 246.5t96.5 176t146.5 106.5t183 36t186 -44t150 -116v572h176v-1250q0 -98 7 -161.5t26 -104.5h-184q-10 27 -17.5 70t-7.5 84q-66 -72 -149.5 -121t-206.5 -49zM580 129q94 0 169.5 46t143.5 120v496 q-72 80 -148.5 121.5t-162.5 41.5q-141 0 -225.5 -101t-84.5 -316q0 -104 23.5 -180t64.5 -127.5t97.5 -76t122.5 -24.5z" />
<glyph unicode="e" horiz-adv-x="1130" d="M584 -23q-96 0 -184.5 35t-156 105.5t-108.5 176t-41 247.5q0 147 44 253.5t115 175t158 101.5t173 33q96 0 178 -34t142.5 -104.5t95 -178t34.5 -255.5v-36h-764q2 -92 29 -162t70 -117t101 -71.5t126 -24.5q117 0 190.5 45t135.5 131l102 -90q-76 -109 -181 -169.5 t-259 -60.5zM866 633q-10 145 -79.5 234t-204.5 89q-55 0 -106.5 -19t-92.5 -59t-70.5 -100.5t-38.5 -144.5h592z" />
<glyph unicode="f" horiz-adv-x="704" d="M240 936h-189v145h189v146q0 137 76.5 215t248.5 78q23 0 55.5 -3.5t45.5 -3.5v-143q-12 4 -35 5t-41 1q-74 0 -124 -31.5t-50 -119.5v-144h237v-145h-237v-936h-176v936z" />
<glyph unicode="g" horiz-adv-x="1177" d="M557 -416q-274 0 -398 73t-124 196q0 84 52 144t144 95q-92 43 -92 137q0 53 38 96.5t97 77.5q-78 51 -121.5 130t-43.5 182q0 86 32.5 156.5t91 123t139.5 81t177 28.5q100 0 181 -31t138 -82q49 37 120 64.5t136 36.5v-156q-45 0 -96 -8t-98 -27q55 -78 55 -186 q0 -88 -32.5 -159t-91 -121t-138.5 -77.5t-174 -27.5q-47 0 -89 7t-83 19q-35 -16 -55.5 -35.5t-20.5 -48.5q0 -35 32 -51t118 -24l221 -19q207 -14 310 -81.5t103 -198.5q0 -78 -38.5 -136.5t-108.5 -97.5t-167 -59.5t-214 -20.5zM551 459q125 0 197.5 67.5t72.5 184.5 q0 119 -70.5 187.5t-201.5 68.5q-127 0 -200 -70t-73 -186q0 -117 75 -184.5t200 -67.5zM580 -283q162 0 253 45t91 119q0 72 -64.5 108t-234.5 48l-205 14l-62 6q-78 -29 -118.5 -76t-40.5 -102q0 -82 89 -122t292 -40z" />
<glyph unicode="h" horiz-adv-x="1204" d="M156 1516h178v-596q35 35 78 67.5t94 59t109.5 42t123.5 15.5q156 0 238 -85t82 -239v-780h-176v741q0 109 -47.5 160t-151.5 51q-98 0 -181 -47t-169 -127v-778h-178v1516z" />
<glyph unicode="i" horiz-adv-x="512" d="M164 1485h184v-172h-184v172zM168 1081h176v-1081h-176v1081z" />
<glyph unicode="j" horiz-adv-x="512" d="M164 1485h184v-172h-184v172zM94 -412q-23 0 -59.5 3t-46.5 6v133q14 -4 32.5 -6.5t36.5 -2.5q53 0 82 30t29 95v1235h176v-1247q0 -55 -12.5 -100t-41 -78t-76.5 -50.5t-120 -17.5z" />
<glyph unicode="k" horiz-adv-x="1105" d="M156 1516h176v-975l483 540h201l-354 -387l393 -694h-189l-319 563l-215 -231v-332h-176v1516z" />
<glyph unicode="l" horiz-adv-x="512" d="M168 1516h176v-1516h-176v1516z" />
<glyph unicode="m" horiz-adv-x="1878" d="M156 1081h176v-163q78 78 172 132t217 54q137 0 202.5 -52.5t94.5 -138.5q78 78 177 134.5t222 56.5q166 0 240 -88t74 -236v-780h-177v741q0 109 -40.5 160t-147.5 51q-92 0 -170 -47t-164 -127v-778h-176v741q0 109 -41 160t-147 51q-90 0 -170 -47t-166 -127v-778 h-176v1081z" />
<glyph unicode="n" horiz-adv-x="1204" d="M156 1081h178v-161q35 35 78 67.5t94 59t109.5 42t123.5 15.5q156 0 238 -85t82 -239v-780h-176v741q0 109 -47.5 160t-151.5 51q-98 0 -181 -47t-169 -127v-778h-178v1081z" />
<glyph unicode="o" horiz-adv-x="1193" d="M598 -23q-98 0 -189.5 36t-161 106.5t-111.5 176t-42 245.5q0 139 41 244.5t110.5 176t161 106.5t191.5 36q98 0 189.5 -36t161 -106.5t110.5 -176t41 -244.5t-41 -245t-110.5 -176.5t-161 -106.5t-189.5 -36zM598 127q76 0 136.5 29.5t102.5 84t63.5 131.5t21.5 169 q0 84 -20.5 158.5t-60.5 131t-101.5 89t-141.5 32.5q-78 0 -138.5 -29.5t-102.5 -84t-63.5 -130t-21.5 -167.5q0 -86 20.5 -162t60.5 -131t101.5 -88t143.5 -33z" />
<glyph unicode="p" horiz-adv-x="1226" d="M156 1081h176v-149q61 68 147 120t209 52q92 0 173 -35t140.5 -104.5t93 -175t33.5 -246.5t-34.5 -247t-96 -174.5t-145.5 -103t-182 -34.5q-100 0 -184.5 42t-153.5 113v-549h-176v1491zM645 127q141 0 224 99.5t83 314.5q0 207 -87 309t-218 102q-94 0 -171 -46 t-144 -120v-495q145 -164 313 -164z" />
<glyph unicode="q" horiz-adv-x="1226" d="M893 154q-66 -72 -150 -121t-206 -49q-92 0 -173 33.5t-140.5 102t-93.5 173t-34 246.5q0 141 35 246.5t96.5 176t146.5 106.5t183 36t183 -43t153 -115v135h176v-1491h-176v564zM580 129q94 0 169.5 46t143.5 120v496q-72 80 -148.5 121.5t-162.5 41.5 q-141 0 -225.5 -101t-84.5 -316q0 -104 23.5 -180t64.5 -127.5t97.5 -76t122.5 -24.5z" />
<glyph unicode="r" horiz-adv-x="819" d="M156 1081h176v-200h4q59 94 159.5 158.5t258.5 64.5h22l-12 -164q-4 2 -25.5 2h-25.5q-129 0 -225.5 -63.5t-155.5 -180.5v-698h-176v1081z" />
<glyph unicode="s" horiz-adv-x="1048" d="M520 -20q-147 0 -262 52t-180 132l106 106q61 -66 144.5 -107.5t193.5 -41.5q127 0 193.5 43t66.5 127q0 82 -69.5 121t-208.5 71q-86 20 -158 45t-122 61t-78.5 89t-28.5 131q0 61 25.5 114.5t74.5 93.5t120 63.5t159 23.5q143 0 240.5 -42t172.5 -114l-92 -117 q-61 57 -141 93.5t-172 36.5q-119 0 -169 -44.5t-50 -101.5q0 -76 63.5 -111.5t192.5 -64.5q92 -23 167.5 -47.5t130 -62t84 -93t29.5 -139.5q0 -78 -32.5 -137.5t-91 -99.5t-137.5 -60t-171 -20z" />
<glyph unicode="t" horiz-adv-x="772" d="M535 -14q-170 0 -236 67.5t-66 208.5v674h-188v145h188v385h177v-385h280v-145h-280v-635q0 -86 34.5 -129t133.5 -43q29 0 58.5 4t51.5 10v-145q-23 -4 -67.5 -8t-85.5 -4z" />
<glyph unicode="u" horiz-adv-x="1204" d="M465 -20q-156 0 -238 83.5t-82 237.5v780h177v-743q0 -109 47 -160t151 -51q98 0 181 47t169 127v780h179v-1081h-179v162q-35 -35 -77.5 -68t-94 -58.5t-109.5 -40.5t-124 -15z" />
<glyph unicode="v" horiz-adv-x="1054" d="M41 1081h188l303 -876h5l299 876h176l-396 -1085h-178z" />
<glyph unicode="w" horiz-adv-x="1540" d="M45 1081h182l142 -508q14 -49 25.5 -92t22.5 -85t22.5 -87t23.5 -96h4q14 57 25.5 102t21.5 86t21.5 83t25.5 91l137 506h154l141 -516q14 -49 25.5 -90t22 -82t20.5 -84t22 -96h4q14 53 25.5 96t22 83t21.5 81t26 88l147 520h166l-330 -1081h-164l-229 846h-4l-231 -846 h-162z" />
<glyph unicode="x" horiz-adv-x="1060" d="M440 559l-358 522h192l265 -395l262 395h186l-360 -520l383 -561h-191l-291 430l-288 -430h-185z" />
<glyph unicode="y" horiz-adv-x="1091" d="M217 -416q-72 0 -120 8.5t-83 18.5l41 141q23 -6 63 -12t97 -6q84 0 129 36.5t78 116.5l41 107l-418 1087h186l318 -874h4l317 874h179l-463 -1204q-29 -72 -59.5 -126t-73.5 -91t-99.5 -56.5t-136.5 -19.5z" />
<glyph unicode="z" horiz-adv-x="1044" d="M80 106l633 832h-584v143h805v-110l-635 -830h666v-141h-885v106z" />
<glyph unicode="{" horiz-adv-x="800" d="M565 -410q-141 0 -205.5 74t-64.5 209v369q0 76 -14.5 123t-42 74.5t-70.5 37.5t-100 10v131q57 0 100 10.5t70.5 38t42 74.5t14.5 123v369q0 135 64.5 209t205.5 74h158v-132h-90q-84 0 -122 -39.5t-38 -117.5v-377q0 -76 -11 -126t-33.5 -83t-55.5 -52.5t-74 -33.5v-4 q41 -14 74 -33.5t55.5 -52.5t33.5 -83t11 -126v-377q0 -78 38 -118t122 -40h90v-131h-158v0z" />
<glyph unicode="|" horiz-adv-x="727" d="M276 1516h173v-1926h-173v1926z" />
<glyph unicode="}" horiz-adv-x="800" d="M78 -279h90q84 0 122 40t38 118v387q0 76 11 124t33.5 80t55.5 49.5t74 31.5v4q-41 14 -74 31.5t-55.5 49.5t-33.5 80t-11 124v387q0 78 -35 121t-119 43h-90l-6 125h168q141 0 200.5 -69t59.5 -204v-379q0 -76 14.5 -123t42 -74.5t70.5 -38t100 -10.5v-131 q-57 0 -100 -10t-70.5 -37.5t-42 -75t-14.5 -122.5v-379q0 -135 -59.5 -204t-200.5 -69h-168v131z" />
<glyph unicode="~" horiz-adv-x="1040" d="M672 834q-45 0 -86 17t-78 38.5t-71 40t-64 18.5q-45 0 -64.5 -25.5t-19.5 -84.5h-109q0 129 48 186t141 57q45 0 86 -18.5t77.5 -40t70.5 -38.5t67 -17q43 0 63.5 25.5t20.5 84.5h104q0 -127 -48 -185t-138 -58z" />
<glyph unicode="&#xa1;" horiz-adv-x="657" d="M221 1516h211v-211h-211v211zM268 1090h115l53 -1090h-219z" />
<glyph unicode="&#xa2;" horiz-adv-x="1101" d="M350 35q-111 63 -183.5 190t-72.5 316q0 147 43 252.5t114 175t160 102.5t179 33h29.5t27.5 -2l58 205h110l-63 -228q104 -37 165.5 -112.5t98.5 -165.5l-144 -62q-61 152 -167 197l-222 -801q43 -14 99 -14q104 0 173.5 51t125.5 170l139 -57q-31 -68 -72 -124.5 t-95 -97t-122.5 -63.5t-155.5 -23q-63 0 -124 17l-72 -258h-113zM586 956q-59 0 -116.5 -21.5t-104 -70.5t-75 -128t-28.5 -195q0 -129 37 -218.5t98 -140.5l213 774h-24z" />
<glyph unicode="&#xa3;" horiz-adv-x="1277" d="M180 725v131h193q-39 70 -66.5 140.5t-27.5 156.5t27.5 157.5t79.5 124t127 81t169 28.5q111 0 186.5 -33.5t124.5 -88t75 -123t34 -140.5l-164 -24q-10 111 -67.5 184.5t-188.5 73.5q-111 0 -170 -64.5t-59 -173.5q0 -80 32.5 -151.5t73.5 -147.5h354v-131h-290 q27 -59 43 -124.5t16 -143.5q0 -123 -35 -221q55 -45 112.5 -81t123.5 -36q98 0 138 61.5t48 200.5h160q-2 -86 -20.5 -161t-56.5 -130t-99.5 -87t-151.5 -32q-98 0 -176 45t-143 103q-106 -147 -293 -148q-43 0 -84 13.5t-75 39t-54.5 65.5t-20.5 93q0 106 67.5 171 t178.5 65q61 0 114.5 -23.5t102.5 -58.5q6 45 6 106q0 82 -22.5 151t-55.5 132h-266zM479 207q-45 39 -88 65.5t-90 26.5q-53 0 -84 -30.5t-31 -82.5q0 -47 32 -74.5t79 -27.5q127 0 182 123z" />
<glyph unicode="&#xa4;" horiz-adv-x="1476" d="M43 842v133h254q23 147 76 253.5t127.5 177.5t167 104.5t190.5 33.5q106 0 187 -30.5t140.5 -88t99.5 -136.5t67 -173l-162 -51q-23 76 -48.5 136.5t-63.5 101t-91 62t-129 21.5q-143 0 -247.5 -99t-139.5 -312h438v-133h-452q-2 -16 -2 -35v-37q0 -29 1 -54.5t1 -49.5 h452v-136h-436q68 -403 389 -403q145 0 224 85t124 257l162 -47q-29 -102 -73 -185t-107.5 -141.5t-145 -91.5t-186.5 -33q-104 0 -196.5 34t-166 102.5t-124.5 174t-74 248.5h-256v136h240q-2 25 -2 49v49v39.5t2 38.5h-240z" />
<glyph unicode="&#xa5;" horiz-adv-x="1288" d="M553 240h-387v131h387v180h-387v131h381l-498 834h193l405 -689l404 689h188l-502 -834h387v-131h-391v-180h391v-131h-391v-240h-180v240z" />
<glyph unicode="&#xa7;" horiz-adv-x="1105" d="M553 -410q-102 0 -174 24t-119 64.5t-75.5 95t-43.5 113.5l144 50q14 -49 33.5 -87t49 -65t73.5 -41t106 -14q115 0 161 52t46 120q0 35 -12.5 66.5t-42 62t-78 65.5t-119.5 76q-100 57 -174 106.5t-122 96.5t-71.5 100t-23.5 121q0 61 22.5 112.5t59 92.5t80.5 72.5 t87 54.5q-53 39 -88.5 73.5t-57 70.5t-31 73t-9.5 80q0 61 25.5 119.5t74 102.5t119 70.5t160.5 26.5q104 0 177 -23.5t122 -64.5t76.5 -95t42.5 -114l-148 -53q-29 98 -89 155.5t-175 57.5q-117 0 -167 -53.5t-50 -120.5q0 -35 13.5 -66.5t44 -62.5t80.5 -65.5t122 -75.5 q100 -59 174 -107.5t122 -95.5t71.5 -100.5t23.5 -120.5q0 -61 -22.5 -112.5t-57 -93.5t-80 -74t-88.5 -54q53 -39 88 -74t54.5 -69.5t27 -71.5t7.5 -80q0 -61 -24 -119.5t-71 -102.5t-115.5 -71t-158.5 -27zM635 279q98 45 150.5 104t52.5 131q0 41 -13.5 75t-50.5 68.5 t-100.5 76.5t-163.5 102q-10 4 -20.5 10t-20.5 10q-92 -43 -146.5 -103.5t-54.5 -131.5q0 -41 13.5 -75t50.5 -69t100.5 -77t163.5 -101q10 -4 20.5 -10t18.5 -10z" />
<glyph unicode="&#xa8;" horiz-adv-x="1044" d="M616 1386h183v-192h-183v192zM244 1386h180v-192h-180v192z" />
<glyph unicode="&#xa9;" horiz-adv-x="1769" d="M885 -29q-166 0 -308.5 61.5t-248 167t-166 249t-60.5 307.5t60.5 308t167 250.5t249 168t308.5 61.5q164 0 306 -61.5t247.5 -167t166 -248.5t60.5 -307t-60.5 -308.5t-167 -251t-248.5 -168t-306 -61.5zM887 66q143 0 267 54t215 147t143.5 219t52.5 270 q0 143 -52.5 270t-144.5 221t-216 148.5t-267 54.5t-267 -54.5t-216.5 -147.5t-144.5 -219t-52 -269q0 -145 52 -271.5t144.5 -220.5t217.5 -148t268 -54zM881 317q-82 0 -148.5 32t-114 91.5t-73 143.5t-25.5 186q0 98 25.5 180t73 140.5t114 91t150.5 32.5 q135 0 211.5 -71.5t109.5 -200.5l-110 -29q-29 96 -76 146.5t-135 50.5q-111 0 -175.5 -93t-64.5 -247q0 -160 64.5 -252t177.5 -92q164 0 217 209q31 -8 53 -14q20 -6 38.5 -10.5t23.5 -4.5q-35 -135 -118 -212t-218 -77z" />
<glyph unicode="&#xaa;" horiz-adv-x="862" d="M322 752q-102 0 -162 51t-60 143q0 57 27 107.5t86 90.5t155.5 69.5t237.5 48.5v32q0 137 -137 138q-86 0 -148.5 -30t-121.5 -83l-76 76q70 66 153.5 105.5t206.5 39.5q135 0 196.5 -66.5t61.5 -187.5v-330q0 -66 5.5 -109.5t21.5 -78.5h-143q-16 49 -19 102 q-61 -55 -131.5 -86.5t-152.5 -31.5zM356 862q76 0 137.5 31t112.5 78v205q-111 -16 -183.5 -39t-113.5 -49.5t-57 -58.5t-16 -64q0 -51 32.5 -77t87.5 -26z" />
<glyph unicode="&#xab;" horiz-adv-x="1110" d="M512 543l313 538h176l-305 -538l305 -543h-176zM84 543l309 538h178l-301 -538l301 -543h-178z" />
<glyph unicode="&#xad;" horiz-adv-x="731" d="M127 713h477v-140h-477v140z" />
<glyph unicode="&#xae;" horiz-adv-x="1769" d="M885 -29q-166 0 -308.5 61.5t-248 167t-166 249t-60.5 307.5t60.5 308t167 250.5t249 168t308.5 61.5q164 0 306 -61.5t247.5 -167t166 -248.5t60.5 -307t-60.5 -308.5t-167 -251t-248.5 -168t-306 -61.5zM887 66q143 0 267 54t215 147t143.5 219t52.5 270 q0 143 -52.5 270t-144.5 221t-216 148.5t-267 54.5t-267 -54.5t-216.5 -147.5t-144.5 -219t-52 -269q0 -145 52 -271.5t144.5 -220.5t217.5 -148t268 -54zM596 1204h303q147 0 228 -62.5t81 -183.5q0 -104 -52 -159.5t-138 -77.5l205 -379h-131l-195 365h-180v-365h-121v862 zM893 803q92 0 143 32.5t51 116.5q0 78 -51 111t-145 33h-174v-293h176z" />
<glyph unicode="&#xaf;" horiz-adv-x="1024" d="M213 1407h598v-141h-598v141z" />
<glyph unicode="&#xb0;" horiz-adv-x="829" d="M416 954q-66 0 -120 22.5t-94 61.5t-62.5 93.5t-22.5 117.5t22.5 117.5t62.5 93.5t94 60.5t120 21.5q63 0 117.5 -21.5t94.5 -60.5t62.5 -93t22.5 -118q0 -63 -22.5 -117.5t-62.5 -93.5t-94.5 -61.5t-117.5 -22.5zM416 1059q78 0 128 52t50 138t-50 137.5t-128 51.5 t-129 -51.5t-51 -137.5t51 -138t129 -52z" />
<glyph unicode="&#xb1;" horiz-adv-x="1804" d="M240 936h-189v145h189v146q0 137 75.5 215t235.5 78q27 0 55.5 -3.5t42.5 -3.5v-143q-14 4 -34.5 4h-36.5q-74 0 -118 -35.5t-44 -115.5v-142h436v140q0 137 76 218t235 81q23 0 52.5 -3.5t44.5 -3.5v-143q-12 4 -34 4h-38q-74 0 -117 -35.5t-43 -115.5v-142h223v-145 h-223v-936h-176v936h-436v-936h-176v936zM1462 1516h176v-1516h-176v1516z" />
<glyph unicode="&#xb4;" horiz-adv-x="1024" d="M530 1522h215l-290 -324h-117z" />
<glyph unicode="&#xb6;" horiz-adv-x="1275" d="M616 682q-242 4 -369.5 107.5t-127.5 306.5q0 88 30.5 164.5t90 134t146.5 89.5t202 32h514v-1926h-139v1782h-205v-1782h-142v1092z" />
<glyph unicode="&#xb7;" horiz-adv-x="559" d="M172 766h215v-215h-215v215z" />
<glyph unicode="&#xb8;" horiz-adv-x="1024" d="M518 -401q-74 0 -141.5 19.5t-120.5 53.5l41 68q47 -31 99.5 -46.5t105.5 -15.5q74 0 107.5 25t33.5 68q0 70 -82 69q-33 0 -56.5 -12t-45.5 -29l-64 31l54 170h96l-31 -106q23 14 50.5 22t64.5 8q57 0 101 -35.5t44 -103.5q0 -96 -75 -141t-181 -45z" />
<glyph unicode="&#xba;" horiz-adv-x="892" d="M446 752q-72 0 -136 24.5t-113.5 73.5t-79 123t-29.5 172q0 100 29.5 174t79 123t114 73.5t135.5 24.5q70 0 135.5 -24.5t114.5 -73.5t79 -123t30 -174q0 -98 -30 -172t-79 -123t-114.5 -73.5t-135.5 -24.5zM446 860q106 0 164 82t58 205q0 57 -13.5 108.5t-41 91 t-69.5 63.5t-98 24q-106 0 -163.5 -82t-57.5 -205q0 -57 13.5 -109.5t41 -91.5t68.5 -62.5t98 -23.5z" />
<glyph unicode="&#xbb;" horiz-adv-x="1110" d="M842 543l-303 538h176l311 -538l-311 -543h-176zM412 543l-303 538h178l311 -538l-311 -543h-178z" />
<glyph unicode="&#xbf;" horiz-adv-x="1124" d="M512 1516h209v-211h-209v211zM551 -29q-104 0 -187 28t-141.5 77t-89.5 116.5t-31 149.5q0 74 20.5 129t55.5 99t82 79t100 66q66 37 103 69.5t55.5 73.5t22.5 95.5t4 138.5h143q6 -66 6 -138q0 -111 -45 -182.5t-143 -130.5q-59 -35 -101.5 -64.5t-70 -61.5t-40.5 -70.5 t-13 -92.5q0 -104 74.5 -162.5t207.5 -58.5q127 0 214 56.5t151 140.5l121 -101q-43 -55 -93.5 -101t-111 -81t-133 -54.5t-160.5 -19.5z" />
<glyph unicode="&#xc0;" horiz-adv-x="1392" d="M602 1522h189l536 -1522h-186l-150 434h-602l-149 -434h-174zM936 592l-242 711h-4l-246 -711h492zM354 1933h215l193 -323h-117z" />
<glyph unicode="&#xc1;" horiz-adv-x="1392" d="M602 1522h189l536 -1522h-186l-150 434h-602l-149 -434h-174zM936 592l-242 711h-4l-246 -711h492zM825 1933h215l-290 -323h-117z" />
<glyph unicode="&#xc2;" horiz-adv-x="1392" d="M602 1522h189l536 -1522h-186l-150 434h-602l-149 -434h-174zM936 592l-242 711h-4l-246 -711h492zM631 1933h129l264 -329h-106l-224 192l-221 -192h-106z" />
<glyph unicode="&#xc3;" horiz-adv-x="1392" d="M602 1522h189l536 -1522h-186l-150 434h-602l-149 -434h-174zM936 592l-242 711h-4l-246 -711h492zM850 1599q-45 0 -86 17.5t-78 39t-70.5 40t-64.5 18.5q-45 0 -64.5 -25.5t-19.5 -84.5h-109q0 129 48.5 186t140.5 57q45 0 86 -18.5t78 -40t70.5 -38.5t66.5 -17 q43 0 63.5 25.5t20.5 84.5h104q0 -127 -48 -185.5t-138 -58.5z" />
<glyph unicode="&#xc4;" horiz-adv-x="1392" d="M602 1522h189l536 -1522h-186l-150 434h-602l-149 -434h-174zM936 592l-242 711h-4l-246 -711h492zM791 1798h182v-192h-182v192zM418 1798h180v-192h-180v192z" />
<glyph unicode="&#xc5;" horiz-adv-x="1392" d="M1327 0h-186l-150 434h-602l-149 -434h-174l520 1477q-39 25 -61.5 66.5t-22.5 94.5q0 82 54 136.5t140 54.5t140.5 -54.5t54.5 -136.5q0 -53 -22.5 -95t-61.5 -66zM696 1526q47 0 77 31.5t30 80.5q0 47 -30 79t-77 32t-76.5 -31.5t-29.5 -79.5q0 -49 29.5 -80.5 t76.5 -31.5zM936 592l-242 711h-4l-246 -711h492z" />
<glyph unicode="&#xc6;" horiz-adv-x="2068" d="M913 1516h1022v-166h-747v-473h555v-162h-555v-551h790v-164h-968v467h-512l-265 -467h-182zM1010 627v741h-2l-420 -741h422z" />
<glyph unicode="&#xc7;" horiz-adv-x="1443" d="M758 -401q-74 0 -142.5 19.5t-121.5 53.5l43 68q47 -31 98 -46.5t104 -15.5q74 0 108 25t34 68q0 70 -82 69q-31 0 -55.5 -12t-47.5 -29l-61 31l43 145q-129 14 -233.5 75t-178 162t-113.5 240.5t-40 311.5q0 176 47 319.5t132 246t203.5 158.5t260.5 56q121 0 214 -33.5 t161.5 -94t113.5 -146.5t72 -191l-172 -47q-49 174 -137 266.5t-254 92.5q-106 0 -191.5 -45.5t-145 -127t-91 -196.5t-31.5 -256q0 -152 32.5 -270.5t93 -201.5t145.5 -127t192 -44q162 0 263 96t148 283l170 -39q-53 -223 -193 -354.5t-370 -137.5l-24 -77q23 14 50 22 t64 8q59 0 102.5 -35.5t43.5 -103.5q0 -96 -75 -141t-179 -45z" />
<glyph unicode="&#xc8;" horiz-adv-x="1247" d="M186 1516h930v-166h-749v-473h557v-162h-557v-551h792v-164h-973v1516zM350 1933h215l193 -323h-117z" />
<glyph unicode="&#xc9;" horiz-adv-x="1247" d="M186 1516h930v-166h-749v-473h557v-162h-557v-551h792v-164h-973v1516zM737 1933h215l-290 -323h-117z" />
<glyph unicode="&#xca;" horiz-adv-x="1247" d="M186 1516h930v-166h-749v-473h557v-162h-557v-551h792v-164h-973v1516zM586 1933h129l264 -329h-107l-223 192l-221 -192h-106z" />
<glyph unicode="&#xcb;" horiz-adv-x="1247" d="M186 1516h930v-166h-749v-473h557v-162h-557v-551h792v-164h-973v1516zM756 1798h182v-192h-182v192zM383 1798h180v-192h-180v192z" />
<glyph unicode="&#xcc;" horiz-adv-x="593" d="M207 1516h180v-1516h-180v1516zM-33 1933h215l193 -323h-117z" />
<glyph unicode="&#xcd;" horiz-adv-x="593" d="M207 1516h180v-1516h-180v1516zM430 1933h215l-291 -323h-116z" />
<glyph unicode="&#xce;" horiz-adv-x="593" d="M207 1516h180v-1516h-180v1516zM231 1933h129l265 -329h-107l-223 192l-221 -192h-107z" />
<glyph unicode="&#xcf;" horiz-adv-x="593" d="M207 1516h180v-1516h-180v1516zM391 1798h182v-192h-182v192zM18 1798h181v-192h-181v192z" />
<glyph unicode="&#xd1;" d="M186 1516h191l797 -1199h4v1199h170v-1516h-162l-826 1231h-4v-1231h-170v1516zM936 1599q-45 0 -86 17.5t-78 39t-70.5 40t-64.5 18.5q-45 0 -64.5 -25.5t-19.5 -84.5h-109q0 129 48.5 186t140.5 57q45 0 86 -18.5t78 -40t70.5 -38.5t66.5 -17q43 0 63.5 25.5t20.5 84.5 h104q0 -127 -48 -185.5t-138 -58.5z" />
<glyph unicode="&#xd2;" d="M768 -29q-141 0 -261 54.5t-207 156t-137 247.5t-50 329q0 182 50 328.5t137 248t207 155.5t261 54t260 -54t206 -155.5t136 -248t49 -328.5t-49 -328.5t-136 -248t-206 -156t-260 -54.5zM768 133q102 0 189 42t149.5 122t97.5 196.5t35 264.5q0 147 -35 263t-97.5 195.5 t-149.5 121.5t-189 42q-104 0 -191.5 -42t-149.5 -121.5t-97 -195.5t-35 -263t35 -264t97 -197t149.5 -122t191.5 -42zM442 1933h215l193 -323h-117z" />
<glyph unicode="&#xd3;" d="M768 -29q-141 0 -261 54.5t-207 156t-137 247.5t-50 329q0 182 50 328.5t137 248t207 155.5t261 54t260 -54t206 -155.5t136 -248t49 -328.5t-49 -328.5t-136 -248t-206 -156t-260 -54.5zM768 133q102 0 189 42t149.5 122t97.5 196.5t35 264.5q0 147 -35 263t-97.5 195.5 t-149.5 121.5t-189 42q-104 0 -191.5 -42t-149.5 -121.5t-97 -195.5t-35 -263t35 -264t97 -197t149.5 -122t191.5 -42zM868 1933h215l-290 -323h-117z" />
<glyph unicode="&#xd4;" d="M768 -29q-141 0 -261 54.5t-207 156t-137 247.5t-50 329q0 182 50 328.5t137 248t207 155.5t261 54t260 -54t206 -155.5t136 -248t49 -328.5t-49 -328.5t-136 -248t-206 -156t-260 -54.5zM768 133q102 0 189 42t149.5 122t97.5 196.5t35 264.5q0 147 -35 263t-97.5 195.5 t-149.5 121.5t-189 42q-104 0 -191.5 -42t-149.5 -121.5t-97 -195.5t-35 -263t35 -264t97 -197t149.5 -122t191.5 -42zM700 1933h129l265 -329h-107l-223 192l-221 -192h-107z" />
<glyph unicode="&#xd5;" d="M768 -29q-141 0 -261 54.5t-207 156t-137 247.5t-50 329q0 182 50 328.5t137 248t207 155.5t261 54t260 -54t206 -155.5t136 -248t49 -328.5t-49 -328.5t-136 -248t-206 -156t-260 -54.5zM768 133q102 0 189 42t149.5 122t97.5 196.5t35 264.5q0 147 -35 263t-97.5 195.5 t-149.5 121.5t-189 42q-104 0 -191.5 -42t-149.5 -121.5t-97 -195.5t-35 -263t35 -264t97 -197t149.5 -122t191.5 -42zM918 1599q-45 0 -86 17.5t-78 39t-71 40t-65 18.5q-45 0 -64 -25.5t-19 -84.5h-109q0 129 48 186t140 57q45 0 86 -18.5t78 -40t71 -38.5t66 -17 q43 0 63.5 25.5t20.5 84.5h105q0 -127 -48 -185.5t-138 -58.5z" />
<glyph unicode="&#xd6;" d="M768 -29q-141 0 -261 54.5t-207 156t-137 247.5t-50 329q0 182 50 328.5t137 248t207 155.5t261 54t260 -54t206 -155.5t136 -248t49 -328.5t-49 -328.5t-136 -248t-206 -156t-260 -54.5zM768 133q102 0 189 42t149.5 122t97.5 196.5t35 264.5q0 147 -35 263t-97.5 195.5 t-149.5 121.5t-189 42q-104 0 -191.5 -42t-149.5 -121.5t-97 -195.5t-35 -263t35 -264t97 -197t149.5 -122t191.5 -42zM860 1798h182v-192h-182v192zM487 1798h181v-192h-181v192z" />
<glyph unicode="&#xd7;" horiz-adv-x="1306" d="M201 305l346 346l-346 346l104 105l346 -348l346 348l105 -105l-346 -346l348 -346l-105 -104l-346 348l-348 -350z" />
<glyph unicode="&#xd8;" d="M1266 1294q72 -100 112.5 -235t40.5 -301q0 -182 -49 -328.5t-136 -248t-206 -156t-260 -54.5q-121 0 -225.5 40t-190.5 116l-133 -168l-100 74l149 188q-74 100 -114.5 235.5t-40.5 301.5q0 182 50 328.5t137 248t207 155.5t261 54q121 0 225.5 -40t186.5 -115l135 167 l98 -73zM1077 1253q-121 131 -309 131q-104 0 -192.5 -42t-151 -122.5t-98 -197.5t-35.5 -264q0 -123 23.5 -223.5t68.5 -178.5zM453 262q127 -133 315 -133q104 0 190 43t149.5 124t98.5 197.5t35 264.5q0 123 -23.5 222t-68.5 177z" />
<glyph unicode="&#xd9;" horiz-adv-x="1468" d="M735 -27q-145 0 -251.5 42t-176 116t-102.5 175.5t-33 217.5v992h180v-967q0 -92 22.5 -168t70 -130t120 -85t172.5 -31q199 0 290 112.5t91 297.5v971h178v-988q0 -119 -34.5 -220t-105.5 -176t-175.5 -117t-245.5 -42zM422 1933h215l192 -323h-116z" />
<glyph unicode="&#xda;" horiz-adv-x="1468" d="M735 -27q-145 0 -251.5 42t-176 116t-102.5 175.5t-33 217.5v992h180v-967q0 -92 22.5 -168t70 -130t120 -85t172.5 -31q199 0 290 112.5t91 297.5v971h178v-988q0 -119 -34.5 -220t-105.5 -176t-175.5 -117t-245.5 -42zM817 1933h215l-291 -323h-116z" />
<glyph unicode="&#xdb;" horiz-adv-x="1468" d="M735 -27q-145 0 -251.5 42t-176 116t-102.5 175.5t-33 217.5v992h180v-967q0 -92 22.5 -168t70 -130t120 -85t172.5 -31q199 0 290 112.5t91 297.5v971h178v-988q0 -119 -34.5 -220t-105.5 -176t-175.5 -117t-245.5 -42zM668 1933h129l264 -329h-107l-223 192l-221 -192 h-107z" />
<glyph unicode="&#xdc;" horiz-adv-x="1468" d="M735 -27q-145 0 -251.5 42t-176 116t-102.5 175.5t-33 217.5v992h180v-967q0 -92 22.5 -168t70 -130t120 -85t172.5 -31q199 0 290 112.5t91 297.5v971h178v-988q0 -119 -34.5 -220t-105.5 -176t-175.5 -117t-245.5 -42zM827 1798h183v-192h-183v192zM455 1798h180v-192 h-180v192z" />
<glyph unicode="&#xdf;" horiz-adv-x="1282" d="M782 -23q-117 0 -197.5 35t-127.5 88l96 107q45 -41 98.5 -64.5t128.5 -23.5q111 0 177.5 80t66.5 217q0 94 -33 158.5t-94 104.5t-149.5 60.5t-198.5 24.5v133q180 2 258 72.5t78 177.5q0 106 -72 162.5t-199 56.5q-137 0 -209.5 -77t-72.5 -236v-1053h-176v1044 q0 233 125 352.5t337 119.5q199 0 317 -92.5t118 -266.5q0 -119 -71 -199.5t-194 -115.5q80 -10 153 -39t128 -79t88 -125t33 -175q0 -207 -110 -327t-298 -120z" />
<glyph unicode="&#xe0;" horiz-adv-x="1132" d="M395 -16q-141 0 -223 70.5t-82 201.5q0 82 38 151.5t123 127t223 100.5t339 72v49q0 201 -205 200q-123 0 -217 -47t-174 -116l-92 110q94 86 217 143.5t285 57.5q96 0 164.5 -24.5t111.5 -70.5t63.5 -114t20.5 -152v-477q0 -98 7 -161.5t24 -104.5h-180 q-10 35 -17.5 68.5t-7.5 81.5q-178 -166 -418 -166zM446 123q109 0 200 42t167 116v303q-154 -25 -259 -55.5t-170 -68.5t-92.5 -82t-27.5 -95q0 -78 48 -119t134 -41zM274 1522h215l193 -324h-117z" />
<glyph unicode="&#xe1;" horiz-adv-x="1132" d="M395 -16q-141 0 -223 70.5t-82 201.5q0 82 38 151.5t123 127t223 100.5t339 72v49q0 201 -205 200q-123 0 -217 -47t-174 -116l-92 110q94 86 217 143.5t285 57.5q96 0 164.5 -24.5t111.5 -70.5t63.5 -114t20.5 -152v-477q0 -98 7 -161.5t24 -104.5h-180 q-10 35 -17.5 68.5t-7.5 81.5q-178 -166 -418 -166zM446 123q109 0 200 42t167 116v303q-154 -25 -259 -55.5t-170 -68.5t-92.5 -82t-27.5 -95q0 -78 48 -119t134 -41zM678 1522h215l-291 -324h-117z" />
<glyph unicode="&#xe2;" horiz-adv-x="1132" d="M395 -16q-141 0 -223 70.5t-82 201.5q0 82 38 151.5t123 127t223 100.5t339 72v49q0 201 -205 200q-123 0 -217 -47t-174 -116l-92 110q94 86 217 143.5t285 57.5q96 0 164.5 -24.5t111.5 -70.5t63.5 -114t20.5 -152v-477q0 -98 7 -161.5t24 -104.5h-180 q-10 35 -17.5 68.5t-7.5 81.5q-178 -166 -418 -166zM446 123q109 0 200 42t167 116v303q-154 -25 -259 -55.5t-170 -68.5t-92.5 -82t-27.5 -95q0 -78 48 -119t134 -41zM514 1522h129l264 -330h-106l-223 192l-222 -192h-106z" />
<glyph unicode="&#xe3;" horiz-adv-x="1132" d="M395 -16q-141 0 -223 70.5t-82 201.5q0 82 38 151.5t123 127t223 100.5t339 72v49q0 201 -205 200q-123 0 -217 -47t-174 -116l-92 110q94 86 217 143.5t285 57.5q96 0 164.5 -24.5t111.5 -70.5t63.5 -114t20.5 -152v-477q0 -98 7 -161.5t24 -104.5h-180 q-10 35 -17.5 68.5t-7.5 81.5q-178 -166 -418 -166zM446 123q109 0 200 42t167 116v303q-154 -25 -259 -55.5t-170 -68.5t-92.5 -82t-27.5 -95q0 -78 48 -119t134 -41zM727 1188q-45 0 -86 17.5t-78 39t-70.5 40t-64.5 18.5q-45 0 -64.5 -26t-19.5 -85h-108q0 129 48 186.5 t140 57.5q45 0 86 -18.5t78 -40t70.5 -39t66.5 -17.5q43 0 63.5 25.5t20.5 85.5h104q0 -127 -48 -185.5t-138 -58.5z" />
<glyph unicode="&#xe4;" horiz-adv-x="1132" d="M395 -16q-141 0 -223 70.5t-82 201.5q0 82 38 151.5t123 127t223 100.5t339 72v49q0 201 -205 200q-123 0 -217 -47t-174 -116l-92 110q94 86 217 143.5t285 57.5q96 0 164.5 -24.5t111.5 -70.5t63.5 -114t20.5 -152v-477q0 -98 7 -161.5t24 -104.5h-180 q-10 35 -17.5 68.5t-7.5 81.5q-178 -166 -418 -166zM446 123q109 0 200 42t167 116v303q-154 -25 -259 -55.5t-170 -68.5t-92.5 -82t-27.5 -95q0 -78 48 -119t134 -41zM684 1386h182v-192h-182v192zM311 1386h181v-192h-181v192z" />
<glyph unicode="&#xe5;" horiz-adv-x="1132" d="M395 -16q-141 0 -223 70.5t-82 201.5q0 82 38 151.5t123 127t223 100.5t339 72v49q0 201 -205 200q-123 0 -217 -47t-174 -116l-92 110q94 86 217 143.5t285 57.5q96 0 164.5 -24.5t111.5 -70.5t63.5 -114t20.5 -152v-477q0 -98 7 -161.5t24 -104.5h-180 q-10 35 -17.5 68.5t-7.5 81.5q-178 -166 -418 -166zM446 123q109 0 200 42t167 116v303q-154 -25 -259 -55.5t-170 -68.5t-92.5 -82t-27.5 -95q0 -78 48 -119t134 -41zM592 1182q-86 0 -140.5 55t-54.5 139q0 82 54.5 136.5t140.5 54.5t140 -54.5t54 -136.5q0 -84 -54 -139 t-140 -55zM592 1264q47 0 76.5 31.5t29.5 80.5q0 47 -29.5 79t-76.5 32t-77 -32t-30 -79q0 -49 30 -80.5t77 -31.5z" />
<glyph unicode="&#xe6;" horiz-adv-x="1830" d="M393 -23q-141 0 -223 72t-82 201q0 82 38 153.5t123 129t223 101.5t339 73v49q0 201 -205 200q-123 0 -217 -47t-174 -116l-90 110q94 86 216 143.5t284 57.5q143 0 212.5 -58.5t94.5 -148.5q51 88 144 147.5t208 59.5q92 0 174 -34t143.5 -104.5t97.5 -178t36 -255.5 v-30h-762q2 -94 27.5 -165t69.5 -119t102.5 -72.5t125.5 -24.5q115 0 189 46t135 130l102 -90q-76 -109 -181 -169.5t-259 -60.5q-125 0 -230.5 55.5t-170.5 174.5q-106 -111 -221 -170.5t-269 -59.5zM1567 633q-10 145 -80 234t-205 89q-55 0 -105.5 -19t-92.5 -59 t-70.5 -100.5t-36.5 -144.5h590zM444 119q213 0 396 190q-31 88 -31 205v43.5t2 30.5q-154 -25 -259.5 -57.5t-170 -72.5t-92 -85t-27.5 -97q0 -78 48 -117.5t134 -39.5z" />
<glyph unicode="&#xe7;" horiz-adv-x="1097" d="M575 -401q-74 0 -142 19.5t-122 53.5l43 68q47 -31 98.5 -46.5t104.5 -15.5q74 0 107.5 25t33.5 68q0 70 -82 69q-31 0 -55 -12t-47 -29l-61 31l45 156q-82 12 -156 53t-129 110.5t-87 168t-32 223.5q0 147 43 253.5t114 175t160 101.5t179 33q92 0 159.5 -24.5 t119 -66.5t86 -97.5t59.5 -114.5l-150 -62q-43 113 -107.5 169.5t-170.5 56.5q-59 0 -114.5 -23.5t-100.5 -74t-72 -131.5t-27 -195q0 -201 86 -314.5t224 -113.5q104 0 170.5 55t119.5 174l146 -57q-61 -133 -159.5 -216t-262.5 -89l-27 -86q23 14 50.5 22t64.5 8 q59 0 102 -35.5t43 -103.5q0 -96 -75 -141t-179 -45z" />
<glyph unicode="&#xe8;" horiz-adv-x="1130" d="M584 -23q-96 0 -184.5 35t-156 105.5t-108.5 176t-41 247.5q0 147 44 253.5t115 175t158 101.5t173 33q96 0 178 -34t142.5 -104.5t95 -178t34.5 -255.5v-36h-764q2 -92 29 -162t70 -117t101 -71.5t126 -24.5q117 0 190.5 45t135.5 131l102 -90q-76 -109 -181 -169.5 t-259 -60.5zM866 633q-10 145 -79.5 234t-204.5 89q-55 0 -106.5 -19t-92.5 -59t-70.5 -100.5t-38.5 -144.5h592zM250 1522h215l192 -324h-116z" />
<glyph unicode="&#xe9;" horiz-adv-x="1130" d="M584 -23q-96 0 -184.5 35t-156 105.5t-108.5 176t-41 247.5q0 147 44 253.5t115 175t158 101.5t173 33q96 0 178 -34t142.5 -104.5t95 -178t34.5 -255.5v-36h-764q2 -92 29 -162t70 -117t101 -71.5t126 -24.5q117 0 190.5 45t135.5 131l102 -90q-76 -109 -181 -169.5 t-259 -60.5zM866 633q-10 145 -79.5 234t-204.5 89q-55 0 -106.5 -19t-92.5 -59t-70.5 -100.5t-38.5 -144.5h592zM682 1522h215l-291 -324h-117z" />
<glyph unicode="&#xea;" horiz-adv-x="1130" d="M584 -23q-96 0 -184.5 35t-156 105.5t-108.5 176t-41 247.5q0 147 44 253.5t115 175t158 101.5t173 33q96 0 178 -34t142.5 -104.5t95 -178t34.5 -255.5v-36h-764q2 -92 29 -162t70 -117t101 -71.5t126 -24.5q117 0 190.5 45t135.5 131l102 -90q-76 -109 -181 -169.5 t-259 -60.5zM866 633q-10 145 -79.5 234t-204.5 89q-55 0 -106.5 -19t-92.5 -59t-70.5 -100.5t-38.5 -144.5h592zM514 1522h129l264 -330h-106l-223 192l-222 -192h-106z" />
<glyph unicode="&#xeb;" horiz-adv-x="1130" d="M584 -23q-96 0 -184.5 35t-156 105.5t-108.5 176t-41 247.5q0 147 44 253.5t115 175t158 101.5t173 33q96 0 178 -34t142.5 -104.5t95 -178t34.5 -255.5v-36h-764q2 -92 29 -162t70 -117t101 -71.5t126 -24.5q117 0 190.5 45t135.5 131l102 -90q-76 -109 -181 -169.5 t-259 -60.5zM866 633q-10 145 -79.5 234t-204.5 89q-55 0 -106.5 -19t-92.5 -59t-70.5 -100.5t-38.5 -144.5h592zM666 1386h182v-192h-182v192zM293 1386h180v-192h-180v192z" />
<glyph unicode="&#xec;" horiz-adv-x="512" d="M168 1081h176v-1081h-176v1081zM-74 1522h215l193 -324h-117z" />
<glyph unicode="&#xed;" horiz-adv-x="512" d="M168 1081h176v-1081h-176v1081zM397 1522h215l-290 -324h-117z" />
<glyph unicode="&#xee;" horiz-adv-x="512" d="M168 1081h176v-1081h-176v1081zM190 1522h129l265 -330h-107l-223 192l-221 -192h-107z" />
<glyph unicode="&#xef;" horiz-adv-x="512" d="M168 1081h176v-1081h-176v1081zM350 1386h182v-192h-182v192zM-23 1386h181v-192h-181v192z" />
<glyph unicode="&#xf1;" horiz-adv-x="1204" d="M156 1081h178v-161q35 35 78 67.5t94 59t109.5 42t123.5 15.5q156 0 238 -85t82 -239v-780h-176v741q0 109 -47.5 160t-151.5 51q-98 0 -181 -47t-169 -127v-778h-178v1081zM768 1188q-45 0 -86 17.5t-78 39t-70.5 40t-64.5 18.5q-45 0 -64.5 -26t-19.5 -85h-109 q0 129 48.5 186.5t140.5 57.5q45 0 86 -18.5t78 -40t70.5 -39t66.5 -17.5q43 0 63.5 25.5t20.5 85.5h104q0 -127 -48 -185.5t-138 -58.5z" />
<glyph unicode="&#xf2;" horiz-adv-x="1193" d="M598 -23q-98 0 -189.5 36t-161 106.5t-111.5 176t-42 245.5q0 139 41 244.5t110.5 176t161 106.5t191.5 36q98 0 189.5 -36t161 -106.5t110.5 -176t41 -244.5t-41 -245t-110.5 -176.5t-161 -106.5t-189.5 -36zM598 127q76 0 136.5 29.5t102.5 84t63.5 131.5t21.5 169 q0 84 -20.5 158.5t-60.5 131t-101.5 89t-141.5 32.5q-78 0 -138.5 -29.5t-102.5 -84t-63.5 -130t-21.5 -167.5q0 -86 20.5 -162t60.5 -131t101.5 -88t143.5 -33zM274 1522h215l193 -324h-117z" />
<glyph unicode="&#xf3;" horiz-adv-x="1193" d="M598 -23q-98 0 -189.5 36t-161 106.5t-111.5 176t-42 245.5q0 139 41 244.5t110.5 176t161 106.5t191.5 36q98 0 189.5 -36t161 -106.5t110.5 -176t41 -244.5t-41 -245t-110.5 -176.5t-161 -106.5t-189.5 -36zM598 127q76 0 136.5 29.5t102.5 84t63.5 131.5t21.5 169 q0 84 -20.5 158.5t-60.5 131t-101.5 89t-141.5 32.5q-78 0 -138.5 -29.5t-102.5 -84t-63.5 -130t-21.5 -167.5q0 -86 20.5 -162t60.5 -131t101.5 -88t143.5 -33zM700 1522h215l-290 -324h-117z" />
<glyph unicode="&#xf4;" horiz-adv-x="1193" d="M598 -23q-98 0 -189.5 36t-161 106.5t-111.5 176t-42 245.5q0 139 41 244.5t110.5 176t161 106.5t191.5 36q98 0 189.5 -36t161 -106.5t110.5 -176t41 -244.5t-41 -245t-110.5 -176.5t-161 -106.5t-189.5 -36zM598 127q76 0 136.5 29.5t102.5 84t63.5 131.5t21.5 169 q0 84 -20.5 158.5t-60.5 131t-101.5 89t-141.5 32.5q-78 0 -138.5 -29.5t-102.5 -84t-63.5 -130t-21.5 -167.5q0 -86 20.5 -162t60.5 -131t101.5 -88t143.5 -33zM532 1522h130l264 -330h-107l-223 192l-221 -192h-107z" />
<glyph unicode="&#xf5;" horiz-adv-x="1193" d="M598 -23q-98 0 -189.5 36t-161 106.5t-111.5 176t-42 245.5q0 139 41 244.5t110.5 176t161 106.5t191.5 36q98 0 189.5 -36t161 -106.5t110.5 -176t41 -244.5t-41 -245t-110.5 -176.5t-161 -106.5t-189.5 -36zM598 127q76 0 136.5 29.5t102.5 84t63.5 131.5t21.5 169 q0 84 -20.5 158.5t-60.5 131t-101.5 89t-141.5 32.5q-78 0 -138.5 -29.5t-102.5 -84t-63.5 -130t-21.5 -167.5q0 -86 20.5 -162t60.5 -131t101.5 -88t143.5 -33zM752 1188q-45 0 -86 17.5t-78 39t-71 40t-64 18.5q-45 0 -64.5 -26t-19.5 -85h-109q0 129 48 186.5t141 57.5 q45 0 85.5 -18.5t77.5 -40t71 -39t67 -17.5q43 0 63.5 25.5t20.5 85.5h104q0 -127 -48 -185.5t-138 -58.5z" />
<glyph unicode="&#xf6;" horiz-adv-x="1193" d="M598 -23q-98 0 -189.5 36t-161 106.5t-111.5 176t-42 245.5q0 139 41 244.5t110.5 176t161 106.5t191.5 36q98 0 189.5 -36t161 -106.5t110.5 -176t41 -244.5t-41 -245t-110.5 -176.5t-161 -106.5t-189.5 -36zM598 127q76 0 136.5 29.5t102.5 84t63.5 131.5t21.5 169 q0 84 -20.5 158.5t-60.5 131t-101.5 89t-141.5 32.5q-78 0 -138.5 -29.5t-102.5 -84t-63.5 -130t-21.5 -167.5q0 -86 20.5 -162t60.5 -131t101.5 -88t143.5 -33zM690 1386h182v-192h-182v192zM317 1386h181v-192h-181v192z" />
<glyph unicode="&#xf7;" horiz-adv-x="1306" d="M553 1145h192v-189h-192v189zM135 756h1039v-148h-1039v148zM553 406h192v-189h-192v189z" />
<glyph unicode="&#xf8;" horiz-adv-x="1193" d="M973 936q59 -72 93 -169t34 -226q0 -139 -41 -245t-110.5 -176.5t-161 -106.5t-189.5 -36q-78 0 -152.5 23t-136.5 68l-110 -140l-86 74l112 141q-59 72 -95 170.5t-36 227.5q0 139 41 244.5t110.5 176t161 106.5t191.5 36q164 0 291 -90l106 135l88 -74zM795 887 q-39 35 -88.5 53t-108.5 18q-78 0 -139.5 -30.5t-103.5 -86t-64.5 -132t-22.5 -168.5q0 -76 15.5 -144.5t48.5 -126.5zM399 188q39 -33 89.5 -51t109.5 -18q78 0 138.5 30.5t102.5 87t64.5 134.5t22.5 170q0 74 -15.5 141.5t-46.5 120.5z" />
<glyph unicode="&#xf9;" horiz-adv-x="1204" d="M465 -20q-156 0 -238 83.5t-82 237.5v780h177v-743q0 -109 47 -160t151 -51q98 0 181 47t169 127v780h179v-1081h-179v162q-35 -35 -77.5 -68t-94 -58.5t-109.5 -40.5t-124 -15zM283 1522h215l192 -324h-117z" />
<glyph unicode="&#xfa;" horiz-adv-x="1204" d="M465 -20q-156 0 -238 83.5t-82 237.5v780h177v-743q0 -109 47 -160t151 -51q98 0 181 47t169 127v780h179v-1081h-179v162q-35 -35 -77.5 -68t-94 -58.5t-109.5 -40.5t-124 -15zM698 1522h215l-290 -324h-117z" />
<glyph unicode="&#xfb;" horiz-adv-x="1204" d="M465 -20q-156 0 -238 83.5t-82 237.5v780h177v-743q0 -109 47 -160t151 -51q98 0 181 47t169 127v780h179v-1081h-179v162q-35 -35 -77.5 -68t-94 -58.5t-109.5 -40.5t-124 -15zM532 1522h130l264 -330h-107l-223 192l-221 -192h-107z" />
<glyph unicode="&#xfc;" horiz-adv-x="1204" d="M465 -20q-156 0 -238 83.5t-82 237.5v780h177v-743q0 -109 47 -160t151 -51q98 0 181 47t169 127v780h179v-1081h-179v162q-35 -35 -77.5 -68t-94 -58.5t-109.5 -40.5t-124 -15zM694 1386h183v-192h-183v192zM322 1386h180v-192h-180v192z" />
<glyph unicode="&#xff;" horiz-adv-x="1091" d="M217 -416q-72 0 -120 8.5t-83 18.5l41 141q23 -6 63 -12t97 -6q84 0 129 36.5t78 116.5l41 107l-418 1087h186l318 -874h4l317 874h179l-463 -1204q-29 -72 -59.5 -126t-73.5 -91t-99.5 -56.5t-136.5 -19.5zM645 1386h182v-192h-182v192zM272 1386h181v-192h-181v192z " />
<glyph unicode="&#x131;" horiz-adv-x="512" d="M168 1081h176v-1081h-176v1081z" />
<glyph unicode="&#x152;" horiz-adv-x="2295" d="M768 -29q-137 0 -257 54.5t-208 156t-139 247.5t-51 329q0 182 51 328.5t139 248t208 155.5t257 54q166 0 288 -79t193 -210v261h916v-166h-750v-473h557v-162h-557v-551h791v-164h-957v264q-72 -131 -193.5 -212t-287.5 -81zM768 133q102 0 188 42t148.5 122t97.5 196.5 t35 264.5q0 147 -35 263t-97.5 195.5t-148.5 121.5t-188 42q-104 0 -191.5 -42t-151 -121.5t-98 -195.5t-34.5 -263t34.5 -264t98 -197t151 -122t191.5 -42z" />
<glyph unicode="&#x153;" horiz-adv-x="1939" d="M594 -23q-98 0 -189.5 36t-160 106.5t-109.5 176t-41 245.5q0 139 41 244.5t109.5 176t159 106.5t190.5 36q141 0 247.5 -73t159.5 -193q25 57 66 106t92 85t111.5 55.5t124.5 19.5q92 0 174 -34t143.5 -104.5t97 -178t35.5 -255.5v-30h-760q2 -94 28 -165t69 -119 t101 -72.5t126 -24.5q115 0 187.5 46t134.5 130l104 -90q-76 -109 -181.5 -169.5t-258.5 -60.5q-66 0 -126.5 18.5t-112.5 53.5t-93 82t-66 107q-55 -117 -158.5 -189t-244.5 -72zM1677 633q-10 145 -79.5 234t-204.5 89q-55 0 -105.5 -19t-91.5 -59t-69.5 -100.5 t-39.5 -144.5h590zM594 125q78 0 137.5 29.5t100 85t62 132.5t21.5 169q0 84 -19 158.5t-59 131t-100.5 89t-142.5 32.5q-78 0 -137.5 -29.5t-100.5 -84t-62.5 -130t-21.5 -167.5q0 -86 19.5 -162t59.5 -132.5t100.5 -89t142.5 -32.5z" />
<glyph unicode="&#x178;" horiz-adv-x="1292" d="M555 664l-510 852h193l411 -699l410 699h188l-512 -852v-664h-180v664zM741 1798h183v-192h-183v192zM369 1798h180v-192h-180v192z" />
<glyph unicode="&#x192;" horiz-adv-x="714" d="M-174 -272q10 -2 32.5 -3t41.5 -1q80 0 133 36.5t63 124.5l131 953h-188l18 137h189l33 252q18 141 103 217t261 76q25 0 56.5 -3.5t45.5 -3.5l-20 -137q-10 2 -32.5 3t-41.5 1q-74 0 -130 -31.5t-66 -119.5l-33 -254h237l-18 -137h-238l-133 -969q-18 -135 -102 -208 t-260 -73q-25 0 -56.5 2t-44.5 4z" />
<glyph unicode="&#x2c6;" horiz-adv-x="1060" d="M465 1522h129l264 -330h-106l-224 192l-221 -192h-106z" />
<glyph unicode="&#x2c7;" horiz-adv-x="1060" d="M201 1530h108l221 -193l222 193h106l-264 -330h-129z" />
<glyph unicode="&#x2d8;" horiz-adv-x="1024" d="M512 1186q-143 0 -226 94t-91 250h106q14 -119 69.5 -166t141.5 -47t141.5 47t69.5 166h106q-8 -156 -91 -250t-226 -94z" />
<glyph unicode="&#x2d9;" horiz-adv-x="1024" d="M410 1391h204v-185h-204v185z" />
<glyph unicode="&#x2da;" horiz-adv-x="1105" d="M553 1182q-86 0 -140.5 55t-54.5 139q0 82 54.5 136.5t140.5 54.5t140.5 -54.5t54.5 -136.5q0 -84 -54.5 -139t-140.5 -55zM553 1264q47 0 76.5 31.5t29.5 80.5q0 47 -29.5 79t-76.5 32t-77 -32t-30 -79q0 -49 30 -80.5t77 -31.5z" />
<glyph unicode="&#x2db;" horiz-adv-x="1024" d="M518 -383q-94 0 -146.5 42t-52.5 116q0 66 48.5 122t119.5 103h111q-70 -47 -105.5 -95t-35.5 -102q0 -43 23.5 -69.5t80.5 -26.5q53 0 98.5 14.5t92.5 36.5l36 -63q-63 -35 -130.5 -56.5t-139.5 -21.5z" />
<glyph unicode="&#x2dc;" horiz-adv-x="1040" d="M672 1188q-45 0 -86 17.5t-78 39t-71 40t-64 18.5q-45 0 -64.5 -26t-19.5 -85h-109q0 129 48 186.5t141 57.5q45 0 86 -18.5t77.5 -40t70.5 -39t67 -17.5q43 0 63.5 25.5t20.5 85.5h104q0 -127 -48 -185.5t-138 -58.5z" />
<glyph unicode="&#x2dd;" horiz-adv-x="1042" d="M700 1522h218l-302 -324h-120zM354 1522h217l-297 -324h-118z" />
<glyph unicode="&#x3c0;" horiz-adv-x="1769" d="M885 -29q-166 0 -308.5 61.5t-248 167t-166 249t-60.5 307.5t60.5 308t167 250.5t249 168t308.5 61.5q164 0 306 -61.5t247.5 -167t166 -248.5t60.5 -307t-60.5 -308.5t-167 -251t-248.5 -168t-306 -61.5zM887 66q143 0 267 54t215 147t143.5 219t52.5 270 q0 143 -52.5 270t-144.5 221t-216 148.5t-267 54.5t-267 -54.5t-216.5 -147.5t-144.5 -219t-52 -269q0 -145 52 -271.5t144.5 -220.5t217.5 -148t268 -54zM621 1192h303q147 0 228 -60.5t81 -183.5q0 -133 -86 -194.5t-234 -61.5h-172v-362h-120v862zM920 797q92 0 142 32.5 t50 112.5q0 78 -51 110.5t-143 32.5h-177v-288h179z" />
<glyph unicode="&#xe45;" horiz-adv-x="1024" />
<glyph unicode="&#x2000;" horiz-adv-x="966" />
<glyph unicode="&#x2001;" horiz-adv-x="1933" />
<glyph unicode="&#x2002;" horiz-adv-x="966" />
<glyph unicode="&#x2003;" horiz-adv-x="1933" />
<glyph unicode="&#x2004;" horiz-adv-x="644" />
<glyph unicode="&#x2005;" horiz-adv-x="483" />
<glyph unicode="&#x2006;" horiz-adv-x="322" />
<glyph unicode="&#x2007;" horiz-adv-x="322" />
<glyph unicode="&#x2008;" horiz-adv-x="241" />
<glyph unicode="&#x2009;" horiz-adv-x="386" />
<glyph unicode="&#x200a;" horiz-adv-x="107" />
<glyph unicode="&#x2010;" horiz-adv-x="731" d="M127 713h477v-140h-477v140z" />
<glyph unicode="&#x2011;" horiz-adv-x="731" d="M127 713h477v-140h-477v140z" />
<glyph unicode="&#x2012;" horiz-adv-x="731" d="M127 713h477v-140h-477v140z" />
<glyph unicode="&#x2013;" horiz-adv-x="1320" d="M133 719h1055v-156h-1055v156z" />
<glyph unicode="&#x2014;" horiz-adv-x="1900" d="M133 719h1634v-156h-1634v156z" />
<glyph unicode="&#x2018;" horiz-adv-x="555" d="M174 1284l107 232h81l-57 -216h74v-215h-205v199z" />
<glyph unicode="&#x2019;" horiz-adv-x="555" d="M248 1300h-74v216h205v-199l-105 -232h-81z" />
<glyph unicode="&#x201a;" horiz-adv-x="555" d="M248 0h-74v215h205v-197l-105 -233h-81z" />
<glyph unicode="&#x201c;" horiz-adv-x="952" d="M573 1284l107 232h80l-55 -216h73v-215h-205v199zM174 1284l107 232h81l-57 -216h74v-215h-205v199z" />
<glyph unicode="&#x201d;" horiz-adv-x="952" d="M647 1300h-74v216h205v-199l-106 -232h-80zM248 1300h-74v216h205v-199l-105 -232h-81z" />
<glyph unicode="&#x201e;" horiz-adv-x="952" d="M647 0h-74v215h205v-197l-106 -233h-80zM248 0h-74v215h205v-197l-105 -233h-81z" />
<glyph unicode="&#x2020;" horiz-adv-x="1159" d="M514 846l-422 -23v168l422 -26l-31 551h191l-31 -551l422 26v-168l-422 23l31 -1256h-191z" />
<glyph unicode="&#x2021;" horiz-adv-x="1159" d="M514 68l-401 -27v164l401 -25l-22 377l22 369l-401 -23v162l401 -25l-31 476h191l-31 -476l401 25v-162l-401 23l23 -369l-23 -377l401 25v-164l-401 27l31 -478h-191z" />
<glyph unicode="&#x2022;" horiz-adv-x="948" d="M473 469q-109 0 -178.5 69.5t-69.5 178.5q0 111 70 180.5t178 69.5q111 0 180.5 -70t69.5 -180q0 -109 -69.5 -178.5t-180.5 -69.5z" />
<glyph unicode="&#x2026;" horiz-adv-x="1662" d="M1280 215h211v-215h-211v215zM725 215h211v-215h-211v215zM172 215h211v-215h-211v215z" />
<glyph unicode="&#x202f;" horiz-adv-x="386" />
<glyph unicode="&#x2030;" horiz-adv-x="2889" d="M473 612q-86 0 -151.5 34t-110.5 94.5t-68.5 144.5t-23.5 186q0 106 25.5 192.5t71.5 148t111.5 94t147.5 32.5q164 0 257 -125t93 -336q0 -102 -23.5 -187t-68.5 -146.5t-110.5 -96.5t-149.5 -35zM1393 1516h159l-905 -1516h-160zM2417 -20q-84 0 -149.5 33.5t-111 94 t-69 144.5t-23.5 186q0 106 25 192.5t71 148t111.5 94t147.5 32.5q164 0 257 -125t93 -336q0 -102 -23.5 -187t-69.5 -146.5t-111.5 -96t-147.5 -34.5zM1565 -20q-84 0 -149.5 33.5t-110.5 94t-69 144.5t-24 186q0 106 26 192.5t72 148t111.5 94t147.5 32.5 q80 0 145.5 -32.5t110.5 -92t69.5 -145.5t24.5 -191q0 -102 -23.5 -187t-69.5 -146.5t-111.5 -96t-149.5 -34.5zM475 748q96 0 145.5 92t49.5 233q0 152 -50.5 241t-146.5 89q-98 0 -147.5 -92t-49.5 -234q0 -152 50.5 -240.5t148.5 -88.5zM2417 113q49 0 86 24.5t61.5 69.5 t36.5 104.5t12 130.5q0 152 -49 240t-147 88t-148.5 -92t-50.5 -234q0 -152 50.5 -241.5t148.5 -89.5zM1567 113q49 0 86 24.5t61.5 69.5t36.5 104.5t12 130.5q0 152 -50 240t-148 88t-147.5 -92t-49.5 -234q0 -152 50.5 -241.5t148.5 -89.5z" />
<glyph unicode="&#x2039;" horiz-adv-x="681" d="M84 543l309 538h178l-301 -538l301 -543h-178z" />
<glyph unicode="&#x203a;" horiz-adv-x="681" d="M412 543l-303 538h178l311 -538l-311 -543h-178z" />
<glyph unicode="&#x2044;" horiz-adv-x="983" d="M856 1516h160l-887 -1516h-162z" />
<glyph unicode="&#x205f;" horiz-adv-x="483" />
<glyph unicode="&#x20ac;" horiz-adv-x="1476" d="M43 842v133h254q23 147 76 253.5t127.5 177.5t167 104.5t190.5 33.5q106 0 187 -30.5t140.5 -88t99.5 -136.5t67 -173l-162 -51q-23 76 -48.5 136.5t-63.5 101t-91 62t-129 21.5q-143 0 -247.5 -99t-139.5 -312h438v-133h-452q-2 -16 -2 -35v-37q0 -29 1 -54.5t1 -49.5 h452v-136h-436q68 -403 389 -403q145 0 224 85t124 257l162 -47q-29 -102 -73 -185t-107.5 -141.5t-145 -91.5t-186.5 -33q-104 0 -196.5 34t-166 102.5t-124.5 174t-74 248.5h-256v136h240q-2 25 -2 49v49v39.5t2 38.5h-240z" />
<glyph unicode="&#x2122;" horiz-adv-x="1812" d="M864 1516h172l242 -697l244 697h172v-867h-129v660l-236 -660h-108l-236 658v-658h-121v867zM324 1403h-263v113h658v-113h-264v-754h-131v754z" />
<glyph unicode="&#x220f;" horiz-adv-x="1112" d="M555 596q-98 0 -185 37t-150.5 101.5t-100.5 150.5t-37 186t37 187.5t101.5 152t151.5 101t185 36.5t185 -36.5t150.5 -100t100.5 -150.5t37 -186q0 -100 -37 -188t-101.5 -152.5t-150.5 -101.5t-186 -37zM557 664q84 0 157.5 31.5t128 87t86.5 129t32 159.5t-32 161 t-86.5 130t-128 88t-159.5 33q-84 0 -157.5 -32t-128 -87t-85 -130t-30.5 -159q0 -86 30.5 -160.5t85 -131t128 -88t159.5 -31.5zM379 1346h186q92 0 140.5 -40t48.5 -114q0 -63 -29 -97t-80 -48l123 -228l-90 2l-117 215h-98v-217h-84v527zM561 1104q53 0 83 19.5t30 66.5 q0 43 -31 61.5t-84 18.5h-96v-166h98z" />
<glyph unicode="&#x2212;" horiz-adv-x="1306" d="M135 756h1039v-148h-1039v148z" />
<glyph unicode="&#x221a;" horiz-adv-x="1224" d="M47 1075h195l290 -842h5l444 1280h195l-551 -1517h-185z" />
<glyph unicode="&#x221e;" horiz-adv-x="1804" d="M1460 1485h180v-178h-180v178zM240 936h-189v145h189v146q0 137 75.5 215t235.5 78q27 0 55.5 -3.5t42.5 -3.5v-143q-14 4 -34.5 4h-36.5q-74 0 -118 -35.5t-44 -115.5v-142h436v140q0 137 76 218t235 81q23 0 52.5 -3.5t44.5 -3.5v-143q-12 4 -34 4h-38 q-74 0 -117 -35.5t-43 -115.5v-142h223v-145h-223v-936h-176v936h-436v-936h-176v936zM1462 1081h176v-1081h-176v1081z" />
<glyph unicode="&#x2260;" horiz-adv-x="1320" d="M240 936h-189v145h189v146q0 137 75.5 215t235.5 78q27 0 55.5 -3.5t42.5 -3.5v-141q-14 2 -34.5 3t-36.5 1q-74 0 -118 -36.5t-44 -114.5v-144h436v142q0 137 76 217t248 80q25 0 56.5 -3.5t45.5 -3.5v-143q-14 4 -36.5 5t-39.5 1q-76 0 -125 -31.5t-49 -119.5v-144h238 v-145h-238v-936h-176v936h-436v-936h-176v936z" />
<glyph unicode="&#xe000;" horiz-adv-x="1085" d="M0 1085h1085v-1085h-1085v1085z" />
<glyph unicode="&#xe001;" horiz-adv-x="1048" d="M791 1143q39 -53 67.5 -112.5t44.5 -125.5q25 -92 21 -181t-52 -159q-41 -66 -124.5 -108.5t-225.5 -42.5q-104 0 -178 27.5t-121 74.5q-57 53 -79.5 128t-18.5 157q6 96 47 187t102 155h517zM784 907q-10 31 -25.5 61.5t-31.5 65.5l-2 10h-397l-2 -10q-39 -66 -58 -127 h516zM731 109q18 -4 31.5 -18.5t13.5 -37.5v-4q0 -20 -14 -34.5t-35 -14.5h-403q-20 0 -36 14.5t-16 34.5v4q0 23 14.5 38t35.5 18q2 0 33.5 6t56.5 22q16 14 26.5 55t12.5 70q2 16 3 30.5t1 18.5q0 6 6 11q4 2 21.5 1t23.5 -4h17.5t21.5 3q12 0 28 2q8 0 11 -2q4 -8 4 -11 q-2 -4 1 -17t3 -20q4 -31 14 -72.5t27 -54.5q14 -12 47 -22t51 -16z" />
<glyph unicode="&#xe002;" horiz-adv-x="1380" d="M154 973q16 12 36 22q16 8 39 15.5t50 7.5t50 -7t42 -16q23 -8 39 -20l24 -17q10 -12 0 -34l-135 -191v-287q12 -4 36.5 -16t35.5 -22l202 -175l62 148q27 59 80 59h397q63 0 86 -28.5t33 -96.5l22 -204q8 -47 -12 -79t-82 -32h-536q-45 0 -70 29l-283 247q-37 37 -49 74 t21 68q2 0 9 8t11 10l2 297l-139 182q-6 23 10 35q0 2 4 6q3 5 15 17zM631 528q-39 0 -29 39l29 199v10q0 78 33.5 142.5t89.5 105.5q33 27 76.5 41t89 14t85 -14t64.5 -41q53 -45 87 -107.5t34 -140.5v-8l35 -201q6 -16 -3.5 -27.5t-25.5 -11.5h-131q-74 -51 -154 -51 q-84 0 -157 51h-123zM723 811q-2 -10 -2 -17.5v-17.5q0 -41 14.5 -77.5t41 -64.5t60 -43.5t74.5 -15.5q78 0 132.5 58.5t58.5 142.5q0 10 -2 17.5t-4 17.5h-373z" />
<glyph unicode="&#xe003;" horiz-adv-x="1058" d="M537 1081q82 0 155.5 -26.5t126.5 -72.5t85 -107.5t32 -131.5v-542q0 -86 -56.5 -143.5t-142.5 -57.5h-407q-86 0 -146.5 57.5t-60.5 143.5v477v65q0 70 33.5 131.5t90 107.5t131.5 72.5t159 26.5zM578 334q41 25 40 69q0 37 -24.5 61.5t-58.5 24.5q-35 0 -60.5 -24.5 t-25.5 -61.5q0 -23 12 -41t31 -28l-37 -141q0 -10 2 -13q8 -8 12 -8h131q8 0 12 8q6 6 2 13zM811 743q0 43 -22.5 80t-60.5 64.5t-88 44t-103 16.5q-55 0 -104.5 -16.5t-87.5 -44t-60.5 -64.5t-22.5 -80v-65h549v65z" />
<glyph unicode="&#xe004;" horiz-adv-x="1290" d="M1114 494q23 0 38 -15.5t15 -38.5t-13 -37t-36 -16h-8h-2v-104q0 -63 -70 -64h-153l51 -137v-2q8 -23 -3 -45.5t-34 -30.5q-16 -4 -20 -4q-41 0 -56 39l-65 180h-226l-63 -178v-2q-10 -23 -31.5 -34t-44.5 -1q-25 8 -35 31.5t-2 46.5l50 137h-154q-70 0 -70 86v82h-2h-6 q-23 0 -37 15.5t-14 37.5q0 23 14.5 38.5t36.5 15.5h145q20 0 36 -15.5t16 -38.5t-15.5 -38t-36.5 -15h-4h-2v-35h138l65 230h-123h-2q-29 2 -45 20.5t-16 42.5q0 29 18.5 48.5t46.5 19.5h494q29 0 47 -19.5t18 -48.5q0 -25 -17 -43t-44 -20h-4h-113l64 -230h137v35h-2h-6 q-23 2 -36 16.5t-13 36.5q0 23 15 38.5t36 15.5h143zM713 352l-62 230h-12l-64 -230h138z" />
<glyph unicode="&#xe005;" horiz-adv-x="1193" d="M1022 299q23 -12 36 -29.5t13 -31.5q0 -12 -8 -25.5t-19 -19.5q-10 -6 -32.5 -2t-42.5 14q-23 12 -36 3t-13 -32q0 -27 -15.5 -34t-36.5 5h-4q-20 12 -35.5 39t-15.5 50q0 25 -11 47t-28 32l-15 7.5t-11 7.5q-6 4 -11 6q-6 -2 -14 -6q-6 -4 -14.5 -8.5t-16.5 -8.5 q-10 -6 -17 -10t-11 -8q-6 -4 -11 -8v-43q0 -18 12.5 -40t32.5 -34q23 -12 36.5 -38t13.5 -50v-6q0 -23 -13.5 -31t-36.5 4q-20 12 -32.5 3t-12.5 -32t-8 -45t-18 -30q-10 -4 -28.5 -4t-29.5 4q-12 8 -19 30.5t-7 44.5q0 23 -14.5 32t-34.5 -3t-35 -4t-15 31v6 q0 25 13.5 50.5t36.5 37.5q20 12 34.5 33.5t14.5 40.5v43q-4 4 -13 8q-6 4 -14 8t-16 10q-8 4 -15.5 8.5t-13.5 8.5q-8 4 -14 6q-4 -2 -11 -6q-4 -4 -11 -7.5l-15 -7.5q-16 -10 -27.5 -32.5t-11.5 -46.5q0 -23 -15.5 -49.5t-35.5 -39.5h-4q-23 -12 -37.5 -4.5t-14.5 33.5 q0 23 -13 32t-36 -3q-20 -10 -42.5 -14.5t-32.5 2.5q-10 6 -18.5 19t-8.5 26q0 14 13.5 31.5t35.5 29.5q20 10 20.5 26.5t-22.5 28.5q-20 14 -20 31.5t22 32.5l2 2q23 10 53.5 11t48.5 -11q23 -14 48.5 -16.5t42.5 8.5q16 10 26 29.5t10 37.5v33.5t-2 13.5q0 2 -10 8.5 t-26 16.5q-14 10 -40 8t-49 -16q-18 -10 -48.5 -10.5t-53.5 14.5l-2 2q-23 12 -22.5 29.5t22.5 27.5q20 12 21.5 28.5t-21.5 29.5q-20 10 -34.5 28.5t-14.5 30.5q0 33 27 47q12 6 33.5 2t43.5 -14q20 -12 34.5 -3t14.5 31q0 25 15.5 33t38.5 -4l2 -4q20 -10 35.5 -35.5 t15.5 -52.5q0 -23 10 -45.5t27 -32.5q33 -23 41 -22q4 4 12 8q6 4 12.5 8t16.5 8l41 25v45q0 18 -14.5 39.5t-34.5 31.5q-23 12 -36.5 38t-13.5 51v4q0 25 13.5 34t36.5 -6q20 -12 35.5 -3t15.5 34q0 23 7 44.5t17 29.5q10 4 29.5 4t30.5 -4q10 -8 17 -29.5t7 -44.5 q0 -25 12.5 -34t32.5 3q23 14 36.5 5t13.5 -33v-4q0 -25 -13.5 -50.5t-36.5 -38.5q-18 -10 -31.5 -31.5t-13.5 -39.5v-45q4 -4 11 -8q12 -8 28 -17q8 -4 15.5 -8t13.5 -8q8 -4 12 -8l12 6q6 4 12.5 7t14.5 7q16 10 27.5 33.5t11.5 46.5q0 27 15.5 52.5t35.5 35.5l2 4 q23 12 38.5 4t15.5 -33q0 -23 13 -32t36 4q23 10 44 14t31 -2q29 -14 29 -47q0 -12 -14.5 -30.5t-34.5 -28.5q-23 -12 -23 -29t23 -29q23 -10 22.5 -27.5t-22.5 -29.5l-2 -2q-23 -14 -53.5 -14.5t-48.5 10.5q-23 14 -48.5 16t-40.5 -8q-16 -10 -26 -16.5t-12 -8.5v-47 q0 -18 10 -37.5t26 -29.5t42 -8t49 16q18 12 48.5 11t53.5 -11l2 -2q23 -14 22.5 -31.5t-20.5 -32.5q-23 -12 -24 -28.5t22 -26.5zM637 418q16 10 25.5 27.5t9.5 33.5q0 18 -9.5 35.5t-25.5 28.5q-8 4 -15.5 9l-13.5 9l-12 6q-4 -2 -10 -6q-4 -4 -11.5 -9t-15.5 -9 q-16 -10 -27.5 -27.5t-11.5 -36.5q0 -16 11.5 -33.5t27.5 -27.5q8 -6 15.5 -9t11.5 -8q6 -4 10 -6q12 0 41 23z" />
<glyph unicode="&#xe006;" horiz-adv-x="1388" d="M268 0q-29 0 -46 17.5t-17 41.5q0 27 17.5 45.5t45.5 18.5h717q27 0 45.5 -18.5t18.5 -45.5q0 -25 -18.5 -42t-45.5 -17h-717zM1110 635q66 0 111 -43t45 -109q0 -68 -45 -111.5t-111 -43.5q-78 0 -127 59l-80 -160q-10 -16 -32.5 -24t-41.5 -8h-456q-16 0 -39 8t-33 24 l-170 338q-4 16 -6 41t-2 43v4q0 18 13.5 32.5t29.5 14.5h870q16 0 29.5 -14t13.5 -33v-4v-16q8 2 31 2zM1110 391q37 0 63.5 29t26.5 63q0 37 -26.5 62.5t-63.5 25.5q-39 0 -64.5 -25.5t-25.5 -62.5q0 -35 25.5 -63.5t64.5 -28.5zM426 1137q12 12 23.5 -0.5t1.5 -24.5 q-8 -12 -16.5 -27.5t-12.5 -31.5t0 -32.5t18 -29.5q8 -10 18.5 -20t16.5 -23q25 -43 8 -90q-6 -12 -15 -25.5t-13 -23.5q-6 -16 -22.5 -8t-10.5 22q6 18 16.5 30.5t14.5 33.5q2 18 -3.5 31.5t-15.5 25.5t-21.5 23.5t-17.5 27.5q-16 37 -4 75t35 67zM588 1137q4 6 10 5t11 -5 t5 -11.5t-6 -13.5q-18 -29 -26 -59q-4 -16 0 -32.5t16 -29.5q8 -10 20.5 -20t16.5 -23q23 -43 6 -90q-4 -12 -14.5 -25.5t-14.5 -23.5q-6 -16 -22.5 -8t-7.5 22q10 18 17 30.5t11 33.5q2 18 -3 31.5t-15 25.5t-20.5 23.5t-16.5 27.5q-18 37 -5 75t38 67zM739 1137 q10 12 22.5 -0.5t0.5 -24.5q-8 -12 -15.5 -27.5t-9.5 -31.5q-4 -16 -1 -32.5t14 -29.5q10 -10 21 -20t17 -23q25 -47 5 -90q-10 -25 -27 -49q-8 -16 -22.5 -8t-6.5 22q6 18 15.5 30.5t13.5 33.5q4 18 -2 31.5t-16.5 25.5t-22.5 23.5t-18 27.5q-14 37 -2.5 75t34.5 67z" />
<glyph unicode="&#xe007;" horiz-adv-x="1243" d="M829 913q-47 0 -80.5 34t-33.5 81t33.5 81t80.5 34q49 0 82 -34t33 -81t-33 -81t-82 -34zM981 889q25 0 49.5 -11.5t44 -31t31.5 -45t12 -53.5l2 -310q0 -23 -15 -38t-38 -15t-37 15.5t-16 37.5v281v2h-29v-655q0 -29 -19.5 -47.5t-43.5 -18.5q-29 0 -47.5 18.5 t-18.5 47.5v337h-39v-337q0 -29 -20.5 -47.5t-46.5 -18.5q-29 0 -47.5 18.5t-18.5 47.5v655h-33v-279q0 -23 -14 -38t-37 -15t-38 15.5t-15 37.5v308q0 57 45 98t96 41h293zM299 571q-29 0 -49.5 21.5t-20.5 52.5q0 29 20.5 49.5t49.5 20.5t50.5 -20.5t21.5 -49.5 q0 -31 -21.5 -52.5t-50.5 -21.5zM397 555q29 0 56.5 -25.5t27.5 -60.5v-193q0 -16 -10 -25t-25 -9q-12 0 -22 9t-10 25v173h-15v-408q0 -16 -13 -28.5t-30 -12.5q-16 0 -28.5 12.5t-12.5 28.5v213h-24v-213q0 -16 -12.5 -28.5t-28.5 -12.5t-29.5 12.5t-13.5 28.5v408h-19 v-173q0 -12 -8 -21t-22 -9t-24.5 9t-10.5 21v193q0 35 27.5 60.5t60.5 25.5h186z" />
<glyph unicode="&#xe008;" horiz-adv-x="1511" d="M723 819q-41 0 -69.5 29t-28.5 74q0 39 28.5 68.5t69.5 29.5t71.5 -29.5t30.5 -68.5q0 -45 -30.5 -74t-71.5 -29zM739 727q4 -10 23.5 -40t42.5 -64q25 -39 53 -88q25 -33 30 -58.5t-16 -42.5q-18 -12 -38.5 -3t-32.5 28q-27 37 -49 71q-18 29 -37 56.5t-25 38.5 l-80 -166l80 -170q2 -4 2 -11.5v-13.5q0 -2 2 -4q0 -2 2 -4v-182q-4 -33 -13 -53.5t-38 -20.5q-27 0 -37 20.5t-10 55.5v174l-90 156l-53 -123q-23 -25 -44.5 -30t-48.5 -3l-174 10q-33 4 -50 14.5t-13 40.5q2 25 24.5 36t59.5 7l162 -8q12 35 24 66q10 27 20.5 53.5 t16.5 38.5q6 14 18.5 37.5t24.5 46.5q14 27 33 55l29 43l-211 -139q-10 -12 -33 -12t-31 14q-14 18 -9 34.5t32 41.5q63 45 116 82q45 31 84 57.5t45 30.5q43 23 84 6l64 -29q20 -12 34.5 -21.5t26.5 -27.5zM1268 733q-39 0 -66.5 27.5t-27.5 64.5t27.5 63.5t66.5 26.5 q37 0 63.5 -26.5t26.5 -63.5t-26.5 -64.5t-63.5 -27.5zM1034 621q18 35 39 57q16 20 36.5 34.5t39.5 8.5l47 -23q16 -10 29.5 -18t25.5 -27q4 -8 22.5 -36.5t39.5 -59.5q23 -37 49 -82q23 -29 26 -54.5t-16 -37.5q-16 -12 -34.5 -4t-28.5 27q-25 33 -45 63q-16 25 -34 49.5 t-22 34.5l-53 -117q33 -39 62 -74q25 -29 47 -60.5t32 -49.5q4 -8 4 -37t-2 -61q-2 -37 -4 -84q0 -35 -9 -52.5t-36 -17.5q-29 -2 -39 18.5t-10 53.5v164l-129 129q-2 -31 -4 -58q-4 -23 -7 -47t-9 -39q-12 -27 -23.5 -37t-34.5 -20l-116 -78q-23 -12 -44.5 -16t-37.5 20 q-12 23 1 43.5t42 38.5l120 84q0 45 3 84q2 33 2 64.5t4 44.5q4 29 20.5 66.5t26.5 64.5q2 4 5 9t7 13q4 9 8 19z" />
<glyph unicode="&#xe009;" horiz-adv-x="1525" d="M1143 522q53 0 100 -20.5t83 -56t56.5 -83t20.5 -102.5q0 -53 -20.5 -100t-56.5 -83t-83 -56.5t-100 -20.5q-55 0 -102.5 20.5t-83 56.5t-56 83t-20.5 100q0 55 20.5 102.5t56 83t83 56t102.5 20.5zM1143 98q66 0 111.5 48.5t45.5 113.5q0 33 -12 62.5t-33.5 51t-50 34 t-61.5 12.5q-70 0 -116 -47t-46 -113t46 -114t116 -48zM930 1020q41 0 70.5 -31t29.5 -74q0 -41 -29.5 -70.5t-70.5 -29.5t-73 29.5t-32 70.5q0 43 32 74t73 31zM383 522q55 0 102 -20.5t83 -56t56.5 -83t20.5 -102.5q0 -53 -20.5 -100t-56.5 -83t-83 -56.5t-102 -20.5 q-53 0 -100 20.5t-83 56.5t-56.5 83t-20.5 100q0 55 20.5 102.5t56.5 83t83 56t100 20.5zM383 98q33 0 62.5 13.5t51 36t34 51t12.5 61.5q0 66 -47 113t-113 47q-33 0 -61.5 -12.5t-50 -34t-34 -51t-12.5 -62.5q0 -66 46 -114t112 -48zM760 709l-70 -72l117 -121 q4 -4 12 -20q4 -8 4 -17v-6v-270q0 -25 -17.5 -43.5t-45.5 -18.5q-25 0 -42.5 18.5t-17.5 43.5v241l-147 148q-18 18 -18 45q0 25 18 43l162 166h2q16 16 43 16q29 0 47 -16l145 -148h103q29 0 47 -18t18 -45q0 -25 -18.5 -43.5t-46.5 -18.5h-131h-4q-4 0 -9.5 2.5t-9.5 4.5 l-10 5t-10 7z" />
<glyph unicode="&#xe010;" horiz-adv-x="1409" d="M684 623v43h43v-43h-22h-21zM705 616q102 0 191 -30.5t155.5 -82.5t105.5 -123t39 -151q0 -12 -10 -12h-961q-12 0 -12 12q0 80 39 151t105.5 123t156 82.5t191.5 30.5zM727 152h459q14 0 14 -15v-28q0 -4 7 -9.5t18 -11.5q20 -10 40.5 -26.5t20.5 -47.5q0 -14 -12 -14 h-1137q-14 0 -14 14q0 31 21.5 47.5t41.5 26.5q8 6 16.5 11t8.5 10v28q0 14 14 15h459h43zM707 774h25.5t46 -3t44 -9t19.5 -17q0 -10 -16.5 -12t-38 -5t-39 -8t-17.5 -22h-24h-2h-27q0 16 -17.5 21.5t-38 8.5t-37 5t-16.5 12t19.5 16.5t44 9.5t46 3h26.5h2zM754 682 q0 -12 -11 -12h-75q-10 0 -11 12q0 8 11 8h75q11 0 11 -8z" />
<glyph unicode="&#xe011;" horiz-adv-x="1431" d="M336 754q-47 10 -88 35.5t-70 66.5q-31 41 -43 87t-8 93q47 -10 88 -35.5t70 -66.5q31 -41 43 -87t8 -93zM311 948q-10 14 -19 24.5t-20 20.5q4 43 21.5 81t44.5 69q55 -61 65 -150q-10 -8 -19 -19t-19 -26q-8 -10 -14.5 -21.5t-14.5 -21.5q-4 10 -10.5 21.5t-14.5 21.5z M547 1036q2 -47 -10.5 -93t-42.5 -87q-51 -72 -127 -96q4 55 -15 108l16.5 33t18.5 33q29 41 71 66.5t89 35.5zM879 977q45 0 74.5 -31t29.5 -76q0 -43 -29.5 -75.5t-74.5 -32.5t-77 32.5t-32 75.5q0 45 32 76t77 31zM1155 528q4 -10 3 -24.5t-19 -22.5l-129 -86 q-12 -10 -28.5 -8t-27.5 19q-8 16 -4 30.5t17 24.5l59 41l41 28l-29 80h-39l23 -67l-74 -51q-29 -14 -35 -50q-6 -31 13 -57q10 -14 16 -16h-106q8 4 14 16q18 27 12 57q-4 16 -12 29.5t-23 20.5l-77 51l26 67h-43l-28 -80l40 -28l62 -41q14 -10 18 -24.5t-6 -30.5 t-26.5 -18.5t-28.5 7.5l-131 86q-18 8 -19.5 22.5t2.5 24.5l54 156q10 23 29.5 37t62.5 14h250q43 0 62.5 -14t25.5 -37zM1110 291q0 41 29.5 69.5t70.5 28.5t70 -28.5t29 -69.5q0 -39 -29 -68.5t-70 -29.5t-70.5 29.5t-29.5 68.5zM1024 94q27 0 46.5 10.5t35.5 21.5 t29.5 21.5t27.5 10.5h107q12 0 19 -5.5t11 -9.5q4 -6 7 -12v-90q0 -12 -4 -21q-8 -20 -37 -20h-1100q-29 0 -37 20q-4 8 -4 21v31q0 10 7 16t18 6h874zM999 315q41 0 68 -26.5t27 -63.5q0 -41 -27 -67.5t-68 -26.5h-333q-16 0 -27.5 11.5t-11.5 29.5q0 16 12 27.5t27 11.5 h174l139 31l-4 34l-139 -26h-170q-31 0 -53.5 -23.5t-22.5 -54.5q0 -25 14 -41h-424q-23 0 -39 15.5t-16 39.5q0 18 13.5 32.5t29.5 21.5h10h2l146 20l10 2l119 21h10l88 12l10 2l129 18h307z" />
<glyph unicode="&#xe012;" horiz-adv-x="897" d="M485 446v-167q33 0 54.5 25.5t21.5 55.5q0 41 -20.5 58.5t-55.5 27.5zM340 735q0 -29 21.5 -45t50.5 -24v149q-31 -6 -51.5 -25.5t-20.5 -54.5zM485 92v-55q0 -37 -39 -37q-23 0 -28.5 10t-5.5 27v55q-31 2 -80 7t-95.5 20.5t-80 42t-33.5 69.5q0 37 25.5 69t66.5 32 q16 0 36.5 -8.5t45.5 -18.5t52.5 -18t62.5 -8v188q-162 45 -223.5 102.5t-61.5 141.5q0 61 22.5 111t61.5 86t91 57.5t110 25.5v58q0 33 34 32q25 0 32 -8t7 -24v-58q31 -2 70 -7t74 -19.5t58.5 -39t23.5 -63.5q0 -35 -22.5 -62.5t-61.5 -27.5q-35 0 -68 21.5t-74 21.5v-168 q55 -14 107.5 -34.5t92.5 -52.5t64.5 -77t24.5 -106q0 -72 -27.5 -124t-69.5 -87t-93.5 -53.5t-98.5 -20.5z" />
<glyph unicode="&#xe013;" horiz-adv-x="1327" d="M1026 418h-72v96h72v-96zM889 418l-98 96h145v-96h-47zM598 514l98 -96h-377v96h279zM1047 924q78 -78 117.5 -175.5t39.5 -207.5q0 -109 -40 -206t-117 -175q-78 -78 -175.5 -119t-207.5 -41q-109 0 -206.5 41t-174.5 119q-78 78 -119 175t-41 206q0 111 41 208t119 175 t175 117.5t206 39.5q111 0 208 -39.5t175 -117.5zM1085 541q0 88 -32.5 164.5t-90 134t-134 90.5t-164.5 33q-68 0 -131.5 -21.5t-114.5 -60.5l586 -586q39 51 60 114.5t21 131.5zM244 541q0 -86 32.5 -163t90 -134.5t134.5 -90t163 -32.5q72 0 135 22.5t114 61.5l-585 586 q-39 -51 -61.5 -114.5t-22.5 -135.5zM975 549q-2 29 -25 43q-10 10 -21 15t-22 16q-29 27 -26 63q2 23 14 42.5t27 37.5q4 6 10 11t6 -7q0 -33 16 -57q8 -10 19.5 -15.5t21.5 -11.5l4 -4q14 -14 19 -39q4 -20 -2 -40.5t-15 -37.5q-4 -6 -7 -14t-11 -10t-8 8z" />
<glyph unicode="&#xe014;" horiz-adv-x="1122" d="M541 602q88 0 133 48t45 108q0 78 -49 116.5t-129 38.5h-146v-311h146zM592 1143q78 0 151.5 -23.5t130 -72t91 -121t34.5 -168.5q0 -82 -25.5 -152.5t-76.5 -122t-125 -80t-170 -28.5h-207v-238q0 -70 -39 -103.5t-98 -33.5t-97 34t-38 103v879q0 61 41 94t94 33h334z " />
<glyph unicode="&#xe015;" horiz-adv-x="1343" d="M823 922q-47 0 -79.5 31.5t-32.5 78.5q0 45 32.5 78t79.5 33q45 0 78 -33t33 -78q0 -47 -33 -78.5t-78 -31.5zM1001 700q76 -6 76 -82q0 -41 -24.5 -65.5t-65.5 -24.5l-164 2q-37 0 -59 21l-29 -70l51 -155q4 -12 5 -25v-10v-199q0 -39 -26 -65.5t-65 -26.5t-65.5 26.5 t-26.5 65.5v193l-26 84l-39 -64q-10 -29 -40 -47t-65 -10l-243 41q-35 8 -56.5 38.5t-13.5 67.5q4 39 36 60.5t66 15.5l35 -6q8 0 12 -2l127 -23l70 131l68 158h-31l-109 -100q-27 -23 -63 -23q-39 0 -66 31q-27 27 -25.5 64.5t29.5 62.5l154 139l2 -4q8 8 19.5 10t23.5 2 l197 -2q10 -2 16 -2t14 -4l91 -37q20 -6 37.5 -20.5t23.5 -36.5l35 -107h98h4zM1221 106q0 -43 -32 -74.5t-75 -31.5q-45 0 -76.5 31.5t-31.5 74.5q0 45 31.5 77t76.5 32q43 0 75 -32t32 -77z" />
<glyph unicode="&#xe016;" horiz-adv-x="1347" d="M459 446l116 -120l-305 -295q-31 -31 -65 -31q-53 0 -74 53q-12 25 -5 53.5t30 51.5q29 29 79 76t97 92t83 78l36 34zM1194 158q45 -45 25 -92q-23 -55 -82 -56q-12 0 -31 6.5t-39 26.5l-74 74l-88 88t-73 75l-31 31l-31 35l-117 8l-2 2l-389 402q-47 59 -61.5 108 t-3.5 90q8 27 25.5 45.5t33.5 29.5t29.5 16.5t15.5 5.5l6 2l613 -623zM725 739q-29 27 -31 62q-6 33 17 57l211 209q14 14 33.5 14t33.5 -14q10 -14 10 -32.5t-10 -33.5l-188 -188l37 -35l180 178q12 14 32.5 14.5t32.5 -14.5q14 -14 14.5 -33.5t-14.5 -33.5l-180 -178 l37 -33l188 186q14 12 33 12.5t33 -12.5q14 -14 14 -33q0 -18 -14 -32l-217 -219q-18 -14 -39 -15q-18 0 -37.5 9.5t-36.5 25.5z" />
<glyph unicode="&#xe017;" horiz-adv-x="1165" d="M1042 59q0 -25 -18 -41q-14 -18 -39 -18h-805q-20 0 -43 18q-14 16 -14 41l47 799h102h27v4q0 59 22.5 110.5t60.5 89.5t89 59.5t111 21.5q57 0 107 -20.5t88 -57.5t60.5 -86t24.5 -107v-12h21h110l4 -57zM420 858l328 2v2q0 70 -49.5 117t-116.5 49q-66 -2 -113 -48 t-49 -116v-2v-4zM823 207q10 6 11 22l-25 414l-4 33h-62h-59h-223h-60l-57 -4l-25 -443q0 -6 2.5 -12t8.5 -10q4 -10 22 -10h449q14 0 22 10z" />
<glyph unicode="&#xe018;" horiz-adv-x="1366" d="M211 88q-35 -12 -61.5 10.5t-26.5 57.5q0 23 13.5 40t33.5 25l4 2q63 18 122.5 7t106.5 -50t74 -30q8 2 17.5 8t19.5 16l6 4q4 4 17 12q53 47 139 48h10q47 -2 81 -22.5t60 -41.5q16 -12 29.5 -22.5t28.5 -12.5q10 0 22.5 9.5t28.5 19.5l4 6q33 25 75 45.5t101 13.5 q14 0 36 -3t44 -11h4q18 -10 30.5 -26.5t12.5 -38.5q0 -31 -19.5 -50.5t-47.5 -19.5q-16 0 -21 2q-16 4 -30.5 6t-18.5 2h-8q-16 0 -31.5 -5t-40.5 -26l-2 -2q-27 -20 -59.5 -40.5t-75.5 -20.5h-19h-6q-41 8 -69.5 26.5t-51.5 36.5q-16 14 -31.5 23.5t-29.5 9.5h-8 q-35 0 -58 -14q-4 -4 -7 -8t-7 -8q-16 -14 -38.5 -30t-53.5 -24q-57 -14 -91 1.5t-77 52.5q-18 16 -59 24t-70 -2h-2zM981 897q63 0 107.5 -46t44.5 -112t-44.5 -111.5t-107.5 -45.5q-66 0 -110 46t-44 111q0 66 44 112t110 46zM289 498q-23 -16 -53.5 -14.5t-51.5 24.5 q-23 23 -19.5 56.5t25.5 56.5q10 10 21 12l278 190q18 12 46 10t45 -18l424 -369q20 -14 20 -40q0 -29 -20 -46l-64 -59q-25 -20 -55 -20q-27 0 -37 10l-16 7q-17 7 -44.5 16.5t-62.5 16.5t-74 7q-90 0 -155 -47q-6 -6 -15.5 -6t-15.5 6l-92 67q-23 16 -23 43t23 43l178 138 q-2 0 6 4q0 2 -6 8l-37 35q-14 14 -27 2l-168 -111q-10 -10 -18 -14t-12 -8z" />
<glyph unicode="&#xe019;" horiz-adv-x="1155" d="M911 1081q49 0 85 -30.5t36 -77.5v-731q0 -25 -12 -45.5t-33 -36.5q0 -20 -1 -35.5t-1 -26.5v-6q0 -39 -27.5 -65.5t-68.5 -26.5t-68.5 26.5t-27.5 65.5v6q0 6 -1 16.5t-1 22.5h-424q0 -12 -1 -22.5t-1 -16.5v-6q0 -39 -28 -65.5t-67 -26.5q-41 0 -68.5 26.5t-27.5 65.5 v6q0 10 -2 24.5t0 33.5q-23 16 -36 37.5t-13 48.5v731q0 47 35 77.5t84 30.5h669zM227 508q0 -23 16.5 -38t41.5 -15h583q25 0 42.5 15t17.5 38v412q0 23 -17.5 38t-42.5 15h-583q-25 0 -41.5 -15.5t-16.5 -37.5v-412zM309 211q37 0 63.5 27.5t26.5 64.5t-26.5 63.5 t-63.5 26.5q-41 0 -66.5 -26.5t-25.5 -63.5t25.5 -64.5t66.5 -27.5zM842 211q37 0 64.5 27.5t27.5 64.5t-27.5 63.5t-64.5 26.5q-39 0 -65.5 -26.5t-26.5 -63.5t26.5 -64.5t65.5 -27.5z" />
<glyph unicode="&#xe020;" horiz-adv-x="1236" d="M614 340q72 0 121 -49t49 -121t-49 -121t-121 -49t-120 49t-48 121t48 121t120 49zM930 459q23 -23 22.5 -54.5t-22.5 -56.5q-20 -20 -56 -20q-33 0 -55 20q0 2 -1 2t-1 2q-39 47 -91 72t-112 25q-57 0 -109 -24t-89 -67q-6 -6 -10 -8q-55 -35 -101 6q-25 25 -24 56 q0 33 24 55l2 2q59 66 139 101.5t168 35.5q92 0 174.5 -37.5t141.5 -109.5zM1096 668q18 -23 17 -53.5t-23 -53.5q-27 -23 -58 -22q-33 0 -53 20l-2 4q-70 84 -165 129t-200 45q-100 0 -191 -41t-157 -116l-6 -9q-27 -20 -55 -20q-37 0 -56 22q-25 25 -24 58q0 33 20 53l7 4 q90 100 210.5 154.5t251.5 54.5q137 0 261 -58.5t214 -162.5z" />
<glyph unicode="&#xe021;" horiz-adv-x="1394" d="M444 158l95 55l20 -35l-94 -55zM573 233l222 127l18 -32l-219 -129zM944 1016q10 6 21.5 3t17.5 -15l285 -494q12 -27 -11 -41l-802 -465q-10 -4 -22.5 -1t-16.5 13l-289 496q-4 10 -1 22.5t13 16.5zM195 514l61 -104l752 434l-62 104zM1202 506l-117 199l-751 -433 l119 -200z" />
<glyph unicode="&#xe022;" horiz-adv-x="1335" d="M401 825q-45 0 -85 17.5t-70.5 47.5t-48 69.5t-17.5 87.5q0 45 17.5 84.5t48 69.5t70.5 47.5t85 17.5t85 -17.5t70 -47.5t47.5 -69.5t17.5 -84.5q0 -47 -17.5 -87t-47.5 -70t-70 -47.5t-85 -17.5zM1174 342q16 0 27 -11.5t11 -27.5v-262q0 -16 -11 -28.5t-27 -12.5h-336 h-160h-514q-16 0 -27.5 12.5t-11.5 28.5v262q0 16 11 27.5t28 11.5h389h408h213zM518 608v47q0 14 -10 21.5t-27 3.5l-78 -25l-86 29q-14 6 -23 0t-9 -22v-46q0 -16 9 -23t23 -1l78 22l86 -30q16 -6 26.5 2t10.5 22zM934 539q8 -33 -9.5 -60.5t-45.5 -36.5l-277 -43 q-10 -2 -18.5 -2h-16.5h-14h-356q-47 2 -60.5 23.5t-13.5 68.5v170q0 57 23.5 77t76.5 20h357h6q51 -6 63 -43q2 -10 3 -22.5t1 -28.5v-101l187 33q31 8 58.5 -8t35.5 -47z" />
<glyph unicode="&#xe023;" horiz-adv-x="1280" d="M850 451q0 -68 21.5 -92.5t47 -38t49 -35t27.5 -82.5q0 -43 -27.5 -79t-75.5 -63.5t-112.5 -44t-138.5 -16.5t-138.5 16.5t-112.5 44t-75.5 63.5t-27.5 79q4 61 27.5 82.5t50 35t48 38t21.5 92.5q6 47 36 75.5t65.5 44t66.5 19.5t39 4t39 -4t66.5 -19.5t66.5 -44 t37 -75.5zM1112 696q39 -29 43 -76t-27 -88q-14 -20 -35.5 -36.5t-46 -23.5t-48 -6t-42.5 15q-18 14 -27 38t-10 49.5t7 52t22 47.5q31 39 79 48t85 -20zM334 657q14 -23 21 -48t6 -51t-10 -47.5t-29 -33.5q-18 -12 -43 -13t-49.5 7t-46 24.5t-36.5 36.5q-29 41 -21.5 88.5 t46.5 75.5q41 27 87 14.5t75 -53.5zM731 670q-25 12 -40 36.5t-20 54.5t-1 61.5t18 58.5q27 53 81 70.5t101 -7.5t63.5 -79t-11.5 -105q-14 -27 -37 -49.5t-48.5 -35.5t-53 -15t-52.5 10zM510 653q-27 -6 -53.5 4.5t-50 31t-39 47t-21.5 55.5q-12 57 17.5 105t82.5 58 q53 12 99.5 -21.5t56.5 -90.5q6 -29 3 -60.5t-15 -58.5t-32.5 -45.5t-47.5 -24.5z" />
<glyph unicode="&#xe024;" horiz-adv-x="1185" d="M1036 606q27 -27 27 -63q0 -35 -27 -66l-327 -325q-27 -29 -64 -29t-63 29q-27 25 -27 62.5t27 64.5l174 174h-543q-37 0 -63.5 27.5t-26.5 64.5t26.5 64.5t63.5 27.5h539l-170 168q-27 29 -27 64.5t27 64.5q27 27 63.5 27t63.5 -27l327 -328v0z" />
<glyph unicode="&#xe025;" horiz-adv-x="1546" d="M1333 907h-1124q-35 0 -60.5 24.5t-25.5 63.5q0 35 25.5 60.5t60.5 25.5h1124q39 0 64.5 -25.5t25.5 -60.5q0 -39 -25.5 -63.5t-64.5 -24.5zM209 778h1124q39 0 64.5 -25.5t25.5 -62.5q0 -35 -25.5 -59.5t-64.5 -24.5h-1124q-35 0 -60.5 24.5t-25.5 59.5q0 37 25.5 62.5 t60.5 25.5zM1333 305h-1124q-35 0 -60.5 25.5t-25.5 60.5q0 37 25.5 63.5t60.5 26.5h1124q39 0 64.5 -26.5t25.5 -63.5q0 -35 -25.5 -60.5t-64.5 -25.5zM1333 0h-1124q-35 0 -60.5 25.5t-25.5 64.5q0 35 25.5 59.5t60.5 24.5h1124q39 0 64.5 -24.5t25.5 -59.5 q0 -39 -25.5 -64.5t-64.5 -25.5z" />
<glyph unicode="&#xe026;" horiz-adv-x="1329" d="M1122 582h-334q-35 0 -59 24.5t-24 59.5v333q0 35 24.5 58.5t58.5 23.5h334q35 0 59.5 -23.5t24.5 -58.5v-333q0 -35 -24.5 -59.5t-59.5 -24.5zM541 582h-336q-35 0 -58.5 24.5t-23.5 59.5v333q0 35 23.5 58.5t58.5 23.5h336q35 0 59.5 -23.5t24.5 -58.5v-333 q0 -35 -24.5 -59.5t-59.5 -24.5zM541 0h-336q-35 0 -58.5 23.5t-23.5 58.5v336q0 35 23.5 58.5t58.5 23.5h336q35 0 59.5 -23.5t24.5 -58.5v-336q0 -35 -24.5 -58.5t-59.5 -23.5zM1122 0h-334q-35 0 -59 23.5t-24 58.5v336q0 35 24.5 58.5t58.5 23.5h334q35 0 59.5 -23.5 t24.5 -58.5v-336q0 -35 -24.5 -58.5t-59.5 -23.5z" />
<glyph unicode="&#xe027;" horiz-adv-x="1341" d="M1194 43q18 -20 23.5 -41.5t-15.5 -42.5l-65 -63q-20 -18 -47 -18.5t-43 18.5l-267 260q-47 -29 -101 -44.5t-114 -15.5q-90 0 -170 36t-140 96.5t-96 139t-36 167.5q0 88 33.5 164.5t92 134t136.5 91t168 33.5q88 0 168 -35.5t141.5 -95t97 -138.5t35.5 -167 q0 -59 -17 -116.5t-48 -104.5zM254 535q0 -59 25.5 -114.5t68.5 -97.5t99.5 -68t117.5 -26t114.5 22.5t93.5 62.5t63.5 93.5t23.5 114.5t-24.5 116.5t-67.5 97.5t-98.5 66.5t-116.5 24.5t-116.5 -22.5t-95.5 -62.5t-63.5 -93t-23.5 -114z" />
<glyph unicode="&#xe028;" horiz-adv-x="2426" d="M1210 1020q-80 0 -150.5 -24.5t-129 -67.5t-102.5 -102.5t-68 -129.5l-60 25q29 78 79 144.5t117 114.5t146.5 74.5t167.5 26.5q86 0 165 -26.5t144.5 -73.5t114.5 -113.5t76 -146.5l-24 -10l-27 -9q-25 70 -69 129.5t-102 100.5t-129 64.5t-149 23.5zM2304 444 q0 -6 -10 -13t-24.5 -10t-32 -1t-29.5 12q-23 16 -28 39t-5 51h-158q14 -35 45 -35t43 17l64 -15q-20 -57 -64.5 -69t-87.5 4q-29 12 -41 26.5t-30 38.5v-69h-72v141q-2 12 -11.5 17.5t-20.5 5.5t-19 -6.5t-8 -18.5v-145l-70 -2h-19h-32v45q0 6 -4 0t-10.5 -15.5 t-15.5 -18.5t-19 -9q-39 -2 -71 16.5t-44 52.5v-63h-90v63q-10 -33 -51 -51t-89 -8l-2 4v-43q0 -16 1 -33.5t1 -25.5h-79v213q0 35 17 62.5t45 42.5t59.5 13t62.5 -24q16 -10 23.5 -20.5t11.5 -28.5v161h90v-161q18 41 52 59.5t77 9.5q63 -18 86 -75q16 51 57 69.5t88 1.5 q27 -12 38 -27.5t22 -43.5q23 51 66.5 69.5t90.5 -2.5q23 -10 42.5 -24.5t25.5 -42.5v118h72v-43h57v-63h-51q0 -23 -2 -40.5t4 -35.5q4 -8 17.5 -13t23.5 5l6 6zM1341 489q23 0 37.5 14.5t14.5 35.5q0 16 -14.5 33.5t-37.5 17.5q-20 0 -34.5 -17.5t-14.5 -33.5 q0 -20 14.5 -35t34.5 -15zM1632 489q23 0 38.5 14.5t15.5 35.5q0 16 -15.5 33.5t-38.5 17.5q-18 0 -33.5 -17.5t-15.5 -33.5q0 -20 15.5 -35t33.5 -15zM2114 551q-6 18 -20.5 27.5t-30 9.5t-29 -9.5t-17.5 -27.5h97zM838 489q0 -6 -7.5 -19t-21.5 -25.5t-39 -20.5t-57 -4 q-29 6 -53.5 23.5t-30.5 45.5v-69h-82v139q0 12 -7.5 17.5t-16.5 5.5t-16 -5.5t-7 -17.5v-139h-76v78q-25 -37 -49.5 -55.5t-63.5 -22.5q-41 0 -66.5 17.5t-47.5 51.5v-69h-74v325h74v-161q14 27 31.5 43t45.5 26q47 12 86 -9t62 -66q8 41 35.5 58t66.5 17q82 0 103 -75 q25 63 90 75q94 16 135 -75v167h76v-92h78v-139q0 -23 17 -22.5t17 22.5v139h86v-252q0 -23 -9 -39t-21 -30q-20 -16 -38 -23.5t-42 -7.5q-57 -2 -96 31l47 61q14 -16 37.5 -15t35.5 23q0 8 2 16.5t2 18.5q-14 -16 -32.5 -20t-36 0t-30.5 17t-17 32v-45h-76v102h-162 q8 -29 33 -35t49 11zM305 489q23 0 36 14.5t13 35.5q0 23 -13 37t-36 14q-18 0 -34.5 -14.5t-16.5 -36.5q0 -20 16.5 -35t34.5 -15zM786 551q-6 18 -21 27.5t-30.5 9.5t-30 -9.5t-20.5 -27.5h102zM1210 61q78 0 149 24t129 64.5t102 99t69 128.5l51 -19q-27 -80 -76 -145.5 t-114.5 -112.5t-144.5 -73.5t-165 -26.5q-88 0 -167.5 26.5t-146.5 73.5t-117 113t-79 145l31 9l29 10q49 -141 169.5 -228.5t280.5 -87.5zM2206 354v39h-23v2h51v-2h-20v-39h-8zM2238 354v41h15l10 -28l6 -5l2 5l17 28h14v-41h-8v33l-23 -33h-8l-16 33v-33h-9z" />
<glyph unicode="&#xe029;" horiz-adv-x="1005" d="M123 844l237 237l283 -299l240 -243l-240 -252v0l-283 -289l-237 238l283 303l-283 305v0z" />
<glyph unicode="&#xe02a;" horiz-adv-x="1067" d="M985 631q0 -47 -19.5 -99.5t-52 -105.5t-72.5 -105.5t-83 -99.5q-98 -113 -226 -221q-127 109 -225 221q-43 47 -83 99.5t-71.5 105.5t-51 105.5t-19.5 99.5q0 92 36 174t97 143.5t143 97t174 35.5q94 0 176.5 -35.5t143.5 -97t97 -143.5t36 -174zM537 694 q-23 0 -39.5 -15t-16.5 -38t16.5 -38t39.5 -15t38 15t15 38t-15 38t-38 15zM537 858q-70 0 -128.5 -33.5t-103.5 -74.5q-53 -49 -96 -109q43 -61 96 -111q45 -41 103.5 -74.5t128.5 -33.5q68 0 127 33.5t104 74.5q53 49 96 111q-43 59 -96 109q-45 41 -104 74.5t-127 33.5z M537 504q-57 0 -98.5 40t-41.5 97t41 96t99 39q57 0 96 -39t39 -96t-39 -97t-96 -40z" />
<glyph unicode="&#xe02b;" horiz-adv-x="1067" d="M985 629q0 -47 -19.5 -98.5t-51 -104.5t-71.5 -105.5t-83 -99.5q-98 -113 -225 -221q-129 109 -228 221q-43 47 -83 99.5t-71.5 105.5t-51 104.5t-19.5 98.5q0 94 36 176t97 143.5t143 97t177 35.5q92 0 174 -35.5t143 -97t97 -143.5t36 -176zM649 834q29 0 47.5 17 t18.5 46t-18.5 46.5t-47.5 17.5q-25 0 -43 -17.5t-18 -46.5t18 -46t43 -17zM756 705l-8 4h-5h-57l-18 59q-6 27 -35 33l-53 20q-4 4 -15 4l-114 2q-16 0 -25 -6h-2l-88 -80q-16 -16 -18.5 -36.5t14.5 -36.5q16 -16 41 -17q23 0 35 15l61 55h16l-34 -92l-41 -76l-74 14h-8 l-19 6q-23 4 -40 -9t-21 -34q-4 -23 8 -40t35 -21l141 -25q18 -4 35.5 6.5t24.5 28.5l20 35l16 -47v-113q0 -23 15.5 -38t36.5 -15q23 0 38 15.5t15 37.5v117v6q0 4 -1 7t-1 8l-29 86l16 40q10 -14 31 -14h99q23 0 37 14.5t14 38.5q0 44 -43 48z" />
<glyph unicode="&#xe02c;" horiz-adv-x="1067" d="M985 631q0 -47 -19.5 -99.5t-52 -105.5t-72.5 -105.5t-83 -99.5q-98 -113 -226 -221q-127 109 -225 221q-43 47 -83 99.5t-71.5 105.5t-51 105.5t-19.5 99.5q0 92 36 174t97 143.5t143 97t174 35.5q94 0 176.5 -35.5t143.5 -97t97 -143.5t36 -174zM844 707q6 4 5 8t-9 6 l-185 29q-8 0 -17 6t-13 14l-84 166q-8 20 -17 0l-82 -166q-4 -8 -13 -14t-17 -6l-185 -29q-8 -2 -9 -6t5 -8l131 -132q6 -6 10.5 -16t2.5 -18l-31 -185q-2 -8 3 -11t11 1l164 86q18 10 39 0l162 -86q8 -4 13 -1t3 11l-33 185q0 20 15 34zM668 645l-56 -55q-4 -4 -5 -8 t-1 -9l15 -81q0 -8 -7 -3l-73 37h-17l-71 -37q-6 -6 -7 3l15 81q0 4 -2 8.5t-4 8.5l-58 55q-4 4 0 8l82 13q8 0 15 10l34 74q2 2 5.5 2t3.5 -2l36 -74q6 -10 15 -10l78 -13q10 -4 2 -8z" />
<glyph unicode="&#xe02d;" horiz-adv-x="1067" d="M985 629q0 -47 -19.5 -98.5t-51 -104.5t-71.5 -105.5t-83 -99.5q-98 -113 -225 -221q-129 109 -228 221q-43 47 -83 99.5t-71.5 105.5t-51 104.5t-19.5 98.5q0 94 36 176t97 143.5t143 97t177 35.5q92 0 174 -35.5t143 -97t97 -143.5t36 -176zM805 580q-12 8 -23 8h-442 v219q0 23 -12.5 37t-32.5 14q-18 0 -30.5 -14.5t-12.5 -36.5v-334q0 -20 12 -34.5t31 -14.5q20 0 32.5 14.5t12.5 34.5v33h383v-33q0 -18 13.5 -31.5t33.5 -13.5q18 0 30.5 13.5t12.5 31.5v74v13.5t-8 19.5zM385 662q0 -14 10.5 -24.5t24.5 -10.5h133h248q18 33 14 60.5 t-17.5 48t-31.5 31.5t-29 11h-147q-4 10 -13.5 18.5t-21.5 8.5q-16 0 -26.5 -10.5t-10.5 -26.5v-68h-98q-14 0 -24.5 -10t-10.5 -28zM436 719q25 0 41.5 17.5t16.5 41.5q0 25 -16.5 43.5t-41.5 18.5t-42 -18.5t-17 -43.5t17 -42t42 -17z" />
<glyph unicode="&#xe02e;" horiz-adv-x="1067" d="M985 631q0 -47 -19.5 -99.5t-52 -105.5t-72.5 -105.5t-83 -99.5q-98 -113 -226 -221q-127 109 -225 221q-43 47 -83 99.5t-71.5 105.5t-51 105.5t-19.5 99.5q0 92 36 174t97 143.5t143 97t174 35.5q94 0 176.5 -35.5t143.5 -97t97 -143.5t36 -174zM645 377q-10 2 -27.5 8 t-27.5 12q-8 6 -13.5 30t-7.5 40q-4 6 -4 8v6v6q0 4 -2 5q0 4 -6 4h-8q-6 -4 -13.5 -4h-13.5h-12l-6 4h-2l-4 -4q-2 0 -2 -5q0 -4 -1 -10t-1 -14q-4 -16 -9.5 -39t-13.5 -33q-6 -4 -14 -6t-17 -4q-8 -2 -18 -4q-12 0 -20.5 -9.5t-8.5 -21.5v-2q0 -10 8.5 -19.5t20.5 -9.5 h219q12 0 20.5 9.5t8.5 19.5v2q0 12 -7.5 19.5t-17.5 11.5zM676 944h-283q-43 -45 -65.5 -112.5t-11 -132t61.5 -110.5t154 -46t153.5 43t60 104.5t-11 131t-58.5 122.5zM391 813q4 16 12.5 34.5t18.5 37.5l4 4h213l2 -4q10 -18 18.5 -37t14.5 -35h-283z" />
<glyph unicode="&#xe02f;" horiz-adv-x="1067" d="M985 631q0 -47 -19.5 -99.5t-52 -105.5t-72.5 -105.5t-83 -99.5q-98 -113 -226 -221q-127 109 -225 221q-43 47 -83 99.5t-71.5 105.5t-51 105.5t-19.5 99.5q0 92 36 174t97 143.5t143 97t174 35.5q94 0 176.5 -35.5t143.5 -97t97 -143.5t36 -174zM420 602l-18 -18 q-19 -17 -43.5 -40.5t-51 -49t-41.5 -39.5q-27 -27 -14 -56q12 -29 41 -28q20 0 33 16l161 156l-61 63zM809 455l-143 143l-322 328l-2 -4q-12 -2 -23 -11q-10 -6 -19 -15t-13 -24q-12 -43 37 -104l202 -209l2 -2l60 -6l16 -16q29 -31 53 -56q23 -23 45.5 -45t38.5 -39 q10 -12 21.5 -15t17.5 -3q29 0 43 29q4 12 1 24.5t-15 24.5zM563 760l74 -74q14 -18 37 -18q14 0 22 8v-2l113 117q4 2 6 6t2 8q0 12 -8 20q-6 6 -16.5 6t-18.5 -6l-98 -100l-19 18l95 95q16 16 0 34q-18 16 -35 0l-94 -94l-19 21l96 96q20 16 0 35q-6 6 -16 6t-18 -6 l-111 -111q-10 -14 -8 -28q2 -17 16 -31z" />
<glyph unicode="&#xe030;" horiz-adv-x="1327" d="M967 758l237 -238l-295 -282l-243 -238l-254 238v0l-289 282l237 238l306 -281l301 281v0z" />
<glyph unicode="&#xe031;" horiz-adv-x="1003" d="M598 541l283 -303l-240 -238l-281 291v0l-237 250l237 243l281 297l240 -237z" />
<glyph unicode="&#xe033;" horiz-adv-x="1476" d="M1128 0h-780q-47 0 -88 17.5t-71.5 47t-48 70.5t-17.5 88v602q0 45 17.5 85t47 71t69.5 49.5t87 20.5v-119q0 -49 35 -84t82 -35q51 0 87 35t36 84v119h290v-119q0 -49 35 -84t84 -35t85 35t36 84v119h14q47 0 86 -18.5t68 -45.5l10 -10q61 -66 62 -152v-602 q0 -47 -17.5 -88t-48.5 -70.5t-72 -47t-88 -17.5zM457 719h-213v-176h213v176zM457 502h-213v-172h213v172zM457 291h-213v-68q0 -45 28.5 -75.5t75.5 -30.5h109v174zM715 719h-215v-176h215v176zM715 502h-215v-172h215v172zM715 291h-215v-174h215v174zM973 719h-215v-176 h215v176zM973 502h-215v-172h215v172zM973 291h-215v-174h215v174zM1233 719h-215v-176h215v176zM1233 502h-215v-172h215v172zM1233 291h-215v-174h110q45 0 75 30.5t30 75.5v68zM993 854q-33 0 -55.5 24.5t-22.5 53.5v119v100q0 35 23 57.5t55 22.5q33 0 55.5 -22.5 t22.5 -57.5v-100v-119q0 -29 -22.5 -53.5t-55.5 -24.5zM461 854q-31 0 -53.5 24.5t-22.5 53.5v119v100q0 35 22.5 57.5t53.5 22.5q33 0 56.5 -22.5t23.5 -57.5v-100v-119q0 -29 -23.5 -53.5t-56.5 -24.5z" />
<glyph unicode="&#xe034;" horiz-adv-x="1652" d="M123 1204v0h1407l-615 -825v-510l-176 -238v744zM827 502v0l320 432h-641z" />
<glyph unicode="&#xe035;" horiz-adv-x="1067" d="M985 631q0 -47 -19.5 -99.5t-52 -105.5t-72.5 -105.5t-83 -99.5q-98 -113 -226 -221q-127 109 -225 221q-43 47 -83 99.5t-71.5 105.5t-51 105.5t-19.5 99.5q0 92 36 174t97 143.5t143 97t174 35.5q94 0 176.5 -35.5t143.5 -97t97 -143.5t36 -174zM741 766l-2 29h-53h-10 v4h2l-2 2q0 57 -41 96t-98 39q-59 0 -100.5 -40t-41.5 -97h2v-4h-16h-51l-21 -396q0 -14 8 -22t19 -8h401q6 0 10.5 2t8.5 6q8 8 8 22zM455 799q0 35 23.5 57.5t58.5 22.5t58 -24t23 -56v-4h-163v4zM655 471q-2 -2 -10 -2h-225q-8 0 -12 2q-4 8 -5 14l13 220h30h29h111h30 h31v-17l15 -203q-1 -8 -7 -14z" />
<glyph unicode="&#xe036;" horiz-adv-x="1067" d="M985 631q0 -47 -19.5 -99.5t-52 -105.5t-72.5 -105.5t-83 -99.5q-98 -113 -226 -221q-127 109 -225 221q-43 47 -83 99.5t-71.5 105.5t-51 105.5t-19.5 99.5q0 92 36 174t97 143.5t143 97t174 35.5q94 0 176.5 -35.5t143.5 -97t97 -143.5t36 -174zM393 850l-39 -66v-6h6 l74 15l37 -66l2 -2q6 0 6 4l25 72l74 -2q4 0 4 4v6l-52 53l39 66q2 2 0 6q0 2 -6 2l-74 -16l-34 65q-2 2 -4 2q-4 -2 -5 -2h-2l-22 -72h-76q-2 0 -2 -1t-2 -1q0 -6 2 -6zM573 768v-6l50 -51l-35 -62v-6h6l68 14l34 -59q2 0 2 -2t2 -2q6 0 7 6l18 66h72l4 2v6l-49 51l36 61v7 h-4q-2 0 -2 2l-67 -17l-35 60l-4 4h-2l-2 -2q0 -2 -2 -2l-23 -68h-67q-2 0 -2 -1t-3 -1h-2zM469 551l76 80q2 0 2 4q-2 4 -6 4l-111 2l-29 109l-4 2q-4 0 -4 -2l-59 -95l-107 27h-4q-6 -6 0 -6l51 -96l-79 -80v-4q0 -6 6 -7l110 -2l31 -106q0 -2 2 -4h4q2 0 2 2l60 94 l104 -27q6 0 6 3v6zM807 616l-2 2l-47 7q-2 0 -2 -1t-2 -1h-2l-13 -33v-4v-2q45 -59 51.5 -115.5t2.5 -81.5q-25 49 -61 85t-70.5 59.5t-60.5 36t-28 12.5q0 4 -4 0l-41 -39v-2v-4l19 -39l2 -4q59 -4 104 -23.5t75 -42.5t46 -40l17 -17v-4h2h4q2 0 2 4q20 41 25 84t1 78.5 t-11 59t-7 25.5z" />
<glyph unicode="&#xe037;" horiz-adv-x="1067" d="M535 1081q92 0 174 -35.5t143 -97t97 -143.5t36 -176q0 -47 -19.5 -98.5t-51 -104.5t-71.5 -105.5t-83 -99.5q-98 -113 -225 -221q-129 109 -228 221q-43 47 -83 99.5t-71.5 105.5t-51 104.5t-19.5 98.5q0 94 36 176t97 143.5t143.5 97t176.5 35.5zM684 729q29 0 42 17.5 t13 37.5t-15 37t-40 17h-301q-27 0 -41 -16.5t-14 -37.5q0 -20 13 -37.5t42 -17.5h94v-303q0 -31 17.5 -47.5t42.5 -16.5q59 0 59 64v303h88z" />
<glyph unicode="&#xe038;" horiz-adv-x="1327" d="M1204 831l-286 -292l280 -289l-240 -250l-282 291l-12 14l-13 -14l-282 -291l-240 250l281 289l-287 292l242 250l286 -297l13 -14l12 14l287 297l241 -250v0z" />
<glyph unicode="&#xe039;" horiz-adv-x="1687" d="M1286 1081v0l279 -272l-842 -809l-274 272l-326 314l278 268l322 -315l563 542v0z" />
<glyph unicode="&#xe03a;" horiz-adv-x="1327" d="M541 584h-334q-35 0 -59.5 24.5t-24.5 59.5v329q0 35 24.5 59.5t59.5 24.5h334q35 0 59.5 -24.5t24.5 -59.5v-329q0 -35 -24.5 -59.5t-59.5 -24.5zM541 0h-334q-35 0 -59.5 24.5t-24.5 59.5v334q0 35 24.5 59.5t59.5 24.5h334q35 0 59.5 -24.5t24.5 -59.5v-334 q0 -35 -24.5 -59.5t-59.5 -24.5zM1120 911h-336q-35 0 -59.5 25t-24.5 59q0 35 25 59.5t59 24.5h336q35 0 59.5 -24.5t24.5 -59.5t-24.5 -59.5t-59.5 -24.5zM784 786h336q35 0 59.5 -24.5t24.5 -59.5t-24.5 -59.5t-59.5 -24.5h-336q-35 0 -59.5 25t-24.5 59q0 35 24.5 59.5 t59.5 24.5zM1120 330h-336q-35 0 -59.5 24.5t-24.5 59.5t25 59.5t59 24.5h336q35 0 59.5 -24.5t24.5 -59.5t-24.5 -59.5t-59.5 -24.5zM1120 39h-336q-35 0 -59.5 24.5t-24.5 59.5t25 59.5t59 24.5h336q35 0 59.5 -24.5t24.5 -59.5t-24.5 -59.5t-59.5 -24.5z" />
<glyph unicode="&#xe03b;" horiz-adv-x="970" d="M846 735q2 -10 0 -24q-8 -16 -17 -19q-14 0 -20 8q-2 6 3 5.5t7 3.5q4 0 2 4t-2 10t2 8t-2 6q0 10 -4 19q-2 2 -2 4t-4 6q-2 0 -6 4q2 -10 3 -19.5t1 -19.5q2 -27 0 -47q0 -10 -1 -19.5t-3 -19.5q-8 -37 -25.5 -69.5t-40.5 -63.5q-14 -18 -33.5 -34.5t-37.5 -33.5 q-6 -2 -11.5 -5t-11.5 -7q-23 -12 -46.5 -18t-45.5 -11v-10l2 -31q0 -2 -2 -4q-6 -6 -8 -10q-8 -8 -15.5 -7t-11.5 5q-4 0 -6 6l-4 8l-2 29q0 10 -4 12h-13q0 -4 1 -12t1 -14v-17l-6 -6l-12 -12q-12 -12 -21.5 -1t-13.5 21v21v25q-20 4 -39.5 11t-38.5 15q-18 2 -34 12 q-6 4 -11.5 6.5t-9.5 4.5t-7 6t-7 6q-16 12 -31.5 25.5t-28.5 29.5q-12 16 -22 32.5t-19 39.5q-12 37 -16 76q-2 23 -2 48t4 50l-4 -4q-2 -2 -4 -2h-2q-2 -4 -3 -7t-1 -7q-10 -12 -10 -43q2 -4 2 -9.5t4 -11.5l8 -4t-2 -8q-6 -4 -23 0q-8 12 -12 22t-3 25.5t5 25.5q2 8 8 17 q14 29 43 29l4 16l4 16q4 20 10.5 37t14.5 35q18 45 55 86q16 16 36 28.5t40 22.5q8 4 16.5 7t16.5 8q6 4 13 7t18 7q27 10 54 16t58 2q23 0 39 -10q6 -2 13.5 -4t11.5 -8q6 -4 7 -10.5t1 -12.5q-4 -10 -11.5 -11t-17.5 -5q12 -4 21.5 -8t19.5 -11q0 2 18.5 -8t41.5 -28 q18 -16 36 -27q8 -12 13 -14q4 -4 6 -4t2 -3q0 -4 2 -6q4 -2 5 -4t5 -6l6 -6l4 -6v-2l7 -4q10 -16 19 -31.5t13 -26.5q6 -12 11 -24h6q4 0 8 -4t8 -5.5t8 -5.5q12 -10 15.5 -21t7.5 -22v-6zM760 692q4 45 -10.5 84t-38.5 74q-8 10 -16.5 20.5t-16.5 22.5q-16 16 -31.5 32.5 t-32.5 32.5q-16 12 -30.5 23.5t-26.5 26.5q-10 10 -6 10h2q-2 6 -12 8q-14 6 -45 4q-53 -6 -111 -33q-33 -16 -59 -36q-39 -29 -59.5 -70t-30.5 -86q-8 -27 -13.5 -51.5t-5.5 -53.5q0 -16 4 -36.5t8 -36.5q4 -10 8.5 -22.5t10.5 -22.5q10 -20 24.5 -37t30.5 -29 q23 -16 43.5 -25.5t42.5 -19.5q16 -4 30.5 -9t31.5 -7q53 -8 109 0t97 43q16 16 33 33.5t29 39.5q6 10 11 23.5t9 23.5q8 20 14.5 37t6.5 37zM537 561q4 -4 -5 -18q-4 -4 -10 -11.5t-12 -11.5q-10 -8 -26.5 -9t-28.5 1q-14 4 -23.5 9t-23.5 18h-2q0 2 1 2t1 2q0 8 4 12 q4 0 5 2t3 2q2 -6 10 -6q0 -6 6 -6q14 -8 27 -10q20 -8 33 2q8 2 22 16q2 0 8.5 5t10.5 1zM422 358q12 -2 22 -10q10 -14 -2 -33v-2h-4q-2 -4 -6 -5t-6 -3q-20 -10 -38.5 -23.5t-41.5 -25.5q-4 -4 -9 -8t-11 -8q-8 -4 -16.5 -10.5t-16.5 -10.5l-4 -4q-4 0 -6 -2q-2 0 -2 -2 v-8q-2 -2 -2 -3t-5 -3q0 -4 -1 -8.5t-1 -8.5q-4 -2 -4 -10q-4 -16 -6 -27.5t-4 -25.5q-2 -8 -4 -15.5t-2 -11.5q-2 -12 -3 -20.5t-3 -16.5q-6 -37 -8 -45h2q0 -4 -2 -8q-6 0 -9 4q-4 0 -4 6q-2 4 -2 8q-4 8 -4 23q0 2 -1 4t-1 4v8v66v24.5t2 22.5q4 12 4 16v7 q2 16 10.5 34.5t24.5 28.5q8 6 17.5 11t17.5 9q14 10 27.5 20.5t23.5 16.5q16 10 28.5 19.5t22.5 13.5q4 2 9.5 4t9.5 4t6 2q0 2 2 2zM807 158q2 -4 2 -15q6 -31 6 -61q0 -14 -1 -28.5t-5 -26.5q-2 -12 -6 -9q-4 4 -7 19.5t-10 34.5q0 -4 -4 16.5t-10 44.5q-4 12 -6 22.5 t-6 20.5t-6 21l-4 18l-7 6q-8 6 -20 16.5t-29 22.5q-14 10 -30.5 19.5t-28.5 17.5q-16 8 -28.5 13t-22.5 7q-6 0 -15 5q-4 2 -6 2h-2q-10 12 -10 24t16 21l4 2h2q10 -2 21.5 -4t21.5 -7q29 -10 54.5 -26.5t50.5 -34.5q18 -10 33.5 -22.5t27.5 -28.5q10 0 11 -8q4 -20 6 -29 q8 -26 8 -53zM653 197q18 -6 14.5 -10.5t-14.5 -6.5l-37 -4h-20q-10 0 -20.5 -2t-22.5 -4q-20 0 -37 -4q-2 0 -2 -3t-4 -3q2 0 -10 -4q0 2 -2 2q-4 6 -8.5 9t-8.5 9v2v4q8 0 13 4q4 4 14 4q8 4 21.5 6.5t23.5 2.5q12 2 23.5 3t21.5 1h23q4 -2 10 -2q4 -2 10 -2t12 -2z M518 219h-6t-8 4v2v6q2 4 4 8.5t6 12.5q10 10 18 12q6 2 11.5 4t9.5 4q27 4 43 0q4 -2 9 -2t9 -2t7 -2h2l8 -4q4 -4 7 -8t7 -12q2 -10 0 -13q0 -4 -2 -4t-4 2t-6 4q-2 2 -4 2q-4 0 -6 3q-8 4 -11 4h-4h-4q-2 0 -5 1t-7 1q-12 2 -33 0q-10 -4 -12 -6q-6 -2 -10 -7 q-4 -4 -5 -6v-2h-2h-4q-2 0 -4 -1t-4 -1zM647 143q4 -4 2 -10t-4 -10q-2 -8 -8 -10q-16 -16 -37 -19q-14 -2 -30.5 0t-28.5 10q-6 4 -12.5 8.5t-12.5 12.5q2 2 2 4q0 4 2 4q-4 0 -8 -1t-4 7q0 4 6 8q10 6 18.5 0t14.5 -10q14 -16 37 -12q10 0 26 4q4 0 8.5 2t6.5 2q4 2 8 3 t8 3q4 6 6 4zM373 842q41 -4 37 -19.5t-23 -25.5q-10 -4 -18.5 1t-12.5 13t-2 16.5t13 12.5zM582 864q8 -2 16 -16t4 -25q-2 -8 -15.5 -10t-23.5 4q-4 4 -7 11.5t-5 13.5q0 10 10.5 17t20.5 5zM342 92h4h2v-63q-2 -2 -2 -4q-2 -2 -2 -5.5t-2 -5.5q-8 -12 -14 0l-4 17v61h2 l-4 4q-2 0 -3 4q-2 2 -2 13q0 2 -1 6t-1 6v4q2 4 11 4h12v-6q0 -2 2 -4t2 -6v-11q0 -2 2 -4q0 -2 -2 -6v-2v-2zM717 117q-4 -2 0 -6v-25v-45v-8q0 -4 -2 -8.5t-4 -8.5q-4 -14 -7.5 -11t-7.5 11l-4 13q-2 6 -2 12v45v14q0 4 -1 7.5t-1 7.5q0 12 8 22q4 -2 7.5 -1t7.5 -1h6v-4 q0 -2 2 -2q0 -4 -2 -4v-8z" />
<glyph unicode="&#xe03c;" horiz-adv-x="1327" d="M580 625q-41 -41 -78 -83t-61.5 -80t-32 -70t11.5 -50q27 -25 48 -48.5t27.5 -52t-9 -68.5t-60.5 -97q-47 -57 -86 -68.5t-71.5 3t-61.5 44t-53 56.5q-31 29 -31 94t33.5 154.5t102.5 194.5t177 214q109 109 214.5 177.5t194.5 102t154.5 33.5t94.5 -30 q27 -25 56.5 -53.5t43.5 -62.5t3 -73t-69 -86q-59 -47 -98 -61.5t-67.5 -7t-52 29t-48.5 47.5q-18 18 -50 10t-69.5 -32.5t-79.5 -61t-83 -75.5z" />
<glyph unicode="&#xe03d;" horiz-adv-x="1265" d="M1055 420l-60 -62l-211 215q-20 18 -12 39q4 8 12 19h-4q23 -23 43.5 -25t38.5 4q20 8 41 23l60 61q23 23 25.5 43.5t-1.5 36.5q-6 20 -20 37l61 61l27 -28q43 -43 65.5 -98.5t22.5 -113t-22.5 -113.5t-65.5 -99zM813 846l-63 -64q-23 -20 -25 -40.5t3 -39t13.5 -29.5 t8.5 -14q-4 -4 -20.5 -10t-39.5 13l-209 212l62 60q45 43 100 65.5t111.5 22.5t111 -22.5t97.5 -65.5l32 -29l-63 -59q-20 18 -41 20t-37 -2q-21 -6 -41 -18zM750 659l4 3zM723 88q-45 -43 -100.5 -65.5t-111.5 -22.5t-110.5 22.5t-97.5 65.5l-94 92q-43 43 -64.5 98.5 t-21.5 113t21.5 112.5t64.5 98l240 238l514 -510zM932 723l-60 -61q-10 -14 -27.5 -14.5t-31.5 14.5l-29 32q-12 12 -12 28.5t12 31.5l60 61q29 23 59 0l29 -35q14 -10 14 -27.5t-14 -29.5zM1077 1047q27 -31 23 -62t-21 -55q-18 -29 -51 -58l-33 33q25 18 39 41 q12 18 18.5 41t-10.5 45q-23 29 -23.5 60.5t7.5 56.5q8 29 29 55l30 -28q-12 -16 -18 -39q-4 -18 -4 -41.5t14 -48.5zM750 659l4 3z" />
<glyph unicode="&#xe03e;" horiz-adv-x="1277" d="M1083 1016h-888q-29 0 -50.5 -20.5t-21.5 -49.5v-874q0 -29 21.5 -50.5t50.5 -21.5h888q31 0 51.5 21.5t20.5 50.5v874q0 29 -20.5 49.5t-51.5 20.5zM1073 80h-870v858h870v-858zM922 750h-181q-16 0 -28.5 -11.5t-12.5 -29.5v-220q0 -14 10.5 -22t20.5 -8h19v-289 q0 -20 12 -30.5t27.5 -10.5t27.5 10.5t12 30.5v289h11v-289q0 -20 12 -30.5t25.5 -10.5t25.5 10.5t12 30.5v289h17q12 0 22.5 8t10.5 22v220q0 16 -12.5 28.5t-30.5 12.5zM836 881q23 0 39 -16.5t16 -39.5q0 -25 -16.5 -41t-38.5 -16q-23 0 -40.5 16.5t-17.5 40.5 q0 23 17.5 39.5t40.5 16.5zM541 750h-183q-16 0 -28.5 -11.5t-12.5 -29.5v-220q0 -14 10.5 -22t20.5 -8h21v-289q0 -20 12 -30.5t25.5 -10.5t25.5 10.5t12 30.5v289h11v-289q0 -20 12 -30.5t27.5 -10.5t28 10.5t12.5 30.5v289h16q31 0 31 30v220q0 16 -11.5 28.5t-29.5 12.5 zM451 768q25 0 41 16.5t16 40.5q0 23 -16.5 39.5t-40.5 16.5q-23 0 -40.5 -16.5t-17.5 -39.5q0 -25 17.5 -41t40.5 -16zM258 1290l156 160l164 -160v-104l-125 121v-240h-76v240l-119 -121v104zM1028 1227l-160 -160l-159 160v104l122 -117v236h76v-236l121 117v-104z" />
<glyph unicode="&#xe040;" horiz-adv-x="1576" d="M1427 365q18 -20 18.5 -45t0.5 -29v-174q0 -47 -31 -82t-72 -35q-47 0 -76.5 35t-29.5 82v71h-907v-73q0 -47 -31 -81t-74 -34t-72.5 34t-29.5 81v790q0 47 29.5 81t72.5 34t74 -34t31 -81v-518h1048q31 1 49 -22zM434 567q0 35 25.5 58.5t60.5 23.5h230v166 q0 35 26.5 59.5t61.5 24.5q29 0 52 -17.5t32 -45.5h350q20 0 62 -27t76 -75t43 -112.5t-34 -140.5h-581h-7h-311q-35 0 -60.5 24.5t-25.5 61.5zM555 696q-57 0 -98 41t-41 99q0 59 41 99t98 40t98 -40t41 -99q0 -57 -41 -98.5t-98 -41.5z" />
<glyph unicode="&#xe041;" horiz-adv-x="1101" d="M508 561q-4 0 -10 2q-12 4 -17 6q-8 2 -21.5 4t-23.5 -2q-18 -2 -26.5 -5t-12.5 -3q-10 2 1.5 13.5t21.5 15.5q16 6 44 4t50 -12h2q0 -8 -4 -17q-2 -4 -4 -6zM408 387q4 0 8 -2t7 -3t7 -5q4 -12 0 -23q-2 -6 -4 -10q-4 -2 -10 -4q-4 -2 -8.5 -5t-8.5 -5q-10 -6 -21 -12.5 t-22 -16.5q-18 -10 -38.5 -25.5t-43.5 -27.5q-2 0 -6 -14.5t-8 -28.5q-12 -49 -16 -87t-15 -67q2 0 3 -2t-3 -6h-4q-4 0 -4 4q-2 10 -4 18.5t-2 18.5q-2 23 -4 52.5t2 51.5q4 37 14 68q2 16 19 29q4 4 10 7t10 7q23 12 51.5 33.5t51.5 34.5q12 8 24 14q9 4 15 6zM631 231 q4 0 10 -6q4 -2 -2 -5t-14 -3q-4 -2 -10.5 -2t-10.5 -4h-31q-23 -2 -49 -4t-43 -12l-4 4l-6 6q-4 4 -5 8t1 4q8 6 21.5 10t21.5 6q20 4 46 6.5t42 -1.5q6 0 14.5 -2.5t18.5 -4.5zM502 254q-10 0 -17 6h-4l2 2q0 2 1 2t1 4q0 6 9 15q8 8 20 14q4 2 9 3t9 5q27 2 43 0 q4 0 7.5 -1t7.5 -1q4 -2 6 -2l8 -8q14 -4 17 -17q8 -12 0 -12q0 -4 -3 -2q-4 0 -12 6q-4 2 -7 4t-7 2h-8l-15 5q-6 2 -14 1t-16 -4q-4 -2 -10.5 -4t-10.5 -4l-8 -12q0 -2 -2 -2h-6zM625 180q4 -4 -1.5 -13t-13.5 -17q-14 -14 -55 -15q-20 0 -37 8q-2 0 -12 11q-6 4 -10 10 l2 2q4 4 4 6q-16 -4 -13 6t13 10t16 -8q10 -10 16.5 -13t20.5 -3q14 -4 25 0q6 2 10 4h4q6 0 12 6q8 2 11.5 5t7.5 1zM375 791q39 -4 35 -20.5t-21 -22.5q-8 -4 -16 1t-12.5 12t-3.5 15t12 12zM537 778q-4 -8 -17.5 -11t-19.5 3q-12 16 -13 27q-2 8 9.5 15t17.5 3 q8 -2 17.5 -14.5t5.5 -22.5zM315 131q2 0 7.5 2t15.5 -2v-59q0 -2 -2 -4q-4 -4 -4 -11q-4 -8 -6 -7t-7 7q-2 -2 -2 6q0 4 -2 9v59zM977 592q2 -51 -3 -100.5t-34 -90.5q-8 -10 -19.5 -20t-21.5 -19q-35 -25 -79 -38t-99 -23q-16 -4 -22.5 -4t-14.5 -4q12 0 23 -8h2v-11 q0 -4 4 -20q0 -16 2 -33.5t6 -34.5q4 -20 7 -37.5t7 -31.5q4 -16 8 -31q0 -10 2 -18q4 -20 5 -39q0 -10 -2.5 -22.5t-16.5 -0.5q-6 6 -12 19.5t-10 23.5q-2 6 -5.5 14.5t-5.5 12.5q-6 23 -14 52.5t-12 57.5q-2 16 -5 35t-3 39q-2 4 -2 9v10v6l2 2q2 2 6 4q2 0 5 1t5 1h4 l37 12q18 8 38.5 17.5t43.5 19.5q20 10 39.5 21.5t40.5 25.5q8 8 16 16.5t14 18.5q16 23 21.5 49.5t7.5 54.5q2 16 2 30.5v29.5v56.5t-2 51.5v54v24v23q-10 -10 -19.5 -12.5t-23.5 -6.5q-20 0 -27 2q-8 2 -12 4v-6q2 -10 5 -24.5t5 -30.5q4 -10 4 -17.5t3 -17.5 q8 -74 0 -145q-4 -25 -14.5 -49.5t-37.5 -40.5q-8 -4 -17 -10.5t-20 -10.5q-29 -14 -65 -24q-12 -6 -31.5 -12.5t-38.5 -10.5q-20 -4 -42.5 -8t-55.5 -6h-46.5t-49.5 2q-2 -4 -6 -6q-8 -4 -13 0q-8 4 -10 7t-8 15v27v20q-2 0 -17.5 3t-27.5 7q-16 4 -28.5 10.5t-29.5 10.5 q-31 16 -66.5 46t-57.5 73q-4 10 -8.5 21t-8.5 22q-6 18 -8 38.5t-2 41.5q-4 18 -1 41.5t5 27.5q-6 -2 -15.5 -12t-9.5 -33v-16t3 -15l8 -4t4 -4v-2q0 -2 -4 -2q-8 -6 -17.5 0t-13.5 15q-6 16 -3 34.5t9 34.5q4 6 8 12.5t15 10.5q12 4 14 4h6q2 10 4 18q4 20 10 33 q12 41 34 80t57 67q29 25 63.5 40.5t69.5 25.5q37 14 77.5 14t73.5 -22q0 -2 2 -6q4 -8 0 -23l-12 -8q-8 0 -12 -2q12 0 41 -19q-2 4 15 -6t40 -26q2 -4 5 -5t5 -4q0 16 13 29q4 4 8 9t14 10q6 6 14.5 10t14.5 8q12 4 23.5 7t23.5 3q25 4 45 1t43 -11q16 -4 34.5 -18.5 t28.5 -30.5q8 -16 15 -35q4 -14 6 -29.5t2 -31.5v-23q-4 -8 -4 -29q18 -4 24 -12q0 -10 -2 -12q-2 -4 -4 -4q0 -6 2 -15l4 -16q2 -10 3 -21.5t6 -21.5q2 -23 4 -41t6 -41q0 -10 2 -25.5t2 -25.5zM344 510q8 -4 14.5 -6t16.5 -6q61 -25 131 -21q14 0 29.5 4t31.5 8q4 0 15 7 q4 0 14 6q6 2 12 5t13 7q51 41 77 92q14 25 22.5 50.5t8.5 52.5q2 25 -2 49t-14 47q-4 10 -9.5 20.5t-11.5 18.5q-4 4 -6 9t-6 9l-4 4q-6 6 -9 11.5t-8 9.5q-4 4 -6 8q-4 2 -8 8q-4 4 -9 10.5t-11 12.5l-27.5 27.5t-30.5 27.5q-12 10 -19 17.5t-11 11.5q-10 6 -7 10h2 q-2 0 -4 2t-6 4q-6 2 -18 4t-27 2q-27 -4 -52.5 -13t-53.5 -22q-12 -6 -24.5 -12t-27.5 -16l-4 -2l-4 -4l-2 -2q-4 0 -4 -1.5t-2 -1.5q-2 -4 -6 -6q-8 -12 -18 -22q-35 -49 -52 -115q-4 -16 -6 -31.5t-6 -33.5v-17q-2 -6 -2 -16t1 -16.5t1 -14.5q4 -33 16.5 -63.5 t34.5 -57.5q10 -12 21.5 -22.5t27.5 -18.5q0 -2 15 -6q4 -6 14 -8zM463 377q6 0 15 1t16 1q2 0 -5 6l-4 4v25l-4 16h-10v-41q0 -4 -3 -7zM862 836v8q-2 4 -2 6t-4 6v8q-2 0 -3 -3t-5 -3q-6 -6 -14 -8h-9.5t-9.5 2q-14 6 -22 14q-12 12 -15 19q-8 6 -12 22t12 29q4 6 12.5 12 t18.5 10q16 4 16 5v4h-2l-2 2q-2 0 -6 4q-8 2 -14 3t-13 1q-8 4 -16 2t-18 -6q-12 -8 -31 -23q-4 -4 -8 -7t-8 -5t-6.5 -4t-6.5 -4h-10q0 -6 4 -6h2l8 -9q2 -4 4.5 -6t4.5 -6l6 -4l2 -4v-2l6 -6q10 -16 21.5 -34.5t17.5 -41.5q6 0 12 -3t10 -7q10 -4 21 -19q12 -18 12 -43 q0 -12 -4 -16q-2 0 -2 -2t-4 -4q-2 -8 -12 -8q-12 4 -15 8q0 2 2 6h8q4 2 5 8v8q0 6 -2.5 11.5t-4.5 11.5q0 8 -14 20q2 -10 2 -19t4 -18v-43q-6 -35 -18 -73q-10 -35 -31 -66q-35 -57 -96 -96q-10 -4 -17.5 -8t-17.5 -8q-8 -4 -16.5 -7.5t-16.5 -5.5q-10 -2 -17 -4t-18 -2 v-10l2 -29v-2q0 -2 -2 -4q4 2 10.5 2t10.5 4q10 4 21.5 6t21.5 7q10 4 18 8q4 0 11 2q4 2 10 3t14 5q23 10 45.5 18.5t44.5 18.5l41 20.5t33 20.5q4 4 8 11t6 13q6 16 10.5 41t6.5 47q6 57 6 109v53v15q-2 0 -6 4l-2 2q0 4 6 16l2 2q4 4 6 10t6 11h2zM918 829h4q2 0 3 -1 t3 -1q2 31 0 58q-2 16 -6 30.5t-9 30.5q-4 10 -8 17.5t-12 13.5q-18 23 -52 34t-69 7q-16 -4 -32.5 -8t-32.5 -15q-4 -4 -20.5 -17t-8.5 -24q4 -6 14 1.5t21 13.5q6 4 11 6t7 6q45 25 86 -4l6 -6l2 -2l4 -2h5h-3v-4h-2h-4q-6 -2 -14 -11l-5 -5t-5 -7q-4 -4 -8.5 -9t-6.5 -9 v-13q4 -8 12.5 -17t18.5 -13q2 -6 12 -7q2 0 5.5 1t5.5 1q6 4 12 10.5t14 10.5l2 2v2v-12q4 -25 0 -53q10 -4 17.5 -5.5t15.5 -1.5q9 0 17 2zM553 1217q6 -4 11 -17.5t1 -23.5q-8 -6 -19 -7.5t-16 7.5q-8 14 -6 26q0 8 11.5 13.5t17.5 1.5zM528 1341q-10 -4 -15 1.5t-5 7.5 q-6 6 -6 14v8l8 8q4 4 7 7.5t7 7.5q23 18 58 22q10 4 32.5 2t38.5 -18q18 -16 22.5 -42t-5.5 -48q-8 -23 -37 -37q-12 -8 -26.5 -12.5t-31.5 -8.5q-2 -4 -12 -6t-10 2q2 8 15.5 18.5t21.5 16.5q6 4 12 7t14 9l9.5 9.5t7.5 9.5q4 6 3 16.5t-5 20.5q-8 8 -16.5 13t-22.5 3 q-20 -2 -37 -14q-8 -6 -12 -15q-1 -2 -15 -2zM668 1047q12 6 24.5 7t28.5 1q-6 -4 -14 -4q-16 -6 -29 -15q-4 0 -10 -2t-11 -2q-6 -6 -14 -6q4 6 12.5 11.5t12.5 9.5zM768 940q-4 -8 -10 -13t-15 -9q-10 -2 -20 -4.5t-16 1.5q8 4 19 8.5t19 8.5q10 4 14.5 4t8.5 4z" />
<glyph unicode="&#xe042;" horiz-adv-x="1263" d="M1014 190h-357l-256 -190v190h-151q-53 0 -90 38t-37 89v635q0 53 37 91t90 38h764q51 0 89 -37.5t38 -91.5v-635q0 -51 -38 -89t-89 -38zM541 944h-117v-487h117v487zM895 705q-18 43 -51 67q-43 33 -91 35t-89 -19.5t-68 -62.5t-27 -94v-303h109v149l12 -6 q78 -16 130 10.5t75 77.5q14 29 16 54.5t-2 45.5q-4 23 -14 46zM745 561q-31 0 -52 21.5t-21 52.5q0 29 21.5 50.5t51.5 21.5q29 0 49.5 -21.5t20.5 -50.5q0 -31 -20.5 -52.5t-49.5 -21.5z" />
<glyph unicode="&#xe043;" horiz-adv-x="1333" d="M328 596q0 -25 -14.5 -36t-34.5 -11q-23 0 -36.5 11t-13.5 36v268h-57q-23 0 -36 12.5t-13 28.5q0 43 49 43h211q51 0 51 -43q0 -16 -13 -28.5t-38 -12.5h-55v-268zM643 958q96 0 154.5 -56t58.5 -152q0 -94 -58.5 -150.5t-154.5 -56.5t-153.5 56t-57.5 151 q0 96 57.5 152t153.5 56zM643 627q57 0 81 37.5t24 85.5q0 47 -24 85.5t-81 38.5t-81.5 -38.5t-24.5 -85.5t24.5 -85t81.5 -38zM1208 815q0 -59 -36.5 -97t-106.5 -38h-78v-84q0 -47 -47 -47q-23 0 -36 11t-13 36v307q0 23 14.5 34t34.5 11h121q57 0 102 -33.5t45 -99.5z M1042 760q31 0 48.5 16.5t17.5 38.5q0 27 -18.5 40t-47.5 13h-55v-108h55zM289 309q16 0 20 -10t4 -14q0 -23 -26.5 -31t-48.5 -8q-55 0 -85 35.5t-30 85.5q0 51 30.5 83.5t84.5 32.5q25 0 49 -7t24 -27q0 -10 -7 -18.5t-17 -8.5t-20.5 6t-26.5 6q-33 0 -46.5 -19.5 t-13.5 -47.5q0 -29 13.5 -48.5t42.5 -19.5q25 0 34 5t19 5zM504 481q27 0 26 -28v-174q0 -29 -26 -29q-27 0 -27 29v67h-100v-67q0 -29 -25 -29q-29 0 -28 29v174q0 29 28 28q25 0 25 -28v-60h100v60q0 28 27 28zM666 483q51 0 81.5 -31.5t30.5 -84.5q0 -55 -30.5 -88 t-81.5 -33q-53 0 -84 32.5t-31 88.5q0 53 31 84.5t84 31.5zM666 295q29 0 43 21.5t14 50.5t-14.5 49t-42.5 20q-31 0 -44.5 -20.5t-13.5 -48.5q0 -29 13.5 -50.5t44.5 -21.5zM825 481q10 0 19.5 -6t9.5 -22v-174q0 -16 -9 -22.5t-20 -6.5q-27 0 -26 29v174q-1 28 26 28z M1038 309q16 0 19.5 -10t3.5 -14q0 -23 -25.5 -31t-48.5 -8q-55 0 -85 35.5t-30 85.5q0 51 31 83.5t84 32.5q25 0 49.5 -7t24.5 -27q0 -10 -7 -18.5t-18 -8.5q-10 0 -20 6t-25 6q-35 0 -48 -19.5t-13 -47.5q0 -29 13 -48.5t42 -19.5q25 0 34 5t19 5zM1184 301q27 0 26 -25 q0 -25 -26 -24h-84q-27 0 -27 27v174q0 27 27 26h82q27 0 26 -24q0 -23 -26 -23h-54v-41h50q27 0 26 -22q0 -25 -26 -25h-50v-43h56z" />
<glyph unicode="&#xe044;" horiz-adv-x="1323" d="M709 1042q47 0 73.5 -26.5t40.5 -57.5q16 -37 21 -84v-159q-2 -33 -10 -64q-8 -27 -23.5 -54.5t-44.5 -43.5l-4 -16q-2 -6 -2 -12.5t4 -4.5q2 0 2 -25.5t10 -57t36 -61.5t77 -36q51 -8 96 -25.5t80 -38t57.5 -40t32.5 -27.5q10 -10 18.5 -44t14.5 -71q8 -43 12 -94h-1075 q-2 43 4 82q4 35 13.5 69.5t25.5 57.5q10 8 37.5 27.5t67.5 40t88.5 38t101.5 25.5q51 6 71.5 34.5t25.5 59.5t1 54l-4 24q2 -2 2 4v12q0 8 -2 17q-23 29 -39 59q-14 27 -26.5 59.5t-10.5 65.5v145q2 57 17 103q12 39 40.5 71.5t82.5 32.5z" />
<glyph unicode="&#xe045;" horiz-adv-x="1329" d="M737 1081q98 0 183.5 -37.5t149 -102t100 -153t36.5 -186.5t-36.5 -186t-100 -152.5t-148.5 -102.5t-184 -38q-84 0 -157.5 27.5t-133.5 74.5l80 88q45 -35 97.5 -53t113.5 -18q74 0 137.5 28.5t111.5 77.5t76 114.5t28 139.5t-28 139.5t-76 113.5t-111.5 77t-137.5 29 t-137 -27t-110.5 -74t-76 -110.5t-30.5 -137.5h166l-213 -237l-213 237h141q2 98 40 183.5t102.5 149t149.5 100t181 36.5z" />
<glyph unicode="&#xe046;" horiz-adv-x="1527" d="M1380 102q-27 -47 -78 -74.5t-116 -27.5h-844q-66 0 -117 27.5t-78 74.5q-57 106 17 222l411 645q35 53 84.5 82.5t104.5 29.5t104.5 -29.5t83.5 -82.5l412 -645q35 -55 40 -113t-24 -109zM1264 260l-412 643q-37 59 -88 60q-53 0 -88 -60l-412 -643q-37 -59 -14.5 -100 t92.5 -41h844q70 0 92.5 41t-14.5 100zM766 387q-33 0 -54.5 21.5t-21.5 54.5v258q0 35 21.5 56.5t54.5 21.5q31 0 52.5 -21.5t21.5 -56.5v-258q0 -33 -21.5 -54.5t-52.5 -21.5zM840 270v2v2v-4zM766 197q-29 0 -51.5 22.5t-24.5 52.5q2 31 24.5 51.5t51.5 20.5 q31 0 52.5 -20.5t21.5 -51.5t-21.5 -53t-52.5 -22zM690 274v-2v-2v4z" />
<glyph unicode="&#xe047;" horiz-adv-x="1202" d="M649 1219q2 0 4 -2q6 -2 11.5 -16.5t-0.5 -22.5q-2 -10 -19 -11q-10 0 -14 11q-10 12 -6 24q0 8 9 12.5t15 4.5zM713 1421q10 -4 18 -7t14 -7q8 -4 15.5 -12.5t9.5 -12.5q16 -47 1 -72.5t-44 -39.5q-10 -4 -19.5 -7t-19.5 -8q-4 -2 -12 -5t-17 -3q-4 0 -4 2q-2 0 -2 2 q2 6 10.5 12.5t14.5 10.5q12 12 31 18q16 12 25 28.5t-9 39.5q-10 14 -25 14q-12 0 -21 -5t-20 -9q-8 -4 -13 -9t-21 -10q-8 0 -14.5 7.5t-6.5 15.5q0 10 11.5 21.5t21.5 17.5q27 18 63 18h13zM872 940q2 0 -12 -10q0 -4 -10 -8q-8 -4 -14 -4q-4 -4 -9.5 -4.5t-7.5 -0.5 q-6 0 -8 2q-2 0 -4 3h4q2 0 4 2q8 2 14 8q8 0 17 4q4 2 6 4h4q8 0 12 2q2 0 2 1t2 1zM594 782q10 0 12 -8v-4q0 -4 -2 -10q-4 -10 -6 -27q-4 -18 -7 -43.5t-5 -52.5q-2 -25 -4 -48.5t-2 -37.5q0 -16 -2 -33q-2 -14 -4.5 -28.5t-4.5 -24.5q-6 -27 -10 -27q-2 0 -3 9.5 t-1 19.5v84q2 14 3 37.5t5 52.5q2 25 6 51.5t9 44.5q0 12 4 29q2 8 2 12l2 2h4q2 0 2 1t2 1zM907 494q2 0 2 -2q0 -4 -17.5 -13.5t-33.5 -13.5q-12 -4 -26.5 -8t-24.5 -8q-16 -4 -37.5 -7.5t-48.5 -7.5q-49 -6 -96 -6h-4h-35q-4 2 -6 6q-4 8 6 19q0 2 2 2h33q29 0 52 1t46 3 q16 2 41.5 6t51.5 10t46.5 10t24.5 7q10 2 15 2h9zM645 694q8 0 14 -2v-2v-4l3 -2q2 -6 3 -11t5 -9q4 -8 7 -16.5t7 -18.5v-2h4v2l2 4q10 6 19 20q0 2 4 6.5t4 6.5v16q2 0 4 1t6 1h6t6 -2h2q-2 0 -1 -11.5t1 -23.5q2 -8 3 -13t1 -9v-11v-8q0 -4 -2 -7t-4 -7q0 -4 -4 -4 q-6 0 -10 10q-4 12 -5 23.5t-1 21.5q0 -2 -3 -6t-5 -8q0 -4 -4 -13q-4 -6 -11.5 -12t-11.5 -12q-16 20 -29 41v2q-2 -14 -2 -27.5t-4 -25.5t-8 -13q-2 0 -6 13l-4 24v12q0 6 1 13.5t3 17.5l2 43q0 2 8 2zM786 633q0 2 -2 4v-4h2zM778 690q12 0 17 -6v-2q0 -4 4 -13.5 t8 -19.5q2 -6 5 -12l5 -10q2 -6 4 -9q2 -4 2 -8q0 -8 2 -12q0 -10 -4 -10l-2 2q-2 0 -4 2h-2l-10 14q-2 0 -4 2q-4 4 -4 8q0 -2 -1 -2t-1 -2q-2 -2 -2 -4h-7h-6v-10q0 -4 -2 -8t-4 -7t-4 -8q-4 -8 -4 -6l-2 -2q-6 0 -6 13v24l8 41q4 16 7 29.5t3 15.5h4zM850 643q0 2 2 4 l8 8q8 4 15.5 10.5t7.5 8.5l-2 2q-2 2 -3 2t-4 4q-2 0 -9 1t-15 1h-10q0 -4 2 -10q2 -4 2 -8t2 -9q0 -4 2 -7t2 -7zM850 705q10 0 21.5 -1.5t19.5 -5.5q12 -4 15 -14t1 -14q-4 -6 -11 -14.5t-13 -12.5q-2 -4 -17 -8q-6 -2 -12 -2q4 -8 4 -10v-5v-8q0 -4 1 -7t1 -7 q4 -14 -2 -14q-4 0 -5 3t-3 5q-6 6 -12.5 19.5t-12.5 27.5q-2 10 -7 30.5t-5 26.5l2 2l4 2q2 2 2 4h6q4 0 7.5 1.5t7.5 1.5h8zM319 410v6v-6zM223 410q6 0 11.5 3t11.5 5h16t19 2q10 0 16 4q10 4 9 20.5t-1 26.5q0 16 -4 28.5t-8 28.5q-2 10 -9.5 19.5t-21.5 11.5 q-4 4 -14 4l-4 4q-4 4 -2 4h-4q-4 0 -10.5 9.5t-12.5 11.5h-8q-20 0 -27 -6q-6 -6 -10 -23q-2 -8 -2 -14q-2 -6 -10 -6q-2 -2 -6 -2v-2q0 -2 -1 -2t-1 -2v-7q0 -23 2 -28q4 -6 6 -14.5t4 -12.5q10 -10 15 -22.5t13 -22.5q4 -4 11.5 -8t13.5 -4q2 -6 8 -6zM1024 786 q0 -4 -3 -17t-8 -30.5t-10.5 -35t-7.5 -27.5q-4 -14 -7 -26.5t-5 -22.5v-11q0 -16 -1 -32.5t-5 -30.5q0 -10 -1 -17.5t-3 -15.5q-4 -8 -6 -15t-9 -18l-4 -8t-6 -8q2 -6 4 -14t4 -18.5t7 -20.5q4 -10 6 -17.5t6 -17.5q2 4 4 4t2 2q10 10 22.5 21.5t18.5 27.5q10 16 14 35 t6 37q2 23 2 41v41v84q-2 41 -2 78t2 41h-2q-2 -4 -3 -4t-3 -3q-2 -2 -4 -2h-8zM784 928l4 -4q2 -2 5 -2q8 -6 19 -21.5t13 -19.5q10 -14 16.5 -26.5t12.5 -27.5q29 0 55.5 3.5t48.5 5.5h9q-4 2 -4 10q-4 2 -5 10l-2 8q0 -8 -20 -12h-8q-4 0 -9.5 1t-9.5 1l-16 12t-14 17 q-6 8 -10.5 19t1.5 22q4 10 14.5 19t22.5 13q8 4 13 5q0 4 6 4h2q-10 4 -19.5 9t-19.5 5h-6q-10 0 -23.5 -6t-23.5 -15q-10 -6 -18.5 -14t-20.5 -12q-2 -2 -6 -2q-2 0 -5 -2h-2zM786 952q2 0 9 6q6 2 10 4.5t8 6.5q18 16 37 20q6 4 12 4h10q14 0 19 -4q10 -2 16 -5t11 -5 q2 -4 6 -8l2 -2h2q0 -2 4 -2h4h-2q-2 0 -2 -2h-4h-2q-2 -4 -6.5 -6.5t-8.5 -6.5l-4 -4q-4 -2 -7 -7t-9 -11q-2 -2 -2 -4t-2 -4v-4q0 -8 2 -11q12 -16 18 -22q4 -4 8.5 -7.5t8.5 -5.5h8q4 0 5 1t3 1q10 6 15.5 11.5t13.5 9.5v4q4 -4 4 -8v-29v-12q0 -14 -4 -14q10 2 18 4 t14 4q8 2 15 2h4q2 -4 5 -5t7 -5v14t-4 22q0 10 -4 27q-2 8 -2 14q-6 20 -6 24.5t-4 14.5q-8 20 -21.5 31.5t-27.5 15.5q-16 12 -48 19h-24h-22.5t-22.5 -4q-23 -8 -39 -19q-4 -2 -8 -5t-8 -5q0 -2 -7 -8l-2 -6q0 -2 -2 -2h-2q-2 -4 -2 -11q6 -6 8 -6h2zM805 825 q-2 4 -6 9.5t-6 11.5q-2 4 -5.5 8t-5.5 8l-6 4q-6 6 -9 11.5t-7 9.5t-6 8q-4 4 -9 10q-4 4 -9 10.5t-11 12.5q-10 14 -25.5 27.5t-29.5 25.5q-12 10 -20.5 17.5t-12.5 11.5q-4 2 -4 8q0 2 2 4q-4 0 -12 4q-6 2 -13.5 4t-17.5 2h-14q-37 -6 -69 -18.5t-56.5 -25.5t-41 -26.5 t-22.5 -21.5q-10 -10 -21.5 -28.5t-19.5 -39.5q31 -4 64 -10q29 -4 59.5 -8t56.5 -8q53 -8 110.5 -13.5t115.5 -7.5h30h21zM588 1079q14 0 26.5 -1t26.5 -9q10 -4 19.5 -9t9.5 -7q4 -12 0 -25q-4 -2 -10.5 -4t-16.5 -6q12 -2 43 -18.5t53 -32.5l5.5 -5.5t5.5 -3.5 q4 8 6 16.5t8 14.5q20 27 57 36t60 11h2q47 0 92 -22q23 -16 37 -40t20 -52q2 -16 2 -35v-35q0 -4 -1 -7t-1 -7q0 -6 2 -7q0 -4 2 -4t4 -2q12 0 13 -8q4 -8 -2 -14v-2q0 -2 -2 -2q2 -6 4 -19.5t6 -29.5q2 -18 5 -37t5 -39q4 -20 6 -40t2 -42q2 -16 2 -30.5v-31.5 q-2 -29 -6 -55t-20 -49q-10 -23 -27.5 -42t-40.5 -30l3 -10t7 -21.5t8.5 -21.5t6.5 -12q10 -29 18 -60.5t14 -66.5q0 -4 1 -10.5t1 -10.5l-2 -8q2 -2 0 -2q-6 -6 -18 -7t-20 -1q-12 -2 -23.5 -2h-24.5q-12 0 -23 -2t-24 -2h-6q-16 0 -32.5 2t-30.5 2q0 -6 2 -15q0 -6 1 -11 t1 -7q4 -10 5 -22.5t1 -26.5v-19.5t-6 -17.5l-2 -2q-6 0 -14.5 17.5t-12.5 21.5q-10 20 -16 40.5t-13 43.5h-12h-39h-6q-63 0 -133 -6q-6 4 -11 12t7 23h2q10 2 27 2h24q12 2 26.5 2h28.5h37h105q10 -2 19 -2h18q63 -4 127 -13q10 -2 19 -4t13 -2q-8 12 -13 23.5t-11 21.5 q-6 16 -10.5 29.5t-12.5 26.5q-8 18 -14 35.5t-14 33.5q-4 12 -7.5 20.5t-7.5 18.5q-10 29 -19 60.5t-14 60.5v2q6 14 5.5 27.5t3.5 27.5q2 12 4 26.5t8 26.5q8 49 21.5 96.5t27.5 94.5q2 12 5 22.5t5 16.5q-8 0 -14 -1t-14 -1q-84 -12 -181 -12h-38q-57 0 -117 5t-113 15 q-29 4 -54.5 8t-47.5 8l-76 11l-29 8q-16 2 -32 6q-14 4 -30 7t-30 7q-10 4 -17 7.5t-12 7.5q4 -31 11 -56q4 -23 7 -45t7 -32q4 -33 8 -60q4 -25 6 -48.5t4 -35.5h-2q10 -6 11 -16q2 -8 0 -13q0 -4 11 -4h15q20 -4 31 -12q6 -4 14 -20q4 -8 6 -15l13 -4q12 -4 32.5 -8 t43.5 -10q23 -8 51 -15q8 -4 18 -8q8 -4 18.5 -6t20.5 -6q31 -12 23 -12q0 -2 -2 -2q-6 0 -12.5 1t-12.5 1q-2 0 -11 1t-20 5q-12 2 -30 6q-27 4 -50 10q-20 4 -41.5 9.5t-31.5 9.5h-2q4 -20 4 -39q0 -14 -3 -29.5t-16 -26.5q-14 -8 -26.5 -6t-24.5 0q2 -16 2 -30.5t2 -30.5 l4 -39l4 -31l2 -31v-32q0 -14 -1 -30.5t-1 -31.5q0 -10 -2 -17t-2 -16v5q4 0 13 2q6 2 13 3t17 5q12 2 28.5 4t35.5 6q14 2 29.5 3t25.5 1l23 4h12h32.5t32.5 -4q37 -2 30 -5t-30 -7q4 0 -13 0t-30 -2l-34 -8h-17q0 -4 -2 -10.5t-2 -10.5l-6 -37l-4 -8q-6 -10 -8 -12 q-6 -8 -11 -8h-6q-8 0 -8 8l-4 10v12l2 37q2 4 2 12h-12q-16 -4 -32.5 -6t-27.5 -4q-10 -2 -18 -3t-12 -3q-8 -2 -11 -2h-2q-12 0 -12 10q-2 4 -5 15.5t-5 25.5q0 6 -2 15q-4 16 -4 34l-8 48l-5 30q-2 23 -4 54.5t-6 68.5h-4q-4 0 -16.5 3t-24.5 18q-8 8 -23.5 33.5 t-23.5 41.5q-4 12 -6 27.5t2 28.5q2 6 5 10t7 8t8 4q0 10 3.5 20.5t11.5 16.5q8 10 16 13t10 3l9 2q0 14 -2 23q0 8 -2 16q-4 16 -5 19v16q-4 33 -10 60q-4 23 -9 46t-7 33l-10 58q0 2 4 2q0 4 3 8t9 4t10 -1t8 -3v-4h2v-6h19h18q4 0 30 -2t44 -4l4 8t6 8q8 16 16.5 33.5 t20.5 32.5q14 16 31.5 30.5t38.5 28.5q10 6 20 10t19 10q29 14 64.5 24.5t68.5 10.5zM557 408q4 0 8 -7q2 0 4 -2q0 -10 1 -40.5t2 -64.5t2 -62.5t1 -32.5v-19.5t-2 -19.5v-13q0 -12 -4 -12q-4 4 -7 16.5t-5 18.5q-2 14 -4 26.5t-2 22.5q-4 18 -3 39t-1 39v61v31q0 14 2 17 q2 2 8 2zM328 692h23.5t29.5 -2q6 -2 21.5 -6t33 -9t31.5 -10.5t14 -7.5q2 -2 -6 -2h-2q-6 0 -20.5 1t-29.5 2t-28.5 2.5t-19.5 1.5q-14 2 -26.5 2h-26.5h-9h-12q-4 2 -6 4q-6 2 -6 8q0 8 4 12t8 4h27zM381 741q23 0 41 -8q10 -2 19.5 -13t4.5 -26h-2h-2q-4 4 -17 11.5 t-30 9.5h-10q-18 0 -25 -6q-2 0 -1 -2t-1 -2h-2q-8 0 -16 3t-10 7q12 16 26 24q6 2 13.5 2h11.5zM346 655l2 -2q6 -8 11.5 -14t15.5 -10q4 -2 18 -2h13q12 0 20 2h6h4q4 0 0 -11q-4 -4 -9 -8t-9 -6q-6 -6 -29 -6q-14 0 -22 2q-12 4 -20.5 12.5l-16.5 16.5q2 2 4 6t6 8 q2 4 4 7t2 5zM821 1055q-4 0 -15 -4t-24.5 -10.5t-23.5 -10.5t-13 -4q2 2 8.5 9t16.5 12q16 8 37 8h14z" />
<glyph unicode="&#xe048;" horiz-adv-x="1067" d="M535 1081q92 0 174 -35.5t143 -97t97 -143.5t36 -174q0 -47 -19.5 -98.5t-51 -104.5t-71.5 -105.5t-83 -99.5q-98 -113 -225 -223q-129 111 -228 223q-43 47 -83 99.5t-71.5 105.5t-51 104.5t-19.5 98.5q0 92 36 174t98.5 143.5t144.5 97t174 35.5zM535 494q61 0 105 44 t44 105t-44 99t-105 38q-63 0 -100.5 -37.5t-37.5 -99.5q0 -61 37.5 -105t100.5 -44z" />
<glyph unicode="&#xfb01;" horiz-adv-x="1210" d="M850 1485h180v-178h-180v178zM240 936h-189v145h189v146q0 137 75.5 215t235.5 78q25 0 54.5 -3.5t43.5 -3.5v-143q-14 4 -34.5 4h-36.5q-74 0 -118 -35.5t-44 -115.5v-142h225v-145h-225v-936h-176v936zM852 1081h176v-1081h-176v1081z" />
<glyph unicode="&#xfb02;" horiz-adv-x="1206" d="M240 936h-189v145h189v146q0 137 75.5 215t235.5 78q25 0 54.5 -3.5t43.5 -3.5v-143q-14 4 -34.5 4h-36.5q-74 0 -118 -35.5t-44 -115.5v-142h225v-145h-225v-936h-176v936zM852 1516h176v-1516h-176v1516z" />
<glyph horiz-adv-x="1024" />
</font>
</defs>
</svg>
