<?xml version="1.0" standalone="no"?>
<!DOCTYPE svg PUBLIC "-//W3C//DTD SVG 1.1//EN" "http://www.w3.org/Graphics/SVG/1.1/DTD/svg11.dtd" >
<svg xmlns="http://www.w3.org/2000/svg">
<metadata></metadata>
<defs>
<font id="bentonsansregular" horiz-adv-x="1533" >
<font-face units-per-em="2048" ascent="1638" descent="-410" />
<missing-glyph horiz-adv-x="102" />
<glyph unicode="elevator" horiz-adv-x="1085" d="M0 0v1085h1085v-1085h-1085z" />
<glyph unicode="wine" horiz-adv-x="985" d="M103.5 699q1.5 68 18.5 135.5t51 128.5t79 106h500q39 -54 68.5 -118t45.5 -132.5t16.5 -135t-22.5 -125.5t-66.5 -104t-121 -71.5t-180.5 -26.5q-102 0 -179 28t-120.5 76t-67 109.5t-22 129.5zM242 842h503q-32 78 -57 123l-2 10h-385l-2 -10q-21 -34 -57 -123zM246 4 v6q0 19 14.5 34.5t34.5 16.5q4 0 17.5 2t36 9.5t34.5 17.5q16 12 25.5 50t11.5 75q4 36 4 41q0 9 6 12q2 1 22 0.5t25 -2.5l58 4q16 0 18 -2q4 -8 4 -12q-1 -4 -0.5 -8.5t1.5 -12.5t1 -12q3 -36 13.5 -74t23.5 -51q14 -12 96 -37q18 -3 29.5 -17.5t11.5 -33.5v-6 q0 -22 -12.5 -35.5t-32.5 -13.5h-391q-21 0 -36 14t-15 35z" />
<glyph unicode="housekeeping" horiz-adv-x="1273" d="M104 858q-6 14 9 33q6 8 18 22q3 2 21 -29.5t34 -63.5l17 -32q-3 9 -8.5 23t-17 44.5t-19 50.5t-6.5 20q5 2 17 7t17 7q3 1 14 -32t21 -66l10 -33l-5 22.5t-9.5 43.5t-10.5 49.5t-3 19.5q24 4 35 4l12 -117q12 117 14 117q13 0 37 -4l-27 -143q39 139 43 139 q7 -2 18.5 -7.5t14.5 -6.5q1 0 -11 -34.5t-24 -69.5l-12 -34l70 127l24 -18q7 -12 0 -31l-129 -182v-270q13 -3 35 -14.5t31 -20.5l192 -166l58 139q25 58 78 58h372q57 0 80.5 -26t32.5 -91l20 -195q17 -104 -88 -104h-508q-40 0 -63 26l-268 234q-79 83 -27 135q1 0 18 17 l2 278zM553 530l27 189v8q0 72 31.5 133.5t86.5 100.5q60 53 154.5 53t140.5 -53q115 -94 115 -234v-6l35 -191q5 -17 -3.5 -27.5t-27.5 -10.5h-123q-63 -48 -145 -48q-83 0 -146 48h-118q-15 0 -23 10.5t-4 27.5zM666 727q0 -78 51.5 -134t126.5 -56q74 0 126 55.5 t54 134.5q0 11 -4 31h-352q-2 -10 -2 -31z" />
<glyph unicode="secure" horiz-adv-x="972" d="M102 190v451v64q0 131 116.5 225t273.5 94q158 0 268 -93.5t110 -225.5v-515q0 -80 -54.5 -135t-133.5 -55h-383q-80 0 -138.5 55.5t-58.5 134.5zM231 641h523v64q0 78 -78 134t-184 56q-101 0 -181 -56.5t-80 -133.5v-64zM410 383q0 -46 43 -68l-39 -133q0 -10 2 -12 q6 -6 12 -6h129q5 0 8 6q5 5 2 12l-37 133q41 20 41 68q0 34 -23 57t-59 23q-30 0 -54.5 -23.5t-24.5 -56.5z" />
<glyph unicode="picnic" horiz-adv-x="1363" d="M102 610q0 25 17.5 42.5t42.5 17.5h157q24 0 42 -18t18 -42q0 -25 -18 -41t-42 -16h-4h-2v-39h152l72 254h-134h-6q-28 1 -45.5 22t-17.5 50q0 31 20 52t52 21h546q30 0 51 -21.5t21 -51.5q0 -28 -20 -49.5t-48 -22.5h-4h-123l70 -254h152v39h-2h-7q-25 2 -41 17.5 t-16 39.5t17.5 42t41.5 18h158q25 0 42.5 -17.5t17.5 -42.5q0 -24 -16.5 -39.5t-41.5 -17.5h-6h-2v-119q0 -32 -21 -50.5t-57 -18.5h-170l58 -152v-2q7 -26 -5 -50.5t-34 -33.5q-6 -1 -14 -3.5t-11 -2.5q-22 0 -39.5 13.5t-23.5 33.5l-72 197h-250l-70 -195v-2 q-9 -26 -35.5 -39t-48.5 -2q-26 9 -38.5 34t-4.5 52l56 152h-170q-37 0 -57.5 24.5t-20.5 71.5v92h-2h-4q-25 0 -42.5 15.5t-17.5 41.5zM604 514h154l-68 254h-16z" />
<glyph unicode="aircon" horiz-adv-x="1105" d="M102 281q0 14 13.5 30.5t34.5 28.5q19 9 18 25t-21 28t-19.5 29t22.5 29l2 2q24 10 50.5 10.5t45.5 -10.5q21 -12 46 -14.5t40 5.5q15 10 26 29.5t11 40.5q0 45 -2 45l-37 21q-29 19 -84 -7q-17 -9 -46 -8.5t-50 10.5l-2 3q-22 12 -22 28t22 25q19 14 20 29t-20 28 q-20 10 -34 26.5t-14 30.5q0 25 25 43q27 14 74 -14q20 -11 33.5 -2.5t13.5 31.5q0 24 15 31.5t34 -3.5l2 -4q21 -10 35 -34.5t14 -47.5q0 -22 11 -44.5t24 -30.5q35 -21 39 -21q16 11 41 23l37 24v43q0 16 -14 36.5t-33 29.5q-20 10 -33.5 35.5t-13.5 50.5v2q0 25 13.5 33 t33.5 -4t34.5 -4t14.5 30t7.5 43t16.5 29q11 4 27 4t25 -4q11 -8 18.5 -28.5t7.5 -43.5q0 -22 13.5 -30t33.5 4t33.5 4t13.5 -33v-2q0 -25 -13.5 -50.5t-33.5 -35.5q-18 -9 -32.5 -29.5t-14.5 -36.5v-43q16 -14 39 -24l41 -23q19 9 37 19q14 9 24.5 31.5t10.5 45.5 q0 22 15 47t36 35l2 4q19 11 34 3.5t15 -31.5q0 -23 12.5 -31t34.5 2q19 12 40 16t30 -2q29 -16 29 -43q0 -14 -14 -30.5t-34 -26.5q-22 -12 -22 -28t22 -29q22 -9 22 -25t-22 -28l-2 -3q-21 -10 -50 -10.5t-46 8.5q-55 26 -84 7q-36 -18 -39 -21v-45q0 -21 11 -41t26 -29 q15 -8 40 -5.5t46 14.5q19 11 45.5 10.5t50.5 -10.5l2 -2q22 -12 22 -29t-20 -29q-22 -12 -23 -28t21 -25q21 -12 34.5 -28.5t13.5 -30.5q0 -11 -8 -24t-19 -19q-9 -6 -31 -2t-39 14q-22 11 -34.5 3t-12.5 -30q0 -24 -15 -31.5t-34 3.5h-2q-21 13 -35 37.5t-14 46.5 q0 24 -11 46t-26 31l-37 19q-20 -9 -43 -23l-39 -24v-43q0 -16 14 -37t33 -31q20 -10 33.5 -34.5t13.5 -49.5v-4q0 -23 -13.5 -31.5t-33.5 2.5q-20 13 -33.5 5t-13.5 -29q0 -23 -9 -44.5t-20 -27.5q-23 -11 -49 0q-11 6 -18.5 27.5t-7.5 44.5q0 21 -13.5 29t-33.5 -5 q-19 -11 -33 -2.5t-14 31.5v4q0 25 13.5 49.5t33.5 34.5q19 10 33 31t14 37v43q-19 12 -39 24l-41 23l-37 -19q-15 -9 -26 -31t-11 -46q0 -22 -14 -46.5t-35 -37.5h-2q-49 -22 -49 28q0 22 -12.5 30t-34.5 -3q-19 -11 -40 -14.5t-32 2.5q-10 6 -17.5 19t-7.5 24zM479 514 q0 -19 11 -37t26 -26l35 -21q5 0 37 21q15 8 26 25.5t11 37.5q0 15 -11 33.5t-26 25.5l-37 23q-15 -13 -35 -23q-15 -7 -26 -25.5t-11 -33.5z" />
<glyph unicode="breakfast" horiz-adv-x="1273" d="M102 592v4q0 17 12 29t31 12h811q17 0 29 -12t12 -29v-4v-14q10 2 29 2q62 0 103.5 -41.5t41.5 -102.5t-41.5 -102t-103.5 -41q-75 0 -117 55l-78 -149q-9 -14 -29 -23.5t-40 -9.5h-424q-18 0 -39 9.5t-33 23.5l-155 311q-9 45 -9 82zM178 41q0 26 18 44.5t44 18.5h671 q23 0 41.5 -19t18.5 -44q0 -20 -19 -37.5t-41 -17.5h-671q-25 0 -43.5 17t-18.5 38zM369 899q-30 56 28 131q8 7 17.5 3t12 -12t-2.5 -15q-9 -8 -18.5 -25.5t-10.5 -30.5q-8 -35 15 -55q4 -4 10 -11t9.5 -10.5t7.5 -9t5 -10.5q26 -41 4 -86q-4 -18 -20 -49q-6 -11 -21.5 -4 t-9.5 20q3 7 16 27.5t15 34.5q5 27 -23.5 58.5t-33.5 43.5zM518 899q-26 56 27 131q7 7 16 3t11 -12t-3 -15q-8 -8 -16.5 -25.5t-9.5 -30.5q0 -41 14 -55q6 -8 19 -21t18 -20q22 -41 6 -86q-4 -8 -14.5 -24.5t-14.5 -24.5q-5 -6 -12.5 -6t-13 7t-2.5 15q4 8 10.5 19.5 t11 21.5t6.5 21q5 27 -22 59.5t-31 42.5zM656 967.5q10 34.5 36 62.5q6 7 14.5 3t11.5 -12t-3 -15q-18 -15 -27 -56q-7 -34 14 -55q5 -6 18.5 -19.5t16.5 -21.5q17 -42 4 -86q-1 -4 -24 -49q-5 -6 -13 -6t-13.5 7t-0.5 15q2 7 13 27.5t12 34.5q4 21 -5.5 37t-26.5 33.5 t-24 31.5q-13 34 -3 68.5zM940 436q0 -33 25.5 -58.5t60.5 -25.5q34 0 60 26t26 58q0 36 -25.5 60t-60.5 24q-36 0 -61 -24t-25 -60z" />
<glyph unicode="family" horiz-adv-x="1175" d="M102 223v187q0 34 27 61t59 27h177q33 0 59.5 -26.5t26.5 -61.5l2 -187q-1 -13 -11 -23t-22 -10q-14 0 -23.5 10t-9.5 23v170h-20v-397q0 -19 -11 -30t-28 -11q-15 0 -26 11.5t-11 29.5v207h-27v-207q0 -19 -11 -30t-28 -11q-18 0 -29.5 11.5t-11.5 29.5v397h-18v-170 q0 -13 -9.5 -21.5t-23.5 -8.5q-12 0 -21.5 9t-9.5 21zM203 580q0 29 20 49t51 20q28 0 49 -20t21 -49q0 -28 -21 -48t-49 -20q-30 0 -50.5 20t-20.5 48zM518 385v297q0 55 42 96t91 41h285q52 0 94.5 -40.5t42.5 -96.5v-299q0 -22 -14 -36.5t-37 -14.5q-22 0 -36.5 14.5 t-14.5 34.5v272h-31v-635q0 -25 -18 -44t-45 -19t-45.5 19t-18.5 44v332h-39v-332q0 -25 -18 -44t-43 -19q-27 0 -45.5 19t-18.5 44v635h-28v-268q0 -21 -15.5 -36t-36.5 -15q-23 0 -37 14.5t-14 36.5zM678 958q0 45 32.5 78t77.5 33q46 0 79.5 -33.5t33.5 -77.5 q0 -47 -33.5 -79.5t-79.5 -32.5t-78 32.5t-32 79.5z" />
<glyph unicode="kids" horiz-adv-x="1314" d="M104 342q3 44 70 37l145 -4q42 106 54 137q6 15 22.5 45t29.5 53l13 23l25 39l-182 -123q-9 -11 -31 -10.5t-29 12.5q-10 15 -5.5 29t26.5 34q203 142 217 150q36 22 73 6l56 -27q3 -1 8.5 -4t8 -4.5t7 -4t7 -4t6 -5t6.5 -6t6 -6.5t6 -9l105 -165q46 -62 10 -91 q-18 -8 -34.5 -1.5t-27.5 24.5q-80 120 -96 145l-72 -145l72 -148q2 -8 2 -24q2 -4 2 -6v-160q-2 -30 -11.5 -46.5t-33.5 -16.5q-41 0 -41 65v154l-80 135l-47 -109q-25 -30 -78 -26l-155 8q-29 2 -43 13t-11 36zM541 870q0 35 26 61.5t60 26.5q36 0 62 -26t26 -62 q0 -35 -25.5 -60.5t-62.5 -25.5q-34 0 -60 25.5t-26 60.5zM692 141q-19 34 37 76l105 72q2 141 8 168q4 35 43 116l16 37q2 4 6.5 11t16.5 23.5t23.5 28.5t26.5 19.5t27 3.5l41 -18q6 -4 16.5 -10.5t18.5 -13.5t15 -17l94 -156q21 -26 24 -48t-12 -34q-15 -9 -30.5 -3 t-24.5 24q-78 108 -90 131l-47 -105q99 -114 122 -159q5 -13 4.5 -49t-3.5 -74l-3 -39q0 -31 -7.5 -45t-28.5 -14q-43 -3 -43 61v145l-113 113q-7 -94 -19 -123q-10 -23 -19.5 -32t-31.5 -21l-102 -72q-53 -23 -70 4zM1020 788q0 33 25 56.5t59 23.5t57 -23t23 -57 t-23 -56.5t-57 -22.5t-59 23t-25 56z" />
<glyph unicode="gym" horiz-adv-x="1024" d="M-68 291q0 95 70 164t168 69q97 0 166.5 -69t69.5 -164q0 -98 -69.5 -168t-166.5 -70q-98 0 -168 70t-70 168zM27 291q0 -60 41.5 -103t101.5 -43q59 0 101 43t42 103q0 58 -42 99.5t-101 41.5q-60 0 -101.5 -41t-41.5 -100zM307 629q0 23 15 41l147 147h2q17 17 39 17 q24 0 41 -17l131 -131h94q25 0 41.5 -17t16.5 -42q0 -22 -17 -39t-41 -17h-119h-4q-8 0 -16 4q-8 2 -19 13l-108 106l-64 -65l105 -109l12 -18q4 -8 4 -17v-4v-245q0 -23 -16.5 -38.5t-40.5 -15.5q-22 0 -38.5 15.5t-16.5 38.5v219l-133 133q-15 18 -15 41zM569 883 q0 38 27.5 65t65.5 27t65 -27t27 -65t-27 -65t-65 -27t-65.5 27t-27.5 65zM618 291q0 95 69.5 164t166.5 69q98 0 168 -69t70 -164q0 -98 -70 -168t-168 -70q-97 0 -166.5 70t-69.5 168zM709 291q0 -60 42.5 -103t102.5 -43t101.5 43t41.5 103q0 59 -41.5 100t-101.5 41 t-102.5 -41.5t-42.5 -99.5z" />
<glyph unicode="reception" horiz-adv-x="1318" d="M102 154q0 20 11.5 35.5t20.5 21t30 16.5q22 13 22 19v26q0 4 5 9.5t10 5.5h440h39h440q5 0 10 -4t5 -11v-26q0 -6 22 -19q15 -8 21.5 -12t17.5 -13t16 -21t5 -27q0 -13 -11 -13h-1091q-5 0 -9 4.5t-4 8.5zM190 362q0 154 137 260.5t332 106.5q196 0 333.5 -106.5 t137.5 -260.5q0 -14 -10 -14h-919q-11 0 -11 14zM532 856q0 27 127 27h3q126 0 126 -27q1 -12 -25 -14.5t-52.5 -8.5t-26.5 -24h-22h-3h-22q0 18 -26.5 24t-53 8.5t-25.5 14.5zM616 793q0 -11 9 -11h71q3 0 7 3.5t4 7.5q0 3 -4 6.5t-7 3.5h-71q-3 0 -6 -3.5t-3 -6.5z M641 737v41h39v-41h-21h-18z" />
<glyph unicode="spa" horiz-adv-x="1359" d="M104 -6v31q0 8 7.5 15t17.5 7h852q30 0 56 14.5t44.5 29.5t32.5 15h107q14 0 22.5 -5.5t10.5 -10.5l1 -6v-90v-4.5t-1.5 -9t-5 -12t-12 -9.5t-19.5 -4h-1074q-18 0 -28 9.5t-11 19.5v10zM104 135q0 33 41 53h13h2l143 21l6 2l117 18h12l86 13l8 2l125 22h299 q38 0 65.5 -28t27.5 -66q0 -37 -27.5 -62.5t-65.5 -25.5h-323q-16 0 -27.5 10.5t-11.5 28.5q0 13 12.5 25t26.5 12h168l137 30l-6 35l-135 -26h-164q-30 0 -53 -23t-23 -53q0 -24 12 -39h-409q-24 0 -40 13.5t-16 37.5zM106 967q93 -21 156 -103q57 -74 47 -178 q-95 19 -151 102q-62 74 -52 179zM246 924q9 79 65 145q58 -68 64 -145q-22 -20 -37 -43q-13 -15 -29 -43q-13 30 -24 43q-7 11 -39 43zM324 799q20 42 34 65q67 82 158 103q7 -103 -51 -179q-47 -63 -125 -96q3 59 -16 107zM586 471l51 147q12 28 29.5 41t56.5 13h248 q72 0 82 -54l57 -147q5 -32 -16 -49l-125 -82q-34 -17 -58 10q-8 15 -4 31t17 25l59 40l41 27l-27 76h-41l23 -64l-76 -47q-28 -25 -31 -51q-6 -28 9 -55q3 -2 9 -9.5t9 -9.5h-104q3 2 8 10t6 9q18 18 14 55q-8 28 -35 51l-77 47l24 64h-39l-30 -76l39 -27l61 -40 q15 -9 18.5 -25t-8.5 -31q-7 -13 -23 -15.5t-28 5.5l-127 82q-21 18 -12 49zM731 801q0 44 30.5 75t74.5 31t74 -31t30 -75q0 -42 -30.5 -74.5t-73.5 -32.5t-74 32.5t-31 74.5zM1063 240q0 -38 30.5 -68.5t69.5 -30.5t66.5 30t27.5 69q0 41 -27 68.5t-67 27.5 q-41 0 -70.5 -27.5t-29.5 -68.5z" />
<glyph unicode="money" horiz-adv-x="849" d="M102 205q0 38 26 68t65 30q17 0 81 -25.5t113 -25.5v184q-154 43 -217.5 100.5t-63.5 143.5q0 116 81 190.5t200 83.5v58q0 35 37 35q21 0 29 -8.5t8 -26.5v-58q35 -1 69.5 -7t71.5 -19t59.5 -39t22.5 -62t-23 -62t-61 -26q-22 0 -67 21.5t-72 21.5v-166 q62 -18 106.5 -37t89 -49.5t68 -77t23.5 -106.5q0 -53 -18 -98.5t-47.5 -77.5t-67.5 -55t-77 -35t-77 -14v-54q0 -35 -37 -35q-21 0 -29 8.5t-8 26.5v54q-285 20 -285 139zM319 705q0 -28 19.5 -45.5t48.5 -22.5v145q-29 -5 -48.5 -25.5t-19.5 -51.5zM461 252q31 0 51 25 t20 57q0 35 -17.5 54t-53.5 30v-166z" />
<glyph unicode="nosmoking" horiz-adv-x="1232" d="M102 512q0 211 154 362q152 152 360 152q211 0 363 -152q151 -151 151 -362q0 -209 -151 -360q-151 -154 -363 -154q-209 0 -360 154q-154 151 -154 360zM215 512q0 -167 117 -284t284 -117q121 0 240 82l-559 559q-82 -119 -82 -240zM289 397v90h264l94 -90h-358z M381 836l559 -560q80 116 80 236q0 169 -117.5 286t-286.5 117q-121 0 -235 -79zM735 487h139v-90h-40zM821 651q1 12 7 24t18 29.5t16 24.5q6 12 12 11q3 -1 3 -7q0 -35 14 -57q6 -6 22 -14.5t19 -10.5l4 -4q15 -18 18 -41q6 -28 -16 -71l-4 -8t-5.5 -10t-6.5 -5 q-13 -3 -13 8q-3 26 -20 43q-35 25 -39 29q-31 24 -29 59zM891 397h72v90h-72v-90z" />
<glyph unicode="parking" horiz-adv-x="1026" d="M102 106v822q0 55 37 87t90 32h310q75 0 143.5 -23t123 -66t86.5 -113t32 -157q0 -161 -98.5 -260.5t-274.5 -99.5h-195v-222q0 -64 -34 -96.5t-93 -32.5q-57 0 -92 33t-35 96zM356 541h136q78 0 125 43.5t47 103.5q0 69 -47.5 107.5t-124.5 38.5h-136v-293z" />
<glyph unicode="recreation" horiz-adv-x="1249" d="M104 342q4 37 35 58.5t68 13.5l35 -6q6 0 10 -2l127 -23l65 129l64 154h-27l-108 -99q-25 -22 -62 -22q-41 0 -63 28q-26 26 -25 64t29 61l149 136l2 -3q13 13 43 13l193 -2q5 -2 13.5 -4t13.5 -4l88 -35q48 -10 61 -56l33 -102h96h4l13 -2q35 -4 54 -26.5t19 -57.5 q0 -38 -24 -62t-64 -24l-160 4q-35 0 -59 21l-29 -68l52 -154q4 -12 4 -22v-8v-197q0 -37 -25.5 -63.5t-62.5 -26.5q-35 0 -60.5 26.5t-25.5 63.5v188l-29 80l-39 -59q-9 -31 -37.5 -47t-62.5 -10l-236 43q-35 6 -56.5 36.5t-15.5 65.5zM676 961q0 44 32 76t78 32 q43 0 75 -32t32 -76q0 -45 -32 -77t-75 -32q-46 0 -78 31.5t-32 77.5zM938 59q0 -43 30.5 -73.5t73.5 -30.5t74 30.5t31 73.5t-31 74t-74 31t-73.5 -31t-30.5 -74z" />
<glyph unicode="restaurant" horiz-adv-x="1230" d="M111 59q-22 52 22 99q21 20 57 54.5t72.5 69t70 66t55.5 52.5l22 20l6 6l110 -113l-284 -274q-29 -29 -62 -29q-50 0 -69 49zM174 899q9 29 33 51.5t41 30.5t22 8l4 2l570 -577l256 -256q41 -41 22 -88q-19 -50 -75 -50q-37 0 -66 29l-54 54t-65.5 66.5t-61.5 63 t-48 49.5l-19 19l-28 31l-107 8l-2 2l-363 373q-83 108 -59 184zM635 754q-6 30 14 53l197 197q12 12 30.5 12t30.5 -12q12 -14 12 -32t-12 -32l-174 -174l35 -33l168 166q12 12 30.5 12t30.5 -12t12 -30.5t-12 -30.5l-168 -168l33 -31l176 174q12 12 31 12t31 -12 q14 -14 14 -31q0 -16 -14 -30l-203 -203q-15 -12 -37 -12q-34 0 -67 30l-129 131q-26 26 -29 56z" />
<glyph unicode="shopping" horiz-adv-x="1067" d="M102 35l45 745h97h28q0 1 -1 2t-1 2q0 108 77 185.5t185 77.5q107 0 183.5 -73.5t79.5 -180.5q0 -1 1 -3.5t1 -3.5t-1 -2t-1 -2h18h105l4 -55l43 -692q0 -23 -19 -39q-13 -19 -37 -19h-751q-22 0 -41 19q-15 19 -15 39zM287 193q0 -18 8 -23q5 -8 22 -8h420q13 0 21 8 q8 5 8 23l-23 387l-2 26h-59h-53h-209h-58l-53 -2zM381 780l305 2v2q0 62 -45.5 108.5t-108.5 47.5q-62 -2 -106 -46t-45 -108v-2v-4z" />
<glyph unicode="swimming" horiz-adv-x="1318" d="M102 223q0 23 13 41.5t35 24.5q2 4 4 4q133 36 225 -43q46 -40 76 -33q1 0 37 27l6 4q2 2 7 6t7 6q58 47 141 47h11q15 0 29.5 -4t25 -7.5t25.5 -12t21 -12.5t21.5 -14.5t18.5 -12.5q32 -32 55 -35q18 0 51 29l4 6q27 19 47.5 31t55 21.5t69.5 6.5q46 0 82 -16h5 q43 -19 43 -66q0 -29 -19.5 -48t-46.5 -19q-19 0 -23 2q-27 8 -49 8h-8q-34 0 -70 -31l-2 -2q-25 -19 -39 -29t-42 -21t-54 -11h-16h-6q-53 10 -123 63q-37 33 -60 33h-8q-35 0 -55 -14q-1 -2 -7 -7.5t-11 -9.5q-42 -38 -91 -53q-53 -13 -88 0t-80 53q-17 17 -57 24t-69 -1 h-3q-34 -10 -61 11t-27 54zM144.5 633q1.5 33 23.5 55q10 10 22 14l275 187q20 14 46 12t46 -20l420 -365q22 -14 22 -45q0 -29 -22 -45l-62 -57q-19 -19 -55 -19q-26 0 -37 8l-11 5q-11 5 -30 12t-42.5 14t-53.5 12t-59 5q-89 0 -156 -48q-15 -11 -29 0l-92 66 q-24 24 -24 45q0 23 24 43l176 139l4 4q0 3 -4 7l-34 36q-4 4 -14.5 4.5t-14.5 -2.5l-164 -112q-5 -4 -33 -23q-22 -17 -52 -14t-52 24q-19 25 -17.5 58zM805 807q0 65 43.5 110.5t107.5 45.5t108 -45.5t44 -110.5q0 -66 -44 -111t-108 -45t-107.5 45t-43.5 111z" />
<glyph unicode="transfers" horiz-adv-x="1064" d="M102 227v695q0 43 32.5 72.5t78.5 29.5h635q47 0 81 -29.5t34 -72.5v-695q0 -48 -39 -75q0 -15 -1 -36t-1 -26v-4q0 -37 -27.5 -62.5t-65.5 -25.5q-37 0 -63.5 25.5t-26.5 62.5v4q0 5 -1 18.5t-1 18.5h-403v-37v-4q0 -36 -28 -62t-64 -26t-64 26t-28 62v4q0 6 -1.5 24.5 t-1.5 32.5q-45 25 -45 80zM195 287q0 -36 25 -61t61 -25q35 0 60.5 25.5t25.5 60.5t-25.5 60.5t-60.5 25.5q-36 0 -61 -25t-25 -61zM199 481q0 -22 17 -36.5t38 -14.5h555q25 0 40 14t15 37v389q0 22 -15.5 37t-39.5 15h-555q-21 0 -38 -15.5t-17 -36.5v-389zM698 287 q0 -35 25.5 -60.5t60.5 -25.5t60.5 25.5t25.5 60.5t-25.5 60.5t-60.5 25.5t-60.5 -25.5t-25.5 -60.5z" />
<glyph unicode="wifi" horiz-adv-x="1273" d="M102 711q0 35 21 53l8 6q97 109 228 168t274 59q148 0 281.5 -63t228.5 -178l8 -6q22 -24 20 -59.5t-28 -59.5q-20 -23 -60 -23q-33 0 -57 21l-2 6q-72 89 -174.5 137.5t-216.5 48.5q-109 0 -207.5 -44t-169.5 -124l-6 -6q-26 -26 -64 -26q-37 0 -57 28q-27 21 -27 62z M276 471q0 42 23 59l2 2q65 71 151.5 109.5t182.5 38.5q95 0 184.5 -41t155.5 -115h2q22 -23 22 -58t-22 -63q-27 -24 -59 -24q-41 0 -62 24q0 1 -1 2.5t-1 2.5q-42 50 -99 78t-120 28q-61 0 -118 -27t-99 -73q-6 -6 -10 -8q-34 -21 -58 -19.5t-51 25.5q-23 26 -23 59z M449 213q0 74 55 127t131 53q77 0 130.5 -52.5t53.5 -127.5q0 -79 -53.5 -132.5t-130.5 -53.5q-76 0 -131 54t-55 132z" />
<glyph unicode="creditcard" horiz-adv-x="1323" d="M104.5 540.5q3.5 12.5 12.5 16.5l782 451q9 8 22 4.5t17 -15.5l279 -483q9 -22 -11 -39l-782 -450q-9 -5 -22 -1.5t-17 13.5l-279 479q-5 12 -1.5 24.5zM170 520l59 -104l734 424l-62 104zM307 283l115 -195l731 422l-113 197zM416 174l18 -35l92 54l-20 34zM539 246 l20 -31l217 123l-18 35z" />
<glyph unicode="concierge" horiz-adv-x="1228" d="M102 381v158q0 51 21.5 70.5t73.5 19.5h338h4q50 -5 59 -41q6 -30 6 -45v-97l170 31q30 7 56 -8t34 -43q7 -31 -8 -57.5t-43 -32.5l-258 -41q-10 -4 -33 -4h-14h-338q-42 3 -55 22.5t-13 67.5zM104 -45v248q0 15 11 27t24 12h369h381h203q12 0 23 -12t11 -27v-248 q0 -13 -11 -25t-23 -12h-320h-149h-484q-13 0 -24 11.5t-11 25.5zM158 903q0 85 60.5 145t146.5 60t147 -60t61 -145q0 -87 -60.5 -148t-147.5 -61q-86 0 -146.5 60.5t-60.5 148.5zM254 498q0 -14 10.5 -21.5t22.5 -3.5l73 23l80 -29q15 -4 24 3t9 22v40q0 32 -33 25 l-71 -25l-82 29q-12 7 -22.5 0.5t-10.5 -18.5v-45z" />
<glyph unicode="pets" horiz-adv-x="1716" d="M105.5 644.5q7.5 45.5 46.5 72.5q40 26 85.5 14.5t75.5 -51.5q29 -42 26.5 -99t-40.5 -81q-36 -25 -89.5 -6t-82.5 63q-29 42 -21.5 87.5zM266 227q2 46 18 71.5t37 36t41.5 22t35 39.5t14.5 77q5 36 25.5 63.5t46 42t55.5 23.5t48 11.5t29 2.5t29 -2.5t47.5 -11.5 t55 -23.5t47 -42t26.5 -63.5q0 -49 14 -77t34.5 -39.5t41.5 -22t37.5 -36.5t20.5 -71q0 -83 -103 -139.5t-250 -58.5q-146 2 -248 58.5t-102 139.5zM324 811q-12 56 17 103.5t83 56.5q50 15 96.5 -19t57.5 -90q12 -61 -15 -119t-78 -67q-51 -12 -101.5 32t-59.5 103z M647.5 781.5q-11.5 67.5 16.5 117.5q26 51 79 70.5t99 -6.5q49 -25 64.5 -78.5t-11.5 -104.5q-29 -55 -87.5 -84.5t-102.5 -5.5q-46 24 -57.5 91.5zM891 590q-1 59 29 98t77 47.5t86 -18.5q37 -26 41.5 -73t-24.5 -87q-32 -44 -83 -61.5t-89 8.5q-36 27 -37 86zM1571 -1544 q0 6 6 6h33q4 0 4 -6v-31q0 -6 -4 -6h-33q-6 0 -6 6v31zM1573 -1544v-31q0 -4 4 -4h33q4 0 4 4v31q0 4 -4 4h-33q-4 0 -4 -4zM1575 -1559q0 7 2 7q2 2 6 -2q0 -5 -2 -7q-4 0 -6 2zM1581 -1569q0 3 2 4t2 4l8 5q6 -1 6 -5q0 -3 3.5 -4t3.5 -4q0 -8 -13 -8q-12 0 -12 8z M1583 -1548q0 4 4 6q4 0 4 -4q2 -4 -2 -8q-6 0 -6 6zM1594 -1550q0 2 1 4q0 2 2.5 2.5t4.5 -0.5q2 0 2 -6q-4 -4 -9 -2q-1 0 -1 2zM1602 -1556.5q0 2.5 2 4.5q3 3 6 0q2 0 2 -3t-2 -4q0 -1 -2 -1t-4 1q-2 0 -2 2.5z" />
<glyph unicode="longarrow" horiz-adv-x="1228" d="M102 514q0 41 29.5 70.5t69.5 29.5h585l-184 185q-29 29 -29 69.5t29 69.5q28 29 69 29t70 -29l357 -356q28 -28 28 -70t-28 -70l-357 -356q-29 -29 -70 -29t-69 29q-29 28 -29 69t29 70l191 191h-592q-40 0 -69.5 29t-29.5 69zM102 514q0 41 29.5 70.5t69.5 29.5h585 l-184 185q-29 29 -29 69.5t29 69.5q28 29 69 29t70 -29l357 -356q28 -28 28 -70t-28 -70l-357 -356q-29 -29 -70 -29t-69 29q-29 28 -29 69t29 70l191 191h-592q-40 0 -69.5 29t-29.5 69z" />
<glyph unicode="sort" horiz-adv-x="1228" d="M102 156q0 28 20 47.5t48 19.5h887q29 0 49 -19.5t20 -47.5q0 -29 -20 -49.5t-49 -20.5h-887q-28 0 -48 20.5t-20 49.5zM102 393q0 28 20 48t48 20h887q29 0 49 -20t20 -48q0 -29 -20 -49t-49 -20h-887q-28 0 -48 20t-20 49zM102 631q0 29 20 49t48 20h887q29 0 49 -20 t20 -49q0 -28 -20 -48t-49 -20h-887q-28 0 -48 20t-20 48zM102 868q0 29 20 49.5t48 20.5h887q29 0 49 -20.5t20 -49.5q0 -28 -20 -47.5t-49 -19.5h-887q-28 0 -48 19.5t-20 47.5z" />
<glyph unicode="view" horiz-adv-x="1046" d="M102 162v258q0 28 19 46.5t45 18.5h260q28 0 47 -18.5t19 -46.5v-258q0 -26 -19 -45t-47 -19h-260q-26 0 -45 19t-19 45zM102 614v258q0 28 19 47t45 19h260q28 0 47 -19t19 -47v-258q0 -26 -19 -44.5t-47 -18.5h-260q-26 0 -45 18.5t-19 44.5zM555 162v258q0 28 19 46.5 t47 18.5h258q28 0 46.5 -18.5t18.5 -46.5v-258q0 -26 -19 -45t-46 -19h-258q-28 0 -47 19t-19 45zM555 614v258q0 28 19 47t47 19h258q28 0 46.5 -19t18.5 -47v-258q0 -26 -18.5 -44.5t-46.5 -18.5h-258q-28 0 -47 18.5t-19 44.5z" />
<glyph unicode="search" horiz-adv-x="1228" d="M102 623q0 163 118 279t284 116q108 0 204 -56.5t153 -150.5t57 -201q0 -111 -60 -207l246 -241q41 -45 8 -78l-61 -59q-19 -19 -44 -19t-42 19l-248 241q-95 -53 -201 -53q-166 0 -290 123t-124 287zM225 623q0 -114 87.5 -200.5t203.5 -86.5q115 0 196 80t81 194 t-86.5 199.5t-202.5 85.5q-115 0 -197 -79.5t-82 -192.5z" />
<glyph unicode="lonelyplanet" horiz-adv-x="2269" d="M102 401v301h70v-151q29 53 76 70q42 7 80 -13t57 -59q18 72 98 72q36 0 61 -19.5t34 -52.5q32 62 81 72q88 12 129 -72v153h72v-81h74v-129q0 -15 8.5 -21t17.5 0t9 21v129h82v-236q0 -41 -29 -70q-36 -26 -76 -26q-41 -7 -94 26l45 62q15 -18 39 -16.5t33 24.5 q0 3 2 14t2 19q-29 -29 -66.5 -20t-46.5 46v-43h-72v99h-153q9 -29 31.5 -36t48.5 11l61 -8q0 -7 -7 -18.5t-20 -23.5t-38 -19.5t-56 -4.5q-27 6 -46 23.5t-25 42.5v-66h-80v125q0 23 -23.5 23t-23.5 -23v-125h-68v74q-23 -37 -48 -55t-60 -19q-62 0 -109 66v-66h-70z M227 512q0 -20 14.5 -32.5t34.5 -12.5q19 0 32.5 12.5t13.5 32.5q0 18 -14 31.5t-32 13.5q-19 0 -34 -14t-15 -31zM631 518h96q-12 35 -48 35t-48 -35zM647 340l25 8l28 8q48 -132 165 -215.5t265 -83.5q143 0 261.5 84.5t164.5 214.5l52 -16q-52 -149 -184 -244.5 t-294 -95.5q-166 0 -297 94.5t-186 245.5zM647 678q55 154 186 250t297 96q164 0 295.5 -95.5t182.5 -250.5l-27 -6l-25 -8q-46 133 -164 218t-262 85q-148 0 -265 -85t-165 -220zM1137 313v199q0 42 29.5 73t69.5 35t79 -22q27 -23 35 -47v151h82v-151q45 82 124 70 q61 -20 82 -72q12 47 50.5 65t83.5 0q25 -11 36 -25t21 -40q22 47 62 64.5t87 -1.5q53 -26 62 -63v113h71v-41h56v-64h-51q0 -8 -0.5 -19.5t-0.5 -17.5t1 -13.5t4 -14.5q3 -11 15.5 -15t21.5 6l4 2l6 -59q0 -8 -16.5 -16t-37.5 -9t-40 11q-33 28 -33 88h-150q7 -22 25 -30.5 t34 -5.5t25 13l62 -10q-33 -95 -146 -64q-12 6 -20.5 11.5t-18 16t-12.5 14.5t-16 22v-66h-68v131q-3 21 -28 19t-25 -25v-131l-64 -2h-18h-31v43q0 6 -7 -7q-21 -35 -38 -34q-37 -2 -68 16t-44 50v-60h-82v60q-14 -31 -52.5 -48t-80.5 -10l-5 7q5 -81 5 -97h-80zM1208 512 q0 -20 13 -32.5t32 -12.5q22 0 36 12.5t14 32.5q0 16 -14.5 30.5t-35.5 14.5q-18 0 -31.5 -14.5t-13.5 -30.5zM1487 512q0 -20 13 -32.5t32 -12.5q23 0 36 12t13 33q0 17 -13.5 31t-35.5 14q-18 0 -31.5 -14.5t-13.5 -30.5zM1890 518h92q-12 35 -47.5 35t-44.5 -35z" />
<glyph unicode="arrowright" horiz-adv-x="921" d="M102 225l267 287l-267 287l226 225l266 -281l225 -231l-225 -238l-266 -274zM102 225l267 287l-267 287l226 225l266 -281l225 -231l-225 -238l-266 -274z" />
<glyph unicode="poisights" horiz-adv-x="1058" d="M103 597q0 177 125 302t302 125t301.5 -125t124.5 -302q0 -66 -44 -152t-106.5 -161t-125 -141t-106.5 -105l-44 -38q-17 15 -46 40.5t-102.5 100.5t-130 145t-102.5 157.5t-46 153.5zM222 606q6 -8 16 -22t43.5 -49.5t68 -62.5t84.5 -49.5t98 -22.5t97.5 21t85.5 51.5 t66 61t45 51.5l15 21q-6 8 -16 22t-43 49.5t-67.5 62.5t-84.5 49.5t-98 22.5t-97.5 -21t-86 -51.5t-66 -61t-44.5 -51.5zM403 606q0 -53 38 -91t91 -38t91 38t38 91t-38 91t-91 38t-91 -38t-38 -91zM480 606q0 21 15 36.5t37 15.5q21 0 36 -15.5t15 -36.5t-15 -36t-36 -15 q-22 0 -37 15t-15 36z" />
<glyph unicode="poiactivities" horiz-adv-x="1058" d="M103 599q0 177 125 302t302 125t301.5 -125t124.5 -302q0 -66 -44 -152t-106.5 -161t-125 -141t-106.5 -105l-44 -38q-17 15 -46 40.5t-102.5 100.5t-130 145t-102.5 157.5t-46 153.5zM258 495q0 -18 11.5 -32t29.5 -17l133 -24q3 -1 9 -1q35 0 47 34l21 34l15 -46v-106 q0 -20 14.5 -35t35.5 -15q20 0 35 15t15 35v110v5q0 8 -3 14l-28 84l16 39q15 -13 32 -13h90q22 0 35.5 13t13.5 35q0 19 -11 32t-30 15l-6 1h-3h-54l-18 57q-8 27 -35 32l-48 20q-7 3 -17 3l-108 2q-14 0 -24 -6l-1 1l-83 -76q-16 -15 -16 -37q0 -19 13 -33q17 -17 37 -17 q18 0 33 13l60 55h16l-35 -86l-38 -73l-70 13q-1 0 -3 0.5t-3 0.5l-20 3q-20 4 -36.5 -8t-20.5 -32q-1 -3 -1 -9zM580 851q0 -25 18 -43t43 -18t43 18t18 43t-18 43t-43 18t-43 -18t-18 -43z" />
<glyph unicode="poientertainment" horiz-adv-x="1058" d="M103 599q0 177 125 302t302 125t301.5 -125t124.5 -302q0 -66 -44 -152t-106.5 -161t-125 -141t-106.5 -105l-44 -38q-17 15 -46 40.5t-102.5 100.5t-130 145t-102.5 157.5t-46 153.5zM231.5 680q-1.5 -5 4.5 -11l125 -123q14 -14 11 -33l-29 -173q-1 -8 2.5 -11t11.5 1 l155 81q18 9 35 0l156 -81q8 -4 11.5 -1t2.5 11l-30 173q-3 19 11 33l126 123q6 6 4 11t-10 6l-174 25q-18 2 -28 21l-78 157q-8 17 -17 0l-78 -157q-10 -19 -28 -21l-174 -25q-8 -1 -9.5 -6zM401 614l55 -54q7 -7 5 -15l-13 -76q-1 -4 1 -5t5 1l68 36q8 4 15 0l69 -36 q3 -2 5 -1t1 5l-13 76q-2 8 5 15l55 54q5 5 -3 7l-76 11q-8 2 -12 9l-34 69q-4 8 -8 0l-34 -69q-4 -7 -13 -9l-76 -11q-7 -1 -2 -7z" />
<glyph unicode="poisleeping" horiz-adv-x="1058" d="M103 599q0 177 125 302t302 125t301.5 -125t124.5 -302q0 -66 -44 -152t-106.5 -161t-125 -141t-106.5 -105l-44 -38q-17 15 -46 40.5t-102.5 100.5t-130 145t-102.5 157.5t-46 153.5zM263 450q0 -19 12.5 -32.5t29.5 -13.5t29.5 13.5t12.5 32.5v30h363v-29q0 -19 12 -32 t29 -13t29.5 13t12.5 32v69q0 21 -8 30q-8 8 -19 8h-419v209q0 19 -12.5 32.5t-29.5 13.5t-29.5 -13.5t-12.5 -32.5v-317zM381 739q0 -23 16.5 -39.5t39.5 -16.5t39 16.5t16 39.5t-16 39.5t-39 16.5t-39.5 -16.5t-16.5 -39.5zM388 631q0 -14 10.5 -24t24.5 -10h125h1h234 q22 41 10 72.5t-33.5 50.5t-35.5 19h-141q-7 25 -33 25q-14 0 -24.5 -10t-10.5 -24v-65h-92q-14 0 -24.5 -10t-10.5 -24z" />
<glyph unicode="poidrinking" horiz-adv-x="1058" d="M103 599q0 177 125 302t302 125t301.5 -125t124.5 -302q0 -66 -44 -152t-106.5 -161t-125 -141t-106.5 -105l-44 -38q-17 15 -46 40.5t-102.5 100.5t-130 145t-102.5 157.5t-46 153.5zM321.5 712.5q-1.5 -51.5 16 -95.5t67 -72.5t124.5 -28.5q63 0 107.5 19t66 50 t29 70.5t0 82t-24.5 83t-41 74.5h-268q-33 -34 -54 -82.5t-22.5 -100zM395 773q12 36 30 67l2 4h204l1 -4q18 -31 30 -67h-267zM398 328q0 -11 7.5 -18.5t18.5 -7.5h208q11 0 19 7.5t8 18.5v2q0 10 -7 18.5t-18 10.5q-40 11 -50 19q-14 13 -22 66q-1 5 -1 9v4v6q0 3 -3 6 q-2 2 -5 2l-8 -1q-16 -2 -26 -2q-2 0 -5.5 0.5t-5.5 0.5h-5q-3 2 -7 0q-3 -1 -3 -6q0 -3 -2 -23q-5 -55 -20 -66q-7 -5 -19 -9t-20 -5l-8 -1q-11 -2 -18.5 -10.5t-7.5 -18.5v-2z" />
<glyph unicode="poieating" horiz-adv-x="1058" d="M103 601q0 177 125 302t302 125t301.5 -125t124.5 -302q0 -66 -44 -152t-106.5 -161t-125 -141t-106.5 -105l-44 -38q-17 15 -46 40.5t-102.5 100.5t-130 145t-102.5 157.5t-46 153.5zM264 382q11 -26 37 -26q18 0 33 15l152 147l-59 59l-4 -3l-11 -11l-30 -27.5 t-37.5 -35t-38.5 -37t-30 -29.5q-23 -23 -12 -52zM298 830q-14 -42 31 -99l194 -198l1 -1l56 -5l15 -16l10 -11q10 -10 26 -25.5t33.5 -33.5t35 -35.5l28.5 -28.5q16 -16 35 -16q30 0 40 26q10 25 -12 47l-136 137l-304 308l-2 -1q-2 0 -11.5 -4t-22 -16t-17.5 -28zM543 752 q3 -17 16 -30l69 -69q16 -16 36 -16q11 0 19 6l108 108q7 7 7 17q0 9 -7 16q-17 16 -33 0l-93 -93l-18 17l90 89q7 7 7 16.5t-7 16.5q-17 16 -33 0l-90 -89l-18 18l93 93q7 7 7 16.5t-7 16.5t-17 7t-17 -7l-104 -105q-11 -11 -8 -28z" />
<glyph unicode="arrowdown" horiz-adv-x="1228" d="M102 643l226 225l286 -266l287 266l225 -225l-280 -266l-232 -225l-237 225zM102 643l226 225l286 -266l287 266l225 -225l-280 -266l-232 -225l-237 225z" />
<glyph unicode="arrowleft" horiz-adv-x="921" d="M102 512l492 -512l-266 281l-226 231l226 238l266 274l225 -225l-266 -287l266 -287l-225 -225z" />
<glyph unicode="arrowup" horiz-adv-x="1228" d="M102 428l281 266l231 226l238 -226l274 -266l-225 -225l-287 266l-192 -172l-94 -94z" />
<glyph unicode="calendar" horiz-adv-x="1226" d="M102 0v272v623h193v-66q0 -53 36.5 -90t90.5 -37q52 0 89.5 37t37.5 90v66h129v-66q0 -53 37 -90t90 -37q54 0 91.5 37t37.5 90v66h190v-895h-1022zM295 129h127v127h-127v-127zM295 385h127v127h-127v-127zM358 831v127q0 28 19 47t45 19t44.5 -19t18.5 -47v-127 q0 -26 -18.5 -44.5t-44.5 -18.5t-45 18.5t-19 44.5zM549 129h129v127h-129v-127zM549 383h129v129h-129v-129zM741 831v127q0 28 19 47t45 19q27 0 45 -19t18 -47v-127q0 -27 -18 -45t-45 -18q-26 0 -45 18.5t-19 44.5zM805 129l129 127h-129v-127zM805 385h129v127h-129 v-127z" />
<glyph unicode="filter" horiz-adv-x="1122" d="M102 1024h918l-399 -539v-331l-117 -154v483zM352 850l209 -283l209 283h-418z" />
<glyph unicode="poishopping" horiz-adv-x="1058" d="M103 601q0 177 125 302t302 125t301.5 -125t124.5 -302q0 -66 -44 -152t-106.5 -161t-125 -141t-106.5 -105l-44 -38q-17 15 -46 40.5t-102.5 100.5t-130 145t-102.5 157.5t-46 153.5zM316 382q0 -11 8 -19t20 -8h377q12 0 20 8t8 19l-22 348l-2 28l-52 -1h-9v3v3 q-1 53 -40 90.5t-92 37.5q-55 0 -93 -38.5t-38 -93.5v-3h-14h-48zM408 461q0 -6 5 -11q4 -4 11 -4h210q7 0 11 4t4 11l-11 194l-2 16h-29h-27l-105 -1h-28h-26zM455 756l1 1v2v1q1 32 23 54t53 22q32 0 54.5 -23t22.5 -54q0 -1 0.5 -1t0.5 -1z" />
<glyph unicode="poifestival" horiz-adv-x="1058" d="M103 599q0 177 125 302t302 125t301.5 -125t124.5 -302q0 -66 -44 -152t-106.5 -161t-125 -141t-106.5 -105l-44 -38q-17 15 -46 40.5t-102.5 100.5t-130 145t-102.5 157.5t-46 153.5zM210 469q2 -3 4 -3l105 -3l28 -100q0 -4 4 -4h1q2 0 4 2l55 89l101 -25q4 0 5 1 q1 3 0 6l-49 91l73 75q2 2 1 5q-2 3 -4 3l-105 4l-28 100q-2 4 -4 4q-3 0 -5 -3l-55 -88l-101 25q-4 0 -5 -1q-1 -3 0 -6l49 -92l-73 -74q-3 -3 -1 -6zM349 864q-1 -3 1 -5l47 -53l-36 -60q-1 -3 0 -6q1 -2 5 -2l69 15l35 -62q1 -2 4 -2h1q3 0 4 3l22 68l70 -1q3 0 5 3 q1 3 -1 5l-47 52l36 61q1 2 -1 6q-1 1 -5 1l-68 -14l-35 61q-1 3 -5 3q-2 0 -4 -4l-22 -66h-71q-3 0 -4 -3zM524 509l18 -38q2 -3 4 -3q124 -9 211 -101q8 -9 15 -17v-1q2 -2 4 -2l1 1h1q-1 0 -2 -1q23 47 24.5 107t-5 88t-11.5 40l5 3q-1 3 -4 3l-48 2l-13 -31q-2 -3 0 -5 q59 -78 45 -189q-10 20 -23 39t-26.5 34.5t-28.5 29.5t-29.5 25t-28.5 20.5t-25.5 16.5t-20 11.5t-13.5 6.5l-5 3q-3 1 -5 -1l-39 -35q-3 -2 -1 -6zM568 728q-1 -3 1 -5l45 -48l-32 -58q-2 -3 0 -5q1 -2 5 -2l64 15l34 -57q2 -2 4 -2q3 0 4 3l20 63l66 1q3 0 4 3t-1 5 l-45 48l33 58q1 1 -1 5t-5 2l-64 -15l-33 57q-1 2 -5 2q-2 0 -4 -3l-19 -63l-66 -1q-3 0 -5 -3z" />
<glyph unicode="poitransport" horiz-adv-x="1058" d="M103 601q0 177 125 302t302 125t301.5 -125t124.5 -302q0 -66 -44 -152t-106.5 -161t-125 -141t-106.5 -105l-44 -38q-17 15 -46 40.5t-102.5 100.5t-130 145t-102.5 157.5t-46 153.5zM336 746q0 -21 13 -36.5t38 -15.5h90v-289q0 -28 15.5 -43t40.5 -15t41 15t16 43v289 h83q25 0 38 15.5t13 36.5t-14 36.5t-37 15.5h-286q-23 0 -37 -15.5t-14 -36.5z" />
<glyph unicode="close" horiz-adv-x="1228" d="M103 795l227 235l271 -280l14 -15l13 15l271 280l227 -235l-271 -280l266 -274l-227 -235l-266 274l-13 15l-14 -15l-266 -274l-227 235l266 274z" />
<glyph unicode="tick" horiz-adv-x="1558" d="M101 547l262 253l305 -296l527 509l261 -253l-788 -763l-261 253z" />
<glyph unicode="list" horiz-adv-x="1228" d="M102 80v314q0 33 23 56t56 23h315q33 0 56 -23t23 -56v-314q0 -33 -23 -56t-56 -23h-315q-33 0 -56 23t-23 56zM102 631v314q0 33 23 56t56 23h315q33 0 56 -23t23 -56v-314q0 -33 -23 -55.5t-56 -22.5h-315q-33 0 -56 22.5t-23 55.5zM650 115q0 33 23 56t56 23h318 q33 0 56 -23t23 -56t-23 -56t-56 -23h-318q-33 0 -56 23t-23 56zM650 391q0 33 23 56t56 23h318q33 0 56 -23t23 -56t-23 -56.5t-56 -23.5h-318q-33 0 -56 23.5t-23 56.5zM650 666q0 33 23 56.5t56 23.5h318q33 0 56 -23.5t23 -56.5t-23 -56t-56 -23h-318q-33 0 -56 23 t-23 56zM650 942q0 33 23 56.5t56 23.5h318q33 0 56 -23.5t23 -56.5t-23 -56t-56 -23h-318q-33 0 -56 23t-23 56z" />
<glyph unicode="lonelyplanetreviewed" horiz-adv-x="888" d="M102 681q0 15 8 34q7 15 10 18q7 9 14 13q4 3 14 5l6 1q1 0 1 -1q3 -3 3 -9t-3 -13v-1q-4 0 -9 -3q-2 -1 -8 -7q-4 -4 -7 -12q-6 -14 -6 -27l1 -12v-7q2 -8 5 -10q2 -1 5 -2h1l1 -1q2 -1 2 -3t-3 -4q-4 -2 -10 -2q-2 0 -6 1t-10 9l-8 16q-1 7 -1 17zM146 637q-3 42 2 74 q4 31 14 70q9 36 23 66q20 41 36 62q12 15 24 26l15 12q2 1 6.5 4.5t6.5 5.5q25 16 57 31t58 23q35 11 61 13q13 1 35 -1q14 -1 29 -7q7 -3 13.5 -6.5t9.5 -5.5l3 -2q1 -1 2 -3q7 -16 0 -24q-3 -4 -10 -7q-6 -2 -17 -4h-4l-2 1q-1 1 -4 3t-7 4q-17 8 -45 5q-46 -4 -103 -32 q-31 -15 -52 -29l-6 -4l-3 -2l-2 -2q-2 -1 -5 -4l-5 -5q-9 -8 -19 -21q-33 -46 -51 -114q-7 -31 -12 -65q-2 -12 -2 -16v-16q0 -11 2 -33q8 -69 49 -116q23 -26 49 -42q2 -2 7 -4.5l7 -3.5q5 -3 15 -7q10 -5 30 -13q62 -22 129 -19q27 1 61 12q3 1 8 2.5t7 2.5q3 1 6.5 3 t6.5 3q23 13 26 15q44 31 77 88q28 48 31 104q3 48 -17 94q-9 21 -21 39q-2 3 -6 8.5t-6 8.5l-4 6l-24 28q-11 13 -27 30q-23 25 -56 54q-24 21 -32 29t-3 10q11 4 51 -18l42 -26q6 -4 11 -8q23 -17 37 -29l15 -15l8 -8q1 -2 4 -5t4 -5l5 -6l3 -3l1 -2l5 -6q29 -39 45 -88 q9 -25 12 -55q1 0 0 -15v-15q0 -20 -2 -30q-9 -60 -46 -117q-40 -62 -96 -96q-20 -12 -32 -17q-11 -5 -35 -11q-36 -9 -72 -9q-74 0 -143 27q-17 6 -34 15q-3 2 -8.5 5t-8.5 4q-9 5 -16 10q-32 23 -56 53t-38 67q-14 38 -17 74zM190 116q0 8 3 47l3 21q1 4 3 11q0 1 1.5 5.5 l2.5 7.5q3 8 9 18q3 6 4 7l4 4l2 2l1 1q1 1 2 1l2 1l1 1l2 1l2 2l6 3q6 3 24 15q26 16 50 34q32 22 49 31q19 10 22 10l1 1h2q14 -2 20 -11q8 -9 -2 -29q0 -1 -2 -3q-1 0 -19 -10q-25 -14 -45 -28q-13 -9 -49 -33q-3 -2 -27 -17l-6 -4l-3 -1l-1 -1l-3 7v-1v-2l1 -1q2 0 2 -1 v-1h1v-1q-1 0 -1 -1q-5 -7 -6 -12q-2 -8 -3 -11l-2 -11q-5 -16 -10 -39q-3 -12 -7.5 -39t-6.5 -38q-7 -39 -9 -45v2v-1l-2 -1h-1v1h1l2 1q2 0 3 -1v-3v-2l-1 -1l-1 -1h-1l-1 -1h-2l-2 1l-1 1h-1l-1 1l-1 2l-1 3q-6 17 -7 46zM283 124h1q4 2 8 2q2 0 6.5 -0.5t7.5 -0.5h1v-4 q0 -6 1 -9l3 -14q-1 -5 -3 -9q-3 -5 -6 -6q-2 -1 -7 2l-2 2q-2 2 -3 4l-2 2q-2 7 -3 15q-1 4 -1 10zM292 30v57q10 3 22 0h1v-58q-2 -9 -6 -16q-7 -15 -13 0l-1 4q-1 4 -2 9zM320 779.5q0 -10.5 10 -18.5t21 -4q13 4 19 13t-1.5 18t-32.5 12l-4 -3q-12 -7 -12 -17.5z M369 511v1q0 6 2 9q4 6 9 9l2 1l13 -9q15 -11 26 -12q17 -3 27 0l10 5q3 2 7 4q2 1 7 5l6 5q10 9 12 5t-1 -13l-1 -1q0 -2 -2.5 -6t-3.5 -6l-11 -12q-2 -1 -5 -3q-1 -1 -12 -5q-7 -3 -19 -3q-7 0 -19 2q-8 1 -20 7q-10 5 -14 8zM398 389v10h1q6 2 17 2q17 0 27 -1h2v-9 l1 -20v-21v-10q-5 -10 -14 -17q-8 -8 -17 -2l-4 4q-1 1 -4 3q-1 0 -4 7l-4 8q1 12 0 26zM441 171l1 2q2 2 6 4t16 6q13 4 43 8l62 3q19 -3 33 -7q11 -3 13.5 -6t-1.5 -5.5t-12 -4.5l-8 -1q-9 -2 -18 -3l-8 -1q-30 0 -59 -3q-20 -1 -37 -7q-5 -1 -11 -4l-3 -2h-1q-1 0 -2 1 t-3 2.5t-3 2.5q-8 8 -8 15zM457 395q0 1 1 1q19 6 43 5h2q2 -15 3 -28l2 -27q-4 -8 -10 -15q-13 -16 -26 -3l-2 4q-3 3 -6 7l-2 4l-3 26zM459 214l2 8q2 9 8 15q11 11 18 14q14 6 22 7q22 4 41 1l19 -4q4 -2 10 -6q10 -7 15 -18q4 -9 2 -13q-2 -3 -3 -3t-3 1t-4.5 2.5 t-3.5 2.5l-1 1q-1 0 -3.5 1.5t-5.5 2.5l-13 2q-6 2 -14 3q-15 2 -31 -1q-7 -1 -14 -5q-6 -3 -9 -6l-4 -8q0 -1 -1 -1t-4 -0.5t-6 -0.5q-11 0 -16 4zM465 131v3l1 1v2t2 3l1 1l2 1h1l2 1l1 1h1h3h2q2 0 4 -2q1 0 2 -1t2 -1q4 -4 7 -6q6 -4 9 -7q1 -1 2.5 -2t2.5 -2t2 -1h1v-1 h-1q0 -1 -0.5 -1t-0.5 -1v-3h-1v-1l2 7l2 -1q16 -6 33 -3l17 5q3 1 7 2q9 2 15 6q10 7 13 5q4 -4 -1 -15q1 0 -0.5 -2t-4 -5t-5.5 -6l-14 -11q-9 -5 -23 -7q-28 -4 -48 5l2 -1q-2 0 -7 3q-2 1 -4 3q-4 4 -6 5q-4 3 -10 7q-2 1 -4 4l-1 1h-1l1 2l2 3l2 6v2q1 -1 2 -1t1 0.5 t1 0.5h3l1 1v-1h-2l-2 -2q-4 -2 -8 -2h-4q-1 0 -3 2v1q0 1 -0.5 1t-0.5 1zM506 326q-2 6 1 13t15 13l2 1l2 1q5 0 26 -7q28 -9 54 -23q40 -22 62 -38q35 -25 53 -43l5 -5q1 -1 4 -4.5t5 -5.5l3 -12l1 -5l3 -10l2 -8q3 -18 6 -42q6 -48 6 -81q0 -28 -4 -44q-4 -8 -7 -8 q-4 4 -15 50l-7 25l-8 33l-18 62l-5 18l-4 4q-12 12 -46 37q-14 10 -58 35q-29 15 -46 21q-12 4 -19 4l-2 2q-9 9 -11 17zM507 798q-1 8 9 15.5t18 5.5t16.5 -15t4.5 -22q-4 -8 -16.5 -11.5t-19.5 3.5q-10 10 -12 24zM637 105v10q1 6 3 9l2 4l1 2h1h1q1 -1 2 -1h5h6 q6 -3 7 -5v-2q0 -2 -2 -5l-2 -4l-1 -1q1 -2 1 -4v-4v-5l1 -16l1 -44q-2 -14 -5 -24q-6 -22 -13 0l-1 6q-2 6 -3 13l-1 6l-2 43v16v1v2zM724 749q-2 3 0 8l1 2h3h2h4q4 0 14 -4q3 -1 14 -10l6 -6q1 -1 4 -3l1 -2l2 -2q5 -6 6 -10q1 -2 2 -5.5t1 -4.5q2 -12 2 -16v-16 q-1 -4 -4 -10q0 -1 -2 -3q0 -1 -1 -1l-1 -2q-2 -2 -6 -4t-12 0l-4 2l-1 1q-1 1 -2 1q-2 2 -2 3q-1 2 1 4q1 1 4 1h3q1 0 1 0.5t1 0.5l1 1q1 1 1 2v1v1v3v3q1 4 0 11q0 4 -2 12q-1 1 -1 3t-1 3q0 1 -1 1l-1 2v1q-9 10 -20 17q-1 0 -3 1t-3 1q-2 4 -4 7z" />
<glyph unicode="telephone" horiz-adv-x="1228" d="M103 167.5q-5 44.5 11.5 107t50.5 134t95 155t140 162.5t162.5 140t154.5 95t133.5 50t107 11t66.5 -27q6 -6 25.5 -24.5t27.5 -27t23 -27.5t19 -31.5t7 -32t-4.5 -36.5t-23.5 -38.5t-43 -42.5q-40 -33 -73 -48.5t-54 -19.5t-45 7.5t-35.5 21.5t-35.5 34l-11 11 q-57 57 -265 -151t-152 -265l11 -11q24 -24 34.5 -36t22 -35.5t7.5 -44.5t-20 -54t-48 -73q-21 -27 -42.5 -43t-38.5 -23.5t-37 -4.5t-32 6.5t-31.5 19t-27.5 23t-27.5 27.5t-24.5 25q-22 22 -27 66.5z" />
<glyph unicode="website" horiz-adv-x="1073" d="M103 331q0 106 74 180l204 204l438 -435l-205 -206q-74 -74 -180 -74t-180 74l-77 77q-74 74 -74 180zM408 742l52 51q74 74 179.5 74t179.5 -74l24 -24l-50 -50q-20 20 -45.5 20t-41.5 -10l-15 -10l-55 -54q-21 -21 -20.5 -47.5t8 -38t13.5 -17.5q-27 -22 -51 2z M637 561v1l2 1zM653 509q0 12 5 19l6 6v1q25 -21 48 -21t40 11l16 11l51 52q21 21 21.5 46.5t-9.5 39.5l-10 15l51 51l24 -24q74 -74 74 -179.5t-74 -179.5l-51 -52l-180 180q-12 12 -12 24zM654 613q0 15 11 26l51 52q11 10 25.5 10t25.5 -11l26 -26q11 -11 11 -25t-10 -25 l-52 -52q-10 -10 -25 -10t-26 10l-26 26q-11 10 -11 25zM845 769q2 1 5 3.5t11 10.5t15 15.5t13.5 18.5t10 20.5t1.5 20.5t-10 20q-25 39 -24 71.5t15 53.5l13 21l25 -25q-2 -2 -4 -6t-6.5 -16.5t-6.5 -25t1 -30t12 -32.5q17 -19 18 -41t-8.5 -39.5t-21.5 -32.5t-22 -24 l-11 -8z" />
<glyph unicode=" "  horiz-adv-x="102" />
<glyph unicode="&#x09;" horiz-adv-x="102" />
<glyph unicode="&#xa0;" horiz-adv-x="102" />
<glyph unicode="!" horiz-adv-x="657" d="M221 1516h219l-51 -1090h-115zM225 0v211h211v-211h-211z" />
<glyph unicode="&#x22;" horiz-adv-x="849" d="M160 1395v121h168v-121l-35 -402h-98zM522 1395v121h166v-121l-35 -402h-96z" />
<glyph unicode="#" horiz-adv-x="1470" d="M82 432v141h266l76 369h-254v141h285l90 433h162l-91 -433h363l90 433h162l-90 -433h245v-141h-274l-78 -369h264v-141h-292l-93 -432h-161l90 432h-361l-92 -432h-162l90 432h-235zM510 573h362l76 369h-360z" />
<glyph unicode="$" horiz-adv-x="1339" d="M115 285l131 86q72 -108 156 -167.5t208 -70.5v586q-82 24 -139.5 44.5t-121 55.5t-102 76t-64 102.5t-25.5 137.5q0 163 119.5 273t326.5 122v147h127v-151q82 -8 150 -32t118 -61t85.5 -76t66.5 -89l-129 -97q-59 95 -124.5 144.5t-170.5 62.5v-528q73 -20 124.5 -37.5 t112.5 -44.5t102 -59.5t77 -76t53.5 -101.5t17.5 -128q0 -175 -127.5 -287.5t-355.5 -127.5v-178h-127v180q-96 7 -178 36t-140.5 72.5t-99.5 89t-71 97.5zM330 1149q0 -55 20 -97.5t60.5 -73t86.5 -51.5t113 -42v497q-140 -7 -210 -71t-70 -162zM727 133q315 21 315 256 q0 64 -23 112.5t-69.5 82.5t-97 56.5t-125.5 45.5v-553z" />
<glyph unicode="%" horiz-adv-x="2037" d="M119 1071q0 214 96.5 340.5t259.5 126.5q162 0 256 -124.5t94 -336.5q0 -208 -94 -336.5t-258 -128.5q-167 0 -260.5 125.5t-93.5 333.5zM276 1077q0 -154 51 -241.5t148 -87.5q93 0 144 90t51 235q0 153 -51.5 241.5t-145.5 88.5q-95 0 -146 -90t-51 -236zM487 0 l906 1516h159l-905 -1516h-160zM1212 438q0 214 97 340.5t260 126.5q161 0 255.5 -125t94.5 -336q0 -207 -95 -335.5t-259 -128.5q-166 0 -259.5 125.5t-93.5 332.5zM1368 444q0 -154 51.5 -242.5t147.5 -88.5q94 0 145 91.5t51 237.5q0 153 -51.5 240.5t-146.5 87.5 t-146 -90t-51 -236z" />
<glyph unicode="&#x26;" horiz-adv-x="1484" d="M72 375q0 81 27 151.5t78.5 126.5t111 99.5t137.5 83.5q-102 181 -102 346q0 72 23 136t67.5 115t116 81t161.5 30q159 0 245.5 -84.5t86.5 -214.5q0 -77 -28.5 -143t-84 -120t-118 -95t-148.5 -84q29 -45 131 -176q133 -172 244 -283q118 161 149 418h164 q-43 -310 -192 -510q152 -117 301 -117v-155q-122 5 -218.5 39t-195.5 112q-187 -160 -446 -160q-245 0 -377.5 109.5t-132.5 294.5zM252 393q0 -132 87.5 -202t254.5 -70q187 0 317 106q-111 105 -274 310q-96 123 -139 186q-246 -144 -246 -330zM494 1192q0 -134 86 -283 q66 35 111 65t87 69t63 86.5t21 103.5q0 71 -43.5 119.5t-126.5 48.5q-94 0 -146 -56t-52 -153z" />
<glyph unicode="'" horiz-adv-x="489" d="M160 1395v121h168v-121l-35 -402h-98z" />
<glyph unicode="(" horiz-adv-x="817" d="M121 563q0 288 128.5 527.5t385.5 455.5l80 -88q-190 -180 -297 -407.5t-107 -487.5q0 -261 108 -490.5t300 -408.5l-84 -84q-257 216 -385.5 456t-128.5 527z" />
<glyph unicode=")" horiz-adv-x="817" d="M98 -336q191 179 298.5 408.5t107.5 490.5t-106.5 488.5t-297.5 406.5l82 88q256 -216 384 -455t128 -528q0 -288 -128 -528t-384 -455z" />
<glyph unicode="*" horiz-adv-x="1040" d="M86 1049v127l371 -27l-211 303l116 70l158 -334l158 334l117 -70l-209 -303l368 27v-127l-368 24l209 -303l-115 -68l-160 334l-158 -334l-116 68l209 303z" />
<glyph unicode="+" horiz-adv-x="1306" d="M135 608v148h443v450h151v-450h445v-148h-445v-450h-151v450h-443z" />
<glyph unicode="," horiz-adv-x="555" d="M172 0v215h211v-190l-104 -240h-82l55 215h-80z" />
<glyph unicode="-" horiz-adv-x="731" d="M127 573v140h477v-140h-477z" />
<glyph unicode="." horiz-adv-x="555" d="M172 0v215h211v-215h-211z" />
<glyph unicode="/" horiz-adv-x="1159" d="M47 0l881 1516h184l-881 -1516h-184z" />
<glyph unicode="0" horiz-adv-x="1353" d="M106 758q0 359 152 572.5t420 213.5q269 0 418 -212.5t149 -573.5t-149 -574t-418 -213q-268 0 -420 214t-152 573zM287 758q0 -304 104 -466.5t287 -162.5q185 0 287 161.5t102 467.5q0 304 -103.5 465t-285.5 161q-188 0 -289.5 -160t-101.5 -466z" />
<glyph unicode="1" horiz-adv-x="894" d="M111 0v160h284v1167q-56 -30 -135.5 -50t-144.5 -20v160q188 6 288 99h168v-1356h254v-160h-714z" />
<glyph unicode="2" horiz-adv-x="1212" d="M90 0v33q0 87 22.5 164t76.5 161t153.5 172.5t245.5 182.5q120 77 185.5 133.5t99.5 121t34 144.5q0 126 -75 199t-209 73q-234 0 -371 -249l-139 86q178 323 518 323q208 0 330 -116t122 -304q0 -152 -83 -267t-298 -251q-384 -244 -409 -446h799v-160h-1002z" />
<glyph unicode="3" horiz-adv-x="1222" d="M53 248l131 98q152 -217 404 -217q159 0 251.5 76.5t92.5 210.5q0 160 -110 235.5t-357 75.5h-62v150h72q226 0 323 66t97 198q0 113 -73 177t-228 64q-210 0 -356 -172l-117 109q89 103 213.5 163t273.5 60q117 0 208 -30t146 -82.5t83 -120t28 -146.5 q0 -141 -78.5 -234t-216.5 -124q332 -66 332 -393q0 -194 -143 -317.5t-379 -123.5q-170 0 -308.5 71.5t-226.5 205.5z" />
<glyph unicode="4" horiz-adv-x="1267" d="M61 350v137l691 1029h215v-1008h256v-158h-256v-350h-174v350h-732zM260 508h533v797h-5z" />
<glyph unicode="5" horiz-adv-x="1202" d="M70 229l120 111q167 -211 390 -211q90 0 160.5 30t113 81.5t64.5 117t22 140.5q0 169 -90 260.5t-240 91.5q-209 0 -334 -176l-129 45l60 797h823l-14 -162h-664l-37 -484q118 131 330 131q213 0 343 -135t130 -360q0 -236 -144.5 -385.5t-389.5 -149.5q-164 0 -296.5 69 t-217.5 189z" />
<glyph unicode="6" horiz-adv-x="1267" d="M106 731q0 179 47 331.5t128.5 258t195 164.5t244.5 59q223 0 371 -119l-91 -133q-63 47 -128.5 70.5t-157.5 23.5q-128 0 -226.5 -81t-151 -222t-54.5 -321q184 192 422 192q228 0 352.5 -128.5t124.5 -346.5q0 -220 -147.5 -364t-375.5 -144q-119 0 -218.5 47 t-175 138.5t-117.5 238.5t-42 336zM287 600q21 -239 123.5 -357t259.5 -118q155 0 246.5 93t91.5 257q0 150 -80.5 238t-249.5 88q-116 0 -220.5 -56t-170.5 -145z" />
<glyph unicode="7" horiz-adv-x="1120" d="M88 1354v162h956v-152l-630 -1364h-185l627 1354h-768z" />
<glyph unicode="8" horiz-adv-x="1255" d="M74 371q0 101 49.5 182.5t131.5 138t208 109.5q-163 75 -241.5 159.5t-78.5 215.5q0 71 33 137.5t93.5 119t154 84t205.5 31.5q114 0 207.5 -32t152 -84.5t90 -118.5t31.5 -137q0 -126 -79 -211t-243 -158q99 -43 166 -82.5t121 -91t79.5 -116t25.5 -146.5 q0 -173 -149 -288.5t-402 -115.5q-256 0 -405.5 114.5t-149.5 289.5zM254 381q0 -117 104.5 -190.5t270.5 -73.5t269 72t103 192q0 113 -91 190.5t-294 161.5q-194 -88 -278 -165.5t-84 -186.5zM319 1171q0 -99 71.5 -161t246.5 -138q166 74 232.5 135.5t66.5 157.5 q0 95 -78.5 163.5t-228.5 68.5q-147 0 -228.5 -66.5t-81.5 -159.5z" />
<glyph unicode="9" horiz-adv-x="1267" d="M86 1036q0 220 147 364t375 144q119 0 218.5 -47t174 -139t116.5 -238.5t42 -335.5q0 -180 -46.5 -332t-127.5 -257.5t-194 -164.5t-244 -59q-234 0 -387 131l88 134q70 -54 139.5 -81.5t165.5 -27.5q128 0 226 82t150 223.5t54 321.5q-185 -193 -422 -193 q-226 0 -350.5 128.5t-124.5 346.5zM260 1040q0 -150 80 -237.5t250 -87.5q115 0 219 56t170 144q-19 239 -121.5 356.5t-259.5 117.5q-155 0 -246.5 -92.5t-91.5 -256.5z" />
<glyph unicode=":" horiz-adv-x="563" d="M176 0v215h211v-215h-211zM176 864v217h211v-217h-211z" />
<glyph unicode=";" horiz-adv-x="563" d="M176 0v215h211v-188l-106 -242h-82l57 215h-80zM176 864v217h211v-217h-211z" />
<glyph unicode="&#x3c;" horiz-adv-x="1306" d="M109 604v119l1083 465v-158l-885 -366l885 -367v-158z" />
<glyph unicode="=" horiz-adv-x="1306" d="M135 362v142h1034v-142h-1034zM135 829v142h1034v-142h-1034z" />
<glyph unicode="&#x3e;" horiz-adv-x="1306" d="M119 139v158l885 367l-885 366v158l1083 -465v-119z" />
<glyph unicode="?" horiz-adv-x="1124" d="M76 1288q96 121 214 188.5t283 67.5q206 0 327.5 -102.5t121.5 -267.5q0 -71 -19 -128.5t-57.5 -101.5t-79.5 -75.5t-102 -67.5q-45 -26 -74.5 -46.5t-50.5 -47t-32 -49t-17.5 -61.5t-8 -74.5t-1.5 -98.5h-144q-6 65 -6 137q0 108 45 181t146 132q66 40 101 65.5 t66.5 59.5t43.5 72.5t12 91.5q0 103 -75.5 162t-207.5 59q-216 0 -364 -196zM403 0v211h209v-211h-209z" />
<glyph unicode="@" horiz-adv-x="1777" d="M96 756q0 230 102.5 410t283.5 279t409 99q169 0 315.5 -56.5t251 -157t164 -243t59.5 -309.5q0 -211 -98.5 -336t-257.5 -125q-99 0 -162 42t-86 114q-155 -145 -336 -145q-137 0 -219 83t-82 242q0 156 53.5 282.5t150.5 198.5t218 72q152 0 260 -108l15 92h143 l-90 -606q-12 -75 28 -122.5t123 -47.5q106 0 174 92.5t68 267.5q0 197 -89 351.5t-246.5 239.5t-356.5 85q-201 0 -358.5 -87.5t-245.5 -246t-88 -360.5q0 -201 87.5 -360t244 -247t354.5 -88q223 0 411 107l43 -74q-202 -123 -456 -123q-172 0 -318.5 57.5t-249.5 160 t-161 249t-58 318.5zM586 668q0 -224 190 -224q139 0 268 123l62 408q-49 57 -105.5 82.5t-130.5 25.5q-125 0 -204.5 -122t-79.5 -293z" />
<glyph unicode="A" horiz-adv-x="1392" d="M66 0l536 1522h189l536 -1522h-186l-150 434h-602l-149 -434h-174zM444 592h492l-242 711h-4z" />
<glyph unicode="B" horiz-adv-x="1415" d="M186 0v1516h543q250 0 384 -96t134 -283q0 -148 -77.5 -236.5t-202.5 -114.5v-4q150 -28 239.5 -119.5t89.5 -248.5q0 -193 -137.5 -303.5t-386.5 -110.5h-586zM365 158h395q358 0 358 268q0 139 -103 205.5t-292 66.5h-358v-540zM365 854h348q174 0 266 63t92 191 q0 130 -84.5 189t-269.5 59h-352v-502z" />
<glyph unicode="C" horiz-adv-x="1443" d="M113 764q0 352 178.5 566t464.5 214q444 0 561 -465l-172 -47q-51 179 -141 262.5t-250 83.5q-212 0 -335.5 -165t-123.5 -447q0 -298 124.5 -464.5t338.5 -166.5q161 0 262.5 91t148.5 276l170 -39q-57 -232 -204.5 -362t-378.5 -130q-292 0 -467.5 212.5t-175.5 580.5z " />
<glyph unicode="D" horiz-adv-x="1464" d="M186 0v1516h400q370 0 567 -189t197 -565q0 -379 -198.5 -570.5t-565.5 -191.5h-400zM367 162h241q281 0 421 144.5t140 455.5q0 302 -142 445t-423 143h-237v-1188z" />
<glyph unicode="E" horiz-adv-x="1247" d="M186 0v1516h930v-166h-749v-473h557v-162h-557v-551h792v-164h-973z" />
<glyph unicode="F" horiz-adv-x="1165" d="M186 0v1516h910v-166h-729v-488h536v-162h-536v-700h-181z" />
<glyph unicode="G" horiz-adv-x="1495" d="M113 764q0 237 82 414.5t228 271.5t335 94q443 0 561 -469l-168 -43q-54 184 -146 265t-249 81q-92 0 -173 -36t-146.5 -107.5t-103.5 -191t-38 -273.5q0 -308 129 -472.5t338 -164.5q180 0 288 116t111 324h-348v152h522v-725h-157v227h-4q-51 -108 -158.5 -182 t-270.5 -74q-200 0 -344.5 103t-216 280.5t-71.5 409.5z" />
<glyph unicode="H" horiz-adv-x="1513" d="M186 0v1516h181v-635h780v635h180v-1516h-180v715h-780v-715h-181z" />
<glyph unicode="I" horiz-adv-x="593" d="M207 0v1516h180v-1516h-180z" />
<glyph unicode="J" horiz-adv-x="1034" d="M49 170l121 102q104 -143 258 -143q123 0 189.5 68t66.5 225v1094h180v-1106q0 -212 -113.5 -325.5t-316.5 -113.5q-131 0 -223.5 51.5t-161.5 147.5z" />
<glyph unicode="K" horiz-adv-x="1388" d="M186 0v1516h181v-783l686 783h217l-520 -578l591 -938h-206l-504 801l-264 -289v-512h-181z" />
<glyph unicode="L" horiz-adv-x="1165" d="M186 0v1516h181v-1352h729v-164h-910z" />
<glyph unicode="M" horiz-adv-x="1798" d="M186 0v1516h236l477 -1289h4l469 1289h240v-1516h-178v1227h-4q-7 -28 -19 -65.5t-21.5 -64.5t-27 -76.5t-25.5 -72.5l-362 -948h-162l-362 948q-66 178 -95 285h-4v-1233h-166z" />
<glyph unicode="N" d="M186 0v1516h191l797 -1199h4v1199h170v-1516h-162l-826 1231h-4v-1231h-170z" />
<glyph unicode="O" d="M113 758q0 179 49.5 327.5t137 248.5t208 155t260.5 55t260 -55t206.5 -155t135.5 -248.5t49 -327.5t-49 -327.5t-135.5 -249t-206.5 -155.5t-260 -55t-260.5 55t-208 155t-137 249t-49.5 328zM295 758q0 -292 130 -458.5t343 -166.5q210 0 340.5 167t130.5 458 q0 290 -130.5 456t-340.5 166q-213 0 -343 -165.5t-130 -456.5z" />
<glyph unicode="P" horiz-adv-x="1329" d="M186 0v1516h514q256 0 401.5 -106.5t145.5 -324.5q0 -95 -28 -170.5t-77.5 -126t-120 -84t-153 -48.5t-180.5 -15h-321v-641h-181zM367 801h331q188 0 279.5 64.5t91.5 213.5q0 143 -92.5 208t-280.5 65h-329v-551z" />
<glyph unicode="Q" d="M113 758q0 179 51 328t139 248.5t208 154.5t257 55t256 -55t206.5 -154.5t138 -248.5t50.5 -328q0 -330 -159 -540t-412 -238q7 -63 33 -105t71 -64.5t98.5 -31t129.5 -8.5h104v-156h-158q-224 0 -340.5 100t-119.5 267q-246 33 -399.5 243t-153.5 533zM293 758 q0 -292 131 -459.5t344 -167.5q209 0 339 168t130 459t-129.5 456.5t-339.5 165.5q-213 0 -344 -165.5t-131 -456.5z" />
<glyph unicode="R" horiz-adv-x="1386" d="M186 0v1516h521q260 0 399 -108t139 -316q0 -342 -352 -416l373 -676h-197l-362 653h-342v-653h-179zM365 813h331q187 0 279 61.5t92 210.5q0 144 -92 205.5t-281 61.5h-329v-539z" />
<glyph unicode="S" horiz-adv-x="1345" d="M111 367l151 67q57 -151 166 -227t264 -76q162 0 258.5 66t96.5 184q0 77 -33.5 129t-114.5 96t-233 92q-105 32 -174.5 58.5t-137.5 64t-106.5 80.5t-62 104t-23.5 138q0 174 136 287.5t351 113.5q206 0 339 -92.5t196 -247.5l-144 -80q-60 134 -157.5 195t-235.5 61 q-142 0 -224.5 -62t-82.5 -161q0 -49 14 -85.5t40 -65.5t77.5 -55.5t111 -49t156.5 -53.5q98 -30 168.5 -58.5t133.5 -67.5t101.5 -84.5t60.5 -107t22 -137.5q0 -188 -150 -305t-391 -117q-213 0 -362.5 106t-210.5 290z" />
<glyph unicode="T" horiz-adv-x="1275" d="M66 1350v166h1144v-166h-483v-1350h-180v1350h-481z" />
<glyph unicode="U" horiz-adv-x="1468" d="M172 524v992h180v-967q0 -191 95.5 -302.5t289.5 -111.5q192 0 286.5 109t94.5 301v971h178v-988q0 -119 -35.5 -219.5t-104 -176t-176.5 -117.5t-245 -42q-142 0 -251.5 41.5t-176.5 117t-101 174t-34 218.5z" />
<glyph unicode="V" horiz-adv-x="1363" d="M66 1516h184l434 -1280h4l436 1280h174l-532 -1522h-168z" />
<glyph unicode="W" horiz-adv-x="1906" d="M74 1516h182l223 -879q66 -250 88 -371h4q30 160 86 369l211 881h183l217 -887q8 -33 23.5 -95l24 -96t19 -82.5t17.5 -89.5h4q21 102 84 357l221 893h172l-401 -1516h-166l-305 1268h-5l-313 -1268h-166z" />
<glyph unicode="X" horiz-adv-x="1372" d="M66 0l520 809l-457 707h207l358 -564l353 564h190l-453 -705l523 -811h-197l-428 668l-430 -668h-186z" />
<glyph unicode="Y" horiz-adv-x="1292" d="M45 1516h193l411 -699l410 699h188l-512 -852v-664h-180v664z" />
<glyph unicode="Z" horiz-adv-x="1290" d="M82 0v127l887 1237h-830v152h1051v-132l-881 -1234h881v-150h-1108z" />
<glyph unicode="[" horiz-adv-x="817" d="M172 -410v1926h555v-132h-377v-1663h377v-131h-555z" />
<glyph unicode="\" horiz-adv-x="1138" d="M37 1516h184l881 -1516h-184z" />
<glyph unicode="]" horiz-adv-x="817" d="M88 -279h377v1661h-377v134h555v-1926h-555v131z" />
<glyph unicode="^" horiz-adv-x="1060" d="M201 1192l264 330h129l264 -330h-106l-224 192l-221 -192h-106z" />
<glyph unicode="_" horiz-adv-x="1024" d="M0 -133h1024v-137h-1024v137z" />
<glyph unicode="`" horiz-adv-x="1024" d="M279 1522h215l192 -324h-117z" />
<glyph unicode="a" horiz-adv-x="1132" d="M90 256q0 85 38 153t121.5 126t224.5 101t339 71v49q0 200 -205 200q-114 0 -208 -43t-183 -120l-92 110q218 201 502 201q360 0 360 -361v-477q0 -192 31 -266h-180q-25 80 -25 150q-178 -166 -418 -166q-141 0 -223 71.5t-82 200.5zM264 283q0 -77 48 -118.5t134 -41.5 q206 0 367 158v303q-202 -32 -325 -77.5t-173.5 -99.5t-50.5 -124z" />
<glyph unicode="b" horiz-adv-x="1226" d="M156 0v1516h176v-586q155 174 356 174q195 0 317.5 -144.5t122.5 -416.5q0 -273 -126 -416t-332 -143q-189 0 -338 155v-139h-176zM332 291q145 -164 313 -164q146 0 226.5 102.5t80.5 311.5q0 200 -84.5 305.5t-220.5 105.5q-163 0 -315 -166v-495z" />
<glyph unicode="c" horiz-adv-x="1097" d="M94 541q0 115 28.5 210t76.5 159.5t112 109t134.5 64.5t144.5 20q71 0 131.5 -16.5t104.5 -43.5t80.5 -67.5t61.5 -82.5t46 -93l-150 -62q-41 107 -108 161t-170 54q-61 0 -115 -22.5t-100 -69t-72.5 -129t-26.5 -192.5q0 -196 85.5 -306t224.5 -110q104 0 171 49.5 t119 167.5l146 -57q-45 -96 -100.5 -161t-143 -106t-199.5 -41q-95 0 -181 36.5t-153 105.5t-107 178t-40 244z" />
<glyph unicode="d" horiz-adv-x="1226" d="M96 539q0 273 127.5 419t333.5 146q95 0 183.5 -43.5t152.5 -116.5v572h176v-1250q0 -193 33 -266h-184q-25 73 -25 154q-73 -80 -158 -125t-198 -45q-196 0 -318.5 142t-122.5 413zM272 537q0 -199 85.5 -303.5t222.5 -104.5q161 0 313 166v496q-145 163 -311 163 q-146 0 -228 -104.5t-82 -312.5z" />
<glyph unicode="e" horiz-adv-x="1130" d="M94 541q0 114 29.5 209t78 159.5t112.5 109t132 65t138 20.5q98 0 179 -35t142 -104t95 -179.5t34 -253.5v-36h-764q4 -177 95.5 -276t230.5 -99q112 0 186.5 43t139.5 133l102 -90q-161 -230 -440 -230q-98 0 -185 36t-155.5 104t-109 177.5t-40.5 246.5zM274 633h592 q-11 150 -82.5 236.5t-201.5 86.5q-117 0 -203.5 -82t-104.5 -241z" />
<glyph unicode="f" horiz-adv-x="704" d="M51 936v145h189v146q0 293 325 293q17 0 56 -3.5t45 -3.5v-143q-24 6 -76 6q-174 0 -174 -151v-144h237v-145h-237v-936h-176v936h-189z" />
<glyph unicode="g" horiz-adv-x="1177" d="M35 -147q0 81 51.5 142t144.5 97q-92 44 -92 137q0 96 135 174q-79 52 -122 132t-43 180q0 170 123.5 279.5t316.5 109.5t319 -113q50 37 120.5 65.5t135.5 35.5v-156q-106 0 -194 -35q55 -77 55 -186q0 -173 -122.5 -279t-313.5 -106q-83 0 -172 26q-76 -34 -76 -84 q0 -34 32.5 -51t117.5 -24l221 -19q207 -14 310 -82.5t103 -197.5q0 -150 -143.5 -232t-384.5 -82q-265 0 -393.5 70.5t-128.5 198.5zM199 -121q0 -83 91 -122.5t290 -39.5q160 0 252 45t92 119q0 73 -66 108.5t-233 47.5l-205 14l-62 6q-77 -27 -118 -74t-41 -104zM276 711 q0 -116 75 -184t200 -68t197.5 67.5t72.5 184.5q0 120 -71.5 188t-200.5 68q-126 0 -199.5 -69.5t-73.5 -186.5z" />
<glyph unicode="h" horiz-adv-x="1204" d="M156 0v1516h178v-596q188 184 405 184q154 0 237 -84.5t83 -239.5v-780h-176v741q0 108 -48.5 159.5t-150.5 51.5q-92 0 -175.5 -44t-174.5 -130v-778h-178z" />
<glyph unicode="i" horiz-adv-x="512" d="M164 1313v172h184v-172h-184zM168 0v1081h176v-1081h-176z" />
<glyph unicode="j" horiz-adv-x="512" d="M-12 -270q40 -9 69 -9q111 0 111 125v1235h176v-1247q0 -119 -56.5 -182.5t-193.5 -63.5q-43 0 -106 9v133zM164 1313v172h184v-172h-184z" />
<glyph unicode="k" horiz-adv-x="1105" d="M156 0v1516h176v-975l483 540h201l-354 -387l393 -694h-189l-319 563l-215 -231v-332h-176z" />
<glyph unicode="l" horiz-adv-x="512" d="M168 0v1516h176v-1516h-176z" />
<glyph unicode="m" horiz-adv-x="1878" d="M156 0v1081h176v-163q186 186 389 186q129 0 198 -49.5t99 -141.5q195 191 399 191q160 0 237 -85.5t77 -238.5v-780h-177v741q0 110 -42.5 160.5t-145.5 50.5q-85 0 -163 -43.5t-171 -130.5v-778h-176v741q0 110 -42.5 160.5t-145.5 50.5q-84 0 -163 -43.5t-173 -130.5 v-778h-176z" />
<glyph unicode="n" horiz-adv-x="1204" d="M156 0v1081h178v-161q188 184 405 184q154 0 237 -84.5t83 -239.5v-780h-176v741q0 108 -48.5 159.5t-150.5 51.5q-92 0 -175.5 -44t-174.5 -130v-778h-178z" />
<glyph unicode="o" horiz-adv-x="1193" d="M94 541q0 136 41 245t111.5 177.5t160.5 104.5t191 36q80 0 153.5 -22.5t137 -68.5t110.5 -112t74 -158.5t27 -201.5q0 -135 -41 -244t-111 -178t-160 -105.5t-190 -36.5t-190 36.5t-160.5 105.5t-112 178t-41.5 244zM272 541q0 -117 35 -209t110 -148.5t181 -56.5 q152 0 238 112.5t86 301.5q0 115 -35.5 206.5t-110 148t-178.5 56.5q-153 0 -239.5 -112.5t-86.5 -298.5z" />
<glyph unicode="p" horiz-adv-x="1226" d="M156 -410v1491h176v-149q157 172 356 172q195 0 317.5 -144.5t122.5 -416.5q0 -273 -126 -416t-332 -143q-189 0 -338 155v-549h-176zM332 291q145 -164 313 -164q146 0 226.5 102.5t80.5 311.5q0 200 -84.5 305.5t-220.5 105.5q-163 0 -315 -166v-495z" />
<glyph unicode="q" horiz-adv-x="1226" d="M96 539q0 273 127.5 419t333.5 146q188 0 336 -158v135h176v-1491h-176v564q-73 -80 -158 -125t-198 -45q-196 0 -318.5 142t-122.5 413zM272 537q0 -199 85.5 -303.5t222.5 -104.5q161 0 313 166v496q-145 163 -311 163q-146 0 -228 -104.5t-82 -312.5z" />
<glyph unicode="r" horiz-adv-x="819" d="M156 0v1081h176v-200h4q143 223 418 223h22l-12 -164q-6 2 -51 2q-254 0 -381 -244v-698h-176z" />
<glyph unicode="s" horiz-adv-x="1048" d="M78 164l106 106q139 -149 338 -149q126 0 193 43.5t67 126.5q0 77 -64 117t-214 75q-77 18 -129 35t-105 43.5t-83.5 58.5t-50 80t-19.5 109q0 127 103 211t276 84q135 0 233.5 -40t179.5 -116l-92 -117q-140 130 -313 130q-111 0 -165 -41.5t-54 -104.5q0 -71 59 -107.5 t197 -68.5q84 -20 138 -37t111 -44.5t89 -61t52.5 -84t20.5 -115.5q0 -151 -120.5 -234t-311.5 -83q-141 0 -257 50.5t-185 133.5z" />
<glyph unicode="t" horiz-adv-x="772" d="M45 936v145h188v385h177v-385h280v-145h-280v-635q0 -90 36.5 -131t131.5 -41q59 0 110 14v-145q-62 -12 -153 -12q-166 0 -234 65.5t-68 210.5v674h-188z" />
<glyph unicode="u" horiz-adv-x="1204" d="M145 301v780h177v-743q0 -108 48 -159.5t150 -51.5q93 0 175.5 44t174.5 130v780h179v-1081h-179v162q-186 -182 -405 -182q-155 0 -237.5 83.5t-82.5 237.5z" />
<glyph unicode="v" horiz-adv-x="1054" d="M41 1081h188l303 -876h5l299 876h176l-396 -1085h-178z" />
<glyph unicode="w" horiz-adv-x="1540" d="M45 1081h182l142 -508q58 -209 94 -360h4q47 193 94 362l137 506h154l141 -516q41 -144 90 -352h4q51 196 95 348l147 520h166l-330 -1081h-164l-229 846h-4l-231 -846h-162z" />
<glyph unicode="x" horiz-adv-x="1060" d="M55 0l385 559l-358 522h192l265 -395l262 395h186l-360 -520l383 -561h-191l-291 430l-288 -430h-185z" />
<glyph unicode="y" horiz-adv-x="1091" d="M14 -389l41 141q70 -18 160 -18q81 0 127.5 35.5t79.5 117.5l41 107l-418 1087h186l318 -874h4l317 874h179l-463 -1204q-30 -76 -60 -126.5t-72.5 -90t-100.5 -58t-136 -18.5q-112 0 -203 27z" />
<glyph unicode="z" horiz-adv-x="1044" d="M80 0v106l633 832h-584v143h805v-110l-635 -830h666v-141h-885z" />
<glyph unicode="{" horiz-adv-x="800" d="M68 487v131q61 0 101 10.5t69.5 37t43 75t13.5 123.5v369q0 283 270 283h158v-132h-90q-82 0 -121 -39t-39 -118v-377q0 -97 -21.5 -157.5t-56.5 -89t-96 -48.5v-4q61 -20 96 -48.5t56.5 -89t21.5 -157.5v-377q0 -158 160 -158h90v-131h-158q-270 0 -270 283v369 q0 75 -13 123t-43 75t-70 37t-101 10z" />
<glyph unicode="|" horiz-adv-x="727" d="M276 -410v1926h173v-1926h-173z" />
<glyph unicode="}" horiz-adv-x="800" d="M78 -279h90q160 0 160 158v387q0 74 11 123.5t35.5 81t53 48.5t74.5 32v4q-46 15 -74.5 32t-53 48.5t-35.5 81t-11 123.5v387q0 81 -36.5 122.5t-117.5 41.5h-90l-6 125h168q138 0 199 -68t61 -205v-379q0 -75 13.5 -123.5t43 -75t69.5 -37t101 -10.5v-131 q-61 0 -101 -10t-70 -37t-43 -75t-13 -123v-379q0 -137 -61 -205t-199 -68h-168v131z" />
<glyph unicode="~" horiz-adv-x="1040" d="M180 838q0 243 189 243q41 0 86 -18t77.5 -39t71 -39t66.5 -18q44 0 64 25.5t20 84.5h104q0 -243 -186 -243q-51 0 -108 28.5t-107 57t-84 28.5q-45 0 -64.5 -25.5t-19.5 -84.5h-109z" />
<glyph unicode="&#xa1;" horiz-adv-x="657" d="M217 0l51 1090h115l53 -1090h-219zM221 1305v211h211v-211h-211z" />
<glyph unicode="&#xa2;" horiz-adv-x="1101" d="M94 541q0 141 43 252t115 177t158 100t180 34q39 0 57 -2l58 205h110l-63 -228q175 -63 264 -278l-144 -62q-61 153 -167 197l-222 -801q43 -14 99 -14q103 0 173.5 51.5t125.5 169.5l139 -57q-68 -146 -174.5 -227t-270.5 -81q-58 0 -124 17l-72 -258h-113l84 299 q-116 66 -186 196t-70 310zM262 541q0 -247 135 -359l213 774h-24q-49 0 -94 -13t-87.5 -44.5t-73.5 -78t-50 -118t-19 -161.5z" />
<glyph unicode="&#xa3;" horiz-adv-x="1277" d="M55 182q0 106 68 171t178 65q97 0 217 -82q6 47 6 106q0 131 -78 283h-266v131h193q-46 82 -70 151t-24 146q0 173 108.5 282t294.5 109q85 0 154 -22t114.5 -58.5t78 -87.5t49.5 -104t24 -113l-164 -24q-25 258 -256 258q-109 0 -169 -64.5t-60 -173.5 q0 -49 18.5 -107.5t33 -87.5t54.5 -104h354v-131h-290q59 -131 59 -268q0 -125 -35 -221q48 -39 76.5 -59t73.5 -39t86 -19q96 0 137 60.5t49 201.5h160q-2 -89 -20.5 -160.5t-55.5 -129t-101 -89t-151 -31.5q-89 0 -164 39.5t-155 108.5q-108 -148 -293 -148 q-93 0 -163.5 56t-70.5 155zM186 186q0 -46 31.5 -74t79.5 -28q126 0 182 123q-106 92 -178 92q-53 0 -84 -30.5t-31 -82.5z" />
<glyph unicode="&#xa4;" horiz-adv-x="1476" d="M43 530v136h240q-2 33 -2 98q0 53 2 78h-240v133h254q22 143 75 253.5t129 178.5t166 102.5t191 34.5q105 0 188 -30.5t141 -89t98 -134t67 -174.5l-162 -51q-19 66 -37.5 112.5t-45.5 88.5t-60.5 66.5t-80.5 39t-108 14.5q-148 0 -250.5 -103t-136.5 -308h438v-133h-452 q-2 -23 -2 -72q0 -19 1 -53.5t1 -50.5h452v-136h-436q68 -403 389 -403q141 0 221.5 83t126.5 259l162 -47q-58 -212 -185.5 -331.5t-326.5 -119.5q-218 0 -367.5 141t-193.5 418h-256z" />
<glyph unicode="&#xa5;" horiz-adv-x="1288" d="M49 1516h193l405 -689l404 689h188l-502 -834h387v-131h-391v-180h391v-131h-391v-240h-180v240h-387v131h387v180h-387v131h381z" />
<glyph unicode="&#xa6;" horiz-adv-x="727" d="M276 -410v838h173v-838h-173zM276 678v838h173v-838h-173z" />
<glyph unicode="&#xa7;" horiz-adv-x="1105" d="M111 596q0 59 22 112t60 94t79 71.5t88 54.5q-105 76 -145.5 142.5t-40.5 154.5q0 131 103 225t276 94q101 0 177 -23t123 -66t74.5 -93t43.5 -115l-148 -53q-29 104 -92 158.5t-172 54.5q-110 0 -163.5 -50t-53.5 -124q0 -70 56.5 -128t203.5 -142q113 -66 176 -108 t117.5 -93.5t76 -103.5t21.5 -119q0 -112 -72 -197t-176 -137q103 -75 140 -140t37 -155q0 -132 -98.5 -226t-270.5 -94q-98 0 -172.5 23t-121 66t-74 93t-44.5 115l144 50q30 -105 87.5 -156t174.5 -51q108 0 157.5 48.5t49.5 123.5q0 71 -54 129t-198 141 q-75 44 -122 73.5t-96.5 65t-77.5 65t-52 65t-33.5 73t-9.5 82.5zM268 621q0 -82 62 -141.5t266 -180.5q20 -8 39 -20q203 93 203 235q0 82 -62 141.5t-266 180.5q-7 3 -41 20q-95 -44 -148 -104.5t-53 -130.5z" />
<glyph unicode="&#xa8;" horiz-adv-x="1044" d="M244 1194v192h180v-192h-180zM616 1194v192h183v-192h-183z" />
<glyph unicode="&#xa9;" horiz-adv-x="1769" d="M102 756q0 162 61.5 307.5t165.5 251t250 167.5t308 62q214 0 393.5 -104.5t283 -284.5t103.5 -395q0 -161 -61.5 -307.5t-165.5 -252t-249 -167.5t-306 -62q-162 0 -307.5 62t-249.5 167t-165 250t-61 306zM205 760q0 -190 90 -349.5t247 -252t345 -92.5q187 0 343 92 t245.5 250.5t89.5 347.5q0 190 -90 349.5t-246.5 252t-343.5 92.5q-188 0 -344.5 -92t-246 -250.5t-89.5 -347.5zM520 770q0 198 98.5 321t264.5 123q252 0 321 -272l-110 -29q-29 100 -78 148.5t-133 48.5q-108 0 -174 -93.5t-66 -246.5q0 -160 65 -252t177 -92 q164 0 217 209q105 -29 115 -29q-36 -139 -120 -214t-216 -75q-163 0 -262 124t-99 329z" />
<glyph unicode="&#xaa;" horiz-adv-x="862" d="M100 946q0 81 47.5 140.5t161 105t297.5 70.5v32q0 66 -35 102t-102 36q-81 0 -144.5 -28t-125.5 -85l-76 76q75 71 159.5 108t200.5 37q258 0 258 -254v-330q0 -127 27 -188h-143q-16 54 -19 102q-131 -118 -284 -118q-102 0 -162 51.5t-60 142.5zM236 965 q0 -50 32 -76.5t88 -26.5q132 0 250 109v205q-108 -16 -182.5 -38.5t-114.5 -50.5t-56.5 -57t-16.5 -65z" />
<glyph unicode="&#xab;" horiz-adv-x="1110" d="M84 543l309 538h178l-301 -538l301 -543h-178zM512 543l313 538h176l-305 -538l305 -543h-176z" />
<glyph unicode="&#xac;" horiz-adv-x="1556" d="M20 662v190l369 -31l-12 209l-64 -4v148l56 -5l-4 54h147l-4 -62l207 -14l-31 369h190l-30 -369l207 14l-4 62h147l-4 -54l55 5v-148l-63 4l-15 -209l369 31v-190l-369 30l15 -205l63 5v-148l-55 4l4 -57h-147l4 65l-207 13l30 -369h-190l31 369l-207 -13l4 -65h-147 l4 57l-56 -4v148l64 -5l12 205zM487 692l13 -213l215 -12v225h-228zM487 821h228v228l-215 -13zM844 467l213 12l12 213h-225v-225zM844 821h225l-12 215l-213 13v-228z" />
<glyph unicode="&#xad;" horiz-adv-x="731" d="M127 573v140h477v-140h-477z" />
<glyph unicode="&#xae;" horiz-adv-x="1769" d="M102 756q0 162 61.5 307.5t165.5 251t250 167.5t308 62q214 0 393.5 -104.5t283 -284.5t103.5 -395q0 -161 -61.5 -307.5t-165.5 -252t-249 -167.5t-306 -62q-162 0 -307.5 62t-249.5 167t-165 250t-61 306zM205 760q0 -190 90 -349.5t247 -252t345 -92.5q187 0 343 92 t245.5 250.5t89.5 347.5q0 190 -90 349.5t-246.5 252t-343.5 92.5q-188 0 -344.5 -92t-246 -250.5t-89.5 -347.5zM596 342v862h303q148 0 228.5 -63.5t80.5 -182.5q0 -189 -190 -237l205 -379h-131l-195 365h-180v-365h-121zM717 803h176q97 0 145.5 34.5t48.5 114.5 q0 76 -49.5 110t-146.5 34h-174v-293z" />
<glyph unicode="&#xaf;" horiz-adv-x="1024" d="M213 1266v141h598v-141h-598z" />
<glyph unicode="&#xb0;" horiz-adv-x="829" d="M117 1249q0 127 85 210t214 83q128 0 212.5 -83t84.5 -210t-84.5 -211t-212.5 -84q-129 0 -214 84t-85 211zM236 1249q0 -84 50.5 -137t129.5 -53q77 0 127.5 53t50.5 137t-50.5 136.5t-127.5 52.5q-79 0 -129.5 -52.5t-50.5 -136.5z" />
<glyph unicode="&#xb1;" horiz-adv-x="1804" d="M51 936v145h189v146q0 140 78 216.5t233 76.5q20 0 55.5 -3.5t42.5 -3.5v-143q-18 4 -71 4q-77 0 -119.5 -37t-42.5 -114v-142h436v140q0 140 78.5 219.5t232.5 79.5q17 0 53.5 -3.5t43.5 -3.5v-143q-16 4 -72 4q-160 0 -160 -151v-142h223v-145h-223v-936h-176v936h-436 v-936h-176v936h-189zM1462 0v1516h176v-1516h-176z" />
<glyph unicode="&#xb2;" horiz-adv-x="925" d="M133 565v41q0 113 66 213.5t243 212.5q101 66 142 113.5t41 111.5q0 67 -40 107.5t-112 40.5q-132 0 -217 -162l-115 68q115 225 336 225q138 0 217.5 -75.5t79.5 -198.5q0 -97 -54.5 -172t-191.5 -158q-205 -125 -225 -236h475v-131h-645z" />
<glyph unicode="&#xb3;" horiz-adv-x="925" d="M109 745l104 80q93 -147 240 -147q90 0 139 44t49 116q0 88 -60 131t-196 43h-57v114h63q122 0 177 36t55 110q0 61 -40 97t-120 36q-119 0 -219 -115l-97 88q136 158 324 158q149 0 226 -71t77 -179q0 -76 -40 -132t-118 -83q181 -56 181 -233q0 -130 -92 -210.5 t-246 -80.5q-110 0 -200.5 50.5t-149.5 147.5z" />
<glyph unicode="&#xb4;" horiz-adv-x="1024" d="M338 1198l192 324h215l-290 -324h-117z" />
<glyph unicode="&#xb6;" horiz-adv-x="1275" d="M119 1096q0 185 124 302.5t345 117.5h514v-1926h-139v1782h-205v-1782h-142v1092q-243 5 -370 109.5t-127 304.5z" />
<glyph unicode="&#xb7;" horiz-adv-x="559" d="M172 551v215h215v-215h-215z" />
<glyph unicode="&#xb8;" horiz-adv-x="1024" d="M256 -328l41 68q92 -62 205 -62q141 0 141 93q0 69 -82 69q-50 0 -102 -41l-64 31l54 170h96l-31 -106q48 30 115 30q60 0 102.5 -37t42.5 -102q0 -92 -71.5 -139t-184.5 -47q-150 0 -262 73z" />
<glyph unicode="&#xb9;" horiz-adv-x="831" d="M188 563v129h172v664q-73 -31 -167 -31v129q129 3 182 59h135v-821h154v-129h-476z" />
<glyph unicode="&#xba;" horiz-adv-x="892" d="M88 1145q0 97 29.5 173.5t79.5 124t113.5 72.5t135.5 25q151 0 255 -103t104 -292q0 -94 -29.5 -170.5t-79.5 -124t-114 -73t-136 -25.5t-135.5 25.5t-113.5 73t-79.5 124t-29.5 170.5zM225 1147q0 -124 56.5 -205.5t164.5 -81.5q103 0 162.5 80.5t59.5 206.5 q0 122 -57.5 204.5t-164.5 82.5q-103 0 -162 -80t-59 -207z" />
<glyph unicode="&#xbb;" horiz-adv-x="1110" d="M109 0l303 543l-303 538h178l311 -538l-311 -543h-178zM539 0l303 543l-303 538h176l311 -538l-311 -543h-176z" />
<glyph unicode="&#xbc;" horiz-adv-x="1961" d="M188 563v129h172v664q-73 -31 -167 -31v129q129 3 182 59h135v-821h154v-129h-476zM471 0l907 1516h160l-907 -1516h-160zM1102 223v99l424 632h162v-604h153v-127h-153v-223h-150v223h-436zM1270 350h270v408z" />
<glyph unicode="&#xbd;" horiz-adv-x="2037" d="M188 563v129h172v664q-73 -31 -167 -31v129q129 3 182 59h135v-821h154v-129h-476zM471 0l907 1516h160l-907 -1516h-160zM1245 0v43q0 113 66 212.5t243 211.5q101 66 142 113.5t41 111.5q0 68 -40.5 108t-113.5 40q-132 0 -217 -162l-113 70q116 223 334 223 q138 0 217.5 -75.5t79.5 -199.5q0 -96 -54.5 -171t-191.5 -156q-207 -129 -223 -238h475v-131h-645z" />
<glyph unicode="&#xbe;" horiz-adv-x="2021" d="M109 745l104 80q93 -147 240 -147q90 0 139 44t49 116q0 88 -60 131t-196 43h-57v114h63q122 0 177 36t55 110q0 61 -40 97t-120 36q-119 0 -219 -115l-97 88q136 158 324 158q149 0 226 -71t77 -179q0 -76 -40 -132t-118 -83q181 -56 181 -233q0 -130 -92 -210.5 t-246 -80.5q-110 0 -200.5 50.5t-149.5 147.5zM532 0l906 1516h159l-905 -1516h-160zM1161 223v99l424 632h162v-604h154v-127h-154v-223h-150v223h-436zM1329 350h270v408z" />
<glyph unicode="&#xbf;" horiz-adv-x="1124" d="M102 342q0 71 19 128.5t57.5 101.5t79.5 75.5t102 67.5q45 26 74.5 47t51 47t32.5 48.5t17.5 61.5t8 75t1.5 98h143q6 -65 6 -138q0 -108 -44.5 -181t-143.5 -132q-67 -40 -102.5 -65.5t-67 -59.5t-43.5 -72.5t-12 -91.5q0 -103 75 -162t207 -59q216 0 365 197l121 -101 q-96 -121 -214.5 -188.5t-283.5 -67.5q-206 0 -327.5 103t-121.5 268zM512 1305v211h209v-211h-209z" />
<glyph unicode="&#xc0;" horiz-adv-x="1392" d="M66 0l536 1522h189l536 -1522h-186l-150 434h-602l-149 -434h-174zM354 1933h215l193 -323h-117zM444 592h492l-242 711h-4z" />
<glyph unicode="&#xc1;" horiz-adv-x="1392" d="M66 0l536 1522h189l536 -1522h-186l-150 434h-602l-149 -434h-174zM444 592h492l-242 711h-4zM633 1610l192 323h215l-290 -323h-117z" />
<glyph unicode="&#xc2;" horiz-adv-x="1392" d="M66 0l536 1522h189l536 -1522h-186l-150 434h-602l-149 -434h-174zM367 1604l264 329h129l264 -329h-106l-224 192l-221 -192h-106zM444 592h492l-242 711h-4z" />
<glyph unicode="&#xc3;" horiz-adv-x="1392" d="M66 0l536 1522h189l536 -1522h-186l-150 434h-602l-149 -434h-174zM358 1604q0 243 189 243q41 0 86 -18t77.5 -39t71 -39t66.5 -18q44 0 64 25.5t20 84.5h104q0 -244 -186 -244q-41 0 -86 18t-77.5 39.5t-70 39.5t-65.5 18q-45 0 -64.5 -25.5t-19.5 -84.5h-109zM444 592 h492l-242 711h-4z" />
<glyph unicode="&#xc4;" horiz-adv-x="1392" d="M66 0l536 1522h189l536 -1522h-186l-150 434h-602l-149 -434h-174zM418 1606v192h180v-192h-180zM444 592h492l-242 711h-4zM791 1606v192h182v-192h-182z" />
<glyph unicode="&#xc5;" horiz-adv-x="1392" d="M66 0l520 1477q-39 25 -61.5 67t-22.5 94q0 82 55 136.5t139 54.5t139.5 -54.5t55.5 -136.5q0 -52 -22.5 -94t-61.5 -67l520 -1477h-186l-150 434h-602l-149 -434h-174zM444 592h492l-242 711h-4zM590 1638q0 -49 30 -80.5t76 -31.5t76.5 31.5t30.5 80.5q0 47 -30.5 79 t-76.5 32t-76 -32t-30 -79z" />
<glyph unicode="&#xc6;" horiz-adv-x="2068" d="M51 0l862 1516h1022v-166h-747v-473h555v-162h-555v-551h790v-164h-968v467h-512l-265 -467h-182zM588 627h422v741h-2z" />
<glyph unicode="&#xc7;" horiz-adv-x="1443" d="M113 764q0 231 81.5 409t227.5 274.5t334 96.5q444 0 561 -465l-172 -47q-52 181 -142 270t-249 89q-211 0 -335 -171t-124 -454q0 -299 125 -471t338 -172q314 0 411 379l170 -39q-56 -228 -198 -357t-365 -135l-24 -77q48 30 114 30q62 0 104 -37t42 -102 q0 -92 -71.5 -139t-182.5 -47q-152 0 -264 73l43 68q92 -62 202 -62q142 0 142 93q0 69 -82 69q-51 0 -103 -41l-61 31l43 145q-259 28 -412 238.5t-153 550.5z" />
<glyph unicode="&#xc8;" horiz-adv-x="1247" d="M186 0v1516h930v-166h-749v-473h557v-162h-557v-551h792v-164h-973zM350 1933h215l193 -323h-117z" />
<glyph unicode="&#xc9;" horiz-adv-x="1247" d="M186 0v1516h930v-166h-749v-473h557v-162h-557v-551h792v-164h-973zM545 1610l192 323h215l-290 -323h-117z" />
<glyph unicode="&#xca;" horiz-adv-x="1247" d="M186 0v1516h930v-166h-749v-473h557v-162h-557v-551h792v-164h-973zM322 1604l264 329h129l264 -329h-107l-223 192l-221 -192h-106z" />
<glyph unicode="&#xcb;" horiz-adv-x="1247" d="M186 0v1516h930v-166h-749v-473h557v-162h-557v-551h792v-164h-973zM383 1606v192h180v-192h-180zM756 1606v192h182v-192h-182z" />
<glyph unicode="&#xcc;" horiz-adv-x="593" d="M-33 1933h215l193 -323h-117zM207 0v1516h180v-1516h-180z" />
<glyph unicode="&#xcd;" horiz-adv-x="593" d="M207 0v1516h180v-1516h-180zM238 1610l192 323h215l-291 -323h-116z" />
<glyph unicode="&#xce;" horiz-adv-x="593" d="M-33 1604l264 329h129l265 -329h-107l-223 192l-221 -192h-107zM207 0v1516h180v-1516h-180z" />
<glyph unicode="&#xcf;" horiz-adv-x="593" d="M18 1606v192h181v-192h-181zM207 0v1516h180v-1516h-180zM391 1606v192h182v-192h-182z" />
<glyph unicode="&#xd0;" horiz-adv-x="1464" d="M23 721v147h163v648h400q371 0 567.5 -189.5t196.5 -568.5q0 -375 -198.5 -566.5t-565.5 -191.5h-400v721h-163zM367 162h241q281 0 421 144.5t140 455.5q0 302 -142 445t-423 143h-237v-482h323v-147h-323v-559z" />
<glyph unicode="&#xd1;" d="M186 0v1516h191l797 -1199h4v1199h170v-1516h-162l-826 1231h-4v-1231h-170zM444 1604q0 243 189 243q41 0 86 -18t77.5 -39t71 -39t66.5 -18q44 0 64 25.5t20 84.5h104q0 -244 -186 -244q-41 0 -86 18t-77.5 39.5t-70 39.5t-65.5 18q-45 0 -64.5 -25.5t-19.5 -84.5h-109 z" />
<glyph unicode="&#xd2;" d="M113 758q0 179 49.5 327.5t137 248.5t208 155t260.5 55t260 -55t206.5 -155t135.5 -248.5t49 -327.5t-49 -327.5t-135.5 -249t-206.5 -155.5t-260 -55t-260.5 55t-208 155t-137 249t-49.5 328zM295 758q0 -292 130 -458.5t343 -166.5q210 0 340.5 167t130.5 458 q0 290 -130.5 456t-340.5 166q-213 0 -343 -165.5t-130 -456.5zM442 1933h215l193 -323h-117z" />
<glyph unicode="&#xd3;" d="M113 758q0 179 49.5 327.5t137 248.5t208 155t260.5 55t260 -55t206.5 -155t135.5 -248.5t49 -327.5t-49 -327.5t-135.5 -249t-206.5 -155.5t-260 -55t-260.5 55t-208 155t-137 249t-49.5 328zM295 758q0 -292 130 -458.5t343 -166.5q210 0 340.5 167t130.5 458 q0 290 -130.5 456t-340.5 166q-213 0 -343 -165.5t-130 -456.5zM676 1610l192 323h215l-290 -323h-117z" />
<glyph unicode="&#xd4;" d="M113 758q0 179 49.5 327.5t137 248.5t208 155t260.5 55t260 -55t206.5 -155t135.5 -248.5t49 -327.5t-49 -327.5t-135.5 -249t-206.5 -155.5t-260 -55t-260.5 55t-208 155t-137 249t-49.5 328zM295 758q0 -292 130 -458.5t343 -166.5q210 0 340.5 167t130.5 458 q0 290 -130.5 456t-340.5 166q-213 0 -343 -165.5t-130 -456.5zM436 1604l264 329h129l265 -329h-107l-223 192l-221 -192h-107z" />
<glyph unicode="&#xd5;" d="M113 758q0 179 49.5 327.5t137 248.5t208 155t260.5 55t260 -55t206.5 -155t135.5 -248.5t49 -327.5t-49 -327.5t-135.5 -249t-206.5 -155.5t-260 -55t-260.5 55t-208 155t-137 249t-49.5 328zM295 758q0 -292 130 -458.5t343 -166.5q210 0 340.5 167t130.5 458 q0 290 -130.5 456t-340.5 166q-213 0 -343 -165.5t-130 -456.5zM426 1604q0 243 188 243q41 0 86 -18t77.5 -39t71 -39t66.5 -18q44 0 64 25.5t20 84.5h105q0 -244 -186 -244q-41 0 -86 18t-78 39.5t-70.5 39.5t-65.5 18q-45 0 -64 -25t-19 -85h-109z" />
<glyph unicode="&#xd6;" d="M113 758q0 179 49.5 327.5t137 248.5t208 155t260.5 55t260 -55t206.5 -155t135.5 -248.5t49 -327.5t-49 -327.5t-135.5 -249t-206.5 -155.5t-260 -55t-260.5 55t-208 155t-137 249t-49.5 328zM295 758q0 -292 130 -458.5t343 -166.5q210 0 340.5 167t130.5 458 q0 290 -130.5 456t-340.5 166q-213 0 -343 -165.5t-130 -456.5zM487 1606v192h181v-192h-181zM860 1606v192h182v-192h-182z" />
<glyph unicode="&#xd7;" horiz-adv-x="1306" d="M201 305l346 346l-346 346l104 105l346 -348l346 348l105 -105l-346 -346l348 -346l-105 -104l-346 348l-348 -350z" />
<glyph unicode="&#xd8;" d="M113 758q0 179 49.5 327.5t137 248.5t208 155t260.5 55q243 0 412 -155l135 167l98 -73l-147 -189q153 -212 153 -536q0 -179 -49 -327.5t-135.5 -249t-206.5 -155.5t-260 -55q-240 0 -416 156l-133 -168l-100 74l149 188q-155 210 -155 537zM291 758q0 -243 92 -402 l694 897q-122 131 -309 131q-213 0 -345 -167.5t-132 -458.5zM453 262q127 -133 315 -133q211 0 342 169t131 460q0 240 -92 399z" />
<glyph unicode="&#xd9;" horiz-adv-x="1468" d="M172 524v992h180v-967q0 -191 95.5 -302.5t289.5 -111.5q192 0 286.5 109t94.5 301v971h178v-988q0 -119 -35.5 -219.5t-104 -176t-176.5 -117.5t-245 -42q-142 0 -251.5 41.5t-176.5 117t-101 174t-34 218.5zM422 1933h215l192 -323h-116z" />
<glyph unicode="&#xda;" horiz-adv-x="1468" d="M172 524v992h180v-967q0 -191 95.5 -302.5t289.5 -111.5q192 0 286.5 109t94.5 301v971h178v-988q0 -119 -35.5 -219.5t-104 -176t-176.5 -117.5t-245 -42q-142 0 -251.5 41.5t-176.5 117t-101 174t-34 218.5zM625 1610l192 323h215l-291 -323h-116z" />
<glyph unicode="&#xdb;" horiz-adv-x="1468" d="M172 524v992h180v-967q0 -191 95.5 -302.5t289.5 -111.5q192 0 286.5 109t94.5 301v971h178v-988q0 -119 -35.5 -219.5t-104 -176t-176.5 -117.5t-245 -42q-142 0 -251.5 41.5t-176.5 117t-101 174t-34 218.5zM403 1604l265 329h129l264 -329h-107l-223 192l-221 -192 h-107z" />
<glyph unicode="&#xdc;" horiz-adv-x="1468" d="M172 524v992h180v-967q0 -191 95.5 -302.5t289.5 -111.5q192 0 286.5 109t94.5 301v971h178v-988q0 -119 -35.5 -219.5t-104 -176t-176.5 -117.5t-245 -42q-142 0 -251.5 41.5t-176.5 117t-101 174t-34 218.5zM455 1606v192h180v-192h-180zM827 1606v192h183v-192h-183z " />
<glyph unicode="&#xdd;" horiz-adv-x="1292" d="M45 1516h193l411 -699l410 699h188l-512 -852v-664h-180v664zM477 1626l193 324h215l-291 -324h-117z" />
<glyph unicode="&#xde;" horiz-adv-x="1337" d="M186 0v1516h181v-277h331q256 -2 402.5 -108.5t146.5 -323.5q0 -119 -42.5 -207t-120.5 -140t-177 -77t-221 -25h-319v-358h-181zM367 522h327q188 0 279.5 65t91.5 214q0 143 -92 206.5t-281 63.5h-325v-549z" />
<glyph unicode="&#xdf;" horiz-adv-x="1282" d="M156 0v1044q0 228 123 350t339 122q200 0 317.5 -94.5t117.5 -264.5q0 -117 -70.5 -199t-194.5 -116q84 -11 153.5 -40t127 -78t89.5 -125.5t32 -174.5q0 -205 -110 -326t-298 -121q-214 0 -325 123l96 107q94 -88 227 -88q110 0 177 80.5t67 216.5q0 179 -120 258.5 t-355 89.5v133q173 1 254.5 69t81.5 181q0 105 -72 162t-199 57q-282 0 -282 -313v-1053h-176z" />
<glyph unicode="&#xe0;" horiz-adv-x="1132" d="M90 256q0 85 38 153t121.5 126t224.5 101t339 71v49q0 200 -205 200q-114 0 -208 -43t-183 -120l-92 110q218 201 502 201q360 0 360 -361v-477q0 -192 31 -266h-180q-25 80 -25 150q-178 -166 -418 -166q-141 0 -223 71.5t-82 200.5zM264 283q0 -77 48 -118.5t134 -41.5 q206 0 367 158v303q-202 -32 -325 -77.5t-173.5 -99.5t-50.5 -124zM274 1522h215l193 -324h-117z" />
<glyph unicode="&#xe1;" horiz-adv-x="1132" d="M90 256q0 85 38 153t121.5 126t224.5 101t339 71v49q0 200 -205 200q-114 0 -208 -43t-183 -120l-92 110q218 201 502 201q360 0 360 -361v-477q0 -192 31 -266h-180q-25 80 -25 150q-178 -166 -418 -166q-141 0 -223 71.5t-82 200.5zM264 283q0 -77 48 -118.5t134 -41.5 q206 0 367 158v303q-202 -32 -325 -77.5t-173.5 -99.5t-50.5 -124zM485 1198l193 324h215l-291 -324h-117z" />
<glyph unicode="&#xe2;" horiz-adv-x="1132" d="M90 256q0 85 38 153t121.5 126t224.5 101t339 71v49q0 200 -205 200q-114 0 -208 -43t-183 -120l-92 110q218 201 502 201q360 0 360 -361v-477q0 -192 31 -266h-180q-25 80 -25 150q-178 -166 -418 -166q-141 0 -223 71.5t-82 200.5zM250 1192l264 330h129l264 -330 h-106l-223 192l-222 -192h-106zM264 283q0 -77 48 -118.5t134 -41.5q206 0 367 158v303q-202 -32 -325 -77.5t-173.5 -99.5t-50.5 -124z" />
<glyph unicode="&#xe3;" horiz-adv-x="1132" d="M90 256q0 85 38 153t121.5 126t224.5 101t339 71v49q0 200 -205 200q-114 0 -208 -43t-183 -120l-92 110q218 201 502 201q360 0 360 -361v-477q0 -192 31 -266h-180q-25 80 -25 150q-178 -166 -418 -166q-141 0 -223 71.5t-82 200.5zM236 1192q0 244 188 244 q51 0 108.5 -29t107.5 -57.5t85 -28.5q43 0 63.5 26t20.5 85h104q0 -244 -186 -244q-41 0 -86 18t-77.5 39.5t-70 39.5t-65.5 18q-45 0 -64.5 -25.5t-19.5 -85.5h-108zM264 283q0 -77 48 -118.5t134 -41.5q206 0 367 158v303q-202 -32 -325 -77.5t-173.5 -99.5t-50.5 -124z " />
<glyph unicode="&#xe4;" horiz-adv-x="1132" d="M90 256q0 85 38 153t121.5 126t224.5 101t339 71v49q0 200 -205 200q-114 0 -208 -43t-183 -120l-92 110q218 201 502 201q360 0 360 -361v-477q0 -192 31 -266h-180q-25 80 -25 150q-178 -166 -418 -166q-141 0 -223 71.5t-82 200.5zM264 283q0 -77 48 -118.5t134 -41.5 q206 0 367 158v303q-202 -32 -325 -77.5t-173.5 -99.5t-50.5 -124zM311 1194v192h181v-192h-181zM684 1194v192h182v-192h-182z" />
<glyph unicode="&#xe5;" horiz-adv-x="1132" d="M90 256q0 85 38 153t121.5 126t224.5 101t339 71v49q0 200 -205 200q-114 0 -208 -43t-183 -120l-92 110q218 201 502 201q360 0 360 -361v-477q0 -192 31 -266h-180q-25 80 -25 150q-178 -166 -418 -166q-141 0 -223 71.5t-82 200.5zM264 283q0 -77 48 -118.5t134 -41.5 q206 0 367 158v303q-202 -32 -325 -77.5t-173.5 -99.5t-50.5 -124zM397 1376q0 82 55.5 136.5t139.5 54.5t139 -54.5t55 -136.5q0 -84 -55 -139t-139 -55t-139.5 55t-55.5 139zM485 1376q0 -49 30.5 -80.5t76.5 -31.5t76 31.5t30 80.5q0 47 -30 79t-76 32t-76.5 -32 t-30.5 -79z" />
<glyph unicode="&#xe6;" horiz-adv-x="1830" d="M88 250q0 85 38 154t121.5 128t224.5 103t339 72v49q0 200 -205 200q-114 0 -208 -43t-183 -120l-90 110q218 201 500 201q251 0 307 -207q53 91 147.5 149t204.5 58q95 0 175.5 -35t142.5 -103.5t97.5 -179.5t35.5 -254v-30h-762q4 -182 94.5 -281.5t230.5 -99.5 q110 0 184.5 43t139.5 133l102 -90q-161 -230 -440 -230q-129 0 -233.5 57.5t-167.5 172.5q-111 -116 -227 -173t-263 -57q-141 0 -223 72.5t-82 200.5zM262 276q0 -76 48 -116.5t134 -40.5q215 0 396 190q-31 91 -31 205q0 60 2 74q-151 -25 -259 -58t-170.5 -73t-91 -84.5 t-28.5 -96.5zM977 633h590q-11 150 -83 236.5t-202 86.5q-116 0 -201.5 -82t-103.5 -241z" />
<glyph unicode="&#xe7;" horiz-adv-x="1097" d="M94 541q0 115 28.5 210t76.5 159.5t112 109t134.5 64.5t144.5 20q71 0 131.5 -16.5t104.5 -43.5t80.5 -67.5t61.5 -82.5t46 -93l-150 -62q-44 116 -109.5 171t-168.5 55q-61 0 -115.5 -24t-100 -73t-72 -133t-26.5 -194q0 -197 86 -312.5t224 -115.5q101 0 169 54.5 t121 174.5l146 -57q-66 -142 -166 -220.5t-256 -84.5l-27 -86q48 30 115 30q61 0 103 -37t42 -102q0 -92 -71.5 -139t-182.5 -47q-152 0 -264 73l43 68q92 -62 203 -62q141 0 141 93q0 69 -82 69q-50 0 -102 -41l-61 31l45 156q-174 26 -289 171t-115 384z" />
<glyph unicode="&#xe8;" horiz-adv-x="1130" d="M94 541q0 114 29.5 209t78 159.5t112.5 109t132 65t138 20.5q98 0 179 -35t142 -104t95 -179.5t34 -253.5v-36h-764q4 -177 95.5 -276t230.5 -99q112 0 186.5 43t139.5 133l102 -90q-161 -230 -440 -230q-98 0 -185 36t-155.5 104t-109 177.5t-40.5 246.5zM250 1522h215 l192 -324h-116zM274 633h592q-11 150 -82.5 236.5t-201.5 86.5q-117 0 -203.5 -82t-104.5 -241z" />
<glyph unicode="&#xe9;" horiz-adv-x="1130" d="M94 541q0 114 29.5 209t78 159.5t112.5 109t132 65t138 20.5q98 0 179 -35t142 -104t95 -179.5t34 -253.5v-36h-764q4 -177 95.5 -276t230.5 -99q112 0 186.5 43t139.5 133l102 -90q-161 -230 -440 -230q-98 0 -185 36t-155.5 104t-109 177.5t-40.5 246.5zM274 633h592 q-11 150 -82.5 236.5t-201.5 86.5q-117 0 -203.5 -82t-104.5 -241zM489 1198l193 324h215l-291 -324h-117z" />
<glyph unicode="&#xea;" horiz-adv-x="1130" d="M94 541q0 114 29.5 209t78 159.5t112.5 109t132 65t138 20.5q98 0 179 -35t142 -104t95 -179.5t34 -253.5v-36h-764q4 -177 95.5 -276t230.5 -99q112 0 186.5 43t139.5 133l102 -90q-161 -230 -440 -230q-98 0 -185 36t-155.5 104t-109 177.5t-40.5 246.5zM250 1192 l264 330h129l264 -330h-106l-223 192l-222 -192h-106zM274 633h592q-11 150 -82.5 236.5t-201.5 86.5q-117 0 -203.5 -82t-104.5 -241z" />
<glyph unicode="&#xeb;" horiz-adv-x="1130" d="M94 541q0 114 29.5 209t78 159.5t112.5 109t132 65t138 20.5q98 0 179 -35t142 -104t95 -179.5t34 -253.5v-36h-764q4 -177 95.5 -276t230.5 -99q112 0 186.5 43t139.5 133l102 -90q-161 -230 -440 -230q-98 0 -185 36t-155.5 104t-109 177.5t-40.5 246.5zM274 633h592 q-11 150 -82.5 236.5t-201.5 86.5q-117 0 -203.5 -82t-104.5 -241zM293 1194v192h180v-192h-180zM666 1194v192h182v-192h-182z" />
<glyph unicode="&#xec;" horiz-adv-x="512" d="M-74 1522h215l193 -324h-117zM168 0v1081h176v-1081h-176z" />
<glyph unicode="&#xed;" horiz-adv-x="512" d="M168 0v1081h176v-1081h-176zM205 1198l192 324h215l-290 -324h-117z" />
<glyph unicode="&#xee;" horiz-adv-x="512" d="M-74 1192l264 330h129l265 -330h-107l-223 192l-221 -192h-107zM168 0v1081h176v-1081h-176z" />
<glyph unicode="&#xef;" horiz-adv-x="512" d="M-23 1194v192h181v-192h-181zM168 0v1081h176v-1081h-176zM350 1194v192h182v-192h-182z" />
<glyph unicode="&#xf0;" horiz-adv-x="1193" d="M96 520q0 126 37 227.5t101.5 167.5t150 101t184.5 35q96 0 187.5 -49t146.5 -130q-51 211 -172 347l-211 -82l-53 110l176 68q-55 53 -151 115l86 108q118 -66 208 -154l199 80l51 -112l-164 -68q226 -283 226 -745q0 -256 -141.5 -409t-358.5 -153q-218 0 -360 148 t-142 395zM272 522q0 -175 86 -287t240 -112q149 0 236.5 109t87.5 292q0 172 -87 279.5t-237 107.5q-151 0 -238.5 -104t-87.5 -285z" />
<glyph unicode="&#xf1;" horiz-adv-x="1204" d="M156 0v1081h178v-161q188 184 405 184q154 0 237 -84.5t83 -239.5v-780h-176v741q0 108 -48.5 159.5t-150.5 51.5q-92 0 -175.5 -44t-174.5 -130v-778h-178zM276 1192q0 244 189 244q51 0 108.5 -29t107.5 -57.5t85 -28.5q43 0 63.5 26t20.5 85h104q0 -244 -186 -244 q-41 0 -86 18t-77.5 39.5t-70 39.5t-65.5 18q-45 0 -64.5 -25.5t-19.5 -85.5h-109z" />
<glyph unicode="&#xf2;" horiz-adv-x="1193" d="M94 541q0 136 41 245t111.5 177.5t160.5 104.5t191 36q80 0 153.5 -22.5t137 -68.5t110.5 -112t74 -158.5t27 -201.5q0 -135 -41 -244t-111 -178t-160 -105.5t-190 -36.5t-190 36.5t-160.5 105.5t-112 178t-41.5 244zM272 541q0 -117 35 -209t110 -148.5t181 -56.5 q152 0 238 112.5t86 301.5q0 115 -35.5 206.5t-110 148t-178.5 56.5q-153 0 -239.5 -112.5t-86.5 -298.5zM274 1522h215l193 -324h-117z" />
<glyph unicode="&#xf3;" horiz-adv-x="1193" d="M94 541q0 136 41 245t111.5 177.5t160.5 104.5t191 36q80 0 153.5 -22.5t137 -68.5t110.5 -112t74 -158.5t27 -201.5q0 -135 -41 -244t-111 -178t-160 -105.5t-190 -36.5t-190 36.5t-160.5 105.5t-112 178t-41.5 244zM272 541q0 -117 35 -209t110 -148.5t181 -56.5 q152 0 238 112.5t86 301.5q0 115 -35.5 206.5t-110 148t-178.5 56.5q-153 0 -239.5 -112.5t-86.5 -298.5zM508 1198l192 324h215l-290 -324h-117z" />
<glyph unicode="&#xf4;" horiz-adv-x="1193" d="M94 541q0 136 41 245t111.5 177.5t160.5 104.5t191 36q80 0 153.5 -22.5t137 -68.5t110.5 -112t74 -158.5t27 -201.5q0 -135 -41 -244t-111 -178t-160 -105.5t-190 -36.5t-190 36.5t-160.5 105.5t-112 178t-41.5 244zM268 1192l264 330h130l264 -330h-107l-223 192 l-221 -192h-107zM272 541q0 -117 35 -209t110 -148.5t181 -56.5q152 0 238 112.5t86 301.5q0 115 -35.5 206.5t-110 148t-178.5 56.5q-153 0 -239.5 -112.5t-86.5 -298.5z" />
<glyph unicode="&#xf5;" horiz-adv-x="1193" d="M94 541q0 136 41 245t111.5 177.5t160.5 104.5t191 36q80 0 153.5 -22.5t137 -68.5t110.5 -112t74 -158.5t27 -201.5q0 -135 -41 -244t-111 -178t-160 -105.5t-190 -36.5t-190 36.5t-160.5 105.5t-112 178t-41.5 244zM260 1192q0 244 189 244q51 0 108.5 -29t107.5 -57.5 t85 -28.5q43 0 63.5 26t20.5 85h104q0 -244 -186 -244q-41 0 -86 18t-77.5 39.5t-70 39.5t-65.5 18q-45 0 -64.5 -25.5t-19.5 -85.5h-109zM272 541q0 -117 35 -209t110 -148.5t181 -56.5q152 0 238 112.5t86 301.5q0 115 -35.5 206.5t-110 148t-178.5 56.5 q-153 0 -239.5 -112.5t-86.5 -298.5z" />
<glyph unicode="&#xf6;" horiz-adv-x="1193" d="M94 541q0 136 41 245t111.5 177.5t160.5 104.5t191 36q80 0 153.5 -22.5t137 -68.5t110.5 -112t74 -158.5t27 -201.5q0 -135 -41 -244t-111 -178t-160 -105.5t-190 -36.5t-190 36.5t-160.5 105.5t-112 178t-41.5 244zM272 541q0 -117 35 -209t110 -148.5t181 -56.5 q152 0 238 112.5t86 301.5q0 115 -35.5 206.5t-110 148t-178.5 56.5q-153 0 -239.5 -112.5t-86.5 -298.5zM317 1194v192h181v-192h-181zM690 1194v192h182v-192h-182z" />
<glyph unicode="&#xf7;" horiz-adv-x="1306" d="M135 608v148h1039v-148h-1039zM553 217v189h192v-189h-192zM553 956v189h192v-189h-192z" />
<glyph unicode="&#xf8;" horiz-adv-x="1193" d="M94 541q0 136 41 245t111.5 177.5t160.5 104.5t191 36q163 0 291 -90l106 135l88 -74l-110 -139q127 -153 127 -395q0 -135 -41 -244t-111 -178t-160 -105.5t-190 -36.5q-163 0 -289 91l-110 -140l-86 74l112 141q-131 154 -131 398zM268 541q0 -158 64 -271l463 617 q-80 71 -197 71q-154 0 -242 -115t-88 -302zM399 188q82 -69 199 -69q153 0 240.5 116.5t87.5 305.5q0 153 -62 262z" />
<glyph unicode="&#xf9;" horiz-adv-x="1204" d="M145 301v780h177v-743q0 -108 48 -159.5t150 -51.5q93 0 175.5 44t174.5 130v780h179v-1081h-179v162q-186 -182 -405 -182q-155 0 -237.5 83.5t-82.5 237.5zM283 1522h215l192 -324h-117z" />
<glyph unicode="&#xfa;" horiz-adv-x="1204" d="M145 301v780h177v-743q0 -108 48 -159.5t150 -51.5q93 0 175.5 44t174.5 130v780h179v-1081h-179v162q-186 -182 -405 -182q-155 0 -237.5 83.5t-82.5 237.5zM506 1198l192 324h215l-290 -324h-117z" />
<glyph unicode="&#xfb;" horiz-adv-x="1204" d="M145 301v780h177v-743q0 -108 48 -159.5t150 -51.5q93 0 175.5 44t174.5 130v780h179v-1081h-179v162q-186 -182 -405 -182q-155 0 -237.5 83.5t-82.5 237.5zM268 1192l264 330h130l264 -330h-107l-223 192l-221 -192h-107z" />
<glyph unicode="&#xfc;" horiz-adv-x="1204" d="M145 301v780h177v-743q0 -108 48 -159.5t150 -51.5q93 0 175.5 44t174.5 130v780h179v-1081h-179v162q-186 -182 -405 -182q-155 0 -237.5 83.5t-82.5 237.5zM322 1194v192h180v-192h-180zM694 1194v192h183v-192h-183z" />
<glyph unicode="&#xfd;" horiz-adv-x="1091" d="M14 -389l41 141q70 -18 160 -18q81 0 127.5 35.5t79.5 117.5l41 107l-418 1087h186l318 -874h4l317 874h179l-463 -1204q-30 -76 -60 -126.5t-72.5 -90t-100.5 -58t-136 -18.5q-112 0 -203 27zM377 1198l192 324h215l-290 -324h-117z" />
<glyph unicode="&#xfe;" horiz-adv-x="1226" d="M156 -410v1926h176v-584q157 172 356 172q195 0 317.5 -144.5t122.5 -416.5q0 -273 -126 -416t-332 -143q-189 0 -338 155v-549h-176zM332 291q145 -164 313 -164q146 0 226.5 102.5t80.5 311.5q0 200 -84.5 305.5t-220.5 105.5q-163 0 -315 -166v-495z" />
<glyph unicode="&#xff;" horiz-adv-x="1091" d="M14 -389l41 141q70 -18 160 -18q81 0 127.5 35.5t79.5 117.5l41 107l-418 1087h186l318 -874h4l317 874h179l-463 -1204q-30 -76 -60 -126.5t-72.5 -90t-100.5 -58t-136 -18.5q-112 0 -203 27zM272 1194v192h181v-192h-181zM645 1194v192h182v-192h-182z" />
<glyph unicode="&#x131;" horiz-adv-x="512" d="M168 0v1081h176v-1081h-176z" />
<glyph unicode="&#x141;" horiz-adv-x="1165" d="M14 655v146l174 47v668h181v-621l317 86v-147l-317 -84v-586h727v-164h-908v700z" />
<glyph unicode="&#x142;" horiz-adv-x="622" d="M43 643v137l180 49v687h176v-642l185 50v-138l-185 -49v-737h-176v690z" />
<glyph unicode="&#x152;" horiz-adv-x="2295" d="M113 758q0 179 51 328t139 248.5t208 154.5t257 55q160 0 284 -77.5t197 -211.5v261h916v-166h-750v-473h557v-162h-557v-551h791v-164h-957v264q-73 -135 -197.5 -214t-283.5 -79q-137 0 -257 55t-208 155t-139 249t-51 328zM293 758q0 -291 131 -458t344 -167 q210 0 339.5 167t129.5 458t-129.5 456.5t-339.5 165.5q-213 0 -344 -165.5t-131 -456.5z" />
<glyph unicode="&#x153;" horiz-adv-x="1939" d="M94 541q0 136 40.5 245t110 177.5t159 104.5t190.5 36q137 0 244.5 -72t162.5 -194q50 118 158.5 192t235.5 74q95 0 175.5 -35t142.5 -103.5t97 -179.5t35 -254v-30h-760q3 -182 93.5 -281.5t230.5 -99.5q110 0 183.5 43t138.5 133l104 -90q-161 -230 -440 -230 q-130 0 -240.5 72t-157.5 189q-57 -119 -162 -190t-241 -71q-100 0 -189.5 36.5t-159 105.5t-110.5 178t-41 244zM272 541q0 -118 34 -210t108 -149t180 -57q152 0 236.5 113t84.5 303q0 116 -34 207t-108 147.5t-179 56.5q-152 0 -237 -112t-85 -299zM1087 633h590 q-11 150 -82.5 236.5t-201.5 86.5q-116 0 -201.5 -82t-104.5 -241z" />
<glyph unicode="&#x160;" horiz-adv-x="1345" d="M111 367l151 67q57 -151 166 -227t264 -76q162 0 258.5 66t96.5 184q0 77 -33.5 129t-114.5 96t-233 92q-105 32 -174.5 58.5t-137.5 64t-106.5 80.5t-62 104t-23.5 138q0 174 136 287.5t351 113.5q206 0 339 -92.5t196 -247.5l-144 -80q-60 134 -157.5 195t-235.5 61 q-142 0 -224.5 -62t-82.5 -161q0 -49 14 -85.5t40 -65.5t77.5 -55.5t111 -49t156.5 -53.5q98 -30 168.5 -58.5t133.5 -67.5t101.5 -84.5t60.5 -107t22 -137.5q0 -188 -150 -305t-391 -117q-213 0 -362.5 106t-210.5 290zM342 1958h109l221 -193l221 193h106l-264 -330h-129z " />
<glyph unicode="&#x161;" horiz-adv-x="1048" d="M78 164l106 106q139 -149 338 -149q126 0 193 43.5t67 126.5q0 77 -64 117t-214 75q-77 18 -129 35t-105 43.5t-83.5 58.5t-50 80t-19.5 109q0 127 103 211t276 84q135 0 233.5 -40t179.5 -116l-92 -117q-140 130 -313 130q-111 0 -165 -41.5t-54 -104.5q0 -71 59 -107.5 t197 -68.5q84 -20 138 -37t111 -44.5t89 -61t52.5 -84t20.5 -115.5q0 -151 -120.5 -234t-311.5 -83q-141 0 -257 50.5t-185 133.5zM195 1530h108l221 -193l221 193h107l-264 -330h-129z" />
<glyph unicode="&#x178;" horiz-adv-x="1292" d="M45 1516h193l411 -699l410 699h188l-512 -852v-664h-180v664zM369 1606v192h180v-192h-180zM741 1606v192h183v-192h-183z" />
<glyph unicode="&#x17d;" horiz-adv-x="1290" d="M82 0v127l887 1237h-830v152h1051v-132l-881 -1234h881v-150h-1108zM319 1958h109l221 -193l221 193h107l-264 -330h-129z" />
<glyph unicode="&#x17e;" horiz-adv-x="1044" d="M80 0v106l633 832h-584v143h805v-110l-635 -830h666v-141h-885zM195 1530h108l221 -193l221 193h107l-264 -330h-129z" />
<glyph unicode="&#x192;" horiz-adv-x="714" d="M-193 -406l19 134q28 -4 74 -4q177 0 196 161l131 953h-188l18 137h189l33 252q19 144 106.5 218.5t257.5 74.5q18 0 56.5 -3.5t45.5 -3.5l-20 -137q-28 4 -74 4q-178 0 -196 -151l-33 -254h237l-18 -137h-238l-133 -969q-19 -138 -105.5 -209.5t-256.5 -71.5 q-53 0 -101 6z" />
<glyph unicode="&#x2c6;" horiz-adv-x="1060" d="M201 1192l264 330h129l264 -330h-106l-224 192l-221 -192h-106z" />
<glyph unicode="&#x2c7;" horiz-adv-x="1060" d="M201 1530h108l221 -193l222 193h106l-264 -330h-129z" />
<glyph unicode="&#x2d8;" horiz-adv-x="1024" d="M195 1530h106q24 -213 211 -213t211 213h106q-8 -157 -92 -250.5t-225 -93.5t-225 93.5t-92 250.5z" />
<glyph unicode="&#x2d9;" horiz-adv-x="1024" d="M410 1206v185h204v-185h-204z" />
<glyph unicode="&#x2da;" horiz-adv-x="1105" d="M358 1376q0 82 55.5 136.5t139.5 54.5t139.5 -54.5t55.5 -136.5q0 -84 -55 -139t-140 -55t-140 55t-55 139zM446 1376q0 -49 30.5 -80.5t76.5 -31.5t76 31.5t30 80.5q0 47 -30 79t-76 32t-76.5 -32t-30.5 -79z" />
<glyph unicode="&#x2db;" horiz-adv-x="1024" d="M319 -225q0 118 168 225h111q-141 -97 -141 -197q0 -96 104 -96q87 0 191 51l36 -63q-146 -78 -270 -78q-93 0 -146 42t-53 116z" />
<glyph unicode="&#x2dc;" horiz-adv-x="1040" d="M180 1192q0 244 189 244q51 0 108.5 -29t107.5 -57.5t85 -28.5q43 0 63.5 26t20.5 85h104q0 -244 -186 -244q-41 0 -86 18t-77.5 39.5t-70 39.5t-65.5 18q-45 0 -64.5 -25.5t-19.5 -85.5h-109z" />
<glyph unicode="&#x2dd;" horiz-adv-x="1042" d="M156 1198l198 324h217l-297 -324h-118zM496 1198l204 324h218l-302 -324h-120z" />
<glyph unicode="&#x394;" horiz-adv-x="1206" d="M51 936v145h189v146q0 140 78 216.5t233 76.5q18 0 54.5 -3.5t43.5 -3.5v-143q-18 4 -71 4q-77 0 -119.5 -37t-42.5 -114v-142h225v-145h-225v-936h-176v936h-189zM672 -270q36 -9 71 -9q109 0 109 125v1235h176v-1247q0 -118 -57.5 -182t-192.5 -64q-43 0 -106 9v133z M850 1307v178h180v-178h-180z" />
<glyph unicode="&#x3a9;" horiz-adv-x="1556" d="M20 662v190l369 -31l-12 209l-64 -4v148l56 -5l-4 54h147l-4 -62l207 -14l-31 369h190l-30 -369l207 14l-4 62h147l-4 -54l55 5v-148l-63 4l-15 -209l369 31v-190l-369 30l15 -205l63 5v-148l-55 4l4 -57h-147l4 65l-207 13l30 -369h-190l31 369l-207 -13l4 -65h-147 l4 57l-56 -4v148l64 -5l12 205zM487 692l13 -213l215 -12v225h-228zM487 821h228v228l-215 -13zM844 467l213 12l12 213h-225v-225zM844 821h225l-12 215l-213 13v-228z" />
<glyph unicode="&#x3bc;" horiz-adv-x="1214" d="M156 -410v1491h176v-743q0 -107 48.5 -160t151.5 -53q91 0 174 44t177 130v782h176v-1081h-176v174q-182 -178 -363 -188q-131 -3 -188 59v-455h-176z" />
<glyph unicode="&#x3c0;" horiz-adv-x="1769" d="M102 756q0 162 61.5 307.5t165.5 251t250 167.5t308 62q214 0 393.5 -104.5t283 -284.5t103.5 -395q0 -161 -61.5 -307.5t-165.5 -252t-249 -167.5t-306 -62q-162 0 -307.5 62t-249.5 167t-165 250t-61 306zM205 760q0 -190 90 -349.5t247 -252t345 -92.5q187 0 343 92 t245.5 250.5t89.5 347.5q0 190 -90 349.5t-246.5 252t-343.5 92.5q-188 0 -344.5 -92t-246 -250.5t-89.5 -347.5zM621 330v862h303q150 0 229.5 -61.5t79.5 -182.5q0 -128 -84.5 -192t-235.5 -64h-172v-362h-120zM741 797h179q95 0 143.5 34t48.5 111q0 76 -49 109.5 t-145 33.5h-177v-288z" />
<glyph unicode="&#x2000;" horiz-adv-x="979" />
<glyph unicode="&#x2001;" horiz-adv-x="1958" />
<glyph unicode="&#x2002;" horiz-adv-x="979" />
<glyph unicode="&#x2003;" horiz-adv-x="1958" />
<glyph unicode="&#x2004;" horiz-adv-x="652" />
<glyph unicode="&#x2005;" horiz-adv-x="489" />
<glyph unicode="&#x2006;" horiz-adv-x="326" />
<glyph unicode="&#x2007;" horiz-adv-x="326" />
<glyph unicode="&#x2008;" horiz-adv-x="244" />
<glyph unicode="&#x2009;" horiz-adv-x="391" />
<glyph unicode="&#x200a;" horiz-adv-x="108" />
<glyph unicode="&#x2010;" horiz-adv-x="731" d="M127 573v140h477v-140h-477z" />
<glyph unicode="&#x2011;" horiz-adv-x="731" d="M127 573v140h477v-140h-477z" />
<glyph unicode="&#x2012;" horiz-adv-x="731" d="M127 573v140h477v-140h-477z" />
<glyph unicode="&#x2013;" horiz-adv-x="1320" d="M133 563v156h1055v-156h-1055z" />
<glyph unicode="&#x2014;" horiz-adv-x="1900" d="M133 563v156h1634v-156h-1634z" />
<glyph unicode="&#x2018;" horiz-adv-x="555" d="M174 1085v199l107 232h81l-57 -216h74v-215h-205z" />
<glyph unicode="&#x2019;" horiz-adv-x="555" d="M174 1300v216h205v-199l-105 -232h-81l55 215h-74z" />
<glyph unicode="&#x201a;" horiz-adv-x="555" d="M174 0v215h205v-197l-105 -233h-81l55 215h-74z" />
<glyph unicode="&#x201c;" horiz-adv-x="952" d="M174 1085v199l107 232h81l-57 -216h74v-215h-205zM573 1085v199l107 232h80l-55 -216h73v-215h-205z" />
<glyph unicode="&#x201d;" horiz-adv-x="952" d="M174 1300v216h205v-199l-105 -232h-81l55 215h-74zM573 1300v216h205v-199l-106 -232h-80l55 215h-74z" />
<glyph unicode="&#x201e;" horiz-adv-x="952" d="M174 0v215h205v-197l-105 -233h-81l55 215h-74zM573 0v215h205v-197l-106 -233h-80l55 215h-74z" />
<glyph unicode="&#x2020;" horiz-adv-x="1159" d="M92 823v168l422 -26l-31 551h191l-31 -551l422 26v-168l-422 23l31 -1256h-191l31 1256z" />
<glyph unicode="&#x2021;" horiz-adv-x="1159" d="M113 41v164l401 -25l-22 377l22 369l-401 -23v162l401 -25l-31 476h191l-31 -476l401 25v-162l-401 23l23 -369l-23 -377l401 25v-164l-401 27l31 -478h-191l31 478z" />
<glyph unicode="&#x2022;" horiz-adv-x="948" d="M225 717q0 109 70.5 179.5t177.5 70.5q109 0 179.5 -70.5t70.5 -179.5q0 -107 -70.5 -177.5t-179.5 -70.5q-107 0 -177.5 70.5t-70.5 177.5z" />
<glyph unicode="&#x2026;" horiz-adv-x="1662" d="M172 0v215h211v-215h-211zM725 0v215h211v-215h-211zM1280 0v215h211v-215h-211z" />
<glyph unicode="&#x202f;" horiz-adv-x="391" />
<glyph unicode="&#x2030;" horiz-adv-x="2889" d="M119 1071q0 214 96.5 340.5t259.5 126.5q162 0 256 -124.5t94 -336.5q0 -208 -94 -336.5t-258 -128.5q-167 0 -260.5 125.5t-93.5 333.5zM276 1077q0 -154 51 -241.5t148 -87.5q93 0 144 90t51 235q0 153 -51.5 241.5t-145.5 88.5q-95 0 -146 -90t-51 -236zM487 0 l906 1516h159l-905 -1516h-160zM1212 438q0 214 97 340.5t260 126.5q161 0 255.5 -125t94.5 -336q0 -207 -95 -335.5t-259 -128.5q-166 0 -259.5 125.5t-93.5 332.5zM1368 444q0 -154 51.5 -242.5t147.5 -88.5q94 0 145 91.5t51 237.5q0 153 -51.5 240.5t-146.5 87.5 t-146 -90t-51 -236zM2064 438q0 214 96 340.5t259 126.5q162 0 256 -124.5t94 -336.5q0 -206 -94.5 -335t-257.5 -129q-166 0 -259.5 125.5t-93.5 332.5zM2218 444q0 -153 52 -242t147 -89t145.5 91t50.5 238q0 154 -50.5 241t-145.5 87t-147 -90t-52 -236z" />
<glyph unicode="&#x2039;" horiz-adv-x="681" d="M84 543l309 538h178l-301 -538l301 -543h-178z" />
<glyph unicode="&#x203a;" horiz-adv-x="681" d="M109 0l303 543l-303 538h178l311 -538l-311 -543h-178z" />
<glyph unicode="&#x2044;" horiz-adv-x="983" d="M-33 0l889 1516h160l-887 -1516h-162z" />
<glyph unicode="&#x205f;" horiz-adv-x="489" />
<glyph unicode="&#x20ac;" horiz-adv-x="1476" d="M43 530v136h240q-2 33 -2 98q0 53 2 78h-240v133h254q22 143 75 253.5t129 178.5t166 102.5t191 34.5q105 0 188 -30.5t141 -89t98 -134t67 -174.5l-162 -51q-19 66 -37.5 112.5t-45.5 88.5t-60.5 66.5t-80.5 39t-108 14.5q-148 0 -250.5 -103t-136.5 -308h438v-133h-452 q-2 -23 -2 -72q0 -19 1 -53.5t1 -50.5h452v-136h-436q68 -403 389 -403q141 0 221.5 83t126.5 259l162 -47q-58 -212 -185.5 -331.5t-326.5 -119.5q-218 0 -367.5 141t-193.5 418h-256z" />
<glyph unicode="&#x2122;" horiz-adv-x="1812" d="M61 1403v113h658v-113h-264v-754h-131v754h-263zM864 649v867h172l242 -697l244 697h172v-867h-129v660l-236 -660h-108l-236 658v-658h-121z" />
<glyph unicode="&#x2202;" horiz-adv-x="1556" d="M20 662v190l369 -31l-12 209l-64 -4v148l56 -5l-4 54h147l-4 -62l207 -14l-31 369h190l-30 -369l207 14l-4 62h147l-4 -54l55 5v-148l-63 4l-15 -209l369 31v-190l-369 30l15 -205l63 5v-148l-55 4l4 -57h-147l4 65l-207 13l30 -369h-190l31 369l-207 -13l4 -65h-147 l4 57l-56 -4v148l64 -5l12 205zM487 692l13 -213l215 -12v225h-228zM487 821h228v228l-215 -13zM844 467l213 12l12 213h-225v-225zM844 821h225l-12 215l-213 13v-228z" />
<glyph unicode="&#x220f;" horiz-adv-x="1112" d="M82 1071q0 132 63.5 241.5t172.5 172.5t239 63q198 0 335.5 -137.5t137.5 -335.5q0 -201 -138 -340t-337 -139q-198 0 -335.5 138t-137.5 337zM154 1075q0 -172 116.5 -291.5t286.5 -119.5q169 0 286.5 118.5t117.5 288.5q0 171 -118 291.5t-288 120.5 q-168 0 -284.5 -119.5t-116.5 -288.5zM379 819v527h186q91 0 140 -40t49 -114q0 -116 -109 -145l123 -228l-90 2l-117 215h-98v-217h-84zM463 1104h98q113 0 113 86q0 80 -115 80h-96v-166z" />
<glyph unicode="&#x2211;" horiz-adv-x="1556" d="M20 662v190l369 -31l-12 209l-64 -4v148l56 -5l-4 54h147l-4 -62l207 -14l-31 369h190l-30 -369l207 14l-4 62h147l-4 -54l55 5v-148l-63 4l-15 -209l369 31v-190l-369 30l15 -205l63 5v-148l-55 4l4 -57h-147l4 65l-207 13l30 -369h-190l31 369l-207 -13l4 -65h-147 l4 57l-56 -4v148l64 -5l12 205zM487 692l13 -213l215 -12v225h-228zM487 821h228v228l-215 -13zM844 467l213 12l12 213h-225v-225zM844 821h225l-12 215l-213 13v-228z" />
<glyph unicode="&#x2212;" horiz-adv-x="1306" d="M135 608v148h1039v-148h-1039z" />
<glyph unicode="&#x221a;" horiz-adv-x="1224" d="M47 1075h195l290 -842h5l444 1280h195l-551 -1517h-185z" />
<glyph unicode="&#x221e;" horiz-adv-x="1804" d="M51 936v145h189v146q0 140 78 216.5t233 76.5q20 0 55.5 -3.5t42.5 -3.5v-143q-18 4 -71 4q-77 0 -119.5 -37t-42.5 -114v-142h436v140q0 140 78.5 219.5t232.5 79.5q17 0 53.5 -3.5t43.5 -3.5v-143q-16 4 -72 4q-160 0 -160 -151v-142h223v-145h-223v-936h-176v936h-436 v-936h-176v936h-189zM1460 1307v178h180v-178h-180zM1462 0v1081h176v-1081h-176z" />
<glyph unicode="&#x222b;" horiz-adv-x="1556" d="M20 662v190l369 -31l-12 209l-64 -4v148l56 -5l-4 54h147l-4 -62l207 -14l-31 369h190l-30 -369l207 14l-4 62h147l-4 -54l55 5v-148l-63 4l-15 -209l369 31v-190l-369 30l15 -205l63 5v-148l-55 4l4 -57h-147l4 65l-207 13l30 -369h-190l31 369l-207 -13l4 -65h-147 l4 57l-56 -4v148l64 -5l12 205zM487 692l13 -213l215 -12v225h-228zM487 821h228v228l-215 -13zM844 467l213 12l12 213h-225v-225zM844 821h225l-12 215l-213 13v-228z" />
<glyph unicode="&#x2248;" horiz-adv-x="1556" d="M20 662v190l369 -31l-12 209l-64 -4v148l56 -5l-4 54h147l-4 -62l207 -14l-31 369h190l-30 -369l207 14l-4 62h147l-4 -54l55 5v-148l-63 4l-15 -209l369 31v-190l-369 30l15 -205l63 5v-148l-55 4l4 -57h-147l4 65l-207 13l30 -369h-190l31 369l-207 -13l4 -65h-147 l4 57l-56 -4v148l64 -5l12 205zM487 692l13 -213l215 -12v225h-228zM487 821h228v228l-215 -13zM844 467l213 12l12 213h-225v-225zM844 821h225l-12 215l-213 13v-228z" />
<glyph unicode="&#x2260;" horiz-adv-x="1320" d="M51 936v145h189v146q0 140 78 216.5t233 76.5q20 0 55.5 -3.5t42.5 -3.5v-141q-36 4 -71 4q-76 0 -119 -37.5t-43 -113.5v-144h436v142q0 142 79 219.5t245 77.5q18 0 56.5 -3.5t45.5 -3.5v-143q-27 6 -76 6q-174 0 -174 -151v-144h238v-145h-238v-936h-176v936h-436 v-936h-176v936h-189z" />
<glyph unicode="&#x2264;" horiz-adv-x="1556" d="M20 662v190l369 -31l-12 209l-64 -4v148l56 -5l-4 54h147l-4 -62l207 -14l-31 369h190l-30 -369l207 14l-4 62h147l-4 -54l55 5v-148l-63 4l-15 -209l369 31v-190l-369 30l15 -205l63 5v-148l-55 4l4 -57h-147l4 65l-207 13l30 -369h-190l31 369l-207 -13l4 -65h-147 l4 57l-56 -4v148l64 -5l12 205zM487 692l13 -213l215 -12v225h-228zM487 821h228v228l-215 -13zM844 467l213 12l12 213h-225v-225zM844 821h225l-12 215l-213 13v-228z" />
<glyph unicode="&#x2265;" horiz-adv-x="1556" d="M20 662v190l369 -31l-12 209l-64 -4v148l56 -5l-4 54h147l-4 -62l207 -14l-31 369h190l-30 -369l207 14l-4 62h147l-4 -54l55 5v-148l-63 4l-15 -209l369 31v-190l-369 30l15 -205l63 5v-148l-55 4l4 -57h-147l4 65l-207 13l30 -369h-190l31 369l-207 -13l4 -65h-147 l4 57l-56 -4v148l64 -5l12 205zM487 692l13 -213l215 -12v225h-228zM487 821h228v228l-215 -13zM844 467l213 12l12 213h-225v-225zM844 821h225l-12 215l-213 13v-228z" />
<glyph unicode="&#x25ca;" horiz-adv-x="1556" d="M20 662v190l369 -31l-12 209l-64 -4v148l56 -5l-4 54h147l-4 -62l207 -14l-31 369h190l-30 -369l207 14l-4 62h147l-4 -54l55 5v-148l-63 4l-15 -209l369 31v-190l-369 30l15 -205l63 5v-148l-55 4l4 -57h-147l4 65l-207 13l30 -369h-190l31 369l-207 -13l4 -65h-147 l4 57l-56 -4v148l64 -5l12 205zM487 692l13 -213l215 -12v225h-228zM487 821h228v228l-215 -13zM844 467l213 12l12 213h-225v-225zM844 821h225l-12 215l-213 13v-228z" />
<glyph unicode="&#xf8ff;" horiz-adv-x="1556" d="M20 662v190l369 -31l-12 209l-64 -4v148l56 -5l-4 54h147l-4 -62l207 -14l-31 369h190l-30 -369l207 14l-4 62h147l-4 -54l55 5v-148l-63 4l-15 -209l369 31v-190l-369 30l15 -205l63 5v-148l-55 4l4 -57h-147l4 65l-207 13l30 -369h-190l31 369l-207 -13l4 -65h-147 l4 57l-56 -4v148l64 -5l12 205zM487 692l13 -213l215 -12v225h-228zM487 821h228v228l-215 -13zM844 467l213 12l12 213h-225v-225zM844 821h225l-12 215l-213 13v-228z" />
<glyph unicode="&#xfb01;" horiz-adv-x="1210" d="M51 936v145h189v146q0 140 78 216.5t233 76.5q18 0 54.5 -3.5t43.5 -3.5v-143q-18 4 -71 4q-77 0 -119.5 -37t-42.5 -114v-142h225v-145h-225v-936h-176v936h-189zM850 1307v178h180v-178h-180zM852 0v1081h176v-1081h-176z" />
<glyph unicode="&#xfb02;" horiz-adv-x="1206" d="M51 936v145h189v146q0 140 78 216.5t233 76.5q18 0 54.5 -3.5t43.5 -3.5v-143q-18 4 -71 4q-77 0 -119.5 -37t-42.5 -114v-142h225v-145h-225v-936h-176v936h-189zM852 0v1516h176v-1516h-176z" />
<glyph horiz-adv-x="0" />
</font>
</defs>
</svg>
