<?xml version="1.0" encoding="UTF-8" standalone="no"?>
<svg width="32px" height="32px" viewBox="0 0 32 32" version="1.1" xmlns="http://www.w3.org/2000/svg" xmlns:xlink="http://www.w3.org/1999/xlink" xmlns:sketch="http://www.bohemiancoding.com/sketch/ns">
    <title>activity-pin-yellow</title>
    <description>Created with Sketch (http://www.bohemiancoding.com/sketch)</description>
    <defs></defs>
    <g id="Page-1" stroke="none" stroke-width="1" fill="none" fill-rule="evenodd" sketch:type="MSPage">
        <path d="M16,0 C22.6284341,0 28,4.654 28,11.648 C28,18.482 21.9464286,21.417 18.7208104,25.788 C16.0834478,29.357 16,32 16,32 C16,32 15.9783654,29.344 13.2781593,25.788 C9.96188187,21.417 4,18.684 4,11.648 C4,4.652 9.37259615,0 16,0 M18.648,7.224 C19.474,7.224 20.142,6.552 20.142,5.726 C20.142,4.902 19.474,4.232 18.648,4.232 C17.823,4.232 17.153,4.902 17.153,5.726 C17.153,6.552 17.823,7.224 18.648,7.224 M21.062,10.152 L20.906,10.134 L20.838,10.134 L19.515,10.13 L19.059,8.724 C18.931,8.33 18.596,8.031 18.215,7.947 L17.017,7.456 C16.88,7.407 16.743,7.379 16.601,7.374 L13.947,7.329 C13.742,7.329 13.542,7.376 13.361,7.476 L13.332,7.456 L11.287,9.32 C10.792,9.772 10.76,10.545 11.215,11.049 C11.449,11.304 11.781,11.451 12.127,11.451 C12.426,11.451 12.716,11.34 12.939,11.139 L14.426,9.787 L14.809,9.788 L13.937,11.904 L13.017,13.695 L11.292,13.374 C11.238,13.366 11.19,13.362 11.138,13.359 L10.662,13.272 C9.992,13.15 9.367,13.608 9.247,14.264 C9.127,14.925 9.565,15.567 10.225,15.687 L13.506,16.285 C14.111,16.4 14.687,16.042 14.877,15.472 L15.392,14.636 L15.781,15.761 L15.781,18.378 C15.781,19.044 16.33,19.591 17.011,19.591 C17.681,19.591 18.236,19.046 18.236,18.378 L18.236,15.667 C18.236,15.612 18.236,15.562 18.23,15.537 C18.221,15.402 18.205,15.292 18.166,15.189 L17.457,13.118 L17.854,12.174 C18.072,12.366 18.353,12.474 18.65,12.474 L20.857,12.476 C21.607,12.476 22.069,12.029 22.069,11.306 C22.069,10.662 21.687,10.23 21.062,10.152" id="activity-pin--yellow" fill="#FFC841" sketch:type="MSShapeGroup"></path>
    </g>
</svg>