<?xml version="1.0" encoding="UTF-8" standalone="no"?>
<svg width="32px" height="32px" viewBox="0 0 32 32" version="1.1" xmlns="http://www.w3.org/2000/svg" xmlns:xlink="http://www.w3.org/1999/xlink" xmlns:sketch="http://www.bohemiancoding.com/sketch/ns">
    <title>activity--body-grey</title>
    <description>Created with Sketch (http://www.bohemiancoding.com/sketch)</description>
    <defs></defs>
    <g id="Page-1" stroke="none" stroke-width="1" fill="none" fill-rule="evenodd" sketch:type="MSPage">
        <path d="M21.6060082,6.64661654 C23.1503158,6.64661654 24.4025075,5.38157895 24.4025075,3.82518797 C24.4025075,2.26691729 23.1503158,1 21.6060082,1 C20.0654218,1 18.8122999,2.26691729 18.8122999,3.82518797 C18.8122999,5.38157895 20.0654218,6.64661654 21.6060082,6.64661654 Z M26.1217126,12.181391 L25.8333178,12.1447368 C25.8016874,12.1428571 25.7561024,12.1409774 25.6984234,12.1409774 L23.2275312,12.1353383 L22.3763014,9.48120301 C22.1381431,8.73778195 21.5120473,8.17011278 20.7975725,8.01221805 L18.5518143,7.09116541 C18.3043529,6.99530075 18.0503794,6.94454887 17.7852423,6.93890977 L12.8248517,6.84116541 C12.4415657,6.84116541 12.0685131,6.93890977 11.733603,7.12593985 L11.6805756,7.08928571 L7.85515814,10.606203 C6.92392203,11.4577068 6.86624307,12.9210526 7.71468196,13.8665414 C8.15471661,14.3524436 8.77336997,14.6278195 9.41807189,14.6278195 C9.98555843,14.6278195 10.5269964,14.4210526 10.9465643,14.0385338 L13.717015,11.4887218 L14.4352111,11.4906015 L12.8015941,15.4849624 L11.0898314,18.8665414 L7.8644612,18.2640977 C7.76026695,18.2443609 7.67002729,18.2349624 7.58071793,18.231203 L6.68576375,18.0657895 C5.43450244,17.8402256 4.26231713,18.6992481 4.03718312,19.9407895 C3.81204912,21.1945489 4.63257884,22.4003759 5.86709464,22.6334586 L12.0061826,23.7603383 C13.1355739,23.9718045 14.2063559,23.2979323 14.5654539,22.2199248 L15.5264598,20.6456767 L16.2483771,22.7725564 L16.2483771,27.7011278 C16.2483771,28.9699248 17.2791559,30 18.5453021,30 C19.8067968,30 20.8366453,28.9699248 20.8440878,27.7011278 L20.8440878,22.5892857 C20.8440878,22.4830827 20.8347847,22.3909774 20.8273423,22.3411654 C20.8161786,22.093985 20.7761754,21.8787594 20.7101237,21.6860902 L19.3835077,17.7744361 L20.1249614,15.9953008 C20.5305747,16.3533835 21.0571278,16.5610902 21.6106597,16.5629699 L25.7356357,16.5704887 C27.132955,16.5704887 28,15.7199248 28,14.3580827 C28,13.1428571 27.2873858,12.3298872 26.1217126,12.181391 Z M26.1217126,12.181391" id="activity--body-grey" fill="#67747C" sketch:type="MSShapeGroup"></path>
    </g>
</svg>