<?xml version="1.0" encoding="UTF-8" standalone="no"?>
<svg width="32px" height="32px" viewBox="0 0 32 32" version="1.1" xmlns="http://www.w3.org/2000/svg" xmlns:xlink="http://www.w3.org/1999/xlink" xmlns:sketch="http://www.bohemiancoding.com/sketch/ns">
    <title>article-line--body-grey</title>
    <description>Created with Sketch (http://www.bohemiancoding.com/sketch)</description>
    <defs></defs>
    <g id="Page-1" stroke="none" stroke-width="1" fill="none" fill-rule="evenodd" sketch:type="MSPage">
        <path d="M22.848,4.7 C23.945,4.7 24.834,5.606 24.834,6.724 L24.834,26.279 C24.834,27.395 23.945,28.3 22.848,28.3 L9.149,28.3 C8.053,28.3 7.165,27.395 7.165,26.279 L7.165,6.724 C7.165,5.606 8.053,4.7 9.149,4.7 L22.848,4.7 L22.848,4.7 Z M9.055,9.389 L13.23,9.389 L13.23,7.465 L9.055,7.465 L9.055,7.465 L9.055,9.389 L9.055,9.389 Z M9.055,13.695 L22.977,13.635 L22.977,11.787 L9.055,11.801 L9.055,13.695 L9.055,13.695 Z M9.055,17.911 L22.977,17.896 L22.977,16.033 L9.055,16.063 L9.055,17.911 L9.055,17.911 Z M9.055,22.179 L18.809,22.179 L18.809,20.271 L9.055,20.271 L9.055,20.271 L9.055,22.179 L9.055,22.179 Z M22.848,3 L9.149,3 C7.137,3 5.5,4.669 5.5,6.724 L5.5,26.279 C5.5,28.332 7.137,30 9.149,30 L22.848,30 C24.863,30 26.5,28.332 26.5,26.279 L26.5,6.724 C26.5,4.669 24.863,3 22.848,3 L22.848,3 Z M22.848,3" id="article-line--body-grey" fill="#67747C" sketch:type="MSShapeGroup"></path>
    </g>
</svg>