<?xml version="1.0" encoding="UTF-8" standalone="no"?>
<svg width="32px" height="32px" viewBox="0 0 32 32" version="1.1" xmlns="http://www.w3.org/2000/svg" xmlns:xlink="http://www.w3.org/1999/xlink" xmlns:sketch="http://www.bohemiancoding.com/sketch/ns">
    <title>bicycle--body-grey</title>
    <description>Created with Sketch (http://www.bohemiancoding.com/sketch)</description>
    <defs></defs>
    <g id="Transport" stroke="none" stroke-width="1" fill="none" fill-rule="evenodd" sketch:type="MSPage">
        <path d="M18.689,16.6488661 C18.841,16.7122241 19.004,16.7444059 19.167,16.7444059 L21.724,16.7444059 C22.408,16.7444059 22.961,16.1963091 22.961,15.5074169 C22.961,14.8255644 22.408,14.254337 21.724,14.254337 L19.672,14.254337 L16.853,11.4132851 C16.85,11.4112737 16.849,11.4042339 16.845,11.4022226 C16.606,11.1568361 16.289,11.0361543 15.971,11.03716 C15.653,11.0361543 15.335,11.1568361 15.091,11.4022226 C15.086,11.4082567 15.084,11.4163021 15.078,11.4223362 L11.902,14.6234223 C11.658,14.8637804 11.536,15.1835873 11.536,15.5033942 C11.536,15.8221954 11.658,16.1399909 11.902,16.3813547 L14.733,19.2304521 L14.733,24.0084477 C14.733,24.6943229 15.287,25.2575049 15.966,25.2575049 C16.657,25.2575049 17.209,24.6943229 17.209,24.0084477 L17.209,18.7487303 C17.216,18.4188666 17.099,18.0859858 16.845,17.8345653 L14.525,15.5013828 L15.968,14.0471665 L18.287,16.3813547 C18.287,16.3813547 18.29,16.3823603 18.291,16.3843717 C18.404,16.4960024 18.539,16.5865138 18.689,16.6488661 Z M19.259,11.9895409 C20.357,11.9895409 21.247,11.0995122 21.247,9.9892392 C21.247,8.8880173 20.357,8 19.259,8 C18.17,8 17.277,8.8880173 17.277,9.9892392 C17.277,11.0995122 18.17,11.9895409 19.259,11.9895409 Z M23.397,17.747071 C20.58,17.747071 18.295,20.0480716 18.295,22.8790667 C18.295,25.7020164 20.58,28 23.397,28 C26.211,28 28.5,25.7020164 28.5,22.8790667 C28.5,20.0480716 26.211,17.747071 23.397,17.747071 Z M23.397,26.0157892 C21.673,26.0157892 20.27,24.6078343 20.27,22.8790667 C20.27,21.1482878 21.673,19.7403329 23.397,19.7403329 C25.119,19.7403329 26.518,21.1482878 26.518,22.8790667 C26.518,24.6078343 25.119,26.0157892 23.397,26.0157892 Z M8.603,17.747071 C5.785,17.747071 3.5,20.0480716 3.5,22.8790667 C3.5,25.7020164 5.785,28 8.603,28 C11.42,28 13.709,25.7020164 13.709,22.8790667 C13.709,20.0480716 11.42,17.747071 8.603,17.747071 Z M8.603,26.0157892 C6.88,26.0157892 5.479,24.6078343 5.479,22.8790667 C5.479,21.1482878 6.88,19.7403329 8.603,19.7403329 C10.324,19.7403329 11.725,21.1482878 11.725,22.8790667 C11.725,24.6078343 10.324,26.0157892 8.603,26.0157892 Z M8.603,26.0157892" id="bicycle--body-grey" fill="#67737B" sketch:type="MSShapeGroup"></path>
    </g>
</svg>