<?xml version="1.0" encoding="UTF-8" standalone="no"?>
<svg width="32px" height="32px" viewBox="0 0 32 32" version="1.1" xmlns="http://www.w3.org/2000/svg" xmlns:xlink="http://www.w3.org/1999/xlink" xmlns:sketch="http://www.bohemiancoding.com/sketch/ns">
    <title>block--body-grey</title>
    <description>Created with Sketch (http://www.bohemiancoding.com/sketch)</description>
    <defs></defs>
    <g id="Actions" stroke="none" stroke-width="1" fill="none" fill-rule="evenodd" sketch:type="MSPage">
        <path d="M24.83775,7.66 C22.39675,5.221 19.19875,4 15.99975,4 C12.79975,4 9.60075,5.221 7.16075,7.66 C2.27975,12.543 2.27975,20.457 7.16075,25.338 C9.60075,27.78 12.79975,29 15.99975,29 C19.19875,29 22.39675,27.78 24.83775,25.338 C29.71875,20.457 29.71875,12.541 24.83775,7.66 C24.83775,7.66 29.71875,12.541 24.83775,7.66 L24.83775,7.66 L24.83775,7.66 Z M7.89275,16.5 C7.89275,14.334 8.73675,12.3 10.26575,10.768 C11.79775,9.237 13.83375,8.393 15.99975,8.393 C17.38375,8.393 18.70975,8.74 19.88875,9.389 L8.88775,20.391 C8.24075,19.211 7.89275,17.885 7.89275,16.5 C7.89275,16.5 7.89275,17.885 7.89275,16.5 L7.89275,16.5 L7.89275,16.5 Z M21.72975,22.233 C20.19975,23.762 18.16475,24.606 15.99975,24.606 C14.61575,24.606 13.28875,24.258 12.11075,23.612 L23.11175,12.612 C23.75775,13.789 24.10575,15.118 24.10575,16.5 C24.10575,18.666 23.25975,20.702 21.72975,22.233 L21.72975,22.233 Z M21.72975,22.233" id="block--body-grey" fill="#67737B" sketch:type="MSShapeGroup"></path>
    </g>
</svg>