<?xml version="1.0" encoding="UTF-8" standalone="no"?>
<svg width="32px" height="32px" viewBox="0 0 32 32" version="1.1" xmlns="http://www.w3.org/2000/svg" xmlns:xlink="http://www.w3.org/1999/xlink" xmlns:sketch="http://www.bohemiancoding.com/sketch/ns">
    <title>bold--body-grey</title>
    <description>Created with Sketch (http://www.bohemiancoding.com/sketch)</description>
    <defs></defs>
    <g id="Actions" stroke="none" stroke-width="1" fill="none" fill-rule="evenodd" sketch:type="MSPage">
        <path d="M26.541,21.719 C26.541,25.719 24.42,29 16.42,29 L5.5,29 L5.5,4 L16.34,4 C23.781,4 25.781,6.84 25.781,10.52 C25.781,13.36 24.022,15.119 21.141,15.92 C24.34,16.52 26.541,18.639 26.541,21.719 C26.541,21.719 26.541,18.639 26.541,21.719 L26.541,21.719 L26.541,21.719 Z M15.74,8.76 L11.66,8.76 L11.66,14.52 L15.42,14.52 C18.061,14.52 19.42,13.44 19.42,11.559 C19.42,9.719 18.141,8.76 15.74,8.76 L15.74,8.76 L15.74,8.76 L15.74,8.76 Z M15.74,18.479 L11.66,18.479 L11.66,24.239 L15.94,24.239 C18.82,24.239 20.141,23.321 20.141,21.36 C20.141,19.24 18.422,18.479 15.74,18.479 L15.74,18.479 Z M15.74,18.479" id="bold--body-grey" fill="#67737B" sketch:type="MSShapeGroup"></path>
    </g>
</svg>