<?xml version="1.0" encoding="UTF-8" standalone="no"?>
<svg width="32px" height="32px" viewBox="0 0 32 32" version="1.1" xmlns="http://www.w3.org/2000/svg" xmlns:xlink="http://www.w3.org/1999/xlink" xmlns:sketch="http://www.bohemiancoding.com/sketch/ns">
    <title>bus--body-grey</title>
    <description>Created with Sketch (http://www.bohemiancoding.com/sketch)</description>
    <defs></defs>
    <g id="Transport" stroke="none" stroke-width="1" fill="none" fill-rule="evenodd" sketch:type="MSPage">
        <path d="M23.756,4 L8.244,4 C6.728,4 5.5,5.108 5.5,6.477 L5.5,23.381 C5.5,24.209 5.947,24.938 6.637,25.375 C6.617,25.938 6.689,26.471 6.689,26.731 L6.689,26.834 C6.689,28.031 7.68,29 8.902,29 C10.119,29 11.113,28.031 11.113,26.834 L11.113,26.731 C11.113,26.547 11.15,26.223 11.168,25.867 L20.957,25.867 C20.971,26.223 21.01,26.547 21.01,26.731 L21.01,26.834 C21.01,28.031 22.002,29 23.223,29 C24.445,29 25.436,28.031 25.436,26.834 L25.436,26.731 C25.436,26.459 25.523,25.887 25.486,25.293 C26.102,24.84 26.5,24.145 26.5,23.381 L26.5,6.477 C26.5,5.108 25.268,4 23.756,4 L23.756,4 L23.756,4 L23.756,4 Z M7.891,7.733 C7.891,7.051 8.504,6.5 9.262,6.5 L22.736,6.5 C23.492,6.5 24.107,7.051 24.107,7.733 L24.107,17.264 C24.107,17.944 23.492,18.506 22.736,18.506 L9.262,18.506 C8.504,18.506 7.891,17.944 7.891,17.264 L7.891,7.733 L7.891,7.733 L7.891,7.733 L7.891,7.733 Z M9.783,24.1 C8.621,24.1 7.684,23.155 7.684,21.991 C7.684,20.834 8.621,19.881 9.783,19.881 C10.951,19.881 11.887,20.834 11.887,21.991 C11.887,23.155 10.951,24.1 9.783,24.1 L9.783,24.1 L9.783,24.1 L9.783,24.1 Z M22.123,24.1 C20.957,24.1 20.014,23.155 20.014,21.991 C20.014,20.834 20.957,19.881 22.123,19.881 C23.273,19.881 24.227,20.834 24.227,21.991 C24.227,23.155 23.273,24.1 22.123,24.1 L22.123,24.1 Z M22.123,24.1" id="bus--body-grey" fill="#67737B" sketch:type="MSShapeGroup"></path>
    </g>
</svg>