<?xml version="1.0" encoding="UTF-8" standalone="no"?>
<svg width="32px" height="32px" viewBox="0 0 32 32" version="1.1" xmlns="http://www.w3.org/2000/svg" xmlns:xlink="http://www.w3.org/1999/xlink" xmlns:sketch="http://www.bohemiancoding.com/sketch/ns">
    <title>car--body-grey</title>
    <description>Created with Sketch (http://www.bohemiancoding.com/sketch)</description>
    <defs></defs>
    <g id="Transport" stroke="none" stroke-width="1" fill="none" fill-rule="evenodd" sketch:type="MSPage">
        <path d="M26.368,16.103 L25.897,16.103 L23.897,10.498 C23.51,9.531 22.953,8.734 21.987,8.734 L9.864,8.734 C8.897,8.734 8.312,9.584 7.961,10.498 L5.957,16.103 L5.641,16.103 C4.458,16.103 3.5,17.057 3.5,18.24 L3.5,25.09 L5.315,25.09 C5.309,25.648 5.376,26.179 5.376,26.433 L5.376,26.556 C5.376,27.914 6.493,29 7.864,29 C9.233,29 10.346,27.914 10.346,26.556 L10.346,26.433 C10.346,26.23 10.391,25.888 10.406,25.482 L10.406,25.09 L21.44,25.09 C21.45,25.773 21.459,26.357 21.459,26.433 L21.459,26.556 C21.459,27.914 22.571,29 23.938,29 C25.319,29 26.43,27.914 26.43,26.556 L26.43,26.433 C26.43,26.179 26.496,25.648 26.491,25.09 L28.5,25.09 L28.5,18.24 C28.5,17.057 27.539,16.103 26.368,16.103 L26.368,16.103 L26.368,16.103 L26.368,16.103 Z M9.075,15.824 L10.586,11.176 L21.551,11.176 L23.061,15.824 L9.075,15.824 L9.075,15.824 L9.075,15.824 L9.075,15.824 Z M9.905,20.802 C9.905,21.92 9,22.822 7.893,22.822 C6.78,22.822 5.877,21.92 5.877,20.802 C5.877,19.697 6.78,18.798 7.893,18.798 C9,18.798 9.905,19.697 9.905,20.802 C9.905,20.802 9.905,19.697 9.905,20.802 L9.905,20.802 L9.905,20.802 Z M25.821,20.802 C25.821,21.92 24.924,22.822 23.811,22.822 C22.704,22.822 21.799,21.92 21.799,20.802 C21.799,19.697 22.704,18.798 23.811,18.798 C24.924,18.798 25.821,19.697 25.821,20.802 L25.821,20.802 Z M25.821,20.802" id="car--body-grey" fill="#67737B" sketch:type="MSShapeGroup"></path>
    </g>
</svg>