<?xml version="1.0" encoding="UTF-8" standalone="no"?>
<svg width="32px" height="32px" viewBox="0 0 32 32" version="1.1" xmlns="http://www.w3.org/2000/svg" xmlns:xlink="http://www.w3.org/1999/xlink" xmlns:sketch="http://www.bohemiancoding.com/sketch/ns">
    <title>caution--body-grey</title>
    <description>Created with Sketch (http://www.bohemiancoding.com/sketch)</description>
    <defs></defs>
    <g id="Categories" stroke="none" stroke-width="1" fill="none" fill-rule="evenodd" sketch:type="MSPage">
        <path d="M30.4641289,26.623 C29.6234267,28.133 27.9562029,29 25.8868601,29 L6.11313993,29 C4.04582291,29 2.37657331,28.133 1.53587114,26.623 C0.69516897,25.113 0.849128885,23.258 1.9592609,21.534 L11.5594719,6.616 C12.6301011,4.953 14.2476931,4 15.9989871,4 C17.7502811,4 19.3698989,4.953 20.4405281,6.616 L30.0407391,21.534 C31.1508711,23.256 31.304831,25.113 30.4641289,26.623 C30.4641289,26.623 31.304831,25.113 30.4641289,26.623 L30.4641289,26.623 L30.4641289,26.623 Z M27.7050051,22.998 L18.1037812,8.08 C17.5264315,7.182 16.7606835,6.733 15.9989871,6.733 C15.2372907,6.733 14.4755943,7.182 13.8962188,8.08 L4.29499488,22.998 C3.13826973,24.797 3.95668822,26.266 6.11313993,26.266 L25.8868601,26.266 C28.0453376,26.266 28.8617303,24.797 27.7050051,22.998 C27.7050051,22.998 28.8617303,24.797 27.7050051,22.998 L27.7050051,22.998 L27.7050051,22.998 Z M16.0425416,20.074 C15.0630729,20.074 14.2699767,19.291 14.2699767,18.323 L14.2699767,12.283 C14.2699767,11.317 15.0630729,10.532 16.0425416,10.532 C17.0220102,10.532 17.8151064,11.317 17.8151064,12.283 L17.8151064,18.323 C17.8151064,19.291 17.0220102,20.074 16.0425416,20.074 L16.0425416,20.074 L16.0425416,20.074 L16.0425416,20.074 Z M17.8151064,22.807 C17.8151064,22.786 17.8110548,22.766 17.809029,22.744 C17.8110548,22.721 17.8151064,22.701 17.8151064,22.68 L17.8151064,22.807 L17.8151064,22.807 L17.8151064,22.807 L17.8151064,22.807 Z M16.0425416,24.43 C15.0873823,24.43 14.3115054,23.68 14.2760541,22.744 C14.3115054,21.807 15.0873823,21.057 16.0425416,21.057 C16.9977008,21.057 17.7735777,21.807 17.809029,22.744 C17.7735777,23.68 16.9977008,24.43 16.0425416,24.43 L16.0425416,24.43 L16.0425416,24.43 L16.0425416,24.43 Z M14.2699767,22.68 C14.2699767,22.701 14.2760541,22.721 14.2760541,22.744 C14.2760541,22.766 14.2699767,22.786 14.2699767,22.807 L14.2699767,22.68 L14.2699767,22.68 Z M14.2699767,22.68" id="caution--body-grey" fill="#67737B" sketch:type="MSShapeGroup"></path>
    </g>
</svg>