<?xml version="1.0" encoding="UTF-8" standalone="no"?>
<svg width="32px" height="32px" viewBox="0 0 32 32" version="1.1" xmlns="http://www.w3.org/2000/svg" xmlns:xlink="http://www.w3.org/1999/xlink" xmlns:sketch="http://www.bohemiancoding.com/sketch/ns">
    <title>comment-line--body-grey</title>
    <description>Created with Sketch (http://www.bohemiancoding.com/sketch)</description>
    <defs></defs>
    <g id="Categories" stroke="none" stroke-width="1" fill="none" fill-rule="evenodd" sketch:type="MSPage">
        <path d="M11.2390354,29.0251953 L11.2390354,22.7031953 C6.58285749,21.2191953 3.5,17.6771953 3.5,13.7311953 C3.5,8.38219531 9.10381485,4.02519531 15.9934192,4.02519531 C22.8880857,4.02519531 28.5,8.38219531 28.5,13.7311953 C28.5,16.6411953 26.8608715,19.3541953 23.9936622,21.2001953 L23.9460778,21.2661953 L23.7486535,21.3501953 C21.8817276,22.5051953 19.6280525,23.2061953 17.2154254,23.3951953 L11.2390354,29.0251953 L11.2390354,29.0251953 L11.2390354,29.0251953 L11.2390354,29.0251953 Z M15.9934192,5.70219531 C10.0393026,5.70219531 5.19481229,9.30519531 5.19481229,13.7311953 C5.19481229,17.0871953 8.05392216,20.1161953 12.3112016,21.2741953 L12.9358725,21.4421953 L12.9358725,25.1121953 L16.4915361,21.7621953 L16.8023529,21.7431953 C19.0347669,21.6141953 21.1122788,20.9931953 22.8172154,19.9521953 L22.9579435,19.8661953 C25.4060058,18.3311953 26.8031628,16.0981953 26.8031628,13.7311953 C26.8031628,9.30519531 21.9525979,5.70219531 15.9934192,5.70219531 L15.9934192,5.70219531 Z M15.9934192,5.70219531" id="comment-line--body-grey" fill="#67737B" sketch:type="MSShapeGroup"></path>
    </g>
</svg>