<?xml version="1.0" encoding="UTF-8" standalone="no"?>
<svg width="32px" height="32px" viewBox="0 0 32 32" version="1.1" xmlns="http://www.w3.org/2000/svg" xmlns:xlink="http://www.w3.org/1999/xlink" xmlns:sketch="http://www.bohemiancoding.com/sketch/ns">
    <title>confused--body-grey</title>
    <description>Created with Sketch (http://www.bohemiancoding.com/sketch)</description>
    <defs></defs>
    <g id="Brand" stroke="none" stroke-width="1" fill="none" fill-rule="evenodd" sketch:type="MSPage">
        <path d="M14.4175366,22.3357143 C14.4273245,22.426335 14.4379469,22.5296596 14.4474587,22.6339361 L14.5007632,23.2312726 C14.5007632,23.2312726 14.5942853,23.3783072 14.6668186,23.4770611 C14.6341779,23.4829676 14.6213398,23.4856713 14.6325161,23.4853345 C14.3784548,23.5265648 14.1397724,23.5502713 13.940946,23.5592636 L13.940946,23.5592636 C14.0616505,23.426818 14.1276312,23.2952729 14.1276312,23.2952729 C14.1276312,23.2952729 14.1326599,23.2031512 14.1326599,23.0722414 C14.1346714,22.9403619 14.1326599,22.7696944 14.1276312,22.5999965 L14.1179946,22.3264857 C14.2178116,22.3312118 14.3176737,22.3342938 14.4175366,22.3357143 Z M15.5266408,22.2764744 C15.5351456,22.361983 15.5439514,22.4550595 15.5517686,22.5466629 L15.6040674,23.1498176 C15.6040674,23.1498176 15.5737616,23.2154833 15.5196421,23.2999582 C15.6803367,23.2606997 15.8508405,23.2157731 16.0204465,23.1663025 C16.7435784,22.9626651 17.4626874,22.695997 17.4626874,22.695997 C17.4626874,22.695997 17.7754746,22.5999965 18.2813652,22.4302986 C18.8043535,22.2528431 19.4822268,22.0152661 20.2244679,21.7117493 C20.5955884,21.5595061 20.9828009,21.3907779 21.3599559,21.1997466 C21.5470248,21.1047158 21.7330879,21.0038668 21.8980304,20.8971995 C21.9805016,20.8438659 22.0549269,20.7876232 22.110243,20.7381684 C22.1514786,20.7051985 22.1947257,20.6557437 22.2379728,20.5878645 C22.324467,20.4530759 22.4029153,20.2717416 22.4682888,20.0797406 C22.5306451,19.8858002 22.5839497,19.6763445 22.6292083,19.4649495 C22.7197255,19.0421593 22.7780588,18.6019146 22.8233174,18.1703971 C22.9158461,17.3073622 22.9530587,16.4724487 22.9741794,15.7529297 C22.9902714,15.2418966 22.9922828,14.8084398 22.9922828,14.4991048 C22.9915707,14.3889075 22.9901023,14.2941448 22.9885024,14.216839 L22.9885024,14.216839 C22.8447616,14.1539692 22.7580721,14.104154 22.7529151,14.1024966 C22.7468806,14.1005572 22.7448691,14.0995875 22.7529151,14.0724359 C22.7680013,13.9948597 22.8152714,13.8639499 22.8997541,13.710737 C22.9842369,13.5565543 23.1079437,13.3790988 23.261823,13.1987342 C23.265846,13.1919463 23.2869666,13.1706129 23.2930011,13.1667341 C23.2947914,13.1684602 23.3113211,13.1780601 23.3394877,13.1922861 L23.3394877,13.1922861 C23.3261345,13.1505406 23.3041075,13.0795668 23.2769092,12.9844301 C23.253777,12.9068539 23.2296391,12.8166716 23.2044954,12.7129135 L23.1632598,12.5500035 L23.1632598,12.5470944 L23.1632598,12.5500035 L23.1632598,12.5490338 C23.1964494,12.5199427 23.0787771,12.6237009 22.9963058,12.6799436 C22.9017656,12.7420045 22.8072254,12.808914 22.646306,12.8506112 C22.6030589,12.8593385 22.5598118,12.8661264 22.4994669,12.8622476 C22.483375,12.8622476 22.4773405,12.8622476 22.4562198,12.8603082 C22.4361049,12.8593385 22.4190072,12.8583688 22.4029153,12.85449 C22.3385475,12.8477021 22.2751854,12.8321868 22.2168521,12.8157019 C21.9784901,12.7449136 21.788404,12.6227312 21.6365363,12.4976396 C21.4856743,12.3715783 21.3720249,12.2377594 21.2895536,12.1213952 C21.0833756,11.8285451 21.0491802,11.5735135 21.0491802,11.5735135 C21.0511917,11.5744832 21.0361055,11.5133919 21.0461629,11.3941186 C21.0491802,11.3320576 21.0592376,11.2651482 21.0964503,11.177875 C21.1165652,11.1284202 21.1396974,11.0935109 21.1658468,11.060541 C21.1909905,11.0285409 21.2181456,10.9984801 21.244295,10.9684193 C21.3559329,10.8539945 21.4896972,10.751206 21.6325133,10.6590843 C21.7743236,10.5659929 21.9241798,10.4874471 22.0609614,10.4244164 C22.2412651,10.3415991 22.3781045,10.298966 22.4737704,10.2735493 L22.4737704,10.2735493 C22.458858,10.267371 22.4420091,10.2604484 22.4230302,10.2527791 L22.3858176,10.2353245 C22.3757601,10.2333851 22.2912774,10.1849 22.1494671,10.1238088 C22.0066511,10.0636872 21.7984615,9.98805046 21.554065,9.9647776 C21.2986054,9.94053505 21.038117,9.98708075 20.7886918,10.1024753 C20.5352436,10.2198093 20.2988931,10.3953254 20.0474564,10.5941143 C19.9177151,10.6949633 19.7879738,10.8016306 19.6310773,10.9034493 C19.552629,10.9548435 19.4681463,11.0042983 19.3605314,11.0469652 C19.2908524,11.074567 19.2165319,11.0907013 19.1417765,11.0956685 C19.2244475,11.1697868 19.2720257,11.2147237 19.2720257,11.2147237 C19.2720257,11.2156934 19.334382,11.278724 19.4450141,11.3989671 C19.497313,11.4590886 19.5667095,11.5337557 19.6411348,11.6229683 L19.7608186,11.7645448 L19.8261922,11.8440604 L19.8593818,11.8857575 L19.9669967,12.0253947 C20.3310673,12.5082651 20.6880819,13.078064 20.9480553,13.7474719 C21.0508559,13.7583453 21.1606635,13.7957246 21.2634042,13.8484347 C21.3760479,13.9066168 21.4856743,13.9803142 21.5932891,14.0666177 C21.6465937,14.1092845 21.6998983,14.1548605 21.7532029,14.2033457 C21.7783465,14.2275882 21.8034902,14.2537702 21.8296396,14.2799521 L21.8668523,14.3187402 C21.8829442,14.3352251 21.8879729,14.3420131 21.9121109,14.3701344 C21.9805016,14.4574076 22.0126855,14.5301353 22.0438637,14.6018932 C22.0730303,14.6746209 22.0951568,14.7463789 22.1122545,14.8094095 C22.1454441,14.9441981 22.1635475,15.06832 22.1715935,15.1749872 C22.1907027,15.3922005 22.165559,15.5454134 22.165559,15.5454134 C22.1635475,15.5463831 22.1454441,15.6452927 22.0649844,15.7820207 C22.0549269,15.7994754 22.0418522,15.8198391 22.0297832,15.8402029 C22.0136913,15.862506 21.9965936,15.8838395 21.9764787,15.9032335 C21.939266,15.943961 21.8940074,15.9769309 21.8427143,16.0011734 C21.7451569,16.0496585 21.6315075,16.0467494 21.5470248,16.0137795 C21.5088064,16.0011734 21.4776283,15.9846885 21.4544961,15.9691733 C21.4303582,15.9555974 21.4132605,15.9381428 21.39918,15.924567 C21.3720249,15.8945062 21.3539214,15.8702636 21.343864,15.8479605 C21.3247548,15.8033542 21.3348122,15.7752328 21.3579444,15.7606873 C21.3810766,15.742263 21.4213065,15.7383841 21.4645536,15.7364447 C21.4856743,15.7345053 21.5088064,15.7345053 21.5309329,15.7335356 C21.550042,15.7296568 21.562111,15.7238386 21.5761915,15.7180204 C21.5721685,15.716081 21.5882604,15.7092931 21.6013351,15.6957172 C21.6154156,15.6831111 21.625473,15.6598383 21.6214501,15.6433533 C21.6194386,15.6375351 21.6174271,15.6355957 21.6194386,15.6258987 L21.6234616,15.5948682 L21.6234616,15.5289285 C21.6234616,15.4862616 21.6194386,15.4562008 21.6194386,15.4562008 C21.6194386,15.4562008 21.6325133,15.3592306 21.6194386,15.1953509 C21.6113926,15.1158354 21.5953006,15.0198349 21.570157,14.924804 C21.558088,14.8772886 21.5430018,14.8307429 21.5228869,14.788076 C21.5128294,14.7657729 21.5037777,14.7463789 21.4957317,14.7298939 C21.4876857,14.7143787 21.4736053,14.6978937 21.4736053,14.6978937 C21.3810578,14.5944109 21.2679757,14.4956797 21.1645395,14.4214368 C21.2339878,14.69448 21.2845758,14.9796807 21.3106743,15.2738968 C21.3328007,15.4949889 21.3368237,15.7218992 21.3287778,15.9488095 C21.3207318,16.171841 21.3006169,16.4065089 21.2634042,16.6363283 C21.1165652,17.5575454 20.7454447,18.4719745 20.1892667,19.3127062 C19.6310773,20.1485895 18.8848132,20.92823 17.9182906,21.4974451 C17.6769114,21.6390217 17.4234632,21.7689617 17.1478886,21.8746593 C16.8833772,21.9793871 16.6098141,22.0627815 16.3312223,22.1296909 C16.066058,22.193953 15.7974645,22.2425656 15.5266408,22.2764744 Z M18.3553816,10.4490532 C18.3459294,10.3469652 18.3593207,10.2463172 18.3859628,10.1567786 C18.4191525,10.038475 18.4764801,9.93762594 18.5408478,9.84744365 C18.6082329,9.75629164 18.6705892,9.68744279 18.7430029,9.61665454 C18.8144109,9.54683598 18.8888362,9.48283564 18.965273,9.42174441 C19.120158,9.30441045 19.2851004,9.20259172 19.4560774,9.11531853 C19.8000427,8.94077215 20.1651288,8.82052908 20.5332321,8.74489231 C21.2694387,8.59167938 22.0297832,8.62561895 22.6975991,8.83507461 C23.0335185,8.93786304 23.3422827,9.08137896 23.6168516,9.25301623 C23.7546389,9.33835002 23.8843802,9.42853232 24.0020526,9.52550254 C24.1297824,9.62344245 24.2414203,9.74077641 24.3279145,9.86198918 C24.5069374,10.1044147 24.6165638,10.3584767 24.7010465,10.5970234 C24.7422821,10.7153271 24.7754718,10.8316913 24.8056442,10.9470859 C24.8187189,11.0023589 24.8327993,11.0576319 24.8428568,11.1119352 L24.8589488,11.1798144 C24.9132591,11.4571492 24.9273395,11.6297562 24.929351,11.6297562 C24.929351,11.6297562 24.9484602,11.8372724 24.9544947,12.1136375 C24.9625407,12.3909724 24.9504717,12.7400651 24.9172821,13.0251576 C24.9042808,13.1614112 24.8890555,13.2697896 24.8748205,13.3545969 C24.943582,13.3691299 25.0183779,13.3862506 25.0902705,13.4072202 C25.2843796,13.4450386 25.3889773,13.5216451 25.4201554,13.6234638 C25.4553566,13.7223734 25.4161324,13.8435862 25.3396957,13.9473443 C25.346775,13.9499039 25.3308858,13.971043 25.300677,14.00201 C25.3448858,14.2133433 25.4303518,14.6313975 25.5227416,15.1672296 C25.6112473,15.6685656 25.6987473,16.2251746 25.7782013,16.8186323 C25.8566495,17.4130597 25.9270518,18.0414267 25.9682874,18.6901575 C26.0075115,19.3388882 26.0195805,20.0079827 25.950184,20.6790165 C25.9149828,21.0145335 25.8566495,21.3500504 25.7641208,21.6787794 C25.6675691,22.0065388 25.5378278,22.3275102 25.3628279,22.6193905 C25.1928567,22.9112709 24.9786326,23.171151 24.7483166,23.3922431 C24.5190064,23.6113958 24.2725984,23.789821 24.0332307,23.9401248 C23.7918515,24.0904287 23.5565068,24.2126111 23.3302137,24.3153996 C23.2205873,24.3658241 23.1099552,24.4123698 23.0063633,24.4550367 L22.852484,24.5161279 L22.7629726,24.5500675 C22.3475992,24.7052198 22.0891223,24.7769778 22.0891223,24.7769778 C22.0911338,24.7789172 21.7783465,24.8623116 21.3539214,24.9534636 C20.9315078,25.046555 20.3994678,25.1483737 19.9609622,25.2366166 C19.4623665,25.3378566 19.202417,25.401261 19.1085788,25.425348 L19.1085788,25.425348 C19.2755182,25.4231802 19.4697644,25.4645215 19.6803589,25.5711638 C19.6884049,25.576982 19.719583,25.5973458 19.723606,25.6080125 C19.7256175,25.622558 19.719583,25.8979535 19.7608186,26.3168648 C19.7980312,26.7386852 19.8845255,27.3001427 19.9981748,27.8596609 C20.2244679,28.9806366 20.5463068,30.0870667 20.5442953,30.0870667 C20.5442953,30.0880364 20.6388355,30.8366464 20.636824,31.3874373 C20.6800711,32.3115634 20.3381172,32.0429559 20.0434334,31.5416199 C20.0394105,31.5726504 19.8905599,31.2662245 19.7457324,30.9491319 C19.5978876,30.6320393 19.4601003,30.3033103 19.4601003,30.3033103 C19.4601003,30.3033103 19.1362499,29.1881528 18.9049282,28.0322679 C18.7882615,27.4552951 18.6967386,26.8676556 18.655503,26.4060774 C18.6102444,25.9493477 18.6142674,25.6244975 18.6142674,25.6060731 C18.6142674,25.5924973 18.6142674,25.5886185 18.6414225,25.5711638 C18.7198708,25.512012 18.861681,25.4441329 19.0417097,25.4286176 C19.0628222,25.4268082 19.0844409,25.425711 19.1065401,25.4253767 C19.2202169,25.3918104 19.5581477,25.2746477 19.9559335,25.1192826 C19.9106749,25.1328585 20.4326574,24.9379483 20.9536342,24.7149168 C21.4776283,24.4957642 21.9905591,24.2426719 21.9885476,24.2417022 L22.1514786,24.1680048 L22.3425705,24.0797619 L22.4602428,24.0225495 L22.6070818,23.9488522 C22.9470242,23.7772149 23.3422827,23.5629107 23.7254722,23.2729698 C24.1056445,22.9839985 24.4616788,22.6155117 24.699035,22.1471456 C24.94142,21.6787794 25.0721671,21.1124734 25.1395521,20.5141672 C25.2059314,19.9168307 25.2180003,19.2845849 25.2180003,18.6649452 C25.2159889,18.0394873 25.1998969,17.4237265 25.1908452,16.8380264 C25.1807877,16.2523263 25.1727417,15.6976567 25.1727417,15.1953509 C25.1715167,14.7246595 25.1792448,14.3413706 25.185475,14.1074773 C25.1687576,14.1215801 25.1513269,14.1358712 25.1335176,14.150012 C25.0158453,14.2450428 24.874035,14.3303766 24.874035,14.3303766 C24.874035,14.3303766 24.7523396,14.3672253 24.5542075,14.4011649 C24.3580869,14.4360742 24.0825123,14.459347 23.8059319,14.430256 C23.5914053,14.4092724 23.3810836,14.3587512 23.2083918,14.3015199 C23.2226231,14.3508718 23.2378434,14.4051809 23.253777,14.4641955 C23.3382597,14.7696517 23.4378286,15.2001995 23.5223114,15.7180204 C23.643001,16.4346303 23.7325124,17.2773014 23.7345239,18.1830032 C23.7365354,18.6348844 23.7154147,19.1042203 23.6500412,19.5822834 C23.6168516,19.8227696 23.571593,20.0651951 23.5072252,20.3124691 C23.4378286,20.5587735 23.3533459,20.8089566 23.2125414,21.0659277 C23.1401276,21.1948981 23.0496104,21.3248382 22.9279151,21.4528388 L22.8786335,21.4993846 L22.8353864,21.5381726 C22.8072254,21.5633849 22.7780588,21.5876274 22.7509036,21.6099306 C22.6935761,21.6564763 22.6372542,21.6972038 22.5819382,21.7369616 C22.3596682,21.8892048 22.1454441,22.0075085 21.93122,22.1170848 C21.5017662,22.3352678 21.0833756,22.5078748 20.6800711,22.6572089 C19.874468,22.9568469 19.1402729,23.1604843 18.5529168,23.3030305 C17.9243251,23.451395 17.5290666,23.5183044 17.5290666,23.5183044 C17.5290666,23.5183044 17.1016243,23.5784259 16.5203027,23.6240019 C16.0810627,23.659842 15.5554185,23.6818895 15.0663793,23.6789084 L15.0663793,23.6789084 C15.0397867,23.6816189 15.0135367,23.681239 14.9878972,23.6782095 C14.8560264,23.6766581 14.7273535,23.6732099 14.6043552,23.6676385 C14.3041956,23.6568144 14.0686016,23.6359497 13.8875806,23.6140892 C13.8601182,23.6404402 13.8304775,23.6660856 13.798752,23.6899417 C13.6398441,23.8421849 13.493005,23.7956392 13.4125453,23.7384268 C13.3692982,23.7103054 13.334097,23.6763659 13.2978902,23.6453354 C13.262689,23.6113958 13.2274879,23.5900624 13.2003327,23.5590319 C13.1882638,23.5629107 13.1510511,23.4921224 13.1098155,23.4087281 L13.0233213,23.2370908 C13.0253328,23.2390302 13.0333788,22.9442407 13.0192983,22.6252087 L13.0041307,22.2056806 C12.4054477,22.104162 11.8144982,21.9447064 11.2411381,21.7311434 C10.9705922,21.6293246 10.7010521,21.5148998 10.4385522,21.3868991 C10.3067994,21.3228988 10.1790696,21.256959 10.0473168,21.1832617 C9.91355244,21.1085946 9.7878341,21.0300487 9.66211576,20.947624 C9.16326538,20.6150162 8.71369659,20.208711 8.33855307,19.7442237 C7.96542103,19.2807061 7.66872575,18.759976 7.4545017,18.2159731 C7.24027764,17.6719702 7.11053632,17.1037248 7.05320875,16.5345096 C7.00090992,15.9662641 7.00996164,15.3980187 7.09645586,14.8394703 C7.11453705,14.7142683 7.13437267,14.5893835 7.1559755,14.4648775 C7.12460155,14.4730407 7.08661559,14.4871488 7.04415703,14.5117109 C6.98682947,14.5466202 6.92045018,14.6018932 6.85909963,14.6814088 C6.79674334,14.7599547 6.73941577,14.8578946 6.69415717,14.9635921 C6.60162847,15.1749872 6.55938711,15.4125642 6.55435838,15.5822621 C6.54932964,15.7558388 6.57447331,15.8547484 6.57447331,15.8547484 C6.57447331,15.8547484 6.57145607,15.924567 6.58251929,16.0069916 C6.59257675,16.0894163 6.61168594,16.1699016 6.67806522,16.227114 C6.73841003,16.2697809 6.80780655,16.2852961 6.84904217,16.3046902 C6.89430077,16.3221448 6.91340996,16.344448 6.91039272,16.3725693 C6.90636973,16.4016604 6.88122606,16.4346303 6.82792149,16.464691 C6.7766284,16.4957215 6.69616866,16.5199641 6.59559399,16.5122064 C6.60464571,16.5160853 6.54932964,16.5160853 6.46283542,16.4840851 C6.37935845,16.4530546 6.27677228,16.3754784 6.20938725,16.2882053 C6.06958846,16.1126892 6.02634135,15.9206881 6.0253356,15.9206881 C6.0253356,15.9206881 5.99114021,15.7626267 6.00220342,15.5376558 C6.01226089,15.3126849 6.06757696,15.0217743 6.18927232,14.7425 C6.25062287,14.6048023 6.32907111,14.4680743 6.42461705,14.3478313 C6.52116873,14.2275882 6.63682961,14.1247998 6.75852496,14.0540115 C6.88022032,13.9832233 7.00191567,13.9454049 7.08941563,13.9318291 C7.17490411,13.9163138 7.22820868,13.9172835 7.23424316,13.9172835 C7.24027764,13.9172835 7.24430063,13.9172835 7.25636959,13.9298897 C7.25742904,13.9309664 7.25848686,13.932069 7.25954229,13.9331972 C7.30898454,13.7047427 7.36455689,13.477892 7.42634079,13.2530376 C7.57217406,12.7342469 7.75119698,12.2251533 7.97648425,11.734484 C8.20478875,11.2457541 8.47734611,10.7725395 8.82131149,10.341022 C8.99228844,10.1247785 9.18136882,9.92114101 9.39156989,9.7349582 C9.4951618,9.63992739 9.60177095,9.55168449 9.72748929,9.46053249 C9.83711569,9.38295632 9.94674208,9.31022866 10.0573742,9.24041011 C10.4968855,8.964045 10.9434371,8.72937708 11.3930059,8.52283052 C11.8445861,8.31531427 12.3022009,8.13882848 12.7658501,7.99919137 C13.2315109,7.85955426 13.7072291,7.75773554 14.191999,7.71894745 C14.4927173,7.6947049 14.7793551,7.69955341 15.0388377,7.73349298 C15.2983204,7.76355375 15.5316536,7.82270558 15.7227455,7.89349384 C16.1069408,8.03797945 16.3080901,8.20573792 16.3271993,8.21446524 C16.3553602,8.23676839 16.3664234,8.24452601 16.3845269,8.29204141 C16.4609636,8.44913316 16.4820843,8.67216465 16.3724579,8.81858968 C16.3191533,8.89325674 16.2407051,8.94949946 16.1330902,8.98828755 C16.0244695,9.02707564 15.8896995,9.04937879 15.7317972,9.07071223 C15.7227455,9.07265164 15.6734639,9.07459104 15.657372,9.06877283 C15.645303,9.06295462 15.5477456,8.97665112 15.3294985,8.89519615 C15.1112515,8.81083206 14.7501884,8.74780142 14.2845277,8.7846501 C13.5141257,8.84768074 12.6662812,9.12307615 11.8385517,9.50222968 C11.4261955,9.6922913 11.0118279,9.91338339 10.6226039,10.1625968 L10.4797878,10.2576277 L10.4103913,10.3051431 L10.348035,10.3507191 C10.3108224,10.3778707 10.2695868,10.4108406 10.2263397,10.4457499 C10.1871155,10.4796894 10.1458799,10.5155684 10.1066558,10.5543565 C9.94674208,10.7017512 9.79789156,10.8675703 9.66010426,11.0450258 C9.10593782,11.7635751 8.72475981,12.6789739 8.46829439,13.6399487 C8.34056456,14.1228604 8.24200138,14.6203176 8.1756221,15.123593 C8.15550716,15.2525634 8.14746119,15.3553518 8.14142671,15.4843222 C8.13438648,15.6055349 8.13036349,15.7286871 8.13036349,15.8508696 C8.13036349,16.0971739 8.1434382,16.3425086 8.1756221,16.5859038 C8.29731745,17.5594848 8.68955867,18.5039746 9.34631128,19.241918 C9.67016173,19.6133139 10.0573742,19.9323459 10.4868281,20.1912564 C10.5894142,20.2533173 10.7030636,20.3134388 10.8177187,20.3735604 C10.9333796,20.4327122 11.051052,20.4879852 11.1687243,20.5413188 C11.4050748,20.6479861 11.646454,20.7420472 11.8938677,20.8244719 C12.8794995,21.1570797 13.9284934,21.312232 14.9342401,21.2579287 C15.435102,21.2288377 15.9269121,21.1473827 16.3865384,21.0048365 C16.5021992,20.9699272 16.6138371,20.9301694 16.7244693,20.8875025 C16.8361071,20.846775 16.9346703,20.8031384 17.0402737,20.7488351 C17.2504748,20.645077 17.4526299,20.5258036 17.6437218,20.3939241 C18.4151295,19.8654364 19.0336637,19.1497963 19.4721693,18.3876104 C19.9106749,17.6244548 20.1711633,16.8089353 20.2164219,16.0389918 C20.2697265,15.2612907 20.100761,14.531105 19.8141232,13.8911016 C19.6723129,13.5710999 19.501336,13.2724316 19.3172843,12.9960665 C19.2227441,12.8593385 19.1282039,12.7264893 19.028635,12.5984886 L18.9361063,12.480185 C18.6021984,12.0700009 18.3628307,11.8411512 18.3638364,11.8401815 C18.3638364,11.8401815 18.1144112,11.5386042 17.7352447,11.151693 C17.3601012,10.7647819 16.8461646,10.3032037 16.407659,9.92501982 C16.0284925,9.61568483 15.7790673,9.40719887 15.6473145,9.26756177 C15.5155617,9.13083377 15.498464,9.0581061 15.5708778,9.03871206 C15.7146995,8.99895427 16.2155614,9.16380364 16.7807911,9.45374458 C16.7325152,9.40913828 17.3993253,9.76792807 18.0379745,10.2198093 C18.1459232,10.294525 18.2526194,10.3718754 18.3553816,10.4490532 Z M23.4380821,13.2380823 C23.4385987,13.2341406 23.4390732,13.2300922 23.4398401,13.2249162 C23.4398401,13.2161889 23.4478861,13.1211581 23.4599551,12.965036 C23.4639781,12.8874599 23.468001,12.792429 23.4740355,12.6857618 L23.4770528,12.5121851 C23.4740355,12.3967906 23.4850987,12.245517 23.472024,12.0903647 L23.4639781,11.8935152 L23.4599551,11.8401815 L23.4599551,11.8130299 L23.4579436,11.8013935 L23.4579436,11.7975146 L23.4539206,11.7975146 C23.4327999,11.8101208 23.4146965,11.8236966 23.3986045,11.8372724 C23.3030586,11.9032122 23.1713058,12.0040612 23.0254725,12.1020011 C22.9902714,12.1291528 22.9530587,12.1553347 22.9138346,12.1815167 C22.9037771,12.1873349 22.8917082,12.1950925 22.8826565,12.2018804 L22.868576,12.2106078 L22.8394093,12.2270927 C22.8021967,12.2493958 22.7639783,12.2726687 22.7267657,12.2930324 C22.6895531,12.3124265 22.6523405,12.3298811 22.6171393,12.3424873 C22.5839497,12.3560631 22.5527715,12.3638207 22.5407026,12.362851 L22.5366796,12.362851 L22.5346681,12.362851 L22.5366796,12.3735177 C22.5366796,12.3861238 22.5386911,12.3948512 22.5366796,12.4064876 L22.5366796,12.4152149 L22.5346681,12.4171543 C22.5266221,12.4646697 22.546737,12.3502449 22.5447256,12.362851 L22.5407026,12.362851 L22.5306451,12.3618813 L22.5125417,12.3580025 L22.5034899,12.3560631 L22.479352,12.3512146 C22.4461624,12.343457 22.4109612,12.3318205 22.3757601,12.3221235 C22.2359613,12.2687899 22.098174,12.1786076 21.9905591,12.0884253 C21.8809327,11.9943642 21.7944385,11.897394 21.7330879,11.8198178 C21.5953006,11.6394532 21.562111,11.5230889 21.562111,11.5230889 C21.562111,11.5230889 21.5269099,11.4561795 21.5108179,11.3708457 C21.5088064,11.3524214 21.5067949,11.3281788 21.5067949,11.3078151 C21.5037777,11.3039363 21.5108179,11.2729058 21.5269099,11.2418753 C21.554065,11.1798144 21.5993236,11.106117 21.6506167,11.0353288 C21.7532029,10.894722 21.8748982,10.7618728 21.9684327,10.6716905 C22.0629729,10.5834476 22.1283464,10.530114 22.114266,10.5388413 C22.2279153,10.4418711 22.3455877,10.3652646 22.4421394,10.3148401 C22.4634479,10.3037116 22.4835807,10.2939529 22.5023,10.2854283 C22.5700208,10.3137246 22.5831146,10.3195055 22.5738922,10.3032037 C22.568592,10.2951733 22.5584465,10.2821965 22.5456552,10.2667558 C22.5895397,10.24896 22.6216423,10.2393771 22.6372542,10.2353245 C22.6623979,10.2285366 22.63826,10.2343548 22.5487485,10.2547185 C22.5452013,10.2555736 22.5415535,10.2564543 22.537805,10.2573634 C22.5177377,10.2335499 22.4929564,10.2055292 22.4703003,10.1810212 C22.4582313,10.1664756 22.4542083,10.1625968 22.4441509,10.1538695 C22.4361049,10.1480513 22.3657026,10.0811419 22.2279153,9.98805046 C22.0931453,9.89495905 21.8899844,9.76986747 21.6073696,9.69713981 C21.3146973,9.61956364 20.9687204,9.62926066 20.6509045,9.7349582 C20.3290655,9.83580722 20.0363932,10.0142324 19.7648416,10.194597 C19.6290658,10.2847793 19.497313,10.3778707 19.3685774,10.4525378 C19.3052154,10.4884168 19.2428591,10.5213866 19.1855315,10.5436898 L19.1634051,10.549508 L19.1543533,10.5533868 C19.1463074,10.5553262 19.1382614,10.5562959 19.1302154,10.5562959 C19.1151292,10.5572656 19.0990373,10.5572656 19.0809338,10.5553262 C19.016566,10.5436898 18.9552155,10.494235 18.9401293,10.438962 C18.9180029,10.3856283 18.9300718,10.295446 18.9954454,10.1916879 C19.0105316,10.1645362 19.028635,10.1402937 19.0477442,10.113142 C19.0718821,10.0850207 19.0930028,10.0588387 19.1181465,10.0287779 C19.167428,9.97350492 19.2207326,9.92017131 19.2780602,9.8697468 C19.3937211,9.76598867 19.5214509,9.67095786 19.6572267,9.58659377 C19.9317956,9.4178656 20.2385483,9.28501641 20.5543528,9.19774321 C21.1909905,9.02028772 21.8688638,9.0125301 22.4733175,9.15119751 C22.7760473,9.21907666 23.0626851,9.3267136 23.3221678,9.45665368 C23.4519091,9.52356313 23.5756159,9.59726049 23.6932883,9.67386696 C23.7506159,9.71265505 23.8079434,9.75338254 23.8602423,9.79217062 C23.9115353,9.83095871 23.9588054,9.8726559 24.0020526,9.9172622 C24.1810755,10.0985965 24.3088053,10.3138704 24.4063627,10.523326 C24.5049259,10.7347211 24.5753282,10.9422374 24.6306443,11.1352081 L24.6618224,11.2564209 L24.6819373,11.3398152 L24.711104,11.4736341 L24.7352419,11.5861196 C24.7352419,11.5861196 24.7543511,11.6782413 24.7774833,11.8130299 C24.8016212,11.9497579 24.8267649,12.1320619 24.8428568,12.3124265 C24.878058,12.6760648 24.8639775,13.0348546 24.865989,13.0038241 C24.8642557,13.1329211 24.8563616,13.2515779 24.847374,13.3488598 C24.8118779,13.3415147 24.7784153,13.3348488 24.7483166,13.3286743 L24.5914201,13.2986136 C24.5914201,13.2986136 24.2454433,13.4052808 23.9276273,13.3674624 C23.7667078,13.3519472 23.6088056,13.3073409 23.4931447,13.2607952 C23.473662,13.2530887 23.4552546,13.245462 23.4380821,13.2380823 L23.4380821,13.2380823 Z M19.6843819,11.4135126 C19.6823704,11.4125429 19.6803589,11.4106035 19.6763359,11.4096338 C19.6642669,11.4009065 19.6491807,11.3950883 19.6431463,11.3941186 C19.6391233,11.3921792 19.6451577,11.3989671 19.6763359,11.3853912 L19.6863934,11.379573 C19.6904163,11.3776336 19.7608186,11.3543608 19.8573703,11.3107242 C19.9519105,11.2651482 20.0776288,11.206966 20.2053587,11.151693 C20.4547839,11.0421167 20.7112493,10.949995 20.7112493,10.949995 C20.7112493,10.949995 20.8983182,10.9179948 21.022025,10.8733885 C21.1266227,10.8336307 21.1457319,10.80357 21.1376859,10.8122973 C21.1296399,10.8200549 21.0964503,10.8636915 21.0491802,10.9179948 C21.0532032,10.9121766 21.0009043,10.9761769 20.9375423,11.0353288 C20.875186,11.0973897 20.8057895,11.1536324 20.807801,11.1555718 C20.8057895,11.1536324 20.7494676,11.1953296 20.6549275,11.2457541 C20.5583758,11.2971483 20.4266229,11.3553305 20.2878299,11.3941186 C20.1460196,11.4338763 19.9971691,11.4523007 19.882514,11.4493916 C19.8241807,11.4445431 19.7769106,11.4406643 19.7417094,11.4319369 C19.707514,11.4222399 19.6884049,11.4144823 19.6843819,11.4135126 Z M18.2974571,8.86513538 C18.2914227,8.86707478 18.2894112,8.86707478 18.2793537,8.86998389 C18.2461641,8.8758021 18.2089514,8.88937793 18.2009054,8.89519615 C18.1898422,8.90004466 18.2069399,8.90004466 18.2461641,8.83410491 L18.2602445,8.81568057 C18.2642675,8.80986236 18.2954456,8.77301368 18.3527732,8.71386185 C18.4111065,8.65567972 18.4996122,8.58004295 18.6152731,8.50634559 C18.635388,8.49470916 18.6665662,8.47531512 18.6826581,8.4646484 C18.8244684,8.38319342 18.9220258,8.34828414 18.9200144,8.34828414 C18.9200144,8.34925384 19.024612,8.31143546 19.171451,8.2852535 C19.3192958,8.25713214 19.5053589,8.24646541 19.6592382,8.25325333 C19.7879738,8.25713214 19.8714508,8.26779886 19.9177151,8.26973827 C19.9649852,8.27264737 19.9770542,8.27167767 19.9629737,8.27167767 C19.9358185,8.27167767 19.8080887,8.29301112 19.6622554,8.34149622 C19.6763359,8.33858712 19.4993245,8.39095103 19.330359,8.46076959 C19.1603878,8.53058814 18.9924281,8.60816431 18.9914224,8.60622491 L18.794296,8.68186167 L18.7259052,8.70707393 C18.6062214,8.75361963 18.5016237,8.79240772 18.4271985,8.81955938 C18.3507617,8.84768074 18.3034916,8.86319597 18.2974571,8.86513538 Z M15.808234,1.7126124 C15.7951593,1.72715793 15.7911363,1.73491555 15.7539237,1.74073376 C15.6342398,1.77273393 15.4511939,1.81637053 15.2701595,1.77661274 C15.1796423,1.7572187 15.0901308,1.7126124 15.0167113,1.62436951 C14.9442976,1.53515691 14.8849585,1.40133801 14.8839527,1.19576116 C14.8839527,1.18121563 14.8889815,1.11333648 14.9050734,1.08909392 C14.9131194,1.0774575 14.950332,1.02606329 15.0227458,0.940729497 C15.0951596,0.858304815 15.2037802,0.73806175 15.3606767,0.612000472 C15.5175732,0.483999789 15.7257628,0.34824149 15.9792109,0.241574255 C16.1069408,0.186301233 16.2427166,0.13975553 16.3885498,0.101937147 C16.4257625,0.0922401252 16.4629751,0.0835128059 16.5001877,0.076724891 C16.5333774,0.0670278696 16.562544,0.0641187631 16.5947279,0.056361146 C16.6671417,0.0398762097 16.7576589,0.0233912733 16.8421416,0.0136942519 C16.9618255,0.000118421957 17.122745,-0.00569979088 17.27763,0.00690633693 C17.4315092,0.0156336562 17.5803597,0.0466641246 17.6769114,0.0728460824 C17.8871125,0.127149402 18.0731756,0.213452893 18.2250434,0.310423107 C18.3759054,0.406423618 18.4935777,0.514060556 18.5780605,0.608121663 C18.7490374,0.799152985 18.8043535,0.928123369 18.806365,0.928123369 C18.8043535,0.928123369 18.8807902,1.06000286 18.9361063,1.28885257 C18.96125,1.40036831 18.9813649,1.54291453 18.9833764,1.68255163 C18.9873994,1.82800695 18.9793534,2.00255334 18.9320833,2.18582704 C18.8868247,2.37007045 18.8003305,2.56110177 18.6766236,2.72692084 C18.5549283,2.89370961 18.4020548,3.03140731 18.2421411,3.14001395 C17.9263366,3.35528782 17.5964517,3.47553089 17.3078024,3.569592 C17.0654174,3.65492578 16.8672853,3.71310791 16.7083773,3.75868391 C16.5474578,3.80619932 16.4257625,3.84013889 16.3312223,3.86244204 C16.1441534,3.90704834 16.0717396,3.89444221 16.0858201,3.82268425 C16.0999005,3.74995659 16.2075154,3.62001651 16.3865384,3.47844 C16.5645555,3.33492408 16.812975,3.18268084 17.0674289,3.02364969 C17.0362507,3.03140731 17.182084,2.94898263 17.3882621,2.81128492 C17.5924287,2.67455692 17.8418539,2.46801037 17.9303596,2.25370619 C17.9796412,2.14800866 17.9947274,2.03940202 17.9907044,1.92497717 C17.9866814,1.81637053 17.9575147,1.67964253 17.9283481,1.60012695 C17.8639803,1.42848967 17.7865378,1.36545903 17.7885493,1.36254993 C17.7885493,1.36254993 17.7654171,1.32473154 17.7080896,1.27139793 C17.6517677,1.21709461 17.5511931,1.14630635 17.3882621,1.10170005 C17.345015,1.09200303 17.2756185,1.0774575 17.1971702,1.07260899 C17.1207335,1.06582107 17.0362507,1.06873018 16.9759059,1.0774575 C16.9266243,1.08230601 16.8894117,1.08909392 16.8381186,1.10073035 C16.8069405,1.10848797 16.7707336,1.11333648 16.7455899,1.12012439 C16.7224578,1.1249729 16.6983198,1.13079112 16.6771992,1.13660933 C16.5846705,1.15988218 16.5021992,1.18800354 16.4297855,1.21903401 C16.2799292,1.28206465 16.1642683,1.35867112 16.0757626,1.43139878 C15.8967397,1.5778238 15.81628,1.70291538 15.808234,1.7126124 Z M15.3767686,4.91650827 C15.4119698,4.65662809 15.8514811,4.48305141 16.0566534,4.58002163 C16.2588085,4.67796154 16.4750441,5.22875236 16.3151303,5.48863253 C16.1602453,5.72330045 15.661395,5.75336121 15.5155617,5.50802657 C15.4079468,5.32475287 15.3586652,5.10075167 15.3767686,4.91650827 Z M10.4908511,29.0650006 C10.4908511,29.0659703 10.4908511,29.0591824 10.5049315,29.0562733 C10.5833798,29.0242732 10.7835234,28.9806366 11.0238968,29.0543339 C11.0279198,29.0553036 11.0450175,29.0630612 11.047029,29.0650006 L11.0450175,30.3828258 C11.0450175,30.3828258 10.9876899,30.5942209 10.9022015,30.7425853 C10.7835234,30.9956776 10.661828,30.8938589 10.5974602,30.7377368 C10.5833798,30.7542218 10.4908511,30.3653712 10.4908511,30.3653712 L10.4908511,29.0650006 Z M14.5238954,14.0986178 C14.4967403,13.8387377 14.9292114,13.5788575 15.1705906,13.629282 C15.4119698,13.6826156 15.7810788,14.1723152 15.6734639,14.4574076 C15.5648433,14.7172878 15.0348148,14.8511067 14.8205907,14.6426207 C14.6596712,14.4874684 14.5520563,14.2799521 14.5238954,14.0986178 Z M11.7822299,14.2644369 C11.1536381,14.5272262 11.6675747,15.3553518 12.2217412,15.1749872 C12.7779191,14.9917135 13.123896,14.3468616 11.8667126,14.1849213 L11.7822299,14.2644369 Z M14.8759068,28.1331169 C14.8799298,28.1079046 14.8799298,28.100147 14.8779183,28.0894803 C14.8718838,28.0865712 14.88697,28.0982076 14.9191539,28.0943288 C14.9342401,28.0943288 14.950332,28.09045 14.9714527,28.0875409 C14.9895562,28.0836621 15.0146998,28.0797833 15.0368263,28.0729954 L15.0659929,28.0632983 L15.0509067,28.0700862 C15.0408492,28.0739651 15.0287803,28.0797833 15.0187228,28.0826924 L14.950332,28.1166319 C14.9010504,28.1399048 14.8467401,28.1622079 14.7813666,28.1738444 C14.7501884,28.1786929 14.7149873,28.1825717 14.6757632,28.1709353 C14.6556482,28.1651171 14.6345276,28.1563897 14.6124011,28.1292381 C14.6083781,28.1224502 14.6023437,28.1156622 14.5983207,28.1059652 C14.5922862,28.0933591 14.589269,28.0797833 14.5872575,28.0623286 C14.585246,28.0458437 14.585246,28.0119041 14.5912805,27.9876616 C14.5963092,27.9672978 14.6043552,27.9479038 14.6164241,27.9285097 C14.6244701,27.9091157 14.6395563,27.8858428 14.6616827,27.8635397 C14.6737517,27.8519033 14.7009068,27.8276607 14.732085,27.8092364 C14.7501884,27.7995393 14.7672861,27.7917817 14.7914241,27.7849938 C14.8125447,27.7772362 14.8226022,27.7743271 14.8427171,27.771418 C14.8839527,27.7646301 14.9010504,27.7636604 14.9251884,27.7636604 C14.9483205,27.7646301 14.9563665,27.7646301 14.9684355,27.7685089 C14.9855332,27.7694786 15.0267688,27.7849938 15.0579469,27.8014788 C15.0921423,27.816994 15.121309,27.8373577 15.1464526,27.8519033 C15.2037802,27.8897216 15.2590963,27.9343279 15.3234641,27.9866919 C15.3888376,28.0400255 15.4592399,28.0972379 15.5356766,28.1563897 C15.5728893,28.1845111 15.6121134,28.2136022 15.6473145,28.2378447 C15.665418,28.2494811 15.6835214,28.2601479 15.6945846,28.2679055 L15.7086651,28.2737237 L15.7106766,28.2737237 L15.7066536,28.282451 L15.7006191,28.2931177 C15.6925731,28.308633 15.6865386,28.328027 15.6794984,28.3425725 C15.6734639,28.3580878 15.6674294,28.3726333 15.6634065,28.3891183 C15.6593835,28.4026941 15.6553605,28.4153002 15.6513375,28.4298457 L15.6885501,28.2620873 L15.7398432,28.2853601 C15.9741822,28.3813606 16.2980326,28.3929971 16.5293544,28.3503302 C16.7657049,28.3096027 16.9105324,28.2349356 16.9105324,28.2349356 C16.9105324,28.2349356 16.9889806,28.2223295 17.0915668,28.1922687 C17.1971702,28.1622079 17.3249001,28.109844 17.4375437,28.0536013 C17.6095264,27.9420856 17.6960206,27.8945702 17.7453022,27.9449947 C17.7965953,27.9915404 17.7925723,28.1321472 17.718147,28.282451 C17.734239,28.2717843 17.6356758,28.445361 17.4868253,28.5849981 C17.340992,28.7275443 17.1559346,28.8322721 17.1559346,28.8322721 C17.1559346,28.8322721 16.943722,28.9331212 16.6218831,28.9845154 C16.3020556,29.037849 15.8695845,29.0320308 15.4843835,28.8759087 L15.5316536,28.8933634 C15.4471709,28.8700905 15.4079468,28.8477874 15.3687227,28.8264539 C15.33151,28.8070599 15.3003319,28.7847567 15.272171,28.7673021 C15.2138377,28.7294837 15.1645561,28.692635 15.121309,28.6586954 C15.0328033,28.5898466 14.958378,28.5306948 14.8970275,28.4802703 C14.8366827,28.4327548 14.7894126,28.3949365 14.7652746,28.3794212 L14.7542114,28.3726333 L14.7542114,28.3716636 L14.7753321,28.3319058 L14.8205907,28.2543297 C14.8678608,28.1689959 14.8718838,28.1369957 14.8759068,28.1331169 Z M15.101194,26.241228 C15.0991825,26.2451068 15.0991825,26.2451068 15.0840963,26.2489856 C15.0348148,26.2586827 14.950332,26.2800161 14.8427171,26.2916525 C14.7340965,26.3013495 14.5983207,26.3013495 14.4635506,26.1917732 C14.4595276,26.1888641 14.4414242,26.1704398 14.4394127,26.1607427 C14.4414242,26.1549245 14.4454472,26.094803 14.4766253,25.9949237 C14.5067977,25.8979535 14.5711655,25.7612255 14.6828034,25.6371036 C14.795447,25.5110423 14.946309,25.4053448 15.1112515,25.3267989 C15.276194,25.2472833 15.4552169,25.1949194 15.6322283,25.1629192 C15.9872569,25.0940704 16.3392683,25.1047371 16.6007624,25.1435252 C16.8612508,25.1784345 17.0342392,25.238556 17.0342392,25.238556 C17.0342392,25.238556 17.1448714,25.2851017 17.27763,25.3781931 C17.4113943,25.4693451 17.5692965,25.6206186 17.6396988,25.7825589 C17.7080896,25.9154081 17.7040666,26.0162571 17.6889804,26.0695907 C17.6688654,26.1258335 17.6356758,26.1432881 17.6024861,26.1374699 C17.5330896,26.1277729 17.4546414,26.058924 17.353061,26.0046207 C17.3570839,26.0191662 17.2504748,25.9415901 17.1056473,25.8998929 C16.963837,25.8562563 16.804929,25.8388016 16.804929,25.8388016 C16.804929,25.8397713 16.6832336,25.7971044 16.4800728,25.7728619 C16.2819407,25.7466799 16.0033489,25.7418314 15.7458777,25.7932256 C15.6181479,25.8194076 15.4964525,25.8581957 15.3978893,25.9057111 C15.3023434,25.9522568 15.2289239,26.0084995 15.1856768,26.058924 C15.101194,26.1549245 15.105217,26.2354098 15.101194,26.241228 Z M14.418292,27.6317809 C14.4162805,27.63469 14.414269,27.6356597 14.4001886,27.624993 C14.3569415,27.598811 14.2845277,27.5551744 14.1980335,27.488265 C14.1155623,27.4223252 14.0169991,27.3272944 14.0210221,27.1498389 C14.0210221,27.1498389 14.025045,27.1158993 14.033091,27.1100811 C14.037114,27.1042629 14.0934358,27.0635354 14.187976,27.0179594 C14.2805047,26.9694743 14.4062231,26.9209892 14.5520563,26.8783223 C14.8437229,26.7929885 15.2178607,26.7348064 15.5849582,26.6998971 C16.3191533,26.6281392 17.0342392,26.6291089 17.0362507,26.6281392 C17.0362507,26.6281392 17.503923,26.6882607 17.8277734,26.7900794 C18.3779169,26.9277771 18.1576583,27.0703233 17.8146987,27.1449904 C17.8498998,27.1566268 17.0050726,27.2662032 17.0070841,27.2710517 C17.0070841,27.2710517 16.3111074,27.2720214 15.6342398,27.3389308 C15.2963089,27.3719007 14.9644125,27.4281434 14.740131,27.4950529 C14.6284931,27.527053 14.5440104,27.562932 14.4947288,27.5871746 C14.4414242,27.6133565 14.422315,27.6298415 14.418292,27.6317809 Z M12.6361088,23.307879 C12.6642697,23.2972123 12.6733214,23.2923638 12.7185801,23.3030305 C12.873465,23.3195155 13.0726029,23.3922431 13.1782063,23.5376984 C13.286827,23.6860629 13.2958787,23.9032762 13.1430052,24.2155202 C13.1369707,24.2271567 13.1057925,24.2737024 13.0876891,24.2863085 C13.0726029,24.2930964 12.9096719,24.3619453 12.6441548,24.4967339 C12.3806492,24.6324922 12.0175746,24.8467963 11.5851035,25.1309191 C11.2672875,25.3374656 10.8468854,25.6283763 10.4184373,25.9008626 C10.2042132,26.0375906 9.98998919,26.1685004 9.79185708,26.2819555 L9.64702955,26.3634105 L9.57763303,26.4021986 L9.56053534,26.4128653 L9.55651235,26.4148047 L9.55248936,26.4148047 C9.51929972,26.3440164 9.62691462,26.576745 9.47806411,26.2548038 L9.47605261,26.2577129 L9.47605261,26.2722585 C9.47605261,26.2916525 9.46398365,26.3139557 9.48711583,26.3236527 C9.50521927,26.3372285 9.52432845,26.3430467 9.53639742,26.3634105 C9.54444339,26.3721378 9.55248936,26.3798954 9.56053534,26.3886227 L9.57159855,26.3992895 C9.57361004,26.4031683 9.57159855,26.4012289 9.57361004,26.4021986 C9.57159855,26.4021986 9.56958706,26.4051077 9.56757556,26.4089865 C9.56053534,26.4177138 9.54846638,26.4303199 9.53840891,26.4477746 C9.4951618,26.514684 9.4499032,26.6203815 9.41872505,26.7144427 C9.38352391,26.8085038 9.35938599,26.8977164 9.33826531,26.9723834 C9.30105268,27.1207479 9.28496073,27.2089907 9.28496073,27.2089907 C9.28496073,27.2089907 9.17533434,27.5697199 9.06269071,28.0972379 C8.95105282,28.6218468 8.83539195,29.3035474 8.7267713,29.8650049 C8.64430007,30.3779773 8.57590929,30.7018579 8.50953001,30.8725254 L8.50148404,30.8376162 C8.50148404,30.8376162 8.50148404,30.8482829 8.49947254,30.8502223 C8.48941507,30.8579799 8.47231738,30.8676769 8.4662829,30.8783436 C8.46225991,30.8822225 8.46024842,30.8851316 8.45823693,30.8890104 L8.45823693,30.8899801 C8.45823693,30.8899801 8.45823693,30.8890104 8.45421394,30.8851316 C8.45421394,30.8861013 8.45019095,30.8754345 8.44616797,30.8725254 L8.4361105,30.8599193 L8.43108176,30.8541011 C8.43108176,30.8541011 8.43108176,30.8550708 8.43510475,30.8550708 C8.4361105,30.8550708 8.44214498,30.851192 8.44817946,30.8482829 C8.47231738,30.8385859 8.49142657,30.8327676 8.5115415,30.8327676 C8.54875413,30.8366464 8.56786332,30.8395556 8.57993228,30.8560405 C8.59200124,30.8715557 8.58998975,30.8977377 8.58395527,30.9200408 C8.57993228,30.9345864 8.57993228,30.9491319 8.5738978,30.9675562 C8.57188631,30.9733745 8.56786332,30.9811321 8.55277712,30.997617 C8.55076563,30.9985867 8.54070816,31.0063443 8.53266218,31.0111928 C8.52461621,31.0179807 8.51858173,31.0208899 8.49947254,31.0286475 C8.4813691,31.0325263 8.4662829,31.0354354 8.44415647,31.0354354 C8.42705878,31.0354354 8.40090936,31.0286475 8.38984615,31.0208899 C8.37777719,31.0160413 8.36570823,31.0102231 8.35565076,31.0024655 C8.34659904,30.9956776 8.34458755,30.9917988 8.33855307,30.9888897 L8.32447261,30.9753139 L8.31642664,30.9656168 L8.29329446,30.9384652 L8.27720252,30.870586 C8.20478875,30.659191 8.1454497,30.2625828 8.11628304,29.8039137 C8.10220259,29.8659746 8.07303593,29.1406374 8.09516236,28.390088 C8.10622557,28.0148132 8.13036349,27.63469 8.16355314,27.3399005 C8.19473128,27.0470505 8.23395541,26.8443827 8.23395541,26.8443827 C8.23395541,26.8443827 8.25205885,26.7600187 8.29731745,26.6009875 C8.32044963,26.5224416 8.34760479,26.4245017 8.39286339,26.3081375 C8.43812199,26.1888641 8.49142657,26.0531058 8.59803572,25.8853473 C8.62720238,25.8397713 8.66240351,25.7903165 8.70967361,25.7360132 C8.73280578,25.7059524 8.7589552,25.6778311 8.79013335,25.6477703 C8.8042138,25.6322551 8.82131149,25.6167398 8.84142643,25.6021943 L8.86858159,25.5808609 C8.87662756,25.5740729 8.89271951,25.5595274 8.90579422,25.5517698 L8.94904133,25.5226787 L8.97116776,25.5081332 L8.98625396,25.5003756 L9.02145509,25.4790421 L9.08280564,25.4451026 L9.21455846,25.3733446 C9.39358138,25.2686168 9.59171348,25.1483737 9.79386858,25.0194033 C10.2001903,24.7604928 10.6246154,24.4647337 10.9585233,24.2465507 C11.4080921,23.9498219 11.8154195,23.7103054 12.1181493,23.5541834 C12.4218848,23.3970916 12.6169996,23.3166064 12.6361088,23.307879 Z M15.1665676,18.8705221 C15.1705906,18.8724615 15.1726021,18.8724615 15.1746136,18.887007 C15.1896998,18.9713711 15.1997572,19.179857 15.0126883,19.362161 C15.0096711,19.3660398 14.9935791,19.3776763 14.9895562,19.3776763 L14.6757632,19.2729484 C14.4987518,19.2147663 14.2764817,19.150766 14.0522002,19.1313719 C13.810821,19.1061597 13.5754763,19.1022809 13.4125453,19.1197355 C13.2476028,19.1352507 13.1510511,19.1672509 13.1510511,19.1672509 C13.1510511,19.1682206 13.0826604,19.1682206 12.9881202,19.1837358 C12.8915685,19.1973117 12.7658501,19.2273724 12.6522008,19.2564635 C12.4671434,19.316585 12.3826606,19.3136759 12.365563,19.2603423 C12.3474595,19.2070087 12.3947296,19.1100385 12.4812238,19.0101592 C12.4671434,19.014038 12.575764,18.9034919 12.7185801,18.8084611 C12.8583788,18.7114909 13.0293558,18.6445815 13.0293558,18.6445815 C13.0293558,18.6455512 13.1701603,18.603854 13.3823729,18.5854296 C13.592574,18.5650659 13.8641256,18.5737932 14.1236082,18.6009449 C14.4042116,18.6280965 14.6697287,18.7066424 14.8557918,18.7677336 L15.1665676,18.8705221 Z M15.1665676,18.8705221" id="confused--body-grey" fill="#67737B" sketch:type="MSShapeGroup"></path>
    </g>
</svg>