<?xml version="1.0" encoding="UTF-8" standalone="no"?>
<svg width="32px" height="32px" viewBox="0 0 32 32" version="1.1" xmlns="http://www.w3.org/2000/svg" xmlns:xlink="http://www.w3.org/1999/xlink" xmlns:sketch="http://www.bohemiancoding.com/sketch/ns">
    <title>drinking-pin--body-grey</title>
    <description>Created with Sketch (http://www.bohemiancoding.com/sketch)</description>
    <defs></defs>
    <g id="Page-1" stroke="none" stroke-width="1" fill="none" fill-rule="evenodd" sketch:type="MSPage">
        <path d="M15.9989697,0 C22.6279729,0 28,4.654 28,11.648 C28,18.482 21.9459088,21.417 18.721044,25.788 C16.083455,29.357 15.9989697,32 15.9989697,32 C15.9989697,32 15.9793938,29.344 13.2779256,25.788 C9.96033313,21.417 4,18.684 4,11.648 C4,4.652 9.37202713,0 15.9989697,0 M18.608,17.6444147 C18.35,17.5824147 17.637,17.3754147 17.408,17.1834147 C17.16,16.9794147 16.967,16.1224147 16.912,15.6314147 C16.897,15.5094147 16.881,15.4554147 16.875,15.4174147 C16.873,15.3944147 16.867,15.3824147 16.866,15.3304147 C16.86,15.2964147 16.858,15.2404147 16.866,15.1794147 C16.868,15.1324147 16.85,15.0824147 16.818,15.0484147 C16.78,15.0104147 16.738,14.9974147 16.684,15.0004147 L16.498,15.0174147 C16.3,15.0384147 16.106,15.0644147 15.887,15.0544147 C15.793,15.0464147 15.707,15.0394147 15.619,15.0374147 L15.5,15.0274147 C15.448,15.0004147 15.39,15.0024147 15.338,15.0354147 C15.29,15.0644147 15.258,15.1174147 15.258,15.1764147 C15.258,15.2304147 15.243,15.4784147 15.225,15.7254147 C15.179,16.2264147 15.005,17.0924147 14.737,17.2874147 C14.346,17.5664147 13.63,17.6424147 13.618,17.6444147 C13.28,17.6794147 13,17.9894147 13,18.3274147 L13,18.3724147 C13,18.7224147 13.283,19.0064147 13.64,19.0064147 L18.557,19.0064147 C18.908,19.0064147 19.19,18.7224147 19.19,18.3724147 L19.19,18.3274147 C19.19,18.0024147 18.94,17.7174147 18.608,17.6444147 M12.8231339,5 C10.2351339,7.691 9.70513392,13.984 15.9411339,13.984 C22.1731339,13.984 21.4481339,8.151 19.1921339,5 L12.8231339,5 Z M12.7322598,7.767 C12.9022598,7.275 13.1422598,6.749 13.4652598,6.193 L13.4962598,6.089 L18.3332598,6.089 L18.3662598,6.193 C18.6902598,6.749 18.9242598,7.275 19.0902598,7.767 L12.7322598,7.767" id="drinking-pin--body-grey" fill="#67747C" sketch:type="MSShapeGroup"></path>
    </g>
</svg>