<?xml version="1.0" encoding="UTF-8" standalone="no"?>
<svg width="32px" height="32px" viewBox="0 0 32 32" version="1.1" xmlns="http://www.w3.org/2000/svg" xmlns:xlink="http://www.w3.org/1999/xlink" xmlns:sketch="http://www.bohemiancoding.com/sketch/ns">
    <title>drinking--body-grey</title>
    <description>Created with Sketch (http://www.bohemiancoding.com/sketch)</description>
    <defs></defs>
    <g id="Page-1" stroke="none" stroke-width="1" fill="none" fill-rule="evenodd" sketch:type="MSPage">
        <path d="M21.232252,27.387 C20.737252,27.271 19.370252,26.873 18.935252,26.506 C18.458252,26.114 18.088252,24.469 17.980252,23.527 C17.952252,23.291 17.921252,23.188 17.911252,23.118 C17.907252,23.075 17.894252,23.05 17.892252,22.949 C17.882252,22.885 17.880252,22.779 17.892252,22.662 C17.894252,22.568 17.860252,22.475 17.800252,22.412 C17.726252,22.338 17.646252,22.315 17.542252,22.316 L17.189252,22.35 C16.808252,22.391 16.437252,22.441 16.015252,22.422 C15.837252,22.408 15.671252,22.391 15.503252,22.391 L15.274252,22.371 C15.173252,22.316 15.062252,22.322 14.962252,22.387 C14.872252,22.441 14.810252,22.541 14.810252,22.656 C14.810252,22.757 14.778252,23.234 14.745252,23.709 C14.659252,24.668 14.323252,26.329 13.810252,26.705 C13.062252,27.239 11.688252,27.385 11.663252,27.387 C11.015252,27.455 10.479252,28.049 10.479252,28.699 L10.479252,28.781 C10.479252,29.456 11.022252,30 11.709252,30 L21.134252,30 C21.806252,30 22.349252,29.456 22.349252,28.781 L22.349252,28.699 C22.349252,28.076 21.868252,27.527 21.232252,27.387 M22.708252,3 L10.496252,3 C5.53425198,8.16 4.51525198,20.229 16.476252,20.229 C28.425252,20.229 27.035252,9.044 22.708252,3 M10.337252,8.553 C10.661252,7.609 11.123252,6.601 11.739252,5.533 L11.800252,5.337 L21.075252,5.337 L21.144252,5.533 C21.761252,6.601 22.209252,7.609 22.526252,8.553 L10.337252,8.553" id="drinking--body-grey" fill="#67747C" sketch:type="MSShapeGroup"></path>
    </g>
</svg>