<?xml version="1.0" encoding="UTF-8" standalone="no"?>
<svg width="32px" height="32px" viewBox="0 0 32 32" version="1.1" xmlns="http://www.w3.org/2000/svg" xmlns:xlink="http://www.w3.org/1999/xlink" xmlns:sketch="http://www.bohemiancoding.com/sketch/ns">
    <title>dude--body-grey</title>
    <description>Created with Sketch (http://www.bohemiancoding.com/sketch)</description>
    <defs></defs>
    <g id="Brand" stroke="none" stroke-width="1" fill="none" fill-rule="evenodd" sketch:type="MSPage">
        <path d="M8.82252925,13.6746655 C8.82159878,13.6736522 8.82066777,13.6726629 8.81973676,13.6716981 C8.80753116,13.6576981 8.80549689,13.6576981 8.79532555,13.6576981 C8.79125702,13.6586981 8.7363318,13.6566981 8.64275549,13.6726981 C8.55121346,13.6886981 8.42407174,13.7276981 8.29693002,13.8036981 C8.16978831,13.8806981 8.04671513,13.9906981 7.94500175,14.1196981 C7.84430552,14.2496981 7.76293482,14.3936981 7.69885539,14.5426981 C7.56967941,14.8416981 7.51271992,15.1526981 7.50254858,15.3936981 C7.49034298,15.6336981 7.52594266,15.8046981 7.52594266,15.8046981 C7.52797693,15.8026981 7.57171368,16.0086981 7.71919807,16.1986981 C7.79039743,16.2926981 7.89719647,16.3736981 7.98670424,16.4076981 C8.07621201,16.4426981 8.1362229,16.4416981 8.12605156,16.4376981 C8.23183347,16.4476981 8.3172727,16.4186981 8.37016365,16.3876981 C8.42407174,16.3556981 8.45356862,16.3186981 8.45560289,16.2906981 C8.45967142,16.2586981 8.43831161,16.2346981 8.39457486,16.2156981 C8.35083811,16.1956981 8.27557022,16.1776981 8.21149079,16.1326981 C8.1423257,16.0716981 8.12401729,15.9866981 8.10977742,15.8966981 C8.10062321,15.8086981 8.10469175,15.7326981 8.10265748,15.7336981 C8.10469175,15.7346981 8.07621201,15.6276981 8.08231481,15.4426981 C8.08841761,15.2606981 8.13215436,15.0066981 8.2297992,14.7786981 C8.27658735,14.6666981 8.33659824,14.5596981 8.40271193,14.4766981 C8.46780849,14.3926981 8.53697358,14.3326981 8.59698447,14.2956981 C8.64099962,14.269152 8.68057617,14.2537139 8.71341527,14.2446712 C8.69071085,14.3782188 8.6698872,14.5122405 8.65089256,14.6466981 C8.56138479,15.2426981 8.55121346,15.8526981 8.60919008,16.4626981 C8.66818384,17.0716981 8.80549689,17.6806981 9.03028344,18.2636981 C9.25303573,18.8476981 9.56427865,19.4036981 9.9579094,19.9006981 C10.3515402,20.3986981 10.8234902,20.8356981 11.3483312,21.1896981 C11.4795415,21.2796981 11.612786,21.3636981 11.7541676,21.4436981 C11.8904635,21.5216981 12.0257423,21.5926981 12.1650896,21.6646981 C12.4407328,21.7996981 12.7224789,21.9226981 13.0082935,22.0316981 C13.6103626,22.2592004 14.2307674,22.4295717 14.8595546,22.5382846 L14.8767681,22.9876981 C14.891008,23.3326981 14.8828709,23.6456981 14.8808366,23.6426981 L14.9703444,23.8276981 C15.0140812,23.9176981 15.0537494,23.9926981 15.0669721,23.9886981 C15.0954519,24.0226981 15.1330858,24.0456981 15.1686855,24.0826981 C15.2063194,24.1146981 15.2439534,24.1506981 15.2887073,24.1816981 C15.3731294,24.2406981 15.5287508,24.2926981 15.6955608,24.1296981 C15.9162788,23.9606981 16.039352,23.7076981 16.0413862,23.7076981 C16.0413862,23.7076981 16.0454548,23.6076981 16.047489,23.4676981 C16.047489,23.3266981 16.0454548,23.1426981 16.0413862,22.9626981 L16.0310308,22.6680477 C16.1355882,22.6731293 16.2402064,22.6764654 16.3448408,22.6780358 C16.3546938,22.7754218 16.3653527,22.8865657 16.3750061,22.9986981 L16.4329827,23.6376981 C16.4329827,23.6376981 16.6679406,24.0146981 16.6913347,23.9946981 C16.8479733,24.1386981 17.1144623,24.2046981 17.3331461,23.9296981 C17.4938532,23.7656981 17.5935323,23.5496981 17.5935323,23.5496981 L17.5355557,22.9036981 C17.5279033,22.8052915 17.5190535,22.705798 17.5103922,22.6145387 C17.7949861,22.5784639 18.0775341,22.5268783 18.3563826,22.4586981 C18.6483,22.3866981 18.9361488,22.2956981 19.2158606,22.1836981 C19.5047266,22.0706981 19.7701985,21.9316981 20.0224476,21.7806981 C21.0375471,21.1706981 21.8227743,20.3346981 22.4086434,19.4376981 C22.9945124,18.5396981 23.3840746,17.5586981 23.5386789,16.5706981 C23.5763129,16.3246981 23.5986898,16.0746981 23.6068269,15.8346981 C23.6169982,15.5906981 23.6088612,15.3476981 23.5885185,15.1116981 C23.5607765,14.7963759 23.5073775,14.490347 23.4340108,14.1971442 C23.5429286,14.2768252 23.6617804,14.3830101 23.759397,14.4936981 C23.759397,14.4936981 23.7736368,14.5126981 23.7817739,14.5276981 C23.7909281,14.5456981 23.8010994,14.5666981 23.8112708,14.5896981 C23.8316135,14.6346981 23.8468705,14.6856981 23.8611103,14.7376981 C23.888573,14.8406981 23.9048471,14.9416981 23.9129842,15.0286981 C23.9282412,15.2026981 23.9129842,15.3076981 23.9129842,15.3076981 C23.9129842,15.3076981 23.9160356,15.3386981 23.9160356,15.3836981 C23.9160356,15.4066981 23.9160356,15.4316981 23.9150184,15.4576981 L23.9109499,15.4886981 C23.9109499,15.4996981 23.9129842,15.5006981 23.9150184,15.5066981 C23.9180698,15.5246981 23.9089156,15.5506981 23.8926415,15.5636981 C23.8784016,15.5776981 23.8631446,15.5826981 23.8651789,15.5856981 C23.850939,15.5926981 23.8407677,15.6006981 23.8173736,15.6026981 C23.7970309,15.6056981 23.7716026,15.6056981 23.7471914,15.6076981 C23.7014203,15.6096981 23.6627693,15.6136981 23.6383581,15.6306981 C23.6129297,15.6486981 23.6027584,15.6776981 23.6220839,15.7256981 C23.6322553,15.7496981 23.6505637,15.7776981 23.6800605,15.8086981 C23.6963347,15.8246981 23.7136259,15.8406981 23.7380372,15.8566981 C23.7634655,15.8736981 23.7949966,15.8906981 23.8346649,15.9046981 C23.9221384,15.9406981 24.0441944,15.9436981 24.1489592,15.8906981 C24.200833,15.8656981 24.2486383,15.8296981 24.2883065,15.7866981 C24.307632,15.7656981 24.3259405,15.7426981 24.3422146,15.7186981 C24.3574716,15.6966981 24.3717115,15.6756981 24.3808657,15.6576981 C24.4642706,15.5086981 24.4846133,15.4026981 24.4866476,15.4026981 C24.4866476,15.4026981 24.5120759,15.2356981 24.4927504,15.0056981 C24.4846133,14.8896981 24.4642706,14.7586981 24.428671,14.6156981 C24.4113797,14.5426981 24.3890027,14.4686981 24.3574716,14.3926981 C24.3259405,14.3146981 24.292375,14.2356981 24.2181243,14.1416981 C24.1947302,14.1116981 24.1865931,14.1046981 24.1723533,14.0886981 L24.132685,14.0456981 C24.1052224,14.0176981 24.0797941,13.9906981 24.0513143,13.9656981 C23.9963891,13.9146981 23.942481,13.8636981 23.8845044,13.8166981 C23.7716026,13.7256981 23.6566665,13.6456981 23.5386789,13.5846981 C23.4281759,13.5270708 23.3122263,13.4872931 23.2062664,13.4754824 C22.9336684,12.7595733 22.5601376,12.1483209 22.1747026,11.6306981 L22.0628179,11.4816981 L22.0272182,11.4366981 L21.9600874,11.3516981 L21.83498,11.1986981 C21.7556435,11.1036981 21.683427,11.0236981 21.6264675,10.9596981 C21.5105143,10.8326981 21.4454177,10.7626981 21.4454177,10.7626981 C21.4454177,10.7626981 21.2918305,10.6116981 21.051787,10.4046981 C20.8117434,10.1966981 20.4852435,9.9336981 20.1495894,9.6946981 C19.4803154,9.2106981 18.777476,8.8266981 18.8283327,8.8756981 C18.2343266,8.5646981 17.7084684,8.3866981 17.5569155,8.4306981 C17.4796133,8.4516981 17.4979217,8.5276981 17.6372691,8.6766981 C17.7755992,8.8256981 18.0380197,9.0456981 18.435719,9.3796981 C18.8985149,9.7836981 19.4365786,10.2796981 19.8322436,10.6956981 C20.2299429,11.1086981 20.4913463,11.4326981 20.4913463,11.4316981 C20.489312,11.4336981 20.7415612,11.6776981 21.0934895,12.1176981 L21.1911343,12.2446981 C21.2938648,12.3816981 21.3955782,12.5236981 21.493223,12.6716981 C21.6874956,12.9676981 21.8665111,13.2896981 22.0170469,13.6296981 C22.3171013,14.3166981 22.4920483,15.0976981 22.4381403,15.9306981 C22.390335,16.7556981 22.116726,17.6316981 21.6559644,18.4476981 C21.1952028,19.2626981 20.5452544,20.0306981 19.7366331,20.5976981 C19.5342235,20.7386981 19.3216425,20.8676981 19.1009245,20.9776981 C18.9880226,21.0356981 18.8863093,21.0826981 18.7693389,21.1276981 C18.6544028,21.1726981 18.534381,21.2146981 18.4133421,21.2526981 C17.9312207,21.4046981 17.416551,21.4926981 16.8876415,21.5226981 C15.8308396,21.5826981 14.7303009,21.4166981 13.6938416,21.0586981 C13.4344725,20.9706981 13.1801891,20.8696981 12.9320084,20.7546981 C12.806901,20.6986981 12.6838278,20.6396981 12.5627889,20.5756981 C12.44175,20.5126981 12.3227453,20.4476981 12.2159463,20.3816981 C11.7633218,20.1036981 11.3564683,19.7616981 11.0147113,19.3646981 C10.3271289,18.5716981 9.91417265,17.5616981 9.78703094,16.5176981 C9.75346552,16.2576981 9.73719138,15.9936981 9.73719138,15.7306981 C9.73719138,15.5986981 9.74125992,15.4666981 9.74939699,15.3366981 C9.75753406,15.1986981 9.76668826,15.0886981 9.78499667,14.9506981 C9.85619603,14.4106981 9.9579094,13.8776981 10.0931882,13.3606981 C10.3647629,12.3326981 10.7644965,11.3506981 11.3462969,10.5826981 C11.4917471,10.3886981 11.6483857,10.2116981 11.8151956,10.0526981 C11.8568981,10.0136981 11.8986006,9.9756981 11.9423373,9.9376981 C11.9860741,9.9006981 12.0298108,9.8656981 12.0674448,9.8346981 L12.1325413,9.7896981 L12.2067921,9.7356981 L12.3573279,9.6336981 C12.7672328,9.3676981 13.2015489,9.1316981 13.6368821,8.9266981 C14.5055143,8.5206981 15.3955063,8.2256981 16.2031105,8.1586981 C16.6954032,8.1176981 17.0727598,8.1856981 17.3016149,8.2756981 C17.5314871,8.3636981 17.6352348,8.4576981 17.6484575,8.4616981 C17.6647317,8.4686981 17.7145712,8.4676981 17.7288111,8.4656981 C17.8915525,8.4396981 18.0339512,8.4186981 18.1478702,8.3766981 C18.260772,8.3366981 18.344177,8.2736981 18.4021536,8.1946981 C18.5150555,8.0396981 18.4926785,7.7976981 18.4113078,7.6286981 C18.3940165,7.5786981 18.3818109,7.5706981 18.3523141,7.5466981 C18.3319714,7.5366981 18.1214247,7.3566981 17.7166055,7.2036981 C17.515213,7.1276981 17.2711009,7.0636981 16.9974919,7.0296981 C16.7249001,6.9956981 16.4228114,6.9906981 16.1095342,7.0156981 C15.5989331,7.0576981 15.1015547,7.1676981 14.6112962,7.3166981 C14.123072,7.4656981 13.6429849,7.6546981 13.1679835,7.8756981 C12.692982,8.0976981 12.2261176,8.3496981 11.7633218,8.6466981 C11.6483857,8.7216981 11.5314153,8.7986981 11.415462,8.8816981 C11.2832347,8.9786981 11.1713499,9.0746981 11.0625166,9.1746981 C10.8438329,9.3756981 10.6454918,9.5936981 10.464442,9.8256981 C10.1043767,10.2896981 9.81652782,10.7936981 9.57851852,11.3186981 C9.3394921,11.8436981 9.15132236,12.3906981 8.99976943,12.9456981 C8.93375325,13.1867088 8.87478305,13.4297789 8.82252925,13.6746655 L8.82252925,13.6746655 Z M12.2415213,29.8767975 C12.2389979,29.8777726 12.2365751,29.8787405 12.2342547,29.8796981 C12.2210319,29.8836981 12.2210319,29.8856981 12.2200148,29.8886981 L12.2200148,31.2816981 C12.2200148,31.2816981 12.3166425,31.6996981 12.3298653,31.6816981 C12.3990304,31.8486981 12.5282063,31.9576981 12.6522967,31.6866981 C12.7407873,31.5276981 12.8007982,31.3006981 12.8007982,31.3006981 L12.8038496,29.8886981 C12.8007982,29.8856981 12.784524,29.8786981 12.7794384,29.8776981 C12.7179593,29.858366 12.6588557,29.8465791 12.6034391,29.8403007 C12.605497,29.836513 12.6075426,29.8326457 12.609577,29.8286981 C12.6685708,29.7326981 12.7001019,29.6146981 12.6990848,29.6156981 C12.6990848,29.6156981 12.6583995,29.4516981 12.6289026,29.2816981 C12.6126284,29.1966981 12.5994057,29.1116981 12.5933029,29.0496981 C12.5851658,28.9876981 12.5841487,28.9546981 12.5841487,28.9546981 C12.5810973,28.9536981 12.563806,28.9516981 12.5597375,28.9516981 C12.4336129,28.9446981 12.3176597,28.9356981 12.2230662,28.9406981 C12.1294899,28.9436981 12.0552392,28.9596981 12.0135367,28.9726981 C12.0003139,28.9766981 12.0003139,28.9806981 12.0003139,28.9806981 C12.0003139,28.9856981 12.0043825,29.0456981 12.0135367,29.1186981 C12.0216737,29.1926981 12.0379479,29.2856981 12.0532049,29.3776981 C12.0877874,29.5616981 12.1325413,29.7446981 12.1335584,29.7456981 C12.1323139,29.7456981 12.1919794,29.8213016 12.2415213,29.8767975 L12.2415213,29.8767975 Z M20.9409194,28.8396981 C20.9409194,28.8396981 20.9409194,28.8386981 20.9541421,28.8426981 C20.9765191,28.8446981 21.0019474,28.8496981 21.0395814,28.8506981 C21.0741639,28.8516981 21.1168835,28.8496981 21.1646888,28.8476981 C21.2124941,28.8456981 21.2664022,28.8476981 21.3203103,28.8626981 C21.3752355,28.8776981 21.4352464,28.9146981 21.4810174,28.9816981 C21.4850859,28.9866981 21.4952573,29.0106981 21.4952573,29.0196981 C21.493223,29.0236981 21.4688118,29.0926981 21.4311779,29.1586981 L21.3813383,29.2496981 C21.3681156,29.2726981 21.364047,29.2896981 21.3660813,29.2846981 C21.364047,29.2726981 21.3660813,29.3216981 21.3742184,29.3736981 L21.3874411,29.4676981 C21.3915096,29.5006981 21.3955782,29.5626981 21.3955782,29.5866981 L21.4037153,29.9796981 L21.4352464,31.0456981 C21.4372807,31.0456981 21.3874411,31.3966981 21.3020019,31.6426981 C21.180963,32.0586981 21.0497527,31.8906981 20.9785534,31.6386981 C20.968382,31.6666981 20.8554802,31.0336981 20.8554802,31.0336981 L20.8208976,29.9796981 L20.8117434,29.5896981 L20.8117434,29.5576981 L20.8076749,29.5276981 L20.7954693,29.4436981 C20.7893665,29.3816981 20.7741095,29.3156981 20.7873322,29.2036981 C20.8036064,29.1006981 20.839206,29.0316981 20.8646344,28.9826981 L20.9185425,28.8846981 C20.9409194,28.8456981 20.9388851,28.8426981 20.9409194,28.8396981 Z M16.8245792,28.8896981 C16.830682,28.8636981 16.8327163,28.8546981 16.8286477,28.8446981 C16.8225449,28.8396981 16.8398362,28.8536981 16.8723845,28.8486981 C16.8876415,28.8486981 16.9059499,28.8456981 16.9273097,28.8426981 C16.9476524,28.8376981 16.9710465,28.8326981 16.9954577,28.8256981 L17.0249545,28.8166981 L17.0086804,28.8226981 C16.9995262,28.8266981 16.9873206,28.8326981 16.9771493,28.8366981 L16.9039156,28.8736981 C16.8540761,28.8966981 16.7940652,28.9216981 16.7269344,28.9336981 C16.693369,28.9396981 16.6577693,28.9426981 16.6160668,28.9306981 C16.5957241,28.9246981 16.5743643,28.9166981 16.5499531,28.8866981 C16.5458846,28.8796981 16.5397818,28.8736981 16.5346961,28.8616981 C16.5306276,28.8476981 16.526559,28.8326981 16.5224905,28.8146981 C16.5204562,28.7966981 16.5224905,28.7626981 16.5285933,28.7346981 C16.5326618,28.7136981 16.541816,28.6906981 16.5519874,28.6696981 C16.5621587,28.6486981 16.5804671,28.6256981 16.6018269,28.6016981 C16.6140325,28.5896981 16.6435294,28.5626981 16.6750605,28.5436981 C16.693369,28.5336981 16.7147288,28.5236981 16.7371057,28.5156981 C16.7604998,28.5086981 16.7727054,28.5066981 16.7910138,28.5026981 C16.8327163,28.4956981 16.8540761,28.4946981 16.876453,28.4946981 C16.9039156,28.4986981 16.9120527,28.4986981 16.9232412,28.4996981 C16.9415496,28.5026981 16.9852863,28.5166981 17.0188517,28.5346981 C17.0544514,28.5516981 17.0849654,28.5706981 17.1124281,28.5906981 C17.1704047,28.6296981 17.2293984,28.6786981 17.2975464,28.7326981 C17.3646772,28.7896981 17.4399451,28.8516981 17.5192815,28.9166981 C17.5599669,28.9456981 17.6006522,28.9766981 17.6393033,29.0026981 C17.6565946,29.0146981 17.674903,29.0266981 17.6881257,29.0336981 L17.7023656,29.0416981 L17.6982971,29.0476981 L17.6921943,29.0606981 C17.6840572,29.0786981 17.6789715,29.0976981 17.6728687,29.1146981 C17.6647317,29.1306981 17.6586289,29.1466981 17.6545603,29.1666981 C17.6484575,29.1776981 17.644389,29.1936981 17.6423547,29.2086981 L17.6830401,29.0296981 L17.7338968,29.0516981 C17.9800431,29.1566981 18.3228172,29.1676981 18.564895,29.1236981 C18.8130756,29.0826981 18.9656457,28.9996981 18.9656457,28.9996981 C18.9656457,28.9996981 19.0470164,28.9866981 19.1568668,28.9536981 C19.2657002,28.9206981 19.4009789,28.8656981 19.5159151,28.8026981 C19.7010334,28.6866981 19.7905412,28.6356981 19.8444492,28.6886981 C19.8932717,28.7386981 19.8922545,28.8876981 19.8139352,29.0476981 C19.8322436,29.0396981 19.728496,29.2236981 19.5698231,29.3746981 C19.4152188,29.5276981 19.2219634,29.6406981 19.2219634,29.6406981 C19.2219634,29.6406981 18.9992111,29.7496981 18.6594885,29.8036981 C18.3238343,29.8596981 17.8712098,29.8536981 17.4663906,29.6866981 L17.515213,29.7036981 C17.4287566,29.6796981 17.3870542,29.6546981 17.3443345,29.6326981 C17.3056835,29.6106981 17.2711009,29.5896981 17.241604,29.5686981 C17.1815931,29.5286981 17.1327707,29.4906981 17.0849654,29.4536981 C16.9913891,29.3796981 16.914087,29.3146981 16.8500075,29.2626981 C16.7869453,29.2116981 16.7350714,29.1706981 16.7106602,29.1546981 L16.6994718,29.1466981 L16.6974375,29.1456981 L16.7228658,29.1036981 L16.7686369,29.0206981 C16.8164421,28.9276981 16.8225449,28.8946981 16.8245792,28.8896981 Z M17.0625885,26.8626981 C17.0625885,26.8636981 17.0625885,26.8676981 17.0452972,26.8706981 C16.9934234,26.8816981 16.9059499,26.9056981 16.7910138,26.9166981 C16.6791291,26.9256981 16.5367304,26.9256981 16.3933145,26.8106981 C16.3872117,26.8066981 16.3699204,26.7896981 16.3699204,26.7776981 C16.3699204,26.7776981 16.3750061,26.7076981 16.4075544,26.5996981 C16.4390855,26.4956981 16.5062163,26.3476981 16.6242039,26.2146981 C16.7411742,26.0826981 16.9018814,25.9656981 17.0747941,25.8826981 C17.2477068,25.7996981 17.4358766,25.7426981 17.6209949,25.7076981 C17.994283,25.6356981 18.3635025,25.6456981 18.6381286,25.6856981 C18.9137719,25.7236981 19.0948217,25.7896981 19.0948217,25.7896981 C19.0948217,25.7896981 19.2097578,25.8376981 19.3511394,25.9386981 C19.492521,26.0366981 19.6572966,26.1976981 19.7305303,26.3736981 C19.8027468,26.5136981 19.8007125,26.6236981 19.7803698,26.6796981 C19.7600271,26.7396981 19.7264617,26.7576981 19.6908621,26.7526981 C19.6196627,26.7406981 19.5362577,26.6666981 19.4284416,26.6096981 C19.4325101,26.6236981 19.3216425,26.5416981 19.1680553,26.4986981 C19.0215881,26.4486981 18.8527439,26.4316981 18.8527439,26.4316981 C18.8527439,26.4326981 18.7235679,26.3886981 18.5130212,26.3616981 C18.3045088,26.3326981 18.0125914,26.3286981 17.7420338,26.3836981 C17.606755,26.4106981 17.4796133,26.4516981 17.3768828,26.5036981 C17.2731352,26.5536981 17.1978673,26.6136981 17.1520963,26.6666981 C17.0646228,26.7706981 17.066657,26.8566981 17.0625885,26.8626981 Z M16.3455092,28.3526981 C16.3414407,28.3546981 16.3414407,28.3556981 16.3261837,28.3456981 C16.2824469,28.3176981 16.2041276,28.2696981 16.115637,28.1996981 C16.0281635,28.1296981 15.9244159,28.0276981 15.9284844,27.8356981 C15.9284844,27.8356981 15.9325529,27.8016981 15.94069,27.7926981 C15.9457757,27.7896981 16.0057866,27.7446981 16.1034314,27.6946981 C16.2000591,27.6446981 16.3322865,27.5926981 16.4868908,27.5466981 C16.7940652,27.4546981 17.1856617,27.3926981 17.5711554,27.3536981 C18.344177,27.2776981 19.0948217,27.2806981 19.096856,27.2776981 C19.096856,27.2776981 19.5901658,27.3436981 19.9298885,27.4506981 C20.5055862,27.5986981 20.2746968,27.7506981 19.9156486,27.8326981 C19.9512483,27.8436981 19.0632905,27.9606981 19.0653248,27.9646981 C19.0673591,27.9666981 18.3360399,27.9676981 17.6230292,28.0406981 C17.2670324,28.0756981 16.9201898,28.1346981 16.6831976,28.2076981 C16.5662272,28.2416981 16.4767195,28.2786981 16.4248456,28.3066981 C16.3709376,28.3346981 16.3475435,28.3506981 16.3455092,28.3526981 Z M17.8579871,24.5096981 C17.8356101,24.5066981 17.8274731,24.5036981 17.8020447,24.4726981 C17.712537,24.3776981 17.5935323,24.2286981 17.545727,24.0436981 C17.5213158,23.9496981 17.5192815,23.8456981 17.5711554,23.7356981 C17.6230292,23.6246981 17.7318625,23.5066981 17.9312207,23.4066981 C17.9444434,23.3986981 18.0125914,23.3766981 18.0461568,23.3766981 C18.0685338,23.3816981 18.3106116,23.4166981 18.6716941,23.5256981 C19.0317594,23.6366981 19.5057437,23.8276981 20.0285505,24.0996981 C20.4781236,24.3326981 21.0436499,24.6706981 21.5623881,25.0316981 C22.0851948,25.3926981 22.5571449,25.7696981 22.8653364,26.0636981 C22.915176,26.1106981 22.9568785,26.1526981 23.006718,26.2046981 C23.0799516,26.2816981 23.1480996,26.3626981 23.2131962,26.4376981 L23.2904983,26.7246981 L23.3281323,26.8686981 L23.3861089,27.0976981 L23.4359484,27.2896981 C23.4339142,27.2906981 23.5152849,27.7246981 23.592587,28.3206981 C23.6698892,28.9166981 23.7400714,29.6706981 23.7319344,30.2996981 C23.7421057,30.8326981 23.6983689,31.1796981 23.6424266,31.3786981 C23.5864842,31.5766981 23.5254562,31.6256981 23.4695139,31.5716981 C23.3586463,31.4626981 23.2467616,30.9576981 23.0880887,30.3436981 C23.0860544,30.4096981 22.9294158,29.6706981 22.7188692,28.9216981 C22.5144253,28.1716981 22.2692961,27.4166981 22.2692961,27.4166981 L22.1584285,26.9856981 L22.1563942,26.9846981 C22.1330001,26.9596981 22.0923148,26.9206981 22.0567151,26.8866981 C21.8268429,26.6666981 21.3915096,26.3116981 20.9063369,25.9776981 C20.4242155,25.6416981 19.8932717,25.3246981 19.4843839,25.1136981 C19.0154853,24.8696981 18.6086318,24.7086981 18.3228172,24.6236981 C18.0359855,24.5336981 17.8732441,24.5126981 17.8579871,24.5096981 Z M14.4739832,23.7196981 C14.5024629,23.7076981 14.5126342,23.7036981 14.5604395,23.7136981 C14.7211467,23.7326981 14.9316933,23.8086981 15.043578,23.9676981 C15.1564799,24.1256981 15.1676684,24.3586981 15.0059441,24.6936981 C14.9998413,24.7076981 14.9693273,24.7546981 14.9479675,24.7686981 C14.9316933,24.7766981 14.7608149,24.8476981 14.4831374,24.9936981 C14.2054599,25.1396981 13.8230176,25.3676981 13.3693759,25.6726981 C13.0357561,25.8946981 12.5933029,26.2076981 12.1437298,26.4996981 C11.9189432,26.6446981 11.6941567,26.7856981 11.4856443,26.9066981 L11.3320571,26.9946981 L11.2588234,27.0356981 L11.2415322,27.0456981 L11.2354294,27.0496981 L11.2333951,27.0506981 C11.1977954,26.9726981 11.3106973,27.2216981 11.1540587,26.8786981 L11.1540587,26.8806981 L11.1520244,26.8966981 C11.1520244,26.9166981 11.1398188,26.9406981 11.1652471,26.9516981 C11.1835555,26.9656981 11.2038982,26.9726981 11.217121,26.9946981 C11.225258,27.0046981 11.2333951,27.0116981 11.2415322,27.0206981 L11.2527206,27.0336981 C11.2567892,27.0396981 11.2547549,27.0356981 11.2547549,27.0356981 C11.2547549,27.0356981 11.2506864,27.0406981 11.2486521,27.0436981 C11.2415322,27.0526981 11.2293266,27.0666981 11.2191552,27.0846981 C11.1733842,27.1566981 11.1255789,27.2686981 11.0920135,27.3696981 C11.0564138,27.4716981 11.0299684,27.5666981 11.0086085,27.6466981 C10.9689403,27.8046981 10.9506319,27.8996981 10.9506319,27.8996981 C10.9506319,27.8996981 10.8356958,28.2896981 10.7207597,28.8526981 C10.6017551,29.4166981 10.4786819,30.1426981 10.3667972,30.7486981 C10.2772894,31.2966981 10.20609,31.6416981 10.1369249,31.8266981 L10.1287879,31.7906981 C10.1287879,31.7906981 10.1287879,31.8006981 10.1267536,31.8016981 C10.1165823,31.8096981 10.0982739,31.8216981 10.0911539,31.8326981 C10.0870854,31.8356981 10.0850511,31.8376981 10.0830169,31.8436981 L10.0830169,31.8456981 L10.0809826,31.8396981 C10.0789483,31.8346981 10.0748798,31.8296981 10.0708112,31.8266981 L10.0606399,31.8126981 L10.0555542,31.8046981 L10.0555542,31.8056981 C10.0555542,31.8056981 10.0555542,31.8076981 10.0565714,31.8076981 C10.0606399,31.8056981 10.0667427,31.8026981 10.0728455,31.8006981 C10.0972567,31.7906981 10.1186165,31.7846981 10.1389592,31.7846981 C10.1786274,31.7866981 10.197953,31.7906981 10.2101586,31.8076981 C10.2243984,31.8246981 10.2223642,31.8516981 10.2142271,31.8776981 C10.2121928,31.8916981 10.2101586,31.9066981 10.2040558,31.9276981 C10.2020215,31.9336981 10.197953,31.9416981 10.182696,31.9596981 C10.1806617,31.9616981 10.1704904,31.9686981 10.1623533,31.9746981 C10.1521819,31.9806981 10.1481134,31.9846981 10.1267536,31.9926981 C10.1084452,31.9986981 10.0911539,32.0016981 10.068777,31.9996981 C10.0494514,31.9996981 10.0209717,31.9906981 10.0097832,31.9846981 C9.99757762,31.9796981 9.98537201,31.9726981 9.97520068,31.9646981 C9.96604647,31.9576981 9.96401221,31.9546981 9.9579094,31.9496981 L9.94366953,31.9346981 L9.93553246,31.9266981 L9.91010412,31.8966981 L9.89179571,31.8226981 C9.81652782,31.5976981 9.75549979,31.1716981 9.72295151,30.6796981 C9.70972877,30.7486981 9.67921476,29.9706981 9.7015917,29.1666981 C9.71379731,28.7636981 9.73922565,28.3536981 9.77279106,28.0406981 C9.80635648,27.7266981 9.84704183,27.5106981 9.84704183,27.5106981 C9.84805896,27.5106981 9.86636737,27.4196981 9.91417265,27.2496981 C9.93756673,27.1666981 9.96808074,27.0596981 10.015886,26.9336981 C10.0626742,26.8066981 10.1186165,26.6616981 10.2294841,26.4816981 C10.2620324,26.4326981 10.2976321,26.3786981 10.3474716,26.3206981 C10.3729,26.2906981 10.3983283,26.2596981 10.4329109,26.2266981 C10.4481679,26.2116981 10.464442,26.1956981 10.4837675,26.1786981 L10.5142816,26.1546981 C10.5214015,26.1466981 10.5397099,26.1326981 10.5539498,26.1236981 L10.5997208,26.0926981 L10.6210806,26.0786981 L10.6373547,26.0686981 L10.6749887,26.0466981 L10.7400852,26.0106981 L10.8773983,25.9306981 C11.0665852,25.8206981 11.2750976,25.6916981 11.4876785,25.5526981 C11.9128404,25.2766981 12.3593621,24.9606981 12.7123075,24.7256981 C13.1832405,24.4076981 13.6114538,24.1506981 13.9298166,23.9826981 C14.2502137,23.8146981 14.4546576,23.7286981 14.4739832,23.7196981 Z M14.130192,19.5296981 C14.1251063,19.5266981 14.1240892,19.5256981 14.1251063,19.5096981 C14.1251063,19.4616981 14.138329,19.3836981 14.1790144,19.2986981 C14.2196997,19.2156981 14.2908991,19.1236981 14.4190579,19.0576981 C14.4241436,19.0546981 14.4434691,19.0476981 14.4495719,19.0496981 L14.7750547,19.2636981 C14.9581388,19.3816981 15.1829254,19.5146981 15.4199175,19.5476981 C15.6955608,19.6016981 15.9447585,19.5976981 16.0993629,19.5456981 C16.2560015,19.4986981 16.343475,19.4226981 16.343475,19.4226981 C16.343475,19.4226981 16.41264,19.3946981 16.5102849,19.3346981 C16.609964,19.2736981 16.7350714,19.1776981 16.845939,19.0956981 C17.0249545,18.9496981 17.1144623,18.9206981 17.1480277,18.9706981 C17.1836274,19.0206981 17.1622676,19.1466981 17.104291,19.2866981 C17.1185309,19.2776981 17.043263,19.4376981 16.929344,19.5976981 C16.8245792,19.7606981 16.6577693,19.9096981 16.655735,19.9076981 C16.655735,19.9076981 16.6181011,19.9336981 16.5479188,19.9746981 C16.4787537,20.0136981 16.3709376,20.0656981 16.2366759,20.1016981 C16.1034314,20.1406981 15.9427243,20.1606981 15.7820171,20.1586981 C15.6223271,20.1586981 15.4545001,20.1376981 15.30193,20.1096981 C15.1259659,20.0826981 14.9540703,20.0166981 14.8126887,19.9476981 C14.67029,19.8796981 14.5502682,19.8046981 14.4516062,19.7416981 L14.130192,19.5296981 Z M16.6496322,13.5396981 C16.6221696,13.2716981 17.05852,13.0036981 17.3026321,13.0556981 C17.5477613,13.1106981 17.9210494,13.6156981 17.8122161,13.9096981 C17.7023656,14.1776981 17.1663361,14.3156981 16.9496867,14.1006981 C16.7869453,13.9406981 16.6770948,13.7266981 16.6496322,13.5396981 Z M13.8769257,13.7106981 C13.2412171,13.9816981 13.7619895,14.8356981 14.3224302,14.6496981 C14.8849052,14.4606981 15.2337821,13.7956981 13.9623649,13.6286981 L13.8769257,13.7106981 Z M13.8769257,13.7106981" id="dude--body-grey" fill="#67737B" sketch:type="MSShapeGroup"></path>
    </g>
</svg>