<?xml version="1.0" encoding="UTF-8" standalone="no"?>
<svg width="32px" height="32px" viewBox="0 0 32 32" version="1.1" xmlns="http://www.w3.org/2000/svg" xmlns:xlink="http://www.w3.org/1999/xlink" xmlns:sketch="http://www.bohemiancoding.com/sketch/ns">
    <title>dude-map--body-grey</title>
    <description>Created with Sketch (http://www.bohemiancoding.com/sketch)</description>
    <defs></defs>
    <g id="Brand" stroke="none" stroke-width="1" fill="none" fill-rule="evenodd" sketch:type="MSPage">
        <path d="M9.72493045,17.812581 C10.0014048,17.5216712 10.0440155,17.3500344 10.0608616,17.3083373 C10.0955448,17.2685797 10.1203184,17.2957313 10.1371646,17.3083373 C10.317517,17.4334286 10.4909328,17.8290659 10.8684837,17.8979145 C11.2054058,17.9774298 11.4640431,17.8979145 11.4640431,17.8979145 C11.4640431,17.8979145 11.7722277,17.9037327 11.898078,17.8610659 C12.0952765,17.7873688 12.1656338,17.8203386 12.1854527,17.8465204 C12.2260816,17.8979145 12.2112174,18.0162178 12.1329325,18.1325817 C11.9476254,18.4167036 11.4551245,18.7464014 10.5216521,18.4584007 C10.0895991,18.3236125 9.72493045,17.812581 9.72493045,17.812581 Z M10.4096751,16.1417891 C10.3611187,16.1379103 10.2669787,16.1340315 10.1599563,16.1243345 C10.0549159,16.1117284 9.86267214,16.0739102 9.78934203,15.9430008 C9.83492561,15.7917277 9.96374877,15.6191212 10.0777077,15.5299089 C10.2659877,15.3582721 10.6534481,15.2719689 10.9309134,15.2719689 C11.2281976,15.2671204 11.8188022,15.36506 12.0496929,15.5337877 C12.3400405,15.7471215 12.5501214,16.1553649 12.4193163,16.3405775 C12.387606,16.3832442 12.3588685,16.4036079 12.2805837,16.3696684 C11.9664534,16.1233648 11.7216894,16.0894253 11.7216894,16.0894253 C11.7216894,16.0894253 11.635477,16.0419101 11.4868348,15.9953645 C11.0151439,15.8411823 10.4998513,15.9013037 10.4096751,16.1417891 Z M9.09072415,17.0814277 C9.02829446,17.0494276 8.80136752,16.9010636 8.80334941,16.7342754 C8.80533131,16.5965781 8.97181046,16.4530626 8.98964752,16.4462747 C9.00252983,16.445305 9.14027152,16.4181534 9.34837046,16.4094261 C9.63772709,16.3813048 10.5018332,16.4433656 10.8902845,16.5034869 C11.3163919,16.5703962 12.236982,16.8215483 12.5739041,16.9311243 C13.7184483,17.2753676 13.2229746,17.3316101 12.4867007,17.2763373 C12.5055287,17.2840949 11.4917896,17.1919734 10.5682267,17.1134278 C9.89735529,17.0562155 9.57133361,17.0077306 9.09072415,17.0814277 Z M26.7850801,16.8186392 C26.7018405,16.2271226 26.4630222,14.6174218 26.3143801,14.0036022 C26.4204115,13.888208 26.4689679,13.7214197 26.4332938,13.6234801 C26.3758188,13.4615403 26.1706927,13.4159644 25.9606119,13.3713583 C25.9616028,13.275358 25.9170102,13.2065094 25.9170102,13.2065094 C26.0388967,12.3764468 25.9705214,11.460081 25.8198974,10.9015342 C25.6415269,10.2431084 25.4294641,9.80286491 24.7952578,9.34225776 C23.7507993,8.58686202 22.2197856,8.48892239 21.1148793,8.88649909 C20.7076,9.03001459 20.2349181,9.21716655 19.8286297,9.64286453 C19.7642181,9.71171318 19.4411693,10.0598352 19.4679248,10.4351088 C19.2003691,10.2818964 18.1420373,9.38977302 16.961819,9.06007526 C17.2174834,9.02031759 17.4820663,8.97668113 17.5732335,8.70807443 C17.8229522,7.98079997 16.2473459,7.57546567 15.1989236,7.74322364 C14.4993148,7.85473906 13.8660994,7.97692117 13.1536083,8.28625524 C11.9951908,8.78758977 10.8536195,9.34807595 10.0767168,10.3488056 C9.49106688,11.1042013 9.06793236,12.1621433 9.06793236,12.1621433 C9.06793236,12.1621433 7.24855302,11.9808095 7.31395554,12.0079611 C6.9720787,11.9905065 6.6728126,11.9905065 6.50336061,12.0186278 C6.50336061,12.0195975 6.47363219,11.8334152 6.44588566,11.8101424 C6.00194125,11.4338991 5.75222251,11.7558393 5.67393767,11.9488094 C5.65907346,11.9779004 5.66105536,11.9846883 5.6640282,12.0031126 C5.6640282,12.0031126 6.13373724,14.4545124 6.2794065,15.3388781 C6.59452776,17.2627615 6.6163286,17.6341563 6.69560439,18.1209453 C6.29129787,18.1616727 5.97914946,18.3333095 5.79978798,18.5699161 C5.68880188,18.7182801 5.54412357,19.0247051 5.50250378,19.3127058 C5.50250378,19.3127058 5.19431915,19.4348879 5.08036021,19.7267674 C4.95649179,20.043859 4.96640126,20.4297993 5.1764821,21.0494372 C5.37962631,21.6525901 6.01185072,22.5699256 6.33985429,22.8996234 C6.63812945,23.1992605 6.91559471,23.2991395 7.30206417,23.2768364 C7.41205933,24.3619299 7.61718543,26.7493295 7.61718543,26.7493295 C7.61718543,26.7493295 7.91744248,28.9301832 7.92338816,28.882668 C8.00563679,29.3723661 8.10869532,29.7650943 8.19788058,29.7767307 C8.16022458,29.9580645 8.33364037,30.0492162 8.44561742,30.0812163 C8.49021005,30.0986709 8.87568857,29.9832766 9.42269151,29.8746703 C9.80916098,29.7970944 10.6227288,29.666185 11.1281119,29.608003 C11.1162205,29.7069123 10.9685694,30.7590361 10.9685694,30.7590361 C10.9655965,30.7580664 11.0795555,31.2787949 11.108293,31.2574615 C11.2499984,31.5483713 11.5135904,31.5260682 11.6800696,31.2758858 C11.8515035,31.0887338 11.9951908,30.8181877 11.9951908,30.8181877 C11.9951908,30.8181877 12.16167,29.6429122 12.1765342,29.5003664 C12.1765342,29.5003664 13.9969045,29.2918811 14.4101295,29.2676386 C15.0681186,29.1667898 15.4892712,29.0261835 14.4101295,28.9699409 C13.6907018,28.9330923 12.5521033,28.8972134 11.4749435,29.0310319 C10.8347915,29.111517 9.05108625,29.3219417 8.29796626,29.5905484 C8.44660837,28.7139403 8.44066268,26.7919963 8.43967174,26.792966 L8.24247321,24.4899302 C8.20382627,24.0758686 8.10869532,23.1691998 8.11365006,23.1682301 C8.50606521,23.1226542 8.99262036,23.1895635 9.29188646,22.9548963 C9.69421109,22.6436228 9.72493045,22.1839853 9.73483993,21.768954 C9.74177656,21.4954988 9.71502098,21.223983 9.67736498,20.9524672 C9.6714193,20.9127096 9.66547361,20.8739216 9.65952793,20.8351336 L9.71105719,20.8525882 C10.4076932,21.014528 11.5542193,21.2782862 12.0705028,21.4062865 L12.4896736,21.5090746 L13.2309022,21.6554992 C13.5975527,21.7253176 13.9542938,21.8009541 13.9265472,21.7873783 C14.2287862,21.8397421 14.4824687,21.8707725 14.5478712,21.8348936 C14.6132738,21.8019238 14.4903963,21.7010751 14.0296058,21.5081049 C13.4915213,21.2676195 12.6947997,21.0096795 12.6947997,21.0096795 L12.2022988,20.8884671 C11.654305,20.7527092 10.5226431,20.4918601 9.83789845,20.3318597 L9.5188134,20.2057988 C9.47422077,20.0196165 9.2948593,19.7083431 9.19279172,19.5745246 C8.96685573,19.2826451 8.59723237,19.1624024 8.25436458,19.1323417 C8.00464585,19.1100386 7.75096332,19.0605839 7.65583238,19.0984022 C7.78168269,18.9684625 7.63304059,18.5136736 7.4992627,18.389552 L7.55673764,18.389552 C7.37539428,16.8545181 7.09297428,15.2389991 7.09297428,15.2389991 C6.97802439,14.4506336 6.54398945,12.2232343 6.54398945,12.2232343 C6.94036839,12.4026287 9.27206751,12.9805695 9.27206751,12.9805695 C14.4487765,13.9221475 17.5900796,14.1684511 19.3995495,14.2120875 C21.2080284,14.2615422 22.9550686,14.1490571 24.3721233,13.9657839 C24.6456248,13.9308748 24.8874159,13.897905 25.0905601,13.8649352 C25.0301123,14.0899054 24.9438999,14.4011789 24.8368776,14.7706343 C24.6931902,15.2709992 23.9460159,17.8203386 23.8479121,18.2033698 L23.6903515,18.8278561 C23.6903515,18.8278561 23.32271,20.8196184 23.3177553,21.340347 C23.2771265,21.391741 23.2137058,21.5362262 23.2166787,21.5556202 C23.2226244,21.5837415 23.3286557,22.133561 23.5635103,22.8841082 C23.8211566,23.7422921 24.8021944,26.315874 24.8021944,26.315874 C24.8021944,26.3168437 25.8803452,28.8099405 26.053761,29.0000016 C25.9170102,28.9573348 25.6752191,28.9127286 25.3016319,28.863274 C24.4315801,28.7294555 23.1899231,28.605334 23.1889322,28.605334 C23.1889322,28.605334 20.0981674,28.5093337 19.1310027,28.5151519 C17.7615135,28.5248489 15.8816864,28.6130916 15.8489851,28.6383037 C15.3485567,29.0320016 15.7013339,29.3423054 15.8985325,29.4344268 C15.926279,29.4528511 16.4891371,29.3830328 17.2650489,29.3481236 C18.016187,29.3141841 20.1923074,29.320972 20.3032935,29.3229114 C20.4449989,29.8979431 20.5609398,30.3032774 20.5599488,30.3032774 C20.5599488,30.3032774 21.1327164,31.5726138 21.1346983,31.5415834 C21.4260368,32.0438876 21.7629589,32.3105549 21.7183663,31.3883709 C21.7223301,30.8375817 21.6281901,30.0870345 21.6281901,30.0870345 C21.630172,30.0870345 21.5459414,29.7912762 21.4319825,29.350063 C21.8085425,29.3607297 23.0541633,29.4014571 23.0541633,29.4014571 C23.0541633,29.4014571 24.9567822,29.3481236 25.2649669,29.3064265 C25.7277393,29.2676386 26.1082631,29.1987899 26.185557,29.121214 C26.204385,29.10182 26.2360953,28.7789101 26.1221363,28.1718784 C25.9576391,27.299149 25.6028799,26.1345402 25.6048618,26.1345402 C25.6048618,26.1345402 25.0221848,24.6053244 24.8329138,24.0807171 C25.6653096,23.6472615 26.1736656,22.9655629 26.3778007,22.6193803 C26.7147228,22.0453183 26.90003,21.2598619 26.955523,20.6799817 C27.0615544,19.5493124 26.9674144,18.1131877 26.7850801,16.8186392 C26.7850801,16.8186392 26.9674144,18.1131877 26.7850801,16.8186392 Z M6.77785302,18.6513708 C7.18711428,18.634886 7.34368396,18.8394925 7.45169722,18.9713716 C7.49232607,19.0208263 7.5725928,19.121675 7.64394101,19.1061598 C7.59736648,19.2079782 8.11563195,19.3931908 8.19688963,19.4242212 C8.415889,19.5056759 8.65074352,19.5948882 8.78253952,19.795616 C8.9410911,20.0351317 8.99361131,20.350284 9.06495952,20.6053149 C9.1442353,20.8865277 9.16009046,21.1706496 9.17990941,21.4634988 C9.20567404,21.8484694 9.24333004,22.5883499 8.75182015,22.5941681 C8.641825,22.5970772 7.88275932,22.6378046 7.47547996,22.7250775 C7.36350291,22.7502897 7.12567554,22.7725928 6.97108776,22.7076229 C6.81352713,22.6426531 6.70155008,22.4981679 6.59155492,22.3759858 C6.37651934,22.1364701 5.96725809,21.4683473 5.89491893,21.3364682 C5.73141262,21.0358614 5.5887162,20.656709 5.55304209,20.3047081 C5.53916883,20.1718593 5.53124125,20.0302832 5.59862567,19.9090708 C5.67988336,19.7636159 5.88005472,19.81501 6.0009503,19.7267674 C6.02275114,19.7102825 6.01482356,19.5735549 6.04257009,19.3931908 C6.09905409,19.0324627 6.27544271,18.6707648 6.77785302,18.6513708 C6.77785302,18.6513708 6.27544271,18.6707648 6.77785302,18.6513708 Z M19.4897257,13.4130553 C17.752595,13.3752371 15.9540255,13.1909942 14.3328356,12.9679634 C12.7106548,12.7439628 11.2618898,12.4966895 10.2154494,12.3260224 L10.1817572,12.3221436 C10.4948965,11.6132935 10.9398319,10.7803218 11.6562868,10.2935327 C12.3628323,9.81256191 13.2507211,9.33353046 14.1068997,9.07656015 C14.8421826,8.85546872 15.9877177,8.53837705 16.7586748,9.03195399 C16.6575981,9.03777218 16.6684986,9.13474211 16.8042584,9.26856061 C17.2234291,9.6797131 17.9111465,10.1820173 18.7356147,11.0188678 C19.2895543,11.5842025 20.3023025,12.6819021 20.6857991,13.4130553 C20.2884292,13.4188735 19.897005,13.4217826 19.4897257,13.4130553 C19.4897257,13.4130553 19.897005,13.4217826 19.4897257,13.4130553 Z M21.874936,13.3810553 C21.6430543,12.8874783 21.3427972,12.4055378 21.0583953,12.0254157 C21.0583953,12.0254157 20.6828263,11.5037175 20.2468095,11.0945044 C20.5867044,11.0935347 21.1128974,10.6057759 21.4210821,10.3759572 C21.5102673,10.3080782 21.6034164,10.2450478 21.7005292,10.1878355 C22.0879896,9.9560774 22.6320197,9.79316792 23.530809,10.2731691 C23.3524385,10.3158358 22.5606715,10.6329275 22.2782515,11.0111102 C22.0315056,11.3446868 22.0879896,11.7509908 22.3575273,12.1165674 C22.7697614,12.6760839 23.3266738,12.9165693 23.7071976,12.8525692 C23.8716949,12.8244479 24.1669972,12.5907503 24.2046532,12.5529321 C24.246273,12.6964476 24.2878928,12.8874783 24.3711323,13.156085 C23.7309804,13.2423883 22.7330964,13.3374188 21.874936,13.3810553 C21.874936,13.3810553 22.7330964,13.3374188 21.874936,13.3810553 Z M24.4880641,13.1396001 C24.5207654,12.7061446 24.5267111,12.2455374 24.5138288,12.0903855 L24.4989646,11.7975363 C24.4989646,11.7975363 24.227445,11.9905065 24.1214136,12.0690521 C24.0411469,12.1282038 23.7022429,12.3580225 23.6130576,12.3619013 C23.4267595,12.3657801 23.0759642,12.1611736 22.8470553,11.8828699 C22.7747162,11.7955969 22.551753,11.4649295 22.5765267,11.3146261 C22.6260741,11.0091708 23.2959545,10.4001997 23.5575646,10.2857752 C23.623958,10.3148661 23.6368404,10.3197146 23.6279218,10.3032297 C23.6229671,10.2954721 23.6130576,10.2818964 23.6011663,10.2673509 C23.642786,10.2498963 23.6754873,10.2392296 23.6903515,10.2353508 C23.6764783,10.2382599 23.5962115,10.2576539 23.5942296,10.2576539 C23.5744107,10.2334114 23.4505423,10.102502 23.2880269,9.98807748 C23.003625,9.78734972 22.4447307,9.50128844 21.7322395,9.73595566 C21.2298292,9.89983484 20.5926501,10.3711087 20.4707636,10.4525634 C20.2963568,10.569897 20.1387962,10.6125638 20.047629,10.4389876 C19.992136,10.3177752 20.1278958,10.1063808 20.3815783,9.86977416 C20.7363375,9.53716731 21.3259511,9.2831061 21.6390905,9.19680286 C23.0620909,8.80892315 24.1055585,9.33740926 24.3651867,9.45765197 C25.1103791,9.80577401 25.337306,10.3148661 25.4344189,10.5243212 C25.7366578,11.1759591 25.9249378,12.2057797 25.8823271,13.1512365 C25.8169245,13.0707515 25.7009837,12.9960846 25.6177441,12.9699028 C25.5781062,12.9747513 25.1371347,13.0532969 24.4880641,13.1396001 C24.4880641,13.1396001 25.1371347,13.0532969 24.4880641,13.1396001 Z M26.1558285,20.5141632 C26.0894351,21.1134373 25.9616028,21.678772 25.7227845,22.1461671 C25.48793,22.6155015 25.1391165,22.9849569 24.7635475,23.2739273 C24.7050816,23.3175638 24.6485976,23.3582912 24.5911227,23.3990185 C24.4731999,23.0450783 24.132314,22.0608335 24.0233098,21.401438 L24.0223189,21.4004683 C24.4286073,20.9961037 24.6357153,19.9333133 24.6872446,19.5832519 C24.7645384,19.0760991 24.792285,18.2101577 24.7675113,17.9182782 C24.8586784,17.5798531 24.9706555,17.1813067 25.092542,16.7730633 C25.2768582,16.1456679 25.4809934,15.4901512 25.6266626,14.9897864 C25.695038,14.7512403 25.7564767,14.5379065 25.8060241,14.3536636 C25.9249378,14.3429969 26.1389824,14.1742693 26.2014121,14.1083297 C26.1756475,14.5640884 26.1954664,16.2523348 26.2073578,16.8390029 C26.2162763,17.4237316 26.2311405,18.0404603 26.2321315,18.6649466 C26.2331224,19.2845845 26.222222,19.9168284 26.1558285,20.5141632 Z M23.0333534,16.9408213 C23.1403757,16.4996081 22.6894947,16.1912438 22.1306004,16.1359709 C21.9175467,16.1156072 21.4498195,16.0971829 21.0891147,16.1534255 C21.0821781,16.1534255 21.0415492,16.2513651 21.0346126,16.287244 C20.9563278,16.3124562 20.8552511,16.3890624 20.8552511,16.3890624 C20.8552511,16.3890624 20.9622734,16.8923364 21.1119065,17.3500344 C21.2585667,17.8116113 21.4280187,18.2547638 21.4280187,18.2547638 C21.4260368,18.2557335 21.7163844,18.7628863 21.7193572,18.7357347 C21.8640355,18.9277351 22.0305147,19.0227657 22.005741,18.6377951 C22.0037591,18.4050672 21.9472751,18.0986423 21.9472751,18.0986423 C21.9472751,18.0986423 21.8967368,17.9619147 21.8273705,17.7650657 C22.4635587,17.6370654 22.9431772,17.3102767 23.0333534,16.9408213 C23.0333534,16.9408213 22.9431772,17.3102767 23.0333534,16.9408213 Z M21.7362033,17.5042166 C21.7035021,17.4091861 21.5211678,16.8525787 21.478557,16.6566994 C21.5855793,16.6499115 21.9234924,16.6363357 22.1652835,16.6799722 C22.2832063,16.7013056 22.4734682,16.7468815 22.4893233,16.8147604 C22.5031966,16.8826394 22.156365,17.1454279 22.0166414,17.2705191 C21.8878183,17.3859133 21.7441309,17.4983984 21.7362033,17.5042166 Z M20.4519356,16.6159721 C20.2448276,16.4617899 20.0238463,16.4879718 19.9376339,16.516093 C19.9306973,16.5190021 19.8256568,17.0087003 19.727553,17.4790044 C19.6264764,17.951248 19.5422459,18.4244612 19.5432368,18.4244612 C19.540264,18.4244612 19.5372912,19.0169475 19.5551282,18.9946444 C19.5858476,19.2370692 19.6859333,19.3960999 19.8534034,19.0431294 C19.9673623,18.8385228 20.0743846,18.5437342 20.0743846,18.5437342 C20.0743846,18.5437342 20.0912307,18.4516128 20.1169954,18.3100367 C20.1219501,18.3100367 20.3657231,18.3080973 20.3657231,18.3080973 C20.368696,18.3100367 20.5104015,18.1820364 20.499501,18.1704 C20.5044558,18.160703 20.5876953,18.3245822 20.5876953,18.3245822 C20.5867044,18.3265216 20.9047985,18.7085831 20.9057894,18.6843406 C21.0593863,18.8220379 21.2268564,18.8714926 21.1733452,18.5456736 C21.1535263,18.3468853 21.0792052,18.0947635 21.0792052,18.0947635 C21.0792052,18.0947635 20.8869614,17.7476111 20.7274189,17.3897921 C20.5847225,17.0756095 20.4836459,16.7497906 20.462836,16.6722146 C20.4767092,16.6276084 20.4558994,16.6198509 20.4519356,16.6159721 C20.4519356,16.6159721 20.4558994,16.6198509 20.4519356,16.6159721 Z M20.2220358,17.7805809 C20.2299634,17.7369444 20.2388819,17.6952474 20.2487914,17.6496715 C20.2686103,17.6952474 20.2884292,17.7369444 20.3082482,17.7786415 C20.2904111,17.7796112 20.2587008,17.7805809 20.2220358,17.7805809 Z M17.338379,16.4511232 C17.1104611,16.326032 16.9073169,16.3764563 16.8270501,16.4181534 C16.8131769,16.4239716 16.8131769,16.425911 16.8131769,16.425911 L16.6833628,18.3750066 C16.6823718,18.3759763 16.7457925,18.9655534 16.7606567,18.9413109 C16.8151588,19.1779176 16.9301087,19.33113 17.0619047,18.9607049 C17.1540628,18.7425226 17.2264019,18.4312491 17.2264019,18.4312491 C17.2264019,18.4312491 17.243248,18.1190059 17.2670308,17.744702 C17.4652202,18.151006 17.676292,18.376946 17.9329474,18.6562193 C17.9379021,18.6688254 17.9448388,18.6513708 17.9507844,18.6465224 L17.9686215,18.625189 C18.297616,18.2644608 18.5156244,17.9376722 18.7068773,17.5371864 C18.7415604,17.9037327 18.7722798,18.2440972 18.7702979,18.2440972 C18.7732707,18.2440972 18.8882206,18.68628 18.8961482,18.6688254 C18.9645236,18.844341 19.0864101,18.9694322 19.1983872,18.666886 C19.2786539,18.486522 19.3163099,18.2276123 19.3163099,18.2276123 C19.3173008,18.2276123 19.2836086,17.8387629 19.2489255,17.4605801 C19.2122604,17.0794883 19.2043328,16.7080935 19.2073057,16.6993662 C19.2043328,16.6945177 19.1894686,16.6886995 19.1855048,16.6857904 C18.9476775,16.6043357 18.749488,16.6537903 18.6731851,16.693548 C18.6612937,16.6974268 18.6612937,16.6993662 18.6612937,16.6993662 C18.6593118,16.7100329 18.6632756,16.8506393 18.6702122,17.0358518 C18.6712032,17.0436094 18.5641809,17.1764582 18.5384162,17.2103977 C18.4888689,17.2763373 18.1826661,17.6894292 18.0023137,17.8668841 C17.9527663,17.9163388 17.9488025,17.8416719 17.8804272,17.7311262 C17.8160156,17.6244593 17.6485455,17.3015494 17.5880977,17.1463976 C17.544496,17.0377912 17.413691,16.7100329 17.3770259,16.6004569 C17.375044,16.5926993 17.3601798,16.5810629 17.3502703,16.5752447 L17.3581979,16.4685778 C17.356216,16.4637293 17.3413518,16.4530626 17.338379,16.4511232 Z M15.6656598,22.3585312 C15.6844878,22.3585312 16.0541112,22.3759858 16.585259,22.3711373 C17.2036101,22.3682282 18.0231236,22.3284705 18.7990354,22.2382885 C19.5749472,22.1519853 20.3062663,22.0191364 20.7591292,21.9153786 C21.026685,21.8571967 21.1882094,21.817439 21.1882094,21.817439 C21.1882094,21.817439 22.3248261,21.4528321 22.5834633,21.2938014 C22.8648924,21.1609526 23.0829008,21.0213159 23.1096564,20.9544066 C23.1413667,20.8690731 22.8975936,20.924346 22.4159932,21.0261644 C21.968085,21.1211949 19.728544,21.6283476 18.712823,21.7107721 C17.959703,21.7708934 17.0480314,21.8620452 15.6864697,21.8242269 C15.6745784,21.8261663 15.6488137,21.8387724 15.643859,21.8426512 C15.3495476,22.0627729 15.5100811,22.2635007 15.6299857,22.3439857 C15.6468318,22.3585312 15.6527775,22.3585312 15.6656598,22.3585312 Z M15.2722537,23.9032622 C15.2593714,23.3864124 15.2385615,23.0295631 15.2385615,23.0091994 C15.2345977,22.997563 15.2187426,22.9733205 15.2137878,22.968472 C14.9620872,22.6988956 14.7747982,22.8841082 14.702459,23.0033812 C14.6915586,23.0208358 14.6915586,23.0256843 14.6925495,23.0373207 C14.6935405,23.0567147 14.7123685,23.4067761 14.7262417,23.9187773 C14.7460607,24.6819307 14.8094813,26.9626634 14.8094813,26.9626634 C14.8094813,26.9626634 14.8511011,27.3389067 14.9075851,27.7064227 C14.9640691,28.0749085 15.0403721,28.4327275 15.042354,28.4016971 C15.1156841,28.6993948 15.210815,28.9350317 15.2722537,28.9757591 C15.3376563,29.0145471 15.3564843,28.8603649 15.3445929,28.3784243 C15.3445929,27.8092109 15.3574752,27.0033908 15.3574752,27.0033908 C15.2950455,26.019146 15.2930636,24.6664155 15.2722537,23.9032622 Z M15.6131396,17.7767021 C15.6953883,16.9146394 16.1284323,14.6309976 16.1314051,14.6125733 C16.1314051,14.5999673 16.1214956,14.5737854 16.1175318,14.5679672 C15.9431251,14.2479664 15.7142163,14.374997 15.6141306,14.4768154 C15.5982754,14.4923306 15.5972845,14.4962094 15.5953026,14.5097852 C15.5913388,14.5272398 15.1820775,16.6566994 15.0869466,17.615732 C14.9977613,18.5117342 14.9135308,20.0487075 14.9135308,20.0487075 C14.9155127,20.0496772 14.9224493,21.5488323 14.9363226,21.4877412 C14.9630782,22.0899245 15.0592001,22.4845921 15.2365796,21.5245898 C15.3554933,20.9582854 15.4535971,20.1476168 15.4545881,20.1476168 C15.4545881,20.1476168 15.5388186,18.5553706 15.6131396,17.7767021 Z M22.21384,10.8132916 C22.1444736,10.8840796 21.7946692,10.9509889 21.7946692,10.9509889 C21.7946692,10.9509889 21.2377568,11.1623833 21.1495625,11.2176562 C21.0564134,11.2738987 20.7472379,11.3951111 20.7472379,11.3951111 C20.7472379,11.3951111 20.9374998,11.5192326 21.3745075,11.3941414 C21.5122492,11.3543838 21.6420633,11.2962018 21.7362033,11.2467471 C21.9353837,11.1420196 22.1206909,10.9403222 22.21384,10.8132916 Z M19.8375482,8.70807443 L20.0991583,8.606256 C20.1001493,8.6081954 20.7353465,8.30467952 21.0564134,8.27074005 C21.0504678,8.27267945 20.4152705,8.19025501 20.0060093,8.35801299 C19.6690872,8.49474058 19.4154046,8.7429836 19.3282013,8.89037789 C19.3341469,8.8816506 19.6284583,8.80116556 19.8375482,8.70807443 Z M16.9875836,1.68163344 C16.9747013,1.69714863 16.9459638,1.7349669 16.9092988,1.7407851 C16.4603996,1.8746036 16.2562645,1.71266382 16.1829344,1.62442118 C16.1115862,1.53617855 16.0055548,1.25787485 16.0739302,1.08914718 C16.0808668,1.07848049 16.3672506,0.739085738 16.5218384,0.612055132 C17.1045154,0.159205568 17.9834857,-0.148189103 18.8039901,0.0738720318 C19.1676678,0.181508652 20.0654661,0.530600393 20.0912307,1.68357284 C20.105104,2.09375563 19.9842084,2.48454444 19.7889918,2.72696926 C19.5818838,3.02951544 19.0903739,3.38442538 18.4403124,3.56963794 C18.2014941,3.65497147 17.5712516,3.84115374 17.4781026,3.86248712 C17.2957682,3.90709329 17.2234291,3.8954569 17.2363114,3.82272945 C17.2482028,3.63848659 17.9527663,3.18272793 18.203476,3.02466694 C18.8198453,2.60963565 19.2806358,2.32648346 19.0517269,1.6001787 C18.9883063,1.42951163 18.8703836,1.22490508 18.5701265,1.11435936 C17.5335956,0.906843714 16.9965021,1.67096675 16.9875836,1.68163344 Z M16.5376935,4.91655024 C16.5713857,4.65667083 17.0064116,4.48309466 17.2075739,4.58006459 C17.4077453,4.67800422 17.619808,5.22879341 17.4612564,5.48964251 C17.3096415,5.72430974 16.8161497,5.75437042 16.6754352,5.5090365 C16.5684129,5.32576334 16.5198565,5.1007931 16.5376935,4.91655024 Z M16.5376935,4.91655024" id="dude-map--body-grey" fill="#67737B" sketch:type="MSShapeGroup"></path>
    </g>
</svg>