<?xml version="1.0" encoding="UTF-8" standalone="no"?>
<svg width="32px" height="32px" viewBox="0 0 32 32" version="1.1" xmlns="http://www.w3.org/2000/svg" xmlns:xlink="http://www.w3.org/1999/xlink" xmlns:sketch="http://www.bohemiancoding.com/sketch/ns">
    <title>entertainment--body-grey</title>
    <description>Created with Sketch (http://www.bohemiancoding.com/sketch)</description>
    <defs></defs>
    <g id="Page-1" stroke="none" stroke-width="1" fill="none" fill-rule="evenodd" sketch:type="MSPage">
        <path d="M28.8005454,13.9925774 C29.1393636,13.6601295 29.0366623,13.3315586 28.567308,13.2637121 L20.9942897,12.1452142 C20.5287746,12.0841523 19.9701565,11.6761041 19.7609147,11.2418866 L16.3804114,4.32639011 C16.1721294,3.8912033 15.8256327,3.8912033 15.615431,4.32639011 L12.233968,11.2418866 C12.0237663,11.6761041 11.4728268,12.0841523 11.000593,12.1452142 L3.43429345,13.2637121 C2.96589891,13.3315586 2.85839852,13.6601295 3.20009618,13.9925774 L8.67589713,19.3844354 C9.01279566,19.7188217 9.22875626,20.3769327 9.15005062,20.8489504 L7.85428703,28.4564811 C7.77366174,28.9294681 8.04721183,29.1368846 8.46953478,28.904268 L15.2410993,25.3210038 C15.6547838,25.0980796 16.3487372,25.0980796 16.7595423,25.3210038 L23.524388,28.904268 C23.9486306,29.1368846 24.2241004,28.9294681 24.1453947,28.4564811 L22.8534704,20.8489504 C22.7690059,20.3769327 22.9830468,19.7188217 23.3132266,19.3844354 L28.8005454,13.9925774 L28.8005454,13.9925774 L28.8005454,13.9925774 L28.8005454,13.9925774 Z M21.6181758,16.4292358 L19.2128547,18.7951401 C19.063122,18.9444024 18.9728985,19.2361423 19.0122513,19.4377433 L19.578548,22.7816063 C19.6102222,22.9851458 19.4902441,23.0733463 19.3049979,22.9744842 L16.33338,21.4043225 C16.1481338,21.3112758 15.8496283,21.3112758 15.6643821,21.4043225 L12.6946839,22.9744842 C12.513277,23.0733463 12.3894596,22.9851458 12.4230535,22.7816063 L12.9951091,19.4377433 C13.0248637,19.2361423 12.9346401,18.9444024 12.7887467,18.7951401 L10.3795863,16.4292358 C10.2356126,16.2857889 10.276885,16.1442805 10.4832474,16.1055111 L13.8032816,15.6276779 C14.0106038,15.5937547 14.256319,15.4125076 14.3503818,15.2215682 L15.8333113,12.1830144 C15.9216152,11.9998288 16.0751871,11.9998288 16.1721294,12.1830144 L17.6512196,15.2215682 C17.7452824,15.4125076 17.9871583,15.5937547 18.191601,15.6276779 L21.5154746,16.1055111 C21.7199173,16.1442805 21.7659889,16.2857889 21.6181758,16.4292358 L21.6181758,16.4292358 Z M21.6181758,16.4292358" id="entertainment--body-grey" fill="#67747C" sketch:type="MSShapeGroup"></path>
    </g>
</svg>