<?xml version="1.0" encoding="UTF-8" standalone="no"?>
<svg width="32px" height="32px" viewBox="0 0 32 32" version="1.1" xmlns="http://www.w3.org/2000/svg" xmlns:xlink="http://www.w3.org/1999/xlink" xmlns:sketch="http://www.bohemiancoding.com/sketch/ns">
    <title>expand-full-screen--body-grey</title>
    <description>Created with Sketch (http://www.bohemiancoding.com/sketch)</description>
    <defs></defs>
    <g id="Functions" stroke="none" stroke-width="1" fill="none" fill-rule="evenodd" sketch:type="MSPage">
        <path d="M29.1555556,3 L2.84444444,3 C1.27431111,3 0,4.29325926 0,5.88792593 L0,26.1101481 C0,27.7067407 1.27431111,29 2.84444444,29 L29.1555556,29 C30.7256889,29 32,27.7067407 32,26.1101481 L32,5.88792593 C32,4.29325926 30.7256889,3 29.1555556,3 Z M2.84444444,5.88792593 L29.1555556,5.88792593 L29.1555556,26.0523704 L2.84444444,26.0523704 L2.84444444,5.88792593 Z M18.9572741,18.4854074 L23.2817778,14.0942963 L23.2817778,16.9687407 L25.3781333,16.9687407 L25.3781333,10.4061481 L18.9724444,10.4061481 L18.9724444,12.5362222 L21.6576,12.5362222 L17.3776593,16.8820741 L18.9572741,18.4854074 Z M13.0275556,20.1417037 L10.3442963,20.1417037 L14.6223407,15.7948889 L13.0427259,14.1905926 L8.71822222,18.5836296 L8.71822222,15.7091852 L6.62186667,15.7091852 L6.62186667,22.2717778 L13.0275556,22.2717778 L13.0275556,20.1417037 Z M13.0275556,20.1417037" id="expand-full-screen--body-grey" fill="#67737B" sketch:type="MSShapeGroup"></path>
    </g>
</svg>