<?xml version="1.0" encoding="UTF-8" standalone="no"?>
<svg width="32px" height="32px" viewBox="0 0 32 32" version="1.1" xmlns="http://www.w3.org/2000/svg" xmlns:xlink="http://www.w3.org/1999/xlink" xmlns:sketch="http://www.bohemiancoding.com/sketch/ns">
    <title>festival--body-grey</title>
    <description>Created with Sketch (http://www.bohemiancoding.com/sketch)</description>
    <defs></defs>
    <g id="Page-1" stroke="none" stroke-width="1" fill="none" fill-rule="evenodd" sketch:type="MSPage">
        <path d="M10.7869985,8.75632538 L9.29822712,11.4303254 C9.25579855,11.5043254 9.26711283,11.5983254 9.30765569,11.6663254 C9.35385569,11.7423254 9.43682712,11.7703254 9.5141414,11.7503254 L12.3851414,11.1133254 L13.8305414,13.8243254 C13.8673128,13.8933254 13.9314271,13.9363254 14.0106271,13.9363254 L14.0257128,13.9363254 C14.1049128,13.9233254 14.1746843,13.8673254 14.2020271,13.7853254 L15.10717,10.8163254 L18.0469985,10.8563254 L18.0488843,10.8563254 C18.1280843,10.8563254 18.1997414,10.8033254 18.2365128,10.7253254 C18.2610271,10.6503254 18.2600843,10.5493254 18.1997414,10.4983254 L16.2395414,8.18732538 L17.7264271,5.49832538 C17.7650843,5.42232538 17.7650843,5.33032538 17.7169985,5.26132538 C17.6689128,5.19832538 17.5925414,5.15532538 17.5133414,5.17632538 L14.6432843,5.81632538 L13.1969414,3.10732538 C13.1526271,3.03932538 13.0847414,2.98832538 12.9979985,3.00232538 C12.9197414,3.01232538 12.85657,3.06832538 12.8263985,3.14832538 L11.9099414,6.09832538 L8.98425569,6.07732538 C8.8805414,6.07332538 8.83151283,6.12532538 8.79945569,6.20632538 C8.76456998,6.28332538 8.78059855,6.37332538 8.83151283,6.43432538 L10.7869985,8.75632538 L10.7869985,8.75632538 L10.7869985,8.75632538 L10.7869985,8.75632538 Z M17.9206557,12.2013254 C17.8904843,12.2753254 17.9017985,12.3693254 17.9602557,12.4303254 L19.82617,14.5583254 L18.4722271,17.0863254 C18.43357,17.1613254 18.4354557,17.2563254 18.48637,17.3153254 C18.5353985,17.3933254 18.6202557,17.4183254 18.6937985,17.4043254 L21.3545414,16.7513254 L22.7518557,19.2483254 C22.7980557,19.3143254 22.8612271,19.3573254 22.9319414,19.3573254 L22.9526843,19.3573254 C23.0299985,19.3403254 23.0988271,19.2893254 23.12617,19.2073254 L23.9219414,16.4343254 L26.6618843,16.4153254 C26.74297,16.4153254 26.8136843,16.3613254 26.84857,16.2783254 C26.8759128,16.1993254 26.8674271,16.1173254 26.8070843,16.0533254 L24.9449414,13.9233254 L26.2988843,11.3973254 C26.3356557,11.3193254 26.3356557,11.2323254 26.28097,11.1643254 C26.2366557,11.0923254 26.15557,11.0593254 26.0744843,11.0783254 L23.4080843,11.7253254 L22.0192557,9.21732538 C21.9796557,9.14832538 21.8995128,9.11132538 21.8203128,9.11732538 C21.74677,9.12732538 21.6732271,9.18632538 21.6524843,9.26832538 L20.84257,12.0513254 L18.1054557,12.0733254 C18.0271985,12.0733254 17.9574271,12.1173254 17.9206557,12.2013254 L17.9206557,12.2013254 Z M13.7569985,21.2343254 L16.7826271,17.9393254 C16.8410843,17.8793254 16.8523985,17.7853254 16.8269414,17.7043254 C16.79677,17.6313254 16.7213414,17.5753254 16.6421414,17.5753254 L12.3106557,17.4183254 L11.1301985,13.0043254 C11.1103985,12.9203254 11.0443985,12.8523254 10.9651985,12.8423254 C10.8822271,12.8333254 10.81057,12.8673254 10.7615414,12.9453254 L8.46945569,16.8473254 L4.26996998,15.7273254 C4.19171283,15.7033254 4.1087414,15.7323254 4.05971283,15.7993254 C4.01162712,15.8673254 4.00502712,15.9533254 4.04179855,16.0363254 L6.0887414,20.0843254 L3.06216998,23.3843254 C3.00182712,23.4443254 2.98391283,23.5353254 3.01502712,23.6103254 C3.04802712,23.6973254 3.11402712,23.7443254 3.2045414,23.7463254 L7.53979855,23.8893254 L8.71365569,28.3193254 C8.73911283,28.4073254 8.79945569,28.4553254 8.8805414,28.4773254 L8.90788426,28.4773254 C8.9795414,28.4773254 9.04648426,28.4363254 9.07948426,28.3783254 L11.37157,24.4653254 L15.5719985,25.5923254 C15.64837,25.6133254 15.7360557,25.5873254 15.7822557,25.5153254 C15.8312843,25.4453254 15.8407128,25.3593254 15.8011128,25.2833254 L13.7569985,21.2343254 L13.7569985,21.2343254 L13.7569985,21.2343254 L13.7569985,21.2343254 Z M27.0842843,18.5063254 C27.0569414,18.4283254 26.9947128,18.3693254 26.9192843,18.3653254 L25.1429414,18.1503254 C25.0505414,18.1483254 24.9637985,18.2003254 24.9307985,18.2793254 L24.3811128,19.6623254 C24.35377,19.7323254 24.3641414,19.8143254 24.4056271,19.8793254 C26.7354271,23.1483254 26.6449128,26.6823254 26.4836843,28.0903254 C24.0115128,22.6233254 18.0007985,20.0333254 17.9461128,20.0063254 C17.8697414,19.9773254 17.7839414,19.9893254 17.7283128,20.0453254 L16.1216843,21.6183254 C16.05757,21.6873254 16.0368271,21.7783254 16.0764271,21.8703254 L16.8335414,23.5373254 C16.8637128,23.6103254 16.9334843,23.6583254 16.9975985,23.6663254 C23.1148557,24.1353254 26.3648843,28.8613254 26.39317,28.9113254 C26.4355985,28.9703254 26.4997128,29.0003254 26.5628843,29.0003254 C26.5958843,29.0003254 26.6232271,28.9943254 26.6524557,28.9793254 C26.7061985,28.9653254 26.74957,28.9283254 26.7740843,28.8673254 C28.9426557,24.2173254 27.1625414,18.7353254 27.0842843,18.5063254 L27.0842843,18.5063254 Z M27.0842843,18.5063254" id="festival--body-grey" fill="#67747C" sketch:type="MSShapeGroup"></path>
    </g>
</svg>