<?xml version="1.0" encoding="UTF-8" standalone="no"?>
<svg width="32px" height="32px" viewBox="0 0 32 32" version="1.1" xmlns="http://www.w3.org/2000/svg" xmlns:xlink="http://www.w3.org/1999/xlink" xmlns:sketch="http://www.bohemiancoding.com/sketch/ns">
    <title>hand-point--body-grey</title>
    <description>Created with Sketch (http://www.bohemiancoding.com/sketch)</description>
    <defs></defs>
    <g id="Actions" stroke="none" stroke-width="1" fill="none" fill-rule="evenodd" sketch:type="MSPage">
        <path d="M25.2041416,17.1858699 L19.9703852,17.1858699 C19.6852817,17.4631892 19.3315965,17.6216573 18.972033,17.6097722 C19.3325763,17.7900297 19.6607882,18.3803235 19.6607882,18.3803235 C19.6607882,18.3803235 20.9706969,20.6355233 18.5478067,21.2565203 C18.5830773,21.3704193 19.8763304,21.9914163 19.6215988,22.8966656 C19.3658873,23.8038957 17.7679359,24.3496203 17.7679359,24.3496203 C17.7679359,24.3496203 18.8074371,25.009244 18.390069,25.7926708 C18.0050323,26.5176626 16.6461367,26.986134 16.6461367,26.986134 C16.6461367,26.986134 7.54143843,27 7.24359831,27 C6.94771766,27 6.36477399,26.0610763 5.68581608,26.5681743 L5,15.253549 C5,15.253549 5.28706301,15.2713767 5.46635493,15.2594916 C7.46207971,15.1624298 9.37354709,12.0267415 9.37354709,12.0267415 C9.37354709,12.0267415 12.2245825,12 12.6086395,12 C14.4975729,12 15.0961924,13.4777154 14.2007125,13.4777154 C15.3078156,13.4777154 13.7333779,13.5846814 13.7333779,13.5846814 C13.7333779,13.583691 15.6556224,13.5648729 17.4181697,13.5648729 C17.4563794,13.5589303 17.4936094,13.5519974 17.5347584,13.5519974 L25.2041416,13.5519974 C26.1966155,13.5519974 27,14.3661274 27,15.3684384 C27,16.3717398 26.1966155,17.1858699 25.2041416,17.1858699" id="hand-point--body-grey" fill="#67737B" sketch:type="MSShapeGroup"></path>
    </g>
</svg>