<?xml version="1.0" encoding="UTF-8" standalone="no"?>
<svg width="32px" height="32px" viewBox="0 0 32 32" version="1.1" xmlns="http://www.w3.org/2000/svg" xmlns:xlink="http://www.w3.org/1999/xlink" xmlns:sketch="http://www.bohemiancoding.com/sketch/ns">
    <title>hotel-line--body-grey</title>
    <description>Created with Sketch (http://www.bohemiancoding.com/sketch)</description>
    <defs></defs>
    <g id="Page-1" stroke="none" stroke-width="1" fill="none" fill-rule="evenodd" sketch:type="MSPage">
        <path d="M28.7716846,15.3271561 C27.8257205,13.6393172 26.1471078,12.5064837 25.1752269,12.5064837 L16.418331,12.5064837 C15.9568122,11.7522988 15.1533906,11.2792474 14.2482954,11.2792474 C13.6442341,11.2792474 13.0860256,11.5240722 12.6354716,11.9089452 C11.9815702,11.1391993 11.0356061,10.6402131 9.97301636,10.6402131 C9.36496781,10.6402131 8.8007785,10.8144952 8.29839084,11.098741 L8.29839084,10.2418541 C8.29839084,8.45546282 6.99557207,7 5.39570662,7 C3.79883157,7 2.5,8.45546282 2.5,10.2418541 L2.5,25.7705946 C2.5,27.5497241 3.79883157,29 5.39570662,29 C6.99557207,29 8.29839084,27.5497241 8.29839084,25.7705946 L8.29839084,25.3110294 L23.5464542,25.3110294 L23.5464542,25.7187249 C23.5464542,27.4978545 24.8482762,28.9481303 26.4511321,28.9481303 C28.0529911,28.9481303 29.3558099,27.4978545 29.3558099,25.7187249 L29.3558099,22.3513463 C29.3906979,21.6002735 29.2431714,20.9850993 28.9451279,20.5099731 C29.735591,18.7775263 29.6847542,16.9537888 28.7716846,15.3271561 C28.7716846,15.3271561 29.6847542,16.9537888 28.7716846,15.3271561 L28.7716846,15.3271561 L28.7716846,15.3271561 Z M9.97301636,12.6029613 C10.9030316,12.6029613 11.6606003,13.3944924 11.6606003,14.3686047 C11.6606003,15.3333805 10.9030316,16.1186872 9.97301636,16.1186872 C9.04399792,16.1186872 8.28842284,15.3333805 8.28842284,14.3686047 C8.28842284,13.3944924 9.04399792,12.6029613 9.97301636,12.6029613 C9.97301636,12.6029613 9.04399792,12.6029613 9.97301636,12.6029613 L9.97301636,12.6029613 L9.97301636,12.6029613 Z M27.4708594,25.7187249 C27.4708594,26.417928 27.0133278,26.9853822 26.4511321,26.9853822 C25.8879396,26.9853822 25.4304079,26.417928 25.4304079,25.7187249 L25.4304079,23.3482812 L6.41344034,23.3482812 L6.41344034,25.7705946 C6.41344034,26.4687603 5.95590873,27.0362145 5.39570662,27.0362145 C4.83849492,27.0362145 4.38495051,26.4687603 4.38495051,25.7705946 L4.38495051,10.2418541 C4.38495051,9.54680058 4.84646932,8.96171076 5.39570662,8.96171076 C5.94594072,8.96171076 6.41344034,9.54680058 6.41344034,10.2418541 L6.41344034,14.263828 C6.41144674,14.2990994 6.40347233,14.3322959 6.40347233,14.3686047 C6.40347233,14.4049135 6.41144674,14.4370727 6.41344034,14.4744188 L6.41344034,18.697647 C6.41144674,18.7329184 6.40347233,18.7650776 6.40347233,18.8024237 C6.40347233,18.8387325 6.41144674,18.8719291 6.41344034,18.9082378 L6.41344034,21.4477767 L27.1269631,21.4477767 C27.2256464,21.4477767 27.292432,21.4705993 27.3462593,21.5338803 C27.3811473,21.5764134 27.4967762,21.7506955 27.4708594,22.3492715 L27.4708594,25.7187249 L27.4708594,25.7187249 L27.4708594,25.7187249 L27.4708594,25.7187249 Z M27.3382849,19.4767294 L8.97721226,19.4767294 C8.56453669,19.4767294 8.28842284,19.2059697 8.28842284,18.8024237 C8.28842284,18.4185882 8.59643431,18.1063328 9.00312908,18.1063328 L9.86336826,18.080398 L9.86336826,18.0689867 C9.90024989,18.0689867 9.93513793,18.080398 9.97301636,18.080398 C11.9426949,18.080398 13.544554,16.4164191 13.544554,14.3686047 C13.544554,14.2565662 13.5236212,14.1517895 13.5136532,14.0418258 L13.5256148,14.0418258 C13.529602,13.6393172 13.8874535,13.2409582 14.2482954,13.2409582 C14.5612909,13.2409582 14.8284336,13.4473994 14.9141584,13.7565427 L15.1085346,14.4692319 L25.1443261,14.4671571 C25.4423696,14.5138398 26.6534826,15.2400151 27.282464,16.5844768 C27.7200596,17.516056 27.738002,18.4870562 27.3382849,19.4767294 L27.3382849,19.4767294 Z M27.3382849,19.4767294" id="hotel-line--body-grey" fill="#67747C" sketch:type="MSShapeGroup"></path>
    </g>
</svg>