<?xml version="1.0" encoding="UTF-8" standalone="no"?>
<svg width="32px" height="32px" viewBox="0 0 32 32" version="1.1" xmlns="http://www.w3.org/2000/svg" xmlns:xlink="http://www.w3.org/1999/xlink" xmlns:sketch="http://www.bohemiancoding.com/sketch/ns">
    <title>image--body-grey</title>
    <description>Created with Sketch (http://www.bohemiancoding.com/sketch)</description>
    <defs></defs>
    <g id="Categories" stroke="none" stroke-width="1" fill="none" fill-rule="evenodd" sketch:type="MSPage">
        <path d="M19.189,22.078 C16.389,22.078 14.117,19.807 14.117,17.006 C14.117,14.206 16.389,11.934 19.189,11.934 C21.988,11.934 24.26,14.206 24.26,17.006 C24.26,19.807 21.988,22.078 19.189,22.078 L19.189,22.078 L19.189,22.078 L19.189,22.078 Z M27.918,28.012 L4.037,28.012 C2.635,28.012 1.5,26.875 1.5,25.476 L1.5,8.536 C1.5,7.136 2.635,6 4.037,6 L27.918,6 C29.32,6 30.453,7.136 30.453,8.536 L30.453,25.476 C30.453,26.875 29.32,28.012 27.918,28.012 L27.918,28.012 L27.918,28.012 L27.918,28.012 Z M9.111,8.066 L5.099,8.066 C4.252,8.066 3.566,8.751 3.566,9.6 C3.566,10.446 4.252,11.131 5.099,11.131 L9.111,11.131 C9.957,11.131 10.642,10.446 10.642,9.6 C10.642,8.751 9.957,8.066 9.111,8.066 L9.111,8.066 L9.111,8.066 L9.111,8.066 Z M19.189,8.44 C14.457,8.44 10.623,12.275 10.623,17.006 C10.623,21.739 14.457,25.573 19.189,25.573 C23.92,25.573 27.754,21.739 27.754,17.006 C27.754,12.275 23.92,8.44 19.189,8.44 L19.189,8.44 Z M19.189,8.44" id="image--body-grey" fill="#67737B" sketch:type="MSShapeGroup"></path>
    </g>
</svg>