<?xml version="1.0" encoding="UTF-8" standalone="no"?>
<svg width="32px" height="32px" viewBox="0 0 32 32" version="1.1" xmlns="http://www.w3.org/2000/svg" xmlns:xlink="http://www.w3.org/1999/xlink" xmlns:sketch="http://www.bohemiancoding.com/sketch/ns">
    <title>image-line--body-grey</title>
    <description>Created with Sketch (http://www.bohemiancoding.com/sketch)</description>
    <defs></defs>
    <g id="Categories" stroke="none" stroke-width="1" fill="none" fill-rule="evenodd" sketch:type="MSPage">
        <path d="M28.4507182,29 L3.55225359,29 C1.59187717,29 0,27.393 0,25.414 L0,7.586 C0,5.609 1.59187717,4 3.55225359,4 L28.4507182,4 C30.4081228,4 32,5.609 32,7.586 L32,25.414 C32,27.393 30.4081228,29 28.4507182,29 Z M3.55225359,5.834 C2.59237246,5.834 1.81475978,6.62 1.81475978,7.586 L1.81475978,25.414 C1.81475978,26.383 2.59237246,27.166 3.55225359,27.166 L28.4507182,27.166 C29.4076275,27.166 30.1852402,26.383 30.1852402,25.414 L30.1852402,7.586 C30.1852402,6.62 29.4076275,5.834 28.4507182,5.834 L3.55225359,5.834 Z M19.9970282,9.564 C16.205052,9.564 13.1292719,12.67 13.1292719,16.5 C13.1292719,20.332 16.205052,23.437 19.9970282,23.437 C23.7929668,23.437 26.8677563,20.332 26.8677563,16.5 C26.8677563,12.67 23.7929668,9.564 19.9970282,9.564 Z M19.9970282,11.399 C22.7875186,11.399 25.0529965,13.688 25.0529965,16.5 C25.0529965,19.315 22.7875186,21.602 19.9970282,21.602 C17.213472,21.602 14.9460129,19.315 14.9460129,16.5 C14.9460129,13.688 17.213472,11.399 19.9970282,11.399 Z M10.9737494,8.707 L5.71272907,8.707 C5.01238237,8.707 4.44576523,9.256 4.44576523,9.936 C4.44576523,10.614 5.01238237,11.164 5.71272907,11.164 L10.9737494,11.164 C11.6731055,11.164 12.2407132,10.614 12.2407132,9.936 C12.2407132,9.256 11.6731055,8.707 10.9737494,8.707 Z M10.9737494,8.707" id="image-line--body-grey" fill="#67737B" sketch:type="MSShapeGroup"></path>
    </g>
</svg>