<?xml version="1.0" encoding="UTF-8" standalone="no"?>
<svg width="32px" height="32px" viewBox="0 0 32 32" version="1.1" xmlns="http://www.w3.org/2000/svg" xmlns:xlink="http://www.w3.org/1999/xlink" xmlns:sketch="http://www.bohemiancoding.com/sketch/ns">
    <title>information-pin--body-grey</title>
    <description>Created with Sketch (http://www.bohemiancoding.com/sketch)</description>
    <defs></defs>
    <g id="Page-1" stroke="none" stroke-width="1" fill="none" fill-rule="evenodd" sketch:type="MSPage">
        <path d="M15.9989697,0 C22.6279729,0 28,4.654 28,11.648 C28,18.482 21.9459088,21.417 18.7200137,25.788 C16.083455,29.357 15.9989697,32 15.9989697,32 C15.9989697,32 15.9793938,29.344 13.278956,25.788 C9.96033313,21.417 4,18.684 4,11.648 C4,4.652 9.37305744,0 15.9989697,0 Z M18.951,17.459 L18.951,16.659 C18.623,16.643 18.332,16.56 18.059,16.459 C17.732,16.342 17.566,16.076 17.566,15.709 L17.566,9.244 L17.441,9.127 L13.018,9.33 L13.018,10.16 C13.344,10.177 13.818,10.31 14.037,10.443 C14.326,10.627 14.471,10.927 14.51,11.277 L14.51,15.81 C14.51,16.176 14.365,16.441 14.018,16.542 C13.764,16.609 13.473,16.643 13.143,16.659 L13.143,17.459 L18.951,17.459 Z M15.984,4.659 C15.111,4.659 14.344,5.43 14.344,6.26 C14.344,7.152 15.111,7.941 15.984,7.941 C16.893,7.941 17.625,7.17 17.625,6.26 C17.625,5.409 16.857,4.659 15.984,4.659 Z M15.984,4.659" id="information-pin--body-grey" fill="#67747C" sketch:type="MSShapeGroup"></path>
    </g>
</svg>