<?xml version="1.0" encoding="UTF-8" standalone="no"?>
<svg width="32px" height="32px" viewBox="0 0 32 32" version="1.1" xmlns="http://www.w3.org/2000/svg" xmlns:xlink="http://www.w3.org/1999/xlink" xmlns:sketch="http://www.bohemiancoding.com/sketch/ns">
    <title>information--body-grey</title>
    <description>Created with Sketch (http://www.bohemiancoding.com/sketch)</description>
    <defs></defs>
    <g id="Page-1" stroke="none" stroke-width="1" fill="none" fill-rule="evenodd" sketch:type="MSPage">
        <path d="M16,3 C8.832,3 3,8.832 3,15.998 C3,23.166 8.832,29 16,29 C23.167,29 29,23.166 29,15.998 C29,8.832 23.167,3 16,3 M16,5.482 C17.365,5.482 18.564,6.65 18.564,7.979 C18.564,9.405 17.423,10.606 16,10.606 C14.64,10.606 13.437,9.372 13.437,7.979 C13.437,6.684 14.64,5.482 16,5.482 M20.634,25.469 L11.568,25.469 L11.568,24.219 C12.08,24.191 12.533,24.141 12.929,24.035 C13.47,23.881 13.699,23.461 13.699,22.895 L13.699,15.815 C13.636,15.268 13.412,14.801 12.963,14.512 C12.617,14.305 11.879,14.099 11.369,14.071 L11.369,12.772 L18.277,12.461 L18.474,12.641 L18.474,22.735 C18.474,23.309 18.73,23.721 19.244,23.904 C19.668,24.063 20.123,24.191 20.634,24.219 L20.634,25.469" id="information--body-grey" fill="#67747C" sketch:type="MSShapeGroup"></path>
    </g>
</svg>