<?xml version="1.0" encoding="UTF-8" standalone="no"?>
<svg width="32px" height="32px" viewBox="0 0 32 32" version="1.1" xmlns="http://www.w3.org/2000/svg" xmlns:xlink="http://www.w3.org/1999/xlink" xmlns:sketch="http://www.bohemiancoding.com/sketch/ns">
    <title>ipad--body-grey</title>
    <description>Created with Sketch (http://www.bohemiancoding.com/sketch)</description>
    <defs></defs>
    <g id="Categories" stroke="none" stroke-width="1" fill="none" fill-rule="evenodd" sketch:type="MSPage">
        <path d="M24.3234727,2 L7.60647266,2 C6.14547266,2 4.95947266,3.183 4.95947266,4.646 L4.95947266,26.654 C4.95947266,28.115 6.14547266,29.301 7.60647266,29.301 L24.3234727,29.301 C25.7834727,29.301 26.9674727,28.115 26.9674727,26.654 L26.9674727,4.646 C26.9674727,3.183 25.7834727,2 24.3234727,2 L24.3234727,2 L24.3234727,2 L24.3234727,2 Z M15.9634727,27.994 C14.8384727,27.994 13.9284727,27.084 13.9284727,25.957 C13.9284727,24.832 14.8384727,23.92 15.9634727,23.92 C17.0884727,23.92 18.0004727,24.832 18.0004727,25.957 C18.0004727,27.084 17.0884727,27.994 15.9634727,27.994 L15.9634727,27.994 L15.9634727,27.994 L15.9634727,27.994 Z M23.6254727,22.221 C23.6254727,22.439 23.4474727,22.615 23.2314727,22.615 L8.69847266,22.615 C8.48147266,22.615 8.30347266,22.439 8.30347266,22.221 L8.30347266,6.015 C8.30347266,5.797 8.48147266,5.621 8.69847266,5.621 L23.2314727,5.621 C23.4474727,5.621 23.6254727,5.797 23.6254727,6.015 L23.6254727,22.221 L23.6254727,22.221 Z M23.6254727,22.221" id="ipad--body-grey" fill="#67737B" sketch:type="MSShapeGroup"></path>
    </g>
</svg>