<?xml version="1.0" encoding="UTF-8" standalone="no"?>
<svg width="32px" height="32px" viewBox="0 0 32 32" version="1.1" xmlns="http://www.w3.org/2000/svg" xmlns:xlink="http://www.w3.org/1999/xlink" xmlns:sketch="http://www.bohemiancoding.com/sketch/ns">
    <title>italics--body-grey</title>
    <description>Created with Sketch (http://www.bohemiancoding.com/sketch)</description>
    <defs></defs>
    <g id="Actions" stroke="none" stroke-width="1" fill="none" fill-rule="evenodd" sketch:type="MSPage">
        <path d="M25.6035783,28.414 C24.4452396,28.766 22.8483067,29 21.3709904,29 C18.2558466,29 15.6999361,27.514 15.6999361,24.313 C15.6999361,23.727 15.8195527,23.102 15.9391693,22.479 L17.8561022,14.313 L15.1008307,14.118 L15.2603195,11.188 L18.7343131,10.289 L19.6932907,6.305 L24.2060064,6.305 L23.2879233,10.524 L28,10.524 L27.8803834,14.313 L22.2492013,14.313 L20.451885,22.281 C20.3741853,22.594 20.252524,23.024 20.252524,23.453 C20.252524,24.742 21.2104792,25.172 22.5702236,25.172 C23.4474121,25.172 24.2060064,24.977 24.9646006,24.704 L25.6035783,28.414 Z M4,28.414 L8.83271565,4 L13.7053035,4 L8.87258786,28.414 L4,28.414 Z M4,28.414" id="italics--body-grey" fill="#67737B" sketch:type="MSShapeGroup"></path>
    </g>
</svg>