<?xml version="1.0" encoding="UTF-8" standalone="no"?>
<svg width="32px" height="32px" viewBox="0 0 32 32" version="1.1" xmlns="http://www.w3.org/2000/svg" xmlns:xlink="http://www.w3.org/1999/xlink" xmlns:sketch="http://www.bohemiancoding.com/sketch/ns">
    <title>journey--body-grey</title>
    <description>Created with Sketch (http://www.bohemiancoding.com/sketch)</description>
    <defs></defs>
    <g id="Categories" stroke="none" stroke-width="1" fill="none" fill-rule="evenodd" sketch:type="MSPage">
        <path d="M31.572,22.1392964 L32,20.7058898 L30.16,20.1637617 L30.705,18.335447 L29.261,17.9136813 L28.718,19.741996 L26.879,19.2018573 L26.453,20.6372534 L28.289,21.1754026 L27.748,23.0057067 L29.189,23.4274724 L29.732,21.5991578 L31.572,22.1392964 Z M2.957,7.79727226 L2.148,7.31184379 L1.521,8.33542146 L0.492,7.7137149 L0,8.51845187 L1.031,9.14015842 L0.404,10.1637361 L1.212,10.651154 L1.837,9.6255869 L2.869,10.2492829 L3.361,9.44554068 L2.33,8.82383413 L2.957,7.79727226 Z M10.046,22.4874521 C9.906,22.2308116 9.794,21.9612397 9.711,21.6847046 C9.654,21.49869 9.457,21.3912591 9.267,21.4479587 C9.08,21.5026689 8.972,21.7006203 9.029,21.8886243 C9.125,22.210917 9.257,22.528236 9.421,22.8276499 C9.437,22.8525182 9.451,22.8793759 9.466,22.9072284 C9.562,23.0743431 9.775,23.1340269 9.947,23.0425117 C9.949,23.0405222 9.949,23.0405222 9.951,23.0405222 C10.123,22.9420439 10.183,22.7261874 10.086,22.5550938 C10.072,22.5342044 10.058,22.5103309 10.046,22.4874521 Z M14.06,24.9782572 C13.72,24.9334944 13.396,24.8668474 13.089,24.7852795 C12.902,24.7325588 12.705,24.8439686 12.652,25.0319727 C12.601,25.2209715 12.712,25.4169334 12.902,25.4696541 C13.236,25.5591798 13.591,25.628811 13.962,25.6795422 C14.041,25.6884948 14.117,25.6755633 14.181,25.6387583 C14.277,25.588027 14.347,25.4935276 14.363,25.3761494 C14.39,25.182177 14.253,25.0031255 14.06,24.9782572 Z M26.234,21.8617666 C25.925,22.0169446 25.617,22.1681436 25.312,22.3123795 C25.134,22.3959369 25.058,22.6078145 25.144,22.7848765 C25.228,22.9609438 25.441,23.0355486 25.617,22.9519912 C25.927,22.8057659 26.244,22.6505879 26.554,22.4934205 C26.558,22.491431 26.562,22.4894416 26.564,22.4894416 C26.734,22.3979264 26.8,22.1880382 26.712,22.018934 C26.625,21.8448562 26.41,21.7742303 26.234,21.8617666 Z M11.746,24.2361883 C11.464,24.075042 11.203,23.8840537 10.972,23.6741656 C10.828,23.5418664 10.603,23.5538032 10.468,23.6980391 C10.336,23.8432698 10.345,24.0670841 10.492,24.1993833 C10.759,24.4420975 11.06,24.6589488 11.386,24.849937 C11.498,24.9135998 11.63,24.9106156 11.736,24.8519265 C11.791,24.8220846 11.839,24.7773217 11.875,24.7216168 C11.97,24.5505231 11.916,24.3346666 11.746,24.2361883 Z M16.564,25.0071044 C16.218,25.0389358 15.878,25.0558462 15.554,25.0618146 C15.359,25.0638041 15.203,25.2249504 15.205,25.4209123 C15.209,25.6148847 15.369,25.7730469 15.566,25.769068 C15.908,25.7630996 16.263,25.743205 16.628,25.7123683 C16.677,25.7064 16.724,25.6934685 16.765,25.6695949 C16.886,25.6039427 16.962,25.4716436 16.951,25.3254182 C16.931,25.1314457 16.757,24.9872098 16.564,25.0071044 Z M23.908,22.9480123 C23.591,23.0842904 23.271,23.2136054 22.96,23.3379467 C22.777,23.4125515 22.687,23.6184607 22.761,23.7985069 C22.832,23.9795478 23.041,24.0690736 23.224,23.9964582 C23.541,23.8701275 23.867,23.7368336 24.189,23.5985661 C24.201,23.5925977 24.209,23.5866293 24.218,23.5836451 C24.38,23.4951141 24.449,23.3011416 24.375,23.1320375 C24.298,22.9539807 24.089,22.8704233 23.908,22.9480123 Z M19.066,24.5853387 C18.728,24.6659119 18.392,24.735543 18.07,24.7952268 C17.877,24.8320319 17.748,25.0150623 17.785,25.2090347 C17.82,25.4020124 18.005,25.5283432 18.199,25.4935276 C18.535,25.4308596 18.882,25.3572496 19.23,25.2766764 C19.261,25.2677238 19.291,25.255787 19.318,25.2418608 C19.455,25.1662613 19.533,25.0071044 19.494,24.849937 C19.451,24.6589488 19.257,24.5405758 19.066,24.5853387 Z M21.519,23.8731117 C21.191,23.9855162 20.863,24.0899629 20.545,24.185457 C20.357,24.2431514 20.25,24.4420975 20.308,24.6281121 C20.363,24.8151214 20.562,24.9215576 20.751,24.8638632 C21.078,24.7643902 21.414,24.657954 21.75,24.5405758 C21.767,24.5346074 21.787,24.5276443 21.804,24.517697 C21.955,24.4361291 22.029,24.2570776 21.97,24.0919524 C21.908,23.904943 21.705,23.8094489 21.519,23.8731117 Z M10.205,7.00049314 C9.988,6.99949841 9.763,6.99949841 9.533,7.0054668 C9.408,7.00646153 9.275,7.01242991 9.138,7.02337194 C8.943,7.03630344 8.793,7.20341816 8.806,7.39739061 C8.818,7.59335251 8.988,7.74156736 9.185,7.72963059 C9.31,7.71968328 9.433,7.7137149 9.548,7.71172544 C9.769,7.70675179 9.986,7.70675179 10.193,7.70973598 C10.255,7.70973598 10.316,7.69481502 10.367,7.66696257 C10.476,7.60727874 10.552,7.49189 10.554,7.36257504 C10.556,7.16362894 10.4,7.0054668 10.205,7.00049314 Z M12.017,14.8339957 C11.795,15.0677574 11.574,15.2875928 11.363,15.4984757 L11.296,15.5691016 C11.156,15.7063744 11.158,15.9301887 11.298,16.0684563 C11.412,16.1808608 11.586,16.1997607 11.718,16.1281401 C11.75,16.1112297 11.777,16.0913351 11.802,16.0644773 L11.869,15.9978304 C12.084,15.7829686 12.304,15.5621384 12.533,15.3243979 C12.668,15.1821514 12.664,14.9593318 12.523,14.8250432 C12.38,14.6887651 12.154,14.692744 12.017,14.8339957 Z M4.998,7.74853047 C4.802,7.79727226 4.625,7.84004567 4.464,7.87884016 C4.273,7.9255925 4.113,7.96438698 3.99,7.99323417 C3.8,8.03799704 3.679,8.22898529 3.724,8.41897882 C3.769,8.60996707 3.961,8.72834 4.154,8.68556659 C4.279,8.65472994 4.441,8.61593545 4.636,8.56719366 C4.793,8.52839917 4.97,8.4836363 5.164,8.43887343 C5.195,8.42892612 5.222,8.41897882 5.252,8.40604732 C5.388,8.32945307 5.464,8.16830673 5.425,8.00914986 C5.38,7.82114579 5.187,7.70177814 4.998,7.74853047 Z M14.335,11.6150479 C14.265,11.7980783 14.357,12.001998 14.541,12.0716292 C14.642,12.1084342 14.75,12.0994816 14.838,12.0527293 C14.91,12.0129401 14.97,11.9492773 15,11.86572 C15.14,11.5026433 15.232,11.1395667 15.275,10.7874321 C15.298,10.5934597 15.16,10.4183871 14.964,10.3935188 C14.769,10.3696453 14.591,10.5099023 14.568,10.7038747 C14.531,10.9973202 14.453,11.3036972 14.335,11.6150479 Z M13.087,14.2013471 C13.205,14.2948518 13.361,14.3038044 13.486,14.2381522 C13.523,14.2162681 13.56,14.1874209 13.589,14.1506159 C13.834,13.8551809 14.043,13.5756617 14.232,13.3001213 C14.341,13.138975 14.298,12.9171501 14.136,12.8077297 C13.974,12.6993041 13.752,12.7430722 13.642,12.9032239 C13.464,13.1638432 13.269,13.4234679 13.039,13.7039819 C12.914,13.8531915 12.937,14.0770058 13.087,14.2013471 Z M9.755,18.1255589 C9.865,18.1862375 9.994,18.1822585 10.097,18.1275484 C10.156,18.0967117 10.205,18.0489647 10.238,17.9882861 C10.38,17.7336351 10.546,17.4769946 10.732,17.2263226 C10.746,17.2084174 10.759,17.1895175 10.775,17.1696229 C10.896,17.014445 10.867,16.7906306 10.709,16.6722577 C10.554,16.5538847 10.33,16.5827319 10.21,16.7359204 C10.193,16.7617834 10.173,16.7856569 10.158,16.8085357 C9.955,17.0820866 9.773,17.3635954 9.617,17.6441094 C9.519,17.815203 9.582,18.0300648 9.755,18.1255589 Z M9.689,19.3331617 C9.738,19.1421735 9.623,18.9491958 9.433,18.900454 C9.244,18.8527069 9.048,18.9671009 9,19.155105 C8.906,19.5171869 8.849,19.8832477 8.83,20.2433401 C8.822,20.4373126 8.972,20.6044273 9.17,20.6143746 C9.236,20.6163641 9.3,20.6004484 9.357,20.5716012 C9.46,20.5129121 9.537,20.4044865 9.543,20.2761662 C9.556,19.9658103 9.607,19.6465018 9.689,19.3331617 Z M12.863,7.35859612 C12.543,7.26111253 12.185,7.18352355 11.8,7.12383972 C11.607,7.09399781 11.425,7.22828642 11.394,7.42225887 C11.365,7.61523658 11.498,7.79329334 11.693,7.82512472 C12.043,7.8768507 12.365,7.94946603 12.652,8.03600758 C12.748,8.06584949 12.845,8.05391273 12.927,8.00914986 C13.007,7.96637645 13.068,7.89475585 13.097,7.80324065 C13.156,7.61523658 13.05,7.41629049 12.863,7.35859612 Z M14.335,9.2276947 C14.361,9.27444704 14.384,9.3221941 14.408,9.37292535 C14.486,9.5539663 14.697,9.63453947 14.877,9.55595576 C14.886,9.55197684 14.896,9.54799792 14.904,9.54202954 C15.066,9.45449325 15.134,9.25853135 15.06,9.08942717 C15.029,9.02178549 14.998,8.95314909 14.961,8.88948634 C14.81,8.6109618 14.607,8.36128445 14.357,8.14542793 C14.209,8.01511824 13.984,8.03103393 13.855,8.17825404 C13.726,8.32447942 13.74,8.54928851 13.888,8.67760874 C14.074,8.83875508 14.224,9.02576441 14.335,9.2276947 Z M7.558,7.21237074 C7.236,7.26509145 6.888,7.33173839 6.527,7.40534845 C6.334,7.44414294 6.209,7.632147 6.25,7.82512472 C6.287,8.01511824 6.476,8.13747009 6.67,8.0986756 C7.023,8.02705501 7.361,7.96438698 7.675,7.91166627 C7.714,7.90470316 7.754,7.89376112 7.789,7.87287178 C7.918,7.80324065 7.994,7.65800999 7.968,7.50382677 C7.937,7.31184379 7.752,7.17954463 7.558,7.21237074 Z M7.558,7.21237074" id="journey--body-grey" fill="#67737B" sketch:type="MSShapeGroup"></path>
    </g>
</svg>