<?xml version="1.0" encoding="UTF-8" standalone="no"?>
<svg width="32px" height="32px" viewBox="0 0 32 32" version="1.1" xmlns="http://www.w3.org/2000/svg" xmlns:xlink="http://www.w3.org/1999/xlink" xmlns:sketch="http://www.bohemiancoding.com/sketch/ns">
    <title>length--body-grey</title>
    <description>Created with Sketch (http://www.bohemiancoding.com/sketch)</description>
    <defs></defs>
    <g id="Categories" stroke="none" stroke-width="1" fill="none" fill-rule="evenodd" sketch:type="MSPage">
        <path d="M15.9985,29 C9.0955,29 3.4985,23.404 3.4985,16.5 C3.4985,9.596 9.0955,4 15.9985,4 C22.9015,4 28.4985,9.596 28.4985,16.5 C28.4985,23.404 22.9015,29 15.9985,29 L15.9985,29 L15.9985,29 L15.9985,29 Z M15.9985,7.358 C10.9495,7.358 6.8555,11.449 6.8555,16.5 C6.8555,21.549 10.9495,25.643 15.9985,25.643 C21.0475,25.643 25.1405,21.549 25.1405,16.5 C25.1405,11.449 21.0475,7.358 15.9985,7.358 L15.9985,7.358 L15.9985,7.358 L15.9985,7.358 Z M21.0205,21.563 L15.9985,16.5 L15.9985,9.579 C16.0455,9.579 16.0905,9.572 16.1385,9.572 C20.0425,9.572 23.0195,12.737 23.0195,16.641 C23.0195,18.557 22.2565,20.289 21.0205,21.563 L21.0205,21.563 Z M21.0205,21.563" id="length--body-grey" fill="#67737B" sketch:type="MSShapeGroup"></path>
    </g>
</svg>