<?xml version="1.0" encoding="UTF-8" standalone="no"?>
<svg width="32px" height="32px" viewBox="0 0 32 32" version="1.1" xmlns="http://www.w3.org/2000/svg" xmlns:xlink="http://www.w3.org/1999/xlink" xmlns:sketch="http://www.bohemiancoding.com/sketch/ns">
    <title>lightbulb--body-grey</title>
    <description>Created with Sketch (http://www.bohemiancoding.com/sketch)</description>
    <defs></defs>
    <g id="Actions" stroke="none" stroke-width="1" fill="none" fill-rule="evenodd" sketch:type="MSPage">
        <path d="M21.6615781,18.8457659 L21.6687923,18.8457659 C21.6698229,18.8457659 20.8515298,19.7882519 20.3403543,21.2375068 C19.9157488,22.4328548 19.8714332,24.0816827 19.8714332,24.0816827 L19.8652496,24.0816827 C19.8652496,26.2445939 18.1348792,28 16.0005153,28 C13.8651208,28 12.1347504,26.2445939 12.1347504,24.0816827 C12.1347504,24.0816827 12.049211,22.449573 11.6668599,21.2375068 C11.2206119,19.8185535 10.3384219,18.8457659 10.3384219,18.8457659 C8.89352657,17.3777031 8,15.3516718 8,13.1124841 C8,8.63306378 11.5802899,5 16.0005153,5 C20.4197101,5 24,8.63306378 24,13.1124841 C24,15.3516718 23.1064734,17.3777031 21.6615781,18.8457659 C21.6615781,18.8457659 23.1064734,17.3777031 21.6615781,18.8457659 L21.6615781,18.8457659 L21.6615781,18.8457659 Z M14.6123027,25.8203707 L17.3856361,25.8203707 C17.6577134,25.8203707 17.8792915,25.5988552 17.8792915,25.3209159 C17.8792915,25.0471561 17.6577134,24.8245957 17.3856361,24.8245957 L14.6123027,24.8245957 C14.3422866,24.8245957 14.1207085,25.0471561 14.1207085,25.3209159 C14.1207085,25.5988552 14.3422866,25.8203707 14.6123027,25.8203707 C14.6123027,25.8203707 14.3422866,25.8203707 14.6123027,25.8203707 L14.6123027,25.8203707 L14.6123027,25.8203707 Z M14.0526892,23.445348 L17.9452496,23.445348 C18.2173269,23.445348 18.438905,23.2206978 18.438905,22.9448483 C18.438905,22.6721334 18.2173269,22.449573 17.9452496,22.449573 L14.0526892,22.449573 C13.7806119,22.449573 13.561095,22.6721334 13.561095,22.9448483 C13.561095,23.2206978 13.7806119,23.445348 14.0526892,23.445348 C14.0526892,23.445348 13.7806119,23.445348 14.0526892,23.445348 L14.0526892,23.445348 L14.0526892,23.445348 Z M18.143124,15.8782937 C17.9050564,16.0695075 17.2269243,16.4122297 16.7219324,16.4122297 C16.6611272,16.4122297 16.6044444,16.4059604 16.5549758,16.3986462 C16.9507246,15.9514356 17.5041546,15.3370434 17.4237681,14.4165001 C17.3392593,13.6234327 16.6910145,13.1208432 15.825314,13.1208432 C15.098744,13.1208432 14.2917874,13.6046248 14.2454106,14.4593404 C14.2052174,15.2534527 14.5813849,15.7142468 14.8338808,16.028757 C14.9183897,16.1332455 14.996715,16.2335544 15.0585507,16.3171452 L14.9781643,16.3171452 C14.3804187,16.3171452 13.7847343,16.047565 13.7785507,16.0454752 L12.8767794,15.621252 L14.1454428,20.4350354 L14.162963,20.4350354 C14.1609018,20.4517536 14.152657,20.4632473 14.152657,20.4778757 C14.152657,20.7411866 14.3639291,20.955388 14.6236393,20.955388 C14.8874718,20.955388 15.098744,20.7411866 15.098744,20.4778757 C15.098744,20.4632473 15.0915298,20.4517536 15.0894686,20.4350354 L15.1049275,20.4350354 L14.2278905,17.107078 C14.7895652,17.2272397 15.3028019,17.2167908 15.7315298,17.079911 C15.8294364,17.1499182 15.9283736,17.2293295 16.0468921,17.2617209 C16.5446699,17.3860621 17.1382931,17.4268126 17.8102415,17.1185717 L17.2104348,20.4350354 L17.2145572,20.4350354 L17.2104348,20.4611576 C17.2104348,20.7244685 17.4217069,20.9407596 17.6814171,20.9407596 C17.9431884,20.9407596 18.1565217,20.7244685 18.1565217,20.4611576 L18.1503382,20.4454843 L18.1565217,20.4350354 L19.1232206,15.0800018 L18.143124,15.8782937 L18.143124,15.8782937 L18.143124,15.8782937 L18.143124,15.8782937 Z M15.7995491,15.9085953 C15.475942,15.6515537 15.2079871,15.3192804 15.1172947,14.8919226 C15.0585507,14.6150282 15.1337842,14.3475377 15.3326892,14.1531892 C15.4254428,14.0612393 15.6604187,13.9776486 15.8799356,13.9839179 C16.3509179,13.9985462 16.5889855,14.3517172 16.5683736,14.6923496 C16.5529147,15.069553 16.1736554,15.6149827 15.7995491,15.9085953 L15.7995491,15.9085953 Z M15.7995491,15.9085953" id="lightbulb--body-grey" fill="#67737B" sketch:type="MSShapeGroup"></path>
    </g>
</svg>