<?xml version="1.0" encoding="UTF-8" standalone="no"?>
<svg width="32px" height="32px" viewBox="0 0 32 32" version="1.1" xmlns="http://www.w3.org/2000/svg" xmlns:xlink="http://www.w3.org/1999/xlink" xmlns:sketch="http://www.bohemiancoding.com/sketch/ns">
    <title>log-in--body-grey</title>
    <description>Created with Sketch (http://www.bohemiancoding.com/sketch)</description>
    <defs></defs>
    <g id="Functions" stroke="none" stroke-width="1" fill="none" fill-rule="evenodd" sketch:type="MSPage">
        <path d="M16.6255005,5.19227022 L16.6255005,6.03312764 L19.5435195,8.92205261 L19.5435195,7.88632673 L27.0849315,6.6976291 L27.0849315,26.1912959 L19.5435195,23.8226697 L19.5435195,22.6826892 L16.6255005,25.5735628 L16.6255005,26.0149399 L30,30 L30,3 L16.6255005,5.19227022 Z M22.3612223,15.8525495 C22.3612223,15.3312764 22.1655076,14.8080546 21.7603091,14.4085742 L14.400843,7.11562196 C13.602248,6.32445599 12.3050228,6.32445599 11.5083948,7.11562196 C10.7088163,7.90581358 10.7088163,9.19194544 11.5083948,9.97823969 L15.3341763,13.7723287 L4.0456621,13.7723287 C2.91759747,13.7723287 2,14.6765184 2,15.7979864 C2,16.9204287 2.91759747,17.8246184 4.0456621,17.8246184 L15.4462943,17.8246184 L11.5083948,21.7268594 C10.7088163,22.5131536 10.7088163,23.7992855 11.5083948,24.5894771 C12.3050228,25.3796687 13.602248,25.3796687 14.400843,24.5894771 L21.7603091,17.2974992 C22.1655076,16.8999675 22.3612223,16.3757714 22.3612223,15.8525495 Z M22.3612223,15.8525495" id="log-in--body-grey" fill="#67737B" sketch:type="MSShapeGroup"></path>
    </g>
</svg>