<?xml version="1.0" encoding="UTF-8" standalone="no"?>
<svg width="32px" height="32px" viewBox="0 0 32 32" version="1.1" xmlns="http://www.w3.org/2000/svg" xmlns:xlink="http://www.w3.org/1999/xlink" xmlns:sketch="http://www.bohemiancoding.com/sketch/ns">
    <title>lp-reviewed--body-grey</title>
    <description>Created with Sketch (http://www.bohemiancoding.com/sketch)</description>
    <defs></defs>
    <g id="Brand" stroke="none" stroke-width="1" fill="none" fill-rule="evenodd" sketch:type="MSPage">
        <path d="M24.999235,25.5879304 L16.598725,25.5879304 L10.600255,29.9999304 L10.600255,25.5879304 L7.00076498,25.5879304 C5.34942626,25.5879304 4,24.2649304 4,22.6469304 L4,7.94093039 C4,6.32293039 5.34942626,4.99993039 7.00076498,4.99993039 L24.999235,4.99993039 C26.6485338,4.99993039 28,6.32293039 28,7.94093039 L28,22.6469304 C28,24.2649304 26.6485338,25.5879304 24.999235,25.5879304 L24.999235,25.5879304 L24.999235,25.5879304 L24.999235,25.5879304 Z M11.1439014,19.4339304 L13.8488738,19.4339304 L13.8488738,8.15393039 L11.1439014,8.15393039 L11.1439014,8.15393039 L11.1439014,19.4339304 L11.1439014,19.4339304 Z M22.2840629,13.6969304 C21.9454314,13.0329304 21.5813005,12.5619304 20.9948151,12.0909304 C18.2204845,10.1189304 14.5710157,12.0839304 14.5026774,15.4019304 L14.5026774,22.4309304 L17.120952,22.4329304 L17.120952,18.9699304 L17.4157246,19.0959304 C19.8453039,19.5739304 21.5394815,18.6169304 22.2840629,17.0499304 C23.120442,15.2929304 22.2840629,13.6969304 22.2840629,13.6969304 L22.2840629,13.6969304 L22.2840629,13.6969304 L22.2840629,13.6969304 Z M18.6662133,17.0049304 C17.718657,17.0049304 16.9434764,16.2489304 16.9434764,15.3159304 C16.9434764,14.3799304 17.718657,13.6249304 18.6662133,13.6249304 C19.6188695,13.6249304 20.3960901,14.3799304 20.3960901,15.3159304 C20.3960901,16.2489304 19.6188695,17.0049304 18.6662133,17.0049304 L18.6662133,17.0049304 Z M18.6662133,17.0049304" id="lp-reviewed--body-grey" fill="#67737B" sketch:type="MSShapeGroup"></path>
    </g>
</svg>