<?xml version="1.0" encoding="UTF-8" standalone="no"?>
<svg width="32px" height="32px" viewBox="0 0 32 32" version="1.1" xmlns="http://www.w3.org/2000/svg" xmlns:xlink="http://www.w3.org/1999/xlink" xmlns:sketch="http://www.bohemiancoding.com/sketch/ns">
    <title>path--body-grey</title>
    <description>Created with Sketch (http://www.bohemiancoding.com/sketch)</description>
    <defs></defs>
    <g id="Categories" stroke="none" stroke-width="1" fill="none" fill-rule="evenodd" sketch:type="MSPage">
        <path d="M28.2329766,8 C26.1612784,8 24.4839516,9.681 24.4839516,11.755 C24.4839516,13.831 28.2329766,17.015 28.2329766,17.015 C28.2329766,17.015 31.983,13.831 31.983,11.755 C31.983,9.681 30.3056732,8 28.2329766,8 L28.2329766,8 L28.2329766,8 L28.2329766,8 Z M28.2299814,12.87 C27.57203,12.869 27.0378813,12.332 27.0378813,11.671 C27.0398781,11.011 27.5750252,10.475 28.2349734,10.476 C28.89592,10.477 29.4300687,11.013 29.4290703,11.675 C29.4270735,12.337 28.8919264,12.871 28.2299814,12.87 Z M1.11020352,17.925 C1.73221219,17.925 2.23640863,18.431 2.23640863,19.054 C2.23640863,19.675 1.73221219,20.182 1.11020352,20.182 C0.487196437,20.182 -0.017,19.675 -0.017,19.054 C-0.017,18.431 0.487196437,17.925 1.11020352,17.925 Z M28.2170021,18.924 C28.8390107,18.924 29.345204,19.429 29.345204,20.053 C29.345204,20.676 28.8390107,21.18 28.2170021,21.18 C27.5959918,21.18 27.0897985,20.676 27.0897985,20.053 C27.0897985,19.429 27.5959918,18.924 28.2170021,18.924 Z M22.3423648,23.842 C22.3293854,23.846 22.3164061,23.849 22.3044252,23.853 C21.595555,24.022 20.8956704,24.08 20.227735,24.024 C19.9611598,24.002 19.7624765,23.767 19.783443,23.499 C19.805408,23.233 20.0390357,23.034 20.3056108,23.054 C20.8737054,23.102 21.4707539,23.052 22.0817801,22.907 C22.3413664,22.846 22.601951,23.006 22.6638524,23.267 C22.7227585,23.517 22.5799861,23.765 22.3423648,23.842 C22.3423648,23.842 22.5799861,23.765 22.3423648,23.842 Z M24.3721298,23.06 C24.1524799,23.13 23.9068713,23.035 23.796048,22.824 C23.6702484,22.586 23.7601052,22.292 23.9967281,22.168 C24.6686572,21.81 25.2147868,21.42 25.552249,21.156 C25.7619149,20.99 26.0674279,21.027 26.2321654,21.239 C26.3969028,21.451 26.3589633,21.756 26.1482991,21.922 C25.7798862,22.21 25.1878298,22.636 24.4510041,23.026 C24.4260439,23.041 24.3990869,23.049 24.3721298,23.06 C24.3721298,23.06 24.3990869,23.049 24.3721298,23.06 Z M18.3347519,23.397 C18.2139444,23.435 18.0811561,23.427 17.961347,23.365 C17.3772779,23.059 16.8141753,22.646 16.2910091,22.136 C16.100313,21.949 16.0963194,21.64 16.2830218,21.449 C16.4697243,21.256 16.7772342,21.252 16.9689287,21.439 C17.4242031,21.883 17.9084313,22.241 18.4096326,22.503 C18.6482523,22.629 18.7401059,22.921 18.6163032,23.159 C18.5554002,23.277 18.4505673,23.359 18.3347519,23.397 C18.3347519,23.397 18.4505673,23.359 18.3347519,23.397 Z M15.4104126,20.556 C15.2057388,20.622 14.9771031,20.547 14.8542989,20.357 C14.6985471,20.118 14.5417969,19.863 14.393034,19.601 C14.2173141,19.289 14.0326084,18.993 13.8419124,18.721 C13.6891558,18.501 13.7430699,18.199 13.9627198,18.043 C14.1813713,17.89 14.4848876,17.945 14.6376442,18.165 C14.8443148,18.461 15.0449949,18.784 15.2386863,19.121 C15.3764667,19.367 15.5212359,19.605 15.6660052,19.828 C15.8137697,20.051 15.7498715,20.353 15.5252296,20.499 C15.4902853,20.525 15.4503489,20.543 15.4104126,20.556 C15.4104126,20.556 15.4503489,20.543 15.4104126,20.556 Z M12.9393508,17.283 C12.7845975,17.331 12.6088775,17.304 12.4760891,17.191 C12.0028434,16.791 11.4936549,16.479 10.9605046,16.263 C10.7109024,16.166 10.5910934,15.882 10.6909342,15.633 C10.7907751,15.384 11.0723264,15.264 11.3219286,15.363 C11.9509261,15.616 12.548973,15.982 13.1020914,16.449 C13.3067652,16.621 13.3317255,16.929 13.1599992,17.133 C13.1000946,17.205 13.0222187,17.256 12.9393508,17.283 C12.9393508,17.283 13.0222187,17.256 12.9393508,17.283 Z M3.59424458,18.011 C3.41053736,18.07 3.20286833,18.015 3.07107838,17.859 C2.90035047,17.652 2.92830592,17.346 3.13497654,17.175 C3.16193357,17.151 3.81389451,16.611 4.8462492,16.064 C5.08287208,15.938 5.37640426,16.029 5.50220377,16.267 C5.62800328,16.503 5.53714808,16.799 5.3015236,16.923 C4.36401775,17.421 3.76097885,17.918 3.75498839,17.921 C3.70606636,17.964 3.65115388,17.993 3.59424458,18.011 C3.59424458,18.011 3.65115388,17.993 3.59424458,18.011 Z M9.16037356,15.871 C9.11145153,15.886 9.0625295,15.894 9.01061224,15.894 C8.43852401,15.893 7.83748192,15.978 7.2214637,16.147 C6.96487264,16.218 6.69729909,16.066 6.62840888,15.807 C6.55652345,15.548 6.70927999,15.282 6.96686946,15.209 C7.66675402,15.018 8.35365926,14.921 9.01161065,14.924 C9.27918421,14.924 9.49583891,15.14 9.49583891,15.41 C9.4948405,15.624 9.35406487,15.807 9.16037356,15.871 Z M9.16037356,15.871" id="path--body-grey" fill="#67737B" sketch:type="MSShapeGroup"></path>
    </g>
</svg>