<?xml version="1.0" encoding="UTF-8" standalone="no"?>
<svg width="32px" height="32px" viewBox="0 0 32 32" version="1.1" xmlns="http://www.w3.org/2000/svg" xmlns:xlink="http://www.w3.org/1999/xlink" xmlns:sketch="http://www.bohemiancoding.com/sketch/ns">
    <title>pen-line--body-grey</title>
    <description>Created with Sketch (http://www.bohemiancoding.com/sketch)</description>
    <defs></defs>
    <g id="Actions" stroke="none" stroke-width="1" fill="none" fill-rule="evenodd" sketch:type="MSPage">
        <path d="M14.7795462,11.6964415 C16.6985462,13.7944415 18.7645462,15.7474415 20.7785462,17.7514415 C22.3855462,16.6794415 24.1395462,15.2924415 25.8875462,13.9764415 C26.3695462,13.6124415 27.1205462,12.8384415 27.7215462,12.8634415 C28.1785462,12.8834415 28.4895462,13.2764415 28.4985462,13.6434415 C28.5195462,14.3104415 27.3225462,15.0134415 26.7765462,15.4204415 C25.3565462,16.4744415 24.3135462,17.2654415 22.8325462,18.3634415 C22.3125462,18.7494415 21.3395462,19.7064415 20.7215462,19.6954415 C19.9365462,19.6854415 19.7235462,18.7284415 19.1675462,18.4764415 C18.1415462,20.0934415 17.1235462,21.8534415 16.0015462,23.6404415 C15.7375462,24.0574415 15.2855462,24.9964415 14.8895462,25.2514415 C14.3255462,25.6124415 12.8625462,25.8534415 12.1115462,26.0854415 C9.88354618,26.7744415 7.73954618,27.4044415 5.50354618,28.4704415 C5.09654618,28.6654415 4.56554618,29.0434415 4.28154618,29.0284415 C4.01254618,29.0154415 3.54154618,28.7084415 3.50254618,28.3074415 C3.46554618,27.9334415 3.84054618,27.4754415 4.05854618,27.0294415 C5.29754618,24.4834415 5.99054618,21.7664415 6.83454618,18.9744415 C6.97354618,18.5194415 7.10854618,17.9024415 7.28154618,17.6424415 C7.57254618,17.1914415 8.52054618,16.7934415 8.94754618,16.5294415 C10.6905462,15.4514415 12.3085462,14.3994415 14.0035462,13.4184415 C13.8715462,12.7164415 12.8945462,12.6974415 12.8335462,11.8644415 C12.7955462,11.3104415 13.6745462,10.3444415 14.1115462,9.75344152 C14.9895462,8.56944152 16.1705462,7.10144152 17.0555462,5.91944152 C17.4615462,5.38044152 18.1295462,4.07544152 18.7785462,4.03144152 C19.2875462,3.99844152 19.6305462,4.44244152 19.6665462,4.69644152 C19.7685462,5.40544152 18.9205462,6.10244152 18.5545462,6.58644152 C17.2425462,8.33144152 16.0365462,10.0004415 14.7795462,11.6964415 C14.7795462,11.6964415 16.0365462,10.0004415 14.7795462,11.6964415 L14.7795462,11.6964415 L14.7795462,11.6964415 Z M15.2235462,14.5314415 C13.0665462,15.9274415 10.8435462,17.2614415 8.66854618,18.6414415 C8.09154618,20.6544415 7.43854618,22.5944415 6.78054618,24.5284415 C8.30454618,23.1824415 9.92154618,21.4504415 11.4445462,19.9184415 C11.3775462,17.7574415 14.5165462,18.4314415 13.9455462,20.2524415 C13.8005462,20.7144415 13.2815462,21.1484415 12.6125462,21.0844415 C11.2555462,22.3614415 9.79954618,23.8974415 8.50254618,25.1954415 C8.33154618,25.3664415 8.02254618,25.4994415 8.05754618,25.7524415 C9.94454618,25.0644415 11.8915462,24.4374415 13.8875462,23.8614415 C15.2545462,21.6564415 16.6365462,19.4644415 18.0015462,17.2534415 C17.0415462,16.3774415 16.1805462,15.4054415 15.2235462,14.5314415 L15.2235462,14.5314415 Z M15.2235462,14.5314415" id="pen-line--body-grey" fill="#67737B" sketch:type="MSShapeGroup"></path>
    </g>
</svg>