<?xml version="1.0" encoding="UTF-8" standalone="no"?>
<svg width="32px" height="32px" viewBox="0 0 32 32" version="1.1" xmlns="http://www.w3.org/2000/svg" xmlns:xlink="http://www.w3.org/1999/xlink" xmlns:sketch="http://www.bohemiancoding.com/sketch/ns">
    <title>pin--body-grey</title>
    <description>Created with Sketch (http://www.bohemiancoding.com/sketch)</description>
    <defs></defs>
    <g id="Categories" stroke="none" stroke-width="1" fill="none" fill-rule="evenodd" sketch:type="MSPage">
        <path d="M18.968,18.2222024 C18.933,17.2492024 20.533,15.7442024 20.533,15.7442024 C20.533,15.7442024 21.933,14.2702024 22.966,14.2702024 C23.683,14.2702024 24.402,14.8082024 25.127,14.8122024 C25.3,14.8122024 25.457,14.7842024 25.617,14.7202024 C25.781,14.6542024 25.898,14.5722024 26.015,14.4742024 C26.041,14.4502024 26.076,14.4412024 26.107,14.4132024 C26.158,14.3602024 26.154,14.3392024 26.168,14.3192024 C26.625,13.7772024 26.613,12.9812024 26.107,12.4732024 L20.025,6.39420243 C19.517,5.88620243 18.72,5.87420243 18.179,6.32920243 C18.162,6.34720243 18.138,6.34220243 18.121,6.35820243 C18.058,6.42120243 18.048,6.45620243 18.025,6.48520243 C17.927,6.60120243 17.845,6.71820243 17.793,6.83520243 C17.714,7.04320243 17.685,7.19820243 17.685,7.35520243 C17.691,8.09620243 18.23,8.81620243 18.23,9.53120243 C18.23,10.5672024 16.755,11.9672024 16.755,11.9672024 C16.756,11.9662024 15.248,13.5672024 14.277,13.5312024 C12.318,13.4572024 12.164,12.9442024 10.562,13.0532024 C9.429,13.1322024 8.445,14.3102024 8.445,14.3102024 L12.146,19.1842024 L8.714,22.6172024 L5.5,26.8762024 L5.625,26.9992024 L9.884,23.7852024 L13.316,20.3542024 L18.189,24.0542024 C18.189,24.0542024 19.367,23.0692024 19.445,21.9362024 C19.556,20.3372024 19.041,20.1802024 18.968,18.2222024 Z M18.968,18.2222024" id="pin--body-grey" fill="#67737B" sketch:type="MSShapeGroup"></path>
    </g>
</svg>