<?xml version="1.0" encoding="UTF-8" standalone="no"?>
<svg width="32px" height="32px" viewBox="0 0 32 32" version="1.1" xmlns="http://www.w3.org/2000/svg" xmlns:xlink="http://www.w3.org/1999/xlink" xmlns:sketch="http://www.bohemiancoding.com/sketch/ns">
    <title>point-pin-line--body-grey</title>
    <description>Created with Sketch (http://www.bohemiancoding.com/sketch)</description>
    <defs></defs>
    <g id="Page-1" stroke="none" stroke-width="1" fill="none" fill-rule="evenodd" sketch:type="MSPage">
        <path d="M16.9801605,32 L15.2720903,31.973 L15.0139732,31.977 C15.0139732,31.953 14.938689,29.639 12.7134069,26.544 C11.865727,25.369 10.814682,24.319 9.70204098,23.209 C7.03287571,20.531 4,17.499 4,12.276 C4,5.277 9.1603862,0 15.996578,0 C22.8405915,0 28,5.277 28,12.276 C28,17.321 24.9915672,20.391 22.3321791,23.096 C21.20585,24.249 20.134273,25.339 19.2963702,26.537 C17.1131299,29.657 16.9821159,31.979 16.9801605,32 C16.9801605,32 16.9821159,31.979 16.9801605,32 L16.9801605,32 L16.9801605,32 Z M15.996578,2.012 C10.1860105,2.012 5.96716503,6.329 5.96716503,12.276 C5.96716503,16.656 8.44860879,19.141 11.0757323,21.772 C12.1932619,22.891 13.3499002,24.044 14.2953518,25.354 C15.0687253,26.432 15.6201572,27.434 16.0151546,28.322 C16.4052634,27.442 16.9469182,26.442 17.6978042,25.364 C18.6334786,24.031 19.8116267,22.836 20.9457775,21.669 C23.5641015,19.006 26.0367458,16.485 26.0367458,12.276 C26.0367458,6.329 21.8169226,2.012 15.996578,2.012 L15.996578,2.012 L15.996578,2.012 L15.996578,2.012 Z M15.9985334,17.145 C13.2883041,17.145 11.0825763,14.887 11.0825763,12.11 C11.0825763,9.339 13.2883041,7.086 15.9985334,7.086 C18.7116959,7.086 20.9174237,9.339 20.9174237,12.11 C20.9174237,14.887 18.7116959,17.145 15.9985334,17.145 L15.9985334,17.145 L15.9985334,17.145 L15.9985334,17.145 Z M15.9985334,9.093 C14.3735691,9.093 13.0458304,10.45 13.0458304,12.11 C13.0458304,13.777 14.3735691,15.131 15.9985334,15.131 C17.6274086,15.131 18.9541696,13.777 18.9541696,12.11 C18.9541696,10.45 17.6274086,9.093 15.9985334,9.093 L15.9985334,9.093 Z M15.9985334,9.093" id="point-pin-line--body-grey" fill="#67747C" sketch:type="MSShapeGroup"></path>
    </g>
</svg>