<?xml version="1.0" encoding="UTF-8" standalone="no"?>
<svg width="32px" height="32px" viewBox="0 0 32 32" version="1.1" xmlns="http://www.w3.org/2000/svg" xmlns:xlink="http://www.w3.org/1999/xlink" xmlns:sketch="http://www.bohemiancoding.com/sketch/ns">
    <title>point-pin--body-grey</title>
    <description>Created with Sketch (http://www.bohemiancoding.com/sketch)</description>
    <defs></defs>
    <g id="Page-1" stroke="none" stroke-width="1" fill="none" fill-rule="evenodd" sketch:type="MSPage">
        <path d="M15.9989697,0 C22.6279729,0 28,4.654 28,11.648 C28,18.482 21.9459088,21.417 18.7200137,25.788 C16.083455,29.357 15.9989697,32 15.9989697,32 C15.9989697,32 15.9793938,29.344 13.278956,25.788 C9.96033313,21.417 4,18.684 4,11.648 C4,4.652 9.37305744,0 15.9989697,0 M15.999,7.681 C13.7,7.681 11.839,9.542 11.839,11.841 C11.839,14.136 13.7,16 15.999,16 C18.293,16 20.161,14.136 20.161,11.841 C20.161,9.542 18.293,7.681 15.999,7.681 L15.999,7.681 Z M15.999,7.681" id="point-pin--body-grey" fill="#67747C" sketch:type="MSShapeGroup"></path>
    </g>
</svg>