<?xml version="1.0" encoding="UTF-8" standalone="no"?>
<svg width="32px" height="32px" viewBox="0 0 32 32" version="1.1" xmlns="http://www.w3.org/2000/svg" xmlns:xlink="http://www.w3.org/1999/xlink" xmlns:sketch="http://www.bohemiancoding.com/sketch/ns">
    <title>quote--body-grey</title>
    <description>Created with Sketch (http://www.bohemiancoding.com/sketch)</description>
    <defs></defs>
    <g id="Actions" stroke="none" stroke-width="1" fill="none" fill-rule="evenodd" sketch:type="MSPage">
        <path d="M27.934,23.016 C25.92,22.008 24.078,20.819 24.078,18.683 C24.078,15.895 28.971,12.688 31.043,11.739 L27.876,8 C22.754,9.959 15.675,14.528 15.675,21.059 C15.675,24.795 18.322,28 22.064,28 C25.23,28 27.359,26.041 27.934,23.016 C27.934,23.016 27.359,26.041 27.934,23.016 L27.934,23.016 L27.934,23.016 Z M13.258,23.016 C11.244,22.008 9.402,20.819 9.402,18.683 C9.402,15.895 14.297,12.688 16.369,11.739 L13.201,8 C8.078,9.959 1,14.528 1,21.059 C1,24.795 3.705,28 7.388,28 C10.496,28 12.683,26.041 13.258,23.016 L13.258,23.016 Z M13.258,23.016" id="quote--body-grey" fill="#67737B" sketch:type="MSShapeGroup"></path>
    </g>
</svg>