<?xml version="1.0" encoding="UTF-8" standalone="no"?>
<svg width="32px" height="32px" viewBox="0 0 32 32" version="1.1" xmlns="http://www.w3.org/2000/svg" xmlns:xlink="http://www.w3.org/1999/xlink" xmlns:sketch="http://www.bohemiancoding.com/sketch/ns">
    <title>restaurant-line--body-grey</title>
    <description>Created with Sketch (http://www.bohemiancoding.com/sketch)</description>
    <defs></defs>
    <g id="Page-1" stroke="none" stroke-width="1" fill="none" fill-rule="evenodd" sketch:type="MSPage">
        <path d="M27.2817739,9.239 C26.9177739,8.868 26.4537739,8.626 25.9607739,8.539 C25.8377739,8.194 25.6407739,7.88 25.3767739,7.616 C25.1047739,7.341 24.7717739,7.138 24.4067739,7.021 C24.3217739,6.545 24.0997739,6.093 23.7397739,5.726 C23.2847739,5.262 22.6517739,5 22.0007739,5 C21.3497739,5 20.7167739,5.263 20.2657739,5.724 L17.2937739,8.732 C16.6927739,9.343 16.4237739,10.216 16.5527739,11.125 C16.6617739,11.857 17.0207739,12.559 17.5617739,13.11 L19.9317739,15.516 C20.6047739,16.195 21.4787739,16.579 22.3377739,16.579 C22.9517739,16.579 23.5237739,16.387 23.9907739,16.024 L24.0717739,15.96 L24.1477739,15.887 L24.9357739,15.099 L27.2627739,12.742 C27.7327739,12.255 27.9827739,11.633 27.9827739,10.98 C27.9827739,10.33 27.7347739,9.712 27.2817739,9.239 C27.2817739,9.239 27.7347739,9.712 27.2817739,9.239 Z M26.0957739,11.556 L23.7767739,13.904 L22.9887739,14.692 C22.8127739,14.829 22.5877739,14.903 22.3377739,14.903 C21.9107739,14.903 21.4587739,14.694 21.1007739,14.334 L18.7337739,11.929 C18.4377739,11.628 18.2427739,11.258 18.1877739,10.885 C18.1317739,10.497 18.2297739,10.153 18.4607739,9.919 L21.4347739,6.906 C21.5857739,6.754 21.7937739,6.676 22.0007739,6.676 C22.2087739,6.676 22.4157739,6.754 22.5697739,6.906 C22.8787739,7.222 22.8787739,7.739 22.5697739,8.057 L19.3947739,11.277 L20.0227739,11.917 L23.0847739,8.809 C23.2367739,8.656 23.4427739,8.579 23.6507739,8.579 C23.8577739,8.579 24.0657739,8.656 24.2167739,8.809 C24.5307739,9.123 24.5307739,9.643 24.2167739,9.962 L21.1557739,13.067 L21.7487739,13.667 L24.9597739,10.406 C25.1117739,10.252 25.3207739,10.175 25.5287739,10.175 C25.7387739,10.175 25.9447739,10.252 26.0957739,10.406 C26.2437739,10.559 26.3307739,10.762 26.3307739,10.98 C26.3307739,11.198 26.2437739,11.402 26.0957739,11.556 Z M25.4027739,28.781 C24.8817739,28.781 24.1037739,28.625 23.3707739,27.886 C21.7637739,26.253 17.9537739,22.301 17.9377739,22.284 L17.5377739,21.849 L15.2417739,21.662 L15.0247739,21.431 L7.03977386,13.139 C5.59377386,11.268 5.11477386,9.638 5.55477386,8.22 C6.13877386,6.328 8.10777386,5.704 8.19077386,5.679 L8.77577386,5.488 L21.5557739,18.653 L27.1387739,24.316 C27.9567739,25.145 28.2117739,26.215 27.8177739,27.179 C27.4287739,28.135 26.4587739,28.781 25.4027739,28.781 Z M15.9937739,20.043 L18.3107739,20.232 L19.1407739,21.136 C19.2207739,21.219 22.9697739,25.105 24.5377739,26.699 C25.1447739,27.31 26.0477739,27.139 26.2897739,26.54 C26.4617739,26.122 26.2107739,25.745 25.9727739,25.504 L20.3847739,19.834 L8.33877386,7.426 C7.94977386,7.622 7.34377386,8.029 7.12977386,8.724 C6.86277386,9.583 7.25077386,10.698 8.28077386,12.039 L15.9937739,20.043 Z M6.48777386,29 C5.49477386,29 4.59777386,28.371 4.20377386,27.394 C3.77377386,26.353 4.03477386,25.168 4.88777386,24.303 C6.46877386,22.702 10.0717739,19.342 10.2237739,19.201 L10.8077739,18.655 L14.3947739,22.296 L8.38877386,28.142 C7.83477386,28.701 7.17577386,29 6.48777386,29 Z M10.7607739,20.978 C9.65177386,22.019 7.23777386,24.292 6.05477386,25.49 C5.67477386,25.874 5.55677386,26.333 5.72877386,26.752 C5.87177386,27.101 6.16877386,27.324 6.48777386,27.324 C6.79377386,27.324 7.06277386,27.119 7.23577386,26.944 L12.0327739,22.27 L10.7607739,20.978 Z M10.7607739,20.978" id="restaurant-line--body-grey" fill="#67747C" sketch:type="MSShapeGroup"></path>
    </g>
</svg>