<?xml version="1.0" encoding="UTF-8" standalone="no"?>
<svg width="32px" height="32px" viewBox="0 0 32 32" version="1.1" xmlns="http://www.w3.org/2000/svg" xmlns:xlink="http://www.w3.org/1999/xlink" xmlns:sketch="http://www.bohemiancoding.com/sketch/ns">
    <title>shopping--body-grey</title>
    <description>Created with Sketch (http://www.bohemiancoding.com/sketch)</description>
    <defs></defs>
    <g id="Page-1" stroke="none" stroke-width="1" fill="none" fill-rule="evenodd" sketch:type="MSPage">
        <path d="M25.9151126,10.3989304 L25.7947801,8.95600236 L23.1266204,8.96767024 L22.693613,8.97350418 C22.701193,8.92780498 22.708773,8.88016113 22.708773,8.83446192 C22.708773,8.77903948 22.701193,8.72653401 22.693613,8.67111157 C22.5827555,4.96753134 19.6265558,2.00194465 15.9957363,2 C12.2862742,2.00194465 9.28933201,5.08421016 9.28743701,8.88793972 L9.30070201,8.88793972 C9.30070201,8.94044519 9.31017701,8.98808904 9.32059951,9.04156683 L8.58628709,9.04351148 L6.13794737,9.05712401 L5,28.5522103 C5,28.9382227 5.14022998,29.3047887 5.41216245,29.576067 C5.68125242,29.8473452 6.02898488,30 6.40229984,30 L25.5910677,30 C25.9653301,30 26.3225376,29.8473452 26.584995,29.576067 C26.8512425,29.3047887 27,28.9382227 27,28.5522103 L25.9151126,10.3989304 L25.9151126,10.3989304 L25.9151126,10.3989304 L25.9151126,10.3989304 Z M12.0872992,8.88793972 L12.0872992,8.88793972 C12.0872992,8.88016113 12.0872992,8.87043789 12.0891942,8.86460395 C12.0891942,8.85488072 12.0910892,8.84612981 12.0910892,8.83446192 L12.0910892,8.82279404 C12.1299367,6.64090009 13.861019,4.88196687 15.9957363,4.87710525 C18.150351,4.88196687 19.8956458,6.67298677 19.8994358,8.88793972 L19.9079633,8.88793972 C19.9079633,8.92197104 19.9155433,8.95016842 19.9212283,8.98419974 L12.0711917,9.02406501 C12.0749817,8.9783658 12.0872992,8.93655589 12.0872992,8.88793972 L12.0872992,8.88793972 Z M21.7205306,24.9935063 C21.5774581,25.1471334 21.3813256,25.2307532 21.1671907,25.2307532 L10.4613894,25.2307532 C10.2482019,25.2307532 10.0577544,25.1471334 9.90615444,24.9935063 C9.75834446,24.8418238 9.67591197,24.6386082 9.67591197,24.4237247 L10.3088419,13.544397 L11.6789267,13.538563 L13.0755416,13.5288398 L18.4052285,13.5006424 L19.7952108,13.4948085 L21.2799432,13.481196 L21.3519531,14.2940584 L21.9555106,24.4237247 C21.9555106,24.6386082 21.8721306,24.8418238 21.7205306,24.9935063 L21.7205306,24.9935063 Z M21.7205306,24.9935063" id="shopping--body-grey" fill="#67747C" sketch:type="MSShapeGroup"></path>
    </g>
</svg>