<?xml version="1.0" encoding="UTF-8" standalone="no"?>
<svg width="32px" height="32px" viewBox="0 0 32 32" version="1.1" xmlns="http://www.w3.org/2000/svg" xmlns:xlink="http://www.w3.org/1999/xlink" xmlns:sketch="http://www.bohemiancoding.com/sketch/ns">
    <title>shopping-line--body-grey</title>
    <description>Created with Sketch (http://www.bohemiancoding.com/sketch)</description>
    <defs></defs>
    <g id="Page-1" stroke="none" stroke-width="1" fill="none" fill-rule="evenodd" sketch:type="MSPage">
        <path d="M24.5048333,29.8772 L7.09,29.8772 C6.53816667,29.8772 6.01475,29.6578667 5.61508333,29.2565333 C5.21816667,28.8542667 5,28.3185333 5,27.7436 L6.07983333,9.28133333 L9.00858333,9.2664 C9.44033333,6.74173333 11.2305833,3 15.7974167,3 C20.3954167,3 22.259,6.75293333 22.7329167,9.272 L25.4370833,9.26173333 L25.6130833,11.3234667 L26.5975833,27.6932 C26.5994167,28.3148 26.3803333,28.8524 25.9815833,29.2546667 C25.5929167,29.6541333 25.06675,29.8772 24.5048333,29.8772 L24.5048333,29.8772 L24.5048333,29.8772 L24.5048333,29.8772 Z M7.62075,10.9361333 L6.6335,27.7930667 C6.63533333,27.8332 6.65641667,27.9648 6.76458333,28.0758667 C6.826,28.1374667 6.93691667,28.2121333 7.09,28.2121333 L24.5048333,28.2121333 C24.6276667,28.2121333 24.7413333,28.1654667 24.8275,28.0796 C24.9200833,27.9853333 24.965,27.8714667 24.965,27.7436 L23.9401667,10.9305333 L21.2754167,10.9417333 L21.2103333,10.1801333 C21.1901667,9.95613333 20.65575,4.66413333 15.7974167,4.66413333 C10.99775,4.66413333 10.5614167,9.93746667 10.5430833,10.1624 L10.489,10.9389333 L9.06633333,10.9296 L7.62075,10.9361333 L7.62075,10.9361333 L7.62075,10.9361333 L7.62075,10.9361333 Z M20.49075,25.582 L10.775,25.582 C10.3716667,25.582 9.99033333,25.4233333 9.69975,25.134 C9.40366667,24.8306667 9.24325,24.4405333 9.24325,24.0261333 L9.86475,13.3973333 L21.3395833,13.3376 L21.4679167,14.8281333 L22.017,23.9757333 C22.02525,24.4321333 21.8639167,24.8278667 21.56875,25.1284 C21.291,25.4168 20.9078333,25.582 20.49075,25.582 L20.49075,25.582 L20.49075,25.582 L20.49075,25.582 Z M11.4056667,15.0549333 L10.885,23.9421333 L20.378,23.9178667 L19.8445,15.0110667 L11.4056667,15.0549333 L11.4056667,15.0549333 L11.4056667,15.0549333 L11.4056667,15.0549333 Z M19.0726667,10.9632 L12.72475,10.9632 L12.7898333,10.2902667 C12.8970833,9.1516 13.6716667,7.0012 15.824,7.0012 C17.9488333,7.0012 18.81325,9.13573333 18.97275,10.2632 L19.0726667,10.9632 L19.0726667,10.9632 L19.0726667,10.9632 L19.0726667,10.9632 Z M14.13,9.73586667 L17.5940833,9.73586667 C17.3575833,9.08813333 16.8488333,8.22853333 15.824,8.22853333 C14.7863333,8.22853333 14.328,9.09466667 14.13,9.73586667 L14.13,9.73586667 Z M14.13,9.73586667" id="shopping-line--body-grey" fill="#67747C" sketch:type="MSShapeGroup"></path>
    </g>
</svg>