<?xml version="1.0" encoding="UTF-8" standalone="no"?>
<svg width="32px" height="32px" viewBox="0 0 32 32" version="1.1" xmlns="http://www.w3.org/2000/svg" xmlns:xlink="http://www.w3.org/1999/xlink" xmlns:sketch="http://www.bohemiancoding.com/sketch/ns">
    <title>sight-line--body-grey</title>
    <description>Created with Sketch (http://www.bohemiancoding.com/sketch)</description>
    <defs></defs>
    <g id="Page-1" stroke="none" stroke-width="1" fill="none" fill-rule="evenodd" sketch:type="MSPage">
        <path d="M16.0069835,27 C8.45478515,27 2.53773249,18.294 2.28333215,17.927 L2,17.504 L2.28333215,17.08 C2.5297513,16.709 8.45478515,8 16.0069835,8 C23.5442172,8 29.4682534,16.709 29.7166679,17.08 L30,17.504 L29.7166679,17.927 C29.4682534,18.294 23.5442172,27 16.0069835,27 Z M3.84165895,17.504 C5.10767477,19.207 10.1537804,25.479 16.0069835,25.479 C21.8492126,25.479 26.8923252,19.211 28.1563458,17.504 C26.8923252,15.793 21.8492126,9.518 16.0069835,9.518 C10.1358227,9.518 5.10767477,15.793 3.84165895,17.504 Z M16.0069835,22.469 C13.267441,22.469 11.0416875,20.238 11.0416875,17.504 C11.0416875,14.762 13.267441,12.527 16.0069835,12.527 C18.7315613,12.527 20.9593102,14.762 20.9593102,17.504 C20.9593102,20.238 18.7315613,22.469 16.0069835,22.469 Z M16.0039906,18.91 C15.2248272,18.91 14.5963087,18.275 14.5963087,17.5 C14.5963087,16.725 15.2248272,16.09 16.0039906,16.09 C16.7761705,16.09 17.4066842,16.725 17.4066842,17.5 C17.4066842,18.275 16.7761705,18.91 16.0039906,18.91 Z M16.0069835,14.045 C14.0954892,14.045 12.5551201,15.596 12.5551201,17.504 C12.5551201,19.402 14.0954892,20.951 16.0069835,20.951 C17.9015179,20.951 19.441887,19.402 19.441887,17.504 C19.441887,15.596 17.9015179,14.045 16.0069835,14.045 Z M16.0069835,14.045" id="sight-line--body-grey" fill="#67747C" sketch:type="MSShapeGroup"></path>
    </g>
</svg>