<?xml version="1.0" encoding="UTF-8" standalone="no"?>
<svg width="32px" height="32px" viewBox="0 0 32 32" version="1.1" xmlns="http://www.w3.org/2000/svg" xmlns:xlink="http://www.w3.org/1999/xlink" xmlns:sketch="http://www.bohemiancoding.com/sketch/ns">
    <title>taxi--body-grey</title>
    <description>Created with Sketch (http://www.bohemiancoding.com/sketch)</description>
    <defs></defs>
    <g id="Transport" stroke="none" stroke-width="1" fill="none" fill-rule="evenodd" sketch:type="MSPage">
        <path d="M28.5,25.0737353 L28.5,18.1723263 C28.5,17.5593821 28.293,17.0480921 27.885,16.6314108 C27.473,16.2207684 26.975,16.0144407 26.389,16.0144407 L25.897,16.0144407 L23.893,10.3882374 C23.705,9.89204446 23.465,9.46831787 23.174,9.11403816 C22.879,8.75975845 22.486,8.58161211 21.994,8.58161211 L19.322,8.58161211 L19.322,6.60187292 C19.322,6.43882374 19.269,6.2948976 19.164,6.1751269 C19.059,6.06139506 18.924,6 18.76,6 L13.238,6 C13.076,6 12.941,6.06139506 12.836,6.1751269 C12.728,6.2948976 12.678,6.43882374 12.678,6.60187292 L12.678,8.58161211 L9.865,8.58161211 C9.371,8.58161211 8.978,8.76781026 8.685,9.13416769 C8.393,9.49851217 8.152,9.91619989 7.965,10.3882374 L5.963,16.0144407 L5.647,16.0144407 C5.035,16.0144407 4.525,16.2207684 4.115,16.6314108 C3.705,17.0480921 3.5,17.5593821 3.5,18.1723263 L3.5,25.0737353 L5.33,25.0737353 C5.307,25.3575617 5.307,25.6232715 5.33,25.8658323 C5.353,26.116445 5.363,26.2986172 5.363,26.4183879 L5.363,26.5582881 C5.363,27.2447051 5.609,27.8224225 6.102,28.2924471 C6.596,28.763478 7.18,29 7.859,29 C8.541,29 9.125,28.763478 9.619,28.2924471 C10.109,27.8224225 10.357,27.2447051 10.357,26.5582881 L10.357,26.4183879 C10.357,26.2986172 10.361,26.1637493 10.373,26.0097584 C10.385,25.856774 10.393,25.6756083 10.393,25.4632417 L10.393,25.0737353 L21.432,25.0737353 C21.455,25.4028531 21.467,25.6977507 21.467,25.9564152 L21.467,26.4183879 L21.467,26.5582881 C21.467,27.2447051 21.707,27.8224225 22.187,28.2924471 C22.668,28.763478 23.248,29 23.928,29 C24.631,29 25.225,28.763478 25.703,28.2924471 C26.184,27.8224225 26.424,27.2447051 26.424,26.5582881 L26.424,26.4183879 C26.424,26.2986172 26.437,26.116445 26.461,25.8658323 C26.484,25.6232715 26.494,25.3575617 26.494,25.0737353 L28.5,25.0737353 L28.5,25.0737353 L28.5,25.0737353 L28.5,25.0737353 Z M7.894,18.739979 C8.435,18.739979 8.902,18.9312095 9.303,19.3247418 C9.701,19.7122353 9.898,20.1893051 9.898,20.7569578 C9.898,21.2984421 9.701,21.7694731 9.303,22.1710572 C8.902,22.5716349 8.435,22.7699107 7.894,22.7699107 C7.334,22.7699107 6.859,22.5716349 6.471,22.1710572 C6.084,21.7694731 5.891,21.2984421 5.891,20.7569578 C5.891,20.1893051 6.084,19.7122353 6.471,19.3247418 C6.859,18.9312095 7.334,18.739979 7.894,18.739979 C7.894,18.739979 7.334,18.739979 7.894,18.739979 L7.894,18.739979 L7.894,18.739979 Z M23.084,15.7306144 L9.092,15.7306144 L10.603,11.0605636 L21.572,11.0605636 L23.084,15.7306144 L23.084,15.7306144 L23.084,15.7306144 L23.084,15.7306144 Z M23.822,18.739979 C24.361,18.739979 24.832,18.9312095 25.23,19.3247418 C25.627,19.7122353 25.826,20.1893051 25.826,20.7569578 C25.826,21.2984421 25.627,21.7694731 25.23,22.1710572 C24.832,22.5716349 24.361,22.7699107 23.822,22.7699107 C23.26,22.7699107 22.785,22.5716349 22.398,22.1710572 C22.012,21.7694731 21.818,21.2984421 21.818,20.7569578 C21.818,20.1893051 22.012,19.7122353 22.398,19.3247418 C22.785,18.9312095 23.26,18.739979 23.822,18.739979 L23.822,18.739979 Z M23.822,18.739979" id="taxi--body-grey" fill="#67737B" sketch:type="MSShapeGroup"></path>
    </g>
</svg>