<?xml version="1.0" encoding="UTF-8" standalone="no"?>
<svg width="32px" height="32px" viewBox="0 0 32 32" version="1.1" xmlns="http://www.w3.org/2000/svg" xmlns:xlink="http://www.w3.org/1999/xlink" xmlns:sketch="http://www.bohemiancoding.com/sketch/ns">
    <title>top-choice--body-grey</title>
    <description>Created with Sketch (http://www.bohemiancoding.com/sketch)</description>
    <defs></defs>
    <g id="Brand" stroke="none" stroke-width="1" fill="none" fill-rule="evenodd" sketch:type="MSPage">
        <path d="M7.25571814,9.3353781 L8.67580622,9.3353781 C9.51612445,9.3353781 9.98650376,8.91325118 9.98650376,8.2800608 C9.98650376,7.6185332 9.51612445,7.22376635 8.67580622,7.22376635 L3.30870862,7.22376635 C2.4683904,7.22376635 2,7.6185332 2,8.2800608 C2,8.91325118 2.4683904,9.3353781 3.30870862,9.3353781 L4.7287967,9.3353781 L4.7287967,16.1226318 C4.7287967,16.9248684 5.25884359,17.3333152 5.99275465,17.3333152 C6.72567126,17.3333152 7.25571814,16.9248684 7.25571814,16.1226318 L7.25571814,9.3353781 L7.25571814,9.3353781 L7.25571814,9.3353781 L7.25571814,9.3353781 Z M15.3953687,7 C12.1076858,7 9.93777525,9.05298301 9.93777525,12.2365235 C9.93777525,15.4181098 12.1076858,17.4740242 15.3953687,17.4740242 C18.6880239,17.4740242 20.8559454,15.4181098 20.8559454,12.2365235 C20.8559454,9.05298301 18.6880239,7 15.3953687,7 L15.3953687,7 L15.3953687,7 L15.3953687,7 Z M15.3953687,15.3614353 C13.4472226,15.3614353 12.653644,13.8273166 12.653644,12.2365235 C12.653644,10.6447533 13.4472226,9.11454318 15.3953687,9.11454318 C17.3464981,9.11454318 18.1400767,10.6447533 18.1400767,12.2365235 C18.1400767,13.8273166 17.3464981,15.3614353 15.3953687,15.3614353 L15.3953687,15.3614353 L15.3953687,15.3614353 L15.3953687,15.3614353 Z M29.9651939,10.6320504 C29.9651939,8.36507247 28.1085381,7.22376635 26.1603921,7.22376635 L23.0546953,7.22376635 C22.3973576,7.22376635 21.7917318,7.63319038 21.7917318,8.36507247 L21.7917318,16.1226318 C21.7917318,16.9248684 22.3197897,17.3333152 23.0546953,17.3333152 C23.7886063,17.3333152 24.3166643,16.9248684 24.3166643,16.1226318 L24.3166643,14.0247001 L26.235971,14.0247001 C28.638585,14.0247001 29.9651939,12.5873188 29.9651939,10.6320504 C29.9651939,10.6320504 29.9651939,12.5873188 29.9651939,10.6320504 L29.9651939,10.6320504 L29.9651939,10.6320504 Z M25.6741014,11.9961457 L24.3166643,11.9961457 L24.3166643,9.25232072 L25.6741014,9.25232072 C26.6725387,9.25232072 27.3447933,9.73112209 27.3447933,10.6320504 C27.3447933,11.333641 26.7501065,11.9961457 25.6741014,11.9961457 L25.6741014,11.9961457 L25.6741014,11.9961457 L25.6741014,11.9961457 Z M6.2612587,23.4140926 C5.90424776,23.4140926 5.76999574,23.6808534 4.9127717,23.6808534 C3.97300753,23.6808534 3.48174457,22.8913197 3.48174457,21.9728028 C3.48174457,21.0777374 3.9222901,20.2149178 5.03210683,20.2149178 C5.56414263,20.2149178 5.90424776,20.4943814 6.22645262,20.4943814 C6.58147464,20.4943814 6.81815599,20.1846262 6.81815599,19.8660768 C6.81815599,19.1752348 5.82767439,18.9475599 4.99829521,18.9475599 C3.18639011,18.9475599 2.00994459,20.2149178 2.00994459,21.9728028 C2.00994459,23.6329732 3.07600511,25 4.97144481,25 C5.72723398,25 6.86887342,24.7508279 6.86887342,24.0228544 C6.86887342,23.8538082 6.8032391,23.4140926 6.2612587,23.4140926 L6.2612587,23.4140926 L6.2612587,23.4140926 L6.2612587,23.4140926 Z M11.7964199,19.0286629 C11.3986362,19.0286629 11.1112374,19.2631779 11.1112374,19.7273221 L11.1112374,21.289778 L8.55348771,21.289778 L8.55348771,19.7273221 C8.55348771,19.2631779 8.26608893,19.0286629 7.8673107,19.0286629 C7.46952692,19.0286629 7.18411706,19.2631779 7.18411706,19.7273221 L7.18411706,24.2202378 C7.18411706,24.6824277 7.46952692,24.9169426 7.8673107,24.9169426 C8.26608893,24.9169426 8.55348771,24.6824277 8.55348771,24.2202378 L8.55348771,22.5102329 L11.1112374,22.5102329 L11.1112374,24.2202378 C11.1112374,24.6824277 11.3986362,24.9169426 11.7964199,24.9169426 C12.1932093,24.9169426 12.482597,24.6824277 12.482597,24.2202378 L12.482597,19.7273221 C12.482597,19.2631779 12.1932093,19.0286629 11.7964199,19.0286629 L11.7964199,19.0286629 L11.7964199,19.0286629 L11.7964199,19.0286629 Z M15.9532604,18.9475599 C14.1682057,18.9475599 12.9897713,20.1347918 12.9897713,21.9728028 C12.9897713,23.8108137 14.1682057,25 15.9532604,25 C17.740304,25 18.9167495,23.8108137 18.9167495,21.9728028 C18.9167495,20.1347918 17.740304,18.9475599 15.9532604,18.9475599 L15.9532604,18.9475599 L15.9532604,18.9475599 L15.9532604,18.9475599 Z M15.9532604,23.7785679 C14.8951556,23.7785679 14.4635602,22.8913197 14.4635602,21.9728028 C14.4635602,21.0542859 14.8951556,20.1660605 15.9532604,20.1660605 C17.0123597,20.1660605 17.4449496,21.0542859 17.4449496,21.9728028 C17.4449496,22.8913197 17.0123597,23.7785679 15.9532604,23.7785679 L15.9532604,23.7785679 L15.9532604,23.7785679 L15.9532604,23.7785679 Z M20.1101009,19.0286629 C19.7133115,19.0286629 19.4259128,19.2631779 19.4259128,19.7273221 L19.4259128,24.2202378 C19.4259128,24.6824277 19.7133115,24.9169426 20.1101009,24.9169426 C20.5098736,24.9169426 20.7952834,24.6824277 20.7952834,24.2202378 L20.7952834,19.7273221 C20.7952834,19.2631779 20.5098736,19.0286629 20.1101009,19.0286629 L20.1101009,19.0286629 L20.1101009,19.0286629 L20.1101009,19.0286629 Z M25.5557608,23.4140926 C25.1987498,23.4140926 25.0625089,23.6808534 24.2102571,23.6808534 C23.270493,23.6808534 22.7782355,22.8913197 22.7782355,21.9728028 C22.7782355,21.0777374 23.2177866,20.2149178 24.3285978,20.2149178 C24.8626225,20.2149178 25.1987498,20.4943814 25.5209547,20.4943814 C25.8769712,20.4943814 26.1136525,20.1846262 26.1136525,19.8660768 C26.1136525,19.1752348 25.1251598,18.9475599 24.2937917,18.9475599 C22.4808922,18.9475599 21.3064356,20.2149178 21.3064356,21.9728028 C21.3064356,23.6329732 22.3724961,25 24.2659469,25 C25.0197471,25 26.1663589,24.7508279 26.1663589,24.0228544 C26.1663589,23.8538082 26.0957522,23.4140926 25.5557608,23.4140926 L25.5557608,23.4140926 L25.5557608,23.4140926 L25.5557608,23.4140926 Z M29.3168064,23.6505619 L27.8479898,23.6505619 L27.8479898,22.5669073 L29.1457593,22.5669073 C29.5783492,22.5669073 29.8309419,22.3314152 29.8309419,21.9571684 C29.8309419,21.5819445 29.5783492,21.3464524 29.1457593,21.3464524 L27.8479898,21.3464524 L27.8479898,20.296998 L29.2641,20.296998 C29.694701,20.296998 29.9472936,20.0673688 29.9472936,19.686282 C29.9472936,19.3198523 29.694701,19.0745888 29.2641,19.0745888 L27.1638017,19.0745888 C26.8087797,19.0745888 26.4766302,19.3130123 26.4766302,19.7361164 L26.4766302,24.208512 C26.4766302,24.6316161 26.8087797,24.8680853 27.1638017,24.8680853 L29.3168064,24.8680853 C29.7474073,24.8680853 30,24.6267304 30,24.2603007 C30,23.8772596 29.7474073,23.6505619 29.3168064,23.6505619 L29.3168064,23.6505619 Z M29.3168064,23.6505619" id="top-choice--body-grey" fill="#67737B" sketch:type="MSShapeGroup"></path>
    </g>
</svg>