<?xml version="1.0" encoding="UTF-8" standalone="no"?>
<svg width="32px" height="32px" viewBox="0 0 32 32" version="1.1" xmlns="http://www.w3.org/2000/svg" xmlns:xlink="http://www.w3.org/1999/xlink" xmlns:sketch="http://www.bohemiancoding.com/sketch/ns">
    <title>tour-line--body-grey</title>
    <description>Created with Sketch (http://www.bohemiancoding.com/sketch)</description>
    <defs></defs>
    <g id="Page-1" stroke="none" stroke-width="1" fill="none" fill-rule="evenodd" sketch:type="MSPage">
        <path d="M16,3 C8.832,3 3,8.834 3,16.001 C3,23.168 8.832,29 16,29 C23.166,29 29,23.168 29,16.001 C29,8.834 23.166,3 16,3 Z M16,27.016 C9.924,27.016 4.982,22.073 4.982,16.001 C4.982,9.924 9.924,4.984 16,4.984 C22.074,4.984 27.015,9.924 27.015,16.001 C27.015,22.073 22.074,27.016 16,27.016 Z M16,6.938 C11.002,6.938 6.939,11.004 6.939,16.001 C6.939,20.998 11.002,25.062 16,25.062 C20.994,25.062 25.062,20.998 25.062,16.001 C25.062,11.004 20.994,6.938 16,6.938 Z M13.035,18.963 L16.965,16.83 L18.963,13.034 L15.17,15.035 L13.035,18.963 Z M16,23.678 C11.763,23.678 8.322,20.232 8.322,16.001 C8.322,11.766 11.763,8.322 16,8.322 C20.232,8.322 23.679,11.766 23.679,16.001 C23.679,20.232 20.232,23.678 16,23.678 Z M16,23.678" id="tour-line--body-grey" fill="#67747C" sketch:type="MSShapeGroup"></path>
    </g>
</svg>