<?xml version="1.0" encoding="UTF-8" standalone="no"?>
<svg width="32px" height="32px" viewBox="0 0 32 32" version="1.1" xmlns="http://www.w3.org/2000/svg" xmlns:xlink="http://www.w3.org/1999/xlink" xmlns:sketch="http://www.bohemiancoding.com/sketch/ns">
    <title>tour-pin--body-grey</title>
    <description>Created with Sketch (http://www.bohemiancoding.com/sketch)</description>
    <defs></defs>
    <g id="Page-1" stroke="none" stroke-width="1" fill="none" fill-rule="evenodd" sketch:type="MSPage">
        <path d="M16,0 C22.6284341,0 28,4.654 28,11.648 C28,18.482 21.9453984,21.417 18.7197802,25.788 C16.0824176,29.357 16,32 16,32 C16,32 15.9793956,29.344 13.2771291,25.788 C9.96188187,21.417 4,18.684 4,11.648 C4,4.652 9.37156593,0 16,0 M16.0112798,18.2574463 C19.8809585,18.2574463 23.0145029,15.1239018 23.0145029,11.2552179 C23.0145029,7.3905131 19.8809585,4.251 16.0112798,4.251 C12.1435906,4.251 9.00805664,7.3905131 9.00805664,11.2552179 C9.00805664,15.1239018 12.1435906,18.2574463 16.0112798,18.2574463 C16.0112798,18.2574463 12.1435906,18.2574463 16.0112798,18.2574463 L16.0112798,18.2574463 L16.0112798,18.2574463 Z M16.0112798,6.54694304 C18.6146086,6.54694304 20.7205494,8.65586819 20.7205494,11.2552179 C20.7205494,13.8565572 18.6146086,15.9634928 16.0112798,15.9634928 C13.4099405,15.9634928 11.3030049,13.8565572 11.3030049,11.2552179 C11.3030049,8.65586819 13.4099405,6.54694304 16.0112798,6.54694304 C16.0112798,6.54694304 13.4099405,6.54694304 16.0112798,6.54694304 L16.0112798,6.54694304 L16.0112798,6.54694304 Z M16.9314476,12.1773753 L18.9796914,8.28481674 L15.0881276,10.3330606 L12.9045943,14.3599139 L16.9314476,12.1773753 L16.9314476,12.1773753 L16.9314476,12.1773753 L16.9314476,12.1773753 Z M15.4890224,10.9289314 L16.3335872,11.7774753 L14.4842986,12.7821991 L15.4890224,10.9289314 L15.4890224,10.9289314 Z M15.4890224,10.9289314" id="tour-pin--body-grey" fill="#67747C" sketch:type="MSShapeGroup"></path>
    </g>
</svg>