<?xml version="1.0" encoding="UTF-8" standalone="no"?>
<svg width="32px" height="32px" viewBox="0 0 32 32" version="1.1" xmlns="http://www.w3.org/2000/svg" xmlns:xlink="http://www.w3.org/1999/xlink" xmlns:sketch="http://www.bohemiancoding.com/sketch/ns">
    <title>tram--body-grey</title>
    <description>Created with Sketch (http://www.bohemiancoding.com/sketch)</description>
    <defs></defs>
    <g id="Transport" stroke="none" stroke-width="1" fill="none" fill-rule="evenodd" sketch:type="MSPage">
        <path d="M23.756,6.67879901 L17.729,6.67879901 L18.547,4.19214334 L21.311,4.19214334 C21.912,4.19214334 22.402,3.69825324 22.402,3.09708374 C22.402,2.4938901 21.912,2 21.311,2 L10.692,2 C10.089,2 9.598,2.4938901 9.598,3.09708374 C9.598,3.69825324 10.089,4.19214334 10.692,4.19214334 L13.955,4.19214334 L13.139,6.67879901 L8.245,6.67879901 C6.736,6.67879901 5.5,7.68479646 5.5,8.91041307 L5.5,22.8405428 C5.5,24.0347852 6.676,25.0124447 8.131,25.060012 L7.141,26.6580703 C6.961,26.9120999 6.866,27.2086363 6.866,27.5193418 C6.866,28.3320339 7.522,29 8.33,29 C8.83,29 9.294,28.7449584 9.567,28.3097683 L11.578,25.0721568 L20.424,25.0721568 L22.434,28.3097683 C22.709,28.7449584 23.17,29 23.67,29 C24.479,29 25.135,28.3320339 25.135,27.5193418 C25.135,27.2086363 25.04,26.9120999 24.859,26.6580703 L23.87,25.0640603 C25.325,25.0124447 26.5,24.0347852 26.5,22.8405428 L26.5,8.91041307 C26.5,7.68479646 25.266,6.67879901 23.756,6.67879901 M15.997,23.6886573 C14.838,23.6886573 13.895,22.7869031 13.895,21.6817228 C13.895,20.5714821 14.838,19.671752 15.997,19.671752 C17.158,19.671752 18.102,20.5714821 18.102,21.6817228 C18.102,22.7869031 17.158,23.6886573 15.997,23.6886573 M24.107,17.3470275 C24.107,17.9583177 23.49,18.4643527 22.736,18.4643527 L9.266,18.4643527 C8.51,18.4643527 7.894,17.9583177 7.894,17.3470275 L7.894,9.99433991 C7.894,9.3830497 8.51,8.87903891 9.266,8.87903891 L22.736,8.87903891 C23.49,8.87903891 24.107,9.3830497 24.107,9.99433991 L24.107,17.3470275" id="tram--body-grey" fill="#67737B" sketch:type="MSShapeGroup"></path>
    </g>
</svg>