<?xml version="1.0" encoding="UTF-8" standalone="no"?>
<svg width="32px" height="32px" viewBox="0 0 32 32" version="1.1" xmlns="http://www.w3.org/2000/svg" xmlns:xlink="http://www.w3.org/1999/xlink" xmlns:sketch="http://www.bohemiancoding.com/sketch/ns">
    <title>trash--body-grey</title>
    <description>Created with Sketch (http://www.bohemiancoding.com/sketch)</description>
    <defs></defs>
    <g id="Actions" stroke="none" stroke-width="1" fill="none" fill-rule="evenodd" sketch:type="MSPage">
        <path d="M25.4545017,6.09339286 L20.8218584,6.09339286 L20.8218584,4.28439286 C20.8218584,3.02503571 19.807896,2 18.5560905,2 L14.2171401,2 C12.9624458,2 11.9465575,3.02503571 11.9465575,4.28439286 L11.9465575,6.09339286 L6.54164661,6.09339286 C5.68945595,6.09339286 5,6.78285714 5,7.64396429 L5,8.14057143 C5,8.99782143 5.68945595,9.695 6.54164661,9.695 L25.4545017,9.695 C26.3057294,9.695 27,8.99782143 27,8.14057143 L27,7.64396429 C27,6.78285714 26.3057294,6.09339286 25.4545017,6.09339286 L25.4545017,6.09339286 L25.4545017,6.09339286 L25.4545017,6.09339286 Z M18.9431873,6.09339286 L13.8223399,6.09339286 L13.8223399,4.28439286 C13.8223399,4.06935714 14.0004815,3.88807143 14.2171401,3.88807143 L18.5560905,3.88807143 C18.7698604,3.88807143 18.9431873,4.06935714 18.9431873,4.28439286 L18.9431873,6.09339286 Z M24.0139624,11.6573214 L7.87722677,11.6573214 C7.02503611,11.6573214 6.33269138,12.3525714 6.33269138,13.2088571 L6.33269138,27.4475 C6.33269138,28.3008929 7.02503611,29 7.87722677,29 L24.0139624,29 C24.8613385,29 25.5556091,28.3008929 25.5556091,27.4475 L25.5556091,13.2088571 C25.5556091,12.3525714 24.8613385,11.6573214 24.0139624,11.6573214 Z M11.7433799,24.3328571 C11.7433799,24.9914643 11.211844,25.5266429 10.5532017,25.5266429 L10.3991334,25.5266429 C9.74626866,25.5266429 9.21762157,24.9914643 9.21762157,24.3328571 L9.21762157,15.9532143 C9.21762157,15.2965357 9.74626866,14.7632857 10.3991334,14.7632857 L10.5532017,14.7632857 C11.211844,14.7632857 11.7433799,15.2965357 11.7433799,15.9532143 L11.7433799,24.3328571 Z M17.1396245,24.3328571 C17.1396245,24.9914643 16.6109774,25.5266429 15.9619644,25.5266429 L15.8021184,25.5266429 C15.1482908,25.5266429 14.6196437,24.9914643 14.6196437,24.3328571 L14.6196437,15.9532143 C14.6196437,15.2965357 15.1482908,14.7632857 15.8021184,14.7632857 L15.9619644,14.7632857 C16.6109774,14.7632857 17.1396245,15.2965357 17.1396245,15.9532143 L17.1396245,24.3328571 Z M22.550313,24.3328571 C22.550313,24.9914643 22.0178142,25.5266429 21.3659124,25.5266429 L21.2060664,25.5266429 C20.5532017,25.5266429 20.0245546,24.9914643 20.0245546,24.3328571 L20.0245546,15.9532143 C20.0245546,15.2965357 20.5532017,14.7632857 21.2060664,14.7632857 L21.3659124,14.7632857 C22.0178142,14.7632857 22.550313,15.2965357 22.550313,15.9532143 L22.550313,24.3328571 Z M22.550313,24.3328571" id="trash--body-grey" fill="#67737B" sketch:type="MSShapeGroup"></path>
    </g>
</svg>