<?xml version="1.0" encoding="UTF-8" standalone="no"?>
<svg width="32px" height="32px" viewBox="0 0 32 32" version="1.1" xmlns="http://www.w3.org/2000/svg" xmlns:xlink="http://www.w3.org/1999/xlink" xmlns:sketch="http://www.bohemiancoding.com/sketch/ns">
    <title>video-line--body-grey</title>
    <description>Created with Sketch (http://www.bohemiancoding.com/sketch)</description>
    <defs></defs>
    <g id="Categories" stroke="none" stroke-width="1" fill="none" fill-rule="evenodd" sketch:type="MSPage">
        <path d="M28.4517088,29 L3.55225359,29 C1.59187717,29 0,27.393 0,25.414 L0,7.586 C0,5.608 1.59187717,4 3.55225359,4 L28.4517088,4 C30.4081228,4 32,5.608 32,7.586 L32,25.414 C32,27.393 30.4081228,29 28.4517088,29 Z M3.55225359,5.834 C2.59237246,5.834 1.81475978,6.619 1.81475978,7.586 L1.81475978,25.414 C1.81475978,26.383 2.59237246,27.166 3.55225359,27.166 L28.4517088,27.166 C29.4076275,27.166 30.1852402,26.383 30.1852402,25.414 L30.1852402,7.586 C30.1852402,6.619 29.4076275,5.834 28.4517088,5.834 L3.55225359,5.834 Z M11.7087667,10.1 L11.7087667,22.901 L22.2724121,16.498 L11.7087667,10.1 Z M13.7097573,13.664 L18.3853393,16.498 L13.7097573,19.33 L13.7097573,13.664 Z M13.7097573,13.664" id="video-line--body-grey" fill="#67737B" sketch:type="MSShapeGroup"></path>
    </g>
</svg>