<svg xmlns="http://www.w3.org/2000/svg" width="384" height="550"><g><g fill="#fff"><path d="M263.763 232.895c.379.189.774.286 1.174.286h.001c1.577 0 2.806-1.479 3.16-2.869.365-1.431-.129-2.713-1.305-3.354-.379-.189-.773-.285-1.174-.285-1.578 0-2.807 1.478-3.161 2.869-.364 1.43.13 2.713 1.305 3.353zM332.183 263.788c-.801-.642-2.025-.485-2.667.32l-2.194 2.685c-.333.362-.665.732-1 1.104-1.01 1.124-2.055 2.286-3.158 3.298-2.729 2.592-5.271 4.539-7.739 5.937-1.576.742-3.652 1.594-5.732 1.594-.256 0-.512-.013-.819-.042-.925 0-1.927-.404-2.7-1.062-.87-.979-1.11-2.455-1.228-3.727 0-1.898.31-3.872.921-5.867.076-.102.119-.221.146-.313l.153-.036.247-.047 1.604-.386c.979-.245 1.992-.498 2.977-.868 3.425-1.096 6.357-2.399 8.987-4.001 3.598-2.491 7.618-6.421 6.339-11.022-.768-2.305-3.009-3.681-5.995-3.681-.562 0-1.134.05-1.706.149-2.334.444-4.734 1.812-7.132 4.059-3.551 3.271-6.422 7.507-8.308 12.255l-4.411 5.39c-2.041 2.401-4.151 4.885-6.479 6.968l-.21.212c-.803.813-2.474 2.507-3.691 2.507-.272 0-.493-.087-.681-.26-.468-.468-.468-1.444-.468-2.229 0-1.326.207-2.858.595-4.413.569-1.992 1.467-4.969 2.684-7.808l4.792-11.059c4.421-9.522 8.473-19.371 12.391-28.896l1.009-2.453c.22-.439.258-.904.11-1.347-.164-.49-.545-.906-1.099-1.182-.238-.102-.477-.153-.709-.153-1.456 0-2.167 1.919-2.638 3.188-.095.257-.18.487-.263.675l-2.217 5.294c-1.782 4.408-4.484 10.999-7.374 17.329-.423.975-.854 1.959-1.294 2.951-.242-.37-.643-.666-1.227-.783-.627-.125-1.275-.255-2.047-.255h-.001c-3.805-.117-7.719.987-11.691 3.259-2.827 1.53-5.559 3.673-8.117 6.365-2.087 2.178-3.85 4.378-5.24 6.539-.564.419-1.051 1.039-1.445 1.542l-.353.438c-1.438 1.799-3.003 3.61-4.649 5.383-1.684 1.805-3.426 3.671-5.37 5.373-.983.842-1.923 1.508-2.851 2.023l-.171.087c-.385.196-.966.494-1.365.494l-.077-.005c-.042-.1-.123-.38-.126-1.053-.103-.818-.025-1.725.234-2.769.535-2.14 1.31-4.384 2.438-7.068 2.052-5.129 4.538-10.341 7.608-15.95l.259-.464c.196-.337.399-.685.504-1.062.202-.438.204-.927.005-1.38-.236-.538-.719-.945-1.362-1.128-.114-.023-.226-.033-.334-.033-.419 0-1.044.166-1.622.938l-2.7 3.192-8.37 9.601-1.229 1.475c-.172.09-.327.205-.485.365l-1.402 1.643c-2.455 2.881-4.993 5.859-7.69 8.557-.996 1.106-2.26 2.289-3.74 3.501-.887.665-1.939 1.394-3.252 1.633-.185.041-.379.062-.577.062-.83 0-1.545-.355-1.819-.904-.655-1.312-.447-3.006-.202-4.481.363-1.935.983-3.793 1.583-5.591.282-.849.645-1.554 1.027-2.301l.274-.544c.61-.976 1.241-1.985 1.738-2.979 1.588-2.949 3.271-6.156 4.813-9.627l.257-.531c.535-1.072 1.269-2.542.809-3.622-.196-.461-.575-.782-1.118-.952-.774-.258-1.543-.386-2.313-.514-3.996-.472-8.42.373-12.574 2.382-2.928 1.406-5.784 3.422-8.485 5.986-2.74 2.522-4.876 5.048-6.525 7.717-.652.467-1.238 1.197-1.714 1.79l-.398.486-3.809 4.178-.501.547c-1.804 1.987-7.295 8.035-10.387 8.035-.787 0-1.324-.412-1.692-1.305-.695-1.62-.571-3.491-.335-5.262.241-1.567.608-3.157 1.097-4.743.459-1.724 1.04-3.507 1.829-5.61l1.113-2.97.465-1.41c.236-.473.459-.792.811-1.15 4.112-5.322 8.366-10.826 12.425-16.36 3.128-4.171 6.429-8.702 9.375-13.57l.262-.436c1.062-1.762 2.159-3.584 2.849-5.54.989-2.475 1.363-6.973-1.831-8.5-.626-.326-1.297-.492-1.993-.492-2.806 0-5.306 2.668-6.238 3.801-1.983 2.231-3.491 4.979-4.869 7.61l-.05.1c-1.437 2.873-2.921 5.845-4.263 8.771-1.976 4.323-3.728 8.829-5.414 13.168-1.084 2.491-2.149 5.154-3.434 8.585-.109.219-.195.437-.278.645-.103.26-.19.483-.305.654l-.069.156c-.062.246-.299.55-.509.817l-.247.331c-.265.309-.513.617-.757.92-.438.542-.85 1.054-1.35 1.56l-2.939 3.798-.427.471c-.352.376-.786.841-1.124 1.332-.116.093-.215.189-.296.292l-2.194 2.685c-.333.362-.665.732-.999 1.104-1.011 1.125-2.056 2.287-3.159 3.299-2.729 2.592-5.271 4.539-7.739 5.937-1.576.742-3.652 1.594-5.732 1.594-.256 0-.512-.013-.819-.042-.925 0-1.927-.404-2.7-1.062-.87-.979-1.11-2.455-1.228-3.727 0-1.898.31-3.872.921-5.867.076-.102.12-.221.146-.313l.153-.036.247-.047 1.604-.386c.979-.245 1.992-.498 2.977-.868 3.425-1.096 6.357-2.399 8.987-4.001 3.598-2.491 7.618-6.421 6.339-11.022-.768-2.305-3.009-3.681-5.995-3.681-.562 0-1.134.05-1.706.149-2.334.444-4.734 1.812-7.132 4.059-3.551 3.271-6.422 7.507-8.308 12.255l-4.41 5.389c-2.041 2.402-4.152 4.885-6.479 6.969l-.21.212c-.803.813-2.474 2.507-3.691 2.507-.272 0-.493-.087-.681-.26-.468-.468-.468-1.444-.468-2.229 0-1.326.207-2.858.595-4.413.569-1.992 1.467-4.969 2.684-7.808l4.792-11.059c4.421-9.522 8.473-19.37 12.391-28.894l1.009-2.455c.22-.439.258-.904.11-1.347-.164-.49-.545-.906-1.099-1.182-.238-.102-.477-.153-.709-.153-1.456 0-2.167 1.919-2.638 3.188-.095.257-.18.487-.263.675l-2.217 5.294c-1.781 4.407-4.484 10.998-7.374 17.329-.423.975-.854 1.959-1.294 2.951-.242-.37-.643-.666-1.227-.783-.627-.125-1.275-.255-2.047-.255h-.001c-3.82-.117-7.718.987-11.691 3.259-2.827 1.53-5.559 3.673-8.117 6.365-2.024 2.112-3.746 4.247-5.117 6.347-.132.104-.239.214-.314.321-3.443 4.156-7.167 8.523-11.488 12.228-1.638 1.311-3.882 3.105-6.191 3.592-1.213.27-2.326.128-3.022-.395-.414-.331-.669-.859-.806-1.675-.462-2.312.353-5.029 1.095-7.507 1.14-3.796 2.684-7.615 4.043-10.9 1.222-3.007 2.488-5.88 3.828-8.922l1.214-2.76c2.796-6.808 5.762-13.73 8.63-20.425l4.465-10.659c.522-.354.84-1.036.837-1.876-.142-1.278-1.688-2.036-2.818-2.59l-.308-.237c-2.956-1.284-6.47-1.479-9.551-1.479h-.012c-3.366 0-6.946.807-10.953 1.952-12.165 3.718-23.529 12.653-31.995 25.08-4.684 6.75-7.813 13.617-9.301 20.368-1.341 6.107-1.253 11.464.258 15.889.968 3.045 2.831 5.591 5.241 7.158 1.875 1.25 4.119 1.885 6.671 1.885.828 0 1.683-.068 2.543-.206 7.39-1.209 13.729-6.692 17.854-10.71 2.615-2.528 5.251-5.505 8.004-9.043-1.02 2.708-1.98 5.456-2.685 8.184-.778 2.852-1.375 5.857-.49 8.511.762 2.613 3.071 4.236 6.026 4.236.343 0 .691-.022 1.04-.068 2.374-.323 4.755-1.448 7.493-3.542 2.256-1.735 4.533-3.831 6.932-6.381-.302 3.869 1.038 6.691 3.845 8.026 2.616 1.364 6.04.986 10.047-1.103 2.921-1.46 5.549-3.609 8.28-6.772l.302-.362c-.502 2.484-.709 5.489 1.014 7.618.877 1.079 2.072 1.649 3.456 1.649 1.032 0 2.141-.316 3.199-.912 2.34-1.287 4.295-3.373 6.187-5.391l.464-.495c.926-1.035 1.997-2.269 3.14-3.617-.129 2.179.144 4.014.824 5.58 1.108 2.462 3.342 4.05 6.303 4.474.438.05.888.075 1.334.075 5.42 0 10.333-3.618 13.564-6.346 1.783-1.56 3.514-3.251 5.456-5.332l2.985-3.361.168-.231.357-.502c.222-.136.406-.291.573-.488l.641-.851c-.95 3.042-1.762 6.159-1.664 9.302.133 3.562 1.755 7.368 5.884 7.367 2.322.137 4.208-1.078 6.107-2.436 2.191-1.644 4.363-3.696 6.826-6.45-.066.469-.108.925-.126 1.377 0 3.166 1.202 5.783 3.294 7.177 1.158.79 2.567 1.19 4.186 1.19 1.764 0 3.773-.496 5.673-1.405 2.507-1.3 4.989-3.41 7.556-6.427-.229 2.853.175 6.073 3.312 7.418 2.686 1.288 5.855.492 9.133-2.271 2.874-2.234 5.285-5.006 7.616-7.685l1.196-1.371c1.096-1.34 2.332-2.7 3.43-3.906.234-.129.442-.303.619-.515l3.186-3.751c-1.203 2.681-2.244 5.183-3.178 7.813-.903 2.582-1.754 5.335-1.378 8.086.084.841.459 2.888 2.104 3.711.483.261 1.034.393 1.635.393 1.475 0 3-.79 4.021-1.386 2.146-1.263 4.036-3.03 5.758-4.751.932-.932 1.87-1.929 2.947-3.134-.3 3.865 1.039 6.685 3.847 8.02 2.616 1.364 6.041.986 10.047-1.103 2.921-1.46 5.549-3.609 8.279-6.771l.303-.363c-.502 2.484-.709 5.489 1.014 7.618.877 1.079 2.072 1.649 3.456 1.649 1.032 0 2.141-.316 3.199-.912 2.34-1.287 4.295-3.373 6.186-5.391l.465-.495c.927-1.035 1.997-2.27 3.14-3.617-.129 2.179.144 4.014.824 5.58 1.108 2.462 3.342 4.05 6.303 4.474.438.05.887.075 1.334.075h.001c5.418 0 10.332-3.618 13.563-6.346 1.783-1.56 3.514-3.251 5.456-5.332l2.985-3.362.188-.257c.624-.857 1.683-2.291.323-3.499zm-24.369-.477c1.44-2.917 3.159-5.487 5.113-7.646 2.44-2.604 4.63-3.961 6.712-4.151.257-.034.52-.053.779-.053.923 0 1.64.233 2.019.657.283.316.391.743.333 1.271-.248 1.362-1.198 2.548-1.964 3.314-3.45 3.689-8.858 5.535-12.992 6.608zm-36.473 15.026c-.834.256-1.812.518-2.751.518-.637 0-1.185-.119-1.74-.392-1.046-.349-1.468-1.331-1.647-2.129-.822-2.741.564-5.989 1.204-7.27 1.46-3.129 3.736-6.252 7.157-9.82 2.359-2.36 4.878-4.189 7.51-5.448 2.654-1.438 5.557-2.23 8.174-2.23.466 0 .927.024 1.427.077l.267.057.25.057c.255.051.492.057.711.025-2 4.348-4.224 8.793-6.825 13.129-2.975 5.065-7.225 11.171-13.737 13.426zm-67.126-1.73c-.475-1.991-.069-4.535 1.202-7.556 1.45-3.348 3.812-6.604 7.028-9.685 2.812-2.813 5.428-4.776 8.226-6.176 2.99-1.438 5.925-2.168 8.723-2.168.393 0 .783.015 1.17.044-1.109 1.849-2.207 3.813-3.423 6.124-.729 1.457-1.483 2.964-2.096 4.56l-1.115 2.354c-.347.812-.705 1.65-1.312 2.383-1.782 2.733-3.753 5.583-6.084 7.914-1.771 1.771-3.947 3.68-6.665 4.421-1.691.462-3.036.486-3.97.148-1.118-.495-1.534-1.688-1.684-2.363zm-8.966-32.679l2.302-5.754c1.648-3.986 3.252-7.474 4.913-10.687 1.326-2.946 2.525-5.189 3.787-7.084 1.336-2.271 2.817-4.562 4.855-5.427.164-.041.408-.095.632-.095.33 0 .415.113.46.172.97 1.188.018 3.643-.433 4.631-1.845 3.798-4.31 7.365-6.693 10.814l-.89 1.29c-2.847 4.028-5.894 8.111-8.933 12.14zm-37.712 19.383c1.44-2.917 3.159-5.487 5.113-7.646 2.441-2.604 4.63-3.961 6.712-4.151.257-.034.52-.053.779-.053.923 0 1.64.233 2.019.657.283.316.391.743.333 1.271-.248 1.362-1.198 2.548-1.964 3.314-3.45 3.689-8.858 5.535-12.992 6.608zm-36.473 15.026c-.834.256-1.812.518-2.751.518-.637 0-1.185-.119-1.74-.392-1.046-.349-1.468-1.331-1.647-2.129-.822-2.741.564-5.989 1.204-7.27 1.46-3.129 3.736-6.252 7.157-9.82 2.359-2.36 4.878-4.189 7.51-5.448 2.654-1.438 5.558-2.23 8.174-2.23.466 0 .927.024 1.427.077l.267.057.25.057c.255.051.492.057.711.025-2 4.348-4.224 8.793-6.825 13.129-2.975 5.065-7.225 11.171-13.737 13.426zm-16.051-44.733l-4.186 9.725c-1.274 3.127-3.221 6.045-5.104 8.866l-.265.398c-3.532 5.481-7.609 10.67-12.109 15.413-4.021 4.021-8.496 8.027-13.966 10.094-1.985.743-4 1.068-5.941.952-6.662-.434-8.106-8.058-8.389-10.365-.438-5.262.612-11.179 3.04-17.112 2.928-7.258 7.486-14.307 13.187-20.386 4.883-5.27 10.336-9.37 16.213-12.191 4.23-2.115 8.77-3.544 13.142-4.135 1.441-.24 2.903-.362 4.345-.362 2.06 0 3.796.157 5.386.49.227.024 1.548.381 2.211.604l-7.564 18.009z"/></g><path fill="#fff" d="M224.096 325.219l.1-.158c.066-.104.17-.259.273-.477.197-.41.531-1.164.163-1.989-.381-.806-1.456-1.378-2.744-1.562-.645-.102-1.359-.109-2.09-.009-.724.095-1.505.328-2.077.783-.602.541-1.14 1.2-1.423 1.99-.264.789-.267 1.672.058 2.549.631 1.764 2.184 3.418 4.033 4.814.937.693 1.963 1.345 3.064 1.886.549.27 1.116.52 1.687.712.285.093.568.174.844.235l.374.06.505.051c1.162.077 2.448-.047 3.623-.459 1.188-.405 2.31-1.083 3.3-1.972 1.982-1.776 3.429-4.395 3.996-7.235.585-2.816.267-5.963-1.397-8.208-.407-.562-.893-1.062-1.447-1.492-.272-.22-.572-.411-.875-.599l-.474-.258-.589-.301-.593-.304-.523-.217c-.341-.148-.691-.293-1.078-.409-.374-.133-.75-.252-1.135-.334-.38-.107-.765-.186-1.155-.238-1.551-.242-3.141-.247-4.731.058-1.59.3-3.175.864-4.725 1.618-3.107 1.52-6.04 3.773-8.926 6.222-2.903 2.468-5.714 5.156-9.004 7.724-6.501 5.031-14.06 8.818-21.981 11.308-7.945 2.422-16.332 3.59-24.591 2.945-4.122-.327-8.209-1.108-12.072-2.493l-.724-.257-.181-.064-.09-.032-.25-.104-.328-.155-.656-.311-.785-.443c-1.03-.595-1.862-1.237-2.703-1.95-1.628-1.439-2.985-3.11-4.061-4.923-1.074-1.813-1.868-3.773-2.333-5.799-.097-.511-.202-1.019-.285-1.529-.055-.516-.126-1.028-.161-1.542-.014-.517-.042-1.028-.037-1.546l.024-.705.093-.912c.313-2.242 1.454-4.344 2.941-5.838 1.487-1.517 3.225-2.541 4.962-3.303 3.505-1.49 7.062-2.061 10.556-2.037 3.41.094 6.858.652 9.814 2.423 1.46.882 2.739 2.108 3.591 3.544.86 1.42 1.34 2.995 1.411 4.58.151 3.061-.786 5.898-2.393 8.056-1.592 2.173-4.07 3.523-6.407 3.606-1.17.07-2.245-.112-3.249-.453-.995-.334-1.897-.82-2.6-1.485-.706-.657-1.201-1.454-1.475-2.254-.266-.807-.314-1.606-.241-2.322.153-1.437.799-2.571 1.582-3.179.797-.63 1.662-.572 2.103-.398.468.164.652.355.661.335-.008.02-.212-.153-.681-.268-.449-.127-1.245-.095-1.905.54-.655.613-1.144 1.711-1.155 3.005-.026 1.283.496 2.787 1.768 3.776.618.501 1.418.853 2.281 1.069.855.222 1.83.309 2.774.17 1.903-.241 3.764-1.391 4.962-3.263 1.205-1.845 1.826-4.303 1.537-6.729-.04-.304-.092-.605-.151-.873l-.118-.484-.033-.127.005.025-.02-.054-.08-.216c-.216-.574-.494-1.121-.836-1.625-.679-1.015-1.635-1.846-2.786-2.465-2.314-1.245-5.302-1.635-8.354-1.551-2.99.098-6.194.742-9 2.079-1.395.67-2.686 1.532-3.645 2.595-.963 1.062-1.552 2.303-1.699 3.671l-.032.444.001.66.06 1.194c.036.398.104.796.15 1.195l.247 1.188c.397 1.574 1.057 3.105 1.933 4.513.876 1.408 1.973 2.694 3.236 3.764.627.511 1.338 1.025 1.987 1.377l.474.268.659.295.331.148-.082-.036.081.027.163.054.65.216c3.474 1.144 7.167 1.804 10.928 2.092 7.541.54 15.352-.587 22.749-2.904 7.416-2.286 14.481-5.758 20.532-10.381 5.95-4.639 11.567-10.587 18.966-14.092 1.855-.853 3.832-1.519 5.89-1.858 2.054-.347 4.188-.308 6.201.1.507.091 1.003.212 1.488.365.493.129.968.297 1.433.48.467.163.938.373 1.406.599l.694.33.581.325.579.324.673.401c.437.29.866.592 1.264.935.803.675 1.51 1.462 2.085 2.321 1.166 1.717 1.788 3.68 2.002 5.582.208 1.909.049 3.781-.399 5.526-.895 3.485-2.792 6.558-5.412 8.686-1.308 1.059-2.805 1.864-4.376 2.311-1.583.446-3.165.551-4.732.328l-.512-.085c-.254-.04-.416-.094-.625-.142-.381-.111-.737-.24-1.08-.378-.681-.281-1.304-.607-1.902-.951-1.194-.687-2.263-1.469-3.243-2.298-1.911-1.679-3.589-3.573-4.225-5.899-.328-1.144-.241-2.405.209-3.423.458-1.016 1.208-1.774 1.958-2.339.868-.572 1.776-.728 2.597-.78.827-.044 1.596.047 2.287.221 1.367.33 2.52 1.067 2.877 2.048.324.999-.124 1.73-.355 2.128-.126.212-.243.354-.319.452l-.11.15z"/></g></svg>