<svg xmlns="http://www.w3.org/2000/svg" width="384" height="550"><g><path fill="#fff" d="M67.263 288.621c-.124.83.158 1.675.227 2.464-.178 1.045-.549 2.129-.769 2.981l.213 1.462c-.007.906-.282 1.971-.363 2.994-.158 1.139-.22 2.26-.261 3.475-.103.927.145 2.08.062 3.104.104.48-.027.811-.212 1.353.007.5-.274 1.064-.481 1.511-.164.639-.693 1.455-.549 2.129-.007.905.639 1.572.749 2.554-.027.811-.426 1.298-.549 2.129-.261.659-.151 1.641-.199 2.355-.014 3.22-.356 6.31-.253 9.605-.007.906-.13 1.737-.178 2.452-.124.83-.481 1.51-.55 2.128l.323 2.444-.288 1.471c-.089.521.206.96.309 1.441-.027.81-.11 1.833-.288 2.878.055 1.194.077 2.697-.062 3.934l.378 2.231c-.131.329-.337.775-.275 1.064l.076 1.29c-.089.521-.487 1.01-.48 1.511-.068.618.206.962.31 1.442-.083 1.023-.303 1.874-.446 2.609-.089.521-.124.831-.405 1.395-.013.404-.248.253-.536.315-.865.185-1.634.35-2.362.707-.845.281-1.634.351-2.307.495-.48.103-.899.494-1.442.309-.57-.782-.453-2.114-.371-3.138.048-.714.522-1.318.536-1.724l-.241-2.06.226-1.758c-.103-.481-.262-.749-.227-1.058l.178-2.451c.09-.522.343-1.683-.186-2.272-.178-.364-1.14-.158-1.62-.055l-1.826.392c-1.154.247-2.383.611-3.653.783l-1.503.02-.803.475c-.536.315-1.442.31-2.06.24-.289.062-.728.357-1.058.228-.288.062-.694.048-.769.165-.343.274-.419.391-.357.68l-.507.913c-.103.927-.323 1.778-.467 2.513-.356.68-.919 1.806-1.16 2.562-.495 1.915-.336 3.59-.57 4.847-.048.715-.521 1.318-.741 2.171-.316.871-.357 2.086-1.374 2.506-.748.26-1.483.116-2.189.569-.632.337-1.696.062-2.466.228-.329-.13-.521-.089-.81-.027-.405-.014-.501.007-.885.089-.481.104-.392-.418-.282-.845-.007-.501-.068-.789.062-1.118.144-.735.363-1.587.315-2.28.261-.659 1.098-1.441 1.476-2.026.171-1.545.48-2.919.844-4.505.378-.583.948-1.208 1.092-1.942.316-.872.453-2.107.748-3.075.131-.33.048-.715.082-1.024l1.078-1.538.316-2.279c.343-1.683.816-3.694 1.098-5.666.253-1.159 1.4-1.908 1.825-3.206.543-1.222.508-3.729 1.064-5.356.275-1.064.673-1.551.659-2.554.103-.927.713-1.359 1.03-2.231.274-1.064-.035-2.507.975-3.427.144-2.143.672-4.367 1.571-6.27.378-.584.639-1.242.824-1.786.295-.968.57-2.031.749-3.075.131-.33.124-.83.213-1.353.089-.522.315-.872.5-1.414.673-1.553 1.167-3.469 1.778-5.309.886-2.905 1.455-6.345 3.123-8.412.405-1.394.776-2.479 1.552-3.551.996-.515 2.314.008 3.468-.24 1.002-.014 2.341-.803 3.591-1.07.481-.104 1.099-.036 1.483-.118l.824-.377c.055-.214.226-.35.515-.412.385-.082.48-.103.886-.091.577-.123 1.098-.033 1.641.152.919 1.007.452 2.113.411 3.328zm-12.488 18.663c-.261 2.068-1.497 3.339-1.565 5.364-.562 2.533-1.572 4.861-1.667 7.697-.954 3.521-2.197 7.106-2.958 10.589-.275 1.063-.549 2.128-.844 3.097-.186.542-1.119 2.753-.343 3.09 1.415.501 3.233-.393 4.758-.316l1.312.02c.384-.082 1.016-.418 1.476-.617.247-.254.632-.336.92-.398.247-.255.419-.392.529-.817.083-1.023.165-2.047.384-2.897.103-.928.185-1.951.171-2.952.089-.522.082-1.024-.021-1.505.13-.33.089-.521.027-.811-.041-.191-.145-.673.028-.81.294-.968.356-2.088.396-3.303.09-.521.158-1.14.035-1.716.014-.406-.248-1.154-.021-1.505-.042-.192.014-.405.185-.542.151-.233.089-.521.103-.928.068-.618-.076-1.29-.028-2.005.014-.405-.131-1.078.151-1.641-.062-.288-.008-.501.123-.831.11-.426.11-.426.007-.906-.399-.92-.125-1.984-.138-2.986.179-1.044.22-2.26-.66-3.076-.548-.687-1.969-.282-2.36.705z"/><path fill="#fff" d="M111.378 278.659c-.027.811.351 1.635-.006 2.314l-.563 1.125c-.281.563-.487 1.01-.576 1.532l.233 1.559c-.089.521-.384 1.49-.453 2.108-.109 1.833.138 2.986-.734 4.078.543 1.593-.556 3.035-.769 4.388-.123.831-.164 2.047-.247 3.07-.315.871-.823 1.785-.927 2.711-.068.618.227 1.059.083 1.792l-.556 1.629c-.034.309-.377.583-.604.934-.508.913-.569 2.032-.672 2.96l-.878 6.221c-.289 1.469-.57 3.439-.913 5.122-.274 1.064-.569 2.033-.885 2.905l.192 1.365c-.322 1.778-.975 3.427-1.627 5.074-.171.139.295.439.316.536.103.48-.178 1.045-.171 1.545-.048.715.097 1.388-.068 2.026-.171 1.545-.981 2.925-1.345 4.512-.501 2.821-.363 5.808-1.29 8.521-1.847 1.703-4.786 2.534-7.635 2.843-.955-.699-1.264-2.142-1.277-3.145-.337-2.039-.33-4.352-.57-6.413.048-.713-.289-1.346-.412-1.922-.179-1.771-.097-4.202-.146-6.303-.124-1.985-.77-4.06-.193-5.59-.989-4.614-1.703-10.292-2.796-15.388-.165-.77-.412-1.922-1.058-2.589-.899.494-.803 1.882-1.058 3.042-.123.832-.631 1.745-.968 2.521-.507.913-.438 1.702-.713 2.768l-.961 1.614c-.186.541-.171 1.545-.294 2.375-.221.851-.399 1.896-.447 2.609.062.288.316.536.227 1.058s-.563 1.126-.611 1.841c-.227.35-.027.81-.213 1.352-.089.522-.528.817-.521 1.318-.109.426.035 1.1-.096 1.429-.082 1.023-.591 1.937-.735 2.671-.082 1.023.124 1.984-.054 3.028.069.789-.268 1.565-.583 2.438-.213 1.354-.055 3.028-.289 4.284-.123.832-.501 1.415-.72 2.268-.247 1.66-.227 3.164-.782 4.791-.275 1.065-.357 2.088-.962 3.021-.527.818-1.009.921-2.066 1.148l-2.595.556c-.577.124-1.209.46-1.957.722-.673.144-2.884.618-2.863-.694-.103-.48-.056-1.194.014-1.812.233-1.257.604-2.341.857-3.502.24-.755.233-1.256.453-2.107.247-1.661 1.249-3.083.775-5.295.975-2.019 1.098-4.258 1.894-6.639.165-.639.502-1.415.742-2.171l-.172-1.271c.254-1.159.852-2.595 1.222-3.678.213-1.354.446-2.611.68-3.867l1.111-1.848c.275-1.064.296-2.375.529-3.632.239-.755.232-1.257.494-1.916-.048-.693-.151-1.174.089-1.929-.028-.598.35-1.182.418-1.8.049-.714-.075-1.291-.124-1.984.131-.329.529-.817.715-1.359.13-.33-.014-1.003.212-1.353.09-.521.529-.817.756-1.168.089-.521.137-1.236.322-1.778.94-3.118 1.62-6.982 2.106-10.808.192-1.449.598-2.843.618-4.154.007-.906 0-1.408.261-2.067.144-.733.192-1.448.356-2.087.124-.831.397-1.896.577-2.939-.008-.501-.09-.886.521-1.318.708-.453 1.978-.624 2.939-.83 1.675-.159 3.31-.51 4.847-.839.481-.104.577-.124.906.007.605.473.797 1.84.729 2.457-.082 1.024-.124 2.239-.089 3.338.124 1.984 1.059 3.996 1.34 6.248l-.116 1.332c.179 1.772.68 3.173 1.03 4.807.124.577-.157 1.14-.013 1.812.186 2.273.659 4.483.866 6.853.227 1.059.241 2.06.508 3.31-.069.618-.213 1.354-.048 2.121-.048.716.206.963.543 1.594l.371 1.73s.405 1.422.77 1.243c.624-.839.569-2.033.94-3.117.157-1.141.336-2.185.769-2.98.151-.234-.165-.77-.206-.961.13-.331.199-.948.254-1.161.22-.852.364-1.586.433-2.204.232-1.257.274-2.473.878-3.405.11-1.834.37-3.901 1.064-5.356-.056-1.194.356-2.088.631-3.151.089-.522.007-.906.192-1.45.363-.177.61-.432.624-.838-.006-1.907.474-3.419.837-5.005.227-1.758.261-3.476.72-5.081.09-.522.082-1.023.213-1.353s.316-.873.254-1.16l-.014-1.004c.014-.404.336-.774.371-1.084.878-1.998 2.506-1.441 5.046-1.786.865-.186 1.765-.68 2.465-.228.775.334.418 2.421.328 2.943z"/><path fill="#fff" d="M141.84 271.123l-1.099 2.85c-.11.427-.467 1.105-.885 1.497-.323.371-.515.412-1.188.557-.48.104-.865.186-1.271.171l-1.387.097c-1.984.124-4.168 1.196-5.026 3.289-.171.138-.123.831-.116 1.332-.707 1.862-1.111 4.663-1.215 6.997-.253 1.162-.604 2.342-.666 3.461l.111.982c-.138 1.235-.701 2.362-1.126 3.66.007.501.13 1.077-.172 1.544-.048.716-.467 1.106-.631 1.745-.089.521 0 1.407-.165 2.046-.288 1.47-.5 2.822-.631 4.56-.027.811.221 1.964-.02 2.719-.219.852-1.078 1.539-1.373 2.507-.439 1.702-.748 4.484-1.105 6.571-.144 2.143-1.291 4.298-1.476 6.249l-.13 1.736c-.069.618-.103.928-.151 1.642.165.769-.556 1.628-.583 2.438.027.597.11.981.213 1.462-.055.214.008.502-.144.734-.145.736.075 1.292.144 2.081-.048.715-.288 1.47-.26 2.068.144.672.076 1.29-.207 1.853.028.598.076 1.29-.026 2.219.083.384.233 1.558-.144 2.142-.811 1.38-2.623 1.366-4.643 1.799-1.654.255-4.366 2.145-5.349.846-.741-.645-.034-2.506.199-3.763.116-1.332.501-2.822.528-3.632l.076-1.524c.185-.543.466-1.105.555-1.628.11-.426-.014-1.002.117-1.332-.047-.693.254-1.16.323-1.779.186-.541-.151-1.174.13-1.736.089-.521.22-.853.501-1.414-.042-.192.035-.31-.048-.694l-.124-.576c.81-2.788.844-5.912 1.737-8.316-.392-1.825.624-3.651.85-5.41.049-.714-.095-1.387.015-1.812l.803-1.882c.528-2.225.748-4.483 1.063-6.764 1.517-6.056 1.942-12.984 3.768-19.006l-.315-.535c-.042-.193-.083-.385.068-.618-.042-.192.068-.62.22-.853.356-.68.693-1.456.721-2.266-.083-.385-.083-.385-.468-.303-.309-.033-.789.069-1.174.152l-2.252.281s-1.572.639-2.341.804c-1.017.419-2.308.494-3.365.721-.192.042-.288.062-.309-.033-.274-.344-.09-.886.021-1.312-.048-.693-.296-1.847.041-2.623l.466-1.104c.172-.138.241-.756.316-.873.247-.254.632-.336.92-.398 0 0 .151-.232.247-.253.344-.275 1.154-.247 1.538-.33l2.692-.577 2.307-.494c1.771-.18 3.46-.742 5.287-1.134 4.092-1.079 8.102-2.543 11.816-3.037l2.081-.145c.48-.103 1.071-.631 1.634-.351.475.8.242 2.055.077 2.695z"/><path fill="#fff" d="M170.124 266.567c-.123.83.158 1.675.227 2.464-.179 1.045-.549 2.129-.769 2.981l.213 1.462c-.007.906-.282 1.971-.364 2.994-.158 1.139-.219 2.26-.261 3.475-.103.927.145 2.08.062 3.104.103.48-.027.811-.213 1.353.007.5-.274 1.064-.48 1.511-.165.639-.693 1.455-.549 2.129-.007.905.638 1.572.749 2.554-.027.811-.426 1.298-.55 2.129-.26.659-.15 1.641-.198 2.354-.014 3.221-.356 6.311-.253 9.606-.007.906-.131 1.737-.179 2.452-.123.83-.48 1.51-.549 2.128l.322 2.444-.288 1.471c-.089.521.206.96.309 1.441-.027.81-.109 1.833-.288 2.878.056 1.194.076 2.697-.062 3.933l.378 2.232c-.13.329-.336.775-.274 1.064l.075 1.29c-.089.522-.487 1.01-.479 1.511-.069.618.206.962.309 1.442-.082 1.022-.302 1.874-.446 2.609-.089.521-.124.831-.405 1.395-.014.404-.248.253-.536.315-.865.186-1.634.35-2.362.707-.845.281-1.635.351-2.308.495-.48.103-.899.494-1.441.309-.57-.782-.454-2.114-.371-3.138.048-.714.521-1.318.535-1.724l-.241-2.06.227-1.758c-.104-.481-.262-.749-.227-1.058l.178-2.452c.089-.521.343-1.682-.185-2.271-.179-.364-1.141-.158-1.621-.055l-1.826.392c-1.153.247-2.383.61-3.653.783l-1.503.02-.804.475c-.535.315-1.441.31-2.06.241-.289.062-.728.356-1.058.227-.289.062-.694.047-.769.164-.343.275-.419.392-.357.681l-.508.913c-.103.927-.323 1.777-.467 2.513-.356.68-.919 1.806-1.16 2.562-.495 1.916-.336 3.591-.569 4.848-.048.715-.522 1.318-.742 2.17-.316.872-.357 2.087-1.373 2.507-.749.26-1.483.116-2.19.569-.632.337-1.696.062-2.465.227-.329-.129-.521-.088-.81-.026-.405-.014-.502.007-.886.089-.48.104-.392-.418-.281-.845-.008-.501-.069-.789.062-1.118.144-.735.363-1.588.315-2.28.261-.659 1.098-1.441 1.476-2.026.171-1.545.48-2.919.844-4.505.378-.583.947-1.208 1.091-1.942.316-.872.454-2.107.748-3.076.131-.329.048-.714.083-1.023l1.077-1.538.316-2.279c.343-1.683.817-3.694 1.098-5.666.254-1.159 1.4-1.909 1.826-3.206.542-1.222.508-3.729 1.063-5.356.275-1.064.673-1.552.659-2.554.103-.927.714-1.359 1.029-2.231.275-1.064-.034-2.507.975-3.427.145-2.143.673-4.367 1.572-6.27.377-.584.638-1.242.823-1.785.296-.969.57-2.033.748-3.076.131-.33.124-.83.213-1.354.089-.521.316-.871.501-1.413.673-1.553 1.167-3.469 1.777-5.309.886-2.905 1.456-6.345 3.124-8.411.405-1.395.775-2.48 1.551-3.552.996-.515 2.314.008 3.468-.24 1.002-.014 2.341-.803 3.591-1.071.48-.103 1.099-.035 1.483-.117l.824-.377c.055-.214.227-.35.515-.412.385-.082.48-.103.886-.091.577-.123 1.099-.033 1.642.152.923 1.006.457 2.113.416 3.327zm-12.488 18.663c-.261 2.068-1.497 3.338-1.565 5.364-.562 2.533-1.572 4.861-1.668 7.696-.954 3.522-2.196 7.107-2.958 10.59-.275 1.062-.549 2.128-.844 3.096-.186.543-1.119 2.754-.343 3.09 1.415.502 3.234-.392 4.758-.316l1.312.021c.385-.082 1.016-.418 1.476-.618.248-.253.632-.335.921-.396.247-.256.418-.393.528-.818.082-1.023.164-2.047.384-2.897.103-.928.186-1.951.172-2.952.089-.523.082-1.023-.021-1.506.131-.329.09-.521.028-.81-.042-.191-.144-.673.028-.81.295-.969.356-2.088.397-3.303.089-.521.158-1.141.034-1.717.014-.405-.247-1.152-.021-1.504-.041-.192.013-.405.185-.542.151-.233.089-.521.104-.927.068-.619-.076-1.291-.028-2.006.014-.405-.131-1.078.151-1.641-.062-.288-.007-.502.124-.831.11-.426.11-.426.007-.906-.399-.92-.124-1.984-.138-2.986.179-1.044.22-2.26-.659-3.076-.551-.687-1.973-.283-2.364.705z"/><path fill="#fff" d="M188.533 324.759c.281-.564.446-1.203.61-1.841.13-.33.145-.735.083-1.023.171-.138.027-.811.178-1.044.433-.797.515-1.82 1.099-2.85-.048-.693.274-1.063.247-1.661.068-.618.212-1.354.397-1.895.027-.811-.096-1.389.007-2.315l.364-1.585c.185-.543 0-1.408-.007-1.91.418-.391.646-.741.831-1.283.068-.618.02-1.312.26-2.068.337-.774.556-1.627.432-2.204-.055-1.194-.618-2.883-.859-3.535-.494-.898-1.888-1.305-2.911-1.387-.852-.22-2.513-.468-3.316.007-1.765.68-2.19 4.793-2.623 6.997-.253 1.161-.439 1.704-.342 3.091l-.666 2.053c-.124.831-.323 1.779-.563 2.533-.123.832-.247 1.662-.404 2.803-.418 1.799-.336 3.59-.816 5.101-.089.522-.083 1.024-.213 1.354l-.864 1.594c-.57 2.031-.364 4.401-1.572 6.269-.584 1.03-1.854 1.202-3.584 1.573-1.442.31-3.207.989-4.217.502-.646-2.074.316-3.688.79-5.7.357-2.086.597-4.25.933-6.434.186-.542.68-1.051.673-1.552.439-1.703.302-3.283 1.325-4.607-.289-1.346.467-2.513.721-3.674.088-.521-.268-1.25.034-1.717-.048-.693.522-1.318.687-1.956.329-1.278.021-2.72-.097-4.202.048-.716-.055-1.196.11-1.834.282-.563.618-1.339.803-1.882.103-.927.46-1.607 1.03-2.231-.13-1.079.082-2.431.397-3.304.302-.466.604-.934.79-1.476.206-.446.103-.927.213-1.353-.048-.694.138-1.236.206-1.854.274-1.065.528-2.225.878-3.407.22-.851.48-1.51.563-2.533.295-.968.185-1.951.439-3.11.11-.426.548-.722.734-1.263.323-.372.22-.853.117-1.333.089-.521.062-1.12.172-1.545.089-.522.082-1.023.268-1.565.13-.329.356-.68.466-1.106.09-.521-.055-1.194-.062-1.695l.192-1.448c.253-1.161.624-2.247.728-3.173.185-1.951.294-3.784.672-5.775.666-.646 2.019-.433 2.884-.618.652-.24 1.03-.824 1.703-.969 1.38-.597 2.808-.501 4.133-.886l1.82-.894c1.483-.116 3.405-.528 5.101-.591 2.946-.329 6.181.688 7.513 2.211.865 1.222 1.236 2.952 1.504 4.202.186.865.158 1.676.227 2.465-.124.831-.323 1.778-.213 2.76-.199.948-.515 1.819-.672 2.961l-.013 1.812c-.09.521-.618 1.34-.762 2.074-.542 1.222-.913 2.308-1.572 3.455-.233 1.256-.295 2.375-.783 3.384-.185.542-.796.975-1.078 1.539-.227.35-.124.83-.254 1.159-.514 1.82-1.235 4.086-2.677 5.803-.817.879-2.389 1.519-2.547 2.658.131 1.078.687 2.265 1.141 2.973.433.611 1.058 1.181 1.161 1.662.22.557.392 1.825.536 2.499.186 2.272-.117 5.556-.556 7.258.027.599-.412.893-.501 1.414l.336 2.04c.015 1.002-.356 2.087-.61 3.248.069.79 0 1.407-.082 2.43l-.357.68c.083.385.357.729.248 1.155.062 1.695-1.188 3.37-1.702 5.19-.46 1.607-.364 2.993-1.263 3.488l-1.943.316c-1.153.247-2.19.569-3.303 1.01-.673.144-2.534.844-3.117.467l-.021-.096c-.651-.669.221-3.169.386-3.806zm6.916-40.899c.447-1.201.693-2.863 1.133-4.565.315-.872.789-1.477.913-2.308.13-.331.027-.81.137-1.236-.007-.501.412-.893.501-1.414.274-1.064.507-2.321.762-3.482.631-1.743 1.372-5.321-.193-6.997-.254-.246-1.264-.733-1.511-.479-1.332 1.292-4.264 1.216-5.253 2.231-.611.434-.947 2.617-1.263 3.489-.165.638-.041 1.215-.281 1.971-.11.425-.508.913-.693 1.455-.35 1.183-.295 2.377-.666 3.461-.261.66-.851 1.188-.919 1.807-.165.638-.042 1.215-.089 1.929.007.501-.391.989-.48 1.512.007.501.09.886 0 1.406-.047 2.122-1.228 4.588-.253 6.792.673-.145 2.218.026 3.179-.18 2.072-.647 4.379-3.957 4.976-5.392z"/><path fill="#fff" d="M231.792 272.349c.296-.97.494-1.916.557-3.036.521-2.726.72-5.08-.324-8.074-.804-2.342-1.923-3.812-4.422-1.867-.515.412-1.043 1.23-1.668 2.066-.666.646-1.641 1.257-1.826 1.801-.11.425-.007.906 0 1.406-.069.618-.392.989-.501 1.415-.241.756.076 1.291.007 1.909l-.645 2.148c-.165.64-.639 1.242-.784 1.979-.507.912-1.022 1.324-.968 2.52-1.888 2.918.153 8.213-2.106 10.809-.769 5.795-2.278 10.945-2.717 16.87l.377.824c.103.48-.253 1.161-.398 1.896l-.536 1.723c-.191 1.449.021 2.912.427 4.334.542 1.592 1.249 2.547 3.364 2.094 2.17-.666 3.782-2.521 4.531-4.189.474-.604.852-1.188 1.058-1.635.329-1.276.301-3.282.665-4.868.274-1.063.728-1.765 1.078-2.945.137-1.236.192-2.857.495-3.323.645-.741 2.629-.865 3.934-1.348.961-.206 3.475-1.146 3.989-.15.337.632-.233 1.256-.322 1.778-.041 1.216.172 2.678-.123 3.646.103.48-.591.527-.763.666-.206.446.055 1.194.021 1.504-.089.521-.294.967-.425 1.298-.227.35-.666.645-.755 1.167.062.289.433.611.439 1.112-.13.33-.281.562-.507.913-.076.116-.323.371-.24.756l.206.962c.062.288-.241.754-.371 1.083-.315.873-.769 1.573-1.277 2.486-.844 1.688-2.059 3.057-3.021 4.669-.796.977-1.297 2.39-1.908 2.823-.398.487-1.359.694-2.012.935-.804.474-2.025 1.339-3.426 1.84-1.764.68-4.264 1.216-5.712 1.023-1.277-.328-4.271-2.1-5.082-3.535-.157-.268-.124-.576-.227-1.058-.474-.804-.948-1.606-1.401-2.313-.433-.611-1.016-.988-1.12-1.47-.281-.845.014-1.813-.652-2.574-.062-.289-.295-.439-.165-.77l-.048-.693-.268-1.249c-.062-.288.007-.908.137-1.237-.007-.501.179-1.043.191-1.448.007-.906.09-1.93.385-2.897 1.099-2.85 1.036-7.36 1.53-10.685.027-.811.425-1.298.239-2.163.701-2.361 1.236-5.493 1.586-8.081.124-.832.322-1.778.83-2.692.055-.213.357-.68.625-.838.035-.309.316-.872.446-1.202.165-.639.233-1.256.227-1.757.192-1.45.253-2.568.542-4.038.398-1.895 1.86-3.516 2.684-5.302.068-.617-.035-1.098.151-1.641.186-.542.755-1.167 1.112-1.847.089-.522-.055-1.194.15-1.641.11-.426.508-.915.653-1.648.487-1.01.817-2.287 1.379-3.414.281-.562.659-1.146.865-1.592.549-.721.775-1.071 1.366-1.6.515-.412 1.297-.982 1.908-1.416 1.126-.844 2.541-1.751 3.962-2.156 1.305-.48 3.035-.852 4.635-.893 1.099-.035 3.805 1.799 4.704 2.711.919 1.01 1.531 1.984 2.204 3.249.591.877 1.436 2.004 1.49 3.198.165.77-.013 1.812-.137 2.645.227 1.057.412 1.922.543 3.001-.089.521-.027.81-.138 1.235-.055.212-.542 1.222-.35 1.181.604 1.882.158 3.083-.268 4.381-.329 1.277-.796 2.383-1.263 3.488-.371 1.085-.59 1.937-1.744 2.184l-3.611.976c-.577.124-1.923.412-2.547-.158-.392-.418-.261-.748-.268-1.249.165-.639.294-.968.384-1.49.097-.021.097-.021.076-.117.243-.757.771-1.575.894-2.405z"/><path fill="#fff" d="M270.943 243.442l-1.098 2.85c-.11.427-.467 1.106-.886 1.497-.323.372-.515.413-1.188.558-.479.103-.864.185-1.27.171l-1.387.096c-1.984.125-4.167 1.196-5.026 3.289-.172.139-.123.832-.117 1.333-.707 1.861-1.112 4.663-1.214 6.997-.254 1.161-.604 2.342-.666 3.46l.11.982c-.137 1.236-.7 2.362-1.126 3.66.007.501.131 1.077-.172 1.545-.047.715-.466 1.105-.631 1.745-.089.521 0 1.406-.165 2.045-.288 1.471-.501 2.822-.631 4.56-.027.811.22 1.964-.021 2.72-.22.851-1.078 1.538-1.373 2.507-.439 1.702-.748 4.483-1.105 6.57-.144 2.143-1.29 4.298-1.476 6.249l-.13 1.737c-.069.618-.104.927-.151 1.641.165.769-.556 1.628-.583 2.438.028.596.11.98.213 1.461-.055.215.007.503-.145.735-.144.735.076 1.291.145 2.08-.048.715-.288 1.471-.261 2.068.145.672.076 1.29-.206 1.854.028.598.076 1.29-.027 2.218.082.384.233 1.558-.144 2.143-.81 1.38-2.623 1.366-4.642 1.799-1.654.255-4.366 2.144-5.349.846-.741-.646-.034-2.507.199-3.763.117-1.333.501-2.823.528-3.633l.076-1.523c.186-.544.467-1.106.556-1.629.11-.425-.014-1.001.117-1.331-.048-.694.254-1.161.323-1.779.186-.542-.151-1.174.13-1.737.089-.521.22-.852.501-1.414-.041-.192.034-.31-.048-.694l-.124-.576c.81-2.787.845-5.912 1.736-8.315-.391-1.825.625-3.652.851-5.41.049-.715-.096-1.388.014-1.813l.803-1.881c.528-2.225.748-4.484 1.063-6.765 1.517-6.056 1.942-12.984 3.768-19.006l-.316-.535c-.042-.193-.083-.385.069-.618-.042-.192.068-.619.22-.852.356-.681.693-1.456.721-2.267-.083-.385-.083-.385-.468-.302-.309-.034-.789.069-1.174.151l-2.253.282-2.341.803c-1.016.419-2.307.494-3.364.722-.192.041-.288.062-.309-.034-.275-.344-.09-.886.021-1.312-.049-.693-.296-1.847.041-2.624l.467-1.104c.172-.138.241-.756.315-.872.248-.254.632-.337.92-.398 0 0 .151-.232.247-.254.343-.275 1.153-.247 1.538-.329l2.691-.577 2.308-.495c1.771-.179 3.46-.741 5.287-1.133 4.092-1.08 8.102-2.543 11.816-3.037l2.081-.146c.48-.103 1.071-.631 1.634-.35.476.801.243 2.058.078 2.696z"/><path fill="#fff" d="M284.706 252.759c.371 1.73-.034 3.123-.363 4.401-.858 2.094-.467 3.921-.631 5.967-.474.605-.474.605-1.002 1.421l.248 1.153c-.309 1.374-.762 2.075-.639 2.651-.309 1.373-.185 1.95.104 3.295-.549.722-.981 1.519-.858 2.096-.473.604-.329 1.276-.205 1.854-.646.741-.646.741-.522 1.318-.309 1.374-.521 2.727-.274 3.88-.961 1.613-1.146 3.563-1.448 5.438l-.515 3.227c.165.769-.288 1.47-.288 1.47-.549.722-.425 1.298-.281 1.972-.33 1.276-.659 2.554-1.064 3.948l.247 1.153c-.309 1.373-.762 2.073-.638 2.65-.48 1.511-.213 2.761-.666 3.46-.212 1.354.015 2.41-.535 3.132.268 1.25-.185 1.95-.597 2.843-1.126.844-2.953 1.235-4.106 1.482-1.346.289-3.172.681-5.025.476-.577.123-.412-1.923.26-2.067-.145-.673-.268-1.25.31-1.374-.124-.576.254-1.159.109-1.832.549-.722.425-1.298.734-2.671 0 0 .576-.124.453-.701l-.289-1.346s.453-.7.33-1.277c.625-.838.501-1.415.955-2.114.206-1.854-.062-3.104.343-4.499-.371-1.73.618-2.746.226-4.572 0 0 .549-.721.425-1.297.433-.798.309-1.374.783-1.979.432-.796.185-1.95.57-3.439.233-1.257.089-1.931.418-3.207-.268-1.25.378-1.991.687-3.364.206-1.854 1.043-4.045 1.373-5.321.404-1.395.857-2.096.59-3.346.33-1.277.082-2.43.37-3.899-.123-.576.426-1.298.879-1.998.309-1.374.59-3.345.679-5.273 0 0 .454-.7.31-1.373l-.227-1.059s.645-.741.48-1.511l-.248-1.153c-.144-.673.186-1.949.618-2.747-.248-1.153-.515-2.402-.233-4.373l.33-1.276c.309-1.374-.207-3.777 1.043-4.045 1.153-.248 2.526.061 3.776-.207 2.403-.516 4.683-1.607 5.074.219.247 1.153-.062 2.527.062 3.104-.405 1.395-.158 2.548-.466 3.92-.309 1.374-.735 2.672-1.167 3.468.407 1.92-.046 2.621-.499 3.322z"/><path fill="#fff" d="M310.621 255.447c.295-.969.493-1.916.556-3.035.521-2.726.72-5.081-.324-8.074-.803-2.342-1.923-3.812-4.422-1.867-.515.411-1.043 1.229-1.668 2.066-.666.646-1.641 1.257-1.826 1.8-.11.425-.007.906 0 1.406-.069.619-.392.989-.501 1.415-.24.757.075 1.291.007 1.91l-.645 2.148c-.165.639-.639 1.242-.783 1.978-.508.913-1.023 1.325-.968 2.521-1.888 2.917.152 8.212-2.107 10.808-.769 5.796-2.279 10.945-2.717 16.871l.377.824c.103.48-.253 1.16-.397 1.896l-.536 1.723c-.192 1.449.021 2.911.427 4.333.542 1.593 1.25 2.547 3.364 2.094 2.17-.665 3.783-2.521 4.531-4.189.474-.604.852-1.188 1.058-1.634.329-1.277.301-3.282.665-4.869.274-1.062.729-1.764 1.078-2.945.137-1.235.191-2.857.494-3.323.645-.741 2.629-.865 3.934-1.347.961-.207 3.475-1.146 3.989-.151.337.632-.233 1.257-.322 1.778-.041 1.217.171 2.679-.123 3.646.103.48-.591.528-.763.666-.206.446.055 1.194.021 1.504-.089.521-.295.968-.426 1.298-.227.35-.666.646-.755 1.167.062.289.433.612.439 1.112-.13.33-.281.562-.508.914-.076.116-.323.37-.24.755l.206.962c.062.288-.24.755-.371 1.084-.315.872-.769 1.573-1.277 2.486-.844 1.688-2.059 3.056-3.021 4.669-.796.977-1.297 2.39-1.908 2.822-.398.488-1.359.694-2.012.936-.803.474-2.025 1.338-3.426 1.84-1.764.68-4.263 1.215-5.712 1.023-1.277-.329-4.271-2.1-5.082-3.536-.158-.267-.124-.576-.227-1.058-.474-.803-.947-1.606-1.401-2.313-.433-.61-1.016-.988-1.12-1.47-.281-.845.014-1.812-.652-2.574-.062-.289-.295-.439-.165-.77l-.048-.693-.268-1.249c-.062-.288.007-.907.137-1.236-.007-.501.179-1.044.192-1.449.007-.906.089-1.929.384-2.897 1.099-2.85 1.037-7.359 1.53-10.685.027-.81.426-1.298.24-2.163.7-2.361 1.235-5.492 1.585-8.081.124-.831.323-1.778.831-2.692.055-.213.357-.68.625-.837.035-.309.316-.873.446-1.202.165-.639.233-1.256.227-1.758.192-1.449.254-2.567.542-4.037.397-1.896 1.86-3.517 2.684-5.302.068-.617-.035-1.098.15-1.642.186-.542.756-1.167 1.112-1.846.089-.522-.055-1.194.151-1.642.11-.426.508-.915.652-1.648.487-1.009.817-2.286 1.379-3.413.281-.562.659-1.146.865-1.592.549-.722.775-1.071 1.366-1.601.515-.412 1.297-.982 1.908-1.415 1.126-.845 2.541-1.751 3.962-2.157 1.305-.479 3.035-.851 4.635-.893 1.099-.034 3.805 1.8 4.704 2.712.92 1.009 1.531 1.984 2.204 3.248.591.878 1.436 2.004 1.49 3.198.165.77-.013 1.813-.137 2.645.227 1.057.412 1.922.543 3.001-.089.521-.027.81-.137 1.236-.056.212-.543 1.221-.351 1.18.604 1.882.158 3.084-.268 4.381-.329 1.277-.796 2.384-1.263 3.488-.37 1.085-.591 1.938-1.744 2.185l-3.611.976c-.577.123-1.923.412-2.547-.158-.392-.418-.261-.748-.268-1.25.165-.639.295-.968.385-1.489.096-.021.096-.021.075-.117.244-.757.773-1.576.897-2.406z"/><path fill="#fff" d="M350.752 227.84c-.123.83.158 1.675.227 2.464-.178 1.045-.548 2.129-.769 2.981l.213 1.462c-.007.906-.282 1.971-.364 2.994-.157 1.139-.219 2.26-.261 3.475-.103.927.145 2.08.062 3.103.103.48-.027.812-.213 1.354.007.5-.274 1.064-.48 1.511-.165.639-.693 1.455-.549 2.129-.007.905.639 1.572.749 2.554-.027.811-.426 1.297-.55 2.129-.26.659-.15 1.641-.198 2.355-.014 3.22-.356 6.31-.253 9.605-.007.906-.13 1.736-.178 2.452-.124.83-.481 1.509-.55 2.128l.322 2.444-.288 1.471c-.089.521.206.96.309 1.441-.027.81-.109 1.833-.288 2.878.056 1.194.076 2.697-.061 3.933l.377 2.231c-.13.33-.336.776-.274 1.065l.075 1.29c-.089.521-.486 1.01-.479 1.511-.069.618.206.962.309 1.442-.082 1.022-.302 1.874-.446 2.609-.089.521-.124.83-.405 1.395-.014.404-.247.253-.536.314-.865.186-1.634.351-2.362.708-.845.281-1.635.351-2.308.495-.48.103-.899.494-1.441.309-.57-.782-.454-2.114-.371-3.138.047-.714.521-1.318.535-1.724l-.24-2.06.227-1.758c-.104-.481-.262-.749-.227-1.058l.178-2.452c.089-.521.343-1.682-.186-2.271-.179-.364-1.141-.158-1.62-.055l-1.827.392c-1.153.247-2.382.61-3.652.783l-1.504.02-.804.475c-.535.315-1.441.31-2.06.24-.288.062-.728.357-1.058.228-.288.062-.693.047-.769.164-.343.275-.418.392-.357.681l-.508.913c-.103.927-.323 1.778-.467 2.513-.357.68-.92 1.806-1.16 2.562-.495 1.914-.336 3.59-.57 4.847-.048.714-.522 1.318-.741 2.171-.316.871-.357 2.086-1.373 2.506-.748.26-1.483.116-2.19.569-.632.337-1.696.062-2.465.228-.33-.13-.522-.089-.811-.027-.405-.014-.501.007-.886.089-.48.104-.392-.418-.281-.845-.007-.501-.069-.789.062-1.118.144-.735.363-1.588.315-2.28.261-.659 1.098-1.441 1.476-2.026.172-1.545.48-2.919.844-4.505.378-.583.948-1.208 1.091-1.942.316-.872.453-2.107.749-3.076.13-.329.048-.714.082-1.023l1.078-1.538.315-2.279c.343-1.683.816-3.694 1.098-5.666.254-1.159 1.4-1.909 1.826-3.206.542-1.222.508-3.729 1.064-5.356.274-1.064.672-1.552.659-2.554.103-.927.714-1.359 1.029-2.231.275-1.064-.034-2.507.975-3.427.144-2.143.672-4.367 1.572-6.27.378-.584.639-1.242.823-1.786.296-.968.57-2.032.749-3.075.13-.33.123-.83.212-1.354.089-.521.316-.871.501-1.413.673-1.553 1.167-3.469 1.778-5.309.885-2.905 1.455-6.345 3.123-8.412.405-1.394.775-2.479 1.552-3.551.996-.515 2.314.008 3.467-.24 1.002-.014 2.341-.803 3.591-1.071.481-.103 1.099-.035 1.483-.117l.824-.377c.055-.214.227-.35.516-.412.384-.082.48-.103.886-.091.576-.123 1.098-.033 1.641.152.924 1.007.457 2.113.416 3.328zm-12.487 18.663c-.26 2.068-1.497 3.338-1.565 5.364-.562 2.533-1.572 4.861-1.667 7.696-.954 3.522-2.197 7.107-2.958 10.59-.274 1.062-.549 2.128-.844 3.096-.185.543-1.119 2.754-.343 3.09 1.415.502 3.234-.392 4.758-.316l1.312.021c.385-.082 1.016-.418 1.477-.618.247-.253.631-.335.92-.397.247-.255.419-.392.529-.817.082-1.023.165-2.047.384-2.897.103-.928.185-1.951.171-2.952.089-.522.083-1.024-.021-1.506.13-.329.089-.521.027-.81-.041-.191-.145-.673.027-.81.295-.968.356-2.088.397-3.303.09-.521.158-1.141.035-1.717.013-.405-.248-1.153-.021-1.504-.041-.192.014-.405.186-.542.15-.233.089-.521.103-.928.068-.618-.076-1.29-.028-2.005.014-.405-.131-1.078.151-1.642-.062-.287-.007-.501.124-.83.11-.426.11-.426.007-.906-.398-.92-.124-1.984-.139-2.986.179-1.044.22-2.26-.659-3.076-.55-.688-1.972-.283-2.363.705z"/><path fill="#fff" d="M187.23 186.773l3.425 6.627 3.097 8.276 3.939 10.527 7.71-8.178 2.255-2.392 3.11 5.364.252.434.311.394 4.259 5.391 3.507 5.945.369.626.49.537 1.418 1.553-4.662.867-.553.103-.53.19-7.02 2.518-7.39.628-.305.026-.302.052-8.159 1.419-.145.025-.144.031-8.093 1.762-.195.042-.193.054-7.589 2.112-7.773 1.163-.483.072-.469.139-2.611.773 1.831-4.197.104-.238.086-.245 2.748-7.838.904-1.625 6.735 2.592 1.865-7.767 1.74-7.246 3.038-6.837.375-.844.143-.912 1.149-7.317 1.756-4.606m-1.065-19.983l-2.43 7.469-2.186 7.764-2.877 7.55-1.263 8.04-3.298 7.422-1.89 7.868-4.956-1.907-4.15 7.462-2.946 8.402-3.55 8.14-3.858 8.43 8.62-1.276 7.974-2.361 8.199-1.227 8.004-2.228 8.093-1.762 8.159-1.419 8.3-.706 7.88-2.826 8.141-1.515 8.622-.853-4.642-6.189-4.987-5.465-3.748-6.354-4.553-5.764-3.702-6.385-4.669-6.516-8.144 8.638-3.243-8.666-4.04-7.818-3.458-8.067-3.402-7.881z"/></g></svg>