<?xml version="1.0" encoding="utf-8"?>
<!-- Generator: Adobe Illustrator 17.0.0, SVG Export Plug-In . SVG Version: 6.00 Build 0)  -->
<!DOCTYPE svg PUBLIC "-//W3C//DTD SVG 1.1//EN" "http://www.w3.org/Graphics/SVG/1.1/DTD/svg11.dtd">
<svg version="1.1" xmlns="http://www.w3.org/2000/svg" xmlns:xlink="http://www.w3.org/1999/xlink" x="0px" y="0px" width="384px"
	 height="550px" viewBox="0 0 384 550" enable-background="new 0 0 384 550" xml:space="preserve">
<g id="Borders" display="none">
	<g display="inline">
		<rect x="0.392" y="-0.055" fill="#5D5D5D" width="384" height="550"/>
	</g>
</g>
<g id="Labels">
</g>
<g id="Names">
	<g>
		<g>
			<path fill="#FFFFFF" d="M67.263,288.621c-0.124,0.83,0.158,1.675,0.227,2.464c-0.178,1.045-0.549,2.129-0.769,2.981
				c0.007,0.501,0.206,0.961,0.213,1.462c-0.007,0.906-0.282,1.971-0.363,2.994c-0.158,1.139-0.22,2.26-0.261,3.475
				c-0.103,0.927,0.145,2.08,0.062,3.104c0.104,0.48-0.027,0.811-0.212,1.353c0.007,0.5-0.274,1.064-0.481,1.511
				c-0.164,0.639-0.693,1.455-0.549,2.129c-0.007,0.905,0.639,1.572,0.749,2.554c-0.027,0.811-0.426,1.298-0.549,2.129
				c-0.261,0.659-0.151,1.641-0.199,2.355c-0.014,3.22-0.356,6.31-0.253,9.605c-0.007,0.906-0.13,1.737-0.178,2.452
				c-0.124,0.83-0.481,1.51-0.55,2.128c-0.048,0.714,0.351,1.635,0.323,2.444c0.007,0.502-0.295,0.968-0.288,1.471
				c-0.089,0.521,0.206,0.96,0.309,1.441c-0.027,0.81-0.11,1.833-0.288,2.878c0.055,1.194,0.077,2.697-0.062,3.934
				c0.069,0.789,0.33,1.537,0.378,2.231c-0.131,0.329-0.337,0.775-0.275,1.064c-0.089,0.521,0.206,0.961,0.076,1.29
				c-0.089,0.521-0.487,1.01-0.48,1.511c-0.068,0.618,0.206,0.962,0.31,1.442c-0.083,1.023-0.303,1.874-0.446,2.609
				c-0.089,0.521-0.124,0.831-0.405,1.395c-0.013,0.404-0.248,0.253-0.536,0.315c-0.865,0.185-1.634,0.35-2.362,0.707
				c-0.845,0.281-1.634,0.351-2.307,0.495c-0.48,0.103-0.899,0.494-1.442,0.309c-0.57-0.782-0.453-2.114-0.371-3.138
				c0.048-0.714,0.522-1.318,0.536-1.724c0.068-0.618-0.289-1.346-0.241-2.06c-0.007-0.501,0.233-1.257,0.226-1.758
				c-0.103-0.481-0.262-0.749-0.227-1.058c0.006-0.906,0.171-1.545,0.178-2.451c0.09-0.522,0.343-1.683-0.186-2.272
				c-0.178-0.364-1.14-0.158-1.62-0.055c-0.577,0.124-1.25,0.268-1.826,0.392c-1.154,0.247-2.383,0.611-3.653,0.783
				c-0.48,0.103-1.023-0.083-1.503,0.02c-0.385,0.083-0.419,0.393-0.803,0.475c-0.536,0.315-1.442,0.31-2.06,0.24
				c-0.289,0.062-0.728,0.357-1.058,0.228c-0.288,0.062-0.694,0.048-0.769,0.165c-0.343,0.274-0.419,0.391-0.357,0.68
				c-0.13,0.329-0.377,0.584-0.507,0.913c-0.103,0.927-0.323,1.778-0.467,2.513c-0.356,0.68-0.919,1.806-1.16,2.562
				c-0.495,1.915-0.336,3.59-0.57,4.847c-0.048,0.715-0.521,1.318-0.741,2.171c-0.316,0.871-0.357,2.086-1.374,2.506
				c-0.748,0.26-1.483,0.116-2.189,0.569c-0.632,0.337-1.696,0.062-2.466,0.228c-0.329-0.13-0.521-0.089-0.81-0.027
				c-0.405-0.014-0.501,0.007-0.885,0.089c-0.481,0.104-0.392-0.418-0.282-0.845c-0.007-0.501-0.068-0.789,0.062-1.118
				c0.144-0.735,0.363-1.587,0.315-2.28c0.261-0.659,1.098-1.441,1.476-2.026c0.171-1.545,0.48-2.919,0.844-4.505
				c0.378-0.583,0.948-1.208,1.092-1.942c0.316-0.872,0.453-2.107,0.748-3.075c0.131-0.33,0.048-0.715,0.082-1.024
				c0.282-0.563,0.797-0.976,1.078-1.538c0.144-0.735,0.172-1.545,0.316-2.279c0.343-1.683,0.816-3.694,1.098-5.666
				c0.253-1.159,1.4-1.908,1.825-3.206c0.543-1.222,0.508-3.729,1.064-5.356c0.275-1.064,0.673-1.551,0.659-2.554
				c0.103-0.927,0.713-1.359,1.03-2.231c0.274-1.064-0.035-2.507,0.975-3.427c0.144-2.143,0.672-4.367,1.571-6.27
				c0.378-0.584,0.639-1.242,0.824-1.786c0.295-0.968,0.57-2.031,0.749-3.075c0.131-0.33,0.124-0.83,0.213-1.353
				c0.089-0.522,0.315-0.872,0.5-1.414c0.673-1.553,1.167-3.469,1.778-5.309c0.886-2.905,1.455-6.345,3.123-8.412
				c0.405-1.394,0.776-2.479,1.552-3.551c0.996-0.515,2.314,0.008,3.468-0.24c1.002-0.014,2.341-0.803,3.591-1.07
				c0.481-0.104,1.099-0.036,1.483-0.118c0.385-0.083,0.439-0.295,0.824-0.377c0.055-0.214,0.226-0.35,0.515-0.412
				c0.385-0.082,0.48-0.103,0.886-0.091c0.577-0.123,1.098-0.033,1.641,0.152C67.771,286.3,67.304,287.406,67.263,288.621z
				 M54.775,307.284c-0.261,2.068-1.497,3.339-1.565,5.364c-0.562,2.533-1.572,4.861-1.667,7.697
				c-0.954,3.521-2.197,7.106-2.958,10.589c-0.275,1.063-0.549,2.128-0.844,3.097c-0.186,0.542-1.119,2.753-0.343,3.09
				c1.415,0.501,3.233-0.393,4.758-0.316c0.481-0.104,0.831,0.123,1.312,0.02c0.384-0.082,1.016-0.418,1.476-0.617
				c0.247-0.254,0.632-0.336,0.92-0.398c0.247-0.255,0.419-0.392,0.529-0.817c0.083-1.023,0.165-2.047,0.384-2.897
				c0.103-0.928,0.185-1.951,0.171-2.952c0.089-0.522,0.082-1.024-0.021-1.505c0.13-0.33,0.089-0.521,0.027-0.811
				c-0.041-0.191-0.145-0.673,0.028-0.81c0.294-0.968,0.356-2.088,0.396-3.303c0.09-0.521,0.158-1.14,0.035-1.716
				c0.014-0.406-0.248-1.154-0.021-1.505c-0.042-0.192,0.014-0.405,0.185-0.542c0.151-0.233,0.089-0.521,0.103-0.928
				c0.068-0.618-0.076-1.29-0.028-2.005c0.014-0.405-0.131-1.078,0.151-1.641c-0.062-0.288-0.008-0.501,0.123-0.831
				c0.11-0.426,0.11-0.426,0.007-0.906c-0.399-0.92-0.125-1.984-0.138-2.986c0.179-1.044,0.22-2.26-0.66-3.076
				C56.587,305.892,55.166,306.297,54.775,307.284z"/>
		</g>
		<g>
			<path fill="#FFFFFF" d="M111.378,278.659c-0.027,0.811,0.351,1.635-0.006,2.314c-0.11,0.425-0.529,0.816-0.563,1.125
				c-0.281,0.563-0.487,1.01-0.576,1.532c0.007,0.501,0.206,0.961,0.233,1.559c-0.089,0.521-0.384,1.49-0.453,2.108
				c-0.109,1.833,0.138,2.986-0.734,4.078c0.543,1.593-0.556,3.035-0.769,4.388c-0.123,0.831-0.164,2.047-0.247,3.07
				c-0.315,0.871-0.823,1.785-0.927,2.711c-0.068,0.618,0.227,1.059,0.083,1.792c-0.281,0.564-0.274,1.065-0.556,1.629
				c-0.034,0.309-0.377,0.583-0.604,0.934c-0.508,0.913-0.569,2.032-0.672,2.96c-0.453,2.106-0.426,4.113-0.878,6.221
				c-0.289,1.469-0.57,3.439-0.913,5.122c-0.274,1.064-0.569,2.033-0.885,2.905c0.007,0.501,0.227,1.057,0.192,1.365
				c-0.322,1.778-0.975,3.427-1.627,5.074c-0.171,0.139,0.295,0.439,0.316,0.536c0.103,0.48-0.178,1.045-0.171,1.545
				c-0.048,0.715,0.097,1.388-0.068,2.026c-0.171,1.545-0.981,2.925-1.345,4.512c-0.501,2.821-0.363,5.808-1.29,8.521
				c-1.847,1.703-4.786,2.534-7.635,2.843c-0.955-0.699-1.264-2.142-1.277-3.145c-0.337-2.039-0.33-4.352-0.57-6.413
				c0.048-0.713-0.289-1.346-0.412-1.922c-0.179-1.771-0.097-4.202-0.146-6.303c-0.124-1.985-0.77-4.06-0.193-5.59
				c-0.989-4.614-1.703-10.292-2.796-15.388c-0.165-0.77-0.412-1.922-1.058-2.589c-0.899,0.494-0.803,1.882-1.058,3.042
				c-0.123,0.832-0.631,1.745-0.968,2.521c-0.507,0.913-0.438,1.702-0.713,2.768c-0.282,0.563-0.68,1.051-0.961,1.614
				c-0.186,0.541-0.171,1.545-0.294,2.375c-0.221,0.851-0.399,1.896-0.447,2.609c0.062,0.288,0.316,0.536,0.227,1.058
				s-0.563,1.126-0.611,1.841c-0.227,0.35-0.027,0.81-0.213,1.352c-0.089,0.522-0.528,0.817-0.521,1.318
				c-0.109,0.426,0.035,1.1-0.096,1.429c-0.082,1.023-0.591,1.937-0.735,2.671c-0.082,1.023,0.124,1.984-0.054,3.028
				c0.069,0.789-0.268,1.565-0.583,2.438c-0.213,1.354-0.055,3.028-0.289,4.284c-0.123,0.832-0.501,1.415-0.72,2.268
				c-0.247,1.66-0.227,3.164-0.782,4.791c-0.275,1.065-0.357,2.088-0.962,3.021c-0.527,0.818-1.009,0.921-2.066,1.148
				c-0.769,0.164-1.729,0.371-2.595,0.556c-0.577,0.124-1.209,0.46-1.957,0.722c-0.673,0.144-2.884,0.618-2.863-0.694
				c-0.103-0.48-0.056-1.194,0.014-1.812c0.233-1.257,0.604-2.341,0.857-3.502c0.24-0.755,0.233-1.256,0.453-2.107
				c0.247-1.661,1.249-3.083,0.775-5.295c0.975-2.019,1.098-4.258,1.894-6.639c0.165-0.639,0.502-1.415,0.742-2.171
				c0.034-0.309-0.165-0.769-0.172-1.271c0.254-1.159,0.852-2.595,1.222-3.678c0.213-1.354,0.446-2.611,0.68-3.867
				c0.164-0.638,0.947-1.208,1.111-1.848c0.275-1.064,0.296-2.375,0.529-3.632c0.239-0.755,0.232-1.257,0.494-1.916
				c-0.048-0.693-0.151-1.174,0.089-1.929c-0.028-0.598,0.35-1.182,0.418-1.8c0.049-0.714-0.075-1.291-0.124-1.984
				c0.131-0.329,0.529-0.817,0.715-1.359c0.13-0.33-0.014-1.003,0.212-1.353c0.09-0.521,0.529-0.817,0.756-1.168
				c0.089-0.521,0.137-1.236,0.322-1.778c0.94-3.118,1.62-6.982,2.106-10.808c0.192-1.449,0.598-2.843,0.618-4.154
				c0.007-0.906,0-1.408,0.261-2.067c0.144-0.733,0.192-1.448,0.356-2.087c0.124-0.831,0.397-1.896,0.577-2.939
				c-0.008-0.501-0.09-0.886,0.521-1.318c0.708-0.453,1.978-0.624,2.939-0.83c1.675-0.159,3.31-0.51,4.847-0.839
				c0.481-0.104,0.577-0.124,0.906,0.007c0.605,0.473,0.797,1.84,0.729,2.457c-0.082,1.024-0.124,2.239-0.089,3.338
				c0.124,1.984,1.059,3.996,1.34,6.248c0.104,0.48-0.219,0.852-0.116,1.332c0.179,1.772,0.68,3.173,1.03,4.807
				c0.124,0.577-0.157,1.14-0.013,1.812c0.186,2.273,0.659,4.483,0.866,6.853c0.227,1.059,0.241,2.06,0.508,3.31
				c-0.069,0.618-0.213,1.354-0.048,2.121c-0.048,0.716,0.206,0.963,0.543,1.594c0.144,0.673,0.247,1.154,0.371,1.73
				c0,0,0.405,1.422,0.77,1.243c0.624-0.839,0.569-2.033,0.94-3.117c0.157-1.141,0.336-2.185,0.769-2.98
				c0.151-0.234-0.165-0.77-0.206-0.961c0.13-0.331,0.199-0.948,0.254-1.161c0.22-0.852,0.364-1.586,0.433-2.204
				c0.232-1.257,0.274-2.473,0.878-3.405c0.11-1.834,0.37-3.901,1.064-5.356c-0.056-1.194,0.356-2.088,0.631-3.151
				c0.089-0.522,0.007-0.906,0.192-1.45c0.363-0.177,0.61-0.432,0.624-0.838c-0.006-1.907,0.474-3.419,0.837-5.005
				c0.227-1.758,0.261-3.476,0.72-5.081c0.09-0.522,0.082-1.023,0.213-1.353s0.316-0.873,0.254-1.16
				c0.109-0.427-0.144-0.674-0.014-1.004c0.014-0.404,0.336-0.774,0.371-1.084c0.878-1.998,2.506-1.441,5.046-1.786
				c0.865-0.186,1.765-0.68,2.465-0.228C111.825,276.05,111.468,278.137,111.378,278.659z"/>
		</g>
		<g>
			<path fill="#FFFFFF" d="M141.84,271.123c-0.295,0.968-0.803,1.882-1.099,2.85c-0.11,0.427-0.467,1.105-0.885,1.497
				c-0.323,0.371-0.515,0.412-1.188,0.557c-0.48,0.104-0.865,0.186-1.271,0.171c-0.48,0.104-0.906-0.007-1.387,0.097
				c-1.984,0.124-4.168,1.196-5.026,3.289c-0.171,0.138-0.123,0.831-0.116,1.332c-0.707,1.862-1.111,4.663-1.215,6.997
				c-0.253,1.162-0.604,2.342-0.666,3.461c-0.013,0.405,0.144,0.674,0.111,0.982c-0.138,1.235-0.701,2.362-1.126,3.66
				c0.007,0.501,0.13,1.077-0.172,1.544c-0.048,0.716-0.467,1.106-0.631,1.745c-0.089,0.521,0,1.407-0.165,2.046
				c-0.288,1.47-0.5,2.822-0.631,4.56c-0.027,0.811,0.221,1.964-0.02,2.719c-0.219,0.852-1.078,1.539-1.373,2.507
				c-0.439,1.702-0.748,4.484-1.105,6.571c-0.144,2.143-1.291,4.298-1.476,6.249c0.028,0.598-0.157,1.139-0.13,1.736
				c-0.069,0.618-0.103,0.928-0.151,1.642c0.165,0.769-0.556,1.628-0.583,2.438c0.027,0.597,0.11,0.981,0.213,1.462
				c-0.055,0.214,0.008,0.502-0.144,0.734c-0.145,0.736,0.075,1.292,0.144,2.081c-0.048,0.715-0.288,1.47-0.26,2.068
				c0.144,0.672,0.076,1.29-0.207,1.853c0.028,0.598,0.076,1.29-0.026,2.219c0.083,0.384,0.233,1.558-0.144,2.142
				c-0.811,1.38-2.623,1.366-4.643,1.799c-1.654,0.255-4.366,2.145-5.349,0.846c-0.741-0.645-0.034-2.506,0.199-3.763
				c0.116-1.332,0.501-2.822,0.528-3.632c0.089-0.522-0.014-1.002,0.076-1.524c0.185-0.543,0.466-1.105,0.555-1.628
				c0.11-0.426-0.014-1.002,0.117-1.332c-0.047-0.693,0.254-1.16,0.323-1.779c0.186-0.541-0.151-1.174,0.13-1.736
				c0.089-0.521,0.22-0.853,0.501-1.414c-0.042-0.192,0.035-0.31-0.048-0.694c-0.041-0.191-0.103-0.48-0.124-0.576
				c0.81-2.788,0.844-5.912,1.737-8.316c-0.392-1.825,0.624-3.651,0.85-5.41c0.049-0.714-0.095-1.387,0.015-1.812
				c0.144-0.734,0.659-1.146,0.803-1.882c0.528-2.225,0.748-4.483,1.063-6.764c1.517-6.056,1.942-12.984,3.768-19.006
				c-0.021-0.097-0.295-0.44-0.315-0.535c-0.042-0.193-0.083-0.385,0.068-0.618c-0.042-0.192,0.068-0.62,0.22-0.853
				c0.356-0.68,0.693-1.456,0.721-2.266c-0.083-0.385-0.083-0.385-0.468-0.303c-0.309-0.033-0.789,0.069-1.174,0.152
				c-0.769,0.164-1.483,0.116-2.252,0.281s-1.572,0.639-2.341,0.804c-1.017,0.419-2.308,0.494-3.365,0.721
				c-0.192,0.042-0.288,0.062-0.309-0.033c-0.274-0.344-0.09-0.886,0.021-1.312c-0.048-0.693-0.296-1.847,0.041-2.623
				c0.131-0.329,0.336-0.775,0.466-1.104c0.172-0.138,0.241-0.756,0.316-0.873c0.247-0.254,0.632-0.336,0.92-0.398
				c0,0,0.151-0.232,0.247-0.253c0.344-0.275,1.154-0.247,1.538-0.33c0.961-0.206,1.923-0.412,2.692-0.577
				c0.769-0.164,1.441-0.309,2.307-0.494c1.771-0.18,3.46-0.742,5.287-1.134c4.092-1.079,8.102-2.543,11.816-3.037
				c0.673-0.145,1.408,0,2.081-0.145c0.48-0.103,1.071-0.631,1.634-0.351C142.238,269.228,142.005,270.483,141.84,271.123z"/>
		</g>
		<g>
			<path fill="#FFFFFF" d="M170.124,266.567c-0.123,0.83,0.158,1.675,0.227,2.464c-0.179,1.045-0.549,2.129-0.769,2.981
				c0.007,0.501,0.206,0.961,0.213,1.462c-0.007,0.906-0.282,1.971-0.364,2.994c-0.158,1.139-0.219,2.26-0.261,3.475
				c-0.103,0.927,0.145,2.08,0.062,3.104c0.103,0.48-0.027,0.811-0.213,1.353c0.007,0.5-0.274,1.064-0.48,1.511
				c-0.165,0.639-0.693,1.455-0.549,2.129c-0.007,0.905,0.638,1.572,0.749,2.554c-0.027,0.811-0.426,1.298-0.55,2.129
				c-0.26,0.659-0.15,1.641-0.198,2.354c-0.014,3.221-0.356,6.311-0.253,9.606c-0.007,0.906-0.131,1.737-0.179,2.452
				c-0.123,0.83-0.48,1.51-0.549,2.128c-0.048,0.714,0.35,1.635,0.322,2.444c0.007,0.502-0.295,0.969-0.288,1.471
				c-0.089,0.521,0.206,0.96,0.309,1.441c-0.027,0.81-0.109,1.833-0.288,2.878c0.056,1.194,0.076,2.697-0.062,3.933
				c0.069,0.79,0.33,1.539,0.378,2.232c-0.13,0.329-0.336,0.775-0.274,1.064c-0.089,0.521,0.206,0.961,0.075,1.29
				c-0.089,0.522-0.487,1.01-0.479,1.511c-0.069,0.618,0.206,0.962,0.309,1.442c-0.082,1.022-0.302,1.874-0.446,2.609
				c-0.089,0.521-0.124,0.831-0.405,1.395c-0.014,0.404-0.248,0.253-0.536,0.315c-0.865,0.186-1.634,0.35-2.362,0.707
				c-0.845,0.281-1.635,0.351-2.308,0.495c-0.48,0.103-0.899,0.494-1.441,0.309c-0.57-0.782-0.454-2.114-0.371-3.138
				c0.048-0.714,0.521-1.318,0.535-1.724c0.068-0.618-0.289-1.346-0.241-2.06c-0.007-0.501,0.233-1.257,0.227-1.758
				c-0.104-0.481-0.262-0.749-0.227-1.058c0.006-0.906,0.171-1.545,0.178-2.452c0.089-0.521,0.343-1.682-0.185-2.271
				c-0.179-0.364-1.141-0.158-1.621-0.055c-0.576,0.123-1.249,0.268-1.826,0.392c-1.153,0.247-2.383,0.61-3.653,0.783
				c-0.48,0.103-1.022-0.083-1.503,0.02c-0.385,0.083-0.419,0.393-0.804,0.475c-0.535,0.315-1.441,0.31-2.06,0.241
				c-0.289,0.062-0.728,0.356-1.058,0.227c-0.289,0.062-0.694,0.047-0.769,0.164c-0.343,0.275-0.419,0.392-0.357,0.681
				c-0.13,0.329-0.378,0.583-0.508,0.913c-0.103,0.927-0.323,1.777-0.467,2.513c-0.356,0.68-0.919,1.806-1.16,2.562
				c-0.495,1.916-0.336,3.591-0.569,4.848c-0.048,0.715-0.522,1.318-0.742,2.17c-0.316,0.872-0.357,2.087-1.373,2.507
				c-0.749,0.26-1.483,0.116-2.19,0.569c-0.632,0.337-1.696,0.062-2.465,0.227c-0.329-0.129-0.521-0.088-0.81-0.026
				c-0.405-0.014-0.502,0.007-0.886,0.089c-0.48,0.104-0.392-0.418-0.281-0.845c-0.008-0.501-0.069-0.789,0.062-1.118
				c0.144-0.735,0.363-1.588,0.315-2.28c0.261-0.659,1.098-1.441,1.476-2.026c0.171-1.545,0.48-2.919,0.844-4.505
				c0.378-0.583,0.947-1.208,1.091-1.942c0.316-0.872,0.454-2.107,0.748-3.076c0.131-0.329,0.048-0.714,0.083-1.023
				c0.281-0.563,0.796-0.976,1.077-1.538c0.145-0.735,0.172-1.545,0.316-2.279c0.343-1.683,0.817-3.694,1.098-5.666
				c0.254-1.159,1.4-1.909,1.826-3.206c0.542-1.222,0.508-3.729,1.063-5.356c0.275-1.064,0.673-1.552,0.659-2.554
				c0.103-0.927,0.714-1.359,1.029-2.231c0.275-1.064-0.034-2.507,0.975-3.427c0.145-2.143,0.673-4.367,1.572-6.27
				c0.377-0.584,0.638-1.242,0.823-1.785c0.296-0.969,0.57-2.033,0.748-3.076c0.131-0.33,0.124-0.83,0.213-1.354
				c0.089-0.521,0.316-0.871,0.501-1.413c0.673-1.553,1.167-3.469,1.777-5.309c0.886-2.905,1.456-6.345,3.124-8.411
				c0.405-1.395,0.775-2.48,1.551-3.552c0.996-0.515,2.314,0.008,3.468-0.24c1.002-0.014,2.341-0.803,3.591-1.071
				c0.48-0.103,1.099-0.035,1.483-0.117c0.385-0.083,0.439-0.295,0.824-0.377c0.055-0.214,0.227-0.35,0.515-0.412
				c0.385-0.082,0.48-0.103,0.886-0.091c0.577-0.123,1.099-0.033,1.642,0.152C170.631,264.246,170.165,265.353,170.124,266.567z
				 M157.636,285.23c-0.261,2.068-1.497,3.338-1.565,5.364c-0.562,2.533-1.572,4.861-1.668,7.696
				c-0.954,3.522-2.196,7.107-2.958,10.59c-0.275,1.062-0.549,2.128-0.844,3.096c-0.186,0.543-1.119,2.754-0.343,3.09
				c1.415,0.502,3.234-0.392,4.758-0.316c0.48-0.103,0.831,0.124,1.312,0.021c0.385-0.082,1.016-0.418,1.476-0.618
				c0.248-0.253,0.632-0.335,0.921-0.396c0.247-0.256,0.418-0.393,0.528-0.818c0.082-1.023,0.164-2.047,0.384-2.897
				c0.103-0.928,0.186-1.951,0.172-2.952c0.089-0.523,0.082-1.023-0.021-1.506c0.131-0.329,0.09-0.521,0.028-0.81
				c-0.042-0.191-0.144-0.673,0.028-0.81c0.295-0.969,0.356-2.088,0.397-3.303c0.089-0.521,0.158-1.141,0.034-1.717
				c0.014-0.405-0.247-1.152-0.021-1.504c-0.041-0.192,0.013-0.405,0.185-0.542c0.151-0.233,0.089-0.521,0.104-0.927
				c0.068-0.619-0.076-1.291-0.028-2.006c0.014-0.405-0.131-1.078,0.151-1.641c-0.062-0.288-0.007-0.502,0.124-0.831
				c0.11-0.426,0.11-0.426,0.007-0.906c-0.399-0.92-0.124-1.984-0.138-2.986c0.179-1.044,0.22-2.26-0.659-3.076
				C159.449,283.838,158.027,284.242,157.636,285.23z"/>
		</g>
		<g>
			<path fill="#FFFFFF" d="M188.533,324.759c0.281-0.564,0.446-1.203,0.61-1.841c0.13-0.33,0.145-0.735,0.083-1.023
				c0.171-0.138,0.027-0.811,0.178-1.044c0.433-0.797,0.515-1.82,1.099-2.85c-0.048-0.693,0.274-1.063,0.247-1.661
				c0.068-0.618,0.212-1.354,0.397-1.895c0.027-0.811-0.096-1.389,0.007-2.315c0.09-0.521,0.275-1.064,0.364-1.585
				c0.185-0.543,0-1.408-0.007-1.91c0.418-0.391,0.646-0.741,0.831-1.283c0.068-0.618,0.02-1.312,0.26-2.068
				c0.337-0.774,0.556-1.627,0.432-2.204c-0.055-1.194-0.618-2.883-0.859-3.535c-0.494-0.898-1.888-1.305-2.911-1.387
				c-0.852-0.22-2.513-0.468-3.316,0.007c-1.765,0.68-2.19,4.793-2.623,6.997c-0.253,1.161-0.439,1.704-0.342,3.091
				c-0.165,0.639-0.502,1.414-0.666,2.053c-0.124,0.831-0.323,1.779-0.563,2.533c-0.123,0.832-0.247,1.662-0.404,2.803
				c-0.418,1.799-0.336,3.59-0.816,5.101c-0.089,0.522-0.083,1.024-0.213,1.354c-0.261,0.659-0.68,1.051-0.864,1.594
				c-0.57,2.031-0.364,4.401-1.572,6.269c-0.584,1.03-1.854,1.202-3.584,1.573c-1.442,0.31-3.207,0.989-4.217,0.502
				c-0.646-2.074,0.316-3.688,0.79-5.7c0.357-2.086,0.597-4.25,0.933-6.434c0.186-0.542,0.68-1.051,0.673-1.552
				c0.439-1.703,0.302-3.283,1.325-4.607c-0.289-1.346,0.467-2.513,0.721-3.674c0.088-0.521-0.268-1.25,0.034-1.717
				c-0.048-0.693,0.522-1.318,0.687-1.956c0.329-1.278,0.021-2.72-0.097-4.202c0.048-0.716-0.055-1.196,0.11-1.834
				c0.282-0.563,0.618-1.339,0.803-1.882c0.103-0.927,0.46-1.607,1.03-2.231c-0.13-1.079,0.082-2.431,0.397-3.304
				c0.302-0.466,0.604-0.934,0.79-1.476c0.206-0.446,0.103-0.927,0.213-1.353c-0.048-0.694,0.138-1.236,0.206-1.854
				c0.274-1.065,0.528-2.225,0.878-3.407c0.22-0.851,0.48-1.51,0.563-2.533c0.295-0.968,0.185-1.951,0.439-3.11
				c0.11-0.426,0.548-0.722,0.734-1.263c0.323-0.372,0.22-0.853,0.117-1.333c0.089-0.521,0.062-1.12,0.172-1.545
				c0.089-0.522,0.082-1.023,0.268-1.565c0.13-0.329,0.356-0.68,0.466-1.106c0.09-0.521-0.055-1.194-0.062-1.695
				c0.089-0.522,0.103-0.927,0.192-1.448c0.253-1.161,0.624-2.247,0.728-3.173c0.185-1.951,0.294-3.784,0.672-5.775
				c0.666-0.646,2.019-0.433,2.884-0.618c0.652-0.24,1.03-0.824,1.703-0.969c1.38-0.597,2.808-0.501,4.133-0.886
				c0.673-0.145,1.146-0.749,1.82-0.894c1.483-0.116,3.405-0.528,5.101-0.591c2.946-0.329,6.181,0.688,7.513,2.211
				c0.865,1.222,1.236,2.952,1.504,4.202c0.186,0.865,0.158,1.676,0.227,2.465c-0.124,0.831-0.323,1.778-0.213,2.76
				c-0.199,0.948-0.515,1.819-0.672,2.961c-0.186,0.542,0.172,1.271-0.013,1.812c-0.09,0.521-0.618,1.34-0.762,2.074
				c-0.542,1.222-0.913,2.308-1.572,3.455c-0.233,1.256-0.295,2.375-0.783,3.384c-0.185,0.542-0.796,0.975-1.078,1.539
				c-0.227,0.35-0.124,0.83-0.254,1.159c-0.514,1.82-1.235,4.086-2.677,5.803c-0.817,0.879-2.389,1.519-2.547,2.658
				c0.131,1.078,0.687,2.265,1.141,2.973c0.433,0.611,1.058,1.181,1.161,1.662c0.22,0.557,0.392,1.825,0.536,2.499
				c0.186,2.272-0.117,5.556-0.556,7.258c0.027,0.599-0.412,0.893-0.501,1.414c0.027,0.597,0.289,1.347,0.336,2.04
				c0.015,1.002-0.356,2.087-0.61,3.248c0.069,0.79,0,1.407-0.082,2.43c-0.131,0.33-0.227,0.351-0.357,0.68
				c0.083,0.385,0.357,0.729,0.248,1.155c0.062,1.695-1.188,3.37-1.702,5.19c-0.46,1.607-0.364,2.993-1.263,3.488
				c-0.577,0.123-1.367,0.192-1.943,0.316c-1.153,0.247-2.19,0.569-3.303,1.01c-0.673,0.144-2.534,0.844-3.117,0.467
				c-0.021-0.096-0.021-0.096-0.021-0.096C187.496,327.896,188.368,325.396,188.533,324.759z M195.449,283.86
				c0.447-1.201,0.693-2.863,1.133-4.565c0.315-0.872,0.789-1.477,0.913-2.308c0.13-0.331,0.027-0.81,0.137-1.236
				c-0.007-0.501,0.412-0.893,0.501-1.414c0.274-1.064,0.507-2.321,0.762-3.482c0.631-1.743,1.372-5.321-0.193-6.997
				c-0.254-0.246-1.264-0.733-1.511-0.479c-1.332,1.292-4.264,1.216-5.253,2.231c-0.611,0.434-0.947,2.617-1.263,3.489
				c-0.165,0.638-0.041,1.215-0.281,1.971c-0.11,0.425-0.508,0.913-0.693,1.455c-0.35,1.183-0.295,2.377-0.666,3.461
				c-0.261,0.66-0.851,1.188-0.919,1.807c-0.165,0.638-0.042,1.215-0.089,1.929c0.007,0.501-0.391,0.989-0.48,1.512
				c0.007,0.501,0.09,0.886,0,1.406c-0.047,2.122-1.228,4.588-0.253,6.792c0.673-0.145,2.218,0.026,3.179-0.18
				C192.545,288.605,194.852,285.295,195.449,283.86z"/>
		</g>
		<g>
			<path fill="#FFFFFF" d="M231.792,272.349c0.296-0.97,0.494-1.916,0.557-3.036c0.521-2.726,0.72-5.08-0.324-8.074
				c-0.804-2.342-1.923-3.812-4.422-1.867c-0.515,0.412-1.043,1.23-1.668,2.066c-0.666,0.646-1.641,1.257-1.826,1.801
				c-0.11,0.425-0.007,0.906,0,1.406c-0.069,0.618-0.392,0.989-0.501,1.415c-0.241,0.756,0.076,1.291,0.007,1.909
				c-0.165,0.639-0.48,1.51-0.645,2.148c-0.165,0.64-0.639,1.242-0.784,1.979c-0.507,0.912-1.022,1.324-0.968,2.52
				c-1.888,2.918,0.153,8.213-2.106,10.809c-0.769,5.795-2.278,10.945-2.717,16.87c0.062,0.289,0.315,0.536,0.377,0.824
				c0.103,0.48-0.253,1.161-0.398,1.896c-0.186,0.542-0.35,1.182-0.536,1.723c-0.191,1.449,0.021,2.912,0.427,4.334
				c0.542,1.592,1.249,2.547,3.364,2.094c2.17-0.666,3.782-2.521,4.531-4.189c0.474-0.604,0.852-1.188,1.058-1.635
				c0.329-1.276,0.301-3.282,0.665-4.868c0.274-1.063,0.728-1.765,1.078-2.945c0.137-1.236,0.192-2.857,0.495-3.323
				c0.645-0.741,2.629-0.865,3.934-1.348c0.961-0.206,3.475-1.146,3.989-0.15c0.337,0.632-0.233,1.256-0.322,1.778
				c-0.041,1.216,0.172,2.678-0.123,3.646c0.103,0.48-0.591,0.527-0.763,0.666c-0.206,0.446,0.055,1.194,0.021,1.504
				c-0.089,0.521-0.294,0.967-0.425,1.298c-0.227,0.35-0.666,0.645-0.755,1.167c0.062,0.289,0.433,0.611,0.439,1.112
				c-0.13,0.33-0.281,0.562-0.507,0.913c-0.076,0.116-0.323,0.371-0.24,0.756c0.062,0.288,0.123,0.576,0.206,0.962
				c0.062,0.288-0.241,0.754-0.371,1.083c-0.315,0.873-0.769,1.573-1.277,2.486c-0.844,1.688-2.059,3.057-3.021,4.669
				c-0.796,0.977-1.297,2.39-1.908,2.823c-0.398,0.487-1.359,0.694-2.012,0.935c-0.804,0.474-2.025,1.339-3.426,1.84
				c-1.764,0.68-4.264,1.216-5.712,1.023c-1.277-0.328-4.271-2.1-5.082-3.535c-0.157-0.268-0.124-0.576-0.227-1.058
				c-0.474-0.804-0.948-1.606-1.401-2.313c-0.433-0.611-1.016-0.988-1.12-1.47c-0.281-0.845,0.014-1.813-0.652-2.574
				c-0.062-0.289-0.295-0.439-0.165-0.77c-0.041-0.191-0.007-0.5-0.048-0.693c-0.104-0.48-0.165-0.769-0.268-1.249
				c-0.062-0.288,0.007-0.908,0.137-1.237c-0.007-0.501,0.179-1.043,0.191-1.448c0.007-0.906,0.09-1.93,0.385-2.897
				c1.099-2.85,1.036-7.36,1.53-10.685c0.027-0.811,0.425-1.298,0.239-2.163c0.701-2.361,1.236-5.493,1.586-8.081
				c0.124-0.832,0.322-1.778,0.83-2.692c0.055-0.213,0.357-0.68,0.625-0.838c0.035-0.309,0.316-0.872,0.446-1.202
				c0.165-0.639,0.233-1.256,0.227-1.757c0.192-1.45,0.253-2.568,0.542-4.038c0.398-1.895,1.86-3.516,2.684-5.302
				c0.068-0.617-0.035-1.098,0.151-1.641c0.186-0.542,0.755-1.167,1.112-1.847c0.089-0.522-0.055-1.194,0.15-1.641
				c0.11-0.426,0.508-0.915,0.653-1.648c0.487-1.01,0.817-2.287,1.379-3.414c0.281-0.562,0.659-1.146,0.865-1.592
				c0.549-0.721,0.775-1.071,1.366-1.6c0.515-0.412,1.297-0.982,1.908-1.416c1.126-0.844,2.541-1.751,3.962-2.156
				c1.305-0.48,3.035-0.852,4.635-0.893c1.099-0.035,3.805,1.799,4.704,2.711c0.919,1.01,1.531,1.984,2.204,3.249
				c0.591,0.877,1.436,2.004,1.49,3.198c0.165,0.77-0.013,1.812-0.137,2.645c0.227,1.057,0.412,1.922,0.543,3.001
				c-0.089,0.521-0.027,0.81-0.138,1.235c-0.055,0.212-0.542,1.222-0.35,1.181c0.604,1.882,0.158,3.083-0.268,4.381
				c-0.329,1.277-0.796,2.383-1.263,3.488c-0.371,1.085-0.59,1.937-1.744,2.184c-1.017,0.42-2.307,0.495-3.611,0.976
				c-0.577,0.124-1.923,0.412-2.547-0.158c-0.392-0.418-0.261-0.748-0.268-1.249c0.165-0.639,0.294-0.968,0.384-1.49
				c0.097-0.021,0.097-0.021,0.076-0.117C231.141,273.997,231.669,273.179,231.792,272.349z"/>
		</g>
		<g>
			<path fill="#FFFFFF" d="M270.943,243.442c-0.294,0.969-0.803,1.882-1.098,2.85c-0.11,0.427-0.467,1.106-0.886,1.497
				c-0.323,0.372-0.515,0.413-1.188,0.558c-0.479,0.103-0.864,0.185-1.27,0.171c-0.48,0.103-0.906-0.007-1.387,0.096
				c-1.984,0.125-4.167,1.196-5.026,3.289c-0.172,0.139-0.123,0.832-0.117,1.333c-0.707,1.861-1.112,4.663-1.214,6.997
				c-0.254,1.161-0.604,2.342-0.666,3.46c-0.014,0.405,0.144,0.674,0.11,0.982c-0.137,1.236-0.7,2.362-1.126,3.66
				c0.007,0.501,0.131,1.077-0.172,1.545c-0.047,0.715-0.466,1.105-0.631,1.745c-0.089,0.521,0,1.406-0.165,2.045
				c-0.288,1.471-0.501,2.822-0.631,4.56c-0.027,0.811,0.22,1.964-0.021,2.72c-0.22,0.851-1.078,1.538-1.373,2.507
				c-0.439,1.702-0.748,4.483-1.105,6.57c-0.144,2.143-1.29,4.298-1.476,6.249c0.027,0.598-0.158,1.14-0.13,1.737
				c-0.069,0.618-0.104,0.927-0.151,1.641c0.165,0.769-0.556,1.628-0.583,2.438c0.028,0.596,0.11,0.98,0.213,1.461
				c-0.055,0.215,0.007,0.503-0.145,0.735c-0.144,0.735,0.076,1.291,0.145,2.08c-0.048,0.715-0.288,1.471-0.261,2.068
				c0.145,0.672,0.076,1.29-0.206,1.854c0.028,0.598,0.076,1.29-0.027,2.218c0.082,0.384,0.233,1.558-0.144,2.143
				c-0.81,1.38-2.623,1.366-4.642,1.799c-1.654,0.255-4.366,2.144-5.349,0.846c-0.741-0.646-0.034-2.507,0.199-3.763
				c0.117-1.333,0.501-2.823,0.528-3.633c0.089-0.522-0.014-1.002,0.076-1.523c0.186-0.544,0.467-1.106,0.556-1.629
				c0.11-0.425-0.014-1.001,0.117-1.331c-0.048-0.694,0.254-1.161,0.323-1.779c0.186-0.542-0.151-1.174,0.13-1.737
				c0.089-0.521,0.22-0.852,0.501-1.414c-0.041-0.192,0.034-0.31-0.048-0.694c-0.042-0.191-0.104-0.48-0.124-0.576
				c0.81-2.787,0.845-5.912,1.736-8.315c-0.391-1.825,0.625-3.652,0.851-5.41c0.049-0.715-0.096-1.388,0.014-1.813
				c0.145-0.733,0.659-1.146,0.803-1.881c0.528-2.225,0.748-4.484,1.063-6.765c1.517-6.056,1.942-12.984,3.768-19.006
				c-0.021-0.097-0.295-0.44-0.316-0.535c-0.042-0.193-0.083-0.385,0.069-0.618c-0.042-0.192,0.068-0.619,0.22-0.852
				c0.356-0.681,0.693-1.456,0.721-2.267c-0.083-0.385-0.083-0.385-0.468-0.302c-0.309-0.034-0.789,0.069-1.174,0.151
				c-0.769,0.165-1.483,0.117-2.253,0.282c-0.769,0.164-1.571,0.638-2.341,0.803c-1.016,0.419-2.307,0.494-3.364,0.722
				c-0.192,0.041-0.288,0.062-0.309-0.034c-0.275-0.344-0.09-0.886,0.021-1.312c-0.049-0.693-0.296-1.847,0.041-2.624
				c0.13-0.329,0.336-0.775,0.467-1.104c0.172-0.138,0.241-0.756,0.315-0.872c0.248-0.254,0.632-0.337,0.92-0.398
				c0,0,0.151-0.232,0.247-0.254c0.343-0.275,1.153-0.247,1.538-0.329c0.961-0.206,1.923-0.412,2.691-0.577
				c0.77-0.165,1.442-0.31,2.308-0.495c1.771-0.179,3.46-0.741,5.287-1.133c4.092-1.08,8.102-2.543,11.816-3.037
				c0.673-0.145,1.407-0.001,2.081-0.146c0.48-0.103,1.071-0.631,1.634-0.35C271.341,241.547,271.108,242.804,270.943,243.442z"/>
		</g>
		<g>
			<path fill="#FFFFFF" d="M284.706,252.759c0.371,1.73-0.034,3.123-0.363,4.401c-0.858,2.094-0.467,3.921-0.631,5.967
				c-0.474,0.605-0.474,0.605-1.002,1.421c0.124,0.577,0.248,1.153,0.248,1.153c-0.309,1.374-0.762,2.075-0.639,2.651
				c-0.309,1.373-0.185,1.95,0.104,3.295c-0.549,0.722-0.981,1.519-0.858,2.096c-0.473,0.604-0.329,1.276-0.205,1.854
				c-0.646,0.741-0.646,0.741-0.522,1.318c-0.309,1.374-0.521,2.727-0.274,3.88c-0.961,1.613-1.146,3.563-1.448,5.438
				c-0.33,1.276-0.186,1.95-0.515,3.227c0.165,0.769-0.288,1.47-0.288,1.47c-0.549,0.722-0.425,1.298-0.281,1.972
				c-0.33,1.276-0.659,2.554-1.064,3.948c0.124,0.576,0.247,1.153,0.247,1.153c-0.309,1.373-0.762,2.073-0.638,2.65
				c-0.48,1.511-0.213,2.761-0.666,3.46c-0.212,1.354,0.015,2.41-0.535,3.132c0.268,1.25-0.185,1.95-0.597,2.843
				c-1.126,0.844-2.953,1.235-4.106,1.482c-1.346,0.289-3.172,0.681-5.025,0.476c-0.577,0.123-0.412-1.923,0.26-2.067
				c-0.145-0.673-0.268-1.25,0.31-1.374c-0.124-0.576,0.254-1.159,0.109-1.832c0.549-0.722,0.425-1.298,0.734-2.671
				c0,0,0.576-0.124,0.453-0.701c-0.165-0.769-0.165-0.769-0.289-1.346c0,0,0.453-0.7,0.33-1.277
				c0.625-0.838,0.501-1.415,0.955-2.114c0.206-1.854-0.062-3.104,0.343-4.499c-0.371-1.73,0.618-2.746,0.226-4.572
				c0,0,0.549-0.721,0.425-1.297c0.433-0.798,0.309-1.374,0.783-1.979c0.432-0.796,0.185-1.95,0.57-3.439
				c0.233-1.257,0.089-1.931,0.418-3.207c-0.268-1.25,0.378-1.991,0.687-3.364c0.206-1.854,1.043-4.045,1.373-5.321
				c0.404-1.395,0.857-2.096,0.59-3.346c0.33-1.277,0.082-2.43,0.37-3.899c-0.123-0.576,0.426-1.298,0.879-1.998
				c0.309-1.374,0.59-3.345,0.679-5.273c0,0,0.454-0.7,0.31-1.373c0,0-0.104-0.481-0.227-1.059c0,0,0.645-0.741,0.48-1.511
				c-0.124-0.576-0.124-0.576-0.248-1.153c-0.144-0.673,0.186-1.949,0.618-2.747c-0.248-1.153-0.515-2.402-0.233-4.373
				c-0.124-0.577,0.453-0.7,0.33-1.276c0.309-1.374-0.207-3.777,1.043-4.045c1.153-0.248,2.526,0.061,3.776-0.207
				c2.403-0.516,4.683-1.607,5.074,0.219c0.247,1.153-0.062,2.527,0.062,3.104c-0.405,1.395-0.158,2.548-0.466,3.92
				c-0.309,1.374-0.735,2.672-1.167,3.468C285.612,251.357,285.159,252.058,284.706,252.759z"/>
		</g>
		<g>
			<path fill="#FFFFFF" d="M310.621,255.447c0.295-0.969,0.493-1.916,0.556-3.035c0.521-2.726,0.72-5.081-0.324-8.074
				c-0.803-2.342-1.923-3.812-4.422-1.867c-0.515,0.411-1.043,1.229-1.668,2.066c-0.666,0.646-1.641,1.257-1.826,1.8
				c-0.11,0.425-0.007,0.906,0,1.406c-0.069,0.619-0.392,0.989-0.501,1.415c-0.24,0.757,0.075,1.291,0.007,1.91
				c-0.165,0.638-0.48,1.51-0.645,2.148c-0.165,0.639-0.639,1.242-0.783,1.978c-0.508,0.913-1.023,1.325-0.968,2.521
				c-1.888,2.917,0.152,8.212-2.107,10.808c-0.769,5.796-2.279,10.945-2.717,16.871c0.062,0.289,0.315,0.536,0.377,0.824
				c0.103,0.48-0.253,1.16-0.397,1.896c-0.186,0.542-0.351,1.181-0.536,1.723c-0.192,1.449,0.021,2.911,0.427,4.333
				c0.542,1.593,1.25,2.547,3.364,2.094c2.17-0.665,3.783-2.521,4.531-4.189c0.474-0.604,0.852-1.188,1.058-1.634
				c0.329-1.277,0.301-3.282,0.665-4.869c0.274-1.062,0.729-1.764,1.078-2.945c0.137-1.235,0.191-2.857,0.494-3.323
				c0.645-0.741,2.629-0.865,3.934-1.347c0.961-0.207,3.475-1.146,3.989-0.151c0.337,0.632-0.233,1.257-0.322,1.778
				c-0.041,1.217,0.171,2.679-0.123,3.646c0.103,0.48-0.591,0.528-0.763,0.666c-0.206,0.446,0.055,1.194,0.021,1.504
				c-0.089,0.521-0.295,0.968-0.426,1.298c-0.227,0.35-0.666,0.646-0.755,1.167c0.062,0.289,0.433,0.612,0.439,1.112
				c-0.13,0.33-0.281,0.562-0.508,0.914c-0.076,0.116-0.323,0.37-0.24,0.755c0.062,0.288,0.123,0.576,0.206,0.962
				c0.062,0.288-0.24,0.755-0.371,1.084c-0.315,0.872-0.769,1.573-1.277,2.486c-0.844,1.688-2.059,3.056-3.021,4.669
				c-0.796,0.977-1.297,2.39-1.908,2.822c-0.398,0.488-1.359,0.694-2.012,0.936c-0.803,0.474-2.025,1.338-3.426,1.84
				c-1.764,0.68-4.263,1.215-5.712,1.023c-1.277-0.329-4.271-2.1-5.082-3.536c-0.158-0.267-0.124-0.576-0.227-1.058
				c-0.474-0.803-0.947-1.606-1.401-2.313c-0.433-0.61-1.016-0.988-1.12-1.47c-0.281-0.845,0.014-1.812-0.652-2.574
				c-0.062-0.289-0.295-0.439-0.165-0.77c-0.041-0.191-0.007-0.5-0.048-0.693c-0.104-0.48-0.165-0.769-0.268-1.249
				c-0.062-0.288,0.007-0.907,0.137-1.236c-0.007-0.501,0.179-1.044,0.192-1.449c0.007-0.906,0.089-1.929,0.384-2.897
				c1.099-2.85,1.037-7.359,1.53-10.685c0.027-0.81,0.426-1.298,0.24-2.163c0.7-2.361,1.235-5.492,1.585-8.081
				c0.124-0.831,0.323-1.778,0.831-2.692c0.055-0.213,0.357-0.68,0.625-0.837c0.035-0.309,0.316-0.873,0.446-1.202
				c0.165-0.639,0.233-1.256,0.227-1.758c0.192-1.449,0.254-2.567,0.542-4.037c0.397-1.896,1.86-3.517,2.684-5.302
				c0.068-0.617-0.035-1.098,0.15-1.642c0.186-0.542,0.756-1.167,1.112-1.846c0.089-0.522-0.055-1.194,0.151-1.642
				c0.11-0.426,0.508-0.915,0.652-1.648c0.487-1.009,0.817-2.286,1.379-3.413c0.281-0.562,0.659-1.146,0.865-1.592
				c0.549-0.722,0.775-1.071,1.366-1.601c0.515-0.412,1.297-0.982,1.908-1.415c1.126-0.845,2.541-1.751,3.962-2.157
				c1.305-0.479,3.035-0.851,4.635-0.893c1.099-0.034,3.805,1.8,4.704,2.712c0.92,1.009,1.531,1.984,2.204,3.248
				c0.591,0.878,1.436,2.004,1.49,3.198c0.165,0.77-0.013,1.813-0.137,2.645c0.227,1.057,0.412,1.922,0.543,3.001
				c-0.089,0.521-0.027,0.81-0.137,1.236c-0.056,0.212-0.543,1.221-0.351,1.18c0.604,1.882,0.158,3.084-0.268,4.381
				c-0.329,1.277-0.796,2.384-1.263,3.488c-0.37,1.085-0.591,1.938-1.744,2.185c-1.017,0.419-2.307,0.494-3.611,0.976
				c-0.577,0.123-1.923,0.412-2.547-0.158c-0.392-0.418-0.261-0.748-0.268-1.25c0.165-0.639,0.295-0.968,0.385-1.489
				c0.096-0.021,0.096-0.021,0.075-0.117C309.968,257.096,310.497,256.277,310.621,255.447z"/>
		</g>
		<g>
			<path fill="#FFFFFF" d="M350.752,227.84c-0.123,0.83,0.158,1.675,0.227,2.464c-0.178,1.045-0.548,2.129-0.769,2.981
				c0.007,0.501,0.206,0.961,0.213,1.462c-0.007,0.906-0.282,1.971-0.364,2.994c-0.157,1.139-0.219,2.26-0.261,3.475
				c-0.103,0.927,0.145,2.08,0.062,3.103c0.103,0.48-0.027,0.812-0.213,1.354c0.007,0.5-0.274,1.064-0.48,1.511
				c-0.165,0.639-0.693,1.455-0.549,2.129c-0.007,0.905,0.639,1.572,0.749,2.554c-0.027,0.811-0.426,1.297-0.55,2.129
				c-0.26,0.659-0.15,1.641-0.198,2.355c-0.014,3.22-0.356,6.31-0.253,9.605c-0.007,0.906-0.13,1.736-0.178,2.452
				c-0.124,0.83-0.481,1.509-0.55,2.128c-0.048,0.714,0.35,1.635,0.322,2.444c0.008,0.502-0.294,0.968-0.288,1.471
				c-0.089,0.521,0.206,0.96,0.309,1.441c-0.027,0.81-0.109,1.833-0.288,2.878c0.056,1.194,0.076,2.697-0.061,3.933
				c0.069,0.79,0.33,1.538,0.377,2.231c-0.13,0.33-0.336,0.776-0.274,1.065c-0.089,0.521,0.206,0.961,0.075,1.29
				c-0.089,0.521-0.486,1.01-0.479,1.511c-0.069,0.618,0.206,0.962,0.309,1.442c-0.082,1.022-0.302,1.874-0.446,2.609
				c-0.089,0.521-0.124,0.83-0.405,1.395c-0.014,0.404-0.247,0.253-0.536,0.314c-0.865,0.186-1.634,0.351-2.362,0.708
				c-0.845,0.281-1.635,0.351-2.308,0.495c-0.48,0.103-0.899,0.494-1.441,0.309c-0.57-0.782-0.454-2.114-0.371-3.138
				c0.047-0.714,0.521-1.318,0.535-1.724c0.069-0.618-0.288-1.346-0.24-2.06c-0.007-0.501,0.232-1.257,0.227-1.758
				c-0.104-0.481-0.262-0.749-0.227-1.058c0.006-0.906,0.171-1.545,0.178-2.452c0.089-0.521,0.343-1.682-0.186-2.271
				c-0.179-0.364-1.141-0.158-1.62-0.055c-0.577,0.123-1.25,0.268-1.827,0.392c-1.153,0.247-2.382,0.61-3.652,0.783
				c-0.481,0.103-1.023-0.083-1.504,0.02c-0.385,0.083-0.419,0.393-0.804,0.475c-0.535,0.315-1.441,0.31-2.06,0.24
				c-0.288,0.062-0.728,0.357-1.058,0.228c-0.288,0.062-0.693,0.047-0.769,0.164c-0.343,0.275-0.418,0.392-0.357,0.681
				c-0.13,0.329-0.377,0.583-0.508,0.913c-0.103,0.927-0.323,1.778-0.467,2.513c-0.357,0.68-0.92,1.806-1.16,2.562
				c-0.495,1.914-0.336,3.59-0.57,4.847c-0.048,0.714-0.522,1.318-0.741,2.171c-0.316,0.871-0.357,2.086-1.373,2.506
				c-0.748,0.26-1.483,0.116-2.19,0.569c-0.632,0.337-1.696,0.062-2.465,0.228c-0.33-0.13-0.522-0.089-0.811-0.027
				c-0.405-0.014-0.501,0.007-0.886,0.089c-0.48,0.104-0.392-0.418-0.281-0.845c-0.007-0.501-0.069-0.789,0.062-1.118
				c0.144-0.735,0.363-1.588,0.315-2.28c0.261-0.659,1.098-1.441,1.476-2.026c0.172-1.545,0.48-2.919,0.844-4.505
				c0.378-0.583,0.948-1.208,1.091-1.942c0.316-0.872,0.453-2.107,0.749-3.076c0.13-0.329,0.048-0.714,0.082-1.023
				c0.281-0.563,0.797-0.976,1.078-1.538c0.144-0.735,0.171-1.545,0.315-2.279c0.343-1.683,0.816-3.694,1.098-5.666
				c0.254-1.159,1.4-1.909,1.826-3.206c0.542-1.222,0.508-3.729,1.064-5.356c0.274-1.064,0.672-1.552,0.659-2.554
				c0.103-0.927,0.714-1.359,1.029-2.231c0.275-1.064-0.034-2.507,0.975-3.427c0.144-2.143,0.672-4.367,1.572-6.27
				c0.378-0.584,0.639-1.242,0.823-1.786c0.296-0.968,0.57-2.032,0.749-3.075c0.13-0.33,0.123-0.83,0.212-1.354
				c0.089-0.521,0.316-0.871,0.501-1.413c0.673-1.553,1.167-3.469,1.778-5.309c0.885-2.905,1.455-6.345,3.123-8.412
				c0.405-1.394,0.775-2.479,1.552-3.551c0.996-0.515,2.314,0.008,3.467-0.24c1.002-0.014,2.341-0.803,3.591-1.071
				c0.481-0.103,1.099-0.035,1.483-0.117c0.385-0.083,0.44-0.295,0.824-0.377c0.055-0.214,0.227-0.35,0.516-0.412
				c0.384-0.082,0.48-0.103,0.886-0.091c0.576-0.123,1.098-0.033,1.641,0.152C351.26,225.519,350.793,226.625,350.752,227.84z
				 M338.265,246.503c-0.26,2.068-1.497,3.338-1.565,5.364c-0.562,2.533-1.572,4.861-1.667,7.696
				c-0.954,3.522-2.197,7.107-2.958,10.59c-0.274,1.062-0.549,2.128-0.844,3.096c-0.185,0.543-1.119,2.754-0.343,3.09
				c1.415,0.502,3.234-0.392,4.758-0.316c0.48-0.103,0.831,0.124,1.312,0.021c0.385-0.082,1.016-0.418,1.477-0.618
				c0.247-0.253,0.631-0.335,0.92-0.397c0.247-0.255,0.419-0.392,0.529-0.817c0.082-1.023,0.165-2.047,0.384-2.897
				c0.103-0.928,0.185-1.951,0.171-2.952c0.089-0.522,0.083-1.024-0.021-1.506c0.13-0.329,0.089-0.521,0.027-0.81
				c-0.041-0.191-0.145-0.673,0.027-0.81c0.295-0.968,0.356-2.088,0.397-3.303c0.09-0.521,0.158-1.141,0.035-1.717
				c0.013-0.405-0.248-1.153-0.021-1.504c-0.041-0.192,0.014-0.405,0.186-0.542c0.15-0.233,0.089-0.521,0.103-0.928
				c0.068-0.618-0.076-1.29-0.028-2.005c0.014-0.405-0.131-1.078,0.151-1.642c-0.062-0.287-0.007-0.501,0.124-0.83
				c0.11-0.426,0.11-0.426,0.007-0.906c-0.398-0.92-0.124-1.984-0.139-2.986c0.179-1.044,0.22-2.26-0.659-3.076
				C340.078,245.11,338.656,245.515,338.265,246.503z"/>
		</g>
	</g>
	<g>
		<path fill="#FFFFFF" d="M187.23,186.773l3.425,6.627l3.097,8.276l3.939,10.527l7.71-8.178l2.255-2.392l3.11,5.364l0.252,0.434
			l0.311,0.394l4.259,5.391l3.507,5.945l0.369,0.626l0.49,0.537l1.418,1.553l-4.662,0.867l-0.553,0.103l-0.53,0.19l-7.02,2.518
			l-7.39,0.628l-0.305,0.026l-0.302,0.052l-8.159,1.419l-0.145,0.025l-0.144,0.031l-8.093,1.762l-0.195,0.042l-0.193,0.054
			l-7.589,2.112l-7.773,1.163l-0.483,0.072l-0.469,0.139l-2.611,0.773l1.831-4.197l0.104-0.238l0.086-0.245l2.748-7.838l0.904-1.625
			l6.735,2.592l1.865-7.767l1.74-7.246l3.038-6.837l0.375-0.844l0.143-0.912l1.149-7.317L187.23,186.773 M186.165,166.79
			l-2.43,7.469l-2.186,7.764l-2.877,7.55l-1.263,8.04l-3.298,7.422l-1.89,7.868l-4.956-1.907l-4.15,7.462l-2.946,8.402L156.619,235
			l-3.858,8.43l8.62-1.276l7.974-2.361l8.199-1.227l8.004-2.228l8.093-1.762l8.159-1.419l8.3-0.706l7.88-2.826l8.141-1.515
			l8.622-0.853l-4.642-6.189l-4.987-5.465l-3.748-6.354l-4.553-5.764l-3.702-6.385l-4.669-6.516l-8.144,8.638l-3.243-8.666
			l-4.04-7.818l-3.458-8.067L186.165,166.79L186.165,166.79z"/>
	</g>
</g>
<g id="Spots" display="none">
</g>
</svg>
