<svg xmlns="http://www.w3.org/2000/svg" width="384" height="550"><g fill="#fff"><path d="M70.934 342.741l-5.178 1.388-1.725-18.439-4.633 1.241-1.817 19.388-5.177 1.388 6.63-70.894 5.269-1.412 6.631 67.34zm-8.902-21.876l1.453-.39-1.271-15.271-1.09.293-1.272 15.951 1.454-.39.726-.193zM95.82 329.49l6.449-1.729v-62.347l5.269-1.411v64.416l-5.269 5.831-6.449 1.728-5.269-3.008v-64.416l5.269-1.412v62.348zM139.875 270.009v-8.839l-6.268 1.68v57.361l6.268-1.679v-12.978l5.269-1.412v12.979l-3.997 6.995-8.175 2.19-4.632-4.684v-56.892l4.632-7.542 8.175-2.19 3.997 5.23v8.369l-5.269 1.412zM174.845 274.463l12.171 37.363-5.541 1.484-9.9-30.825-1.09 3.019v30.751l-5.269 1.412v-69.118l5.269-1.412v26.613l10.99-29.558 5.541-1.485-12.171 31.756zM204.184 307.131v-69.117l5.268-1.412v63.477l8.539-2.288v5.642l-13.807 3.698zM253.687 293.773l-5.178 1.387-1.726-18.439-4.633 1.242-1.816 19.388-5.178 1.388 6.63-70.895 5.269-1.411 6.632 67.34zm-8.903-21.877l1.454-.39-1.271-15.27-1.091.292-1.271 15.951 1.453-.39.726-.193zM293.107 214.375v68.835l-5.359 1.437-9.447-39.316-.181.049v41.847l-5.269 1.412v-68.835l5.269-1.412.181-.049 9.447 39.316v-41.848l5.359-1.436zM326.262 205.396l3.997 5.23v56.891999999999996l-3.997 6.995-12.807 3.432v-69.118l12.807-3.431zm-1.272 15.011v-8.838l-6.268 1.68v57.361l6.268-1.679v-48.524z"/></g></svg>