<?xml version="1.0" encoding="utf-8"?>
<!-- Generator: Adobe Illustrator 17.0.0, SVG Export Plug-In . SVG Version: 6.00 Build 0)  -->
<!DOCTYPE svg PUBLIC "-//W3C//DTD SVG 1.1//EN" "http://www.w3.org/Graphics/SVG/1.1/DTD/svg11.dtd">
<svg version="1.1" xmlns="http://www.w3.org/2000/svg" xmlns:xlink="http://www.w3.org/1999/xlink" x="0px" y="0px" width="384px"
	 height="550px" viewBox="0 0 384 550" enable-background="new 0 0 384 550" xml:space="preserve">
<g id="Borders" display="none">
	<g display="inline">
		<rect fill="#5D5D5D" width="384" height="550"/>
	</g>
</g>
<g id="Labels">
</g>
<g id="Names">
	<g>
		<g>
			<path fill="#FFFFFF" d="M263.763,232.895c0.379,0.189,0.774,0.286,1.174,0.286c0.001,0,0.001,0,0.001,0
				c1.577,0,2.806-1.479,3.16-2.869c0.365-1.431-0.129-2.713-1.305-3.354c-0.379-0.189-0.773-0.285-1.174-0.285
				c-1.578,0-2.807,1.478-3.161,2.869C262.094,230.972,262.588,232.255,263.763,232.895z"/>
			<path fill="#FFFFFF" d="M332.183,263.788c-0.801-0.642-2.025-0.485-2.667,0.32l-2.194,2.685c-0.333,0.362-0.665,0.732-1,1.104
				c-1.01,1.124-2.055,2.286-3.158,3.298c-2.729,2.592-5.271,4.539-7.739,5.937c-1.576,0.742-3.652,1.594-5.732,1.594
				c-0.256,0-0.512-0.013-0.819-0.042c-0.925,0-1.927-0.404-2.7-1.062c-0.87-0.979-1.11-2.455-1.228-3.727
				c0-1.898,0.31-3.872,0.921-5.867c0.076-0.102,0.119-0.221,0.146-0.313c0.054-0.012,0.104-0.024,0.153-0.036
				c0.096-0.024,0.186-0.047,0.247-0.047l1.604-0.386c0.979-0.245,1.992-0.498,2.977-0.868c3.425-1.096,6.357-2.399,8.987-4.001
				c3.598-2.491,7.618-6.421,6.339-11.022c-0.768-2.305-3.009-3.681-5.995-3.681c-0.562,0-1.134,0.05-1.706,0.149
				c-2.334,0.444-4.734,1.812-7.132,4.059c-3.551,3.271-6.422,7.507-8.308,12.255l-4.411,5.39c-2.041,2.401-4.151,4.885-6.479,6.968
				l-0.21,0.212c-0.803,0.813-2.474,2.507-3.691,2.507c-0.272,0-0.493-0.087-0.681-0.26c-0.468-0.468-0.468-1.444-0.468-2.229
				c0-1.326,0.207-2.858,0.595-4.413c0.569-1.992,1.467-4.969,2.684-7.808l4.792-11.059c4.421-9.522,8.473-19.371,12.391-28.896
				l1.009-2.453c0.22-0.439,0.258-0.904,0.11-1.347c-0.164-0.49-0.545-0.906-1.099-1.182c-0.238-0.102-0.477-0.153-0.709-0.153
				c-1.456,0-2.167,1.919-2.638,3.188c-0.095,0.257-0.18,0.487-0.263,0.675l-2.217,5.294c-1.782,4.408-4.484,10.999-7.374,17.329
				c-0.423,0.975-0.854,1.959-1.294,2.951c-0.242-0.37-0.643-0.666-1.227-0.783c-0.627-0.125-1.275-0.255-2.047-0.255h-0.001
				c-3.805-0.117-7.719,0.987-11.691,3.259c-2.827,1.53-5.559,3.673-8.117,6.365c-2.087,2.178-3.85,4.378-5.24,6.539
				c-0.564,0.419-1.051,1.039-1.445,1.542c-0.125,0.16-0.239,0.307-0.353,0.438c-1.438,1.799-3.003,3.61-4.649,5.383
				c-1.684,1.805-3.426,3.671-5.37,5.373c-0.983,0.842-1.923,1.508-2.851,2.023l-0.171,0.087c-0.385,0.196-0.966,0.494-1.365,0.494
				c-0.021,0-0.041-0.001-0.077-0.005c-0.042-0.1-0.123-0.38-0.126-1.053c-0.103-0.818-0.025-1.725,0.234-2.769
				c0.535-2.14,1.31-4.384,2.438-7.068c2.052-5.129,4.538-10.341,7.608-15.95c0.077-0.155,0.168-0.31,0.259-0.464
				c0.196-0.337,0.399-0.685,0.504-1.062c0.202-0.438,0.204-0.927,0.005-1.38c-0.236-0.538-0.719-0.945-1.362-1.128
				c-0.114-0.023-0.226-0.033-0.334-0.033c-0.419,0-1.044,0.166-1.622,0.938l-2.7,3.192l-8.37,9.601l-1.229,1.475
				c-0.172,0.09-0.327,0.205-0.485,0.365l-1.402,1.643c-2.455,2.881-4.993,5.859-7.69,8.557c-0.996,1.106-2.26,2.289-3.74,3.501
				c-0.887,0.665-1.939,1.394-3.252,1.633c-0.185,0.041-0.379,0.062-0.577,0.062c-0.83,0-1.545-0.355-1.819-0.904
				c-0.655-1.312-0.447-3.006-0.202-4.481c0.363-1.935,0.983-3.793,1.583-5.591c0.282-0.849,0.645-1.554,1.027-2.301l0.274-0.544
				c0.61-0.976,1.241-1.985,1.738-2.979c1.588-2.949,3.271-6.156,4.813-9.627c0.066-0.15,0.156-0.33,0.257-0.531
				c0.535-1.072,1.269-2.542,0.809-3.622c-0.196-0.461-0.575-0.782-1.118-0.952c-0.774-0.258-1.543-0.386-2.313-0.514
				c-3.996-0.472-8.42,0.373-12.574,2.382c-2.928,1.406-5.784,3.422-8.485,5.986c-2.74,2.522-4.876,5.048-6.525,7.717
				c-0.652,0.467-1.238,1.197-1.714,1.79c-0.149,0.188-0.286,0.357-0.398,0.486l-3.809,4.178c-0.128,0.136-0.297,0.322-0.501,0.547
				c-1.804,1.987-7.295,8.035-10.387,8.035c-0.787,0-1.324-0.412-1.692-1.305c-0.695-1.62-0.571-3.491-0.335-5.262
				c0.241-1.567,0.608-3.157,1.097-4.743c0.459-1.724,1.04-3.507,1.829-5.61l1.113-2.97l0.465-1.41
				c0.236-0.473,0.459-0.792,0.811-1.15c4.112-5.322,8.366-10.826,12.425-16.36c3.128-4.171,6.429-8.702,9.375-13.57l0.262-0.436
				c1.062-1.762,2.159-3.584,2.849-5.54c0.989-2.475,1.363-6.973-1.831-8.5c-0.626-0.326-1.297-0.492-1.993-0.492
				c-2.806,0-5.306,2.668-6.238,3.801c-1.983,2.231-3.491,4.979-4.869,7.61l-0.05,0.1c-1.437,2.873-2.921,5.845-4.263,8.771
				c-1.976,4.323-3.728,8.829-5.414,13.168c-1.084,2.491-2.149,5.154-3.434,8.585c-0.109,0.219-0.195,0.437-0.278,0.645
				c-0.103,0.26-0.19,0.483-0.305,0.654l-0.069,0.156c-0.062,0.246-0.299,0.55-0.509,0.817c-0.106,0.135-0.206,0.263-0.247,0.331
				c-0.265,0.309-0.513,0.617-0.757,0.92c-0.438,0.542-0.85,1.054-1.35,1.56l-2.939,3.798c-0.112,0.134-0.261,0.293-0.427,0.471
				c-0.352,0.376-0.786,0.841-1.124,1.332c-0.116,0.093-0.215,0.189-0.296,0.292l-2.194,2.685c-0.333,0.362-0.665,0.732-0.999,1.104
				c-1.011,1.125-2.056,2.287-3.159,3.299c-2.729,2.592-5.271,4.539-7.739,5.937c-1.576,0.742-3.652,1.594-5.732,1.594
				c-0.256,0-0.512-0.013-0.819-0.042c-0.925,0-1.927-0.404-2.7-1.062c-0.87-0.979-1.11-2.455-1.228-3.727
				c0-1.898,0.31-3.872,0.921-5.867c0.076-0.102,0.12-0.221,0.146-0.313c0.054-0.012,0.104-0.024,0.153-0.036
				c0.096-0.024,0.186-0.047,0.247-0.047l1.604-0.386c0.979-0.245,1.992-0.498,2.977-0.868c3.425-1.096,6.357-2.399,8.987-4.001
				c3.598-2.491,7.618-6.421,6.339-11.022c-0.768-2.305-3.009-3.681-5.995-3.681c-0.562,0-1.134,0.05-1.706,0.149
				c-2.334,0.444-4.734,1.812-7.132,4.059c-3.551,3.271-6.422,7.507-8.308,12.255l-4.41,5.389c-2.041,2.402-4.152,4.885-6.479,6.969
				l-0.21,0.212c-0.803,0.813-2.474,2.507-3.691,2.507c-0.272,0-0.493-0.087-0.681-0.26c-0.468-0.468-0.468-1.444-0.468-2.229
				c0-1.326,0.207-2.858,0.595-4.413c0.569-1.992,1.467-4.969,2.684-7.808l4.792-11.059c4.421-9.522,8.473-19.37,12.391-28.894
				l1.009-2.455c0.22-0.439,0.258-0.904,0.11-1.347c-0.164-0.49-0.545-0.906-1.099-1.182c-0.238-0.102-0.477-0.153-0.709-0.153
				c-1.456,0-2.167,1.919-2.638,3.188c-0.095,0.257-0.18,0.487-0.263,0.675l-2.217,5.294c-1.781,4.407-4.484,10.998-7.374,17.329
				c-0.423,0.975-0.854,1.959-1.294,2.951c-0.242-0.37-0.643-0.666-1.227-0.783c-0.627-0.125-1.275-0.255-2.047-0.255h-0.001
				c-3.82-0.117-7.718,0.987-11.691,3.259c-2.827,1.53-5.559,3.673-8.117,6.365c-2.024,2.112-3.746,4.247-5.117,6.347
				c-0.132,0.104-0.239,0.214-0.314,0.321c-3.443,4.156-7.167,8.523-11.488,12.228c-1.638,1.311-3.882,3.105-6.191,3.592
				c-1.213,0.27-2.326,0.128-3.022-0.395c-0.414-0.331-0.669-0.859-0.806-1.675c-0.462-2.312,0.353-5.029,1.095-7.507
				c1.14-3.796,2.684-7.615,4.043-10.9c1.222-3.007,2.488-5.88,3.828-8.922l1.214-2.76c2.796-6.808,5.762-13.73,8.63-20.425
				l4.465-10.659c0.522-0.354,0.84-1.036,0.837-1.876c-0.142-1.278-1.688-2.036-2.818-2.59l-0.308-0.237
				c-2.956-1.284-6.47-1.479-9.551-1.479c-0.004,0-0.008,0-0.012,0c-3.366,0-6.946,0.807-10.953,1.952
				c-12.165,3.718-23.529,12.653-31.995,25.08c-4.684,6.75-7.813,13.617-9.301,20.368c-1.341,6.107-1.253,11.464,0.258,15.889
				c0.968,3.045,2.831,5.591,5.241,7.158c1.875,1.25,4.119,1.885,6.671,1.885c0.828,0,1.683-0.068,2.543-0.206
				c7.39-1.209,13.729-6.692,17.854-10.71c2.615-2.528,5.251-5.505,8.004-9.043c-1.02,2.708-1.98,5.456-2.685,8.184
				c-0.778,2.852-1.375,5.857-0.49,8.511c0.762,2.613,3.071,4.236,6.026,4.236c0.343,0,0.691-0.022,1.04-0.068
				c2.374-0.323,4.755-1.448,7.493-3.542c2.256-1.735,4.533-3.831,6.932-6.381c-0.302,3.869,1.038,6.691,3.845,8.026
				c2.616,1.364,6.04,0.986,10.047-1.103c2.921-1.46,5.549-3.609,8.28-6.772c0.101-0.12,0.201-0.241,0.302-0.362
				c-0.502,2.484-0.709,5.489,1.014,7.618c0.877,1.079,2.072,1.649,3.456,1.649c1.032,0,2.141-0.316,3.199-0.912
				c2.34-1.287,4.295-3.373,6.187-5.391l0.464-0.495c0.926-1.035,1.997-2.269,3.14-3.617c-0.129,2.179,0.144,4.014,0.824,5.58
				c1.108,2.462,3.342,4.05,6.303,4.474c0.438,0.05,0.888,0.075,1.334,0.075c5.42,0,10.333-3.618,13.564-6.346
				c1.783-1.56,3.514-3.251,5.456-5.332l2.985-3.361l0.168-0.231c0.116-0.159,0.238-0.328,0.357-0.502
				c0.222-0.136,0.406-0.291,0.573-0.488c0.211-0.281,0.424-0.565,0.641-0.851c-0.95,3.042-1.762,6.159-1.664,9.302
				c0.133,3.562,1.755,7.368,5.884,7.367c2.322,0.137,4.208-1.078,6.107-2.436c2.191-1.644,4.363-3.696,6.826-6.45
				c-0.066,0.469-0.108,0.925-0.126,1.377c0,3.166,1.202,5.783,3.294,7.177c1.158,0.79,2.567,1.19,4.186,1.19
				c1.764,0,3.773-0.496,5.673-1.405c2.507-1.3,4.989-3.41,7.556-6.427c-0.229,2.853,0.175,6.073,3.312,7.418
				c2.686,1.288,5.855,0.492,9.133-2.271c2.874-2.234,5.285-5.006,7.616-7.685c0.396-0.456,0.79-0.909,1.196-1.371
				c1.096-1.34,2.332-2.7,3.43-3.906c0.234-0.129,0.442-0.303,0.619-0.515l3.186-3.751c-1.203,2.681-2.244,5.183-3.178,7.813
				c-0.903,2.582-1.754,5.335-1.378,8.086c0.084,0.841,0.459,2.888,2.104,3.711c0.483,0.261,1.034,0.393,1.635,0.393
				c1.475,0,3-0.79,4.021-1.386c2.146-1.263,4.036-3.03,5.758-4.751c0.932-0.932,1.87-1.929,2.947-3.134
				c-0.3,3.865,1.039,6.685,3.847,8.02c2.616,1.364,6.041,0.986,10.047-1.103c2.921-1.46,5.549-3.609,8.279-6.771
				c0.101-0.12,0.202-0.242,0.303-0.363c-0.502,2.484-0.709,5.489,1.014,7.618c0.877,1.079,2.072,1.649,3.456,1.649
				c1.032,0,2.141-0.316,3.199-0.912c2.34-1.287,4.295-3.373,6.186-5.391l0.465-0.495c0.927-1.035,1.997-2.27,3.14-3.617
				c-0.129,2.179,0.144,4.014,0.824,5.58c1.108,2.462,3.342,4.05,6.303,4.474c0.438,0.05,0.887,0.075,1.334,0.075
				c0.001,0,0,0,0.001,0c5.418,0,10.332-3.618,13.563-6.346c1.783-1.56,3.514-3.251,5.456-5.332l2.985-3.362l0.188-0.257
				C332.484,266.43,333.543,264.996,332.183,263.788z M307.814,263.311c1.44-2.917,3.159-5.487,5.113-7.646
				c2.44-2.604,4.63-3.961,6.712-4.151c0.257-0.034,0.52-0.053,0.779-0.053c0.923,0,1.64,0.233,2.019,0.657
				c0.283,0.316,0.391,0.743,0.333,1.271c-0.248,1.362-1.198,2.548-1.964,3.314C317.356,260.392,311.948,262.238,307.814,263.311z
				 M271.341,278.337c-0.834,0.256-1.812,0.518-2.751,0.518c-0.637,0-1.185-0.119-1.74-0.392c-1.046-0.349-1.468-1.331-1.647-2.129
				c-0.822-2.741,0.564-5.989,1.204-7.27c1.46-3.129,3.736-6.252,7.157-9.82c2.359-2.36,4.878-4.189,7.51-5.448
				c2.654-1.438,5.557-2.23,8.174-2.23c0.466,0,0.927,0.024,1.427,0.077c0.072,0,0.176,0.03,0.267,0.057
				c0.117,0.035,0.224,0.062,0.25,0.057c0.255,0.051,0.492,0.057,0.711,0.025c-2,4.348-4.224,8.793-6.825,13.129
				C282.103,269.976,277.853,276.082,271.341,278.337z M204.215,276.607c-0.475-1.991-0.069-4.535,1.202-7.556
				c1.45-3.348,3.812-6.604,7.028-9.685c2.812-2.813,5.428-4.776,8.226-6.176c2.99-1.438,5.925-2.168,8.723-2.168
				c0.393,0,0.783,0.015,1.17,0.044c-1.109,1.849-2.207,3.813-3.423,6.124c-0.729,1.457-1.483,2.964-2.096,4.56l-1.115,2.354
				c-0.347,0.812-0.705,1.65-1.312,2.383c-1.782,2.733-3.753,5.583-6.084,7.914c-1.771,1.771-3.947,3.68-6.665,4.421
				c-1.691,0.462-3.036,0.486-3.97,0.148C204.781,278.475,204.365,277.282,204.215,276.607z M195.249,243.928l2.302-5.754
				c1.648-3.986,3.252-7.474,4.913-10.687c1.326-2.946,2.525-5.189,3.787-7.084c1.336-2.271,2.817-4.562,4.855-5.427
				c0.164-0.041,0.408-0.095,0.632-0.095c0.33,0,0.415,0.113,0.46,0.172c0.97,1.188,0.018,3.643-0.433,4.631
				c-1.845,3.798-4.31,7.365-6.693,10.814l-0.89,1.29C201.335,235.816,198.288,239.899,195.249,243.928z M157.537,263.311
				c1.44-2.917,3.159-5.487,5.113-7.646c2.441-2.604,4.63-3.961,6.712-4.151c0.257-0.034,0.52-0.053,0.779-0.053
				c0.923,0,1.64,0.233,2.019,0.657c0.283,0.316,0.391,0.743,0.333,1.271c-0.248,1.362-1.198,2.548-1.964,3.314
				C167.079,260.392,161.671,262.238,157.537,263.311z M121.064,278.337c-0.834,0.256-1.812,0.518-2.751,0.518
				c-0.637,0-1.185-0.119-1.74-0.392c-1.046-0.349-1.468-1.331-1.647-2.129c-0.822-2.741,0.564-5.989,1.204-7.27
				c1.46-3.129,3.736-6.252,7.157-9.82c2.359-2.36,4.878-4.189,7.51-5.448c2.654-1.438,5.558-2.23,8.174-2.23
				c0.466,0,0.927,0.024,1.427,0.077c0.072,0,0.176,0.03,0.267,0.057c0.117,0.035,0.223,0.062,0.25,0.057
				c0.255,0.051,0.492,0.057,0.711,0.025c-2,4.348-4.224,8.793-6.825,13.129C131.826,269.976,127.576,276.082,121.064,278.337z
				 M105.013,233.604l-4.186,9.725c-1.274,3.127-3.221,6.045-5.104,8.866l-0.265,0.398c-3.532,5.481-7.609,10.67-12.109,15.413
				c-4.021,4.021-8.496,8.027-13.966,10.094c-1.985,0.743-4,1.068-5.941,0.952c-6.662-0.434-8.106-8.058-8.389-10.365
				c-0.438-5.262,0.612-11.179,3.04-17.112c2.928-7.258,7.486-14.307,13.187-20.386c4.883-5.27,10.336-9.37,16.213-12.191
				c4.23-2.115,8.77-3.544,13.142-4.135c1.441-0.24,2.903-0.362,4.345-0.362c2.06,0,3.796,0.157,5.386,0.49
				c0.227,0.024,1.548,0.381,2.211,0.604L105.013,233.604z"/>
		</g>
		<g>
			<path fill="#FFFFFF" d="M224.096,325.219c0,0,0.034-0.053,0.1-0.158c0.066-0.104,0.17-0.259,0.273-0.477
				c0.197-0.41,0.531-1.164,0.163-1.989c-0.381-0.806-1.456-1.378-2.744-1.562c-0.645-0.102-1.359-0.109-2.09-0.009
				c-0.724,0.095-1.505,0.328-2.077,0.783c-0.602,0.541-1.14,1.2-1.423,1.99c-0.264,0.789-0.267,1.672,0.058,2.549
				c0.631,1.764,2.184,3.418,4.033,4.814c0.937,0.693,1.963,1.345,3.064,1.886c0.549,0.27,1.116,0.52,1.687,0.712
				c0.285,0.093,0.568,0.174,0.844,0.235c0.122,0.018,0.29,0.057,0.374,0.06l0.505,0.051c1.162,0.077,2.448-0.047,3.623-0.459
				c1.188-0.405,2.31-1.083,3.3-1.972c1.982-1.776,3.429-4.395,3.996-7.235c0.585-2.816,0.267-5.963-1.397-8.208
				c-0.407-0.562-0.893-1.062-1.447-1.492c-0.272-0.22-0.572-0.411-0.875-0.599l-0.474-0.258L233,313.58l-0.593-0.304l-0.523-0.217
				c-0.341-0.148-0.691-0.293-1.078-0.409c-0.374-0.133-0.75-0.252-1.135-0.334c-0.38-0.107-0.765-0.186-1.155-0.238
				c-1.551-0.242-3.141-0.247-4.731,0.058c-1.59,0.3-3.175,0.864-4.725,1.618c-3.107,1.52-6.04,3.773-8.926,6.222
				c-2.903,2.468-5.714,5.156-9.004,7.724c-6.501,5.031-14.06,8.818-21.981,11.308c-7.945,2.422-16.332,3.59-24.591,2.945
				c-4.122-0.327-8.209-1.108-12.072-2.493l-0.724-0.257l-0.181-0.064l-0.09-0.032c0.007,0.003-0.37-0.151-0.25-0.104l-0.328-0.155
				l-0.656-0.311l-0.785-0.443c-1.03-0.595-1.862-1.237-2.703-1.95c-1.628-1.439-2.985-3.11-4.061-4.923
				c-1.074-1.813-1.868-3.773-2.333-5.799c-0.097-0.511-0.202-1.019-0.285-1.529c-0.055-0.516-0.126-1.028-0.161-1.542
				c-0.014-0.517-0.042-1.028-0.037-1.546l0.024-0.705l0.093-0.912c0.313-2.242,1.454-4.344,2.941-5.838
				c1.487-1.517,3.225-2.541,4.962-3.303c3.505-1.49,7.062-2.061,10.556-2.037c3.41,0.094,6.858,0.652,9.814,2.423
				c1.46,0.882,2.739,2.108,3.591,3.544c0.86,1.42,1.34,2.995,1.411,4.58c0.151,3.061-0.786,5.898-2.393,8.056
				c-1.592,2.173-4.07,3.523-6.407,3.606c-1.17,0.07-2.245-0.112-3.249-0.453c-0.995-0.334-1.897-0.82-2.6-1.485
				c-0.706-0.657-1.201-1.454-1.475-2.254c-0.266-0.807-0.314-1.606-0.241-2.322c0.153-1.437,0.799-2.571,1.582-3.179
				c0.797-0.63,1.662-0.572,2.103-0.398c0.468,0.164,0.652,0.355,0.661,0.335c-0.008,0.02-0.212-0.153-0.681-0.268
				c-0.449-0.127-1.245-0.095-1.905,0.54c-0.655,0.613-1.144,1.711-1.155,3.005c-0.026,1.283,0.496,2.787,1.768,3.776
				c0.618,0.501,1.418,0.853,2.281,1.069c0.855,0.222,1.83,0.309,2.774,0.17c1.903-0.241,3.764-1.391,4.962-3.263
				c1.205-1.845,1.826-4.303,1.537-6.729c-0.04-0.304-0.092-0.605-0.151-0.873c-0.019-0.124-0.08-0.325-0.118-0.484l-0.033-0.127
				c-0.025-0.098,0.017,0.061,0.005,0.025l-0.02-0.054l-0.08-0.216c-0.216-0.574-0.494-1.121-0.836-1.625
				c-0.679-1.015-1.635-1.846-2.786-2.465c-2.314-1.245-5.302-1.635-8.354-1.551c-2.99,0.098-6.194,0.742-9,2.079
				c-1.395,0.67-2.686,1.532-3.645,2.595c-0.963,1.062-1.552,2.303-1.699,3.671l-0.032,0.444c-0.008,0.182,0.001,0.442,0.001,0.66
				l0.06,1.194c0.036,0.398,0.104,0.796,0.15,1.195l0.247,1.188c0.397,1.574,1.057,3.105,1.933,4.513
				c0.876,1.408,1.973,2.694,3.236,3.764c0.627,0.511,1.338,1.025,1.987,1.377l0.474,0.268l0.659,0.295l0.331,0.148
				c0.174,0.074-0.145-0.059-0.082-0.036l0.081,0.027l0.163,0.054l0.65,0.216c3.474,1.144,7.167,1.804,10.928,2.092
				c7.541,0.54,15.352-0.587,22.749-2.904c7.416-2.286,14.481-5.758,20.532-10.381c5.95-4.639,11.567-10.587,18.966-14.092
				c1.855-0.853,3.832-1.519,5.89-1.858c2.054-0.347,4.188-0.308,6.201,0.1c0.507,0.091,1.003,0.212,1.488,0.365
				c0.493,0.129,0.968,0.297,1.433,0.48c0.467,0.163,0.938,0.373,1.406,0.599l0.694,0.33l0.581,0.325l0.579,0.324l0.673,0.401
				c0.437,0.29,0.866,0.592,1.264,0.935c0.803,0.675,1.51,1.462,2.085,2.321c1.166,1.717,1.788,3.68,2.002,5.582
				c0.208,1.909,0.049,3.781-0.399,5.526c-0.895,3.485-2.792,6.558-5.412,8.686c-1.308,1.059-2.805,1.864-4.376,2.311
				c-1.583,0.446-3.165,0.551-4.732,0.328l-0.512-0.085c-0.254-0.04-0.416-0.094-0.625-0.142c-0.381-0.111-0.737-0.24-1.08-0.378
				c-0.681-0.281-1.304-0.607-1.902-0.951c-1.194-0.687-2.263-1.469-3.243-2.298c-1.911-1.679-3.589-3.573-4.225-5.899
				c-0.328-1.144-0.241-2.405,0.209-3.423c0.458-1.016,1.208-1.774,1.958-2.339c0.868-0.572,1.776-0.728,2.597-0.78
				c0.827-0.044,1.596,0.047,2.287,0.221c1.367,0.33,2.52,1.067,2.877,2.048c0.324,0.999-0.124,1.73-0.355,2.128
				c-0.126,0.212-0.243,0.354-0.319,0.452C224.134,325.169,224.096,325.219,224.096,325.219z"/>
		</g>
	</g>
</g>
<g id="Spots" display="none">
</g>
</svg>
