<?xml version="1.0" encoding="utf-8"?>
<!-- Generator: Adobe Illustrator 17.0.0, SVG Export Plug-In . SVG Version: 6.00 Build 0)  -->
<!DOCTYPE svg PUBLIC "-//W3C//DTD SVG 1.1//EN" "http://www.w3.org/Graphics/SVG/1.1/DTD/svg11.dtd">
<svg version="1.1" xmlns="http://www.w3.org/2000/svg" xmlns:xlink="http://www.w3.org/1999/xlink" x="0px" y="0px" width="384px"
	 height="550px" viewBox="0 0 384 550" enable-background="new 0 0 384 550" xml:space="preserve">
<g id="Borders" display="none">
	<g display="inline">
		<rect x="0.392" y="-0.055" fill="#5D5D5D" width="384" height="550"/>
	</g>
</g>
<g id="Labels">
</g>
<g id="Names">
	<g>
		<path fill="#FFFFFF" d="M226.967,257.5l-5.195-15.421c0.513-0.332,0.996-0.71,1.438-1.152c3.379-3.38,3.217-8.875-0.162-12.254
			c-1.631-1.631-4.263-2.528-6.263-2.535v-8.023c2-0.006,4.633-0.907,6.264-2.538c1.637-1.637,2.619-3.813,2.619-6.128
			c0-2.315-0.861-4.492-2.498-6.128c-1.637-1.637-3.793-2.538-6.108-2.538c-2.315,0-4.482,0.901-6.118,2.538
			c-0.109,0.108-0.208,0.22-0.31,0.333l-9.303-4.101c0.045-0.358,0.073-0.723,0.073-1.093c0-4.779-3.887-8.667-8.666-8.667
			s-8.666,3.888-8.666,8.667c0,0.369,0.026,0.733,0.071,1.09l-9.311,4.1c-0.102-0.114-0.208-0.226-0.317-0.335
			c-1.637-1.637-3.814-2.539-6.129-2.539c-2.315,0-4.492,0.902-6.128,2.539c-3.379,3.38-3.204,8.879,0.175,12.258
			c1.167,1.168,2.354,1.959,4.354,2.318v8.47c-2,0.36-3.182,1.15-4.348,2.316c-1.637,1.637-2.625,3.813-2.625,6.128
			c0,2.315,0.858,4.491,2.495,6.128c0.455,0.455,0.931,0.835,1.46,1.172l-4.732,15.394h3.968l4.181-14.129
			c0.398,0.055,0.801,0.093,1.21,0.093c2.315,0,4.49-0.897,6.127-2.535c0.096-0.095,0.188-0.191,0.278-0.29l9.676,5.538
			c-0.262,0.826-0.404,1.705-0.404,2.617c0,4.779,3.888,8.667,8.667,8.667c4.779,0,8.667-3.888,8.667-8.667
			c0-0.917-0.144-1.8-0.409-2.631l9.657-5.549c0.098,0.108,0.199,0.215,0.304,0.319c1.637,1.637,3.814,2.539,6.128,2.539
			c0.423,0,0.842-0.047,1.253-0.106l4.34,14.132H226.967z M213.78,206.15c0.882-0.881,2.053-1.367,3.3-1.367
			c1.246,0,2.418,0.485,3.3,1.367c1.819,1.82,1.819,4.78,0,6.6c-0.882,0.881-2.053,1.367-3.3,1.367c-1.247,0-2.419-0.485-3.3-1.367
			C211.96,210.93,211.96,207.97,213.78,206.15z M192.735,193.794c2.573,0,4.667,2.093,4.667,4.667c0,2.573-2.093,4.667-4.667,4.667
			s-4.667-2.093-4.667-4.667C188.069,195.887,190.162,193.794,192.735,193.794z M185.355,202.999
			c1.528,2.475,4.264,4.129,7.38,4.129c3.115,0,5.851-1.653,7.378-4.126l8.701,3.835c-0.263,0.835-0.401,1.714-0.401,2.614
			c0,0.909,0.141,1.795,0.409,2.637l-9.663,5.562c-1.587-1.752-3.879-2.855-6.423-2.855c-2.677,0-5.073,1.22-6.664,3.133
			l-9.726-5.061c0.819-1.913,0.919-4.061,0.3-6.031L185.355,202.999z M192.735,228.128c-2.573,0-4.667-2.093-4.667-4.667
			s2.093-4.667,4.667-4.667s4.667,2.093,4.667,4.667S195.309,228.128,192.735,228.128z M165.084,206.143
			c0.881-0.882,2.052-1.367,3.299-1.367c1.247,0,2.419,0.486,3.301,1.368c1.82,1.82,1.821,4.781,0.002,6.601
			c-0.881,0.882-2.053,1.367-3.3,1.367c-1.246,0-2.418-0.485-3.3-1.367C163.265,210.925,163.264,207.964,165.084,206.143z
			 M171.69,238.105c-0.882,0.881-2.053,1.367-3.3,1.367c-1.247,0-2.419-0.485-3.3-1.367c-1.819-1.82-1.819-4.78,0-6.6
			c0.882-0.881,2.053-1.367,3.3-1.367c1.246,0,2.418,0.485,3.3,1.367C173.51,233.325,173.51,236.286,171.69,238.105z
			 M185.804,242.999l-9.412-5.527c0.274-0.85,0.541-1.747,0.541-2.666c0-0.645-0.011-1.279-0.147-1.894l6.191-2.849
			c-0.756-0.956-1.296-2.077-1.586-3.3l-6.092,2.821c-0.24-0.317-0.659-0.62-0.945-0.907c-1.225-1.225-2.571-2.038-4.571-2.37
			v-8.365c2-0.304,3.082-1.009,4.247-2.063l10.264,5.299c-0.199,0.728-0.761,1.493-0.761,2.283c0,4.103,3.249,7.547,6.249,8.44
			v8.455C188.784,240.763,186.971,241.704,185.804,242.999z M192.735,253.462c-2.573,0-4.667-2.093-4.667-4.667
			c0-2.573,2.093-4.667,4.667-4.667s4.667,2.093,4.667,4.667C197.402,251.368,195.309,253.462,192.735,253.462z M210.624,228.677
			c-0.297,0.297-0.402,0.611-0.647,0.937l-5.998-2.755c-0.293,1.222-0.809,2.342-1.567,3.297l6.187,2.795
			c-0.322,1.482-0.243,3.032,0.217,4.484l-9.485,5.553c-1.224-1.353-2.547-2.319-4.547-2.69v-8.338c4-0.793,6.791-4.302,6.791-8.498
			c0-0.919-0.232-1.804-0.498-2.636l9.619-5.561c0.097,0.107-0.152,0.212-0.05,0.314c0.732,0.733,1.138,1.317,2.138,1.74v9.618
			C211.784,227.359,211.356,227.944,210.624,228.677z M213.781,238.106c-1.82-1.82-1.821-4.781-0.002-6.601
			c0.881-0.882,2.053-1.367,3.299-1.367c1.246,0,2.419,0.486,3.3,1.368c1.82,1.82,1.821,4.781,0.002,6.601
			c-0.881,0.882-2.053,1.367-3.3,1.367C215.835,239.473,214.663,238.988,213.781,238.106z"/>
	</g>
	<g>
		<g>
			<path fill="#FFFFFF" d="M51.951,322.572V278.98h16.963c12.534,0,15.403,6.61,15.403,11.537c0,6.673-4.303,8.419-6.424,9.417
				c5.363,1.123,8.855,4.989,8.855,10.539c0,5.363-3.18,12.099-15.715,12.099H51.951z M66.294,296.629
				c4.614,0,7.982-0.498,7.982-4.552c0-4.304-2.682-4.864-7.921-4.864h-4.677v9.416H66.294z M68.352,314.341
				c4.864,0,8.356-0.687,8.356-5.114c0-4.303-3.492-4.927-9.292-4.927h-5.737v10.041H68.352z"/>
		</g>
		<g>
			<path fill="#FFFFFF" d="M126.351,287.649h-21.702v8.979h19.52v8.295h-19.52v9.042h22.388v8.606H94.92V278.98h31.431V287.649z"/>
		</g>
		<g>
			<path fill="#FFFFFF" d="M135.708,278.98h9.729v34.924h18.584v8.668h-28.312V278.98z"/>
		</g>
		<g>
			<path fill="#FFFFFF" d="M209.235,300.371v15.466c-3.804,4.241-9.791,7.234-17.961,7.234c-12.722,0-22.637-9.354-22.637-22.513
				c0-12.909,10.165-22.575,22.887-22.575c6.984,0,12.16,2.681,16.09,6.174l-5.052,7.296c-4.116-3.555-7.109-4.49-10.727-4.49
				c-7.233,0-13.158,5.301-13.158,13.72c0,8.481,5.8,13.596,12.659,13.596c2.994,0,5.737-0.562,8.107-1.934v-11.974H209.235z"/>
		</g>
		<g>
			<path fill="#FFFFFF" d="M227.634,278.98v43.592h-9.729V278.98H227.634z"/>
		</g>
		<g>
			<path fill="#FFFFFF" d="M265.364,303.053V278.98h9.729v24.384c0,13.097-8.231,19.645-18.646,19.645
				c-10.414,0-18.709-6.548-18.709-19.645V278.98h9.729v24.072c0,6.984,3.492,11.288,8.98,11.288
				C261.872,314.341,265.364,310.037,265.364,303.053z"/>
		</g>
		<g>
			<path fill="#FFFFFF" d="M294.925,295.133v27.439h-9.729V278.98h13.158l11.226,23.947l11.287-23.947h13.097v43.592h-9.729v-27.439
				c-3.929,7.92-7.92,16.09-11.787,23.822h-5.799L294.925,295.133z"/>
		</g>
	</g>
</g>
<g id="Spots" display="none">
</g>
</svg>
