<svg xmlns="http://www.w3.org/2000/svg" width="384" height="550"><g><path fill="#fff" d="M139.719 232.671c5.179-.188 9.792-2.354 13.183-6.026 3.107 3.39 4.896 5.085 4.896 13.653 0 9.887-10.923 20.622-20.904 20.622h-24.858c-8.004 0-14.784-7.062-14.784-15.16v-36.817c0-8.38 6.591-14.877 14.784-14.877h23.634c10.17 0 18.927 8.286 18.927 19.021 0 8.945-6.497 16.478-14.877 18.456-.66.187-.66 1.128-.001 1.128z"/><path fill="#fff" d="M159.02 245.948v-36.912c0-8.286 6.874-14.877 15.254-14.877h21.092c14.783 0 26.742 11.958 26.742 26.742 0 9.228-4.331 17.326-11.487 22.316-.471.282 0 1.224.565.941 3.107-1.413 6.026-3.39 8.475-6.215 4.237 6.026 3.484 13.936-1.883 19.303s-15.537 6.403-20.622-.471l-8.098-9.604c-.471 7.91-6.874 14.03-15.066 14.03-8.098.002-14.972-6.872-14.972-15.253zm30.038-27.589v6.403c.471.283.942.283 1.695.283 1.977 0 3.39-1.507 3.39-3.484s-1.413-3.672-3.39-3.672c-.753-.001-1.224.187-1.695.47z"/><path fill="#fff" d="M249.79 256.212c-5.838 5.838-15.349 5.838-21.187 0-5.744-5.744-5.744-14.972 0-20.81l35.782-36.252c4.614-5.367 12.618-6.78 18.738-3.107 4.614 2.354 7.533 7.25 7.533 12.9v37.194c0 8.192-7.345 14.783-14.877 14.783-7.722 0-12.9-4.708-14.501-11.017l5.744-8.851c.283-.753-.471-1.318-.941-.753l-16.291 15.913z"/><path fill="#fff" d="M172.446 302.676c-6.804 6.93-14.113 14.113-21.421 21.421-.378.63.378 1.764 1.008 1.008l11.089-7.309c9.072 2.142 15.625 9.325 15.625 19.783 0 9.955-9.072 20.035-20.035 20.035h-41.834c-11.089 0-20.413-8.946-20.413-20.035 0-6.3 3.024-11.467 7.182-15.247l20.035-20.413c.756-.63-.252-1.764-1.008-1.386l-10.333 7.308c-8.946-2.142-15.625-10.081-15.625-19.783 0-10.963 9.072-20.035 20.161-20.035h41.456c19.658.001 25.958 22.809 14.113 34.653z"/><path fill="#fff" d="M182.396 337.328v-49.143c0-10.963 8.82-19.783 19.909-19.783 11.467 0 20.287 8.82 20.287 19.783v49.143c0 10.962-8.82 20.161-20.287 20.161-11.089 0-19.909-9.198-19.909-20.161z"/><path fill="#fff" d="M226.622 337.202v-49.269c0-10.962 8.946-20.035 20.035-20.035 11.215 0 20.161 9.072 20.161 20.035l-.252 29.36h4.41c26.209 0 26.209 40.322 0 40.322h-23.941c-11.719 0-20.791-8.82-20.413-20.413z"/></g></svg>