<?xml version="1.0" encoding="utf-8"?>
<!-- Generator: Adobe Illustrator 17.0.0, SVG Export Plug-In . SVG Version: 6.00 Build 0)  -->
<!DOCTYPE svg PUBLIC "-//W3C//DTD SVG 1.1//EN" "http://www.w3.org/Graphics/SVG/1.1/DTD/svg11.dtd">
<svg version="1.1" xmlns="http://www.w3.org/2000/svg" xmlns:xlink="http://www.w3.org/1999/xlink" x="0px" y="0px" width="384px"
	 height="550px" viewBox="0 0 384 550" enable-background="new 0 0 384 550" xml:space="preserve">
<g id="Borders" display="none">
	<g display="inline">
		<rect x="0.392" y="-0.055" fill="#5D5D5D" width="384" height="550"/>
	</g>
</g>
<g id="Labels">
</g>
<g id="Names">
	<g>
		<g>
			<path fill="#FFFFFF" d="M139.719,232.671c5.179-0.188,9.792-2.354,13.183-6.026c3.107,3.39,4.896,5.085,4.896,13.653
				c0,9.887-10.923,20.622-20.904,20.622h-24.858c-8.004,0-14.784-7.062-14.784-15.16v-36.817c0-8.38,6.591-14.877,14.784-14.877
				h23.634c10.17,0,18.927,8.286,18.927,19.021c0,8.945-6.497,16.478-14.877,18.456C139.06,231.73,139.06,232.671,139.719,232.671z"
				/>
		</g>
		<g>
			<path fill="#FFFFFF" d="M159.02,245.948v-36.912c0-8.286,6.874-14.877,15.254-14.877h21.092
				c14.783,0,26.742,11.958,26.742,26.742c0,9.228-4.331,17.326-11.487,22.316c-0.471,0.282,0,1.224,0.565,0.941
				c3.107-1.413,6.026-3.39,8.475-6.215c4.237,6.026,3.484,13.936-1.883,19.303s-15.537,6.403-20.622-0.471l-8.098-9.604
				c-0.471,7.91-6.874,14.03-15.066,14.03C165.894,261.203,159.02,254.329,159.02,245.948z M189.058,218.359v6.403
				c0.471,0.283,0.942,0.283,1.695,0.283c1.977,0,3.39-1.507,3.39-3.484c0-1.977-1.413-3.672-3.39-3.672
				C190,217.888,189.529,218.076,189.058,218.359z"/>
		</g>
		<g>
			<path fill="#FFFFFF" d="M249.79,256.212c-5.838,5.838-15.349,5.838-21.187,0c-5.744-5.744-5.744-14.972,0-20.81l35.782-36.252
				c4.614-5.367,12.618-6.78,18.738-3.107c4.614,2.354,7.533,7.25,7.533,12.9v37.194c0,8.192-7.345,14.783-14.877,14.783
				c-7.722,0-12.9-4.708-14.501-11.017l5.744-8.851c0.283-0.753-0.471-1.318-0.941-0.753L249.79,256.212z"/>
		</g>
		<g>
			<path fill="#FFFFFF" d="M172.446,302.676c-6.804,6.93-14.113,14.113-21.421,21.421c-0.378,0.63,0.378,1.764,1.008,1.008
				l11.089-7.309c9.072,2.142,15.625,9.325,15.625,19.783c0,9.955-9.072,20.035-20.035,20.035h-41.834
				c-11.089,0-20.413-8.946-20.413-20.035c0-6.3,3.024-11.467,7.182-15.247l20.035-20.413c0.756-0.63-0.252-1.764-1.008-1.386
				l-10.333,7.308c-8.946-2.142-15.625-10.081-15.625-19.783c0-10.963,9.072-20.035,20.161-20.035h41.456
				C177.991,268.024,184.291,290.832,172.446,302.676z"/>
		</g>
		<g>
			<path fill="#FFFFFF" d="M182.396,337.328v-49.143c0-10.963,8.82-19.783,19.909-19.783c11.467,0,20.287,8.82,20.287,19.783v49.143
				c0,10.962-8.82,20.161-20.287,20.161C191.216,357.489,182.396,348.291,182.396,337.328z"/>
		</g>
		<g>
			<path fill="#FFFFFF" d="M226.622,337.202v-49.269c0-10.962,8.946-20.035,20.035-20.035c11.215,0,20.161,9.072,20.161,20.035
				l-0.252,29.36h4.41c26.209,0,26.209,40.322,0,40.322h-23.941C235.316,357.615,226.244,348.795,226.622,337.202z"/>
		</g>
	</g>
</g>
<g id="Spots" display="none">
</g>
</svg>
