<?xml version="1.0" encoding="utf-8"?>
<!-- Generator: Adobe Illustrator 17.0.0, SVG Export Plug-In . SVG Version: 6.00 Build 0)  -->
<!DOCTYPE svg PUBLIC "-//W3C//DTD SVG 1.1//EN" "http://www.w3.org/Graphics/SVG/1.1/DTD/svg11.dtd">
<svg version="1.1" xmlns="http://www.w3.org/2000/svg" xmlns:xlink="http://www.w3.org/1999/xlink" x="0px" y="0px" width="384px"
	 height="550px" viewBox="0 0 384 550" enable-background="new 0 0 384 550" xml:space="preserve">
<g id="Borders" display="none">
	<g display="inline">
		<rect fill="#5D5D5D" width="384" height="550"/>
	</g>
</g>
<g id="Labels">
</g>
<g id="Names">
	<path fill="#FFFFFF" d="M299.693,268.386l-1.672-1.162l-1.461-0.089l-1.356,0.358l-2.688,0.893l-2.863,0.179l-1.432,0.356
		c0,0-27.49,4.157-61.643,5.245c-25.297,0.807-68.704-1.738-68.704-1.738l-2.77,0.178l-1.43-0.178l-2.681-0.357l-2.77-0.269
		l-0.179-0.179l-1.697-0.268l-2.859-0.447l-2.948-0.536l-2.77-0.804l-2.591-0.715l-2.681-0.536l-2.77-0.447l-2.591-0.536
		l-2.77-0.804l-2.859-0.358l-0.178-0.268l-2.234-0.089l-0.536-0.069l-0.268-0.248h-0.715l-0.536-0.289l-2.502-0.412l-2.948-0.295
		l-3.038-0.103l-2.859-0.04l-0.715,0.139h-0.804l-2.77,0.479l-0.357,0.24l-2.323,0.818l-0.447,0.462h-0.447l-0.089,0.283
		l-0.447,0.179l-0.447,0.537H96v0.015l-1.673,1.072l-1.864,1.876l-1.468,2.501l-1.225,2.501l-0.345,1.43l-0.615,2.68L89,280.29v1.43
		l0.531,2.948l0.579,1.072l0.378,1.25l0.547,0.536l0.184,0.804l1.7,2.145l2.056,1.787l1.43,0.804l2.413,1.162l1.43,0.357l1.43,0.089
		l2.77,0.179l1.34-0.269l3.038-0.625l2.323-1.162l0.357-0.446l0.524-0.089l0.971-1.609v-0.893l-0.276-0.715L112,287.974v-0.356
		l-0.605-0.804l-1.151-0.626l-0.129-0.268l-1.583,0.536l-1.149,0.804l-1.245,0.754l-1.334,0.487h-1.519l-2.948-0.499l-0.447-0.501
		h-0.447l-0.089-0.434l-1.698-1.422l-1.34-2.275l-0.357-2.79l0.178-1.529l0.447-1.614l0.536-1.521l0.626-0.984l0.536-0.269
		l0.179-0.625l0.625-0.179l0.447-0.446l2.323-1.134l2.055-0.777h1.43h3.038h2.859h1.251h1.34l0.179,0.33l1.34,0.166l1.072,0.306
		l2.68,0.733l1.28,0.099l2.62,0.545V273.5h1.37l0.536,0.447l1.251,0.358l1.608,0.491l2.859,0.38l0.179,0.279l0.983,0.095l2.68,0.271
		l1.876,0.984l0.447,0.536l0.179,0.805l-0.089,0.536l-0.983,2.233l-0.625,2.233l-0.715,2.502l-0.715,0.894l-0.089,0.446
		l-0.447,0.268l-0.089,0.536l-0.268,0.268l-0.178,0.804l-0.447,0.626l-0.447,1.429l-1.161,2.68l-0.089,0.626l-0.268,0.179
		l-0.536,1.339l-1.072,2.591l-1.072,2.859l-0.159,0.983L127,302.626v0.358l-0.198,0.357l-0.233,1.43l-0.161,0.089l-0.17,1.34
		l-1.425,2.413l-0.087,0.625l-0.267,0.269l-0.089,0.536l-0.268,0.179l-0.179,0.804l-0.536,0.893l-0.357,1.34l-0.357,0.625
		l-1.162,2.59l-0.983,2.77l-0.625,1.877l-0.626,1.34l-0.626,0.894l-0.357,1.43l-0.447,0.446l-0.38,0.894L117,326.212v0.447v0.179
		v0.357l-0.693,0.536l-0.927,1.25l-1.804,2.144l-1.17,0.983l-2.059,1.787l-1.253,0.715l-2.592,0.893l-1.341,0.179l-3.038,0.447
		l-1.34-0.179l-1.341-0.537l-1.429-0.267l-0.382-0.269L96,334.521v-0.178l-0.422-0.179l-0.971-0.983l-1.736-2.055l-0.064-0.357
		l-0.434-0.536l-0.865-1.43L91,326.123v-2.949l0.604-1.077l1.14-2.597h0.268l-0.095-0.53L93,318.708v-0.357l1.435-1.071l2.057-1.788
		l1.297-0.536l1.452-0.357l2.781-0.804l0.452-0.446l0.485-1.251l0.039-0.893v-2.77l-1.108-1.162l-1.134-0.089l-2.756,0.536
		l-2.942,0.715l-2.319,1.162l-0.445,0.536l-0.804,0.357l-0.982,1.072l-1.25,0.804l-0.804,1.161l-0.268,0.089l-0.179,0.496
		l-1.072,1.389h-0.179l-0.089,0.577l-1.072,1.359l-0.358,1.797l-0.893,2.597l0.149,2.772L85,325.229v3.127l0.566,2.323l0.774,2.771
		l0.209,0.267l0.149,0.626l0.79,0.715l1.422,2.233l1.157,1.161l1.07,0.715l2.235,1.697L94,340.954v0.268l2.499,0.805l1.383,0.178
		l2.746,0.716l3.026,0.178l2.495-0.268l1.338-0.357l2.768-0.715l0.089-0.179l0.535,0.05l0.268-0.129h0.268l0.804-1h0.357
		l0.443-0.398l0.979-0.31V339.5h0.453l0.268-0.256l1.876-0.976l0.447-0.534l0.714-0.267l0.447-0.624l1.072-0.893l-0.041-0.536
		L120,334.7v-0.357l0.577-0.268l0.958-1.162l0.569-1.072l0.642-0.357l0.187-0.626l0.808-0.625l1.253-2.501l0.984-2.681l1.162-2.501
		l1.072-2.591l0.268-0.268l0.268-0.983l0.804-1.34l0.089-0.625l0.447-0.625l0.277-1.072l0.635-0.447v-0.357l0.08-0.537l0.174-1.339
		l0.489-1.34l0.78-1.162l0.078-0.625l0.62-0.804l0.265-1.341l0.445-1.162l0.579-1.071l0.49-2.234v-0.714l1.342-2.412h0.179
		l0.357-0.403l1.072-2.658l1.161-2.624l0.983-2.652l0.983-2.488l1.072-2.763l1.072-2.677l1.072-2.857l0.804-1.252l0.893-0.626h2.948
		l2.948,0.545l2.77,0.455h2.859c0,0,45.982,5.001,69.061,4.34c13.26-0.38,17.256-0.003,30.423-2.337
		c20.284-3.595,29.184-4.335,29.184-4.335l4.816-1.278v-0.179l1.424-0.178l0.355-0.268l1.026-0.269l2.658-0.804l0.167-0.447
		l0.53-0.088l0.533-0.715l0.624-0.179l1.288-1.608l0.395-0.982v-1.608L299.693,268.386z M141.524,278.772l-0.357,0.089v-0.804
		l0.447,0.178l0.089,0.268L141.524,278.772z"/>
	<path fill="#FFFFFF" d="M288.732,316.229l-0.357,0.09l-0.983,0.178l-0.804,0.894l-1.34,2.413l-0.983,1.072l-0.089,0.536
		l-0.447,0.626l-1.608,2.322l-1.251,2.055l-0.536,0.357l-0.179,0.536l-0.625,0.536l-0.358,1.072l-0.536,0.447l-0.358,0.894
		l-1.251,0.893l-2.144,1.787l-0.089,0.536l-0.983,0.536l-0.983,0.804l-1.162,0.537l-0.536,0.487l-1.519,0.665h-0.625l-1.608-0.934
		l-0.357-0.645l-0.179-1.975l0.089-1.613l0.536-1.522l0.268-0.091l0.715-2.77l0.893-1.966l0.357-1.25l0.268-0.179l0.089-0.894
		l0.983-2.234l1.072-2.412l1.162-2.502l0.357-1.339l0.893-2.234l1.162-2.899l0.715-2.541h0.179l0.031-0.676l0.387-0.942v-0.805
		l1-2.948v-1.608l-0.53-2.591l-0.265-0.089l-0.088-0.537l-0.893-0.714l-0.089-0.357l-1.519-1.341l-2.144-0.804L269.435,293
		l-1.251,0.268l-2.502,0.894l-0.573,0.536L264,295.055v0.445h0.074L262,296.662V296.5h-0.338l-1.34,1.064l-1.25,0.443l-1.966-1.119
		l-2.591-1.587l-0.893,0.099l-1.519,1.256L251.745,298l-0.804,2.681l-1.251,2.453l-0.983,2.365h-0.178l-0.893,2.55l-1.162,2.749
		l-1.161,2.625l-0.804,2.519l-0.699,1.514l-0.014,0.017l-1.519,2.415l-0.536,0.269l-0.178,0.626l-0.983,0.893l-0.804,1.252
		l-0.536,0.178l-0.804,0.894l-0.536,0.268l-0.357,0.537l-0.536,0.088l-0.369,0.447L236,325.609v0.179l-0.525,0.088l-0.218,0.268
		l-1.985,1.08l-1.449,0.275h-2.502l-0.447-0.365l-0.983-1.076l-0.178-0.672l1.072-2.525l1.34-2.798l0.089-0.565H230l0,0h1v-0.77
		l0.278-0.536l0.54-1.401l0.809-2.293H233v-0.773l0.439-0.854l0.618-2.372H234v-1h0.503l0.089-0.343l0.268,0.074l0.178-0.73h0.268
		l0.089-0.96l0.893-2.892l0.625-2.831l0.358-0.835l0.774-2.607L239,295.68v-1.429l-0.417-0.089l-1.37-0.894l-0.685,0.179
		l-2.442,0.536l-1.444,1.697l-0.365,1.162l-0.228,0.446L232,297.914v1.429l-0.401,1.609l-0.96,1.429l-0.48,1.34l-0.642,2.501
		l-0.902,2.77l-0.987,2.68l-0.538,0.536l0.133,0.715L227,313.37v0.357l-0.492,0.358l-0.38,1.072l-0.503,0.536l-1.011,2.144
		l-0.818,1.072l-2.062,1.072l-1.433,0.268l-0.359,0.537l-0.805,0.41l-0.894,1.305H218l0,0l0,0v1h-0.293l-0.179,1.904l0.357,2.694
		l-0.625,1.392l-0.715,0.964l-1.876,2.223l-0.536,0.085l-0.536,0.534l-0.983,0.534l-0.983,0.804l-1.429,0.626l-1.34,0.267
		l-1.25-0.446l-0.715-1.162l-0.178-1.519l0.714-2.859l0.715-2.502l1.072-2.412l0.488-0.983l1.292-2.68V320.5l0,0l0,0l0,0v-1l0,0l0,0
		l0,0v-1h0.632l0.536-2h0.268l0.089-0.493l1.072-2.615l0.358-0.589l0.268-1.304H214l0,0h0.669l0.804-1.969l0.536-2.771l0.447-0.537
		l0.804-1.877l1.251-2.591l0.893-2.591l0.983-2.681l0.089-1.429l-0.179-0.269l-1.25-0.536l-1.443-0.179L215,293.893v0.179
		l-0.791,0.125l-0.344,0.303h-0.447l-1.34,1.947l-0.268,1.053h-0.179l-0.178,0.162l-0.089,0.662l-0.447,2.297l-0.536,0.522
		l-0.268,1.065l-0.536,0.533l-0.179,0.803l-0.625,1.34l-0.268,1.25l-0.893,2.144l-1.251,2.412l-0.982,2.681l-0.983,2.859
		l-0.983,2.054l-0.179,1.072l-0.447,0.537l-0.179,0.536l-0.268,0.179l-1.519,2.324l-0.322,0.714l-0.5,0.179v0.357l-0.304,0.447
		l-1.537,2.233l-0.035,0.894L198,327.842v0.447l-1,0.179v0.356l-0.769,0.805l-2.082,1.935l-1.993,1.936h-0.357l-0.179,0.477
		l-0.804,0.596l-0.626,0.119l-0.625,0.372l-1.429,0.364l-1.251-0.264l-0.983-1.428l0.179-1.071l0.536-1.25l0.268-1.341l0.447-1.161
		l0.268-1.429l0.357-0.804l0.625-2.502l1.34-2.233l0.268-0.179l0.447-2.055l0.714-1.251l0.983-2.77l0.804-2.501l0.536-0.447
		l0.179-0.625l0.714-1.251l0.268-1.25l0.268-0.269l0.179-0.804l0.268-0.269l0.268-0.893l0.268-0.269l0.179-1.072l0.447-1.25
		l0.804-1.43l0.179-0.625l0.268-0.268l0.447-1.251l0.179-1.429l0.357-0.983l0.357-0.268l0.625-1.251l0.447-1.429l-0.357-1.251
		l-1.286-0.625l-1.732-0.09v0.607h-1.807l-1.608,0.232l-0.983,0.519l-0.089,0.303l-0.268,0.152l-0.536,0.88l-0.667,2.942
		l-0.042,0.44v0.532h-1v0.272l-0.262,0.179l-0.355,1.25l-0.222,1.43l-0.424,0.536l-0.256,0.894l-0.441,0.447l-0.533,1.34
		l-0.209,1.609L187,309.26v0.358l-0.416,0.267l-0.61,1.341l-0.305,0.089l-0.108,0.893l-0.456,0.446l-0.272,0.804l-0.238,1.072
		L184,314.978v0.358l-0.836,2.322l0.065,0.013l0.024,0.345L183,318.462v0.357l-1.765,1.966l-0.302,0.536l-2.027,1.955l-2.027,2.224
		H176v-0.159l-0.409,0.179l-0.964,0.804l-2.358,1.072l-1.67-0.09l-0.933-0.268L169,326.145v-0.356l0.947-2.681l0.161-1.429
		l0.616-0.983l0.174-0.625l0.623-0.536l0.284-0.446l0.195-0.983v-1.52l0.054-0.089l0.946-2.055v-1.071l0.466-1.43l-0.001-0.089
		l0.535-2.77v-1.429l1-2.77v-2.948l-0.534-1.251l-1.25-2.68l-0.849-1.162l-2.077-2.145l-1.083-0.714l-2.15-0.358l-1.253-0.446
		L163.033,293l-2.949,0.384l-0.18,0.116h-0.357l-1.787,1.224l-0.536,0.165l-0.701,0.753L156,295.769V295.5h-0.563l-0.268,1h-0.178
		l-0.983,0.752l-0.536,0.062l-0.715,0.791l-1.966,2.137l-1.519,1.962l-0.536,0.446l-0.358,0.714l-0.268,0.089l-0.089,0.535
		l-0.689,0.982l-0.332,0.09v0.447l-0.472,0.536l-0.325,0.894l-0.646,1.072l-0.557,1.34v0.151h-1v1h0.269l-0.357,1h-0.268
		l-0.357,1.471l-0.983,2.701l-0.804,2.69l-1.072,2.508l-0.268,2.772l-0.358,2.681l-0.536,2.055l0.178,2.859l0.268,2.591l0.536,1.162
		l0.179,1.251l0.447,0.446l0.268,0.983l0.536,0.358l0.268,0.714l0.536,0.536l2.412,1.698l0.625,0.083l0.358,0.44h0.625h0.179h1.072
		l0.178,0.275l1.43-0.131l2.77,0.203l1.251-0.525l2.233-0.5l0.625-0.321h0.357l2.234-1.727l0.536-0.149l0.447-0.655l0.536-0.194
		l0.536-0.455l2.144-2.326l1.787-2.236l1.34-0.537l1.608,0.446l1.34,0.178l3.038-0.268l1.072-0.446l2.859-0.625l0.536-0.358
		l2.502-1.608l0.151-0.121l-0.421,2.175l-0.178,2.502l0.089,2.859l1.251,1.697l2.033,2.234l0.962,0.089v0.523l0,0l0,0l0,0l0,0h0.847
		l1.072,0.497l2.055-0.332l2.859-0.345l2.323-1.512l2.234-1.158l0.178-0.267l0.536-0.089l1.072-1.071l0.447-0.894l0.983-0.982
		l0.625-0.179l0.089,0.179l0.626,0.267l0.715,1.162l0.447,1.341l1.787,2.144l1.161,0.893l1.877,0.447l0.178,0.179l0.983,0.09
		l3.038-0.179l2.323-0.537l0.625-0.446l1.251-0.536l0.179-0.268l0.536-0.089l0.358-0.447l0.983-0.357l0.447-0.447l0.459-0.089
		l1.71-1.876v-0.357l0.345-0.179l2.361-1.876l2.074-1.966l1.35-0.537l1.524,0.179l1.164,0.447l2.681,0.357l1.52-0.178l2.859-0.269
		l1.34-0.447l2.68-0.86l0.447-0.413h0.267l-0.268,0.056l-0.089,0.31l-0.714,2.634H237v0.329l-0.534,0.894l-0.356,1.787l-0.044,1.609
		l0.201,1.429l0.726,0.745l1.172,0.209h1.519l2.948-0.209l0.447-0.417l1.251-2.353l1.072-2.74l0.983-2.755l1.162-2.673l0.357-1.247
		l0.179-0.087l0.178-1.071l0.536-0.535l0.089-0.625l0.804-2.413l0.447-0.893l0.625-1.966l1.34-2.59l0.089-0.894l0.536-1.34
		l0.447-0.328l0.357-0.865H254v-0.684l0.302-1.072l0.938-2.59l0.76-1.162v-0.625l0.329-0.447l0.201-0.983L257,306.58v-0.447
		l0.901-0.715l0.183-0.625l2.057-1.609l0.984-0.357l0.447-0.447l2.502-1.429l1.162-0.447l1.43-0.268l1.757,0.179l1.578,1.697v0.894
		l-0.596,1.34l-1.191,2.948l-1.132,2.68l-0.923,2.413l-0.998,2.59l-0.276,1.251l-0.539,0.446l-0.36,1.341L263,320.517V320.5h-0.534
		l-0.376,1.08L261,324.18v0.357l-0.696,2.949l-0.214,0.446l-0.062,0.626l-0.344,0.625l-0.261,1.34l-0.086,2.77l0.18,3.216
		l0.269,1.162l0.626,1.162l1.072,1.058l0.358,0.61h0.447l0.179,0.462l0.447,0.097l0.178,0.271l0.626,0.181l0.178,0.269l1.698-0.089
		l2.948,0.179l0.447-0.179l0.715,0.089l1.251-0.596l0.893-0.685H272l0,0h1l0,0l0,0v-0.149l0.54-0.089l0.315-0.268l0.559-0.179
		l0.994-1.072l1.346-1.072l1.879-1.251l1.073-1.161l1.966-1.966l0.715-1.162l1.876-2.234l0.715-1.118l1.608-2.279h0.178l0.179-0.668
		l0.715-1.273l1.429-2.423l1.43-2.596l0.178-1.254l-0.714-1.162L288.732,316.229z M209.309,319.444l0.268,0.537h-0.179l-0.357-0.268
		l-0.089-0.358L209.309,319.444z M207.254,323.644l0.268-0.358l0.447-0.089l-0.178,0.626h-0.626L207.254,323.644z M163.299,328.021
		l-0.179-0.089v-0.983l0.179-0.089l0.268,0.626L163.299,328.021z M165.086,328.111l-0.178,0.268l-0.536-0.357l-0.089-0.446v-0.179
		l0.357-0.447h0.447V328.111z M167.141,325.699h-0.357v-0.358l0.089-0.089l0.268-0.089V325.699z M167.498,305.15l-0.625,2.948
		l-0.179,2.77l-0.268,0.268l-0.268,1.271l-0.447,1.093h-0.179l-0.447,1.855l-0.983,2.76l-0.893,1.021l-1.161,0.914l-2.412,0.903
		l-0.447,0.362l-0.804,1.075l-0.089,0.448l-0.268,0.09l-0.09,0.267l-0.178,2.859l0.178,0.715l0.715,2.233l-0.447,0.894l-1.698,2.502
		l-1.072,0.894l-2.144,1.876l-0.536,0.09l-0.178,0.356l-1.787,0.447l-1.072-0.179l-1.494-0.536L147,334.454v-0.446l-0.089-0.893
		l0.089-1.43v-3.215l0.064-1.251l0.255-2.948l0.128-0.179l0.51-2.501l0.881-1.965l0.441-0.536l0.444-2.859l0.266-0.179l0.089-0.447
		l0.357-0.446l0.446-1.43l0.804-1.162l0.179-0.625l0.447-0.625l1.34-2.592l0.179-0.625l0.804-0.983l0.089-0.446l1.519-1.965
		l1.787-2.234l0.089-0.179l1.519-1.697l0.983-0.715l1.161-0.78l1.34-0.599h1.787l0.089,0.422l0.357,0.154l0.178,0.424h0.358
		l0.804,1.038l0.536,1.456l0.357,2.516L167.498,305.15z M200.464,330.255v-0.358l0.536,0.089l0.089,0.269H200.464z M204.395,324.537
		l0.089-0.893h0.179l0.268,0.446v0.447l-0.268,0.269h-0.357L204.395,324.537z M203.501,327.039h0.626v0.626h-0.626V327.039z
		 M204.931,333.293l-0.625-0.089l-0.357-0.894l0.089-0.089l0.715-0.089l-0.089,0.268l0.447,0.625L204.931,333.293z M225,324.18
		l-0.698,1.251l-0.528,0.179l-0.353-0.357l-0.087-0.536l1.414-1.52l0.252,0.268V324.18z M267.469,319.088h0.447v0.446h-0.447
		V319.088z"/>
	<path fill="#FFFFFF" d="M138.313,237.721c-0.55,1.376-1.273,2.626-2.167,3.75c-0.894,1.125-1.938,2.098-3.13,2.923
		c-1.193,0.826-2.5,1.468-3.921,1.927c-1.422,0.459-2.913,0.688-4.471,0.688c-2.019,0-3.933-0.39-5.744-1.17
		c-1.812-0.779-3.383-1.846-4.712-3.199c-1.331-1.353-2.386-2.924-3.164-4.712c-0.781-1.789-1.169-3.715-1.169-5.779
		s0.389-3.99,1.169-5.779c0.779-1.788,1.834-3.359,3.164-4.712c1.329-1.352,2.9-2.418,4.712-3.198
		c0.03-0.013,0.062-0.021,0.093-0.034c-0.094-0.115-0.155-0.204-0.135-0.394c0.053,0.008,0.156,0.064,0.2,0.11
		c0.015,0.085,0.051,0.16,0.103,0.222c1.735-0.708,3.56-1.073,5.484-1.073c1.559,0,3.049,0.229,4.471,0.688
		c1.421,0.458,2.728,1.1,3.921,1.926c1.192,0.825,2.236,1.812,3.13,2.958c0.894,1.147,1.617,2.408,2.167,3.784l7.705-7.705
		c-1.101-1.789-2.408-3.429-3.921-4.918c-1.513-1.49-3.188-2.763-5.022-3.819c-1.835-1.054-3.807-1.868-5.916-2.441
		c-2.11-0.573-4.289-0.86-6.535-0.86c-3.486,0-6.754,0.665-9.803,1.995c-3.05,1.331-5.71,3.143-7.98,5.435
		c-2.27,2.294-4.071,4.965-5.4,8.014c-1.331,3.051-1.995,6.318-1.995,9.803c0,3.486,0.664,6.753,1.995,9.803
		c1.329,3.051,3.13,5.722,5.4,8.014c2.27,2.294,4.93,4.105,7.98,5.435c2.12,0.925,4.347,1.521,6.678,1.802
		c-0.008-0.027-0.011-0.058-0.02-0.084c0.449-0.06,0.887-0.186,1.225-0.644c0.236-0.023,0.334,0.035,0.472,0.129
		c0.131,0.089,0.279,0.171,0.475,0.171c0.047,0,0.094-0.005,0.138-0.013c0.033,0.083,0.074,0.155,0.112,0.223
		c0.051,0.093,0.096,0.17,0.117,0.267c-0.031,0.034-0.032,0.086-0.052,0.129c0.22,0.005,0.438,0.016,0.659,0.016
		c2.247,0,4.425-0.285,6.535-0.86c2.109-0.573,4.081-1.387,5.916-2.442c1.834-1.054,3.508-2.315,5.022-3.783
		c1.513-1.467,2.821-3.097,3.921-4.884L138.313,237.721z M140.103,212.634c0.021,0.062,0.055,0.119,0.099,0.168l-0.002,0.001
		c0.011,0.016,0.028,0.036,0.04,0.063c0.045,0.09,0.118,0.159,0.207,0.201c-0.027,0.034-0.051,0.07-0.066,0.11
		c-0.036-0.06-0.085-0.112-0.145-0.148c-0.04-0.025-0.096-0.057-0.138-0.079c-0.033-0.018-0.083-0.044-0.119-0.066
		C140.013,212.773,140.053,212.693,140.103,212.634z M137.577,219.702c0.014,0.049,0.032,0.091,0.047,0.13
		c0.005,0.01,0.009,0.018,0.012,0.026c-0.069-0.032-0.129-0.083-0.182-0.151C137.489,219.705,137.53,219.702,137.577,219.702z
		 M130.865,209.19c0.118-0.048,0.165-0.089,0.338,0.004v0.455c-0.094,0.037-0.159,0.095-0.208,0.137
		c-0.07,0.062-0.09,0.072-0.143,0.073c-0.069-0.199-0.128-0.383-0.146-0.609C130.765,209.23,130.817,209.209,130.865,209.19z
		 M129.092,216.819c-0.029,0.022-0.056,0.049-0.08,0.082c-0.023-0.011-0.047-0.029-0.078-0.051
		c-0.031-0.024-0.071-0.055-0.117-0.082c0.01-0.009,0.026-0.025,0.037-0.037c0.038-0.037,0.088-0.085,0.128-0.158
		C129.023,216.622,129.059,216.698,129.092,216.819z M128.74,214.685c0.015,0,0.031,0.002,0.047,0.006
		c0.02,0.026,0.044,0.051,0.069,0.07c0.085,0.209,0.078,0.238,0.04,0.411c-0.016,0.076-0.038,0.177-0.059,0.318
		c-0.336-0.025-0.362-0.31-0.362-0.399C128.475,214.927,128.56,214.685,128.74,214.685z M123.949,215.049
		c-0.098-0.159-0.097-0.292,0.002-0.452c0.014,0.004,0.029,0.01,0.046,0.023c0.029,0.022,0.072,0.053,0.133,0.075
		c0.012,0.064,0.038,0.124,0.081,0.18C124.19,214.942,124.074,215.039,123.949,215.049z M123.883,207.605
		c0.083,0,0.202,0.026,0.299,0.143c0.133,0.16,0.194,0.428,0.171,0.744c-0.261,0.17-0.551,0.132-0.741-0.086
		c-0.097-0.11-0.16-0.258-0.182-0.425c-0.006-0.042-0.017-0.084-0.033-0.123C123.541,207.696,123.716,207.605,123.883,207.605z
		 M122.414,207.724c0.026-0.035,0.162-0.011,0.186,0.046c0.006,0.018,0.013,0.036,0.02,0.054c-0.011,0.021-0.02,0.044-0.029,0.068
		c-0.007,0.021-0.015,0.044-0.028,0.066c-0.081,0.003-0.143-0.008-0.192-0.029C122.365,207.802,122.398,207.745,122.414,207.724z
		 M116.29,218.935c0.001-0.008,0.003-0.015,0.005-0.022c0.016,0.004,0.032,0.009,0.045,0.012c0.036,0.011,0.077,0.022,0.11,0.034
		c0.008,0.166-0.015,0.285-0.066,0.344c-0.011,0.016-0.049,0.059-0.165,0.067C116.221,219.239,116.255,219.088,116.29,218.935z
		 M111.577,222.524c-0.109,0.086-0.159,0.124-0.265,0.177c0-0.007,0-0.015-0.001-0.02c-0.003-0.047-0.005-0.09-0.012-0.148
		c0.073-0.036,0.126-0.083,0.168-0.119c0.044-0.037,0.078-0.057,0.117-0.067c0.015,0.047,0.035,0.083,0.05,0.112
		c0.002,0.007,0.004,0.01,0.008,0.017L111.577,222.524z M114.101,209.352c0.095-0.049,0.191-0.097,0.285-0.156
		c0.013,0.037,0.029,0.074,0.044,0.113c0.099,0.256,0.21,0.536,0.376,0.806c-0.269-0.009-0.53-0.123-0.687-0.305
		c-0.093-0.108-0.147-0.238-0.158-0.385C114.007,209.4,114.054,209.376,114.101,209.352z M111.806,218.062
		c0.111-0.03,0.2-0.107,0.255-0.205c0.018,0.014,0.036,0.028,0.052,0.047c0.087,0.091,0.138,0.252,0.138,0.431
		c0,0.162-0.055,0.441-0.247,0.544c-0.051-0.091-0.133-0.165-0.234-0.203c-0.101-0.038-0.178-0.186-0.174-0.338
		C111.602,218.124,111.756,218.08,111.806,218.062z M110.151,220.096c0.151-0.089,0.467-0.178,0.776-0.178
		c0.294,0,0.546,0.078,0.735,0.228c0.015,0.574-0.138,0.839-0.234,0.949c-0.098,0.11-0.225,0.168-0.374,0.168
		c-0.425,0-0.91-0.45-1.021-1.121C110.075,220.132,110.114,220.117,110.151,220.096z M102.966,225.504
		c-0.027,0-0.053-0.003-0.078-0.009c-0.072-0.212-0.078-0.389-0.016-0.491c0.049-0.078,0.133-0.094,0.195-0.094
		c0.138,0,0.353,0.097,0.449,0.355c-0.137,0.105-0.347,0.239-0.55,0.239H102.966z M103.747,230.086
		c-0.054-0.105-0.145-0.187-0.261-0.224c-0.127-0.038-0.209-0.34-0.295-0.675c0.123-0.195,0.219-0.253,0.258-0.271
		c0.088-0.038,0.158-0.111,0.202-0.201c0.048,0.027,0.096,0.064,0.143,0.116c0.172,0.185,0.29,0.489,0.29,0.762
		C104.083,229.874,103.972,230.036,103.747,230.086z M105.645,220.874c-0.1-0.022-0.207-0.005-0.3,0.049
		c-0.023-0.008-0.086-0.051-0.135-0.171c-0.011-0.028-0.098-0.252-0.002-0.461l0.056,0.015c0.329,0.077,0.531,0.14,0.646,0.243
		c-0.062,0.033-0.119,0.083-0.162,0.145c-0.032,0.049-0.071,0.119-0.099,0.17C105.649,220.868,105.647,220.871,105.645,220.874z
		 M106.358,244.788c-0.12-0.015-0.24,0.028-0.334,0.115c-0.13,0.124-0.178,0.318-0.125,0.494c0.013,0.047,0.041,0.137,0.039,0.204
		c-0.083-0.024-0.101-0.093-0.128-0.279c-0.014-0.102-0.038-0.265-0.128-0.395c0.068-0.072,0.131-0.146,0.194-0.217l0.034-0.041
		c0.15,0.031,0.308-0.027,0.408-0.153c0.012-0.003,0.021-0.004,0.021-0.004C106.363,244.546,106.361,244.684,106.358,244.788z
		 M106.893,230.768c-0.125,0.151-0.361,0.25-0.599,0.25c-0.286,0-0.488-0.12-0.586-0.343h1.244
		C106.938,230.707,106.918,230.737,106.893,230.768z M107.995,218.334c-0.133,0.008-0.222,0.074-0.278,0.117
		c-0.004,0.003-0.01,0.007-0.013,0.01c-0.109-0.152-0.148-0.289-0.109-0.387c0.04-0.095,0.152-0.162,0.268-0.162
		c0.049,0,0.114,0.011,0.147,0.066C108.043,218.035,108.051,218.155,107.995,218.334z M108.518,231.36
		c-0.034,0.042-0.058,0.09-0.074,0.139c-0.062-0.027-0.118-0.066-0.166-0.119c-0.128-0.137-0.201-0.344-0.201-0.567
		c0.001-0.095,0.021-0.503,0.348-0.644c0.01,0.038,0.026,0.075,0.046,0.111C108.64,230.577,108.786,231.007,108.518,231.36z
		 M108.736,233.778l-0.001-0.091v-0.346c0.002,0.001,0.006,0.002,0.008,0.004L108.736,233.778z M109.944,250.7
		c-0.004-0.029-0.008-0.057-0.013-0.083c-0.022-0.148-0.038-0.266-0.031-0.359c0.002,0,0.004,0.002,0.006,0.004
		c0.032,0.021,0.064,0.038,0.097,0.058C110.007,250.473,109.989,250.599,109.944,250.7z M114.515,247.008
		c0.012-0.049,0.024-0.099,0.04-0.151c0.056-0.209,0.131-0.488,0.051-0.715c0.018-0.01,0.036-0.018,0.052-0.024
		c0.181-0.089,0.343-0.169,0.461-0.363c0.208,0.026,0.437,0.12,0.549,0.367c0.138,0.309,0.07,0.776-0.16,1.15
		c-0.247-0.014-0.378-0.059-0.608-0.138C114.794,247.097,114.671,247.053,114.515,247.008z M115.516,254.5
		c-0.081,0.026-0.18-0.012-0.295-0.06c-0.106-0.043-0.18-0.071-0.271-0.073h-0.009c-0.024,0-0.048,0.002-0.072,0.007
		c-0.038-0.174,0.02-0.367,0.131-0.673c0.097-0.266,0.215-0.588,0.215-0.963c0.037-0.01,0.073-0.027,0.106-0.046
		c0.221,0.238,0.424,0.692,0.43,1.164C115.754,254.028,115.725,254.333,115.516,254.5z M129.078,255.868
		c-0.044,0.043-0.078,0.079-0.113,0.105c-0.037-0.062-0.083-0.104-0.122-0.143c-0.018-0.013-0.043-0.037-0.047-0.043
		c0,0,0-0.001,0-0.002c0.058-0.026,0.109-0.064,0.15-0.114c0.031,0.073,0.08,0.139,0.142,0.188
		C129.085,255.861,129.081,255.863,129.078,255.868z"/>
	<path fill="#FFFFFF" d="M145.939,261.5h10.732l3.725-6.354c-0.05-0.106-0.084-0.228-0.083-0.375c0-0.33,0.138-0.687,0.352-0.811
		c0.05,0.089,0.13,0.161,0.227,0.199c0.019,0.007,0.04,0.028,0.059,0.039l2.754-4.698h19.136l6.12,14h10.648
		c-0.015-0.106-0.045-0.227-0.107-0.365c0.008,0.017,0.014-0.172,0.033-0.193c0.079-0.058,0.136,0.559,0.165-0.441h0.267
		c0.016,0,0.037,0.273,0.063,0.305c0.008,0.061,0.031,0.224,0.06,0.276c-0.033,0.091-0.038,0.243-0.016,0.337
		c-0.004,0.004-0.008,0.035-0.013,0.04c-0.005,0.004-0.006,0.038-0.01,0.043h0.557l-7.926-19.893
		c-0.019,0.006-0.031,0.018-0.051,0.021c0.011-0.021,0.022-0.041,0.033-0.06c0,0,0.001-0.001,0.001-0.002L179.093,209.5h-11.637
		L145.939,261.5z M158.7,244.765c0.1-0.039,0.178-0.113,0.227-0.207c0.001,0.002,0.002,0.005,0.002,0.007
		c0.036,0.063,0.054,0.157,0.054,0.266c0,0.214-0.083,0.416-0.169,0.416c-0.03,0-0.07-0.016-0.116-0.043
		c0.004-0.06-0.003-0.121-0.022-0.179c-0.023-0.075-0.066-0.142-0.119-0.193C158.588,244.812,158.633,244.792,158.7,244.765z
		 M156.325,238.375c0.052,0.136,0.094,0.23,0.148,0.309c-0.016,0.038-0.029,0.083-0.035,0.13c-0.071,0.034-0.134,0.056-0.197,0.078
		c-0.044,0.014-0.084,0.029-0.125,0.046c-0.032,0.011-0.062,0.028-0.089,0.048C156.043,238.785,156.142,238.503,156.325,238.375z
		 M151.109,250.945c0.096-0.004,0.175,0.001,0.225,0.01c-0.007,0.013-0.013,0.028-0.019,0.042c-0.11,0-0.21,0.035-0.298,0.102
		C151.05,251.048,151.082,250.997,151.109,250.945z M150.742,251.508c-0.023,0.061-0.042,0.127-0.059,0.2h-0.019
		C150.679,251.643,150.705,251.576,150.742,251.508z M148.92,256.753c-0.02,0.066-0.035,0.118-0.039,0.185
		c-0.003,0.07,0.008,0.142,0.033,0.203c-0.04,0.003-0.084-0.004-0.118-0.015c0.012-0.18,0.027-0.21,0.064-0.281
		c0.018-0.037,0.039-0.077,0.065-0.135h0.008C148.929,256.722,148.925,256.737,148.92,256.753z M151.381,259.003
		c-0.071,0.106-0.161,0.178-0.266,0.215c-0.057-0.106-0.153-0.189-0.272-0.22c-0.205-0.054-0.243-0.271-0.249-0.394
		c-0.01-0.23,0.092-0.503,0.317-0.581l0.058-0.012c0.122-0.031,0.22-0.112,0.277-0.222c0.218,0.096,0.298,0.378,0.298,0.626
		C151.546,258.63,151.485,258.851,151.381,259.003z M152.015,252.748c-0.023,0.061-0.058,0.103-0.099,0.131
		c-0.016-0.185-0.135-0.342-0.303-0.397l-0.002-0.001c-0.009-0.006-0.017-0.01-0.023-0.016c-0.001-0.001-0.006-0.003-0.006-0.003
		c0.103-0.09,0.232-0.11,0.411-0.088C152.052,252.48,152.063,252.628,152.015,252.748z M152.067,248.607
		c-0.015,0.002-0.026,0.004-0.036,0.004l-0.033-0.002c-0.035-0.032-0.061-0.184-0.072-0.241c-0.012-0.073-0.025-0.147-0.047-0.218
		c0.109-0.04,0.227-0.024,0.336,0.04C152.234,248.518,152.132,248.584,152.067,248.607z M155.319,256.141
		c-0.01-0.076-0.02-0.145-0.034-0.207c0.04,0.007,0.08,0.007,0.12,0.003C155.394,255.989,155.364,256.053,155.319,256.141z
		 M155.51,251.379c-0.11,0.104-0.16,0.242-0.205,0.366c-0.055,0.161-0.08,0.193-0.117,0.199c-0.037-0.082-0.096-0.153-0.172-0.2
		c-0.005-0.065,0.005-0.177,0.009-0.226c0.004-0.028,0.006-0.058,0.008-0.083c0.215,0.02,0.386-0.019,0.521-0.091
		C155.539,251.354,155.525,251.368,155.51,251.379z M157.148,251.368c-0.078,0.071-0.158,0.145-0.207,0.261
		c-0.007,0.017-0.012,0.035-0.018,0.053c-0.05-0.051-0.08-0.105-0.1-0.153c-0.073-0.161-0.226-0.265-0.392-0.265h-0.633
		c-0.063,0-0.123,0.015-0.179,0.042c0.199-0.134,0.31-0.342,0.373-0.517c0.292,0.109,0.477,0.197,0.646,0.275
		c0.171,0.08,0.337,0.157,0.576,0.242C157.196,251.323,157.175,251.346,157.148,251.368z M159.318,253.363
		c-0.046,0.145-0.152,0.321-0.387,0.343c-0.209,0.02-0.374,0.199-0.392,0.423c-0.029,0.374-0.147,0.506-0.225,0.56
		c-0.174-0.038-0.365-0.11-0.427-0.239c-0.097-0.206,0.096-0.61,0.267-0.968c0.132-0.275,0.258-0.539,0.303-0.787
		c0.151,0.021,0.308-0.003,0.454-0.035c0.092-0.02,0.184-0.039,0.29-0.045C159.348,252.787,159.402,253.104,159.318,253.363z
		 M159.647,247.405c-0.011,0.005-0.023,0.011-0.034,0.018c-0.002-0.009-0.004-0.018-0.007-0.029
		c-0.011-0.054-0.031-0.108-0.06-0.157c-0.028-0.041-0.037-0.139,0.012-0.281c0.038-0.104,0.095-0.191,0.148-0.251
		c0.062,0.068,0.142,0.114,0.231,0.132c0.002,0,0.042,0.006,0.043,0.006c0.04,0.008,0.077,0.015,0.119,0.029
		c-0.016,0.201-0.044,0.25-0.071,0.295c-0.031,0.052-0.058,0.105-0.076,0.163c-0.068-0.008-0.138,0-0.207,0.028
		C159.716,247.372,159.677,247.389,159.647,247.405z M160.098,251.827l-0.005,0.03c-0.062-0.139-0.162-0.23-0.281-0.257
		c0.004-0.017,0.006-0.031,0.008-0.043c0.005-0.023,0.006-0.044,0.006-0.066c0.01-0.005,0.019-0.011,0.027-0.016
		c0.091-0.059,0.166-0.148,0.262-0.27c0.109-0.139,0.224-0.282,0.399-0.352c0.165,0.086,0.372,0.229,0.336,0.404
		C160.799,251.536,160.323,251.827,160.098,251.827z M162.664,246.051c-0.055,0.086-0.117,0.178-0.17,0.282
		c-0.18-0.081-0.365-0.214-0.466-0.43c-0.122-0.272-0.072-0.594,0.011-0.848c0.074-0.018,0.144-0.043,0.208-0.067
		c0.142-0.053,0.271-0.063,0.385-0.033c-0.008,0.049-0.007,0.1,0.001,0.15c0.028,0.161,0.133,0.296,0.277,0.353h0.001
		C162.895,245.707,162.791,245.863,162.664,246.051z M195.355,252.913l0.208,0.001c0.062,0,0.122-0.001,0.178-0.005
		c0.023,0.128,0.098,0.238,0.198,0.305c-0.053,0.042-0.098,0.099-0.132,0.163c-0.037-0.028-0.079-0.049-0.128-0.062
		c-0.035-0.01-0.071-0.013-0.106-0.013c-0.077,0-0.152,0.022-0.221,0.069h-0.007c-0.019,0-0.042-0.005-0.059,0
		c-0.021-0.036-0.047-0.066-0.075-0.093c0.022-0.104,0.007-0.216-0.035-0.314c-0.006-0.013-0.013-0.025-0.019-0.037
		C195.202,252.918,195.265,252.913,195.355,252.913z M190.435,255.732c0.15,0.03,0.255,0.102,0.314,0.213
		c0.153,0.28,0.053,0.817-0.136,1.271C190.428,256.901,190.358,256.236,190.435,255.732z M189.653,242.482
		c0.004,0.001,0.008,0.004,0.011,0.005c-0.001,0.003-0.002,0.01-0.004,0.015c-0.058,0.172-0.016,0.359,0.102,0.485
		c0,0.016-0.005,0.021-0.009,0.029c-0.016,0.027-0.077,0.068-0.169,0.068c-0.112,0-0.197-0.055-0.243-0.159
		c0.018-0.185,0.114-0.273,0.288-0.422C189.636,242.495,189.644,242.488,189.653,242.482z M188.659,234.923
		c0.5,0.143,0.788,0.547,0.853,0.961c-0.079,0.015-0.142,0.039-0.193,0.058c-0.104,0.037-0.179,0.06-0.286,0.05
		C188.779,235.641,188.59,235.372,188.659,234.923z M187.361,235.428c0.082-0.01,0.136,0.016,0.168,0.127
		c0.016,0.055,0.018,0.118,0.004,0.18c-0.008,0.039-0.011,0.08-0.01,0.12l-0.013-0.005c-0.06-0.017-0.163-0.061-0.198-0.167
		C187.279,235.583,187.319,235.491,187.361,235.428z M187.379,248.198c0.028-0.378,0.055-0.577,0.336-0.654
		c0.01,0.095,0.046,0.184,0.106,0.256c0.036,0.043,0.079,0.08,0.127,0.105c-0.028,0.096-0.081,0.171-0.145,0.264
		c-0.079,0.111-0.171,0.243-0.218,0.429c-0.061,0.014-0.121,0.041-0.172,0.082c-0.01,0.008-0.02,0.019-0.029,0.027
		c-0.024-0.012-0.051-0.024-0.081-0.03C187.355,248.524,187.367,248.357,187.379,248.198z M186.89,245.562
		c0.14,0.043,0.257,0.112,0.362,0.19c0.027,0.308,0.011,0.689-0.166,0.921c-0.096,0.126-0.233,0.207-0.417,0.247
		c-0.073-0.25-0.139-0.566-0.144-0.957C186.718,245.933,186.867,245.765,186.89,245.562z M184.297,226.894
		c0.107,0.211,0.247,0.494,0.589,0.556c0.028,0.061,0.066,0.113,0.114,0.154c-0.016,0.064-0.018,0.13-0.009,0.193
		c-0.058,0.042-0.1,0.09-0.134,0.143c-0.015,0.027-0.028,0.053-0.038,0.081c-0.031,0.083-0.035,0.157-0.04,0.247
		c0,0.029-0.002,0.058-0.004,0.091c-0.009,0.004-0.018,0.005-0.027,0.01c-0.057-0.442-0.261-0.796-0.427-1.091
		c-0.163-0.285-0.274-0.494-0.295-0.704C184.136,226.595,184.188,226.674,184.297,226.894z M169.667,247.592
		c-0.003-0.032-0.006-0.061-0.007-0.091c-0.009-0.116-0.018-0.206-0.027-0.277c0.029-0.007,0.056-0.017,0.083-0.028
		c0.003,0.006,0.007,0.013,0.01,0.021c0.041,0.112,0.08,0.294,0.092,0.438C169.771,247.625,169.718,247.603,169.667,247.592z
		 M170.81,249.106c-0.02,0.087-0.042,0.185-0.065,0.3c-0.334,0.029-0.414-0.161-0.439-0.3c-0.041-0.225,0.049-0.55,0.22-0.681
		c0.063,0.013,0.126,0.01,0.192-0.013C170.904,248.693,170.894,248.736,170.81,249.106z M171.099,242.942
		c-0.04,0.081-0.088,0.172-0.125,0.284c-0.491-0.173-0.669-0.349-0.665-0.642c0.017-0.048,0.05-0.069,0.139-0.115
		c0.052-0.027,0.115-0.062,0.176-0.111c0.082,0.048,0.18,0.066,0.279,0.05l0.081-0.017c0.044-0.011,0.094-0.021,0.132-0.021
		c0.031,0,0.068,0,0.117,0.099C171.24,242.669,171.177,242.792,171.099,242.942z M181.378,249.464
		c-0.238-0.091-0.432-0.224-0.62-0.369c0.103-0.333,0.002-0.617-0.083-0.851c-0.002-0.005-0.004-0.012-0.006-0.016
		c0.094-0.043,0.158-0.104,0.2-0.157c0.054-0.064,0.091-0.141,0.12-0.229c0.333,0.314,0.609,0.716,0.62,1.081
		C181.616,249.119,181.538,249.301,181.378,249.464z M182.352,240.442c-0.027,0.014-0.053,0.03-0.078,0.05
		c-0.086,0.063-0.146,0.159-0.169,0.265c-0.167,0.011-0.264-0.046-0.37-0.133c-0.016-0.168,0.015-0.289,0.06-0.463
		c0.021-0.088,0.019-0.18-0.007-0.263C182.128,240.06,182.316,240.203,182.352,240.442z M181.365,227.089
		c0.031-0.035,0.218-0.076,0.39-0.02c0.002,0.041-0.002,0.076-0.016,0.098c-0.019,0.034-0.064,0.061-0.148,0.086
		c-0.034,0.011-0.067,0.027-0.099,0.044c-0.026-0.078-0.074-0.146-0.136-0.199C181.359,227.094,181.362,227.09,181.365,227.089z
		 M181.25,239.246c-0.023,0.121-0.001,0.241,0.057,0.339c-0.029,0.003-0.055,0.012-0.084,0.023
		c-0.339,0.136-0.665,0.072-0.891-0.182c-0.226-0.256-0.358-0.692-0.355-1.186c0.44-0.213,0.686-0.316,1.184-0.355
		C181.269,238.354,181.309,238.938,181.25,239.246z M179.618,233.381c-0.043-0.17-0.025-0.357,0.055-0.527
		c0.131-0.278,0.368-0.432,0.671-0.432c0.029,0,0.06,0.001,0.09,0.004c0.008,0.036,0.01,0.063,0.011,0.112
		c0.003,0.051,0.006,0.115,0.016,0.205C180.123,232.919,179.849,233.151,179.618,233.381z M179.955,217.156
		c0.435,0,0.49,0.257,0.494,0.412c0.001,0.093-0.024,0.206-0.075,0.297c-0.055-0.037-0.122-0.06-0.192-0.067h-0.015
		c-0.027-0.002-0.051,0-0.074,0.003h-0.001c-0.083,0.011-0.157,0.047-0.217,0.102c-0.035-0.042-0.062-0.091-0.082-0.147
		C179.767,217.678,179.704,217.419,179.955,217.156z M178.161,217.699c0.038-0.088,0.128-0.142,0.219-0.173
		c0.059,0.088,0.147,0.153,0.25,0.182c0.083,0.097,0.062,0.184,0.055,0.216c-0.035,0.156-0.187,0.309-0.388,0.396
		C178.157,218.065,178.106,217.833,178.161,217.699z M177.868,219.239l0.236-0.1c0.003-0.001,0.006-0.002,0.011-0.003
		c0.006,0.004,0.009,0.008,0.014,0.012c0.01,0.008,0.028,0.03,0.057,0.094c0,0.002,0.002,0.003,0.002,0.006
		c-0.06-0.009-0.151-0.009-0.194,0c0.083,0,0.161,0.05,0.196,0.129c0.02,0.043,0.027,0.092,0.02,0.138l-0.342-0.232h-0.001V219.239z
		 M178.148,220.668c0.234-0.167,0.553-0.4,0.481-0.979c-0.006-0.055-0.023-0.19-0.057-0.19h0.005c0.144,0,0.28-0.077,0.361-0.208
		c0.024-0.039,0.049-0.088,0.08-0.146c0.065-0.124,0.104-0.191,0.163-0.216c0.038-0.006,0.066-0.008,0.091-0.008
		c0.167,0,0.248,0.08,0.375,0.22c0.08,0.09,0.175,0.195,0.31,0.27c-0.015,0.065-0.042,0.126-0.072,0.19
		c-0.024,0.05-0.052,0.118-0.065,0.158c-0.034,0.11-0.026,0.226,0.014,0.325c-0.159,0.123-0.292,0.282-0.4,0.479
		c-0.039,0.002-0.079,0.007-0.135,0.016c-0.042,0.005-0.085,0.011-0.132,0.012c-0.183-0.06-0.38,0.015-0.488,0.181
		c-0.064,0.102-0.121,0.22-0.181,0.347c-0.06,0.134-0.119,0.258-0.191,0.354c-0.146,0.01-0.225-0.039-0.351-0.115
		c-0.028-0.017-0.057-0.036-0.087-0.052C177.792,220.929,177.924,220.833,178.148,220.668z M178.42,232.62
		c-0.03,0.088-0.059,0.17-0.083,0.254h-0.413c-0.012-0.023-0.024-0.047-0.039-0.072c-0.027-0.047-0.059-0.107-0.071-0.152
		c-0.034-0.127-0.125-0.227-0.234-0.283c0.009-0.029,0.02-0.06,0.031-0.091l0.016-0.048c0.159-0.473,0.247-0.596,0.561-0.583
		c0.019,0.085,0.06,0.162,0.119,0.223c0.051,0.058,0.119,0.099,0.192,0.121C178.571,232.126,178.532,232.302,178.42,232.62z
		 M176.514,225.027l0.222-0.005c0.075,0,0.183,0.003,0.245,0.026c0.151,0.062,0.321,0.027,0.441-0.09
		c0.227-0.218,0.396-0.25,0.477-0.25c0.25,0,0.382,0.235,0.382,0.432c0,0.254-0.179,0.359-0.534,0.359h-0.001
		c-0.205,0-0.363,0.16-0.424,0.354c-0.181,0.568-0.347,0.876-0.768,0.905C176.074,225.941,176.062,225.426,176.514,225.027z
		 M176.477,226.785v0.457l-0.035-0.461C176.455,226.781,176.466,226.784,176.477,226.785z M175.114,213.168
		c0.073,0,0.205,0.016,0.274,0.112c0.107,0.15,0.051,0.438,0.009,0.596c-0.017,0.072-0.035,0.088-0.199,0.155
		c-0.099,0.04-0.226,0.09-0.358,0.192c-0.342-0.169-0.524-0.37-0.49-0.55C174.393,213.424,174.78,213.168,175.114,213.168z
		 M174.331,217.976c0.052,0.08,0.06,0.19,0.038,0.49c-0.006,0.073-0.012,0.152-0.016,0.239c-0.046,0.016-0.126,0.027-0.176,0.034
		c-0.065,0.01-0.132,0.02-0.198,0.037c-0.127-0.124-0.104-0.234-0.029-0.521c0.038-0.144,0.085-0.313,0.101-0.51
		c0.067,0.03,0.138,0.044,0.209,0.038C174.269,217.851,174.293,217.917,174.331,217.976z M173.954,216.458
		c0.017,0.023,0.038,0.056,0.063,0.098c0.036,0.062,0.08,0.135,0.14,0.202c-0.065-0.009-0.138-0.015-0.22-0.022
		c-0.026-0.002-0.05-0.003-0.076-0.004C173.88,216.636,173.915,216.553,173.954,216.458z M179.352,239.5h-12.154l6.077-17.003
		L179.352,239.5z M167.891,226.937c0.039,0.083,0.102,0.152,0.177,0.198c0.569,0.335,0.518,0.552,0.417,0.99
		c-0.015,0.067-0.031,0.134-0.045,0.203c-0.091,0.064-0.205-0.038-0.342-0.147c-0.119-0.097-0.254-0.205-0.419-0.275
		c-0.05-0.022-0.105-0.032-0.16-0.032c-0.083,0-0.154,0.01-0.239,0.026c-0.066,0.012-0.144,0.021-0.186,0.017
		c-0.027-0.047-0.067-0.135-0.094-0.192c-0.067-0.145-0.102-0.22-0.15-0.282c-0.022-0.029-0.045-0.053-0.073-0.076
		c-0.225-0.181-0.442-0.284-0.618-0.366c-0.251-0.117-0.302-0.157-0.324-0.261c-0.056-0.265,0.006-0.526,0.18-0.757
		c0.311-0.412,0.964-0.568,1.373-0.32c0.138,0.083,0.23,0.409,0.31,0.704C167.754,226.561,167.81,226.764,167.891,226.937z"/>
	<path fill="#FFFFFF" d="M207.031,221.984c-0.012,0.008-0.019,0.023-0.031,0.032V263.5h10v-19h12.214
		c-0.065-0.062-0.121-0.127-0.153-0.211c0.144-0.46,0.586-0.485,0.677-0.485c0.255,0,0.521,0.124,0.544,0.399
		c0.019,0.198-0.024,0.224-0.199,0.324c-0.01,0.005-0.022,0.014-0.032,0.021c0.25,0.019,0.555,0.033,0.922,0.012
		c0.753-0.043,1.658-0.154,2.715-0.455c1.056-0.301,2.188-0.723,3.394-1.327c1.206-0.603,2.37-1.449,3.491-2.57
		c3.491-3.363,5.237-8.074,5.237-14.151c0-3.104-0.517-5.728-1.552-7.884c-1.034-2.154-2.317-3.898-3.846-5.234
		c-1.531-1.336-3.201-2.117-5.01-2.722c-1.81-0.603-3.491-0.717-5.043-0.717h-10.698c0.046,0.036,0.2,0.077,0.251,0.098
		c-0.014,0.044,0.088,0.093,0.088,0.141v0.046c0,0.047-0.263,0.108-0.317,0.16c-0.047,0.044-0.135,0.074-0.169,0.092
		c-0.032-0.111-0.128-0.205-0.223-0.265c-0.002-0.007-0.018-0.013-0.02-0.021c0.02-0.015,0.035-0.031,0.055-0.045
		c0.035-0.026,0.077-0.06,0.114-0.089c0.039-0.033,0.057-0.077,0.083-0.118h-2.173c0.093,0.28,0.104,0.55,0.017,0.727
		c-0.076,0.154-0.222,0.24-0.447,0.265c-0.241-0.142-0.359-0.555-0.303-0.856c0.011-0.061,0.047-0.089,0.069-0.135H207v12.446
		C207.01,221.961,207.021,221.969,207.031,221.984z M218.475,240.306c-0.016-0.053-0.017-0.109,0.009-0.161
		c0.068-0.13,0.277-0.164,0.36-0.011C218.836,240.23,218.767,240.317,218.475,240.306z M219.331,238.101
		c-0.05-0.001-0.088-0.018-0.146-0.045c-0.032-0.016-0.068-0.032-0.108-0.047c0.017-0.091,0.053-0.171,0.108-0.236
		c0.054-0.062,0.123-0.092,0.188-0.081c-0.04,0.088-0.051,0.189-0.043,0.315C219.333,238.045,219.334,238.073,219.331,238.101z
		 M235.84,238.027c-0.131,0.505-0.377,0.719-0.825,0.719h-0.001c-0.123-0.007-0.227,0.046-0.31,0.133
		c-0.104,0.11-0.142,0.252-0.177,0.378c-0.009,0.033-0.03,0.11-0.05,0.152c0.116-0.942,0.684-1.961,1.029-1.961
		c0.166,0,0.295,0.29,0.367,0.492C235.857,237.969,235.847,237.999,235.84,238.027z M240.015,233.514
		c-0.035,0.037-0.065,0.078-0.087,0.124c-0.17-0.104-0.335-0.312-0.337-0.461c0-0.021,0-0.058,0.061-0.096
		c0.049-0.035,0.14-0.07,0.307-0.085c0.009,0.011,0.016,0.023,0.024,0.034C240.049,233.397,240.012,233.514,240.015,233.514z
		 M240.058,231.256v-0.002c0.013-0.087,0.095-0.162,0.153-0.166C240.176,231.143,240.125,231.194,240.058,231.256z M240.512,219.821
		l-0.015-0.372c0.004-0.031,0.006-0.062,0.006-0.089h0.009V219.821z M243.623,225.954c0.005,0.004,0.021,0.023,0.033,0.068
		c-0.059-0.001-0.127,0.013-0.187,0.041C243.523,225.998,243.584,225.954,243.623,225.954z M243.258,218.955
		c0.014,0.08-0.081,0.179-0.248,0.259c-0.023-0.013-0.049-0.027-0.073-0.037c-0.072-0.265-0.054-0.399-0.026-0.439
		c0.003-0.007,0.013-0.018,0.049-0.018C243.069,218.72,243.24,218.839,243.258,218.955z M242.668,217.249
		c0.038-0.075,0.137-0.13,0.235-0.13c0.022,0,0.083,0.002,0.111,0.039c0.051,0.062,0.075,0.175,0.065,0.317
		c-0.109,0.088-0.21,0.145-0.388,0.126C242.628,217.465,242.621,217.344,242.668,217.249z M242.652,231.416
		c0.033,0.023,0.069,0.051,0.113,0.077c-0.02,0.051-0.032,0.107-0.033,0.161c-0.041,0-0.08,0.007-0.119,0.018
		c-0.027-0.083-0.031-0.186-0.011-0.292C242.618,231.389,242.633,231.401,242.652,231.416z M241.444,229.998
		c0.044,0.107,0.127,0.192,0.229,0.242c-0.055,0.171-0.011,0.364,0.117,0.488c0.019,0.02,0.026,0.035,0.026,0.036
		c-0.018,0.049-0.132,0.145-0.314,0.145c-0.047-0.204-0.145-0.352-0.226-0.473c-0.06-0.09-0.111-0.168-0.142-0.257
		C241.236,230.062,241.305,230.004,241.444,229.998z M240.468,218.902c0.053-0.03,0.112-0.065,0.172-0.102
		c0.003,0.006,0.004,0.01,0.007,0.015c0.018,0.044,0.041,0.088,0.071,0.139c0.048,0.088,0.083,0.15,0.083,0.249
		c-0.047,0.025-0.088,0.056-0.122,0.081c-0.049,0.036-0.079,0.058-0.115,0.069c-0.019-0.018-0.042-0.031-0.062-0.043
		c-0.01-0.115-0.051-0.202-0.094-0.28c-0.018-0.034-0.031-0.054-0.035-0.075C240.405,218.936,240.436,218.918,240.468,218.902z
		 M239.202,227.905c0.186,0.222,0.404,0.358,0.661,0.416c0.049,0.411,0.165,0.631,0.355,0.993l0.033,0.063
		c-0.006,0.083,0.007,0.157,0.042,0.228c-0.035,0.029-0.068,0.064-0.094,0.104c-0.107,0.164-0.492,0.699-0.985,0.699
		c-0.196,0-0.382-0.081-0.573-0.25c-0.064-0.059-0.092-0.161-0.128-0.321c-0.042-0.179-0.097-0.409-0.272-0.585
		C238.444,228.686,238.817,228.28,239.202,227.905z M236.555,219.166c0.037,0,0.175,0.021,0.456,0.277
		c0.14,0.127,0.377,0.124,0.537,0.025c0.112-0.068,0.186-0.109,0.319-0.104c0.259,0.404,0.098,0.743-0.357,1.333
		c-0.049,0.063-0.095,0.128-0.14,0.189c-0.524-0.168-0.911-1.017-0.885-1.532C236.488,219.31,236.498,219.166,236.555,219.166z
		 M233.784,214.405c0.155,0.037,0.249,0.14,0.316,0.348c-0.042,0.052-0.073,0.107-0.1,0.155c-0.08,0.138-0.1,0.145-0.156,0.145
		c-0.024,0-0.049-0.003-0.058-0.003c-0.012-0.003-0.024-0.008-0.037-0.01l-0.025-0.054
		C233.554,214.648,233.539,214.621,233.784,214.405z M228.994,215.001c0.067-0.085,0.173-0.104,0.247-0.104
		c0.217,0,0.434,0.137,0.505,0.321c0.083,0.209-0.038,0.433-0.179,0.601c-0.371,0.015-0.575-0.109-0.625-0.372
		C228.907,215.249,228.925,215.09,228.994,215.001z M218.016,215.787c0.114,0,0.248,0.027,0.379,0.052l0.087,0.019
		c0.126,0.026,0.254,0.053,0.388,0.053c0.225,0,0.507-0.079,0.698-0.413c0.141,0.088,0.299,0.161,0.492,0.2
		c0.036,0.108,0.054,0.25,0.071,0.387c0.034,0.249,0.077,0.582,0.267,0.785c-0.175,0.002-0.341,0.122-0.401,0.306
		c-0.016,0.043-0.045,0.152-0.088,0.208c-0.01,0.015-0.021,0.114-0.031,0.114h-0.673c-0.053,0-0.115-0.27-0.176-0.36
		c-0.042-0.063-0.092-0.167-0.133-0.25c-0.084-0.165-0.253-0.279-0.427-0.257c-0.32,0.036-0.472-0.099-0.695-0.322
		c-0.044-0.045-0.091-0.096-0.138-0.138C217.724,215.791,217.885,215.787,218.016,215.787z M216.885,232.603
		c0.004-0.033,0.009-0.062,0.011-0.092c0.047-0.008,0.073-0.005,0.105-0.004V218.5h13.295c0.517,0,1.109,0.323,1.778,0.517
		c0.668,0.194,1.293,0.652,1.875,1.148c0.582,0.496,1.066,1.264,1.454,2.19c0.388,0.927,0.582,2.173,0.582,3.681
		c0,2.026-0.249,3.635-0.744,4.798c-0.496,1.163-1.078,2.066-1.745,2.69c-0.669,0.625-1.369,0.785-2.101,0.957
		c-0.734,0.173-1.336,0.019-1.81,0.019H217v-1.768c-0.038-0.026-0.077-0.05-0.122-0.064
		C216.88,232.647,216.885,232.622,216.885,232.603z M214.29,257.73c-0.036,0.034-0.075,0.081-0.121,0.141
		c-0.008-0.033-0.023-0.064-0.04-0.096c0.042-0.03,0.116-0.061,0.239-0.108c0,0,0.008-0.002,0.015-0.004
		C214.351,257.681,214.319,257.704,214.29,257.73z M214.945,257.833c-0.068-0.114-0.18-0.193-0.305-0.212
		c-0.02-0.002-0.042-0.004-0.062-0.004c-0.042,0-0.083,0.007-0.121,0.018c0.147-0.076,0.244-0.237,0.245-0.415
		c0.001-0.312,0.057-0.544,0.156-0.657c0.043-0.045,0.089-0.068,0.148-0.068c0.158,0,0.396,0.177,0.501,0.462
		c0.138,0.367-0.01,0.66-0.181,0.852l-0.055,0.004c-0.073,0.007-0.138,0.011-0.189,0.02
		C215.003,257.845,214.928,257.84,214.945,257.833z M214.509,240.188c0.143,0.037,0.32,0.019,0.475-0.019
		c0.015,0.042,0.039,0.11,0.061,0.162c0.052,0.133,0.106,0.269,0.092,0.434c-0.044,0.012-0.085,0.032-0.123,0.056
		c-0.08-0.07-0.179-0.109-0.281-0.109c-0.055,0-0.112,0.012-0.165,0.036l-0.092,0.042
		C214.408,240.615,214.433,240.445,214.509,240.188z M215.692,259.249c-0.016,0.059-0.031,0.122-0.044,0.193
		c-0.118,0.011-0.227,0.079-0.305,0.178c-0.127-0.102-0.191-0.279-0.166-0.479c0.008-0.062,0.061-0.37,0.348-0.427
		c0.002,0,0.004,0,0.006-0.001c0.005,0,0.009,0,0.014,0c0.062,0.058,0.131,0.104,0.198,0.138
		C215.752,259.002,215.725,259.112,215.692,259.249z M216.309,242.483c0.013-0.023,0.036-0.062,0.133-0.07
		c0.011,0.04,0.021,0.096,0.021,0.163c0,0.065-0.008,0.119-0.018,0.158h-0.144C216.273,242.625,216.28,242.532,216.309,242.483z
		 M215.374,213.303c0.193-0.219,0.465-0.226,0.681-0.024c0.008,0.085-0.011,0.133-0.044,0.209c-0.026,0.062-0.059,0.136-0.073,0.232
		c-0.152,0.017-0.305,0.044-0.409,0.073c-0.098,0.026-0.184,0.086-0.242,0.168c-0.046-0.02-0.1-0.041-0.159-0.053
		C215.153,213.668,215.24,213.458,215.374,213.303z M215.167,230.778c-0.003,0.163-0.008,0.331,0.004,0.501
		c-0.084-0.016-0.172-0.032-0.266-0.051c-0.374-0.07-0.8-0.152-1.111-0.152c-0.015,0-0.027,0-0.04,0
		c0.018-0.135,0.078-0.307,0.204-0.505c0.199-0.308,0.591-0.681,1.057-0.765C215.173,230.054,215.176,230.348,215.167,230.778z
		 M213.958,227.002c0.052,0.095,0.133,0.17,0.238,0.206c0.067,0.023,0.172,0.084,0.303,0.234c0.049,0.361-0.035,0.66-0.147,1.06
		l-0.017,0.063c-0.032,0.032-0.058,0.07-0.081,0.11c-0.162-0.023-0.345-0.083-0.481-0.226c-0.136-0.146-0.21-0.361-0.21-0.606
		C213.564,227.5,213.719,227.125,213.958,227.002z M212.255,212.555l0.013-0.047h0.243c0.092,0.155,0.121,0.388,0.067,0.593
		c-0.023,0.08-0.072,0.213-0.181,0.266c-0.1-0.028-0.168-0.072-0.203-0.132C212.11,213.083,212.189,212.795,212.255,212.555z
		 M212.505,218.819v0.237c-0.011,0.001-0.021,0.003-0.031,0.006c-0.045,0.006-0.078,0.014-0.105,0.014h-0.001
		c-0.011-0.004-0.033-0.021-0.058-0.041c0.004-0.059,0.016-0.118,0.047-0.152C212.385,218.85,212.436,218.828,212.505,218.819z
		 M212.324,256.197c0.21,0.15,0.327,0.448,0.378,0.959c-0.119,0.098-0.228,0.15-0.319,0.15c-0.175,0-0.248-0.204-0.27-0.292
		C212.045,256.762,212.102,256.413,212.324,256.197z M209.909,212.894c0.147-0.178,0.502-0.042,0.589,0.192
		c0.074,0.204-0.052,0.399-0.163,0.523c-0.027,0.002-0.052,0.003-0.077,0.003h-0.001c-0.186,0-0.303-0.065-0.451-0.152
		C209.788,213.259,209.801,213.027,209.909,212.894z M209.807,255.171c0.067,0.061,0.136,0.125,0.218,0.183
		c-0.014,0.038-0.022,0.079-0.027,0.12c-0.086-0.017-0.175-0.004-0.255,0.033c-0.024-0.104-0.04-0.222-0.053-0.333
		c-0.006-0.042-0.011-0.083-0.016-0.119C209.719,255.091,209.762,255.13,209.807,255.171z M209.396,254.152
		c0.016,0.001,0.03,0.007,0.062,0.027c-0.021,0.082-0.047,0.157-0.075,0.228c-0.011,0.028-0.021,0.06-0.025,0.088
		c-0.026-0.009-0.053-0.016-0.08-0.019C209.271,254.388,209.339,254.238,209.396,254.152z M209.077,252.366
		c-0.013,0.006-0.028,0.012-0.044,0.018l-0.107-0.448L209.077,252.366z M208.722,241.215c0.011,0.071,0.035,0.137,0.071,0.198
		c0.014,0.022,0.029,0.046,0.046,0.068c-0.006,0.003-0.013,0.008-0.017,0.011c-0.037,0.03-0.066,0.068-0.092,0.107
		c-0.026-0.019-0.051-0.049-0.089-0.097c-0.014-0.015-0.029-0.032-0.042-0.049C208.631,241.349,208.672,241.272,208.722,241.215z
		 M208.239,210.284c0.134,0.002,0.255,0.062,0.301,0.161c0.018,0.042,0.021,0.083,0.013,0.122c-0.052-0.011-0.104-0.02-0.154-0.024
		c-0.1-0.012-0.199,0.016-0.281,0.073C208.144,210.482,208.19,210.35,208.239,210.284z M207.14,261.147
		c0.041-0.003,0.083-0.011,0.122-0.024c0.011,0.066,0,0.154-0.026,0.308c-0.002,0.018-0.006,0.038-0.009,0.058
		c-0.06,0.027-0.111,0.066-0.155,0.117C207.056,261.5,207.094,261.286,207.14,261.147z"/>
	<path fill="#FFFFFF" d="M253,219.25c0.009,0.01,0.018,0.019,0.03,0.029c-0.007,0.013-0.019,0.031-0.03,0.047v25.231
		c0.048-0.045,0.093-0.093,0.155-0.124l0.151,0.077c0.31,0.151,0.445,0.218,0.672,0.432c-0.022,0.156-0.088,0.27-0.167,0.409
		c-0.087,0.148-0.182,0.314-0.221,0.545c-0.236,0.077-0.438,0.069-0.589-0.014v14.913c0.093-0.146,0.225-0.238,0.38-0.238
		c0.125,0,0.268,0.057,0.412,0.166c-0.06,0.116-0.087,0.253-0.09,0.395l29.573-1.693c-0.01-0.124-0.018-0.258-0.025-0.412
		l-0.016-0.301c-0.007-0.133-0.087-0.251-0.188-0.334c-0.098-0.08-0.245-0.108-0.369-0.08c-0.18,0.038-0.269,0.034-0.389-0.02
		c-0.183-0.177-0.361-0.469-0.219-0.881c0.131-0.377,0.484-0.683,0.785-0.683c0.183,0,0.319,0.127,0.403,0.378
		c0.038,0.116,0.118,0.21,0.22,0.264c0.104,0.053,0.226,0.059,0.333,0.019c0.379-0.145,0.674-0.074,0.866,0.222
		c0.209,0.32,0.276,0.867,0.172,1.391c-0.024,0.121,0.005,0.243,0.067,0.345l0.084-0.005V249.5h-22v-11h8.775
		c-0.009-0.192-0.022-0.308-0.042-0.427c0.002,0,0.007,0.002,0.01,0.003c0.164,0.067,0.342,0.02,0.46-0.107
		c0.071-0.006,0.091,0.017,0.098,0.023c0.007,0.01,0.031,0.051,0.031,0.144c0,0.109-0.04,0.247-0.101,0.364H284v-10h-21v-9h22v-10
		h-32V219.25z M269.319,257.142c0.081,0,0.119,0.108,0.139,0.219c-0.163,0.003-0.338,0.004-0.512-0.018
		C269.077,257.224,269.22,257.142,269.319,257.142z M267.927,250.058c0.026-0.043,0.054-0.089,0.081-0.137
		c0.133,0.055,0.26,0.073,0.369,0.083c-0.065,0.083-0.128,0.168-0.176,0.271c-0.089-0.035-0.171-0.051-0.252-0.051
		c-0.045,0-0.087,0.004-0.126,0.013C267.849,250.185,267.886,250.126,267.927,250.058z M266.798,257.082
		c0.061,0.27,0.235,0.416,0.371,0.531c0.076,0.064,0.134,0.115,0.173,0.172c-0.148,0.072-0.261,0.148-0.352,0.208
		c-0.146,0.097-0.208,0.134-0.289,0.134c-0.08,0-0.189-0.04-0.33-0.12C266.347,257.323,266.399,257.175,266.798,257.082z
		 M263.683,254.477v0.461l-0.012-0.462C263.675,254.477,263.679,254.477,263.683,254.477z M282.7,229.639
		c0.042-0.071,0.063-0.153,0.066-0.237c0-0.021,0-0.04-0.003-0.063c0.02,0.004,0.043,0.007,0.067,0.009
		c0.044,0.006,0.089,0.01,0.13,0.011c0.055,0.153,0.112,0.307,0.177,0.457c-0.142,0.088-0.277,0.133-0.467,0.068
		C282.69,229.81,282.699,229.729,282.7,229.639z M282.321,231.073c0.142,0.202,0.255,0.44,0.277,0.603
		c-0.062-0.007-0.099-0.04-0.174-0.122c-0.043-0.045-0.092-0.098-0.154-0.145C282.264,231.274,282.286,231.171,282.321,231.073z
		 M281.276,235.352c0.128,0.052,0.234,0.148,0.289,0.266c0.044,0.097,0.052,0.197,0.022,0.299c-0.04,0.152-0.006,0.319,0.093,0.438
		c0.307,0.364,0.389,0.464,0.378,1.08c-0.218,0.203-0.608,0.38-0.887,0.3c0.051-0.303,0.02-0.58-0.013-0.798
		c-0.013-0.096-0.055-0.179-0.114-0.243c0.029-0.082,0.037-0.171,0.02-0.259C280.965,235.911,280.969,235.618,281.276,235.352z
		 M279.522,229.827c0.129,0.14,0.13,0.218,0.132,0.29c0.001,0.074,0.019,0.148,0.052,0.211c-0.023,0.002-0.049,0.004-0.083,0.004
		l-0.134-0.004h-0.009c-0.006-0.083-0.018-0.162-0.031-0.242C279.421,229.916,279.414,229.876,279.522,229.827z M278.417,230.345
		c0.12,0.003,0.154,0.045,0.165,0.06c0.019,0.023,0.034,0.062,0.042,0.109c0.006,0.023,0.01,0.044,0.017,0.066
		c0,0.003,0,0.007-0.002,0.01c-0.019,0.009-0.038,0.02-0.057,0.032c-0.181-0.09-0.385-0.274-0.41-0.342
		C278.241,230.328,278.326,230.354,278.417,230.345z M273.289,237.155c0.07-0.187,0.306-0.317,0.575-0.317
		c0.053,0,0.107,0.006,0.157,0.015c0.11,0.235,0.174,0.566,0.086,0.743c-0.189-0.063-0.364-0.04-0.538-0.002
		c-0.048,0.01-0.102,0.022-0.156,0.031C273.318,237.509,273.222,237.336,273.289,237.155z M266.985,228.999
		c0.289-0.056,0.513,0.051,0.629,0.298c0.121,0.26,0.106,0.602-0.03,0.841c-0.377,0.105-0.654-0.027-0.759-0.358
		C266.737,229.5,266.805,229.174,266.985,228.999z M268.677,215.703l-0.048-0.441l0.109,0.441H268.677z M284.441,212.513
		c0.253,0.026,0.356,0.164,0.413,0.271c0.153,0.286,0.138,0.729-0.03,1.083c-0.093,0.031-0.113,0.008-0.19-0.009
		c-0.1-0.024-0.201-0.045-0.343-0.045h-0.025C284.047,213.345,284.104,212.9,284.441,212.513z M283.833,214.885
		c0.006,0.086,0.015,0.171,0.021,0.262c0.048,0.599,0.058,0.896-0.296,1.211c-0.226-0.032-0.391-0.118-0.499-0.26
		c-0.175-0.227-0.192-0.595-0.168-0.902c0.098-0.056,0.181-0.112,0.263-0.17C283.399,214.859,283.556,214.804,283.833,214.885z
		 M282.429,212.223c0.046-0.111,0.085-0.225,0.079-0.383c0.063-0.031,0.128-0.049,0.191-0.05c0.167-0.003,0.316-0.109,0.383-0.268
		c0.046,0.044,0.109,0.134,0.143,0.183c0.009,0.012,0.017,0.023,0.025,0.036c-0.078,0.132-0.088,0.304-0.019,0.45
		c0.011,0.026,0.023,0.056,0.034,0.082c-0.06,0.057-0.104,0.132-0.128,0.218c0,0.002,0,0.004-0.004,0.009
		c0,0-0.006,0.001-0.008,0.002V212.5c-0.097,0.004-0.181,0.031-0.246,0.084c-0.055-0.162-0.192-0.282-0.359-0.302
		c-0.033-0.003-0.066-0.009-0.104-0.021C282.417,212.248,282.425,212.237,282.429,212.223z M279.459,215.351
		c0.048,0.031,0.101,0.051,0.157,0.06c0.029,0.101,0.091,0.188,0.177,0.247c0.031,0.023,0.066,0.04,0.104,0.052
		c-0.046,0.069-0.094,0.148-0.119,0.241c-0.238,0.018-0.321-0.071-0.343-0.098c-0.083-0.102-0.097-0.286-0.089-0.466
		C279.387,215.38,279.425,215.368,279.459,215.351z M274.887,214.105c0.017,0.054,0.043,0.108,0.08,0.164
		c0.01,0.016,0.022,0.035,0.025,0.042c0.058,0.17,0.207,0.29,0.379,0.301c0.219,0.016,0.384,0.099,0.49,0.248
		c0.085,0.122,0.136,0.292,0.146,0.494c0.012,0.211,0.166,0.364,0.361,0.404c0.194,0.041,0.401-0.089,0.485-0.28
		c0.098-0.225,0.176-0.385,0.292-0.48c0.123,0.173,0.156,0.448,0.189,0.821c0.007,0.09,0.015,0.176,0.027,0.253
		c-0.285,0.25-0.807,0.438-1.065,0.501c-0.009-0.035-0.006-0.112-0.005-0.157c0.002-0.078,0.005-0.159-0.001-0.245
		c-0.008-0.128-0.064-0.245-0.155-0.326c-0.08-0.069-0.177-0.107-0.276-0.107c-0.017,0-0.035,0.001-0.053,0.002
		c-0.573,0.078-0.735-0.177-0.929-1.118c-0.037-0.177-0.075-0.363-0.127-0.546C274.791,214.092,274.838,214.101,274.887,214.105z
		 M273.913,209.512c0.044,0.02,0.089,0.031,0.136,0.033c0.002,0.033-0.003,0.068-0.018,0.104c-0.049,0.117-0.184,0.202-0.32,0.205
		c-0.029-0.104-0.059-0.232-0.061-0.34C273.734,209.543,273.826,209.542,273.913,209.512z M272.393,217.509
		c0.11-0.135,0.33-0.169,0.544-0.082c0.04,0.226,0.011,0.34-0.036,0.517c-0.017,0.068-0.037,0.145-0.054,0.235
		c-0.078-0.035-0.155-0.062-0.23-0.087c-0.124-0.042-0.252-0.087-0.326-0.156C272.277,217.758,272.312,217.608,272.393,217.509z
		 M268.403,211.919c0.091-0.155,0.19-0.419,0.235-0.419h0.18c0.17,0,0.322-0.209,0.391-0.373c0.143-0.326,0.429-0.548,0.637-0.548
		c0.138,0,0.188,0.047,0.203,0.072c0.042,0.059,0.117,0.231-0.005,0.662c-0.047,0.178,0.008,0.361,0.139,0.479
		c0.036,0.033,0.075,0.062,0.123,0.103c0.127,0.104,0.245,0.202,0.313,0.33c-0.006,0.067-0.048,0.196-0.079,0.285
		c-0.033,0.1-0.08,0.453-0.095,0.548c-0.014,0.083-0.006,0.441,0.02,0.441h-0.017c-0.283,0-0.719-0.391-1.101-0.562
		c-0.374-0.163-0.727-0.364-1.021-0.4C268.189,212.397,268.209,212.25,268.403,211.919z M267.828,216.748
		c0.065,0.011,0.136,0.023,0.215,0.04c0.012,0.229-0.084,0.322-0.319,0.425c0.012-0.168,0-0.336-0.029-0.489
		C267.738,216.731,267.783,216.739,267.828,216.748z M265.302,214.947c0.008-0.015,0.019-0.03,0.028-0.046
		c0.101,0.039,0.199,0.066,0.306,0.066c0.247,0,0.426-0.14,0.597-0.274c0.169-0.133,0.226-0.375,0.134-0.576
		c-0.122-0.263-0.128-0.597-0.016-0.831c0.109-0.228,0.309-0.254,0.535-0.108c0.01,0.145,0.035,0.279,0.06,0.401
		c0.076,0.397,0.064,0.438-0.165,0.53c-0.201,0.081-0.316,0.307-0.27,0.528c0.125,0.623,0.194,1.067,0.232,1.488
		c0.007,0.083,0.035,0.161,0.081,0.226c-0.037,0.072-0.055-0.058-0.051,0.025c0.003,0.111,0.005,0.124,0.005,0.124h-0.146
		c-0.026,0-0.006-0.089,0.063-0.222c0.08-0.155,0.072-0.242-0.026-0.386c-0.359-0.537-0.881-0.742-1.403-0.94
		C265.275,214.935,265.286,214.97,265.302,214.947z M265.117,213.531c-0.025,0.009-0.053,0.017-0.08,0.028
		c-0.098,0.031-0.171,0.052-0.279,0.055c-0.017-0.042-0.031-0.084-0.048-0.126c-0.082-0.218-0.167-0.445-0.169-0.686
		c0-0.047-0.007-0.093-0.02-0.137C264.928,212.811,265.114,213.082,265.117,213.531z M263.755,211.934
		c0.066,0.076,0.103,0.171,0.109,0.272c0.003,0.065,0.02,0.129,0.047,0.185c-0.053,0.03-0.101,0.071-0.14,0.122
		c-0.154,0.203-0.467,0.256-0.61,0.088c-0.056-0.066-0.143-0.229-0.118-0.576C263.233,211.741,263.567,211.721,263.755,211.934z
		 M254.566,241.661c-0.169-0.276-0.229-0.632-0.171-0.983c0.047,0.06,0.096,0.123,0.147,0.187c0.281,0.355,0.569,0.72,0.81,1.122
		C255.056,242.103,254.758,241.975,254.566,241.661z M258.194,220.801c0-0.09,0.022-0.16,0.071-0.211
		c0.038-0.042,0.094-0.071,0.163-0.09c0.018,0.043,0.039,0.083,0.067,0.119c0.125,0.16,0.156,0.342,0.134,0.443
		c-0.005,0.02-0.013,0.047-0.028,0.054c-0.08,0.036-0.144,0.097-0.19,0.17C258.291,221.183,258.194,220.982,258.194,220.801z
		 M258.412,217.494c0.008-0.176,0.251-0.408,0.425-0.408c0.041,0,0.059,0.012,0.076,0.032c0.045,0.051,0.083,0.187,0.074,0.416
		c-0.114,0.006-0.224,0.057-0.301,0.145C258.563,217.655,258.405,217.601,258.412,217.494z M260.752,259.898
		c-0.068,0.083-0.123,0.15-0.162,0.228h-1.179c-0.186-0.313-0.213-0.643-0.073-0.934c0.153-0.33,0.491-0.562,0.82-0.562
		c0.343,0,0.532,0.251,0.63,0.481c-0.085,0.068-0.147,0.167-0.169,0.284c-0.032,0.181,0.036,0.357,0.17,0.46
		C260.776,259.871,260.763,259.885,260.752,259.898z M259.475,244.866c0.068-0.008,0.127-0.021,0.181-0.036
		c0.011,0.086,0.034,0.165,0.053,0.235c0.003,0.017,0.008,0.03,0.012,0.044c-0.019-0.015-0.038-0.028-0.058-0.042
		C259.576,245.006,259.517,244.964,259.475,244.866z M259.926,249.211c0.04,0,0.081-0.008,0.12-0.022
		c0.057,0.022,0.102,0.071,0.166,0.14c0.092,0.097,0.211,0.226,0.411,0.272c0.034,0.081,0.035,0.175,0.005,0.271
		c-0.044,0.144-0.141,0.246-0.222,0.282c-0.1-0.003-0.22-0.025-0.272-0.097c-0.05-0.07-0.061-0.201-0.032-0.398
		C260.128,249.485,260.058,249.313,259.926,249.211z M262.192,224.141c0.041,0,0.11,0.051,0.179,0.166
		c-0.034-0.013-0.072-0.019-0.108-0.021c-0.057-0.004-0.131-0.025-0.218-0.058C262.113,224.162,262.166,224.141,262.192,224.141z
		 M261.667,214.395h0.001l-0.001,0.002V214.395z M260.898,213.687c0.053-0.01,0.109-0.021,0.164-0.033
		c0.088,0.098,0.222,0.145,0.364,0.121c0.03,0.044,0.067,0.082,0.109,0.113c-0.033,0.04-0.078,0.083-0.115,0.121
		c-0.08-0.032-0.149-0.068-0.214-0.103c-0.145-0.077-0.303-0.152-0.52-0.152c-0.021,0-0.042,0.001-0.064,0.002
		C260.68,213.729,260.814,213.702,260.898,213.687z M260.173,239.139c0.094,0.311,0.19,0.631,0.403,0.862
		c0.051,0.09,0.137,0.157,0.229,0.197c0.078,0.032,0.167,0.038,0.251,0.02c0.06,0.029,0.123,0.071,0.154,0.135
		c-0.016-0.002-0.031-0.002-0.046-0.002c-0.168,0.007-0.286,0.079-0.367,0.21c-0.028,0.048-0.084,0.146-0.137,0.243
		c-0.457-0.131-0.893,0.101-1.198,0.353c-0.413-0.176-0.572-0.651-0.758-1.335l-0.068-0.254c-0.018-0.057-0.045-0.108-0.08-0.153
		c0.014-0.017,0.028-0.035,0.041-0.053c0.063-0.098,0.121-0.208,0.186-0.33c0.217-0.411,0.361-0.645,0.773-0.645
		c0.083,0,0.174,0.011,0.273,0.032C259.997,238.566,260.079,238.833,260.173,239.139z M259.215,215.774
		c0.018-0.014,0.035-0.029,0.051-0.043c0.049,0.016,0.075,0.053,0.124,0.125c0.06,0.088,0.178,0.252,0.38,0.307
		c-0.013,0.035-0.02,0.07-0.025,0.106c-0.062-0.029-0.133-0.068-0.202-0.107c-0.145-0.083-0.302-0.171-0.47-0.212
		C259.082,215.88,259.126,215.846,259.215,215.774z M258.161,213.53c0.002-0.039,0.003-0.079,0.003-0.119
		c0.076-0.049,0.152-0.108,0.227-0.164c0.217-0.168,0.422-0.322,0.626-0.287c-0.019,0.055-0.037,0.112-0.056,0.172
		c-0.19,0.597-0.326,0.836-0.786,0.81C258.154,213.848,258.158,213.653,258.161,213.53z M257.27,223.899
		c0.077,0.086,0.119,0.227,0.119,0.336c0,0.099-0.029,0.182-0.081,0.239c-0.017,0.017-0.041,0.037-0.073,0.053
		c-0.014-0.037-0.032-0.071-0.055-0.104c-0.015-0.022-0.06-0.109-0.059-0.368C257.183,224.018,257.233,223.964,257.27,223.899z
		 M254.62,214.393c0.083-0.117,0.169-0.236,0.246-0.366c0.001,0.002,0.001,0.005,0.002,0.006c0.011,0.041,0.03,0.089,0.04,0.118
		c0.019,0.043,0.045,0.083,0.074,0.117c-0.2,0.042-0.382,0.141-0.449,0.424c-0.004-0.002-0.008-0.006-0.013-0.008
		c-0.019-0.012-0.042-0.028-0.072-0.042C254.501,214.559,254.559,214.477,254.62,214.393z M255.974,224.995
		c0.09,0,0.183,0.004,0.279,0.017c0.058,0.112,0.13,0.269,0.125,0.393c-0.005,0.228,0.151,0.426,0.363,0.466
		c0.104,0.017,0.209,0.083,0.278,0.171c0.083,0.109,0.121,0.251,0.112,0.426c-0.28,0.057-0.421,0.236-0.473,0.586
		c-0.013,0.082-0.023,0.128-0.037,0.158c-0.111-0.052-0.241-0.055-0.353,0c-0.116,0.054-0.203,0.159-0.239,0.287l-0.026,0.093
		c-0.054,0.197-0.111,0.399-0.21,0.513c-1.01-0.074-1.455-0.83-1.443-1.562C254.362,225.797,254.877,224.995,255.974,224.995z
		 M253.333,234.891c-0.03-0.114-0.063-0.256-0.061-0.368c0.01,0.014,0.023,0.032,0.033,0.052c0.059,0.093,0.152,0.158,0.252,0.188
		C253.531,234.817,253.442,234.883,253.333,234.891z M253.304,231.677c0.152,0.012,0.241,0.036,0.295,0.063
		c-0.023,0.017-0.041,0.035-0.059,0.055c-0.102,0.112-0.142,0.275-0.108,0.427c0.018,0.078,0.051,0.203,0.099,0.317
		c-0.026,0.003-0.062,0.009-0.108,0.009l-0.044-0.003c-0.025-0.127-0.079-0.25-0.129-0.364c-0.058-0.132-0.131-0.297-0.101-0.373
		C253.168,231.755,253.242,231.707,253.304,231.677z"/>
</g>
<g id="Spots" display="none">
</g>
</svg>
