<svg xmlns="http://www.w3.org/2000/svg" width="384" height="550"><g fill="#fff"><path d="M299.693 268.386l-1.672-1.162-1.461-.089-1.356.358-2.688.893-2.863.179-1.432.356s-27.49 4.157-61.643 5.245c-25.297.807-68.704-1.738-68.704-1.738l-2.77.178-1.43-.178-2.681-.357-2.77-.269-.179-.179-1.697-.268-2.859-.447-2.948-.536-2.77-.804-2.591-.715-2.681-.536-2.77-.447-2.591-.536-2.77-.804-2.859-.358-.178-.268-2.234-.089-.536-.069-.268-.248h-.715l-.536-.289-2.502-.412-2.948-.295-3.038-.103-2.859-.04-.715.139h-.804l-2.77.479-.357.24-2.323.818-.447.462h-.447l-.089.283-.447.179-.447.537h-.848v.015l-1.673 1.072-1.864 1.876-1.468 2.501-1.225 2.501-.345 1.43-.615 2.68.19.719v1.43l.531 2.948.579 1.072.378 1.25.547.536.184.804 1.7 2.145 2.056 1.787 1.43.804 2.413 1.162 1.43.357 1.43.089 2.77.179 1.34-.269 3.038-.625 2.323-1.162.357-.446.524-.089.971-1.609v-.893l-.276-.715-.725-1.071v-.356l-.605-.804-1.151-.626-.129-.268-1.583.536-1.149.804-1.245.754-1.334.487h-1.519l-2.948-.499-.447-.501h-.447l-.089-.434-1.698-1.422-1.34-2.275-.357-2.79.178-1.529.447-1.614.536-1.521.626-.984.536-.269.179-.625.625-.179.447-.446 2.323-1.134 2.055-.777h9.918l.179.33 1.34.166 1.072.306 2.68.733 1.28.099 2.62.545v-.181h1.37l.536.447 1.251.358 1.608.491 2.859.38.179.279.983.095 2.68.271 1.876.984.447.536.179.805-.089.536-.983 2.233-.625 2.233-.715 2.502-.715.894-.089.446-.447.268-.089.536-.268.268-.178.804-.447.626-.447 1.429-1.161 2.68-.089.626-.268.179-.536 1.339-1.072 2.591-1.072 2.859-.159.983-.519.448v.358l-.198.357-.233 1.43-.161.089-.17 1.34-1.425 2.413-.087.625-.267.269-.089.536-.268.179-.179.804-.536.893-.357 1.34-.357.625-1.162 2.59-.983 2.77-.625 1.877-.626 1.34-.626.894-.357 1.43-.447.446-.38.894-.467.087v.983l-.693.536-.927 1.25-1.804 2.144-1.17.983-2.059 1.787-1.253.715-2.592.893-1.341.179-3.038.447-1.34-.179-1.341-.537-1.429-.267-.382-.269-1.631-.356v-.178l-.422-.179-.971-.983-1.736-2.055-.064-.357-.434-.536-.865-1.43-.508-2.68v-2.949l.604-1.077 1.14-2.597h.268l-.095-.53.083-.262v-.357l1.435-1.071 2.057-1.788 1.297-.536 1.452-.357 2.781-.804.452-.446.485-1.251.039-.893v-2.77l-1.108-1.162-1.134-.089-2.756.536-2.942.715-2.319 1.162-.445.536-.804.357-.982 1.072-1.25.804-.804 1.161-.268.089-.179.496-1.072 1.389h-.179l-.089.577-1.072 1.359-.358 1.797-.893 2.597.149 2.772.507.626v3.127l.566 2.323.774 2.771.209.267.149.626.79.715 1.422 2.233 1.157 1.161 1.07.715 2.235 1.697.628.09v.268l2.499.805 1.383.178 2.746.716 3.026.178 2.495-.268 1.338-.357 2.768-.715.089-.179.535.05.268-.129h.268l.804-1h.357l.443-.398.979-.31v-.293h.453l.268-.256 1.876-.976.447-.534.714-.267.447-.624 1.072-.893-.041-.536.766-.714v-.357l.577-.268.958-1.162.569-1.072.642-.357.187-.626.808-.625 1.253-2.501.984-2.681 1.162-2.501 1.072-2.591.268-.268.268-.983.804-1.34.089-.625.447-.625.277-1.072.635-.447v-.357l.08-.537.174-1.339.489-1.34.78-1.162.078-.625.62-.804.265-1.341.445-1.162.579-1.071.49-2.234v-.714l1.342-2.412h.179l.357-.403 1.072-2.658 1.161-2.624.983-2.652.983-2.488 1.072-2.763 1.072-2.677 1.072-2.857.804-1.252.893-.626h2.948l2.948.545 2.77.455h2.859s45.982 5.001 69.061 4.34c13.26-.38 17.256-.003 30.423-2.337 20.284-3.595 29.184-4.335 29.184-4.335l4.816-1.278v-.179l1.424-.178.355-.268 1.026-.269 2.658-.804.167-.447.53-.088.533-.715.624-.179 1.288-1.608.395-.982v-1.608l-.306-.18zm-158.169 10.386l-.357.089v-.804l.447.178.089.268-.179.269zM288.732 316.229l-.357.09-.983.178-.804.894-1.34 2.413-.983 1.072-.089.536-.447.626-1.608 2.322-1.251 2.055-.536.357-.179.536-.625.536-.358 1.072-.536.447-.358.894-1.251.893-2.144 1.787-.089.536-.983.536-.983.804-1.162.537-.536.487-1.519.665h-.625l-1.608-.934-.357-.645-.179-1.975.089-1.613.536-1.522.268-.091.715-2.77.893-1.966.357-1.25.268-.179.089-.894.983-2.234 1.072-2.412 1.162-2.502.357-1.339.893-2.234 1.162-2.899.715-2.541h.179l.031-.676.387-.942v-.805l1-2.948v-1.608l-.53-2.591-.265-.089-.088-.537-.893-.714-.089-.357-1.519-1.341-2.144-.804-3.035-.09-1.251.268-2.502.894-.573.536-1.109.357v.445h.074l-2.074 1.162v-.162h-.338l-1.34 1.064-1.25.443-1.966-1.119-2.591-1.587-.893.099-1.519 1.256-.358 1.344-.804 2.681-1.251 2.453-.983 2.365h-.178l-.893 2.55-1.162 2.749-1.161 2.625-.804 2.519-.699 1.514-.014.017-1.519 2.415-.536.269-.178.626-.983.893-.804 1.252-.536.178-.804.894-.536.268-.357.537-.536.088-.369.447-.638.269v.179l-.525.088-.218.268-1.985 1.08-1.449.275h-2.502l-.447-.365-.983-1.076-.178-.672 1.072-2.525 1.34-2.798.089-.565h.786v-.77l.278-.536.54-1.401.809-2.293h.373v-.773l.439-.854.618-2.372h-.057v-1h.503l.089-.343.268.074.178-.73h.268l.089-.96.893-2.892.625-2.831.358-.835.774-2.607.955-2.695v-1.429l-.417-.089-1.37-.894-.685.179-2.442.536-1.444 1.697-.365 1.162-.228.446-.049.626v1.429l-.401 1.609-.96 1.429-.48 1.34-.642 2.501-.902 2.77-.987 2.68-.538.536.133.715-.223.447v.357l-.492.358-.38 1.072-.503.536-1.011 2.144-.818 1.072-2.062 1.072-1.433.268-.359.537-.805.41-.894 1.305h-.243v1h-.293l-.179 1.904.357 2.694-.625 1.392-.715.964-1.876 2.223-.536.085-.536.534-.983.534-.983.804-1.429.626-1.34.267-1.25-.446-.715-1.162-.178-1.519.714-2.859.715-2.502 1.072-2.412.488-.983 1.292-2.68v-2.465h.632l.536-2h.268l.089-.493 1.072-2.615.358-.589.268-1.304h.44600000000000006l.804-1.969.536-2.771.447-.537.804-1.877 1.251-2.591.893-2.591.983-2.681.089-1.429-.179-.269-1.25-.536-1.443-.179-2.604-.176v.179l-.791.125-.344.303h-.447l-1.34 1.947-.268 1.053h-.179l-.178.162-.089.662-.447 2.297-.536.522-.268 1.065-.536.533-.179.803-.625 1.34-.268 1.25-.893 2.144-1.251 2.412-.982 2.681-.983 2.859-.983 2.054-.179 1.072-.447.537-.179.536-.268.179-1.519 2.324-.322.714-.5.179v.357l-.304.447-1.537 2.233-.035.894-.123.086v.447l-1 .179v.356l-.769.805-2.082 1.935-1.993 1.936h-.357l-.179.477-.804.596-.626.119-.625.372-1.429.364-1.251-.264-.983-1.428.179-1.071.536-1.25.268-1.341.447-1.161.268-1.429.357-.804.625-2.502 1.34-2.233.268-.179.447-2.055.714-1.251.983-2.77.804-2.501.536-.447.179-.625.714-1.251.268-1.25.268-.269.179-.804.268-.269.268-.893.268-.269.179-1.072.447-1.25.804-1.43.179-.625.268-.268.447-1.251.179-1.429.357-.983.357-.268.625-1.251.447-1.429-.357-1.251-1.286-.625-1.732-.09v.607h-1.807l-1.608.232-.983.519-.089.303-.268.152-.536.88-.667 2.942-.042.44v.532h-1v.272l-.262.179-.355 1.25-.222 1.43-.424.536-.256.894-.441.447-.533 1.34-.209 1.609-.298.806v.358l-.416.267-.61 1.341-.305.089-.108.893-.456.446-.272.804-.238 1.072-.595.448v.358l-.836 2.322.065.013.024.345-.253.446v.357l-1.765 1.966-.302.536-2.027 1.955-2.027 2.224h-.879v-.159l-.409.179-.964.804-2.358 1.072-1.67-.09-.933-.268-.666-.893v-.356l.947-2.681.161-1.429.616-.983.174-.625.623-.536.284-.446.195-.983v-1.52l.054-.089.946-2.055v-1.071l.466-1.43-.001-.089.535-2.77v-1.429l1-2.77v-2.948l-.534-1.251-1.25-2.68-.849-1.162-2.077-2.145-1.083-.714-2.15-.358-1.253-.446-2.771-.179-2.949.384-.18.116h-.357l-1.787 1.224-.536.165-.701.753-.523.127v-.269h-.563l-.268 1h-.178l-.983.752-.536.062-.715.791-1.966 2.137-1.519 1.962-.536.446-.358.714-.268.089-.089.535-.689.982-.332.09v.447l-.472.536-.325.894-.646 1.072-.557 1.34v.151h-1v1h.269l-.357 1h-.268l-.357 1.471-.983 2.701-.804 2.69-1.072 2.508-.268 2.772-.358 2.681-.536 2.055.178 2.859.268 2.591.536 1.162.179 1.251.447.446.268.983.536.358.268.714.536.536 2.412 1.698.625.083.358.44h1.8760000000000001l.178.275 1.43-.131 2.77.203 1.251-.525 2.233-.5.625-.321h.357l2.234-1.727.536-.149.447-.655.536-.194.536-.455 2.144-2.326 1.787-2.236 1.34-.537 1.608.446 1.34.178 3.038-.268 1.072-.446 2.859-.625.536-.358 2.502-1.608.151-.121-.421 2.175-.178 2.502.089 2.859 1.251 1.697 2.033 2.234.962.089v.523h.847l1.072.497 2.055-.332 2.859-.345 2.323-1.512 2.234-1.158.178-.267.536-.089 1.072-1.071.447-.894.983-.982.625-.179.089.179.626.267.715 1.162.447 1.341 1.787 2.144 1.161.893 1.877.447.178.179.983.09 3.038-.179 2.323-.537.625-.446 1.251-.536.179-.268.536-.089.358-.447.983-.357.447-.447.459-.089 1.71-1.876v-.357l.345-.179 2.361-1.876 2.074-1.966 1.35-.537 1.524.179 1.164.447 2.681.357 1.52-.178 2.859-.269 1.34-.447 2.68-.86.447-.413h.267l-.268.056-.089.31-.714 2.634h-.543v.329l-.534.894-.356 1.787-.044 1.609.201 1.429.726.745 1.172.209h1.519l2.948-.209.447-.417 1.251-2.353 1.072-2.74.983-2.755 1.162-2.673.357-1.247.179-.087.178-1.071.536-.535.089-.625.804-2.413.447-.893.625-1.966 1.34-2.59.089-.894.536-1.34.447-.328.357-.865h.469v-.684l.302-1.072.938-2.59.76-1.162v-.625l.329-.447.201-.983.47-.356v-.447l.901-.715.183-.625 2.057-1.609.984-.357.447-.447 2.502-1.429 1.162-.447 1.43-.268 1.757.179 1.578 1.697v.894l-.596 1.34-1.191 2.948-1.132 2.68-.923 2.413-.998 2.59-.276 1.251-.539.446-.36 1.341-.986 2.502v-.017h-.534l-.376 1.08-1.09 2.6v.357l-.696 2.949-.214.446-.062.626-.344.625-.261 1.34-.086 2.77.18 3.216.269 1.162.626 1.162 1.072 1.058.358.61h.447l.179.462.447.097.178.271.626.181.178.269 1.698-.089 2.948.179.447-.179.715.089 1.251-.596.893-.685h1.151v-.149l.54-.089.315-.268.559-.179.994-1.072 1.346-1.072 1.879-1.251 1.073-1.161 1.966-1.966.715-1.162 1.876-2.234.715-1.118 1.608-2.279h.178l.179-.668.715-1.273 1.429-2.423 1.43-2.596.178-1.254-.714-1.162-1.249-.895zm-79.423 3.215l.268.537h-.179l-.357-.268-.089-.358.357.089zm-2.055 4.2l.268-.358.447-.089-.178.626h-.626l.089-.179zm-43.955 4.377l-.179-.089v-.983l.179-.089.268.626-.268.535zm1.787.09l-.178.268-.536-.357-.089-.446v-.179l.357-.447h.447v1.161zm2.055-2.412h-.357v-.358l.089-.089.268-.089v.536zm.357-20.549l-.625 2.948-.179 2.77-.268.268-.268 1.271-.447 1.093h-.179l-.447 1.855-.983 2.76-.893 1.021-1.161.914-2.412.903-.447.362-.804 1.075-.089.448-.268.09-.09.267-.178 2.859.178.715.715 2.233-.447.894-1.698 2.502-1.072.894-2.144 1.876-.536.09-.178.356-1.787.447-1.072-.179-1.494-.536-1.225-.892v-.446l-.089-.893.089-1.43v-3.215l.064-1.251.255-2.948.128-.179.51-2.501.881-1.965.441-.536.444-2.859.266-.179.089-.447.357-.446.446-1.43.804-1.162.179-.625.447-.625 1.34-2.592.179-.625.804-.983.089-.446 1.519-1.965 1.787-2.234.089-.179 1.519-1.697.983-.715 1.161-.78 1.34-.599h1.787l.089.422.357.154.178.424h.358l.804 1.038.536 1.456.357 2.516-.089.638zm32.966 25.105v-.358l.536.089.089.269h-.625zm3.931-5.718l.089-.893h.179l.268.446v.447l-.268.269h-.357l.089-.269zm-.894 2.502h.626v.626h-.626v-.626zm1.43 6.254l-.625-.089-.357-.894.089-.089.715-.089-.089.268.447.625-.18.268zm20.069-9.113l-.698 1.251-.528.179-.353-.357-.087-.536 1.414-1.52.252.268v.715zm42.469-5.092h.447v.446h-.447v-.446zM138.313 237.721c-.55 1.376-1.273 2.626-2.167 3.75-.894 1.125-1.938 2.098-3.13 2.923-1.193.826-2.5 1.468-3.921 1.927-1.422.459-2.913.688-4.471.688-2.019 0-3.933-.39-5.744-1.17-1.812-.779-3.383-1.846-4.712-3.199-1.331-1.353-2.386-2.924-3.164-4.712-.781-1.789-1.169-3.715-1.169-5.779s.389-3.99 1.169-5.779c.779-1.788 1.834-3.359 3.164-4.712 1.329-1.352 2.9-2.418 4.712-3.198l.093-.034c-.094-.115-.155-.204-.135-.394.053.008.156.064.2.11.015.085.051.16.103.222 1.735-.708 3.56-1.073 5.484-1.073 1.559 0 3.049.229 4.471.688 1.421.458 2.728 1.1 3.921 1.926 1.192.825 2.236 1.812 3.13 2.958.894 1.147 1.617 2.408 2.167 3.784l7.705-7.705c-1.101-1.789-2.408-3.429-3.921-4.918-1.513-1.49-3.188-2.763-5.022-3.819-1.835-1.054-3.807-1.868-5.916-2.441-2.11-.573-4.289-.86-6.535-.86-3.486 0-6.754.665-9.803 1.995-3.05 1.331-5.71 3.143-7.98 5.435-2.27 2.294-4.071 4.965-5.4 8.014-1.331 3.051-1.995 6.318-1.995 9.803 0 3.486.664 6.753 1.995 9.803 1.329 3.051 3.13 5.722 5.4 8.014 2.27 2.294 4.93 4.105 7.98 5.435 2.12.925 4.347 1.521 6.678 1.802l-.02-.084c.449-.06.887-.186 1.225-.644.236-.023.334.035.472.129.131.089.279.171.475.171l.138-.013.112.223c.051.093.096.17.117.267l-.052.129.659.016c2.247 0 4.425-.285 6.535-.86 2.109-.573 4.081-1.387 5.916-2.442 1.834-1.054 3.508-2.315 5.022-3.783 1.513-1.467 2.821-3.097 3.921-4.884l-7.707-7.709zm1.79-25.087l.099.168-.002.001.04.063c.045.09.118.159.207.201l-.066.11-.145-.148-.138-.079-.119-.066c.034-.111.074-.191.124-.25zm-2.526 7.068l.047.13.012.026c-.069-.032-.129-.083-.182-.151l.123-.005zm-6.712-10.512c.118-.048.165-.089.338.004v.455c-.094.037-.159.095-.208.137l-.143.073c-.069-.199-.128-.383-.146-.609l.159-.06zm-1.773 7.629l-.08.082-.078-.051-.117-.082.037-.037.128-.158c.041.049.077.125.11.246zm-.352-2.134l.047.006.069.07c.085.209.078.238.04.411l-.059.318c-.336-.025-.362-.31-.362-.399 0-.164.085-.406.265-.406zm-4.791.364c-.098-.159-.097-.292.002-.452l.046.023.133.075.081.18c-.021.067-.137.164-.262.174zm-.066-7.444c.083 0 .202.026.299.143.133.16.194.428.171.744-.261.17-.551.132-.741-.086-.097-.11-.16-.258-.182-.425l-.033-.123c.144-.162.319-.253.486-.253zm-1.469.119c.026-.035.162-.011.186.046l.02.054-.029.068-.028.066-.192-.029c-.006-.127.027-.184.043-.205zm-6.124 11.211l.005-.022.045.012.11.034c.008.166-.015.285-.066.344-.011.016-.049.059-.165.067.002-.131.036-.282.071-.435zm-4.713 3.589l-.265.177-.001-.02-.012-.148.168-.119.117-.067.05.112.008.017-.065.048zm2.524-13.172l.285-.156.044.113c.099.256.21.536.376.806-.269-.009-.53-.123-.687-.305-.093-.108-.147-.238-.158-.385l.14-.073zm-2.295 8.71c.111-.03.2-.107.255-.205l.052.047c.087.091.138.252.138.431 0 .162-.055.441-.247.544-.051-.091-.133-.165-.234-.203-.101-.038-.178-.186-.174-.338.006-.214.16-.258.21-.276zm-1.655 2.034c.151-.089.467-.178.776-.178.294 0 .546.078.735.228.015.574-.138.839-.234.949-.098.11-.225.168-.374.168-.425 0-.91-.45-1.021-1.121l.118-.046zm-7.185 5.408l-.078-.009c-.072-.212-.078-.389-.016-.491.049-.078.133-.094.195-.094.138 0 .353.097.449.355-.137.105-.347.239-.55.239zm.781 4.582c-.054-.105-.145-.187-.261-.224-.127-.038-.209-.34-.295-.675.123-.195.219-.253.258-.271.088-.038.158-.111.202-.201l.143.116c.172.185.29.489.29.762-.001.281-.112.443-.337.493zm1.898-9.212c-.1-.022-.207-.005-.3.049-.023-.008-.086-.051-.135-.171-.011-.028-.098-.252-.002-.461l.056.015c.329.077.531.14.646.243-.062.033-.119.083-.162.145l-.099.17-.004.01zm.713 23.914c-.12-.015-.24.028-.334.115-.13.124-.178.318-.125.494l.039.204c-.083-.024-.101-.093-.128-.279-.014-.102-.038-.265-.128-.395l.194-.217.034-.041c.15.031.308-.027.408-.153l.021-.004c.024.034.022.172.019.276zm.535-14.02c-.125.151-.361.25-.599.25-.286 0-.488-.12-.586-.343h1.244l-.059.093zm1.102-12.434c-.133.008-.222.074-.278.117l-.013.01c-.109-.152-.148-.289-.109-.387.04-.095.152-.162.268-.162.049 0 .114.011.147.066.033.057.041.177-.015.356zm.523 13.026l-.074.139-.166-.119c-.128-.137-.201-.344-.201-.567.001-.095.021-.503.348-.644l.046.111c.169.297.315.727.047 1.08zm.218 2.418l-.001-.091v-.346l.008.004-.007.433zm1.208 16.922l-.013-.083c-.022-.148-.038-.266-.031-.359l.006.004.097.058c.004.153-.014.279-.059.38zm4.571-3.692l.04-.151c.056-.209.131-.488.051-.715l.052-.024c.181-.089.343-.169.461-.363.208.026.437.12.549.367.138.309.07.776-.16 1.15-.247-.014-.378-.059-.608-.138l-.385-.126zm1.001 7.492c-.081.026-.18-.012-.295-.06-.106-.043-.18-.071-.271-.073h-.009l-.072.007c-.038-.174.02-.367.131-.673.097-.266.215-.588.215-.963l.106-.046c.221.238.424.692.43 1.164.003.172-.026.477-.235.644zm13.562 1.368l-.113.105-.122-.143-.047-.043v-.002l.15-.114c.031.073.08.139.142.188l-.01.009zM145.939 261.5h10.732l3.725-6.354c-.05-.106-.084-.228-.083-.375 0-.33.138-.687.352-.811.05.089.13.161.227.199l.059.039 2.754-4.698h19.136l6.12 14h10.648c-.015-.106-.045-.227-.107-.365l.033-.193c.079-.058.136.559.165-.441h.267l.063.305.06.276c-.033.091-.038.243-.016.337l-.013.04-.01.043h.557l-7.926-19.893-.051.021.033-.06.001-.002-13.572-34.068h-11.637l-21.517 52zm12.761-16.735c.1-.039.178-.113.227-.207l.002.007c.036.063.054.157.054.266 0 .214-.083.416-.169.416l-.116-.043-.022-.179c-.023-.075-.066-.142-.119-.193l.143-.067zm-2.375-6.39c.052.136.094.23.148.309l-.035.13-.197.078-.125.046-.089.048c.016-.201.115-.483.298-.611zm-5.216 12.57l.225.01-.019.042c-.11 0-.21.035-.298.102l.092-.154zm-.367.563l-.059.2h-.019l.078-.2zm-1.822 5.245l-.039.185.033.203-.118-.015c.012-.18.027-.21.064-.281l.065-.135h.008l-.013.043zm2.461 2.25c-.071.106-.161.178-.266.215-.057-.106-.153-.189-.272-.22-.205-.054-.243-.271-.249-.394-.01-.23.092-.503.317-.581l.058-.012c.122-.031.22-.112.277-.222.218.096.298.378.298.626.002.215-.059.436-.163.588zm.634-6.255l-.099.131c-.016-.185-.135-.342-.303-.397l-.002-.001-.023-.016-.006-.003c.103-.09.232-.11.411-.088.059.106.07.254.022.374zm.052-4.141l-.036.004-.033-.002c-.035-.032-.061-.184-.072-.241l-.047-.218c.109-.04.227-.024.336.04.019.328-.083.394-.148.417zm3.252 7.534l-.034-.207.12.003-.086.204zm.191-4.762c-.11.104-.16.242-.205.366-.055.161-.08.193-.117.199-.037-.082-.096-.153-.172-.2l.009-.226.008-.083c.215.02.386-.019.521-.091l-.044.035zm1.638-.011c-.078.071-.158.145-.207.261l-.018.053-.1-.153c-.073-.161-.226-.265-.392-.265h-.633l-.179.042c.199-.134.31-.342.373-.517.292.109.477.197.646.275.171.08.337.157.576.242l-.066.062zm2.17 1.995c-.046.145-.152.321-.387.343-.209.02-.374.199-.392.423-.029.374-.147.506-.225.56-.174-.038-.365-.11-.427-.239-.097-.206.096-.61.267-.968.132-.275.258-.539.303-.787.151.021.308-.003.454-.035l.29-.045c.147.172.201.489.117.748zm.329-5.958l-.034.018-.007-.029-.06-.157c-.028-.041-.037-.139.012-.281.038-.104.095-.191.148-.251.062.068.142.114.231.132l.043.006.119.029c-.016.201-.044.25-.071.295l-.076.163-.207.028-.098.047zm.451 4.422l-.005.03c-.062-.139-.162-.23-.281-.257l.008-.043.006-.066.027-.016c.091-.059.166-.148.262-.27.109-.139.224-.282.399-.352.165.086.372.229.336.404-.051.279-.527.57-.752.57zm2.566-5.776l-.17.282c-.18-.081-.365-.214-.466-.43-.122-.272-.072-.594.011-.848l.208-.067c.142-.053.271-.063.385-.033l.001.15c.028.161.133.296.277.353h.001c-.016.249-.12.405-.247.593zm32.691 6.862l.208.001.178-.005c.023.128.098.238.198.305l-.132.163-.128-.062-.106-.013c-.077 0-.152.022-.221.069h-.066l-.075-.093c.022-.104.007-.216-.035-.314l-.019-.037.198-.014zm-4.92 2.819c.15.03.255.102.314.213.153.28.053.817-.136 1.271-.185-.315-.255-.98-.178-1.484zm-.782-13.25l.011.005-.004.015c-.058.172-.016.359.102.485l-.009.029c-.016.027-.077.068-.169.068-.112 0-.197-.055-.243-.159.018-.185.114-.273.288-.422l.024-.021zm-.994-7.559c.5.143.788.547.853.961l-.193.058c-.104.037-.179.06-.286.05-.254-.351-.443-.62-.374-1.069zm-1.298.505c.082-.01.136.016.168.127l.004.18-.01.12-.013-.005c-.06-.017-.163-.061-.198-.167-.033-.1.007-.192.049-.255zm.018 12.77c.028-.378.055-.577.336-.654.01.095.046.184.106.256l.127.105c-.028.096-.081.171-.145.264-.079.111-.171.243-.218.429l-.172.082-.029.027-.081-.03c.052-.153.064-.32.076-.479zm-.489-2.636c.14.043.257.112.362.19.027.308.011.689-.166.921-.096.126-.233.207-.417.247-.073-.25-.139-.566-.144-.957.193-.03.342-.198.365-.401zm-2.593-18.668c.107.211.247.494.589.556l.114.154-.009.193-.134.143-.038.081-.04.247-.004.091-.027.01c-.057-.442-.261-.796-.427-1.091-.163-.285-.274-.494-.295-.704.11.021.162.1.271.32zm-14.63 20.698l-.007-.091-.027-.277.083-.028.01.021c.041.112.08.294.092.438l-.151-.063zm1.143 1.514l-.065.3c-.334.029-.414-.161-.439-.3-.041-.225.049-.55.22-.681l.192-.013c.186.281.176.324.092.694zm.289-6.164l-.125.284c-.491-.173-.669-.349-.665-.642.017-.048.05-.069.139-.115l.176-.111c.082.048.18.066.279.05l.081-.017.132-.021c.031 0 .068 0 .117.099.007.2-.056.323-.134.473zm10.279 6.522c-.238-.091-.432-.224-.62-.369.103-.333.002-.617-.083-.851l-.006-.016c.094-.043.158-.104.2-.157.054-.064.091-.141.12-.229.333.314.609.716.62 1.081.007.196-.071.378-.231.541zm.974-9.022l-.078.05c-.086.063-.146.159-.169.265-.167.011-.264-.046-.37-.133-.016-.168.015-.289.06-.463.021-.088.019-.18-.007-.263.34.162.528.305.564.544zm-.987-13.353c.031-.035.218-.076.39-.02l-.016.098-.148.086-.099.044c-.026-.078-.074-.146-.136-.199l.009-.009zm-.115 12.157c-.023.121-.001.241.057.339l-.084.023c-.339.136-.665.072-.891-.182-.226-.256-.358-.692-.355-1.186.44-.213.686-.316 1.184-.355.108.469.148 1.053.089 1.361zm-1.632-5.865c-.043-.17-.025-.357.055-.527.131-.278.368-.432.671-.432l.09.004.011.112.016.205c-.338.176-.612.408-.843.638zm.337-16.225c.435 0 .49.257.494.412.001.093-.024.206-.075.297l-.192-.067h-.015l-.074.003h-.001c-.083.011-.157.047-.217.102l-.082-.147c-.026-.078-.089-.337.162-.6zm-1.794.543c.038-.088.128-.142.219-.173.059.088.147.153.25.182.083.097.062.184.055.216-.035.156-.187.309-.388.396-.14-.255-.191-.487-.136-.621zm-.293 1.54l.236-.1.011-.003.014.012.057.094.002.006h-.194c.083 0 .161.05.196.129l.02.138-.342-.232h-.001v-.044zm.28 1.429c.234-.167.553-.4.481-.979-.006-.055-.023-.19-.057-.19h.005c.144 0 .28-.077.361-.208l.08-.146c.065-.124.104-.191.163-.216l.091-.008c.167 0 .248.08.375.22.08.09.175.195.31.27l-.072.19-.065.158c-.034.11-.026.226.014.325-.159.123-.292.282-.4.479l-.135.016-.132.012c-.183-.06-.38.015-.488.181l-.181.347c-.06.134-.119.258-.191.354-.146.01-.225-.039-.351-.115l-.087-.052c-.077-.377.055-.473.279-.638zm.272 11.952l-.083.254h-.413l-.039-.072-.071-.152c-.034-.127-.125-.227-.234-.283l.031-.091.016-.048c.159-.473.247-.596.561-.583.019.085.06.162.119.223.051.058.119.099.192.121.072.137.033.313-.079.631zm-1.906-7.593l.222-.005.245.026c.151.062.321.027.441-.09.227-.218.396-.25.477-.25.25 0 .382.235.382.432 0 .254-.179.359-.534.359h-.001c-.205 0-.363.16-.424.354-.181.568-.347.876-.768.905-.48-.817-.492-1.332-.04-1.731zm-.037 1.758v.457l-.035-.461.035.004zm-1.363-13.617c.073 0 .205.016.274.112.107.15.051.438.009.596-.017.072-.035.088-.199.155-.099.04-.226.09-.358.192-.342-.169-.524-.37-.49-.55.043-.249.43-.505.764-.505zm-.783 4.808c.052.08.06.19.038.49l-.016.239-.176.034-.198.037c-.127-.124-.104-.234-.029-.521.038-.144.085-.313.101-.51.067.03.138.044.209.038l.071.193zm-.377-1.518l.063.098.14.202-.22-.022-.076-.004.093-.274zm5.398 23.042h-12.154l6.077-17.003 6.077 17.003zm-11.461-12.563c.039.083.102.152.177.198.569.335.518.552.417.99l-.045.203c-.091.064-.205-.038-.342-.147-.119-.097-.254-.205-.419-.275l-.16-.032-.239.026-.186.017-.094-.192-.15-.282-.073-.076c-.225-.181-.442-.284-.618-.366-.251-.117-.302-.157-.324-.261-.056-.265.006-.526.18-.757.311-.412.964-.568 1.373-.32.138.083.23.409.31.704.056.194.112.397.193.57zM207.031 221.984l-.031.032v41.484h10v-19h12.214c-.065-.062-.121-.127-.153-.211.144-.46.586-.485.677-.485.255 0 .521.124.544.399.019.198-.024.224-.199.324l-.032.021c.25.019.555.033.922.012.753-.043 1.658-.154 2.715-.455 1.056-.301 2.188-.723 3.394-1.327 1.206-.603 2.37-1.449 3.491-2.57 3.491-3.363 5.237-8.074 5.237-14.151 0-3.104-.517-5.728-1.552-7.884-1.034-2.154-2.317-3.898-3.846-5.234-1.531-1.336-3.201-2.117-5.01-2.722-1.81-.603-3.491-.717-5.043-.717h-10.698l.251.098.088.141v.046l-.317.16-.169.092c-.032-.111-.128-.205-.223-.265l-.02-.021.055-.045.114-.089.083-.118h-2.173c.093.28.104.55.017.727-.076.154-.222.24-.447.265-.241-.142-.359-.555-.303-.856l.069-.135h-9.686v12.446l.031.038zm11.444 18.322l.009-.161c.068-.13.277-.164.36-.011-.008.096-.077.183-.369.172zm.856-2.205l-.146-.045-.108-.047c.017-.091.053-.171.108-.236.054-.062.123-.092.188-.081-.04.088-.051.189-.043.315l.001.094zm16.509-.074c-.131.505-.377.719-.825.719h-.001c-.123-.007-.227.046-.31.133-.104.11-.142.252-.177.378l-.05.152c.116-.942.684-1.961 1.029-1.961.166 0 .295.29.367.492l-.033.087zm4.175-4.513l-.087.124c-.17-.104-.335-.312-.337-.461l.061-.096c.049-.035.14-.07.307-.085l.024.034c.066.367.029.484.032.484zm.043-2.258v-.002c.013-.087.095-.162.153-.166l-.153.168zm.454-11.435l-.015-.372.006-.089h.009v.461zm3.111 6.133l.033.068-.187.041c.054-.065.115-.109.154-.109zm-.365-6.999c.014.08-.081.179-.248.259l-.073-.037c-.072-.265-.054-.399-.026-.439l.049-.018c.109 0 .28.119.298.235zm-.59-1.706c.038-.075.137-.13.235-.13l.111.039c.051.062.075.175.065.317-.109.088-.21.145-.388.126-.063-.136-.07-.257-.023-.352zm-.016 14.167l.113.077-.033.161-.119.018c-.027-.083-.031-.186-.011-.292l.05.036zm-1.208-1.418c.044.107.127.192.229.242-.055.171-.011.364.117.488l.026.036c-.018.049-.132.145-.314.145-.047-.204-.145-.352-.226-.473l-.142-.257c.102-.117.171-.175.31-.181zm-.976-11.096l.172-.102.007.015.071.139c.048.088.083.15.083.249l-.122.081-.115.069-.062-.043c-.01-.115-.051-.202-.094-.28l-.035-.075.095-.053zm-1.266 9.003c.186.222.404.358.661.416.049.411.165.631.355.993l.033.063c-.006.083.007.157.042.228l-.094.104c-.107.164-.492.699-.985.699-.196 0-.382-.081-.573-.25-.064-.059-.092-.161-.128-.321-.042-.179-.097-.409-.272-.585.203-.566.576-.972.961-1.347zm-2.647-8.739c.037 0 .175.021.456.277.14.127.377.124.537.025.112-.068.186-.109.319-.104.259.404.098.743-.357 1.333l-.14.189c-.524-.168-.911-1.017-.885-1.532.003-.044.013-.188.07-.188zm-2.771-4.761c.155.037.249.14.316.348l-.1.155c-.08.138-.1.145-.156.145l-.058-.003-.037-.01-.025-.054c-.17-.338-.185-.365.06-.581zm-4.79.596c.067-.085.173-.104.247-.104.217 0 .434.137.505.321.083.209-.038.433-.179.601-.371.015-.575-.109-.625-.372-.035-.198-.017-.357.052-.446zm-10.978.786c.114 0 .248.027.379.052l.087.019c.126.026.254.053.388.053.225 0 .507-.079.698-.413.141.088.299.161.492.2.036.108.054.25.071.387.034.249.077.582.267.785-.175.002-.341.122-.401.306l-.088.208-.031.114h-.673c-.053 0-.115-.27-.176-.36l-.133-.25c-.084-.165-.253-.279-.427-.257-.32.036-.472-.099-.695-.322l-.138-.138c.088-.38.249-.384.38-.384zm-1.131 16.816l.011-.092.105-.004v-14.007h13.295c.517 0 1.109.323 1.778.517.668.194 1.293.652 1.875 1.148.582.496 1.066 1.264 1.454 2.19.388.927.582 2.173.582 3.681 0 2.026-.249 3.635-.744 4.798-.496 1.163-1.078 2.066-1.745 2.69-.669.625-1.369.785-2.101.957-.734.173-1.336.019-1.81.019h-12.585v-1.768l-.122-.064.007-.065zm-2.595 25.127l-.121.141-.04-.096.239-.108.015-.004-.093.067zm.655.103c-.068-.114-.18-.193-.305-.212l-.062-.004-.121.018c.147-.076.244-.237.245-.415.001-.312.057-.544.156-.657.043-.045.089-.068.148-.068.158 0 .396.177.501.462.138.367-.01.66-.181.852l-.055.004-.189.02h-.137zm-.436-17.645c.143.037.32.019.475-.019l.061.162c.052.133.106.269.092.434l-.123.056c-.08-.07-.179-.109-.281-.109l-.165.036-.092.042c-.068-.175-.043-.345.033-.602zm1.183 19.061l-.044.193c-.118.011-.227.079-.305.178-.127-.102-.191-.279-.166-.479.008-.062.061-.37.348-.427l.006-.001h.014l.198.138c.009.151-.018.261-.051.398zm.617-16.766c.013-.023.036-.062.133-.07l.021.163-.018.158h-.144c-.028-.109-.021-.202.008-.251zm-.935-29.18c.193-.219.465-.226.681-.024.008.085-.011.133-.044.209l-.073.232c-.152.017-.305.044-.409.073-.098.026-.184.086-.242.168l-.159-.053c.025-.24.112-.45.246-.605zm-.207 17.475c-.003.163-.008.331.004.501l-.266-.051c-.374-.07-.8-.152-1.111-.152h-.04c.018-.135.078-.307.204-.505.199-.308.591-.681 1.057-.765.158.248.161.542.152.972zm-1.209-3.776c.052.095.133.17.238.206.067.023.172.084.303.234.049.361-.035.66-.147 1.06l-.017.063-.081.11c-.162-.023-.345-.083-.481-.226-.136-.146-.21-.361-.21-.606.001-.343.156-.718.395-.841zm-1.703-14.447l.013-.047h.243c.092.155.121.388.067.593-.023.08-.072.213-.181.266-.1-.028-.168-.072-.203-.132-.084-.152-.005-.44.061-.68zm.25 6.264v.237l-.031.006-.105.014h-.001l-.058-.041.047-.152.148-.064zm-.181 37.378c.21.15.327.448.378.959-.119.098-.228.15-.319.15-.175 0-.248-.204-.27-.292-.068-.252-.011-.601.211-.817zm-2.415-43.303c.147-.178.502-.042.589.192.074.204-.052.399-.163.523l-.077.003h-.001c-.186 0-.303-.065-.451-.152-.018-.201-.005-.433.103-.566zm-.102 42.277l.218.183-.027.12c-.086-.017-.175-.004-.255.033l-.053-.333-.016-.119.133.116zm-.411-1.019l.062.027-.075.228-.025.088-.08-.019c-.007-.088.061-.238.118-.324zm-.319-1.786l-.044.018-.107-.448.151.43zm-.355-11.151l.071.198.046.068-.017.011-.092.107-.089-.097-.042-.049c.032-.104.073-.181.123-.238zm-.483-30.931c.134.002.255.062.301.161l.013.122-.154-.024c-.1-.012-.199.016-.281.073.026-.134.072-.266.121-.332zm-1.099 50.863l.122-.024c.011.066 0 .154-.026.308l-.009.058-.155.117c-.016-.106.022-.32.068-.459zM253 219.25l.03.029-.03.047v25.231l.155-.124.151.077c.31.151.445.218.672.432-.022.156-.088.27-.167.409-.087.148-.182.314-.221.545-.236.077-.438.069-.589-.014v14.913c.093-.146.225-.238.38-.238.125 0 .268.057.412.166-.06.116-.087.253-.09.395l29.573-1.693-.025-.412-.016-.301c-.007-.133-.087-.251-.188-.334-.098-.08-.245-.108-.369-.08-.18.038-.269.034-.389-.02-.183-.177-.361-.469-.219-.881.131-.377.484-.683.785-.683.183 0 .319.127.403.378.038.116.118.21.22.264.104.053.226.059.333.019.379-.145.674-.074.866.222.209.32.276.867.172 1.391-.024.121.005.243.067.345l.084-.005v-9.828h-22v-11h8.775l-.042-.427.01.003c.164.067.342.02.46-.107l.098.023.031.144c0 .109-.04.247-.101.364h11.769v-10h-21v-9h22v-10h-32v9.75zm16.319 37.892c.081 0 .119.108.139.219-.163.003-.338.004-.512-.018.131-.119.274-.201.373-.201zm-1.392-7.084l.081-.137c.133.055.26.073.369.083-.065.083-.128.168-.176.271-.089-.035-.171-.051-.252-.051l-.126.013.104-.179zm-1.129 7.024c.061.27.235.416.371.531l.173.172c-.148.072-.261.148-.352.208-.146.097-.208.134-.289.134-.08 0-.189-.04-.33-.12-.024-.684.028-.832.427-.925zm-3.115-2.605v.461l-.012-.462.012.001zm19.017-24.838c.042-.071.063-.153.066-.237l-.003-.063.067.009.13.011.177.457c-.142.088-.277.133-.467.068l.03-.245zm-.379 1.434c.142.202.255.44.277.603-.062-.007-.099-.04-.174-.122l-.154-.145c-.006-.135.016-.238.051-.336zm-1.045 4.279c.128.052.234.148.289.266.044.097.052.197.022.299-.04.152-.006.319.093.438.307.364.389.464.378 1.08-.218.203-.608.38-.887.3.051-.303.02-.58-.013-.798-.013-.096-.055-.179-.114-.243.029-.082.037-.171.02-.259-.099-.524-.095-.817.212-1.083zm-1.754-5.525c.129.14.13.218.132.29l.052.211-.083.004-.134-.004h-.009l-.031-.242c-.028-.17-.035-.21.073-.259zm-1.105.518c.12.003.154.045.165.06l.042.109.017.066-.002.01-.057.032c-.181-.09-.385-.274-.41-.342.069.048.154.074.245.065zm-5.128 6.81c.07-.187.306-.317.575-.317l.157.015c.11.235.174.566.086.743-.189-.063-.364-.04-.538-.002l-.156.031c-.095-.116-.191-.289-.124-.47zm-6.304-8.156c.289-.056.513.051.629.298.121.26.106.602-.03.841-.377.105-.654-.027-.759-.358-.088-.28-.02-.606.16-.781zm1.692-13.296l-.048-.441.109.441h-.061zm15.764-3.19c.253.026.356.164.413.271.153.286.138.729-.03 1.083-.093.031-.113.008-.19-.009-.1-.024-.201-.045-.343-.045h-.025c-.219-.468-.162-.913.175-1.3zm-.608 2.372l.021.262c.048.599.058.896-.296 1.211-.226-.032-.391-.118-.499-.26-.175-.227-.192-.595-.168-.902l.263-.17c.245-.167.402-.222.679-.141zm-1.404-2.662c.046-.111.085-.225.079-.383l.191-.05c.167-.003.316-.109.383-.268l.143.183.025.036c-.078.132-.088.304-.019.45l.034.082c-.06.057-.104.132-.128.218l-.004.009-.008.002v-.002c-.097.004-.181.031-.246.084-.055-.162-.192-.282-.359-.302l-.104-.021.013-.038zm-2.97 3.128l.157.06c.029.101.091.188.177.247l.104.052c-.046.069-.094.148-.119.241-.238.018-.321-.071-.343-.098-.083-.102-.097-.286-.089-.466l.113-.036zm-4.572-1.246l.08.164.025.042c.058.17.207.29.379.301.219.016.384.099.49.248.085.122.136.292.146.494.012.211.166.364.361.404.194.041.401-.089.485-.28.098-.225.176-.385.292-.48.123.173.156.448.189.821l.027.253c-.285.25-.807.438-1.065.501l-.005-.157-.001-.245c-.008-.128-.064-.245-.155-.326-.08-.069-.177-.107-.276-.107l-.053.002c-.573.078-.735-.177-.929-1.118l-.127-.546.137.029zm-.974-4.593l.136.033-.018.104c-.049.117-.184.202-.32.205-.029-.104-.059-.232-.061-.34.084.029.176.028.263-.002zm-1.52 7.997c.11-.135.33-.169.544-.082.04.226.011.34-.036.517l-.054.235-.23-.087c-.124-.042-.252-.087-.326-.156-.014-.178.021-.328.102-.427zm-3.99-5.59c.091-.155.19-.419.235-.419h.18c.17 0 .322-.209.391-.373.143-.326.429-.548.637-.548.138 0 .188.047.203.072.042.059.117.231-.005.662-.047.178.008.361.139.479l.123.103c.127.104.245.202.313.33l-.079.285c-.033.1-.08.453-.095.548-.014.083-.006.441.02.441h-.017c-.283 0-.719-.391-1.101-.562-.374-.163-.727-.364-1.021-.4-.137-.14-.117-.287.077-.618zm-.575 4.829l.215.04c.012.229-.084.322-.319.425.012-.168 0-.336-.029-.489l.133.024zm-2.526-1.801l.028-.046c.101.039.199.066.306.066.247 0 .426-.14.597-.274.169-.133.226-.375.134-.576-.122-.263-.128-.597-.016-.831.109-.228.309-.254.535-.108l.06.401c.076.397.064.438-.165.53-.201.081-.316.307-.27.528.125.623.194 1.067.232 1.488.007.083.035.161.081.226l-.051.025.005.124h-.146c-.026 0-.006-.089.063-.222.08-.155.072-.242-.026-.386-.359-.537-.881-.742-1.403-.94l.036-.005zm-.185-1.416l-.08.028c-.098.031-.171.052-.279.055l-.048-.126c-.082-.218-.167-.445-.169-.686l-.02-.137c.407.146.593.417.596.866zm-1.362-1.597c.066.076.103.171.109.272l.047.185-.14.122c-.154.203-.467.256-.61.088-.056-.066-.143-.229-.118-.576.19-.284.524-.304.712-.091zm-9.189 29.727c-.169-.276-.229-.632-.171-.983l.147.187c.281.355.569.72.81 1.122-.296.116-.594-.012-.786-.326zm3.628-20.86c0-.09.022-.16.071-.211l.163-.09.067.119c.125.16.156.342.134.443l-.028.054c-.08.036-.144.097-.19.17-.12-.103-.217-.304-.217-.485zm.218-3.307c.008-.176.251-.408.425-.408l.076.032c.045.051.083.187.074.416-.114.006-.224.057-.301.145-.123-.024-.281-.078-.274-.185zm2.34 42.404l-.162.228h-1.179c-.186-.313-.213-.643-.073-.934.153-.33.491-.562.82-.562.343 0 .532.251.63.481-.085.068-.147.167-.169.284-.032.181.036.357.17.46l-.037.043zm-1.277-15.032l.181-.036.053.235.012.044-.058-.042c-.087-.061-.146-.103-.188-.201zm.451 4.345l.12-.022.166.14c.092.097.211.226.411.272.034.081.035.175.005.271-.044.144-.141.246-.222.282-.1-.003-.22-.025-.272-.097-.05-.07-.061-.201-.032-.398.026-.174-.044-.346-.176-.448zm2.266-25.07c.041 0 .11.051.179.166l-.108-.021-.218-.058.147-.087zm-.525-9.746h.001l-.001.002v-.002zm-.769-.708l.164-.033c.088.098.222.145.364.121l.109.113-.115.121-.214-.103c-.145-.077-.303-.152-.52-.152l-.064.002.276-.069zm-.725 25.452c.094.311.19.631.403.862.051.09.137.157.229.197.078.032.167.038.251.02.06.029.123.071.154.135l-.046-.002c-.168.007-.286.079-.367.21l-.137.243c-.457-.131-.893.101-1.198.353-.413-.176-.572-.651-.758-1.335l-.068-.254-.08-.153.041-.053.186-.33c.217-.411.361-.645.773-.645l.273.032c.168.147.25.414.344.72zm-.958-23.365l.051-.043.124.125c.06.088.178.252.38.307l-.025.106-.202-.107c-.145-.083-.302-.171-.47-.212.009-.07.053-.104.142-.176zm-1.054-2.244l.003-.119.227-.164c.217-.168.422-.322.626-.287l-.056.172c-.19.597-.326.836-.786.81-.021-.094-.017-.289-.014-.412zm-.891 10.369c.077.086.119.227.119.336 0 .099-.029.182-.081.239l-.073.053-.055-.104c-.015-.022-.06-.109-.059-.368.062-.037.112-.091.149-.156zm-2.65-9.506l.246-.366.002.006.04.118.074.117c-.2.042-.382.141-.449.424l-.013-.008-.072-.042.172-.249zm1.354 10.602l.279.017c.058.112.13.269.125.393-.005.228.151.426.363.466.104.017.209.083.278.171.083.109.121.251.112.426-.28.057-.421.236-.473.586l-.037.158c-.111-.052-.241-.055-.353 0-.116.054-.203.159-.239.287l-.026.093c-.054.197-.111.399-.21.513-1.01-.074-1.455-.83-1.443-1.562.012-.746.527-1.548 1.624-1.548zm-2.641 9.896c-.03-.114-.063-.256-.061-.368l.033.052c.059.093.152.158.252.188-.026.054-.115.12-.224.128zm-.029-3.214c.152.012.241.036.295.063l-.059.055c-.102.112-.142.275-.108.427l.099.317-.108.009-.044-.003c-.025-.127-.079-.25-.129-.364-.058-.132-.131-.297-.101-.373.019-.053.093-.101.155-.131z"/></g></svg>