<svg xmlns="http://www.w3.org/2000/svg" width="384" height="550"><g fill="#fff"><path d="M94.549 219.783l-3.855 23.74h-6.494l3.855-23.74c.405-2.435-1.218-4.261-3.45-4.261-2.435 0-4.666 1.826-5.072 4.261l-16.638 104.702c-.406 2.435 1.218 4.261 3.652 4.261 2.232 0 4.464-1.826 4.87-4.261l4.058-26.176h6.493l-4.058 26.176c-1.015 5.884-6.493 10.754-12.378 10.754s-9.942-4.667-8.928-10.754l16.639-104.702c.812-5.885 6.29-10.552 12.377-10.552 5.682 0 9.74 4.667 8.929 10.552zM128.635 209.84h6.493l-19.683 124.79h-6.493l5.275-34.089h-7.305l-5.275 34.089h-6.493l5.275-34.089h-3.652l1.015-6.291h3.652l13.393-84.411h6.493l-13.393 84.411h7.305l13.393-84.41zM153.184 209.84h6.493l-19.682 124.79h-6.493l19.682-124.79zM199.242 219.783l-3.855 23.74h-6.493l3.855-23.74c.405-2.435-1.218-4.261-3.45-4.261-2.435 0-4.666 1.826-5.072 4.261l-16.639 104.702c-.406 2.435 1.218 4.261 3.652 4.261 2.232 0 4.464-1.826 4.87-4.261l4.058-26.176h6.493l-4.058 26.176c-1.015 5.884-6.493 10.754-12.378 10.754s-9.942-4.667-8.928-10.754l16.639-104.702c.812-5.885 6.29-10.552 12.377-10.552 5.682 0 9.741 4.667 8.929 10.552zM224.602 334.63h-6.29l3.044-33.886h-9.537l-7.508 33.886h-6.29l7.913-33.886h-3.449l1.015-6.493h3.652l19.683-84.411h8.319l-10.552 124.79zm-2.638-40.379l6.493-67.772-15.219 67.772h8.726zM281.009 219.783l-3.855 23.74h-6.29l3.855-23.74c.202-2.232-1.015-4.261-3.653-4.261-2.435 0-4.464 1.826-4.869 4.261l-16.639 104.702c-.406 2.435 1.217 4.261 3.652 4.261s4.464-2.029 4.869-4.261l3.45-22.726h-4.262l1.015-6.291h10.755l-4.667 29.017c-.812 5.884-6.493 10.754-12.175 10.754-6.088 0-10.146-4.667-9.131-10.754l16.639-104.702c.812-5.885 6.493-10.552 12.377-10.552 5.885 0 9.74 4.667 8.929 10.552zM320.573 219.783l-16.639 104.702c-1.015 5.884-6.493 10.754-12.378 10.754s-9.942-4.87-8.928-10.754l16.639-104.702c.812-5.682 6.493-10.552 12.377-10.552 5.682 0 9.741 4.667 8.929 10.552zm-6.493 0c.203-2.232-1.015-4.261-3.45-4.261-2.435 0-4.667 1.826-5.072 4.261l-16.639 104.702c-.406 2.435 1.218 4.261 3.652 4.261s4.464-2.029 4.87-4.261l16.639-104.702z"/></g></svg>