<?xml version="1.0" encoding="utf-8"?>
<!-- Generator: Adobe Illustrator 17.0.0, SVG Export Plug-In . SVG Version: 6.00 Build 0)  -->
<!DOCTYPE svg PUBLIC "-//W3C//DTD SVG 1.1//EN" "http://www.w3.org/Graphics/SVG/1.1/DTD/svg11.dtd">
<svg version="1.1" xmlns="http://www.w3.org/2000/svg" xmlns:xlink="http://www.w3.org/1999/xlink" x="0px" y="0px" width="384px"
	 height="550px" viewBox="0 0 384 550" enable-background="new 0 0 384 550" xml:space="preserve">
<g id="Borders" display="none">
	<g display="inline">
		<rect fill="#5D5D5D" width="384" height="550"/>
	</g>
</g>
<g id="Labels">
</g>
<g id="Names">
	<g>
		<g>
			<g>
				<g>
					<path fill="#FFFFFF" d="M50.049,264.995c-3.433,1.882-5.138,2.853-8.523,4.855c-1.516-2.563-2.274-3.845-3.79-6.409
						c8.431-4.987,17.1-9.572,25.968-13.732c1.265,2.696,1.897,4.044,3.161,6.741c-3.499,1.642-5.239,2.492-8.697,4.253
						c6.299,12.376,12.598,24.752,18.896,37.129c-2.814,1.433-4.213,2.171-6.992,3.695C63.398,289.35,56.723,277.173,50.049,264.995
						z"/>
					<path fill="#FFFFFF" d="M93.859,237.465c4.879-1.686,8.85-1.721,11.791-0.247c2.576,1.291,4.348,3.664,5.348,7.073
						c0.803,2.738,1.205,4.107,2.008,6.845c0.978,3.334,0.33,6.575-1.817,9.76c4.925,7.449,7.3,11.216,11.871,18.827
						c-3.224,0.924-4.831,1.413-8.03,2.444c-4.063-6.466-6.157-9.669-10.467-16.015c-0.223,0.076-0.459,0.157-0.71,0.244
						c-1.819,0.628-2.726,0.951-4.536,1.611c2.537,6.951,3.806,10.426,6.343,17.377c-2.929,1.069-4.388,1.627-7.291,2.788
						c-6.075-15.2-12.15-30.4-18.225-45.6C85.593,240.394,88.337,239.373,93.859,237.465z M102.769,246.959
						c-0.881-2.708-2.96-3.544-6.214-2.423c-2.061,0.71-3.089,1.075-5.139,1.824c2.156,5.905,3.234,8.858,5.389,14.763
						c1.943-0.709,2.917-1.055,4.87-1.729c1.284-0.442,2.244-1.205,2.887-2.3c0.643-1.093,0.79-2.198,0.426-3.316
						C104.1,251.052,103.656,249.687,102.769,246.959z"/>
					<path fill="#FFFFFF" d="M145.425,274.376c-3.031,0.583-4.543,0.897-7.559,1.572c-3.573-15.974-7.147-31.948-10.72-47.922
						c3.589-0.803,5.389-1.177,8.995-1.871C139.236,242.229,142.331,258.303,145.425,274.376z"/>
					<path fill="#FFFFFF" d="M164.563,222.013c4.941,10.598,9.581,21.214,13.999,32.041c-0.63-10.992-1.261-21.983-1.891-32.975
						c3.653-0.209,5.482-0.287,9.138-0.387c0.451,16.375,0.902,32.751,1.354,49.126c-3.3,0.091-4.95,0.163-8.247,0.358
						c-4.323-10.304-8.862-20.395-13.699-30.467c1.052,10.437,2.103,20.874,3.155,31.312c-3.062,0.308-4.591,0.485-7.645,0.884
						c-2.127-16.243-4.254-32.486-6.381-48.73C158.427,222.642,160.47,222.409,164.563,222.013z"/>
					<path fill="#FFFFFF" d="M210.296,270.217c-3.069-0.19-4.605-0.263-7.678-0.362c0.528-16.36,1.056-32.72,1.584-49.08
						c3.656,0.118,5.484,0.204,9.136,0.431C212.325,237.543,211.31,253.88,210.296,270.217z"/>
					<path fill="#FFFFFF" d="M252.094,264.215c-0.693,3.165-2.489,5.599-5.302,7.37c-2.813,1.772-5.818,2.362-9.116,1.801
						c-4.777-0.813-7.173-1.163-11.975-1.75c1.991-16.26,3.983-32.521,5.975-48.781c5.716,0.7,8.568,1.116,14.253,2.084
						c3.955,0.673,7.103,2.454,9.358,5.262c2.254,2.809,2.987,5.8,2.299,8.939C255.39,249.17,254.291,254.184,252.094,264.215z
						 M234.437,265.439c1.89,0.289,2.833,0.441,4.719,0.764c1.24,0.212,2.358-0.018,3.37-0.696c1.01-0.677,1.628-1.576,1.841-2.707
						c1.907-10.105,2.861-15.158,4.769-25.263c0.218-1.155-0.078-2.235-0.902-3.237c-0.823-1.001-1.925-1.624-3.294-1.857
						c-2.128-0.364-3.194-0.537-5.327-0.863C237.887,242.866,236.162,254.153,234.437,265.439z"/>
					<path fill="#FFFFFF" d="M276.107,271.137c-2.121,4.063-3.166,6.102-5.225,10.19c-3.089-0.958-4.639-1.413-7.75-2.273
						c7.189-15.049,14.884-29.857,23.063-44.392c4.853,1.52,7.268,2.331,12.069,4.057c-2.295,16.515-5.127,32.955-8.495,49.284
						c-3.054-1.215-4.589-1.797-7.671-2.911c0.848-4.495,1.257-6.747,2.044-11.257C280.941,272.704,279.334,272.165,276.107,271.137
						z M288.618,247.273c-3.718,6.92-5.538,10.398-9.095,17.387c2.348,0.76,3.519,1.153,5.853,1.966
						C286.756,258.906,287.405,255.035,288.618,247.273z"/>
					<path fill="#FFFFFF" d="M331.815,295.589c-1.649,2.788-4.15,4.518-7.435,5.285c-3.287,0.769-6.396,0.351-9.43-1.252
						c-4.396-2.322-6.615-3.426-11.091-5.523c6.946-14.837,13.892-29.673,20.838-44.51c5.327,2.495,7.969,3.81,13.201,6.574
						c3.64,1.923,6.158,4.646,7.492,8.059c1.333,3.413,1.129,6.506-0.507,9.272C339.655,282.332,337.042,286.751,331.815,295.589z
						 M314.248,291.009c1.747,0.884,2.617,1.334,4.352,2.253c1.141,0.604,2.3,0.749,3.493,0.432c1.191-0.317,2.07-0.972,2.626-1.979
						c4.968-9.004,7.451-13.506,12.419-22.51c0.568-1.029,0.612-2.154,0.118-3.376c-0.493-1.221-1.374-2.172-2.633-2.839
						c-1.958-1.037-2.941-1.545-4.913-2.543C324.556,270.633,319.402,280.821,314.248,291.009z"/>
				</g>
			</g>
		</g>
		<g>
			<g>
				<path fill="#FFFFFF" d="M128.161,312.671l-0.089,1.022l-0.356,0.979l-0.445,0.756l-0.401,0.445l-1.424,0.134l-0.311-0.134
					l-0.712,0.134h-2.135l-0.712-0.134l-1.379,0.134l-1.468-0.089l-0.356,0.089l-0.401-0.044l-0.311-0.267l-0.179,0.223l-0.8,0.133
					l-0.756-0.179l-0.534-0.355l0.044-1.023l0.49-1.112l0.133-0.712l0.49-0.446l0.534-0.312l1.201-0.089l1.602,0.044l1.512,0.09
					l0.134-0.09l1.469,0.09l1.334,0.089l1.334-0.223l1.513,0.179l0.534,0.222l0.4,0.356L128.161,312.671z M118.508,314.36
					l-0.044-0.177l-0.178-0.089l-0.089,0.133l0.045,0.133H118.508z M119.309,314.094l-0.312,0.089l-0.044,0.089l0.222,0.312
					l0.134,0.044l0.178-0.312l0.312-0.267l-0.134-0.489l-0.178-0.089l-0.134,0.533L119.309,314.094z M120.91,313.693l0.489,0.09
					v-0.179l-0.177-0.222l-0.045-0.357l-0.089-0.044l-0.134,0.623L120.91,313.693z M122.6,313.382l0.089,0.133v0.579l0.222,0.177
					l0.089-0.044l-0.089-0.267l0.222-0.044l0.089-0.133l-0.089-0.134v-0.266l-0.445-0.09L122.6,313.382z M125.137,314.983
					l0.311,0.089l0.134-0.222l0.356-0.134l0.222-0.222l-0.089-0.09l-0.445,0.09l-0.178-0.223l-0.356,0.044v0.623L125.137,314.983z"
					/>
			</g>
			<g>
				<path fill="#FFFFFF" d="M157.029,314.405l-0.49,0.534l-0.356,1.424l-0.267,1.379l-0.134,0.712v1.424l-0.044,1.335l0.044,0.756
					h0.134l0.044,0.712l0.178,0.622l0.935,1.068l0.533,0.49l0.579,0.266l1.512,0.223l1.424-0.089l1.379-0.312l1.156-0.356v-0.089
					h0.223v-0.09h0.178l0.49-0.222l0.133-0.223l0.712-0.177l0.579-0.356l0.089-0.134h0.222v-0.133h0.178l0.223-0.223l0.267-0.089
					l0.222-0.267l0.623-0.4l0.089-0.133l0.356-0.133l0.89-0.846h0.134l1.023-1.112l0.934-1.068l0.534-0.445l0.934-1.112l0.845-1.158
					l0.756-1.245l0.356-0.445l0.267-0.134h0.267l0.578,0.267l0.534,0.445l0.044,0.267l0.222,0.267l0.089,0.312l-0.134,0.533
					l-0.667,1.202l-0.267,0.489l-0.356,0.312l-0.089,0.312l-0.178,0.089l-0.178,0.312l-0.222,0.177v0.179l-0.223,0.222l-0.089,0.312
					l-0.89,1.023l-1.023,0.979l-0.89,1.112l-0.978,1.023l-1.113,0.889l-1.112,0.935l-0.445,0.4h-0.223l-0.089,0.179l-0.667,0.489
					l-0.445,0.133l-0.134,0.134l-0.267,0.044l-1.291,0.578l-0.312,0.134l-0.089,0.133l-1.246,0.445l-1.424,0.401l-0.49,0.044
					l-0.089-0.089l-1.424,0.177l-0.089-0.089l-1.379,0.089l-0.667,0.089l-1.468-0.266l-0.712-0.179l-1.246-0.579l-0.356-0.133
					l-1.023-1.023l-0.49-0.533l-0.222-0.49l-0.178-0.089v-0.223l-0.267-0.266l-0.4-1.291l-0.267-0.623l-0.177-0.845h-0.089
					l-0.089-1.379l-0.044-1.468l0.044-1.379l0.223-1.379l0.222-1.335l0.134-0.622l0.089-0.09v-0.31h0.134v-0.534l-0.134-0.356
					l-0.489-0.445l-1.246-0.712l-1.334-0.579l-0.312-0.133l-0.044-0.089l-0.312-0.134l-0.49-0.533h-0.177l-0.935-0.979l-0.978-1.068
					l-0.757-1.156l-0.667-1.112l-0.089-0.623l-0.133-0.089l-0.267-1.379l-0.178-1.379l-0.134-0.667l0.134-1.379l0.044-0.935
					l0.134-0.089l0.178-0.935l0.4-1.201l0.222-0.177l0.223-0.667l0.756-1.246l0.178-0.489l0.178-0.089l0.044-0.267l0.223-0.089
					v-0.179l0.978-0.979l1.068-0.978l0.756-0.312l0.534,0.133l0.89,1.023l0.178,0.312l0.534,0.667l0.401,0.623v0.177h0.089
					l-0.044,0.4l-0.134,0.044l-0.267,0.579l-0.579,0.4l-0.934,1.068l-0.667,1.245l-0.756,1.513l-0.044,0.622h-0.089l-0.044,1.469
					l0.089,0.712l0.401,1.334l0.623,1.246l0.979,1.023l1.068,0.979l0.089,0.177l0.267,0.044l0.534,0.445l0.356,0.134l0.49,0.044
					l0.623-0.267l0.4-0.578l0.445-1.424l0.178-0.446l0.267-0.266l0.223-0.757l0.4-0.934l0.089-0.044l0.445-1.246l0.134-0.133
					l0.089-0.312l0.222-0.223l0.312-0.667l0.312-0.312l0.445-0.978l0.089-0.356l0.267-0.267l0.49-0.712l0.089-0.312l0.757-1.112
					l0.49-0.579l0.8-1.112l0.89-1.112l1.023-1.023l0.49-0.712l0.311-0.089l0.401-0.489l0.267-0.134l0.222-0.312l0.312-0.089
					l0.089-0.177l0.312-0.134l0.356-0.356l0.267-0.089l0.133-0.177l0.223-0.046v-0.133l0.312-0.089l0.177-0.223l0.979-0.312
					l0.134-0.133l0.445-0.134l0.267-0.266l1.424-0.267l1.29-0.133l1.512-0.046l0.712,0.134l1.023,0.356l0.312,0.222h0.178l0.4,0.357
					l0.312,0.133l0.978,1.068l0.401,0.4l0.044,0.267l0.222,0.089l0.044,0.312l0.356,0.667l0.401,1.201l0.178,0.356l0.089,1.379
					l-0.089,1.335l-0.089,1.424l-0.311,1.379l-0.49,1.334l-0.49,1.291l-0.222,0.712l-0.312,0.533l-0.49,0.579l-0.133,0.445
					l-0.179,0.09l-0.712,0.889v0.179l-0.4,0.312l-0.089,0.31l-0.49,0.534l-0.134,0.044l-0.133,0.312l-0.267,0.267l-0.267,0.133
					l-0.4,0.445l-1.068,0.802l-0.978,0.712l-0.578,0.355l-0.445,0.401h-0.178l-0.222,0.31h-0.178l-0.089,0.179l-0.978,0.445
					l-0.579,0.356l-1.201,0.445l-0.712,0.223l-0.089,0.134l-1.29,0.31l-1.424,0.267l-1.424,0.223l-1.379,0.133l-1.424,0.133
					l-0.089-0.044H157.029z M147.954,310.401l0.223,0.089l0.356-0.222v-0.09h-0.401l-0.178,0.134V310.401z M151.78,311.113
					l0.356,0.089l0.578-0.356l0.089-0.266l-0.267-0.179h-0.267l0.045,0.134l-0.089,0.177l-0.445,0.267V311.113z M151.958,319.966
					v0.177l0.311,0.134l0.179-0.089l0.044-0.134l-0.267-0.177h-0.178L151.958,319.966z M152.269,312.892v0.223l0.223,0.312
					l0.312-0.134l0.133-0.312l0.134-0.089v-0.177l-0.089-0.09v0.09l-0.133,0.089l-0.534,0.044L152.269,312.892z M152.67,312.092
					l-0.134-0.356l-0.178-0.044v0.312l0.222,0.089H152.67z M156.718,307.376l0.089,0.578l-0.178,0.223l-0.134-0.134l-0.489-0.133
					l-0.089-0.133l-0.756,0.4l-0.178,0.312l0.044,0.177l0.356,0.356l0.134,0.267l0.534,0.044l0.044,0.133l-0.178,0.267l-0.044,0.312
					l0.134,0.267l-0.312,0.356l0.044,0.222l0.134,0.134l-0.045,0.133l-0.267,0.044l-0.134-0.089l0.089-0.312l-0.267-0.222v-0.312
					l-0.089-0.134l-0.178-0.044l-0.178-0.623h-0.445l-0.4-0.445l-0.267-0.044l0.134,0.356l0.712,0.49l0.267,0.489l-0.045,0.177
					l-0.712,0.712l-0.356,0.09v-0.49h-0.222l-0.4,0.312v0.089l0.134,0.09l0.089,0.578l0.223,0.223h0.356v-0.49l0.311,0.179
					l0.49-0.089l0.044,0.089l-0.089,0.133l-0.178,0.046l-0.045,0.266l-0.756,0.446l0.044,0.845l-0.177,0.089h-0.312l-0.223,0.133
					l0.223,0.802l-0.312,0.089l-0.4-0.089v0.222l0.089,0.134l0.49,0.222l0.267-0.4l0.179-0.089l0.489,0.089l0.356-0.312l0.445,0.223
					h0.311l0.089-0.489l0.312-0.223l-0.267-0.179h-0.756l-0.49,0.09l-0.133-0.223l0.177-0.312l0.267-0.222l0.178-0.046l0.222,0.267
					h0.178l0.045-0.177l-0.134-0.534l0.089-0.177l0.045,0.177l0.267,0.312l0.445,0.044l0.311,0.312l0.757,0.134l0.311,0.222
					l-0.222-1.068l0.089-0.312l-0.089-0.312l0.312-0.4l0.489,0.179l0.134-0.044l0.089-0.356l-0.044-0.356l-0.089-0.134l0.222-0.222
					v-0.356l-0.312-0.134v0.49l-0.712,0.445l-0.267-0.044l-0.134-0.267l0.044-0.4h0.089l-0.089-0.356l0.089-0.089l0.312,0.177
					l0.267,0.356l0.134-0.312l-0.134-0.712l0.223-0.177v-0.134l-0.134-0.089l-0.757,0.089l-0.222-0.177l0.445-0.223l0.044-0.4
					l0.267-0.267l0.177-0.356l-0.089-0.312h-0.4L156.718,307.376z M152.492,316.14h0.489l-0.089-0.4l0.134-0.044l0.089-0.267
					l-0.222-0.089l-0.134,0.312l-0.222,0.177l-0.044,0.179V316.14z M152.58,311.513l0.223-0.044l0.177-0.267l-0.356,0.046
					l-0.044,0.177V311.513z M153.07,317.563l-0.044-0.177l-0.356-0.356l-0.045,0.133l0.134,0.312l0.178,0.089H153.07z
					 M152.892,318.943l0.312-0.133l0.089-0.356l-0.4-0.089l-0.089,0.177l0.044,0.312L152.892,318.943z M152.803,320.143l0.311-0.044
					l0.089-0.222h-0.267l-0.133,0.177V320.143z M153.292,321.968l0.134-0.356l-0.044-0.179l-0.089-0.044l-0.178,0.312l0.045,0.223
					L153.292,321.968z M154.805,315.739l-0.178-0.267l-0.756-0.356l-0.089,0.179l-0.49,0.445l0.089,0.089v0.223l0.311,0.179
					l0.49,0.044l0.401-0.134l0.267,0.179h0.178l0.134-0.223l-0.045-0.177l-0.267-0.134L154.805,315.739z M153.381,322.902
					l0.267,0.179l0.223-0.044l0.177-0.267l0.045-0.4l-0.312-0.044l-0.178,0.089l-0.222,0.4V322.902z M153.47,316.941l0.134,0.089
					l0.356-0.044l0.044-0.134l-0.222-0.222l-0.267,0.222L153.47,316.941z M153.604,318.631l0.134,0.134l0.311,0.044l0.223-0.223
					v-0.133l-0.312-0.179l-0.312,0.134l-0.044,0.089V318.631z M154.093,320.366l-0.312,0.4l0.312,0.223l0.178-0.044l0.312-0.4h0.177
					l0.045-0.179H154.093z M154.404,324.681l0.179-0.267v-0.222l-0.312-0.089l-0.089,0.133v0.223l0.134,0.222H154.404z
					 M154.716,319.743l-0.133-0.266h-0.179v0.177l0.223,0.089H154.716z M154.805,318.854h0.178l0.133-0.223l-0.311-0.089V318.854z
					 M155.294,307.688l0.311,0.089l-0.044-0.179l-0.178-0.133l-0.044,0.133L155.294,307.688z M155.605,308.4l0.089-0.046l0.133,0.09
					v0.177l-0.133,0.089l-0.089-0.044V308.4z M155.917,311.602l0.49,0.49l0.089,0.312l-0.089,0.312l-0.178-0.044v-0.179
					l-0.267-0.133l-0.267-0.267v-0.223l0.178-0.177L155.917,311.602z M156.495,305.241l0.223,0.133l0.089-0.223l-0.178-0.089
					l-0.089,0.133L156.495,305.241z M157.118,305.774l0.312,0.8l0.712-0.089l0.177,0.089l0.089-0.356l-0.267-0.533v-0.312
					l-0.179-0.089l-0.356,0.044l-0.445,0.4L157.118,305.774z M157.919,303.462l-0.712,0.266v0.534l0.178,0.089l0.845-0.089
					l-0.089-0.356l-0.223-0.356V303.462z M158.542,303.951l0.4-0.312l-0.222-0.712h0.178l0.133-0.312l-0.311-0.177l-0.712,1.112
					h0.089l0.178,0.312l0.134,0.089H158.542z M158.142,312.892h0.578l0.044,0.4l0.178,0.134l0.089-0.802l-0.889-0.133V312.892z
					 M160.633,309.689l0.8-0.177l1.201-0.49l1.246-0.445l0.623-0.356l0.356-0.089l1.113-0.802l0.222-0.222l0.311-0.089l0.445-0.49
					l0.578-0.445l1.023-1.023l0.134-0.089l0.134-0.312l0.445-0.356l0.134-0.445l0.667-0.802l0.045-0.31l0.712-1.113l0.178-0.712
					l0.489-1.289l0.223-0.667v-1.646l-0.134-0.756l-0.267-0.623l-0.49-0.666l-0.312-0.09l-0.134-0.133l-0.712-0.177l-0.756,0.044
					l-1.335,0.533l-0.889,0.534l-0.089,0.222l-0.4,0.4l-0.312,0.09l-0.222,0.312l-0.845,0.712l-0.356,0.622l-0.89,1.068v0.179
					l-0.445,0.533l-0.845,1.246l-0.623,1.112l-0.578,0.8l-0.134,0.044v0.223l-0.267,0.267l-0.4,1.201l-0.49,1.112l-0.134,0.089
					l-0.044,0.223l-0.134,0.044l-0.445,1.202l-0.533,1.289l0.133,0.712l0.667,0.223l1.246-0.223H160.633z M158.542,311.913
					l0.089,0.046l-0.089,0.266l0.178,0.089l0.222-0.133l0.089,0.044v-0.623l-0.356,0.09l-0.089,0.133L158.542,311.913z
					 M158.942,301.637h0.4l-0.044-0.222l-0.134-0.089l-0.222,0.089V301.637z M159.743,311.913l0.223-0.044l0.89,0.356l-0.134-0.533
					l-0.49-0.312l-0.445,0.445L159.743,311.913z M160.054,300.836h0.178l0.089-0.312h-0.178l-0.089,0.223V300.836z M161.345,299.724
					l0.133,0.089h0.223l0.133-0.222l-0.133-0.09h-0.223l-0.133,0.134V299.724z M162.367,296.788l0.312,0.177h0.178l0.089-0.089
					l-0.133-0.312l-0.267-0.089l-0.133,0.223L162.367,296.788z M163.569,310.713l0.134,0.089l0.356-0.044l0.089-0.089l-0.044-0.133
					l-0.4-0.046l-0.134,0.134V310.713z M165.393,295.098h0.178l0.089-0.177l-0.178-0.134l-0.089,0.223V295.098z M166.683,309.466
					l0.311-0.044l0.089-0.356l-0.178,0.046l-0.222,0.266V309.466z M171.799,304.129v0.222l0.178-0.044l0.045-0.267l-0.134,0.09
					H171.799z M172.022,293.985l-0.045,0.579l0.134,0.266l0.134,0.046l0.134-0.134l0.044-0.312l-0.178-0.756h-0.312l0.089,0.223
					V293.985z M173.445,299.191l0.177-0.044l0.089-0.134v-0.312h-0.178l-0.089,0.134V299.191z M173.934,302.348l-0.312,0.179
					l0.089,0.089l0.178-0.044l0.089-0.133L173.934,302.348z M173.712,294.697l0.312-0.133l0.134-0.312l-0.312,0.133l-0.134,0.223
					V294.697z M174.646,300.036v-0.4l-0.222-0.223l-0.089,0.446l0.223,0.177H174.646z M174.334,302.038h0.223v-0.223h-0.223V302.038
					z"/>
			</g>
			<g>
				<path fill="#FFFFFF" d="M183.85,304.351l-0.312,1.023l-0.133,0.133l-0.4,1.246l-0.534,1.245l-0.044,0.312l-0.178,0.223
					l-0.356,1.201l-0.4,0.667l-0.222,0.712l-0.356,0.623l-0.223,0.623l-0.133,0.133l-0.267,0.979l-0.356,0.978l-0.267,0.267
					l-0.445,1.335l-0.222,0.623l-0.178,0.267v0.177l-0.222,0.223v0.356l-0.178,0.356l-0.134,0.712l-0.4,0.712l-0.222,0.622
					l-0.267,1.291l-0.089,0.089v0.312l-0.134,0.312l0.267,0.712l0.4,0.4l0.579,0.089l0.667-0.177l0.578-0.312l0.445-0.356
					l0.089-0.179l0.312-0.089l0.978-1.068l0.356-0.356v-0.177l0.712-0.623v-0.177l0.312-0.49l0.8-1.201l0.757-1.156l0.133-0.09
					l0.49-1.289l0.044-0.223l0.356-0.579l0.401-0.934l0.533-1.335l0.223-0.667l0.222-0.312l0.089-0.712l0.311-0.533l0.445-1.379
					l0.489-1.112v-0.179l0.223-0.222v-0.179l0.222-0.222l0.178-0.49l0.222-0.312l0.222-1.023l0.312-0.667l0.445-0.578l0.49-0.312
					l1.424,0.044h0.311l0.134-0.089l0.667,0.133l1.246-0.133l0.49,0.445v0.623l-0.445,1.512l-0.49,1.335l-0.534,1.335l-0.222,0.666
					l-0.134,0.134l-0.089,0.356l-0.222,0.356l-0.134,0.445l-0.134,0.133l-0.267,1.069l-0.311,0.445l-0.045,0.312l-0.222,0.31
					l-0.134,0.446l-0.133,0.133l-0.134,0.445l-0.222,0.179l-0.044,0.312l-0.223,0.312l-0.356,1.112l-0.356,1.068l-0.222,0.222
					l-0.134,0.712l-0.133,0.134l-0.401,1.424l-0.534,1.289l-0.178,0.756l-0.044,0.757l0.089,0.712l0.356,0.489l0.578,0.267h0.356
					l0.845-0.179l0.623-0.356l1.957-2.046l1.023-1.113l0.222-0.222v-0.179l0.756-1.112l0.178-0.133l0.134-0.312l0.534-0.579
					l0.623-1.112l0.222-0.177v-0.223h0.089v-0.223l0.89-1.156l0.667-0.177l0.445,0.044v0.089l0.312,0.133l0.623,0.623l0.089,0.356
					l-0.133,0.667l-0.712,1.068l-0.045,0.267h-0.134l-0.712,1.289l-0.712,1.202l-0.712,0.845l-0.044,0.223h-0.222v0.089
					l-0.623,0.623v0.177h-0.089l-0.089,0.312l-0.267,0.179l-0.222,0.489l-0.623,0.445l-0.978,1.023l-1.068,0.89l-0.757,0.578
					l-0.356,0.09l-0.177,0.222h-0.179v0.089h-0.222v0.134h-0.178v0.089h-0.222v0.089h-0.178l-0.4,0.179l-1.424,0.177l-1.468,0.134
					l-0.712-0.046l-0.757-0.222v-0.089h-0.178v-0.134l-0.356-0.044l-0.978-0.979l-0.578-1.334l-0.312-0.356h-0.356l-0.312,0.177
					l-0.445,0.534l-0.845,0.756l-0.267,0.044l-0.712,0.489v0.09l-0.311,0.222l-0.401,0.089v0.09l-1.156,0.445l-0.312,0.133
					l-0.712,0.089l-0.134,0.09l-1.424,0.044l-0.4-0.044l-0.089-0.134l-0.667-0.177l-0.667-0.356l-0.934-0.756l-0.045-0.312
					l-0.177-0.089l-0.179-0.846l-0.4-1.068l0.089-1.424l0.178-1.512l0.222-0.623l0.134-0.133l0.044-0.312l0.089-0.044l0.045-1.201
					l0.134-0.134l0.445-1.289l0.222-0.667l0.134-0.134l0.044-0.312h0.089v-0.177l0.222-0.312v-0.179h0.089l0.401-1.112l0.445-1.378
					l0.356-0.667v-0.179l0.356-0.623l0.267-0.8h0.089l0.178-0.712l0.178-0.312l0.089-0.4l0.267-0.267v-0.31l0.578-1.735l0.134-0.09
					l0.178-0.31l0.134-0.534l0.49-1.246h0.089l0.044-0.266l0.445-0.579l1.246-0.177l1.468,0.089l0.712-0.044l0.667,0.133l0.4,0.267
					l0.267,0.356L183.85,304.351z M173.573,323.213l0.223-0.044l0.178-0.267l-0.401-0.089V323.213z M174.375,323.702l0.222,0.09
					l-0.133-0.267h-0.089V323.702z M174.686,320.989l0.089,0.133l0.312,0.044l0.134-0.445l-0.044-0.133l-0.445,0.222v0.09
					L174.686,320.989z M174.686,323.525l0.49,0.089l0.311,0.4h0.178l0.134-0.489l-0.312-0.133h-0.222l-0.178-0.267h-0.312
					l-0.089,0.267V323.525z M174.686,324.726l0.49,0.223l0.133,0.534l0.178,0.133l0.312-0.4l-0.134-0.09l-0.089-0.31l-0.312-0.09
					v-0.4l-0.4,0.044l-0.178,0.267V324.726z M175.176,319.877l0.089,0.266l0.178,0.046l0.267-0.223l-0.267-0.177h-0.178
					L175.176,319.877z M175.976,321.167l0.134-0.089l-0.045-0.133l-0.177-0.044l0.044,0.222L175.976,321.167z M176.288,319.077
					l0.222-0.712l-0.267-0.179h-0.134v0.712l0.089,0.133L176.288,319.077z M176.688,323.792l-0.178-0.356l-0.178-0.089l-0.222,0.044
					l0.445,0.4H176.688z M176.599,325.437v-0.133l0.623-0.133l0.089-0.134l-0.267-0.222l-0.312-0.446l-0.623-0.177l0.134,0.756
					l0.267,0.445L176.599,325.437z M176.777,317.964l0.089-0.133l-0.044-0.133l-0.445-0.134l0.044,0.179l0.267,0.222H176.777z
					 M176.91,317.252h0.178v-0.266l-0.178-0.044V317.252z M178.023,316.051l0.177,0.089l0.089-0.177l-0.178-0.134l-0.044,0.134
					L178.023,316.051z M178.512,315.339v-0.179l-0.4-0.133v0.223l0.089,0.133h0.223L178.512,315.339z M179.135,311.113l0.089-0.4
					l-0.222,0.044l-0.089,0.133l0.134,0.223H179.135z M179.001,313.515h0.222v-0.179h-0.222V313.515z M182.96,321.878h0.178
					l0.089-0.266h-0.267V321.878z M183.361,321.612h0.133l0.267,0.489l0.267,0.089l0.178-0.089l0.134-0.223l-0.445-0.266
					l-0.177-0.623h-0.179l-0.177,0.533V321.612z M183.939,320.099l0.044,0.534l0.312,0.044l0.267-0.223v-0.177l-0.356-0.223
					l-0.044-0.266h-0.312l-0.089,0.089l0.133,0.177L183.939,320.099z M184.562,323.702l-0.044-0.177l-0.178-0.133l-0.089,0.133
					l0.045,0.133l0.134,0.044H184.562z M187.365,317.475h-0.178l-0.178,0.133l-0.267,0.623l-0.177,0.044l-0.134-0.533l-0.178-0.089
					l-0.089,0.177l0.089,0.356l-0.4,0.267l0.133,0.312l0.49,0.712l-0.222,0.312l-0.579-0.401h-0.222l-0.4,0.534l-0.312,0.177
					l0.045,0.179l0.177,0.177l0.401,0.046l0.311-0.579l0.089-0.044l0.445,0.222l0.044,0.179l-0.356,0.089l-0.534,0.4h-0.267
					l-0.134,0.134l0.312,0.133l0.089,0.356h-0.178l-0.223-0.223h-0.089v0.935l-0.534,0.177v0.179l0.312,0.133l0.222,0.223v0.223
					l0.178,0.266l0.4-0.177l0.222,0.267l-0.4,0.8l0.712,0.312l-0.044-0.179l-0.134-0.089l-0.044-0.223h0.89l0.044-0.177l0.267-0.223
					v-0.089l-0.134-0.089l-0.178-0.312l-0.134-0.044l-0.134,0.267l-0.222-0.09l-0.267-0.267v-0.31l0.4-0.044l0.089-0.223
					l-0.845-0.044l-0.178-0.267l0.267-0.177l-0.089-0.534l0.445-0.223l0.178,0.046l0.222,0.266l-0.044,0.179l-0.534,0.089
					l-0.044,0.267l0.178,0.044l0.845-0.579l0.178,0.712l0.222,0.134l0.178-0.134h-0.089l-0.223-0.4l0.134-0.133v-0.667l0.178-0.712
					l-0.178-0.267v-0.133l0.178-0.089l0.089-0.223l-0.089-0.4l0.445-0.134l0.089-0.266l-0.4,0.044l-0.222-0.134v-0.177l0.177-0.267
					l0.445-0.4v-0.356l-0.49-0.044L187.365,317.475z M184.74,318.987l-0.178,0.09v0.089l0.178,0.089l0.49-0.177l0.222-0.223v-0.179
					l-0.49-0.222l-0.177,0.445L184.74,318.987z M185.051,324.593l0.044,0.179l0.578,0.445l-0.089-0.4l-0.222-0.267h-0.222
					L185.051,324.593z M185.274,318.053l0.312-0.046l0.089-0.133l-0.4-0.133V318.053z M186.965,320.277l-0.044,0.133l-0.223,0.134
					l-0.222-0.179v-0.089l0.134-0.089l0.267,0.044L186.965,320.277z M186.875,315.251l0.356,0.312l0.178-0.044l0.044-0.357
					l-0.222-0.222h-0.222l-0.134-0.089v-0.09h-0.311v0.179L186.875,315.251z M187.187,317.163l0.134-0.356v-0.356l-0.134-0.133
					h-0.178l-0.044-0.089l0.133-0.312l-0.089-0.09l-0.178,0.044l-0.178,0.267l-0.089,0.356l0.089,0.534l0.4,0.133H187.187z
					 M187.053,324.815l0.178,0.089l0.222-0.089v-0.09l-0.133-0.089l-0.223,0.089L187.053,324.815z M187.453,313.025h0.223
					l0.222-0.177l-0.089-0.445l-0.222-0.09v0.223l-0.222,0.356l0.044,0.044L187.453,313.025z M187.988,315.651l-0.223,0.044
					l-0.133,0.312l-0.267,0.267l0.267,0.133l0.044,0.267h0.312l0.089,0.089l0.044,0.533l0.178,0.046l0.267-0.179v-0.177
					l-0.401-0.312v-0.223l0.089-0.089l0.445,0.177l0.089-0.31l-0.312-0.667v-0.312l-0.4-0.312v0.4l-0.089,0.223V315.651z
					 M187.453,314.449l0.623,0.312v-0.222l0.089-0.09l-0.133-0.355l-0.356-0.357l-0.223,0.623V314.449z M189.589,313.115
					l-0.311-0.179l-0.356,0.044l-0.134,0.356l0.089-0.044l0.179,0.312l0.311,0.267v0.177l-0.267,0.179h-0.223l0.179,0.445
					l-0.089,0.267l0.445-0.223l0.089-0.667l0.134-0.089l0.178-0.312l-0.134-0.089l-0.089-0.356V313.115z M189.278,311.736
					l0.267-0.179v-0.31l-0.178-0.046l-0.089,0.4V311.736z M189.99,312.715l0.089,0.044l0.134-0.134l-0.134-0.312l-0.089,0.312
					V312.715z M190.701,311.024l-0.045-0.179l-0.177-0.133l-0.089,0.133l0.044,0.134l0.134,0.044H190.701z M190.479,308.8v0.489
					l0.311,0.133l0.534-0.133v-0.312l0.134-0.089l0.044-0.179l-0.134-0.133l-0.311-0.044l-0.49,0.222L190.479,308.8z
					 M191.413,307.51l-0.134-0.312h-0.267l0.045,0.223l0.134,0.133h0.133L191.413,307.51z"/>
			</g>
			<g>
				<path fill="#FFFFFF" d="M207.291,304.306l0.356,0.177l1.201-0.622l0.267-0.267h0.311l0.49-0.177l0.134-0.134l1.379-0.223
					l1.379,0.046l0.667,0.177l0.801,0.4l0.089,0.134l0.267,0.044l0.756,0.622l0.044,0.267l0.223,0.223l0.311,1.023l0.222,0.222
					l0.223,1.246l0.089,1.512l-0.267,1.424l-0.267,1.379l-0.311,1.424l-0.267,0.89l-0.134,0.089l-0.089,0.712l-0.089,0.089
					l-0.089,0.623h-0.089l-0.445,1.289l-0.356,0.579l-0.49,1.291l-0.445,0.756l0.089,0.312l0.49,0.4l0.712-0.09l1.201-0.666
					l0.623-0.356l1.023-0.979l0.534-0.489l0.356-0.579l0.222-0.179l0.044-0.222h0.089l0.756-1.112l0.667-0.89l0.267-0.133
					l1.113,0.133l0.489,0.489l0.223,0.846l-0.267,0.667l-0.623,0.979l-0.089,0.044l-0.044,0.266l-0.979,0.979l-0.089,0.312
					l-0.579,0.445l-0.089,0.267l-0.756,0.8l-0.267,0.044l-0.489,0.446l-0.312,0.089l-0.089,0.177l-1.201,0.623l-1.29,0.534
					l-1.379,0.266l-1.335,0.267l-1.512,0.223l-1.023,0.889l-1.068,0.89l-1.157,0.712l-0.445,0.312l-0.667,0.222l-0.222,0.223
					l-0.623,0.133l-0.623,0.267l-1.201,0.223h-1.557l-1.512-0.179l-0.712-0.177l-0.801-0.401l-1.156-0.933l-0.223-0.267
					l-0.044-0.177l-0.222-0.179l-0.134-0.356l-0.222-0.267v-0.222h-0.134v-0.223h-0.089l-0.178-0.979l-0.222-1.424v-1.334
					l0.089-1.158l0.312-1.424l0.044-0.666l0.312-1.379l0.089-0.312l0.134-0.134l0.044-0.31l0.267-0.623l0.222-0.223l0.089-0.712
					l0.49-1.023l0.134-0.578l0.089-0.09l0.089-0.578l0.4-0.935l0.222-0.222l0.401-1.023l0.4-1.068l0.312-0.401l0.044-0.266
					l0.134-0.134l0.222-1.023l0.089-0.089l0.089-0.489l0.134-0.134l0.49-1.201l0.623-1.335l0.267-0.666l0.134-0.09l0.445-1.334
					l0.312-0.667l0.222-1.023l0.222-0.223l0.178-0.712l0.134-0.089l0.133-0.623l0.356-0.579l0.134-0.445l0.222-0.267l0.312-0.666
					l0.49-0.4l0.712-0.134l1.424,0.089l1.424-0.089l0.578,0.134l0.178,0.133l0.045,0.222h0.133l0.089,0.667l-0.089,0.356h-0.089
					l-0.445,0.935l-0.134,0.534l-0.222,0.266l-0.445,1.379l-0.178,0.49l-0.223,0.222l-0.445,1.335l-0.044,0.177l-0.223,0.179v0.312
					l-0.623,1.289l-0.178,0.623l0.044,0.179L207.291,304.306z M198.439,318.81l0.222,0.222h0.312v-0.4l-0.089-0.177l-0.134-0.044
					l-0.044,0.133l-0.178,0.044l-0.089,0.133V318.81z M199.863,315.872v-0.177l0.267-0.489l-0.178-0.223l-0.4,0.623l0.178,0.222
					L199.863,315.872z M200.173,320.945l0.179-0.044l0.133-0.179h-0.178l-0.134,0.133V320.945z M200.485,316.674l0.178,0.133
					l0.089-0.223l-0.178-0.089L200.485,316.674z M201.553,312.848l-0.267,0.223v0.177l0.178,0.134l-0.044,0.266l-0.445,0.446
					l0.978,0.177l0.179-0.312v-0.177l-0.179-0.312l-0.177-0.089l-0.134,0.044l-0.178-0.179l0.044-0.223l0.445-0.044l-0.133-0.356
					l-0.445-0.356l-0.044,0.134l0.222,0.312V312.848z M201.375,320.41l-0.311,1.468l0.089,0.579l0.49,0.579l0.534,0.4l0.712,0.222
					l0.756-0.089l0.623-0.312l0.533-0.4l0.49-0.579l0.089-0.266l-0.312-0.579L204,320.455l-0.534-0.445l-0.267-0.489l-0.223-0.09
					l-0.133-0.31l-0.356-0.49l-0.312-0.133l-0.312,0.133l-0.222,0.267l-0.178,0.667l-0.089,0.756V320.41z M202.398,310.535
					l0.312-0.134l0.089-0.267l-0.356,0.09l-0.044,0.222V310.535z M202.487,311.469l0.578,0.267l0.134-0.089v-0.4l-0.312-0.134
					l-0.4-0.044V311.469z M203.066,308.622l-0.312,0.4l-0.044,0.223l0.089,0.089l0.178-0.044l0.4-0.445h0.223l-0.134-0.356
					l-0.222-0.223l-0.267-0.044l0.044,0.356L203.066,308.622z M203.466,306.709l0.044-0.134l0.445-0.044l0.044-0.133l-0.178-0.044
					l-0.222-0.223l-0.178,0.044l-0.045,0.49L203.466,306.709z M203.599,309.956l0.178-0.044v-0.179l-0.178-0.089V309.956z
					 M204.889,308.933v-0.623l-0.178-0.177l-0.312,0.044l-0.089-0.134l0.222-0.31v-0.134l-0.134-0.177h0.089l0.089-0.134
					l-0.044-0.177l-0.222-0.089l0.044,0.222l-0.4,0.49L204,308.31l0.222-0.089l0.267,0.179l0.134,0.31l0.177,0.179L204.889,308.933z
					 M207.826,319.21l0.089-0.312l0.712-1.291l0.267-0.533l0.222-0.712l0.178-0.267l0.489-1.289l0.401-1.113l0.134-0.356v-0.266
					l0.133-0.09l0.223-1.068l0.177-0.978l0.089-0.09l0.089-0.845l-0.089-1.068l-0.356-0.623l-0.578-0.489l-0.534-0.223h-1.201
					l-0.578,0.223l-0.801,0.623l-0.178,0.044l-0.222,0.266l-0.49,0.267l-0.4,0.623l-0.312,0.179v0.222l-0.178,0.089l-0.534,1.023
					h-0.089v0.179H204.4v0.312l-0.222,0.578l-0.134,1.558v1.424l0.4,1.334l0.49,1.202l0.178,0.044l0.089,0.312l0.222,0.312
					l0.267,0.177l0.222,0.312h0.178l0.133,0.223l0.401,0.089l0.356,0.222l0.311,0.09l0.445-0.267L207.826,319.21z M204.088,305.418
					l0.179-0.044l0.133-0.267l-0.089-0.089l-0.223,0.223V305.418z M204.711,304.618h0.267v-0.312h-0.267V304.618z M205.379,305.73
					l0.222-0.4l-0.312-0.134l-0.089,0.357l0.089,0.133L205.379,305.73z M205.29,302.171l0.356-0.133l0.178-0.267l-0.222-0.445
					l-0.312-0.044V302.171z M205.379,303.506l0.178,0.089l0.178-0.044l0.356-0.267l-0.044-0.312l-0.134-0.089v0.223l-0.49,0.312
					L205.379,303.506z M205.823,307.821l0.312-0.179l-0.134-0.133l-0.178,0.223V307.821z M206.313,302.171l-0.4-0.089v0.222
					l0.134,0.09l0.177-0.046L206.313,302.171z M207.291,298.879l0.089,0.133l0.178,0.044l0.044-0.089l-0.623-0.4l-0.134,0.044
					l-0.134,0.267H207.291z M206.713,299.457l0.178,0.09l0.134-0.179l-0.222-0.089L206.713,299.457z M207.826,321.522l0.489,0.179
					l0.178-0.044l0.045-0.356l-0.356-0.267l-0.179,0.044l-0.177,0.312V321.522z M209.027,321.924l0.089,0.044l0.134-0.09
					l-0.045-0.266h-0.178V321.924z M209.828,322.546l0.311-0.133l0.179-0.267l-0.267-0.133h-0.222V322.546z M210.45,320.722
					l0.979-0.222l-0.044-0.223l-0.223-0.179l-0.845-0.089l-0.089,0.356l0.178,0.312L210.45,320.722z M210.45,305.73l0.579,0.177
					l-0.179,0.667l0.089,0.356l0.4-0.222l0.222,0.133h0.179l0.4,0.312l0.534,0.889l-0.222,0.046l-0.267,0.177l-0.445-0.044v0.223
					l0.267,0.222l0.712,0.044l0.044,0.712l0.134,0.09l0.044,0.222h0.223l0.133,0.09l0.178,0.666l-0.134,0.267l0.712,0.179
					l0.223,0.489l0.178,0.044l0.134-0.267l-0.045-0.133l-0.4-0.312l0.134-0.4l0.267,0.179h0.134l0.312-0.446l0.089-0.266
					l-0.089-0.09l-0.356,0.09l-0.579-0.179l-0.222,0.179l-0.178-0.09l0.223-0.267l0.712-0.177l0.445-0.267l0.044-0.177l-0.133-0.134
					l-0.089-0.266h-0.222l-0.356-0.401l0.4-0.222l0.312,0.356l0.267,0.044l0.089-0.089v-0.179l-0.178-0.133v-0.179l-0.312-0.222
					l-0.178-0.312l-0.49-0.179v-0.312l0.312-0.177l0.089-0.133l-1.023-0.712l-0.49,0.31l0.178,0.757l0.4,0.756h0.4l0.223,0.222v0.09
					l-0.801-0.044l-0.578-0.223l-0.044-0.179l0.089-0.266l-0.044-0.134l-0.445-0.267l0.089-0.712l-0.178,0.046l-0.222,0.356h-0.089
					l-0.222-0.267l-0.667-0.267l-0.267-0.267l-0.045-0.177h-0.311l-0.089,0.267V305.73z M210.85,317.074h0.179l0.133-0.179
					l-0.312-0.089V317.074z M211.162,304.707l0.134,0.312l0.267,0.223l0.267,0.089l0.134-0.267l-0.222-0.445l-0.134-0.044
					l-0.356,0.133H211.162z M211.562,306.531l0.045-0.133h0.178l0.089,0.133l-0.044,0.089h-0.178l-0.044-0.089H211.562z
					 M212.052,317.786v-0.179l-0.222-0.222l-0.089,0.177l0.177,0.223H212.052z M212.052,310.935l-0.267,0.133v0.356l0.445,0.223
					l0.089,0.356l0.311,0.044l0.134-0.089l0.578,1.201l0.223-0.044l0.089-0.134l0.667,0.267l0.267-0.089l-0.045-0.179l-0.4-0.266
					v-0.134l-0.49,0.09l-0.312-0.935l-0.578-0.044l-0.311-0.356l-0.134-0.89h-0.178l-0.089,0.134V310.935z M211.829,307.643h0.178
					v-0.312h-0.178V307.643z M212.23,313.248l0.223-0.667l-0.134-0.089l-0.178-0.312l-0.134,0.044l-0.134,0.312v0.4l0.267,0.312
					H212.23z M213.342,305.33l-0.089-0.312h-0.178v0.177l0.178,0.134H213.342z M213.876,308.933l-0.356,0.133l-0.223,0.179
					l-0.044,0.177l-0.134-0.133v-0.133l0.222-0.267l0.179-0.089l0.044-0.179l-0.312-0.356l0.044-0.177l0.356-0.046l0.223,0.579
					V308.933z M213.742,312.047l0.044,0.177l0.267,0.223l0.267-0.134l0.089-0.222l-0.044-0.133l-0.578,0.044L213.742,312.047z
					 M213.965,313.871h0.178v-0.179h-0.178V313.871z"/>
			</g>
			<g>
				<path fill="#FFFFFF" d="M238.874,309.734l-0.356,1.424l-0.267,0.667l-0.089,0.445h-0.089v0.179h-0.134v0.223h-0.089v0.177
					h-0.089v0.223l-0.267,0.266l-0.222,1.068l-0.267,0.401l-0.089,0.31l-0.267,0.267l-0.356,1.379l-0.579,1.291l-0.311,0.622
					l-0.178,0.846l-0.178,0.222v0.179l-0.267,0.623l-0.267,0.889l-0.044,0.8l0.089,0.802l0.222,0.533l0.267,0.044l0.044,0.179h0.712
					l1.201-0.534l1.068-0.934l0.312-0.134l0.8-0.756l0.356-0.579l0.445-0.445l0.89-1.112l0.089-0.312l0.222-0.089l0.089-0.312
					l0.222-0.089l0.089-0.312l0.177-0.089l0.134-0.312l0.356-0.356l0.045-0.267l0.578-0.889l0.222-0.179l0.712-1.289l0.134-0.134
					l0.623-0.133l0.712,0.222l0.356,0.267l0.356,0.623l0.044,0.4l-0.267,0.667l-0.222,0.267l-0.312,0.667l-0.178,0.177v0.177
					l-0.312,0.401l-0.089,0.356l-0.134,0.044v0.177h-0.134l-0.044,0.312l-0.4,0.579l-0.401,0.356l-0.089,0.312l-0.178,0.089
					l-0.134,0.312l-0.312,0.222l-0.044,0.267l-0.356,0.356l-0.089,0.267l-0.178,0.089l-0.356,0.534l-1.068,1.068l-1.068,0.934
					l-1.068,0.89l-0.267,0.266h-0.178v0.09h-0.222v0.133h-0.178l-0.089,0.179h-0.223l-0.222,0.222l-1.112,0.49h-0.267l-0.178,0.133
					l-1.379,0.267l-0.356,0.089l-1.424-0.179l-0.667-0.177l-0.578-0.267l-1.023-1.023l-0.667-0.845l-0.044-0.267l-0.534-0.356
					l-1.201,0.8l-1.023,1.023l-1.112,0.534l-0.134,0.133l-0.667,0.223l-1.113,0.133l-0.089,0.089l-1.29,0.09l-1.201-0.267
					l-0.045-0.133h-0.177v-0.09h-0.223v-0.089h-0.178v-0.133l-0.49-0.179l-0.8-0.756l-0.044-0.267l-0.267-0.222l-0.133-0.579
					l-0.089-0.089l-0.089-0.623h-0.089l-0.178-1.335v-1.468l0.222-1.424v-0.756l0.089-0.089l0.267-1.424l0.089-0.044l0.222-0.712
					l0.089-0.623l0.445-1.291l0.178-0.266l0.4-1.335l0.356-0.8l0.089-0.712l0.134-0.09l0.311-0.578l0.089-0.356l0.489-0.935
					l0.401-0.445l0.267-0.712l0.267-0.445l0.4-0.356l0.089-0.312l0.179-0.09l0.356-0.622l0.177-0.09l0.089-0.31l0.978-0.979
					l0.179-0.089l0.311-0.4l0.222-0.046l0.134-0.222l0.312-0.044l0.222-0.223h0.178l0.267-0.267l0.311-0.044l0.089-0.223h0.178
					l0.134-0.177h0.222l0.178-0.223l1.379-0.356h1.468l1.201,0.267v0.089l0.489,0.134l0.935,0.712l0.534,0.533l0.534,0.846
					l0.044,0.266l0.623,0.401l0.356,0.044l0.089-0.09h0.356l1.156-0.578l1.291-0.534l0.534-0.312l1.023-0.4l0.356,0.044l0.445,0.446
					l0.134,0.266l-0.223,0.756l-0.578,1.335l-0.534,1.291l-0.667,1.156L238.874,309.734z M221.346,322.013l0.578-0.089l0.222-0.223
					h-0.534l-0.222,0.223L221.346,322.013z M222.147,320.01l0.044-0.133l-0.133-0.356l-0.223-0.223l-0.089,0.179l0.134,0.312
					l0.222,0.177L222.147,320.01z M222.058,315.161l0.089-0.133l-0.044-0.177l-0.178-0.09l-0.089,0.179l0.089,0.222H222.058z
					 M223.17,316.986l-0.312-0.09v0.179h0.267L223.17,316.986z M230.11,307.91h-0.222v0.089h-0.178v0.134l-0.267,0.044l-0.222,0.312
					l-0.312,0.133l-0.89,1.068l-0.8,1.201l-0.801,1.158l-0.267,0.489h-0.089v0.223l-0.133,0.044l-0.045,0.356l-0.356,0.578
					l-0.534,1.246l-0.312,0.979l-0.222,1.023l-0.49,1.201l-0.356,1.335l-0.044,1.424l0.089,0.8l0.534,0.8l0.445,0.223l0.4,0.089
					l0.757-0.044l0.623-0.177l0.312-0.179l0.044-0.133h0.223l0.089-0.223h0.178l0.978-0.935l0.935-1.023l0.578-0.712l0.534-1.245
					l0.445-1.335l0.134-0.133l0.356-0.935l0.134-0.133l0.49-1.335l0.222-0.756l0.49-1.246l0.578-1.289l0.134-0.756l-0.134-1.246
					l-0.267-0.267l-0.089-0.355l-0.222-0.267l-0.578-0.312l-1.068-0.223l-0.089,0.134l-0.667,0.133L230.11,307.91z M223.838,311.959
					l0.044,0.177l0.356,0.223l0.134-0.312l-0.045-0.134h-0.445L223.838,311.959z M226.373,309.823l0.089,0.044l0.134-0.09
					l0.045-0.177l0.222-0.179v-0.089l-0.178-0.089l-0.4,0.445l0.044,0.044L226.373,309.823z M228.597,306.709l0.356-0.044
					l0.045-0.267l-0.312-0.089l-0.089,0.266V306.709z M229.71,306.309h0.178l0.089-0.223l-0.178-0.089l-0.089,0.222V306.309z
					 M230.422,323.748l0.134-0.179l-0.089-0.267l-0.178-0.089l-0.044,0.356l0.089,0.133L230.422,323.748z M230.288,320.589
					l0.134,0.089l0.4-0.177l-0.044-0.179l-0.356-0.223l-0.134,0.401V320.589z M231,321.034l0.044,0.179l0.312,0.133l0.267-0.133
					v-0.09l-0.312-0.177l-0.223,0.044L231,321.034z M231.089,323.925l0.134,0.312l0.578-0.044l0.134-0.356l-0.178,0.089
					l-0.578-0.044L231.089,323.925z M231.489,319.387l0.356-0.133l-0.089-0.312l-0.356-0.133l-0.089,0.089l0.178,0.4V319.387z
					 M231.4,319.789l0.312,0.177l0.356,0.044l0.267-0.133l0.089-0.179l-0.044-0.177l-0.267-0.223l-0.667,0.4L231.4,319.789z
					 M232.512,320.811l-0.756,0.044l-0.044,0.134l0.178,0.356l0.134,0.089l0.222-0.133h0.578l0.044-0.134l-0.311-0.266
					L232.512,320.811z M232.379,316.54l-0.178,0.179l-0.178,0.445l0.133,0.089v0.356l0.089,0.09h0.222l0.267,0.356l0.178,0.044
					l0.222-0.09l-0.134-0.31h-0.178l-0.133-0.179l0.044-0.133l0.489,0.089l0.089-0.133h0.534l0.222,0.222l0.178-0.089v-0.223
					l-0.445-0.356l0.044-0.222l-0.445,0.222l-0.356-0.089l-0.312-0.445l-0.044,0.177H232.379z M232.601,322.546l-0.044-0.177
					l-0.312-0.134l-0.222,0.09l0.133,0.266l0.579,0.134l0.089-0.134l0.178-0.044l0.222-0.533l-0.267,0.044l-0.134,0.356
					l-0.133,0.089L232.601,322.546z M232.913,324.148l0.222-0.223v-0.356l-0.312-0.133l-0.222,0.222v0.356l0.178,0.134H232.913z
					 M233.135,315.695h0.979l0.089-0.133l-0.044-0.49l0.178-0.089l0.356,0.223l0.134-0.09l-0.045-0.177l-0.712-0.179h-0.534
					l-0.4,0.846V315.695z M233.847,313.471l-0.356,0.044l-0.178,0.356l0.712,0.089l-0.134-0.4L233.847,313.471z M233.936,316.496
					l0.134,0.044l0.267-0.222l0.534-0.134l0.044-0.222l-0.134,0.044l-0.445-0.223l-0.401,0.579V316.496z M234.114,318.81l0.133-0.4
					h-0.222l-0.089,0.133l0.089,0.223L234.114,318.81z M234.025,311.959l0.134,0.31l0.222,0.09l0.267-0.09v-0.31l-0.133-0.09
					l-0.4,0.044L234.025,311.959z M234.114,313.737l0.267,0.179l0.712,0.133l0.267,0.223l-0.222,0.667v0.356l0.089,0.177
					l0.356-0.445l0.133-0.312l0.267-0.222l0.044-0.223l-0.178-0.089l-0.089-0.312l-0.356-0.044l-0.134-0.312l-0.4-0.267
					l-0.089-0.356l0.045-0.133h-0.401l-0.222,0.177l-0.089,0.712V313.737z M234.337,309.422l0.089,0.044v0.267l0.178-0.044
					l0.089-0.312l0.134-0.044l0.177,0.089l0.267-0.133l0.089-0.177l-0.311-0.179l-0.667,0.445L234.337,309.422z M234.826,310.935
					l0.267,0.177l0.134,0.534l0.178-0.223l0.044-0.4l-0.4-0.534l-0.222,0.046l0.089,0.044l-0.089,0.266V310.935z M234.915,312.448
					l0.445,0.489l0.49,0.134l0.089-0.179v-0.356l-0.223-0.267h-0.177l-0.089,0.267l-0.356-0.177L234.915,312.448z M235.226,308.622
					h0.4l-0.312-0.579l-0.089-0.044l-0.089,0.134l0.045,0.445L235.226,308.622z M235.538,309.512l-0.267,0.222l-0.044,0.179
					l0.4-0.044l0.267-0.223l0.044-0.179l-0.089-0.222l-0.178,0.044l-0.089,0.133L235.538,309.512z M236.027,311.024l0.089,0.356
					l0.134,0.044l0.311-0.133l0.089-0.267l-0.178-0.044v-0.134l-0.534-0.4l-0.178-0.312l-0.089,0.179L236.027,311.024z
					 M235.76,311.736l0.134,0.312l0.133,0.089h0.4l0.045,0.312l0.267,0.089l0.178-0.756v-0.312l-0.178-0.044l-0.133,0.312
					l-0.801-0.044L235.76,311.736z M236.027,308.4v0.31l0.134,0.09h0.356l0.134-0.09l-0.178-0.31l-0.401-0.046L236.027,308.4z
					 M236.828,309.645v-0.312l-0.267-0.222l-0.044,0.133l0.134,0.312L236.828,309.645z M236.561,307.198v0.223l0.356,0.089
					l0.134-0.089v-0.223l-0.178-0.089l-0.267,0.044L236.561,307.198z M236.828,310.445l0.089-0.312l-0.089-0.177l-0.267-0.044v0.4
					l0.089,0.133H236.828z M237.362,310.757l0.089-0.489l-0.089-0.179l-0.223-0.044l0.045,0.579l0.089,0.089L237.362,310.757z
					 M237.362,308.933h0.312l0.089-0.312l-0.222,0.044l-0.134,0.179L237.362,308.933z"/>
			</g>
			<g>
				<path fill="#FFFFFF" d="M273.168,312.671l-0.089,1.022l-0.356,0.979l-0.445,0.756l-0.401,0.445l-1.424,0.134l-0.311-0.134
					l-0.712,0.134h-2.135l-0.712-0.134l-1.379,0.134l-1.468-0.089l-0.356,0.089l-0.401-0.044l-0.311-0.267l-0.179,0.223l-0.8,0.133
					l-0.756-0.179l-0.534-0.355l0.044-1.023l0.49-1.112l0.133-0.712l0.49-0.446l0.534-0.312l1.201-0.089l1.602,0.044l1.512,0.09
					l0.134-0.09l1.469,0.09l1.334,0.089l1.334-0.223l1.513,0.179l0.534,0.222l0.4,0.356L273.168,312.671z M263.515,314.36
					l-0.044-0.177l-0.178-0.089l-0.089,0.133l0.045,0.133H263.515z M264.316,314.094l-0.312,0.089l-0.044,0.089l0.222,0.312
					l0.134,0.044l0.178-0.312l0.312-0.267l-0.134-0.489l-0.178-0.089l-0.134,0.533L264.316,314.094z M265.917,313.693l0.489,0.09
					v-0.179l-0.177-0.222l-0.045-0.357l-0.089-0.044l-0.134,0.623L265.917,313.693z M267.608,313.382l0.089,0.133v0.579l0.222,0.177
					l0.089-0.044l-0.089-0.267l0.222-0.044l0.089-0.133l-0.089-0.134v-0.266l-0.445-0.09L267.608,313.382z M270.144,314.983
					l0.311,0.089l0.134-0.222l0.356-0.134l0.222-0.222l-0.089-0.09l-0.445,0.09l-0.178-0.223l-0.356,0.044v0.623L270.144,314.983z"
					/>
			</g>
		</g>
	</g>
</g>
<g id="Spots" display="none">
</g>
</svg>
