<svg xmlns="http://www.w3.org/2000/svg" width="384" height="550"><g fill="#fff"><path d="M153.465 267.717v-29.98h-40.005v29.98h-5.391v-63.081h5.391v28.183h40.005v-28.183h5.391v63.081h-5.391zM220.231 267.717l-6.242-15.51h-33.385l-6.242 15.51h-6.242l25.819-63.081h6.715l25.818 63.081h-6.241zm-22.888-57.313l-14.943 36.884h29.791l-14.848-36.884zM226.753 222.605l-2.742-2.269c3.026-2.081 5.296-5.769 5.485-8.796 0 .094-.662.189-.946.189-2.27 0-3.877-1.702-3.877-3.972 0-2.175 1.797-4.067 4.066-4.067 2.554 0 4.824 2.175 4.824 6.053-.001 5.296-3.122 10.214-6.81 12.862zM153.749 346.31l-6.242-15.51h-33.385l-6.242 15.51h-6.242l25.819-63.081h6.715l25.818 63.081h-6.241zm-22.888-57.312l-14.943 36.884h29.791l-14.848-36.884zM169.255 346.31v-63.081h23.644c12.106 0 19.009 8.512 19.009 18.442 0 9.931-6.999 18.442-19.009 18.442h-18.253v26.197h-5.391zm36.979-44.639c0-7.944-5.485-13.524-13.903-13.524h-17.685v27.049h17.685c8.418-.001 13.903-5.675 13.903-13.525zM261.464 346.31l-6.242-15.51h-33.385l-6.242 15.51h-6.242l25.818-63.081h6.716l25.818 63.081h-6.241zm-22.887-57.312l-14.943 36.884h29.791l-14.848-36.884zM276.971 346.31v-63.081h5.391v63.081h-5.391z"/></g></svg>