<?xml version="1.0" encoding="utf-8"?>
<!-- Generator: Adobe Illustrator 17.0.0, SVG Export Plug-In . SVG Version: 6.00 Build 0)  -->
<!DOCTYPE svg PUBLIC "-//W3C//DTD SVG 1.1//EN" "http://www.w3.org/Graphics/SVG/1.1/DTD/svg11.dtd">
<svg version="1.1" xmlns="http://www.w3.org/2000/svg" xmlns:xlink="http://www.w3.org/1999/xlink" x="0px" y="0px" width="384px"
	 height="550px" viewBox="0 0 384 550" enable-background="new 0 0 384 550" xml:space="preserve">
<g id="Borders" display="none">
	<g display="inline">
		<rect x="0.392" y="-0.055" fill="#5D5D5D" width="384" height="550"/>
	</g>
</g>
<g id="Labels">
</g>
<g id="Names">
	<g>
		<path fill="#FFFFFF" d="M153.465,267.717v-29.98H113.46v29.98h-5.391v-63.081h5.391v28.183h40.005v-28.183h5.391v63.081H153.465z"
			/>
		<path fill="#FFFFFF" d="M220.231,267.717l-6.242-15.51h-33.385l-6.242,15.51h-6.242l25.819-63.081h6.715l25.818,63.081H220.231z
			 M197.343,210.404l-14.943,36.884h29.791L197.343,210.404z"/>
		<path fill="#FFFFFF" d="M226.753,222.605l-2.742-2.269c3.026-2.081,5.296-5.769,5.485-8.796c0,0.094-0.662,0.189-0.946,0.189
			c-2.27,0-3.877-1.702-3.877-3.972c0-2.175,1.797-4.067,4.066-4.067c2.554,0,4.824,2.175,4.824,6.053
			C233.562,215.039,230.441,219.957,226.753,222.605z"/>
		<path fill="#FFFFFF" d="M153.749,346.31l-6.242-15.51h-33.385l-6.242,15.51h-6.242l25.819-63.081h6.715l25.818,63.081H153.749z
			 M130.861,288.998l-14.943,36.884h29.791L130.861,288.998z"/>
		<path fill="#FFFFFF" d="M169.255,346.31v-63.081h23.644c12.106,0,19.009,8.512,19.009,18.442c0,9.931-6.999,18.442-19.009,18.442
			h-18.253v26.197H169.255z M206.234,301.671c0-7.944-5.485-13.524-13.903-13.524h-17.685v27.049h17.685
			C200.749,315.195,206.234,309.521,206.234,301.671z"/>
		<path fill="#FFFFFF" d="M261.464,346.31l-6.242-15.51h-33.385l-6.242,15.51h-6.242l25.818-63.081h6.716l25.818,63.081H261.464z
			 M238.577,288.998l-14.943,36.884h29.791L238.577,288.998z"/>
		<path fill="#FFFFFF" d="M276.971,346.31v-63.081h5.391v63.081H276.971z"/>
	</g>
</g>
<g id="Spots" display="none">
</g>
</svg>
