<?xml version="1.0" encoding="utf-8"?>
<!-- Generator: Adobe Illustrator 17.0.0, SVG Export Plug-In . SVG Version: 6.00 Build 0)  -->
<!DOCTYPE svg PUBLIC "-//W3C//DTD SVG 1.1//EN" "http://www.w3.org/Graphics/SVG/1.1/DTD/svg11.dtd">
<svg version="1.1" xmlns="http://www.w3.org/2000/svg" xmlns:xlink="http://www.w3.org/1999/xlink" x="0px" y="0px" width="384px"
	 height="550px" viewBox="0 0 384 550" enable-background="new 0 0 384 550" xml:space="preserve">
<g id="Borders" display="none">
	<g display="inline">
		<rect x="0.392" y="-0.055" fill="#5D5D5D" width="384" height="550"/>
	</g>
</g>
<g id="Labels">
</g>
<g id="Names">
	<g>
		<path fill="#FFFFFF" d="M129,294.639v-1.329c0-0.771-1.004-2.197-8.113-3.117l-3.97,2.068l-3.484,16.625
			C120.817,303.985,126,299.192,129,294.639z"/>
		<path fill="#FFFFFF" d="M218.1,215.822c2.695-2.684,4.912-4.69,6.676-6.041l-0.399-0.333l-0.219,0.038l-5.227,4.442l-0.536,0.094
			l-2.005,2.381l1.144-1.056L218.1,215.822z"/>
		<path fill="#FFFFFF" d="M176,229.053c0-0.423-1.048-0.875-3.747-0.875c-0.496,0-1.122,0.015-1.708,0.045l-0.379,0.062
			l-0.661,0.691L168,229.211v-0.236l-1.223,0.941l0.37,0.243l-4.468,4.743l-0.159,0.028c-2.05,0.36-5.249,3.717-8.874,17.65
			c0.022,2.879,1.603,5.08,4.812,6.722l0.434-0.074c4.058-0.713,8.857-6.031,14.199-15.808c1.879-4.497,2.909-7.765,2.909-9.668
			V229.053z"/>
		<path fill="#FFFFFF" d="M129.896,291.027v-0.514l-1.104-0.644C129.213,290.494,129.584,290.844,129.896,291.027z"/>
		<polygon fill="#FFFFFF" points="237.029,232.326 237.09,231.759 237.029,231.832 		"/>
		<polygon fill="#FFFFFF" points="103.87,310.591 104.143,309.383 103.87,309.431 		"/>
		<polygon fill="#FFFFFF" points="103,272.491 102.665,272.304 102.381,272.334 102,272.746 102,273.351 103,272.662 		"/>
		<polygon fill="#FFFFFF" points="106.061,300.896 106.403,299.381 106.061,299.441 		"/>
		<polygon fill="#FFFFFF" points="132.087,293.644 131.794,295.179 132.087,294.831 		"/>
		<polygon fill="#FFFFFF" points="215.471,216.886 211.987,220.436 211.417,220.536 208.856,223.36 215.96,216.801 		"/>
		<polygon fill="#FFFFFF" points="136,298.229 130.833,305.967 136,299.958 		"/>
		<polygon fill="#FFFFFF" points="174.815,245.265 175.424,245.158 176.995,241.174 176.67,240.248 		"/>
		<polygon fill="#FFFFFF" points="153.348,335.749 153.783,335.246 153.893,333.806 153.456,333.882 		"/>
		<path fill="#FFFFFF" d="M234,267.85l1,0.61v0.53c0-0.792,0.296-1.528,0.522-2.208L234,267.026V267.85z"/>
		<path fill="#FFFFFF" d="M234.792,270.489c0.048-0.202,0.096-0.4,0.144-0.596l-0.332,0.059L234.792,270.489z"/>
		<path fill="#FFFFFF" d="M241.784,315.353c-0.981-0.406-1.944-0.999-2.884-1.775C239.208,314.415,240.366,314.976,241.784,315.353z
			"/>
		<polygon fill="#FFFFFF" points="261.418,248.932 261.418,249.946 261.519,248.915 		"/>
		<polygon fill="#FFFFFF" points="233.707,310.98 234.168,312.298 234.168,311.632 233.707,310.313 		"/>
		<path fill="#FFFFFF" d="M295.369,216.916l-2.377-38.199l-35.439,6.439l-36.177,5.363l-36.033,6.206l-35.861,7.255l-36.318,4.476
			l-35.367,6.121l-1.43,38.081l-0.507,38.716l0.188,38.713l-0.961,40.304l37.611-7.029l35.828-7.479l36.061-6.039l36.505-3.356
			l35.959-6.647l35.043-7.509l2.015-37.98l-3.029-38.739L295.369,216.916z M234.301,236.076l0.021-0.052
			c2.032-23.487,3.678-26.95,4.678-27.557v-0.657l2-0.278v2.427c1-3.236,2.202-4.031,3.235-4.213l0.06-0.053l1.477,1.981
			l-0.567,2.966l0.177,0.148l0.013-0.002l0.58-3.039l1.919-0.337l0.772,2.205l-0.039,0.147c-3.072,11.731-4.629,20.856-4.629,27.123
			c0.433,4.721,1.263,5.449,1.576,5.552l13.134-17.326l0.559-2.924l-0.009-16.536l1.396-1.657l0.178-0.031
			c0.815-0.148,1.344,0.28,1.59,1.189c0.379-0.877,1.244-1.688,3.056-2.006l0.354-0.062l1.161,2.146l1.614-0.284l0.576,0.485
			l0.97-0.172l-2.967,43.44l-0.709,2.853l-0.405,0.057c-1.303,0.229-2.071,0.949-2.071,2.265v0.42l-3.142,0.595l0.473-2.375
			l-2.33,2.958v-1.957l0.339-5.448c-0.542-0.044-1.164-0.297-1.453-0.738c-0.205-0.312-0.386-0.711-0.442-1.208l-9.96,6.422
			L243,252.214v0.468l-0.205,0.073c-4.39,0.768-7.133-4.683-8.6-16.626L234.301,236.076z M192.615,242.832l0.009-0.266
			c1.148-10.862,2.237-17.403,3.403-19.972l-0.646-1.631l1.618-5.09v-0.269v-0.485v-1.242l2-0.38v0.683
			c1-0.955,1.745-1.586,3.422-1.881l0.467-0.092l0.541,4.823c0.265-0.438,0.583-1.294,0.851-2.963l0.056-0.352l1.387-0.244
			l0.723,2.801l-1.502,8.361l5.406-4.926l0.564-0.1l3.483-3.549l0.558-0.098l2.317-2.757l0.405-0.073
			c0.299-0.923,1.682-2.511,7.111-5.915l0.263-0.193l0.948,0.869v0.893c1-0.612,1.805-0.969,2.407-1.075l1.126-0.182l0.761,2.944
			l-0.441,0.524l1.965-0.346l0.851,2.432l-0.329,0.214c-2.849,1.851-9.573,8.082-19.991,18.522
			c2.621,5.23,7.148,12.173,13.637,20.645l0.013,0.135v1.344l-0.614,5.193l-1.003-0.898l-0.022,0.039l-0.568,2.52l-3.207,0.705
			h0.052L219,261.533v-0.596c0-0.242-0.306-0.797-0.987-2.014c0.038,0.142-0.041,0.286-0.004,0.434L218,259.481v1.007l-1.375,0.246
			l-2.299-6.054l-0.404,0.071l-2.747-2.295l1.867-0.329l1.145,0.962c-1.871-2.748-4.485-6.427-8.094-11.347l-0.087-0.131
			l-1.028-2.836l-2.193,0.801c-0.513,9.356-1.785,15.272-3.785,18.071v0.893l-7,0.507v-2.301l0.751-3.716
			c-0.431-0.077-0.68-0.345-1.013-1.077c-0.278-0.612-0.415-1.475-0.415-2.639c0.617-3.926,1.149-5.538,1.624-6.213L192.615,242.832
			z M99.91,270.36c1.544-13.46,3.307-23.483,5.243-29.79l0.043-0.15l-0.076-0.057l0.001-2.12l1.521-6.017l-0.682,0.11l0.802-2.938
			L108,229.14v0.587l2.546-0.407c1.406-0.244,1.939,1.73,1.973,3.387l0.779,0.126c0.165-1.34,0.906-1.766,1.541-1.877l0.227-0.04
			L116,231.7v0.821l-2.774,15.703l7.972-1.937l5.501-0.967l0.464-2.412l-1.173-0.986l1.756-0.307l-0.484-3.529l0.049-1.079
			l0.689-0.102v-1.762l1-0.204v-0.159l-1,0.204v-1.603v-0.102v-5.349l2,0.971v-1.634l-1-0.486v-1.241l2.806-0.497l-0.111,0.583
			l2.808-1.204l0.083,0.659c0.486,3.856,1.141,3.964,1.148,3.964l0.195-0.034c0.125-1.465,0.897-1.919,1.557-2.036l1.254-0.22
			l-0.1,0.68c-1.928,13.827-4.872,30.36-8.727,49.141l-0.091,0.333l-1.19,0.201l-1.236-0.956l0.605-0.934v-2.859l-1.245,5.062
			l-1.87,0.361c-0.072,0.012-0.142,0.019-0.21,0.019c-0.37,0-0.859-0.172-1.173-0.951l-0.94,0.166
			c-0.65,0.112-1.151-0.114-1.445-0.612c-0.204-0.345-0.303-0.815-0.303-1.438c0-2.831,1.092-9.36,3.338-19.95l-7.361,1.867
			l-4.904,0.318c-1.144,9.369-2.309,15.794-3.46,19.101l-0.1,0.277l-2.219,0.373c-0.616,0-1.064-0.508-1.301-1.511
			c-0.073-0.306-0.16-0.664-0.204-1.076l-0.452,2.861L102,275.53v0.978l-1.546,0.278l0.033-3.995l-0.587-2.338L99.91,270.36z
			 M145,342.632l-2.468-1.563c1.658,1.714,2.468,3.145,2.468,4.349v0.42l-1.134,0.179l-3.765,2.858l-1.157,0.204l-1.268-1.701
			l-0.441,0.523l-1.105,0.194l-0.167-0.107c-9.768-6.363-16.711-13.421-20.627-20.979l-3.455-6.367
			c-0.819,0.451-1.948,2.288-2.199,8.789c0.324,4.979,0.027,8.064-0.845,9.382c-1.873,1.896-1.142,2.754-0.843,3.077l0.007,0.144
			v2.093l-2.479,0.458c-0.108,0.019-0.085,0.028-0.184,0.028c-0.429,0-1.017-0.168-1.383-0.973c-0.105-0.23-0.186-0.502-0.244-0.819
			c-0.459,1.64-1.804,1.92-2.669,1.92c-0.149,0-0.304-0.008-0.466-0.022l-0.201-0.019l-3.495-4.102l0.891-7.106l0.004-2.944
			l0.026-0.049l4.483-21.791l0.718-0.115v-2.956l2-0.303v2.026l0.382-2.592l-1.79,0.279l0.006-2.928l0.791-3.404l0.61-0.113v-0.462
			l-4,0.77v-1.335c0-0.581,0.041-1.129,0.709-1.661l-2.149,0.932L98,297.078v-0.596c0-0.976,0.675-1.698,2.009-2.154
			c-1.3-0.136-2.009-0.934-2.009-2.279v-0.264l13.87-9.188l9.074-1.54c10.599,0.142,16.056,3.878,16.056,11.098v4.577l-0.468,0.7
			l2.397-0.385l-0.817,3.418l-0.592,0.109l0.013,1.249c-2.521,6.127-5.679,10.495-9.587,12.982L124,316.935v2.226
			c1,0.396,3.643,2.732,14.918,16.497c2.005,0.545,4.023,2.24,5.981,5.041l0.101,0.129V342.632z M167.936,280.085
			c-3.466,10.951-5.612,23.469-6.379,37.205l-0.243,4.229l0.73,0.61l-0.064,1.113l0.786-0.138l-1.578,1.785l0.411,4.884
			l-0.093,1.708l-0.084,0.118c-2.54,3.551-3.882,6.191-3.99,7.846l-0.025,0.392l-3.411,0.6l-4.089-0.996l1.068-5.541l-2.776-2.449
			l1.363-11.577l0.735-13.527l1.59-2.496l0.15-2.616l-0.688-0.618l0.081-1.381l1.459-0.256l0.006-0.112l-0.721-0.648l2.876-14.12
			l-1.417,0.249l1.604-1.814l0.196-4.058l-0.69-0.62l0.079-1.348l9.151-2.44l-0.054,0.704c-0.035,0.45,0.04,0.778,0.223,0.975
			c0.295,0.318,0.971,0.399,1.942,0.228l0.37-0.065l1.644,3.36l-0.048,0.054l0.135-0.024L167.936,280.085z M167.963,266.222
			l-0.13,0.073l-2.903,1.097l-0.672,0.127c-1.743,0.306-3.391,0.461-4.898,0.461c-6.624,0-11.019-2.967-13.06-8.818l-2.517-3.372
			l0.685-0.821l-0.562-3.788l-0.033-1.247c0-3.381,3.013-9.579,9.322-18.946l0.805-1.358v2.373l0.037,0.125
			c-0.385,0.591-0.644,1.19-1.011,1.797c1.841-2.716,4.084-5.649,6.689-8.791l-0.497,0.4L158,225.762v-0.596
			c0-1.075,0.72-2.68,6.581-4.925l1.979-1.543l-1.016,1.16c1.079-0.388,2.305-0.794,3.703-1.22c1.362-0.243,2.655-0.359,3.912-0.359
			c3.22,0,6.314,0.761,9.221,2.261l0.533,0.287L182,221.855v0.239l2.776,3.634l-2.123,0.385l-0.396-0.366l0.743,4.788v-2.54l2-0.38
			v3.953l-1.92,0.346l0.597,3.952c0.181-0.837,0.677-1.639,1.525-1.788l0.798-0.104v2.945c0,2.227-2.001,7.347-5.678,15.637
			l0.562-0.136l-0.612,0.958C177.522,257.689,173.38,262.01,167.963,266.222z M225.693,269.785
			c-3.597,2.337-12.068,10.202-25.213,23.38c3.293,6.599,9.151,15.368,17.352,26.071l0.168,0.135v1.648l-0.914,6.263l-1.299-1.041
			l-0.156,0.031l-0.69,3.084L209,330.414v-0.596c0-0.424-0.394-1.425-1.618-3.494c0.139,0.48,0.285,0.993,0.424,1.539l0.194,0.124
			v1.159l-1.728,0.272l-3.1-7.614l-0.554,0.097l-3.195-2.67l2.019-0.355l2.118,1.771c-2.414-3.572-5.856-8.442-10.701-15.047
			l-0.072-0.131l-1.298-3.693l-2.881,1.084c-0.643,11.827-2.607,19.285-4.607,22.78v1.043l-8,0.618v-2.754l0.531-4.783
			c-0.536-0.063-1.304-0.359-1.731-1.299c-0.342-0.752-0.507-1.821-0.507-3.266c0.794-5.048,1.483-7.049,2.105-7.832l-0.446-0.377
			l0.04-0.266c1.451-13.719,2.896-21.947,4.364-25.128l-0.673-2.058l2.317-6.381v-0.42l-1-0.61v-1.393l3-0.432v1.183
			c0-1.4,1.995-2.313,4.296-2.717l0.293-0.092l0.702,6.266c0.391-0.474,0.89-1.566,1.289-4.057l0.056-0.352l1.537-0.27l0.874,3.38
			l-1.951,10.863l7.053-6.427l0.716-0.125l4.383-4.464l0.711-0.125l2.927-3.468l0.562-0.097c0.304-1.116,1.975-3.067,8.957-7.445
			l0.34-0.193l1.254,0.994v1.155l-0.345,0.333c1.392-0.955,2.438-1.501,3.281-1.649l1.186-0.208l0.911,3.523l-0.741,0.879
			l2.719-0.477l1.003,2.859L225.693,269.785z M269.517,314.417l-0.8,3.486l-0.286,0.057c-1.71,0.3-2.431,1.246-2.431,2.976v0.42
			l-4.061,0.7l0.237-3.23L259,322.592v-2.108l0.691-6.974c-0.701-0.021-1.246-0.323-1.61-0.878c-0.271-0.413-0.404-0.954-0.46-1.644
			l-0.01,0.012l-12.362,8.129l-5.25-0.423v0.619l-0.643,0.073c-0.318,0.056-0.865,0.084-1.173,0.084
			c-4.914,0-8.152-6.831-9.876-20.885l-0.027-0.052l-0.038-0.052c2.388-27.595,4.757-33.54,5.757-34.557v-0.833l2-0.304v3.765
			c1-3.732,2.727-5.73,4.475-6.037l0.253-0.053l1.777,2.383l-0.716,3.75l0.326,0.273l0.163-0.028l0.73-3.822l2.219-0.39l0.92,2.633
			l-0.039,0.147c-3.867,14.771-5.827,26.261-5.827,34.148c0.576,6.292,1.735,7.067,2.164,7.127l16.588-21.883l0.709-3.708
			l-0.009-20.777l1.695-2.012l0.179-0.031c1.062-0.185,1.711,0.457,1.947,1.836c0.361-1.221,1.391-2.422,3.896-2.863l0.354-0.062
			l1.461,2.698l2.066-0.362l0.73,0.61l1.14-0.199L269.517,314.417z"/>
		<polygon fill="#FFFFFF" points="262,318.648 262.399,314.538 262,314.608 		"/>
		<polygon fill="#FFFFFF" points="209.986,278.838 212.646,276.353 213.064,275.853 210.407,278.335 		"/>
		<polygon fill="#FFFFFF" points="183.539,274.998 183.924,273.765 183.539,273.444 		"/>
		<path fill="#FFFFFF" d="M215.399,264.981l-6.574,5.587l-0.686,0.121l-2.921,3.468l-0.752,0.132l-4.382,4.464l-0.72,0.126
			l-5.2,5.734l12.963-11.969l0.716,0.599c3.493-3.482,6.345-6.062,8.593-7.768l-0.67-0.561L215.399,264.981z"/>
		<path fill="#FFFFFF" d="M220.761,269.005c0.19-0.064,0.385-0.119,0.584-0.165l-0.261-0.218L220.761,269.005z"/>
		<polygon fill="#FFFFFF" points="232,296.23 232.38,292.71 232,293.161 		"/>
		<path fill="#FFFFFF" d="M240.169,210.958l-0.818,0.144v0.521l0.496,0.415C239.954,211.656,240.062,211.297,240.169,210.958z"/>
	</g>
</g>
<g id="Spots" display="none">
</g>
</svg>
