<?xml version="1.0" encoding="utf-8"?>
<!-- Generator: Adobe Illustrator 17.0.0, SVG Export Plug-In . SVG Version: 6.00 Build 0)  -->
<!DOCTYPE svg PUBLIC "-//W3C//DTD SVG 1.1//EN" "http://www.w3.org/Graphics/SVG/1.1/DTD/svg11.dtd">
<svg version="1.1" xmlns="http://www.w3.org/2000/svg" xmlns:xlink="http://www.w3.org/1999/xlink" x="0px" y="0px" width="384px"
	 height="550px" viewBox="0 0 384 550" enable-background="new 0 0 384 550" xml:space="preserve">
<g id="Borders" display="none">
	<g display="inline">
		<rect x="0.392" y="-0.055" fill="#5D5D5D" width="384" height="550"/>
	</g>
</g>
<g id="Labels">
</g>
<g id="Names">
	<g>
		<path fill="none" d="M133.451,255.63c1.082-0.812,2.28-1.404,3.596-1.773c1.315-0.368,2.64-0.455,3.975-0.257
			c1.031,0.153,1.983,0.461,2.854,0.921c0.871,0.461,1.639,1.039,2.305,1.732c0.665,0.693,1.208,1.482,1.629,2.364
			c0.421,0.883,0.712,1.825,0.873,2.826c2.477-1.744,3.714-2.608,6.185-4.326c-0.461-1.356-1.079-2.633-1.855-3.831
			c-0.776-1.197-1.691-2.261-2.743-3.19c-1.053-0.928-2.234-1.702-3.541-2.319c-1.308-0.616-2.705-1.035-4.191-1.256
			c-2.305-0.342-4.569-0.184-6.79,0.467c-2.221,0.651-4.258,1.685-6.107,3.087c-1.85,1.402-3.444,3.108-4.779,5.104
			c-1.336,1.997-2.259,4.187-2.768,6.562c-0.509,2.376-0.54,4.64-0.096,6.799c0.445,2.161,1.259,4.096,2.439,5.819
			c1.18,1.724,2.687,3.159,4.52,4.321c1.832,1.162,3.902,1.91,6.207,2.252c1.486,0.22,2.967,0.25,4.443,0.084
			c1.475-0.165,2.893-0.499,4.254-1.01c1.361-0.509,2.645-1.171,3.853-1.99c1.208-0.819,2.304-1.768,3.287-2.85
			c-1.571-2.483-2.358-3.718-3.935-6.175c-0.563,0.874-1.22,1.643-1.973,2.307c-0.753,0.665-1.582,1.212-2.488,1.644
			c-0.907,0.432-1.863,0.73-2.868,0.894c-1.006,0.165-2.024,0.169-3.055,0.017c-1.335-0.198-2.546-0.643-3.633-1.337
			c-1.088-0.694-1.975-1.554-2.662-2.587c-0.687-1.031-1.159-2.186-1.417-3.465c-0.258-1.279-0.237-2.621,0.065-4.027
			c0.301-1.406,0.842-2.69,1.623-3.849C131.438,257.429,132.369,256.443,133.451,255.63z"/>
		<path fill="none" d="M212.928,268.908c-0.562-1.393-1.275-2.593-2.139-3.601c-0.864-1.007-1.737-1.876-2.62-2.564
			c-0.979-0.764-2.043-1.422-3.144-1.981c-1.101-0.56-2.218-1.041-3.352-1.446c-1.134-0.404-2.243-0.745-3.326-1.023
			c-1.083-0.277-2.1-0.531-3.053-0.761c-1.339-0.323-2.009-0.484-3.348-0.807c-2.462,11.486-4.923,22.972-7.384,34.457
			c1.339,0.322,2.009,0.484,3.348,0.807c0.893,0.215,2.065,0.474,3.52,0.775c1.453,0.301,3.026,0.483,4.719,0.545
			c1.693,0.062,3.431-0.056,5.217-0.355c1.785-0.298,3.478-0.933,5.079-1.905c1.6-0.971,3.028-2.338,4.282-4.099
			c1.253-1.761,2.189-4.08,2.805-6.956c0.502-2.344,0.667-4.429,0.496-6.256C213.857,271.912,213.49,270.301,212.928,268.908z
			 M206.781,278.424c-0.349,1.625-0.866,2.981-1.552,4.066c-0.687,1.086-1.593,1.922-2.72,2.508
			c-1.128,0.586-2.484,0.928-4.069,1.023c-1.586,0.096-3.452-0.032-5.598-0.386c1.724-8.045,2.586-12.067,4.31-20.112
			c1.974,0.575,3.661,1.212,5.061,1.909c1.4,0.698,2.509,1.546,3.328,2.545c0.818,1,1.332,2.181,1.541,3.543
			C207.289,274.883,207.189,276.517,206.781,278.424z"/>
		<path fill="none" d="M155.29,284.509c8.907,1.811,13.334,2.841,22.182,4.932c0.615-2.869,0.922-4.303,1.537-7.173
			c-6.131-1.449-9.198-2.162-15.353-3.496c0.506-2.363,0.759-3.544,1.266-5.907c5.922,1.283,8.874,1.968,14.773,3.359
			c0.615-2.869,0.922-4.304,1.537-7.173c-5.899-1.391-8.851-2.076-14.773-3.359c0.599-2.794,0.898-4.191,1.497-6.985
			c6.155,1.334,9.223,2.048,15.354,3.496c0.611-2.851,0.916-4.275,1.527-7.126c-8.848-2.091-13.275-3.121-22.182-4.932
			C160.2,261.6,157.745,273.055,155.29,284.509z"/>
		<path fill="none" d="M103.46,243.758c-6.626,11.658-13.226,23.325-19.801,35.004c3.172-0.255,4.75-0.348,7.894-0.47
			c1.154-2.053,1.73-3.078,2.882-5.124c5.594-0.166,8.369-0.143,13.883,0.065c0.274,2.052,0.411,3.079,0.683,5.137
			c3.087,0.141,4.625,0.239,7.69,0.482c-1.573-11.691-3.155-23.379-4.789-35.052C108.54,243.715,106.852,243.705,103.46,243.758z
			 M98.5,266.029c2.829-4.961,4.241-7.432,7.061-12.355c0.707,4.941,1.058,7.421,1.756,12.398
			C103.806,265.981,102.043,265.97,98.5,266.029z"/>
		<path fill="none" d="M63.033,271.17c-1.878-8.589-2.829-12.825-4.759-21.169c-3.23,0.875-4.854,1.355-8.121,2.405
			c-2.461,11.486-4.923,22.971-7.384,34.457c3.146-1.011,4.71-1.474,7.822-2.324c1.217-5.682,1.826-8.523,3.044-14.205
			c1.315,4.991,1.968,7.513,3.261,12.606c3.045-0.714,4.559-1.033,7.573-1.604c3.605-6.044,5.403-9.043,8.989-15
			c-1.197,5.588-1.796,8.382-2.994,13.971c3.03-0.468,4.537-0.666,7.539-1.002c2.461-11.486,4.923-22.972,7.384-34.457
			c-3.097,0.346-4.653,0.552-7.781,1.039C71.801,255.891,68.886,260.945,63.033,271.17z"/>
		<path fill="none" d="M282.868,272.36c-1.91,8.907-2.864,13.361-4.773,22.268c-3.99-9.073-5.962-13.718-9.871-23.163
			c-3.169-0.283-4.748-0.451-7.897-0.829c-2.463,11.486-4.924,22.971-7.384,34.457c2.856,0.343,4.288,0.496,7.161,0.762
			c1.912-8.925,2.868-13.389,4.781-22.315c3.906,9.463,5.876,14.117,9.863,23.211c3.211,0.092,4.822,0.108,8.059,0.075
			c2.457-11.47,4.915-22.941,7.374-34.411C287.244,272.445,285.782,272.432,282.868,272.36z"/>
		<path fill="none" d="M291.077,306.566c2.887-0.152,4.336-0.255,7.248-0.521c2.454-11.455,4.908-22.909,7.364-34.364
			c-2.912,0.266-4.361,0.37-7.248,0.521C295.986,283.657,293.531,295.111,291.077,306.566z"/>
		<path fill="none" d="M322.635,269.279c-6.667,12.122-13.361,24.231-20.085,36.33c3.196-0.367,4.802-0.586,8.03-1.104
			c1.173-2.144,1.76-3.218,2.935-5.37c5.77-0.988,8.682-1.603,14.566-3.123c0.322,1.83,0.483,2.743,0.806,4.564
			c3.309-0.893,4.972-1.383,8.32-2.459c-1.977-10.22-3.879-20.466-5.714-30.735C327.928,268.24,326.157,268.617,322.635,269.279z
			 M317.667,291.584c2.896-5.275,4.346-7.925,7.254-13.253c0.793,4.536,1.193,6.791,1.998,11.272
			C323.194,290.504,321.345,290.897,317.667,291.584z"/>
		<path fill="none" d="M248.596,274.222c-1.165-1.797-2.655-3.317-4.467-4.569c-1.813-1.253-3.863-2.093-6.148-2.526
			c-2.286-0.434-4.522-0.406-6.71,0.093c-2.189,0.499-4.19,1.366-6.006,2.611c-1.816,1.244-3.38,2.808-4.692,4.694
			c-1.313,1.888-2.223,4.018-2.732,6.393c-0.509,2.376-0.554,4.699-0.132,6.969c0.421,2.27,1.205,4.348,2.351,6.229
			c1.146,1.881,2.618,3.483,4.418,4.797c1.799,1.314,3.841,2.192,6.127,2.625c2.286,0.433,4.529,0.368,6.731-0.193
			c2.201-0.561,4.22-1.51,6.054-2.838c1.834-1.328,3.414-2.972,4.74-4.924c1.326-1.95,2.244-4.116,2.753-6.492
			c0.509-2.375,0.545-4.663,0.11-6.87C250.559,278.016,249.76,276.019,248.596,274.222z M242.403,289.861
			c-0.776,1.134-1.708,2.089-2.796,2.858c-1.088,0.77-2.277,1.316-3.566,1.635c-1.289,0.32-2.596,0.355-3.919,0.105
			c-1.353-0.257-2.558-0.768-3.615-1.533c-1.057-0.763-1.922-1.697-2.593-2.798c-0.672-1.1-1.131-2.315-1.38-3.641
			s-0.221-2.692,0.08-4.098c0.302-1.407,0.837-2.666,1.607-3.778c0.77-1.112,1.688-2.038,2.756-2.782
			c1.066-0.743,2.243-1.263,3.527-1.562c1.284-0.298,2.603-0.318,3.956-0.061c1.323,0.251,2.516,0.747,3.578,1.489
			c1.061,0.743,1.938,1.65,2.631,2.724c0.692,1.074,1.166,2.261,1.419,3.565c0.252,1.304,0.228,2.658-0.073,4.065
			C243.716,287.456,243.178,288.727,242.403,289.861z"/>
		<path fill="#FFFFFF" d="M242.672,278.42c-0.693-1.074-1.57-1.981-2.631-2.724c-1.062-0.742-2.254-1.239-3.578-1.489
			c-1.354-0.257-2.672-0.237-3.956,0.061c-1.285,0.299-2.461,0.819-3.527,1.562c-1.068,0.744-1.986,1.67-2.756,2.782
			c-0.77,1.112-1.306,2.371-1.607,3.778c-0.301,1.406-0.328,2.773-0.08,4.098s0.707,2.54,1.38,3.641
			c0.671,1.1,1.536,2.035,2.593,2.798c1.057,0.765,2.262,1.276,3.615,1.533c1.323,0.251,2.63,0.216,3.919-0.105
			c1.289-0.319,2.477-0.866,3.566-1.635c1.088-0.769,2.02-1.723,2.796-2.858c0.775-1.134,1.313-2.405,1.615-3.811
			c0.301-1.407,0.325-2.761,0.073-4.065C243.838,280.681,243.364,279.494,242.672,278.42z"/>
		<path fill="#FFFFFF" d="M205.54,269.977c-0.819-0.999-1.928-1.847-3.328-2.545c-1.4-0.697-3.087-1.334-5.061-1.909
			c-1.724,8.045-2.586,12.068-4.31,20.112c2.146,0.354,4.012,0.482,5.598,0.386c1.585-0.096,2.942-0.437,4.069-1.023
			c1.127-0.586,2.033-1.422,2.72-2.508c0.686-1.085,1.204-2.441,1.552-4.066c0.408-1.906,0.508-3.541,0.3-4.904
			C206.871,272.158,206.358,270.977,205.54,269.977z"/>
		<path fill="#FFFFFF" d="M98.5,266.029c3.543-0.059,5.306-0.048,8.817,0.043c-0.698-4.978-1.05-7.457-1.756-12.398
			C102.741,258.597,101.329,261.068,98.5,266.029z"/>
		<path fill="#FFFFFF" d="M317.667,291.584c3.678-0.687,5.527-1.081,9.251-1.981c-0.805-4.481-1.204-6.736-1.998-11.272
			C322.013,283.659,320.562,286.309,317.667,291.584z"/>
		<path fill="#FFFFFF" d="M360.932,243.641c-2.453,2.012-40.688,8.912-53.634,10.923c-53.526,6.035-96.501-12.071-145.091-22.13
			c-18.532-2.012-36.697-6.104-55.938-4.092c-23.438,2.012-49.183,4.092-71.942,14.151c-0.355,2.012-8.494,60.072-11.656,66.107
			c2.453-2.012,39.743-10.059,52.689-12.071c53.526-6.035,96.5,12.071,145.445,20.118c40.551,8.047,85.913,8.33,128.268-5.753
			C346.296,302.849,356.351,257.724,360.932,243.641z M78.003,279.306c-3.001,0.335-4.509,0.534-7.539,1.002
			c1.197-5.588,1.796-8.382,2.994-13.971c-3.586,5.957-5.384,8.956-8.989,15c-3.014,0.571-4.529,0.89-7.573,1.604
			c-1.294-5.093-1.946-7.615-3.261-12.606c-1.218,5.682-1.826,8.523-3.044,14.205c-3.111,0.849-4.676,1.312-7.822,2.324
			c2.461-11.486,4.923-22.971,7.384-34.457c3.267-1.05,4.891-1.529,8.121-2.405c1.931,8.344,2.882,12.58,4.759,21.169
			c5.853-10.225,8.768-15.279,14.573-25.283c3.128-0.487,4.684-0.693,7.781-1.039C82.926,256.334,80.464,267.82,78.003,279.306z
			 M109.001,278.37c-0.273-2.058-0.409-3.085-0.683-5.137c-5.514-0.208-8.288-0.23-13.883-0.065
			c-1.152,2.046-1.729,3.072-2.882,5.124c-3.143,0.122-4.722,0.215-7.894,0.47c6.575-11.679,13.175-23.346,19.801-35.004
			c3.392-0.054,5.08-0.043,8.442,0.042c1.634,11.673,3.216,23.361,4.789,35.052C113.626,278.609,112.088,278.511,109.001,278.37z
			 M128.97,266.464c0.257,1.279,0.73,2.434,1.417,3.465c0.686,1.032,1.574,1.893,2.662,2.587c1.087,0.694,2.299,1.139,3.633,1.337
			c1.031,0.153,2.05,0.148,3.055-0.017c1.005-0.164,1.961-0.462,2.868-0.894c0.906-0.432,1.735-0.979,2.488-1.644
			c0.753-0.664,1.411-1.433,1.973-2.307c1.577,2.457,2.364,3.692,3.935,6.175c-0.983,1.082-2.079,2.031-3.287,2.85
			c-1.208,0.819-2.493,1.481-3.853,1.99c-1.361,0.51-2.779,0.845-4.254,1.01c-1.476,0.166-2.956,0.136-4.443-0.084
			c-2.305-0.342-4.375-1.09-6.207-2.252c-1.833-1.162-3.34-2.597-4.52-4.321c-1.18-1.723-1.994-3.658-2.439-5.819
			c-0.445-2.159-0.413-4.423,0.096-6.799c0.509-2.375,1.432-4.564,2.768-6.562c1.336-1.996,2.93-3.702,4.779-5.104
			c1.85-1.402,3.886-2.436,6.107-3.087c2.22-0.651,4.485-0.809,6.79-0.467c1.486,0.221,2.883,0.64,4.191,1.256
			c1.307,0.617,2.488,1.39,3.541,2.319c1.053,0.928,1.967,1.993,2.743,3.19c0.776,1.197,1.395,2.475,1.855,3.831
			c-2.471,1.718-3.708,2.582-6.185,4.326c-0.161-1.001-0.452-1.943-0.873-2.826c-0.421-0.882-0.964-1.671-1.629-2.364
			c-0.666-0.693-1.434-1.27-2.305-1.732c-0.872-0.46-1.823-0.768-2.854-0.921c-1.335-0.198-2.66-0.111-3.975,0.257
			c-1.316,0.369-2.514,0.962-3.596,1.773c-1.082,0.812-2.013,1.799-2.793,2.957c-0.781,1.158-1.322,2.442-1.623,3.849
			C128.734,263.843,128.712,265.184,128.97,266.464z M183.309,262.204c-6.131-1.449-9.198-2.162-15.354-3.496
			c-0.599,2.794-0.898,4.191-1.497,6.985c5.922,1.283,8.874,1.968,14.773,3.359c-0.615,2.869-0.922,4.304-1.537,7.173
			c-5.899-1.391-8.851-2.076-14.773-3.359c-0.506,2.363-0.759,3.544-1.266,5.907c6.155,1.334,9.223,2.048,15.353,3.496
			c-0.615,2.869-0.922,4.304-1.537,7.173c-8.848-2.091-13.275-3.121-22.182-4.932c2.455-11.455,4.909-22.909,7.364-34.364
			c8.907,1.811,13.334,2.842,22.182,4.932C184.225,257.928,183.92,259.353,183.309,262.204z M213.533,279.994
			c-0.616,2.876-1.552,5.195-2.805,6.956c-1.254,1.761-2.682,3.128-4.282,4.099c-1.602,0.972-3.295,1.607-5.079,1.905
			c-1.786,0.299-3.525,0.416-5.217,0.355c-1.693-0.062-3.265-0.243-4.719-0.545c-1.454-0.301-2.627-0.559-3.52-0.775
			c-1.339-0.323-2.009-0.484-3.348-0.807c2.461-11.486,4.922-22.971,7.384-34.457c1.339,0.322,2.009,0.484,3.348,0.807
			c0.952,0.229,1.969,0.483,3.053,0.761c1.082,0.278,2.191,0.62,3.326,1.023c1.134,0.405,2.251,0.886,3.352,1.446
			c1.101,0.559,2.164,1.217,3.144,1.981c0.882,0.688,1.755,1.557,2.62,2.564c0.863,1.008,1.577,2.208,2.139,3.601
			c0.562,1.393,0.929,3.004,1.101,4.83C214.201,275.566,214.036,277.65,213.533,279.994z M248.131,293.583
			c-1.326,1.951-2.906,3.595-4.74,4.924c-1.834,1.328-3.853,2.278-6.054,2.838c-2.202,0.561-4.446,0.626-6.731,0.193
			c-2.286-0.433-4.328-1.311-6.127-2.625c-1.8-1.314-3.272-2.915-4.418-4.797c-1.146-1.881-1.93-3.958-2.351-6.229
			c-0.422-2.269-0.377-4.593,0.132-6.969c0.509-2.375,1.419-4.505,2.732-6.393c1.311-1.887,2.876-3.45,4.692-4.694
			c1.816-1.245,3.817-2.112,6.006-2.611c2.188-0.499,4.423-0.527,6.71-0.093c2.286,0.433,4.335,1.274,6.148,2.526
			c1.812,1.252,3.302,2.772,4.467,4.569c1.164,1.797,1.964,3.794,2.399,5.999c0.435,2.206,0.399,4.494-0.11,6.87
			C250.375,289.467,249.457,291.633,248.131,293.583z M282.806,306.825c-3.237,0.033-4.849,0.017-8.059-0.075
			c-3.986-9.094-5.957-13.747-9.863-23.211c-1.913,8.926-2.869,13.39-4.781,22.315c-2.873-0.265-4.305-0.419-7.161-0.762
			c2.46-11.486,4.921-22.971,7.384-34.457c3.149,0.378,4.728,0.545,7.897,0.829c3.909,9.445,5.881,14.09,9.871,23.163
			c1.909-8.908,2.863-13.361,4.773-22.268c2.914,0.073,4.376,0.085,7.312,0.055C287.721,283.884,285.263,295.355,282.806,306.825z
			 M298.325,306.045c-2.912,0.266-4.361,0.369-7.248,0.521c2.454-11.455,4.908-22.909,7.364-34.364
			c2.887-0.152,4.336-0.255,7.248-0.521C303.233,283.136,300.779,294.59,298.325,306.045z M328.886,300.576
			c-0.324-1.821-0.485-2.734-0.806-4.564c-5.884,1.52-8.795,2.135-14.566,3.123c-1.175,2.152-1.761,3.226-2.935,5.37
			c-3.228,0.518-4.834,0.737-8.03,1.104c6.724-12.099,13.418-24.208,20.085-36.33c3.522-0.662,5.293-1.039,8.857-1.897
			c1.835,10.269,3.737,20.515,5.714,30.735C333.858,299.193,332.194,299.683,328.886,300.576z"/>
	</g>
</g>
<g id="Spots" display="none">
</g>
</svg>
