<?xml version="1.0" encoding="utf-8"?>
<!-- Generator: Adobe Illustrator 17.0.0, SVG Export Plug-In . SVG Version: 6.00 Build 0)  -->
<!DOCTYPE svg PUBLIC "-//W3C//DTD SVG 1.1//EN" "http://www.w3.org/Graphics/SVG/1.1/DTD/svg11.dtd">
<svg version="1.1" xmlns="http://www.w3.org/2000/svg" xmlns:xlink="http://www.w3.org/1999/xlink" x="0px" y="0px" width="384px"
	 height="550px" viewBox="0 0 384 550" enable-background="new 0 0 384 550" xml:space="preserve">
<g id="Borders" display="none">
	<g display="inline">
		<rect x="0.392" y="-0.055" fill="#5D5D5D" width="384" height="550"/>
	</g>
</g>
<g id="Labels">
</g>
<g id="Names">
	<g>
		<g>
			<path fill="#FFFFFF" d="M71.889,257.71c0.567-1.022,1.021-2.158,1.362-3.294c0.454-1.363,0.909-2.045,1.591-3.521
				c0.567-1.022,0.567-1.817,1.249-2.84c0.454-0.682,1.249-1.931,1.817-2.612c0.795-0.909,1.022-1.817,1.59-2.727
				c0.796-1.249,0.568-2.499,1.137-3.748c1.021-2.271,1.136-5.339,5.338-6.815c1.022-0.454,2.271,0.228,3.749,0.114
				c1.931-0.114,4.543-1.704,6.247,0.567c1.249,1.59,0.908,4.203,0.908,6.134c0,0.909,0,1.817,0.114,2.84
				c0,1.022-0.682,2.84-0.568,3.748c0.568,3.407,1.022,7.042,1.136,10.45c0,0.908-0.454,1.817-0.341,2.612
				c0.114,1.704,0.682,2.953,0.568,4.657c0,1.363-0.341,2.953-0.228,4.202c0,0.682,0.454,1.137,0.568,1.817
				c0.113,1.137-0.228,2.613-0.228,3.976c0.113,4.316,0.341,8.633,0.341,12.949c0,1.817,0.113,3.521,0,5.339
				c0,1.021-0.113,2.044-0.228,3.18c0,0.796,0.341,1.704,0.568,2.499c0.341,2.158,0.682,4.316,0.682,6.475
				c0.113,1.931,0.682,5.339-0.454,7.042c-1.591,2.386-6.248,1.25-8.746,1.137c-0.796,0-2.386,0-2.84-0.796
				c-0.568-0.908-0.228-2.044-0.114-3.066c0.114-1.136-0.454-1.931-0.454-2.953c0.228-4.771-0.227-9.655-0.341-14.539
				c0-2.727,0-5.452,0-8.064c0-0.909,0-1.704,0.114-2.499c0-0.795,0.34-1.591,0.227-2.271c0-0.682-0.227-1.363-0.341-2.158
				c0-0.796,0.114-1.477-0.113-2.272c-0.228-0.681-0.909-1.362-1.022-2.044c-0.454-1.932,0.682-4.657-2.158-4.771
				c-0.908,0-3.748,7.837-4.089,8.859c-0.682,2.045-0.341,5.68-2.612,6.929c-1.704,1.022-4.771,0.341-6.021-1.249
				c-0.795-0.909-1.249-2.272-2.158-3.862c-1.477-2.84-3.066-5.68-4.998-8.292c-0.795-1.136-1.59-2.158-2.612-3.066
				c-0.908-0.909-1.363-0.568-1.477,0.567c-0.113,1.477,0.682,2.727,0.909,4.203c0.341,4.089,0,8.519,0.113,12.722
				c0,1.931,0,3.976,0.113,5.906c0.114,0.795,0.114,1.477,0.228,2.271c0.113,0.568,0.113,1.136,0.228,1.704
				c0,0.568-0.228,1.022-0.228,1.59c0,0.796,0.341,1.477,0.568,2.158c0.795,3.181,0.113,6.815-0.341,9.883
				c-0.228,1.703,0,3.294-1.591,4.315c-0.908,0.568-1.817,0.341-2.84,0.228c-1.136-0.113-2.158,0.682-3.294,0.568
				c-0.682-0.114-1.477-0.455-2.158-0.682c-1.931-0.795-2.839-2.158-3.294-4.203c-0.113-0.567,0.455-1.477,0.341-2.271
				c-0.113-0.682-0.795-1.136-0.908-1.817c0-0.682,0.341-1.249,0.341-1.931c-0.341-2.272-0.909-3.635-0.114-5.566
				c-1.59-3.407-0.341-21.922-1.703-25.216c0.682-7.61-1.136-15.448,0.454-22.944c0.454-2.271-0.341-5.452-0.228-7.838
				c0.114-1.477-0.341-4.543,0.455-5.793c0.567-1.136,1.59-0.682,2.726-0.682c2.158,0,7.383-1.362,9.087,0.114
				c0.682,0.567,1.704,2.84,1.931,3.635c0.455,1.477,0.909,2.953,1.25,4.43c0.567,2.612,3.066,6.36,4.771,9.2
				c1.363,2.271,2.158,3.976,3.181,5.566c0.341,0.567,0.682,1.136,1.021,1.703c0.228,0.455,0.568,0.795,0.796,0.795
				C71.207,258.391,71.548,258.164,71.889,257.71z"/>
		</g>
		<g>
			<path fill="#FFFFFF" d="M149.807,312.231c-0.568,0-1.137-0.114-1.591-0.228c-1.136-0.113-2.271-0.341-3.407-0.454
				c-1.59-0.114-3.862,0.454-5.111-1.136c-0.341-0.568-0.341-1.932-0.454-2.954c-0.341-1.817-0.455-7.155-2.158-8.291
				c-0.568-0.341-3.862-0.682-4.657-0.682c-2.271-0.228-4.544-0.114-6.702,0c-1.136,0.113-2.271,0.113-3.407,0.227
				c-0.568,0-1.136,0-1.704,0c-0.567,0-1.249-0.227-1.703,0.228c-0.455,0.341-0.796,0.795-1.022,1.363
				c-0.568,0.908-0.795,1.931-1.022,2.953c-0.228,1.931-0.113,4.202-1.022,5.906c-0.113,0.228-0.113,0.341-0.227,0.454
				c-0.682,1.022-1.704,1.363-2.727,1.817c-0.568,0.228-0.795,0.228-1.363,0.228c-0.567-0.113-1.362-0.341-1.931-0.228
				c-0.682,0-1.363,0.341-1.931,0.568c-1.363,0.682-2.613,1.022-3.976,0.113c-1.932-1.363-1.136-3.976-0.114-6.929
				c0.682-2.158,1.25-4.771,1.704-7.155c0.454-2.272,0.228-4.771,0.795-6.702c0.341-1.136,1.136-2.158,1.591-3.294
				c1.021-2.727,1.249-5.793,1.931-8.859c0.795-3.067,1.817-6.134,2.612-9.087c0.228-0.909,0.113-1.932,0.454-2.727
				c0.455-1.817,1.363-3.521,2.045-5.339c0.454-1.59,0.682-3.521,1.249-5.111c0.682-2.044,1.818-3.976,2.386-6.02
				c0.113-0.795,0-1.591,0.228-2.386c0.227-1.022,0.908-2.044,1.249-3.066c1.022-2.953,1.477-6.021,2.499-8.746
				c0.682-1.932,2.612-4.771,3.521-5.226c0.682-0.341,8.519,0.568,9.769,1.022c3.635,1.363,3.294,3.294,3.861,6.588
				c0.795,4.998,1.25,9.655,2.84,14.426c2.271,7.383,2.726,15.448,4.884,22.49c0.114,0.454,0.455,0.908,0.568,1.477
				c0.113,0.454-0.113,1.022,0,1.704c0.113,0.908,0.795,1.931,1.022,2.953c0.227,1.022,0.113,2.044,0.341,3.066
				c0,0.454,0.113,0.909,0.341,1.363c0.341,0.682,0.567,1.249,0.567,2.045c0.114,0.795,0.228,1.703,0.341,2.498
				c0.228,1.704,0.568,3.635,0.909,5.339c0.227,1.591,0.567,3.294,0.908,4.885c0.113,0.908,0.682,1.817,0.795,2.726
				c0,0.568-0.113,1.136-0.113,1.704c0.228,1.022,1.817,3.407,1.25,4.657c-0.341,0.795-1.137,1.021-1.932,1.249
				c-0.341,0-0.682,0.113-1.136,0.228c-0.341,0-0.567,0.227-0.908,0.341C150.033,312.231,149.92,312.231,149.807,312.231z
				 M125.385,266.456c-0.113,0.567,0.114,1.136,0,1.703c-0.34,1.363-1.249,2.386-1.59,3.635c-0.228,0.796-0.113,1.704-0.113,2.499
				c-0.114,0.454-0.114,0.795-0.341,1.363c-0.114,0.341-0.454,0.568-0.682,0.908c-0.228,0.568-0.228,1.137-0.228,1.704
				c-0.227,1.022-0.454,2.158-0.567,3.181c-0.228,0.908-1.136,2.158-0.341,2.953c2.726,1.136,5.679,0.454,8.405,0.341
				c1.704,0,1.931,0.113,3.407-0.454c2.158-0.909,2.045-2.158,1.817-4.09c-0.227-1.703-0.454-2.385-0.795-3.861
				c-0.567-2.158-1.136-3.976-1.477-5.906c-0.228-0.909-0.113-2.045-0.341-2.84c-0.454-1.363-1.363-2.612-1.704-3.976
				c-0.567-1.931-0.795-3.976-1.817-4.316c-0.227-0.113-0.34-0.113-0.454,0.113C127.202,261.686,126.066,264.184,125.385,266.456z"
				/>
		</g>
		<g>
			<path fill="#FFFFFF" d="M162.526,308.028c-0.341-5.906,0.341-12.04,0.455-17.946c0.113-3.635,0.454-7.043,0.454-9.542
				c-0.113-1.817-0.909-3.748-1.022-6.02c-0.228-3.976-0.567-9.2-0.682-13.062c-0.227-3.748,0.228-7.383-0.113-10.563
				c-0.113-1.136-0.682-2.271-0.795-3.294c-0.228-2.499,0.227-6.588,0.227-9.996c0-2.612-0.227-4.089,1.591-5.452
				c3.066-0.227,8.064-0.227,11.018,0.341c2.045,6.247,0.908,16.13,1.136,23.854c0,2.726,0.682,5.452,0.909,8.178
				c0.341,3.521-0.455,7.043-0.228,10.45c0,1.477,0.682,3.635,0.795,5.225c0.341,3.295-0.227,6.475-0.113,10.337
				c0,1.136,0.567,2.271,0.795,3.521c0.228,1.477-0.113,2.726,0.341,3.407c1.477,2.271,9.314,1.249,11.586,1.363
				c2.499,0,6.134-0.682,8.405,0.795c3.066,1.931,2.158,8.064,1.136,11.018c-4.089,2.727-21.695,1.022-27.942,0.795
				c-2.84-0.113-7.383,0.568-7.951-2.953C162.526,308.369,162.526,308.256,162.526,308.028z"/>
		</g>
		<g>
			<path fill="#FFFFFF" d="M251.917,312.231c-0.568,0-1.136-0.114-1.591-0.228c-1.136-0.113-2.271-0.341-3.407-0.454
				c-1.591-0.114-3.862,0.454-5.111-1.136c-0.341-0.568-0.341-1.932-0.454-2.954c-0.341-1.817-0.455-7.155-2.158-8.291
				c-0.568-0.341-3.862-0.682-4.657-0.682c-2.271-0.228-4.544-0.114-6.702,0c-1.136,0.113-2.271,0.113-3.407,0.227
				c-0.568,0-1.136,0-1.704,0c-0.567,0-1.249-0.227-1.703,0.228c-0.455,0.341-0.796,0.795-1.022,1.363
				c-0.568,0.908-0.795,1.931-1.022,2.953c-0.228,1.931-0.113,4.202-1.022,5.906c-0.113,0.228-0.113,0.341-0.227,0.454
				c-0.682,1.022-1.704,1.363-2.727,1.817c-0.567,0.228-0.795,0.228-1.363,0.228c-0.567-0.113-1.362-0.341-1.931-0.228
				c-0.682,0-1.363,0.341-1.931,0.568c-1.363,0.682-2.612,1.022-3.976,0.113c-1.932-1.363-1.136-3.976-0.114-6.929
				c0.682-2.158,1.25-4.771,1.704-7.155c0.454-2.272,0.228-4.771,0.795-6.702c0.341-1.136,1.136-2.158,1.591-3.294
				c1.022-2.727,1.249-5.793,1.931-8.859c0.795-3.067,1.817-6.134,2.612-9.087c0.228-0.909,0.114-1.932,0.454-2.727
				c0.455-1.817,1.363-3.521,2.045-5.339c0.454-1.59,0.682-3.521,1.25-5.111c0.681-2.044,1.816-3.976,2.385-6.02
				c0.113-0.795,0-1.591,0.228-2.386c0.227-1.022,0.908-2.044,1.249-3.066c1.022-2.953,1.477-6.021,2.499-8.746
				c0.682-1.932,2.612-4.771,3.521-5.226c0.682-0.341,8.519,0.568,9.769,1.022c3.635,1.363,3.294,3.294,3.861,6.588
				c0.795,4.998,1.25,9.655,2.84,14.426c2.271,7.383,2.727,15.448,4.884,22.49c0.114,0.454,0.455,0.908,0.568,1.477
				c0.113,0.454-0.113,1.022,0,1.704c0.113,0.908,0.795,1.931,1.022,2.953c0.227,1.022,0.113,2.044,0.341,3.066
				c0,0.454,0.113,0.909,0.341,1.363c0.341,0.682,0.567,1.249,0.567,2.045c0.114,0.795,0.228,1.703,0.341,2.498
				c0.228,1.704,0.568,3.635,0.909,5.339c0.227,1.591,0.567,3.294,0.908,4.885c0.114,0.908,0.682,1.817,0.795,2.726
				c0,0.568-0.113,1.136-0.113,1.704c0.228,1.022,1.817,3.407,1.249,4.657c-0.34,0.795-1.136,1.021-1.931,1.249
				c-0.341,0-0.682,0.113-1.136,0.228c-0.341,0-0.568,0.227-0.908,0.341C252.144,312.231,252.03,312.231,251.917,312.231z
				 M227.495,266.456c-0.113,0.567,0.114,1.136,0,1.703c-0.341,1.363-1.249,2.386-1.59,3.635c-0.228,0.796-0.113,1.704-0.113,2.499
				c-0.114,0.454-0.114,0.795-0.341,1.363c-0.113,0.341-0.454,0.568-0.682,0.908c-0.228,0.568-0.228,1.137-0.228,1.704
				c-0.227,1.022-0.454,2.158-0.567,3.181c-0.228,0.908-1.136,2.158-0.341,2.953c2.726,1.136,5.679,0.454,8.405,0.341
				c1.704,0,1.931,0.113,3.407-0.454c2.158-0.909,2.045-2.158,1.817-4.09c-0.227-1.703-0.454-2.385-0.795-3.861
				c-0.567-2.158-1.136-3.976-1.477-5.906c-0.228-0.909-0.113-2.045-0.341-2.84c-0.454-1.363-1.363-2.612-1.704-3.976
				c-0.567-1.931-0.795-3.976-1.817-4.316c-0.227-0.113-0.341-0.113-0.454,0.113C229.312,261.686,228.177,264.184,227.495,266.456z"
				/>
		</g>
		<g>
			<path fill="#FFFFFF" d="M312.569,234.879c0.114,2.044-0.341,3.861-0.567,5.793c-0.455,4.089-0.341,8.291-0.568,12.381
				c-0.341,5.338-0.567,10.563-0.454,15.902c0,1.931-0.568,3.407-0.909,5.338c-0.227,1.591,0,3.408-0.113,5.111
				c-0.228,2.271-0.795,4.544-1.022,6.815c-0.227,2.84-0.341,5.68-0.567,8.405c-0.228,3.862,0.341,7.838-1.136,11.473
				c-0.455,1.021-0.796,2.953-1.591,3.635c-1.022,0.908-3.066,1.249-4.316,1.249c-1.362-0.113-3.407,0.228-4.43-0.795
				c-1.363-1.249-1.931-3.635-2.726-5.339c-0.796-2.044-1.25-4.202-1.817-6.36c-0.796-3.521-1.932-6.929-2.727-10.45
				c-0.341-1.704-1.249-4.089-2.726-1.817c-0.796,1.136-1.25,2.726-1.477,4.089c-1.022,4.43-1.363,8.974-2.158,13.517
				c-0.341,2.045,0,4.09-1.477,5.793c-1.817,2.272-8.065,3.067-11.359-0.454c-0.567-0.682-1.59-3.521-1.703-4.884
				c-0.114-1.25,0.454-2.499,0.454-3.635c-0.113-1.25-0.568-2.386-0.568-3.635c-0.227-2.727-0.567-5.111-0.795-7.384
				c-0.227-2.158-0.113-3.976-0.341-6.36c-0.113-1.591-0.908-3.181-1.136-4.885c0-0.908,0.341-1.703,0.228-2.498
				c-0.114-0.909-0.682-1.817-0.796-2.727c-0.454-3.066-0.34-6.247-0.908-9.2c-0.228-0.795-0.568-1.477-0.682-2.271
				c-0.454-2.386-0.795-5.453-1.022-8.065c-0.113-0.795,0.228-1.703,0.228-2.499c-0.113-0.795-0.682-1.477-0.795-2.271
				c0-0.682,0.454-1.477,0.341-2.271c-0.114-2.158-1.022-4.544-1.022-6.701c-0.113-0.796,0.454-1.591,0.341-2.499
				c-0.114-1.477-1.25-3.067,0-4.998c0.227-0.341,5.111-0.341,5.679-0.341c1.137,0.113,3.295-0.341,4.09,0.228
				c2.158,1.362,1.703,5.452,2.158,7.61c0.795,4.997,0.341,10.108,1.59,14.879c0.795,2.613,0.795,5.566,1.136,8.179
				c0.341,2.84,0.682,5.68,0.795,8.519c0,0.682,0,1.704,0.455,2.158c1.021,1.136,1.931-2.612,2.271-3.294
				c0.908-2.044,1.59-4.202,2.271-6.36c1.022-2.84,0.795-7.27,3.181-9.428c1.363-1.136,2.612-2.158,4.316-1.25
				c1.817,1.137,2.84,3.294,3.066,5.339c0.113,2.386,0.795,4.998,1.817,7.042c0.568,1.137,1.022,2.386,1.477,3.635
				c0.341,0.682,0.341,1.932,0.795,2.499c1.136,1.704,1.704,0.341,1.932-1.022c0.227-1.136-0.341-2.157-0.228-3.294
				c0-1.362,0.454-2.726,0.454-4.202c0.341-4.657,0.341-9.314,0.341-14.085c0-3.181,0.455-6.247,0.682-9.428
				c0.113-2.044,0.228-7.155,2.612-8.178c1.704-0.909,5.111-0.228,6.929,0.227c0.682,0.228,1.137,0.455,1.591,0.796
				C312.229,233.062,312.456,233.856,312.569,234.879z"/>
		</g>
		<g>
			<path fill="#FFFFFF" d="M334.035,310.981c-1.477,0.454-3.521,0.113-5.111,0.113c-1.249,0-3.748,0.682-4.884-0.113
				c-1.137-0.795-1.817-4.43-1.932-5.793c-0.227-2.271,0.228-4.543,0-6.929c0-0.795-0.567-1.59-0.682-2.499
				c-0.341-2.499,0.341-5.906,0.114-8.405c-0.114-1.249-0.568-2.499-0.455-3.861c0-0.455,0.341-1.022,0.341-1.478
				c0-0.681-0.227-1.362-0.341-2.044c-0.113-0.795-0.113-1.591-0.113-2.271c0-1.591,0.113-3.181,0.113-4.771
				c0.114-2.953-0.454-6.133-0.227-9.087c0.341-2.044,1.136-4.543,1.136-7.155c0-1.591-0.568-3.749-0.682-5.793
				c0-1.932,0.454-3.862,0.341-5.566c0-1.021-0.454-1.931-0.568-2.839c-0.113-1.363,0-2.727-0.113-4.09
				c-0.113-1.249-0.113-2.612,0.341-3.748c0.682-2.158,2.84-2.044,4.771-2.271c1.363-0.228,2.84-0.682,4.203-0.341
				c0.682,0.113,1.136,0.454,1.59,0.682c1.022,0.341,1.59,0.113,2.045,1.249c1.477,3.294,0.682,6.929,0.567,10.45
				c-0.113,2.84,0.228,5.793,0.114,8.974c-0.114,0.908-0.682,1.703-0.796,2.612c-0.113,1.59,0.114,3.521,0.114,5.339
				c0,1.703-0.228,3.635,0,5.111c0.113,0.795,0.682,1.59,0.682,2.499c0.113,0.908-0.455,1.816-0.455,2.726
				c0.114,1.704,0.682,3.521,0.682,5.339c-0.113,2.499-0.227,4.997-0.227,7.496c0,1.022,0.113,2.045,0.227,2.953
				c0.114,0.568,0.114,0.909,0,1.363c-0.454,1.704,0.682,3.408,0.909,5.111c0.341,1.704,0.227,3.408-0.341,4.998
				c0.113,0.908,0.682,1.022,0.682,1.704c-0.114,2.271-0.341,4.43-0.455,6.701c-0.113,1.25,0,2.727-1.021,3.407
				C334.489,310.868,334.263,310.981,334.035,310.981z"/>
		</g>
	</g>
</g>
<g id="Spots" display="none">
</g>
</svg>
