<?xml version="1.0" encoding="utf-8"?>
<!-- Generator: Adobe Illustrator 17.0.0, SVG Export Plug-In . SVG Version: 6.00 Build 0)  -->
<!DOCTYPE svg PUBLIC "-//W3C//DTD SVG 1.1//EN" "http://www.w3.org/Graphics/SVG/1.1/DTD/svg11.dtd">
<svg version="1.1" xmlns="http://www.w3.org/2000/svg" xmlns:xlink="http://www.w3.org/1999/xlink" x="0px" y="0px" width="384px"
	 height="550px" viewBox="0 0 384 550" enable-background="new 0 0 384 550" xml:space="preserve">
<g id="Borders" display="none">
	<g display="inline">
		<rect x="0.392" y="-0.055" fill="#5D5D5D" width="384" height="550"/>
	</g>
</g>
<g id="Labels">
</g>
<g id="Names">
	<g>
		<polygon fill="#FFFFFF" points="79.118,315.201 72.189,256.5 67.687,256.5 61.377,328.5 66.24,328.5 70.289,282.224 76.323,328.5 
			79.564,328.5 94.339,281.053 90.188,328.5 94.959,328.5 101.269,256.5 96.948,256.5 		"/>
		<path fill="#FFFFFF" d="M129.049,257.042c-0.466-0.18-0.935-0.299-1.409-0.36c-0.477-0.06-0.924-0.09-1.343-0.09
			c-0.241,0-0.482,0.015-0.725,0.044c-0.243,0.031-0.484,0.045-0.724,0.045c-2.002,0.24-3.868,0.99-5.6,2.25
			c-1.73,1.261-2.703,2.904-2.919,5.364l-2.749,31.203h-4.321l-0.394,5h4.321l-2.474,28h4.952l2.474-28h8.643l-2.474,28h4.861
			l5.616-64.089c0.179-2.04-0.338-3.639-1.547-4.9C132.03,258.25,130.632,257.463,129.049,257.042z M127.176,295.5h-8.643
			l2.757-31.294c0.095-1.08,0.553-1.75,1.375-2.231c0.821-0.479,1.688-0.522,2.6-0.643c0.125-0.059,0.263,0.168,0.413,0.168
			c0.149,0,0.284,0,0.405,0c0.239,0,0.492-0.172,0.758-0.113c0.264,0.061,0.538,0.078,0.823,0.259
			c0.639,0.24,1.19,0.565,1.657,1.074c0.465,0.511,0.669,0.853,0.611,1.512L127.176,295.5z"/>
		<polygon fill="#FFFFFF" points="151.686,256.5 146.915,256.5 140.605,328.5 157.261,328.5 157.648,324.5 145.763,324.5 		"/>
		<polygon fill="#FFFFFF" points="179.595,256.5 174.824,256.5 168.514,328.5 185.17,328.5 185.557,324.5 173.672,324.5 		"/>
		<path fill="#FFFFFF" d="M212.562,256.411c-2.521,0-4.778,0.751-6.769,2.251c-1.993,1.5-3.088,3.391-3.288,5.671l-4.907,56.09
			c-0.283,3.241,0.474,5.402,2.27,6.482c1.796,1.08,3.892,1.637,6.287,1.697l0.009-0.103c0.059,0,0.119,0,0.18,0
			c0.059,0,0.119,0,0.18,0c0.119,0,0.209,0,0.27,0c2.162,0,4.158-0.527,5.995-1.607c1.833-1.081,2.891-3.203,3.169-6.385
			l4.915-56.177c0.194-2.219-0.527-4.094-2.163-5.625C217.072,257.175,215.022,256.411,212.562,256.411z M211.095,320.514
			c-0.1,1.141-0.556,2.057-1.366,2.746c-0.812,0.691-1.876,1.036-3.195,1.036c-1.321,0-2.343-0.345-3.062-1.036
			c-0.721-0.689-1.027-1.634-0.923-2.836l4.915-56.18c0.074-0.84,0.526-1.56,1.36-2.161c0.832-0.6,1.734-1.166,2.706-1.287
			c0.124-0.059,0.232-0.297,0.322-0.297s0.194,0,0.315,0c0.119,0,0.255,0,0.405,0c0.148,0,0.281,0.238,0.397,0.297
			c0.829,0.121,1.562,0.584,2.201,1.184c0.636,0.601,0.917,1.402,0.838,2.302L211.095,320.514z"/>
		<path fill="#FFFFFF" d="M246.937,256.5h-10.174l-3.442,39h-4.142l-0.386,5h4.142l-2.474,28c0.239,0,0.479,0,0.721,0
			c0.238,0,0.479,0,0.72,0c0.84,0,1.605,0,2.296,0c0.689,0,1.033,0.12,1.027,0.18l2.474-28.18h5.222
			c1.021,0,1.775,0.254,2.266,0.824c0.491,0.572,0.765,1.2,0.821,1.92c0.044,0.18,0.061,0.338,0.048,0.487
			c-0.014,0.15-0.025,0.282-0.036,0.401l-1.434,16.384c-0.31,3.542,0.455,5.613,2.299,6.513c1.841,0.9,3.894,1.471,6.159,1.471
			c0.12,0,0.226,0,0.315,0s0.163,0.416,0.217,0.476l0.426-4.476c-0.06,0-0.12,0-0.18,0c-0.18,0-0.494-0.251-0.941-0.282
			c-0.447-0.03-0.904-0.254-1.368-0.434c-0.585-0.18-1.11-0.584-1.574-1.094c-0.467-0.509-0.659-1.245-0.581-2.145l1.434-16.401
			c0.137-1.56,0.078-2.798-0.172-3.699c-0.252-0.9-0.652-1.654-1.198-2.255c0.656-0.66,1.19-1.442,1.6-2.342
			c0.408-0.9,0.655-1.831,0.739-2.792l2.497-28.541c0.194-2.22-0.423-4.142-1.849-5.673C250.98,257.311,249.157,256.5,246.937,256.5
			z M247.078,293.054c-0.084,0.961-0.493,1.463-1.224,1.943c-0.733,0.481-1.609,0.502-2.63,0.502h-5.222l3.041-34h5.582
			c0.9,0,1.636,0.172,2.209,0.832c0.572,0.661,0.819,1.362,0.74,2.262L247.078,293.054z"/>
		<path fill="#FFFFFF" d="M279.888,256.5c-0.061,0-0.105,0-0.136,0s-0.076,0-0.135,0c-2.161,0-4.199,0.707-6.115,2.026
			c-1.917,1.321-2.989,3.324-3.221,5.965l-4.915,56.191c-0.283,3.241,0.415,5.378,2.097,6.398c1.68,1.021,3.656,1.489,5.927,1.61
			l0.008-0.191c0.06,0,0.104,0,0.135,0s0.075,0,0.136,0c2.341,0,4.496-0.691,6.466-2.283c1.97-1.589,3.05-3.28,3.238-5.441
			l0.74-8.277h-4.682l-0.732,8.239c-0.11,1.26-0.66,2.167-1.647,2.826c-0.989,0.661-2.054,0.936-3.192,0.936
			c-0.121,0-0.225,0-0.314,0s-0.197,0-0.316,0c-0.83,0-1.578-0.492-2.246-1.093c-0.668-0.599-0.951-1.476-0.852-2.617l4.923-56.273
			c0.016-0.18,0.046-0.361,0.093-0.542c0.045-0.18,0.079-0.39,0.1-0.631c0.228-0.54,0.616-1.05,1.169-1.531
			c0.552-0.479,1.488-0.72,2.81-0.72c1.2,0,2.206,0.33,3.02,0.99c0.812,0.661,1.176,1.642,1.092,2.602l-0.756,8.814h4.502
			l0.756-8.814c0.189-2.161-0.55-4.138-2.217-5.669C283.954,257.487,282.043,256.5,279.888,256.5z"/>
		<path fill="#FFFFFF" d="M321.042,259.563c-1.21-1.261-2.607-2.1-4.19-2.521c-0.466-0.18-0.935-0.299-1.409-0.36
			c-0.477-0.06-0.924-0.09-1.343-0.09c-0.241,0-0.482,0.015-0.725,0.044c-0.243,0.031-0.484,0.045-0.724,0.045
			c-2.003,0.24-3.868,0.99-5.6,2.25c-1.73,1.261-2.703,2.904-2.919,5.364l-2.749,31.203h-4.321l-0.394,5h4.321l-2.474,28h4.952
			l2.474-28h8.643l-2.474,28h4.861l5.616-64.089C322.767,262.371,322.25,260.823,321.042,259.563z M314.978,295.5h-8.643
			l2.757-31.294c0.095-1.08,0.553-1.75,1.375-2.231c0.821-0.479,1.688-0.522,2.6-0.643c0.125-0.059,0.263,0.168,0.413,0.168
			c0.149,0,0.284,0,0.405,0c0.239,0,0.492-0.172,0.758-0.113c0.264,0.061,0.538,0.078,0.823,0.259
			c0.639,0.24,1.19,0.565,1.657,1.074c0.465,0.511,0.669,0.853,0.611,1.512L314.978,295.5z"/>
		<path fill="#FFFFFF" d="M197.954,227.278c-0.019-14.785-0.014-29.57-0.02-44.355c0-0.252-0.076-0.297-0.125-0.602
			c-0.859,0.552-37.048,45.179-37.1,46.179c0.257,0,0.506,0,0.755,0c11.88,0,23.76-0.212,35.64-0.195
			C197.737,228.306,197.955,227.955,197.954,227.278z"/>
		<path fill="#FFFFFF" d="M210.33,199.102c-2.765-2.459-5.33-4.542-9.33-6.181c0,11.686,0,23.579,0,34.579c8,0,14.812,0,22.117,0
			c0.025,0,0.05-0.081,0.058-0.171c0.399-4.424-0.282-8.637-1.838-12.785C219.038,208.419,215.185,203.421,210.33,199.102z"/>
		<path fill="#FFFFFF" d="M203.514,240.65c1.255,0.556,2.589,0.826,3.912,0.826c2.953,0,5.847-1.349,7.657-3.881
			c1.029-1.438,2.174-2.602,3.262-3.997c0.572-0.733,1.138-2.099,1.772-2.099c-16.911,0-34.117,0-50.117,0c0,3,0,5.584,0,8.55
			c0,0.215,0.927,0.412,1.468,0.635c1.297,0.535,2.496,0.804,3.787,0.804c1.343,0,2.635-0.292,3.97-0.881
			c1.35-0.596,2.674-0.894,4.021-0.894c1.347,0,2.683,0.298,4.033,0.894c1.343,0.593,2.685,0.89,4.033,0.89
			c1.332,0,2.661-0.291,3.986-0.874c1.364-0.601,2.717-0.899,4.071-0.899C200.749,239.725,202.126,240.035,203.514,240.65z
			 M194.086,237.879c-0.947,0.417-1.856,0.62-2.78,0.62c-0.935,0-1.86-0.208-2.828-0.635c-1.728-0.763-3.497-1.149-5.256-1.149
			c-1.76,0-3.529,0.387-5.256,1.15c-0.953,0.421-1.683,0.626-2.617,0.626c-0.835,0-2.349-0.163-2.349-0.498V234.5h40.95
			c-0.441,0-0.882,0.947-1.307,1.543c-1.176,1.644-3.126,2.53-5.217,2.53c-0.937,0-1.844-0.24-2.697-0.617
			c-1.77-0.784-3.574-1.206-5.362-1.206C197.601,236.749,195.824,237.113,194.086,237.879z"/>
	</g>
</g>
<g id="Spots" display="none">
	<path display="inline" fill="#16C98D" d="M301,104.5c0,21.539-17.461,39-39,39s-39-17.461-39-39c0-21.539,17.461-39,39-39
		S301,82.961,301,104.5"/>
</g>
</svg>
