<svg xmlns="http://www.w3.org/2000/svg" width="384" height="550"><g fill="#fff"><polygon points="79.118,315.201 72.189,256.5 67.687,256.5 61.377,328.5 66.24,328.5 70.289,282.224 76.323,328.5 79.564,328.5 94.339,281.053 90.188,328.5 94.959,328.5 101.269,256.5 96.948,256.5"/><path d="M129.049 257.042c-.466-.18-.935-.299-1.409-.36-.477-.06-.924-.09-1.343-.09-.241 0-.482.015-.725.044-.243.031-.484.045-.724.045-2.002.24-3.868.99-5.6 2.25-1.73 1.261-2.703 2.904-2.919 5.364l-2.749 31.203h-4.321l-.394 5h4.321l-2.474 28h4.952l2.474-28h8.643l-2.474 28h4.861l5.616-64.089c.179-2.04-.338-3.639-1.547-4.9-1.207-1.259-2.605-2.046-4.188-2.467zm-1.873 38.458h-8.643l2.757-31.294c.095-1.08.553-1.75 1.375-2.231.821-.479 1.688-.522 2.6-.643.125-.059.263.168.413.168h.405c.239 0 .492-.172.758-.113.264.061.538.078.823.259.639.24 1.19.565 1.657 1.074.465.511.669.853.611 1.512l-2.756 31.268z"/><polygon points="151.686,256.5 146.915,256.5 140.605,328.5 157.261,328.5 157.648,324.5 145.763,324.5"/><polygon points="179.595,256.5 174.824,256.5 168.514,328.5 185.17,328.5 185.557,324.5 173.672,324.5"/><path d="M212.562 256.411c-2.521 0-4.778.751-6.769 2.251-1.993 1.5-3.088 3.391-3.288 5.671l-4.907 56.09c-.283 3.241.474 5.402 2.27 6.482s3.892 1.637 6.287 1.697l.009-.103h.63c2.162 0 4.158-.527 5.995-1.607 1.833-1.081 2.891-3.203 3.169-6.385l4.915-56.177c.194-2.219-.527-4.094-2.163-5.625-1.638-1.53-3.688-2.294-6.148-2.294zm-1.467 64.103c-.1 1.141-.556 2.057-1.366 2.746-.812.691-1.876 1.036-3.195 1.036-1.321 0-2.343-.345-3.062-1.036-.721-.689-1.027-1.634-.923-2.836l4.915-56.18c.074-.84.526-1.56 1.36-2.161.832-.6 1.734-1.166 2.706-1.287l.322-.297h.72c.148 0 .281.238.397.297.829.121 1.562.584 2.201 1.184.636.601.917 1.402.838 2.302l-4.913 56.232zM246.937 256.5h-10.174l-3.442 39h-4.142l-.386 5h4.142l-2.474 28h3.7369999999999997c.689 0 1.033.12 1.027.18l2.474-28.18h5.222c1.021 0 1.775.254 2.266.824.491.572.765 1.2.821 1.92.044.18.061.338.048.487l-.036.401-1.434 16.384c-.31 3.542.455 5.613 2.299 6.513 1.841.9 3.894 1.471 6.159 1.471h.315s.163.416.217.476l.426-4.476h-.18c-.18 0-.494-.251-.941-.282-.447-.03-.904-.254-1.368-.434-.585-.18-1.11-.584-1.574-1.094-.467-.509-.659-1.245-.581-2.145l1.434-16.401c.137-1.56.078-2.798-.172-3.699-.252-.9-.652-1.654-1.198-2.255.656-.66 1.19-1.442 1.6-2.342.408-.9.655-1.831.739-2.792l2.497-28.541c.194-2.22-.423-4.142-1.849-5.673-1.429-1.531-3.252-2.342-5.472-2.342zm.141 36.554c-.084.961-.493 1.463-1.224 1.943-.733.481-1.609.502-2.63.502h-5.222l3.041-34h5.582c.9 0 1.636.172 2.209.832.572.661.819 1.362.74 2.262l-2.496 28.461zM279.888 256.5h-.271c-2.161 0-4.199.707-6.115 2.026-1.917 1.321-2.989 3.324-3.221 5.965l-4.915 56.191c-.283 3.241.415 5.378 2.097 6.398 1.68 1.021 3.656 1.489 5.927 1.61l.008-.191h.271c2.341 0 4.496-.691 6.466-2.283 1.97-1.589 3.05-3.28 3.238-5.441l.74-8.277h-4.682l-.732 8.239c-.11 1.26-.66 2.167-1.647 2.826-.989.661-2.054.936-3.192.936h-.63c-.83 0-1.578-.492-2.246-1.093-.668-.599-.951-1.476-.852-2.617l4.923-56.273c.016-.18.046-.361.093-.542.045-.18.079-.39.1-.631.228-.54.616-1.05 1.169-1.531.552-.479 1.488-.72 2.81-.72 1.2 0 2.206.33 3.02.99.812.661 1.176 1.642 1.092 2.602l-.756 8.814h4.502l.756-8.814c.189-2.161-.55-4.138-2.217-5.669-1.67-1.528-3.581-2.515-5.736-2.515zM321.042 259.563c-1.21-1.261-2.607-2.1-4.19-2.521-.466-.18-.935-.299-1.409-.36-.477-.06-.924-.09-1.343-.09-.241 0-.482.015-.725.044-.243.031-.484.045-.724.045-2.003.24-3.868.99-5.6 2.25-1.73 1.261-2.703 2.904-2.919 5.364l-2.749 31.203h-4.321l-.394 5h4.321l-2.474 28h4.952l2.474-28h8.643l-2.474 28h4.861l5.616-64.089c.18-2.038-.337-3.586-1.545-4.846zm-6.064 35.937h-8.643l2.757-31.294c.095-1.08.553-1.75 1.375-2.231.821-.479 1.688-.522 2.6-.643.125-.059.263.168.413.168h.405c.239 0 .492-.172.758-.113.264.061.538.078.823.259.639.24 1.19.565 1.657 1.074.465.511.669.853.611 1.512l-2.756 31.268zM197.954 227.278c-.019-14.785-.014-29.57-.02-44.355 0-.252-.076-.297-.125-.602-.859.552-37.048 45.179-37.1 46.179h.755c11.88 0 23.76-.212 35.64-.195.633.001.851-.35.85-1.027zM210.33 199.102c-2.765-2.459-5.33-4.542-9.33-6.181v34.579h22.117c.025 0 .05-.081.058-.171.399-4.424-.282-8.637-1.838-12.785-2.299-6.125-6.152-11.123-11.007-15.442zM203.514 240.65c1.255.556 2.589.826 3.912.826 2.953 0 5.847-1.349 7.657-3.881 1.029-1.438 2.174-2.602 3.262-3.997.572-.733 1.138-2.099 1.772-2.099h-50.117v8.55c0 .215.927.412 1.468.635 1.297.535 2.496.804 3.787.804 1.343 0 2.635-.292 3.97-.881 1.35-.596 2.674-.894 4.021-.894s2.683.298 4.033.894c1.343.593 2.685.89 4.033.89 1.332 0 2.661-.291 3.986-.874 1.364-.601 2.717-.899 4.071-.899 1.38.001 2.757.311 4.145.926zm-9.428-2.771c-.947.417-1.856.62-2.78.62-.935 0-1.86-.208-2.828-.635-1.728-.763-3.497-1.149-5.256-1.149-1.76 0-3.529.387-5.256 1.15-.953.421-1.683.626-2.617.626-.835 0-2.349-.163-2.349-.498v-3.493h40.95c-.441 0-.882.947-1.307 1.543-1.176 1.644-3.126 2.53-5.217 2.53-.937 0-1.844-.24-2.697-.617-1.77-.784-3.574-1.206-5.362-1.206-1.766-.001-3.543.363-5.281 1.129z"/></g></svg>