<?xml version="1.0" encoding="utf-8"?>
<!-- Generator: Adobe Illustrator 17.0.0, SVG Export Plug-In . SVG Version: 6.00 Build 0)  -->
<!DOCTYPE svg PUBLIC "-//W3C//DTD SVG 1.1//EN" "http://www.w3.org/Graphics/SVG/1.1/DTD/svg11.dtd">
<svg version="1.1" xmlns="http://www.w3.org/2000/svg" xmlns:xlink="http://www.w3.org/1999/xlink" x="0px" y="0px" width="384px"
	 height="550px" viewBox="0 0 384 550" enable-background="new 0 0 384 550" xml:space="preserve">
<g id="Borders" display="none">
	<g display="inline">
		<rect x="0.392" y="-0.055" fill="#5D5D5D" width="384" height="550"/>
	</g>
</g>
<g id="Labels">
</g>
<g id="Names">
	<g>
		<g>
			<path fill="#FFFFFF" d="M143.401,218.394c0,43.899,0,87.798,0,131.698c-2.482,0.42-4.964,0.812-7.446,1.175
				c0-43.822,0-87.643,0-131.465c0.001-2.563-1.863-4.606-4.886-4.213c-2.328,0.303-4.654,2.422-4.654,5.448
				c0,43.822,0,87.643,0,131.465c-2.482,0.278-4.964,0.519-7.446,0.722c0-43.822,0-87.644,0-131.465
				c0.002-3.256-2.557-4.676-4.887-4.541c-2.789,0.168-4.653,2.552-4.653,5.114c0,43.822,0,87.643,0,131.465
				c-2.482,0.094-4.964,0.143-7.446,0.143c0-43.899,0-87.799,0-131.698c0.001-6.755,4.886-12.052,11.634-12.442
				c4.885-0.291,7.446,2.004,9.075,4.413c1.396-2.701,3.954-5.495,9.075-6.16C138.282,207.194,143.402,211.64,143.401,218.394z"/>
		</g>
		<g>
			<path fill="#FFFFFF" d="M152.939,205.258c6.67-1.292,13.34-2.739,20.01-4.261c0,2.404,0,4.809,0,7.213
				c-4.188,0.956-8.376,1.883-12.564,2.759c0,29.861,0,59.721,0,89.582c3.878-0.812,7.756-1.666,11.634-2.547
				c0,2.404,0,4.809,0,7.213c-3.878,0.881-7.756,1.735-11.634,2.547c0,10.548,0,21.096,0,31.645
				c4.188-0.876,8.376-1.803,12.564-2.759c0,2.482,0,4.964,0,7.446c-6.67,1.523-13.34,2.969-20.01,4.261c0-13.03,0-26.06,0-39.09
				c-1.396,0.27-2.792,0.534-4.188,0.791c0-2.405,0-4.809,0-7.213c1.396-0.256,2.792-0.52,4.188-0.791
				C152.939,269.788,152.939,237.523,152.939,205.258z"/>
		</g>
		<g>
			<path fill="#FFFFFF" d="M198.079,295.106c2.327,13.872,4.653,27.512,7.213,41.337c-2.482,0.583-4.964,1.172-7.446,1.764
				c-1.784-12.604-3.568-25.207-5.351-37.81c-0.233,0.056-0.234,0.056-0.233,0.056c-0.388,0.093-0.775,0.186-1.163,0.278
				c-0.388,0.093-0.776,0.186-1.164,0.279c-1.784,13.457-3.568,26.913-5.352,40.367c-2.482,0.59-4.964,1.176-7.446,1.753
				c2.326-14.969,4.652-29.708,7.213-44.743c-2.327-32.798-4.654-65.601-6.981-98.41c2.405-0.56,4.81-1.127,7.214-1.699
				c1.862,31.823,3.723,63.643,5.584,95.463c0.698-0.167,1.396-0.334,2.094-0.501c1.861-32.711,3.723-65.422,5.584-98.131
				c2.405-0.574,4.809-1.145,7.213-1.709C202.733,227.296,200.406,261.2,198.079,295.106z"/>
		</g>
		<g>
			<path fill="#FFFFFF" d="M211.106,191.995c2.481-0.569,4.964-1.128,7.446-1.674c0,47.699,0,95.4,0,143.099
				c-2.482,0.545-4.964,1.104-7.446,1.674C211.106,287.394,211.106,239.695,211.106,191.995z"/>
		</g>
		<g>
			<path fill="#FFFFFF" d="M251.59,195.65c0,9.074,0,18.149,0,27.224c-2.482,0.341-4.964,0.714-7.446,1.115
				c0-9.075,0-18.149,0-27.224c0-2.791-2.095-4.551-4.654-4.103c-2.792,0.487-4.885,2.983-4.886,5.773c0,40.021,0,80.042,0,120.063
				c0.002,2.792,2.094,4.489,4.886,4c2.56-0.447,4.655-2.876,4.654-5.67c0-10.005,0-20.01,0-30.016
				c2.482-0.4,4.964-0.773,7.446-1.115c0,10.005,0,20.01,0,30.016c0,6.75-5.353,13.044-12.1,14.23
				c-6.748,1.179-12.332-2.999-12.332-9.985c0-40.021,0-80.042,0-120.063c0-6.742,5.584-13.266,12.332-14.447
				C246.237,184.26,251.589,188.906,251.59,195.65z"/>
		</g>
		<g>
			<path fill="#FFFFFF" d="M283,193.341c0,40.021,0,80.042,0,120.063c0.001,6.753-5.351,12.291-12.1,12.703
				c-6.748,0.4-12.332-4.509-12.332-11.265c0-40.021,0-80.042,0-120.063c0.001-6.508,5.585-12.766,12.332-13.166
				C277.647,181.2,283,186.6,283,193.341z M275.554,193.484c0-2.556-1.858-4.824-4.654-4.659c-2.792,0.168-4.885,2.44-4.886,5.232
				c0,40.021,0,80.042,0,120.063c0,2.794,2.094,4.708,4.886,4.541c2.792-0.166,4.653-2.553,4.654-5.114
				C275.554,273.526,275.554,233.505,275.554,193.484z"/>
		</g>
	</g>
	<g>
		<polygon fill="#FFFFFF" points="170.277,186.109 160.796,197.358 157.692,193.779 167.172,182.412 		"/>
	</g>
</g>
<g id="Spots" display="none">
</g>
</svg>
