<svg xmlns="http://www.w3.org/2000/svg" width="384" height="550"><g><path fill="#fff" d="M143.401 218.394v131.698c-2.482.42-4.964.812-7.446 1.175v-131.465c.001-2.563-1.863-4.606-4.886-4.213-2.328.303-4.654 2.422-4.654 5.448v131.465c-2.482.278-4.964.519-7.446.722v-131.465c.002-3.256-2.557-4.676-4.887-4.541-2.789.168-4.653 2.552-4.653 5.114v131.465c-2.482.094-4.964.143-7.446.143v-131.698c.001-6.755 4.886-12.052 11.634-12.442 4.885-.291 7.446 2.004 9.075 4.413 1.396-2.701 3.954-5.495 9.075-6.16 6.515-.859 11.635 3.587 11.634 10.341z"/><path fill="#fff" d="M152.939 205.258c6.67-1.292 13.34-2.739 20.01-4.261v7.213c-4.188.956-8.376 1.883-12.564 2.759v89.582c3.878-.812 7.756-1.666 11.634-2.547v7.213c-3.878.881-7.756 1.735-11.634 2.547v31.645c4.188-.876 8.376-1.803 12.564-2.759v7.446c-6.67 1.523-13.34 2.969-20.01 4.261v-39.09c-1.396.27-2.792.534-4.188.791v-7.213c1.396-.256 2.792-.52 4.188-.791v-96.796z"/><path fill="#fff" d="M198.079 295.106c2.327 13.872 4.653 27.512 7.213 41.337-2.482.583-4.964 1.172-7.446 1.764-1.784-12.604-3.568-25.207-5.351-37.81l-.233.056-1.163.278-1.164.279c-1.784 13.457-3.568 26.913-5.352 40.367-2.482.59-4.964 1.176-7.446 1.753 2.326-14.969 4.652-29.708 7.213-44.743-2.327-32.798-4.654-65.601-6.981-98.41 2.405-.56 4.81-1.127 7.214-1.699 1.862 31.823 3.723 63.643 5.584 95.463l2.094-.501c1.861-32.711 3.723-65.422 5.584-98.131 2.405-.574 4.809-1.145 7.213-1.709-2.325 33.896-4.652 67.8-6.979 101.706z"/><path fill="#fff" d="M211.106 191.995c2.481-.569 4.964-1.128 7.446-1.674v143.099c-2.482.545-4.964 1.104-7.446 1.674v-143.099z"/><path fill="#fff" d="M251.59 195.65v27.224c-2.482.341-4.964.714-7.446 1.115v-27.224c0-2.791-2.095-4.551-4.654-4.103-2.792.487-4.885 2.983-4.886 5.773v120.063c.002 2.792 2.094 4.489 4.886 4 2.56-.447 4.655-2.876 4.654-5.67v-30.016c2.482-.4 4.964-.773 7.446-1.115v30.016c0 6.75-5.353 13.044-12.1 14.23-6.748 1.179-12.332-2.999-12.332-9.985v-120.063c0-6.742 5.584-13.266 12.332-14.447 6.747-1.188 12.099 3.458 12.1 10.202z"/><path fill="#fff" d="M283 193.341v120.063c.001 6.753-5.351 12.291-12.1 12.703-6.748.4-12.332-4.509-12.332-11.265v-120.063c.001-6.508 5.585-12.766 12.332-13.166 6.747-.413 12.1 4.987 12.1 11.728zm-7.446.143c0-2.556-1.858-4.824-4.654-4.659-2.792.168-4.885 2.44-4.886 5.232v120.063c0 2.794 2.094 4.708 4.886 4.541 2.792-.166 4.653-2.553 4.654-5.114v-120.063z"/><polygon fill="#fff" points="170.277,186.109 160.796,197.358 157.692,193.779 167.172,182.412"/></g></svg>