<?xml version="1.0" encoding="utf-8"?>
<!-- Generator: Adobe Illustrator 17.0.0, SVG Export Plug-In . SVG Version: 6.00 Build 0)  -->
<!DOCTYPE svg PUBLIC "-//W3C//DTD SVG 1.1//EN" "http://www.w3.org/Graphics/SVG/1.1/DTD/svg11.dtd">
<svg version="1.1" xmlns="http://www.w3.org/2000/svg" xmlns:xlink="http://www.w3.org/1999/xlink" x="0px" y="0px" width="384px"
	 height="550px" viewBox="0 0 384 550" enable-background="new 0 0 384 550" xml:space="preserve">
<g id="Borders" display="none">
	<g display="inline">
		<rect fill="#5D5D5D" width="384" height="550"/>
	</g>
</g>
<g id="Labels">
</g>
<g id="Names">
	<g>
		<g>
			<path fill="#FFFFFF" d="M70.934,342.741l-5.178,1.388l-1.725-18.439l-4.633,1.241l-1.817,19.388l-5.177,1.388l6.63-70.894
				l5.269-1.412L70.934,342.741z M62.032,320.865l1.453-0.39l-1.271-15.271l-1.09,0.293l-1.272,15.951l1.454-0.39L62.032,320.865z"
				/>
			<path fill="#FFFFFF" d="M95.82,329.49l6.449-1.729v-62.347l5.269-1.411v64.416l-5.269,5.831l-6.449,1.728l-5.269-3.008v-64.416
				l5.269-1.412V329.49z"/>
			<path fill="#FFFFFF" d="M139.875,270.009v-8.839l-6.268,1.68v57.361l6.268-1.679v-12.978l5.269-1.412v12.979l-3.997,6.995
				l-8.175,2.19l-4.632-4.684V264.73l4.632-7.542l8.175-2.19l3.997,5.23v8.369L139.875,270.009z"/>
			<path fill="#FFFFFF" d="M174.845,274.463l12.171,37.363l-5.541,1.484l-9.9-30.825l-1.09,3.019v30.751l-5.269,1.412v-69.118
				l5.269-1.412v26.613l10.99-29.558l5.541-1.485L174.845,274.463z"/>
			<path fill="#FFFFFF" d="M204.184,307.131v-69.117l5.268-1.412v63.477l8.539-2.288v5.642L204.184,307.131z"/>
			<path fill="#FFFFFF" d="M253.687,293.773l-5.178,1.387l-1.726-18.439l-4.633,1.242l-1.816,19.388l-5.178,1.388l6.63-70.895
				l5.269-1.411L253.687,293.773z M244.784,271.896l1.454-0.39l-1.271-15.27l-1.091,0.292l-1.271,15.951l1.453-0.39L244.784,271.896
				z"/>
			<path fill="#FFFFFF" d="M293.107,214.375v68.835l-5.359,1.437l-9.447-39.316l-0.181,0.049v41.847l-5.269,1.412v-68.835
				l5.269-1.412l0.181-0.049l9.447,39.316v-41.848L293.107,214.375z"/>
			<path fill="#FFFFFF" d="M326.262,205.396l3.997,5.23v0.471v7.898v35.545v3.574v9.404l-3.997,6.995l-12.807,3.432v-5.925v-63.193
				L326.262,205.396z M324.99,220.407v-7.898v-0.94l-6.268,1.68v57.361l6.268-1.679v-9.403v-3.574V220.407z"/>
		</g>
	</g>
</g>
<g id="Spots" display="none">
</g>
</svg>
