<svg xmlns="http://www.w3.org/2000/svg" width="384" height="550"><g fill="#fff"><path d="M65.308 302.151v-51.104h23.906c11.109 0 17.162 7.508 17.162 16.472 0 8.888-6.13 16.397-17.162 16.397h-13.026v18.235h-10.88zm29.958-34.631c0-4.29-3.294-6.896-7.585-6.896h-11.493v13.715h11.493c4.292 0 7.585-2.605 7.585-6.819zM207.987 302.151l-10.037-18.158h-7.967v18.158h-10.881v-51.104h23.906c10.65 0 17.238 6.972 17.238 16.472 0 8.964-5.745 13.868-11.262 15.17l11.569 19.462h-12.566zm1.073-34.708c0-4.213-3.294-6.819-7.585-6.819h-11.492v13.792h11.492c4.291 0 7.585-2.606 7.585-6.973zM243.685 302.151v-51.104h10.88v51.104h-10.88zM276.475 294.949l5.976-8.504c3.601 3.754 9.195 6.972 16.244 6.972 6.053 0 8.887-2.681 8.887-5.67 0-8.888-29.421-2.681-29.421-21.913 0-8.504 7.355-15.554 19.385-15.554 8.121 0 14.863 2.452 19.921 7.126l-6.053 8.121c-4.138-3.83-9.653-5.593-14.863-5.593-4.597 0-7.203 1.992-7.203 5.056 0 8.046 29.344 2.606 29.344 21.684 0 9.348-6.742 16.397-20.456 16.397-9.885 0-16.933-3.295-21.761-8.122zM149.643 301.695l-.132-.299c-2.911-6.61-8.108-10.718-13.564-10.718-5.699 0-11.555 4.312-14.57 10.729l-.135.287h-10.612l.941-.868c.102-.093 10.159-9.444 14.084-20.04 1.71-4.616 3.751-19.077 5.551-31.836.469-3.32.918-6.506 1.338-9.345h-1.081l-.488-10.729 3.092-1.415.579-12.557.999.016.186 12.424 3.089 1.211-.488 11.051h-.81c.561 3.478 1.161 7.464 1.795 11.671 1.802 11.956 3.844 25.508 5.388 29.646 3.747 10.046 14.214 19.808 14.319 19.905l.937.867h-10.418zm-8.655-19.797l-2.891-11.654h-5.99l-2.549 11.654h11.43zM135.145 214.929l.19 12.758 3.068 1.204-.451 10.215h-.919c2.217 13.621 5.178 36.296 7.302 41.992 3.834 10.278 14.448 20.098 14.448 20.098h-8.815c-2.802-6.362-7.938-11.016-14.022-11.016s-12.01 4.607-15.022 11.016h-9.013s10.2-9.398 14.214-20.234c2.212-5.974 4.97-28.234 7-41.855h-1.184l-.451-9.915 3.062-1.401.593-12.862m-6.207 67.469h12.691l-3.14-12.654h-6.784l-2.767 12.654m5.208-67.515l-.565 12.251-2.508 1.147-.614.281.031.674.451 9.915.043.955h.981c-.396 2.692-.815 5.664-1.256 8.786-1.796 12.729-3.833 27.157-5.523 31.722-3.885 10.49-13.854 19.754-13.954 19.846l-1.884 1.735h12.209l.27-.575c2.935-6.245 8.608-10.441 14.117-10.441 5.254 0 10.277 3.992 13.107 10.419l.263.597h12.018999999999998l-1.873-1.734c-.104-.097-10.486-9.783-14.19-19.713-1.525-4.088-3.563-17.609-5.361-29.538-.6-3.979-1.17-7.762-1.705-11.104h.702l.042-.956.451-10.215.031-.714-.665-.261-2.443-.959-.18-12.087-1.996-.031zm-1.636 55.861h5.197l2.644 10.654h-10.17l2.329-10.654z"/><rect x="121.5" y="281.5" stroke="#fff" stroke-miterlimit="10" width="27" height="3"/></g></svg>