<?xml version="1.0" encoding="utf-8"?>
<!-- Generator: Adobe Illustrator 17.0.0, SVG Export Plug-In . SVG Version: 6.00 Build 0)  -->
<!DOCTYPE svg PUBLIC "-//W3C//DTD SVG 1.1//EN" "http://www.w3.org/Graphics/SVG/1.1/DTD/svg11.dtd">
<svg version="1.1" xmlns="http://www.w3.org/2000/svg" xmlns:xlink="http://www.w3.org/1999/xlink" x="0px" y="0px" width="384px"
	 height="550px" viewBox="0 0 384 550" enable-background="new 0 0 384 550" xml:space="preserve">
<g id="Borders" display="none">
	<g display="inline">
		<rect y="-0.5" fill="#5D5D5D" width="384" height="550"/>
	</g>
</g>
<g id="Labels">
</g>
<g id="Names">
	<g>
		<g>
			<path fill="#FFFFFF" d="M65.308,302.151v-51.104h23.906c11.109,0,17.162,7.508,17.162,16.472c0,8.888-6.13,16.397-17.162,16.397
				H76.188v18.235H65.308z M95.266,267.52c0-4.29-3.294-6.896-7.585-6.896H76.188v13.715h11.493
				C91.973,274.339,95.266,271.734,95.266,267.52z"/>
			<path fill="#FFFFFF" d="M207.987,302.151l-10.037-18.158h-7.967v18.158h-10.881v-51.104h23.906
				c10.65,0,17.238,6.972,17.238,16.472c0,8.964-5.745,13.868-11.262,15.17l11.569,19.462H207.987z M209.06,267.443
				c0-4.213-3.294-6.819-7.585-6.819h-11.492v13.792h11.492C205.766,274.416,209.06,271.81,209.06,267.443z"/>
			<path fill="#FFFFFF" d="M243.685,302.151v-51.104h10.88v51.104H243.685z"/>
			<path fill="#FFFFFF" d="M276.475,294.949l5.976-8.504c3.601,3.754,9.195,6.972,16.244,6.972c6.053,0,8.887-2.681,8.887-5.67
				c0-8.888-29.421-2.681-29.421-21.913c0-8.504,7.355-15.554,19.385-15.554c8.121,0,14.863,2.452,19.921,7.126l-6.053,8.121
				c-4.138-3.83-9.653-5.593-14.863-5.593c-4.597,0-7.203,1.992-7.203,5.056c0,8.046,29.344,2.606,29.344,21.684
				c0,9.348-6.742,16.397-20.456,16.397C288.351,303.071,281.303,299.776,276.475,294.949z"/>
		</g>
		<g>
			<path fill="#FFFFFF" d="M149.643,301.695l-0.132-0.299c-2.911-6.61-8.108-10.718-13.564-10.718
				c-5.699,0-11.555,4.312-14.57,10.729l-0.135,0.287H110.63l0.941-0.868c0.102-0.093,10.159-9.444,14.084-20.04
				c1.71-4.616,3.751-19.077,5.551-31.836c0.469-3.32,0.918-6.506,1.338-9.345h-1.081l-0.488-10.729l3.092-1.415l0.579-12.557
				l0.999,0.016l0.186,12.424l3.089,1.211l-0.488,11.051h-0.81c0.561,3.478,1.161,7.464,1.795,11.671
				c1.802,11.956,3.844,25.508,5.388,29.646c3.747,10.046,14.214,19.808,14.319,19.905l0.937,0.867h-1.276H149.643z
				 M140.988,281.898l-2.891-11.654h-5.99l-2.549,11.654H140.988z"/>
			<path fill="#FFFFFF" d="M135.145,214.929l0.19,12.758l3.068,1.204l-0.451,10.215h-0.919c2.217,13.621,5.178,36.296,7.302,41.992
				c3.834,10.278,14.448,20.098,14.448,20.098h-8.815c-2.802-6.362-7.938-11.016-14.022-11.016s-12.01,4.607-15.022,11.016h-9.013
				c0,0,10.2-9.398,14.214-20.234c2.212-5.974,4.97-28.234,7-41.855h-1.184l-0.451-9.915l3.062-1.401L135.145,214.929
				 M128.938,282.398h12.691l-3.14-12.654h-6.784L128.938,282.398 M134.146,214.883l-0.565,12.251l-2.508,1.147l-0.614,0.281
				l0.031,0.674l0.451,9.915l0.043,0.955h0.956h0.025c-0.396,2.692-0.815,5.664-1.256,8.786
				c-1.796,12.729-3.833,27.157-5.523,31.722c-3.885,10.49-13.854,19.754-13.954,19.846l-1.884,1.735h2.561h9.013h0.635l0.27-0.575
				c2.935-6.245,8.608-10.441,14.117-10.441c5.254,0,10.277,3.992,13.107,10.419l0.263,0.597h0.652h8.815h2.552l-1.873-1.734
				c-0.104-0.097-10.486-9.783-14.19-19.713c-1.525-4.088-3.563-17.609-5.361-29.538c-0.6-3.979-1.17-7.762-1.705-11.104h0.702
				l0.042-0.956l0.451-10.215l0.031-0.714l-0.665-0.261l-2.443-0.959l-0.18-12.087L134.146,214.883L134.146,214.883z
				 M132.51,270.744h5.197l2.644,10.654h-10.17L132.51,270.744L132.51,270.744z"/>
		</g>
	</g>
	<rect x="121.5" y="281.5" fill="#FFFFFF" stroke="#FFFFFF" stroke-miterlimit="10" width="27" height="3"/>
</g>
<g id="Spots" display="none">
	<circle display="inline" fill="#FA5E5B" cx="82" cy="40" r="39"/>
</g>
</svg>
