<?xml version="1.0" encoding="utf-8"?>
<!-- Generator: Adobe Illustrator 17.0.0, SVG Export Plug-In . SVG Version: 6.00 Build 0)  -->
<!DOCTYPE svg PUBLIC "-//W3C//DTD SVG 1.1//EN" "http://www.w3.org/Graphics/SVG/1.1/DTD/svg11.dtd">
<svg version="1.1" xmlns="http://www.w3.org/2000/svg" xmlns:xlink="http://www.w3.org/1999/xlink" x="0px" y="0px" width="384px"
	 height="550px" viewBox="0 0 384 550" enable-background="new 0 0 384 550" xml:space="preserve">
<g id="Borders" display="none">
	<g display="inline">
		<rect x="0.392" y="-0.055" fill="#5D5D5D" width="384" height="550"/>
	</g>
</g>
<g id="Labels">
</g>
<g id="Names">
	<g>
		<g>
			<path fill="#FFFFFF" d="M36.619,312.691l7.626-4.357c1.928,5.195,5.866,8.128,10.392,8.128c5.447,0,8.548-3.771,8.548-8.883
				c0-10.475-22.626-15.084-22.626-29.749c0-8.045,6.62-13.576,13.994-13.576c5.363,0,9.889,2.431,12.57,6.704l-6.452,5.279
				c-1.425-2.179-3.353-3.938-5.866-3.938c-3.101,0-5.363,2.431-5.363,5.615c0,8.296,22.71,13.575,22.71,29.581
				c0,9.805-7.626,17.096-17.599,17.096C47.011,324.591,39.637,320.736,36.619,312.691z"/>
		</g>
		<g>
			<path fill="#FFFFFF" d="M107.853,295.596c-2.347-2.598-5.028-4.357-8.883-4.357c-6.872,0-11.48,5.363-11.48,12.653
				c0,7.543,4.776,12.654,11.48,12.654c4.022,0,7.207-2.011,9.302-5.028l6.369,5.028c-3.854,5.196-9.051,7.961-15.671,7.961
				c-11.564,0-20.196-9.134-20.196-20.615c0-11.48,8.632-20.614,20.112-20.614c6.034,0,11.062,2.598,14.833,6.704
				C111.791,291.908,109.78,293.752,107.853,295.596z"/>
		</g>
		<g>
			<path fill="#FFFFFF" d="M120.76,303.892c0-11.564,8.967-20.614,20.363-20.614c11.313,0,20.364,9.05,20.364,20.614
				c0,11.648-9.051,20.699-20.364,20.699C129.727,324.591,120.76,315.54,120.76,303.892z M152.855,303.892
				c0-7.458-4.692-12.905-11.732-12.905c-7.123,0-11.815,5.531-11.815,12.905c0,7.543,4.944,12.989,11.815,12.989
				C148.163,316.881,152.855,311.435,152.855,303.892z"/>
		</g>
		<g>
			<path fill="#FFFFFF" d="M173.474,284.199v-15.42h8.799v15.42h6.202v7.961h-6.202v31.593h-8.799V292.16h-6.201v-7.961H173.474z"/>
		</g>
		<g>
			<path fill="#FFFFFF" d="M196.771,323.753v-62.851h8.884v62.851H196.771z"/>
		</g>
		<g>
			<path fill="#FFFFFF" d="M252.583,323.753c-5.028,0-7.626-2.85-8.8-6.955c-2.514,3.854-7.374,7.793-15.252,7.793
				c-8.967,0-13.491-5.698-13.491-11.648c0-7.123,5.782-13.073,17.766-13.073c4.273,0,7.961,0.839,10.056,1.258v-2.012
				c0-4.944-3.52-8.296-8.967-8.296c-3.52,0-6.955,1.76-8.967,4.692l-6.285-4.776c0,0,4.609-7.794,15.588-7.794
				c10.643,0,17.179,6.453,17.179,15.923v14.497c0,1.425,0.922,2.347,2.431,2.347h1.173v8.045H252.583z M242.777,306.992
				c-1.927-0.419-5.363-1.005-8.547-1.005c-6.201,0-10.225,2.682-10.225,6.452c0,2.766,2.096,5.028,6.453,5.028
				C237.666,317.468,241.856,312.188,242.777,306.992z"/>
		</g>
		<g>
			<path fill="#FFFFFF" d="M299.263,323.753h-8.716V301.21c0-7.039-4.022-10.643-9.134-10.643c-5.531,0-9.889,4.274-10.057,10.308
				v22.878h-8.632v-39.554h8.632v2.682c0,0.921-0.084,2.095-0.251,3.268c2.766-3.938,7.207-6.871,12.821-6.871
				c9.051,0,15.336,6.285,15.336,17.598V323.753z"/>
		</g>
		<g>
			<path fill="#FFFFFF" d="M337.897,323.753c0-2.682,0.084-4.525,0.168-5.782c-3.017,4.19-7.459,6.62-12.57,6.62
				c-10.56,0-17.515-8.967-17.515-20.782c0-11.732,7.123-20.448,17.599-20.448c4.86,0,9.218,1.928,12.234,5.782
				c-0.083-0.502-0.167-1.005-0.167-1.508v-26.732h8.631v62.851H337.897z M337.73,303.976c0-7.71-3.939-12.905-10.392-12.905
				c-6.285,0-10.727,5.279-10.727,12.821c0,7.543,4.525,13.073,10.727,13.073C333.791,316.965,337.73,311.351,337.73,303.976z"/>
		</g>
	</g>
	<g>
		<polygon fill="#FFFFFF" points="219,202.5 213.084,202.5 192.25,216.284 171.416,202.5 165,202.5 165,206.729 185.814,220.5 
			165,234.271 165,238.5 171.416,238.5 192.25,224.716 213.084,238.5 219,238.5 219,233.94 198.686,220.5 219,207.06 		"/>
	</g>
</g>
<g id="Spots" display="none">
</g>
</svg>
