<svg xmlns="http://www.w3.org/2000/svg" width="384" height="550"><g><path fill="#fff" d="M36.619 312.691l7.626-4.357c1.928 5.195 5.866 8.128 10.392 8.128 5.447 0 8.548-3.771 8.548-8.883 0-10.475-22.626-15.084-22.626-29.749 0-8.045 6.62-13.576 13.994-13.576 5.363 0 9.889 2.431 12.57 6.704l-6.452 5.279c-1.425-2.179-3.353-3.938-5.866-3.938-3.101 0-5.363 2.431-5.363 5.615 0 8.296 22.71 13.575 22.71 29.581 0 9.805-7.626 17.096-17.599 17.096-7.542 0-14.916-3.855-17.934-11.9z"/><path fill="#fff" d="M107.853 295.596c-2.347-2.598-5.028-4.357-8.883-4.357-6.872 0-11.48 5.363-11.48 12.653 0 7.543 4.776 12.654 11.48 12.654 4.022 0 7.207-2.011 9.302-5.028l6.369 5.028c-3.854 5.196-9.051 7.961-15.671 7.961-11.564 0-20.196-9.134-20.196-20.615 0-11.48 8.632-20.614 20.112-20.614 6.034 0 11.062 2.598 14.833 6.704-1.928 1.926-3.939 3.77-5.866 5.614z"/><path fill="#fff" d="M120.76 303.892c0-11.564 8.967-20.614 20.363-20.614 11.313 0 20.364 9.05 20.364 20.614 0 11.648-9.051 20.699-20.364 20.699-11.396 0-20.363-9.051-20.363-20.699zm32.095 0c0-7.458-4.692-12.905-11.732-12.905-7.123 0-11.815 5.531-11.815 12.905 0 7.543 4.944 12.989 11.815 12.989 7.04 0 11.732-5.446 11.732-12.989z"/><path fill="#fff" d="M173.474 284.199v-15.42h8.799v15.42h6.202v7.961h-6.202v31.593h-8.799v-31.593h-6.201v-7.961h6.201z"/><path fill="#fff" d="M196.771 323.753v-62.851h8.884v62.851h-8.884z"/><path fill="#fff" d="M252.583 323.753c-5.028 0-7.626-2.85-8.8-6.955-2.514 3.854-7.374 7.793-15.252 7.793-8.967 0-13.491-5.698-13.491-11.648 0-7.123 5.782-13.073 17.766-13.073 4.273 0 7.961.839 10.056 1.258v-2.012c0-4.944-3.52-8.296-8.967-8.296-3.52 0-6.955 1.76-8.967 4.692l-6.285-4.776s4.609-7.794 15.588-7.794c10.643 0 17.179 6.453 17.179 15.923v14.497c0 1.425.922 2.347 2.431 2.347h1.173v8.045h-2.431zm-9.806-16.761c-1.927-.419-5.363-1.005-8.547-1.005-6.201 0-10.225 2.682-10.225 6.452 0 2.766 2.096 5.028 6.453 5.028 7.208.001 11.398-5.279 12.319-10.475z"/><path fill="#fff" d="M299.263 323.753h-8.716v-22.543c0-7.039-4.022-10.643-9.134-10.643-5.531 0-9.889 4.274-10.057 10.308v22.878h-8.632v-39.554h8.632v2.682c0 .921-.084 2.095-.251 3.268 2.766-3.938 7.207-6.871 12.821-6.871 9.051 0 15.336 6.285 15.336 17.598v22.877z"/><path fill="#fff" d="M337.897 323.753c0-2.682.084-4.525.168-5.782-3.017 4.19-7.459 6.62-12.57 6.62-10.56 0-17.515-8.967-17.515-20.782 0-11.732 7.123-20.448 17.599-20.448 4.86 0 9.218 1.928 12.234 5.782-.083-.502-.167-1.005-.167-1.508v-26.732h8.631v62.851h-8.38zm-.167-19.777c0-7.71-3.939-12.905-10.392-12.905-6.285 0-10.727 5.279-10.727 12.821 0 7.543 4.525 13.073 10.727 13.073 6.453 0 10.392-5.614 10.392-12.989z"/><polygon fill="#fff" points="219,202.5 213.084,202.5 192.25,216.284 171.416,202.5 165,202.5 165,206.729 185.814,220.5 165,234.271 165,238.5 171.416,238.5 192.25,224.716 213.084,238.5 219,238.5 219,233.94 198.686,220.5 219,207.06"/></g></svg>