<?xml version="1.0" encoding="utf-8"?>
<!-- Generator: Adobe Illustrator 17.0.0, SVG Export Plug-In . SVG Version: 6.00 Build 0)  -->
<!DOCTYPE svg PUBLIC "-//W3C//DTD SVG 1.1//EN" "http://www.w3.org/Graphics/SVG/1.1/DTD/svg11.dtd">
<svg version="1.1" xmlns="http://www.w3.org/2000/svg" xmlns:xlink="http://www.w3.org/1999/xlink" x="0px" y="0px" width="384px"
	 height="550px" viewBox="0 0 384 550" enable-background="new 0 0 384 550" xml:space="preserve">
<g id="Borders" display="none">
	<g display="inline">
		<rect x="0.392" y="-0.055" fill="#5D5D5D" width="384" height="550"/>
	</g>
</g>
<g id="Labels">
</g>
<g id="Names">
	<g>
		<g>
			<path fill="#D1D3D4" d="M54.926,405.25c1.135,0,1.455-1.501,0.148-1.501C53.939,403.75,53.619,405.25,54.926,405.25
				L54.926,405.25z"/>
		</g>
	</g>
	<g>
		<path fill="#FFFFFF" d="M70.067,266.323c8.278-2.218,15.647,0.893,15.647,12.254c0,7.141-4.946,14.417-12.316,17.69
			c6.865,4.22,13.931,7.845,13.931,21.37c0,16.554-15.849,30.863-29.88,34.624c-11.104,2.975-21.098-0.624-21.098-15.122
			c0-8.873,6.36-21.289,12.921-23.047c1.312-0.352,3.634-0.757,3.634,1.407c0,4.652-2.019,9.413-2.019,14.932
			c0,4.978,1.716,8.953,7.47,7.411c6.259-1.677,12.012-6.356,12.012-14.472c0-15.039-20.391-12.497-20.391-31.324
			C49.979,278.631,59.569,269.136,70.067,266.323z M70.471,294.456c2.726-3.544,5.754-9.657,5.754-13.77
			c0-3.57-3.23-4.544-6.763-3.598c-3.028,0.812-6.158,2.948-7.773,5.87C63.304,288.693,66.736,291.885,70.471,294.456z"/>
		<path fill="#FFFFFF" d="M122.897,285.359c0.776-0.208,1.087,0.708,1.087,2.623c0,4.661-5.591,18.478-23.375,23.243
			c-6.989,1.872-13.746-0.229-13.746-9.302c0-15.898,9.785-30.091,20.58-32.983c5.824-1.561,9.008,0.917,9.008,5.578
			c0,9.822-9.94,13.816-18.172,20.102v2.081c0,4.578,4.582,4.349,7.455,3.578C115.985,297.532,121.111,285.838,122.897,285.359z
			 M98.823,288.731c4.349-4.246,7.999-6.722,7.999-10.135c0-1.248-0.777-1.873-2.408-1.437
			C101.307,277.993,99.599,283.278,98.823,288.731z"/>
		<path fill="#FFFFFF" d="M129.732,270.544c0,6.575-3.65,13.297-3.65,21.121c0,1.747,0.776,2.788,3.495,2.06
			c4.038-1.082,5.824-4.974,7.222-9.759c1.631-7.929,5.048-21.247,5.902-23.723c0.699-2.02,2.019-2.872,3.029-3.143
			c3.106-0.832,5.979,4.641,5.979,6.638c0,4.412-3.495,19.082-6.679,31.173c9.009-9.655,12.814-18.916,14.755-19.437
			c0.777-0.208,1.088,0.708,1.088,2.623c0,6.409-8.077,19.81-18.872,27.946c-2.485,9.572-4.892,17.708-16.153,20.726
			c-6.679,1.79-12.348-1.519-12.348-7.762c0-7.158,9.552-10.218,21.356-16.377c0.543-2.477,1.087-5.035,1.476-7.554
			c-2.174,3.829-5.437,7.2-10.406,8.532c-6.99,1.872-11.571,0.021-11.571-6.805c0-2.83,0.776-5.202,2.485-9.156l2.252-20.33
			c1.864-2.082,4.893-3.31,6.523-3.746C129.266,262.594,129.732,266.299,129.732,270.544z M132.373,311.787
			c-7.378,3.558-11.727,4.308-11.727,6.306c0,2.414,3.184,2.809,5.125,2.288C128.49,319.653,130.664,316.323,132.373,311.787z"/>
		<path fill="#FFFFFF" d="M162.971,279.366c0,4.578,4.504,4.37,6.601,3.808c6.213-1.664,11.649-13.691,13.591-14.212
			c0.776-0.208,1.398,0.791,1.398,2.789c0,5.16-6.291,18.665-20.036,22.348c-6.291,1.686-12.969-0.437-12.969-9.509
			c0-15.898,10.562-30.299,21.279-33.171c3.727-0.998,5.358,0.646,5.358,3.643c0,3.912-1.708,6.867-3.805,7.429
			c-2.02,0.541-2.563-1.728-4.504-1.207C165.223,262.532,162.971,271.876,162.971,279.366z"/>
		<path fill="#FFFFFF" d="M199.471,273.832c0-8.74,2.407-13.298,2.407-18.209c0-1.748-0.776-2.788-3.494-2.06
			c-4.271,1.145-9.242,12.215-10.251,19.311c0.233,2.519,0.466,5.119,0.466,7.283c0,2.664-0.621,5.077-2.718,6.889
			c-1.631,1.435-3.106,2.913-4.815,3.371c-2.174,0.582-3.883-1.957-3.883-7.034c0-13.817,0.466-28.759,12.193-56.372
			c0.854-1.978,2.096-2.81,3.106-3.08c3.184-0.853,4.737,4.975,4.737,6.889c0,5.992-3.339,10.883-6.291,17.749l-1.165,6.306
			c2.33-4.786,6.212-9.572,12.27-11.195c6.989-1.872,10.717,0.791,10.717,6.701c0,8.073-3.261,17.188-3.261,20.435
			c0,0.915,0.232,1.353,0.854,1.186c3.028-0.812,9.94-12.735,11.416-13.131c0.777-0.208,1.087,0.708,1.087,2.623
			c0,7.241-8.698,19.061-17.163,21.329C200.791,284.132,199.471,279.408,199.471,273.832z"/>
		<path fill="#FFFFFF" d="M249.562,251.419c0.776-0.207,1.087,0.708,1.087,2.623c0,4.661-5.591,18.478-23.375,23.243
			c-6.989,1.873-13.746-0.229-13.746-9.302c0-15.898,9.785-30.09,20.58-32.982c5.824-1.561,9.008,0.916,9.008,5.577
			c0,9.822-9.94,13.817-18.172,20.102v2.081c0,4.578,4.582,4.349,7.455,3.579C242.651,263.593,247.776,251.898,249.562,251.419z
			 M225.488,254.791c4.349-4.245,7.999-6.722,7.999-10.135c0-1.248-0.777-1.873-2.408-1.436
			C227.973,244.052,226.265,249.339,225.488,254.791z"/>
		<path fill="#FFFFFF" d="M242.885,256.289c0-20.393,9.474-48.236,25.472-52.522c4.427-1.187,7.145,0.832,7.145,5.493
			c0,10.238-11.882,22.496-21.589,38.664v3.329c0,6.16,2.796,8.241,6.679,7.201c5.513-1.478,9.008-6.243,11.726-10.718
			c1.165-1.978,2.174-2.997,2.796-3.163c0.776-0.208,1.087,0.708,1.087,2.623c0,7.241-8.31,18.957-16.774,21.225
			C250.884,270.71,242.885,268.192,242.885,256.289z M254.922,237.249c6.989-13.36,12.192-18,12.192-23.16
			c0-1.249-0.388-1.729-1.32-1.479C262.455,213.505,257.174,222.828,254.922,237.249z"/>
		<path fill="#FFFFFF" d="M267.736,249.63c0-20.393,9.475-48.236,25.473-52.522c4.426-1.187,7.145,0.833,7.145,5.494
			c0,10.238-11.882,22.495-21.589,38.663v3.329c0,6.16,2.796,8.241,6.679,7.201c5.514-1.478,9.008-6.243,11.727-10.718
			c1.165-1.977,2.174-2.996,2.796-3.163c0.776-0.208,1.087,0.708,1.087,2.623c0,7.241-8.31,18.957-16.775,21.226
			C275.735,264.051,267.736,261.533,267.736,249.63z M279.773,230.59c6.989-13.359,12.192-18,12.192-23.16
			c0-1.249-0.388-1.728-1.32-1.479C287.306,206.845,282.025,216.169,279.773,230.59z"/>
		<path fill="#FFFFFF" d="M327.068,230.652c0.776-0.208,1.087,0.707,1.087,2.622c0,4.661-5.591,18.479-23.375,23.243
			c-6.989,1.873-13.746-0.229-13.746-9.301c0-15.898,9.785-30.091,20.58-32.983c5.825-1.561,9.009,0.916,9.009,5.577
			c0,9.822-9.94,13.817-18.172,20.102v2.081c0,4.578,4.582,4.349,7.455,3.579C320.156,242.825,325.281,231.131,327.068,230.652z
			 M302.993,234.023c4.349-4.245,7.999-6.722,7.999-10.135c0-1.248-0.777-1.872-2.408-1.436
			C305.478,223.285,303.77,228.571,302.993,234.023z"/>
		<path fill="#FFFFFF" d="M340.038,225.096c2.951,2.538,5.902,5.16,5.902,8.906c0,7.408-5.747,13.192-15.765,15.877
			c-10.328,2.768-14.444-1.457-14.444-6.701c0-5.077,3.106-10.903,5.747-11.611c4.893-1.311,0.389,12.965,14.677,9.136
			c-2.562-7.804-12.192-7.804-12.192-17.292c0-8.241,6.601-14.672,13.436-16.503c6.834-1.831,10.251,0.417,10.251,4.829
			C347.649,217.813,344.232,222.473,340.038,225.096z M337.01,222.495c1.397-2.04,3.106-4.828,3.106-6.576
			c0-1.332-0.777-2.372-3.029-1.769c-1.242,0.333-3.728,1.831-3.728,1.831C333.359,218.561,334.912,220.642,337.01,222.495z"/>
	</g>
</g>
<g id="Spots" display="none">
</g>
</svg>
