<svg xmlns="http://www.w3.org/2000/svg" width="384" height="550"><g><path fill="#D1D3D4" d="M54.926 405.25c1.135 0 1.455-1.501.148-1.501-1.135.001-1.455 1.501-.148 1.501z"/><g fill="#fff"><path d="M70.067 266.323c8.278-2.218 15.647.893 15.647 12.254 0 7.141-4.946 14.417-12.316 17.69 6.865 4.22 13.931 7.845 13.931 21.37 0 16.554-15.849 30.863-29.88 34.624-11.104 2.975-21.098-.624-21.098-15.122 0-8.873 6.36-21.289 12.921-23.047 1.312-.352 3.634-.757 3.634 1.407 0 4.652-2.019 9.413-2.019 14.932 0 4.978 1.716 8.953 7.47 7.411 6.259-1.677 12.012-6.356 12.012-14.472 0-15.039-20.391-12.497-20.391-31.324.001-13.415 9.591-22.91 20.089-25.723zm.404 28.133c2.726-3.544 5.754-9.657 5.754-13.77 0-3.57-3.23-4.544-6.763-3.598-3.028.812-6.158 2.948-7.773 5.87 1.615 5.735 5.047 8.927 8.782 11.498zM122.897 285.359c.776-.208 1.087.708 1.087 2.623 0 4.661-5.591 18.478-23.375 23.243-6.989 1.872-13.746-.229-13.746-9.302 0-15.898 9.785-30.091 20.58-32.983 5.824-1.561 9.008.917 9.008 5.578 0 9.822-9.94 13.816-18.172 20.102v2.081c0 4.578 4.582 4.349 7.455 3.578 10.251-2.747 15.377-14.441 17.163-14.92zm-24.074 3.372c4.349-4.246 7.999-6.722 7.999-10.135 0-1.248-.777-1.873-2.408-1.437-3.107.834-4.815 6.119-5.591 11.572zM129.732 270.544c0 6.575-3.65 13.297-3.65 21.121 0 1.747.776 2.788 3.495 2.06 4.038-1.082 5.824-4.974 7.222-9.759 1.631-7.929 5.048-21.247 5.902-23.723.699-2.02 2.019-2.872 3.029-3.143 3.106-.832 5.979 4.641 5.979 6.638 0 4.412-3.495 19.082-6.679 31.173 9.009-9.655 12.814-18.916 14.755-19.437.777-.208 1.088.708 1.088 2.623 0 6.409-8.077 19.81-18.872 27.946-2.485 9.572-4.892 17.708-16.153 20.726-6.679 1.79-12.348-1.519-12.348-7.762 0-7.158 9.552-10.218 21.356-16.377.543-2.477 1.087-5.035 1.476-7.554-2.174 3.829-5.437 7.2-10.406 8.532-6.99 1.872-11.571.021-11.571-6.805 0-2.83.776-5.202 2.485-9.156l2.252-20.33c1.864-2.082 4.893-3.31 6.523-3.746 3.651-.977 4.117 2.728 4.117 6.973zm2.641 41.243c-7.378 3.558-11.727 4.308-11.727 6.306 0 2.414 3.184 2.809 5.125 2.288 2.719-.728 4.893-4.058 6.602-8.594zM162.971 279.366c0 4.578 4.504 4.37 6.601 3.808 6.213-1.664 11.649-13.691 13.591-14.212.776-.208 1.398.791 1.398 2.789 0 5.16-6.291 18.665-20.036 22.348-6.291 1.686-12.969-.437-12.969-9.509 0-15.898 10.562-30.299 21.279-33.171 3.727-.998 5.358.646 5.358 3.643 0 3.912-1.708 6.867-3.805 7.429-2.02.541-2.563-1.728-4.504-1.207-4.661 1.248-6.913 10.592-6.913 18.082zM199.471 273.832c0-8.74 2.407-13.298 2.407-18.209 0-1.748-.776-2.788-3.494-2.06-4.271 1.145-9.242 12.215-10.251 19.311.233 2.519.466 5.119.466 7.283 0 2.664-.621 5.077-2.718 6.889-1.631 1.435-3.106 2.913-4.815 3.371-2.174.582-3.883-1.957-3.883-7.034 0-13.817.466-28.759 12.193-56.372.854-1.978 2.096-2.81 3.106-3.08 3.184-.853 4.737 4.975 4.737 6.889 0 5.992-3.339 10.883-6.291 17.749l-1.165 6.306c2.33-4.786 6.212-9.572 12.27-11.195 6.989-1.872 10.717.791 10.717 6.701 0 8.073-3.261 17.188-3.261 20.435 0 .915.232 1.353.854 1.186 3.028-.812 9.94-12.735 11.416-13.131.777-.208 1.087.708 1.087 2.623 0 7.241-8.698 19.061-17.163 21.329-4.892 1.309-6.212-3.415-6.212-8.991zM249.562 251.419c.776-.207 1.087.708 1.087 2.623 0 4.661-5.591 18.478-23.375 23.243-6.989 1.873-13.746-.229-13.746-9.302 0-15.898 9.785-30.09 20.58-32.982 5.824-1.561 9.008.916 9.008 5.577 0 9.822-9.94 13.817-18.172 20.102v2.081c0 4.578 4.582 4.349 7.455 3.579 10.252-2.747 15.377-14.442 17.163-14.921zm-24.074 3.372c4.349-4.245 7.999-6.722 7.999-10.135 0-1.248-.777-1.873-2.408-1.436-3.106.832-4.814 6.119-5.591 11.571zM242.885 256.289c0-20.393 9.474-48.236 25.472-52.522 4.427-1.187 7.145.832 7.145 5.493 0 10.238-11.882 22.496-21.589 38.664v3.329c0 6.16 2.796 8.241 6.679 7.201 5.513-1.478 9.008-6.243 11.726-10.718 1.165-1.978 2.174-2.997 2.796-3.163.776-.208 1.087.708 1.087 2.623 0 7.241-8.31 18.957-16.774 21.225-8.543 2.289-16.542-.229-16.542-12.132zm12.037-19.04c6.989-13.36 12.192-18 12.192-23.16 0-1.249-.388-1.729-1.32-1.479-3.339.895-8.62 10.218-10.872 24.639zM267.736 249.63c0-20.393 9.475-48.236 25.473-52.522 4.426-1.187 7.145.833 7.145 5.494 0 10.238-11.882 22.495-21.589 38.663v3.329c0 6.16 2.796 8.241 6.679 7.201 5.514-1.478 9.008-6.243 11.727-10.718 1.165-1.977 2.174-2.996 2.796-3.163.776-.208 1.087.708 1.087 2.623 0 7.241-8.31 18.957-16.775 21.226-8.544 2.288-16.543-.23-16.543-12.133zm12.037-19.04c6.989-13.359 12.192-18 12.192-23.16 0-1.249-.388-1.728-1.32-1.479-3.339.894-8.62 10.218-10.872 24.639zM327.068 230.652c.776-.208 1.087.707 1.087 2.622 0 4.661-5.591 18.479-23.375 23.243-6.989 1.873-13.746-.229-13.746-9.301 0-15.898 9.785-30.091 20.58-32.983 5.825-1.561 9.009.916 9.009 5.577 0 9.822-9.94 13.817-18.172 20.102v2.081c0 4.578 4.582 4.349 7.455 3.579 10.25-2.747 15.375-14.441 17.162-14.92zm-24.075 3.371c4.349-4.245 7.999-6.722 7.999-10.135 0-1.248-.777-1.872-2.408-1.436-3.106.833-4.814 6.119-5.591 11.571zM340.038 225.096c2.951 2.538 5.902 5.16 5.902 8.906 0 7.408-5.747 13.192-15.765 15.877-10.328 2.768-14.444-1.457-14.444-6.701 0-5.077 3.106-10.903 5.747-11.611 4.893-1.311.389 12.965 14.677 9.136-2.562-7.804-12.192-7.804-12.192-17.292 0-8.241 6.601-14.672 13.436-16.503 6.834-1.831 10.251.417 10.251 4.829-.001 6.076-3.418 10.736-7.612 13.359zm-3.028-2.601c1.397-2.04 3.106-4.828 3.106-6.576 0-1.332-.777-2.372-3.029-1.769-1.242.333-3.728 1.831-3.728 1.831 0 2.58 1.553 4.661 3.651 6.514z"/></g></g></svg>