<?xml version="1.0" encoding="utf-8"?>
<!-- Generator: Adobe Illustrator 17.0.0, SVG Export Plug-In . SVG Version: 6.00 Build 0)  -->
<!DOCTYPE svg PUBLIC "-//W3C//DTD SVG 1.1//EN" "http://www.w3.org/Graphics/SVG/1.1/DTD/svg11.dtd">
<svg version="1.1" xmlns="http://www.w3.org/2000/svg" xmlns:xlink="http://www.w3.org/1999/xlink" x="0px" y="0px" width="384px"
	 height="550px" viewBox="0 0 384 550" enable-background="new 0 0 384 550" xml:space="preserve">
<g id="Borders" display="none">
	<g display="inline">
		<rect x="0.392" y="-0.055" fill="#5D5D5D" width="384" height="550"/>
	</g>
</g>
<g id="Labels">
</g>
<g id="Names">
	<g>
		<g>
			<path fill="#FFFFFF" d="M91.468,291.981v-10.933l-7.195,1.928v28.426l6.228-1.669l6.228,4.776v35.217l-6.228,8.574l-6.228,1.669
				l-6.335-5.208v-16.112l6.55-1.755v15.997l6.012-1.611v-34.411l-6.228,1.669l-6.228-5.466v-29.692l6.228-7.538l7.195-1.927
				l6.228,5.466v10.933L91.468,291.981z"/>
			<path fill="#FFFFFF" d="M121.13,267.152l6.228-1.669v84.243l-6.228,1.669V267.152z"/>
			<path fill="#FFFFFF" d="M163.034,291.752l14.389,45.862l-6.55,1.755l-11.705-37.835l-1.288,3.683v37.633l-6.228,1.669V259.93
				l6.228-1.669v32.569l12.993-36.051l6.55-1.755L163.034,291.752z"/>
			<path fill="#FFFFFF" d="M211.273,279.898l14.389,45.861l-6.55,1.755l-11.705-37.834l-1.288,3.683v37.633l-6.228,1.669v-84.588
				l6.228-1.669v32.569l12.993-36.051l6.55-1.755L211.273,279.898z"/>
			<path fill="#FFFFFF" d="M245.661,236.999l6.228-1.668v84.243l-6.228,1.668V236.999z"/>
			<path fill="#FFFFFF" d="M294.652,279.035l-5.476,17.809l-1.074,0.288l-5.369-14.904l-1.074,0.288v30.268l-6.227,1.669v-84.588
				l6.227-1.669l6.443,44.653l1.181-0.316l6.443-48.106l6.335-1.697v84.588l-6.335,1.697v-30.268L294.652,279.035z"/>
		</g>
		<path fill="#FFFFFF" d="M231.123,220.317c0.044-0.077,0.09-0.151,0.126-0.232c0.039-0.086,0.067-0.176,0.097-0.265
			c0.027-0.081,0.057-0.161,0.077-0.244c0.022-0.094,0.033-0.189,0.046-0.285c0.011-0.083,0.025-0.164,0.028-0.247
			c0.004-0.1-0.003-0.2-0.01-0.3c-0.005-0.081-0.007-0.16-0.019-0.241c-0.016-0.104-0.044-0.205-0.071-0.308
			c-0.02-0.076-0.037-0.152-0.064-0.227c-0.037-0.102-0.087-0.2-0.137-0.299c-0.028-0.056-0.046-0.115-0.078-0.17
			c-0.01-0.017-0.023-0.029-0.033-0.046c-0.013-0.022-0.02-0.045-0.034-0.067l-18.358-28.301c-0.135-0.348-0.341-0.668-0.614-0.946
			l-10.907-16.814c-0.002-0.004-0.005-0.007-0.007-0.011l-0.002-0.004c-0.014-0.021-0.032-0.037-0.046-0.057
			c-0.091-0.132-0.188-0.261-0.303-0.378c-0.12-0.123-0.252-0.24-0.39-0.337c-0.013-0.009-0.023-0.04-0.037-0.04
			c0,0-0.001,0-0.001,0c-0.156,0-0.32-0.187-0.492-0.26c-0.092-0.039-0.188-0.056-0.282-0.085c-0.079-0.024-0.156-0.054-0.237-0.071
			c-0.107-0.022-0.214-0.026-0.322-0.036c-0.074-0.007-0.147-0.021-0.222-0.022c-0.097-0.001-0.192,0.014-0.288,0.023
			c-0.086,0.008-0.172,0.008-0.257,0.023c-0.109,0.02-0.214,0.057-0.32,0.09c-0.068,0.021-0.138,0.043-0.205,0.07
			c-0.174,0.068-0.341,0.268-0.5,0.268c0,0-0.001,0-0.002,0c-0.019,0-0.034,0.019-0.052,0.032c-0.134,0.091-0.264,0.186-0.383,0.302
			c-0.118,0.115-0.22,0.24-0.315,0.371c-0.014,0.019-0.031,0.032-0.044,0.051l-0.002,0.003c-0.003,0.004-0.005,0.007-0.008,0.011
			l-14.908,21.809c-0.879,1.287-0.549,3.043,0.737,3.922c0.487,0.333,1.041,0.493,1.59,0.493c0.9,0,1.785-0.43,2.332-1.23
			l2.531-3.703l3.175,4.857c0.006,0.009,0.014,0.015,0.02,0.023c0.113,0.169,0.243,0.33,0.396,0.477
			c0.01,0.009,0.021,0.015,0.03,0.024c0.04,0.037,0.084,0.064,0.126,0.098c0.127,0.105,0.258,0.199,0.397,0.278
			c0.059,0.034,0.119,0.062,0.18,0.091c0.138,0.066,0.279,0.119,0.423,0.162c0.058,0.017-0.023,0.036,0.036,0.05
			c0.203,0.045,0.478,0.094,0.478,0.094V198.5c0,0,0.277,0,0.278,0c0.166,0,0.332,0.078,0.498,0.048
			c0.043-0.008,0.085,0.031,0.128,0.021c0.129-0.029,0.257-0.044,0.383-0.093c0.039-0.015,0.078-0.015,0.116-0.031
			c0.143-0.062,0.283-0.128,0.417-0.216c0.008-0.005,0.014-0.009,0.022-0.014c0.071-0.048,0.135-0.107,0.202-0.162
			c0.085-0.069,0.174-0.135,0.249-0.212c0.009-0.009,0.019-0.014,0.027-0.023l2.806-2.948l2.399,4.455
			c0.004,0.007,0.009,0.011,0.013,0.017c0.11,0.201,0.249,0.386,0.409,0.559c0.047,0.05,0.097,0.092,0.147,0.139
			c0.066,0.061,0.123,0.128,0.195,0.184c0.072,0.056,0.15,0.098,0.226,0.146c0.037,0.023,0.071,0.049,0.109,0.07
			c0.192,0.109,0.393,0.191,0.599,0.251c0.04,0.012,0.08-0.135,0.12-0.125c0.218,0.053,0.44-0.067,0.662-0.067
			c0.002,0,0.004,0,0.006,0c0.037,0,0.075,0.143,0.112,0.142c0.18-0.007,0.36,0.053,0.536,0.012c0.07-0.017,0.137-0.011,0.206-0.033
			c0.146-0.047,0.29-0.076,0.428-0.146c0.018-0.009,0.037-0.002,0.054-0.011c0.11-0.059,0.204-0.129,0.303-0.2
			c0.048-0.035,0.101-0.059,0.147-0.097c0.163-0.133,0.307-0.281,0.433-0.442c0.005-0.006,0.011-0.01,0.016-0.016l3.587-4.662
			l14.787,22.796c-5.124,2.451-17.181,7.369-31.448,7.369c-14.558,0-28.049-4.951-33.664-7.316l9.385-13.22l2.75,3.123
			c0.003,0.003,0.006,0.005,0.008,0.008c0.129,0.145,0.273,0.279,0.435,0.399c0.002,0.001,0.004,0.002,0.006,0.004
			c0.019,0.014,0.04,0.023,0.059,0.036c0.133,0.093,0.271,0.172,0.414,0.239c0.049,0.023,0.098,0.041,0.148,0.061
			c0.125,0.05,0.252,0.091,0.38,0.122c0.047,0.011,0.093-0.103,0.14-0.094c0.174,0.033,0.35-0.072,0.525-0.072
			c0.001,0,0.242,0,0.242,0v0.244c0,0,0.27-0.021,0.462-0.061c0.056-0.012,0.049-0.027,0.104-0.042
			c0.137-0.038,0.241-0.084,0.373-0.143c0.059-0.026,0.102-0.052,0.16-0.083c0.13-0.069,0.246-0.151,0.366-0.242
			c0.044-0.033,0.087-0.061,0.129-0.097c0.011-0.01,0.022-0.016,0.033-0.025c0.151-0.133,0.282-0.28,0.398-0.435
			c0.002-0.003,0.005-0.005,0.007-0.008l2.656-3.603l5.806,7.57c0.556,0.725,1.393,1.105,2.241,1.105
			c0.599,0,1.203-0.19,1.715-0.583c1.237-0.948,1.471-2.72,0.522-3.956l-12.972-16.914c-0.026-0.034-0.059-0.059-0.086-0.092
			c-0.063-0.075-0.131-0.146-0.203-0.216c-0.071-0.068-0.144-0.133-0.22-0.192c-0.034-0.027-0.061-0.059-0.096-0.084
			c-0.037-0.026-0.077-0.041-0.115-0.065c-0.086-0.055-0.173-0.105-0.264-0.15c-0.079-0.04-0.159-0.076-0.24-0.107
			c-0.086-0.033-0.173-0.061-0.262-0.086c-0.089-0.025-0.177-0.046-0.267-0.062c-0.089-0.016-0.177-0.025-0.267-0.032
			c-0.09-0.007-0.179-0.011-0.268-0.01c-0.093,0.002-0.184,0.009-0.277,0.02c-0.087,0.01-0.172,0.023-0.257,0.041
			c-0.091,0.019-0.181,0.044-0.271,0.073c-0.087,0.028-0.171,0.058-0.255,0.094c-0.081,0.035-0.159,0.074-0.237,0.117
			c-0.089,0.049-0.175,0.102-0.26,0.161c-0.036,0.025-0.076,0.042-0.111,0.069c-0.034,0.026-0.059,0.059-0.091,0.086
			c-0.076,0.064-0.148,0.132-0.217,0.204c-0.068,0.07-0.131,0.142-0.19,0.218c-0.027,0.034-0.06,0.061-0.085,0.097l-18.443,25.979
			c-0.713,1.005-0.665,2.31,0.01,3.261c0.267,0.485,0.676,0.898,1.209,1.164c0.747,0.373,18.543,9.14,38.936,9.14
			c20.492,0,36.277-9.11,36.939-9.497c0.015-0.009,0.026-0.02,0.04-0.029c0.023-0.014,0.047-0.023,0.069-0.038
			c0.063-0.041,0.114-0.093,0.172-0.138c0.077-0.059,0.155-0.115,0.224-0.18c0.068-0.064,0.126-0.135,0.186-0.204
			c0.061-0.07,0.123-0.137,0.176-0.212C231.033,220.479,231.077,220.398,231.123,220.317z M173.565,201.442l-1.316-1.495
			l1.599-2.253l1.264,1.649L173.565,201.442z M204.429,192.815l-2.179-4.047c-0.024-0.045-0.057-0.081-0.083-0.123
			c-0.051-0.084-0.105-0.166-0.166-0.245c-0.06-0.079-0.125-0.152-0.192-0.224c-0.035-0.037-0.061-0.079-0.098-0.114
			c-0.027-0.026-0.06-0.043-0.088-0.068c-0.076-0.067-0.156-0.127-0.239-0.185c-0.072-0.051-0.144-0.101-0.22-0.144
			c-0.079-0.045-0.161-0.083-0.244-0.121c-0.085-0.038-0.17-0.076-0.258-0.105c-0.083-0.028-0.167-0.048-0.253-0.068
			c-0.09-0.021-0.179-0.042-0.271-0.054c-0.09-0.012-0.18-0.016-0.271-0.019c-0.089-0.003-0.177-0.006-0.266-0.001
			c-0.092,0.005-0.182,0.019-0.274,0.033c-0.09,0.014-0.179,0.029-0.268,0.052c-0.085,0.022-0.167,0.051-0.251,0.081
			c-0.095,0.034-0.188,0.071-0.279,0.116c-0.034,0.016-0.069,0.025-0.103,0.043c-0.045,0.024-0.081,0.058-0.125,0.084
			c-0.084,0.051-0.165,0.104-0.244,0.165c-0.08,0.061-0.153,0.125-0.225,0.193c-0.036,0.034-0.078,0.06-0.113,0.097l-3.033,3.186
			l-2.503-3.829l6.549-9.581l7.841,12.087L204.429,192.815z"/>
	</g>
</g>
<g id="Spots" display="none">
</g>
</svg>
