<?xml version="1.0" encoding="utf-8"?>
<!-- Generator: Adobe Illustrator 17.0.0, SVG Export Plug-In . SVG Version: 6.00 Build 0)  -->
<!DOCTYPE svg PUBLIC "-//W3C//DTD SVG 1.1//EN" "http://www.w3.org/Graphics/SVG/1.1/DTD/svg11.dtd">
<svg version="1.1" xmlns="http://www.w3.org/2000/svg" xmlns:xlink="http://www.w3.org/1999/xlink" x="0px" y="0px" width="384px"
	 height="550px" viewBox="0 0 384 550" enable-background="new 0 0 384 550" xml:space="preserve">
<g id="Borders" display="none">
	<g display="inline">
		<rect x="0.392" y="-0.055" fill="#5D5D5D" width="384" height="550"/>
	</g>
</g>
<g id="Labels">
</g>
<g id="Names">
	<g>
		<path fill="#FFFFFF" d="M138.587,225.005c-1.804-0.09-3.607,0.09-4.689-0.632c-1.443,0.09-2.254-0.18-2.976-0.631
			c-0.541-0.632-0.361-1.443-0.541-2.074c-0.271-0.631-0.541-0.811-0.992-1.262c-0.992-1.082-1.983-2.434-3.066-3.516
			c-1.262-0.271-2.434-1.262-3.787-1.713c-0.722-0.271-1.894-0.271-2.705-0.451c-0.271-0.09-0.541-0.361-0.632-0.45
			c-0.45,0-0.992,0.089-1.443,0c-0.27,0-0.541-0.18-0.811-0.361c-0.361,0-0.722,0-0.992-0.09c-0.361-0.09-0.722-0.18-0.992-0.18
			c-0.631,0-1.082,0.451-1.713,0.541c-0.631,0.09-1.262-0.09-1.803,0c-0.451,0.09-0.902,0.27-1.443,0.541
			c-0.361,0.09-0.902,0.09-1.262,0.271c-0.992,0.361-1.623,1.172-2.706,1.172c-1.262,0.992-2.164,2.434-3.246,3.697
			c-0.09,1.622-0.09,3.516,1.082,4.418c0.271,0.089,0.541,0.089,0.992,0.27c0.992,0.451,1.713,0.992,2.976,1.352
			c0.451,0.09,0.812,0.09,1.262,0.18c0.722,0.09,1.533,0.541,2.074,0.632c0.901,0.09,1.894-0.09,2.705,0
			c1.353,0.09,2.525,0.451,3.787,0.631c0.632,0.18,1.262,0.18,1.894,0.271c0.722,0.09,1.172,0.451,1.713,0.451
			c0.541,0.09,1.082,0,1.533,0c0.09,0,0.09,0.18,0.361,0.18c0.18,0,0.27-0.18,0.811-0.18c0.992,0.18,1.984,0.992,3.066,0.721
			c0.721,0.541,1.804,0.722,3.156,0.722c0.721,0.631,1.623,0.811,2.525,1.172c0.721,0.451,1.443,0.992,2.344,1.443
			c0.632,0.271,1.262,0.451,1.894,0.812c0.18,0,0.18,0.27,0.271,0.36c0.631,0.361,1.804,0.992,2.344,1.623
			c0.18,0.271,0.18,0.632,0.541,1.082c0,0.09,0.18,0.18,0.361,0.271c0.09,0.18,0,0.361,0.09,0.451
			c0.18,0.361,0.45,0.541,0.631,0.901c0.541,0.812,0.992,1.804,1.352,2.885c0.451,1.083,0.992,1.894,1.262,3.517
			c0,0.541,0,1.262,0,1.984c0.09,1.803,0.18,3.155-0.992,4.327c-0.271,0.812,0.271,0.812,0.271,1.533
			c-0.812,0.722-0.541,1.804-1.083,2.706c-0.45,1.082-2.073,1.713-2.073,3.336c-0.992,0.722-1.984,1.533-2.525,2.705
			c-0.992,0.271-1.262,0.812-1.984,1.443c-0.811,0.541-1.713,0.902-2.976,1.533l-0.09,0.361c-0.45,0.18-0.992,0.271-1.443,0.541
			c-0.361,0.09-0.451,0.18-0.541,0.27c-0.812,0.361-1.804,0.541-2.525,0.902c-0.541,0.09-1.172,0.361-1.803,0.631
			c-0.541,0.09-1.083,0.09-1.984,0.18c-0.722,0-1.984,0.451-3.337,0.451c-0.811,0.09-1.804-0.09-2.795-0.09
			c-0.721,0-1.443,0.09-2.254,0.09c-0.451,0-1.172-0.361-1.804-0.361c-0.541,0-1.082,0.271-1.623,0.271
			c-0.541-0.09-1.082-0.361-1.443-0.541c-0.901-0.36-2.615-0.089-3.427-0.54c-0.27-0.09-0.45-0.451-0.721-0.451
			c-0.721-0.271-1.443-0.09-2.074-0.451c-0.36-0.09-0.811-0.36-1.262-0.631c-0.27-0.09-0.811-0.271-1.172-0.451
			c-0.541-0.361-0.901-0.992-1.443-1.352c-0.451-0.18-1.082-0.18-1.533-0.541c-0.541-0.18-0.901-0.901-1.262-1.262
			c-0.271-0.18-0.451-0.18-0.541-0.27c-0.901-0.541-1.443-1.713-2.164-2.616c-0.451-0.45-0.992-0.901-1.443-1.353
			c-1.082-1.353-1.623-3.336-2.434-4.509c-0.09-1.082,0.992-1.082,0.992-2.073c-0.361-0.632-1.082,0.271-1.533-0.271
			c-0.451-1.443-0.361-3.427-0.541-5.139c0.722-0.902,1.533-0.541,2.345-0.541c0.36,0,0.45,0.18,0.631,0.18
			c0.361,0,0.361-0.18,0.541-0.18c0.451,0.09,0.811,0.271,1.172,0.271c0.541,0,0.901-0.18,1.353-0.271
			c0.902-0.09,3.427-0.271,3.878,0.18c0.18,0.09,0.18,0.361,0.27,0.451c0.09,0.089,0.361,0.27,0.451,0.27
			c0.18,0.722-0.18,1.353,0,2.345c0,0.18,0.361,0.631,0.451,0.901c0.18,0.361,0.27,0.632,0.541,0.992
			c0.09,0.361,0.361,0.541,0.632,0.812c0.18,0.361,0.271,0.811,0.541,0.992c0.631,0.992,1.713,2.074,2.795,2.705
			c0.18,0.18,0.18,0.09,0.45,0.18c0.09,0.18,0.271,0.271,0.361,0.361c0.361,0.361,1.353,0.361,1.894,0.541
			c0.36,0.09,0.901,0.36,1.353,0.45c0.721,0.271,1.713,0.541,2.705,1.082c1.082-0.36,2.073,0.271,3.066,0.541
			c0.36,0,0.45-0.271,0.541-0.271c0.451,0,1.083,0.271,1.713,0.361c0.361,0,1.443-0.361,2.164-0.541
			c1.172-0.09,2.164-0.27,3.336-0.45c1.173-0.361,1.984-0.541,3.066-1.082c0.541-0.18,1.082-0.18,1.443-0.451
			c0.271-0.09,0.451-0.271,0.632-0.541c1.443-0.901,3.066-2.073,3.787-3.877c-0.18-0.901,0.271-1.894,0-2.976
			c-0.09-0.451-0.541-1.082-0.811-1.533c-0.271-0.271-0.451-0.541-0.902-0.811c-0.541-0.361-1.172-0.722-1.803-1.173
			c-0.361-0.09-0.632-0.36-0.992-0.45c-0.631-0.18-1.983-0.361-3.246-0.541c-1.263-0.18-2.345-0.541-3.968-0.811
			c-0.541-0.18-0.901-0.271-1.443-0.361c-1.262-0.18-2.434-0.18-3.516-0.361c-0.361-0.09-0.902-0.361-1.443-0.541
			c-0.541-0.09-1.353,0-1.804-0.09c-0.541-0.18-1.082-0.541-1.623-0.722c-0.541-0.09-0.992,0.09-1.443,0
			c-0.992-0.09-1.984-0.721-2.976-0.451c-0.541-0.27-0.992-0.631-1.533-0.811c-0.631-0.271-1.533-0.18-2.164-0.361
			c-1.172-0.361-1.984-1.262-3.246-1.172c-0.361-0.361-0.632-0.722-1.172-0.992c-0.271-0.18-0.812-0.541-1.262-0.812
			c-0.271-0.271-0.632-0.36-0.812-0.541c-0.271-0.271-0.721-0.812-0.901-1.173c-0.09-0.18-0.361-0.36-0.541-0.721
			c-0.45-0.722-1.172-1.804-1.623-2.615c-0.18-0.361-0.18-0.812-0.27-0.992c-0.451-0.721-0.812-1.533-1.083-2.705
			c-0.18-0.721-0.45-1.623-0.45-2.073c0-0.361,0.27-0.992,0.27-1.713c0-0.541-0.18-1.262-0.18-1.804
			c0.09-0.45,0.18-0.721,0.36-1.262c0.09-0.541,0.09-1.262,0.18-1.533c0.18-0.541,0.722-0.811,0.992-1.353
			c0.271-0.541,0.451-1.172,0.722-1.623c0.09-0.361,0.541-0.541,0.722-0.901c0.18-0.09,0.18-0.18,0.27-0.271
			c0.541-0.541,1.172-1.713,1.804-2.434c0.451-0.361,0.992-0.722,1.533-1.173c0.451-0.36,0.811-0.811,1.353-1.172
			c1.082-0.631,2.434-0.992,3.156-1.983c1.623,0.09,2.525-0.541,3.516-1.262c0.812-0.361,1.623-0.812,2.796-1.173
			c0.45,0,0.901-0.18,1.172-0.27c0.811-0.09,1.353,0.089,2.073-0.09c0.541-0.271,0.632,0,1.353,0c1.533,0,3.337-0.361,5.23,0
			c0.36,0,1.082,0.18,1.443,0.27c0.811,0.271,1.533,0.451,2.795,0.632c1.172,0.271,1.893,0.361,2.705,0.632
			c1.623,0.811,3.697,1.532,5.32,2.434c0.271,0.18,0.451,0.541,0.812,0.631c0.45,0.18,0.901,0.18,1.082,0.451
			c0.18,0,0.18,0.18,0.451,0.271c0.089,0.09,0.27,0.361,0.631,0.451c0,0.09,0.271,0.18,0.271,0.18
			c0.451,0.451,0.721,1.083,1.262,1.713c0.361,0.541,1.172,0.902,1.443,1.352c0.271,0.361,0.271,1.083,0.541,1.443
			c0.541,0.992,1.623,1.623,2.164,2.525c0.09,0.45,0.18,0.992,0.361,1.353c0,0.09,0.271,0.45,0.271,0.541
			c0.09,0.271-0.09,0.541,0,0.812c0.09,0.361,0.45,0.811,0.541,1.172c0.09,0.541,0,1.082,0.09,1.443
			c0.271,0.901,0.902,1.533,0.541,2.434C140.841,225.457,139.669,225.096,138.587,225.005z"/>
	</g>
	<g>
		<path fill="#FFFFFF" d="M163.071,208.054c0.205,0.992,0.613,2.434,0.954,3.516c0.205,0.451,0.205,0.812,0.341,1.443
			c0.068,0.271,0.273,0.722,0.408,0.992c0,0.36,0,0.992,0.068,1.352c0.136,0.45,0.136,0.901,0.205,1.262
			c0.273,0.721,0.749,1.262,1.022,1.983c0.068,0.632,0.068,1.263,0.205,1.894c0.205,0.992,0.477,1.894,0.818,3.066
			c0.136,0.451,0.136,1.082,0.205,1.533c0.205,0.722,0.749,1.262,0.954,1.984c0.205,0.541,0.205,1.262,0.477,1.803
			c0.205,1.173,0.408,2.164,0.749,3.156c0.205,0.541,0.205,1.533,0.409,2.255c0.204,0.992,0.818,1.713,0.749,2.795
			c0.954,0.992,0.749,2.976,1.158,4.328c0.341,0.901,0.749,1.623,1.09,2.164c0.613,0,0.954-0.992,1.158-1.713
			c0.205-0.721,0.408-1.983,0.545-2.976c0.068-0.811,0.409-1.352,0.273-2.073c0.205-0.541,0.545-0.992,0.682-1.533
			c0.068-0.632,0-1.262,0.068-1.894c0-0.09,0.205-0.271,0.205-0.361c0.341-0.992,0.682-2.254,1.09-2.975
			c-0.136-1.263,0.205-1.984,0.409-2.796c0.205-0.901,0.205-1.442,0.409-2.254c0-0.18,0.136-0.361,0.136-0.632
			c0.341-1.262,1.295-2.795,1.84-3.877c0.068-0.721-0.273-0.901-0.136-1.623c0.408-0.992,0.545-1.893,0.749-2.885
			c0.205-0.631,0.409-0.901,0.545-1.443c0.204-0.541,0.204-1.172,0.272-1.533c0.136-0.631,0.341-0.901,0.545-1.443
			c0.341-1.443,0.545-3.065,1.227-4.328c0-1.713,0.477-2.705,1.363-3.246c2.521,0.09,5.11,0,7.564,0
			c1.294,0.721,1.158,3.606,2.248,4.778c-0.136,0.992,0.273,1.713,0.477,2.345c0,0.36,0,0.721,0.136,0.992
			c0.205,0.901,0.613,1.713,0.954,2.525c0.136,0.451,0.205,0.992,0.341,1.443c0.068,0.451,0.068,0.992,0.272,1.443
			c0.273,0.541,0.545,1.082,0.75,1.713c0.273,0.632,0.341,1.533,0.545,2.254c0.205,0.632,0.409,1.263,0.75,1.804
			c-0.068,0.992,0.408,1.804,0.749,2.705c0.136,0.541,0.341,0.902,0.545,1.353c0.068,0.541,0.068,1.263,0.205,1.713
			c0.341,1.533,1.09,3.246,1.636,4.779c0,0.18,0,0.451,0.068,0.721c0.136,0.451,0.408,0.992,0.613,1.713
			c0.273,0.361,0.136,0.992,0.341,1.353c0.136,0.271,0.408,0.632,0.545,0.902c0.205,0.811,0.136,1.983,0.341,2.795
			c0.205,0.721,0.409,1.443,0.954,1.804c0.545-0.361,0.545-1.533,0.749-2.525c0.068-0.271,0.205-0.45,0.273-0.721
			c0-0.271,0.136-0.361,0.136-0.722c0.205-1.082,0.341-1.893,0.545-2.885c0.204-0.901,0.408-1.893,0.613-2.885
			c0.136-0.361,0.136-0.992,0.341-1.352c0.068-0.541,0.545-0.992,0.749-1.713c0.205-0.541,0.068-1.262,0.205-1.803
			c0.205-0.722,0.613-1.173,0.408-1.894c0.341-0.541,0.614-0.992,0.886-1.623c0.068-0.721,0-1.713,0.204-2.434
			c0.068-0.271,0.273-0.722,0.409-1.083c0.136-0.36,0.341-0.631,0.341-0.901c0.205-0.721,0.068-1.713,0.273-2.344
			c0.136-0.451,0.477-0.902,0.545-1.262c0.341-1.352,0.341-2.976,1.158-3.878c-0.205-0.721,0.341-1.353,0.545-2.254
			c0.136-0.722,0.205-1.533,0.409-2.255c0-0.27,0.273-0.541,0.341-0.811c0.205-0.811,0.545-2.525,1.09-2.795
			c0.613-0.451,1.022,0.09,1.771,0.271c0.682,0,1.09-0.992,1.704-1.172c0.749-0.09,1.499,0.18,2.248,0.18
			c0.75,0,1.431-0.27,2.045-0.18c0.613,0.18,1.09,0.45,1.362,0.992c0,2.434-0.613,3.787-1.362,5.23
			c-0.136,1.713-0.545,2.976-0.954,4.328c-0.341,1.353-0.682,2.705-1.158,3.878c-0.205,0.541,0.068,0.811,0,1.533
			c-0.205,0.27-0.341,0.541-0.545,0.992c-0.205,0.271-0.136,0.992-0.341,1.713c-0.34,0.631-0.954,1.262-1.09,2.073
			c-0.204,0.541-0.068,1.262-0.204,1.984c-0.068,1.082-0.273,2.254-0.614,3.336c-0.341,0.992-0.749,2.255-0.749,3.878
			c-0.614,0.811-0.614,2.073-0.954,3.066c-0.136,0.45-0.205,0.811-0.341,1.262c-0.205,0.271-0.273,0.721-0.409,0.992
			c-0.136,0.451-0.136,0.992-0.136,1.443c-0.068,0.361-0.273,0.632-0.409,1.082c-0.205,0.722-0.068,1.533-0.614,1.984
			c0,0.721,0,1.262-0.34,1.533c-0.341,0.992-0.545,2.164-0.75,2.976c-0.272,0.992-0.613,1.983-0.613,3.246
			c-0.341,0.45-0.545,1.172-0.886,1.533c0.136,1.983-0.409,3.426-1.022,4.688c-0.205,2.074-0.886,3.607-1.499,5.23
			c-0.205,1.082,0.273,1.983,0,2.795c-1.09,1.262-2.862,0.811-4.497,0.811c-0.545,0-1.022,0.451-1.567,0.271
			c-0.682,0-1.431-0.541-1.84-0.811c-0.408-0.722-0.408-1.533-0.545-2.435c-0.205-0.901-0.545-1.804-0.818-2.885
			c0-0.271-0.136-0.45-0.136-0.631c-0.205-0.541-0.273-1.353-0.614-2.255c-0.136-0.271-0.408-0.36-0.545-0.811
			c-0.136-0.18,0-0.451,0-0.722c0-0.09-0.205-0.271-0.341-0.271c-0.068-0.721-0.205-1.262-0.273-1.983
			c-0.136-0.271-0.136-0.722-0.136-0.992c-0.205-0.541-0.545-1.083-0.75-1.533c-0.341-1.083-0.341-2.255-0.749-3.337
			c-0.068-0.361-0.273-0.632-0.409-0.901c-0.205-0.722-0.34-1.353-0.545-2.074c0-0.271-0.341-0.632-0.341-0.901
			c-0.068-0.361-0.068-0.812-0.205-1.262c-0.068-0.722-0.477-1.353-0.749-1.984c-0.205-0.812-0.409-1.533-0.613-2.255
			c-0.205-0.811-0.409-1.532-0.614-2.254c-0.341-1.262-0.477-2.344-0.954-3.337c-0.273-0.271-0.477-0.541-0.545-0.901
			c-0.136-0.271-0.136-1.352-0.204-1.894c-0.273-0.992-0.545-1.983-0.955-2.976c-0.136-0.18-0.34-0.271-0.477-0.45
			c-0.273-1.083-0.545-2.525-1.227-3.337c-1.09,0.631-0.681,2.795-1.022,4.148c0,0.361-0.273,0.901-0.477,1.172
			c-0.136,0.451-0.204,0.812-0.545,1.082c0,0.722-0.136,1.353-0.341,1.894c-0.068,0.09-0.34,0.361-0.34,0.361
			c-0.205,0.901-0.068,1.713-0.273,2.615c-0.136,0.361-0.409,0.812-0.545,1.262c-0.408,1.262-0.886,2.615-1.158,4.238
			c-0.34,0.812-0.408,1.894-0.749,2.885c-0.136,0.451-0.341,0.722-0.545,1.172c0,0.271,0,0.722-0.136,0.812
			c0,0.271-0.205,0.271-0.205,0.632c-0.068,0.541,0,1.262-0.068,1.893c-0.205,0.632-0.545,1.172-0.749,1.894
			c-0.205,1.082-0.409,1.804-0.75,2.976c-0.34,0.901-0.34,2.073-0.954,2.795c-0.136,0.721,0,1.353-0.205,2.073
			c-0.204,0.722-0.749,1.263-0.954,2.164c-0.136,0.541-0.136,1.082-0.272,1.623c-0.068,0.361-0.205,0.45-0.273,0.721
			c-0.341,1.173-0.341,2.705-0.886,3.968c-0.614,0.45-1.363,0.541-2.249,0.721c-0.818,0.09-1.158,0-2.112-0.18
			c-0.75-0.09-1.568,0.18-2.113-0.09c0-0.18-0.136-0.45-0.136-0.45c-0.954-0.541-1.158-2.976-1.977-3.968
			c0-1.082-0.204-2.073-0.681-3.336c-0.068-0.451-0.545-0.992-0.613-1.533c-0.136-0.451,0-0.992-0.136-1.443
			c-0.068-0.271-0.273-0.541-0.409-0.992c-0.068-0.541-0.205-1.172-0.545-1.713c-0.068-0.361-0.409-1.263-0.205-2.074
			c0.136-0.541-0.409-0.722-0.545-1.172c-0.068-0.271-0.068-0.722-0.272-1.082c-0.136-0.451-0.205-0.902-0.341-1.263
			c-0.341-0.631-0.409-1.443-0.614-2.434c-0.136-0.451-0.34-0.721-0.477-0.992c-0.205-0.812-0.273-1.713-0.477-2.525
			c-0.272-0.722-0.545-1.263-0.749-2.074c-0.273-0.722-0.341-1.623-0.545-2.254c-0.204-0.451-0.545-0.902-0.749-1.263
			c-0.205-0.721-0.205-1.622-0.34-2.164c-0.409-1.713-1.091-3.517-1.704-5.23c0-0.541,0-0.992-0.205-1.263
			c-0.136-0.541-0.408-1.082-0.613-1.713c-0.136-0.541-0.136-1.263-0.273-1.804c-0.068-0.451-0.205-0.812-0.409-1.262
			c-0.204-0.812-0.749-1.804-0.954-2.705c-0.068-0.541,0.136-1.353-0.068-2.074c-0.136-0.541-0.681-1.262-0.886-1.984
			c-0.341-0.811-0.341-1.803-0.545-2.705c-0.068-0.36-0.273-0.811-0.409-1.262c-0.136-0.271-0.409-0.721-0.545-0.992
			c-0.068-0.361,0-1.262-0.068-1.623c-0.136-0.361-0.205-0.632-0.341-0.992c0-0.361,0-0.722-0.136-0.992
			c-0.068-0.631-0.613-0.901-0.477-1.713c0.068-0.812,0.955-1.533,1.568-1.804c0.613-0.18,1.363,0.09,2.249,0.271
			c1.908,0,4.225-0.271,5.519,0.27C162.662,205.349,162.73,206.611,163.071,208.054z M168.454,238.891c0,0.722,0,1.443,0.477,1.623
			c1.022-2.254-1.704-2.164-1.636-4.418c-0.068,0-0.205,0-0.273,0c-0.272,0.541,0,1.804,0.205,2.435
			C167.637,238.622,168.182,238.622,168.454,238.891z M169.886,252.327c0-1.443-1.431-0.451-0.886,0.451
			C169.545,252.868,169.681,252.417,169.886,252.327z M172.747,258.549c0.136-0.992-0.341-1.443-0.613-1.713
			c-0.477,0.271-0.341,1.533,0,1.984C172.406,258.91,172.543,258.549,172.747,258.549z"/>
	</g>
	<g>
		<path fill="#FFFFFF" d="M236.702,204.537c1.983-0.631,4.238-0.631,6.221-0.811c0.812,0,1.984-0.09,2.345-0.09
			c0.721,0.09,1.443,0.631,2.254,0.721c0.541,0,1.352-0.45,2.074-0.631c0.271,0,0.361,0.271,0.45,0.271
			c0.271,0,0.451-0.271,0.541-0.271c1.623,0,2.885,0.271,4.238,0.271c0.812,0,1.713-0.271,2.705-0.271
			c1.353,0.18,2.705,0.541,4.058,0.45c0.992,0,1.984-0.45,2.976-0.45c0.902,0,1.623,0.45,2.525,0.45c0.631,0,1.262-0.27,1.893-0.45
			c0.541,0,1.173,0.271,1.804,0.271c0.632-0.09,1.172-0.361,1.623-0.361c1.082,0,2.254,0.271,3.337,0.09
			c0.992,0,2.615-0.09,3.516-0.09c0.361,0.271,0.812,0.541,1.353,0.721c0.992-0.18,1.804-0.631,3.066-0.631
			c1.623,0,3.337,0.45,4.96,0.631c1.713,1.623,1.533,3.788,1.533,6.312c-0.18,0.901-0.271,1.894-0.271,2.615
			c0,0.541,0.451,0.992,0.451,1.353c0.18,0.451-0.09,0.541-0.09,0.812c0,0.36,0,0.721,0,0.992c0.09,3.337,0,6.763,0.09,9.558
			c0.18,0.992,0.27,1.984,0.27,2.795c-0.09,0.632-0.45,1.263-0.45,1.894c-0.18,0.451,0,1.082,0,1.713
			c-0.18,0.541-0.271,1.082-0.271,1.533c0,0.811,0.271,1.713,0.361,2.615c0,0.541-0.09,1.082,0,1.533c0,0.451,0.36,0.901,0.36,1.262
			c0,0.632-0.27,1.262-0.27,1.894c0,1.713,0.18,3.787,0,5.681c0,1.984,0,3.967,0,5.681c0,0.811-0.09,1.533-0.09,2.164
			c0,0.722,0.27,1.443,0.36,2.074c0,0.901,0,1.713,0,2.615c-0.09,0.722-0.36,1.623-0.36,2.345c0,1.533,0.631,3.246-0.722,4.328
			c-0.721,0.27-1.623,0.541-2.344,0.631c-0.902,0-1.804-0.361-2.615-0.361c-0.632,0-1.263,0.09-1.984,0.09
			c-2.164,0-4.148,0.18-5.951,0.271c-0.992,0-1.894,0.271-2.885,0.271c-1.623,0.09-3.427,0-4.328,0c-0.451,0.09-0.992,0.09-1.443,0
			c-0.992,0-1.894-0.541-2.885-0.541c-0.721,0-1.533,0.541-2.254,0.541c-1.443,0.271-3.246,0-4.869,0
			c-1.443,0-2.976,0.361-4.328-0.18c-0.992,0.541-2.164,0.18-3.066,0.18c-0.361,0-0.901,0.271-1.262,0.271
			c-0.632-0.18-1.082-0.451-1.713-0.451c-0.721,0-1.623,0.451-2.344,0.451c-0.541,0-1.172-0.271-1.623-0.271
			c-1.623,0-3.517,0.271-4.96,0.271c-1.893-0.18-3.606-0.18-4.328-0.541c-0.27-0.271-0.992-1.082-1.172-1.262
			c-0.451-1.443,0.451-3.156,0.451-5.049c0-0.902-0.451-1.623-0.451-2.345c0-0.361,0.271-0.721,0.451-1.172
			c0.09-0.451,0-0.812,0.361-1.082c1.622-0.451,4.418-0.632,6.041,0c0.902-0.271,1.533-0.451,2.345-0.632
			c0.901,0,1.623,0.361,2.525,0.361c0.361,0,0.992-0.09,1.353-0.09c5.41-0.271,11.361-0.09,16.141-0.271
			c1.352,0,2.705,0.271,4.148,0.271c0.811,0,1.623-0.09,2.434-0.271c0.812,0,1.533-0.271,2.435-0.271
			c0.631-0.09,1.353,0.18,1.983,0.18c0.722,0,1.353-0.361,1.984-0.361c0.901,0,1.623,0.451,2.344,0
			c1.353-1.353,0.541-3.606,0.361-5.59c0-0.541,0.271-1.172,0.271-1.713c-0.09-0.631-0.271-1.262-0.271-1.893
			c0-1.894,0.541-3.967-0.361-5.23c-1.983-0.631-3.606,0.18-5.32,0.541c-0.632-0.271-1.352-0.361-2.074-0.541
			c-0.631,0-1.262,0.271-1.893,0.271c-0.451-0.09-0.992-0.36-1.623-0.36c-0.271,0-0.632,0.089-0.992,0.089c-0.361,0-0.722,0-0.992,0
			c-3.606,0-6.221-0.089-9.197-0.089c-0.632,0-1.173,0.089-1.713,0.089c-0.632,0-1.262-0.089-1.713-0.089
			c-2.164,0-4.238,0.992-6.492,0.36c-0.361-0.36-0.361-0.631-0.451-1.082c-0.18-0.451,0-1.172,0-1.443
			c-0.18-0.992-0.271-2.074-0.271-3.066c0-2.254-0.451-4.689,0.541-5.951c1.533-0.721,3.336-0.09,5.049-0.09
			c2.615-0.18,5.41-0.27,8.295-0.18c1.353,0,2.705,0,4.238,0.18c1.353,0,2.885-0.18,4.328-0.18c2.255,0,4.599,0,6.854,0
			c1.353-0.089,2.795,0.361,3.787-0.631c0.18-1.984,0.18-3.967,0.271-5.771c0-0.902-0.271-1.623-0.271-2.525
			c0-0.361,0.271-0.451,0.361-0.812c0.271-1.443,0.18-2.795,0-3.787c-1.172-1.082-2.795-0.361-4.328-0.18
			c-0.18,0-0.451-0.18-0.812-0.18c-0.27,0-0.631,0.18-0.901,0.18c-0.451,0-0.992-0.271-1.623-0.451
			c-0.271,0-0.631,0.271-0.992,0.271c-0.361,0-0.812-0.271-1.262-0.271c-0.722,0.18-1.533,0.271-2.345,0.271
			c-2.795,0-5.681,0-8.295,0c-2.074,0-3.967,0.18-5.23-0.361c-2.164,0.902-5.681,0.361-9.107,0.361c-1.894,0-6.402,0.632-7.394,0
			c-0.451-0.361-0.541-1.082-0.811-1.984c-0.271-0.811-0.541-1.443-0.541-2.254c0-0.811,0.271-0.992,0.361-1.443
			c0.18-0.721,0-1.352,0.18-1.984C235.619,206.16,236.16,205.258,236.702,204.537z M287.287,255.844
			c0.721-0.09,0.721-0.902,0.721-1.623c-0.18,0-0.361,0-0.451,0C287.377,254.761,286.926,255.393,287.287,255.844z"/>
	</g>
	<g>
		<path fill="#FFFFFF" d="M110.183,341.784c-0.451,0.271-0.902,0.722-1.443,0.722c-0.992,0.18-1.984-0.722-2.976-0.722
			c-0.722,0-1.623,0.451-2.435,0.541c-1.353,0.18-2.795-0.271-4.328-0.09c-0.721,0-1.443,0.271-2.164,0.271
			c-0.451,0-1.082-0.18-1.713-0.18c-1.623-0.09-3.337,0-4.328-0.992c-0.271-1.713,0-3.337,0-4.96c0-1.623-0.271-3.337-0.09-5.05
			c0-1.893,0-3.877,0-6.041c-0.18-1.533-0.18-2.976-0.271-4.689c0-0.451-0.18-0.992-0.18-1.443s0.271-1.172,0.451-1.713
			c0-0.541-0.271-1.172-0.271-1.894c0-1.172,0.271-2.434,0.271-3.697c0-1.262-0.18-2.615,0-3.697c0-0.632,0.271-1.173,0.271-1.894
			c0-0.632-0.18-1.353-0.18-1.984c0-0.721,0-1.443,0-2.164c-0.09-0.541-0.271-1.172-0.361-1.894c0-0.541,0.09-1.172,0.271-1.713
			c0-0.992,0.09-1.983,0.09-2.976c0-0.18-0.271-0.631-0.09-0.901c0-0.541,0.271-0.992,0.271-1.533c0-1.172-0.18-2.344-0.18-3.606
			c0-0.722,0-1.263,0-1.984c0-0.632-0.271-1.172-0.09-1.713c0-0.632,0.361-1.623,0.541-2.615c0.271-1.443-0.18-1.984,0.721-2.615
			c0.451-0.271,1.172-0.361,1.713-0.361c0.451,0.09,0.901,0.541,1.443,0.541c0.901,0,1.713-0.451,2.434-0.541
			c0.722,0,1.443,0.09,2.164,0.271c3.156,0.09,6.853-0.18,10.009,0c0.631,0,1.353,0,2.073,0c0.541-0.18,1.263-0.271,1.804-0.271
			c0.541,0.09,1.172,0.361,1.713,0.361c1.533,0,3.066-0.541,4.599-0.541c1.443,0,2.885,0.541,4.238,0.541
			c0.901,0,1.804-0.271,2.615-0.09c0.722,0,1.353,0.271,1.894,0.361c0.811,0.36,2.254,0.45,3.156,0.721
			c1.262,0.451,2.615,1.172,4.058,1.894c3.516,1.713,6.311,4.598,8.656,7.754c0.45,0.541,1.172,0.992,1.172,2.164
			c0.721,0.541,1.713,1.172,2.164,1.983c0.09,0.271,0.09,0.902,0.271,1.263c0.722,1.622,1.353,3.336,1.894,5.049
			c0,0.18-0.18,0.451,0,0.722c0,0.18,0.541,0.901,0.541,1.262c0.18,0.271,0,0.901,0,1.262c0.18,0.361,0.45,0.631,0.45,0.901
			s-0.18,0.722-0.18,1.172c-0.09,0.722,0.18,2.435,0.18,3.607c-0.18,1.984-0.271,4.058-0.541,6.132c0,0.901,0,1.533-0.18,2.164
			c0,0.271-0.451,0.722-0.541,1.082c-0.271,0.992-0.271,1.894-0.811,2.705c-0.09,0.361-0.541,0.541-0.541,0.902
			c-0.271,0.631-0.18,1.713-0.451,2.615c-0.09,0.451-0.541,1.082-0.992,1.713c-0.361,0.541-0.811,0.992-1.262,1.533
			c-0.18,0.271-0.451,0.451-0.541,0.721c-0.271,0.271-0.18,0.722-0.45,0.902c-0.18,0.27-0.722,0.721-0.992,0.992
			c-0.18,0.18-0.18,0.451-0.18,0.541c-0.27,0.18-0.721,0.36-0.811,0.45c-0.541,0.451-0.901,0.992-1.443,1.443
			c-0.18,0.18-0.451,0.18-0.721,0.451c-0.632,0.361-0.992,1.262-1.623,1.804c-0.271,0.271-0.722,0.45-0.992,0.721
			c-0.27,0.271-0.541,0.541-0.811,0.902c-0.451,0.27-0.992,0.27-1.623,0.631c-0.361,0.09-0.992,0.541-1.353,0.812
			c-0.451,0.18-0.901,0.18-1.533,0.27c-0.451,0.18-0.811,0.451-1.262,0.541c-0.541,0.18-1.262,0-1.713,0.18
			c-0.541,0.18-0.992,0.451-1.443,0.541c-0.541,0-1.262-0.09-1.804,0c-1.533,0.18-2.885,0.992-4.509,1.172
			c-1.082,0.18-2.795-0.451-4.328-0.271c-1.262,0-2.525,0.451-3.516,0.271c-1.443-0.271-1.443-0.992-2.705-1.713
			C110.814,340.973,110.453,341.334,110.183,341.784z M94.764,289.756c-0.36,0-0.631,0-0.631,0c0,0.541,0,1.172,0.271,1.262
			C95.034,290.748,94.854,290.207,94.764,289.756z M105.855,331.054c0.45,0,0.992-0.451,1.443-0.451c0.45,0,0.992,0.271,1.533,0.271
			c0.45-0.18,1.082-0.271,1.532-0.271c0.722,0.09,1.263,0.451,1.984,0.451c0.722,0,1.443-0.18,2.164-0.18
			c0.811-0.18,1.532,0.18,2.344,0.18c1.262,0,2.795,0,4.238,0c1.082,0,2.434-0.361,3.066-0.18c0.451,0,0.721,0.18,1.082,0.18
			c0.541-0.18,1.533-0.902,2.434-1.083c0.541-0.27,1.263-0.27,1.533-0.36c1.353-0.632,1.894-1.894,3.156-2.345
			c0.451-1.082,1.443-1.533,2.345-2.344c0.09-1.172,0.541-1.804,1.172-2.525c0.271-0.271,0.631-0.451,0.811-0.812
			c0.18-0.18,0-0.45,0-0.721c0,0,0.271-0.18,0.451-0.271c0.361-1.172,0.361-2.164,0.811-3.607c0.18-0.811,0.632-1.622,0.722-2.344
			c0.18-1.533,0-3.337,0-4.779c0-0.901,0.18-1.443,0.18-2.164c-0.18-1.172-0.902-3.156-1.353-4.328
			c-0.09-0.541-0.09-1.172-0.271-1.533l-0.271-0.18c-0.09-0.09-0.09-0.451-0.271-0.541c-0.271-0.721-0.721-1.172-0.992-1.622
			c-0.18-0.271-0.18-0.722-0.271-0.992c-0.18-0.18-0.451-0.45-0.631-0.541c-0.361-0.632-1.083-1.623-1.444-1.894
			c-0.089-0.18-0.721-0.271-1.172-0.541c-0.36-0.18-0.811-0.721-1.082-0.901c-0.451-0.09-0.992-0.271-1.713-0.451
			c-0.18-0.09-0.45-0.271-0.721-0.361c-1.894-0.901-2.976-1.893-4.869-1.622c-0.992,0.36-2.434,0.36-3.606,0
			c-0.541-0.09-1.083-0.361-1.713-0.361c-0.722-0.09-1.262,0.271-2.164,0.271c-1.172,0-2.254-0.541-3.426-0.541
			c-0.992,0-1.984,0.541-2.976,0.541c-0.722,0-1.443-0.541-2.435-0.632c-1.622-0.18-3.065,0.09-4.598,0.361
			c-0.722,1.262-0.09,2.976-0.451,4.509c0,0.901-0.361,1.262-0.361,1.983c0,0.632,0.361,1.173,0.361,1.623
			c0,0.18-0.09,0.722-0.09,0.992c0,0.901,0,1.443,0,1.983c0,0.451,0.09,0.722,0.09,1.172c0,0.992-0.09,2.164-0.09,2.976
			c0,0.451,0.09,0.632,0.09,1.083c0,0.811-0.271,1.713-0.271,2.525c0,1.713,0.451,3.246,0.18,4.869
			c-0.18,0.632-0.361,0.992-0.541,1.623c0,0.541,0.361,1.083,0.361,1.713c0,0.09-0.09,0.361-0.09,0.722
			c-0.09,1.352,0.271,2.705,0.271,3.877c0,1.082-0.271,2.434-0.271,3.697c-0.09,1.173-0.271,2.525,0.361,3.697
			c0.632,0.18,0.992,0,1.623,0C104.592,330.874,105.314,331.054,105.855,331.054z"/>
	</g>
	<g>
		<path fill="#FFFFFF" d="M213.968,282.452c0.18,0.632,0,1.263,0.18,1.984c0.09,0.451,0.361,0.632,0.361,1.443
			c0,0.811-0.271,1.443-0.541,2.254c-0.27,0.902-0.36,1.623-0.811,1.984c-0.992,0.632-5.5,0-7.394,0
			c-3.427,0-6.943,0.541-9.107-0.361c-1.262,0.541-3.155,0.361-5.23,0.361c-2.615,0-5.5,0-8.295,0c-0.812,0-1.623-0.09-2.345-0.271
			c-0.45,0-0.901,0.271-1.262,0.271s-0.721-0.271-0.992-0.271c-0.632,0.18-1.172,0.451-1.623,0.451c-0.271,0-0.632-0.18-0.901-0.18
			c-0.361,0-0.632,0.18-0.812,0.18c-1.533-0.18-3.156-0.901-4.328,0.18c-0.18,0.992-0.271,2.344,0,3.787
			c0.09,0.361,0.361,0.451,0.361,0.812c0,0.901-0.271,1.622-0.271,2.525c0.09,1.804,0.09,3.787,0.271,5.771
			c0.992,0.992,2.434,0.541,3.787,0.631c2.255,0,4.599,0,6.854,0c1.443,0,2.976,0.18,4.328,0.18c1.533-0.18,2.885-0.18,4.238-0.18
			c2.885-0.089,5.681,0,8.295,0.18c1.713,0,3.516-0.631,5.049,0.09c0.992,1.262,0.541,3.697,0.541,5.951
			c0,0.992-0.09,2.074-0.271,3.066c0,0.271,0.18,0.992,0,1.443c-0.09,0.451-0.09,0.722-0.451,1.082
			c-2.254,0.632-4.327-0.36-6.492-0.36c-0.451,0-1.082,0.089-1.713,0.089c-0.541,0-1.082-0.089-1.713-0.089
			c-2.976,0-5.59,0.089-9.197,0.089c-0.271,0-0.632,0-0.992,0c-0.36,0-0.721-0.089-0.992-0.089c-0.631,0-1.172,0.27-1.623,0.36
			c-0.631,0-1.262-0.271-1.893-0.271c-0.722,0.18-1.443,0.271-2.074,0.541c-1.713-0.361-3.337-1.172-5.32-0.541
			c-0.902,1.263-0.361,3.337-0.361,5.23c0,0.631-0.18,1.262-0.271,1.893c0,0.541,0.271,1.173,0.271,1.713
			c-0.18,1.984-0.992,4.238,0.361,5.59c0.721,0.451,1.443,0,2.344,0c0.632,0,1.262,0.361,1.984,0.361
			c0.631,0,1.353-0.271,1.983-0.18c0.902,0,1.623,0.271,2.435,0.271c0.811,0.18,1.623,0.271,2.434,0.271
			c1.443,0,2.795-0.271,4.148-0.271c4.779,0.18,10.731,0,16.141,0.271c0.361,0,0.992,0.09,1.352,0.09
			c0.901,0,1.623-0.361,2.525-0.361c0.812,0.18,1.443,0.361,2.345,0.632c1.622-0.632,4.418-0.451,6.041,0
			c0.361,0.27,0.271,0.631,0.361,1.082c0.18,0.451,0.451,0.811,0.451,1.172c0,0.722-0.451,1.443-0.451,2.345
			c0,1.893,0.902,3.606,0.451,5.049c-0.18,0.18-0.902,0.992-1.172,1.262c-0.722,0.361-2.435,0.361-4.328,0.541
			c-1.443,0-3.337-0.271-4.96-0.271c-0.451,0-1.082,0.271-1.623,0.271c-0.721,0-1.623-0.451-2.344-0.451
			c-0.632,0-1.082,0.271-1.713,0.451c-0.361,0-0.901-0.271-1.262-0.271c-0.902,0-2.074,0.361-3.066-0.18
			c-1.353,0.541-2.885,0.18-4.328,0.18c-1.623,0-3.427,0.271-4.87,0c-0.721,0-1.533-0.541-2.254-0.541
			c-0.992,0-1.894,0.541-2.885,0.541c-0.451,0.09-0.992,0.09-1.443,0c-0.901,0-2.705,0.09-4.328,0c-0.992,0-1.894-0.271-2.885-0.271
			c-1.804-0.09-3.787-0.271-5.951-0.271c-0.721,0-1.352-0.09-1.984-0.09c-0.811,0-1.713,0.361-2.615,0.361
			c-0.721-0.09-1.623-0.361-2.344-0.631c-1.353-1.083-0.722-2.795-0.722-4.328c0-0.722-0.27-1.623-0.36-2.345
			c0-0.901,0-1.713,0-2.615c0.09-0.632,0.36-1.353,0.36-2.074c0-0.631-0.09-1.353-0.09-2.164c0-1.713,0-3.697,0-5.681
			c-0.18-1.894,0-3.967,0-5.681c0-0.632-0.27-1.262-0.27-1.894c0-0.361,0.36-0.811,0.36-1.262c0.09-0.451,0-0.992,0-1.533
			c0.09-0.901,0.361-1.804,0.361-2.615c0-0.451-0.09-0.992-0.271-1.533c0-0.632,0.18-1.262,0-1.713c0-0.631-0.36-1.262-0.45-1.894
			c0-0.811,0.09-1.803,0.27-2.795c0.09-2.795,0-6.221,0.09-9.558c0-0.271,0-0.632,0-0.992c0-0.271-0.27-0.361-0.09-0.812
			c0-0.36,0.451-0.811,0.451-1.353c0-0.721-0.09-1.713-0.271-2.615c0-2.525-0.18-4.689,1.533-6.312
			c1.623-0.18,3.337-0.631,4.96-0.631c1.262,0,2.073,0.45,3.066,0.631c0.541-0.18,0.992-0.45,1.352-0.721
			c0.901,0,2.525,0.09,3.516,0.09c1.083,0.18,2.255-0.09,3.337-0.09c0.451,0,0.992,0.271,1.623,0.361
			c0.631,0,1.262-0.271,1.804-0.271c0.631,0.18,1.262,0.45,1.893,0.45c0.902,0,1.623-0.45,2.525-0.45c0.992,0,1.983,0.45,2.976,0.45
			c1.353,0.09,2.705-0.27,4.058-0.45c0.992,0,1.893,0.271,2.705,0.271c1.353,0,2.615-0.271,4.238-0.271
			c0.09,0,0.271,0.271,0.541,0.271c0.089,0,0.18-0.271,0.45-0.271c0.722,0.18,1.533,0.631,2.074,0.631
			c0.811-0.09,1.533-0.631,2.254-0.721c0.361,0,1.533,0.09,2.345,0.09c1.983,0.18,4.238,0.18,6.221,0.811
			C213.157,280.469,213.698,281.37,213.968,282.452z M161.76,329.431c-0.09,0-0.271,0-0.451,0c0,0.721,0,1.533,0.721,1.623
			C162.391,330.603,161.939,329.971,161.76,329.431z"/>
	</g>
	<g>
		<path fill="#FFFFFF" d="M259.727,295.797c-0.18,0.632,0.271,0.722,0.09,1.353c0.721,0.812,1.353,1.533,2.164,2.255
			c0.632,0.811,1.713,1.443,2.255,2.164c0.18,0.18,0.271,0.632,0.541,1.082c0.541,0.722,1.353,1.713,2.074,2.616
			c0.361,1.172,0.992,2.164,2.074,2.525c0.36,0.992,1.082,1.713,1.622,2.525c0.18,0.451,0.361,0.811,0.632,1.262
			c0.271,0.18,0.541,0.09,0.811,0.361c0.09,0.09,0.09,0.18,0.09,0.271c0.18,0.271,0.271,0.631,0.541,1.082
			c0.09,0.271,0.361,0.361,0.541,0.541c0.27,0.45,0.36,1.082,0.721,1.533c0.451,0.811,1.082,1.443,1.713,2.164
			c0.541,0.632,1.082,1.623,1.984,1.894c0.631-1.082,0.089-2.255,0.18-3.337c0-3.606,0.09-7.484,0.09-11.361
			c0-0.632-0.09-1.443-0.09-2.074c-0.09-0.631-0.36-1.172-0.45-1.803c0-0.902,0.09-1.713,0.271-2.616
			c0.089-0.721,0.27-1.622,0.27-2.434c0-1.082-0.27-2.073-0.27-3.156c0-1.172,0.18-2.434,0.18-3.516
			c-0.09-0.902-0.45-1.894-0.45-2.795c0-0.632,0.45-1.443,0.45-2.074c-0.09-0.721-0.45-1.262-0.45-1.894
			c0-0.992,0.541-1.893,0.541-2.705c1.804-0.811,4.328-0.271,6.493-0.09c0.721,0,1.623-0.36,2.164-0.27
			c0.361,0.089,0.902,0.541,1.353,0.811c0.541,0.18,0.992,0.271,1.173,0.632c0,1.353-0.18,2.525-0.09,4.148
			c0,0.45,0.18,1.082,0.09,1.623c0,0.45-0.271,1.082-0.271,1.532c0,2.164,0.541,4.418,0.541,6.583c0,0.632-0.27,1.262-0.27,1.894
			c0,1.533,0.45,2.976-0.271,4.509c-0.18,0.631,0.271,0.992,0.271,1.622c0,0.541-0.271,0.902-0.271,1.443
			c0,0.632,0.271,1.173,0.541,1.894c-0.541,1.623-0.36,3.787-0.27,6.042c0.09,0.271,0.27,0.811,0.27,1.082
			c0,0.541-0.36,1.082-0.36,1.623c0,0.361,0.09,0.722,0.09,1.172c0,0.451-0.18,0.812-0.09,1.262c0,0.541,0.36,1.173,0.36,1.713
			c0.09,1.804-0.18,4.418,0,5.861c0,0.271,0.09,0.632,0.18,0.901c0,0.361-0.18,0.812-0.18,1.083c0.09,2.525,0,6.492,0,9.197
			c0,0.361-0.27,0.632-0.27,1.083c0.09,0.811,0.45,1.713,0.45,2.525c-0.09,0.901-0.18,1.443-0.721,2.164
			c-0.902,0.361-1.623,0.18-2.615,0c-1.623-0.45-3.337,0.541-5.591,0.361c-0.992-0.18-1.532-0.721-2.434-0.811
			c-1.262-1.173-2.073-2.795-3.246-4.149c-0.45-0.541-0.811-0.992-1.172-1.532c0-0.09-0.36-0.09-0.36-0.18
			c-0.361-0.812-0.812-1.713-1.713-2.074c-0.361-1.804-1.984-3.246-2.976-4.418c-1.262-1.262-2.435-2.615-3.337-3.877
			c-0.271-0.18-0.451-0.271-0.541-0.541c-0.18-0.18,0-0.541-0.27-0.631c-0.18-0.361-0.541-0.541-0.812-0.992
			c-0.451-0.631-0.901-1.353-1.443-1.983c-0.541-0.812-1.262-1.353-1.713-1.984c-0.631-0.992-1.082-2.254-1.893-3.066
			c-0.361-0.45-0.722-0.721-1.083-1.082c-0.27-0.361-0.631-1.172-0.992-1.623c-0.18-0.09-0.451-0.271-0.541-0.361
			c-0.361-0.27-0.541-0.992-0.902-1.353c-0.361-0.45-0.901-0.811-1.262-1.172c-0.09-0.271,0-0.451-0.18-0.541
			c-0.271-0.451-0.451-0.902-0.901-1.353c-0.09-0.09-0.09-0.45-0.271-0.631c-0.271-0.271-0.722-0.451-0.901-0.722
			c-0.451-0.541-0.632-1.353-1.173-1.983c-0.18-0.09-0.45-0.18-0.541-0.271s-0.09-0.361-0.18-0.541
			c-0.451-0.541-0.902-1.172-1.623-1.533c-0.451-1.353-1.353-2.615-2.074-3.787c-0.36-0.361-0.631-1.172-1.082-1.713
			c-0.45-0.541-0.811-1.172-1.623-1.172c0,1.262-0.09,2.795-0.09,4.328c0,0.722,0.18,1.172,0.09,1.804
			c0,0.901-0.811,1.713-0.45,2.795c0,0.09,0.36,0.18,0.36,0.361c0.09,0.27,0.09,0.811,0.09,1.172
			c0.361,1.353,0.632,3.246,0.271,4.688c-0.271,1.083,0,2.885,0,4.418c0,1.083-0.271,2.255-0.271,3.337
			c0,0.812,0.271,1.443,0.271,2.164c0,0.631-0.361,1.443-0.361,2.073c-0.09,1.172,0.361,2.345,0.361,3.517
			c0,0.45-0.18,0.992-0.271,1.533c0,1.353,0.271,2.705,0.271,4.058c0,0.541-0.271,1.172-0.271,1.713
			c0,2.705,1.083,5.681-0.271,8.295c-2.525,0.541-5.41-0.09-7.844,0c-1.082,0-2.074,0.541-3.066,0.09
			c-0.632-0.632-0.451-1.623-0.541-2.434c0-0.902,0-1.984,0-2.796c0.09-3.065,0.361-5.951,0.451-8.926
			c0-1.894-0.451-3.697-0.451-5.411c0-0.992,0.09-1.893,0.271-2.795c0.09-0.631,0.271-1.172,0.271-1.803
			c0-0.541-0.271-1.173-0.271-1.804c-0.18-0.901,0.09-1.623,0.18-2.525c0-0.812-0.18-1.713-0.18-2.435
			c0-0.36,0.271-0.811,0.271-1.082c0.271-0.992,0.361-2.434,0.271-3.427c-0.18-1.533-0.902-3.065,0.09-4.418
			c-0.361-2.525,0.271-4.959-0.451-7.033c0.632-1.172,0.451-2.254,0.361-4.058c0,0.09,0.09,0,0.09-0.09
			c0-0.361-0.361-1.082-0.361-1.623c0-0.811,0.361-1.443,0.361-2.254c0.09-0.451-0.09-0.992-0.09-1.443
			c0-0.812,0.271-1.804,0.271-2.705c0-1.082-0.632-2.345-0.18-3.427c1.082-1.172,2.976-0.721,4.599-0.811
			c0.541-0.18,1.082-0.271,1.983,0c0.271,0,0.632,0.09,0.902,0.09c0.631,0,1.082-0.361,1.623-0.361c0.631,0,1.262,0.361,2.164,0.361
			c2.164,0.18,2.795-0.271,3.967,0.992c0.09,0.09,0.271,0.361,0.361,0.632c0.271,0.27,0.541,0.541,0.901,1.082
			c0.18,0.18,0.271,0.541,0.361,0.631c0.09,0.18,0.361,0.271,0.541,0.541c0.09,0.18,0,0.541,0.09,0.722
			c0.36,0.45,0.901,0.901,1.352,1.442l0.271,0.09c0,0.09-0.09,0.271,0,0.451l0.36,0.09c0.09,0.271,0.09,0.541,0.271,0.812
			c0.09,0.089,0.361,0.27,0.451,0.27c0,0.09-0.09,0.271,0,0.271c0,0.09,0.361,0.09,0.361,0.271c0.27,0.631,0.901,1.623,1.532,2.254
			c0.992,1.262,2.074,1.804,2.435,3.517C257.833,294.084,258.736,294.986,259.727,295.797z M236.012,314.462
			c-0.27,0.632-0.18,1.623,0.722,1.443C236.734,315.274,236.644,314.553,236.012,314.462z M239.89,294.084
			c-0.722-0.45-1.083,1.083-0.361,1.083C240.07,295.257,239.8,294.354,239.89,294.084z M239.71,291.289
			c0.09,0.541-0.271,1.443,0.541,1.353C240.34,291.92,240.07,291.379,239.71,291.289z M246.562,290.207
			c-0.721-0.18-0.721,0.811,0,0.632C246.743,290.477,246.562,290.568,246.562,290.207z M280.376,315.815
			c0,0.722-0.18,1.533,0.811,1.353C281.188,316.446,281.188,315.634,280.376,315.815z M284.524,315.004
			c-0.722,0-1.083,0.271-1.083,0.901C283.983,316.356,284.885,315.995,284.524,315.004z"/>
	</g>
</g>
<g id="Spots" display="none">
</g>
</svg>
