<svg xmlns="http://www.w3.org/2000/svg" width="384" height="550"><g><g fill="#fff"><path d="M75.461 309.749l.073.718.916 1.324c.146.106.55.159.55.265v.813c0 .106.183.158.329.264l.713 2.189.552 2.558c.088 1.019.405 1.529.405 2.548v2.691c0 1.002-.459 1.503-.634 2.504l-.464 2.35-.269 2.359-.244.46-.378 2.507-.226 1.25-.662 2.246-.075 2.448-.147 2.442.293 2.477.219.413c.674.557 1.01.835 1.684 1.387l1.538.495.292.492.573.263c.146.42.5.63.5 1.049v2.375c0 1.038-.309 1.558-.427 2.596l-.213.546-.839.585-1.188.162-1.326-.092-.956-.23c-.908-.418-1.364-.63-2.272-1.058-.761-.51-1.143-.767-1.905-1.285-.703-.765-1.055-1.149-1.757-1.92l-.22-.577-.22-.182-.293-.586-.219-.182-.22-.658-.366-.516-.659-2.134-.293-2.647-.146-2.63.073-1.416.512-2.157.366-2.333.439-2.563.293-2.58.146-1.251.732-2.296.073-2.525.292-2.503.073-2.684-.366-2.413-.293-.981-.366-.436-.366-1.228-.513-.532-.22-.658-1.537-1.765-1.025-.84-1.098-.38-.512.168-.732.77-.952 2.319-.439.965-.513 1.982-.146-.022-.439 1.279-.585.86-.732 2.18-.586 1.568-1.025 2.126-.513.625-.146.529-1.311 2.329c-.144.075-.064.109-.064.177v.317c0 .068-.519.102-.665.17l-.223.462-.368.104-.111.461c-.644.481-.985.72-1.63 1.195l-.083.461-.956.602-.515.687-.514.053-.147.365-.879.132.081.333c-.146-.032.008-.047.008-.079v.159c-1 .379-1.472.567-2.204.938l-.992.527-1.045.251c-.937.062-1.452.089-2.39.138-.879-.127-1.342-.193-2.22-.331-.937-.122-1.417-.186-2.354-.322l-1.031-.053c-.937-.363-1.409-.548-2.346-.925-.703-.338-1.056-.509-1.758-.856l-.44-.533-.732-.391-.44-.616c-.878-.537-1.318-.808-2.196-1.357-.761-.858-1.142-1.29-1.903-2.158-.761-.931-1.142-1.399-1.904-2.34l-.878-1.191-.732-2.013-.22-.082-.293-.981-.366-.455-.805-2.524-.557-2.335c-.059-.086-.192-.129-.192-.216v-3.8c0-.371-.043-.557-.101-.928l.462-2.204.085-1.08.152-.023.149-.497.514-.596.879-2.043.367-.576c.586-.478.878-.719 1.464-1.203l.073-.449.879-.397.585-.584.439-.004.878-.408c.82-.162 1.23-.245 2.05-.418l1.025.019.439-.254.952-.014c.966.177 1.45.262 2.416.424l.952.124.586.25.512.464.548.537c.146.105.695.158.695.263v3.445c0 .562-.299.842-.328 1.404l-.494 1.48-.43.291-1.13.077-1.187-.19c-.849.124-1.282.184-2.131.297l-1.04.363c-.527.305-.26.457-1.26.758v.396l-.209-.048-.432.913c-.205.786-.359 1.179-.359 1.965v2.691c0 .558-.097.837-.038 1.395l.201 1.286.32.677.05.499 1.306 2.095.36.197.07.261 1.243 1.108.134.362c.146.046.354.069.354.114v.237c1 .435 2 .65 2 1.075v.238c1 .328 1.494.488 2.489.8.908.097 1.362.143 2.27.228.879-.05 1.318-.078 2.196-.139l.805-.193 1.391-1.162.513-.114 1.537-1.066.146-.441 1.098-.782.293-.885.732-.711 1.228-1.903c.469-.757 1.301-1.136 1.301-1.896v-.683l.163.044.528-1.891.309.043v-1.051l1 .043v-1.694l.115.028.277-2.082.212-.117.052-.54c.146-.194.345-.292.345-.486v-.316c0-.142.149-.213.237-.356l.155-.686.224-.197.075-.621.294-.185.147-.686.22-.198.434-1.282.214-.053v-.316c0-.339.284-.509.519-.849l.698-2.092.276-.189.217-.767c.088-.08.29-.121.29-.201v-.554c0-.103.141-.154.287-.257l.473-1.897.859-2.079.21-.204.214-1.074 1.125-2.243c.234-.377.832-.566.832-.944v-.554c0-.137-.029-.206.118-.343l.368-.623c.088-.083-.486-.124.514-.207v-.554c0-.106-.2-.159-.053-.266l-.136-.465.408-.958.094-.693-.099-.881-.526-.466-.519-.151c-.937.185-1.409.274-2.346.447-.937.046-1.407.067-2.344.101-.849.239-1.275.356-2.124.585-.908.156-1.362.231-2.27.375-.879.213-1.318.317-2.196.52-.791.252-1.186.375-1.977.618-.674.49-1.011.733-1.684 1.216l-.952.656-.146.521-.22-.051-.146.52-.381.593c-.205.68-.381 1.02-.381 1.7v1.425c0 .591 0 .886.088 1.477l.301 1.194 1.432 2.316.203.287.431.177.948 1 .95.758.731 1.023.678 1.011c-.059 1.096.239 1.644.239 2.74v1.346c-1 .172-.518.258-.606.43l-.706.368-.316.349-1.146-.236c-.937-.362-1.43-.547-2.367-.922l-.232-.051-.226-.289-.589-.218c-.761-.687-1.143-1.033-1.905-1.729-.82-.869-1.231-1.306-2.051-2.185l-1.245-1.913-.147-.594-.293-.237-.585-1.347-.586-2.378-.585-2.302-.001-1.35c.117-.98.585-1.47.585-2.45v-1.267c0-.513-.16-.77-.072-1.284l.146-1.006-.074.041v-.396c1-.212 1-.318 1-.531v-.317c0-.11.167-.165.343-.276l.318-1.168.415-.279.207-.575 1.312-1.24.51-.107.364-.383c.791-.339 1.186-.512 1.976-.86.673-.314 1.01-.472 1.683-.793l.366.005.146-.204c.732-.182 1.098-.276 1.83-.466.879-.127 1.318-.193 2.196-.331.791-.187 1.186-.283 1.977-.479.908-.205 1.362-.311 2.27-.528.937-.117 1.406-.178 2.343-.306l1.61-.292c.791-.128 1.186-.194 1.977-.331.849-.033 1.274-.051 2.123-.093l.073-.228 1.171-.16.146-.218 1.171-.169c.82-.31 1.23-.468 2.05-.786l.952-.607c.674-.623 1.011-.936 1.684-1.565l.585-.734 1.464-1.05 1.391-.67.146-.225 1.025-.076 1.025-.318c.761-.007 1.142-.013 1.903-.027l.146.326.513.269.366.418.439 1.847.22.329.146 1.196-.366 1.008-1.611 1.801-1.61 1.631-.829 1.427c-.146.115-.17.173-.17.288v1.085l-.562-.018-.464 1.242-1.111 2.05-.263 1.168-.973 1.971-.743 2.384-.737 1.194-.515 1.531-.148-.015-.147.935-.439.27-.659 2.304-.082.704-.156-.016v.317l-.21-.025-.801 2.124-.29 1.153-.219-.026-.658 2.454-.146.536.219.581.586.783c1.025.122 1.538.179 2.563.288.849.027 1.274.038 2.123.056l1.025-.3 1.098-.537.366-.444.512-.195.439-.44.611-.118c.673-.677.782-1.016 1.782-1.698v-.316c1-.35.561-.525 1-.877l.244-.852.488-.602 1.013-2.078 1.019-2.241.508-.864c.146-.183-.272-.274.728-.457v-.396l-.219.007.696-2.334.421-1.72.321-.46.124-.865.354-.461.068-.472.144.005.145-1.103.365-.303.146-1.024 1.098-2.023.073-.631 1.025-2.189.878-2.276 1.318-1.954.366-.469.146-.473.439-.311.146-.552.805-.863 1.399-.864c.176-.031.74-.047.74-.078v-.159c0-.253.314-.379.724-.633l1.753-.644c.908-.135 1.286-.205 2.194-.348.996-.018 1.456-.03 2.452-.057l.714.295.503-.016c.674.232 1.34.346 2.013.574.527.233.647.349 1.647.58v.304c0 .141.384.212.764.352l.785.828.465.211 1.294 1.353.501.05 1.897 1.15 1.168 1.505.292.455.585 2.492-.146 1.04-.22.015-.073.48-.732 1.079-.293 1.049-.146.01-.22.489-.952.852-1.025.378c-.966.025-1.45.035-2.416.053l-.586-.05-.952-.51-1.544-1.513c-.234-.909-.447-1.364-.447-2.273v-.712c0-.31-.403-.465-.579-.776l-1.095-1.073-1.279-.676-.969-.055-1.253.344-.956.492-.954.884-.514.718-.806 1.907-.147.555-.22.239-.878 2.22-.805 2.375-.952 2.371-.297 1.185c-.142.128-.292.191-.292.316v.475c0 .947-.553 1.421-.875 2.367l-.694 1.654-.383.311-.302 1.262-.371.39-.222.946-1.318 1.871-.074.552-1.538 1.936-.147.549-1.684 1.84-1.464 1.917-.293.066-.366.457-.878.668-.293-.016c-.761.592-1.142.887-1.903 1.472l-.732.19-.513.362-1.171.233-.805.335-.366.525-.147.067zm-31.481-11.632l.439.109-.146-.59-.293-.073v.554zm4.979 27.841l.292.064v-.317l-.292-.064v.317zm1.098 2.057l.366.078.366-.319v-.158l-.585-.044-.146.285-.001.158zm1.391-2.955l.292.06v-.396l-.292-.06v.396zm1.977.948l.293.056v-.396l-.293-.056v.396zm1.317-6.083l.22.199.292-.025.146-.211-.22-.198-.366.091-.072.144zm1.977-5.184l-.073-.567-.22-.197-.146.528.22.197.219.039zm1.831-1.667l.146-.451-.512-.322v.396l.22.354.146.023zm1.171-8.36v-.712l-.366-.059-.146.214.073.329.22.194.219.034zm.659-2.033l-.146-.735-.512-.319v.554l.512.398.146.102zm.62-2.556v.316c0 .249-.12.374.056.622l.321-.238.124.112.099.734-.244.363.72.505.653.096.217-.365.381-.702c.146-.106.674-.159.674-.265v-.396c-1-.144-.837-.216-1.188-.362l-.374.047-.297.364-.29-.587c.088-.05.149-.076.149-.126v-.159l.617.006.089-.306-.724-.106-.875.423-.273.057.165-.033zm.038 4.082v.316l.146.102.22-.126-.073-.486-.146-.022v.158l-.147.058zm0 1.979l.293.044v-.554l-.293-.044v.554zm1.026 1.182l.512-.005.146-.454-.366-.053-.292.353v.159zm1.7-12.258c.117.523.236.784.236 1.307v.633c0 .135-.207.202-.383.336l-.199-.051c-.234.125-.418.188-.418.313v.396c0 .296-.358.443-.505.739l.37-.016.551-.551.129.733.504-.167.61-.514c.41-.103.341-.155 1.341-.26v-.396c0-.304-.541-.456-.687-.76l.133-.754-.153-.326-.26-.187.301-.228c.176-.04.667-.06.667-.101v-.317c-1 .047-1.199.07-1.814.113l-.423.058zm-.602 10.675v-.316l-.22-.269-.439-.063v.396l.146.258.366.052.147-.058zm.659-27.378l-.366-.209-.073.307.22.189.22-.128-.001-.159zm.219 24.254l.293.04.073-.148-.146-.258-.293-.04-.146.138.146.1.073.168zm.806-21.028l-.659.07.22.188.366-.109.073-.149zm-.366 12.458l.146-.297-.146-.257-.146.376.146.178zm0 4.671v.316l.219.108.146-.535-.22.05-.145.061zm1.39-18.659l-.878.124-.146.219v.396l.366.048.952.676v-.712l.293-.359.073-.624-.293-.036-.22.21-.147.058zm-.365 19.348l.512-.252v-.95l-.512-.065-.146.218.073.959.073.09zm.146-8.61l.439.847.073.643.952.038.073-.228-.22-.739.513-.176v-.316l-1.245-.311-.513.173-.072.069zm.512-12.838l.293.037.366.441.146.018.073-.387-.146-.256-.878-.267.146.414zm.147 4.134l.513-.095v-.158l-.293-.036-.146.219-.074.07zm2.05-.071l-.073.704-.366.274-.732-.245.22.501.952.507.146-.221.659-.005.805.8.073-.467-.147-.57-.439-.364-.292-.665.219-.134.22.182.366.039-.073-.404-.22-.182-1.171.266-.147-.016zm-1.025 6.451l.513-.177.146-.221v-.554l-.292-.034-.366-.281-.146.22.073.959.072.088zm.512-8.727l.146-.22-.146-.492-.366.036-.146.22.146.413.366.043zm-.146 10.037l.659.235-.073-.325-.22-.184-.366.116v.158zm.146-10.908l.585.068.22.183-.146-.887.564-.126c.263.251.93.377.93.627v.712c0 .029.124.043.388.071l.084-1.085-.434-.039-.254-.182-.31-.586-.374-.119-.59.092-.588 1.12-.075.151zm.513 12.963l-.22-.5-.292-.113v.317l.366.28.146.016zm1.098-5.973l-.439-1.156-.366-.437-.513-.138-.073.546.439.921.805.328.147-.064zm1.171-5.971l-.146.222-.512.183-.146.222v.396l1.098-.123.22-.69-.366-.195-.148-.015zm.513-3.193l-.22-.497-.293-.03.073.324.22.181.22.022zm-.293 33.376l.22.181.293-.05.146-.461-.366-.036-.293.208v.158zm.439-32.412l.366.036.513-.505-.513-.287-.512.028.073.641.073.087zm.879 3.094v-.317l-.513-.287-.146.223.439.36.22.021zm.805-3.645v-.554l-.512-.048.073.324.292.265.147.013zm.366 35.498l.293.026.146-.224v-.475l-.366.047-.22.217v.238l.147.171zm.952 30.561v-.475l-.293-.263-.366-.032.22.574.292.184.147.012zm-.512-34.321l.512.282-.073-.402-.22-.178-.146.225-.073.073zm.219 12.606l.513-.194.146-.462-.293-.183-.512.272v.396l.146.171zm1.318.664l.586-.033.366-.289v-.712l-.292.057-.586.825-.074.152zm.439 1.46l.366.187v-.316l-.366-.266v.395zm.22 3.58l.146-.543-.366-.187.146.645.074.085zm7.102-24.977l.366.729.146.006.22-.624-.22-.643-.366-.175-.293.62.147.087zm3.953-12.283l-.293-.088-.146.629.659.019.366-.386.146-.471-.366-.089-.366.386zm-.439 5.607l.292.009v-.396l-.292-.009v.396zm.951-8.602l.366.009v-.396l-.366-.009v.396zm.367 2.86l.512-.147v-.396l-.512-.171-.146.155.073.397.073.162zm9.59 37.173c.879-.076 1.318-.115 2.196-.198l1.831-1.472 1.245-1.464.512-.256 1.464-1.877 1.611-2.049.439-.496.146-.561.366-.177.09-.562c.263-.235.602-.352.602-.587v-.317l.203-.008 1.045-1.698c.146-.135-.248-.202.752-.337v-.396c0-.07-.182-.105-.064-.175l.041-.567.716-.997 1.127-2.132.856-.691.868-.06 1.166.549.656.98.145.543-.22 1.125-1.098 2.377-1.172 2.22-1.464 2.234-.512.745.198.559c-.205.171-.241.257-.241.427v.316c-1 .607-1.194.91-1.809 1.513l-.209.479c-.703.799-1.122 1.197-1.825 1.991l-.18.561-1.262 1.245-.228.564-.809.509-1.759 1.807-.807.581c-.908.44-1.362.658-2.27 1.091l-1.537.585-1.538.497c-.908.074-1.049.109-1.956.174-.849-.188-.81-.284-1.81-.479v-.158c-1-.066-.885-.099-1.265-.166-.674-.64-1.167-.961-1.84-1.605l-.298-.242-.186-.556-.313-.164-.732-2.467c-.117-.509.634-.764-.366-1.273v-2.375c1-.98.195-1.469.283-2.449l.471-2.445.821-2.439.374-1.102.37-.469.148-.869.953-2.205.806-2.368.366-1.264.439-.473.44-1.345.147-.95 1.025-2.218.805-2.458.293-1.189.732-1.589.22-.161.732-2.305.073-.555.806-1.992.219-.558.293-.164.366-.561.805-.414c.996-.118 1.494-.18 2.489-.307l1.318-.204 1.318.027 1.098.189.805.595.22 1.019-.805 2.334-.879 2.573-.952 2.336-.878 2.251-.513 1.126-.366 1.517-.22.166-.293 1.276-.805 1.925-.878 2.399-.366 1.197-.44.802-.219 1.113-1.025 2.316-.732 2.229-.513 1.195-.659 2.541-.439 2.538.073.633.22.235.22.631.585.705.144.075zm-8.785-40.955l1.171-.453v-.712l-.513-.563-.732.935v.633l.074.16zm3.001-3.518l-.073-.634-.146-.239-.293-.003-.146.236.073.318.439.321.146.001zm.66 42.357l-.806-.006.073.397.293.24.439-.393.001-.238zm-.66-8.317l.513.004-.073-.238-.439-.083-.001.317zm.806-39.971l.146.08.22-.158v-.316l-.22-.159-.146.078v.475zm1.684 38.92c.176 0 .264-.096.439-.223l.659.124.513.258.073-.384-.146-.547-.439-.232-1.61-.47c-.264.285-.396.475-.659.475h-.146s-.088.047-.146-.079l-.219.276.952.68c.234.064.351.123.585.123l.144-.001zm-1.684 7.39l.659-.155.22-.554-.586.077-.292.474-.001.158zm1.171-45.199h.366l.366-.475.073-.317-.22-.554-.22-.079-.512.871.073.396.074.158zm1.923 34.986l.386.078v.316l-.386.08-.413-.473-.499-.315-.836-.078-.307.475.212.554.509.316.511.078.511-.24.659-.084.219.156.659-.403.073-.238-.213-.789c.117-.191.3-.287.3-.479v-.237c0-.061-.271-.092-.447-.154l-.982 1.276.044.161zm-1.614 8.238c1 .253.292.38.468.633l.38.078.153-.159-.142-2.058-.364-.315.046.474c-.205.476.46.713-.54 1.188l-.001.159zm.497 2.294l.073-.634.146-.238-.366.08-.146.554.146.237.147.001zm.658-4.118l.366.156.146-.317-.293-.157-.146.239-.073.079zm.22 1.423v.396l.293-.081v-.475l-.146.001v.158l-.147.001zm.293-3.564l.878-.324.146-.239-1.025-.308.001.871zm1.538-13.315l-.513.719-.146.794.805-.01.659 1.178.366-.006.805-.728.952-.021-.073-.315-.293-.23-1.245.421-.732-1.65-.439-.152h-.146zm0 7.046l.146-.318-.073-.236-.439-.391-.146.239.073.553.293.155.146-.002zm.146-2.694l.22-.557-.073-.315-.292-.075-.146.793.291.154zm.146 2.294l.513-.008.22-.875-.366-.39-.293 1.113-.074.16zm1.171-2.157l.073-.239.293-.085.146-.399-.586.249-.073.397.147.077zm.293-6.101l-.293.797.366.864.439.149.146-1.27-.146-.551-.512.011zm4.027-5.65l-.073-.393-.439-.302.073.631.293.069.146-.005zM162.069 321.502l-1.61 1.708-1.904 1.755-1.61 1.226-.586.258-.512.482-.806.452-1.245.128-.219.273c-.937.186-1.406.279-2.343.461l-1.757.202-.146-.214-1.025-.155-1.098-.542-1.611-1.495-.439-2.467-.366-1.212-.146-1.166.146-1.764.22-.191.22-2.566.439-1.254.146-1.289.732-2.487.585-1.04.323-.656c.146-.181.543-.271.543-.453v-.316l-.031-.023.498-2.466.834-2.513.71-2.174.208-.273.068-.486.144-.023.218-.985.366-.534.146-1.29.805-2.505.073-1.279-.513-1.104-.732-.436c-.937.214-1.406.32-2.343.529l-1.464.94-.146.418-.439.146-1.977 1.723-.292.519-.513.313-.366.608-.439.223-.22.269-.073.406-.439.38-.073.407-.439.38-.732 2.321-.952 2.429.167.575c-.146.242-.053.363-.053.605v.317c0 .436-.577.654-.753 1.09l-.05.98c-.146.178-.197.267-.197.446v.554l-1 .525v.554c0 .475-.36.713-.595 1.188l-.151.89-.88 2.412-.88 2.569-.879 2.488-.879 2.328-.293.511-.366 1.55-.659 1.823-.366.44-.293 1.144-1.025 1.706c-.879.231-1.318.346-2.196.572l-1.098.36c-.966.012-1.45.016-2.416.022l-1.025.105-.513-.186-.439-.431-.293-1.555.22-.18.073-.561.952-2.311.878-2.386.22-.893.366-.434.585-1.25.44-2.343.366-.515.952-2.48.805-2.466.952-2.405.366-1.388.512-1.01.732-2.383.805-2.314.22-.66.22-.185.073-.563.366-.362.659-2.378.219-1.374-.219-1.159-.732-.621-1.171-.174-1.025.202-1.977 1.338-1.025.59-1.977 1.718-1.464 1.26-.073.482-.659.937-.439 1.152-.513.762-.146.568-.366.589-.585 2.351-.878 2.377-.879 2.454-.512 1.074-.805 2.444-.732 2.278-.388 2.112c-.176.172-.169.258-.169.431v.317c0 .233-.49.35-.637.583l-.721 2.262-.654 1.232-.253.966-.163.169-.228 1.283-.444 1.14-.514.907-.879 1.089-.953.854-.879.53c-.937-.006-1.406-.011-2.343-.025-.937.05-1.406.073-2.343.115l-.805-.202-.293-.384-.146-.548.293-1.991-.146-.785.586-1.054.878-2.414 1.025-2.424.659-2.25.952-2.505.219-.329.073-.558 1.025-2.355.806-2.266.512-1.695.146-.643.805-2.032.22-.885.22-.173.805-2.431.586-1.071.805-2.514.586-1.39.146-.882.219-.255.073-.56.439-.51.805-2.44 1.171-2.236.146-.567.22-.257.073-.481.512-.203.22-.336 1.171.131c.791.37 1.186.554 1.977.919l.549.353.477-.037v.158c0 .138.197.207.402.344.879.195 1.263.292 2.142.482l1.144-.603.865-.89.505-.296.363-.517.803-.49.425-.518.352-.035v-.158c0-.053.204-.079.38-.132.849-.482 1.244-.724 2.094-1.211l1.083-.614c.908-.18 1.354-.271 2.262-.455.908-.089 1.358-.135 2.266-.229l.291-.041 1.17.628.146.217.293-.042.366.423.513.164.146.533.439.332.439 1.124.659.853.293.115.952-.458 1.684-1.759 1.464-1.097 1.391-1.089 1.171-.503.366-.375 2.27-1.161 2.123-.589h2.343l1.515.249c.674.549.882.822 1.882 1.369v.317c0 .397.346.596.61.992.176.824.39 1.236.39 2.06v1.346c0 1.113-.456 1.669-.661 2.782l-.294 1.622-.257.118-.165.975-.302.289-.224 1.067-1.1 2.407-.514 2.067-.074.25-.146.025-.021.896c-.146.183-.241.275-.241.458v.396l-.244.025c-.263.963.244 1.445-.756 2.408v1.354l-.431.025-.801 2.169-.877 2.747-.914 2.521-.75 2.495-.229 1.778.435 1.115.364.494.805.421.585-.098 1.098-.739 1.977-1.762 1.684-1.875 1.684-2.195.805-1.013.585-1.133.366-.461.22-.593.805-1.094.892-1.121c.527-.791.697-1.187 1.697-1.979v-.396l-.232-.027-.117-.33.345-.476.612-1.703.635-1.071.867-.953.653-.359 1.022.048.877.707.292.42.073.778.146.21-.147 1.136-.806 1.813-.366.226-.073.489-.513.491-.732 1.64-.732 1.164-.073.568-.439.477-1.318 2.22-1.538 2.416-1.61 2.269-1.611 2.028-.073.172-.076.092zm-50.077-1.119l.585.436.22-.253-.659-.51-.073.084-.073.243zm1.172-1.504l.293-.495-.293-.217-.366.421.146.227.22.064zm0 3.8l.293.138v-.475l-.293-.059v.396zm.805-4.569l.513.201.366-.423v-.158l-.293-.137-.513.354-.073.163zm3.661-8.12l.366.128.146-.408-.366-.128-.073.244-.073.164zm2.489-4.885l.073-.719-.22-.218-.146.33v.475l.293.132zm.805-4.903v.316l-.366.113-.073.244.439.197v-.396l.513-.523v-.237l-.366.192-.147.094zm1.684-1.268l.659 1.044v-1.267l-.585.137-.074.086zm6.662 22.565v.317l.659.161.292-.588-.292-.124-.586.147-.073.087zm1.465-3.892l.366-.123.146-.255-.22-.37-.146.017-.146.493v.238zm1.317-4.829l-.439-.105-.073.325.293.123.22-.185-.001-.158zm-.512 2.199l.366-.044v-.316l-.366.044v.316zm1.684-5.906v.317l.146.14.366-.046.146-.177-.146-.536-.366.046v.158l-.146.098zm1.171-2.682l.293-.592v-.316l-.22-.051-.366.284v.554l.293.121zm.293 1.784v-.712l-.439.056.073.545.22.13.146-.019zm.512-16.215l.513-.305.146-.732-.513-.091-.293.829.147.299zm.367 6.047l-.513-.092v.316l.513-.067v-.157zm-.513 13.287l.293-.038.22-.504-.366.048-.146.336-.001.158zm3.002-11.639l-.366-.346-.491-.14c-.176.119-.198.178-.198.296v.316c0-.003 0-.005 1-.009v2.138c0 .123-.016.184.247.307l-.279.327-.688.158-.344.514-.685.087-.086.326-.738.492-.076.564.365-.127.804.131.292-.514.878-.434.366.029.366-.762-.073-.544.806-1.061-.073-1.256-.22-.84-.659.328-.148.02zm-2.709 6.456l.073.386.585.557v.396l.366.269.146-.178v-.316l-.293-.515-.073-.782-.146-.139-.585.235-.073.087zm2.709-13.105l-.366.524-.512.307-.22-.525-.293.118-.659.799-.146.652.146.298.659.388.073.703-.366.682.513-.306.293-.514-.22-1.078.292-.198.293.04.192.525c.117.111.265.166.265.277v-.158c1-.111.203-.167.32-.278l.234.445-.432.377-.07.326.514.088.147.297.074 1.336.366.425.879-.835.513-.072-.053-.307c-.205-.224.508-.337-.492-.561v-.633c0-.142-.196-.213-.313-.355l.063-.247.288-.12.144-.575-.806-.758-.147-.613.146-.337-1.098-.165-.221.028zm-2.196 7.971v.316l.512.17.366-.286v-.316l-.586-.081-.292.197zm1.171-8.704l.366-.049.22-.188.073-.405-.512-.09-.146.495-.001.237zm1.683 1.197v1.425l-.293.04-.292-.673.219-.663.22-.109.146-.02zm.66 5.767l-.073-.307-.293-.039-.293.278.513.088.146-.02zm.805-5.1l.512-.23v-.158l-.366.052-.146.336zm.512 1.907l.806.044.146-.258v-.633l-.586.321-.293.358-.073.168zm8.786 19.501l-.513-.156-.292.125.292.587-.146.26.292.825-.512.318-.146.498.293.112.439-.306.439-.703-.513-1.186.659-.104.732-.433.146-.261-.293-.112-.585.173-.292.363zm-.513 4.197l.366-.058v-.396l-.366.058v.396zm.659-7.466l.366-.058v-.396l-.366.058v.396zm1.025 5.774l.293-.047.22-.431-.513-.076v.554zm2.352-10.398c0 .16-.422.24-.627.401l-.204-.926-.541-.391-.453.466.066.701.582.776-.368.376.365.179.219-.59.22-.194.366.019.586.537.366-.06.292-1.315-.22-.914-.512-.391-.178.523c-.029.227.041.34.041.566v.237zm-1.181 3.164l.513-.321.146-.499-.146-.134-.513.162-.22.431.073.226.147.135zm.44-5.93l.292-.048v-.554l-.292.048v.554zm.366.811l.146.293.293-.048.22-.274v-.475l-.586.333-.073.171zm.659-14.99l.073.7.439.482.293-.128 1.245.267.626-.469.04-.055v-.317c0 .025-.406.037-.553.061l-.386-.505.027-.329.489-.64-.158-.292-.665.189-.881.78-.44.231-.149.025zm.146 8.604l.366-.06v-.396l-.366.06v.396zm0 1.979l.585.062.293-.445-.513-.073-.366.298.001.158zm.659-2.8l.293-.049v-.554l-.293.049v.554zm1.684-1.073l-.073-.305-.439-.401-.293-.03.22.517.439.243.146-.024zm.146-3.191v-.712l-.513.086.073.621.22.042.22-.037zm.659 1.868v-.712l-.805-.101.292.821.293.03.22-.038zm0 4.433l.22-.433-.732-.193.073.384.293.188.146.054zm-.293-1.692l.732.114.219-.116.146-.896-.293-.187-.146.262-.513.325-.146.262.001.236zm.659 3.292l-.073-.7-.293-.188-.073.567.293.346.146-.025zm.146-6.358v.396l.293.346.073.463.586.058.22-.355-.439-.32.293-.525-.513-.229-.293.05-.22.116zm1.318-5.608l.513-.88-.146-.766-.878.547-.146-.529-.293.05.146 1.004.732.508.072.066zM184.543 281.36l.512.217 1.098-.767 1.318-1.286 1.025-.437.513-.417 2.343-.853 2.27-.363 1.171.088 1.245.549.439-.006 1.318 1.01.073.461.366.325.512 1.721.366.324.439 2.132.073 2.598-.879 5.237-.512 2.633-.366 1.417-.293.611-.073.885-.586 2.014-.878 2.546-.952 2.481-.513 1.446-.439.798.366.562.513.296.585-.035 1.098-.61 1.977-1.572.879-.883.805-1.106 1.391-1.457.585-1.142.439-.56.146-.424.22-.121 1.245-2.298 1.098-1.794 1.903-.284.439.154.732.732.146 1.08-.073.727-.293.847-.732 1.089-.193.503c-.146.155.588.232-.412.387v.316c0 .851-.92 1.277-1.564 2.128l-.05.568-.867.96-1.239 1.981-.363.387-.292.056-.804.947-.586.192-.073.331-.732.459-1.464 1.313-2.05 1.19-2.343.931-2.123.889-1.391.429-.805.395-.952.819-1.757 2.163-1.538 1.565-1.757 1.37-1.611 1.183-.585.192-.22.28-2.123 1.121-2.124.644-2.708.435-2.343-.034-1.025-.284-.073-.145-.513-.063-.878-.787-1.025-.523-.366-.645-.255-.394c-.234-.4-.401-.601-.401-1.001v-.672l-.441.027-.294-.527v-.647l-.279-2.215c-.059-.148.014-.222.014-.369v-2.454c0-1.024-.109-1.536-.051-2.56l.414-2.627.317-2.442.268-1.716.353-.463.067-.568.803-1.652.072-1.122.218-.199.073-.647.513-1.124.22-1.069.146-.186.146-1.056 1.025-2.408.366-.622.146-.898.805-2.288.439-.478.073-.647.366-.465.293-1.876.146-.186.366-1.415.293-.926.146-.028.952-2.634 1.025-2.411.293-1.164 1.025-2.571.366-2.128.439-.559.659-2.343.585-1.3.22-.834 1.245-2.298.366-.387 1.245-.478 2.343-.296 1.244-.242.732-.38 1.484-.005c.205.087.752.13.752.217v.396l-.093-.029.027 1.159-.719 1.633-.323.69-.235.992-.593 1.143-.736 2.597-.222.597-.367.467-.733 2.755-.219.28-.073.648-.44.56-.732 2.359-.22.755.073.382.153.131zm-13.251 18.834l.22.117.292-.134.146-.502-.366.068-.293.292.001.159zm.146 3.693l.293-.055v-.317l-.293.055v.317zm.562 2.874v.871c0-.059.085-.088.231-.147l.372-.716.918-.02.496-.255.211-.437-.223-.117-.588.11-.294-.42-.366-.01-.074.33-.671.705-.012.106zm-.05 3.68l.293-.134v-.316l-.293-.104v.554zm0 5.225l.293-.055.146-.423-.439-.076v.554zm1.611-19.143l-.513.65-.073.726-.659.994-.22.595.513.22.292.341.146-.186-.073-.303-.439-.313.366-.781.22.117.659-.124-.073-.461.146-.582.732-.93-.805-.006-.219.043zm-.659 16.59l.146-.74-.439.082.146.685.147-.027zm.513-8.488l.513.062-.073-.303-.293-.182-.073.251-.074.172zm.805-3.397l.146-.265-.073-.303-.219-.117-.146.265.146.368.146.052zm.78 10.669c0 1.084-.441 1.625-.646 2.709l.08 1.002.845.942.935.532 1.163.015 1.24-.396 1.023-.75 1.024-1.068.658-1.156-.147-.842-.879-.86-1.83-1.312-.659-.824-.439-.312-.659-1.141-.659-.191-.513.334-.366.544-.159 1.243c-.059.549-.013.824-.013 1.373l.001.158zm-.414-8.363l.805-.548-.146-.843-.292.055-.366.465-.001.871zm2.343-6.223l-.073-.303-.293-.182-.146.265.073.224.22.037.219-.041zm.071-6.282v.317c0 .313-.182.469-.329.782l.531-.335.741-1.168.284-.331c-.176-.093-.228-.14-.228-.233v.396c0 .192-.507.288-.683.48l-.316.092zm.075 1.979l.146-.265-.146-.289-.146.028v.475l.146.051zm.293 2.399l.366-.07v-.316l-.366.07v.316zm1.684-6.576l.513-.336.146-.266v-.396l-.513.336-.146.503v.159zm6.296 18.893l.146-.583.659-1.078.659-1.87.219-.201.513-1.999.22-.281.805-2.532.805-2.452.366-1.18.073-.885.293-.849.366-1.971.146-2.799-.219-.907-.586-.836-.952-.685-1.098-.024-1.318.177-.952.502-1.025.753-.586.826-.22.043-1.391 1.377-.246 1.235c-.176.129-.027.193-.027.322v.396c-1 .086-.588.129-.705.215l-.426.596-.323.201-.345.61-.028.568-.174.042v.899c0 .44-.427.659-.573 1.099-.088 1.125.573 1.688-.427 2.813v2.375c1 .931.458 1.397.722 2.328l.763 1.997.382.088.154.526.37.484.441.232.367.484.366-.071.147.368.513-.02.586.282.732.096.439-.481.293-.136.076-.094zm-5.637-21.711l.366-.07.439-.401-.22-.512-.22-.116-.366.07-.146.266.073.619.074.144zm.659 3.674l.366-.07.146-.582-.366.07-.146.424v.158zm.805-12.03l.513-.336.146-.345-.293-.498-.366.15v1.029zm0 6.333l.513-.099-.073-.619-.22-.037-.22.517v.238zm1.171 1.516l.22.591.659.189-.22-1.065-.586.192-.073.093zm1.172 1.436l.513.059-.073-.303-.293-.181-.073.251-.074.174zm2.196 23.956l.073.619.292.497.439.311.512-1.208-.366-.641-.513.02-.293.216-.144.186zm.806-2.531l.146-.741-.366.15-.146.266.22.353.146-.028zm.951 2.19l.366-.625-.293.057-.22.28v.238l.147.05zm1.172-3.632l.073.302.513.137.878-.012.073.302-.22.914.22.353.293-.136.292-.373.073-1.202-.293.057-1.171-.643-.585.194-.146.107zm1.684-2.703l1.245-.322.073-.252-.805-.714-.512-.137.146.605-.146.662-.001.158zm0 6.808l.366-.071v-.317l-.366.071v.317zm.512-26.778l.513-.179.146-.662-.513-.137-.293.77.073.065.074.143zm.513 15.258l.512.058.293-.215v-.396l-.22-.194-.512.258-.073.331v.158zm.439-17.977l.146-.266v-.396l-.146-.209-.146.029-.146.504.146.209.146.129zm-.147 13.329l.366-.071v-.396l-.366.071v.396zm.806-10.053l.366.799-.146 1.058.146.447.512-.417.513-.891-.146-.288-.732-.411.439-.481-.073-.303-.585.035-.366-.324-.586.035.22.511.366.166.072.064zm-.44 2.935l.439-.402v-.396l-.293-.101-.22.122-.146.345.073.381.147.051zm0 10.608l.513-.179.146-.266v-.396l-.586-.044-.22.28.073.382.074.223zm.147-6.52l.22.511.439-.323.146-.503-.659.287-.146.028zm.513 3.858l.146-.741-.659.129.073.619.293.022.147-.029zm1.61-3.005l-.22.122-.732-.253-.22.202 1.025 1.779.806-.632.073-.331.292-.136.513.059-.336-1.116c-.205-.055-.482-.083-.482-.138v.95l-.177.108-.455-.469-.087-.145zm-.659-4.305l.293-.136.439-.561v-.633l-.22-.036-.512.337-.146.266.073.619.073.144zm2.379-.781c-1 .382-.948.573-1.446.955l-.467-.087.902 2.11.853-.171-.086-.382.213-1.23-.369-.087-.587.589-.221-.115.457-.626c.263-.115.75-.172.75-.287v-.316l.202-.057.32-.467.124-.899-.322-.138c-.205.072-.323.107-.323.179v1.029zm-1.867-5.097l.22.353.22 1.066.586.677.292.022.513-.495-.439-1.102-.585-.915-.439.007-.22.281-.148.106zm0 8.47l.293-.057v-.554l-.293.057v.554zm.147 1.001l.366-.071-.073-.303-.439.086v.159l.146-.029v.158zm.366 4.757v.317l.659-.049v-.554l-.512.258-.147.028zm1.83-8.035l.513-.1-.22-.432-.293-.022v.554zM224.589 271.647l.146-.184 2.343-.403.952.155.146.213 1.171.12.879.566.878.171 1.611 1.558.439.325.386.519c.117.044.459.067.459.111v.396c0 .103.053.155.199.258l.137 2.34.178 2.498-.167 1.29-.303.917-.371 2.196-.662 1.689-.367.455-.44 1.496-.367.218-.073.566-1.171 2.092-1.757 2.113-1.903 1.747-1.025.809-.366.142-.234.447c-.146.025-.307.038-.307.063v.158c-1 .432-1.333.649-2.182 1.083l-1.274.537-.6.104-.52.329-2.273.409c-1.874.403-2.813.607-4.687 1.019l-.294.134-.879 1.034-.22.595-.22 2.495.073 2.361.146-.027.146.527 1.318 1.575 1.098.668.732.26 2.489.02 2.416-.515 1.025-.421 2.27-1.35 2.197-1.411 1.61-1.621.366-.062.146-.341.293-.049.805-1.086.659-.347.732-1.151.659-.425.513-.876.952-.947 1.391-2.203 1.464-2.211 1.391-2.196.952-1.492.586-1.119 1.245-.267 1.025.006 1.025.879.293.986-.439 1.647-.439.539-.22.666-.732.979-1.318 2.256.007.565c-.322.397.274.596-.726.994v.396c-1 1.654-2.013 2.482-3.301 4.143-1.201 1.489-1.841 2.234-3.041 3.729l-.972.79-.156.261-.518.165-.442.548-1.831 1.654-.294.129-.223.537c-.146.025-.222.037-.222.062v.159c0 .207-.847.31-1.315.518l-.218.263-1.207.44-2.214 1.098-.302.131-.151.264-2.394.735-.198.026v.158c0 .185-.961.277-1.635.463l-.488.331-2.404.206-1.092.204-1.827-.291-1.17.061-2.196-.693-.879-.387-.439-.391-.586-.125-.293-.657-.366-.088-.146-.526-.952-1.242-.586-2.104-.293-2.477-.146-2.426.219-2.575.293-1.323.073-1.281.513-2.394.659-2.422.073-.964.146-.186.293-1.164.878-1.909.878-2.225.366-.703.146-.582.439-.4.293-1.005.146-.028 1.098-2.266.366-.544.219-.675 1.611-1.965.878-.955 1.538-2.106.586-.82.878-.637 1.025-.979.805-.463.366-.542 1.098-.753 2.196-1.105 2.27-.558.736-.126zm-17.571 34.251l-.439-.075-.073.331.22.116.293-.214-.001-.158zm.293 2.635l.366-.07v-.396l-.366.07v.396zm.146-9.685l.366-.07v-.712l-.366.07v.712zm.22 4.391l.439.075-.073-.303-.22-.116-.146.344zm.952-5.564v.317l.513.14.366-.306v-.317l-.732.059-.147.107zm.512 5.286l.073.619.952.137.146-.977-.146-.131-.439.321-.439.004-.147.027zm1.83-8.894v.317l.146.052.22-.516-.22-.117v.158l-.146.106zm.806-3.397l.878-1.352.146-.502-.513-.063-.585.189-.22 1.308.146.369.148.051zm.146 1.239l.366.09.146-.423-.293-.104-.146.265-.073.172zm13.105-12.422l-1.245.137-1.684.929-.439.157-1.611 1.791-.292.052-1.538 2.257-1.245 2.364-1.098 2.338.135.409-.012.04v.317l-.355.027-.177.567-.93 2.142-.099.567.5.618.432.156c1.084-.2 1.622-.299 2.706-.495l.877-.238.439-.475.585-.263 1.537-1.225.146-.263.439-.157 1.537-2.17.806-1.644.952-2.461.878-2.684.146-1.767-.805-.811-.585-.215zm-10.396 5.427l.732-.373.22.039v-.554l-.585.187-.366.542-.001.159zm2.489-2.04l.146-.343-.146-.369-.22.04-.146.265.146.369.22.038zm8.566-7.617l.512.07.22-.434-.585.021-.147.343zm2.05 2.658v-.396l-.146-.213-.366-.017.073.621.293.029.146-.024zm1.464 6.957l-.146-.451-.366-.018.073.304.293.189.146-.024zm-.366-2.076l.366-.061v-.712l-.366.061v.712zm.22-8.349l.22.121.292-.128.146-.262-.293-.109-.366.219.001.159zm1.464 6.406l-.439-.086-.073.329.293.11.22-.195-.001-.158zm.366-.931l.586-.175.585-.571-.585-.142-.952.078v.396l.292.268.074.146zM261.852 297.699l1.391-2.111.585-1.162.806-1.101.146-.567.366-.191.073-.481.659-1.007.879-1.736.146-.646 1.318-2.164.439-.35.952-.151 1.171.549.952 1.201-.073 1.192-1.234 2.456c-.146.232.571.348-.429.58v1.057l-.267.011-.133.56-1.312 1.933c-.176.267-.288.4-.288.668v.238c-1 .863-.929 1.295-1.427 2.16l-.969 1.262-.485.909-.901 1.028-.158.647-.664.694-.735 1.177-1.831 1.761-1.831 1.692c-.879.662-1.318.994-2.197 1.661l-.512.294c-.908.102-1.362.154-2.27.261l-1.757.607c-.879-.114-1.318-.171-2.196-.28l-1.098-.413-.805-.765-.732-.457-.073-.465-.366-.347-.659-2.523-.146-.217-.146-2.592.439-2.514.513-2.523.585-2.532.586-2.215.439-.533.513-1.65.146-.098.732-2.468 1.025-2.504.22-.978.146-.176.22-1.056.073-1.355-.366-1.063-1.611-1.617-.952-.51-.805.264-1.025 1.482-.22.901-.22.267-.805 2.326-.366.525-.952 2.27-.36 2.002c-.146.147.006.221.006.369v.396l-.518.021-.332.575-.459.369-.192.575-.463.301-.231.665-.664.413-.735.187-1.026-.322-1.099-1.417.146-1.131.878-2.191 1.171-2.154.373-1.094c.088-.108.153-.162.153-.27v-.316c1-.009.155-.013.213-.021l.253-.982.456-.539.082-.486.883-2.185.588-1.113.513-1.339.074-1.198-.219-1.315-.366-.423-.366-1.135-.439-.333-.146-2.433.513-2.686.513-1.181 1.098-1.737.878-.834.366-.684.512-.228.513-.782.805-.424 1.318-.252 1.098.176.513.331.073.228 1.025.506.878.763.293.915-.659 2.455-.96 2.185c-.146.43-.301.645-.301 1.075v.317c0 .41.331.616.594 1.026l.553.482 1.082.5 1.896 1.676.435.424.291.046.365.434.512.181 1.537 1.733 1.391 1.991.366.992.146 1.331-.146.727.146.46-.439 2.578-.366 1.146-.585 1.249-.073.562-1.025 2.485.124 1.298.197.024v.316c-1 .9-1.032 1.35-1.442 2.251l-.355 1.283-.251.017-.272 1.292-.904 2.476-.16 2.788.433.899.948.604.73-.002 1.903-1.552 1.683-1.995 1.318-2.19.073-.165.141-.101zm-13.251 2.229l.22.13.293-.117.146-.256-.293-.12-.366.206v.157zm1.61 4.067l-.073-.545-.22-.13-.146.652.22.051.219-.028zm-.293-8.908l.293-.037v-.317l-.293.037v.317zm.806-2.24l.366.113.146-.335-.366-.112-.146.334zm.805 11.932l.22-.423-.22-.844-.366.045-.366.442.22.764.293.043.219-.027zm.22-8.101l.292.122.146-.335-.293-.201-.073.246-.072.168zm.659-6.176l-.366-.113-.146.176.293.201.146-.097.073-.167zm.659 8.153l.292-.193-.366-.669.073-.405-.513.062-.073.484.439.659.148.062zm.952-3.676l-.22-.528-.22-.133-.366.044.293.598.366.115.147-.096zm-.147-6.474l.146-.571-.146-.141-.366.122-.146.255.293.361.219-.026zm.659 3.169l-.146-1.566-.512-.178-.146 1.284.293.441.366.036.145-.017zm0-12.349v-.317l-.22-.212-.292.034-.146.175.293.362.365-.042zm-.512 13.28l.292.045.22-.422-.146-.378v.158l-.366.438v.159zm.365 1.065l.293-.034v-.396l-.293.034v.396zm.806-7.297l.805.146.293-.508.073-1.037-.513-.259-.073.8-.585.779v.079zm.366-5.742l.659-.233-.146-.696-.513-.18-.146.254.073.783.073.072zm1.098.906l.366-.04.146-.491-.513.057.001.474zm1.391 3.094l.293-.031v-.317l-.293.031v.317zM283.082 250.347l.22-.164c.908-.056 1.362-.083 2.27-.131 1.025.044 1.537.068 2.562.123l.22-.002.659.471.366.869-.22 1.109-.439 1.19-.073.713-.439 1.033-.293 1.19-.292.399-.366 1.588-.293.399-.878 2.626-.22.241-.878 2.233-.366 1.116-.366.404-.073.872-.219.56-.22.164-.146 1.27-.439.724-.073.398-.219.164-.879 2.402-.22 1.195-1.098 2.017-.512 2.552-.805 1.932-.952 2.416c-.703 1.931-1.054 2.898-1.757 4.834l-.878 2.342-.586 1.932-.22.25-1.464 4.203-.392 2.327c-.088.544-.099.816-.099 1.36v.95c0 .186-.032.279.026.466l.892.891.409.212 1.083-.221 1.091-.533 1.387-1.256.437-.258.585-.738.439-.177 1.025-1.545.512-.415.586-.97.878-.741.293-.8.805-.893 1.318-2.091.22-.242.073-.477.366-.166.146-.557.366-.165.146-.953.366-.322.146-.556.293-.162 1.171-2.23.659-.401 1.245-.005 1.098.634.512 1.11.146 1.188-.439 1.186-1.245 2.057-1.317 2.143-.293.556-.22.16-1.025 2.227-.22.162.311.317c-.263.162-.274.243-.274.406v.316c-1 .738-1.307 1.108-1.922 1.85l-1.73 1.938-1.707 1.87c-.674.656-1.059.985-1.732 1.645l-1.854 1.345-.744.272-.518.421-.516.184-.44.419-1.172.461c-.849.207-1.275.312-2.124.526l-.732-.111-.147-.148c-.966.065-1.45.1-2.416.172-.761-.26-1.142-.388-1.903-.643l-.147-.305-.952-.554-1.098-1.41-.073-.864-.293-1.003-.513-.984-.073-2.606.512-2.42.366-2.328.805-2.524.805-2.443 1.025-2.3.513-2.653.586-1.075.805-2.198.732-2.191.732-2.505.878-2.276 1.757-4.703.073-.321.22-.171.366-1.288.878-2.346.952-2.347.806-2.337.732-2.49.805-1.541.732-1.931.146-1.114.146-.006.586-1.844.952-1.618.374-.411c.234-.04.52-.059.52-.098v-.158c1-.105.549-.158.871-.262l.211-.004zm-15.081 50.295l.952.005.366-.265-1.025-.634-.22.096-.073.639v.159zm.512 2.255l.073.311.585-.045.146-.328-.22-.142-.366.186-.218.018zm2.123-4.273l.586-.12.292-.653-.22-.144-.512.273-.146.485v.159zm3.515-11.866l.073-.163-.22-.224-.512.268.439.132.22-.013zm-.513-6.064l.659-.119.512-.662-.146-.705-.513.03v.396l-.513.901.001.159zm1.171 2.622l.22.146 1.098-.06v-.316l-.219-.147-.732-.039-.366.258-.001.158zm1.026-6.152l-.146.325.073.233.732.516v-.712l.146-.245-.586-.286-.146.087-.073.082zm2.123-7.785l.512.135.293-.171v-.396l-.585.106-.22.168v.158zm2.489-5.487l.585-.101.073-.477-.512-.14-.146.48v.238zm2.123-4.347l.366.464-.146.4.146.313.366-.01.22-.164.22-1.431-.586-.301-.366.248-.22.481zM307.607 265.587l.146-.148c.937.07 1.406.108 2.343.188l.952.401.146.251 1.172.427.878.799.878.407 1.611 1.997.439.446.377.58c.117.077.45.115.45.193v.396c0 .144.062.216.209.36l.141 2.401.18 2.56-.166 1.249-.302.835-.371 2.094-.662 1.506-.367.354-.44 1.376-.367.118-.073.546-1.171 1.776c-.703.656-1.054.986-1.757 1.648-.761.498-1.142.749-1.903 1.254l-1.025.548-.366.05-.243.373-.316-.028v.158c-1 .221-1.324.333-2.173.563l-1.27.239-.598-.034-.519.208c-.908-.05-1.365-.073-2.273-.113-1.874-.021-2.813-.022-4.687-.005l-.294.073-.879.852-.22.55-.22 2.45.073 2.376.146.003.146.557 1.318 1.85 1.098.901.732.418c.996.223 1.494.337 2.489.57.966.01 1.45.018 2.416.039l1.025-.18c.908-.326 1.362-.487 2.27-.804.879-.351 1.318-.524 2.197-.866l1.61-1.211.366.032.146-.303.292.026.806-.875.659-.174.732-.956.659-.248.513-.737.952-.687 1.391-1.818 1.464-1.799 1.391-1.798.952-1.216.586-.947 1.245.101 1.025.313 1.025 1.19.293 1.076-.439 1.513-.439.406-.22.599-.732.759-1.317 1.864-.002.544c-.322.302.265.454-.735.757v.396c-1 1.277-2.004 1.921-3.292 3.219-1.201 1.151-1.836 1.731-3.037 2.899l-.97.533-.155.222-.517.028-.442.431c-.732.467-1.099.702-1.831 1.175l-.294.053-.232.443-.231-.031v.159c0 .087-.838.131-1.306.221l-.214.226-1.205.149c-.879.221-1.335.334-2.213.564l-.301.061-.151.229c-.937.07-1.466.108-2.403.187l-.207-.007v.158c0 .03-.952.047-1.626.082l-.484.217c-.966-.133-1.435-.197-2.402-.321l-1.091-.029c-.732-.271-1.094-.405-1.826-.671l-1.17-.176c-.879-.454-1.317-.679-2.195-1.124l-.878-.555-.439-.475-.586-.235-.293-.711-.366-.156-.146-.553-.952-1.416-.586-2.209-.293-2.529-.146-2.452.219-2.536.293-1.271.073-1.268.513-2.302.659-2.302.073-.95.146-.159.293-1.11.878-1.746.878-2.059.366-.633.146-.554.439-.369c.117-.379.176-1.002.293-1.002h.146c.439-1 .659-1.176 1.098-1.995l.366-.444.22-.617 1.61-1.63.878-.769 1.538-1.778.586-.693.878-.445 1.025-.752.805-.282.366-.459 1.098-.501c.879-.241 1.318-.359 2.196-.591.908-.009 1.362-.01 2.27-.01l.738.052zm-17.571 30.412l-.439-.158-.073.317.22.158.293-.159-.001-.158zm.293 2.691h.366v-.396h-.366v.396zm.146-9.657h.366v-.712h-.366v.712zm.22 4.433l.439.159-.073-.317-.22-.159-.146.317zm.952-5.381v.317l.513.24.366-.234v-.317l-.732-.084-.147.078zm.512 5.387l.073.634.952.325.146-.948-.146-.16-.439.233-.439-.083-.147-.001zm1.831-8.531v.317l.146.081.22-.472-.22-.162v.158l-.146.078zm.805-3.232l.879-1.17.146-.472-.513-.169-.585.068-.22 1.263.146.398.147.082zm.146 1.269l.366.165.146-.393-.293-.165-.146.235-.073.158zm13.105-9.442l-1.245-.17-1.684.521-.439.052-1.611 1.412-.292-.015-1.538 1.905-1.245 2.084-1.098 2.096.126.393-.021-.008v.317l-.346-.005-.173.551-.928 1.952-.098.552.5.728.433.251c1.084.036 1.622.056 2.706.105l.877-.038.439-.374.586-.128 1.537-.863.146-.228.439-.052 1.537-1.798.806-1.446.952-2.224.878-2.463.146-1.73-.805-1.015-.585-.362zm-10.396 3.016l.732-.215.22.086v-.554l-.585.06-.366.463-.001.16zm2.489-1.496l.146-.31-.146-.402-.22-.009-.146.232.146.401.22.088zm8.566-5.585l.512.199.22-.378-.586-.127-.146.306zm2.05 3.18v-.396l-.146-.251-.366-.111.073.64.293.105.146.013zm1.464 7.34l-.146-.489-.366-.114.073.323.293.266.146.014zm-.366-2.173l.366.035v-.712l-.366-.035v.712zm.22-8.291l.22.179.292-.051.146-.223-.293-.187-.366.123.001.159zm1.464 6.795l-.439-.203-.073.31.293.188.219-.136v-.159zm.366-.833l.586-.017.585-.411-.585-.301-.952-.179v.396l.293.347.073.165zM342.308 309.325l.513.372c.849-.251 1.274-.374 2.123-.615l.366-.373c.849-.333 1.274-.497 2.123-.819l.366-.447.512-.086.805-.708c.732-.38 1.098-.568 1.831-.94.615-.567.923-.849 1.538-1.409.644-.583.966-.873 1.61-1.449l1.391-1.507.659-.722.281-.291c.146-.107.574-.161.574-.268v-1.086c1-.276.488-.414.781-.689l.683-.949.818-.496 1.152.382c.176.129.566.194.566.324v.158c1 .377.494.566.904.946l.525 1.177-.104 1.238-.747 1.142-.887.614-.223 1.026-.441.31-.294.682-.147-.054-.073.29-.44.233-.22.394-.732.446-1.391 1.483c-.615.544-.923.817-1.538 1.367-.673.467-1.01.702-1.684 1.176-.674.506-1.01.76-1.684 1.273-.732.336-1.098.506-1.83.85l-1.025.321-.585.537c-.791.334-1.186.504-1.977.848l-.586.072c-.791.284-1.186.428-1.977.722-.82.254-1.23.384-2.05.648l-.732.13-.512.267-.659-.005c-.644.507-.966.762-1.61 1.275l-.513 1.701-.439.611-.701 2.033c-.293.662-.628.994-.628 1.657v.317c0 .271-.411.407-.616.679l-.125.538-.392.316-.233.745-.592.667-.15.523-.441.224-.074.302c-1.113 1.352-1.67 2.033-2.783 3.402l-.659.587-.366.011-.22.355-.512-.015-.439.396c-.82.296-1.23.446-2.05.751l-1.025.305c-.879-.016-1.318-.022-2.196-.028-.996-.214-1.494-.318-2.489-.519-.908-.411-1.362-.613-2.27-1.013l-.586-.232-.146-.255-.952-.669-.952-1.139-1.171-2.188-.293-.981-.22-2.556.073-.705.732-1.821.585-1.043.805-.858.22-.529c.703-.583 1.054-.873 1.757-1.449l.22-.289.512-.092.805-.844c.791-.338 1.186-.504 1.977-.834.879-.348 1.318-.52 2.196-.858.879-.243 1.318-.362 2.196-.596l.293-.03.439-.4c.849-.234 1.274-.349 2.124-.573l1.215-.457c.615-.644.801-.965 1.801-1.604v-.712c0-.144-.395-.216-.483-.36l-.644-.337c-.732.239-1.164.36-1.896.606l-.546.303-.895.082-.228.279c-.849.011-1.278.018-2.127.039l-1.32-.209c-.937-.304-1.407-.453-2.344-.745l-.513-.31-.074-.248-.366-.051-.806-.98-.293-.039-.366-.444-.073-.326-.366-.522-.219-.82-.146-.019-.879-2.484.22-.923-.22-2.797.439-2.4.036-.624.109-.14v-.712c1-.052.17-.079.257-.131l.458-1.369.376-.348.298-1.782.808-1.951.733-2.194c.761-1.73 1.143-2.594 1.904-4.316l.805-2.252.659-2.114.219-.203.22-.836.146.023.375-.463c.176-.162.741-.242.741-.404v-.316c0-.198-.082-.297.064-.494l.435-1.961.437-1.892.495-.291c.088-.017-.431-.025.569-.041v-.396l-.24.025.23-1.202.01.026v-.317c1-.413.47-.618.822-1.029.791-.078 1.157-.115 1.948-.184 1.201.263 1.787.4 2.988.683l1.237.424.893.494c.41.471 1.113.707 1.113 1.18v.712c0 .592-.574.888-.896 1.481l-.412 1.502-.389.474-.152 1.045c-.117.133-.151.2-.151.333v.316c0 .108-.285.162-.372.27l-.241.602c-.117.165-.387.247-.387.412v.317c0 .128-.202.191-.348.319l-.064.855-.948 2.179-.73 1.515-.731 2.151-.585.915-.732 2.236-.358.999c-.293.928-.504 1.392-.504 2.32v.316c0 .734-.711 1.101-1.033 1.836l-.48.331-.789 2.328-.688 2.422-.087 1.334.359 1.486.582.654 1.023.337c.791-.114 1.185-.168 1.976-.273l.365-.406.586-.205 1.538-1.754 1.025-.661.146-.524.878-.686 1.245-1.867.293-.727.439-.377.146-.6.952-1.128.439-.689.146-.599.585-.574.293-1.117.659-.949.22-1.055.439-1.079.22-.025.439-1.157.22-.103.439-.917.585-2.224.586-1.114.366-1.724c.761-1.635 1.142-2.45 1.903-4.076l.439-.986.512-2.073.732-.662 1.025-.098c.879.258 1.318.39 2.196.66l1.391.355.586-.051 1.391.689 1.148.841c.205.354.562.531.562.886v1.029c0 .884-.621 1.327-1.001 2.213l-.684 1.602-.964 1.906-.812 2.117-.882 2.019-.295.463-.22.09-.44.894-.366 1.867-.879 1.873-.878 2.036-.952 2.099-.878 1.967-.878 2.13-.878 1.977-.806 2.159-.219.259-.22 1.209-.806 1.373.146.671.146.117.079.173zm-15.886 9.349l-1.025.226c-.879.3-1.318.452-2.197.762-.644.314-.966.472-1.61.792l-.146.296-.513.165-.366.583-.439.335-1.025 1.843.146.969.366.682.805.663 1.318.185 1.098-.314.805-.432 1.611-1.566.659-1 .22-.597.366-.334.878-1.512.22-.911-.22-.434-.513-.326-.073-.171-.219.042-.146.054zm-5.638-15.751l.292.041v-.316l-.292-.041v.316zm2.636-10.381v-.316l-.366-.452-.146.295.292.44.22.033zm.805 3.529l.146-.135-.073-.249-.22-.114v.396l.147.102zm1.318-.659l.146-.213-.073-.328-.219-.195-.146.214.146.419.146.103zm.219-9.305l.732.439.366-.333v-.238l-1.464-.245.219.353.147.024zm-.365 4.293l.805.054v-.316l-.805-.133v.395zm.658-2.582l.366.062-.073-.329-.439-.153.146.262v.158zm3.148-11.321l.513.095v-.554l-.513-.095v.554zm.806 43.689l.878.406.22-1.304-.22-.122.073.252-.366.325-.512.14-.073.144v.159zm1.171 7.27l-.513-.337.073.331.439.164.001-.158zm-.293-9.794l.293.057v-.316l-.293-.057v.316zm.147 6.678l.512-.137v-.316l-.366-.547-.146-.029-.146.209.146.583v.237zm1.171-8.159l-.22-.202.073-.698-.659-.131-.073.381.292.533.293.217.22-.036.074-.064zm-.659 1.135l.22.202 1.025.127.073-.222-.146-.347-.878-.652-.293.337-.001.555zm.659-9.368l.659.134-.073-.41-.22-.203-.366.243v.236zm.293 10.984l.219.282.513.184.366-.24.073-.539-.513-.265-.586.434-.072.144zm2.489-4.703l-1.244-.424-.22.112.056.649c.176.29.421.435.421.726v.396c0 .02-.29.03-.495.051l-.064-.649-.435-.17.075.411-.219.905.147.268.366-.004.439-.225.446-.492c.234-.14.739-.21.739-.35v1.068h.06c.088 0 .132.223.22.306l.397.573.323.082v-1.2189999999999999c1-.099.548-.148.958-.245l.113-.441-.31-.225-.301.33-.883.042-.149-.111-.074-.332.805-.06-.073-.966-.293-.144-.659.093-.146.045zm-1.977 6.786l.293.219.366-.082v-.238l-.22-.204-.366.082-.073.223zm.513-2.981l.366.235.146-.286-.366-.236-.146.287zm.659-14.19l-.439-.251-.073.301.292.22.22-.112v-.158zm.146 5.415l.366.078.146-.523-.293-.063-.22.349.001.159zm1.318-1.852l.146-.205-.293-.54v-.396l-.659.015.439.887.22.206.147.033zm1.538-3.216l.292.78-.146.124-.512-.276-.22.029-.439.693-.512-.351-.146-.27-.36-.159-.14.126v.396c1 .393.521.59.872.984l.509.352.291.541-.147.996.293.383.366.084c.732-.244 1.098-.363 1.83-.599l.146.352.073.889.22.291-.146.598.366.327.22-.817-.146-1.382.073-1.011-.366-.564-.659-.555-.073-.651-.22-.131-.512.275.115.486c-.205.079-.104.118-.104.198v-.396c0-.496.075-.744.397-1.238l.308-.037.044-.519-.344-.861-.685-.155-.379 1.023-.159.045zm-1.831 7.584l.073.649.513.192.366-.314v-.317l-.219-.207-.586-.051-.147.048zm1.172-1.639l-.22.663.513.433.293.067 1.055-.43c.263.03.835.045.835.077v1.583c0-.039.175-.058.41-.097l.497-.887-.117-.334-1.047-.644-.091-.176c.146-.155.348-.233.348-.387v-.396c0-.067-.213-.1-.359-.167l-1.314.483-.364-.48-1.317-.771.074.412.732.876.072.175zm.805-9.157l-.292.803-.513-.671-.366-.082-.293 1.122.073.333.219.208.879-.514.366.321.586-.101.366.086.146.351.293.07.366.642.31 1.302c.146.162.529.243.529.405v.712c0 .036.056.054.202.09l.211-.323.44-.755.147-.116v-.316c-1-.114-.642-.171-.847-.285l-.314-.432.502.144.178-.104-.387-1.278-.669-1.349-.664-.317.437-.607-.075-.176c-.674.312-1.011.47-1.685.789l-.145.048zm.512 11.36l-.366.311.073.571-.512.594.298.084c.293-.217.665-.326.665-.542v-1.267c0-.091-.108-.136-.225-.227l-.039.3.106.176zm.147 2.409l.366.086v-.396l-.366-.086v.396zm2.855-16.722l-.659-.798-.513-.126-.219.263.952 1.342.146.749.439.427-.146-1.145.146-.122.439.428.073.415.805.603.366-1.171-1.098-.76-.586-.149-.145.044zm-.659-5.311l-.513-.363-.073.14.146.274.366.011.074-.062zm.293 4.19l.146-.201-.073-.256-.22-.134v.475l.147.116zm1.318-.221l-.439-.429-.366-.172-.073.378.146.274.366.252.293-.163.073-.14zm-.659 4.978l.439.903.366.253-.146-1.304-.366-.49-.146-.037-.146.517-.001.158zm2.489-5.764h.293l.22-.257-.439-.04-.073.139-.001.158zm.366-1.326l.366.02.366-.296-.073-.495-.512-.456-.366.693.219.534zm.659 2.713v-.396l-.146-.198-.512-.139v.316l.512.377.146.04zm.44-11.357l.366.102.366-.293v-.158l-.512-.302-.22.414v.237zm1.024 1.474l.366.342.805-.164.073-.691-.22-.222-.146.274-.512.011-.366.291v.159zm1.465-5.119l-.073.216-.806.163v.475l.586.09.805-.238v-.317l-.366-.345-.146-.044zm-.147 7.161l-.439.189v.158l.22.064.293-.232-.074-.179z"/></g><path fill="#fff" d="M235.635 198.116l-86.913 24.272 9.488 15.756-9.488 19.972 86.913-24.272-11.385-14.144 11.385-21.584zm-58.635 27.871l-5 1.392v16.935l-4 1.253v-16.935l-5 1.392v-4.422l14-4.037v4.422zm21 11.305l-5 1.261v-7.827l-7 2.088v7.827l-5 1.253v-21.357l5-1.253v9.078l7-2.088v-9.078l5-1.261v21.357zm19-22.327l-10 2.809v4.336l9-2.702v4.451l-9 2.702v3.666l10-2.809v4.452l-15 4.053v-21.327l15-4.053v4.422z"/></g></svg>