<?xml version="1.0" encoding="utf-8"?>
<!-- Generator: Adobe Illustrator 17.0.0, SVG Export Plug-In . SVG Version: 6.00 Build 0)  -->
<!DOCTYPE svg PUBLIC "-//W3C//DTD SVG 1.1//EN" "http://www.w3.org/Graphics/SVG/1.1/DTD/svg11.dtd">
<svg version="1.1" xmlns="http://www.w3.org/2000/svg" xmlns:xlink="http://www.w3.org/1999/xlink" x="0px" y="0px" width="384px"
	 height="550px" viewBox="0 0 384 550" enable-background="new 0 0 384 550" xml:space="preserve">
<g id="Borders" display="none">
	<g display="inline">
		<rect fill="#5D5D5D" width="384" height="550"/>
	</g>
</g>
<g id="Labels">
</g>
<g id="Names">
	<g>
		<path fill="#FFFFFF" d="M94.549,219.783l-3.855,23.74H84.2l3.855-23.74c0.405-2.435-1.218-4.261-3.45-4.261
			c-2.435,0-4.666,1.826-5.072,4.261L62.895,324.485c-0.406,2.435,1.218,4.261,3.652,4.261c2.232,0,4.464-1.826,4.87-4.261
			l4.058-26.176h6.493l-4.058,26.176c-1.015,5.884-6.493,10.754-12.378,10.754s-9.942-4.667-8.928-10.754l16.639-104.702
			c0.812-5.885,6.29-10.552,12.377-10.552C91.302,209.231,95.36,213.898,94.549,219.783z"/>
		<path fill="#FFFFFF" d="M128.635,209.84h6.493L115.445,334.63h-6.493l5.275-34.089h-7.305l-5.275,34.089h-6.493l5.275-34.089
			h-3.652l1.015-6.291h3.652l13.393-84.411h6.493l-13.393,84.411h7.305L128.635,209.84z"/>
		<path fill="#FFFFFF" d="M153.184,209.84h6.493L139.995,334.63h-6.493L153.184,209.84z"/>
		<path fill="#FFFFFF" d="M199.242,219.783l-3.855,23.74h-6.493l3.855-23.74c0.405-2.435-1.218-4.261-3.45-4.261
			c-2.435,0-4.666,1.826-5.072,4.261l-16.639,104.702c-0.406,2.435,1.218,4.261,3.652,4.261c2.232,0,4.464-1.826,4.87-4.261
			l4.058-26.176h6.493l-4.058,26.176c-1.015,5.884-6.493,10.754-12.378,10.754s-9.942-4.667-8.928-10.754l16.639-104.702
			c0.812-5.885,6.29-10.552,12.377-10.552C195.995,209.231,200.054,213.898,199.242,219.783z"/>
		<path fill="#FFFFFF" d="M224.602,334.63h-6.29l3.044-33.886h-9.537l-7.508,33.886h-6.29l7.913-33.886h-3.449l1.015-6.493h3.652
			l19.683-84.411h8.319L224.602,334.63z M221.964,294.251l6.493-67.772l-15.219,67.772H221.964z"/>
		<path fill="#FFFFFF" d="M281.009,219.783l-3.855,23.74h-6.29l3.855-23.74c0.202-2.232-1.015-4.261-3.653-4.261
			c-2.435,0-4.464,1.826-4.869,4.261l-16.639,104.702c-0.406,2.435,1.217,4.261,3.652,4.261c2.435,0,4.464-2.029,4.869-4.261
			l3.45-22.726h-4.262l1.015-6.291h10.755l-4.667,29.017c-0.812,5.884-6.493,10.754-12.175,10.754
			c-6.088,0-10.146-4.667-9.131-10.754l16.639-104.702c0.812-5.885,6.493-10.552,12.377-10.552
			C277.965,209.231,281.82,213.898,281.009,219.783z"/>
		<path fill="#FFFFFF" d="M320.573,219.783l-16.639,104.702c-1.015,5.884-6.493,10.754-12.378,10.754s-9.942-4.87-8.928-10.754
			l16.639-104.702c0.812-5.682,6.493-10.552,12.377-10.552C317.326,209.231,321.385,213.898,320.573,219.783z M314.08,219.783
			c0.203-2.232-1.015-4.261-3.45-4.261c-2.435,0-4.667,1.826-5.072,4.261l-16.639,104.702c-0.406,2.435,1.218,4.261,3.652,4.261
			s4.464-2.029,4.87-4.261L314.08,219.783z"/>
	</g>
</g>
<g id="Spots" display="none">
</g>
</svg>
