<svg xmlns="http://www.w3.org/2000/svg" width="384" height="550"><g fill="#fff"><path d="M254.545 215.935l.095.289.002-.679c-.09.109-.13.252-.097.39zM320.26 206.5h-10.786c-.066 1-.161.157-.32.257-.104-.059-.192.743-.266-.257h-27.074c.049 1-.008.751-.246.969-.158.013-.244.087-.375.011l-.057-.215c-.008-.156-.041.235-.083-.765h-4.051c.217 1 .464.599.571.851.048.118.059.345.032.446l-.106.029c-.125-.021-.255.043-.354.124-.191.154-.428.263-.631.263-.312 0-.5-.463-.545-.898.327-.09.579.186.773-.814h-161.419c-.065 1-.161.157-.321.257-.104-.059-.191.743-.265-.257h-50.997c-5.5 0-6.953 3.329-3.229 7.101l6.229 6.432c-.047-.274-.007-.498.139-.755.279-.492.876-.669 1.323-.411.118.07.259.094.384.047-.075.104-.106.246-.071.381.092.376.036.749-.16 1.045-.233.354-.626.501-1.015.419l8.262 8.371-.009-.018c-.115-.132-.188-.213-.165-.419.056.006.29.063.335.108l.237.222v.253l25.931 26.398-.051-.016.026.057.077.125 5.527 5.607.073-.083c.145-.211.43-.28.638-.102.01.217-.034.387-.126.489-.05.056-.118.083-.195.098l8.187 8.447-.086.002v.063l69.078 69.825c3.724 3.773 9.894 3.773 13.618 0l19.966-20.43c-.072-.108-.208-.257-.379-.257h-.549c-.072 0-.157-.335-.316-.45.104-.278.418-.391.619-.391.16 0 .306.052.41.154.126.125.314.159.478.095.236-.093.333-.306.404-.459l.009-.018.23.079c.096.049.182.085.323.102l.038.141 44.416-44.995-.189.123-.116-.128c-.218-.236-.382-.413-.385-.779.405-.226.835-.026.885.349.008.053.012.165-.05.282l-.005.011 16.107-16.212-.003.096h.01l1.614-1.739c-.167-.011-.33-.13-.463-.262-.16-.165-.26-.408-.287-.66-.016-.153-.116-.296-.255-.363l-.143-.048c.282-.186.634-.31.938-.31.247 0 .428.075.537.224.137.185.168.488.1.883l30.538-30.936-.114.009c-.121.012-.233.073-.309.168l-.137.087c-.152 0-.389-.304-.452-.679-.037-.234-.035-.648.4-.81l.044.039c.106.109.251.153.393.132.076.053.167.083.26.085.042.105.034.235.02.42-.01.132-.015.283.001.441l10.205-10.58c3.723-3.772 2.27-7.101-3.23-7.101zm-258.996 6.636c-.023.022-.099.098-.298.087l-.151-.078c-.078-.203-.072-.398.018-.542.131-.212.398-.216.567.038-.009.367-.105.464-.136.495zm2.285-3.418c-.16.247-.436.401-.71.363-.575-.07-.588-.574-.579-.727.021-.342.228-.664.49-.764l.143-.089.167.06c.167.027.348.115.536.262.098.244.155.582-.047.895zm.811 7.416l-.036-.139.082-.064.11-.087c-.008.082.006.162.038.234l-.194.056zm1.093-1.488c-.044.104-.187.104-.311.089-.019-.1.01-.181.08-.336h.179c.059.087.08.182.052.247zm2.606 1.12c-.117.143-.312.222-.573.238-.09-.043-.152-.13-.237-.264-.087-.134-.205-.316-.409-.42l.013-.015c.252-.282.595-.667.907-.667.145 0 .294.092.445.276.034.283.03.641-.146.852zm4.328-8.946c.023.067.021.149-.011.215-.037.077-.1.115-.193.107-.033-.039-.045-.099-.027-.156.04-.122.141-.16.231-.166zm-3.449 10.848l-.099.089-.046.015.081-.203.066.099h-.002zm1.595 1.995c-.098-.106-.153-.233-.164-.376l.146-.073.294-.151.046.11c.104.25.218.525.39.787-.28-.009-.55-.121-.712-.297zm.58-11.391l-.176.131-.058.035-.072.001-.203-.005c-.628-.083-.604-.473-.594-.602.026-.411.396-.931.775-.931.17 0 .323.118.458.353.056.096.056.192.053.403-.002.122-.005.271.011.455l-.194.16zm1.666.962c-.068.086-.179.135-.305.135h-.001c-.194 0-.338-.108-.374-.279.027-.306.455-.311.46-.311.12 0 .224.035.29.09.024.155.001.278-.07.365zm1 3.099c-.132-.025-.264.008-.364.09l-.018-.153c-.044-.384-.053-.623.067-.794.086.087.197.13.324.114l.012.006c.13.051.152.107.159.126.056.145-.085.423-.18.611zm.113-4.344l-.009.015-.175-.083-.068-.044.061-.115c.073.026.149.032.221.018l.051.128-.081.081zm.192 1.256l.009-.078v-.049l-.009-.078.037-.021.012.218-.049.008zm231.097 8.808c.072-.229.124-.348.21-.394.274.105.296.247.179.818l-.043.214c-.094-.037-.16-.117-.26-.264l-.147-.196.061-.178zm-17.402 5.328l.069.007c.047.157.121.281.204.39l-.019.007c-.11.037-.22.076-.364.1.035-.187.054-.373.05-.511l.06.007zm-.081-16.228c-.002.153-.034.218-.073.298-.056.114-.104.229-.129.42-.494-.072-.727-.326-.75-.818.326-.172.587-.141.952.1zm-.297 16.751v.45l-.019-.45h.019zm-2.491-11.491c.043-.07.065-.15.069-.232l-.003-.062.07.009.135.011.184.446c-.147.086-.288.129-.485.066l.03-.238zm-.393 1.4c.147.197.265.43.288.589-.064-.007-.103-.039-.181-.12l-.16-.141c-.006-.131.017-.232.053-.328zm-.025 9.498l.11.019h.056l.023-.002.078.149.008.012c-.071.044-.128.023-.236-.016l-.119-.041.08-.121zm.574 1.853c.085 0 .179.03.292.09.166.612-.226 1.015-.789 1.512l-.172.151c-.135-.032-.236-.093-.309-.185.106-.18.195-.397.288-.625.222-.552.405-.943.69-.943zm-1.633-7.172c.133.052.242.145.3.26.045.095.054.193.023.292-.042.149-.006.312.097.428.318.355.403.453.392 1.054-.226.199-.631.372-.92.293.053-.295.021-.566-.014-.779-.014-.093-.057-.175-.118-.236.03-.081.039-.167.021-.253-.104-.512-.099-.8.219-1.059zm-1.82-5.396c.134.137.135.213.136.283.001.073.02.145.054.206l-.086.005-.139-.005h-.009l-.033-.235c-.028-.167-.035-.207.077-.254zm-1.147.506c.125.003.16.044.171.058l.043.106.017.064-.002.01-.06.032c-.188-.088-.4-.269-.426-.334.075.046.163.073.257.064zm-.983-6.06l.178-.067c.075.047.094.117.088.286l-.271-.202.005-.017zm-6.049 3.038h.013l.018.146-.004.072-.152-.075.125-.143zm-1.902-2.982l-.005.086-.021.172h-.052l-.111-.18-.063-.102c.085.026.169.034.252.024zm-1.258 20.276c.042-.049.204-.041.298.024.012.075-.017.161-.062.275l-.047.134-.093-.015c-.023-.089-.074-.168-.143-.226-.002-.118.031-.172.047-.192zm-1.862 11.842c.063.263.244.406.385.518l.179.168c-.154.071-.271.145-.365.204-.151.094-.216.13-.3.13-.083 0-.196-.039-.342-.117-.025-.667.029-.812.443-.903zm-2.856-13.933c.17-.048.334-.071.512-.074v.04c.008.13.069.248.166.328.113.09.19.21.217.315l-.064.04-.111.066c-.097.07-.163.179-.181.3l-.001.019c-.22.009-.373-.054-.47-.189-.136-.188-.159-.504-.068-.845zm-1.923-18.241c.043 0 .115.05.186.162l-.112-.021-.226-.056.152-.085zm-5.106-.236c.08.085.124.222.124.328 0 .097-.03.179-.084.234l-.076.052-.057-.102c-.016-.022-.062-.106-.062-.359.065-.036.116-.089.155-.153zm-1.345 1.071l.289.016c.06.11.135.263.13.383-.005.223.157.417.376.456.108.017.217.082.289.167.086.106.125.246.116.417-.291.055-.437.23-.491.573l-.038.154c-.115-.051-.25-.053-.366 0-.12.053-.211.155-.248.28l-.027.091c-.056.192-.115.39-.218.501-1.048-.073-1.509-.811-1.497-1.526.013-.729.547-1.512 1.685-1.512zm-5.917-1.608c.054.135.171.243.326.274l.048.01.02.004c-.019.27-.058.523-.098.771-.051.316-.102.642-.111 1.015-.319-.157-.329-.424-.315-.933.007-.299.016-.638-.077-.991l.207-.15zm-6.897 2.544l.035.066-.194.041c.056-.064.119-.107.159-.107zm-1.007 5.334l.117.075-.034.158-.123.017c-.028-.08-.032-.182-.012-.285l.052.035zm-1.254-1.384c.045.104.132.188.237.236-.057.167-.011.355.121.477l.027.035c-.018.048-.137.142-.326.142-.049-.199-.151-.344-.234-.462l-.148-.251c.108-.114.179-.171.323-.177zm.77 30.374c-.082.416-.199.826-.468 1.055-.119-.11-.211-.259-.161-.451.058-.227.308-.483.629-.604zm-1.551-16.492c.148-.009.28-.064.452-.157.137.28.186.593.233.897.045.297.09.58.213.821-.043.073-.066.157-.066.245l.004.065-.049-.037.021-.211c.07-.228-.048-.471-.273-.554-.497-.187-.717-.43-.744-.838.098-.052.17-.133.209-.231zm-1.545-15.926c.193.216.419.35.686.406.051.401.171.617.368.969l.034.062c-.007.082.007.153.044.223l-.097.102c-.11.16-.51.683-1.022.683-.203 0-.397-.08-.594-.244-.066-.058-.095-.158-.133-.314-.043-.175-.1-.4-.282-.572.211-.553.597-.949.996-1.315zm1.047 3.109l-.159.164v-.002c.014-.085.099-.158.159-.162zm-.203 2.369l-.09.121c-.177-.101-.348-.306-.349-.451l.063-.093c.05-.034.145-.069.319-.083l.025.033c.067.359.029.473.032.473zm-7.734-6.039c.072-.104.188-.223.349-.272.06.104.159.184.285.215l.24.1.005.081c.047.707.019 1.101-.263 1.159-.135.027-.242.11-.304.223-.482-.099-.524-.617-.524-.788-.001-.259.078-.528.212-.718zm-2.928 16.089c.265 0 .541.121.564.39.019.193-.025.218-.207.316-.119.067-.272.149-.396.309l-.169-.101c-.252-.146-.419-.25-.495-.44.15-.45.609-.474.703-.474zm-2.645-15.698l.022.106.034.116.018.06-.067-.042-.066-.207.059-.033zm-1.299-.311l.024-.078c.138.031.27.029.399.025l.104.178.055.099-.069.067c-.072.085-.234.17-.378.244l-.315.179c.03-.221.109-.475.18-.714zm-3.195 4.223c.115-.034.208-.115.26-.215.275.095.465.392.465.596 0 .088-.029.161-.089.222-.094.092-.25.149-.461.174l-.062-.121-.079-.233c-.03-.109-.067-.246-.132-.377l.098-.046zm-1.688 53.165c.289-.034.43.063.621.205l.018.012c-.039.193-.135.335-.279.493-.072.079-.112.18-.116.288-.15-.05-.298-.213-.364-.416-.077-.236-.033-.445.12-.582zm1.612-7.258h-.056v-.009l-.004-.043-.036-.134.043-.017.028.036.025.167zm-.003-5.3l.113.429-.062.019-.051-.448zm-.068 7.998c.203.669.043 1.677-.465 2.127-.112-.049-.237-.076-.371-.076l-.045.001c-.186-.286-.18-.675-.173-1.117.004-.37.012-.779-.104-1.178.229-.195.451-.302.635-.302.31 0 .461.34.523.545zm-.998 7.436c-.028.079-.034.166-.013.251l-.086.015-.106-.027-.049-.213.017-.042.237.016zm-.937-23.426h.113c.026.073.067.136.122.189l-.061.067-.081.126-.081-.049-.028-.013.016-.32zm-1.727-26.72c.056-.061.127-.09.195-.08-.042.086-.053.185-.045.308l.001.092-.152-.045-.112-.045c.018-.088.056-.167.113-.23zm-.727 2.317c.07-.127.287-.16.373-.011-.009.095-.08.179-.383.168l.01-.157zm1.742 33.883l.161-.066c-.081.2-.113.42-.146.651-.031.218-.063.443-.138.665-.186.022-.455-.042-.678-.106-.223-.065-.459-.127-.691-.127-.197 0-.373.046-.523.138l-.032-.176c.601-.401 1.334-.694 2.047-.979zm-.366 4.984c.067.111.138.226.18.361l.001.116c-.027.136-.112.21-.296.339l-.015.012c-.369-.348-.591-1.185-.47-1.62.059-.215.154-.215.211-.215.091 0 .207.037.333.103-.254.33-.123.616.056.904zm-.359 7.42c.254 0 .479.123.585.321.086.154.17.5-.19 1.093l-.215.044c-.376 0-.766-.311-.807-.557-.049-.289-.005-.527.129-.685.116-.137.296-.216.498-.216zm-1.431-10.547c.063.098.095.187.083.24l-.054.07-.071-.057c-.021-.043.006-.149.042-.253zm-.707-23.956c.011-.01.06-.05.187-.05l.025.001c.06.051.134.087.211.105l-.11.122c-.077.076-.127.167-.142.263-.102-.034-.206-.195-.206-.334l.035-.107zm-.539-19.15l.011-.09c.159-.026.229 0 .247.021.027.029.065.109.062.334h-.06c-.06-.098-.155-.169-.268-.201l.008-.064zm.236 50.146l.202-.058.218-.049c.032.087.088.164.16.219l.032.024c.009.172-.044.229-.323.357l-.123.061c-.187.094-.284.305-.233.51l-.014.121-.022.152-.135.039-.173.048-.066-.123-.082-.152.03-.193c.073-.16.057-.347-.058-.48-.11-.129-.274-.186-.438-.144-.211-.156-.258-.389-.258-.561-.006-.286.108-.578.288-.765.23.211.393.445.493.712.074.202.287.319.502.282zm-.833-40.496c.014-.023.038-.061.138-.069l.022.16-.019.154h-.149c-.03-.106-.022-.197.008-.245zm.079 36.957l-.125.039c-.099.033-.17.061-.281.055l-.079-.125-.042-.065c.184-.048.383-.007.527.096zm-.335-2.726c-.105.175-.266.261-.495.261-.264-.002-.484-.128-.537-.249l-.002-.134c.063-.177.016-.368-.117-.488.075-.154.218-.323.479-.323.217 0 .441.122.576.309.13.178.162.394.096.624zm-1.07 2.186l-.015.086-.003.01-.001.009c-.017.043-.048.11-.104.127v-.252l.119-.045.004.065zm.591-13.936l.028-.052c.086.103.089.251.089.277 0 .025-.003.185-.099.288l-.051-.084c-.078-.099-.121-.189.033-.429zm.094-6.106l-.046.189c-.123.011-.236.077-.317.174-.132-.099-.198-.272-.172-.468.008-.06.063-.36.361-.417l.007-.001h.014l.206.135c.01.147-.018.255-.053.388zm-.192-2.239c.144.359-.011.645-.188.833l-.057.004-.196.02h-.141c-.071-.112-.187-.189-.317-.208l-.064-.004-.126.017c.153-.074.253-.231.254-.405.001-.305.059-.532.162-.642.045-.044.092-.066.154-.066.163 0 .41.172.519.451zm-1.034-16.378c.149.036.332.019.493-.018l.063.158c.054.129.11.262.095.424l-.127.055c-.083-.069-.186-.106-.291-.106l-.171.035-.096.041c-.071-.171-.046-.337.034-.589zm.682-9.19c-.004.159-.008.323.004.489l-.275-.049c-.388-.069-.83-.149-1.153-.149h-.042c.019-.132.081-.3.212-.494.206-.301.613-.665 1.096-.748.164.243.167.53.158.951zm-1.254-3.688c.054.092.138.166.246.201.07.022.178.083.314.229.051.352-.037.645-.152 1.035l-.018.062-.084.107c-.168-.022-.358-.08-.499-.22-.141-.143-.218-.353-.218-.593.001-.335.162-.702.411-.821zm-8.001 91.928l-.053-.121.044.011c.127.03.26.003.367-.071.188-.07.202-.03.217-.005.053.096.023.306-.071.468-.049.082-.152.225-.31.225l-.115-.022c.04-.178.014-.316-.079-.485zm-.096-35.14c-.06-.27-.031-.5.086-.654.11-.146.271-.167.357-.167.125 0 .252.043.362.123.116.292.064.683-.063.863-.256.093-.599-.067-.742-.165zm-.016 24.481l.028.131-.147-.026.094-.151.025.046zm-.112-60.474l.171-.008.048.125.012.027c-.119-.039-.189-.09-.231-.144zm.224-22.194l-.035.027c-.092.073-.131.097-.226.092-.059-.126-.094-.297-.13-.48-.036-.18-.076-.39-.162-.574.339.092.47.408.553.935zm-1.135-1.612h.064l.021.212v.018l-.105-.022.02-.208zm-.644 40.992l-.257.014-.039-.196c.099.032.207.092.296.182zm-1.11-40.531c.26 0 .531.136.753.374-.004.139-.038.307-.157.434-.28.29-1.024.199-1.318-.138.168-.621.589-.67.722-.67zm-2.724 9.81l.518-.336c.055.117.078.259.007.42-.104.236-.375.419-.615.419-.152 0-.272-.074-.356-.218l.446-.285zm-11.3-8.829l.068-.015c.047.066.115.122.194.152l.067.027.236.112c-.182.059-.32.198-.399.405l-.035.005c-.034-.044-.055-.155-.076-.31-.017-.127-.035-.257-.079-.373l.024-.003zm.018 4.985l-.189.125-.042-.092.225-.066.006.033zm-1.204-1.94l.252-.213c.338.239.506.681.683 1.146l.193.48-.031.005c-.224.046-.378.256-.357.483.021.23.21.408.439.411l.206.002.155-.024c.083.491-.061.784-.25 1.016-.139.016-.194-.021-.287-.084-.078-.053-.182-.125-.335-.125l-.06.005c-.157-.721-.498-1.57-1.44-1.913.078-.568.425-.855.832-1.189zm-1.494 6.754c.084-.01.141.016.175.124l.004.176-.01.118-.013-.005c-.062-.017-.169-.06-.206-.163-.035-.099.007-.189.05-.25zm-.489 9.898c.145.042.266.109.376.186.028.301.011.674-.172.9-.099.123-.242.202-.432.241-.076-.245-.145-.554-.149-.935.199-.03.353-.194.377-.392zm-1.718 20.606l.033.066.03.065.101.128-.156.225-.171-.034h-.021l-.125.026c-.04-.109-.042-.24 0-.351.033-.096.09-.158.157-.191l.152.066zm-.971-38.84c.111.207.257.482.611.543l.118.15-.009.189-.139.139-.04.079-.042.241-.004.089-.028.01c-.06-.432-.271-.778-.443-1.065-.169-.279-.285-.483-.306-.688.114.021.168.098.282.313zm-.467 30.857l.164-.143.078.026-.004.027-.016.163v.009l-.227-.079.005-.003zm-1.339 19.994c.143-.065.3.003.426.067l.247.115c.001.146-.079.193-.233.282l-.141.088.001-.043c.006-.187-.102-.357-.273-.43l-.111-.033.084-.046zm1.068 7.188l.046.158-.036.061c-.069.139-.069.299-.059.525.006.159.011.321-.031.444-.065.183-.168.224-.427.285-.243.06-.566.134-.778.5-.117-.021-.244-.032-.39-.032l-.285.011-.146.009.11-.105c.407-.392.903-.866.789-1.593.258-.059.464-.175.673-.295.175-.098.342-.192.548-.254-.026.069-.035.145-.023.22l.009.066zm1.11 30.952c.018.269-.057.429-.15.629-.072.158-.151.328-.181.555l-.11.029c.057-.299.009-.59-.137-.822-.175-.275-.461-.433-.807-.445-.103-.231-.035-.459.075-.759l.098-.301c.168.051.342.248.55.495.186.226.395.474.662.619zm-.011-30.158c-.001-.065.007-.132.043-.173.044-.055.144-.089.293-.1.034.053.041.106.019.161-.034.083-.122.14-.223.14h-.002l-.13-.028zm-4.034-37.149c.106-.325.002-.604-.085-.832l-.007-.015c.097-.042.164-.102.208-.154.055-.062.095-.138.124-.224.345.308.632.7.644 1.056.006.191-.074.368-.24.528-.247-.088-.449-.217-.644-.359zm.585 20.284l-.224.017h-.099l.023-.204.074-.013c.057.057.132.098.213.119l.013.081zm.021 7.032c.206-.103.302-.342.224-.559-.139-.384-.158-.773-.05-.948.046-.072.161-.153.422-.109.227.373.311.638.246.786-.01.027-.042.098-.2.153-.217.082-.34.312-.282.536.106.421.139.772.169 1.11l.025.258c-.035-.103-.105-.189-.199-.243l-.335-.229c-.266-.19-.564-.402-.985-.492l.046-.076c.408.074.649-.036.919-.187zm.952 1.923l-.113.062c-.106.041-.173.11-.222.16l-.112.046c-.051-.042-.064-.1.009-.36.031-.106.063-.224.072-.347l.004.042c.022.155.104.302.25.363l.112.034zm-1.677 7.021c.097-.099.256-.149.471-.152.101.175.12.31.068.461-.2.056-.519.1-.681.054.015-.16.064-.283.142-.363zm.514 27.735l.01-.047.007-.037.081.016.067.046c.035.071.022.263-.088.522l-.016.05-.021-.026-.139-.125-.11-.104c.104-.062.183-.169.209-.295zm.052 1.125l.09-.167.122.105c.335.198.591.624.573.934l-.256.042c-.164.016-.298.033-.409.093-.122-.101-.212-.277-.238-.487-.027-.208.017-.402.118-.52zm.529-14.965c-.208-.262-.323-.616-.323-.995 0-.454.203-1.192.941-1.294.067.123.189.209.336.229l.254.053c.368 1.031.258 1.698-.355 2.213-.069.056-.117.13-.142.215-.289-.05-.526-.191-.711-.421zm1.323 6.327c.125.05.209.152.261.24.137.227.187.555.141.834l-.166-.048h-.02l-.093.005h-.001l-.143.051-.016-.036c-.139-.332-.078-.816.037-1.046zm.217 12.369c.107-.067.203-.101.339-.08v.001c.057.052.126.089.198.105l-.022.186-.005.08c-.038.183-.256.386-.54.52l-.042-.141c-.046-.159-.097-.338-.117-.571l.189-.1zm.588-27.093c-.083.118-.174.118-.204.118-.097 0-.223-.051-.363-.152v-.613l.113-.058c.135-.075.262-.144.362-.144.027 0 .087 0 .184.081.072.249.032.588-.092.768zm-2.475-63.251c.032-.034.227-.074.405-.02l-.017.096-.153.084-.103.044c-.027-.077-.076-.143-.141-.195l.009-.009zm-5.031-2.014l.23-.005.254.026c.156.06.333.026.458-.088.236-.213.41-.244.495-.244.259 0 .397.294.397.487 0 .248-.186.416-.554.416h-.001c-.213 0-.377.092-.44.28-.188.555-.36.824-.796.851-.5-.797-.513-1.334-.043-1.723zm-.039 1.717v.447l-.036-.451.036.004zm-6.299 6.462l-.007.057-.013.133-.056-.012-.057-.012-.004-.138-.001-.033.138.005zm-4.554-7.247c.322-.402 1-.555 1.424-.312.144.082.239.399.321.688.058.19.116.389.2.558.041.082.105.149.184.193.59.327.538.539.433.967l-.047.198c-.094.062-.212-.037-.354-.144-.124-.095-.264-.2-.435-.269l-.166-.031-.248.025-.193.017-.097-.188-.155-.275-.076-.074c-.233-.177-.459-.277-.642-.357-.26-.114-.313-.153-.336-.254-.059-.26.006-.515.187-.742zm-2.462 36.922c.234-.051.415.037.499.244.081.206.055.462-.056.621h-.455c-.043-.065-.095-.204-.095-.424 0-.247.065-.393.107-.441zm-.89 4.132l-.12.023-.039.013c-.023-.105-.018-.212.018-.317.047-.142.144-.273.257-.381l-.023.045c-.093.179-.156.317-.134.48l.041.137zm.01 31.808h.121l.004.055-.047.168c-.063-.061-.096-.125-.098-.163l.02-.06zm-7.765-68.167h.119l.005.054-.046.17c-.064-.062-.097-.125-.099-.165l.021-.059zm-.295 20.247l.008-.082c.223.02.4-.019.54-.089l-.046.035c-.114.101-.166.236-.213.357-.057.156-.083.188-.121.194-.038-.08-.1-.15-.178-.195l.01-.22zm.394 4.316l-.09.199-.035-.202.125.003zm-1.947 8.848c.116.13.166.391.146.744l-.19.16c-.141.132-.217.195-.389.187-.374-.236-.397-.491-.351-.667.095-.353.577-.653.784-.424zm-1.357-27.812c.304-.01.481.16.65.32l.023.022c-.216.112-.473.164-.673.083v-.425zm-.007 11.399c.021.318-.086.384-.153.406l-.038.004-.035-.002c-.036-.031-.063-.179-.074-.234l-.049-.213c.113-.039.236-.025.349.039zm-.207 4.45l-.103.128c-.016-.18-.14-.334-.314-.388l-.002-.001-.024-.015-.006-.003c.106-.088.241-.107.427-.086.06.103.071.248.022.365zm-.519-19.021l.174-.02-.002.013-.062.121-.111-.11.001-.004zm-.421 17.26l.234.01-.02.041c-.115 0-.218.034-.309.099l.095-.15zm-.38.55l-.062.195h-.02l.082-.195zm-1.942-27.257l.053-.042.125.152.044.029-.023.034-.051.075c-.043.065-.067.141-.071.219-.086-.047-.19-.18-.241-.329l.164-.138zm-1.846 6.583c.078.135.077.319 0 .517h-.005c-.136.002-.261.069-.342.172l-.072-.066c-.048-.062-.081-.134-.092-.207-.017-.099-.067-.184-.139-.249l.072-.109c.096-.207.241-.229.298-.229.108 0 .217.067.28.171zm-1.027-1.607c.106-.715.292-.861.335-.861.162 0 .474.53.474.984 0 .337-.146.337-.245.337-.083 0-.229-.021-.441-.121l-.188-.041-.072.006-.08.018c.116-.069.196-.186.217-.322zm-.37.384l.014-.005-.194.165-.04-.071.22-.089zm-2.312-1.103c.083-.143.217-.193.305-.193l.131.051c.05.053.163.218.166.624-.175.145-.313.255-.6.227-.116-.26-.118-.513-.002-.709zm-2.218-1.121l-.005.078c-.094-.014-.191 0-.275.042l.005-.143c.007-.091.014-.203-.008-.317.114.105.217.211.283.34zm-.622-1.213l.065.025-.054.159-.027.212-.107-.073c-.011-.087.061-.236.123-.323zm-.705 33.044v-.247l.097.029c.134.071.291.07.419.004.066.072.088.248.073.592l-.157.074-.054-.026c-.073-.046-.189-.084-.275-.084l-.083.006c-.027-.071-.029-.184-.02-.348zm-1.659-26.214l.171-.03-.035.241-.025.127-.149.102c-.03-.107-.003-.326.038-.44zm-1.449 27.025l.072-.126.127-.013c.033.082.084.152.148.202l-.04.217-.007.052-.146.001-.238-.022c-.022-.141.02-.208.084-.311zm-10.823-35.044l.34.006.176-.064c.05.08.11.173.188.248l-.14.129-.053.103-.063-.003c-.121-.057-.258-.058-.382.005l-.052-.003-.016.003-.08-.091c.025-.101.008-.21-.035-.305l-.019-.037.136.009zm-4.182 14.983c.076.056.167.086.259.088.043.105.036.235.021.42-.013.16-.027.344.009.539l-.228.018c-.122.012-.233.073-.311.168-.046.058-.091.087-.134.087-.153 0-.39-.304-.453-.679-.037-.234-.035-.648.4-.81l.045.039c.103.109.248.153.392.13zm-.853-6.964l-.118.049-.019-.038.07-.065c.062-.067.1-.158.111-.253l.035-.011.097-.046.022.188.009.094-.207.082zm-.16-5.226c.178 0 .431.169.55.48.114.297.054.605-.164.869l-.196-.131c-.24-.154-.467-.301-.622-.501.053-.45.213-.717.432-.717zm-.894 16.013l.067-.165c.085-.105.236-.168.396-.168.247 0 .437.144.511.381-.007.069-.038.108-.107.187-.057.066-.134.151-.179.273-.146.091-.232.26-.209.441l.014.141-.199-.098-.019-.008c.083-.112.109-.259.069-.393-.042-.143-.15-.257-.292-.302-.037-.012-.078-.025-.113-.108l.061-.181zm-.091-12.074l-.052.204-.072.3-.11.051c-.05-.066-.113-.115-.188-.142.015-.118.054-.211.114-.276.067-.069.17-.115.308-.137zm-.668-5.751c.284.003.303.126.312.185.032.195-.102.445-.209.538-.075-.046-.137-.151-.168-.277-.041-.176-.015-.348.065-.446zm-.121 1.609l.062.005.042.004.047.013.129.038.062.02.004.085c.003.117.008.327-.023.41l-.155.011-.17-.031c-.04-.221-.04-.335.002-.555zm-2.029-.669l.143.009c-.027.078-.044.167-.046.27l-.049.023-.06-.075c-.021-.039-.026-.123.012-.227zm-3.487 1.254c.058.168-.093.352-.229.476-.432-.118-.68-.392-.768-.845.585-.015.93.176.997.369zm-6.124 5.605l.008.004-.007.423-.001-.089v-.338zm-.321-3.099l.047.109c.175.29.326.71.049 1.055l-.077.136-.172-.116c-.133-.134-.209-.336-.209-.554.002-.094.023-.493.362-.63zm-1.53.495l-.06.09c-.13.147-.375.245-.622.245-.296 0-.507-.118-.608-.335h1.29zm-3.276-1.803c.179.18.3.478.3.744 0 .275-.115.434-.349.482-.056-.104-.15-.183-.271-.219-.132-.037-.217-.332-.306-.659.127-.19.227-.248.267-.265.091-.037.163-.109.209-.197l.15.114zm-.955-3.736c.051-.076.138-.092.203-.092.143 0 .366.095.466.347-.142.103-.36.233-.57.233h-.002l-.081-.009c-.074-.207-.081-.379-.016-.479zm-6.328 1.677l.133-.153.133.104c.117.121.159.239.159.309-.001.112-.124.171-.262.2l-.026-.1c-.024-.058-.07-.181-.165-.291l.028-.069zm-5.946 16.945l-.086.079-.079-.049-.121-.078.041-.04.13-.151c.042.047.08.119.115.239zm-9.531-17.912l-.042-.214.156-.007.08-.001.086.001c-.01.083.001.17.031.25l-.311-.029zm2.785 9.195l-.029.066-.2-.031c-.006-.125.027-.18.044-.2.029-.034.167-.013.197.047l.019.05-.031.068zm.148-7.309c-.26.424-.692.495-1.044.107-.123-.296-.097-.626.072-.891.245-.383.749-.469 1.061-.155.126.281.094.638-.089.939zm1.26 14.297c-.1-.154-.099-.282.003-.44l.047.022.138.074.085.176c-.023.066-.143.159-.273.168zm-.35-6.487c-.1-.108-.165-.251-.188-.415l-.036-.12c.152-.157.334-.248.505-.248.087 0 .211.025.31.141.139.158.202.418.179.726-.271.167-.572.129-.77-.084zm5.047 6.527c0-.157.088-.393.275-.393l.049.004.072.068c.088.203.081.233.042.401l-.062.311c-.348-.024-.376-.302-.376-.391zm.711 5.808c-.112.064-.191.113-.328.104l-.051-.066c-.058-.075-.096-.123-.095-.213.104-.067.178-.175.199-.302l.02-.071c.073.071.174.118.275.133.035.074.068.231.063.367l-.083.048zm2.119-11.122l-.218.135-.148.07c-.072-.193-.131-.373-.15-.595l.164-.057c.123-.047.171-.088.352.004v.443zm1.584-3.765c-.101.35-.393.567-.606.567-.178 0-.306-.142-.391-.292l.092-.357c.12-.601.244-.692.648-.62.25.17.338.414.257.702zm3.408 26.664l-.076-.16c-.037-.142-.157-.243-.293-.292l-.144-.025c-.083 0-.17.022-.242.06l-.305.064c-.221.039-.448.081-.641.177-.167-.25-.192-.583-.22-1.127l-.015-.293c-.008-.13-.091-.246-.195-.327-.103-.078-.255-.105-.384-.078-.186.038-.278.033-.403-.02-.192-.173-.375-.457-.227-.86.137-.369.502-.667.813-.667.192 0 .333.124.418.37.041.113.123.206.23.257.108.052.232.058.345.019.393-.139.698-.073.899.216.216.313.287.847.178 1.358-.028.133.004.272.09.376.085.106.213.168.348.168.258.002.356.119.519.467.078.168.168.357.314.523-.345.162-.818.066-1.009-.206zm.781-13.461c.055-.103.137-.149.273-.159l.07.147c-.128-.017-.243-.011-.343.012zm3.059 13.527c-.014.027-.055.105-.224.105-.078 0-.207-.019-.395-.093.005-.27.069-.482.146-.695l.115.025c.059.013.186.028.277.007.137.279.15.527.081.651zm-.238-7.271l-.012-.006c.176-.43.403-.575.826-.564.044.061.098.204.098.428 0 .234-.058.376-.103.434-.381.035-.564-.099-.809-.292zm2.129 11.587l-.244.029-.146.027c-.102-.326-.371-.476-.594-.601l-.234-.145c-.01-.29.039-.458.15-.532.248.024.383.217.567.521.15.247.304.5.565.561l-.064.14zm4.748 1.256c-.066-.153-.148-.279-.221-.392-.09-.138-.143-.224-.133-.273.047-.227.112-.285.112-.285.06-.04.109-.095.143-.16.239.144.483.521.483.811 0 .106-.029.188-.09.249-.066.066-.165.104-.27.127l-.024-.077zm.132 1.476c.092-.013.172-.052.239-.109l.058.247-.297-.138zm2.555-3.23c-.081-.028-.171-.046-.271-.046l-.094.006c-.034-.14-.099-.235-.156-.297-.118-.127-.291-.204-.475-.209l-.022-.002c-.119-.154-.199-.313-.246-.459l-.011-.043c-.047-.175-.044-.331.002-.437.022-.05.088-.203.373-.213.218.021.872.802.964 1.539l-.064.161zm-1.31-5.844c.004-.088.04-.115.125-.182l.178-.155c.073.056.159.089.251.095l.015.2c.01.162.021.318.066.479-.112-.147-.278-.224-.398-.279-.143-.065-.209-.103-.237-.158zm2.225 7.126c-.076-.117-.145-.27-.212-.422l-.134-.283.162-.049c.032.237.13.45.248.702l-.064.052zm.753 7.809l-.133.457c-.193-.148-.286-.402-.261-.613.027-.224.15-.224.21-.224.082 0 .176.027.276.077l-.092.303zm-1.343-23.304c-.52.682-.833 1.093-.986 1.555-.39 1.173-.61 2.41-.68 3.112-.078.794-.162 1.569-.25 2.27-.09.718-.216 1.462-.385 2.274-.132.638-.533 2.58-2.032 2.58-.513 0-1.002-.254-1.454-.754-.336-.371-1.147-1.371-1.418-2.629-.477-2.204-.878-4.736-1.267-7.186l-.125-.786c-.222.567-.753.897-1.637 1.005-.178-.552-.254-1.312-.252-1.74.184-.248.393-.372.624-.372.502 0 1.011.549 1.249 1.008-.424-2.655-.831-5.083-1.264-6.427-.244-.76-.71-1.833-1.202-2.97-1.148-2.646-2.449-5.646-2.371-7.679.047-1.215 1.371-2.24 2.894-2.24 1.068.013 1.589.438 1.846.793.197.271.341.481.434.633.138.228.246.511.331.87l.134.59c.034.163.067.4.098.703.021.213.117.922.291 1.933l.026.151c.182 1.056.56 3.252 1.031 4.925.332 1.172.692 2.376 1.034 3.49l.051-.053.035-.041c.155.03.319-.026.423-.15l.022-.004c.025.035.023.17.02.271-.125-.014-.249.027-.346.112l-.108.176c.25.812.489 1.567.693 2.208.341-.499.732-.994 1.142-1.354.997-.878 1.538-3.674 2.061-6.378.252-1.305.535-2.713.886-4.103l-.25-.19-.037-.043v-.626c0-.057.192-.08.276-.063l.023.005.028.018.089.067.063.089c.169-.61.351-1.212.56-1.792.476-1.324 2.184-2.247 3.42-2.247l2.538.044-.131 1.114c-.33 2.446-1.582 10.719-3.826 14.47-.975 1.62-1.741 2.626-2.301 3.361zm3.775-3.545l.054-.023c.188-.087.355-.165.478-.354.216.026.454.117.569.358.143.302.072.758-.166 1.124-.257-.013-.392-.058-.631-.135l-.399-.123.042-.148c.058-.205.137-.478.053-.699zm.409 7.384c.1-.26.223-.575.223-.941l.11-.044c.229.232.44.676.446 1.136.003.168-.027.467-.244.63-.085.025-.187-.012-.306-.059-.11-.042-.187-.07-.281-.072h-.01l-.075.007c-.038-.17.023-.359.137-.657zm1 3.94c.162 0 .243.194.275.309-.018.134-.094.212-.39.284-.116-.064-.25-.169-.218-.317.03-.143.192-.276.333-.276zm-3.275-.294c-.009-.284.084-.457.197-.666.067-.123.142-.256.19-.419l.093-.014.118.149.002.003-.034.019c-.201.118-.279.37-.18.583.025.051.033.12.019.193-.025.135-.104.234-.22.274l-.185-.122zm.297 12.503c.135-.175.234-.392.263-.675l.095.037.03.203c.037.088.058.189.065.304-.164.019-.316.072-.453.131zm2.491 2.436l-.156.044-.025-.001c-.079-.106-.062-.153.014-.353l.012-.036.021.008c.153.055.246.123.261.287l-.127.051zm2.728 9.127l-.168.272c-.157.28-.226.363-.386.364l.002.279-.002.002-.006-.281c-.265 0-.473-.207-.521-.513-.014-.091-.055-.524.367-.73.098.074.21.119.312.161.135.053.238.1.262.167.033.098.098.176.179.229l-.039.05zm-.014-1.576c-.086.071-.117.083-.204.07-.194-.221-.46-.604-.583-.84h.271c.211.012.436.034.633-.149l.089.316c.043.143.087.28.104.44-.149.032-.249.113-.31.163zm.275-1.89l-.153-.273c-.115-.176-.192-.299-.13-.597.179-.185.532-.191.675-.012.105.132.139.332.095.569-.093.108-.231.185-.421.272l-.066.041zm.589 6.706c-.042-.064-.1-.121-.171-.156l-.037-.026.076-.173.032-.059.037-.086.109.06c.046.042.069.098.069.167.001.087-.043.198-.115.273zm.964-6.059l-.097-.028.019-.286h.065l.013.314zm1.315 8.378l-.021-.074.084-.049.06.042.016.131-.139-.05zm-.095-3.917c-.143.056-.277.106-.47.087-.086-.098-.123-.3-.157-.497-.026-.143-.054-.292-.101-.429.302-.272.647-.275.883-.008.158.178.247.45.257.756-.152 0-.284.043-.412.091zm1.656-10.688c-.279.186-.73-.071-.947-.486-.105-.202-.135-.397-.088-.565l.011-.185.163-.089c.304-.263.904-.043 1.091.373.174.391-.063.76-.23.952zm3.205-1.992c.13.039.26.112.331.196-.139.024-.243-.064-.331-.196zm.784 20.69l-.05.104-.035-.012-.039-.023c-.042-.029-.109-.075-.22-.096-.08-.203-.075-.333-.042-.388.032-.05.103-.058.141-.058.148 0 .273.09.31.178.033.08.011.18-.065.295zm.156.816l.077-.14.191.021c.174-.02.383.04.557.143-.121.128-.223.307-.214.583-.249.049-.477.048-.639-.069-.068-.225-.063-.409.028-.538zm.967 2.288h-.412c-.117-.191-.226-.374-.303-.586.082-.07.195-.134.341-.134.193 0 .378.112.451.271.074.166.011.328-.077.449zm3.152 1.103c-.051.057-.128.088-.238.088-.136 0-.254-.106-.309-.275-.067-.202-.019-.407.12-.509l.167-.067c.167 0 .33.259.33.526 0 .069-.012.168-.07.237zm.301-1.974l.045-.118.098-.03.118.024c-.047.058-.125.105-.261.124zm.932 3.152l-.06.074c-.098-.107-.188-.273-.188-.427l.016-.077c.062.097.164.169.286.194l.029.006c-.04.178-.083.23-.083.23zm.132 1.923l-.001-.024.073-.048.071-.044.051.127-.194-.011zm-1.165-8.529c-.721.001-1.447-.446-2.284-1.406-.588-.672-1.065-1.367-1.441-2.074-.309-.048-.59-.254-.667-.522-.03-.105-.05-.329.164-.601-.353-.965-.517-1.943-.465-2.912.273-5.083.417-7.241.682-10.654l-.001-.132c-.613-.978-1.647-2.268-3.08-3.842l-.27-.304c-.072.055-.145.119-.203.213l-.228-.159c-.165-.104-.184-.126-.188-.226-.006-.151.042-.284.125-.385l-.601-.694c-.612-.71-1.458-1.689-2.016-2.225-.26.504-.624 1.408-.904 2.792l-.104.484.103.09-.041.073c-.042.092-.086.138-.137.165-.066.282-.15.618-.247.98.435-.05.853.021 1.321.12l.608.115c.077.115.21.192.361.2.22.013.414-.144.468-.35.02-.024.086-.062.306-.062l.163.005.068.113.058.1-.135-.057c-.18-.094-.402-.058-.541.094-.137.149-.158.374-.049.547l.004.027-.183-.045-.104-.048c-.173-.074-.372-.033-.5.104-.128.135-.161.336-.08.505.086.181.082.389-.012.694l-.016.195-.114.054c-.108.069-.214.106-.304.106-.213 0-.318-.231-.344-.448-.033-.266.037-.55.183-.739.122-.161.124-.385.002-.546-.087-.115-.222-.179-.36-.179l-.163.03c-.127.05-.261.069-.361.054l-.065-.083c-.11-.144-.191-.268-.236-.423-.502 1.854-1.373 4.371-2.412 4.372-.554-.017-1.119-.331-2.024-1.643l-.015.024-.072-.024c-.366-.085-.49-.377-.485-.601l.051-.204c-1.402-2.29-1.948-3.807-1.622-4.505.065-.14.211-.398.556-.997.033-.119.089-.233.165-.314l.01.012.143-.248c1.334-2.307 4.109-7.107 7.408-13.437 1.539-2.955 2.53-6.24 2.953-7.644l.521-1.687c2.112-6.811 3.213-10.084 5.134-10.084 1.189.045 2.126.555 2.769 1.475l-.453.316.644.008c.339 9.843.606 18.224.814 27.128.209 8.968.111 17.776-.29 26.183-.094 2.074-.758 3.126-1.967 3.126zm-10.382-22.477l-.038-.033-.178-.132.06-.077.142.037.014.205zm12.915 19.531c-.076.133-.226.176-.39.104-.017-.186.006-.325.069-.399.023-.028.089-.101.334-.105.052.138.049.287-.013.4zm1.376-4.036c-.019.045-.062.165-.288.165l-.052-.001c-.209-.015-.259-.126-.282-.22-.061-.27.104-.661.346-.881.248.296.354.723.276.937zm1.112-45.111v-.037l-.051-.2.24.16c.18.109.303.18.374.438l-.083.04c-.013-.114-.068-.222-.16-.299-.083-.067-.184-.104-.286-.104l-.034.002zm.347 1.634l-.029-.023.108-.298.17.116.104.026-.069.112c-.055.065-.089.141-.103.217l-.181-.15zm.77 62.033h-.395l-.039-.067c-.073-.127-.121-.216-.102-.392.111-.18.35-.208.489-.208l.15.012c.158.184.014.484-.103.655zm.24-9.175c-.083.182-.238.29-.413.29l-.188-.039c-.092-.253-.087-.528.016-.688.026-.038.103-.159.345-.159l.196.024c.116.173.132.381.044.572zm.527-16.178c-.037.073-.1.123-.15.144l-.088.013-.055-.096c-.046-.096-.093-.183-.18-.253l.008-.02c.072-.205.125-.333.216-.398h.002c.093 0 .243.134.277.353l.007.051.023.117-.06.089zm1.533 27.436l-.006.005c-.06.051-.104.117-.13.187l-.076-.003-.194-.005h-.016c.043-.152.041-.338-.132-.513l.064-.111.069-.11h.308c.029.083.076.152.142.208-.055.105-.064.229-.029.342zm-.26-10.624c-.175.355-.356.72-.468 1.104l-.18-.207c-.074-.099-.157-.206-.27-.294.112-.083.182-.214.184-.355.006-.347.037-.577.074-.839l.018-.14.052-.03.164-.14.199-.01c.196-.054.402-.078.634-.069-.066.295-.233.628-.407.98zm.616-3.875l-.01.077-.064-.033c-.09-.092-.095-.368-.092-.614l.058.075.089.231.05.13-.031.134zm4.024 16.916h-.031v-.034l-.052-.204.24.163c.179.104.302.177.374.437l-.083.041c-.012-.117-.069-.226-.162-.302-.082-.067-.182-.101-.286-.101zm.574 1.601l-.078.183-.19-.16-.017-.015.106-.296c.06.064.137.109.223.132l.05.01-.094.146zm1.275-18.854l.127-.004.05.125.011.026c-.072-.029-.135-.079-.188-.147zm1.22 12.775l-.024.121-.148.102c-.031-.107-.002-.328.037-.439l.171-.032-.036.248zm2.241-6.864l-.027.211-.109-.073c-.01-.087.063-.235.125-.322l.064.026-.053.158zm.606 1.106c-.095-.015-.19 0-.274.044l.004-.146c.005-.089.012-.202-.009-.316.113.107.217.212.285.341l-.006.077zm2.92 9.606l-.154-.077c-.03-.133-.121-.25-.253-.309l-.025-.011.011-.049c.069-.039.127-.094.166-.161h.048c.05.053.114.095.184.117l.196.019c.027.058.025.139.005.212-.018.077-.077.208-.178.259zm6.738 14.633h-.021l.082-.196-.061.196zm.654-.697c-.112.004-.217.038-.309.103l.095-.151.234.011-.02.037zm.726 1.714l-.101.127c-.014-.138-.089-.266-.215-.34l-.102-.047-.025-.015-.005-.005c.104-.086.241-.107.426-.086.061.104.073.248.022.366zm.868-15.527l.019.017-.265.09c-.031 2.732-.061 5.389-.089 7.942-.013 1.313-.188 2.276-.453 2.983l.127.042c.02.319-.086.081-.152.103l-.038-.302h-.037l-.046.195c-.471.99-1.146 1.514-1.753 1.616-.123.021-.247.107-.372.107-.712 0-1.415-.284-2.089-.922-.639-.603-1.133-1.262-1.467-1.998-.304-.672-.536-1.347-.69-2.026-.146-.646-.272-1.388-.375-2.217-.102-.82-.174-1.545-.214-2.188-.123-2.001-.497-6.161-1.209-11.636-.165.138-.304.24-.581.216-.115-.259-.118-.513-.003-.706.084-.145.217-.197.307-.197l.129.053.082.137c-.303-2.296-.663-4.806-1.089-7.485-1.128-7.078-2.251-14.421-3.311-21.625-.059-.062-.112-.137-.151-.237-.083-.209-.097-.49.01-.727-.341-2.326-.677-4.639-1.001-6.917l-.272 5.725c-.134 2.809-.269 5.643-.403 8.489l.026.178-.046.249c-.426 9.069-.836 18.283-1.149 27.386l-.082 2.405-1.646-1.756c-1.047-1.116-1.568-1.68-2.608-2.809l-.277-.302.117-2.926c.034-.146.14-.819.066-3.393-.037-1.299-.027-2.684.004-4.1l-.027-.069.031-.139.002-.006c.014-.599.021-1.187.048-1.801.08-1.893.139-6.192.173-12.779.017-3.072.042-5.423.075-7.135l-.068-.037c-.031-.046-.041-.128-.029-.232l.103.009c.025-1.176.054-2.032.088-2.543l.055-.818c.186-2.811.296-4.477.499-7.962l.118-1.273-.09.045c-.31.047-.617-.193-.694-.51-.08-.334.149-.51.293-.583.118-.06.231-.091.337-.091.097 0 .178.035.25.085.37-4.094.617-7.341 1.041-14.435.177-4.736.503-5.192.72-5.494.958-1.339 1.924-1.621 2.565-1.621 1.187.037 1.831.519 2.176.916.89 1.029 1.334 2.457 1.287 4.13-.039 1.383.007 2.672.139 3.939.136 1.296.344 2.711.618 4.205.31 1.679.494 2.753.598 3.48.11.781.203 1.678.274 2.667.071.975.115 1.822.138 2.551.053 1.777.14 3.334.262 4.732.054-.083.126-.155.226-.187l.06-.012c.126-.03.229-.11.288-.216.226.094.309.369.309.612 0 .209-.062.425-.171.574-.074.104-.167.174-.275.21-.059-.104-.158-.185-.282-.215l-.084-.042.047.483c.183 1.674.561 4.109 1.124 7.239.498 2.771 1.039 5.554 1.703 8.758.658 3.175 1.039 6.507 1.33 9.664.163-5.943.337-11.986.521-18.079l.014-.653-.032-.013.033-.039c.243-11 .416-22.179.572-32.702l.007-.104c.37-3.119 1.455-4.7 3.225-4.7.526 0 1.013.209 1.404.604.594.599 1.379 1.925 1.34 6.506l-.033 1.085c-.277 1.213-.425 2.542-.438 3.951-.077 4.593-.156 9.029-.238 13.357l.126.079c.179.154.134.546-.016.893l-.04.005-.09.038c-.163 8.543-.338 16.633-.527 24.451-.137 8.674-.247 17.437-.34 25.551l.236.207zm.95-26.246l-.06.044-.028.027-.016-.009-.102-.041-.004-.066c.064.032.136.049.21.045zm-.252-7.925l-.014.026-.008.014c-.05-.082-.126-.144-.218-.181l-.003-.002.189-.077c-.001.076.017.153.054.22zm.766 58.222c-.099.132-.262.349-.338.381-.023-.016-.093-.086-.186-.31-.053-.129-.183-.224-.315-.261l-.119-.014-.13.017v-.093c.139.043.299.021.42-.078.19-.152.335-.361.431-.617h.15c.02.117.075.251.209.367.085.071.196.11.302.106-.159.148-.298.331-.424.502zm.292-83.378c-.126-.266-.074-.58.011-.828l.216-.065c.148-.052.281-.062.399-.033l.001.146c.029.158.138.29.288.345h.001c-.019.243-.126.396-.258.579l-.176.275c-.186-.077-.378-.208-.482-.419zm.503 73.65l.007-.081c.218.02.397-.015.537-.084l-.043.033c-.114.103-.165.237-.21.356-.061.155-.084.189-.124.193-.036-.081-.099-.148-.177-.196l.01-.221zm.242 8.159c-.068.121-.123.228-.157.332l-.021-.208c-.019-.159-.03-.274-.019-.364l.067.045.162.132-.032.063zm.365-2.573l-.118-.008-.275-.031v-.064l.166-.112.091.048.177.091-.041.076zm1.593-5.732c-.095.082-.171.152-.218.262l-.016.044-.106-.147c-.073-.158-.231-.259-.405-.259h-.657l-.185.038c.206-.13.319-.332.386-.5.303.105.496.19.677.269.176.077.345.153.59.235l-.066.058zm-1.163-12.093c.017-.195.119-.47.308-.595.055.131.099.224.155.299l-.037.127-.203.076-.132.046-.091.047zm1.302-30.971c-.607-.126-.708-.436-.725-.729-.01-.174-.12-.328-.283-.391l-.167-.033c-.111 0-.223.042-.308.123l-.08.08c-.081.083-.172.179-.233.179l-.042-.013c-.06-.213-.001-.469.164-.717.231-.347.566-.529.782-.529.167 0 .277.104.342.33.051.176.201.301.381.323.337.036.439.347.469.527.055.319-.046.717-.3.85zm.474-11.748c-.023-.203.003-.39.049-.504l.147.044.098.027c-.016.281-.09.512-.222.713-.031-.065-.058-.159-.072-.28zm1.638 56.761c-.048.138-.154.308-.387.337-.215.023-.383.199-.398.416-.007.108-.055.159-.337.254l-.298.12c-.197-.235-.112-.476.196-.98.149-.245.312-.515.352-.796.153.016.305-.007.453-.038l.298-.042c.153.169.208.477.121.729zm-.789-8.334l.148-.064c.103-.037.185-.11.235-.201l.002.005c.037.062.056.156.056.26 0 .208-.086.407-.177.407l-.119-.045-.023-.173c-.023-.072-.067-.14-.122-.189zm.859 11.929v-.398l.002.002-.002.396zm.143-.522l-.074.058-.048-.027c.021-.091.069-.155.149-.203l-.027.172zm.128-8.889l-.034.014-.007-.028-.064-.153c-.028-.04-.039-.134.014-.275.039-.101.099-.187.152-.243.065.064.148.111.24.127l.047.009.122.024c-.014.199-.046.246-.073.291l-.079.159c-.072-.007-.145 0-.217.028l-.101.047zm.469 4.318v.449l-.008-.425c-.065-.135-.167-.223-.287-.248l.007-.042.007-.065.025-.014c.096-.059.174-.147.273-.264.113-.136.231-.276.414-.344.171.084.385.225.35.396-.055.27-.549.557-.781.557zm3.11 7.152l-.129-.026c.055-.107.072-.23.035-.352l-.012-.123.087.128c.055.126.061.266.019.373zm3.934 11.114c-.11.017-.19.067-.239.094l-.067.035c-.059-.107-.162-.185-.278-.216.008-.083.052-.179.13-.328.059-.11.123-.236.17-.383l.079.017.18-.017.017.152c.019.125.045.293.008.646zm-.495-1.911l.071-.19c.115.042.243.127.324.326-.114-.065-.245-.111-.395-.136zm4.61 8.39c-.167.168-.261.255-.479.255l-.057-.001c-.165-.007-.327.07-.414.214l-.153.268c-.22.399-.386.662-.691.772-.245-.292-.506-.809-.437-1.238.035-.219.162-.397.374-.529.465.189.873.03 1.162-.14.169-.1.33-.196.535-.21l.074.1c.106.144.175.237.162.433l-.076.076zm1.6-5.583l-.072.182c-.03.107-.017.284.027.379-.155.121-.291.526-.419.526h-.325c-.209 0-.391.079-.438.281-.065.281-.339.417-.565.417-.066 0-.185-.032-.245-.127-.051-.08-.054-.217-.011-.376l.045-.002c.128.002.268-.059.354-.164.145-.174.271-.501.326-.851.022-.127.007-.253-.072-.355.126.017.248-.031.343-.118.12-.112.223-.251.315-.436.366.042.566.238.802.487l-.065.157zm-1.271-1.509c-.111.15-.222.25-.407.285h-.003l-.013-.051c-.134-.474-.16-.606.079-.726.074.094.182.154.301.167l-.007.043c-.015.1.004.199.05.282zm1.351-.033l-.156-.083c-.09-.272.003-.565.088-.75.407.035.596.229.599.41.001.183-.166.383-.531.423zm1.633 9.134c-.065 0-.164-.075-.199-.275.046-.033.118-.059.201-.059.038 0 .152.005.193.093-.053.19-.148.241-.195.241zm3.589.46c-.11.056-.195.16-.229.283l-.007.198-.003.025h-.002c-.053-.39-.279-.731-.469-1.015-.338-.504-.331-.624-.209-.733l.03.004c.033.027.067.16.085.226.053.205.126.486.474.555l.146.009c.042.111.127.202.231.253l-.047.195zm-.241-13.25c-.11.028-.208.097-.27.194l-.025.047-.055-.02c-.035-.108-.11-.2-.204-.261-.014-.163.032-.259.094-.385l.086-.199.169.004.171-.002c.105 0 .155 0 .189.057l-.06.054c-.081.096-.12.222-.106.346l.011.165zm-.71-1.957c-1.382 3.373-3.382 4.082-4.815 4.082-.925 0-1.921-.291-2.96-.865-.541-.299-1.077-.744-1.61-1.308l-.076.032c-.168-.005-.518-.318-.572-.626l.007-.148c-.987-1.246-1.97-2.941-2.968-5.146-1.585-3.502-2.833-7.423-3.709-11.654-.988-4.779-1.602-15.771-1.942-24.151-.183-4.487-.322-8.309-.423-11.64l-.077.035-.023-.097c-.027-.077-.088-.158-.15-.209l-.018-.066.147-.128-.005.021.115.079c-.143-4.807-.203-8.573-.193-11.77.009-3.005.145-5.736.273-8.035l-.011.059-.12-.05-.01-.02.138-.065.006.028.055-.972c.088-1.535.163-2.861.171-3.812.004-.555-.042-1.18-.09-1.841-.051-.685-.103-1.393-.101-2.075.011-5.446 1.092-10.157 3.213-14.003 1.253-2.274 2.654-3.918 4.18-4.968l-.039.007-.007-.013-.125-.144c.07-.114.187-.169.355-.235l.172-.076.188.106c1.132-.658 2.329-1.001 3.592-1.001 1.125.011 2.165.571 3.138 1.66.12-.075.261-.117.423-.117l.094.004.012.109.017.201-.253.154c.202.251.401.517.597.815 1.129 1.716 1.711 3.902 1.733 6.499.012 1.356-.21 2.39-.675 3.157-.526.866-1.318 1.323-2.285 1.323l-.164-.004c-.897-.047-1.596-.618-2.072-1.702l-1.424-.075-.033-.485c-2.745.611-3.993 4.619-4.51 8.025-.424 2.806-.75 6.293-.742 10.383.078 2.919.005 3.964-.01 6.964h.023c.151 0 .161.528.028.779l-.054.082v.021l.228.054c-.235 2.975-.123 4.397-.362 7.207.005 1.748.093 4.242.287 7.99.068.082.126.17.163.269.094.25.046.481-.113.674.155 2.893.369 6.468.653 10.956.746 11.804 1.365 18.431 1.893 20.262 1.05 3.641 2.578 6.052 4.421 6.974 1 .502 2.212-.719 2.991-1.493.415-.412.715-.71 1.056-.858.438-.19.677-.108 1.119-.06.212.023.461.053.701.053.233 0 .312-.031.316-.032l1.36-.552.057 1.45.02 2.016c.027 3.222-.388 5.977-1.201 7.966zm-3.935-56.715c-.125.073-.268.122-.426.082-.015-.161-.058-.31-.097-.445-.036-.13-.073-.253-.083-.376l-.024-.115c.408.209.642.386.63.854zm-1.081 20.466l-.087.109-.04-.169-.068-.271.149-.08.019-.017c.096.086.145.191.143.353l-.116.075zm.107 15.625l-.023.292c-.194.019-.232-.072-.241-.104-.02-.077.011-.203.085-.289l.087.049.092.052zm-.155-26.072l-.066.074-.088-.051-.102-.093c.047-.444.309-.533.662-.52l.023.043c-.111.203-.266.37-.429.547zm-.627-10.852c-.085 0-.205-.022-.298-.131-.069-.082-.141-.24-.107-.534.23-.211.597-.227.764-.037.053.062.087.136.097.218l.067.199-.162.122c-.088.104-.219.163-.361.163zm.313 34.985c-.041.178-.146.273-.323.289l.148-.433.116-.335c.065.137.096.31.059.479zm-1.17-51.378l-.163-.114c.032-.345.123-.586.271-.724l.027-.003c.139-.023.253-.107.318-.22.176.048.263.182.263.399.001.248-.125.548-.305.728l-.178.132c-.05-.089-.131-.159-.233-.198zm.131 43.936l-.006.055-.012.135-.06-.011-.055-.013-.003-.138-.002-.033.138.005zm-.486 10.425l.055.01-.005.042-.016.154-.164.065c.054-.08.098-.169.13-.271zm-.107-26.413c-.014-.079-.003-.153.03-.205l.117-.085.014.136-.019.154h-.142zm-3.375-29.569c-.086-.007-.174-.069-.312-.169l-.01-.006c.039-.311.113-.594.185-.871l.078-.312h.09c.078.279.032.421-.017.586-.072.23-.121.442-.014.772zm.149 18.292c-.049.178-.136.327-.226.481-.076.13-.156.263-.216.42l-.182.019-.15.014-.157-.056c-.023-.248.032-.453.164-.607.159-.188.467-.3.767-.271zm-.136 4.429l-.019.065-.023.018c-.042-.069-.1-.126-.171-.166l.048-.182.031-.041c.074.087.132.206.134.306zm-.564 3.071l.003.014c.04.129.133.232.253.283l-.079.205c-.357-.045-.733.047-1.003.141.176-.394.381-.629.826-.643zm-.034 12.519c.321-.403.999-.556 1.424-.313.143.083.237.401.321.686.058.192.117.39.198.559.042.082.106.149.185.193.59.328.538.539.435.958l-.048.206c-.093.062-.213-.035-.356-.143-.117-.09-.264-.201-.435-.27l-.166-.031-.248.027-.193.014-.092-.181-.161-.282-.074-.074c-.234-.176-.458-.275-.643-.358-.259-.113-.313-.152-.335-.253-.058-.258.006-.512.188-.738zm.815-17.149c.031-.095.082-.095.103-.095.185 0 .472.203.597.348l-.072.113-.116-.081c-.144-.105-.315-.23-.512-.285zm1.106 10.441c.074-.066.206-.091.383-.077.054.056.059.105-.008.229-.044.083-.061.177-.05.267-.066-.058-.158-.189-.213-.267l-.112-.152zm.61-2.71l.001-.067-.007-.437h.001c.097-.064.22-.145.307-.274.044.104.125.188.227.237l.093.151c.011.184-.053.278-.158.42-.099-.054-.192-.067-.264-.067l-.2.037zm.4-9.7c-.132-.06-.264-.112-.428-.112l-.165.017.08-.083.173.046c.177.052.376.091.645.053l.076.078-.085.095c-.107-.009-.195-.05-.296-.094zm.327-6.715c-.459.035-.713.288-.919.499l-.075-.09c-.047-.062-.108-.14-.196-.201l.136-.205c.171-.246.365-.522.408-.949.283-.146.591-.03.718.261.102.235.075.484-.072.685zm-.41-4.003l.133-.08c.109-.021.204-.085.269-.174l.05.146c.023.118.007.231-.044.318h-.276l-.069-.108-.063-.102zm-4.532-7.516c-.164.051-.344.042-.405-.019l-.032-.077.085-.187c.043-.112.087-.229.227-.352.148.134.185.285.125.635zm13.977 61.249l-.019.044-.095-.045c-.053-.054-.076-.177-.079-.349.097.044.206.053.308.027-.02.111-.064.207-.115.323zm.236-43.695c-.057-.057-.129-.097-.21-.115-.318-.073-.719-.252-1.112-.426-.352-.16-.689-.312-.96-.379-.028-.214.051-.299.169-.428.096-.103.218-.233.268-.437.604-.002.819-.484.962-.788l.056-.136h.464c.067 0 .024.585-.023.839-.042.215.077.438.28.518.272.104.229.71.209.966l-.01.152.03.188-.123.046zm.011-7.428h.011l.083.006v.173l-.009.071-.044.024-.037-.238-.004-.036zm.348-6.086l-.322.044-.173.012c-.022-.115-.001-.23.044-.367.148.077.286.15.38.25l.073.061h-.002zm.156-1.692v-.45h.002l-.002.45zm.366 1.683c.074-.053.099-.077.197-.074.121.006.176.051.209.089.163.184.134.635.117.906l-.009.229-.048.011-.072.022-.062.023c-.178-.245-.314-.537-.409-.869-.03-.108-.097-.198-.185-.253.091-.003.182-.03.262-.084zm.601 7.518c-.03.121-.072.141-.23.162-.044-.155-.058-.241-.043-.294.068.003.108.027.195.083l.078.049zm.159 40.329c-.138.158-.282.242-.418.242-.229 0-.454-.231-.539-.547-.083-.321.004-.592.239-.757.494.061.741.302.793.774-.056.085-.084.185-.075.288zm.546 46.109l-.01-.45h.01v.45zm-.037-42.208c.129-.012.245-.008.331.009-.037.071-.055.15-.052.23.007.154.057.359.109.563l-.068.028-.035.014c-.02-.176-.123-.333-.199-.455-.162-.253-.16-.318-.086-.389zm.209 3.151l-.019-.099-.037-.22c.081.075.183.116.291.121l-.01.044c-.034.086-.123.145-.225.154zm1.356 38.825l-.209-.001-.147-.304c-.131-.254-.224-.435-.166-.739.577.124.821.686.89.993-.056.034-.18.051-.368.051zm1.08-4.123c-.15-.041-.305.012-.406.086l-.07-.049-.097-.062-.203-.05-.07.005c-.201-.842-.666-1.72-1.426-1.855.136-.771.742-1.526 1.373-1.265.06.442.25.76.421 1.045.111.188.218.365.289.576-.076.099-.107.228-.083.358.035.176.171.315.344.353.032.426.011.524-.072.858zm.264-5.929c-.114.042-.204.13-.252.239l-.081.154-.065.007c-.034-.044-.055-.155-.076-.31-.015-.117-.03-.238-.07-.347l.015-.003.079-.016.114.089.126.064.218.119-.008.004zm7.702 4.582c-.129-.051-.266-.042-.381.028-.057-.045-.126-.078-.2-.093.231-.381.378-.587.601-.628.012.162.094.31.162.431l.109.231c-.097-.023-.198-.011-.291.031zm4.983 1.81v-.451h.002l-.002.451zm.665-6.528l-.171-.18c-.11-.125-.231-.259-.398-.358.093-.346.354-.55.722-.55.278 0 .55.12.74.324-.039.438-.308.668-.893.764zm.058-4.101l.011-.255.008-.153c.097.02.25.035.411.022l-.04.064c-.077.114-.171.258-.2.447l-.153-.093-.037-.032zm1.921 2.731l-.114-.021c.007-.133.059-.188.096-.214l.018.23v.005zm.085-20.736c.042.183-.038.342-.182.587l-.141-.383c-.083-.111-.215-.821-.355-.821h-.016c-.097 0-.188.683-.261.74l-.143-.034c-.091.915-.195 1.898-.322 2.831-.279 2.048-.657 4.061-1.111 5.978l.037.039-.084.176c-.201.837-.418 1.662-.652 2.468l.047.344c.045.233.103.52.019.712-.048.112-.048.24-.003.352.049.115.139.203.252.247.495.195 1.368.622 1.65 1.315.122.3.114.611-.023.942-.28-.067-.324-.214-.354-.315-.051-.165-.189-.288-.358-.316l-.073-.003c-.125 0-.242.049-.328.143-.064-.122-.176-.272-.363-.508-.25-.317-.559-.708-.553-1.015.001-.147-.069-.285-.186-.37l-.143-.125c-1.113 3.452-2.333 5.237-3.834 5.593-.201.048-.405.072-.606.072-1.436 0-2.653-1.125-3.722-3.44-.977-2.114-1.817-4.88-2.498-8.219-.634-3.103-1.226-6.739-1.76-10.809-.536-4.076-.934-7.647-1.216-10.916-.324-3.738-.571-7.05-.753-10.121l-.085-1.483c-.18.073-.371.081-.52-.022-.003-.089-.035-.177-.091-.25l-.11-.104c.009-.632.303-.873.53-1.001l.109-.107c-.192-3.657-.308-6.844-.342-9.487-.036-2.851-.037-5.511-.003-7.906l.036-2.67c.038-2.791.073-5.41.127-7.836.069-3.113.106-5.733.108-7.576.002-1.834.007-3.439.015-4.772.008-1.349.055-3.016.144-5.099.024-.573.051-1.122.079-1.655l-.127.218c-.082.109-.177.237-.227.418l-.178.081-.03.026-.084-.029c.054-.149.066-.312.078-.467.029-.369.058-.563.349-.639.01.092.047.179.11.25l.113.088c.074-1.401.16-2.669.258-3.774.137-1.553.359-3.264.66-5.085.172-1.043.365-1.98.573-2.823l-.05.014c-.108.036-.186.059-.297.049-.263-.344-.459-.606-.387-1.044.413.111.68.386.809.697.15-.577.306-1.117.473-1.587 1.146-3.223 2.533-4.79 4.24-4.791 1.421 0 2.593.391 3.503 1.145l.052-.104c.165-.329.264-.476.526-.494.02.136.086.263.142.368.06.117.104.208.12.287l-.173-.044c-.155-.017-.298.049-.392.158-.063-.079-.153-.131-.252-.154l.082.059c.822.72 1.53 1.65 2.104 2.768.532 1.035 1.032 2.391 1.486 4.029.432 1.559.794 3.063 1.077 4.475.273 1.371.524 2.992.769 4.956.312 2.502.634 5.875.906 9.497.552 7.316 1.071 14.539 1.423 21.739l.08.008c.152.174.225.41.236.752l.058.205c-.039.061-.063.134-.067.207l-.012.169-.009.148c-.07-.014-.145-.01-.217.011.185 4.063.317 8.121.363 12.184-.065 2.061-.118 3.758-.168 5.386l.212-.021.148.008c.248.273.457.577.448 1.118-.219-.025-.457.028-.677.088l-.168.043c-.077 2.524-.15 5.052-.251 8.701l.004.59-.005.053c-.257 2.472-.371 5.138-.351 8.151.013 2.118-.096 4.333-.311 6.607.249-.002.407-.025.527-.204l.07-.088.205.017.104.002c.117-.023.221-.072.287-.172.068-.1.092-.209.068-.329-.042-.209-.09-.448-.221-.637l.073-.062c.128.033.515.048.652.058.154.013-.317.031.683.083v.594c-1 .048-.452.115-.528.175-.092.069-.287.126-.417.165-.227.062-.485.295-.434.527zm.937 22.153c-.101.078-.144.104-.243.094-.073-.123-.107-.312-.145-.514-.03-.165-.067-.368-.148-.547l.095-.01c.066.194.187.328.291.438.132.143.232.251.218.489l-.068.05zm.742-3.262c-.249.011-.306-.075-.403-.278l-.085-.162c.051-.081.075-.18.07-.275v-.002c.243.123.417.323.562.545-.063.044-.112.105-.144.172zm.315-62.447c-.057.209-.212.359-.437.42-.127-.055-.231-.147-.34-.241-.108-.095-.226-.199-.375-.275l.095-.138c.236-.337.401-.536.83-.516.206.203.294.489.227.75zm.002-18.098l-.01.056-.161.114c-.017-.104.022-.312.07-.447l.127-.024c.012.065.001.151-.026.301zm.473 15.04l-.172.046-.118.089c0-.173-.012-.343-.033-.52.157.047.335.088.538.101l-.075.091-.14.193zm.147 42.278c0-.102.035-.19.1-.255.041-.042.113-.091.232-.115l.126.138c.083.116.171.303.156.48-.119.032-.216.113-.274.212-.243-.072-.338-.305-.34-.46zm.577 11.826c-.124-.005-.25.037-.341.126.023-.077.059-.149.111-.209.069-.083.157-.135.228-.135.074 0 .13.083.157.22l-.155-.002zm.758-24.372c-.331 0-.523-.255-.563-.743.293-.07.699-.177.82-.57.365.098.75.441.82.768.015.068.047.217-.142.343-.134-.059-.294-.05-.423.034-.168.109-.351.168-.512.168zm-.202-54.046l.156.42-.045.018-.111-.438zm1.265 81.447l-.095-.067-.249-.163c-.006-.385.09-.532.133-.58.152-.163.528.079.574.376.016.104-.012.293-.363.434zm2.437 5.325h-.151c-.028-.106-.019-.197.009-.245.015-.023.039-.061.14-.066l.02.157-.018.154zm.083-5.858c-.023.07-.077.189-.191.228-.212-.034-.286-.292-.283-.458.004-.096.034-.406.351-.406l.046.001c.096.145.148.404.077.635zm-.553-6.912l.019-.038.044-.085.011-.028.101.124-.047.075-.128-.048zm4.118 7.252c-.029.067-.068.148-.08.257l-.251.044c-.205.035-.362.061-.572.149.004-.193.111-.454.255-.688.08.03.167.037.255.019.161-.036.328-.062.439.019.008.082-.014.127-.046.2zm1.479-3.128c-.156.028-.259.103-.328.15l-.097.061h-.003c-.291-.059-.49-.478-.459-.789.04-.409.388-.409.502-.409l.105.004c.217.354.337.655.28.983zm2.433-.533v.077l-.127.095-.196.125c-.025-.108-.087-.205-.178-.27l.09-.075.219-.202.094.026.116.033.021.007-.039.184zm.867-.68l-.183.072-.071.021-.003-.08-.015-.266.149-.004.073-.017.051-.011c-.021.078-.023.161-.001.244v.041zm3.688-1.182c-.104.217-.312.354-.525.354-.188 0-.368-.096-.534-.283.11-.353.219-.689.403-.927.19-.017.237.007.321.086l.121.096.195.061c.109.197.119.414.019.613zm-.338-4.544l.036-.094c.045-.053.242-.085.32-.052l-.156.073c-.073.038-.146.088-.2.073zm2.556-4.957l-.043-.006-.033-.197.025-.006.042.089.021.12h-.012zm2.083-30.088l.005 1.587-.156 1.192.045 6.07c.013 5.766-.399 11.105-1.165 15.349.11.056.199.145.234.276.051.183.004.374-.123.506-.073-.008-.164-.028-.244-.068-.101.518-.205 1.026-.317 1.506-1.098 4.691-2.83 8.227-5.009 10.226-1.152 1.056-2.279 1.592-3.351 1.592-.815 0-1.555-.303-2.222-.882l-.019.005.005-.017c-.751-.658-1.407-1.67-1.958-3.055-1.159-2.91-2.101-7.31-2.723-12.724-.709-6.154-1.261-9.97-1.736-12.007-.035-.152-.086-.377-.9-24.096-.125-3.64-.061-7.576.002-11.382.114-6.932.232-14.1-.819-19.374l-.11-.492c-.17-.734-.403-1.739-.408-2.864-.008-1.413.197-2.707.608-3.847.526-1.462 1.284-2.214 2.252-2.236h.001c1.608 0 3.411 1.356 3.456 11.922.235 13.088.511 26.434.818 39.654.274.945.493 2.661.687 5.369.197 2.758.302 5.021.311 6.729.009 1.617.167 3.578.483 5.996.312 2.39.743 4.903 1.277 7.471.533 2.564 1.225 4.599 2.057 6.047.474.825.833 1.043.957 1.043.033 0 .159-.017.392-.222 1.295-1.144 2.132-5.293 2.239-11.102.015-.758.027-1.649.025-2.644l-.016-4.954-.007.027-.031-.063.038-.132c-.026-8.624-.054-17.247-.083-25.87l-.046-13.781c-.007-1.859-.219-4.614-.731-9.507-.459-4.375-.735-8.255-.742-10.38-.004-2.188.25-3.712.779-4.66.622-1.113 1.41-1.691 2.344-1.72l.601-.018.298.522c.793 1.393 1.184 2.049 1.99 3.349l.15.241.004 2.619c-.229 3.465-.342 5.054-.567 8.086.013 4.782.2 11.117.529 17.76.339 6.851.502 10.989.547 13.93l.013.112-.011.002.007.595.031.676.104 1.972.053 1.422.162-.043c.108-.038.185-.063.302-.048.207.248.366.511.335.976-.161.129-.403.254-.646.178l-.113.002.112 3.179zm-19.753-33.66c-.007-.086.064-.232.122-.316l.064.026-.077.223-.026.086-.083-.019zm20.391 62.546c-.065.117-.136.249-.179.396-.134-.064-.209-.194-.209-.374 0-.146.053-.299.149-.409.062-.074.14-.125.23-.157l.14.153c.023.08-.011.17-.131.391zm.144-65.694l-.157.118c.014-.127.086-.317.228-.546.301-.466.765-.848 1.034-.848.048 0 .194 0 .253.393.019.123.098.236.199.309-.087.312-.164.339-.304.386-.133.044-.31.105-.511.305l-.043-.058c-.077-.115-.201-.188-.336-.199-.137-.012-.271.041-.363.14zm.867.567l-.114-.433.045-.014.069.447zm-.248 29.728l-.046-.041.032-.054.022-.036c.394.157.515.309.55.39l.02.068c-.245-.031-.386-.156-.578-.327zm.24-8.773l-.09-.089c.176-.088.435-.091.513-.051-.139.059-.3.112-.423.14zm.502-5.511l.092-.059.1.13c.014.081-.001.251-.01.349l-.017.296c-.139-.103-.236-.313-.236-.496-.001-.095.023-.169.071-.22zm.074 13.003l-.105-.078c.017-.069.014-.145-.005-.217l-.027-.07.178-.071c.072.092.111.22.118.381l-.159.055zm.236-33.945c.159-.127.295-.194.395-.194.34 0 .504.938.624 1.627l.089.485-.255-.157c-.748-.457-1.193-.79-.853-1.761zm.555 18.27c.234-.191.687-.293 1.087-.25.058.517.405.754.688.952.112.076.219.151.305.236-.073.04-.166.056-.305.056l-.233-.004c-.269 0-.551.035-.832.264-.541-.188-.818-.674-.71-1.254zm1.826-5.824c.051.164.125.414.119.479-.07.484-.386.852-.739.852-.087 0-.178-.021-.271-.061.218-.633.342-1.359.463-2.065.058-.342.118-.693.188-1.028l.006.005c.081.086.06.35.043.559l-.016.251c-.005.313.112.696.207 1.008zm-.159 37.633l.118.227c.114.191.221.375.171.742l-.133.081c-.085.049-.201.113-.29.22-.119-.111-.261-.217-.431-.32.026-.695.113-.928.565-.95zm-.578-10.539l-.012.044-.065.083c-.118-.074-.135-.226-.135-.303 0-.12.039-.24.104-.326l.048-.052c.052.157.095.245.144.337l-.084.217zm-.328-17.772l.041-.222c.037.075.09.138.157.181l-.107.093-.091-.052zm.001 2.912l-.084.18-.02.029-.074-.118c-.034-.087-.037-.171-.009-.241l.071.05.116.1zm-.672 1.503l.03-.179-.006-.221.125.097c.129.065.28.067.406.005.073-.036.155-.094.222-.189l.151.193c.172.231.363.485.684.621l-.282.286c-.342.322-.76.717-.603 1.402l-.13.082c-.019-.086-.009-.168.03-.235.108-.186.073-.421-.089-.565-.252-.226-.414-.603-.479-1.125l-.059-.172zm.532 9.313l.04.019c.016.19.133.332.351.423-.062.136-.135.216-.204.216h-.001c-.06 0-.174-.075-.236-.24-.057-.154-.038-.301.05-.418zm1.09 38.658c-.18.154-.392.335-.483.647-.423-.104-.659-.323-.64-.605.023-.339.37-.627.753-.627.16 0 .397.049.667.264-.06.115-.159.203-.297.321zm.738-2.739c-.032.035-.104.073-.189.073h-.001l-.075-.011c-.016-.142-.1-.27-.231-.341l.013-.262c.074.029.126.097.209.217.07.104.153.225.283.314l-.009.01zm.492-42.416c.038-.418.269-.708.561-.708.106 0 .224.034.351.1.14.18.275.451.192.755-.076.279-.325.517-.707.67-.363-.111-.421-.577-.397-.817zm.608 26.376c-.242-.198-.353-.644-.244-1.006.104-.345.395-.491.781-.416.198.292.308.877.182 1.314l-.27.059c-.147.039-.271.07-.449.049zm1.159 9.6l-.349-.016-.185.007-.07-.246.24-.22c.318-.306.521-.472.844-.406.021.168.067.309.11.44.039.117.077.232.092.364-.224.143-.452.096-.682.077zm1.989-14.31l-.072.031c-.021-.077-.016-.142.009-.186.031-.049.086-.076.155-.076l.075.012c-.075.053-.135.129-.167.219zm1.331 17.679c-.428-.043-.448-.227-.462-.338l-.001-.012c.129-.077.212-.205.219-.354l.034-.03c.075 0 .254.127.321.336.047.154.01.288-.111.398zm1.371-6.048l.015-.314.136.053c.045.051.059.145.058.239l-.209.022zm5.388-26.133c-.023-.127.021-.287.111-.502.095.049.155.09.189.145-.054.168-.152.286-.3.357zm1.101-2.547c-.176-.014-.265-.11-.335-.678-.026-.198-.053-.418-.129-.607.137.05.28.126.412.196.173.091.34.179.501.223-.089.271-.262.67-.449.866zm-1.16-3.677c-.229 3.327-.379 6.426-.392 8.089-.012 1.561-.04 3.039-.085 4.384-.044 1.361-.132 2.871-.261 4.486-.205 2.585-.598 4.618-1.164 6.101l.116-.03.128.014c.213.165.423.388.426.855-.159.037-.29.158-.334.325l-.02.087-.009-.151-.126-.192h-.001c-.386 0-.554.05-.633-.112-.177.326-.362.724-.565.967-.53.634-1.208 1.045-1.859 1.045-.603 0-1.121-.302-1.353-.821-2.05-4.587-2.648-11.891-3.282-19.628-.338-4.122-.688-8.397-1.274-12.115-.354-2.25-.74-4.587-1.131-6.917-1.615-9.636-3.285-19.909-3.13-28.223.04-2.14 1.293-4.195 2.914-4.195h.002c.943 0 1.642.867 1.972 1.717.191.5.332 1.14.423 1.413.107.334.194.829.268 1.394l.147 1.195c.034.291.068.737.102 1.301.035.571.167 2.177.371 4.334l.079.846c.215 2.3.592 6.317 1.118 10.958.032.121.054.244.059.363l-.017.007.214 1.845c.857 7.218 1.975 14.117 2.824 18.955.267-2.482.584-5.239.909-7.572.716-5.135.909-10.846 1.098-16.368.044-1.303.089-2.586.139-3.852l-.096.042c-.04-.089-.112-.165-.206-.213-.067-.032-.151-.155-.213-.262l.169-.109c.105-.036.189-.109.241-.2l.13.096c.192-4.624.482-8.923 1.202-12.503.357-1.773 1.907-3.298 3.385-3.329l2.474-.048-.063 1.079c-.334 5.702-1.164 15.725-2.402 25.208-1.188 9.078-2.032 15.907-2.294 19.734zm2.943 9.957l-.07.128c-.039.099-.039.208-.009.307l-.053.002c-.14 0-.262-.095-.326-.252-.069-.173-.048-.36.048-.496h.328c.153.202.123.249.082.311zm.669-36.317l-.073.047-.019-.01-.061-.032.007-.067.188-.088-.042.15zm1.865 46.307l-.252.115c-.054-.268-.047-.533.104-.764.201.056.328.187.444.367.006.13-.037.178-.296.282zm.42-8.479c-.284-.005-.487-.075-.607-.204-.102-.109-.155-.28-.157-.503-.003-.151-.077-.288-.199-.371-.075-.052-.162-.076-.251-.076l-.164.03-.005.001c-.048-.174-.031-.337.046-.461.069-.107.181-.175.286-.175.133 0 .224.106.259.311.037.211.215.367.429.375.26.008.43.111.507.311.087.235.02.568-.144.762zm-.32-7.693c.1-.376.207-.64.417-.774.048.147.035.301.004.536l-.421.238zm.746-7.118c-.122.128-.242.136-.477.138l-.255.011c.027-.372.058-.77.033-1.169.101.098.215.174.316.24.282.185.473.312.383.78zm.865-45.669l.088.002c.108.142.214.309.195.471-.013.119.022.236.092.328-.042.149-.244.494-.535.494l-.041-.002c-.303-.034-.508-.424-.491-.747.015-.25.146-.546.692-.546zm.366 58.394l.02.121c0 .006-.014.126-.102.193-.016-.156 0-.213.082-.314zm-.188-3.35c-.07.04-.127.102-.166.171-.13-.044-.22-.133-.28-.209-.114-.149-.183-.352-.183-.54 0-.147.039-.374.267-.448.063.109.17.19.304.216l.125.031c.126.209.084.359-.067.779zm-.029-26.072c-.09-.167-.15-.355-.142-.51l.034-.142.18.085c.23.101.353.168.402.292-.011.029-.045.053-.182.108-.081.034-.196.082-.292.167zm-.78 34.288c.102-.753.533-1.027 1.046-1.35l.048-.029c.126.236.129.466.135.805.002.166.003.346.021.548-.122.147-.272.215-.48.215-.232 0-.502-.087-.77-.189zm1.345 8.371c-.178-.125-.266-.319-.234-.525.032-.204.177-.368.378-.433.23.067.312.363.296.565-.01.126-.066.425-.44.393zm1.409-11.153l-.108-.056-.023-.153.155.029-.024.18zm-.015-4.105c-.146.003-.245-.01-.294-.025-.015-.167.032-.263.095-.39l.031-.066.053.031c.171.096.236.145.25.248l-.135.202zm2.277 11.236l-.001.001c-.04-.018-.075-.065-.139-.181l-.021-.039.146-.178.058.058c.083.077.12.112.108.21l-.151.129zm.426-7.026c-.181.103-.343.186-.606.131l-.127-.23c-.047-.101-.099-.218-.177-.318.141-.086.305-.139.454-.139.198 0 .341.083.427.246.051.097.133.169.231.208l-.202.102zm1.075.776l-.027.097-.075-.038c-.092-.099-.082-.421-.079-.527.005-.132-.049-.26-.146-.35l-.153-.091c.084-.049.153-.128.189-.222l.021-.05c.191.026.315.082.373.165.134.201.015.613-.103 1.016zm1.931-3.895c-.083.326-.154.61-.385.865l-.239.014c-.618 0-1.102-.316-1.623-.657l-.381-.241c.136-1.097.711-2.211 1.563-2.211.265 0 .548.11.836.323.172.276.223.486.252.771.015.158.113.29.246.357-.14.27-.204.526-.269.779zm-.655-5.199c-.011-.07.011-.12.045-.205l.018-.039.062.124-.08.078-.045.042zm3.245-4.393c-.551.709-1.276 1.598-2.157 2.642-.825.978-1.238 1.467-2.061 2.452-1.978 2.361-2.857 2.687-3.513 2.687-.485 0-.916-.234-1.182-.642-.289-.442-.417-1.086-.416-2.087.01-3.799.023-7.596.036-11.394-.205-.087-.42-.172-.699-.196-.001-.148.017-.283.033-.401.017-.126.033-.25.028-.374l.178-.1.118-.113.28-.029.067.004.019-6.179c-.114.048-.234.111-.316.233-.26-.236-.304-.562-.25-.803.066-.293.264-.482.505-.482l.064.013.008-2.612c.013-3.902.024-7.803.036-11.704-.429.09-.735-.082-.799-.485-.047-.305.066-.782.457-.961l.157.075.189.088c.01-3.189.021-6.379.03-9.568-.043.041-.106.08-.191.085-.031-.11-.065-.25-.063-.359l.034.051c.051.077.315.121.399.154l.187-2.044v-.098l-.285.008-.136-.003c-.026-.124-.127-.244-.179-.355-.061-.13-.158-.291-.127-.364.021-.052.086-.099.15-.128.158.012.245.035.301.062l-.064.053-.01.015.783-.167c2.298-.486 3.447-.715 5.746-1.146l.257-.019c.852 0 1.716.344 2.568 1.023.913.73 1.393 1.72 1.391 2.863-.006 2.195-1.314 3.476-3.887 3.804l-1.715.145c.173 5.008.27 6.869.449 9.957-.002.794-.064 1.813-.178 3.011l-.036.409c.574-.384 1.071-.688 1.484-.907.621-.331 1.218-.513 1.773-.542l.138-.003c.475 0 .854.14 1.13.416.245.246.379.583.378.949-.004.505-.229 1.019-.709 1.619-.402.504-.913.95-1.518 1.324l-1.659.993c-.278.173-.508.351-.681.527l-.006 1.142c-.021 3.579-.033 5.907-.054 13.226 1.122-1.309 1.693-1.959 1.743-2.014 2.262-2.451 3.228-2.953 3.981-2.953.373 0 .719.141.974.396.314.314.467.759.465 1.356l-.037.548c-.329 1.184-.88 2.461-1.637 3.799-.781 1.388-1.427 2.402-1.971 3.103zm1.359-20.719v.45l-.013-.451.013.001zm-3.898-5.143l.124-.021.172.137c.095.095.219.221.426.267.035.079.036.17.006.265-.045.14-.146.24-.23.275-.104-.004-.228-.024-.282-.095-.052-.069-.063-.197-.033-.389.027-.172-.046-.34-.183-.439zm-.481-7.868c-.429-.171-.593-.635-.787-1.304l-.071-.248-.083-.149.042-.053.193-.321c.226-.401.375-.63.802-.63l.284.032c.174.145.259.405.357.704.098.303.198.616.418.842.053.088.142.153.238.192.08.032.173.037.26.02.062.028.128.069.16.131l-.048-.002c-.174.006-.296.077-.38.206l-.142.236c-.474-.129-.927.098-1.243.344zm.268 3.862l-.06-.042c-.09-.06-.151-.101-.195-.197l.187-.035.055.229.013.045zm-.321 14.666c-.193-.306-.221-.628-.076-.913.159-.322.51-.549.85-.549.356 0 .552.246.654.471-.088.066-.153.163-.175.277-.033.176.037.349.177.449l-.038.042-.168.222h-1.224zm.536 8.522c.021.175-.016.413-.051.505l-.127.03c-.038 0-.06-.011-.156-.137l-.191-.208c.082-.048.196-.085.334-.127l.191-.063zm5.001 16.639h-.001c-.167 0-.339-.036-.533-.116l-.132-.112c-.16-.122-.332-.499-.31-.754.372.099.637.345.885.815.037.068.089.126.15.166l-.059.001zm1.848-3.357c-.211.198-.411.383-.599.599-.467.009-.844-.122-1.088-.379-.216-.227-.324-.548-.305-.903.05-1.018.941-1.069 1.119-1.069.324 0 .644.108.913.302.003.271.042.763.331 1.096l-.371.354zm.508-2.557c-.261-.147-.469-.412-.529-.683-.046-.209 0-.401.132-.556.128-.151.258-.226.393-.226.25 0 .56.294.604.716.02.221-.03.604-.6.749zm.587-48.536c-.391.102-.678-.026-.787-.35-.092-.274-.021-.592.166-.763.299-.055.533.05.653.291.125.255.109.588-.032.822zm.64 19.669c-.092-.034-.178-.05-.261-.05l-.131.013.108-.176.084-.134c.137.053.269.072.382.082-.067.081-.132.164-.182.265zm.265 27.44l-.011.099c-.065-.072-.066-.167-.066-.173l.044-.137.019.035.026.045-.012.131zm1.244 3.379c-.063-.068-.076-.166.097-.431l.143.174c-.022.152-.094.23-.24.257zm.618-8.271c-.106.062-.181.164-.209.282-.076.324-.167.535-.287.676-.21.084-.4.128-.566.128-.543 0-.738-.479-.738-.926 0-.597.33-1.21.881-1.21.197 0 .417.075.65.226.189.118.288.412.378.779l-.109.045zm-1.31-2.539v.451l-.02-.451h.02zm.024-.668l.04-.391.154.275c.077.151.157.304.274.436-.054.226-.183.331-.423.346-.102-.131-.09-.32-.045-.666zm1.538-.858c-.055.072-.141.11-.242.11-.094 0-.19-.035-.271-.095-.009-.136.033-.278.113-.378.114-.14.286-.146.448-.03.026.13.033.287-.048.393zm2.013 11.228c-.171-.137-.275-.312-.398-.514-.146-.239-.31-.508-.611-.751.003-.099.064-.144.292-.231l.286-.134-.005.284c-.016.455-.036 1.013.464 1.302l-.028.044zm.901-4.816l-.028-.094c-.037-.114-.066-.206-.054-.341l.174-.088c.092 0 .228.259.305.401l.038.073.068.092-.503-.043zm1.981-5.292c-.115.101-.174.25-.153.402.044.316-.113.625-.268.927l-.155.32-.02-.081c-.071-.057-.216-.241-.431-.241h-.017c-.152 0 .05-.559.389-.743l.237-.101c.202-.128.268-.374.155-.583-.115-.209-.372-.285-.588-.182l-.098.034-.017-.047-.022-.049.085-.173.005-.175c.069.021.184.136.275.227.16.163.357.361.645.391l-.022.074zm2.28 1.316l-.005.004-.041-.041.022-.108.116.029-.092.116zm.453-2.462l.148-.214c.17.087.334.212.394.363.028.07.032.143.012.222-.318-.017-.461-.139-.554-.371zm1.469-14.918l-.344-.288v-.815c0-1.372-.743-2.62-1.496-3.347-.616-.592-1.226-.882-1.523-1.074-.198-.129-.343-.231-.444-.322l-.254-.241c-.161-.153-.354-.345-.595-.553-.014 1.377-.013 3.222-.03 11.007-.004 1.777-.849 3.689-2.429 5.386-.685.733-1.276 1.09-1.924 1.09l-.104-.014c-.335-.043-1.202-.312-1.202-1.985v-.592l.001-4.876-.361-.012c.127-.108.26-.179.361-.189.006-5.984.029-7.429.111-8.956.071-1.339-.073-2.695.021-7.278.01-2.295.015-3.657.024-7.559.003-.869.178-1.65.536-2.113.423-.553 1.238-.877 2.642-.877h.119c1.147 0 2.333.436 3.623 1.286 1.122.738 2.078 1.548 2.842 2.598 1.518 2.092 2.192 3.711 2.19 5.113-.004 1.23-.622 2.417-1.945 3.669l-.638.616c.39.115.761.22 1.111.307l.124.032c.544.124 1.455.334 2.651 1.277.824.651 1.547 1.509 2.149 2.546l.135.234.053 1.121c0 1.621-.647 3.142-1.896 4.281-1.112 1.021-2.318 1.204-3.508.528zm3.238 9.665l-.157-.189.171-.28.028-.042.157.144c-.085.11-.148.235-.199.367zm2.82-3.369l-.074-.16c-.039-.142-.161-.243-.296-.292l-.143-.025c-.084 0-.169.022-.242.06l-.307.064c-.219.039-.447.081-.639.177-.167-.25-.194-.583-.22-1.127l-.016-.293c-.007-.13-.09-.246-.195-.327-.102-.078-.254-.105-.382-.078-.187.037-.279.033-.404-.02-.19-.173-.374-.457-.227-.86.136-.369.502-.667.815-.667.19 0 .331.124.418.37.04.113.123.206.229.257.108.052.234.058.345.019.393-.141.699-.073.899.216.217.313.287.847.178 1.358-.028.133.005.272.089.376.087.106.213.168.347.168.26.002.357.119.523.471.076.165.167.354.311.52-.346.159-.818.065-1.009-.207zm.78-13.461c.056-.102.136-.149.271-.159l.069.147c-.125-.017-.24-.011-.34.012zm.825-8.961l-.041.022-.206-.126c-.125-.067-.212-.12-.226-.177l.03-.161c.258.11.409.241.483.422l-.04.02zm2.236 22.488c-.016.027-.057.105-.225.105-.079 0-.208-.019-.396-.093.005-.27.07-.482.146-.695l.114.025c.058.013.184.028.276.007.139.279.153.527.085.651zm.571-6.979c-.383.035-.566-.099-.811-.292l-.011-.006c.175-.43.401-.575.824-.564.044.061.1.204.1.428.001.234-.059.376-.102.434zm-1.153-1.975c-.181-.552-.257-1.312-.253-1.74.183-.248.393-.372.623-.372.525 0 1.064.6 1.285 1.069-.211.593-.753.933-1.655 1.043zm2.227-4.361c-.07-.048-.15-.073-.232-.077-.079-.139-.048-.279.17-.551l.064.022c.025.271.023.317-.002.606zm.154-9.195c-.219.035-.446.066-.641.066-.417 0-.571-.145-.591-.56-.007-.155.014-.371.156-.519.154-.162.415-.197.607-.197.131 0 .275.015.429.045.039.19.114.339.181.475.098.2.18.364.152.649l-.293.041zm2.817 19.079c-.063.105-.26.161-.491.136-.125-.169-.09-.385.12-.753l.105.096c.054.097.152.17.26.208.04.106.061.227.006.313zm.252-11.831c-.124-.014-.25.027-.349.112-.133.121-.183.311-.128.482l.041.199c-.086-.024-.104-.091-.132-.272-.016-.099-.041-.259-.133-.386l.201-.211.035-.041c.155.03.319-.026.424-.15l.022-.004c.023.035.023.17.019.271zm-.309-13.422v-.361h.889c-.128.231-.461.442-.889.361zm2.549.307l-.076.136-.175-.116c-.132-.134-.206-.336-.205-.554 0-.092.021-.491.361-.629l.045.109c.178.289.327.709.05 1.054zm.227 2.363v-.427l.007.004-.007.423zm1.254 16.527l-.014-.08c-.023-.145-.04-.26-.033-.352l.006.004.101.057c.003.149-.015.272-.06.371zm.993-15.007c-.268-.003-.445-.126-.655-.297l-.052-.043v-.626c.112-.057.205-.082.29-.063l.035.005.033.018.09.067c.121.125.262.442.286.94h-.027zm.856 2.592v-.449l.02-.002-.02.451zm0-1.008c-.065.156-.134.332-.165.546-.199-.024-.337-.097-.409-.22-.135-.227-.087-.662.125-1.173.094.072.199.124.292.17.146.077.246.13.296.206-.02.175-.079.316-.139.471zm2.023-9.506c.586-.014.93.177.996.37.06.168-.092.352-.229.476-.431-.119-.679-.393-.767-.846zm.681 3.9c-.09-.064-.076-.119-.066-.152.04-.158.231-.318.411-.297-.085.224.016.431.073.547l.055.082-.133.071-.023-.044c-.069-.111-.188-.185-.317-.207zm1.217 15.68c-.254-.013-.389-.058-.63-.135l-.399-.123.041-.148c.058-.204.136-.477.052-.699l.055-.023c.188-.087.354-.165.478-.354.217.026.452.117.569.358.144.302.074.758-.166 1.124zm2.682-20.185l-.049.023-.06-.075c-.021-.039-.027-.123.01-.227l.145.009-.046.27zm2.053-1.219c.285.003.304.126.312.185.031.195-.101.445-.21.538-.073-.046-.139-.151-.167-.277-.041-.177-.015-.349.065-.446zm.203 2.183l-.153.011-.171-.031c-.041-.22-.041-.333.001-.554l.062.005.043.003.046.014.132.038.063.02v.085c.002.117.007.326-.023.409zm.415 3.772l-.074.3-.108.051c-.048-.066-.114-.114-.188-.142.015-.118.053-.211.113-.276.068-.07.171-.116.31-.138l-.053.205zm1.195 1.083l-.118.049-.019-.038.07-.065c.062-.067.101-.158.113-.253l.033-.011.099-.046.022.188.007.094-.207.082zm.227-3.877l-.197-.131c-.241-.154-.467-.301-.621-.501.052-.451.212-.717.431-.717.177 0 .43.169.55.48.114.297.053.606-.163.869zm9.585 1.326c-.361-.178-.514-.353-.571-.52l.043.016c.179.067.379.014.5-.128l.021-.005.076.121c.053.179.017.393-.069.516zm1.924-.973c-.196-.062-.378-.039-.56-.001l-.162.032c-.099-.115-.196-.285-.127-.46.072-.183.317-.309.594-.309l.164.013c.115.229.181.552.091.725zM218.721 319.938l-.059.061.027.036.032-.097zM199.401 285.746l-.401-.142v-.149c0 .02.242.016.32-.013l.178-.079c.132-3.855.214-6.632.196-8.634-.028-3.271-.044-5.545-.066-6.932l-.005-.541c-.02.122-.072.254-.15.442l-.016.04c-.328-.146-.564-.321-.73-.538 0-.129.016-.271.077-.333.076-.078.34-.067.654-.035l.091.008.075.2c-.027-1.322-.072-3.068-.136-5.268-.044-1.556-.107-3.074-.179-4.568-.112.097-.268.16-.452.16-.134 0-.267-.033-.389-.092-.125-.359-.125-.655-.002-.835.156-.229.558-.227.8-.042-.037-.717-.071-1.446-.114-2.142-.148-2.393-.083-5.094-.301-8.207-.031-.44.15-.864.15-1.295v.446l-.25-.696h-.123c-.204-3-.517-4.974-.813-7.202-.292-2.201-.655-4.292-1.006-6.388l-.048.055c-.086.071-.15.129-.235.143-.108-.099-.166-.284-.127-.462.017-.074.061-.184.171-.236l.128.067-.14-.845c-.442-2.523-.971-4.505-1.572-5.891-.526-1.211-.876-1.553-.989-1.64-.191.053-.362.331-.476.567-.313.657-.592 1.686-.825 3.054-.243 1.436-.468 2.937-.666 4.461-.195 1.51-.355 3.339-.476 5.436l-.316 5.559c-.09 1.578-.156 3.448-.198 5.561-.042 2.108-.078 3.767-.106 5.035-.029 1.26-.039 2.757-.029 4.475l.01 1.968c.087-.028.194-.062.285-.132.086.132.102.321.108.613l.02.37c-.162.031-.29.088-.406.15l.005.456.027 2.373c.077 6.604.479 13.637 1.227 21.502l.016.167c.036.062.04.147.023.247l.161 1.717c.629 6.758 2.038 21.909 4.385 24.998.361-.852.865-2.437 1.214-4.542l-.105.106c-.158-.128-.307-.407-.307-.682 0-.086.016-.205.093-.28l.113-.066.009.012.06.18c-.016.116.011.232.077.326l.106.11.067-.428c.539-3.852.918-8.448 1.129-13.662.123-3.065.186-5.699.265-7.974l-.086-.033zm-.279-20.358l.009.033c.026.08.073.149.135.201l-.059.087-.079.088c-.102-.116-.146-.221-.119-.41h.113zm-7.265 4.21c-.155.024-.265-.024-.406-.106l-.059-.034v-.481l.132-.101.131-.096.03.094.078.287c.016.133.086.241.186.313l-.092.124zm.704-3.889l-.07.031c-.067.037-.124.092-.163.158.034-.087.041-.182.019-.276l-.007-.023h.002l.218.021v.089zm.328-10.622c-.137.371-.787.824-1.348.824-.386 0-.455-.229-.474-.402-.018-.161.038-.313.16-.45.243-.271.702-.446 1.172-.446.135 0 .264.015.383.044.171.169.148.319.107.43zm.847 13.281c-.044.08-.129.188-.357.237-.315-.245-.352-.57-.391-1.145-.015-.2-.03-.421-.064-.66.167-.036.334-.001.56.064.315.725.401 1.231.252 1.504zm.262-7.635c-.069.137-.219.227-.377.227l-.049-.001c-.083-.142-.147-.313-.145-.555l.098-.029.028.035.14.168c.086.088.199.134.315.136l-.01.019zm.73 44.19l-.049.001-.202.014c.069-.03.13-.078.178-.137l.077.109-.004.013zm-.121-53.263l-.047-.037c-.247-.198-.463-.373-.555-.663l.132-.023c.132-.006.252-.073.331-.176.07.029.148.041.226.034.042.03.089.091.102.217.021.216-.072.485-.189.648zm.154-15.064l-.133-.06-.11-.013c-.08 0-.157.022-.229.067h-.068l-.078-.091c.023-.101.007-.211-.037-.307l-.02-.036.206-.013.216.001.184-.005c.024.125.101.233.206.298l-.137.159zm1.702-3.468v.451l-.008-.451h.008zm-1.124 20.432c-.039-.072-.074-.197-.056-.303.024.096.081.181.158.244l-.102.059zm.454 35.608l-.113-.034-.177-.05.116-.094c.143.045.242.123.308.222l-.134-.044zm.063-40.956c.055-.101.077-.223.055-.337-.026-.193.126-.427.226-.563.365-.018.615.071.729.254-.032.18-.097.327-.163.47-.063.142-.127.286-.152.45-.432-.029-.61-.148-.695-.274zm.92.729l-.015-.449h.014l.001.449zm-.5 59.602l-.004-.011-.058-.131.005.004.179.065.005.037-.127.036zm-.097-52.03c-.22-.396.013-1.294.285-1.816l.239-.035c-.036.293.104.568.225.804.193.378.358.708.034 1.172-.406.12-.664.086-.783-.125zm.652 18.006l.056-.127c.076-.095.111-.221.095-.343l-.031-.114.151-.001.146.279.102.22c-.136.096-.304.121-.519.086zM276.479 220.308c-.093 2.92-.16 4.26-.248 5.563l.104-.087.207-.174c.306-.701.484-1.157.806-2.168-.022-.976-.293-2.001-.786-2.976l-.083-.158zM218.721 319.938l.021-.021-.021.021zM123.594 247.113c-.02-.891-.042-1.887-.059-2.896-.066-4.039-.104-7.209-.114-9.54-.159.412-.323.83-.492 1.25-1.419 3.531-2.263 4.933-2.557 5.367l.008.06c.046.099.124.176.223.22l.017.248-.09.043-.043.022c-.123.052-.216.154-.255.28-.04.126-.023.264.047.375l.004.006c-.338.05-.595.216-.808.356-.237.154-.444.272-.67.233-.2.275-.349.52-.42.672.429.826 2.301 2.316 3.232 3.058.363.289.69.551.948.77.347.295.713.59 1.058.86l-.029-1.384z"/></g></svg>