<?xml version="1.0" encoding="utf-8"?>
<!-- Generator: Adobe Illustrator 17.0.0, SVG Export Plug-In . SVG Version: 6.00 Build 0)  -->
<!DOCTYPE svg PUBLIC "-//W3C//DTD SVG 1.1//EN" "http://www.w3.org/Graphics/SVG/1.1/DTD/svg11.dtd">
<svg version="1.1" xmlns="http://www.w3.org/2000/svg" xmlns:xlink="http://www.w3.org/1999/xlink" x="0px" y="0px" width="384px"
	 height="550px" viewBox="0 0 384 550" enable-background="new 0 0 384 550" xml:space="preserve">
<g id="Borders" display="none">
	<g display="inline">
		<rect x="0.392" y="-0.055" fill="#5D5D5D" width="384" height="550"/>
	</g>
</g>
<g id="Labels">
</g>
<g id="Names">
	<g>
		<path fill="#FFFFFF" d="M81.326,231.218c-0.854,2.072-1.878,4.029-2.788,6.216c-0.456,0.863-0.684,1.957-1.024,2.647
			c-0.342,0.633-1.195,0.979-1.024,2.072c-0.569,0.518-0.569,1.094-0.797,1.957c-0.341,0.863-0.967,1.669-1.309,2.475
			c-0.057,0.403,0,0.863-0.171,1.151c-0.17,0.518-0.626,1.036-0.91,1.669c-0.228,0.806-0.398,1.784-0.739,2.417
			c-0.342,0.518-0.911,0.864-1.195,1.497c-0.398,0.921-0.341,1.957-1.081,2.533v1.208c-1.252,1.439-1.195,4.144-2.674,5.238
			c-0.342,1.957-1.024,4.202-2.391,5.41c-0.512,0.403-1.479,0-2.275-0.115c-0.74-0.058-1.65-0.058-2.617-0.058
			c-1.081,0-2.618,0.345-3.244,0.058c-0.854-0.345-0.967-1.669-1.422-2.82c-0.626-1.611-1.821-3.05-2.39-4.892
			c0.113-0.345,0.17-0.633,0.341-0.979c-0.854-0.748-0.854-2.015-1.365-3.396c-0.398-1.208-1.252-2.302-1.764-3.511
			c-0.342-0.921-0.342-1.957-0.684-2.878c-0.228-0.69-0.796-1.093-1.081-1.669c-0.568-1.208-0.683-2.59-1.081-3.856
			c-0.17-0.518-0.568-0.921-0.854-1.439c-0.397-0.863-0.568-1.036-0.739-2.302c-0.342-2.417-1.536-4.834-2.276-6.964
			c-0.228-0.633-0.512-1.208-0.683-1.727c-0.512-1.036-1.593-1.899-0.854-3.568c1.764-0.518,4.211,0,6.089,0
			c0.854,1.094,1.081,1.957,1.649,3.396c0.342,0.863,1.309,2.245,1.65,3.338c0.228,0.864,0.398,1.785,0.797,2.533
			c0.113,0.345,0.284,0.69,0.341,1.036c0.171,0.403,0.455,0.575,0.683,1.036c0.342,0.576,0.684,1.324,0.854,2.015
			c0.058,0.518,0.398,0.921,0.513,1.439c0.057,0.518,0.341,0.863,0.512,1.381c0.228,0.69,0.569,1.266,0.74,1.957
			c0.228,0.863,0.512,1.611,0.854,2.475c0.228,0.749,0.683,1.497,0.967,2.302c0.171,0.403,0.342,0.863,0.513,1.209
			c0.17,0.288,0.455,0.806,0.455,1.093v0.749c0.228,0.23,0.398,0.575,0.568,0.921v0.69c1.081,0.748,0.513,3.223,2.049,3.568
			c0-0.172,0.171-0.172,0.171-0.345c0.568-3.108,2.73-4.662,3.243-7.885c0.113-0.345,0.455-0.806,0.626-1.036
			c0.228-0.403,0.455-0.748,0.739-1.208c0.398-0.748,0.854-1.611,0.91-2.532c0.114-0.864,0.114-1.439,0.626-2.302
			c0.285-0.691,0.911-1.381,1.252-2.13c0.342-0.863,0.74-1.727,1.081-2.532c0.398-0.806,0.854-1.439,1.195-2.245
			c0.341-0.921,0.739-1.842,1.138-2.82c0.797-1.842,1.536-3.799,2.39-5.698c1.479-0.69,3.187,0.173,4.894,0
			c0.569-0.058,1.081-0.403,1.65-0.172C82.236,228.8,81.155,229.952,81.326,231.218z M52.079,243.995
			c-0.342,0-0.342,0.46-0.342,0.863C52.534,245.722,53.047,243.995,52.079,243.995z M60.5,263.162
			c-0.341-0.173-0.739-0.058-0.796,0.172C59.704,264.025,61.013,263.852,60.5,263.162z M65.394,262.644
			c-0.341-0.345-1.252-0.23-1.024,0.518C64.825,263.507,65.394,263.276,65.394,262.644z"/>
		<path fill="#FFFFFF" d="M97.601,231.736c0,0.288,0,0.633,0,0.979c-0.057,0.633-0.284,1.381-0.341,1.957
			c0,0.921,0.284,1.842,0.341,2.877c0,0.576-0.057,1.151-0.113,1.727c0,0.575-0.058,1.151-0.058,1.611
			c0,0.403,0.114,0.576,0.171,0.979c0.114,0.691,0.114,1.554,0,2.245c-0.057,0.345-0.171,0.633-0.171,0.979
			c0,0.46,0.171,0.863,0.171,1.324c0,0.288-0.171,0.633-0.171,0.921c-0.113,0.345,0.114,0.691,0.058,1.036
			c0,0.288-0.058,0.576-0.058,0.863c0,0.633,0.058,1.266,0.058,1.957c0,0.172-0.058,0.46-0.058,0.69
			c0,0.806,0.114,1.324,0.058,2.015c0,0.288-0.228,0.69-0.228,0.979c0,0.288,0.228,0.633,0.228,1.151
			c0.057,0.46-0.058,1.094-0.058,1.842c0,0.288,0,0.633,0,0.979c0,0.806,0,2.015,0,3.281c0,0-0.17,0.173-0.17,0.288
			c0,0.058,0.17,0.23,0.17,0.346c-0.113,0.345-0.228,0.633-0.228,1.036c-0.057,0.749,0.228,1.957-0.171,2.82
			c-0.17,0.518-0.397,0.576-1.194,0.806c-0.683,0.172-1.594,0.172-2.39,0.115c-0.626,0-1.252,0.058-1.878,0.058
			c-0.455,0-1.138,0.173-1.423-0.058c-0.284-0.115-0.284-0.979-0.228-1.266c0-0.576,0-1.151,0.114-1.727
			c0.057-0.691,0.284-1.324,0.341-2.13c0-0.69-0.284-1.611-0.228-2.475c0-0.288,0.058-0.576,0.058-0.863
			c0-1.209-0.058-2.59-0.058-3.972c-0.057-0.23,0.058-0.518,0.058-0.806c0-0.345-0.114-0.576-0.058-0.69
			c0.058-0.633,0.74-0.864,0.854-1.382c0.058-0.748-0.91-1.324-0.967-2.187c-0.114-0.345,0.057-0.863,0.171-1.208
			c0.228-0.518,0.568-0.576,0.397-1.266c-0.113-0.115-0.113-0.403-0.17-0.46c-0.058-0.23-0.342-0.23-0.398-0.691
			c-0.114-0.518,0.341-1.381,0.341-2.129c-0.057-0.518-0.455-1.036-0.512-1.727c-0.057-0.691,0.228-1.727,0.284-2.706
			c0-0.288-0.113-0.69-0.113-0.978c0-0.288,0.171-0.691,0.171-0.864c0-0.23-0.058-0.46-0.058-0.748s0.058-0.691,0.058-1.266
			c0-0.23,0.17-0.403,0.17-0.576c-0.057-0.345-0.284-0.691-0.341-1.036c-0.114-0.576-0.114-1.381-0.171-2.014
			c0-1.036-0.057-1.899,0-2.993c0.057-0.288,0.057-0.576,0.171-0.69c0.113-0.46,0.626-0.806,0.854-1.151
			c0.739-0.058,1.536-0.288,2.275-0.23c0.398,0.057,0.74,0.23,1.081,0.23c0.285,0,0.684-0.173,0.968-0.058
			c0.455,0,0.739,0.173,1.081,0.288c0.398,0.115,0.854,0,1.138,0.345C97.601,229.261,97.715,230.354,97.601,231.736z"/>
		<path fill="#FFFFFF" d="M134.983,240.484c-1.423-2.59-3.982-4.202-6.543-5.583c-1.765-0.288-3.13-0.403-4.837-0.403
			c-0.569-0.115-1.252-0.288-1.935-0.115c-0.512,0.115-0.91,0.691-1.479,0.806c-0.398,0.23-0.797,0-1.081,0.115
			c-0.342,0.173-0.739,0.518-1.138,0.691c-1.081,0.575-2.731,1.381-3.414,2.187c-0.228,0.288-0.228,0.633-0.513,1.036
			c-0.512,0.69-1.365,1.151-1.593,1.669c-0.398,0.691-0.854,2.417-1.081,3.223c-1.081,3.684,0.228,8.461,1.991,10.878
			c0.569,0.691,0.968,1.554,1.366,2.072c0.397,0.518,1.309,0.69,1.877,1.094c0.513,0.403,0.911,0.921,1.366,1.324
			c1.593,0.863,3.471,0.979,5.234,1.151c1.195,0.23,2.561,0,3.869-0.288c2.675-0.46,4.95-2.187,6.715-4.259
			c0.512-0.69,0.91-1.439,1.365-2.129c0.228-0.403,0.398-0.691,0.512-1.094c0.114-0.172,0.171-0.403,0.285-0.576
			c0.284-0.403,0.967-0.288,1.479-0.403c0.683,0,1.309,0,1.991,0c0.568,0,1.252,0.115,1.991,0.173c0.284,0,0.569,0.115,0.854,0.345
			c0.683,0.173,0.398,1.094,0.284,1.669c-0.17,0.691-0.397,1.382-0.568,2.188c-0.513,1.324-1.195,2.532-2.39,3.396
			c-0.058,0.23,0,0.806-0.285,0.921c-0.91,1.497-2.958,1.669-3.527,3.454c-1.309,0.23-1.707,1.208-2.902,1.611
			c-0.284,0.115-0.683,0.115-0.967,0.23c-0.683,0.288-0.968,0.979-1.65,1.151c-0.398,0.115-1.024,0.115-1.479,0.23
			c-0.398,0.115-0.797,0.288-1.138,0.403c-0.569,0.115-1.366-0.23-2.22-0.115c-1.706,0.115-3.3,0.806-4.381-0.172
			c-1.878,0.172-4.324-0.691-5.804-1.497c-1.195-0.633-2.788-1.612-3.642-2.59c-0.284-0.345-0.398-0.748-0.626-1.036
			c-0.398-0.403-0.854-0.576-1.138-0.863c-0.228-0.346-0.228-0.806-0.513-1.209c-0.284-0.403-0.796-0.633-1.309-0.921
			c-0.398-0.288-0.796-0.69-0.967-1.208c-0.114-0.173-0.114-0.288-0.228-0.46c-0.058-0.345-0.285-0.633-0.455-0.921
			c-0.114-0.115-0.114-0.403-0.229-0.518c-0.057-0.173-0.284-0.403-0.397-0.46c-0.058-0.288-0.058-0.518-0.171-0.691
			c-0.114-0.23-0.285-0.403-0.398-0.633c-0.284-0.403-0.512-0.863-0.683-1.497c-0.285-0.979-0.513-2.014-0.626-2.993
			c-0.171-3.108,0.398-6.677,1.309-9.497c0.171-0.46,0.512-0.979,0.683-1.496c0.228-0.576,0.398-1.267,0.626-1.669
			c0.057-0.288,0.455-0.518,0.74-0.921c0.739-1.208,1.479-2.302,2.674-3.396c0.398-0.288,0.797-0.46,1.195-0.863
			c0.796-0.806,1.365-1.093,2.39-1.842c1.252-0.69,2.959-1.842,4.723-2.187c0.284-0.058,0.683,0.115,0.967,0
			c0.398-0.058,0.683-0.403,1.081-0.46c1.878-0.518,4.154,0.058,6.146,0c0.398,0,0.854-0.23,1.365-0.23
			c0.626,0.115,2.162,0.69,3.357,1.208c1.195,0.403,1.878,0.921,2.845,1.497c2.391,1.324,5.463,3.684,6.715,5.986
			c0.512,0.979,1.194,2.302,1.707,3.799c0.398,0.806,0.854,1.669,0,2.302c-0.626,0.518-1.594,0.115-2.561,0.288
			c-1.024,0.23-2.162,0.806-3.243,0.69C135.553,242.499,135.438,241.405,134.983,240.484z M119.45,262.644c0-0.173,0-0.288,0-0.518
			c-0.342-0.173-1.081,0-0.968,0.633C118.767,262.931,119.393,262.874,119.45,262.644z"/>
		<path fill="#FFFFFF" d="M183.009,234.383c-0.455,0-0.968,0.115-1.423,0.115c-0.683,0-1.479-0.403-2.276-0.403
			c-1.649,0-3.471,0-5.007,0.576c0,1.611,0.284,3.914,0.171,5.755c0,0.576-0.398,1.209-0.398,1.669c0,0.633,0.342,1.439,0.398,2.188
			c0.171,1.669,0,3.166,0.171,4.604c0.17,1.842-0.342,3.856-0.228,5.583c0,0.46,0.284,1.036,0.284,1.496
			c0,0.403-0.114,0.691-0.228,1.094c0,0.748,0.171,1.899,0.228,2.763c0,1.208-0.114,2.417,0,3.223
			c0.113,0.518,0.512,4.547-0.455,4.604c-0.797,0.058-1.65,0-2.447-0.058c-0.796,0-1.479-0.115-2.219-0.115
			c-0.455,0-1.878,0.173-2.219-0.057c-0.513-0.576,0.284-2.475,0.284-3.108c0-1.151-0.284-2.475-0.284-3.684
			c0.113-0.806,0.398-1.611,0.398-2.302c0.113-1.439-0.285-3.05-0.229-4.547c0-0.576,0.342-1.324,0.398-1.957
			c0-0.863-0.398-1.899-0.284-2.993c0.057-1.669,0.398-3.454,0.284-5.295c-0.057-1.036-0.284-2.705-0.228-3.971
			c0.058-0.403,0.342-0.806,0.342-1.151c0-0.46-0.284-0.921-0.284-1.324c0.113-1.151,0.284-2.59-0.626-2.993
			c-0.854-0.288-1.935,0.115-2.902,0.173c-0.739,0-1.479-0.288-2.219-0.288c-1.024,0-2.105,0.403-3.243,0.46
			c-2.846,0.23-5.918-0.172-8.82,0c-0.796-1.266-0.455-3.166,0-4.72c0.171-0.69,0.285-1.324,0.797-1.669
			c0.284-0.23,1.423-0.46,1.935-0.46c0.513,0,0.91,0.403,1.366,0.403c0.228,0,0.683-0.172,1.023-0.288
			c1.479-0.058,2.846,0.403,3.699-0.23c2.39,0.115,5.007,0.23,7.738,0.23c0.455,0.115,1.023-0.23,1.593-0.23
			c1.991-0.23,4.04,0.346,5.918,0.173c2.275-0.173,4.324-0.058,6.601,0c1.309,0.058,2.561-0.23,3.755-0.173
			c0.74,0,1.479,0.403,2.276,0.403c1.081-0.057,2.048-0.863,3.698-0.633c1.365,0.23,2.845,0.979,3.016,2.59
			c0,0.46-0.228,0.921-0.228,1.554c-0.114,1.381,0.284,3.108-0.797,3.453C189.268,235.017,186.081,234.383,183.009,234.383z
			 M160.59,232.139c0-0.173,0-0.345,0-0.518c-0.228-0.058-0.284-0.288-0.683-0.23c-0.171,0.23-0.114,0.748,0.113,0.806
			C160.306,232.196,160.533,232.196,160.59,232.139z M164.516,232.196c0-0.23,0-0.46,0-0.69c-0.341-0.403-0.739-0.173-1.023,0.23
			C163.492,232.312,164.061,232.599,164.516,232.196z M165.483,232.023 M168.101,231.333c-1.138,0.058,0,1.611,0.626,1.094
			C168.67,231.966,168.385,231.563,168.101,231.333z M171.003,241.232c-0.683-0.806-1.479,0.806-0.455,0.863
			C170.832,242.039,171.116,241.808,171.003,241.232z M171.003,251.535c0.341,0.173,0.739,0.173,0.854-0.115
			c0-0.518-0.854-0.633-0.911-0.058C171.003,251.362,171.003,251.42,171.003,251.535z M173.165,231.736
			c-0.74-0.23-1.935-1.439-2.162-0.403C170.775,232.196,173.165,233.232,173.165,231.736z M171.799,238.297
			c-0.228,0.23-0.228,0.69,0.228,0.69C172.425,238.815,172.368,238.182,171.799,238.297z M172.255,243.362
			c-1.139,0.345-0.285,1.669,0.341,1.611C173.563,244.801,173.278,243.074,172.255,243.362z M175.896,230.988
			c0.113,0.806,0.113,1.554,0.625,1.554C177.717,232.599,177.034,229.836,175.896,230.988z"/>
		<path fill="#FFFFFF" d="M200.479,249.693c-0.171-0.288-0.171-0.518-0.171-0.806c-0.057-0.46,0.228-0.863,0.398-1.381
			c0.114-0.23,0.057-0.288,0.114-0.46c0.113-0.173,0.455-0.518,0.455-0.806c0-0.518-0.228-0.806-0.455-1.209
			c0.228-1.036-0.285-2.36,0-3.396c0.113-0.288,0.398-0.518,0.568-0.691c0.171-0.288,0.342-0.518,0.513-0.691
			c-0.114-0.863,0.398-1.093,0.568-1.611c0.114-0.345,0.228-0.748,0.398-1.266c0,0,0-0.288,0.114-0.345
			c0.057-0.288,0.341-0.346,0.512-0.633c0.114-0.058,0-0.058,0.171-0.173c0-0.115,0.171-0.23,0.284-0.403
			c0.342-0.403,0.684-0.748,0.968-1.094c0.683-0.806,1.194-1.669,1.764-2.302c0.569-0.518,1.252-0.806,1.65-1.439
			c0.739-0.058,1.194-0.518,1.82-0.864c0.114,0,0.171,0,0.342-0.115c0.341-0.173,0.797-0.518,1.309-0.806
			c0.171-0.115,0.455-0.23,0.797-0.403c0.341-0.23,0.91-0.345,1.593-0.575c0.398-0.115,0.797-0.346,1.195-0.46
			c0.341-0.058,0.796,0.058,1.194,0c0.455-0.058,0.854-0.346,1.309-0.403c0.854-0.115,1.537,0.288,2.333-0.23
			c1.65-0.115,3.13,0.288,4.495,0.576c0.398,0.058,0.74,0,1.024,0.058c0.342,0.115,0.626,0.288,0.854,0.345
			c1.252,0.345,2.446,0.576,3.243,1.381c0.285,0.115,0.455,0.173,0.626,0.288c0.342,0.058,0.513,0.345,0.91,0.633
			c0.058,0.058,0.228,0.058,0.285,0.058c0.057,0,0.057,0.172,0.113,0.288c0.513,0.23,1.139,0.345,1.65,0.576
			c0.113,0.115,0.455,0.576,0.797,0.748c0.284,0.173,0.341,0.403,0.626,0.576c0.455,0.23,0.854,1.036,1.309,1.497
			c0.17,0.23,0.455,0.345,0.626,0.575c0.113,0.115,0.113,0.288,0.228,0.403c0.057,0.115,0.284,0.172,0.341,0.23
			c0.171,0.288,0.171,0.633,0.285,0.863c0.228,0.345,0.455,0.691,0.796,1.094c0,0.058,0.171,0.058,0.171,0.058
			c0.057,0.115,0,0.172,0,0.288c0.171,0.173,0.284,0.345,0.455,0.518c0.057,0,0.285,0.518,0.342,0.633
			c0.171,0.345,0.341,0.979,0.512,1.496c0.398,0.979,0.74,1.669,0.797,2.763c0.113,0.403,0,0.921,0,1.381
			c0.113,0.518,0.342,0.921,0.342,1.439c0.113,0.346-0.058,0.633-0.058,1.036c0,0.288,0.171,0.288,0.058,0.576
			c0,0.172-0.058,0.172-0.058,0.403c0,0.403,0.058,0.863,0.058,1.208c0,0.633-0.342,1.266-0.398,1.842c0,0.403,0.057,0.806,0,1.209
			c-0.114,0.345-0.285,0.633-0.398,1.093c-0.114,0.346-0.114,0.863-0.228,1.151c-0.114,0.23-0.285,0.345-0.455,0.69
			c-0.285,0.633-0.456,1.381-0.854,2.015c-0.114,0.23-0.398,0.46-0.513,0.69c-0.171,0.23-0.284,0.518-0.455,0.749
			c-0.113,0.23-0.398,0.403-0.512,0.633c-0.058,0.058-0.058,0.403-0.114,0.576c-0.057,0.058-0.284,0.115-0.228,0.288
			c-0.398,0.172-0.569,0.518-1.081,0.518c-0.284,0.576-0.455,1.151-0.854,1.612c-0.228,0.288-0.739,0.633-1.081,0.921
			c-0.342,0.23-0.626,0.518-1.024,0.863s-0.568,0.633-1.194,0.863c-0.228,0.058-0.626,0.058-0.854,0.345
			c-0.058,0-0.058,0.173-0.114,0.173c-0.341,0.288-1.081,0.46-1.593,0.69c-0.342,0.115-0.74,0.173-1.081,0.288
			c-0.513,0.23-0.854,0.46-1.423,0.633c-0.342,0.115-0.739,0-1.138,0.173c-0.342,0-0.569,0.288-0.854,0.288
			c-0.91,0.172-1.992,0.057-2.902,0.115c-0.455,0.058-0.854,0.23-1.194,0.23c-0.569,0-0.968-0.288-1.423-0.46
			c-2.105,0.633-3.698-0.749-5.86-0.749c-0.285-0.288-0.626-0.403-0.968-0.518c-0.797-0.403-1.423-0.748-2.219-1.208
			c-0.342-0.23-0.626-0.46-0.968-0.748c0-0.058-0.057-0.23-0.113-0.23c-0.058-0.058-0.171,0-0.171,0
			c-0.057-0.058-0.114-0.23-0.114-0.23c-0.967-0.403-1.707-1.151-2.446-1.784c-0.797-0.691-1.138-1.151-1.764-1.957
			c-0.285-0.403-0.626-0.806-0.797-1.209c-0.171-0.23-0.342-0.518-0.455-0.748c-0.171-0.23-0.342-0.288-0.513-0.46
			c0-0.115,0-0.23-0.057-0.345c0,0-0.171-0.058-0.171-0.115c-0.284-0.518-0.284-1.266-0.91-1.727c-0.171-0.345,0-0.633-0.171-1.036
			c-0.057-0.115-0.228-0.23-0.228-0.288c-0.057-0.173-0.057-0.46-0.113-0.691c-0.057-0.288-0.171-0.46-0.171-0.748
			c0-0.173,0.114-0.345,0.171-0.518c0.113-0.46,0-1.151-0.171-1.612c-0.057-0.172-0.171-0.345-0.284-0.46
			C200.535,249.809,200.535,249.751,200.479,249.693z M205.258,251.19c0.229,0,0.513,0,0.456-0.345
			c-0.114-0.115-0.398-0.115-0.456,0C205.258,250.959,205.258,251.075,205.258,251.19z M225.116,259.536
			c0.455-0.115,0.968-0.288,1.309-0.46c0.455-0.173,0.968-0.346,1.252-0.518c0.228-0.173,0.455-0.46,0.797-0.749
			c0.284-0.345,0.739-0.748,0.91-0.979c0.228-0.345,0.455-0.46,0.683-0.69c0.569-0.576,0.74-0.979,1.195-1.727
			c0.113-0.288,0.455-0.576,0.512-0.749c0.171-0.518,0.342-1.208,0.569-1.496c0.171-0.346,0.284-0.691,0.398-0.979
			c0.284-0.518,0.626-0.979,0.683-1.324c0-0.46-0.171-0.979-0.171-1.497c0-1.036,0.171-2.129,0-2.993
			c0-0.345-0.171-0.633-0.341-0.978c-0.171-0.691-0.342-1.439-0.569-2.015c-0.398-0.691-0.74-1.612-1.081-2.13
			c-0.342-0.46-0.626-0.748-0.91-1.093c-0.342-0.633-0.626-0.979-1.024-1.266c-0.455-0.346-0.854-0.691-1.195-0.979
			c-0.455-0.346-0.91-0.518-1.252-0.806c-0.512-0.288-0.967-0.461-1.422-0.749c-0.228-0.115-0.513-0.345-0.626-0.403
			c-0.342-0.115-0.91-0.115-1.423-0.23c-0.455-0.115-0.854-0.288-1.252-0.345c-0.568-0.058-1.138,0.058-1.422,0.115
			c-1.309,0.288-2.846,0.173-4.268,0.345c-0.513,0.403-1.195,0.518-1.707,0.863c-0.569,0.288-0.968,0.863-1.65,0.979
			c-0.512,0.518-1.024,1.036-1.479,1.497c-0.228,0.288-0.797,0.518-0.967,0.633c-0.569,0.518-0.968,1.554-1.479,2.187
			c-0.171,0.23-0.455,0.403-0.513,0.633c-0.17,0.345-0.17,0.921-0.341,1.438c-0.057,0.173-0.285,0.346-0.342,0.518
			c-0.057,0.23-0.113,0.518-0.228,0.806c-0.284,1.208-0.455,2.82-0.284,4.259c0.113,1.036,0.739,1.957,0.626,3.051
			c0.512,0.575,0.512,1.438,0.854,2.072c0.171,0.345,0.568,0.691,0.91,1.151c0.398,0.403,0.626,1.036,0.967,1.324
			c0.114,0.115,0.285,0.172,0.456,0.345c0.341,0.173,0.626,0.403,0.796,0.518c0,0.058,0.171,0.173,0.171,0.23
			c0.513,0.403,0.968,0.864,1.423,1.209c0.683,0.518,0.91,0.69,1.707,0.979c0.568,0.172,1.024,0.288,1.536,0.46
			c0.739,0.172,1.365,0.058,2.162,0.403c1.138-0.403,2.219,0,3.243-0.173C223.182,260.226,224.263,259.823,225.116,259.536z"/>
		<path fill="#FFFFFF" d="M272.629,254.355c0.569,1.208,1.594,1.899,1.594,3.568c0.228,0.633,1.194,1.036,1.65,1.727
			c0.455,0.576,0.568,1.497,1.023,2.417c0.228,0.345,0.683,0.518,1.024,1.036c0.228,0.172,0.342,0.69,0.626,0.921
			c1.024,1.439,2.617,2.129,1.479,3.741c-1.479,0.46-3.3,0.403-4.779,0.115c-1.252-0.23-2.504-0.115-3.187-0.633
			c-0.285-0.23-0.626-1.036-1.024-1.612c-0.683-1.266-1.195-2.129-1.935-3.396c-0.683-1.151-0.797-1.899-1.65-2.59
			c-0.341-0.748-0.455-1.381-0.797-2.129c-0.17-0.46-0.739-0.748-0.967-1.208c-0.91-1.612-0.512-3.741-1.878-5.008
			c-2.617,0.403-6.031-0.518-8.193,0.461c-0.114,2.129,0.057,4.489,0.171,6.389c0.057,1.093-0.285,2.129-0.228,3.28
			c0.057,1.267,0.341,2.533,0.284,3.856c0,0.518-0.171,0.863-0.284,1.381c-0.114,0.403-0.171,0.749-0.74,0.863
			c-0.455,0.058-1.081,0-1.536,0c-0.854,0.058-1.65,0.058-2.446,0.058c-0.569,0-1.707,0.288-1.935-0.345
			c-0.114-0.403-0.058-0.748-0.058-1.151c0-0.288-0.057-0.518-0.057-0.863c0.057-0.863,0.284-1.611,0.284-2.36
			c0-0.288-0.228-0.518-0.228-0.806c0-0.403,0.228-0.748,0.228-1.151c0.114-2.417-0.228-4.777-0.228-6.677
			c0.058-1.094,0.626-2.417,0-3.281c0.968-3.511-0.341-7.425,0.398-10.993c-0.797-1.439,0.057-3.05,0-4.604
			c0-0.345-0.398-0.806-0.398-1.208c0-0.749,0.684-1.669-0.057-2.36c0.626-1.439,0.284-3.684,1.707-4.317
			c1.252-0.46,3.016,0.346,4.097,0.346c0.626,0,1.252-0.461,1.878-0.518c1.65-0.173,3.755,0,5.462,0.115
			c0.968,0.058,1.821,0.403,2.731,0.403c0.398-0.058,0.797-0.23,1.195-0.346c1.024,0,2.333,0.288,3.471,0.403
			c3.243,0.46,4.894,1.267,7.112,2.706c0.569,0.345,1.195,0.863,1.536,1.324c0.684,0.806,1.309,1.842,1.252,2.877
			c0.968,1.842,1.764,4.835,1.536,6.619c-0.057,0.748-0.568,1.151-0.91,1.842c-0.113,0.288-0.113,0.69-0.228,0.979
			c-0.057,0.23-0.398,0.403-0.455,0.633c-0.171,0.403-0.114,0.749-0.228,1.094c-1.138,2.82-4.95,3.626-7.17,5.353
			C271.548,252.744,272.8,253.262,272.629,254.355z M252.259,252.341c-0.683-0.23-0.854,0.46-0.626,0.806
			C252.088,253.146,252.259,252.801,252.259,252.341z M254.023,244.686c0.113-0.46-0.398-0.576-0.684-0.403
			C253.34,244.686,253.625,244.801,254.023,244.686z M260.737,244.513c0.683,0.058,1.309,0.345,1.991,0.345
			c0.91,0,1.707-0.345,2.504-0.345c0.683,0,1.309,0.345,1.878,0.345c0.967,0,1.877-0.575,2.503-0.748
			c0.455-0.173,1.024-0.115,1.366-0.23c2.162-0.749,3.243-2.533,2.845-5.18c-0.284-1.669-1.707-2.647-3.414-3.338
			c-0.967-0.403-1.82-0.172-2.902-0.23c-0.854-0.173-1.649-0.46-2.446-0.46c-0.455-0.058-1.024,0.172-1.479,0.115
			c-0.512,0-0.91-0.288-1.365-0.288c-2.105-0.173-4.438-0.288-6.031,0.403c-0.626,2.475-0.285,5.986-0.228,8.749
			C256.868,245.031,258.859,244.341,260.737,244.513z M269.386,250.959c-0.057-0.288-0.171-0.518-0.512-0.518
			c-0.114,0.691-0.342,1.324-0.342,2.13C269.386,252.687,269.045,251.478,269.386,250.959z"/>
		<path fill="#FFFFFF" d="M295.561,231.736c0,0.288,0,0.633,0,0.979c-0.057,0.633-0.284,1.381-0.341,1.957
			c0,0.921,0.284,1.842,0.341,2.877c0,0.576-0.057,1.151-0.113,1.727c0,0.575-0.058,1.151-0.058,1.611
			c0,0.403,0.114,0.576,0.171,0.979c0.114,0.691,0.114,1.554,0,2.245c-0.057,0.345-0.171,0.633-0.171,0.979
			c0,0.46,0.171,0.863,0.171,1.324c0,0.288-0.171,0.633-0.171,0.921c-0.113,0.345,0.114,0.691,0.058,1.036
			c0,0.288-0.058,0.576-0.058,0.863c0,0.633,0.058,1.266,0.058,1.957c0,0.172-0.058,0.46-0.058,0.69
			c0,0.806,0.114,1.324,0.058,2.015c0,0.288-0.228,0.69-0.228,0.979c0,0.288,0.228,0.633,0.228,1.151
			c0.057,0.46-0.058,1.094-0.058,1.842c0,0.288,0,0.633,0,0.979c0,0.806,0,2.015,0,3.281c0,0-0.17,0.173-0.17,0.288
			c0,0.058,0.17,0.23,0.17,0.346c-0.113,0.345-0.228,0.633-0.228,1.036c-0.057,0.749,0.228,1.957-0.171,2.82
			c-0.17,0.518-0.397,0.576-1.194,0.806c-0.683,0.172-1.594,0.172-2.39,0.115c-0.626,0-1.252,0.058-1.878,0.058
			c-0.455,0-1.138,0.173-1.423-0.058c-0.284-0.115-0.284-0.979-0.228-1.266c0-0.576,0-1.151,0.114-1.727
			c0.057-0.691,0.284-1.324,0.341-2.13c0-0.69-0.284-1.611-0.228-2.475c0-0.288,0.058-0.576,0.058-0.863
			c0-1.209-0.058-2.59-0.058-3.972c-0.057-0.23,0.058-0.518,0.058-0.806c0-0.345-0.114-0.576-0.058-0.69
			c0.058-0.633,0.74-0.864,0.854-1.382c0.058-0.748-0.91-1.324-0.967-2.187c-0.114-0.345,0.057-0.863,0.171-1.208
			c0.228-0.518,0.568-0.576,0.397-1.266c-0.113-0.115-0.113-0.403-0.17-0.46c-0.058-0.23-0.342-0.23-0.398-0.691
			c-0.114-0.518,0.341-1.381,0.341-2.129c-0.057-0.518-0.455-1.036-0.512-1.727c-0.057-0.691,0.228-1.727,0.284-2.706
			c0-0.288-0.113-0.69-0.113-0.978c0-0.288,0.171-0.691,0.171-0.864c0-0.23-0.058-0.46-0.058-0.748s0.058-0.691,0.058-1.266
			c0-0.23,0.17-0.403,0.17-0.576c-0.057-0.345-0.284-0.691-0.341-1.036c-0.114-0.576-0.114-1.381-0.171-2.014
			c0-1.036-0.057-1.899,0-2.993c0.057-0.288,0.057-0.576,0.171-0.69c0.113-0.46,0.626-0.806,0.854-1.151
			c0.739-0.058,1.536-0.288,2.275-0.23c0.398,0.057,0.74,0.23,1.081,0.23c0.285,0,0.684-0.173,0.968-0.058
			c0.455,0,0.739,0.173,1.081,0.288c0.398,0.115,0.854,0,1.138,0.345C295.561,229.261,295.675,230.354,295.561,231.736z"/>
		<path fill="#FFFFFF" d="M341.763,267.996c-0.398,0-0.967-0.172-1.593-0.172c-0.342,0-0.74,0-1.138,0
			c-0.797,0-1.366-0.23-1.935-0.23c-0.398,0-0.797,0.23-1.195,0.23c-0.342-0.23-0.569-0.403-0.968-0.403
			c-0.17-0.403-0.284-0.979-0.512-1.382c-0.171-0.403-0.398-0.978-0.569-1.381c-0.17-0.403-0.397-0.979-0.568-1.382
			c-0.228-0.575-0.569-0.978-0.797-1.554c0-0.403-0.171-1.094-0.569-1.727c-0.398-0.979-0.568-2.302-1.536-2.936
			c-5.633,0.403-12.347-0.345-17.81,0.403c-0.569,0.403-0.569,0.979-0.739,1.554c-0.398,0.633-0.797,1.784-1.366,2.302
			c0.171,0.576-0.171,0.979-0.171,1.554c-0.228,0.23-0.228,0.633-0.228,0.633c-0.17,0.576-0.739,0.979-0.967,1.381
			c-0.171,0.748,0,1.727-0.74,2.302c-0.626,0.403-1.309,0.23-2.104,0.23c-0.398,0.172-0.569,0.403-0.968,0.403
			c-0.797-0.23-1.764,0.172-2.504,0.172c-0.796-0.172-1.764-0.806-1.764-1.554c0-0.403,0.398-1.381,0.569-1.784
			c0.228-0.749,0.967-1.554,1.593-2.36c-0.228-0.576,0-1.324,0.342-1.669c0-0.23,0.228-0.633,0.398-0.806
			c0.228-0.403,0.568-0.576,0.796-0.979c0.171-0.403,0-0.979,0.171-1.554c0-0.23,0.228-0.403,0.398-0.576c0-0.23,0-0.403,0-0.633
			c0.171-0.576,0.797-0.979,0.968-1.381c0.17-0.345,0-0.748,0-1.151c0.17-0.173,0.397-0.576,0.397-0.806
			c0.171-0.172,0.171-0.345,0.398-0.575c0.171-0.576,0.569-1.151,0.683-1.957c0.229-0.173,0.229-0.576,0.229-0.749
			c0.17-0.403,0.739-0.806,0.967-1.381c0-0.23,0.171-0.518,0.171-0.921c0.228-0.23,0.398-0.633,0.568-0.979
			c0-0.23,0.229-0.633,0.229-0.979c0.397-0.633,0.568-0.979,0.967-1.784c0.171-0.403,0.398-0.979,0.569-1.381
			c0-0.403,0.171-0.749,0.398-0.979c0-0.576,0.17-0.979,0.568-1.381c0.171-0.346,0.569-0.576,0.569-0.979
			c0.228-0.576,0.228-1.151,0.398-1.727c0-0.633,0.398-1.381,0.796-1.957c0.171-0.403,0.342-0.806,0.342-1.324
			c0.228-0.23,0.228-0.403,0.228-0.576c0.171-0.23,0.398-0.403,0.398-0.633c0.171-0.172,0.171-0.575,0.171-0.748
			c0.398-0.403,0.797-0.806,0.797-1.208c0.17-0.403,0.17-0.979,0.397-1.381c0-0.346,0.74-1.151,0.968-1.324
			c0.341,0,0.739,0,1.138-0.23c0.968-0.173,2.105,0,3.414-0.173c0.398,0,0.968-0.23,1.594,0c0.341,0,0.739,0,1.138,0.173
			c0.967,0.23,0.967,0,1.536,0.576c0.228,0.23,0.398,0.633,0.569,0.806c0.228,0.576,0.398,1.151,0.796,1.554
			c0.171,0.633,0.398,1.208,0.797,1.784c0.171,0.575,0.171,1.151,0.74,1.554c-0.171,0.518,0,0.749,0,1.151
			c0.228,0.345,0.397,0.576,0.568,0.979c0.228,0.172,0.398,0.345,0.626,0.748c0.171,0.403,0.171,0.806,0.342,1.209
			c0.228,0.978,1.024,1.957,1.194,3.108c0.398,0.403,0.398,0.979,0.569,1.381c0.228,0.403,0.569,0.806,0.797,1.151
			c0,0.403,0,0.633,0.171,0.806c0.228,0.575,0.568,1.381,0.568,2.129c0.228,0.403,0.626,0.633,0.74,1.036c0,0.288,0,0.518,0,0.921
			c0.17,0.345,0.568,0.748,0.796,1.151c0.171,0.173,0.342,0.576,0.342,0.806c0.398,0.749,0.626,1.554,0.967,2.302
			c0,0.403,0,0.806,0,0.979c0.229,0.633,0.797,0.806,0.968,1.209c0,0.172,0.228,0.575,0.398,0.806
			c0.228,0.576,0.398,1.324,0.797,2.129c0.17,0.576,0.796,1.784,1.138,2.533c0.398,0.576,0.797,1.324,1.194,2.129
			c0,0.173,0.171,0.576,0.171,0.748c0.398,0.633,0.569,1.382,0.797,2.36c0.171,0.23,0,0.403,0,0.576
			c0.171,0,0.569,0.633,0.398,0.979C342.332,267.593,342.104,267.824,341.763,267.996z M313.37,246.758
			c0.171-0.575-0.398-0.806-0.797-0.575C312.573,246.758,313.199,246.931,313.37,246.758z M325.717,244.801
			c-0.397-0.23-0.568-0.806-0.796-1.209c0-0.345-0.342-0.576-0.342-0.748c0-0.403,0-0.806-0.228-1.208
			c0-0.346-0.398-0.749-0.739-1.151c0-0.403,0-0.576-0.228-0.806c-0.171-0.749-0.569-1.381-0.968-2.13
			c-0.171-0.575-0.398-1.381-0.968-1.208c-0.341,0.633-0.512,1.208-0.739,1.784c-0.171,0.173-0.171,0.403-0.342,0.576
			c0,0.23,0,0.403-0.228,0.806c-0.17,0.403-0.568,0.576-0.568,0.979c-0.171,0.403-0.171,0.806-0.171,1.151
			c-0.228,0.633-0.626,0.978-0.797,1.381c-0.171,0.403-0.171,0.979-0.398,1.382c-0.398,0.806-0.739,1.381-1.138,2.129
			c-0.228,1.151-1.195,1.554-0.967,3.281c1.138,0.403,2.332,0.23,3.641,0c1.195,0,2.276,0,3.244,0
			c0.398,0.23,0.796,0.403,1.194,0.403c0.398-0.173,0.968-0.403,1.366-0.403c0.568-0.173,1.309,0.23,1.935-0.173
			c0-0.979-0.626-1.784-0.968-2.302C326.286,246.528,325.888,245.779,325.717,244.801z M327.083,238.7c-0.228,0-0.228,0-0.398,0
			c-0.171,0.403-0.171,0.979,0.398,0.979C327.083,239.506,327.083,238.93,327.083,238.7z M329.188,254.528
			c0.228-0.403-0.569-0.403-0.569-0.173C328.79,254.528,329.018,254.701,329.188,254.528z M337.268,260.226
			c0.398-0.576-0.398-1.208-0.568-0.576C336.699,259.996,336.699,260.399,337.268,260.226z"/>
		<path fill="#FFFFFF" d="M74.213,284.995c0.398,0.863,0.285,2.417-0.228,3.166c-1.479,0.518-3.243-0.115-4.836,0
			c-0.455,0.058-0.797,0.288-1.139,0.288c-0.796,0.058-1.479-0.23-2.332-0.288c-1.024,0-2.163,0.173-3.357,0.115
			c-0.455-0.058-0.91-0.288-1.365-0.346c-0.911,0-1.936,0.403-3.073,0.403c-2.048,0.115-4.268-0.346-6.146-0.288
			c-0.397,0-0.739,0.23-1.194,0.23c-0.968,0-2.561-0.518-3.13,0c-0.739,0.575-0.341,1.842-0.284,2.763
			c0.113,1.842,0,4.432,0.228,5.986c1.365,0.518,3.016,0.23,4.609,0.23c2.845-0.058,5.86,0.23,8.648,0.058
			c2.446-0.115,5.405-0.288,7.625,0.23c0.455,1.842-0.285,4.547,0,6.561c-0.854,1.324-3.017,0.518-4.382,0.518
			c-0.626,0-1.195,0.288-1.82,0.288c-0.626,0.115-1.139-0.115-1.765-0.115c-2.503-0.23-5.405,0.345-7.795,0.115
			c-1.707-0.058-3.414-0.288-5.064,0c-0.739,1.381-0.284,3.166-0.284,4.777c0,0.518-0.228,1.036-0.228,1.497
			c0,0.576,0.284,1.094,0.284,1.669c0.057,0.576-0.113,1.094-0.228,1.784c0,1.612,0.398,3.166,0.398,4.835
			c0,0.403,0.057,1.324-0.398,1.669c-0.341,0.23-0.91,0.173-1.252,0.173c-0.967,0-1.82-0.173-2.73-0.173
			c-0.684-0.058-1.423,0.115-2.105,0c-0.171-0.058-0.285-0.115-0.455-0.115c-0.058-0.058-0.285-0.058-0.342-0.058
			c-0.114-0.23-0.057-0.749-0.057-0.863c-0.058-0.288-0.058-0.633-0.058-0.921c0.058-0.23,0.114-0.46,0.114-0.633
			c0-0.288-0.057-0.576-0.057-0.979c-0.058-0.921-0.171-1.899-0.058-2.878c0.058-1.036,0.285-2.072,0.285-3.05
			c0.057-1.381-0.171-2.82-0.228-4.317c0-3.453,0.113-7.252,0.113-10.705c0-1.094,0.228-2.245,0.228-3.223
			c-0.057-1.151-0.341-2.13-0.341-3.108c0.057-1.093,0.341-2.302,0.341-3.453c0-1.554-0.626-4.662,0.569-5.468
			c0.512-0.23,2.105-0.288,3.016-0.288c1.138,0.058,2.333,0.46,3.243,0.46c2.105,0,3.927-0.23,5.69-0.518
			c3.016,0.345,6.601,0.288,10.128,0.518c2.902,0.115,5.804-0.403,8.479-0.518c1.023-0.058,2.162-0.288,2.788,0.518
			C74.271,282.52,74.555,284.016,74.213,284.995z M43.316,301.916c-0.057,0.23-0.228,0.691,0,0.806
			C43.942,303.125,44.227,301.743,43.316,301.916z M54.355,299.787c0-0.288-0.114-0.403-0.455-0.46
			c-0.114,0.172-0.285,0.172-0.228,0.46C53.786,299.959,54.241,299.959,54.355,299.787z"/>
		<path fill="#FFFFFF" d="M119.621,321.658c-0.398,0-0.967-0.172-1.593-0.172c-0.342,0-0.74,0-1.138,0
			c-0.797,0-1.366-0.23-1.935-0.23c-0.398,0-0.797,0.23-1.195,0.23c-0.342-0.23-0.569-0.403-0.968-0.403
			c-0.17-0.403-0.284-0.978-0.512-1.381c-0.171-0.403-0.398-0.979-0.569-1.382c-0.17-0.403-0.397-0.978-0.568-1.381
			c-0.228-0.576-0.569-0.979-0.797-1.554c0-0.403-0.171-1.094-0.569-1.727c-0.398-0.979-0.568-2.302-1.536-2.936
			c-5.633,0.403-12.347-0.345-17.81,0.403c-0.569,0.403-0.569,0.979-0.739,1.554c-0.398,0.633-0.797,1.784-1.366,2.302
			c0.171,0.575-0.171,0.979-0.171,1.554c-0.228,0.23-0.228,0.633-0.228,0.633c-0.17,0.576-0.739,0.979-0.967,1.381
			c-0.171,0.748,0,1.727-0.74,2.302c-0.626,0.403-1.309,0.23-2.104,0.23c-0.398,0.173-0.569,0.403-0.968,0.403
			c-0.797-0.23-1.764,0.172-2.504,0.172c-0.796-0.172-1.764-0.806-1.764-1.554c0-0.403,0.398-1.381,0.569-1.785
			c0.228-0.748,0.967-1.554,1.593-2.359c-0.228-0.576,0-1.324,0.342-1.669c0-0.23,0.228-0.633,0.398-0.806
			c0.228-0.403,0.568-0.576,0.796-0.979c0.171-0.403,0-0.979,0.171-1.554c0-0.23,0.228-0.403,0.398-0.575c0-0.23,0-0.403,0-0.633
			c0.171-0.576,0.797-0.979,0.968-1.381c0.17-0.345,0-0.748,0-1.151c0.17-0.173,0.397-0.576,0.397-0.806
			c0.171-0.172,0.171-0.345,0.398-0.575c0.171-0.576,0.569-1.151,0.683-1.957c0.229-0.173,0.229-0.576,0.229-0.748
			c0.17-0.403,0.739-0.806,0.967-1.382c0-0.23,0.171-0.518,0.171-0.921c0.228-0.23,0.398-0.633,0.568-0.978
			c0-0.23,0.229-0.633,0.229-0.979c0.397-0.633,0.568-0.979,0.967-1.784c0.171-0.403,0.398-0.979,0.569-1.381
			c0-0.403,0.171-0.749,0.398-0.979c0-0.576,0.17-0.979,0.568-1.381c0.171-0.345,0.569-0.576,0.569-0.979
			c0.228-0.576,0.228-1.151,0.398-1.727c0-0.633,0.398-1.381,0.796-1.957c0.171-0.403,0.342-0.806,0.342-1.324
			c0.228-0.23,0.228-0.403,0.228-0.576c0.171-0.23,0.398-0.403,0.398-0.633c0.171-0.172,0.171-0.575,0.171-0.748
			c0.398-0.403,0.796-0.806,0.796-1.208c0.171-0.403,0.171-0.979,0.398-1.381c0-0.346,0.74-1.151,0.968-1.324
			c0.341,0,0.739,0,1.138-0.23c0.968-0.173,2.105,0,3.414-0.173c0.398,0,0.968-0.23,1.594,0c0.341,0,0.739,0,1.138,0.173
			c0.967,0.23,0.967,0,1.536,0.576c0.228,0.23,0.398,0.633,0.569,0.806c0.228,0.576,0.398,1.151,0.796,1.554
			c0.171,0.633,0.398,1.208,0.797,1.784c0.171,0.576,0.171,1.151,0.74,1.554c-0.171,0.518,0,0.749,0,1.151
			c0.228,0.345,0.397,0.576,0.568,0.979c0.228,0.172,0.398,0.345,0.626,0.748c0.171,0.403,0.171,0.806,0.342,1.208
			c0.228,0.979,1.024,1.957,1.194,3.108c0.398,0.403,0.398,0.979,0.569,1.381c0.228,0.403,0.569,0.806,0.797,1.151
			c0,0.403,0,0.633,0.171,0.806c0.228,0.576,0.568,1.382,0.568,2.13c0.228,0.403,0.626,0.633,0.74,1.036c0,0.288,0,0.518,0,0.921
			c0.17,0.345,0.568,0.748,0.796,1.151c0.171,0.173,0.342,0.576,0.342,0.806c0.398,0.749,0.626,1.554,0.967,2.302
			c0,0.403,0,0.806,0,0.979c0.229,0.633,0.797,0.806,0.968,1.209c0,0.172,0.228,0.575,0.398,0.806
			c0.228,0.576,0.398,1.324,0.797,2.129c0.17,0.576,0.796,1.784,1.138,2.533c0.398,0.575,0.797,1.324,1.194,2.129
			c0,0.173,0.171,0.576,0.171,0.749c0.398,0.633,0.569,1.381,0.797,2.359c0.171,0.23,0,0.403,0,0.576
			c0.171,0,0.569,0.633,0.398,0.979C120.19,321.255,119.963,321.485,119.621,321.658z M91.229,300.419
			c0.171-0.575-0.398-0.806-0.797-0.575C90.432,300.419,91.058,300.592,91.229,300.419z M103.575,298.463
			c-0.397-0.23-0.568-0.806-0.796-1.209c0-0.345-0.342-0.575-0.342-0.748c0-0.403,0-0.806-0.228-1.209
			c0-0.345-0.398-0.748-0.739-1.151c0-0.403,0-0.576-0.229-0.806c-0.17-0.749-0.568-1.381-0.967-2.13
			c-0.171-0.575-0.398-1.381-0.968-1.208c-0.341,0.633-0.512,1.208-0.739,1.784c-0.171,0.173-0.171,0.403-0.342,0.576
			c0,0.23,0,0.403-0.228,0.806c-0.17,0.403-0.568,0.576-0.568,0.979c-0.171,0.403-0.171,0.806-0.171,1.151
			c-0.228,0.633-0.626,0.979-0.797,1.382c-0.171,0.403-0.171,0.978-0.398,1.381c-0.398,0.806-0.739,1.382-1.138,2.13
			c-0.228,1.151-1.195,1.554-0.968,3.281c1.139,0.403,2.333,0.23,3.643,0c1.194,0,2.275,0,3.243,0
			c0.397,0.23,0.796,0.403,1.194,0.403c0.398-0.173,0.968-0.403,1.366-0.403c0.568-0.173,1.309,0.23,1.935-0.173
			c0-0.979-0.626-1.784-0.968-2.302C104.145,300.189,103.746,299.441,103.575,298.463z M104.941,292.362c-0.228,0-0.228,0-0.398,0
			c-0.171,0.403-0.171,0.979,0.398,0.979C104.941,293.167,104.941,292.592,104.941,292.362z M107.047,308.189
			c0.228-0.403-0.569-0.403-0.569-0.172C106.648,308.189,106.876,308.362,107.047,308.189z M115.126,313.888
			c0.398-0.576-0.398-1.208-0.568-0.576C114.558,313.658,114.558,314.061,115.126,313.888z"/>
		<path fill="#FFFFFF" d="M160.989,315.211c0.057,0.403,0.171,0.979,0.171,1.381c0,0.576-0.171,1.151-0.171,1.612
			c0,0.921,0.398,1.899,0,2.532c-0.626,0.921-2.446,0.288-3.756,0.403c-0.512,0.115-0.91,0.403-1.309,0.403
			c-0.341,0-0.796-0.23-1.138-0.23s-0.569,0.23-0.797,0.23c-0.17,0-0.228-0.115-0.398-0.173c-0.17,0-0.625,0-0.854-0.058
			c-0.397-0.058-0.625-0.23-0.967-0.23c-0.512-0.057-1.024,0.173-1.536,0.23c-0.569,0-1.139-0.058-1.707,0
			c-0.513,0-1.081,0.115-1.479,0.058c-0.569-0.058-1.081-0.403-1.536-0.403c-0.513,0-0.911,0.288-1.366,0.345
			c-0.398,0-0.796-0.058-1.138-0.173c-0.626-0.058-1.081-0.058-1.536,0c-0.455,0.173-1.081,0.288-1.536,0.23
			c-0.513,0-1.139-0.288-1.992-0.288c-0.341-0.057-0.854,0.058-1.309,0.058c-0.398,0-0.91-0.058-1.365-0.058
			c-0.228,0-0.512,0.058-0.74,0.058c-0.228,0-0.397-0.115-0.625-0.058c-0.456,0-0.968,0.23-1.423,0.23
			c-0.342,0-0.797-0.173-1.195-0.173c-0.455,0-1.023,0.115-1.422,0c-1.878-0.058-2.618-0.345-2.959-1.496
			c-0.342-0.979-0.057-1.957-0.114-3.223c0-0.576-0.113-1.209-0.113-1.612c0.057-0.345,0.171-0.748,0.228-1.094
			c0-0.288-0.114-0.633-0.114-0.978c0-0.346,0.114-0.633,0.114-0.979c-0.057-0.691-0.228-1.439-0.228-1.957
			c0-0.23,0.113-0.46,0.113-0.691c-0.057-0.748-0.341-1.496-0.341-2.245c0-0.057,0.057-0.403,0.113-0.518c0-0.172,0-0.518,0-0.518
			c0.114-0.518,0.228-0.863,0.228-1.267c0-0.345-0.228-0.633-0.228-0.979c0-0.345,0.285-0.575,0.342-0.921
			c-0.342-0.345-0.398-0.69-0.455-1.036c-0.058-0.518,0.113-0.863,0.113-1.151c0-0.288-0.171-0.69-0.171-0.979
			c0-0.403,0.058-0.863,0.058-1.266c0-0.921,0.057-1.842,0-2.647c0-0.403-0.171-0.921-0.058-1.324c0-0.288,0.171-0.633,0.171-0.979
			s-0.113-0.806-0.113-1.151c0-1.036-0.171-2.245-0.228-3.453c-0.058-1.727,0.17-3.396,0.17-4.95
			c-0.113-0.749-0.228-1.842,0.171-2.302c0.513-0.518,2.22-0.346,3.073-0.346c0.341,0.058,0.854,0.115,1.081,0.115
			s0.512-0.23,0.626-0.23c1.081-0.115,1.707,0.172,2.104,0.575c0.285,0.346,0,0.806,0,1.151c0,0.46,0.228,0.806,0.114,1.324
			c-0.171,0.748-1.081,1.036-1.138,1.784c0.113,0.518,0.854,0.403,0.967,0.921c-0.171,0.921,0.342,1.899,0.171,2.878
			c-0.057,0.576-0.398,0.979-0.398,1.497c0,0.345,0.398,1.036,0.398,1.554c0,0.346-0.342,0.806-0.342,1.324
			c0,0.288,0.228,0.691,0.228,1.036c0.058,0.749,0.058,1.497,0.114,2.187c0.113,1.209-0.057,2.36-0.057,3.569
			c0,0.748,0.17,1.381,0.17,2.187c0.058,0.633-0.113,1.151-0.228,1.784c-0.057,0.518,0.114,0.921,0.285,1.381
			c0.057,0.46,0,0.979-0.058,1.439c0,0.863-0.284,1.669-0.228,2.532c0.058,0.288,0.228,0.518,0.228,0.749
			c0.058,0.172-0.113,0.46-0.113,0.576c-0.057,0.863,0.113,1.554,0,2.302c0.455,0.346,0.797,0.576,1.195,0.749
			c0.683,0.115,1.251-0.23,1.991-0.23c0.854-0.057,1.764,0.23,2.731,0.23c0.626,0,1.251-0.173,1.707-0.173
			c1.309,0.173,3.698,0.173,5.234,0c0.398,0,0.797-0.115,1.309-0.23c0.683-0.058,1.423,0.172,2.162,0.172
			c0.398,0,0.797-0.172,1.252-0.172c0.228,0,0.683,0.23,1.024,0.23c0.398,0,0.797-0.23,1.252-0.23c0.341,0,0.796,0.23,1.138,0.23
			c0.512,0.058,1.081-0.058,1.536-0.058c1.707-0.172,3.072-0.518,4.495-0.345C160.989,314.176,160.818,314.636,160.989,315.211z
			 M129.239,305.484c0.057,0,0.171,0,0.228,0c0-0.172,0-0.288,0-0.46C129.125,304.909,129.125,305.197,129.239,305.484z
			 M129.865,303.931c0.057-0.518-0.114-0.633-0.569-0.576C129.239,303.758,129.41,303.988,129.865,303.931z M130.035,300.362
			c0.285,0.057,0.342-0.173,0.513-0.288c-0.057-0.345-0.228-0.576-0.569-0.576c-0.057,0.058-0.113,0.115-0.228,0.23
			C129.865,299.901,129.922,300.189,130.035,300.362z"/>
		<path fill="#FFFFFF" d="M202.584,315.211c0.057,0.403,0.171,0.979,0.171,1.381c0,0.576-0.171,1.151-0.171,1.612
			c0,0.921,0.398,1.899,0,2.532c-0.626,0.921-2.446,0.288-3.756,0.403c-0.512,0.115-0.91,0.403-1.309,0.403
			c-0.341,0-0.796-0.23-1.138-0.23s-0.569,0.23-0.797,0.23c-0.17,0-0.228-0.115-0.398-0.173c-0.17,0-0.625,0-0.854-0.058
			c-0.397-0.058-0.625-0.23-0.967-0.23c-0.512-0.057-1.024,0.173-1.536,0.23c-0.569,0-1.139-0.058-1.707,0
			c-0.513,0-1.081,0.115-1.479,0.058c-0.569-0.058-1.081-0.403-1.536-0.403c-0.513,0-0.911,0.288-1.366,0.345
			c-0.397,0-0.796-0.058-1.138-0.173c-0.626-0.058-1.081-0.058-1.536,0c-0.455,0.173-1.081,0.288-1.536,0.23
			c-0.513,0-1.139-0.288-1.992-0.288c-0.341-0.057-0.854,0.058-1.309,0.058c-0.398,0-0.91-0.058-1.365-0.058
			c-0.228,0-0.512,0.058-0.74,0.058c-0.228,0-0.397-0.115-0.625-0.058c-0.456,0-0.968,0.23-1.423,0.23
			c-0.342,0-0.797-0.173-1.195-0.173c-0.455,0-1.023,0.115-1.422,0c-1.878-0.058-2.618-0.345-2.959-1.496
			c-0.342-0.979-0.057-1.957-0.114-3.223c0-0.576-0.113-1.209-0.113-1.612c0.057-0.345,0.171-0.748,0.228-1.094
			c0-0.288-0.114-0.633-0.114-0.978c0-0.346,0.114-0.633,0.114-0.979c-0.057-0.691-0.228-1.439-0.228-1.957
			c0-0.23,0.113-0.46,0.113-0.691c-0.057-0.748-0.341-1.496-0.341-2.245c0-0.057,0.057-0.403,0.113-0.518c0-0.172,0-0.518,0-0.518
			c0.114-0.518,0.228-0.863,0.228-1.267c0-0.345-0.228-0.633-0.228-0.979c0-0.345,0.285-0.575,0.342-0.921
			c-0.342-0.345-0.398-0.69-0.455-1.036c-0.058-0.518,0.113-0.863,0.113-1.151c0-0.288-0.171-0.69-0.171-0.979
			c0-0.403,0.058-0.863,0.058-1.266c0-0.921,0.057-1.842,0-2.647c0-0.403-0.171-0.921-0.058-1.324c0-0.288,0.171-0.633,0.171-0.979
			s-0.113-0.806-0.113-1.151c0-1.036-0.171-2.245-0.228-3.453c-0.058-1.727,0.17-3.396,0.17-4.95
			c-0.113-0.749-0.228-1.842,0.171-2.302c0.513-0.518,2.22-0.346,3.073-0.346c0.341,0.058,0.854,0.115,1.081,0.115
			s0.512-0.23,0.626-0.23c1.081-0.115,1.707,0.172,2.104,0.575c0.285,0.346,0,0.806,0,1.151c0,0.46,0.228,0.806,0.114,1.324
			c-0.171,0.748-1.081,1.036-1.138,1.784c0.113,0.518,0.854,0.403,0.967,0.921c-0.171,0.921,0.342,1.899,0.171,2.878
			c-0.057,0.576-0.398,0.979-0.398,1.497c0,0.345,0.398,1.036,0.398,1.554c0,0.346-0.342,0.806-0.342,1.324
			c0,0.288,0.228,0.691,0.228,1.036c0.058,0.749,0.058,1.497,0.114,2.187c0.113,1.209-0.057,2.36-0.057,3.569
			c0,0.748,0.17,1.381,0.17,2.187c0.058,0.633-0.113,1.151-0.228,1.784c-0.057,0.518,0.114,0.921,0.285,1.381
			c0.057,0.46,0,0.979-0.058,1.439c0,0.863-0.284,1.669-0.228,2.532c0.058,0.288,0.228,0.518,0.228,0.749
			c0.058,0.172-0.113,0.46-0.113,0.576c-0.057,0.863,0.113,1.554,0,2.302c0.455,0.346,0.797,0.576,1.195,0.749
			c0.683,0.115,1.251-0.23,1.991-0.23c0.854-0.057,1.764,0.23,2.731,0.23c0.625,0,1.251-0.173,1.707-0.173
			c1.309,0.173,3.698,0.173,5.234,0c0.398,0,0.797-0.115,1.309-0.23c0.683-0.058,1.423,0.172,2.162,0.172
			c0.398,0,0.797-0.172,1.252-0.172c0.228,0,0.683,0.23,1.024,0.23c0.398,0,0.797-0.23,1.252-0.23c0.341,0,0.796,0.23,1.138,0.23
			c0.512,0.058,1.081-0.058,1.536-0.058c1.707-0.172,3.072-0.518,4.495-0.345C202.584,314.176,202.413,314.636,202.584,315.211z
			 M170.834,305.484c0.057,0,0.171,0,0.228,0c0-0.172,0-0.288,0-0.46C170.72,304.909,170.72,305.197,170.834,305.484z
			 M171.46,303.931c0.057-0.518-0.114-0.633-0.569-0.576C170.834,303.758,171.005,303.988,171.46,303.931z M171.63,300.362
			c0.285,0.057,0.342-0.173,0.513-0.288c-0.057-0.345-0.228-0.576-0.569-0.576c-0.057,0.058-0.113,0.115-0.228,0.23
			C171.46,299.901,171.517,300.189,171.63,300.362z"/>
		<path fill="#FFFFFF" d="M239.798,294.549c-1.139-0.058-2.276,0.058-2.959-0.403c-0.911,0.058-1.423-0.115-1.878-0.403
			c-0.342-0.403-0.228-0.921-0.342-1.324c-0.17-0.403-0.341-0.518-0.626-0.806c-0.625-0.69-1.251-1.554-1.935-2.245
			c-0.796-0.172-1.536-0.806-2.39-1.093c-0.455-0.173-1.194-0.173-1.707-0.288c-0.171-0.058-0.341-0.23-0.398-0.288
			c-0.284,0-0.626,0.058-0.91,0c-0.171,0-0.341-0.115-0.512-0.23c-0.228,0-0.455,0-0.626-0.058
			c-0.228-0.058-0.455-0.115-0.626-0.115c-0.398,0-0.683,0.288-1.081,0.345s-0.797-0.058-1.138,0
			c-0.285,0.058-0.569,0.173-0.911,0.345c-0.228,0.058-0.568,0.058-0.796,0.173c-0.626,0.23-1.024,0.748-1.707,0.748
			c-0.797,0.633-1.366,1.554-2.049,2.36c-0.057,1.036-0.057,2.245,0.683,2.82c0.171,0.058,0.342,0.058,0.626,0.173
			c0.626,0.288,1.081,0.633,1.878,0.863c0.284,0.058,0.512,0.058,0.797,0.115c0.455,0.057,0.967,0.345,1.309,0.403
			c0.568,0.058,1.194-0.058,1.707,0c0.854,0.058,1.593,0.288,2.39,0.403c0.398,0.115,0.797,0.115,1.194,0.172
			c0.456,0.058,0.74,0.288,1.082,0.288c0.341,0.058,0.683,0,0.967,0c0.057,0,0.057,0.115,0.228,0.115
			c0.114,0,0.171-0.115,0.513-0.115c0.625,0.115,1.251,0.633,1.935,0.46c0.455,0.345,1.138,0.46,1.991,0.46
			c0.455,0.403,1.024,0.518,1.593,0.748c0.455,0.288,0.911,0.633,1.479,0.921c0.398,0.173,0.797,0.288,1.195,0.518
			c0.113,0,0.113,0.173,0.171,0.23c0.397,0.23,1.138,0.633,1.479,1.036c0.114,0.173,0.114,0.403,0.342,0.691
			c0,0.058,0.114,0.115,0.228,0.172c0.057,0.115,0,0.23,0.057,0.288c0.114,0.23,0.285,0.345,0.398,0.576
			c0.342,0.518,0.626,1.151,0.854,1.842c0.285,0.69,0.626,1.208,0.797,2.245c0,0.345,0,0.806,0,1.266
			c0.057,1.151,0.113,2.015-0.626,2.763c-0.171,0.518,0.171,0.518,0.171,0.979c-0.513,0.46-0.342,1.151-0.683,1.727
			c-0.285,0.691-1.309,1.094-1.309,2.129c-0.626,0.461-1.252,0.979-1.594,1.727c-0.626,0.172-0.797,0.518-1.252,0.921
			c-0.512,0.345-1.081,0.576-1.878,0.979l-0.057,0.23c-0.284,0.115-0.626,0.173-0.91,0.345c-0.228,0.058-0.284,0.115-0.342,0.173
			c-0.512,0.23-1.138,0.345-1.593,0.576c-0.342,0.058-0.74,0.23-1.138,0.403c-0.342,0.058-0.684,0.058-1.252,0.115
			c-0.455,0-1.252,0.288-2.105,0.288c-0.512,0.058-1.138-0.058-1.764-0.058c-0.455,0-0.911,0.058-1.423,0.058
			c-0.284,0-0.739-0.23-1.138-0.23c-0.342,0-0.683,0.173-1.024,0.173c-0.342-0.058-0.683-0.23-0.91-0.345
			c-0.569-0.23-1.65-0.058-2.162-0.345c-0.171-0.058-0.285-0.288-0.456-0.288c-0.455-0.172-0.91-0.058-1.309-0.288
			c-0.228-0.058-0.512-0.23-0.796-0.403c-0.171-0.058-0.513-0.173-0.74-0.288c-0.341-0.23-0.568-0.633-0.91-0.863
			c-0.284-0.115-0.683-0.115-0.968-0.345c-0.341-0.115-0.568-0.576-0.796-0.806c-0.171-0.115-0.285-0.115-0.342-0.173
			c-0.569-0.345-0.91-1.093-1.365-1.669c-0.285-0.288-0.626-0.576-0.91-0.863c-0.684-0.864-1.024-2.13-1.537-2.878
			c-0.057-0.691,0.626-0.691,0.626-1.324c-0.228-0.403-0.683,0.172-0.967-0.173c-0.285-0.921-0.228-2.187-0.342-3.281
			c0.455-0.576,0.968-0.345,1.479-0.345c0.228,0,0.284,0.115,0.398,0.115c0.228,0,0.228-0.115,0.342-0.115
			c0.284,0.058,0.512,0.173,0.739,0.173c0.342,0,0.569-0.115,0.854-0.173c0.569-0.058,2.162-0.173,2.446,0.115
			c0.114,0.058,0.114,0.23,0.171,0.288s0.228,0.173,0.285,0.173c0.113,0.46-0.114,0.863,0,1.497c0,0.115,0.228,0.403,0.284,0.575
			c0.113,0.23,0.171,0.403,0.341,0.633c0.058,0.23,0.228,0.345,0.398,0.518c0.114,0.23,0.171,0.518,0.342,0.633
			c0.398,0.633,1.081,1.324,1.764,1.727c0.114,0.115,0.114,0.057,0.284,0.115c0.058,0.115,0.171,0.173,0.228,0.23
			c0.229,0.23,0.854,0.23,1.195,0.345c0.228,0.058,0.569,0.23,0.854,0.288c0.455,0.173,1.081,0.346,1.707,0.691
			c0.683-0.23,1.309,0.173,1.935,0.345c0.228,0,0.284-0.172,0.342-0.172c0.284,0,0.683,0.172,1.081,0.23
			c0.228,0,0.91-0.23,1.365-0.345c0.74-0.058,1.365-0.173,2.105-0.288c0.739-0.23,1.252-0.346,1.935-0.691
			c0.342-0.115,0.683-0.115,0.91-0.288c0.171-0.058,0.285-0.173,0.398-0.346c0.91-0.575,1.935-1.324,2.39-2.475
			c-0.113-0.576,0.171-1.209,0-1.899c-0.057-0.288-0.341-0.691-0.512-0.979c-0.171-0.173-0.285-0.345-0.569-0.518
			c-0.341-0.23-0.739-0.46-1.138-0.748c-0.228-0.058-0.398-0.23-0.626-0.288c-0.398-0.115-1.252-0.23-2.049-0.345
			c-0.796-0.115-1.479-0.345-2.503-0.518c-0.342-0.115-0.569-0.172-0.911-0.23c-0.796-0.115-1.536-0.115-2.219-0.23
			c-0.228-0.058-0.569-0.23-0.91-0.345c-0.342-0.058-0.854,0-1.138-0.058c-0.342-0.115-0.684-0.345-1.024-0.46
			c-0.342-0.058-0.626,0.058-0.911,0c-0.625-0.058-1.251-0.46-1.877-0.288c-0.342-0.173-0.626-0.403-0.968-0.518
			c-0.398-0.173-0.967-0.115-1.365-0.23c-0.74-0.23-1.252-0.806-2.049-0.748c-0.228-0.23-0.398-0.46-0.739-0.633
			c-0.171-0.115-0.513-0.345-0.797-0.518c-0.171-0.172-0.398-0.23-0.512-0.345c-0.171-0.172-0.455-0.518-0.569-0.748
			c-0.057-0.115-0.228-0.23-0.342-0.46c-0.284-0.46-0.739-1.151-1.023-1.669c-0.114-0.23-0.114-0.518-0.171-0.633
			c-0.284-0.46-0.513-0.979-0.683-1.727c-0.114-0.46-0.285-1.036-0.285-1.324c0-0.23,0.171-0.633,0.171-1.094
			c0-0.345-0.113-0.806-0.113-1.151c0.057-0.288,0.113-0.46,0.228-0.806c0.057-0.345,0.057-0.806,0.113-0.979
			c0.114-0.345,0.455-0.518,0.626-0.863s0.284-0.748,0.455-1.036c0.058-0.23,0.342-0.345,0.455-0.575
			c0.114-0.058,0.114-0.115,0.171-0.173c0.342-0.345,0.74-1.094,1.138-1.554c0.285-0.23,0.626-0.46,0.968-0.748
			c0.284-0.23,0.512-0.518,0.854-0.748c0.683-0.403,1.536-0.633,1.991-1.267c1.024,0.058,1.594-0.345,2.22-0.806
			c0.512-0.23,1.023-0.518,1.764-0.748c0.284,0,0.569-0.115,0.739-0.173c0.513-0.058,0.854,0.058,1.309-0.058
			c0.342-0.172,0.398,0,0.854,0c0.968,0,2.105-0.23,3.301,0c0.228,0,0.683,0.115,0.91,0.173c0.512,0.172,0.968,0.288,1.764,0.403
			c0.74,0.173,1.195,0.23,1.707,0.403c1.024,0.518,2.333,0.979,3.357,1.554c0.171,0.115,0.284,0.345,0.512,0.403
			c0.285,0.115,0.569,0.115,0.684,0.288c0.113,0,0.113,0.115,0.284,0.173c0.057,0.058,0.171,0.23,0.398,0.288
			c0,0.058,0.171,0.115,0.171,0.115c0.284,0.288,0.455,0.691,0.796,1.094c0.228,0.345,0.74,0.575,0.91,0.863
			c0.171,0.23,0.171,0.69,0.342,0.921c0.342,0.633,1.024,1.036,1.365,1.611c0.058,0.288,0.114,0.633,0.229,0.863
			c0,0.058,0.17,0.288,0.17,0.346c0.058,0.172-0.057,0.345,0,0.518c0.058,0.23,0.285,0.518,0.342,0.748
			c0.057,0.345,0,0.69,0.057,0.921c0.171,0.576,0.569,0.979,0.342,1.554C241.22,294.837,240.48,294.606,239.798,294.549z"/>
	</g>
</g>
<g id="Spots" display="none">
</g>
</svg>
