<?xml version="1.0" encoding="utf-8"?>
<!-- Generator: Adobe Illustrator 17.0.0, SVG Export Plug-In . SVG Version: 6.00 Build 0)  -->
<!DOCTYPE svg PUBLIC "-//W3C//DTD SVG 1.1//EN" "http://www.w3.org/Graphics/SVG/1.1/DTD/svg11.dtd">
<svg version="1.1" xmlns="http://www.w3.org/2000/svg" xmlns:xlink="http://www.w3.org/1999/xlink" x="0px" y="0px" width="384px"
	 height="550px" viewBox="0 0 384 550" enable-background="new 0 0 384 550" xml:space="preserve">
<g id="Borders" display="none">
	<g display="inline">
		<rect fill="#5D5D5D" width="384" height="550"/>
	</g>
</g>
<g id="Labels">
</g>
<g id="Names">
	<g>
		<g>
			<path fill="#FFFFFF" d="M74.96,268.599l-4.416-3.447l33.152-8.288L84.66,310.345l19.037-4.759l-4.416,5.656l-21.209,5.302
				l19.11-53.499L74.96,268.599z M70.545,323.648l19.109-53.499l-19.109,4.777l4.487-5.672l21.209-5.303l-19.11,53.499l22.15-5.538
				l4.416,3.447L70.545,323.648z"/>
			<path fill="#FFFFFF" d="M146.115,245.813v41.857c0,4.701-1.81,9.406-4.85,13.299c-2.968,3.802-7.094,6.772-11.726,7.93
				c-4.56,1.141-8.686,0.232-11.726-2.067c-2.968-2.391-4.85-6.174-4.85-10.874v-41.857l4.488,3.429v37.306
				c0,6.864,5.429,11.103,12.088,9.439c6.732-1.684,12.161-8.637,12.161-15.501v-37.306L146.115,245.813z M118.03,294.691v-37.306
				l4.487-5.673v41.857c0,2.015,0.797,3.606,2.027,4.642c1.303,1.016,3.04,1.328,4.995,0.839c1.954-0.488,3.764-1.686,4.994-3.337
				c1.303-1.669,2.099-3.659,2.099-5.673v-41.857l4.415,3.447v37.306c0,6.566-5.139,13.073-11.509,14.74
				C123.169,305.196,118.03,301.257,118.03,294.691z"/>
			<path fill="#FFFFFF" d="M184.696,265.938c3.04,2.373,4.922,6.155,4.922,10.856v17.086l-4.488-3.429v-12.535
				c0-3.731-1.592-6.69-4.126-8.369c-1.448-0.906-3.258-1.499-5.212-1.458c1.954-0.937,3.764-2.359,5.212-4.063
				c2.533-2.947,4.126-6.703,4.126-10.434c0-6.938-5.428-11.178-12.088-9.513l-12.161,3.04v49.394l-4.415,5.655v-58.496
				l16.576-4.144c4.56-1.141,8.686-0.306,11.654,2.086c3.04,2.3,4.922,6.081,4.922,10.856c0,4.7-1.882,9.425-4.922,13.319
				l-0.072,0.093C184.624,265.956,184.696,265.938,184.696,265.938z M173.042,268.478l-7.094,1.773l-4.415,1.104v-7.909v-15.817
				l11.509-2.877c6.298-1.575,11.437,2.438,11.437,9.004c0,3.657-1.592,7.263-4.053,10.042
				C178.399,266.093,175.865,267.771,173.042,268.478z M184.479,278.079v12.535l-4.415,5.655v-17.086
				c0-2.015-0.796-3.606-2.027-4.641c-1.303-0.942-3.04-1.33-4.995-0.841l-7.094,1.773v24.324l-4.415-3.447v-24.399l11.509-2.877
				c2.823-0.632,5.357-0.22,7.384,0.989C182.887,271.613,184.479,274.498,184.479,278.079z M165.949,265.625l7.094-1.773
				c1.955-0.489,3.692-1.744,4.995-3.338c1.231-1.651,2.027-3.641,2.027-5.656s-0.796-3.681-2.027-4.641
				c-1.303-1.018-3.04-1.404-4.995-0.916l-7.094,1.773V265.625z"/>
			<path fill="#FFFFFF" d="M204.168,236.297l-4.416-3.447l24.249-6.062l-4.416,5.655L204.168,236.297z M204.168,285.019
				l-4.416-3.447l7.383-1.846v-38.947l-7.383,1.846l4.416-5.73l7.384-1.846v0.075v48.049L204.168,285.019z M219.586,281.837
				l4.416,3.447l-24.249,6.062l4.416-5.656L219.586,281.837z M224.001,236.563l-7.383,1.846v38.947l7.383-1.846l-4.416,5.655
				l-7.383,1.846v-48.124l7.383-1.846L224.001,236.563z"/>
			<path fill="#FFFFFF" d="M263.451,233.937c0-6.864-5.429-11.103-12.161-9.419c-6.66,1.664-12.088,8.618-12.088,15.482v24.399
				c0,6.864,5.428,11.103,12.088,9.439c6.731-1.684,12.161-8.637,12.161-15.501l4.415-5.729v4.626c0,4.701-1.809,9.407-4.849,13.299
				c-2.968,3.802-7.094,6.772-11.726,7.93c-4.56,1.141-8.686,0.232-11.726-2.067c-2.968-2.391-4.85-6.174-4.85-10.874v-24.399
				c0-4.7,1.882-9.423,4.85-13.299c3.04-3.819,7.166-6.791,11.726-7.931c4.632-1.158,8.758-0.249,11.726,2.068
				c3.04,2.374,4.849,6.174,4.849,10.874v4.627L263.451,233.937z M258.384,239.756v-4.552c0-2.014-0.797-3.606-2.099-4.623
				c-1.23-0.961-3.04-1.329-4.994-0.841c-1.955,0.489-3.692,1.744-4.995,3.339c-1.231,1.65-2.099,3.659-2.099,5.672v24.399
				c0,2.015,0.869,3.588,2.099,4.624c1.303,1.016,3.04,1.328,4.995,0.839c1.954-0.488,3.764-1.686,4.994-3.337
				c1.303-1.669,2.099-3.659,2.099-5.673v-4.626l4.415,3.522c0,6.566-5.139,13.073-11.509,14.74
				c-6.37,1.519-11.509-2.42-11.509-8.986v-24.399c0-6.491,5.139-13.147,11.509-14.739c6.369-1.593,11.509,2.494,11.509,8.985
				L258.384,239.756z"/>
			<path fill="#FFFFFF" d="M282.633,216.681v49.394l-4.416,5.655v-58.496L282.633,216.681z M306.086,210.818v23.653l-22.801,5.7
				v-23.653l4.415-5.655v23.652l13.97-3.493v-23.652L306.086,210.818z M283.285,240.767l22.801-5.7v25.145l-4.416,5.655v-25.07
				l-13.97,3.493v25.07l-4.415-3.447V240.767z M311.152,205v58.496l-4.415-3.447v-49.393L311.152,205z"/>
		</g>
		<polygon fill="#FFFFFF" points="314.143,273.188 69.857,334.968 74.744,338.306 309.256,278.97 		"/>
		<polygon fill="#FFFFFF" points="314.143,283.22 69.857,345 74.744,339.218 309.256,279.882 		"/>
	</g>
</g>
<g id="Spots" display="none">
</g>
</svg>
