<?xml version="1.0" encoding="utf-8"?>
<!-- Generator: Adobe Illustrator 17.0.0, SVG Export Plug-In . SVG Version: 6.00 Build 0)  -->
<!DOCTYPE svg PUBLIC "-//W3C//DTD SVG 1.1//EN" "http://www.w3.org/Graphics/SVG/1.1/DTD/svg11.dtd">
<svg version="1.1" xmlns="http://www.w3.org/2000/svg" xmlns:xlink="http://www.w3.org/1999/xlink" x="0px" y="0px" width="384px"
	 height="550px" viewBox="0 0 384 550" enable-background="new 0 0 384 550" xml:space="preserve">
<g id="Borders" display="none">
	<g display="inline">
		<rect x="0.392" y="-0.055" fill="#5D5D5D" width="384" height="550"/>
	</g>
</g>
<g id="Labels">
</g>
<g id="Names">
	<g>
		<g>
			<polygon fill="#FFFFFF" stroke="#FFFFFF" stroke-width="3" stroke-miterlimit="10" points="76.83,239 58.974,260.438 41.017,239 
				35.999,239 56.5,263.406 56.5,293 61.5,293 61.5,263.406 81.898,239 			"/>
			<path fill="#FFFFFF" stroke="#FFFFFF" stroke-width="3" stroke-miterlimit="10" d="M95.349,256.124
				c-5.126,0-9.412,1.77-12.858,5.307c-3.447,3.538-5.17,7.954-5.17,13.248c0,5.268,1.723,9.665,5.17,13.189
				c3.446,3.525,7.732,5.288,12.858,5.288c5.125,0,9.399-1.763,12.82-5.288s5.132-7.921,5.132-13.189
				c0-5.293-1.71-9.709-5.132-13.248C104.748,257.893,100.475,256.124,95.349,256.124z M105.306,285.234
				c-2.666,2.802-5.984,4.203-9.957,4.203c-3.998,0-7.336-1.4-10.014-4.203c-2.679-2.802-4.018-6.32-4.018-10.556
				c0-4.261,1.339-7.799,4.018-10.614c2.677-2.814,6.016-4.222,10.014-4.222c3.946,0,7.259,1.42,9.938,4.261
				c2.678,2.841,4.017,6.366,4.017,10.575C109.304,278.914,107.971,282.432,105.306,285.234z"/>
			<path fill="#FFFFFF" stroke="#FFFFFF" stroke-width="3" stroke-miterlimit="10" d="M128.713,266H128.5v-9h-4v36h4v-22.931
				c4-6.818,7.833-10.227,11.37-10.227c1.793,0,4.179,1.356,7.127,4.067l2.199-3.563c-3.102-2.814-5.801-4.32-8.108-4.32
				C137.064,256.026,132.942,260,128.713,266z"/>
			<polygon fill="#FFFFFF" stroke="#FFFFFF" stroke-width="3" stroke-miterlimit="10" points="185.796,257 180.844,257 
				161.309,274.109 183.628,293 188.795,293 166.456,274.093 			"/>
			<rect x="157.5" y="239" fill="#FFFFFF" stroke="#FFFFFF" stroke-width="3" stroke-miterlimit="10" width="3" height="54"/>
			<path fill="#FFFFFF" stroke="#FFFFFF" stroke-width="3" stroke-miterlimit="10" d="M208.65,272.842
				c-4.006-1.56-6.454-2.848-7.343-3.865c-0.888-1.017-1.332-2.131-1.332-3.341c0-1.7,0.73-3.128,2.191-4.287
				c1.46-1.158,3.386-1.738,5.514-1.738c2.87,0,5.819,1.214,9.819,3.641v-4.106c-4-2.014-6.693-3.021-9.589-3.021
				c-3.178,0-5.942,0.949-8.158,2.847c-2.217,1.898-3.358,4.203-3.358,6.915c0,1.911,0.579,3.648,1.771,5.21
				c1.192,1.562,3.784,3.146,7.794,4.748c4.01,1.604,6.466,2.928,7.377,3.973c0.911,1.045,1.364,2.187,1.364,3.426
				c0,1.807-0.7,3.291-2.096,4.452c-1.397,1.161-3.001,1.742-5.178,1.742c-3.229,0-6.926-1.084-10.926-3.254v3.719
				c3,2.169,6.863,3.254,10.425,3.254c3.28,0,5.943-0.949,8.173-2.847s3.298-4.228,3.298-6.992c0-2.066-0.638-3.938-1.868-5.617
				C215.298,276.022,212.656,274.403,208.65,272.842z"/>
			<path fill="#FFFFFF" stroke="#FFFFFF" stroke-width="3" stroke-miterlimit="10" d="M244.372,256.114
				c-4.819,0-8.701,2.886-11.648,6.886H232.5v-24h-4v54h4v-25.527c3-5.087,6.892-7.631,11.48-7.631c6.407,0,9.52,4.106,9.52,12.318
				V293h4v-22.35c0-4.519-1.182-8.075-3.566-10.657C251.551,257.411,248.37,256.114,244.372,256.114z"/>
			<rect x="271.5" y="239" fill="#FFFFFF" stroke="#FFFFFF" stroke-width="3" stroke-miterlimit="10" width="3" height="6"/>
			<rect x="271.5" y="257" fill="#FFFFFF" stroke="#FFFFFF" stroke-width="3" stroke-miterlimit="10" width="3" height="36"/>
			<path fill="#FFFFFF" stroke="#FFFFFF" stroke-width="3" stroke-miterlimit="10" d="M292.495,266h0.005v-9h-4v36h4v-22.931
				c4-6.818,7.724-10.227,11.261-10.227c1.793,0,4.125,1.356,7.072,4.067l2.172-3.563c-3.102-2.814-5.815-4.32-8.121-4.32
				C300.859,256.026,296.723,260,292.495,266z"/>
			<path fill="#FFFFFF" stroke="#FFFFFF" stroke-width="3" stroke-miterlimit="10" d="M324.244,285.292
				c-2.819-2.763-4.229-5.795-4.229-9.772c0-0.62,0.039-1.521,0.115-1.521h27.871c0-6-1.513-9.822-4.536-12.908
				c-3.024-3.086-6.728-4.799-11.11-4.799c-4.665,0-8.534,1.627-11.609,5.048c-3.075,3.422-4.613,7.699-4.613,12.915
				c0,5.5,1.666,10.012,4.997,13.575c3.332,3.564,7.604,5.335,12.704,5.335c5.022,0,9.665-1.585,13.665-4.736v-4.3
				c-4,3.538-8.719,5.307-13.204,5.307C330.452,289.437,327.063,288.056,324.244,285.292z M324.84,262.942
				c2.114-1.82,4.619-2.547,7.515-2.547c6.125,0,9.854,3.604,11.187,10.604h-22.911C321.323,267,322.726,264.763,324.84,262.942z"/>
		</g>
		<rect x="41" y="305.5" fill="#FFFFFF" width="307" height="6"/>
	</g>
</g>
<g id="Spots" display="none">
	<circle display="inline" fill="#16C98D" cx="260" cy="93.5" r="39"/>
</g>
</svg>
