<?xml version="1.0" encoding="utf-8"?>
<!-- Generator: Adobe Illustrator 17.0.0, SVG Export Plug-In . SVG Version: 6.00 Build 0)  -->
<!DOCTYPE svg PUBLIC "-//W3C//DTD SVG 1.1//EN" "http://www.w3.org/Graphics/SVG/1.1/DTD/svg11.dtd">
<svg version="1.1" xmlns="http://www.w3.org/2000/svg" xmlns:xlink="http://www.w3.org/1999/xlink" x="0px" y="0px" width="384px"
	 height="550px" viewBox="0 0 384 550" enable-background="new 0 0 384 550" xml:space="preserve">
<g id="Borders" display="none">
	<g display="inline">
		<rect fill="#5D5D5D" width="384" height="550"/>
	</g>
</g>
<g id="Labels">
</g>
<g id="Names">
	<g>
		<g>
			<path fill="#FFFFFF" d="M141.599,276.913l0.076,0.808l0.794,1.345l0.85,0.914l0.57,0.99l0.038,0.405l0.513,0.382l0.591,2.227
				l0.206,0.152l0.575,3.062l0.255,1.696l0.118,3.287l0.16,0.683l-0.356,3.309l-0.033,1.668l-0.148,0.454l-0.061,2.401l-0.167,0.252
				l0.067,0.708l-0.241,0.479l0.044,3.514l-0.17,3.26l-0.109,0.86l-0.241,0.478l-0.097,3.033l0.343,3.642l0.246,1.593l0.646,1.799
				l0.42,0.407l0.988,0.359l0.233,0.457l1.435,0.033l1.37,0.361l1.147,1.043l0.668,3.037l0.109,3.185l-0.286,1.01l-0.743,1.234
				l-1.172,0.727l-1.583,0.421l-3.139,0.109l-0.214-0.254l-2.478,0.036l-1.902-0.945l-0.466,0.123l-0.971-1.193l-2.276-1.884
				l-0.375-0.937l-0.187,0.05l-0.038-0.405l-0.327-0.431l-0.957-3.064l-0.627-1.597l-0.329-1.468l-0.007-3.109l0.304-1.844
				l-0.109-3.184l-0.086-0.911l0.158-0.354l-0.041-1.441l0.347-3.411l0.161-3.361l0.385-3.006l-0.078-1.845l0.189-3.057l0.068-3.336
				l-0.334-3.542l-0.481-3.086l-1.403-2.738l-0.682-1.167l-0.382-0.002l-0.151-0.582l-1.651-1.324l-0.382-0.002l-0.513-0.381
				l-0.661,0.072l-0.401-0.204l-1.146-0.006l-0.895-0.385l-1.36-0.26l-1.611,0.117l-1.759,0.572l-0.901,1.587l-0.174,1.188
				l-0.325,0.605l-0.349,2.374l-0.518,1.589l-0.136,1.591l-0.425,1.565l-0.418,0.631l0.038,0.403l-0.186,0.05l0.048,0.506
				l-0.187,0.05l0.038,0.405l-0.508,1.691l-0.655,3.181l-0.251,0.377l-0.664,3.08l-0.519,1.589l-0.58,2.956l0.038,0.404
				l-0.186,0.049l-0.037,0.632l-0.621,1.513l-0.729,3.408l-0.322,1.641l-0.631,1.413l-1.246,0.953l-3.249,0.967l-0.809,0.527
				l-1.052-0.032l-1.657,0.648l-1.611,0.118l-0.616-0.458l-0.346-0.634l0.253-3.386l0.174-1.188l0.64-1.311l0.413-2.702l0.85-3.13
				l0.435-1.463l0.082-1.163l0.824-2.396l0.628-2.449l0.832-3.331l0.84-3.231l0.831-3.333l0.223-0.68l0.082-1.162l0.279-0.073
				l0.756-3.107l0.442-2.398l0.186-0.049l-0.047-0.506l0.186-0.05l0.609-2.651l0.59-2.853l0.187-0.05l0.055-0.429l0.585-0.881
				l0.562-3.156l0.406-1.767l-0.047-0.506l0.279-0.074l-0.038-0.405l0.25-0.378l0.554-2.22l-0.067-0.709l0.934-3.256l0.832-3.331
				l0.628-2.449l0.25-0.377l0.036-0.631l0.279-0.074l-0.048-0.506l0.187-0.05l-0.039-0.405l0.186-0.049l-0.047-0.506l0.279-0.074
				l0.22-1.716l0.611-1.616l0.26-0.276l1.438-2.975l1.132-2.168l0.623-0.477l0.919-1.384l2.547-2.336l1.236-1.054l1.266-0.751
				l0.744-0.199l0.26-0.277l-0.019-0.203l1.303-0.347l1.101,0.538l1.054,1.067l1.059,3.141l0.066,0.708l-0.723,1.437l0.038,0.406
				l-1.134,1.13l-0.91,1.487l-0.864,0.955l-0.036,0.631l-0.975,1.814l-0.807,1.563l-0.165,1.288l-0.501,0.756l-0.165,1.289
				l-0.502,0.754l0.058,0.608l-0.822,3.433l-0.831,3.332l-0.739,3.307l-0.73,2.372l-0.167,0.252l0.05,1.542l0.355,0.734l0.616,0.46
				l2.115,0.162l0.876,0.182l0.754-0.097l0.029,0.303l2.85-0.135l2.867-0.969l3.024-1.324l1.35-0.877l0.967-0.879l0.548-0.249
				l0.605-0.68l1.162-0.828l1.16-1.864l0.967-0.878l0.119-0.758l1.106-1.433l1.438-2.977l0.788-1.765l0.027-0.732l0.417-0.63
				l0.449-3.334l0.277-1.111l0.17-3.26l-0.059-1.643l-0.491-3.188l-0.32-1.367l-1.168-2.281l-0.869-1.118l-0.253-0.659l-1.092-1.473
				l-2.007-2.058l-2.695-1.254l-0.308-0.23l-0.475,0.023l-0.234-0.455l-0.568,0.046l-1.007-0.562l-2.878-0.167l-0.857,0.02
				l-0.206-0.153l-2.942,0.161l-2.812,0.541l-3.062,0.917l-2.951,1.097l-2.8,1.678l-1.461,0.699l-0.696,0.704l-0.819,0.425
				l-0.148,0.454l-2.027,1.783l-0.632,0.376l-2.146,2.541l-2.024,2.82l-0.817,1.462l-1.365,1.711l0.048,0.505l-0.354,0.301
				l0.047,0.506l-0.269,0.176l-0.705,1.638l-0.26,0.277l-0.046,0.532l-0.446,0.325l0.038,0.405l-0.344,0.403l0.048,0.506
				l-0.428,0.529l-0.239,1.515l-0.241,0.478l-0.72,3.51l-0.239,1.516l0.081,2.881l0.333,3.542l0.214,0.253l-0.241,0.479l0.869,1.117
				l0.207,1.189l0.298,0.127l0.413,1.344l0.172,1.82l-0.213,0.783l-0.613,0.578l-0.91,1.487l-2.053,2.516l-0.511,0.654l-0.373,0.099
				l-0.427,0.529l-0.829,0.324l-0.764-0.005l-0.952-0.991l-0.365-0.836l-0.597-0.256l-0.16-0.684l-1.103-1.573l-0.677-3.139
				l-0.618-1.494l-0.482-3.087l-0.218-6.37l0.449-3.334l0.479-3.03l1.027-3.28l0.619-2.55l0.408-0.73l0.12-0.758l0.91-1.486
				l0.509-1.691l0.51-0.655l0.056-0.429l1.736-2.846l2.024-2.82l1.003-1.511l0.633-0.376l0.222-0.681l1.031-1.207l0.623-0.477
				l0.751-1.133l0.623-0.477l0.148-0.454l0.633-0.376l0.604-0.68l0.902-0.55l0.511-0.655l2.726-1.452l1.349-0.876l0.157-0.353
				l2.81-1.578l2.354-1.351l2.623-1.528l3.072-0.817l3.277-0.663l2.802-0.642l1.49-0.396l1.425-0.068l2.98,0.244l2.86-0.034
				l0.279-0.074l0.029,0.303l0.372-0.099l0.019,0.202l0.465-0.124l0.019,0.203l0.465-0.123l0.019,0.201l0.373-0.099l0.028,0.303
				l0.465-0.124l0.019,0.203l0.857-0.021l0.904,0.485l0.959,0.055l0.615,0.459l0.373-0.099l0.233,0.457l0.773,0.103l1.12,0.74
				l0.587,0.155l0.522,0.483l0.989,0.36l0.532,0.584l1.735,1.198l0.795,1.345l0.308,0.228l0.141,0.482l0.187-0.05l1.41,1.803
				l0.298,0.128l0.439,0.609l0.299,0.129l0.038,0.405l0.186-0.049l0.048,0.505l0.186-0.05l1.105,2.611l0.761,3.012l0.658,2.936
				l0.426,3.516l-0.077,3.235l-0.45,3.333l-0.468,3.132l-0.499,1.792l-0.22,1.718l-0.306,0.807l0.038,0.405l-0.454,1.262
				l-2.421,4.687l-0.437,0.428l-0.984,1.713l-1.031,1.208l-1.226,2.192l-1.32,1.18l-0.771,0.932l-1.246,0.953l-0.502,0.756
				l-2.585,1.931l-2.716,1.553l-0.679,0.905L141.599,276.913z M109.368,297.41l0.485,0.078l-0.337-0.533l-0.187,0.05L109.368,297.41
				z M110.8,305.532l-0.085-0.911l-0.214-0.255l-0.652,0.173l0.57,0.99l0.187-0.05L110.8,305.532z M110.154,307.777l0.623-0.476
				l0.109-0.858l-0.866-0.082L110.154,307.777z M110.395,294.129l0.456-0.225l0.43,0.508l-0.081,1.163l1.453,0.235l0.428-0.529
				l-0.131-0.379l-0.522-0.483l-0.17-0.785l-0.699-0.333l-0.272-0.862l0.038,0.405l-0.947,1.083L110.395,294.129z M110.526,298.553
				l0.038,0.405l0.67,0.028l0.261-0.276l-0.038-0.405l-0.308-0.23l-0.372,0.099l-0.075,0.228L110.526,298.553z M111.88,287.615
				l-0.688,0.806l-0.045,0.532l2.06,0.592l-0.045,0.531l0.263,0.758l0.289,0.027l0.353-0.301l0.416-1.666l0.176-0.151l-0.847,0.122
				l-1.745-1.299L111.88,287.615z M113.545,281.989l-1.043,0.069l0.038,0.406l0.308,0.229l0.568-0.047l0.158-0.353L113.545,281.989z
				 M114.945,287.734l-0.12,0.758l0.205,0.153l0.53-0.453l-0.031-1.34l-1.071-0.234l-0.456,0.226l0.057,0.606l0.773,0.106
				L114.945,287.734z M118.029,278.93l-0.289-0.026l-0.429-0.509l0.262,0.76l-0.158,0.352l-0.465,0.123l-0.152-1.618l0.296-0.907
				l0.418-0.63l0.446-0.327l0.702,1.369l0.382,0.003l0.585-0.881l0.857-0.022l0.623-0.476l0.055-0.429l-0.726,0.4l-0.382-0.002
				l-0.215-0.254l1.032-1.207l0.119-0.758l0.633-0.376l0.306-0.806l-0.848,0.121l-0.702-1.369l-0.818,0.425l-0.671-0.029
				l-0.718-0.535l-0.381-0.002l-0.241,0.479l-0.633,0.376l-0.418,0.629l-0.129,0.658l0.986-0.679l0.317,0.332l-0.409,0.73
				l-0.518,1.589l-1.201,0.424l-0.401-0.205l0.315-0.707l-0.038-0.404l-0.68-0.131l-0.008,0.935l-0.427,0.529l-0.212,0.782
				l0.179,0.885l0.728,0.636l0.115,1.214l0.878,1.219l0.549-0.25l0.689,0.231l0.43,0.508l0.979,0.259l-0.592-2.229L118.029,278.93z
				 M114.223,294.251l0.131,0.381l0.382,0.001l0.623-0.477l-0.019-0.201l-0.391-0.103l-0.447,0.326L114.223,294.251z
				 M115.021,283.462l0.319,1.367l0.838-0.223l0.158-0.352l-0.086-0.911l0.614-0.578l-0.308-0.229l-0.754,0.096l-0.624,0.476
				l-0.074,0.227L115.021,283.462z M115.697,286.6l0.523,0.484l0.382,0.002l0.12-0.758l-0.439-0.609l0.604-0.679l0.055-0.429
				l-0.391-0.103l-0.881,1.789L115.697,286.6z M117.142,269.521l-0.252-0.658l-0.671-0.029l-0.167,0.251l0.16,0.683l0.299,0.128
				l0.465-0.123L117.142,269.521z M118.643,265.182l-0.067-0.709l-0.652,0.173l0.132,0.38l0.4,0.205L118.643,265.182z
				 M120.766,269.491l-0.178-0.886l-1.122-1.775l-1.053-0.031l-0.437,0.427l0.262,0.759l0.953,0.992l-0.222,0.681l0.021,1.238
				l0.773,0.106l0.549-0.25l0.167-0.252l0.857-0.02l-0.038-0.405l-0.514-0.382L120.766,269.491z M120.066,273.203l0.513,0.381
				l-0.055,0.43l-1.105,1.434l-0.362,0.201l-0.393-0.104l-0.477-1.013l0.409-0.73l0.847-0.122l0.539-0.349L120.066,273.203z
				 M122.679,262.449l-0.215-0.254l-0.976,0.778l-1.268-0.285l-1.759,0.571l0.833,1.749l0.354-0.301l2.179-0.164l-0.038-0.405
				l-0.419-0.407l-0.029-0.304l1.676-0.446l0.716-0.501l0.017-0.834l-0.883,0.754L122.679,262.449z M119.627,259.425l0.837-0.223
				l0.148-0.454l-0.159-0.683l-0.616-0.459l-0.568,0.047l0.338,1.57L119.627,259.425z M119.898,255.205l0.856-0.022l-0.047-0.505
				l-0.504-0.28l-0.232,0.58L119.898,255.205z M120.945,257.207l0.372-0.099l-0.038-0.405l-0.372,0.099L120.945,257.207z
				 M121.917,267.526l0.157-0.353l-0.188-0.987l-0.308-0.229l-0.466,0.123l0.124,1.315l0.495,0.181L121.917,267.526z
				 M121.537,259.436l0.212-0.783l-0.485-0.079l0.076,0.81L121.537,259.436z M122.873,248.295l0.165-1.288l-0.716,0.502
				l-0.026,0.732l0.298,0.129L122.873,248.295z M122.375,272.381l0.345,0.633l0.578,0.055l-0.019-0.203l0.187-0.05l-0.346-0.633
				l-0.578-0.054l0.009,0.102L122.375,272.381z M122.693,225.114l0.372-0.099l-0.047-0.504l-0.372,0.099L122.693,225.114z
				 M124.504,253.461l-1.212-0.715l-0.345,0.403l1.213,0.715l0.635,0.66l0.408-0.73l0.614-0.579l0.157-0.352l-1.284,0.549
				L124.504,253.461z M123.496,260.987l0.372-0.099l-0.038-0.404l-0.372,0.1L123.496,260.987z M123.591,248.83l0.14,0.481
				l0.568-0.048l0.167-0.252l0.391,0.103l0.531-0.451l0.651-0.173l-0.122-0.279l-1.602,0.218l-0.549,0.249L123.591,248.83z
				 M132.384,275.319l-0.42-0.406l-0.456,0.225l-0.074,0.228l0.224,0.354l0.651-0.173L132.384,275.319z M133.136,274.186
				l0.066,0.709l0.298,0.127l1.294-0.447l0.065-0.327l-0.225-0.356l-0.587-0.155l-0.735,0.3L133.136,274.186z M135.835,277.513
				l0.222-0.682l0.549-0.249l-0.346-0.634l-0.578-0.054l-0.222,0.682l-0.549,0.249l-0.336-0.533l-0.382-0.002l0.263,0.76
				l0.606,0.357l0.578,0.054L135.835,277.513z M136.454,274.962l-0.019-0.202l0.187-0.049l-0.131-0.38l-0.289-0.027l0.058,0.608
				L136.454,274.962z M137.463,276.562l0.158-0.354l-0.131-0.38l-0.597-0.257l0.169,0.786l0.215,0.254L137.463,276.562z
				 M137.668,289.884l-0.039-0.406l-0.513-0.382l-0.158,0.353l0.131,0.381l0.299,0.128L137.668,289.884z M137.872,271.786
				l-0.577-0.054l-0.055,0.428l0.392,0.103l0.26-0.277L137.872,271.786z M137.333,307.601l0.828-0.324l0.335-0.504l0.055-0.428
				l-0.716,0.502l-0.428,0.528L137.333,307.601z M139.552,322.046l-0.048-0.506l-0.298-0.128l-0.25,0.378l0.317,0.33
				L139.552,322.046z M139.164,292.597l0.43,0.508l0.959,0.055l-0.449-0.71l-0.298-0.128l-0.465,0.123L139.164,292.597z
				 M140.446,295.055l-1.144,1.031l0.038,0.406l0.681,0.129l0.651-0.173l0.244,0.558l0.372-0.099l0.25-0.378l0.027-0.732
				l-0.347-0.634l-0.587-0.156L140.446,295.055z M140.182,289.215l1.809,0.971l0.604-0.68l-1.155-0.108l-0.038-0.405l-0.673-1.066
				l-0.651,0.173L140.182,289.215z M140.836,321.497l0.809-0.526l-0.596-0.256l-0.279,0.074L140.836,321.497z M141.093,301.934
				l0.484,0.08l0.139-0.556l-0.391-0.104l-0.158,0.354L141.093,301.934z M141.713,308.511l-0.373,0.099l-0.055,0.429l0.372-0.099
				l0.075-0.227L141.713,308.511z M141.992,299.31l-0.048-0.505l-0.298-0.128l-0.25,0.378l0.317,0.329L141.992,299.31z
				 M141.957,291.854l-0.425,1.565l0.169,0.784l0.53-0.451l-0.002-1.037l0.466-0.124l0.184-1.085l0.623-0.477l0.212-0.781
				l-0.215-0.255l-0.465,0.124l-0.082,1.161l-0.809,0.527L141.957,291.854z M142.148,303.002l0.392,0.103l-0.243-0.558l-0.187,0.05
				L142.148,303.002z M142.796,287.587l0.465-0.124l-0.038-0.405l-0.465,0.124L142.796,287.587z M152.905,231.805l-0.623,0.477
				l0.122,0.279l0.632-0.376l-0.019-0.202L152.905,231.805z M154.577,251.582l-0.038-0.406l-0.308-0.228l-0.279,0.073l-0.075,0.227
				l0.504,0.28L154.577,251.582z"/>
			<path fill="#FFFFFF" d="M178.291,242.994l-0.32,2.677l-0.279,0.074l-0.646,3.282l-0.721,2.473l0.038,0.405l-0.417,0.63
				l-0.082,1.162l-0.37,1.136l-0.229,1.617l-0.186,0.049l-0.416,1.667l-0.25,0.377l0.047,0.505l-0.177,0.151l0.038,0.405
				l-0.731,2.371l-0.007,0.935l-0.27,0.176l-0.748,3.206l-0.566,1.084l0.048,0.506l-0.187,0.049l0.038,0.405l-0.279,0.073
				l-0.385,3.006l-0.655,3.182l-0.737,3.307l-0.12,0.758l-0.501,0.756l0.067,0.709l-0.461,2.196l-0.186,0.049l-0.562,3.157
				l-0.108,1.895l0.245,1.593l1.148,1.043l0.699,0.332l1.303-0.347l1.358-0.776l2.11-1.91l1.411-2.242l0.624-0.476l0.918-1.385
				l1.531-2.999l1.521-3.101l1.309-2.318l0.213-0.783l0.353-0.301l0.667-2.044l1.29-2.52l-0.038-0.405l0.518-1.589l1.299-2.42
				l0.716-0.502l0.931-0.248l0.772,0.106l1.652,1.323l0.076,0.81l0.225,0.355l-0.053,1.465l-0.797,1.665l-0.573,2.019l-0.501,0.756
				l-0.027,0.733l-0.408,0.73l-0.27,0.176l0.038,0.405l-0.752,1.133l0.047,0.505l-0.186,0.05l-0.12,0.758l-0.521,0.552l-0.129,0.657
				l-0.762,1.031l-0.119,0.758l-0.354,0.301l0.038,0.405l-0.418,0.63l-0.119,0.758l-0.771,0.931l0.028,0.304l-1.829,2.871
				l-2.015,2.92l-0.306,0.807l-0.633,0.376l-0.565,1.083l-0.279,0.074l-1.003,1.512l-1.748,1.708l-0.669,1.008l-0.372,0.099
				l0.019,0.202l-2.624,1.528l-1.246,0.953l-2.979,0.792l-2.309,0.822l-0.205-0.153l-0.651,0.173l-2.731-0.621l-0.298-0.13
				l-0.785-1.243l-0.392-0.103l-0.224-0.356l0.007-0.934l-1.933-2.286l-0.565-2.96l-0.314-3.339l0.366-3.208l0.136-1.593l0.187-0.05
				l0.034-1.667l1.476-6.613l0.602-1.716l0.332-1.54l0.176-0.151l0.127-1.694l0.333-1.54l0.398-0.833l0.146-1.491l0.177-0.15
				l0.036-0.631l0.25-0.377l0.026-0.734l0.425-1.564l0.428-0.53l-0.057-0.606l0.654-3.182l0.84-3.231l1.037-3.18l0.776-2.901
				l0.418-0.631l0.165-1.288l0.379-1.034l0.817-1.462l0.977-0.778l6.516-1.733l1.323-0.144l1.231,0.917L178.291,242.994z
				 M162.972,293.109l0.391,0.103l0.231-0.581l-0.484-0.078l-0.065,0.328L162.972,293.109z M164.28,281.665l-0.614,0.579
				l0.206,0.153l0.362-0.201l0.158-0.353L164.28,281.665z M164.208,278.885l0.652-0.173l0.919-1.384l-0.689-0.232l-0.623,0.477
				l-0.287,1.009L164.208,278.885z M164.38,289.831l0.53-0.452l0.399-0.833l-0.076-0.809l-0.624,0.476l-0.155,1.391L164.38,289.831z
				 M164.875,285.967l0.148-0.455l-0.253-0.659l0.418-0.63l-0.02-0.202l-0.651,0.173l-0.053,1.466l0.214,0.253L164.875,285.967z
				 M165.043,294.839l0.67,0.029l-0.131-0.38l-0.392-0.103L165.043,294.839z M165.593,264.207l0.038,0.404l0.308,0.23l0.373-0.1
				l0.119-0.757l-0.205-0.153l-0.456,0.225L165.593,264.207z M166.312,273.866l-0.141-0.482l-0.298-0.128l-0.231,0.581l0.392,0.103
				L166.312,273.866z M166.92,266.134l-0.038-0.404l-0.513-0.383l-0.186,0.05l-0.026,0.733l0.484,0.078L166.92,266.134z
				 M167.943,256.738l-0.398,0.831l-0.938,1.184l0.942,0.889l1.554-0.724l1.239-0.019l0.428-0.528l0.372-0.099l-0.062,1.365
				l0.234,0.455l0.613-0.577l0.146-1.491l-0.499-2.252l-0.772-0.106l-1.167-1.245l-2.067,0.342l0.422,1.443l-0.074,0.227
				L167.943,256.738z M167.359,279.913l0.54-0.35l0.055-0.43l-0.327-0.431l-0.186,0.05l-0.288,1.009L167.359,279.913z
				 M167.425,258.327l0.437-0.427l0.308,0.23l-0.073,0.227l-0.651,0.173L167.425,258.327z M167.545,270.738l0.429,0.508l0.289,0.027
				l0.417-0.63l0.229-1.617l-0.262-0.759l-0.652,0.173l-0.48,1.994L167.545,270.738z M167.664,260.855l0.031,1.341l0.224,0.355
				l0.773,0.105l0.175-1.187l0.809-0.526l-0.158,0.353l0.272,0.861l0.726-0.401l0.417-0.629l-0.42-0.407l0.101-0.959l-1.592,0.319
				l-1.182,0.625L167.664,260.855z M167.686,267.176l0.838-0.223l-0.047-0.506l-0.485-0.078l-0.231,0.581L167.686,267.176z
				 M171.246,250.259l-0.843,2.195l-0.436,0.428l-0.382-0.003l-0.513-0.382l-0.652,0.172l0.15,0.583l0.373-0.099l0.307,0.229
				l0.671,0.029l0.539-0.35l1.222,0.816l0.578,0.054l0.046-0.531l-0.561-0.888l0.27-0.174l0.728,0.635l1.042-1.106l-0.17-0.786
				l0.399-0.831l-0.298-0.128l-0.726,0.4l-0.495-0.181l-1.333-0.992L171.246,250.259z M168.472,264.374l0.253,0.659l0.912-0.45
				l-0.066-0.709l-0.382-0.003l-0.632,0.376L168.472,264.374z M169.552,255.584l0.272,0.861l-0.408,0.73l-0.892,0.653l-0.039-0.406
				l0.379-1.034l-0.122-0.279l0.624-0.477L169.552,255.584z M168.747,249.057l1.024-0.272l-0.085-0.911l-0.465,0.124l-0.492,0.857
				L168.747,249.057z M168.985,251.586l0.651-0.172l-0.131-0.38l-0.568,0.046L168.985,251.586z M183.311,229.423l-0.27,0.176
				l-0.017,0.834l-0.501,0.756l-0.129,0.656l-0.697,0.704l-0.456,0.225l-0.501,0.756l-2.38,2.084l-3.315,0.26l-1.136,0.094
				l-1.511-0.843l-0.038-0.405l-0.606-0.357l-1.169-2.283l-0.205-0.152l-0.33-1.468l0.117-1.794l0.593-1.816l0.52-0.553l0.695-1.739
				l0.427-0.529l2.158-1.404l2.42-0.643l1.528,0.008l1.37,0.362l1.726,1.097l0.243,0.557l0.616,0.459l0.384,1.038l0.426,3.516
				L183.311,229.423z M170.755,256.197l0.504,0.28l0.057,0.608l-0.428,0.529l-0.011-1.138L170.755,256.197z M171.76,255.722
				l0.642-0.275l0.158-0.352l-0.67-0.03l-0.158,0.353L171.76,255.722z M172.936,247.943l0.689,0.232l0.148-0.455l-1.193-0.513
				l-0.131-0.379l-0.28,0.074l0.048,0.506L172.936,247.943z M173.488,248.731l-0.578-0.054l-0.055,0.429l0.298,0.128l0.354-0.301
				L173.488,248.731z M177.513,227.646l0.272,0.86l-0.036,0.632l-0.437,0.427l0.692,1.267l-0.055,0.43l0.382,0.002l0.222-0.68
				l-0.004-2.074l1.088-0.601l0.055-0.429l-0.514-0.382l-1.479,0.497L177.513,227.646z"/>
			<path fill="#FFFFFF" d="M227.52,230.732l0.477,1.013l-0.636,3.384l-0.25,0.377l0.067,0.709l-0.428,0.53l0.057,0.606l-1.018,3.381
				l-0.879,2.827l-0.239,1.515l-0.519,1.589l-0.174,1.187l-0.417,0.631l-0.082,1.161l-0.279,0.074l-0.165,1.289l-0.502,0.756
				l-0.153,2.426l-0.545,2.322l-0.416,1.666l-0.408,0.731l-0.479,3.031l-0.26,0.276l-0.425,1.565l0.038,0.405l-0.417,0.63
				l-0.24,1.515l-0.601,1.716l-0.359,2.273l-0.501,0.755l-0.404,2.804l-0.621,1.513l-0.175,1.187l-0.25,0.378l0.085,0.91
				l-0.176,0.151l-0.043,1.567l0.411,0.306l0.773,0.105l2.464-2.21l2.333-2.591l2.043-2.618l1.922-2.895l2.043-2.617l0.929-1.284
				l0.361-1.237l0.511-0.653l-0.047-0.506l1.263-1.788l0.129-0.657l1.113-2.37l0.919-1.385l0.463-1.159l0.12-0.758l0.511-0.654
				l0.833-2.296l1.134-1.13l1.024-0.273l1.388,0.564l0.616,0.458l0.852,1.951l-0.341,1.439l-0.705,1.639l-0.511,0.654l-0.194,0.984
				l-0.621,1.514l-0.26,0.277l0.047,0.504l-0.187,0.05l-0.463,1.161l-0.353,0.3L236,264.044l-0.929,1.285l0.029,0.303l-1.8,3.175
				l-1.132,2.167l-1.236,1.055l-1.727,2.948l-1.002,1.51l-1.041,1.107l-0.566,1.083l-0.372,0.099l-0.939,1.184l-2.37,2.185
				l-0.678,0.906l-0.372,0.099l0.028,0.304l-0.466,0.123l0.019,0.202l-0.642,0.275l-0.521,0.553l-0.148,0.453l-0.736,0.3
				l-0.314,0.706l-0.372,0.099l0.019,0.202l-1.256,0.853l-0.25,0.377l-2.585,1.932l0.028,0.303l-0.372,0.1l-1.021,1.308
				l-0.733,1.336l-0.851,3.129l-0.146,1.491l-0.26,0.276l-0.934,3.257l-0.471,2.094l-0.427,0.529l0.057,0.607l-0.862,1.992
				l0.038,0.404l-1.075,2.775l-1.54,2.898l-1.735,2.847l-0.549,0.249l-2.016,2.921l-2.408,1.781l-2.884,1.804l-1.377,0.574
				l-2.933,0.261l-1.872,0.394l-0.875-0.181l-0.43-0.508l-0.372,0.099l-2.303-1.15l-1.017-0.662l-1.393-2.637l-0.497-1.216
				l-0.284-1.999l0.17-3.26l0.425-1.565l0.511-0.653l0.119-0.758l0.622-1.513l1.941-2.694l0.372-0.099l0.557-1.185l0.642-0.274
				l0.148-0.454l0.465-0.124l0.055-0.429l0.902-0.551l0.428-0.529l0.996-0.576l0.324-0.604l0.466-0.123l0.148-0.454l0.465-0.123
				l0.139-0.556l0.642-0.274l0.511-0.655l2.679-1.956l1.451-0.801l0.604-0.679l1.339-0.979l2.054-2.516l0.797-1.664l0.203-0.884
				l-0.048-0.506l-1.072-0.234l-0.725,0.401l-0.762,1.032l-2.139,1.606l-1.32,1.179l-1.285,0.55l-3.193,0.539l-2.581-0.04
				l-0.988-0.36l-1.642-1.222l-0.131-0.379l-0.606-0.357l-0.038-0.405l-0.186,0.049l-0.048-0.506l-0.186,0.05l-0.038-0.405
				l-0.279,0.074l-0.477-1.014l-0.799-3.417l-0.473-2.986l0.338-3.511l-0.11-3.187l0.189-3.056l0.636-3.384l0.535-2.423l0.552-3.259
				l0.6-2.752l0.187-0.049l0.748-3.206l0.518-1.589l0.26-0.277l0.306-0.808l-0.038-0.405l0.186-0.049l-0.047-0.505l0.279-0.074
				l0.786-2.802l0.428-0.527l-0.048-0.506l0.187-0.05l-0.038-0.405l0.186-0.049l0.036-0.632l1.708-3.151l1.727-2.947l2.034-2.719
				l2.342-2.49l1.246-0.953l0.251-0.377l2.624-1.527l1.368-0.675l1.583-0.421l2.179-0.165l2.33,0.417l0.475-0.023l0.522,0.484
				l1.501,0.741l0.15,0.583l1.455,1.272l0.253,0.659l1.203,0.613l1.239-0.018l1.627-0.952l2.204-1.935l0.707-0.602l-0.019-0.202
				l0.465-0.123l0.502-0.755l0.539-0.352l0.838-0.222l1.972-1.354l1.332-0.043L227.52,230.732z M188.339,268.631l0.055-0.429
				l-0.606-0.358l-0.128,0.658l0.401,0.204L188.339,268.631z M188.026,279.498l0.652-0.173l-0.067-0.709l-0.651,0.173
				L188.026,279.498z M189.735,281.428l0.451-2.297l-0.623,0.477l-0.296,0.909l0.272,0.861L189.735,281.428z M189.307,272.832
				l1.509-0.193l0.427-0.529l-1.37-0.362l-0.373,0.099l-0.222,0.682L189.307,272.832z M189.801,268.968l0.399-0.833l-0.206-0.152
				l-0.372,0.099l-0.251,0.376l0.039,0.406L189.801,268.968z M191.135,274.005l-1.339,0.978l-0.417,0.63l1.948,0.416l0.604-0.68
				l0.148-0.454l-0.262-0.759l-0.401-0.205L191.135,274.005z M198.085,301.192l-2.361,2.287l-1.869,1.431L193,305.966l-0.549,0.25
				l0.029,0.303l-0.372,0.099l-0.91,1.487l-0.771,0.931l-0.286,1.009l-0.447,0.328l-0.201,1.92l0.394,1.139l0.513,0.383l0.383,0.001
				l0.019,0.202l0.4,0.204l1.332-0.043l2.148-1.504l0.659-1.11l0.549-0.249l1.521-3.101l0.39-0.934l0.668-1.007l0.101-0.959
				l0.621-1.514l0.21-1.819l-0.131-0.38l-0.504-0.28l-0.279,0.074l-0.214-0.255L198.085,301.192z M189.825,284.413l0.391,0.103
				l0.148-0.454l-0.391-0.103L189.825,284.413z M190.417,286.64l0.119-0.758l-0.577-0.054l0.262,0.759L190.417,286.64z
				 M192.096,279.142l0.11-0.858l-0.664-0.964l-0.298-0.128l-0.297,0.908l0.571,0.989l0.391,0.103L192.096,279.142z M191.59,264.655
				l0.771-0.93l0.047,0.504l0.821,0.612l0.169,0.784l0.187-0.05l0.432-2.499l-1.461,0.7l-0.346-0.634l-0.681-0.131l-0.27,0.176
				l-0.11,0.858l0.336,0.533L191.59,264.655z M192.205,282.328l0.363-0.2l0.148-0.455l-0.41-0.305l-0.12,0.758L192.205,282.328z
				 M192.536,288.877l0.652-0.173l-0.039-0.405l-0.68-0.131L192.536,288.877z M192.786,266.204l0.047,0.506l0.401,0.204l0.428-0.529
				l-0.132-0.379l-0.475,0.022L192.786,266.204z M193.322,259.736l0.95-0.044l0.241-0.479l-0.812-0.51l-0.279,0.074l-0.119,0.757
				L193.322,259.736z M193.961,284.765l-0.492,0.855l0.011,1.139l0.735-0.299l0.893-0.652l0.477,1.013l0.494,0.181l-0.086-0.911
				l0.158-0.353l-0.391-0.103l-0.738-0.738l-0.272-0.861l-0.671-0.029l-0.138,0.556L193.961,284.765z M193.728,271.138l0.671,0.03
				l0.324-0.605l-0.038-0.406l-0.391-0.103l-0.595,0.78L193.728,271.138z M194.349,252.411l0.299,0.128l0.363-0.2l0.158-0.352
				l-0.392-0.103l-0.446,0.326L194.349,252.411z M204.022,245.691l-1.533,1.962l-1.177,2.699l-1.113,2.37l-0.611,1.614l-0.511,0.655
				l-0.748,3.206l-0.704,1.638l-0.812,3.534l-0.231,0.581l-0.636,3.384l-0.268,1.211l-0.26,0.277l-0.068,3.336l-0.449,3.334
				l0.069,1.745l0.751,2.911l1.11,0.639l0.382,0.003l0.019,0.202l1.499-0.295l2.569-1.099l2.146-2.541l0.27-0.175l0.409-0.732
				l0.549-0.249l1.726-2.948l-0.038-0.405l0.836-1.259l0.694-1.741l0.879-2.826l0.313-1.743l0.611-1.614l0.036-0.631l0.695-1.741
				l0.609-2.652l0.533-3.459l0.86-3.029l0.552-3.257l0.043-1.568l-0.479-2.05l-0.449-0.71l-2.155-1.604l-1.425,0.068l-2.857,1.07
				l-1.458,1.735L204.022,245.691z M196.906,250.176l-0.048-0.506l-0.718-0.534l-0.026,0.732l0.224,0.357l0.382,0.001
				L196.906,250.176z M199.194,244.072l0.4,0.204l0.139-0.555l-0.392-0.103L199.194,244.072z M202.503,240.703l-0.578-0.054
				l-0.055,0.429l0.651-0.173L202.503,240.703z M203.454,298.417l0.726-0.402l0.408-0.729l0.129-0.657l-0.439-0.609l-0.559,0.148
				l-0.5,0.756l-0.11,0.859l0.234,0.455L203.454,298.417z M203.54,295.283l0.101-0.961l-0.363,0.2l-0.158,0.354l0.234,0.455
				L203.54,295.283z M203.369,293.462l0.466-0.124l0.521-0.553l-0.048-0.505l0.315-0.707l-0.401-0.204l0.048,0.506l-0.826,1.36
				L203.369,293.462z M204.05,302.716l0.391,0.103l0.735-0.298l0.064-0.328l-0.43-0.507l-0.661,0.072l-0.128,0.657L204.05,302.716z
				 M204.816,299.714l0.485,0.078l0.139-0.555l-0.484-0.079l-0.065,0.329L204.816,299.714z M205.438,294.156l0.279-0.074
				l0.398-0.832l-0.124-1.315l-0.587-0.155l-0.435,1.463l0.355,0.735L205.438,294.156z M208.146,275.289l-0.373,0.099l-0.398,0.833
				l0.29,1.062l0.793,0.308l0.54-0.351l-0.048-0.506l-0.671-0.029l-0.234-0.455l0.848-0.122l0.895,0.384l-1.039,2.143l-0.969-0.157
				l-0.064,0.328l0.419,0.406l0.029,0.304l0.979,0.258l0.224,0.356l-0.231,0.581l-0.904-0.486l-0.279,0.074l-0.045,0.531
				l-0.26,0.277l0.282,0.962l-0.437,0.428l-1.212-0.715l-0.382-0.002l-0.54,0.35l0.346,0.633l0.587,0.156l0.225,0.355l-0.315,0.706
				l-0.184,1.087l1.322-0.144l-0.263-0.76l0.055-0.43l0.26-0.276l1.585,0.616l0.262,0.758l-0.565,1.084l-0.716,0.503l-0.465,0.123
				l-0.026,0.732l-1.191,0.524l-0.157,0.354l0.048,0.506l-0.177,0.149l-0.484-0.077l-0.27,0.176L205,289.502l0.68,0.131l0.456-0.225
				l0.764,0.005l0.215,0.254l1.005-0.475l0.606,0.357l0.578,0.054l1.031-1.207l0.325-0.605l-0.391-0.103l-0.523-0.483l-0.613,0.579
				l-0.215-0.255l0.315-0.706l0.11-0.859l0.325-0.604l0.456-0.225l0.384,1.038l-0.232,0.581l1.9-0.091l0.513,0.381l0.279-0.073
				l0.074-0.227l0.363-0.2l0.074-0.228l0.456-0.225l0.158-0.353l-0.356-0.735l-2.09-1.932l-0.754,0.096l-0.299-0.128l-0.038-0.405
				l1.005-0.474l1.277,0.386l1.136-0.095l-0.424-2.479l-0.726,0.4l-0.503-0.28l-0.038-0.405l0.222-0.681l0.735-0.299l1.16-1.865
				l-0.15-0.581l0.53-0.453l0.008-0.935l-0.299-0.127l-0.346-0.635l-0.298-0.128l-1.227,1.156l-0.465,0.124l-0.606-0.357l0.73-2.372
				l0.354-0.302l0.597,0.258l1.312-0.246l-0.179-0.885l-0.504-0.28l-1.816-0.036l-0.325,0.605l-0.643,0.274l-0.724,1.437
				l-1.052-0.032l-0.318-0.33l-0.353,0.301l-0.046,0.531l0.291,1.063l-0.298-0.128l-0.344,0.403L208.146,275.289z M206.381,291.002
				l-0.038-0.405l-0.298-0.129l-0.745,0.198l0.132,0.381l0.67,0.029L206.381,291.002z M206.532,287.539l0.167-0.251l-0.887-1.32
				l-0.27,0.176l0.086,0.911l0.326,0.431l0.392,0.103L206.532,287.539z M205.852,278.285l0.187-0.05l0.57,0.989l-0.604,0.68
				l0.038,0.405l0.867,0.08l0.414-2.702l-1.053-0.032l-0.437,0.428L205.852,278.285z M206.547,294.794l0.373-0.099l-0.047-0.506
				l-0.373,0.099L206.547,294.794z M206.875,291.181l1.214,1.751l0.392,0.103l0.101-0.96l-0.199-1.087l-0.57-0.991l-0.838,0.223
				l-0.129,0.657L206.875,291.181z M208.242,294.551l0.306-0.807l-0.484-0.079l-0.325,0.606l0.215,0.254L208.242,294.551z
				 M208.581,296.12l0.101-0.961l-0.838,0.223l0.047,0.506l0.504,0.28L208.581,296.12z M208.139,298.519l0.465-0.124l-0.038-0.404
				l-0.465,0.124L208.139,298.519z M209.4,295.695l0.466-0.123l-0.048-0.506l-0.466,0.123L209.4,295.695z M210.011,280.911
				l0.186-0.05l0.225,0.356l-0.091,1.061l-0.381-0.002l-0.57-0.989l0.559-0.149L210.011,280.911z M209.732,290.11l0.485,0.079
				l0.251-0.378l0.045-0.531l-0.465,0.123l-0.334,0.504L209.732,290.11z M210.573,277.754l0.373-0.099l0.718,0.535l-1.265,0.751
				l0.091-1.061L210.573,277.754z M216.014,260.546l-0.597-0.257l-1.246,0.954l0.047,0.505l0.57,0.989l-0.187,0.05l-0.417,0.629
				l-0.372,0.099l-0.709-0.433l-0.27,0.175l0.132,0.38l0.597,0.256l1.145,0.006l0.215,0.254l-0.11,0.859l-0.52,0.553l-0.736,0.298
				l-0.055,0.43l-0.735,0.298l-0.26,0.277l-0.224-0.355l-1.277-0.386l-0.52,0.552l-0.046,0.532l0.848-0.122l0.708,0.433
				l-0.305,0.807l-0.688,0.806l0.484,0.078l0.8-0.626l0.718,0.533l-0.158,0.353l0.244,0.558l0.754-0.097l1.06-0.904l0.124,1.315
				l0.214,0.254l0.363-0.2l0.231-0.581l0.017-0.834l0.614-0.578l0.212-0.783l-0.485-0.078l-1.117,0.298l-0.326-0.432l0.157-0.354
				l-0.281-0.962l1.198-1.46l0.346,0.634l0.298,0.128l1.403-1.307l0.838-0.222l0.055-0.429l-0.263-0.76l-0.532-0.584l-0.361,1.237
				l-0.995,0.576l-0.606-0.357l-0.664-0.964l0.613-0.577l1.573-0.523l0.54-0.351l-0.141-0.482l-0.43-0.507l-0.764-0.005
				l-0.549,0.249L216.014,260.546z M212.868,261.59l-0.131-0.381l-0.606-0.357l-0.578-0.054l0.047,0.506l0.42,0.406l0.568-0.046
				L212.868,261.59z M212.302,284.968l0.373-0.099l0.346,0.633l-0.232,0.581l-0.372,0.099L212.302,284.968z M212.715,259.972
				l0.372-0.099l0.242-0.48l-0.633,0.376L212.715,259.972z M213.608,259.319l0.131,0.38l0.401,0.204l0.363-0.2l0.232-0.581
				l-0.122-0.279l-0.819,0.425L213.608,259.319z M213.875,258.107l0.131,0.378l0.335-0.503l0.372-0.099l0.355,0.735l1.139,0.941
				l0.744-0.198l0.26-0.276l0.43,0.508l0.466-0.124l0.521-0.553l0.212-0.782l-1.435-0.034l-1.563,0.623l-0.888-1.319l-0.392-0.103
				l-0.604,0.679L213.875,258.107z M215.75,254.704l0.138-0.554l-0.439-0.61l-0.745,0.198l-0.026,0.733l0.792,0.308L215.75,254.704z
				 M215.008,261.02l0.392,0.103l-0.091,1.061l-0.298-0.128l-0.076-0.809L215.008,261.02z M216.087,247.149l-0.771,0.93l0.019,0.203
				l0.363-0.201l0.816-1.462l-0.048-0.505l-0.456,0.225l-0.036,0.632L216.087,247.149z M215.836,255.615l-0.352,1.338l0.475-0.023
				l1.1,0.537l0.277-1.111l-0.682-1.167l-0.075,0.228L215.836,255.615z M215.571,266.989l0.651-0.173l-0.067-0.708l-0.465,0.124
				l-0.139,0.553L215.571,266.989z M216.223,253.646l0.493,0.181l0.139-0.556l-0.391-0.104l-0.158,0.354L216.223,253.646z
				 M217.026,245.966l1.139,0.941l0.456-0.224l-0.757-0.94l-0.661,0.073L217.026,245.966z M217.64,254.513l0.823,1.647l0.466-0.123
				l0.976-0.778l-0.233-0.456l-0.924-0.688l-0.931,0.248L217.64,254.513z M218.619,250.726l1.098-0.499l-0.076-0.809l-0.429-0.508
				l-0.578-0.053l-0.043,1.566L218.619,250.726z M220.585,242.22l-0.195-0.053l-0.354,0.303l-0.064,0.327l0.651-0.173l0.075-0.228
				L220.585,242.22z M220.087,253.138l0.857-0.021l-0.048-0.506l-0.298-0.128l-0.363,0.2L220.087,253.138z M220.933,247.934
				l0.623-0.477l0.11-0.858l-0.671-0.029l-0.157,0.352L220.933,247.934z"/>
			<path fill="#FFFFFF" d="M274.128,230.158l-0.44,3.435l-0.416,1.667l-0.091,1.061l-0.186,0.049l0.038,0.405l-0.28,0.074
				l0.047,0.506l-0.186,0.05l0.039,0.405l-0.187,0.049l0.047,0.505l-0.501,0.757l-0.237,2.55l-0.473,1.06l-0.12,0.758l-0.501,0.757
				l-0.449,3.334l-0.935,3.255l-0.519,1.589l-0.191,2.021l-0.325,0.605l0.038,0.405l-0.425,1.565l-0.368,2.172l0.079,1.845
				l0.358,1.772l0.58,1.09l0.568-0.047l0.131,0.38l1.489-0.396l2.399-1.882l2.034-2.719l0.623-0.476l1.514-2.165l0.622-1.513
				l0.835-1.258l1.624-3.026l0.12-0.757l0.446-0.327l0.12-0.758l0.446-0.325l0.12-0.758l0.354-0.301l0.212-0.782l0.669-1.008
				l0.036-0.631l1.02-2.345l0.427-0.528l1.213-3.33l0.25-0.377l1.275-0.65l1.538,0.111l0.802,0.407l0.878,1.219l0.179,0.885
				l-0.416,1.667l-0.408,0.731l-0.509,1.69l-0.334,0.503l0.038,0.406l-0.565,1.084l-0.11,0.858l-0.27,0.176l0.038,0.405
				l-0.279,0.073l-0.026,0.733l-0.714,1.539l-0.762,1.031l-0.12,0.758l-0.354,0.303l-0.212,0.781l-0.604,0.679l-0.036,0.632
				l-0.668,1.007l-0.129,0.658l-0.354,0.3l-0.63,1.413l-2.005,3.022l-2.034,2.719l-2.043,2.617l-0.501,0.756l-0.373,0.099
				l0.019,0.202l-0.466,0.123l0.029,0.304l-0.372,0.099l-0.148,0.455l-0.465,0.123l-0.418,0.63l-2.222,1.732l-0.559,0.149
				l-0.344,0.403l-2.828,1.374l-0.726,0.4l-3.018,0.388l-1.435-0.033l-1.268-0.286l-2.36-1.758l-1.577-1.55l-0.15-0.582
				l-1.193-0.513l-2.342,2.489l-1.922,2.898l-2.213,1.833l-0.251,0.377l-1.349,0.877l-2.298,0.922l-0.168,0.252l-2.681,0.92
				l-2.57,0.063l-0.122-0.279l-0.373,0.099l-0.019-0.201l-0.466,0.123l-0.019-0.202l-0.372,0.099l-0.029-0.304l-1.062-0.132
				l-1.838-1.275l-0.149-0.581l-0.606-0.357l-0.403-1.242l-0.206-0.152l-0.319-1.367l-0.186,0.05l-0.658-2.936l-0.314-3.339
				l0.16-3.36l-0.162-1.72l0.167-0.252l0.253-3.387l0.177-0.15l0.313-1.743l0.053-1.466l0.654-3.181l0.315-0.707l0.552-3.258
				l0.573-2.019l0.034-1.668l0.26-0.276l0.528-1.49l0.11-0.857l0.824-2.398l0.743-1.234l0.406-1.767l0.463-1.16l0.761-1.032
				l0.12-0.758l0.353-0.301l0.612-1.615l0.353-0.301l0.12-0.758l1.839-2.771l0.353-0.301l0.566-1.083l0.457-0.226l0.231-0.579
				l0.642-0.276l0.418-0.629l0.373-0.099l0.501-0.756l0.642-0.275l0.139-0.555l0.372-0.1l0.241-0.478l0.466-0.124l0.325-0.604
				l2.81-1.578l3.072-0.817l2.571-0.06l0.019,0.202l1.053,0.032l2.107,1.098l1.231,0.917l1.298,1.625l0.15,0.582l1.389,0.564
				l0.754-0.096l0.167-0.252l0.744-0.198l2.297-1.96l2.585-1.932l1.05-1.004l2.056-1.481l0.754-0.096l1.026,0.765l0.337,0.532
				l-0.303,1.843l-0.924,3.357l-0.841,3.232l-1.149,3L274.128,230.158z M240.102,251.858l0.157-0.353l-0.131-0.379l-0.392-0.103
				l-0.148,0.455l0.234,0.455L240.102,251.858z M240.08,267.834l1.191-0.524l0.417-0.63l-1.116,0.297l-0.418,0.631L240.08,267.834z
				 M241.326,262.836l0.065-0.328l-0.355-0.736l-0.513-0.382l-0.148,0.455l0.346,0.634l0.504,0.28L241.326,262.836z
				 M242.819,255.388l-0.67-0.03l0.038,0.406l0.559-0.149L242.819,255.388z M243.139,243.585l0.132,0.379l0.792,0.308l0.212-0.782
				l-0.122-0.279l-0.931,0.247L243.139,243.585z M255.398,230.888l-0.465,0.123l0.02,0.203l-0.373,0.099l0.028,0.303l-0.549,0.249
				l-0.398,0.833l-0.623,0.476l-1.633,2.923l-1.418,3.177l-1.428,3.076l-0.454,1.261l-0.186,0.049l0.047,0.506l-0.27,0.176
				l-0.017,0.833l-0.621,1.514l-0.851,3.129l-0.442,2.399l-0.246,2.452l-0.767,3.003l-0.458,3.232l0.211,3.263l0.358,1.771
				l1.289,1.523l0.979,0.259l0.857-0.022l1.572-0.521l1.265-0.752l0.614-0.578l0.064-0.328l0.466-0.124l0.138-0.555l0.373-0.099
				l1.848-2.669l1.736-2.847l1.058-1.94l0.85-3.129l0.645-3.282l0.251-0.378l0.544-2.322l0.251-0.377l0.738-3.308l0.304-1.844
				l0.757-3.104l0.934-3.255l0.118-1.794l-0.546-2.759l-0.615-0.459l-0.263-0.758l-0.523-0.484l-1.276-0.386l-2.282,0.089
				l-0.158,0.353l-1.368,0.674L255.398,230.888z M247.989,237.317l0.195,0.053l0.26-0.277l0.055-0.43l0.427-0.529l-0.019-0.202
				l-0.392-0.103l-0.743,1.234l0.103,0.077L247.989,237.317z M251.976,228.998l0.735-0.299l0.036-0.631l-0.67-0.029l-0.129,0.656
				L251.976,228.998z M254.217,227.469l0.373-0.1l0.138-0.555l-0.391-0.103l-0.139,0.556L254.217,227.469z M258.486,259.621
				l0.298,0.127l0.8-0.626l-0.131-0.38l-0.793-0.308l-0.193,0.985L258.486,259.621z M259.442,266.729l0.241-0.48l-0.243-0.556
				l-0.392-0.103l-0.017,0.833l0.215,0.255L259.442,266.729z M260.071,260.236l0.131,0.38l0.68,0.131l0.53-0.453l-0.019-0.202
				l-0.689-0.231l-0.457,0.225L260.071,260.236z M260.743,256.22l0.716-0.502l-0.252-0.659l-0.774-0.105l-0.167,0.251l0.458,0.811
				L260.743,256.22z M260.642,257.181l0.689,0.231l0.754-0.098l0.53-0.451l0.148-0.455l-0.131-0.381l-0.606-0.357l-1.311,1.283
				L260.642,257.181z M260.876,266.762l0.346,0.634l1.2-0.424l0.203-0.884l-0.353,0.301l-1.22,0.22L260.876,266.762z
				 M261.995,249.25l-0.334,0.503l-0.277,1.111l0.298,0.128l0.076,0.81l0.205,0.152l0.466-0.123l0.635,0.66l0.382,0.003l0.446-0.326
				l-0.346-0.634l-0.373,0.099l-0.317-0.331l0.065-0.327l1.042-0.07l0.158-0.354l1.117-0.297l0.513,0.382l0.353-0.301l-0.048-0.506
				l-1.007-0.562l0.045-0.53l-0.883,0.753l-0.764-0.005l-0.747-0.837l-0.056,0.428L261.995,249.25z M263.188,258.888l-1.573,0.522
				l-0.065,0.329L262,260.45l0.298,0.127l0.437-0.427l1.21-0.322l0.065-0.328l-0.709-0.434L263.188,258.888z M263.747,262.784
				l-0.132-0.38l-0.68-0.131l-0.446,0.327l0.336,0.533l1.239-0.018l0.157-0.354l0.363-0.201l0.351-1.337l-0.549,0.25l-0.203,0.883
				l-0.26,0.277L263.747,262.784z M263.396,246.909l2.048-0.545l0.158-0.353l-0.198-1.089l0.354-0.301l0.792,0.308l0.261-0.277
				l-0.132-0.379l-1.527-0.009l-1.117,0.298l-0.657,2.145L263.396,246.909z M264.41,241.454l-0.736,0.299l-0.296,0.907l1.508-0.192
				l-0.365-0.837L264.41,241.454z M264.741,266.253l0.417-0.631l-0.076-0.809l-0.681-0.129l-0.417,0.629l0.076,0.809l0.401,0.205
				L264.741,266.253z M264.458,237.916l0.346,0.633l0.484,0.078l0.54-0.35l-0.067-0.708l-0.298-0.128l-0.828,0.323L264.458,237.916z
				 M264.566,231.975l0.196,0.052l0.058,0.607l0.362-0.2l0.119-0.758l0.27-0.174l0.392,0.103l0.53-0.453l0.148-0.453l-0.69-0.231
				l-1.301,1.382L264.566,231.975z M265.025,241.912l0.597,0.256l1.518-0.092l0.606,0.357l-0.323,1.64l0.076,0.809l0.225,0.356
				l0.649-1.211l0.212-0.781l0.51-0.655l0.046-0.529l-0.392-0.104l-0.253-0.66l-0.754,0.098l-0.346-0.633l-0.895-0.386l-0.263-0.759
				l0.065-0.328l-0.838,0.223l-0.428,0.528l-0.034,1.668L265.025,241.912z M265.243,248.282l0.289,0.027l0.511-0.653l1.088-0.601
				l0.045-0.531l-0.27,0.176l-0.979-0.259l-0.714,1.539L265.243,248.282z M266.111,253.444l0.193-0.984l-0.465,0.124l-0.158,0.353
				l0.234,0.455L266.111,253.444z M265.914,235.142l0.597,0.257l0.394,1.139l0.324-0.604l0.007-0.936l-0.952-0.991l-0.456,0.224
				l0.195,0.053l-0.129,0.655L265.914,235.142z M266.256,229.659l0.838-0.223l-0.775-1.142l-0.195-0.051l-0.158,0.352l0.188,0.988
				L266.256,229.659z M266.424,238.533l1.036,0.865l1.053,0.032l0.148-0.454l-0.076-0.809l-0.522-0.483l-0.373,0.099l-0.129,0.656
				l-0.783-0.206L266.424,238.533z M267.099,231.509l-0.51,0.654l-0.056,0.43l0.829-0.324l0.511-0.654l0.054-0.43l-0.233-0.455
				l-0.363,0.199l-0.157,0.353L267.099,231.509z M268.447,234.677l0.263,0.759l0.289,0.027l0.624-0.477l0.128-0.656l-0.382-0.003
				l-0.029-0.304l-1.203-0.613l-0.439-0.61l-0.148,0.455L268.447,234.677z M267.885,228.709l0.067,0.708l0.298,0.128l0.745-0.199
				l0.26-0.276l-0.439-0.609l-0.847,0.121L267.885,228.709z M268.041,236.443l0.346,0.635l0.298,0.127l0.838-0.223l0.16,0.684
				l0.578,0.054l0.21-1.819l-0.067-0.709l-0.382-0.001l-0.213,0.782l-1.685,0.344L268.041,236.443z M268.745,225.679l0.048,0.506
				l0.764,0.005l0.26-0.277l-0.048-0.506l-0.392-0.103l-0.549,0.25L268.745,225.679z M269.827,231.095l-0.066-0.708l-0.606-0.357
				l-0.064,0.328l0.346,0.634L269.827,231.095z M269.999,232.916l0.12-0.758l-0.225-0.354l-0.568,0.046l0.086,0.911l0.215,0.254
				L269.999,232.916z M271.182,233.326l0.082-1.162l-0.225-0.355l-0.475,0.022l0.217,1.292l0.205,0.152L271.182,233.326z
				 M270.792,229.179l0.651-0.173l0.12-0.758l-0.457,0.225l-0.241,0.48L270.792,229.179z"/>
		</g>
	</g>
</g>
<g id="Spots" display="none">
</g>
</svg>
