<!DOCTYPE svg PUBLIC "-//W3C//DTD SVG 1.1//EN" "http://www.w3.org/Graphics/SVG/1.1/DTD/svg11.dtd" [
	<!ENTITY ns_flows "http://ns.adobe.com/Flows/1.0/">
]><svg xmlns="http://www.w3.org/2000/svg" width="28" height="28" viewBox="280 150 28 28" overflow="visible" enable-background="new 280 150 28 28"><path fill="#fff" d="M300.756 152.948h-13.18c-1.055 0-1.91.855-1.91 1.909v18.457c0 1.054.855 1.909 1.91 1.909h13.18c1.055 0 1.91-.855 1.91-1.909v-18.457c0-1.053-.855-1.909-1.91-1.909zm-13.272 2.612h4.018v1.814h-4.018v-1.814zm9.385 13.885h-9.385v-1.8h9.385v1.8zm4.012-4.042l-13.396.014v-1.744l13.396-.029v1.759zm0-4.021l-13.396.055v-1.785l13.396-.014v1.744z"/><rect x="280" y="150" width="28" height="28" fill="none"/></svg>