<!DOCTYPE svg PUBLIC "-//W3C//DTD SVG 1.1//EN" "http://www.w3.org/Graphics/SVG/1.1/DTD/svg11.dtd" [
	<!ENTITY ns_flows "http://ns.adobe.com/Flows/1.0/">
]><svg xmlns="http://www.w3.org/2000/svg" xmlns:xlink="http://www.w3.org/1999/xlink" width="29" height="28" viewBox="-0.25 0 29 28" overflow="visible" enable-background="new -0.25 0 29 28"><defs><path id="a" d="M21.124 23.759h-13.334c-2.091 0-3.79-1.692-3.79-3.771v-10.263c0-2.051 1.653-3.725 3.704-3.77v1.946c0 1.131.923 2.049 2.059 2.049 1.134 0 2.057-.918 2.057-2.049v-1.947h4.92v1.947c0 1.131.924 2.049 2.06 2.049 1.135 0 2.059-.918 2.059-2.049v-1.947h.267c.999 0 1.906.386 2.583 1.015l.175.173c.639.676 1.032 1.584 1.032 2.583v10.263c-.002 2.078-1.701 3.771-3.792 3.771zm-11.433-12.213h-3.651v2.973h3.651v-2.973zm0 3.699h-3.651v2.901h3.651v-2.901zm0 3.626h-3.651v1.116c0 .961.783 1.74 1.75 1.74h1.901v-2.856zm4.372-7.325h-3.643v2.973h3.643v-2.973zm0 3.699h-3.643v2.901h3.643v-2.901zm0 3.626h-3.643v2.856h3.643v-2.856zm4.374-7.325h-3.645v2.973h3.645v-2.973zm0 3.699h-3.645v2.901h3.645v-2.901zm0 3.626h-3.645v2.856h3.645v-2.856zm4.437-7.325h-3.709v2.973h3.709v-2.973zm0 3.699h-3.709v2.901h3.709v-2.901zm0 3.626h-3.709v2.856h1.959c.966 0 1.75-.779 1.75-1.74v-1.116zm-4.075-9.645c-.734 0-1.33-.593-1.33-1.324v-3.7359999999999998c0-.73.596-1.323 1.33-1.323s1.328.593 1.328 1.323v3.7350000000000003c0 .732-.594 1.325-1.328 1.325zm-9.036 0c-.734 0-1.329-.593-1.329-1.324v-3.7359999999999998c0-.73.595-1.323 1.329-1.323s1.329.593 1.329 1.323v3.7350000000000003c0 .732-.595 1.325-1.329 1.325z"/></defs><use xlink:href="#a" overflow="visible" fill="#515A65"/><clipPath><use xlink:href="#a" overflow="visible"/></clipPath><rect width="28" height="28" fill="none"/></svg>