<!DOCTYPE svg PUBLIC "-//W3C//DTD SVG 1.1//EN" "http://www.w3.org/Graphics/SVG/1.1/DTD/svg11.dtd" [
	<!ENTITY ns_flows "http://ns.adobe.com/Flows/1.0/">
]><svg xmlns="http://www.w3.org/2000/svg" width="41" height="40" viewBox="10 250 41 40" overflow="visible" enable-background="new 10 250 41 40"><path fill="#fff" d="M35.146 276.844c-3.87 0-7.008-3.138-7.008-7.008 0-3.869 3.138-7.008 7.008-7.008 3.869 0 7.006 3.139 7.006 7.008.001 3.87-3.136 7.008-7.006 7.008zm12.061 8.197h-32.995c-1.936 0-3.504-1.57-3.504-3.504v-23.404c0-1.934 1.568-3.502 3.504-3.502h32.994c1.936 0 3.502 1.568 3.502 3.502v23.404c0 1.934-1.566 3.504-3.501 3.504zm-25.984-27.558h-5.542c-1.17 0-2.119.948-2.119 2.119 0 1.169.949 2.118 2.119 2.118h5.542c1.17 0 2.117-.949 2.117-2.118 0-1.17-.947-2.119-2.117-2.119zm13.923.519c-6.537 0-11.835 5.297-11.835 11.834s5.298 11.834 11.835 11.834c6.535 0 11.833-5.297 11.833-11.834s-5.298-11.834-11.833-11.834z"/><rect x="10.5" y="250" width="40" height="40" fill="none"/></svg>