<svg xmlns="http://www.w3.org/2000/svg" width="17" height="13.155" viewBox="0 0 17 13.155"><g fill="#E5EDF5"><path d="M15.113 13.155h-13.226c-1.041 0-1.887-.846-1.887-1.886v-9.383c0-1.04.846-1.886 1.887-1.886h13.227c1.039 0 1.886.846 1.886 1.886v9.383c0 1.04-.847 1.886-1.887 1.886zm-13.226-12.19c-.509 0-.922.413-.922.921v9.383c0 .508.413.921.922.921h13.227c.508 0 .922-.413.922-.921v-9.383c0-.508-.414-.921-.922-.921h-13.227zM5.829 2.476h-2.795c-.371 0-.673.289-.673.647 0 .356.302.646.673.646h2.795c.372 0 .673-.29.673-.646 0-.358-.301-.647-.673-.647zM10.624 3.893c1.479 0 2.685 1.204 2.685 2.685s-1.205 2.685-2.685 2.685-2.685-1.204-2.685-2.685 1.205-2.685 2.685-2.685m0-.965c-2.016 0-3.649 1.634-3.649 3.649 0 2.017 1.634 3.649 3.649 3.649s3.649-1.633 3.649-3.649c0-2.015-1.634-3.649-3.649-3.649z"/></g></svg>