<svg xmlns="http://www.w3.org/2000/svg" width="40" height="31" viewBox="0 0 40 31"><path d="M24.437 22.212c-3.87 0-7.007-3.137-7.007-7.007 0-3.869 3.137-7.007 7.007-7.007 3.869 0 7.007 3.139 7.007 7.007 0 3.87-3.138 7.007-7.007 7.007zm12.06 8.197h-32.995c-1.935 0-3.503-1.569-3.503-3.503v-23.404c0-1.934 1.568-3.502 3.503-3.502h32.995c1.936 0 3.502 1.568 3.502 3.502v23.404c0 1.934-1.566 3.503-3.502 3.503zm-25.984-27.557h-5.542c-1.17 0-2.119.948-2.119 2.119 0 1.169.949 2.118 2.119 2.118h5.542c1.17 0 2.118-.949 2.118-2.118 0-1.171-.948-2.119-2.118-2.119zm13.924.518c-6.537 0-11.835 5.298-11.835 11.834s5.298 11.835 11.835 11.835c6.536 0 11.833-5.298 11.833-11.834s-5.297-11.835-11.833-11.835zm55.562 1.889v-1.716c0-1.957-1.586-3.543-3.544-3.543h-32.912c-1.958 0-3.544 1.586-3.544 3.543v1.716h4.515v3.691h-4.515v4.542h4.515v3.782h-4.515v4.56h4.515v3.692h-4.515v1.697c0 1.958 1.586 3.543 3.544 3.543h32.912c1.958 0 3.544-1.585 3.544-3.543v-1.697h-4.586v-3.692h4.586v-4.56h-4.586v-3.782h4.586v-4.542h-4.586v-3.691h4.586zm-23.908 16.327v-13.136l10.946 6.568-10.946 6.568z" fill="#fff"/></svg>