<svg xmlns="http://www.w3.org/2000/svg" width="35" height="35" viewBox="0 0 35 35"><g><path fill="#fff" d="M17.484 35c-9.664 0-17.5-7.836-17.5-17.499s7.836-17.501 17.5-17.501c9.66 0 17.5 7.839 17.5 17.501s-7.839 17.499-17.5 17.499zm0-29.268c-6.502 0-11.771 5.27-11.771 11.77s5.27 11.77 11.771 11.77c6.501 0 11.768-5.27 11.768-11.77s-5.267-11.77-11.768-11.77zm2.295 14.07l-10.066 5.463 5.463-10.063 9.719-5.125-5.116 9.725zm-3.607-3.112l-2.506 4.622 4.622-2.509-2.116-2.113z"/><path fill="#BEBEBE" d="M52.5 35c-9.664 0-17.5-7.836-17.5-17.499s7.836-17.501 17.5-17.501c9.661 0 17.5 7.839 17.5 17.501s-7.839 17.499-17.5 17.499zm0-29.268c-6.502 0-11.771 5.27-11.771 11.77s5.27 11.77 11.771 11.77 11.768-5.27 11.768-11.77-5.266-11.77-11.768-11.77zm2.296 14.07l-10.066 5.463 5.462-10.063 9.72-5.125-5.116 9.725zm-3.608-3.112l-2.506 4.622 4.623-2.509-2.117-2.113z"/></g></svg>