<!DOCTYPE svg PUBLIC "-//W3C//DTD SVG 1.1//EN" "http://www.w3.org/Graphics/SVG/1.1/DTD/svg11.dtd" [
	<!ENTITY ns_flows "http://ns.adobe.com/Flows/1.0/">
]><svg xmlns="http://www.w3.org/2000/svg" width="20" height="21" viewBox="10 50 20 21" overflow="visible" enable-background="new 10 50 20 21"><path fill="#E5EDF5" d="M20.522 69.069l-.846-.014-.117.002c0-.012-.041-1.264-1.27-2.93-.467-.633-1.042-1.196-1.65-1.793-1.452-1.42-3.098-3.03-3.098-5.8 0-3.767 2.733-6.5 6.5-6.5 3.766 0 6.5 2.733 6.5 6.5 0 2.672-1.637 4.304-3.08 5.743-.619.617-1.203 1.199-1.664 1.844-1.206 1.683-1.274 2.936-1.275 2.948zm-.48-16.071c-3.209 0-5.537 2.328-5.537 5.537 0 2.364 1.363 3.699 2.808 5.112.609.597 1.239 1.213 1.752 1.908.456.619.769 1.191.984 1.686.215-.492.522-1.062.966-1.68.508-.709 1.148-1.348 1.768-1.966 1.438-1.434 2.797-2.788 2.797-5.061-.001-3.208-2.33-5.536-5.538-5.536zm0 8.081c-1.451 0-2.631-1.18-2.631-2.63 0-1.451 1.18-2.631 2.631-2.631s2.631 1.18 2.631 2.631c0 1.45-1.18 2.63-2.631 2.63zm0-4.298c-.92 0-1.668.748-1.668 1.668s.748 1.668 1.668 1.668 1.668-.748 1.668-1.668-.748-1.668-1.668-1.668z"/><rect x="10" y="50.333" width="20" height="20" fill="none"/></svg>