<!DOCTYPE svg PUBLIC "-//W3C//DTD SVG 1.1//EN" "http://www.w3.org/Graphics/SVG/1.1/DTD/svg11.dtd" [
	<!ENTITY ns_flows "http://ns.adobe.com/Flows/1.0/">
]><svg xmlns="http://www.w3.org/2000/svg" width="11" height="10" viewBox="210 10 11 10" overflow="visible" enable-background="new 210 10 11 10"><path fill-rule="evenodd" clip-rule="evenodd" fill="#fff" d="M215.656 10.27c1.934 0 3.5 1.399 3.5 3.5 0 2.054-1.766 2.936-2.707 4.25-.769 1.072-.793 1.867-.793 1.867s-.006-.798-.794-1.867c-.968-1.313-2.706-2.135-2.706-4.25 0-2.102 1.566-3.5 3.5-3.5zm0 2.201c-.69 0-1.25.559-1.25 1.25s.56 1.25 1.25 1.25 1.25-.56 1.25-1.25-.56-1.25-1.25-1.25z"/><rect x="210.5" y="10" width="10" height="10" fill="none"/></svg>