<!DOCTYPE svg PUBLIC "-//W3C//DTD SVG 1.1//EN" "http://www.w3.org/Graphics/SVG/1.1/DTD/svg11.dtd" [
	<!ENTITY ns_flows "http://ns.adobe.com/Flows/1.0/">
]><svg xmlns="http://www.w3.org/2000/svg" width="21" height="21" viewBox="40 100 21 21" overflow="visible" enable-background="new 40 100 21 21"><path fill="#3B444F" d="M47.328 105.176c0-.105.014-.333.044-.685.032-.351.163-.718.402-1.103.235-.385.617-.729 1.148-1.035.529-.305 1.295-.457 2.292-.457h2.811v3.063h-2.058c-.204 0-.394.077-.564.228s-.259.293-.259.428v1.906h2.881c-.03.373-.062.736-.101 1.086l-.115.924-.137.871h-2.55v8.494h-3.795v-8.494h-1.852v-2.881h1.852v-2.345h.001z"/><rect x="40.083" y="100.042" width="20" height="19.999" fill="none"/></svg>