<!DOCTYPE svg PUBLIC "-//W3C//DTD SVG 1.1//EN" "http://www.w3.org/Graphics/SVG/1.1/DTD/svg11.dtd" [
	<!ENTITY ns_flows "http://ns.adobe.com/Flows/1.0/">
]><svg xmlns="http://www.w3.org/2000/svg" width="21" height="21" viewBox="70 100 21 21" overflow="visible" enable-background="new 70 100 21 21"><path fill="#3B444F" d="M86.39 106.18v3.385h-.846v-3.385h-3.387v-.848h3.387v-3.383h.846v3.383h3.387v.848h-3.387zm-6.864-3.387h-1.661c1.102.425 1.688 1.707 1.688 3.023 0 1.105-.612 2.055-1.478 2.732-.845.66-1.006.936-1.006 1.496 0 .479.905 1.293 1.38 1.629 1.382.977 1.83 1.885 1.83 3.398 0 1.893-1.83 3.771-5.143 3.771-2.906 0-5.358-1.184-5.358-3.072 0-1.92 2.238-3.77 5.144-3.77l.906-.01c-.397-.385-.712-.859-.712-1.445 0-.348.111-.682.265-.977l-.483.012c-2.387 0-3.987-1.695-3.987-3.799 0-2.059 2.208-3.834 4.556-3.834h5.232l-1.173.846zm-4.05 9.695c-2.012-.021-3.81 1.225-3.81 2.721 0 1.527 1.45 2.799 3.46 2.799 2.823 0 3.807-1.193 3.807-2.721 0-.184-.022-.363-.064-.541-.22-.861-1.003-1.291-2.093-2.051-.397-.125-.834-.203-1.3-.207zm2.197-6.57c-.233-1.77-1.516-3.19-2.864-3.23-1.347-.04-2.251 1.315-2.017 3.086.231 1.77 1.513 3.238 2.861 3.277h.057c1.315 0 2.19-1.387 1.963-3.133z"/><rect x="70.083" y="100.042" width="20" height="19.999" fill="none"/></svg>