<svg xmlns="http://www.w3.org/2000/svg" xmlns:xlink="http://www.w3.org/1999/xlink" width="25" height="19.909" viewBox="0 0 25 19.909"><g><defs><path id="a" d="M23.354 3.207h-21.708c-.909 0-1.646-.719-1.646-1.602 0-.886.737-1.605 1.646-1.605h21.708c.908 0 1.646.719 1.646 1.605 0 .883-.738 1.602-1.646 1.602zm-21.708 2.361h21.708c.908 0 1.646.718 1.646 1.602 0 .887-.738 1.605-1.646 1.605h-21.708c-.909 0-1.646-.718-1.646-1.605 0-.884.737-1.602 1.646-1.602zm21.708 8.773h-21.708c-.909 0-1.646-.717-1.646-1.601 0-.888.737-1.605 1.646-1.605h21.708c.908 0 1.646.718 1.646 1.605 0 .884-.738 1.601-1.646 1.601zm0 5.568h-21.708c-.909 0-1.646-.717-1.646-1.602s.737-1.604 1.646-1.604h21.708c.908 0 1.646.718 1.646 1.604s-.738 1.602-1.646 1.602z"/></defs><use xlink:href="#a" overflow="visible" fill="#fff"/><clipPath><use xlink:href="#a" overflow="visible"/></clipPath></g></svg>