<!DOCTYPE svg PUBLIC "-//W3C//DTD SVG 1.1//EN" "http://www.w3.org/Graphics/SVG/1.1/DTD/svg11.dtd" [
	<!ENTITY ns_flows "http://ns.adobe.com/Flows/1.0/">
]><svg xmlns="http://www.w3.org/2000/svg" xmlns:xlink="http://www.w3.org/1999/xlink" width="28" height="28" viewBox="280 190 28 28" overflow="visible" enable-background="new 280 190 28 28"><defs><path id="a" d="M305.02 197.214h-21.707c-.908 0-1.646-.719-1.646-1.602 0-.887.738-1.605 1.646-1.605h21.707c.908 0 1.646.719 1.646 1.605 0 .883-.738 1.602-1.646 1.602zm-21.708 2.361h21.707c.908 0 1.646.718 1.646 1.602 0 .887-.738 1.605-1.646 1.605h-21.707c-.908 0-1.646-.719-1.646-1.605 0-.884.738-1.602 1.646-1.602zm21.708 8.773h-21.707c-.908 0-1.646-.717-1.646-1.601 0-.888.738-1.605 1.646-1.605h21.707c.908 0 1.646.718 1.646 1.605 0 .884-.738 1.601-1.646 1.601zm0 5.568h-21.707c-.908 0-1.646-.717-1.646-1.603s.738-1.604 1.646-1.604h21.707c.908 0 1.646.718 1.646 1.604s-.738 1.603-1.646 1.603z"/></defs><use xlink:href="#a" overflow="visible" fill="#fff"/><clipPath><use xlink:href="#a" overflow="visible"/></clipPath><rect x="280" y="190" width="28" height="28" fill="none"/></svg>