<!DOCTYPE svg PUBLIC "-//W3C//DTD SVG 1.1//EN" "http://www.w3.org/Graphics/SVG/1.1/DTD/svg11.dtd" [
	<!ENTITY ns_flows "http://ns.adobe.com/Flows/1.0/">
]><svg xmlns="http://www.w3.org/2000/svg" width="28" height="28" viewBox="240 150 28 28" overflow="visible" enable-background="new 240 150 28 28"><path fill="#fff" d="M265.053 163.501c-.188.248-.541.297-.789.11l-10.098-7.62-10.096 7.62c-.248.187-.601.138-.789-.11-.187-.247-.138-.601.109-.787l10.157-7.664c.186-.141.418-.259.598-.259.182.003.457.118.643.259l4.16 3.139v-.518c0-.408.309-.74.686-.74h1.557c.379 0 .684.332.684.74v2.727l3.072 2.316c.244.186.293.54.106.787zm-4.586 9.38h-4.07v-5.625c0-.623-.506-1.129-1.129-1.129h-2.242c-.625 0-1.131.506-1.131 1.129v5.625h-4.029c-.87 0-1.575-.707-1.575-1.662v-7.257l7.153-5.425s.445-.373.723-.373c.268 0 .721.373.721.373l7.158 5.425v7.343c-.001.869-.708 1.576-1.579 1.576z"/><rect x="240" y="150" width="28" height="28" fill="none"/></svg>