<svg xmlns="http://www.w3.org/2000/svg" width="22" height="18" viewBox="0 0 22 18"><g><path fill="#fff" d="M21.886 8.71c-.188.248-.541.296-.789.11l-10.098-7.62-10.097 7.62c-.248.186-.6.138-.789-.11-.187-.248-.138-.601.109-.788l10.158-7.663c.184-.141.417-.259.597-.259.183.003.458.118.643.259l4.161 3.139v-.519c0-.408.309-.739.686-.739h1.556c.379 0 .685.331.685.739v2.727l3.071 2.316c.245.187.294.541.107.788zm-4.586 9.379h-4.07v-5.625c0-.623-.506-1.129-1.129-1.129h-2.244c-.624 0-1.13.506-1.13 1.129v5.625h-4.029c-.87 0-1.575-.706-1.575-1.661v-7.257l7.152-5.425s.445-.373.724-.373c.268 0 .721.373.721.373l7.157 5.425v7.342c0 .871-.706 1.576-1.577 1.576z"/><path fill="#BEBEBE" d="M-17.5 35c-9.664 0-17.5-7.836-17.5-17.499s7.836-17.501 17.5-17.501c9.661 0 17.5 7.839 17.5 17.501s-7.839 17.499-17.5 17.499zm0-29.268c-6.502 0-11.771 5.27-11.771 11.77s5.27 11.77 11.771 11.77 11.768-5.27 11.768-11.77-5.266-11.77-11.768-11.77zm2.296 14.07l-10.066 5.463 5.462-10.063 9.72-5.125-5.116 9.725zm-3.608-3.112l-2.506 4.622 4.623-2.509-2.117-2.113z"/><path fill="#fff" d="M49.862 23.167l-2.547-.461c-1.289.976-2.759.553-3.227-.905h6.363v4.012h2.918v-1.897c.365 2.051 3.033 2.748 4.472 1.215 0 .451-.052.979-.19 1.411-.461 1.108-2.005 1.108-2.805.367l-1.812 2.343c1.155.915 2.328 1.356 3.822 1.215 1.233-.123 2.076-.34 3.016-1.187.715-.8 1.158-1.63 1.158-2.7v-9.885h-3.282v5.471c0 1.094-1.46 1.094-1.46 0v-5.471h-2.918v-3.648h-2.918v6.483c-1.094-2.118-2.945-3.21-5.291-2.881-1.686.378-2.924 1.309-3.571 2.881-.585-1.863-1.981-2.852-3.9-2.953-2.032 0-3.559.996-4.171 2.953-1.025-2.258-3.105-3.35-5.551-2.795-1.469.46-2.32 1.232-3.051 2.598v-6.286h-2.917v12.767h2.917v-2.764c1.096 1.753 2.44 2.72 4.396 2.759 2.08-.123 3.266-1.111 4.359-2.955v2.96h2.918v-5.471c0-1.096 1.824-1.096 1.824 0v5.471h3.281v-2.784c.365 1.515 1.683 2.429 3.296 2.843 3.53.333 4.852-2.093 4.871-2.706zm-20.73-.053c-1.075 0-1.947-.877-1.947-1.95 0-1.072.872-1.949 1.947-1.949 1.074 0 1.947.877 1.947 1.949 0 1.073-.873 1.95-1.947 1.95zm18.674-2.407h-3.783c.585-1.825 3.174-1.825 3.783 0z"/></g></svg>