<!DOCTYPE svg PUBLIC "-//W3C//DTD SVG 1.1//EN" "http://www.w3.org/Graphics/SVG/1.1/DTD/svg11.dtd" [
	<!ENTITY ns_flows "http://ns.adobe.com/Flows/1.0/">
]><svg xmlns="http://www.w3.org/2000/svg" width="28" height="28" viewBox="200 150 28 28" overflow="visible" enable-background="new 200 150 28 28"><path fill="#fff" d="M224.993 166.613c-.201-.238-.494-.359-.839-.359h-18.099v-8.996c0-1.09-.807-1.988-1.795-1.988s-1.788.898-1.788 1.988v13.658c0 1.092.8 1.977 1.788 1.977s1.795-.885 1.795-1.977v-1.266h15.683v1.221c0 1.092.809 1.977 1.797 1.977s1.796-.885 1.796-1.977v-2.963c0-.09.08-.834-.338-1.295m-17.14-3.478c0 .815.685 1.457 1.493 1.457h15.536000000000001c1.977-3.504-1.562-6.131-2.514-6.131h-6.112c-.179-.629-.752-1.08-1.437-1.08-.81 0-1.498.639-1.508 1.461v2.818h-3.966c-.814 0-1.492.652-1.492 1.475m2.09-2.272c1.328 0 2.406-1.078 2.406-2.402 0-1.326-1.078-2.416-2.406-2.416-1.322 0-2.405 1.09-2.405 2.416 0 1.324 1.083 2.402 2.405 2.402"/><rect x="200" y="150" width="28" height="28" fill="none"/></svg>