<svg xmlns="http://www.w3.org/2000/svg" width="23" height="17.623" viewBox="0 0 23 17.623"><path fill="#fff" d="M22.521 11.343c-.201-.237-.494-.359-.839-.359h-18.099v-8.997c0-1.089-.807-1.987-1.795-1.987s-1.788.898-1.788 1.987v13.659c0 1.093.8 1.977 1.788 1.977s1.795-.884 1.795-1.977v-1.266h15.683v1.221c0 1.093.809 1.977 1.797 1.977s1.796-.884 1.796-1.977v-2.964c-.001-.089.079-.833-.338-1.294m-17.141-3.478c0 .815.685 1.456 1.493 1.456h15.536000000000001c1.977-3.504-1.562-6.131-2.513-6.131h-6.113c-.179-.629-.753-1.079-1.437-1.079-.81 0-1.498.638-1.508 1.461v2.818h-3.965c-.814.001-1.493.652-1.493 1.475m2.091-2.272c1.329 0 2.407-1.078 2.407-2.402s-1.078-2.416-2.407-2.416c-1.322 0-2.405 1.091-2.405 2.415s1.082 2.403 2.405 2.403"/></svg>