<svg xmlns="http://www.w3.org/2000/svg" width="39.152" height="30" viewBox="0 0 39.152 30"><path fill="#BEBEBE" d="M38.337 19.309c-.343-.403-.842-.612-1.429-.612h-30.809v-15.314c0-1.854-1.373-3.383-3.056-3.383-1.682 0-3.043 1.529-3.043 3.383v23.252c0 1.86 1.361 3.365 3.043 3.365 1.683 0 3.056-1.505 3.056-3.365v-2.155h26.697v2.079c0 1.859 1.376 3.365 3.059 3.365s3.058-1.505 3.058-3.365v-5.045c-.001-.154.135-1.42-.576-2.205m-29.18-5.92c0 1.388 1.166 2.479 2.542 2.479h26.448c3.364-5.965-2.659-10.437-4.28-10.437h-10.404c-.305-1.07-1.28-1.837-2.446-1.837-1.377 0-2.549 1.087-2.565 2.487v4.797h-6.752c-1.387 0-2.543 1.11-2.543 2.511m3.56-3.868c2.262 0 4.097-1.835 4.097-4.089 0-2.256-1.835-4.112-4.097-4.112-2.25 0-4.095 1.856-4.095 4.112 0 2.254 1.845 4.089 4.095 4.089"/></svg>