<svg xmlns="http://www.w3.org/2000/svg" width="16" height="15.89" viewBox="0 0 16 15.89"><path fill="#E5EDF5" d="M8.169 1.964l.171.016c1.838.177 3.38.854 4.585 2.012.502.481 1.074 1.177 1.495 2.109l-.375-.021c-.721 0-1.406.235-1.93.664l-.095.086c-.553-.46-1.325-.733-2.117-.733-.757 0-1.425.255-1.91.715-.51-.462-1.255-.697-1.757-.741l-.277-.011c-.748 0-1.463.275-2.016.768l-.035-.034c-.528-.456-1.237-.707-1.997-.707l-.339.018.097-.196c1.173-2.335 3.177-3.646 5.954-3.895l.546-.05m-.165-1.964c-.353 0-.634.418-.47 1.017-3.346.3-5.538 2.013-6.759 4.442-.41.814-.807 1.762-.773 2.833.263-.265.332-.546.611-.773.354-.289.826-.432 1.298-.432.493 0 .985.156 1.343.464.198.172.389.743.703.743l.037-.002c.187-.025.316-.397.418-.517.336-.394.869-.715 1.547-.715l.191.009c.517.045 1.273.373 1.384.805.108.425 0 1.058 0 1.577v3.154c0 .516.082 1.121-.032 1.547-.144.535-.635.801-1.126.801-.462 0-.925-.236-1.095-.705-.151-.418-.041-.801-.418-.869l-.164-.016c-.869 0-.068 1.625.099 1.818.323.373.915.709 1.567.709h.01c1.17-.008 1.967-.889 2.061-1.9.176-1.887-.132-4.057 0-6.149.32-.524.887-.743 1.467-.742.658 0 1.334.28 1.688.711.174.213.184.483.436.483h.016c.275-.012.497-.601.708-.773.36-.295.829-.438 1.296-.438.493 0 .984.16 1.344.47.27.232.318.523.611.741-.182-2.14-1.137-3.825-2.382-5.022-1.261-1.211-2.979-2.073-5.183-2.285-.015-.266.032-.592-.033-.806-.131-.123-.27-.18-.4-.18z"/></svg>