<svg xmlns="http://www.w3.org/2000/svg" width="85" height="42" viewBox="0 0 85 42"><path fill="#fff" d="M-.114 8.71c-.188.248-.541.296-.789.11l-10.098-7.62-10.097 7.62c-.248.186-.601.138-.789-.11-.187-.248-.138-.601.109-.788l10.157-7.664c.185-.14.418-.258.598-.258.183.003.458.118.643.259l4.161 3.139v-.519c0-.408.309-.739.686-.739h1.556c.379 0 .685.331.685.739v2.727l3.071 2.316c.245.187.294.541.107.788zm-4.586 9.379h-4.07v-5.625c0-.623-.506-1.129-1.129-1.129h-2.243c-.624 0-1.13.506-1.13 1.129v5.625h-4.029c-.87 0-1.575-.706-1.575-1.661v-7.257l7.152-5.425s.445-.373.724-.373c.268 0 .721.373.721.373l7.157 5.425v7.342c-.001.871-.707 1.576-1.578 1.576z"/><g fill="#fff"><path d="M42.3 2.408c8.088 0 14.951 5.134 17.502 12.432l1.064-.367 1.058-.371c-2.786-8.261-10.513-14.102-19.631-14.102-9.064 0-16.803 5.902-19.633 14.068l2.112.803c2.57-7.247 9.463-12.463 17.528-12.463zm42.586 19.904l-.138.122c-.546.443-1.358.24-1.642-.372-.292-.875-.141-1.72-.141-2.815h2.025v-2.552h-2.188v-1.825h-2.919v4.66c-.363-1.289-1.289-2.032-2.562-2.616-2.549-.902-4.96.159-6.081 2.616-.442-1.289-1.098-2.078-2.338-2.664-2.466-.865-4.832.161-5.688 2.664-.678-1.572-1.638-2.399-3.321-2.861-2.268-.376-4.084.612-5.179 2.664v-6.286h-3.282v6.286c-.365-.771-.754-1.318-1.42-1.864-3.155-2.288-7.335-.007-7.335 3.841v8.153h3.15c0-.73-.095-4.013-.095-4.013l.253.142c2.296.584 4.716-.575 5.446-2.371v2.593h3.282v-2.594c.729 1.881 2.563 2.963 4.66 2.812.97.062 1.774-2.431 1.776-1.717l-.006 1.863h2.058l2.82-.192v-5.653c0-1.176 2.015-1.365 2.116-.161.023 1.85.104 3.818.104 5.642h2.888v-2.784c.729 1.263 1.368 1.995 2.602 2.597 2.438.796 5.017.408 5.968-2.567l-2.556-.494c-.589.884-2.686 1.059-3.354-.765h6.203c0 1.458.029 2.646 1.346 3.604 1.319.962 3.689.077 3.661-.545l-.113-2.548zm-37.369.855c-1.073 0-1.949-.878-1.949-1.95s.876-1.949 1.949-1.949c1.072 0 1.947.877 1.947 1.949s-.875 1.95-1.947 1.95zm11.368 0c-1.075 0-1.946-.878-1.946-1.95s.871-1.949 1.946-1.949c1.072 0 1.947.877 1.947 1.949s-.875 1.95-1.947 1.95zm14.886-2.46c.508-1.825 3.141-1.825 3.729 0h-3.729zm-45.909 2.46l-2.547-.461c-1.289.976-2.759.553-3.227-.905h6.363v4.012h2.918v-1.897c.365 2.051 3.033 2.748 4.472 1.215 0 .451-.052.979-.19 1.411-.461 1.108-2.005 1.108-2.805.367l-1.812 2.343c1.155.915 2.328 1.356 3.822 1.215 1.233-.123 2.076-.34 3.016-1.187.715-.8 1.158-1.63 1.158-2.7v-9.885h-3.282v5.471c0 1.094-1.46 1.094-1.46 0v-5.471h-2.918v-3.648h-2.918v6.483c-1.094-2.118-2.945-3.21-5.291-2.881-1.686.378-2.924 1.309-3.571 2.881-.585-1.863-1.981-2.852-3.9-2.953-2.032 0-3.559.996-4.171 2.953-1.025-2.258-3.105-3.35-5.551-2.795-1.469.46-2.32 1.232-3.051 2.598v-6.286h-2.917v12.767h2.917v-2.764c1.096 1.753 2.44 2.72 4.396 2.759 2.08-.123 3.266-1.111 4.359-2.955v2.96h2.918v-5.471c0-1.096 1.824-1.096 1.824 0v5.471h3.281v-2.784c.365 1.515 1.683 2.429 3.296 2.843 3.53.333 4.852-2.093 4.871-2.706zm-20.73-.053c-1.075 0-1.947-.877-1.947-1.95 0-1.072.872-1.949 1.947-1.949 1.074 0 1.947.877 1.947 1.949 0 1.073-.873 1.95-1.947 1.95zm18.674-2.407h-3.783c.585-1.825 3.174-1.825 3.783 0zm16.478 19.029c-8.088 0-14.949-5.045-17.5-12.208l-1.064.36-1.06.365c2.786 8.108 10.517 13.844 19.63 13.844 9.064 0 16.804-5.795 19.634-13.813l-2.111-.788c-2.571 7.117-9.464 12.24-17.529 12.24z"/><polygon points="81.106,28.318 81.106,26.93 80.325,26.93 80.325,26.738 82.206,26.738 82.206,26.93 81.425,26.93 81.425,28.318"/><path d="M82.521 28.318v-1.58h.468l.563 1.12.113.235.13-.255.578-1.101h.41v1.58h-.306v-1.32l-.694 1.32h-.277l-.683-1.338v1.338h-.302z"/></g><path fill="#3B444F" d="M112.863 23.167l-2.547-.461c-1.289.976-2.76.553-3.227-.905h6.361v4.012h2.92v-1.897c.365 2.051 3.031 2.748 4.471 1.215 0 .451-.051.979-.191 1.411-.46 1.108-2.004 1.108-2.803.367l-1.814 2.343c1.156.915 2.328 1.356 3.824 1.215 1.232-.123 2.074-.34 3.016-1.187.713-.8 1.157-1.63 1.157-2.7v-9.885h-3.282v5.471c0 1.094-1.461 1.094-1.461 0v-5.471h-2.916v-3.648h-2.92v6.483c-1.093-2.118-2.945-3.21-5.289-2.881-1.686.378-2.924 1.309-3.572 2.881-.586-1.863-1.981-2.852-3.9-2.953-2.033 0-3.559.996-4.17 2.953-1.026-2.258-3.106-3.35-5.552-2.795-1.469.46-2.32 1.232-3.05 2.598v-6.286h-2.918v12.767h2.918v-2.764c1.094 1.753 2.439 2.72 4.395 2.759 2.08-.123 3.266-1.111 4.359-2.955v2.96h2.919v-5.471c0-1.096 1.823-1.096 1.823 0v5.471h3.283v-2.784c.365 1.515 1.682 2.429 3.295 2.843 3.529.333 4.852-2.093 4.871-2.706zm-20.731-.053c-1.075 0-1.946-.877-1.946-1.95 0-1.072.871-1.949 1.946-1.949 1.073 0 1.947.877 1.947 1.949 0 1.073-.874 1.95-1.947 1.95zm18.674-2.407h-3.784c.587-1.825 3.175-1.825 3.784 0z"/></svg>