<svg xmlns="http://www.w3.org/2000/svg" width="85" height="42.098" viewBox="0 0 85 42.098"><g fill="#3B444F"><path d="M42.299 2.408c8.09 0 14.951 5.135 17.504 12.432l1.063-.367 1.058-.371c-2.785-8.26-10.513-14.102-19.631-14.102-9.064 0-16.803 5.902-19.633 14.068l2.113.803c2.569-7.246 9.462-12.463 17.526-12.463zM84.887 22.312l-.139.121c-.546.443-1.357.24-1.641-.371-.293-.875-.142-1.721-.142-2.816h2.026v-2.551h-2.189v-1.826h-2.918v4.66c-.364-1.289-1.29-2.031-2.562-2.615-2.549-.902-4.96.158-6.081 2.615-.442-1.289-1.097-2.078-2.339-2.664-2.465-.865-4.831.162-5.688 2.664-.678-1.572-1.639-2.398-3.322-2.861-2.268-.375-4.082.613-5.178 2.664v-6.285h-3.282v6.285c-.365-.771-.753-1.318-1.419-1.863-3.156-2.289-7.336-.008-7.336 3.84v8.154h3.15c0-.73-.096-4.014-.096-4.014l.254.143c2.295.584 4.716-.576 5.446-2.371v2.592h3.282v-2.592c.73 1.881 2.563 2.963 4.66 2.811.971.062 1.774-2.43 1.775-1.717l-.004 1.863h2.057l2.82-.191v-5.654c0-1.176 2.014-1.365 2.116-.16.022 1.85.104 3.818.104 5.641h2.888v-2.781c.729 1.262 1.368 1.994 2.602 2.596 2.438.797 5.018.408 5.967-2.566l-2.555-.494c-.589.883-2.686 1.059-3.354-.766h6.202c0 1.459.029 2.646 1.348 3.605 1.318.961 3.688.076 3.66-.545l-.112-2.551zm-37.369.856c-1.074 0-1.951-.879-1.951-1.951s.877-1.949 1.951-1.949c1.072 0 1.946.877 1.946 1.949s-.874 1.951-1.946 1.951zm11.367 0c-1.075 0-1.947-.879-1.947-1.951s.872-1.949 1.947-1.949c1.072 0 1.947.877 1.947 1.949s-.875 1.951-1.947 1.951zm14.885-2.461c.509-1.824 3.142-1.824 3.73 0h-3.73zM27.863 23.168l-2.547-.461c-1.289.975-2.76.553-3.227-.906h6.361v4.012h2.92v-1.896c.365 2.051 3.031 2.748 4.471 1.215 0 .451-.051.979-.191 1.41-.46 1.109-2.004 1.109-2.803.367l-1.814 2.344c1.156.914 2.328 1.355 3.824 1.215 1.232-.123 2.074-.34 3.016-1.188.713-.799 1.157-1.629 1.157-2.699v-9.885h-3.282v5.471c0 1.094-1.461 1.094-1.461 0v-5.471h-2.916v-3.648h-2.92v6.482c-1.093-2.117-2.945-3.209-5.289-2.881-1.686.379-2.924 1.309-3.572 2.881-.586-1.863-1.981-2.852-3.9-2.953-2.033 0-3.559.996-4.17 2.953-1.026-2.258-3.106-3.35-5.552-2.795-1.469.461-2.32 1.232-3.05 2.598v-6.285h-2.918v12.766h2.918v-2.764c1.094 1.754 2.439 2.721 4.395 2.76 2.08-.123 3.266-1.111 4.359-2.955v2.959h2.919v-5.471c0-1.096 1.823-1.096 1.823 0v5.471h3.283v-2.781c.365 1.514 1.682 2.428 3.295 2.842 3.529.332 4.852-2.094 4.871-2.707zm-20.731-.053c-1.075 0-1.946-.877-1.946-1.951 0-1.072.871-1.949 1.946-1.949 1.073 0 1.947.877 1.947 1.949 0 1.074-.874 1.951-1.947 1.951zm18.674-2.408h-3.784c.587-1.824 3.175-1.824 3.784 0zM42.285 39.736c-8.09 0-14.95-5.045-17.5-12.209l-1.066.361-1.059.365c2.785 8.107 10.516 13.844 19.629 13.844 9.066 0 16.805-5.795 19.635-13.812l-2.111-.789c-2.571 7.117-9.464 12.24-17.528 12.24z"/><polygon points="81.105,28.318 81.105,26.93 80.324,26.93 80.324,26.738 82.206,26.738 82.206,26.93 81.425,26.93 81.425,28.318"/><path d="M82.521 28.318v-1.58h.467l.564 1.121.113.234.13-.254.577-1.102h.412v1.58h-.307v-1.32l-.693 1.32h-.278l-.683-1.338v1.338h-.302z"/></g></svg>