<svg xmlns="http://www.w3.org/2000/svg" width="85" height="42" viewBox="0 0 85 42"><path fill="#fff" d="M-.114 22.312l-.138.122c-.546.443-1.358.24-1.642-.372-.292-.875-.141-1.72-.141-2.815h2.025v-2.552h-2.188v-1.825h-2.919v4.66c-.363-1.289-1.289-2.032-2.562-2.616-2.549-.902-4.96.159-6.081 2.616-.442-1.289-1.098-2.078-2.338-2.664-2.466-.865-4.832.161-5.688 2.664-.678-1.572-1.638-2.399-3.321-2.861-2.268-.376-4.084.612-5.179 2.664v-6.286h-3.282v6.286c-.365-.771-.754-1.318-1.42-1.864-3.155-2.288-7.335-.007-7.335 3.841v8.153h3.15c0-.73-.095-4.013-.095-4.013l.253.142c2.296.584 4.716-.575 5.446-2.371v2.593h3.282v-2.594c.729 1.881 2.563 2.963 4.66 2.812.97.062 1.774-2.431 1.776-1.717l-.006 1.863h2.058l2.82-.192v-5.653c0-1.176 2.015-1.365 2.116-.161.023 1.85.104 3.818.104 5.642h2.888v-2.784c.729 1.263 1.368 1.995 2.602 2.597 2.438.796 5.017.408 5.968-2.567l-2.556-.494c-.589.884-2.686 1.059-3.354-.765h6.203c0 1.458.029 2.646 1.346 3.604 1.32.962 3.69.077 3.662-.545l-.114-2.548zm-37.369.855c-1.073 0-1.949-.878-1.949-1.95s.876-1.949 1.949-1.949c1.072 0 1.947.877 1.947 1.949s-.875 1.95-1.947 1.95zm11.368 0c-1.075 0-1.946-.878-1.946-1.95s.871-1.949 1.946-1.949c1.072 0 1.947.877 1.947 1.949s-.875 1.95-1.947 1.95zm14.886-2.46c.508-1.825 3.141-1.825 3.729 0h-3.729z"/><g fill="#3B444F"><path d="M42.299 2.408c8.09 0 14.951 5.134 17.504 12.432l1.063-.367 1.058-.371c-2.785-8.261-10.513-14.102-19.631-14.102-9.064 0-16.803 5.902-19.633 14.068l2.113.803c2.569-7.247 9.462-12.463 17.526-12.463zm42.588 19.904l-.139.122c-.546.443-1.357.24-1.641-.372-.293-.875-.142-1.72-.142-2.815h2.026v-2.552h-2.189v-1.825h-2.918v4.66c-.364-1.289-1.29-2.032-2.562-2.616-2.549-.902-4.96.159-6.081 2.616-.442-1.289-1.097-2.078-2.339-2.664-2.465-.865-4.831.161-5.688 2.664-.678-1.572-1.639-2.399-3.322-2.861-2.268-.376-4.082.612-5.178 2.664v-6.286h-3.282v6.286c-.365-.771-.753-1.318-1.419-1.864-3.156-2.288-7.336-.007-7.336 3.841v8.153h3.15c0-.73-.096-4.013-.096-4.013l.254.142c2.295.584 4.716-.575 5.446-2.371v2.593h3.282v-2.594c.73 1.881 2.563 2.963 4.66 2.812.971.062 1.774-2.431 1.775-1.717l-.004 1.863h2.057l2.82-.192v-5.653c0-1.176 2.014-1.365 2.116-.161.022 1.85.104 3.818.104 5.642h2.888v-2.784c.729 1.263 1.368 1.995 2.602 2.597 2.438.796 5.018.408 5.967-2.567l-2.555-.494c-.589.884-2.686 1.059-3.354-.765h6.202c0 1.458.029 2.646 1.348 3.604 1.318.962 3.688.077 3.66-.545l-.112-2.548zm-37.369.855c-1.074 0-1.951-.878-1.951-1.95s.877-1.949 1.951-1.949c1.072 0 1.946.877 1.946 1.949s-.874 1.95-1.946 1.95zm11.367 0c-1.075 0-1.947-.878-1.947-1.95s.872-1.949 1.947-1.949c1.072 0 1.947.877 1.947 1.949s-.875 1.95-1.947 1.95zm14.885-2.46c.509-1.825 3.142-1.825 3.73 0h-3.73zm-45.907 2.46l-2.547-.461c-1.289.976-2.76.553-3.227-.905h6.361v4.012h2.92v-1.897c.365 2.051 3.031 2.748 4.471 1.215 0 .451-.051.979-.191 1.411-.46 1.108-2.004 1.108-2.803.367l-1.814 2.343c1.156.915 2.328 1.356 3.824 1.215 1.232-.123 2.074-.34 3.016-1.187.713-.8 1.157-1.63 1.157-2.7v-9.885h-3.282v5.471c0 1.094-1.461 1.094-1.461 0v-5.471h-2.916v-3.648h-2.92v6.483c-1.093-2.118-2.945-3.21-5.289-2.881-1.686.378-2.924 1.309-3.572 2.881-.586-1.863-1.981-2.852-3.9-2.953-2.033 0-3.559.996-4.17 2.953-1.026-2.258-3.106-3.35-5.552-2.795-1.469.46-2.32 1.232-3.05 2.598v-6.286h-2.918v12.767h2.918v-2.764c1.094 1.753 2.439 2.72 4.395 2.759 2.08-.123 3.266-1.111 4.359-2.955v2.96h2.919v-5.471c0-1.096 1.823-1.096 1.823 0v5.471h3.283v-2.784c.365 1.515 1.682 2.429 3.295 2.843 3.529.333 4.852-2.093 4.871-2.706zm-20.731-.053c-1.075 0-1.946-.877-1.946-1.95 0-1.072.871-1.949 1.946-1.949 1.073 0 1.947.877 1.947 1.949 0 1.073-.874 1.95-1.947 1.95zm18.674-2.407h-3.784c.587-1.825 3.175-1.825 3.784 0zm16.479 19.029c-8.09 0-14.95-5.045-17.5-12.208l-1.066.36-1.059.365c2.785 8.108 10.516 13.844 19.629 13.844 9.066 0 16.805-5.795 19.635-13.813l-2.111-.788c-2.571 7.117-9.464 12.24-17.528 12.24z"/><polygon points="81.105,28.318 81.105,26.93 80.324,26.93 80.324,26.738 82.206,26.738 82.206,26.93 81.425,26.93 81.425,28.318"/><path d="M82.521 28.318v-1.58h.467l.564 1.12.113.235.13-.255.577-1.101h.412v1.58h-.307v-1.32l-.693 1.32h-.278l-.683-1.338v1.338h-.302z"/></g></svg>