<svg xmlns="http://www.w3.org/2000/svg" width="85" height="42.098" viewBox="0 0 85 42.098"><g fill="#fff"><path d="M42.3 2.408c8.088 0 14.951 5.135 17.502 12.432l1.064-.367 1.058-.371c-2.786-8.26-10.513-14.102-19.631-14.102-9.064 0-16.803 5.902-19.633 14.068l2.112.803c2.57-7.246 9.463-12.463 17.528-12.463zM84.886 22.312l-.138.121c-.546.443-1.358.24-1.642-.371-.292-.875-.141-1.721-.141-2.816h2.025v-2.551h-2.188v-1.826h-2.919v4.66c-.363-1.289-1.289-2.031-2.562-2.615-2.549-.902-4.96.158-6.081 2.615-.442-1.289-1.098-2.078-2.338-2.664-2.466-.865-4.832.162-5.688 2.664-.678-1.572-1.638-2.398-3.321-2.861-2.268-.375-4.084.613-5.179 2.664v-6.285h-3.282v6.285c-.365-.771-.754-1.318-1.42-1.863-3.155-2.289-7.335-.008-7.335 3.84v8.154h3.15c0-.73-.095-4.014-.095-4.014l.253.143c2.296.584 4.716-.576 5.446-2.371v2.592h3.282v-2.592c.729 1.881 2.563 2.963 4.66 2.811.97.062 1.774-2.43 1.776-1.717l-.006 1.863h2.058l2.82-.191v-5.654c0-1.176 2.015-1.365 2.116-.16.023 1.85.104 3.818.104 5.641h2.888v-2.781c.729 1.262 1.368 1.994 2.602 2.596 2.438.797 5.017.408 5.968-2.566l-2.556-.494c-.589.883-2.686 1.059-3.354-.766h6.203c0 1.459.029 2.646 1.346 3.605 1.319.961 3.689.076 3.661-.545l-.113-2.551zm-37.369.856c-1.073 0-1.949-.879-1.949-1.951s.876-1.949 1.949-1.949c1.072 0 1.947.877 1.947 1.949s-.875 1.951-1.947 1.951zm11.368 0c-1.075 0-1.946-.879-1.946-1.951s.871-1.949 1.946-1.949c1.072 0 1.947.877 1.947 1.949s-.875 1.951-1.947 1.951zm14.886-2.461c.508-1.824 3.141-1.824 3.729 0h-3.729zM27.862 23.168l-2.547-.461c-1.289.975-2.759.553-3.227-.906h6.363v4.012h2.918v-1.896c.365 2.051 3.033 2.748 4.472 1.215 0 .451-.052.979-.19 1.41-.461 1.109-2.005 1.109-2.805.367l-1.812 2.344c1.155.914 2.328 1.355 3.822 1.215 1.233-.123 2.076-.34 3.016-1.188.715-.799 1.158-1.629 1.158-2.699v-9.885h-3.282v5.471c0 1.094-1.46 1.094-1.46 0v-5.471h-2.918v-3.648h-2.918v6.482c-1.094-2.117-2.945-3.209-5.291-2.881-1.686.379-2.924 1.309-3.571 2.881-.585-1.863-1.981-2.852-3.9-2.953-2.032 0-3.559.996-4.171 2.953-1.025-2.258-3.105-3.35-5.551-2.795-1.469.461-2.32 1.232-3.051 2.598v-6.285h-2.917v12.766h2.917v-2.764c1.096 1.754 2.44 2.721 4.396 2.76 2.08-.123 3.266-1.111 4.359-2.955v2.959h2.918v-5.471c0-1.096 1.824-1.096 1.824 0v5.471h3.281v-2.781c.365 1.514 1.683 2.428 3.296 2.842 3.53.332 4.852-2.094 4.871-2.707zm-20.73-.053c-1.075 0-1.947-.877-1.947-1.951 0-1.072.872-1.949 1.947-1.949 1.074 0 1.947.877 1.947 1.949 0 1.074-.873 1.951-1.947 1.951zm18.674-2.408h-3.783c.585-1.824 3.174-1.824 3.783 0zM42.284 39.736c-8.088 0-14.949-5.045-17.5-12.209l-1.064.361-1.06.365c2.786 8.107 10.517 13.844 19.63 13.844 9.064 0 16.804-5.795 19.634-13.812l-2.111-.789c-2.571 7.117-9.464 12.24-17.529 12.24z"/><polygon points="81.106,28.318 81.106,26.93 80.325,26.93 80.325,26.738 82.206,26.738 82.206,26.93 81.425,26.93 81.425,28.318"/><path d="M82.521 28.318v-1.58h.468l.563 1.121.113.234.13-.254.578-1.102h.41v1.58h-.306v-1.32l-.694 1.32h-.277l-.683-1.338v1.338h-.302z"/></g></svg>