<!DOCTYPE svg PUBLIC "-//W3C//DTD SVG 1.1//EN" "http://www.w3.org/Graphics/SVG/1.1/DTD/svg11.dtd" [
	<!ENTITY ns_flows "http://ns.adobe.com/Flows/1.0/">
]><svg xmlns="http://www.w3.org/2000/svg" width="87" height="42" viewBox="125 321 87 42" overflow="visible" enable-background="new 125 321 87 42"><path fill="#3B444F" d="M168.056 323.43c8.071 0 14.917 5.124 17.464 12.403l1.061-.366 1.056-.371c-2.779-8.24-10.488-14.068-19.586-14.068-9.043 0-16.764 5.889-19.587 14.035l2.108.802c2.562-7.23 9.44-12.435 17.484-12.435z"/><path fill="#3B444F" d="M210.545 343.288l-.138.12c-.545.443-1.354.24-1.637-.369-.292-.874-.141-1.717-.141-2.811h2.021v-2.544h-2.185v-1.822h-2.911v4.648c-.363-1.286-1.287-2.026-2.557-2.608-2.543-.9-4.948.157-6.066 2.608-.442-1.286-1.095-2.072-2.334-2.657-2.459-.863-4.819.161-5.674 2.657-.676-1.568-1.635-2.393-3.314-2.854-2.262-.375-4.073.611-5.166 2.657v-6.271h-3.274v6.271c-.364-.77-.751-1.315-1.416-1.859-3.148-2.283-7.319-.008-7.319 3.831v8.136h3.143c0-.729-.095-4.005-.095-4.005l.253.144c2.289.582 4.705-.575 5.434-2.366v2.586h3.274v-2.586c.729 1.877 2.557 2.956 4.649 2.804.969.062 1.771-2.424 1.771-1.713l-.004 1.859h2.052l2.813-.191v-5.641c0-1.173 2.009-1.362 2.111-.159.022 1.845.104 3.809.104 5.627h2.88v-2.775c.728 1.259 1.365 1.99 2.596 2.591 2.433.794 5.006.406 5.953-2.562l-2.549-.492c-.587.88-2.679 1.056-3.347-.765h6.188c0 1.456.029 2.641 1.344 3.597 1.315.959 3.679.076 3.651-.543l-.11-2.543zm-37.282.854c-1.072 0-1.947-.877-1.947-1.947 0-1.069.875-1.944 1.947-1.944 1.07 0 1.942.875 1.942 1.944 0 1.07-.872 1.947-1.942 1.947zm11.341 0c-1.073 0-1.943-.877-1.943-1.947 0-1.069.87-1.944 1.943-1.944 1.07 0 1.943.875 1.943 1.944 0 1.07-.873 1.947-1.943 1.947zm14.85-2.456c.508-1.819 3.134-1.819 3.722 0h-3.722z"/><path fill="#3B444F" d="M153.654 344.142l-2.541-.46c-1.286.972-2.753.552-3.219-.904h6.346v4.003h2.914v-1.893c.364 2.046 3.024 2.741 4.46 1.213 0 .45-.051.976-.191 1.406-.458 1.106-1.999 1.106-2.796.366l-1.811 2.339c1.154.911 2.323 1.352 3.816 1.212 1.229-.124 2.069-.34 3.008-1.185.711-.798 1.154-1.626 1.154-2.693v-9.861h-3.274v5.457c0 1.092-1.458 1.092-1.458 0v-5.457h-2.909v-3.641h-2.914v6.467c-1.09-2.111-2.938-3.201-5.276-2.873-1.682.377-2.917 1.305-3.564 2.873-.584-1.858-1.977-2.844-3.892-2.945-2.028 0-3.55.993-4.16 2.945-1.024-2.252-3.099-3.341-5.539-2.788-1.465.461-2.315 1.229-3.043 2.592v-6.271h-2.911v12.736h2.911v-2.758c1.092 1.75 2.434 2.715 4.385 2.754 2.075-.123 3.258-1.109 4.349-2.948v2.952h2.912v-5.458c0-1.094 1.819-1.094 1.819 0v5.458h3.276v-2.775c.364 1.511 1.678 2.422 3.287 2.835 3.523.334 4.842-2.086 4.861-2.698zm-20.683-.053c-1.072 0-1.941-.875-1.941-1.946 0-1.07.869-1.945 1.941-1.945 1.071 0 1.943.875 1.943 1.945 0 1.071-.872 1.946-1.943 1.946zm18.631-2.403h-3.776c.587-1.82 3.169-1.82 3.776 0z"/><path fill="#3B444F" d="M168.043 360.672c-8.071 0-14.916-5.033-17.459-12.181l-1.064.359-1.056.365c2.779 8.088 10.491 13.812 19.583 13.812 9.045 0 16.766-5.782 19.59-13.78l-2.106-.787c-2.566 7.101-9.444 12.212-17.488 12.212z"/><polygon fill="#3B444F" points="206.773,349.28 206.773,347.895 205.994,347.895 205.994,347.703 207.871,347.703 207.871,347.895 207.091,347.895 207.091,349.28"/><path fill="#3B444F" d="M208.186 349.28v-1.577h.466l.563 1.118.113.235.129-.254.576-1.1h.411v1.577h-.306v-1.317l-.692 1.317h-.277l-.681-1.335v1.335h-.302z"/><rect x="125.167" y="321" width="86" height="42" fill="none"/></svg>