<!DOCTYPE svg PUBLIC "-//W3C//DTD SVG 1.1//EN" "http://www.w3.org/Graphics/SVG/1.1/DTD/svg11.dtd" [
	<!ENTITY ns_flows "http://ns.adobe.com/Flows/1.0/">
]><svg xmlns="http://www.w3.org/2000/svg" width="28" height="28" viewBox="50 190 28 28" overflow="visible" enable-background="new 50 190 28 28"><path fill="#BBBFC3" d="M75.236 196.237c-3.187-1.08-6.645-1.079-9.831 0-.624.212-1.133.855-1.302 1.508-.17-.652-.678-1.296-1.302-1.508-3.187-1.08-6.647-1.079-9.835 0-.765.258-1.363 1.17-1.363 1.945v13.592c0 .776.599 1.126 1.363.868 3.188-1.08 6.648-1.08 9.835 0 .163.055.315.076.459.078v.014h1.676v-.012c.146-.002.303-.023.469-.08 3.187-1.08 6.645-1.08 9.831 0 .766.258 1.367-.092 1.367-.868v-13.592c0-.775-.602-1.687-1.367-1.945zm-12.648 14.173c-3.057-.986-6.352-.986-9.408 0v-5.848c3.057-.986 6.352-.986 9.408 0v5.848zm0-7.711c-3.057-.986-6.352-.986-9.408.002v-1.502c3.057-.986 6.352-.986 9.408 0v1.5zm0-2.951c-3.057-.988-6.352-.988-9.408 0v-1.501c3.057-.986 6.352-.986 9.408-.001v1.502zm2.75-1.565c.969-.332 1.965-.566 2.973-.699v4.312c-1.006.133-2.004.366-2.973.701v-4.314zm7.022 9.53c-2.35-.316-4.756-.083-7.021.697v-1.326c2.266-.78 4.672-1.012 7.021-.697v1.326zm2.968-2.272c-3.235-1.115-6.755-1.115-9.989.002v-1.283c3.234-1.121 6.754-1.127 9.989-.015v1.296zm0-2.961c-1.72-.59-3.521-.85-5.315-.808v-1.3c1.795-.039 3.596.229 5.315.821v1.287z"/><rect x="50" y="190" width="28" height="28" fill="none"/></svg>