<svg xmlns="http://www.w3.org/2000/svg" width="25" height="17.307" viewBox="0 0 25 17.307"><path fill="#fff" d="M23.633.809c-3.187-1.079-6.645-1.079-9.831.001-.624.211-1.133.854-1.302 1.508-.169-.653-.678-1.297-1.302-1.509-3.186-1.079-6.646-1.079-9.834.001-.765.256-1.364 1.17-1.364 1.944v13.592c0 .777.599 1.127 1.364.867 3.188-1.079 6.647-1.08 9.834 0 .163.057.316.078.46.078v.016h1.675v-.014c.146-.002.303-.022.469-.08 3.187-1.079 6.644-1.08 9.832 0 .766.26 1.367-.09 1.367-.867v-13.592c-.001-.774-.602-1.688-1.368-1.945zm-12.648 14.174c-3.057-.988-6.351-.988-9.407 0v-5.848c3.057-.986 6.351-.986 9.407 0v5.848zm0-7.711c-3.057-.986-6.351-.986-9.407 0v-1.501c3.057-.986 6.351-.986 9.407 0v1.501zm0-2.952c-3.057-.988-6.351-.988-9.407 0v-1.501c3.057-.985 6.351-.985 9.407-.001v1.502zm2.75-1.565c.97-.333 1.966-.567 2.973-.7v4.312c-1.006.134-2.003.366-2.973.7v-4.312zm7.023 9.53c-2.351-.315-4.756-.083-7.023.696v-1.325c2.267-.78 4.672-1.013 7.023-.697v1.326zm2.967-2.271c-3.234-1.116-6.755-1.115-9.99.002v-1.285c3.234-1.121 6.755-1.125 9.99-.014v1.297zm0-2.963c-1.721-.588-3.521-.85-5.316-.807v-1.3c1.794-.039 3.595.229 5.316.821v1.286z"/></svg>