<svg xmlns="http://www.w3.org/2000/svg" width="40.015" height="28" viewBox="0 0 40.015 28"><path fill="#BBBFC3" d="M-.84.845c-1.13-1.128-2.963-1.125-4.09 0l-3.853 3.854-18.395-1.786c-1.55.015-2.803 1.269-2.809 2.805.006 1.544 1.004 2.271 2.88 2.994l11.004 3.306-5.518 5.516c-.394.395-.642.874-.763 1.378l-5.824-.254c-.682-.009-1.246.556-1.251 1.252.011.687.569 1.242 1.251 1.252l5.665 1.398 1.276 5.667c.167.8.696 1.245 1.382 1.257.693-.008 1.258-.572 1.252-1.254l-.257-5.857c.494-.124.964-.368 1.352-.755l5.525-5.525 3.312 11.024c.725 1.88 1.451 2.878 2.993 2.883 1.54-.003 2.794-1.259 2.807-2.808l-1.785-18.424 3.839-3.84c1.126-1.125 1.129-2.952.007-4.083z"/><path fill="#fff" d="M37.813 1.295c-5.099-1.728-10.632-1.727-15.731.001-.998.338-1.811 1.369-2.082 2.412-.271-1.044-1.084-2.074-2.082-2.413-5.1-1.728-10.636-1.727-15.735.001-1.225.412-2.183 1.872-2.183 3.112v21.747c0 1.243.958 1.803 2.183 1.389 5.1-1.728 10.636-1.729 15.735 0 .26.089.505.123.735.125v.023h2.68v-.021c.233-.003.484-.037.749-.128 5.1-1.728 10.633-1.729 15.731 0 1.225.415 2.187-.145 2.187-1.388v-21.747c0-1.24-.962-2.7-2.187-3.113zm-20.237 22.678c-4.891-1.58-10.161-1.58-15.052 0v-9.356c4.891-1.578 10.161-1.578 15.052 0v9.356zm0-12.338c-4.891-1.578-10.161-1.578-15.052.002v-2.402c4.891-1.578 10.161-1.578 15.052 0v2.4zm0-4.723c-4.89-1.579-10.161-1.579-15.052.001v-2.402c4.891-1.577 10.161-1.577 15.052-.002v2.403zm4.401-2.503c1.552-.532 3.146-.907 4.756-1.119v6.898c-1.609.213-3.204.586-4.756 1.121v-6.9zm11.235 15.248c-3.761-.506-7.609-.133-11.235 1.114v-2.121c3.626-1.248 7.475-1.619 11.235-1.115v2.122zm4.747-3.634c-5.175-1.785-10.807-1.784-15.982.003v-2.055c5.176-1.794 10.808-1.802 15.982-.022v2.074zm0-4.739c-2.752-.942-5.632-1.359-8.504-1.291v-2.08c2.872-.063 5.752.367 8.504 1.314v2.057z"/><path fill="#BBBFC3" d="M77.812 1.295c-5.098-1.728-10.631-1.727-15.73.001-.998.338-1.812 1.369-2.082 2.412-.271-1.044-1.084-2.074-2.082-2.413-5.1-1.728-10.637-1.727-15.736.001-1.225.412-2.182 1.872-2.182 3.112v21.747c0 1.243.957 1.803 2.182 1.389 5.1-1.728 10.637-1.729 15.736 0 .26.089.504.123.734.125v.023h2.68v-.021c.234-.003.484-.037.75-.128 5.1-1.728 10.633-1.729 15.73 0 1.225.415 2.188-.145 2.188-1.388v-21.747c0-1.24-.963-2.7-2.188-3.113zm-20.236 22.678c-4.891-1.58-10.162-1.58-15.053 0v-9.356c4.891-1.578 10.162-1.578 15.053 0v9.356zm0-12.338c-4.891-1.578-10.162-1.578-15.053.002v-2.402c4.891-1.578 10.162-1.578 15.053 0v2.4zm0-4.723c-4.891-1.579-10.162-1.579-15.053.001v-2.402c4.891-1.577 10.162-1.577 15.053-.002v2.403zm4.401-2.503c1.551-.532 3.145-.907 4.756-1.119v6.898c-1.609.213-3.205.586-4.756 1.121v-6.9zm11.234 15.248c-3.76-.506-7.609-.133-11.234 1.114v-2.121c3.625-1.248 7.475-1.619 11.234-1.115v2.122zm4.748-3.634c-5.176-1.785-10.807-1.784-15.982.003v-2.055c5.176-1.794 10.807-1.802 15.982-.022v2.074zm0-4.739c-2.752-.942-5.633-1.359-8.504-1.291v-2.08c2.871-.063 5.752.367 8.504 1.314v2.057z"/></svg>