<svg xmlns="http://www.w3.org/2000/svg" width="14.732" height="19" viewBox="0 0 14.732 19"><path fill="#515A65" d="M14.732 6.335c.029 3.911-2.11 7.668-6.086 7.431-1.159-.07-1.794-.541-2.477-1.345-.646 2.537-1.165 5.202-2.971 6.579-.522-2.498.224-4.77.707-6.864.26-1.118.712-2.383.708-3.184 0-.368-.233-.74-.281-1.13-.186-1.484.352-3.207 1.557-3.47 2.172-.471 2.027 1.627 1.627 3.113-.471 1.746-1.506 4.203.849 4.459 1.461.16 2.521-1.179 2.902-1.909.545-1.054.865-2.367.849-3.892-.028-2.569-1.803-4.209-4.529-4.248-2.97-.041-6.388 2.688-5.309 6.369.257.881 1.307 1.618.355 2.761-1.842-.278-2.761-2.357-2.62-4.388.263-3.802 3.36-6.211 7.146-6.58 4.223-.413 7.545 2.678 7.573 6.298z"/></svg>