<!DOCTYPE svg PUBLIC "-//W3C//DTD SVG 1.1//EN" "http://www.w3.org/Graphics/SVG/1.1/DTD/svg11.dtd" [
	<!ENTITY ns_flows "http://ns.adobe.com/Flows/1.0/">
]><svg xmlns="http://www.w3.org/2000/svg" width="21" height="21" viewBox="190 99 21 21" overflow="visible" enable-background="new 190 99 21 21"><path fill="#3B444F" d="M208.669 107.231c.029 3.911-2.111 7.668-6.086 7.432-1.16-.07-1.794-.542-2.476-1.346-.647 2.537-1.166 5.202-2.973 6.579-.522-2.498.224-4.77.708-6.864.259-1.118.711-2.383.708-3.184 0-.368-.234-.74-.282-1.131-.186-1.483.353-3.206 1.557-3.469 2.171-.472 2.027 1.627 1.627 3.113-.471 1.745-1.505 4.202.849 4.459 1.46.16 2.521-1.179 2.902-1.909.544-1.054.865-2.367.849-3.893-.029-2.568-1.804-4.209-4.53-4.247-2.969-.042-6.387 2.688-5.308 6.368.256.881 1.307 1.617.355 2.761-1.842-.278-2.761-2.357-2.62-4.388.263-3.803 3.36-6.211 7.146-6.58 4.224-.411 7.546 2.679 7.574 6.299z"/><rect x="190.88" y="99.924" width="20" height="20" fill="none"/></svg>