<!DOCTYPE svg PUBLIC "-//W3C//DTD SVG 1.1//EN" "http://www.w3.org/Graphics/SVG/1.1/DTD/svg11.dtd" [
	<!ENTITY ns_flows "http://ns.adobe.com/Flows/1.0/">
]><svg xmlns="http://www.w3.org/2000/svg" width="22" height="23" viewBox="130 190 22 23" overflow="visible" enable-background="new 130 190 22 23"><path fill="#3B444F" d="M131.049 201.44c.001.947.772 1.715 1.717 1.715h3.233l6.969 8.467c.656.645 1.708.644 2.355.002.646-.65.532-1.375.047-2.465l-3.229-6.004 4.629.001c.331-.001.636-.098.898-.259l2.337 2.551c.282.29.755.289 1.05-.001.284-.292.282-.76 0-1.05l-1.79-2.964 1.842-2.912c.265-.406.229-.815-.053-1.107-.294-.288-.768-.288-1.051.001l-2.35 2.564c-.259-.154-.559-.251-.883-.251h-4.637l3.236-6.015c.484-1.093.598-1.815-.046-2.465-.648-.646-1.701-.645-2.356 0l-6.98 8.479-3.222.001c-.944.001-1.712.767-1.716 1.712z"/><rect x="130" y="190.375" width="22" height="22" fill="none"/></svg>