<svg xmlns="http://www.w3.org/2000/svg" width="40" height="18.662" viewBox="0 0 40 18.662"><g fill="#BBBFC3"><path d="M39.625.377c-.504-.504-1.323-.502-1.827 0l-1.721 1.722-8.216-.797c-.692.005-1.252.566-1.255 1.252.003.689.448 1.015 1.287 1.338l4.915 1.477-2.465 2.463c-.176.177-.287.391-.342.615l-2.601-.113c-.306-.003-.557.248-.559.559.006.309.253.557.559.561l2.531.625.569 2.531c.074.357.31.557.617.561.31-.004.562-.254.56-.561l-.115-2.615c.221-.056.431-.164.604-.338l2.467-2.467 1.48 4.924c.323.84.647 1.285 1.337 1.287.688 0 1.248-.562 1.254-1.254l-.799-8.229 1.717-1.718c.503-.502.504-1.317.003-1.823zM28.943 10.851l-.339.361c-.223.234-.535.592-.978 1.006-.43.428-.972.926-1.611 1.479-.645.549-1.389 1.154-2.268 1.729-.861.6-1.866 1.15-2.965 1.66-1.114.471-2.319.945-3.633 1.186-.646.17-1.326.213-2.004.316-.685.025-1.381.113-2.079.057l-1.053-.045-1.051-.127c-.707-.059-1.391-.252-2.088-.375l-.13-.027-.032-.008-.067-.018-.062-.02-.246-.078-.493-.154c-.331-.115-.649-.178-.988-.336-.669-.307-1.361-.574-1.947-.982-.296-.201-.625-.348-.888-.592l-.812-.684c-.263-.232-.479-.514-.718-.766l-.345-.387-.29-.426c-.822-1.1-1.283-2.365-1.571-3.559l-.18-.895c-.034-.296-.053-.591-.074-.878-.07-.575-.001-1.133.007-1.663.038-.529.133-1.031.198-1.507l.344-1.321.411-1.122c.128-.344.295-.641.42-.917.239-.56.534-.944.695-1.224l.262-.42-.201.453c-.126.298-.343.718-.528 1.289-.093.284-.226.587-.316.936l-.283 1.123-.196 1.297c-.015.461-.078.94-.074 1.441.033.5.005 1.024.111 1.553l.118.808.21.811c.324 1.076.802 2.182 1.558 3.137l.268.369.319.332c.22.217.417.459.657.658.494.383.971.799 1.54 1.1.535.367 1.13.58 1.707.846.281.137.644.209.962.316l.494.15.247.074.062.02.016.004-.021-.006.031.006.123.025c.656.121 1.303.314 1.965.375l.985.131.985.051c.655.057 1.303-.01 1.945-.006.636-.08 1.275-.096 1.886-.236 1.235-.195 2.394-.57 3.479-.961.53-.227 1.059-.424 1.543-.678l.726-.35.68-.379c1.77-1.006 3.16-2.023 4.099-2.77.947-.739 1.478-1.182 1.478-1.182z"/></g></svg>