<svg xmlns="http://www.w3.org/2000/svg" width="40" height="19" viewBox="0 0 40 19"><g><path fill="#BBBFC3" d="M68.943 10.851l-.339.362c-.223.234-.535.591-.978 1.006-.43.427-.972.924-1.611 1.479-.645.548-1.389 1.154-2.268 1.728-.861.6-1.866 1.15-2.965 1.661-1.114.47-2.319.944-3.633 1.186-.646.168-1.326.212-2.004.316-.685.025-1.381.112-2.079.056l-1.053-.045-1.051-.126c-.707-.059-1.391-.252-2.088-.376l-.13-.027-.032-.007-.067-.018-.062-.02-.246-.077-.493-.154c-.331-.116-.649-.178-.988-.337-.669-.305-1.361-.574-1.947-.982-.296-.201-.625-.348-.888-.592l-.812-.684c-.263-.233-.479-.513-.718-.765l-.345-.387-.29-.426c-.822-1.1-1.283-2.365-1.571-3.56l-.18-.895c-.035-.297-.055-.591-.075-.879-.07-.575-.001-1.132.007-1.663.038-.529.133-1.031.198-1.507l.344-1.321.411-1.122c.128-.344.295-.641.42-.917.239-.56.534-.944.695-1.224l.262-.42-.201.454c-.126.298-.343.718-.528 1.289-.093.284-.226.587-.315.936l-.283 1.124-.196 1.297c-.015.461-.078.94-.074 1.442.033.5.005 1.024.111 1.553l.118.807.21.811c.324 1.077.802 2.181 1.558 3.136l.268.37.319.333c.22.216.417.458.657.657.494.384.971.799 1.54 1.101.535.367 1.13.579 1.707.845.281.137.644.209.962.317l.494.149.247.075.062.019.016.005-.021-.007.031.006.123.026c.656.122 1.303.315 1.965.375l.985.13.985.051c.655.057 1.303-.009 1.945-.007.636-.079 1.275-.095 1.886-.235 1.235-.195 2.394-.57 3.479-.96.53-.228 1.059-.425 1.543-.678l.726-.351.68-.379c1.77-1.005 3.16-2.022 4.099-2.77.947-.741 1.478-1.184 1.478-1.184z"/><g fill="#fff"><path d="M39.625.377c-.504-.504-1.323-.502-1.827 0l-1.721 1.723-8.216-.798c-.692.005-1.252.567-1.255 1.252.003.689.448 1.015 1.287 1.338l4.915 1.476-2.465 2.463c-.176.177-.287.391-.342.615l-2.601-.113c-.306-.003-.557.249-.559.559.006.308.253.556.559.56l2.531.625.569 2.531c.074.358.31.557.617.561.31-.004.562-.255.56-.56l-.115-2.616c.221-.056.431-.164.604-.338l2.467-2.467 1.48 4.923c.323.84.647 1.286 1.337 1.288.688-.001 1.248-.562 1.254-1.255l-.799-8.229 1.715-1.715c.505-.502.506-1.317.005-1.823zM28.943 10.851l-.339.362c-.223.234-.535.591-.978 1.006-.43.427-.972.924-1.611 1.479-.645.548-1.389 1.154-2.268 1.728-.861.6-1.866 1.15-2.965 1.661-1.114.47-2.319.944-3.633 1.186-.646.168-1.326.212-2.004.316-.685.025-1.381.112-2.079.056l-1.053-.045-1.051-.126c-.707-.059-1.391-.252-2.088-.376l-.13-.027-.032-.007-.067-.018-.062-.02-.246-.077-.493-.154c-.331-.116-.649-.178-.988-.337-.669-.305-1.361-.574-1.947-.982-.296-.201-.625-.348-.888-.592l-.812-.684c-.263-.233-.479-.513-.718-.765l-.345-.387-.29-.426c-.822-1.1-1.283-2.365-1.571-3.56l-.18-.895c-.034-.297-.053-.591-.074-.879-.07-.575-.001-1.132.007-1.663.038-.529.133-1.031.198-1.507l.344-1.321.411-1.122c.128-.344.295-.641.42-.917.239-.56.534-.944.695-1.224l.262-.42-.201.454c-.126.298-.343.718-.528 1.288-.093.285-.226.588-.316.936l-.283 1.124-.196 1.297c-.015.46-.078.94-.074 1.441.033.5.005 1.024.111 1.553l.118.807.21.811c.324 1.077.802 2.181 1.558 3.136l.268.37.319.333c.22.216.417.458.657.657.494.384.971.799 1.54 1.101.535.367 1.13.579 1.707.845.281.137.644.209.962.317l.494.149.247.075.062.019.016.005-.021-.007.031.006.123.026c.656.122 1.303.315 1.965.375l.985.13.985.051c.655.057 1.303-.009 1.945-.007.636-.079 1.275-.095 1.886-.235 1.235-.195 2.394-.57 3.479-.96.53-.228 1.059-.425 1.543-.678l.726-.351.68-.379c1.77-1.005 3.16-2.022 4.099-2.77.947-.739 1.478-1.182 1.478-1.182z"/></g></g></svg>