<svg xmlns="http://www.w3.org/2000/svg" width="25" height="25.014" viewBox="0 0 25 25.014"><path fill="#BBBFC3" d="M24.301.705c-.942-.941-2.471-.938-3.41 0l-3.212 3.213-15.337-1.488c-1.292.011-2.337 1.057-2.342 2.338.005 1.288.837 1.895 2.401 2.497l9.175 2.756-4.601 4.599c-.328.33-.535.729-.636 1.149l-4.856-.212c-.568-.008-1.038.463-1.043 1.044.01.572.475 1.036 1.043 1.044l4.724 1.166 1.064 4.725c.139.667.58 1.038 1.151 1.048.578-.007 1.049-.478 1.044-1.046l-.214-4.883c.412-.104.804-.307 1.127-.629l4.606-4.607 2.762 9.191c.604 1.567 1.21 2.399 2.496 2.404 1.284-.003 2.329-1.051 2.34-2.342l-1.49-15.361 3.201-3.202c.939-.938.942-2.462.007-3.404z"/></svg>