<svg xmlns="http://www.w3.org/2000/svg" width="14.999" height="14.991" viewBox="0 0 14.999 14.991"><path fill="#E5EDF5" d="M11.831 14.991h-.003c-1.079-.004-1.537-.806-1.872-1.672l-1.31-4.353-1.968 1.968c-.136.135-.292.248-.464.336l.104 2.36c.006.618-.483 1.113-1.09 1.12-.582-.009-1.029-.399-1.152-.995l-.523-2.323-2.284-.563c-.567-.041-1.011-.505-1.022-1.084.006-.617.495-1.106 1.091-1.106l2.37.103c.087-.177.202-.337.341-.475l1.965-1.965-4.306-1.293c-.902-.348-1.704-.805-1.708-1.887.004-.998.819-1.812 1.817-1.822l.054.004 8.332.809 1.624-1.627c.707-.701 1.932-.701 2.633 0 .721.729.719 1.908-.004 2.629l-1.617 1.619.812 8.373v.027c-.007 1.001-.825 1.816-1.82 1.817zm-2.696-7.964l1.792 5.96c.35.902.596.977.903.979.427-.001.778-.348.794-.777l-.854-8.798 1.961-1.961c.324-.324.324-.854.001-1.18-.311-.311-.864-.312-1.181.002l-1.965 1.969-8.783-.854c-.429.016-.776.369-.778.795.002.307.076.553 1.016.916l5.914 1.773-3.18 3.179c-.107.109-.182.243-.219.4l-.099.411-3.137-.137-.049.075.079.067.115.016 2.949.727.664 2.951c.039.185.109.186.151.186l.063-.066-.139-3.131.406-.102c.156-.039.287-.111.393-.217l3.183-3.183z"/></svg>