<svg xmlns="http://www.w3.org/2000/svg" width="25" height="25.013" viewBox="0 0 25 25.013"><path fill="#fff" d="M24.301.704c-.942-.94-2.471-.938-3.41 0l-3.212 3.213-15.337-1.488c-1.292.012-2.337 1.058-2.342 2.339.005 1.288.837 1.894 2.401 2.497l9.175 2.756-4.601 4.599c-.328.329-.535.729-.636 1.148l-4.856-.211c-.568-.008-1.038.463-1.043 1.043.01.572.475 1.036 1.043 1.045l4.724 1.166 1.064 4.725c.139.666.58 1.037 1.151 1.047.578-.006 1.049-.477 1.044-1.045l-.214-4.883c.412-.104.804-.308 1.127-.63l4.606-4.606 2.762 9.191c.604 1.566 1.21 2.398 2.496 2.403 1.284-.003 2.329-1.05 2.34-2.341l-1.489-15.362 3.201-3.201c.938-.938.941-2.462.006-3.405z"/></svg>