<svg xmlns="http://www.w3.org/2000/svg" width="30" height="31" viewBox="0 0 30 31"><path fill="#BBBFC3" d="M-.375.377c-.504-.504-1.323-.502-1.827 0l-1.721 1.723-8.216-.798c-.692.005-1.252.567-1.255 1.252.003.689.448 1.015 1.287 1.338l4.915 1.476-2.465 2.463c-.176.177-.287.391-.342.615l-2.601-.113c-.306-.003-.557.249-.559.559.006.308.253.556.559.56l2.531.625.569 2.531c.074.358.31.557.617.561.31-.004.562-.255.56-.56l-.115-2.616c.221-.056.431-.164.604-.338l2.467-2.467 1.48 4.923c.323.84.647 1.286 1.337 1.288.688-.001 1.248-.562 1.254-1.255l-.799-8.229 1.715-1.715c.505-.502.506-1.317.005-1.823z"/><path fill="#BBBFC3" d="M59.146.845c-1.13-1.128-2.963-1.125-4.09 0l-3.853 3.854-18.394-1.785c-1.55.015-2.803 1.269-2.809 2.805.006 1.544 1.004 2.271 2.88 2.994l11.004 3.306-5.518 5.516c-.394.395-.642.874-.763 1.378l-5.824-.254c-.682-.009-1.246.556-1.251 1.252.011.687.569 1.242 1.251 1.252l5.665 1.398 1.276 5.667c.167.8.696 1.245 1.382 1.257.693-.008 1.258-.572 1.252-1.254l-.257-5.857c.494-.124.964-.368 1.352-.755l5.525-5.525 3.312 11.024c.725 1.88 1.451 2.878 2.993 2.883 1.54-.003 2.794-1.259 2.807-2.808l-1.786-18.425 3.839-3.84c1.126-1.125 1.129-2.952.007-4.083z"/><path fill="#fff" d="M29.146.845c-1.13-1.128-2.963-1.125-4.09 0l-3.853 3.854-18.394-1.785c-1.55.015-2.803 1.269-2.809 2.805.006 1.544 1.004 2.271 2.88 2.994l11.004 3.306-5.518 5.516c-.394.395-.642.874-.763 1.378l-5.824-.254c-.682-.009-1.246.556-1.251 1.252.011.687.569 1.242 1.251 1.252l5.665 1.398 1.276 5.667c.167.8.696 1.245 1.382 1.257.693-.008 1.258-.572 1.252-1.254l-.257-5.857c.494-.124.964-.368 1.352-.755l5.525-5.525 3.312 11.024c.725 1.88 1.451 2.878 2.993 2.883 1.54-.003 2.794-1.259 2.807-2.808l-1.786-18.425 3.839-3.84c1.126-1.125 1.129-2.952.007-4.083z"/></svg>