<!DOCTYPE svg PUBLIC "-//W3C//DTD SVG 1.1//EN" "http://www.w3.org/Graphics/SVG/1.1/DTD/svg11.dtd" [
	<!ENTITY ns_flows "http://ns.adobe.com/Flows/1.0/">
]><svg xmlns="http://www.w3.org/2000/svg" width="21" height="21" viewBox="130 100 21 21" overflow="visible" enable-background="new 130 100 21 21"><path fill="#3B444F" d="M139.522 118.91c0-1.02-.165-2.041-.58-3.031-.384-.963-.963-1.791-1.706-2.562-.744-.742-1.601-1.322-2.565-1.707-.961-.414-1.954-.607-3.025-.607v-3.25c3.081 0 5.671 1.074 7.877 3.277 2.175 2.205 3.281 4.824 3.281 7.881h-3.282v-.001zm5.758.029c0-3.777-1.349-7-3.997-9.699-2.644-2.648-5.865-3.996-9.638-3.996v-3.251c4.682 0 8.647 1.651 11.956 4.96 3.277 3.305 4.931 7.328 4.931 11.986h-3.252zm-9.863-.58c-.443.467-.964.689-1.6.689-.63 0-1.156-.223-1.623-.689-.442-.441-.663-.965-.663-1.6 0-.633.221-1.156.663-1.623.467-.469.993-.688 1.623-.688.636 0 1.156.219 1.6.688.466.467.686.99.686 1.623 0 .636-.22 1.159-.686 1.6z"/><rect x="130.083" y="100.042" width="20" height="19.999" fill="none"/></svg>