<svg xmlns="http://www.w3.org/2000/svg" xmlns:xlink="http://www.w3.org/1999/xlink" width="28" height="28" viewBox="0 0 28 28"><defs><path id="a" d="M18.703 6.688c1.291 0 2.338-1.048 2.338-2.335 0-1.291-1.047-2.339-2.338-2.339-1.287 0-2.334 1.048-2.334 2.339 0 1.287 1.047 2.335 2.334 2.335"/></defs><defs><path id="b" d="M22.479 11.267l-.24-.028-.115-.004-2.063-.005-.712-2.197c-.201-.614-.722-1.086-1.32-1.215l-1.877-.764c-.208-.078-.422-.12-.641-.124l-4.149-.081c-.32 0-.63.081-.911.235l-.045-.03-3.2 2.908c-.776.706-.825 1.918-.115 2.699.366.401.884.631 1.423.631.474 0 .928-.171 1.276-.489l2.318-2.107.601.001-1.365 3.305-1.433 2.798-2.695-.5-.239-.027-.747-.134c-1.047-.189-2.027.522-2.214 1.55-.188 1.038.496 2.036 1.53 2.229l5.129.931c.947.175 1.841-.384 2.144-1.274l.803-1.303.604 1.761v4.08c0 1.05.863 1.901 1.92 1.901 1.055 0 1.915-.852 1.921-1.901v-4.23l-.013-.204c-.009-.207-.043-.386-.098-.546l-1.108-3.234.619-1.475c.34.299.779.469 1.242.472l3.449.005c1.168 0 1.893-.703 1.893-1.831-.001-1.006-.597-1.681-1.572-1.803"/></defs><use xlink:href="#a" overflow="visible" fill="#fff"/><use xlink:href="#b" overflow="visible" fill="#fff"/><clipPath id="c"><use xlink:href="#a" overflow="visible"/></clipPath><clipPath id="d" clip-path="url(#c)"><use xlink:href="#b" overflow="visible"/></clipPath><image width="63" height="74" xlink:href="506FFB416784A87B.jpg" transform="matrix(.325 0 0 .325 3.838 1.98)" overflow="visible" clip-path="url(#d)"/></svg>