<svg xmlns="http://www.w3.org/2000/svg" xmlns:xlink="http://www.w3.org/1999/xlink" width="20" height="20" viewBox="0 0 20 20"><g><path fill="#fff" d="M44.437 22.212c-3.87 0-7.007-3.137-7.007-7.007 0-3.869 3.137-7.007 7.007-7.007 3.869 0 7.007 3.139 7.007 7.007 0 3.87-3.138 7.007-7.007 7.007zm12.06 8.197h-32.995c-1.935 0-3.503-1.569-3.503-3.503v-23.404c0-1.934 1.568-3.502 3.503-3.502h32.995c1.936 0 3.502 1.568 3.502 3.502v23.404c0 1.934-1.566 3.503-3.502 3.503zm-25.984-27.557h-5.542c-1.17 0-2.119.948-2.119 2.119 0 1.169.949 2.118 2.119 2.118h5.542c1.17 0 2.118-.949 2.118-2.118 0-1.171-.948-2.119-2.118-2.119zm13.924.518c-6.537 0-11.835 5.298-11.835 11.834s5.298 11.835 11.835 11.835c6.536 0 11.833-5.298 11.833-11.834s-5.297-11.835-11.833-11.835z"/><defs><path id="a" d="M19.549 16.717l-4.783-4.726c.722-1.172 1.136-2.547 1.136-4.017 0-4.273-3.748-7.974-8.073-7.974-4.324 0-7.83 3.462-7.83 7.735 0 4.275 3.748 7.977 8.072 7.977 1.438 0 2.787-.384 3.944-1.056l4.807 4.753c.472.464 1.233.464 1.704 0l1.192-1.179c.473-.466.303-1.048-.169-1.513zm-17.14-8.982c0-2.959 2.431-5.355 5.42-5.355 2.996 0 5.664 2.636 5.664 5.594 0 2.959-2.426 5.355-5.422 5.355-2.993.001-5.662-2.634-5.662-5.594z"/></defs><use xlink:href="#a" overflow="visible" fill="#fff"/><clipPath><use xlink:href="#a" overflow="visible"/></clipPath></g></svg>