<svg xmlns="http://www.w3.org/2000/svg" xmlns:xlink="http://www.w3.org/1999/xlink" width="20" height="19.758" viewBox="0 0 20 19.758"><g><defs><path id="a" d="M19.55 16.717l-4.783-4.726c.723-1.173 1.137-2.548 1.137-4.017-.001-4.273-3.749-7.974-8.074-7.974-4.323 0-7.83 3.463-7.83 7.736 0 4.275 3.748 7.977 8.072 7.977 1.438 0 2.786-.385 3.944-1.057l4.807 4.754c.472.464 1.233.464 1.704 0l1.192-1.18c.473-.465.302-1.048-.169-1.513zm-17.141-8.981c0-2.96 2.432-5.355 5.421-5.355 2.995 0 5.664 2.635 5.664 5.594s-2.427 5.355-5.422 5.355c-2.993 0-5.663-2.635-5.663-5.594z"/></defs><use xlink:href="#a" overflow="visible" fill="#fff"/><clipPath><use xlink:href="#a" overflow="visible"/></clipPath></g></svg>