<svg xmlns="http://www.w3.org/2000/svg" width="25" height="19.422" viewBox="0 0 25 19.422"><path fill="#fff" d="M23.778 7.207h-2.574l-5.199-6.73c-.413-.535-1.179-.633-1.714-.223-.534.414-.633 1.18-.221 1.715l4.046 5.238h-11.056l4.045-5.238c.413-.535.313-1.301-.22-1.715-.534-.41-1.301-.312-1.714.223l-5.199 6.73h-2.75c-.675 0-1.222.546-1.222 1.22 0 .676.547 1.223 1.222 1.223h.476l1.804 8.974c.089.439.527.799.975.799h16.128c.448 0 .886-.359.974-.799l1.804-8.974h.396c.674 0 1.221-.547 1.221-1.223 0-.674-.547-1.22-1.222-1.22zm-15.96 8.713c0 .451-.364.814-.814.814h-.652c-.45 0-.814-.363-.814-.814v-.73c0-.451.364-.816.814-.816h.651c.45 0 .814.365.814.816v.73zm0-4.152c0 .449-.364.814-.814.814h-.652c-.45 0-.814-.365-.814-.814v-.733c0-.449.364-.814.814-.814h.651c.45 0 .814.365.814.814v.733zm3.909 4.152c0 .451-.365.814-.814.814h-.651c-.45 0-.814-.363-.814-.814v-.73c0-.451.364-.816.814-.816h.651c.449 0 .814.365.814.816v.73zm0-4.152c0 .449-.365.814-.814.814h-.651c-.45 0-.814-.365-.814-.814v-.733c0-.449.364-.814.814-.814h.651c.449 0 .814.365.814.814v.733zm3.99 4.152c0 .451-.365.814-.815.814h-.651c-.45 0-.815-.363-.815-.814v-.73c0-.451.365-.816.815-.816h.651c.45 0 .815.365.815.816v.73zm0-4.152c0 .449-.365.814-.815.814h-.651c-.45 0-.815-.365-.815-.814v-.733c0-.449.365-.814.815-.814h.651c.45 0 .815.365.815.814v.733zm3.908 4.152c0 .451-.365.814-.815.814h-.65c-.45 0-.814-.363-.814-.814v-.73c0-.451.364-.816.814-.816h.651c.45 0 .815.365.815.816v.73zm0-4.152c0 .449-.365.814-.815.814h-.65c-.45 0-.814-.365-.814-.814v-.733c0-.449.364-.814.814-.814h.651c.45 0 .815.365.815.814v.733z"/></svg>