<svg xmlns="http://www.w3.org/2000/svg" width="19" height="15.226" viewBox="0 0 19 15.226"><path fill="#E5EDF5" d="M11.217 1.042c.248 0 .493.11.655.321l3.517 4.555h1.743c.455 0 .826.371.826.826 0 .457-.371.828-.826.828h-.268l-1.221 6.07c-.06.298-.356.54-.659.54h-10.912c-.304 0-.601-.242-.659-.54l-1.221-6.07h-.322c-.457 0-.828-.371-.828-.828 0-.455.371-.826.828-.826h1.859l3.52-4.555c.163-.211.408-.321.655-.321.176 0 .353.056.504.172.36.279.427.799.148 1.16l-2.737 3.544h7.481l-2.737-3.544c-.279-.361-.212-.881.148-1.16.151-.116.329-.172.506-.172m2.112 8.513h.441c.305 0 .551-.247.551-.551v-.496c0-.304-.246-.551-.551-.551h-.441c-.305 0-.551.247-.551.551v.496c0 .304.246.551.551.551m-2.644 0h.441c.305 0 .551-.247.551-.551v-.496c0-.304-.246-.551-.551-.551h-.441c-.304 0-.551.247-.551.551v.496c0 .304.247.551.551.551m-2.7 0h.44c.305 0 .552-.247.552-.551v-.496c0-.304-.247-.551-.552-.551h-.44c-.305 0-.551.247-.551.551v.496c.001.304.247.551.551.551m-2.644 0h.441c.303 0 .551-.247.551-.551v-.496c0-.304-.248-.551-.551-.551h-.441c-.305 0-.551.247-.551.551v.496c0 .304.246.551.551.551m7.988 2.81h.441c.305 0 .551-.246.551-.552v-.495c0-.305-.246-.551-.551-.551h-.441c-.305 0-.551.246-.551.551v.495c0 .306.246.552.551.552m-2.644 0h.441c.305 0 .551-.246.551-.552v-.495c0-.305-.246-.551-.551-.551h-.441c-.304 0-.551.246-.551.551v.495c0 .306.247.552.551.552m-2.7 0h.44c.305 0 .552-.246.552-.552v-.495c0-.305-.247-.551-.552-.551h-.44c-.305 0-.551.246-.551.551v.495c.001.306.247.552.551.552m-2.644 0h.441c.303 0 .551-.246.551-.552v-.495c0-.305-.248-.551-.551-.551h-.441c-.305 0-.551.246-.551.551v.495c0 .306.246.552.551.552m5.876-12.365c-.409 0-.815.137-1.14.387-.223.174-.395.386-.517.62-.121-.234-.292-.445-.514-.616-.328-.254-.733-.391-1.142-.391-.584 0-1.123.265-1.479.727l-3.207 4.149h-1.348c-1.031 0-1.87.839-1.87 1.868 0 .84.558 1.553 1.321 1.787l1.069 5.316c.157.785.88 1.378 1.682 1.378h10.912c.803 0 1.524-.594 1.681-1.38l1.072-5.333c.735-.252 1.263-.95 1.263-1.768 0-1.029-.838-1.868-1.868-1.868h-1.232l-3.203-4.149c-.356-.462-.895-.727-1.48-.727zm-3.276 4.876l1.44-1.864.18-.28.178.28 1.439 1.864h-3.237z"/></svg>