<!DOCTYPE svg PUBLIC "-//W3C//DTD SVG 1.1//EN" "http://www.w3.org/Graphics/SVG/1.1/DTD/svg11.dtd" [
	<!ENTITY ns_flows "http://ns.adobe.com/Flows/1.0/">
]><svg xmlns="http://www.w3.org/2000/svg" width="28" height="28" viewBox="10 150 28 28" overflow="visible" enable-background="new 10 150 28 28"><path fill="#fff" d="M35.696 161.578h-2.574l-5.199-6.732c-.413-.535-1.179-.633-1.714-.221-.534.412-.633 1.18-.221 1.713l4.046 5.24h-11.057l4.045-5.24c.413-.533.313-1.301-.22-1.713s-1.301-.314-1.714.221l-5.199 6.732h-2.75c-.675 0-1.222.547-1.222 1.221s.547 1.223 1.222 1.223h.476l1.804 8.973c.089.439.527.799.975.799h16.128c.448 0 .886-.359.974-.799l1.804-8.973h.396c.674 0 1.221-.549 1.221-1.223s-.547-1.221-1.221-1.221zm-15.961 8.713c0 .449-.364.814-.814.814h-.651c-.45 0-.814-.365-.814-.814v-.732c0-.451.364-.814.814-.814h.651c.45 0 .814.363.814.814v.732zm0-4.152c0 .449-.364.812-.814.812h-.651c-.45 0-.814-.363-.814-.812v-.734c0-.449.364-.812.814-.812h.651c.45 0 .814.363.814.812v.734zm3.909 4.152c0 .449-.365.814-.814.814h-.651c-.45 0-.814-.365-.814-.814v-.732c0-.451.364-.814.814-.814h.651c.449 0 .814.363.814.814v.732zm0-4.152c0 .449-.365.812-.814.812h-.651c-.45 0-.814-.363-.814-.812v-.734c0-.449.364-.812.814-.812h.651c.449 0 .814.363.814.812v.734zm3.99 4.152c0 .449-.365.814-.815.814h-.651c-.45 0-.815-.365-.815-.814v-.732c0-.451.365-.814.815-.814h.651c.45 0 .815.363.815.814v.732zm0-4.152c0 .449-.365.812-.815.812h-.651c-.45 0-.815-.363-.815-.812v-.734c0-.449.365-.812.815-.812h.651c.45 0 .815.363.815.812v.734zm3.909 4.152c0 .449-.365.814-.815.814h-.651c-.45 0-.814-.365-.814-.814v-.732c0-.451.364-.814.814-.814h.651c.45 0 .815.363.815.814v.732zm0-4.152c0 .449-.365.812-.815.812h-.651c-.45 0-.814-.363-.814-.812v-.734c0-.449.364-.812.814-.812h.651c.45 0 .815.363.815.812v.734z"/><rect x="10" y="150" width="28" height="28" fill="none"/></svg>