<svg xmlns="http://www.w3.org/2000/svg" width="25" height="19.423" viewBox="0 0 25 19.423"><path fill="#BBBFC3" d="M23.779 7.208h-2.574l-5.199-6.732c-.413-.535-1.179-.633-1.714-.221-.534.412-.633 1.18-.221 1.713l4.046 5.24h-11.057l4.045-5.24c.413-.533.313-1.301-.22-1.713s-1.301-.315-1.714.221l-5.198 6.732h-2.75c-.676 0-1.223.547-1.223 1.221s.547 1.223 1.222 1.223h.476l1.804 8.973c.089.439.527.799.975.799h16.128c.448 0 .886-.359.974-.799l1.804-8.973h.396c.674-.001 1.221-.549 1.221-1.223s-.547-1.221-1.221-1.221zm-15.961 8.713c0 .449-.364.814-.814.814h-.651c-.45 0-.814-.365-.814-.814v-.732c0-.451.364-.814.814-.814h.651c.45 0 .814.363.814.814v.732zm0-4.152c0 .449-.364.812-.814.812h-.651c-.45 0-.814-.363-.814-.812v-.734c0-.449.364-.812.814-.812h.651c.45 0 .814.363.814.812v.734zm3.909 4.152c0 .449-.365.814-.814.814h-.651c-.45 0-.814-.365-.814-.814v-.732c0-.451.364-.814.814-.814h.651c.449 0 .814.363.814.814v.732zm0-4.152c0 .449-.365.812-.814.812h-.651c-.45 0-.814-.363-.814-.812v-.734c0-.449.364-.812.814-.812h.651c.449 0 .814.363.814.812v.734zm3.99 4.152c0 .449-.365.814-.815.814h-.651c-.45 0-.815-.365-.815-.814v-.732c0-.451.365-.814.815-.814h.651c.45 0 .815.363.815.814v.732zm0-4.152c0 .449-.365.812-.815.812h-.651c-.45 0-.815-.363-.815-.812v-.734c0-.449.365-.812.815-.812h.651c.45 0 .815.363.815.812v.734zm3.909 4.152c0 .449-.365.814-.815.814h-.651c-.45 0-.814-.365-.814-.814v-.732c0-.451.364-.814.814-.814h.651c.45 0 .815.363.815.814v.732zm0-4.152c0 .449-.365.812-.815.812h-.651c-.45 0-.814-.363-.814-.812v-.734c0-.449.364-.812.814-.812h.651c.45 0 .815.363.815.812v.734z"/></svg>