<!DOCTYPE svg PUBLIC "-//W3C//DTD SVG 1.1//EN" "http://www.w3.org/Graphics/SVG/1.1/DTD/svg11.dtd" [
	<!ENTITY ns_flows "http://ns.adobe.com/Flows/1.0/">
]><svg xmlns="http://www.w3.org/2000/svg" width="20" height="21" viewBox="70 50 20 21" overflow="visible" enable-background="new 70 50 20 21"><path fill="#E5EDF5" d="M81.744 53.335c.248 0 .493.109.655.32l3.517 4.555h1.743c.455 0 .826.371.826.826 0 .457-.371.828-.826.828h-.268l-1.221 6.07c-.06.299-.356.541-.659.541h-10.911c-.304 0-.601-.242-.659-.541l-1.221-6.07h-.322c-.457 0-.828-.371-.828-.828 0-.455.371-.826.828-.826h1.859l3.52-4.555c.163-.211.408-.32.655-.32.176 0 .353.055.504.172.36.279.427.799.148 1.16l-2.737 3.543h7.481l-2.737-3.543c-.279-.361-.212-.881.148-1.16.151-.117.328-.172.505-.172m2.112 8.512h.441c.305 0 .551-.246.551-.551v-.496c0-.303-.246-.551-.551-.551h-.441c-.305 0-.551.248-.551.551v.496c.001.305.247.551.551.551m-2.644 0h.441c.305 0 .551-.246.551-.551v-.496c0-.303-.246-.551-.551-.551h-.441c-.304 0-.551.248-.551.551v.496c0 .305.247.551.551.551m-2.699 0h.44c.305 0 .552-.246.552-.551v-.496c0-.303-.247-.551-.552-.551h-.44c-.305 0-.551.248-.551.551v.496c0 .305.246.551.551.551m-2.645 0h.441c.303 0 .551-.246.551-.551v-.496c0-.303-.248-.551-.551-.551h-.441c-.305 0-.551.248-.551.551v.496c0 .305.246.551.551.551m7.988 2.81h.441c.305 0 .551-.246.551-.551v-.496c0-.305-.246-.551-.551-.551h-.441c-.305 0-.551.246-.551.551v.496c.001.305.247.551.551.551m-2.644 0h.441c.305 0 .551-.246.551-.551v-.496c0-.305-.246-.551-.551-.551h-.441c-.304 0-.551.246-.551.551v.496c0 .305.247.551.551.551m-2.699 0h.44c.305 0 .552-.246.552-.551v-.496c0-.305-.247-.551-.552-.551h-.44c-.305 0-.551.246-.551.551v.496c0 .305.246.551.551.551m-2.645 0h.441c.303 0 .551-.246.551-.551v-.496c0-.305-.248-.551-.551-.551h-.441c-.305 0-.551.246-.551.551v.496c0 .305.246.551.551.551m5.876-12.365c-.409 0-.815.137-1.14.387-.223.174-.395.387-.517.621-.121-.234-.293-.445-.515-.617-.328-.254-.732-.391-1.142-.391-.584 0-1.123.266-1.479.727l-3.207 4.15h-1.348c-1.031 0-1.87.838-1.87 1.867 0 .84.558 1.553 1.321 1.787l1.069 5.316c.157.785.88 1.379 1.682 1.379h10.912c.803 0 1.524-.594 1.681-1.381l1.072-5.332c.734-.254 1.263-.951 1.263-1.77 0-1.029-.838-1.867-1.868-1.867h-1.231l-3.203-4.15c-.356-.46-.895-.726-1.48-.726zm-3.275 4.877l1.44-1.865.179-.279.179.279 1.439 1.865h-3.237z"/><rect x="70" y="50.333" width="20" height="20" fill="none"/></svg>