<!DOCTYPE svg PUBLIC "-//W3C//DTD SVG 1.1//EN" "http://www.w3.org/Graphics/SVG/1.1/DTD/svg11.dtd" [
	<!ENTITY ns_flows "http://ns.adobe.com/Flows/1.0/">
]><svg xmlns="http://www.w3.org/2000/svg" width="20" height="21" viewBox="220 50 20 21" overflow="visible" enable-background="new 220 50 20 21"><path fill="#E5EDF5" d="M230.548 60.036h-6.491c-.292 0-.528.237-.528.53s.236.529.528.529h6.462l-2.053 2.053c-.207.206-.207.542 0 .748.206.206.542.206.749 0l2.966-2.967c.105-.104.156-.241.156-.378 0-.136-.051-.272-.156-.377l-2.966-2.967c-.207-.207-.543-.207-.749 0-.207.205-.207.541 0 .748l2.082 2.081z"/><path fill="#E5EDF5" d="M235.619 67.518l-.138-.012-4.736-1.057c-.454-.029-1.09-.373-1.09-1.27v-.326c0-.26.241-.469.5-.469s.5.209.5.469v.326c0 .27.187.35.188.352l.148-.006 4.562 1.043c.01-.035.102-.131.102-.32v-12.158c0-.165-.046-.26-.059-.313l-4.669 1.048c-.069 0-.272.155-.272.333v1.134c0 .259-.241.468-.5.468s-.5-.209-.5-.468v-1.134c0-.711.577-1.233 1.164-1.268l4.764-1.07c.347 0 1.072.165 1.072 1.271v12.158c0 1.177-.808 1.269-1.036 1.269z"/><rect x="220" y="50.333" width="20" height="20" fill="none"/></svg>