<svg xmlns="http://www.w3.org/2000/svg" width="13.127" height="14.698" viewBox="0 0 13.127 14.698"><g><path fill="#E5EDF5" d="M1.789 8.248h6.491c.292 0 .528-.236.528-.529s-.236-.53-.528-.53h-6.462l2.053-2.053c.207-.206.207-.542 0-.748-.206-.206-.542-.206-.749 0l-2.966 2.967c-.105.105-.156.242-.156.378s.051.273.156.377l2.966 2.967c.207.206.543.206.749 0 .207-.206.207-.542 0-.748l-2.082-2.081z"/><path fill="#E5EDF5" d="M12.091 14.698l-.138-.012-4.736-1.058c-.454-.028-1.09-.373-1.09-1.269v-2.488c0-.26.241-.469.5-.469s.5.209.5.469v2.489c0 .27.187.35.188.351l.148-.005 4.562 1.043c.01-.035.102-.132.102-.321v-12.157c0-.165-.046-.26-.059-.313l-4.669 1.047c-.069 0-.272.155-.272.333v2.381c0 .259-.241.468-.5.468s-.5-.209-.5-.468v-2.381c0-.711.577-1.233 1.164-1.268l4.764-1.07c.347 0 1.072.165 1.072 1.271v12.157c0 1.178-.809 1.27-1.036 1.27z"/></g></svg>