<svg xmlns="http://www.w3.org/2000/svg" width="16" height="16.157" viewBox="0 0 16 16.157"><path fill="#E5EDF5" d="M4.973 16.157v-4.062c-2.991-.959-4.973-3.256-4.973-5.813 0-3.464 3.588-6.282 7.996-6.282 4.414 0 8.004 2.818 8.004 6.282 0 1.877-1.045 3.63-2.873 4.826l-.025.04-.131.061c-1.205.751-2.654 1.208-4.203 1.328l-3.795 3.62zm3.023-15.131c-3.843 0-6.969 2.357-6.969 5.256 0 2.195 1.846 4.179 4.596 4.936l.376.104v2.438l2.329-2.223.188-.011c1.435-.085 2.772-.487 3.875-1.166l.087-.054c1.586-1.006 2.496-2.472 2.496-4.023.001-2.899-3.13-5.257-6.978-5.257z"/></svg>