<!DOCTYPE svg PUBLIC "-//W3C//DTD SVG 1.1//EN" "http://www.w3.org/Graphics/SVG/1.1/DTD/svg11.dtd" [
	<!ENTITY ns_flows "http://ns.adobe.com/Flows/1.0/">
]><svg xmlns="http://www.w3.org/2000/svg" width="21" height="20" viewBox="91 208 21 20" overflow="visible" enable-background="new 91 208 21 20"><path fill="#E5EDF5" d="M98.368 226.298v-4.062c-2.99-.959-4.973-3.256-4.973-5.812 0-3.464 3.588-6.282 7.996-6.282 4.414 0 8.004 2.818 8.004 6.282 0 1.877-1.045 3.63-2.873 4.826l-.025.04-.131.061c-1.205.751-2.654 1.208-4.203 1.328l-3.795 3.619zm3.023-15.131c-3.843 0-6.969 2.357-6.969 5.256 0 2.195 1.846 4.179 4.596 4.936l.376.104v2.438l2.329-2.223.188-.011c1.435-.085 2.772-.487 3.875-1.166l.087-.054c1.586-1.006 2.496-2.472 2.496-4.023.001-2.9-3.13-5.257-6.978-5.257z"/><rect x="91.375" y="208" width="20" height="20" fill="none"/></svg>