<!DOCTYPE svg PUBLIC "-//W3C//DTD SVG 1.1//EN" "http://www.w3.org/Graphics/SVG/1.1/DTD/svg11.dtd" [
	<!ENTITY ns_flows "http://ns.adobe.com/Flows/1.0/">
]><svg xmlns="http://www.w3.org/2000/svg" width="28" height="28" viewBox="160 190 28 28" overflow="visible" enable-background="new 160 190 28 28"><path fill="#BEBEBE" d="M174.037 215.581c-6.351 0-11.5-5.149-11.5-11.499s5.149-11.501 11.5-11.501c6.349 0 11.5 5.151 11.5 11.501s-5.152 11.499-11.5 11.499zm0-19.233c-4.272 0-7.735 3.463-7.735 7.734s3.463 7.734 7.735 7.734 7.733-3.463 7.733-7.734-3.461-7.734-7.733-7.734zm1.508 9.246l-6.615 3.59 3.59-6.613 6.387-3.368-3.362 6.391zm-2.371-2.045l-1.646 3.037 3.037-1.648-1.391-1.389z"/><rect x="160" y="190" width="28" height="28" fill="none"/></svg>