<svg xmlns="http://www.w3.org/2000/svg" width="20" height="16.253" viewBox="0 0 20 16.253"><path fill="#515A65" d="M20 1.924c-.735.327-1.526.547-2.356.646.848-.508 1.498-1.312 1.804-2.271-.793.472-1.671.812-2.605.996-.751-.797-1.815-1.295-2.997-1.295-2.265 0-4.102 1.836-4.102 4.103 0 .322.035.635.106.935-3.409-.17-6.433-1.806-8.456-4.288-.355.607-.556 1.311-.556 2.063 0 1.424.724 2.679 1.826 3.415-.675-.022-1.308-.206-1.86-.513v.052c0 1.988 1.414 3.645 3.293 4.023-.346.094-.708.144-1.082.144-.265 0-.521-.025-.771-.073.522 1.629 2.037 2.815 3.833 2.848-1.405 1.103-3.174 1.758-5.096 1.758-.333 0-.66-.018-.98-.058 1.815 1.164 3.974 1.844 6.29 1.844 7.547 0 11.675-6.253 11.675-11.674l-.013-.532c.802-.577 1.497-1.301 2.047-2.123z"/></svg>