<!DOCTYPE svg PUBLIC "-//W3C//DTD SVG 1.1//EN" "http://www.w3.org/Graphics/SVG/1.1/DTD/svg11.dtd" [
	<!ENTITY ns_flows "http://ns.adobe.com/Flows/1.0/">
]><svg xmlns="http://www.w3.org/2000/svg" width="21" height="21" viewBox="10 100 21 21" overflow="visible" enable-background="new 10 100 21 21"><path fill="#3B444F" d="M29.849 104.193c-.735.326-1.526.547-2.356.646.848-.508 1.498-1.312 1.804-2.271-.793.473-1.671.812-2.605.996-.75-.797-1.813-1.295-2.996-1.295-2.265 0-4.102 1.836-4.102 4.104 0 .322.035.635.106.934-3.409-.17-6.434-1.805-8.457-4.287-.354.607-.556 1.311-.556 2.062 0 1.424.724 2.68 1.826 3.416-.675-.021-1.308-.207-1.86-.514v.053c0 1.988 1.414 3.645 3.293 4.023-.346.092-.708.143-1.082.143-.265 0-.521-.025-.771-.072.522 1.629 2.037 2.814 3.833 2.848-1.405 1.102-3.174 1.758-5.096 1.758-.333 0-.66-.018-.98-.059 1.815 1.164 3.974 1.844 6.29 1.844 7.547 0 11.675-6.252 11.675-11.674l-.013-.531c.802-.579 1.497-1.301 2.047-2.124z"/><rect x="10.083" y="100.042" width="20" height="19.999" fill="none"/></svg>