<svg xmlns="http://www.w3.org/2000/svg" width="40" height="31" viewBox="0 0 40 31"><path d="M39.999 5.259v-1.716c0-1.957-1.586-3.543-3.544-3.543h-32.912c-1.958 0-3.544 1.586-3.544 3.543v1.716h4.515v3.691h-4.515v4.542h4.515v3.782h-4.515v4.56h4.515v3.692h-4.515v1.697c0 1.958 1.586 3.543 3.544 3.543h32.912c1.958 0 3.544-1.585 3.544-3.543v-1.697h-4.586v-3.692h4.586v-4.56h-4.586v-3.782h4.586v-4.542h-4.586v-3.691h4.586zm-23.908 16.327v-13.136l10.946 6.568-10.946 6.568zm39.488-21.586h-13.609c-1.088 0-1.971.883-1.971 1.972v19.057c0 1.088.883 1.971 1.971 1.971h13.609c1.089 0 1.973-.883 1.973-1.971v-19.057c0-1.089-.884-1.972-1.973-1.972zm-13.703 2.696h4.148v1.873h-4.148v-1.873zm9.69 14.338h-9.69v-1.859h9.69v1.859zm4.142-4.174l-13.832.015v-1.802l13.832-.029v1.816zm0-4.152l-13.832.057v-1.844l13.832-.014v1.801z" fill="#fff"/></svg>