<!DOCTYPE svg PUBLIC "-//W3C//DTD SVG 1.1//EN" "http://www.w3.org/Graphics/SVG/1.1/DTD/svg11.dtd" [
	<!ENTITY ns_flows "http://ns.adobe.com/Flows/1.0/">
]><svg xmlns="http://www.w3.org/2000/svg" width="41" height="40" viewBox="60 250 41 40" overflow="visible" enable-background="new 60 250 41 40"><path fill="#fff" d="M100.751 259.83v-1.697c0-1.934-1.586-3.502-3.545-3.502h-32.912c-1.957 0-3.543 1.568-3.543 3.502v1.697h4.514v3.647h-4.514v4.489h4.514v3.74h-4.514v4.506h4.514v3.649h-4.514v1.677c0 1.937 1.586 3.502 3.543 3.502h32.912c1.959 0 3.545-1.565 3.545-3.502v-1.677h-4.586v-3.649h4.586v-4.506h-4.586v-3.74h4.586v-4.489h-4.586v-3.647h4.586zm-23.908 16.139v-12.985l10.945 6.491-10.945 6.494z"/><rect x="60.5" y="250" width="40" height="40" fill="none"/></svg>