<svg xmlns="http://www.w3.org/2000/svg" width="16.15" height="18" viewBox="0 0 16.15 18"><path fill="#515A65" d="M16.275 10.373v5.307c0 .332-.068.634-.21.912-.141.278-.333.523-.576.732-.241.21-.521.374-.838.495-.318.121-.664.181-1.032.181h-10.848c-.361 0-.702-.06-1.021-.181-.318-.121-.599-.284-.84-.495-.24-.209-.435-.455-.576-.732-.141-.278-.21-.581-.21-.912v-5.307c0-.314.069-.614.21-.901.143-.285.337-.532.577-.737.241-.204.521-.371.84-.495.318-.124.659-.188 1.02-.188h10.848c.36 0 .702.064 1.025.188.322.124.604.291.845.495.243.206.436.452.576.737.142.287.21.587.21.901zm-12.777 5.899v-5.598h1.33v-.846h-3.592v.823h1.152v5.621h1.11zm.543-13.021l-1.486-3.251h1.294l.738 2.43.738-2.43h1.292l-1.391 3.251v3.786h-1.185v-3.786zm3.495 8.245h-1.111v2.989l.011.5c.007.119-.008.192-.049.224-.034.129-.127.223-.284.284-.154.06-.274-.025-.356-.26l-.012-.236.012-.49-.022-3.011h-1.116l.026 2.964-.014.584c-.006.157-.005.276.014.358l.047.416c.016.148.091.269.231.357.128.08.279.121.45.121.175 0 .346-.028.511-.085.167-.058.318-.135.458-.235.141-.101.243-.208.308-.32l-.023.591.919.024v-4.775zm-1.017-7.748c0-.443.042-.811.122-1.099.098-.299.254-.513.473-.642.218-.162.495-.243.833-.243.299 0 .547.05.75.146.201.081.367.221.496.423.098.145.17.309.218.495.047.202.072.473.072.812v1.268c0 .461-.025.791-.072.993-.02.186-.097.392-.244.617-.144.2-.301.334-.47.399-.203.096-.431.143-.691.143-.263 0-.508-.04-.722-.121-.204-.064-.353-.181-.449-.349-.096-.132-.179-.311-.243-.546-.047-.218-.073-.547-.073-.99v-1.306zm.993 1.971c0 .129.049.243.146.346.095.1.213.149.348.149.128 0 .244-.047.347-.145.102-.095.149-.212.149-.35v-2.625c0-.145-.048-.266-.149-.367-.103-.101-.219-.152-.347-.152-.127 0-.243.051-.343.152-.1.101-.151.222-.151.367v2.625zm3.615 9.187v-2.478c0-.476-.168-.814-.508-1.016-.111-.064-.243-.097-.388-.097-.268 0-.571.125-.917.374v-1.861h-1.112v6.396l.919-.024.072-.399c.298.251.567.403.802.46.24.055.439.033.606-.068.164-.1.293-.264.386-.496.093-.228.14-.493.14-.791zm-1.342-2.974c.129 0 .242.039.344.116.101.076.151.163.151.259v2.807c0 .095-.051.18-.151.252-.102.072-.215.109-.344.109-.131 0-.244-.038-.347-.109-.1-.073-.147-.157-.147-.252v-2.807c0-.096.048-.183.147-.259.103-.077.216-.116.347-.116zm.519-5.39l-.06-.201-.037-.2-.024-.328v-3.854h1.041v3.843c0 .097.035.182.108.254.073.072.168.109.289.109.113 0 .209-.038.288-.109.084-.073.124-.157.124-.254v-3.843h.967v4.932h-1.231l.021-.398c-.113.16-.22.286-.326.372-.128.08-.269.122-.424.122-.183 0-.338-.042-.458-.122-.106-.069-.198-.179-.278-.323zm4.328 8.051h-.834v.542c0 .13-.045.23-.139.302-.092.074-.203.108-.331.108h-.172c-.129 0-.232-.034-.318-.108-.083-.072-.128-.172-.128-.302v-1.1480000000000001h1.922v-.665l-.012-.718c-.007-.23-.027-.409-.059-.537-.034-.219-.131-.394-.299-.528-.164-.132-.357-.224-.58-.271-.222-.052-.447-.058-.677-.026-.229.033-.428.108-.6.229-.216.145-.373.344-.47.595-.097.247-.146.595-.146 1.039v1.487c0 .626.168 1.075.498 1.34.306.25.627.375.964.375h.099c.382-.023.714-.185 1.005-.484.217-.216.326-.504.326-.857l-.049-.373zm-.86-1.417h-1.062l.022-.59c0-.129.051-.235.146-.321.098-.085.212-.127.352-.127h.05c.144 0 .267.041.368.122.098.081.15.189.15.327l-.026.589z"/></svg>